<?xml version="1.0" encoding="UTF-8" standalone="no"?>
<!DOCTYPE svg PUBLIC "-//W3C//DTD SVG 1.1//EN"
 "http://www.w3.org/Graphics/SVG/1.1/DTD/svg11.dtd">
<!-- Generated by graphviz version 2.40.1 (20161225.0304)
 -->
<!-- Title: PHG4CylinderGeom_Spacalv1::get_azimuthal_distance Pages: 1 -->
<svg width="1415pt" height="617pt"
 viewBox="0.00 0.00 1415.00 617.00" xmlns="http://www.w3.org/2000/svg" xmlns:xlink="http://www.w3.org/1999/xlink">
<g id="graph0" class="graph" transform="scale(1 1) rotate(0) translate(4 613)">
<title>PHG4CylinderGeom_Spacalv1::get_azimuthal_distance</title>
<!-- Node1 -->
<g id="node1" class="node">
<title>Node1</title>
<polygon fill="#bfbfbf" stroke="#000000" points="0,-70.5 0,-102.5 167,-102.5 167,-70.5 0,-70.5"/>
<text text-anchor="start" x="8" y="-89.5" font-family="FreeSans" font-size="10.00" fill="#000000">PHG4CylinderGeom_Spacalv1</text>
<text text-anchor="middle" x="83.5" y="-77.5" font-family="FreeSans" font-size="10.00" fill="#000000">::get_azimuthal_distance</text>
</g>
<!-- Node2 -->
<g id="node2" class="node">
<title>Node2</title>
<g id="a_node2"><a xlink:href="../../d0/da4/classPHG4SpacalDetector.html#acde5479ab63b50fea1713c8a92b5a3b2" target="_top" xlink:title="PHG4SpacalDetector\l::Construct_AzimuthalSeg">
<polygon fill="none" stroke="#000000" points="213.5,-45.5 213.5,-77.5 359.5,-77.5 359.5,-45.5 213.5,-45.5"/>
<text text-anchor="start" x="221.5" y="-64.5" font-family="FreeSans" font-size="10.00" fill="#000000">PHG4SpacalDetector</text>
<text text-anchor="middle" x="286.5" y="-52.5" font-family="FreeSans" font-size="10.00" fill="#000000">::Construct_AzimuthalSeg</text>
</a>
</g>
</g>
<!-- Node1&#45;&gt;Node2 -->
<g id="edge1" class="edge">
<title>Node1&#45;&gt;Node2</title>
<path fill="none" stroke="#191970" d="M177.3386,-74.9435C189.4198,-73.4557 201.6465,-71.9499 213.3289,-70.5112"/>
<polygon fill="#191970" stroke="#191970" points="176.7371,-71.4911 167.2399,-76.1872 177.5927,-78.4386 176.7371,-71.4911"/>
</g>
<!-- Node6 -->
<g id="node6" class="node">
<title>Node6</title>
<g id="a_node6"><a xlink:href="../../d2/da2/classPHG4CylinderGeom__Spacalv1.html#ad54faefb41787c1896349ee5d83b5e42" target="_top" xlink:title="PHG4CylinderGeom_Spacalv1\l::Print">
<polygon fill="none" stroke="#000000" points="203,-104.5 203,-136.5 370,-136.5 370,-104.5 203,-104.5"/>
<text text-anchor="start" x="211" y="-123.5" font-family="FreeSans" font-size="10.00" fill="#000000">PHG4CylinderGeom_Spacalv1</text>
<text text-anchor="middle" x="286.5" y="-111.5" font-family="FreeSans" font-size="10.00" fill="#000000">::Print</text>
</a>
</g>
</g>
<!-- Node1&#45;&gt;Node6 -->
<g id="edge5" class="edge">
<title>Node1&#45;&gt;Node6</title>
<path fill="none" stroke="#191970" d="M177.2558,-102.2029C185.8295,-103.6389 194.4773,-105.0873 202.9526,-106.5068"/>
<polygon fill="#191970" stroke="#191970" points="177.6807,-98.7254 167.2399,-100.5254 176.5243,-105.6293 177.6807,-98.7254"/>
</g>
<!-- Node3 -->
<g id="node3" class="node">
<title>Node3</title>
<g id="a_node3"><a xlink:href="../../d0/da4/classPHG4SpacalDetector.html#a332cf236022185ea0873a2c26cf5b12f" target="_top" xlink:title="PHG4SpacalDetector\l::ConstructMe">
<polygon fill="none" stroke="#000000" points="631.5,-45.5 631.5,-77.5 753.5,-77.5 753.5,-45.5 631.5,-45.5"/>
<text text-anchor="start" x="639.5" y="-64.5" font-family="FreeSans" font-size="10.00" fill="#000000">PHG4SpacalDetector</text>
<text text-anchor="middle" x="692.5" y="-52.5" font-family="FreeSans" font-size="10.00" fill="#000000">::ConstructMe</text>
</a>
</g>
</g>
<!-- Node2&#45;&gt;Node3 -->
<g id="edge2" class="edge">
<title>Node2&#45;&gt;Node3</title>
<path fill="none" stroke="#191970" d="M369.7945,-61.5C447.5148,-61.5 561.6554,-61.5 631.3022,-61.5"/>
<polygon fill="#191970" stroke="#191970" points="369.5536,-58.0001 359.5536,-61.5 369.5535,-65.0001 369.5536,-58.0001"/>
</g>
<!-- Node4 -->
<g id="node4" class="node">
<title>Node4</title>
<g id="a_node4"><a xlink:href="../../d1/d05/classPHG4FullProjSpacalDetector.html#a5fff07b9f6daa78ccc2d56ac277bab0e" target="_top" xlink:title="PHG4FullProjSpacalDetector\l::ConstructMe">
<polygon fill="none" stroke="#000000" points="821.5,-.5 821.5,-32.5 979.5,-32.5 979.5,-.5 821.5,-.5"/>
<text text-anchor="start" x="829.5" y="-19.5" font-family="FreeSans" font-size="10.00" fill="#000000">PHG4FullProjSpacalDetector</text>
<text text-anchor="middle" x="900.5" y="-7.5" font-family="FreeSans" font-size="10.00" fill="#000000">::ConstructMe</text>
</a>
</g>
</g>
<!-- Node3&#45;&gt;Node4 -->
<g id="edge3" class="edge">
<title>Node3&#45;&gt;Node4</title>
<path fill="none" stroke="#191970" d="M763.2925,-46.1843C783.5771,-41.7958 805.7448,-36.9999 826.232,-32.5676"/>
<polygon fill="#191970" stroke="#191970" points="762.5352,-42.7671 753.5014,-48.3026 764.0154,-49.6088 762.5352,-42.7671"/>
</g>
<!-- Node5 -->
<g id="node5" class="node">
<title>Node5</title>
<g id="a_node5"><a xlink:href="../../d3/db1/classPHG4FullProjTiltedSpacalDetector.html#a4719c5e160407e1b7f02bced47425698" target="_top" xlink:title="PHG4FullProjTiltedSpacal\lDetector::ConstructMe">
<polygon fill="none" stroke="#000000" points="1257.5,-170.5 1257.5,-202.5 1399.5,-202.5 1399.5,-170.5 1257.5,-170.5"/>
<text text-anchor="start" x="1265.5" y="-189.5" font-family="FreeSans" font-size="10.00" fill="#000000">PHG4FullProjTiltedSpacal</text>
<text text-anchor="middle" x="1328.5" y="-177.5" font-family="FreeSans" font-size="10.00" fill="#000000">Detector::ConstructMe</text>
</a>
</g>
</g>
<!-- Node3&#45;&gt;Node5 -->
<g id="edge4" class="edge">
<title>Node3&#45;&gt;Node5</title>
<path fill="none" stroke="#191970" d="M763.8726,-58.0412C887.2214,-53.0616 1134.6893,-47.7465 1214,-80.5 1259.8194,-99.4224 1298.6411,-145.4578 1317.0558,-170.1738"/>
<polygon fill="#191970" stroke="#191970" points="763.6171,-54.5487 753.7705,-58.4595 763.9067,-61.5427 763.6171,-54.5487"/>
</g>
<!-- Node6&#45;&gt;Node3 -->
<g id="edge32" class="edge">
<title>Node6&#45;&gt;Node3</title>
<path fill="none" stroke="#191970" d="M379.9801,-106.3519C388.7743,-105.0412 397.5541,-103.7404 406,-102.5 483.6766,-91.092 573.2627,-78.3361 631.2836,-70.1275"/>
<polygon fill="#191970" stroke="#191970" points="379.4353,-102.8943 370.062,-107.8332 380.4693,-109.8175 379.4353,-102.8943"/>
</g>
<!-- Node7 -->
<g id="node7" class="node">
<title>Node7</title>
<g id="a_node7"><a xlink:href="../../db/d5f/classPHG4CylinderGeom__Spacalv2.html#a91340b29587e1c381d7ae57bf8cf206e" target="_top" xlink:title="PHG4CylinderGeom_Spacalv2\l::Print">
<polygon fill="none" stroke="#000000" points="406,-197.5 406,-229.5 573,-229.5 573,-197.5 406,-197.5"/>
<text text-anchor="start" x="414" y="-216.5" font-family="FreeSans" font-size="10.00" fill="#000000">PHG4CylinderGeom_Spacalv2</text>
<text text-anchor="middle" x="489.5" y="-204.5" font-family="FreeSans" font-size="10.00" fill="#000000">::Print</text>
</a>
</g>
</g>
<!-- Node6&#45;&gt;Node7 -->
<g id="edge6" class="edge">
<title>Node6&#45;&gt;Node7</title>
<path fill="none" stroke="#191970" d="M330.958,-140.8675C368.1023,-157.8843 420.3385,-181.8152 454.5453,-197.4863"/>
<polygon fill="#191970" stroke="#191970" points="332.409,-137.6824 321.8599,-136.6994 329.4935,-144.0464 332.409,-137.6824"/>
</g>
<!-- Node30 -->
<g id="node30" class="node">
<title>Node30</title>
<g id="a_node30"><a xlink:href="../../d0/da4/classPHG4SpacalDetector.html#a53d2ee90ace814d4ca2e95c71521885c" target="_top" xlink:title="PHG4SpacalDetector\l::Print">
<polygon fill="none" stroke="#000000" points="428.5,-112.5 428.5,-144.5 550.5,-144.5 550.5,-112.5 428.5,-112.5"/>
<text text-anchor="start" x="436.5" y="-131.5" font-family="FreeSans" font-size="10.00" fill="#000000">PHG4SpacalDetector</text>
<text text-anchor="middle" x="489.5" y="-119.5" font-family="FreeSans" font-size="10.00" fill="#000000">::Print</text>
</a>
</g>
</g>
<!-- Node6&#45;&gt;Node30 -->
<g id="edge33" class="edge">
<title>Node6&#45;&gt;Node30</title>
<path fill="none" stroke="#191970" d="M380.3283,-124.1977C396.6101,-124.8393 413.1566,-125.4914 428.2793,-126.0874"/>
<polygon fill="#191970" stroke="#191970" points="380.37,-120.6967 370.2399,-123.8001 380.0943,-127.6913 380.37,-120.6967"/>
</g>
<!-- Node8 -->
<g id="node8" class="node">
<title>Node8</title>
<g id="a_node8"><a xlink:href="../../de/d61/classPHG4CylinderGeom__Spacalv3.html#ab15ad149ea75e222394cf00342045569" target="_top" xlink:title="PHG4CylinderGeom_Spacalv3\l::Print">
<polygon fill="none" stroke="#000000" points="609,-230.5 609,-262.5 776,-262.5 776,-230.5 609,-230.5"/>
<text text-anchor="start" x="617" y="-249.5" font-family="FreeSans" font-size="10.00" fill="#000000">PHG4CylinderGeom_Spacalv3</text>
<text text-anchor="middle" x="692.5" y="-237.5" font-family="FreeSans" font-size="10.00" fill="#000000">::Print</text>
</a>
</g>
</g>
<!-- Node7&#45;&gt;Node8 -->
<g id="edge7" class="edge">
<title>Node7&#45;&gt;Node8</title>
<path fill="none" stroke="#191970" d="M583.2558,-228.7411C591.8295,-230.1348 600.4773,-231.5406 608.9526,-232.9184"/>
<polygon fill="#191970" stroke="#191970" points="583.6719,-225.2629 573.2399,-227.1129 582.5487,-232.1722 583.6719,-225.2629"/>
</g>
<!-- Node9 -->
<g id="node9" class="node">
<title>Node9</title>
<g id="a_node9"><a xlink:href="../../de/d61/classPHG4CylinderGeom__Spacalv3.html#ab2c1e8230a0eb392d993579333fe4fac" target="_top" xlink:title="PHG4CylinderGeom_Spacalv3\l::get_tower_z_phi_ID">
<polygon fill="none" stroke="#000000" points="817,-390.5 817,-422.5 984,-422.5 984,-390.5 817,-390.5"/>
<text text-anchor="start" x="825" y="-409.5" font-family="FreeSans" font-size="10.00" fill="#000000">PHG4CylinderGeom_Spacalv3</text>
<text text-anchor="middle" x="900.5" y="-397.5" font-family="FreeSans" font-size="10.00" fill="#000000">::get_tower_z_phi_ID</text>
</a>
</g>
</g>
<!-- Node8&#45;&gt;Node9 -->
<g id="edge8" class="edge">
<title>Node8&#45;&gt;Node9</title>
<path fill="none" stroke="#191970" d="M721.6037,-268.8875C764.1682,-301.6294 842.3777,-361.7906 879.6646,-390.4728"/>
<polygon fill="#191970" stroke="#191970" points="723.6491,-266.0451 713.5888,-262.7222 719.3811,-271.5935 723.6491,-266.0451"/>
</g>
<!-- Node21 -->
<g id="node21" class="node">
<title>Node21</title>
<g id="a_node21"><a xlink:href="../../de/d61/classPHG4CylinderGeom__Spacalv3.html#ac4c8fad6f273cde4d51cf7bfa05b1f97" target="_top" xlink:title="get approximate radial position of tower">
<polygon fill="none" stroke="#000000" points="817,-294.5 817,-326.5 984,-326.5 984,-294.5 817,-294.5"/>
<text text-anchor="start" x="825" y="-313.5" font-family="FreeSans" font-size="10.00" fill="#000000">PHG4CylinderGeom_Spacalv3</text>
<text text-anchor="middle" x="900.5" y="-301.5" font-family="FreeSans" font-size="10.00" fill="#000000">::get_tower_radial_position</text>
</a>
</g>
</g>
<!-- Node8&#45;&gt;Node21 -->
<g id="edge21" class="edge">
<title>Node8&#45;&gt;Node21</title>
<path fill="none" stroke="#191970" d="M754.6096,-265.6107C784.4528,-274.7932 819.8215,-285.6758 848.2598,-294.4261"/>
<polygon fill="#191970" stroke="#191970" points="755.3058,-262.163 744.7187,-262.5673 753.2472,-268.8534 755.3058,-262.163"/>
</g>
<!-- Node22 -->
<g id="node22" class="node">
<title>Node22</title>
<g id="a_node22"><a xlink:href="../../d1/d05/classPHG4FullProjSpacalDetector.html#aabf48ea6e5463960c8c88d4f838ad3f1" target="_top" xlink:title="PHG4FullProjSpacalDetector\l::Print">
<polygon fill="none" stroke="#000000" points="821.5,-103.5 821.5,-135.5 979.5,-135.5 979.5,-103.5 821.5,-103.5"/>
<text text-anchor="start" x="829.5" y="-122.5" font-family="FreeSans" font-size="10.00" fill="#000000">PHG4FullProjSpacalDetector</text>
<text text-anchor="middle" x="900.5" y="-110.5" font-family="FreeSans" font-size="10.00" fill="#000000">::Print</text>
</a>
</g>
</g>
<!-- Node8&#45;&gt;Node22 -->
<g id="edge24" class="edge">
<title>Node8&#45;&gt;Node22</title>
<path fill="none" stroke="#191970" d="M714.1063,-222.8728C736.4906,-199.7412 773.531,-165.0651 812,-144.5 818.3361,-141.1128 825.1792,-138.1439 832.1553,-135.551"/>
<polygon fill="#191970" stroke="#191970" points="711.4554,-220.5813 707.096,-230.2378 716.5257,-225.4075 711.4554,-220.5813"/>
</g>
<!-- Node23 -->
<g id="node23" class="node">
<title>Node23</title>
<g id="a_node23"><a xlink:href="../../d3/db1/classPHG4FullProjTiltedSpacalDetector.html#a8e54948c02a94be2fdb1d1c1a2d5ea57" target="_top" xlink:title="PHG4FullProjTiltedSpacal\lDetector::Print">
<polygon fill="none" stroke="#000000" points="829.5,-441.5 829.5,-473.5 971.5,-473.5 971.5,-441.5 829.5,-441.5"/>
<text text-anchor="start" x="837.5" y="-460.5" font-family="FreeSans" font-size="10.00" fill="#000000">PHG4FullProjTiltedSpacal</text>
<text text-anchor="middle" x="900.5" y="-448.5" font-family="FreeSans" font-size="10.00" fill="#000000">Detector::Print</text>
</a>
</g>
</g>
<!-- Node8&#45;&gt;Node23 -->
<g id="edge25" class="edge">
<title>Node8&#45;&gt;Node23</title>
<path fill="none" stroke="#191970" d="M702.0646,-271.9347C718.4085,-311.9326 755.5179,-389.3138 812,-431.5 817.2604,-435.429 823.1058,-438.7663 829.214,-441.6008"/>
<polygon fill="#191970" stroke="#191970" points="705.3059,-270.6136 698.3576,-262.6154 698.8016,-273.2009 705.3059,-270.6136"/>
</g>
<!-- Node24 -->
<g id="node24" class="node">
<title>Node24</title>
<g id="a_node24"><a xlink:href="../../dc/d57/classPHG4SpacalPrototype4Detector.html#ac541c0f7e852650451b2c66e181ba5c5" target="_top" xlink:title="PHG4SpacalPrototype4Detector\l::Print">
<polygon fill="none" stroke="#000000" points="812,-230.5 812,-262.5 989,-262.5 989,-230.5 812,-230.5"/>
<text text-anchor="start" x="820" y="-249.5" font-family="FreeSans" font-size="10.00" fill="#000000">PHG4SpacalPrototype4Detector</text>
<text text-anchor="middle" x="900.5" y="-237.5" font-family="FreeSans" font-size="10.00" fill="#000000">::Print</text>
</a>
</g>
</g>
<!-- Node8&#45;&gt;Node24 -->
<g id="edge26" class="edge">
<title>Node8&#45;&gt;Node24</title>
<path fill="none" stroke="#191970" d="M786.4582,-246.5C794.9148,-246.5 803.4609,-246.5 811.8698,-246.5"/>
<polygon fill="#191970" stroke="#191970" points="786.2025,-243.0001 776.2025,-246.5 786.2024,-250.0001 786.2025,-243.0001"/>
</g>
<!-- Node27 -->
<g id="node27" class="node">
<title>Node27</title>
<g id="a_node27"><a xlink:href="../../db/dc2/classPHG4SpacalPrototypeDetector.html#acf856a21dc41c82d03a1d79a23dff3a3" target="_top" xlink:title="PHG4SpacalPrototypeDetector\l::Print">
<polygon fill="none" stroke="#000000" points="815,-154.5 815,-186.5 986,-186.5 986,-154.5 815,-154.5"/>
<text text-anchor="start" x="823" y="-173.5" font-family="FreeSans" font-size="10.00" fill="#000000">PHG4SpacalPrototypeDetector</text>
<text text-anchor="middle" x="900.5" y="-161.5" font-family="FreeSans" font-size="10.00" fill="#000000">::Print</text>
</a>
</g>
</g>
<!-- Node8&#45;&gt;Node27 -->
<g id="edge29" class="edge">
<title>Node8&#45;&gt;Node27</title>
<path fill="none" stroke="#191970" d="M745.7795,-227.0325C780.1704,-214.4666 824.3603,-198.3203 856.7027,-186.5029"/>
<polygon fill="#191970" stroke="#191970" points="744.5487,-223.7558 736.3573,-230.4752 746.9511,-230.3307 744.5487,-223.7558"/>
</g>
<!-- Node10 -->
<g id="node10" class="node">
<title>Node10</title>
<g id="a_node10"><a xlink:href="../../d8/d58/classCaloWaveFormSim.html#aa3e1ea0bea6ee882043398365a06dfdc" target="_top" xlink:title="CaloWaveFormSim::process\l_g4hits">
<polygon fill="none" stroke="#000000" points="1041,-576.5 1041,-608.5 1198,-608.5 1198,-576.5 1041,-576.5"/>
<text text-anchor="start" x="1049" y="-595.5" font-family="FreeSans" font-size="10.00" fill="#000000">CaloWaveFormSim::process</text>
<text text-anchor="middle" x="1119.5" y="-583.5" font-family="FreeSans" font-size="10.00" fill="#000000">_g4hits</text>
</a>
</g>
</g>
<!-- Node9&#45;&gt;Node10 -->
<g id="edge9" class="edge">
<title>Node9&#45;&gt;Node10</title>
<path fill="none" stroke="#191970" d="M986.0677,-428.7259C987.0768,-429.6153 988.0554,-430.5396 989,-431.5 1032.8455,-476.0769 980.7841,-523.2905 1025,-567.5 1029.5604,-572.0597 1034.849,-575.8166 1040.5493,-578.9085"/>
<polygon fill="#191970" stroke="#191970" points="987.8986,-425.7258 977.7858,-422.5665 983.7213,-431.3427 987.8986,-425.7258"/>
</g>
<!-- Node12 -->
<g id="node12" class="node">
<title>Node12</title>
<g id="a_node12"><a xlink:href="../../db/d4b/classEMCalAna.html#ab478dd11f24604db6fece30078120c73" target="_top" xlink:title="EMCalAna::process_event_SF">
<polygon fill="none" stroke="#000000" points="1037.5,-537.5 1037.5,-557.5 1201.5,-557.5 1201.5,-537.5 1037.5,-537.5"/>
<text text-anchor="middle" x="1119.5" y="-544.5" font-family="FreeSans" font-size="10.00" fill="#000000">EMCalAna::process_event_SF</text>
</a>
</g>
</g>
<!-- Node9&#45;&gt;Node12 -->
<g id="edge11" class="edge">
<title>Node9&#45;&gt;Node12</title>
<path fill="none" stroke="#191970" d="M985.4729,-428.4819C986.6861,-429.4455 987.8634,-430.451 989,-431.5 1022.7912,-462.6885 990.0349,-498.6335 1025,-528.5 1029.0718,-531.9781 1033.6022,-534.8835 1038.413,-537.3051"/>
<polygon fill="#191970" stroke="#191970" points="987.2287,-425.4432 976.9925,-422.7096 983.2898,-431.2299 987.2287,-425.4432"/>
</g>
<!-- Node14 -->
<g id="node14" class="node">
<title>Node14</title>
<g id="a_node14"><a xlink:href="../../dc/d20/classPHG4FullProjSpacalCellReco.html#aea3e5a8a10917a094b537adc5201d6f9" target="_top" xlink:title="module initialization">
<polygon fill="none" stroke="#000000" points="1040.5,-345.5 1040.5,-377.5 1198.5,-377.5 1198.5,-345.5 1040.5,-345.5"/>
<text text-anchor="start" x="1048.5" y="-364.5" font-family="FreeSans" font-size="10.00" fill="#000000">PHG4FullProjSpacalCellReco</text>
<text text-anchor="middle" x="1119.5" y="-352.5" font-family="FreeSans" font-size="10.00" fill="#000000">::InitRun</text>
</a>
</g>
</g>
<!-- Node9&#45;&gt;Node14 -->
<g id="edge13" class="edge">
<title>Node9&#45;&gt;Node14</title>
<path fill="none" stroke="#191970" d="M988.7868,-388.3589C1006.196,-384.7816 1024.3491,-381.0516 1041.3936,-377.5493"/>
<polygon fill="#191970" stroke="#191970" points="987.7274,-385.0034 978.6365,-390.4445 989.1364,-391.8601 987.7274,-385.0034"/>
</g>
<!-- Node15 -->
<g id="node15" class="node">
<title>Node15</title>
<g id="a_node15"><a xlink:href="../../dc/d20/classPHG4FullProjSpacalCellReco.html#aa31a2feab594c495ddf4133d72a9badb" target="_top" xlink:title="event processing">
<polygon fill="none" stroke="#000000" points="1040.5,-435.5 1040.5,-467.5 1198.5,-467.5 1198.5,-435.5 1040.5,-435.5"/>
<text text-anchor="start" x="1048.5" y="-454.5" font-family="FreeSans" font-size="10.00" fill="#000000">PHG4FullProjSpacalCellReco</text>
<text text-anchor="middle" x="1119.5" y="-442.5" font-family="FreeSans" font-size="10.00" fill="#000000">::process_event</text>
</a>
</g>
</g>
<!-- Node9&#45;&gt;Node15 -->
<g id="edge14" class="edge">
<title>Node9&#45;&gt;Node15</title>
<path fill="none" stroke="#191970" d="M988.7868,-424.6411C1006.196,-428.2184 1024.3491,-431.9484 1041.3936,-435.4507"/>
<polygon fill="#191970" stroke="#191970" points="989.1364,-421.1399 978.6365,-422.5555 987.7274,-427.9966 989.1364,-421.1399"/>
</g>
<!-- Node16 -->
<g id="node16" class="node">
<title>Node16</title>
<g id="a_node16"><a xlink:href="../../d0/da4/classPHG4SpacalDetector.html#af2c4c4c1f8ca4bba2552dd18f6ff54b5" target="_top" xlink:title="PHG4SpacalDetector\l::AddCellGeometryNode">
<polygon fill="none" stroke="#000000" points="1050.5,-294.5 1050.5,-326.5 1188.5,-326.5 1188.5,-294.5 1050.5,-294.5"/>
<text text-anchor="start" x="1058.5" y="-313.5" font-family="FreeSans" font-size="10.00" fill="#000000">PHG4SpacalDetector</text>
<text text-anchor="middle" x="1119.5" y="-301.5" font-family="FreeSans" font-size="10.00" fill="#000000">::AddCellGeometryNode</text>
</a>
</g>
</g>
<!-- Node9&#45;&gt;Node16 -->
<g id="edge15" class="edge">
<title>Node9&#45;&gt;Node16</title>
<path fill="none" stroke="#191970" d="M932.8662,-384.926C957.3256,-369.4076 992.1844,-348.9297 1025,-335.5 1033.0887,-332.1897 1041.7474,-329.1995 1050.4194,-326.5347"/>
<polygon fill="#191970" stroke="#191970" points="930.871,-382.0476 924.3483,-390.3966 934.6539,-387.9375 930.871,-382.0476"/>
</g>
<!-- Node17 -->
<g id="node17" class="node">
<title>Node17</title>
<g id="a_node17"><a xlink:href="../../de/dea/classPHG4SpacalSteppingAction.html#a145d3819045bf93814bc1a2352834da2" target="_top" xlink:title="PHG4SpacalSteppingAction\l::NoHitSteppingAction">
<polygon fill="none" stroke="#000000" points="1042,-486.5 1042,-518.5 1197,-518.5 1197,-486.5 1042,-486.5"/>
<text text-anchor="start" x="1050" y="-505.5" font-family="FreeSans" font-size="10.00" fill="#000000">PHG4SpacalSteppingAction</text>
<text text-anchor="middle" x="1119.5" y="-493.5" font-family="FreeSans" font-size="10.00" fill="#000000">::NoHitSteppingAction</text>
</a>
</g>
</g>
<!-- Node9&#45;&gt;Node17 -->
<g id="edge17" class="edge">
<title>Node9&#45;&gt;Node17</title>
<path fill="none" stroke="#191970" d="M981.8947,-427.1778C984.3412,-428.5293 986.7172,-429.9681 989,-431.5 1010.5572,-445.9659 1003.3229,-463.2144 1025,-477.5 1030.243,-480.9552 1035.9445,-483.9339 1041.8624,-486.5016"/>
<polygon fill="#191970" stroke="#191970" points="983.2836,-423.9599 972.7692,-422.6565 980.1759,-430.2323 983.2836,-423.9599"/>
</g>
<!-- Node19 -->
<g id="node19" class="node">
<title>Node19</title>
<g id="a_node19"><a xlink:href="../../d6/dd1/classCaloWaveformSim.html#af0b3d67751fd6cc4e055fbde6f73d02f" target="_top" xlink:title="CaloWaveformSim::maphitetaphi">
<polygon fill="none" stroke="#000000" points="1028,-396.5 1028,-416.5 1211,-416.5 1211,-396.5 1028,-396.5"/>
<text text-anchor="middle" x="1119.5" y="-403.5" font-family="FreeSans" font-size="10.00" fill="#000000">CaloWaveformSim::maphitetaphi</text>
</a>
</g>
</g>
<!-- Node9&#45;&gt;Node19 -->
<g id="edge19" class="edge">
<title>Node9&#45;&gt;Node19</title>
<path fill="none" stroke="#191970" d="M994.3388,-406.5C1005.4256,-406.5 1016.7311,-406.5 1027.788,-406.5"/>
<polygon fill="#191970" stroke="#191970" points="994.232,-403.0001 984.2319,-406.5 994.2319,-410.0001 994.232,-403.0001"/>
</g>
<!-- Node11 -->
<g id="node11" class="node">
<title>Node11</title>
<g id="a_node11"><a xlink:href="../../d8/d58/classCaloWaveFormSim.html#acb5bbdbf3ce5e1f53bef2065bf37105d" target="_top" xlink:title="event processing method">
<polygon fill="none" stroke="#000000" points="1250,-576.5 1250,-608.5 1407,-608.5 1407,-576.5 1250,-576.5"/>
<text text-anchor="start" x="1258" y="-595.5" font-family="FreeSans" font-size="10.00" fill="#000000">CaloWaveFormSim::process</text>
<text text-anchor="middle" x="1328.5" y="-583.5" font-family="FreeSans" font-size="10.00" fill="#000000">_event</text>
</a>
</g>
</g>
<!-- Node10&#45;&gt;Node11 -->
<g id="edge10" class="edge">
<title>Node10&#45;&gt;Node11</title>
<path fill="none" stroke="#191970" d="M1208.6136,-592.5C1222.3234,-592.5 1236.3944,-592.5 1249.8548,-592.5"/>
<polygon fill="#191970" stroke="#191970" points="1208.2162,-589.0001 1198.2161,-592.5 1208.2161,-596.0001 1208.2162,-589.0001"/>
</g>
<!-- Node13 -->
<g id="node13" class="node">
<title>Node13</title>
<g id="a_node13"><a xlink:href="../../db/d4b/classEMCalAna.html#a3b829b80df0fd8625130f3d9c11f5d3d" target="_top" xlink:title="EMCalAna::process_event">
<polygon fill="none" stroke="#000000" points="1255,-537.5 1255,-557.5 1402,-557.5 1402,-537.5 1255,-537.5"/>
<text text-anchor="middle" x="1328.5" y="-544.5" font-family="FreeSans" font-size="10.00" fill="#000000">EMCalAna::process_event</text>
</a>
</g>
</g>
<!-- Node12&#45;&gt;Node13 -->
<g id="edge12" class="edge">
<title>Node12&#45;&gt;Node13</title>
<path fill="none" stroke="#191970" d="M1211.9083,-547.5C1226.2959,-547.5 1240.9935,-547.5 1254.8902,-547.5"/>
<polygon fill="#191970" stroke="#191970" points="1211.5025,-544.0001 1201.5025,-547.5 1211.5024,-551.0001 1211.5025,-544.0001"/>
</g>
<!-- Node16&#45;&gt;Node5 -->
<g id="edge16" class="edge">
<title>Node16&#45;&gt;Node5</title>
<path fill="none" stroke="#191970" d="M1197.9377,-291.8668C1203.4862,-289.6582 1208.8975,-287.2098 1214,-284.5 1254.9024,-262.7777 1293.9803,-224.2451 1314.2036,-202.5319"/>
<polygon fill="#191970" stroke="#191970" points="1196.6632,-288.6064 1188.5008,-295.3612 1199.094,-295.1708 1196.6632,-288.6064"/>
</g>
<!-- Node18 -->
<g id="node18" class="node">
<title>Node18</title>
<g id="a_node18"><a xlink:href="../../de/dea/classPHG4SpacalSteppingAction.html#ad27b2325877c9d504389c79a338d25fe" target="_top" xlink:title="stepping action">
<polygon fill="none" stroke="#000000" points="1251,-486.5 1251,-518.5 1406,-518.5 1406,-486.5 1251,-486.5"/>
<text text-anchor="start" x="1259" y="-505.5" font-family="FreeSans" font-size="10.00" fill="#000000">PHG4SpacalSteppingAction</text>
<text text-anchor="middle" x="1328.5" y="-493.5" font-family="FreeSans" font-size="10.00" fill="#000000">::UserSteppingAction</text>
</a>
</g>
</g>
<!-- Node17&#45;&gt;Node18 -->
<g id="edge18" class="edge">
<title>Node17&#45;&gt;Node18</title>
<path fill="none" stroke="#191970" d="M1207.4137,-502.5C1221.8049,-502.5 1236.6268,-502.5 1250.7498,-502.5"/>
<polygon fill="#191970" stroke="#191970" points="1207.0269,-499.0001 1197.0269,-502.5 1207.0268,-506.0001 1207.0269,-499.0001"/>
</g>
<!-- Node20 -->
<g id="node20" class="node">
<title>Node20</title>
<g id="a_node20"><a xlink:href="../../d6/dd1/classCaloWaveformSim.html#a5f6f1e88d3db0c9cdad473392d571a22" target="_top" xlink:title="CaloWaveformSim::process\l_event">
<polygon fill="none" stroke="#000000" points="1251,-390.5 1251,-422.5 1406,-422.5 1406,-390.5 1251,-390.5"/>
<text text-anchor="start" x="1259" y="-409.5" font-family="FreeSans" font-size="10.00" fill="#000000">CaloWaveformSim::process</text>
<text text-anchor="middle" x="1328.5" y="-397.5" font-family="FreeSans" font-size="10.00" fill="#000000">_event</text>
</a>
</g>
</g>
<!-- Node19&#45;&gt;Node20 -->
<g id="edge20" class="edge">
<title>Node19&#45;&gt;Node20</title>
<path fill="none" stroke="#191970" d="M1221.4758,-406.5C1231.3896,-406.5 1241.3338,-406.5 1250.9511,-406.5"/>
<polygon fill="#191970" stroke="#191970" points="1221.1705,-403.0001 1211.1704,-406.5 1221.1704,-410.0001 1221.1705,-403.0001"/>
</g>
<!-- Node21&#45;&gt;Node14 -->
<g id="edge22" class="edge">
<title>Node21&#45;&gt;Node14</title>
<path fill="none" stroke="#191970" d="M979.3282,-328.8572C1002.5974,-334.2761 1027.8767,-340.1631 1050.4783,-345.4264"/>
<polygon fill="#191970" stroke="#191970" points="980.0256,-325.4261 969.4924,-326.5667 978.4379,-332.2437 980.0256,-325.4261"/>
</g>
<!-- Node21&#45;&gt;Node16 -->
<g id="edge23" class="edge">
<title>Node21&#45;&gt;Node16</title>
<path fill="none" stroke="#191970" d="M994.3086,-310.5C1013.136,-310.5 1032.5954,-310.5 1050.3979,-310.5"/>
<polygon fill="#191970" stroke="#191970" points="994.232,-307.0001 984.2319,-310.5 994.2319,-314.0001 994.232,-307.0001"/>
</g>
<!-- Node25 -->
<g id="node25" class="node">
<title>Node25</title>
<g id="a_node25"><a xlink:href="../../dc/d57/classPHG4SpacalPrototype4Detector.html#aed2a21ff80c7f387832f684e8ee7ee16" target="_top" xlink:title="PHG4SpacalPrototype4Detector\l::ConstructMe">
<polygon fill="none" stroke="#000000" points="1031,-192.5 1031,-224.5 1208,-224.5 1208,-192.5 1031,-192.5"/>
<text text-anchor="start" x="1039" y="-211.5" font-family="FreeSans" font-size="10.00" fill="#000000">PHG4SpacalPrototype4Detector</text>
<text text-anchor="middle" x="1119.5" y="-199.5" font-family="FreeSans" font-size="10.00" fill="#000000">::ConstructMe</text>
</a>
</g>
</g>
<!-- Node24&#45;&gt;Node25 -->
<g id="edge27" class="edge">
<title>Node24&#45;&gt;Node25</title>
<path fill="none" stroke="#191970" d="M999.3197,-229.3532C1009.8683,-227.5228 1020.5504,-225.6693 1030.9693,-223.8615"/>
<polygon fill="#191970" stroke="#191970" points="998.5144,-225.9406 989.26,-231.0987 999.7111,-232.8375 998.5144,-225.9406"/>
</g>
<!-- Node26 -->
<g id="node26" class="node">
<title>Node26</title>
<g id="a_node26"><a xlink:href="../../dc/d99/classPHG4SpacalPrototype4Subsystem.html#ad3b723b82ea11295df51f47bccc9a651" target="_top" xlink:title="PHG4SpacalPrototype4Subsystem\l::Print">
<polygon fill="none" stroke="#000000" points="1025,-243.5 1025,-275.5 1214,-275.5 1214,-243.5 1025,-243.5"/>
<text text-anchor="start" x="1033" y="-262.5" font-family="FreeSans" font-size="10.00" fill="#000000">PHG4SpacalPrototype4Subsystem</text>
<text text-anchor="middle" x="1119.5" y="-250.5" font-family="FreeSans" font-size="10.00" fill="#000000">::Print</text>
</a>
</g>
</g>
<!-- Node24&#45;&gt;Node26 -->
<g id="edge28" class="edge">
<title>Node24&#45;&gt;Node26</title>
<path fill="none" stroke="#191970" d="M999.5082,-252.3772C1007.9552,-252.8786 1016.4864,-253.385 1024.898,-253.8844"/>
<polygon fill="#191970" stroke="#191970" points="999.4498,-248.8677 989.26,-251.7689 999.035,-255.8554 999.4498,-248.8677"/>
</g>
<!-- Node28 -->
<g id="node28" class="node">
<title>Node28</title>
<g id="a_node28"><a xlink:href="../../db/dc2/classPHG4SpacalPrototypeDetector.html#aea582a01978e516e9a623421dc3c1e2c" target="_top" xlink:title="PHG4SpacalPrototypeDetector\l::ConstructMe">
<polygon fill="none" stroke="#000000" points="1034,-90.5 1034,-122.5 1205,-122.5 1205,-90.5 1034,-90.5"/>
<text text-anchor="start" x="1042" y="-109.5" font-family="FreeSans" font-size="10.00" fill="#000000">PHG4SpacalPrototypeDetector</text>
<text text-anchor="middle" x="1119.5" y="-97.5" font-family="FreeSans" font-size="10.00" fill="#000000">::ConstructMe</text>
</a>
</g>
</g>
<!-- Node27&#45;&gt;Node28 -->
<g id="edge30" class="edge">
<title>Node27&#45;&gt;Node28</title>
<path fill="none" stroke="#191970" d="M967.0404,-151.4258C974.4689,-149.1557 981.9095,-146.8194 989,-144.5 1005.1682,-139.2112 1008.7616,-136.5691 1025,-131.5 1034.8818,-128.4152 1045.4198,-125.3811 1055.7403,-122.5486"/>
<polygon fill="#191970" stroke="#191970" points="965.8725,-148.1223 957.3123,-154.3651 967.8972,-154.8231 965.8725,-148.1223"/>
</g>
<!-- Node29 -->
<g id="node29" class="node">
<title>Node29</title>
<g id="a_node29"><a xlink:href="../../d4/d00/classPHG4SpacalPrototypeSubsystem.html#aa41e83d9eb9896c9de002554c977c16e" target="_top" xlink:title="PHG4SpacalPrototypeSubsystem\l::Print">
<polygon fill="none" stroke="#000000" points="1028.5,-141.5 1028.5,-173.5 1210.5,-173.5 1210.5,-141.5 1028.5,-141.5"/>
<text text-anchor="start" x="1036.5" y="-160.5" font-family="FreeSans" font-size="10.00" fill="#000000">PHG4SpacalPrototypeSubsystem</text>
<text text-anchor="middle" x="1119.5" y="-148.5" font-family="FreeSans" font-size="10.00" fill="#000000">::Print</text>
</a>
</g>
</g>
<!-- Node27&#45;&gt;Node29 -->
<g id="edge31" class="edge">
<title>Node27&#45;&gt;Node29</title>
<path fill="none" stroke="#191970" d="M996.2161,-164.8182C1006.8247,-164.1885 1017.6087,-163.5483 1028.1612,-162.9219"/>
<polygon fill="#191970" stroke="#191970" points="995.887,-161.3315 986.112,-165.418 996.3019,-168.3192 995.887,-161.3315"/>
</g>
<!-- Node30&#45;&gt;Node3 -->
<g id="edge34" class="edge">
<title>Node30&#45;&gt;Node3</title>
<path fill="none" stroke="#191970" d="M547.7655,-109.2695C578.2094,-99.2215 615.0353,-87.0672 643.9218,-77.5332"/>
<polygon fill="#191970" stroke="#191970" points="546.5227,-105.9939 538.1236,-112.4518 548.7167,-112.6412 546.5227,-105.9939"/>
</g>
<!-- Node31 -->
<g id="node31" class="node">
<title>Node31</title>
<g id="a_node31"><a xlink:href="../../d6/dca/classPHG4SpacalSubsystem.html#aebcbd3611e915ac54a2f894d10005d4d" target="_top" xlink:title="PHG4SpacalSubsystem\l::Print">
<polygon fill="none" stroke="#000000" points="625.5,-112.5 625.5,-144.5 759.5,-144.5 759.5,-112.5 625.5,-112.5"/>
<text text-anchor="start" x="633.5" y="-131.5" font-family="FreeSans" font-size="10.00" fill="#000000">PHG4SpacalSubsystem</text>
<text text-anchor="middle" x="692.5" y="-119.5" font-family="FreeSans" font-size="10.00" fill="#000000">::Print</text>
</a>
</g>
</g>
<!-- Node30&#45;&gt;Node31 -->
<g id="edge35" class="edge">
<title>Node30&#45;&gt;Node31</title>
<path fill="none" stroke="#191970" d="M560.8185,-128.5C581.8133,-128.5 604.7033,-128.5 625.4225,-128.5"/>
<polygon fill="#191970" stroke="#191970" points="560.682,-125.0001 550.682,-128.5 560.6819,-132.0001 560.682,-125.0001"/>
</g>
</g>
</svg>
