<?xml version="1.0" encoding="UTF-8" standalone="no"?>
<!DOCTYPE svg PUBLIC "-//W3C//DTD SVG 1.1//EN"
 "http://www.w3.org/Graphics/SVG/1.1/DTD/svg11.dtd">
<!-- Generated by graphviz version 2.40.1 (20161225.0304)
 -->
<!-- Title: deltas Pages: 1 -->
<svg width="450pt" height="152pt"
 viewBox="0.00 0.00 450.00 152.00" xmlns="http://www.w3.org/2000/svg" xmlns:xlink="http://www.w3.org/1999/xlink">
<g id="graph0" class="graph" transform="scale(1 1) rotate(0) translate(4 148)">
<title>deltas</title>
<!-- Node1 -->
<g id="node1" class="node">
<title>Node1</title>
<polygon fill="#bfbfbf" stroke="#000000" points="0,-64.5 0,-84.5 47,-84.5 47,-64.5 0,-64.5"/>
<text text-anchor="middle" x="23.5" y="-71.5" font-family="FreeSans" font-size="10.00" fill="#000000">deltas</text>
</g>
<!-- Node2 -->
<g id="node2" class="node">
<title>Node2</title>
<g id="a_node2"><a xlink:href="../../d0/d0b/radgen_8f.html#a1630e32bec78b00d1fb42b058e221147" target="_top" xlink:title="fspen">
<polygon fill="none" stroke="#000000" points="85.5,-123.5 85.5,-143.5 129.5,-143.5 129.5,-123.5 85.5,-123.5"/>
<text text-anchor="middle" x="107.5" y="-130.5" font-family="FreeSans" font-size="10.00" fill="#000000">fspen</text>
</a>
</g>
</g>
<!-- Node1&#45;&gt;Node2 -->
<g id="edge1" class="edge">
<title>Node1&#45;&gt;Node2</title>
<path fill="none" stroke="#191970" d="M37.7495,-84.5085C50.6618,-93.5779 69.9082,-107.0962 84.9148,-117.6366"/>
<polygon fill="#191970" stroke="#191970" points="82.9858,-120.5587 93.1806,-123.4424 87.0092,-114.8305 82.9858,-120.5587"/>
</g>
<!-- Node4 -->
<g id="node4" class="node">
<title>Node4</title>
<g id="a_node4"><a xlink:href="../../d4/d3e/classActs_1_1Logger.html#a2e009357e8b3be1d10f072a71074ba58" target="_top" xlink:title="log a debug message">
<polygon fill="none" stroke="#000000" points="174.5,-68.5 174.5,-88.5 276.5,-88.5 276.5,-68.5 174.5,-68.5"/>
<text text-anchor="middle" x="225.5" y="-75.5" font-family="FreeSans" font-size="10.00" fill="#000000">Acts::Logger::log</text>
</a>
</g>
</g>
<!-- Node1&#45;&gt;Node4 -->
<g id="edge3" class="edge">
<title>Node1&#45;&gt;Node4</title>
<path fill="none" stroke="#191970" d="M47.0673,-74.9667C75.5975,-75.5316 124.729,-76.5045 164.222,-77.2866"/>
<polygon fill="#191970" stroke="#191970" points="164.229,-80.7873 174.2964,-77.4861 164.3676,-73.7887 164.229,-80.7873"/>
</g>
<!-- Node6 -->
<g id="node6" class="node">
<title>Node6</title>
<g id="a_node6"><a xlink:href="../../da/d55/TPCRateLayered_8m.html#a7507ef556477c204b499f1e189d40796" target="_top" xlink:title="sum">
<polygon fill="none" stroke="#000000" points="88.5,-45.5 88.5,-65.5 126.5,-65.5 126.5,-45.5 88.5,-45.5"/>
<text text-anchor="middle" x="107.5" y="-52.5" font-family="FreeSans" font-size="10.00" fill="#000000">sum</text>
</a>
</g>
</g>
<!-- Node1&#45;&gt;Node6 -->
<g id="edge5" class="edge">
<title>Node1&#45;&gt;Node6</title>
<path fill="none" stroke="#191970" d="M47.3463,-69.1062C56.9941,-66.924 68.2244,-64.3838 78.3515,-62.0931"/>
<polygon fill="#191970" stroke="#191970" points="79.4117,-65.4418 88.3931,-59.8218 77.8673,-58.6143 79.4117,-65.4418"/>
</g>
<!-- Node7 -->
<g id="node7" class="node">
<title>Node7</title>
<g id="a_node7"><a xlink:href="../../d0/d0b/radgen_8f.html#ada5e63d31d451843882a77beec0a6814" target="_top" xlink:title="vacpol">
<polygon fill="none" stroke="#000000" points="83,-6.5 83,-26.5 132,-26.5 132,-6.5 83,-6.5"/>
<text text-anchor="middle" x="107.5" y="-13.5" font-family="FreeSans" font-size="10.00" fill="#000000">vacpol</text>
</a>
</g>
</g>
<!-- Node1&#45;&gt;Node7 -->
<g id="edge6" class="edge">
<title>Node1&#45;&gt;Node7</title>
<path fill="none" stroke="#191970" d="M38.1317,-64.3972C50.8216,-55.6351 69.4154,-42.7965 84.159,-32.6164"/>
<polygon fill="#191970" stroke="#191970" points="86.5138,-35.2438 92.7541,-26.6817 82.5365,-29.4835 86.5138,-35.2438"/>
</g>
<!-- Node3 -->
<g id="node3" class="node">
<title>Node3</title>
<g id="a_node3"><a xlink:href="../../d0/d0b/radgen_8f.html#ab1b76762af9f6a2440e379e6481a2657" target="_top" xlink:title="fspens">
<polygon fill="none" stroke="#000000" points="200.5,-123.5 200.5,-143.5 250.5,-143.5 250.5,-123.5 200.5,-123.5"/>
<text text-anchor="middle" x="225.5" y="-130.5" font-family="FreeSans" font-size="10.00" fill="#000000">fspens</text>
</a>
</g>
</g>
<!-- Node2&#45;&gt;Node3 -->
<g id="edge2" class="edge">
<title>Node2&#45;&gt;Node3</title>
<path fill="none" stroke="#191970" d="M129.6949,-133.5C146.6721,-133.5 170.4186,-133.5 190.0223,-133.5"/>
<polygon fill="#191970" stroke="#191970" points="190.1272,-137.0001 200.1272,-133.5 190.1271,-130.0001 190.1272,-137.0001"/>
</g>
<!-- Node5 -->
<g id="node5" class="node">
<title>Node5</title>
<g id="a_node5"><a xlink:href="../../d4/d3e/classActs_1_1Logger.html#a7014d28adf021f598d69b840aa77c486" target="_top" xlink:title="decide whether a message with a given debug level has to be printed">
<polygon fill="none" stroke="#000000" points="319,-68.5 319,-88.5 442,-88.5 442,-68.5 319,-68.5"/>
<text text-anchor="middle" x="380.5" y="-75.5" font-family="FreeSans" font-size="10.00" fill="#000000">Acts::Logger::doPrint</text>
</a>
</g>
</g>
<!-- Node4&#45;&gt;Node5 -->
<g id="edge4" class="edge">
<title>Node4&#45;&gt;Node5</title>
<path fill="none" stroke="#191970" d="M276.6824,-78.5C286.9064,-78.5 297.8239,-78.5 308.5963,-78.5"/>
<polygon fill="#191970" stroke="#191970" points="308.8529,-82.0001 318.8528,-78.5 308.8528,-75.0001 308.8529,-82.0001"/>
</g>
<!-- Node7&#45;&gt;Node4 -->
<g id="edge8" class="edge">
<title>Node7&#45;&gt;Node4</title>
<path fill="none" stroke="#191970" d="M126.7214,-26.5994C145.8356,-36.6424 175.3762,-52.1638 197.1762,-63.618"/>
<polygon fill="#191970" stroke="#191970" points="195.8065,-66.852 206.2869,-68.405 199.0624,-60.6553 195.8065,-66.852"/>
</g>
<!-- Node8 -->
<g id="node8" class="node">
<title>Node8</title>
<g id="a_node8"><a xlink:href="../../d4/da6/classActs_1_1ExaTrkXTimer.html#a00d2cecc70cefbf45e374fb27c11632d" target="_top" xlink:title="Acts::ExaTrkXTimer\l::stop">
<polygon fill="none" stroke="#000000" points="168,-.5 168,-32.5 283,-32.5 283,-.5 168,-.5"/>
<text text-anchor="start" x="176" y="-19.5" font-family="FreeSans" font-size="10.00" fill="#000000">Acts::ExaTrkXTimer</text>
<text text-anchor="middle" x="225.5" y="-7.5" font-family="FreeSans" font-size="10.00" fill="#000000">::stop</text>
</a>
</g>
</g>
<!-- Node7&#45;&gt;Node8 -->
<g id="edge7" class="edge">
<title>Node7&#45;&gt;Node8</title>
<path fill="none" stroke="#191970" d="M132.2367,-16.5C139.7983,-16.5 148.5091,-16.5 157.5055,-16.5"/>
<polygon fill="#191970" stroke="#191970" points="157.7383,-20.0001 167.7382,-16.5 157.7382,-13.0001 157.7383,-20.0001"/>
</g>
</g>
</svg>
