<?xml version="1.0" encoding="UTF-8" standalone="no"?>
<!DOCTYPE svg PUBLIC "-//W3C//DTD SVG 1.1//EN"
 "http://www.w3.org/Graphics/SVG/1.1/DTD/svg11.dtd">
<!-- Generated by graphviz version 2.40.1 (20161225.0304)
 -->
<!-- Title: analysis/blob/master/EMCal_pi0_Calib_2023/macros/Fun4All_EMCal_sp.C Pages: 1 -->
<svg width="2291pt" height="362pt"
 viewBox="0.00 0.00 2291.00 362.00" xmlns="http://www.w3.org/2000/svg" xmlns:xlink="http://www.w3.org/1999/xlink">
<g id="graph0" class="graph" transform="scale(1 1) rotate(0) translate(4 358)">
<title>analysis/blob/master/EMCal_pi0_Calib_2023/macros/Fun4All_EMCal_sp.C</title>
<!-- Node1 -->
<g id="node1" class="node">
<title>Node1</title>
<polygon fill="#bfbfbf" stroke="#000000" points="947.5,-309.5 947.5,-353.5 1108.5,-353.5 1108.5,-309.5 947.5,-309.5"/>
<text text-anchor="start" x="955.5" y="-340.5" font-family="FreeSans" font-size="10.00" fill="#000000">analysis/blob/master</text>
<text text-anchor="start" x="955.5" y="-328.5" font-family="FreeSans" font-size="10.00" fill="#000000">/EMCal_pi0_Calib_2023</text>
<text text-anchor="middle" x="1028" y="-316.5" font-family="FreeSans" font-size="10.00" fill="#000000">/macros/Fun4All_EMCal_sp.C</text>
</g>
<!-- Node2 -->
<g id="node2" class="node">
<title>Node2</title>
<polygon fill="none" stroke="#bfbfbf" points="0,-240.5 0,-272.5 158,-272.5 158,-240.5 0,-240.5"/>
<text text-anchor="start" x="8" y="-259.5" font-family="FreeSans" font-size="10.00" fill="#000000">caloreco/RawClusterPosition</text>
<text text-anchor="middle" x="79" y="-247.5" font-family="FreeSans" font-size="10.00" fill="#000000">Correction.h</text>
</g>
<!-- Node1&#45;&gt;Node2 -->
<g id="edge1" class="edge">
<title>Node1&#45;&gt;Node2</title>
<path fill="none" stroke="#191970" d="M947.2723,-329.1792C796.1536,-324.1422 460.2009,-309.6726 168.0232,-273.0389"/>
<polygon fill="#191970" stroke="#191970" points="168.4449,-269.5645 158.0848,-271.7821 167.5666,-276.5092 168.4449,-269.5645"/>
</g>
<!-- Node3 -->
<g id="node3" class="node">
<title>Node3</title>
<g id="a_node3"><a xlink:href="../../d1/d11/FlagHandler_8h.html" target="_top" xlink:title="ffamodules/FlagHandler.h">
<polygon fill="none" stroke="#000000" points="1194,-177.5 1194,-197.5 1340,-197.5 1340,-177.5 1194,-177.5"/>
<text text-anchor="middle" x="1267" y="-184.5" font-family="FreeSans" font-size="10.00" fill="#000000">ffamodules/FlagHandler.h</text>
</a>
</g>
</g>
<!-- Node1&#45;&gt;Node3 -->
<g id="edge2" class="edge">
<title>Node1&#45;&gt;Node3</title>
<path fill="none" stroke="#191970" d="M1064.5591,-309.4727C1113.5327,-279.9657 1199.1792,-228.3627 1241.6432,-202.7778"/>
<polygon fill="#191970" stroke="#191970" points="1243.5024,-205.7438 1250.2615,-197.5851 1239.8898,-199.748 1243.5024,-205.7438"/>
</g>
<!-- Node4 -->
<g id="node4" class="node">
<title>Node4</title>
<g id="a_node4"><a xlink:href="../../d5/dc2/SubsysReco_8h.html" target="_top" xlink:title="fun4all/SubsysReco.h">
<polygon fill="none" stroke="#000000" points="1333,-114.5 1333,-134.5 1457,-134.5 1457,-114.5 1333,-114.5"/>
<text text-anchor="middle" x="1395" y="-121.5" font-family="FreeSans" font-size="10.00" fill="#000000">fun4all/SubsysReco.h</text>
</a>
</g>
</g>
<!-- Node1&#45;&gt;Node4 -->
<g id="edge63" class="edge">
<title>Node1&#45;&gt;Node4</title>
<path fill="none" stroke="#191970" d="M1108.6943,-315.2191C1178.7887,-297.6752 1279.6671,-263.8555 1349,-204 1367.7674,-187.798 1380.7065,-161.9504 1387.9739,-144.1506"/>
<polygon fill="#191970" stroke="#191970" points="1391.2726,-145.3239 1391.5987,-134.7341 1384.7399,-142.8092 1391.2726,-145.3239"/>
</g>
<!-- Node8 -->
<g id="node8" class="node">
<title>Node8</title>
<g id="a_node8"><a xlink:href="../../d2/d7c/HeadReco_8h.html" target="_top" xlink:title="ffamodules/HeadReco.h">
<polygon fill="none" stroke="#000000" points="1396,-177.5 1396,-197.5 1532,-197.5 1532,-177.5 1396,-177.5"/>
<text text-anchor="middle" x="1464" y="-184.5" font-family="FreeSans" font-size="10.00" fill="#000000">ffamodules/HeadReco.h</text>
</a>
</g>
</g>
<!-- Node1&#45;&gt;Node8 -->
<g id="edge9" class="edge">
<title>Node1&#45;&gt;Node8</title>
<path fill="none" stroke="#191970" d="M1108.722,-324.1217C1198.131,-314.9137 1335.7789,-297.3596 1382,-273 1412.1366,-257.1173 1437.6026,-225.9955 1451.8261,-206.0028"/>
<polygon fill="#191970" stroke="#191970" points="1454.7581,-207.9161 1457.5465,-197.6948 1448.9926,-203.9463 1454.7581,-207.9161"/>
</g>
<!-- Node9 -->
<g id="node9" class="node">
<title>Node9</title>
<g id="a_node9"><a xlink:href="../../d2/de4/SyncReco_8h.html" target="_top" xlink:title="ffamodules/SyncReco.h">
<polygon fill="none" stroke="#000000" points="1042,-177.5 1042,-197.5 1176,-197.5 1176,-177.5 1042,-177.5"/>
<text text-anchor="middle" x="1109" y="-184.5" font-family="FreeSans" font-size="10.00" fill="#000000">ffamodules/SyncReco.h</text>
</a>
</g>
</g>
<!-- Node1&#45;&gt;Node9 -->
<g id="edge12" class="edge">
<title>Node1&#45;&gt;Node9</title>
<path fill="none" stroke="#191970" d="M1040.4787,-309.3156C1056.2975,-281.1933 1083.3029,-233.1837 1098.2508,-206.6096"/>
<polygon fill="#191970" stroke="#191970" points="1101.4888,-207.9922 1103.341,-197.5605 1095.3878,-204.5604 1101.4888,-207.9922"/>
</g>
<!-- Node10 -->
<g id="node10" class="node">
<title>Node10</title>
<g id="a_node10"><a xlink:href="../../da/d64/Fun4AllPrdfInputManager_8h.html" target="_top" xlink:title="fun4allraw/Fun4AllPrdfInput\lManager.h">
<polygon fill="none" stroke="#000000" points="434.5,-171.5 434.5,-203.5 591.5,-203.5 591.5,-171.5 434.5,-171.5"/>
<text text-anchor="start" x="442.5" y="-190.5" font-family="FreeSans" font-size="10.00" fill="#000000">fun4allraw/Fun4AllPrdfInput</text>
<text text-anchor="middle" x="513" y="-178.5" font-family="FreeSans" font-size="10.00" fill="#000000">Manager.h</text>
</a>
</g>
</g>
<!-- Node1&#45;&gt;Node10 -->
<g id="edge15" class="edge">
<title>Node1&#45;&gt;Node10</title>
<path fill="none" stroke="#191970" d="M947.3052,-316.9242C892.8387,-306.4083 819.5696,-290.9419 756,-273 688.21,-253.8669 611.8548,-225.9136 563.1329,-207.2352"/>
<polygon fill="#191970" stroke="#191970" points="564.3575,-203.9563 553.7677,-203.6286 561.8418,-210.4886 564.3575,-203.9563"/>
</g>
<!-- Node11 -->
<g id="node11" class="node">
<title>Node11</title>
<g id="a_node11"><a xlink:href="../../d1/de7/Fun4AllInputManager_8h.html" target="_top" xlink:title="fun4all/Fun4AllInputManager.h">
<polygon fill="none" stroke="#000000" points="313.5,-114.5 313.5,-134.5 484.5,-134.5 484.5,-114.5 313.5,-114.5"/>
<text text-anchor="middle" x="399" y="-121.5" font-family="FreeSans" font-size="10.00" fill="#000000">fun4all/Fun4AllInputManager.h</text>
</a>
</g>
</g>
<!-- Node1&#45;&gt;Node11 -->
<g id="edge37" class="edge">
<title>Node1&#45;&gt;Node11</title>
<path fill="none" stroke="#191970" d="M947.2476,-325.0359C800.4684,-311.6293 498.3017,-275.8675 425,-204 408.9424,-188.2566 402.7978,-162.4689 400.449,-144.5499"/>
<polygon fill="#191970" stroke="#191970" points="403.9273,-144.1591 399.4223,-134.5697 396.9641,-144.8754 403.9273,-144.1591"/>
</g>
<!-- Node17 -->
<g id="node17" class="node">
<title>Node17</title>
<g id="a_node17"><a xlink:href="../../dd/de7/Fun4AllDstInputManager_8h.html" target="_top" xlink:title="fun4all/Fun4AllDstInputManager.h">
<polygon fill="none" stroke="#000000" points="610,-177.5 610,-197.5 798,-197.5 798,-177.5 610,-177.5"/>
<text text-anchor="middle" x="704" y="-184.5" font-family="FreeSans" font-size="10.00" fill="#000000">fun4all/Fun4AllDstInputManager.h</text>
</a>
</g>
</g>
<!-- Node1&#45;&gt;Node17 -->
<g id="edge25" class="edge">
<title>Node1&#45;&gt;Node17</title>
<path fill="none" stroke="#191970" d="M947.2535,-318.4201C904.5606,-309.4406 852.1957,-295.0622 809,-273 774.0391,-255.1437 740.0103,-224.2019 720.5738,-204.8443"/>
<polygon fill="#191970" stroke="#191970" points="722.9176,-202.2362 713.4069,-197.5674 717.9303,-207.1481 722.9176,-202.2362"/>
</g>
<!-- Node19 -->
<g id="node19" class="node">
<title>Node19</title>
<g id="a_node19"><a xlink:href="../../db/d22/Fun4AllDstOutputManager_8h.html" target="_top" xlink:title="fun4all/Fun4AllDstOutput\lManager.h">
<polygon fill="none" stroke="#000000" points="1550,-171.5 1550,-203.5 1694,-203.5 1694,-171.5 1550,-171.5"/>
<text text-anchor="start" x="1558" y="-190.5" font-family="FreeSans" font-size="10.00" fill="#000000">fun4all/Fun4AllDstOutput</text>
<text text-anchor="middle" x="1622" y="-178.5" font-family="FreeSans" font-size="10.00" fill="#000000">Manager.h</text>
</a>
</g>
</g>
<!-- Node1&#45;&gt;Node19 -->
<g id="edge29" class="edge">
<title>Node1&#45;&gt;Node19</title>
<path fill="none" stroke="#191970" d="M1108.5509,-325.2067C1188.0732,-317.6417 1312.5749,-302.1482 1417,-273 1475.9229,-256.5528 1540.5422,-227.6561 1581.1699,-208.0558"/>
<polygon fill="#191970" stroke="#191970" points="1582.7529,-211.1779 1590.2132,-203.655 1579.6899,-204.8836 1582.7529,-211.1779"/>
</g>
<!-- Node22 -->
<g id="node22" class="node">
<title>Node22</title>
<g id="a_node22"><a xlink:href="../../d1/ddc/Fun4AllRunNodeInputManager_8h.html" target="_top" xlink:title="fun4all/Fun4AllRunNodeInput\lManager.h">
<polygon fill="none" stroke="#000000" points="176,-240.5 176,-272.5 340,-272.5 340,-240.5 176,-240.5"/>
<text text-anchor="start" x="184" y="-259.5" font-family="FreeSans" font-size="10.00" fill="#000000">fun4all/Fun4AllRunNodeInput</text>
<text text-anchor="middle" x="258" y="-247.5" font-family="FreeSans" font-size="10.00" fill="#000000">Manager.h</text>
</a>
</g>
</g>
<!-- Node1&#45;&gt;Node22 -->
<g id="edge38" class="edge">
<title>Node1&#45;&gt;Node22</title>
<path fill="none" stroke="#191970" d="M947.3599,-326.689C820.6801,-318.6388 567.4625,-300.5591 354,-273 352.7264,-272.8356 351.4439,-272.6664 350.1541,-272.4928"/>
<polygon fill="#191970" stroke="#191970" points="350.5413,-269.0129 340.151,-271.0846 349.5654,-275.9446 350.5413,-269.0129"/>
</g>
<!-- Node23 -->
<g id="node23" class="node">
<title>Node23</title>
<g id="a_node23"><a xlink:href="../../dc/da2/Fun4AllServer_8h.html" target="_top" xlink:title="fun4all/Fun4AllServer.h">
<polygon fill="none" stroke="#000000" points="890.5,-177.5 890.5,-197.5 1023.5,-197.5 1023.5,-177.5 890.5,-177.5"/>
<text text-anchor="middle" x="957" y="-184.5" font-family="FreeSans" font-size="10.00" fill="#000000">fun4all/Fun4AllServer.h</text>
</a>
</g>
</g>
<!-- Node1&#45;&gt;Node23 -->
<g id="edge42" class="edge">
<title>Node1&#45;&gt;Node23</title>
<path fill="none" stroke="#191970" d="M1017.0618,-309.3156C1003.196,-281.1933 979.5246,-233.1837 966.4221,-206.6096"/>
<polygon fill="#191970" stroke="#191970" points="969.5219,-204.9818 961.9604,-197.5605 963.2435,-208.0774 969.5219,-204.9818"/>
</g>
<!-- Node31 -->
<g id="node31" class="node">
<title>Node31</title>
<g id="a_node31"><a xlink:href="../../d5/d66/Fun4AllUtils_8h.html" target="_top" xlink:title="fun4all/Fun4AllUtils.h">
<polygon fill="none" stroke="#000000" points="172.5,-114.5 172.5,-134.5 295.5,-134.5 295.5,-114.5 172.5,-114.5"/>
<text text-anchor="middle" x="234" y="-121.5" font-family="FreeSans" font-size="10.00" fill="#000000">fun4all/Fun4AllUtils.h</text>
</a>
</g>
</g>
<!-- Node1&#45;&gt;Node31 -->
<g id="edge60" class="edge">
<title>Node1&#45;&gt;Node31</title>
<path fill="none" stroke="#191970" d="M947.3295,-326.9809C817.8095,-319.024 569.5501,-300.6886 486,-273 392.3954,-241.9793 295.799,-172.5743 254.6088,-140.8665"/>
<polygon fill="#191970" stroke="#191970" points="256.7235,-138.0772 246.6813,-134.6999 252.4255,-143.6024 256.7235,-138.0772"/>
</g>
<!-- Node32 -->
<g id="node32" class="node">
<title>Node32</title>
<g id="a_node32"><a xlink:href="../../d2/dcb/recoConsts_8h.html" target="_top" xlink:title="phool/recoConsts.h">
<polygon fill="none" stroke="#000000" points="818.5,-246.5 818.5,-266.5 931.5,-266.5 931.5,-246.5 818.5,-246.5"/>
<text text-anchor="middle" x="875" y="-253.5" font-family="FreeSans" font-size="10.00" fill="#000000">phool/recoConsts.h</text>
</a>
</g>
</g>
<!-- Node1&#45;&gt;Node32 -->
<g id="edge64" class="edge">
<title>Node1&#45;&gt;Node32</title>
<path fill="none" stroke="#191970" d="M982.9225,-309.4032C957.7373,-297.0575 927.0525,-282.0159 904.8491,-271.1319"/>
<polygon fill="#191970" stroke="#191970" points="906.1143,-267.8543 895.5945,-266.5954 903.0332,-274.1397 906.1143,-267.8543"/>
</g>
<!-- Node34 -->
<g id="node34" class="node">
<title>Node34</title>
<g id="a_node34"><a xlink:href="../../dc/df2/CDBInterface_8h.html" target="_top" xlink:title="ffamodules/CDBInterface.h">
<polygon fill="none" stroke="#000000" points="2095,-177.5 2095,-197.5 2247,-197.5 2247,-177.5 2095,-177.5"/>
<text text-anchor="middle" x="2171" y="-184.5" font-family="FreeSans" font-size="10.00" fill="#000000">ffamodules/CDBInterface.h</text>
</a>
</g>
</g>
<!-- Node1&#45;&gt;Node34 -->
<g id="edge68" class="edge">
<title>Node1&#45;&gt;Node34</title>
<path fill="none" stroke="#191970" d="M1108.6005,-329.1676C1314.497,-322.7947 1848.8348,-303.5017 1923,-273 1943.6872,-264.492 1941.1597,-250.33 1961,-240 1986.5998,-226.6713 2057.0803,-210.437 2109.3685,-199.5821"/>
<polygon fill="#191970" stroke="#191970" points="2110.145,-202.9958 2119.2347,-197.5526 2108.7345,-196.1393 2110.145,-202.9958"/>
</g>
<!-- Node37 -->
<g id="node37" class="node">
<title>Node37</title>
<g id="a_node37"><a xlink:href="../../dc/dfe/GlobalVariables_8C.html" target="_top" xlink:title="GlobalVariables.C">
<polygon fill="none" stroke="#000000" points="1808.5,-246.5 1808.5,-266.5 1913.5,-266.5 1913.5,-246.5 1808.5,-246.5"/>
<text text-anchor="middle" x="1861" y="-253.5" font-family="FreeSans" font-size="10.00" fill="#000000">GlobalVariables.C</text>
</a>
</g>
</g>
<!-- Node1&#45;&gt;Node37 -->
<g id="edge74" class="edge">
<title>Node1&#45;&gt;Node37</title>
<path fill="none" stroke="#191970" d="M1108.6284,-324.2405C1274.1027,-309.3419 1649.0139,-275.5864 1798.1244,-262.1611"/>
<polygon fill="#191970" stroke="#191970" points="1798.8184,-265.6128 1808.4642,-261.2301 1798.1906,-258.641 1798.8184,-265.6128"/>
</g>
<!-- Node42 -->
<g id="node42" class="node">
<title>Node42</title>
<polygon fill="none" stroke="#bfbfbf" points="1970,-246.5 1970,-266.5 2080,-266.5 2080,-246.5 1970,-246.5"/>
<text text-anchor="middle" x="2025" y="-253.5" font-family="FreeSans" font-size="10.00" fill="#000000">caloana/CaloAna.h</text>
</g>
<!-- Node1&#45;&gt;Node42 -->
<g id="edge84" class="edge">
<title>Node1&#45;&gt;Node42</title>
<path fill="none" stroke="#191970" d="M1108.5836,-328.2013C1302.9703,-319.9566 1793.5601,-297.3575 1956,-273 1963.2856,-271.9075 1970.9334,-270.4249 1978.3764,-268.7939"/>
<polygon fill="#191970" stroke="#191970" points="1979.3849,-272.1534 1988.3458,-266.5008 1977.8156,-265.3316 1979.3849,-272.1534"/>
</g>
<!-- Node3&#45;&gt;Node4 -->
<g id="edge3" class="edge">
<title>Node3&#45;&gt;Node4</title>
<path fill="none" stroke="#191970" d="M1287.5654,-177.378C1308.5591,-167.0451 1341.3589,-150.9015 1365.1972,-139.1686"/>
<polygon fill="#191970" stroke="#191970" points="1367.0591,-142.1532 1374.4856,-134.5969 1363.9679,-135.8727 1367.0591,-142.1532"/>
</g>
<!-- Node7 -->
<g id="node7" class="node">
<title>Node7</title>
<polygon fill="none" stroke="#bfbfbf" points="1106.5,-.5 1106.5,-20.5 1151.5,-20.5 1151.5,-.5 1106.5,-.5"/>
<text text-anchor="middle" x="1129" y="-7.5" font-family="FreeSans" font-size="10.00" fill="#000000">string</text>
</g>
<!-- Node3&#45;&gt;Node7 -->
<g id="edge8" class="edge">
<title>Node3&#45;&gt;Node7</title>
<path fill="none" stroke="#191970" d="M1275.7464,-177.2825C1298.3428,-150.3188 1355.7658,-77.8843 1339,-57 1317.1393,-29.7692 1215.1308,-17.5075 1161.7535,-12.8772"/>
<polygon fill="#191970" stroke="#191970" points="1162.0192,-9.3873 1151.7646,-12.0507 1161.4419,-16.3635 1162.0192,-9.3873"/>
</g>
<!-- Node5 -->
<g id="node5" class="node">
<title>Node5</title>
<g id="a_node5"><a xlink:href="../../d2/de7/Fun4AllBase_8h.html" target="_top" xlink:title="Fun4AllBase.h">
<polygon fill="none" stroke="#000000" points="1176.5,-57.5 1176.5,-77.5 1263.5,-77.5 1263.5,-57.5 1176.5,-57.5"/>
<text text-anchor="middle" x="1220" y="-64.5" font-family="FreeSans" font-size="10.00" fill="#000000">Fun4AllBase.h</text>
</a>
</g>
</g>
<!-- Node4&#45;&gt;Node5 -->
<g id="edge4" class="edge">
<title>Node4&#45;&gt;Node5</title>
<path fill="none" stroke="#191970" d="M1364.1163,-114.4408C1335.3406,-105.0681 1292.2483,-91.0323 1260.6804,-80.7502"/>
<polygon fill="#191970" stroke="#191970" points="1261.4611,-77.3235 1250.8687,-77.5544 1259.2931,-83.9794 1261.4611,-77.3235"/>
</g>
<!-- Node4&#45;&gt;Node7 -->
<g id="edge7" class="edge">
<title>Node4&#45;&gt;Node7</title>
<path fill="none" stroke="#191970" d="M1394.7367,-114.0619C1393.7623,-99.0769 1389.6498,-71.6627 1373,-57 1342.0763,-29.767 1221.348,-17.2801 1162.1272,-12.6994"/>
<polygon fill="#191970" stroke="#191970" points="1162.0524,-9.1843 1151.8207,-11.9343 1161.5341,-16.165 1162.0524,-9.1843"/>
</g>
<!-- Node6 -->
<g id="node6" class="node">
<title>Node6</title>
<polygon fill="none" stroke="#bfbfbf" points="1448,-.5 1448,-20.5 1492,-20.5 1492,-.5 1448,-.5"/>
<text text-anchor="middle" x="1470" y="-7.5" font-family="FreeSans" font-size="10.00" fill="#000000">limits</text>
</g>
<!-- Node5&#45;&gt;Node6 -->
<g id="edge5" class="edge">
<title>Node5&#45;&gt;Node6</title>
<path fill="none" stroke="#191970" d="M1263.5467,-57.5714C1313.2796,-46.2322 1393.4815,-27.9462 1437.8645,-17.8269"/>
<polygon fill="#191970" stroke="#191970" points="1438.8424,-21.1938 1447.8142,-15.5584 1437.2863,-14.369 1438.8424,-21.1938"/>
</g>
<!-- Node5&#45;&gt;Node7 -->
<g id="edge6" class="edge">
<title>Node5&#45;&gt;Node7</title>
<path fill="none" stroke="#191970" d="M1203.731,-57.3095C1189.8848,-48.6366 1169.7755,-36.0407 1153.904,-26.0992"/>
<polygon fill="#191970" stroke="#191970" points="1155.4608,-22.9445 1145.1281,-20.6022 1151.7449,-28.8768 1155.4608,-22.9445"/>
</g>
<!-- Node8&#45;&gt;Node4 -->
<g id="edge10" class="edge">
<title>Node8&#45;&gt;Node4</title>
<path fill="none" stroke="#191970" d="M1452.914,-177.378C1442.414,-167.791 1426.4355,-153.202 1413.9199,-141.7747"/>
<polygon fill="#191970" stroke="#191970" points="1416.0326,-138.9642 1406.2878,-134.8062 1411.3127,-144.1336 1416.0326,-138.9642"/>
</g>
<!-- Node8&#45;&gt;Node7 -->
<g id="edge11" class="edge">
<title>Node8&#45;&gt;Node7</title>
<path fill="none" stroke="#191970" d="M1467.0699,-177.3815C1470.9525,-162.6184 1476.0063,-134.684 1466,-114 1448.2261,-77.2595 1431.2389,-73.7046 1394,-57 1352.891,-38.5594 1223.2502,-21.5051 1161.8548,-14.2199"/>
<polygon fill="#191970" stroke="#191970" points="1161.9073,-10.7022 1151.568,-13.0151 1161.093,-17.6547 1161.9073,-10.7022"/>
</g>
<!-- Node9&#45;&gt;Node4 -->
<g id="edge13" class="edge">
<title>Node9&#45;&gt;Node4</title>
<path fill="none" stroke="#191970" d="M1154.6338,-177.4478C1204.8592,-166.3842 1285.6022,-148.5981 1339.4649,-136.7333"/>
<polygon fill="#191970" stroke="#191970" points="1340.5158,-140.0857 1349.5288,-134.5164 1339.0099,-133.2496 1340.5158,-140.0857"/>
</g>
<!-- Node9&#45;&gt;Node7 -->
<g id="edge14" class="edge">
<title>Node9&#45;&gt;Node7</title>
<path fill="none" stroke="#191970" d="M1064.2984,-177.4692C1053.7313,-175.2234 1042.4867,-172.9356 1032,-171 929.3881,-152.0606 893.2508,-181.8209 800,-135 767.7004,-118.7825 755.9761,-111.3308 742,-78 738.3908,-69.3927 735.8065,-63.9822 742,-57 765.4097,-30.6091 1007.4508,-16.3594 1096.4213,-11.9817"/>
<polygon fill="#191970" stroke="#191970" points="1096.6677,-15.474 1106.4876,-11.4966 1096.3307,-8.4821 1096.6677,-15.474"/>
</g>
<!-- Node10&#45;&gt;Node7 -->
<g id="edge24" class="edge">
<title>Node10&#45;&gt;Node7</title>
<path fill="none" stroke="#191970" d="M520.2761,-171.1622C534.0749,-142.3613 567.021,-83.1361 615,-57 657.1719,-34.0273 989.1899,-16.9201 1096.0146,-11.9655"/>
<polygon fill="#191970" stroke="#191970" points="1096.374,-15.4528 1106.2031,-11.4983 1096.0532,-8.4602 1096.374,-15.4528"/>
</g>
<!-- Node10&#45;&gt;Node11 -->
<g id="edge16" class="edge">
<title>Node10&#45;&gt;Node11</title>
<path fill="none" stroke="#191970" d="M483.938,-171.4394C466.2381,-161.6579 443.7632,-149.2376 426.3788,-139.6304"/>
<polygon fill="#191970" stroke="#191970" points="427.7525,-136.3907 417.3072,-134.6171 424.3667,-142.5174 427.7525,-136.3907"/>
</g>
<!-- Node11&#45;&gt;Node5 -->
<g id="edge17" class="edge">
<title>Node11&#45;&gt;Node5</title>
<path fill="none" stroke="#191970" d="M484.5233,-119.1429C615.2492,-110.8662 872.6065,-94.2249 1091,-78 1115.7899,-76.1583 1143.2447,-73.9475 1166.4318,-72.0305"/>
<polygon fill="#191970" stroke="#191970" points="1166.7467,-75.5165 1176.4227,-71.201 1166.1674,-68.5405 1166.7467,-75.5165"/>
</g>
<!-- Node11&#45;&gt;Node7 -->
<g id="edge20" class="edge">
<title>Node11&#45;&gt;Node7</title>
<path fill="none" stroke="#191970" d="M413.9387,-114.3899C439.6328,-97.2057 491.4139,-63.5227 512,-57 622.3773,-22.0268 984.3725,-12.981 1095.9549,-10.9961"/>
<polygon fill="#191970" stroke="#191970" points="1096.3114,-14.4907 1106.2503,-10.8207 1096.1921,-7.4917 1096.3114,-14.4907"/>
</g>
<!-- Node12 -->
<g id="node12" class="node">
<title>Node12</title>
<g id="a_node12"><a xlink:href="../../da/dc1/Fun4AllReturnCodes_8h.html" target="_top" xlink:title="Fun4AllReturnCodes.h">
<polygon fill="none" stroke="#000000" points="92.5,-57.5 92.5,-77.5 219.5,-77.5 219.5,-57.5 92.5,-57.5"/>
<text text-anchor="middle" x="156" y="-64.5" font-family="FreeSans" font-size="10.00" fill="#000000">Fun4AllReturnCodes.h</text>
</a>
</g>
</g>
<!-- Node11&#45;&gt;Node12 -->
<g id="edge18" class="edge">
<title>Node11&#45;&gt;Node12</title>
<path fill="none" stroke="#191970" d="M356.1158,-114.4408C315.0343,-104.8043 252.9387,-90.2387 208.8261,-79.8913"/>
<polygon fill="#191970" stroke="#191970" points="209.3985,-76.4306 198.8634,-77.5544 207.7999,-83.2457 209.3985,-76.4306"/>
</g>
<!-- Node13 -->
<g id="node13" class="node">
<title>Node13</title>
<polygon fill="none" stroke="#bfbfbf" points="428,-57.5 428,-77.5 460,-77.5 460,-57.5 428,-57.5"/>
<text text-anchor="middle" x="444" y="-64.5" font-family="FreeSans" font-size="10.00" fill="#000000">list</text>
</g>
<!-- Node11&#45;&gt;Node13 -->
<g id="edge19" class="edge">
<title>Node11&#45;&gt;Node13</title>
<path fill="none" stroke="#191970" d="M407.0451,-114.3095C413.3162,-106.3661 422.1854,-95.1319 429.663,-85.6602"/>
<polygon fill="#191970" stroke="#191970" points="432.5752,-87.6199 436.0246,-77.6022 427.081,-83.2823 432.5752,-87.6199"/>
</g>
<!-- Node14 -->
<g id="node14" class="node">
<title>Node14</title>
<polygon fill="none" stroke="#bfbfbf" points="276,-57.5 276,-77.5 346,-77.5 346,-57.5 276,-57.5"/>
<text text-anchor="middle" x="311" y="-64.5" font-family="FreeSans" font-size="10.00" fill="#000000">type_traits</text>
</g>
<!-- Node11&#45;&gt;Node14 -->
<g id="edge21" class="edge">
<title>Node11&#45;&gt;Node14</title>
<path fill="none" stroke="#191970" d="M383.2674,-114.3095C369.8776,-105.6366 350.4312,-93.0407 335.0829,-83.0992"/>
<polygon fill="#191970" stroke="#191970" points="336.8924,-80.1011 326.5964,-77.6022 333.0868,-85.9764 336.8924,-80.1011"/>
</g>
<!-- Node15 -->
<g id="node15" class="node">
<title>Node15</title>
<polygon fill="none" stroke="#bfbfbf" points="364.5,-57.5 364.5,-77.5 409.5,-77.5 409.5,-57.5 364.5,-57.5"/>
<text text-anchor="middle" x="387" y="-64.5" font-family="FreeSans" font-size="10.00" fill="#000000">utility</text>
</g>
<!-- Node11&#45;&gt;Node15 -->
<g id="edge22" class="edge">
<title>Node11&#45;&gt;Node15</title>
<path fill="none" stroke="#191970" d="M396.8546,-114.3095C395.2847,-106.8524 393.1042,-96.4951 391.1934,-87.4186"/>
<polygon fill="#191970" stroke="#191970" points="394.6119,-86.6667 389.1268,-77.6022 387.762,-88.1088 394.6119,-86.6667"/>
</g>
<!-- Node16 -->
<g id="node16" class="node">
<title>Node16</title>
<polygon fill="none" stroke="#bfbfbf" points="1281.5,-57.5 1281.5,-77.5 1330.5,-77.5 1330.5,-57.5 1281.5,-57.5"/>
<text text-anchor="middle" x="1306" y="-64.5" font-family="FreeSans" font-size="10.00" fill="#000000">vector</text>
</g>
<!-- Node11&#45;&gt;Node16 -->
<g id="edge23" class="edge">
<title>Node11&#45;&gt;Node16</title>
<path fill="none" stroke="#191970" d="M484.8768,-120.2046C688.7474,-109.9728 1190.3483,-84.5837 1271.3209,-77.0718"/>
<polygon fill="#191970" stroke="#191970" points="1271.7677,-80.5435 1281.2917,-75.902 1270.952,-73.5912 1271.7677,-80.5435"/>
</g>
<!-- Node17&#45;&gt;Node7 -->
<g id="edge28" class="edge">
<title>Node17&#45;&gt;Node7</title>
<path fill="none" stroke="#191970" d="M666.7646,-177.4831C645.5319,-169.6512 620.6912,-156.4055 608,-135 592.6902,-109.1778 626.8659,-62.0743 634,-57 671.5759,-30.273 991.3144,-15.766 1095.982,-11.7006"/>
<polygon fill="#191970" stroke="#191970" points="1096.4051,-15.1871 1106.2643,-11.3081 1096.138,-8.1922 1096.4051,-15.1871"/>
</g>
<!-- Node17&#45;&gt;Node11 -->
<g id="edge26" class="edge">
<title>Node17&#45;&gt;Node11</title>
<path fill="none" stroke="#191970" d="M655.3346,-177.4478C601.5498,-166.3382 514.9489,-148.4501 457.5095,-136.5856"/>
<polygon fill="#191970" stroke="#191970" points="457.9934,-133.1117 447.4921,-134.5164 456.5773,-139.967 457.9934,-133.1117"/>
</g>
<!-- Node18 -->
<g id="node18" class="node">
<title>Node18</title>
<polygon fill="none" stroke="#bfbfbf" points="655.5,-57.5 655.5,-77.5 694.5,-77.5 694.5,-57.5 655.5,-57.5"/>
<text text-anchor="middle" x="675" y="-64.5" font-family="FreeSans" font-size="10.00" fill="#000000">map</text>
</g>
<!-- Node17&#45;&gt;Node18 -->
<g id="edge27" class="edge">
<title>Node17&#45;&gt;Node18</title>
<path fill="none" stroke="#191970" d="M701.5275,-177.2689C696.7334,-157.4314 686.0974,-113.4204 679.8468,-87.5557"/>
<polygon fill="#191970" stroke="#191970" points="683.2175,-86.6032 677.4663,-77.7052 676.4133,-88.2476 683.2175,-86.6032"/>
</g>
<!-- Node19&#45;&gt;Node7 -->
<g id="edge36" class="edge">
<title>Node19&#45;&gt;Node7</title>
<path fill="none" stroke="#191970" d="M1641.6247,-171.3272C1657.5781,-156.16 1675.5478,-133.0293 1663,-114 1627.5974,-60.3106 1592.1467,-73.5435 1530,-57 1396.6049,-21.49 1231.1005,-13.0959 1161.8596,-11.1128"/>
<polygon fill="#191970" stroke="#191970" points="1161.6805,-7.6071 1151.593,-10.8464 1161.4989,-14.6047 1161.6805,-7.6071"/>
</g>
<!-- Node20 -->
<g id="node20" class="node">
<title>Node20</title>
<g id="a_node20"><a xlink:href="../../de/df8/Fun4AllOutputManager_8h.html" target="_top" xlink:title="Fun4AllOutputManager.h">
<polygon fill="none" stroke="#000000" points="1513.5,-114.5 1513.5,-134.5 1654.5,-134.5 1654.5,-114.5 1513.5,-114.5"/>
<text text-anchor="middle" x="1584" y="-121.5" font-family="FreeSans" font-size="10.00" fill="#000000">Fun4AllOutputManager.h</text>
</a>
</g>
</g>
<!-- Node19&#45;&gt;Node20 -->
<g id="edge30" class="edge">
<title>Node19&#45;&gt;Node20</title>
<path fill="none" stroke="#191970" d="M1612.2141,-171.2759C1607.1109,-162.8154 1600.8376,-152.415 1595.5033,-143.5712"/>
<polygon fill="#191970" stroke="#191970" points="1598.3453,-141.5065 1590.1833,-134.7513 1592.3513,-145.1219 1598.3453,-141.5065"/>
</g>
<!-- Node21 -->
<g id="node21" class="node">
<title>Node21</title>
<polygon fill="none" stroke="#bfbfbf" points="2005,-57.5 2005,-77.5 2037,-77.5 2037,-57.5 2005,-57.5"/>
<text text-anchor="middle" x="2021" y="-64.5" font-family="FreeSans" font-size="10.00" fill="#000000">set</text>
</g>
<!-- Node19&#45;&gt;Node21 -->
<g id="edge35" class="edge">
<title>Node19&#45;&gt;Node21</title>
<path fill="none" stroke="#191970" d="M1694.2336,-172.7884C1759.3071,-159.3674 1847.1302,-140.7744 1863,-135 1881.8686,-128.1345 1884.7441,-122.3596 1903,-114 1934.1815,-99.7216 1971.099,-85.6052 1995.2311,-76.7388"/>
<polygon fill="#191970" stroke="#191970" points="1996.5393,-79.9873 2004.7367,-73.2752 1994.1427,-73.4103 1996.5393,-79.9873"/>
</g>
<!-- Node20&#45;&gt;Node5 -->
<g id="edge31" class="edge">
<title>Node20&#45;&gt;Node5</title>
<path fill="none" stroke="#191970" d="M1513.2025,-115.0035C1452.1448,-106.5716 1361.378,-93.4622 1273.5278,-78.2096"/>
<polygon fill="#191970" stroke="#191970" points="1274.1153,-74.7593 1263.662,-76.4854 1272.9101,-81.6548 1274.1153,-74.7593"/>
</g>
<!-- Node20&#45;&gt;Node6 -->
<g id="edge32" class="edge">
<title>Node20&#45;&gt;Node6</title>
<path fill="none" stroke="#191970" d="M1584.2044,-114.161C1583.9521,-99.7892 1581.4839,-73.6657 1568,-57 1551.4344,-36.5254 1523.7212,-24.5437 1501.9841,-17.8862"/>
<polygon fill="#191970" stroke="#191970" points="1502.7493,-14.4653 1492.1741,-15.1111 1500.8438,-21.201 1502.7493,-14.4653"/>
</g>
<!-- Node20&#45;&gt;Node7 -->
<g id="edge33" class="edge">
<title>Node20&#45;&gt;Node7</title>
<path fill="none" stroke="#191970" d="M1574.9612,-114.4252C1560.5643,-99.1165 1530.7881,-70.368 1499,-57 1438.4395,-31.5322 1241.3518,-17.2197 1162.2748,-12.3817"/>
<polygon fill="#191970" stroke="#191970" points="1162.1178,-8.8661 1151.9264,-11.7618 1161.6992,-15.8536 1162.1178,-8.8661"/>
</g>
<!-- Node20&#45;&gt;Node16 -->
<g id="edge34" class="edge">
<title>Node20&#45;&gt;Node16</title>
<path fill="none" stroke="#191970" d="M1534.9391,-114.4408C1479.1746,-103.007 1389.5652,-84.6339 1340.6334,-74.6011"/>
<polygon fill="#191970" stroke="#191970" points="1341.0479,-71.1133 1330.5487,-72.5334 1339.6419,-77.9707 1341.0479,-71.1133"/>
</g>
<!-- Node22&#45;&gt;Node7 -->
<g id="edge41" class="edge">
<title>Node22&#45;&gt;Node7</title>
<path fill="none" stroke="#191970" d="M225.1602,-240.4399C158.7625,-206.0024 20.0235,-122.8384 83,-57 118.8447,-19.5264 922.0938,-11.9114 1095.9914,-10.7"/>
<polygon fill="#191970" stroke="#191970" points="1096.0975,-14.1995 1106.0737,-10.6321 1096.0503,-7.1996 1096.0975,-14.1995"/>
</g>
<!-- Node22&#45;&gt;Node12 -->
<g id="edge40" class="edge">
<title>Node22&#45;&gt;Node12</title>
<path fill="none" stroke="#191970" d="M240.3685,-240.3873C218.0546,-218.8094 180.4314,-178.2069 163,-135 156.9391,-119.9768 155.3695,-101.619 155.2151,-87.8426"/>
<polygon fill="#191970" stroke="#191970" points="158.7189,-87.567 155.3507,-77.5218 151.7195,-87.475 158.7189,-87.567"/>
</g>
<!-- Node22&#45;&gt;Node17 -->
<g id="edge39" class="edge">
<title>Node22&#45;&gt;Node17</title>
<path fill="none" stroke="#191970" d="M340.2514,-243.9922C409.538,-233.4274 511.2689,-217.8492 600,-204 610.0608,-202.4297 620.6669,-200.7616 631.1047,-199.1127"/>
<polygon fill="#191970" stroke="#191970" points="631.707,-202.561 641.0372,-197.5414 630.6131,-195.647 631.707,-202.561"/>
</g>
<!-- Node23&#45;&gt;Node5 -->
<g id="edge43" class="edge">
<title>Node23&#45;&gt;Node5</title>
<path fill="none" stroke="#191970" d="M1002.7945,-177.456C1012.7471,-175.3015 1023.2224,-173.0556 1033,-171 1111.5599,-154.4837 1154.7761,-193.2646 1210,-135 1221.6894,-122.6669 1223.419,-102.9635 1222.68,-88.0208"/>
<polygon fill="#191970" stroke="#191970" points="1226.1359,-87.3708 1221.7578,-77.7229 1219.1638,-87.9952 1226.1359,-87.3708"/>
</g>
<!-- Node23&#45;&gt;Node7 -->
<g id="edge57" class="edge">
<title>Node23&#45;&gt;Node7</title>
<path fill="none" stroke="#191970" d="M973.101,-177.3157C1000.0696,-159.6581 1054.9558,-121.0945 1091,-78 1103.2193,-63.3906 1113.5487,-44.2869 1120.3395,-30.133"/>
<polygon fill="#191970" stroke="#191970" points="1123.6178,-31.3824 1124.6353,-20.8366 1117.2634,-28.4461 1123.6178,-31.3824"/>
</g>
<!-- Node23&#45;&gt;Node15 -->
<g id="edge58" class="edge">
<title>Node23&#45;&gt;Node15</title>
<path fill="none" stroke="#191970" d="M890.2169,-180.3445C819.5816,-172.1045 705.143,-156.8364 608,-135 539.695,-119.6459 461.8185,-93.8587 419.1603,-78.9972"/>
<polygon fill="#191970" stroke="#191970" points="420.1977,-75.652 409.6029,-75.6446 417.8806,-82.2574 420.1977,-75.652"/>
</g>
<!-- Node23&#45;&gt;Node16 -->
<g id="edge59" class="edge">
<title>Node23&#45;&gt;Node16</title>
<path fill="none" stroke="#191970" d="M1001.9583,-177.482C1012.1515,-175.2824 1022.9376,-173.0111 1033,-171 1120.2793,-153.5558 1149.9909,-173.9938 1230,-135 1254.3603,-123.1276 1276.842,-101.2105 1290.9335,-85.5713"/>
<polygon fill="#191970" stroke="#191970" points="1293.9223,-87.4693 1297.8575,-77.6324 1288.6468,-82.8682 1293.9223,-87.4693"/>
</g>
<!-- Node23&#45;&gt;Node18 -->
<g id="edge56" class="edge">
<title>Node23&#45;&gt;Node18</title>
<path fill="none" stroke="#191970" d="M900.1984,-177.448C861.3902,-169.2434 809.4986,-155.5967 767,-135 739.4241,-121.6355 711.5829,-99.7766 693.8654,-84.5684"/>
<polygon fill="#191970" stroke="#191970" points="695.8553,-81.6586 686.0265,-77.7032 691.2434,-86.9246 695.8553,-81.6586"/>
</g>
<!-- Node24 -->
<g id="node24" class="node">
<title>Node24</title>
<g id="a_node24"><a xlink:href="../../d0/d59/Fun4AllHistoManager_8h.html" target="_top" xlink:title="Fun4AllHistoManager.h">
<polygon fill="none" stroke="#000000" points="1069,-114.5 1069,-134.5 1201,-134.5 1201,-114.5 1069,-114.5"/>
<text text-anchor="middle" x="1135" y="-121.5" font-family="FreeSans" font-size="10.00" fill="#000000">Fun4AllHistoManager.h</text>
</a>
</g>
</g>
<!-- Node23&#45;&gt;Node24 -->
<g id="edge44" class="edge">
<title>Node23&#45;&gt;Node24</title>
<path fill="none" stroke="#191970" d="M985.5988,-177.378C1015.8312,-166.6777 1063.6697,-149.7461 1097.0429,-137.9343"/>
<polygon fill="#191970" stroke="#191970" points="1098.213,-141.2329 1106.4722,-134.5969 1095.8774,-134.6341 1098.213,-141.2329"/>
</g>
<!-- Node25 -->
<g id="node25" class="node">
<title>Node25</title>
<g id="a_node25"><a xlink:href="../../dc/d26/PHTimer_8h.html" target="_top" xlink:title="high precision timer">
<polygon fill="none" stroke="#000000" points="809.5,-114.5 809.5,-134.5 908.5,-134.5 908.5,-114.5 809.5,-114.5"/>
<text text-anchor="middle" x="859" y="-121.5" font-family="FreeSans" font-size="10.00" fill="#000000">phool/PHTimer.h</text>
</a>
</g>
</g>
<!-- Node23&#45;&gt;Node25 -->
<g id="edge48" class="edge">
<title>Node23&#45;&gt;Node25</title>
<path fill="none" stroke="#191970" d="M941.2546,-177.378C925.6813,-167.3666 901.6227,-151.9003 883.5407,-140.2762"/>
<polygon fill="#191970" stroke="#191970" points="885.0108,-137.0604 874.7063,-134.5969 881.2255,-142.9487 885.0108,-137.0604"/>
</g>
<!-- Node28 -->
<g id="node28" class="node">
<title>Node28</title>
<polygon fill="none" stroke="#bfbfbf" points="1022,-57.5 1022,-77.5 1082,-77.5 1082,-57.5 1022,-57.5"/>
<text text-anchor="middle" x="1052" y="-64.5" font-family="FreeSans" font-size="10.00" fill="#000000">iostream</text>
</g>
<!-- Node23&#45;&gt;Node28 -->
<g id="edge55" class="edge">
<title>Node23&#45;&gt;Node28</title>
<path fill="none" stroke="#191970" d="M953.6342,-177.3104C949.3122,-162.2101 943.7331,-133.572 956,-114 962.7422,-103.2427 989.8,-90.6697 1013.4779,-81.3117"/>
<polygon fill="#191970" stroke="#191970" points="1014.9367,-84.5006 1023.0104,-77.64 1012.4206,-77.9684 1014.9367,-84.5006"/>
</g>
<!-- Node30 -->
<g id="node30" class="node">
<title>Node30</title>
<polygon fill="none" stroke="#bfbfbf" points="965,-114.5 965,-134.5 1013,-134.5 1013,-114.5 965,-114.5"/>
<text text-anchor="middle" x="989" y="-121.5" font-family="FreeSans" font-size="10.00" fill="#000000">deque</text>
</g>
<!-- Node23&#45;&gt;Node30 -->
<g id="edge54" class="edge">
<title>Node23&#45;&gt;Node30</title>
<path fill="none" stroke="#191970" d="M962.1414,-177.378C966.7326,-168.3389 973.5826,-154.853 979.2156,-143.7631"/>
<polygon fill="#191970" stroke="#191970" points="982.3569,-145.3071 983.7651,-134.8062 976.1159,-142.137 982.3569,-145.3071"/>
</g>
<!-- Node24&#45;&gt;Node5 -->
<g id="edge45" class="edge">
<title>Node24&#45;&gt;Node5</title>
<path fill="none" stroke="#191970" d="M1150.1963,-114.3095C1163.0087,-105.7177 1181.5624,-93.2758 1196.3214,-83.3786"/>
<polygon fill="#191970" stroke="#191970" points="1198.5792,-86.0787 1204.9353,-77.6022 1194.6805,-80.2649 1198.5792,-86.0787"/>
</g>
<!-- Node24&#45;&gt;Node7 -->
<g id="edge47" class="edge">
<title>Node24&#45;&gt;Node7</title>
<path fill="none" stroke="#191970" d="M1134.4675,-114.3833C1133.4826,-95.6703 1131.3593,-55.3266 1130.0677,-30.7866"/>
<polygon fill="#191970" stroke="#191970" points="1133.5607,-30.5601 1129.5399,-20.7579 1126.5704,-30.9281 1133.5607,-30.5601"/>
</g>
<!-- Node24&#45;&gt;Node18 -->
<g id="edge46" class="edge">
<title>Node24&#45;&gt;Node18</title>
<path fill="none" stroke="#191970" d="M1068.8444,-117.4421C990.6609,-108.923 856.6895,-93.7662 742,-78 729.7653,-76.3181 716.3086,-74.2517 704.6853,-72.3983"/>
<polygon fill="#191970" stroke="#191970" points="705.0436,-68.9109 694.6138,-70.7732 703.9285,-75.8216 705.0436,-68.9109"/>
</g>
<!-- Node25&#45;&gt;Node7 -->
<g id="edge52" class="edge">
<title>Node25&#45;&gt;Node7</title>
<path fill="none" stroke="#191970" d="M886.3139,-114.4261C909.8446,-105.5184 944.566,-91.8244 974,-78 991.8189,-69.6309 995.1686,-65.3424 1013,-57 1040.8571,-43.9671 1073.4298,-31.1105 1096.955,-22.2307"/>
<polygon fill="#191970" stroke="#191970" points="1098.3044,-25.4628 1106.4432,-18.6796 1095.8508,-18.9069 1098.3044,-25.4628"/>
</g>
<!-- Node26 -->
<g id="node26" class="node">
<title>Node26</title>
<polygon fill="none" stroke="#bfbfbf" points="825.5,-57.5 825.5,-77.5 882.5,-77.5 882.5,-57.5 825.5,-57.5"/>
<text text-anchor="middle" x="854" y="-64.5" font-family="FreeSans" font-size="10.00" fill="#000000">unistd.h</text>
</g>
<!-- Node25&#45;&gt;Node26 -->
<g id="edge49" class="edge">
<title>Node25&#45;&gt;Node26</title>
<path fill="none" stroke="#191970" d="M858.1061,-114.3095C857.4591,-106.9335 856.5632,-96.72 855.7732,-87.715"/>
<polygon fill="#191970" stroke="#191970" points="859.2467,-87.2581 854.8862,-77.6022 852.2735,-87.8699 859.2467,-87.2581"/>
</g>
<!-- Node27 -->
<g id="node27" class="node">
<title>Node27</title>
<polygon fill="none" stroke="#bfbfbf" points="900.5,-57.5 900.5,-77.5 965.5,-77.5 965.5,-57.5 900.5,-57.5"/>
<text text-anchor="middle" x="933" y="-64.5" font-family="FreeSans" font-size="10.00" fill="#000000">exception</text>
</g>
<!-- Node25&#45;&gt;Node27 -->
<g id="edge50" class="edge">
<title>Node25&#45;&gt;Node27</title>
<path fill="none" stroke="#191970" d="M872.2297,-114.3095C883.1736,-105.8798 898.929,-93.7439 911.6549,-83.9415"/>
<polygon fill="#191970" stroke="#191970" points="914.0984,-86.4773 919.8848,-77.6022 909.8267,-80.9318 914.0984,-86.4773"/>
</g>
<!-- Node25&#45;&gt;Node28 -->
<g id="edge51" class="edge">
<title>Node25&#45;&gt;Node28</title>
<path fill="none" stroke="#191970" d="M893.0603,-114.4408C926.2525,-104.6379 976.7166,-89.734 1011.8464,-79.3588"/>
<polygon fill="#191970" stroke="#191970" points="1013.1709,-82.6172 1021.77,-76.428 1011.1881,-75.9039 1013.1709,-82.6172"/>
</g>
<!-- Node29 -->
<g id="node29" class="node">
<title>Node29</title>
<polygon fill="none" stroke="#bfbfbf" points="751,-57.5 751,-77.5 807,-77.5 807,-57.5 751,-57.5"/>
<text text-anchor="middle" x="779" y="-64.5" font-family="FreeSans" font-size="10.00" fill="#000000">sstream</text>
</g>
<!-- Node25&#45;&gt;Node29 -->
<g id="edge53" class="edge">
<title>Node25&#45;&gt;Node29</title>
<path fill="none" stroke="#191970" d="M844.6976,-114.3095C832.7526,-105.7987 815.5055,-93.5102 801.6798,-83.6594"/>
<polygon fill="#191970" stroke="#191970" points="803.3538,-80.5545 793.1786,-77.6022 799.2918,-86.2555 803.3538,-80.5545"/>
</g>
<!-- Node31&#45;&gt;Node7 -->
<g id="edge61" class="edge">
<title>Node31&#45;&gt;Node7</title>
<path fill="none" stroke="#191970" d="M235.6649,-114.3796C238.7867,-99.01 247.0983,-70.1812 267,-57 302.1574,-33.7147 941.9405,-15.427 1095.8875,-11.3512"/>
<polygon fill="#191970" stroke="#191970" points="1096.2125,-14.844 1106.1171,-11.0825 1096.0286,-7.8464 1096.2125,-14.844"/>
</g>
<!-- Node31&#45;&gt;Node15 -->
<g id="edge62" class="edge">
<title>Node31&#45;&gt;Node15</title>
<path fill="none" stroke="#191970" d="M261.0011,-114.4408C287.1315,-104.7059 326.7647,-89.9406 354.5867,-79.5755"/>
<polygon fill="#191970" stroke="#191970" points="356.1068,-82.7443 364.2557,-75.9734 353.663,-76.1847 356.1068,-82.7443"/>
</g>
<!-- Node33 -->
<g id="node33" class="node">
<title>Node33</title>
<g id="a_node33"><a xlink:href="../../d0/d11/PHFlag_8h.html" target="_top" xlink:title="PHFlag.h">
<polygon fill="none" stroke="#000000" points="617,-114.5 617,-134.5 677,-134.5 677,-114.5 617,-114.5"/>
<text text-anchor="middle" x="647" y="-121.5" font-family="FreeSans" font-size="10.00" fill="#000000">PHFlag.h</text>
</a>
</g>
</g>
<!-- Node32&#45;&gt;Node33 -->
<g id="edge65" class="edge">
<title>Node32&#45;&gt;Node33</title>
<path fill="none" stroke="#191970" d="M869.7384,-246.3844C859.8877,-228.4481 836.9257,-191.0748 807,-171 770.6433,-146.6111 721.3535,-134.8071 687.1291,-129.232"/>
<polygon fill="#191970" stroke="#191970" points="687.4351,-125.7384 677.0224,-127.6947 686.3824,-132.6588 687.4351,-125.7384"/>
</g>
<!-- Node33&#45;&gt;Node7 -->
<g id="edge67" class="edge">
<title>Node33&#45;&gt;Node7</title>
<path fill="none" stroke="#191970" d="M643.0375,-114.3138C638.0724,-99.6427 631.8156,-72.6156 646,-57 676.2592,-23.6877 992.5347,-13.5891 1096.2575,-11.1609"/>
<polygon fill="#191970" stroke="#191970" points="1096.5302,-14.6557 1106.4488,-10.9312 1096.3725,-7.6575 1096.5302,-14.6557"/>
</g>
<!-- Node33&#45;&gt;Node18 -->
<g id="edge66" class="edge">
<title>Node33&#45;&gt;Node18</title>
<path fill="none" stroke="#191970" d="M652.0058,-114.3095C655.7486,-106.6903 660.9787,-96.0435 665.5053,-86.8285"/>
<polygon fill="#191970" stroke="#191970" points="668.7698,-88.121 670.0375,-77.6022 662.487,-85.0346 668.7698,-88.121"/>
</g>
<!-- Node34&#45;&gt;Node4 -->
<g id="edge69" class="edge">
<title>Node34&#45;&gt;Node4</title>
<path fill="none" stroke="#191970" d="M2094.8491,-179.7616C2065.2523,-176.8564 2031.0568,-173.625 2000,-171 1779.761,-152.3845 1724.2405,-153.5979 1504,-135 1492.1601,-134.0002 1479.6045,-132.8627 1467.3884,-131.7144"/>
<polygon fill="#191970" stroke="#191970" points="1467.5159,-128.2109 1457.2299,-130.7501 1466.8543,-135.1795 1467.5159,-128.2109"/>
</g>
<!-- Node34&#45;&gt;Node7 -->
<g id="edge72" class="edge">
<title>Node34&#45;&gt;Node7</title>
<path fill="none" stroke="#191970" d="M2165.3666,-177.3977C2150.182,-151.3579 2105.499,-82.2322 2046,-57 2004.5315,-39.4141 1321.2741,-16.6279 1162.0014,-11.538"/>
<polygon fill="#191970" stroke="#191970" points="1161.973,-8.0354 1151.8666,-11.2154 1161.7502,-15.0318 1161.973,-8.0354"/>
</g>
<!-- Node34&#45;&gt;Node21 -->
<g id="edge71" class="edge">
<title>Node34&#45;&gt;Node21</title>
<path fill="none" stroke="#191970" d="M2158.852,-177.4145C2141.6348,-163.158 2109.1,-136.3569 2081,-114 2068.3442,-103.9308 2054.0343,-92.8298 2042.5644,-84.0002"/>
<polygon fill="#191970" stroke="#191970" points="2044.4839,-81.0613 2034.4213,-77.7455 2040.2199,-86.6127 2044.4839,-81.0613"/>
</g>
<!-- Node35 -->
<g id="node35" class="node">
<title>Node35</title>
<polygon fill="none" stroke="#bfbfbf" points="2171.5,-114.5 2171.5,-134.5 2222.5,-134.5 2222.5,-114.5 2171.5,-114.5"/>
<text text-anchor="middle" x="2197" y="-121.5" font-family="FreeSans" font-size="10.00" fill="#000000">cstdint</text>
</g>
<!-- Node34&#45;&gt;Node35 -->
<g id="edge70" class="edge">
<title>Node34&#45;&gt;Node35</title>
<path fill="none" stroke="#191970" d="M2175.1773,-177.378C2178.8701,-168.4302 2184.3611,-155.125 2188.9112,-144.0999"/>
<polygon fill="#191970" stroke="#191970" points="2192.167,-145.3852 2192.7466,-134.8062 2185.6964,-142.7147 2192.167,-145.3852"/>
</g>
<!-- Node36 -->
<g id="node36" class="node">
<title>Node36</title>
<polygon fill="none" stroke="#bfbfbf" points="2241,-114.5 2241,-134.5 2283,-134.5 2283,-114.5 2241,-114.5"/>
<text text-anchor="middle" x="2262" y="-121.5" font-family="FreeSans" font-size="10.00" fill="#000000">tuple</text>
</g>
<!-- Node34&#45;&gt;Node36 -->
<g id="edge73" class="edge">
<title>Node34&#45;&gt;Node36</title>
<path fill="none" stroke="#191970" d="M2185.6207,-177.378C2199.9489,-167.4584 2222.0125,-152.1837 2238.7487,-140.597"/>
<polygon fill="#191970" stroke="#191970" points="2241.1859,-143.1667 2247.4156,-134.5969 2237.2014,-137.4114 2241.1859,-143.1667"/>
</g>
<!-- Node37&#45;&gt;Node21 -->
<g id="edge83" class="edge">
<title>Node37&#45;&gt;Node21</title>
<path fill="none" stroke="#191970" d="M1894.1985,-246.4764C1929.6808,-235.3293 1983.113,-217.1621 2000,-204 2029.4645,-181.0348 2036.8211,-170.6453 2048,-135 2053.2782,-118.1697 2044.7476,-99.5994 2035.9116,-86.2042"/>
<polygon fill="#191970" stroke="#191970" points="2038.5852,-83.9267 2029.9115,-77.8425 2032.8979,-88.0077 2038.5852,-83.9267"/>
</g>
<!-- Node38 -->
<g id="node38" class="node">
<title>Node38</title>
<g id="a_node38"><a xlink:href="../../d9/d5f/EDecayType_8hh.html" target="_top" xlink:title="g4decayer/EDecayType.hh">
<polygon fill="none" stroke="#000000" points="1712,-177.5 1712,-197.5 1862,-197.5 1862,-177.5 1712,-177.5"/>
<text text-anchor="middle" x="1787" y="-184.5" font-family="FreeSans" font-size="10.00" fill="#000000">g4decayer/EDecayType.hh</text>
</a>
</g>
</g>
<!-- Node37&#45;&gt;Node38 -->
<g id="edge75" class="edge">
<title>Node37&#45;&gt;Node38</title>
<path fill="none" stroke="#191970" d="M1850.081,-246.3188C1838.3855,-235.4135 1819.6161,-217.9123 1805.5869,-204.831"/>
<polygon fill="#191970" stroke="#191970" points="1807.6645,-201.9828 1797.9638,-197.723 1802.8907,-207.1025 1807.6645,-201.9828"/>
</g>
<!-- Node39 -->
<g id="node39" class="node">
<title>Node39</title>
<g id="a_node39"><a xlink:href="../../da/d81/G4__TrkrVariables_8C.html" target="_top" xlink:title="G4_TrkrVariables.C">
<polygon fill="none" stroke="#000000" points="1879.5,-177.5 1879.5,-197.5 1990.5,-197.5 1990.5,-177.5 1879.5,-177.5"/>
<text text-anchor="middle" x="1935" y="-184.5" font-family="FreeSans" font-size="10.00" fill="#000000">G4_TrkrVariables.C</text>
</a>
</g>
</g>
<!-- Node37&#45;&gt;Node39 -->
<g id="edge76" class="edge">
<title>Node37&#45;&gt;Node39</title>
<path fill="none" stroke="#191970" d="M1866.9636,-246.3188C1876.8422,-235.2097 1895.7932,-217.2558 1911.3274,-204.1022"/>
<polygon fill="#191970" stroke="#191970" points="1913.5791,-206.782 1919.0732,-197.723 1909.129,-201.3786 1913.5791,-206.782"/>
</g>
<!-- Node39&#45;&gt;Node37 -->
<g id="edge77" class="edge">
<title>Node39&#45;&gt;Node37</title>
<path fill="none" stroke="#191970" d="M1928.9993,-197.723C1919.0979,-208.8492 1900.1399,-226.8057 1884.6142,-239.9472"/>
<polygon fill="#191970" stroke="#191970" points="1882.3704,-237.261 1876.8743,-246.3188 1886.8193,-242.6653 1882.3704,-237.261"/>
</g>
<!-- Node40 -->
<g id="node40" class="node">
<title>Node40</title>
<g id="a_node40"><a xlink:href="../../dd/d6f/PHG4InttDefs_8h.html" target="_top" xlink:title="g4intt/PHG4InttDefs.h">
<polygon fill="none" stroke="#000000" points="1911.5,-114.5 1911.5,-134.5 2038.5,-134.5 2038.5,-114.5 1911.5,-114.5"/>
<text text-anchor="middle" x="1975" y="-121.5" font-family="FreeSans" font-size="10.00" fill="#000000">g4intt/PHG4InttDefs.h</text>
</a>
</g>
</g>
<!-- Node39&#45;&gt;Node40 -->
<g id="edge78" class="edge">
<title>Node39&#45;&gt;Node40</title>
<path fill="none" stroke="#191970" d="M1941.4267,-177.378C1947.2238,-168.2476 1955.9015,-154.5801 1962.9824,-143.4278"/>
<polygon fill="#191970" stroke="#191970" points="1966.051,-145.1244 1968.4564,-134.8062 1960.1415,-141.3723 1966.051,-145.1244"/>
</g>
<!-- Node41 -->
<g id="node41" class="node">
<title>Node41</title>
<g id="a_node41"><a xlink:href="../../df/d94/PHG4MvtxDefs_8h.html" target="_top" xlink:title="g4mvtx/PHG4MvtxDefs.h">
<polygon fill="none" stroke="#000000" points="1711.5,-114.5 1711.5,-134.5 1854.5,-134.5 1854.5,-114.5 1711.5,-114.5"/>
<text text-anchor="middle" x="1783" y="-121.5" font-family="FreeSans" font-size="10.00" fill="#000000">g4mvtx/PHG4MvtxDefs.h</text>
</a>
</g>
</g>
<!-- Node39&#45;&gt;Node41 -->
<g id="edge80" class="edge">
<title>Node39&#45;&gt;Node41</title>
<path fill="none" stroke="#191970" d="M1910.5786,-177.378C1885.2053,-166.8614 1845.3094,-150.3256 1816.8914,-138.5471"/>
<polygon fill="#191970" stroke="#191970" points="1817.9389,-135.1926 1807.3608,-134.5969 1815.2586,-141.6591 1817.9389,-135.1926"/>
</g>
<!-- Node40&#45;&gt;Node21 -->
<g id="edge79" class="edge">
<title>Node40&#45;&gt;Node21</title>
<path fill="none" stroke="#191970" d="M1983.2239,-114.3095C1989.6344,-106.3661 1998.7006,-95.1319 2006.3444,-85.6602"/>
<polygon fill="#191970" stroke="#191970" points="2009.2908,-87.5823 2012.8473,-77.6022 2003.8434,-83.1862 2009.2908,-87.5823"/>
</g>
<!-- Node41&#45;&gt;Node7 -->
<g id="edge81" class="edge">
<title>Node41&#45;&gt;Node7</title>
<path fill="none" stroke="#191970" d="M1773.8978,-114.2563C1759.3891,-98.7218 1729.3383,-69.6758 1697,-57 1647.138,-37.4553 1275.3189,-17.7088 1161.8094,-12.0825"/>
<polygon fill="#191970" stroke="#191970" points="1161.8105,-8.5784 1151.6505,-11.5826 1161.4663,-15.5699 1161.8105,-8.5784"/>
</g>
<!-- Node41&#45;&gt;Node16 -->
<g id="edge82" class="edge">
<title>Node41&#45;&gt;Node16</title>
<path fill="none" stroke="#191970" d="M1711.3302,-115.9357C1607.3762,-103.5135 1418.7054,-80.9679 1340.942,-71.6755"/>
<polygon fill="#191970" stroke="#191970" points="1341.0703,-68.166 1330.7256,-70.4546 1340.2397,-75.1165 1341.0703,-68.166"/>
</g>
</g>
</svg>
