<?xml version="1.0" encoding="UTF-8" standalone="no"?>
<!DOCTYPE svg PUBLIC "-//W3C//DTD SVG 1.1//EN"
 "http://www.w3.org/Graphics/SVG/1.1/DTD/svg11.dtd">
<!-- Generated by graphviz version 2.40.1 (20161225.0304)
 -->
<!-- Title: QAG4SimulationIntt::find_g4hits Pages: 1 -->
<svg width="431pt" height="41pt"
 viewBox="0.00 0.00 431.00 41.00" xmlns="http://www.w3.org/2000/svg" xmlns:xlink="http://www.w3.org/1999/xlink">
<g id="graph0" class="graph" transform="scale(1 1) rotate(0) translate(4 37)">
<title>QAG4SimulationIntt::find_g4hits</title>
<!-- Node1 -->
<g id="node1" class="node">
<title>Node1</title>
<polygon fill="#bfbfbf" stroke="#000000" points="0,-.5 0,-32.5 117,-32.5 117,-.5 0,-.5"/>
<text text-anchor="start" x="8" y="-19.5" font-family="FreeSans" font-size="10.00" fill="#000000">QAG4SimulationIntt</text>
<text text-anchor="middle" x="58.5" y="-7.5" font-family="FreeSans" font-size="10.00" fill="#000000">::find_g4hits</text>
</g>
<!-- Node2 -->
<g id="node2" class="node">
<title>Node2</title>
<g id="a_node2"><a xlink:href="../../da/d30/classQAG4SimulationIntt.html#ac83764bf62e096e9bea2d4ebbce6ac6c" target="_top" xlink:title="evaluate clusters">
<polygon fill="none" stroke="#000000" points="153,-.5 153,-32.5 270,-32.5 270,-.5 153,-.5"/>
<text text-anchor="start" x="161" y="-19.5" font-family="FreeSans" font-size="10.00" fill="#000000">QAG4SimulationIntt</text>
<text text-anchor="middle" x="211.5" y="-7.5" font-family="FreeSans" font-size="10.00" fill="#000000">::evaluate_clusters</text>
</a>
</g>
</g>
<!-- Node1&#45;&gt;Node2 -->
<g id="edge1" class="edge">
<title>Node1&#45;&gt;Node2</title>
<path fill="none" stroke="#191970" d="M127.4932,-16.5C135.9927,-16.5 144.617,-16.5 152.9409,-16.5"/>
<polygon fill="#191970" stroke="#191970" points="127.2163,-13.0001 117.2162,-16.5 127.2162,-20.0001 127.2163,-13.0001"/>
</g>
<!-- Node3 -->
<g id="node3" class="node">
<title>Node3</title>
<g id="a_node3"><a xlink:href="../../da/d30/classQAG4SimulationIntt.html#a70d30d63703b19b71e10803a3a055251" target="_top" xlink:title="QAG4SimulationIntt\l::process_event">
<polygon fill="none" stroke="#000000" points="306,-.5 306,-32.5 423,-32.5 423,-.5 306,-.5"/>
<text text-anchor="start" x="314" y="-19.5" font-family="FreeSans" font-size="10.00" fill="#000000">QAG4SimulationIntt</text>
<text text-anchor="middle" x="364.5" y="-7.5" font-family="FreeSans" font-size="10.00" fill="#000000">::process_event</text>
</a>
</g>
</g>
<!-- Node2&#45;&gt;Node3 -->
<g id="edge2" class="edge">
<title>Node2&#45;&gt;Node3</title>
<path fill="none" stroke="#191970" d="M280.4932,-16.5C288.9927,-16.5 297.617,-16.5 305.9409,-16.5"/>
<polygon fill="#191970" stroke="#191970" points="280.2163,-13.0001 270.2162,-16.5 280.2162,-20.0001 280.2163,-13.0001"/>
</g>
</g>
</svg>
