<?xml version="1.0" encoding="UTF-8" standalone="no"?>
<!DOCTYPE svg PUBLIC "-//W3C//DTD SVG 1.1//EN"
 "http://www.w3.org/Graphics/SVG/1.1/DTD/svg11.dtd">
<!-- Generated by graphviz version 2.40.1 (20161225.0304)
 -->
<!-- Title: JETSCAPE/blob/master/src/framework/JetScapeBanner.h Pages: 1 -->
<svg width="1326pt" height="122pt"
 viewBox="0.00 0.00 1325.50 122.00" xmlns="http://www.w3.org/2000/svg" xmlns:xlink="http://www.w3.org/1999/xlink">
<g id="graph0" class="graph" transform="scale(1 1) rotate(0) translate(4 118)">
<title>JETSCAPE/blob/master/src/framework/JetScapeBanner.h</title>
<!-- Node1 -->
<g id="node1" class="node">
<title>Node1</title>
<polygon fill="#bfbfbf" stroke="#000000" points="612,-81.5 612,-113.5 797,-113.5 797,-81.5 612,-81.5"/>
<text text-anchor="start" x="620" y="-100.5" font-family="FreeSans" font-size="10.00" fill="#000000">JETSCAPE/blob/master</text>
<text text-anchor="middle" x="704.5" y="-88.5" font-family="FreeSans" font-size="10.00" fill="#000000">/src/framework/JetScapeBanner.h</text>
</g>
<!-- Node2 -->
<g id="node2" class="node">
<title>Node2</title>
<g id="a_node2"><a xlink:href="../../dd/d5f/coresoftware_2blob_2master_2generators_2JETSCAPE_2FinalStateHadrons_8cc.html" target="_top" xlink:title="coresoftware/blob/master\l/generators/JETSCAPE/FinalState\lHadrons.cc">
<polygon fill="none" stroke="#000000" points="0,-.5 0,-44.5 181,-44.5 181,-.5 0,-.5"/>
<text text-anchor="start" x="8" y="-31.5" font-family="FreeSans" font-size="10.00" fill="#000000">coresoftware/blob/master</text>
<text text-anchor="start" x="8" y="-19.5" font-family="FreeSans" font-size="10.00" fill="#000000">/generators/JETSCAPE/FinalState</text>
<text text-anchor="middle" x="90.5" y="-7.5" font-family="FreeSans" font-size="10.00" fill="#000000">Hadrons.cc</text>
</a>
</g>
</g>
<!-- Node1&#45;&gt;Node2 -->
<g id="edge1" class="edge">
<title>Node1&#45;&gt;Node2</title>
<path fill="none" stroke="#191970" d="M601.7411,-90.7295C497.4431,-82.9902 331.5495,-68.2933 189.5,-45 186.717,-44.5436 183.8952,-44.0565 181.0503,-43.544"/>
<polygon fill="#191970" stroke="#191970" points="601.7227,-94.2375 611.9523,-91.4795 602.2356,-87.2563 601.7227,-94.2375"/>
</g>
<!-- Node3 -->
<g id="node3" class="node">
<title>Node3</title>
<g id="a_node3"><a xlink:href="../../de/d37/coresoftware_2blob_2master_2generators_2JETSCAPE_2FinalStatePartons_8cc.html" target="_top" xlink:title="coresoftware/blob/master\l/generators/JETSCAPE/FinalState\lPartons.cc">
<polygon fill="none" stroke="#000000" points="199,-.5 199,-44.5 380,-44.5 380,-.5 199,-.5"/>
<text text-anchor="start" x="207" y="-31.5" font-family="FreeSans" font-size="10.00" fill="#000000">coresoftware/blob/master</text>
<text text-anchor="start" x="207" y="-19.5" font-family="FreeSans" font-size="10.00" fill="#000000">/generators/JETSCAPE/FinalState</text>
<text text-anchor="middle" x="289.5" y="-7.5" font-family="FreeSans" font-size="10.00" fill="#000000">Partons.cc</text>
</a>
</g>
</g>
<!-- Node1&#45;&gt;Node3 -->
<g id="edge2" class="edge">
<title>Node1&#45;&gt;Node3</title>
<path fill="none" stroke="#191970" d="M601.7758,-81.8731C540.0811,-72.1166 460.1108,-58.8166 389.5,-45 386.4438,-44.402 383.3382,-43.7806 380.2041,-43.1418"/>
<polygon fill="#191970" stroke="#191970" points="601.4819,-85.3699 611.9048,-83.4691 602.5715,-78.4552 601.4819,-85.3699"/>
</g>
<!-- Node4 -->
<g id="node4" class="node">
<title>Node4</title>
<g id="a_node4"><a xlink:href="../../d5/dbe/coresoftware_2blob_2master_2generators_2JETSCAPE_2readerTest_8cc.html" target="_top" xlink:title="coresoftware/blob/master\l/generators/JETSCAPE/readerTest.cc">
<polygon fill="none" stroke="#000000" points="398.5,-6.5 398.5,-38.5 596.5,-38.5 596.5,-6.5 398.5,-6.5"/>
<text text-anchor="start" x="406.5" y="-25.5" font-family="FreeSans" font-size="10.00" fill="#000000">coresoftware/blob/master</text>
<text text-anchor="middle" x="497.5" y="-13.5" font-family="FreeSans" font-size="10.00" fill="#000000">/generators/JETSCAPE/readerTest.cc</text>
</a>
</g>
</g>
<!-- Node1&#45;&gt;Node4 -->
<g id="edge3" class="edge">
<title>Node1&#45;&gt;Node4</title>
<path fill="none" stroke="#191970" d="M650.3723,-77.8885C616.5747,-65.643 573.6041,-50.0739 541.8333,-38.5628"/>
<polygon fill="#191970" stroke="#191970" points="649.4991,-81.2947 660.0933,-81.4106 651.8837,-74.7134 649.4991,-81.2947"/>
</g>
<!-- Node5 -->
<g id="node5" class="node">
<title>Node5</title>
<g id="a_node5"><a xlink:href="../../d6/da7/JETSCAPE_2blob_2master_2examples_2FinalStateHadrons_8cc.html" target="_top" xlink:title="JETSCAPE/blob/master\l/examples/FinalStateHadrons.cc">
<polygon fill="none" stroke="#000000" points="615,-6.5 615,-38.5 794,-38.5 794,-6.5 615,-6.5"/>
<text text-anchor="start" x="623" y="-25.5" font-family="FreeSans" font-size="10.00" fill="#000000">JETSCAPE/blob/master</text>
<text text-anchor="middle" x="704.5" y="-13.5" font-family="FreeSans" font-size="10.00" fill="#000000">/examples/FinalStateHadrons.cc</text>
</a>
</g>
</g>
<!-- Node1&#45;&gt;Node5 -->
<g id="edge4" class="edge">
<title>Node1&#45;&gt;Node5</title>
<path fill="none" stroke="#191970" d="M704.5,-71.0487C704.5,-60.2776 704.5,-48.1711 704.5,-38.7421"/>
<polygon fill="#191970" stroke="#191970" points="701.0001,-71.2261 704.5,-81.2261 708.0001,-71.2262 701.0001,-71.2261"/>
</g>
<!-- Node6 -->
<g id="node6" class="node">
<title>Node6</title>
<g id="a_node6"><a xlink:href="../../dc/d38/JETSCAPE_2blob_2master_2examples_2FinalStatePartons_8cc.html" target="_top" xlink:title="JETSCAPE/blob/master\l/examples/FinalStatePartons.cc">
<polygon fill="none" stroke="#000000" points="812,-6.5 812,-38.5 987,-38.5 987,-6.5 812,-6.5"/>
<text text-anchor="start" x="820" y="-25.5" font-family="FreeSans" font-size="10.00" fill="#000000">JETSCAPE/blob/master</text>
<text text-anchor="middle" x="899.5" y="-13.5" font-family="FreeSans" font-size="10.00" fill="#000000">/examples/FinalStatePartons.cc</text>
</a>
</g>
</g>
<!-- Node1&#45;&gt;Node6 -->
<g id="edge5" class="edge">
<title>Node1&#45;&gt;Node6</title>
<path fill="none" stroke="#191970" d="M755.9002,-77.7307C787.6754,-65.5095 827.9362,-50.0245 857.7368,-38.5628"/>
<polygon fill="#191970" stroke="#191970" points="754.4094,-74.5541 746.3324,-81.4106 756.9223,-81.0875 754.4094,-74.5541"/>
</g>
<!-- Node7 -->
<g id="node7" class="node">
<title>Node7</title>
<g id="a_node7"><a xlink:href="../../d9/d2f/JETSCAPE_2blob_2master_2examples_2readerTest_8cc.html" target="_top" xlink:title="JETSCAPE/blob/master\l/examples/readerTest.cc">
<polygon fill="none" stroke="#000000" points="1005.5,-6.5 1005.5,-38.5 1145.5,-38.5 1145.5,-6.5 1005.5,-6.5"/>
<text text-anchor="start" x="1013.5" y="-25.5" font-family="FreeSans" font-size="10.00" fill="#000000">JETSCAPE/blob/master</text>
<text text-anchor="middle" x="1075.5" y="-13.5" font-family="FreeSans" font-size="10.00" fill="#000000">/examples/readerTest.cc</text>
</a>
</g>
</g>
<!-- Node1&#45;&gt;Node7 -->
<g id="edge6" class="edge">
<title>Node1&#45;&gt;Node7</title>
<path fill="none" stroke="#191970" d="M807.0039,-81.6365C863.2311,-72.2921 934.0166,-59.4772 996.5,-45 1004.6967,-43.1009 1013.3114,-40.882 1021.716,-38.5917"/>
<polygon fill="#191970" stroke="#191970" points="806.3348,-78.1995 797.0385,-83.2817 807.475,-85.106 806.3348,-78.1995"/>
</g>
<!-- Node8 -->
<g id="node8" class="node">
<title>Node8</title>
<g id="a_node8"><a xlink:href="../../d3/d30/JetScape_8cc.html" target="_top" xlink:title="JETSCAPE/blob/master\l/src/framework/JetScape.cc">
<polygon fill="none" stroke="#000000" points="1163.5,-6.5 1163.5,-38.5 1317.5,-38.5 1317.5,-6.5 1163.5,-6.5"/>
<text text-anchor="start" x="1171.5" y="-25.5" font-family="FreeSans" font-size="10.00" fill="#000000">JETSCAPE/blob/master</text>
<text text-anchor="middle" x="1240.5" y="-13.5" font-family="FreeSans" font-size="10.00" fill="#000000">/src/framework/JetScape.cc</text>
</a>
</g>
</g>
<!-- Node1&#45;&gt;Node8 -->
<g id="edge7" class="edge">
<title>Node1&#45;&gt;Node8</title>
<path fill="none" stroke="#191970" d="M807.3935,-89.6158C899.0045,-81.6196 1036.4096,-67.2237 1154.5,-45 1164.0551,-43.2018 1174.1157,-40.926 1183.8542,-38.5166"/>
<polygon fill="#191970" stroke="#191970" points="806.9492,-86.1411 797.2873,-90.4882 807.5513,-93.1152 806.9492,-86.1411"/>
</g>
</g>
</svg>
