<?xml version="1.0" encoding="UTF-8" standalone="no"?>
<!DOCTYPE svg PUBLIC "-//W3C//DTD SVG 1.1//EN"
 "http://www.w3.org/Graphics/SVG/1.1/DTD/svg11.dtd">
<!-- Generated by graphviz version 2.40.1 (20161225.0304)
 -->
<!-- Title: TrkrClusterHitAssoc::addAssoc Pages: 1 -->
<svg width="507pt" height="284pt"
 viewBox="0.00 0.00 507.00 284.00" xmlns="http://www.w3.org/2000/svg" xmlns:xlink="http://www.w3.org/1999/xlink">
<g id="graph0" class="graph" transform="scale(1 1) rotate(0) translate(4 280)">
<title>TrkrClusterHitAssoc::addAssoc</title>
<!-- Node1 -->
<g id="node1" class="node">
<title>Node1</title>
<polygon fill="#bfbfbf" stroke="#000000" points="0,-124.5 0,-156.5 115,-156.5 115,-124.5 0,-124.5"/>
<text text-anchor="start" x="8" y="-143.5" font-family="FreeSans" font-size="10.00" fill="#000000">TrkrClusterHitAssoc</text>
<text text-anchor="middle" x="57.5" y="-131.5" font-family="FreeSans" font-size="10.00" fill="#000000">::addAssoc</text>
</g>
<!-- Node2 -->
<g id="node2" class="node">
<title>Node2</title>
<g id="a_node2"><a xlink:href="../../d5/d86/classInttClusterizer.html#aa896d5f1adf8ac34a5ae766fd4d557bc" target="_top" xlink:title="InttClusterizer::Cluster\lLadderCells">
<polygon fill="none" stroke="#000000" points="167,-243.5 167,-275.5 297,-275.5 297,-243.5 167,-243.5"/>
<text text-anchor="start" x="175" y="-262.5" font-family="FreeSans" font-size="10.00" fill="#000000">InttClusterizer::Cluster</text>
<text text-anchor="middle" x="232" y="-250.5" font-family="FreeSans" font-size="10.00" fill="#000000">LadderCells</text>
</a>
</g>
</g>
<!-- Node1&#45;&gt;Node2 -->
<g id="edge1" class="edge">
<title>Node1&#45;&gt;Node2</title>
<path fill="none" stroke="#191970" d="M75.5892,-164.4399C92.8138,-185.6769 120.5673,-216.1037 151,-234.5 156.5417,-237.8499 162.5712,-240.7868 168.7573,-243.3537"/>
<polygon fill="#191970" stroke="#191970" points="78.2617,-162.1771 69.3048,-156.5181 72.7778,-166.5276 78.2617,-162.1771"/>
</g>
<!-- Node4 -->
<g id="node4" class="node">
<title>Node4</title>
<g id="a_node4"><a xlink:href="../../df/d74/classMvtxPrototype2Clusterizer.html#a842489301c71c7d134ffb3a8e3dfbfba" target="_top" xlink:title="MvtxPrototype2Clusterizer\l::ClusterMvtx">
<polygon fill="none" stroke="#000000" points="157,-192.5 157,-224.5 307,-224.5 307,-192.5 157,-192.5"/>
<text text-anchor="start" x="165" y="-211.5" font-family="FreeSans" font-size="10.00" fill="#000000">MvtxPrototype2Clusterizer</text>
<text text-anchor="middle" x="232" y="-199.5" font-family="FreeSans" font-size="10.00" fill="#000000">::ClusterMvtx</text>
</a>
</g>
</g>
<!-- Node1&#45;&gt;Node4 -->
<g id="edge3" class="edge">
<title>Node1&#45;&gt;Node4</title>
<path fill="none" stroke="#191970" d="M99.0476,-161.0324C115.0819,-168.5778 133.7012,-176.8856 151,-183.5 159.1104,-186.6011 167.7848,-189.6007 176.3325,-192.3808"/>
<polygon fill="#191970" stroke="#191970" points="100.4688,-157.8326 89.9351,-156.6964 97.4611,-164.1536 100.4688,-157.8326"/>
</g>
<!-- Node6 -->
<g id="node6" class="node">
<title>Node6</title>
<g id="a_node6"><a xlink:href="../../dc/d12/classMvtxClusterizer.html#a1aa96e33d67d25815d5b5812566cc5b7" target="_top" xlink:title="MvtxClusterizer::ClusterMvtx">
<polygon fill="none" stroke="#000000" points="151,-153.5 151,-173.5 313,-173.5 313,-153.5 151,-153.5"/>
<text text-anchor="middle" x="232" y="-160.5" font-family="FreeSans" font-size="10.00" fill="#000000">MvtxClusterizer::ClusterMvtx</text>
</a>
</g>
</g>
<!-- Node1&#45;&gt;Node6 -->
<g id="edge5" class="edge">
<title>Node1&#45;&gt;Node6</title>
<path fill="none" stroke="#191970" d="M125.1175,-149.4123C135.2597,-150.7491 145.7752,-152.1351 156.0764,-153.4929"/>
<polygon fill="#191970" stroke="#191970" points="125.4931,-145.9317 115.1214,-148.0948 124.5783,-152.8716 125.4931,-145.9317"/>
</g>
<!-- Node8 -->
<g id="node8" class="node">
<title>Node8</title>
<g id="a_node8"><a xlink:href="../../d6/d03/classTpcPrototypeClusterizer.html#ad790455b460f30f668670fcd15cc36fb" target="_top" xlink:title="TpcPrototypeClusterizer\l::process_event">
<polygon fill="none" stroke="#000000" points="162.5,-102.5 162.5,-134.5 301.5,-134.5 301.5,-102.5 162.5,-102.5"/>
<text text-anchor="start" x="170.5" y="-121.5" font-family="FreeSans" font-size="10.00" fill="#000000">TpcPrototypeClusterizer</text>
<text text-anchor="middle" x="232" y="-109.5" font-family="FreeSans" font-size="10.00" fill="#000000">::process_event</text>
</a>
</g>
</g>
<!-- Node1&#45;&gt;Node8 -->
<g id="edge7" class="edge">
<title>Node1&#45;&gt;Node8</title>
<path fill="none" stroke="#191970" d="M125.1943,-131.9655C137.3621,-130.4314 150.0648,-128.8299 162.2885,-127.2888"/>
<polygon fill="#191970" stroke="#191970" points="124.6051,-128.512 115.1214,-133.2354 125.4807,-135.457 124.6051,-128.512"/>
</g>
<!-- Node9 -->
<g id="node9" class="node">
<title>Node9</title>
<g id="a_node9"><a xlink:href="../../dc/d6c/classTpcSimpleClusterizer.html#a8df0e97e451c7d395491f49b58e57b7a" target="_top" xlink:title="TpcSimpleClusterizer\l::process_event">
<polygon fill="none" stroke="#000000" points="169.5,-51.5 169.5,-83.5 294.5,-83.5 294.5,-51.5 169.5,-51.5"/>
<text text-anchor="start" x="177.5" y="-70.5" font-family="FreeSans" font-size="10.00" fill="#000000">TpcSimpleClusterizer</text>
<text text-anchor="middle" x="232" y="-58.5" font-family="FreeSans" font-size="10.00" fill="#000000">::process_event</text>
</a>
</g>
</g>
<!-- Node1&#45;&gt;Node9 -->
<g id="edge8" class="edge">
<title>Node1&#45;&gt;Node9</title>
<path fill="none" stroke="#191970" d="M95.3741,-119.7808C112.1409,-111.0499 132.2708,-101.1591 151,-93.5 159.6123,-89.9781 168.8912,-86.615 177.9872,-83.5458"/>
<polygon fill="#191970" stroke="#191970" points="93.651,-116.7325 86.4354,-124.4905 96.9141,-122.9255 93.651,-116.7325"/>
</g>
<!-- Node10 -->
<g id="node10" class="node">
<title>Node10</title>
<g id="a_node10"><a xlink:href="../../de/d25/classTpcClusterizer.html#ac66fda514e9c1985f3f083ef79934137" target="_top" xlink:title="TpcClusterizer::process\l_event">
<polygon fill="none" stroke="#000000" points="164.5,-.5 164.5,-32.5 299.5,-32.5 299.5,-.5 164.5,-.5"/>
<text text-anchor="start" x="172.5" y="-19.5" font-family="FreeSans" font-size="10.00" fill="#000000">TpcClusterizer::process</text>
<text text-anchor="middle" x="232" y="-7.5" font-family="FreeSans" font-size="10.00" fill="#000000">_event</text>
</a>
</g>
</g>
<!-- Node1&#45;&gt;Node10 -->
<g id="edge9" class="edge">
<title>Node1&#45;&gt;Node10</title>
<path fill="none" stroke="#191970" d="M75.1307,-115.9716C92.2181,-93.8511 120.0389,-61.9 151,-42.5 157.0073,-38.7358 163.6096,-35.4692 170.3724,-32.6458"/>
<polygon fill="#191970" stroke="#191970" points="72.1438,-114.119 68.9111,-124.2086 77.7302,-118.3371 72.1438,-114.119"/>
</g>
<!-- Node3 -->
<g id="node3" class="node">
<title>Node3</title>
<g id="a_node3"><a xlink:href="../../d5/d86/classInttClusterizer.html#a12f21f7ac9373c592f8ba3e7287f6c8a" target="_top" xlink:title="event processing">
<polygon fill="none" stroke="#000000" points="357.5,-243.5 357.5,-275.5 490.5,-275.5 490.5,-243.5 357.5,-243.5"/>
<text text-anchor="start" x="365.5" y="-262.5" font-family="FreeSans" font-size="10.00" fill="#000000">InttClusterizer::process</text>
<text text-anchor="middle" x="424" y="-250.5" font-family="FreeSans" font-size="10.00" fill="#000000">_event</text>
</a>
</g>
</g>
<!-- Node2&#45;&gt;Node3 -->
<g id="edge2" class="edge">
<title>Node2&#45;&gt;Node3</title>
<path fill="none" stroke="#191970" d="M307.1935,-259.5C323.7718,-259.5 341.2198,-259.5 357.4286,-259.5"/>
<polygon fill="#191970" stroke="#191970" points="307.0025,-256.0001 297.0024,-259.5 307.0024,-263.0001 307.0025,-256.0001"/>
</g>
<!-- Node5 -->
<g id="node5" class="node">
<title>Node5</title>
<g id="a_node5"><a xlink:href="../../df/d74/classMvtxPrototype2Clusterizer.html#a0d7f0ea368406a28618206850e92e97e" target="_top" xlink:title="event processing">
<polygon fill="none" stroke="#000000" points="349,-192.5 349,-224.5 499,-224.5 499,-192.5 349,-192.5"/>
<text text-anchor="start" x="357" y="-211.5" font-family="FreeSans" font-size="10.00" fill="#000000">MvtxPrototype2Clusterizer</text>
<text text-anchor="middle" x="424" y="-199.5" font-family="FreeSans" font-size="10.00" fill="#000000">::process_event</text>
</a>
</g>
</g>
<!-- Node4&#45;&gt;Node5 -->
<g id="edge4" class="edge">
<title>Node4&#45;&gt;Node5</title>
<path fill="none" stroke="#191970" d="M317.157,-208.5C327.7665,-208.5 338.5549,-208.5 348.995,-208.5"/>
<polygon fill="#191970" stroke="#191970" points="317.0572,-205.0001 307.0571,-208.5 317.0571,-212.0001 317.0572,-205.0001"/>
</g>
<!-- Node7 -->
<g id="node7" class="node">
<title>Node7</title>
<g id="a_node7"><a xlink:href="../../dc/d12/classMvtxClusterizer.html#a65c6ecb960ca545df424342dbe6de5b8" target="_top" xlink:title="event processing">
<polygon fill="none" stroke="#000000" points="354,-141.5 354,-173.5 494,-173.5 494,-141.5 354,-141.5"/>
<text text-anchor="start" x="362" y="-160.5" font-family="FreeSans" font-size="10.00" fill="#000000">MvtxClusterizer::process</text>
<text text-anchor="middle" x="424" y="-148.5" font-family="FreeSans" font-size="10.00" fill="#000000">_event</text>
</a>
</g>
</g>
<!-- Node6&#45;&gt;Node7 -->
<g id="edge6" class="edge">
<title>Node6&#45;&gt;Node7</title>
<path fill="none" stroke="#191970" d="M323.3374,-160.6457C333.5686,-160.326 343.8707,-160.004 353.7772,-159.6945"/>
<polygon fill="#191970" stroke="#191970" points="323.0328,-157.1534 313.147,-160.9642 323.2515,-164.15 323.0328,-157.1534"/>
</g>
</g>
</svg>
