<?xml version="1.0" encoding="UTF-8" standalone="no"?>
<!DOCTYPE svg PUBLIC "-//W3C//DTD SVG 1.1//EN"
 "http://www.w3.org/Graphics/SVG/1.1/DTD/svg11.dtd">
<!-- Generated by graphviz version 2.40.1 (20161225.0304)
 -->
<!-- Title: PHG4CEmcTestBeamDetector Pages: 1 -->
<svg width="632pt" height="504pt"
 viewBox="0.00 0.00 632.00 504.00" xmlns="http://www.w3.org/2000/svg" xmlns:xlink="http://www.w3.org/1999/xlink">
<g id="graph0" class="graph" transform="scale(1 1) rotate(0) translate(4 500)">
<title>PHG4CEmcTestBeamDetector</title>
<!-- Node1 -->
<g id="node1" class="node">
<title>Node1</title>
<polygon fill="#bfbfbf" stroke="#000000" points="86,-.5 86,-20.5 252,-20.5 252,-.5 86,-.5"/>
<text text-anchor="middle" x="169" y="-7.5" font-family="FreeSans" font-size="10.00" fill="#000000">PHG4CEmcTestBeamDetector</text>
</g>
<!-- Node2 -->
<g id="node2" class="node">
<title>Node2</title>
<g id="a_node2"><a xlink:href="../../d3/de7/classPHG4Detector.html" target="_top" xlink:title="base class for phenix detector creation">
<polygon fill="none" stroke="#000000" points="125,-75.5 125,-95.5 213,-95.5 213,-75.5 125,-75.5"/>
<text text-anchor="middle" x="169" y="-82.5" font-family="FreeSans" font-size="10.00" fill="#000000">PHG4Detector</text>
</a>
</g>
</g>
<!-- Node2&#45;&gt;Node1 -->
<g id="edge1" class="edge">
<title>Node2&#45;&gt;Node1</title>
<path fill="none" stroke="#191970" d="M169,-65.0481C169,-50.77 169,-32.303 169,-20.9358"/>
<polygon fill="#191970" stroke="#191970" points="165.5001,-65.3851 169,-75.3852 172.5001,-65.3852 165.5001,-65.3851"/>
</g>
<!-- Node3 -->
<g id="node3" class="node">
<title>Node3</title>
<g id="a_node3"><a xlink:href="../../db/df7/classPHG4Subsystem.html" target="_top" xlink:title="PHG4Subsystem">
<polygon fill="none" stroke="#000000" points="119,-150.5 119,-170.5 219,-170.5 219,-150.5 119,-150.5"/>
<text text-anchor="middle" x="169" y="-157.5" font-family="FreeSans" font-size="10.00" fill="#000000">PHG4Subsystem</text>
</a>
</g>
</g>
<!-- Node3&#45;&gt;Node2 -->
<g id="edge2" class="edge">
<title>Node3&#45;&gt;Node2</title>
<path fill="none" stroke="#9a32cd" stroke-dasharray="5,2" d="M169,-140.0481C169,-125.77 169,-107.303 169,-95.9358"/>
<polygon fill="#9a32cd" stroke="#9a32cd" points="165.5001,-140.3851 169,-150.3852 172.5001,-140.3852 165.5001,-140.3851"/>
<text text-anchor="middle" x="213.5" y="-123" font-family="FreeSans" font-size="10.00" fill="#000000"> m_MySubsystem</text>
</g>
<!-- Node3&#45;&gt;Node3 -->
<g id="edge7" class="edge">
<title>Node3&#45;&gt;Node3</title>
<path fill="none" stroke="#9a32cd" stroke-dasharray="5,2" d="M229.3454,-165.3307C234.0774,-164.2684 237,-162.6582 237,-160.5 237,-157.0469 229.5182,-154.9966 219.1139,-154.3491"/>
<polygon fill="#9a32cd" stroke="#9a32cd" points="228.5837,-161.8998 219.1139,-166.6509 229.4796,-168.8423 228.5837,-161.8998"/>
<text text-anchor="middle" x="299.5" y="-157.5" font-family="FreeSans" font-size="10.00" fill="#000000"> m_MyMotherSubsystem</text>
</g>
<!-- Node4 -->
<g id="node4" class="node">
<title>Node4</title>
<g id="a_node4"><a xlink:href="../../d0/d32/classSubsysReco.html" target="_top" xlink:title="SubsysReco">
<polygon fill="none" stroke="#000000" points="158,-231.5 158,-251.5 234,-251.5 234,-231.5 158,-231.5"/>
<text text-anchor="middle" x="196" y="-238.5" font-family="FreeSans" font-size="10.00" fill="#000000">SubsysReco</text>
</a>
</g>
</g>
<!-- Node4&#45;&gt;Node3 -->
<g id="edge3" class="edge">
<title>Node4&#45;&gt;Node3</title>
<path fill="none" stroke="#191970" d="M189.3866,-221.6598C184.0084,-205.5251 176.6386,-183.4158 172.3918,-170.6754"/>
<polygon fill="#191970" stroke="#191970" points="186.0977,-222.8613 192.5804,-231.2413 192.7385,-220.6476 186.0977,-222.8613"/>
</g>
<!-- Node5 -->
<g id="node5" class="node">
<title>Node5</title>
<g id="a_node5"><a xlink:href="../../d5/dec/classFun4AllBase.html" target="_top" xlink:title="Fun4AllBase">
<polygon fill="none" stroke="#000000" points="130,-300.5 130,-320.5 208,-320.5 208,-300.5 130,-300.5"/>
<text text-anchor="middle" x="169" y="-307.5" font-family="FreeSans" font-size="10.00" fill="#000000">Fun4AllBase</text>
</a>
</g>
</g>
<!-- Node5&#45;&gt;Node4 -->
<g id="edge4" class="edge">
<title>Node5&#45;&gt;Node4</title>
<path fill="none" stroke="#191970" d="M176.6381,-290.9804C181.6365,-278.2066 187.9655,-262.0326 191.9997,-251.723"/>
<polygon fill="#191970" stroke="#191970" points="173.3686,-289.731 172.9839,-300.3188 179.8874,-292.2818 173.3686,-289.731"/>
</g>
<!-- Node6 -->
<g id="node6" class="node">
<title>Node6</title>
<g id="a_node6"><a xlink:title="STL class.">
<polygon fill="none" stroke="#bfbfbf" points="73.5,-405.5 73.5,-425.5 140.5,-425.5 140.5,-405.5 73.5,-405.5"/>
<text text-anchor="middle" x="107" y="-412.5" font-family="FreeSans" font-size="10.00" fill="#000000">std::string</text>
</a>
</g>
</g>
<!-- Node6&#45;&gt;Node1 -->
<g id="edge15" class="edge">
<title>Node6&#45;&gt;Node1</title>
<path fill="none" stroke="#9a32cd" stroke-dasharray="5,2" d="M75.1127,-400.9086C43.5777,-384.0331 0,-353.0205 0,-310.5 0,-310.5 0,-310.5 0,-85.5 0,-57.8942 76.2893,-33.5275 126.3542,-20.5091"/>
<polygon fill="#9a32cd" stroke="#9a32cd" points="73.5506,-404.0409 84.0458,-405.4903 76.7452,-397.8123 73.5506,-404.0409"/>
<text text-anchor="middle" x="38" y="-204" font-family="FreeSans" font-size="10.00" fill="#000000"> superdetector</text>
<text text-anchor="middle" x="38" y="-192" font-family="FreeSans" font-size="10.00" fill="#000000">detector_type</text>
</g>
<!-- Node6&#45;&gt;Node2 -->
<g id="edge8" class="edge">
<title>Node6&#45;&gt;Node2</title>
<path fill="none" stroke="#9a32cd" stroke-dasharray="5,2" d="M102.104,-395.4706C97.3995,-374.4437 91,-340.3541 91,-310.5 91,-310.5 91,-310.5 91,-160.5 91,-129.6907 123.0112,-107.5758 146.0193,-95.6597"/>
<polygon fill="#9a32cd" stroke="#9a32cd" points="98.7496,-396.4978 104.4293,-405.4416 105.5667,-394.908 98.7496,-396.4978"/>
<text text-anchor="middle" x="115.5" y="-238.5" font-family="FreeSans" font-size="10.00" fill="#000000"> m_Name</text>
</g>
<!-- Node6&#45;&gt;Node5 -->
<g id="edge5" class="edge">
<title>Node6&#45;&gt;Node5</title>
<path fill="none" stroke="#9a32cd" stroke-dasharray="5,2" d="M118.1776,-396.5702C131.315,-374.3214 152.6335,-338.2175 162.9821,-320.6916"/>
<polygon fill="#9a32cd" stroke="#9a32cd" points="115.0156,-395.0416 112.9448,-405.4322 121.0432,-398.6008 115.0156,-395.0416"/>
<text text-anchor="middle" x="186" y="-360" font-family="FreeSans" font-size="10.00" fill="#000000"> m_ThisName</text>
</g>
<!-- Node9 -->
<g id="node9" class="node">
<title>Node9</title>
<g id="a_node9"><a xlink:href="../../dc/d82/classPHNode.html" target="_top" xlink:title="PHNode">
<polygon fill="none" stroke="#000000" points="306,-300.5 306,-320.5 362,-320.5 362,-300.5 306,-300.5"/>
<text text-anchor="middle" x="334" y="-307.5" font-family="FreeSans" font-size="10.00" fill="#000000">PHNode</text>
</a>
</g>
</g>
<!-- Node6&#45;&gt;Node9 -->
<g id="edge12" class="edge">
<title>Node6&#45;&gt;Node9</title>
<path fill="none" stroke="#9a32cd" stroke-dasharray="5,2" d="M150.7338,-408.9821C173.5475,-404.5894 201.5175,-397.6128 225,-387 264.1855,-369.2902 303.9699,-336.9312 322.7972,-320.5589"/>
<polygon fill="#9a32cd" stroke="#9a32cd" points="149.8585,-405.5839 140.6493,-410.8224 151.1152,-412.4702 149.8585,-405.5839"/>
<text text-anchor="middle" x="329" y="-378" font-family="FreeSans" font-size="10.00" fill="#000000"> objecttype</text>
<text text-anchor="middle" x="329" y="-366" font-family="FreeSans" font-size="10.00" fill="#000000">objectclass</text>
<text text-anchor="middle" x="329" y="-354" font-family="FreeSans" font-size="10.00" fill="#000000">type</text>
<text text-anchor="middle" x="329" y="-342" font-family="FreeSans" font-size="10.00" fill="#000000">name</text>
</g>
<!-- Node7 -->
<g id="node7" class="node">
<title>Node7</title>
<g id="a_node7"><a xlink:title="STL class.">
<polygon fill="none" stroke="#bfbfbf" points="53.5,-463.5 53.5,-495.5 160.5,-495.5 160.5,-463.5 53.5,-463.5"/>
<text text-anchor="start" x="61.5" y="-482.5" font-family="FreeSans" font-size="10.00" fill="#000000">std::basic_string&lt;</text>
<text text-anchor="middle" x="107" y="-470.5" font-family="FreeSans" font-size="10.00" fill="#000000"> char &gt;</text>
</a>
</g>
</g>
<!-- Node7&#45;&gt;Node6 -->
<g id="edge6" class="edge">
<title>Node7&#45;&gt;Node6</title>
<path fill="none" stroke="#191970" d="M107,-453.2639C107,-443.5394 107,-433.0805 107,-425.641"/>
<polygon fill="#191970" stroke="#191970" points="103.5001,-453.3501 107,-463.3501 110.5001,-453.3501 103.5001,-453.3501"/>
</g>
<!-- Node8 -->
<g id="node8" class="node">
<title>Node8</title>
<g id="a_node8"><a xlink:href="../../d5/dca/classPHCompositeNode.html" target="_top" xlink:title="PHCompositeNode">
<polygon fill="none" stroke="#000000" points="380,-150.5 380,-170.5 490,-170.5 490,-150.5 380,-150.5"/>
<text text-anchor="middle" x="435" y="-157.5" font-family="FreeSans" font-size="10.00" fill="#000000">PHCompositeNode</text>
</a>
</g>
</g>
<!-- Node8&#45;&gt;Node2 -->
<g id="edge9" class="edge">
<title>Node8&#45;&gt;Node2</title>
<path fill="none" stroke="#9a32cd" stroke-dasharray="5,2" d="M389.7273,-147.7351C337.4921,-133.0072 252.6679,-109.0906 204.8119,-95.5973"/>
<polygon fill="#9a32cd" stroke="#9a32cd" points="388.8275,-151.1178 399.4021,-150.463 390.7272,-144.3805 388.8275,-151.1178"/>
<text text-anchor="middle" x="365" y="-123" font-family="FreeSans" font-size="10.00" fill="#000000"> m_topNode</text>
</g>
<!-- Node9&#45;&gt;Node8 -->
<g id="edge10" class="edge">
<title>Node9&#45;&gt;Node8</title>
<path fill="none" stroke="#191970" d="M335.3938,-290.0752C337.3297,-273.1829 341.954,-249.1127 353,-231 369.2267,-204.3922 398.888,-182.6482 417.7381,-170.648"/>
<polygon fill="#191970" stroke="#191970" points="331.8691,-290.1829 334.4372,-300.4617 338.8396,-290.8249 331.8691,-290.1829"/>
</g>
<!-- Node9&#45;&gt;Node9 -->
<g id="edge11" class="edge">
<title>Node9&#45;&gt;Node9</title>
<path fill="none" stroke="#9a32cd" stroke-dasharray="5,2" d="M372.5533,-315.9491C377.0634,-314.9467 380,-313.1303 380,-310.5 380,-306.1836 372.0919,-304.0591 362.2994,-304.1266"/>
<polygon fill="#9a32cd" stroke="#9a32cd" points="371.9447,-312.4897 362.2994,-316.8734 372.5733,-319.4614 371.9447,-312.4897"/>
<text text-anchor="middle" x="399" y="-307.5" font-family="FreeSans" font-size="10.00" fill="#000000"> parent</text>
</g>
<!-- Node10 -->
<g id="node10" class="node">
<title>Node10</title>
<g id="a_node10"><a xlink:href="../../d6/d86/classPHPointerList.html" target="_top" xlink:title="PHPointerList\&lt; PHNode \&gt;">
<polygon fill="none" stroke="#000000" points="362.5,-231.5 362.5,-251.5 507.5,-251.5 507.5,-231.5 362.5,-231.5"/>
<text text-anchor="middle" x="435" y="-238.5" font-family="FreeSans" font-size="10.00" fill="#000000">PHPointerList&lt; PHNode &gt;</text>
</a>
</g>
</g>
<!-- Node9&#45;&gt;Node10 -->
<g id="edge14" class="edge">
<title>Node9&#45;&gt;Node10</title>
<path fill="none" stroke="#9a32cd" stroke-dasharray="5,2" d="M357.1778,-294.6657C376.4977,-281.4669 403.4509,-263.0534 420.036,-251.723"/>
<polygon fill="#9a32cd" stroke="#9a32cd" points="355.1856,-291.7878 348.9029,-300.3188 359.1344,-297.5678 355.1856,-291.7878"/>
<text text-anchor="middle" x="407" y="-273" font-family="FreeSans" font-size="10.00" fill="#000000"> items</text>
</g>
<!-- Node10&#45;&gt;Node8 -->
<g id="edge13" class="edge">
<title>Node10&#45;&gt;Node8</title>
<path fill="none" stroke="#9a32cd" stroke-dasharray="5,2" d="M435,-221.1972C435,-205.1048 435,-183.2944 435,-170.6754"/>
<polygon fill="#9a32cd" stroke="#9a32cd" points="431.5001,-221.2413 435,-231.2413 438.5001,-221.2413 431.5001,-221.2413"/>
<text text-anchor="middle" x="462" y="-198" font-family="FreeSans" font-size="10.00" fill="#000000"> subNodes</text>
</g>
<!-- Node11 -->
<g id="node11" class="node">
<title>Node11</title>
<polygon fill="none" stroke="#bfbfbf" points="362,-69.5 362,-101.5 506,-101.5 506,-69.5 362,-69.5"/>
<text text-anchor="start" x="370" y="-88.5" font-family="FreeSans" font-size="10.00" fill="#000000">std::vector&lt; G4VPhysical</text>
<text text-anchor="middle" x="434" y="-76.5" font-family="FreeSans" font-size="10.00" fill="#000000">Volume * &gt;</text>
</g>
<!-- Node11&#45;&gt;Node1 -->
<g id="edge16" class="edge">
<title>Node11&#45;&gt;Node1</title>
<path fill="none" stroke="#9a32cd" stroke-dasharray="5,2" d="M367.4002,-66.651C315.7506,-52.0332 246.1779,-32.3428 204.6273,-20.5832"/>
<polygon fill="#9a32cd" stroke="#9a32cd" points="366.5756,-70.055 377.1509,-69.4106 368.4819,-63.3196 366.5756,-70.055"/>
<text text-anchor="middle" x="345.5" y="-42" font-family="FreeSans" font-size="10.00" fill="#000000"> sandwich_vol</text>
</g>
<!-- Node12 -->
<g id="node12" class="node">
<title>Node12</title>
<g id="a_node12"><a xlink:href="../../d1/d28/classG4VPhysicalVolume.html" target="_top" xlink:title="Mockup class.">
<polygon fill="none" stroke="#000000" points="508,-150.5 508,-170.5 624,-170.5 624,-150.5 508,-150.5"/>
<text text-anchor="middle" x="566" y="-157.5" font-family="FreeSans" font-size="10.00" fill="#000000">G4VPhysicalVolume</text>
</a>
</g>
</g>
<!-- Node12&#45;&gt;Node11 -->
<g id="edge17" class="edge">
<title>Node12&#45;&gt;Node11</title>
<path fill="none" stroke="#9a32cd" stroke-dasharray="5,2" d="M539.2841,-145.3205C517.022,-132.6716 485.3854,-114.6962 462.6115,-101.7566"/>
<polygon fill="#9a32cd" stroke="#9a32cd" points="537.7743,-148.4881 548.1979,-150.3852 541.2324,-142.4019 537.7743,-148.4881"/>
<text text-anchor="middle" x="541.5" y="-123" font-family="FreeSans" font-size="10.00" fill="#000000"> elements</text>
</g>
</g>
</svg>
