<?xml version="1.0" encoding="UTF-8" standalone="no"?>
<!DOCTYPE svg PUBLIC "-//W3C//DTD SVG 1.1//EN"
 "http://www.w3.org/Graphics/SVG/1.1/DTD/svg11.dtd">
<!-- Generated by graphviz version 2.40.1 (20161225.0304)
 -->
<!-- Title: GlobalVertexMap::get Pages: 1 -->
<svg width="818pt" height="245pt"
 viewBox="0.00 0.00 818.00 245.00" xmlns="http://www.w3.org/2000/svg" xmlns:xlink="http://www.w3.org/1999/xlink">
<g id="graph0" class="graph" transform="scale(1 1) rotate(0) translate(4 241)">
<title>GlobalVertexMap::get</title>
<!-- Node1 -->
<g id="node1" class="node">
<title>Node1</title>
<polygon fill="#bfbfbf" stroke="#000000" points="0,-108.5 0,-128.5 126,-128.5 126,-108.5 0,-108.5"/>
<text text-anchor="middle" x="63" y="-115.5" font-family="FreeSans" font-size="10.00" fill="#000000">GlobalVertexMap::get</text>
</g>
<!-- Node2 -->
<g id="node2" class="node">
<title>Node2</title>
<g id="a_node2"><a xlink:href="../../d2/d93/classTrkrNtuplizer.html#a3ba752b46d320848413bf7ea09ee5dd5" target="_top" xlink:title="dump the evaluator information into ntuple for external analysis">
<polygon fill="none" stroke="#000000" points="173,-204.5 173,-236.5 309,-236.5 309,-204.5 173,-204.5"/>
<text text-anchor="start" x="181" y="-223.5" font-family="FreeSans" font-size="10.00" fill="#000000">TrkrNtuplizer::fillOutput</text>
<text text-anchor="middle" x="241" y="-211.5" font-family="FreeSans" font-size="10.00" fill="#000000">Ntuples</text>
</a>
</g>
</g>
<!-- Node1&#45;&gt;Node2 -->
<g id="edge1" class="edge">
<title>Node1&#45;&gt;Node2</title>
<path fill="none" stroke="#191970" d="M80.907,-135.6561C99.7514,-152.8935 130.9369,-179.1793 162,-195.5 168.3675,-198.8455 175.2612,-201.8378 182.2328,-204.4873"/>
<polygon fill="#191970" stroke="#191970" points="83.0963,-132.9122 73.3923,-128.6597 78.3263,-138.0355 83.0963,-132.9122"/>
</g>
<!-- Node4 -->
<g id="node4" class="node">
<title>Node4</title>
<g id="a_node4"><a xlink:href="../../de/dbf/classQAG4SimulationTracking.html#aee5b3b099aca8a6d0bfcc9d64fd9d29d" target="_top" xlink:title="QAG4SimulationTracking\l::get_dca">
<polygon fill="none" stroke="#000000" points="170.5,-153.5 170.5,-185.5 311.5,-185.5 311.5,-153.5 170.5,-153.5"/>
<text text-anchor="start" x="178.5" y="-172.5" font-family="FreeSans" font-size="10.00" fill="#000000">QAG4SimulationTracking</text>
<text text-anchor="middle" x="241" y="-160.5" font-family="FreeSans" font-size="10.00" fill="#000000">::get_dca</text>
</a>
</g>
</g>
<!-- Node1&#45;&gt;Node4 -->
<g id="edge3" class="edge">
<title>Node1&#45;&gt;Node4</title>
<path fill="none" stroke="#191970" d="M107.8262,-131.3435C131.2068,-138.0424 160.0364,-146.3026 184.8858,-153.4223"/>
<polygon fill="#191970" stroke="#191970" points="108.7443,-127.9658 98.1671,-128.576 106.8162,-134.695 108.7443,-127.9658"/>
</g>
<!-- Node6 -->
<g id="node6" class="node">
<title>Node6</title>
<g id="a_node6"><a xlink:href="../../dd/de6/classKFParticle__truthAndDetTools.html#a7f0c2cf7f6f316df1244cb1d518580a2" target="_top" xlink:title="KFParticle_truthAndDetTools\l::getVertex">
<polygon fill="none" stroke="#000000" points="162,-102.5 162,-134.5 320,-134.5 320,-102.5 162,-102.5"/>
<text text-anchor="start" x="170" y="-121.5" font-family="FreeSans" font-size="10.00" fill="#000000">KFParticle_truthAndDetTools</text>
<text text-anchor="middle" x="241" y="-109.5" font-family="FreeSans" font-size="10.00" fill="#000000">::getVertex</text>
</a>
</g>
</g>
<!-- Node1&#45;&gt;Node6 -->
<g id="edge5" class="edge">
<title>Node1&#45;&gt;Node6</title>
<path fill="none" stroke="#191970" d="M136.2075,-118.5C144.6679,-118.5 153.325,-118.5 161.8596,-118.5"/>
<polygon fill="#191970" stroke="#191970" points="136.0067,-115.0001 126.0066,-118.5 136.0066,-122.0001 136.0067,-115.0001"/>
</g>
<!-- Node10 -->
<g id="node10" class="node">
<title>Node10</title>
<g id="a_node10"><a xlink:href="../../d6/dee/classJetBkgdSub.html#ac92165b93db14b04e817db8597cadddf" target="_top" xlink:title="JetBkgdSub::process\l_event">
<polygon fill="none" stroke="#000000" points="180.5,-51.5 180.5,-83.5 301.5,-83.5 301.5,-51.5 180.5,-51.5"/>
<text text-anchor="start" x="188.5" y="-70.5" font-family="FreeSans" font-size="10.00" fill="#000000">JetBkgdSub::process</text>
<text text-anchor="middle" x="241" y="-58.5" font-family="FreeSans" font-size="10.00" fill="#000000">_event</text>
</a>
</g>
</g>
<!-- Node1&#45;&gt;Node10 -->
<g id="edge9" class="edge">
<title>Node1&#45;&gt;Node10</title>
<path fill="none" stroke="#191970" d="M107.8262,-105.6565C131.2068,-98.9576 160.0364,-90.6974 184.8858,-83.5777"/>
<polygon fill="#191970" stroke="#191970" points="106.8162,-102.305 98.1671,-108.424 108.7443,-109.0342 106.8162,-102.305"/>
</g>
<!-- Node11 -->
<g id="node11" class="node">
<title>Node11</title>
<g id="a_node11"><a xlink:href="../../dc/d00/classPairMaker.html#ac4dbcbf8460f299fb192dc174790235b" target="_top" xlink:title="PairMaker::process\l_event_test">
<polygon fill="none" stroke="#000000" points="185.5,-.5 185.5,-32.5 296.5,-32.5 296.5,-.5 185.5,-.5"/>
<text text-anchor="start" x="193.5" y="-19.5" font-family="FreeSans" font-size="10.00" fill="#000000">PairMaker::process</text>
<text text-anchor="middle" x="241" y="-7.5" font-family="FreeSans" font-size="10.00" fill="#000000">_event_test</text>
</a>
</g>
</g>
<!-- Node1&#45;&gt;Node11 -->
<g id="edge10" class="edge">
<title>Node1&#45;&gt;Node11</title>
<path fill="none" stroke="#191970" d="M80.907,-101.3439C99.7514,-84.1065 130.9369,-57.8207 162,-41.5 169.2589,-37.6861 177.2018,-34.3313 185.1643,-31.42"/>
<polygon fill="#191970" stroke="#191970" points="78.3263,-98.9645 73.3923,-108.3403 83.0963,-104.0878 78.3263,-98.9645"/>
</g>
<!-- Node3 -->
<g id="node3" class="node">
<title>Node3</title>
<g id="a_node3"><a xlink:href="../../d2/d93/classTrkrNtuplizer.html#a399e3058749ac563592644df77083a33" target="_top" xlink:title="TrkrNtuplizer::process\l_event">
<polygon fill="none" stroke="#000000" points="371.5,-204.5 371.5,-236.5 498.5,-236.5 498.5,-204.5 371.5,-204.5"/>
<text text-anchor="start" x="379.5" y="-223.5" font-family="FreeSans" font-size="10.00" fill="#000000">TrkrNtuplizer::process</text>
<text text-anchor="middle" x="435" y="-211.5" font-family="FreeSans" font-size="10.00" fill="#000000">_event</text>
</a>
</g>
</g>
<!-- Node2&#45;&gt;Node3 -->
<g id="edge2" class="edge">
<title>Node2&#45;&gt;Node3</title>
<path fill="none" stroke="#191970" d="M319.1964,-220.5C336.4956,-220.5 354.6244,-220.5 371.2667,-220.5"/>
<polygon fill="#191970" stroke="#191970" points="319.1244,-217.0001 309.1244,-220.5 319.1243,-224.0001 319.1244,-217.0001"/>
</g>
<!-- Node5 -->
<g id="node5" class="node">
<title>Node5</title>
<g id="a_node5"><a xlink:href="../../de/dbf/classQAG4SimulationTracking.html#ac2aeab5238fcf828f70c61b4976b57fe" target="_top" xlink:title="QAG4SimulationTracking\l::process_event">
<polygon fill="none" stroke="#000000" points="364.5,-153.5 364.5,-185.5 505.5,-185.5 505.5,-153.5 364.5,-153.5"/>
<text text-anchor="start" x="372.5" y="-172.5" font-family="FreeSans" font-size="10.00" fill="#000000">QAG4SimulationTracking</text>
<text text-anchor="middle" x="435" y="-160.5" font-family="FreeSans" font-size="10.00" fill="#000000">::process_event</text>
</a>
</g>
</g>
<!-- Node4&#45;&gt;Node5 -->
<g id="edge4" class="edge">
<title>Node4&#45;&gt;Node5</title>
<path fill="none" stroke="#191970" d="M321.8002,-169.5C335.9659,-169.5 350.6059,-169.5 364.4653,-169.5"/>
<polygon fill="#191970" stroke="#191970" points="321.5873,-166.0001 311.5872,-169.5 321.5872,-173.0001 321.5873,-166.0001"/>
</g>
<!-- Node7 -->
<g id="node7" class="node">
<title>Node7</title>
<g id="a_node7"><a xlink:href="../../dd/de6/classKFParticle__truthAndDetTools.html#a8fd937b408a964f4403e263697d59eb3" target="_top" xlink:title="KFParticle_truthAndDetTools\l::fillTruthBranch">
<polygon fill="none" stroke="#000000" points="356,-102.5 356,-134.5 514,-134.5 514,-102.5 356,-102.5"/>
<text text-anchor="start" x="364" y="-121.5" font-family="FreeSans" font-size="10.00" fill="#000000">KFParticle_truthAndDetTools</text>
<text text-anchor="middle" x="435" y="-109.5" font-family="FreeSans" font-size="10.00" fill="#000000">::fillTruthBranch</text>
</a>
</g>
</g>
<!-- Node6&#45;&gt;Node7 -->
<g id="edge6" class="edge">
<title>Node6&#45;&gt;Node7</title>
<path fill="none" stroke="#191970" d="M330.4359,-118.5C338.8837,-118.5 347.4084,-118.5 355.7517,-118.5"/>
<polygon fill="#191970" stroke="#191970" points="330.1871,-115.0001 320.187,-118.5 330.187,-122.0001 330.1871,-115.0001"/>
</g>
<!-- Node8 -->
<g id="node8" class="node">
<title>Node8</title>
<g id="a_node8"><a xlink:href="../../d9/dae/classKFParticle__nTuple.html#a4b3e5fc3f34c40ce4d53656fc7ea58c7" target="_top" xlink:title="Fills required information for your selection, also requests truth and detector information if needed...">
<polygon fill="none" stroke="#000000" points="550,-102.5 550,-134.5 660,-134.5 660,-102.5 550,-102.5"/>
<text text-anchor="start" x="558" y="-121.5" font-family="FreeSans" font-size="10.00" fill="#000000">KFParticle_nTuple::</text>
<text text-anchor="middle" x="605" y="-109.5" font-family="FreeSans" font-size="10.00" fill="#000000">fillBranch</text>
</a>
</g>
</g>
<!-- Node7&#45;&gt;Node8 -->
<g id="edge7" class="edge">
<title>Node7&#45;&gt;Node8</title>
<path fill="none" stroke="#191970" d="M524.2867,-118.5C533.021,-118.5 541.6948,-118.5 549.938,-118.5"/>
<polygon fill="#191970" stroke="#191970" points="524.0278,-115.0001 514.0278,-118.5 524.0278,-122.0001 524.0278,-115.0001"/>
</g>
<!-- Node9 -->
<g id="node9" class="node">
<title>Node9</title>
<g id="a_node9"><a xlink:href="../../d5/d72/classKFParticle__sPHENIX.html#aac7b97c325669f73559f04881cffae58" target="_top" xlink:title="KFParticle_sPHENIX\l::process_event">
<polygon fill="none" stroke="#000000" points="696,-102.5 696,-134.5 810,-134.5 810,-102.5 696,-102.5"/>
<text text-anchor="start" x="704" y="-121.5" font-family="FreeSans" font-size="10.00" fill="#000000">KFParticle_sPHENIX</text>
<text text-anchor="middle" x="753" y="-109.5" font-family="FreeSans" font-size="10.00" fill="#000000">::process_event</text>
</a>
</g>
</g>
<!-- Node8&#45;&gt;Node9 -->
<g id="edge8" class="edge">
<title>Node8&#45;&gt;Node9</title>
<path fill="none" stroke="#191970" d="M670.3677,-118.5C678.8651,-118.5 687.5165,-118.5 695.8654,-118.5"/>
<polygon fill="#191970" stroke="#191970" points="670.1098,-115.0001 660.1097,-118.5 670.1097,-122.0001 670.1098,-115.0001"/>
</g>
<!-- Node12 -->
<g id="node12" class="node">
<title>Node12</title>
<g id="a_node12"><a xlink:href="../../dc/d00/classPairMaker.html#a733df0bfd06f87ad288582ca0132ca0b" target="_top" xlink:title="PairMaker::process\l_event">
<polygon fill="none" stroke="#000000" points="379.5,-.5 379.5,-32.5 490.5,-32.5 490.5,-.5 379.5,-.5"/>
<text text-anchor="start" x="387.5" y="-19.5" font-family="FreeSans" font-size="10.00" fill="#000000">PairMaker::process</text>
<text text-anchor="middle" x="435" y="-7.5" font-family="FreeSans" font-size="10.00" fill="#000000">_event</text>
</a>
</g>
</g>
<!-- Node11&#45;&gt;Node12 -->
<g id="edge11" class="edge">
<title>Node11&#45;&gt;Node12</title>
<path fill="none" stroke="#191970" d="M306.8603,-16.5C330.4421,-16.5 356.7707,-16.5 379.3993,-16.5"/>
<polygon fill="#191970" stroke="#191970" points="306.5926,-13.0001 296.5926,-16.5 306.5926,-20.0001 306.5926,-13.0001"/>
</g>
</g>
</svg>
