<?xml version="1.0" encoding="UTF-8" standalone="no"?>
<!DOCTYPE svg PUBLIC "-//W3C//DTD SVG 1.1//EN"
 "http://www.w3.org/Graphics/SVG/1.1/DTD/svg11.dtd">
<!-- Generated by graphviz version 2.40.1 (20161225.0304)
 -->
<!-- Title: SvtxTrack_v4::clear_states Pages: 1 -->
<svg width="514pt" height="87pt"
 viewBox="0.00 0.00 514.00 87.00" xmlns="http://www.w3.org/2000/svg" xmlns:xlink="http://www.w3.org/1999/xlink">
<g id="graph0" class="graph" transform="scale(1 1) rotate(0) translate(4 83)">
<title>SvtxTrack_v4::clear_states</title>
<!-- Node1 -->
<g id="node1" class="node">
<title>Node1</title>
<polygon fill="#bfbfbf" stroke="#000000" points="0,-13.5 0,-45.5 115,-45.5 115,-13.5 0,-13.5"/>
<text text-anchor="start" x="8" y="-32.5" font-family="FreeSans" font-size="10.00" fill="#000000">SvtxTrack_v4::clear</text>
<text text-anchor="middle" x="57.5" y="-20.5" font-family="FreeSans" font-size="10.00" fill="#000000">_states</text>
</g>
<!-- Node2 -->
<g id="node2" class="node">
<title>Node2</title>
<g id="a_node2"><a xlink:href="../../d2/db9/classSvtxTrack__v4.html#a8761cb89ae4e2bb70ee2d97d012e7f2e" target="_top" xlink:title="copy content from base class">
<polygon fill="none" stroke="#000000" points="163,-39.5 163,-59.5 303,-59.5 303,-39.5 163,-39.5"/>
<text text-anchor="middle" x="233" y="-46.5" font-family="FreeSans" font-size="10.00" fill="#000000">SvtxTrack_v4::CopyFrom</text>
</a>
</g>
</g>
<!-- Node1&#45;&gt;Node2 -->
<g id="edge1" class="edge">
<title>Node1&#45;&gt;Node2</title>
<path fill="none" stroke="#191970" d="M125.5822,-37.2587C137.8198,-38.6532 150.5953,-40.1091 162.889,-41.5101"/>
<polygon fill="#191970" stroke="#191970" points="125.7837,-33.759 115.4516,-36.1042 124.991,-40.714 125.7837,-33.759"/>
</g>
<!-- Node5 -->
<g id="node5" class="node">
<title>Node5</title>
<g id="a_node5"><a xlink:href="../../d2/db9/classSvtxTrack__v4.html#a862339c4282ade59df050e48c687c594" target="_top" xlink:title="SvtxTrack_v4::~SvtxTrack_v4">
<polygon fill="none" stroke="#000000" points="151,-.5 151,-20.5 315,-20.5 315,-.5 151,-.5"/>
<text text-anchor="middle" x="233" y="-7.5" font-family="FreeSans" font-size="10.00" fill="#000000">SvtxTrack_v4::~SvtxTrack_v4</text>
</a>
</g>
</g>
<!-- Node1&#45;&gt;Node5 -->
<g id="edge4" class="edge">
<title>Node1&#45;&gt;Node5</title>
<path fill="none" stroke="#191970" d="M125.4905,-22.1392C133.8407,-21.2352 142.4428,-20.3039 150.9724,-19.3805"/>
<polygon fill="#191970" stroke="#191970" points="125.0168,-18.6699 115.4516,-23.226 125.7703,-25.6293 125.0168,-18.6699"/>
</g>
<!-- Node3 -->
<g id="node3" class="node">
<title>Node3</title>
<g id="a_node3"><a xlink:href="../../d2/db9/classSvtxTrack__v4.html#a5c2e5d70860426d86ceab8d20c5f24cf" target="_top" xlink:title="SvtxTrack_v4::SvtxTrack_v4">
<polygon fill="none" stroke="#000000" points="351,-58.5 351,-78.5 506,-78.5 506,-58.5 351,-58.5"/>
<text text-anchor="middle" x="428.5" y="-65.5" font-family="FreeSans" font-size="10.00" fill="#000000">SvtxTrack_v4::SvtxTrack_v4</text>
</a>
</g>
</g>
<!-- Node2&#45;&gt;Node3 -->
<g id="edge2" class="edge">
<title>Node2&#45;&gt;Node3</title>
<path fill="none" stroke="#191970" d="M313.2924,-57.3033C325.6412,-58.5035 338.3742,-59.741 350.6682,-60.9358"/>
<polygon fill="#191970" stroke="#191970" points="313.3195,-53.7896 303.0278,-56.3058 312.6423,-60.7568 313.3195,-53.7896"/>
</g>
<!-- Node4 -->
<g id="node4" class="node">
<title>Node4</title>
<g id="a_node4"><a xlink:href="../../d2/db9/classSvtxTrack__v4.html#a0987f05251adb754360a7f62f559be15" target="_top" xlink:title="SvtxTrack_v4::operator=">
<polygon fill="none" stroke="#000000" points="358.5,-19.5 358.5,-39.5 498.5,-39.5 498.5,-19.5 358.5,-19.5"/>
<text text-anchor="middle" x="428.5" y="-26.5" font-family="FreeSans" font-size="10.00" fill="#000000">SvtxTrack_v4::operator=</text>
</a>
</g>
</g>
<!-- Node2&#45;&gt;Node4 -->
<g id="edge3" class="edge">
<title>Node2&#45;&gt;Node4</title>
<path fill="none" stroke="#191970" d="M313.2608,-41.2892C328.1977,-39.7611 343.6978,-38.1754 358.3041,-36.6812"/>
<polygon fill="#191970" stroke="#191970" points="312.6196,-37.8364 303.0278,-42.336 313.3321,-44.8001 312.6196,-37.8364"/>
</g>
</g>
</svg>
