<?xml version="1.0" encoding="UTF-8" standalone="no"?>
<!DOCTYPE svg PUBLIC "-//W3C//DTD SVG 1.1//EN"
 "http://www.w3.org/Graphics/SVG/1.1/DTD/svg11.dtd">
<!-- Generated by graphviz version 2.40.1 (20161225.0304)
 -->
<!-- Title: FastJetAlgo::jets_to_pseudojets Pages: 1 -->
<svg width="439pt" height="41pt"
 viewBox="0.00 0.00 439.00 41.00" xmlns="http://www.w3.org/2000/svg" xmlns:xlink="http://www.w3.org/1999/xlink">
<g id="graph0" class="graph" transform="scale(1 1) rotate(0) translate(4 37)">
<title>FastJetAlgo::jets_to_pseudojets</title>
<!-- Node1 -->
<g id="node1" class="node">
<title>Node1</title>
<polygon fill="#bfbfbf" stroke="#000000" points="0,-.5 0,-32.5 112,-32.5 112,-.5 0,-.5"/>
<text text-anchor="start" x="8" y="-19.5" font-family="FreeSans" font-size="10.00" fill="#000000">FastJetAlgo::jets_to</text>
<text text-anchor="middle" x="56" y="-7.5" font-family="FreeSans" font-size="10.00" fill="#000000">_pseudojets</text>
</g>
<!-- Node2 -->
<g id="node2" class="node">
<title>Node2</title>
<g id="a_node2"><a xlink:href="../../df/d87/classFastJetAlgo.html#a7616ba9d85c8d817f0fa9e3da4c8ea8c" target="_top" xlink:title="FastJetAlgo::cluster\l_and_fill">
<polygon fill="none" stroke="#000000" points="148,-.5 148,-32.5 261,-32.5 261,-.5 148,-.5"/>
<text text-anchor="start" x="156" y="-19.5" font-family="FreeSans" font-size="10.00" fill="#000000">FastJetAlgo::cluster</text>
<text text-anchor="middle" x="204.5" y="-7.5" font-family="FreeSans" font-size="10.00" fill="#000000">_and_fill</text>
</a>
</g>
</g>
<!-- Node1&#45;&gt;Node2 -->
<g id="edge1" class="edge">
<title>Node1&#45;&gt;Node2</title>
<path fill="none" stroke="#191970" d="M122.3845,-16.5C130.8629,-16.5 139.4796,-16.5 147.7858,-16.5"/>
<polygon fill="#191970" stroke="#191970" points="122.1415,-13.0001 112.1415,-16.5 122.1414,-20.0001 122.1415,-13.0001"/>
</g>
<!-- Node3 -->
<g id="node3" class="node">
<title>Node3</title>
<g id="a_node3"><a xlink:href="../../df/d87/classFastJetAlgo.html#a189331aad33a542213a789385663714a" target="_top" xlink:title="FastJetAlgo::FastJetAlgo">
<polygon fill="none" stroke="#000000" points="297,-6.5 297,-26.5 431,-26.5 431,-6.5 297,-6.5"/>
<text text-anchor="middle" x="364" y="-13.5" font-family="FreeSans" font-size="10.00" fill="#000000">FastJetAlgo::FastJetAlgo</text>
</a>
</g>
</g>
<!-- Node2&#45;&gt;Node3 -->
<g id="edge2" class="edge">
<title>Node2&#45;&gt;Node3</title>
<path fill="none" stroke="#191970" d="M271.3503,-16.5C279.7878,-16.5 288.4231,-16.5 296.865,-16.5"/>
<polygon fill="#191970" stroke="#191970" points="271.1829,-13.0001 261.1828,-16.5 271.1828,-20.0001 271.1829,-13.0001"/>
</g>
</g>
</svg>
