<?xml version="1.0" encoding="UTF-8" standalone="no"?>
<!DOCTYPE svg PUBLIC "-//W3C//DTD SVG 1.1//EN"
 "http://www.w3.org/Graphics/SVG/1.1/DTD/svg11.dtd">
<!-- Generated by graphviz version 2.40.1 (20161225.0304)
 -->
<!-- Title: TDirectoryHelper::mkdir Pages: 1 -->
<svg width="866pt" height="945pt"
 viewBox="0.00 0.00 866.00 945.00" xmlns="http://www.w3.org/2000/svg" xmlns:xlink="http://www.w3.org/1999/xlink">
<g id="graph0" class="graph" transform="scale(1 1) rotate(0) translate(4 941)">
<title>TDirectoryHelper::mkdir</title>
<!-- Node1 -->
<g id="node1" class="node">
<title>Node1</title>
<polygon fill="#bfbfbf" stroke="#000000" points="0,-526.5 0,-546.5 139,-546.5 139,-526.5 0,-526.5"/>
<text text-anchor="middle" x="69.5" y="-533.5" font-family="FreeSans" font-size="10.00" fill="#000000">TDirectoryHelper::mkdir</text>
</g>
<!-- Node2 -->
<g id="node2" class="node">
<title>Node2</title>
<g id="a_node2"><a xlink:href="../../d3/d96/classFun4AllHistoManager.html#a61c2043c62739de451de3f9287832a08" target="_top" xlink:title="Fun4AllHistoManager\l::dumpHistos">
<polygon fill="none" stroke="#000000" points="175,-520.5 175,-552.5 299,-552.5 299,-520.5 175,-520.5"/>
<text text-anchor="start" x="183" y="-539.5" font-family="FreeSans" font-size="10.00" fill="#000000">Fun4AllHistoManager</text>
<text text-anchor="middle" x="237" y="-527.5" font-family="FreeSans" font-size="10.00" fill="#000000">::dumpHistos</text>
</a>
</g>
</g>
<!-- Node1&#45;&gt;Node2 -->
<g id="edge1" class="edge">
<title>Node1&#45;&gt;Node2</title>
<path fill="none" stroke="#191970" d="M149.1614,-536.5C157.7908,-536.5 166.4782,-536.5 174.8561,-536.5"/>
<polygon fill="#191970" stroke="#191970" points="149.08,-533.0001 139.0799,-536.5 149.0799,-540.0001 149.08,-533.0001"/>
</g>
<!-- Node3 -->
<g id="node3" class="node">
<title>Node3</title>
<g id="a_node3"><a xlink:href="../../d9/d2f/classG4RawTowerTTree.html#ae4aed91bf1fb8c4ea26bc52e5c85d627" target="_top" xlink:title="Called at the end of all processing.">
<polygon fill="none" stroke="#000000" points="366.5,-916.5 366.5,-936.5 500.5,-936.5 500.5,-916.5 366.5,-916.5"/>
<text text-anchor="middle" x="433.5" y="-923.5" font-family="FreeSans" font-size="10.00" fill="#000000">G4RawTowerTTree::End</text>
</a>
</g>
</g>
<!-- Node2&#45;&gt;Node3 -->
<g id="edge2" class="edge">
<title>Node2&#45;&gt;Node3</title>
<path fill="none" stroke="#191970" d="M240.3115,-562.8027C250.4853,-639.3477 283.7364,-859.5945 335,-907.5 343.7164,-915.6454 354.8205,-920.7921 366.4106,-923.9617"/>
<polygon fill="#191970" stroke="#191970" points="243.7434,-562.0524 238.9785,-552.5895 236.8022,-562.9584 243.7434,-562.0524"/>
</g>
<!-- Node4 -->
<g id="node4" class="node">
<title>Node4</title>
<g id="a_node4"><a xlink:href="../../db/d3d/classG4ScintillatorTowerTTree.html#a8f170293d71b7d7db87147ce3f9fbbdd" target="_top" xlink:title="Called at the end of all processing.">
<polygon fill="none" stroke="#000000" points="350,-877.5 350,-897.5 517,-897.5 517,-877.5 350,-877.5"/>
<text text-anchor="middle" x="433.5" y="-884.5" font-family="FreeSans" font-size="10.00" fill="#000000">G4ScintillatorTowerTTree::End</text>
</a>
</g>
</g>
<!-- Node2&#45;&gt;Node4 -->
<g id="edge3" class="edge">
<title>Node2&#45;&gt;Node4</title>
<path fill="none" stroke="#191970" d="M241.184,-562.8315C252.9933,-633.7979 288.7521,-826.5118 335,-868.5 339.3841,-872.4803 344.3411,-875.7385 349.6416,-878.3961"/>
<polygon fill="#191970" stroke="#191970" points="244.5669,-561.8316 239.4964,-552.5289 237.659,-562.9632 244.5669,-561.8316"/>
</g>
<!-- Node5 -->
<g id="node5" class="node">
<title>Node5</title>
<g id="a_node5"><a xlink:href="../../de/d31/classG4ScintillatorSlatTTree.html#a80b04f241dc50549f1d7289feabe7510" target="_top" xlink:title="Called at the end of all processing.">
<polygon fill="none" stroke="#000000" points="355,-838.5 355,-858.5 512,-858.5 512,-838.5 355,-838.5"/>
<text text-anchor="middle" x="433.5" y="-845.5" font-family="FreeSans" font-size="10.00" fill="#000000">G4ScintillatorSlatTTree::End</text>
</a>
</g>
</g>
<!-- Node2&#45;&gt;Node5 -->
<g id="edge4" class="edge">
<title>Node2&#45;&gt;Node5</title>
<path fill="none" stroke="#191970" d="M242.1778,-562.3611C255.6476,-627.0465 293.624,-793.2625 335,-829.5 340.7647,-834.5488 347.4576,-838.4233 354.5893,-841.3781"/>
<polygon fill="#191970" stroke="#191970" points="245.6013,-561.6325 240.1597,-552.5419 238.7446,-563.0418 245.6013,-561.6325"/>
</g>
<!-- Node6 -->
<g id="node6" class="node">
<title>Node6</title>
<g id="a_node6"><a xlink:href="../../d2/d1c/classG4HitTTree.html#ace025522ad4d00facae61bf44d03e53b" target="_top" xlink:title="Called at the end of all processing.">
<polygon fill="none" stroke="#000000" points="384.5,-799.5 384.5,-819.5 482.5,-819.5 482.5,-799.5 384.5,-799.5"/>
<text text-anchor="middle" x="433.5" y="-806.5" font-family="FreeSans" font-size="10.00" fill="#000000">G4HitTTree::End</text>
</a>
</g>
</g>
<!-- Node2&#45;&gt;Node6 -->
<g id="edge5" class="edge">
<title>Node2&#45;&gt;Node6</title>
<path fill="none" stroke="#191970" d="M238.9887,-562.7226C244.4224,-614.7999 264.2584,-731.3299 335,-790.5 348.6929,-801.9531 367.2116,-807.2807 384.4965,-809.5519"/>
<polygon fill="#191970" stroke="#191970" points="242.4604,-562.2581 238.0346,-552.6319 235.4915,-562.917 242.4604,-562.2581"/>
</g>
<!-- Node7 -->
<g id="node7" class="node">
<title>Node7</title>
<g id="a_node7"><a xlink:href="../../dd/d0c/classCaloAna.html#a2dfde85ee58d7d8543b74d0ce426e309" target="_top" xlink:title="end of run method">
<polygon fill="none" stroke="#000000" points="391.5,-760.5 391.5,-780.5 475.5,-780.5 475.5,-760.5 391.5,-760.5"/>
<text text-anchor="middle" x="433.5" y="-767.5" font-family="FreeSans" font-size="10.00" fill="#000000">CaloAna::End</text>
</a>
</g>
</g>
<!-- Node2&#45;&gt;Node7 -->
<g id="edge6" class="edge">
<title>Node2&#45;&gt;Node7</title>
<path fill="none" stroke="#191970" d="M240.9993,-562.5461C249.4936,-608.4276 273.8252,-703.3484 335,-751.5 350.7379,-763.8876 372.2133,-768.9798 391.0956,-770.8314"/>
<polygon fill="#191970" stroke="#191970" points="244.4147,-561.7575 239.2509,-552.5062 237.5185,-562.9585 244.4147,-561.7575"/>
</g>
<!-- Node8 -->
<g id="node8" class="node">
<title>Node8</title>
<g id="a_node8"><a xlink:href="../../de/d86/classG4VtxNtuple.html#a479363c6740d67f8e67f2f7d1f8b81c0" target="_top" xlink:title="end of run method">
<polygon fill="none" stroke="#000000" points="380.5,-721.5 380.5,-741.5 486.5,-741.5 486.5,-721.5 380.5,-721.5"/>
<text text-anchor="middle" x="433.5" y="-728.5" font-family="FreeSans" font-size="10.00" fill="#000000">G4VtxNtuple::End</text>
</a>
</g>
</g>
<!-- Node2&#45;&gt;Node8 -->
<g id="edge7" class="edge">
<title>Node2&#45;&gt;Node8</title>
<path fill="none" stroke="#191970" d="M243.8523,-562.5742C255.5735,-601.7333 283.3614,-675.1143 335,-712.5 348.0489,-721.9472 364.5279,-727.0479 380.2546,-729.7098"/>
<polygon fill="#191970" stroke="#191970" points="247.1478,-561.3687 241.0275,-552.7205 240.4188,-563.2978 247.1478,-561.3687"/>
</g>
<!-- Node9 -->
<g id="node9" class="node">
<title>Node9</title>
<g id="a_node9"><a xlink:href="../../d7/d71/classG4EdepNtuple.html#afb50ac55fc093a20c6d7a0432ea1725a" target="_top" xlink:title="end of run method">
<polygon fill="none" stroke="#000000" points="376,-682.5 376,-702.5 491,-702.5 491,-682.5 376,-682.5"/>
<text text-anchor="middle" x="433.5" y="-689.5" font-family="FreeSans" font-size="10.00" fill="#000000">G4EdepNtuple::End</text>
</a>
</g>
</g>
<!-- Node2&#45;&gt;Node9 -->
<g id="edge8" class="edge">
<title>Node2&#45;&gt;Node9</title>
<path fill="none" stroke="#191970" d="M247.9631,-562.11C262.8549,-593.6254 292.5733,-646.2935 335,-673.5 347.095,-681.256 361.6241,-685.9862 375.7623,-688.8355"/>
<polygon fill="#191970" stroke="#191970" points="250.993,-560.3193 243.6518,-552.6801 244.6268,-563.23 250.993,-560.3193"/>
</g>
<!-- Node10 -->
<g id="node10" class="node">
<title>Node10</title>
<g id="a_node10"><a xlink:href="../../d1/ddd/classG4SnglNtuple.html#ade0a5677fd83ab2c5cb1d410e6786da1" target="_top" xlink:title="end of run method">
<polygon fill="none" stroke="#000000" points="377.5,-643.5 377.5,-663.5 489.5,-663.5 489.5,-643.5 377.5,-643.5"/>
<text text-anchor="middle" x="433.5" y="-650.5" font-family="FreeSans" font-size="10.00" fill="#000000">G4SnglNtuple::End</text>
</a>
</g>
</g>
<!-- Node2&#45;&gt;Node10 -->
<g id="edge9" class="edge">
<title>Node2&#45;&gt;Node10</title>
<path fill="none" stroke="#191970" d="M254.381,-560.8239C272.0216,-583.5923 301.4552,-616.6948 335,-634.5 347.9219,-641.3588 362.9689,-645.7622 377.3552,-648.583"/>
<polygon fill="#191970" stroke="#191970" points="257.0331,-558.5279 248.2135,-552.657 251.447,-562.7464 257.0331,-558.5279"/>
</g>
<!-- Node11 -->
<g id="node11" class="node">
<title>Node11</title>
<g id="a_node11"><a xlink:href="../../d0/d39/classG4CellNtuple.html#aaa9fc79fc06ce7a03f18deb9d1f765fa" target="_top" xlink:title="end of run method">
<polygon fill="none" stroke="#000000" points="379,-604.5 379,-624.5 488,-624.5 488,-604.5 379,-604.5"/>
<text text-anchor="middle" x="433.5" y="-611.5" font-family="FreeSans" font-size="10.00" fill="#000000">G4CellNtuple::End</text>
</a>
</g>
</g>
<!-- Node2&#45;&gt;Node11 -->
<g id="edge10" class="edge">
<title>Node2&#45;&gt;Node11</title>
<path fill="none" stroke="#191970" d="M267.1805,-558.4865C285.8639,-571.1023 310.8291,-586.2295 335,-595.5 348.8218,-600.8012 364.3242,-604.6767 378.8673,-607.4889"/>
<polygon fill="#191970" stroke="#191970" points="269.0248,-555.5069 258.8045,-552.7148 265.0529,-561.271 269.0248,-555.5069"/>
</g>
<!-- Node12 -->
<g id="node12" class="node">
<title>Node12</title>
<g id="a_node12"><a xlink:href="../../d4/db8/classG4HitNtuple.html#a0e81761f65bbfc0cd4e716d040f1a604" target="_top" xlink:title="end of run method">
<polygon fill="none" stroke="#000000" points="381.5,-565.5 381.5,-585.5 485.5,-585.5 485.5,-565.5 381.5,-565.5"/>
<text text-anchor="middle" x="433.5" y="-572.5" font-family="FreeSans" font-size="10.00" fill="#000000">G4HitNtuple::End</text>
</a>
</g>
</g>
<!-- Node2&#45;&gt;Node12 -->
<g id="edge11" class="edge">
<title>Node2&#45;&gt;Node12</title>
<path fill="none" stroke="#191970" d="M309.0173,-551.2895C317.7679,-553.0593 326.585,-554.8298 335,-556.5 350.0328,-559.4837 366.3697,-562.6613 381.3378,-565.5468"/>
<polygon fill="#191970" stroke="#191970" points="309.6871,-547.8541 299.191,-549.297 308.296,-554.7145 309.6871,-547.8541"/>
</g>
<!-- Node13 -->
<g id="node13" class="node">
<title>Node13</title>
<g id="a_node13"><a xlink:href="../../dc/d81/classG4TowerNtuple.html#a586f5539301558936fe45bcf26566199" target="_top" xlink:title="end of run method">
<polygon fill="none" stroke="#000000" points="374,-526.5 374,-546.5 493,-546.5 493,-526.5 374,-526.5"/>
<text text-anchor="middle" x="433.5" y="-533.5" font-family="FreeSans" font-size="10.00" fill="#000000">G4TowerNtuple::End</text>
</a>
</g>
</g>
<!-- Node2&#45;&gt;Node13 -->
<g id="edge12" class="edge">
<title>Node2&#45;&gt;Node13</title>
<path fill="none" stroke="#191970" d="M309.4063,-536.5C330.5705,-536.5 353.4571,-536.5 373.7432,-536.5"/>
<polygon fill="#191970" stroke="#191970" points="309.1739,-533.0001 299.1738,-536.5 309.1738,-540.0001 309.1739,-533.0001"/>
</g>
<!-- Node14 -->
<g id="node14" class="node">
<title>Node14</title>
<g id="a_node14"><a xlink:href="../../d8/d5c/classEdepNtuple.html#a3847388b5ca20643b45241e17e976741" target="_top" xlink:title="end of run method">
<polygon fill="none" stroke="#000000" points="383,-487.5 383,-507.5 484,-507.5 484,-487.5 383,-487.5"/>
<text text-anchor="middle" x="433.5" y="-494.5" font-family="FreeSans" font-size="10.00" fill="#000000">EdepNtuple::End</text>
</a>
</g>
</g>
<!-- Node2&#45;&gt;Node14 -->
<g id="edge13" class="edge">
<title>Node2&#45;&gt;Node14</title>
<path fill="none" stroke="#191970" d="M309.145,-522.1812C333.6326,-517.321 360.4528,-511.9979 382.8964,-507.5435"/>
<polygon fill="#191970" stroke="#191970" points="308.3011,-518.7803 299.1738,-524.1602 309.6639,-525.6464 308.3011,-518.7803"/>
</g>
<!-- Node15 -->
<g id="node15" class="node">
<title>Node15</title>
<g id="a_node15"><a xlink:href="../../df/d1c/classTowerTiming.html#a9aa3a111f63d8f4a217cce5424905548" target="_top" xlink:title="end of run method">
<polygon fill="none" stroke="#000000" points="380,-448.5 380,-468.5 487,-468.5 487,-448.5 380,-448.5"/>
<text text-anchor="middle" x="433.5" y="-455.5" font-family="FreeSans" font-size="10.00" fill="#000000">TowerTiming::End</text>
</a>
</g>
</g>
<!-- Node2&#45;&gt;Node15 -->
<g id="edge14" class="edge">
<title>Node2&#45;&gt;Node15</title>
<path fill="none" stroke="#191970" d="M267.6389,-514.7432C286.3111,-502.4275 311.1071,-487.6947 335,-478.5 349.1683,-473.0476 365.0827,-468.9913 379.9201,-466.0119"/>
<polygon fill="#191970" stroke="#191970" points="265.6007,-511.896 259.2562,-520.3811 269.5074,-517.7045 265.6007,-511.896"/>
</g>
<!-- Node16 -->
<g id="node16" class="node">
<title>Node16</title>
<g id="a_node16"><a xlink:href="../../df/d62/classShowerSize.html#a819ecb79c646e1baba8ca5c7d9e0cf6e" target="_top" xlink:title="end of run method">
<polygon fill="none" stroke="#000000" points="383.5,-409.5 383.5,-429.5 483.5,-429.5 483.5,-409.5 383.5,-409.5"/>
<text text-anchor="middle" x="433.5" y="-416.5" font-family="FreeSans" font-size="10.00" fill="#000000">ShowerSize::End</text>
</a>
</g>
</g>
<!-- Node2&#45;&gt;Node16 -->
<g id="edge15" class="edge">
<title>Node2&#45;&gt;Node16</title>
<path fill="none" stroke="#191970" d="M254.7741,-512.1188C272.5155,-489.6502 301.8544,-457.1921 335,-439.5 349.7782,-431.6119 367.3243,-426.8273 383.4842,-423.928"/>
<polygon fill="#191970" stroke="#191970" points="251.8873,-510.131 248.5586,-520.1894 257.4332,-514.4022 251.8873,-510.131"/>
</g>
<!-- Node17 -->
<g id="node17" class="node">
<title>Node17</title>
<g id="a_node17"><a xlink:href="../../dc/dbd/classTimingNtuple.html#a01b462c161120cb944952aa3809831ad" target="_top" xlink:title="end of run method">
<polygon fill="none" stroke="#000000" points="378,-370.5 378,-390.5 489,-390.5 489,-370.5 378,-370.5"/>
<text text-anchor="middle" x="433.5" y="-377.5" font-family="FreeSans" font-size="10.00" fill="#000000">TimingNtuple::End</text>
</a>
</g>
</g>
<!-- Node2&#45;&gt;Node17 -->
<g id="edge16" class="edge">
<title>Node2&#45;&gt;Node17</title>
<path fill="none" stroke="#191970" d="M248.0561,-511.1411C263.0445,-479.9224 292.8634,-427.7081 335,-400.5 347.6802,-392.3122 363.0371,-387.3742 377.8142,-384.4246"/>
<polygon fill="#191970" stroke="#191970" points="244.7559,-509.9374 243.714,-520.4809 251.1035,-512.8885 244.7559,-509.9374"/>
</g>
<!-- Node18 -->
<g id="node18" class="node">
<title>Node18</title>
<g id="a_node18"><a xlink:href="../../d2/d9c/classHijingShowerSize.html#a2387f3a36daa0175cafc1c6136d6c8ed" target="_top" xlink:title="end of run method">
<polygon fill="none" stroke="#000000" points="368.5,-331.5 368.5,-351.5 498.5,-351.5 498.5,-331.5 368.5,-331.5"/>
<text text-anchor="middle" x="433.5" y="-338.5" font-family="FreeSans" font-size="10.00" fill="#000000">HijingShowerSize::End</text>
</a>
</g>
</g>
<!-- Node2&#45;&gt;Node18 -->
<g id="edge17" class="edge">
<title>Node2&#45;&gt;Node18</title>
<path fill="none" stroke="#191970" d="M244.018,-510.3844C255.9005,-471.4643 283.8315,-398.8324 335,-361.5 344.7971,-354.3521 356.5345,-349.6111 368.4366,-346.4972"/>
<polygon fill="#191970" stroke="#191970" points="240.5336,-509.8301 241.0861,-520.4105 247.2522,-511.7948 240.5336,-509.8301"/>
</g>
<!-- Node19 -->
<g id="node19" class="node">
<title>Node19</title>
<g id="a_node19"><a xlink:href="../../d7/d34/classSigmaTimingNtuple.html#a7790cae11b0120462165b76dc7c12b83" target="_top" xlink:title="end of run method">
<polygon fill="none" stroke="#000000" points="362.5,-292.5 362.5,-312.5 504.5,-312.5 504.5,-292.5 362.5,-292.5"/>
<text text-anchor="middle" x="433.5" y="-299.5" font-family="FreeSans" font-size="10.00" fill="#000000">SigmaTimingNtuple::End</text>
</a>
</g>
</g>
<!-- Node2&#45;&gt;Node19 -->
<g id="edge18" class="edge">
<title>Node2&#45;&gt;Node19</title>
<path fill="none" stroke="#191970" d="M241.1487,-510.2973C249.8349,-464.593 274.4014,-370.5923 335,-322.5 342.996,-316.1542 352.4811,-311.6643 362.3573,-308.5134"/>
<polygon fill="#191970" stroke="#191970" points="237.6733,-509.8493 239.3554,-520.3097 244.5636,-511.0834 237.6733,-509.8493"/>
</g>
<!-- Node20 -->
<g id="node20" class="node">
<title>Node20</title>
<g id="a_node20"><a xlink:href="../../d2/df0/classSynRadAna.html#a0b05e9790eb5619e590dfc9471fffec4" target="_top" xlink:title="Called at the end of all processing.">
<polygon fill="none" stroke="#000000" points="383.5,-253.5 383.5,-273.5 483.5,-273.5 483.5,-253.5 383.5,-253.5"/>
<text text-anchor="middle" x="433.5" y="-260.5" font-family="FreeSans" font-size="10.00" fill="#000000">SynRadAna::End</text>
</a>
</g>
</g>
<!-- Node2&#45;&gt;Node20 -->
<g id="edge19" class="edge">
<title>Node2&#45;&gt;Node20</title>
<path fill="none" stroke="#191970" d="M239.0721,-510.4362C244.6563,-458.664 264.7503,-342.7645 335,-283.5 348.4041,-272.1919 366.4645,-266.6801 383.4594,-264.1564"/>
<polygon fill="#191970" stroke="#191970" points="235.5812,-510.173 238.0879,-520.467 242.5478,-510.8566 235.5812,-510.173"/>
</g>
<!-- Node21 -->
<g id="node21" class="node">
<title>Node21</title>
<g id="a_node21"><a xlink:href="../../da/daf/classJetHepMCLoader.html#a6f8c1ea54a8ca1ec7143bca6d741967b" target="_top" xlink:title="Called at the end of all processing.">
<polygon fill="none" stroke="#000000" points="370.5,-214.5 370.5,-234.5 496.5,-234.5 496.5,-214.5 370.5,-214.5"/>
<text text-anchor="middle" x="433.5" y="-221.5" font-family="FreeSans" font-size="10.00" fill="#000000">JetHepMCLoader::End</text>
</a>
</g>
</g>
<!-- Node2&#45;&gt;Node21 -->
<g id="edge20" class="edge">
<title>Node2&#45;&gt;Node21</title>
<path fill="none" stroke="#191970" d="M242.3059,-510.3021C255.9373,-445.5751 294.0041,-280.7223 335,-244.5 344.8728,-235.7768 357.4896,-230.4593 370.3732,-227.2975"/>
<polygon fill="#191970" stroke="#191970" points="238.8691,-509.6387 240.2603,-520.1418 245.7226,-511.0636 238.8691,-509.6387"/>
</g>
<!-- Node22 -->
<g id="node22" class="node">
<title>Node22</title>
<g id="a_node22"><a xlink:href="../../d5/d60/analysis_2blob_2master_2HF-Jet_2TruthGeneration_2macros_2Fun4All__G4__sPHENIX_8C.html#a9a881c27e3822a95643d09c2fd73009e" target="_top" xlink:title="Fun4All_G4_sPHENIX">
<polygon fill="none" stroke="#000000" points="574,-195.5 574,-215.5 695,-215.5 695,-195.5 574,-195.5"/>
<text text-anchor="middle" x="634.5" y="-202.5" font-family="FreeSans" font-size="10.00" fill="#000000">Fun4All_G4_sPHENIX</text>
</a>
</g>
</g>
<!-- Node2&#45;&gt;Node22 -->
<g id="edge21" class="edge">
<title>Node2&#45;&gt;Node22</title>
<path fill="none" stroke="#191970" d="M240.7294,-510.2043C251.4791,-438.5735 284.988,-242.8508 335,-205.5 371.3487,-178.3535 497.3018,-188.2153 573.8144,-197.2459"/>
<polygon fill="#191970" stroke="#191970" points="237.2493,-509.8132 239.2547,-520.2165 244.1746,-510.8333 237.2493,-509.8132"/>
</g>
<!-- Node23 -->
<g id="node23" class="node">
<title>Node23</title>
<g id="a_node23"><a xlink:href="../../d8/db5/namespaceQAHistManagerDef.html#aa4c4b65716047fdf03fed1d19f802be7" target="_top" xlink:title="Save hist to root files.">
<polygon fill="none" stroke="#000000" points="335,-117.5 335,-137.5 532,-137.5 532,-117.5 335,-117.5"/>
<text text-anchor="middle" x="433.5" y="-124.5" font-family="FreeSans" font-size="10.00" fill="#000000">QAHistManagerDef::saveQARootFile</text>
</a>
</g>
</g>
<!-- Node2&#45;&gt;Node23 -->
<g id="edge22" class="edge">
<title>Node2&#45;&gt;Node23</title>
<path fill="none" stroke="#191970" d="M241.0769,-510.1226C253.0931,-435.3146 290.343,-223.8248 335,-171.5 349.2255,-154.8319 371.0225,-144.2089 390.4987,-137.5869"/>
<polygon fill="#191970" stroke="#191970" points="237.599,-509.7081 239.4893,-520.1329 244.5126,-510.8046 237.599,-509.7081"/>
</g>
<!-- Node23&#45;&gt;Node22 -->
<g id="edge23" class="edge">
<title>Node23&#45;&gt;Node22</title>
<path fill="none" stroke="#191970" d="M465.2046,-141.6766C501.6518,-157.9313 557.7878,-182.8203 568,-186.5 576.924,-189.7155 586.673,-192.7558 595.888,-195.4229"/>
<polygon fill="#191970" stroke="#191970" points="466.5104,-138.4267 455.9521,-137.5472 463.6574,-144.819 466.5104,-138.4267"/>
</g>
<!-- Node24 -->
<g id="node24" class="node">
<title>Node24</title>
<g id="a_node24"><a xlink:href="../../da/db5/Fun4All__G4__W_8C.html#ad4745423f42356b6b3cb65bbbc1e917e" target="_top" xlink:title="Fun4All_G4_W">
<polygon fill="none" stroke="#000000" points="590.5,-156.5 590.5,-176.5 678.5,-176.5 678.5,-156.5 590.5,-156.5"/>
<text text-anchor="middle" x="634.5" y="-163.5" font-family="FreeSans" font-size="10.00" fill="#000000">Fun4All_G4_W</text>
</a>
</g>
</g>
<!-- Node23&#45;&gt;Node24 -->
<g id="edge24" class="edge">
<title>Node23&#45;&gt;Node24</title>
<path fill="none" stroke="#191970" d="M495.4442,-139.519C526.1682,-145.4804 562.5589,-152.5413 590.4052,-157.9443"/>
<polygon fill="#191970" stroke="#191970" points="495.7461,-136.0124 485.2625,-137.5435 494.4127,-142.8842 495.7461,-136.0124"/>
</g>
<!-- Node25 -->
<g id="node25" class="node">
<title>Node25</title>
<g id="a_node25"><a xlink:href="../../d7/d73/QA_8C.html#aeb948329a77cf960efa70b07edb92bb7" target="_top" xlink:title="QA_Output">
<polygon fill="none" stroke="#000000" points="598.5,-117.5 598.5,-137.5 670.5,-137.5 670.5,-117.5 598.5,-117.5"/>
<text text-anchor="middle" x="634.5" y="-124.5" font-family="FreeSans" font-size="10.00" fill="#000000">QA_Output</text>
</a>
</g>
</g>
<!-- Node23&#45;&gt;Node25 -->
<g id="edge25" class="edge">
<title>Node23&#45;&gt;Node25</title>
<path fill="none" stroke="#191970" d="M542.4712,-127.5C562.6238,-127.5 582.3188,-127.5 598.2841,-127.5"/>
<polygon fill="#191970" stroke="#191970" points="542.2335,-124.0001 532.2335,-127.5 542.2334,-131.0001 542.2335,-124.0001"/>
</g>
<!-- Node29 -->
<g id="node29" class="node">
<title>Node29</title>
<g id="a_node29"><a xlink:href="../../dc/d8e/Fun4All__G4__Prototype2_8C.html#a6b8f092c4f51be2938dd09c810ba6226" target="_top" xlink:title="Fun4All_G4_Prototype2">
<polygon fill="none" stroke="#000000" points="568,-78.5 568,-98.5 701,-98.5 701,-78.5 568,-78.5"/>
<text text-anchor="middle" x="634.5" y="-85.5" font-family="FreeSans" font-size="10.00" fill="#000000">Fun4All_G4_Prototype2</text>
</a>
</g>
</g>
<!-- Node23&#45;&gt;Node29 -->
<g id="edge29" class="edge">
<title>Node23&#45;&gt;Node29</title>
<path fill="none" stroke="#191970" d="M495.364,-115.4965C523.4189,-110.0531 556.2118,-103.6902 582.9129,-98.5094"/>
<polygon fill="#191970" stroke="#191970" points="494.4127,-112.1158 485.2625,-117.4565 495.7461,-118.9876 494.4127,-112.1158"/>
</g>
<!-- Node30 -->
<g id="node30" class="node">
<title>Node30</title>
<g id="a_node30"><a xlink:href="../../d7/d40/Fun4All__G4__Prototype3_8C.html#a1201361263017b08a070777a0b90b27c" target="_top" xlink:title="Fun4All_G4_Prototype3">
<polygon fill="none" stroke="#000000" points="568,-39.5 568,-59.5 701,-59.5 701,-39.5 568,-39.5"/>
<text text-anchor="middle" x="634.5" y="-46.5" font-family="FreeSans" font-size="10.00" fill="#000000">Fun4All_G4_Prototype3</text>
</a>
</g>
</g>
<!-- Node23&#45;&gt;Node30 -->
<g id="edge30" class="edge">
<title>Node23&#45;&gt;Node30</title>
<path fill="none" stroke="#191970" d="M463.375,-113.0021C490.3231,-100.2616 531.2522,-81.7411 568,-68.5 576.924,-65.2845 586.673,-62.2442 595.888,-59.5771"/>
<polygon fill="#191970" stroke="#191970" points="461.6359,-109.9536 454.1129,-117.4139 464.6462,-116.2733 461.6359,-109.9536"/>
</g>
<!-- Node31 -->
<g id="node31" class="node">
<title>Node31</title>
<g id="a_node31"><a xlink:href="../../d4/d58/Fun4All__G4__Prototype4_8C.html#acac517f0728af658cbf99c7c9687c908" target="_top" xlink:title="Fun4All_G4_Prototype4">
<polygon fill="none" stroke="#000000" points="568,-.5 568,-20.5 701,-20.5 701,-.5 568,-.5"/>
<text text-anchor="middle" x="634.5" y="-7.5" font-family="FreeSans" font-size="10.00" fill="#000000">Fun4All_G4_Prototype4</text>
</a>
</g>
</g>
<!-- Node23&#45;&gt;Node31 -->
<g id="edge31" class="edge">
<title>Node23&#45;&gt;Node31</title>
<path fill="none" stroke="#191970" d="M452.0259,-110.6737C476.7648,-89.0248 522.7437,-51.5844 568,-29.5 575.2299,-25.9719 583.2304,-22.9891 591.1029,-20.5079"/>
<polygon fill="#191970" stroke="#191970" points="449.6407,-108.1109 444.4822,-117.3651 454.2858,-113.3476 449.6407,-108.1109"/>
</g>
<!-- Node26 -->
<g id="node26" class="node">
<title>Node26</title>
<g id="a_node26"><a xlink:href="../../d4/de9/Fun4All__AnaTutorial__sPHENIX_8C.html#a5028836c74f0bebec560d3ab54daa022" target="_top" xlink:title="Fun4All_AnaTutorial\l_sPHENIX">
<polygon fill="none" stroke="#000000" points="740,-162.5 740,-194.5 855,-194.5 855,-162.5 740,-162.5"/>
<text text-anchor="start" x="748" y="-181.5" font-family="FreeSans" font-size="10.00" fill="#000000">Fun4All_AnaTutorial</text>
<text text-anchor="middle" x="797.5" y="-169.5" font-family="FreeSans" font-size="10.00" fill="#000000">_sPHENIX</text>
</a>
</g>
</g>
<!-- Node25&#45;&gt;Node26 -->
<g id="edge26" class="edge">
<title>Node25&#45;&gt;Node26</title>
<path fill="none" stroke="#191970" d="M678.1874,-140.5121C685.7997,-142.8156 693.6358,-145.21 701,-147.5 716.2907,-152.2549 732.9043,-157.5465 747.9681,-162.3924"/>
<polygon fill="#191970" stroke="#191970" points="678.9522,-137.0871 668.3676,-137.5525 676.9322,-143.7893 678.9522,-137.0871"/>
</g>
<!-- Node27 -->
<g id="node27" class="node">
<title>Node27</title>
<g id="a_node27"><a xlink:href="../../d6/d14/Fun4All__AnaTutorial__sPHENIX__Jets_8C.html#a61b352bca84476d24b0ff40991b27900" target="_top" xlink:title="Fun4All_AnaTutorial\l_sPHENIX_Jets">
<polygon fill="none" stroke="#000000" points="740,-111.5 740,-143.5 855,-143.5 855,-111.5 740,-111.5"/>
<text text-anchor="start" x="748" y="-130.5" font-family="FreeSans" font-size="10.00" fill="#000000">Fun4All_AnaTutorial</text>
<text text-anchor="middle" x="797.5" y="-118.5" font-family="FreeSans" font-size="10.00" fill="#000000">_sPHENIX_Jets</text>
</a>
</g>
</g>
<!-- Node25&#45;&gt;Node27 -->
<g id="edge27" class="edge">
<title>Node25&#45;&gt;Node27</title>
<path fill="none" stroke="#191970" d="M680.845,-127.5C699.2459,-127.5 720.6045,-127.5 739.9786,-127.5"/>
<polygon fill="#191970" stroke="#191970" points="680.675,-124.0001 670.675,-127.5 680.6749,-131.0001 680.675,-124.0001"/>
</g>
<!-- Node28 -->
<g id="node28" class="node">
<title>Node28</title>
<g id="a_node28"><a xlink:href="../../d1/d19/macros_2blob_2master_2detectors_2sPHENIX_2Fun4All__G4__sPHENIX_8C.html#a4102cd3e195333de974409428a2e6dae" target="_top" xlink:title="Fun4All_G4_sPHENIX">
<polygon fill="none" stroke="#000000" points="737,-72.5 737,-92.5 858,-92.5 858,-72.5 737,-72.5"/>
<text text-anchor="middle" x="797.5" y="-79.5" font-family="FreeSans" font-size="10.00" fill="#000000">Fun4All_G4_sPHENIX</text>
</a>
</g>
</g>
<!-- Node25&#45;&gt;Node28 -->
<g id="edge28" class="edge">
<title>Node25&#45;&gt;Node28</title>
<path fill="none" stroke="#191970" d="M680.5058,-114.799C706.0367,-107.7506 737.343,-99.1078 761.1447,-92.5367"/>
<polygon fill="#191970" stroke="#191970" points="679.3829,-111.478 670.675,-117.513 681.2458,-118.2256 679.3829,-111.478"/>
</g>
</g>
</svg>
