<?xml version="1.0" encoding="UTF-8" standalone="no"?>
<!DOCTYPE svg PUBLIC "-//W3C//DTD SVG 1.1//EN"
 "http://www.w3.org/Graphics/SVG/1.1/DTD/svg11.dtd">
<!-- Generated by graphviz version 2.40.1 (20161225.0304)
 -->
<!-- Title: BFunction Pages: 1 -->
<svg width="258pt" height="29pt"
 viewBox="0.00 0.00 258.00 29.00" xmlns="http://www.w3.org/2000/svg" xmlns:xlink="http://www.w3.org/1999/xlink">
<g id="graph0" class="graph" transform="scale(1 1) rotate(0) translate(4 25)">
<title>BFunction</title>
<!-- Node1 -->
<g id="node1" class="node">
<title>Node1</title>
<polygon fill="#bfbfbf" stroke="#000000" points="0,-.5 0,-20.5 66,-20.5 66,-.5 0,-.5"/>
<text text-anchor="middle" x="33" y="-7.5" font-family="FreeSans" font-size="10.00" fill="#000000">BFunction</text>
</g>
<!-- Node2 -->
<g id="node2" class="node">
<title>Node2</title>
<g id="a_node2"><a xlink:href="../../dc/d45/crossterms_8cc.html#adee79db0c04229bb56d8d03610d199e9" target="_top" xlink:title="crossterms">
<polygon fill="none" stroke="#000000" points="102,-.5 102,-20.5 173,-20.5 173,-.5 102,-.5"/>
<text text-anchor="middle" x="137.5" y="-7.5" font-family="FreeSans" font-size="10.00" fill="#000000">crossterms</text>
</a>
</g>
</g>
<!-- Node1&#45;&gt;Node2 -->
<g id="edge1" class="edge">
<title>Node1&#45;&gt;Node2</title>
<path fill="none" stroke="#191970" d="M76.206,-10.5C84.7057,-10.5 93.5348,-10.5 101.7563,-10.5"/>
<polygon fill="#191970" stroke="#191970" points="76.0645,-7.0001 66.0645,-10.5 76.0644,-14.0001 76.0645,-7.0001"/>
</g>
<!-- Node3 -->
<g id="node3" class="node">
<title>Node3</title>
<g id="a_node3"><a xlink:href="../../dc/d45/crossterms_8cc.html#a0ddf1224851353fc92bfbff6f499fa97" target="_top" xlink:title="main">
<polygon fill="none" stroke="#000000" points="209,-.5 209,-20.5 250,-20.5 250,-.5 209,-.5"/>
<text text-anchor="middle" x="229.5" y="-7.5" font-family="FreeSans" font-size="10.00" fill="#000000">main</text>
</a>
</g>
</g>
<!-- Node2&#45;&gt;Node3 -->
<g id="edge2" class="edge">
<title>Node2&#45;&gt;Node3</title>
<path fill="none" stroke="#191970" d="M183.1796,-10.5C192.206,-10.5 201.2489,-10.5 208.9178,-10.5"/>
<polygon fill="#191970" stroke="#191970" points="183.0696,-7.0001 173.0696,-10.5 183.0696,-14.0001 183.0696,-7.0001"/>
</g>
</g>
</svg>
