<?xml version="1.0" encoding="UTF-8" standalone="no"?>
<!DOCTYPE svg PUBLIC "-//W3C//DTD SVG 1.1//EN"
 "http://www.w3.org/Graphics/SVG/1.1/DTD/svg11.dtd">
<!-- Generated by graphviz version 2.40.1 (20161225.0304)
 -->
<!-- Title: Acts::addCylinderLayerProtoMaterial Pages: 1 -->
<svg width="1148pt" height="328pt"
 viewBox="0.00 0.00 1148.00 328.00" xmlns="http://www.w3.org/2000/svg" xmlns:xlink="http://www.w3.org/1999/xlink">
<g id="graph0" class="graph" transform="scale(1 1) rotate(0) translate(4 324)">
<title>Acts::addCylinderLayerProtoMaterial</title>
<!-- Node1 -->
<g id="node1" class="node">
<title>Node1</title>
<polygon fill="#bfbfbf" stroke="#000000" points="0,-90.5 0,-122.5 160,-122.5 160,-90.5 0,-90.5"/>
<text text-anchor="start" x="8" y="-109.5" font-family="FreeSans" font-size="10.00" fill="#000000">Acts::addCylinderLayerProto</text>
<text text-anchor="middle" x="80" y="-97.5" font-family="FreeSans" font-size="10.00" fill="#000000">Material</text>
</g>
<!-- Node2 -->
<g id="node2" class="node">
<title>Node2</title>
<g id="a_node2"><a xlink:href="../../da/d7b/namespaceActs.html#a45d6a0165bbc4eaf237fc4e55f90f5e2" target="_top" xlink:title="Acts::addLayerProtoMaterial">
<polygon fill="none" stroke="#000000" points="196,-164.5 196,-184.5 355,-184.5 355,-164.5 196,-164.5"/>
<text text-anchor="middle" x="275.5" y="-171.5" font-family="FreeSans" font-size="10.00" fill="#000000">Acts::addLayerProtoMaterial</text>
</a>
</g>
</g>
<!-- Node1&#45;&gt;Node2 -->
<g id="edge1" class="edge">
<title>Node1&#45;&gt;Node2</title>
<path fill="none" stroke="#191970" d="M126.3308,-122.6151C159.9536,-134.3099 204.9229,-149.9514 236.668,-160.9932"/>
<polygon fill="#191970" stroke="#191970" points="235.8842,-164.4262 246.479,-164.4057 238.1839,-157.8147 235.8842,-164.4262"/>
</g>
<!-- Node19 -->
<g id="node19" class="node">
<title>Node19</title>
<g id="a_node19"><a xlink:href="../../da/d7b/namespaceActs.html#a9b4dee934b0b193d57604b19bc8cd527" target="_top" xlink:title="get default debug output logger">
<polygon fill="none" stroke="#000000" points="421,-29.5 421,-49.5 555,-49.5 555,-29.5 421,-29.5"/>
<text text-anchor="middle" x="488" y="-36.5" font-family="FreeSans" font-size="10.00" fill="#000000">Acts::getDefaultLogger</text>
</a>
</g>
</g>
<!-- Node1&#45;&gt;Node19 -->
<g id="edge19" class="edge">
<title>Node1&#45;&gt;Node19</title>
<path fill="none" stroke="#191970" d="M160.1209,-93.3429C234.7735,-81.0838 345.0464,-62.9752 416.7124,-51.2065"/>
<polygon fill="#191970" stroke="#191970" points="417.6965,-54.5919 426.9971,-49.5176 416.5621,-47.6844 417.6965,-54.5919"/>
</g>
<!-- Node3 -->
<g id="node3" class="node">
<title>Node3</title>
<g id="a_node3"><a xlink:href="../../da/d28/classActs_1_1Layer.html#a43b7c36c2aac940f5bd8fd89d4a2fa89" target="_top" xlink:title="Acts::Layer::surfaceRepresentation">
<polygon fill="none" stroke="#000000" points="391,-299.5 391,-319.5 585,-319.5 585,-299.5 391,-299.5"/>
<text text-anchor="middle" x="488" y="-306.5" font-family="FreeSans" font-size="10.00" fill="#000000">Acts::Layer::surfaceRepresentation</text>
</a>
</g>
</g>
<!-- Node2&#45;&gt;Node3 -->
<g id="edge2" class="edge">
<title>Node2&#45;&gt;Node3</title>
<path fill="none" stroke="#191970" d="M282.2255,-184.5362C298.1465,-207.4273 340.6118,-263.5916 391,-290.5 394.938,-292.603 399.0774,-294.4748 403.3365,-296.1406"/>
<polygon fill="#191970" stroke="#191970" points="402.2254,-299.4599 412.8202,-299.4683 404.5431,-292.8547 402.2254,-299.4599"/>
</g>
<!-- Node4 -->
<g id="node4" class="node">
<title>Node4</title>
<g id="a_node4"><a xlink:href="../../da/d28/classActs_1_1Layer.html#a60dfe967e40e13f1fda38471c2a244a3" target="_top" xlink:title="Return method for the approach descriptor, can be nullptr.">
<polygon fill="none" stroke="#000000" points="398,-260.5 398,-280.5 578,-280.5 578,-260.5 398,-260.5"/>
<text text-anchor="middle" x="488" y="-267.5" font-family="FreeSans" font-size="10.00" fill="#000000">Acts::Layer::approachDescriptor</text>
</a>
</g>
</g>
<!-- Node2&#45;&gt;Node4 -->
<g id="edge3" class="edge">
<title>Node2&#45;&gt;Node4</title>
<path fill="none" stroke="#191970" d="M287.0675,-184.5254C306.9083,-201.1618 349.3301,-234.3365 391,-251.5 396.7791,-253.8803 402.8772,-255.968 409.0865,-257.798"/>
<polygon fill="#191970" stroke="#191970" points="408.3379,-261.2214 418.9058,-260.4667 410.1739,-254.4664 408.3379,-261.2214"/>
</g>
<!-- Node5 -->
<g id="node5" class="node">
<title>Node5</title>
<g id="a_node5"><a xlink:href="../../d5/db4/classActs_1_1ApproachDescriptor.html#ace7cc582d550b3d94d2c5eba54436bdb" target="_top" xlink:title="Acts::ApproachDescriptor\l::containedSurfaces">
<polygon fill="none" stroke="#000000" points="415,-209.5 415,-241.5 561,-241.5 561,-209.5 415,-209.5"/>
<text text-anchor="start" x="423" y="-228.5" font-family="FreeSans" font-size="10.00" fill="#000000">Acts::ApproachDescriptor</text>
<text text-anchor="middle" x="488" y="-216.5" font-family="FreeSans" font-size="10.00" fill="#000000">::containedSurfaces</text>
</a>
</g>
</g>
<!-- Node2&#45;&gt;Node5 -->
<g id="edge4" class="edge">
<title>Node2&#45;&gt;Node5</title>
<path fill="none" stroke="#191970" d="M317.2296,-184.5151C344.0666,-190.956 379.7421,-199.5181 411.5435,-207.1504"/>
<polygon fill="#191970" stroke="#191970" points="410.7338,-210.5554 421.2745,-209.4859 412.3674,-203.7487 410.7338,-210.5554"/>
</g>
<!-- Node6 -->
<g id="node6" class="node">
<title>Node6</title>
<g id="a_node6"><a xlink:href="../../d8/d8a/classActs_1_1ActsExtension.html#a5b0e63d41420f9f891c9bd7a4d123e65" target="_top" xlink:title="Acts::ActsExtension\l::hasValue">
<polygon fill="none" stroke="#000000" points="430,-158.5 430,-190.5 546,-190.5 546,-158.5 430,-158.5"/>
<text text-anchor="start" x="438" y="-177.5" font-family="FreeSans" font-size="10.00" fill="#000000">Acts::ActsExtension</text>
<text text-anchor="middle" x="488" y="-165.5" font-family="FreeSans" font-size="10.00" fill="#000000">::hasValue</text>
</a>
</g>
</g>
<!-- Node2&#45;&gt;Node6 -->
<g id="edge5" class="edge">
<title>Node2&#45;&gt;Node6</title>
<path fill="none" stroke="#191970" d="M355.2317,-174.5C376.3888,-174.5 399.0444,-174.5 419.5423,-174.5"/>
<polygon fill="#191970" stroke="#191970" points="419.7293,-178.0001 429.7293,-174.5 419.7292,-171.0001 419.7293,-178.0001"/>
</g>
<!-- Node7 -->
<g id="node7" class="node">
<title>Node7</title>
<g id="a_node7"><a xlink:href="../../da/d7b/namespaceActs.html#a693543dd8a2af53cd5922f050fdf4087" target="_top" xlink:title="Acts::createProtoMaterial">
<polygon fill="none" stroke="#000000" points="416,-119.5 416,-139.5 560,-139.5 560,-119.5 416,-119.5"/>
<text text-anchor="middle" x="488" y="-126.5" font-family="FreeSans" font-size="10.00" fill="#000000">Acts::createProtoMaterial</text>
</a>
</g>
</g>
<!-- Node2&#45;&gt;Node7 -->
<g id="edge6" class="edge">
<title>Node2&#45;&gt;Node7</title>
<path fill="none" stroke="#191970" d="M321.2867,-164.4812C342.4868,-159.8702 368.0162,-154.3568 391,-149.5 403.2125,-146.9194 416.2987,-144.1941 428.7811,-141.6137"/>
<polygon fill="#191970" stroke="#191970" points="429.5476,-145.0293 438.6341,-139.5808 428.1331,-138.1737 429.5476,-145.0293"/>
</g>
<!-- Node17 -->
<g id="node17" class="node">
<title>Node17</title>
<g id="a_node17"><a xlink:href="../../de/d7d/classActs_1_1Surface.html#a2c407033dabd78d61e285d36c5364709" target="_top" xlink:title="Acts::Surface::assignSurface\lMaterial">
<polygon fill="none" stroke="#000000" points="407,-68.5 407,-100.5 569,-100.5 569,-68.5 407,-68.5"/>
<text text-anchor="start" x="415" y="-87.5" font-family="FreeSans" font-size="10.00" fill="#000000">Acts::Surface::assignSurface</text>
<text text-anchor="middle" x="488" y="-75.5" font-family="FreeSans" font-size="10.00" fill="#000000">Material</text>
</a>
</g>
</g>
<!-- Node2&#45;&gt;Node17 -->
<g id="edge17" class="edge">
<title>Node2&#45;&gt;Node17</title>
<path fill="none" stroke="#191970" d="M290.9603,-164.3196C312.5659,-150.4754 353.3774,-125.6991 391,-110.5 397.1365,-108.0209 403.5861,-105.7053 410.1208,-103.5593"/>
<polygon fill="#191970" stroke="#191970" points="411.2402,-106.8763 419.7293,-100.5371 409.1399,-100.1988 411.2402,-106.8763"/>
</g>
<!-- Node8 -->
<g id="node8" class="node">
<title>Node8</title>
<g id="a_node8"><a xlink:href="../../d8/d8a/classActs_1_1ActsExtension.html#a12f18877ba2af75635b326a2f4a96177" target="_top" xlink:title="Acts::ActsExtension\l::getValue">
<polygon fill="none" stroke="#000000" points="629,-118.5 629,-150.5 745,-150.5 745,-118.5 629,-118.5"/>
<text text-anchor="start" x="637" y="-137.5" font-family="FreeSans" font-size="10.00" fill="#000000">Acts::ActsExtension</text>
<text text-anchor="middle" x="687" y="-125.5" font-family="FreeSans" font-size="10.00" fill="#000000">::getValue</text>
</a>
</g>
</g>
<!-- Node7&#45;&gt;Node8 -->
<g id="edge7" class="edge">
<title>Node7&#45;&gt;Node8</title>
<path fill="none" stroke="#191970" d="M560.1249,-131.3122C579.265,-131.7931 599.8704,-132.3108 618.7945,-132.7863"/>
<polygon fill="#191970" stroke="#191970" points="618.7318,-136.2857 628.8165,-133.0381 618.9076,-129.2879 618.7318,-136.2857"/>
</g>
<!-- Node9 -->
<g id="node9" class="node">
<title>Node9</title>
<g id="a_node9"><a xlink:href="../../de/d82/namespacerelease.html#ac63a4e24ae2a10afe15fb33e11a485c2" target="_top" xlink:title="release.tag">
<polygon fill="none" stroke="#000000" points="789,-126.5 789,-146.5 861,-146.5 861,-126.5 789,-126.5"/>
<text text-anchor="middle" x="825" y="-133.5" font-family="FreeSans" font-size="10.00" fill="#000000">release.tag</text>
</a>
</g>
</g>
<!-- Node8&#45;&gt;Node9 -->
<g id="edge8" class="edge">
<title>Node8&#45;&gt;Node9</title>
<path fill="none" stroke="#191970" d="M745.1245,-135.3424C756.4003,-135.5058 768.0737,-135.675 778.899,-135.8319"/>
<polygon fill="#191970" stroke="#191970" points="778.9275,-139.3326 788.9772,-135.9779 779.0291,-132.3333 778.9275,-139.3326"/>
</g>
<!-- Node10 -->
<g id="node10" class="node">
<title>Node10</title>
<g id="a_node10"><a xlink:href="../../de/d82/namespacerelease.html#a44eacb239a3470341e19e7cef690bcbf" target="_top" xlink:title="release.get_current\l_branch">
<polygon fill="none" stroke="#000000" points="905.5,-246.5 905.5,-278.5 1020.5,-278.5 1020.5,-246.5 905.5,-246.5"/>
<text text-anchor="start" x="913.5" y="-265.5" font-family="FreeSans" font-size="10.00" fill="#000000">release.get_current</text>
<text text-anchor="middle" x="963" y="-253.5" font-family="FreeSans" font-size="10.00" fill="#000000">_branch</text>
</a>
</g>
</g>
<!-- Node9&#45;&gt;Node10 -->
<g id="edge9" class="edge">
<title>Node9&#45;&gt;Node10</title>
<path fill="none" stroke="#191970" d="M829.6513,-146.6037C839.3762,-166.6797 863.7445,-211.8611 897,-237.5 898.774,-238.8677 900.6311,-240.1675 902.5506,-241.4022"/>
<polygon fill="#191970" stroke="#191970" points="900.8822,-244.48 911.3004,-246.4069 904.3578,-238.4037 900.8822,-244.48"/>
</g>
<!-- Node11 -->
<g id="node11" class="node">
<title>Node11</title>
<g id="a_node11"><a xlink:href="../../de/d82/namespacerelease.html#a23ccb4765230c4db38ba2dd5320597ce" target="_top" xlink:title="release.split_version">
<polygon fill="none" stroke="#000000" points="903.5,-207.5 903.5,-227.5 1022.5,-227.5 1022.5,-207.5 903.5,-207.5"/>
<text text-anchor="middle" x="963" y="-214.5" font-family="FreeSans" font-size="10.00" fill="#000000">release.split_version</text>
</a>
</g>
</g>
<!-- Node9&#45;&gt;Node11 -->
<g id="edge10" class="edge">
<title>Node9&#45;&gt;Node11</title>
<path fill="none" stroke="#191970" d="M834.217,-146.8349C847.0066,-160.566 871.4606,-184.6932 897,-198.5 900.7171,-200.5095 904.6697,-202.3267 908.7216,-203.9664"/>
<polygon fill="#191970" stroke="#191970" points="907.6979,-207.3189 918.2916,-207.4771 910.1088,-200.7471 907.6979,-207.3189"/>
</g>
<!-- Node12 -->
<g id="node12" class="node">
<title>Node12</title>
<g id="a_node12"><a xlink:href="../../de/d82/namespacerelease.html#ade2f0fa1de108c5a0879b42a5876362e" target="_top" xlink:title="release.format_version">
<polygon fill="none" stroke="#000000" points="897,-168.5 897,-188.5 1029,-188.5 1029,-168.5 897,-168.5"/>
<text text-anchor="middle" x="963" y="-175.5" font-family="FreeSans" font-size="10.00" fill="#000000">release.format_version</text>
</a>
</g>
</g>
<!-- Node9&#45;&gt;Node12 -->
<g id="edge11" class="edge">
<title>Node9&#45;&gt;Node12</title>
<path fill="none" stroke="#191970" d="M858.0544,-146.56C876.6086,-152.207 899.9738,-159.3181 919.9449,-165.3963"/>
<polygon fill="#191970" stroke="#191970" points="919.1512,-168.8131 929.737,-168.3765 921.1893,-162.1164 919.1512,-168.8131"/>
</g>
<!-- Node13 -->
<g id="node13" class="node">
<title>Node13</title>
<g id="a_node13"><a xlink:href="../../d6/d72/namespaceutil.html#ac8015eb2508544e525f64f4bd01fd5d8" target="_top" xlink:title="util.Spinner">
<polygon fill="none" stroke="#000000" points="1065,-106.5 1065,-126.5 1140,-126.5 1140,-106.5 1065,-106.5"/>
<text text-anchor="middle" x="1102.5" y="-113.5" font-family="FreeSans" font-size="10.00" fill="#000000">util.Spinner</text>
</a>
</g>
</g>
<!-- Node9&#45;&gt;Node13 -->
<g id="edge12" class="edge">
<title>Node9&#45;&gt;Node13</title>
<path fill="none" stroke="#191970" d="M861.2783,-133.8853C910.8268,-130.3143 999.7667,-123.9042 1054.7028,-119.9448"/>
<polygon fill="#191970" stroke="#191970" points="1055.1587,-123.4212 1064.8812,-119.2113 1054.6554,-116.4393 1055.1587,-123.4212"/>
</g>
<!-- Node14 -->
<g id="node14" class="node">
<title>Node14</title>
<g id="a_node14"><a xlink:href="../../de/d82/namespacerelease.html#a6389d77b4d19ef3218eec0ddc3b0db0f" target="_top" xlink:title="release.check_branch\l_exists">
<polygon fill="none" stroke="#000000" points="900,-78.5 900,-110.5 1026,-110.5 1026,-78.5 900,-78.5"/>
<text text-anchor="start" x="908" y="-97.5" font-family="FreeSans" font-size="10.00" fill="#000000">release.check_branch</text>
<text text-anchor="middle" x="963" y="-85.5" font-family="FreeSans" font-size="10.00" fill="#000000">_exists</text>
</a>
</g>
</g>
<!-- Node9&#45;&gt;Node14 -->
<g id="edge13" class="edge">
<title>Node9&#45;&gt;Node14</title>
<path fill="none" stroke="#191970" d="M858.0544,-126.44C870.8749,-122.5381 885.9923,-117.9371 900.6999,-113.4609"/>
<polygon fill="#191970" stroke="#191970" points="901.7298,-116.806 910.2775,-110.546 899.6916,-110.1093 901.7298,-116.806"/>
</g>
<!-- Node15 -->
<g id="node15" class="node">
<title>Node15</title>
<g id="a_node15"><a xlink:href="../../dc/d11/Prototype2_2EMCal_2macros_2SaveCanvas_8m.html#a8efe7494567713c8ec7a6803834a0bb6" target="_top" xlink:title="print">
<polygon fill="none" stroke="#000000" points="943,-.5 943,-20.5 983,-20.5 983,-.5 943,-.5"/>
<text text-anchor="middle" x="963" y="-7.5" font-family="FreeSans" font-size="10.00" fill="#000000">print</text>
</a>
</g>
</g>
<!-- Node9&#45;&gt;Node15 -->
<g id="edge15" class="edge">
<title>Node9&#45;&gt;Node15</title>
<path fill="none" stroke="#191970" d="M829.0284,-126.207C837.9275,-104.8314 861.3429,-55.4652 897,-29.5 907.4371,-21.8998 920.8528,-17.3297 932.8601,-14.5862"/>
<polygon fill="#191970" stroke="#191970" points="933.7968,-17.9694 942.9392,-12.6152 932.4533,-11.0995 933.7968,-17.9694"/>
</g>
<!-- Node16 -->
<g id="node16" class="node">
<title>Node16</title>
<g id="a_node16"><a xlink:href="../../de/d82/namespacerelease.html#a831d8ad05fd79f8b6986a6bcea97c138" target="_top" xlink:title="release.confirm">
<polygon fill="none" stroke="#000000" points="916,-39.5 916,-59.5 1010,-59.5 1010,-39.5 916,-39.5"/>
<text text-anchor="middle" x="963" y="-46.5" font-family="FreeSans" font-size="10.00" fill="#000000">release.confirm</text>
</a>
</g>
</g>
<!-- Node9&#45;&gt;Node16 -->
<g id="edge16" class="edge">
<title>Node9&#45;&gt;Node16</title>
<path fill="none" stroke="#191970" d="M833.1622,-126.1347C845.4444,-111.2258 870.1203,-83.8392 897,-68.5 900.4547,-66.5285 904.1298,-64.7482 907.9091,-63.1427"/>
<polygon fill="#191970" stroke="#191970" points="909.3562,-66.3368 917.4522,-59.5028 906.8614,-59.7965 909.3562,-66.3368"/>
</g>
<!-- Node14&#45;&gt;Node13 -->
<g id="edge14" class="edge">
<title>Node14&#45;&gt;Node13</title>
<path fill="none" stroke="#191970" d="M1026.2195,-104.4701C1035.7522,-105.9735 1045.4491,-107.5027 1054.5894,-108.9442"/>
<polygon fill="#191970" stroke="#191970" points="1054.2111,-112.4277 1064.6343,-110.5284 1055.3017,-105.5132 1054.2111,-112.4277"/>
</g>
<!-- Node18 -->
<g id="node18" class="node">
<title>Node18</title>
<g id="a_node18"><a xlink:href="../../d0/da7/namespacetesting_1_1internal.html#a0f6d06bf8c3093b9c22bb08723db201e" target="_top" xlink:title="testing::internal::move">
<polygon fill="none" stroke="#000000" points="621,-62.5 621,-82.5 753,-82.5 753,-62.5 621,-62.5"/>
<text text-anchor="middle" x="687" y="-69.5" font-family="FreeSans" font-size="10.00" fill="#000000">testing::internal::move</text>
</a>
</g>
</g>
<!-- Node17&#45;&gt;Node18 -->
<g id="edge18" class="edge">
<title>Node17&#45;&gt;Node18</title>
<path fill="none" stroke="#191970" d="M569.2279,-79.6018C582.9306,-78.7755 597.1121,-77.9204 610.6841,-77.102"/>
<polygon fill="#191970" stroke="#191970" points="611.1548,-80.58 620.9259,-76.4844 610.7334,-73.5927 611.1548,-80.58"/>
</g>
<!-- Node19&#45;&gt;Node15 -->
<g id="edge20" class="edge">
<title>Node19&#45;&gt;Node15</title>
<path fill="none" stroke="#191970" d="M555.0485,-35.4065C659.6143,-29.0225 857.35,-16.9502 932.7514,-12.3468"/>
<polygon fill="#191970" stroke="#191970" points="933.1948,-15.8263 942.9629,-11.7233 932.7681,-8.8393 933.1948,-15.8263"/>
</g>
<!-- Node19&#45;&gt;Node18 -->
<g id="edge21" class="edge">
<title>Node19&#45;&gt;Node18</title>
<path fill="none" stroke="#191970" d="M548.5171,-49.5355C569.9362,-53.0874 594.218,-57.114 616.4012,-60.7927"/>
<polygon fill="#191970" stroke="#191970" points="615.9901,-64.2722 626.4279,-62.4554 617.1353,-57.3665 615.9901,-64.2722"/>
</g>
</g>
</svg>
