<?xml version="1.0" encoding="UTF-8" standalone="no"?>
<!DOCTYPE svg PUBLIC "-//W3C//DTD SVG 1.1//EN"
 "http://www.w3.org/Graphics/SVG/1.1/DTD/svg11.dtd">
<!-- Generated by graphviz version 2.40.1 (20161225.0304)
 -->
<!-- Title: acts/blob/sPHENIX/Examples/Framework/include/ActsExamples/EventData/ExtractedSimulationProcess.hpp Pages: 1 -->
<svg width="1022pt" height="356pt"
 viewBox="0.00 0.00 1022.00 356.00" xmlns="http://www.w3.org/2000/svg" xmlns:xlink="http://www.w3.org/1999/xlink">
<g id="graph0" class="graph" transform="scale(1 1) rotate(0) translate(4 352)">
<title>acts/blob/sPHENIX/Examples/Framework/include/ActsExamples/EventData/ExtractedSimulationProcess.hpp</title>
<!-- Node1 -->
<g id="node1" class="node">
<title>Node1</title>
<polygon fill="#bfbfbf" stroke="#000000" points="395.5,-303.5 395.5,-347.5 636.5,-347.5 636.5,-303.5 395.5,-303.5"/>
<text text-anchor="start" x="403.5" y="-334.5" font-family="FreeSans" font-size="10.00" fill="#000000">acts/blob/sPHENIX/Examples</text>
<text text-anchor="start" x="403.5" y="-322.5" font-family="FreeSans" font-size="10.00" fill="#000000">/Framework/include/ActsExamples</text>
<text text-anchor="middle" x="516" y="-310.5" font-family="FreeSans" font-size="10.00" fill="#000000">/EventData/ExtractedSimulationProcess.hpp</text>
</g>
<!-- Node2 -->
<g id="node2" class="node">
<title>Node2</title>
<g id="a_node2"><a xlink:href="../../d3/d37/HepMCProcessExtractor_8hpp.html" target="_top" xlink:title="acts/blob/sPHENIX/Examples\l/Algorithms/HepMC/include\l/ActsExamples/HepMC/HepMCProcessExtractor.hpp">
<polygon fill="none" stroke="#000000" points="198,-210.5 198,-254.5 474,-254.5 474,-210.5 198,-210.5"/>
<text text-anchor="start" x="206" y="-241.5" font-family="FreeSans" font-size="10.00" fill="#000000">acts/blob/sPHENIX/Examples</text>
<text text-anchor="start" x="206" y="-229.5" font-family="FreeSans" font-size="10.00" fill="#000000">/Algorithms/HepMC/include</text>
<text text-anchor="middle" x="336" y="-217.5" font-family="FreeSans" font-size="10.00" fill="#000000">/ActsExamples/HepMC/HepMCProcessExtractor.hpp</text>
</a>
</g>
</g>
<!-- Node1&#45;&gt;Node2 -->
<g id="edge1" class="edge">
<title>Node1&#45;&gt;Node2</title>
<path fill="none" stroke="#191970" d="M464.3746,-298.8269C437.2278,-284.801 404.3497,-267.814 378.6628,-254.5425"/>
<polygon fill="#191970" stroke="#191970" points="462.8517,-301.9795 473.3425,-303.4603 466.0648,-295.7605 462.8517,-301.9795"/>
</g>
<!-- Node6 -->
<g id="node6" class="node">
<title>Node6</title>
<g id="a_node6"><a xlink:href="../../d9/d69/NuclearInteractionParametrisation_8hpp.html" target="_top" xlink:title="acts/blob/sPHENIX/Examples\l/Io/NuclearInteractions\l/include/ActsExamples/Io\l/NuclearInteractions/detail\l/NuclearInteractionParametrisation.hpp">
<polygon fill="none" stroke="#000000" points="544.5,-198.5 544.5,-266.5 761.5,-266.5 761.5,-198.5 544.5,-198.5"/>
<text text-anchor="start" x="552.5" y="-253.5" font-family="FreeSans" font-size="10.00" fill="#000000">acts/blob/sPHENIX/Examples</text>
<text text-anchor="start" x="552.5" y="-241.5" font-family="FreeSans" font-size="10.00" fill="#000000">/Io/NuclearInteractions</text>
<text text-anchor="start" x="552.5" y="-229.5" font-family="FreeSans" font-size="10.00" fill="#000000">/include/ActsExamples/Io</text>
<text text-anchor="start" x="552.5" y="-217.5" font-family="FreeSans" font-size="10.00" fill="#000000">/NuclearInteractions/detail</text>
<text text-anchor="middle" x="653" y="-205.5" font-family="FreeSans" font-size="10.00" fill="#000000">/NuclearInteractionParametrisation.hpp</text>
</a>
</g>
</g>
<!-- Node1&#45;&gt;Node6 -->
<g id="edge5" class="edge">
<title>Node1&#45;&gt;Node6</title>
<path fill="none" stroke="#191970" d="M557.1365,-297.5753C571.5048,-287.8216 587.7953,-276.7631 602.8173,-266.5656"/>
<polygon fill="#191970" stroke="#191970" points="554.7751,-294.9479 548.4671,-303.4603 558.7066,-300.7396 554.7751,-294.9479"/>
</g>
<!-- Node7 -->
<g id="node7" class="node">
<title>Node7</title>
<g id="a_node7"><a xlink:href="../../dd/d57/RootNuclearInteractionParametersWriter_8hpp.html" target="_top" xlink:title="acts/blob/sPHENIX/Examples\l/Io/NuclearInteractions\l/include/ActsExamples/Io\l/NuclearInteractions/RootNuclearInteraction\lParametersWriter.hpp">
<polygon fill="none" stroke="#000000" points="490.5,-93.5 490.5,-161.5 729.5,-161.5 729.5,-93.5 490.5,-93.5"/>
<text text-anchor="start" x="498.5" y="-148.5" font-family="FreeSans" font-size="10.00" fill="#000000">acts/blob/sPHENIX/Examples</text>
<text text-anchor="start" x="498.5" y="-136.5" font-family="FreeSans" font-size="10.00" fill="#000000">/Io/NuclearInteractions</text>
<text text-anchor="start" x="498.5" y="-124.5" font-family="FreeSans" font-size="10.00" fill="#000000">/include/ActsExamples/Io</text>
<text text-anchor="start" x="498.5" y="-112.5" font-family="FreeSans" font-size="10.00" fill="#000000">/NuclearInteractions/RootNuclearInteraction</text>
<text text-anchor="middle" x="610" y="-100.5" font-family="FreeSans" font-size="10.00" fill="#000000">ParametersWriter.hpp</text>
</a>
</g>
</g>
<!-- Node1&#45;&gt;Node7 -->
<g id="edge11" class="edge">
<title>Node1&#45;&gt;Node7</title>
<path fill="none" stroke="#191970" d="M515.0683,-293.364C515.5831,-266.445 519.4269,-227.7587 535,-198 542.0429,-184.5417 552.6773,-172.2482 563.7417,-161.8299"/>
<polygon fill="#191970" stroke="#191970" points="511.5682,-293.3966 515.0197,-303.4135 518.5681,-293.4306 511.5682,-293.3966"/>
</g>
<!-- Node3 -->
<g id="node3" class="node">
<title>Node3</title>
<g id="a_node3"><a xlink:href="../../d3/d13/HepMCProcessExtractor_8cpp.html" target="_top" xlink:title="acts/blob/sPHENIX/Examples\l/Algorithms/HepMC/src/HepMCProcess\lExtractor.cpp">
<polygon fill="none" stroke="#000000" points="0,-105.5 0,-149.5 210,-149.5 210,-105.5 0,-105.5"/>
<text text-anchor="start" x="8" y="-136.5" font-family="FreeSans" font-size="10.00" fill="#000000">acts/blob/sPHENIX/Examples</text>
<text text-anchor="start" x="8" y="-124.5" font-family="FreeSans" font-size="10.00" fill="#000000">/Algorithms/HepMC/src/HepMCProcess</text>
<text text-anchor="middle" x="105" y="-112.5" font-family="FreeSans" font-size="10.00" fill="#000000">Extractor.cpp</text>
</a>
</g>
</g>
<!-- Node2&#45;&gt;Node3 -->
<g id="edge2" class="edge">
<title>Node2&#45;&gt;Node3</title>
<path fill="none" stroke="#191970" d="M278.0905,-206.1775C239.7626,-188.7557 190.0638,-166.1654 153.7587,-149.663"/>
<polygon fill="#191970" stroke="#191970" points="277.0228,-209.5368 287.5748,-210.4886 279.9195,-203.1642 277.0228,-209.5368"/>
</g>
<!-- Node4 -->
<g id="node4" class="node">
<title>Node4</title>
<g id="a_node4"><a xlink:href="../../d4/d05/HepMC3_8cpp.html" target="_top" xlink:title="acts/blob/sPHENIX/Examples\l/Python/src/HepMC3.cpp">
<polygon fill="none" stroke="#000000" points="228.5,-111.5 228.5,-143.5 389.5,-143.5 389.5,-111.5 228.5,-111.5"/>
<text text-anchor="start" x="236.5" y="-130.5" font-family="FreeSans" font-size="10.00" fill="#000000">acts/blob/sPHENIX/Examples</text>
<text text-anchor="middle" x="309" y="-118.5" font-family="FreeSans" font-size="10.00" fill="#000000">/Python/src/HepMC3.cpp</text>
</a>
</g>
</g>
<!-- Node2&#45;&gt;Node4 -->
<g id="edge3" class="edge">
<title>Node2&#45;&gt;Node4</title>
<path fill="none" stroke="#191970" d="M327.7836,-200.5472C322.9478,-181.7415 317.0382,-158.7595 313.1545,-143.6564"/>
<polygon fill="#191970" stroke="#191970" points="324.4597,-201.6753 330.3399,-210.4886 331.2392,-199.932 324.4597,-201.6753"/>
</g>
<!-- Node5 -->
<g id="node5" class="node">
<title>Node5</title>
<g id="a_node5"><a xlink:href="../../df/d11/HepMC3HistogramExample_8cpp.html" target="_top" xlink:title="acts/blob/sPHENIX/Examples\l/Run/HepMC3/HepMC3HistogramExample.cpp">
<polygon fill="none" stroke="#000000" points="286,-12.5 286,-44.5 536,-44.5 536,-12.5 286,-12.5"/>
<text text-anchor="start" x="294" y="-31.5" font-family="FreeSans" font-size="10.00" fill="#000000">acts/blob/sPHENIX/Examples</text>
<text text-anchor="middle" x="411" y="-19.5" font-family="FreeSans" font-size="10.00" fill="#000000">/Run/HepMC3/HepMC3HistogramExample.cpp</text>
</a>
</g>
</g>
<!-- Node2&#45;&gt;Node5 -->
<g id="edge4" class="edge">
<title>Node2&#45;&gt;Node5</title>
<path fill="none" stroke="#191970" d="M369.2256,-203.1197C380.2605,-191.4642 391.4034,-177.2107 398,-162 415.0481,-122.69 414.3054,-70.9218 412.5391,-44.9117"/>
<polygon fill="#191970" stroke="#191970" points="366.5812,-200.8162 362.0386,-210.3878 371.5586,-205.7381 366.5812,-200.8162"/>
</g>
<!-- Node6&#45;&gt;Node7 -->
<g id="edge6" class="edge">
<title>Node6&#45;&gt;Node7</title>
<path fill="none" stroke="#191970" d="M635.2265,-189.0995C631.4954,-179.9887 627.6098,-170.5007 624.038,-161.7788"/>
<polygon fill="#191970" stroke="#191970" points="632.0104,-190.4819 639.0391,-198.4095 638.4882,-187.829 632.0104,-190.4819"/>
</g>
<!-- Node10 -->
<g id="node10" class="node">
<title>Node10</title>
<g id="a_node10"><a xlink:href="../../da/d33/NuclearInteractionParametrisation_8cpp.html" target="_top" xlink:title="acts/blob/sPHENIX/Examples\l/Io/NuclearInteractions\l/src/detail/NuclearInteractionParametrisation.cpp">
<polygon fill="none" stroke="#000000" points="748,-105.5 748,-149.5 1014,-149.5 1014,-105.5 748,-105.5"/>
<text text-anchor="start" x="756" y="-136.5" font-family="FreeSans" font-size="10.00" fill="#000000">acts/blob/sPHENIX/Examples</text>
<text text-anchor="start" x="756" y="-124.5" font-family="FreeSans" font-size="10.00" fill="#000000">/Io/NuclearInteractions</text>
<text text-anchor="middle" x="881" y="-112.5" font-family="FreeSans" font-size="10.00" fill="#000000">/src/detail/NuclearInteractionParametrisation.cpp</text>
</a>
</g>
</g>
<!-- Node6&#45;&gt;Node10 -->
<g id="edge10" class="edge">
<title>Node6&#45;&gt;Node10</title>
<path fill="none" stroke="#191970" d="M736.1258,-194.2184C768.7703,-179.1847 805.0679,-162.4687 833.1647,-149.5294"/>
<polygon fill="#191970" stroke="#191970" points="734.6441,-191.0474 727.0251,-198.4095 737.5722,-197.4055 734.6441,-191.0474"/>
</g>
<!-- Node7&#45;&gt;Node5 -->
<g id="edge9" class="edge">
<title>Node7&#45;&gt;Node5</title>
<path fill="none" stroke="#191970" d="M532.4336,-88.9117C501.4288,-73.4872 467.4339,-56.5752 443.3186,-44.5781"/>
<polygon fill="#191970" stroke="#191970" points="531.0033,-92.1093 541.5155,-93.4298 534.1212,-85.842 531.0033,-92.1093"/>
</g>
<!-- Node8 -->
<g id="node8" class="node">
<title>Node8</title>
<g id="a_node8"><a xlink:href="../../da/d73/RootNuclearInteractionParametersWriter_8cpp.html" target="_top" xlink:title="acts/blob/sPHENIX/Examples\l/Io/NuclearInteractions\l/src/RootNuclearInteractionParameters\lWriter.cpp">
<polygon fill="none" stroke="#000000" points="553.5,-.5 553.5,-56.5 766.5,-56.5 766.5,-.5 553.5,-.5"/>
<text text-anchor="start" x="561.5" y="-43.5" font-family="FreeSans" font-size="10.00" fill="#000000">acts/blob/sPHENIX/Examples</text>
<text text-anchor="start" x="561.5" y="-31.5" font-family="FreeSans" font-size="10.00" fill="#000000">/Io/NuclearInteractions</text>
<text text-anchor="start" x="561.5" y="-19.5" font-family="FreeSans" font-size="10.00" fill="#000000">/src/RootNuclearInteractionParameters</text>
<text text-anchor="middle" x="660" y="-7.5" font-family="FreeSans" font-size="10.00" fill="#000000">Writer.cpp</text>
</a>
</g>
</g>
<!-- Node7&#45;&gt;Node8 -->
<g id="edge7" class="edge">
<title>Node7&#45;&gt;Node8</title>
<path fill="none" stroke="#191970" d="M631.8424,-84.2521C636.5536,-74.9239 641.4168,-65.2947 645.7483,-56.7183"/>
<polygon fill="#191970" stroke="#191970" points="628.5912,-82.9258 627.2072,-93.4298 634.8395,-86.0815 628.5912,-82.9258"/>
</g>
<!-- Node9 -->
<g id="node9" class="node">
<title>Node9</title>
<g id="a_node9"><a xlink:href="../../d0/d98/Output_8cpp.html" target="_top" xlink:title="acts/blob/sPHENIX/Examples\l/Python/src/Output.cpp">
<polygon fill="none" stroke="#000000" points="784.5,-12.5 784.5,-44.5 945.5,-44.5 945.5,-12.5 784.5,-12.5"/>
<text text-anchor="start" x="792.5" y="-31.5" font-family="FreeSans" font-size="10.00" fill="#000000">acts/blob/sPHENIX/Examples</text>
<text text-anchor="middle" x="865" y="-19.5" font-family="FreeSans" font-size="10.00" fill="#000000">/Python/src/Output.cpp</text>
</a>
</g>
</g>
<!-- Node7&#45;&gt;Node9 -->
<g id="edge8" class="edge">
<title>Node7&#45;&gt;Node9</title>
<path fill="none" stroke="#191970" d="M707.0966,-89.8037C747.4365,-74.1423 792.0884,-56.8069 823.5867,-44.5781"/>
<polygon fill="#191970" stroke="#191970" points="705.8119,-86.5478 697.7565,-93.4298 708.3454,-93.0733 705.8119,-86.5478"/>
</g>
</g>
</svg>
