<?xml version="1.0" encoding="UTF-8" standalone="no"?>
<!DOCTYPE svg PUBLIC "-//W3C//DTD SVG 1.1//EN"
 "http://www.w3.org/Graphics/SVG/1.1/DTD/svg11.dtd">
<!-- Generated by graphviz version 2.40.1 (20161225.0304)
 -->
<!-- Title: BEmcRecCEMC::BEmcRecCEMC Pages: 1 -->
<svg width="409pt" height="68pt"
 viewBox="0.00 0.00 409.00 68.00" xmlns="http://www.w3.org/2000/svg" xmlns:xlink="http://www.w3.org/1999/xlink">
<g id="graph0" class="graph" transform="scale(1 1) rotate(0) translate(4 64)">
<title>BEmcRecCEMC::BEmcRecCEMC</title>
<!-- Node1 -->
<g id="node1" class="node">
<title>Node1</title>
<polygon fill="#bfbfbf" stroke="#000000" points="0,-19.5 0,-39.5 175,-39.5 175,-19.5 0,-19.5"/>
<text text-anchor="middle" x="87.5" y="-26.5" font-family="FreeSans" font-size="10.00" fill="#000000">BEmcRecCEMC::BEmcRecCEMC</text>
</g>
<!-- Node2 -->
<g id="node2" class="node">
<title>Node2</title>
<g id="a_node2"><a xlink:href="../../df/d23/classBEmcRec.html#a36251060e9e09a7bb931e7e7e9d947a5" target="_top" xlink:title="BEmcRec::Name">
<polygon fill="none" stroke="#000000" points="256.5,-39.5 256.5,-59.5 355.5,-59.5 355.5,-39.5 256.5,-39.5"/>
<text text-anchor="middle" x="306" y="-46.5" font-family="FreeSans" font-size="10.00" fill="#000000">BEmcRec::Name</text>
</a>
</g>
</g>
<!-- Node1&#45;&gt;Node2 -->
<g id="edge1" class="edge">
<title>Node1&#45;&gt;Node2</title>
<path fill="none" stroke="#191970" d="M175.1133,-37.5195C198.9947,-39.7055 224.3129,-42.0229 246.2532,-44.0312"/>
<polygon fill="#191970" stroke="#191970" points="246.1266,-47.5341 256.404,-44.9603 246.7647,-40.5633 246.1266,-47.5341"/>
</g>
<!-- Node3 -->
<g id="node3" class="node">
<title>Node3</title>
<g id="a_node3"><a xlink:href="../../df/d23/classBEmcRec.html#a9410db00f4de361d4778eb644cf768a4" target="_top" xlink:title="BEmcRec::SetCylindricalGeometry">
<polygon fill="none" stroke="#000000" points="211,-.5 211,-20.5 401,-20.5 401,-.5 211,-.5"/>
<text text-anchor="middle" x="306" y="-7.5" font-family="FreeSans" font-size="10.00" fill="#000000">BEmcRec::SetCylindricalGeometry</text>
</a>
</g>
</g>
<!-- Node1&#45;&gt;Node3 -->
<g id="edge2" class="edge">
<title>Node1&#45;&gt;Node3</title>
<path fill="none" stroke="#191970" d="M175.1133,-21.8815C183.5615,-21.1468 192.1895,-20.3966 200.7842,-19.6492"/>
<polygon fill="#191970" stroke="#191970" points="201.1863,-23.1275 210.8455,-18.7743 200.5799,-16.1538 201.1863,-23.1275"/>
</g>
</g>
</svg>
