<?xml version="1.0" encoding="UTF-8" standalone="no"?>
<!DOCTYPE svg PUBLIC "-//W3C//DTD SVG 1.1//EN"
 "http://www.w3.org/Graphics/SVG/1.1/DTD/svg11.dtd">
<!-- Generated by graphviz version 2.40.1 (20161225.0304)
 -->
<!-- Title: acts/blob/sPHENIX/Core/src/Visualization/EventDataView3D.cpp Pages: 1 -->
<svg width="3292pt" height="707pt"
 viewBox="0.00 0.00 3291.50 707.00" xmlns="http://www.w3.org/2000/svg" xmlns:xlink="http://www.w3.org/1999/xlink">
<g id="graph0" class="graph" transform="scale(1 1) rotate(0) translate(4 703)">
<title>acts/blob/sPHENIX/Core/src/Visualization/EventDataView3D.cpp</title>
<!-- Node1 -->
<g id="node1" class="node">
<title>Node1</title>
<polygon fill="#bfbfbf" stroke="#000000" points="2352,-654.5 2352,-698.5 2511,-698.5 2511,-654.5 2352,-654.5"/>
<text text-anchor="start" x="2360" y="-685.5" font-family="FreeSans" font-size="10.00" fill="#000000">acts/blob/sPHENIX/Core</text>
<text text-anchor="start" x="2360" y="-673.5" font-family="FreeSans" font-size="10.00" fill="#000000">/src/Visualization/EventData</text>
<text text-anchor="middle" x="2431.5" y="-661.5" font-family="FreeSans" font-size="10.00" fill="#000000">View3D.cpp</text>
</g>
<!-- Node2 -->
<g id="node2" class="node">
<title>Node2</title>
<g id="a_node2"><a xlink:href="../../d3/dba/EventDataView3D_8hpp.html" target="_top" xlink:title="Acts/Visualization\l/EventDataView3D.hpp">
<polygon fill="none" stroke="#000000" points="2364.5,-585.5 2364.5,-617.5 2498.5,-617.5 2498.5,-585.5 2364.5,-585.5"/>
<text text-anchor="start" x="2372.5" y="-604.5" font-family="FreeSans" font-size="10.00" fill="#000000">Acts/Visualization</text>
<text text-anchor="middle" x="2431.5" y="-592.5" font-family="FreeSans" font-size="10.00" fill="#000000">/EventDataView3D.hpp</text>
</a>
</g>
</g>
<!-- Node1&#45;&gt;Node2 -->
<g id="edge1" class="edge">
<title>Node1&#45;&gt;Node2</title>
<path fill="none" stroke="#191970" d="M2431.5,-654.4032C2431.5,-646.0476 2431.5,-636.4571 2431.5,-627.7565"/>
<polygon fill="#191970" stroke="#191970" points="2435.0001,-627.7277 2431.5,-617.7277 2428.0001,-627.7277 2435.0001,-627.7277"/>
</g>
<!-- Node3 -->
<g id="node3" class="node">
<title>Node3</title>
<g id="a_node3"><a xlink:href="../../d4/d9f/MultiTrajectory_8hpp.html" target="_top" xlink:title="Acts/EventData/MultiTrajectory.hpp">
<polygon fill="none" stroke="#000000" points="370.5,-528.5 370.5,-548.5 564.5,-548.5 564.5,-528.5 370.5,-528.5"/>
<text text-anchor="middle" x="467.5" y="-535.5" font-family="FreeSans" font-size="10.00" fill="#000000">Acts/EventData/MultiTrajectory.hpp</text>
</a>
</g>
</g>
<!-- Node2&#45;&gt;Node3 -->
<g id="edge2" class="edge">
<title>Node2&#45;&gt;Node3</title>
<path fill="none" stroke="#191970" d="M2364.4628,-599.3496C2075.1337,-590.0687 931.9387,-553.398 574.7355,-541.9398"/>
<polygon fill="#191970" stroke="#191970" points="574.7605,-538.4389 564.6534,-541.6164 574.536,-545.4353 574.7605,-538.4389"/>
</g>
<!-- Node5 -->
<g id="node5" class="node">
<title>Node5</title>
<g id="a_node5"><a xlink:href="../../d8/ddd/Surface_8hpp.html" target="_top" xlink:title="Acts/Surfaces/Surface.hpp">
<polygon fill="none" stroke="#000000" points="2117.5,-408.5 2117.5,-428.5 2267.5,-428.5 2267.5,-408.5 2117.5,-408.5"/>
<text text-anchor="middle" x="2192.5" y="-415.5" font-family="FreeSans" font-size="10.00" fill="#000000">Acts/Surfaces/Surface.hpp</text>
</a>
</g>
</g>
<!-- Node2&#45;&gt;Node5 -->
<g id="edge115" class="edge">
<title>Node2&#45;&gt;Node5</title>
<path fill="none" stroke="#191970" d="M2410.2903,-585.26C2364.8916,-550.4986 2258.7666,-469.2397 2213.5292,-434.6019"/>
<polygon fill="#191970" stroke="#191970" points="2215.6416,-431.8112 2205.574,-428.5106 2211.386,-437.369 2215.6416,-431.8112"/>
</g>
<!-- Node9 -->
<g id="node9" class="node">
<title>Node9</title>
<g id="a_node9"><a xlink:href="../../db/d40/Polyhedron_8hpp.html" target="_top" xlink:title="Acts/Geometry/Polyhedron.hpp">
<polygon fill="none" stroke="#000000" points="1376,-270.5 1376,-290.5 1551,-290.5 1551,-270.5 1376,-270.5"/>
<text text-anchor="middle" x="1463.5" y="-277.5" font-family="FreeSans" font-size="10.00" fill="#000000">Acts/Geometry/Polyhedron.hpp</text>
</a>
</g>
</g>
<!-- Node2&#45;&gt;Node9 -->
<g id="edge93" class="edge">
<title>Node2&#45;&gt;Node9</title>
<path fill="none" stroke="#191970" d="M2364.3785,-597.9418C2120.7733,-584.5911 1297.5,-535.4789 1297.5,-481.5 1297.5,-481.5 1297.5,-481.5 1297.5,-418.5 1297.5,-353.6757 1373.2815,-313.4505 1422.4396,-294.1765"/>
<polygon fill="#191970" stroke="#191970" points="1423.7731,-297.4142 1431.8859,-290.6 1421.2945,-290.8677 1423.7731,-297.4142"/>
</g>
<!-- Node13 -->
<g id="node13" class="node">
<title>Node13</title>
<g id="a_node13"><a xlink:href="../../d6/d1d/Definitions_8hpp.html" target="_top" xlink:title="Acts/Utilities/Definitions.hpp">
<polygon fill="none" stroke="#ff0000" points="2053.5,-.5 2053.5,-20.5 2213.5,-20.5 2213.5,-.5 2053.5,-.5"/>
<text text-anchor="middle" x="2133.5" y="-7.5" font-family="FreeSans" font-size="10.00" fill="#000000">Acts/Utilities/Definitions.hpp</text>
</a>
</g>
</g>
<!-- Node2&#45;&gt;Node13 -->
<g id="edge122" class="edge">
<title>Node2&#45;&gt;Node13</title>
<path fill="none" stroke="#191970" d="M2498.7107,-599.0857C2699.8949,-590.9737 3283.5,-560.6229 3283.5,-481.5 3283.5,-481.5 3283.5,-481.5 3283.5,-142.5 3283.5,-91.0629 3252.0969,-78.7831 3205.5,-57 3161.3909,-36.3799 2474.1355,-18.4217 2223.8096,-12.5339"/>
<polygon fill="#191970" stroke="#191970" points="2223.734,-9.0313 2213.6548,-12.296 2223.57,-16.0293 2223.734,-9.0313"/>
</g>
<!-- Node14 -->
<g id="node14" class="node">
<title>Node14</title>
<g id="a_node14"><a xlink:href="../../d9/d70/Core_2include_2Acts_2Utilities_2Helpers_8hpp.html" target="_top" xlink:title="Acts/Utilities/Helpers.hpp">
<polygon fill="none" stroke="#ff0000" points="996,-132.5 996,-152.5 1141,-152.5 1141,-132.5 996,-132.5"/>
<text text-anchor="middle" x="1068.5" y="-139.5" font-family="FreeSans" font-size="10.00" fill="#000000">Acts/Utilities/Helpers.hpp</text>
</a>
</g>
</g>
<!-- Node2&#45;&gt;Node14 -->
<g id="edge123" class="edge">
<title>Node2&#45;&gt;Node14</title>
<path fill="none" stroke="#191970" d="M2364.292,-600.0023C2110.175,-594.1839 1216.0739,-572.2496 1090.5,-549 998.6668,-531.9974 891.5,-574.8939 891.5,-481.5 891.5,-481.5 891.5,-481.5 891.5,-349.5 891.5,-258.4698 991.6,-187.2869 1041.2453,-157.581"/>
<polygon fill="#191970" stroke="#191970" points="1043.0288,-160.5925 1049.8924,-152.5215 1039.4937,-154.5507 1043.0288,-160.5925"/>
</g>
<!-- Node34 -->
<g id="node34" class="node">
<title>Node34</title>
<polygon fill="none" stroke="#bfbfbf" points="1186,-270.5 1186,-290.5 1243,-290.5 1243,-270.5 1186,-270.5"/>
<text text-anchor="middle" x="1214.5" y="-277.5" font-family="FreeSans" font-size="10.00" fill="#000000">optional</text>
</g>
<!-- Node2&#45;&gt;Node34 -->
<g id="edge141" class="edge">
<title>Node2&#45;&gt;Node34</title>
<path fill="none" stroke="#191970" d="M2364.2659,-599.822C2177.3099,-594.8302 1653.911,-578.5514 1484.5,-549 1306.9032,-518.0207 1203.8055,-526.903 1122.5,-366 1115.8853,-352.9096 1115.1347,-345.6832 1122.5,-333 1129.2668,-321.3474 1158.4345,-305.8317 1182.1389,-294.6943"/>
<polygon fill="#191970" stroke="#191970" points="1183.6059,-297.8721 1191.2247,-290.5098 1180.6776,-291.514 1183.6059,-297.8721"/>
</g>
<!-- Node40 -->
<g id="node40" class="node">
<title>Node40</title>
<g id="a_node40"><a xlink:href="../../d8/d1e/CylinderBounds_8hpp.html" target="_top" xlink:title="Acts/Surfaces/CylinderBounds.hpp">
<polygon fill="none" stroke="#000000" points="2825.5,-270.5 2825.5,-290.5 3017.5,-290.5 3017.5,-270.5 2825.5,-270.5"/>
<text text-anchor="middle" x="2921.5" y="-277.5" font-family="FreeSans" font-size="10.00" fill="#000000">Acts/Surfaces/CylinderBounds.hpp</text>
</a>
</g>
</g>
<!-- Node2&#45;&gt;Node40 -->
<g id="edge94" class="edge">
<title>Node2&#45;&gt;Node40</title>
<path fill="none" stroke="#191970" d="M2498.6698,-598.1463C2687.1831,-587.8452 3207.5,-552.9421 3207.5,-481.5 3207.5,-481.5 3207.5,-481.5 3207.5,-418.5 3207.5,-369.9471 3180.439,-359.1033 3139.5,-333 3115.1653,-317.4838 3045.8899,-302.3297 2991.8949,-292.3232"/>
<polygon fill="#191970" stroke="#191970" points="2992.4713,-288.8707 2982.005,-290.5158 2991.2128,-295.7566 2992.4713,-288.8707"/>
</g>
<!-- Node42 -->
<g id="node42" class="node">
<title>Node42</title>
<g id="a_node42"><a xlink:href="../../d4/d17/CylinderSurface_8hpp.html" target="_top" xlink:title="Acts/Surfaces/CylinderSurface.hpp">
<polygon fill="none" stroke="#000000" points="2536.5,-471.5 2536.5,-491.5 2728.5,-491.5 2728.5,-471.5 2536.5,-471.5"/>
<text text-anchor="middle" x="2632.5" y="-478.5" font-family="FreeSans" font-size="10.00" fill="#000000">Acts/Surfaces/CylinderSurface.hpp</text>
</a>
</g>
</g>
<!-- Node2&#45;&gt;Node42 -->
<g id="edge103" class="edge">
<title>Node2&#45;&gt;Node42</title>
<path fill="none" stroke="#191970" d="M2459.5499,-585.3139C2477.3457,-575.0014 2500.8304,-561.3119 2521.5,-549 2551.1334,-531.3487 2584.9739,-510.6982 2607.4199,-496.9309"/>
<polygon fill="#191970" stroke="#191970" points="2609.3171,-499.8732 2616.0079,-491.6582 2605.6546,-493.9077 2609.3171,-499.8732"/>
</g>
<!-- Node45 -->
<g id="node45" class="node">
<title>Node45</title>
<g id="a_node45"><a xlink:href="../../d5/dcd/FacesHelper_8hpp.html" target="_top" xlink:title="Acts/Surfaces/detail\l/FacesHelper.hpp">
<polygon fill="none" stroke="#000000" points="958,-333.5 958,-365.5 1075,-365.5 1075,-333.5 958,-333.5"/>
<text text-anchor="start" x="966" y="-352.5" font-family="FreeSans" font-size="10.00" fill="#000000">Acts/Surfaces/detail</text>
<text text-anchor="middle" x="1016.5" y="-340.5" font-family="FreeSans" font-size="10.00" fill="#000000">/FacesHelper.hpp</text>
</a>
</g>
</g>
<!-- Node2&#45;&gt;Node45 -->
<g id="edge116" class="edge">
<title>Node2&#45;&gt;Node45</title>
<path fill="none" stroke="#191970" d="M2364.0981,-600.6752C2103.3167,-597.2439 1172.3759,-582.6757 1119.5,-549 1057.5387,-509.538 1030.9849,-420.058 1021.2865,-375.5907"/>
<polygon fill="#191970" stroke="#191970" points="1024.6665,-374.6509 1019.2209,-365.5627 1017.8104,-376.0632 1024.6665,-374.6509"/>
</g>
<!-- Node47 -->
<g id="node47" class="node">
<title>Node47</title>
<g id="a_node47"><a xlink:href="../../d0/d5d/UnitVectors_8hpp.html" target="_top" xlink:title="Acts/Utilities/UnitVectors.hpp">
<polygon fill="none" stroke="#000000" points="2103.5,-201.5 2103.5,-221.5 2267.5,-221.5 2267.5,-201.5 2103.5,-201.5"/>
<text text-anchor="middle" x="2185.5" y="-208.5" font-family="FreeSans" font-size="10.00" fill="#000000">Acts/Utilities/UnitVectors.hpp</text>
</a>
</g>
</g>
<!-- Node2&#45;&gt;Node47 -->
<g id="edge124" class="edge">
<title>Node2&#45;&gt;Node47</title>
<path fill="none" stroke="#191970" d="M2436.1865,-585.3301C2450.5539,-532.0455 2488.2424,-359.923 2406.5,-264 2389.4991,-244.0498 2330.5639,-230.6625 2277.8289,-222.4017"/>
<polygon fill="#191970" stroke="#191970" points="2278.1348,-218.9081 2267.7229,-220.868 2277.0845,-225.8289 2278.1348,-218.9081"/>
</g>
<!-- Node48 -->
<g id="node48" class="node">
<title>Node48</title>
<g id="a_node48"><a xlink:href="../../dd/d22/GeometryView3D_8hpp.html" target="_top" xlink:title="Acts/Visualization\l/GeometryView3D.hpp">
<polygon fill="none" stroke="#ff0000" points="2711.5,-402.5 2711.5,-434.5 2843.5,-434.5 2843.5,-402.5 2711.5,-402.5"/>
<text text-anchor="start" x="2719.5" y="-421.5" font-family="FreeSans" font-size="10.00" fill="#000000">Acts/Visualization</text>
<text text-anchor="middle" x="2777.5" y="-409.5" font-family="FreeSans" font-size="10.00" fill="#000000">/GeometryView3D.hpp</text>
</a>
</g>
</g>
<!-- Node2&#45;&gt;Node48 -->
<g id="edge129" class="edge">
<title>Node2&#45;&gt;Node48</title>
<path fill="none" stroke="#191970" d="M2498.7598,-591.7419C2565.8937,-578.982 2668.7059,-550.8945 2737.5,-492 2752.1657,-479.4447 2762.3841,-460.1184 2768.8205,-444.4342"/>
<polygon fill="#191970" stroke="#191970" points="2772.2165,-445.3517 2772.5127,-434.761 2765.6767,-442.8555 2772.2165,-445.3517"/>
</g>
<!-- Node49 -->
<g id="node49" class="node">
<title>Node49</title>
<g id="a_node49"><a xlink:href="../../d7/dd4/IVisualization3D_8hpp.html" target="_top" xlink:title="Acts/Visualization\l/IVisualization3D.hpp">
<polygon fill="none" stroke="#ff0000" points="2643.5,-333.5 2643.5,-365.5 2767.5,-365.5 2767.5,-333.5 2643.5,-333.5"/>
<text text-anchor="start" x="2651.5" y="-352.5" font-family="FreeSans" font-size="10.00" fill="#000000">Acts/Visualization</text>
<text text-anchor="middle" x="2705.5" y="-340.5" font-family="FreeSans" font-size="10.00" fill="#000000">/IVisualization3D.hpp</text>
</a>
</g>
</g>
<!-- Node2&#45;&gt;Node49 -->
<g id="edge139" class="edge">
<title>Node2&#45;&gt;Node49</title>
<path fill="none" stroke="#191970" d="M2438.0752,-585.303C2454.0995,-547.7653 2498.7349,-454.0615 2564.5,-402 2584.5704,-386.1117 2609.9368,-374.6943 2633.6034,-366.6531"/>
<polygon fill="#191970" stroke="#191970" points="2634.8375,-369.9324 2643.2705,-363.5188 2632.6785,-363.2737 2634.8375,-369.9324"/>
</g>
<!-- Node50 -->
<g id="node50" class="node">
<title>Node50</title>
<g id="a_node50"><a xlink:href="../../d2/d68/ViewConfig_8hpp.html" target="_top" xlink:title="Acts/Visualization\l/ViewConfig.hpp">
<polygon fill="none" stroke="#000000" points="2701.5,-264.5 2701.5,-296.5 2807.5,-296.5 2807.5,-264.5 2701.5,-264.5"/>
<text text-anchor="start" x="2709.5" y="-283.5" font-family="FreeSans" font-size="10.00" fill="#000000">Acts/Visualization</text>
<text text-anchor="middle" x="2754.5" y="-271.5" font-family="FreeSans" font-size="10.00" fill="#000000">/ViewConfig.hpp</text>
</a>
</g>
</g>
<!-- Node2&#45;&gt;Node50 -->
<g id="edge140" class="edge">
<title>Node2&#45;&gt;Node50</title>
<path fill="none" stroke="#191970" d="M2498.5294,-588.8829C2656.1515,-557.6657 3042.3341,-471.6401 3112.5,-366 3217.6859,-207.6346 3361.7769,-400.1504 2817.9228,-297.1272"/>
<polygon fill="#191970" stroke="#191970" points="2818.3049,-293.6369 2807.8254,-295.1956 2816.9896,-300.5123 2818.3049,-293.6369"/>
</g>
<!-- Node4 -->
<g id="node4" class="node">
<title>Node4</title>
<g id="a_node4"><a xlink:href="../../d7/d77/Measurement_8hpp.html" target="_top" xlink:title="Acts/EventData/Measurement.hpp">
<polygon fill="none" stroke="#ff0000" points="559.5,-471.5 559.5,-491.5 749.5,-491.5 749.5,-471.5 559.5,-471.5"/>
<text text-anchor="middle" x="654.5" y="-478.5" font-family="FreeSans" font-size="10.00" fill="#000000">Acts/EventData/Measurement.hpp</text>
</a>
</g>
</g>
<!-- Node3&#45;&gt;Node4 -->
<g id="edge3" class="edge">
<title>Node3&#45;&gt;Node4</title>
<path fill="none" stroke="#191970" d="M500.5014,-528.4408C531.5166,-518.9869 578.096,-504.7889 611.9035,-494.484"/>
<polygon fill="#191970" stroke="#191970" points="612.9696,-497.8181 621.5145,-491.5544 610.9285,-491.1222 612.9696,-497.8181"/>
</g>
<!-- Node7 -->
<g id="node7" class="node">
<title>Node7</title>
<g id="a_node7"><a xlink:href="../../d1/db8/GeometryContext_8hpp.html" target="_top" xlink:title="Acts/Geometry/GeometryContext.hpp">
<polygon fill="none" stroke="#ff0000" points="1929.5,-270.5 1929.5,-290.5 2137.5,-290.5 2137.5,-270.5 1929.5,-270.5"/>
<text text-anchor="middle" x="2033.5" y="-277.5" font-family="FreeSans" font-size="10.00" fill="#000000">Acts/Geometry/GeometryContext.hpp</text>
</a>
</g>
</g>
<!-- Node3&#45;&gt;Node7 -->
<g id="edge78" class="edge">
<title>Node3&#45;&gt;Node7</title>
<path fill="none" stroke="#191970" d="M538.6364,-528.4974C604.3013,-519.2151 704.5162,-504.9245 791.5,-492 1156.2177,-437.8085 1257.0036,-467.4301 1611.5,-366 1647.2962,-355.7578 1652.6964,-343.2162 1688.5,-333 1701.1956,-329.3774 1856.5879,-306.3427 1954.4427,-292.0143"/>
<polygon fill="#191970" stroke="#191970" points="1955.2188,-295.4381 1964.6067,-290.527 1954.2053,-288.5118 1955.2188,-295.4381"/>
</g>
<!-- Node12 -->
<g id="node12" class="node">
<title>Node12</title>
<polygon fill="none" stroke="#bfbfbf" points="1239,-.5 1239,-20.5 1288,-20.5 1288,-.5 1239,-.5"/>
<text text-anchor="middle" x="1263.5" y="-7.5" font-family="FreeSans" font-size="10.00" fill="#000000">vector</text>
</g>
<!-- Node3&#45;&gt;Node12 -->
<g id="edge84" class="edge">
<title>Node3&#45;&gt;Node12</title>
<path fill="none" stroke="#191970" d="M467.9222,-528.1387C471.0303,-467.5614 495.8293,-158.4349 680.5,-57 728.505,-30.6321 1109.7301,-15.6797 1228.3795,-11.6309"/>
<polygon fill="#191970" stroke="#191970" points="1228.8291,-15.1178 1238.7058,-11.2835 1228.5937,-8.1218 1228.8291,-15.1178"/>
</g>
<!-- Node15 -->
<g id="node15" class="node">
<title>Node15</title>
<g id="a_node15"><a xlink:href="../../d8/dfd/ParameterDefinitions_8hpp.html" target="_top" xlink:title="Acts/Utilities/Parameter\lDefinitions.hpp">
<polygon fill="none" stroke="#000000" points="689.5,-57.5 689.5,-89.5 825.5,-89.5 825.5,-57.5 689.5,-57.5"/>
<text text-anchor="start" x="697.5" y="-76.5" font-family="FreeSans" font-size="10.00" fill="#000000">Acts/Utilities/Parameter</text>
<text text-anchor="middle" x="757.5" y="-64.5" font-family="FreeSans" font-size="10.00" fill="#000000">Definitions.hpp</text>
</a>
</g>
</g>
<!-- Node3&#45;&gt;Node15 -->
<g id="edge79" class="edge">
<title>Node3&#45;&gt;Node15</title>
<path fill="none" stroke="#191970" d="M478.0944,-528.1856C486.8436,-519.2357 499.1395,-505.6105 507.5,-492 599.6023,-342.0616 540.2058,-256.2721 658.5,-126 670.6354,-112.6358 686.9798,-102.0623 702.8878,-94.0122"/>
<polygon fill="#191970" stroke="#191970" points="704.665,-97.0417 712.1686,-89.562 701.6383,-90.7298 704.665,-97.0417"/>
</g>
<!-- Node16 -->
<g id="node16" class="node">
<title>Node16</title>
<polygon fill="none" stroke="#bfbfbf" points="485.5,-.5 485.5,-20.5 555.5,-20.5 555.5,-.5 485.5,-.5"/>
<text text-anchor="middle" x="520.5" y="-7.5" font-family="FreeSans" font-size="10.00" fill="#000000">type_traits</text>
</g>
<!-- Node3&#45;&gt;Node16 -->
<g id="edge83" class="edge">
<title>Node3&#45;&gt;Node16</title>
<path fill="none" stroke="#191970" d="M442.0138,-528.4466C404.4192,-511.7436 338.5,-474.4753 338.5,-418.5 338.5,-418.5 338.5,-418.5 338.5,-211.5 338.5,-172.573 341.7701,-157.9273 319.5,-126 302.5726,-101.7323 277.6783,-115.9699 263.5,-90 256.4719,-77.1269 254.0976,-68.2563 263.5,-57 289.9537,-25.3304 408.7051,-15.1883 475.1368,-11.9712"/>
<polygon fill="#191970" stroke="#191970" points="475.4951,-15.4587 485.3274,-11.5121 475.1799,-8.4658 475.4951,-15.4587"/>
</g>
<!-- Node17 -->
<g id="node17" class="node">
<title>Node17</title>
<g id="a_node17"><a xlink:href="../../d0/d81/TypeTraits_8hpp.html" target="_top" xlink:title="Acts/Utilities/TypeTraits.hpp">
<polygon fill="none" stroke="#ff0000" points="336.5,-63.5 336.5,-83.5 492.5,-83.5 492.5,-63.5 336.5,-63.5"/>
<text text-anchor="middle" x="414.5" y="-70.5" font-family="FreeSans" font-size="10.00" fill="#000000">Acts/Utilities/TypeTraits.hpp</text>
</a>
</g>
</g>
<!-- Node3&#45;&gt;Node17 -->
<g id="edge80" class="edge">
<title>Node3&#45;&gt;Node17</title>
<path fill="none" stroke="#191970" d="M461.3028,-528.3285C449.6198,-508.1548 425.5,-461.3207 425.5,-418.5 425.5,-418.5 425.5,-418.5 425.5,-211.5 425.5,-169.4399 420.3597,-120.3964 417.1068,-93.5718"/>
<polygon fill="#191970" stroke="#191970" points="420.5638,-93.0089 415.8488,-83.521 413.618,-93.8783 420.5638,-93.0089"/>
</g>
<!-- Node18 -->
<g id="node18" class="node">
<title>Node18</title>
<polygon fill="none" stroke="#bfbfbf" points="273,-63.5 273,-83.5 318,-83.5 318,-63.5 273,-63.5"/>
<text text-anchor="middle" x="295.5" y="-70.5" font-family="FreeSans" font-size="10.00" fill="#000000">bitset</text>
</g>
<!-- Node3&#45;&gt;Node18 -->
<g id="edge81" class="edge">
<title>Node3&#45;&gt;Node18</title>
<path fill="none" stroke="#191970" d="M453.6291,-528.3191C429.7708,-509.5148 383.5,-466.8176 383.5,-418.5 383.5,-418.5 383.5,-418.5 383.5,-211.5 383.5,-171.0794 374.8927,-159.6511 352.5,-126 343.2638,-112.1201 329.6131,-99.3759 317.986,-89.9202"/>
<polygon fill="#191970" stroke="#191970" points="320.0017,-87.0534 309.9693,-83.6471 315.6878,-92.5662 320.0017,-87.0534"/>
</g>
<!-- Node36 -->
<g id="node36" class="node">
<title>Node36</title>
<g id="a_node36"><a xlink:href="../../de/d73/TrackStatePropMask_8hpp.html" target="_top" xlink:title="Acts/EventData/TrackState\lPropMask.hpp">
<polygon fill="none" stroke="#000000" points="712,-195.5 712,-227.5 863,-227.5 863,-195.5 712,-195.5"/>
<text text-anchor="start" x="720" y="-214.5" font-family="FreeSans" font-size="10.00" fill="#000000">Acts/EventData/TrackState</text>
<text text-anchor="middle" x="787.5" y="-202.5" font-family="FreeSans" font-size="10.00" fill="#000000">PropMask.hpp</text>
</a>
</g>
</g>
<!-- Node3&#45;&gt;Node36 -->
<g id="edge75" class="edge">
<title>Node3&#45;&gt;Node36</title>
<path fill="none" stroke="#191970" d="M564.5948,-534.2311C637.9234,-528.9982 730.5417,-517.4333 758.5,-492 783.4585,-469.2955 777.5,-452.2405 777.5,-418.5 777.5,-418.5 777.5,-418.5 777.5,-349.5 777.5,-310.4806 781.5262,-265.4173 784.4691,-237.6899"/>
<polygon fill="#191970" stroke="#191970" points="787.9625,-237.9408 785.5719,-227.6192 781.0041,-237.1787 787.9625,-237.9408"/>
</g>
<!-- Node37 -->
<g id="node37" class="node">
<title>Node37</title>
<polygon fill="none" stroke="#bfbfbf" points="0,-63.5 0,-83.5 51,-83.5 51,-63.5 0,-63.5"/>
<text text-anchor="middle" x="25.5" y="-70.5" font-family="FreeSans" font-size="10.00" fill="#000000">cstdint</text>
</g>
<!-- Node3&#45;&gt;Node37 -->
<g id="edge82" class="edge">
<title>Node3&#45;&gt;Node37</title>
<path fill="none" stroke="#191970" d="M370.3771,-529.6671C290.2945,-521.4468 183.5885,-508.0661 143.5,-492 91.2981,-471.0792 40.5,-474.738 40.5,-418.5 40.5,-418.5 40.5,-418.5 40.5,-211.5 40.5,-169.326 33.4905,-120.3243 29.0548,-93.5376"/>
<polygon fill="#191970" stroke="#191970" points="32.4744,-92.7696 27.3393,-83.5023 25.5744,-93.9491 32.4744,-92.7696"/>
</g>
<!-- Node38 -->
<g id="node38" class="node">
<title>Node38</title>
<polygon fill="none" stroke="#bfbfbf" points="69,-63.5 69,-83.5 140,-83.5 140,-63.5 69,-63.5"/>
<text text-anchor="middle" x="104.5" y="-70.5" font-family="FreeSans" font-size="10.00" fill="#000000">Eigen/Core</text>
</g>
<!-- Node3&#45;&gt;Node38 -->
<g id="edge85" class="edge">
<title>Node3&#45;&gt;Node38</title>
<path fill="none" stroke="#191970" d="M381.9375,-528.4879C271.2599,-513.1054 92.5,-478.9099 92.5,-418.5 92.5,-418.5 92.5,-418.5 92.5,-211.5 92.5,-169.4147 98.1076,-120.3804 101.6562,-93.5642"/>
<polygon fill="#191970" stroke="#191970" points="105.1429,-93.8986 103.0286,-83.5169 98.2073,-92.9512 105.1429,-93.8986"/>
</g>
<!-- Node39 -->
<g id="node39" class="node">
<title>Node39</title>
<g id="a_node39"><a xlink:href="../../d3/da7/MultiTrajectory_8ipp.html" target="_top" xlink:title="Acts/EventData/MultiTrajectory.ipp">
<polygon fill="none" stroke="#000000" points="120.5,-132.5 120.5,-152.5 310.5,-152.5 310.5,-132.5 120.5,-132.5"/>
<text text-anchor="middle" x="215.5" y="-139.5" font-family="FreeSans" font-size="10.00" fill="#000000">Acts/EventData/MultiTrajectory.ipp</text>
</a>
</g>
</g>
<!-- Node3&#45;&gt;Node39 -->
<g id="edge86" class="edge">
<title>Node3&#45;&gt;Node39</title>
<path fill="none" stroke="#191970" d="M399.0287,-528.4388C337.7466,-515.1017 257.5,-484.9506 257.5,-418.5 257.5,-418.5 257.5,-418.5 257.5,-280.5 257.5,-236.5039 237.7206,-187.903 225.309,-161.7368"/>
<polygon fill="#191970" stroke="#191970" points="228.3598,-160.0083 220.8193,-152.5658 222.0728,-163.0862 228.3598,-160.0083"/>
</g>
<!-- Node4&#45;&gt;Node5 -->
<g id="edge4" class="edge">
<title>Node4&#45;&gt;Node5</title>
<path fill="none" stroke="#191970" d="M749.5481,-477.6066C1028.2586,-466.19 1840.5314,-432.9174 2106.8427,-422.0087"/>
<polygon fill="#191970" stroke="#191970" points="2107.373,-425.49 2117.2213,-421.5836 2107.0864,-418.4959 2107.373,-425.49"/>
</g>
<!-- Node4&#45;&gt;Node15 -->
<g id="edge71" class="edge">
<title>Node4&#45;&gt;Node15</title>
<path fill="none" stroke="#191970" d="M653.3234,-471.2469C650.8839,-449.0714 645.5,-394.9803 645.5,-349.5 645.5,-349.5 645.5,-349.5 645.5,-211.5 645.5,-161.6484 690.1087,-119.7556 723.0206,-95.6314"/>
<polygon fill="#191970" stroke="#191970" points="725.3942,-98.2387 731.5234,-89.5967 721.3428,-92.5303 725.3942,-98.2387"/>
</g>
<!-- Node4&#45;&gt;Node16 -->
<g id="edge73" class="edge">
<title>Node4&#45;&gt;Node16</title>
<path fill="none" stroke="#191970" d="M649.5259,-471.1465C633.3996,-437.154 582.0728,-325.5554 555.5,-228 536.1052,-156.7969 526.0636,-69.3672 522.2939,-30.622"/>
<polygon fill="#191970" stroke="#191970" points="525.7757,-30.2635 521.3579,-20.6337 518.8062,-30.9167 525.7757,-30.2635"/>
</g>
<!-- Node21 -->
<g id="node21" class="node">
<title>Node21</title>
<polygon fill="none" stroke="#bfbfbf" points="843.5,-63.5 843.5,-83.5 901.5,-83.5 901.5,-63.5 843.5,-63.5"/>
<text text-anchor="middle" x="872.5" y="-70.5" font-family="FreeSans" font-size="10.00" fill="#000000">memory</text>
</g>
<!-- Node4&#45;&gt;Node21 -->
<g id="edge72" class="edge">
<title>Node4&#45;&gt;Node21</title>
<path fill="none" stroke="#191970" d="M658.2912,-471.3973C666.152,-449.514 683.5,-395.9571 683.5,-349.5 683.5,-349.5 683.5,-349.5 683.5,-280.5 683.5,-241.573 681.0218,-227.4653 702.5,-195 736.5445,-143.5402 800.393,-106.8269 839.414,-87.9806"/>
<polygon fill="#191970" stroke="#191970" points="841.2108,-91.0032 848.7664,-83.576 838.2282,-84.6703 841.2108,-91.0032"/>
</g>
<!-- Node22 -->
<g id="node22" class="node">
<title>Node22</title>
<polygon fill="none" stroke="#bfbfbf" points="1457,-132.5 1457,-152.5 1502,-152.5 1502,-132.5 1457,-132.5"/>
<text text-anchor="middle" x="1479.5" y="-139.5" font-family="FreeSans" font-size="10.00" fill="#000000">utility</text>
</g>
<!-- Node4&#45;&gt;Node22 -->
<g id="edge74" class="edge">
<title>Node4&#45;&gt;Node22</title>
<path fill="none" stroke="#191970" d="M666.9642,-471.4524C711.9067,-435.8484 871.0952,-315.1017 1024.5,-264 1160.7028,-218.6285 1210.148,-275.8499 1345.5,-228 1390.1861,-212.2025 1435.2266,-179.1181 1460.0325,-159.0528"/>
<polygon fill="#191970" stroke="#191970" points="1462.4358,-161.6077 1467.929,-152.5481 1457.9852,-156.2047 1462.4358,-161.6077"/>
</g>
<!-- Node6 -->
<g id="node6" class="node">
<title>Node6</title>
<g id="a_node6"><a xlink:href="../../dc/d45/DetectorElementBase_8hpp.html" target="_top" xlink:title="Acts/Geometry/DetectorElement\lBase.hpp">
<polygon fill="none" stroke="#ff0000" points="1697.5,-333.5 1697.5,-365.5 1879.5,-365.5 1879.5,-333.5 1697.5,-333.5"/>
<text text-anchor="start" x="1705.5" y="-352.5" font-family="FreeSans" font-size="10.00" fill="#000000">Acts/Geometry/DetectorElement</text>
<text text-anchor="middle" x="1788.5" y="-340.5" font-family="FreeSans" font-size="10.00" fill="#000000">Base.hpp</text>
</a>
</g>
</g>
<!-- Node5&#45;&gt;Node6 -->
<g id="edge5" class="edge">
<title>Node5&#45;&gt;Node6</title>
<path fill="none" stroke="#191970" d="M2133.7549,-408.4668C2069.9801,-397.5746 1966.9553,-379.9788 1890.0208,-366.839"/>
<polygon fill="#191970" stroke="#191970" points="1890.2684,-363.3306 1879.8219,-365.0971 1889.0899,-370.2307 1890.2684,-363.3306"/>
</g>
<!-- Node5&#45;&gt;Node7 -->
<g id="edge6" class="edge">
<title>Node5&#45;&gt;Node7</title>
<path fill="none" stroke="#191970" d="M2200.1837,-408.4951C2212.3254,-391.3789 2232.8731,-356.093 2215.5,-333 2202.0366,-315.1039 2151.3832,-301.39 2106.9229,-292.4736"/>
<polygon fill="#191970" stroke="#191970" points="2107.445,-289.0096 2096.9603,-290.5332 2106.1067,-295.8805 2107.445,-289.0096"/>
</g>
<!-- Node8 -->
<g id="node8" class="node">
<title>Node8</title>
<g id="a_node8"><a xlink:href="../../da/de0/GeometryObject_8hpp.html" target="_top" xlink:title="Acts/Geometry/GeometryObject.hpp">
<polygon fill="none" stroke="#ff0000" points="1402,-339.5 1402,-359.5 1603,-359.5 1603,-339.5 1402,-339.5"/>
<text text-anchor="middle" x="1502.5" y="-346.5" font-family="FreeSans" font-size="10.00" fill="#000000">Acts/Geometry/GeometryObject.hpp</text>
</a>
</g>
</g>
<!-- Node5&#45;&gt;Node8 -->
<g id="edge7" class="edge">
<title>Node5&#45;&gt;Node8</title>
<path fill="none" stroke="#191970" d="M2117.4822,-412.8893C2007.5875,-404.3893 1796.4571,-386.9939 1617.5,-366 1604.7294,-364.5018 1591.1877,-362.7266 1578.0508,-360.9053"/>
<polygon fill="#191970" stroke="#191970" points="1578.4932,-357.4331 1568.1034,-359.5073 1577.519,-364.365 1578.4932,-357.4331"/>
</g>
<!-- Node5&#45;&gt;Node9 -->
<g id="edge44" class="edge">
<title>Node5&#45;&gt;Node9</title>
<path fill="none" stroke="#191970" d="M2117.4436,-416.3227C1923.1448,-410.3231 1417.0738,-392.2393 1392.5,-366 1370.4832,-342.4909 1407.3702,-313.2859 1435.7024,-295.8097"/>
<polygon fill="#191970" stroke="#191970" points="1437.7084,-298.689 1444.515,-290.5699 1434.1308,-292.6722 1437.7084,-298.689"/>
</g>
<!-- Node11 -->
<g id="node11" class="node">
<title>Node11</title>
<g id="a_node11"><a xlink:href="../../de/d09/BinningType_8hpp.html" target="_top" xlink:title="Acts/Utilities/BinningType.hpp">
<polygon fill="none" stroke="#ff0000" points="1123.5,-63.5 1123.5,-83.5 1291.5,-83.5 1291.5,-63.5 1123.5,-63.5"/>
<text text-anchor="middle" x="1207.5" y="-70.5" font-family="FreeSans" font-size="10.00" fill="#000000">Acts/Utilities/BinningType.hpp</text>
</a>
</g>
</g>
<!-- Node5&#45;&gt;Node11 -->
<g id="edge60" class="edge">
<title>Node5&#45;&gt;Node11</title>
<path fill="none" stroke="#191970" d="M2117.0527,-418.1602C1853.7067,-416.609 989.054,-408.3016 948.5,-366 897.8583,-313.176 1144.0144,-165.0794 1149.5,-159 1168.3579,-138.1007 1185.8919,-110.6933 1196.6381,-92.6116"/>
<polygon fill="#191970" stroke="#191970" points="1199.8634,-94.0282 1201.8751,-83.6261 1193.8157,-90.5033 1199.8634,-94.0282"/>
</g>
<!-- Node5&#45;&gt;Node13 -->
<g id="edge61" class="edge">
<title>Node5&#45;&gt;Node13</title>
<path fill="none" stroke="#191970" d="M2233.4761,-408.4654C2308.6439,-388.0293 2456.4858,-337.2361 2406.5,-264 2381.7475,-227.7341 2349.1839,-254.9245 2314.5,-228 2240.5484,-170.5926 2255.9472,-124.9044 2191.5,-57 2180.8802,-45.8105 2167.5328,-34.9326 2156.3202,-26.5147"/>
<polygon fill="#191970" stroke="#191970" points="2158.3768,-23.6826 2148.2425,-20.5926 2154.2379,-29.328 2158.3768,-23.6826"/>
</g>
<!-- Node5&#45;&gt;Node21 -->
<g id="edge69" class="edge">
<title>Node5&#45;&gt;Node21</title>
<path fill="none" stroke="#191970" d="M2117.2165,-417.8524C1853.3529,-415.2597 983.8824,-403.8662 938.5,-366 896.2548,-330.7514 878.776,-154.2952 873.9662,-93.8504"/>
<polygon fill="#191970" stroke="#191970" points="877.4408,-93.3831 873.1908,-83.6781 870.4611,-93.9152 877.4408,-93.3831"/>
</g>
<!-- Node23 -->
<g id="node23" class="node">
<title>Node23</title>
<g id="a_node23"><a xlink:href="../../d7/d50/BoundaryCheck_8hpp.html" target="_top" xlink:title="Acts/Surfaces/BoundaryCheck.hpp">
<polygon fill="none" stroke="#ff0000" points="1779.5,-132.5 1779.5,-152.5 1971.5,-152.5 1971.5,-132.5 1779.5,-132.5"/>
<text text-anchor="middle" x="1875.5" y="-139.5" font-family="FreeSans" font-size="10.00" fill="#000000">Acts/Surfaces/BoundaryCheck.hpp</text>
</a>
</g>
</g>
<!-- Node5&#45;&gt;Node23 -->
<g id="edge45" class="edge">
<title>Node5&#45;&gt;Node23</title>
<path fill="none" stroke="#191970" d="M2203.797,-408.3523C2220.359,-392.1917 2247.7928,-359.7063 2233.5,-333 2219.8895,-307.5686 2201.8066,-315.287 2179.5,-297 2163.4595,-283.8499 2165.1757,-273.0245 2146.5,-264 2083.659,-233.6337 1880.9369,-280.1031 1834.5,-228 1816.4822,-207.7837 1838.5492,-178.245 1856.6255,-159.712"/>
<polygon fill="#191970" stroke="#191970" points="1859.2961,-161.996 1863.9997,-152.5025 1854.4024,-156.9907 1859.2961,-161.996"/>
</g>
<!-- Node26 -->
<g id="node26" class="node">
<title>Node26</title>
<g id="a_node26"><a xlink:href="../../d5/dc6/GeometryStatics_8hpp.html" target="_top" xlink:title="Acts/Geometry/GeometryStatics.hpp">
<polygon fill="none" stroke="#000000" points="2900,-339.5 2900,-359.5 3103,-359.5 3103,-339.5 2900,-339.5"/>
<text text-anchor="middle" x="3001.5" y="-346.5" font-family="FreeSans" font-size="10.00" fill="#000000">Acts/Geometry/GeometryStatics.hpp</text>
</a>
</g>
</g>
<!-- Node5&#45;&gt;Node26 -->
<g id="edge42" class="edge">
<title>Node5&#45;&gt;Node26</title>
<path fill="none" stroke="#191970" d="M2267.5201,-412.1015C2410.4148,-399.9139 2722.2907,-373.3139 2889.8105,-359.026"/>
<polygon fill="#191970" stroke="#191970" points="2890.2273,-362.5033 2899.8937,-358.1661 2889.6324,-355.5286 2890.2273,-362.5033"/>
</g>
<!-- Node27 -->
<g id="node27" class="node">
<title>Node27</title>
<g id="a_node27"><a xlink:href="../../da/ddb/SurfaceBounds_8hpp.html" target="_top" xlink:title="Acts/Surfaces/SurfaceBounds.hpp">
<polygon fill="none" stroke="#ff0000" points="2539.5,-201.5 2539.5,-221.5 2727.5,-221.5 2727.5,-201.5 2539.5,-201.5"/>
<text text-anchor="middle" x="2633.5" y="-208.5" font-family="FreeSans" font-size="10.00" fill="#000000">Acts/Surfaces/SurfaceBounds.hpp</text>
</a>
</g>
</g>
<!-- Node5&#45;&gt;Node27 -->
<g id="edge46" class="edge">
<title>Node5&#45;&gt;Node27</title>
<path fill="none" stroke="#191970" d="M2267.511,-411.669C2318.0211,-404.9171 2385.0861,-391.6825 2439.5,-366 2514.1621,-330.7606 2585.8179,-261.6314 2617.0828,-229.1515"/>
<polygon fill="#191970" stroke="#191970" points="2619.7872,-231.3865 2624.1385,-221.7264 2614.7128,-226.5645 2619.7872,-231.3865"/>
</g>
<!-- Node28 -->
<g id="node28" class="node">
<title>Node28</title>
<g id="a_node28"><a xlink:href="../../d7/d3a/SurfaceError_8hpp.html" target="_top" xlink:title="Acts/Surfaces/SurfaceError.hpp">
<polygon fill="none" stroke="#ff0000" points="1897.5,-339.5 1897.5,-359.5 2071.5,-359.5 2071.5,-339.5 1897.5,-339.5"/>
<text text-anchor="middle" x="1984.5" y="-346.5" font-family="FreeSans" font-size="10.00" fill="#000000">Acts/Surfaces/SurfaceError.hpp</text>
</a>
</g>
</g>
<!-- Node5&#45;&gt;Node28 -->
<g id="edge49" class="edge">
<title>Node5&#45;&gt;Node28</title>
<path fill="none" stroke="#191970" d="M2162.255,-408.4668C2125.8235,-396.3814 2064.5142,-376.0432 2024.2785,-362.6958"/>
<polygon fill="#191970" stroke="#191970" points="2025.3749,-359.372 2014.7815,-359.5453 2023.1709,-366.0159 2025.3749,-359.372"/>
</g>
<!-- Node29 -->
<g id="node29" class="node">
<title>Node29</title>
<g id="a_node29"><a xlink:href="../../d9/da9/AlignmentHelper_8hpp.html" target="_top" xlink:title="Acts/Surfaces/detail\l/AlignmentHelper.hpp">
<polygon fill="none" stroke="#000000" points="1507.5,-195.5 1507.5,-227.5 1635.5,-227.5 1635.5,-195.5 1507.5,-195.5"/>
<text text-anchor="start" x="1515.5" y="-214.5" font-family="FreeSans" font-size="10.00" fill="#000000">Acts/Surfaces/detail</text>
<text text-anchor="middle" x="1571.5" y="-202.5" font-family="FreeSans" font-size="10.00" fill="#000000">/AlignmentHelper.hpp</text>
</a>
</g>
</g>
<!-- Node5&#45;&gt;Node29 -->
<g id="edge50" class="edge">
<title>Node5&#45;&gt;Node29</title>
<path fill="none" stroke="#191970" d="M2117.3116,-413.9716C1985.9224,-405.5732 1724.9756,-386.5575 1688.5,-366 1635.9867,-336.4037 1599.6721,-272.5641 1582.6024,-236.9052"/>
<polygon fill="#191970" stroke="#191970" points="1585.6886,-235.2409 1578.3008,-227.6467 1579.3403,-238.1904 1585.6886,-235.2409"/>
</g>
<!-- Node30 -->
<g id="node30" class="node">
<title>Node30</title>
<g id="a_node30"><a xlink:href="../../d7/d26/AlignmentDefinitions_8hpp.html" target="_top" xlink:title="Acts/Utilities/Alignment\lDefinitions.hpp">
<polygon fill="none" stroke="#000000" points="2843.5,-126.5 2843.5,-158.5 2979.5,-158.5 2979.5,-126.5 2843.5,-126.5"/>
<text text-anchor="start" x="2851.5" y="-145.5" font-family="FreeSans" font-size="10.00" fill="#000000">Acts/Utilities/Alignment</text>
<text text-anchor="middle" x="2911.5" y="-133.5" font-family="FreeSans" font-size="10.00" fill="#000000">Definitions.hpp</text>
</a>
</g>
</g>
<!-- Node5&#45;&gt;Node30 -->
<g id="edge54" class="edge">
<title>Node5&#45;&gt;Node30</title>
<path fill="none" stroke="#191970" d="M2267.5088,-411.457C2326.8477,-404.3315 2411.1367,-390.7218 2481.5,-366 2542.2897,-344.6419 2683.2906,-264.3362 2736.5,-228 2755.2508,-215.1952 2755.9707,-206.5828 2775.5,-195 2798.0763,-181.61 2824.6811,-170.4526 2848.345,-161.9166"/>
<polygon fill="#191970" stroke="#191970" points="2849.67,-165.1608 2857.9404,-158.5387 2847.3455,-158.558 2849.67,-165.1608"/>
</g>
<!-- Node31 -->
<g id="node31" class="node">
<title>Node31</title>
<g id="a_node31"><a xlink:href="../../d5/d50/BinnedArray_8hpp.html" target="_top" xlink:title="Acts/Utilities/BinnedArray.hpp">
<polygon fill="none" stroke="#ff0000" points="2231,-270.5 2231,-290.5 2398,-290.5 2398,-270.5 2231,-270.5"/>
<text text-anchor="middle" x="2314.5" y="-277.5" font-family="FreeSans" font-size="10.00" fill="#000000">Acts/Utilities/BinnedArray.hpp</text>
</a>
</g>
</g>
<!-- Node5&#45;&gt;Node31 -->
<g id="edge56" class="edge">
<title>Node5&#45;&gt;Node31</title>
<path fill="none" stroke="#191970" d="M2231.1994,-408.4379C2266.3917,-398.4123 2314.4686,-382.2142 2325.5,-366 2338.7829,-346.4764 2331.5139,-318.5403 2323.9809,-299.9779"/>
<polygon fill="#191970" stroke="#191970" points="2327.1425,-298.4733 2319.8976,-290.7427 2320.7404,-301.304 2327.1425,-298.4733"/>
</g>
<!-- Node32 -->
<g id="node32" class="node">
<title>Node32</title>
<g id="a_node32"><a xlink:href="../../db/d8d/Intersection_8hpp.html" target="_top" xlink:title="Acts/Utilities/Intersection.hpp">
<polygon fill="none" stroke="#000000" points="1843.5,-201.5 1843.5,-221.5 2009.5,-221.5 2009.5,-201.5 1843.5,-201.5"/>
<text text-anchor="middle" x="1926.5" y="-208.5" font-family="FreeSans" font-size="10.00" fill="#000000">Acts/Utilities/Intersection.hpp</text>
</a>
</g>
</g>
<!-- Node5&#45;&gt;Node32 -->
<g id="edge62" class="edge">
<title>Node5&#45;&gt;Node32</title>
<path fill="none" stroke="#191970" d="M2229.3592,-408.3803C2250.3751,-400.5109 2274.9574,-387.2618 2287.5,-366 2294.952,-353.3676 2294.9868,-345.6119 2287.5,-333 2270.4437,-304.268 2249.4002,-315.3855 2221.5,-297 2201.6776,-283.9375 2201.0256,-274.0102 2179.5,-264 2148.4185,-249.546 2064.2841,-233.6396 2001.5154,-223.1659"/>
<polygon fill="#191970" stroke="#191970" points="2002.0732,-219.7107 1991.6362,-221.5327 2000.9314,-226.617 2002.0732,-219.7107"/>
</g>
<!-- Node33 -->
<g id="node33" class="node">
<title>Node33</title>
<g id="a_node33"><a xlink:href="../../d3/db2/Result_8hpp.html" target="_top" xlink:title="Acts/Utilities/Result.hpp">
<polygon fill="none" stroke="#ff0000" points="1132,-339.5 1132,-359.5 1269,-359.5 1269,-339.5 1132,-339.5"/>
<text text-anchor="middle" x="1200.5" y="-346.5" font-family="FreeSans" font-size="10.00" fill="#000000">Acts/Utilities/Result.hpp</text>
</a>
</g>
</g>
<!-- Node5&#45;&gt;Node33 -->
<g id="edge65" class="edge">
<title>Node5&#45;&gt;Node33</title>
<path fill="none" stroke="#191970" d="M2117.473,-414.7911C1971.4187,-407.3452 1638.7414,-389.279 1359.5,-366 1333.3754,-363.8221 1304.882,-361.005 1279.3247,-358.3168"/>
<polygon fill="#191970" stroke="#191970" points="1279.6282,-354.8294 1269.3147,-357.2549 1278.8897,-361.7904 1279.6282,-354.8294"/>
</g>
<!-- Node35 -->
<g id="node35" class="node">
<title>Node35</title>
<g id="a_node35"><a xlink:href="../../dd/d76/Surface_8ipp.html" target="_top" xlink:title="Acts/Surfaces/detail\l/Surface.ipp">
<polygon fill="none" stroke="#000000" points="2090,-333.5 2090,-365.5 2207,-365.5 2207,-333.5 2090,-333.5"/>
<text text-anchor="start" x="2098" y="-352.5" font-family="FreeSans" font-size="10.00" fill="#000000">Acts/Surfaces/detail</text>
<text text-anchor="middle" x="2148.5" y="-340.5" font-family="FreeSans" font-size="10.00" fill="#000000">/Surface.ipp</text>
</a>
</g>
</g>
<!-- Node5&#45;&gt;Node35 -->
<g id="edge70" class="edge">
<title>Node5&#45;&gt;Node35</title>
<path fill="none" stroke="#191970" d="M2186.0076,-408.3188C2180.2929,-399.357 2171.7376,-385.9408 2164.2403,-374.1836"/>
<polygon fill="#191970" stroke="#191970" points="2167.1056,-372.1673 2158.7779,-365.6175 2161.2035,-375.931 2167.1056,-372.1673"/>
</g>
<!-- Node8&#45;&gt;Node7 -->
<g id="edge8" class="edge">
<title>Node8&#45;&gt;Node7</title>
<path fill="none" stroke="#191970" d="M1583.6474,-339.4884C1666.956,-329.1388 1800.3338,-312.3712 1915.5,-297 1927.634,-295.3805 1940.4638,-293.628 1953.0193,-291.8905"/>
<polygon fill="#191970" stroke="#191970" points="1953.5877,-295.3453 1963.0113,-290.5032 1952.6249,-288.4118 1953.5877,-295.3453"/>
</g>
<!-- Node8&#45;&gt;Node9 -->
<g id="edge9" class="edge">
<title>Node8&#45;&gt;Node9</title>
<path fill="none" stroke="#191970" d="M1496.7454,-339.3188C1490.8696,-328.9231 1481.6059,-312.5336 1474.348,-299.6927"/>
<polygon fill="#191970" stroke="#191970" points="1477.2458,-297.7064 1469.2782,-290.723 1471.1518,-301.1508 1477.2458,-297.7064"/>
</g>
<!-- Node8&#45;&gt;Node11 -->
<g id="edge39" class="edge">
<title>Node8&#45;&gt;Node11</title>
<path fill="none" stroke="#191970" d="M1517.9653,-339.3217C1541.6265,-322.5534 1581.8386,-288.5368 1559.5,-264 1501.95,-200.7869 1234.05,-291.2131 1176.5,-228 1166.6263,-217.1547 1174.6728,-209.5524 1176.5,-195 1178.953,-175.4639 1193.4173,-122.8727 1201.6938,-93.6943"/>
<polygon fill="#191970" stroke="#191970" points="1205.1457,-94.3522 1204.5249,-83.7755 1198.4146,-92.4309 1205.1457,-94.3522"/>
</g>
<!-- Node8&#45;&gt;Node13 -->
<g id="edge40" class="edge">
<title>Node8&#45;&gt;Node13</title>
<path fill="none" stroke="#191970" d="M1558.4732,-339.4408C1684.8467,-316.2911 1983.9859,-258.8685 2018.5,-228 2078.645,-174.2079 2033.854,-123.5391 2079.5,-57 2087.4828,-45.3633 2099.0722,-34.865 2109.4694,-26.8008"/>
<polygon fill="#191970" stroke="#191970" points="2111.8579,-29.3876 2117.8175,-20.6278 2107.696,-23.7593 2111.8579,-29.3876"/>
</g>
<!-- Node8&#45;&gt;Node14 -->
<g id="edge41" class="edge">
<title>Node8&#45;&gt;Node14</title>
<path fill="none" stroke="#191970" d="M1476.1177,-339.4811C1448.6763,-329.0212 1404.4944,-312.0716 1366.5,-297 1330.3661,-282.6664 1322.7436,-275.1366 1285.5,-264 1206.0823,-240.2525 1166.2571,-280.973 1102.5,-228 1082.8939,-211.7102 1074.5196,-182.5087 1070.9926,-162.8208"/>
<polygon fill="#191970" stroke="#191970" points="1074.4248,-162.1101 1069.4594,-152.7509 1067.5046,-163.1639 1074.4248,-162.1101"/>
</g>
<!-- Node10 -->
<g id="node10" class="node">
<title>Node10</title>
<g id="a_node10"><a xlink:href="../../dc/d2a/Extent_8hpp.html" target="_top" xlink:title="Acts/Geometry/Extent.hpp">
<polygon fill="none" stroke="#ff0000" points="1186,-201.5 1186,-221.5 1337,-221.5 1337,-201.5 1186,-201.5"/>
<text text-anchor="middle" x="1261.5" y="-208.5" font-family="FreeSans" font-size="10.00" fill="#000000">Acts/Geometry/Extent.hpp</text>
</a>
</g>
</g>
<!-- Node9&#45;&gt;Node10 -->
<g id="edge10" class="edge">
<title>Node9&#45;&gt;Node10</title>
<path fill="none" stroke="#191970" d="M1434.1275,-270.4668C1398.8217,-258.4069 1339.4577,-238.1291 1300.3792,-224.7805"/>
<polygon fill="#191970" stroke="#191970" points="1301.5025,-221.4657 1290.908,-221.5453 1299.2398,-228.0899 1301.5025,-221.4657"/>
</g>
<!-- Node9&#45;&gt;Node12 -->
<g id="edge38" class="edge">
<title>Node9&#45;&gt;Node12</title>
<path fill="none" stroke="#191970" d="M1375.6937,-271.7076C1285.4287,-261.9612 1151.3766,-245.3176 1102.5,-228 1045.9574,-207.9662 1016.1549,-211.1441 986.5,-159 931.0856,-61.5613 1142.9829,-24.8782 1228.8584,-14.188"/>
<polygon fill="#191970" stroke="#191970" points="1229.4046,-17.6477 1238.9175,-12.9835 1228.5723,-10.6973 1229.4046,-17.6477"/>
</g>
<!-- Node9&#45;&gt;Node13 -->
<g id="edge34" class="edge">
<title>Node9&#45;&gt;Node13</title>
<path fill="none" stroke="#191970" d="M1519.826,-270.4855C1566.2408,-261.1261 1627.15,-245.9272 1644.5,-228 1677.0349,-194.3827 1637.5198,-159.1806 1670.5,-126 1755.994,-39.9865 1816.7765,-86.1332 1934.5,-57 1983.3945,-44.9 2039.2596,-31.9198 2079.3269,-22.7568"/>
<polygon fill="#191970" stroke="#191970" points="2080.189,-26.1501 2089.1593,-20.5124 2078.6311,-19.3257 2080.189,-26.1501"/>
</g>
<!-- Node9&#45;&gt;Node14 -->
<g id="edge35" class="edge">
<title>Node9&#45;&gt;Node14</title>
<path fill="none" stroke="#191970" d="M1401.3807,-270.4413C1308.7147,-255.4181 1144.9114,-228.7833 1143.5,-228 1115.0329,-212.2009 1092.1227,-181.2841 1079.4207,-161.2782"/>
<polygon fill="#191970" stroke="#191970" points="1082.376,-159.4021 1074.1724,-152.6975 1076.4044,-163.0546 1082.376,-159.4021"/>
</g>
<!-- Node9&#45;&gt;Node23 -->
<g id="edge29" class="edge">
<title>Node9&#45;&gt;Node23</title>
<path fill="none" stroke="#191970" d="M1551.11,-271.5075C1605.2754,-264.0174 1675.4816,-250.7708 1734.5,-228 1780.0932,-210.409 1827.5759,-178.2614 1854.156,-158.7918"/>
<polygon fill="#191970" stroke="#191970" points="1856.3961,-161.4877 1862.3358,-152.7144 1852.2214,-155.8688 1856.3961,-161.4877"/>
</g>
<!-- Node24 -->
<g id="node24" class="node">
<title>Node24</title>
<polygon fill="none" stroke="#bfbfbf" points="2784,-201.5 2784,-221.5 2827,-221.5 2827,-201.5 2784,-201.5"/>
<text text-anchor="middle" x="2805.5" y="-208.5" font-family="FreeSans" font-size="10.00" fill="#000000">array</text>
</g>
<!-- Node9&#45;&gt;Node24 -->
<g id="edge36" class="edge">
<title>Node9&#45;&gt;Node24</title>
<path fill="none" stroke="#191970" d="M1551.293,-277.3462C1829.6932,-267.2838 2677.9611,-236.1283 2736.5,-228 2748.9553,-226.2706 2762.4502,-223.2963 2774.1746,-220.3452"/>
<polygon fill="#191970" stroke="#191970" points="2775.1617,-223.7048 2783.9515,-217.7895 2773.3914,-216.9324 2775.1617,-223.7048"/>
</g>
<!-- Node25 -->
<g id="node25" class="node">
<title>Node25</title>
<polygon fill="none" stroke="#bfbfbf" points="1679.5,-132.5 1679.5,-152.5 1723.5,-152.5 1723.5,-132.5 1679.5,-132.5"/>
<text text-anchor="middle" x="1701.5" y="-139.5" font-family="FreeSans" font-size="10.00" fill="#000000">limits</text>
</g>
<!-- Node9&#45;&gt;Node25 -->
<g id="edge37" class="edge">
<title>Node9&#45;&gt;Node25</title>
<path fill="none" stroke="#191970" d="M1551.0384,-273.8416C1615.3058,-266.9204 1694.8478,-253.3981 1715.5,-228 1730.6921,-209.3167 1721.4078,-180.5636 1712.3191,-161.6421"/>
<polygon fill="#191970" stroke="#191970" points="1715.4207,-160.0201 1707.7149,-152.7489 1709.2044,-163.2385 1715.4207,-160.0201"/>
</g>
<!-- Node10&#45;&gt;Node11 -->
<g id="edge11" class="edge">
<title>Node10&#45;&gt;Node11</title>
<path fill="none" stroke="#191970" d="M1257.4412,-201.1276C1248.4454,-178.1382 1226.7116,-122.5963 1215.1048,-92.9344"/>
<polygon fill="#191970" stroke="#191970" points="1218.3625,-91.6548 1211.4591,-83.6178 1211.8438,-94.2056 1218.3625,-91.6548"/>
</g>
<!-- Node10&#45;&gt;Node12 -->
<g id="edge28" class="edge">
<title>Node10&#45;&gt;Node12</title>
<path fill="none" stroke="#191970" d="M1268.204,-201.1927C1283.6449,-176.1019 1319.0192,-110.0171 1300.5,-57 1296.7237,-46.189 1289.266,-36.011 1282.0293,-27.9496"/>
<polygon fill="#191970" stroke="#191970" points="1284.4644,-25.4323 1275.0109,-20.6486 1279.4179,-30.2834 1284.4644,-25.4323"/>
</g>
<!-- Node10&#45;&gt;Node13 -->
<g id="edge13" class="edge">
<title>Node10&#45;&gt;Node13</title>
<path fill="none" stroke="#191970" d="M1272.0722,-201.0987C1302.4291,-171.9948 1393.7125,-89.7289 1487.5,-57 1538.5837,-39.1734 1878.0112,-21.8677 2043.3321,-14.3762"/>
<polygon fill="#191970" stroke="#191970" points="2043.6507,-17.8655 2053.4829,-13.9187 2043.3354,-10.8726 2043.6507,-17.8655"/>
</g>
<!-- Node10&#45;&gt;Node14 -->
<g id="edge14" class="edge">
<title>Node10&#45;&gt;Node14</title>
<path fill="none" stroke="#191970" d="M1233.4361,-201.4668C1199.8463,-189.458 1143.4646,-169.3008 1106.1226,-155.9506"/>
<polygon fill="#191970" stroke="#191970" points="1107.1923,-152.6161 1096.5977,-152.5453 1104.8358,-159.2075 1107.1923,-152.6161"/>
</g>
<!-- Node10&#45;&gt;Node22 -->
<g id="edge27" class="edge">
<title>Node10&#45;&gt;Node22</title>
<path fill="none" stroke="#191970" d="M1293.1991,-201.4668C1334.3276,-188.4491 1405.7081,-165.8562 1447.152,-152.7386"/>
<polygon fill="#191970" stroke="#191970" points="1448.2815,-156.0523 1456.7591,-149.6978 1446.1691,-149.3786 1448.2815,-156.0523"/>
</g>
<!-- Node11&#45;&gt;Node12 -->
<g id="edge12" class="edge">
<title>Node11&#45;&gt;Node12</title>
<path fill="none" stroke="#191970" d="M1216.4974,-63.378C1224.8568,-53.9736 1237.4947,-39.7559 1247.5613,-28.431"/>
<polygon fill="#191970" stroke="#191970" points="1250.3112,-30.6056 1254.3389,-20.8062 1245.0793,-25.955 1250.3112,-30.6056"/>
</g>
<!-- Node14&#45;&gt;Node11 -->
<g id="edge15" class="edge">
<title>Node14&#45;&gt;Node11</title>
<path fill="none" stroke="#191970" d="M1088.7118,-132.4668C1112.1828,-120.8157 1151.1054,-101.4944 1177.9649,-88.1613"/>
<polygon fill="#191970" stroke="#191970" points="1179.8629,-91.1267 1187.2638,-83.5453 1176.7504,-84.8567 1179.8629,-91.1267"/>
</g>
<!-- Node14&#45;&gt;Node12 -->
<g id="edge26" class="edge">
<title>Node14&#45;&gt;Node12</title>
<path fill="none" stroke="#191970" d="M1066.7916,-132.3188C1064.4451,-114.6138 1062.4544,-78.0363 1081.5,-57 1091.4363,-46.0251 1178.8453,-27.2242 1228.8231,-17.2212"/>
<polygon fill="#191970" stroke="#191970" points="1229.7507,-20.6055 1238.8783,-15.2262 1228.3884,-13.7393 1229.7507,-20.6055"/>
</g>
<!-- Node14&#45;&gt;Node13 -->
<g id="edge16" class="edge">
<title>Node14&#45;&gt;Node13</title>
<path fill="none" stroke="#191970" d="M1070.5508,-132.3711C1074.9272,-113.7083 1087.1045,-74.2292 1114.5,-57 1153.4562,-32.5002 1801.1236,-17.1268 2043.1848,-12.2138"/>
<polygon fill="#191970" stroke="#191970" points="2043.434,-15.7096 2053.3613,-12.0086 2043.2928,-8.711 2043.434,-15.7096"/>
</g>
<!-- Node14&#45;&gt;Node15 -->
<g id="edge17" class="edge">
<title>Node14&#45;&gt;Node15</title>
<path fill="none" stroke="#191970" d="M1023.2779,-132.4668C974.2277,-121.5843 895.0166,-104.0101 835.8093,-90.8741"/>
<polygon fill="#191970" stroke="#191970" points="836.265,-87.3902 825.7443,-88.641 834.7488,-94.224 836.265,-87.3902"/>
</g>
<!-- Node14&#45;&gt;Node17 -->
<g id="edge20" class="edge">
<title>Node14&#45;&gt;Node17</title>
<path fill="none" stroke="#191970" d="M995.6969,-134.8189C874.7424,-122.0577 632.8288,-96.5347 502.5019,-82.7846"/>
<polygon fill="#191970" stroke="#191970" points="502.8594,-79.303 492.5474,-81.7344 502.1249,-86.2643 502.8594,-79.303"/>
</g>
<!-- Node14&#45;&gt;Node18 -->
<g id="edge22" class="edge">
<title>Node14&#45;&gt;Node18</title>
<path fill="none" stroke="#191970" d="M995.7675,-141.0685C834.5766,-137.2938 451.7558,-124.8442 327.5,-90 325.3484,-89.3966 323.1737,-88.64 321.0243,-87.7847"/>
<polygon fill="#191970" stroke="#191970" points="322.4588,-84.592 311.9132,-83.5725 319.5213,-90.9459 322.4588,-84.592"/>
</g>
<!-- Node19 -->
<g id="node19" class="node">
<title>Node19</title>
<polygon fill="none" stroke="#bfbfbf" points="2379.5,-63.5 2379.5,-83.5 2427.5,-83.5 2427.5,-63.5 2379.5,-63.5"/>
<text text-anchor="middle" x="2403.5" y="-70.5" font-family="FreeSans" font-size="10.00" fill="#000000">cmath</text>
</g>
<!-- Node14&#45;&gt;Node19 -->
<g id="edge23" class="edge">
<title>Node14&#45;&gt;Node19</title>
<path fill="none" stroke="#191970" d="M1141.2435,-139.2675C1353.6676,-129.792 1970.7795,-101.9989 2172.5,-90 2242.3544,-85.8448 2323.9987,-79.7129 2369.1132,-76.2127"/>
<polygon fill="#191970" stroke="#191970" points="2369.5365,-79.6905 2379.2343,-75.4241 2368.9926,-72.7116 2369.5365,-79.6905"/>
</g>
<!-- Node20 -->
<g id="node20" class="node">
<title>Node20</title>
<polygon fill="none" stroke="#bfbfbf" points="2103.5,-63.5 2103.5,-83.5 2163.5,-83.5 2163.5,-63.5 2103.5,-63.5"/>
<text text-anchor="middle" x="2133.5" y="-70.5" font-family="FreeSans" font-size="10.00" fill="#000000">iostream</text>
</g>
<!-- Node14&#45;&gt;Node20 -->
<g id="edge24" class="edge">
<title>Node14&#45;&gt;Node20</title>
<path fill="none" stroke="#191970" d="M1141.2826,-137.7845C1347.8483,-124.4014 1933.12,-86.4824 2092.814,-76.136"/>
<polygon fill="#191970" stroke="#191970" points="2093.3854,-79.6064 2103.1381,-75.4671 2092.9327,-72.6211 2093.3854,-79.6064"/>
</g>
<!-- Node14&#45;&gt;Node21 -->
<g id="edge25" class="edge">
<title>Node14&#45;&gt;Node21</title>
<path fill="none" stroke="#191970" d="M1039.9999,-132.4668C1005.888,-120.458 948.6299,-100.3008 910.7074,-86.9506"/>
<polygon fill="#191970" stroke="#191970" points="911.6293,-83.5646 901.0345,-83.5453 909.3048,-90.1674 911.6293,-83.5646"/>
</g>
<!-- Node15&#45;&gt;Node13 -->
<g id="edge18" class="edge">
<title>Node15&#45;&gt;Node13</title>
<path fill="none" stroke="#191970" d="M825.8279,-58.2085C828.7509,-57.76 831.6508,-57.3535 834.5,-57 1068.9158,-27.9165 1788.6322,-15.3035 2043.1608,-11.6723"/>
<polygon fill="#191970" stroke="#191970" points="2043.525,-15.1676 2053.4745,-11.5265 2043.426,-8.1683 2043.525,-15.1676"/>
</g>
<!-- Node15&#45;&gt;Node16 -->
<g id="edge19" class="edge">
<title>Node15&#45;&gt;Node16</title>
<path fill="none" stroke="#191970" d="M697.0817,-57.4394C656.2152,-46.5762 603.1048,-32.4582 565.8449,-22.5537"/>
<polygon fill="#191970" stroke="#191970" points="566.3429,-19.0646 555.7793,-19.878 564.5445,-25.8297 566.3429,-19.0646"/>
</g>
<!-- Node17&#45;&gt;Node16 -->
<g id="edge21" class="edge">
<title>Node17&#45;&gt;Node16</title>
<path fill="none" stroke="#191970" d="M431.5307,-63.378C448.6071,-53.2288 475.1158,-37.4736 494.7597,-25.7985"/>
<polygon fill="#191970" stroke="#191970" points="496.7034,-28.7148 503.5115,-20.5969 493.127,-22.6974 496.7034,-28.7148"/>
</g>
<!-- Node23&#45;&gt;Node12 -->
<g id="edge33" class="edge">
<title>Node23&#45;&gt;Node12</title>
<path fill="none" stroke="#191970" d="M1866.41,-132.3425C1848.9683,-113.6321 1808.6866,-74.0766 1765.5,-57 1680.0961,-23.2301 1397.3792,-13.5785 1298.2294,-11.1962"/>
<polygon fill="#191970" stroke="#191970" points="1298.2186,-7.6951 1288.1407,-10.9639 1298.0575,-14.6933 1298.2186,-7.6951"/>
</g>
<!-- Node23&#45;&gt;Node13 -->
<g id="edge30" class="edge">
<title>Node23&#45;&gt;Node13</title>
<path fill="none" stroke="#191970" d="M1885.8389,-132.3554C1904.3474,-114.707 1945.0059,-78.2144 1985.5,-57 2014.3103,-41.9066 2048.8732,-30.7057 2077.3504,-23.0835"/>
<polygon fill="#191970" stroke="#191970" points="2078.3521,-26.4395 2087.1499,-20.5362 2076.591,-19.6647 2078.3521,-26.4395"/>
</g>
<!-- Node23&#45;&gt;Node15 -->
<g id="edge31" class="edge">
<title>Node23&#45;&gt;Node15</title>
<path fill="none" stroke="#191970" d="M1798.0472,-132.4928C1776.8277,-130.0433 1753.8033,-127.6537 1732.5,-126 1337.572,-95.3427 1232.5245,-139.2882 835.8522,-90.0326"/>
<polygon fill="#191970" stroke="#191970" points="836.1875,-86.5473 825.8298,-88.7761 835.3167,-93.493 836.1875,-86.5473"/>
</g>
<!-- Node23&#45;&gt;Node19 -->
<g id="edge32" class="edge">
<title>Node23&#45;&gt;Node19</title>
<path fill="none" stroke="#191970" d="M1952.2757,-132.4668C2068.8463,-117.2332 2285.7549,-88.8871 2369.3901,-77.9575"/>
<polygon fill="#191970" stroke="#191970" points="2369.9095,-81.4195 2379.3717,-76.6531 2369.0024,-74.4785 2369.9095,-81.4195"/>
</g>
<!-- Node26&#45;&gt;Node13 -->
<g id="edge43" class="edge">
<title>Node26&#45;&gt;Node13</title>
<path fill="none" stroke="#191970" d="M3030.4796,-339.3834C3076.0929,-321.3955 3159.5,-279.2417 3159.5,-211.5 3159.5,-211.5 3159.5,-211.5 3159.5,-142.5 3159.5,-103.0313 3166.3933,-81.5638 3135.5,-57 3100.1416,-28.886 2463.6852,-15.7961 2223.8919,-11.8465"/>
<polygon fill="#191970" stroke="#191970" points="2223.8633,-8.3457 2213.8075,-11.682 2223.7491,-15.3448 2223.8633,-8.3457"/>
</g>
<!-- Node27&#45;&gt;Node13 -->
<g id="edge48" class="edge">
<title>Node27&#45;&gt;Node13</title>
<path fill="none" stroke="#191970" d="M2624.447,-201.4396C2598.4133,-173.2327 2519.8608,-93.0999 2436.5,-57 2399.2258,-40.8582 2298.6731,-27.4335 2223.5573,-19.2247"/>
<polygon fill="#191970" stroke="#191970" points="2223.9192,-15.7436 2213.6015,-18.1508 2223.1684,-22.7032 2223.9192,-15.7436"/>
</g>
<!-- Node27&#45;&gt;Node23 -->
<g id="edge47" class="edge">
<title>Node27&#45;&gt;Node23</title>
<path fill="none" stroke="#191970" d="M2573.0545,-201.4912C2557.5814,-199.1421 2540.9487,-196.8017 2525.5,-195 2334.4443,-172.7183 2110.688,-156.888 1981.7871,-148.76"/>
<polygon fill="#191970" stroke="#191970" points="1981.7254,-145.2494 1971.526,-148.1166 1981.2873,-152.2356 1981.7254,-145.2494"/>
</g>
<!-- Node29&#45;&gt;Node12 -->
<g id="edge53" class="edge">
<title>Node29&#45;&gt;Node12</title>
<path fill="none" stroke="#191970" d="M1563.3589,-195.4189C1553.1813,-176.6624 1534.1831,-145.7164 1510.5,-126 1475.9511,-97.2377 1356.7128,-47.5798 1297.4638,-23.8624"/>
<polygon fill="#191970" stroke="#191970" points="1298.7365,-20.602 1288.1513,-20.1507 1296.1447,-27.1045 1298.7365,-20.602"/>
</g>
<!-- Node29&#45;&gt;Node13 -->
<g id="edge51" class="edge">
<title>Node29&#45;&gt;Node13</title>
<path fill="none" stroke="#191970" d="M1573.0976,-195.3227C1577.2353,-162.9884 1591.4331,-90.6076 1637.5,-57 1669.4418,-33.6972 1908.8236,-19.9593 2042.9986,-14.0116"/>
<polygon fill="#191970" stroke="#191970" points="2043.428,-17.4963 2053.2655,-13.5626 2043.1221,-10.5029 2043.428,-17.4963"/>
</g>
<!-- Node29&#45;&gt;Node22 -->
<g id="edge52" class="edge">
<title>Node29&#45;&gt;Node22</title>
<path fill="none" stroke="#191970" d="M1550.1621,-195.4966C1535.4303,-184.4477 1515.9073,-169.8055 1501.1158,-158.7118"/>
<polygon fill="#191970" stroke="#191970" points="1503.1255,-155.8441 1493.0255,-152.6441 1498.9255,-161.4442 1503.1255,-155.8441"/>
</g>
<!-- Node30&#45;&gt;Node13 -->
<g id="edge55" class="edge">
<title>Node30&#45;&gt;Node13</title>
<path fill="none" stroke="#191970" d="M2867.2713,-126.4427C2811.3025,-106.8071 2711.5681,-74.0835 2623.5,-57 2485.5623,-30.2428 2322.6673,-18.6743 2223.7831,-13.8218"/>
<polygon fill="#191970" stroke="#191970" points="2223.6851,-10.3132 2213.5293,-13.3315 2223.3506,-17.3052 2223.6851,-10.3132"/>
</g>
<!-- Node31&#45;&gt;Node12 -->
<g id="edge59" class="edge">
<title>Node31&#45;&gt;Node12</title>
<path fill="none" stroke="#191970" d="M2230.9603,-271.992C2098.5377,-258.4158 1853.3832,-232.8802 1834.5,-228 1644.1388,-178.8023 1612.0312,-122.0841 1426.5,-57 1382.7125,-41.6394 1331.0236,-27.5592 1297.781,-19.0101"/>
<polygon fill="#191970" stroke="#191970" points="1298.6403,-15.6173 1288.0857,-16.5392 1296.9115,-22.4005 1298.6403,-15.6173"/>
</g>
<!-- Node31&#45;&gt;Node13 -->
<g id="edge57" class="edge">
<title>Node31&#45;&gt;Node13</title>
<path fill="none" stroke="#191970" d="M2256.6237,-270.4909C2194.9138,-259.2333 2104.643,-240.8482 2094.5,-228 2047.4082,-168.348 2068.5146,-128.4196 2094.5,-57 2098.4988,-46.0094 2106.362,-35.8076 2113.9867,-27.7768"/>
<polygon fill="#191970" stroke="#191970" points="2116.6945,-30.0233 2121.3799,-20.5208 2111.7913,-25.0274 2116.6945,-30.0233"/>
</g>
<!-- Node31&#45;&gt;Node24 -->
<g id="edge58" class="edge">
<title>Node31&#45;&gt;Node24</title>
<path fill="none" stroke="#191970" d="M2398.1875,-272.8528C2483.6324,-264.3984 2619.9035,-249.1263 2736.5,-228 2748.8733,-225.7581 2762.3517,-222.6801 2774.0857,-219.7894"/>
<polygon fill="#191970" stroke="#191970" points="2775.0347,-223.1598 2783.8769,-217.3232 2773.3248,-216.3718 2775.0347,-223.1598"/>
</g>
<!-- Node32&#45;&gt;Node13 -->
<g id="edge64" class="edge">
<title>Node32&#45;&gt;Node13</title>
<path fill="none" stroke="#191970" d="M1939.5157,-201.4364C1951.4601,-191.6545 1968.9957,-175.8439 1980.5,-159 2008.2471,-118.3743 1988.7296,-91.8046 2023.5,-57 2038.9893,-41.4955 2060.4412,-30.867 2080.291,-23.7312"/>
<polygon fill="#191970" stroke="#191970" points="2081.5145,-27.0123 2089.8736,-20.5026 2079.2795,-20.3787 2081.5145,-27.0123"/>
</g>
<!-- Node32&#45;&gt;Node25 -->
<g id="edge63" class="edge">
<title>Node32&#45;&gt;Node25</title>
<path fill="none" stroke="#191970" d="M1882.7201,-201.4355C1844.0112,-192.0437 1786.2788,-176.8253 1737.5,-159 1735.6112,-158.3098 1733.684,-157.5619 1731.7519,-156.7785"/>
<polygon fill="#191970" stroke="#191970" points="1732.7741,-153.408 1722.2051,-152.6685 1730.0061,-159.8375 1732.7741,-153.408"/>
</g>
<!-- Node33&#45;&gt;Node16 -->
<g id="edge67" class="edge">
<title>Node33&#45;&gt;Node16</title>
<path fill="none" stroke="#191970" d="M1214.433,-339.3556C1236.1972,-322.3381 1273.594,-287.5902 1251.5,-264 1209.712,-219.382 757.4346,-254.8177 702.5,-228 613.2199,-184.4157 551.6105,-74.4108 529.5188,-29.7702"/>
<polygon fill="#191970" stroke="#191970" points="532.5847,-28.0705 525.0812,-20.5905 526.2824,-31.1171 532.5847,-28.0705"/>
</g>
<!-- Node33&#45;&gt;Node22 -->
<g id="edge68" class="edge">
<title>Node33&#45;&gt;Node22</title>
<path fill="none" stroke="#191970" d="M1218.6534,-339.4561C1248.8968,-322.881 1311.6924,-289.1358 1366.5,-264 1405.2847,-246.2126 1427.0441,-259.7947 1455.5,-228 1471.6687,-209.9342 1477.0294,-181.8013 1478.7592,-162.7859"/>
<polygon fill="#191970" stroke="#191970" points="1482.2689,-162.7473 1479.422,-152.5421 1475.2835,-162.2953 1482.2689,-162.7473"/>
</g>
<!-- Node33&#45;&gt;Node34 -->
<g id="edge66" class="edge">
<title>Node33&#45;&gt;Node34</title>
<path fill="none" stroke="#191970" d="M1202.5657,-339.3188C1204.613,-329.2289 1207.8059,-313.4925 1210.3741,-300.8347"/>
<polygon fill="#191970" stroke="#191970" points="1213.8673,-301.2193 1212.4258,-290.723 1207.0071,-299.8273 1213.8673,-301.2193"/>
</g>
<!-- Node36&#45;&gt;Node16 -->
<g id="edge77" class="edge">
<title>Node36&#45;&gt;Node16</title>
<path fill="none" stroke="#191970" d="M766.1016,-195.3911C716.1381,-157.7781 592.2429,-64.5087 542.0905,-26.7535"/>
<polygon fill="#191970" stroke="#191970" points="543.9806,-23.7955 533.8863,-20.5773 539.7705,-29.3879 543.9806,-23.7955"/>
</g>
<!-- Node36&#45;&gt;Node25 -->
<g id="edge76" class="edge">
<title>Node36&#45;&gt;Node25</title>
<path fill="none" stroke="#191970" d="M863.2506,-206.342C994.9111,-197.3004 1274.4868,-177.7623 1510.5,-159 1566.2147,-154.5708 1631.0193,-148.8528 1669.0161,-145.4425"/>
<polygon fill="#191970" stroke="#191970" points="1669.8042,-148.8858 1679.4502,-144.5035 1669.1767,-141.914 1669.8042,-148.8858"/>
</g>
<!-- Node39&#45;&gt;Node12 -->
<g id="edge91" class="edge">
<title>Node39&#45;&gt;Node12</title>
<path fill="none" stroke="#191970" d="M217.7847,-132.3587C222.5924,-113.6752 235.6849,-74.163 263.5,-57 305.4022,-31.1448 1056.8856,-14.6238 1228.7094,-11.1744"/>
<polygon fill="#191970" stroke="#191970" points="1229.0236,-14.6689 1238.9519,-10.9705 1228.8842,-7.6703 1229.0236,-14.6689"/>
</g>
<!-- Node39&#45;&gt;Node16 -->
<g id="edge90" class="edge">
<title>Node39&#45;&gt;Node16</title>
<path fill="none" stroke="#191970" d="M207.4834,-132.2259C194.8391,-114.7033 173.5541,-78.8212 192.5,-57 210.7793,-35.9465 389.5597,-20.1079 475.204,-13.6636"/>
<polygon fill="#191970" stroke="#191970" points="475.7021,-17.1364 485.416,-12.9066 475.1846,-10.1556 475.7021,-17.1364"/>
</g>
<!-- Node39&#45;&gt;Node17 -->
<g id="edge87" class="edge">
<title>Node39&#45;&gt;Node17</title>
<path fill="none" stroke="#191970" d="M244.4363,-132.4668C279.0704,-120.458 337.2049,-100.3008 375.7078,-86.9506"/>
<polygon fill="#191970" stroke="#191970" points="377.2272,-90.1282 385.5288,-83.5453 374.934,-83.5145 377.2272,-90.1282"/>
</g>
<!-- Node39&#45;&gt;Node18 -->
<g id="edge88" class="edge">
<title>Node39&#45;&gt;Node18</title>
<path fill="none" stroke="#191970" d="M227.3043,-132.3188C240.0663,-121.3116 260.6193,-103.5846 275.8299,-90.4654"/>
<polygon fill="#191970" stroke="#191970" points="278.3607,-92.9046 283.6473,-83.723 273.7888,-87.6039 278.3607,-92.9046"/>
</g>
<!-- Node39&#45;&gt;Node37 -->
<g id="edge89" class="edge">
<title>Node39&#45;&gt;Node37</title>
<path fill="none" stroke="#191970" d="M181.5733,-132.4506C149.6639,-122.6788 100.761,-106.8749 59.5,-90 57.8717,-89.3341 56.2115,-88.6266 54.544,-87.8937"/>
<polygon fill="#191970" stroke="#191970" points="55.6305,-84.5404 45.0841,-83.5283 52.6975,-90.8963 55.6305,-84.5404"/>
</g>
<!-- Node39&#45;&gt;Node38 -->
<g id="edge92" class="edge">
<title>Node39&#45;&gt;Node38</title>
<path fill="none" stroke="#191970" d="M199.1216,-132.3188C180.7585,-120.9039 150.7698,-102.2623 129.4787,-89.0273"/>
<polygon fill="#191970" stroke="#191970" points="131.2863,-86.0298 120.9456,-83.723 127.5907,-91.9749 131.2863,-86.0298"/>
</g>
<!-- Node40&#45;&gt;Node12 -->
<g id="edge102" class="edge">
<title>Node40&#45;&gt;Node12</title>
<path fill="none" stroke="#191970" d="M2924.4721,-270.4943C2928.9124,-253.3767 2935.1871,-218.089 2919.5,-195 2896.4439,-161.0651 2869.7062,-180.0638 2834.5,-159 2814.4269,-146.9903 2814.7198,-135.8429 2793.5,-126 2784.3375,-121.7499 2446.5332,-58.1617 2436.5,-57 2207.5761,-30.4939 1467.7141,-14.5304 1298.2878,-11.1681"/>
<polygon fill="#191970" stroke="#191970" points="1298.2519,-7.6668 1288.1849,-10.9692 1298.114,-14.6654 1298.2519,-7.6668"/>
</g>
<!-- Node40&#45;&gt;Node13 -->
<g id="edge96" class="edge">
<title>Node40&#45;&gt;Node13</title>
<path fill="none" stroke="#191970" d="M2939.9488,-270.4706C2954.5366,-261.4458 2973.9774,-246.7345 2983.5,-228 3004.0659,-187.539 3016.5936,-161.6483 2988.5,-126 2907.2975,-22.9611 2831.0393,-77.7471 2701.5,-57 2534.2869,-30.219 2336.7685,-18.463 2224.2122,-13.6123"/>
<polygon fill="#191970" stroke="#191970" points="2224.0614,-10.1029 2213.9226,-13.1779 2223.7661,-17.0967 2224.0614,-10.1029"/>
</g>
<!-- Node40&#45;&gt;Node19 -->
<g id="edge100" class="edge">
<title>Node40&#45;&gt;Node19</title>
<path fill="none" stroke="#191970" d="M2921.4788,-270.4064C2920.8979,-252.8367 2917.2092,-216.4623 2897.5,-195 2866.6785,-161.4369 2841.4649,-180.8919 2801.5,-159 2780.0613,-147.2563 2780.0587,-135.4147 2757.5,-126 2728.2499,-113.7927 2520.7137,-87.6899 2437.6967,-77.5996"/>
<polygon fill="#191970" stroke="#191970" points="2437.8716,-74.0952 2427.5233,-76.3675 2437.0299,-81.0445 2437.8716,-74.0952"/>
</g>
<!-- Node40&#45;&gt;Node20 -->
<g id="edge101" class="edge">
<title>Node40&#45;&gt;Node20</title>
<path fill="none" stroke="#191970" d="M2911.4963,-270.3983C2889.1506,-247.8386 2837.0832,-195.3034 2836.5,-195 2836.5,-195 2323.1997,-106.2859 2173.8213,-80.4688"/>
<polygon fill="#191970" stroke="#191970" points="2174.157,-76.975 2163.707,-78.7207 2172.9648,-83.8727 2174.157,-76.975"/>
</g>
<!-- Node40&#45;&gt;Node24 -->
<g id="edge99" class="edge">
<title>Node40&#45;&gt;Node24</title>
<path fill="none" stroke="#191970" d="M2904.3838,-270.3188C2885.1079,-258.853 2853.574,-240.0957 2831.3064,-226.8503"/>
<polygon fill="#191970" stroke="#191970" points="2833.0702,-223.8272 2822.6864,-221.723 2829.4916,-229.8433 2833.0702,-223.8272"/>
</g>
<!-- Node40&#45;&gt;Node27 -->
<g id="edge95" class="edge">
<title>Node40&#45;&gt;Node27</title>
<path fill="none" stroke="#191970" d="M2879.6223,-270.4668C2828.2189,-258.1514 2741.0459,-237.2662 2685.43,-223.9416"/>
<polygon fill="#191970" stroke="#191970" points="2685.9685,-220.4716 2675.4282,-221.5453 2684.3375,-227.279 2685.9685,-220.4716"/>
</g>
<!-- Node41 -->
<g id="node41" class="node">
<title>Node41</title>
<g id="a_node41"><a xlink:href="../../da/d6d/periodic_8hpp.html" target="_top" xlink:title="Acts/Utilities/detail\l/periodic.hpp">
<polygon fill="none" stroke="#000000" points="2638,-126.5 2638,-158.5 2749,-158.5 2749,-126.5 2638,-126.5"/>
<text text-anchor="start" x="2646" y="-145.5" font-family="FreeSans" font-size="10.00" fill="#000000">Acts/Utilities/detail</text>
<text text-anchor="middle" x="2693.5" y="-133.5" font-family="FreeSans" font-size="10.00" fill="#000000">/periodic.hpp</text>
</a>
</g>
</g>
<!-- Node40&#45;&gt;Node41 -->
<g id="edge97" class="edge">
<title>Node40&#45;&gt;Node41</title>
<path fill="none" stroke="#191970" d="M2918.1247,-270.4021C2911.6198,-252.4941 2895.6352,-215.164 2869.5,-195 2860.3375,-187.9309 2804.9678,-171.9961 2758.7442,-159.5242"/>
<polygon fill="#191970" stroke="#191970" points="2759.6048,-156.1313 2749.0393,-156.9198 2757.7904,-162.8921 2759.6048,-156.1313"/>
</g>
<!-- Node41&#45;&gt;Node19 -->
<g id="edge98" class="edge">
<title>Node41&#45;&gt;Node19</title>
<path fill="none" stroke="#191970" d="M2637.9282,-129.2777C2578.6602,-115.1761 2486.6886,-93.2931 2437.4107,-81.5684"/>
<polygon fill="#191970" stroke="#191970" points="2438.1091,-78.1369 2427.5705,-79.2271 2436.4887,-84.9468 2438.1091,-78.1369"/>
</g>
<!-- Node42&#45;&gt;Node5 -->
<g id="edge108" class="edge">
<title>Node42&#45;&gt;Node5</title>
<path fill="none" stroke="#191970" d="M2562.2942,-471.4478C2483.3375,-460.1426 2355.3587,-441.8184 2272.5719,-429.9648"/>
<polygon fill="#191970" stroke="#191970" points="2272.8509,-426.4692 2262.4558,-428.5164 2271.8587,-433.3985 2272.8509,-426.4692"/>
</g>
<!-- Node42&#45;&gt;Node7 -->
<g id="edge104" class="edge">
<title>Node42&#45;&gt;Node7</title>
<path fill="none" stroke="#191970" d="M2608.0503,-471.4257C2546.0932,-446.1112 2377.6075,-378.6065 2233.5,-333 2184.2794,-317.4229 2127.2433,-302.7791 2086.7059,-292.9359"/>
<polygon fill="#191970" stroke="#191970" points="2087.312,-289.4818 2076.77,-290.5392 2085.6705,-296.2866 2087.312,-289.4818"/>
</g>
<!-- Node42&#45;&gt;Node9 -->
<g id="edge106" class="edge">
<title>Node42&#45;&gt;Node9</title>
<path fill="none" stroke="#191970" d="M2536.3865,-473.1521C2431.2809,-463.981 2257.8797,-448.7265 2108.5,-435 1947.1196,-420.1708 1491.5381,-485.8926 1382.5,-366 1359.5232,-340.7359 1401.0018,-312.0456 1432.6142,-295.1525"/>
<polygon fill="#191970" stroke="#191970" points="1434.333,-298.2042 1441.6159,-290.5093 1431.124,-291.983 1434.333,-298.2042"/>
</g>
<!-- Node42&#45;&gt;Node13 -->
<g id="edge109" class="edge">
<title>Node42&#45;&gt;Node13</title>
<path fill="none" stroke="#191970" d="M2728.7845,-475.4597C2827.728,-468.3125 2974.5549,-454.8237 3027.5,-435 3078.4124,-415.9374 3084.1034,-397.3751 3128.5,-366 3181.0965,-328.83 3245.5,-344.905 3245.5,-280.5 3245.5,-280.5 3245.5,-280.5 3245.5,-142.5 3245.5,-88.9168 3209.4961,-78.6919 3160.5,-57 3076.1745,-19.6669 2458.6203,-12.3062 2223.787,-10.8557"/>
<polygon fill="#191970" stroke="#191970" points="2223.5912,-7.3546 2213.5705,-10.7949 2223.5495,-14.3545 2223.5912,-7.3546"/>
</g>
<!-- Node42&#45;&gt;Node19 -->
<g id="edge113" class="edge">
<title>Node42&#45;&gt;Node19</title>
<path fill="none" stroke="#191970" d="M2728.5055,-473.1382C2855.7032,-459.7351 3069.1219,-428.3586 3112.5,-366 3120.8754,-353.9599 3116.41,-347.1359 3112.5,-333 3083.9098,-229.6374 3079.346,-182.9933 2988.5,-126 2941.8015,-96.7031 2556.567,-79.44 2438.0566,-74.7852"/>
<polygon fill="#191970" stroke="#191970" points="2437.8838,-71.276 2427.7557,-74.3862 2437.6127,-78.2708 2437.8838,-71.276"/>
</g>
<!-- Node42&#45;&gt;Node26 -->
<g id="edge105" class="edge">
<title>Node42&#45;&gt;Node26</title>
<path fill="none" stroke="#191970" d="M2728.5972,-474.1742C2777.164,-467.9305 2836.1128,-456.3754 2885.5,-435 2924.3858,-418.1697 2962.5909,-386.1866 2983.9964,-366.4665"/>
<polygon fill="#191970" stroke="#191970" points="2986.4506,-368.9632 2991.3441,-359.5661 2981.6586,-363.8605 2986.4506,-368.9632"/>
</g>
<!-- Node42&#45;&gt;Node40 -->
<g id="edge107" class="edge">
<title>Node42&#45;&gt;Node40</title>
<path fill="none" stroke="#191970" d="M2721.2213,-471.4584C2773.2677,-463.9325 2832.6126,-451.9885 2852.5,-435 2889.4028,-403.4764 2870.732,-376.8662 2891.5,-333 2896.9466,-321.4957 2903.9637,-309.1118 2909.8417,-299.2622"/>
<polygon fill="#191970" stroke="#191970" points="2912.8384,-301.0705 2915.0399,-290.7069 2906.8561,-297.4356 2912.8384,-301.0705"/>
</g>
<!-- Node43 -->
<g id="node43" class="node">
<title>Node43</title>
<g id="a_node43"><a xlink:href="../../d6/d60/RealQuadraticEquation_8hpp.html" target="_top" xlink:title="Acts/Utilities/detail\l/RealQuadraticEquation.hpp">
<polygon fill="none" stroke="#000000" points="2323.5,-195.5 2323.5,-227.5 2483.5,-227.5 2483.5,-195.5 2323.5,-195.5"/>
<text text-anchor="start" x="2331.5" y="-214.5" font-family="FreeSans" font-size="10.00" fill="#000000">Acts/Utilities/detail</text>
<text text-anchor="middle" x="2403.5" y="-202.5" font-family="FreeSans" font-size="10.00" fill="#000000">/RealQuadraticEquation.hpp</text>
</a>
</g>
</g>
<!-- Node42&#45;&gt;Node43 -->
<g id="edge110" class="edge">
<title>Node42&#45;&gt;Node43</title>
<path fill="none" stroke="#191970" d="M2612.2331,-471.3912C2597.474,-463.2123 2577.8167,-450.5221 2564.5,-435 2509.6184,-371.0296 2537.804,-327.6055 2482.5,-264 2471.8637,-251.7671 2457.7264,-241.1793 2444.3533,-232.7802"/>
<polygon fill="#191970" stroke="#191970" points="2446.0924,-229.7419 2435.7201,-227.5816 2442.4813,-235.7386 2446.0924,-229.7419"/>
</g>
<!-- Node44 -->
<g id="node44" class="node">
<title>Node44</title>
<g id="a_node44"><a xlink:href="../../dc/d63/CylinderSurface_8ipp.html" target="_top" xlink:title="Acts/Surfaces/detail\l/CylinderSurface.ipp">
<polygon fill="none" stroke="#000000" points="2573.5,-402.5 2573.5,-434.5 2693.5,-434.5 2693.5,-402.5 2573.5,-402.5"/>
<text text-anchor="start" x="2581.5" y="-421.5" font-family="FreeSans" font-size="10.00" fill="#000000">Acts/Surfaces/detail</text>
<text text-anchor="middle" x="2633.5" y="-409.5" font-family="FreeSans" font-size="10.00" fill="#000000">/CylinderSurface.ipp</text>
</a>
</g>
</g>
<!-- Node42&#45;&gt;Node44 -->
<g id="edge114" class="edge">
<title>Node42&#45;&gt;Node44</title>
<path fill="none" stroke="#191970" d="M2632.6607,-471.378C2632.7746,-464.2008 2632.933,-454.2202 2633.0816,-444.8614"/>
<polygon fill="#191970" stroke="#191970" points="2636.5829,-444.7963 2633.2422,-434.742 2629.5838,-444.6851 2636.5829,-444.7963"/>
</g>
<!-- Node43&#45;&gt;Node19 -->
<g id="edge111" class="edge">
<title>Node43&#45;&gt;Node19</title>
<path fill="none" stroke="#191970" d="M2403.5,-195.3996C2403.5,-170.1537 2403.5,-121.2958 2403.5,-93.7185"/>
<polygon fill="#191970" stroke="#191970" points="2407.0001,-93.6492 2403.5,-83.6492 2400.0001,-93.6493 2407.0001,-93.6492"/>
</g>
<!-- Node43&#45;&gt;Node22 -->
<g id="edge112" class="edge">
<title>Node43&#45;&gt;Node22</title>
<path fill="none" stroke="#191970" d="M2323.3143,-200.219C2307.8038,-198.2813 2291.6626,-196.4336 2276.5,-195 2007.8897,-169.6037 1939.5944,-178.6125 1670.5,-159 1614.8216,-154.942 1550.1107,-149.1184 1512.1053,-145.5849"/>
<polygon fill="#191970" stroke="#191970" points="1512.4059,-142.0978 1502.1237,-144.6523 1511.7547,-149.0674 1512.4059,-142.0978"/>
</g>
<!-- Node45&#45;&gt;Node9 -->
<g id="edge117" class="edge">
<title>Node45&#45;&gt;Node9</title>
<path fill="none" stroke="#191970" d="M1075.0915,-340.3618C1090.5117,-337.9617 1107.1317,-335.3792 1122.5,-333 1213.8989,-318.8506 1319.0956,-302.6707 1388.1958,-292.057"/>
<polygon fill="#191970" stroke="#191970" points="1388.7703,-295.5099 1398.1231,-290.5324 1387.7076,-288.591 1388.7703,-295.5099"/>
</g>
<!-- Node45&#45;&gt;Node12 -->
<g id="edge121" class="edge">
<title>Node45&#45;&gt;Node12</title>
<path fill="none" stroke="#191970" d="M1007.7056,-333.3299C981.7654,-283.2436 912.2535,-129.6876 992.5,-57 1026.6843,-26.0357 1163.6767,-15.3226 1228.7891,-11.9308"/>
<polygon fill="#191970" stroke="#191970" points="1229.1492,-15.4174 1238.9651,-11.4302 1228.8052,-8.4259 1229.1492,-15.4174"/>
</g>
<!-- Node45&#45;&gt;Node13 -->
<g id="edge118" class="edge">
<title>Node45&#45;&gt;Node13</title>
<path fill="none" stroke="#191970" d="M1045.1421,-333.379C1061.6061,-323.6304 1082.3561,-310.5054 1099.5,-297 1116.0421,-283.9687 1114.7187,-273.5247 1133.5,-264 1218.7367,-220.7734 1260.5883,-271.8614 1345.5,-228 1402.4605,-198.5769 1394.6202,-162.2484 1447.5,-126 1510.0315,-83.1355 1530.0814,-75.9014 1603.5,-57 1684.169,-36.232 1914.2559,-21.646 2043.1716,-14.84"/>
<polygon fill="#191970" stroke="#191970" points="2043.614,-18.3217 2053.4176,-14.3042 2043.2484,-11.3313 2043.614,-18.3217"/>
</g>
<!-- Node45&#45;&gt;Node22 -->
<g id="edge120" class="edge">
<title>Node45&#45;&gt;Node22</title>
<path fill="none" stroke="#191970" d="M1058.5592,-333.4201C1081.3768,-324.0132 1109.6998,-311.2077 1133.5,-297 1154.185,-284.6519 1154.3247,-273.4129 1176.5,-264 1276.1902,-221.684 1324.9371,-284.2219 1417.5,-228 1443.1062,-212.447 1461.2829,-181.9171 1471.0826,-161.8645"/>
<polygon fill="#191970" stroke="#191970" points="1474.2913,-163.2648 1475.3277,-152.7208 1467.9421,-160.3171 1474.2913,-163.2648"/>
</g>
<!-- Node46 -->
<g id="node46" class="node">
<title>Node46</title>
<polygon fill="none" stroke="#bfbfbf" points="1034,-270.5 1034,-290.5 1091,-290.5 1091,-270.5 1034,-270.5"/>
<text text-anchor="middle" x="1062.5" y="-277.5" font-family="FreeSans" font-size="10.00" fill="#000000">numeric</text>
</g>
<!-- Node45&#45;&gt;Node46 -->
<g id="edge119" class="edge">
<title>Node45&#45;&gt;Node46</title>
<path fill="none" stroke="#191970" d="M1027.1689,-333.4966C1033.9841,-323.2738 1042.8501,-309.9749 1049.9956,-299.2567"/>
<polygon fill="#191970" stroke="#191970" points="1053.1024,-300.9061 1055.7373,-290.6441 1047.278,-297.0232 1053.1024,-300.9061"/>
</g>
<!-- Node47&#45;&gt;Node13 -->
<g id="edge125" class="edge">
<title>Node47&#45;&gt;Node13</title>
<path fill="none" stroke="#191970" d="M2186.6987,-201.25C2189.2554,-175.7341 2193.4239,-107.7694 2172.5,-57 2168.0435,-46.1869 2160.1195,-36.0086 2152.5728,-27.9476"/>
<polygon fill="#191970" stroke="#191970" points="2154.8333,-25.2577 2145.2943,-20.6471 2149.8761,-30.2 2154.8333,-25.2577"/>
</g>
<!-- Node47&#45;&gt;Node19 -->
<g id="edge126" class="edge">
<title>Node47&#45;&gt;Node19</title>
<path fill="none" stroke="#191970" d="M2201.5301,-201.3525C2239.2465,-177.477 2333.8073,-117.6174 2378.872,-89.0902"/>
<polygon fill="#191970" stroke="#191970" points="2380.8691,-91.9683 2387.4464,-83.6623 2377.125,-86.0538 2380.8691,-91.9683"/>
</g>
<!-- Node47&#45;&gt;Node22 -->
<g id="edge128" class="edge">
<title>Node47&#45;&gt;Node22</title>
<path fill="none" stroke="#191970" d="M2103.1088,-203.3367C2076.1445,-200.6712 2046.0453,-197.7023 2018.5,-195 1826.6686,-176.1809 1596.4075,-153.8336 1512.2968,-145.6785"/>
<polygon fill="#191970" stroke="#191970" points="1512.3854,-142.1708 1502.0943,-144.6894 1511.7099,-149.1381 1512.3854,-142.1708"/>
</g>
<!-- Node47&#45;&gt;Node25 -->
<g id="edge127" class="edge">
<title>Node47&#45;&gt;Node25</title>
<path fill="none" stroke="#191970" d="M2103.4409,-203.2858C1983.7688,-191.0933 1771.8095,-168.6141 1737.5,-159 1735.0092,-158.302 1732.4728,-157.4528 1729.9582,-156.5119"/>
<polygon fill="#191970" stroke="#191970" points="1731.0852,-153.1893 1720.5095,-152.5542 1728.3809,-159.6459 1731.0852,-153.1893"/>
</g>
<!-- Node48&#45;&gt;Node7 -->
<g id="edge130" class="edge">
<title>Node48&#45;&gt;Node7</title>
<path fill="none" stroke="#191970" d="M2714.2938,-402.4608C2639.8432,-383.9565 2512.2601,-353.4582 2401.5,-333 2309.0676,-315.927 2202.6925,-301.2871 2128.16,-291.8381"/>
<polygon fill="#191970" stroke="#191970" points="2128.2185,-288.3179 2117.8592,-290.5396 2127.3429,-295.2629 2128.2185,-288.3179"/>
</g>
<!-- Node48&#45;&gt;Node13 -->
<g id="edge131" class="edge">
<title>Node48&#45;&gt;Node13</title>
<path fill="none" stroke="#191970" d="M2794.1463,-402.3281C2815.1124,-382.8874 2853.0656,-350.6773 2891.5,-333 2958.5086,-302.1804 3000.7527,-348.5531 3053.5,-297 3108.1863,-243.5517 3087.0436,-181.5561 3034.5,-126 2993.281,-82.4178 2975.8449,-74.6062 2918.5,-57 2853.6303,-37.0835 2416.0426,-20.0558 2223.7925,-13.4426"/>
<polygon fill="#191970" stroke="#191970" points="2223.8259,-9.9418 2213.712,-13.0976 2223.5865,-16.9377 2223.8259,-9.9418"/>
</g>
<!-- Node48&#45;&gt;Node49 -->
<g id="edge132" class="edge">
<title>Node48&#45;&gt;Node49</title>
<path fill="none" stroke="#191970" d="M2760.8008,-402.4966C2751.6641,-393.7406 2740.1726,-382.7279 2730.0353,-373.013"/>
<polygon fill="#191970" stroke="#191970" points="2732.2502,-370.2879 2722.6086,-365.8958 2727.4069,-375.3418 2732.2502,-370.2879"/>
</g>
<!-- Node48&#45;&gt;Node50 -->
<g id="edge138" class="edge">
<title>Node48&#45;&gt;Node50</title>
<path fill="none" stroke="#191970" d="M2779.1432,-402.2281C2780.4715,-384.8778 2781.4081,-356.694 2776.5,-333 2774.5982,-323.8189 2771.0843,-314.2321 2767.4145,-305.8014"/>
<polygon fill="#191970" stroke="#191970" points="2770.4993,-304.1335 2763.1221,-296.5291 2764.147,-307.0742 2770.4993,-304.1335"/>
</g>
<!-- Node49&#45;&gt;Node12 -->
<g id="edge137" class="edge">
<title>Node49&#45;&gt;Node12</title>
<path fill="none" stroke="#191970" d="M2680.5538,-333.4115C2646.0526,-310.8866 2582.1783,-268.1895 2530.5,-228 2512.8427,-214.2681 2513.2523,-203.3479 2492.5,-195 2343.4626,-135.0477 1919.5374,-218.9523 1770.5,-159 1749.7477,-150.6521 1752.2186,-136.5603 1732.5,-126 1630.5112,-71.3798 1593.8995,-84.4124 1481.5,-57 1417.0705,-41.2867 1341.2119,-25.7735 1298.0976,-17.2338"/>
<polygon fill="#191970" stroke="#191970" points="1298.6138,-13.7682 1288.1256,-15.2675 1297.2595,-20.636 1298.6138,-13.7682"/>
</g>
<!-- Node49&#45;&gt;Node13 -->
<g id="edge133" class="edge">
<title>Node49&#45;&gt;Node13</title>
<path fill="none" stroke="#191970" d="M2767.5216,-340.3844C2859.6398,-326.7021 3022.3121,-301.9285 3026.5,-297 3053.1945,-265.5849 3097.5154,-240.8462 3009.5,-126 2959.8991,-61.2787 2918.9744,-75.2456 2839.5,-57 2724.8732,-30.6841 2386.7095,-17.7197 2223.5608,-12.8569"/>
<polygon fill="#191970" stroke="#191970" points="2223.6457,-9.358 2213.547,-12.5621 2223.4396,-16.355 2223.6457,-9.358"/>
</g>
<!-- Node49&#45;&gt;Node24 -->
<g id="edge136" class="edge">
<title>Node49&#45;&gt;Node24</title>
<path fill="none" stroke="#191970" d="M2696.9884,-333.3479C2688.6545,-315.082 2679.0129,-285.1377 2692.5,-264 2692.8045,-263.5228 2741.0683,-241.2029 2774.4136,-225.8223"/>
<polygon fill="#191970" stroke="#191970" points="2776.1763,-228.8638 2783.7918,-221.4981 2773.2451,-222.507 2776.1763,-228.8638"/>
</g>
<!-- Node49&#45;&gt;Node50 -->
<g id="edge134" class="edge">
<title>Node49&#45;&gt;Node50</title>
<path fill="none" stroke="#191970" d="M2716.8647,-333.4966C2722.8389,-325.084 2730.2925,-314.5882 2736.9866,-305.1617"/>
<polygon fill="#191970" stroke="#191970" points="2739.9202,-307.0756 2742.8566,-296.8958 2734.2129,-303.0226 2739.9202,-307.0756"/>
</g>
<!-- Node50&#45;&gt;Node24 -->
<g id="edge135" class="edge">
<title>Node50&#45;&gt;Node24</title>
<path fill="none" stroke="#191970" d="M2766.3286,-264.4966C2773.9609,-254.1706 2783.913,-240.7059 2791.8759,-229.9327"/>
<polygon fill="#191970" stroke="#191970" points="2794.8729,-231.7663 2798.0022,-221.6441 2789.2436,-227.6055 2794.8729,-231.7663"/>
</g>
</g>
</svg>
