<?xml version="1.0" encoding="UTF-8" standalone="no"?>
<!DOCTYPE svg PUBLIC "-//W3C//DTD SVG 1.1//EN"
 "http://www.w3.org/Graphics/SVG/1.1/DTD/svg11.dtd">
<!-- Generated by graphviz version 2.40.1 (20161225.0304)
 -->
<!-- Title: sorted_by_pz Pages: 1 -->
<svg width="585pt" height="74pt"
 viewBox="0.00 0.00 585.00 74.00" xmlns="http://www.w3.org/2000/svg" xmlns:xlink="http://www.w3.org/1999/xlink">
<g id="graph0" class="graph" transform="scale(1 1) rotate(0) translate(4 70)">
<title>sorted_by_pz</title>
<!-- Node1 -->
<g id="node1" class="node">
<title>Node1</title>
<polygon fill="#bfbfbf" stroke="#000000" points="0,-19.5 0,-39.5 83,-39.5 83,-19.5 0,-19.5"/>
<text text-anchor="middle" x="41.5" y="-26.5" font-family="FreeSans" font-size="10.00" fill="#000000">sorted_by_pz</text>
</g>
<!-- Node2 -->
<g id="node2" class="node">
<title>Node2</title>
<g id="a_node2"><a xlink:href="../../d6/db0/fjcore_8hh.html#a699fe719dea3330c828ef1aea2a26d91" target="_top" xlink:title="objects_sorted_by_values">
<polygon fill="none" stroke="#000000" points="119,-39.5 119,-59.5 265,-59.5 265,-39.5 119,-39.5"/>
<text text-anchor="middle" x="192" y="-46.5" font-family="FreeSans" font-size="10.00" fill="#000000">objects_sorted_by_values</text>
</a>
</g>
</g>
<!-- Node1&#45;&gt;Node2 -->
<g id="edge1" class="edge">
<title>Node1&#45;&gt;Node2</title>
<path fill="none" stroke="#191970" d="M83.0232,-35.018C91.1147,-36.0933 99.8623,-37.2558 108.7606,-38.4383"/>
<polygon fill="#191970" stroke="#191970" points="108.4702,-41.9304 118.8441,-39.7783 109.3924,-34.9914 108.4702,-41.9304"/>
</g>
<!-- Node5 -->
<g id="node5" class="node">
<title>Node5</title>
<g id="a_node5"><a xlink:href="../../dd/d30/classPseudoJet.html#a4dd54da333a59f56b1d163096d4fa2a1" target="_top" xlink:title="PseudoJet::pz">
<polygon fill="none" stroke="#000000" points="150,-.5 150,-20.5 234,-20.5 234,-.5 150,-.5"/>
<text text-anchor="middle" x="192" y="-7.5" font-family="FreeSans" font-size="10.00" fill="#000000">PseudoJet::pz</text>
</a>
</g>
</g>
<!-- Node1&#45;&gt;Node5 -->
<g id="edge4" class="edge">
<title>Node1&#45;&gt;Node5</title>
<path fill="none" stroke="#191970" d="M83.0232,-24.2579C100.5685,-22.0428 121.1981,-19.4384 139.7607,-17.095"/>
<polygon fill="#191970" stroke="#191970" points="140.3451,-20.5491 149.8279,-15.824 139.4683,-13.6042 140.3451,-20.5491"/>
</g>
<!-- Node3 -->
<g id="node3" class="node">
<title>Node3</title>
<g id="a_node3"><a xlink:href="../../d8/d99/fjcore_8cc.html#a50b718e9849a0e65a7ba18238eae7cb0" target="_top" xlink:title="sort_indices">
<polygon fill="none" stroke="#000000" points="301,-39.5 301,-59.5 377,-59.5 377,-39.5 301,-39.5"/>
<text text-anchor="middle" x="339" y="-46.5" font-family="FreeSans" font-size="10.00" fill="#000000">sort_indices</text>
</a>
</g>
</g>
<!-- Node2&#45;&gt;Node3 -->
<g id="edge2" class="edge">
<title>Node2&#45;&gt;Node3</title>
<path fill="none" stroke="#191970" d="M265.0693,-49.5C273.7837,-49.5 282.5061,-49.5 290.7466,-49.5"/>
<polygon fill="#191970" stroke="#191970" points="290.8899,-53.0001 300.8899,-49.5 290.8899,-46.0001 290.8899,-53.0001"/>
</g>
<!-- Node4 -->
<g id="node4" class="node">
<title>Node4</title>
<g id="a_node4"><a xlink:href="../../d2/da5/namespaceActs_1_1Experimental_1_1detail_1_1BlueprintHelper.html#a308a6456db2655fc6a1a916696da20c8" target="_top" xlink:title="Sort the nodes in the blueprint container node.">
<polygon fill="none" stroke="#000000" points="413,-33.5 413,-65.5 577,-65.5 577,-33.5 413,-33.5"/>
<text text-anchor="start" x="421" y="-52.5" font-family="FreeSans" font-size="10.00" fill="#000000">Acts::Experimental</text>
<text text-anchor="middle" x="495" y="-40.5" font-family="FreeSans" font-size="10.00" fill="#000000">::detail::BlueprintHelper::sort</text>
</a>
</g>
</g>
<!-- Node3&#45;&gt;Node4 -->
<g id="edge3" class="edge">
<title>Node3&#45;&gt;Node4</title>
<path fill="none" stroke="#191970" d="M377.1619,-49.5C385.0919,-49.5 393.773,-49.5 402.7133,-49.5"/>
<polygon fill="#191970" stroke="#191970" points="402.8911,-53.0001 412.8911,-49.5 402.8911,-46.0001 402.8911,-53.0001"/>
</g>
</g>
</svg>
