<?xml version="1.0" encoding="UTF-8" standalone="no"?>
<!DOCTYPE svg PUBLIC "-//W3C//DTD SVG 1.1//EN"
 "http://www.w3.org/Graphics/SVG/1.1/DTD/svg11.dtd">
<!-- Generated by graphviz version 2.40.1 (20161225.0304)
 -->
<!-- Title: sorted_by_pt Pages: 1 -->
<svg width="384pt" height="29pt"
 viewBox="0.00 0.00 384.00 29.00" xmlns="http://www.w3.org/2000/svg" xmlns:xlink="http://www.w3.org/1999/xlink">
<g id="graph0" class="graph" transform="scale(1 1) rotate(0) translate(4 25)">
<title>sorted_by_pt</title>
<!-- Node1 -->
<g id="node1" class="node">
<title>Node1</title>
<polygon fill="#bfbfbf" stroke="#000000" points="0,-.5 0,-20.5 82,-20.5 82,-.5 0,-.5"/>
<text text-anchor="middle" x="41" y="-7.5" font-family="FreeSans" font-size="10.00" fill="#000000">sorted_by_pt</text>
</g>
<!-- Node2 -->
<g id="node2" class="node">
<title>Node2</title>
<g id="a_node2"><a xlink:href="../../d6/db0/fjcore_8hh.html#a699fe719dea3330c828ef1aea2a26d91" target="_top" xlink:title="objects_sorted_by_values">
<polygon fill="none" stroke="#000000" points="118,-.5 118,-20.5 264,-20.5 264,-.5 118,-.5"/>
<text text-anchor="middle" x="191" y="-7.5" font-family="FreeSans" font-size="10.00" fill="#000000">objects_sorted_by_values</text>
</a>
</g>
</g>
<!-- Node1&#45;&gt;Node2 -->
<g id="edge1" class="edge">
<title>Node1&#45;&gt;Node2</title>
<path fill="none" stroke="#191970" d="M82.3852,-10.5C90.3009,-10.5 98.8464,-10.5 107.5456,-10.5"/>
<polygon fill="#191970" stroke="#191970" points="107.7998,-14.0001 117.7997,-10.5 107.7997,-7.0001 107.7998,-14.0001"/>
</g>
<!-- Node3 -->
<g id="node3" class="node">
<title>Node3</title>
<g id="a_node3"><a xlink:href="../../d8/d99/fjcore_8cc.html#a50b718e9849a0e65a7ba18238eae7cb0" target="_top" xlink:title="sort_indices">
<polygon fill="none" stroke="#000000" points="300,-.5 300,-20.5 376,-20.5 376,-.5 300,-.5"/>
<text text-anchor="middle" x="338" y="-7.5" font-family="FreeSans" font-size="10.00" fill="#000000">sort_indices</text>
</a>
</g>
</g>
<!-- Node2&#45;&gt;Node3 -->
<g id="edge2" class="edge">
<title>Node2&#45;&gt;Node3</title>
<path fill="none" stroke="#191970" d="M264.0693,-10.5C272.7837,-10.5 281.5061,-10.5 289.7466,-10.5"/>
<polygon fill="#191970" stroke="#191970" points="289.8899,-14.0001 299.8899,-10.5 289.8899,-7.0001 289.8899,-14.0001"/>
</g>
</g>
</svg>
