<?xml version="1.0" encoding="UTF-8" standalone="no"?>
<!DOCTYPE svg PUBLIC "-//W3C//DTD SVG 1.1//EN"
 "http://www.w3.org/Graphics/SVG/1.1/DTD/svg11.dtd">
<!-- Generated by graphviz version 2.40.1 (20161225.0304)
 -->
<!-- Title: PHFlag::ReadFromFile Pages: 1 -->
<svg width="304pt" height="185pt"
 viewBox="0.00 0.00 304.00 185.00" xmlns="http://www.w3.org/2000/svg" xmlns:xlink="http://www.w3.org/1999/xlink">
<g id="graph0" class="graph" transform="scale(1 1) rotate(0) translate(4 181)">
<title>PHFlag::ReadFromFile</title>
<!-- Node1 -->
<g id="node1" class="node">
<title>Node1</title>
<polygon fill="#bfbfbf" stroke="#000000" points="0,-78.5 0,-98.5 125,-98.5 125,-78.5 0,-78.5"/>
<text text-anchor="middle" x="62.5" y="-85.5" font-family="FreeSans" font-size="10.00" fill="#000000">PHFlag::ReadFromFile</text>
</g>
<!-- Node2 -->
<g id="node2" class="node">
<title>Node2</title>
<g id="a_node2"><a xlink:href="../../d1/da8/classPHFlag.html#a64f8c67e9313e5cecdbed51f747026da" target="_top" xlink:title="PHFlag::set_DoubleFlag">
<polygon fill="none" stroke="#000000" points="161,-156.5 161,-176.5 296,-176.5 296,-156.5 161,-156.5"/>
<text text-anchor="middle" x="228.5" y="-163.5" font-family="FreeSans" font-size="10.00" fill="#000000">PHFlag::set_DoubleFlag</text>
</a>
</g>
</g>
<!-- Node1&#45;&gt;Node2 -->
<g id="edge1" class="edge">
<title>Node1&#45;&gt;Node2</title>
<path fill="none" stroke="#191970" d="M76.5403,-98.5558C95.0909,-111.447 129.149,-133.769 161,-147.5 165.9609,-149.6387 171.2301,-151.6068 176.5517,-153.3992"/>
<polygon fill="#191970" stroke="#191970" points="175.5417,-156.7506 186.1318,-156.4348 177.6562,-150.0776 175.5417,-156.7506"/>
</g>
<!-- Node3 -->
<g id="node3" class="node">
<title>Node3</title>
<g id="a_node3"><a xlink:href="../../d1/da8/classPHFlag.html#a88212f810275c61464d51caa3cd4d1e1" target="_top" xlink:title="PHFlag::set_FloatFlag">
<polygon fill="none" stroke="#000000" points="166.5,-117.5 166.5,-137.5 290.5,-137.5 290.5,-117.5 166.5,-117.5"/>
<text text-anchor="middle" x="228.5" y="-124.5" font-family="FreeSans" font-size="10.00" fill="#000000">PHFlag::set_FloatFlag</text>
</a>
</g>
</g>
<!-- Node1&#45;&gt;Node3 -->
<g id="edge2" class="edge">
<title>Node1&#45;&gt;Node3</title>
<path fill="none" stroke="#191970" d="M105.2491,-98.5435C126.8387,-103.6157 153.2224,-109.8143 176.0316,-115.1731"/>
<polygon fill="#191970" stroke="#191970" points="175.3603,-118.6106 185.8957,-117.4906 176.9613,-111.7961 175.3603,-118.6106"/>
</g>
<!-- Node4 -->
<g id="node4" class="node">
<title>Node4</title>
<g id="a_node4"><a xlink:href="../../d1/da8/classPHFlag.html#a3ef5c3f1eff2daaaf18e5129858a9ef8" target="_top" xlink:title="PHFlag::set_IntFlag">
<polygon fill="none" stroke="#000000" points="172.5,-78.5 172.5,-98.5 284.5,-98.5 284.5,-78.5 172.5,-78.5"/>
<text text-anchor="middle" x="228.5" y="-85.5" font-family="FreeSans" font-size="10.00" fill="#000000">PHFlag::set_IntFlag</text>
</a>
</g>
</g>
<!-- Node1&#45;&gt;Node4 -->
<g id="edge3" class="edge">
<title>Node1&#45;&gt;Node4</title>
<path fill="none" stroke="#191970" d="M125.2575,-88.5C137.3797,-88.5 150.1154,-88.5 162.3421,-88.5"/>
<polygon fill="#191970" stroke="#191970" points="162.4682,-92.0001 172.4681,-88.5 162.4681,-85.0001 162.4682,-92.0001"/>
</g>
<!-- Node5 -->
<g id="node5" class="node">
<title>Node5</title>
<g id="a_node5"><a xlink:href="../../d1/da8/classPHFlag.html#a8a2b67fdba1ed0a4c6c21a8064453768" target="_top" xlink:title="PHFlag::set_StringFlag">
<polygon fill="none" stroke="#000000" points="164,-39.5 164,-59.5 293,-59.5 293,-39.5 164,-39.5"/>
<text text-anchor="middle" x="228.5" y="-46.5" font-family="FreeSans" font-size="10.00" fill="#000000">PHFlag::set_StringFlag</text>
</a>
</g>
</g>
<!-- Node1&#45;&gt;Node5 -->
<g id="edge4" class="edge">
<title>Node1&#45;&gt;Node5</title>
<path fill="none" stroke="#191970" d="M105.2491,-78.4565C126.8387,-73.3843 153.2224,-67.1857 176.0316,-61.8269"/>
<polygon fill="#191970" stroke="#191970" points="176.9613,-65.2039 185.8957,-59.5094 175.3603,-58.3894 176.9613,-65.2039"/>
</g>
<!-- Node6 -->
<g id="node6" class="node">
<title>Node6</title>
<g id="a_node6"><a xlink:href="../../d1/da8/classPHFlag.html#a733d8e142fd24cf8e7ce1ba497c8ffcd" target="_top" xlink:title="PHFlag::set_uint64Flag">
<polygon fill="none" stroke="#000000" points="162.5,-.5 162.5,-20.5 294.5,-20.5 294.5,-.5 162.5,-.5"/>
<text text-anchor="middle" x="228.5" y="-7.5" font-family="FreeSans" font-size="10.00" fill="#000000">PHFlag::set_uint64Flag</text>
</a>
</g>
</g>
<!-- Node1&#45;&gt;Node6 -->
<g id="edge5" class="edge">
<title>Node1&#45;&gt;Node6</title>
<path fill="none" stroke="#191970" d="M76.9194,-78.4797C95.6009,-65.8636 129.5149,-44.1886 161,-30.5 166.7375,-28.0055 172.8793,-25.709 179.0342,-23.631"/>
<polygon fill="#191970" stroke="#191970" points="180.2047,-26.9313 188.6609,-20.5483 178.0699,-20.2648 180.2047,-26.9313"/>
</g>
</g>
</svg>
