<?xml version="1.0" encoding="UTF-8" standalone="no"?>
<!DOCTYPE svg PUBLIC "-//W3C//DTD SVG 1.1//EN"
 "http://www.w3.org/Graphics/SVG/1.1/DTD/svg11.dtd">
<!-- Generated by graphviz version 2.40.1 (20161225.0304)
 -->
<!-- Title: testing::internal::MatchMatrix::DebugString Pages: 1 -->
<svg width="336pt" height="92pt"
 viewBox="0.00 0.00 336.00 92.00" xmlns="http://www.w3.org/2000/svg" xmlns:xlink="http://www.w3.org/1999/xlink">
<g id="graph0" class="graph" transform="scale(1 1) rotate(0) translate(4 88)">
<title>testing::internal::MatchMatrix::DebugString</title>
<!-- Node1 -->
<g id="node1" class="node">
<title>Node1</title>
<polygon fill="#bfbfbf" stroke="#000000" points="0,-25.5 0,-57.5 148,-57.5 148,-25.5 0,-25.5"/>
<text text-anchor="start" x="8" y="-44.5" font-family="FreeSans" font-size="10.00" fill="#000000">testing::internal::</text>
<text text-anchor="middle" x="74" y="-32.5" font-family="FreeSans" font-size="10.00" fill="#000000">MatchMatrix::DebugString</text>
</g>
<!-- Node2 -->
<g id="node2" class="node">
<title>Node2</title>
<g id="a_node2"><a xlink:href="../../d5/de1/namespacetesting_1_1gmock__matchers__test.html#a7d2395b1cb6a90bdc8d46ae06f99f6c7" target="_top" xlink:title="testing::gmock_matchers\l_test::TEST_F">
<polygon fill="none" stroke="#000000" points="184,-51.5 184,-83.5 328,-83.5 328,-51.5 184,-51.5"/>
<text text-anchor="start" x="192" y="-70.5" font-family="FreeSans" font-size="10.00" fill="#000000">testing::gmock_matchers</text>
<text text-anchor="middle" x="256" y="-58.5" font-family="FreeSans" font-size="10.00" fill="#000000">_test::TEST_F</text>
</a>
</g>
</g>
<!-- Node1&#45;&gt;Node2 -->
<g id="edge1" class="edge">
<title>Node1&#45;&gt;Node2</title>
<path fill="none" stroke="#191970" d="M158.066,-53.5094C166.6666,-54.7381 175.3503,-55.9786 183.8074,-57.1868"/>
<polygon fill="#191970" stroke="#191970" points="158.4209,-50.0247 148.0264,-52.0752 157.4309,-56.9543 158.4209,-50.0247"/>
</g>
<!-- Node3 -->
<g id="node3" class="node">
<title>Node3</title>
<g id="a_node3"><a xlink:href="../../d5/de1/namespacetesting_1_1gmock__matchers__test.html#a20589d957fcfe5399e249084dbc23e82" target="_top" xlink:title="testing::gmock_matchers\l_test::TEST_P">
<polygon fill="none" stroke="#000000" points="184,-.5 184,-32.5 328,-32.5 328,-.5 184,-.5"/>
<text text-anchor="start" x="192" y="-19.5" font-family="FreeSans" font-size="10.00" fill="#000000">testing::gmock_matchers</text>
<text text-anchor="middle" x="256" y="-7.5" font-family="FreeSans" font-size="10.00" fill="#000000">_test::TEST_P</text>
</a>
</g>
</g>
<!-- Node1&#45;&gt;Node3 -->
<g id="edge2" class="edge">
<title>Node1&#45;&gt;Node3</title>
<path fill="none" stroke="#191970" d="M158.066,-29.9525C166.6666,-28.7711 175.3503,-27.5783 183.8074,-26.4166"/>
<polygon fill="#191970" stroke="#191970" points="157.457,-26.5032 148.0264,-31.3315 158.4097,-33.4381 157.457,-26.5032"/>
</g>
</g>
</svg>
