<?xml version="1.0" encoding="UTF-8" standalone="no"?>
<!DOCTYPE svg PUBLIC "-//W3C//DTD SVG 1.1//EN"
 "http://www.w3.org/Graphics/SVG/1.1/DTD/svg11.dtd">
<!-- Generated by graphviz version 2.40.1 (20161225.0304)
 -->
<!-- Title: Tracking_Eval Pages: 1 -->
<svg width="666pt" height="455pt"
 viewBox="0.00 0.00 666.00 455.00" xmlns="http://www.w3.org/2000/svg" xmlns:xlink="http://www.w3.org/1999/xlink">
<g id="graph0" class="graph" transform="scale(1 1) rotate(0) translate(4 451)">
<title>Tracking_Eval</title>
<!-- Node1 -->
<g id="node1" class="node">
<title>Node1</title>
<polygon fill="#bfbfbf" stroke="#000000" points="0,-219.5 0,-239.5 86,-239.5 86,-219.5 0,-219.5"/>
<text text-anchor="middle" x="43" y="-226.5" font-family="FreeSans" font-size="10.00" fill="#000000">Tracking_Eval</text>
</g>
<!-- Node2 -->
<g id="node2" class="node">
<title>Node2</title>
<g id="a_node2"><a xlink:href="../../d6/d11/classSvtxEvaluator.html#a8df2c8583c4fe29947cbb44c7d85643f" target="_top" xlink:title="SvtxEvaluator::do_cluster_eval">
<polygon fill="none" stroke="#000000" points="130.5,-426.5 130.5,-446.5 301.5,-446.5 301.5,-426.5 130.5,-426.5"/>
<text text-anchor="middle" x="216" y="-433.5" font-family="FreeSans" font-size="10.00" fill="#000000">SvtxEvaluator::do_cluster_eval</text>
</a>
</g>
</g>
<!-- Node1&#45;&gt;Node2 -->
<g id="edge1" class="edge">
<title>Node1&#45;&gt;Node2</title>
<path fill="none" stroke="#191970" d="M43.9999,-239.5864C47.7114,-271.3009 63.6595,-369.7196 122,-417.5 123.594,-418.8055 125.2536,-420.0291 126.9686,-421.1758"/>
<polygon fill="#191970" stroke="#191970" points="125.5369,-424.3881 135.9596,-426.2906 128.9982,-418.3037 125.5369,-424.3881"/>
</g>
<!-- Node3 -->
<g id="node3" class="node">
<title>Node3</title>
<g id="a_node3"><a xlink:href="../../d6/d11/classSvtxEvaluator.html#a6381e27e7ad48f1e81f09c1ff8f3314e" target="_top" xlink:title="SvtxEvaluator::do_eval\l_light">
<polygon fill="none" stroke="#000000" points="150,-375.5 150,-407.5 282,-407.5 282,-375.5 150,-375.5"/>
<text text-anchor="start" x="158" y="-394.5" font-family="FreeSans" font-size="10.00" fill="#000000">SvtxEvaluator::do_eval</text>
<text text-anchor="middle" x="216" y="-382.5" font-family="FreeSans" font-size="10.00" fill="#000000">_light</text>
</a>
</g>
</g>
<!-- Node1&#45;&gt;Node3 -->
<g id="edge2" class="edge">
<title>Node1&#45;&gt;Node3</title>
<path fill="none" stroke="#191970" d="M45.8375,-239.5693C53.5405,-265.0085 77.3238,-332.2659 122,-366.5 127.4935,-370.7095 133.6374,-374.212 140.0825,-377.1259"/>
<polygon fill="#191970" stroke="#191970" points="139.1161,-380.5094 149.7002,-380.9877 141.7245,-374.0135 139.1161,-380.5094"/>
</g>
<!-- Node4 -->
<g id="node4" class="node">
<title>Node4</title>
<g id="a_node4"><a xlink:href="../../d6/d11/classSvtxEvaluator.html#a28401ed3ca7e1dd765f2801a291bd7c0" target="_top" xlink:title="SvtxEvaluator::do_g4hit_eval">
<polygon fill="none" stroke="#000000" points="134.5,-336.5 134.5,-356.5 297.5,-356.5 297.5,-336.5 134.5,-336.5"/>
<text text-anchor="middle" x="216" y="-343.5" font-family="FreeSans" font-size="10.00" fill="#000000">SvtxEvaluator::do_g4hit_eval</text>
</a>
</g>
</g>
<!-- Node1&#45;&gt;Node4 -->
<g id="edge3" class="edge">
<title>Node1&#45;&gt;Node4</title>
<path fill="none" stroke="#191970" d="M48.115,-239.7725C58.806,-260.0952 85.5787,-305.3755 122,-327.5 125.175,-329.4287 128.5106,-331.1655 131.9548,-332.7293"/>
<polygon fill="#191970" stroke="#191970" points="130.7052,-335.9991 141.2892,-336.4773 133.3135,-329.5032 130.7052,-335.9991"/>
</g>
<!-- Node5 -->
<g id="node5" class="node">
<title>Node5</title>
<g id="a_node5"><a xlink:href="../../d6/d11/classSvtxEvaluator.html#a5dfe9a29f92b174347492bcf86090a7b" target="_top" xlink:title="SvtxEvaluator::do_gpoint_eval">
<polygon fill="none" stroke="#000000" points="131,-297.5 131,-317.5 301,-317.5 301,-297.5 131,-297.5"/>
<text text-anchor="middle" x="216" y="-304.5" font-family="FreeSans" font-size="10.00" fill="#000000">SvtxEvaluator::do_gpoint_eval</text>
</a>
</g>
</g>
<!-- Node1&#45;&gt;Node5 -->
<g id="edge4" class="edge">
<title>Node1&#45;&gt;Node5</title>
<path fill="none" stroke="#191970" d="M53.265,-239.5813C67.4703,-252.9273 94.4962,-276.2025 122,-288.5 127.0348,-290.7512 132.3405,-292.7379 137.7626,-294.4908"/>
<polygon fill="#191970" stroke="#191970" points="137.0331,-297.9248 147.615,-297.4004 139.0158,-291.2114 137.0331,-297.9248"/>
</g>
<!-- Node6 -->
<g id="node6" class="node">
<title>Node6</title>
<g id="a_node6"><a xlink:href="../../d6/d11/classSvtxEvaluator.html#aa0bce28e38f742144bff697c02e37b87" target="_top" xlink:title="SvtxEvaluator::do_hit_eval">
<polygon fill="none" stroke="#000000" points="141,-258.5 141,-278.5 291,-278.5 291,-258.5 141,-258.5"/>
<text text-anchor="middle" x="216" y="-265.5" font-family="FreeSans" font-size="10.00" fill="#000000">SvtxEvaluator::do_hit_eval</text>
</a>
</g>
</g>
<!-- Node1&#45;&gt;Node6 -->
<g id="edge5" class="edge">
<title>Node1&#45;&gt;Node6</title>
<path fill="none" stroke="#191970" d="M86.2089,-239.2407C109.079,-244.3964 137.3889,-250.7784 161.727,-256.2651"/>
<polygon fill="#191970" stroke="#191970" points="161.0111,-259.6914 171.536,-258.4763 162.5505,-252.8628 161.0111,-259.6914"/>
</g>
<!-- Node7 -->
<g id="node7" class="node">
<title>Node7</title>
<g id="a_node7"><a xlink:href="../../da/d29/classFun4AllServer.html#a3e55156f91b2c94bb6c4ef33ffce587a" target="_top" xlink:title="Fun4AllServer::instance">
<polygon fill="none" stroke="#000000" points="346,-286.5 346,-306.5 482,-306.5 482,-286.5 346,-286.5"/>
<text text-anchor="middle" x="414" y="-293.5" font-family="FreeSans" font-size="10.00" fill="#000000">Fun4AllServer::instance</text>
</a>
</g>
</g>
<!-- Node1&#45;&gt;Node7 -->
<g id="edge6" class="edge">
<title>Node1&#45;&gt;Node7</title>
<path fill="none" stroke="#191970" d="M86.2846,-228.1564C139.7204,-227.5372 232.9757,-229.8645 310,-249.5 337.6798,-256.5563 367.1666,-270.5708 387.6466,-281.4685"/>
<polygon fill="#191970" stroke="#191970" points="386.1996,-284.6658 396.6562,-286.3717 389.5457,-278.5173 386.1996,-284.6658"/>
</g>
<!-- Node8 -->
<g id="node8" class="node">
<title>Node8</title>
<g id="a_node8"><a xlink:href="../../da/d29/classFun4AllServer.html#a0a9947db0ede1e55622001eb7515f8c0" target="_top" xlink:title="Fun4AllServer::registerSubsystem">
<polygon fill="none" stroke="#000000" points="122,-180.5 122,-200.5 310,-200.5 310,-180.5 122,-180.5"/>
<text text-anchor="middle" x="216" y="-187.5" font-family="FreeSans" font-size="10.00" fill="#000000">Fun4AllServer::registerSubsystem</text>
</a>
</g>
</g>
<!-- Node1&#45;&gt;Node8 -->
<g id="edge7" class="edge">
<title>Node1&#45;&gt;Node8</title>
<path fill="none" stroke="#191970" d="M86.2089,-219.7593C109.079,-214.6036 137.3889,-208.2216 161.727,-202.7349"/>
<polygon fill="#191970" stroke="#191970" points="162.5505,-206.1372 171.536,-200.5237 161.0111,-199.3086 162.5505,-206.1372"/>
</g>
<!-- Node17 -->
<g id="node17" class="node">
<title>Node17</title>
<g id="a_node17"><a xlink:href="../../d6/d11/classSvtxEvaluator.html#acd17cc0e406d3403494fcf739792e4f7" target="_top" xlink:title="SvtxEvaluator::scan\l_for_embedded">
<polygon fill="none" stroke="#000000" points="158,-129.5 158,-161.5 274,-161.5 274,-129.5 158,-129.5"/>
<text text-anchor="start" x="166" y="-148.5" font-family="FreeSans" font-size="10.00" fill="#000000">SvtxEvaluator::scan</text>
<text text-anchor="middle" x="216" y="-136.5" font-family="FreeSans" font-size="10.00" fill="#000000">_for_embedded</text>
</a>
</g>
</g>
<!-- Node1&#45;&gt;Node17 -->
<g id="edge21" class="edge">
<title>Node1&#45;&gt;Node17</title>
<path fill="none" stroke="#191970" d="M53.9245,-219.4364C68.4389,-206.571 95.3619,-184.4194 122,-171.5 130.1674,-167.5389 139.0362,-164.0965 147.9547,-161.1295"/>
<polygon fill="#191970" stroke="#191970" points="149.1285,-164.4295 157.6207,-158.0944 147.0314,-157.7509 149.1285,-164.4295"/>
</g>
<!-- Node18 -->
<g id="node18" class="node">
<title>Node18</title>
<g id="a_node18"><a xlink:href="../../d6/d11/classSvtxEvaluator.html#ad3d1fa6be6009fed1440906b6bbdc5ed" target="_top" xlink:title="SvtxEvaluator::set\l_use_initial_vertex">
<polygon fill="none" stroke="#000000" points="160.5,-78.5 160.5,-110.5 271.5,-110.5 271.5,-78.5 160.5,-78.5"/>
<text text-anchor="start" x="168.5" y="-97.5" font-family="FreeSans" font-size="10.00" fill="#000000">SvtxEvaluator::set</text>
<text text-anchor="middle" x="216" y="-85.5" font-family="FreeSans" font-size="10.00" fill="#000000">_use_initial_vertex</text>
</a>
</g>
</g>
<!-- Node1&#45;&gt;Node18 -->
<g id="edge22" class="edge">
<title>Node1&#45;&gt;Node18</title>
<path fill="none" stroke="#191970" d="M47.4738,-219.3133C57.5161,-197.6605 83.9847,-146.8858 122,-120.5 130.5383,-114.5737 140.3864,-109.9946 150.4252,-106.4573"/>
<polygon fill="#191970" stroke="#191970" points="151.6116,-109.7526 160.072,-103.3751 149.4811,-103.0847 151.6116,-109.7526"/>
</g>
<!-- Node19 -->
<g id="node19" class="node">
<title>Node19</title>
<g id="a_node19"><a xlink:href="../../d3/d32/classActsEvaluator.html#a235800306deb5e93f1744d63936a6c7f" target="_top" xlink:title="ActsEvaluator::setEvalCKF">
<polygon fill="none" stroke="#000000" points="141,-39.5 141,-59.5 291,-59.5 291,-39.5 141,-39.5"/>
<text text-anchor="middle" x="216" y="-46.5" font-family="FreeSans" font-size="10.00" fill="#000000">ActsEvaluator::setEvalCKF</text>
</a>
</g>
</g>
<!-- Node1&#45;&gt;Node19 -->
<g id="edge23" class="edge">
<title>Node1&#45;&gt;Node19</title>
<path fill="none" stroke="#191970" d="M44.8006,-219.2313C50.4258,-190.4032 70.4754,-108.2443 122,-68.5 125.0115,-66.177 128.2341,-64.1173 131.606,-62.2924"/>
<polygon fill="#191970" stroke="#191970" points="133.2523,-65.3867 140.8383,-57.9906 130.2957,-59.0417 133.2523,-65.3867"/>
</g>
<!-- Node20 -->
<g id="node20" class="node">
<title>Node20</title>
<g id="a_node20"><a xlink:href="../../d5/dec/classFun4AllBase.html#a05da2261577843028cf78e99171343b9" target="_top" xlink:title="Sets the verbosity of this module (0 by default=quiet).">
<polygon fill="none" stroke="#000000" points="150,-.5 150,-20.5 282,-20.5 282,-.5 150,-.5"/>
<text text-anchor="middle" x="216" y="-7.5" font-family="FreeSans" font-size="10.00" fill="#000000">Fun4AllBase::Verbosity</text>
</a>
</g>
</g>
<!-- Node1&#45;&gt;Node20 -->
<g id="edge24" class="edge">
<title>Node1&#45;&gt;Node20</title>
<path fill="none" stroke="#191970" d="M43.7349,-219.2578C46.6952,-186.0865 60.7421,-80.786 122,-29.5 127.4036,-24.976 133.5902,-21.4286 140.1531,-18.6585"/>
<polygon fill="#191970" stroke="#191970" points="141.7574,-21.8016 149.9903,-15.133 139.3957,-15.212 141.7574,-21.8016"/>
</g>
<!-- Node8&#45;&gt;Node7 -->
<g id="edge8" class="edge">
<title>Node8&#45;&gt;Node7</title>
<path fill="none" stroke="#191970" d="M279.5924,-200.5255C290.3814,-204.0957 300.9924,-208.9365 310,-215.5 333.9133,-232.9245 322.9167,-252.9901 346,-271.5 351.4063,-275.8352 357.635,-279.4623 364.0819,-282.4853"/>
<polygon fill="#191970" stroke="#191970" points="363.038,-285.8432 373.6128,-286.4943 365.7521,-279.3908 363.038,-285.8432"/>
</g>
<!-- Node9 -->
<g id="node9" class="node">
<title>Node9</title>
<g id="a_node9"><a xlink:href="../../d5/dec/classFun4AllBase.html#a41f9ac377743d046f590617fd6f4f0ed" target="_top" xlink:title="Returns the name of this module.">
<polygon fill="none" stroke="#000000" points="356.5,-118.5 356.5,-138.5 471.5,-138.5 471.5,-118.5 356.5,-118.5"/>
<text text-anchor="middle" x="414" y="-125.5" font-family="FreeSans" font-size="10.00" fill="#000000">Fun4AllBase::Name</text>
</a>
</g>
</g>
<!-- Node8&#45;&gt;Node9 -->
<g id="edge9" class="edge">
<title>Node8&#45;&gt;Node9</title>
<path fill="none" stroke="#191970" d="M281.643,-180.476C291.325,-178.0712 301.0465,-175.1176 310,-171.5 327.6041,-164.3873 328.7204,-156.3682 346,-148.5 351.4526,-146.0172 357.2908,-143.7554 363.1707,-141.7203"/>
<polygon fill="#191970" stroke="#191970" points="364.6167,-144.9305 373.0448,-138.5104 362.4526,-138.2735 364.6167,-144.9305"/>
</g>
<!-- Node10 -->
<g id="node10" class="node">
<title>Node10</title>
<g id="a_node10"><a xlink:href="../../da/d29/classFun4AllServer.html#abcaf6825367e5db292ff795237bdcf62" target="_top" xlink:title="Fun4AllServer::topNode">
<polygon fill="none" stroke="#000000" points="346,-79.5 346,-99.5 482,-99.5 482,-79.5 346,-79.5"/>
<text text-anchor="middle" x="414" y="-86.5" font-family="FreeSans" font-size="10.00" fill="#000000">Fun4AllServer::topNode</text>
</a>
</g>
</g>
<!-- Node8&#45;&gt;Node10 -->
<g id="edge10" class="edge">
<title>Node8&#45;&gt;Node10</title>
<path fill="none" stroke="#191970" d="M293.713,-180.4953C299.4923,-178.0684 305.0062,-175.1071 310,-171.5 336.1425,-152.6169 320.5642,-128.3248 346,-108.5 348.0303,-106.9176 350.1851,-105.4669 352.4302,-104.1371"/>
<polygon fill="#191970" stroke="#191970" points="354.1112,-107.2093 361.4661,-99.5833 350.9608,-100.9583 354.1112,-107.2093"/>
</g>
<!-- Node11 -->
<g id="node11" class="node">
<title>Node11</title>
<g id="a_node11"><a xlink:href="../../d7/d96/classFun4AllMemoryTracker.html#a3841cc0bc6c4047da2b4868ba39dbb8c" target="_top" xlink:title="Fun4AllMemoryTracker\l::Start">
<polygon fill="none" stroke="#000000" points="348,-196.5 348,-228.5 480,-228.5 480,-196.5 348,-196.5"/>
<text text-anchor="start" x="356" y="-215.5" font-family="FreeSans" font-size="10.00" fill="#000000">Fun4AllMemoryTracker</text>
<text text-anchor="middle" x="414" y="-203.5" font-family="FreeSans" font-size="10.00" fill="#000000">::Start</text>
</a>
</g>
</g>
<!-- Node8&#45;&gt;Node11 -->
<g id="edge11" class="edge">
<title>Node8&#45;&gt;Node11</title>
<path fill="none" stroke="#191970" d="M306.0198,-200.5022C316.5931,-201.677 327.3041,-202.8671 337.6652,-204.0184"/>
<polygon fill="#191970" stroke="#191970" points="337.5661,-207.5288 347.8915,-205.1546 338.3392,-200.5716 337.5661,-207.5288"/>
</g>
<!-- Node14 -->
<g id="node14" class="node">
<title>Node14</title>
<g id="a_node14"><a xlink:href="../../d5/dec/classFun4AllBase.html#a8a5c77a92bdac6bc043476e132379a40" target="_top" xlink:title="Gets the verbosity of this module.">
<polygon fill="none" stroke="#000000" points="522,-202.5 522,-222.5 654,-222.5 654,-202.5 522,-202.5"/>
<text text-anchor="middle" x="588" y="-209.5" font-family="FreeSans" font-size="10.00" fill="#000000">Fun4AllBase::Verbosity</text>
</a>
</g>
</g>
<!-- Node8&#45;&gt;Node14 -->
<g id="edge20" class="edge">
<title>Node8&#45;&gt;Node14</title>
<path fill="none" stroke="#191970" d="M265.2798,-200.5608C279.9887,-204.3682 295.9327,-209.315 310,-215.5 327.3809,-223.1419 327.7753,-233.1752 346,-238.5 415.8636,-258.9124 501.2706,-240.0854 549.6759,-225.5819"/>
<polygon fill="#191970" stroke="#191970" points="550.9043,-228.8656 559.4245,-222.5683 548.8368,-222.1779 550.9043,-228.8656"/>
</g>
<!-- Node15 -->
<g id="node15" class="node">
<title>Node15</title>
<g id="a_node15"><a xlink:href="../../d0/d32/classSubsysReco.html#a6670c0a093dd2c2bdd44f8fc6f9ba8e8" target="_top" xlink:title="SubsysReco::Init">
<polygon fill="none" stroke="#000000" points="364,-157.5 364,-177.5 464,-177.5 464,-157.5 364,-157.5"/>
<text text-anchor="middle" x="414" y="-164.5" font-family="FreeSans" font-size="10.00" fill="#000000">SubsysReco::Init</text>
</a>
</g>
</g>
<!-- Node8&#45;&gt;Node15 -->
<g id="edge15" class="edge">
<title>Node8&#45;&gt;Node15</title>
<path fill="none" stroke="#191970" d="M302.2697,-180.4788C319.5381,-178.4729 337.3319,-176.4059 353.5023,-174.5275"/>
<polygon fill="#191970" stroke="#191970" points="354.343,-177.9535 363.8723,-173.3229 353.5352,-171.0002 354.343,-177.9535"/>
</g>
<!-- Node16 -->
<g id="node16" class="node">
<title>Node16</title>
<g id="a_node16"><a xlink:href="../../d7/d96/classFun4AllMemoryTracker.html#a766ac66dd36ffa4e3fbe6e622923565f" target="_top" xlink:title="Fun4AllMemoryTracker\l::Stop">
<polygon fill="none" stroke="#000000" points="348,-28.5 348,-60.5 480,-60.5 480,-28.5 348,-28.5"/>
<text text-anchor="start" x="356" y="-47.5" font-family="FreeSans" font-size="10.00" fill="#000000">Fun4AllMemoryTracker</text>
<text text-anchor="middle" x="414" y="-35.5" font-family="FreeSans" font-size="10.00" fill="#000000">::Stop</text>
</a>
</g>
</g>
<!-- Node8&#45;&gt;Node16 -->
<g id="edge16" class="edge">
<title>Node8&#45;&gt;Node16</title>
<path fill="none" stroke="#191970" d="M296.7244,-180.3438C301.4939,-177.913 305.9786,-174.9949 310,-171.5 346.2855,-139.9647 312.2285,-103.714 346,-69.5 346.9443,-68.5433 347.9284,-67.6229 348.9471,-66.7374"/>
<polygon fill="#191970" stroke="#191970" points="351.334,-69.3287 357.3546,-60.6107 347.2115,-63.6715 351.334,-69.3287"/>
</g>
<!-- Node12 -->
<g id="node12" class="node">
<title>Node12</title>
<g id="a_node12"><a xlink:href="../../d7/d96/classFun4AllMemoryTracker.html#aa8eb9ed150f51165b9abfd456c18a432" target="_top" xlink:title="Fun4AllMemoryTracker\l::CreateFullTrackerName">
<polygon fill="none" stroke="#000000" points="518,-133.5 518,-165.5 658,-165.5 658,-133.5 518,-133.5"/>
<text text-anchor="start" x="526" y="-152.5" font-family="FreeSans" font-size="10.00" fill="#000000">Fun4AllMemoryTracker</text>
<text text-anchor="middle" x="588" y="-140.5" font-family="FreeSans" font-size="10.00" fill="#000000">::CreateFullTrackerName</text>
</a>
</g>
</g>
<!-- Node11&#45;&gt;Node12 -->
<g id="edge12" class="edge">
<title>Node11&#45;&gt;Node12</title>
<path fill="none" stroke="#191970" d="M458.3578,-196.4394C481.4686,-188.0717 509.9131,-177.7728 534.2643,-168.956"/>
<polygon fill="#191970" stroke="#191970" points="535.5121,-172.2266 543.7232,-165.5312 533.129,-165.6448 535.5121,-172.2266"/>
</g>
<!-- Node13 -->
<g id="node13" class="node">
<title>Node13</title>
<g id="a_node13"><a xlink:href="../../d7/d96/classFun4AllMemoryTracker.html#a4059a8c86c92e1708e5bbdc585af99ed" target="_top" xlink:title="Fun4AllMemoryTracker\l::GetRSSMemory">
<polygon fill="none" stroke="#000000" points="522,-46.5 522,-78.5 654,-78.5 654,-46.5 522,-46.5"/>
<text text-anchor="start" x="530" y="-65.5" font-family="FreeSans" font-size="10.00" fill="#000000">Fun4AllMemoryTracker</text>
<text text-anchor="middle" x="588" y="-53.5" font-family="FreeSans" font-size="10.00" fill="#000000">::GetRSSMemory</text>
</a>
</g>
</g>
<!-- Node11&#45;&gt;Node13 -->
<g id="edge13" class="edge">
<title>Node11&#45;&gt;Node13</title>
<path fill="none" stroke="#191970" d="M468.6533,-196.4492C473.4257,-193.8761 477.9662,-190.9113 482,-187.5 506.6242,-166.6758 497.6585,-149.5244 518,-124.5 529.7872,-109.9992 545.127,-96.0036 558.4414,-84.9907"/>
<polygon fill="#191970" stroke="#191970" points="560.8433,-87.5497 566.4198,-78.5412 556.4427,-82.1058 560.8433,-87.5497"/>
</g>
<!-- Node11&#45;&gt;Node14 -->
<g id="edge14" class="edge">
<title>Node11&#45;&gt;Node14</title>
<path fill="none" stroke="#191970" d="M480.2783,-212.5C490.6131,-212.5 501.3621,-212.5 511.8946,-212.5"/>
<polygon fill="#191970" stroke="#191970" points="511.906,-216.0001 521.906,-212.5 511.9059,-209.0001 511.906,-216.0001"/>
</g>
<!-- Node16&#45;&gt;Node12 -->
<g id="edge17" class="edge">
<title>Node16&#45;&gt;Node12</title>
<path fill="none" stroke="#191970" d="M463.0622,-60.5563C469.5646,-63.2543 476.0374,-66.2472 482,-69.5 511.482,-85.5836 541.7322,-109.2649 562.3312,-126.6906"/>
<polygon fill="#191970" stroke="#191970" points="560.1304,-129.4139 569.9998,-133.2669 564.6872,-124.1002 560.1304,-129.4139"/>
</g>
<!-- Node16&#45;&gt;Node13 -->
<g id="edge18" class="edge">
<title>Node16&#45;&gt;Node13</title>
<path fill="none" stroke="#191970" d="M480.2783,-51.3564C490.6131,-52.4255 501.3621,-53.5375 511.8946,-54.627"/>
<polygon fill="#191970" stroke="#191970" points="511.5989,-58.115 521.906,-55.6627 512.3192,-51.1522 511.5989,-58.115"/>
</g>
<!-- Node16&#45;&gt;Node14 -->
<g id="edge19" class="edge">
<title>Node16&#45;&gt;Node14</title>
<path fill="none" stroke="#191970" d="M470.6895,-60.5674C474.8177,-63.1218 478.6626,-66.0784 482,-69.5 516.7405,-105.1168 485.7207,-137.6383 518,-175.5 526.1517,-185.0615 537.4064,-192.5121 548.5089,-198.1402"/>
<polygon fill="#191970" stroke="#191970" points="547.1862,-201.3853 557.7278,-202.4455 550.1482,-195.0428 547.1862,-201.3853"/>
</g>
</g>
</svg>
