<?xml version="1.0" encoding="UTF-8" standalone="no"?>
<!DOCTYPE svg PUBLIC "-//W3C//DTD SVG 1.1//EN"
 "http://www.w3.org/Graphics/SVG/1.1/DTD/svg11.dtd">
<!-- Generated by graphviz version 2.40.1 (20161225.0304)
 -->
<!-- Title: PHG4Particle::get_barcode Pages: 1 -->
<svg width="518pt" height="41pt"
 viewBox="0.00 0.00 518.00 41.00" xmlns="http://www.w3.org/2000/svg" xmlns:xlink="http://www.w3.org/1999/xlink">
<g id="graph0" class="graph" transform="scale(1 1) rotate(0) translate(4 37)">
<title>PHG4Particle::get_barcode</title>
<!-- Node1 -->
<g id="node1" class="node">
<title>Node1</title>
<polygon fill="#bfbfbf" stroke="#000000" points="0,-6.5 0,-26.5 151,-26.5 151,-6.5 0,-6.5"/>
<text text-anchor="middle" x="75.5" y="-13.5" font-family="FreeSans" font-size="10.00" fill="#000000">PHG4Particle::get_barcode</text>
</g>
<!-- Node2 -->
<g id="node2" class="node">
<title>Node2</title>
<g id="a_node2"><a xlink:href="../../db/d22/classEventEvaluator.html#ada437671569f41f49d8efe8235d569ab" target="_top" xlink:title="dump the evaluator information into ntuple for external analysis">
<polygon fill="none" stroke="#000000" points="187,-.5 187,-32.5 335,-32.5 335,-.5 187,-.5"/>
<text text-anchor="start" x="195" y="-19.5" font-family="FreeSans" font-size="10.00" fill="#000000">EventEvaluator::fillOutput</text>
<text text-anchor="middle" x="261" y="-7.5" font-family="FreeSans" font-size="10.00" fill="#000000">Ntuples</text>
</a>
</g>
</g>
<!-- Node1&#45;&gt;Node2 -->
<g id="edge1" class="edge">
<title>Node1&#45;&gt;Node2</title>
<path fill="none" stroke="#191970" d="M161.4573,-16.5C169.8982,-16.5 178.4146,-16.5 186.7247,-16.5"/>
<polygon fill="#191970" stroke="#191970" points="161.2175,-13.0001 151.2175,-16.5 161.2175,-20.0001 161.2175,-13.0001"/>
</g>
<!-- Node3 -->
<g id="node3" class="node">
<title>Node3</title>
<g id="a_node3"><a xlink:href="../../db/d22/classEventEvaluator.html#a5b4dc2c7afd4f3844396f08cc9c555ad" target="_top" xlink:title="EventEvaluator::process\l_event">
<polygon fill="none" stroke="#000000" points="371,-.5 371,-32.5 510,-32.5 510,-.5 371,-.5"/>
<text text-anchor="start" x="379" y="-19.5" font-family="FreeSans" font-size="10.00" fill="#000000">EventEvaluator::process</text>
<text text-anchor="middle" x="440.5" y="-7.5" font-family="FreeSans" font-size="10.00" fill="#000000">_event</text>
</a>
</g>
</g>
<!-- Node2&#45;&gt;Node3 -->
<g id="edge2" class="edge">
<title>Node2&#45;&gt;Node3</title>
<path fill="none" stroke="#191970" d="M345.1389,-16.5C353.7804,-16.5 362.4915,-16.5 370.9501,-16.5"/>
<polygon fill="#191970" stroke="#191970" points="345.0459,-13.0001 335.0459,-16.5 345.0458,-20.0001 345.0459,-13.0001"/>
</g>
</g>
</svg>
