<?xml version="1.0" encoding="UTF-8" standalone="no"?>
<!DOCTYPE svg PUBLIC "-//W3C//DTD SVG 1.1//EN"
 "http://www.w3.org/Graphics/SVG/1.1/DTD/svg11.dtd">
<!-- Generated by graphviz version 2.40.1 (20161225.0304)
 -->
<!-- Title: oncsSub_idtpcfeev3::tpc_decode Pages: 1 -->
<svg width="431pt" height="107pt"
 viewBox="0.00 0.00 431.00 106.72" xmlns="http://www.w3.org/2000/svg" xmlns:xlink="http://www.w3.org/1999/xlink">
<g id="graph0" class="graph" transform="scale(1 1) rotate(0) translate(4 102.7198)">
<title>oncsSub_idtpcfeev3::tpc_decode</title>
<!-- Node1 -->
<g id="node1" class="node">
<title>Node1</title>
<polygon fill="#bfbfbf" stroke="#000000" points="0,-51.5 0,-83.5 117,-83.5 117,-51.5 0,-51.5"/>
<text text-anchor="start" x="8" y="-70.5" font-family="FreeSans" font-size="10.00" fill="#000000">oncsSub_idtpcfeev3</text>
<text text-anchor="middle" x="58.5" y="-58.5" font-family="FreeSans" font-size="10.00" fill="#000000">::tpc_decode</text>
</g>
<!-- Node2 -->
<g id="node2" class="node">
<title>Node2</title>
<g id="a_node2"><a xlink:href="../../d9/d64/classoncsSub__idtpcfeev3.html#aadda7b7b96c17b843ee26aec4f224eac" target="_top" xlink:title="oncsSub_idtpcfeev3\l::dump">
<polygon fill="none" stroke="#000000" points="306,-51.5 306,-83.5 423,-83.5 423,-51.5 306,-51.5"/>
<text text-anchor="start" x="314" y="-70.5" font-family="FreeSans" font-size="10.00" fill="#000000">oncsSub_idtpcfeev3</text>
<text text-anchor="middle" x="364.5" y="-58.5" font-family="FreeSans" font-size="10.00" fill="#000000">::dump</text>
</a>
</g>
</g>
<!-- Node1&#45;&gt;Node2 -->
<g id="edge1" class="edge">
<title>Node1&#45;&gt;Node2</title>
<path fill="none" stroke="#191970" d="M116.8155,-86.1658C128.6709,-89.2156 141.1434,-91.8987 153,-93.5 204.5321,-100.4598 218.4679,-100.4598 270,-93.5 285.1765,-91.4503 301.3619,-87.6283 315.971,-83.5335"/>
<polygon fill="#191970" stroke="#191970" points="117.5949,-82.7512 107.029,-83.5335 115.7766,-89.5109 117.5949,-82.7512"/>
</g>
<!-- Node3 -->
<g id="node3" class="node">
<title>Node3</title>
<g id="a_node3"><a xlink:href="../../d9/d64/classoncsSub__idtpcfeev3.html#ab3e7ed94690a7c56c72887e34ef5b5e0" target="_top" xlink:title="SAMPA waveform interfaces.">
<polygon fill="none" stroke="#000000" points="153,-51.5 153,-83.5 270,-83.5 270,-51.5 153,-51.5"/>
<text text-anchor="start" x="161" y="-70.5" font-family="FreeSans" font-size="10.00" fill="#000000">oncsSub_idtpcfeev3</text>
<text text-anchor="middle" x="211.5" y="-58.5" font-family="FreeSans" font-size="10.00" fill="#000000">::iValue</text>
</a>
</g>
</g>
<!-- Node1&#45;&gt;Node3 -->
<g id="edge2" class="edge">
<title>Node1&#45;&gt;Node3</title>
<path fill="none" stroke="#191970" d="M127.4932,-67.5C135.9927,-67.5 144.617,-67.5 152.9409,-67.5"/>
<polygon fill="#191970" stroke="#191970" points="127.2163,-64.0001 117.2162,-67.5 127.2162,-71.0001 127.2163,-64.0001"/>
</g>
<!-- Node4 -->
<g id="node4" class="node">
<title>Node4</title>
<g id="a_node4"><a xlink:href="../../d9/d64/classoncsSub__idtpcfeev3.html#a6a254d56a50daf485e8187301c9a2028" target="_top" xlink:title="Expose the Level 1 trigger and endat taggers.">
<polygon fill="none" stroke="#000000" points="153,-.5 153,-32.5 270,-32.5 270,-.5 153,-.5"/>
<text text-anchor="start" x="161" y="-19.5" font-family="FreeSans" font-size="10.00" fill="#000000">oncsSub_idtpcfeev3</text>
<text text-anchor="middle" x="211.5" y="-7.5" font-family="FreeSans" font-size="10.00" fill="#000000">::lValue</text>
</a>
</g>
</g>
<!-- Node1&#45;&gt;Node4 -->
<g id="edge4" class="edge">
<title>Node1&#45;&gt;Node4</title>
<path fill="none" stroke="#191970" d="M116.399,-48.2003C131.9035,-43.0322 148.4932,-37.5023 163.4048,-32.5317"/>
<polygon fill="#191970" stroke="#191970" points="115.2902,-44.8805 106.9102,-51.3633 117.5038,-51.5213 115.2902,-44.8805"/>
</g>
<!-- Node3&#45;&gt;Node2 -->
<g id="edge3" class="edge">
<title>Node3&#45;&gt;Node2</title>
<path fill="none" stroke="#191970" d="M280.4932,-67.5C288.9927,-67.5 297.617,-67.5 305.9409,-67.5"/>
<polygon fill="#191970" stroke="#191970" points="280.2163,-64.0001 270.2162,-67.5 280.2162,-71.0001 280.2163,-64.0001"/>
</g>
<!-- Node4&#45;&gt;Node2 -->
<g id="edge5" class="edge">
<title>Node4&#45;&gt;Node2</title>
<path fill="none" stroke="#191970" d="M269.399,-35.7997C284.9035,-40.9678 301.4932,-46.4977 316.4048,-51.4683"/>
<polygon fill="#191970" stroke="#191970" points="270.5038,-32.4787 259.9102,-32.6367 268.2902,-39.1195 270.5038,-32.4787"/>
</g>
</g>
</svg>
