<?xml version="1.0" encoding="UTF-8" standalone="no"?>
<!DOCTYPE svg PUBLIC "-//W3C//DTD SVG 1.1//EN"
 "http://www.w3.org/Graphics/SVG/1.1/DTD/svg11.dtd">
<!-- Generated by graphviz version 2.40.1 (20161225.0304)
 -->
<!-- Title: DisplayOn Pages: 1 -->
<svg width="251pt" height="182pt"
 viewBox="0.00 0.00 251.00 182.00" xmlns="http://www.w3.org/2000/svg" xmlns:xlink="http://www.w3.org/1999/xlink">
<g id="graph0" class="graph" transform="scale(1 1) rotate(0) translate(4 178)">
<title>DisplayOn</title>
<!-- Node1 -->
<g id="node1" class="node">
<title>Node1</title>
<polygon fill="#bfbfbf" stroke="#000000" points="0,-70.5 0,-90.5 68,-90.5 68,-70.5 0,-70.5"/>
<text text-anchor="middle" x="34" y="-77.5" font-family="FreeSans" font-size="10.00" fill="#000000">DisplayOn</text>
</g>
<!-- Node2 -->
<g id="node2" class="node">
<title>Node2</title>
<g id="a_node2"><a xlink:href="../../d4/de9/Fun4All__AnaTutorial__sPHENIX_8C.html#a5028836c74f0bebec560d3ab54daa022" target="_top" xlink:title="Fun4All_AnaTutorial\l_sPHENIX">
<polygon fill="none" stroke="#000000" points="116,-141.5 116,-173.5 231,-173.5 231,-141.5 116,-141.5"/>
<text text-anchor="start" x="124" y="-160.5" font-family="FreeSans" font-size="10.00" fill="#000000">Fun4All_AnaTutorial</text>
<text text-anchor="middle" x="173.5" y="-148.5" font-family="FreeSans" font-size="10.00" fill="#000000">_sPHENIX</text>
</a>
</g>
</g>
<!-- Node1&#45;&gt;Node2 -->
<g id="edge1" class="edge">
<title>Node1&#45;&gt;Node2</title>
<path fill="none" stroke="#191970" d="M53.3269,-97.2962C66.83,-108.3998 85.658,-122.6669 104,-132.5 110.1027,-135.7716 116.7232,-138.7754 123.3715,-141.4788"/>
<polygon fill="#191970" stroke="#191970" points="55.5688,-94.6084 45.6594,-90.8593 51.068,-99.9697 55.5688,-94.6084"/>
</g>
<!-- Node3 -->
<g id="node3" class="node">
<title>Node3</title>
<g id="a_node3"><a xlink:href="../../d6/d14/Fun4All__AnaTutorial__sPHENIX__Jets_8C.html#a61b352bca84476d24b0ff40991b27900" target="_top" xlink:title="Fun4All_AnaTutorial\l_sPHENIX_Jets">
<polygon fill="none" stroke="#000000" points="116,-90.5 116,-122.5 231,-122.5 231,-90.5 116,-90.5"/>
<text text-anchor="start" x="124" y="-109.5" font-family="FreeSans" font-size="10.00" fill="#000000">Fun4All_AnaTutorial</text>
<text text-anchor="middle" x="173.5" y="-97.5" font-family="FreeSans" font-size="10.00" fill="#000000">_sPHENIX_Jets</text>
</a>
</g>
</g>
<!-- Node1&#45;&gt;Node3 -->
<g id="edge2" class="edge">
<title>Node1&#45;&gt;Node3</title>
<path fill="none" stroke="#191970" d="M78.2658,-88.7503C90.1906,-90.9728 103.2675,-93.4101 115.8082,-95.7474"/>
<polygon fill="#191970" stroke="#191970" points="78.5976,-85.2519 68.1255,-86.8603 77.3149,-92.1334 78.5976,-85.2519"/>
</g>
<!-- Node4 -->
<g id="node4" class="node">
<title>Node4</title>
<g id="a_node4"><a xlink:href="../../df/dd8/Fun4All__G4__EICDetector__AnaTutorial_8C.html#a598434aca3dac5cdb0ca67ccc548d865" target="_top" xlink:title="Fun4All_G4_EICDetector\l_AnaTutorial">
<polygon fill="none" stroke="#000000" points="104,-39.5 104,-71.5 243,-71.5 243,-39.5 104,-39.5"/>
<text text-anchor="start" x="112" y="-58.5" font-family="FreeSans" font-size="10.00" fill="#000000">Fun4All_G4_EICDetector</text>
<text text-anchor="middle" x="173.5" y="-46.5" font-family="FreeSans" font-size="10.00" fill="#000000">_AnaTutorial</text>
</a>
</g>
</g>
<!-- Node1&#45;&gt;Node4 -->
<g id="edge3" class="edge">
<title>Node1&#45;&gt;Node4</title>
<path fill="none" stroke="#191970" d="M78.2009,-72.5787C86.4199,-71.1058 95.188,-69.5344 103.952,-67.9638"/>
<polygon fill="#191970" stroke="#191970" points="77.3513,-69.1751 68.1255,-74.3843 78.5862,-76.0653 77.3513,-69.1751"/>
</g>
<!-- Node5 -->
<g id="node5" class="node">
<title>Node5</title>
<g id="a_node5"><a xlink:href="../../d1/d19/macros_2blob_2master_2detectors_2sPHENIX_2Fun4All__G4__sPHENIX_8C.html#a4102cd3e195333de974409428a2e6dae" target="_top" xlink:title="Fun4All_G4_sPHENIX">
<polygon fill="none" stroke="#000000" points="113,-.5 113,-20.5 234,-20.5 234,-.5 113,-.5"/>
<text text-anchor="middle" x="173.5" y="-7.5" font-family="FreeSans" font-size="10.00" fill="#000000">Fun4All_G4_sPHENIX</text>
</a>
</g>
</g>
<!-- Node1&#45;&gt;Node5 -->
<g id="edge4" class="edge">
<title>Node1&#45;&gt;Node5</title>
<path fill="none" stroke="#191970" d="M53.6177,-63.7078C67.053,-52.9319 85.6898,-39.3499 104,-30.5 112.1392,-26.5661 121.1977,-23.2629 130.0145,-20.547"/>
<polygon fill="#191970" stroke="#191970" points="51.0955,-61.2505 45.5956,-70.306 55.5422,-66.6567 51.0955,-61.2505"/>
</g>
</g>
</svg>
