<?xml version="1.0" encoding="UTF-8" standalone="no"?>
<!DOCTYPE svg PUBLIC "-//W3C//DTD SVG 1.1//EN"
 "http://www.w3.org/Graphics/SVG/1.1/DTD/svg11.dtd">
<!-- Generated by graphviz version 2.40.1 (20161225.0304)
 -->
<!-- Title: acts/blob/sPHENIX/Fatras/include/ActsFatras/EventData/Hit.hpp Pages: 1 -->
<svg width="582pt" height="236pt"
 viewBox="0.00 0.00 581.50 236.00" xmlns="http://www.w3.org/2000/svg" xmlns:xlink="http://www.w3.org/1999/xlink">
<g id="graph0" class="graph" transform="scale(1 1) rotate(0) translate(4 232)">
<title>acts/blob/sPHENIX/Fatras/include/ActsFatras/EventData/Hit.hpp</title>
<!-- Node1 -->
<g id="node1" class="node">
<title>Node1</title>
<polygon fill="#bfbfbf" stroke="#000000" points="202.5,-183.5 202.5,-227.5 370.5,-227.5 370.5,-183.5 202.5,-183.5"/>
<text text-anchor="start" x="210.5" y="-214.5" font-family="FreeSans" font-size="10.00" fill="#000000">acts/blob/sPHENIX/Fatras</text>
<text text-anchor="start" x="210.5" y="-202.5" font-family="FreeSans" font-size="10.00" fill="#000000">/include/ActsFatras/EventData</text>
<text text-anchor="middle" x="286.5" y="-190.5" font-family="FreeSans" font-size="10.00" fill="#000000">/Hit.hpp</text>
</g>
<!-- Node2 -->
<g id="node2" class="node">
<title>Node2</title>
<g id="a_node2"><a xlink:href="../../d5/d67/GeometryIdentifier_8hpp.html" target="_top" xlink:title="Acts/Geometry/GeometryIdentifier.hpp">
<polygon fill="none" stroke="#000000" points="0,-120.5 0,-140.5 213,-140.5 213,-120.5 0,-120.5"/>
<text text-anchor="middle" x="106.5" y="-127.5" font-family="FreeSans" font-size="10.00" fill="#000000">Acts/Geometry/GeometryIdentifier.hpp</text>
</a>
</g>
</g>
<!-- Node1&#45;&gt;Node2 -->
<g id="edge1" class="edge">
<title>Node1&#45;&gt;Node2</title>
<path fill="none" stroke="#191970" d="M233.4676,-183.4032C203.3065,-170.836 166.441,-155.4754 140.2207,-144.5503"/>
<polygon fill="#191970" stroke="#191970" points="141.3058,-141.2108 130.7289,-140.5954 138.6135,-147.6723 141.3058,-141.2108"/>
</g>
<!-- Node3 -->
<g id="node3" class="node">
<title>Node3</title>
<polygon fill="none" stroke="#bfbfbf" points="196,-57.5 196,-77.5 247,-77.5 247,-57.5 196,-57.5"/>
<text text-anchor="middle" x="221.5" y="-64.5" font-family="FreeSans" font-size="10.00" fill="#000000">cstdint</text>
</g>
<!-- Node1&#45;&gt;Node3 -->
<g id="edge16" class="edge">
<title>Node1&#45;&gt;Node3</title>
<path fill="none" stroke="#191970" d="M276.0566,-183.3279C263.5033,-156.6762 242.6373,-112.376 230.6768,-86.9831"/>
<polygon fill="#191970" stroke="#191970" points="233.7129,-85.215 226.2854,-77.6597 227.3802,-88.1978 233.7129,-85.215"/>
</g>
<!-- Node6 -->
<g id="node6" class="node">
<title>Node6</title>
<g id="a_node6"><a xlink:href="../../d6/d1d/Definitions_8hpp.html" target="_top" xlink:title="Acts/Utilities/Definitions.hpp">
<polygon fill="none" stroke="#000000" points="413.5,-120.5 413.5,-140.5 573.5,-140.5 573.5,-120.5 413.5,-120.5"/>
<text text-anchor="middle" x="493.5" y="-127.5" font-family="FreeSans" font-size="10.00" fill="#000000">Acts/Utilities/Definitions.hpp</text>
</a>
</g>
</g>
<!-- Node1&#45;&gt;Node6 -->
<g id="edge5" class="edge">
<title>Node1&#45;&gt;Node6</title>
<path fill="none" stroke="#191970" d="M347.4872,-183.4032C382.631,-170.6699 425.6897,-155.0689 455.9103,-144.1195"/>
<polygon fill="#191970" stroke="#191970" points="457.4272,-147.2926 465.6368,-140.5954 455.0426,-140.7112 457.4272,-147.2926"/>
</g>
<!-- Node8 -->
<g id="node8" class="node">
<title>Node8</title>
<g id="a_node8"><a xlink:href="../../d5/dee/Barcode_8hpp.html" target="_top" xlink:title="ActsFatras/EventData\l/Barcode.hpp">
<polygon fill="none" stroke="#000000" points="270,-114.5 270,-146.5 395,-146.5 395,-114.5 270,-114.5"/>
<text text-anchor="start" x="278" y="-133.5" font-family="FreeSans" font-size="10.00" fill="#000000">ActsFatras/EventData</text>
<text text-anchor="middle" x="332.5" y="-121.5" font-family="FreeSans" font-size="10.00" fill="#000000">/Barcode.hpp</text>
</a>
</g>
</g>
<!-- Node1&#45;&gt;Node8 -->
<g id="edge7" class="edge">
<title>Node1&#45;&gt;Node8</title>
<path fill="none" stroke="#191970" d="M300.0527,-183.4032C305.4591,-174.5885 311.7083,-164.3995 317.2705,-155.3307"/>
<polygon fill="#191970" stroke="#191970" points="320.3022,-157.082 322.547,-146.7277 314.3351,-153.4222 320.3022,-157.082"/>
</g>
<!-- Node2&#45;&gt;Node3 -->
<g id="edge2" class="edge">
<title>Node2&#45;&gt;Node3</title>
<path fill="none" stroke="#191970" d="M124.9767,-120.378C143.6706,-110.137 172.7838,-94.188 194.151,-82.4825"/>
<polygon fill="#191970" stroke="#191970" points="195.9805,-85.4711 203.0691,-77.5969 192.6173,-79.3319 195.9805,-85.4711"/>
</g>
<!-- Node4 -->
<g id="node4" class="node">
<title>Node4</title>
<polygon fill="none" stroke="#bfbfbf" points="87.5,-57.5 87.5,-77.5 153.5,-77.5 153.5,-57.5 87.5,-57.5"/>
<text text-anchor="middle" x="120.5" y="-64.5" font-family="FreeSans" font-size="10.00" fill="#000000">functional</text>
</g>
<!-- Node2&#45;&gt;Node4 -->
<g id="edge3" class="edge">
<title>Node2&#45;&gt;Node4</title>
<path fill="none" stroke="#191970" d="M108.7493,-120.378C110.6972,-111.6128 113.5742,-98.6662 115.9939,-87.7777"/>
<polygon fill="#191970" stroke="#191970" points="119.457,-88.3274 118.2097,-77.8062 112.6237,-86.8088 119.457,-88.3274"/>
</g>
<!-- Node5 -->
<g id="node5" class="node">
<title>Node5</title>
<polygon fill="none" stroke="#bfbfbf" points="21.5,-57.5 21.5,-77.5 69.5,-77.5 69.5,-57.5 21.5,-57.5"/>
<text text-anchor="middle" x="45.5" y="-64.5" font-family="FreeSans" font-size="10.00" fill="#000000">iosfwd</text>
</g>
<!-- Node2&#45;&gt;Node5 -->
<g id="edge4" class="edge">
<title>Node2&#45;&gt;Node5</title>
<path fill="none" stroke="#191970" d="M96.6993,-120.378C87.5051,-110.8823 73.5594,-96.4794 62.5432,-85.102"/>
<polygon fill="#191970" stroke="#191970" points="64.9496,-82.5558 55.479,-77.8062 59.9207,-87.4251 64.9496,-82.5558"/>
</g>
<!-- Node7 -->
<g id="node7" class="node">
<title>Node7</title>
<polygon fill="none" stroke="#bfbfbf" points="453.5,-57.5 453.5,-77.5 533.5,-77.5 533.5,-57.5 453.5,-57.5"/>
<text text-anchor="middle" x="493.5" y="-64.5" font-family="FreeSans" font-size="10.00" fill="#000000">Eigen/Dense</text>
</g>
<!-- Node6&#45;&gt;Node7 -->
<g id="edge6" class="edge">
<title>Node6&#45;&gt;Node7</title>
<path fill="none" stroke="#191970" d="M493.5,-120.378C493.5,-111.7041 493.5,-98.9355 493.5,-88.1186"/>
<polygon fill="#191970" stroke="#191970" points="497.0001,-87.8062 493.5,-77.8062 490.0001,-87.8062 497.0001,-87.8062"/>
</g>
<!-- Node8&#45;&gt;Node3 -->
<g id="edge15" class="edge">
<title>Node8&#45;&gt;Node3</title>
<path fill="none" stroke="#191970" d="M304.2028,-114.4394C286.9687,-104.6579 265.0852,-92.2376 248.1583,-82.6304"/>
<polygon fill="#191970" stroke="#191970" points="249.7499,-79.5093 239.3254,-77.6171 246.2946,-85.5971 249.7499,-79.5093"/>
</g>
<!-- Node9 -->
<g id="node9" class="node">
<title>Node9</title>
<g id="a_node9"><a xlink:href="../../d1/d01/MultiIndex_8hpp.html" target="_top" xlink:title="Acts/Utilities/MultiIndex.hpp">
<polygon fill="none" stroke="#000000" points="265,-57.5 265,-77.5 424,-77.5 424,-57.5 265,-57.5"/>
<text text-anchor="middle" x="344.5" y="-64.5" font-family="FreeSans" font-size="10.00" fill="#000000">Acts/Utilities/MultiIndex.hpp</text>
</a>
</g>
</g>
<!-- Node8&#45;&gt;Node9 -->
<g id="edge8" class="edge">
<title>Node8&#45;&gt;Node9</title>
<path fill="none" stroke="#191970" d="M335.5903,-114.2759C337.1332,-106.1754 339.0149,-96.2966 340.6508,-87.7084"/>
<polygon fill="#191970" stroke="#191970" points="344.1144,-88.2296 342.5474,-77.7513 337.238,-86.9197 344.1144,-88.2296"/>
</g>
<!-- Node10 -->
<g id="node10" class="node">
<title>Node10</title>
<polygon fill="none" stroke="#bfbfbf" points="153,-.5 153,-20.5 196,-20.5 196,-.5 153,-.5"/>
<text text-anchor="middle" x="174.5" y="-7.5" font-family="FreeSans" font-size="10.00" fill="#000000">array</text>
</g>
<!-- Node9&#45;&gt;Node10 -->
<g id="edge9" class="edge">
<title>Node9&#45;&gt;Node10</title>
<path fill="none" stroke="#191970" d="M313.8649,-57.481C287.4664,-48.8131 248.1009,-35.8062 205.7674,-21.4026"/>
<polygon fill="#191970" stroke="#191970" points="206.7102,-18.0262 196.1157,-18.1118 204.4512,-24.6517 206.7102,-18.0262"/>
</g>
<!-- Node11 -->
<g id="node11" class="node">
<title>Node11</title>
<polygon fill="none" stroke="#bfbfbf" points="214,-.5 214,-20.5 267,-20.5 267,-.5 214,-.5"/>
<text text-anchor="middle" x="240.5" y="-7.5" font-family="FreeSans" font-size="10.00" fill="#000000">cassert</text>
</g>
<!-- Node9&#45;&gt;Node11 -->
<g id="edge10" class="edge">
<title>Node9&#45;&gt;Node11</title>
<path fill="none" stroke="#191970" d="M325.9069,-57.3095C309.7868,-48.4745 286.2389,-35.5684 267.9497,-25.5445"/>
<polygon fill="#191970" stroke="#191970" points="269.3836,-22.3393 258.9321,-20.6022 266.0192,-28.4778 269.3836,-22.3393"/>
</g>
<!-- Node12 -->
<g id="node12" class="node">
<title>Node12</title>
<polygon fill="none" stroke="#bfbfbf" points="285,-.5 285,-20.5 334,-20.5 334,-.5 285,-.5"/>
<text text-anchor="middle" x="309.5" y="-7.5" font-family="FreeSans" font-size="10.00" fill="#000000">climits</text>
</g>
<!-- Node9&#45;&gt;Node12 -->
<g id="edge11" class="edge">
<title>Node9&#45;&gt;Node12</title>
<path fill="none" stroke="#191970" d="M338.2427,-57.3095C333.4647,-49.5282 326.7477,-38.589 321.0084,-29.2423"/>
<polygon fill="#191970" stroke="#191970" points="323.9184,-27.2925 315.7031,-20.6022 317.9532,-30.9554 323.9184,-27.2925"/>
</g>
<!-- Node13 -->
<g id="node13" class="node">
<title>Node13</title>
<polygon fill="none" stroke="#bfbfbf" points="352,-.5 352,-20.5 409,-20.5 409,-.5 352,-.5"/>
<text text-anchor="middle" x="380.5" y="-7.5" font-family="FreeSans" font-size="10.00" fill="#000000">ostream</text>
</g>
<!-- Node9&#45;&gt;Node13 -->
<g id="edge12" class="edge">
<title>Node9&#45;&gt;Node13</title>
<path fill="none" stroke="#191970" d="M350.9361,-57.3095C355.8506,-49.5282 362.7596,-38.589 368.6628,-29.2423"/>
<polygon fill="#191970" stroke="#191970" points="371.7389,-30.9261 374.1196,-20.6022 365.8204,-27.1881 371.7389,-30.9261"/>
</g>
<!-- Node14 -->
<g id="node14" class="node">
<title>Node14</title>
<polygon fill="none" stroke="#bfbfbf" points="427.5,-.5 427.5,-20.5 497.5,-20.5 497.5,-.5 427.5,-.5"/>
<text text-anchor="middle" x="462.5" y="-7.5" font-family="FreeSans" font-size="10.00" fill="#000000">type_traits</text>
</g>
<!-- Node9&#45;&gt;Node14 -->
<g id="edge13" class="edge">
<title>Node9&#45;&gt;Node14</title>
<path fill="none" stroke="#191970" d="M365.3244,-57.4408C383.9141,-48.461 411.365,-35.2008 432.3534,-25.0624"/>
<polygon fill="#191970" stroke="#191970" points="434.0048,-28.1517 441.4869,-20.6504 430.96,-21.8485 434.0048,-28.1517"/>
</g>
<!-- Node15 -->
<g id="node15" class="node">
<title>Node15</title>
<polygon fill="none" stroke="#bfbfbf" points="516,-.5 516,-20.5 561,-20.5 561,-.5 516,-.5"/>
<text text-anchor="middle" x="538.5" y="-7.5" font-family="FreeSans" font-size="10.00" fill="#000000">utility</text>
</g>
<!-- Node9&#45;&gt;Node15 -->
<g id="edge14" class="edge">
<title>Node9&#45;&gt;Node15</title>
<path fill="none" stroke="#191970" d="M380.9676,-57.4542C411.8202,-48.8613 457.4224,-35.9417 506.0463,-21.0634"/>
<polygon fill="#191970" stroke="#191970" points="507.278,-24.3465 515.8079,-18.0623 505.2209,-17.6556 507.278,-24.3465"/>
</g>
</g>
</svg>
