<?xml version="1.0" encoding="UTF-8" standalone="no"?>
<!DOCTYPE svg PUBLIC "-//W3C//DTD SVG 1.1//EN"
 "http://www.w3.org/Graphics/SVG/1.1/DTD/svg11.dtd">
<!-- Generated by graphviz version 2.40.1 (20161225.0304)
 -->
<!-- Title: PHG4Sector::Sector_Geometry::set_N_Sector Pages: 1 -->
<svg width="516pt" height="146pt"
 viewBox="0.00 0.00 516.00 146.00" xmlns="http://www.w3.org/2000/svg" xmlns:xlink="http://www.w3.org/1999/xlink">
<g id="graph0" class="graph" transform="scale(1 1) rotate(0) translate(4 142)">
<title>PHG4Sector::Sector_Geometry::set_N_Sector</title>
<!-- Node1 -->
<g id="node1" class="node">
<title>Node1</title>
<polygon fill="#bfbfbf" stroke="#000000" points="0,-52.5 0,-84.5 144,-84.5 144,-52.5 0,-52.5"/>
<text text-anchor="start" x="8" y="-71.5" font-family="FreeSans" font-size="10.00" fill="#000000">PHG4Sector::Sector</text>
<text text-anchor="middle" x="72" y="-59.5" font-family="FreeSans" font-size="10.00" fill="#000000">_Geometry::set_N_Sector</text>
</g>
<!-- Node2 -->
<g id="node2" class="node">
<title>Node2</title>
<g id="a_node2"><a xlink:href="../../de/d75/G4__Aerogel_8C.html#aeba0ba89a6407c0f13dec7a2213e3efd" target="_top" xlink:title="AerogelSetup">
<polygon fill="none" stroke="#000000" points="327,-117.5 327,-137.5 412,-137.5 412,-117.5 327,-117.5"/>
<text text-anchor="middle" x="369.5" y="-124.5" font-family="FreeSans" font-size="10.00" fill="#000000">AerogelSetup</text>
</a>
</g>
</g>
<!-- Node1&#45;&gt;Node2 -->
<g id="edge1" class="edge">
<title>Node1&#45;&gt;Node2</title>
<path fill="none" stroke="#191970" d="M117.5693,-88.3135C136.5402,-95.7846 159.0023,-103.6429 180,-108.5 229.609,-119.9754 288.108,-124.5201 326.8488,-126.3199"/>
<polygon fill="#191970" stroke="#191970" points="118.8606,-85.0605 108.2768,-84.5763 116.2487,-91.5549 118.8606,-85.0605"/>
</g>
<!-- Node4 -->
<g id="node4" class="node">
<title>Node4</title>
<g id="a_node4"><a xlink:href="../../d8/d50/G4__DIRC_8C.html#acbdf429e4e41a2057e053691cc0b4128" target="_top" xlink:title="DIRCSetup">
<polygon fill="none" stroke="#000000" points="200.5,-78.5 200.5,-98.5 270.5,-98.5 270.5,-78.5 200.5,-78.5"/>
<text text-anchor="middle" x="235.5" y="-85.5" font-family="FreeSans" font-size="10.00" fill="#000000">DIRCSetup</text>
</a>
</g>
</g>
<!-- Node1&#45;&gt;Node4 -->
<g id="edge3" class="edge">
<title>Node1&#45;&gt;Node4</title>
<path fill="none" stroke="#191970" d="M154.2886,-78.5659C170.5396,-80.5538 186.7622,-82.5382 200.3875,-84.2049"/>
<polygon fill="#191970" stroke="#191970" points="154.5404,-75.0707 144.1894,-77.3305 153.6904,-82.0189 154.5404,-75.0707"/>
</g>
<!-- Node5 -->
<g id="node5" class="node">
<title>Node5</title>
<g id="a_node5"><a xlink:href="../../d7/df5/EICAnalysis_2macros_2leptoquarks__fun4all_2G4__FGEM__EIC_8C.html#ac44d1ef8dd3931eed6dd2ae0110ed8d1" target="_top" xlink:title="FGEMSetup">
<polygon fill="none" stroke="#000000" points="332.5,-39.5 332.5,-59.5 406.5,-59.5 406.5,-39.5 332.5,-39.5"/>
<text text-anchor="middle" x="369.5" y="-46.5" font-family="FreeSans" font-size="10.00" fill="#000000">FGEMSetup</text>
</a>
</g>
</g>
<!-- Node1&#45;&gt;Node5 -->
<g id="edge5" class="edge">
<title>Node1&#45;&gt;Node5</title>
<path fill="none" stroke="#191970" d="M154.303,-63.2437C212.494,-59.5273 287.7614,-54.7203 332.118,-51.8874"/>
<polygon fill="#191970" stroke="#191970" points="153.773,-59.7703 144.0165,-63.9006 154.2192,-66.7561 153.773,-59.7703"/>
</g>
<!-- Node6 -->
<g id="node6" class="node">
<title>Node6</title>
<g id="a_node6"><a xlink:href="../../d8/d41/G4__EGEM__EIC_8C.html#ab02e3ec0ae447e560b3a9a6fc25d9243" target="_top" xlink:title="make_GEM_station">
<polygon fill="none" stroke="#000000" points="180,-.5 180,-20.5 291,-20.5 291,-.5 180,-.5"/>
<text text-anchor="middle" x="235.5" y="-7.5" font-family="FreeSans" font-size="10.00" fill="#000000">make_GEM_station</text>
</a>
</g>
</g>
<!-- Node1&#45;&gt;Node6 -->
<g id="edge7" class="edge">
<title>Node1&#45;&gt;Node6</title>
<path fill="none" stroke="#191970" d="M126.7866,-49.065C153.6576,-39.5328 184.9054,-28.4479 206.9854,-20.6153"/>
<polygon fill="#191970" stroke="#191970" points="125.3643,-45.8558 117.1099,-52.4977 127.7046,-52.453 125.3643,-45.8558"/>
</g>
<!-- Node3 -->
<g id="node3" class="node">
<title>Node3</title>
<g id="a_node3"><a xlink:href="../../d0/d37/analysis_2blob_2master_2EICAnalysis_2macros_2leptoquarks__fun4all_2G4Setup__EICDetector_8C.html#a5cfc1d0a8bd58902e8c78fbd6f05130c" target="_top" xlink:title="G4Setup">
<polygon fill="none" stroke="#000000" points="448,-58.5 448,-78.5 508,-78.5 508,-58.5 448,-58.5"/>
<text text-anchor="middle" x="478" y="-65.5" font-family="FreeSans" font-size="10.00" fill="#000000">G4Setup</text>
</a>
</g>
</g>
<!-- Node2&#45;&gt;Node3 -->
<g id="edge2" class="edge">
<title>Node2&#45;&gt;Node3</title>
<path fill="none" stroke="#191970" d="M396.9523,-112.572C416.5308,-101.9256 442.3278,-87.8978 459.5042,-78.5576"/>
<polygon fill="#191970" stroke="#191970" points="395.0187,-109.6394 387.9055,-117.4915 398.3627,-115.789 395.0187,-109.6394"/>
</g>
<!-- Node4&#45;&gt;Node3 -->
<g id="edge4" class="edge">
<title>Node4&#45;&gt;Node3</title>
<path fill="none" stroke="#191970" d="M280.4809,-84.7902C329.3246,-80.7619 405.9683,-74.4408 447.9777,-70.9761"/>
<polygon fill="#191970" stroke="#191970" points="280.181,-81.303 270.5026,-85.6132 280.7565,-88.2793 280.181,-81.303"/>
</g>
<!-- Node5&#45;&gt;Node3 -->
<g id="edge6" class="edge">
<title>Node5&#45;&gt;Node3</title>
<path fill="none" stroke="#191970" d="M416.5735,-57.7433C427.2197,-59.6076 438.2413,-61.5376 447.959,-63.2394"/>
<polygon fill="#191970" stroke="#191970" points="416.9899,-54.263 406.5361,-55.9856 415.7824,-61.1581 416.9899,-54.263"/>
</g>
<!-- Node6&#45;&gt;Node5 -->
<g id="edge10" class="edge">
<title>Node6&#45;&gt;Node5</title>
<path fill="none" stroke="#191970" d="M279.721,-23.3703C297.7359,-28.6134 318.2448,-34.5824 335.1086,-39.4906"/>
<polygon fill="#191970" stroke="#191970" points="280.588,-19.9775 270.0083,-20.5435 278.6318,-26.6986 280.588,-19.9775"/>
</g>
<!-- Node7 -->
<g id="node7" class="node">
<title>Node7</title>
<g id="a_node7"><a xlink:href="../../d8/d41/G4__EGEM__EIC_8C.html#a04d0a097375d8e3f53970b906caf0d75" target="_top" xlink:title="EGEMSetup">
<polygon fill="none" stroke="#000000" points="332,-.5 332,-20.5 407,-20.5 407,-.5 332,-.5"/>
<text text-anchor="middle" x="369.5" y="-7.5" font-family="FreeSans" font-size="10.00" fill="#000000">EGEMSetup</text>
</a>
</g>
</g>
<!-- Node6&#45;&gt;Node7 -->
<g id="edge8" class="edge">
<title>Node6&#45;&gt;Node7</title>
<path fill="none" stroke="#191970" d="M301.1709,-10.5C311.6571,-10.5 322.1867,-10.5 331.7318,-10.5"/>
<polygon fill="#191970" stroke="#191970" points="301.164,-7.0001 291.1639,-10.5 301.1639,-14.0001 301.164,-7.0001"/>
</g>
<!-- Node7&#45;&gt;Node3 -->
<g id="edge9" class="edge">
<title>Node7&#45;&gt;Node3</title>
<path fill="none" stroke="#191970" d="M402.8498,-24.9744C405.9653,-26.4569 409.0563,-27.9785 412,-29.5 429.4985,-38.5446 448.8235,-50.1663 462.0145,-58.3623"/>
<polygon fill="#191970" stroke="#191970" points="404.0986,-21.6961 393.5523,-20.6831 401.1651,-28.0517 404.0986,-21.6961"/>
</g>
</g>
</svg>
