<?xml version="1.0" encoding="UTF-8" standalone="no"?>
<!DOCTYPE svg PUBLIC "-//W3C//DTD SVG 1.1//EN"
 "http://www.w3.org/Graphics/SVG/1.1/DTD/svg11.dtd">
<!-- Generated by graphviz version 2.40.1 (20161225.0304)
 -->
<!-- Title: PHG4Sector::Sector_Geometry::set_min_polar_angle Pages: 1 -->
<svg width="682pt" height="197pt"
 viewBox="0.00 0.00 682.00 197.00" xmlns="http://www.w3.org/2000/svg" xmlns:xlink="http://www.w3.org/1999/xlink">
<g id="graph0" class="graph" transform="scale(1 1) rotate(0) translate(4 193)">
<title>PHG4Sector::Sector_Geometry::set_min_polar_angle</title>
<!-- Node1 -->
<g id="node1" class="node">
<title>Node1</title>
<polygon fill="#bfbfbf" stroke="#000000" points="0,-72.5 0,-104.5 182,-104.5 182,-72.5 0,-72.5"/>
<text text-anchor="start" x="8" y="-91.5" font-family="FreeSans" font-size="10.00" fill="#000000">PHG4Sector::Sector</text>
<text text-anchor="middle" x="91" y="-79.5" font-family="FreeSans" font-size="10.00" fill="#000000">_Geometry::set_min_polar_angle</text>
</g>
<!-- Node2 -->
<g id="node2" class="node">
<title>Node2</title>
<g id="a_node2"><a xlink:href="../../de/d75/G4__Aerogel_8C.html#aeba0ba89a6407c0f13dec7a2213e3efd" target="_top" xlink:title="AerogelSetup">
<polygon fill="none" stroke="#000000" points="475,-168.5 475,-188.5 560,-188.5 560,-168.5 475,-168.5"/>
<text text-anchor="middle" x="517.5" y="-175.5" font-family="FreeSans" font-size="10.00" fill="#000000">AerogelSetup</text>
</a>
</g>
</g>
<!-- Node1&#45;&gt;Node2 -->
<g id="edge1" class="edge">
<title>Node1&#45;&gt;Node2</title>
<path fill="none" stroke="#191970" d="M121.1171,-110.4614C145.8167,-127.1655 182.393,-149.0076 218,-159.5 306.4583,-185.5662 415.7691,-184.6705 474.8105,-181.6355"/>
<polygon fill="#191970" stroke="#191970" points="122.797,-107.3683 112.5783,-104.5703 118.8218,-113.1301 122.797,-107.3683"/>
</g>
<!-- Node4 -->
<g id="node4" class="node">
<title>Node4</title>
<g id="a_node4"><a xlink:href="../../dc/dbd/classPHG4Sector_1_1PHG4SectorConstructor.html#ad533f2d88dc4ef5ed7dde6639a076c41" target="_top" xlink:title="PHG4Sector::PHG4SectorConstructor\l::Construct_Sectors">
<polygon fill="none" stroke="#000000" points="218,-117.5 218,-149.5 421,-149.5 421,-117.5 218,-117.5"/>
<text text-anchor="start" x="226" y="-136.5" font-family="FreeSans" font-size="10.00" fill="#000000">PHG4Sector::PHG4SectorConstructor</text>
<text text-anchor="middle" x="319.5" y="-124.5" font-family="FreeSans" font-size="10.00" fill="#000000">::Construct_Sectors</text>
</a>
</g>
</g>
<!-- Node1&#45;&gt;Node4 -->
<g id="edge3" class="edge">
<title>Node1&#45;&gt;Node4</title>
<path fill="none" stroke="#191970" d="M182.3532,-106.4908C200.7497,-110.1137 219.9722,-113.8993 238.0055,-117.4507"/>
<polygon fill="#191970" stroke="#191970" points="183.0139,-103.0537 172.526,-104.5555 181.6612,-109.9218 183.0139,-103.0537"/>
</g>
<!-- Node6 -->
<g id="node6" class="node">
<title>Node6</title>
<g id="a_node6"><a xlink:href="../../d8/d50/G4__DIRC_8C.html#acbdf429e4e41a2057e053691cc0b4128" target="_top" xlink:title="DIRCSetup">
<polygon fill="none" stroke="#000000" points="284.5,-78.5 284.5,-98.5 354.5,-98.5 354.5,-78.5 284.5,-78.5"/>
<text text-anchor="middle" x="319.5" y="-85.5" font-family="FreeSans" font-size="10.00" fill="#000000">DIRCSetup</text>
</a>
</g>
</g>
<!-- Node1&#45;&gt;Node6 -->
<g id="edge5" class="edge">
<title>Node1&#45;&gt;Node6</title>
<path fill="none" stroke="#191970" d="M192.4338,-88.5C225.2931,-88.5 259.5846,-88.5 284.2508,-88.5"/>
<polygon fill="#191970" stroke="#191970" points="192.2944,-85.0001 182.2944,-88.5 192.2943,-92.0001 192.2944,-85.0001"/>
</g>
<!-- Node7 -->
<g id="node7" class="node">
<title>Node7</title>
<g id="a_node7"><a xlink:href="../../d7/df5/EICAnalysis_2macros_2leptoquarks__fun4all_2G4__FGEM__EIC_8C.html#ac44d1ef8dd3931eed6dd2ae0110ed8d1" target="_top" xlink:title="FGEMSetup">
<polygon fill="none" stroke="#000000" points="480.5,-39.5 480.5,-59.5 554.5,-59.5 554.5,-39.5 480.5,-39.5"/>
<text text-anchor="middle" x="517.5" y="-46.5" font-family="FreeSans" font-size="10.00" fill="#000000">FGEMSetup</text>
</a>
</g>
</g>
<!-- Node1&#45;&gt;Node7 -->
<g id="edge7" class="edge">
<title>Node1&#45;&gt;Node7</title>
<path fill="none" stroke="#191970" d="M192.2958,-72.5868C200.9787,-71.4532 209.6361,-70.4034 218,-69.5 312.037,-59.3432 423.2788,-53.5352 480.061,-51.015"/>
<polygon fill="#191970" stroke="#191970" points="191.5538,-69.1548 182.1074,-73.9521 192.4837,-76.0928 191.5538,-69.1548"/>
</g>
<!-- Node8 -->
<g id="node8" class="node">
<title>Node8</title>
<g id="a_node8"><a xlink:href="../../d8/d41/G4__EGEM__EIC_8C.html#ab02e3ec0ae447e560b3a9a6fc25d9243" target="_top" xlink:title="make_GEM_station">
<polygon fill="none" stroke="#000000" points="264,-.5 264,-20.5 375,-20.5 375,-.5 264,-.5"/>
<text text-anchor="middle" x="319.5" y="-7.5" font-family="FreeSans" font-size="10.00" fill="#000000">make_GEM_station</text>
</a>
</g>
</g>
<!-- Node1&#45;&gt;Node8 -->
<g id="edge9" class="edge">
<title>Node1&#45;&gt;Node8</title>
<path fill="none" stroke="#191970" d="M134.7557,-68.2787C158.952,-57.5974 189.7556,-44.8105 218,-35.5 235.4944,-29.7331 255.0721,-24.6092 272.3309,-20.5249"/>
<polygon fill="#191970" stroke="#191970" points="133.1998,-65.1402 125.4907,-72.408 136.0494,-71.5339 133.1998,-65.1402"/>
</g>
<!-- Node3 -->
<g id="node3" class="node">
<title>Node3</title>
<g id="a_node3"><a xlink:href="../../d0/d37/analysis_2blob_2master_2EICAnalysis_2macros_2leptoquarks__fun4all_2G4Setup__EICDetector_8C.html#a5cfc1d0a8bd58902e8c78fbd6f05130c" target="_top" xlink:title="G4Setup">
<polygon fill="none" stroke="#000000" points="614,-58.5 614,-78.5 674,-78.5 674,-58.5 614,-58.5"/>
<text text-anchor="middle" x="644" y="-65.5" font-family="FreeSans" font-size="10.00" fill="#000000">G4Setup</text>
</a>
</g>
</g>
<!-- Node2&#45;&gt;Node3 -->
<g id="edge2" class="edge">
<title>Node2&#45;&gt;Node3</title>
<path fill="none" stroke="#191970" d="M569.4344,-164.7323C572.436,-163.1672 575.3193,-161.4292 578,-159.5 608.4142,-137.612 630.3321,-97.3685 639.3902,-78.6147"/>
<polygon fill="#191970" stroke="#191970" points="567.8285,-161.6173 560.1593,-168.9272 570.7131,-167.9953 567.8285,-161.6173"/>
</g>
<!-- Node5 -->
<g id="node5" class="node">
<title>Node5</title>
<g id="a_node5"><a xlink:href="../../d5/d5e/classPHG4SectorDetector.html#aa923d64daa1da8e09553660d2c01573d" target="_top" xlink:title="construct">
<polygon fill="none" stroke="#000000" points="457,-117.5 457,-149.5 578,-149.5 578,-117.5 457,-117.5"/>
<text text-anchor="start" x="465" y="-136.5" font-family="FreeSans" font-size="10.00" fill="#000000">PHG4SectorDetector</text>
<text text-anchor="middle" x="517.5" y="-124.5" font-family="FreeSans" font-size="10.00" fill="#000000">::ConstructMe</text>
</a>
</g>
</g>
<!-- Node4&#45;&gt;Node5 -->
<g id="edge4" class="edge">
<title>Node4&#45;&gt;Node5</title>
<path fill="none" stroke="#191970" d="M431.1305,-133.5C439.968,-133.5 448.6689,-133.5 456.9455,-133.5"/>
<polygon fill="#191970" stroke="#191970" points="431.1101,-130.0001 421.1101,-133.5 431.11,-137.0001 431.1101,-130.0001"/>
</g>
<!-- Node6&#45;&gt;Node3 -->
<g id="edge6" class="edge">
<title>Node6&#45;&gt;Node3</title>
<path fill="none" stroke="#191970" d="M364.8272,-85.7063C432.1345,-81.558 556.6959,-73.8808 613.8773,-70.3566"/>
<polygon fill="#191970" stroke="#191970" points="364.3012,-82.232 354.5355,-86.3406 364.7319,-89.2188 364.3012,-82.232"/>
</g>
<!-- Node7&#45;&gt;Node3 -->
<g id="edge8" class="edge">
<title>Node7&#45;&gt;Node3</title>
<path fill="none" stroke="#191970" d="M564.7506,-56.5969C581.169,-59.0629 599.1269,-61.7602 613.7905,-63.9626"/>
<polygon fill="#191970" stroke="#191970" points="565.1789,-53.1221 554.77,-55.0979 564.1392,-60.0444 565.1789,-53.1221"/>
</g>
<!-- Node8&#45;&gt;Node7 -->
<g id="edge12" class="edge">
<title>Node8&#45;&gt;Node7</title>
<path fill="none" stroke="#191970" d="M380.4069,-22.4968C413.1011,-28.9366 452.3356,-36.6646 480.4392,-42.2001"/>
<polygon fill="#191970" stroke="#191970" points="380.9778,-19.0421 370.4899,-20.5435 379.625,-25.9101 380.9778,-19.0421"/>
</g>
<!-- Node9 -->
<g id="node9" class="node">
<title>Node9</title>
<g id="a_node9"><a xlink:href="../../d8/d41/G4__EGEM__EIC_8C.html#a04d0a097375d8e3f53970b906caf0d75" target="_top" xlink:title="EGEMSetup">
<polygon fill="none" stroke="#000000" points="480,-.5 480,-20.5 555,-20.5 555,-.5 480,-.5"/>
<text text-anchor="middle" x="517.5" y="-7.5" font-family="FreeSans" font-size="10.00" fill="#000000">EGEMSetup</text>
</a>
</g>
</g>
<!-- Node8&#45;&gt;Node9 -->
<g id="edge10" class="edge">
<title>Node8&#45;&gt;Node9</title>
<path fill="none" stroke="#191970" d="M385.1816,-10.5C416.5895,-10.5 453.0623,-10.5 479.7515,-10.5"/>
<polygon fill="#191970" stroke="#191970" points="385.181,-7.0001 375.181,-10.5 385.1809,-14.0001 385.181,-7.0001"/>
</g>
<!-- Node9&#45;&gt;Node3 -->
<g id="edge11" class="edge">
<title>Node9&#45;&gt;Node3</title>
<path fill="none" stroke="#191970" d="M561.3509,-23.8201C567.0209,-25.8841 572.6958,-28.126 578,-30.5 595.9816,-38.5481 615.3897,-50.1006 628.4723,-58.3518"/>
<polygon fill="#191970" stroke="#191970" points="562.4743,-20.5052 551.8795,-20.5226 560.1727,-27.116 562.4743,-20.5052"/>
</g>
</g>
</svg>
