<?xml version="1.0" encoding="UTF-8" standalone="no"?>
<!DOCTYPE svg PUBLIC "-//W3C//DTD SVG 1.1//EN"
 "http://www.w3.org/Graphics/SVG/1.1/DTD/svg11.dtd">
<!-- Generated by graphviz version 2.40.1 (20161225.0304)
 -->
<!-- Title: SvtxTrack::get_positive_charge Pages: 1 -->
<svg width="846pt" height="273pt"
 viewBox="0.00 0.00 846.00 273.00" xmlns="http://www.w3.org/2000/svg" xmlns:xlink="http://www.w3.org/1999/xlink">
<g id="graph0" class="graph" transform="scale(1 1) rotate(0) translate(4 269)">
<title>SvtxTrack::get_positive_charge</title>
<!-- Node1 -->
<g id="node1" class="node">
<title>Node1</title>
<polygon fill="#bfbfbf" stroke="#000000" points="0,-78.5 0,-110.5 133,-110.5 133,-78.5 0,-78.5"/>
<text text-anchor="start" x="8" y="-97.5" font-family="FreeSans" font-size="10.00" fill="#000000">SvtxTrack::get_positive</text>
<text text-anchor="middle" x="66.5" y="-85.5" font-family="FreeSans" font-size="10.00" fill="#000000">_charge</text>
</g>
<!-- Node2 -->
<g id="node2" class="node">
<title>Node2</title>
<g id="a_node2"><a xlink:href="../../db/de4/classSvtxTrack__v1.html#aa861ce33f34cd449c2509118b480d638" target="_top" xlink:title="copy content from base class">
<polygon fill="none" stroke="#000000" points="169,-148.5 169,-168.5 309,-168.5 309,-148.5 169,-148.5"/>
<text text-anchor="middle" x="239" y="-155.5" font-family="FreeSans" font-size="10.00" fill="#000000">SvtxTrack_v1::CopyFrom</text>
</a>
</g>
</g>
<!-- Node1&#45;&gt;Node2 -->
<g id="edge1" class="edge">
<title>Node1&#45;&gt;Node2</title>
<path fill="none" stroke="#191970" d="M119.6923,-114.2351C150.2343,-125.5666 187.2928,-139.3159 211.9224,-148.4538"/>
<polygon fill="#191970" stroke="#191970" points="120.622,-110.847 110.029,-110.6499 118.1871,-117.4099 120.622,-110.847"/>
</g>
<!-- Node9 -->
<g id="node9" class="node">
<title>Node9</title>
<g id="a_node9"><a xlink:href="../../d5/d0b/classSvtxTrack__v2.html#a474be6b62ed7f9138b40feb07542b2be" target="_top" xlink:title="copy content from base class">
<polygon fill="none" stroke="#000000" points="169,-62.5 169,-82.5 309,-82.5 309,-62.5 169,-62.5"/>
<text text-anchor="middle" x="239" y="-69.5" font-family="FreeSans" font-size="10.00" fill="#000000">SvtxTrack_v2::CopyFrom</text>
</a>
</g>
</g>
<!-- Node1&#45;&gt;Node9 -->
<g id="edge8" class="edge">
<title>Node1&#45;&gt;Node9</title>
<path fill="none" stroke="#191970" d="M143.1314,-84.7267C151.6645,-83.6384 160.3248,-82.5339 168.7725,-81.4565"/>
<polygon fill="#191970" stroke="#191970" points="142.6698,-81.2571 133.193,-85.9942 143.5555,-88.2009 142.6698,-81.2571"/>
</g>
<!-- Node3 -->
<g id="node3" class="node">
<title>Node3</title>
<g id="a_node3"><a xlink:href="../../d9/da8/classSvtxTrack__FastSim.html#a2bc3722623a0231579fd0509b6920f6f" target="_top" xlink:title="copy content from base class">
<polygon fill="none" stroke="#000000" points="365,-207.5 365,-239.5 480,-239.5 480,-207.5 365,-207.5"/>
<text text-anchor="start" x="373" y="-226.5" font-family="FreeSans" font-size="10.00" fill="#000000">SvtxTrack_FastSim::</text>
<text text-anchor="middle" x="422.5" y="-214.5" font-family="FreeSans" font-size="10.00" fill="#000000">CopyFrom</text>
</a>
</g>
</g>
<!-- Node2&#45;&gt;Node3 -->
<g id="edge2" class="edge">
<title>Node2&#45;&gt;Node3</title>
<path fill="none" stroke="#191970" d="M274.1534,-172.2576C294.7152,-180.1811 321.2259,-190.1853 345,-198.5 353.5408,-201.487 362.6549,-204.543 371.5219,-207.4468"/>
<polygon fill="#191970" stroke="#191970" points="275.1646,-168.896 264.5753,-168.5516 272.6385,-175.4244 275.1646,-168.896"/>
</g>
<!-- Node7 -->
<g id="node7" class="node">
<title>Node7</title>
<g id="a_node7"><a xlink:href="../../db/de4/classSvtxTrack__v1.html#a79242857295db7b0c94f6c153f221fa9" target="_top" xlink:title="SvtxTrack_v1::SvtxTrack_v1">
<polygon fill="none" stroke="#000000" points="345,-168.5 345,-188.5 500,-188.5 500,-168.5 345,-168.5"/>
<text text-anchor="middle" x="422.5" y="-175.5" font-family="FreeSans" font-size="10.00" fill="#000000">SvtxTrack_v1::SvtxTrack_v1</text>
</a>
</g>
</g>
<!-- Node2&#45;&gt;Node7 -->
<g id="edge6" class="edge">
<title>Node2&#45;&gt;Node7</title>
<path fill="none" stroke="#191970" d="M319.3526,-167.2578C327.7785,-168.1761 336.3347,-169.1087 344.7309,-170.0238"/>
<polygon fill="#191970" stroke="#191970" points="319.4793,-163.7509 309.1589,-166.1468 318.7208,-170.7097 319.4793,-163.7509"/>
</g>
<!-- Node8 -->
<g id="node8" class="node">
<title>Node8</title>
<g id="a_node8"><a xlink:href="../../db/de4/classSvtxTrack__v1.html#adf646da41b9bae3f630d616f7ede88f0" target="_top" xlink:title="SvtxTrack_v1::operator=">
<polygon fill="none" stroke="#000000" points="352.5,-129.5 352.5,-149.5 492.5,-149.5 492.5,-129.5 352.5,-129.5"/>
<text text-anchor="middle" x="422.5" y="-136.5" font-family="FreeSans" font-size="10.00" fill="#000000">SvtxTrack_v1::operator=</text>
</a>
</g>
</g>
<!-- Node2&#45;&gt;Node8 -->
<g id="edge7" class="edge">
<title>Node2&#45;&gt;Node8</title>
<path fill="none" stroke="#191970" d="M319.2198,-150.1939C330.2647,-149.0503 341.536,-147.8832 352.38,-146.7604"/>
<polygon fill="#191970" stroke="#191970" points="318.7453,-146.7242 309.1589,-151.2356 319.4663,-153.687 318.7453,-146.7242"/>
</g>
<!-- Node4 -->
<g id="node4" class="node">
<title>Node4</title>
<g id="a_node4"><a xlink:href="../../d9/da8/classSvtxTrack__FastSim.html#adb2b83ccc7650e24bb8721167f777a8b" target="_top" xlink:title="SvtxTrack_FastSim::\lSvtxTrack_FastSim">
<polygon fill="none" stroke="#000000" points="545,-232.5 545,-264.5 660,-264.5 660,-232.5 545,-232.5"/>
<text text-anchor="start" x="553" y="-251.5" font-family="FreeSans" font-size="10.00" fill="#000000">SvtxTrack_FastSim::</text>
<text text-anchor="middle" x="602.5" y="-239.5" font-family="FreeSans" font-size="10.00" fill="#000000">SvtxTrack_FastSim</text>
</a>
</g>
</g>
<!-- Node3&#45;&gt;Node4 -->
<g id="edge3" class="edge">
<title>Node3&#45;&gt;Node4</title>
<path fill="none" stroke="#191970" d="M490.5471,-232.951C508.4809,-235.4418 527.6532,-238.1046 544.9726,-240.5101"/>
<polygon fill="#191970" stroke="#191970" points="490.8304,-229.4568 480.4439,-231.5478 489.8673,-236.3903 490.8304,-229.4568"/>
</g>
<!-- Node5 -->
<g id="node5" class="node">
<title>Node5</title>
<g id="a_node5"><a xlink:href="../../d2/d33/exceptionSvtxTrack__FastSim__v1.html#a38487e81fc82621a7455649811c2015f" target="_top" xlink:title="copy content from base class">
<polygon fill="none" stroke="#000000" points="539.5,-181.5 539.5,-213.5 665.5,-213.5 665.5,-181.5 539.5,-181.5"/>
<text text-anchor="start" x="547.5" y="-200.5" font-family="FreeSans" font-size="10.00" fill="#000000">SvtxTrack_FastSim_v1</text>
<text text-anchor="middle" x="602.5" y="-188.5" font-family="FreeSans" font-size="10.00" fill="#000000">::CopyFrom</text>
</a>
</g>
</g>
<!-- Node3&#45;&gt;Node5 -->
<g id="edge4" class="edge">
<title>Node3&#45;&gt;Node5</title>
<path fill="none" stroke="#191970" d="M490.7676,-213.6391C506.7246,-211.3342 523.651,-208.8893 539.3729,-206.6184"/>
<polygon fill="#191970" stroke="#191970" points="489.8408,-210.2366 480.4439,-215.1303 490.8416,-217.1647 489.8408,-210.2366"/>
</g>
<!-- Node6 -->
<g id="node6" class="node">
<title>Node6</title>
<g id="a_node6"><a xlink:href="../../d2/d33/exceptionSvtxTrack__FastSim__v1.html#a94b25df99dacff4dabf7442282a9a087" target="_top" xlink:title="SvtxTrack_FastSim_v1\l::SvtxTrack_FastSim_v1">
<polygon fill="none" stroke="#000000" points="705,-181.5 705,-213.5 838,-213.5 838,-181.5 705,-181.5"/>
<text text-anchor="start" x="713" y="-200.5" font-family="FreeSans" font-size="10.00" fill="#000000">SvtxTrack_FastSim_v1</text>
<text text-anchor="middle" x="771.5" y="-188.5" font-family="FreeSans" font-size="10.00" fill="#000000">::SvtxTrack_FastSim_v1</text>
</a>
</g>
</g>
<!-- Node5&#45;&gt;Node6 -->
<g id="edge5" class="edge">
<title>Node5&#45;&gt;Node6</title>
<path fill="none" stroke="#191970" d="M676.1816,-197.5C685.7371,-197.5 695.4803,-197.5 704.9114,-197.5"/>
<polygon fill="#191970" stroke="#191970" points="675.9102,-194.0001 665.9102,-197.5 675.9101,-201.0001 675.9102,-194.0001"/>
</g>
<!-- Node10 -->
<g id="node10" class="node">
<title>Node10</title>
<g id="a_node10"><a xlink:href="../../df/dc1/exceptionSvtxTrack__FastSim__v2.html#a1c25bcc7d682a7358e6abd92b098dd58" target="_top" xlink:title="copy content from base class">
<polygon fill="none" stroke="#000000" points="359.5,-78.5 359.5,-110.5 485.5,-110.5 485.5,-78.5 359.5,-78.5"/>
<text text-anchor="start" x="367.5" y="-97.5" font-family="FreeSans" font-size="10.00" fill="#000000">SvtxTrack_FastSim_v2</text>
<text text-anchor="middle" x="422.5" y="-85.5" font-family="FreeSans" font-size="10.00" fill="#000000">::CopyFrom</text>
</a>
</g>
</g>
<!-- Node9&#45;&gt;Node10 -->
<g id="edge9" class="edge">
<title>Node9&#45;&gt;Node10</title>
<path fill="none" stroke="#191970" d="M319.3115,-82.1286C332.6973,-83.7335 346.4131,-85.3779 359.295,-86.9223"/>
<polygon fill="#191970" stroke="#191970" points="319.5045,-78.6268 309.1589,-80.9114 318.6712,-85.577 319.5045,-78.6268"/>
</g>
<!-- Node12 -->
<g id="node12" class="node">
<title>Node12</title>
<g id="a_node12"><a xlink:href="../../d5/d0b/classSvtxTrack__v2.html#a832abfcf3ca230a1cbe82cc5222fc951" target="_top" xlink:title="SvtxTrack_v2::SvtxTrack_v2">
<polygon fill="none" stroke="#000000" points="345,-39.5 345,-59.5 500,-59.5 500,-39.5 345,-39.5"/>
<text text-anchor="middle" x="422.5" y="-46.5" font-family="FreeSans" font-size="10.00" fill="#000000">SvtxTrack_v2::SvtxTrack_v2</text>
</a>
</g>
</g>
<!-- Node9&#45;&gt;Node12 -->
<g id="edge11" class="edge">
<title>Node9&#45;&gt;Node12</title>
<path fill="none" stroke="#191970" d="M319.3526,-62.4286C327.7785,-61.3724 336.3347,-60.3 344.7309,-59.2476"/>
<polygon fill="#191970" stroke="#191970" points="318.646,-58.9896 309.1589,-63.7062 319.5166,-65.9353 318.646,-58.9896"/>
</g>
<!-- Node13 -->
<g id="node13" class="node">
<title>Node13</title>
<g id="a_node13"><a xlink:href="../../d5/d0b/classSvtxTrack__v2.html#a928e2eee357176a53120057c3fc757eb" target="_top" xlink:title="SvtxTrack_v2::operator=">
<polygon fill="none" stroke="#000000" points="352.5,-.5 352.5,-20.5 492.5,-20.5 492.5,-.5 352.5,-.5"/>
<text text-anchor="middle" x="422.5" y="-7.5" font-family="FreeSans" font-size="10.00" fill="#000000">SvtxTrack_v2::operator=</text>
</a>
</g>
</g>
<!-- Node9&#45;&gt;Node13 -->
<g id="edge12" class="edge">
<title>Node9&#45;&gt;Node13</title>
<path fill="none" stroke="#191970" d="M271.1818,-58.5355C291.9986,-49.806 319.8154,-38.7036 345,-30.5 356.0984,-26.8848 368.2576,-23.4888 379.5865,-20.5573"/>
<polygon fill="#191970" stroke="#191970" points="269.7006,-55.3617 261.8564,-62.4835 272.4297,-61.8078 269.7006,-55.3617"/>
</g>
<!-- Node11 -->
<g id="node11" class="node">
<title>Node11</title>
<g id="a_node11"><a xlink:href="../../df/dc1/exceptionSvtxTrack__FastSim__v2.html#aba417f768f045e6d0e1139feb8af596d" target="_top" xlink:title="SvtxTrack_FastSim_v2\l::SvtxTrack_FastSim_v2">
<polygon fill="none" stroke="#000000" points="536,-78.5 536,-110.5 669,-110.5 669,-78.5 536,-78.5"/>
<text text-anchor="start" x="544" y="-97.5" font-family="FreeSans" font-size="10.00" fill="#000000">SvtxTrack_FastSim_v2</text>
<text text-anchor="middle" x="602.5" y="-85.5" font-family="FreeSans" font-size="10.00" fill="#000000">::SvtxTrack_FastSim_v2</text>
</a>
</g>
</g>
<!-- Node10&#45;&gt;Node11 -->
<g id="edge10" class="edge">
<title>Node10&#45;&gt;Node11</title>
<path fill="none" stroke="#191970" d="M495.7228,-94.5C508.9731,-94.5 522.7264,-94.5 535.7784,-94.5"/>
<polygon fill="#191970" stroke="#191970" points="495.7082,-91.0001 485.7082,-94.5 495.7081,-98.0001 495.7082,-91.0001"/>
</g>
</g>
</svg>
