<?xml version="1.0" encoding="UTF-8" standalone="no"?>
<!DOCTYPE svg PUBLIC "-//W3C//DTD SVG 1.1//EN"
 "http://www.w3.org/Graphics/SVG/1.1/DTD/svg11.dtd">
<!-- Generated by graphviz version 2.40.1 (20161225.0304)
 -->
<!-- Title: AnnularFieldSim::GetChargeAt Pages: 1 -->
<svg width="644pt" height="182pt"
 viewBox="0.00 0.00 644.00 182.00" xmlns="http://www.w3.org/2000/svg" xmlns:xlink="http://www.w3.org/1999/xlink">
<g id="graph0" class="graph" transform="scale(1 1) rotate(0) translate(4 178)">
<title>AnnularFieldSim::GetChargeAt</title>
<!-- Node1 -->
<g id="node1" class="node">
<title>Node1</title>
<polygon fill="#bfbfbf" stroke="#000000" points="0,-82.5 0,-102.5 171,-102.5 171,-82.5 0,-82.5"/>
<text text-anchor="middle" x="85.5" y="-89.5" font-family="FreeSans" font-size="10.00" fill="#000000">AnnularFieldSim::GetChargeAt</text>
</g>
<!-- Node1&#45;&gt;Node1 -->
<g id="edge2" class="edge">
<title>Node1&#45;&gt;Node1</title>
<path fill="none" stroke="#191970" d="M53.5627,-102.7271C38.9949,-111.6067 49.6406,-121 85.5,-121 110.7136,-121 123.462,-116.3561 123.7452,-110.5121"/>
<polygon fill="#191970" stroke="#191970" points="126.4521,-108.2933 117.4373,-102.7271 121.0134,-112.7002 126.4521,-108.2933"/>
</g>
<!-- Node2 -->
<g id="node2" class="node">
<title>Node2</title>
<g id="a_node2"><a xlink:href="../../d8/d64/classMultiArray.html#aec5a4ca1ee2a856a7574a75d6ad48568" target="_top" xlink:title="MultiArray::Get">
<polygon fill="none" stroke="#000000" points="244.5,-153.5 244.5,-173.5 336.5,-173.5 336.5,-153.5 244.5,-153.5"/>
<text text-anchor="middle" x="290.5" y="-160.5" font-family="FreeSans" font-size="10.00" fill="#000000">MultiArray::Get</text>
</a>
</g>
</g>
<!-- Node1&#45;&gt;Node2 -->
<g id="edge1" class="edge">
<title>Node1&#45;&gt;Node2</title>
<path fill="none" stroke="#191970" d="M106.1305,-102.6928C129.9562,-114.1407 170.5571,-132.6628 207,-144.5 215.7225,-147.3332 225.0898,-149.9042 234.2846,-152.1749"/>
<polygon fill="#191970" stroke="#191970" points="233.6175,-155.6138 244.1556,-154.5192 235.235,-148.8032 233.6175,-155.6138"/>
</g>
<!-- Node3 -->
<g id="node3" class="node">
<title>Node3</title>
<g id="a_node3"><a xlink:href="../../de/d64/classAnnularFieldSim.html#aab5dee891f7302176821ad489549a18f" target="_top" xlink:title="AnnularFieldSim::GetPhiIndex\lAndCheckBounds">
<polygon fill="none" stroke="#000000" points="207,-102.5 207,-134.5 374,-134.5 374,-102.5 207,-102.5"/>
<text text-anchor="start" x="215" y="-121.5" font-family="FreeSans" font-size="10.00" fill="#000000">AnnularFieldSim::GetPhiIndex</text>
<text text-anchor="middle" x="290.5" y="-109.5" font-family="FreeSans" font-size="10.00" fill="#000000">AndCheckBounds</text>
</a>
</g>
</g>
<!-- Node1&#45;&gt;Node3 -->
<g id="edge3" class="edge">
<title>Node1&#45;&gt;Node3</title>
<path fill="none" stroke="#191970" d="M164.4651,-102.5151C174.9785,-103.8485 185.8412,-105.2262 196.5774,-106.5879"/>
<polygon fill="#191970" stroke="#191970" points="196.4557,-110.1004 206.8166,-107.8865 197.3365,-103.156 196.4557,-110.1004"/>
</g>
<!-- Node6 -->
<g id="node6" class="node">
<title>Node6</title>
<g id="a_node6"><a xlink:href="../../de/d64/classAnnularFieldSim.html#af41a4754a596a90505d15a5dcb1868a6" target="_top" xlink:title="AnnularFieldSim::GetRindex\lAndCheckBounds">
<polygon fill="none" stroke="#000000" points="211,-51.5 211,-83.5 370,-83.5 370,-51.5 211,-51.5"/>
<text text-anchor="start" x="219" y="-70.5" font-family="FreeSans" font-size="10.00" fill="#000000">AnnularFieldSim::GetRindex</text>
<text text-anchor="middle" x="290.5" y="-58.5" font-family="FreeSans" font-size="10.00" fill="#000000">AndCheckBounds</text>
</a>
</g>
</g>
<!-- Node1&#45;&gt;Node6 -->
<g id="edge6" class="edge">
<title>Node1&#45;&gt;Node6</title>
<path fill="none" stroke="#191970" d="M167.7001,-82.4756C178.6165,-81.1443 189.8529,-79.774 200.8869,-78.4284"/>
<polygon fill="#191970" stroke="#191970" points="201.4455,-81.8863 210.9482,-77.2014 200.5981,-74.9378 201.4455,-81.8863"/>
</g>
<!-- Node7 -->
<g id="node7" class="node">
<title>Node7</title>
<g id="a_node7"><a xlink:href="../../de/d64/classAnnularFieldSim.html#a004ad992d4f49f5aba99cd82b8983163" target="_top" xlink:title="AnnularFieldSim::GetZindex\lAndCheckBounds">
<polygon fill="none" stroke="#000000" points="211,-.5 211,-32.5 370,-32.5 370,-.5 211,-.5"/>
<text text-anchor="start" x="219" y="-19.5" font-family="FreeSans" font-size="10.00" fill="#000000">AnnularFieldSim::GetZindex</text>
<text text-anchor="middle" x="290.5" y="-7.5" font-family="FreeSans" font-size="10.00" fill="#000000">AndCheckBounds</text>
</a>
</g>
</g>
<!-- Node1&#45;&gt;Node7 -->
<g id="edge7" class="edge">
<title>Node1&#45;&gt;Node7</title>
<path fill="none" stroke="#191970" d="M108.1066,-82.4924C132.3309,-71.9353 172.0247,-55.1138 207,-42.5 213.3334,-40.2159 219.9781,-37.9429 226.6361,-35.7458"/>
<polygon fill="#191970" stroke="#191970" points="227.9344,-39.0043 236.3659,-32.5886 225.7738,-32.346 227.9344,-39.0043"/>
</g>
<!-- Node4 -->
<g id="node4" class="node">
<title>Node4</title>
<g id="a_node4"><a xlink:href="../../de/d64/classAnnularFieldSim.html#ae7f3aaa01498d1b9259f05559c5bac7e" target="_top" xlink:title="AnnularFieldSim::FilterPhi\lIndex">
<polygon fill="none" stroke="#000000" points="410,-102.5 410,-134.5 556,-134.5 556,-102.5 410,-102.5"/>
<text text-anchor="start" x="418" y="-121.5" font-family="FreeSans" font-size="10.00" fill="#000000">AnnularFieldSim::FilterPhi</text>
<text text-anchor="middle" x="483" y="-109.5" font-family="FreeSans" font-size="10.00" fill="#000000">Index</text>
</a>
</g>
</g>
<!-- Node3&#45;&gt;Node4 -->
<g id="edge4" class="edge">
<title>Node3&#45;&gt;Node4</title>
<path fill="none" stroke="#191970" d="M374.0935,-118.5C382.5333,-118.5 391.1053,-118.5 399.5437,-118.5"/>
<polygon fill="#191970" stroke="#191970" points="399.7527,-122.0001 409.7527,-118.5 399.7526,-115.0001 399.7527,-122.0001"/>
</g>
<!-- Node5 -->
<g id="node5" class="node">
<title>Node5</title>
<g id="a_node5"><a xlink:href="../../da/d23/msg__buffer_8cc.html#a98631211a4a8aee62f572375d5b637be" target="_top" xlink:title="printf">
<polygon fill="none" stroke="#000000" points="592,-108.5 592,-128.5 636,-128.5 636,-108.5 592,-108.5"/>
<text text-anchor="middle" x="614" y="-115.5" font-family="FreeSans" font-size="10.00" fill="#000000">printf</text>
</a>
</g>
</g>
<!-- Node4&#45;&gt;Node5 -->
<g id="edge5" class="edge">
<title>Node4&#45;&gt;Node5</title>
<path fill="none" stroke="#191970" d="M556.1602,-118.5C565.1052,-118.5 573.8569,-118.5 581.7358,-118.5"/>
<polygon fill="#191970" stroke="#191970" points="581.8749,-122.0001 591.8749,-118.5 581.8749,-115.0001 581.8749,-122.0001"/>
</g>
</g>
</svg>
