<?xml version="1.0" encoding="UTF-8" standalone="no"?>
<!DOCTYPE svg PUBLIC "-//W3C//DTD SVG 1.1//EN"
 "http://www.w3.org/Graphics/SVG/1.1/DTD/svg11.dtd">
<!-- Generated by graphviz version 2.40.1 (20161225.0304)
 -->
<!-- Title: AnnularFieldSim::GetRindexAndCheckBounds Pages: 1 -->
<svg width="1135pt" height="388pt"
 viewBox="0.00 0.00 1135.00 387.60" xmlns="http://www.w3.org/2000/svg" xmlns:xlink="http://www.w3.org/1999/xlink">
<g id="graph0" class="graph" transform="scale(1 1) rotate(0) translate(4 383.5983)">
<title>AnnularFieldSim::GetRindexAndCheckBounds</title>
<!-- Node1 -->
<g id="node1" class="node">
<title>Node1</title>
<polygon fill="#bfbfbf" stroke="#000000" points="0,-155.0983 0,-187.0983 159,-187.0983 159,-155.0983 0,-155.0983"/>
<text text-anchor="start" x="8" y="-174.0983" font-family="FreeSans" font-size="10.00" fill="#000000">AnnularFieldSim::GetRindex</text>
<text text-anchor="middle" x="79.5" y="-162.0983" font-family="FreeSans" font-size="10.00" fill="#000000">AndCheckBounds</text>
</g>
<!-- Node2 -->
<g id="node2" class="node">
<title>Node2</title>
<g id="a_node2"><a xlink:href="../../de/d64/classAnnularFieldSim.html#a6c3d5fee508484e60454ab97ef63eea2" target="_top" xlink:title="AnnularFieldSim::analytic\lFieldIntegral">
<polygon fill="none" stroke="#000000" points="205.5,-347.0983 205.5,-379.0983 351.5,-379.0983 351.5,-347.0983 205.5,-347.0983"/>
<text text-anchor="start" x="213.5" y="-366.0983" font-family="FreeSans" font-size="10.00" fill="#000000">AnnularFieldSim::analytic</text>
<text text-anchor="middle" x="278.5" y="-354.0983" font-family="FreeSans" font-size="10.00" fill="#000000">FieldIntegral</text>
</a>
</g>
</g>
<!-- Node1&#45;&gt;Node2 -->
<g id="edge1" class="edge">
<title>Node1&#45;&gt;Node2</title>
<path fill="none" stroke="#191970" d="M90.4015,-196.6103C107.3902,-233.3386 143.6451,-300.7872 195,-338.0983 199.6521,-341.4782 204.7629,-344.4056 210.0938,-346.9402"/>
<polygon fill="#191970" stroke="#191970" points="93.423,-194.796 86.1242,-187.1163 87.0408,-197.6714 93.423,-194.796"/>
</g>
<!-- Node3 -->
<g id="node3" class="node">
<title>Node3</title>
<g id="a_node3"><a xlink:href="../../de/d64/classAnnularFieldSim.html#aba83c13891c05b283eebd23b347a8c2b" target="_top" xlink:title="AnnularFieldSim::calc\l_unit_field">
<polygon fill="none" stroke="#000000" points="215.5,-182.0983 215.5,-214.0983 341.5,-214.0983 341.5,-182.0983 215.5,-182.0983"/>
<text text-anchor="start" x="223.5" y="-201.0983" font-family="FreeSans" font-size="10.00" fill="#000000">AnnularFieldSim::calc</text>
<text text-anchor="middle" x="278.5" y="-189.0983" font-family="FreeSans" font-size="10.00" fill="#000000">_unit_field</text>
</a>
</g>
</g>
<!-- Node1&#45;&gt;Node3 -->
<g id="edge2" class="edge">
<title>Node1&#45;&gt;Node3</title>
<path fill="none" stroke="#191970" d="M169.1833,-183.2664C184.7633,-185.3803 200.6674,-187.5381 215.3477,-189.5299"/>
<polygon fill="#191970" stroke="#191970" points="169.3878,-179.7622 159.008,-181.8858 168.4466,-186.6986 169.3878,-179.7622"/>
</g>
<!-- Node12 -->
<g id="node12" class="node">
<title>Node12</title>
<g id="a_node12"><a xlink:href="../../de/d64/classAnnularFieldSim.html#af49cb183b20be9a1ceba70f1a3b5c64e" target="_top" xlink:title="AnnularFieldSim::fieldIntegral">
<polygon fill="none" stroke="#000000" points="195,-91.0983 195,-111.0983 362,-111.0983 362,-91.0983 195,-91.0983"/>
<text text-anchor="middle" x="278.5" y="-98.0983" font-family="FreeSans" font-size="10.00" fill="#000000">AnnularFieldSim::fieldIntegral</text>
</a>
</g>
</g>
<!-- Node1&#45;&gt;Node12 -->
<g id="edge14" class="edge">
<title>Node1&#45;&gt;Node12</title>
<path fill="none" stroke="#191970" d="M134.9043,-151.6094C172.2771,-138.4632 220.0545,-121.6571 249.9741,-111.1326"/>
<polygon fill="#191970" stroke="#191970" points="133.4266,-148.4189 125.1546,-155.0389 135.7494,-155.0223 133.4266,-148.4189"/>
</g>
<!-- Node13 -->
<g id="node13" class="node">
<title>Node13</title>
<g id="a_node13"><a xlink:href="../../de/d64/classAnnularFieldSim.html#ac961e366f82550417663d8604e55aec2" target="_top" xlink:title="AnnularFieldSim::GetStep\lDistortion">
<polygon fill="none" stroke="#000000" points="400,-83.0983 400,-115.0983 547,-115.0983 547,-83.0983 400,-83.0983"/>
<text text-anchor="start" x="408" y="-102.0983" font-family="FreeSans" font-size="10.00" fill="#000000">AnnularFieldSim::GetStep</text>
<text text-anchor="middle" x="473.5" y="-90.0983" font-family="FreeSans" font-size="10.00" fill="#000000">Distortion</text>
</a>
</g>
</g>
<!-- Node1&#45;&gt;Node13 -->
<g id="edge33" class="edge">
<title>Node1&#45;&gt;Node13</title>
<path fill="none" stroke="#191970" d="M169.4482,-155.0386C224.9647,-145.0821 297.6353,-131.9693 362,-120.0983 374.2039,-117.8475 387.1539,-115.4327 399.7436,-113.071"/>
<polygon fill="#191970" stroke="#191970" points="168.5131,-151.6503 159.2876,-156.86 169.7483,-158.5405 168.5131,-151.6503"/>
</g>
<!-- Node14 -->
<g id="node14" class="node">
<title>Node14</title>
<g id="a_node14"><a xlink:href="../../de/d64/classAnnularFieldSim.html#a5868eb5808ec182e9299bee9be6f5b0f" target="_top" xlink:title="AnnularFieldSim::swimToIn\lAnalyticSteps">
<polygon fill="none" stroke="#000000" points="585,-5.0983 585,-37.0983 737,-37.0983 737,-5.0983 585,-5.0983"/>
<text text-anchor="start" x="593" y="-24.0983" font-family="FreeSans" font-size="10.00" fill="#000000">AnnularFieldSim::swimToIn</text>
<text text-anchor="middle" x="661" y="-12.0983" font-family="FreeSans" font-size="10.00" fill="#000000">AnalyticSteps</text>
</a>
</g>
</g>
<!-- Node1&#45;&gt;Node14 -->
<g id="edge35" class="edge">
<title>Node1&#45;&gt;Node14</title>
<path fill="none" stroke="#191970" d="M94.1425,-146.5844C113.2138,-117.2246 149.549,-69.3491 195,-48.0983 321.45,11.0238 488.7076,2.8088 584.6104,-8.8939"/>
<polygon fill="#191970" stroke="#191970" points="91.1745,-144.7293 88.7871,-155.0516 97.0905,-148.4711 91.1745,-144.7293"/>
</g>
<!-- Node16 -->
<g id="node16" class="node">
<title>Node16</title>
<g id="a_node16"><a xlink:href="../../de/d64/classAnnularFieldSim.html#aae2d9b9913d410d22242028c08c6865a" target="_top" xlink:title="AnnularFieldSim::GetTotal\lDistortion">
<polygon fill="none" stroke="#000000" points="587.5,-70.0983 587.5,-102.0983 734.5,-102.0983 734.5,-70.0983 587.5,-70.0983"/>
<text text-anchor="start" x="595.5" y="-89.0983" font-family="FreeSans" font-size="10.00" fill="#000000">AnnularFieldSim::GetTotal</text>
<text text-anchor="middle" x="661" y="-77.0983" font-family="FreeSans" font-size="10.00" fill="#000000">Distortion</text>
</a>
</g>
</g>
<!-- Node1&#45;&gt;Node16 -->
<g id="edge34" class="edge">
<title>Node1&#45;&gt;Node16</title>
<path fill="none" stroke="#191970" d="M100.6009,-147.8319C121.9759,-126.0756 157.1998,-94.925 195,-81.0983 327.4017,-32.6681 495.4607,-52.4838 589.2935,-70.0783"/>
<polygon fill="#191970" stroke="#191970" points="98.0334,-145.4525 93.6363,-155.0918 103.0848,-150.2984 98.0334,-145.4525"/>
</g>
<!-- Node21 -->
<g id="node21" class="node">
<title>Node21</title>
<g id="a_node21"><a xlink:href="../../de/d64/classAnnularFieldSim.html#aacf7dde3b9fea13b430836afa2a01ffa" target="_top" xlink:title="AnnularFieldSim::GetBFieldAt">
<polygon fill="none" stroke="#000000" points="195.5,-290.0983 195.5,-310.0983 361.5,-310.0983 361.5,-290.0983 195.5,-290.0983"/>
<text text-anchor="middle" x="278.5" y="-297.0983" font-family="FreeSans" font-size="10.00" fill="#000000">AnnularFieldSim::GetBFieldAt</text>
</a>
</g>
</g>
<!-- Node1&#45;&gt;Node21 -->
<g id="edge26" class="edge">
<title>Node1&#45;&gt;Node21</title>
<path fill="none" stroke="#191970" d="M98.2086,-195.4142C119.0489,-220.7552 155.0995,-259.694 195,-281.0983 201.8126,-284.7529 209.3027,-287.7067 216.9141,-290.0937"/>
<polygon fill="#191970" stroke="#191970" points="100.7401,-192.9775 91.7406,-187.3865 95.2893,-197.3694 100.7401,-192.9775"/>
</g>
<!-- Node23 -->
<g id="node23" class="node">
<title>Node23</title>
<g id="a_node23"><a xlink:href="../../de/d64/classAnnularFieldSim.html#afcbd44db4d9cf22a4c80a737c35ef634" target="_top" xlink:title="AnnularFieldSim::GetFieldAt">
<polygon fill="none" stroke="#000000" points="199,-233.0983 199,-253.0983 358,-253.0983 358,-233.0983 199,-233.0983"/>
<text text-anchor="middle" x="278.5" y="-240.0983" font-family="FreeSans" font-size="10.00" fill="#000000">AnnularFieldSim::GetFieldAt</text>
</a>
</g>
</g>
<!-- Node1&#45;&gt;Node23 -->
<g id="edge30" class="edge">
<title>Node1&#45;&gt;Node23</title>
<path fill="none" stroke="#191970" d="M119.1594,-191.7667C141.0713,-202.5511 169.0398,-215.294 195,-224.0983 205.1372,-227.5363 216.1772,-230.5433 226.8103,-233.0899"/>
<polygon fill="#191970" stroke="#191970" points="120.674,-188.6111 110.1629,-187.282 117.551,-194.8758 120.674,-188.6111"/>
</g>
<!-- Node4 -->
<g id="node4" class="node">
<title>Node4</title>
<g id="a_node4"><a xlink:href="../../de/d64/classAnnularFieldSim.html#a0860caf13830e3b6ffb63477e5d5d90d" target="_top" xlink:title="AnnularFieldSim::populate\l_full3d_lookup">
<polygon fill="none" stroke="#000000" points="398,-134.0983 398,-166.0983 549,-166.0983 549,-134.0983 398,-134.0983"/>
<text text-anchor="start" x="406" y="-153.0983" font-family="FreeSans" font-size="10.00" fill="#000000">AnnularFieldSim::populate</text>
<text text-anchor="middle" x="473.5" y="-141.0983" font-family="FreeSans" font-size="10.00" fill="#000000">_full3d_lookup</text>
</a>
</g>
</g>
<!-- Node3&#45;&gt;Node4 -->
<g id="edge3" class="edge">
<title>Node3&#45;&gt;Node4</title>
<path fill="none" stroke="#191970" d="M351.4649,-180.1377C370.1325,-175.5426 390.0834,-170.6316 408.3306,-166.14"/>
<polygon fill="#191970" stroke="#191970" points="350.4152,-176.7916 341.5416,-182.5804 352.0884,-183.5887 350.4152,-176.7916"/>
</g>
<!-- Node9 -->
<g id="node9" class="node">
<title>Node9</title>
<g id="a_node9"><a xlink:href="../../de/d64/classAnnularFieldSim.html#a2bc090942421a5a9f185be13f2689d5a" target="_top" xlink:title="AnnularFieldSim::populate\l_highres_lookup">
<polygon fill="none" stroke="#000000" points="398,-287.0983 398,-319.0983 549,-319.0983 549,-287.0983 398,-287.0983"/>
<text text-anchor="start" x="406" y="-306.0983" font-family="FreeSans" font-size="10.00" fill="#000000">AnnularFieldSim::populate</text>
<text text-anchor="middle" x="473.5" y="-294.0983" font-family="FreeSans" font-size="10.00" fill="#000000">_highres_lookup</text>
</a>
</g>
</g>
<!-- Node3&#45;&gt;Node9 -->
<g id="edge8" class="edge">
<title>Node3&#45;&gt;Node9</title>
<path fill="none" stroke="#191970" d="M351.0704,-217.1451C354.9051,-219.2303 358.5808,-221.5402 362,-224.0983 385.0958,-241.3779 375.0598,-260.6127 398,-278.0983 402.5023,-281.5301 407.4991,-284.5039 412.7164,-287.0784"/>
<polygon fill="#191970" stroke="#191970" points="352.4041,-213.9018 341.8804,-212.6759 349.3427,-220.1969 352.4041,-213.9018"/>
</g>
<!-- Node10 -->
<g id="node10" class="node">
<title>Node10</title>
<g id="a_node10"><a xlink:href="../../de/d64/classAnnularFieldSim.html#a8fcaff1d1d774fba15565f6990077ea0" target="_top" xlink:title="AnnularFieldSim::populate\l_lowres_lookup">
<polygon fill="none" stroke="#000000" points="398,-236.0983 398,-268.0983 549,-268.0983 549,-236.0983 398,-236.0983"/>
<text text-anchor="start" x="406" y="-255.0983" font-family="FreeSans" font-size="10.00" fill="#000000">AnnularFieldSim::populate</text>
<text text-anchor="middle" x="473.5" y="-243.0983" font-family="FreeSans" font-size="10.00" fill="#000000">_lowres_lookup</text>
</a>
</g>
</g>
<!-- Node3&#45;&gt;Node10 -->
<g id="edge10" class="edge">
<title>Node3&#45;&gt;Node10</title>
<path fill="none" stroke="#191970" d="M346.3058,-216.8753C368.8278,-223.1122 393.6868,-229.9962 415.4082,-236.0114"/>
<polygon fill="#191970" stroke="#191970" points="347.0499,-213.4497 336.4785,-214.1539 345.1817,-220.1958 347.0499,-213.4497"/>
</g>
<!-- Node11 -->
<g id="node11" class="node">
<title>Node11</title>
<g id="a_node11"><a xlink:href="../../de/d64/classAnnularFieldSim.html#a266e4d2f962db9ca8c4ff25d6a34a574" target="_top" xlink:title="AnnularFieldSim::populate\l_phislice_lookup">
<polygon fill="none" stroke="#000000" points="398,-185.0983 398,-217.0983 549,-217.0983 549,-185.0983 398,-185.0983"/>
<text text-anchor="start" x="406" y="-204.0983" font-family="FreeSans" font-size="10.00" fill="#000000">AnnularFieldSim::populate</text>
<text text-anchor="middle" x="473.5" y="-192.0983" font-family="FreeSans" font-size="10.00" fill="#000000">_phislice_lookup</text>
</a>
</g>
</g>
<!-- Node3&#45;&gt;Node11 -->
<g id="edge12" class="edge">
<title>Node3&#45;&gt;Node11</title>
<path fill="none" stroke="#191970" d="M351.7876,-199.2258C366.8037,-199.4568 382.6378,-199.7004 397.7388,-199.9328"/>
<polygon fill="#191970" stroke="#191970" points="351.5943,-195.7225 341.5416,-199.0682 351.4866,-202.7217 351.5943,-195.7225"/>
</g>
<!-- Node5 -->
<g id="node5" class="node">
<title>Node5</title>
<g id="a_node5"><a xlink:href="../../de/d64/classAnnularFieldSim.html#a2f49f50c2bc4351587ab6cf8e660111e" target="_top" xlink:title="AnnularFieldSim::populate\l_lookup">
<polygon fill="none" stroke="#000000" points="585.5,-233.0983 585.5,-265.0983 736.5,-265.0983 736.5,-233.0983 585.5,-233.0983"/>
<text text-anchor="start" x="593.5" y="-252.0983" font-family="FreeSans" font-size="10.00" fill="#000000">AnnularFieldSim::populate</text>
<text text-anchor="middle" x="661" y="-240.0983" font-family="FreeSans" font-size="10.00" fill="#000000">_lookup</text>
</a>
</g>
</g>
<!-- Node4&#45;&gt;Node5 -->
<g id="edge4" class="edge">
<title>Node4&#45;&gt;Node5</title>
<path fill="none" stroke="#191970" d="M537.2707,-169.8589C541.2861,-171.5187 545.2268,-173.2672 549,-175.0983 582.7565,-191.4803 618.3522,-216.5255 640.1223,-232.8578"/>
<polygon fill="#191970" stroke="#191970" points="538.3974,-166.5413 527.8098,-166.15 535.8425,-173.0584 538.3974,-166.5413"/>
</g>
<!-- Node6 -->
<g id="node6" class="node">
<title>Node6</title>
<g id="a_node6"><a xlink:href="../../d6/dc9/generate__distortion__map_8C.html#a575d7771536a64024bc2886afc2ee4a8" target="_top" xlink:title="SetupDefaultSphenixTpc">
<polygon fill="none" stroke="#000000" points="789.5,-275.0983 789.5,-295.0983 931.5,-295.0983 931.5,-275.0983 789.5,-275.0983"/>
<text text-anchor="middle" x="860.5" y="-282.0983" font-family="FreeSans" font-size="10.00" fill="#000000">SetupDefaultSphenixTpc</text>
</a>
</g>
</g>
<!-- Node5&#45;&gt;Node6 -->
<g id="edge5" class="edge">
<title>Node5&#45;&gt;Node6</title>
<path fill="none" stroke="#191970" d="M746.6479,-264.5536C766.4191,-268.1213 786.9446,-271.8252 805.0327,-275.0892"/>
<polygon fill="#191970" stroke="#191970" points="747.1695,-261.0913 736.7069,-262.7597 745.9264,-267.98 747.1695,-261.0913"/>
</g>
<!-- Node8 -->
<g id="node8" class="node">
<title>Node8</title>
<g id="a_node8"><a xlink:href="../../d6/dc9/generate__distortion__map_8C.html#a75b8cc1dc5c54faed80dfd6d25c2e0de" target="_top" xlink:title="SetupDigitalCurrentSphenixTpc">
<polygon fill="none" stroke="#000000" points="773,-236.0983 773,-256.0983 948,-256.0983 948,-236.0983 773,-236.0983"/>
<text text-anchor="middle" x="860.5" y="-243.0983" font-family="FreeSans" font-size="10.00" fill="#000000">SetupDigitalCurrentSphenixTpc</text>
</a>
</g>
</g>
<!-- Node5&#45;&gt;Node8 -->
<g id="edge7" class="edge">
<title>Node5&#45;&gt;Node8</title>
<path fill="none" stroke="#191970" d="M746.7557,-247.8088C755.3852,-247.679 764.1572,-247.5471 772.8065,-247.417"/>
<polygon fill="#191970" stroke="#191970" points="746.6531,-244.3098 736.7069,-247.9599 746.7584,-251.309 746.6531,-244.3098"/>
</g>
<!-- Node7 -->
<g id="node7" class="node">
<title>Node7</title>
<g id="a_node7"><a xlink:href="../../d6/dc9/generate__distortion__map_8C.html#a97f39213bfa5c82dc096ecaf6acf300b" target="_top" xlink:title="generate_distortion_map">
<polygon fill="none" stroke="#000000" points="984,-275.0983 984,-295.0983 1127,-295.0983 1127,-275.0983 984,-275.0983"/>
<text text-anchor="middle" x="1055.5" y="-282.0983" font-family="FreeSans" font-size="10.00" fill="#000000">generate_distortion_map</text>
</a>
</g>
</g>
<!-- Node6&#45;&gt;Node7 -->
<g id="edge6" class="edge">
<title>Node6&#45;&gt;Node7</title>
<path fill="none" stroke="#191970" d="M941.7864,-285.0983C955.7349,-285.0983 970.1388,-285.0983 983.8129,-285.0983"/>
<polygon fill="#191970" stroke="#191970" points="941.7272,-281.5984 931.7272,-285.0983 941.7272,-288.5984 941.7272,-281.5984"/>
</g>
<!-- Node9&#45;&gt;Node5 -->
<g id="edge9" class="edge">
<title>Node9&#45;&gt;Node5</title>
<path fill="none" stroke="#191970" d="M538.9893,-284.2374C560.568,-278.0227 584.3502,-271.1735 605.1425,-265.1853"/>
<polygon fill="#191970" stroke="#191970" points="537.8893,-280.9119 529.2485,-287.0427 539.8266,-287.6385 537.8893,-280.9119"/>
</g>
<!-- Node10&#45;&gt;Node5 -->
<g id="edge11" class="edge">
<title>Node10&#45;&gt;Node5</title>
<path fill="none" stroke="#191970" d="M559.334,-250.725C567.9978,-250.5864 576.7525,-250.4463 585.2992,-250.3095"/>
<polygon fill="#191970" stroke="#191970" points="559.1657,-247.2271 549.223,-250.8868 559.2777,-254.2262 559.1657,-247.2271"/>
</g>
<!-- Node11&#45;&gt;Node5 -->
<g id="edge13" class="edge">
<title>Node11&#45;&gt;Node5</title>
<path fill="none" stroke="#191970" d="M546.1994,-219.7094C563.4183,-224.1174 581.6362,-228.7812 598.3636,-233.0634"/>
<polygon fill="#191970" stroke="#191970" points="546.7511,-216.2378 536.1955,-217.1484 545.015,-223.0191 546.7511,-216.2378"/>
</g>
<!-- Node12&#45;&gt;Node13 -->
<g id="edge15" class="edge">
<title>Node12&#45;&gt;Node13</title>
<path fill="none" stroke="#191970" d="M372.1469,-100.1378C381.4874,-100.042 390.8752,-99.9458 399.9667,-99.8525"/>
<polygon fill="#191970" stroke="#191970" points="372.0097,-96.639 362.0461,-100.2414 372.0816,-103.6386 372.0097,-96.639"/>
</g>
<!-- Node13&#45;&gt;Node14 -->
<g id="edge16" class="edge">
<title>Node13&#45;&gt;Node14</title>
<path fill="none" stroke="#191970" d="M521.7623,-79.0212C553.087,-65.9901 593.3545,-49.2389 622.5209,-37.1056"/>
<polygon fill="#191970" stroke="#191970" points="520.2387,-75.8642 512.3501,-82.9367 522.9274,-82.3272 520.2387,-75.8642"/>
</g>
<!-- Node13&#45;&gt;Node16 -->
<g id="edge18" class="edge">
<title>Node13&#45;&gt;Node16</title>
<path fill="none" stroke="#191970" d="M557.0811,-93.3034C567.1658,-92.6042 577.4094,-91.8939 587.3376,-91.2056"/>
<polygon fill="#191970" stroke="#191970" points="556.8007,-89.8143 547.0668,-93.9977 557.285,-96.7975 556.8007,-89.8143"/>
</g>
<!-- Node20 -->
<g id="node20" class="node">
<title>Node20</title>
<g id="a_node20"><a xlink:href="../../d6/dc9/generate__distortion__map_8C.html#a4b0c04912e1ab88eacfe663ac49cd74f" target="_top" xlink:title="TestSpotDistortion">
<polygon fill="none" stroke="#000000" points="606.5,-139.0983 606.5,-159.0983 715.5,-159.0983 715.5,-139.0983 606.5,-139.0983"/>
<text text-anchor="middle" x="661" y="-146.0983" font-family="FreeSans" font-size="10.00" fill="#000000">TestSpotDistortion</text>
</a>
</g>
</g>
<!-- Node13&#45;&gt;Node20 -->
<g id="edge25" class="edge">
<title>Node13&#45;&gt;Node20</title>
<path fill="none" stroke="#191970" d="M542.83,-117.8156C556.7888,-121.5662 571.3602,-125.4687 585,-129.0983 597.2619,-132.3613 610.6447,-135.893 622.7158,-139.0675"/>
<polygon fill="#191970" stroke="#191970" points="543.362,-114.3344 532.7961,-115.1175 541.5442,-121.0943 543.362,-114.3344"/>
</g>
<!-- Node15 -->
<g id="node15" class="node">
<title>Node15</title>
<g id="a_node15"><a xlink:href="../../de/d64/classAnnularFieldSim.html#a9760cf7606953c4fcecb75ba9c5831e7" target="_top" xlink:title="AnnularFieldSim::swimTo">
<polygon fill="none" stroke="#000000" points="984,-59.0983 984,-79.0983 1127,-79.0983 1127,-59.0983 984,-59.0983"/>
<text text-anchor="middle" x="1055.5" y="-66.0983" font-family="FreeSans" font-size="10.00" fill="#000000">AnnularFieldSim::swimTo</text>
</a>
</g>
</g>
<!-- Node14&#45;&gt;Node15 -->
<g id="edge17" class="edge">
<title>Node14&#45;&gt;Node15</title>
<path fill="none" stroke="#191970" d="M747.1021,-22.3713C804.3724,-24.3017 881.0849,-28.9698 948,-40.0983 974.3145,-44.4747 1003.4969,-52.5598 1024.8086,-59.0835"/>
<polygon fill="#191970" stroke="#191970" points="747.1085,-18.8699 737.0029,-22.0524 746.8875,-25.8664 747.1085,-18.8699"/>
</g>
<!-- Node16&#45;&gt;Node16 -->
<g id="edge21" class="edge">
<title>Node16&#45;&gt;Node16</title>
<path fill="none" stroke="#191970" d="M628.2665,-112.6736C632.6003,-117.345 643.5114,-120.5983 661,-120.5983 689.6992,-120.5983 700.6856,-111.8372 693.9593,-102.4257"/>
<polygon fill="#191970" stroke="#191970" points="631.7603,-112.3462 628.0407,-102.4257 624.762,-112.5004 631.7603,-112.3462"/>
</g>
<!-- Node17 -->
<g id="node17" class="node">
<title>Node17</title>
<g id="a_node17"><a xlink:href="../../de/d64/classAnnularFieldSim.html#a61f0b23cecab5b9f7e5feac62a3838e4" target="_top" xlink:title="AnnularFieldSim::swimToIn\lSteps">
<polygon fill="none" stroke="#000000" points="784.5,-101.0983 784.5,-133.0983 936.5,-133.0983 936.5,-101.0983 784.5,-101.0983"/>
<text text-anchor="start" x="792.5" y="-120.0983" font-family="FreeSans" font-size="10.00" fill="#000000">AnnularFieldSim::swimToIn</text>
<text text-anchor="middle" x="860.5" y="-108.0983" font-family="FreeSans" font-size="10.00" fill="#000000">Steps</text>
</a>
</g>
</g>
<!-- Node16&#45;&gt;Node17 -->
<g id="edge19" class="edge">
<title>Node16&#45;&gt;Node17</title>
<path fill="none" stroke="#191970" d="M744.7011,-99.1045C757.872,-101.1511 771.4264,-103.2573 784.4128,-105.2753"/>
<polygon fill="#191970" stroke="#191970" points="745.1385,-95.6306 734.7196,-97.5535 744.0636,-102.5475 745.1385,-95.6306"/>
</g>
<!-- Node18 -->
<g id="node18" class="node">
<title>Node18</title>
<g id="a_node18"><a xlink:href="../../de/d64/classAnnularFieldSim.html#ab6b9599145f96645b103f9f1c1c1e397" target="_top" xlink:title="AnnularFieldSim::Generate\lSeparateDistortionMaps">
<polygon fill="none" stroke="#000000" points="784,-174.0983 784,-206.0983 937,-206.0983 937,-174.0983 784,-174.0983"/>
<text text-anchor="start" x="792" y="-193.0983" font-family="FreeSans" font-size="10.00" fill="#000000">AnnularFieldSim::Generate</text>
<text text-anchor="middle" x="860.5" y="-181.0983" font-family="FreeSans" font-size="10.00" fill="#000000">SeparateDistortionMaps</text>
</a>
</g>
</g>
<!-- Node16&#45;&gt;Node18 -->
<g id="edge22" class="edge">
<title>Node16&#45;&gt;Node18</title>
<path fill="none" stroke="#191970" d="M700.9641,-106.9317C738.9126,-126.7144 795.155,-156.0337 829.7304,-174.058"/>
<polygon fill="#191970" stroke="#191970" points="702.22,-103.6395 691.7347,-102.1204 698.9842,-109.8467 702.22,-103.6395"/>
</g>
<!-- Node19 -->
<g id="node19" class="node">
<title>Node19</title>
<g id="a_node19"><a xlink:href="../../de/d64/classAnnularFieldSim.html#a69085e0758c28f66750ab848c3d35a8f" target="_top" xlink:title="AnnularFieldSim::Generate\lDistortionMaps">
<polygon fill="none" stroke="#000000" points="784,-50.0983 784,-82.0983 937,-82.0983 937,-50.0983 784,-50.0983"/>
<text text-anchor="start" x="792" y="-69.0983" font-family="FreeSans" font-size="10.00" fill="#000000">AnnularFieldSim::Generate</text>
<text text-anchor="middle" x="860.5" y="-57.0983" font-family="FreeSans" font-size="10.00" fill="#000000">DistortionMaps</text>
</a>
</g>
</g>
<!-- Node16&#45;&gt;Node19 -->
<g id="edge24" class="edge">
<title>Node16&#45;&gt;Node19</title>
<path fill="none" stroke="#191970" d="M744.9452,-77.6828C757.813,-76.3928 771.0408,-75.0667 783.7426,-73.7933"/>
<polygon fill="#191970" stroke="#191970" points="744.3206,-74.2277 734.7196,-78.7079 745.0189,-81.1928 744.3206,-74.2277"/>
</g>
<!-- Node17&#45;&gt;Node15 -->
<g id="edge20" class="edge">
<title>Node17&#45;&gt;Node15</title>
<path fill="none" stroke="#191970" d="M935.5096,-98.6344C962.4692,-91.9982 991.8554,-84.7647 1014.7987,-79.1171"/>
<polygon fill="#191970" stroke="#191970" points="934.5768,-95.2595 925.7033,-101.0483 936.25,-102.0566 934.5768,-95.2595"/>
</g>
<!-- Node18&#45;&gt;Node7 -->
<g id="edge23" class="edge">
<title>Node18&#45;&gt;Node7</title>
<path fill="none" stroke="#191970" d="M910.2493,-210.1723C922.6814,-215.4516 935.9136,-221.2984 948,-227.0983 980.3111,-242.6034 1016.8106,-262.9137 1037.8872,-274.9276"/>
<polygon fill="#191970" stroke="#191970" points="911.5057,-206.9038 900.9307,-206.256 908.7936,-213.3571 911.5057,-206.9038"/>
</g>
<!-- Node21&#45;&gt;Node21 -->
<g id="edge27" class="edge">
<title>Node21&#45;&gt;Node21</title>
<path fill="none" stroke="#191970" d="M242.1651,-318.4982C242.9435,-324.1585 255.0552,-328.5983 278.5,-328.5983 312.6016,-328.5983 322.7255,-319.205 308.8717,-310.3254"/>
<polygon fill="#191970" stroke="#191970" points="245.0614,-320.4667 248.1283,-310.3254 239.4066,-316.3407 245.0614,-320.4667"/>
</g>
<!-- Node22 -->
<g id="node22" class="node">
<title>Node22</title>
<g id="a_node22"><a xlink:href="../../de/d64/classAnnularFieldSim.html#a4823b727adb1568c6f26c033e059288f" target="_top" xlink:title="AnnularFieldSim::PlotField\lSlices">
<polygon fill="none" stroke="#000000" points="399.5,-338.0983 399.5,-370.0983 547.5,-370.0983 547.5,-338.0983 399.5,-338.0983"/>
<text text-anchor="start" x="407.5" y="-357.0983" font-family="FreeSans" font-size="10.00" fill="#000000">AnnularFieldSim::PlotField</text>
<text text-anchor="middle" x="473.5" y="-345.0983" font-family="FreeSans" font-size="10.00" fill="#000000">Slices</text>
</a>
</g>
</g>
<!-- Node21&#45;&gt;Node22 -->
<g id="edge28" class="edge">
<title>Node21&#45;&gt;Node22</title>
<path fill="none" stroke="#191970" d="M324.4004,-312.8092C351.6686,-320.3604 386.5008,-330.0062 415.6399,-338.0755"/>
<polygon fill="#191970" stroke="#191970" points="325.2924,-309.4246 314.721,-310.1288 323.4242,-316.1707 325.2924,-309.4246"/>
</g>
<!-- Node22&#45;&gt;Node7 -->
<g id="edge29" class="edge">
<title>Node22&#45;&gt;Node7</title>
<path fill="none" stroke="#191970" d="M557.833,-347.4671C652.9063,-339.5092 811.9745,-324.7423 948,-305.0983 967.1643,-302.3307 988.1229,-298.5935 1006.4037,-295.0987"/>
<polygon fill="#191970" stroke="#191970" points="557.375,-343.993 547.6995,-348.3097 557.9552,-350.9689 557.375,-343.993"/>
</g>
<!-- Node23&#45;&gt;Node22 -->
<g id="edge32" class="edge">
<title>Node23&#45;&gt;Node22</title>
<path fill="none" stroke="#191970" d="M319.583,-256.9803C333.899,-263.0173 349.4943,-271.0435 362,-281.0983 382.7824,-297.8077 376.3514,-313.5276 398,-329.0983 402.7079,-332.4845 407.9032,-335.4325 413.2993,-337.9949"/>
<polygon fill="#191970" stroke="#191970" points="320.5145,-253.5833 309.9299,-253.1181 317.9142,-260.0824 320.5145,-253.5833"/>
</g>
<!-- Node23&#45;&gt;Node23 -->
<g id="edge31" class="edge">
<title>Node23&#45;&gt;Node23</title>
<path fill="none" stroke="#191970" d="M242.1651,-261.4982C242.9435,-267.1585 255.0552,-271.5983 278.5,-271.5983 312.6016,-271.5983 322.7255,-262.205 308.8717,-253.3254"/>
<polygon fill="#191970" stroke="#191970" points="245.0614,-263.4667 248.1283,-253.3254 239.4066,-259.3407 245.0614,-263.4667"/>
</g>
</g>
</svg>
