<?xml version="1.0" encoding="UTF-8" standalone="no"?>
<!DOCTYPE svg PUBLIC "-//W3C//DTD SVG 1.1//EN"
 "http://www.w3.org/Graphics/SVG/1.1/DTD/svg11.dtd">
<!-- Generated by graphviz version 2.40.1 (20161225.0304)
 -->
<!-- Title: AnnularFieldSim::GetFieldAt Pages: 1 -->
<svg width="650pt" height="211pt"
 viewBox="0.00 0.00 650.00 211.00" xmlns="http://www.w3.org/2000/svg" xmlns:xlink="http://www.w3.org/1999/xlink">
<g id="graph0" class="graph" transform="scale(1 1) rotate(0) translate(4 207)">
<title>AnnularFieldSim::GetFieldAt</title>
<!-- Node1 -->
<g id="node1" class="node">
<title>Node1</title>
<polygon fill="#bfbfbf" stroke="#000000" points="0,-108.5 0,-128.5 159,-128.5 159,-108.5 0,-108.5"/>
<text text-anchor="middle" x="79.5" y="-115.5" font-family="FreeSans" font-size="10.00" fill="#000000">AnnularFieldSim::GetFieldAt</text>
</g>
<!-- Node1&#45;&gt;Node1 -->
<g id="edge4" class="edge">
<title>Node1&#45;&gt;Node1</title>
<path fill="none" stroke="#191970" d="M48.5021,-128.7271C34.3627,-137.6067 44.6953,-147 79.5,-147 103.4282,-147 115.7896,-142.5602 116.5841,-136.8999"/>
<polygon fill="#191970" stroke="#191970" points="119.2778,-134.6571 110.4979,-128.7271 113.6635,-138.838 119.2778,-134.6571"/>
</g>
<!-- Node2 -->
<g id="node2" class="node">
<title>Node2</title>
<g id="a_node2"><a xlink:href="../../de/d64/classAnnularFieldSim.html#a89886f51584b79fee6e61ca60e353545" target="_top" xlink:title="AnnularFieldSim::FilterPhiPos">
<polygon fill="none" stroke="#000000" points="398,-182.5 398,-202.5 562,-202.5 562,-182.5 398,-182.5"/>
<text text-anchor="middle" x="480" y="-189.5" font-family="FreeSans" font-size="10.00" fill="#000000">AnnularFieldSim::FilterPhiPos</text>
</a>
</g>
</g>
<!-- Node1&#45;&gt;Node2 -->
<g id="edge1" class="edge">
<title>Node1&#45;&gt;Node2</title>
<path fill="none" stroke="#191970" d="M92.4252,-128.5815C112.8485,-143.8314 154.4418,-172.1842 195,-183.5 257.7499,-201.0072 331.2983,-202.8933 387.9612,-200.5922"/>
<polygon fill="#191970" stroke="#191970" points="388.149,-204.0874 397.9789,-200.1349 387.8297,-197.0947 388.149,-204.0874"/>
</g>
<!-- Node4 -->
<g id="node4" class="node">
<title>Node4</title>
<g id="a_node4"><a xlink:href="../../d8/d64/classMultiArray.html#aec5a4ca1ee2a856a7574a75d6ad48568" target="_top" xlink:title="MultiArray::Get">
<polygon fill="none" stroke="#000000" points="232.5,-153.5 232.5,-173.5 324.5,-173.5 324.5,-153.5 232.5,-153.5"/>
<text text-anchor="middle" x="278.5" y="-160.5" font-family="FreeSans" font-size="10.00" fill="#000000">MultiArray::Get</text>
</a>
</g>
</g>
<!-- Node1&#45;&gt;Node4 -->
<g id="edge3" class="edge">
<title>Node1&#45;&gt;Node4</title>
<path fill="none" stroke="#191970" d="M124.1595,-128.5989C153.7326,-135.2863 192.7052,-144.0992 224.0884,-151.1959"/>
<polygon fill="#191970" stroke="#191970" points="223.4638,-154.6429 233.9896,-153.4348 225.0078,-147.8153 223.4638,-154.6429"/>
</g>
<!-- Node5 -->
<g id="node5" class="node">
<title>Node5</title>
<g id="a_node5"><a xlink:href="../../de/d64/classAnnularFieldSim.html#aab5dee891f7302176821ad489549a18f" target="_top" xlink:title="AnnularFieldSim::GetPhiIndex\lAndCheckBounds">
<polygon fill="none" stroke="#000000" points="195,-102.5 195,-134.5 362,-134.5 362,-102.5 195,-102.5"/>
<text text-anchor="start" x="203" y="-121.5" font-family="FreeSans" font-size="10.00" fill="#000000">AnnularFieldSim::GetPhiIndex</text>
<text text-anchor="middle" x="278.5" y="-109.5" font-family="FreeSans" font-size="10.00" fill="#000000">AndCheckBounds</text>
</a>
</g>
</g>
<!-- Node1&#45;&gt;Node5 -->
<g id="edge5" class="edge">
<title>Node1&#45;&gt;Node5</title>
<path fill="none" stroke="#191970" d="M159.008,-118.5C167.4895,-118.5 176.1732,-118.5 184.7985,-118.5"/>
<polygon fill="#191970" stroke="#191970" points="184.8816,-122.0001 194.8816,-118.5 184.8815,-115.0001 184.8816,-122.0001"/>
</g>
<!-- Node7 -->
<g id="node7" class="node">
<title>Node7</title>
<g id="a_node7"><a xlink:href="../../de/d64/classAnnularFieldSim.html#af41a4754a596a90505d15a5dcb1868a6" target="_top" xlink:title="AnnularFieldSim::GetRindex\lAndCheckBounds">
<polygon fill="none" stroke="#000000" points="199,-51.5 199,-83.5 358,-83.5 358,-51.5 199,-51.5"/>
<text text-anchor="start" x="207" y="-70.5" font-family="FreeSans" font-size="10.00" fill="#000000">AnnularFieldSim::GetRindex</text>
<text text-anchor="middle" x="278.5" y="-58.5" font-family="FreeSans" font-size="10.00" fill="#000000">AndCheckBounds</text>
</a>
</g>
</g>
<!-- Node1&#45;&gt;Node7 -->
<g id="edge8" class="edge">
<title>Node1&#45;&gt;Node7</title>
<path fill="none" stroke="#191970" d="M118.816,-108.424C143.6471,-102.0603 176.4884,-93.6437 205.9285,-86.0987"/>
<polygon fill="#191970" stroke="#191970" points="206.9476,-89.4507 215.7656,-83.5777 205.2098,-82.6699 206.9476,-89.4507"/>
</g>
<!-- Node8 -->
<g id="node8" class="node">
<title>Node8</title>
<g id="a_node8"><a xlink:href="../../de/d64/classAnnularFieldSim.html#a004ad992d4f49f5aba99cd82b8983163" target="_top" xlink:title="AnnularFieldSim::GetZindex\lAndCheckBounds">
<polygon fill="none" stroke="#000000" points="199,-.5 199,-32.5 358,-32.5 358,-.5 199,-.5"/>
<text text-anchor="start" x="207" y="-19.5" font-family="FreeSans" font-size="10.00" fill="#000000">AnnularFieldSim::GetZindex</text>
<text text-anchor="middle" x="278.5" y="-7.5" font-family="FreeSans" font-size="10.00" fill="#000000">AndCheckBounds</text>
</a>
</g>
</g>
<!-- Node1&#45;&gt;Node8 -->
<g id="edge9" class="edge">
<title>Node1&#45;&gt;Node8</title>
<path fill="none" stroke="#191970" d="M91.914,-108.394C112.3016,-92.2333 154.652,-60.4682 195,-41.5 199.0377,-39.6018 203.253,-37.8092 207.5514,-36.1231"/>
<polygon fill="#191970" stroke="#191970" points="208.8955,-39.3577 217.0573,-32.6023 206.4642,-32.7935 208.8955,-39.3577"/>
</g>
<!-- Node3 -->
<g id="node3" class="node">
<title>Node3</title>
<g id="a_node3"><a xlink:href="../../da/d23/msg__buffer_8cc.html#a98631211a4a8aee62f572375d5b637be" target="_top" xlink:title="printf">
<polygon fill="none" stroke="#000000" points="598,-149.5 598,-169.5 642,-169.5 642,-149.5 598,-149.5"/>
<text text-anchor="middle" x="620" y="-156.5" font-family="FreeSans" font-size="10.00" fill="#000000">printf</text>
</a>
</g>
</g>
<!-- Node2&#45;&gt;Node3 -->
<g id="edge2" class="edge">
<title>Node2&#45;&gt;Node3</title>
<path fill="none" stroke="#191970" d="M522.7653,-182.4196C543.7594,-177.471 568.6256,-171.6097 587.9561,-167.0532"/>
<polygon fill="#191970" stroke="#191970" points="588.8573,-170.4368 597.7876,-164.7358 587.2513,-163.6235 588.8573,-170.4368"/>
</g>
<!-- Node6 -->
<g id="node6" class="node">
<title>Node6</title>
<g id="a_node6"><a xlink:href="../../de/d64/classAnnularFieldSim.html#ae7f3aaa01498d1b9259f05559c5bac7e" target="_top" xlink:title="AnnularFieldSim::FilterPhi\lIndex">
<polygon fill="none" stroke="#000000" points="407,-121.5 407,-153.5 553,-153.5 553,-121.5 407,-121.5"/>
<text text-anchor="start" x="415" y="-140.5" font-family="FreeSans" font-size="10.00" fill="#000000">AnnularFieldSim::FilterPhi</text>
<text text-anchor="middle" x="480" y="-128.5" font-family="FreeSans" font-size="10.00" fill="#000000">Index</text>
</a>
</g>
</g>
<!-- Node5&#45;&gt;Node6 -->
<g id="edge6" class="edge">
<title>Node5&#45;&gt;Node6</title>
<path fill="none" stroke="#191970" d="M362.2036,-126.3926C373.661,-127.473 385.4214,-128.5819 396.8685,-129.6613"/>
<polygon fill="#191970" stroke="#191970" points="396.5476,-133.1465 406.832,-130.6008 397.2048,-126.1774 396.5476,-133.1465"/>
</g>
<!-- Node6&#45;&gt;Node3 -->
<g id="edge7" class="edge">
<title>Node6&#45;&gt;Node3</title>
<path fill="none" stroke="#191970" d="M553.2802,-149.0155C565.3593,-150.9136 577.3078,-152.7912 587.683,-154.4216"/>
<polygon fill="#191970" stroke="#191970" points="587.4427,-157.9267 597.8649,-156.0216 588.5295,-151.0116 587.4427,-157.9267"/>
</g>
</g>
</svg>
