<?xml version="1.0" encoding="UTF-8" standalone="no"?>
<!DOCTYPE svg PUBLIC "-//W3C//DTD SVG 1.1//EN"
 "http://www.w3.org/Graphics/SVG/1.1/DTD/svg11.dtd">
<!-- Generated by graphviz version 2.40.1 (20161225.0304)
 -->
<!-- Title: AnnularFieldSim::sum_local_field_at Pages: 1 -->
<svg width="398pt" height="275pt"
 viewBox="0.00 0.00 398.00 275.00" xmlns="http://www.w3.org/2000/svg" xmlns:xlink="http://www.w3.org/1999/xlink">
<g id="graph0" class="graph" transform="scale(1 1) rotate(0) translate(4 271)">
<title>AnnularFieldSim::sum_local_field_at</title>
<!-- Node1 -->
<g id="node1" class="node">
<title>Node1</title>
<polygon fill="#bfbfbf" stroke="#000000" points="0,-111.5 0,-143.5 128,-143.5 128,-111.5 0,-111.5"/>
<text text-anchor="start" x="8" y="-130.5" font-family="FreeSans" font-size="10.00" fill="#000000">AnnularFieldSim::sum</text>
<text text-anchor="middle" x="64" y="-118.5" font-family="FreeSans" font-size="10.00" fill="#000000">_local_field_at</text>
</g>
<!-- Node2 -->
<g id="node2" class="node">
<title>Node2</title>
<g id="a_node2"><a xlink:href="../../d8/d64/classMultiArray.html#a33bbe655697ef0d6b52428f200869917" target="_top" xlink:title="MultiArray::Add">
<polygon fill="none" stroke="#000000" points="190.5,-246.5 190.5,-266.5 283.5,-266.5 283.5,-246.5 190.5,-246.5"/>
<text text-anchor="middle" x="237" y="-253.5" font-family="FreeSans" font-size="10.00" fill="#000000">MultiArray::Add</text>
</a>
</g>
</g>
<!-- Node1&#45;&gt;Node2 -->
<g id="edge1" class="edge">
<title>Node1&#45;&gt;Node2</title>
<path fill="none" stroke="#191970" d="M74.1603,-143.668C90.2181,-167.8521 123.8033,-213.1966 164,-237.5 169.0973,-240.5819 174.6878,-243.1684 180.4352,-245.3384"/>
<polygon fill="#191970" stroke="#191970" points="179.6027,-248.7506 190.1966,-248.6108 181.8277,-242.1137 179.6027,-248.7506"/>
</g>
<!-- Node3 -->
<g id="node3" class="node">
<title>Node3</title>
<g id="a_node3"><a xlink:href="../../de/d64/classAnnularFieldSim.html#ae7f3aaa01498d1b9259f05559c5bac7e" target="_top" xlink:title="AnnularFieldSim::FilterPhi\lIndex">
<polygon fill="none" stroke="#000000" points="164,-195.5 164,-227.5 310,-227.5 310,-195.5 164,-195.5"/>
<text text-anchor="start" x="172" y="-214.5" font-family="FreeSans" font-size="10.00" fill="#000000">AnnularFieldSim::FilterPhi</text>
<text text-anchor="middle" x="237" y="-202.5" font-family="FreeSans" font-size="10.00" fill="#000000">Index</text>
</a>
</g>
</g>
<!-- Node1&#45;&gt;Node3 -->
<g id="edge2" class="edge">
<title>Node1&#45;&gt;Node3</title>
<path fill="none" stroke="#191970" d="M92.9809,-143.7066C112.7663,-154.5605 139.6967,-168.9255 164,-180.5 171.684,-184.1595 179.9133,-187.8592 187.9765,-191.3662"/>
<polygon fill="#191970" stroke="#191970" points="186.7536,-194.65 197.3232,-195.3807 189.5162,-188.2182 186.7536,-194.65"/>
</g>
<!-- Node4 -->
<g id="node4" class="node">
<title>Node4</title>
<g id="a_node4"><a xlink:href="../../da/d23/msg__buffer_8cc.html#a98631211a4a8aee62f572375d5b637be" target="_top" xlink:title="printf">
<polygon fill="none" stroke="#000000" points="346,-178.5 346,-198.5 390,-198.5 390,-178.5 346,-178.5"/>
<text text-anchor="middle" x="368" y="-185.5" font-family="FreeSans" font-size="10.00" fill="#000000">printf</text>
</a>
</g>
</g>
<!-- Node1&#45;&gt;Node4 -->
<g id="edge7" class="edge">
<title>Node1&#45;&gt;Node4</title>
<path fill="none" stroke="#191970" d="M128.0991,-140.362C191.7173,-153.1275 286.6359,-172.1737 335.8349,-182.0458"/>
<polygon fill="#191970" stroke="#191970" points="335.4029,-185.5288 345.896,-184.0647 336.7801,-178.6656 335.4029,-185.5288"/>
</g>
<!-- Node5 -->
<g id="node5" class="node">
<title>Node5</title>
<g id="a_node5"><a xlink:href="../../d8/d64/classMultiArray.html#aec5a4ca1ee2a856a7574a75d6ad48568" target="_top" xlink:title="MultiArray::Get">
<polygon fill="none" stroke="#000000" points="191,-117.5 191,-137.5 283,-137.5 283,-117.5 191,-117.5"/>
<text text-anchor="middle" x="237" y="-124.5" font-family="FreeSans" font-size="10.00" fill="#000000">MultiArray::Get</text>
</a>
</g>
</g>
<!-- Node1&#45;&gt;Node5 -->
<g id="edge4" class="edge">
<title>Node1&#45;&gt;Node5</title>
<path fill="none" stroke="#191970" d="M128.4188,-127.5C145.6028,-127.5 164.0328,-127.5 180.7408,-127.5"/>
<polygon fill="#191970" stroke="#191970" points="180.8949,-131.0001 190.8948,-127.5 180.8948,-124.0001 180.8949,-131.0001"/>
</g>
<!-- Node6 -->
<g id="node6" class="node">
<title>Node6</title>
<g id="a_node6"><a xlink:href="../../d8/d64/classMultiArray.html#a9600359f6801c3b0df50fad25beea350" target="_top" xlink:title="MultiArray::GetFlat">
<polygon fill="none" stroke="#000000" points="181.5,-78.5 181.5,-98.5 292.5,-98.5 292.5,-78.5 181.5,-78.5"/>
<text text-anchor="middle" x="237" y="-85.5" font-family="FreeSans" font-size="10.00" fill="#000000">MultiArray::GetFlat</text>
</a>
</g>
</g>
<!-- Node1&#45;&gt;Node6 -->
<g id="edge5" class="edge">
<title>Node1&#45;&gt;Node6</title>
<path fill="none" stroke="#191970" d="M128.4188,-112.9778C146.2468,-108.9588 165.4159,-104.6375 182.6117,-100.7609"/>
<polygon fill="#191970" stroke="#191970" points="183.4979,-104.1491 192.4833,-98.5356 181.9584,-97.3205 183.4979,-104.1491"/>
</g>
<!-- Node7 -->
<g id="node7" class="node">
<title>Node7</title>
<g id="a_node7"><a xlink:href="../../d8/d64/classMultiArray.html#a724a354269ec724f79ab24f2c9210c28" target="_top" xlink:title="MultiArray::Length">
<polygon fill="none" stroke="#000000" points="183,-39.5 183,-59.5 291,-59.5 291,-39.5 183,-39.5"/>
<text text-anchor="middle" x="237" y="-46.5" font-family="FreeSans" font-size="10.00" fill="#000000">MultiArray::Length</text>
</a>
</g>
</g>
<!-- Node1&#45;&gt;Node7 -->
<g id="edge6" class="edge">
<title>Node1&#45;&gt;Node7</title>
<path fill="none" stroke="#191970" d="M87.7473,-111.3664C107.4592,-98.5641 136.6009,-80.9712 164,-69.5 170.1894,-66.9087 176.814,-64.5554 183.454,-62.4483"/>
<polygon fill="#191970" stroke="#191970" points="184.5736,-65.7666 193.1444,-59.5382 182.5603,-59.0623 184.5736,-65.7666"/>
</g>
<!-- Node8 -->
<g id="node8" class="node">
<title>Node8</title>
<g id="a_node8"><a xlink:href="../../da/d55/TPCRateLayered_8m.html#a7507ef556477c204b499f1e189d40796" target="_top" xlink:title="sum">
<polygon fill="none" stroke="#000000" points="218,-.5 218,-20.5 256,-20.5 256,-.5 218,-.5"/>
<text text-anchor="middle" x="237" y="-7.5" font-family="FreeSans" font-size="10.00" fill="#000000">sum</text>
</a>
</g>
</g>
<!-- Node1&#45;&gt;Node8 -->
<g id="edge8" class="edge">
<title>Node1&#45;&gt;Node8</title>
<path fill="none" stroke="#191970" d="M76.363,-111.1861C93.6296,-89.5395 127.0324,-51.6069 164,-30.5 177.3676,-22.8677 193.7864,-18.0325 207.6652,-15.0328"/>
<polygon fill="#191970" stroke="#191970" points="208.544,-18.4275 217.6907,-13.0807 207.2061,-11.5565 208.544,-18.4275"/>
</g>
<!-- Node3&#45;&gt;Node4 -->
<g id="edge3" class="edge">
<title>Node3&#45;&gt;Node4</title>
<path fill="none" stroke="#191970" d="M310.1602,-198.6551C319.2068,-197.0667 328.0558,-195.5131 336.0041,-194.1176"/>
<polygon fill="#191970" stroke="#191970" points="336.6308,-197.5612 345.8749,-192.3846 335.4203,-190.6666 336.6308,-197.5612"/>
</g>
</g>
</svg>
