<?xml version="1.0" encoding="UTF-8" standalone="no"?>
<!DOCTYPE svg PUBLIC "-//W3C//DTD SVG 1.1//EN"
 "http://www.w3.org/Graphics/SVG/1.1/DTD/svg11.dtd">
<!-- Generated by graphviz version 2.40.1 (20161225.0304)
 -->
<!-- Title: upload.SubversionVCS._GuessBase Pages: 1 -->
<svg width="312pt" height="59pt"
 viewBox="0.00 0.00 312.00 59.00" xmlns="http://www.w3.org/2000/svg" xmlns:xlink="http://www.w3.org/1999/xlink">
<g id="graph0" class="graph" transform="scale(1 1) rotate(0) translate(4 55)">
<title>upload.SubversionVCS._GuessBase</title>
<!-- Node1 -->
<g id="node1" class="node">
<title>Node1</title>
<polygon fill="#bfbfbf" stroke="#000000" points="0,-.5 0,-32.5 134,-32.5 134,-.5 0,-.5"/>
<text text-anchor="start" x="8" y="-19.5" font-family="FreeSans" font-size="10.00" fill="#000000">upload.SubversionVCS.</text>
<text text-anchor="middle" x="67" y="-7.5" font-family="FreeSans" font-size="10.00" fill="#000000">_GuessBase</text>
</g>
<!-- Node1&#45;&gt;Node1 -->
<g id="edge2" class="edge">
<title>Node1&#45;&gt;Node1</title>
<path fill="none" stroke="#191970" d="M37.0823,-43.0753C41.0432,-47.7466 51.0158,-51 67,-51 93.2305,-51 103.2718,-42.2388 97.1241,-32.8274"/>
<polygon fill="#191970" stroke="#191970" points="40.5767,-42.7549 36.8759,-32.8274 33.5781,-42.8959 40.5767,-42.7549"/>
</g>
<!-- Node2 -->
<g id="node2" class="node">
<title>Node2</title>
<g id="a_node2"><a xlink:href="../../db/deb/classupload_1_1SubversionVCS.html#a760ffa25dae2a3f415c1727508ac1c99" target="_top" xlink:title="upload.SubversionVCS.\l__init__">
<polygon fill="none" stroke="#000000" points="170,-.5 170,-32.5 304,-32.5 304,-.5 170,-.5"/>
<text text-anchor="start" x="178" y="-19.5" font-family="FreeSans" font-size="10.00" fill="#000000">upload.SubversionVCS.</text>
<text text-anchor="middle" x="237" y="-7.5" font-family="FreeSans" font-size="10.00" fill="#000000">__init__</text>
</a>
</g>
</g>
<!-- Node1&#45;&gt;Node2 -->
<g id="edge1" class="edge">
<title>Node1&#45;&gt;Node2</title>
<path fill="none" stroke="#191970" d="M144.4246,-16.5C152.8759,-16.5 161.4279,-16.5 169.7428,-16.5"/>
<polygon fill="#191970" stroke="#191970" points="144.1885,-13.0001 134.1885,-16.5 144.1885,-20.0001 144.1885,-13.0001"/>
</g>
</g>
</svg>
