<?xml version="1.0" encoding="UTF-8" standalone="no"?>
<!DOCTYPE svg PUBLIC "-//W3C//DTD SVG 1.1//EN"
 "http://www.w3.org/Graphics/SVG/1.1/DTD/svg11.dtd">
<!-- Generated by graphviz version 2.40.1 (20161225.0304)
 -->
<!-- Title: FreestreamMilneWrapper Pages: 1 -->
<svg width="1511pt" height="430pt"
 viewBox="0.00 0.00 1511.00 430.00" xmlns="http://www.w3.org/2000/svg" xmlns:xlink="http://www.w3.org/1999/xlink">
<g id="graph0" class="graph" transform="scale(1 1) rotate(0) translate(4 426)">
<title>FreestreamMilneWrapper</title>
<!-- Node1 -->
<g id="node1" class="node">
<title>Node1</title>
<polygon fill="#bfbfbf" stroke="#000000" points="1359,-111.5 1359,-131.5 1503,-131.5 1503,-111.5 1359,-111.5"/>
<text text-anchor="middle" x="1431" y="-118.5" font-family="FreeSans" font-size="10.00" fill="#000000">FreestreamMilneWrapper</text>
</g>
<!-- Node2 -->
<g id="node2" class="node">
<title>Node2</title>
<g id="a_node2"><a xlink:href="../../dc/ddc/classJetscape_1_1PreequilibriumDynamics.html" target="_top" xlink:title="Jetscape::Preequilibrium\lDynamics">
<polygon fill="none" stroke="#000000" points="1132,-171.5 1132,-203.5 1272,-203.5 1272,-171.5 1132,-171.5"/>
<text text-anchor="start" x="1140" y="-190.5" font-family="FreeSans" font-size="10.00" fill="#000000">Jetscape::Preequilibrium</text>
<text text-anchor="middle" x="1202" y="-178.5" font-family="FreeSans" font-size="10.00" fill="#000000">Dynamics</text>
</a>
</g>
</g>
<!-- Node2&#45;&gt;Node1 -->
<g id="edge1" class="edge">
<title>Node2&#45;&gt;Node1</title>
<path fill="none" stroke="#191970" d="M1267.5741,-168.6009C1309.4427,-156.534 1362.0608,-141.3689 1396.1001,-131.5585"/>
<polygon fill="#191970" stroke="#191970" points="1266.3665,-165.3064 1257.7269,-171.439 1268.3051,-172.0326 1266.3665,-165.3064"/>
</g>
<!-- Node3 -->
<g id="node3" class="node">
<title>Node3</title>
<g id="a_node3"><a xlink:href="../../db/d28/classJetscape_1_1JetScapeModuleBase.html" target="_top" xlink:title="Jetscape::JetScapeModuleBase">
<polygon fill="none" stroke="#000000" points="810,-263.5 810,-283.5 982,-283.5 982,-263.5 810,-263.5"/>
<text text-anchor="middle" x="896" y="-270.5" font-family="FreeSans" font-size="10.00" fill="#000000">Jetscape::JetScapeModuleBase</text>
</a>
</g>
</g>
<!-- Node3&#45;&gt;Node2 -->
<g id="edge2" class="edge">
<title>Node3&#45;&gt;Node2</title>
<path fill="none" stroke="#191970" d="M961.7003,-261.531C997.8237,-254.3429 1043.2471,-244.3058 1083,-232.5 1110.5256,-224.3255 1140.7825,-212.8489 1163.8985,-203.5319"/>
<polygon fill="#191970" stroke="#191970" points="960.9082,-258.1196 951.7706,-263.482 962.2578,-264.9883 960.9082,-258.1196"/>
</g>
<!-- Node4 -->
<g id="node4" class="node">
<title>Node4</title>
<g id="a_node4"><a xlink:href="../../d5/d42/classJetscape_1_1JetScapeTask.html" target="_top" xlink:title="Jetscape::JetScapeTask">
<polygon fill="none" stroke="#000000" points="516,-345.5 516,-365.5 649,-365.5 649,-345.5 516,-345.5"/>
<text text-anchor="middle" x="582.5" y="-352.5" font-family="FreeSans" font-size="10.00" fill="#000000">Jetscape::JetScapeTask</text>
</a>
</g>
</g>
<!-- Node4&#45;&gt;Node3 -->
<g id="edge3" class="edge">
<title>Node4&#45;&gt;Node3</title>
<path fill="none" stroke="#191970" d="M643.9004,-343.4796C685.8828,-334.833 742.6472,-322.3003 792,-308.5 818.236,-301.1638 847.6122,-291.1025 868.4342,-283.6497"/>
<polygon fill="#191970" stroke="#191970" points="643.1963,-340.0511 634.0998,-345.4829 644.5982,-346.9093 643.1963,-340.0511"/>
</g>
<!-- Node5 -->
<g id="node5" class="node">
<title>Node5</title>
<g id="a_node5"><a xlink:href="../../d4/d67/classshared__ptr.html" target="_top" xlink:title="shared_ptr\&lt; JetScapeModule\lMutex \&gt;">
<polygon fill="none" stroke="#000000" points="245,-389.5 245,-421.5 407,-421.5 407,-389.5 245,-389.5"/>
<text text-anchor="start" x="253" y="-408.5" font-family="FreeSans" font-size="10.00" fill="#000000">shared_ptr&lt; JetScapeModule</text>
<text text-anchor="middle" x="326" y="-396.5" font-family="FreeSans" font-size="10.00" fill="#000000">Mutex &gt;</text>
</a>
</g>
</g>
<!-- Node5&#45;&gt;Node4 -->
<g id="edge4" class="edge">
<title>Node5&#45;&gt;Node4</title>
<path fill="none" stroke="#9a32cd" stroke-dasharray="5,2" d="M417.2632,-387.7099C455.424,-380.2712 498.3622,-371.9011 530.9019,-365.5581"/>
<polygon fill="#9a32cd" stroke="#9a32cd" points="416.3038,-384.331 407.1582,-389.6797 417.6431,-391.2016 416.3038,-384.331"/>
<text text-anchor="middle" x="454.5" y="-387.5" font-family="FreeSans" font-size="10.00" fill="#000000"> mutex</text>
</g>
<!-- Node6 -->
<g id="node6" class="node">
<title>Node6</title>
<polygon fill="none" stroke="#bfbfbf" points="258,-338.5 258,-370.5 394,-370.5 394,-338.5 258,-338.5"/>
<text text-anchor="start" x="266" y="-357.5" font-family="FreeSans" font-size="10.00" fill="#000000">std::vector&lt; shared</text>
<text text-anchor="middle" x="326" y="-345.5" font-family="FreeSans" font-size="10.00" fill="#000000">_ptr&lt; JetScapeTask &gt; &gt;</text>
</g>
<!-- Node6&#45;&gt;Node4 -->
<g id="edge5" class="edge">
<title>Node6&#45;&gt;Node4</title>
<path fill="none" stroke="#9a32cd" stroke-dasharray="5,2" d="M404.4287,-354.8058C440.0735,-354.9447 481.7979,-355.1074 515.8947,-355.2403"/>
<polygon fill="#9a32cd" stroke="#9a32cd" points="404.0775,-351.3045 394.0639,-354.7654 404.0501,-358.3044 404.0775,-351.3045"/>
<text text-anchor="middle" x="454.5" y="-357.5" font-family="FreeSans" font-size="10.00" fill="#000000"> tasks</text>
</g>
<!-- Node7 -->
<g id="node7" class="node">
<title>Node7</title>
<g id="a_node7"><a xlink:href="../../d4/d67/classshared__ptr.html" target="_top" xlink:title="shared_ptr\&lt; JetScapeTask \&gt;">
<polygon fill="none" stroke="#000000" points="0,-344.5 0,-364.5 158,-364.5 158,-344.5 0,-344.5"/>
<text text-anchor="middle" x="79" y="-351.5" font-family="FreeSans" font-size="10.00" fill="#000000">shared_ptr&lt; JetScapeTask &gt;</text>
</a>
</g>
</g>
<!-- Node7&#45;&gt;Node6 -->
<g id="edge6" class="edge">
<title>Node7&#45;&gt;Node6</title>
<path fill="none" stroke="#9a32cd" stroke-dasharray="5,2" d="M168.4473,-354.5C197.8626,-354.5 230.0737,-354.5 257.6624,-354.5"/>
<polygon fill="#9a32cd" stroke="#9a32cd" points="168.1716,-351.0001 158.1715,-354.5 168.1715,-358.0001 168.1716,-351.0001"/>
<text text-anchor="middle" x="201.5" y="-357.5" font-family="FreeSans" font-size="10.00" fill="#000000"> elements</text>
</g>
<!-- Node8 -->
<g id="node8" class="node">
<title>Node8</title>
<g id="a_node8"><a xlink:title="STL class.">
<polygon fill="none" stroke="#bfbfbf" points="292.5,-292.5 292.5,-312.5 359.5,-312.5 359.5,-292.5 292.5,-292.5"/>
<text text-anchor="middle" x="326" y="-299.5" font-family="FreeSans" font-size="10.00" fill="#000000">std::string</text>
</a>
</g>
</g>
<!-- Node8&#45;&gt;Node3 -->
<g id="edge12" class="edge">
<title>Node8&#45;&gt;Node3</title>
<path fill="none" stroke="#9a32cd" stroke-dasharray="5,2" d="M369.5248,-300.2856C463.3569,-295.5117 686.1734,-284.1754 809.7395,-277.8887"/>
<polygon fill="#9a32cd" stroke="#9a32cd" points="369.3373,-296.7905 359.5281,-300.7942 369.693,-303.7815 369.3373,-296.7905"/>
<text text-anchor="middle" x="582.5" y="-307.5" font-family="FreeSans" font-size="10.00" fill="#000000"> xml_main_file_name</text>
<text text-anchor="middle" x="582.5" y="-295.5" font-family="FreeSans" font-size="10.00" fill="#000000">xml_user_file_name</text>
</g>
<!-- Node8&#45;&gt;Node4 -->
<g id="edge7" class="edge">
<title>Node8&#45;&gt;Node4</title>
<path fill="none" stroke="#9a32cd" stroke-dasharray="5,2" d="M369.4173,-311.4712C415.042,-320.8985 486.6394,-335.6925 534.0659,-345.4922"/>
<polygon fill="#9a32cd" stroke="#9a32cd" points="370.0343,-308.0248 359.5329,-309.4288 368.6178,-314.88 370.0343,-308.0248"/>
<text text-anchor="middle" x="454.5" y="-336.5" font-family="FreeSans" font-size="10.00" fill="#000000"> id</text>
</g>
<!-- Node9 -->
<g id="node9" class="node">
<title>Node9</title>
<g id="a_node9"><a xlink:title="STL class.">
<polygon fill="none" stroke="#bfbfbf" points="25.5,-286.5 25.5,-318.5 132.5,-318.5 132.5,-286.5 25.5,-286.5"/>
<text text-anchor="start" x="33.5" y="-305.5" font-family="FreeSans" font-size="10.00" fill="#000000">std::basic_string&lt;</text>
<text text-anchor="middle" x="79" y="-293.5" font-family="FreeSans" font-size="10.00" fill="#000000"> char &gt;</text>
</a>
</g>
</g>
<!-- Node9&#45;&gt;Node8 -->
<g id="edge8" class="edge">
<title>Node9&#45;&gt;Node8</title>
<path fill="none" stroke="#191970" d="M142.8315,-302.5C190.5541,-302.5 253.9239,-302.5 292.2422,-302.5"/>
<polygon fill="#191970" stroke="#191970" points="142.5954,-299.0001 132.5953,-302.5 142.5953,-306.0001 142.5954,-299.0001"/>
</g>
<!-- Node10 -->
<g id="node10" class="node">
<title>Node10</title>
<g id="a_node10"><a xlink:href="../../d7/d53/classsigslot_1_1has__slots.html" target="_top" xlink:title="sigslot::has_slots\l\&lt; sigslot::multi_threaded\l_local \&gt;">
<polygon fill="none" stroke="#000000" points="510.5,-213.5 510.5,-257.5 654.5,-257.5 654.5,-213.5 510.5,-213.5"/>
<text text-anchor="start" x="518.5" y="-244.5" font-family="FreeSans" font-size="10.00" fill="#000000">sigslot::has_slots</text>
<text text-anchor="start" x="518.5" y="-232.5" font-family="FreeSans" font-size="10.00" fill="#000000">&lt; sigslot::multi_threaded</text>
<text text-anchor="middle" x="582.5" y="-220.5" font-family="FreeSans" font-size="10.00" fill="#000000">_local &gt;</text>
</a>
</g>
</g>
<!-- Node10&#45;&gt;Node3 -->
<g id="edge9" class="edge">
<title>Node10&#45;&gt;Node3</title>
<path fill="none" stroke="#191970" d="M664.9986,-245.4998C710.7454,-251.0449 767.4649,-257.92 813.2515,-263.4699"/>
<polygon fill="#191970" stroke="#191970" points="665.1654,-241.9945 654.8169,-244.2657 664.323,-248.9436 665.1654,-241.9945"/>
</g>
<!-- Node11 -->
<g id="node11" class="node">
<title>Node11</title>
<g id="a_node11"><a xlink:href="../../d5/d63/classsigslot_1_1multi__threaded__local.html" target="_top" xlink:title="sigslot::multi_threaded\l_local">
<polygon fill="none" stroke="#000000" points="260,-230.5 260,-262.5 392,-262.5 392,-230.5 260,-230.5"/>
<text text-anchor="start" x="268" y="-249.5" font-family="FreeSans" font-size="10.00" fill="#000000">sigslot::multi_threaded</text>
<text text-anchor="middle" x="326" y="-237.5" font-family="FreeSans" font-size="10.00" fill="#000000">_local</text>
</a>
</g>
</g>
<!-- Node11&#45;&gt;Node10 -->
<g id="edge10" class="edge">
<title>Node11&#45;&gt;Node10</title>
<path fill="none" stroke="#191970" d="M402.4581,-243.2211C436.6329,-241.7555 476.7048,-240.037 510.3572,-238.5938"/>
<polygon fill="#191970" stroke="#191970" points="401.8959,-239.7419 392.0551,-243.6672 402.1959,-246.7355 401.8959,-239.7419"/>
</g>
<!-- Node12 -->
<g id="node12" class="node">
<title>Node12</title>
<polygon fill="none" stroke="#bfbfbf" points="254,-167.5 254,-211.5 398,-211.5 398,-167.5 254,-167.5"/>
<text text-anchor="start" x="262" y="-198.5" font-family="FreeSans" font-size="10.00" fill="#000000">std::set&lt; _signal_base</text>
<text text-anchor="start" x="262" y="-186.5" font-family="FreeSans" font-size="10.00" fill="#000000">&lt; sigslot::multi_threaded</text>
<text text-anchor="middle" x="326" y="-174.5" font-family="FreeSans" font-size="10.00" fill="#000000">_local &gt; * &gt;</text>
</g>
<!-- Node12&#45;&gt;Node10 -->
<g id="edge11" class="edge">
<title>Node12&#45;&gt;Node10</title>
<path fill="none" stroke="#9a32cd" stroke-dasharray="5,2" d="M408.1819,-204.2383C441.0841,-210.1389 478.6515,-216.8761 510.4653,-222.5815"/>
<polygon fill="#9a32cd" stroke="#9a32cd" points="408.593,-200.7562 398.1321,-202.436 407.3573,-207.6463 408.593,-200.7562"/>
<text text-anchor="middle" x="454.5" y="-219.5" font-family="FreeSans" font-size="10.00" fill="#000000"> m_senders</text>
</g>
<!-- Node13 -->
<g id="node13" class="node">
<title>Node13</title>
<g id="a_node13"><a xlink:href="../../d4/d67/classshared__ptr.html" target="_top" xlink:title="shared_ptr\&lt; std::mt19937 \&gt;">
<polygon fill="none" stroke="#000000" points="502,-174.5 502,-194.5 663,-194.5 663,-174.5 502,-174.5"/>
<text text-anchor="middle" x="582.5" y="-181.5" font-family="FreeSans" font-size="10.00" fill="#000000">shared_ptr&lt; std::mt19937 &gt;</text>
</a>
</g>
</g>
<!-- Node13&#45;&gt;Node3 -->
<g id="edge13" class="edge">
<title>Node13&#45;&gt;Node3</title>
<path fill="none" stroke="#9a32cd" stroke-dasharray="5,2" d="M673.2995,-191.2097C712.2065,-197.4093 756.7134,-209.1938 792,-231.5 802.9721,-238.4359 799.0167,-247.5819 810,-254.5 815.6927,-258.0857 821.9691,-261.0001 828.4603,-263.368"/>
<polygon fill="#9a32cd" stroke="#9a32cd" points="673.4203,-187.6892 663.0138,-189.6779 672.3892,-194.6128 673.4203,-187.6892"/>
<text text-anchor="middle" x="736.5" y="-234.5" font-family="FreeSans" font-size="10.00" fill="#000000"> mt19937_generator_</text>
</g>
<!-- Node14 -->
<g id="node14" class="node">
<title>Node14</title>
<g id="a_node14"><a xlink:href="../../d3/db1/classJetscape_1_1PreEquilibriumParameterFile.html" target="_top" xlink:title="Jetscape::PreEquilibrium\lParameterFile">
<polygon fill="none" stroke="#000000" points="826,-212.5 826,-244.5 966,-244.5 966,-212.5 826,-212.5"/>
<text text-anchor="start" x="834" y="-231.5" font-family="FreeSans" font-size="10.00" fill="#000000">Jetscape::PreEquilibrium</text>
<text text-anchor="middle" x="896" y="-219.5" font-family="FreeSans" font-size="10.00" fill="#000000">ParameterFile</text>
</a>
</g>
</g>
<!-- Node14&#45;&gt;Node2 -->
<g id="edge14" class="edge">
<title>Node14&#45;&gt;Node2</title>
<path fill="none" stroke="#9a32cd" stroke-dasharray="5,2" d="M976.3155,-219.7861C1009.396,-216.006 1048.0805,-211.3397 1083,-206.5 1098.8533,-204.3028 1115.8583,-201.7221 1131.911,-199.1833"/>
<polygon fill="#9a32cd" stroke="#9a32cd" points="975.7808,-216.3243 966.2394,-220.93 976.5705,-223.2796 975.7808,-216.3243"/>
<text text-anchor="middle" x="1041.5" y="-219.5" font-family="FreeSans" font-size="10.00" fill="#000000"> parameter_list_</text>
</g>
<!-- Node15 -->
<g id="node15" class="node">
<title>Node15</title>
<polygon fill="none" stroke="#bfbfbf" points="832,-51.5 832,-71.5 960,-71.5 960,-51.5 832,-51.5"/>
<text text-anchor="middle" x="896" y="-58.5" font-family="FreeSans" font-size="10.00" fill="#000000">std::vector&lt; double &gt;</text>
</g>
<!-- Node15&#45;&gt;Node2 -->
<g id="edge15" class="edge">
<title>Node15&#45;&gt;Node2</title>
<path fill="none" stroke="#9a32cd" stroke-dasharray="5,2" d="M970.601,-51.2061C1014.8437,-46.8128 1065.5919,-45.3125 1083,-58.5 1106.5528,-76.3424 1083.4356,-98.7391 1101,-122.5 1116.9899,-144.1309 1142.511,-160.4668 1163.8975,-171.3515"/>
<polygon fill="#9a32cd" stroke="#9a32cd" points="969.9781,-47.7522 960.3994,-52.2798 970.7109,-54.7138 969.9781,-47.7522"/>
<text text-anchor="middle" x="1041.5" y="-193.5" font-family="FreeSans" font-size="10.00" fill="#000000"> pi33_</text>
<text text-anchor="middle" x="1041.5" y="-181.5" font-family="FreeSans" font-size="10.00" fill="#000000">pi22_</text>
<text text-anchor="middle" x="1041.5" y="-169.5" font-family="FreeSans" font-size="10.00" fill="#000000">pi11_</text>
<text text-anchor="middle" x="1041.5" y="-157.5" font-family="FreeSans" font-size="10.00" fill="#000000">pi00_</text>
<text text-anchor="middle" x="1041.5" y="-145.5" font-family="FreeSans" font-size="10.00" fill="#000000">uy_</text>
<text text-anchor="middle" x="1041.5" y="-133.5" font-family="FreeSans" font-size="10.00" fill="#000000">ux_</text>
<text text-anchor="middle" x="1041.5" y="-121.5" font-family="FreeSans" font-size="10.00" fill="#000000">utau_</text>
<text text-anchor="middle" x="1041.5" y="-109.5" font-family="FreeSans" font-size="10.00" fill="#000000">ueta_</text>
<text text-anchor="middle" x="1041.5" y="-97.5" font-family="FreeSans" font-size="10.00" fill="#000000">e_</text>
<text text-anchor="start" x="1024" y="-85.5" font-family="FreeSans" font-size="10.00" fill="#000000">bulk_Pi</text>
<text text-anchor="middle" x="1041.5" y="-73.5" font-family="FreeSans" font-size="10.00" fill="#000000">_</text>
<text text-anchor="middle" x="1041.5" y="-61.5" font-family="FreeSans" font-size="10.00" fill="#000000">...</text>
</g>
<!-- Node16 -->
<g id="node16" class="node">
<title>Node16</title>
<g id="a_node16"><a xlink:href="../../da/dcf/classJetscape_1_1RegisterJetScapeModule.html" target="_top" xlink:title="Jetscape::RegisterJetScape\lModule\&lt; FreestreamMilneWrapper \&gt;">
<polygon fill="none" stroke="#000000" points="1101,-80.5 1101,-112.5 1303,-112.5 1303,-80.5 1101,-80.5"/>
<text text-anchor="start" x="1109" y="-99.5" font-family="FreeSans" font-size="10.00" fill="#000000">Jetscape::RegisterJetScape</text>
<text text-anchor="middle" x="1202" y="-87.5" font-family="FreeSans" font-size="10.00" fill="#000000">Module&lt; FreestreamMilneWrapper &gt;</text>
</a>
</g>
</g>
<!-- Node16&#45;&gt;Node1 -->
<g id="edge16" class="edge">
<title>Node16&#45;&gt;Node1</title>
<path fill="none" stroke="#9a32cd" stroke-dasharray="5,2" d="M1313.2851,-108.649C1328.8054,-110.3434 1344.4046,-112.0464 1358.9407,-113.6333"/>
<polygon fill="#9a32cd" stroke="#9a32cd" points="1313.4301,-105.1442 1303.1093,-107.5381 1312.6704,-112.1028 1313.4301,-105.1442"/>
<text text-anchor="middle" x="1331" y="-113.5" font-family="FreeSans" font-size="10.00" fill="#000000"> reg</text>
</g>
<!-- Node17 -->
<g id="node17" class="node">
<title>Node17</title>
<g id="a_node17"><a xlink:href="../../da/ddb/classJetscape_1_1JetScapeModuleFactory.html" target="_top" xlink:title="Jetscape::JetScapeModule\lFactory">
<polygon fill="none" stroke="#000000" points="822.5,-.5 822.5,-32.5 969.5,-32.5 969.5,-.5 822.5,-.5"/>
<text text-anchor="start" x="830.5" y="-19.5" font-family="FreeSans" font-size="10.00" fill="#000000">Jetscape::JetScapeModule</text>
<text text-anchor="middle" x="896" y="-7.5" font-family="FreeSans" font-size="10.00" fill="#000000">Factory</text>
</a>
</g>
</g>
<!-- Node17&#45;&gt;Node16 -->
<g id="edge17" class="edge">
<title>Node17&#45;&gt;Node16</title>
<path fill="none" stroke="#191970" d="M979.9069,-20.9916C1012.5646,-24.2437 1049.9963,-29.8472 1083,-39.5 1116.1994,-49.21 1151.6359,-67.2965 1175.1197,-80.4995"/>
<polygon fill="#191970" stroke="#191970" points="980.2185,-17.5055 969.9352,-20.0559 979.5645,-24.4749 980.2185,-17.5055"/>
</g>
</g>
</svg>
