<?xml version="1.0" encoding="UTF-8" standalone="no"?>
<!DOCTYPE svg PUBLIC "-//W3C//DTD SVG 1.1//EN"
 "http://www.w3.org/Graphics/SVG/1.1/DTD/svg11.dtd">
<!-- Generated by graphviz version 2.40.1 (20161225.0304)
 -->
<!-- Title: Acts::Geant4MaterialConverter::surfaceMaterial Pages: 1 -->
<svg width="802pt" height="131pt"
 viewBox="0.00 0.00 802.00 131.00" xmlns="http://www.w3.org/2000/svg" xmlns:xlink="http://www.w3.org/1999/xlink">
<g id="graph0" class="graph" transform="scale(1 1) rotate(0) translate(4 127)">
<title>Acts::Geant4MaterialConverter::surfaceMaterial</title>
<!-- Node1 -->
<g id="node1" class="node">
<title>Node1</title>
<polygon fill="#bfbfbf" stroke="#000000" points="0,-55.5 0,-87.5 174,-87.5 174,-55.5 0,-55.5"/>
<text text-anchor="start" x="8" y="-74.5" font-family="FreeSans" font-size="10.00" fill="#000000">Acts::Geant4MaterialConverter</text>
<text text-anchor="middle" x="87" y="-62.5" font-family="FreeSans" font-size="10.00" fill="#000000">::surfaceMaterial</text>
</g>
<!-- Node2 -->
<g id="node2" class="node">
<title>Node2</title>
<g id="a_node2"><a xlink:href="../../d5/d0f/structActs_1_1Geant4PhysicalVolumeConverter.html#a0aafd9c852829f551ab87d43bb2149a7" target="_top" xlink:title="Convert a Geant4 phsyical volume to a surface.">
<polygon fill="none" stroke="#000000" points="210,-55.5 210,-87.5 371,-87.5 371,-55.5 210,-55.5"/>
<text text-anchor="start" x="218" y="-74.5" font-family="FreeSans" font-size="10.00" fill="#000000">Acts::Geant4PhysicalVolume</text>
<text text-anchor="middle" x="290.5" y="-62.5" font-family="FreeSans" font-size="10.00" fill="#000000">Converter::surface</text>
</a>
</g>
</g>
<!-- Node1&#45;&gt;Node2 -->
<g id="edge1" class="edge">
<title>Node1&#45;&gt;Node2</title>
<path fill="none" stroke="#191970" d="M184.2496,-71.5C192.85,-71.5 201.4934,-71.5 209.9333,-71.5"/>
<polygon fill="#191970" stroke="#191970" points="184.1879,-68.0001 174.1879,-71.5 184.1879,-75.0001 184.1879,-68.0001"/>
</g>
<!-- Node3 -->
<g id="node3" class="node">
<title>Node3</title>
<g id="a_node3"><a xlink:href="../../da/d98/Geant4ConvertersTests_8cpp.html#ace7602bf70b02f61024e530d6609c10c" target="_top" xlink:title="BOOST_AUTO_TEST_CASE">
<polygon fill="none" stroke="#000000" points="416,-84.5 416,-104.5 563,-104.5 563,-84.5 416,-84.5"/>
<text text-anchor="middle" x="489.5" y="-91.5" font-family="FreeSans" font-size="10.00" fill="#000000">BOOST_AUTO_TEST_CASE</text>
</a>
</g>
</g>
<!-- Node2&#45;&gt;Node3 -->
<g id="edge2" class="edge">
<title>Node2&#45;&gt;Node3</title>
<path fill="none" stroke="#191970" d="M381.259,-81.9897C392.8222,-83.3262 404.5441,-84.681 415.7935,-85.9812"/>
<polygon fill="#191970" stroke="#191970" points="381.4898,-78.4932 371.154,-80.8218 380.686,-85.4469 381.4898,-78.4932"/>
</g>
<!-- Node4 -->
<g id="node4" class="node">
<title>Node4</title>
<g id="a_node4"><a xlink:href="../../d1/d8e/classActs_1_1Geant4DetectorSurfaceFactory.html#a93343bae09e35a2b340266e1f93dd37e" target="_top" xlink:title="Acts::Geant4DetectorSurface\lFactory::construct">
<polygon fill="none" stroke="#000000" points="407,-33.5 407,-65.5 572,-65.5 572,-33.5 407,-33.5"/>
<text text-anchor="start" x="415" y="-52.5" font-family="FreeSans" font-size="10.00" fill="#000000">Acts::Geant4DetectorSurface</text>
<text text-anchor="middle" x="489.5" y="-40.5" font-family="FreeSans" font-size="10.00" fill="#000000">Factory::construct</text>
</a>
</g>
</g>
<!-- Node2&#45;&gt;Node4 -->
<g id="edge3" class="edge">
<title>Node2&#45;&gt;Node4</title>
<path fill="none" stroke="#191970" d="M381.1336,-61.4802C389.6822,-60.5351 398.3188,-59.5803 406.7883,-58.644"/>
<polygon fill="#191970" stroke="#191970" points="380.7089,-58.0057 371.154,-62.5835 381.4781,-64.9634 380.7089,-58.0057"/>
</g>
<!-- Node5 -->
<g id="node5" class="node">
<title>Node5</title>
<g id="a_node5"><a xlink:href="../../d5/dd0/structActsExamples_1_1Geant4_1_1Geant4Detector.html#a8e08e880455307c502591620624215dc" target="_top" xlink:title="Convert Geant4VPhysicalVolume objects into Acts components.">
<polygon fill="none" stroke="#000000" points="608,-78.5 608,-122.5 794,-122.5 794,-78.5 608,-78.5"/>
<text text-anchor="start" x="616" y="-109.5" font-family="FreeSans" font-size="10.00" fill="#000000">ActsExamples::Geant4</text>
<text text-anchor="start" x="616" y="-97.5" font-family="FreeSans" font-size="10.00" fill="#000000">::Geant4Detector::convertGeant4</text>
<text text-anchor="middle" x="701" y="-85.5" font-family="FreeSans" font-size="10.00" fill="#000000">Volumes</text>
</a>
</g>
</g>
<!-- Node4&#45;&gt;Node5 -->
<g id="edge4" class="edge">
<title>Node4&#45;&gt;Node5</title>
<path fill="none" stroke="#191970" d="M566.2251,-68.0011C580.2916,-71.393 595.1007,-74.964 609.5471,-78.4475"/>
<polygon fill="#191970" stroke="#191970" points="566.6715,-64.5085 556.1296,-65.5667 565.0305,-71.3134 566.6715,-64.5085"/>
</g>
<!-- Node6 -->
<g id="node6" class="node">
<title>Node6</title>
<g id="a_node6"><a xlink:href="../../d0/d9f/Geant4Component_8cpp.html#a1d5f130a2b204bbd756c04533924e08f" target="_top" xlink:title="PYBIND11_MODULE">
<polygon fill="none" stroke="#000000" points="643.5,-39.5 643.5,-59.5 758.5,-59.5 758.5,-39.5 643.5,-39.5"/>
<text text-anchor="middle" x="701" y="-46.5" font-family="FreeSans" font-size="10.00" fill="#000000">PYBIND11_MODULE</text>
</a>
</g>
</g>
<!-- Node4&#45;&gt;Node6 -->
<g id="edge5" class="edge">
<title>Node4&#45;&gt;Node6</title>
<path fill="none" stroke="#191970" d="M582.2827,-49.5C603.0013,-49.5 624.394,-49.5 643.2149,-49.5"/>
<polygon fill="#191970" stroke="#191970" points="582.1801,-46.0001 572.1801,-49.5 582.1801,-53.0001 582.1801,-46.0001"/>
</g>
<!-- Node7 -->
<g id="node7" class="node">
<title>Node7</title>
<g id="a_node7"><a xlink:href="../../db/def/Geant4DetectorSurfaceFactoryTests_8cpp.html#ae731ef44c6fd46a767c8dd2f8d91b83e" target="_top" xlink:title="BOOST_AUTO_TEST_CASE">
<polygon fill="none" stroke="#000000" points="627.5,-.5 627.5,-20.5 774.5,-20.5 774.5,-.5 627.5,-.5"/>
<text text-anchor="middle" x="701" y="-7.5" font-family="FreeSans" font-size="10.00" fill="#000000">BOOST_AUTO_TEST_CASE</text>
</a>
</g>
</g>
<!-- Node4&#45;&gt;Node7 -->
<g id="edge6" class="edge">
<title>Node4&#45;&gt;Node7</title>
<path fill="none" stroke="#191970" d="M582.2331,-32.4003C604.2607,-28.3385 627.0534,-24.1356 646.7095,-20.511"/>
<polygon fill="#191970" stroke="#191970" points="581.3796,-28.9986 572.1801,-34.254 582.649,-35.8825 581.3796,-28.9986"/>
</g>
</g>
</svg>
