<?xml version="1.0" encoding="UTF-8" standalone="no"?>
<!DOCTYPE svg PUBLIC "-//W3C//DTD SVG 1.1//EN"
 "http://www.w3.org/Graphics/SVG/1.1/DTD/svg11.dtd">
<!-- Generated by graphviz version 2.40.1 (20161225.0304)
 -->
<!-- Title: acts/blob/sPHENIX/Examples/Algorithms/GeneratorsPythia8/ActsExamples/Options Pages: 1 -->
<svg width="225pt" height="296pt"
 viewBox="0.00 0.00 225.34 296.00" xmlns="http://www.w3.org/2000/svg" xmlns:xlink="http://www.w3.org/1999/xlink">
<g id="graph0" class="graph" transform="scale(1 1) rotate(0) translate(4 292)">
<title>acts/blob/sPHENIX/Examples/Algorithms/GeneratorsPythia8/ActsExamples/Options</title>
<g id="clust1" class="cluster">
<title>clusterdir_951356e925c6b43b0ee41d3a85fdb6f4</title>
<g id="a_clust1"><a xlink:href="dir_951356e925c6b43b0ee41d3a85fdb6f4.html" target="_top" xlink:title="ActsExamples">
<polygon fill="#ddddee" stroke="#000000" points="89.5,-208 89.5,-280 177.5,-280 177.5,-208 89.5,-208"/>
<text text-anchor="middle" x="133.5" y="-267" font-family="FreeSans" font-size="10.00" fill="#000000">ActsExamples</text>
</a>
</g>
</g>
<!-- dir_e36acc31a3313f63a879ac0b03d9db2f -->
<g id="node1" class="node">
<title>dir_e36acc31a3313f63a879ac0b03d9db2f</title>
<g id="a_node1"><a xlink:href="dir_e36acc31a3313f63a879ac0b03d9db2f.html" target="_top" xlink:title="Options">
<polygon fill="#eeeeff" stroke="#000000" points="161,-252 106,-252 106,-216 161,-216 161,-252"/>
<text text-anchor="middle" x="133.5" y="-231" font-family="FreeSans" font-size="10.00" fill="#000000">Options</text>
</a>
</g>
</g>
<!-- dir_69bea03f3bab32117709e458625ad252 -->
<g id="node2" class="node">
<title>dir_69bea03f3bab32117709e458625ad252</title>
<g id="a_node2"><a xlink:href="dir_69bea03f3bab32117709e458625ad252.html" target="_top" xlink:title="Generators">
<polygon fill="none" stroke="#ff0000" points="73,-180 0,-180 0,-144 73,-144 73,-180"/>
<text text-anchor="middle" x="36.5" y="-159" font-family="FreeSans" font-size="10.00" fill="#000000">Generators</text>
</a>
</g>
</g>
<!-- dir_e36acc31a3313f63a879ac0b03d9db2f&#45;&gt;dir_69bea03f3bab32117709e458625ad252 -->
<g id="edge1" class="edge">
<title>dir_e36acc31a3313f63a879ac0b03d9db2f&#45;&gt;dir_69bea03f3bab32117709e458625ad252</title>
<path fill="none" stroke="#000000" d="M109.0228,-215.8314C96.9605,-206.8779 82.246,-195.9558 69.2314,-186.2955"/>
<polygon fill="#000000" stroke="#000000" points="71.0852,-183.3127 60.9694,-180.1628 66.913,-188.9335 71.0852,-183.3127"/>
<g id="a_edge1&#45;headlabel"><a xlink:href="dir_000106_000099.html" target="_top" xlink:title="3">
<text text-anchor="middle" x="75.6638" y="-180.1752" font-family="FreeSans" font-size="10.00" fill="#000000">3</text>
</a>
</g>
</g>
<!-- dir_02d0bb57bec04f245f516a6a854a0b8c -->
<g id="node3" class="node">
<title>dir_02d0bb57bec04f245f516a6a854a0b8c</title>
<g id="a_node3"><a xlink:href="dir_02d0bb57bec04f245f516a6a854a0b8c.html" target="_top" xlink:title="Generators">
<polygon fill="none" stroke="#000000" points="203,-180 130,-180 130,-144 203,-144 203,-180"/>
<text text-anchor="middle" x="166.5" y="-159" font-family="FreeSans" font-size="10.00" fill="#000000">Generators</text>
</a>
</g>
</g>
<!-- dir_e36acc31a3313f63a879ac0b03d9db2f&#45;&gt;dir_02d0bb57bec04f245f516a6a854a0b8c -->
<g id="edge2" class="edge">
<title>dir_e36acc31a3313f63a879ac0b03d9db2f&#45;&gt;dir_02d0bb57bec04f245f516a6a854a0b8c</title>
<path fill="none" stroke="#000000" d="M141.8273,-215.8314C145.473,-207.8771 149.8309,-198.369 153.8627,-189.5723"/>
<polygon fill="#000000" stroke="#000000" points="157.0757,-190.9622 158.0606,-180.4133 150.7123,-188.0456 157.0757,-190.9622"/>
<g id="a_edge2&#45;headlabel"><a xlink:href="dir_000106_000105.html" target="_top" xlink:title="1">
<text text-anchor="middle" x="158.1591" y="-192.4129" font-family="FreeSans" font-size="10.00" fill="#000000">1</text>
</a>
</g>
</g>
<!-- dir_51e7d6847640e5d2f01a85c1304ba077 -->
<g id="node4" class="node">
<title>dir_51e7d6847640e5d2f01a85c1304ba077</title>
<g id="a_node4"><a xlink:href="dir_51e7d6847640e5d2f01a85c1304ba077.html" target="_top" xlink:title="Core">
<polygon fill="none" stroke="#ff0000" points="160.5,-36 106.5,-36 106.5,0 160.5,0 160.5,-36"/>
<text text-anchor="middle" x="133.5" y="-15" font-family="FreeSans" font-size="10.00" fill="#000000">Core</text>
</a>
</g>
</g>
<!-- dir_e36acc31a3313f63a879ac0b03d9db2f&#45;&gt;dir_51e7d6847640e5d2f01a85c1304ba077 -->
<g id="edge3" class="edge">
<title>dir_e36acc31a3313f63a879ac0b03d9db2f&#45;&gt;dir_51e7d6847640e5d2f01a85c1304ba077</title>
<path fill="none" stroke="#000000" d="M161.1668,-223.2695C179.3577,-214.5877 201.7219,-200.4228 212.5,-180 219.9678,-165.8497 216.9219,-159.3768 212.5,-144 201.5213,-105.8221 175.2031,-68.0218 155.9497,-43.9356"/>
<polygon fill="#000000" stroke="#000000" points="158.5096,-41.5371 149.4708,-36.0098 153.09,-45.9674 158.5096,-41.5371"/>
<g id="a_edge3&#45;headlabel"><a xlink:href="dir_000106_000017.html" target="_top" xlink:title="2">
<text text-anchor="middle" x="162.9829" y="-39.5232" font-family="FreeSans" font-size="10.00" fill="#000000">2</text>
</a>
</g>
</g>
<!-- dir_fbf8c6e7b5bd3b26eef9d77cf5a939f4 -->
<g id="node5" class="node">
<title>dir_fbf8c6e7b5bd3b26eef9d77cf5a939f4</title>
<g id="a_node5"><a xlink:href="dir_fbf8c6e7b5bd3b26eef9d77cf5a939f4.html" target="_top" xlink:title="Framework">
<polygon fill="none" stroke="#ff0000" points="137.5,-108 65.5,-108 65.5,-72 137.5,-72 137.5,-108"/>
<text text-anchor="middle" x="101.5" y="-87" font-family="FreeSans" font-size="10.00" fill="#000000">Framework</text>
</a>
</g>
</g>
<!-- dir_e36acc31a3313f63a879ac0b03d9db2f&#45;&gt;dir_fbf8c6e7b5bd3b26eef9d77cf5a939f4 -->
<g id="edge4" class="edge">
<title>dir_e36acc31a3313f63a879ac0b03d9db2f&#45;&gt;dir_fbf8c6e7b5bd3b26eef9d77cf5a939f4</title>
<path fill="none" stroke="#000000" d="M128.9186,-215.5357C126.368,-205.118 123.177,-191.8514 120.5,-180 115.8671,-159.4895 110.9736,-136.2685 107.3132,-118.5512"/>
<polygon fill="#000000" stroke="#000000" points="110.6487,-117.3948 105.2067,-108.3044 103.7921,-118.8044 110.6487,-117.3948"/>
<g id="a_edge4&#45;headlabel"><a xlink:href="dir_000106_000053.html" target="_top" xlink:title="1">
<text text-anchor="middle" x="114.1536" y="-117.3441" font-family="FreeSans" font-size="10.00" fill="#000000">1</text>
</a>
</g>
</g>
<!-- dir_69bea03f3bab32117709e458625ad252&#45;&gt;dir_51e7d6847640e5d2f01a85c1304ba077 -->
<g id="edge5" class="edge">
<title>dir_69bea03f3bab32117709e458625ad252&#45;&gt;dir_51e7d6847640e5d2f01a85c1304ba077</title>
<path fill="none" stroke="#000000" d="M36.743,-143.941C37.8117,-124.6248 41.9187,-93.8278 56.5,-72 66.6396,-56.8213 82.608,-44.6014 97.3805,-35.6508"/>
<polygon fill="#000000" stroke="#000000" points="99.4259,-38.5126 106.3612,-30.503 95.9448,-32.4395 99.4259,-38.5126"/>
<g id="a_edge5&#45;headlabel"><a xlink:href="dir_000099_000017.html" target="_top" xlink:title="7">
<text text-anchor="middle" x="97.7193" y="-39.7634" font-family="FreeSans" font-size="10.00" fill="#000000">7</text>
</a>
</g>
</g>
<!-- dir_69bea03f3bab32117709e458625ad252&#45;&gt;dir_fbf8c6e7b5bd3b26eef9d77cf5a939f4 -->
<g id="edge6" class="edge">
<title>dir_69bea03f3bab32117709e458625ad252&#45;&gt;dir_fbf8c6e7b5bd3b26eef9d77cf5a939f4</title>
<path fill="none" stroke="#000000" d="M52.9022,-143.8314C60.5415,-135.3694 69.7683,-125.1489 78.1207,-115.8971"/>
<polygon fill="#000000" stroke="#000000" points="80.7738,-118.1813 84.8769,-108.4133 75.5779,-113.4906 80.7738,-118.1813"/>
<g id="a_edge6&#45;headlabel"><a xlink:href="dir_000099_000053.html" target="_top" xlink:title="9">
<text text-anchor="middle" x="80.4726" y="-119.7521" font-family="FreeSans" font-size="10.00" fill="#000000">9</text>
</a>
</g>
</g>
<!-- dir_02d0bb57bec04f245f516a6a854a0b8c&#45;&gt;dir_51e7d6847640e5d2f01a85c1304ba077 -->
<g id="edge7" class="edge">
<title>dir_02d0bb57bec04f245f516a6a854a0b8c&#45;&gt;dir_51e7d6847640e5d2f01a85c1304ba077</title>
<path fill="none" stroke="#000000" d="M162.5336,-143.7072C158.5642,-125.5076 152.2389,-96.7943 146.5,-72 144.5736,-63.6771 142.4235,-54.6475 140.4354,-46.3972"/>
<polygon fill="#000000" stroke="#000000" points="143.7881,-45.3707 138.0327,-36.4754 136.9847,-47.0183 143.7881,-45.3707"/>
<g id="a_edge7&#45;headlabel"><a xlink:href="dir_000105_000017.html" target="_top" xlink:title="3">
<text text-anchor="middle" x="147.3936" y="-45.1961" font-family="FreeSans" font-size="10.00" fill="#000000">3</text>
</a>
</g>
</g>
<!-- dir_02d0bb57bec04f245f516a6a854a0b8c&#45;&gt;dir_fbf8c6e7b5bd3b26eef9d77cf5a939f4 -->
<g id="edge8" class="edge">
<title>dir_02d0bb57bec04f245f516a6a854a0b8c&#45;&gt;dir_fbf8c6e7b5bd3b26eef9d77cf5a939f4</title>
<path fill="none" stroke="#000000" d="M150.0978,-143.8314C142.4585,-135.3694 133.2317,-125.1489 124.8793,-115.8971"/>
<polygon fill="#000000" stroke="#000000" points="127.4221,-113.4906 118.1231,-108.4133 122.2262,-118.1813 127.4221,-113.4906"/>
<g id="a_edge8&#45;headlabel"><a xlink:href="dir_000105_000053.html" target="_top" xlink:title="2">
<text text-anchor="middle" x="131.9383" y="-111.2561" font-family="FreeSans" font-size="10.00" fill="#000000">2</text>
</a>
</g>
</g>
<!-- dir_fbf8c6e7b5bd3b26eef9d77cf5a939f4&#45;&gt;dir_51e7d6847640e5d2f01a85c1304ba077 -->
<g id="edge9" class="edge">
<title>dir_fbf8c6e7b5bd3b26eef9d77cf5a939f4&#45;&gt;dir_51e7d6847640e5d2f01a85c1304ba077</title>
<path fill="none" stroke="#000000" d="M109.575,-71.8314C113.1102,-63.8771 117.336,-54.369 121.2456,-45.5723"/>
<polygon fill="#000000" stroke="#000000" points="124.4532,-46.9729 125.3163,-36.4133 118.0565,-44.1299 124.4532,-46.9729"/>
<g id="a_edge9&#45;headlabel"><a xlink:href="dir_000053_000017.html" target="_top" xlink:title="39">
<text text-anchor="middle" x="125.5879" y="-48.4108" font-family="FreeSans" font-size="10.00" fill="#000000">39</text>
</a>
</g>
</g>
</g>
</svg>
