<?xml version="1.0" encoding="UTF-8" standalone="no"?>
<!DOCTYPE svg PUBLIC "-//W3C//DTD SVG 1.1//EN"
 "http://www.w3.org/Graphics/SVG/1.1/DTD/svg11.dtd">
<!-- Generated by graphviz version 2.40.1 (20161225.0304)
 -->
<!-- Title: acts/blob/sPHENIX/Examples/Io Pages: 1 -->
<svg width="638pt" height="330pt"
 viewBox="0.00 0.00 637.50 329.72" xmlns="http://www.w3.org/2000/svg" xmlns:xlink="http://www.w3.org/1999/xlink">
<g id="graph0" class="graph" transform="scale(1 1) rotate(0) translate(4 325.7155)">
<title>acts/blob/sPHENIX/Examples/Io</title>
<g id="clust1" class="cluster">
<title>clusterdir_742c7ae788829ef2853b4e284ec0f7b2</title>
<g id="a_clust1"><a xlink:href="dir_742c7ae788829ef2853b4e284ec0f7b2.html" target="_top" xlink:title="Examples">
<polygon fill="#ddddee" stroke="#000000" points="8,-200 8,-288 556,-288 556,-200 8,-200"/>
<text text-anchor="middle" x="282" y="-275" font-family="FreeSans" font-size="10.00" fill="#000000">Examples</text>
</a>
</g>
</g>
<g id="clust2" class="cluster">
<title>clusterdir_09c76a59a2004713f9a5d4b271150905</title>
<g id="a_clust2"><a xlink:href="dir_09c76a59a2004713f9a5d4b271150905.html" target="_top">
<polygon fill="#eeeeff" stroke="#000000" points="16,-208 16,-260 548,-260 548,-208 16,-208"/>
</a>
</g>
</g>
<!-- dir_09c76a59a2004713f9a5d4b271150905 -->
<g id="node1" class="node">
<title>dir_09c76a59a2004713f9a5d4b271150905</title>
<text text-anchor="middle" x="513" y="-231" font-family="FreeSans" font-size="10.00" fill="#000000">Io</text>
</g>
<!-- dir_b0e29b7d42d861d18e77de1e30b0df45 -->
<g id="node2" class="node">
<title>dir_b0e29b7d42d861d18e77de1e30b0df45</title>
<g id="a_node2"><a xlink:href="dir_b0e29b7d42d861d18e77de1e30b0df45.html" target="_top" xlink:title="Csv">
<polygon fill="#ffffff" stroke="#ff0000" points="468,-252 414,-252 414,-216 468,-216 468,-252"/>
<text text-anchor="middle" x="441" y="-231" font-family="FreeSans" font-size="10.00" fill="#000000">Csv</text>
</a>
</g>
</g>
<!-- dir_51e7d6847640e5d2f01a85c1304ba077 -->
<g id="node10" class="node">
<title>dir_51e7d6847640e5d2f01a85c1304ba077</title>
<g id="a_node10"><a xlink:href="dir_51e7d6847640e5d2f01a85c1304ba077.html" target="_top" xlink:title="Core">
<polygon fill="none" stroke="#ff0000" points="313,-36 259,-36 259,0 313,0 313,-36"/>
<text text-anchor="middle" x="286" y="-15" font-family="FreeSans" font-size="10.00" fill="#000000">Core</text>
</a>
</g>
</g>
<!-- dir_b0e29b7d42d861d18e77de1e30b0df45&#45;&gt;dir_51e7d6847640e5d2f01a85c1304ba077 -->
<g id="edge7" class="edge">
<title>dir_b0e29b7d42d861d18e77de1e30b0df45&#45;&gt;dir_51e7d6847640e5d2f01a85c1304ba077</title>
<path fill="none" stroke="#000000" d="M460.125,-215.8344C469.7419,-205.932 481.0175,-193.0559 489,-180 514.8663,-137.694 547.8152,-110.8495 517,-72 493.2177,-42.017 382.2287,-27.1082 323.1806,-21.1885"/>
<polygon fill="#000000" stroke="#000000" points="323.4268,-17.6961 313.1365,-20.2181 322.7535,-24.6636 323.4268,-17.6961"/>
<g id="a_edge7&#45;headlabel"><a xlink:href="dir_000184_000017.html" target="_top" xlink:title="13">
<text text-anchor="middle" x="327.2777" y="-12.2155" font-family="FreeSans" font-size="10.00" fill="#000000">13</text>
</a>
</g>
</g>
<!-- dir_a1545c5e57bd32ecf937e6f21d42f7f2 -->
<g id="node11" class="node">
<title>dir_a1545c5e57bd32ecf937e6f21d42f7f2</title>
<g id="a_node11"><a xlink:href="dir_a1545c5e57bd32ecf937e6f21d42f7f2.html" target="_top" xlink:title="Plugins">
<polygon fill="none" stroke="#ff0000" points="464,-180 410,-180 410,-144 464,-144 464,-180"/>
<text text-anchor="middle" x="437" y="-159" font-family="FreeSans" font-size="10.00" fill="#000000">Plugins</text>
</a>
</g>
</g>
<!-- dir_b0e29b7d42d861d18e77de1e30b0df45&#45;&gt;dir_a1545c5e57bd32ecf937e6f21d42f7f2 -->
<g id="edge8" class="edge">
<title>dir_b0e29b7d42d861d18e77de1e30b0df45&#45;&gt;dir_a1545c5e57bd32ecf937e6f21d42f7f2</title>
<path fill="none" stroke="#000000" d="M439.9906,-215.8314C439.5628,-208.131 439.0541,-198.9743 438.5787,-190.4166"/>
<polygon fill="#000000" stroke="#000000" points="442.0724,-190.2037 438.023,-180.4133 435.0831,-190.592 442.0724,-190.2037"/>
<g id="a_edge8&#45;headlabel"><a xlink:href="dir_000184_000030.html" target="_top" xlink:title="7">
<text text-anchor="middle" x="445.1066" y="-190.6353" font-family="FreeSans" font-size="10.00" fill="#000000">7</text>
</a>
</g>
</g>
<!-- dir_b9a7fce4d4e1ab3c93adb932cfd05bfe -->
<g id="node12" class="node">
<title>dir_b9a7fce4d4e1ab3c93adb932cfd05bfe</title>
<g id="a_node12"><a xlink:href="dir_b9a7fce4d4e1ab3c93adb932cfd05bfe.html" target="_top" xlink:title="thirdparty">
<polygon fill="none" stroke="#ff0000" points="508,-108 442,-108 442,-72 508,-72 508,-108"/>
<text text-anchor="middle" x="475" y="-87" font-family="FreeSans" font-size="10.00" fill="#000000">thirdparty</text>
</a>
</g>
</g>
<!-- dir_b0e29b7d42d861d18e77de1e30b0df45&#45;&gt;dir_b9a7fce4d4e1ab3c93adb932cfd05bfe -->
<g id="edge9" class="edge">
<title>dir_b0e29b7d42d861d18e77de1e30b0df45&#45;&gt;dir_b9a7fce4d4e1ab3c93adb932cfd05bfe</title>
<path fill="none" stroke="#000000" d="M455.119,-215.6095C461.905,-205.6455 469.3439,-192.7823 473,-180 478.7216,-159.9963 479.0333,-136.4594 478.0145,-118.4733"/>
<polygon fill="#000000" stroke="#000000" points="481.4929,-118.0499 477.2683,-108.3338 474.5117,-118.5638 481.4929,-118.0499"/>
<g id="a_edge9&#45;headlabel"><a xlink:href="dir_000184_000364.html" target="_top" xlink:title="7">
<text text-anchor="middle" x="484.5882" y="-118.4265" font-family="FreeSans" font-size="10.00" fill="#000000">7</text>
</a>
</g>
</g>
<!-- dir_fbf8c6e7b5bd3b26eef9d77cf5a939f4 -->
<g id="node13" class="node">
<title>dir_fbf8c6e7b5bd3b26eef9d77cf5a939f4</title>
<g id="a_node13"><a xlink:href="dir_fbf8c6e7b5bd3b26eef9d77cf5a939f4.html" target="_top" xlink:title="Framework">
<polygon fill="none" stroke="#ff0000" points="354,-180 282,-180 282,-144 354,-144 354,-180"/>
<text text-anchor="middle" x="318" y="-159" font-family="FreeSans" font-size="10.00" fill="#000000">Framework</text>
</a>
</g>
</g>
<!-- dir_b0e29b7d42d861d18e77de1e30b0df45&#45;&gt;dir_fbf8c6e7b5bd3b26eef9d77cf5a939f4 -->
<g id="edge10" class="edge">
<title>dir_b0e29b7d42d861d18e77de1e30b0df45&#45;&gt;dir_fbf8c6e7b5bd3b26eef9d77cf5a939f4</title>
<path fill="none" stroke="#000000" d="M424.0942,-215.7412C418.3844,-210.2259 411.7403,-204.4578 405,-200 392.2664,-191.5785 377.358,-184.2764 363.5155,-178.3862"/>
<polygon fill="#000000" stroke="#000000" points="364.7223,-175.0982 354.1423,-174.5375 362.0634,-181.5736 364.7223,-175.0982"/>
<g id="a_edge10&#45;headlabel"><a xlink:href="dir_000184_000053.html" target="_top" xlink:title="28">
<text text-anchor="middle" x="369.126" y="-170.8371" font-family="FreeSans" font-size="10.00" fill="#000000">28</text>
</a>
</g>
</g>
<!-- dir_3be4e3d684173ca8a6ac0adfb34b1943 -->
<g id="node3" class="node">
<title>dir_3be4e3d684173ca8a6ac0adfb34b1943</title>
<g id="a_node3"><a xlink:href="dir_3be4e3d684173ca8a6ac0adfb34b1943.html" target="_top" xlink:title="HepMC3">
<polygon fill="#ffffff" stroke="#ff0000" points="180,-252 122,-252 122,-216 180,-216 180,-252"/>
<text text-anchor="middle" x="151" y="-231" font-family="FreeSans" font-size="10.00" fill="#000000">HepMC3</text>
</a>
</g>
</g>
<!-- dir_3be4e3d684173ca8a6ac0adfb34b1943&#45;&gt;dir_51e7d6847640e5d2f01a85c1304ba077 -->
<g id="edge5" class="edge">
<title>dir_3be4e3d684173ca8a6ac0adfb34b1943&#45;&gt;dir_51e7d6847640e5d2f01a85c1304ba077</title>
<path fill="none" stroke="#000000" d="M140.2672,-215.7554C122.8703,-183.5329 93.4788,-115.8194 125,-72 139.6632,-51.616 206.0975,-34.4499 248.913,-25.2447"/>
<polygon fill="#000000" stroke="#000000" points="249.6486,-28.6667 258.7162,-23.1867 248.2104,-21.816 249.6486,-28.6667"/>
<g id="a_edge5&#45;headlabel"><a xlink:href="dir_000190_000017.html" target="_top" xlink:title="1">
<text text-anchor="middle" x="246.714" y="-29.1838" font-family="FreeSans" font-size="10.00" fill="#000000">1</text>
</a>
</g>
</g>
<!-- dir_3be4e3d684173ca8a6ac0adfb34b1943&#45;&gt;dir_fbf8c6e7b5bd3b26eef9d77cf5a939f4 -->
<g id="edge6" class="edge">
<title>dir_3be4e3d684173ca8a6ac0adfb34b1943&#45;&gt;dir_fbf8c6e7b5bd3b26eef9d77cf5a939f4</title>
<path fill="none" stroke="#000000" d="M167.8963,-215.9569C174.0758,-210.1933 181.4209,-204.2214 189,-200 214.7495,-185.6581 246.4734,-176.2203 272.0176,-170.3375"/>
<polygon fill="#000000" stroke="#000000" points="272.8195,-173.7448 281.835,-168.1795 271.3167,-166.908 272.8195,-173.7448"/>
<g id="a_edge6&#45;headlabel"><a xlink:href="dir_000190_000053.html" target="_top" xlink:title="6">
<text text-anchor="middle" x="269.9182" y="-174.2895" font-family="FreeSans" font-size="10.00" fill="#000000">6</text>
</a>
</g>
</g>
<!-- dir_c394adab9e86ae2c0fbab81dd6ddc7b9 -->
<g id="node4" class="node">
<title>dir_c394adab9e86ae2c0fbab81dd6ddc7b9</title>
<g id="a_node4"><a xlink:href="dir_c394adab9e86ae2c0fbab81dd6ddc7b9.html" target="_top" xlink:title="Json">
<polygon fill="#ffffff" stroke="#ff0000" points="396,-252 342,-252 342,-216 396,-216 396,-252"/>
<text text-anchor="middle" x="369" y="-231" font-family="FreeSans" font-size="10.00" fill="#000000">Json</text>
</a>
</g>
</g>
<!-- dir_c394adab9e86ae2c0fbab81dd6ddc7b9&#45;&gt;dir_51e7d6847640e5d2f01a85c1304ba077 -->
<g id="edge15" class="edge">
<title>dir_c394adab9e86ae2c0fbab81dd6ddc7b9&#45;&gt;dir_51e7d6847640e5d2f01a85c1304ba077</title>
<path fill="none" stroke="#000000" d="M370.2877,-215.9439C371.0379,-197.4311 370.6325,-168.029 363,-144 351.059,-106.407 325.6577,-68.4885 307.289,-44.2149"/>
<polygon fill="#000000" stroke="#000000" points="309.9997,-41.9985 301.1187,-36.221 304.4584,-46.2757 309.9997,-41.9985"/>
<g id="a_edge15&#45;headlabel"><a xlink:href="dir_000196_000017.html" target="_top" xlink:title="7">
<text text-anchor="middle" x="314.4436" y="-40.1092" font-family="FreeSans" font-size="10.00" fill="#000000">7</text>
</a>
</g>
</g>
<!-- dir_c394adab9e86ae2c0fbab81dd6ddc7b9&#45;&gt;dir_a1545c5e57bd32ecf937e6f21d42f7f2 -->
<g id="edge16" class="edge">
<title>dir_c394adab9e86ae2c0fbab81dd6ddc7b9&#45;&gt;dir_a1545c5e57bd32ecf937e6f21d42f7f2</title>
<path fill="none" stroke="#000000" d="M386.1593,-215.8314C394.1511,-207.3694 403.8038,-197.1489 412.5416,-187.8971"/>
<polygon fill="#000000" stroke="#000000" points="415.288,-190.0866 419.6097,-180.4133 410.1989,-185.2802 415.288,-190.0866"/>
<g id="a_edge16&#45;headlabel"><a xlink:href="dir_000196_000030.html" target="_top" xlink:title="1">
<text text-anchor="middle" x="414.884" y="-191.6494" font-family="FreeSans" font-size="10.00" fill="#000000">1</text>
</a>
</g>
</g>
<!-- dir_c394adab9e86ae2c0fbab81dd6ddc7b9&#45;&gt;dir_fbf8c6e7b5bd3b26eef9d77cf5a939f4 -->
<g id="edge17" class="edge">
<title>dir_c394adab9e86ae2c0fbab81dd6ddc7b9&#45;&gt;dir_fbf8c6e7b5bd3b26eef9d77cf5a939f4</title>
<path fill="none" stroke="#000000" d="M356.1305,-215.8314C350.3165,-207.6232 343.3304,-197.7606 336.9354,-188.7323"/>
<polygon fill="#000000" stroke="#000000" points="339.679,-186.5505 331.0427,-180.4133 333.9669,-190.5966 339.679,-186.5505"/>
<g id="a_edge17&#45;headlabel"><a xlink:href="dir_000196_000053.html" target="_top" xlink:title="3">
<text text-anchor="middle" x="344.0737" y="-184.8426" font-family="FreeSans" font-size="10.00" fill="#000000">3</text>
</a>
</g>
</g>
<!-- dir_a52a7629876fc09a77e157a656514259 -->
<g id="node5" class="node">
<title>dir_a52a7629876fc09a77e157a656514259</title>
<g id="a_node5"><a xlink:href="dir_a52a7629876fc09a77e157a656514259.html" target="_top" xlink:title="Obj">
<polygon fill="#ffffff" stroke="#ff0000" points="252,-252 198,-252 198,-216 252,-216 252,-252"/>
<text text-anchor="middle" x="225" y="-231" font-family="FreeSans" font-size="10.00" fill="#000000">Obj</text>
</a>
</g>
</g>
<!-- dir_a52a7629876fc09a77e157a656514259&#45;&gt;dir_51e7d6847640e5d2f01a85c1304ba077 -->
<g id="edge23" class="edge">
<title>dir_a52a7629876fc09a77e157a656514259&#45;&gt;dir_51e7d6847640e5d2f01a85c1304ba077</title>
<path fill="none" stroke="#000000" d="M228.6901,-215.8098C234.9937,-185.6131 248.743,-123.3726 265,-72 267.7484,-63.3149 271.1804,-54.0167 274.4682,-45.6262"/>
<polygon fill="#000000" stroke="#000000" points="277.7408,-46.8689 278.2122,-36.2846 271.2432,-44.2648 277.7408,-46.8689"/>
<g id="a_edge23&#45;headlabel"><a xlink:href="dir_000202_000017.html" target="_top" xlink:title="9">
<text text-anchor="middle" x="279.0391" y="-48.2618" font-family="FreeSans" font-size="10.00" fill="#000000">9</text>
</a>
</g>
</g>
<!-- dir_a52a7629876fc09a77e157a656514259&#45;&gt;dir_fbf8c6e7b5bd3b26eef9d77cf5a939f4 -->
<g id="edge24" class="edge">
<title>dir_a52a7629876fc09a77e157a656514259&#45;&gt;dir_fbf8c6e7b5bd3b26eef9d77cf5a939f4</title>
<path fill="none" stroke="#000000" d="M243.1449,-215.7312C248.7007,-210.4523 254.9471,-204.8193 261,-200 267.1496,-195.1037 273.9232,-190.2027 280.5887,-185.6258"/>
<polygon fill="#000000" stroke="#000000" points="282.572,-188.51 288.9188,-180.0265 278.6669,-182.7004 282.572,-188.51"/>
<g id="a_edge24&#45;headlabel"><a xlink:href="dir_000202_000053.html" target="_top" xlink:title="8">
<text text-anchor="middle" x="281.1726" y="-189.8716" font-family="FreeSans" font-size="10.00" fill="#000000">8</text>
</a>
</g>
</g>
<!-- dir_83d2f8d342ed2c6956690045b3ba4a90 -->
<g id="node6" class="node">
<title>dir_83d2f8d342ed2c6956690045b3ba4a90</title>
<g id="a_node6"><a xlink:href="dir_83d2f8d342ed2c6956690045b3ba4a90.html" target="_top" xlink:title="Performance">
<polygon fill="#ffffff" stroke="#ff0000" points="104,-252 24,-252 24,-216 104,-216 104,-252"/>
<text text-anchor="middle" x="64" y="-231" font-family="FreeSans" font-size="10.00" fill="#000000">Performance</text>
</a>
</g>
</g>
<!-- dir_87db5fe741535d8b0ded0ca53168a86c -->
<g id="node8" class="node">
<title>dir_87db5fe741535d8b0ded0ca53168a86c</title>
<g id="a_node8"><a xlink:href="dir_87db5fe741535d8b0ded0ca53168a86c.html" target="_top" xlink:title="Fatras">
<polygon fill="none" stroke="#ff0000" points="188,-108 134,-108 134,-72 188,-72 188,-108"/>
<text text-anchor="middle" x="161" y="-87" font-family="FreeSans" font-size="10.00" fill="#000000">Fatras</text>
</a>
</g>
</g>
<!-- dir_83d2f8d342ed2c6956690045b3ba4a90&#45;&gt;dir_87db5fe741535d8b0ded0ca53168a86c -->
<g id="edge18" class="edge">
<title>dir_83d2f8d342ed2c6956690045b3ba4a90&#45;&gt;dir_87db5fe741535d8b0ded0ca53168a86c</title>
<path fill="none" stroke="#000000" d="M76.2851,-215.7623C93.1943,-190.66 123.7482,-145.3017 143.1715,-116.4671"/>
<polygon fill="#000000" stroke="#000000" points="146.1306,-118.3389 148.8146,-108.0896 140.3249,-114.4281 146.1306,-118.3389"/>
<g id="a_edge18&#45;headlabel"><a xlink:href="dir_000208_000251.html" target="_top" xlink:title="1">
<text text-anchor="middle" x="146.4773" y="-119.9064" font-family="FreeSans" font-size="10.00" fill="#000000">1</text>
</a>
</g>
</g>
<!-- dir_83d2f8d342ed2c6956690045b3ba4a90&#45;&gt;dir_51e7d6847640e5d2f01a85c1304ba077 -->
<g id="edge19" class="edge">
<title>dir_83d2f8d342ed2c6956690045b3ba4a90&#45;&gt;dir_51e7d6847640e5d2f01a85c1304ba077</title>
<path fill="none" stroke="#000000" d="M63.4364,-215.9594C63.4186,-182.8367 68.2633,-112.0584 107,-72 126.6666,-51.6623 202.5449,-33.984 248.9646,-24.7731"/>
<polygon fill="#000000" stroke="#000000" points="249.8059,-28.1751 258.9542,-22.831 248.47,-21.3038 249.8059,-28.1751"/>
<g id="a_edge19&#45;headlabel"><a xlink:href="dir_000208_000017.html" target="_top" xlink:title="7">
<text text-anchor="middle" x="246.8192" y="-28.6481" font-family="FreeSans" font-size="10.00" fill="#000000">7</text>
</a>
</g>
</g>
<!-- dir_83d2f8d342ed2c6956690045b3ba4a90&#45;&gt;dir_fbf8c6e7b5bd3b26eef9d77cf5a939f4 -->
<g id="edge20" class="edge">
<title>dir_83d2f8d342ed2c6956690045b3ba4a90&#45;&gt;dir_fbf8c6e7b5bd3b26eef9d77cf5a939f4</title>
<path fill="none" stroke="#000000" d="M85.764,-215.949C93.8754,-210.0433 103.4428,-203.9839 113,-200 164.8535,-178.385 229.1819,-169.0117 271.8001,-164.9814"/>
<polygon fill="#000000" stroke="#000000" points="272.2275,-168.4573 281.8801,-164.0895 271.6105,-161.4846 272.2275,-168.4573"/>
<g id="a_edge20&#45;headlabel"><a xlink:href="dir_000208_000053.html" target="_top" xlink:title="22">
<text text-anchor="middle" x="268.8971" y="-168.6022" font-family="FreeSans" font-size="10.00" fill="#000000">22</text>
</a>
</g>
</g>
<!-- dir_5d422285bcdee675762293fec2afb972 -->
<g id="node7" class="node">
<title>dir_5d422285bcdee675762293fec2afb972</title>
<g id="a_node7"><a xlink:href="dir_5d422285bcdee675762293fec2afb972.html" target="_top" xlink:title="Root">
<polygon fill="#ffffff" stroke="#ff0000" points="324,-252 270,-252 270,-216 324,-216 324,-252"/>
<text text-anchor="middle" x="297" y="-231" font-family="FreeSans" font-size="10.00" fill="#000000">Root</text>
</a>
</g>
</g>
<!-- dir_2c04f47d8e5bbc31c4995cd524777b69 -->
<g id="node9" class="node">
<title>dir_2c04f47d8e5bbc31c4995cd524777b69</title>
<g id="a_node9"><a xlink:href="dir_2c04f47d8e5bbc31c4995cd524777b69.html" target="_top" xlink:title="Detectors">
<polygon fill="none" stroke="#ff0000" points="629.5,-252 564.5,-252 564.5,-216 629.5,-216 629.5,-252"/>
<text text-anchor="middle" x="597" y="-231" font-family="FreeSans" font-size="10.00" fill="#000000">Detectors</text>
</a>
</g>
</g>
<!-- dir_5d422285bcdee675762293fec2afb972&#45;&gt;dir_2c04f47d8e5bbc31c4995cd524777b69 -->
<g id="edge1" class="edge">
<title>dir_5d422285bcdee675762293fec2afb972&#45;&gt;dir_2c04f47d8e5bbc31c4995cd524777b69</title>
<path fill="none" stroke="#000000" d="M302.6567,-252.2839C309.1062,-269.6154 321.5005,-294.6382 342,-306 381.0674,-327.653 503.0489,-325.9755 543,-306 561.6921,-296.6539 575.5926,-277.4203 584.606,-261.1819"/>
<polygon fill="#000000" stroke="#000000" points="587.8387,-262.5514 589.3475,-252.0645 581.6283,-259.3217 587.8387,-262.5514"/>
<g id="a_edge1&#45;headlabel"><a xlink:href="dir_000212_000132.html" target="_top" xlink:title="1">
<text text-anchor="middle" x="588.6993" y="-264.0505" font-family="FreeSans" font-size="10.00" fill="#000000">1</text>
</a>
</g>
</g>
<!-- dir_5d422285bcdee675762293fec2afb972&#45;&gt;dir_51e7d6847640e5d2f01a85c1304ba077 -->
<g id="edge2" class="edge">
<title>dir_5d422285bcdee675762293fec2afb972&#45;&gt;dir_51e7d6847640e5d2f01a85c1304ba077</title>
<path fill="none" stroke="#000000" d="M286.5441,-215.6605C281.3542,-205.5026 275.6409,-192.4443 273,-180 263.2119,-133.8765 271.742,-78.9394 278.846,-46.3488"/>
<polygon fill="#000000" stroke="#000000" points="282.3499,-46.7272 281.1719,-36.1981 275.5267,-45.1637 282.3499,-46.7272"/>
<g id="a_edge2&#45;headlabel"><a xlink:href="dir_000212_000017.html" target="_top" xlink:title="56">
<text text-anchor="middle" x="284.3146" y="-47.8652" font-family="FreeSans" font-size="10.00" fill="#000000">56</text>
</a>
</g>
</g>
<!-- dir_5d422285bcdee675762293fec2afb972&#45;&gt;dir_a1545c5e57bd32ecf937e6f21d42f7f2 -->
<g id="edge3" class="edge">
<title>dir_5d422285bcdee675762293fec2afb972&#45;&gt;dir_a1545c5e57bd32ecf937e6f21d42f7f2</title>
<path fill="none" stroke="#000000" d="M313.3824,-215.8424C319.162,-210.2048 325.9796,-204.3388 333,-200 353.6573,-187.2331 379.2524,-177.8129 399.8816,-171.5453"/>
<polygon fill="#000000" stroke="#000000" points="400.9462,-174.8807 409.5664,-168.7208 398.9864,-168.1606 400.9462,-174.8807"/>
<g id="a_edge3&#45;headlabel"><a xlink:href="dir_000212_000030.html" target="_top" xlink:title="5">
<text text-anchor="middle" x="398.2903" y="-175.6127" font-family="FreeSans" font-size="10.00" fill="#000000">5</text>
</a>
</g>
</g>
<!-- dir_5d422285bcdee675762293fec2afb972&#45;&gt;dir_fbf8c6e7b5bd3b26eef9d77cf5a939f4 -->
<g id="edge4" class="edge">
<title>dir_5d422285bcdee675762293fec2afb972&#45;&gt;dir_fbf8c6e7b5bd3b26eef9d77cf5a939f4</title>
<path fill="none" stroke="#000000" d="M302.2992,-215.8314C304.5698,-208.0463 307.2746,-198.7729 309.794,-190.1347"/>
<polygon fill="#000000" stroke="#000000" points="313.1894,-190.9933 312.6295,-180.4133 306.4694,-189.0332 313.1894,-190.9933"/>
<g id="a_edge4&#45;headlabel"><a xlink:href="dir_000212_000053.html" target="_top" xlink:title="30">
<text text-anchor="middle" x="314.9087" y="-192.2391" font-family="FreeSans" font-size="10.00" fill="#000000">30</text>
</a>
</g>
</g>
<!-- dir_87db5fe741535d8b0ded0ca53168a86c&#45;&gt;dir_51e7d6847640e5d2f01a85c1304ba077 -->
<g id="edge11" class="edge">
<title>dir_87db5fe741535d8b0ded0ca53168a86c&#45;&gt;dir_51e7d6847640e5d2f01a85c1304ba077</title>
<path fill="none" stroke="#000000" d="M188.1231,-74.3771C206.3052,-63.9042 230.4431,-50.0007 250.1985,-38.6216"/>
<polygon fill="#000000" stroke="#000000" points="252.0114,-41.6166 258.9298,-33.5924 248.5175,-35.5508 252.0114,-41.6166"/>
<g id="a_edge11&#45;headlabel"><a xlink:href="dir_000251_000017.html" target="_top" xlink:title="42">
<text text-anchor="middle" x="250.3137" y="-42.871" font-family="FreeSans" font-size="10.00" fill="#000000">42</text>
</a>
</g>
</g>
<!-- dir_2c04f47d8e5bbc31c4995cd524777b69&#45;&gt;dir_51e7d6847640e5d2f01a85c1304ba077 -->
<g id="edge12" class="edge">
<title>dir_2c04f47d8e5bbc31c4995cd524777b69&#45;&gt;dir_51e7d6847640e5d2f01a85c1304ba077</title>
<path fill="none" stroke="#000000" d="M595.7849,-215.7581C592.5098,-181.98 580.5196,-109.71 537,-72 505.3947,-44.6138 385.2674,-28.3625 323.3695,-21.6364"/>
<polygon fill="#000000" stroke="#000000" points="323.5527,-18.1363 313.2399,-20.5644 322.816,-25.0974 323.5527,-18.1363"/>
<g id="a_edge12&#45;headlabel"><a xlink:href="dir_000132_000017.html" target="_top" xlink:title="140">
<text text-anchor="middle" x="327.4262" y="-12.691" font-family="FreeSans" font-size="10.00" fill="#000000">140</text>
</a>
</g>
</g>
<!-- dir_2c04f47d8e5bbc31c4995cd524777b69&#45;&gt;dir_a1545c5e57bd32ecf937e6f21d42f7f2 -->
<g id="edge13" class="edge">
<title>dir_2c04f47d8e5bbc31c4995cd524777b69&#45;&gt;dir_a1545c5e57bd32ecf937e6f21d42f7f2</title>
<path fill="none" stroke="#000000" d="M575.9934,-215.8748C568.7335,-210.2394 560.3243,-204.3665 552,-200 527.1828,-186.9822 497.0364,-177.2194 473.8362,-170.8507"/>
<polygon fill="#000000" stroke="#000000" points="474.5961,-167.4313 464.0327,-168.2468 472.7991,-174.1967 474.5961,-167.4313"/>
<g id="a_edge13&#45;headlabel"><a xlink:href="dir_000132_000030.html" target="_top" xlink:title="44">
<text text-anchor="middle" x="478.7991" y="-162.6098" font-family="FreeSans" font-size="10.00" fill="#000000">44</text>
</a>
</g>
</g>
<!-- dir_2c04f47d8e5bbc31c4995cd524777b69&#45;&gt;dir_fbf8c6e7b5bd3b26eef9d77cf5a939f4 -->
<g id="edge14" class="edge">
<title>dir_2c04f47d8e5bbc31c4995cd524777b69&#45;&gt;dir_fbf8c6e7b5bd3b26eef9d77cf5a939f4</title>
<path fill="none" stroke="#000000" d="M577.3266,-215.6516C569.9069,-209.718 561.0588,-203.717 552,-200 489.3699,-174.302 467.6911,-191.6281 401,-180 388.971,-177.9027 376.0391,-175.2787 364.0471,-172.6882"/>
<polygon fill="#000000" stroke="#000000" points="364.7535,-169.26 354.2354,-170.5324 363.2513,-176.0969 364.7535,-169.26"/>
<g id="a_edge14&#45;headlabel"><a xlink:href="dir_000132_000053.html" target="_top" xlink:title="27">
<text text-anchor="middle" x="368.8736" y="-164.2582" font-family="FreeSans" font-size="10.00" fill="#000000">27</text>
</a>
</g>
</g>
<!-- dir_a1545c5e57bd32ecf937e6f21d42f7f2&#45;&gt;dir_51e7d6847640e5d2f01a85c1304ba077 -->
<g id="edge21" class="edge">
<title>dir_a1545c5e57bd32ecf937e6f21d42f7f2&#45;&gt;dir_51e7d6847640e5d2f01a85c1304ba077</title>
<path fill="none" stroke="#000000" d="M431.2109,-143.7552C424.1633,-123.9919 410.5904,-92.542 390,-72 371.1405,-53.1848 344.3642,-39.4894 322.7044,-30.5988"/>
<polygon fill="#000000" stroke="#000000" points="323.7468,-27.2481 313.1594,-26.851 321.1883,-33.7638 323.7468,-27.2481"/>
<g id="a_edge21&#45;headlabel"><a xlink:href="dir_000030_000017.html" target="_top" xlink:title="181">
<text text-anchor="middle" x="328.1304" y="-22.9189" font-family="FreeSans" font-size="10.00" fill="#000000">181</text>
</a>
</g>
</g>
<!-- dir_a1545c5e57bd32ecf937e6f21d42f7f2&#45;&gt;dir_b9a7fce4d4e1ab3c93adb932cfd05bfe -->
<g id="edge22" class="edge">
<title>dir_a1545c5e57bd32ecf937e6f21d42f7f2&#45;&gt;dir_b9a7fce4d4e1ab3c93adb932cfd05bfe</title>
<path fill="none" stroke="#000000" d="M446.589,-143.8314C450.8317,-135.7925 455.9121,-126.1666 460.596,-117.2918"/>
<polygon fill="#000000" stroke="#000000" points="463.7096,-118.8908 465.2819,-108.4133 457.5189,-115.6235 463.7096,-118.8908"/>
<g id="a_edge22&#45;headlabel"><a xlink:href="dir_000030_000364.html" target="_top" xlink:title="2">
<text text-anchor="middle" x="464.5428" y="-120.395" font-family="FreeSans" font-size="10.00" fill="#000000">2</text>
</a>
</g>
</g>
<!-- dir_fbf8c6e7b5bd3b26eef9d77cf5a939f4&#45;&gt;dir_87db5fe741535d8b0ded0ca53168a86c -->
<g id="edge25" class="edge">
<title>dir_fbf8c6e7b5bd3b26eef9d77cf5a939f4&#45;&gt;dir_87db5fe741535d8b0ded0ca53168a86c</title>
<path fill="none" stroke="#000000" d="M281.981,-145.4817C256.614,-133.8485 222.7777,-118.3312 197.3397,-106.6653"/>
<polygon fill="#000000" stroke="#000000" points="198.5855,-103.3862 188.0367,-102.399 195.6675,-109.749 198.5855,-103.3862"/>
<g id="a_edge25&#45;headlabel"><a xlink:href="dir_000053_000251.html" target="_top" xlink:title="11">
<text text-anchor="middle" x="203.0364" y="-99.3037" font-family="FreeSans" font-size="10.00" fill="#000000">11</text>
</a>
</g>
</g>
<!-- dir_fbf8c6e7b5bd3b26eef9d77cf5a939f4&#45;&gt;dir_51e7d6847640e5d2f01a85c1304ba077 -->
<g id="edge26" class="edge">
<title>dir_fbf8c6e7b5bd3b26eef9d77cf5a939f4&#45;&gt;dir_51e7d6847640e5d2f01a85c1304ba077</title>
<path fill="none" stroke="#000000" d="M313.9472,-143.7623C308.4651,-119.0928 298.6355,-74.8598 292.2162,-45.9731"/>
<polygon fill="#000000" stroke="#000000" points="295.606,-45.0922 290.0199,-36.0896 288.7726,-46.6108 295.606,-45.0922"/>
<g id="a_edge26&#45;headlabel"><a xlink:href="dir_000053_000017.html" target="_top" xlink:title="39">
<text text-anchor="middle" x="299.1573" y="-44.9853" font-family="FreeSans" font-size="10.00" fill="#000000">39</text>
</a>
</g>
</g>
<!-- dir_fbf8c6e7b5bd3b26eef9d77cf5a939f4&#45;&gt;dir_b9a7fce4d4e1ab3c93adb932cfd05bfe -->
<g id="edge27" class="edge">
<title>dir_fbf8c6e7b5bd3b26eef9d77cf5a939f4&#45;&gt;dir_b9a7fce4d4e1ab3c93adb932cfd05bfe</title>
<path fill="none" stroke="#000000" d="M354.019,-145.4817C377.4594,-134.732 408.1314,-120.6658 432.7263,-109.3866"/>
<polygon fill="#000000" stroke="#000000" points="434.1965,-112.563 441.8273,-105.213 431.2785,-106.2002 434.1965,-112.563"/>
<g id="a_edge27&#45;headlabel"><a xlink:href="dir_000053_000364.html" target="_top" xlink:title="2">
<text text-anchor="middle" x="432.1127" y="-113.6422" font-family="FreeSans" font-size="10.00" fill="#000000">2</text>
</a>
</g>
</g>
</g>
</svg>
