<?xml version="1.0" encoding="UTF-8" standalone="no"?>
<!DOCTYPE svg PUBLIC "-//W3C//DTD SVG 1.1//EN"
 "http://www.w3.org/Graphics/SVG/1.1/DTD/svg11.dtd">
<!-- Generated by graphviz version 2.40.1 (20161225.0304)
 -->
<!-- Title: acts/blob/sPHENIX/Plugins/Podio/src Pages: 1 -->
<svg width="175pt" height="224pt"
 viewBox="0.00 0.00 175.38 224.00" xmlns="http://www.w3.org/2000/svg" xmlns:xlink="http://www.w3.org/1999/xlink">
<g id="graph0" class="graph" transform="scale(1 1) rotate(0) translate(4 220)">
<title>acts/blob/sPHENIX/Plugins/Podio/src</title>
<g id="clust1" class="cluster">
<title>clusterdir_61f350671a8fb43d5cc27973c64ae3dd</title>
<g id="a_clust1"><a xlink:href="dir_61f350671a8fb43d5cc27973c64ae3dd.html" target="_top" xlink:title="Podio">
<polygon fill="#ddddee" stroke="#000000" points="78,-136 78,-208 148,-208 148,-136 78,-136"/>
<text text-anchor="middle" x="113" y="-195" font-family="FreeSans" font-size="10.00" fill="#000000">Podio</text>
</a>
</g>
</g>
<!-- dir_e1837dd35d9019353ab8836dc2971dd3 -->
<g id="node1" class="node">
<title>dir_e1837dd35d9019353ab8836dc2971dd3</title>
<g id="a_node1"><a xlink:href="dir_e1837dd35d9019353ab8836dc2971dd3.html" target="_top" xlink:title="src">
<polygon fill="#eeeeff" stroke="#000000" points="140,-180 86,-180 86,-144 140,-144 140,-180"/>
<text text-anchor="middle" x="113" y="-159" font-family="FreeSans" font-size="10.00" fill="#000000">src</text>
</a>
</g>
</g>
<!-- dir_99720d8efedcb6be218f44629f70cef7 -->
<g id="node2" class="node">
<title>dir_99720d8efedcb6be218f44629f70cef7</title>
<g id="a_node2"><a xlink:href="dir_99720d8efedcb6be218f44629f70cef7.html" target="_top" xlink:title="include">
<polygon fill="none" stroke="#ff0000" points="54,-108 0,-108 0,-72 54,-72 54,-108"/>
<text text-anchor="middle" x="27" y="-87" font-family="FreeSans" font-size="10.00" fill="#000000">include</text>
</a>
</g>
</g>
<!-- dir_e1837dd35d9019353ab8836dc2971dd3&#45;&gt;dir_99720d8efedcb6be218f44629f70cef7 -->
<g id="edge3" class="edge">
<title>dir_e1837dd35d9019353ab8836dc2971dd3&#45;&gt;dir_99720d8efedcb6be218f44629f70cef7</title>
<path fill="none" stroke="#000000" d="M91.2986,-143.8314C80.8079,-135.0485 68.0545,-124.3712 56.6806,-114.8489"/>
<polygon fill="#000000" stroke="#000000" points="58.6089,-111.8986 48.6945,-108.1628 54.1153,-117.2659 58.6089,-111.8986"/>
<g id="a_edge3&#45;headlabel"><a xlink:href="dir_000531_000527.html" target="_top" xlink:title="1">
<text text-anchor="middle" x="63.1877" y="-109.029" font-family="FreeSans" font-size="10.00" fill="#000000">1</text>
</a>
</g>
</g>
<!-- dir_2504c4dcf30b61da273f2beef2e2dbff -->
<g id="node3" class="node">
<title>dir_2504c4dcf30b61da273f2beef2e2dbff</title>
<g id="a_node3"><a xlink:href="dir_2504c4dcf30b61da273f2beef2e2dbff.html" target="_top" xlink:title="Identification">
<polygon fill="none" stroke="#ff0000" points="154,-108 72,-108 72,-72 154,-72 154,-108"/>
<text text-anchor="middle" x="113" y="-87" font-family="FreeSans" font-size="10.00" fill="#000000">Identification</text>
</a>
</g>
</g>
<!-- dir_e1837dd35d9019353ab8836dc2971dd3&#45;&gt;dir_2504c4dcf30b61da273f2beef2e2dbff -->
<g id="edge4" class="edge">
<title>dir_e1837dd35d9019353ab8836dc2971dd3&#45;&gt;dir_2504c4dcf30b61da273f2beef2e2dbff</title>
<path fill="none" stroke="#000000" d="M113,-143.8314C113,-136.131 113,-126.9743 113,-118.4166"/>
<polygon fill="#000000" stroke="#000000" points="116.5001,-118.4132 113,-108.4133 109.5001,-118.4133 116.5001,-118.4132"/>
<g id="a_edge4&#45;headlabel"><a xlink:href="dir_000531_000500.html" target="_top" xlink:title="1">
<text text-anchor="middle" x="119.3393" y="-119.0079" font-family="FreeSans" font-size="10.00" fill="#000000">1</text>
</a>
</g>
</g>
<!-- dir_51e7d6847640e5d2f01a85c1304ba077 -->
<g id="node4" class="node">
<title>dir_51e7d6847640e5d2f01a85c1304ba077</title>
<g id="a_node4"><a xlink:href="dir_51e7d6847640e5d2f01a85c1304ba077.html" target="_top" xlink:title="Core">
<polygon fill="none" stroke="#ff0000" points="140,-36 86,-36 86,0 140,0 140,-36"/>
<text text-anchor="middle" x="113" y="-15" font-family="FreeSans" font-size="10.00" fill="#000000">Core</text>
</a>
</g>
</g>
<!-- dir_e1837dd35d9019353ab8836dc2971dd3&#45;&gt;dir_51e7d6847640e5d2f01a85c1304ba077 -->
<g id="edge5" class="edge">
<title>dir_e1837dd35d9019353ab8836dc2971dd3&#45;&gt;dir_51e7d6847640e5d2f01a85c1304ba077</title>
<path fill="none" stroke="#000000" d="M136.3909,-143.838C146.6333,-134.3937 157.5459,-121.9182 163,-108 168.8377,-93.103 168.8377,-86.897 163,-72 158.8242,-61.3439 151.4487,-51.5335 143.6241,-43.2816"/>
<polygon fill="#000000" stroke="#000000" points="145.9729,-40.6825 136.3909,-36.162 141.0625,-45.6713 145.9729,-40.6825"/>
<g id="a_edge5&#45;headlabel"><a xlink:href="dir_000531_000023.html" target="_top" xlink:title="19">
<text text-anchor="middle" x="150.5264" y="-38.1806" font-family="FreeSans" font-size="10.00" fill="#000000">19</text>
</a>
</g>
</g>
<!-- dir_99720d8efedcb6be218f44629f70cef7&#45;&gt;dir_51e7d6847640e5d2f01a85c1304ba077 -->
<g id="edge1" class="edge">
<title>dir_99720d8efedcb6be218f44629f70cef7&#45;&gt;dir_51e7d6847640e5d2f01a85c1304ba077</title>
<path fill="none" stroke="#000000" d="M48.7014,-71.8314C59.1921,-63.0485 71.9455,-52.3712 83.3194,-42.8489"/>
<polygon fill="#000000" stroke="#000000" points="85.8847,-45.2659 91.3055,-36.1628 81.3911,-39.8986 85.8847,-45.2659"/>
<g id="a_edge1&#45;headlabel"><a xlink:href="dir_000527_000023.html" target="_top" xlink:title="14">
<text text-anchor="middle" x="84.9511" y="-46.7504" font-family="FreeSans" font-size="10.00" fill="#000000">14</text>
</a>
</g>
</g>
<!-- dir_2504c4dcf30b61da273f2beef2e2dbff&#45;&gt;dir_51e7d6847640e5d2f01a85c1304ba077 -->
<g id="edge2" class="edge">
<title>dir_2504c4dcf30b61da273f2beef2e2dbff&#45;&gt;dir_51e7d6847640e5d2f01a85c1304ba077</title>
<path fill="none" stroke="#000000" d="M113,-71.8314C113,-64.131 113,-54.9743 113,-46.4166"/>
<polygon fill="#000000" stroke="#000000" points="116.5001,-46.4132 113,-36.4133 109.5001,-46.4133 116.5001,-46.4132"/>
<g id="a_edge2&#45;headlabel"><a xlink:href="dir_000500_000023.html" target="_top" xlink:title="1">
<text text-anchor="middle" x="119.3393" y="-47.0079" font-family="FreeSans" font-size="10.00" fill="#000000">1</text>
</a>
</g>
</g>
</g>
</svg>
