<?xml version="1.0" encoding="UTF-8" standalone="no"?>
<!DOCTYPE svg PUBLIC "-//W3C//DTD SVG 1.1//EN"
 "http://www.w3.org/Graphics/SVG/1.1/DTD/svg11.dtd">
<!-- Generated by graphviz version 2.40.1 (20161225.0304)
 -->
<!-- Title: acts/blob/sPHENIX/Examples/Run/Generators Pages: 1 -->
<svg width="402pt" height="448pt"
 viewBox="0.00 0.00 402.00 448.00" xmlns="http://www.w3.org/2000/svg" xmlns:xlink="http://www.w3.org/1999/xlink">
<g id="graph0" class="graph" transform="scale(1 1) rotate(0) translate(4 444)">
<title>acts/blob/sPHENIX/Examples/Run/Generators</title>
<g id="clust1" class="cluster">
<title>clusterdir_f3d7135eca7bdbb6571f776eb7ad0333</title>
<g id="a_clust1"><a xlink:href="dir_f3d7135eca7bdbb6571f776eb7ad0333.html" target="_top" xlink:title="Run">
<polygon fill="#ddddee" stroke="#000000" points="86,-344 86,-432 264,-432 264,-344 86,-344"/>
<text text-anchor="middle" x="175" y="-419" font-family="FreeSans" font-size="10.00" fill="#000000">Run</text>
</a>
</g>
</g>
<g id="clust2" class="cluster">
<title>clusterdir_bf3e1823896a4bb497a1d221b2cb43e3</title>
<g id="a_clust2"><a xlink:href="dir_bf3e1823896a4bb497a1d221b2cb43e3.html" target="_top">
<polygon fill="#eeeeff" stroke="#000000" points="94,-352 94,-404 256,-404 256,-352 94,-352"/>
</a>
</g>
</g>
<!-- dir_bf3e1823896a4bb497a1d221b2cb43e3 -->
<g id="node1" class="node">
<title>dir_bf3e1823896a4bb497a1d221b2cb43e3</title>
<text text-anchor="middle" x="139" y="-375" font-family="FreeSans" font-size="10.00" fill="#000000">Generators</text>
</g>
<!-- dir_86f01ceda0d553732048b9364264813f -->
<g id="node3" class="node">
<title>dir_86f01ceda0d553732048b9364264813f</title>
<g id="a_node3"><a xlink:href="dir_86f01ceda0d553732048b9364264813f.html" target="_top" xlink:title="Common">
<polygon fill="none" stroke="#ff0000" points="259.5,-324 198.5,-324 198.5,-288 259.5,-288 259.5,-324"/>
<text text-anchor="middle" x="229" y="-303" font-family="FreeSans" font-size="10.00" fill="#000000">Common</text>
</a>
</g>
</g>
<!-- dir_bf3e1823896a4bb497a1d221b2cb43e3&#45;&gt;dir_86f01ceda0d553732048b9364264813f -->
<g id="edge5" class="edge">
<title>dir_bf3e1823896a4bb497a1d221b2cb43e3&#45;&gt;dir_86f01ceda0d553732048b9364264813f</title>
<path fill="none" stroke="#000000" d="M161.7108,-359.8314C172.796,-350.9632 186.2954,-340.1637 198.2852,-330.5718"/>
<polygon fill="#000000" stroke="#000000" points="200.6742,-333.1429 206.2965,-324.1628 196.3013,-327.6768 200.6742,-333.1429"/>
<g id="a_edge5&#45;headlabel"><a xlink:href="dir_000354_000092.html" target="_top" xlink:title="3">
<text text-anchor="middle" x="199.641" y="-334.6055" font-family="FreeSans" font-size="10.00" fill="#000000">3</text>
</a>
</g>
</g>
<!-- dir_09c76a59a2004713f9a5d4b271150905 -->
<g id="node4" class="node">
<title>dir_09c76a59a2004713f9a5d4b271150905</title>
<g id="a_node4"><a xlink:href="dir_09c76a59a2004713f9a5d4b271150905.html" target="_top" xlink:title="Io">
<polygon fill="none" stroke="#ff0000" points="176,-252 122,-252 122,-216 176,-216 176,-252"/>
<text text-anchor="middle" x="149" y="-231" font-family="FreeSans" font-size="10.00" fill="#000000">Io</text>
</a>
</g>
</g>
<!-- dir_bf3e1823896a4bb497a1d221b2cb43e3&#45;&gt;dir_09c76a59a2004713f9a5d4b271150905 -->
<g id="edge6" class="edge">
<title>dir_bf3e1823896a4bb497a1d221b2cb43e3&#45;&gt;dir_09c76a59a2004713f9a5d4b271150905</title>
<path fill="none" stroke="#000000" d="M140.2665,-359.7623C141.9721,-335.201 145.0245,-291.2474 147.031,-262.3541"/>
<polygon fill="#000000" stroke="#000000" points="150.5425,-262.3081 147.7438,-252.0896 143.5593,-261.8231 150.5425,-262.3081"/>
<g id="a_edge6&#45;headlabel"><a xlink:href="dir_000354_000271.html" target="_top" xlink:title="4">
<text text-anchor="middle" x="153.126" y="-263.0907" font-family="FreeSans" font-size="10.00" fill="#000000">4</text>
</a>
</g>
</g>
<!-- dir_36b7050c88a6b55ae211e19fc22d63e3 -->
<g id="node5" class="node">
<title>dir_36b7050c88a6b55ae211e19fc22d63e3</title>
<g id="a_node5"><a xlink:href="dir_36b7050c88a6b55ae211e19fc22d63e3.html" target="_top" xlink:title="Algorithms">
<polygon fill="none" stroke="#ff0000" points="214,-180 142,-180 142,-144 214,-144 214,-180"/>
<text text-anchor="middle" x="178" y="-159" font-family="FreeSans" font-size="10.00" fill="#000000">Algorithms</text>
</a>
</g>
</g>
<!-- dir_bf3e1823896a4bb497a1d221b2cb43e3&#45;&gt;dir_36b7050c88a6b55ae211e19fc22d63e3 -->
<g id="edge7" class="edge">
<title>dir_bf3e1823896a4bb497a1d221b2cb43e3&#45;&gt;dir_36b7050c88a6b55ae211e19fc22d63e3</title>
<path fill="none" stroke="#000000" d="M129.5378,-359.7958C114.8046,-328.7782 90.3096,-264.3497 113,-216 118.4591,-204.3676 127.7912,-194.3739 137.7073,-186.2592"/>
<polygon fill="#000000" stroke="#000000" points="139.8846,-189.0005 145.7221,-180.1588 135.645,-183.4304 139.8846,-189.0005"/>
<g id="a_edge7&#45;headlabel"><a xlink:href="dir_000354_000122.html" target="_top" xlink:title="7">
<text text-anchor="middle" x="138.7439" y="-190.4369" font-family="FreeSans" font-size="10.00" fill="#000000">7</text>
</a>
</g>
</g>
<!-- dir_51e7d6847640e5d2f01a85c1304ba077 -->
<g id="node6" class="node">
<title>dir_51e7d6847640e5d2f01a85c1304ba077</title>
<g id="a_node6"><a xlink:href="dir_51e7d6847640e5d2f01a85c1304ba077.html" target="_top" xlink:title="Core">
<polygon fill="none" stroke="#ff0000" points="205,-36 151,-36 151,0 205,0 205,-36"/>
<text text-anchor="middle" x="178" y="-15" font-family="FreeSans" font-size="10.00" fill="#000000">Core</text>
</a>
</g>
</g>
<!-- dir_bf3e1823896a4bb497a1d221b2cb43e3&#45;&gt;dir_51e7d6847640e5d2f01a85c1304ba077 -->
<g id="edge8" class="edge">
<title>dir_bf3e1823896a4bb497a1d221b2cb43e3&#45;&gt;dir_51e7d6847640e5d2f01a85c1304ba077</title>
<path fill="none" stroke="#000000" d="M102.4794,-360.1645C61.2961,-337.1885 0,-293.0698 0,-234 0,-234 0,-234 0,-162 0,-89.9293 89.2904,-47.7132 141.3897,-29.215"/>
<polygon fill="#000000" stroke="#000000" points="142.641,-32.4861 150.9656,-25.9323 140.371,-25.8643 142.641,-32.4861"/>
<g id="a_edge8&#45;headlabel"><a xlink:href="dir_000354_000023.html" target="_top" xlink:title="4">
<text text-anchor="middle" x="140.1613" y="-33.3375" font-family="FreeSans" font-size="10.00" fill="#000000">4</text>
</a>
</g>
</g>
<!-- dir_fbf8c6e7b5bd3b26eef9d77cf5a939f4 -->
<g id="node7" class="node">
<title>dir_fbf8c6e7b5bd3b26eef9d77cf5a939f4</title>
<g id="a_node7"><a xlink:href="dir_fbf8c6e7b5bd3b26eef9d77cf5a939f4.html" target="_top" xlink:title="Framework">
<polygon fill="none" stroke="#ff0000" points="246,-108 174,-108 174,-72 246,-72 246,-108"/>
<text text-anchor="middle" x="210" y="-87" font-family="FreeSans" font-size="10.00" fill="#000000">Framework</text>
</a>
</g>
</g>
<!-- dir_bf3e1823896a4bb497a1d221b2cb43e3&#45;&gt;dir_fbf8c6e7b5bd3b26eef9d77cf5a939f4 -->
<g id="edge9" class="edge">
<title>dir_bf3e1823896a4bb497a1d221b2cb43e3&#45;&gt;dir_fbf8c6e7b5bd3b26eef9d77cf5a939f4</title>
<path fill="none" stroke="#000000" d="M123.1594,-359.8704C115.537,-349.9779 107.1657,-337.0998 103,-324 88.4513,-278.2493 93.6075,-263.4356 101,-216 106.1728,-182.8076 103.4127,-170.5454 124,-144 134.7368,-130.1559 150.097,-118.9228 164.8731,-110.3598"/>
<polygon fill="#000000" stroke="#000000" points="166.8713,-113.2555 173.9514,-105.3736 163.5015,-107.12 166.8713,-113.2555"/>
<g id="a_edge9&#45;headlabel"><a xlink:href="dir_000354_000050.html" target="_top" xlink:title="8">
<text text-anchor="middle" x="165.0875" y="-114.4745" font-family="FreeSans" font-size="10.00" fill="#000000">8</text>
</a>
</g>
</g>
<!-- dir_8af4c8ad58929f02e55f56eaedf8da96 -->
<g id="node2" class="node">
<title>dir_8af4c8ad58929f02e55f56eaedf8da96</title>
<g id="a_node2"><a xlink:href="dir_8af4c8ad58929f02e55f56eaedf8da96.html" target="_top" xlink:title="Pythia8">
<polygon fill="#ffffff" stroke="#ff0000" points="248,-396 194,-396 194,-360 248,-360 248,-396"/>
<text text-anchor="middle" x="221" y="-375" font-family="FreeSans" font-size="10.00" fill="#000000">Pythia8</text>
</a>
</g>
</g>
<!-- dir_8af4c8ad58929f02e55f56eaedf8da96&#45;&gt;dir_86f01ceda0d553732048b9364264813f -->
<g id="edge13" class="edge">
<title>dir_8af4c8ad58929f02e55f56eaedf8da96&#45;&gt;dir_86f01ceda0d553732048b9364264813f</title>
<path fill="none" stroke="#000000" d="M223.0187,-359.8314C223.8743,-352.131 224.8917,-342.9743 225.8426,-334.4166"/>
<polygon fill="#000000" stroke="#000000" points="229.3283,-334.7386 226.9541,-324.4133 222.3711,-333.9656 229.3283,-334.7386"/>
<g id="a_edge13&#45;headlabel"><a xlink:href="dir_000355_000092.html" target="_top" xlink:title="1">
<text text-anchor="middle" x="231.7533" y="-335.6248" font-family="FreeSans" font-size="10.00" fill="#000000">1</text>
</a>
</g>
</g>
<!-- dir_8af4c8ad58929f02e55f56eaedf8da96&#45;&gt;dir_09c76a59a2004713f9a5d4b271150905 -->
<g id="edge14" class="edge">
<title>dir_8af4c8ad58929f02e55f56eaedf8da96&#45;&gt;dir_09c76a59a2004713f9a5d4b271150905</title>
<path fill="none" stroke="#000000" d="M209.4981,-359.806C203.1494,-349.4728 195.299,-336.2007 189,-324 178.4105,-303.489 167.866,-279.5825 160.2638,-261.5656"/>
<polygon fill="#000000" stroke="#000000" points="163.4448,-260.1 156.3615,-252.2211 156.9854,-262.7975 163.4448,-260.1"/>
<g id="a_edge14&#45;headlabel"><a xlink:href="dir_000355_000271.html" target="_top" xlink:title="2">
<text text-anchor="middle" x="167.4499" y="-259.3229" font-family="FreeSans" font-size="10.00" fill="#000000">2</text>
</a>
</g>
</g>
<!-- dir_8af4c8ad58929f02e55f56eaedf8da96&#45;&gt;dir_36b7050c88a6b55ae211e19fc22d63e3 -->
<g id="edge15" class="edge">
<title>dir_8af4c8ad58929f02e55f56eaedf8da96&#45;&gt;dir_36b7050c88a6b55ae211e19fc22d63e3</title>
<path fill="none" stroke="#000000" d="M242.7672,-359.8165C252.4723,-350.2816 262.8597,-337.7355 268,-324 273.6079,-309.015 272.7817,-303.2688 268,-288 255.7294,-248.818 226.0647,-211.5392 204.129,-187.8397"/>
<polygon fill="#000000" stroke="#000000" points="206.4413,-185.1914 197.0225,-180.3399 201.3601,-190.0061 206.4413,-185.1914"/>
<g id="a_edge15&#45;headlabel"><a xlink:href="dir_000355_000122.html" target="_top" xlink:title="6">
<text text-anchor="middle" x="210.9747" y="-182.8477" font-family="FreeSans" font-size="10.00" fill="#000000">6</text>
</a>
</g>
</g>
<!-- dir_8af4c8ad58929f02e55f56eaedf8da96&#45;&gt;dir_51e7d6847640e5d2f01a85c1304ba077 -->
<g id="edge16" class="edge">
<title>dir_8af4c8ad58929f02e55f56eaedf8da96&#45;&gt;dir_51e7d6847640e5d2f01a85c1304ba077</title>
<path fill="none" stroke="#000000" d="M248.0313,-369.5681C296.6875,-352.5148 394,-309.0296 394,-234 394,-234 394,-234 394,-162 394,-77.0416 276.882,-39.1229 215.126,-25.0341"/>
<polygon fill="#000000" stroke="#000000" points="215.8733,-21.6149 205.3565,-22.8986 214.3785,-28.4534 215.8733,-21.6149"/>
<g id="a_edge16&#45;headlabel"><a xlink:href="dir_000355_000023.html" target="_top" xlink:title="3">
<text text-anchor="middle" x="219.9913" y="-16.6086" font-family="FreeSans" font-size="10.00" fill="#000000">3</text>
</a>
</g>
</g>
<!-- dir_8af4c8ad58929f02e55f56eaedf8da96&#45;&gt;dir_fbf8c6e7b5bd3b26eef9d77cf5a939f4 -->
<g id="edge17" class="edge">
<title>dir_8af4c8ad58929f02e55f56eaedf8da96&#45;&gt;dir_fbf8c6e7b5bd3b26eef9d77cf5a939f4</title>
<path fill="none" stroke="#000000" d="M248.2484,-362.131C261.3668,-352.857 275.7859,-339.85 283,-324 289.6281,-309.4374 285.3637,-303.8244 283,-288 273.1137,-221.8133 264.7327,-205.7758 239,-144 235.2138,-134.9104 230.3758,-125.3368 225.7412,-116.8166"/>
<polygon fill="#000000" stroke="#000000" points="228.7818,-115.0829 220.8512,-108.0575 222.6698,-118.4951 228.7818,-115.0829"/>
<g id="a_edge17&#45;headlabel"><a xlink:href="dir_000355_000050.html" target="_top" xlink:title="5">
<text text-anchor="middle" x="233.0131" y="-113.8375" font-family="FreeSans" font-size="10.00" fill="#000000">5</text>
</a>
</g>
</g>
<!-- dir_86f01ceda0d553732048b9364264813f&#45;&gt;dir_09c76a59a2004713f9a5d4b271150905 -->
<g id="edge1" class="edge">
<title>dir_86f01ceda0d553732048b9364264813f&#45;&gt;dir_09c76a59a2004713f9a5d4b271150905</title>
<path fill="none" stroke="#000000" d="M208.8126,-287.8314C199.1486,-279.1337 187.4204,-268.5783 176.9184,-259.1265"/>
<polygon fill="#000000" stroke="#000000" points="178.9553,-256.251 169.1809,-252.1628 174.2725,-261.454 178.9553,-256.251"/>
<g id="a_edge1&#45;headlabel"><a xlink:href="dir_000092_000271.html" target="_top" xlink:title="39">
<text text-anchor="middle" x="183.5265" y="-253.5452" font-family="FreeSans" font-size="10.00" fill="#000000">39</text>
</a>
</g>
</g>
<!-- dir_86f01ceda0d553732048b9364264813f&#45;&gt;dir_36b7050c88a6b55ae211e19fc22d63e3 -->
<g id="edge2" class="edge">
<title>dir_86f01ceda0d553732048b9364264813f&#45;&gt;dir_36b7050c88a6b55ae211e19fc22d63e3</title>
<path fill="none" stroke="#000000" d="M222.5408,-287.7623C213.7654,-262.9846 198.0003,-218.4714 187.7728,-189.5939"/>
<polygon fill="#000000" stroke="#000000" points="191.0445,-188.3474 184.4067,-180.0896 184.4461,-190.6844 191.0445,-188.3474"/>
<g id="a_edge2&#45;headlabel"><a xlink:href="dir_000092_000122.html" target="_top" xlink:title="30">
<text text-anchor="middle" x="194.9208" y="-187.7879" font-family="FreeSans" font-size="10.00" fill="#000000">30</text>
</a>
</g>
</g>
<!-- dir_86f01ceda0d553732048b9364264813f&#45;&gt;dir_51e7d6847640e5d2f01a85c1304ba077 -->
<g id="edge3" class="edge">
<title>dir_86f01ceda0d553732048b9364264813f&#45;&gt;dir_51e7d6847640e5d2f01a85c1304ba077</title>
<path fill="none" stroke="#000000" d="M237.6032,-287.7186C255.634,-246.5528 292.7214,-144.5269 255,-72 246.3088,-55.2894 229.8148,-42.6739 214.3151,-33.8561"/>
<polygon fill="#000000" stroke="#000000" points="215.8433,-30.7046 205.3706,-29.1008 212.5573,-36.8855 215.8433,-30.7046"/>
<g id="a_edge3&#45;headlabel"><a xlink:href="dir_000092_000023.html" target="_top" xlink:title="67">
<text text-anchor="middle" x="220.35" y="-26.885" font-family="FreeSans" font-size="10.00" fill="#000000">67</text>
</a>
</g>
</g>
<!-- dir_86f01ceda0d553732048b9364264813f&#45;&gt;dir_fbf8c6e7b5bd3b26eef9d77cf5a939f4 -->
<g id="edge4" class="edge">
<title>dir_86f01ceda0d553732048b9364264813f&#45;&gt;dir_fbf8c6e7b5bd3b26eef9d77cf5a939f4</title>
<path fill="none" stroke="#000000" d="M229.4989,-287.9192C230.0667,-257.8799 230.1303,-195.8605 223,-144 221.8364,-135.5367 219.9212,-126.4639 217.914,-118.2171"/>
<polygon fill="#000000" stroke="#000000" points="221.25,-117.1357 215.372,-108.3209 214.4701,-118.8773 221.25,-117.1357"/>
<g id="a_edge4&#45;headlabel"><a xlink:href="dir_000092_000050.html" target="_top" xlink:title="60">
<text text-anchor="middle" x="224.8942" y="-116.9109" font-family="FreeSans" font-size="10.00" fill="#000000">60</text>
</a>
</g>
</g>
<!-- dir_09c76a59a2004713f9a5d4b271150905&#45;&gt;dir_36b7050c88a6b55ae211e19fc22d63e3 -->
<g id="edge10" class="edge">
<title>dir_09c76a59a2004713f9a5d4b271150905&#45;&gt;dir_36b7050c88a6b55ae211e19fc22d63e3</title>
<path fill="none" stroke="#000000" d="M150.3655,-215.8314C152.7942,-207.8771 156.4137,-198.369 160.3117,-189.5723"/>
<polygon fill="#000000" stroke="#000000" points="163.5298,-190.9532 164.6075,-180.4133 157.1923,-187.9806 163.5298,-190.9532"/>
<g id="a_edge10&#45;headlabel"><a xlink:href="dir_000271_000122.html" target="_top" xlink:title="10">
<text text-anchor="middle" x="164.574" y="-192.4132" font-family="FreeSans" font-size="10.00" fill="#000000">10</text>
</a>
</g>
</g>
<!-- dir_09c76a59a2004713f9a5d4b271150905&#45;&gt;dir_51e7d6847640e5d2f01a85c1304ba077 -->
<g id="edge11" class="edge">
<title>dir_09c76a59a2004713f9a5d4b271150905&#45;&gt;dir_51e7d6847640e5d2f01a85c1304ba077</title>
<path fill="none" stroke="#000000" d="M138.112,-215.7133C132.7071,-205.5709 126.7555,-192.5105 124,-180 120.5585,-164.3745 120.7829,-159.6732 124,-144 131.3831,-108.0302 149.4815,-69.6499 162.6974,-44.8303"/>
<polygon fill="#000000" stroke="#000000" points="165.7885,-46.4723 167.4909,-36.0151 159.6389,-43.1282 165.7885,-46.4723"/>
<g id="a_edge11&#45;headlabel"><a xlink:href="dir_000271_000023.html" target="_top" xlink:title="413">
<text text-anchor="middle" x="166.5656" y="-47.9866" font-family="FreeSans" font-size="10.00" fill="#000000">413</text>
</a>
</g>
</g>
<!-- dir_09c76a59a2004713f9a5d4b271150905&#45;&gt;dir_fbf8c6e7b5bd3b26eef9d77cf5a939f4 -->
<g id="edge12" class="edge">
<title>dir_09c76a59a2004713f9a5d4b271150905&#45;&gt;dir_fbf8c6e7b5bd3b26eef9d77cf5a939f4</title>
<path fill="none" stroke="#000000" d="M139.3142,-215.7337C130.6954,-196.7909 121.1371,-166.8088 133,-144 140.1008,-130.3473 152.41,-119.428 165.1301,-111.0801"/>
<polygon fill="#000000" stroke="#000000" points="167.225,-113.9022 173.943,-105.7095 163.5823,-107.9246 167.225,-113.9022"/>
<g id="a_edge12&#45;headlabel"><a xlink:href="dir_000271_000050.html" target="_top" xlink:title="390">
<text text-anchor="middle" x="165.633" y="-115.1972" font-family="FreeSans" font-size="10.00" fill="#000000">390</text>
</a>
</g>
</g>
<!-- dir_36b7050c88a6b55ae211e19fc22d63e3&#45;&gt;dir_09c76a59a2004713f9a5d4b271150905 -->
<g id="edge18" class="edge">
<title>dir_36b7050c88a6b55ae211e19fc22d63e3&#45;&gt;dir_09c76a59a2004713f9a5d4b271150905</title>
<path fill="none" stroke="#000000" d="M176.5596,-180.4133C174.1066,-188.3991 170.4722,-197.9155 166.5686,-206.6975"/>
<polygon fill="#000000" stroke="#000000" points="163.3615,-205.2929 162.2703,-215.8314 169.6952,-208.2735 163.3615,-205.2929"/>
<g id="a_edge18&#45;headlabel"><a xlink:href="dir_000122_000271.html" target="_top" xlink:title="1">
<text text-anchor="middle" x="162.323" y="-197.8315" font-family="FreeSans" font-size="10.00" fill="#000000">1</text>
</a>
</g>
</g>
<!-- dir_36b7050c88a6b55ae211e19fc22d63e3&#45;&gt;dir_51e7d6847640e5d2f01a85c1304ba077 -->
<g id="edge19" class="edge">
<title>dir_36b7050c88a6b55ae211e19fc22d63e3&#45;&gt;dir_51e7d6847640e5d2f01a85c1304ba077</title>
<path fill="none" stroke="#000000" d="M172.4554,-143.7012C169.6035,-133.3353 166.4319,-120.0653 165,-108 163.1144,-92.1115 163.1144,-87.8885 165,-72 166.0068,-63.5166 167.8736,-54.4376 169.8847,-46.1913"/>
<polygon fill="#000000" stroke="#000000" points="173.3278,-46.8576 172.4554,-36.2988 166.5528,-45.0971 173.3278,-46.8576"/>
<g id="a_edge19&#45;headlabel"><a xlink:href="dir_000122_000023.html" target="_top" xlink:title="606">
<text text-anchor="middle" x="175.1718" y="-48.0508" font-family="FreeSans" font-size="10.00" fill="#000000">606</text>
</a>
</g>
</g>
<!-- dir_36b7050c88a6b55ae211e19fc22d63e3&#45;&gt;dir_fbf8c6e7b5bd3b26eef9d77cf5a939f4 -->
<g id="edge20" class="edge">
<title>dir_36b7050c88a6b55ae211e19fc22d63e3&#45;&gt;dir_fbf8c6e7b5bd3b26eef9d77cf5a939f4</title>
<path fill="none" stroke="#000000" d="M186.075,-143.8314C189.6102,-135.8771 193.836,-126.369 197.7456,-117.5723"/>
<polygon fill="#000000" stroke="#000000" points="200.9532,-118.9729 201.8163,-108.4133 194.5565,-116.1299 200.9532,-118.9729"/>
<g id="a_edge20&#45;headlabel"><a xlink:href="dir_000122_000050.html" target="_top" xlink:title="461">
<text text-anchor="middle" x="202.0879" y="-120.4108" font-family="FreeSans" font-size="10.00" fill="#000000">461</text>
</a>
</g>
</g>
<!-- dir_fbf8c6e7b5bd3b26eef9d77cf5a939f4&#45;&gt;dir_51e7d6847640e5d2f01a85c1304ba077 -->
<g id="edge21" class="edge">
<title>dir_fbf8c6e7b5bd3b26eef9d77cf5a939f4&#45;&gt;dir_51e7d6847640e5d2f01a85c1304ba077</title>
<path fill="none" stroke="#000000" d="M201.925,-71.8314C198.3898,-63.8771 194.164,-54.369 190.2544,-45.5723"/>
<polygon fill="#000000" stroke="#000000" points="193.4435,-44.1299 186.1837,-36.4133 187.0468,-46.9729 193.4435,-44.1299"/>
<g id="a_edge21&#45;headlabel"><a xlink:href="dir_000050_000023.html" target="_top" xlink:title="79">
<text text-anchor="middle" x="197.4979" y="-43.2616" font-family="FreeSans" font-size="10.00" fill="#000000">79</text>
</a>
</g>
</g>
</g>
</svg>
