<?xml version="1.0" encoding="UTF-8" standalone="no"?>
<!DOCTYPE svg PUBLIC "-//W3C//DTD SVG 1.1//EN"
 "http://www.w3.org/Graphics/SVG/1.1/DTD/svg11.dtd">
<!-- Generated by graphviz version 2.40.1 (20161225.0304)
 -->
<!-- Title: coresoftware/blob/master/simulation/g4simulation/g4histos Pages: 1 -->
<svg width="161pt" height="296pt"
 viewBox="0.00 0.00 160.50 296.00" xmlns="http://www.w3.org/2000/svg" xmlns:xlink="http://www.w3.org/1999/xlink">
<g id="graph0" class="graph" transform="scale(1 1) rotate(0) translate(4 292)">
<title>coresoftware/blob/master/simulation/g4simulation/g4histos</title>
<g id="clust1" class="cluster">
<title>clusterdir_502a12411120c32ffba8fb721c8cabe9</title>
<g id="a_clust1"><a xlink:href="dir_502a12411120c32ffba8fb721c8cabe9.html" target="_top" xlink:title="g4simulation">
<polygon fill="#ddddee" stroke="#000000" points="62.5,-208 62.5,-280 144.5,-280 144.5,-208 62.5,-208"/>
<text text-anchor="middle" x="103.5" y="-267" font-family="FreeSans" font-size="10.00" fill="#000000">g4simulation</text>
</a>
</g>
</g>
<!-- dir_3483cd0b5b69e5c5ea793f6f1a9a7e47 -->
<g id="node1" class="node">
<title>dir_3483cd0b5b69e5c5ea793f6f1a9a7e47</title>
<g id="a_node1"><a xlink:href="dir_3483cd0b5b69e5c5ea793f6f1a9a7e47.html" target="_top" xlink:title="g4histos">
<polygon fill="#eeeeff" stroke="#000000" points="133,-252 74,-252 74,-216 133,-216 133,-252"/>
<text text-anchor="middle" x="103.5" y="-231" font-family="FreeSans" font-size="10.00" fill="#000000">g4histos</text>
</a>
</g>
</g>
<!-- dir_acadb6e714998e86ffcd6483f18724fc -->
<g id="node2" class="node">
<title>dir_acadb6e714998e86ffcd6483f18724fc</title>
<g id="a_node2"><a xlink:href="dir_acadb6e714998e86ffcd6483f18724fc.html" target="_top" xlink:title="offline">
<polygon fill="none" stroke="#ff0000" points="130.5,-180 76.5,-180 76.5,-144 130.5,-144 130.5,-180"/>
<text text-anchor="middle" x="103.5" y="-159" font-family="FreeSans" font-size="10.00" fill="#000000">offline</text>
</a>
</g>
</g>
<!-- dir_3483cd0b5b69e5c5ea793f6f1a9a7e47&#45;&gt;dir_acadb6e714998e86ffcd6483f18724fc -->
<g id="edge3" class="edge">
<title>dir_3483cd0b5b69e5c5ea793f6f1a9a7e47&#45;&gt;dir_acadb6e714998e86ffcd6483f18724fc</title>
<path fill="none" stroke="#000000" d="M103.5,-215.8314C103.5,-208.131 103.5,-198.9743 103.5,-190.4166"/>
<polygon fill="#000000" stroke="#000000" points="107.0001,-190.4132 103.5,-180.4133 100.0001,-190.4133 107.0001,-190.4132"/>
<g id="a_edge3&#45;headlabel"><a xlink:href="dir_001265_000753.html" target="_top" xlink:title="68">
<text text-anchor="middle" x="109.8393" y="-191.0079" font-family="FreeSans" font-size="10.00" fill="#000000">68</text>
</a>
</g>
</g>
<!-- dir_73315ab93d92e75717f76409ebdb775e -->
<g id="node3" class="node">
<title>dir_73315ab93d92e75717f76409ebdb775e</title>
<g id="a_node3"><a xlink:href="dir_73315ab93d92e75717f76409ebdb775e.html" target="_top" xlink:title="g4detectors">
<polygon fill="none" stroke="#000000" points="77,-108 0,-108 0,-72 77,-72 77,-108"/>
<text text-anchor="middle" x="38.5" y="-87" font-family="FreeSans" font-size="10.00" fill="#000000">g4detectors</text>
</a>
</g>
</g>
<!-- dir_3483cd0b5b69e5c5ea793f6f1a9a7e47&#45;&gt;dir_73315ab93d92e75717f76409ebdb775e -->
<g id="edge4" class="edge">
<title>dir_3483cd0b5b69e5c5ea793f6f1a9a7e47&#45;&gt;dir_73315ab93d92e75717f76409ebdb775e</title>
<path fill="none" stroke="#000000" d="M89.5023,-215.7699C82.2115,-205.6441 73.5754,-192.5815 67.5,-180 57.8479,-160.0114 50.3016,-136.0301 45.3293,-117.8503"/>
<polygon fill="#000000" stroke="#000000" points="48.7053,-116.926 42.7688,-108.1505 41.9371,-118.7127 48.7053,-116.926"/>
<g id="a_edge4&#45;headlabel"><a xlink:href="dir_001265_001262.html" target="_top" xlink:title="8">
<text text-anchor="middle" x="52.3679" y="-116.6769" font-family="FreeSans" font-size="10.00" fill="#000000">8</text>
</a>
</g>
</g>
<!-- dir_9ec02f31f3e7410ebab94fe8c1279082 -->
<g id="node4" class="node">
<title>dir_9ec02f31f3e7410ebab94fe8c1279082</title>
<g id="a_node4"><a xlink:href="dir_9ec02f31f3e7410ebab94fe8c1279082.html" target="_top" xlink:title="g4main">
<polygon fill="none" stroke="#000000" points="141.5,-36 87.5,-36 87.5,0 141.5,0 141.5,-36"/>
<text text-anchor="middle" x="114.5" y="-15" font-family="FreeSans" font-size="10.00" fill="#000000">g4main</text>
</a>
</g>
</g>
<!-- dir_3483cd0b5b69e5c5ea793f6f1a9a7e47&#45;&gt;dir_9ec02f31f3e7410ebab94fe8c1279082 -->
<g id="edge5" class="edge">
<title>dir_3483cd0b5b69e5c5ea793f6f1a9a7e47&#45;&gt;dir_9ec02f31f3e7410ebab94fe8c1279082</title>
<path fill="none" stroke="#000000" d="M119.4905,-215.9169C127.1538,-206.0371 135.5166,-193.1563 139.5,-180 153.4008,-134.0889 138.1569,-78.4023 126.122,-45.7184"/>
<polygon fill="#000000" stroke="#000000" points="129.3771,-44.4315 122.5259,-36.3499 122.842,-46.94 129.3771,-44.4315"/>
<g id="a_edge5&#45;headlabel"><a xlink:href="dir_001265_001269.html" target="_top" xlink:title="18">
<text text-anchor="middle" x="133.3159" y="-43.7699" font-family="FreeSans" font-size="10.00" fill="#000000">18</text>
</a>
</g>
</g>
<!-- dir_acadb6e714998e86ffcd6483f18724fc&#45;&gt;dir_73315ab93d92e75717f76409ebdb775e -->
<g id="edge1" class="edge">
<title>dir_acadb6e714998e86ffcd6483f18724fc&#45;&gt;dir_73315ab93d92e75717f76409ebdb775e</title>
<path fill="none" stroke="#000000" d="M81.1454,-143.8314C72.7661,-135.454 63.4576,-125.3531 55.6087,-116.1749"/>
<polygon fill="#000000" stroke="#000000" points="58.2351,-113.8593 49.1471,-108.4133 52.8553,-118.338 58.2351,-113.8593"/>
<g id="a_edge1&#45;headlabel"><a xlink:href="dir_000753_001262.html" target="_top" xlink:title="105">
<text text-anchor="middle" x="62.717" y="-111.8052" font-family="FreeSans" font-size="10.00" fill="#000000">105</text>
</a>
</g>
</g>
<!-- dir_acadb6e714998e86ffcd6483f18724fc&#45;&gt;dir_9ec02f31f3e7410ebab94fe8c1279082 -->
<g id="edge2" class="edge">
<title>dir_acadb6e714998e86ffcd6483f18724fc&#45;&gt;dir_9ec02f31f3e7410ebab94fe8c1279082</title>
<path fill="none" stroke="#000000" d="M100.22,-143.7623C99.6338,-119.0928 102.7464,-74.8598 106.8911,-45.9731"/>
<polygon fill="#000000" stroke="#000000" points="110.3489,-46.5147 108.4599,-36.0896 103.4354,-45.4173 110.3489,-46.5147"/>
<g id="a_edge2&#45;headlabel"><a xlink:href="dir_000753_001269.html" target="_top" xlink:title="130">
<text text-anchor="middle" x="112.5896" y="-47.5099" font-family="FreeSans" font-size="10.00" fill="#000000">130</text>
</a>
</g>
</g>
<!-- dir_73315ab93d92e75717f76409ebdb775e&#45;&gt;dir_acadb6e714998e86ffcd6483f18724fc -->
<g id="edge6" class="edge">
<title>dir_73315ab93d92e75717f76409ebdb775e&#45;&gt;dir_acadb6e714998e86ffcd6483f18724fc</title>
<path fill="none" stroke="#000000" d="M61.0991,-108.4133C69.4962,-116.8239 78.7993,-126.9323 86.6196,-136.0923"/>
<polygon fill="#000000" stroke="#000000" points="83.9673,-138.3768 93.0501,-143.8314 89.3512,-133.9032 83.9673,-138.3768"/>
<g id="a_edge6&#45;headlabel"><a xlink:href="dir_001262_000753.html" target="_top" xlink:title="248">
<text text-anchor="middle" x="79.4862" y="-134.4266" font-family="FreeSans" font-size="10.00" fill="#000000">248</text>
</a>
</g>
</g>
<!-- dir_73315ab93d92e75717f76409ebdb775e&#45;&gt;dir_9ec02f31f3e7410ebab94fe8c1279082 -->
<g id="edge7" class="edge">
<title>dir_73315ab93d92e75717f76409ebdb775e&#45;&gt;dir_9ec02f31f3e7410ebab94fe8c1279082</title>
<path fill="none" stroke="#000000" d="M57.678,-71.8314C66.8588,-63.1337 78.0006,-52.5783 87.9776,-43.1265"/>
<polygon fill="#000000" stroke="#000000" points="90.4757,-45.5811 95.3281,-36.1628 85.6615,-40.4995 90.4757,-45.5811"/>
<g id="a_edge7&#45;headlabel"><a xlink:href="dir_001262_001269.html" target="_top" xlink:title="259">
<text text-anchor="middle" x="89.8189" y="-47.1145" font-family="FreeSans" font-size="10.00" fill="#000000">259</text>
</a>
</g>
</g>
<!-- dir_9ec02f31f3e7410ebab94fe8c1279082&#45;&gt;dir_acadb6e714998e86ffcd6483f18724fc -->
<g id="edge8" class="edge">
<title>dir_9ec02f31f3e7410ebab94fe8c1279082&#45;&gt;dir_acadb6e714998e86ffcd6483f18724fc</title>
<path fill="none" stroke="#000000" d="M117.7764,-36.0896C118.3775,-60.6805 115.2743,-104.905 111.1338,-133.8531"/>
<polygon fill="#000000" stroke="#000000" points="107.6718,-133.3382 109.5663,-143.7623 114.5858,-134.432 107.6718,-133.3382"/>
<g id="a_edge8&#45;headlabel"><a xlink:href="dir_001269_000753.html" target="_top" xlink:title="207">
<text text-anchor="middle" x="105.4289" y="-126.3442" font-family="FreeSans" font-size="10.00" fill="#000000">207</text>
</a>
</g>
</g>
</g>
</svg>
