<?xml version="1.0" encoding="UTF-8" standalone="no"?>
<!DOCTYPE svg PUBLIC "-//W3C//DTD SVG 1.1//EN"
 "http://www.w3.org/Graphics/SVG/1.1/DTD/svg11.dtd">
<!-- Generated by graphviz version 2.40.1 (20161225.0304)
 -->
<!-- Title: acts/blob/sPHENIX/Examples/Algorithms/Digitization Pages: 1 -->
<svg width="256pt" height="304pt"
 viewBox="0.00 0.00 256.00 304.00" xmlns="http://www.w3.org/2000/svg" xmlns:xlink="http://www.w3.org/1999/xlink">
<g id="graph0" class="graph" transform="scale(1 1) rotate(0) translate(4 300)">
<title>acts/blob/sPHENIX/Examples/Algorithms/Digitization</title>
<g id="clust1" class="cluster">
<title>clusterdir_36b7050c88a6b55ae211e19fc22d63e3</title>
<g id="a_clust1"><a xlink:href="dir_36b7050c88a6b55ae211e19fc22d63e3.html" target="_top" xlink:title="Algorithms">
<polygon fill="#ddddee" stroke="#000000" points="8,-128 8,-288 186,-288 186,-128 8,-128"/>
<text text-anchor="middle" x="97" y="-275" font-family="FreeSans" font-size="10.00" fill="#000000">Algorithms</text>
</a>
</g>
</g>
<g id="clust2" class="cluster">
<title>clusterdir_228f12f4c97c57e5b345475069e48a5f</title>
<g id="a_clust2"><a xlink:href="dir_228f12f4c97c57e5b345475069e48a5f.html" target="_top">
<polygon fill="#eeeeff" stroke="#000000" points="16,-136 16,-260 178,-260 178,-136 16,-136"/>
</a>
</g>
</g>
<!-- dir_228f12f4c97c57e5b345475069e48a5f -->
<g id="node1" class="node">
<title>dir_228f12f4c97c57e5b345475069e48a5f</title>
<text text-anchor="middle" x="133" y="-231" font-family="FreeSans" font-size="10.00" fill="#000000">Digitization</text>
</g>
<!-- dir_1d911b0af8d332bb902b0fdcbbfb1e86 -->
<g id="node2" class="node">
<title>dir_1d911b0af8d332bb902b0fdcbbfb1e86</title>
<g id="a_node2"><a xlink:href="dir_1d911b0af8d332bb902b0fdcbbfb1e86.html" target="_top" xlink:title="include">
<polygon fill="#ffffff" stroke="#ff0000" points="78,-180 24,-180 24,-144 78,-144 78,-180"/>
<text text-anchor="middle" x="51" y="-159" font-family="FreeSans" font-size="10.00" fill="#000000">include</text>
</a>
</g>
</g>
<!-- dir_51e7d6847640e5d2f01a85c1304ba077 -->
<g id="node4" class="node">
<title>dir_51e7d6847640e5d2f01a85c1304ba077</title>
<g id="a_node4"><a xlink:href="dir_51e7d6847640e5d2f01a85c1304ba077.html" target="_top" xlink:title="Core">
<polygon fill="none" stroke="#ff0000" points="161,-36 107,-36 107,0 161,0 161,-36"/>
<text text-anchor="middle" x="134" y="-15" font-family="FreeSans" font-size="10.00" fill="#000000">Core</text>
</a>
</g>
</g>
<!-- dir_1d911b0af8d332bb902b0fdcbbfb1e86&#45;&gt;dir_51e7d6847640e5d2f01a85c1304ba077 -->
<g id="edge6" class="edge">
<title>dir_1d911b0af8d332bb902b0fdcbbfb1e86&#45;&gt;dir_51e7d6847640e5d2f01a85c1304ba077</title>
<path fill="none" stroke="#000000" d="M47.8413,-143.8027C45.4673,-124.6465 44.4749,-94.241 57,-72 66.1755,-55.7069 82.5514,-43.1845 97.8492,-34.3198"/>
<polygon fill="#000000" stroke="#000000" points="99.557,-37.3752 106.6691,-29.5223 96.2122,-31.2261 99.557,-37.3752"/>
<g id="a_edge6&#45;headlabel"><a xlink:href="dir_000075_000017.html" target="_top" xlink:title="2">
<text text-anchor="middle" x="97.756" y="-38.587" font-family="FreeSans" font-size="10.00" fill="#000000">2</text>
</a>
</g>
</g>
<!-- dir_fbf8c6e7b5bd3b26eef9d77cf5a939f4 -->
<g id="node6" class="node">
<title>dir_fbf8c6e7b5bd3b26eef9d77cf5a939f4</title>
<g id="a_node6"><a xlink:href="dir_fbf8c6e7b5bd3b26eef9d77cf5a939f4.html" target="_top" xlink:title="Framework">
<polygon fill="none" stroke="#ff0000" points="138,-108 66,-108 66,-72 138,-72 138,-108"/>
<text text-anchor="middle" x="102" y="-87" font-family="FreeSans" font-size="10.00" fill="#000000">Framework</text>
</a>
</g>
</g>
<!-- dir_1d911b0af8d332bb902b0fdcbbfb1e86&#45;&gt;dir_fbf8c6e7b5bd3b26eef9d77cf5a939f4 -->
<g id="edge7" class="edge">
<title>dir_1d911b0af8d332bb902b0fdcbbfb1e86&#45;&gt;dir_fbf8c6e7b5bd3b26eef9d77cf5a939f4</title>
<path fill="none" stroke="#000000" d="M63.8695,-143.8314C69.6835,-135.6232 76.6696,-125.7606 83.0646,-116.7323"/>
<polygon fill="#000000" stroke="#000000" points="86.0331,-118.5966 88.9573,-108.4133 80.321,-114.5505 86.0331,-118.5966"/>
<g id="a_edge7&#45;headlabel"><a xlink:href="dir_000075_000053.html" target="_top" xlink:title="4">
<text text-anchor="middle" x="86.2723" y="-120.171" font-family="FreeSans" font-size="10.00" fill="#000000">4</text>
</a>
</g>
</g>
<!-- dir_0c60bcb39625bb09f3f6c1d38532b267 -->
<g id="node3" class="node">
<title>dir_0c60bcb39625bb09f3f6c1d38532b267</title>
<g id="a_node3"><a xlink:href="dir_0c60bcb39625bb09f3f6c1d38532b267.html" target="_top" xlink:title="src">
<polygon fill="#ffffff" stroke="#000000" points="78,-252 24,-252 24,-216 78,-216 78,-252"/>
<text text-anchor="middle" x="51" y="-231" font-family="FreeSans" font-size="10.00" fill="#000000">src</text>
</a>
</g>
</g>
<!-- dir_0c60bcb39625bb09f3f6c1d38532b267&#45;&gt;dir_1d911b0af8d332bb902b0fdcbbfb1e86 -->
<g id="edge4" class="edge">
<title>dir_0c60bcb39625bb09f3f6c1d38532b267&#45;&gt;dir_1d911b0af8d332bb902b0fdcbbfb1e86</title>
<path fill="none" stroke="#000000" d="M51,-215.8314C51,-208.131 51,-198.9743 51,-190.4166"/>
<polygon fill="#000000" stroke="#000000" points="54.5001,-190.4132 51,-180.4133 47.5001,-190.4133 54.5001,-190.4132"/>
<g id="a_edge4&#45;headlabel"><a xlink:href="dir_000078_000075.html" target="_top" xlink:title="2">
<text text-anchor="middle" x="57.3393" y="-191.0079" font-family="FreeSans" font-size="10.00" fill="#000000">2</text>
</a>
</g>
</g>
<!-- dir_0c60bcb39625bb09f3f6c1d38532b267&#45;&gt;dir_51e7d6847640e5d2f01a85c1304ba077 -->
<g id="edge2" class="edge">
<title>dir_0c60bcb39625bb09f3f6c1d38532b267&#45;&gt;dir_51e7d6847640e5d2f01a85c1304ba077</title>
<path fill="none" stroke="#000000" d="M73.1818,-215.9484C84.4572,-206.0771 97.8771,-193.1946 108,-180 130.1524,-151.1258 138.0593,-143.2776 147,-108 152.1874,-87.5318 148.4058,-63.8844 143.6112,-45.9669"/>
<polygon fill="#000000" stroke="#000000" points="146.904,-44.7577 140.7312,-36.1468 140.1869,-46.7277 146.904,-44.7577"/>
<g id="a_edge2&#45;headlabel"><a xlink:href="dir_000078_000017.html" target="_top" xlink:title="9">
<text text-anchor="middle" x="150.6401" y="-44.408" font-family="FreeSans" font-size="10.00" fill="#000000">9</text>
</a>
</g>
</g>
<!-- dir_a1545c5e57bd32ecf937e6f21d42f7f2 -->
<g id="node5" class="node">
<title>dir_a1545c5e57bd32ecf937e6f21d42f7f2</title>
<g id="a_node5"><a xlink:href="dir_a1545c5e57bd32ecf937e6f21d42f7f2.html" target="_top" xlink:title="Plugins">
<polygon fill="none" stroke="#ff0000" points="248,-180 194,-180 194,-144 248,-144 248,-180"/>
<text text-anchor="middle" x="221" y="-159" font-family="FreeSans" font-size="10.00" fill="#000000">Plugins</text>
</a>
</g>
</g>
<!-- dir_0c60bcb39625bb09f3f6c1d38532b267&#45;&gt;dir_a1545c5e57bd32ecf937e6f21d42f7f2 -->
<g id="edge3" class="edge">
<title>dir_0c60bcb39625bb09f3f6c1d38532b267&#45;&gt;dir_a1545c5e57bd32ecf937e6f21d42f7f2</title>
<path fill="none" stroke="#000000" d="M78.3812,-219.9509C81.2723,-218.5753 84.1838,-217.2338 87,-216 128.3569,-197.8804 140.3651,-197.4714 182,-180 182.8423,-179.6465 183.6934,-179.2857 184.5503,-178.9189"/>
<polygon fill="#000000" stroke="#000000" points="186.0898,-182.0654 193.8331,-174.834 183.2703,-175.6583 186.0898,-182.0654"/>
<g id="a_edge3&#45;headlabel"><a xlink:href="dir_000078_000030.html" target="_top" xlink:title="5">
<text text-anchor="middle" x="183.9433" y="-183.112" font-family="FreeSans" font-size="10.00" fill="#000000">5</text>
</a>
</g>
</g>
<!-- dir_0c60bcb39625bb09f3f6c1d38532b267&#45;&gt;dir_fbf8c6e7b5bd3b26eef9d77cf5a939f4 -->
<g id="edge5" class="edge">
<title>dir_0c60bcb39625bb09f3f6c1d38532b267&#45;&gt;dir_fbf8c6e7b5bd3b26eef9d77cf5a939f4</title>
<path fill="none" stroke="#000000" d="M66.1097,-215.61C73.532,-205.6462 81.945,-192.783 87,-180 94.8399,-160.1747 98.5823,-136.3199 100.3687,-118.1518"/>
<polygon fill="#000000" stroke="#000000" points="103.8564,-118.4445 101.2107,-108.1853 96.8812,-117.8551 103.8564,-118.4445"/>
<g id="a_edge5&#45;headlabel"><a xlink:href="dir_000078_000053.html" target="_top" xlink:title="8">
<text text-anchor="middle" x="106.3831" y="-119.2653" font-family="FreeSans" font-size="10.00" fill="#000000">8</text>
</a>
</g>
</g>
<!-- dir_a1545c5e57bd32ecf937e6f21d42f7f2&#45;&gt;dir_51e7d6847640e5d2f01a85c1304ba077 -->
<g id="edge1" class="edge">
<title>dir_a1545c5e57bd32ecf937e6f21d42f7f2&#45;&gt;dir_51e7d6847640e5d2f01a85c1304ba077</title>
<path fill="none" stroke="#000000" d="M214.3814,-143.6531C207.2277,-124.9086 194.8362,-95.325 180,-72 173.8892,-62.3928 166.1926,-52.6818 158.8526,-44.195"/>
<polygon fill="#000000" stroke="#000000" points="161.249,-41.6229 151.9879,-36.4766 156.0184,-46.2749 161.249,-41.6229"/>
<g id="a_edge1&#45;headlabel"><a xlink:href="dir_000030_000017.html" target="_top" xlink:title="181">
<text text-anchor="middle" x="165.7594" y="-39.4219" font-family="FreeSans" font-size="10.00" fill="#000000">181</text>
</a>
</g>
</g>
<!-- dir_fbf8c6e7b5bd3b26eef9d77cf5a939f4&#45;&gt;dir_51e7d6847640e5d2f01a85c1304ba077 -->
<g id="edge8" class="edge">
<title>dir_fbf8c6e7b5bd3b26eef9d77cf5a939f4&#45;&gt;dir_51e7d6847640e5d2f01a85c1304ba077</title>
<path fill="none" stroke="#000000" d="M110.075,-71.8314C113.6102,-63.8771 117.836,-54.369 121.7456,-45.5723"/>
<polygon fill="#000000" stroke="#000000" points="124.9532,-46.9729 125.8163,-36.4133 118.5565,-44.1299 124.9532,-46.9729"/>
<g id="a_edge8&#45;headlabel"><a xlink:href="dir_000053_000017.html" target="_top" xlink:title="39">
<text text-anchor="middle" x="126.0879" y="-48.4108" font-family="FreeSans" font-size="10.00" fill="#000000">39</text>
</a>
</g>
</g>
</g>
</svg>
