<?xml version="1.0" encoding="UTF-8" standalone="no"?>
<!DOCTYPE svg PUBLIC "-//W3C//DTD SVG 1.1//EN"
 "http://www.w3.org/Graphics/SVG/1.1/DTD/svg11.dtd">
<!-- Generated by graphviz version 2.40.1 (20161225.0304)
 -->
<!-- Title: acts/blob/sPHENIX/Core/include/Acts/Seeding/SeedfinderConfig.hpp Pages: 1 -->
<svg width="1159pt" height="377pt"
 viewBox="0.00 0.00 1159.00 377.00" xmlns="http://www.w3.org/2000/svg" xmlns:xlink="http://www.w3.org/1999/xlink">
<g id="graph0" class="graph" transform="scale(1 1) rotate(0) translate(4 373)">
<title>acts/blob/sPHENIX/Core/include/Acts/Seeding/SeedfinderConfig.hpp</title>
<!-- Node1 -->
<g id="node1" class="node">
<title>Node1</title>
<polygon fill="#bfbfbf" stroke="#000000" points="475,-324.5 475,-368.5 610,-368.5 610,-324.5 475,-324.5"/>
<text text-anchor="start" x="483" y="-355.5" font-family="FreeSans" font-size="10.00" fill="#000000">acts/blob/sPHENIX/Core</text>
<text text-anchor="start" x="483" y="-343.5" font-family="FreeSans" font-size="10.00" fill="#000000">/include/Acts/Seeding</text>
<text text-anchor="middle" x="542.5" y="-331.5" font-family="FreeSans" font-size="10.00" fill="#000000">/SeedfinderConfig.hpp</text>
</g>
<!-- Node2 -->
<g id="node2" class="node">
<title>Node2</title>
<g id="a_node2"><a xlink:href="../../d8/d9f/BinnedSPGroup_8hpp.html" target="_top" xlink:title="acts/blob/sPHENIX/Core\l/include/Acts/Seeding\l/BinnedSPGroup.hpp">
<polygon fill="none" stroke="#000000" points="319,-243.5 319,-287.5 454,-287.5 454,-243.5 319,-243.5"/>
<text text-anchor="start" x="327" y="-274.5" font-family="FreeSans" font-size="10.00" fill="#000000">acts/blob/sPHENIX/Core</text>
<text text-anchor="start" x="327" y="-262.5" font-family="FreeSans" font-size="10.00" fill="#000000">/include/Acts/Seeding</text>
<text text-anchor="middle" x="386.5" y="-250.5" font-family="FreeSans" font-size="10.00" fill="#000000">/BinnedSPGroup.hpp</text>
</a>
</g>
</g>
<!-- Node1&#45;&gt;Node2 -->
<g id="edge1" class="edge">
<title>Node1&#45;&gt;Node2</title>
<path fill="none" stroke="#191970" d="M490.872,-319.6932C470.8313,-309.2874 448.1581,-297.5148 429.0761,-287.6068"/>
<polygon fill="#191970" stroke="#191970" points="489.3845,-322.8644 499.8723,-324.3664 492.6102,-316.6519 489.3845,-322.8644"/>
</g>
<!-- Node5 -->
<g id="node5" class="node">
<title>Node5</title>
<g id="a_node5"><a xlink:href="../../d2/de6/acts_2blob_2sPHENIX_2Tests_2UnitTests_2Plugins_2Cuda_2Seeding2_2main_8cpp.html" target="_top" xlink:title="acts/blob/sPHENIX/Tests\l/UnitTests/Plugins/Cuda\l/Seeding2/main.cpp">
<polygon fill="none" stroke="#000000" points="0,-162.5 0,-206.5 137,-206.5 137,-162.5 0,-162.5"/>
<text text-anchor="start" x="8" y="-193.5" font-family="FreeSans" font-size="10.00" fill="#000000">acts/blob/sPHENIX/Tests</text>
<text text-anchor="start" x="8" y="-181.5" font-family="FreeSans" font-size="10.00" fill="#000000">/UnitTests/Plugins/Cuda</text>
<text text-anchor="middle" x="68.5" y="-169.5" font-family="FreeSans" font-size="10.00" fill="#000000">/Seeding2/main.cpp</text>
</a>
</g>
</g>
<!-- Node1&#45;&gt;Node5 -->
<g id="edge28" class="edge">
<title>Node1&#45;&gt;Node5</title>
<path fill="none" stroke="#191970" d="M464.5265,-340.4588C346.3974,-330.6548 132.8565,-310.1344 105.5,-288 81.0227,-268.1952 72.7276,-230.924 69.9232,-206.929"/>
<polygon fill="#191970" stroke="#191970" points="464.3518,-343.9562 474.6053,-341.2885 464.9262,-336.9798 464.3518,-343.9562"/>
</g>
<!-- Node6 -->
<g id="node6" class="node">
<title>Node6</title>
<g id="a_node6"><a xlink:href="../../dd/de8/SeedfinderSyclTest_8cpp.html" target="_top" xlink:title="acts/blob/sPHENIX/Tests\l/UnitTests/Plugins/Sycl\l/Seeding/SeedfinderSyclTest.cpp">
<polygon fill="none" stroke="#000000" points="787,-162.5 787,-206.5 970,-206.5 970,-162.5 787,-162.5"/>
<text text-anchor="start" x="795" y="-193.5" font-family="FreeSans" font-size="10.00" fill="#000000">acts/blob/sPHENIX/Tests</text>
<text text-anchor="start" x="795" y="-181.5" font-family="FreeSans" font-size="10.00" fill="#000000">/UnitTests/Plugins/Sycl</text>
<text text-anchor="middle" x="878.5" y="-169.5" font-family="FreeSans" font-size="10.00" fill="#000000">/Seeding/SeedfinderSyclTest.cpp</text>
</a>
</g>
</g>
<!-- Node1&#45;&gt;Node6 -->
<g id="edge29" class="edge">
<title>Node1&#45;&gt;Node6</title>
<path fill="none" stroke="#191970" d="M597.5166,-319.9741C663.0827,-288.3619 771.4397,-236.1184 832.6665,-206.5983"/>
<polygon fill="#191970" stroke="#191970" points="595.6518,-316.9876 588.1641,-324.4834 598.6919,-323.293 595.6518,-316.9876"/>
</g>
<!-- Node8 -->
<g id="node8" class="node">
<title>Node8</title>
<g id="a_node8"><a xlink:href="../../d6/d0e/Core_2include_2Acts_2Seeding_2Seedfinder_8hpp.html" target="_top" xlink:title="acts/blob/sPHENIX/Core\l/include/Acts/Seeding\l/Seedfinder.hpp">
<polygon fill="none" stroke="#000000" points="475,-243.5 475,-287.5 610,-287.5 610,-243.5 475,-243.5"/>
<text text-anchor="start" x="483" y="-274.5" font-family="FreeSans" font-size="10.00" fill="#000000">acts/blob/sPHENIX/Core</text>
<text text-anchor="start" x="483" y="-262.5" font-family="FreeSans" font-size="10.00" fill="#000000">/include/Acts/Seeding</text>
<text text-anchor="middle" x="542.5" y="-250.5" font-family="FreeSans" font-size="10.00" fill="#000000">/Seedfinder.hpp</text>
</a>
</g>
</g>
<!-- Node1&#45;&gt;Node8 -->
<g id="edge7" class="edge">
<title>Node1&#45;&gt;Node8</title>
<path fill="none" stroke="#191970" d="M542.5,-314.2457C542.5,-305.3118 542.5,-295.8188 542.5,-287.6068"/>
<polygon fill="#191970" stroke="#191970" points="539.0001,-314.3664 542.5,-324.3664 546.0001,-314.3664 539.0001,-314.3664"/>
</g>
<!-- Node9 -->
<g id="node9" class="node">
<title>Node9</title>
<g id="a_node9"><a xlink:href="../../de/db8/Plugins_2Cuda_2include_2Acts_2Plugins_2Cuda_2Seeding_2Seedfinder_8hpp.html" target="_top" xlink:title="acts/blob/sPHENIX/Plugins\l/Cuda/include/Acts/Plugins\l/Cuda/Seeding/Seedfinder.hpp">
<polygon fill="none" stroke="#000000" points="598,-162.5 598,-206.5 769,-206.5 769,-162.5 598,-162.5"/>
<text text-anchor="start" x="606" y="-193.5" font-family="FreeSans" font-size="10.00" fill="#000000">acts/blob/sPHENIX/Plugins</text>
<text text-anchor="start" x="606" y="-181.5" font-family="FreeSans" font-size="10.00" fill="#000000">/Cuda/include/Acts/Plugins</text>
<text text-anchor="middle" x="683.5" y="-169.5" font-family="FreeSans" font-size="10.00" fill="#000000">/Cuda/Seeding/Seedfinder.hpp</text>
</a>
</g>
</g>
<!-- Node1&#45;&gt;Node9 -->
<g id="edge21" class="edge">
<title>Node1&#45;&gt;Node9</title>
<path fill="none" stroke="#191970" d="M585.0749,-318.5276C596.9811,-309.588 609.4108,-299.1063 619.5,-288 642.2289,-262.9798 661.5467,-228.8052 672.8388,-206.6927"/>
<polygon fill="#191970" stroke="#191970" points="582.9636,-315.7354 576.9509,-324.4588 587.0913,-321.3889 582.9636,-315.7354"/>
</g>
<!-- Node16 -->
<g id="node16" class="node">
<title>Node16</title>
<g id="a_node16"><a xlink:href="../../d3/dfd/SeedFinder_8hpp.html" target="_top" xlink:title="acts/blob/sPHENIX/Plugins\l/Cuda/include/Acts/Plugins\l/Cuda/Seeding2/SeedFinder.hpp">
<polygon fill="none" stroke="#000000" points="115,-243.5 115,-287.5 294,-287.5 294,-243.5 115,-243.5"/>
<text text-anchor="start" x="123" y="-274.5" font-family="FreeSans" font-size="10.00" fill="#000000">acts/blob/sPHENIX/Plugins</text>
<text text-anchor="start" x="123" y="-262.5" font-family="FreeSans" font-size="10.00" fill="#000000">/Cuda/include/Acts/Plugins</text>
<text text-anchor="middle" x="204.5" y="-250.5" font-family="FreeSans" font-size="10.00" fill="#000000">/Cuda/Seeding2/SeedFinder.hpp</text>
</a>
</g>
</g>
<!-- Node1&#45;&gt;Node16 -->
<g id="edge22" class="edge">
<title>Node1&#45;&gt;Node16</title>
<path fill="none" stroke="#191970" d="M464.9494,-327.9154C414.0312,-315.7131 347.2648,-299.7129 294.0805,-286.9675"/>
<polygon fill="#191970" stroke="#191970" points="464.3727,-331.3762 474.913,-330.3031 466.004,-324.5689 464.3727,-331.3762"/>
</g>
<!-- Node17 -->
<g id="node17" class="node">
<title>Node17</title>
<g id="a_node17"><a xlink:href="../../d4/d10/Plugins_2Sycl_2include_2Acts_2Plugins_2Sycl_2Seeding_2Seedfinder_8hpp.html" target="_top" xlink:title="acts/blob/sPHENIX/Plugins\l/Sycl/include/Acts/Plugins\l/Sycl/Seeding/Seedfinder.hpp">
<polygon fill="none" stroke="#000000" points="867.5,-243.5 867.5,-287.5 1033.5,-287.5 1033.5,-243.5 867.5,-243.5"/>
<text text-anchor="start" x="875.5" y="-274.5" font-family="FreeSans" font-size="10.00" fill="#000000">acts/blob/sPHENIX/Plugins</text>
<text text-anchor="start" x="875.5" y="-262.5" font-family="FreeSans" font-size="10.00" fill="#000000">/Sycl/include/Acts/Plugins</text>
<text text-anchor="middle" x="950.5" y="-250.5" font-family="FreeSans" font-size="10.00" fill="#000000">/Sycl/Seeding/Seedfinder.hpp</text>
</a>
</g>
</g>
<!-- Node1&#45;&gt;Node17 -->
<g id="edge24" class="edge">
<title>Node1&#45;&gt;Node17</title>
<path fill="none" stroke="#191970" d="M620.513,-331.0121C691.2084,-316.977 795.0793,-296.3556 867.3323,-282.0112"/>
<polygon fill="#191970" stroke="#191970" points="619.4579,-327.6532 610.3309,-333.0336 620.8211,-334.5192 619.4579,-327.6532"/>
</g>
<!-- Node3 -->
<g id="node3" class="node">
<title>Node3</title>
<g id="a_node3"><a xlink:href="../../d2/d67/SeedfinderTest_8cpp.html" target="_top" xlink:title="acts/blob/sPHENIX/Tests\l/UnitTests/Core/Seeding\l/SeedfinderTest.cpp">
<polygon fill="none" stroke="#000000" points="194,-162.5 194,-206.5 331,-206.5 331,-162.5 194,-162.5"/>
<text text-anchor="start" x="202" y="-193.5" font-family="FreeSans" font-size="10.00" fill="#000000">acts/blob/sPHENIX/Tests</text>
<text text-anchor="start" x="202" y="-181.5" font-family="FreeSans" font-size="10.00" fill="#000000">/UnitTests/Core/Seeding</text>
<text text-anchor="middle" x="262.5" y="-169.5" font-family="FreeSans" font-size="10.00" fill="#000000">/SeedfinderTest.cpp</text>
</a>
</g>
</g>
<!-- Node2&#45;&gt;Node3 -->
<g id="edge2" class="edge">
<title>Node2&#45;&gt;Node3</title>
<path fill="none" stroke="#191970" d="M344.1663,-237.8465C328.5605,-227.6524 311.1003,-216.247 296.3426,-206.6068"/>
<polygon fill="#191970" stroke="#191970" points="342.3302,-240.8277 352.6165,-243.3664 346.1585,-234.9673 342.3302,-240.8277"/>
</g>
<!-- Node4 -->
<g id="node4" class="node">
<title>Node4</title>
<g id="a_node4"><a xlink:href="../../da/d42/SeedfinderCudaTest_8cpp.html" target="_top" xlink:title="acts/blob/sPHENIX/Tests\l/UnitTests/Plugins/Cuda\l/Seeding/SeedfinderCudaTest.cpp">
<polygon fill="none" stroke="#000000" points="494.5,-81.5 494.5,-125.5 682.5,-125.5 682.5,-81.5 494.5,-81.5"/>
<text text-anchor="start" x="502.5" y="-112.5" font-family="FreeSans" font-size="10.00" fill="#000000">acts/blob/sPHENIX/Tests</text>
<text text-anchor="start" x="502.5" y="-100.5" font-family="FreeSans" font-size="10.00" fill="#000000">/UnitTests/Plugins/Cuda</text>
<text text-anchor="middle" x="588.5" y="-88.5" font-family="FreeSans" font-size="10.00" fill="#000000">/Seeding/SeedfinderCudaTest.cpp</text>
</a>
</g>
</g>
<!-- Node2&#45;&gt;Node4 -->
<g id="edge3" class="edge">
<title>Node2&#45;&gt;Node4</title>
<path fill="none" stroke="#191970" d="M459.3032,-239.2229C477.7511,-230.6109 496.7753,-219.8739 512.5,-207 540.4438,-184.1222 563.4555,-148.7524 576.5872,-125.8622"/>
<polygon fill="#191970" stroke="#191970" points="457.6999,-236.1063 450.0209,-243.4059 460.5759,-242.4882 457.6999,-236.1063"/>
</g>
<!-- Node2&#45;&gt;Node5 -->
<g id="edge4" class="edge">
<title>Node2&#45;&gt;Node5</title>
<path fill="none" stroke="#191970" d="M308.6243,-244.3097C306.9011,-243.8665 305.1913,-243.4294 303.5,-243 236.2105,-225.9156 218.7895,-224.0844 151.5,-207 146.8694,-205.8243 142.0995,-204.591 137.2976,-203.3328"/>
<polygon fill="#191970" stroke="#191970" points="308.0442,-247.7751 318.6031,-246.9034 309.8052,-241.0002 308.0442,-247.7751"/>
</g>
<!-- Node2&#45;&gt;Node6 -->
<g id="edge5" class="edge">
<title>Node2&#45;&gt;Node6</title>
<path fill="none" stroke="#191970" d="M464.2614,-243.4494C465.0105,-243.2963 465.7568,-243.1464 466.5,-243 603.4541,-216.0182 640.8808,-230.3536 778.5,-207 781.2194,-206.5385 783.976,-206.0505 786.7555,-205.5407"/>
<polygon fill="#191970" stroke="#191970" points="463.4265,-240.0492 454.4064,-245.6068 464.9235,-246.8873 463.4265,-240.0492"/>
</g>
<!-- Node7 -->
<g id="node7" class="node">
<title>Node7</title>
<g id="a_node7"><a xlink:href="../../dd/d34/PHActsSiliconSeeding_8cc.html" target="_top" xlink:title="coresoftware/blob/master\l/offline/packages/trackreco\l/PHActsSiliconSeeding.cc">
<polygon fill="none" stroke="#000000" points="136.5,-81.5 136.5,-125.5 290.5,-125.5 290.5,-81.5 136.5,-81.5"/>
<text text-anchor="start" x="144.5" y="-112.5" font-family="FreeSans" font-size="10.00" fill="#000000">coresoftware/blob/master</text>
<text text-anchor="start" x="144.5" y="-100.5" font-family="FreeSans" font-size="10.00" fill="#000000">/offline/packages/trackreco</text>
<text text-anchor="middle" x="213.5" y="-88.5" font-family="FreeSans" font-size="10.00" fill="#000000">/PHActsSiliconSeeding.cc</text>
</a>
</g>
</g>
<!-- Node2&#45;&gt;Node7 -->
<g id="edge6" class="edge">
<title>Node2&#45;&gt;Node7</title>
<path fill="none" stroke="#191970" d="M308.8369,-244.1504C252.7562,-228.5541 186.5142,-209.6803 184.5,-207 166.4508,-182.9821 182.5743,-148.2376 197.0265,-125.7581"/>
<polygon fill="#191970" stroke="#191970" points="308.2406,-247.6172 318.8124,-246.9201 310.1133,-240.8723 308.2406,-247.6172"/>
</g>
<!-- Node8&#45;&gt;Node3 -->
<g id="edge10" class="edge">
<title>Node8&#45;&gt;Node3</title>
<path fill="none" stroke="#191970" d="M465.0896,-243.1063C423.1014,-230.9597 371.6551,-216.077 331.1133,-204.3489"/>
<polygon fill="#191970" stroke="#191970" points="464.141,-246.4753 474.7198,-245.8922 466.0863,-239.751 464.141,-246.4753"/>
</g>
<!-- Node8&#45;&gt;Node4 -->
<g id="edge11" class="edge">
<title>Node8&#45;&gt;Node4</title>
<path fill="none" stroke="#191970" d="M551.5618,-233.5867C560.6096,-201.7226 574.2775,-153.588 582.2028,-125.6771"/>
<polygon fill="#191970" stroke="#191970" points="548.1643,-232.7385 548.7997,-243.3143 554.8981,-234.6506 548.1643,-232.7385"/>
</g>
<!-- Node8&#45;&gt;Node5 -->
<g id="edge12" class="edge">
<title>Node8&#45;&gt;Node5</title>
<path fill="none" stroke="#191970" d="M464.5234,-243.2122C464.1816,-243.1408 463.8405,-243.07 463.5,-243 341.0366,-217.8063 307.9319,-226.9137 184.5,-207 169.1082,-204.5168 152.6317,-201.525 137.071,-198.5454"/>
<polygon fill="#191970" stroke="#191970" points="464.0509,-246.6929 474.5736,-245.4584 465.5778,-239.8614 464.0509,-246.6929"/>
</g>
<!-- Node8&#45;&gt;Node6 -->
<g id="edge13" class="edge">
<title>Node8&#45;&gt;Node6</title>
<path fill="none" stroke="#191970" d="M619.8495,-246.8533C669.6993,-234.8359 734.7495,-219.1541 787.142,-206.5238"/>
<polygon fill="#191970" stroke="#191970" points="618.9917,-243.4597 610.0904,-249.2059 620.6322,-250.2648 618.9917,-243.4597"/>
</g>
<!-- Node8&#45;&gt;Node9 -->
<g id="edge8" class="edge">
<title>Node8&#45;&gt;Node9</title>
<path fill="none" stroke="#191970" d="M590.1452,-238.1294C608.0149,-227.8638 628.0814,-216.3362 645.0177,-206.6068"/>
<polygon fill="#191970" stroke="#191970" points="587.9565,-235.3502 581.0289,-243.3664 591.4434,-241.42 587.9565,-235.3502"/>
</g>
<!-- Node10 -->
<g id="node10" class="node">
<title>Node10</title>
<g id="a_node10"><a xlink:href="../../d9/d89/PHActsSiliconSeeding_8h.html" target="_top" xlink:title="coresoftware/blob/master\l/offline/packages/trackreco\l/PHActsSiliconSeeding.h">
<polygon fill="none" stroke="#000000" points="349.5,-162.5 349.5,-206.5 503.5,-206.5 503.5,-162.5 349.5,-162.5"/>
<text text-anchor="start" x="357.5" y="-193.5" font-family="FreeSans" font-size="10.00" fill="#000000">coresoftware/blob/master</text>
<text text-anchor="start" x="357.5" y="-181.5" font-family="FreeSans" font-size="10.00" fill="#000000">/offline/packages/trackreco</text>
<text text-anchor="middle" x="426.5" y="-169.5" font-family="FreeSans" font-size="10.00" fill="#000000">/PHActsSiliconSeeding.h</text>
</a>
</g>
</g>
<!-- Node8&#45;&gt;Node10 -->
<g id="edge14" class="edge">
<title>Node8&#45;&gt;Node10</title>
<path fill="none" stroke="#191970" d="M502.4915,-237.563C487.9963,-227.4414 471.837,-216.1577 458.1592,-206.6068"/>
<polygon fill="#191970" stroke="#191970" points="500.5997,-240.5109 510.8025,-243.3664 504.6073,-234.7716 500.5997,-240.5109"/>
</g>
<!-- Node9&#45;&gt;Node4 -->
<g id="edge9" class="edge">
<title>Node9&#45;&gt;Node4</title>
<path fill="none" stroke="#191970" d="M649.7328,-155.709C638.1228,-145.81 625.3154,-134.8899 614.4278,-125.6068"/>
<polygon fill="#191970" stroke="#191970" points="647.6605,-158.5416 657.5408,-162.3664 652.2022,-153.2149 647.6605,-158.5416"/>
</g>
<!-- Node10&#45;&gt;Node7 -->
<g id="edge15" class="edge">
<title>Node10&#45;&gt;Node7</title>
<path fill="none" stroke="#191970" d="M359.1911,-158.9036C330.9886,-148.1788 298.5251,-135.8335 271.4103,-125.5222"/>
<polygon fill="#191970" stroke="#191970" points="357.9871,-162.1903 368.5782,-162.4734 360.4753,-155.6474 357.9871,-162.1903"/>
</g>
<!-- Node11 -->
<g id="node11" class="node">
<title>Node11</title>
<g id="a_node11"><a xlink:href="../../d0/db6/macros_2blob_2master_2common_2G4__Tracking_8C.html" target="_top" xlink:title="macros/blob/master\l/common/G4_Tracking.C">
<polygon fill="none" stroke="#000000" points="336.5,-87.5 336.5,-119.5 476.5,-119.5 476.5,-87.5 336.5,-87.5"/>
<text text-anchor="start" x="344.5" y="-106.5" font-family="FreeSans" font-size="10.00" fill="#000000">macros/blob/master</text>
<text text-anchor="middle" x="406.5" y="-94.5" font-family="FreeSans" font-size="10.00" fill="#000000">/common/G4_Tracking.C</text>
</a>
</g>
</g>
<!-- Node10&#45;&gt;Node11 -->
<g id="edge16" class="edge">
<title>Node10&#45;&gt;Node11</title>
<path fill="none" stroke="#191970" d="M418.5784,-152.4176C415.8072,-141.194 412.8131,-129.068 410.4992,-119.6969"/>
<polygon fill="#191970" stroke="#191970" points="415.2397,-153.497 421.0349,-162.3664 422.0356,-151.8189 415.2397,-153.497"/>
</g>
<!-- Node12 -->
<g id="node12" class="node">
<title>Node12</title>
<g id="a_node12"><a xlink:href="../../d1/d19/macros_2blob_2master_2detectors_2sPHENIX_2Fun4All__G4__sPHENIX_8C.html" target="_top" xlink:title="macros/blob/master\l/detectors/sPHENIX/Fun4All\l_G4_sPHENIX.C">
<polygon fill="none" stroke="#000000" points="69.5,-.5 69.5,-44.5 223.5,-44.5 223.5,-.5 69.5,-.5"/>
<text text-anchor="start" x="77.5" y="-31.5" font-family="FreeSans" font-size="10.00" fill="#000000">macros/blob/master</text>
<text text-anchor="start" x="77.5" y="-19.5" font-family="FreeSans" font-size="10.00" fill="#000000">/detectors/sPHENIX/Fun4All</text>
<text text-anchor="middle" x="146.5" y="-7.5" font-family="FreeSans" font-size="10.00" fill="#000000">_G4_sPHENIX.C</text>
</a>
</g>
</g>
<!-- Node11&#45;&gt;Node12 -->
<g id="edge17" class="edge">
<title>Node11&#45;&gt;Node12</title>
<path fill="none" stroke="#191970" d="M345.1483,-84.3866C306.8555,-72.4569 257.4194,-57.0557 217.4441,-44.6018"/>
<polygon fill="#191970" stroke="#191970" points="344.5439,-87.8641 355.1324,-87.497 346.626,-81.181 344.5439,-87.8641"/>
</g>
<!-- Node13 -->
<g id="node13" class="node">
<title>Node13</title>
<g id="a_node13"><a xlink:href="../../d4/de9/Fun4All__AnaTutorial__sPHENIX_8C.html" target="_top" xlink:title="tutorials/blob/master\l/AnaTutorial/macro/Fun4All\l_AnaTutorial_sPHENIX.C">
<polygon fill="none" stroke="#000000" points="242,-.5 242,-44.5 395,-44.5 395,-.5 242,-.5"/>
<text text-anchor="start" x="250" y="-31.5" font-family="FreeSans" font-size="10.00" fill="#000000">tutorials/blob/master</text>
<text text-anchor="start" x="250" y="-19.5" font-family="FreeSans" font-size="10.00" fill="#000000">/AnaTutorial/macro/Fun4All</text>
<text text-anchor="middle" x="318.5" y="-7.5" font-family="FreeSans" font-size="10.00" fill="#000000">_AnaTutorial_sPHENIX.C</text>
</a>
</g>
</g>
<!-- Node11&#45;&gt;Node13 -->
<g id="edge18" class="edge">
<title>Node11&#45;&gt;Node13</title>
<path fill="none" stroke="#191970" d="M381.4788,-80.4691C369.2504,-69.2134 354.6026,-55.7308 342.5119,-44.6018"/>
<polygon fill="#191970" stroke="#191970" points="379.386,-83.2998 389.114,-87.497 384.1267,-78.1494 379.386,-83.2998"/>
</g>
<!-- Node14 -->
<g id="node14" class="node">
<title>Node14</title>
<g id="a_node14"><a xlink:href="../../d6/d14/Fun4All__AnaTutorial__sPHENIX__Jets_8C.html" target="_top" xlink:title="tutorials/blob/master\l/AnaTutorial/macro/Fun4All\l_AnaTutorial_sPHENIX_Jets.C">
<polygon fill="none" stroke="#000000" points="413.5,-.5 413.5,-44.5 573.5,-44.5 573.5,-.5 413.5,-.5"/>
<text text-anchor="start" x="421.5" y="-31.5" font-family="FreeSans" font-size="10.00" fill="#000000">tutorials/blob/master</text>
<text text-anchor="start" x="421.5" y="-19.5" font-family="FreeSans" font-size="10.00" fill="#000000">/AnaTutorial/macro/Fun4All</text>
<text text-anchor="middle" x="493.5" y="-7.5" font-family="FreeSans" font-size="10.00" fill="#000000">_AnaTutorial_sPHENIX_Jets.C</text>
</a>
</g>
</g>
<!-- Node11&#45;&gt;Node14 -->
<g id="edge19" class="edge">
<title>Node11&#45;&gt;Node14</title>
<path fill="none" stroke="#191970" d="M431.2369,-80.4691C443.3263,-69.2134 457.8077,-55.7308 469.761,-44.6018"/>
<polygon fill="#191970" stroke="#191970" points="428.6224,-78.1212 423.6884,-87.497 433.3923,-83.2444 428.6224,-78.1212"/>
</g>
<!-- Node15 -->
<g id="node15" class="node">
<title>Node15</title>
<g id="a_node15"><a xlink:href="../../dc/dfd/tutorials_2blob_2master_2materialscan_2Fun4All__G4__sPHENIX_8C.html" target="_top" xlink:title="tutorials/blob/master\l/materialscan/Fun4All\l_G4_sPHENIX.C">
<polygon fill="none" stroke="#000000" points="592,-.5 592,-44.5 719,-44.5 719,-.5 592,-.5"/>
<text text-anchor="start" x="600" y="-31.5" font-family="FreeSans" font-size="10.00" fill="#000000">tutorials/blob/master</text>
<text text-anchor="start" x="600" y="-19.5" font-family="FreeSans" font-size="10.00" fill="#000000">/materialscan/Fun4All</text>
<text text-anchor="middle" x="655.5" y="-7.5" font-family="FreeSans" font-size="10.00" fill="#000000">_G4_sPHENIX.C</text>
</a>
</g>
</g>
<!-- Node11&#45;&gt;Node15 -->
<g id="edge20" class="edge">
<title>Node11&#45;&gt;Node15</title>
<path fill="none" stroke="#191970" d="M465.589,-84.2783C503.569,-71.9233 552.8915,-55.8787 591.7527,-43.2371"/>
<polygon fill="#191970" stroke="#191970" points="464.1212,-81.0752 455.6944,-87.497 466.2866,-87.7318 464.1212,-81.0752"/>
</g>
<!-- Node16&#45;&gt;Node5 -->
<g id="edge23" class="edge">
<title>Node16&#45;&gt;Node5</title>
<path fill="none" stroke="#191970" d="M158.5444,-238.1294C141.3083,-227.8638 121.9534,-216.3362 105.6177,-206.6068"/>
<polygon fill="#191970" stroke="#191970" points="156.9548,-241.2564 167.3374,-243.3664 160.5368,-235.2422 156.9548,-241.2564"/>
</g>
<!-- Node17&#45;&gt;Node6 -->
<g id="edge27" class="edge">
<title>Node17&#45;&gt;Node6</title>
<path fill="none" stroke="#191970" d="M924.1443,-235.8499C915.5501,-226.1813 906.1641,-215.6222 898.1505,-206.6068"/>
<polygon fill="#191970" stroke="#191970" points="921.5661,-238.2176 930.8257,-243.3664 926.798,-233.567 921.5661,-238.2176"/>
</g>
<!-- Node18 -->
<g id="node18" class="node">
<title>Node18</title>
<g id="a_node18"><a xlink:href="../../de/dbc/Plugins_2Sycl_2include_2Acts_2Plugins_2Sycl_2Seeding_2Seedfinder_8ipp.html" target="_top" xlink:title="acts/blob/sPHENIX/Plugins\l/Sycl/include/Acts/Plugins\l/Sycl/Seeding/Seedfinder.ipp">
<polygon fill="none" stroke="#000000" points="988,-162.5 988,-206.5 1151,-206.5 1151,-162.5 988,-162.5"/>
<text text-anchor="start" x="996" y="-193.5" font-family="FreeSans" font-size="10.00" fill="#000000">acts/blob/sPHENIX/Plugins</text>
<text text-anchor="start" x="996" y="-181.5" font-family="FreeSans" font-size="10.00" fill="#000000">/Sycl/include/Acts/Plugins</text>
<text text-anchor="middle" x="1069.5" y="-169.5" font-family="FreeSans" font-size="10.00" fill="#000000">/Sycl/Seeding/Seedfinder.ipp</text>
</a>
</g>
</g>
<!-- Node17&#45;&gt;Node18 -->
<g id="edge25" class="edge">
<title>Node17&#45;&gt;Node18</title>
<path fill="none" stroke="#191970" d="M985.0905,-237.563C999.4668,-227.4414 1016.1653,-216.1577 1030.9333,-206.6068"/>
<polygon fill="#191970" stroke="#191970" points="983.0492,-234.7199 976.9265,-243.3664 987.1049,-240.4253 983.0492,-234.7199"/>
</g>
<!-- Node18&#45;&gt;Node17 -->
<g id="edge26" class="edge">
<title>Node18&#45;&gt;Node17</title>
<path fill="none" stroke="#191970" d="M1034.9498,-212.4086C1020.5778,-222.5281 1003.8797,-233.8123 989.1081,-243.3664"/>
<polygon fill="#191970" stroke="#191970" points="1036.9884,-215.2536 1043.1108,-206.6068 1032.9325,-209.5484 1036.9884,-215.2536"/>
</g>
</g>
</svg>
