<?xml version="1.0" encoding="UTF-8" standalone="no"?>
<!DOCTYPE svg PUBLIC "-//W3C//DTD SVG 1.1//EN"
 "http://www.w3.org/Graphics/SVG/1.1/DTD/svg11.dtd">
<!-- Generated by graphviz version 2.40.1 (20161225.0304)
 -->
<!-- Title: ODBCResultSet::IsBeforeFirst Pages: 1 -->
<svg width="509pt" height="252pt"
 viewBox="0.00 0.00 509.00 252.00" xmlns="http://www.w3.org/2000/svg" xmlns:xlink="http://www.w3.org/1999/xlink">
<g id="graph0" class="graph" transform="scale(1 1) rotate(0) translate(4 248)">
<title>ODBCResultSet::IsBeforeFirst</title>
<!-- Node1 -->
<g id="node1" class="node">
<title>Node1</title>
<polygon fill="#bfbfbf" stroke="#000000" points="0,-115.5 0,-135.5 163,-135.5 163,-115.5 0,-115.5"/>
<text text-anchor="middle" x="81.5" y="-122.5" font-family="FreeSans" font-size="10.00" fill="#000000">ODBCResultSet::IsBeforeFirst</text>
</g>
<!-- Node2 -->
<g id="node2" class="node">
<title>Node2</title>
<g id="a_node2"><a xlink:href="../../db/dad/classodbc_1_1SQLException.html#a7efde1a702e82612b5eeaeacf6ba69f4" target="_top" xlink:title="odbc::SQLException\l::getErrorCode">
<polygon fill="none" stroke="#000000" points="212,-211.5 212,-243.5 329,-243.5 329,-211.5 212,-211.5"/>
<text text-anchor="start" x="220" y="-230.5" font-family="FreeSans" font-size="10.00" fill="#000000">odbc::SQLException</text>
<text text-anchor="middle" x="270.5" y="-218.5" font-family="FreeSans" font-size="10.00" fill="#000000">::getErrorCode</text>
</a>
</g>
</g>
<!-- Node1&#45;&gt;Node2 -->
<g id="edge1" class="edge">
<title>Node1&#45;&gt;Node2</title>
<path fill="none" stroke="#191970" d="M94.6045,-135.6355C115.6606,-151.5551 158.7534,-182.6483 199,-202.5 202.5473,-204.2497 206.248,-205.9333 210.0172,-207.5423"/>
<polygon fill="#191970" stroke="#191970" points="208.8967,-210.8648 219.4788,-211.3831 211.5295,-204.3788 208.8967,-210.8648"/>
</g>
<!-- Node3 -->
<g id="node3" class="node">
<title>Node3</title>
<g id="a_node3"><a xlink:href="../../db/dad/classodbc_1_1SQLException.html#a312d6e981c5a59d9ef4f605ae12d1714" target="_top" xlink:title="odbc::SQLException\l::getMessage">
<polygon fill="none" stroke="#000000" points="212,-160.5 212,-192.5 329,-192.5 329,-160.5 212,-160.5"/>
<text text-anchor="start" x="220" y="-179.5" font-family="FreeSans" font-size="10.00" fill="#000000">odbc::SQLException</text>
<text text-anchor="middle" x="270.5" y="-167.5" font-family="FreeSans" font-size="10.00" fill="#000000">::getMessage</text>
</a>
</g>
</g>
<!-- Node1&#45;&gt;Node3 -->
<g id="edge2" class="edge">
<title>Node1&#45;&gt;Node3</title>
<path fill="none" stroke="#191970" d="M118.8403,-135.576C142.5136,-141.964 173.8526,-150.4205 201.895,-157.9875"/>
<polygon fill="#191970" stroke="#191970" points="201.092,-161.396 211.6585,-160.6221 202.9157,-154.6377 201.092,-161.396"/>
</g>
<!-- Node4 -->
<g id="node4" class="node">
<title>Node4</title>
<g id="a_node4"><a xlink:href="../../db/dad/classodbc_1_1SQLException.html#a14afc03e29de907f7711bdcb81694950" target="_top" xlink:title="odbc::SQLException\l::getSQLState">
<polygon fill="none" stroke="#000000" points="212,-109.5 212,-141.5 329,-141.5 329,-109.5 212,-109.5"/>
<text text-anchor="start" x="220" y="-128.5" font-family="FreeSans" font-size="10.00" fill="#000000">odbc::SQLException</text>
<text text-anchor="middle" x="270.5" y="-116.5" font-family="FreeSans" font-size="10.00" fill="#000000">::getSQLState</text>
</a>
</g>
</g>
<!-- Node1&#45;&gt;Node4 -->
<g id="edge3" class="edge">
<title>Node1&#45;&gt;Node4</title>
<path fill="none" stroke="#191970" d="M163.0243,-125.5C175.825,-125.5 188.9494,-125.5 201.434,-125.5"/>
<polygon fill="#191970" stroke="#191970" points="201.7494,-129.0001 211.7494,-125.5 201.7493,-122.0001 201.7494,-129.0001"/>
</g>
<!-- Node5 -->
<g id="node5" class="node">
<title>Node5</title>
<g id="a_node5"><a xlink:href="../../d6/dba/classodbc_1_1ResultSet.html#a747bc0c70d9032261db784633a889ebf" target="_top" xlink:title="odbc::ResultSet::isBefore\lFirst">
<polygon fill="none" stroke="#000000" points="199,-58.5 199,-90.5 342,-90.5 342,-58.5 199,-58.5"/>
<text text-anchor="start" x="207" y="-77.5" font-family="FreeSans" font-size="10.00" fill="#000000">odbc::ResultSet::isBefore</text>
<text text-anchor="middle" x="270.5" y="-65.5" font-family="FreeSans" font-size="10.00" fill="#000000">First</text>
</a>
</g>
</g>
<!-- Node1&#45;&gt;Node5 -->
<g id="edge4" class="edge">
<title>Node1&#45;&gt;Node5</title>
<path fill="none" stroke="#191970" d="M118.8403,-115.424C142.3211,-109.088 173.3435,-100.7168 201.2104,-93.1972"/>
<polygon fill="#191970" stroke="#191970" points="202.1753,-96.5621 210.9181,-90.5777 200.3516,-89.8038 202.1753,-96.5621"/>
</g>
<!-- Node6 -->
<g id="node6" class="node">
<title>Node6</title>
<g id="a_node6"><a xlink:href="../../dd/d4d/classTSQL.html#a12129fd04a2499449c8d13ed374f007a" target="_top" xlink:title="TSQL::Throw">
<polygon fill="none" stroke="#000000" points="230,-19.5 230,-39.5 311,-39.5 311,-19.5 230,-19.5"/>
<text text-anchor="middle" x="270.5" y="-26.5" font-family="FreeSans" font-size="10.00" fill="#000000">TSQL::Throw</text>
</a>
</g>
</g>
<!-- Node1&#45;&gt;Node6 -->
<g id="edge5" class="edge">
<title>Node1&#45;&gt;Node6</title>
<path fill="none" stroke="#191970" d="M94.1454,-115.4666C114.9092,-99.4335 158.0246,-67.9678 199,-49.5 205.6248,-46.5142 212.7992,-43.8735 219.9598,-41.5708"/>
<polygon fill="#191970" stroke="#191970" points="221.1025,-44.8819 229.663,-38.6395 219.0781,-38.181 221.1025,-44.8819"/>
</g>
<!-- Node7 -->
<g id="node7" class="node">
<title>Node7</title>
<g id="a_node7"><a xlink:href="../../da/d23/msg__buffer_8cc.html#a98631211a4a8aee62f572375d5b637be" target="_top" xlink:title="printf">
<polygon fill="none" stroke="#000000" points="417.5,-39.5 417.5,-59.5 461.5,-59.5 461.5,-39.5 417.5,-39.5"/>
<text text-anchor="middle" x="439.5" y="-46.5" font-family="FreeSans" font-size="10.00" fill="#000000">printf</text>
</a>
</g>
</g>
<!-- Node6&#45;&gt;Node7 -->
<g id="edge6" class="edge">
<title>Node6&#45;&gt;Node7</title>
<path fill="none" stroke="#191970" d="M311.4102,-34.3414C340.7317,-37.8114 379.6961,-42.4226 406.9201,-45.6444"/>
<polygon fill="#191970" stroke="#191970" points="406.7488,-49.1485 417.0908,-46.848 407.5715,-42.197 406.7488,-49.1485"/>
</g>
<!-- Node8 -->
<g id="node8" class="node">
<title>Node8</title>
<g id="a_node8"><a xlink:href="../../d8/d8f/classTSQLException.html#a395335cef98b7d73b7cb158032dcd7e4" target="_top" xlink:title="TSQLException::Print">
<polygon fill="none" stroke="#000000" points="378,-.5 378,-20.5 501,-20.5 501,-.5 378,-.5"/>
<text text-anchor="middle" x="439.5" y="-7.5" font-family="FreeSans" font-size="10.00" fill="#000000">TSQLException::Print</text>
</a>
</g>
</g>
<!-- Node6&#45;&gt;Node8 -->
<g id="edge7" class="edge">
<title>Node6&#45;&gt;Node8</title>
<path fill="none" stroke="#191970" d="M311.4102,-24.9006C328.3803,-22.9927 348.5805,-20.7217 367.8653,-18.5536"/>
<polygon fill="#191970" stroke="#191970" points="368.2982,-22.0271 377.8445,-17.4317 367.5161,-15.0709 368.2982,-22.0271"/>
</g>
</g>
</svg>
