<?xml version="1.0" encoding="UTF-8" standalone="no"?>
<!DOCTYPE svg PUBLIC "-//W3C//DTD SVG 1.1//EN"
 "http://www.w3.org/Graphics/SVG/1.1/DTD/svg11.dtd">
<!-- Generated by graphviz version 2.40.1 (20161225.0304)
 -->
<!-- Title: TpcSimpleClusterizer::process_event Pages: 1 -->
<svg width="720pt" height="714pt"
 viewBox="0.00 0.00 720.00 714.00" xmlns="http://www.w3.org/2000/svg" xmlns:xlink="http://www.w3.org/1999/xlink">
<g id="graph0" class="graph" transform="scale(1 1) rotate(0) translate(4 710)">
<title>TpcSimpleClusterizer::process_event</title>
<!-- Node1 -->
<g id="node1" class="node">
<title>Node1</title>
<polygon fill="#bfbfbf" stroke="#000000" points="0,-343.5 0,-375.5 125,-375.5 125,-343.5 0,-343.5"/>
<text text-anchor="start" x="8" y="-362.5" font-family="FreeSans" font-size="10.00" fill="#000000">TpcSimpleClusterizer</text>
<text text-anchor="middle" x="62.5" y="-350.5" font-family="FreeSans" font-size="10.00" fill="#000000">::process_event</text>
</g>
<!-- Node2 -->
<g id="node2" class="node">
<title>Node2</title>
<g id="a_node2"><a xlink:href="../../d7/d4f/classTrkrClusterHitAssoc.html#a0314201abed284e81c000137451628cc" target="_top" xlink:title="Add association between cluster and hit.">
<polygon fill="none" stroke="#000000" points="196,-673.5 196,-705.5 311,-705.5 311,-673.5 196,-673.5"/>
<text text-anchor="start" x="204" y="-692.5" font-family="FreeSans" font-size="10.00" fill="#000000">TrkrClusterHitAssoc</text>
<text text-anchor="middle" x="253.5" y="-680.5" font-family="FreeSans" font-size="10.00" fill="#000000">::addAssoc</text>
</a>
</g>
</g>
<!-- Node1&#45;&gt;Node2 -->
<g id="edge1" class="edge">
<title>Node1&#45;&gt;Node2</title>
<path fill="none" stroke="#191970" d="M65.6182,-375.6795C76.9073,-432.6623 117.2883,-622.8549 161,-664.5 168.0618,-671.2279 176.7411,-676.1855 185.9265,-679.8306"/>
<polygon fill="#191970" stroke="#191970" points="185.0405,-683.2271 195.6352,-683.1733 187.3194,-676.6084 185.0405,-683.2271"/>
</g>
<!-- Node3 -->
<g id="node3" class="node">
<title>Node3</title>
<g id="a_node3"><a xlink:href="../../d0/d2c/classTrkrClusterContainer.html#a9b2004350d970df2cef8e85c1382c718" target="_top" xlink:title="add a cluster with specific key">
<polygon fill="none" stroke="#000000" points="187,-622.5 187,-654.5 320,-654.5 320,-622.5 187,-622.5"/>
<text text-anchor="start" x="195" y="-641.5" font-family="FreeSans" font-size="10.00" fill="#000000">TrkrClusterContainer</text>
<text text-anchor="middle" x="253.5" y="-629.5" font-family="FreeSans" font-size="10.00" fill="#000000">::addClusterSpecifyKey</text>
</a>
</g>
</g>
<!-- Node1&#45;&gt;Node3 -->
<g id="edge2" class="edge">
<title>Node1&#45;&gt;Node3</title>
<path fill="none" stroke="#191970" d="M63.8416,-375.6784C68.4508,-420.5434 87.674,-547.5604 161,-613.5 165.8704,-617.8798 171.4309,-621.5038 177.354,-624.5007"/>
<polygon fill="#191970" stroke="#191970" points="176.3507,-627.8833 186.913,-628.7127 179.1732,-621.4776 176.3507,-627.8833"/>
</g>
<!-- Node4 -->
<g id="node4" class="node">
<title>Node4</title>
<g id="a_node4"><a xlink:href="../../d2/d5a/ExaTrkXEdgeBuildingTest_8cpp.html#a6c3fdf667362d0fcd29829e3a34003f8" target="_top" xlink:title="distance">
<polygon fill="none" stroke="#000000" points="224,-583.5 224,-603.5 283,-603.5 283,-583.5 224,-583.5"/>
<text text-anchor="middle" x="253.5" y="-590.5" font-family="FreeSans" font-size="10.00" fill="#000000">distance</text>
</a>
</g>
</g>
<!-- Node1&#45;&gt;Node4 -->
<g id="edge3" class="edge">
<title>Node1&#45;&gt;Node4</title>
<path fill="none" stroke="#191970" d="M64.8769,-375.7571C71.7055,-416.2749 95.2875,-522.2364 161,-574.5 175.8017,-586.2723 196.0465,-591.2931 213.8233,-593.2565"/>
<polygon fill="#191970" stroke="#191970" points="213.6922,-596.7574 223.945,-594.0872 214.2648,-589.7809 213.6922,-596.7574"/>
</g>
<!-- Node6 -->
<g id="node6" class="node">
<title>Node6</title>
<g id="a_node6"><a xlink:href="../../d5/d07/classPHNodeIterator.html#aea98bf8619af59b1212a94fb32106baa" target="_top" xlink:title="PHNodeIterator::findFirst">
<polygon fill="none" stroke="#000000" points="183,-526.5 183,-546.5 324,-546.5 324,-526.5 183,-526.5"/>
<text text-anchor="middle" x="253.5" y="-533.5" font-family="FreeSans" font-size="10.00" fill="#000000">PHNodeIterator::findFirst</text>
</a>
</g>
</g>
<!-- Node1&#45;&gt;Node6 -->
<g id="edge5" class="edge">
<title>Node1&#45;&gt;Node6</title>
<path fill="none" stroke="#191970" d="M67.6261,-375.5055C78.8845,-407.9199 108.9966,-481.3114 161,-517.5 164.812,-520.1527 168.913,-522.4511 173.1924,-524.4409"/>
<polygon fill="#191970" stroke="#191970" points="172.2197,-527.8227 182.8028,-528.3221 174.8411,-521.332 172.2197,-527.8227"/>
</g>
<!-- Node9 -->
<g id="node9" class="node">
<title>Node9</title>
<g id="a_node9"><a xlink:href="../../d6/d3f/namespaceTrkrDefs.html#a5cc3b1fa8e62e3fc5fb698fe1991cfae" target="_top" xlink:title="generate cluster key from hitset key and cluster index">
<polygon fill="none" stroke="#000000" points="399.5,-287.5 399.5,-307.5 524.5,-307.5 524.5,-287.5 399.5,-287.5"/>
<text text-anchor="middle" x="462" y="-294.5" font-family="FreeSans" font-size="10.00" fill="#000000">TrkrDefs::genClusKey</text>
</a>
</g>
</g>
<!-- Node1&#45;&gt;Node9 -->
<g id="edge9" class="edge">
<title>Node1&#45;&gt;Node9</title>
<path fill="none" stroke="#191970" d="M89.0028,-343.2979C108.234,-332.4457 135.2816,-318.9985 161,-312.5 237.163,-293.2551 327.5236,-291.4245 389.2304,-293.2013"/>
<polygon fill="#191970" stroke="#191970" points="389.1532,-296.7006 399.2622,-293.5292 389.3819,-289.7043 389.1532,-296.7006"/>
</g>
<!-- Node11 -->
<g id="node11" class="node">
<title>Node11</title>
<g id="a_node11"><a xlink:href="../../d7/db0/namespaceTpcDefs.html#a30fc79495c9e8d14327d1026cd7325c7" target="_top" xlink:title="Generate a hitsetkey for the tpc.">
<polygon fill="none" stroke="#000000" points="186.5,-487.5 186.5,-507.5 320.5,-507.5 320.5,-487.5 186.5,-487.5"/>
<text text-anchor="middle" x="253.5" y="-494.5" font-family="FreeSans" font-size="10.00" fill="#000000">TpcDefs::genHitSetKey</text>
</a>
</g>
</g>
<!-- Node1&#45;&gt;Node11 -->
<g id="edge11" class="edge">
<title>Node1&#45;&gt;Node11</title>
<path fill="none" stroke="#191970" d="M72.1103,-375.6646C87.6378,-400.3541 120.6212,-447.246 161,-472.5 168.6646,-477.2936 177.2434,-481.1787 186.003,-484.3248"/>
<polygon fill="#191970" stroke="#191970" points="184.9514,-487.6633 195.5442,-487.4568 187.1346,-481.0125 184.9514,-487.6633"/>
</g>
<!-- Node13 -->
<g id="node13" class="node">
<title>Node13</title>
<g id="a_node13"><a xlink:href="../../d9/d82/classPHG4TpcCylinderGeom.html#aaddea431c03dfacaedd0c60266a6ab9f" target="_top" xlink:title="PHG4TpcCylinderGeom\l::get_phibins">
<polygon fill="none" stroke="#000000" points="186.5,-180.5 186.5,-212.5 320.5,-212.5 320.5,-180.5 186.5,-180.5"/>
<text text-anchor="start" x="194.5" y="-199.5" font-family="FreeSans" font-size="10.00" fill="#000000">PHG4TpcCylinderGeom</text>
<text text-anchor="middle" x="253.5" y="-187.5" font-family="FreeSans" font-size="10.00" fill="#000000">::get_phibins</text>
</a>
</g>
</g>
<!-- Node1&#45;&gt;Node13 -->
<g id="edge15" class="edge">
<title>Node1&#45;&gt;Node13</title>
<path fill="none" stroke="#191970" d="M69.6731,-343.2418C83.2309,-314.4233 115.4026,-254.4184 161,-222.5 165.9026,-219.0681 171.2477,-216.0875 176.815,-213.4991"/>
<polygon fill="#191970" stroke="#191970" points="178.484,-216.5947 186.3552,-209.5028 175.7794,-210.1383 178.484,-216.5947"/>
</g>
<!-- Node16 -->
<g id="node16" class="node">
<title>Node16</title>
<g id="a_node16"><a xlink:href="../../d9/d82/classPHG4TpcCylinderGeom.html#a057dd6be1e57c394925a080fbd8ef8b6" target="_top" xlink:title="PHG4TpcCylinderGeom\l::get_zbins">
<polygon fill="none" stroke="#000000" points="186.5,-129.5 186.5,-161.5 320.5,-161.5 320.5,-129.5 186.5,-129.5"/>
<text text-anchor="start" x="194.5" y="-148.5" font-family="FreeSans" font-size="10.00" fill="#000000">PHG4TpcCylinderGeom</text>
<text text-anchor="middle" x="253.5" y="-136.5" font-family="FreeSans" font-size="10.00" fill="#000000">::get_zbins</text>
</a>
</g>
</g>
<!-- Node1&#45;&gt;Node16 -->
<g id="edge18" class="edge">
<title>Node1&#45;&gt;Node16</title>
<path fill="none" stroke="#191970" d="M66.2289,-343.2567C75.5097,-306.5894 103.1817,-216.9847 161,-170.5 165.7341,-166.6938 170.9997,-163.4649 176.5489,-160.7258"/>
<polygon fill="#191970" stroke="#191970" points="178.3394,-163.7637 186.1115,-156.5634 175.5456,-157.3454 178.3394,-163.7637"/>
</g>
<!-- Node18 -->
<g id="node18" class="node">
<title>Node18</title>
<g id="a_node18"><a xlink:href="../../d5/d76/classTrkrHitSetContainer.html#a0e347bd66bf03e9a34651410a79d5cab" target="_top" xlink:title="return all HitSets matching a given detid">
<polygon fill="none" stroke="#000000" points="195,-321.5 195,-353.5 312,-353.5 312,-321.5 195,-321.5"/>
<text text-anchor="start" x="203" y="-340.5" font-family="FreeSans" font-size="10.00" fill="#000000">TrkrHitSetContainer</text>
<text text-anchor="middle" x="253.5" y="-328.5" font-family="FreeSans" font-size="10.00" fill="#000000">::getHitSets</text>
</a>
</g>
</g>
<!-- Node1&#45;&gt;Node18 -->
<g id="edge21" class="edge">
<title>Node1&#45;&gt;Node18</title>
<path fill="none" stroke="#191970" d="M125.0405,-352.2964C144.1258,-350.0981 165.2127,-347.6692 184.6894,-345.4258"/>
<polygon fill="#191970" stroke="#191970" points="185.1747,-348.8932 194.7085,-344.2718 184.3736,-341.9391 185.1747,-348.8932"/>
</g>
<!-- Node19 -->
<g id="node19" class="node">
<title>Node19</title>
<g id="a_node19"><a xlink:href="../../d6/d3f/namespaceTrkrDefs.html#ad4a7fd368bbf1d5d97ff4fd3e81a6100" target="_top" xlink:title="Get the layer number from either key type.">
<polygon fill="none" stroke="#000000" points="406.5,-409.5 406.5,-429.5 517.5,-429.5 517.5,-409.5 406.5,-409.5"/>
<text text-anchor="middle" x="462" y="-416.5" font-family="FreeSans" font-size="10.00" fill="#000000">TrkrDefs::getLayer</text>
</a>
</g>
</g>
<!-- Node1&#45;&gt;Node19 -->
<g id="edge22" class="edge">
<title>Node1&#45;&gt;Node19</title>
<path fill="none" stroke="#191970" d="M99.2116,-375.6096C117.4428,-382.91 140.0103,-390.9167 161,-395.5 240.6429,-412.8906 334.5926,-418.0093 396.0816,-419.3482"/>
<polygon fill="#191970" stroke="#191970" points="396.3536,-422.8539 406.4182,-419.5442 396.4864,-415.8551 396.3536,-422.8539"/>
</g>
<!-- Node20 -->
<g id="node20" class="node">
<title>Node20</title>
<g id="a_node20"><a xlink:href="../../d2/d67/classPHG4TpcCylinderGeomContainer.html#a43bf6b8da6ba9b4ed80e09802de3d2ac" target="_top" xlink:title="PHG4TpcCylinderGeomContainer\l::GetLayerCellGeom">
<polygon fill="none" stroke="#000000" points="161,-231.5 161,-263.5 346,-263.5 346,-231.5 161,-231.5"/>
<text text-anchor="start" x="169" y="-250.5" font-family="FreeSans" font-size="10.00" fill="#000000">PHG4TpcCylinderGeomContainer</text>
<text text-anchor="middle" x="253.5" y="-238.5" font-family="FreeSans" font-size="10.00" fill="#000000">::GetLayerCellGeom</text>
</a>
</g>
</g>
<!-- Node1&#45;&gt;Node20 -->
<g id="edge24" class="edge">
<title>Node1&#45;&gt;Node20</title>
<path fill="none" stroke="#191970" d="M78.2098,-343.4325C96.5935,-325.4255 128.6554,-296.414 161,-278.5 168.6431,-274.2669 176.9619,-270.481 185.3737,-267.1341"/>
<polygon fill="#191970" stroke="#191970" points="186.7627,-270.3508 194.8794,-263.5412 184.2878,-263.8029 186.7627,-270.3508"/>
</g>
<!-- Node21 -->
<g id="node21" class="node">
<title>Node21</title>
<g id="a_node21"><a xlink:href="../../d7/db0/namespaceTpcDefs.html#aaee8d42aaa9f7331459a8589f9550086" target="_top" xlink:title="Get the sector id from hitsetkey.">
<polygon fill="none" stroke="#000000" points="400.5,-370.5 400.5,-390.5 523.5,-390.5 523.5,-370.5 400.5,-370.5"/>
<text text-anchor="middle" x="462" y="-377.5" font-family="FreeSans" font-size="10.00" fill="#000000">TpcDefs::getSectorId</text>
</a>
</g>
</g>
<!-- Node1&#45;&gt;Node21 -->
<g id="edge25" class="edge">
<title>Node1&#45;&gt;Node21</title>
<path fill="none" stroke="#191970" d="M125.0389,-373.3515C136.9239,-375.4749 149.3013,-377.3428 161,-378.5 239.042,-386.2199 329.0212,-385.5762 390.1243,-383.7216"/>
<polygon fill="#191970" stroke="#191970" points="390.5493,-387.2098 400.4312,-383.389 390.3234,-380.2134 390.5493,-387.2098"/>
</g>
<!-- Node22 -->
<g id="node22" class="node">
<title>Node22</title>
<g id="a_node22"><a xlink:href="../../d7/db0/namespaceTpcDefs.html#aafa0c31bf0892588a224d8f0726bff11" target="_top" xlink:title="Get the side from hitsetkey.">
<polygon fill="none" stroke="#000000" points="410.5,-331.5 410.5,-351.5 513.5,-351.5 513.5,-331.5 410.5,-331.5"/>
<text text-anchor="middle" x="462" y="-338.5" font-family="FreeSans" font-size="10.00" fill="#000000">TpcDefs::getSide</text>
</a>
</g>
</g>
<!-- Node1&#45;&gt;Node22 -->
<g id="edge27" class="edge">
<title>Node1&#45;&gt;Node22</title>
<path fill="none" stroke="#191970" d="M125.017,-362.4212C136.9603,-362.8709 149.3643,-363.2638 161,-363.5 243.2053,-365.1685 264.1386,-371.1941 346,-363.5 366.9413,-361.5317 389.732,-357.6067 409.525,-353.6098"/>
<polygon fill="#191970" stroke="#191970" points="410.4968,-356.9827 419.5765,-351.5231 409.0738,-350.1289 410.4968,-356.9827"/>
</g>
<!-- Node23 -->
<g id="node23" class="node">
<title>Node23</title>
<g id="a_node23"><a xlink:href="../../da/d23/msg__buffer_8cc.html#a98631211a4a8aee62f572375d5b637be" target="_top" xlink:title="printf">
<polygon fill="none" stroke="#000000" points="231.5,-90.5 231.5,-110.5 275.5,-110.5 275.5,-90.5 231.5,-90.5"/>
<text text-anchor="middle" x="253.5" y="-97.5" font-family="FreeSans" font-size="10.00" fill="#000000">printf</text>
</a>
</g>
</g>
<!-- Node1&#45;&gt;Node23 -->
<g id="edge29" class="edge">
<title>Node1&#45;&gt;Node23</title>
<path fill="none" stroke="#191970" d="M64.0181,-343.3422C69.0204,-299.7709 89.0389,-179.1302 161,-119.5 177.6157,-105.7315 201.5985,-101.0986 220.9801,-99.8468"/>
<polygon fill="#191970" stroke="#191970" points="221.3369,-103.3359 231.1983,-99.4626 221.0739,-96.3409 221.3369,-103.3359"/>
</g>
<!-- Node24 -->
<g id="node24" class="node">
<title>Node24</title>
<g id="a_node24"><a xlink:href="../../d0/d2c/classTrkrClusterContainer.html#a2afed9b08029c94a400bdcfe998eb7d9" target="_top" xlink:title="total number of clusters">
<polygon fill="none" stroke="#000000" points="192.5,-39.5 192.5,-71.5 314.5,-71.5 314.5,-39.5 192.5,-39.5"/>
<text text-anchor="start" x="200.5" y="-58.5" font-family="FreeSans" font-size="10.00" fill="#000000">TrkrClusterContainer</text>
<text text-anchor="middle" x="253.5" y="-46.5" font-family="FreeSans" font-size="10.00" fill="#000000">::size</text>
</a>
</g>
</g>
<!-- Node1&#45;&gt;Node24 -->
<g id="edge30" class="edge">
<title>Node1&#45;&gt;Node24</title>
<path fill="none" stroke="#191970" d="M63.1935,-343.4997C66.1449,-295.9437 81.5248,-154.1961 161,-80.5 167.3125,-74.6465 174.8527,-70.138 182.8665,-66.6699"/>
<polygon fill="#191970" stroke="#191970" points="184.3238,-69.861 192.4462,-63.0582 181.8544,-63.311 184.3238,-69.861"/>
</g>
<!-- Node25 -->
<g id="node25" class="node">
<title>Node25</title>
<g id="a_node25"><a xlink:href="../../d5/dec/classFun4AllBase.html#a8a5c77a92bdac6bc043476e132379a40" target="_top" xlink:title="Gets the verbosity of this module.">
<polygon fill="none" stroke="#000000" points="187.5,-.5 187.5,-20.5 319.5,-20.5 319.5,-.5 187.5,-.5"/>
<text text-anchor="middle" x="253.5" y="-7.5" font-family="FreeSans" font-size="10.00" fill="#000000">Fun4AllBase::Verbosity</text>
</a>
</g>
</g>
<!-- Node1&#45;&gt;Node25 -->
<g id="edge31" class="edge">
<title>Node1&#45;&gt;Node25</title>
<path fill="none" stroke="#191970" d="M65.1211,-343.1718C75.1334,-282.8284 112.8364,-73.6244 161,-29.5 165.8391,-25.0667 171.4266,-21.5553 177.4102,-18.7859"/>
<polygon fill="#191970" stroke="#191970" points="179.0389,-21.9078 187.0883,-15.0189 176.4998,-15.3846 179.0389,-21.9078"/>
</g>
<!-- Node5 -->
<g id="node5" class="node">
<title>Node5</title>
<g id="a_node5"><a xlink:href="../../da/d55/TPCRateLayered_8m.html#a7507ef556477c204b499f1e189d40796" target="_top" xlink:title="sum">
<polygon fill="none" stroke="#000000" points="443,-604.5 443,-624.5 481,-624.5 481,-604.5 443,-604.5"/>
<text text-anchor="middle" x="462" y="-611.5" font-family="FreeSans" font-size="10.00" fill="#000000">sum</text>
</a>
</g>
</g>
<!-- Node4&#45;&gt;Node5 -->
<g id="edge4" class="edge">
<title>Node4&#45;&gt;Node5</title>
<path fill="none" stroke="#191970" d="M283.373,-596.5088C323.1869,-600.5188 393.2005,-607.5705 432.7147,-611.5504"/>
<polygon fill="#191970" stroke="#191970" points="432.4668,-615.0431 442.7673,-612.5629 433.1684,-608.0783 432.4668,-615.0431"/>
</g>
<!-- Node6&#45;&gt;Node6 -->
<g id="edge6" class="edge">
<title>Node6&#45;&gt;Node6</title>
<path fill="none" stroke="#191970" d="M223.7545,-546.7271C210.1864,-555.6067 220.1016,-565 253.5,-565 276.4614,-565 288.3233,-560.5602 289.0857,-554.8999"/>
<polygon fill="#191970" stroke="#191970" points="291.9072,-552.8283 283.2455,-546.7271 286.2119,-556.8982 291.9072,-552.8283"/>
</g>
<!-- Node7 -->
<g id="node7" class="node">
<title>Node7</title>
<g id="a_node7"><a xlink:href="../../dc/d82/classPHNode.html#aca3576f926a4401eddc3d88bf0ce0de3" target="_top" xlink:title="PHNode::getName">
<polygon fill="none" stroke="#000000" points="407.5,-526.5 407.5,-546.5 516.5,-546.5 516.5,-526.5 407.5,-526.5"/>
<text text-anchor="middle" x="462" y="-533.5" font-family="FreeSans" font-size="10.00" fill="#000000">PHNode::getName</text>
</a>
</g>
</g>
<!-- Node6&#45;&gt;Node7 -->
<g id="edge7" class="edge">
<title>Node6&#45;&gt;Node7</title>
<path fill="none" stroke="#191970" d="M324.0886,-536.5C347.758,-536.5 374.0209,-536.5 397.2231,-536.5"/>
<polygon fill="#191970" stroke="#191970" points="397.3043,-540.0001 407.3042,-536.5 397.3042,-533.0001 397.3043,-540.0001"/>
</g>
<!-- Node8 -->
<g id="node8" class="node">
<title>Node8</title>
<g id="a_node8"><a xlink:href="../../dc/d82/classPHNode.html#a4ab1f90aed955a652813bfe377087bda" target="_top" xlink:title="PHNode::getType">
<polygon fill="none" stroke="#000000" points="410.5,-565.5 410.5,-585.5 513.5,-585.5 513.5,-565.5 410.5,-565.5"/>
<text text-anchor="middle" x="462" y="-572.5" font-family="FreeSans" font-size="10.00" fill="#000000">PHNode::getType</text>
</a>
</g>
</g>
<!-- Node6&#45;&gt;Node8 -->
<g id="edge8" class="edge">
<title>Node6&#45;&gt;Node8</title>
<path fill="none" stroke="#191970" d="M307.1939,-546.5435C335.5802,-551.8531 370.5649,-558.397 400.0908,-563.9199"/>
<polygon fill="#191970" stroke="#191970" points="399.8139,-567.4287 410.287,-565.8271 401.101,-560.548 399.8139,-567.4287"/>
</g>
<!-- Node10 -->
<g id="node10" class="node">
<title>Node10</title>
<g id="a_node10"><a xlink:href="../../dd/d7e/namespaceActs_1_1Test.html#a88f0887efddd644c8defc1e91456c3c9" target="_top" xlink:title="Acts::Test::tmp">
<polygon fill="none" stroke="#000000" points="599,-389.5 599,-409.5 691,-409.5 691,-389.5 599,-389.5"/>
<text text-anchor="middle" x="645" y="-396.5" font-family="FreeSans" font-size="10.00" fill="#000000">Acts::Test::tmp</text>
</a>
</g>
</g>
<!-- Node9&#45;&gt;Node10 -->
<g id="edge10" class="edge">
<title>Node9&#45;&gt;Node10</title>
<path fill="none" stroke="#191970" d="M503.3412,-307.5098C516.0966,-311.359 529.9495,-316.3421 542,-322.5 574.1824,-338.9455 606.8483,-365.3804 626.5186,-382.5962"/>
<polygon fill="#191970" stroke="#191970" points="624.3163,-385.3216 634.1138,-389.354 628.9694,-380.0919 624.3163,-385.3216"/>
</g>
<!-- Node11&#45;&gt;Node10 -->
<g id="edge14" class="edge">
<title>Node11&#45;&gt;Node10</title>
<path fill="none" stroke="#191970" d="M319.8803,-487.492C378.8662,-477.8124 467.0966,-461.3968 542,-439.5 566.3677,-432.3765 593.0681,-421.928 613.1769,-413.4962"/>
<polygon fill="#191970" stroke="#191970" points="614.6457,-416.675 622.4799,-409.5423 611.9076,-410.2327 614.6457,-416.675"/>
</g>
<!-- Node12 -->
<g id="node12" class="node">
<title>Node12</title>
<g id="a_node12"><a xlink:href="../../d6/d3f/namespaceTrkrDefs.html#a418e306477093b8d17d587be70b908a3" target="_top" xlink:title="generate the common upper 16 bits for hitsetkey">
<polygon fill="none" stroke="#000000" points="395,-487.5 395,-507.5 529,-507.5 529,-487.5 395,-487.5"/>
<text text-anchor="middle" x="462" y="-494.5" font-family="FreeSans" font-size="10.00" fill="#000000">TrkrDefs::genHitSetKey</text>
</a>
</g>
</g>
<!-- Node11&#45;&gt;Node12 -->
<g id="edge12" class="edge">
<title>Node11&#45;&gt;Node12</title>
<path fill="none" stroke="#191970" d="M320.6184,-497.5C340.977,-497.5 363.5088,-497.5 384.4908,-497.5"/>
<polygon fill="#191970" stroke="#191970" points="384.6502,-501.0001 394.6502,-497.5 384.6501,-494.0001 384.6502,-501.0001"/>
</g>
<!-- Node12&#45;&gt;Node10 -->
<g id="edge13" class="edge">
<title>Node12&#45;&gt;Node10</title>
<path fill="none" stroke="#191970" d="M502.8364,-487.4277C515.6998,-483.5518 529.742,-478.569 542,-472.5 573.4518,-456.928 605.8554,-432.276 625.7151,-415.9952"/>
<polygon fill="#191970" stroke="#191970" points="627.9733,-418.6693 633.419,-409.5811 623.4944,-413.2897 627.9733,-418.6693"/>
</g>
<!-- Node14 -->
<g id="node14" class="node">
<title>Node14</title>
<g id="a_node14"><a xlink:href="../../d9/d82/classPHG4TpcCylinderGeom.html#a93177822741be5a34a10ed624c7e8e8e" target="_top" xlink:title="PHG4TpcCylinderGeom\l::check_binning_method_phi">
<polygon fill="none" stroke="#000000" points="382,-180.5 382,-212.5 542,-212.5 542,-180.5 382,-180.5"/>
<text text-anchor="start" x="390" y="-199.5" font-family="FreeSans" font-size="10.00" fill="#000000">PHG4TpcCylinderGeom</text>
<text text-anchor="middle" x="462" y="-187.5" font-family="FreeSans" font-size="10.00" fill="#000000">::check_binning_method_phi</text>
</a>
</g>
</g>
<!-- Node13&#45;&gt;Node14 -->
<g id="edge16" class="edge">
<title>Node13&#45;&gt;Node14</title>
<path fill="none" stroke="#191970" d="M320.6184,-196.5C336.9388,-196.5 354.6557,-196.5 371.8512,-196.5"/>
<polygon fill="#191970" stroke="#191970" points="371.901,-200.0001 381.9009,-196.5 371.9009,-193.0001 371.901,-200.0001"/>
</g>
<!-- Node15 -->
<g id="node15" class="node">
<title>Node15</title>
<g id="a_node15"><a xlink:href="../../d9/d82/classPHG4TpcCylinderGeom.html#ab25c824b1f4070bd7f6b84d2eb74c867" target="_top" xlink:title="PHG4TpcCylinderGeom\l::methodname">
<polygon fill="none" stroke="#000000" points="578,-155.5 578,-187.5 712,-187.5 712,-155.5 578,-155.5"/>
<text text-anchor="start" x="586" y="-174.5" font-family="FreeSans" font-size="10.00" fill="#000000">PHG4TpcCylinderGeom</text>
<text text-anchor="middle" x="645" y="-162.5" font-family="FreeSans" font-size="10.00" fill="#000000">::methodname</text>
</a>
</g>
</g>
<!-- Node14&#45;&gt;Node15 -->
<g id="edge17" class="edge">
<title>Node14&#45;&gt;Node15</title>
<path fill="none" stroke="#191970" d="M542.0002,-185.571C550.572,-184.4 559.2806,-183.2103 567.8185,-182.0439"/>
<polygon fill="#191970" stroke="#191970" points="568.3105,-185.5093 577.7447,-180.6879 567.3629,-178.5737 568.3105,-185.5093"/>
</g>
<!-- Node17 -->
<g id="node17" class="node">
<title>Node17</title>
<g id="a_node17"><a xlink:href="../../d9/d82/classPHG4TpcCylinderGeom.html#a30b9e3e662c563b350100e8e73db765b" target="_top" xlink:title="PHG4TpcCylinderGeom\l::check_binning_method">
<polygon fill="none" stroke="#000000" points="392.5,-129.5 392.5,-161.5 531.5,-161.5 531.5,-129.5 392.5,-129.5"/>
<text text-anchor="start" x="400.5" y="-148.5" font-family="FreeSans" font-size="10.00" fill="#000000">PHG4TpcCylinderGeom</text>
<text text-anchor="middle" x="462" y="-136.5" font-family="FreeSans" font-size="10.00" fill="#000000">::check_binning_method</text>
</a>
</g>
</g>
<!-- Node16&#45;&gt;Node17 -->
<g id="edge19" class="edge">
<title>Node16&#45;&gt;Node17</title>
<path fill="none" stroke="#191970" d="M320.6184,-145.5C340.2734,-145.5 361.954,-145.5 382.31,-145.5"/>
<polygon fill="#191970" stroke="#191970" points="382.4978,-149.0001 392.4978,-145.5 382.4978,-142.0001 382.4978,-149.0001"/>
</g>
<!-- Node17&#45;&gt;Node15 -->
<g id="edge20" class="edge">
<title>Node17&#45;&gt;Node15</title>
<path fill="none" stroke="#191970" d="M531.7065,-155.4037C543.5433,-157.0854 555.8967,-158.8405 567.9102,-160.5474"/>
<polygon fill="#191970" stroke="#191970" points="567.5098,-164.0255 577.9028,-161.9671 568.4945,-157.0951 567.5098,-164.0255"/>
</g>
<!-- Node19&#45;&gt;Node10 -->
<g id="edge23" class="edge">
<title>Node19&#45;&gt;Node10</title>
<path fill="none" stroke="#191970" d="M517.9004,-413.3907C540.4147,-410.9301 566.3359,-408.0972 588.873,-405.6341"/>
<polygon fill="#191970" stroke="#191970" points="589.4048,-409.0969 598.9654,-404.5311 588.6443,-402.1383 589.4048,-409.0969"/>
</g>
<!-- Node21&#45;&gt;Node10 -->
<g id="edge26" class="edge">
<title>Node21&#45;&gt;Node10</title>
<path fill="none" stroke="#191970" d="M523.7003,-386.906C544.738,-389.0903 568.1349,-391.5195 588.7238,-393.6571"/>
<polygon fill="#191970" stroke="#191970" points="588.5858,-397.1615 598.8938,-394.713 589.3088,-390.1989 588.5858,-397.1615"/>
</g>
<!-- Node22&#45;&gt;Node10 -->
<g id="edge28" class="edge">
<title>Node22&#45;&gt;Node10</title>
<path fill="none" stroke="#191970" d="M505.8331,-351.5482C517.6458,-354.5031 530.3718,-357.913 542,-361.5 565.0597,-368.6132 590.5037,-377.9852 610.3334,-385.6419"/>
<polygon fill="#191970" stroke="#191970" points="609.2763,-388.9862 619.8646,-389.3566 611.8183,-382.4641 609.2763,-388.9862"/>
</g>
</g>
</svg>
