<?xml version="1.0" encoding="UTF-8" standalone="no"?>
<!DOCTYPE svg PUBLIC "-//W3C//DTD SVG 1.1//EN"
 "http://www.w3.org/Graphics/SVG/1.1/DTD/svg11.dtd">
<!-- Generated by graphviz version 2.40.1 (20161225.0304)
 -->
<!-- Title: oncsEventiterator::getNextEvent Pages: 1 -->
<svg width="1005pt" height="142pt"
 viewBox="0.00 0.00 1005.00 142.00" xmlns="http://www.w3.org/2000/svg" xmlns:xlink="http://www.w3.org/1999/xlink">
<g id="graph0" class="graph" transform="scale(1 1) rotate(0) translate(4 138)">
<title>oncsEventiterator::getNextEvent</title>
<!-- Node1 -->
<g id="node1" class="node">
<title>Node1</title>
<polygon fill="#bfbfbf" stroke="#000000" points="0,-61.5 0,-93.5 112,-93.5 112,-61.5 0,-61.5"/>
<text text-anchor="start" x="8" y="-80.5" font-family="FreeSans" font-size="10.00" fill="#000000">oncsEventiterator::</text>
<text text-anchor="middle" x="56" y="-68.5" font-family="FreeSans" font-size="10.00" fill="#000000">getNextEvent</text>
</g>
<!-- Node2 -->
<g id="node2" class="node">
<title>Node2</title>
<g id="a_node2"><a xlink:href="../../da/d79/classoncsBuffer.html#a77066b060f5989c17b0d325fdbd6c6f9" target="_top" xlink:title="oncsBuffer::getEvent">
<polygon fill="none" stroke="#000000" points="148,-90.5 148,-110.5 271,-110.5 271,-90.5 148,-90.5"/>
<text text-anchor="middle" x="209.5" y="-97.5" font-family="FreeSans" font-size="10.00" fill="#000000">oncsBuffer::getEvent</text>
</a>
</g>
</g>
<!-- Node1&#45;&gt;Node2 -->
<g id="edge1" class="edge">
<title>Node1&#45;&gt;Node2</title>
<path fill="none" stroke="#191970" d="M112.2861,-85.9338C120.5885,-87.1778 129.2356,-88.4734 137.7984,-89.7564"/>
<polygon fill="#191970" stroke="#191970" points="137.3779,-93.2324 147.7862,-91.253 138.4152,-86.3097 137.3779,-93.2324"/>
</g>
<!-- Node4 -->
<g id="node4" class="node">
<title>Node4</title>
<g id="a_node4"><a xlink:href="../../da/d35/classoncsEventiterator.html#a1b6f10b1829c89ede385cd660c1eb9fb" target="_top" xlink:title="oncsEventiterator::\lread_next_buffer">
<polygon fill="none" stroke="#000000" points="153.5,-39.5 153.5,-71.5 265.5,-71.5 265.5,-39.5 153.5,-39.5"/>
<text text-anchor="start" x="161.5" y="-58.5" font-family="FreeSans" font-size="10.00" fill="#000000">oncsEventiterator::</text>
<text text-anchor="middle" x="209.5" y="-46.5" font-family="FreeSans" font-size="10.00" fill="#000000">read_next_buffer</text>
</a>
</g>
</g>
<!-- Node1&#45;&gt;Node4 -->
<g id="edge3" class="edge">
<title>Node1&#45;&gt;Node4</title>
<path fill="none" stroke="#191970" d="M112.2861,-69.4329C122.3613,-67.9889 132.944,-66.4722 143.268,-64.9925"/>
<polygon fill="#191970" stroke="#191970" points="144.075,-68.4127 153.4773,-63.5293 143.0818,-61.4835 144.075,-68.4127"/>
</g>
<!-- Node3 -->
<g id="node3" class="node">
<title>Node3</title>
<g id="a_node3"><a xlink:href="../../d5/da5/classEvent.html#a4d541637983b2bbb8fc19aaae736b126" target="_top" xlink:title="Event::getEvtLength">
<polygon fill="none" stroke="#000000" points="327,-90.5 327,-110.5 446,-110.5 446,-90.5 327,-90.5"/>
<text text-anchor="middle" x="386.5" y="-97.5" font-family="FreeSans" font-size="10.00" fill="#000000">Event::getEvtLength</text>
</a>
</g>
</g>
<!-- Node2&#45;&gt;Node3 -->
<g id="edge2" class="edge">
<title>Node2&#45;&gt;Node3</title>
<path fill="none" stroke="#191970" d="M271.406,-100.5C285.9858,-100.5 301.6271,-100.5 316.534,-100.5"/>
<polygon fill="#191970" stroke="#191970" points="316.7147,-104.0001 326.7147,-100.5 316.7147,-97.0001 316.7147,-104.0001"/>
</g>
<!-- Node5 -->
<g id="node5" class="node">
<title>Node5</title>
<g id="a_node5"><a xlink:href="../../d4/d6e/namespaceActsExamples_1_1JsonSurfacesReader.html#a1da9addc2bef80c66dc6cbe01cd17342" target="_top" xlink:title="Read the surfaces from the input file.">
<polygon fill="none" stroke="#000000" points="307,-39.5 307,-71.5 466,-71.5 466,-39.5 307,-39.5"/>
<text text-anchor="start" x="315" y="-58.5" font-family="FreeSans" font-size="10.00" fill="#000000">ActsExamples::JsonSurfaces</text>
<text text-anchor="middle" x="386.5" y="-46.5" font-family="FreeSans" font-size="10.00" fill="#000000">Reader::read</text>
</a>
</g>
</g>
<!-- Node4&#45;&gt;Node5 -->
<g id="edge4" class="edge">
<title>Node4&#45;&gt;Node5</title>
<path fill="none" stroke="#191970" d="M265.5039,-55.5C275.4816,-55.5 286.0992,-55.5 296.7411,-55.5"/>
<polygon fill="#191970" stroke="#191970" points="296.9316,-59.0001 306.9315,-55.5 296.9315,-52.0001 296.9316,-59.0001"/>
</g>
<!-- Node11 -->
<g id="node11" class="node">
<title>Node11</title>
<g id="a_node11"><a xlink:href="../../da/d79/classoncsBuffer.html#a6063c1e2b8917a3a47a9079e476a1ab7" target="_top" xlink:title="oncsBuffer::i4swap">
<polygon fill="none" stroke="#000000" points="330,-.5 330,-20.5 443,-20.5 443,-.5 330,-.5"/>
<text text-anchor="middle" x="386.5" y="-7.5" font-family="FreeSans" font-size="10.00" fill="#000000">oncsBuffer::i4swap</text>
</a>
</g>
</g>
<!-- Node4&#45;&gt;Node11 -->
<g id="edge11" class="edge">
<title>Node4&#45;&gt;Node11</title>
<path fill="none" stroke="#191970" d="M265.6331,-40.264C279.161,-36.6662 293.5824,-32.8918 307,-29.5 315.5966,-27.3269 324.7329,-25.0827 333.6333,-22.9316"/>
<polygon fill="#191970" stroke="#191970" points="334.635,-26.2906 343.5405,-20.5512 332.9996,-19.4843 334.635,-26.2906"/>
</g>
<!-- Node6 -->
<g id="node6" class="node">
<title>Node6</title>
<g id="a_node6"><a xlink:href="../../dc/d80/namespaceActs_1_1SurfaceJsonConverter.html#a6da11e2e6ad60f32d02a17dc4daca13e" target="_top" xlink:title="The Surface converter from json.">
<polygon fill="none" stroke="#000000" points="502,-62.5 502,-94.5 657,-94.5 657,-62.5 502,-62.5"/>
<text text-anchor="start" x="510" y="-81.5" font-family="FreeSans" font-size="10.00" fill="#000000">Acts::SurfaceJsonConverter</text>
<text text-anchor="middle" x="579.5" y="-69.5" font-family="FreeSans" font-size="10.00" fill="#000000">::fromJson</text>
</a>
</g>
</g>
<!-- Node5&#45;&gt;Node6 -->
<g id="edge5" class="edge">
<title>Node5&#45;&gt;Node6</title>
<path fill="none" stroke="#191970" d="M466.1148,-64.9878C474.6228,-66.0017 483.3116,-67.0371 491.9054,-68.0613"/>
<polygon fill="#191970" stroke="#191970" points="491.5897,-71.5483 501.9336,-69.2563 492.4181,-64.5975 491.5897,-71.5483"/>
</g>
<!-- Node10 -->
<g id="node10" class="node">
<title>Node10</title>
<g id="a_node10"><a xlink:href="../../d0/da7/namespacetesting_1_1internal.html#a0f6d06bf8c3093b9c22bb08723db201e" target="_top" xlink:title="testing::internal::move">
<polygon fill="none" stroke="#000000" points="513.5,-23.5 513.5,-43.5 645.5,-43.5 645.5,-23.5 513.5,-23.5"/>
<text text-anchor="middle" x="579.5" y="-30.5" font-family="FreeSans" font-size="10.00" fill="#000000">testing::internal::move</text>
</a>
</g>
</g>
<!-- Node5&#45;&gt;Node10 -->
<g id="edge10" class="edge">
<title>Node5&#45;&gt;Node10</title>
<path fill="none" stroke="#191970" d="M466.1148,-46.4247C478.3642,-45.0284 490.9882,-43.5894 503.164,-42.2015"/>
<polygon fill="#191970" stroke="#191970" points="503.7289,-45.6599 513.2681,-41.0497 502.936,-38.7049 503.7289,-45.6599"/>
</g>
<!-- Node7 -->
<g id="node7" class="node">
<title>Node7</title>
<g id="a_node7"><a xlink:href="../../d9/d52/HoughTransformSeeder_8cpp.html#a1f2cfb6e3644c66f2bfe3c54f699a72a" target="_top" xlink:title="to_string">
<polygon fill="none" stroke="#000000" points="750,-113.5 750,-133.5 810,-133.5 810,-113.5 750,-113.5"/>
<text text-anchor="middle" x="780" y="-120.5" font-family="FreeSans" font-size="10.00" fill="#000000">to_string</text>
</a>
</g>
</g>
<!-- Node6&#45;&gt;Node7 -->
<g id="edge6" class="edge">
<title>Node6&#45;&gt;Node7</title>
<path fill="none" stroke="#191970" d="M649.1029,-94.562C663.6039,-97.8753 678.7961,-101.3222 693,-104.5 708.3229,-107.9281 725.181,-111.6267 739.9444,-114.8415"/>
<polygon fill="#191970" stroke="#191970" points="739.2708,-118.2767 749.786,-116.9806 740.7576,-111.4364 739.2708,-118.2767"/>
</g>
<!-- Node8 -->
<g id="node8" class="node">
<title>Node8</title>
<g id="a_node8"><a xlink:href="../../d6/ddc/namespaceActs_1_1Transform3JsonConverter.html#af7cbb5fb620be5abf969d40b79d1dd48" target="_top" xlink:title="The Transform converter from json.">
<polygon fill="none" stroke="#000000" points="693,-62.5 693,-94.5 867,-94.5 867,-62.5 693,-62.5"/>
<text text-anchor="start" x="701" y="-81.5" font-family="FreeSans" font-size="10.00" fill="#000000">Acts::Transform3JsonConverter</text>
<text text-anchor="middle" x="780" y="-69.5" font-family="FreeSans" font-size="10.00" fill="#000000">::fromJson</text>
</a>
</g>
</g>
<!-- Node6&#45;&gt;Node8 -->
<g id="edge7" class="edge">
<title>Node6&#45;&gt;Node8</title>
<path fill="none" stroke="#191970" d="M657.0185,-78.5C665.4141,-78.5 674.0343,-78.5 682.6262,-78.5"/>
<polygon fill="#191970" stroke="#191970" points="682.6843,-82.0001 692.6843,-78.5 682.6843,-75.0001 682.6843,-82.0001"/>
</g>
<!-- Node9 -->
<g id="node9" class="node">
<title>Node9</title>
<g id="a_node9"><a xlink:href="../../da/d7b/namespaceActs.html#ad074520815baf6763fe0f99399f93624" target="_top" xlink:title="Read config for cylinder/disc module splitter.">
<polygon fill="none" stroke="#000000" points="903,-45.5 903,-65.5 997,-65.5 997,-45.5 903,-45.5"/>
<text text-anchor="middle" x="950" y="-52.5" font-family="FreeSans" font-size="10.00" fill="#000000">Acts::from_json</text>
</a>
</g>
</g>
<!-- Node6&#45;&gt;Node9 -->
<g id="edge9" class="edge">
<title>Node6&#45;&gt;Node9</title>
<path fill="none" stroke="#191970" d="M640.6531,-62.4869C657.4949,-58.7748 675.8498,-55.3664 693,-53.5 769.8794,-45.1334 789.6723,-52.5685 867,-53.5 875.1973,-53.5987 883.849,-53.7523 892.3486,-53.9315"/>
<polygon fill="#191970" stroke="#191970" points="892.5243,-57.4362 902.6001,-54.1608 892.6809,-50.438 892.5243,-57.4362"/>
</g>
<!-- Node8&#45;&gt;Node9 -->
<g id="edge8" class="edge">
<title>Node8&#45;&gt;Node9</title>
<path fill="none" stroke="#191970" d="M867.4899,-66.6631C876.0704,-65.5022 884.617,-64.3459 892.7796,-63.2416"/>
<polygon fill="#191970" stroke="#191970" points="893.4467,-66.6833 902.8871,-61.8741 892.5081,-59.7465 893.4467,-66.6833"/>
</g>
</g>
</svg>
