<?xml version="1.0" encoding="UTF-8" standalone="no"?>
<!DOCTYPE svg PUBLIC "-//W3C//DTD SVG 1.1//EN"
 "http://www.w3.org/Graphics/SVG/1.1/DTD/svg11.dtd">
<!-- Generated by graphviz version 2.40.1 (20161225.0304)
 -->
<!-- Title: PHParameterInterface::set_default_double_param Pages: 1 -->
<svg width="379pt" height="704pt"
 viewBox="0.00 0.00 379.00 704.00" xmlns="http://www.w3.org/2000/svg" xmlns:xlink="http://www.w3.org/1999/xlink">
<g id="graph0" class="graph" transform="scale(1 1) rotate(0) translate(4 700)">
<title>PHParameterInterface::set_default_double_param</title>
<!-- Node1 -->
<g id="node1" class="node">
<title>Node1</title>
<polygon fill="#bfbfbf" stroke="#000000" points="0,-331.5 0,-363.5 157,-363.5 157,-331.5 0,-331.5"/>
<text text-anchor="start" x="8" y="-350.5" font-family="FreeSans" font-size="10.00" fill="#000000">PHParameterInterface</text>
<text text-anchor="middle" x="78.5" y="-338.5" font-family="FreeSans" font-size="10.00" fill="#000000">::set_default_double_param</text>
</g>
<!-- Node2 -->
<g id="node2" class="node">
<title>Node2</title>
<g id="a_node2"><a xlink:href="../../db/d1c/classPHG4TpcPadPlaneSimple.html#a548dfc4f2762f6734a8cdf9525c4a3e1" target="_top" xlink:title="PHG4TpcPadPlaneSimple\l::SetDefaultParameters">
<polygon fill="none" stroke="#000000" points="210.5,-663.5 210.5,-695.5 353.5,-695.5 353.5,-663.5 210.5,-663.5"/>
<text text-anchor="start" x="218.5" y="-682.5" font-family="FreeSans" font-size="10.00" fill="#000000">PHG4TpcPadPlaneSimple</text>
<text text-anchor="middle" x="282" y="-670.5" font-family="FreeSans" font-size="10.00" fill="#000000">::SetDefaultParameters</text>
</a>
</g>
</g>
<!-- Node1&#45;&gt;Node2 -->
<g id="edge1" class="edge">
<title>Node1&#45;&gt;Node2</title>
<path fill="none" stroke="#191970" d="M80.4752,-373.6249C86.3687,-432.6706 109.0612,-577.2653 193,-654.5 198.0785,-659.1729 203.962,-662.9813 210.2367,-666.0839"/>
<polygon fill="#191970" stroke="#191970" points="83.9574,-373.2696 79.5593,-363.6308 76.9866,-373.9086 83.9574,-373.2696"/>
</g>
<!-- Node3 -->
<g id="node3" class="node">
<title>Node3</title>
<g id="a_node3"><a xlink:href="../../d6/d1b/classPrototype2RawTowerBuilder.html#a214f3941132c4d2b527447745f58cbf7" target="_top" xlink:title="Prototype2RawTowerBuilder\l::SetDefaultParameters">
<polygon fill="none" stroke="#000000" points="203,-612.5 203,-644.5 361,-644.5 361,-612.5 203,-612.5"/>
<text text-anchor="start" x="211" y="-631.5" font-family="FreeSans" font-size="10.00" fill="#000000">Prototype2RawTowerBuilder</text>
<text text-anchor="middle" x="282" y="-619.5" font-family="FreeSans" font-size="10.00" fill="#000000">::SetDefaultParameters</text>
</a>
</g>
</g>
<!-- Node1&#45;&gt;Node3 -->
<g id="edge2" class="edge">
<title>Node1&#45;&gt;Node3</title>
<path fill="none" stroke="#191970" d="M82.7141,-373.8886C92.4155,-425.8144 121.254,-541.5785 193,-603.5 196.888,-606.8556 201.1946,-609.7629 205.7545,-612.2816"/>
<polygon fill="#191970" stroke="#191970" points="86.1206,-373.0534 80.9258,-363.8195 79.2285,-374.2774 86.1206,-373.0534"/>
</g>
<!-- Node4 -->
<g id="node4" class="node">
<title>Node4</title>
<g id="a_node4"><a xlink:href="../../dd/d8b/classPHG4Prototype2HcalCellReco.html#adf0afbad88289665dc71b5154db148f1" target="_top" xlink:title="PHG4Prototype2HcalCellReco\l::SetDefaultParameters">
<polygon fill="none" stroke="#000000" points="199.5,-561.5 199.5,-593.5 364.5,-593.5 364.5,-561.5 199.5,-561.5"/>
<text text-anchor="start" x="207.5" y="-580.5" font-family="FreeSans" font-size="10.00" fill="#000000">PHG4Prototype2HcalCellReco</text>
<text text-anchor="middle" x="282" y="-568.5" font-family="FreeSans" font-size="10.00" fill="#000000">::SetDefaultParameters</text>
</a>
</g>
</g>
<!-- Node1&#45;&gt;Node4 -->
<g id="edge3" class="edge">
<title>Node1&#45;&gt;Node4</title>
<path fill="none" stroke="#191970" d="M85.7197,-373.2108C99.3004,-416.797 132.8374,-505.0674 193,-552.5 197.2852,-555.8785 202.002,-558.8005 206.9602,-561.3277"/>
<polygon fill="#191970" stroke="#191970" points="89.0703,-372.1992 82.8347,-363.6337 82.3678,-374.2183 89.0703,-372.1992"/>
</g>
<!-- Node5 -->
<g id="node5" class="node">
<title>Node5</title>
<g id="a_node5"><a xlink:href="../../dd/deb/classPHG4InttHitReco.html#a39cee50fbfa4ccec38e41b3c46abea86" target="_top" xlink:title="set default parameter values">
<polygon fill="none" stroke="#000000" points="201.5,-510.5 201.5,-542.5 362.5,-542.5 362.5,-510.5 201.5,-510.5"/>
<text text-anchor="start" x="209.5" y="-529.5" font-family="FreeSans" font-size="10.00" fill="#000000">PHG4InttHitReco::SetDefault</text>
<text text-anchor="middle" x="282" y="-517.5" font-family="FreeSans" font-size="10.00" fill="#000000">Parameters</text>
</a>
</g>
</g>
<!-- Node1&#45;&gt;Node5 -->
<g id="edge4" class="edge">
<title>Node1&#45;&gt;Node5</title>
<path fill="none" stroke="#191970" d="M90.7317,-373.1462C108.4559,-407.5466 144.5366,-468.1553 193,-501.5 197.8922,-504.866 203.2293,-507.7812 208.7807,-510.3057"/>
<polygon fill="#191970" stroke="#191970" points="93.6415,-371.1415 86.0252,-363.7766 87.3863,-374.2836 93.6415,-371.1415"/>
</g>
<!-- Node6 -->
<g id="node6" class="node">
<title>Node6</title>
<g id="a_node6"><a xlink:href="../../d2/d53/classPHG4HcalCellReco.html#af98279522a7d3ca79ad670c73469a4c9" target="_top" xlink:title="PHG4HcalCellReco::SetDefault\lParameters">
<polygon fill="none" stroke="#000000" points="196.5,-459.5 196.5,-491.5 367.5,-491.5 367.5,-459.5 196.5,-459.5"/>
<text text-anchor="start" x="204.5" y="-478.5" font-family="FreeSans" font-size="10.00" fill="#000000">PHG4HcalCellReco::SetDefault</text>
<text text-anchor="middle" x="282" y="-466.5" font-family="FreeSans" font-size="10.00" fill="#000000">Parameters</text>
</a>
</g>
</g>
<!-- Node1&#45;&gt;Node6 -->
<g id="edge5" class="edge">
<title>Node1&#45;&gt;Node6</title>
<path fill="none" stroke="#191970" d="M98.8694,-371.3332C120.1117,-394.7397 155.494,-429.8539 193,-450.5 199.1864,-453.9054 205.8753,-456.8788 212.7113,-459.468"/>
<polygon fill="#191970" stroke="#191970" points="101.2311,-368.7226 91.9652,-363.5853 96.005,-373.3797 101.2311,-368.7226"/>
</g>
<!-- Node7 -->
<g id="node7" class="node">
<title>Node7</title>
<g id="a_node7"><a xlink:href="../../da/d96/classPHG4VertexSelection.html#a52cca67cfb3f40306ac7b7a075f325ff" target="_top" xlink:title="parameters">
<polygon fill="none" stroke="#000000" points="215,-408.5 215,-440.5 349,-440.5 349,-408.5 215,-408.5"/>
<text text-anchor="start" x="223" y="-427.5" font-family="FreeSans" font-size="10.00" fill="#000000">PHG4VertexSelection</text>
<text text-anchor="middle" x="282" y="-415.5" font-family="FreeSans" font-size="10.00" fill="#000000">::SetDefaultParameters</text>
</a>
</g>
</g>
<!-- Node1&#45;&gt;Node7 -->
<g id="edge6" class="edge">
<title>Node1&#45;&gt;Node7</title>
<path fill="none" stroke="#191970" d="M119.6954,-368.0512C141.2117,-378.3109 168.1682,-390.4337 193,-399.5 201.7441,-402.6925 211.0944,-405.7217 220.3275,-408.4977"/>
<polygon fill="#191970" stroke="#191970" points="121.0535,-364.8205 110.5252,-363.6347 118.0161,-371.1272 121.0535,-364.8205"/>
</g>
<!-- Node8 -->
<g id="node8" class="node">
<title>Node8</title>
<g id="a_node8"><a xlink:href="../../dd/da0/classPHG4InttDigitizer.html#aad1ff1a2980443dba9d0319fffb18820" target="_top" xlink:title="PHG4InttDigitizer::\lSetDefaultParameters">
<polygon fill="none" stroke="#000000" points="218.5,-357.5 218.5,-389.5 345.5,-389.5 345.5,-357.5 218.5,-357.5"/>
<text text-anchor="start" x="226.5" y="-376.5" font-family="FreeSans" font-size="10.00" fill="#000000">PHG4InttDigitizer::</text>
<text text-anchor="middle" x="282" y="-364.5" font-family="FreeSans" font-size="10.00" fill="#000000">SetDefaultParameters</text>
</a>
</g>
</g>
<!-- Node1&#45;&gt;Node8 -->
<g id="edge7" class="edge">
<title>Node1&#45;&gt;Node8</title>
<path fill="none" stroke="#191970" d="M167.2309,-358.8366C184.4291,-361.0339 202.1317,-363.2957 218.3298,-365.3652"/>
<polygon fill="#191970" stroke="#191970" points="167.5414,-355.3479 157.1784,-357.5523 166.6542,-362.2915 167.5414,-355.3479"/>
</g>
<!-- Node9 -->
<g id="node9" class="node">
<title>Node9</title>
<g id="a_node9"><a xlink:href="../../dc/d20/classPHG4FullProjSpacalCellReco.html#ab6be26b5b269fac4e4af4437dea6406d" target="_top" xlink:title="PHG4FullProjSpacalCellReco\l::SetDefaultParameters">
<polygon fill="none" stroke="#000000" points="203,-306.5 203,-338.5 361,-338.5 361,-306.5 203,-306.5"/>
<text text-anchor="start" x="211" y="-325.5" font-family="FreeSans" font-size="10.00" fill="#000000">PHG4FullProjSpacalCellReco</text>
<text text-anchor="middle" x="282" y="-313.5" font-family="FreeSans" font-size="10.00" fill="#000000">::SetDefaultParameters</text>
</a>
</g>
</g>
<!-- Node1&#45;&gt;Node9 -->
<g id="edge8" class="edge">
<title>Node1&#45;&gt;Node9</title>
<path fill="none" stroke="#191970" d="M167.4574,-336.5716C179.2408,-335.124 191.2568,-333.6478 202.8596,-332.2224"/>
<polygon fill="#191970" stroke="#191970" points="166.677,-333.141 157.1784,-337.8343 167.5306,-340.0888 166.677,-333.141"/>
</g>
<!-- Node10 -->
<g id="node10" class="node">
<title>Node10</title>
<g id="a_node10"><a xlink:href="../../d0/dc0/classPHG4MicromegasDigitizer.html#a755fdaf692c9d05b27e0229ed61fd78d" target="_top" xlink:title="parameters">
<polygon fill="none" stroke="#000000" points="208,-255.5 208,-287.5 356,-287.5 356,-255.5 208,-255.5"/>
<text text-anchor="start" x="216" y="-274.5" font-family="FreeSans" font-size="10.00" fill="#000000">PHG4MicromegasDigitizer</text>
<text text-anchor="middle" x="282" y="-262.5" font-family="FreeSans" font-size="10.00" fill="#000000">::SetDefaultParameters</text>
</a>
</g>
</g>
<!-- Node1&#45;&gt;Node10 -->
<g id="edge9" class="edge">
<title>Node1&#45;&gt;Node10</title>
<path fill="none" stroke="#191970" d="M121.2162,-327.2999C142.5234,-317.6228 168.8429,-306.2626 193,-297.5 202.6848,-293.987 213.0896,-290.6055 223.2493,-287.5093"/>
<polygon fill="#191970" stroke="#191970" points="119.7433,-324.1248 112.1095,-331.4716 122.6587,-330.4889 119.7433,-324.1248"/>
</g>
<!-- Node11 -->
<g id="node11" class="node">
<title>Node11</title>
<g id="a_node11"><a xlink:href="../../d7/d6c/classPHG4TpcPadPlaneReadout.html#a085a751581a9a68027d10c2cefb5740c" target="_top" xlink:title="PHG4TpcPadPlaneReadout\l::SetDefaultParameters">
<polygon fill="none" stroke="#000000" points="206.5,-204.5 206.5,-236.5 357.5,-236.5 357.5,-204.5 206.5,-204.5"/>
<text text-anchor="start" x="214.5" y="-223.5" font-family="FreeSans" font-size="10.00" fill="#000000">PHG4TpcPadPlaneReadout</text>
<text text-anchor="middle" x="282" y="-211.5" font-family="FreeSans" font-size="10.00" fill="#000000">::SetDefaultParameters</text>
</a>
</g>
</g>
<!-- Node1&#45;&gt;Node11 -->
<g id="edge10" class="edge">
<title>Node1&#45;&gt;Node11</title>
<path fill="none" stroke="#191970" d="M99.3677,-323.8438C120.7556,-300.9697 156.0323,-266.8653 193,-246.5 199.9087,-242.6941 207.4332,-239.3925 215.0848,-236.5418"/>
<polygon fill="#191970" stroke="#191970" points="96.5902,-321.6936 92.4017,-331.4254 101.7448,-326.4297 96.5902,-321.6936"/>
</g>
<!-- Node12 -->
<g id="node12" class="node">
<title>Node12</title>
<g id="a_node12"><a xlink:href="../../d7/ddb/classPHG4TpcElectronDrift.html#a2178bd103290c0da316711f99da9ca74" target="_top" xlink:title="PHG4TpcElectronDrift\l::SetDefaultParameters">
<polygon fill="none" stroke="#000000" points="215,-153.5 215,-185.5 349,-185.5 349,-153.5 215,-153.5"/>
<text text-anchor="start" x="223" y="-172.5" font-family="FreeSans" font-size="10.00" fill="#000000">PHG4TpcElectronDrift</text>
<text text-anchor="middle" x="282" y="-160.5" font-family="FreeSans" font-size="10.00" fill="#000000">::SetDefaultParameters</text>
</a>
</g>
</g>
<!-- Node1&#45;&gt;Node12 -->
<g id="edge11" class="edge">
<title>Node1&#45;&gt;Node12</title>
<path fill="none" stroke="#191970" d="M90.8681,-322.2601C108.749,-288.3906 145.0091,-228.6652 193,-195.5 199.6213,-190.9242 207.0513,-187.144 214.7214,-184.0231"/>
<polygon fill="#191970" stroke="#191970" points="87.5847,-320.9912 86.1166,-331.4839 93.8076,-324.1969 87.5847,-320.9912"/>
</g>
<!-- Node13 -->
<g id="node13" class="node">
<title>Node13</title>
<g id="a_node13"><a xlink:href="../../d6/d5c/classPHG4MicromegasHitReco.html#af820e58adfa9e484bd0d465b967a8fdd" target="_top" xlink:title="parameters">
<polygon fill="none" stroke="#000000" points="210,-102.5 210,-134.5 354,-134.5 354,-102.5 210,-102.5"/>
<text text-anchor="start" x="218" y="-121.5" font-family="FreeSans" font-size="10.00" fill="#000000">PHG4MicromegasHitReco</text>
<text text-anchor="middle" x="282" y="-109.5" font-family="FreeSans" font-size="10.00" fill="#000000">::SetDefaultParameters</text>
</a>
</g>
</g>
<!-- Node1&#45;&gt;Node13 -->
<g id="edge12" class="edge">
<title>Node1&#45;&gt;Node13</title>
<path fill="none" stroke="#191970" d="M86.0354,-321.5097C99.9252,-278.2397 133.7026,-191.5493 193,-144.5 198.044,-140.4978 203.6846,-137.1116 209.6123,-134.2465"/>
<polygon fill="#191970" stroke="#191970" points="82.6243,-320.6927 83.0021,-331.2808 89.3096,-322.7681 82.6243,-320.6927"/>
</g>
<!-- Node14 -->
<g id="node14" class="node">
<title>Node14</title>
<g id="a_node14"><a xlink:href="../../d1/dec/classHcalRawTowerBuilder.html#a4b996e0a13bd90837ea79ce7920bacc7" target="_top" xlink:title="HcalRawTowerBuilder\l::SetDefaultParameters">
<polygon fill="none" stroke="#000000" points="215,-51.5 215,-83.5 349,-83.5 349,-51.5 215,-51.5"/>
<text text-anchor="start" x="223" y="-70.5" font-family="FreeSans" font-size="10.00" fill="#000000">HcalRawTowerBuilder</text>
<text text-anchor="middle" x="282" y="-58.5" font-family="FreeSans" font-size="10.00" fill="#000000">::SetDefaultParameters</text>
</a>
</g>
</g>
<!-- Node1&#45;&gt;Node14 -->
<g id="edge13" class="edge">
<title>Node1&#45;&gt;Node14</title>
<path fill="none" stroke="#191970" d="M82.8341,-321.3772C92.7493,-269.9633 121.9505,-155.2838 193,-93.5 199.3164,-88.0073 206.7389,-83.6733 214.5575,-80.2539"/>
<polygon fill="#191970" stroke="#191970" points="79.3672,-320.8785 81.0029,-331.3463 86.252,-322.1432 79.3672,-320.8785"/>
</g>
<!-- Node15 -->
<g id="node15" class="node">
<title>Node15</title>
<g id="a_node15"><a xlink:href="../../d3/d27/classTpcSpaceChargeReconstruction.html#ab6198d89ad2dff8458c41e5f265821f4" target="_top" xlink:title="parameters">
<polygon fill="none" stroke="#000000" points="193,-.5 193,-32.5 371,-32.5 371,-.5 193,-.5"/>
<text text-anchor="start" x="201" y="-19.5" font-family="FreeSans" font-size="10.00" fill="#000000">TpcSpaceChargeReconstruction</text>
<text text-anchor="middle" x="282" y="-7.5" font-family="FreeSans" font-size="10.00" fill="#000000">::SetDefaultParameters</text>
</a>
</g>
</g>
<!-- Node1&#45;&gt;Node15 -->
<g id="edge14" class="edge">
<title>Node1&#45;&gt;Node15</title>
<path fill="none" stroke="#191970" d="M80.6309,-321.1887C86.8231,-262.3867 110.0533,-119.4552 193,-42.5 197.1302,-38.6681 201.7947,-35.398 206.7701,-32.6077"/>
<polygon fill="#191970" stroke="#191970" points="77.1462,-320.8627 79.6624,-331.1544 84.1134,-321.5398 77.1462,-320.8627"/>
</g>
</g>
</svg>
