<?xml version="1.0" encoding="UTF-8" standalone="no"?>
<!DOCTYPE svg PUBLIC "-//W3C//DTD SVG 1.1//EN"
 "http://www.w3.org/Graphics/SVG/1.1/DTD/svg11.dtd">
<!-- Generated by graphviz version 2.40.1 (20161225.0304)
 -->
<!-- Title: coresoftware/blob/master/offline/packages/trackbase_historic/SvtxTrack_v3.h Pages: 1 -->
<svg width="2360pt" height="728pt"
 viewBox="0.00 0.00 2360.00 728.00" xmlns="http://www.w3.org/2000/svg" xmlns:xlink="http://www.w3.org/1999/xlink">
<g id="graph0" class="graph" transform="scale(1 1) rotate(0) translate(4 724)">
<title>coresoftware/blob/master/offline/packages/trackbase_historic/SvtxTrack_v3.h</title>
<!-- Node1 -->
<g id="node1" class="node">
<title>Node1</title>
<polygon fill="#bfbfbf" stroke="#000000" points="276.5,-675.5 276.5,-719.5 433.5,-719.5 433.5,-675.5 276.5,-675.5"/>
<text text-anchor="start" x="284.5" y="-706.5" font-family="FreeSans" font-size="10.00" fill="#000000">coresoftware/blob/master</text>
<text text-anchor="start" x="284.5" y="-694.5" font-family="FreeSans" font-size="10.00" fill="#000000">/offline/packages/trackbase</text>
<text text-anchor="middle" x="355" y="-682.5" font-family="FreeSans" font-size="10.00" fill="#000000">_historic/SvtxTrack_v3.h</text>
</g>
<!-- Node2 -->
<g id="node2" class="node">
<title>Node2</title>
<g id="a_node2"><a xlink:href="../../d0/d87/SvtxTrack_8h.html" target="_top" xlink:title="SvtxTrack.h">
<polygon fill="none" stroke="#000000" points="364,-618.5 364,-638.5 438,-638.5 438,-618.5 364,-618.5"/>
<text text-anchor="middle" x="401" y="-625.5" font-family="FreeSans" font-size="10.00" fill="#000000">SvtxTrack.h</text>
</a>
</g>
</g>
<!-- Node1&#45;&gt;Node2 -->
<g id="edge1" class="edge">
<title>Node1&#45;&gt;Node2</title>
<path fill="none" stroke="#191970" d="M369.8079,-675.2882C375.8257,-666.2615 382.7041,-655.9438 388.4677,-647.2984"/>
<polygon fill="#191970" stroke="#191970" points="391.556,-648.9757 394.1909,-638.7137 385.7317,-645.0927 391.556,-648.9757"/>
</g>
<!-- Node3 -->
<g id="node3" class="node">
<title>Node3</title>
<g id="a_node3"><a xlink:href="../../de/de6/SvtxTrackState_8h.html" target="_top" xlink:title="SvtxTrackState.h">
<polygon fill="none" stroke="#000000" points="138.5,-561.5 138.5,-581.5 239.5,-581.5 239.5,-561.5 138.5,-561.5"/>
<text text-anchor="middle" x="189" y="-568.5" font-family="FreeSans" font-size="10.00" fill="#000000">SvtxTrackState.h</text>
</a>
</g>
</g>
<!-- Node1&#45;&gt;Node3 -->
<g id="edge109" class="edge">
<title>Node1&#45;&gt;Node3</title>
<path fill="none" stroke="#191970" d="M310.7875,-675.3981C292.4687,-665.3661 271.4658,-652.6852 254,-639 234.9452,-624.0697 216.0817,-603.6914 203.6245,-589.2424"/>
<polygon fill="#191970" stroke="#191970" points="206.2091,-586.8784 197.0772,-581.5062 200.8658,-591.4005 206.2091,-586.8784"/>
</g>
<!-- Node6 -->
<g id="node6" class="node">
<title>Node6</title>
<polygon fill="none" stroke="#bfbfbf" points="136,-63.5 136,-83.5 196,-83.5 196,-63.5 136,-63.5"/>
<text text-anchor="middle" x="166" y="-70.5" font-family="FreeSans" font-size="10.00" fill="#000000">iostream</text>
</g>
<!-- Node1&#45;&gt;Node6 -->
<g id="edge113" class="edge">
<title>Node1&#45;&gt;Node6</title>
<path fill="none" stroke="#191970" d="M276.214,-685.7468C171.6281,-667.8846 0,-629.705 0,-571.5 0,-571.5 0,-571.5 0,-211.5 0,-145.973 77.4334,-105.5813 126.5288,-86.5571"/>
<polygon fill="#191970" stroke="#191970" points="127.7995,-89.8187 135.9387,-83.0361 125.3462,-83.2627 127.7995,-89.8187"/>
</g>
<!-- Node7 -->
<g id="node7" class="node">
<title>Node7</title>
<g id="a_node7"><a xlink:href="../../d8/d00/TrkrDefs_8h.html" target="_top" xlink:title="Namespace with Trkr key types and utility functions.">
<polygon fill="none" stroke="#000000" points="188,-390.5 188,-410.5 308,-410.5 308,-390.5 188,-390.5"/>
<text text-anchor="middle" x="248" y="-397.5" font-family="FreeSans" font-size="10.00" fill="#000000">trackbase/TrkrDefs.h</text>
</a>
</g>
</g>
<!-- Node1&#45;&gt;Node7 -->
<g id="edge110" class="edge">
<title>Node1&#45;&gt;Node7</title>
<path fill="none" stroke="#191970" d="M343.5643,-675.4236C327.1957,-643.1143 296.9728,-580.7278 278,-525 265.7587,-489.0443 256.4955,-445.6339 251.6871,-420.7303"/>
<polygon fill="#191970" stroke="#191970" points="255.0856,-419.8639 249.7966,-410.6837 248.2063,-421.1585 255.0856,-419.8639"/>
</g>
<!-- Node9 -->
<g id="node9" class="node">
<title>Node9</title>
<polygon fill="none" stroke="#bfbfbf" points="287,-504.5 287,-524.5 335,-524.5 335,-504.5 287,-504.5"/>
<text text-anchor="middle" x="311" y="-511.5" font-family="FreeSans" font-size="10.00" fill="#000000">cmath</text>
</g>
<!-- Node1&#45;&gt;Node9 -->
<g id="edge111" class="edge">
<title>Node1&#45;&gt;Node9</title>
<path fill="none" stroke="#191970" d="M349.6926,-675.4259C341.0715,-639.57 324.154,-569.2088 315.8424,-534.6399"/>
<polygon fill="#191970" stroke="#191970" points="319.2084,-533.6676 313.4676,-524.763 312.4024,-535.3041 319.2084,-533.6676"/>
</g>
<!-- Node21 -->
<g id="node21" class="node">
<title>Node21</title>
<polygon fill="none" stroke="#bfbfbf" points="2119,-63.5 2119,-83.5 2173,-83.5 2173,-63.5 2119,-63.5"/>
<text text-anchor="middle" x="2146" y="-70.5" font-family="FreeSans" font-size="10.00" fill="#000000">cstddef</text>
</g>
<!-- Node1&#45;&gt;Node21 -->
<g id="edge112" class="edge">
<title>Node1&#45;&gt;Node21</title>
<path fill="none" stroke="#191970" d="M433.5898,-696.2635C783.6719,-690.2489 2184,-660.6204 2184,-571.5 2184,-571.5 2184,-571.5 2184,-211.5 2184,-167.8435 2166.1044,-119.1161 2154.8748,-92.837"/>
<polygon fill="#191970" stroke="#191970" points="2158.0494,-91.3613 2150.8127,-83.623 2151.6442,-94.1852 2158.0494,-91.3613"/>
</g>
<!-- Node36 -->
<g id="node36" class="node">
<title>Node36</title>
<polygon fill="none" stroke="#bfbfbf" points="1350.5,-132.5 1350.5,-152.5 1395.5,-152.5 1395.5,-132.5 1350.5,-132.5"/>
<text text-anchor="middle" x="1373" y="-139.5" font-family="FreeSans" font-size="10.00" fill="#000000">utility</text>
</g>
<!-- Node1&#45;&gt;Node36 -->
<g id="edge115" class="edge">
<title>Node1&#45;&gt;Node36</title>
<path fill="none" stroke="#191970" d="M433.6004,-695.4159C753.4206,-686.4275 1940,-647.9291 1940,-571.5 1940,-571.5 1940,-571.5 1940,-400.5 1940,-282.2655 1526.3761,-177.7906 1405.6848,-149.8225"/>
<polygon fill="#191970" stroke="#191970" points="1406.1067,-146.3283 1395.577,-147.5009 1404.5397,-153.1507 1406.1067,-146.3283"/>
</g>
<!-- Node45 -->
<g id="node45" class="node">
<title>Node45</title>
<polygon fill="none" stroke="#bfbfbf" points="1740.5,-390.5 1740.5,-410.5 1779.5,-410.5 1779.5,-390.5 1740.5,-390.5"/>
<text text-anchor="middle" x="1760" y="-397.5" font-family="FreeSans" font-size="10.00" fill="#000000">map</text>
</g>
<!-- Node1&#45;&gt;Node45 -->
<g id="edge114" class="edge">
<title>Node1&#45;&gt;Node45</title>
<path fill="none" stroke="#191970" d="M433.509,-688.1986C628.8711,-663.8739 1151.4262,-591.562 1572,-468 1629.177,-451.2018 1694.3043,-426.5404 1730.9446,-412.1416"/>
<polygon fill="#191970" stroke="#191970" points="1732.4799,-415.2983 1740.4934,-408.3676 1729.9069,-408.7884 1732.4799,-415.2983"/>
</g>
<!-- Node2&#45;&gt;Node3 -->
<g id="edge2" class="edge">
<title>Node2&#45;&gt;Node3</title>
<path fill="none" stroke="#191970" d="M363.5867,-618.4408C328.1233,-608.9058 274.7105,-594.5448 236.3075,-584.2195"/>
<polygon fill="#191970" stroke="#191970" points="236.9611,-580.771 226.3953,-581.5544 235.1435,-587.5309 236.9611,-580.771"/>
</g>
<!-- Node4 -->
<g id="node4" class="node">
<title>Node4</title>
<g id="a_node4"><a xlink:href="../../df/d32/PHObject_8h.html" target="_top" xlink:title="phool/PHObject.h">
<polygon fill="none" stroke="#000000" points="66,-390.5 66,-410.5 170,-410.5 170,-390.5 66,-390.5"/>
<text text-anchor="middle" x="118" y="-397.5" font-family="FreeSans" font-size="10.00" fill="#000000">phool/PHObject.h</text>
</a>
</g>
</g>
<!-- Node2&#45;&gt;Node4 -->
<g id="edge103" class="edge">
<title>Node2&#45;&gt;Node4</title>
<path fill="none" stroke="#191970" d="M363.9954,-627.6451C296.9939,-625.2529 159.6644,-616.1959 129,-582 88.6997,-537.0585 102.4666,-457.9903 112.0147,-420.8515"/>
<polygon fill="#191970" stroke="#191970" points="115.5138,-421.3252 114.778,-410.756 108.7621,-419.4772 115.5138,-421.3252"/>
</g>
<!-- Node2&#45;&gt;Node6 -->
<g id="edge106" class="edge">
<title>Node2&#45;&gt;Node6</title>
<path fill="none" stroke="#191970" d="M363.8182,-625.1839C296.1664,-618.7152 155.8825,-603.1713 112,-582 71.9062,-562.6566 38,-559.0161 38,-514.5 38,-514.5 38,-514.5 38,-211.5 38,-153.9618 98.5537,-110.2893 136.3628,-88.6286"/>
<polygon fill="#191970" stroke="#191970" points="138.3847,-91.5097 145.4346,-83.6008 134.9914,-85.3871 138.3847,-91.5097"/>
</g>
<!-- Node2&#45;&gt;Node7 -->
<g id="edge101" class="edge">
<title>Node2&#45;&gt;Node7</title>
<path fill="none" stroke="#191970" d="M397.5723,-618.2524C389.9388,-596.2158 370.132,-543.1485 344,-504 321.5374,-470.3486 288.1237,-437.0577 267.224,-417.6564"/>
<polygon fill="#191970" stroke="#191970" points="269.3578,-414.8648 259.6175,-410.6962 264.6322,-420.0291 269.3578,-414.8648"/>
</g>
<!-- Node2&#45;&gt;Node9 -->
<g id="edge105" class="edge">
<title>Node2&#45;&gt;Node9</title>
<path fill="none" stroke="#191970" d="M393.0131,-618.3833C377.8404,-599.1645 344.6553,-557.1301 325.4728,-532.8322"/>
<polygon fill="#191970" stroke="#191970" points="328.042,-530.438 319.0984,-524.7579 322.5478,-534.7756 328.042,-530.438"/>
</g>
<!-- Node10 -->
<g id="node10" class="node">
<title>Node10</title>
<g id="a_node10"><a xlink:href="../../db/dab/TrackSeed_8h.html" target="_top" xlink:title="TrackSeed.h">
<polygon fill="none" stroke="#000000" points="515,-561.5 515,-581.5 593,-581.5 593,-561.5 515,-561.5"/>
<text text-anchor="middle" x="554" y="-568.5" font-family="FreeSans" font-size="10.00" fill="#000000">TrackSeed.h</text>
</a>
</g>
</g>
<!-- Node2&#45;&gt;Node10 -->
<g id="edge10" class="edge">
<title>Node2&#45;&gt;Node10</title>
<path fill="none" stroke="#191970" d="M428.0011,-618.4408C452.8326,-609.1898 489.8579,-595.3961 517.3534,-585.1527"/>
<polygon fill="#191970" stroke="#191970" points="518.863,-588.3253 527.0119,-581.5544 516.4192,-581.7658 518.863,-588.3253"/>
</g>
<!-- Node2&#45;&gt;Node45 -->
<g id="edge107" class="edge">
<title>Node2&#45;&gt;Node45</title>
<path fill="none" stroke="#191970" d="M438.1482,-624.3713C509.4774,-616.4135 670.5591,-598.2959 806,-582 1007.4679,-557.7598 1059.4416,-561.7878 1259,-525 1469.1099,-486.2671 1520.0605,-467.8802 1726,-411 1727.4515,-410.5991 1728.9348,-410.1793 1730.4308,-409.748"/>
<polygon fill="#191970" stroke="#191970" points="1731.7003,-413.0217 1740.2824,-406.809 1729.6992,-406.3139 1731.7003,-413.0217"/>
</g>
<!-- Node46 -->
<g id="node46" class="node">
<title>Node46</title>
<polygon fill="none" stroke="#bfbfbf" points="1798,-390.5 1798,-410.5 1830,-410.5 1830,-390.5 1798,-390.5"/>
<text text-anchor="middle" x="1814" y="-397.5" font-family="FreeSans" font-size="10.00" fill="#000000">set</text>
</g>
<!-- Node2&#45;&gt;Node46 -->
<g id="edge108" class="edge">
<title>Node2&#45;&gt;Node46</title>
<path fill="none" stroke="#191970" d="M438.0512,-625.7999C523.0351,-619.4684 738.4924,-602.6298 918,-582 1099.4598,-561.1458 1145.3947,-558.2344 1325,-525 1435.7823,-504.5007 1462.6155,-494.981 1572,-468 1665.789,-444.8658 1692.8963,-443.1416 1788.518,-410.839"/>
<polygon fill="#191970" stroke="#191970" points="1789.6508,-414.1507 1797.9901,-407.6157 1787.3957,-407.5239 1789.6508,-414.1507"/>
</g>
<!-- Node49 -->
<g id="node49" class="node">
<title>Node49</title>
<g id="a_node49"><a xlink:href="../../d2/d92/PHG4HitDefs_8h.html" target="_top" xlink:title="g4main/PHG4HitDefs.h">
<polygon fill="none" stroke="#000000" points="1118,-504.5 1118,-524.5 1250,-524.5 1250,-504.5 1118,-504.5"/>
<text text-anchor="middle" x="1184" y="-511.5" font-family="FreeSans" font-size="10.00" fill="#000000">g4main/PHG4HitDefs.h</text>
</a>
</g>
</g>
<!-- Node2&#45;&gt;Node49 -->
<g id="edge102" class="edge">
<title>Node2&#45;&gt;Node49</title>
<path fill="none" stroke="#191970" d="M438.239,-623.0782C559.2488,-605.4599 943.0554,-549.5801 1107.742,-525.6027"/>
<polygon fill="#191970" stroke="#191970" points="1108.4023,-529.0436 1117.7937,-524.1392 1107.3937,-522.1166 1108.4023,-529.0436"/>
</g>
<!-- Node50 -->
<g id="node50" class="node">
<title>Node50</title>
<polygon fill="none" stroke="#bfbfbf" points="429.5,-561.5 429.5,-581.5 482.5,-581.5 482.5,-561.5 429.5,-561.5"/>
<text text-anchor="middle" x="456" y="-568.5" font-family="FreeSans" font-size="10.00" fill="#000000">limits.h</text>
</g>
<!-- Node2&#45;&gt;Node50 -->
<g id="edge104" class="edge">
<title>Node2&#45;&gt;Node50</title>
<path fill="none" stroke="#191970" d="M410.8329,-618.3095C418.654,-610.204 429.7815,-598.672 439.0344,-589.0826"/>
<polygon fill="#191970" stroke="#191970" points="441.8272,-591.2288 446.2522,-581.6022 436.7898,-586.3681 441.8272,-591.2288"/>
</g>
<!-- Node3&#45;&gt;Node4 -->
<g id="edge3" class="edge">
<title>Node3&#45;&gt;Node4</title>
<path fill="none" stroke="#191970" d="M184.7713,-561.3153C173.3049,-533.6992 141.4663,-457.0174 126.2734,-420.426"/>
<polygon fill="#191970" stroke="#191970" points="129.3635,-418.741 122.2964,-410.8476 122.8986,-421.4253 129.3635,-418.741"/>
</g>
<!-- Node3&#45;&gt;Node7 -->
<g id="edge6" class="edge">
<title>Node3&#45;&gt;Node7</title>
<path fill="none" stroke="#191970" d="M192.514,-561.3153C202.0424,-533.6992 228.4998,-457.0174 241.125,-420.426"/>
<polygon fill="#191970" stroke="#191970" points="244.4767,-421.4423 244.4298,-410.8476 237.8595,-419.1591 244.4767,-421.4423"/>
</g>
<!-- Node3&#45;&gt;Node9 -->
<g id="edge9" class="edge">
<title>Node3&#45;&gt;Node9</title>
<path fill="none" stroke="#191970" d="M210.5303,-561.4408C229.8368,-552.4205 258.3875,-539.0813 280.1243,-528.9255"/>
<polygon fill="#191970" stroke="#191970" points="281.6961,-532.0544 289.2745,-524.6504 278.7331,-525.7124 281.6961,-532.0544"/>
</g>
<!-- Node5 -->
<g id="node5" class="node">
<title>Node5</title>
<polygon fill="none" stroke="#bfbfbf" points="104.5,-327.5 104.5,-347.5 169.5,-347.5 169.5,-327.5 104.5,-327.5"/>
<text text-anchor="middle" x="137" y="-334.5" font-family="FreeSans" font-size="10.00" fill="#000000">TObject.h</text>
</g>
<!-- Node4&#45;&gt;Node5 -->
<g id="edge4" class="edge">
<title>Node4&#45;&gt;Node5</title>
<path fill="none" stroke="#191970" d="M121.0527,-390.378C123.7237,-381.5215 127.6821,-368.396 130.9869,-357.4381"/>
<polygon fill="#191970" stroke="#191970" points="134.3552,-358.3909 133.8918,-347.8062 127.6534,-356.3697 134.3552,-358.3909"/>
</g>
<!-- Node4&#45;&gt;Node6 -->
<g id="edge5" class="edge">
<title>Node4&#45;&gt;Node6</title>
<path fill="none" stroke="#191970" d="M112.1601,-390.428C100.6196,-369.5437 76,-319.6942 76,-274.5 76,-274.5 76,-274.5 76,-211.5 76,-160.9528 118.8872,-114.4314 145.4509,-90.4648"/>
<polygon fill="#191970" stroke="#191970" points="147.8813,-92.9889 153.1052,-83.7715 143.2734,-87.7195 147.8813,-92.9889"/>
</g>
<!-- Node7&#45;&gt;Node6 -->
<g id="edge8" class="edge">
<title>Node7&#45;&gt;Node6</title>
<path fill="none" stroke="#191970" d="M242.5492,-390.3118C237.6626,-380.9924 230.4455,-366.7563 225,-354 189.3474,-270.4834 175.5549,-249.07 164,-159 161.1483,-136.7713 162.3546,-111.0325 163.825,-93.65"/>
<polygon fill="#191970" stroke="#191970" points="167.3225,-93.8424 164.7894,-83.5548 160.3542,-93.1766 167.3225,-93.8424"/>
</g>
<!-- Node8 -->
<g id="node8" class="node">
<title>Node8</title>
<polygon fill="none" stroke="#bfbfbf" points="1196.5,-132.5 1196.5,-152.5 1247.5,-152.5 1247.5,-132.5 1196.5,-132.5"/>
<text text-anchor="middle" x="1222" y="-139.5" font-family="FreeSans" font-size="10.00" fill="#000000">cstdint</text>
</g>
<!-- Node7&#45;&gt;Node8 -->
<g id="edge7" class="edge">
<title>Node7&#45;&gt;Node8</title>
<path fill="none" stroke="#191970" d="M267.1201,-390.4156C342.561,-350.7017 617.5186,-206.6972 660,-195 866.6838,-138.0899 928.6573,-188.4538 1141,-159 1155.9848,-156.9215 1172.3631,-153.757 1186.4465,-150.7534"/>
<polygon fill="#191970" stroke="#191970" points="1187.2208,-154.1668 1196.243,-148.6125 1185.7263,-147.3282 1187.2208,-154.1668"/>
</g>
<!-- Node10&#45;&gt;Node4 -->
<g id="edge11" class="edge">
<title>Node10&#45;&gt;Node4</title>
<path fill="none" stroke="#191970" d="M528.354,-561.4416C453.9936,-532.2773 238.1868,-447.6375 153.0901,-414.2624"/>
<polygon fill="#191970" stroke="#191970" points="154.2013,-410.9387 143.6137,-410.5458 151.6454,-417.4554 154.2013,-410.9387"/>
</g>
<!-- Node10&#45;&gt;Node6 -->
<g id="edge98" class="edge">
<title>Node10&#45;&gt;Node6</title>
<path fill="none" stroke="#191970" d="M544.6019,-561.436C494.3208,-507.4557 257.3141,-251.2473 202,-159 189.2509,-137.7383 178.8181,-111.1341 172.5254,-93.2986"/>
<polygon fill="#191970" stroke="#191970" points="175.7848,-92.0132 169.2354,-83.6851 169.1619,-94.2797 175.7848,-92.0132"/>
</g>
<!-- Node10&#45;&gt;Node7 -->
<g id="edge12" class="edge">
<title>Node10&#45;&gt;Node7</title>
<path fill="none" stroke="#191970" d="M524.8649,-561.3893C505.6607,-553.6502 480.8544,-541.4926 463,-525 433.0996,-497.3802 447.5186,-471.4832 415,-447 398.1745,-434.3321 349.8301,-421.6169 309.4599,-412.6925"/>
<polygon fill="#191970" stroke="#191970" points="310.1738,-409.266 299.6589,-410.5644 308.6885,-416.1066 310.1738,-409.266"/>
</g>
<!-- Node10&#45;&gt;Node9 -->
<g id="edge97" class="edge">
<title>Node10&#45;&gt;Node9</title>
<path fill="none" stroke="#191970" d="M514.9531,-563.2092C473.6118,-554.299 406.5133,-539.4605 349,-525 347.7305,-524.6808 346.4386,-524.3507 345.1348,-524.0131"/>
<polygon fill="#191970" stroke="#191970" points="345.642,-520.5263 335.078,-521.3349 343.8405,-527.2905 345.642,-520.5263"/>
</g>
<!-- Node11 -->
<g id="node11" class="node">
<title>Node11</title>
<g id="a_node11"><a xlink:href="../../d7/d3d/ActsGeometry_8h.html" target="_top" xlink:title="trackbase/ActsGeometry.h">
<polygon fill="none" stroke="#000000" points="755.5,-504.5 755.5,-524.5 904.5,-524.5 904.5,-504.5 755.5,-504.5"/>
<text text-anchor="middle" x="830" y="-511.5" font-family="FreeSans" font-size="10.00" fill="#000000">trackbase/ActsGeometry.h</text>
</a>
</g>
</g>
<!-- Node10&#45;&gt;Node11 -->
<g id="edge13" class="edge">
<title>Node10&#45;&gt;Node11</title>
<path fill="none" stroke="#191970" d="M593.251,-563.3938C639.6694,-553.8074 717.3905,-537.7563 771.0508,-526.6743"/>
<polygon fill="#191970" stroke="#191970" points="772.0258,-530.0469 781.1112,-524.5966 770.6099,-523.1915 772.0258,-530.0469"/>
</g>
<!-- Node22 -->
<g id="node22" class="node">
<title>Node22</title>
<polygon fill="none" stroke="#bfbfbf" points="2298,-63.5 2298,-83.5 2352,-83.5 2352,-63.5 2298,-63.5"/>
<text text-anchor="middle" x="2325" y="-70.5" font-family="FreeSans" font-size="10.00" fill="#000000">iterator</text>
</g>
<!-- Node10&#45;&gt;Node22 -->
<g id="edge100" class="edge">
<title>Node10&#45;&gt;Node22</title>
<path fill="none" stroke="#191970" d="M593.0516,-569.8253C699.8534,-565.0507 1005.7149,-550.0743 1259,-525 1451.2836,-505.9646 1501.9975,-512.6137 1690,-468 1765.0808,-450.1831 1783.1981,-441.6864 1854,-411 2008.2345,-344.153 2056.1174,-335.9169 2185,-228 2236.7817,-184.6418 2287.4509,-122.4149 2311.1228,-91.8557"/>
<polygon fill="#191970" stroke="#191970" points="2314.0082,-93.8446 2317.3188,-83.7803 2308.4546,-89.5835 2314.0082,-93.8446"/>
</g>
<!-- Node10&#45;&gt;Node46 -->
<g id="edge99" class="edge">
<title>Node10&#45;&gt;Node46</title>
<path fill="none" stroke="#191970" d="M593.1559,-566.4567C659.2806,-557.9366 797.2896,-540.1404 914,-525 1105.325,-500.1801 1583.9315,-463.3019 1788.0114,-410.635"/>
<polygon fill="#191970" stroke="#191970" points="1789.0464,-413.9816 1797.8148,-408.0347 1787.2517,-407.2156 1789.0464,-413.9816"/>
</g>
<!-- Node48 -->
<g id="node48" class="node">
<title>Node48</title>
<g id="a_node48"><a xlink:href="../../d2/d44/TrkrClusterContainer_8h.html" target="_top" xlink:title="Cluster container base class.">
<polygon fill="none" stroke="#000000" points="505.5,-447.5 505.5,-467.5 686.5,-467.5 686.5,-447.5 505.5,-447.5"/>
<text text-anchor="middle" x="596" y="-454.5" font-family="FreeSans" font-size="10.00" fill="#000000">trackbase/TrkrClusterContainer.h</text>
</a>
</g>
</g>
<!-- Node10&#45;&gt;Node48 -->
<g id="edge89" class="edge">
<title>Node10&#45;&gt;Node48</title>
<path fill="none" stroke="#191970" d="M557.7272,-561.3833C564.6525,-542.586 579.619,-501.9627 588.6478,-477.4559"/>
<polygon fill="#191970" stroke="#191970" points="592.0478,-478.3514 592.2208,-467.7579 585.4794,-475.9314 592.0478,-478.3514"/>
</g>
<!-- Node10&#45;&gt;Node49 -->
<g id="edge95" class="edge">
<title>Node10&#45;&gt;Node49</title>
<path fill="none" stroke="#191970" d="M593.0703,-568.8193C683.2272,-562.4975 912.7367,-545.6258 1104,-525 1105.1142,-524.8798 1106.2369,-524.757 1107.3664,-524.6316"/>
<polygon fill="#191970" stroke="#191970" points="1108.14,-528.0657 1117.674,-523.4449 1107.3393,-521.1117 1108.14,-528.0657"/>
</g>
<!-- Node12 -->
<g id="node12" class="node">
<title>Node12</title>
<g id="a_node12"><a xlink:href="../../da/d51/ActsSurfaceMaps_8h.html" target="_top" xlink:title="maps hitsetids to Acts Surfaces">
<polygon fill="none" stroke="#000000" points="948.5,-447.5 948.5,-467.5 1061.5,-467.5 1061.5,-447.5 948.5,-447.5"/>
<text text-anchor="middle" x="1005" y="-454.5" font-family="FreeSans" font-size="10.00" fill="#000000">ActsSurfaceMaps.h</text>
</a>
</g>
</g>
<!-- Node11&#45;&gt;Node12 -->
<g id="edge14" class="edge">
<title>Node11&#45;&gt;Node12</title>
<path fill="none" stroke="#191970" d="M860.8837,-504.4408C889.6594,-495.0681 932.7517,-481.0323 964.3196,-470.7502"/>
<polygon fill="#191970" stroke="#191970" points="965.7069,-473.9794 974.1313,-467.5544 963.5389,-467.3235 965.7069,-473.9794"/>
</g>
<!-- Node47 -->
<g id="node47" class="node">
<title>Node47</title>
<g id="a_node47"><a xlink:href="../../df/d6f/Units_8hpp.html" target="_top" xlink:title="Acts/Definitions/Units.hpp">
<polygon fill="none" stroke="#000000" points="756,-447.5 756,-467.5 904,-467.5 904,-447.5 756,-447.5"/>
<text text-anchor="middle" x="830" y="-454.5" font-family="FreeSans" font-size="10.00" fill="#000000">Acts/Definitions/Units.hpp</text>
</a>
</g>
</g>
<!-- Node11&#45;&gt;Node47 -->
<g id="edge88" class="edge">
<title>Node11&#45;&gt;Node47</title>
<path fill="none" stroke="#191970" d="M830,-504.3095C830,-496.9335 830,-486.72 830,-477.715"/>
<polygon fill="#191970" stroke="#191970" points="833.5001,-477.6022 830,-467.6022 826.5001,-477.6023 833.5001,-477.6022"/>
</g>
<!-- Node12&#45;&gt;Node7 -->
<g id="edge15" class="edge">
<title>Node12&#45;&gt;Node7</title>
<path fill="none" stroke="#191970" d="M948.1114,-450.6127C936.5039,-449.3185 924.3659,-448.0453 913,-447 684.5169,-425.9859 626.8881,-427.0111 398,-411 372.0218,-409.1828 343.513,-407.1874 318.3904,-405.4287"/>
<polygon fill="#191970" stroke="#191970" points="318.4347,-401.9234 308.2147,-404.7164 317.9458,-408.9063 318.4347,-401.9234"/>
</g>
<!-- Node13 -->
<g id="node13" class="node">
<title>Node13</title>
<g id="a_node13"><a xlink:href="../../d4/d6a/ActsTrackingGeometry_8h.html" target="_top" xlink:title="ActsTrackingGeometry.h">
<polygon fill="none" stroke="#000000" points="935.5,-390.5 935.5,-410.5 1074.5,-410.5 1074.5,-390.5 935.5,-390.5"/>
<text text-anchor="middle" x="1005" y="-397.5" font-family="FreeSans" font-size="10.00" fill="#000000">ActsTrackingGeometry.h</text>
</a>
</g>
</g>
<!-- Node12&#45;&gt;Node13 -->
<g id="edge16" class="edge">
<title>Node12&#45;&gt;Node13</title>
<path fill="none" stroke="#191970" d="M1005,-447.3095C1005,-439.9335 1005,-429.72 1005,-420.715"/>
<polygon fill="#191970" stroke="#191970" points="1008.5001,-420.6022 1005,-410.6022 1001.5001,-420.6023 1008.5001,-420.6022"/>
</g>
<!-- Node14 -->
<g id="node14" class="node">
<title>Node14</title>
<polygon fill="none" stroke="#bfbfbf" points="1139,-63.5 1139,-83.5 1197,-83.5 1197,-63.5 1139,-63.5"/>
<text text-anchor="middle" x="1168" y="-70.5" font-family="FreeSans" font-size="10.00" fill="#000000">memory</text>
</g>
<!-- Node12&#45;&gt;Node14 -->
<g id="edge85" class="edge">
<title>Node12&#45;&gt;Node14</title>
<path fill="none" stroke="#191970" d="M948.3122,-449.3378C817.8294,-430.1684 504.3832,-381.7981 465,-354 377.7339,-292.4045 313.8259,-201.883 389,-126 415.2861,-99.466 973.8926,-79.7014 1128.5946,-74.7219"/>
<polygon fill="#191970" stroke="#191970" points="1128.7242,-78.2197 1138.6074,-74.4022 1128.5007,-71.2232 1128.7242,-78.2197"/>
</g>
<!-- Node15 -->
<g id="node15" class="node">
<title>Node15</title>
<g id="a_node15"><a xlink:href="../../d5/d50/BinnedArray_8hpp.html" target="_top" xlink:title="Acts/Utilities/BinnedArray.hpp">
<polygon fill="none" stroke="#000000" points="1939.5,-201.5 1939.5,-221.5 2106.5,-221.5 2106.5,-201.5 1939.5,-201.5"/>
<text text-anchor="middle" x="2023" y="-208.5" font-family="FreeSans" font-size="10.00" fill="#000000">Acts/Utilities/BinnedArray.hpp</text>
</a>
</g>
</g>
<!-- Node12&#45;&gt;Node15 -->
<g id="edge81" class="edge">
<title>Node12&#45;&gt;Node15</title>
<path fill="none" stroke="#191970" d="M1061.5119,-455.884C1197.3577,-451.6041 1539.1675,-438.3799 1650,-411 1672.6061,-405.4154 1675.9734,-397.5533 1698,-390 1759.5872,-368.8807 1781.5149,-382.6095 1840,-354 1858.0149,-345.1875 1958.8149,-263.7938 2002.6439,-228.1208"/>
<polygon fill="#191970" stroke="#191970" points="2005.0672,-230.661 2010.6087,-221.6309 2000.6454,-225.2344 2005.0672,-230.661"/>
</g>
<!-- Node16 -->
<g id="node16" class="node">
<title>Node16</title>
<g id="a_node16"><a xlink:href="../../da/dd2/Algebra_8hpp.html" target="_top" xlink:title="Acts/Definitions/Algebra.hpp">
<polygon fill="none" stroke="#000000" points="1743,-63.5 1743,-83.5 1905,-83.5 1905,-63.5 1743,-63.5"/>
<text text-anchor="middle" x="1824" y="-70.5" font-family="FreeSans" font-size="10.00" fill="#000000">Acts/Definitions/Algebra.hpp</text>
</a>
</g>
</g>
<!-- Node12&#45;&gt;Node16 -->
<g id="edge82" class="edge">
<title>Node12&#45;&gt;Node16</title>
<path fill="none" stroke="#191970" d="M1061.7033,-450.8484C1189.1349,-433.5679 1503.536,-377.6965 1715,-228 1752.5057,-201.4495 1766.0863,-196.9485 1792,-159 1805.832,-138.7441 1814.6348,-111.7327 1819.4341,-93.536"/>
<polygon fill="#191970" stroke="#191970" points="1822.8582,-94.269 1821.8596,-83.7213 1816.0626,-92.5895 1822.8582,-94.269"/>
</g>
<!-- Node24 -->
<g id="node24" class="node">
<title>Node24</title>
<polygon fill="none" stroke="#bfbfbf" points="2208.5,-63.5 2208.5,-83.5 2257.5,-83.5 2257.5,-63.5 2208.5,-63.5"/>
<text text-anchor="middle" x="2233" y="-70.5" font-family="FreeSans" font-size="10.00" fill="#000000">vector</text>
</g>
<!-- Node12&#45;&gt;Node24 -->
<g id="edge87" class="edge">
<title>Node12&#45;&gt;Node24</title>
<path fill="none" stroke="#191970" d="M1061.7501,-456.3746C1203.5246,-453.1251 1570.2395,-441.9034 1688,-411 1708.959,-405.4998 1711.6092,-397.3311 1732,-390 1794.0793,-367.6806 1813.7328,-375.7898 1876,-354 2003.2767,-309.4608 2043.3223,-307.8265 2152,-228 2185.2276,-203.5935 2195.1323,-195.6574 2214,-159 2224.6682,-138.2731 2229.3729,-111.7089 2231.4307,-93.7317"/>
<polygon fill="#191970" stroke="#191970" points="2234.9373,-93.8324 2232.4184,-83.5414 2227.9699,-93.1571 2234.9373,-93.8324"/>
</g>
<!-- Node25 -->
<g id="node25" class="node">
<title>Node25</title>
<g id="a_node25"><a xlink:href="../../d9/d11/Logger_8hpp.html" target="_top" xlink:title="Acts/Utilities/Logger.hpp">
<polygon fill="none" stroke="#000000" points="434,-201.5 434,-221.5 574,-221.5 574,-201.5 434,-201.5"/>
<text text-anchor="middle" x="504" y="-208.5" font-family="FreeSans" font-size="10.00" fill="#000000">Acts/Utilities/Logger.hpp</text>
</a>
</g>
</g>
<!-- Node12&#45;&gt;Node25 -->
<g id="edge83" class="edge">
<title>Node12&#45;&gt;Node25</title>
<path fill="none" stroke="#191970" d="M948.4791,-448.3675C872.3506,-434.6878 733.8616,-404.8918 625,-354 576.4145,-331.2867 557.4441,-328.4478 526,-285 514.626,-269.284 509.073,-247.6595 506.3991,-231.9369"/>
<polygon fill="#191970" stroke="#191970" points="509.814,-231.0964 504.9188,-221.7003 502.8861,-232.0983 509.814,-231.0964"/>
</g>
<!-- Node12&#45;&gt;Node45 -->
<g id="edge84" class="edge">
<title>Node12&#45;&gt;Node45</title>
<path fill="none" stroke="#191970" d="M1061.523,-448.6648C1066.4125,-448.0451 1071.2892,-447.4778 1076,-447 1363.8549,-417.8054 1441.2107,-462.0672 1726,-411 1727.4822,-410.7342 1728.9904,-410.4239 1730.5062,-410.0798"/>
<polygon fill="#191970" stroke="#191970" points="1731.6637,-413.3936 1740.4249,-407.4362 1729.8609,-406.6297 1731.6637,-413.3936"/>
</g>
<!-- Node12&#45;&gt;Node46 -->
<g id="edge86" class="edge">
<title>Node12&#45;&gt;Node46</title>
<path fill="none" stroke="#191970" d="M1061.5205,-448.6398C1066.4106,-448.0255 1071.288,-447.4663 1076,-447 1388.3585,-416.09 1477.7226,-480.0913 1787.6872,-410.543"/>
<polygon fill="#191970" stroke="#191970" points="1788.8879,-413.8594 1797.8633,-408.2298 1787.3363,-407.0336 1788.8879,-413.8594"/>
</g>
<!-- Node13&#45;&gt;Node14 -->
<g id="edge17" class="edge">
<title>Node13&#45;&gt;Node14</title>
<path fill="none" stroke="#191970" d="M935.3965,-395.6445C841.7648,-388.4862 680.5714,-373.7812 625,-354 495.2112,-307.8003 321.0333,-226.7463 415,-126 439.5499,-99.6789 976.6852,-79.8647 1128.4091,-74.7781"/>
<polygon fill="#191970" stroke="#191970" points="1128.7767,-78.2679 1138.6548,-74.4374 1128.544,-71.2717 1128.7767,-78.2679"/>
</g>
<!-- Node13&#45;&gt;Node15 -->
<g id="edge18" class="edge">
<title>Node13&#45;&gt;Node15</title>
<path fill="none" stroke="#191970" d="M1074.7109,-398.21C1243.7109,-392.3445 1665.8226,-375.7023 1726,-354 1790.0588,-330.8979 1789.0187,-294.307 1850,-264 1886.4545,-245.8825 1930.3757,-232.6474 1964.841,-223.9978"/>
<polygon fill="#191970" stroke="#191970" points="1965.8743,-227.3482 1974.7547,-221.5701 1964.2092,-220.5491 1965.8743,-227.3482"/>
</g>
<!-- Node13&#45;&gt;Node16 -->
<g id="edge33" class="edge">
<title>Node13&#45;&gt;Node16</title>
<path fill="none" stroke="#191970" d="M1074.7856,-396.2231C1148.8651,-390.6158 1268.9541,-378.4634 1370,-354 1512.9485,-319.3919 1551.0296,-305.5525 1676,-228 1718.8266,-201.4232 1731.4087,-195.6591 1766,-159 1785.319,-138.5261 1802.7487,-111.0226 1813.3452,-92.8027"/>
<polygon fill="#191970" stroke="#191970" points="1816.5982,-94.1624 1818.4977,-83.7392 1810.5128,-90.7029 1816.5982,-94.1624"/>
</g>
<!-- Node13&#45;&gt;Node25 -->
<g id="edge34" class="edge">
<title>Node13&#45;&gt;Node25</title>
<path fill="none" stroke="#191970" d="M939.9134,-390.4944C829.3572,-372.4509 610.9278,-331.9423 550,-285 531.8298,-271.0007 518.993,-247.6269 511.578,-230.998"/>
<polygon fill="#191970" stroke="#191970" points="514.7571,-229.5286 507.6625,-221.6599 508.3017,-232.2355 514.7571,-229.5286"/>
</g>
<!-- Node37 -->
<g id="node37" class="node">
<title>Node37</title>
<g id="a_node37"><a xlink:href="../../dd/d24/TrackingGeometry_8hpp.html" target="_top" xlink:title="Acts/Geometry/TrackingGeometry.hpp">
<polygon fill="none" stroke="#ff0000" points="937.5,-327.5 937.5,-347.5 1146.5,-347.5 1146.5,-327.5 937.5,-327.5"/>
<text text-anchor="middle" x="1042" y="-334.5" font-family="FreeSans" font-size="10.00" fill="#000000">Acts/Geometry/TrackingGeometry.hpp</text>
</a>
</g>
</g>
<!-- Node13&#45;&gt;Node37 -->
<g id="edge49" class="edge">
<title>Node13&#45;&gt;Node37</title>
<path fill="none" stroke="#191970" d="M1010.9447,-390.378C1016.2534,-381.3389 1024.1737,-367.853 1030.6868,-356.7631"/>
<polygon fill="#191970" stroke="#191970" points="1033.9009,-358.2016 1035.9471,-347.8062 1027.8649,-354.6566 1033.9009,-358.2016"/>
</g>
<!-- Node42 -->
<g id="node42" class="node">
<title>Node42</title>
<g id="a_node42"><a xlink:href="../../d6/da8/MagneticFieldContext_8hpp.html" target="_top" xlink:title="Acts/MagneticField\l/MagneticFieldContext.hpp">
<polygon fill="none" stroke="#ff0000" points="228,-57.5 228,-89.5 380,-89.5 380,-57.5 228,-57.5"/>
<text text-anchor="start" x="236" y="-76.5" font-family="FreeSans" font-size="10.00" fill="#000000">Acts/MagneticField</text>
<text text-anchor="middle" x="304" y="-64.5" font-family="FreeSans" font-size="10.00" fill="#000000">/MagneticFieldContext.hpp</text>
</a>
</g>
</g>
<!-- Node13&#45;&gt;Node42 -->
<g id="edge74" class="edge">
<title>Node13&#45;&gt;Node42</title>
<path fill="none" stroke="#191970" d="M935.1897,-397.6732C823.7295,-392.4654 610.9123,-379.4803 540,-354 456.4511,-323.9791 435.947,-300.7054 385,-228 355.203,-185.4773 328.9873,-130.6156 314.9204,-99.0137"/>
<polygon fill="#191970" stroke="#191970" points="318.0181,-97.363 310.7909,-89.6158 311.6094,-100.179 318.0181,-97.363"/>
</g>
<!-- Node43 -->
<g id="node43" class="node">
<title>Node43</title>
<g id="a_node43"><a xlink:href="../../d0/d28/CalibrationContext_8hpp.html" target="_top" xlink:title="Acts/Utilities/Calibration\lContext.hpp">
<polygon fill="none" stroke="#ff0000" points="781,-321.5 781,-353.5 919,-353.5 919,-321.5 781,-321.5"/>
<text text-anchor="start" x="789" y="-340.5" font-family="FreeSans" font-size="10.00" fill="#000000">Acts/Utilities/Calibration</text>
<text text-anchor="middle" x="850" y="-328.5" font-family="FreeSans" font-size="10.00" fill="#000000">Context.hpp</text>
</a>
</g>
</g>
<!-- Node13&#45;&gt;Node43 -->
<g id="edge75" class="edge">
<title>Node13&#45;&gt;Node43</title>
<path fill="none" stroke="#191970" d="M980.0966,-390.378C958.2797,-381.5105 925.9338,-368.3634 898.9535,-357.3972"/>
<polygon fill="#191970" stroke="#191970" points="900.242,-354.1429 889.6601,-353.6199 897.6062,-360.6278 900.242,-354.1429"/>
</g>
<!-- Node44 -->
<g id="node44" class="node">
<title>Node44</title>
<g id="a_node44"><a xlink:href="../../db/d3f/MagneticFieldProvider_8hpp.html" target="_top" xlink:title="Acts/MagneticField\l/MagneticFieldProvider.hpp">
<polygon fill="none" stroke="#ff0000" points="1566.5,-126.5 1566.5,-158.5 1719.5,-158.5 1719.5,-126.5 1566.5,-126.5"/>
<text text-anchor="start" x="1574.5" y="-145.5" font-family="FreeSans" font-size="10.00" fill="#000000">Acts/MagneticField</text>
<text text-anchor="middle" x="1643" y="-133.5" font-family="FreeSans" font-size="10.00" fill="#000000">/MagneticFieldProvider.hpp</text>
</a>
</g>
</g>
<!-- Node13&#45;&gt;Node44 -->
<g id="edge76" class="edge">
<title>Node13&#45;&gt;Node44</title>
<path fill="none" stroke="#191970" d="M1074.641,-390.6234C1197.7598,-372.2451 1447.9585,-330.5084 1523,-285 1571.3272,-255.6923 1609.5924,-199.9963 1629.0137,-167.5946"/>
<polygon fill="#191970" stroke="#191970" points="1632.1729,-169.126 1634.2058,-158.728 1626.1323,-165.5887 1632.1729,-169.126"/>
</g>
<!-- Node15&#45;&gt;Node16 -->
<g id="edge19" class="edge">
<title>Node15&#45;&gt;Node16</title>
<path fill="none" stroke="#191970" d="M1999.1293,-201.4439C1977.609,-191.8959 1945.5192,-176.4398 1920,-159 1889.8495,-138.3952 1859.0226,-109.201 1840.7011,-90.815"/>
<polygon fill="#191970" stroke="#191970" points="1843.1621,-88.3258 1833.6531,-83.6535 1838.173,-93.2359 1843.1621,-88.3258"/>
</g>
<!-- Node19 -->
<g id="node19" class="node">
<title>Node19</title>
<g id="a_node19"><a xlink:href="../../d2/d0a/BinUtility_8hpp.html" target="_top" xlink:title="Acts/Utilities/BinUtility.hpp">
<polygon fill="none" stroke="#ff0000" points="1928.5,-132.5 1928.5,-152.5 2079.5,-152.5 2079.5,-132.5 1928.5,-132.5"/>
<text text-anchor="middle" x="2004" y="-139.5" font-family="FreeSans" font-size="10.00" fill="#000000">Acts/Utilities/BinUtility.hpp</text>
</a>
</g>
</g>
<!-- Node15&#45;&gt;Node19 -->
<g id="edge22" class="edge">
<title>Node15&#45;&gt;Node19</title>
<path fill="none" stroke="#191970" d="M2020.1965,-201.3188C2017.39,-191.1269 2012.9972,-175.174 2009.494,-162.4521"/>
<polygon fill="#191970" stroke="#191970" points="2012.8443,-161.4349 2006.815,-152.723 2006.0955,-163.2933 2012.8443,-161.4349"/>
</g>
<!-- Node20 -->
<g id="node20" class="node">
<title>Node20</title>
<polygon fill="none" stroke="#bfbfbf" points="1982.5,-63.5 1982.5,-83.5 2025.5,-83.5 2025.5,-63.5 1982.5,-63.5"/>
<text text-anchor="middle" x="2004" y="-70.5" font-family="FreeSans" font-size="10.00" fill="#000000">array</text>
</g>
<!-- Node15&#45;&gt;Node20 -->
<g id="edge31" class="edge">
<title>Node15&#45;&gt;Node20</title>
<path fill="none" stroke="#191970" d="M2043.9411,-201.4151C2059.5523,-192.6221 2079.7132,-178.2537 2089,-159 2095.3718,-145.7897 2096.1439,-138.8092 2089,-126 2077.5085,-105.3955 2054.2323,-91.8653 2034.9386,-83.7087"/>
<polygon fill="#191970" stroke="#191970" points="2036.1638,-80.4296 2025.5767,-80.0264 2033.6016,-86.9439 2036.1638,-80.4296"/>
</g>
<!-- Node15&#45;&gt;Node24 -->
<g id="edge32" class="edge">
<title>Node15&#45;&gt;Node24</title>
<path fill="none" stroke="#191970" d="M2064.571,-201.4263C2093.178,-193.1503 2131.0825,-179.428 2160,-159 2185.8927,-140.7088 2208.315,-111.2105 2221.2478,-92.089"/>
<polygon fill="#191970" stroke="#191970" points="2224.2398,-93.9091 2226.8079,-83.6302 2218.3903,-90.0641 2224.2398,-93.9091"/>
</g>
<!-- Node17 -->
<g id="node17" class="node">
<title>Node17</title>
<polygon fill="none" stroke="#bfbfbf" points="1736.5,-.5 1736.5,-20.5 1807.5,-20.5 1807.5,-.5 1736.5,-.5"/>
<text text-anchor="middle" x="1772" y="-7.5" font-family="FreeSans" font-size="10.00" fill="#000000">Eigen/Core</text>
</g>
<!-- Node16&#45;&gt;Node17 -->
<g id="edge20" class="edge">
<title>Node16&#45;&gt;Node17</title>
<path fill="none" stroke="#191970" d="M1815.6453,-63.378C1807.9584,-54.0649 1796.3752,-40.0316 1787.0731,-28.7617"/>
<polygon fill="#191970" stroke="#191970" points="1789.5717,-26.2905 1780.5067,-20.8062 1784.1731,-30.7465 1789.5717,-26.2905"/>
</g>
<!-- Node18 -->
<g id="node18" class="node">
<title>Node18</title>
<polygon fill="none" stroke="#bfbfbf" points="1826,-.5 1826,-20.5 1924,-20.5 1924,-.5 1826,-.5"/>
<text text-anchor="middle" x="1875" y="-7.5" font-family="FreeSans" font-size="10.00" fill="#000000">Eigen/Geometry</text>
</g>
<!-- Node16&#45;&gt;Node18 -->
<g id="edge21" class="edge">
<title>Node16&#45;&gt;Node18</title>
<path fill="none" stroke="#191970" d="M1832.194,-63.378C1839.7331,-54.0649 1851.0935,-40.0316 1860.2167,-28.7617"/>
<polygon fill="#191970" stroke="#191970" points="1863.0852,-30.7809 1866.6569,-20.8062 1857.6445,-26.3765 1863.0852,-30.7809"/>
</g>
<!-- Node19&#45;&gt;Node6 -->
<g id="edge26" class="edge">
<title>Node19&#45;&gt;Node6</title>
<path fill="none" stroke="#191970" d="M1928.4598,-137.2315C1873.232,-133.5591 1796.4991,-128.8287 1729,-126 1393.6434,-111.9463 550.2114,-144.4106 219,-90 213.7846,-89.1432 208.3714,-87.8963 203.0844,-86.4656"/>
<polygon fill="#191970" stroke="#191970" points="203.7397,-83.01 193.1582,-83.5424 201.7621,-89.7249 203.7397,-83.01"/>
</g>
<!-- Node19&#45;&gt;Node14 -->
<g id="edge28" class="edge">
<title>Node19&#45;&gt;Node14</title>
<path fill="none" stroke="#191970" d="M1928.3361,-136.255C1755.7355,-122.0093 1337.7971,-87.5144 1207.4811,-76.7586"/>
<polygon fill="#191970" stroke="#191970" points="1207.4384,-73.2433 1197.1844,-75.9088 1206.8626,-80.2195 1207.4384,-73.2433"/>
</g>
<!-- Node19&#45;&gt;Node16 -->
<g id="edge23" class="edge">
<title>Node19&#45;&gt;Node16</title>
<path fill="none" stroke="#191970" d="M1977.8265,-132.4668C1946.7658,-120.5602 1894.8087,-100.6433 1859.9815,-87.2929"/>
<polygon fill="#191970" stroke="#191970" points="1860.7954,-83.8566 1850.2051,-83.5453 1858.2898,-90.3928 1860.7954,-83.8566"/>
</g>
<!-- Node19&#45;&gt;Node20 -->
<g id="edge24" class="edge">
<title>Node19&#45;&gt;Node20</title>
<path fill="none" stroke="#191970" d="M2004,-132.3188C2004,-122.2289 2004,-106.4925 2004,-93.8347"/>
<polygon fill="#191970" stroke="#191970" points="2007.5001,-93.7229 2004,-83.723 2000.5001,-93.723 2007.5001,-93.7229"/>
</g>
<!-- Node19&#45;&gt;Node21 -->
<g id="edge25" class="edge">
<title>Node19&#45;&gt;Node21</title>
<path fill="none" stroke="#191970" d="M2024.648,-132.4668C2048.7308,-120.7646 2088.7373,-101.3248 2116.1878,-87.9862"/>
<polygon fill="#191970" stroke="#191970" points="2117.8624,-91.0639 2125.3271,-83.5453 2114.803,-84.7678 2117.8624,-91.0639"/>
</g>
<!-- Node19&#45;&gt;Node22 -->
<g id="edge27" class="edge">
<title>Node19&#45;&gt;Node22</title>
<path fill="none" stroke="#191970" d="M2060.9778,-132.4888C2114.4434,-122.7732 2196.5107,-107.0331 2267,-90 2273.8371,-88.3479 2281.0804,-86.4264 2288.0459,-84.4908"/>
<polygon fill="#191970" stroke="#191970" points="2289.3075,-87.7711 2297.9725,-81.6745 2287.3968,-81.0369 2289.3075,-87.7711"/>
</g>
<!-- Node23 -->
<g id="node23" class="node">
<title>Node23</title>
<polygon fill="none" stroke="#bfbfbf" points="1477.5,-63.5 1477.5,-83.5 1522.5,-83.5 1522.5,-63.5 1477.5,-63.5"/>
<text text-anchor="middle" x="1500" y="-70.5" font-family="FreeSans" font-size="10.00" fill="#000000">string</text>
</g>
<!-- Node19&#45;&gt;Node23 -->
<g id="edge29" class="edge">
<title>Node19&#45;&gt;Node23</title>
<path fill="none" stroke="#191970" d="M1930.7141,-132.4668C1819.4075,-117.2284 1612.264,-88.8695 1532.4849,-77.9473"/>
<polygon fill="#191970" stroke="#191970" points="1532.9119,-74.4732 1522.5295,-76.5844 1531.9623,-81.4085 1532.9119,-74.4732"/>
</g>
<!-- Node19&#45;&gt;Node24 -->
<g id="edge30" class="edge">
<title>Node19&#45;&gt;Node24</title>
<path fill="none" stroke="#191970" d="M2039.2062,-132.4098C2075.1736,-122.0325 2132.5961,-105.2747 2182,-90 2187.39,-88.3335 2193.0874,-86.531 2198.6441,-84.7503"/>
<polygon fill="#191970" stroke="#191970" points="2199.956,-88.0048 2208.3978,-81.6027 2197.8062,-81.343 2199.956,-88.0048"/>
</g>
<!-- Node25&#45;&gt;Node6 -->
<g id="edge40" class="edge">
<title>Node25&#45;&gt;Node6</title>
<path fill="none" stroke="#191970" d="M479.4196,-201.4642C420.0547,-177.2265 268.7295,-115.4428 200.403,-87.5462"/>
<polygon fill="#191970" stroke="#191970" points="201.5262,-84.2243 190.9451,-83.6847 198.8802,-90.705 201.5262,-84.2243"/>
</g>
<!-- Node25&#45;&gt;Node14 -->
<g id="edge41" class="edge">
<title>Node25&#45;&gt;Node14</title>
<path fill="none" stroke="#191970" d="M482.9801,-201.4336C452.1184,-185.3844 400.7974,-153.0488 426,-126 450.1528,-100.0779 978.3011,-80.0142 1128.487,-74.8177"/>
<polygon fill="#191970" stroke="#191970" points="1128.761,-78.3104 1138.635,-74.4693 1128.5208,-71.3145 1128.761,-78.3104"/>
</g>
<!-- Node25&#45;&gt;Node23 -->
<g id="edge45" class="edge">
<title>Node25&#45;&gt;Node23</title>
<path fill="none" stroke="#191970" d="M572.629,-201.4791C590.0165,-199.1438 608.6753,-196.8129 626,-195 840.9748,-172.505 901.0206,-210.2723 1111,-159 1147.17,-150.1681 1152.2776,-136.4968 1188,-126 1287.2661,-96.8313 1409.365,-82.164 1466.9564,-76.4496"/>
<polygon fill="#191970" stroke="#191970" points="1467.6469,-79.8993 1477.2644,-75.4548 1466.9744,-72.9317 1467.6469,-79.8993"/>
</g>
<!-- Node26 -->
<g id="node26" class="node">
<title>Node26</title>
<polygon fill="none" stroke="#bfbfbf" points="434.5,-132.5 434.5,-152.5 487.5,-152.5 487.5,-132.5 434.5,-132.5"/>
<text text-anchor="middle" x="461" y="-139.5" font-family="FreeSans" font-size="10.00" fill="#000000">cassert</text>
</g>
<!-- Node25&#45;&gt;Node26 -->
<g id="edge35" class="edge">
<title>Node25&#45;&gt;Node26</title>
<path fill="none" stroke="#191970" d="M497.6552,-201.3188C491.1132,-190.8212 480.7623,-174.2116 472.7259,-161.316"/>
<polygon fill="#191970" stroke="#191970" points="475.6302,-159.3587 467.3708,-152.723 469.6894,-163.061 475.6302,-159.3587"/>
</g>
<!-- Node27 -->
<g id="node27" class="node">
<title>Node27</title>
<polygon fill="none" stroke="#bfbfbf" points="506,-132.5 506,-152.5 550,-152.5 550,-132.5 506,-132.5"/>
<text text-anchor="middle" x="528" y="-139.5" font-family="FreeSans" font-size="10.00" fill="#000000">ctime</text>
</g>
<!-- Node25&#45;&gt;Node27 -->
<g id="edge36" class="edge">
<title>Node25&#45;&gt;Node27</title>
<path fill="none" stroke="#191970" d="M507.5413,-201.3188C511.0863,-191.1269 516.6351,-175.174 521.0602,-162.4521"/>
<polygon fill="#191970" stroke="#191970" points="524.4647,-163.3178 524.4442,-152.723 517.8532,-161.0181 524.4647,-163.3178"/>
</g>
<!-- Node28 -->
<g id="node28" class="node">
<title>Node28</title>
<polygon fill="none" stroke="#bfbfbf" points="568.5,-132.5 568.5,-152.5 633.5,-152.5 633.5,-132.5 568.5,-132.5"/>
<text text-anchor="middle" x="601" y="-139.5" font-family="FreeSans" font-size="10.00" fill="#000000">exception</text>
</g>
<!-- Node25&#45;&gt;Node28 -->
<g id="edge37" class="edge">
<title>Node25&#45;&gt;Node28</title>
<path fill="none" stroke="#191970" d="M518.3127,-201.3188C534.1448,-190.0568 559.8659,-171.7603 578.4202,-158.5619"/>
<polygon fill="#191970" stroke="#191970" points="580.5087,-161.3715 586.6286,-152.723 576.4511,-155.6674 580.5087,-161.3715"/>
</g>
<!-- Node29 -->
<g id="node29" class="node">
<title>Node29</title>
<polygon fill="none" stroke="#bfbfbf" points="1266,-132.5 1266,-152.5 1332,-152.5 1332,-132.5 1266,-132.5"/>
<text text-anchor="middle" x="1299" y="-139.5" font-family="FreeSans" font-size="10.00" fill="#000000">functional</text>
</g>
<!-- Node25&#45;&gt;Node29 -->
<g id="edge38" class="edge">
<title>Node25&#45;&gt;Node29</title>
<path fill="none" stroke="#191970" d="M574.2157,-203.3922C601.033,-200.4746 631.909,-197.3314 660,-195 924.9046,-173.0148 997.4348,-216.3033 1257,-159 1260.4712,-158.2337 1264.0313,-157.2207 1267.5399,-156.0724"/>
<polygon fill="#191970" stroke="#191970" points="1268.9712,-159.2763 1277.1743,-152.5712 1266.5803,-152.6973 1268.9712,-159.2763"/>
</g>
<!-- Node30 -->
<g id="node30" class="node">
<title>Node30</title>
<polygon fill="none" stroke="#bfbfbf" points="651.5,-132.5 651.5,-152.5 708.5,-152.5 708.5,-132.5 651.5,-132.5"/>
<text text-anchor="middle" x="680" y="-139.5" font-family="FreeSans" font-size="10.00" fill="#000000">iomanip</text>
</g>
<!-- Node25&#45;&gt;Node30 -->
<g id="edge39" class="edge">
<title>Node25&#45;&gt;Node30</title>
<path fill="none" stroke="#191970" d="M532.1426,-201.4174C560.3558,-191.1817 604.95,-174.6543 643,-159 644.805,-158.2574 646.6534,-157.4819 648.5146,-156.6894"/>
<polygon fill="#191970" stroke="#191970" points="650.0108,-159.8555 657.7859,-152.6583 647.2196,-153.436 650.0108,-159.8555"/>
</g>
<!-- Node31 -->
<g id="node31" class="node">
<title>Node31</title>
<polygon fill="none" stroke="#bfbfbf" points="726.5,-132.5 726.5,-152.5 783.5,-152.5 783.5,-132.5 726.5,-132.5"/>
<text text-anchor="middle" x="755" y="-139.5" font-family="FreeSans" font-size="10.00" fill="#000000">optional</text>
</g>
<!-- Node25&#45;&gt;Node31 -->
<g id="edge42" class="edge">
<title>Node25&#45;&gt;Node31</title>
<path fill="none" stroke="#191970" d="M556.2033,-201.4243C600.0016,-192.325 663.8959,-177.5336 718,-159 720.2457,-158.2307 722.5423,-157.3775 724.8374,-156.4759"/>
<polygon fill="#191970" stroke="#191970" points="726.2557,-159.6765 734.1295,-152.5875 723.5535,-153.2191 726.2557,-159.6765"/>
</g>
<!-- Node32 -->
<g id="node32" class="node">
<title>Node32</title>
<polygon fill="none" stroke="#bfbfbf" points="802,-132.5 802,-152.5 858,-152.5 858,-132.5 802,-132.5"/>
<text text-anchor="middle" x="830" y="-139.5" font-family="FreeSans" font-size="10.00" fill="#000000">sstream</text>
</g>
<!-- Node25&#45;&gt;Node32 -->
<g id="edge43" class="edge">
<title>Node25&#45;&gt;Node32</title>
<path fill="none" stroke="#191970" d="M554.1608,-201.4756C565.2941,-199.2985 577.0414,-197.0383 588,-195 678.9455,-178.0842 704.5354,-186.0416 793,-159 795.413,-158.2624 797.8763,-157.4075 800.3285,-156.4826"/>
<polygon fill="#191970" stroke="#191970" points="801.6836,-159.7098 809.6007,-152.6692 799.021,-153.236 801.6836,-159.7098"/>
</g>
<!-- Node33 -->
<g id="node33" class="node">
<title>Node33</title>
<polygon fill="none" stroke="#bfbfbf" points="876,-132.5 876,-152.5 942,-152.5 942,-132.5 876,-132.5"/>
<text text-anchor="middle" x="909" y="-139.5" font-family="FreeSans" font-size="10.00" fill="#000000">stdexcept</text>
</g>
<!-- Node25&#45;&gt;Node33 -->
<g id="edge44" class="edge">
<title>Node25&#45;&gt;Node33</title>
<path fill="none" stroke="#191970" d="M552.3192,-201.4457C563.9754,-199.1762 576.4111,-196.8838 588,-195 711.4082,-174.9399 745.9,-190.0933 867,-159 870.187,-158.1817 873.4587,-157.1878 876.7016,-156.0979"/>
<polygon fill="#191970" stroke="#191970" points="878.0365,-159.3366 886.2303,-152.62 875.6364,-152.761 878.0365,-159.3366"/>
</g>
<!-- Node34 -->
<g id="node34" class="node">
<title>Node34</title>
<polygon fill="none" stroke="#bfbfbf" points="960,-132.5 960,-152.5 1034,-152.5 1034,-132.5 960,-132.5"/>
<text text-anchor="middle" x="997" y="-139.5" font-family="FreeSans" font-size="10.00" fill="#000000">string_view</text>
</g>
<!-- Node25&#45;&gt;Node34 -->
<g id="edge46" class="edge">
<title>Node25&#45;&gt;Node34</title>
<path fill="none" stroke="#191970" d="M550.9566,-201.4582C562.9923,-199.1097 575.9435,-196.7778 588,-195 748.3904,-171.3489 792.8406,-194.6375 951,-159 954.8927,-158.1229 958.9076,-157.0111 962.8686,-155.7806"/>
<polygon fill="#191970" stroke="#191970" points="964.1386,-159.0462 972.5027,-152.543 961.9087,-152.4109 964.1386,-159.0462"/>
</g>
<!-- Node35 -->
<g id="node35" class="node">
<title>Node35</title>
<polygon fill="none" stroke="#bfbfbf" points="1052.5,-132.5 1052.5,-152.5 1101.5,-152.5 1101.5,-132.5 1052.5,-132.5"/>
<text text-anchor="middle" x="1077" y="-139.5" font-family="FreeSans" font-size="10.00" fill="#000000">thread</text>
</g>
<!-- Node25&#45;&gt;Node35 -->
<g id="edge47" class="edge">
<title>Node25&#45;&gt;Node35</title>
<path fill="none" stroke="#191970" d="M550.0539,-201.4635C562.3365,-199.0585 575.632,-196.6983 588,-195 788.9685,-167.4048 847.2474,-212.2048 1043,-159 1045.3506,-158.3611 1047.7344,-157.5606 1050.0924,-156.6586"/>
<polygon fill="#191970" stroke="#191970" points="1051.7387,-159.7584 1059.4892,-152.5348 1048.9257,-153.3485 1051.7387,-159.7584"/>
</g>
<!-- Node25&#45;&gt;Node36 -->
<g id="edge48" class="edge">
<title>Node25&#45;&gt;Node36</title>
<path fill="none" stroke="#191970" d="M574.2067,-203.2813C601.023,-200.3505 631.9005,-197.2272 660,-195 811.0708,-183.0259 1194.7233,-198.6093 1341,-159 1343.1569,-158.4159 1345.3355,-157.6732 1347.4875,-156.8276"/>
<polygon fill="#191970" stroke="#191970" points="1348.9817,-159.9929 1356.6037,-152.6338 1346.0562,-153.6335 1348.9817,-159.9929"/>
</g>
<!-- Node37&#45;&gt;Node14 -->
<g id="edge71" class="edge">
<title>Node37&#45;&gt;Node14</title>
<path fill="none" stroke="#191970" d="M971.2407,-327.487C871.4287,-311.7446 697.2573,-277.7789 660,-228 651.2116,-216.258 650.0503,-205.7756 660,-195 728.2062,-121.1325 1024.3148,-209.9329 1111,-159 1136.1486,-144.2236 1152.4242,-113.4462 1160.9025,-93.1338"/>
<polygon fill="#191970" stroke="#191970" points="1164.2461,-94.1937 1164.6311,-83.6059 1157.7275,-91.6427 1164.2461,-94.1937"/>
</g>
<!-- Node37&#45;&gt;Node16 -->
<g id="edge50" class="edge">
<title>Node37&#45;&gt;Node16</title>
<path fill="none" stroke="#191970" d="M1146.5587,-331.4433C1266.6022,-323.552 1455.622,-307.9906 1523,-285 1646.4812,-242.866 1764.5618,-133.2966 1807.2299,-90.7476"/>
<polygon fill="#191970" stroke="#191970" points="1809.7477,-93.1793 1814.3037,-83.6141 1804.7771,-88.2504 1809.7477,-93.1793"/>
</g>
<!-- Node37&#45;&gt;Node23 -->
<g id="edge72" class="edge">
<title>Node37&#45;&gt;Node23</title>
<path fill="none" stroke="#191970" d="M1146.6907,-332.8228C1275.3755,-325.9791 1479.6835,-311.1226 1503,-285 1551.3649,-230.8145 1523.2066,-134.1119 1507.8985,-92.9319"/>
<polygon fill="#191970" stroke="#191970" points="1511.1239,-91.5686 1504.2519,-83.5047 1504.5953,-94.094 1511.1239,-91.5686"/>
</g>
<!-- Node37&#45;&gt;Node25 -->
<g id="edge70" class="edge">
<title>Node37&#45;&gt;Node25</title>
<path fill="none" stroke="#191970" d="M975.7484,-327.4738C960.1064,-325.2278 943.4774,-322.9387 928,-321 777.2225,-302.1132 727.2307,-345.8718 588,-285 559.6195,-272.592 533.9316,-247.024 518.6382,-229.5673"/>
<polygon fill="#191970" stroke="#191970" points="521.1378,-227.1034 511.9994,-221.7424 515.8001,-231.6321 521.1378,-227.1034"/>
</g>
<!-- Node37&#45;&gt;Node36 -->
<g id="edge73" class="edge">
<title>Node37&#45;&gt;Node36</title>
<path fill="none" stroke="#191970" d="M1023.2855,-327.43C981.1769,-303.5602 885.9087,-242.0208 929,-195 991.0934,-127.2444 1252.7159,-184.5408 1341,-159 1343.1466,-158.379 1345.3177,-157.6097 1347.4646,-156.7455"/>
<polygon fill="#191970" stroke="#191970" points="1348.9755,-159.9029 1356.5708,-152.5163 1346.027,-153.5542 1348.9755,-159.9029"/>
</g>
<!-- Node38 -->
<g id="node38" class="node">
<title>Node38</title>
<g id="a_node38"><a xlink:href="../../d1/db8/GeometryContext_8hpp.html" target="_top" xlink:title="Acts/Geometry/GeometryContext.hpp">
<polygon fill="none" stroke="#ff0000" points="938,-201.5 938,-221.5 1146,-221.5 1146,-201.5 938,-201.5"/>
<text text-anchor="middle" x="1042" y="-208.5" font-family="FreeSans" font-size="10.00" fill="#000000">Acts/Geometry/GeometryContext.hpp</text>
</a>
</g>
</g>
<!-- Node37&#45;&gt;Node38 -->
<g id="edge51" class="edge">
<title>Node37&#45;&gt;Node38</title>
<path fill="none" stroke="#191970" d="M1042,-327.1889C1042,-306.4121 1042,-259.1771 1042,-231.923"/>
<polygon fill="#191970" stroke="#191970" points="1045.5001,-231.6014 1042,-221.6014 1038.5001,-231.6015 1045.5001,-231.6014"/>
</g>
<!-- Node39 -->
<g id="node39" class="node">
<title>Node39</title>
<g id="a_node39"><a xlink:href="../../d5/d67/GeometryIdentifier_8hpp.html" target="_top" xlink:title="Acts/Geometry/GeometryIdentifier.hpp">
<polygon fill="none" stroke="#ff0000" points="668.5,-201.5 668.5,-221.5 881.5,-221.5 881.5,-201.5 668.5,-201.5"/>
<text text-anchor="middle" x="775" y="-208.5" font-family="FreeSans" font-size="10.00" fill="#000000">Acts/Geometry/GeometryIdentifier.hpp</text>
</a>
</g>
</g>
<!-- Node37&#45;&gt;Node39 -->
<g id="edge52" class="edge">
<title>Node37&#45;&gt;Node39</title>
<path fill="none" stroke="#191970" d="M1008.1754,-327.4676C978.0759,-318.0438 933.1893,-302.7599 896,-285 860.2061,-267.9064 821.4551,-243.1551 797.7001,-227.1941"/>
<polygon fill="#191970" stroke="#191970" points="799.6078,-224.2589 789.3674,-221.5415 795.6781,-230.0519 799.6078,-224.2589"/>
</g>
<!-- Node40 -->
<g id="node40" class="node">
<title>Node40</title>
<g id="a_node40"><a xlink:href="../../d7/db7/SurfaceVisitorConcept_8hpp.html" target="_top" xlink:title="Acts/Geometry/SurfaceVisitor\lConcept.hpp">
<polygon fill="none" stroke="#ff0000" points="1164.5,-195.5 1164.5,-227.5 1331.5,-227.5 1331.5,-195.5 1164.5,-195.5"/>
<text text-anchor="start" x="1172.5" y="-214.5" font-family="FreeSans" font-size="10.00" fill="#000000">Acts/Geometry/SurfaceVisitor</text>
<text text-anchor="middle" x="1248" y="-202.5" font-family="FreeSans" font-size="10.00" fill="#000000">Concept.hpp</text>
</a>
</g>
</g>
<!-- Node37&#45;&gt;Node40 -->
<g id="edge56" class="edge">
<title>Node37&#45;&gt;Node40</title>
<path fill="none" stroke="#191970" d="M1058.5096,-327.4019C1091.8959,-306.9811 1168.0685,-260.3901 1213.0092,-232.9022"/>
<polygon fill="#191970" stroke="#191970" points="1214.8544,-235.8764 1221.5589,-227.6727 1211.2019,-229.9048 1214.8544,-235.8764"/>
</g>
<!-- Node41 -->
<g id="node41" class="node">
<title>Node41</title>
<g id="a_node41"><a xlink:href="../../df/d37/TrackingVolume_8hpp.html" target="_top" xlink:title="Acts/Geometry/TrackingVolume.hpp">
<polygon fill="none" stroke="#ff0000" points="1296,-264.5 1296,-284.5 1494,-284.5 1494,-264.5 1296,-264.5"/>
<text text-anchor="middle" x="1395" y="-271.5" font-family="FreeSans" font-size="10.00" fill="#000000">Acts/Geometry/TrackingVolume.hpp</text>
</a>
</g>
</g>
<!-- Node37&#45;&gt;Node41 -->
<g id="edge57" class="edge">
<title>Node37&#45;&gt;Node41</title>
<path fill="none" stroke="#191970" d="M1098.3242,-327.4478C1161.089,-316.2461 1262.4661,-298.1534 1328.9271,-286.292"/>
<polygon fill="#191970" stroke="#191970" points="1329.6469,-289.719 1338.8764,-284.5164 1328.417,-282.8279 1329.6469,-289.719"/>
</g>
<!-- Node39&#45;&gt;Node8 -->
<g id="edge53" class="edge">
<title>Node39&#45;&gt;Node8</title>
<path fill="none" stroke="#191970" d="M847.6055,-201.4753C863.5457,-199.309 880.339,-197.0534 896,-195 1023.0269,-178.3448 1058.1335,-191.7159 1182,-159 1184.9551,-158.2195 1187.9813,-157.2703 1190.9814,-156.2257"/>
<polygon fill="#191970" stroke="#191970" points="1192.2572,-159.4851 1200.3558,-152.6541 1189.765,-152.9438 1192.2572,-159.4851"/>
</g>
<!-- Node39&#45;&gt;Node29 -->
<g id="edge54" class="edge">
<title>Node39&#45;&gt;Node29</title>
<path fill="none" stroke="#191970" d="M845.3265,-201.4727C861.9286,-199.2268 879.5769,-196.938 896,-195 1056.1292,-176.1041 1100.2618,-196.8359 1257,-159 1260.377,-158.1848 1263.8442,-157.157 1267.2692,-156.0146"/>
<polygon fill="#191970" stroke="#191970" points="1268.5051,-159.2894 1276.6993,-152.5733 1266.1054,-152.7136 1268.5051,-159.2894"/>
</g>
<!-- Node39&#45;&gt;Node36 -->
<g id="edge55" class="edge">
<title>Node39&#45;&gt;Node36</title>
<path fill="none" stroke="#191970" d="M843.7081,-201.4653C860.7715,-199.1568 879.0326,-196.8418 896,-195 1093.2651,-173.5871 1150.2159,-213.5297 1341,-159 1343.1486,-158.3859 1345.3211,-157.6215 1347.469,-156.7609"/>
<polygon fill="#191970" stroke="#191970" points="1348.9768,-159.9197 1356.5772,-152.5383 1346.0326,-153.569 1348.9768,-159.9197"/>
</g>
<!-- Node41&#45;&gt;Node14 -->
<g id="edge66" class="edge">
<title>Node41&#45;&gt;Node14</title>
<path fill="none" stroke="#191970" d="M1399.8087,-264.4688C1411.5409,-238.3719 1438.3212,-167.5102 1405,-126 1380.6226,-95.6316 1267.9287,-81.7492 1207.1355,-76.3765"/>
<polygon fill="#191970" stroke="#191970" points="1207.3929,-72.8858 1197.1329,-75.5279 1206.8012,-79.8608 1207.3929,-72.8858"/>
</g>
<!-- Node41&#45;&gt;Node15 -->
<g id="edge62" class="edge">
<title>Node41&#45;&gt;Node15</title>
<path fill="none" stroke="#191970" d="M1494.1024,-268.2344C1600.9572,-260.916 1775.9328,-247.3018 1926,-228 1936.6368,-226.6319 1947.8903,-224.9424 1958.8182,-223.1716"/>
<polygon fill="#191970" stroke="#191970" points="1959.4418,-226.6161 1968.7356,-221.5293 1958.2981,-219.7101 1959.4418,-226.6161"/>
</g>
<!-- Node41&#45;&gt;Node16 -->
<g id="edge58" class="edge">
<title>Node41&#45;&gt;Node16</title>
<path fill="none" stroke="#191970" d="M1414.8988,-264.3445C1430.6888,-255.7891 1452.8766,-242.6282 1470,-228 1515.5234,-189.1103 1506.2477,-156.1079 1558,-126 1587.4001,-108.8959 1668.3773,-94.372 1733.3289,-84.9661"/>
<polygon fill="#191970" stroke="#191970" points="1734.1995,-88.3774 1743.6053,-83.5008 1733.2114,-81.4475 1734.1995,-88.3774"/>
</g>
<!-- Node41&#45;&gt;Node21 -->
<g id="edge64" class="edge">
<title>Node41&#45;&gt;Node21</title>
<path fill="none" stroke="#191970" d="M1464.462,-264.4613C1635.0679,-239.6011 2062.7625,-175.9604 2089,-159 2113.3684,-143.2478 2129.781,-112.9985 2138.5104,-93.032"/>
<polygon fill="#191970" stroke="#191970" points="2141.7988,-94.2385 2142.3765,-83.6594 2135.3277,-91.5692 2141.7988,-94.2385"/>
</g>
<!-- Node41&#45;&gt;Node23 -->
<g id="edge67" class="edge">
<title>Node41&#45;&gt;Node23</title>
<path fill="none" stroke="#191970" d="M1410.7812,-264.439C1422.8081,-256.0285 1438.9601,-243.0156 1449,-228 1464.0109,-205.5498 1485.0516,-130.4374 1494.7391,-93.8604"/>
<polygon fill="#191970" stroke="#191970" points="1498.2138,-94.4076 1497.3619,-83.847 1491.4422,-92.6339 1498.2138,-94.4076"/>
</g>
<!-- Node41&#45;&gt;Node24 -->
<g id="edge69" class="edge">
<title>Node41&#45;&gt;Node24</title>
<path fill="none" stroke="#191970" d="M1494.0504,-271.8056C1678.3578,-266.2513 2060.3963,-251.9971 2116,-228 2175.0714,-202.5063 2211.1742,-128.8971 2225.6634,-93.2757"/>
<polygon fill="#191970" stroke="#191970" points="2229.0896,-94.1238 2229.4676,-83.5357 2222.5693,-91.5771 2229.0896,-94.1238"/>
</g>
<!-- Node41&#45;&gt;Node25 -->
<g id="edge63" class="edge">
<title>Node41&#45;&gt;Node25</title>
<path fill="none" stroke="#191970" d="M1295.9318,-269.5622C1154.662,-262.2187 887.2595,-247.1987 660,-228 635.4234,-225.9238 608.7124,-223.2516 584.4529,-220.665"/>
<polygon fill="#191970" stroke="#191970" points="584.5365,-217.1539 574.2194,-219.5637 583.7875,-224.1137 584.5365,-217.1539"/>
</g>
<!-- Node41&#45;&gt;Node29 -->
<g id="edge65" class="edge">
<title>Node41&#45;&gt;Node29</title>
<path fill="none" stroke="#191970" d="M1388.4282,-264.2847C1378.5006,-248.98 1358.9309,-219.3004 1341,-195 1332.4237,-183.3771 1322.3246,-170.7233 1314.179,-160.7512"/>
<polygon fill="#191970" stroke="#191970" points="1316.6685,-158.2683 1307.6111,-152.7716 1311.2638,-162.7168 1316.6685,-158.2683"/>
</g>
<!-- Node41&#45;&gt;Node36 -->
<g id="edge68" class="edge">
<title>Node41&#45;&gt;Node36</title>
<path fill="none" stroke="#191970" d="M1393.2737,-264.1422C1389.6431,-242.3584 1381.1603,-191.4618 1376.398,-162.8882"/>
<polygon fill="#191970" stroke="#191970" points="1379.8147,-162.0982 1374.7183,-152.8097 1372.91,-163.2491 1379.8147,-162.0982"/>
</g>
<!-- Node41&#45;&gt;Node38 -->
<g id="edge59" class="edge">
<title>Node41&#45;&gt;Node38</title>
<path fill="none" stroke="#191970" d="M1338.6758,-264.4478C1275.911,-253.2461 1174.5339,-235.1534 1108.0729,-223.292"/>
<polygon fill="#191970" stroke="#191970" points="1108.583,-219.8279 1098.1236,-221.5164 1107.3531,-226.719 1108.583,-219.8279"/>
</g>
<!-- Node41&#45;&gt;Node39 -->
<g id="edge60" class="edge">
<title>Node41&#45;&gt;Node39</title>
<path fill="none" stroke="#191970" d="M1295.8918,-264.8214C1201.5398,-255.5573 1055.566,-241.0949 929,-228 912.3431,-226.2766 894.6766,-224.4153 877.4776,-222.585"/>
<polygon fill="#191970" stroke="#191970" points="877.7309,-219.0923 867.4162,-221.5123 876.9887,-226.0529 877.7309,-219.0923"/>
</g>
<!-- Node41&#45;&gt;Node40 -->
<g id="edge61" class="edge">
<title>Node41&#45;&gt;Node40</title>
<path fill="none" stroke="#191970" d="M1371.3819,-264.378C1350.8718,-255.5879 1320.5497,-242.5927 1295.0984,-231.685"/>
<polygon fill="#191970" stroke="#191970" points="1296.1833,-228.3421 1285.6131,-227.6199 1293.4258,-234.7762 1296.1833,-228.3421"/>
</g>
<!-- Node44&#45;&gt;Node14 -->
<g id="edge80" class="edge">
<title>Node44&#45;&gt;Node14</title>
<path fill="none" stroke="#191970" d="M1566.4192,-131.3756C1463.831,-116.4733 1285.6158,-90.5852 1207.0792,-79.1768"/>
<polygon fill="#191970" stroke="#191970" points="1207.5188,-75.704 1197.1195,-77.73 1206.5124,-82.6313 1207.5188,-75.704"/>
</g>
<!-- Node44&#45;&gt;Node16 -->
<g id="edge77" class="edge">
<title>Node44&#45;&gt;Node16</title>
<path fill="none" stroke="#191970" d="M1684.98,-126.4966C1716.2239,-114.5859 1758.4221,-98.4993 1788.1044,-87.184"/>
<polygon fill="#191970" stroke="#191970" points="1789.5595,-90.375 1797.6568,-83.5424 1787.066,-83.8342 1789.5595,-90.375"/>
</g>
<!-- Node44&#45;&gt;Node20 -->
<g id="edge79" class="edge">
<title>Node44&#45;&gt;Node20</title>
<path fill="none" stroke="#191970" d="M1719.5588,-127.8669C1797.9173,-112.8898 1915.9206,-90.3351 1972.0922,-79.5987"/>
<polygon fill="#191970" stroke="#191970" points="1972.9901,-82.9906 1982.1551,-77.6753 1971.6758,-76.115 1972.9901,-82.9906"/>
</g>
<!-- Node44&#45;&gt;Node42 -->
<g id="edge78" class="edge">
<title>Node44&#45;&gt;Node42</title>
<path fill="none" stroke="#191970" d="M1566.3898,-136.7675C1519.7521,-133.3826 1458.9591,-129.1566 1405,-126 1027.204,-103.8993 576.0697,-84.6143 390.3603,-76.9836"/>
<polygon fill="#191970" stroke="#191970" points="390.2495,-73.4762 380.1145,-76.5634 389.9626,-80.4703 390.2495,-73.4762"/>
</g>
<!-- Node48&#45;&gt;Node4 -->
<g id="edge91" class="edge">
<title>Node48&#45;&gt;Node4</title>
<path fill="none" stroke="#191970" d="M505.1044,-448.9345C422.8108,-440.8179 298.0225,-427.6123 180.1361,-411.0977"/>
<polygon fill="#191970" stroke="#191970" points="180.6023,-407.6289 170.2113,-409.6971 179.6241,-414.5602 180.6023,-407.6289"/>
</g>
<!-- Node48&#45;&gt;Node6 -->
<g id="edge92" class="edge">
<title>Node48&#45;&gt;Node6</title>
<path fill="none" stroke="#191970" d="M574.4885,-447.4138C540.1029,-430.7335 471.4939,-395.1287 421,-354 316.015,-268.4867 215.0752,-139.2507 179.4874,-91.8017"/>
<polygon fill="#191970" stroke="#191970" points="182.2182,-89.6087 173.4373,-83.6803 176.6046,-93.7906 182.2182,-89.6087"/>
</g>
<!-- Node48&#45;&gt;Node7 -->
<g id="edge90" class="edge">
<title>Node48&#45;&gt;Node7</title>
<path fill="none" stroke="#191970" d="M534.5857,-447.4408C474.02,-437.5205 381.5612,-422.3764 318.1385,-411.9882"/>
<polygon fill="#191970" stroke="#191970" points="318.6524,-408.5258 308.2181,-410.3633 317.5209,-415.4338 318.6524,-408.5258"/>
</g>
<!-- Node48&#45;&gt;Node36 -->
<g id="edge94" class="edge">
<title>Node48&#45;&gt;Node36</title>
<path fill="none" stroke="#191970" d="M686.6333,-451.0116C806.2545,-442.0763 1010.2965,-425.4467 1084,-411 1274.8288,-373.5955 1386.9721,-441.052 1503,-285 1540.3547,-234.7596 1453.821,-181.902 1404.4234,-157.0433"/>
<polygon fill="#191970" stroke="#191970" points="1405.8964,-153.8674 1395.3783,-152.594 1402.8066,-160.1486 1405.8964,-153.8674"/>
</g>
<!-- Node48&#45;&gt;Node45 -->
<g id="edge93" class="edge">
<title>Node48&#45;&gt;Node45</title>
<path fill="none" stroke="#191970" d="M686.6015,-450.7881C706.4942,-449.4294 727.4526,-448.0862 747,-447 1131.1846,-425.6521 1227.8305,-432.6173 1612,-411 1653.0007,-408.6929 1700.3312,-405.1873 1730.2074,-402.8706"/>
<polygon fill="#191970" stroke="#191970" points="1730.6839,-406.3441 1740.3807,-402.0753 1730.1383,-399.3654 1730.6839,-406.3441"/>
</g>
<!-- Node49&#45;&gt;Node23 -->
<g id="edge96" class="edge">
<title>Node49&#45;&gt;Node23</title>
<path fill="none" stroke="#191970" d="M1250.0318,-508.9593C1408.7781,-494.965 1801.4958,-456.0818 1839,-411 1844.969,-403.8249 1841.0537,-399.1046 1839,-390 1821.459,-312.2345 1791.4437,-302.0826 1762,-228 1744.402,-183.7221 1764.1333,-158.185 1729,-126 1700.533,-99.9219 1588.9511,-83.7044 1532.7388,-77.0238"/>
<polygon fill="#191970" stroke="#191970" points="1532.9333,-73.523 1522.5974,-75.8509 1532.129,-80.4767 1532.9333,-73.523"/>
</g>
</g>
</svg>
