<?xml version="1.0" encoding="UTF-8" standalone="no"?>
<!DOCTYPE svg PUBLIC "-//W3C//DTD SVG 1.1//EN"
 "http://www.w3.org/Graphics/SVG/1.1/DTD/svg11.dtd">
<!-- Generated by graphviz version 2.40.1 (20161225.0304)
 -->
<!-- Title: Martini::DoEnergyLoss Pages: 1 -->
<svg width="486pt" height="302pt"
 viewBox="0.00 0.00 486.00 302.00" xmlns="http://www.w3.org/2000/svg" xmlns:xlink="http://www.w3.org/1999/xlink">
<g id="graph0" class="graph" transform="scale(1 1) rotate(0) translate(4 298)">
<title>Martini::DoEnergyLoss</title>
<!-- Node1 -->
<g id="node1" class="node">
<title>Node1</title>
<polygon fill="#bfbfbf" stroke="#000000" points="0,-136.5 0,-156.5 129,-156.5 129,-136.5 0,-136.5"/>
<text text-anchor="middle" x="64.5" y="-143.5" font-family="FreeSans" font-size="10.00" fill="#000000">Martini::DoEnergyLoss</text>
</g>
<!-- Node2 -->
<g id="node2" class="node">
<title>Node2</title>
<g id="a_node2"><a xlink:href="../../df/d28/namespacekdfinder.html#ab72d428625e99a2d7380eb7691c246c7" target="_top" xlink:title="kdfinder::abs">
<polygon fill="none" stroke="#000000" points="196,-273.5 196,-293.5 279,-293.5 279,-273.5 196,-273.5"/>
<text text-anchor="middle" x="237.5" y="-280.5" font-family="FreeSans" font-size="10.00" fill="#000000">kdfinder::abs</text>
</a>
</g>
</g>
<!-- Node1&#45;&gt;Node2 -->
<g id="edge1" class="edge">
<title>Node1&#45;&gt;Node2</title>
<path fill="none" stroke="#191970" d="M70.0809,-156.5159C83.3639,-179.3953 119.1973,-235.7322 165,-264.5 171.3633,-268.4967 178.5452,-271.6571 185.8524,-274.1551"/>
<polygon fill="#191970" stroke="#191970" points="185.2446,-277.6276 195.8294,-277.1672 187.2678,-270.9263 185.2446,-277.6276"/>
</g>
<!-- Node4 -->
<g id="node4" class="node">
<title>Node4</title>
<g id="a_node4"><a xlink:href="../../df/da1/namespaceActs_1_1VectorHelpers.html#afc1703c2fa7adfd6517e5e16df2e5df4" target="_top" xlink:title="Acts::VectorHelpers::eta">
<polygon fill="none" stroke="#000000" points="168,-234.5 168,-254.5 307,-254.5 307,-234.5 168,-234.5"/>
<text text-anchor="middle" x="237.5" y="-241.5" font-family="FreeSans" font-size="10.00" fill="#000000">Acts::VectorHelpers::eta</text>
</a>
</g>
</g>
<!-- Node1&#45;&gt;Node4 -->
<g id="edge3" class="edge">
<title>Node1&#45;&gt;Node4</title>
<path fill="none" stroke="#191970" d="M74.3677,-156.5981C91.3408,-173.3899 127.8357,-207.0292 165,-225.5 169.2894,-227.6319 173.8444,-229.5435 178.4998,-231.2541"/>
<polygon fill="#191970" stroke="#191970" points="177.55,-234.6271 188.1439,-234.4894 179.7763,-227.9906 177.55,-234.6271"/>
</g>
<!-- Node5 -->
<g id="node5" class="node">
<title>Node5</title>
<g id="a_node5"><a xlink:href="../../d9/d03/KFParticleBaseSIMD_8h.html#a3b4b3e7ee8d4ab4c301ce24d57e75cfc" target="_top" xlink:title="Returns Id of the particle.">
<polygon fill="none" stroke="#000000" points="223,-195.5 223,-215.5 252,-215.5 252,-195.5 223,-195.5"/>
<text text-anchor="middle" x="237.5" y="-202.5" font-family="FreeSans" font-size="10.00" fill="#000000">Id</text>
</a>
</g>
</g>
<!-- Node1&#45;&gt;Node5 -->
<g id="edge4" class="edge">
<title>Node1&#45;&gt;Node5</title>
<path fill="none" stroke="#191970" d="M87.3566,-156.5281C107.5371,-165.157 137.8828,-177.5874 165,-186.5 180.7607,-191.6801 198.8059,-196.4133 212.9506,-199.8598"/>
<polygon fill="#191970" stroke="#191970" points="212.3656,-203.3183 222.9044,-202.2307 213.9876,-196.5088 212.3656,-203.3183"/>
</g>
<!-- Node6 -->
<g id="node6" class="node">
<title>Node6</title>
<g id="a_node6"><a xlink:href="../../d0/d8b/classJetscape_1_1FourVector.html#aa650da94f644eb777fa66cc1a6fef5b0" target="_top" xlink:title="Jetscape::FourVector::Set">
<polygon fill="none" stroke="#000000" points="165,-156.5 165,-176.5 310,-176.5 310,-156.5 165,-156.5"/>
<text text-anchor="middle" x="237.5" y="-163.5" font-family="FreeSans" font-size="10.00" fill="#000000">Jetscape::FourVector::Set</text>
</a>
</g>
</g>
<!-- Node1&#45;&gt;Node6 -->
<g id="edge5" class="edge">
<title>Node1&#45;&gt;Node6</title>
<path fill="none" stroke="#191970" d="M129.411,-154.0042C137.7494,-154.9681 146.3737,-155.9652 154.9462,-156.9562"/>
<polygon fill="#191970" stroke="#191970" points="154.6298,-160.4429 164.9656,-158.1145 155.4337,-153.4892 154.6298,-160.4429"/>
</g>
<!-- Node7 -->
<g id="node7" class="node">
<title>Node7</title>
<g id="a_node7"><a xlink:href="../../d0/d8b/classJetscape_1_1FourVector.html#a90f5874b7827e860c6057797df551bc0" target="_top" xlink:title="Jetscape::FourVector::t">
<polygon fill="none" stroke="#000000" points="171.5,-117.5 171.5,-137.5 303.5,-137.5 303.5,-117.5 171.5,-117.5"/>
<text text-anchor="middle" x="237.5" y="-124.5" font-family="FreeSans" font-size="10.00" fill="#000000">Jetscape::FourVector::t</text>
</a>
</g>
</g>
<!-- Node1&#45;&gt;Node7 -->
<g id="edge6" class="edge">
<title>Node1&#45;&gt;Node7</title>
<path fill="none" stroke="#191970" d="M129.411,-139.371C139.801,-138.2299 150.635,-137.0401 161.2595,-135.8732"/>
<polygon fill="#191970" stroke="#191970" points="161.8023,-139.3348 171.3604,-134.7639 161.0381,-132.3766 161.8023,-139.3348"/>
</g>
<!-- Node8 -->
<g id="node8" class="node">
<title>Node8</title>
<g id="a_node8"><a xlink:href="../../d0/d8b/classJetscape_1_1FourVector.html#ad8de53f64664fd3b36e65e2daf05e496" target="_top" xlink:title="Jetscape::FourVector::x">
<polygon fill="none" stroke="#000000" points="170.5,-78.5 170.5,-98.5 304.5,-98.5 304.5,-78.5 170.5,-78.5"/>
<text text-anchor="middle" x="237.5" y="-85.5" font-family="FreeSans" font-size="10.00" fill="#000000">Jetscape::FourVector::x</text>
</a>
</g>
</g>
<!-- Node1&#45;&gt;Node8 -->
<g id="edge7" class="edge">
<title>Node1&#45;&gt;Node8</title>
<path fill="none" stroke="#191970" d="M89.0548,-136.4884C109.265,-128.4247 138.754,-117.0618 165,-108.5 172.6777,-105.9954 180.8776,-103.5336 188.8991,-101.2401"/>
<polygon fill="#191970" stroke="#191970" points="189.8645,-104.6045 198.5481,-98.5344 187.9744,-97.8644 189.8645,-104.6045"/>
</g>
<!-- Node9 -->
<g id="node9" class="node">
<title>Node9</title>
<g id="a_node9"><a xlink:href="../../d0/d8b/classJetscape_1_1FourVector.html#a1b43841ff01c4f6a68899ad664616abc" target="_top" xlink:title="Jetscape::FourVector::y">
<polygon fill="none" stroke="#000000" points="170.5,-39.5 170.5,-59.5 304.5,-59.5 304.5,-39.5 170.5,-39.5"/>
<text text-anchor="middle" x="237.5" y="-46.5" font-family="FreeSans" font-size="10.00" fill="#000000">Jetscape::FourVector::y</text>
</a>
</g>
</g>
<!-- Node1&#45;&gt;Node9 -->
<g id="edge8" class="edge">
<title>Node1&#45;&gt;Node9</title>
<path fill="none" stroke="#191970" d="M74.7221,-136.4602C91.9273,-120.103 128.393,-87.7039 165,-69.5 170.1679,-66.9301 175.7126,-64.6514 181.35,-62.64"/>
<polygon fill="#191970" stroke="#191970" points="182.4715,-65.9557 190.8747,-59.503 180.2817,-59.307 182.4715,-65.9557"/>
</g>
<!-- Node10 -->
<g id="node10" class="node">
<title>Node10</title>
<g id="a_node10"><a xlink:href="../../d0/d8b/classJetscape_1_1FourVector.html#a471fb5cfe3ae4402bcceee1fdce5f261" target="_top" xlink:title="Jetscape::FourVector::z">
<polygon fill="none" stroke="#000000" points="171,-.5 171,-20.5 304,-20.5 304,-.5 171,-.5"/>
<text text-anchor="middle" x="237.5" y="-7.5" font-family="FreeSans" font-size="10.00" fill="#000000">Jetscape::FourVector::z</text>
</a>
</g>
</g>
<!-- Node1&#45;&gt;Node10 -->
<g id="edge9" class="edge">
<title>Node1&#45;&gt;Node10</title>
<path fill="none" stroke="#191970" d="M70.3538,-136.3594C83.9432,-113.7451 119.9339,-58.944 165,-30.5 168.6023,-28.2264 172.464,-26.2074 176.4603,-24.4151"/>
<polygon fill="#191970" stroke="#191970" points="177.9732,-27.5801 185.971,-20.6314 175.3855,-21.076 177.9732,-27.5801"/>
</g>
<!-- Node3 -->
<g id="node3" class="node">
<title>Node3</title>
<g id="a_node3"><a xlink:href="../../d8/dc7/classkdfinder_1_1TVector.html#ac9649c7577f12a7502ed523260f4ee90" target="_top" xlink:title="kdfinder::TVector::mag">
<polygon fill="none" stroke="#000000" points="346,-273.5 346,-293.5 478,-293.5 478,-273.5 346,-273.5"/>
<text text-anchor="middle" x="412" y="-280.5" font-family="FreeSans" font-size="10.00" fill="#000000">kdfinder::TVector::mag</text>
</a>
</g>
</g>
<!-- Node2&#45;&gt;Node3 -->
<g id="edge2" class="edge">
<title>Node2&#45;&gt;Node3</title>
<path fill="none" stroke="#191970" d="M279.2971,-283.5C296.2119,-283.5 316.2888,-283.5 335.6397,-283.5"/>
<polygon fill="#191970" stroke="#191970" points="335.6723,-287.0001 345.6723,-283.5 335.6722,-280.0001 335.6723,-287.0001"/>
</g>
</g>
</svg>
