<?xml version="1.0" encoding="UTF-8" standalone="no"?>
<!DOCTYPE svg PUBLIC "-//W3C//DTD SVG 1.1//EN"
 "http://www.w3.org/Graphics/SVG/1.1/DTD/svg11.dtd">
<!-- Generated by graphviz version 2.40.1 (20161225.0304)
 -->
<!-- Title: SvtxHitEval::set_strict Pages: 1 -->
<svg width="1497pt" height="634pt"
 viewBox="0.00 0.00 1497.00 633.79" xmlns="http://www.w3.org/2000/svg" xmlns:xlink="http://www.w3.org/1999/xlink">
<g id="graph0" class="graph" transform="scale(1 1) rotate(0) translate(4 629.7852)">
<title>SvtxHitEval::set_strict</title>
<!-- Node1 -->
<g id="node1" class="node">
<title>Node1</title>
<polygon fill="#bfbfbf" stroke="#000000" points="0,-353.5 0,-373.5 128,-373.5 128,-353.5 0,-353.5"/>
<text text-anchor="middle" x="64" y="-360.5" font-family="FreeSans" font-size="10.00" fill="#000000">SvtxHitEval::set_strict</text>
</g>
<!-- Node2 -->
<g id="node2" class="node">
<title>Node2</title>
<g id="a_node2"><a xlink:href="../../d1/d1e/classSvtxClusterEval.html#a7144abdc41671de4e1a6c960ee07b3fd" target="_top" xlink:title="SvtxClusterEval::set\l_strict">
<polygon fill="none" stroke="#000000" points="164,-347.5 164,-379.5 282,-379.5 282,-347.5 164,-347.5"/>
<text text-anchor="start" x="172" y="-366.5" font-family="FreeSans" font-size="10.00" fill="#000000">SvtxClusterEval::set</text>
<text text-anchor="middle" x="223" y="-354.5" font-family="FreeSans" font-size="10.00" fill="#000000">_strict</text>
</a>
</g>
</g>
<!-- Node1&#45;&gt;Node2 -->
<g id="edge1" class="edge">
<title>Node1&#45;&gt;Node2</title>
<path fill="none" stroke="#191970" d="M138.2625,-363.5C146.8761,-363.5 155.572,-363.5 163.9434,-363.5"/>
<polygon fill="#191970" stroke="#191970" points="138.2131,-360.0001 128.2131,-363.5 138.213,-367.0001 138.2131,-360.0001"/>
</g>
<!-- Node3 -->
<g id="node3" class="node">
<title>Node3</title>
<g id="a_node3"><a xlink:href="../../df/dad/classSvtxTrackEval.html#a17f3a9958a23a6a32e7e46df4a0540ee" target="_top" xlink:title="SvtxTrackEval::set\l_strict">
<polygon fill="none" stroke="#000000" points="318,-347.5 318,-379.5 427,-379.5 427,-347.5 318,-347.5"/>
<text text-anchor="start" x="326" y="-366.5" font-family="FreeSans" font-size="10.00" fill="#000000">SvtxTrackEval::set</text>
<text text-anchor="middle" x="372.5" y="-354.5" font-family="FreeSans" font-size="10.00" fill="#000000">_strict</text>
</a>
</g>
</g>
<!-- Node2&#45;&gt;Node3 -->
<g id="edge2" class="edge">
<title>Node2&#45;&gt;Node3</title>
<path fill="none" stroke="#191970" d="M292.1037,-363.5C300.6996,-363.5 309.3956,-363.5 317.7336,-363.5"/>
<polygon fill="#191970" stroke="#191970" points="292.0864,-360.0001 282.0864,-363.5 292.0863,-367.0001 292.0864,-360.0001"/>
</g>
<!-- Node4 -->
<g id="node4" class="node">
<title>Node4</title>
<g id="a_node4"><a xlink:href="../../d4/d21/classSvtxVertexEval.html#a5a7d55bfa6ab7185761970e0fcced208" target="_top" xlink:title="SvtxVertexEval::set\l_strict">
<polygon fill="none" stroke="#000000" points="463,-347.5 463,-379.5 578,-379.5 578,-347.5 463,-347.5"/>
<text text-anchor="start" x="471" y="-366.5" font-family="FreeSans" font-size="10.00" fill="#000000">SvtxVertexEval::set</text>
<text text-anchor="middle" x="520.5" y="-354.5" font-family="FreeSans" font-size="10.00" fill="#000000">_strict</text>
</a>
</g>
</g>
<!-- Node3&#45;&gt;Node4 -->
<g id="edge3" class="edge">
<title>Node3&#45;&gt;Node4</title>
<path fill="none" stroke="#191970" d="M437.325,-363.5C445.724,-363.5 454.2831,-363.5 462.5606,-363.5"/>
<polygon fill="#191970" stroke="#191970" points="437.1893,-360.0001 427.1892,-363.5 437.1892,-367.0001 437.1893,-360.0001"/>
</g>
<!-- Node5 -->
<g id="node5" class="node">
<title>Node5</title>
<g id="a_node5"><a xlink:href="../../d3/ded/classSvtxEvalStack.html#a84090996981db5cf3811063b59ceaf3f" target="_top" xlink:title="SvtxEvalStack::set\l_strict">
<polygon fill="none" stroke="#000000" points="614,-347.5 614,-379.5 724,-379.5 724,-347.5 614,-347.5"/>
<text text-anchor="start" x="622" y="-366.5" font-family="FreeSans" font-size="10.00" fill="#000000">SvtxEvalStack::set</text>
<text text-anchor="middle" x="669" y="-354.5" font-family="FreeSans" font-size="10.00" fill="#000000">_strict</text>
</a>
</g>
</g>
<!-- Node4&#45;&gt;Node5 -->
<g id="edge4" class="edge">
<title>Node4&#45;&gt;Node5</title>
<path fill="none" stroke="#191970" d="M588.3425,-363.5C596.9327,-363.5 605.6381,-363.5 613.9942,-363.5"/>
<polygon fill="#191970" stroke="#191970" points="588.3392,-360.0001 578.3392,-363.5 588.3392,-367.0001 588.3392,-360.0001"/>
</g>
<!-- Node6 -->
<g id="node6" class="node">
<title>Node6</title>
<g id="a_node6"><a xlink:href="../../de/da4/classEMCalCalib.html#ac80fa52a42070fa6210a5c69f9c10fed" target="_top" xlink:title="project a photon to calorimeters and collect towers around it">
<polygon fill="none" stroke="#000000" points="962,-569.5 962,-589.5 1103,-589.5 1103,-569.5 962,-569.5"/>
<text text-anchor="middle" x="1032.5" y="-576.5" font-family="FreeSans" font-size="10.00" fill="#000000">EMCalCalib::eval_photon</text>
</a>
</g>
</g>
<!-- Node5&#45;&gt;Node6 -->
<g id="edge5" class="edge">
<title>Node5&#45;&gt;Node6</title>
<path fill="none" stroke="#191970" d="M675.1329,-389.5741C688.9109,-445.6727 723.9431,-574.7587 760,-599.5 838.423,-653.3117 961.1572,-610.5643 1010.688,-589.5001"/>
<polygon fill="#191970" stroke="#191970" points="678.4935,-388.5805 672.7392,-379.6846 671.69,-390.2273 678.4935,-388.5805"/>
</g>
<!-- Node7 -->
<g id="node7" class="node">
<title>Node7</title>
<g id="a_node7"><a xlink:href="../../de/da4/classEMCalCalib.html#a8d33bc88a464878c873f29c9230ce7fe" target="_top" xlink:title="EMCalCalib::process\l_event_MCPhoton">
<polygon fill="none" stroke="#000000" points="1163.5,-535.5 1163.5,-567.5 1281.5,-567.5 1281.5,-535.5 1163.5,-535.5"/>
<text text-anchor="start" x="1171.5" y="-554.5" font-family="FreeSans" font-size="10.00" fill="#000000">EMCalCalib::process</text>
<text text-anchor="middle" x="1222.5" y="-542.5" font-family="FreeSans" font-size="10.00" fill="#000000">_event_MCPhoton</text>
</a>
</g>
</g>
<!-- Node5&#45;&gt;Node7 -->
<g id="edge23" class="edge">
<title>Node5&#45;&gt;Node7</title>
<path fill="none" stroke="#191970" d="M677.0922,-389.2084C689.1992,-422.9585 715.4953,-481.1206 760,-508.5 826.1089,-549.1703 1054.3092,-552.9899 1163.4504,-552.3825"/>
<polygon fill="#191970" stroke="#191970" points="680.3438,-387.9005 673.786,-379.5791 673.7232,-390.1737 680.3438,-387.9005"/>
</g>
<!-- Node9 -->
<g id="node9" class="node">
<title>Node9</title>
<g id="a_node9"><a xlink:href="../../de/da4/classEMCalCalib.html#a391db11d0f991de20f00c9a485602016" target="_top" xlink:title="EMCalCalib::eval_photon_proj">
<polygon fill="none" stroke="#000000" points="760,-569.5 760,-589.5 926,-589.5 926,-569.5 760,-569.5"/>
<text text-anchor="middle" x="843" y="-576.5" font-family="FreeSans" font-size="10.00" fill="#000000">EMCalCalib::eval_photon_proj</text>
</a>
</g>
</g>
<!-- Node5&#45;&gt;Node9 -->
<g id="edge8" class="edge">
<title>Node5&#45;&gt;Node9</title>
<path fill="none" stroke="#191970" d="M674.2334,-389.2757C683.9024,-430.2855 708.4663,-510.2619 760,-554.5 767.6507,-561.0676 776.9819,-565.9099 786.59,-569.4801"/>
<polygon fill="#191970" stroke="#191970" points="677.6446,-388.4916 672.039,-379.5012 670.8146,-390.025 677.6446,-388.4916"/>
</g>
<!-- Node10 -->
<g id="node10" class="node">
<title>Node10</title>
<g id="a_node10"><a xlink:href="../../db/d4b/classEMCalAna.html#a058c1f2ec1ef8b8f7786737eb6e3151b" target="_top" xlink:title="EMCalAna::eval_trk">
<polygon fill="none" stroke="#000000" points="975.5,-444.5 975.5,-464.5 1089.5,-464.5 1089.5,-444.5 975.5,-444.5"/>
<text text-anchor="middle" x="1032.5" y="-451.5" font-family="FreeSans" font-size="10.00" fill="#000000">EMCalAna::eval_trk</text>
</a>
</g>
</g>
<!-- Node5&#45;&gt;Node10 -->
<g id="edge10" class="edge">
<title>Node5&#45;&gt;Node10</title>
<path fill="none" stroke="#191970" d="M713.2167,-383.4518C727.8913,-389.539 744.4533,-395.8454 760,-400.5 833.0002,-422.3561 919.6916,-437.8033 975.3668,-446.4271"/>
<polygon fill="#191970" stroke="#191970" points="714.4492,-380.173 703.8755,-379.5029 711.7235,-386.6206 714.4492,-380.173"/>
</g>
<!-- Node11 -->
<g id="node11" class="node">
<title>Node11</title>
<g id="a_node11"><a xlink:href="../../db/d4b/classEMCalAna.html#a2e20101b8705ea086e2c7de88e95767d" target="_top" xlink:title="EMCalAna::process_event_Trk">
<polygon fill="none" stroke="#000000" points="1139,-480.5 1139,-500.5 1306,-500.5 1306,-480.5 1139,-480.5"/>
<text text-anchor="middle" x="1222.5" y="-487.5" font-family="FreeSans" font-size="10.00" fill="#000000">EMCalAna::process_event_Trk</text>
</a>
</g>
</g>
<!-- Node5&#45;&gt;Node11 -->
<g id="edge24" class="edge">
<title>Node5&#45;&gt;Node11</title>
<path fill="none" stroke="#191970" d="M679.7495,-388.7919C693.5752,-417.6911 720.5973,-463.5562 760,-483.5 823.9469,-515.867 1023.5758,-506.5004 1138.5842,-497.8629"/>
<polygon fill="#191970" stroke="#191970" points="682.9274,-387.3252 675.5678,-379.7037 676.5682,-390.2512 682.9274,-387.3252"/>
</g>
<!-- Node13 -->
<g id="node13" class="node">
<title>Node13</title>
<g id="a_node13"><a xlink:href="../../db/d4b/classEMCalAna.html#a9647db89feef6823b38bbdeaf7de06c2" target="_top" xlink:title="EMCalAna::process_event\l_UpslisonTrig">
<polygon fill="none" stroke="#000000" points="1149,-429.5 1149,-461.5 1296,-461.5 1296,-429.5 1149,-429.5"/>
<text text-anchor="start" x="1157" y="-448.5" font-family="FreeSans" font-size="10.00" fill="#000000">EMCalAna::process_event</text>
<text text-anchor="middle" x="1222.5" y="-436.5" font-family="FreeSans" font-size="10.00" fill="#000000">_UpslisonTrig</text>
</a>
</g>
</g>
<!-- Node5&#45;&gt;Node13 -->
<g id="edge25" class="edge">
<title>Node5&#45;&gt;Node13</title>
<path fill="none" stroke="#191970" d="M734.2447,-372.753C786.2036,-380.1557 860.7824,-390.8564 926,-400.5 1001.9701,-411.7335 1088.8268,-424.961 1148.8049,-434.1555"/>
<polygon fill="#191970" stroke="#191970" points="734.5575,-369.2623 724.164,-371.3177 733.5707,-376.1924 734.5575,-369.2623"/>
</g>
<!-- Node14 -->
<g id="node14" class="node">
<title>Node14</title>
<g id="a_node14"><a xlink:href="../../db/d4b/classEMCalAna.html#a1158ea15e948f053751b7d169c3cef4d" target="_top" xlink:title="EMCalAna::eval_trk_proj">
<polygon fill="none" stroke="#000000" points="774,-453.5 774,-473.5 912,-473.5 912,-453.5 774,-453.5"/>
<text text-anchor="middle" x="843" y="-460.5" font-family="FreeSans" font-size="10.00" fill="#000000">EMCalAna::eval_trk_proj</text>
</a>
</g>
</g>
<!-- Node5&#45;&gt;Node14 -->
<g id="edge15" class="edge">
<title>Node5&#45;&gt;Node14</title>
<path fill="none" stroke="#191970" d="M692.0509,-386.9448C709.3976,-403.4143 734.4792,-424.8568 760,-438.5 771.6792,-444.7436 785.1365,-449.6488 797.7695,-453.398"/>
<polygon fill="#191970" stroke="#191970" points="694.2681,-384.2196 684.6513,-379.7736 689.3966,-389.2464 694.2681,-384.2196"/>
</g>
<!-- Node15 -->
<g id="node15" class="node">
<title>Node15</title>
<g id="a_node15"><a xlink:href="../../db/d2f/classAnaSvtxTracksForGenFit.html#a6f277cfc1d441b018fccacf6fb882dd0" target="_top" xlink:title="AnaSvtxTracksForGenFit\l::process_event">
<polygon fill="none" stroke="#000000" points="773,-325.5 773,-357.5 913,-357.5 913,-325.5 773,-325.5"/>
<text text-anchor="start" x="781" y="-344.5" font-family="FreeSans" font-size="10.00" fill="#000000">AnaSvtxTracksForGenFit</text>
<text text-anchor="middle" x="843" y="-332.5" font-family="FreeSans" font-size="10.00" fill="#000000">::process_event</text>
</a>
</g>
</g>
<!-- Node5&#45;&gt;Node15 -->
<g id="edge17" class="edge">
<title>Node5&#45;&gt;Node15</title>
<path fill="none" stroke="#191970" d="M734.0715,-355.2726C746.7679,-353.6673 760.1308,-351.9777 772.9797,-350.3531"/>
<polygon fill="#191970" stroke="#191970" points="733.5366,-351.8122 724.0547,-356.5391 734.4148,-358.757 733.5366,-351.8122"/>
</g>
<!-- Node16 -->
<g id="node16" class="node">
<title>Node16</title>
<g id="a_node16"><a xlink:href="../../d7/d62/classHFMLTriggerInterface.html#a29f338c2563a39e5d0e58b316f4b036f" target="_top" xlink:title="HFMLTriggerInterface\l::process_event">
<polygon fill="none" stroke="#000000" points="782,-274.5 782,-306.5 904,-306.5 904,-274.5 782,-274.5"/>
<text text-anchor="start" x="790" y="-293.5" font-family="FreeSans" font-size="10.00" fill="#000000">HFMLTriggerInterface</text>
<text text-anchor="middle" x="843" y="-281.5" font-family="FreeSans" font-size="10.00" fill="#000000">::process_event</text>
</a>
</g>
</g>
<!-- Node5&#45;&gt;Node16 -->
<g id="edge18" class="edge">
<title>Node5&#45;&gt;Node16</title>
<path fill="none" stroke="#191970" d="M706.2315,-342.4158C722.4442,-333.7238 741.8539,-323.9624 760,-316.5 768.6585,-312.9393 777.9914,-309.5782 787.1642,-306.529"/>
<polygon fill="#191970" stroke="#191970" points="704.2039,-339.5342 697.0889,-347.3845 707.5465,-345.6846 704.2039,-339.5342"/>
</g>
<!-- Node17 -->
<g id="node17" class="node">
<title>Node17</title>
<g id="a_node17"><a xlink:href="../../da/dbf/classHFMLTriggerOccupancy.html#add094957c68c32da4afc212ffa24e885" target="_top" xlink:title="HFMLTriggerOccupancy\l::process_event">
<polygon fill="none" stroke="#000000" points="776,-223.5 776,-255.5 910,-255.5 910,-223.5 776,-223.5"/>
<text text-anchor="start" x="784" y="-242.5" font-family="FreeSans" font-size="10.00" fill="#000000">HFMLTriggerOccupancy</text>
<text text-anchor="middle" x="843" y="-230.5" font-family="FreeSans" font-size="10.00" fill="#000000">::process_event</text>
</a>
</g>
</g>
<!-- Node5&#45;&gt;Node17 -->
<g id="edge19" class="edge">
<title>Node5&#45;&gt;Node17</title>
<path fill="none" stroke="#191970" d="M685.986,-338.9038C702.4959,-316.7362 729.493,-284.7538 760,-265.5 766.0017,-261.7121 772.5973,-258.4388 779.3665,-255.6186"/>
<polygon fill="#191970" stroke="#191970" points="683.0327,-337.0139 679.982,-347.1601 688.6941,-341.1309 683.0327,-337.0139"/>
</g>
<!-- Node18 -->
<g id="node18" class="node">
<title>Node18</title>
<g id="a_node18"><a xlink:href="../../d8/d98/classpsTOFTimezeroEval.html#a2e98730e1beaa91c36947c0fe671fdd2" target="_top" xlink:title="psTOFTimezeroEval::\lprocess_event">
<polygon fill="none" stroke="#000000" points="782,-172.5 782,-204.5 904,-204.5 904,-172.5 782,-172.5"/>
<text text-anchor="start" x="790" y="-191.5" font-family="FreeSans" font-size="10.00" fill="#000000">psTOFTimezeroEval::</text>
<text text-anchor="middle" x="843" y="-179.5" font-family="FreeSans" font-size="10.00" fill="#000000">process_event</text>
</a>
</g>
</g>
<!-- Node5&#45;&gt;Node18 -->
<g id="edge20" class="edge">
<title>Node5&#45;&gt;Node18</title>
<path fill="none" stroke="#191970" d="M678.0309,-337.9417C691.0499,-304.7271 718.2172,-247.1322 760,-214.5 766.5454,-209.3881 774.1095,-205.2725 781.9523,-201.9613"/>
<polygon fill="#191970" stroke="#191970" points="674.7129,-336.8208 674.4443,-347.4123 681.2591,-339.3 674.7129,-336.8208"/>
</g>
<!-- Node19 -->
<g id="node19" class="node">
<title>Node19</title>
<g id="a_node19"><a xlink:href="../../d2/d85/classSvtxEvaluatorHaiwang.html#ab63ca0cc53b56dad65b89d9b18220bce" target="_top" xlink:title="SvtxEvaluatorHaiwang\l::process_event">
<polygon fill="none" stroke="#000000" points="777.5,-121.5 777.5,-153.5 908.5,-153.5 908.5,-121.5 777.5,-121.5"/>
<text text-anchor="start" x="785.5" y="-140.5" font-family="FreeSans" font-size="10.00" fill="#000000">SvtxEvaluatorHaiwang</text>
<text text-anchor="middle" x="843" y="-128.5" font-family="FreeSans" font-size="10.00" fill="#000000">::process_event</text>
</a>
</g>
</g>
<!-- Node5&#45;&gt;Node19 -->
<g id="edge21" class="edge">
<title>Node5&#45;&gt;Node19</title>
<path fill="none" stroke="#191970" d="M673.7322,-337.5053C682.8274,-294.9703 706.7662,-210.5375 760,-163.5 765.092,-159.0007 770.9585,-155.2797 777.1699,-152.2026"/>
<polygon fill="#191970" stroke="#191970" points="670.2894,-336.872 671.7308,-347.3683 677.1496,-338.2641 670.2894,-336.872"/>
</g>
<!-- Node20 -->
<g id="node20" class="node">
<title>Node20</title>
<g id="a_node20"><a xlink:href="../../d6/d11/classSvtxEvaluator.html#a1eb230f92b6f2cabb175f1349697200d" target="_top" xlink:title="SvtxEvaluator::process\l_event">
<polygon fill="none" stroke="#000000" points="777,-70.5 777,-102.5 909,-102.5 909,-70.5 777,-70.5"/>
<text text-anchor="start" x="785" y="-89.5" font-family="FreeSans" font-size="10.00" fill="#000000">SvtxEvaluator::process</text>
<text text-anchor="middle" x="843" y="-77.5" font-family="FreeSans" font-size="10.00" fill="#000000">_event</text>
</a>
</g>
</g>
<!-- Node5&#45;&gt;Node20 -->
<g id="edge22" class="edge">
<title>Node5&#45;&gt;Node20</title>
<path fill="none" stroke="#191970" d="M671.0118,-337.231C676.3103,-286.5017 695.0975,-174.5929 760,-112.5 764.9099,-107.8026 770.6584,-103.9533 776.7988,-100.799"/>
<polygon fill="#191970" stroke="#191970" points="667.5105,-337.08 670.0505,-347.3658 674.4793,-337.741 667.5105,-337.08"/>
</g>
<!-- Node21 -->
<g id="node21" class="node">
<title>Node21</title>
<g id="a_node21"><a xlink:href="../../d3/d22/classJetTruthEval.html#ad0cd7f00089faaac27f0abb29ca151b8" target="_top" xlink:title="JetTruthEval::set_strict">
<polygon fill="none" stroke="#000000" points="778,-31.5 778,-51.5 908,-51.5 908,-31.5 778,-31.5"/>
<text text-anchor="middle" x="843" y="-38.5" font-family="FreeSans" font-size="10.00" fill="#000000">JetTruthEval::set_strict</text>
</a>
</g>
</g>
<!-- Node5&#45;&gt;Node21 -->
<g id="edge26" class="edge">
<title>Node5&#45;&gt;Node21</title>
<path fill="none" stroke="#191970" d="M673.4052,-337.3348C685.082,-271.053 718.7737,-99.0635 760,-60.5 765.1819,-55.6528 771.3385,-51.9553 777.9222,-49.1469"/>
<polygon fill="#191970" stroke="#191970" points="669.9233,-336.9293 671.6622,-347.3805 676.8203,-338.126 669.9233,-336.9293"/>
</g>
<!-- Node6&#45;&gt;Node7 -->
<g id="edge6" class="edge">
<title>Node6&#45;&gt;Node7</title>
<path fill="none" stroke="#191970" d="M1110.8017,-567.9608C1128.3871,-565.3693 1146.7607,-562.6616 1163.4091,-560.2081"/>
<polygon fill="#191970" stroke="#191970" points="1109.9405,-564.5498 1100.5577,-569.4704 1110.9612,-571.475 1109.9405,-564.5498"/>
</g>
<!-- Node8 -->
<g id="node8" class="node">
<title>Node8</title>
<g id="a_node8"><a xlink:href="../../de/da4/classEMCalCalib.html#aa70da6270813e434e35da37b6ec2a350" target="_top" xlink:title="EMCalCalib::process\l_event">
<polygon fill="none" stroke="#000000" points="1356.5,-535.5 1356.5,-567.5 1474.5,-567.5 1474.5,-535.5 1356.5,-535.5"/>
<text text-anchor="start" x="1364.5" y="-554.5" font-family="FreeSans" font-size="10.00" fill="#000000">EMCalCalib::process</text>
<text text-anchor="middle" x="1415.5" y="-542.5" font-family="FreeSans" font-size="10.00" fill="#000000">_event</text>
</a>
</g>
</g>
<!-- Node7&#45;&gt;Node8 -->
<g id="edge7" class="edge">
<title>Node7&#45;&gt;Node8</title>
<path fill="none" stroke="#191970" d="M1291.9126,-551.5C1313.0277,-551.5 1336.0255,-551.5 1356.394,-551.5"/>
<polygon fill="#191970" stroke="#191970" points="1291.718,-548.0001 1281.718,-551.5 1291.7179,-555.0001 1291.718,-548.0001"/>
</g>
<!-- Node9&#45;&gt;Node6 -->
<g id="edge9" class="edge">
<title>Node9&#45;&gt;Node6</title>
<path fill="none" stroke="#191970" d="M936.2285,-579.5C944.8628,-579.5 953.514,-579.5 961.8951,-579.5"/>
<polygon fill="#191970" stroke="#191970" points="936.1175,-576.0001 926.1175,-579.5 936.1174,-583.0001 936.1175,-576.0001"/>
</g>
<!-- Node10&#45;&gt;Node11 -->
<g id="edge11" class="edge">
<title>Node10&#45;&gt;Node11</title>
<path fill="none" stroke="#191970" d="M1095.4974,-466.4364C1119.4877,-470.9819 1146.5609,-476.1115 1169.529,-480.4634"/>
<polygon fill="#191970" stroke="#191970" points="1095.9024,-462.9509 1085.4256,-464.528 1094.5992,-469.8285 1095.9024,-462.9509"/>
</g>
<!-- Node10&#45;&gt;Node13 -->
<g id="edge13" class="edge">
<title>Node10&#45;&gt;Node13</title>
<path fill="none" stroke="#191970" d="M1099.7886,-451.3126C1115.7174,-450.5581 1132.7854,-449.7496 1148.9752,-448.9828"/>
<polygon fill="#191970" stroke="#191970" points="1099.3294,-447.8304 1089.5063,-451.7997 1099.6607,-454.8225 1099.3294,-447.8304"/>
</g>
<!-- Node12 -->
<g id="node12" class="node">
<title>Node12</title>
<g id="a_node12"><a xlink:href="../../db/d4b/classEMCalAna.html#a3b829b80df0fd8625130f3d9c11f5d3d" target="_top" xlink:title="EMCalAna::process_event">
<polygon fill="none" stroke="#000000" points="1342,-458.5 1342,-478.5 1489,-478.5 1489,-458.5 1342,-458.5"/>
<text text-anchor="middle" x="1415.5" y="-465.5" font-family="FreeSans" font-size="10.00" fill="#000000">EMCalAna::process_event</text>
</a>
</g>
</g>
<!-- Node11&#45;&gt;Node12 -->
<g id="edge12" class="edge">
<title>Node11&#45;&gt;Node12</title>
<path fill="none" stroke="#191970" d="M1316.1344,-479.8266C1324.7679,-478.8425 1333.4319,-477.8549 1341.8499,-476.8954"/>
<polygon fill="#191970" stroke="#191970" points="1315.5693,-476.3683 1306.0301,-480.9784 1316.3622,-483.3233 1315.5693,-476.3683"/>
</g>
<!-- Node13&#45;&gt;Node12 -->
<g id="edge14" class="edge">
<title>Node13&#45;&gt;Node12</title>
<path fill="none" stroke="#191970" d="M1305.9694,-455.4471C1317.9148,-456.8707 1330.1315,-458.3266 1341.8693,-459.7254"/>
<polygon fill="#191970" stroke="#191970" points="1306.3595,-451.9689 1296.0156,-454.2609 1305.5311,-458.9198 1306.3595,-451.9689"/>
</g>
<!-- Node14&#45;&gt;Node10 -->
<g id="edge16" class="edge">
<title>Node14&#45;&gt;Node10</title>
<path fill="none" stroke="#191970" d="M922.5406,-459.7223C940.2479,-458.8814 958.683,-458.0058 975.2843,-457.2174"/>
<polygon fill="#191970" stroke="#191970" points="922.0409,-456.242 912.2182,-460.2126 922.3731,-463.2342 922.0409,-456.242"/>
</g>
<!-- Node22 -->
<g id="node22" class="node">
<title>Node22</title>
<g id="a_node22"><a xlink:href="../../dd/d75/classJetRecoEval.html#a0fd43210a77b0bce9c5623cf5f3b6e78" target="_top" xlink:title="JetRecoEval::set_strict">
<polygon fill="none" stroke="#000000" points="968,-31.5 968,-51.5 1097,-51.5 1097,-31.5 968,-31.5"/>
<text text-anchor="middle" x="1032.5" y="-38.5" font-family="FreeSans" font-size="10.00" fill="#000000">JetRecoEval::set_strict</text>
</a>
</g>
</g>
<!-- Node21&#45;&gt;Node22 -->
<g id="edge27" class="edge">
<title>Node21&#45;&gt;Node22</title>
<path fill="none" stroke="#191970" d="M918.2938,-41.5C934.6788,-41.5 951.875,-41.5 967.8066,-41.5"/>
<polygon fill="#191970" stroke="#191970" points="918.2152,-38.0001 908.2151,-41.5 918.2151,-45.0001 918.2152,-38.0001"/>
</g>
<!-- Node23 -->
<g id="node23" class="node">
<title>Node23</title>
<g id="a_node23"><a xlink:href="../../dd/df3/classJetEvalStack.html#aa717ed10fecde0ea2ac6c5030bdd6319" target="_top" xlink:title="JetEvalStack::set_strict">
<polygon fill="none" stroke="#000000" points="1156,-31.5 1156,-51.5 1289,-51.5 1289,-31.5 1156,-31.5"/>
<text text-anchor="middle" x="1222.5" y="-38.5" font-family="FreeSans" font-size="10.00" fill="#000000">JetEvalStack::set_strict</text>
</a>
</g>
</g>
<!-- Node22&#45;&gt;Node23 -->
<g id="edge28" class="edge">
<title>Node22&#45;&gt;Node23</title>
<path fill="none" stroke="#191970" d="M1107.4515,-41.5C1123.4225,-41.5 1140.1856,-41.5 1155.822,-41.5"/>
<polygon fill="#191970" stroke="#191970" points="1107.0905,-38.0001 1097.0905,-41.5 1107.0904,-45.0001 1107.0905,-38.0001"/>
</g>
<!-- Node24 -->
<g id="node24" class="node">
<title>Node24</title>
<g id="a_node24"><a xlink:href="../../d1/df4/classJetEvaluator.html#abd1af43deddc4ce57f0ef562c23deacb" target="_top" xlink:title="JetEvaluator::process\l_event">
<polygon fill="none" stroke="#000000" points="1353.5,-51.5 1353.5,-83.5 1477.5,-83.5 1477.5,-51.5 1353.5,-51.5"/>
<text text-anchor="start" x="1361.5" y="-70.5" font-family="FreeSans" font-size="10.00" fill="#000000">JetEvaluator::process</text>
<text text-anchor="middle" x="1415.5" y="-58.5" font-family="FreeSans" font-size="10.00" fill="#000000">_event</text>
</a>
</g>
</g>
<!-- Node23&#45;&gt;Node24 -->
<g id="edge29" class="edge">
<title>Node23&#45;&gt;Node24</title>
<path fill="none" stroke="#191970" d="M1299.3285,-51.8499C1317.2626,-54.2659 1336.1434,-56.8095 1353.3489,-59.1273"/>
<polygon fill="#191970" stroke="#191970" points="1299.5677,-48.3506 1289.1899,-50.4841 1298.6331,-55.288 1299.5677,-48.3506"/>
</g>
<!-- Node25 -->
<g id="node25" class="node">
<title>Node25</title>
<g id="a_node25"><a xlink:href="../../d8/de2/classJetEnergies.html#a6acaa9b2ba1fe7353781d2f5d476e8d1" target="_top" xlink:title="JetEnergies::process\l_event">
<polygon fill="none" stroke="#000000" points="1355.5,-.5 1355.5,-32.5 1475.5,-32.5 1475.5,-.5 1355.5,-.5"/>
<text text-anchor="start" x="1363.5" y="-19.5" font-family="FreeSans" font-size="10.00" fill="#000000">JetEnergies::process</text>
<text text-anchor="middle" x="1415.5" y="-7.5" font-family="FreeSans" font-size="10.00" fill="#000000">_event</text>
</a>
</g>
</g>
<!-- Node23&#45;&gt;Node25 -->
<g id="edge30" class="edge">
<title>Node23&#45;&gt;Node25</title>
<path fill="none" stroke="#191970" d="M1299.1346,-31.5732C1317.7971,-29.1558 1337.4957,-26.6042 1355.2724,-24.3015"/>
<polygon fill="#191970" stroke="#191970" points="1298.6574,-28.1057 1289.1899,-32.8614 1299.5567,-35.0477 1298.6574,-28.1057"/>
</g>
</g>
</svg>
