<?xml version="1.0" encoding="UTF-8" standalone="no"?>
<!DOCTYPE svg PUBLIC "-//W3C//DTD SVG 1.1//EN"
 "http://www.w3.org/Graphics/SVG/1.1/DTD/svg11.dtd">
<!-- Generated by graphviz version 2.40.1 (20161225.0304)
 -->
<!-- Title: PHG4InnerHcalDetector Pages: 1 -->
<svg width="1743pt" height="503pt"
 viewBox="0.00 0.00 1743.00 502.50" xmlns="http://www.w3.org/2000/svg" xmlns:xlink="http://www.w3.org/1999/xlink">
<g id="graph0" class="graph" transform="scale(1 1) rotate(0) translate(4 498.5)">
<title>PHG4InnerHcalDetector</title>
<!-- Node1 -->
<g id="node1" class="node">
<title>Node1</title>
<polygon fill="#bfbfbf" stroke="#000000" points="1598,-248.5 1598,-268.5 1735,-268.5 1735,-248.5 1598,-248.5"/>
<text text-anchor="middle" x="1666.5" y="-255.5" font-family="FreeSans" font-size="10.00" fill="#000000">PHG4InnerHcalDetector</text>
</g>
<!-- Node2 -->
<g id="node2" class="node">
<title>Node2</title>
<g id="a_node2"><a xlink:href="../../d3/de7/classPHG4Detector.html" target="_top" xlink:title="base class for phenix detector creation">
<polygon fill="none" stroke="#000000" points="1278.5,-355.5 1278.5,-375.5 1366.5,-375.5 1366.5,-355.5 1278.5,-355.5"/>
<text text-anchor="middle" x="1322.5" y="-362.5" font-family="FreeSans" font-size="10.00" fill="#000000">PHG4Detector</text>
</a>
</g>
</g>
<!-- Node2&#45;&gt;Node1 -->
<g id="edge1" class="edge">
<title>Node2&#45;&gt;Node1</title>
<path fill="none" stroke="#191970" d="M1376.9376,-367.3947C1430.778,-367.2702 1514.3975,-361.605 1580,-332.5 1613.6006,-317.5928 1644.0381,-285.2836 1658.1713,-268.729"/>
<polygon fill="#191970" stroke="#191970" points="1376.9255,-363.8947 1366.9116,-367.3545 1376.8974,-370.8947 1376.9255,-363.8947"/>
</g>
<!-- Node3 -->
<g id="node3" class="node">
<title>Node3</title>
<g id="a_node3"><a xlink:href="../../db/df7/classPHG4Subsystem.html" target="_top" xlink:title="PHG4Subsystem">
<polygon fill="none" stroke="#000000" points="954,-402.5 954,-422.5 1054,-422.5 1054,-402.5 954,-402.5"/>
<text text-anchor="middle" x="1004" y="-409.5" font-family="FreeSans" font-size="10.00" fill="#000000">PHG4Subsystem</text>
</a>
</g>
</g>
<!-- Node3&#45;&gt;Node2 -->
<g id="edge2" class="edge">
<title>Node3&#45;&gt;Node2</title>
<path fill="none" stroke="#9a32cd" stroke-dasharray="5,2" d="M1064.1427,-406.5087C1105.7717,-402.0592 1162.3934,-395.4074 1212,-387.5 1233.9244,-384.0052 1258.1288,-379.2848 1278.2818,-375.1126"/>
<polygon fill="#9a32cd" stroke="#9a32cd" points="1063.7401,-403.0317 1054.1636,-407.5639 1064.4762,-409.9929 1063.7401,-403.0317"/>
<text text-anchor="middle" x="1162" y="-403.5" font-family="FreeSans" font-size="10.00" fill="#000000"> m_MySubsystem</text>
</g>
<!-- Node3&#45;&gt;Node3 -->
<g id="edge7" class="edge">
<title>Node3&#45;&gt;Node3</title>
<path fill="none" stroke="#9a32cd" stroke-dasharray="5,2" d="M974.5513,-431.6639C975.9575,-436.9546 985.7737,-441 1004,-441 1031.7734,-441 1040.0187,-431.6067 1028.7357,-422.7271"/>
<polygon fill="#9a32cd" stroke="#9a32cd" points="977.6954,-433.2051 979.2643,-422.7271 971.5036,-429.9398 977.6954,-433.2051"/>
<text text-anchor="middle" x="1004" y="-444" font-family="FreeSans" font-size="10.00" fill="#000000"> m_MyMotherSubsystem</text>
</g>
<!-- Node4 -->
<g id="node4" class="node">
<title>Node4</title>
<g id="a_node4"><a xlink:href="../../d0/d32/classSubsysReco.html" target="_top" xlink:title="SubsysReco">
<polygon fill="none" stroke="#000000" points="620.5,-408.5 620.5,-428.5 696.5,-428.5 696.5,-408.5 620.5,-408.5"/>
<text text-anchor="middle" x="658.5" y="-415.5" font-family="FreeSans" font-size="10.00" fill="#000000">SubsysReco</text>
</a>
</g>
</g>
<!-- Node4&#45;&gt;Node3 -->
<g id="edge3" class="edge">
<title>Node4&#45;&gt;Node3</title>
<path fill="none" stroke="#191970" d="M706.8135,-417.661C772.0315,-416.5284 887.6676,-414.5202 953.8277,-413.3713"/>
<polygon fill="#191970" stroke="#191970" points="706.7323,-414.1618 696.7946,-417.835 706.8539,-421.1607 706.7323,-414.1618"/>
</g>
<!-- Node5 -->
<g id="node5" class="node">
<title>Node5</title>
<g id="a_node5"><a xlink:href="../../d5/dec/classFun4AllBase.html" target="_top" xlink:title="Fun4AllBase">
<polygon fill="none" stroke="#000000" points="338,-403.5 338,-423.5 416,-423.5 416,-403.5 338,-403.5"/>
<text text-anchor="middle" x="377" y="-410.5" font-family="FreeSans" font-size="10.00" fill="#000000">Fun4AllBase</text>
</a>
</g>
</g>
<!-- Node5&#45;&gt;Node4 -->
<g id="edge4" class="edge">
<title>Node5&#45;&gt;Node4</title>
<path fill="none" stroke="#191970" d="M426.3874,-414.3772C481.6079,-415.358 569.8658,-416.9257 620.1418,-417.8187"/>
<polygon fill="#191970" stroke="#191970" points="426.202,-410.8735 416.1414,-414.1952 426.0776,-417.8724 426.202,-410.8735"/>
</g>
<!-- Node6 -->
<g id="node6" class="node">
<title>Node6</title>
<g id="a_node6"><a xlink:title="STL class.">
<polygon fill="none" stroke="#bfbfbf" points="144,-201.5 144,-221.5 211,-221.5 211,-201.5 144,-201.5"/>
<text text-anchor="middle" x="177.5" y="-208.5" font-family="FreeSans" font-size="10.00" fill="#000000">std::string</text>
</a>
</g>
</g>
<!-- Node6&#45;&gt;Node1 -->
<g id="edge38" class="edge">
<title>Node6&#45;&gt;Node1</title>
<path fill="none" stroke="#9a32cd" stroke-dasharray="5,2" d="M219.7927,-223.8002C222.8918,-224.4541 225.9842,-225.0328 229,-225.5 375.6041,-248.211 757.5981,-200.0821 896,-253.5 905.7152,-257.2497 904.3933,-264.4806 914,-268.5 1044.1833,-322.9681 1089.05,-292.6029 1230,-299.5 1312.124,-303.5186 1332.8233,-302.2362 1415,-299.5 1488.4554,-297.0542 1507.9719,-303.1161 1580,-288.5 1601.9642,-284.043 1625.9741,-275.3948 1643.1131,-268.5245"/>
<polygon fill="#9a32cd" stroke="#9a32cd" points="220.49,-220.369 209.9558,-221.5009 218.8966,-227.1852 220.49,-220.369"/>
<text text-anchor="middle" x="822.5" y="-280.5" font-family="FreeSans" font-size="10.00" fill="#000000"> m_TowerGeomNodeName</text>
<text text-anchor="middle" x="822.5" y="-268.5" font-family="FreeSans" font-size="10.00" fill="#000000">m_SuperDetector</text>
<text text-anchor="middle" x="822.5" y="-256.5" font-family="FreeSans" font-size="10.00" fill="#000000">m_ScintiLogicNamePrefix</text>
</g>
<!-- Node6&#45;&gt;Node2 -->
<g id="edge8" class="edge">
<title>Node6&#45;&gt;Node2</title>
<path fill="none" stroke="#9a32cd" stroke-dasharray="5,2" d="M180.2354,-231.6644C185.0625,-259.2438 197.7295,-308.3907 229,-335.5 280.3132,-379.9848 309.0887,-373.5 377,-373.5 377,-373.5 377,-373.5 1004,-373.5 1102.0415,-373.5 1217.0055,-369.6648 1278.4578,-367.3053"/>
<polygon fill="#9a32cd" stroke="#9a32cd" points="183.6653,-230.9443 178.6585,-221.6072 176.7498,-232.0286 183.6653,-230.9443"/>
<text text-anchor="middle" x="658.5" y="-376.5" font-family="FreeSans" font-size="10.00" fill="#000000"> m_Name</text>
</g>
<!-- Node6&#45;&gt;Node5 -->
<g id="edge5" class="edge">
<title>Node6&#45;&gt;Node5</title>
<path fill="none" stroke="#9a32cd" stroke-dasharray="5,2" d="M180.728,-231.9397C187.742,-273.6905 205.6389,-366.5931 229,-387.5 258.4513,-413.8573 304.8773,-418.1241 337.8723,-417.2156"/>
<polygon fill="#9a32cd" stroke="#9a32cd" points="184.1447,-231.1454 179.0774,-221.8409 177.2363,-232.2746 184.1447,-231.1454"/>
<text text-anchor="middle" x="264" y="-417.5" font-family="FreeSans" font-size="10.00" fill="#000000"> m_ThisName</text>
</g>
<!-- Node9 -->
<g id="node9" class="node">
<title>Node9</title>
<g id="a_node9"><a xlink:href="../../dc/d82/classPHNode.html" target="_top" xlink:title="PHNode">
<polygon fill="none" stroke="#000000" points="349,-278.5 349,-298.5 405,-298.5 405,-278.5 349,-278.5"/>
<text text-anchor="middle" x="377" y="-285.5" font-family="FreeSans" font-size="10.00" fill="#000000">PHNode</text>
</a>
</g>
</g>
<!-- Node6&#45;&gt;Node9 -->
<g id="edge12" class="edge">
<title>Node6&#45;&gt;Node9</title>
<path fill="none" stroke="#9a32cd" stroke-dasharray="5,2" d="M190.839,-229.9534C200.1929,-241.4715 213.7228,-255.5701 229,-263.5 267.2774,-283.3685 317.9187,-287.9962 348.9401,-288.7851"/>
<polygon fill="#9a32cd" stroke="#9a32cd" points="193.4213,-227.5707 184.5403,-221.7933 187.8801,-231.848 193.4213,-227.5707"/>
<text text-anchor="middle" x="264" y="-322.5" font-family="FreeSans" font-size="10.00" fill="#000000"> objecttype</text>
<text text-anchor="middle" x="264" y="-310.5" font-family="FreeSans" font-size="10.00" fill="#000000">objectclass</text>
<text text-anchor="middle" x="264" y="-298.5" font-family="FreeSans" font-size="10.00" fill="#000000">type</text>
<text text-anchor="middle" x="264" y="-286.5" font-family="FreeSans" font-size="10.00" fill="#000000">name</text>
</g>
<!-- Node17 -->
<g id="node17" class="node">
<title>Node17</title>
<g id="a_node17"><a xlink:href="../../d2/d44/classPHG4DisplayAction.html" target="_top" xlink:title="PHG4DisplayAction">
<polygon fill="none" stroke="#000000" points="455,-194.5 455,-214.5 568,-214.5 568,-194.5 455,-194.5"/>
<text text-anchor="middle" x="511.5" y="-201.5" font-family="FreeSans" font-size="10.00" fill="#000000">PHG4DisplayAction</text>
</a>
</g>
</g>
<!-- Node6&#45;&gt;Node17 -->
<g id="edge22" class="edge">
<title>Node6&#45;&gt;Node17</title>
<path fill="none" stroke="#9a32cd" stroke-dasharray="5,2" d="M221.3212,-210.5816C281.2931,-209.3247 389,-207.0674 454.9791,-205.6846"/>
<polygon fill="#9a32cd" stroke="#9a32cd" points="220.9789,-207.0879 211.0544,-210.7968 221.1256,-214.0864 220.9789,-207.0879"/>
<text text-anchor="middle" x="264" y="-212.5" font-family="FreeSans" font-size="10.00" fill="#000000"> m_Detector</text>
</g>
<!-- Node22 -->
<g id="node22" class="node">
<title>Node22</title>
<g id="a_node22"><a xlink:href="../../dd/dae/classPHParameters.html" target="_top" xlink:title="PHParameters">
<polygon fill="none" stroke="#000000" points="615,-64.5 615,-84.5 702,-84.5 702,-64.5 615,-64.5"/>
<text text-anchor="middle" x="658.5" y="-71.5" font-family="FreeSans" font-size="10.00" fill="#000000">PHParameters</text>
</a>
</g>
</g>
<!-- Node6&#45;&gt;Node22 -->
<g id="edge37" class="edge">
<title>Node6&#45;&gt;Node22</title>
<path fill="none" stroke="#9a32cd" stroke-dasharray="5,2" d="M221.4872,-205.0832C294.9013,-193.5583 446.3443,-166.2884 568,-121.5 595.081,-111.5299 624.3657,-95.2018 642.0689,-84.6542"/>
<polygon fill="#9a32cd" stroke="#9a32cd" points="220.5818,-201.6816 211.2346,-206.6696 221.6522,-208.5992 220.5818,-201.6816"/>
<text text-anchor="middle" x="377" y="-190.5" font-family="FreeSans" font-size="10.00" fill="#000000"> m_Detector</text>
</g>
<!-- Node23 -->
<g id="node23" class="node">
<title>Node23</title>
<polygon fill="none" stroke="#bfbfbf" points="318,-102.5 318,-134.5 436,-134.5 436,-102.5 318,-102.5"/>
<text text-anchor="start" x="326" y="-121.5" font-family="FreeSans" font-size="10.00" fill="#000000">std::map&lt; const std</text>
<text text-anchor="middle" x="377" y="-109.5" font-family="FreeSans" font-size="10.00" fill="#000000">::string, double &gt;</text>
</g>
<!-- Node6&#45;&gt;Node23 -->
<g id="edge32" class="edge">
<title>Node6&#45;&gt;Node23</title>
<path fill="none" stroke="#9a32cd" stroke-dasharray="5,2" d="M187.5003,-192.013C196.3275,-176.863 210.6412,-156.6128 229,-145.5 255.4776,-129.4729 289.1543,-122.4981 317.6921,-119.6293"/>
<polygon fill="#9a32cd" stroke="#9a32cd" points="184.2624,-190.637 182.5044,-201.085 190.3942,-194.0138 184.2624,-190.637"/>
<text text-anchor="middle" x="264" y="-148.5" font-family="FreeSans" font-size="10.00" fill="#000000"> keys</text>
</g>
<!-- Node24 -->
<g id="node24" class="node">
<title>Node24</title>
<polygon fill="none" stroke="#bfbfbf" points="318,-.5 318,-32.5 436,-32.5 436,-.5 318,-.5"/>
<text text-anchor="start" x="326" y="-19.5" font-family="FreeSans" font-size="10.00" fill="#000000">std::map&lt; const std</text>
<text text-anchor="middle" x="377" y="-7.5" font-family="FreeSans" font-size="10.00" fill="#000000">::string, int &gt;</text>
</g>
<!-- Node6&#45;&gt;Node24 -->
<g id="edge34" class="edge">
<title>Node6&#45;&gt;Node24</title>
<path fill="none" stroke="#9a32cd" stroke-dasharray="5,2" d="M181.4856,-191.3269C189.4584,-152.9694 208.384,-71.6321 229,-52.5 252.8411,-30.3748 287.9382,-21.2 317.9713,-17.6386"/>
<polygon fill="#9a32cd" stroke="#9a32cd" points="178.0148,-190.8317 179.4537,-201.3284 184.8747,-192.2254 178.0148,-190.8317"/>
<text text-anchor="middle" x="264" y="-55.5" font-family="FreeSans" font-size="10.00" fill="#000000"> keys</text>
</g>
<!-- Node25 -->
<g id="node25" class="node">
<title>Node25</title>
<polygon fill="none" stroke="#bfbfbf" points="317,-51.5 317,-83.5 437,-83.5 437,-51.5 317,-51.5"/>
<text text-anchor="start" x="325" y="-70.5" font-family="FreeSans" font-size="10.00" fill="#000000">std::map&lt; const std</text>
<text text-anchor="middle" x="377" y="-58.5" font-family="FreeSans" font-size="10.00" fill="#000000">::string, std::string &gt;</text>
</g>
<!-- Node6&#45;&gt;Node25 -->
<g id="edge36" class="edge">
<title>Node6&#45;&gt;Node25</title>
<path fill="none" stroke="#9a32cd" stroke-dasharray="5,2" d="M180.3969,-191.201C185.3522,-164.4098 198.1033,-117.8069 229,-93.5 253.6041,-74.1435 287.6614,-67.2209 316.9033,-65.3284"/>
<polygon fill="#9a32cd" stroke="#9a32cd" points="176.8976,-190.9103 178.7204,-201.3472 183.8039,-192.0516 176.8976,-190.9103"/>
<text text-anchor="middle" x="264" y="-108.5" font-family="FreeSans" font-size="10.00" fill="#000000"> keys</text>
<text text-anchor="middle" x="264" y="-96.5" font-family="FreeSans" font-size="10.00" fill="#000000">elements</text>
</g>
<!-- Node7 -->
<g id="node7" class="node">
<title>Node7</title>
<g id="a_node7"><a xlink:title="STL class.">
<polygon fill="none" stroke="#bfbfbf" points="0,-195.5 0,-227.5 107,-227.5 107,-195.5 0,-195.5"/>
<text text-anchor="start" x="8" y="-214.5" font-family="FreeSans" font-size="10.00" fill="#000000">std::basic_string&lt;</text>
<text text-anchor="middle" x="53.5" y="-202.5" font-family="FreeSans" font-size="10.00" fill="#000000"> char &gt;</text>
</a>
</g>
</g>
<!-- Node7&#45;&gt;Node6 -->
<g id="edge6" class="edge">
<title>Node7&#45;&gt;Node6</title>
<path fill="none" stroke="#191970" d="M117.4289,-211.5C126.5342,-211.5 135.584,-211.5 143.7918,-211.5"/>
<polygon fill="#191970" stroke="#191970" points="117.167,-208.0001 107.167,-211.5 117.167,-215.0001 117.167,-208.0001"/>
</g>
<!-- Node8 -->
<g id="node8" class="node">
<title>Node8</title>
<g id="a_node8"><a xlink:href="../../d5/dca/classPHCompositeNode.html" target="_top" xlink:title="PHCompositeNode">
<polygon fill="none" stroke="#000000" points="949,-324.5 949,-344.5 1059,-344.5 1059,-324.5 949,-324.5"/>
<text text-anchor="middle" x="1004" y="-331.5" font-family="FreeSans" font-size="10.00" fill="#000000">PHCompositeNode</text>
</a>
</g>
</g>
<!-- Node8&#45;&gt;Node2 -->
<g id="edge9" class="edge">
<title>Node8&#45;&gt;Node2</title>
<path fill="none" stroke="#9a32cd" stroke-dasharray="5,2" d="M1069.4518,-336.9273C1110.4859,-338.8606 1164.4354,-342.1529 1212,-347.5 1233.9228,-349.9645 1258.1269,-353.7819 1278.2802,-357.2681"/>
<polygon fill="#9a32cd" stroke="#9a32cd" points="1069.4586,-333.4241 1059.3095,-336.4647 1069.1396,-340.4168 1069.4586,-333.4241"/>
<text text-anchor="middle" x="1162" y="-350.5" font-family="FreeSans" font-size="10.00" fill="#000000"> m_topNode</text>
</g>
<!-- Node9&#45;&gt;Node8 -->
<g id="edge10" class="edge">
<title>Node9&#45;&gt;Node8</title>
<path fill="none" stroke="#191970" d="M415.4833,-297.5438C428.019,-300.1807 442.0427,-302.8055 455,-304.5 634.596,-327.9872 849.5721,-333.1383 948.8111,-334.2314"/>
<polygon fill="#191970" stroke="#191970" points="415.8742,-294.0472 405.3593,-295.3461 414.3892,-300.8879 415.8742,-294.0472"/>
</g>
<!-- Node9&#45;&gt;Node9 -->
<g id="edge11" class="edge">
<title>Node9&#45;&gt;Node9</title>
<path fill="none" stroke="#9a32cd" stroke-dasharray="5,2" d="M356.3079,-308.4109C357.798,-313.3307 364.6953,-317 377,-317 396.6875,-317 402.5322,-307.6067 394.5342,-298.7271"/>
<polygon fill="#9a32cd" stroke="#9a32cd" points="359.693,-309.3195 359.4658,-298.7271 353.0379,-307.1492 359.693,-309.3195"/>
<text text-anchor="middle" x="377" y="-320" font-family="FreeSans" font-size="10.00" fill="#000000"> parent</text>
</g>
<!-- Node10 -->
<g id="node10" class="node">
<title>Node10</title>
<g id="a_node10"><a xlink:href="../../d6/d86/classPHPointerList.html" target="_top" xlink:title="PHPointerList\&lt; PHNode \&gt;">
<polygon fill="none" stroke="#000000" points="586,-278.5 586,-298.5 731,-298.5 731,-278.5 586,-278.5"/>
<text text-anchor="middle" x="658.5" y="-285.5" font-family="FreeSans" font-size="10.00" fill="#000000">PHPointerList&lt; PHNode &gt;</text>
</a>
</g>
</g>
<!-- Node9&#45;&gt;Node10 -->
<g id="edge14" class="edge">
<title>Node9&#45;&gt;Node10</title>
<path fill="none" stroke="#9a32cd" stroke-dasharray="5,2" d="M415.2098,-288.5C458.8832,-288.5 531.3559,-288.5 585.8667,-288.5"/>
<polygon fill="#9a32cd" stroke="#9a32cd" points="415.0205,-285.0001 405.0204,-288.5 415.0204,-292.0001 415.0205,-285.0001"/>
<text text-anchor="middle" x="511.5" y="-291.5" font-family="FreeSans" font-size="10.00" fill="#000000"> items</text>
</g>
<!-- Node10&#45;&gt;Node8 -->
<g id="edge13" class="edge">
<title>Node10&#45;&gt;Node8</title>
<path fill="none" stroke="#9a32cd" stroke-dasharray="5,2" d="M741.2353,-292.977C787.0395,-296.1663 844.8837,-301.3645 896,-309.5 919.5681,-313.251 945.6435,-319.2337 966.2677,-324.4061"/>
<polygon fill="#9a32cd" stroke="#9a32cd" points="741.2712,-289.4715 731.0574,-292.2874 740.798,-296.4555 741.2712,-289.4715"/>
<text text-anchor="middle" x="822.5" y="-312.5" font-family="FreeSans" font-size="10.00" fill="#000000"> subNodes</text>
</g>
<!-- Node11 -->
<g id="node11" class="node">
<title>Node11</title>
<polygon fill="none" stroke="#bfbfbf" points="1236,-218.5 1236,-250.5 1409,-250.5 1409,-218.5 1236,-218.5"/>
<text text-anchor="start" x="1244" y="-237.5" font-family="FreeSans" font-size="10.00" fill="#000000">std::map&lt; G4VPhysicalVolume</text>
<text text-anchor="middle" x="1322.5" y="-225.5" font-family="FreeSans" font-size="10.00" fill="#000000"> *, std::pair&lt; int, int &gt; &gt;</text>
</g>
<!-- Node11&#45;&gt;Node1 -->
<g id="edge15" class="edge">
<title>Node11&#45;&gt;Node1</title>
<path fill="none" stroke="#9a32cd" stroke-dasharray="5,2" d="M1419.1799,-237.6393C1467.5374,-239.6522 1526.927,-242.7926 1580,-247.5 1585.7301,-248.0082 1591.6649,-248.608 1597.6175,-249.2608"/>
<polygon fill="#9a32cd" stroke="#9a32cd" points="1419.1685,-234.1361 1409.0346,-237.2268 1418.8841,-241.1303 1419.1685,-234.1361"/>
<text text-anchor="middle" x="1506.5" y="-250.5" font-family="FreeSans" font-size="10.00" fill="#000000"> m_ScintiTilePhysVolMap</text>
</g>
<!-- Node12 -->
<g id="node12" class="node">
<title>Node12</title>
<g id="a_node12"><a xlink:href="../../d1/d28/classG4VPhysicalVolume.html" target="_top" xlink:title="Mockup class.">
<polygon fill="none" stroke="#000000" points="946,-238.5 946,-258.5 1062,-258.5 1062,-238.5 946,-238.5"/>
<text text-anchor="middle" x="1004" y="-245.5" font-family="FreeSans" font-size="10.00" fill="#000000">G4VPhysicalVolume</text>
</a>
</g>
</g>
<!-- Node12&#45;&gt;Node11 -->
<g id="edge16" class="edge">
<title>Node12&#45;&gt;Node11</title>
<path fill="none" stroke="#9a32cd" stroke-dasharray="5,2" d="M1072.2895,-245.4983C1120.0767,-243.3977 1184.3041,-240.5745 1235.7204,-238.3145"/>
<polygon fill="#9a32cd" stroke="#9a32cd" points="1071.8841,-242.0126 1062.0475,-245.9485 1072.1915,-249.0059 1071.8841,-242.0126"/>
<text text-anchor="middle" x="1162" y="-246.5" font-family="FreeSans" font-size="10.00" fill="#000000"> keys</text>
</g>
<!-- Node16 -->
<g id="node16" class="node">
<title>Node16</title>
<g id="a_node16"><a xlink:href="../../d2/dbb/classPHG4InnerHcalDisplayAction.html" target="_top" xlink:title="PHG4InnerHcalDisplayAction">
<polygon fill="none" stroke="#000000" points="1242,-140.5 1242,-160.5 1403,-160.5 1403,-140.5 1242,-140.5"/>
<text text-anchor="middle" x="1322.5" y="-147.5" font-family="FreeSans" font-size="10.00" fill="#000000">PHG4InnerHcalDisplayAction</text>
</a>
</g>
</g>
<!-- Node12&#45;&gt;Node16 -->
<g id="edge24" class="edge">
<title>Node12&#45;&gt;Node16</title>
<path fill="none" stroke="#9a32cd" stroke-dasharray="5,2" d="M1055.7308,-236.0062C1112.8929,-221.9366 1198.6858,-199.937 1212,-191.5 1222.3835,-184.9201 1219.441,-176.7943 1230,-170.5 1236.7742,-166.4618 1244.26,-163.2349 1251.9524,-160.6569"/>
<polygon fill="#9a32cd" stroke="#9a32cd" points="1054.6445,-232.6688 1045.766,-238.4501 1056.3119,-239.4674 1054.6445,-232.6688"/>
<text text-anchor="middle" x="1162" y="-224.5" font-family="FreeSans" font-size="10.00" fill="#000000"> m_MyTopVolume</text>
</g>
<!-- Node21 -->
<g id="node21" class="node">
<title>Node21</title>
<polygon fill="none" stroke="#bfbfbf" points="1230,-269.5 1230,-289.5 1415,-289.5 1415,-269.5 1230,-269.5"/>
<text text-anchor="middle" x="1322.5" y="-276.5" font-family="FreeSans" font-size="10.00" fill="#000000">std::set&lt; G4VPhysicalVolume * &gt;</text>
</g>
<!-- Node12&#45;&gt;Node21 -->
<g id="edge28" class="edge">
<title>Node12&#45;&gt;Node21</title>
<path fill="none" stroke="#9a32cd" stroke-dasharray="5,2" d="M1072.0156,-255.4984C1085.275,-256.8426 1099.0713,-258.2274 1112,-259.5 1150.5425,-263.2938 1193.0676,-267.3573 1229.747,-270.824"/>
<polygon fill="#9a32cd" stroke="#9a32cd" points="1072.3066,-252.01 1062.0039,-254.4808 1071.5987,-258.9741 1072.3066,-252.01"/>
<text text-anchor="middle" x="1162" y="-271.5" font-family="FreeSans" font-size="10.00" fill="#000000"> keys</text>
</g>
<!-- Node13 -->
<g id="node13" class="node">
<title>Node13</title>
<g id="a_node13"><a xlink:href="../../df/d49/classRawTowerGeomContainer.html" target="_top" xlink:title="base class to describe calorimeter geometries">
<polygon fill="none" stroke="#000000" points="749,-465.5 749,-485.5 896,-485.5 896,-465.5 749,-465.5"/>
<text text-anchor="middle" x="822.5" y="-472.5" font-family="FreeSans" font-size="10.00" fill="#000000">RawTowerGeomContainer</text>
</a>
</g>
</g>
<!-- Node13&#45;&gt;Node1 -->
<g id="edge17" class="edge">
<title>Node13&#45;&gt;Node1</title>
<path fill="none" stroke="#9a32cd" stroke-dasharray="5,2" d="M906.5025,-482.8678C1054.005,-491.7187 1364.3501,-491.7572 1580,-362.5 1619.6823,-338.715 1649.5145,-289.9501 1661.1575,-268.7358"/>
<polygon fill="#9a32cd" stroke="#9a32cd" points="906.3675,-479.3524 896.1673,-482.2169 905.9275,-486.3386 906.3675,-479.3524"/>
<text text-anchor="middle" x="1162" y="-485.5" font-family="FreeSans" font-size="10.00" fill="#000000"> m_RawTowerGeom</text>
</g>
<!-- Node14 -->
<g id="node14" class="node">
<title>Node14</title>
<g id="a_node14"><a xlink:href="../../d9/d24/classPHObject.html" target="_top" xlink:title="PHObject">
<polygon fill="none" stroke="#000000" points="345.5,-442.5 345.5,-462.5 408.5,-462.5 408.5,-442.5 345.5,-442.5"/>
<text text-anchor="middle" x="377" y="-449.5" font-family="FreeSans" font-size="10.00" fill="#000000">PHObject</text>
</a>
</g>
</g>
<!-- Node14&#45;&gt;Node13 -->
<g id="edge18" class="edge">
<title>Node14&#45;&gt;Node13</title>
<path fill="none" stroke="#191970" d="M418.7585,-454.6559C494.2597,-458.5538 654.3731,-466.82 748.7024,-471.69"/>
<polygon fill="#191970" stroke="#191970" points="418.8493,-451.156 408.6821,-454.1357 418.4883,-458.1467 418.8493,-451.156"/>
</g>
<!-- Node14&#45;&gt;Node22 -->
<g id="edge30" class="edge">
<title>Node14&#45;&gt;Node22</title>
<path fill="none" stroke="#191970" d="M418.2088,-442.3041C424.7252,-439.895 431.2147,-436.9851 437,-433.5 506.9933,-391.3352 522.9478,-372.6707 568,-304.5 581.1306,-284.6315 639.5451,-126.2592 654.8298,-84.542"/>
<polygon fill="#191970" stroke="#191970" points="417.0903,-438.9876 408.7211,-445.4843 419.315,-445.6246 417.0903,-438.9876"/>
</g>
<!-- Node15 -->
<g id="node15" class="node">
<title>Node15</title>
<polygon fill="none" stroke="#bfbfbf" points="149,-442.5 149,-462.5 206,-462.5 206,-442.5 149,-442.5"/>
<text text-anchor="middle" x="177.5" y="-449.5" font-family="FreeSans" font-size="10.00" fill="#000000">TObject</text>
</g>
<!-- Node15&#45;&gt;Node14 -->
<g id="edge19" class="edge">
<title>Node15&#45;&gt;Node14</title>
<path fill="none" stroke="#191970" d="M216.1488,-452.5C253.7221,-452.5 310.1089,-452.5 345.1715,-452.5"/>
<polygon fill="#191970" stroke="#191970" points="216.0835,-449.0001 206.0835,-452.5 216.0835,-456.0001 216.0835,-449.0001"/>
</g>
<!-- Node16&#45;&gt;Node1 -->
<g id="edge20" class="edge">
<title>Node16&#45;&gt;Node1</title>
<path fill="none" stroke="#9a32cd" stroke-dasharray="5,2" d="M1413.0506,-147.7262C1464.1116,-149.3674 1527.9101,-156.9327 1580,-180.5 1614.6359,-196.1705 1645.0503,-230.8909 1658.7642,-248.2304"/>
<polygon fill="#9a32cd" stroke="#9a32cd" points="1413.1003,-144.2265 1403.0154,-147.474 1412.9243,-151.2243 1413.1003,-144.2265"/>
<text text-anchor="middle" x="1506.5" y="-183.5" font-family="FreeSans" font-size="10.00" fill="#000000"> m_DisplayAction</text>
</g>
<!-- Node17&#45;&gt;Node16 -->
<g id="edge21" class="edge">
<title>Node17&#45;&gt;Node16</title>
<path fill="none" stroke="#191970" d="M578.5504,-202.8616C703.441,-199.3662 980.065,-189.5358 1212,-166.5 1227.6242,-164.9482 1244.4237,-162.7766 1260.0906,-160.5328"/>
<polygon fill="#191970" stroke="#191970" points="578.2815,-199.3676 568.3816,-203.1415 578.4742,-206.365 578.2815,-199.3676"/>
</g>
<!-- Node18 -->
<g id="node18" class="node">
<title>Node18</title>
<polygon fill="none" stroke="#bfbfbf" points="918,-140.5 918,-160.5 1090,-160.5 1090,-140.5 918,-140.5"/>
<text text-anchor="middle" x="1004" y="-147.5" font-family="FreeSans" font-size="10.00" fill="#000000">std::set&lt; G4LogicalVolume * &gt;</text>
</g>
<!-- Node18&#45;&gt;Node16 -->
<g id="edge23" class="edge">
<title>Node18&#45;&gt;Node16</title>
<path fill="none" stroke="#9a32cd" stroke-dasharray="5,2" d="M1100.313,-150.5C1145.5727,-150.5 1198.9151,-150.5 1241.9883,-150.5"/>
<polygon fill="#9a32cd" stroke="#9a32cd" points="1100.1907,-147.0001 1090.1907,-150.5 1100.1907,-154.0001 1100.1907,-147.0001"/>
<text text-anchor="middle" x="1162" y="-153.5" font-family="FreeSans" font-size="10.00" fill="#000000"> m_ScintiLogVolSet</text>
</g>
<!-- Node19 -->
<g id="node19" class="node">
<title>Node19</title>
<polygon fill="none" stroke="#bfbfbf" points="914,-101.5 914,-121.5 1094,-121.5 1094,-101.5 914,-101.5"/>
<text text-anchor="middle" x="1004" y="-108.5" font-family="FreeSans" font-size="10.00" fill="#000000">std::vector&lt; G4VisAttributes * &gt;</text>
</g>
<!-- Node19&#45;&gt;Node16 -->
<g id="edge25" class="edge">
<title>Node19&#45;&gt;Node16</title>
<path fill="none" stroke="#9a32cd" stroke-dasharray="5,2" d="M1104.1791,-121.8874C1138.4079,-125.6199 1176.903,-130.0199 1212,-134.5 1226.2288,-136.3163 1241.4646,-138.4195 1255.9364,-140.4919"/>
<polygon fill="#9a32cd" stroke="#9a32cd" points="1104.494,-118.4011 1094.1748,-120.8022 1103.739,-125.3603 1104.494,-118.4011"/>
<text text-anchor="middle" x="1162" y="-137.5" font-family="FreeSans" font-size="10.00" fill="#000000"> m_VisAttVec</text>
</g>
<!-- Node20 -->
<g id="node20" class="node">
<title>Node20</title>
<polygon fill="none" stroke="#bfbfbf" points="1249,-179.5 1249,-199.5 1396,-199.5 1396,-179.5 1249,-179.5"/>
<text text-anchor="middle" x="1322.5" y="-186.5" font-family="FreeSans" font-size="10.00" fill="#000000">std::vector&lt; G4VSolid * &gt;</text>
</g>
<!-- Node20&#45;&gt;Node1 -->
<g id="edge26" class="edge">
<title>Node20&#45;&gt;Node1</title>
<path fill="none" stroke="#9a32cd" stroke-dasharray="5,2" d="M1406.2314,-193.9475C1457.1575,-198.1137 1523.1246,-206.1312 1580,-221.5 1603.9673,-227.9764 1629.9681,-239.806 1647.1382,-248.3487"/>
<polygon fill="#9a32cd" stroke="#9a32cd" points="1406.497,-190.4576 1396.2538,-193.1645 1405.9494,-197.4362 1406.497,-190.4576"/>
<text text-anchor="middle" x="1506.5" y="-224.5" font-family="FreeSans" font-size="10.00" fill="#000000"> m_ScintiTilesVec</text>
</g>
<!-- Node21&#45;&gt;Node1 -->
<g id="edge27" class="edge">
<title>Node21&#45;&gt;Node1</title>
<path fill="none" stroke="#9a32cd" stroke-dasharray="5,2" d="M1425.4146,-273.2174C1481.2125,-269.8112 1548.6439,-265.6947 1597.9874,-262.6825"/>
<polygon fill="#9a32cd" stroke="#9a32cd" points="1424.9063,-269.7418 1415.1382,-273.8448 1425.3329,-276.7288 1424.9063,-269.7418"/>
<text text-anchor="middle" x="1506.5" y="-275.5" font-family="FreeSans" font-size="10.00" fill="#000000"> m_SteelAbsorberPhysVolSet</text>
</g>
<!-- Node22&#45;&gt;Node1 -->
<g id="edge29" class="edge">
<title>Node22&#45;&gt;Node1</title>
<path fill="none" stroke="#9a32cd" stroke-dasharray="5,2" d="M712.3683,-63.717C861.7283,-36.7697 1289.2389,20.1169 1580,-144.5 1623.4555,-169.1027 1651.997,-225.3491 1662.2551,-248.3819"/>
<polygon fill="#9a32cd" stroke="#9a32cd" points="711.3044,-60.3537 702.1008,-65.6019 712.5684,-67.2386 711.3044,-60.3537"/>
<text text-anchor="middle" x="1162" y="-41.5" font-family="FreeSans" font-size="10.00" fill="#000000"> m_Params</text>
</g>
<!-- Node23&#45;&gt;Node22 -->
<g id="edge31" class="edge">
<title>Node23&#45;&gt;Node22</title>
<path fill="none" stroke="#9a32cd" stroke-dasharray="5,2" d="M445.9567,-107.7217C498.635,-99.4878 569.6364,-88.3899 614.751,-81.3382"/>
<polygon fill="#9a32cd" stroke="#9a32cd" points="445.3511,-104.2738 436.0116,-109.2762 446.4322,-111.1898 445.3511,-104.2738"/>
<text text-anchor="middle" x="511.5" y="-108.5" font-family="FreeSans" font-size="10.00" fill="#000000"> m_DoubleParMap</text>
</g>
<!-- Node24&#45;&gt;Node22 -->
<g id="edge33" class="edge">
<title>Node24&#45;&gt;Node22</title>
<path fill="none" stroke="#9a32cd" stroke-dasharray="5,2" d="M446.108,-28.6276C482.4728,-35.2358 527.7488,-43.8205 568,-52.5 584.7544,-56.1128 603.1501,-60.5056 618.9554,-64.4131"/>
<polygon fill="#9a32cd" stroke="#9a32cd" points="446.5623,-25.1531 436.0991,-26.8178 445.3167,-32.0414 446.5623,-25.1531"/>
<text text-anchor="middle" x="511.5" y="-55.5" font-family="FreeSans" font-size="10.00" fill="#000000"> m_IntParMap</text>
</g>
<!-- Node25&#45;&gt;Node22 -->
<g id="edge35" class="edge">
<title>Node25&#45;&gt;Node22</title>
<path fill="none" stroke="#9a32cd" stroke-dasharray="5,2" d="M447.6351,-68.1303C483.6631,-68.5734 528.1746,-69.3074 568,-70.5 583.2485,-70.9566 599.9346,-71.6415 614.7796,-72.3161"/>
<polygon fill="#9a32cd" stroke="#9a32cd" points="447.2671,-64.6258 437.2265,-68.0074 447.1844,-71.6253 447.2671,-64.6258"/>
<text text-anchor="middle" x="511.5" y="-73.5" font-family="FreeSans" font-size="10.00" fill="#000000"> m_StringParMap</text>
</g>
</g>
</svg>
