<?xml version="1.0" encoding="UTF-8" standalone="no"?>
<!DOCTYPE svg PUBLIC "-//W3C//DTD SVG 1.1//EN"
 "http://www.w3.org/Graphics/SVG/1.1/DTD/svg11.dtd">
<!-- Generated by graphviz version 2.40.1 (20161225.0304)
 -->
<!-- Title: pathfinder::const_iterator Pages: 1 -->
<svg width="1603pt" height="382pt"
 viewBox="0.00 0.00 1603.00 382.00" xmlns="http://www.w3.org/2000/svg" xmlns:xlink="http://www.w3.org/1999/xlink">
<g id="graph0" class="graph" transform="scale(1 1) rotate(0) translate(4 378)">
<title>pathfinder::const_iterator</title>
<!-- Node1 -->
<g id="node1" class="node">
<title>Node1</title>
<polygon fill="#bfbfbf" stroke="#000000" points="586,-171.5 586,-191.5 732,-191.5 732,-171.5 586,-171.5"/>
<text text-anchor="middle" x="659" y="-178.5" font-family="FreeSans" font-size="10.00" fill="#000000">pathfinder::const_iterator</text>
</g>
<!-- Node2 -->
<g id="node2" class="node">
<title>Node2</title>
<g id="a_node2"><a xlink:href="../../da/d9f/classnode.html" target="_top" xlink:title="A node in a graph.">
<polygon fill="none" stroke="#000000" points="444,-271.5 444,-291.5 485,-291.5 485,-271.5 444,-271.5"/>
<text text-anchor="middle" x="464.5" y="-278.5" font-family="FreeSans" font-size="10.00" fill="#000000">node</text>
</a>
</g>
</g>
<!-- Node2&#45;&gt;Node1 -->
<g id="edge1" class="edge">
<title>Node2&#45;&gt;Node1</title>
<path fill="none" stroke="#9a32cd" stroke-dasharray="5,2" d="M478.1685,-263.4234C487.8639,-251.7164 501.8111,-236.9463 517,-227.5 544.947,-210.1193 580.1128,-198.6625 608.457,-191.5295"/>
<polygon fill="#9a32cd" stroke="#9a32cd" points="475.3975,-261.2845 471.9032,-271.2865 480.8722,-265.6467 475.3975,-261.2845"/>
<text text-anchor="middle" x="542.5" y="-230.5" font-family="FreeSans" font-size="10.00" fill="#000000"> curr</text>
</g>
<!-- Node2&#45;&gt;Node2 -->
<g id="edge5" class="edge">
<title>Node2&#45;&gt;Node2</title>
<path fill="none" stroke="#9a32cd" stroke-dasharray="5,2" d="M450.5417,-301.7775C451.7064,-306.5119 456.3591,-310 464.5,-310 477.8594,-310 481.8254,-300.6067 476.3982,-291.7271"/>
<polygon fill="#9a32cd" stroke="#9a32cd" points="454.0224,-302.2262 452.6018,-291.7271 447.165,-300.8205 454.0224,-302.2262"/>
<text text-anchor="middle" x="464.5" y="-313" font-family="FreeSans" font-size="10.00" fill="#000000"> int_node</text>
</g>
<!-- Node7 -->
<g id="node7" class="node">
<title>Node7</title>
<polygon fill="none" stroke="#bfbfbf" points="608.5,-225.5 608.5,-245.5 709.5,-245.5 709.5,-225.5 608.5,-225.5"/>
<text text-anchor="middle" x="659" y="-232.5" font-family="FreeSans" font-size="10.00" fill="#000000">std::list&lt; node &gt;</text>
</g>
<!-- Node2&#45;&gt;Node7 -->
<g id="edge8" class="edge">
<title>Node2&#45;&gt;Node7</title>
<path fill="none" stroke="#9a32cd" stroke-dasharray="5,2" d="M490.2572,-266.6993C498.5634,-262.4896 507.963,-258.2943 517,-255.5 546.4935,-246.3806 580.7311,-241.4032 608.1972,-238.6949"/>
<polygon fill="#9a32cd" stroke="#9a32cd" points="488.6167,-263.6075 481.4215,-271.3844 491.896,-269.7919 488.6167,-263.6075"/>
<text text-anchor="middle" x="542.5" y="-258.5" font-family="FreeSans" font-size="10.00" fill="#000000"> elements</text>
</g>
<!-- Node3 -->
<g id="node3" class="node">
<title>Node3</title>
<polygon fill="none" stroke="#bfbfbf" points="208.5,-290.5 208.5,-322.5 324.5,-322.5 324.5,-290.5 208.5,-290.5"/>
<text text-anchor="start" x="216.5" y="-309.5" font-family="FreeSans" font-size="10.00" fill="#000000">adj_nodes_iterator</text>
<text text-anchor="middle" x="266.5" y="-297.5" font-family="FreeSans" font-size="10.00" fill="#000000"> public bi_iter_node</text>
</g>
<!-- Node3&#45;&gt;Node2 -->
<g id="edge2" class="edge">
<title>Node3&#45;&gt;Node2</title>
<path fill="none" stroke="#8b1a1a" d="M334.6549,-297.8946C372.9598,-293.0581 418.1091,-287.3574 443.8128,-284.112"/>
<polygon fill="#8b1a1a" stroke="#8b1a1a" points="334.0514,-294.4429 324.5687,-299.1681 334.9284,-301.3878 334.0514,-294.4429"/>
</g>
<!-- Node4 -->
<g id="node4" class="node">
<title>Node4</title>
<polygon fill="none" stroke="#bfbfbf" points="206,-239.5 206,-271.5 327,-271.5 327,-239.5 206,-239.5"/>
<text text-anchor="start" x="214" y="-258.5" font-family="FreeSans" font-size="10.00" fill="#000000">inout_edges_iterator</text>
<text text-anchor="middle" x="266.5" y="-246.5" font-family="FreeSans" font-size="10.00" fill="#000000"> public bi_iter_edge</text>
</g>
<!-- Node4&#45;&gt;Node2 -->
<g id="edge3" class="edge">
<title>Node4&#45;&gt;Node2</title>
<path fill="none" stroke="#8b1a1a" d="M337.2225,-264.7868C375.0156,-269.7495 418.8101,-275.5003 443.9238,-278.7981"/>
<polygon fill="#8b1a1a" stroke="#8b1a1a" points="337.6227,-261.3094 327.2521,-263.4776 336.7113,-268.2498 337.6227,-261.3094"/>
</g>
<!-- Node5 -->
<g id="node5" class="node">
<title>Node5</title>
<polygon fill="none" stroke="#bfbfbf" points="208.5,-341.5 208.5,-373.5 324.5,-373.5 324.5,-341.5 208.5,-341.5"/>
<text text-anchor="start" x="216.5" y="-360.5" font-family="FreeSans" font-size="10.00" fill="#000000">adj_edges_iterator</text>
<text text-anchor="middle" x="266.5" y="-348.5" font-family="FreeSans" font-size="10.00" fill="#000000"> public bi_iter_edge</text>
</g>
<!-- Node5&#45;&gt;Node2 -->
<g id="edge4" class="edge">
<title>Node5&#45;&gt;Node2</title>
<path fill="none" stroke="#8b1a1a" d="M328.0974,-338.1183C333.4941,-336.2727 338.8563,-334.3853 344,-332.5 374.6876,-321.2521 381.9184,-317.2807 412,-304.5 422.5323,-300.0252 434.1964,-294.9293 443.85,-290.6735"/>
<polygon fill="#8b1a1a" stroke="#8b1a1a" points="326.7476,-334.8796 318.3858,-341.3858 328.9799,-341.5141 326.7476,-334.8796"/>
</g>
<!-- Node6 -->
<g id="node6" class="node">
<title>Node6</title>
<g id="a_node6"><a xlink:href="../../d3/d93/classnode__data.html" target="_top" xlink:title="node_data">
<polygon fill="none" stroke="#000000" points="1502.5,-213.5 1502.5,-233.5 1571.5,-233.5 1571.5,-213.5 1502.5,-213.5"/>
<text text-anchor="middle" x="1537" y="-220.5" font-family="FreeSans" font-size="10.00" fill="#000000">node_data</text>
</a>
</g>
</g>
<!-- Node6&#45;&gt;Node2 -->
<g id="edge6" class="edge">
<title>Node6&#45;&gt;Node2</title>
<path fill="none" stroke="#9a32cd" stroke-dasharray="5,2" d="M1520.3188,-240.6512C1488.585,-271.3471 1416.0139,-332.5 1341.5,-332.5 659,-332.5 659,-332.5 659,-332.5 593.7204,-332.5 520.028,-305.2872 485.0456,-290.6178"/>
<polygon fill="#9a32cd" stroke="#9a32cd" points="1522.8386,-243.0816 1527.4831,-233.5591 1517.914,-238.1068 1522.8386,-243.0816"/>
<text text-anchor="middle" x="1017.5" y="-335.5" font-family="FreeSans" font-size="10.00" fill="#000000"> data</text>
</g>
<!-- Node7&#45;&gt;Node6 -->
<g id="edge7" class="edge">
<title>Node7&#45;&gt;Node6</title>
<path fill="none" stroke="#9a32cd" stroke-dasharray="5,2" d="M720.0234,-239.1051C761.1209,-241.2276 816.5495,-243.5 865.5,-243.5 865.5,-243.5 865.5,-243.5 1341.5,-243.5 1397.9655,-243.5 1463.1305,-235.1412 1502.1476,-229.2312"/>
<polygon fill="#9a32cd" stroke="#9a32cd" points="720.0671,-235.6026 709.8964,-238.5701 719.6978,-242.5928 720.0671,-235.6026"/>
<text text-anchor="middle" x="1107.5" y="-246.5" font-family="FreeSans" font-size="10.00" fill="#000000"> pos</text>
</g>
<!-- Node8 -->
<g id="node8" class="node">
<title>Node8</title>
<g id="a_node8"><a xlink:href="../../dd/d9b/classgraph.html" target="_top" xlink:title="A directed or undirected graph.">
<polygon fill="none" stroke="#000000" points="843,-115.5 843,-135.5 888,-135.5 888,-115.5 843,-115.5"/>
<text text-anchor="middle" x="865.5" y="-122.5" font-family="FreeSans" font-size="10.00" fill="#000000">graph</text>
</a>
</g>
</g>
<!-- Node7&#45;&gt;Node8 -->
<g id="edge10" class="edge">
<title>Node7&#45;&gt;Node8</title>
<path fill="none" stroke="#9a32cd" stroke-dasharray="5,2" d="M704.8622,-221.3339C714.9282,-216.4128 724.7358,-209.9355 732,-201.5 750.4452,-180.0807 728.4992,-158.8502 750,-140.5 775.6853,-118.5784 817.0106,-118.8744 842.6402,-121.7297"/>
<polygon fill="#9a32cd" stroke="#9a32cd" points="703.3393,-218.1804 695.6107,-225.4274 706.1718,-224.5817 703.3393,-218.1804"/>
<text text-anchor="middle" x="787.5" y="-155.5" font-family="FreeSans" font-size="10.00" fill="#000000"> hidden_nodes</text>
<text text-anchor="middle" x="787.5" y="-143.5" font-family="FreeSans" font-size="10.00" fill="#000000">nodes</text>
</g>
<!-- Node12 -->
<g id="node12" class="node">
<title>Node12</title>
<g id="a_node12"><a xlink:href="../../d9/d5f/classedge__data.html" target="_top" xlink:title="edge_data">
<polygon fill="none" stroke="#000000" points="983,-115.5 983,-135.5 1052,-135.5 1052,-115.5 983,-115.5"/>
<text text-anchor="middle" x="1017.5" y="-122.5" font-family="FreeSans" font-size="10.00" fill="#000000">edge_data</text>
</a>
</g>
</g>
<!-- Node7&#45;&gt;Node12 -->
<g id="edge15" class="edge">
<title>Node7&#45;&gt;Node12</title>
<path fill="none" stroke="#9a32cd" stroke-dasharray="5,2" d="M701.4731,-222.4678C773.8364,-200.2643 919.5114,-155.5662 984.6819,-135.5697"/>
<polygon fill="#9a32cd" stroke="#9a32cd" points="700.2983,-219.1672 691.7649,-225.4466 702.3517,-225.8592 700.2983,-219.1672"/>
<text text-anchor="middle" x="865.5" y="-181.5" font-family="FreeSans" font-size="10.00" fill="#000000"> nodes</text>
</g>
<!-- Node8&#45;&gt;Node6 -->
<g id="edge9" class="edge">
<title>Node8&#45;&gt;Node6</title>
<path fill="none" stroke="#9a32cd" stroke-dasharray="5,2" d="M884.2253,-142.5542C911.4473,-165.5083 964.5072,-203.5 1017.5,-203.5 1017.5,-203.5 1017.5,-203.5 1341.5,-203.5 1397.9655,-203.5 1463.1305,-211.8588 1502.1476,-217.7688"/>
<polygon fill="#9a32cd" stroke="#9a32cd" points="886.1734,-139.6104 876.3277,-135.6971 881.5841,-144.8961 886.1734,-139.6104"/>
<text text-anchor="middle" x="1183.5" y="-206.5" font-family="FreeSans" font-size="10.00" fill="#000000"> owner</text>
</g>
<!-- Node8&#45;&gt;Node12 -->
<g id="edge18" class="edge">
<title>Node8&#45;&gt;Node12</title>
<path fill="none" stroke="#9a32cd" stroke-dasharray="5,2" d="M898.3072,-125.5C923.2056,-125.5 957.3629,-125.5 982.7309,-125.5"/>
<polygon fill="#9a32cd" stroke="#9a32cd" points="898.256,-122.0001 888.2559,-125.5 898.2559,-129.0001 898.256,-122.0001"/>
<text text-anchor="middle" x="935.5" y="-128.5" font-family="FreeSans" font-size="10.00" fill="#000000"> owner</text>
</g>
<!-- Node9 -->
<g id="node9" class="node">
<title>Node9</title>
<polygon fill="none" stroke="#bfbfbf" points="614.5,-82.5 614.5,-102.5 703.5,-102.5 703.5,-82.5 614.5,-82.5"/>
<text text-anchor="middle" x="659" y="-89.5" font-family="FreeSans" font-size="10.00" fill="#000000">std::list&lt; int &gt;</text>
</g>
<!-- Node9&#45;&gt;Node8 -->
<g id="edge11" class="edge">
<title>Node9&#45;&gt;Node8</title>
<path fill="none" stroke="#9a32cd" stroke-dasharray="5,2" d="M713.6364,-84.0411C746.7713,-81.0346 789.3867,-81.0081 825,-93.5 837.3458,-97.8305 848.7826,-107.6297 856.3316,-115.2514"/>
<polygon fill="#9a32cd" stroke="#9a32cd" points="713.268,-80.5604 703.6758,-85.0592 713.9799,-87.5241 713.268,-80.5604"/>
<text text-anchor="middle" x="787.5" y="-108.5" font-family="FreeSans" font-size="10.00" fill="#000000"> free_edge_ids</text>
<text text-anchor="middle" x="787.5" y="-96.5" font-family="FreeSans" font-size="10.00" fill="#000000">free_node_ids</text>
</g>
<!-- Node10 -->
<g id="node10" class="node">
<title>Node10</title>
<polygon fill="none" stroke="#bfbfbf" points="1291,-133.5 1291,-153.5 1392,-153.5 1392,-133.5 1291,-133.5"/>
<text text-anchor="middle" x="1341.5" y="-140.5" font-family="FreeSans" font-size="10.00" fill="#000000">std::list&lt; edge &gt;</text>
</g>
<!-- Node10&#45;&gt;Node2 -->
<g id="edge21" class="edge">
<title>Node10&#45;&gt;Node2</title>
<path fill="none" stroke="#9a32cd" stroke-dasharray="5,2" d="M1331.1368,-162.9634C1309.3139,-200.9966 1254.7116,-281.5 1183.5,-281.5 659,-281.5 659,-281.5 659,-281.5 595.6862,-281.5 520.7793,-281.5 485.2255,-281.5"/>
<polygon fill="#9a32cd" stroke="#9a32cd" points="1334.3907,-164.3133 1336.1903,-153.8724 1328.2725,-160.9122 1334.3907,-164.3133"/>
<text text-anchor="middle" x="935.5" y="-308.5" font-family="FreeSans" font-size="10.00" fill="#000000"> last_edge</text>
<text text-anchor="middle" x="935.5" y="-296.5" font-family="FreeSans" font-size="10.00" fill="#000000">akt_edge</text>
<text text-anchor="middle" x="935.5" y="-284.5" font-family="FreeSans" font-size="10.00" fill="#000000">begin_edge</text>
</g>
<!-- Node10&#45;&gt;Node6 -->
<g id="edge20" class="edge">
<title>Node10&#45;&gt;Node6</title>
<path fill="none" stroke="#9a32cd" stroke-dasharray="5,2" d="M1397.4047,-156.0978C1417.8346,-161.5563 1440.8611,-168.7293 1461,-177.5 1483.9073,-187.4763 1508.2569,-203.2471 1523.0501,-213.4837"/>
<polygon fill="#9a32cd" stroke="#9a32cd" points="1398.1666,-152.6796 1387.6081,-153.5563 1396.4088,-159.4553 1398.1666,-152.6796"/>
<text text-anchor="middle" x="1435.5" y="-180.5" font-family="FreeSans" font-size="10.00" fill="#000000"> edges</text>
</g>
<!-- Node10&#45;&gt;Node8 -->
<g id="edge12" class="edge">
<title>Node10&#45;&gt;Node8</title>
<path fill="none" stroke="#9a32cd" stroke-dasharray="5,2" d="M1333.4591,-123.9546C1323.077,-101.4261 1302.7371,-65.2324 1273,-47.5 1195.2687,-1.1485 1158.4101,-12.1538 1070,-31.5 994.8025,-47.955 914.2382,-94.7495 881.0972,-115.4448"/>
<polygon fill="#9a32cd" stroke="#9a32cd" points="1330.3047,-125.4765 1337.5266,-133.2286 1336.7152,-122.6648 1330.3047,-125.4765"/>
<text text-anchor="middle" x="1107.5" y="-46.5" font-family="FreeSans" font-size="10.00" fill="#000000"> hidden_edges</text>
<text text-anchor="middle" x="1107.5" y="-34.5" font-family="FreeSans" font-size="10.00" fill="#000000">edges</text>
</g>
<!-- Node10&#45;&gt;Node12 -->
<g id="edge19" class="edge">
<title>Node10&#45;&gt;Node12</title>
<path fill="none" stroke="#9a32cd" stroke-dasharray="5,2" d="M1280.4747,-144.6332C1225.3107,-144.9621 1141.9629,-143.7276 1070,-135.5 1064.1924,-134.836 1058.0637,-133.8932 1052.1237,-132.849"/>
<polygon fill="#9a32cd" stroke="#9a32cd" points="1280.8068,-148.1308 1290.7787,-144.5516 1280.7512,-141.131 1280.8068,-148.1308"/>
<text text-anchor="middle" x="1183.5" y="-146.5" font-family="FreeSans" font-size="10.00" fill="#000000"> pos</text>
</g>
<!-- Node13 -->
<g id="node13" class="node">
<title>Node13</title>
<polygon fill="none" stroke="#bfbfbf" points="1479,-77.5 1479,-109.5 1595,-109.5 1595,-77.5 1479,-77.5"/>
<text text-anchor="start" x="1487" y="-96.5" font-family="FreeSans" font-size="10.00" fill="#000000">std::list&lt; list&lt; edge</text>
<text text-anchor="middle" x="1537" y="-84.5" font-family="FreeSans" font-size="10.00" fill="#000000"> &gt;::iterator &gt;</text>
</g>
<!-- Node10&#45;&gt;Node13 -->
<g id="edge17" class="edge">
<title>Node10&#45;&gt;Node13</title>
<path fill="none" stroke="#9a32cd" stroke-dasharray="5,2" d="M1390.982,-130.8448C1417.7516,-123.9983 1450.9692,-115.5028 1478.9555,-108.3452"/>
<polygon fill="#9a32cd" stroke="#9a32cd" points="1389.8833,-127.513 1381.0623,-133.3818 1391.6178,-134.2947 1389.8833,-127.513"/>
<text text-anchor="middle" x="1435.5" y="-128.5" font-family="FreeSans" font-size="10.00" fill="#000000"> elements</text>
</g>
<!-- Node11 -->
<g id="node11" class="node">
<title>Node11</title>
<g id="a_node11"><a xlink:href="../../dc/dc8/classedge.html" target="_top" xlink:title="An edge in a graph.">
<polygon fill="none" stroke="#000000" points="1163,-98.5 1163,-118.5 1204,-118.5 1204,-98.5 1163,-98.5"/>
<text text-anchor="middle" x="1183.5" y="-105.5" font-family="FreeSans" font-size="10.00" fill="#000000">edge</text>
</a>
</g>
</g>
<!-- Node11&#45;&gt;Node10 -->
<g id="edge13" class="edge">
<title>Node11&#45;&gt;Node10</title>
<path fill="none" stroke="#9a32cd" stroke-dasharray="5,2" d="M1214.1726,-115.2946C1237.4905,-120.4599 1269.9305,-127.646 1296.2302,-133.4719"/>
<polygon fill="#9a32cd" stroke="#9a32cd" points="1214.6761,-111.8213 1204.1557,-113.0756 1213.1621,-118.6556 1214.6761,-111.8213"/>
<text text-anchor="middle" x="1247.5" y="-130.5" font-family="FreeSans" font-size="10.00" fill="#000000"> elements</text>
</g>
<!-- Node12&#45;&gt;Node11 -->
<g id="edge14" class="edge">
<title>Node12&#45;&gt;Node11</title>
<path fill="none" stroke="#9a32cd" stroke-dasharray="5,2" d="M1062.5258,-120.8889C1095.2169,-117.541 1137.9276,-113.1671 1162.8743,-110.6123"/>
<polygon fill="#9a32cd" stroke="#9a32cd" points="1061.8904,-117.4356 1052.299,-121.9362 1062.6036,-124.3992 1061.8904,-117.4356"/>
<text text-anchor="middle" x="1107.5" y="-122.5" font-family="FreeSans" font-size="10.00" fill="#000000"> data</text>
</g>
<!-- Node13&#45;&gt;Node12 -->
<g id="edge16" class="edge">
<title>Node13&#45;&gt;Node12</title>
<path fill="none" stroke="#9a32cd" stroke-dasharray="5,2" d="M1468.5447,-87.7136C1393.3774,-82.4929 1269.2296,-77.2066 1163,-88.5 1121.7899,-92.8811 1075.6427,-106.0931 1046.5884,-115.4763"/>
<polygon fill="#9a32cd" stroke="#9a32cd" points="1468.5949,-91.226 1478.819,-88.4481 1469.0941,-84.2439 1468.5949,-91.226"/>
<text text-anchor="middle" x="1247.5" y="-87.5" font-family="FreeSans" font-size="10.00" fill="#000000"> adj_pos</text>
</g>
<!-- Node14 -->
<g id="node14" class="node">
<title>Node14</title>
<g id="a_node14"><a xlink:href="../../df/db3/classpathfinder.html" target="_top" xlink:title="pathfinder">
<polygon fill="none" stroke="#000000" points="430,-136.5 430,-156.5 499,-156.5 499,-136.5 430,-136.5"/>
<text text-anchor="middle" x="464.5" y="-143.5" font-family="FreeSans" font-size="10.00" fill="#000000">pathfinder</text>
</a>
</g>
</g>
<!-- Node14&#45;&gt;Node1 -->
<g id="edge22" class="edge">
<title>Node14&#45;&gt;Node1</title>
<path fill="none" stroke="#9a32cd" stroke-dasharray="5,2" d="M509.1673,-154.5378C537.1153,-159.567 573.3484,-166.0871 603.1827,-171.4558"/>
<polygon fill="#9a32cd" stroke="#9a32cd" points="509.7345,-151.0837 499.2727,-152.7573 508.4947,-157.9731 509.7345,-151.0837"/>
<text text-anchor="middle" x="542.5" y="-167.5" font-family="FreeSans" font-size="10.00" fill="#000000"> pf</text>
</g>
<!-- Node15 -->
<g id="node15" class="node">
<title>Node15</title>
<g id="a_node15"><a xlink:href="../../d9/d72/classnode__map.html" target="_top" xlink:title="node_map\&lt; list\&lt; edge\l \&gt;::iterator \&gt;">
<polygon fill="none" stroke="#000000" points="200.5,-19.5 200.5,-51.5 332.5,-51.5 332.5,-19.5 200.5,-19.5"/>
<text text-anchor="start" x="208.5" y="-38.5" font-family="FreeSans" font-size="10.00" fill="#000000">node_map&lt; list&lt; edge</text>
<text text-anchor="middle" x="266.5" y="-26.5" font-family="FreeSans" font-size="10.00" fill="#000000"> &gt;::iterator &gt;</text>
</a>
</g>
</g>
<!-- Node15&#45;&gt;Node14 -->
<g id="edge23" class="edge">
<title>Node15&#45;&gt;Node14</title>
<path fill="none" stroke="#9a32cd" stroke-dasharray="5,2" d="M334.8869,-54.8335C360.3126,-63.7744 388.6358,-75.9231 412,-91.5 430.6715,-103.9483 447.6963,-124.1176 457.0277,-136.2639"/>
<polygon fill="#9a32cd" stroke="#9a32cd" points="335.8951,-51.4794 325.3006,-51.5635 333.6351,-58.1046 335.8951,-51.4794"/>
<text text-anchor="middle" x="387" y="-106.5" font-family="FreeSans" font-size="10.00" fill="#000000"> to_father</text>
<text text-anchor="middle" x="387" y="-94.5" font-family="FreeSans" font-size="10.00" fill="#000000">to_low</text>
</g>
<!-- Node16 -->
<g id="node16" class="node">
<title>Node16</title>
<g id="a_node16"><a xlink:href="../../df/d60/classne__map.html" target="_top" xlink:title="ne_map\&lt; node, list\l\&lt; edge \&gt;::iterator,\l graph, allocator\&lt; list\l\&lt; edge \&gt;::iterator \&gt; \&gt;">
<polygon fill="none" stroke="#000000" points="10.5,-.5 10.5,-56.5 141.5,-56.5 141.5,-.5 10.5,-.5"/>
<text text-anchor="start" x="18.5" y="-43.5" font-family="FreeSans" font-size="10.00" fill="#000000">ne_map&lt; node, list</text>
<text text-anchor="start" x="18.5" y="-31.5" font-family="FreeSans" font-size="10.00" fill="#000000">&lt; edge &gt;::iterator,</text>
<text text-anchor="start" x="18.5" y="-19.5" font-family="FreeSans" font-size="10.00" fill="#000000"> graph, allocator&lt; list</text>
<text text-anchor="middle" x="76" y="-7.5" font-family="FreeSans" font-size="10.00" fill="#000000">&lt; edge &gt;::iterator &gt; &gt;</text>
</a>
</g>
</g>
<!-- Node16&#45;&gt;Node15 -->
<g id="edge24" class="edge">
<title>Node16&#45;&gt;Node15</title>
<path fill="none" stroke="#191970" d="M151.9786,-31.2919C168.032,-31.8818 184.8476,-32.4996 200.4967,-33.0747"/>
<polygon fill="#191970" stroke="#191970" points="151.6811,-27.7787 141.5593,-30.909 151.424,-34.7739 151.6811,-27.7787"/>
</g>
<!-- Node17 -->
<g id="node17" class="node">
<title>Node17</title>
<g id="a_node17"><a xlink:href="../../d9/d72/classnode__map.html" target="_top" xlink:title="node_map\&lt; int \&gt;">
<polygon fill="none" stroke="#000000" points="214,-197.5 214,-217.5 319,-217.5 319,-197.5 214,-197.5"/>
<text text-anchor="middle" x="266.5" y="-204.5" font-family="FreeSans" font-size="10.00" fill="#000000">node_map&lt; int &gt;</text>
</a>
</g>
</g>
<!-- Node17&#45;&gt;Node14 -->
<g id="edge25" class="edge">
<title>Node17&#45;&gt;Node14</title>
<path fill="none" stroke="#9a32cd" stroke-dasharray="5,2" d="M329.4469,-203.3518C355.7049,-200.0475 386.0647,-194.1213 412,-183.5 427.6848,-177.0766 443.2522,-165.237 453.3121,-156.6775"/>
<polygon fill="#9a32cd" stroke="#9a32cd" points="328.7585,-199.908 319.2269,-204.5339 329.5629,-206.8616 328.7585,-199.908"/>
<text text-anchor="middle" x="387" y="-223.5" font-family="FreeSans" font-size="10.00" fill="#000000"> dfs_num</text>
<text text-anchor="middle" x="387" y="-211.5" font-family="FreeSans" font-size="10.00" fill="#000000">low_num</text>
<text text-anchor="middle" x="387" y="-199.5" font-family="FreeSans" font-size="10.00" fill="#000000">used</text>
</g>
<!-- Node18 -->
<g id="node18" class="node">
<title>Node18</title>
<g id="a_node18"><a xlink:href="../../df/d60/classne__map.html" target="_top" xlink:title="ne_map\&lt; node, int,\l graph, allocator\&lt; int \&gt; \&gt;">
<polygon fill="none" stroke="#000000" points="2.5,-201.5 2.5,-233.5 149.5,-233.5 149.5,-201.5 2.5,-201.5"/>
<text text-anchor="start" x="10.5" y="-220.5" font-family="FreeSans" font-size="10.00" fill="#000000">ne_map&lt; node, int,</text>
<text text-anchor="middle" x="76" y="-208.5" font-family="FreeSans" font-size="10.00" fill="#000000"> graph, allocator&lt; int &gt; &gt;</text>
</a>
</g>
</g>
<!-- Node18&#45;&gt;Node17 -->
<g id="edge26" class="edge">
<title>Node18&#45;&gt;Node17</title>
<path fill="none" stroke="#191970" d="M159.8086,-213.1006C178.2294,-212.1336 197.2295,-211.1362 213.9989,-210.256"/>
<polygon fill="#191970" stroke="#191970" points="159.455,-209.6142 149.6523,-213.6337 159.822,-216.6046 159.455,-209.6142"/>
</g>
<!-- Node19 -->
<g id="node19" class="node">
<title>Node19</title>
<g id="a_node19"><a xlink:href="../../d9/d72/classnode__map.html" target="_top" xlink:title="node_map\&lt; list\&lt; edge \&gt; \&gt;">
<polygon fill="none" stroke="#000000" points="189,-149.5 189,-169.5 344,-169.5 344,-149.5 189,-149.5"/>
<text text-anchor="middle" x="266.5" y="-156.5" font-family="FreeSans" font-size="10.00" fill="#000000">node_map&lt; list&lt; edge &gt; &gt;</text>
</a>
</g>
</g>
<!-- Node19&#45;&gt;Node14 -->
<g id="edge27" class="edge">
<title>Node19&#45;&gt;Node14</title>
<path fill="none" stroke="#9a32cd" stroke-dasharray="5,2" d="M349.2482,-148.5094C353.5565,-148.1229 357.8267,-147.7816 362,-147.5 384.5496,-145.9784 409.952,-145.7204 429.8269,-145.8467"/>
<polygon fill="#9a32cd" stroke="#9a32cd" points="348.7702,-145.0393 339.1542,-149.4869 349.445,-152.0067 348.7702,-145.0393"/>
<text text-anchor="middle" x="387" y="-174.5" font-family="FreeSans" font-size="10.00" fill="#000000"> forward</text>
<text text-anchor="middle" x="387" y="-162.5" font-family="FreeSans" font-size="10.00" fill="#000000">back</text>
<text text-anchor="middle" x="387" y="-150.5" font-family="FreeSans" font-size="10.00" fill="#000000">tree</text>
</g>
<!-- Node20 -->
<g id="node20" class="node">
<title>Node20</title>
<g id="a_node20"><a xlink:href="../../df/d60/classne__map.html" target="_top" xlink:title="ne_map\&lt; node, list\l\&lt; edge \&gt;, graph, allocator\l\&lt; list\&lt; edge \&gt; \&gt; \&gt;">
<polygon fill="none" stroke="#000000" points="0,-138.5 0,-182.5 152,-182.5 152,-138.5 0,-138.5"/>
<text text-anchor="start" x="8" y="-169.5" font-family="FreeSans" font-size="10.00" fill="#000000">ne_map&lt; node, list</text>
<text text-anchor="start" x="8" y="-157.5" font-family="FreeSans" font-size="10.00" fill="#000000">&lt; edge &gt;, graph, allocator</text>
<text text-anchor="middle" x="76" y="-145.5" font-family="FreeSans" font-size="10.00" fill="#000000">&lt; list&lt; edge &gt; &gt; &gt;</text>
</a>
</g>
</g>
<!-- Node20&#45;&gt;Node19 -->
<g id="edge28" class="edge">
<title>Node20&#45;&gt;Node19</title>
<path fill="none" stroke="#191970" d="M162.1384,-160.0478C171.0746,-160.0009 180.1189,-159.9534 188.9525,-159.9071"/>
<polygon fill="#191970" stroke="#191970" points="162.0934,-156.5479 152.1119,-160.1005 162.1302,-163.5478 162.0934,-156.5479"/>
</g>
<!-- Node21 -->
<g id="node21" class="node">
<title>Node21</title>
<g id="a_node21"><a xlink:href="../../db/dab/classedge__map.html" target="_top" xlink:title="edge_map\&lt; pos_pair \&gt;">
<polygon fill="none" stroke="#000000" points="199.5,-95.5 199.5,-115.5 333.5,-115.5 333.5,-95.5 199.5,-95.5"/>
<text text-anchor="middle" x="266.5" y="-102.5" font-family="FreeSans" font-size="10.00" fill="#000000">edge_map&lt; pos_pair &gt;</text>
</a>
</g>
</g>
<!-- Node21&#45;&gt;Node14 -->
<g id="edge29" class="edge">
<title>Node21&#45;&gt;Node14</title>
<path fill="none" stroke="#9a32cd" stroke-dasharray="5,2" d="M343.6147,-116.0147C365.8253,-119.6373 389.9945,-124.1542 412,-129.5 419.9133,-131.4224 428.3595,-133.9424 436.1124,-136.4511"/>
<polygon fill="#9a32cd" stroke="#9a32cd" points="343.9886,-112.5302 333.5624,-114.4135 342.8873,-119.4431 343.9886,-112.5302"/>
<text text-anchor="middle" x="387" y="-132.5" font-family="FreeSans" font-size="10.00" fill="#000000"> pos</text>
</g>
<!-- Node22 -->
<g id="node22" class="node">
<title>Node22</title>
<g id="a_node22"><a xlink:href="../../df/d60/classne__map.html" target="_top" xlink:title="ne_map\&lt; edge, pos_pair,\l graph, allocator\&lt; pos\l_pair \&gt; \&gt;">
<polygon fill="none" stroke="#000000" points="3.5,-75.5 3.5,-119.5 148.5,-119.5 148.5,-75.5 3.5,-75.5"/>
<text text-anchor="start" x="11.5" y="-106.5" font-family="FreeSans" font-size="10.00" fill="#000000">ne_map&lt; edge, pos_pair,</text>
<text text-anchor="start" x="11.5" y="-94.5" font-family="FreeSans" font-size="10.00" fill="#000000"> graph, allocator&lt; pos</text>
<text text-anchor="middle" x="76" y="-82.5" font-family="FreeSans" font-size="10.00" fill="#000000">_pair &gt; &gt;</text>
</a>
</g>
</g>
<!-- Node22&#45;&gt;Node21 -->
<g id="edge30" class="edge">
<title>Node22&#45;&gt;Node21</title>
<path fill="none" stroke="#191970" d="M158.855,-100.9795C172.4247,-101.5493 186.3358,-102.1335 199.4614,-102.6847"/>
<polygon fill="#191970" stroke="#191970" points="158.7014,-97.47 148.5633,-100.5473 158.4076,-104.4639 158.7014,-97.47"/>
</g>
</g>
</svg>
