<?xml version="1.0" encoding="UTF-8" standalone="no"?>
<!DOCTYPE svg PUBLIC "-//W3C//DTD SVG 1.1//EN"
 "http://www.w3.org/Graphics/SVG/1.1/DTD/svg11.dtd">
<!-- Generated by graphviz version 2.40.1 (20161225.0304)
 -->
<!-- Title: Acts::Test::BOOST_AUTO_TEST_CASE Pages: 1 -->
<svg width="888pt" height="305pt"
 viewBox="0.00 0.00 888.00 305.00" xmlns="http://www.w3.org/2000/svg" xmlns:xlink="http://www.w3.org/1999/xlink">
<g id="graph0" class="graph" transform="scale(1 1) rotate(0) translate(4 301)">
<title>Acts::Test::BOOST_AUTO_TEST_CASE</title>
<!-- Node1 -->
<g id="node1" class="node">
<title>Node1</title>
<polygon fill="#bfbfbf" stroke="#000000" points="0,-186.5 0,-218.5 141,-218.5 141,-186.5 0,-186.5"/>
<text text-anchor="start" x="8" y="-205.5" font-family="FreeSans" font-size="10.00" fill="#000000">Acts::Test::BOOST_AUTO</text>
<text text-anchor="middle" x="70.5" y="-193.5" font-family="FreeSans" font-size="10.00" fill="#000000">_TEST_CASE</text>
</g>
<!-- Node2 -->
<g id="node2" class="node">
<title>Node2</title>
<g id="a_node2"><a xlink:href="../../da/d7b/namespaceActs.html#af7f1169916b1f6ca1e448bb038fb2703" target="_top" xlink:title="Acts::getDummyLogger">
<polygon fill="none" stroke="#000000" points="195.5,-276.5 195.5,-296.5 332.5,-296.5 332.5,-276.5 195.5,-276.5"/>
<text text-anchor="middle" x="264" y="-283.5" font-family="FreeSans" font-size="10.00" fill="#000000">Acts::getDummyLogger</text>
</a>
</g>
</g>
<!-- Node1&#45;&gt;Node2 -->
<g id="edge1" class="edge">
<title>Node1&#45;&gt;Node2</title>
<path fill="none" stroke="#191970" d="M92.1996,-218.7469C112.9508,-233.5342 145.6378,-254.9191 177,-267.5 182.8381,-269.842 189.0182,-271.9194 195.2839,-273.7573"/>
<polygon fill="#191970" stroke="#191970" points="194.5953,-277.1973 205.1639,-276.4518 196.4371,-270.4439 194.5953,-277.1973"/>
</g>
<!-- Node3 -->
<g id="node3" class="node">
<title>Node3</title>
<g id="a_node3"><a xlink:href="../../dd/d7e/namespaceActs_1_1Test.html#a3b114620128e37b9f544bfa2febfcd64" target="_top" xlink:title="Acts::Test::makeBeryllium">
<polygon fill="none" stroke="#000000" points="190,-237.5 190,-257.5 338,-257.5 338,-237.5 190,-237.5"/>
<text text-anchor="middle" x="264" y="-244.5" font-family="FreeSans" font-size="10.00" fill="#000000">Acts::Test::makeBeryllium</text>
</a>
</g>
</g>
<!-- Node1&#45;&gt;Node3 -->
<g id="edge2" class="edge">
<title>Node1&#45;&gt;Node3</title>
<path fill="none" stroke="#191970" d="M135.2073,-218.5649C148.9869,-221.9109 163.4634,-225.37 177,-228.5 186.7155,-230.7465 197.058,-233.067 207.095,-235.2818"/>
<polygon fill="#191970" stroke="#191970" points="206.4777,-238.7295 216.9955,-237.4546 207.9782,-231.8922 206.4777,-238.7295"/>
</g>
<!-- Node5 -->
<g id="node5" class="node">
<title>Node5</title>
<g id="a_node5"><a xlink:href="../../d1/d48/classActs_1_1CuboidVolumeBuilder.html#a2aae32c1b8fc364a40999467560fcb7b" target="_top" xlink:title="Setter of the config.">
<polygon fill="none" stroke="#000000" points="186.5,-186.5 186.5,-218.5 341.5,-218.5 341.5,-186.5 186.5,-186.5"/>
<text text-anchor="start" x="194.5" y="-205.5" font-family="FreeSans" font-size="10.00" fill="#000000">Acts::CuboidVolumeBuilder</text>
<text text-anchor="middle" x="264" y="-193.5" font-family="FreeSans" font-size="10.00" fill="#000000">::setConfig</text>
</a>
</g>
</g>
<!-- Node1&#45;&gt;Node5 -->
<g id="edge4" class="edge">
<title>Node1&#45;&gt;Node5</title>
<path fill="none" stroke="#191970" d="M141.1793,-202.5C152.5354,-202.5 164.4094,-202.5 176.1091,-202.5"/>
<polygon fill="#191970" stroke="#191970" points="176.3284,-206.0001 186.3284,-202.5 176.3284,-199.0001 176.3284,-206.0001"/>
</g>
<!-- Node6 -->
<g id="node6" class="node">
<title>Node6</title>
<g id="a_node6"><a xlink:href="../../df/d54/classActs_1_1TrackingGeometryBuilder.html#a65a50311a2828d5ec4c6883318925733" target="_top" xlink:title="Acts::TrackingGeometryBuilder\l::trackingGeometry">
<polygon fill="none" stroke="#000000" points="177,-135.5 177,-167.5 351,-167.5 351,-135.5 177,-135.5"/>
<text text-anchor="start" x="185" y="-154.5" font-family="FreeSans" font-size="10.00" fill="#000000">Acts::TrackingGeometryBuilder</text>
<text text-anchor="middle" x="264" y="-142.5" font-family="FreeSans" font-size="10.00" fill="#000000">::trackingGeometry</text>
</a>
</g>
</g>
<!-- Node1&#45;&gt;Node6 -->
<g id="edge5" class="edge">
<title>Node1&#45;&gt;Node6</title>
<path fill="none" stroke="#191970" d="M131.459,-186.4333C151.0703,-181.2644 172.9655,-175.4936 193.2206,-170.155"/>
<polygon fill="#191970" stroke="#191970" points="194.2373,-173.5067 203.0151,-167.5736 192.4532,-166.7378 194.2373,-173.5067"/>
</g>
<!-- Node11 -->
<g id="node11" class="node">
<title>Node11</title>
<g id="a_node11"><a xlink:href="../../d1/d48/classActs_1_1CuboidVolumeBuilder.html#aa10844c2fbce315118faf19cc4c53425" target="_top" xlink:title="This function builds a world TrackingVolume based on a given configuration.">
<polygon fill="none" stroke="#000000" points="387,-90.5 387,-122.5 542,-122.5 542,-90.5 387,-90.5"/>
<text text-anchor="start" x="395" y="-109.5" font-family="FreeSans" font-size="10.00" fill="#000000">Acts::CuboidVolumeBuilder</text>
<text text-anchor="middle" x="464.5" y="-97.5" font-family="FreeSans" font-size="10.00" fill="#000000">::trackingVolume</text>
</a>
</g>
</g>
<!-- Node1&#45;&gt;Node11 -->
<g id="edge10" class="edge">
<title>Node1&#45;&gt;Node11</title>
<path fill="none" stroke="#191970" d="M86.4718,-186.3962C105.9317,-167.9451 140.726,-138.5766 177,-125.5 241.0359,-102.4153 318.229,-98.5038 376.4978,-99.9049"/>
<polygon fill="#191970" stroke="#191970" points="376.6818,-103.4119 386.7818,-100.2117 376.8906,-96.415 376.6818,-103.4119"/>
</g>
<!-- Node4 -->
<g id="node4" class="node">
<title>Node4</title>
<g id="a_node4"><a xlink:href="../../dd/d14/classActs_1_1Material.html#a867ca598bcffaf78024b77fbdad5b434" target="_top" xlink:title="Acts::Material::fromMolar\lDensity">
<polygon fill="none" stroke="#000000" points="392,-231.5 392,-263.5 537,-263.5 537,-231.5 392,-231.5"/>
<text text-anchor="start" x="400" y="-250.5" font-family="FreeSans" font-size="10.00" fill="#000000">Acts::Material::fromMolar</text>
<text text-anchor="middle" x="464.5" y="-238.5" font-family="FreeSans" font-size="10.00" fill="#000000">Density</text>
</a>
</g>
</g>
<!-- Node3&#45;&gt;Node4 -->
<g id="edge3" class="edge">
<title>Node3&#45;&gt;Node4</title>
<path fill="none" stroke="#191970" d="M338.0891,-247.5C352.1823,-247.5 367.017,-247.5 381.3693,-247.5"/>
<polygon fill="#191970" stroke="#191970" points="381.7173,-251.0001 391.7173,-247.5 381.7173,-244.0001 381.7173,-251.0001"/>
</g>
<!-- Node7 -->
<g id="node7" class="node">
<title>Node7</title>
<g id="a_node7"><a xlink:href="../../da/d7b/namespaceActs.html#a84c41c54771dc4d8fc38a477f9d250c8" target="_top" xlink:title="create a small tracking geometry to map some dummy material on">
<polygon fill="none" stroke="#000000" points="396,-141.5 396,-161.5 533,-161.5 533,-141.5 396,-141.5"/>
<text text-anchor="middle" x="464.5" y="-148.5" font-family="FreeSans" font-size="10.00" fill="#000000">Acts::trackingGeometry</text>
</a>
</g>
</g>
<!-- Node6&#45;&gt;Node7 -->
<g id="edge6" class="edge">
<title>Node6&#45;&gt;Node7</title>
<path fill="none" stroke="#191970" d="M351.0675,-151.5C362.5571,-151.5 374.2818,-151.5 385.6238,-151.5"/>
<polygon fill="#191970" stroke="#191970" points="385.9145,-155.0001 395.9145,-151.5 385.9144,-148.0001 385.9145,-155.0001"/>
</g>
<!-- Node8 -->
<g id="node8" class="node">
<title>Node8</title>
<g id="a_node8"><a xlink:href="../../da/d7b/namespaceActs.html#a9b4dee934b0b193d57604b19bc8cd527" target="_top" xlink:title="get default debug output logger">
<polygon fill="none" stroke="#000000" points="578,-141.5 578,-161.5 712,-161.5 712,-141.5 578,-141.5"/>
<text text-anchor="middle" x="645" y="-148.5" font-family="FreeSans" font-size="10.00" fill="#000000">Acts::getDefaultLogger</text>
</a>
</g>
</g>
<!-- Node7&#45;&gt;Node8 -->
<g id="edge7" class="edge">
<title>Node7&#45;&gt;Node8</title>
<path fill="none" stroke="#191970" d="M533.2542,-151.5C544.5814,-151.5 556.3882,-151.5 567.9031,-151.5"/>
<polygon fill="#191970" stroke="#191970" points="567.9278,-155.0001 577.9278,-151.5 567.9277,-148.0001 567.9278,-155.0001"/>
</g>
<!-- Node9 -->
<g id="node9" class="node">
<title>Node9</title>
<g id="a_node9"><a xlink:href="../../d0/da7/namespacetesting_1_1internal.html#a0f6d06bf8c3093b9c22bb08723db201e" target="_top" xlink:title="testing::internal::move">
<polygon fill="none" stroke="#000000" points="748,-102.5 748,-122.5 880,-122.5 880,-102.5 748,-102.5"/>
<text text-anchor="middle" x="814" y="-109.5" font-family="FreeSans" font-size="10.00" fill="#000000">testing::internal::move</text>
</a>
</g>
</g>
<!-- Node8&#45;&gt;Node9 -->
<g id="edge8" class="edge">
<title>Node8&#45;&gt;Node9</title>
<path fill="none" stroke="#191970" d="M688.5217,-141.4565C710.5014,-136.3843 737.3619,-130.1857 760.5834,-124.8269"/>
<polygon fill="#191970" stroke="#191970" points="761.6689,-128.1685 770.6258,-122.5094 760.0948,-121.3477 761.6689,-128.1685"/>
</g>
<!-- Node10 -->
<g id="node10" class="node">
<title>Node10</title>
<g id="a_node10"><a xlink:href="../../dc/d11/Prototype2_2EMCal_2macros_2SaveCanvas_8m.html#a8efe7494567713c8ec7a6803834a0bb6" target="_top" xlink:title="print">
<polygon fill="none" stroke="#000000" points="794,-141.5 794,-161.5 834,-161.5 834,-141.5 794,-141.5"/>
<text text-anchor="middle" x="814" y="-148.5" font-family="FreeSans" font-size="10.00" fill="#000000">print</text>
</a>
</g>
</g>
<!-- Node8&#45;&gt;Node10 -->
<g id="edge9" class="edge">
<title>Node8&#45;&gt;Node10</title>
<path fill="none" stroke="#191970" d="M712.2789,-151.5C736.9765,-151.5 763.724,-151.5 783.5902,-151.5"/>
<polygon fill="#191970" stroke="#191970" points="783.8624,-155.0001 793.8623,-151.5 783.8623,-148.0001 783.8624,-155.0001"/>
</g>
<!-- Node11&#45;&gt;Node9 -->
<g id="edge15" class="edge">
<title>Node11&#45;&gt;Node9</title>
<path fill="none" stroke="#191970" d="M542.0654,-107.8316C600.3075,-108.8315 679.668,-110.1939 737.6207,-111.1888"/>
<polygon fill="#191970" stroke="#191970" points="737.7601,-114.6916 747.8187,-111.3638 737.8803,-107.6926 737.7601,-114.6916"/>
</g>
<!-- Node12 -->
<g id="node12" class="node">
<title>Node12</title>
<g id="a_node12"><a xlink:href="../../dd/dcd/classActs_1_1TrackingVolume.html#a9c36cb1b764c34fc9acce2bdc9b9267b" target="_top" xlink:title="Acts::TrackingVolume\l::create">
<polygon fill="none" stroke="#000000" points="582.5,-51.5 582.5,-83.5 707.5,-83.5 707.5,-51.5 582.5,-51.5"/>
<text text-anchor="start" x="590.5" y="-70.5" font-family="FreeSans" font-size="10.00" fill="#000000">Acts::TrackingVolume</text>
<text text-anchor="middle" x="645" y="-58.5" font-family="FreeSans" font-size="10.00" fill="#000000">::create</text>
</a>
</g>
</g>
<!-- Node11&#45;&gt;Node12 -->
<g id="edge11" class="edge">
<title>Node11&#45;&gt;Node12</title>
<path fill="none" stroke="#191970" d="M538.6977,-90.4684C549.7901,-88.0717 561.2167,-85.6028 572.2781,-83.2128"/>
<polygon fill="#191970" stroke="#191970" points="573.2784,-86.5775 582.3136,-81.0444 571.8,-79.7354 573.2784,-86.5775"/>
</g>
<!-- Node12&#45;&gt;Node9 -->
<g id="edge12" class="edge">
<title>Node12&#45;&gt;Node9</title>
<path fill="none" stroke="#191970" d="M705.5355,-83.6189C725.4459,-88.9205 747.2913,-94.7373 766.1263,-99.7526"/>
<polygon fill="#191970" stroke="#191970" points="765.3973,-103.1803 775.9612,-102.3713 767.1985,-96.416 765.3973,-103.1803"/>
</g>
<!-- Node13 -->
<g id="node13" class="node">
<title>Node13</title>
<g id="a_node13"><a xlink:href="../../dd/dcd/classActs_1_1TrackingVolume.html#a5f34735756c941e120b2dac7a5cd3157" target="_top" xlink:title="Acts::TrackingVolume\l::TrackingVolume">
<polygon fill="none" stroke="#000000" points="751.5,-51.5 751.5,-83.5 876.5,-83.5 876.5,-51.5 751.5,-51.5"/>
<text text-anchor="start" x="759.5" y="-70.5" font-family="FreeSans" font-size="10.00" fill="#000000">Acts::TrackingVolume</text>
<text text-anchor="middle" x="814" y="-58.5" font-family="FreeSans" font-size="10.00" fill="#000000">::TrackingVolume</text>
</a>
</g>
</g>
<!-- Node12&#45;&gt;Node13 -->
<g id="edge13" class="edge">
<title>Node12&#45;&gt;Node13</title>
<path fill="none" stroke="#191970" d="M707.9294,-67.5C718.7788,-67.5 730.1367,-67.5 741.2203,-67.5"/>
<polygon fill="#191970" stroke="#191970" points="741.2996,-71.0001 751.2995,-67.5 741.2995,-64.0001 741.2996,-71.0001"/>
</g>
<!-- Node14 -->
<g id="node14" class="node">
<title>Node14</title>
<g id="a_node14"><a xlink:href="../../dd/dcd/classActs_1_1TrackingVolume.html#a1666fb4658bed4b3f46103ac33f0e966" target="_top" xlink:title="Returns the VolumeName &#45; for debug reason, might be depreciated later.">
<polygon fill="none" stroke="#000000" points="751.5,-.5 751.5,-32.5 876.5,-32.5 876.5,-.5 751.5,-.5"/>
<text text-anchor="start" x="759.5" y="-19.5" font-family="FreeSans" font-size="10.00" fill="#000000">Acts::TrackingVolume</text>
<text text-anchor="middle" x="814" y="-7.5" font-family="FreeSans" font-size="10.00" fill="#000000">::volumeName</text>
</a>
</g>
</g>
<!-- Node12&#45;&gt;Node14 -->
<g id="edge14" class="edge">
<title>Node12&#45;&gt;Node14</title>
<path fill="none" stroke="#191970" d="M698.4727,-51.3633C715.1251,-46.338 733.6446,-40.7493 750.8913,-35.5446"/>
<polygon fill="#191970" stroke="#191970" points="752.3128,-38.7716 760.8752,-32.5317 750.2904,-32.0701 752.3128,-38.7716"/>
</g>
</g>
</svg>
