<?xml version="1.0" encoding="UTF-8" standalone="no"?>
<!DOCTYPE svg PUBLIC "-//W3C//DTD SVG 1.1//EN"
 "http://www.w3.org/Graphics/SVG/1.1/DTD/svg11.dtd">
<!-- Generated by graphviz version 2.40.1 (20161225.0304)
 -->
<!-- Title: Acts::Test::BOOST_FIXTURE_TEST_CASE Pages: 1 -->
<svg width="888pt" height="779pt"
 viewBox="0.00 0.00 888.00 779.00" xmlns="http://www.w3.org/2000/svg" xmlns:xlink="http://www.w3.org/1999/xlink">
<g id="graph0" class="graph" transform="scale(1 1) rotate(0) translate(4 775)">
<title>Acts::Test::BOOST_FIXTURE_TEST_CASE</title>
<!-- Node1 -->
<g id="node1" class="node">
<title>Node1</title>
<polygon fill="#bfbfbf" stroke="#000000" points="0,-298.5 0,-330.5 154,-330.5 154,-298.5 0,-298.5"/>
<text text-anchor="start" x="8" y="-317.5" font-family="FreeSans" font-size="10.00" fill="#000000">Acts::Test::BOOST_FIXTURE</text>
<text text-anchor="middle" x="77" y="-305.5" font-family="FreeSans" font-size="10.00" fill="#000000">_TEST_CASE</text>
</g>
<!-- Node2 -->
<g id="node2" class="node">
<title>Node2</title>
<g id="a_node2"><a xlink:href="../../d5/dd2/classActs_1_1SurfaceArray.html#a1a2f6c61955b5d9307dd2bd84d08d167" target="_top" xlink:title="Get all surfaces in bin given by position.">
<polygon fill="none" stroke="#000000" points="198.5,-580.5 198.5,-600.5 326.5,-600.5 326.5,-580.5 198.5,-580.5"/>
<text text-anchor="middle" x="262.5" y="-587.5" font-family="FreeSans" font-size="10.00" fill="#000000">Acts::SurfaceArray::at</text>
</a>
</g>
</g>
<!-- Node1&#45;&gt;Node2 -->
<g id="edge1" class="edge">
<title>Node1&#45;&gt;Node2</title>
<path fill="none" stroke="#191970" d="M79.1923,-330.6205C86.2302,-375.9245 112.5107,-505.3756 190,-571.5 191.729,-572.9755 193.5597,-574.338 195.4701,-575.5962"/>
<polygon fill="#191970" stroke="#191970" points="193.8434,-578.6961 204.2885,-580.4709 197.2299,-572.5698 193.8434,-578.6961"/>
</g>
<!-- Node3 -->
<g id="node3" class="node">
<title>Node3</title>
<g id="a_node3"><a xlink:href="../../dd/d7e/namespaceActs_1_1Test.html#a6cfe9213aa362d7771aa43dc33ebf4eb" target="_top" xlink:title="Acts::Test::draw_surfaces">
<polygon fill="none" stroke="#000000" points="190,-541.5 190,-561.5 335,-561.5 335,-541.5 190,-541.5"/>
<text text-anchor="middle" x="262.5" y="-548.5" font-family="FreeSans" font-size="10.00" fill="#000000">Acts::Test::draw_surfaces</text>
</a>
</g>
</g>
<!-- Node1&#45;&gt;Node3 -->
<g id="edge2" class="edge">
<title>Node1&#45;&gt;Node3</title>
<path fill="none" stroke="#191970" d="M80.5404,-330.5112C90.3425,-370.9638 121.743,-477.928 190,-532.5 191.8166,-533.9524 193.733,-535.2946 195.7264,-536.535"/>
<polygon fill="#191970" stroke="#191970" points="194.4082,-539.7959 204.8889,-541.3464 197.6626,-533.5984 194.4082,-539.7959"/>
</g>
<!-- Node5 -->
<g id="node5" class="node">
<title>Node5</title>
<g id="a_node5"><a xlink:href="../../d2/d3f/structActs_1_1GeometryView3D.html#aebfbef4003ef76370efbf7ee468a184a" target="_top" xlink:title="Acts::GeometryView3D\l::drawSurfaceArray">
<polygon fill="none" stroke="#000000" points="195.5,-490.5 195.5,-522.5 329.5,-522.5 329.5,-490.5 195.5,-490.5"/>
<text text-anchor="start" x="203.5" y="-509.5" font-family="FreeSans" font-size="10.00" fill="#000000">Acts::GeometryView3D</text>
<text text-anchor="middle" x="262.5" y="-497.5" font-family="FreeSans" font-size="10.00" fill="#000000">::drawSurfaceArray</text>
</a>
</g>
</g>
<!-- Node1&#45;&gt;Node5 -->
<g id="edge4" class="edge">
<title>Node1&#45;&gt;Node5</title>
<path fill="none" stroke="#191970" d="M92.4966,-330.5396C125.2318,-364.4219 201.5486,-443.4129 239.7988,-483.0033"/>
<polygon fill="#191970" stroke="#191970" points="237.4516,-485.6112 246.9171,-490.3711 242.4859,-480.7474 237.4516,-485.6112"/>
</g>
<!-- Node12 -->
<g id="node12" class="node">
<title>Node12</title>
<g id="a_node12"><a xlink:href="../../d0/da7/namespacetesting_1_1internal.html#a0f6d06bf8c3093b9c22bb08723db201e" target="_top" xlink:title="testing::internal::move">
<polygon fill="none" stroke="#000000" points="570,-416.5 570,-436.5 702,-436.5 702,-416.5 570,-416.5"/>
<text text-anchor="middle" x="636" y="-423.5" font-family="FreeSans" font-size="10.00" fill="#000000">testing::internal::move</text>
</a>
</g>
</g>
<!-- Node1&#45;&gt;Node12 -->
<g id="edge28" class="edge">
<title>Node1&#45;&gt;Node12</title>
<path fill="none" stroke="#191970" d="M154.2101,-317.1416C265.7708,-321.7415 466.1122,-333.1576 534,-357.5 566.2565,-369.0661 598.1054,-393.1972 617.4126,-409.6254"/>
<polygon fill="#191970" stroke="#191970" points="615.2835,-412.4126 625.1207,-416.347 619.8841,-407.1367 615.2835,-412.4126"/>
</g>
<!-- Node15 -->
<g id="node15" class="node">
<title>Node15</title>
<g id="a_node15"><a xlink:href="../../db/dff/structActs_1_1SurfaceArray_1_1SurfaceGridLookup.html#ac0df6c2eaa68b88a85734bcb2cd2ace6" target="_top" xlink:title="Fill provided surfaces into the contained Grid.">
<polygon fill="none" stroke="#000000" points="193.5,-276.5 193.5,-308.5 331.5,-308.5 331.5,-276.5 193.5,-276.5"/>
<text text-anchor="start" x="201.5" y="-295.5" font-family="FreeSans" font-size="10.00" fill="#000000">Acts::SurfaceArray</text>
<text text-anchor="middle" x="262.5" y="-283.5" font-family="FreeSans" font-size="10.00" fill="#000000">::SurfaceGridLookup::fill</text>
</a>
</g>
</g>
<!-- Node1&#45;&gt;Node15 -->
<g id="edge14" class="edge">
<title>Node1&#45;&gt;Node15</title>
<path fill="none" stroke="#191970" d="M154.0572,-305.3611C163.7354,-304.2133 173.6484,-303.0377 183.358,-301.8861"/>
<polygon fill="#191970" stroke="#191970" points="183.8662,-305.3505 193.3844,-300.697 183.0418,-298.3992 183.8662,-305.3505"/>
</g>
<!-- Node27 -->
<g id="node27" class="node">
<title>Node27</title>
<g id="a_node27"><a xlink:href="../../d2/db7/namespacestd_1_1tr1.html#af7e12a0f5b5791b5b7c49a5a17b85359" target="_top" xlink:title="std::tr1::make_tuple">
<polygon fill="none" stroke="#000000" points="203.5,-237.5 203.5,-257.5 321.5,-257.5 321.5,-237.5 203.5,-237.5"/>
<text text-anchor="middle" x="262.5" y="-244.5" font-family="FreeSans" font-size="10.00" fill="#000000">std::tr1::make_tuple</text>
</a>
</g>
</g>
<!-- Node1&#45;&gt;Node27 -->
<g id="edge27" class="edge">
<title>Node1&#45;&gt;Node27</title>
<path fill="none" stroke="#191970" d="M112.4388,-298.419C134.4888,-288.7504 163.5825,-276.5978 190,-267.5 197.3783,-264.959 205.263,-262.5144 213.0155,-260.2597"/>
<polygon fill="#191970" stroke="#191970" points="214.0488,-263.6047 222.7167,-257.5122 212.1413,-256.8696 214.0488,-263.6047"/>
</g>
<!-- Node28 -->
<g id="node28" class="node">
<title>Node28</title>
<g id="a_node28"><a xlink:href="../../da/d7b/namespaceActs.html#a337992aec16b459064f9bba326128657" target="_top" xlink:title="Acts::unpack_shared\l_vector">
<polygon fill="none" stroke="#000000" points="202,-186.5 202,-218.5 323,-218.5 323,-186.5 202,-186.5"/>
<text text-anchor="start" x="210" y="-205.5" font-family="FreeSans" font-size="10.00" fill="#000000">Acts::unpack_shared</text>
<text text-anchor="middle" x="262.5" y="-193.5" font-family="FreeSans" font-size="10.00" fill="#000000">_vector</text>
</a>
</g>
</g>
<!-- Node1&#45;&gt;Node28 -->
<g id="edge29" class="edge">
<title>Node1&#45;&gt;Node28</title>
<path fill="none" stroke="#191970" d="M94.5956,-298.342C115.8672,-279.4923 153.3852,-248.3812 190,-228.5 193.8724,-226.3974 197.9491,-224.4052 202.1135,-222.53"/>
<polygon fill="#191970" stroke="#191970" points="203.4911,-225.7476 211.3245,-218.614 200.7523,-219.3056 203.4911,-225.7476"/>
</g>
<!-- Node29 -->
<g id="node29" class="node">
<title>Node29</title>
<g id="a_node29"><a xlink:href="../../d4/da1/classActs_1_1ObjVisualization3D.html#a04d0d1821e95cc7c17cf3aa86b12f280" target="_top" xlink:title="Acts::ObjVisualization3D\l::write">
<polygon fill="none" stroke="#000000" points="192,-135.5 192,-167.5 333,-167.5 333,-135.5 192,-135.5"/>
<text text-anchor="start" x="200" y="-154.5" font-family="FreeSans" font-size="10.00" fill="#000000">Acts::ObjVisualization3D</text>
<text text-anchor="middle" x="262.5" y="-142.5" font-family="FreeSans" font-size="10.00" fill="#000000">::write</text>
</a>
</g>
</g>
<!-- Node1&#45;&gt;Node29 -->
<g id="edge30" class="edge">
<title>Node1&#45;&gt;Node29</title>
<path fill="none" stroke="#191970" d="M86.373,-298.1461C103.4554,-269.7144 142.3288,-211.0116 190,-177.5 192.6801,-175.616 195.5113,-173.8544 198.44,-172.2091"/>
<polygon fill="#191970" stroke="#191970" points="200.1407,-175.2709 207.4655,-167.616 196.9658,-169.0322 200.1407,-175.2709"/>
</g>
<!-- Node4 -->
<g id="node4" class="node">
<title>Node4</title>
<g id="a_node4"><a xlink:href="../../d4/da9/namespaceboost.html#aec3e92def17f29e9ac5f43d94f7c9c9a" target="_top" xlink:title="boost::dynamic_pointer_cast">
<polygon fill="none" stroke="#000000" points="371.5,-750.5 371.5,-770.5 533.5,-770.5 533.5,-750.5 371.5,-750.5"/>
<text text-anchor="middle" x="452.5" y="-757.5" font-family="FreeSans" font-size="10.00" fill="#000000">boost::dynamic_pointer_cast</text>
</a>
</g>
</g>
<!-- Node3&#45;&gt;Node4 -->
<g id="edge3" class="edge">
<title>Node3&#45;&gt;Node4</title>
<path fill="none" stroke="#191970" d="M321.5587,-561.5061C326.5509,-564.1326 331.1518,-567.4117 335,-571.5 387.9343,-627.737 316.948,-686.3364 371,-741.5 372.0804,-742.6026 373.2115,-743.6464 374.3872,-744.6344"/>
<polygon fill="#191970" stroke="#191970" points="372.5086,-747.5903 382.7305,-750.3764 376.4771,-741.8239 372.5086,-747.5903"/>
</g>
<!-- Node6 -->
<g id="node6" class="node">
<title>Node6</title>
<g id="a_node6"><a xlink:href="../../d5/dd2/classActs_1_1SurfaceArray.html#a36a6b0ad1f01b3311f111dc8c691341a" target="_top" xlink:title="The binning values described by this surface grid lookup They are in order of the axes...">
<polygon fill="none" stroke="#000000" points="397,-699.5 397,-731.5 508,-731.5 508,-699.5 397,-699.5"/>
<text text-anchor="start" x="405" y="-718.5" font-family="FreeSans" font-size="10.00" fill="#000000">Acts::SurfaceArray</text>
<text text-anchor="middle" x="452.5" y="-706.5" font-family="FreeSans" font-size="10.00" fill="#000000">::binningValues</text>
</a>
</g>
</g>
<!-- Node5&#45;&gt;Node6 -->
<g id="edge5" class="edge">
<title>Node5&#45;&gt;Node6</title>
<path fill="none" stroke="#191970" d="M323.3495,-522.6792C327.6622,-525.451 331.6295,-528.6975 335,-532.5 382.7734,-586.3968 321.9813,-637.7333 371,-690.5 375.6698,-695.5268 381.321,-699.5529 387.445,-702.7758"/>
<polygon fill="#191970" stroke="#191970" points="386.1415,-706.0273 396.6964,-706.946 389.0181,-699.6457 386.1415,-706.0273"/>
</g>
<!-- Node7 -->
<g id="node7" class="node">
<title>Node7</title>
<g id="a_node7"><a xlink:href="../../d0/d35/classActs_1_1IVisualization3D.html#a5e1197bd19f514313f2642621e43de0e" target="_top" xlink:title="Acts::IVisualization3D\l::clear">
<polygon fill="none" stroke="#000000" points="389,-648.5 389,-680.5 516,-680.5 516,-648.5 389,-648.5"/>
<text text-anchor="start" x="397" y="-667.5" font-family="FreeSans" font-size="10.00" fill="#000000">Acts::IVisualization3D</text>
<text text-anchor="middle" x="452.5" y="-655.5" font-family="FreeSans" font-size="10.00" fill="#000000">::clear</text>
</a>
</g>
</g>
<!-- Node5&#45;&gt;Node7 -->
<g id="edge6" class="edge">
<title>Node5&#45;&gt;Node7</title>
<path fill="none" stroke="#191970" d="M322.2458,-522.637C326.9111,-525.4201 331.2555,-528.6807 335,-532.5 370.1264,-568.3283 335.0467,-604.5016 371,-639.5 373.7043,-642.1325 376.6785,-644.4886 379.842,-646.5972"/>
<polygon fill="#191970" stroke="#191970" points="378.1867,-649.6826 388.6027,-651.6208 381.6688,-643.6101 378.1867,-649.6826"/>
</g>
<!-- Node8 -->
<g id="node8" class="node">
<title>Node8</title>
<g id="a_node8"><a xlink:href="../../d2/d93/structActs_1_1Extent.html#a6ab0d68c7a159339ae856f92a4dff7ee" target="_top" xlink:title="Acts::Extent::extend">
<polygon fill="none" stroke="#000000" points="393,-609.5 393,-629.5 512,-629.5 512,-609.5 393,-609.5"/>
<text text-anchor="middle" x="452.5" y="-616.5" font-family="FreeSans" font-size="10.00" fill="#000000">Acts::Extent::extend</text>
</a>
</g>
</g>
<!-- Node5&#45;&gt;Node8 -->
<g id="edge7" class="edge">
<title>Node5&#45;&gt;Node8</title>
<path fill="none" stroke="#191970" d="M320.1639,-522.5319C325.4945,-525.3497 330.554,-528.6466 335,-532.5 360.8412,-554.8968 343.9113,-579.6293 371,-600.5 374.8267,-603.4483 379.0343,-605.9513 383.4592,-608.0749"/>
<polygon fill="#191970" stroke="#191970" points="382.2154,-611.3479 392.7947,-611.9221 384.8826,-604.8759 382.2154,-611.3479"/>
</g>
<!-- Node9 -->
<g id="node9" class="node">
<title>Node9</title>
<g id="a_node9"><a xlink:href="../../d5/dd2/classActs_1_1SurfaceArray.html#ae0d3dda12450b0670ae13d609aa19b8c" target="_top" xlink:title="Get vector of axes spanning the grid as AnyAxis.">
<polygon fill="none" stroke="#000000" points="397,-558.5 397,-590.5 508,-590.5 508,-558.5 397,-558.5"/>
<text text-anchor="start" x="405" y="-577.5" font-family="FreeSans" font-size="10.00" fill="#000000">Acts::SurfaceArray</text>
<text text-anchor="middle" x="452.5" y="-565.5" font-family="FreeSans" font-size="10.00" fill="#000000">::getAxes</text>
</a>
</g>
</g>
<!-- Node5&#45;&gt;Node9 -->
<g id="edge8" class="edge">
<title>Node5&#45;&gt;Node9</title>
<path fill="none" stroke="#191970" d="M309.5545,-522.6248C318.0785,-525.758 326.8466,-529.1222 335,-532.5 351.347,-539.2722 354.4994,-543.1113 371,-549.5 376.1756,-551.5039 381.5837,-553.4572 387.0452,-555.3316"/>
<polygon fill="#191970" stroke="#191970" points="386.3011,-558.7728 396.8947,-558.6145 388.5145,-552.132 386.3011,-558.7728"/>
</g>
<!-- Node10 -->
<g id="node10" class="node">
<title>Node10</title>
<g id="a_node10"><a xlink:href="../../d2/d93/structActs_1_1Extent.html#a477617c8386200a908fb62d023873c3a" target="_top" xlink:title="Acts::Extent::medium">
<polygon fill="none" stroke="#000000" points="389.5,-519.5 389.5,-539.5 515.5,-539.5 515.5,-519.5 389.5,-519.5"/>
<text text-anchor="middle" x="452.5" y="-526.5" font-family="FreeSans" font-size="10.00" fill="#000000">Acts::Extent::medium</text>
</a>
</g>
</g>
<!-- Node5&#45;&gt;Node10 -->
<g id="edge9" class="edge">
<title>Node5&#45;&gt;Node10</title>
<path fill="none" stroke="#191970" d="M329.7543,-514.6413C345.8438,-516.589 363.0973,-518.6776 379.4352,-520.6553"/>
<polygon fill="#191970" stroke="#191970" points="379.1227,-524.143 389.4709,-521.8702 379.964,-517.1937 379.1227,-524.143"/>
</g>
<!-- Node11 -->
<g id="node11" class="node">
<title>Node11</title>
<g id="a_node11"><a xlink:href="../../d9/d1e/classActs_1_1CylinderVolumeBounds.html#a145bd6ca6007780dc4d5e03d389c68e6" target="_top" xlink:title="Acts::CylinderVolumeBounds\l::orientedSurfaces">
<polygon fill="none" stroke="#000000" points="371,-468.5 371,-500.5 534,-500.5 534,-468.5 371,-468.5"/>
<text text-anchor="start" x="379" y="-487.5" font-family="FreeSans" font-size="10.00" fill="#000000">Acts::CylinderVolumeBounds</text>
<text text-anchor="middle" x="452.5" y="-475.5" font-family="FreeSans" font-size="10.00" fill="#000000">::orientedSurfaces</text>
</a>
</g>
</g>
<!-- Node5&#45;&gt;Node11 -->
<g id="edge10" class="edge">
<title>Node5&#45;&gt;Node11</title>
<path fill="none" stroke="#191970" d="M329.7543,-498.7127C339.7856,-497.5511 350.2694,-496.3372 360.7017,-495.1293"/>
<polygon fill="#191970" stroke="#191970" points="361.1405,-498.6019 370.6715,-493.9749 360.3353,-491.6484 361.1405,-498.6019"/>
</g>
<!-- Node13 -->
<g id="node13" class="node">
<title>Node13</title>
<g id="a_node13"><a xlink:href="../../d5/dd2/classActs_1_1SurfaceArray.html#aa3939ab2ab74cccea500073db6008bed" target="_top" xlink:title="Get all surfaces attached to this SurfaceArray.">
<polygon fill="none" stroke="#000000" points="397,-417.5 397,-449.5 508,-449.5 508,-417.5 397,-417.5"/>
<text text-anchor="start" x="405" y="-436.5" font-family="FreeSans" font-size="10.00" fill="#000000">Acts::SurfaceArray</text>
<text text-anchor="middle" x="452.5" y="-424.5" font-family="FreeSans" font-size="10.00" fill="#000000">::surfaces</text>
</a>
</g>
</g>
<!-- Node5&#45;&gt;Node13 -->
<g id="edge12" class="edge">
<title>Node5&#45;&gt;Node13</title>
<path fill="none" stroke="#191970" d="M297.3192,-490.361C318.4239,-480.8446 346.0128,-468.8709 371,-459.5 377.1665,-457.1874 383.642,-454.8958 390.1346,-452.6874"/>
<polygon fill="#191970" stroke="#191970" points="391.2483,-456.0056 399.625,-449.5186 389.0313,-449.3659 391.2483,-456.0056"/>
</g>
<!-- Node14 -->
<g id="node14" class="node">
<title>Node14</title>
<g id="a_node14"><a xlink:href="../../d0/d35/classActs_1_1IVisualization3D.html#ac2b3dc7f88f26a197d48a28d1d85b3d4" target="_top" xlink:title="Acts::IVisualization3D\l::write">
<polygon fill="none" stroke="#000000" points="389,-366.5 389,-398.5 516,-398.5 516,-366.5 389,-366.5"/>
<text text-anchor="start" x="397" y="-385.5" font-family="FreeSans" font-size="10.00" fill="#000000">Acts::IVisualization3D</text>
<text text-anchor="middle" x="452.5" y="-373.5" font-family="FreeSans" font-size="10.00" fill="#000000">::write</text>
</a>
</g>
</g>
<!-- Node5&#45;&gt;Node14 -->
<g id="edge13" class="edge">
<title>Node5&#45;&gt;Node14</title>
<path fill="none" stroke="#191970" d="M276.3178,-490.2931C295.5098,-468.7351 332.2688,-430.7637 371,-408.5 374.6938,-406.3767 378.5833,-404.4027 382.578,-402.5714"/>
<polygon fill="#191970" stroke="#191970" points="384.2091,-405.6814 392.0479,-398.5537 381.4752,-399.2374 384.2091,-405.6814"/>
</g>
<!-- Node11&#45;&gt;Node12 -->
<g id="edge11" class="edge">
<title>Node11&#45;&gt;Node12</title>
<path fill="none" stroke="#191970" d="M505.1463,-468.4797C514.7539,-465.5195 524.6836,-462.4358 534,-459.5 554.3137,-453.0988 576.8478,-445.8264 595.5583,-439.7408"/>
<polygon fill="#191970" stroke="#191970" points="596.8167,-443.012 605.2408,-436.5866 594.6484,-436.3562 596.8167,-443.012"/>
</g>
<!-- Node16 -->
<g id="node16" class="node">
<title>Node16</title>
<g id="a_node16"><a xlink:href="../../db/dff/structActs_1_1SurfaceArray_1_1SurfaceGridLookup.html#a86709eee4431a0a293d7bffd6bfd15fa" target="_top" xlink:title="Performs lookup at pos and returns bin content as reference.">
<polygon fill="none" stroke="#000000" points="393,-264.5 393,-308.5 512,-308.5 512,-264.5 393,-264.5"/>
<text text-anchor="start" x="401" y="-295.5" font-family="FreeSans" font-size="10.00" fill="#000000">Acts::SurfaceArray</text>
<text text-anchor="start" x="401" y="-283.5" font-family="FreeSans" font-size="10.00" fill="#000000">::SurfaceGridLookup</text>
<text text-anchor="middle" x="452.5" y="-271.5" font-family="FreeSans" font-size="10.00" fill="#000000">::lookup</text>
</a>
</g>
</g>
<!-- Node15&#45;&gt;Node16 -->
<g id="edge15" class="edge">
<title>Node15&#45;&gt;Node16</title>
<path fill="none" stroke="#191970" d="M331.6318,-290.3169C348.2389,-289.7925 365.9876,-289.232 382.6281,-288.7065"/>
<polygon fill="#191970" stroke="#191970" points="382.9413,-292.1984 392.8258,-288.3844 382.7203,-285.2019 382.9413,-292.1984"/>
</g>
<!-- Node18 -->
<g id="node18" class="node">
<title>Node18</title>
<g id="a_node18"><a xlink:href="../../db/dff/structActs_1_1SurfaceArray_1_1SurfaceGridLookup.html#a3e73556df8fa7d4c8a8850a699d1e4ec" target="_top" xlink:title="Acts::SurfaceArray\l::SurfaceGridLookup\l::populateNeighborCache">
<polygon fill="none" stroke="#000000" points="380,-165.5 380,-209.5 525,-209.5 525,-165.5 380,-165.5"/>
<text text-anchor="start" x="388" y="-196.5" font-family="FreeSans" font-size="10.00" fill="#000000">Acts::SurfaceArray</text>
<text text-anchor="start" x="388" y="-184.5" font-family="FreeSans" font-size="10.00" fill="#000000">::SurfaceGridLookup</text>
<text text-anchor="middle" x="452.5" y="-172.5" font-family="FreeSans" font-size="10.00" fill="#000000">::populateNeighborCache</text>
</a>
</g>
</g>
<!-- Node15&#45;&gt;Node18 -->
<g id="edge17" class="edge">
<title>Node15&#45;&gt;Node18</title>
<path fill="none" stroke="#191970" d="M314.6795,-276.3887C321.6323,-273.6993 328.5735,-270.7234 335,-267.5 363.7537,-253.0778 393.6888,-232.6019 416.1476,-215.9761"/>
<polygon fill="#191970" stroke="#191970" points="418.4678,-218.6111 424.3711,-209.8133 414.2699,-213.0096 418.4678,-218.6111"/>
</g>
<!-- Node17 -->
<g id="node17" class="node">
<title>Node17</title>
<g id="a_node17"><a xlink:href="../../d0/df4/exceptionActs_1_1detail_1_1Grid.html#a74eedbc6a4ba2cbfc67f9eca80210917" target="_top" xlink:title="access value stored in bin for a given point">
<polygon fill="none" stroke="#000000" points="585.5,-306.5 585.5,-338.5 686.5,-338.5 686.5,-306.5 585.5,-306.5"/>
<text text-anchor="start" x="593.5" y="-325.5" font-family="FreeSans" font-size="10.00" fill="#000000">Acts::detail::Grid</text>
<text text-anchor="middle" x="636" y="-313.5" font-family="FreeSans" font-size="10.00" fill="#000000">::atPosition</text>
</a>
</g>
</g>
<!-- Node16&#45;&gt;Node17 -->
<g id="edge16" class="edge">
<title>Node16&#45;&gt;Node17</title>
<path fill="none" stroke="#191970" d="M512.0772,-298.1882C532.3098,-302.1575 554.9324,-306.5957 575.255,-310.5827"/>
<polygon fill="#191970" stroke="#191970" points="574.8492,-314.0698 585.336,-312.5605 576.1969,-307.2007 574.8492,-314.0698"/>
</g>
<!-- Node19 -->
<g id="node19" class="node">
<title>Node19</title>
<g id="a_node19"><a xlink:href="../../d0/df4/exceptionActs_1_1detail_1_1Grid.html#af1740f025f852ded59760beee4f0d33d" target="_top" xlink:title="access value stored in bin with given global bin number">
<polygon fill="none" stroke="#000000" points="576.5,-267.5 576.5,-287.5 695.5,-287.5 695.5,-267.5 576.5,-267.5"/>
<text text-anchor="middle" x="636" y="-274.5" font-family="FreeSans" font-size="10.00" fill="#000000">Acts::detail::Grid::at</text>
</a>
</g>
</g>
<!-- Node18&#45;&gt;Node19 -->
<g id="edge18" class="edge">
<title>Node18&#45;&gt;Node19</title>
<path fill="none" stroke="#191970" d="M489.1028,-209.5267C511.9393,-222.8191 542.182,-239.6177 570,-252.5 578.655,-256.5081 588.149,-260.3902 597.1715,-263.8524"/>
<polygon fill="#191970" stroke="#191970" points="596.1225,-267.1969 606.7147,-267.4305 598.58,-260.6425 596.1225,-267.1969"/>
</g>
<!-- Node20 -->
<g id="node20" class="node">
<title>Node20</title>
<g id="a_node20"><a xlink:href="../../db/dff/structActs_1_1SurfaceArray_1_1SurfaceGridLookup.html#a2c5b17e897d3868e334628e197574af5" target="_top" xlink:title="Checks if global bin is valid.">
<polygon fill="none" stroke="#000000" points="576.5,-165.5 576.5,-209.5 695.5,-209.5 695.5,-165.5 576.5,-165.5"/>
<text text-anchor="start" x="584.5" y="-196.5" font-family="FreeSans" font-size="10.00" fill="#000000">Acts::SurfaceArray</text>
<text text-anchor="start" x="584.5" y="-184.5" font-family="FreeSans" font-size="10.00" fill="#000000">::SurfaceGridLookup</text>
<text text-anchor="middle" x="636" y="-172.5" font-family="FreeSans" font-size="10.00" fill="#000000">::isValidBin</text>
</a>
</g>
</g>
<!-- Node18&#45;&gt;Node20 -->
<g id="edge19" class="edge">
<title>Node18&#45;&gt;Node20</title>
<path fill="none" stroke="#191970" d="M525.0241,-187.5C538.5951,-187.5 552.7538,-187.5 566.239,-187.5"/>
<polygon fill="#191970" stroke="#191970" points="566.3991,-191.0001 576.399,-187.5 566.399,-184.0001 566.3991,-191.0001"/>
</g>
<!-- Node21 -->
<g id="node21" class="node">
<title>Node21</title>
<g id="a_node21"><a xlink:href="../../d0/df4/exceptionActs_1_1detail_1_1Grid.html#a996ffb4ec1f86f88ce5c745d724ee5f9" target="_top" xlink:title="determine local bin index for each axis from global bin index">
<polygon fill="none" stroke="#000000" points="738,-222.5 738,-254.5 880,-254.5 880,-222.5 738,-222.5"/>
<text text-anchor="start" x="746" y="-241.5" font-family="FreeSans" font-size="10.00" fill="#000000">Acts::detail::Grid</text>
<text text-anchor="middle" x="809" y="-229.5" font-family="FreeSans" font-size="10.00" fill="#000000">::localBinsFromGlobalBin</text>
</a>
</g>
</g>
<!-- Node18&#45;&gt;Node21 -->
<g id="edge22" class="edge">
<title>Node18&#45;&gt;Node21</title>
<path fill="none" stroke="#191970" d="M525.0449,-209.5235C539.8088,-213.363 555.3162,-216.9399 570,-219.5 622.1462,-228.5915 681.4614,-233.339 727.9553,-235.8149"/>
<polygon fill="#191970" stroke="#191970" points="727.8101,-239.312 737.9749,-236.3241 728.1654,-232.321 727.8101,-239.312"/>
</g>
<!-- Node23 -->
<g id="node23" class="node">
<title>Node23</title>
<g id="a_node23"><a xlink:href="../../d0/df4/exceptionActs_1_1detail_1_1Grid.html#a49d27d639b53e1a2bc774c012ef10592" target="_top" xlink:title="get global bin indices for neighborhood">
<polygon fill="none" stroke="#000000" points="570.5,-114.5 570.5,-146.5 701.5,-146.5 701.5,-114.5 570.5,-114.5"/>
<text text-anchor="start" x="578.5" y="-133.5" font-family="FreeSans" font-size="10.00" fill="#000000">Acts::detail::Grid</text>
<text text-anchor="middle" x="636" y="-121.5" font-family="FreeSans" font-size="10.00" fill="#000000">::neighborHoodIndices</text>
</a>
</g>
</g>
<!-- Node18&#45;&gt;Node23 -->
<g id="edge23" class="edge">
<title>Node18&#45;&gt;Node23</title>
<path fill="none" stroke="#191970" d="M523.4459,-165.4623C540.2332,-160.2477 558.0014,-154.7284 574.3384,-149.6537"/>
<polygon fill="#191970" stroke="#191970" points="575.7924,-152.8671 584.304,-146.5581 573.7159,-146.1822 575.7924,-152.8671"/>
</g>
<!-- Node24 -->
<g id="node24" class="node">
<title>Node24</title>
<g id="a_node24"><a xlink:href="../../db/dff/structActs_1_1SurfaceArray_1_1SurfaceGridLookup.html#a0c2db1e2dd35aa06a5c0eeeedf12058b" target="_top" xlink:title="Performs a lookup at pos, but returns neighbors as well.">
<polygon fill="none" stroke="#000000" points="576.5,-51.5 576.5,-95.5 695.5,-95.5 695.5,-51.5 576.5,-51.5"/>
<text text-anchor="start" x="584.5" y="-82.5" font-family="FreeSans" font-size="10.00" fill="#000000">Acts::SurfaceArray</text>
<text text-anchor="start" x="584.5" y="-70.5" font-family="FreeSans" font-size="10.00" fill="#000000">::SurfaceGridLookup</text>
<text text-anchor="middle" x="636" y="-58.5" font-family="FreeSans" font-size="10.00" fill="#000000">::neighbors</text>
</a>
</g>
</g>
<!-- Node18&#45;&gt;Node24 -->
<g id="edge24" class="edge">
<title>Node18&#45;&gt;Node24</title>
<path fill="none" stroke="#191970" d="M481.0072,-165.2158C504.2357,-147.5929 538.2685,-122.9667 570,-104.5 572.4618,-103.0673 575.0007,-101.647 577.5841,-100.2479"/>
<polygon fill="#191970" stroke="#191970" points="579.2549,-103.324 586.492,-95.586 576.009,-97.122 579.2549,-103.324"/>
</g>
<!-- Node26 -->
<g id="node26" class="node">
<title>Node26</title>
<g id="a_node26"><a xlink:href="../../d0/df4/exceptionActs_1_1detail_1_1Grid.html#a6e7b03447acf010477ae14122c305977" target="_top" xlink:title="total number of bins">
<polygon fill="none" stroke="#000000" points="585.5,-.5 585.5,-32.5 686.5,-32.5 686.5,-.5 585.5,-.5"/>
<text text-anchor="start" x="593.5" y="-19.5" font-family="FreeSans" font-size="10.00" fill="#000000">Acts::detail::Grid</text>
<text text-anchor="middle" x="636" y="-7.5" font-family="FreeSans" font-size="10.00" fill="#000000">::size</text>
</a>
</g>
</g>
<!-- Node18&#45;&gt;Node26 -->
<g id="edge26" class="edge">
<title>Node18&#45;&gt;Node26</title>
<path fill="none" stroke="#191970" d="M465.0425,-165.3668C483.9791,-133.7763 522.727,-75.7949 570,-41.5 572.0394,-40.0205 574.1769,-38.6174 576.3837,-37.288"/>
<polygon fill="#191970" stroke="#191970" points="578.0552,-40.3631 585.1777,-32.5196 574.7185,-34.2095 578.0552,-40.3631"/>
</g>
<!-- Node20&#45;&gt;Node21 -->
<g id="edge20" class="edge">
<title>Node20&#45;&gt;Node21</title>
<path fill="none" stroke="#191970" d="M695.5368,-205.0513C711.4012,-209.7281 728.61,-214.8012 744.7165,-219.5494"/>
<polygon fill="#191970" stroke="#191970" points="743.9991,-222.9868 754.5807,-222.4573 745.9786,-216.2724 743.9991,-222.9868"/>
</g>
<!-- Node22 -->
<g id="node22" class="node">
<title>Node22</title>
<g id="a_node22"><a xlink:href="../../d0/df4/exceptionActs_1_1detail_1_1Grid.html#a53e780b2130802fb3140d7e1af78ec52" target="_top" xlink:title="get number of bins along each specific axis">
<polygon fill="none" stroke="#000000" points="758.5,-171.5 758.5,-203.5 859.5,-203.5 859.5,-171.5 758.5,-171.5"/>
<text text-anchor="start" x="766.5" y="-190.5" font-family="FreeSans" font-size="10.00" fill="#000000">Acts::detail::Grid</text>
<text text-anchor="middle" x="809" y="-178.5" font-family="FreeSans" font-size="10.00" fill="#000000">::numLocalBins</text>
</a>
</g>
</g>
<!-- Node20&#45;&gt;Node22 -->
<g id="edge21" class="edge">
<title>Node20&#45;&gt;Node22</title>
<path fill="none" stroke="#191970" d="M695.5368,-187.5C712.4534,-187.5 730.8987,-187.5 747.9061,-187.5"/>
<polygon fill="#191970" stroke="#191970" points="748.2833,-191.0001 758.2833,-187.5 748.2832,-184.0001 748.2833,-191.0001"/>
</g>
<!-- Node25 -->
<g id="node25" class="node">
<title>Node25</title>
<g id="a_node25"><a xlink:href="../../d0/df4/exceptionActs_1_1detail_1_1Grid.html#a33c515979196410a4aaaf51e7bdc7714" target="_top" xlink:title="determine global index for bin containing the given point">
<polygon fill="none" stroke="#000000" points="742,-57.5 742,-89.5 876,-89.5 876,-57.5 742,-57.5"/>
<text text-anchor="start" x="750" y="-76.5" font-family="FreeSans" font-size="10.00" fill="#000000">Acts::detail::Grid</text>
<text text-anchor="middle" x="809" y="-64.5" font-family="FreeSans" font-size="10.00" fill="#000000">::globalBinFromPosition</text>
</a>
</g>
</g>
<!-- Node24&#45;&gt;Node25 -->
<g id="edge25" class="edge">
<title>Node24&#45;&gt;Node25</title>
<path fill="none" stroke="#191970" d="M695.5368,-73.5C707.2197,-73.5 719.6318,-73.5 731.7958,-73.5"/>
<polygon fill="#191970" stroke="#191970" points="731.9338,-77.0001 741.9338,-73.5 731.9338,-70.0001 731.9338,-77.0001"/>
</g>
</g>
</svg>
