<?xml version="1.0" encoding="UTF-8" standalone="no"?>
<!DOCTYPE svg PUBLIC "-//W3C//DTD SVG 1.1//EN"
 "http://www.w3.org/Graphics/SVG/1.1/DTD/svg11.dtd">
<!-- Generated by graphviz version 2.40.1 (20161225.0304)
 -->
<!-- Title: Acts::ParticleHypothesis::pionLike Pages: 1 -->
<svg width="322pt" height="92pt"
 viewBox="0.00 0.00 322.00 92.00" xmlns="http://www.w3.org/2000/svg" xmlns:xlink="http://www.w3.org/1999/xlink">
<g id="graph0" class="graph" transform="scale(1 1) rotate(0) translate(4 88)">
<title>Acts::ParticleHypothesis::pionLike</title>
<!-- Node1 -->
<g id="node1" class="node">
<title>Node1</title>
<polygon fill="#bfbfbf" stroke="#000000" points="0,-25.5 0,-57.5 139,-57.5 139,-25.5 0,-25.5"/>
<text text-anchor="start" x="8" y="-44.5" font-family="FreeSans" font-size="10.00" fill="#000000">Acts::ParticleHypothesis</text>
<text text-anchor="middle" x="69.5" y="-32.5" font-family="FreeSans" font-size="10.00" fill="#000000">::pionLike</text>
</g>
<!-- Node2 -->
<g id="node2" class="node">
<title>Node2</title>
<g id="a_node2"><a xlink:href="../../dc/d1b/classActs_1_1ParticleHypothesis.html#a99adda321d2934f980d30f9a9be853a8" target="_top" xlink:title="Acts::ParticleHypothesis\l::ParticleHypothesis">
<polygon fill="none" stroke="#000000" points="175,-51.5 175,-83.5 314,-83.5 314,-51.5 175,-51.5"/>
<text text-anchor="start" x="183" y="-70.5" font-family="FreeSans" font-size="10.00" fill="#000000">Acts::ParticleHypothesis</text>
<text text-anchor="middle" x="244.5" y="-58.5" font-family="FreeSans" font-size="10.00" fill="#000000">::ParticleHypothesis</text>
</a>
</g>
</g>
<!-- Node1&#45;&gt;Node2 -->
<g id="edge1" class="edge">
<title>Node1&#45;&gt;Node2</title>
<path fill="none" stroke="#191970" d="M139.1675,-51.8506C147.594,-53.1025 156.251,-54.3887 164.8076,-55.66"/>
<polygon fill="#191970" stroke="#191970" points="164.3805,-59.1349 174.7863,-57.1425 165.4093,-52.2109 164.3805,-59.1349"/>
</g>
<!-- Node3 -->
<g id="node3" class="node">
<title>Node3</title>
<g id="a_node3"><a xlink:href="../../dc/d1b/classActs_1_1ParticleHypothesis.html#a963c15014185a0480f89ce287524fc2a" target="_top" xlink:title="Acts::ParticleHypothesis\l::pion">
<polygon fill="none" stroke="#000000" points="175,-.5 175,-32.5 314,-32.5 314,-.5 175,-.5"/>
<text text-anchor="start" x="183" y="-19.5" font-family="FreeSans" font-size="10.00" fill="#000000">Acts::ParticleHypothesis</text>
<text text-anchor="middle" x="244.5" y="-7.5" font-family="FreeSans" font-size="10.00" fill="#000000">::pion</text>
</a>
</g>
</g>
<!-- Node1&#45;&gt;Node3 -->
<g id="edge2" class="edge">
<title>Node1&#45;&gt;Node3</title>
<path fill="none" stroke="#191970" d="M139.1675,-31.5475C147.594,-30.3437 156.251,-29.107 164.8076,-27.8846"/>
<polygon fill="#191970" stroke="#191970" points="165.3819,-31.3382 174.7863,-26.4591 164.3918,-24.4086 165.3819,-31.3382"/>
</g>
</g>
</svg>
