<?xml version="1.0" encoding="UTF-8" standalone="no"?>
<!DOCTYPE svg PUBLIC "-//W3C//DTD SVG 1.1//EN"
 "http://www.w3.org/Graphics/SVG/1.1/DTD/svg11.dtd">
<!-- Generated by graphviz version 2.40.1 (20161225.0304)
 -->
<!-- Title: acts/blob/sPHENIX/Core/src/Surfaces/RectangleBounds.cpp Pages: 1 -->
<svg width="1171pt" height="452pt"
 viewBox="0.00 0.00 1170.50 452.00" xmlns="http://www.w3.org/2000/svg" xmlns:xlink="http://www.w3.org/1999/xlink">
<g id="graph0" class="graph" transform="scale(1 1) rotate(0) translate(4 448)">
<title>acts/blob/sPHENIX/Core/src/Surfaces/RectangleBounds.cpp</title>
<!-- Node1 -->
<g id="node1" class="node">
<title>Node1</title>
<polygon fill="#bfbfbf" stroke="#000000" points="793,-411.5 793,-443.5 989,-443.5 989,-411.5 793,-411.5"/>
<text text-anchor="start" x="801" y="-430.5" font-family="FreeSans" font-size="10.00" fill="#000000">acts/blob/sPHENIX/Core</text>
<text text-anchor="middle" x="891" y="-418.5" font-family="FreeSans" font-size="10.00" fill="#000000">/src/Surfaces/RectangleBounds.cpp</text>
</g>
<!-- Node2 -->
<g id="node2" class="node">
<title>Node2</title>
<g id="a_node2"><a xlink:href="../../dc/d7d/RectangleBounds_8hpp.html" target="_top" xlink:title="Acts/Surfaces/RectangleBounds.hpp">
<polygon fill="none" stroke="#000000" points="604,-354.5 604,-374.5 804,-374.5 804,-354.5 604,-354.5"/>
<text text-anchor="middle" x="704" y="-361.5" font-family="FreeSans" font-size="10.00" fill="#000000">Acts/Surfaces/RectangleBounds.hpp</text>
</a>
</g>
</g>
<!-- Node1&#45;&gt;Node2 -->
<g id="edge1" class="edge">
<title>Node1&#45;&gt;Node2</title>
<path fill="none" stroke="#191970" d="M843.3282,-411.4394C812.4499,-401.0366 772.7123,-387.6491 743.582,-377.8351"/>
<polygon fill="#191970" stroke="#191970" points="744.3467,-374.3995 733.7526,-374.5236 742.1118,-381.0332 744.3467,-374.3995"/>
</g>
<!-- Node14 -->
<g id="node14" class="node">
<title>Node14</title>
<polygon fill="none" stroke="#bfbfbf" points="606,-120.5 606,-140.5 654,-140.5 654,-120.5 606,-120.5"/>
<text text-anchor="middle" x="630" y="-127.5" font-family="FreeSans" font-size="10.00" fill="#000000">cmath</text>
</g>
<!-- Node1&#45;&gt;Node14 -->
<g id="edge30" class="edge">
<title>Node1&#45;&gt;Node14</title>
<path fill="none" stroke="#191970" d="M882.3772,-411.3206C871.1656,-388.7377 853,-346.1797 853,-307.5 853,-307.5 853,-307.5 853,-250.5 853,-165.9245 727.0771,-140.6963 664.4808,-133.3801"/>
<polygon fill="#191970" stroke="#191970" points="664.6068,-129.8736 654.2894,-132.2822 663.857,-136.8333 664.6068,-129.8736"/>
</g>
<!-- Node19 -->
<g id="node19" class="node">
<title>Node19</title>
<g id="a_node19"><a xlink:href="../../d8/db0/ThrowAssert_8hpp.html" target="_top" xlink:title="Acts/Utilities/ThrowAssert.hpp">
<polygon fill="none" stroke="#000000" points="918.5,-354.5 918.5,-374.5 1087.5,-374.5 1087.5,-354.5 918.5,-354.5"/>
<text text-anchor="middle" x="1003" y="-361.5" font-family="FreeSans" font-size="10.00" fill="#000000">Acts/Utilities/ThrowAssert.hpp</text>
</a>
</g>
</g>
<!-- Node1&#45;&gt;Node19 -->
<g id="edge25" class="edge">
<title>Node1&#45;&gt;Node19</title>
<path fill="none" stroke="#191970" d="M919.5521,-411.4394C936.9415,-401.6579 959.0221,-389.2376 976.1015,-379.6304"/>
<polygon fill="#191970" stroke="#191970" points="978.0142,-382.5703 985.014,-374.6171 974.5823,-376.4693 978.0142,-382.5703"/>
</g>
<!-- Node21 -->
<g id="node21" class="node">
<title>Node21</title>
<polygon fill="none" stroke="#bfbfbf" points="881,-297.5 881,-317.5 941,-317.5 941,-297.5 881,-297.5"/>
<text text-anchor="middle" x="911" y="-304.5" font-family="FreeSans" font-size="10.00" fill="#000000">iostream</text>
</g>
<!-- Node1&#45;&gt;Node21 -->
<g id="edge32" class="edge">
<title>Node1&#45;&gt;Node21</title>
<path fill="none" stroke="#191970" d="M893.6973,-411.3163C897.3055,-389.6669 903.7028,-351.2832 907.626,-327.7439"/>
<polygon fill="#191970" stroke="#191970" points="911.0912,-328.2419 909.2829,-317.8025 904.1865,-327.091 911.0912,-328.2419"/>
</g>
<!-- Node24 -->
<g id="node24" class="node">
<title>Node24</title>
<polygon fill="none" stroke="#bfbfbf" points="1105.5,-354.5 1105.5,-374.5 1162.5,-374.5 1162.5,-354.5 1105.5,-354.5"/>
<text text-anchor="middle" x="1134" y="-361.5" font-family="FreeSans" font-size="10.00" fill="#000000">iomanip</text>
</g>
<!-- Node1&#45;&gt;Node24 -->
<g id="edge31" class="edge">
<title>Node1&#45;&gt;Node24</title>
<path fill="none" stroke="#191970" d="M954.796,-411.4918C992.9209,-401.8484 1042.558,-389.16 1095.4666,-375.1089"/>
<polygon fill="#191970" stroke="#191970" points="1096.6186,-378.4243 1105.3819,-372.4699 1094.8181,-371.6598 1096.6186,-378.4243"/>
</g>
<!-- Node3 -->
<g id="node3" class="node">
<title>Node3</title>
<g id="a_node3"><a xlink:href="../../d9/dc6/PlanarBounds_8hpp.html" target="_top" xlink:title="Acts/Surfaces/PlanarBounds.hpp">
<polygon fill="none" stroke="#000000" points="159,-297.5 159,-317.5 341,-317.5 341,-297.5 159,-297.5"/>
<text text-anchor="middle" x="250" y="-304.5" font-family="FreeSans" font-size="10.00" fill="#000000">Acts/Surfaces/PlanarBounds.hpp</text>
</a>
</g>
</g>
<!-- Node2&#45;&gt;Node3 -->
<g id="edge2" class="edge">
<title>Node2&#45;&gt;Node3</title>
<path fill="none" stroke="#191970" d="M624.1395,-354.4735C544.6373,-344.4919 422.8249,-329.1983 339.9557,-318.794"/>
<polygon fill="#191970" stroke="#191970" points="340.1538,-315.2915 329.7957,-317.5184 339.2817,-322.2369 340.1538,-315.2915"/>
</g>
<!-- Node7 -->
<g id="node7" class="node">
<title>Node7</title>
<g id="a_node7"><a xlink:href="../../d6/d1d/Definitions_8hpp.html" target="_top" xlink:title="Acts/Utilities/Definitions.hpp">
<polygon fill="none" stroke="#000000" points="325,-57.5 325,-77.5 485,-77.5 485,-57.5 325,-57.5"/>
<text text-anchor="middle" x="405" y="-64.5" font-family="FreeSans" font-size="10.00" fill="#000000">Acts/Utilities/Definitions.hpp</text>
</a>
</g>
</g>
<!-- Node2&#45;&gt;Node7 -->
<g id="edge21" class="edge">
<title>Node2&#45;&gt;Node7</title>
<path fill="none" stroke="#191970" d="M700.6587,-354.2539C694.5042,-334.4421 682,-289.4027 682,-250.5 682,-250.5 682,-250.5 682,-193.5 682,-157.1716 689.4006,-138.9552 663,-114 650.6264,-102.3039 564.565,-88.3932 495.1897,-78.8533"/>
<polygon fill="#191970" stroke="#191970" points="495.4664,-75.3587 485.0858,-77.4782 494.5225,-82.2948 495.4664,-75.3587"/>
</g>
<!-- Node10 -->
<g id="node10" class="node">
<title>Node10</title>
<polygon fill="none" stroke="#bfbfbf" points="32.5,-57.5 32.5,-77.5 81.5,-77.5 81.5,-57.5 32.5,-57.5"/>
<text text-anchor="middle" x="57" y="-64.5" font-family="FreeSans" font-size="10.00" fill="#000000">vector</text>
</g>
<!-- Node2&#45;&gt;Node10 -->
<g id="edge24" class="edge">
<title>Node2&#45;&gt;Node10</title>
<path fill="none" stroke="#191970" d="M603.924,-360.1615C468.1821,-353.5789 233.1023,-339.5115 150,-318 79.227,-299.68 0,-323.6057 0,-250.5 0,-250.5 0,-250.5 0,-193.5 0,-152.1685 25.7751,-109.4475 42.6602,-85.8957"/>
<polygon fill="#191970" stroke="#191970" points="45.6841,-87.694 48.8333,-77.578 40.063,-83.5222 45.6841,-87.694"/>
</g>
<!-- Node17 -->
<g id="node17" class="node">
<title>Node17</title>
<polygon fill="none" stroke="#bfbfbf" points="710.5,-297.5 710.5,-317.5 753.5,-317.5 753.5,-297.5 710.5,-297.5"/>
<text text-anchor="middle" x="732" y="-304.5" font-family="FreeSans" font-size="10.00" fill="#000000">array</text>
</g>
<!-- Node2&#45;&gt;Node17 -->
<g id="edge22" class="edge">
<title>Node2&#45;&gt;Node17</title>
<path fill="none" stroke="#191970" d="M709.0058,-354.3095C712.7486,-346.6903 717.9787,-336.0435 722.5053,-326.8285"/>
<polygon fill="#191970" stroke="#191970" points="725.7698,-328.121 727.0375,-317.6022 719.487,-325.0346 725.7698,-328.121"/>
</g>
<!-- Node18 -->
<g id="node18" class="node">
<title>Node18</title>
<polygon fill="none" stroke="#bfbfbf" points="771.5,-297.5 771.5,-317.5 824.5,-317.5 824.5,-297.5 771.5,-297.5"/>
<text text-anchor="middle" x="798" y="-304.5" font-family="FreeSans" font-size="10.00" fill="#000000">cassert</text>
</g>
<!-- Node2&#45;&gt;Node18 -->
<g id="edge23" class="edge">
<title>Node2&#45;&gt;Node18</title>
<path fill="none" stroke="#191970" d="M720.8053,-354.3095C735.2417,-345.5556 756.2691,-332.8049 772.7335,-322.8211"/>
<polygon fill="#191970" stroke="#191970" points="774.6042,-325.7801 781.3402,-317.6022 770.9746,-319.7945 774.6042,-325.7801"/>
</g>
<!-- Node4 -->
<g id="node4" class="node">
<title>Node4</title>
<g id="a_node4"><a xlink:href="../../da/ddb/SurfaceBounds_8hpp.html" target="_top" xlink:title="Acts/Surfaces/SurfaceBounds.hpp">
<polygon fill="none" stroke="#000000" points="156,-240.5 156,-260.5 344,-260.5 344,-240.5 156,-240.5"/>
<text text-anchor="middle" x="250" y="-247.5" font-family="FreeSans" font-size="10.00" fill="#000000">Acts/Surfaces/SurfaceBounds.hpp</text>
</a>
</g>
</g>
<!-- Node3&#45;&gt;Node4 -->
<g id="edge3" class="edge">
<title>Node3&#45;&gt;Node4</title>
<path fill="none" stroke="#191970" d="M250,-297.3095C250,-289.9335 250,-279.72 250,-270.715"/>
<polygon fill="#191970" stroke="#191970" points="253.5001,-270.6022 250,-260.6022 246.5001,-270.6023 253.5001,-270.6022"/>
</g>
<!-- Node3&#45;&gt;Node10 -->
<g id="edge20" class="edge">
<title>Node3&#45;&gt;Node10</title>
<path fill="none" stroke="#191970" d="M216.3946,-297.4752C194.9304,-289.8976 167.4028,-277.89 147,-261 99.3201,-221.5293 89.2974,-204.742 67,-147 59.5898,-127.8104 57.4038,-104.2637 56.8791,-87.7965"/>
<polygon fill="#191970" stroke="#191970" points="60.377,-87.6177 56.7375,-77.6677 53.3777,-87.7156 60.377,-87.6177"/>
</g>
<!-- Node5 -->
<g id="node5" class="node">
<title>Node5</title>
<g id="a_node5"><a xlink:href="../../d7/d50/BoundaryCheck_8hpp.html" target="_top" xlink:title="Acts/Surfaces/BoundaryCheck.hpp">
<polygon fill="none" stroke="#000000" points="278,-183.5 278,-203.5 470,-203.5 470,-183.5 278,-183.5"/>
<text text-anchor="middle" x="374" y="-190.5" font-family="FreeSans" font-size="10.00" fill="#000000">Acts/Surfaces/BoundaryCheck.hpp</text>
</a>
</g>
</g>
<!-- Node4&#45;&gt;Node5 -->
<g id="edge4" class="edge">
<title>Node4&#45;&gt;Node5</title>
<path fill="none" stroke="#191970" d="M271.8833,-240.4408C291.5062,-231.4205 320.525,-218.0813 342.6181,-207.9255"/>
<polygon fill="#191970" stroke="#191970" points="344.2942,-211.0072 351.9184,-203.6504 341.3705,-204.647 344.2942,-211.0072"/>
</g>
<!-- Node4&#45;&gt;Node7 -->
<g id="edge18" class="edge">
<title>Node4&#45;&gt;Node7</title>
<path fill="none" stroke="#191970" d="M248.1313,-240.1881C244.254,-215.3441 238.0896,-151.4653 269,-114 279.7216,-101.0048 316.9706,-88.7814 349.7794,-80.1311"/>
<polygon fill="#191970" stroke="#191970" points="350.9681,-83.4396 359.7847,-77.5644 349.2286,-76.6592 350.9681,-83.4396"/>
</g>
<!-- Node16 -->
<g id="node16" class="node">
<title>Node16</title>
<polygon fill="none" stroke="#bfbfbf" points="164.5,-183.5 164.5,-203.5 221.5,-203.5 221.5,-183.5 164.5,-183.5"/>
<text text-anchor="middle" x="193" y="-190.5" font-family="FreeSans" font-size="10.00" fill="#000000">ostream</text>
</g>
<!-- Node4&#45;&gt;Node16 -->
<g id="edge19" class="edge">
<title>Node4&#45;&gt;Node16</title>
<path fill="none" stroke="#191970" d="M239.8095,-240.3095C231.6229,-232.1229 219.941,-220.441 210.2955,-210.7955"/>
<polygon fill="#191970" stroke="#191970" points="212.6482,-208.1984 203.1022,-203.6022 207.6984,-213.1482 212.6482,-208.1984"/>
</g>
<!-- Node6 -->
<g id="node6" class="node">
<title>Node6</title>
<g id="a_node6"><a xlink:href="../../d4/d27/VerticesHelper_8hpp.html" target="_top" xlink:title="Acts/Surfaces/detail\l/VerticesHelper.hpp">
<polygon fill="none" stroke="#000000" points="104.5,-114.5 104.5,-146.5 221.5,-146.5 221.5,-114.5 104.5,-114.5"/>
<text text-anchor="start" x="112.5" y="-133.5" font-family="FreeSans" font-size="10.00" fill="#000000">Acts/Surfaces/detail</text>
<text text-anchor="middle" x="163" y="-121.5" font-family="FreeSans" font-size="10.00" fill="#000000">/VerticesHelper.hpp</text>
</a>
</g>
</g>
<!-- Node5&#45;&gt;Node6 -->
<g id="edge5" class="edge">
<title>Node5&#45;&gt;Node6</title>
<path fill="none" stroke="#191970" d="M340.0992,-183.378C309.622,-174.2781 264.0507,-160.6715 226.7685,-149.5399"/>
<polygon fill="#191970" stroke="#191970" points="227.5723,-146.1273 216.9889,-146.6199 225.5695,-152.8347 227.5723,-146.1273"/>
</g>
<!-- Node5&#45;&gt;Node7 -->
<g id="edge10" class="edge">
<title>Node5&#45;&gt;Node7</title>
<path fill="none" stroke="#191970" d="M383.3741,-183.3495C390.8644,-174.4996 400.7826,-160.9292 405,-147 410.9144,-127.4659 409.9961,-103.9727 408.1652,-87.6121"/>
<polygon fill="#191970" stroke="#191970" points="411.6161,-87.0109 406.8247,-77.5614 404.6776,-87.9364 411.6161,-87.0109"/>
</g>
<!-- Node5&#45;&gt;Node10 -->
<g id="edge17" class="edge">
<title>Node5&#45;&gt;Node10</title>
<path fill="none" stroke="#191970" d="M277.8159,-186.8936C208.8825,-180.438 123.3995,-168.3676 95,-147 75.789,-132.5458 65.8442,-105.8776 61.0285,-87.4388"/>
<polygon fill="#191970" stroke="#191970" points="64.4343,-86.6317 58.7546,-77.6879 57.6172,-88.2215 64.4343,-86.6317"/>
</g>
<!-- Node11 -->
<g id="node11" class="node">
<title>Node11</title>
<g id="a_node11"><a xlink:href="../../d8/dfd/ParameterDefinitions_8hpp.html" target="_top" xlink:title="Acts/Utilities/Parameter\lDefinitions.hpp">
<polygon fill="none" stroke="#000000" points="452,-114.5 452,-146.5 588,-146.5 588,-114.5 452,-114.5"/>
<text text-anchor="start" x="460" y="-133.5" font-family="FreeSans" font-size="10.00" fill="#000000">Acts/Utilities/Parameter</text>
<text text-anchor="middle" x="520" y="-121.5" font-family="FreeSans" font-size="10.00" fill="#000000">Definitions.hpp</text>
</a>
</g>
</g>
<!-- Node5&#45;&gt;Node11 -->
<g id="edge11" class="edge">
<title>Node5&#45;&gt;Node11</title>
<path fill="none" stroke="#191970" d="M397.4574,-183.378C417.828,-174.5879 447.9439,-161.5927 473.2219,-150.685"/>
<polygon fill="#191970" stroke="#191970" points="474.8478,-153.7955 482.6428,-146.6199 472.0744,-147.3683 474.8478,-153.7955"/>
</g>
<!-- Node13 -->
<g id="node13" class="node">
<title>Node13</title>
<polygon fill="none" stroke="#bfbfbf" points="278.5,-120.5 278.5,-140.5 323.5,-140.5 323.5,-120.5 278.5,-120.5"/>
<text text-anchor="middle" x="301" y="-127.5" font-family="FreeSans" font-size="10.00" fill="#000000">cfloat</text>
</g>
<!-- Node5&#45;&gt;Node13 -->
<g id="edge14" class="edge">
<title>Node5&#45;&gt;Node13</title>
<path fill="none" stroke="#191970" d="M362.2713,-183.378C351.0568,-173.6997 333.9353,-158.9236 320.6394,-147.449"/>
<polygon fill="#191970" stroke="#191970" points="322.7994,-144.69 312.9421,-140.8062 318.226,-149.9895 322.7994,-144.69"/>
</g>
<!-- Node5&#45;&gt;Node14 -->
<g id="edge15" class="edge">
<title>Node5&#45;&gt;Node14</title>
<path fill="none" stroke="#191970" d="M445.0656,-183.4905C489.5064,-176.0604 547.5052,-164.2086 597,-147 598.8604,-146.3532 600.75,-145.6236 602.635,-144.8407"/>
<polygon fill="#191970" stroke="#191970" points="604.2288,-147.9604 611.8641,-140.6152 601.3148,-141.5958 604.2288,-147.9604"/>
</g>
<!-- Node15 -->
<g id="node15" class="node">
<title>Node15</title>
<polygon fill="none" stroke="#bfbfbf" points="342,-120.5 342,-140.5 396,-140.5 396,-120.5 342,-120.5"/>
<text text-anchor="middle" x="369" y="-127.5" font-family="FreeSans" font-size="10.00" fill="#000000">iterator</text>
</g>
<!-- Node5&#45;&gt;Node15 -->
<g id="edge16" class="edge">
<title>Node5&#45;&gt;Node15</title>
<path fill="none" stroke="#191970" d="M373.1967,-183.378C372.501,-174.6128 371.4735,-161.6662 370.6093,-150.7777"/>
<polygon fill="#191970" stroke="#191970" points="374.0982,-150.4979 369.818,-140.8062 367.1202,-151.0518 374.0982,-150.4979"/>
</g>
<!-- Node6&#45;&gt;Node7 -->
<g id="edge6" class="edge">
<title>Node6&#45;&gt;Node7</title>
<path fill="none" stroke="#191970" d="M221.5814,-115.2495C262.9292,-104.4854 317.6678,-90.2352 356.5548,-80.1118"/>
<polygon fill="#191970" stroke="#191970" points="357.7835,-83.4086 366.5792,-77.5021 356.0199,-76.6344 357.7835,-83.4086"/>
</g>
<!-- Node9 -->
<g id="node9" class="node">
<title>Node9</title>
<polygon fill="none" stroke="#bfbfbf" points="140.5,-57.5 140.5,-77.5 185.5,-77.5 185.5,-57.5 140.5,-57.5"/>
<text text-anchor="middle" x="163" y="-64.5" font-family="FreeSans" font-size="10.00" fill="#000000">utility</text>
</g>
<!-- Node6&#45;&gt;Node9 -->
<g id="edge8" class="edge">
<title>Node6&#45;&gt;Node9</title>
<path fill="none" stroke="#191970" d="M163,-114.2759C163,-106.2654 163,-96.5159 163,-87.9952"/>
<polygon fill="#191970" stroke="#191970" points="166.5001,-87.7512 163,-77.7513 159.5001,-87.7513 166.5001,-87.7512"/>
</g>
<!-- Node6&#45;&gt;Node10 -->
<g id="edge9" class="edge">
<title>Node6&#45;&gt;Node10</title>
<path fill="none" stroke="#191970" d="M135.9775,-114.4394C119.672,-104.7485 99.0085,-92.4673 82.9077,-82.898"/>
<polygon fill="#191970" stroke="#191970" points="84.407,-79.7176 74.0225,-77.6171 80.8306,-85.735 84.407,-79.7176"/>
</g>
<!-- Node8 -->
<g id="node8" class="node">
<title>Node8</title>
<polygon fill="none" stroke="#bfbfbf" points="365,-.5 365,-20.5 445,-20.5 445,-.5 365,-.5"/>
<text text-anchor="middle" x="405" y="-7.5" font-family="FreeSans" font-size="10.00" fill="#000000">Eigen/Dense</text>
</g>
<!-- Node7&#45;&gt;Node8 -->
<g id="edge7" class="edge">
<title>Node7&#45;&gt;Node8</title>
<path fill="none" stroke="#191970" d="M405,-57.3095C405,-49.9335 405,-39.72 405,-30.715"/>
<polygon fill="#191970" stroke="#191970" points="408.5001,-30.6022 405,-20.6022 401.5001,-30.6023 408.5001,-30.6022"/>
</g>
<!-- Node11&#45;&gt;Node7 -->
<g id="edge12" class="edge">
<title>Node11&#45;&gt;Node7</title>
<path fill="none" stroke="#191970" d="M490.6831,-114.4394C472.8279,-104.6579 450.1559,-92.2376 432.619,-82.6304"/>
<polygon fill="#191970" stroke="#191970" points="433.9196,-79.3521 423.4678,-77.6171 430.5564,-85.4913 433.9196,-79.3521"/>
</g>
<!-- Node12 -->
<g id="node12" class="node">
<title>Node12</title>
<polygon fill="none" stroke="#bfbfbf" points="503,-57.5 503,-77.5 573,-77.5 573,-57.5 503,-57.5"/>
<text text-anchor="middle" x="538" y="-64.5" font-family="FreeSans" font-size="10.00" fill="#000000">type_traits</text>
</g>
<!-- Node11&#45;&gt;Node12 -->
<g id="edge13" class="edge">
<title>Node11&#45;&gt;Node12</title>
<path fill="none" stroke="#191970" d="M524.6354,-114.2759C526.9756,-106.0854 529.8352,-96.0769 532.3078,-87.4226"/>
<polygon fill="#191970" stroke="#191970" points="535.6891,-88.3281 535.0711,-77.7513 528.9584,-86.405 535.6891,-88.3281"/>
</g>
<!-- Node20 -->
<g id="node20" class="node">
<title>Node20</title>
<polygon fill="none" stroke="#bfbfbf" points="959.5,-297.5 959.5,-317.5 1024.5,-317.5 1024.5,-297.5 959.5,-297.5"/>
<text text-anchor="middle" x="992" y="-304.5" font-family="FreeSans" font-size="10.00" fill="#000000">exception</text>
</g>
<!-- Node19&#45;&gt;Node20 -->
<g id="edge26" class="edge">
<title>Node19&#45;&gt;Node20</title>
<path fill="none" stroke="#191970" d="M1001.0334,-354.3095C999.61,-346.9335 997.6389,-336.72 995.9011,-327.715"/>
<polygon fill="#191970" stroke="#191970" points="999.2811,-326.7578 993.9496,-317.6022 992.4079,-328.0843 999.2811,-326.7578"/>
</g>
<!-- Node19&#45;&gt;Node21 -->
<g id="edge27" class="edge">
<title>Node19&#45;&gt;Node21</title>
<path fill="none" stroke="#191970" d="M986.5522,-354.3095C972.5538,-345.6366 952.2235,-333.0407 936.1776,-323.0992"/>
<polygon fill="#191970" stroke="#191970" points="937.6494,-319.8938 927.3054,-317.6022 933.9627,-325.8442 937.6494,-319.8938"/>
</g>
<!-- Node22 -->
<g id="node22" class="node">
<title>Node22</title>
<polygon fill="none" stroke="#bfbfbf" points="1043,-297.5 1043,-317.5 1099,-317.5 1099,-297.5 1043,-297.5"/>
<text text-anchor="middle" x="1071" y="-304.5" font-family="FreeSans" font-size="10.00" fill="#000000">sstream</text>
</g>
<!-- Node19&#45;&gt;Node22 -->
<g id="edge28" class="edge">
<title>Node19&#45;&gt;Node22</title>
<path fill="none" stroke="#191970" d="M1015.157,-354.3095C1025.1169,-345.9608 1039.4135,-333.9769 1051.0475,-324.2249"/>
<polygon fill="#191970" stroke="#191970" points="1053.5329,-326.7086 1058.9482,-317.6022 1049.0361,-321.344 1053.5329,-326.7086"/>
</g>
<!-- Node23 -->
<g id="node23" class="node">
<title>Node23</title>
<polygon fill="none" stroke="#bfbfbf" points="1117.5,-297.5 1117.5,-317.5 1162.5,-317.5 1162.5,-297.5 1117.5,-297.5"/>
<text text-anchor="middle" x="1140" y="-304.5" font-family="FreeSans" font-size="10.00" fill="#000000">string</text>
</g>
<!-- Node19&#45;&gt;Node23 -->
<g id="edge29" class="edge">
<title>Node19&#45;&gt;Node23</title>
<path fill="none" stroke="#191970" d="M1027.1775,-354.4408C1049.6919,-345.0734 1083.4013,-331.0484 1108.1106,-320.7678"/>
<polygon fill="#191970" stroke="#191970" points="1109.5393,-323.9643 1117.4276,-316.8914 1106.8503,-317.5014 1109.5393,-323.9643"/>
</g>
</g>
</svg>
