<?xml version="1.0" encoding="UTF-8" standalone="no"?>
<!DOCTYPE svg PUBLIC "-//W3C//DTD SVG 1.1//EN"
 "http://www.w3.org/Graphics/SVG/1.1/DTD/svg11.dtd">
<!-- Generated by graphviz version 2.40.1 (20161225.0304)
 -->
<!-- Title: PHGenFitTrkProp::Setup Pages: 1 -->
<svg width="1159pt" height="623pt"
 viewBox="0.00 0.00 1159.00 623.00" xmlns="http://www.w3.org/2000/svg" xmlns:xlink="http://www.w3.org/1999/xlink">
<g id="graph0" class="graph" transform="scale(1 1) rotate(0) translate(4 619)">
<title>PHGenFitTrkProp::Setup</title>
<!-- Node1 -->
<g id="node1" class="node">
<title>Node1</title>
<polygon fill="#bfbfbf" stroke="#000000" points="0,-198.5 0,-218.5 135,-218.5 135,-198.5 0,-198.5"/>
<text text-anchor="middle" x="67.5" y="-205.5" font-family="FreeSans" font-size="10.00" fill="#000000">PHGenFitTrkProp::Setup</text>
</g>
<!-- Node2 -->
<g id="node2" class="node">
<title>Node2</title>
<g id="a_node2"><a xlink:href="../../d0/d22/classPHGenFitTrkProp.html#a1ece69dc50aa3d04327447cc7eae2d3b" target="_top" xlink:title="fetch node pointers">
<polygon fill="none" stroke="#000000" points="171,-517.5 171,-537.5 327,-537.5 327,-517.5 171,-517.5"/>
<text text-anchor="middle" x="249" y="-524.5" font-family="FreeSans" font-size="10.00" fill="#000000">PHGenFitTrkProp::GetNodes</text>
</a>
</g>
</g>
<!-- Node1&#45;&gt;Node2 -->
<g id="edge1" class="edge">
<title>Node1&#45;&gt;Node2</title>
<path fill="none" stroke="#191970" d="M71.1759,-218.7934C83.063,-251.461 122.5195,-355.1963 171,-432.5 189.1896,-461.5039 215.2138,-491.4645 232.1095,-509.7922"/>
<polygon fill="#191970" stroke="#191970" points="229.7849,-512.431 239.1691,-517.3492 234.9002,-507.6524 229.7849,-512.431"/>
</g>
<!-- Node8 -->
<g id="node8" class="node">
<title>Node8</title>
<g id="a_node8"><a xlink:href="../../d0/d22/classPHGenFitTrkProp.html#af5e0adefe0afd02444c636f417ec82ce" target="_top" xlink:title="Init projection r.">
<polygon fill="none" stroke="#000000" points="175,-390.5 175,-422.5 323,-422.5 323,-390.5 175,-390.5"/>
<text text-anchor="start" x="183" y="-409.5" font-family="FreeSans" font-size="10.00" fill="#000000">PHGenFitTrkProp::Initialize</text>
<text text-anchor="middle" x="249" y="-397.5" font-family="FreeSans" font-size="10.00" fill="#000000">Geometry</text>
</a>
</g>
</g>
<!-- Node1&#45;&gt;Node8 -->
<g id="edge8" class="edge">
<title>Node1&#45;&gt;Node8</title>
<path fill="none" stroke="#191970" d="M76.7501,-218.5911C104.4965,-248.8599 187.551,-339.4648 227.3163,-382.845"/>
<polygon fill="#191970" stroke="#191970" points="224.8771,-385.3638 234.2144,-390.3703 230.0372,-380.6337 224.8771,-385.3638"/>
</g>
<!-- Node15 -->
<g id="node15" class="node">
<title>Node15</title>
<g id="a_node15"><a xlink:href="../../d0/d22/classPHGenFitTrkProp.html#afd241a99a51303034f264a659ade7c16" target="_top" xlink:title="track propagation">
<polygon fill="none" stroke="#000000" points="175,-192.5 175,-224.5 323,-224.5 323,-192.5 175,-192.5"/>
<text text-anchor="start" x="183" y="-211.5" font-family="FreeSans" font-size="10.00" fill="#000000">PHGenFitTrkProp::Initialize</text>
<text text-anchor="middle" x="249" y="-199.5" font-family="FreeSans" font-size="10.00" fill="#000000">PHGenFit</text>
</a>
</g>
</g>
<!-- Node1&#45;&gt;Node15 -->
<g id="edge15" class="edge">
<title>Node1&#45;&gt;Node15</title>
<path fill="none" stroke="#191970" d="M135.0839,-208.5C144.7335,-208.5 154.7576,-208.5 164.6787,-208.5"/>
<polygon fill="#191970" stroke="#191970" points="164.9603,-212.0001 174.9602,-208.5 164.9602,-205.0001 164.9603,-212.0001"/>
</g>
<!-- Node37 -->
<g id="node37" class="node">
<title>Node37</title>
<g id="a_node37"><a xlink:href="../../d2/d5c/classPHTrackPropagating.html#ab26e33655ef4692c8d96d9a5591d478d" target="_top" xlink:title="PHTrackPropagating\l::Setup">
<polygon fill="none" stroke="#000000" points="190.5,-122.5 190.5,-154.5 307.5,-154.5 307.5,-122.5 190.5,-122.5"/>
<text text-anchor="start" x="198.5" y="-141.5" font-family="FreeSans" font-size="10.00" fill="#000000">PHTrackPropagating</text>
<text text-anchor="middle" x="249" y="-129.5" font-family="FreeSans" font-size="10.00" fill="#000000">::Setup</text>
</a>
</g>
</g>
<!-- Node1&#45;&gt;Node37 -->
<g id="edge40" class="edge">
<title>Node1&#45;&gt;Node37</title>
<path fill="none" stroke="#191970" d="M93.5045,-198.4707C120.5363,-188.0452 163.5602,-171.452 197.5063,-158.3598"/>
<polygon fill="#191970" stroke="#191970" points="199.1988,-161.4584 207.2695,-154.5944 196.6799,-154.9273 199.1988,-161.4584"/>
</g>
<!-- Node39 -->
<g id="node39" class="node">
<title>Node39</title>
<g id="a_node39"><a xlink:href="../../d0/d5e/classPHTimer.html#adce6f9a85834e59bd154b9c624ee4e41" target="_top" xlink:title="stops the counter">
<polygon fill="none" stroke="#000000" points="205.5,-56.5 205.5,-76.5 292.5,-76.5 292.5,-56.5 205.5,-56.5"/>
<text text-anchor="middle" x="249" y="-63.5" font-family="FreeSans" font-size="10.00" fill="#000000">PHTimer::stop</text>
</a>
</g>
</g>
<!-- Node1&#45;&gt;Node39 -->
<g id="edge42" class="edge">
<title>Node1&#45;&gt;Node39</title>
<path fill="none" stroke="#191970" d="M77.1926,-198.3493C94.8567,-180.147 133.8973,-141.2663 171,-113.5 186.8284,-101.6546 205.8042,-90.1672 221.076,-81.5144"/>
<polygon fill="#191970" stroke="#191970" points="223.0142,-84.4411 230.0449,-76.5152 219.6061,-78.3268 223.0142,-84.4411"/>
</g>
<!-- Node3 -->
<g id="node3" class="node">
<title>Node3</title>
<g id="a_node3"><a xlink:href="../../da/dc3/namespacefindNode.html#af4793f47e215cb6b0d51e0a9303a4382" target="_top" xlink:title="findNode::getClass">
<polygon fill="none" stroke="#000000" points="399.5,-594.5 399.5,-614.5 511.5,-614.5 511.5,-594.5 399.5,-594.5"/>
<text text-anchor="middle" x="455.5" y="-601.5" font-family="FreeSans" font-size="10.00" fill="#000000">findNode::getClass</text>
</a>
</g>
</g>
<!-- Node2&#45;&gt;Node3 -->
<g id="edge2" class="edge">
<title>Node2&#45;&gt;Node3</title>
<path fill="none" stroke="#191970" d="M265.3708,-537.612C286.9713,-550.5298 326.5301,-572.738 363,-585.5 371.3198,-588.4114 380.225,-590.9379 389.1028,-593.1128"/>
<polygon fill="#191970" stroke="#191970" points="388.5502,-596.5774 399.0818,-595.4208 390.1276,-589.7574 388.5502,-596.5774"/>
</g>
<!-- Node4 -->
<g id="node4" class="node">
<title>Node4</title>
<g id="a_node4"><a xlink:href="../../d5/d07/classPHNodeIterator.html#aea98bf8619af59b1212a94fb32106baa" target="_top" xlink:title="PHNodeIterator::findFirst">
<polygon fill="none" stroke="#000000" points="594.5,-505.5 594.5,-525.5 735.5,-525.5 735.5,-505.5 594.5,-505.5"/>
<text text-anchor="middle" x="665" y="-512.5" font-family="FreeSans" font-size="10.00" fill="#000000">PHNodeIterator::findFirst</text>
</a>
</g>
</g>
<!-- Node3&#45;&gt;Node4 -->
<g id="edge3" class="edge">
<title>Node3&#45;&gt;Node4</title>
<path fill="none" stroke="#191970" d="M511.648,-596.1199C523.8559,-593.4323 536.5402,-589.9563 548,-585.5 583.6407,-571.6404 620.8932,-547.3959 643.5292,-531.3934"/>
<polygon fill="#191970" stroke="#191970" points="645.6534,-534.177 651.7329,-525.5 641.5693,-528.4919 645.6534,-534.177"/>
</g>
<!-- Node7 -->
<g id="node7" class="node">
<title>Node7</title>
<g id="a_node7"><a xlink:href="../../d1/d3e/classPHDataNode.html#a1f3b856fd3ce165047be8aa97f4ab9f3" target="_top" xlink:title="PHDataNode::getData">
<polygon fill="none" stroke="#000000" points="601.5,-594.5 601.5,-614.5 728.5,-614.5 728.5,-594.5 601.5,-594.5"/>
<text text-anchor="middle" x="665" y="-601.5" font-family="FreeSans" font-size="10.00" fill="#000000">PHDataNode::getData</text>
</a>
</g>
</g>
<!-- Node3&#45;&gt;Node7 -->
<g id="edge7" class="edge">
<title>Node3&#45;&gt;Node7</title>
<path fill="none" stroke="#191970" d="M511.6422,-604.5C536.0382,-604.5 564.9541,-604.5 591.0657,-604.5"/>
<polygon fill="#191970" stroke="#191970" points="591.2987,-608.0001 601.2987,-604.5 591.2987,-601.0001 591.2987,-608.0001"/>
</g>
<!-- Node4&#45;&gt;Node4 -->
<g id="edge6" class="edge">
<title>Node4&#45;&gt;Node4</title>
<path fill="none" stroke="#191970" d="M632.6865,-525.5791C617.4632,-534.502 628.2344,-544 665,-544 690.8508,-544 703.8504,-539.3043 703.9987,-533.4146"/>
<polygon fill="#191970" stroke="#191970" points="706.4668,-530.9148 697.3135,-525.5791 701.1416,-535.4583 706.4668,-530.9148"/>
</g>
<!-- Node5 -->
<g id="node5" class="node">
<title>Node5</title>
<g id="a_node5"><a xlink:href="../../dc/d82/classPHNode.html#a4ab1f90aed955a652813bfe377087bda" target="_top" xlink:title="PHNode::getType">
<polygon fill="none" stroke="#000000" points="823.5,-525.5 823.5,-545.5 926.5,-545.5 926.5,-525.5 823.5,-525.5"/>
<text text-anchor="middle" x="875" y="-532.5" font-family="FreeSans" font-size="10.00" fill="#000000">PHNode::getType</text>
</a>
</g>
</g>
<!-- Node4&#45;&gt;Node5 -->
<g id="edge4" class="edge">
<title>Node4&#45;&gt;Node5</title>
<path fill="none" stroke="#191970" d="M735.5112,-522.2153C760.6379,-524.6084 788.7289,-527.2837 813.0801,-529.6029"/>
<polygon fill="#191970" stroke="#191970" points="812.9809,-533.1092 823.2678,-530.5731 813.6447,-526.1407 812.9809,-533.1092"/>
</g>
<!-- Node6 -->
<g id="node6" class="node">
<title>Node6</title>
<g id="a_node6"><a xlink:href="../../dc/d82/classPHNode.html#aca3576f926a4401eddc3d88bf0ce0de3" target="_top" xlink:title="PHNode::getName">
<polygon fill="none" stroke="#000000" points="820.5,-486.5 820.5,-506.5 929.5,-506.5 929.5,-486.5 820.5,-486.5"/>
<text text-anchor="middle" x="875" y="-493.5" font-family="FreeSans" font-size="10.00" fill="#000000">PHNode::getName</text>
</a>
</g>
</g>
<!-- Node4&#45;&gt;Node6 -->
<g id="edge5" class="edge">
<title>Node4&#45;&gt;Node6</title>
<path fill="none" stroke="#191970" d="M735.5112,-509.1204C759.5916,-506.9417 786.3945,-504.5167 810.019,-502.3792"/>
<polygon fill="#191970" stroke="#191970" points="810.6352,-505.8379 820.2791,-501.4509 810.0043,-498.8663 810.6352,-505.8379"/>
</g>
<!-- Node9 -->
<g id="node9" class="node">
<title>Node9</title>
<g id="a_node9"><a xlink:href="../../d9/d85/classPHG4CylinderCellGeom.html#a424a98e6450b5b976c300559bb785881" target="_top" xlink:title="PHG4CylinderCellGeom\l::get_layer">
<polygon fill="none" stroke="#000000" points="388,-543.5 388,-575.5 523,-575.5 523,-543.5 388,-543.5"/>
<text text-anchor="start" x="396" y="-562.5" font-family="FreeSans" font-size="10.00" fill="#000000">PHG4CylinderCellGeom</text>
<text text-anchor="middle" x="455.5" y="-550.5" font-family="FreeSans" font-size="10.00" fill="#000000">::get_layer</text>
</a>
</g>
</g>
<!-- Node8&#45;&gt;Node9 -->
<g id="edge9" class="edge">
<title>Node8&#45;&gt;Node9</title>
<path fill="none" stroke="#191970" d="M258.784,-422.5703C276.237,-449.8436 315.4103,-505.088 363,-534.5 367.7759,-537.4517 372.9002,-540.0596 378.1981,-542.3631"/>
<polygon fill="#191970" stroke="#191970" points="377.2974,-545.7704 387.884,-546.1891 379.8692,-539.2599 377.2974,-545.7704"/>
</g>
<!-- Node10 -->
<g id="node10" class="node">
<title>Node10</title>
<g id="a_node10"><a xlink:href="../../dc/d30/classPHG4CylinderGeom.html#a1ab06f4805659f8006faf3cb3df1dab2" target="_top" xlink:title="PHG4CylinderGeom::get\l_layer">
<polygon fill="none" stroke="#000000" points="385.5,-492.5 385.5,-524.5 525.5,-524.5 525.5,-492.5 385.5,-492.5"/>
<text text-anchor="start" x="393.5" y="-511.5" font-family="FreeSans" font-size="10.00" fill="#000000">PHG4CylinderGeom::get</text>
<text text-anchor="middle" x="455.5" y="-499.5" font-family="FreeSans" font-size="10.00" fill="#000000">_layer</text>
</a>
</g>
</g>
<!-- Node8&#45;&gt;Node10 -->
<g id="edge10" class="edge">
<title>Node8&#45;&gt;Node10</title>
<path fill="none" stroke="#191970" d="M268.3889,-422.5577C290.1646,-439.8587 327.1636,-467.1077 363,-483.5 367.3114,-485.4721 371.8093,-487.315 376.3987,-489.0329"/>
<polygon fill="#191970" stroke="#191970" points="375.3223,-492.3645 385.9172,-492.3852 377.6477,-485.762 375.3223,-492.3645"/>
</g>
<!-- Node11 -->
<g id="node11" class="node">
<title>Node11</title>
<g id="a_node11"><a xlink:href="../../d9/d85/classPHG4CylinderCellGeom.html#a108104cde65d2ca503e306251188e615" target="_top" xlink:title="PHG4CylinderCellGeom\l::get_radius">
<polygon fill="none" stroke="#000000" points="388,-441.5 388,-473.5 523,-473.5 523,-441.5 388,-441.5"/>
<text text-anchor="start" x="396" y="-460.5" font-family="FreeSans" font-size="10.00" fill="#000000">PHG4CylinderCellGeom</text>
<text text-anchor="middle" x="455.5" y="-448.5" font-family="FreeSans" font-size="10.00" fill="#000000">::get_radius</text>
</a>
</g>
</g>
<!-- Node8&#45;&gt;Node11 -->
<g id="edge11" class="edge">
<title>Node8&#45;&gt;Node11</title>
<path fill="none" stroke="#191970" d="M314.0545,-422.5667C335.1735,-427.7826 358.7745,-433.6114 380.5545,-438.9904"/>
<polygon fill="#191970" stroke="#191970" points="379.8704,-442.4266 390.4179,-441.4264 381.5488,-435.6308 379.8704,-442.4266"/>
</g>
<!-- Node12 -->
<g id="node12" class="node">
<title>Node12</title>
<g id="a_node12"><a xlink:href="../../dc/d30/classPHG4CylinderGeom.html#ad978ad904b4a70184d716c095a75874d" target="_top" xlink:title="PHG4CylinderGeom::get\l_radius">
<polygon fill="none" stroke="#000000" points="385.5,-390.5 385.5,-422.5 525.5,-422.5 525.5,-390.5 385.5,-390.5"/>
<text text-anchor="start" x="393.5" y="-409.5" font-family="FreeSans" font-size="10.00" fill="#000000">PHG4CylinderGeom::get</text>
<text text-anchor="middle" x="455.5" y="-397.5" font-family="FreeSans" font-size="10.00" fill="#000000">_radius</text>
</a>
</g>
</g>
<!-- Node8&#45;&gt;Node12 -->
<g id="edge12" class="edge">
<title>Node8&#45;&gt;Node12</title>
<path fill="none" stroke="#191970" d="M323.2595,-406.5C340.0165,-406.5 357.8822,-406.5 374.8863,-406.5"/>
<polygon fill="#191970" stroke="#191970" points="375.3449,-410.0001 385.3449,-406.5 375.3448,-403.0001 375.3449,-410.0001"/>
</g>
<!-- Node13 -->
<g id="node13" class="node">
<title>Node13</title>
<g id="a_node13"><a xlink:href="../../d9/d85/classPHG4CylinderCellGeom.html#ad686dcdb176becd88d1e3ee1fa5113bf" target="_top" xlink:title="PHG4CylinderCellGeom\l::get_thickness">
<polygon fill="none" stroke="#000000" points="388,-339.5 388,-371.5 523,-371.5 523,-339.5 388,-339.5"/>
<text text-anchor="start" x="396" y="-358.5" font-family="FreeSans" font-size="10.00" fill="#000000">PHG4CylinderCellGeom</text>
<text text-anchor="middle" x="455.5" y="-346.5" font-family="FreeSans" font-size="10.00" fill="#000000">::get_thickness</text>
</a>
</g>
</g>
<!-- Node8&#45;&gt;Node13 -->
<g id="edge13" class="edge">
<title>Node8&#45;&gt;Node13</title>
<path fill="none" stroke="#191970" d="M314.0545,-390.4333C335.1735,-385.2174 358.7745,-379.3886 380.5545,-374.0096"/>
<polygon fill="#191970" stroke="#191970" points="381.5488,-377.3692 390.4179,-371.5736 379.8704,-370.5734 381.5488,-377.3692"/>
</g>
<!-- Node14 -->
<g id="node14" class="node">
<title>Node14</title>
<g id="a_node14"><a xlink:href="../../dc/d30/classPHG4CylinderGeom.html#a5e628ced545e46cdcdb65944fd63e524" target="_top" xlink:title="PHG4CylinderGeom::get\l_thickness">
<polygon fill="none" stroke="#000000" points="385.5,-288.5 385.5,-320.5 525.5,-320.5 525.5,-288.5 385.5,-288.5"/>
<text text-anchor="start" x="393.5" y="-307.5" font-family="FreeSans" font-size="10.00" fill="#000000">PHG4CylinderGeom::get</text>
<text text-anchor="middle" x="455.5" y="-295.5" font-family="FreeSans" font-size="10.00" fill="#000000">_thickness</text>
</a>
</g>
</g>
<!-- Node8&#45;&gt;Node14 -->
<g id="edge14" class="edge">
<title>Node8&#45;&gt;Node14</title>
<path fill="none" stroke="#191970" d="M268.855,-390.4232C290.7401,-373.4045 327.5576,-346.7978 363,-330.5 368.0203,-328.1914 373.2902,-326.045 378.661,-324.0574"/>
<polygon fill="#191970" stroke="#191970" points="380.1207,-327.2548 388.4051,-320.6504 377.8103,-320.6471 380.1207,-327.2548"/>
</g>
<!-- Node16 -->
<g id="node16" class="node">
<title>Node16</title>
<g id="a_node16"><a xlink:href="../../df/d4d/classPHFieldUtility.html#a3afdd4e878d02b30b6f2c396e52b8e48" target="_top" xlink:title="Get transient PHField from DST nodes. If not found, make a new one based on default_config.">
<polygon fill="none" stroke="#000000" points="390.5,-237.5 390.5,-269.5 520.5,-269.5 520.5,-237.5 390.5,-237.5"/>
<text text-anchor="start" x="398.5" y="-256.5" font-family="FreeSans" font-size="10.00" fill="#000000">PHFieldUtility::GetField</text>
<text text-anchor="middle" x="455.5" y="-244.5" font-family="FreeSans" font-size="10.00" fill="#000000">MapNode</text>
</a>
</g>
</g>
<!-- Node15&#45;&gt;Node16 -->
<g id="edge16" class="edge">
<title>Node15&#45;&gt;Node16</title>
<path fill="none" stroke="#191970" d="M322.6767,-224.5555C341.4295,-228.642 361.6037,-233.0383 380.4253,-237.1399"/>
<polygon fill="#191970" stroke="#191970" points="379.9102,-240.6097 390.4262,-239.3193 381.4007,-233.7702 379.9102,-240.6097"/>
</g>
<!-- Node19 -->
<g id="node19" class="node">
<title>Node19</title>
<g id="a_node19"><a xlink:href="../../d1/d35/classPHGenFit_1_1Fitter.html#ad3729fabd2bd8a7feebbd79317b38a77" target="_top" xlink:title="PHGenFit::Fitter::getInstance">
<polygon fill="none" stroke="#000000" points="375,-198.5 375,-218.5 536,-218.5 536,-198.5 375,-198.5"/>
<text text-anchor="middle" x="455.5" y="-205.5" font-family="FreeSans" font-size="10.00" fill="#000000">PHGenFit::Fitter::getInstance</text>
</a>
</g>
</g>
<!-- Node15&#45;&gt;Node19 -->
<g id="edge20" class="edge">
<title>Node15&#45;&gt;Node19</title>
<path fill="none" stroke="#191970" d="M323.2595,-208.5C336.7509,-208.5 350.961,-208.5 364.8615,-208.5"/>
<polygon fill="#191970" stroke="#191970" points="364.9138,-212.0001 374.9138,-208.5 364.9138,-205.0001 364.9138,-212.0001"/>
</g>
<!-- Node33 -->
<g id="node33" class="node">
<title>Node33</title>
<g id="a_node33"><a xlink:href="../../d2/da1/classPHGeomUtility.html#aa80925b14430021ea70d0b906af8e885" target="_top" xlink:title="Main user interface: DST node &#45;&gt; TGeoManager for downstream use.">
<polygon fill="none" stroke="#000000" points="363,-155.5 363,-175.5 548,-175.5 548,-155.5 363,-155.5"/>
<text text-anchor="middle" x="455.5" y="-162.5" font-family="FreeSans" font-size="10.00" fill="#000000">PHGeomUtility::GetTGeoManager</text>
</a>
</g>
</g>
<!-- Node15&#45;&gt;Node33 -->
<g id="edge35" class="edge">
<title>Node15&#45;&gt;Node33</title>
<path fill="none" stroke="#191970" d="M323.2595,-193.0368C347.6344,-187.9611 374.3551,-182.397 397.3578,-177.6071"/>
<polygon fill="#191970" stroke="#191970" points="398.2294,-181.0008 407.3059,-175.5356 396.8023,-174.1478 398.2294,-181.0008"/>
</g>
<!-- Node16&#45;&gt;Node4 -->
<g id="edge17" class="edge">
<title>Node16&#45;&gt;Node4</title>
<path fill="none" stroke="#191970" d="M520.6348,-264.2903C530.5077,-267.9696 540.0384,-272.8985 548,-279.5 557.2395,-287.1611 630.0294,-441.0138 655.9078,-496.0956"/>
<polygon fill="#191970" stroke="#191970" points="652.8805,-497.8833 660.2972,-505.4492 659.2174,-494.9095 652.8805,-497.8833"/>
</g>
<!-- Node17 -->
<g id="node17" class="node">
<title>Node17</title>
<g id="a_node17"><a xlink:href="../../da/d29/classFun4AllServer.html#a3e55156f91b2c94bb6c4ef33ffce587a" target="_top" xlink:title="Fun4AllServer::instance">
<polygon fill="none" stroke="#000000" points="597,-315.5 597,-335.5 733,-335.5 733,-315.5 597,-315.5"/>
<text text-anchor="middle" x="665" y="-322.5" font-family="FreeSans" font-size="10.00" fill="#000000">Fun4AllServer::instance</text>
</a>
</g>
</g>
<!-- Node16&#45;&gt;Node17 -->
<g id="edge18" class="edge">
<title>Node16&#45;&gt;Node17</title>
<path fill="none" stroke="#191970" d="M520.8303,-268.5741C530.1601,-271.6648 539.4748,-275.2894 548,-279.5 565.9321,-288.3567 565.8791,-298.0364 584,-306.5 588.7052,-308.6976 593.6865,-310.6527 598.7734,-312.3901"/>
<polygon fill="#191970" stroke="#191970" points="598.0527,-315.8316 608.6413,-315.4693 600.1379,-309.1493 598.0527,-315.8316"/>
</g>
<!-- Node18 -->
<g id="node18" class="node">
<title>Node18</title>
<g id="a_node18"><a xlink:href="../../da/d29/classFun4AllServer.html#abcaf6825367e5db292ff795237bdcf62" target="_top" xlink:title="Fun4AllServer::topNode">
<polygon fill="none" stroke="#000000" points="597,-276.5 597,-296.5 733,-296.5 733,-276.5 597,-276.5"/>
<text text-anchor="middle" x="665" y="-283.5" font-family="FreeSans" font-size="10.00" fill="#000000">Fun4AllServer::topNode</text>
</a>
</g>
</g>
<!-- Node16&#45;&gt;Node18 -->
<g id="edge19" class="edge">
<title>Node16&#45;&gt;Node18</title>
<path fill="none" stroke="#191970" d="M520.6387,-263.7605C543.03,-267.2875 568.2531,-271.2606 591.2778,-274.8874"/>
<polygon fill="#191970" stroke="#191970" points="590.9159,-278.3735 601.3388,-276.4722 592.0052,-271.4588 590.9159,-278.3735"/>
</g>
<!-- Node20 -->
<g id="node20" class="node">
<title>Node20</title>
<g id="a_node20"><a xlink:href="../../d0/d75/namespacetesting.html#a4df3849391696aa93ac3a7703a717c2a" target="_top" xlink:title="testing::Field">
<polygon fill="none" stroke="#000000" points="834.5,-396.5 834.5,-416.5 915.5,-416.5 915.5,-396.5 834.5,-396.5"/>
<text text-anchor="middle" x="875" y="-403.5" font-family="FreeSans" font-size="10.00" fill="#000000">testing::Field</text>
</a>
</g>
</g>
<!-- Node19&#45;&gt;Node20 -->
<g id="edge21" class="edge">
<title>Node19&#45;&gt;Node20</title>
<path fill="none" stroke="#191970" d="M512.4579,-218.5214C594.5659,-233.1889 737.3648,-259.6175 746,-267.5 787.1245,-305.0395 740.8971,-349.9367 782,-387.5 793.3664,-397.8875 808.8248,-403.2235 823.8739,-405.8117"/>
<polygon fill="#191970" stroke="#191970" points="823.7953,-409.3324 834.1718,-407.1928 824.7258,-402.3945 823.7953,-409.3324"/>
</g>
<!-- Node22 -->
<g id="node22" class="node">
<title>Node22</title>
<g id="a_node22"><a xlink:href="../../d1/d35/classPHGenFit_1_1Fitter.html#ab245e2833a4d6880cc1c836bc46389b2" target="_top" xlink:title="Default constructor.">
<polygon fill="none" stroke="#000000" points="601,-198.5 601,-218.5 729,-218.5 729,-198.5 601,-198.5"/>
<text text-anchor="middle" x="665" y="-205.5" font-family="FreeSans" font-size="10.00" fill="#000000">PHGenFit::Fitter::Fitter</text>
</a>
</g>
</g>
<!-- Node19&#45;&gt;Node22 -->
<g id="edge23" class="edge">
<title>Node19&#45;&gt;Node22</title>
<path fill="none" stroke="#191970" d="M536.1985,-208.5C554.1208,-208.5 573.0361,-208.5 590.6885,-208.5"/>
<polygon fill="#191970" stroke="#191970" points="590.919,-212.0001 600.9189,-208.5 590.9189,-205.0001 590.919,-212.0001"/>
</g>
<!-- Node21 -->
<g id="node21" class="node">
<title>Node21</title>
<g id="a_node21"><a xlink:href="../../d0/d75/namespacetesting.html#a667ca94f190ec2e17ee2fbfdb7d3da04" target="_top" xlink:title="testing::MakePolymorphic\lMatcher">
<polygon fill="none" stroke="#000000" points="1004,-393.5 1004,-425.5 1151,-425.5 1151,-393.5 1004,-393.5"/>
<text text-anchor="start" x="1012" y="-412.5" font-family="FreeSans" font-size="10.00" fill="#000000">testing::MakePolymorphic</text>
<text text-anchor="middle" x="1077.5" y="-400.5" font-family="FreeSans" font-size="10.00" fill="#000000">Matcher</text>
</a>
</g>
</g>
<!-- Node20&#45;&gt;Node21 -->
<g id="edge22" class="edge">
<title>Node20&#45;&gt;Node21</title>
<path fill="none" stroke="#191970" d="M915.9789,-407.1071C938.3188,-407.4381 966.8136,-407.8602 993.6313,-408.2575"/>
<polygon fill="#191970" stroke="#191970" points="993.7603,-411.7597 1003.8111,-408.4083 993.864,-404.7605 993.7603,-411.7597"/>
</g>
<!-- Node22&#45;&gt;Node20 -->
<g id="edge24" class="edge">
<title>Node22&#45;&gt;Node20</title>
<path fill="none" stroke="#191970" d="M724.1465,-218.6676C732.3286,-222.2383 739.9775,-227.0422 746,-233.5 793.9398,-284.9045 731.6039,-338.5012 782,-387.5 793.243,-398.4313 808.9771,-403.8613 824.3102,-406.3694"/>
<polygon fill="#191970" stroke="#191970" points="823.9183,-409.8476 834.2771,-407.6241 824.7926,-402.9024 823.9183,-409.8476"/>
</g>
<!-- Node23 -->
<g id="node23" class="node">
<title>Node23</title>
<g id="a_node23"><a xlink:href="../../de/d8e/classgenfit_1_1FieldManager.html#aaf0b56fea4f0deb428de8749febf792d" target="_top" xlink:title="Get singleton instance.">
<polygon fill="none" stroke="#000000" points="814.5,-345.5 814.5,-377.5 935.5,-377.5 935.5,-345.5 814.5,-345.5"/>
<text text-anchor="start" x="822.5" y="-364.5" font-family="FreeSans" font-size="10.00" fill="#000000">genfit::FieldManager</text>
<text text-anchor="middle" x="875" y="-352.5" font-family="FreeSans" font-size="10.00" fill="#000000">::getInstance</text>
</a>
</g>
</g>
<!-- Node22&#45;&gt;Node23 -->
<g id="edge25" class="edge">
<title>Node22&#45;&gt;Node23</title>
<path fill="none" stroke="#191970" d="M721.8994,-218.5638C730.7647,-222.1331 739.2182,-226.9637 746,-233.5 780.9164,-267.1519 746.4711,-303.4954 782,-336.5 788.4969,-342.5353 796.2937,-347.1429 804.573,-350.6553"/>
<polygon fill="#191970" stroke="#191970" points="803.4887,-353.986 814.0819,-354.1733 805.9176,-347.4209 803.4887,-353.986"/>
</g>
<!-- Node25 -->
<g id="node25" class="node">
<title>Node25</title>
<g id="a_node25"><a xlink:href="../../de/d8e/classgenfit_1_1FieldManager.html#a0360198b189d2d5acaebfca7a468437e" target="_top" xlink:title="set the magnetic field here. Magnetic field classes must be derived from AbsBField.">
<polygon fill="none" stroke="#000000" points="814.5,-294.5 814.5,-326.5 935.5,-326.5 935.5,-294.5 814.5,-294.5"/>
<text text-anchor="start" x="822.5" y="-313.5" font-family="FreeSans" font-size="10.00" fill="#000000">genfit::FieldManager</text>
<text text-anchor="middle" x="875" y="-301.5" font-family="FreeSans" font-size="10.00" fill="#000000">::init</text>
</a>
</g>
</g>
<!-- Node22&#45;&gt;Node25 -->
<g id="edge27" class="edge">
<title>Node22&#45;&gt;Node25</title>
<path fill="none" stroke="#191970" d="M715.8639,-218.5369C726.4572,-222.1297 737.0962,-226.9766 746,-233.5 768.6747,-250.1127 759.0239,-269.3068 782,-285.5 788.8757,-290.3459 796.6409,-294.2526 804.6805,-297.4023"/>
<polygon fill="#191970" stroke="#191970" points="803.6126,-300.7369 814.2074,-300.7627 805.9412,-294.1355 803.6126,-300.7369"/>
</g>
<!-- Node26 -->
<g id="node26" class="node">
<title>Node26</title>
<g id="a_node26"><a xlink:href="../../d1/d34/classgenfit_1_1MaterialEffects.html#a15a93d367165ade368e6caec713d0934" target="_top" xlink:title="genfit::MaterialEffects\l::getInstance">
<polygon fill="none" stroke="#000000" points="811,-243.5 811,-275.5 939,-275.5 939,-243.5 811,-243.5"/>
<text text-anchor="start" x="819" y="-262.5" font-family="FreeSans" font-size="10.00" fill="#000000">genfit::MaterialEffects</text>
<text text-anchor="middle" x="875" y="-250.5" font-family="FreeSans" font-size="10.00" fill="#000000">::getInstance</text>
</a>
</g>
</g>
<!-- Node22&#45;&gt;Node26 -->
<g id="edge28" class="edge">
<title>Node22&#45;&gt;Node26</title>
<path fill="none" stroke="#191970" d="M706.2387,-218.5151C733.193,-225.0611 769.1693,-233.7983 800.9792,-241.5235"/>
<polygon fill="#191970" stroke="#191970" points="800.1593,-244.9261 810.7029,-243.885 801.8113,-238.1238 800.1593,-244.9261"/>
</g>
<!-- Node28 -->
<g id="node28" class="node">
<title>Node28</title>
<g id="a_node28"><a xlink:href="../../d1/d34/classgenfit_1_1MaterialEffects.html#a9c604002cb66d43e99da8802e3b8918e" target="_top" xlink:title="set the material interface here. Material interface classes must be derived from AbsMaterialInterface...">
<polygon fill="none" stroke="#000000" points="811,-192.5 811,-224.5 939,-224.5 939,-192.5 811,-192.5"/>
<text text-anchor="start" x="819" y="-211.5" font-family="FreeSans" font-size="10.00" fill="#000000">genfit::MaterialEffects</text>
<text text-anchor="middle" x="875" y="-199.5" font-family="FreeSans" font-size="10.00" fill="#000000">::init</text>
</a>
</g>
</g>
<!-- Node22&#45;&gt;Node28 -->
<g id="edge30" class="edge">
<title>Node22&#45;&gt;Node28</title>
<path fill="none" stroke="#191970" d="M729.148,-208.5C751.7382,-208.5 777.3173,-208.5 800.676,-208.5"/>
<polygon fill="#191970" stroke="#191970" points="800.8833,-212.0001 810.8833,-208.5 800.8832,-205.0001 800.8833,-212.0001"/>
</g>
<!-- Node30 -->
<g id="node30" class="node">
<title>Node30</title>
<g id="a_node30"><a xlink:href="../../d4/d1a/classgenfit_1_1EventDisplay.html#acc398c4fb9fce23fbc106453d5a55718" target="_top" xlink:title="genfit::EventDisplay\l::getInstance">
<polygon fill="none" stroke="#000000" points="815.5,-141.5 815.5,-173.5 934.5,-173.5 934.5,-141.5 815.5,-141.5"/>
<text text-anchor="start" x="823.5" y="-160.5" font-family="FreeSans" font-size="10.00" fill="#000000">genfit::EventDisplay</text>
<text text-anchor="middle" x="875" y="-148.5" font-family="FreeSans" font-size="10.00" fill="#000000">::getInstance</text>
</a>
</g>
</g>
<!-- Node22&#45;&gt;Node30 -->
<g id="edge32" class="edge">
<title>Node22&#45;&gt;Node30</title>
<path fill="none" stroke="#191970" d="M706.2387,-198.4849C734.3837,-191.6497 772.3655,-182.4255 805.1694,-174.4589"/>
<polygon fill="#191970" stroke="#191970" points="806.2756,-177.792 815.1671,-172.0308 804.6235,-170.9898 806.2756,-177.792"/>
</g>
<!-- Node32 -->
<g id="node32" class="node">
<title>Node32</title>
<g id="a_node32"><a xlink:href="../../d8/db3/classgenfit_1_1Exception.html#adc12ce3fb68f9869627e0551a5a7822c" target="_top" xlink:title="&quot;std::cerr &lt;&lt; e.what();&quot; will not write anything.">
<polygon fill="none" stroke="#000000" points="821,-90.5 821,-122.5 929,-122.5 929,-90.5 821,-90.5"/>
<text text-anchor="start" x="829" y="-109.5" font-family="FreeSans" font-size="10.00" fill="#000000">genfit::Exception::</text>
<text text-anchor="middle" x="875" y="-97.5" font-family="FreeSans" font-size="10.00" fill="#000000">quiet</text>
</a>
</g>
</g>
<!-- Node22&#45;&gt;Node32 -->
<g id="edge34" class="edge">
<title>Node22&#45;&gt;Node32</title>
<path fill="none" stroke="#191970" d="M711.5075,-198.3819C723.4637,-194.3859 735.8151,-188.9175 746,-181.5 767.8444,-165.5911 759.7713,-147.8674 782,-132.5 790.6739,-126.5035 800.6996,-121.884 810.8892,-118.327"/>
<polygon fill="#191970" stroke="#191970" points="812.1921,-121.5859 820.6702,-115.2319 810.0802,-114.912 812.1921,-121.5859"/>
</g>
<!-- Node24 -->
<g id="node24" class="node">
<title>Node24</title>
<g id="a_node24"><a xlink:href="../../de/d8e/classgenfit_1_1FieldManager.html#a01194f10c4efe8d19286492ba01e104e" target="_top" xlink:title="genfit::FieldManager\l::FieldManager">
<polygon fill="none" stroke="#000000" points="1017,-342.5 1017,-374.5 1138,-374.5 1138,-342.5 1017,-342.5"/>
<text text-anchor="start" x="1025" y="-361.5" font-family="FreeSans" font-size="10.00" fill="#000000">genfit::FieldManager</text>
<text text-anchor="middle" x="1077.5" y="-349.5" font-family="FreeSans" font-size="10.00" fill="#000000">::FieldManager</text>
</a>
</g>
</g>
<!-- Node23&#45;&gt;Node24 -->
<g id="edge26" class="edge">
<title>Node23&#45;&gt;Node24</title>
<path fill="none" stroke="#191970" d="M935.7567,-360.5999C958.0827,-360.2691 983.5536,-359.8918 1006.6874,-359.5491"/>
<polygon fill="#191970" stroke="#191970" points="1006.8392,-363.0473 1016.7862,-359.3995 1006.7354,-356.0481 1006.8392,-363.0473"/>
</g>
<!-- Node27 -->
<g id="node27" class="node">
<title>Node27</title>
<g id="a_node27"><a xlink:href="../../d1/d34/classgenfit_1_1MaterialEffects.html#a0cab227e2f45bd20ba63cf1b2ad260be" target="_top" xlink:title="genfit::MaterialEffects\l::MaterialEffects">
<polygon fill="none" stroke="#000000" points="1013.5,-243.5 1013.5,-275.5 1141.5,-275.5 1141.5,-243.5 1013.5,-243.5"/>
<text text-anchor="start" x="1021.5" y="-262.5" font-family="FreeSans" font-size="10.00" fill="#000000">genfit::MaterialEffects</text>
<text text-anchor="middle" x="1077.5" y="-250.5" font-family="FreeSans" font-size="10.00" fill="#000000">::MaterialEffects</text>
</a>
</g>
</g>
<!-- Node26&#45;&gt;Node27 -->
<g id="edge29" class="edge">
<title>Node26&#45;&gt;Node27</title>
<path fill="none" stroke="#191970" d="M939.0723,-259.5C959.4856,-259.5 982.2401,-259.5 1003.308,-259.5"/>
<polygon fill="#191970" stroke="#191970" points="1003.4973,-263.0001 1013.4972,-259.5 1003.4972,-256.0001 1003.4973,-263.0001"/>
</g>
<!-- Node29 -->
<g id="node29" class="node">
<title>Node29</title>
<g id="a_node29"><a xlink:href="../../d7/dc7/namespacecheck__license.html#a5d6111870e0d2f540b9458f3674194ff" target="_top" xlink:title="check_license.err">
<polygon fill="none" stroke="#000000" points="1025.5,-198.5 1025.5,-218.5 1129.5,-218.5 1129.5,-198.5 1025.5,-198.5"/>
<text text-anchor="middle" x="1077.5" y="-205.5" font-family="FreeSans" font-size="10.00" fill="#000000">check_license.err</text>
</a>
</g>
</g>
<!-- Node28&#45;&gt;Node29 -->
<g id="edge31" class="edge">
<title>Node28&#45;&gt;Node29</title>
<path fill="none" stroke="#191970" d="M939.0723,-208.5C963.4053,-208.5 991.065,-208.5 1015.2291,-208.5"/>
<polygon fill="#191970" stroke="#191970" points="1015.3513,-212.0001 1025.3512,-208.5 1015.3512,-205.0001 1015.3513,-212.0001"/>
</g>
<!-- Node31 -->
<g id="node31" class="node">
<title>Node31</title>
<g id="a_node31"><a xlink:href="../../d4/d1a/classgenfit_1_1EventDisplay.html#a3aa96da8f0486f3420b620cebb6b9f00" target="_top" xlink:title="genfit::EventDisplay\l::EventDisplay">
<polygon fill="none" stroke="#000000" points="1018,-141.5 1018,-173.5 1137,-173.5 1137,-141.5 1018,-141.5"/>
<text text-anchor="start" x="1026" y="-160.5" font-family="FreeSans" font-size="10.00" fill="#000000">genfit::EventDisplay</text>
<text text-anchor="middle" x="1077.5" y="-148.5" font-family="FreeSans" font-size="10.00" fill="#000000">::EventDisplay</text>
</a>
</g>
</g>
<!-- Node30&#45;&gt;Node31 -->
<g id="edge33" class="edge">
<title>Node30&#45;&gt;Node31</title>
<path fill="none" stroke="#191970" d="M934.6614,-157.5C957.6299,-157.5 984.0542,-157.5 1007.8807,-157.5"/>
<polygon fill="#191970" stroke="#191970" points="1007.9154,-161.0001 1017.9154,-157.5 1007.9154,-154.0001 1007.9154,-161.0001"/>
</g>
<!-- Node34 -->
<g id="node34" class="node">
<title>Node34</title>
<g id="a_node34"><a xlink:href="../../d7/d6d/classPHGeomTGeo.html#abdec55181f592bbdd6e63882d83b4c5f" target="_top" xlink:title="isValid returns non zero if object contains vailid data">
<polygon fill="none" stroke="#000000" points="602,-151.5 602,-171.5 728,-171.5 728,-151.5 602,-151.5"/>
<text text-anchor="middle" x="665" y="-158.5" font-family="FreeSans" font-size="10.00" fill="#000000">PHGeomTGeo::isValid</text>
</a>
</g>
</g>
<!-- Node33&#45;&gt;Node34 -->
<g id="edge36" class="edge">
<title>Node33&#45;&gt;Node34</title>
<path fill="none" stroke="#191970" d="M548.3046,-163.7281C562.8365,-163.4506 577.679,-163.1672 591.6938,-162.8996"/>
<polygon fill="#191970" stroke="#191970" points="591.8049,-166.3983 601.7363,-162.7079 591.6712,-159.3995 591.8049,-166.3983"/>
</g>
<!-- Node36 -->
<g id="node36" class="node">
<title>Node36</title>
<g id="a_node36"><a xlink:href="../../d7/d6d/classPHGeomTGeo.html#a3e111f6229f7ce6392b14a98fdf5bea9" target="_top" xlink:title="PHGeomTGeo::GetGeometry">
<polygon fill="none" stroke="#000000" points="584,-105.5 584,-125.5 746,-125.5 746,-105.5 584,-105.5"/>
<text text-anchor="middle" x="665" y="-112.5" font-family="FreeSans" font-size="10.00" fill="#000000">PHGeomTGeo::GetGeometry</text>
</a>
</g>
</g>
<!-- Node33&#45;&gt;Node36 -->
<g id="edge38" class="edge">
<title>Node33&#45;&gt;Node36</title>
<path fill="none" stroke="#191970" d="M506.9866,-155.4612C520.3732,-152.7043 534.7535,-149.6127 548,-146.5 571.6637,-140.9394 597.8316,-134.0743 619.4087,-128.2191"/>
<polygon fill="#191970" stroke="#191970" points="620.5614,-131.5325 629.2866,-125.5223 618.7178,-124.7796 620.5614,-131.5325"/>
</g>
<!-- Node35 -->
<g id="node35" class="node">
<title>Node35</title>
<g id="a_node35"><a xlink:href="../../d7/d6d/classPHGeomTGeo.html#af37739b87530fe2bbd5d8d03098c1821" target="_top" xlink:title="PHGeomTGeo::ConsistencyCheck">
<polygon fill="none" stroke="#000000" points="782,-51.5 782,-71.5 968,-71.5 968,-51.5 782,-51.5"/>
<text text-anchor="middle" x="875" y="-58.5" font-family="FreeSans" font-size="10.00" fill="#000000">PHGeomTGeo::ConsistencyCheck</text>
</a>
</g>
</g>
<!-- Node34&#45;&gt;Node35 -->
<g id="edge37" class="edge">
<title>Node34&#45;&gt;Node35</title>
<path fill="none" stroke="#191970" d="M714.2657,-151.4823C725.41,-147.6977 736.6883,-142.5304 746,-135.5 769.0201,-118.1197 758.15,-97.7227 782,-81.5 785.2858,-79.265 788.7756,-77.2734 792.402,-75.4993"/>
<polygon fill="#191970" stroke="#191970" points="793.8526,-78.6855 801.659,-71.5224 791.0895,-72.2539 793.8526,-78.6855"/>
</g>
<!-- Node36&#45;&gt;Node35 -->
<g id="edge39" class="edge">
<title>Node36&#45;&gt;Node35</title>
<path fill="none" stroke="#191970" d="M698.6795,-105.4243C727.3299,-96.9067 766.2592,-85.4743 782,-81.5 792.6658,-78.807 804.0774,-76.1614 815.1246,-73.7209"/>
<polygon fill="#191970" stroke="#191970" points="816.109,-77.0886 825.1357,-71.5417 814.6201,-70.2488 816.109,-77.0886"/>
</g>
<!-- Node38 -->
<g id="node38" class="node">
<title>Node38</title>
<g id="a_node38"><a xlink:href="../../d2/d5c/classPHTrackPropagating.html#a368a3ab4c9a909ec84b84404e293c3d3" target="_top" xlink:title="fetch node pointers">
<polygon fill="none" stroke="#000000" points="397,-104.5 397,-136.5 514,-136.5 514,-104.5 397,-104.5"/>
<text text-anchor="start" x="405" y="-123.5" font-family="FreeSans" font-size="10.00" fill="#000000">PHTrackPropagating</text>
<text text-anchor="middle" x="455.5" y="-111.5" font-family="FreeSans" font-size="10.00" fill="#000000">::GetNodes</text>
</a>
</g>
</g>
<!-- Node37&#45;&gt;Node38 -->
<g id="edge41" class="edge">
<title>Node37&#45;&gt;Node38</title>
<path fill="none" stroke="#191970" d="M307.6223,-133.3901C332.2545,-131.243 361.0829,-128.7301 386.7115,-126.4961"/>
<polygon fill="#191970" stroke="#191970" points="387.0729,-129.978 396.7312,-125.6227 386.465,-123.0044 387.0729,-129.978"/>
</g>
<!-- Node40 -->
<g id="node40" class="node">
<title>Node40</title>
<g id="a_node40"><a xlink:href="../../d0/d5e/classPHTimer.html#aa92e3fe4a0a1799f39743eda9ef9d497" target="_top" xlink:title="gets time from cpu clock counts">
<polygon fill="none" stroke="#000000" points="608.5,-49.5 608.5,-81.5 721.5,-81.5 721.5,-49.5 608.5,-49.5"/>
<text text-anchor="start" x="616.5" y="-68.5" font-family="FreeSans" font-size="10.00" fill="#000000">PHTimer::get_clock</text>
<text text-anchor="middle" x="665" y="-56.5" font-family="FreeSans" font-size="10.00" fill="#000000">_counts</text>
</a>
</g>
</g>
<!-- Node39&#45;&gt;Node40 -->
<g id="edge43" class="edge">
<title>Node39&#45;&gt;Node40</title>
<path fill="none" stroke="#191970" d="M292.733,-66.3949C365.5994,-66.2197 512.3089,-65.867 598.1913,-65.6606"/>
<polygon fill="#191970" stroke="#191970" points="598.3626,-69.1603 608.3542,-65.6362 598.3457,-62.1603 598.3626,-69.1603"/>
</g>
<!-- Node41 -->
<g id="node41" class="node">
<title>Node41</title>
<g id="a_node41"><a xlink:href="../../d0/d5e/classPHTimer.html#a976738876ad978116fdc4549a3765685" target="_top" xlink:title="retrieve elapsed value since last restart (in ms)">
<polygon fill="none" stroke="#000000" points="403,-17.5 403,-37.5 508,-37.5 508,-17.5 403,-17.5"/>
<text text-anchor="middle" x="455.5" y="-24.5" font-family="FreeSans" font-size="10.00" fill="#000000">PHTimer::elapsed</text>
</a>
</g>
</g>
<!-- Node39&#45;&gt;Node41 -->
<g id="edge44" class="edge">
<title>Node39&#45;&gt;Node41</title>
<path fill="none" stroke="#191970" d="M292.541,-58.2768C321.7093,-52.768 360.5639,-45.4298 393.017,-39.3007"/>
<polygon fill="#191970" stroke="#191970" points="393.6887,-42.7358 402.8654,-37.4407 392.3895,-35.8574 393.6887,-42.7358"/>
</g>
<!-- Node41&#45;&gt;Node40 -->
<g id="edge47" class="edge">
<title>Node41&#45;&gt;Node40</title>
<path fill="none" stroke="#191970" d="M508.0953,-37.04C535.418,-41.9959 569.0966,-48.1046 598.238,-53.3904"/>
<polygon fill="#191970" stroke="#191970" points="597.8745,-56.8815 608.3386,-55.2225 599.1239,-49.9939 597.8745,-56.8815"/>
</g>
<!-- Node42 -->
<g id="node42" class="node">
<title>Node42</title>
<g id="a_node42"><a xlink:href="../../d0/d5e/classPHTimer.html#aa75ff2c27aba40e7ef0a934f9a3355c2" target="_top" xlink:title="returns difference between to time">
<polygon fill="none" stroke="#000000" points="596,-8.5 596,-28.5 734,-28.5 734,-8.5 596,-8.5"/>
<text text-anchor="middle" x="665" y="-15.5" font-family="FreeSans" font-size="10.00" fill="#000000">PHTimer::get_difference</text>
</a>
</g>
</g>
<!-- Node41&#45;&gt;Node42 -->
<g id="edge45" class="edge">
<title>Node41&#45;&gt;Node42</title>
<path fill="none" stroke="#191970" d="M508.0953,-25.2405C531.5289,-24.2338 559.6379,-23.0263 585.5499,-21.9131"/>
<polygon fill="#191970" stroke="#191970" points="585.8961,-25.4016 595.7367,-21.4755 585.5956,-18.408 585.8961,-25.4016"/>
</g>
<!-- Node43 -->
<g id="node43" class="node">
<title>Node43</title>
<g id="a_node43"><a xlink:href="../../d2/db1/classPHTimer_1_1Frequency.html#a023a2d706df9a8bd303810a9ed017f61" target="_top" xlink:title="period accessor">
<polygon fill="none" stroke="#000000" points="816,-.5 816,-32.5 934,-32.5 934,-.5 816,-.5"/>
<text text-anchor="start" x="824" y="-19.5" font-family="FreeSans" font-size="10.00" fill="#000000">PHTimer::Frequency</text>
<text text-anchor="middle" x="875" y="-7.5" font-family="FreeSans" font-size="10.00" fill="#000000">::period</text>
</a>
</g>
</g>
<!-- Node42&#45;&gt;Node43 -->
<g id="edge46" class="edge">
<title>Node42&#45;&gt;Node43</title>
<path fill="none" stroke="#191970" d="M734.0527,-17.8424C757.0665,-17.6232 782.7004,-17.379 805.7306,-17.1597"/>
<polygon fill="#191970" stroke="#191970" points="805.8006,-20.6593 815.7668,-17.0641 805.7339,-13.6596 805.8006,-20.6593"/>
</g>
</g>
</svg>
