<?xml version="1.0" encoding="UTF-8" standalone="no"?>
<!DOCTYPE svg PUBLIC "-//W3C//DTD SVG 1.1//EN"
 "http://www.w3.org/Graphics/SVG/1.1/DTD/svg11.dtd">
<!-- Generated by graphviz version 2.40.1 (20161225.0304)
 -->
<!-- Title: acts/blob/sPHENIX/Examples/Io/Obj/include/ActsExamples/Plugins/Obj/ObjWriterOptions.hpp Pages: 1 -->
<svg width="386pt" height="134pt"
 viewBox="0.00 0.00 385.50 134.00" xmlns="http://www.w3.org/2000/svg" xmlns:xlink="http://www.w3.org/1999/xlink">
<g id="graph0" class="graph" transform="scale(1 1) rotate(0) translate(4 130)">
<title>acts/blob/sPHENIX/Examples/Io/Obj/include/ActsExamples/Plugins/Obj/ObjWriterOptions.hpp</title>
<!-- Node1 -->
<g id="node1" class="node">
<title>Node1</title>
<polygon fill="#bfbfbf" stroke="#000000" points="106,-81.5 106,-125.5 297,-125.5 297,-81.5 106,-81.5"/>
<text text-anchor="start" x="114" y="-112.5" font-family="FreeSans" font-size="10.00" fill="#000000">acts/blob/sPHENIX/Examples</text>
<text text-anchor="start" x="114" y="-100.5" font-family="FreeSans" font-size="10.00" fill="#000000">/Io/Obj/include/ActsExamples</text>
<text text-anchor="middle" x="201.5" y="-88.5" font-family="FreeSans" font-size="10.00" fill="#000000">/Plugins/Obj/ObjWriterOptions.hpp</text>
</g>
<!-- Node2 -->
<g id="node2" class="node">
<title>Node2</title>
<g id="a_node2"><a xlink:href="../../d0/d8e/GeometryExampleBase_8cpp.html" target="_top" xlink:title="acts/blob/sPHENIX/Examples\l/Run/Common/src/GeometryExample\lBase.cpp">
<polygon fill="none" stroke="#000000" points="0,-.5 0,-44.5 205,-44.5 205,-.5 0,-.5"/>
<text text-anchor="start" x="8" y="-31.5" font-family="FreeSans" font-size="10.00" fill="#000000">acts/blob/sPHENIX/Examples</text>
<text text-anchor="start" x="8" y="-19.5" font-family="FreeSans" font-size="10.00" fill="#000000">/Run/Common/src/GeometryExample</text>
<text text-anchor="middle" x="102.5" y="-7.5" font-family="FreeSans" font-size="10.00" fill="#000000">Base.cpp</text>
</a>
</g>
</g>
<!-- Node1&#45;&gt;Node2 -->
<g id="edge1" class="edge">
<title>Node1&#45;&gt;Node2</title>
<path fill="none" stroke="#191970" d="M166.6597,-74.9943C154.4691,-65.0201 140.9746,-53.9792 129.5195,-44.6068"/>
<polygon fill="#191970" stroke="#191970" points="164.4919,-77.7428 174.4478,-81.3664 168.9246,-72.3251 164.4919,-77.7428"/>
</g>
<!-- Node3 -->
<g id="node3" class="node">
<title>Node3</title>
<g id="a_node3"><a xlink:href="../../d4/df1/MakeActsGeometry_8cc.html" target="_top" xlink:title="Refit SvtxTracks with PHActs.">
<polygon fill="none" stroke="#000000" points="223.5,-.5 223.5,-44.5 377.5,-44.5 377.5,-.5 223.5,-.5"/>
<text text-anchor="start" x="231.5" y="-31.5" font-family="FreeSans" font-size="10.00" fill="#000000">coresoftware/blob/master</text>
<text text-anchor="start" x="231.5" y="-19.5" font-family="FreeSans" font-size="10.00" fill="#000000">/offline/packages/trackreco</text>
<text text-anchor="middle" x="300.5" y="-7.5" font-family="FreeSans" font-size="10.00" fill="#000000">/MakeActsGeometry.cc</text>
</a>
</g>
</g>
<!-- Node1&#45;&gt;Node3 -->
<g id="edge2" class="edge">
<title>Node1&#45;&gt;Node3</title>
<path fill="none" stroke="#191970" d="M236.3403,-74.9943C248.5309,-65.0201 262.0254,-53.9792 273.4805,-44.6068"/>
<polygon fill="#191970" stroke="#191970" points="234.0754,-72.3251 228.5522,-81.3664 238.5081,-77.7428 234.0754,-72.3251"/>
</g>
</g>
</svg>
