<?xml version="1.0" encoding="UTF-8" standalone="no"?>
<!DOCTYPE svg PUBLIC "-//W3C//DTD SVG 1.1//EN"
 "http://www.w3.org/Graphics/SVG/1.1/DTD/svg11.dtd">
<!-- Generated by graphviz version 2.40.1 (20161225.0304)
 -->
<!-- Title: BOOST_AUTO_TEST_CASE Pages: 1 -->
<svg width="736pt" height="201pt"
 viewBox="0.00 0.00 736.00 201.00" xmlns="http://www.w3.org/2000/svg" xmlns:xlink="http://www.w3.org/1999/xlink">
<g id="graph0" class="graph" transform="scale(1 1) rotate(0) translate(4 197)">
<title>BOOST_AUTO_TEST_CASE</title>
<!-- Node1 -->
<g id="node1" class="node">
<title>Node1</title>
<polygon fill="#bfbfbf" stroke="#000000" points="0,-51.5 0,-71.5 147,-71.5 147,-51.5 0,-51.5"/>
<text text-anchor="middle" x="73.5" y="-58.5" font-family="FreeSans" font-size="10.00" fill="#000000">BOOST_AUTO_TEST_CASE</text>
</g>
<!-- Node2 -->
<g id="node2" class="node">
<title>Node2</title>
<g id="a_node2"><a xlink:href="../../d6/d8a/ATLSeedingIntegrationTest_8cpp.html#a52da5cb6415fc46837fa499911a62b5b" target="_top" xlink:title="runSeeding">
<polygon fill="none" stroke="#000000" points="228,-90.5 228,-110.5 302,-110.5 302,-90.5 228,-90.5"/>
<text text-anchor="middle" x="265" y="-97.5" font-family="FreeSans" font-size="10.00" fill="#000000">runSeeding</text>
</a>
</g>
</g>
<!-- Node1&#45;&gt;Node2 -->
<g id="edge1" class="edge">
<title>Node1&#45;&gt;Node2</title>
<path fill="none" stroke="#191970" d="M122.816,-71.5435C152.1592,-77.5194 189.1791,-85.0587 218.0879,-90.9461"/>
<polygon fill="#191970" stroke="#191970" points="217.4519,-94.3883 227.9492,-92.9544 218.8488,-87.5291 217.4519,-94.3883"/>
</g>
<!-- Node8 -->
<g id="node8" class="node">
<title>Node8</title>
<g id="a_node8"><a xlink:href="../../dd/de4/structSpacePoint.html#aba1a3674a7ee01b9739fffd2685e7797" target="_top" xlink:title="SpacePoint::setClusterList">
<polygon fill="none" stroke="#000000" points="191,-51.5 191,-71.5 339,-71.5 339,-51.5 191,-51.5"/>
<text text-anchor="middle" x="265" y="-58.5" font-family="FreeSans" font-size="10.00" fill="#000000">SpacePoint::setClusterList</text>
</a>
</g>
</g>
<!-- Node1&#45;&gt;Node8 -->
<g id="edge7" class="edge">
<title>Node1&#45;&gt;Node8</title>
<path fill="none" stroke="#191970" d="M147.265,-61.5C158.236,-61.5 169.6141,-61.5 180.7799,-61.5"/>
<polygon fill="#191970" stroke="#191970" points="180.9569,-65.0001 190.9568,-61.5 180.9568,-58.0001 180.9569,-65.0001"/>
</g>
<!-- Node9 -->
<g id="node9" class="node">
<title>Node9</title>
<g id="a_node9"><a xlink:href="../../d2/da5/namespaceActs_1_1Experimental_1_1detail_1_1BlueprintHelper.html#a308a6456db2655fc6a1a916696da20c8" target="_top" xlink:title="Sort the nodes in the blueprint container node.">
<polygon fill="none" stroke="#000000" points="183,-.5 183,-32.5 347,-32.5 347,-.5 183,-.5"/>
<text text-anchor="start" x="191" y="-19.5" font-family="FreeSans" font-size="10.00" fill="#000000">Acts::Experimental</text>
<text text-anchor="middle" x="265" y="-7.5" font-family="FreeSans" font-size="10.00" fill="#000000">::detail::BlueprintHelper::sort</text>
</a>
</g>
</g>
<!-- Node1&#45;&gt;Node9 -->
<g id="edge8" class="edge">
<title>Node1&#45;&gt;Node9</title>
<path fill="none" stroke="#191970" d="M116.4763,-51.4011C137.2174,-46.5272 162.7631,-40.5243 186.7843,-34.8797"/>
<polygon fill="#191970" stroke="#191970" points="187.6756,-38.2657 196.6097,-32.5708 186.0742,-31.4513 187.6756,-38.2657"/>
</g>
<!-- Node3 -->
<g id="node3" class="node">
<title>Node3</title>
<g id="a_node3"><a xlink:href="../../d0/d41/classActs_1_1Legacy_1_1AtlasSeedFinder.html#a39b8e2c18741f3e811f461b68a22124b" target="_top" xlink:title="Acts::Legacy::AtlasSeedFinder\l::newEvent">
<polygon fill="none" stroke="#000000" points="383,-160.5 383,-192.5 552,-192.5 552,-160.5 383,-160.5"/>
<text text-anchor="start" x="391" y="-179.5" font-family="FreeSans" font-size="10.00" fill="#000000">Acts::Legacy::AtlasSeedFinder</text>
<text text-anchor="middle" x="467.5" y="-167.5" font-family="FreeSans" font-size="10.00" fill="#000000">::newEvent</text>
</a>
</g>
</g>
<!-- Node2&#45;&gt;Node3 -->
<g id="edge2" class="edge">
<title>Node2&#45;&gt;Node3</title>
<path fill="none" stroke="#191970" d="M286.4337,-110.6924C309.841,-121.6033 348.5906,-139.0251 383,-151.5 388.5283,-153.5043 394.3015,-155.4703 400.1214,-157.3643"/>
<polygon fill="#191970" stroke="#191970" points="399.3346,-160.7866 409.9249,-160.4779 401.4536,-154.115 399.3346,-160.7866"/>
</g>
<!-- Node5 -->
<g id="node5" class="node">
<title>Node5</title>
<g id="a_node5"><a xlink:href="../../d0/d41/classActs_1_1Legacy_1_1AtlasSeedFinder.html#aa9f7f9ea0e0bd8ce7b855e5d737b2502" target="_top" xlink:title="Acts::Legacy::AtlasSeedFinder\l::find3Sp">
<polygon fill="none" stroke="#000000" points="383,-109.5 383,-141.5 552,-141.5 552,-109.5 383,-109.5"/>
<text text-anchor="start" x="391" y="-128.5" font-family="FreeSans" font-size="10.00" fill="#000000">Acts::Legacy::AtlasSeedFinder</text>
<text text-anchor="middle" x="467.5" y="-116.5" font-family="FreeSans" font-size="10.00" fill="#000000">::find3Sp</text>
</a>
</g>
</g>
<!-- Node2&#45;&gt;Node5 -->
<g id="edge4" class="edge">
<title>Node2&#45;&gt;Node5</title>
<path fill="none" stroke="#191970" d="M302.1416,-105.0854C322.0999,-107.5494 347.7038,-110.7103 372.7724,-113.8052"/>
<polygon fill="#191970" stroke="#191970" points="372.3591,-117.2807 382.7127,-115.0324 373.2169,-110.3334 372.3591,-117.2807"/>
</g>
<!-- Node6 -->
<g id="node6" class="node">
<title>Node6</title>
<g id="a_node6"><a xlink:href="../../d0/d41/classActs_1_1Legacy_1_1AtlasSeedFinder.html#ad755f403ab1862a859ffd9d6e90154ce" target="_top" xlink:title="Acts::Legacy::AtlasSeedFinder\l::next">
<polygon fill="none" stroke="#000000" points="383,-58.5 383,-90.5 552,-90.5 552,-58.5 383,-58.5"/>
<text text-anchor="start" x="391" y="-77.5" font-family="FreeSans" font-size="10.00" fill="#000000">Acts::Legacy::AtlasSeedFinder</text>
<text text-anchor="middle" x="467.5" y="-65.5" font-family="FreeSans" font-size="10.00" fill="#000000">::next</text>
</a>
</g>
</g>
<!-- Node2&#45;&gt;Node6 -->
<g id="edge5" class="edge">
<title>Node2&#45;&gt;Node6</title>
<path fill="none" stroke="#191970" d="M302.1416,-95.7312C322.0999,-93.1687 347.7038,-89.8812 372.7724,-86.6626"/>
<polygon fill="#191970" stroke="#191970" points="373.2398,-90.1314 382.7127,-85.3863 372.3483,-83.1884 373.2398,-90.1314"/>
</g>
<!-- Node7 -->
<g id="node7" class="node">
<title>Node7</title>
<g id="a_node7"><a xlink:href="../../d9/d9c/classActs_1_1Legacy_1_1Seed.html#ab56321fb34daac1947c3381d4f8cb956" target="_top" xlink:title="Acts::Legacy::Seed\l::spacePoints">
<polygon fill="none" stroke="#000000" points="411.5,-7.5 411.5,-39.5 523.5,-39.5 523.5,-7.5 411.5,-7.5"/>
<text text-anchor="start" x="419.5" y="-26.5" font-family="FreeSans" font-size="10.00" fill="#000000">Acts::Legacy::Seed</text>
<text text-anchor="middle" x="467.5" y="-14.5" font-family="FreeSans" font-size="10.00" fill="#000000">::spacePoints</text>
</a>
</g>
</g>
<!-- Node2&#45;&gt;Node7 -->
<g id="edge6" class="edge">
<title>Node2&#45;&gt;Node7</title>
<path fill="none" stroke="#191970" d="M302.294,-95.9021C316.8165,-93.0943 333.2402,-88.614 347,-81.5 366.0161,-71.6684 364.3438,-59.9985 383,-49.5 388.8417,-46.2126 395.1494,-43.2902 401.5941,-40.7039"/>
<polygon fill="#191970" stroke="#191970" points="402.9548,-43.9319 411.0961,-37.1518 400.5036,-37.3751 402.9548,-43.9319"/>
</g>
<!-- Node4 -->
<g id="node4" class="node">
<title>Node4</title>
<g id="a_node4"><a xlink:href="../../d0/da1/classActs_1_1Legacy_1_1SPForSeed.html#ac8960b94bf466ef6ca716631f1fac4e5" target="_top" xlink:title="Acts::Legacy::SPForSeed\l::radius">
<polygon fill="none" stroke="#000000" points="588,-160.5 588,-192.5 728,-192.5 728,-160.5 588,-160.5"/>
<text text-anchor="start" x="596" y="-179.5" font-family="FreeSans" font-size="10.00" fill="#000000">Acts::Legacy::SPForSeed</text>
<text text-anchor="middle" x="658" y="-167.5" font-family="FreeSans" font-size="10.00" fill="#000000">::radius</text>
</a>
</g>
</g>
<!-- Node3&#45;&gt;Node4 -->
<g id="edge3" class="edge">
<title>Node3&#45;&gt;Node4</title>
<path fill="none" stroke="#191970" d="M552.1655,-176.5C560.643,-176.5 569.2339,-176.5 577.6648,-176.5"/>
<polygon fill="#191970" stroke="#191970" points="577.8511,-180.0001 587.8511,-176.5 577.851,-173.0001 577.8511,-180.0001"/>
</g>
</g>
</svg>
