<?xml version="1.0" encoding="UTF-8" standalone="no"?>
<!DOCTYPE svg PUBLIC "-//W3C//DTD SVG 1.1//EN"
 "http://www.w3.org/Graphics/SVG/1.1/DTD/svg11.dtd">
<!-- Generated by graphviz version 2.40.1 (20161225.0304)
 -->
<!-- Title: HFJetTruthTrigger::process_event Pages: 1 -->
<svg width="657pt" height="591pt"
 viewBox="0.00 0.00 657.00 591.00" xmlns="http://www.w3.org/2000/svg" xmlns:xlink="http://www.w3.org/1999/xlink">
<g id="graph0" class="graph" transform="scale(1 1) rotate(0) translate(4 587)">
<title>HFJetTruthTrigger::process_event</title>
<!-- Node1 -->
<g id="node1" class="node">
<title>Node1</title>
<polygon fill="#bfbfbf" stroke="#000000" points="0,-259.5 0,-291.5 109,-291.5 109,-259.5 0,-259.5"/>
<text text-anchor="start" x="8" y="-278.5" font-family="FreeSans" font-size="10.00" fill="#000000">HFJetTruthTrigger::</text>
<text text-anchor="middle" x="54.5" y="-266.5" font-family="FreeSans" font-size="10.00" fill="#000000">process_event</text>
</g>
<!-- Node2 -->
<g id="node2" class="node">
<title>Node2</title>
<g id="a_node2"><a xlink:href="../../df/d28/namespacekdfinder.html#ab72d428625e99a2d7380eb7691c246c7" target="_top" xlink:title="kdfinder::abs">
<polygon fill="none" stroke="#000000" points="373.5,-523.5 373.5,-543.5 456.5,-543.5 456.5,-523.5 373.5,-523.5"/>
<text text-anchor="middle" x="415" y="-530.5" font-family="FreeSans" font-size="10.00" fill="#000000">kdfinder::abs</text>
</a>
</g>
</g>
<!-- Node1&#45;&gt;Node2 -->
<g id="edge1" class="edge">
<title>Node1&#45;&gt;Node2</title>
<path fill="none" stroke="#191970" d="M55.8861,-291.6437C60.3582,-332.8989 78.2747,-442.5869 145,-494.5 207.5925,-543.1977 303.8172,-544.8757 362.8983,-540.2096"/>
<polygon fill="#191970" stroke="#191970" points="363.4688,-543.673 373.1233,-539.3093 362.8548,-536.7 363.4688,-543.673"/>
</g>
<!-- Node4 -->
<g id="node4" class="node">
<title>Node4</title>
<g id="a_node4"><a xlink:href="../../d7/d97/classJetMap.html#a822b861e7cc9ae458a7e5edf7dcdf970" target="_top" xlink:title="JetMap::begin">
<polygon fill="none" stroke="#000000" points="186,-285.5 186,-305.5 272,-305.5 272,-285.5 186,-285.5"/>
<text text-anchor="middle" x="229" y="-292.5" font-family="FreeSans" font-size="10.00" fill="#000000">JetMap::begin</text>
</a>
</g>
</g>
<!-- Node1&#45;&gt;Node4 -->
<g id="edge3" class="edge">
<title>Node1&#45;&gt;Node4</title>
<path fill="none" stroke="#191970" d="M109.2341,-281.7733C130.4504,-284.2049 154.66,-286.9797 175.7344,-289.3951"/>
<polygon fill="#191970" stroke="#191970" points="175.4677,-292.8873 185.8013,-290.5489 176.2649,-285.9329 175.4677,-292.8873"/>
</g>
<!-- Node5 -->
<g id="node5" class="node">
<title>Node5</title>
<g id="a_node5"><a xlink:href="../../d7/d97/classJetMap.html#a84dec46acee0e4d46509494cc387e25b" target="_top" xlink:title="JetMap::end">
<polygon fill="none" stroke="#000000" points="190.5,-246.5 190.5,-266.5 267.5,-266.5 267.5,-246.5 190.5,-246.5"/>
<text text-anchor="middle" x="229" y="-253.5" font-family="FreeSans" font-size="10.00" fill="#000000">JetMap::end</text>
</a>
</g>
</g>
<!-- Node1&#45;&gt;Node5 -->
<g id="edge4" class="edge">
<title>Node1&#45;&gt;Node5</title>
<path fill="none" stroke="#191970" d="M109.2341,-269.5404C132.0137,-267.0601 158.244,-264.2041 180.3394,-261.7983"/>
<polygon fill="#191970" stroke="#191970" points="180.9336,-265.2544 190.496,-260.6924 180.1758,-258.2955 180.9336,-265.2544"/>
</g>
<!-- Node6 -->
<g id="node6" class="node">
<title>Node6</title>
<g id="a_node6"><a xlink:href="../../d5/d41/classPHHepMCGenEventMap.html#aeee51cbc5dbbd18af41e66c03e955319" target="_top" xlink:title="fetch event">
<polygon fill="none" stroke="#000000" points="148.5,-207.5 148.5,-227.5 309.5,-227.5 309.5,-207.5 148.5,-207.5"/>
<text text-anchor="middle" x="229" y="-214.5" font-family="FreeSans" font-size="10.00" fill="#000000">PHHepMCGenEventMap::get</text>
</a>
</g>
</g>
<!-- Node1&#45;&gt;Node6 -->
<g id="edge5" class="edge">
<title>Node1&#45;&gt;Node6</title>
<path fill="none" stroke="#191970" d="M87.8813,-259.3606C104.724,-251.6714 125.6404,-242.8012 145,-236.5 152.2976,-234.1247 160.0457,-231.9382 167.7703,-229.9601"/>
<polygon fill="#191970" stroke="#191970" points="168.6307,-233.3529 177.5065,-227.5675 166.9602,-226.5551 168.6307,-233.3529"/>
</g>
<!-- Node7 -->
<g id="node7" class="node">
<title>Node7</title>
<g id="a_node7"><a xlink:href="../../d7/da6/classJet.html#aa7219b7e6fafba21362c4591f4ed8f06" target="_top" xlink:title="Jet::get_eta">
<polygon fill="none" stroke="#000000" points="378,-562.5 378,-582.5 452,-582.5 452,-562.5 378,-562.5"/>
<text text-anchor="middle" x="415" y="-569.5" font-family="FreeSans" font-size="10.00" fill="#000000">Jet::get_eta</text>
</a>
</g>
</g>
<!-- Node1&#45;&gt;Node7 -->
<g id="edge6" class="edge">
<title>Node1&#45;&gt;Node7</title>
<path fill="none" stroke="#191970" d="M57.9479,-291.6731C69.1772,-342.7979 106.2166,-499.4354 145,-531.5 208.0825,-583.6541 308.8687,-584.1124 367.8202,-578.8802"/>
<polygon fill="#191970" stroke="#191970" points="368.358,-582.3444 377.9691,-577.8862 367.6755,-575.3777 368.358,-582.3444"/>
</g>
<!-- Node8 -->
<g id="node8" class="node">
<title>Node8</title>
<g id="a_node8"><a xlink:href="../../d7/d97/classJetMap.html#aef3749b22a88bee46b129a2f946ccf11" target="_top" xlink:title="JetMap::get_par">
<polygon fill="none" stroke="#000000" points="180.5,-168.5 180.5,-188.5 277.5,-188.5 277.5,-168.5 180.5,-168.5"/>
<text text-anchor="middle" x="229" y="-175.5" font-family="FreeSans" font-size="10.00" fill="#000000">JetMap::get_par</text>
</a>
</g>
</g>
<!-- Node1&#45;&gt;Node8 -->
<g id="edge7" class="edge">
<title>Node1&#45;&gt;Node8</title>
<path fill="none" stroke="#191970" d="M68.4935,-259.4262C84.9802,-241.5343 114.0681,-213.0919 145,-197.5 152.8575,-193.5393 161.5416,-190.3954 170.257,-187.9023"/>
<polygon fill="#191970" stroke="#191970" points="171.2684,-191.2558 180.0679,-185.355 169.5092,-184.4805 171.2684,-191.2558"/>
</g>
<!-- Node9 -->
<g id="node9" class="node">
<title>Node9</title>
<g id="a_node9"><a xlink:href="../../d7/da6/classJet.html#ab0298c30da3364739d73c36a28e76dfb" target="_top" xlink:title="Jet::get_pt">
<polygon fill="none" stroke="#000000" points="380.5,-316.5 380.5,-336.5 449.5,-336.5 449.5,-316.5 380.5,-316.5"/>
<text text-anchor="middle" x="415" y="-323.5" font-family="FreeSans" font-size="10.00" fill="#000000">Jet::get_pt</text>
</a>
</g>
</g>
<!-- Node1&#45;&gt;Node9 -->
<g id="edge8" class="edge">
<title>Node1&#45;&gt;Node9</title>
<path fill="none" stroke="#191970" d="M84.1483,-291.5252C101.3846,-300.0023 123.8229,-309.6385 145,-314.5 222.601,-332.3143 315.9547,-331.7848 370.0832,-329.4027"/>
<polygon fill="#191970" stroke="#191970" points="370.5499,-332.8843 380.3696,-328.9064 370.2125,-325.8925 370.5499,-332.8843"/>
</g>
<!-- Node10 -->
<g id="node10" class="node">
<title>Node10</title>
<g id="a_node10"><a xlink:href="../../d7/d7b/classPHHepMCGenEvent.html#a086a77104ec225e191885f9db7538521" target="_top" xlink:title="PHHepMCGenEvent::getEvent">
<polygon fill="none" stroke="#000000" points="145,-129.5 145,-149.5 313,-149.5 313,-129.5 145,-129.5"/>
<text text-anchor="middle" x="229" y="-136.5" font-family="FreeSans" font-size="10.00" fill="#000000">PHHepMCGenEvent::getEvent</text>
</a>
</g>
</g>
<!-- Node1&#45;&gt;Node10 -->
<g id="edge9" class="edge">
<title>Node1&#45;&gt;Node10</title>
<path fill="none" stroke="#191970" d="M62.2776,-259.3854C75.5158,-233.7646 104.9374,-184.0341 145,-158.5 147.9256,-156.6354 151.0109,-154.9527 154.2029,-153.4342"/>
<polygon fill="#191970" stroke="#191970" points="155.5602,-156.6604 163.4374,-149.5752 152.8611,-150.2017 155.5602,-156.6604"/>
</g>
<!-- Node11 -->
<g id="node11" class="node">
<title>Node11</title>
<g id="a_node11"><a xlink:href="../../dc/d64/classHFJetTruthTrigger.html#ada13f34c0011a913e0ceb04396f405f4" target="_top" xlink:title="tag jet flavor by hadron matching, like MIE proposal">
<polygon fill="none" stroke="#000000" points="174.5,-452.5 174.5,-484.5 283.5,-484.5 283.5,-452.5 174.5,-452.5"/>
<text text-anchor="start" x="182.5" y="-471.5" font-family="FreeSans" font-size="10.00" fill="#000000">HFJetTruthTrigger::</text>
<text text-anchor="middle" x="229" y="-459.5" font-family="FreeSans" font-size="10.00" fill="#000000">hadron_tagging</text>
</a>
</g>
</g>
<!-- Node1&#45;&gt;Node11 -->
<g id="edge10" class="edge">
<title>Node1&#45;&gt;Node11</title>
<path fill="none" stroke="#191970" d="M58.6381,-291.5939C68.0725,-325.0286 94.3741,-402.3112 145,-443.5 150.8423,-448.2533 157.5659,-452.103 164.6115,-455.221"/>
<polygon fill="#191970" stroke="#191970" points="163.7782,-458.6532 174.3661,-459.0353 166.3275,-452.1339 163.7782,-458.6532"/>
</g>
<!-- Node15 -->
<g id="node15" class="node">
<title>Node15</title>
<g id="a_node15"><a xlink:href="../../d5/dec/classFun4AllBase.html#a8a5c77a92bdac6bc043476e132379a40" target="_top" xlink:title="Gets the verbosity of this module.">
<polygon fill="none" stroke="#000000" points="349,-355.5 349,-375.5 481,-375.5 481,-355.5 349,-355.5"/>
<text text-anchor="middle" x="415" y="-362.5" font-family="FreeSans" font-size="10.00" fill="#000000">Fun4AllBase::Verbosity</text>
</a>
</g>
</g>
<!-- Node1&#45;&gt;Node15 -->
<g id="edge29" class="edge">
<title>Node1&#45;&gt;Node15</title>
<path fill="none" stroke="#191970" d="M72.0425,-291.52C89.253,-306.2077 116.9322,-327.1911 145,-337.5 207.5716,-360.4816 283.425,-366.6153 338.7811,-367.503"/>
<polygon fill="#191970" stroke="#191970" points="338.8342,-371.0037 348.871,-367.6106 338.9089,-364.0041 338.8342,-371.0037"/>
</g>
<!-- Node16 -->
<g id="node16" class="node">
<title>Node16</title>
<g id="a_node16"><a xlink:href="../../d5/d41/classPHHepMCGenEventMap.html#abcfc1ad1ef0098a5de655849cea459da" target="_top" xlink:title="PHHepMCGenEventMap\l::identify">
<polygon fill="none" stroke="#000000" points="160.5,-78.5 160.5,-110.5 297.5,-110.5 297.5,-78.5 160.5,-78.5"/>
<text text-anchor="start" x="168.5" y="-97.5" font-family="FreeSans" font-size="10.00" fill="#000000">PHHepMCGenEventMap</text>
<text text-anchor="middle" x="229" y="-85.5" font-family="FreeSans" font-size="10.00" fill="#000000">::identify</text>
</a>
</g>
</g>
<!-- Node1&#45;&gt;Node16 -->
<g id="edge18" class="edge">
<title>Node1&#45;&gt;Node16</title>
<path fill="none" stroke="#191970" d="M59.457,-259.0956C69.9146,-227.2938 97.2827,-157.0868 145,-119.5 147.0394,-117.8935 149.1802,-116.3902 151.3996,-114.9833"/>
<polygon fill="#191970" stroke="#191970" points="153.2718,-117.9468 160.3029,-110.0211 149.864,-111.8323 153.2718,-117.9468"/>
</g>
<!-- Node17 -->
<g id="node17" class="node">
<title>Node17</title>
<g id="a_node17"><a xlink:href="../../d7/da6/classJet.html#a84d9da6371f53d269b71492bf2acd25f" target="_top" xlink:title="Jet::identify">
<polygon fill="none" stroke="#000000" points="191.5,-39.5 191.5,-59.5 266.5,-59.5 266.5,-39.5 191.5,-39.5"/>
<text text-anchor="middle" x="229" y="-46.5" font-family="FreeSans" font-size="10.00" fill="#000000">Jet::identify</text>
</a>
</g>
</g>
<!-- Node1&#45;&gt;Node17 -->
<g id="edge19" class="edge">
<title>Node1&#45;&gt;Node17</title>
<path fill="none" stroke="#191970" d="M56.594,-259.3678C62.5758,-220.1557 83.4693,-119.3398 145,-68.5 155.1864,-60.0835 168.3503,-55.2137 181.2221,-52.4449"/>
<polygon fill="#191970" stroke="#191970" points="182.1794,-55.8302 191.4199,-50.6472 180.9641,-48.9365 182.1794,-55.8302"/>
</g>
<!-- Node18 -->
<g id="node18" class="node">
<title>Node18</title>
<g id="a_node18"><a xlink:href="../../dc/d64/classHFJetTruthTrigger.html#ac5286e62e39c41db272d605b12de5f7d" target="_top" xlink:title="tag jet flavor by parton matching, like PRL 113, 132301 (2014)">
<polygon fill="none" stroke="#000000" points="174.5,-401.5 174.5,-433.5 283.5,-433.5 283.5,-401.5 174.5,-401.5"/>
<text text-anchor="start" x="182.5" y="-420.5" font-family="FreeSans" font-size="10.00" fill="#000000">HFJetTruthTrigger::</text>
<text text-anchor="middle" x="229" y="-408.5" font-family="FreeSans" font-size="10.00" fill="#000000">parton_tagging</text>
</a>
</g>
</g>
<!-- Node1&#45;&gt;Node18 -->
<g id="edge20" class="edge">
<title>Node1&#45;&gt;Node18</title>
<path fill="none" stroke="#191970" d="M63.8214,-291.7646C78.3005,-315.6867 108.3764,-360.345 145,-386.5 151.0878,-390.8477 157.8553,-394.6562 164.8318,-397.9748"/>
<polygon fill="#191970" stroke="#191970" points="163.8679,-401.3746 174.4304,-402.2009 166.6886,-394.968 163.8679,-401.3746"/>
</g>
<!-- Node19 -->
<g id="node19" class="node">
<title>Node19</title>
<g id="a_node19"><a xlink:href="../../d7/d97/classJetMap.html#a517ad9a98c7a0de34b2746c589eb74b9" target="_top" xlink:title="JetMap::size">
<polygon fill="none" stroke="#000000" points="190,-.5 190,-20.5 268,-20.5 268,-.5 190,-.5"/>
<text text-anchor="middle" x="229" y="-7.5" font-family="FreeSans" font-size="10.00" fill="#000000">JetMap::size</text>
</a>
</g>
</g>
<!-- Node1&#45;&gt;Node19 -->
<g id="edge28" class="edge">
<title>Node1&#45;&gt;Node19</title>
<path fill="none" stroke="#191970" d="M55.3489,-259.3832C58.5788,-215.3131 73.8612,-91.9392 145,-29.5 154.6649,-21.017 167.3171,-16.0895 179.8583,-13.2858"/>
<polygon fill="#191970" stroke="#191970" points="180.6241,-16.7039 189.8332,-11.4653 179.3673,-9.8177 180.6241,-16.7039"/>
</g>
<!-- Node3 -->
<g id="node3" class="node">
<title>Node3</title>
<g id="a_node3"><a xlink:href="../../d8/dc7/classkdfinder_1_1TVector.html#ac9649c7577f12a7502ed523260f4ee90" target="_top" xlink:title="kdfinder::TVector::mag">
<polygon fill="none" stroke="#000000" points="517,-523.5 517,-543.5 649,-543.5 649,-523.5 517,-523.5"/>
<text text-anchor="middle" x="583" y="-530.5" font-family="FreeSans" font-size="10.00" fill="#000000">kdfinder::TVector::mag</text>
</a>
</g>
</g>
<!-- Node2&#45;&gt;Node3 -->
<g id="edge2" class="edge">
<title>Node2&#45;&gt;Node3</title>
<path fill="none" stroke="#191970" d="M456.5281,-533.5C471.7173,-533.5 489.4208,-533.5 506.6874,-533.5"/>
<polygon fill="#191970" stroke="#191970" points="506.781,-537.0001 516.781,-533.5 506.7809,-530.0001 506.781,-537.0001"/>
</g>
<!-- Node11&#45;&gt;Node2 -->
<g id="edge11" class="edge">
<title>Node11&#45;&gt;Node2</title>
<path fill="none" stroke="#191970" d="M268.4178,-484.5896C291.6852,-493.8404 321.8139,-505.3948 349,-514.5 355.0843,-516.5377 361.5269,-518.5583 367.9085,-520.4789"/>
<polygon fill="#191970" stroke="#191970" points="367.2444,-523.932 377.826,-523.4028 369.224,-517.2178 367.2444,-523.932"/>
</g>
<!-- Node11&#45;&gt;Node7 -->
<g id="edge13" class="edge">
<title>Node11&#45;&gt;Node7</title>
<path fill="none" stroke="#191970" d="M247.6857,-484.7989C270.2751,-503.7457 310.1173,-534.799 349,-553.5 355.0645,-556.4168 361.6627,-558.9709 368.2647,-561.1806"/>
<polygon fill="#191970" stroke="#191970" points="367.2899,-564.5427 377.8783,-564.1736 369.3707,-557.8591 367.2899,-564.5427"/>
</g>
<!-- Node11&#45;&gt;Node9 -->
<g id="edge15" class="edge">
<title>Node11&#45;&gt;Node9</title>
<path fill="none" stroke="#191970" d="M283.5368,-460.2258C294.2928,-456.5291 304.7796,-451.1942 313,-443.5 346.5727,-412.0764 315.5054,-378.0068 349,-346.5 355.076,-340.7846 362.7333,-336.6987 370.6612,-333.7788"/>
<polygon fill="#191970" stroke="#191970" points="371.8638,-337.0704 380.3775,-330.7643 369.7894,-330.3848 371.8638,-337.0704"/>
</g>
<!-- Node12 -->
<g id="node12" class="node">
<title>Node12</title>
<g id="a_node12"><a xlink:href="../../dc/d64/classHFJetTruthTrigger.html#a07efdc1e15e85ac923e5cb6a2e6306fc" target="_top" xlink:title="HFJetTruthTrigger::\ldeltaR">
<polygon fill="none" stroke="#000000" points="360.5,-472.5 360.5,-504.5 469.5,-504.5 469.5,-472.5 360.5,-472.5"/>
<text text-anchor="start" x="368.5" y="-491.5" font-family="FreeSans" font-size="10.00" fill="#000000">HFJetTruthTrigger::</text>
<text text-anchor="middle" x="415" y="-479.5" font-family="FreeSans" font-size="10.00" fill="#000000">deltaR</text>
</a>
</g>
</g>
<!-- Node11&#45;&gt;Node12 -->
<g id="edge12" class="edge">
<title>Node11&#45;&gt;Node12</title>
<path fill="none" stroke="#191970" d="M283.5494,-474.3655C304.4631,-476.6143 328.5254,-479.2017 350.3,-481.543"/>
<polygon fill="#191970" stroke="#191970" points="350.1347,-485.0453 360.4516,-482.6346 350.8831,-478.0854 350.1347,-485.0453"/>
</g>
<!-- Node13 -->
<g id="node13" class="node">
<title>Node13</title>
<g id="a_node13"><a xlink:href="../../d7/da6/classJet.html#aaf7b661627240eff2b2b5bc596b8736e" target="_top" xlink:title="Jet::get_phi">
<polygon fill="none" stroke="#000000" points="378,-433.5 378,-453.5 452,-453.5 452,-433.5 378,-433.5"/>
<text text-anchor="middle" x="415" y="-440.5" font-family="FreeSans" font-size="10.00" fill="#000000">Jet::get_phi</text>
</a>
</g>
</g>
<!-- Node11&#45;&gt;Node13 -->
<g id="edge14" class="edge">
<title>Node11&#45;&gt;Node13</title>
<path fill="none" stroke="#191970" d="M283.5494,-461.1681C310.2117,-457.5844 341.9916,-453.313 367.6245,-449.8677"/>
<polygon fill="#191970" stroke="#191970" points="368.3952,-453.2956 377.8398,-448.4946 367.4627,-446.358 368.3952,-453.2956"/>
</g>
<!-- Node14 -->
<g id="node14" class="node">
<title>Node14</title>
<g id="a_node14"><a xlink:href="../../d7/da6/classJet.html#a40ba601bffa363398a14d09c90fe985b" target="_top" xlink:title="Jet::set_property">
<polygon fill="none" stroke="#000000" points="365,-394.5 365,-414.5 465,-414.5 465,-394.5 365,-394.5"/>
<text text-anchor="middle" x="415" y="-401.5" font-family="FreeSans" font-size="10.00" fill="#000000">Jet::set_property</text>
</a>
</g>
</g>
<!-- Node11&#45;&gt;Node14 -->
<g id="edge16" class="edge">
<title>Node11&#45;&gt;Node14</title>
<path fill="none" stroke="#191970" d="M283.7641,-453.8983C293.6152,-450.7937 303.7021,-447.2942 313,-443.5 329.7507,-436.6645 332.2664,-431.377 349,-424.5 354.8866,-422.0808 361.1742,-419.8039 367.4424,-417.7146"/>
<polygon fill="#191970" stroke="#191970" points="368.7556,-420.9694 377.2162,-414.5923 366.6254,-414.3014 368.7556,-420.9694"/>
</g>
<!-- Node11&#45;&gt;Node15 -->
<g id="edge17" class="edge">
<title>Node11&#45;&gt;Node15</title>
<path fill="none" stroke="#191970" d="M283.75,-458.4759C294.1306,-454.9006 304.4149,-450.0575 313,-443.5 337.1108,-425.0837 324.9349,-403.9761 349,-385.5 351.6591,-383.4585 354.5261,-381.6243 357.5236,-379.9765"/>
<polygon fill="#191970" stroke="#191970" points="359.2894,-383.013 366.8308,-375.5713 356.2947,-376.6859 359.2894,-383.013"/>
</g>
<!-- Node18&#45;&gt;Node2 -->
<g id="edge21" class="edge">
<title>Node18&#45;&gt;Node2</title>
<path fill="none" stroke="#191970" d="M283.7845,-427.5018C294.2794,-431.2543 304.5993,-436.4119 313,-443.5 340.0408,-466.3155 321.7338,-491.9543 349,-514.5 353.3648,-518.1092 358.3821,-521.0331 363.6595,-523.4019"/>
<polygon fill="#191970" stroke="#191970" points="362.764,-526.806 373.3549,-527.0942 365.2553,-520.2643 362.764,-526.806"/>
</g>
<!-- Node18&#45;&gt;Node7 -->
<g id="edge23" class="edge">
<title>Node18&#45;&gt;Node7</title>
<path fill="none" stroke="#191970" d="M283.7919,-426.2243C294.5321,-430.0614 304.9479,-435.5766 313,-443.5 349.6658,-479.5797 311.9775,-517.7864 349,-553.5 354.3689,-558.6791 361.0554,-562.4615 368.0949,-565.2207"/>
<polygon fill="#191970" stroke="#191970" points="367.2302,-568.6198 377.8224,-568.3839 369.3949,-561.963 367.2302,-568.6198"/>
</g>
<!-- Node18&#45;&gt;Node9 -->
<g id="edge25" class="edge">
<title>Node18&#45;&gt;Node9</title>
<path fill="none" stroke="#191970" d="M252.454,-401.3169C276.0089,-385.6288 313.7667,-361.9919 349,-346.5 355.7816,-343.5182 363.1406,-340.8094 370.4018,-338.4158"/>
<polygon fill="#191970" stroke="#191970" points="371.6837,-341.682 380.1792,-335.3513 369.5901,-335.0024 371.6837,-341.682"/>
</g>
<!-- Node18&#45;&gt;Node12 -->
<g id="edge22" class="edge">
<title>Node18&#45;&gt;Node12</title>
<path fill="none" stroke="#191970" d="M283.8171,-432.6671C293.6628,-435.8977 303.7342,-439.5427 313,-443.5 329.8325,-450.6889 332.3981,-455.7935 349,-463.5 352.7509,-465.2411 356.6599,-466.9577 360.6202,-468.6259"/>
<polygon fill="#191970" stroke="#191970" points="359.3226,-471.8766 369.9035,-472.4195 361.9706,-465.3967 359.3226,-471.8766"/>
</g>
<!-- Node18&#45;&gt;Node13 -->
<g id="edge24" class="edge">
<title>Node18&#45;&gt;Node13</title>
<path fill="none" stroke="#191970" d="M283.5494,-425.1252C310.2117,-428.8522 341.9916,-433.2945 367.6245,-436.8776"/>
<polygon fill="#191970" stroke="#191970" points="367.4516,-440.3874 377.8398,-438.3056 368.4207,-433.4548 367.4516,-440.3874"/>
</g>
<!-- Node18&#45;&gt;Node14 -->
<g id="edge26" class="edge">
<title>Node18&#45;&gt;Node14</title>
<path fill="none" stroke="#191970" d="M283.5494,-413.6874C305.8591,-412.1281 331.7518,-410.3184 354.6283,-408.7195"/>
<polygon fill="#191970" stroke="#191970" points="355.1715,-412.1902 364.9031,-408.0014 354.6834,-405.2072 355.1715,-412.1902"/>
</g>
<!-- Node18&#45;&gt;Node15 -->
<g id="edge27" class="edge">
<title>Node18&#45;&gt;Node15</title>
<path fill="none" stroke="#191970" d="M283.5494,-402.2496C310.7088,-394.6567 343.1783,-385.5792 369.0515,-378.3458"/>
<polygon fill="#191970" stroke="#191970" points="370.2901,-381.6338 378.9784,-375.5705 368.4053,-374.8923 370.2901,-381.6338"/>
</g>
</g>
</svg>
