<?xml version="1.0" encoding="UTF-8" standalone="no"?>
<!DOCTYPE svg PUBLIC "-//W3C//DTD SVG 1.1//EN"
 "http://www.w3.org/Graphics/SVG/1.1/DTD/svg11.dtd">
<!-- Generated by graphviz version 2.40.1 (20161225.0304)
 -->
<!-- Title: testing::internal::PropertyMatcher::MatchAndExplainImpl Pages: 1 -->
<svg width="1153pt" height="398pt"
 viewBox="0.00 0.00 1153.00 398.00" xmlns="http://www.w3.org/2000/svg" xmlns:xlink="http://www.w3.org/1999/xlink">
<g id="graph0" class="graph" transform="scale(1 1) rotate(0) translate(4 394)">
<title>testing::internal::PropertyMatcher::MatchAndExplainImpl</title>
<!-- Node1 -->
<g id="node1" class="node">
<title>Node1</title>
<polygon fill="#bfbfbf" stroke="#000000" points="0,-203.5 0,-235.5 216,-235.5 216,-203.5 0,-203.5"/>
<text text-anchor="start" x="8" y="-222.5" font-family="FreeSans" font-size="10.00" fill="#000000">testing::internal::</text>
<text text-anchor="middle" x="108" y="-210.5" font-family="FreeSans" font-size="10.00" fill="#000000">PropertyMatcher::MatchAndExplainImpl</text>
</g>
<!-- Node2 -->
<g id="node2" class="node">
<title>Node2</title>
<g id="a_node2"><a xlink:href="../../de/dd3/classtesting_1_1internal_1_1PropertyMatcher.html#a4b14d2630bea8e332c1e0ee6294f8e6f" target="_top" xlink:title="testing::internal::\lPropertyMatcher::MatchAndExplainImpl">
<polygon fill="none" stroke="#000000" points="252,-203.5 252,-235.5 468,-235.5 468,-203.5 252,-203.5"/>
<text text-anchor="start" x="260" y="-222.5" font-family="FreeSans" font-size="10.00" fill="#000000">testing::internal::</text>
<text text-anchor="middle" x="360" y="-210.5" font-family="FreeSans" font-size="10.00" fill="#000000">PropertyMatcher::MatchAndExplainImpl</text>
</a>
</g>
</g>
<!-- Node1&#45;&gt;Node2 -->
<g id="edge1" class="edge">
<title>Node1&#45;&gt;Node2</title>
<path fill="none" stroke="#191970" d="M216.3332,-219.5C224.679,-219.5 233.1303,-219.5 241.5367,-219.5"/>
<polygon fill="#191970" stroke="#191970" points="241.7583,-223.0001 251.7583,-219.5 241.7583,-216.0001 241.7583,-223.0001"/>
</g>
<!-- Node3 -->
<g id="node3" class="node">
<title>Node3</title>
<g id="a_node3"><a xlink:href="../../d0/d81/namespacetesting_1_1internal_1_1posix.html#a69b8278c59359dd6a6f941b4643db9fb" target="_top" xlink:title="testing::internal::\lposix::Abort">
<polygon fill="none" stroke="#000000" points="516,-229.5 516,-261.5 619,-261.5 619,-229.5 516,-229.5"/>
<text text-anchor="start" x="524" y="-248.5" font-family="FreeSans" font-size="10.00" fill="#000000">testing::internal::</text>
<text text-anchor="middle" x="567.5" y="-236.5" font-family="FreeSans" font-size="10.00" fill="#000000">posix::Abort</text>
</a>
</g>
</g>
<!-- Node2&#45;&gt;Node3 -->
<g id="edge2" class="edge">
<title>Node2&#45;&gt;Node3</title>
<path fill="none" stroke="#191970" d="M468.0043,-233.0331C480.876,-234.6459 493.6602,-236.2478 505.5627,-237.7392"/>
<polygon fill="#191970" stroke="#191970" points="505.4179,-241.2483 515.7755,-239.0189 506.2882,-234.3026 505.4179,-241.2483"/>
</g>
<!-- Node4 -->
<g id="node4" class="node">
<title>Node4</title>
<g id="a_node4"><a xlink:href="../../d0/da7/namespacetesting_1_1internal.html#a0821df2611d54c79bac990719ad8a2dd" target="_top" xlink:title="testing::internal::\lMatchPrintAndExplain">
<polygon fill="none" stroke="#000000" points="504,-178.5 504,-210.5 631,-210.5 631,-178.5 504,-178.5"/>
<text text-anchor="start" x="512" y="-197.5" font-family="FreeSans" font-size="10.00" fill="#000000">testing::internal::</text>
<text text-anchor="middle" x="567.5" y="-185.5" font-family="FreeSans" font-size="10.00" fill="#000000">MatchPrintAndExplain</text>
</a>
</g>
</g>
<!-- Node2&#45;&gt;Node4 -->
<g id="edge3" class="edge">
<title>Node2&#45;&gt;Node4</title>
<path fill="none" stroke="#191970" d="M468.0043,-206.4874C476.7554,-205.4331 485.4661,-204.3836 493.8868,-203.3691"/>
<polygon fill="#191970" stroke="#191970" points="494.488,-206.822 503.9976,-202.1509 493.6507,-199.8723 494.488,-206.822"/>
</g>
<!-- Node5 -->
<g id="node5" class="node">
<title>Node5</title>
<g id="a_node5"><a xlink:href="../../db/d3e/classtesting_1_1MatchResultListener.html#a68dc4f2f3c3425f4d4dd90ab02244615" target="_top" xlink:title="testing::MatchResultListener\l::IsInterested">
<polygon fill="none" stroke="#000000" points="674.5,-357.5 674.5,-389.5 835.5,-389.5 835.5,-357.5 674.5,-357.5"/>
<text text-anchor="start" x="682.5" y="-376.5" font-family="FreeSans" font-size="10.00" fill="#000000">testing::MatchResultListener</text>
<text text-anchor="middle" x="755" y="-364.5" font-family="FreeSans" font-size="10.00" fill="#000000">::IsInterested</text>
</a>
</g>
</g>
<!-- Node4&#45;&gt;Node5 -->
<g id="edge4" class="edge">
<title>Node4&#45;&gt;Node5</title>
<path fill="none" stroke="#191970" d="M619.1473,-210.6053C623.5357,-213.4042 627.591,-216.6767 631,-220.5 670.3287,-264.609 625.2678,-306.6578 667,-348.5 667.9463,-349.4488 668.9259,-350.3623 669.9354,-351.2416"/>
<polygon fill="#191970" stroke="#191970" points="668.0822,-354.2236 678.2092,-357.3372 672.2342,-348.5879 668.0822,-354.2236"/>
</g>
<!-- Node6 -->
<g id="node6" class="node">
<title>Node6</title>
<g id="a_node6"><a xlink:href="../../d0/da7/namespacetesting_1_1internal.html#a19a5d50382569ce6ee94e2b68ddc6fc7" target="_top" xlink:title="testing::internal::\lIsReadableTypeName">
<polygon fill="none" stroke="#000000" points="693,-306.5 693,-338.5 817,-338.5 817,-306.5 693,-306.5"/>
<text text-anchor="start" x="701" y="-325.5" font-family="FreeSans" font-size="10.00" fill="#000000">testing::internal::</text>
<text text-anchor="middle" x="755" y="-313.5" font-family="FreeSans" font-size="10.00" fill="#000000">IsReadableTypeName</text>
</a>
</g>
</g>
<!-- Node4&#45;&gt;Node6 -->
<g id="edge5" class="edge">
<title>Node4&#45;&gt;Node6</title>
<path fill="none" stroke="#191970" d="M617.5756,-210.6539C622.4397,-213.4601 627.032,-216.7207 631,-220.5 658.3556,-246.5544 638.2311,-273.015 667,-297.5 671.9211,-301.6883 677.5008,-305.1768 683.4056,-308.0821"/>
<polygon fill="#191970" stroke="#191970" points="682.3358,-311.4325 692.9039,-312.1843 685.1113,-305.0062 682.3358,-311.4325"/>
</g>
<!-- Node7 -->
<g id="node7" class="node">
<title>Node7</title>
<g id="a_node7"><a xlink:href="../../db/d7e/classtesting_1_1internal_1_1MatcherBase.html#ae3f5f3150a95cafb1c2ab7c864a42e65" target="_top" xlink:title="testing::internal::\lMatcherBase::MatchAndExplain">
<polygon fill="none" stroke="#000000" points="667,-255.5 667,-287.5 843,-287.5 843,-255.5 667,-255.5"/>
<text text-anchor="start" x="675" y="-274.5" font-family="FreeSans" font-size="10.00" fill="#000000">testing::internal::</text>
<text text-anchor="middle" x="755" y="-262.5" font-family="FreeSans" font-size="10.00" fill="#000000">MatcherBase::MatchAndExplain</text>
</a>
</g>
</g>
<!-- Node4&#45;&gt;Node7 -->
<g id="edge6" class="edge">
<title>Node4&#45;&gt;Node7</title>
<path fill="none" stroke="#191970" d="M610.8447,-210.6325C617.7171,-213.648 624.6476,-216.9713 631,-220.5 648.2533,-230.0842 649.2381,-237.895 667,-246.5 670.9664,-248.4216 675.1069,-250.2203 679.3372,-251.9003"/>
<polygon fill="#191970" stroke="#191970" points="678.1159,-255.1802 688.7087,-255.3898 680.5586,-248.6202 678.1159,-255.1802"/>
</g>
<!-- Node8 -->
<g id="node8" class="node">
<title>Node8</title>
<g id="a_node8"><a xlink:href="../../db/d7e/classtesting_1_1internal_1_1MatcherBase.html#a105a9dae7afecee8898db8ad1887b0db" target="_top" xlink:title="testing::internal::\lMatcherBase::Matches">
<polygon fill="none" stroke="#000000" points="689.5,-204.5 689.5,-236.5 820.5,-236.5 820.5,-204.5 689.5,-204.5"/>
<text text-anchor="start" x="697.5" y="-223.5" font-family="FreeSans" font-size="10.00" fill="#000000">testing::internal::</text>
<text text-anchor="middle" x="755" y="-211.5" font-family="FreeSans" font-size="10.00" fill="#000000">MatcherBase::Matches</text>
</a>
</g>
</g>
<!-- Node4&#45;&gt;Node8 -->
<g id="edge7" class="edge">
<title>Node4&#45;&gt;Node8</title>
<path fill="none" stroke="#191970" d="M631.2406,-203.3387C646.5682,-205.4641 663.0922,-207.7554 678.9191,-209.9501"/>
<polygon fill="#191970" stroke="#191970" points="678.8134,-213.4689 689.1993,-211.3756 679.7749,-206.5352 678.8134,-213.4689"/>
</g>
<!-- Node9 -->
<g id="node9" class="node">
<title>Node9</title>
<g id="a_node9"><a xlink:href="../../d0/da7/namespacetesting_1_1internal.html#a77c9e2b66d2b2414db4763971180d53c" target="_top" xlink:title="testing::internal::\lPrintIfNotEmpty">
<polygon fill="none" stroke="#000000" points="703.5,-153.5 703.5,-185.5 806.5,-185.5 806.5,-153.5 703.5,-153.5"/>
<text text-anchor="start" x="711.5" y="-172.5" font-family="FreeSans" font-size="10.00" fill="#000000">testing::internal::</text>
<text text-anchor="middle" x="755" y="-160.5" font-family="FreeSans" font-size="10.00" fill="#000000">PrintIfNotEmpty</text>
</a>
</g>
</g>
<!-- Node4&#45;&gt;Node9 -->
<g id="edge8" class="edge">
<title>Node4&#45;&gt;Node9</title>
<path fill="none" stroke="#191970" d="M631.2406,-186.0013C651.2204,-183.3373 673.233,-180.4023 693.0847,-177.7554"/>
<polygon fill="#191970" stroke="#191970" points="693.7969,-181.1915 703.2466,-176.4005 692.8717,-174.2529 693.7969,-181.1915"/>
</g>
<!-- Node10 -->
<g id="node10" class="node">
<title>Node10</title>
<g id="a_node10"><a xlink:href="../../d8/d10/classtesting_1_1StringMatchResultListener.html#a601171722243ac405f40c3efbec6f982" target="_top" xlink:title="testing::StringMatchResult\lListener::str">
<polygon fill="none" stroke="#000000" points="679.5,-102.5 679.5,-134.5 830.5,-134.5 830.5,-102.5 679.5,-102.5"/>
<text text-anchor="start" x="687.5" y="-121.5" font-family="FreeSans" font-size="10.00" fill="#000000">testing::StringMatchResult</text>
<text text-anchor="middle" x="755" y="-109.5" font-family="FreeSans" font-size="10.00" fill="#000000">Listener::str</text>
</a>
</g>
</g>
<!-- Node4&#45;&gt;Node10 -->
<g id="edge9" class="edge">
<title>Node4&#45;&gt;Node10</title>
<path fill="none" stroke="#191970" d="M596.0448,-178.4444C615.6049,-167.8722 642.369,-154.2372 667,-144.5 672.9306,-142.1555 679.1583,-139.9084 685.4451,-137.7857"/>
<polygon fill="#191970" stroke="#191970" points="686.9185,-140.9866 695.3387,-134.5562 684.7463,-134.3321 686.9185,-140.9866"/>
</g>
<!-- Node11 -->
<g id="node11" class="node">
<title>Node11</title>
<g id="a_node11"><a xlink:href="../../db/d3e/classtesting_1_1MatchResultListener.html#a5abecb247e005f7f50a94898e3f44ee3" target="_top" xlink:title="testing::MatchResultListener\l::stream">
<polygon fill="none" stroke="#000000" points="674.5,-51.5 674.5,-83.5 835.5,-83.5 835.5,-51.5 674.5,-51.5"/>
<text text-anchor="start" x="682.5" y="-70.5" font-family="FreeSans" font-size="10.00" fill="#000000">testing::MatchResultListener</text>
<text text-anchor="middle" x="755" y="-58.5" font-family="FreeSans" font-size="10.00" fill="#000000">::stream</text>
</a>
</g>
</g>
<!-- Node4&#45;&gt;Node11 -->
<g id="edge10" class="edge">
<title>Node4&#45;&gt;Node11</title>
<path fill="none" stroke="#191970" d="M579.1168,-178.3593C595.997,-156.0581 629.4225,-116.0292 667,-93.5 670.4371,-91.4393 674.0485,-89.5325 677.7667,-87.7693"/>
<polygon fill="#191970" stroke="#191970" points="679.4128,-90.8704 687.1907,-83.6764 676.6242,-84.4498 679.4128,-90.8704"/>
</g>
<!-- Node12 -->
<g id="node12" class="node">
<title>Node12</title>
<g id="a_node12"><a xlink:href="../../d0/da7/namespacetesting_1_1internal.html#ad121a890bddf866e59605d1a0198dada" target="_top" xlink:title="testing::internal::\lUniversalPrint">
<polygon fill="none" stroke="#000000" points="703.5,-.5 703.5,-32.5 806.5,-32.5 806.5,-.5 703.5,-.5"/>
<text text-anchor="start" x="711.5" y="-19.5" font-family="FreeSans" font-size="10.00" fill="#000000">testing::internal::</text>
<text text-anchor="middle" x="755" y="-7.5" font-family="FreeSans" font-size="10.00" fill="#000000">UniversalPrint</text>
</a>
</g>
</g>
<!-- Node4&#45;&gt;Node12 -->
<g id="edge11" class="edge">
<title>Node4&#45;&gt;Node12</title>
<path fill="none" stroke="#191970" d="M573.5406,-178.4952C586.0733,-147.4719 617.8937,-79.0035 667,-42.5 674.9588,-36.5838 684.2503,-32.0075 693.7558,-28.4692"/>
<polygon fill="#191970" stroke="#191970" points="694.9265,-31.7682 703.2913,-25.2658 692.6973,-25.1326 694.9265,-31.7682"/>
</g>
<!-- Node13 -->
<g id="node13" class="node">
<title>Node13</title>
<g id="a_node13"><a xlink:href="../../d6/d16/classtesting_1_1internal_1_1UniversalPrinter.html#a6a7d29444412467c14931bc55a046138" target="_top" xlink:title="testing::internal::\lUniversalPrinter::Print">
<polygon fill="none" stroke="#000000" points="879,-.5 879,-32.5 1006,-32.5 1006,-.5 879,-.5"/>
<text text-anchor="start" x="887" y="-19.5" font-family="FreeSans" font-size="10.00" fill="#000000">testing::internal::</text>
<text text-anchor="middle" x="942.5" y="-7.5" font-family="FreeSans" font-size="10.00" fill="#000000">UniversalPrinter::Print</text>
</a>
</g>
</g>
<!-- Node12&#45;&gt;Node13 -->
<g id="edge12" class="edge">
<title>Node12&#45;&gt;Node13</title>
<path fill="none" stroke="#191970" d="M806.7315,-16.5C825.9211,-16.5 848.072,-16.5 868.8423,-16.5"/>
<polygon fill="#191970" stroke="#191970" points="868.9087,-20.0001 878.9087,-16.5 868.9086,-13.0001 868.9087,-20.0001"/>
</g>
<!-- Node14 -->
<g id="node14" class="node">
<title>Node14</title>
<g id="a_node14"><a xlink:href="../../d0/da7/namespacetesting_1_1internal.html#a880d891d434f918b29a382f90e47cecb" target="_top" xlink:title="testing::internal::\lPrintTo">
<polygon fill="none" stroke="#000000" points="1042,-.5 1042,-32.5 1145,-32.5 1145,-.5 1042,-.5"/>
<text text-anchor="start" x="1050" y="-19.5" font-family="FreeSans" font-size="10.00" fill="#000000">testing::internal::</text>
<text text-anchor="middle" x="1093.5" y="-7.5" font-family="FreeSans" font-size="10.00" fill="#000000">PrintTo</text>
</a>
</g>
</g>
<!-- Node13&#45;&gt;Node14 -->
<g id="edge13" class="edge">
<title>Node13&#45;&gt;Node14</title>
<path fill="none" stroke="#191970" d="M1006.1,-9.8251C1014.5806,-9.7173 1023.2667,-9.7256 1031.7157,-9.85"/>
<polygon fill="#191970" stroke="#191970" points="1031.8042,-13.3525 1041.8743,-10.0594 1031.9485,-6.3539 1031.8042,-13.3525"/>
</g>
<!-- Node14&#45;&gt;Node13 -->
<g id="edge14" class="edge">
<title>Node14&#45;&gt;Node13</title>
<path fill="none" stroke="#191970" d="M1041.8743,-22.9406C1033.6014,-23.1619 1024.9021,-23.2645 1016.234,-23.2484"/>
<polygon fill="#191970" stroke="#191970" points="1016.1251,-19.7476 1006.1,-23.1749 1016.0743,-26.7474 1016.1251,-19.7476"/>
</g>
</g>
</svg>
