<?xml version="1.0" encoding="UTF-8" standalone="no"?>
<!DOCTYPE svg PUBLIC "-//W3C//DTD SVG 1.1//EN"
 "http://www.w3.org/Graphics/SVG/1.1/DTD/svg11.dtd">
<!-- Generated by graphviz version 2.40.1 (20161225.0304)
 -->
<!-- Title: RawClusterUtility::GetPseudorapidity Pages: 1 -->
<svg width="664pt" height="296pt"
 viewBox="0.00 0.00 664.00 296.00" xmlns="http://www.w3.org/2000/svg" xmlns:xlink="http://www.w3.org/1999/xlink">
<g id="graph0" class="graph" transform="scale(1 1) rotate(0) translate(4 292)">
<title>RawClusterUtility::GetPseudorapidity</title>
<!-- Node1 -->
<g id="node1" class="node">
<title>Node1</title>
<polygon fill="#bfbfbf" stroke="#000000" points="0,-127.5 0,-159.5 110,-159.5 110,-127.5 0,-127.5"/>
<text text-anchor="start" x="8" y="-146.5" font-family="FreeSans" font-size="10.00" fill="#000000">RawClusterUtility::</text>
<text text-anchor="middle" x="55" y="-134.5" font-family="FreeSans" font-size="10.00" fill="#000000">GetPseudorapidity</text>
</g>
<!-- Node2 -->
<g id="node2" class="node">
<title>Node2</title>
<g id="a_node2"><a xlink:href="../../dd/d59/classCaloEvaluator.html#a5298ee9646d361a4960fc0e20f83c880" target="_top" xlink:title="dump the evaluator information into ntuple for external analysis">
<polygon fill="none" stroke="#000000" points="149.5,-255.5 149.5,-287.5 290.5,-287.5 290.5,-255.5 149.5,-255.5"/>
<text text-anchor="start" x="157.5" y="-274.5" font-family="FreeSans" font-size="10.00" fill="#000000">CaloEvaluator::fillOutput</text>
<text text-anchor="middle" x="220" y="-262.5" font-family="FreeSans" font-size="10.00" fill="#000000">Ntuples</text>
</a>
</g>
</g>
<!-- Node1&#45;&gt;Node2 -->
<g id="edge1" class="edge">
<title>Node1&#45;&gt;Node2</title>
<path fill="none" stroke="#191970" d="M71.0428,-168.1254C87.3519,-191.3617 114.632,-225.6566 146,-246.5 151.0825,-249.8772 156.6647,-252.8396 162.4139,-255.4287"/>
<polygon fill="#191970" stroke="#191970" points="73.8849,-166.0813 65.3437,-159.8125 68.1114,-170.0394 73.8849,-166.0813"/>
</g>
<!-- Node4 -->
<g id="node4" class="node">
<title>Node4</title>
<g id="a_node4"><a xlink:href="../../db/d22/classEventEvaluator.html#ada437671569f41f49d8efe8235d569ab" target="_top" xlink:title="dump the evaluator information into ntuple for external analysis">
<polygon fill="none" stroke="#000000" points="146,-204.5 146,-236.5 294,-236.5 294,-204.5 146,-204.5"/>
<text text-anchor="start" x="154" y="-223.5" font-family="FreeSans" font-size="10.00" fill="#000000">EventEvaluator::fillOutput</text>
<text text-anchor="middle" x="220" y="-211.5" font-family="FreeSans" font-size="10.00" fill="#000000">Ntuples</text>
</a>
</g>
</g>
<!-- Node1&#45;&gt;Node4 -->
<g id="edge3" class="edge">
<title>Node1&#45;&gt;Node4</title>
<path fill="none" stroke="#191970" d="M89.0564,-165.0506C105.8064,-175.1034 126.5357,-186.75 146,-195.5 153.0499,-198.6692 160.629,-201.6666 168.1522,-204.4114"/>
<polygon fill="#191970" stroke="#191970" points="90.5558,-161.866 80.1936,-159.6583 86.9174,-167.8461 90.5558,-161.866"/>
</g>
<!-- Node6 -->
<g id="node6" class="node">
<title>Node6</title>
<g id="a_node6"><a xlink:href="../../d2/d0e/classPHTrackClusterAssociator.html#a61e73d21010ffd3b50a0f061a557237e" target="_top" xlink:title="PHTrackClusterAssociator\l::getCluster">
<polygon fill="none" stroke="#000000" points="147.5,-153.5 147.5,-185.5 292.5,-185.5 292.5,-153.5 147.5,-153.5"/>
<text text-anchor="start" x="155.5" y="-172.5" font-family="FreeSans" font-size="10.00" fill="#000000">PHTrackClusterAssociator</text>
<text text-anchor="middle" x="220" y="-160.5" font-family="FreeSans" font-size="10.00" fill="#000000">::getCluster</text>
</a>
</g>
</g>
<!-- Node1&#45;&gt;Node6 -->
<g id="edge5" class="edge">
<title>Node1&#45;&gt;Node6</title>
<path fill="none" stroke="#191970" d="M120.321,-153.793C129.233,-155.1973 138.4248,-156.6457 147.4551,-158.0687"/>
<polygon fill="#191970" stroke="#191970" points="120.8246,-150.3292 110.4016,-152.23 119.7349,-157.2439 120.8246,-150.3292"/>
</g>
<!-- Node9 -->
<g id="node9" class="node">
<title>Node9</title>
<g id="a_node9"><a xlink:href="../../d9/df7/classPHActsTrackProjection.html#a36aba00430c09db559035680f7774470" target="_top" xlink:title="Get the cluster values for a particular matched track.">
<polygon fill="none" stroke="#000000" points="156.5,-102.5 156.5,-134.5 283.5,-134.5 283.5,-102.5 156.5,-102.5"/>
<text text-anchor="start" x="164.5" y="-121.5" font-family="FreeSans" font-size="10.00" fill="#000000">PHActsTrackProjection</text>
<text text-anchor="middle" x="220" y="-109.5" font-family="FreeSans" font-size="10.00" fill="#000000">::getClusterProperties</text>
</a>
</g>
</g>
<!-- Node1&#45;&gt;Node9 -->
<g id="edge8" class="edge">
<title>Node1&#45;&gt;Node9</title>
<path fill="none" stroke="#191970" d="M120.6313,-133.5559C132.4424,-131.7663 144.7354,-129.9037 156.4851,-128.1235"/>
<polygon fill="#191970" stroke="#191970" points="119.7644,-130.1472 110.4016,-135.1058 120.8131,-137.0682 119.7644,-130.1472"/>
</g>
<!-- Node10 -->
<g id="node10" class="node">
<title>Node10</title>
<g id="a_node10"><a xlink:href="../../d6/df9/classParticleFlowReco.html#adfcb5176268e728739c041eec599f967" target="_top" xlink:title="ParticleFlowReco::process\l_event">
<polygon fill="none" stroke="#000000" points="147,-51.5 147,-83.5 293,-83.5 293,-51.5 147,-51.5"/>
<text text-anchor="start" x="155" y="-70.5" font-family="FreeSans" font-size="10.00" fill="#000000">ParticleFlowReco::process</text>
<text text-anchor="middle" x="220" y="-58.5" font-family="FreeSans" font-size="10.00" fill="#000000">_event</text>
</a>
</g>
</g>
<!-- Node1&#45;&gt;Node10 -->
<g id="edge9" class="edge">
<title>Node1&#45;&gt;Node10</title>
<path fill="none" stroke="#191970" d="M90.2908,-122.338C106.875,-112.8569 127.1138,-101.9374 146,-93.5 153.8327,-90.0007 162.2918,-86.6491 170.5947,-83.5845"/>
<polygon fill="#191970" stroke="#191970" points="88.3882,-119.3951 81.4851,-127.4324 91.8936,-125.4542 88.3882,-119.3951"/>
</g>
<!-- Node11 -->
<g id="node11" class="node">
<title>Node11</title>
<g id="a_node11"><a xlink:href="../../db/dc4/classPHGenFitTrackProjection.html#a5567e0a28356b671b5450b73c120aab6" target="_top" xlink:title="PHGenFitTrackProjection\l::process_event">
<polygon fill="none" stroke="#000000" points="151,-.5 151,-32.5 289,-32.5 289,-.5 151,-.5"/>
<text text-anchor="start" x="159" y="-19.5" font-family="FreeSans" font-size="10.00" fill="#000000">PHGenFitTrackProjection</text>
<text text-anchor="middle" x="220" y="-7.5" font-family="FreeSans" font-size="10.00" fill="#000000">::process_event</text>
</a>
</g>
</g>
<!-- Node1&#45;&gt;Node11 -->
<g id="edge10" class="edge">
<title>Node1&#45;&gt;Node11</title>
<path fill="none" stroke="#191970" d="M71.6997,-118.7628C88.1792,-96.0621 115.3067,-62.9468 146,-42.5 151.6664,-38.7252 157.9422,-35.4332 164.3733,-32.5793"/>
<polygon fill="#191970" stroke="#191970" points="68.6471,-117.0169 65.7165,-127.1984 74.3567,-121.0667 68.6471,-117.0169"/>
</g>
<!-- Node3 -->
<g id="node3" class="node">
<title>Node3</title>
<g id="a_node3"><a xlink:href="../../dd/d59/classCaloEvaluator.html#ab0007637af39a6efee41168c44d5bbdf" target="_top" xlink:title="CaloEvaluator::process\l_event">
<polygon fill="none" stroke="#000000" points="336.5,-255.5 336.5,-287.5 468.5,-287.5 468.5,-255.5 336.5,-255.5"/>
<text text-anchor="start" x="344.5" y="-274.5" font-family="FreeSans" font-size="10.00" fill="#000000">CaloEvaluator::process</text>
<text text-anchor="middle" x="402.5" y="-262.5" font-family="FreeSans" font-size="10.00" fill="#000000">_event</text>
</a>
</g>
</g>
<!-- Node2&#45;&gt;Node3 -->
<g id="edge2" class="edge">
<title>Node2&#45;&gt;Node3</title>
<path fill="none" stroke="#191970" d="M300.8871,-271.5C312.7318,-271.5 324.8125,-271.5 336.317,-271.5"/>
<polygon fill="#191970" stroke="#191970" points="300.5593,-268.0001 290.5593,-271.5 300.5592,-275.0001 300.5593,-268.0001"/>
</g>
<!-- Node5 -->
<g id="node5" class="node">
<title>Node5</title>
<g id="a_node5"><a xlink:href="../../db/d22/classEventEvaluator.html#a5b4dc2c7afd4f3844396f08cc9c555ad" target="_top" xlink:title="EventEvaluator::process\l_event">
<polygon fill="none" stroke="#000000" points="333,-204.5 333,-236.5 472,-236.5 472,-204.5 333,-204.5"/>
<text text-anchor="start" x="341" y="-223.5" font-family="FreeSans" font-size="10.00" fill="#000000">EventEvaluator::process</text>
<text text-anchor="middle" x="402.5" y="-211.5" font-family="FreeSans" font-size="10.00" fill="#000000">_event</text>
</a>
</g>
</g>
<!-- Node4&#45;&gt;Node5 -->
<g id="edge4" class="edge">
<title>Node4&#45;&gt;Node5</title>
<path fill="none" stroke="#191970" d="M304.4516,-220.5C313.9253,-220.5 323.4973,-220.5 332.756,-220.5"/>
<polygon fill="#191970" stroke="#191970" points="304.2298,-217.0001 294.2297,-220.5 304.2297,-224.0001 304.2298,-217.0001"/>
</g>
<!-- Node7 -->
<g id="node7" class="node">
<title>Node7</title>
<g id="a_node7"><a xlink:href="../../d2/d0e/classPHTrackClusterAssociator.html#adad85a1a1fcb32303037a8144aff5945" target="_top" xlink:title="PHTrackClusterAssociator\l::matchTracks">
<polygon fill="none" stroke="#000000" points="330,-153.5 330,-185.5 475,-185.5 475,-153.5 330,-153.5"/>
<text text-anchor="start" x="338" y="-172.5" font-family="FreeSans" font-size="10.00" fill="#000000">PHTrackClusterAssociator</text>
<text text-anchor="middle" x="402.5" y="-160.5" font-family="FreeSans" font-size="10.00" fill="#000000">::matchTracks</text>
</a>
</g>
</g>
<!-- Node6&#45;&gt;Node7 -->
<g id="edge6" class="edge">
<title>Node6&#45;&gt;Node7</title>
<path fill="none" stroke="#191970" d="M302.768,-169.5C311.7855,-169.5 320.9145,-169.5 329.7986,-169.5"/>
<polygon fill="#191970" stroke="#191970" points="302.6533,-166.0001 292.6532,-169.5 302.6532,-173.0001 302.6533,-166.0001"/>
</g>
<!-- Node8 -->
<g id="node8" class="node">
<title>Node8</title>
<g id="a_node8"><a xlink:href="../../d2/d0e/classPHTrackClusterAssociator.html#a01333d6e91b1a808d511d0f0b46d1ddd" target="_top" xlink:title="PHTrackClusterAssociator\l::process_event">
<polygon fill="none" stroke="#000000" points="511,-153.5 511,-185.5 656,-185.5 656,-153.5 511,-153.5"/>
<text text-anchor="start" x="519" y="-172.5" font-family="FreeSans" font-size="10.00" fill="#000000">PHTrackClusterAssociator</text>
<text text-anchor="middle" x="583.5" y="-160.5" font-family="FreeSans" font-size="10.00" fill="#000000">::process_event</text>
</a>
</g>
</g>
<!-- Node7&#45;&gt;Node8 -->
<g id="edge7" class="edge">
<title>Node7&#45;&gt;Node8</title>
<path fill="none" stroke="#191970" d="M485.1164,-169.5C493.7223,-169.5 502.424,-169.5 510.907,-169.5"/>
<polygon fill="#191970" stroke="#191970" points="485.0767,-166.0001 475.0767,-169.5 485.0767,-173.0001 485.0767,-166.0001"/>
</g>
</g>
</svg>
