<?xml version="1.0" encoding="UTF-8" standalone="no"?>
<!DOCTYPE svg PUBLIC "-//W3C//DTD SVG 1.1//EN"
 "http://www.w3.org/Graphics/SVG/1.1/DTD/svg11.dtd">
<!-- Generated by graphviz version 2.40.1 (20161225.0304)
 -->
<!-- Title: pycrth Pages: 1 -->
<svg width="245pt" height="80pt"
 viewBox="0.00 0.00 245.00 80.00" xmlns="http://www.w3.org/2000/svg" xmlns:xlink="http://www.w3.org/1999/xlink">
<g id="graph0" class="graph" transform="scale(1 1) rotate(0) translate(4 76)">
<title>pycrth</title>
<!-- Node1 -->
<g id="node1" class="node">
<title>Node1</title>
<polygon fill="#bfbfbf" stroke="#000000" points="0,-22.5 0,-42.5 48,-42.5 48,-22.5 0,-22.5"/>
<text text-anchor="middle" x="24" y="-29.5" font-family="FreeSans" font-size="10.00" fill="#000000">pycrth</text>
</g>
<!-- Node2 -->
<g id="node2" class="node">
<title>Node2</title>
<g id="a_node2"><a xlink:href="../../d1/d48/classActsExamples_1_1PlotHelpers_1_1Binning.html#a4f54517b501ff697a1dc202629f11619" target="_top" xlink:title="ActsExamples::PlotHelpers\l::Binning::low">
<polygon fill="none" stroke="#000000" points="84,-39.5 84,-71.5 237,-71.5 237,-39.5 84,-39.5"/>
<text text-anchor="start" x="92" y="-58.5" font-family="FreeSans" font-size="10.00" fill="#000000">ActsExamples::PlotHelpers</text>
<text text-anchor="middle" x="160.5" y="-46.5" font-family="FreeSans" font-size="10.00" fill="#000000">::Binning::low</text>
</a>
</g>
</g>
<!-- Node1&#45;&gt;Node2 -->
<g id="edge1" class="edge">
<title>Node1&#45;&gt;Node2</title>
<path fill="none" stroke="#191970" d="M48.0892,-36.559C55.701,-37.8416 64.597,-39.3405 73.9912,-40.9234"/>
<polygon fill="#191970" stroke="#191970" points="73.4857,-44.3875 83.9283,-42.5978 74.6489,-37.4848 73.4857,-44.3875"/>
</g>
<!-- Node3 -->
<g id="node3" class="node">
<title>Node3</title>
<g id="a_node3"><a xlink:href="../../d6/dcf/pythia6425mod_8f.html#ad55d6b28c99ff45eed4e4ea1aca1d685" target="_top" xlink:title="pythag">
<polygon fill="none" stroke="#000000" points="135,-.5 135,-20.5 186,-20.5 186,-.5 135,-.5"/>
<text text-anchor="middle" x="160.5" y="-7.5" font-family="FreeSans" font-size="10.00" fill="#000000">pythag</text>
</a>
</g>
</g>
<!-- Node1&#45;&gt;Node3 -->
<g id="edge2" class="edge">
<title>Node1&#45;&gt;Node3</title>
<path fill="none" stroke="#191970" d="M48.0892,-28.6175C69.3854,-25.1851 100.7345,-20.1325 124.9201,-16.2345"/>
<polygon fill="#191970" stroke="#191970" points="125.4809,-19.6894 134.7966,-14.6427 124.367,-12.7785 125.4809,-19.6894"/>
</g>
</g>
</svg>
