<?xml version="1.0" encoding="UTF-8" standalone="no"?>
<!DOCTYPE svg PUBLIC "-//W3C//DTD SVG 1.1//EN"
 "http://www.w3.org/Graphics/SVG/1.1/DTD/svg11.dtd">
<!-- Generated by graphviz version 2.40.1 (20161225.0304)
 -->
<!-- Title: pyinki Pages: 1 -->
<svg width="788pt" height="641pt"
 viewBox="0.00 0.00 788.00 641.01" xmlns="http://www.w3.org/2000/svg" xmlns:xlink="http://www.w3.org/1999/xlink">
<g id="graph0" class="graph" transform="scale(1 1) rotate(0) translate(4 637.0052)">
<title>pyinki</title>
<!-- Node1 -->
<g id="node1" class="node">
<title>Node1</title>
<polygon fill="#bfbfbf" stroke="#000000" points="0,-281 0,-301 46,-301 46,-281 0,-281"/>
<text text-anchor="middle" x="23" y="-288" font-family="FreeSans" font-size="10.00" fill="#000000">pyinki</text>
</g>
<!-- Node2 -->
<g id="node2" class="node">
<title>Node2</title>
<g id="a_node2"><a xlink:href="../../da/d72/structActs_1_1detail_1_1PhiBoundParameterLimits.html#a04ea1c8ef7fa6ef9596ffec9da84eae1" target="_top" xlink:title="Acts::detail::PhiBoundParameter\lLimits::max">
<polygon fill="none" stroke="#000000" points="599,-296 599,-328 780,-328 780,-296 599,-296"/>
<text text-anchor="start" x="607" y="-315" font-family="FreeSans" font-size="10.00" fill="#000000">Acts::detail::PhiBoundParameter</text>
<text text-anchor="middle" x="689.5" y="-303" font-family="FreeSans" font-size="10.00" fill="#000000">Limits::max</text>
</a>
</g>
</g>
<!-- Node1&#45;&gt;Node2 -->
<g id="edge1" class="edge">
<title>Node1&#45;&gt;Node2</title>
<path fill="none" stroke="#191970" d="M46.091,-291C79.1044,-291 141.6979,-291 195,-291 195,-291 195,-291 279,-291 384.6664,-291 505.433,-298.0258 588.4793,-303.9498"/>
<polygon fill="#191970" stroke="#191970" points="588.4441,-307.4563 598.67,-304.6847 588.9477,-300.4744 588.4441,-307.4563"/>
</g>
<!-- Node3 -->
<g id="node3" class="node">
<title>Node3</title>
<g id="a_node3"><a xlink:href="../../d6/dcf/pythia6425mod_8f.html#aa8c99978a55999fa0b1fd2a946d8553a" target="_top" xlink:title="pyangl">
<polygon fill="none" stroke="#000000" points="487,-29 487,-49 537,-49 537,-29 487,-29"/>
<text text-anchor="middle" x="512" y="-36" font-family="FreeSans" font-size="10.00" fill="#000000">pyangl</text>
</a>
</g>
</g>
<!-- Node1&#45;&gt;Node3 -->
<g id="edge2" class="edge">
<title>Node1&#45;&gt;Node3</title>
<path fill="none" stroke="#191970" d="M26.2795,-280.8429C39.8689,-240.9259 95.7489,-97 195,-97 195,-97 195,-97 279,-97 317.5565,-97 422.053,-66.715 477.0602,-49.9131"/>
<polygon fill="#191970" stroke="#191970" points="478.197,-53.2254 486.7283,-46.943 476.1413,-46.534 478.197,-53.2254"/>
</g>
<!-- Node4 -->
<g id="node4" class="node">
<title>Node4</title>
<g id="a_node4"><a xlink:href="../../d2/d0c/hdo_8cpp.html#a8f3cba07aa75b7320ae8bd6c0aeac498" target="_top" xlink:title="sign">
<polygon fill="none" stroke="#000000" points="671,-29 671,-49 708,-49 708,-29 671,-29"/>
<text text-anchor="middle" x="689.5" y="-36" font-family="FreeSans" font-size="10.00" fill="#000000">sign</text>
</a>
</g>
</g>
<!-- Node1&#45;&gt;Node4 -->
<g id="edge36" class="edge">
<title>Node1&#45;&gt;Node4</title>
<path fill="none" stroke="#191970" d="M23.9565,-280.9831C29.4382,-229.8137 61.4895,0 195,0 195,0 195,0 381,0 484.753,0 606.5949,-21.9804 660.8907,-32.9384"/>
<polygon fill="#191970" stroke="#191970" points="660.3249,-36.3951 670.8239,-34.9732 661.7297,-29.5375 660.3249,-36.3951"/>
</g>
<!-- Node5 -->
<g id="node5" class="node">
<title>Node5</title>
<g id="a_node5"><a xlink:href="../../d6/dcf/pythia6425mod_8f.html#a8a7efe2037220dc632000fb06895ebca" target="_top" xlink:title="pyerrm">
<polygon fill="none" stroke="#000000" points="169,-417 169,-437 221,-437 221,-417 169,-417"/>
<text text-anchor="middle" x="195" y="-424" font-family="FreeSans" font-size="10.00" fill="#000000">pyerrm</text>
</a>
</g>
</g>
<!-- Node1&#45;&gt;Node5 -->
<g id="edge4" class="edge">
<title>Node1&#45;&gt;Node5</title>
<path fill="none" stroke="#191970" d="M35.6476,-301.0004C65.0949,-324.2843 138.4604,-382.2943 174.4426,-410.7453"/>
<polygon fill="#191970" stroke="#191970" points="172.3189,-413.528 182.3339,-416.9849 176.6606,-408.0371 172.3189,-413.528"/>
</g>
<!-- Node25 -->
<g id="node25" class="node">
<title>Node25</title>
<g id="a_node25"><a xlink:href="../../d6/dcf/pythia6425mod_8f.html#a98ffa3df00dbe1c8a9944e3453e44580" target="_top" xlink:title="pyrobo">
<polygon fill="none" stroke="#000000" points="82,-398 82,-418 133,-418 133,-398 82,-398"/>
<text text-anchor="middle" x="107.5" y="-405" font-family="FreeSans" font-size="10.00" fill="#000000">pyrobo</text>
</a>
</g>
</g>
<!-- Node1&#45;&gt;Node25 -->
<g id="edge34" class="edge">
<title>Node1&#45;&gt;Node25</title>
<path fill="none" stroke="#191970" d="M30.4988,-301.383C44.8162,-321.2071 76.2165,-364.6844 94.1835,-389.5618"/>
<polygon fill="#191970" stroke="#191970" points="91.4463,-391.7498 100.1386,-397.8074 97.1211,-387.6513 91.4463,-391.7498"/>
</g>
<!-- Node3&#45;&gt;Node4 -->
<g id="edge3" class="edge">
<title>Node3&#45;&gt;Node4</title>
<path fill="none" stroke="#191970" d="M537.0549,-39C569.5637,-39 626.1712,-39 660.5028,-39"/>
<polygon fill="#191970" stroke="#191970" points="660.8079,-42.5001 670.8079,-39 660.8078,-35.5001 660.8079,-42.5001"/>
</g>
<!-- Node6 -->
<g id="node6" class="node">
<title>Node6</title>
<g id="a_node6"><a xlink:href="../../d5/d89/classValueGen1.html#a072deb230ac8bf0f6742e0484e030c52" target="_top" xlink:title="ValueGen1::i2">
<polygon fill="none" stroke="#000000" points="337,-593 337,-613 425,-613 425,-593 337,-593"/>
<text text-anchor="middle" x="381" y="-600" font-family="FreeSans" font-size="10.00" fill="#000000">ValueGen1::i2</text>
</a>
</g>
</g>
<!-- Node5&#45;&gt;Node6 -->
<g id="edge5" class="edge">
<title>Node5&#45;&gt;Node6</title>
<path fill="none" stroke="#191970" d="M201.818,-437.1848C220.4812,-464.3908 275.1529,-539.6993 337,-584 339.0716,-585.4839 341.2772,-586.8846 343.5552,-588.2009"/>
<polygon fill="#191970" stroke="#191970" points="342.078,-591.3772 352.5691,-592.8562 345.2902,-585.1577 342.078,-591.3772"/>
</g>
<!-- Node7 -->
<g id="node7" class="node">
<title>Node7</title>
<g id="a_node7"><a xlink:href="../../d6/dcf/pythia6425mod_8f.html#acc54128638bbd93cf630e1576f91d443" target="_top" xlink:title="pylist">
<polygon fill="none" stroke="#000000" points="257,-417 257,-437 301,-437 301,-417 257,-417"/>
<text text-anchor="middle" x="279" y="-424" font-family="FreeSans" font-size="10.00" fill="#000000">pylist</text>
</a>
</g>
</g>
<!-- Node5&#45;&gt;Node7 -->
<g id="edge6" class="edge">
<title>Node5&#45;&gt;Node7</title>
<path fill="none" stroke="#191970" d="M221.1177,-427C229.1771,-427 238.1516,-427 246.5819,-427"/>
<polygon fill="#191970" stroke="#191970" points="246.8597,-430.5001 256.8596,-427 246.8596,-423.5001 246.8597,-430.5001"/>
</g>
<!-- Node11 -->
<g id="node11" class="node">
<title>Node11</title>
<g id="a_node11"><a xlink:href="../../d6/dcf/pythia6425mod_8f.html#a4140396b9ec9bafcebf4c7ebecb462e7" target="_top" xlink:title="pystop">
<polygon fill="none" stroke="#000000" points="487,-593 487,-613 537,-613 537,-593 487,-593"/>
<text text-anchor="middle" x="512" y="-600" font-family="FreeSans" font-size="10.00" fill="#000000">pystop</text>
</a>
</g>
</g>
<!-- Node5&#45;&gt;Node11 -->
<g id="edge33" class="edge">
<title>Node5&#45;&gt;Node11</title>
<path fill="none" stroke="#191970" d="M198.1754,-437.3162C209.704,-472.6107 253.1465,-588.2667 337,-623 383.2251,-642.1471 441.8477,-628.6495 478.1382,-616.4143"/>
<polygon fill="#191970" stroke="#191970" points="479.4854,-619.6505 487.753,-613.0249 477.1582,-613.0487 479.4854,-619.6505"/>
</g>
<!-- Node7&#45;&gt;Node2 -->
<g id="edge15" class="edge">
<title>Node7&#45;&gt;Node2</title>
<path fill="none" stroke="#191970" d="M291.5862,-416.7885C302.845,-408.1522 320.1289,-396.084 337,-389 418.2255,-354.8944 516.5894,-335.0231 588.7482,-324.0394"/>
<polygon fill="#191970" stroke="#191970" points="589.3772,-327.4844 598.7517,-322.548 588.3449,-320.5609 589.3772,-327.4844"/>
</g>
<!-- Node7&#45;&gt;Node6 -->
<g id="edge29" class="edge">
<title>Node7&#45;&gt;Node6</title>
<path fill="none" stroke="#191970" d="M281.6736,-437.3382C289.9413,-468.6456 315.8137,-561.643 337,-584 338.0374,-585.0947 339.1484,-586.1296 340.3175,-587.1077"/>
<polygon fill="#191970" stroke="#191970" points="338.4624,-590.0783 348.7095,-592.7704 342.3778,-584.2757 338.4624,-590.0783"/>
</g>
<!-- Node8 -->
<g id="node8" class="node">
<title>Node8</title>
<g id="a_node8"><a xlink:href="../../dc/d9f/hcalUtil_8C.html#af562b1ac3ac927ecde202ce0501a97a6" target="_top" xlink:title="ps">
<polygon fill="none" stroke="#000000" points="366.5,-554 366.5,-574 395.5,-574 395.5,-554 366.5,-554"/>
<text text-anchor="middle" x="381" y="-561" font-family="FreeSans" font-size="10.00" fill="#000000">ps</text>
</a>
</g>
</g>
<!-- Node7&#45;&gt;Node8 -->
<g id="edge7" class="edge">
<title>Node7&#45;&gt;Node8</title>
<path fill="none" stroke="#191970" d="M282.057,-437.1508C288.8697,-458.3457 307.0959,-507.9105 337,-539 342.611,-544.8334 349.8817,-549.7059 356.8909,-553.5536"/>
<polygon fill="#191970" stroke="#191970" points="355.5966,-556.8195 366.1064,-558.1594 358.7261,-550.558 355.5966,-556.8195"/>
</g>
<!-- Node10 -->
<g id="node10" class="node">
<title>Node10</title>
<g id="a_node10"><a xlink:href="../../d6/dcf/pythia6425mod_8f.html#a56718d08dbb42b3b978fc9b5bd6970e6" target="_top" xlink:title="pylogo">
<polygon fill="none" stroke="#000000" points="356,-437 356,-457 406,-457 406,-437 356,-437"/>
<text text-anchor="middle" x="381" y="-444" font-family="FreeSans" font-size="10.00" fill="#000000">pylogo</text>
</a>
</g>
</g>
<!-- Node7&#45;&gt;Node10 -->
<g id="edge9" class="edge">
<title>Node7&#45;&gt;Node10</title>
<path fill="none" stroke="#191970" d="M301.1325,-431.3397C314.1765,-433.8974 330.9771,-437.1916 345.8013,-440.0983"/>
<polygon fill="#191970" stroke="#191970" points="345.1914,-443.5453 355.678,-442.0349 346.5383,-436.6761 345.1914,-443.5453"/>
</g>
<!-- Node13 -->
<g id="node13" class="node">
<title>Node13</title>
<g id="a_node13"><a xlink:href="../../d5/d89/classValueGen1.html#adac3584a4cd24abc0946b772431a39bb" target="_top" xlink:title="ValueGen1::i4">
<polygon fill="none" stroke="#000000" points="645.5,-531 645.5,-551 733.5,-551 733.5,-531 645.5,-531"/>
<text text-anchor="middle" x="689.5" y="-538" font-family="FreeSans" font-size="10.00" fill="#000000">ValueGen1::i4</text>
</a>
</g>
</g>
<!-- Node7&#45;&gt;Node13 -->
<g id="edge28" class="edge">
<title>Node7&#45;&gt;Node13</title>
<path fill="none" stroke="#191970" d="M283.0984,-437.128C290.7641,-454.6023 309.0645,-490.0707 337,-506 386.5401,-534.2487 549.3062,-539.9368 635.243,-540.9267"/>
<polygon fill="#191970" stroke="#191970" points="635.2957,-544.4272 645.3295,-541.0253 635.3642,-537.4276 635.2957,-544.4272"/>
</g>
<!-- Node15 -->
<g id="node15" class="node">
<title>Node15</title>
<g id="a_node15"><a xlink:href="../../d6/dcf/pythia6425mod_8f.html#ab0dbe916b7d36854c02faf180f41d585" target="_top" xlink:title="pyname">
<polygon fill="none" stroke="#000000" points="352.5,-476 352.5,-496 409.5,-496 409.5,-476 352.5,-476"/>
<text text-anchor="middle" x="381" y="-483" font-family="FreeSans" font-size="10.00" fill="#000000">pyname</text>
</a>
</g>
</g>
<!-- Node7&#45;&gt;Node15 -->
<g id="edge16" class="edge">
<title>Node7&#45;&gt;Node15</title>
<path fill="none" stroke="#191970" d="M292.3411,-437.3231C303.7947,-445.9068 320.9486,-458.1121 337,-467 339.9117,-468.6123 342.9877,-470.1845 346.1056,-471.69"/>
<polygon fill="#191970" stroke="#191970" points="344.9135,-474.9937 355.4625,-475.979 347.8304,-468.6304 344.9135,-474.9937"/>
</g>
<!-- Node16 -->
<g id="node16" class="node">
<title>Node16</title>
<g id="a_node16"><a xlink:href="../../d6/dcf/pythia6425mod_8f.html#a6cee1eea51c820d9e90932c9eca205b7" target="_top" xlink:title="pyp">
<polygon fill="none" stroke="#000000" points="363.5,-165 363.5,-185 398.5,-185 398.5,-165 363.5,-165"/>
<text text-anchor="middle" x="381" y="-172" font-family="FreeSans" font-size="10.00" fill="#000000">pyp</text>
</a>
</g>
</g>
<!-- Node7&#45;&gt;Node16 -->
<g id="edge17" class="edge">
<title>Node7&#45;&gt;Node16</title>
<path fill="none" stroke="#191970" d="M281.0022,-416.8139C286.9222,-387.9 305.8995,-303.2571 337,-239 344.9412,-222.5925 356.7654,-205.6665 366.1569,-193.3451"/>
<polygon fill="#191970" stroke="#191970" points="369.0753,-195.2947 372.4752,-185.2602 363.5597,-190.9844 369.0753,-195.2947"/>
</g>
<!-- Node17 -->
<g id="node17" class="node">
<title>Node17</title>
<g id="a_node17"><a xlink:href="../../d5/d89/classValueGen1.html#a9558bbb6f1b9bfcb2631b70b720742fc" target="_top" xlink:title="ValueGen1::i1">
<polygon fill="none" stroke="#000000" points="468,-263 468,-283 556,-283 556,-263 468,-263"/>
<text text-anchor="middle" x="512" y="-270" font-family="FreeSans" font-size="10.00" fill="#000000">ValueGen1::i1</text>
</a>
</g>
</g>
<!-- Node7&#45;&gt;Node17 -->
<g id="edge31" class="edge">
<title>Node7&#45;&gt;Node17</title>
<path fill="none" stroke="#191970" d="M281.0069,-416.7421C286.0415,-393.8876 301.4386,-338.6271 337,-311 371.2235,-284.4123 420.0629,-275.5125 457.4542,-272.9211"/>
<polygon fill="#191970" stroke="#191970" points="457.8868,-276.4024 467.6752,-272.348 457.4949,-269.4134 457.8868,-276.4024"/>
</g>
<!-- Node23 -->
<g id="node23" class="node">
<title>Node23</title>
<g id="a_node23"><a xlink:href="../../d5/d89/classValueGen1.html#a0a32cfdf50e9bb9c84580912795b1e41" target="_top" xlink:title="ValueGen1::i3">
<polygon fill="none" stroke="#000000" points="337,-398 337,-418 425,-418 425,-398 337,-398"/>
<text text-anchor="middle" x="381" y="-405" font-family="FreeSans" font-size="10.00" fill="#000000">ValueGen1::i3</text>
</a>
</g>
</g>
<!-- Node7&#45;&gt;Node23 -->
<g id="edge30" class="edge">
<title>Node7&#45;&gt;Node23</title>
<path fill="none" stroke="#191970" d="M301.1325,-422.8773C308.7915,-421.4506 317.7457,-419.7827 326.8345,-418.0896"/>
<polygon fill="#191970" stroke="#191970" points="327.5048,-421.5251 336.6947,-416.2529 326.2229,-414.6435 327.5048,-421.5251"/>
</g>
<!-- Node24 -->
<g id="node24" class="node">
<title>Node24</title>
<g id="a_node24"><a xlink:href="../../d5/d89/classValueGen1.html#a4d833b840495a0aee4e37d3c6bce1650" target="_top" xlink:title="ValueGen1::i5">
<polygon fill="none" stroke="#000000" points="337,-320 337,-340 425,-340 425,-320 337,-320"/>
<text text-anchor="middle" x="381" y="-327" font-family="FreeSans" font-size="10.00" fill="#000000">ValueGen1::i5</text>
</a>
</g>
</g>
<!-- Node7&#45;&gt;Node24 -->
<g id="edge32" class="edge">
<title>Node7&#45;&gt;Node24</title>
<path fill="none" stroke="#191970" d="M285.4806,-416.6793C295.2569,-401.7085 314.9894,-373.7163 337,-355 341.0786,-351.5318 345.7087,-348.2982 350.3965,-345.384"/>
<polygon fill="#191970" stroke="#191970" points="352.454,-348.237 359.3527,-340.1958 348.9452,-342.1798 352.454,-348.237"/>
</g>
<!-- Node9 -->
<g id="node9" class="node">
<title>Node9</title>
<g id="a_node9"><a xlink:href="../../da/d55/TPCRateLayered_8m.html#a7507ef556477c204b499f1e189d40796" target="_top" xlink:title="sum">
<polygon fill="none" stroke="#000000" points="493,-554 493,-574 531,-574 531,-554 493,-554"/>
<text text-anchor="middle" x="512" y="-561" font-family="FreeSans" font-size="10.00" fill="#000000">sum</text>
</a>
</g>
</g>
<!-- Node8&#45;&gt;Node9 -->
<g id="edge8" class="edge">
<title>Node8&#45;&gt;Node9</title>
<path fill="none" stroke="#191970" d="M395.5198,-564C416.456,-564 455.578,-564 482.6713,-564"/>
<polygon fill="#191970" stroke="#191970" points="482.7541,-567.5001 492.7541,-564 482.754,-560.5001 482.7541,-567.5001"/>
</g>
<!-- Node10&#45;&gt;Node2 -->
<g id="edge14" class="edge">
<title>Node10&#45;&gt;Node2</title>
<path fill="none" stroke="#191970" d="M406.1137,-449.1961C442.4446,-451.3338 511.0026,-451.4125 563,-428 608.7991,-407.3784 649.13,-363.6211 671.3375,-336.136"/>
<polygon fill="#191970" stroke="#191970" points="674.1773,-338.1874 677.6336,-328.1722 668.6861,-333.8461 674.1773,-338.1874"/>
</g>
<!-- Node10&#45;&gt;Node11 -->
<g id="edge10" class="edge">
<title>Node10&#45;&gt;Node11</title>
<path fill="none" stroke="#191970" d="M406.2182,-454.1689C413.094,-457.1736 420.0128,-461.3291 425,-467 460.9289,-507.8548 423.6633,-544.4276 461,-584 465.4681,-588.7356 471.2258,-592.2984 477.2552,-594.9767"/>
<polygon fill="#191970" stroke="#191970" points="476.2139,-598.3231 486.8072,-598.4988 478.6356,-591.7553 476.2139,-598.3231"/>
</g>
<!-- Node14 -->
<g id="node14" class="node">
<title>Node14</title>
<g id="a_node14"><a xlink:href="../../d6/dcf/pythia6425mod_8f.html#a523e4acf745637220400daf831c34a23" target="_top" xlink:title="pytime">
<polygon fill="none" stroke="#000000" points="486.5,-398 486.5,-418 537.5,-418 537.5,-398 486.5,-398"/>
<text text-anchor="middle" x="512" y="-405" font-family="FreeSans" font-size="10.00" fill="#000000">pytime</text>
</a>
</g>
</g>
<!-- Node10&#45;&gt;Node14 -->
<g id="edge13" class="edge">
<title>Node10&#45;&gt;Node14</title>
<path fill="none" stroke="#191970" d="M406.2581,-439.4804C426.2454,-433.53 454.3951,-425.1496 476.6255,-418.5313"/>
<polygon fill="#191970" stroke="#191970" points="477.7868,-421.8375 486.3724,-415.6296 475.7895,-415.1285 477.7868,-421.8375"/>
</g>
<!-- Node12 -->
<g id="node12" class="node">
<title>Node12</title>
<g id="a_node12"><a xlink:href="../../d4/da6/classActs_1_1ExaTrkXTimer.html#a00d2cecc70cefbf45e374fb27c11632d" target="_top" xlink:title="Acts::ExaTrkXTimer\l::stop">
<polygon fill="none" stroke="#000000" points="632,-587 632,-619 747,-619 747,-587 632,-587"/>
<text text-anchor="start" x="640" y="-606" font-family="FreeSans" font-size="10.00" fill="#000000">Acts::ExaTrkXTimer</text>
<text text-anchor="middle" x="689.5" y="-594" font-family="FreeSans" font-size="10.00" fill="#000000">::stop</text>
</a>
</g>
</g>
<!-- Node11&#45;&gt;Node12 -->
<g id="edge11" class="edge">
<title>Node11&#45;&gt;Node12</title>
<path fill="none" stroke="#191970" d="M537.0549,-603C558.9388,-603 591.7429,-603 621.3211,-603"/>
<polygon fill="#191970" stroke="#191970" points="621.6255,-606.5001 631.6255,-603 621.6254,-599.5001 621.6255,-606.5001"/>
</g>
<!-- Node11&#45;&gt;Node13 -->
<g id="edge12" class="edge">
<title>Node11&#45;&gt;Node13</title>
<path fill="none" stroke="#191970" d="M537.0549,-594.2484C566.714,-583.8886 616.432,-566.5223 650.992,-554.4507"/>
<polygon fill="#191970" stroke="#191970" points="652.4631,-557.6443 660.7496,-551.0424 650.1547,-551.0358 652.4631,-557.6443"/>
</g>
<!-- Node16&#45;&gt;Node2 -->
<g id="edge19" class="edge">
<title>Node16&#45;&gt;Node2</title>
<path fill="none" stroke="#191970" d="M398.5552,-184.4041C414.6069,-192.8517 439.1108,-205.3709 461,-215 505.4256,-234.5429 518.251,-235.2095 563,-254 591.1217,-265.8085 622.2702,-280.0752 646.6217,-291.504"/>
<polygon fill="#191970" stroke="#191970" points="645.3989,-294.7968 655.9369,-295.8929 648.3825,-288.4645 645.3989,-294.7968"/>
</g>
<!-- Node16&#45;&gt;Node3 -->
<g id="edge21" class="edge">
<title>Node16&#45;&gt;Node3</title>
<path fill="none" stroke="#191970" d="M387.8933,-164.8541C405.5465,-138.9572 451.6515,-71.8907 461,-64 465.9945,-59.7843 471.8215,-56.0758 477.7152,-52.8943"/>
<polygon fill="#191970" stroke="#191970" points="479.5157,-55.9083 486.9214,-48.3316 476.4072,-49.6363 479.5157,-55.9083"/>
</g>
<!-- Node16&#45;&gt;Node4 -->
<g id="edge25" class="edge">
<title>Node16&#45;&gt;Node4</title>
<path fill="none" stroke="#191970" d="M388.4054,-164.9191C401.2539,-148.1767 429.3537,-114.7291 461,-97 526.6172,-60.2396 615.7743,-46.3683 660.863,-41.4671"/>
<polygon fill="#191970" stroke="#191970" points="661.2281,-44.9481 670.8226,-40.4541 660.5197,-37.984 661.2281,-44.9481"/>
</g>
<!-- Node16&#45;&gt;Node17 -->
<g id="edge18" class="edge">
<title>Node16&#45;&gt;Node17</title>
<path fill="none" stroke="#191970" d="M390.3324,-185.1942C404.5253,-200.2859 432.8686,-228.848 461,-248 466.4561,-251.7145 472.5458,-255.1958 478.5646,-258.3118"/>
<polygon fill="#191970" stroke="#191970" points="477.3456,-261.6128 487.8634,-262.8887 480.437,-255.3323 477.3456,-261.6128"/>
</g>
<!-- Node18 -->
<g id="node18" class="node">
<title>Node18</title>
<g id="a_node18"><a xlink:href="../../d6/dcf/pythia6425mod_8f.html#a27f75936fde97780175fa2c990bc61cd" target="_top" xlink:title="pychge">
<polygon fill="none" stroke="#000000" points="485.5,-146 485.5,-166 538.5,-166 538.5,-146 485.5,-146"/>
<text text-anchor="middle" x="512" y="-153" font-family="FreeSans" font-size="10.00" fill="#000000">pychge</text>
</a>
</g>
</g>
<!-- Node16&#45;&gt;Node18 -->
<g id="edge20" class="edge">
<title>Node16&#45;&gt;Node18</title>
<path fill="none" stroke="#191970" d="M398.6672,-172.4376C418.0999,-169.6191 449.8832,-165.0093 474.8538,-161.3876"/>
<polygon fill="#191970" stroke="#191970" points="475.6884,-164.8033 485.0825,-159.9041 474.6836,-157.8758 475.6884,-164.8033"/>
</g>
<!-- Node19 -->
<g id="node19" class="node">
<title>Node19</title>
<g id="a_node19"><a xlink:href="../../d6/dcf/pythia6425mod_8f.html#ad69903a1054f4f77d45fd8fe4c687aa9" target="_top" xlink:title="pymass">
<polygon fill="none" stroke="#000000" points="484.5,-185 484.5,-205 539.5,-205 539.5,-185 484.5,-185"/>
<text text-anchor="middle" x="512" y="-192" font-family="FreeSans" font-size="10.00" fill="#000000">pymass</text>
</a>
</g>
</g>
<!-- Node16&#45;&gt;Node19 -->
<g id="edge22" class="edge">
<title>Node16&#45;&gt;Node19</title>
<path fill="none" stroke="#191970" d="M398.6672,-177.6973C417.8554,-180.6268 449.0856,-185.3947 473.9083,-189.1845"/>
<polygon fill="#191970" stroke="#191970" points="473.6868,-192.6911 484.1005,-190.7405 474.7433,-185.7713 473.6868,-192.6911"/>
</g>
<!-- Node21 -->
<g id="node21" class="node">
<title>Node21</title>
<g id="a_node21"><a xlink:href="../../d4/d3e/classActs_1_1Logger.html#a2e009357e8b3be1d10f072a71074ba58" target="_top" xlink:title="log a debug message">
<polygon fill="none" stroke="#000000" points="461,-107 461,-127 563,-127 563,-107 461,-107"/>
<text text-anchor="middle" x="512" y="-114" font-family="FreeSans" font-size="10.00" fill="#000000">Acts::Logger::log</text>
</a>
</g>
</g>
<!-- Node16&#45;&gt;Node21 -->
<g id="edge26" class="edge">
<title>Node16&#45;&gt;Node21</title>
<path fill="none" stroke="#191970" d="M398.5648,-165.8261C414.6228,-157.5864 439.1309,-145.3781 461,-136 465.1669,-134.2131 469.5635,-132.4286 473.9574,-130.7082"/>
<polygon fill="#191970" stroke="#191970" points="475.3896,-133.9078 483.4815,-127.0688 472.8909,-127.369 475.3896,-133.9078"/>
</g>
<!-- Node19&#45;&gt;Node2 -->
<g id="edge23" class="edge">
<title>Node19&#45;&gt;Node2</title>
<path fill="none" stroke="#191970" d="M534.5347,-205.0146C543.5705,-209.2939 553.9627,-214.5547 563,-220 598.5256,-241.4056 636.6889,-270.017 661.697,-289.6165"/>
<polygon fill="#191970" stroke="#191970" points="659.6329,-292.4462 669.6509,-295.8944 663.9698,-286.9515 659.6329,-292.4462"/>
</g>
<!-- Node20 -->
<g id="node20" class="node">
<title>Node20</title>
<g id="a_node20"><a xlink:href="../../d6/dcf/pythia6425mod_8f.html#ac28b7ef95cee2881a46f71d3a88d05ac" target="_top" xlink:title="pyr">
<polygon fill="none" stroke="#000000" points="673,-185 673,-205 706,-205 706,-185 673,-185"/>
<text text-anchor="middle" x="689.5" y="-192" font-family="FreeSans" font-size="10.00" fill="#000000">pyr</text>
</a>
</g>
</g>
<!-- Node19&#45;&gt;Node20 -->
<g id="edge24" class="edge">
<title>Node19&#45;&gt;Node20</title>
<path fill="none" stroke="#191970" d="M539.7344,-195C573.1979,-195 629.0927,-195 662.3106,-195"/>
<polygon fill="#191970" stroke="#191970" points="662.6412,-198.5001 672.6412,-195 662.6412,-191.5001 662.6412,-198.5001"/>
</g>
<!-- Node22 -->
<g id="node22" class="node">
<title>Node22</title>
<g id="a_node22"><a xlink:href="../../d4/d3e/classActs_1_1Logger.html#a7014d28adf021f598d69b840aa77c486" target="_top" xlink:title="decide whether a message with a given debug level has to be printed">
<polygon fill="none" stroke="#000000" points="628,-107 628,-127 751,-127 751,-107 628,-107"/>
<text text-anchor="middle" x="689.5" y="-114" font-family="FreeSans" font-size="10.00" fill="#000000">Acts::Logger::doPrint</text>
</a>
</g>
</g>
<!-- Node21&#45;&gt;Node22 -->
<g id="edge27" class="edge">
<title>Node21&#45;&gt;Node22</title>
<path fill="none" stroke="#191970" d="M563.3404,-117C580.3591,-117 599.6243,-117 617.8837,-117"/>
<polygon fill="#191970" stroke="#191970" points="617.9037,-120.5001 627.9037,-117 617.9036,-113.5001 617.9037,-120.5001"/>
</g>
<!-- Node25&#45;&gt;Node5 -->
<g id="edge35" class="edge">
<title>Node25&#45;&gt;Node5</title>
<path fill="none" stroke="#191970" d="M133.2796,-413.5979C141.3233,-415.3445 150.3479,-417.3041 158.9608,-419.1743"/>
<polygon fill="#191970" stroke="#191970" points="158.284,-422.6089 168.799,-421.3106 159.7694,-415.7683 158.284,-422.6089"/>
</g>
</g>
</svg>
