<?xml version="1.0" encoding="UTF-8" standalone="no"?>
<!DOCTYPE svg PUBLIC "-//W3C//DTD SVG 1.1//EN"
 "http://www.w3.org/Graphics/SVG/1.1/DTD/svg11.dtd">
<!-- Generated by graphviz version 2.40.1 (20161225.0304)
 -->
<!-- Title: tinyxml2::XMLUtil::StringEqual Pages: 1 -->
<svg width="824pt" height="633pt"
 viewBox="0.00 0.00 824.00 633.00" xmlns="http://www.w3.org/2000/svg" xmlns:xlink="http://www.w3.org/1999/xlink">
<g id="graph0" class="graph" transform="scale(1 1) rotate(0) translate(4 629)">
<title>tinyxml2::XMLUtil::StringEqual</title>
<!-- Node1 -->
<g id="node1" class="node">
<title>Node1</title>
<polygon fill="#bfbfbf" stroke="#000000" points="0,-306.5 0,-338.5 111,-338.5 111,-306.5 0,-306.5"/>
<text text-anchor="start" x="8" y="-325.5" font-family="FreeSans" font-size="10.00" fill="#000000">tinyxml2::XMLUtil::</text>
<text text-anchor="middle" x="55.5" y="-313.5" font-family="FreeSans" font-size="10.00" fill="#000000">StringEqual</text>
</g>
<!-- Node2 -->
<g id="node2" class="node">
<title>Node2</title>
<g id="a_node2"><a xlink:href="../../d5/d83/classtinyxml2_1_1XMLElement.html#a7bdebdf1888074087237f3dd03912740" target="_top" xlink:title="tinyxml2::XMLElement\l::Attribute">
<polygon fill="none" stroke="#000000" points="330,-553.5 330,-585.5 461,-585.5 461,-553.5 330,-553.5"/>
<text text-anchor="start" x="338" y="-572.5" font-family="FreeSans" font-size="10.00" fill="#000000">tinyxml2::XMLElement</text>
<text text-anchor="middle" x="395.5" y="-560.5" font-family="FreeSans" font-size="10.00" fill="#000000">::Attribute</text>
</a>
</g>
</g>
<!-- Node1&#45;&gt;Node2 -->
<g id="edge1" class="edge">
<title>Node1&#45;&gt;Node2</title>
<path fill="none" stroke="#191970" d="M60.4394,-348.7293C72.6684,-410.5486 106.3281,-562.3741 147,-591.5 210.9118,-637.2685 309.1094,-607.0802 360.8508,-585.6335"/>
<polygon fill="#191970" stroke="#191970" points="63.8168,-347.7613 58.4715,-338.6136 56.9456,-349.098 63.8168,-347.7613"/>
</g>
<!-- Node7 -->
<g id="node7" class="node">
<title>Node7</title>
<g id="a_node7"><a xlink:href="../../d5/d83/classtinyxml2_1_1XMLElement.html#aebd45aa7118964c30b32fe12e944628a" target="_top" xlink:title="tinyxml2::XMLElement\l::DeleteAttribute">
<polygon fill="none" stroke="#000000" points="154.5,-498.5 154.5,-530.5 285.5,-530.5 285.5,-498.5 154.5,-498.5"/>
<text text-anchor="start" x="162.5" y="-517.5" font-family="FreeSans" font-size="10.00" fill="#000000">tinyxml2::XMLElement</text>
<text text-anchor="middle" x="220" y="-505.5" font-family="FreeSans" font-size="10.00" fill="#000000">::DeleteAttribute</text>
</a>
</g>
</g>
<!-- Node1&#45;&gt;Node7 -->
<g id="edge6" class="edge">
<title>Node1&#45;&gt;Node7</title>
<path fill="none" stroke="#191970" d="M63.1901,-348.7668C75.2141,-385.3782 101.8838,-451.518 147,-489.5 150.9968,-492.8648 155.47,-495.7845 160.1817,-498.3168"/>
<polygon fill="#191970" stroke="#191970" points="66.4048,-347.3239 60.0538,-338.8435 59.7302,-349.4334 66.4048,-347.3239"/>
</g>
<!-- Node9 -->
<g id="node9" class="node">
<title>Node9</title>
<g id="a_node9"><a xlink:href="../../d5/d83/classtinyxml2_1_1XMLElement.html#aaf46b0799ea419e5d070ac9a357de48f" target="_top" xlink:title="Query a specific attribute in the list.">
<polygon fill="none" stroke="#000000" points="154.5,-549.5 154.5,-581.5 285.5,-581.5 285.5,-549.5 154.5,-549.5"/>
<text text-anchor="start" x="162.5" y="-568.5" font-family="FreeSans" font-size="10.00" fill="#000000">tinyxml2::XMLElement</text>
<text text-anchor="middle" x="220" y="-556.5" font-family="FreeSans" font-size="10.00" fill="#000000">::FindAttribute</text>
</a>
</g>
</g>
<!-- Node1&#45;&gt;Node9 -->
<g id="edge9" class="edge">
<title>Node1&#45;&gt;Node9</title>
<path fill="none" stroke="#191970" d="M59.394,-348.6964C67.4962,-394.0876 90.3689,-487.5652 147,-540.5 150.621,-543.8847 154.7203,-546.8132 159.0838,-549.3467"/>
<polygon fill="#191970" stroke="#191970" points="62.8316,-348.0327 57.7204,-338.7523 55.9287,-349.1945 62.8316,-348.0327"/>
</g>
<!-- Node10 -->
<g id="node10" class="node">
<title>Node10</title>
<g id="a_node10"><a xlink:href="../../d5/d83/classtinyxml2_1_1XMLElement.html#ac9d8fc849ec8acf46678217de011e896" target="_top" xlink:title="tinyxml2::XMLElement\l::FindOrCreateAttribute">
<polygon fill="none" stroke="#000000" points="153.5,-447.5 153.5,-479.5 286.5,-479.5 286.5,-447.5 153.5,-447.5"/>
<text text-anchor="start" x="161.5" y="-466.5" font-family="FreeSans" font-size="10.00" fill="#000000">tinyxml2::XMLElement</text>
<text text-anchor="middle" x="220" y="-454.5" font-family="FreeSans" font-size="10.00" fill="#000000">::FindOrCreateAttribute</text>
</a>
</g>
</g>
<!-- Node1&#45;&gt;Node10 -->
<g id="edge11" class="edge">
<title>Node1&#45;&gt;Node10</title>
<path fill="none" stroke="#191970" d="M69.4511,-347.7414C85.1242,-373.9181 112.8891,-414.331 147,-438.5 151.8094,-441.9077 157.1221,-444.8825 162.623,-447.4726"/>
<polygon fill="#191970" stroke="#191970" points="72.2962,-345.6725 64.2345,-338.798 66.2496,-349.1994 72.2962,-345.6725"/>
</g>
<!-- Node11 -->
<g id="node11" class="node">
<title>Node11</title>
<g id="a_node11"><a xlink:href="../../d3/d63/classtinyxml2_1_1XMLDocument.html#a25827d1bec509ad566a107e5853ed040" target="_top" xlink:title="tinyxml2::XMLDocument\l::Identify">
<polygon fill="none" stroke="#000000" points="149.5,-396.5 149.5,-428.5 290.5,-428.5 290.5,-396.5 149.5,-396.5"/>
<text text-anchor="start" x="157.5" y="-415.5" font-family="FreeSans" font-size="10.00" fill="#000000">tinyxml2::XMLDocument</text>
<text text-anchor="middle" x="220" y="-403.5" font-family="FreeSans" font-size="10.00" fill="#000000">::Identify</text>
</a>
</g>
</g>
<!-- Node1&#45;&gt;Node11 -->
<g id="edge12" class="edge">
<title>Node1&#45;&gt;Node11</title>
<path fill="none" stroke="#191970" d="M86.7371,-344.5385C104.0567,-356.2681 126.2338,-370.4995 147,-381.5 157.0988,-386.8497 168.3228,-391.9891 178.8808,-396.4922"/>
<polygon fill="#191970" stroke="#191970" points="88.3846,-341.4248 78.156,-338.6632 84.4299,-347.2007 88.3846,-341.4248"/>
</g>
<!-- Node12 -->
<g id="node12" class="node">
<title>Node12</title>
<g id="a_node12"><a xlink:href="../../d6/de3/classtinyxml2_1_1XMLNode.html#a7610d0f603e8b603d2078521811a23c1" target="_top" xlink:title="tinyxml2::XMLNode::\lParseDeep">
<polygon fill="none" stroke="#000000" points="335,-391.5 335,-423.5 456,-423.5 456,-391.5 335,-391.5"/>
<text text-anchor="start" x="343" y="-410.5" font-family="FreeSans" font-size="10.00" fill="#000000">tinyxml2::XMLNode::</text>
<text text-anchor="middle" x="395.5" y="-398.5" font-family="FreeSans" font-size="10.00" fill="#000000">ParseDeep</text>
</a>
</g>
</g>
<!-- Node1&#45;&gt;Node12 -->
<g id="edge19" class="edge">
<title>Node1&#45;&gt;Node12</title>
<path fill="none" stroke="#191970" d="M120.2149,-341.2688C129.1951,-343.7622 138.3157,-346.2364 147,-348.5 210.8257,-365.1365 284.3786,-382.3594 334.8056,-393.8704"/>
<polygon fill="#191970" stroke="#191970" points="121.126,-337.8894 110.5527,-338.5647 119.2394,-344.6304 121.126,-337.8894"/>
</g>
<!-- Node16 -->
<g id="node16" class="node">
<title>Node16</title>
<g id="a_node16"><a xlink:href="../../da/de6/classtinyxml2_1_1XMLText.html#a1588aa5d23cb21eb31f36df0aaaa8d66" target="_top" xlink:title="tinyxml2::XMLText::\lShallowEqual">
<polygon fill="none" stroke="#000000" points="163.5,-306.5 163.5,-338.5 276.5,-338.5 276.5,-306.5 163.5,-306.5"/>
<text text-anchor="start" x="171.5" y="-325.5" font-family="FreeSans" font-size="10.00" fill="#000000">tinyxml2::XMLText::</text>
<text text-anchor="middle" x="220" y="-313.5" font-family="FreeSans" font-size="10.00" fill="#000000">ShallowEqual</text>
</a>
</g>
</g>
<!-- Node1&#45;&gt;Node16 -->
<g id="edge20" class="edge">
<title>Node1&#45;&gt;Node16</title>
<path fill="none" stroke="#191970" d="M121.5933,-322.5C135.3912,-322.5 149.8206,-322.5 163.2445,-322.5"/>
<polygon fill="#191970" stroke="#191970" points="121.1922,-319.0001 111.1922,-322.5 121.1922,-326.0001 121.1922,-319.0001"/>
</g>
<!-- Node17 -->
<g id="node17" class="node">
<title>Node17</title>
<g id="a_node17"><a xlink:href="../../dd/dcb/classtinyxml2_1_1XMLComment.html#a2d9f26757b0018fce933e74420cda22a" target="_top" xlink:title="tinyxml2::XMLComment\l::ShallowEqual">
<polygon fill="none" stroke="#000000" points="151,-255.5 151,-287.5 289,-287.5 289,-255.5 151,-255.5"/>
<text text-anchor="start" x="159" y="-274.5" font-family="FreeSans" font-size="10.00" fill="#000000">tinyxml2::XMLComment</text>
<text text-anchor="middle" x="220" y="-262.5" font-family="FreeSans" font-size="10.00" fill="#000000">::ShallowEqual</text>
</a>
</g>
</g>
<!-- Node1&#45;&gt;Node17 -->
<g id="edge21" class="edge">
<title>Node1&#45;&gt;Node17</title>
<path fill="none" stroke="#191970" d="M117.2794,-303.3465C134.084,-298.1366 152.1062,-292.5492 168.2898,-287.5317"/>
<polygon fill="#191970" stroke="#191970" points="116.0639,-300.0589 107.5488,-306.3633 118.1368,-306.745 116.0639,-300.0589"/>
</g>
<!-- Node18 -->
<g id="node18" class="node">
<title>Node18</title>
<g id="a_node18"><a xlink:href="../../d7/dde/classtinyxml2_1_1XMLDeclaration.html#ace0d2d9bc1b63278bd5e984ebe0c7bd0" target="_top" xlink:title="tinyxml2::XMLDeclaration\l::ShallowEqual">
<polygon fill="none" stroke="#000000" points="147,-204.5 147,-236.5 293,-236.5 293,-204.5 147,-204.5"/>
<text text-anchor="start" x="155" y="-223.5" font-family="FreeSans" font-size="10.00" fill="#000000">tinyxml2::XMLDeclaration</text>
<text text-anchor="middle" x="220" y="-211.5" font-family="FreeSans" font-size="10.00" fill="#000000">::ShallowEqual</text>
</a>
</g>
</g>
<!-- Node1&#45;&gt;Node18 -->
<g id="edge22" class="edge">
<title>Node1&#45;&gt;Node18</title>
<path fill="none" stroke="#191970" d="M78.4271,-299.0036C95.9147,-282.1862 121.2991,-260.0368 147,-245.5 152.8301,-242.2024 159.1676,-239.2392 165.5918,-236.6057"/>
<polygon fill="#191970" stroke="#191970" points="75.6661,-296.809 70.9752,-306.3088 80.5664,-301.8077 75.6661,-296.809"/>
</g>
<!-- Node19 -->
<g id="node19" class="node">
<title>Node19</title>
<g id="a_node19"><a xlink:href="../../d0/d4c/classtinyxml2_1_1XMLUnknown.html#a0169df157bf69a092b404ca49621ff1a" target="_top" xlink:title="tinyxml2::XMLUnknown\l::ShallowEqual">
<polygon fill="none" stroke="#000000" points="153,-153.5 153,-185.5 287,-185.5 287,-153.5 153,-153.5"/>
<text text-anchor="start" x="161" y="-172.5" font-family="FreeSans" font-size="10.00" fill="#000000">tinyxml2::XMLUnknown</text>
<text text-anchor="middle" x="220" y="-160.5" font-family="FreeSans" font-size="10.00" fill="#000000">::ShallowEqual</text>
</a>
</g>
</g>
<!-- Node1&#45;&gt;Node19 -->
<g id="edge23" class="edge">
<title>Node1&#45;&gt;Node19</title>
<path fill="none" stroke="#191970" d="M67.4528,-297.2435C82.2865,-268.4725 110.1909,-221.9096 147,-194.5 151.5127,-191.1397 156.5096,-188.209 161.7103,-185.6575"/>
<polygon fill="#191970" stroke="#191970" points="64.2828,-295.7571 62.9293,-306.2651 70.5402,-298.8946 64.2828,-295.7571"/>
</g>
<!-- Node20 -->
<g id="node20" class="node">
<title>Node20</title>
<g id="a_node20"><a xlink:href="../../d5/d83/classtinyxml2_1_1XMLElement.html#a25d51a2aad92625c78441457d58c85bc" target="_top" xlink:title="tinyxml2::XMLElement\l::ShallowEqual">
<polygon fill="none" stroke="#000000" points="154.5,-102.5 154.5,-134.5 285.5,-134.5 285.5,-102.5 154.5,-102.5"/>
<text text-anchor="start" x="162.5" y="-121.5" font-family="FreeSans" font-size="10.00" fill="#000000">tinyxml2::XMLElement</text>
<text text-anchor="middle" x="220" y="-109.5" font-family="FreeSans" font-size="10.00" fill="#000000">::ShallowEqual</text>
</a>
</g>
</g>
<!-- Node1&#45;&gt;Node20 -->
<g id="edge24" class="edge">
<title>Node1&#45;&gt;Node20</title>
<path fill="none" stroke="#191970" d="M62.0858,-296.3479C73.1621,-257.5759 99.1463,-184.9739 147,-143.5 150.9481,-140.0783 155.3875,-137.1189 160.0768,-134.5604"/>
<polygon fill="#191970" stroke="#191970" points="58.6171,-295.7631 59.3512,-306.3325 65.3685,-297.6122 58.6171,-295.7631"/>
</g>
<!-- Node21 -->
<g id="node21" class="node">
<title>Node21</title>
<g id="a_node21"><a xlink:href="../../d2/da5/classtinyxml2_1_1XMLUtil.html#ae5b03e0a1ca5d42052a7ac540f7aa12a" target="_top" xlink:title="tinyxml2::XMLUtil::\lToBool">
<polygon fill="none" stroke="#000000" points="164.5,-51.5 164.5,-83.5 275.5,-83.5 275.5,-51.5 164.5,-51.5"/>
<text text-anchor="start" x="172.5" y="-70.5" font-family="FreeSans" font-size="10.00" fill="#000000">tinyxml2::XMLUtil::</text>
<text text-anchor="middle" x="220" y="-58.5" font-family="FreeSans" font-size="10.00" fill="#000000">ToBool</text>
</a>
</g>
</g>
<!-- Node1&#45;&gt;Node21 -->
<g id="edge25" class="edge">
<title>Node1&#45;&gt;Node21</title>
<path fill="none" stroke="#191970" d="M58.7456,-296.2347C65.9636,-248.9106 87.6736,-149.0063 147,-92.5 152.0442,-87.6956 158.0511,-83.8115 164.4215,-80.6721"/>
<polygon fill="#191970" stroke="#191970" points="55.2584,-295.8971 57.3117,-306.2911 62.1883,-296.8853 55.2584,-295.8971"/>
</g>
<!-- Node27 -->
<g id="node27" class="node">
<title>Node27</title>
<g id="a_node27"><a xlink:href="../../d6/de3/classtinyxml2_1_1XMLNode.html#a47eac892557a8de5950ad5b8037bc361" target="_top" xlink:title="tinyxml2::XMLNode::\lToElementWithName">
<polygon fill="none" stroke="#000000" points="158.5,-.5 158.5,-32.5 281.5,-32.5 281.5,-.5 158.5,-.5"/>
<text text-anchor="start" x="166.5" y="-19.5" font-family="FreeSans" font-size="10.00" fill="#000000">tinyxml2::XMLNode::</text>
<text text-anchor="middle" x="220" y="-7.5" font-family="FreeSans" font-size="10.00" fill="#000000">ToElementWithName</text>
</a>
</g>
</g>
<!-- Node1&#45;&gt;Node27 -->
<g id="edge31" class="edge">
<title>Node1&#45;&gt;Node27</title>
<path fill="none" stroke="#191970" d="M60.895,-296.3486C74.2476,-233.9246 110.4135,-78.6451 147,-41.5 150.3842,-38.0641 154.2602,-35.1002 158.4227,-32.5435"/>
<polygon fill="#191970" stroke="#191970" points="57.4544,-295.7018 58.811,-306.2094 64.3032,-297.1493 57.4544,-295.7018"/>
</g>
<!-- Node3 -->
<g id="node3" class="node">
<title>Node3</title>
<g id="a_node3"><a xlink:href="../../d5/d83/classtinyxml2_1_1XMLElement.html#a9c931bc32d6e78b84c98f736fa8aafe2" target="_top" xlink:title="tinyxml2::XMLElement\l::ParseAttributes">
<polygon fill="none" stroke="#000000" points="503,-502.5 503,-534.5 634,-534.5 634,-502.5 503,-502.5"/>
<text text-anchor="start" x="511" y="-521.5" font-family="FreeSans" font-size="10.00" fill="#000000">tinyxml2::XMLElement</text>
<text text-anchor="middle" x="568.5" y="-509.5" font-family="FreeSans" font-size="10.00" fill="#000000">::ParseAttributes</text>
</a>
</g>
</g>
<!-- Node2&#45;&gt;Node3 -->
<g id="edge2" class="edge">
<title>Node2&#45;&gt;Node3</title>
<path fill="none" stroke="#191970" d="M459.9765,-550.4925C477.7902,-545.241 496.9389,-539.596 514.1178,-534.5317"/>
<polygon fill="#191970" stroke="#191970" points="458.8405,-547.1784 450.2383,-553.3633 460.8199,-553.8927 458.8405,-547.1784"/>
</g>
<!-- Node5 -->
<g id="node5" class="node">
<title>Node5</title>
<g id="a_node5"><a xlink:href="../../d7/d41/classBrick.html#aeb532c40a2d4a6b398126cabc59c3b7a" target="_top" xlink:title="Brick::InitTask">
<polygon fill="none" stroke="#000000" points="525.5,-604.5 525.5,-624.5 611.5,-624.5 611.5,-604.5 525.5,-604.5"/>
<text text-anchor="middle" x="568.5" y="-611.5" font-family="FreeSans" font-size="10.00" fill="#000000">Brick::InitTask</text>
</a>
</g>
</g>
<!-- Node2&#45;&gt;Node5 -->
<g id="edge4" class="edge">
<title>Node2&#45;&gt;Node5</title>
<path fill="none" stroke="#191970" d="M467.2146,-588.1541C488.6614,-593.7327 511.3579,-599.6364 529.8176,-604.4381"/>
<polygon fill="#191970" stroke="#191970" points="468.0274,-584.7491 457.4683,-585.6189 466.2652,-591.5237 468.0274,-584.7491"/>
</g>
<!-- Node6 -->
<g id="node6" class="node">
<title>Node6</title>
<g id="a_node6"><a xlink:href="../../db/d45/classJetscape_1_1TrentoInitial.html#a4e1c1d24291df3cbc329c4e5e9a4ec07" target="_top" xlink:title="Jetscape::TrentoInitial\l::Exec">
<polygon fill="none" stroke="#000000" points="505.5,-553.5 505.5,-585.5 631.5,-585.5 631.5,-553.5 505.5,-553.5"/>
<text text-anchor="start" x="513.5" y="-572.5" font-family="FreeSans" font-size="10.00" fill="#000000">Jetscape::TrentoInitial</text>
<text text-anchor="middle" x="568.5" y="-560.5" font-family="FreeSans" font-size="10.00" fill="#000000">::Exec</text>
</a>
</g>
</g>
<!-- Node2&#45;&gt;Node6 -->
<g id="edge5" class="edge">
<title>Node2&#45;&gt;Node6</title>
<path fill="none" stroke="#191970" d="M471.6468,-569.5C482.9043,-569.5 494.3991,-569.5 505.3537,-569.5"/>
<polygon fill="#191970" stroke="#191970" points="471.3974,-566.0001 461.3974,-569.5 471.3974,-573.0001 471.3974,-566.0001"/>
</g>
<!-- Node4 -->
<g id="node4" class="node">
<title>Node4</title>
<g id="a_node4"><a xlink:href="../../d5/d83/classtinyxml2_1_1XMLElement.html#aaafdd2a5618abe80a2c1839ad3ccd492" target="_top" xlink:title="tinyxml2::XMLElement\l::ParseDeep">
<polygon fill="none" stroke="#000000" points="680,-455.5 680,-487.5 811,-487.5 811,-455.5 680,-455.5"/>
<text text-anchor="start" x="688" y="-474.5" font-family="FreeSans" font-size="10.00" fill="#000000">tinyxml2::XMLElement</text>
<text text-anchor="middle" x="745.5" y="-462.5" font-family="FreeSans" font-size="10.00" fill="#000000">::ParseDeep</text>
</a>
</g>
</g>
<!-- Node3&#45;&gt;Node4 -->
<g id="edge3" class="edge">
<title>Node3&#45;&gt;Node4</title>
<path fill="none" stroke="#191970" d="M638.8392,-499.8223C654.1329,-495.7613 670.1826,-491.4995 685.0537,-487.5507"/>
<polygon fill="#191970" stroke="#191970" points="637.6851,-496.5074 628.9183,-502.4567 639.4816,-503.273 637.6851,-496.5074"/>
</g>
<!-- Node7&#45;&gt;Node3 -->
<g id="edge8" class="edge">
<title>Node7&#45;&gt;Node3</title>
<path fill="none" stroke="#191970" d="M295.6394,-515.3682C357.479,-516.078 444.0205,-517.0713 502.9482,-517.7476"/>
<polygon fill="#191970" stroke="#191970" points="295.5897,-511.8675 285.5502,-515.2524 295.5093,-518.867 295.5897,-511.8675"/>
</g>
<!-- Node8 -->
<g id="node8" class="node">
<title>Node8</title>
<g id="a_node8"><a xlink:href="../../d5/d83/classtinyxml2_1_1XMLElement.html#a2b80613624153da83044a8b616fb325e" target="_top" xlink:title="tinyxml2::XMLElement\l::~XMLElement">
<polygon fill="none" stroke="#000000" points="330,-460.5 330,-492.5 461,-492.5 461,-460.5 330,-460.5"/>
<text text-anchor="start" x="338" y="-479.5" font-family="FreeSans" font-size="10.00" fill="#000000">tinyxml2::XMLElement</text>
<text text-anchor="middle" x="395.5" y="-467.5" font-family="FreeSans" font-size="10.00" fill="#000000">::~XMLElement</text>
</a>
</g>
</g>
<!-- Node7&#45;&gt;Node8 -->
<g id="edge7" class="edge">
<title>Node7&#45;&gt;Node8</title>
<path fill="none" stroke="#191970" d="M295.7428,-498.0998C307.1038,-495.6399 318.7385,-493.1207 329.8656,-490.7114"/>
<polygon fill="#191970" stroke="#191970" points="294.8819,-494.7051 285.849,-500.2421 296.3633,-501.5465 294.8819,-494.7051"/>
</g>
<!-- Node9&#45;&gt;Node2 -->
<g id="edge10" class="edge">
<title>Node9&#45;&gt;Node2</title>
<path fill="none" stroke="#191970" d="M296.0872,-567.2342C307.3388,-567.4906 318.8509,-567.753 329.8656,-568.0041"/>
<polygon fill="#191970" stroke="#191970" points="295.9262,-563.7297 285.849,-567.0008 295.7667,-570.7279 295.9262,-563.7297"/>
</g>
<!-- Node11&#45;&gt;Node12 -->
<g id="edge13" class="edge">
<title>Node11&#45;&gt;Node12</title>
<path fill="none" stroke="#191970" d="M300.6759,-410.2015C312.1851,-409.8736 323.8576,-409.5411 334.8946,-409.2267"/>
<polygon fill="#191970" stroke="#191970" points="300.5202,-406.7045 290.624,-410.4879 300.7196,-413.7016 300.5202,-406.7045"/>
</g>
<!-- Node12&#45;&gt;Node4 -->
<g id="edge15" class="edge">
<title>Node12&#45;&gt;Node4</title>
<path fill="none" stroke="#191970" d="M464.3689,-425.9332C475.5691,-428.6526 487.0766,-431.2814 498,-433.5 559.2409,-445.9385 629.7443,-456.3897 679.7982,-463.1635"/>
<polygon fill="#191970" stroke="#191970" points="465.1754,-422.5272 454.6279,-423.528 463.4973,-429.3231 465.1754,-422.5272"/>
</g>
<!-- Node12&#45;&gt;Node12 -->
<g id="edge14" class="edge">
<title>Node12&#45;&gt;Node12</title>
<path fill="none" stroke="#191970" d="M365.2303,-434.0753C369.2379,-438.7466 379.3278,-442 395.5,-442 422.0391,-442 432.1985,-433.2388 425.9785,-423.8274"/>
<polygon fill="#191970" stroke="#191970" points="368.7246,-433.754 365.0215,-423.8274 361.7261,-433.8967 368.7246,-433.754"/>
</g>
<!-- Node13 -->
<g id="node13" class="node">
<title>Node13</title>
<g id="a_node13"><a xlink:href="../../d3/d63/classtinyxml2_1_1XMLDocument.html#aeb556e0e2bed02a73a6c5aaf19759e9a" target="_top" xlink:title="tinyxml2::XMLDocument\l::Parse">
<polygon fill="none" stroke="#000000" points="498,-391.5 498,-423.5 639,-423.5 639,-391.5 498,-391.5"/>
<text text-anchor="start" x="506" y="-410.5" font-family="FreeSans" font-size="10.00" fill="#000000">tinyxml2::XMLDocument</text>
<text text-anchor="middle" x="568.5" y="-398.5" font-family="FreeSans" font-size="10.00" fill="#000000">::Parse</text>
</a>
</g>
</g>
<!-- Node12&#45;&gt;Node13 -->
<g id="edge16" class="edge">
<title>Node12&#45;&gt;Node13</title>
<path fill="none" stroke="#191970" d="M466.3171,-407.5C476.7558,-407.5 487.5098,-407.5 497.9432,-407.5"/>
<polygon fill="#191970" stroke="#191970" points="466.007,-404.0001 456.007,-407.5 466.007,-411.0001 466.007,-404.0001"/>
</g>
<!-- Node14 -->
<g id="node14" class="node">
<title>Node14</title>
<g id="a_node14"><a xlink:href="../../d3/d63/classtinyxml2_1_1XMLDocument.html#a5f1d330fad44c52f3d265338dd2a6dc2" target="_top" xlink:title="tinyxml2::XMLDocument\l::LoadFile">
<polygon fill="none" stroke="#000000" points="675,-395.5 675,-427.5 816,-427.5 816,-395.5 675,-395.5"/>
<text text-anchor="start" x="683" y="-414.5" font-family="FreeSans" font-size="10.00" fill="#000000">tinyxml2::XMLDocument</text>
<text text-anchor="middle" x="745.5" y="-402.5" font-family="FreeSans" font-size="10.00" fill="#000000">::LoadFile</text>
</a>
</g>
</g>
<!-- Node13&#45;&gt;Node14 -->
<g id="edge17" class="edge">
<title>Node13&#45;&gt;Node14</title>
<path fill="none" stroke="#191970" d="M649.4937,-409.3304C657.9728,-409.522 666.5444,-409.7157 674.8942,-409.9044"/>
<polygon fill="#191970" stroke="#191970" points="649.2947,-405.8251 639.2182,-409.0982 649.1365,-412.8233 649.2947,-405.8251"/>
</g>
<!-- Node15 -->
<g id="node15" class="node">
<title>Node15</title>
<g id="a_node15"><a xlink:href="../../d3/d63/classtinyxml2_1_1XMLDocument.html#a1819bd34f540a7304c105a6232d25a1f" target="_top" xlink:title="tinyxml2::XMLDocument\l::Parse">
<polygon fill="none" stroke="#000000" points="675,-344.5 675,-376.5 816,-376.5 816,-344.5 675,-344.5"/>
<text text-anchor="start" x="683" y="-363.5" font-family="FreeSans" font-size="10.00" fill="#000000">tinyxml2::XMLDocument</text>
<text text-anchor="middle" x="745.5" y="-351.5" font-family="FreeSans" font-size="10.00" fill="#000000">::Parse</text>
</a>
</g>
</g>
<!-- Node13&#45;&gt;Node15 -->
<g id="edge18" class="edge">
<title>Node13&#45;&gt;Node15</title>
<path fill="none" stroke="#191970" d="M638.8392,-388.8223C654.1329,-384.7613 670.1826,-380.4995 685.0537,-376.5507"/>
<polygon fill="#191970" stroke="#191970" points="637.6851,-385.5074 628.9183,-391.4567 639.4816,-392.273 637.6851,-385.5074"/>
</g>
<!-- Node22 -->
<g id="node22" class="node">
<title>Node22</title>
<g id="a_node22"><a xlink:href="../../db/d8e/classtinyxml2_1_1XMLAttribute.html#a9e9b94369f182df72aaac9acd04afead" target="_top" xlink:title="See QueryIntValue.">
<polygon fill="none" stroke="#000000" points="329,-77.5 329,-109.5 462,-109.5 462,-77.5 329,-77.5"/>
<text text-anchor="start" x="337" y="-96.5" font-family="FreeSans" font-size="10.00" fill="#000000">tinyxml2::XMLAttribute</text>
<text text-anchor="middle" x="395.5" y="-84.5" font-family="FreeSans" font-size="10.00" fill="#000000">::QueryBoolValue</text>
</a>
</g>
</g>
<!-- Node21&#45;&gt;Node22 -->
<g id="edge26" class="edge">
<title>Node21&#45;&gt;Node22</title>
<path fill="none" stroke="#191970" d="M285.6642,-77.228C299.8131,-79.3242 314.7814,-81.5417 328.9633,-83.6427"/>
<polygon fill="#191970" stroke="#191970" points="285.9343,-73.7299 275.5293,-75.7266 284.9084,-80.6543 285.9343,-73.7299"/>
</g>
<!-- Node25 -->
<g id="node25" class="node">
<title>Node25</title>
<g id="a_node25"><a xlink:href="../../d5/d83/classtinyxml2_1_1XMLElement.html#afeb060672fa934163fc573e692b7fe38" target="_top" xlink:title="See QueryIntText()">
<polygon fill="none" stroke="#000000" points="330,-26.5 330,-58.5 461,-58.5 461,-26.5 330,-26.5"/>
<text text-anchor="start" x="338" y="-45.5" font-family="FreeSans" font-size="10.00" fill="#000000">tinyxml2::XMLElement</text>
<text text-anchor="middle" x="395.5" y="-33.5" font-family="FreeSans" font-size="10.00" fill="#000000">::QueryBoolText</text>
</a>
</g>
</g>
<!-- Node21&#45;&gt;Node25 -->
<g id="edge29" class="edge">
<title>Node21&#45;&gt;Node25</title>
<path fill="none" stroke="#191970" d="M285.8471,-58.1201C300.2543,-56.0678 315.5032,-53.8956 329.9007,-51.8446"/>
<polygon fill="#191970" stroke="#191970" points="284.9357,-54.7145 275.5293,-59.5898 285.923,-61.6445 284.9357,-54.7145"/>
</g>
<!-- Node23 -->
<g id="node23" class="node">
<title>Node23</title>
<g id="a_node23"><a xlink:href="../../d5/d83/classtinyxml2_1_1XMLElement.html#a2a58ee941c3cda23772c887a8f8b534e" target="_top" xlink:title="See QueryIntAttribute()">
<polygon fill="none" stroke="#000000" points="503,-77.5 503,-109.5 634,-109.5 634,-77.5 503,-77.5"/>
<text text-anchor="start" x="511" y="-96.5" font-family="FreeSans" font-size="10.00" fill="#000000">tinyxml2::XMLElement</text>
<text text-anchor="middle" x="568.5" y="-84.5" font-family="FreeSans" font-size="10.00" fill="#000000">::QueryBoolAttribute</text>
</a>
</g>
</g>
<!-- Node22&#45;&gt;Node23 -->
<g id="edge27" class="edge">
<title>Node22&#45;&gt;Node23</title>
<path fill="none" stroke="#191970" d="M472.4715,-93.5C482.637,-93.5 492.9803,-93.5 502.9304,-93.5"/>
<polygon fill="#191970" stroke="#191970" points="472.3864,-90.0001 462.3863,-93.5 472.3863,-97.0001 472.3864,-90.0001"/>
</g>
<!-- Node24 -->
<g id="node24" class="node">
<title>Node24</title>
<g id="a_node24"><a xlink:href="../../d5/d83/classtinyxml2_1_1XMLElement.html#a1fda1104d4d1fbdbcc896b0efd9b9496" target="_top" xlink:title="See IntAttribute()">
<polygon fill="none" stroke="#000000" points="680,-77.5 680,-109.5 811,-109.5 811,-77.5 680,-77.5"/>
<text text-anchor="start" x="688" y="-96.5" font-family="FreeSans" font-size="10.00" fill="#000000">tinyxml2::XMLElement</text>
<text text-anchor="middle" x="745.5" y="-84.5" font-family="FreeSans" font-size="10.00" fill="#000000">::BoolAttribute</text>
</a>
</g>
</g>
<!-- Node23&#45;&gt;Node24 -->
<g id="edge28" class="edge">
<title>Node23&#45;&gt;Node24</title>
<path fill="none" stroke="#191970" d="M644.4431,-93.5C656.2623,-93.5 668.3865,-93.5 679.9493,-93.5"/>
<polygon fill="#191970" stroke="#191970" points="644.1568,-90.0001 634.1567,-93.5 644.1567,-97.0001 644.1568,-90.0001"/>
</g>
<!-- Node26 -->
<g id="node26" class="node">
<title>Node26</title>
<g id="a_node26"><a xlink:href="../../d5/d83/classtinyxml2_1_1XMLElement.html#a6cf3fcf510bcb9e40d09fab7c52e5f0b" target="_top" xlink:title="See QueryIntText()">
<polygon fill="none" stroke="#000000" points="503,-26.5 503,-58.5 634,-58.5 634,-26.5 503,-26.5"/>
<text text-anchor="start" x="511" y="-45.5" font-family="FreeSans" font-size="10.00" fill="#000000">tinyxml2::XMLElement</text>
<text text-anchor="middle" x="568.5" y="-33.5" font-family="FreeSans" font-size="10.00" fill="#000000">::BoolText</text>
</a>
</g>
</g>
<!-- Node25&#45;&gt;Node26 -->
<g id="edge30" class="edge">
<title>Node25&#45;&gt;Node26</title>
<path fill="none" stroke="#191970" d="M471.6788,-42.5C482.0496,-42.5 492.6212,-42.5 502.7858,-42.5"/>
<polygon fill="#191970" stroke="#191970" points="471.3974,-39.0001 461.3974,-42.5 471.3974,-46.0001 471.3974,-39.0001"/>
</g>
</g>
</svg>
