<?xml version="1.0" encoding="UTF-8" standalone="no"?>
<!DOCTYPE svg PUBLIC "-//W3C//DTD SVG 1.1//EN"
 "http://www.w3.org/Graphics/SVG/1.1/DTD/svg11.dtd">
<!-- Generated by graphviz version 2.40.1 (20161225.0304)
 -->
<!-- Title: tinyxml2::XMLUtil::ToDouble Pages: 1 -->
<svg width="628pt" height="608pt"
 viewBox="0.00 0.00 628.00 608.00" xmlns="http://www.w3.org/2000/svg" xmlns:xlink="http://www.w3.org/1999/xlink">
<g id="graph0" class="graph" transform="scale(1 1) rotate(0) translate(4 604)">
<title>tinyxml2::XMLUtil::ToDouble</title>
<!-- Node1 -->
<g id="node1" class="node">
<title>Node1</title>
<polygon fill="#bfbfbf" stroke="#000000" points="0,-139.5 0,-171.5 111,-171.5 111,-139.5 0,-139.5"/>
<text text-anchor="start" x="8" y="-158.5" font-family="FreeSans" font-size="10.00" fill="#000000">tinyxml2::XMLUtil::</text>
<text text-anchor="middle" x="55.5" y="-146.5" font-family="FreeSans" font-size="10.00" fill="#000000">ToDouble</text>
</g>
<!-- Node2 -->
<g id="node2" class="node">
<title>Node2</title>
<g id="a_node2"><a xlink:href="../../d5/d83/classtinyxml2_1_1XMLElement.html#aad931c42548907dbea416f7365d78b57" target="_top" xlink:title="See QueryIntText()">
<polygon fill="none" stroke="#000000" points="148,-259.5 148,-291.5 279,-291.5 279,-259.5 148,-259.5"/>
<text text-anchor="start" x="156" y="-278.5" font-family="FreeSans" font-size="10.00" fill="#000000">tinyxml2::XMLElement</text>
<text text-anchor="middle" x="213.5" y="-266.5" font-family="FreeSans" font-size="10.00" fill="#000000">::QueryDoubleText</text>
</a>
</g>
</g>
<!-- Node1&#45;&gt;Node2 -->
<g id="edge1" class="edge">
<title>Node1&#45;&gt;Node2</title>
<path fill="none" stroke="#191970" d="M85.1226,-177.9982C116.3241,-201.6955 164.6794,-238.4211 192.2773,-259.3815"/>
<polygon fill="#191970" stroke="#191970" points="86.8891,-174.9448 76.8086,-171.6837 82.6553,-180.5193 86.8891,-174.9448"/>
</g>
<!-- Node16 -->
<g id="node16" class="node">
<title>Node16</title>
<g id="a_node16"><a xlink:href="../../db/d8e/classtinyxml2_1_1XMLAttribute.html#a0872c05edea2a7cde4bd96c1e9cb2fc4" target="_top" xlink:title="See QueryIntValue.">
<polygon fill="none" stroke="#000000" points="147,-114.5 147,-146.5 280,-146.5 280,-114.5 147,-114.5"/>
<text text-anchor="start" x="155" y="-133.5" font-family="FreeSans" font-size="10.00" fill="#000000">tinyxml2::XMLAttribute</text>
<text text-anchor="middle" x="213.5" y="-121.5" font-family="FreeSans" font-size="10.00" fill="#000000">::QueryDoubleValue</text>
</a>
</g>
</g>
<!-- Node1&#45;&gt;Node16 -->
<g id="edge15" class="edge">
<title>Node1&#45;&gt;Node16</title>
<path fill="none" stroke="#191970" d="M121.0985,-145.1205C129.6316,-143.7703 138.3796,-142.3861 146.9285,-141.0335"/>
<polygon fill="#191970" stroke="#191970" points="120.535,-141.666 111.2049,-146.6859 121.629,-148.58 120.535,-141.666"/>
</g>
<!-- Node3 -->
<g id="node3" class="node">
<title>Node3</title>
<g id="a_node3"><a xlink:href="../../d5/d83/classtinyxml2_1_1XMLElement.html#a24a83a8e3f33a9c77ca3f69d7a7b4d79" target="_top" xlink:title="See QueryIntText()">
<polygon fill="none" stroke="#000000" points="319,-567.5 319,-599.5 450,-599.5 450,-567.5 319,-567.5"/>
<text text-anchor="start" x="327" y="-586.5" font-family="FreeSans" font-size="10.00" fill="#000000">tinyxml2::XMLElement</text>
<text text-anchor="middle" x="384.5" y="-574.5" font-family="FreeSans" font-size="10.00" fill="#000000">::DoubleText</text>
</a>
</g>
</g>
<!-- Node2&#45;&gt;Node3 -->
<g id="edge2" class="edge">
<title>Node2&#45;&gt;Node3</title>
<path fill="none" stroke="#191970" d="M215.7071,-301.7646C221.7155,-356.8722 243.1707,-485.4921 316,-558.5 319.3975,-561.9058 323.2956,-564.8514 327.471,-567.3983"/>
<polygon fill="#191970" stroke="#191970" points="219.1843,-301.3609 214.7007,-291.7616 212.2194,-302.0617 219.1843,-301.3609"/>
</g>
<!-- Node4 -->
<g id="node4" class="node">
<title>Node4</title>
<g id="a_node4"><a xlink:href="../../d7/d05/classJetscape_1_1InitialState.html#a2b82c457bc93218efa9daae0eb503cd7" target="_top" xlink:title="Jetscape::InitialState\l::Init">
<polygon fill="none" stroke="#000000" points="324,-516.5 324,-548.5 445,-548.5 445,-516.5 324,-516.5"/>
<text text-anchor="start" x="332" y="-535.5" font-family="FreeSans" font-size="10.00" fill="#000000">Jetscape::InitialState</text>
<text text-anchor="middle" x="384.5" y="-523.5" font-family="FreeSans" font-size="10.00" fill="#000000">::Init</text>
</a>
</g>
</g>
<!-- Node2&#45;&gt;Node4 -->
<g id="edge3" class="edge">
<title>Node2&#45;&gt;Node4</title>
<path fill="none" stroke="#191970" d="M218.0851,-301.6212C227.7474,-349.1163 254.5808,-450.011 316,-507.5 319.6046,-510.8739 323.7007,-513.8001 328.0549,-516.3366"/>
<polygon fill="#191970" stroke="#191970" points="221.5208,-300.9533 216.1799,-291.8032 214.649,-302.2869 221.5208,-300.9533"/>
</g>
<!-- Node5 -->
<g id="node5" class="node">
<title>Node5</title>
<g id="a_node5"><a xlink:href="../../d7/d46/classJetscape_1_1JetEnergyLoss.html#a149fbe6b7ffe69b73a7d162c40076227" target="_top" xlink:title="Jetscape::JetEnergyLoss\l::Init">
<polygon fill="none" stroke="#000000" points="316,-465.5 316,-497.5 453,-497.5 453,-465.5 316,-465.5"/>
<text text-anchor="start" x="324" y="-484.5" font-family="FreeSans" font-size="10.00" fill="#000000">Jetscape::JetEnergyLoss</text>
<text text-anchor="middle" x="384.5" y="-472.5" font-family="FreeSans" font-size="10.00" fill="#000000">::Init</text>
</a>
</g>
</g>
<!-- Node2&#45;&gt;Node5 -->
<g id="edge4" class="edge">
<title>Node2&#45;&gt;Node5</title>
<path fill="none" stroke="#191970" d="M221.5205,-301.0472C234.9711,-339.9123 265.6607,-413.864 316,-456.5 319.9607,-459.8546 324.4098,-462.776 329.0892,-465.3168"/>
<polygon fill="#191970" stroke="#191970" points="224.8225,-299.8852 218.3258,-291.516 218.1854,-302.1099 224.8225,-299.8852"/>
</g>
<!-- Node6 -->
<g id="node6" class="node">
<title>Node6</title>
<g id="a_node6"><a xlink:href="../../dc/dc3/classColoredHadronization.html#aa021ea4a5c1b55d130aaa2dba1ceb346" target="_top" xlink:title="ColoredHadronization\l::Init">
<polygon fill="none" stroke="#000000" points="322,-414.5 322,-446.5 447,-446.5 447,-414.5 322,-414.5"/>
<text text-anchor="start" x="330" y="-433.5" font-family="FreeSans" font-size="10.00" fill="#000000">ColoredHadronization</text>
<text text-anchor="middle" x="384.5" y="-421.5" font-family="FreeSans" font-size="10.00" fill="#000000">::Init</text>
</a>
</g>
</g>
<!-- Node2&#45;&gt;Node6 -->
<g id="edge5" class="edge">
<title>Node2&#45;&gt;Node6</title>
<path fill="none" stroke="#191970" d="M227.4155,-300.6048C244.6858,-329.6348 276.7143,-377.0641 316,-405.5 320.6148,-408.8403 325.7238,-411.7787 331.0106,-414.3534"/>
<polygon fill="#191970" stroke="#191970" points="230.39,-298.7573 222.3363,-291.8733 224.3392,-302.2771 230.39,-298.7573"/>
</g>
<!-- Node7 -->
<g id="node7" class="node">
<title>Node7</title>
<g id="a_node7"><a xlink:href="../../dd/d85/classColorlessHadronization.html#a73e5fa254d6850c79e79040ee4716e1a" target="_top" xlink:title="ColorlessHadronization\l::Init">
<polygon fill="none" stroke="#000000" points="318,-363.5 318,-395.5 451,-395.5 451,-363.5 318,-363.5"/>
<text text-anchor="start" x="326" y="-382.5" font-family="FreeSans" font-size="10.00" fill="#000000">ColorlessHadronization</text>
<text text-anchor="middle" x="384.5" y="-370.5" font-family="FreeSans" font-size="10.00" fill="#000000">::Init</text>
</a>
</g>
</g>
<!-- Node2&#45;&gt;Node7 -->
<g id="edge6" class="edge">
<title>Node2&#45;&gt;Node7</title>
<path fill="none" stroke="#191970" d="M238.4964,-298.3082C258.3608,-315.5236 287.4583,-338.7854 316,-354.5 321.8776,-357.7361 328.2576,-360.7038 334.6799,-363.3756"/>
<polygon fill="#191970" stroke="#191970" points="240.6578,-295.5481 230.8371,-291.5723 236.035,-300.8045 240.6578,-295.5481"/>
</g>
<!-- Node8 -->
<g id="node8" class="node">
<title>Node8</title>
<g id="a_node8"><a xlink:href="../../d7/d41/classBrick.html#aeb532c40a2d4a6b398126cabc59c3b7a" target="_top" xlink:title="Brick::InitTask">
<polygon fill="none" stroke="#000000" points="341.5,-324.5 341.5,-344.5 427.5,-344.5 427.5,-324.5 341.5,-324.5"/>
<text text-anchor="middle" x="384.5" y="-331.5" font-family="FreeSans" font-size="10.00" fill="#000000">Brick::InitTask</text>
</a>
</g>
</g>
<!-- Node2&#45;&gt;Node8 -->
<g id="edge7" class="edge">
<title>Node2&#45;&gt;Node8</title>
<path fill="none" stroke="#191970" d="M261.8085,-295.5151C278.8032,-302.2456 298.1219,-309.5492 316,-315.5 325.4849,-318.6571 335.8253,-321.7185 345.5304,-324.4286"/>
<polygon fill="#191970" stroke="#191970" points="262.684,-292.0958 252.0993,-291.6331 260.0852,-298.5956 262.684,-292.0958"/>
</g>
<!-- Node9 -->
<g id="node9" class="node">
<title>Node9</title>
<g id="a_node9"><a xlink:href="../../d1/dc7/classPGun.html#ae19debdc577a2fd94a42278fbe4832a2" target="_top" xlink:title="PGun::InitTask">
<polygon fill="none" stroke="#000000" points="340.5,-285.5 340.5,-305.5 428.5,-305.5 428.5,-285.5 340.5,-285.5"/>
<text text-anchor="middle" x="384.5" y="-292.5" font-family="FreeSans" font-size="10.00" fill="#000000">PGun::InitTask</text>
</a>
</g>
</g>
<!-- Node2&#45;&gt;Node9 -->
<g id="edge8" class="edge">
<title>Node2&#45;&gt;Node9</title>
<path fill="none" stroke="#191970" d="M289.338,-284.3699C306.8311,-286.4159 324.8707,-288.5258 340.4771,-290.3511"/>
<polygon fill="#191970" stroke="#191970" points="289.4629,-280.8608 279.124,-283.1753 288.6497,-287.8134 289.4629,-280.8608"/>
</g>
<!-- Node10 -->
<g id="node10" class="node">
<title>Node10</title>
<g id="a_node10"><a xlink:href="../../d2/dd5/classPythiaGun.html#ae9ef262b1a1a89b188f8459be3ee6c9c" target="_top" xlink:title="PythiaGun::InitTask">
<polygon fill="none" stroke="#000000" points="327.5,-246.5 327.5,-266.5 441.5,-266.5 441.5,-246.5 327.5,-246.5"/>
<text text-anchor="middle" x="384.5" y="-253.5" font-family="FreeSans" font-size="10.00" fill="#000000">PythiaGun::InitTask</text>
</a>
</g>
</g>
<!-- Node2&#45;&gt;Node10 -->
<g id="edge9" class="edge">
<title>Node2&#45;&gt;Node10</title>
<path fill="none" stroke="#191970" d="M289.3043,-267.0773C302.1045,-265.6551 315.1984,-264.2002 327.4183,-262.8424"/>
<polygon fill="#191970" stroke="#191970" points="288.6763,-263.6254 279.124,-268.2084 289.4494,-270.5826 288.6763,-263.6254"/>
</g>
<!-- Node11 -->
<g id="node11" class="node">
<title>Node11</title>
<g id="a_node11"><a xlink:href="../../d2/dd5/classPythiaGun.html#aced95257fbf295eac1200458f79e0a81" target="_top" xlink:title="PythiaGun::Exec">
<polygon fill="none" stroke="#000000" points="335,-207.5 335,-227.5 434,-227.5 434,-207.5 335,-207.5"/>
<text text-anchor="middle" x="384.5" y="-214.5" font-family="FreeSans" font-size="10.00" fill="#000000">PythiaGun::Exec</text>
</a>
</g>
</g>
<!-- Node2&#45;&gt;Node11 -->
<g id="edge10" class="edge">
<title>Node2&#45;&gt;Node11</title>
<path fill="none" stroke="#191970" d="M264.1013,-255.9304C280.5649,-249.7811 298.9801,-243.1317 316,-237.5 326.4679,-234.0363 337.9366,-230.5636 348.445,-227.5069"/>
<polygon fill="#191970" stroke="#191970" points="262.7865,-252.6855 254.6587,-259.4818 265.2507,-259.2375 262.7865,-252.6855"/>
</g>
<!-- Node12 -->
<g id="node12" class="node">
<title>Node12</title>
<g id="a_node12"><a xlink:href="../../d6/d38/classAdSCFT.html#a850afa2ded61ff5009a3d9317ad5b281" target="_top" xlink:title="AdSCFT::Init">
<polygon fill="none" stroke="#000000" points="345.5,-168.5 345.5,-188.5 423.5,-188.5 423.5,-168.5 345.5,-168.5"/>
<text text-anchor="middle" x="384.5" y="-175.5" font-family="FreeSans" font-size="10.00" fill="#000000">AdSCFT::Init</text>
</a>
</g>
</g>
<!-- Node2&#45;&gt;Node12 -->
<g id="edge11" class="edge">
<title>Node2&#45;&gt;Node12</title>
<path fill="none" stroke="#191970" d="M238.316,-252.7806C258.0834,-235.7381 287.1383,-212.95 316,-198.5 325.084,-193.952 335.3766,-190.2655 345.1717,-187.3554"/>
<polygon fill="#191970" stroke="#191970" points="235.9096,-250.2356 230.6991,-259.4607 240.5252,-255.4984 235.9096,-250.2356"/>
</g>
<!-- Node13 -->
<g id="node13" class="node">
<title>Node13</title>
<g id="a_node13"><a xlink:href="../../d8/d5d/classLBT.html#a35ac27fd47a457ecb4bca90e77bbf3fa" target="_top" xlink:title="LBT::Init">
<polygon fill="none" stroke="#000000" points="356,-129.5 356,-149.5 413,-149.5 413,-129.5 356,-129.5"/>
<text text-anchor="middle" x="384.5" y="-136.5" font-family="FreeSans" font-size="10.00" fill="#000000">LBT::Init</text>
</a>
</g>
</g>
<!-- Node2&#45;&gt;Node13 -->
<g id="edge12" class="edge">
<title>Node2&#45;&gt;Node13</title>
<path fill="none" stroke="#191970" d="M229.0877,-250.7613C246.96,-224.3802 278.6546,-183.2055 316,-159.5 328.0285,-151.8647 343.0733,-147.0533 355.9971,-144.0695"/>
<polygon fill="#191970" stroke="#191970" points="225.9558,-249.1518 223.3559,-259.4227 231.7933,-253.0149 225.9558,-249.1518"/>
</g>
<!-- Node14 -->
<g id="node14" class="node">
<title>Node14</title>
<g id="a_node14"><a xlink:href="../../dd/d12/classMartini.html#a36bb7d6a1705df0ba61e99bf1c4015d5" target="_top" xlink:title="Martini::Init">
<polygon fill="none" stroke="#000000" points="347.5,-90.5 347.5,-110.5 421.5,-110.5 421.5,-90.5 347.5,-90.5"/>
<text text-anchor="middle" x="384.5" y="-97.5" font-family="FreeSans" font-size="10.00" fill="#000000">Martini::Init</text>
</a>
</g>
</g>
<!-- Node2&#45;&gt;Node14 -->
<g id="edge13" class="edge">
<title>Node2&#45;&gt;Node14</title>
<path fill="none" stroke="#191970" d="M227.4595,-250.034C249.4371,-210.7757 292.0616,-138.1489 316,-120.5 325.174,-113.7363 336.601,-109.2511 347.4768,-106.2801"/>
<polygon fill="#191970" stroke="#191970" points="224.1404,-248.8013 222.3408,-259.2422 230.2586,-252.2024 224.1404,-248.8013"/>
</g>
<!-- Node15 -->
<g id="node15" class="node">
<title>Node15</title>
<g id="a_node15"><a xlink:href="../../d8/d15/classMatter.html#ac54d2916cc6fd239d7e84c3837648adc" target="_top" xlink:title="Matter::Init">
<polygon fill="none" stroke="#000000" points="348.5,-51.5 348.5,-71.5 420.5,-71.5 420.5,-51.5 348.5,-51.5"/>
<text text-anchor="middle" x="384.5" y="-58.5" font-family="FreeSans" font-size="10.00" fill="#000000">Matter::Init</text>
</a>
</g>
</g>
<!-- Node2&#45;&gt;Node15 -->
<g id="edge14" class="edge">
<title>Node2&#45;&gt;Node15</title>
<path fill="none" stroke="#191970" d="M228.1628,-250.3326C241.9542,-226.4151 262.9703,-189.3267 280,-156.5 297.0267,-123.6792 287.8081,-105.4234 316,-81.5 325.0683,-73.8047 336.9682,-69.0684 348.3007,-66.154"/>
<polygon fill="#191970" stroke="#191970" points="225.0571,-248.7117 223.0788,-259.1202 231.1161,-252.2171 225.0571,-248.7117"/>
</g>
<!-- Node17 -->
<g id="node17" class="node">
<title>Node17</title>
<g id="a_node17"><a xlink:href="../../d5/d83/classtinyxml2_1_1XMLElement.html#a1ffeed461d3e4020b39652cd6d3cd773" target="_top" xlink:title="See QueryIntAttribute()">
<polygon fill="none" stroke="#000000" points="317.5,-.5 317.5,-32.5 451.5,-32.5 451.5,-.5 317.5,-.5"/>
<text text-anchor="start" x="325.5" y="-19.5" font-family="FreeSans" font-size="10.00" fill="#000000">tinyxml2::XMLElement</text>
<text text-anchor="middle" x="384.5" y="-7.5" font-family="FreeSans" font-size="10.00" fill="#000000">::QueryDoubleAttribute</text>
</a>
</g>
</g>
<!-- Node16&#45;&gt;Node17 -->
<g id="edge16" class="edge">
<title>Node16&#45;&gt;Node17</title>
<path fill="none" stroke="#191970" d="M236.0802,-107.0049C255.7315,-87.6218 285.7392,-60.4791 316,-42.5 322.124,-38.8615 328.8465,-35.5707 335.6128,-32.6496"/>
<polygon fill="#191970" stroke="#191970" points="233.4122,-104.7235 228.8255,-114.2741 238.3669,-109.6683 233.4122,-104.7235"/>
</g>
<!-- Node18 -->
<g id="node18" class="node">
<title>Node18</title>
<g id="a_node18"><a xlink:href="../../d5/d83/classtinyxml2_1_1XMLElement.html#a1dad6fa6cd1779a36db348674839e9dc" target="_top" xlink:title="See IntAttribute()">
<polygon fill="none" stroke="#000000" points="489,-.5 489,-32.5 620,-32.5 620,-.5 489,-.5"/>
<text text-anchor="start" x="497" y="-19.5" font-family="FreeSans" font-size="10.00" fill="#000000">tinyxml2::XMLElement</text>
<text text-anchor="middle" x="554.5" y="-7.5" font-family="FreeSans" font-size="10.00" fill="#000000">::DoubleAttribute</text>
</a>
</g>
</g>
<!-- Node17&#45;&gt;Node18 -->
<g id="edge17" class="edge">
<title>Node17&#45;&gt;Node18</title>
<path fill="none" stroke="#191970" d="M461.8317,-16.5C470.8793,-16.5 480.0437,-16.5 488.9104,-16.5"/>
<polygon fill="#191970" stroke="#191970" points="461.6885,-13.0001 451.6885,-16.5 461.6885,-20.0001 461.6885,-13.0001"/>
</g>
</g>
</svg>
