<?xml version="1.0" encoding="UTF-8" standalone="no"?>
<!DOCTYPE svg PUBLIC "-//W3C//DTD SVG 1.1//EN"
 "http://www.w3.org/Graphics/SVG/1.1/DTD/svg11.dtd">
<!-- Generated by graphviz version 2.40.1 (20161225.0304)
 -->
<!-- Title: KFParticleBaseSIMD::SetNoDecayLength Pages: 1 -->
<svg width="628pt" height="80pt"
 viewBox="0.00 0.00 628.00 80.00" xmlns="http://www.w3.org/2000/svg" xmlns:xlink="http://www.w3.org/1999/xlink">
<g id="graph0" class="graph" transform="scale(1 1) rotate(0) translate(4 76)">
<title>KFParticleBaseSIMD::SetNoDecayLength</title>
<!-- Node1 -->
<g id="node1" class="node">
<title>Node1</title>
<polygon fill="#bfbfbf" stroke="#000000" points="0,-22.5 0,-54.5 119,-54.5 119,-22.5 0,-22.5"/>
<text text-anchor="start" x="8" y="-41.5" font-family="FreeSans" font-size="10.00" fill="#000000">KFParticleBaseSIMD</text>
<text text-anchor="middle" x="59.5" y="-29.5" font-family="FreeSans" font-size="10.00" fill="#000000">::SetNoDecayLength</text>
</g>
<!-- Node2 -->
<g id="node2" class="node">
<title>Node2</title>
<g id="a_node2"><a xlink:href="../../d2/dbb/classKFParticleBaseSIMD.html#a1163dac578cd40f360f1778ceb880035" target="_top" xlink:title="KFParticleBaseSIMD\l::TransportToDecayVertex">
<polygon fill="none" stroke="#000000" points="155,-22.5 155,-54.5 300,-54.5 300,-22.5 155,-22.5"/>
<text text-anchor="start" x="163" y="-41.5" font-family="FreeSans" font-size="10.00" fill="#000000">KFParticleBaseSIMD</text>
<text text-anchor="middle" x="227.5" y="-29.5" font-family="FreeSans" font-size="10.00" fill="#000000">::TransportToDecayVertex</text>
</a>
</g>
</g>
<!-- Node1&#45;&gt;Node2 -->
<g id="edge1" class="edge">
<title>Node1&#45;&gt;Node2</title>
<path fill="none" stroke="#191970" d="M119.2035,-38.5C127.4736,-38.5 136.0874,-38.5 144.6847,-38.5"/>
<polygon fill="#191970" stroke="#191970" points="144.7479,-42.0001 154.7479,-38.5 144.7479,-35.0001 144.7479,-42.0001"/>
</g>
<!-- Node3 -->
<g id="node3" class="node">
<title>Node3</title>
<g id="a_node3"><a xlink:href="../../df/d28/namespacekdfinder.html#ab72d428625e99a2d7380eb7691c246c7" target="_top" xlink:title="kdfinder::abs">
<polygon fill="none" stroke="#000000" points="352.5,-51.5 352.5,-71.5 435.5,-71.5 435.5,-51.5 352.5,-51.5"/>
<text text-anchor="middle" x="394" y="-58.5" font-family="FreeSans" font-size="10.00" fill="#000000">kdfinder::abs</text>
</a>
</g>
</g>
<!-- Node2&#45;&gt;Node3 -->
<g id="edge2" class="edge">
<title>Node2&#45;&gt;Node3</title>
<path fill="none" stroke="#191970" d="M300.045,-48.5212C314.2909,-50.4891 328.962,-52.5158 342.3523,-54.3655"/>
<polygon fill="#191970" stroke="#191970" points="341.9291,-57.8402 352.314,-55.7416 342.887,-50.906 341.9291,-57.8402"/>
</g>
<!-- Node5 -->
<g id="node5" class="node">
<title>Node5</title>
<g id="a_node5"><a xlink:href="../../d2/dbb/classKFParticleBaseSIMD.html#ae4bd5b9ffbeb8b5f9595cf6d34592c31" target="_top" xlink:title="KFParticleBaseSIMD\l::TransportToDS">
<polygon fill="none" stroke="#000000" points="336,-.5 336,-32.5 452,-32.5 452,-.5 336,-.5"/>
<text text-anchor="start" x="344" y="-19.5" font-family="FreeSans" font-size="10.00" fill="#000000">KFParticleBaseSIMD</text>
<text text-anchor="middle" x="394" y="-7.5" font-family="FreeSans" font-size="10.00" fill="#000000">::TransportToDS</text>
</a>
</g>
</g>
<!-- Node2&#45;&gt;Node5 -->
<g id="edge4" class="edge">
<title>Node2&#45;&gt;Node5</title>
<path fill="none" stroke="#191970" d="M300.045,-28.9145C308.6741,-27.7743 317.4593,-26.6135 326.0213,-25.4822"/>
<polygon fill="#191970" stroke="#191970" points="326.4919,-28.9505 335.9472,-24.1706 325.5748,-22.0108 326.4919,-28.9505"/>
</g>
<!-- Node4 -->
<g id="node4" class="node">
<title>Node4</title>
<g id="a_node4"><a xlink:href="../../d8/dc7/classkdfinder_1_1TVector.html#ac9649c7577f12a7502ed523260f4ee90" target="_top" xlink:title="kdfinder::TVector::mag">
<polygon fill="none" stroke="#000000" points="488,-51.5 488,-71.5 620,-71.5 620,-51.5 488,-51.5"/>
<text text-anchor="middle" x="554" y="-58.5" font-family="FreeSans" font-size="10.00" fill="#000000">kdfinder::TVector::mag</text>
</a>
</g>
</g>
<!-- Node3&#45;&gt;Node4 -->
<g id="edge3" class="edge">
<title>Node3&#45;&gt;Node4</title>
<path fill="none" stroke="#191970" d="M435.6204,-61.5C448.5602,-61.5 463.2556,-61.5 477.7842,-61.5"/>
<polygon fill="#191970" stroke="#191970" points="477.7922,-65.0001 487.7922,-61.5 477.7922,-58.0001 477.7922,-65.0001"/>
</g>
<!-- Node6 -->
<g id="node6" class="node">
<title>Node6</title>
<g id="a_node6"><a xlink:href="../../d2/dbb/classKFParticleBaseSIMD.html#a721cd8da62bbf13e53583c9acff31945" target="_top" xlink:title="KFParticleBaseSIMD\l::Transport">
<polygon fill="none" stroke="#000000" points="496,-.5 496,-32.5 612,-32.5 612,-.5 496,-.5"/>
<text text-anchor="start" x="504" y="-19.5" font-family="FreeSans" font-size="10.00" fill="#000000">KFParticleBaseSIMD</text>
<text text-anchor="middle" x="554" y="-7.5" font-family="FreeSans" font-size="10.00" fill="#000000">::Transport</text>
</a>
</g>
</g>
<!-- Node5&#45;&gt;Node6 -->
<g id="edge5" class="edge">
<title>Node5&#45;&gt;Node6</title>
<path fill="none" stroke="#191970" d="M452.2163,-16.5C463.0934,-16.5 474.5522,-16.5 485.701,-16.5"/>
<polygon fill="#191970" stroke="#191970" points="485.8271,-20.0001 495.8271,-16.5 485.827,-13.0001 485.8271,-20.0001"/>
</g>
</g>
</svg>
