<?xml version="1.0" encoding="UTF-8" standalone="no"?>
<!DOCTYPE svg PUBLIC "-//W3C//DTD SVG 1.1//EN"
 "http://www.w3.org/Graphics/SVG/1.1/DTD/svg11.dtd">
<!-- Generated by graphviz version 2.40.1 (20161225.0304)
 -->
<!-- Title: KFParticleBaseSIMD::SetProductionVertex Pages: 1 -->
<svg width="635pt" height="389pt"
 viewBox="0.00 0.00 635.00 389.00" xmlns="http://www.w3.org/2000/svg" xmlns:xlink="http://www.w3.org/1999/xlink">
<g id="graph0" class="graph" transform="scale(1 1) rotate(0) translate(4 385)">
<title>KFParticleBaseSIMD::SetProductionVertex</title>
<!-- Node1 -->
<g id="node1" class="node">
<title>Node1</title>
<polygon fill="#bfbfbf" stroke="#000000" points="0,-156.5 0,-188.5 126,-188.5 126,-156.5 0,-156.5"/>
<text text-anchor="start" x="8" y="-175.5" font-family="FreeSans" font-size="10.00" fill="#000000">KFParticleBaseSIMD</text>
<text text-anchor="middle" x="63" y="-163.5" font-family="FreeSans" font-size="10.00" fill="#000000">::SetProductionVertex</text>
</g>
<!-- Node2 -->
<g id="node2" class="node">
<title>Node2</title>
<g id="a_node2"><a xlink:href="../../d2/dbb/classKFParticleBaseSIMD.html#a762391583bafd7f932bc80fbd226bce5" target="_top" xlink:title="KFParticleBaseSIMD\l::GetDStoPoint">
<polygon fill="none" stroke="#000000" points="176.5,-348.5 176.5,-380.5 292.5,-380.5 292.5,-348.5 176.5,-348.5"/>
<text text-anchor="start" x="184.5" y="-367.5" font-family="FreeSans" font-size="10.00" fill="#000000">KFParticleBaseSIMD</text>
<text text-anchor="middle" x="234.5" y="-355.5" font-family="FreeSans" font-size="10.00" fill="#000000">::GetDStoPoint</text>
</a>
</g>
</g>
<!-- Node1&#45;&gt;Node2 -->
<g id="edge1" class="edge">
<title>Node1&#45;&gt;Node2</title>
<path fill="none" stroke="#191970" d="M68.327,-188.8426C79.965,-222.0433 110.7937,-297.7628 162,-339.5 163.7609,-340.9353 165.6091,-342.2903 167.5252,-343.5693"/>
<polygon fill="#191970" stroke="#191970" points="165.9021,-346.6747 176.3008,-348.7043 169.4375,-340.633 165.9021,-346.6747"/>
</g>
<!-- Node3 -->
<g id="node3" class="node">
<title>Node3</title>
<g id="a_node3"><a xlink:href="../../d2/dbb/classKFParticleBaseSIMD.html#a23c8f9fa65a42b162990806191f91148" target="_top" xlink:title="KFParticleBaseSIMD::IJ">
<polygon fill="none" stroke="#000000" points="170.5,-309.5 170.5,-329.5 298.5,-329.5 298.5,-309.5 170.5,-309.5"/>
<text text-anchor="middle" x="234.5" y="-316.5" font-family="FreeSans" font-size="10.00" fill="#000000">KFParticleBaseSIMD::IJ</text>
</a>
</g>
</g>
<!-- Node1&#45;&gt;Node3 -->
<g id="edge2" class="edge">
<title>Node1&#45;&gt;Node3</title>
<path fill="none" stroke="#191970" d="M70.9202,-188.6283C85.2066,-215.9894 117.9491,-271.3624 162,-300.5 164.7131,-302.2946 167.5878,-303.9199 170.5665,-305.3919"/>
<polygon fill="#191970" stroke="#191970" points="169.1896,-308.6096 179.7575,-309.3636 171.9663,-302.1839 169.1896,-308.6096"/>
</g>
<!-- Node4 -->
<g id="node4" class="node">
<title>Node4</title>
<g id="a_node4"><a xlink:href="../../d2/dbb/classKFParticleBaseSIMD.html#a4050fd23fd4493d83633bb00a312522b" target="_top" xlink:title="KFParticleBaseSIMD\l::InvertCholetsky3">
<polygon fill="none" stroke="#000000" points="176.5,-258.5 176.5,-290.5 292.5,-290.5 292.5,-258.5 176.5,-258.5"/>
<text text-anchor="start" x="184.5" y="-277.5" font-family="FreeSans" font-size="10.00" fill="#000000">KFParticleBaseSIMD</text>
<text text-anchor="middle" x="234.5" y="-265.5" font-family="FreeSans" font-size="10.00" fill="#000000">::InvertCholetsky3</text>
</a>
</g>
</g>
<!-- Node1&#45;&gt;Node4 -->
<g id="edge3" class="edge">
<title>Node1&#45;&gt;Node4</title>
<path fill="none" stroke="#191970" d="M80.003,-188.5948C98.8037,-205.6718 130.603,-232.4881 162,-249.5 165.2338,-251.2522 168.614,-252.9173 172.0712,-254.4938"/>
<polygon fill="#191970" stroke="#191970" points="170.784,-257.7499 181.3551,-258.4587 173.5333,-251.3124 170.784,-257.7499"/>
</g>
<!-- Node7 -->
<g id="node7" class="node">
<title>Node7</title>
<g id="a_node7"><a xlink:href="../../d2/dbb/classKFParticleBaseSIMD.html#af246711cd053ab45c7415190658faeca" target="_top" xlink:title="KFParticleBaseSIMD\l::MultQSQt">
<polygon fill="none" stroke="#000000" points="176.5,-207.5 176.5,-239.5 292.5,-239.5 292.5,-207.5 176.5,-207.5"/>
<text text-anchor="start" x="184.5" y="-226.5" font-family="FreeSans" font-size="10.00" fill="#000000">KFParticleBaseSIMD</text>
<text text-anchor="middle" x="234.5" y="-214.5" font-family="FreeSans" font-size="10.00" fill="#000000">::MultQSQt</text>
</a>
</g>
</g>
<!-- Node1&#45;&gt;Node7 -->
<g id="edge6" class="edge">
<title>Node1&#45;&gt;Node7</title>
<path fill="none" stroke="#191970" d="M117.2637,-188.6367C134.3204,-193.709 153.3073,-199.3552 170.9482,-204.6012"/>
<polygon fill="#191970" stroke="#191970" points="170.0065,-207.9726 180.5893,-207.4683 172.0018,-201.263 170.0065,-207.9726"/>
</g>
<!-- Node8 -->
<g id="node8" class="node">
<title>Node8</title>
<g id="a_node8"><a xlink:href="../../d2/dbb/classKFParticleBaseSIMD.html#a721cd8da62bbf13e53583c9acff31945" target="_top" xlink:title="KFParticleBaseSIMD\l::Transport">
<polygon fill="none" stroke="#000000" points="503,-145.5 503,-177.5 619,-177.5 619,-145.5 503,-145.5"/>
<text text-anchor="start" x="511" y="-164.5" font-family="FreeSans" font-size="10.00" fill="#000000">KFParticleBaseSIMD</text>
<text text-anchor="middle" x="561" y="-152.5" font-family="FreeSans" font-size="10.00" fill="#000000">::Transport</text>
</a>
</g>
</g>
<!-- Node1&#45;&gt;Node8 -->
<g id="edge7" class="edge">
<title>Node1&#45;&gt;Node8</title>
<path fill="none" stroke="#191970" d="M113.8873,-156.4645C129.1934,-152.3696 146.1384,-148.5481 162,-146.5 292.9132,-129.596 327.3516,-136.8717 459,-146.5 469.9338,-147.2997 481.4745,-148.5753 492.7059,-150.0535"/>
<polygon fill="#191970" stroke="#191970" points="492.5227,-153.5612 502.9071,-151.46 493.4789,-146.6268 492.5227,-153.5612"/>
</g>
<!-- Node9 -->
<g id="node9" class="node">
<title>Node9</title>
<g id="a_node9"><a xlink:href="../../d2/dbb/classKFParticleBaseSIMD.html#a1163dac578cd40f360f1778ceb880035" target="_top" xlink:title="KFParticleBaseSIMD\l::TransportToDecayVertex">
<polygon fill="none" stroke="#000000" points="162,-156.5 162,-188.5 307,-188.5 307,-156.5 162,-156.5"/>
<text text-anchor="start" x="170" y="-175.5" font-family="FreeSans" font-size="10.00" fill="#000000">KFParticleBaseSIMD</text>
<text text-anchor="middle" x="234.5" y="-163.5" font-family="FreeSans" font-size="10.00" fill="#000000">::TransportToDecayVertex</text>
</a>
</g>
</g>
<!-- Node1&#45;&gt;Node9 -->
<g id="edge8" class="edge">
<title>Node1&#45;&gt;Node9</title>
<path fill="none" stroke="#191970" d="M126.373,-172.5C134.6714,-172.5 143.2704,-172.5 151.8284,-172.5"/>
<polygon fill="#191970" stroke="#191970" points="151.8356,-176.0001 161.8356,-172.5 151.8355,-169.0001 151.8356,-176.0001"/>
</g>
<!-- Node11 -->
<g id="node11" class="node">
<title>Node11</title>
<g id="a_node11"><a xlink:href="../../d2/dbb/classKFParticleBaseSIMD.html#ad2188b32c30eaa4822f9f8ee0312c262" target="_top" xlink:title="Retruns X coordinate of the particle, fP[0].">
<polygon fill="none" stroke="#000000" points="169.5,-78.5 169.5,-98.5 299.5,-98.5 299.5,-78.5 169.5,-78.5"/>
<text text-anchor="middle" x="234.5" y="-85.5" font-family="FreeSans" font-size="10.00" fill="#000000">KFParticleBaseSIMD::X</text>
</a>
</g>
</g>
<!-- Node1&#45;&gt;Node11 -->
<g id="edge12" class="edge">
<title>Node1&#45;&gt;Node11</title>
<path fill="none" stroke="#191970" d="M87.0512,-156.2575C106.6407,-143.503 135.3239,-125.8879 162,-113.5 171.2378,-109.2101 181.4287,-105.2516 191.1782,-101.8096"/>
<polygon fill="#191970" stroke="#191970" points="192.3975,-105.0917 200.7288,-98.5465 190.1343,-98.4677 192.3975,-105.0917"/>
</g>
<!-- Node12 -->
<g id="node12" class="node">
<title>Node12</title>
<g id="a_node12"><a xlink:href="../../d2/dbb/classKFParticleBaseSIMD.html#a0317637c84246ec7f34accf35c9cb8fd" target="_top" xlink:title="Retruns Y coordinate of the particle, fP[1].">
<polygon fill="none" stroke="#000000" points="169.5,-39.5 169.5,-59.5 299.5,-59.5 299.5,-39.5 169.5,-39.5"/>
<text text-anchor="middle" x="234.5" y="-46.5" font-family="FreeSans" font-size="10.00" fill="#000000">KFParticleBaseSIMD::Y</text>
</a>
</g>
</g>
<!-- Node1&#45;&gt;Node12 -->
<g id="edge13" class="edge">
<title>Node1&#45;&gt;Node12</title>
<path fill="none" stroke="#191970" d="M73.778,-156.4743C90.1118,-133.4571 123.3572,-91.306 162,-68.5 165.3705,-66.5108 168.9498,-64.7268 172.6424,-63.1271"/>
<polygon fill="#191970" stroke="#191970" points="173.9287,-66.3824 181.9997,-59.5188 171.4101,-59.8511 173.9287,-66.3824"/>
</g>
<!-- Node13 -->
<g id="node13" class="node">
<title>Node13</title>
<g id="a_node13"><a xlink:href="../../d2/dbb/classKFParticleBaseSIMD.html#a3189c60d84706832532e315723dca770" target="_top" xlink:title="Retruns Z coordinate of the particle, fP[2].">
<polygon fill="none" stroke="#000000" points="169.5,-.5 169.5,-20.5 299.5,-20.5 299.5,-.5 169.5,-.5"/>
<text text-anchor="middle" x="234.5" y="-7.5" font-family="FreeSans" font-size="10.00" fill="#000000">KFParticleBaseSIMD::Z</text>
</a>
</g>
</g>
<!-- Node1&#45;&gt;Node13 -->
<g id="edge14" class="edge">
<title>Node1&#45;&gt;Node13</title>
<path fill="none" stroke="#191970" d="M69.5638,-156.3904C82.5658,-126.562 114.5067,-62.749 162,-29.5 164.5299,-27.7289 167.2139,-26.1228 170.0017,-24.6665"/>
<polygon fill="#191970" stroke="#191970" points="171.5287,-27.8172 179.1965,-20.506 168.6429,-21.4397 171.5287,-27.8172"/>
</g>
<!-- Node5 -->
<g id="node5" class="node">
<title>Node5</title>
<g id="a_node5"><a xlink:href="../../df/d28/namespacekdfinder.html#ab72d428625e99a2d7380eb7691c246c7" target="_top" xlink:title="kdfinder::abs">
<polygon fill="none" stroke="#000000" points="359.5,-218.5 359.5,-238.5 442.5,-238.5 442.5,-218.5 359.5,-218.5"/>
<text text-anchor="middle" x="401" y="-225.5" font-family="FreeSans" font-size="10.00" fill="#000000">kdfinder::abs</text>
</a>
</g>
</g>
<!-- Node4&#45;&gt;Node5 -->
<g id="edge4" class="edge">
<title>Node4&#45;&gt;Node5</title>
<path fill="none" stroke="#191970" d="M292.7336,-258.4114C313.0173,-252.8075 335.4852,-246.6002 354.6718,-241.2994"/>
<polygon fill="#191970" stroke="#191970" points="355.6703,-244.6547 364.3772,-238.618 353.8062,-237.9075 355.6703,-244.6547"/>
</g>
<!-- Node6 -->
<g id="node6" class="node">
<title>Node6</title>
<g id="a_node6"><a xlink:href="../../d8/dc7/classkdfinder_1_1TVector.html#ac9649c7577f12a7502ed523260f4ee90" target="_top" xlink:title="kdfinder::TVector::mag">
<polygon fill="none" stroke="#000000" points="495,-218.5 495,-238.5 627,-238.5 627,-218.5 495,-218.5"/>
<text text-anchor="middle" x="561" y="-225.5" font-family="FreeSans" font-size="10.00" fill="#000000">kdfinder::TVector::mag</text>
</a>
</g>
</g>
<!-- Node5&#45;&gt;Node6 -->
<g id="edge5" class="edge">
<title>Node5&#45;&gt;Node6</title>
<path fill="none" stroke="#191970" d="M442.6204,-228.5C455.5602,-228.5 470.2556,-228.5 484.7842,-228.5"/>
<polygon fill="#191970" stroke="#191970" points="484.7922,-232.0001 494.7922,-228.5 484.7922,-225.0001 484.7922,-232.0001"/>
</g>
<!-- Node9&#45;&gt;Node5 -->
<g id="edge9" class="edge">
<title>Node9&#45;&gt;Node5</title>
<path fill="none" stroke="#191970" d="M282.2122,-188.5474C307.2689,-196.9748 337.6132,-207.1807 361.3606,-215.1678"/>
<polygon fill="#191970" stroke="#191970" points="360.5054,-218.5728 371.0995,-218.4434 362.737,-211.938 360.5054,-218.5728"/>
</g>
<!-- Node10 -->
<g id="node10" class="node">
<title>Node10</title>
<g id="a_node10"><a xlink:href="../../d2/dbb/classKFParticleBaseSIMD.html#ae4bd5b9ffbeb8b5f9595cf6d34592c31" target="_top" xlink:title="KFParticleBaseSIMD\l::TransportToDS">
<polygon fill="none" stroke="#000000" points="343,-156.5 343,-188.5 459,-188.5 459,-156.5 343,-156.5"/>
<text text-anchor="start" x="351" y="-175.5" font-family="FreeSans" font-size="10.00" fill="#000000">KFParticleBaseSIMD</text>
<text text-anchor="middle" x="401" y="-163.5" font-family="FreeSans" font-size="10.00" fill="#000000">::TransportToDS</text>
</a>
</g>
</g>
<!-- Node9&#45;&gt;Node10 -->
<g id="edge10" class="edge">
<title>Node9&#45;&gt;Node10</title>
<path fill="none" stroke="#191970" d="M307.045,-172.5C315.5803,-172.5 324.2683,-172.5 332.7421,-172.5"/>
<polygon fill="#191970" stroke="#191970" points="332.9472,-176.0001 342.9472,-172.5 332.9471,-169.0001 332.9472,-176.0001"/>
</g>
<!-- Node10&#45;&gt;Node8 -->
<g id="edge11" class="edge">
<title>Node10&#45;&gt;Node8</title>
<path fill="none" stroke="#191970" d="M459.2163,-168.4976C470.0934,-167.7498 481.5522,-166.962 492.701,-166.1956"/>
<polygon fill="#191970" stroke="#191970" points="493.0907,-169.6771 502.8271,-165.4994 492.6105,-162.6936 493.0907,-169.6771"/>
</g>
</g>
</svg>
