<?xml version="1.0" encoding="UTF-8" standalone="no"?>
<!DOCTYPE svg PUBLIC "-//W3C//DTD SVG 1.1//EN"
 "http://www.w3.org/Graphics/SVG/1.1/DTD/svg11.dtd">
<!-- Generated by graphviz version 2.40.1 (20161225.0304)
 -->
<!-- Title: ParticleFlowReco::set_energy_match_Nsigma Pages: 1 -->
<svg width="415pt" height="131pt"
 viewBox="0.00 0.00 415.00 131.00" xmlns="http://www.w3.org/2000/svg" xmlns:xlink="http://www.w3.org/1999/xlink">
<g id="graph0" class="graph" transform="scale(1 1) rotate(0) translate(4 127)">
<title>ParticleFlowReco::set_energy_match_Nsigma</title>
<!-- Node1 -->
<g id="node1" class="node">
<title>Node1</title>
<polygon fill="#bfbfbf" stroke="#000000" points="0,-39.5 0,-71.5 137,-71.5 137,-39.5 0,-39.5"/>
<text text-anchor="start" x="8" y="-58.5" font-family="FreeSans" font-size="10.00" fill="#000000">ParticleFlowReco::set</text>
<text text-anchor="middle" x="68.5" y="-46.5" font-family="FreeSans" font-size="10.00" fill="#000000">_energy_match_Nsigma</text>
</g>
<!-- Node2 -->
<g id="node2" class="node">
<title>Node2</title>
<g id="a_node2"><a xlink:href="../../d6/d6b/G4__ParticleFlow_8C.html#aad4fba02a5fd5daec417eef60b351bc3" target="_top" xlink:title="ParticleFlow">
<polygon fill="none" stroke="#000000" points="173,-45.5 173,-65.5 250,-65.5 250,-45.5 173,-45.5"/>
<text text-anchor="middle" x="211.5" y="-52.5" font-family="FreeSans" font-size="10.00" fill="#000000">ParticleFlow</text>
</a>
</g>
</g>
<!-- Node1&#45;&gt;Node2 -->
<g id="edge1" class="edge">
<title>Node1&#45;&gt;Node2</title>
<path fill="none" stroke="#191970" d="M147.1778,-55.5C156.1019,-55.5 164.8754,-55.5 172.9346,-55.5"/>
<polygon fill="#191970" stroke="#191970" points="147.0681,-52.0001 137.0681,-55.5 147.0681,-59.0001 147.0681,-52.0001"/>
</g>
<!-- Node3 -->
<g id="node3" class="node">
<title>Node3</title>
<g id="a_node3"><a xlink:href="../../d4/de9/Fun4All__AnaTutorial__sPHENIX_8C.html#a5028836c74f0bebec560d3ab54daa022" target="_top" xlink:title="Fun4All_AnaTutorial\l_sPHENIX">
<polygon fill="none" stroke="#000000" points="289,-90.5 289,-122.5 404,-122.5 404,-90.5 289,-90.5"/>
<text text-anchor="start" x="297" y="-109.5" font-family="FreeSans" font-size="10.00" fill="#000000">Fun4All_AnaTutorial</text>
<text text-anchor="middle" x="346.5" y="-97.5" font-family="FreeSans" font-size="10.00" fill="#000000">_sPHENIX</text>
</a>
</g>
</g>
<!-- Node2&#45;&gt;Node3 -->
<g id="edge2" class="edge">
<title>Node2&#45;&gt;Node3</title>
<path fill="none" stroke="#191970" d="M247.8964,-69.2497C265.1761,-75.7776 285.9364,-83.6204 303.9415,-90.4223"/>
<polygon fill="#191970" stroke="#191970" points="248.7633,-65.8359 238.1717,-65.576 246.2895,-72.3842 248.7633,-65.8359"/>
</g>
<!-- Node4 -->
<g id="node4" class="node">
<title>Node4</title>
<g id="a_node4"><a xlink:href="../../d6/d14/Fun4All__AnaTutorial__sPHENIX__Jets_8C.html#a61b352bca84476d24b0ff40991b27900" target="_top" xlink:title="Fun4All_AnaTutorial\l_sPHENIX_Jets">
<polygon fill="none" stroke="#000000" points="289,-39.5 289,-71.5 404,-71.5 404,-39.5 289,-39.5"/>
<text text-anchor="start" x="297" y="-58.5" font-family="FreeSans" font-size="10.00" fill="#000000">Fun4All_AnaTutorial</text>
<text text-anchor="middle" x="346.5" y="-46.5" font-family="FreeSans" font-size="10.00" fill="#000000">_sPHENIX_Jets</text>
</a>
</g>
</g>
<!-- Node2&#45;&gt;Node4 -->
<g id="edge3" class="edge">
<title>Node2&#45;&gt;Node4</title>
<path fill="none" stroke="#191970" d="M260.3907,-55.5C269.6572,-55.5 279.4313,-55.5 288.9366,-55.5"/>
<polygon fill="#191970" stroke="#191970" points="260.1856,-52.0001 250.1856,-55.5 260.1855,-59.0001 260.1856,-52.0001"/>
</g>
<!-- Node5 -->
<g id="node5" class="node">
<title>Node5</title>
<g id="a_node5"><a xlink:href="../../d1/d19/macros_2blob_2master_2detectors_2sPHENIX_2Fun4All__G4__sPHENIX_8C.html#a4102cd3e195333de974409428a2e6dae" target="_top" xlink:title="Fun4All_G4_sPHENIX">
<polygon fill="none" stroke="#000000" points="286,-.5 286,-20.5 407,-20.5 407,-.5 286,-.5"/>
<text text-anchor="middle" x="346.5" y="-7.5" font-family="FreeSans" font-size="10.00" fill="#000000">Fun4All_G4_sPHENIX</text>
</a>
</g>
</g>
<!-- Node2&#45;&gt;Node5 -->
<g id="edge4" class="edge">
<title>Node2&#45;&gt;Node5</title>
<path fill="none" stroke="#191970" d="M250.8598,-42.2553C262.1985,-38.4497 274.5873,-34.3013 286,-30.5 295.7609,-27.2489 306.4143,-23.7205 316.0236,-20.5452"/>
<polygon fill="#191970" stroke="#191970" points="249.5821,-38.9922 241.2168,-45.4939 251.8108,-45.6279 249.5821,-38.9922"/>
</g>
</g>
</svg>
