<?xml version="1.0" encoding="UTF-8" standalone="no"?>
<!DOCTYPE svg PUBLIC "-//W3C//DTD SVG 1.1//EN"
 "http://www.w3.org/Graphics/SVG/1.1/DTD/svg11.dtd">
<!-- Generated by graphviz version 2.40.1 (20161225.0304)
 -->
<!-- Title: S Pages: 1 -->
<svg width="1830pt" height="607pt"
 viewBox="0.00 0.00 1830.00 606.87" xmlns="http://www.w3.org/2000/svg" xmlns:xlink="http://www.w3.org/1999/xlink">
<g id="graph0" class="graph" transform="scale(1 1) rotate(0) translate(4 602.8737)">
<title>S</title>
<!-- Node1 -->
<g id="node1" class="node">
<title>Node1</title>
<polygon fill="#bfbfbf" stroke="#000000" points="0,-289.5 0,-309.5 29,-309.5 29,-289.5 0,-289.5"/>
<text text-anchor="middle" x="14.5" y="-296.5" font-family="FreeSans" font-size="10.00" fill="#000000">S</text>
</g>
<!-- Node2 -->
<g id="node2" class="node">
<title>Node2</title>
<g id="a_node2"><a xlink:href="../../d1/df3/arsenal_8h.html#a1cb8a97da6b9a04b2fe2353b6824212f" target="_top" xlink:title="adaptiveSimpsons">
<polygon fill="none" stroke="#000000" points="99.5,-577.5 99.5,-597.5 209.5,-597.5 209.5,-577.5 99.5,-577.5"/>
<text text-anchor="middle" x="154.5" y="-584.5" font-family="FreeSans" font-size="10.00" fill="#000000">adaptiveSimpsons</text>
</a>
</g>
</g>
<!-- Node1&#45;&gt;Node2 -->
<g id="edge1" class="edge">
<title>Node1&#45;&gt;Node2</title>
<path fill="none" stroke="#191970" d="M15.469,-319.7032C18.5907,-376.0203 30.2895,-532.9601 65,-568.5 74.1009,-577.8183 86.5542,-583.1165 99.2786,-586.0139"/>
<polygon fill="#191970" stroke="#191970" points="18.9566,-319.3733 14.9412,-309.5689 11.9661,-319.7374 18.9566,-319.3733"/>
</g>
<!-- Node3 -->
<g id="node3" class="node">
<title>Node3</title>
<g id="a_node3"><a xlink:href="../../dd/d7e/namespaceActs_1_1Test.html#ac46c00cd5ed010d3a697513b8bc6e3f1" target="_top" xlink:title="Acts::Test::BOOST_AUTO\l_TEST_CASE">
<polygon fill="none" stroke="#000000" points="84,-526.5 84,-558.5 225,-558.5 225,-526.5 84,-526.5"/>
<text text-anchor="start" x="92" y="-545.5" font-family="FreeSans" font-size="10.00" fill="#000000">Acts::Test::BOOST_AUTO</text>
<text text-anchor="middle" x="154.5" y="-533.5" font-family="FreeSans" font-size="10.00" fill="#000000">_TEST_CASE</text>
</a>
</g>
</g>
<!-- Node1&#45;&gt;Node3 -->
<g id="edge2" class="edge">
<title>Node1&#45;&gt;Node3</title>
<path fill="none" stroke="#191970" d="M16.5766,-319.8482C21.9291,-368.3731 37.72,-488.971 65,-517.5 70.3518,-523.0969 76.8432,-527.4738 83.8587,-530.8915"/>
<polygon fill="#191970" stroke="#191970" points="20.03,-319.2246 15.49,-309.6518 13.0694,-319.9664 20.03,-319.2246"/>
</g>
<!-- Node4 -->
<g id="node4" class="node">
<title>Node4</title>
<g id="a_node4"><a xlink:href="../../da/d33/classActs_1_1AtlasStepper.html#a093682c13b159b60ab469d968e6e6f38" target="_top" xlink:title="Acts::AtlasStepper\l::covarianceTransport">
<polygon fill="none" stroke="#000000" points="91.5,-475.5 91.5,-507.5 217.5,-507.5 217.5,-475.5 91.5,-475.5"/>
<text text-anchor="start" x="99.5" y="-494.5" font-family="FreeSans" font-size="10.00" fill="#000000">Acts::AtlasStepper</text>
<text text-anchor="middle" x="154.5" y="-482.5" font-family="FreeSans" font-size="10.00" fill="#000000">::covarianceTransport</text>
</a>
</g>
</g>
<!-- Node1&#45;&gt;Node4 -->
<g id="edge3" class="edge">
<title>Node1&#45;&gt;Node4</title>
<path fill="none" stroke="#191970" d="M18.0708,-319.5358C25.528,-359.2199 43.8306,-445.7761 65,-466.5 72.3782,-473.7229 81.661,-478.8969 91.435,-482.5949"/>
<polygon fill="#191970" stroke="#191970" points="21.5096,-318.8833 16.2617,-309.6794 14.6246,-320.147 21.5096,-318.8833"/>
</g>
<!-- Node5 -->
<g id="node5" class="node">
<title>Node5</title>
<g id="a_node5"><a xlink:href="../../d1/d34/classgenfit_1_1MaterialEffects.html#a6fb63ab0de849789791cd7fe87a87d15" target="_top" xlink:title="Returns dEdx.">
<polygon fill="none" stroke="#000000" points="90.5,-424.5 90.5,-456.5 218.5,-456.5 218.5,-424.5 90.5,-424.5"/>
<text text-anchor="start" x="98.5" y="-443.5" font-family="FreeSans" font-size="10.00" fill="#000000">genfit::MaterialEffects</text>
<text text-anchor="middle" x="154.5" y="-431.5" font-family="FreeSans" font-size="10.00" fill="#000000">::dEdxBrems</text>
</a>
</g>
</g>
<!-- Node1&#45;&gt;Node5 -->
<g id="edge4" class="edge">
<title>Node1&#45;&gt;Node5</title>
<path fill="none" stroke="#191970" d="M18.6294,-319.5394C24.6855,-344.0473 38.2806,-385.2532 65,-409.5 72.3064,-416.1303 81.1043,-421.3555 90.2932,-425.4701"/>
<polygon fill="#191970" stroke="#191970" points="21.9929,-318.5465 16.3573,-309.5749 15.1681,-320.1028 21.9929,-318.5465"/>
</g>
<!-- Node20 -->
<g id="node20" class="node">
<title>Node20</title>
<g id="a_node20"><a xlink:href="../../d2/d12/classgenfit_1_1RKTrackRep.html#ae3384d3819bb9c4d8aa9e1981913331b" target="_top" xlink:title="Propagates the particle through the magnetic field.">
<polygon fill="none" stroke="#000000" points="1077.5,-401.5 1077.5,-433.5 1188.5,-433.5 1188.5,-401.5 1077.5,-401.5"/>
<text text-anchor="start" x="1085.5" y="-420.5" font-family="FreeSans" font-size="10.00" fill="#000000">genfit::RKTrackRep</text>
<text text-anchor="middle" x="1133" y="-408.5" font-family="FreeSans" font-size="10.00" fill="#000000">::RKutta</text>
</a>
</g>
</g>
<!-- Node1&#45;&gt;Node20 -->
<g id="edge54" class="edge">
<title>Node1&#45;&gt;Node20</title>
<path fill="none" stroke="#191970" d="M39.0692,-307.5705C47.2523,-310.0506 56.4588,-312.6193 65,-314.5 194.3968,-342.9925 227.5034,-357.5 360,-357.5 360,-357.5 360,-357.5 754.5,-357.5 870.4326,-357.5 1003.9033,-385.2982 1077.325,-403.0522"/>
<polygon fill="#191970" stroke="#191970" points="39.9676,-304.1842 29.3785,-304.5346 37.8749,-310.8641 39.9676,-304.1842"/>
</g>
<!-- Node22 -->
<g id="node22" class="node">
<title>Node22</title>
<g id="a_node22"><a xlink:href="../../db/d45/namespacegenfit_1_1tools.html#adc2bca594b70cc0ade79777b79e4f8ed" target="_top" xlink:title="Calculate the Kalman measurement update with no transport. x, S : state prediction, covariance square root res, R, H : residual, measurement covariance square root, H matrix of the measurement.">
<polygon fill="none" stroke="#000000" points="65,-270.5 65,-290.5 244,-290.5 244,-270.5 65,-270.5"/>
<text text-anchor="middle" x="154.5" y="-277.5" font-family="FreeSans" font-size="10.00" fill="#000000">genfit::tools::kalmanUpdateSqrt</text>
</a>
</g>
</g>
<!-- Node1&#45;&gt;Node22 -->
<g id="edge28" class="edge">
<title>Node1&#45;&gt;Node22</title>
<path fill="none" stroke="#191970" d="M39.4723,-296.1109C51.1953,-294.5199 65.8454,-292.5317 80.7237,-290.5125"/>
<polygon fill="#191970" stroke="#191970" points="38.6563,-292.6895 29.2178,-297.5026 39.5977,-299.6259 38.6563,-292.6895"/>
</g>
<!-- Node23 -->
<g id="node23" class="node">
<title>Node23</title>
<g id="a_node23"><a xlink:href="../../d4/db7/classgenfit_1_1KalmanFitter.html#afe8b6ebb672298327052897b7c95135d" target="_top" xlink:title="genfit::KalmanFitter\l::processTrackPoint">
<polygon fill="none" stroke="#000000" points="301.5,-286.5 301.5,-318.5 418.5,-318.5 418.5,-286.5 301.5,-286.5"/>
<text text-anchor="start" x="309.5" y="-305.5" font-family="FreeSans" font-size="10.00" fill="#000000">genfit::KalmanFitter</text>
<text text-anchor="middle" x="360" y="-293.5" font-family="FreeSans" font-size="10.00" fill="#000000">::processTrackPoint</text>
</a>
</g>
</g>
<!-- Node1&#45;&gt;Node23 -->
<g id="edge42" class="edge">
<title>Node1&#45;&gt;Node23</title>
<path fill="none" stroke="#191970" d="M39.1692,-300.0527C47.3855,-300.2197 56.5865,-300.3882 65,-300.5 146.9391,-301.589 241.6887,-302.098 301.2282,-302.3266"/>
<polygon fill="#191970" stroke="#191970" points="39.1564,-296.5518 29.0844,-299.839 39.008,-303.5502 39.1564,-296.5518"/>
</g>
<!-- Node29 -->
<g id="node29" class="node">
<title>Node29</title>
<g id="a_node29"><a xlink:href="../../d8/d26/classgenfit_1_1KalmanFitterRefTrack.html#adc865a1152d111df9d724e047decaf3e" target="_top" xlink:title="genfit::KalmanFitterRefTrack\l::processTrackPointSqrt">
<polygon fill="none" stroke="#000000" points="280,-228.5 280,-260.5 440,-260.5 440,-228.5 280,-228.5"/>
<text text-anchor="start" x="288" y="-247.5" font-family="FreeSans" font-size="10.00" fill="#000000">genfit::KalmanFitterRefTrack</text>
<text text-anchor="middle" x="360" y="-235.5" font-family="FreeSans" font-size="10.00" fill="#000000">::processTrackPointSqrt</text>
</a>
</g>
</g>
<!-- Node1&#45;&gt;Node29 -->
<g id="edge43" class="edge">
<title>Node1&#45;&gt;Node29</title>
<path fill="none" stroke="#191970" d="M31.7755,-282.4465C40.88,-274.5832 52.6955,-266.01 65,-261.5 134.3601,-236.0775 219.0299,-233.8764 279.8401,-236.8165"/>
<polygon fill="#191970" stroke="#191970" points="29.2619,-280.0022 24.2402,-289.3314 33.9836,-285.17 29.2619,-280.0022"/>
</g>
<!-- Node33 -->
<g id="node33" class="node">
<title>Node33</title>
<g id="a_node33"><a xlink:href="../../d0/d2e/classActs_1_1HelicalTrackLinearizer.html#a95951c54c22bab5d88deb9b5096ab612" target="_top" xlink:title="Function that linearizes BoundTrackParameters at given linearization point.">
<polygon fill="none" stroke="#000000" points="76.5,-180.5 76.5,-212.5 232.5,-212.5 232.5,-180.5 76.5,-180.5"/>
<text text-anchor="start" x="84.5" y="-199.5" font-family="FreeSans" font-size="10.00" fill="#000000">Acts::HelicalTrackLinearizer</text>
<text text-anchor="middle" x="154.5" y="-187.5" font-family="FreeSans" font-size="10.00" fill="#000000">::linearizeTrack</text>
</a>
</g>
</g>
<!-- Node1&#45;&gt;Node33 -->
<g id="edge39" class="edge">
<title>Node1&#45;&gt;Node33</title>
<path fill="none" stroke="#191970" d="M23.6355,-280.2813C32.2289,-264.1029 46.528,-241.4346 65,-227.5 73.0078,-221.4592 82.281,-216.5371 91.7619,-212.5436"/>
<polygon fill="#191970" stroke="#191970" points="20.4239,-278.8763 19.0359,-289.3798 26.671,-282.0345 20.4239,-278.8763"/>
</g>
<!-- Node35 -->
<g id="node35" class="node">
<title>Node35</title>
<g id="a_node35"><a xlink:href="../../dd/de8/SeedfinderSyclTest_8cpp.html#a808f40e2e9d6eb5463165c031dfa3eb1" target="_top" xlink:title="main">
<polygon fill="none" stroke="#000000" points="134,-141.5 134,-161.5 175,-161.5 175,-141.5 134,-141.5"/>
<text text-anchor="middle" x="154.5" y="-148.5" font-family="FreeSans" font-size="10.00" fill="#000000">main</text>
</a>
</g>
</g>
<!-- Node1&#45;&gt;Node35 -->
<g id="edge41" class="edge">
<title>Node1&#45;&gt;Node35</title>
<path fill="none" stroke="#191970" d="M16.6224,-279.3689C20.7316,-250.919 32.4614,-199.3229 65,-171.5 84.2403,-155.0481 114.1058,-151.3174 133.976,-150.8522"/>
<polygon fill="#191970" stroke="#191970" points="13.1406,-279.005 15.3579,-289.3652 20.0853,-279.8835 13.1406,-279.005"/>
</g>
<!-- Node36 -->
<g id="node36" class="node">
<title>Node36</title>
<g id="a_node36"><a xlink:href="../../d5/daa/exceptionActs_1_1Propagator.html#a4fb6c910a42d056bb9ecb68f1d9c15c3" target="_top" xlink:title="Propagate track parameters.">
<polygon fill="none" stroke="#000000" points="75,-102.5 75,-122.5 234,-122.5 234,-102.5 75,-102.5"/>
<text text-anchor="middle" x="154.5" y="-109.5" font-family="FreeSans" font-size="10.00" fill="#000000">Acts::Propagator::propagate</text>
</a>
</g>
</g>
<!-- Node1&#45;&gt;Node36 -->
<g id="edge44" class="edge">
<title>Node1&#45;&gt;Node36</title>
<path fill="none" stroke="#191970" d="M17.9811,-279.3702C25.2746,-239.5144 43.2936,-152.6608 65,-132.5 69.3164,-128.491 74.2546,-125.2231 79.5448,-122.5657"/>
<polygon fill="#191970" stroke="#191970" points="14.5256,-278.8114 16.2143,-289.2708 21.4168,-280.0413 14.5256,-278.8114"/>
</g>
<!-- Node39 -->
<g id="node39" class="node">
<title>Node39</title>
<g id="a_node39"><a xlink:href="../../d0/dc1/classgenfit_1_1MplTrackRep.html#a6451b6cc97edc9e5096a2824e1dff5bb" target="_top" xlink:title="The actual Runge Kutta propagation.">
<polygon fill="none" stroke="#000000" points="96.5,-51.5 96.5,-83.5 212.5,-83.5 212.5,-51.5 96.5,-51.5"/>
<text text-anchor="start" x="104.5" y="-70.5" font-family="FreeSans" font-size="10.00" fill="#000000">genfit::MplTrackRep</text>
<text text-anchor="middle" x="154.5" y="-58.5" font-family="FreeSans" font-size="10.00" fill="#000000">::RKPropagate</text>
</a>
</g>
</g>
<!-- Node1&#45;&gt;Node39 -->
<g id="edge47" class="edge">
<title>Node1&#45;&gt;Node39</title>
<path fill="none" stroke="#191970" d="M16.8377,-279.2393C22.6217,-232.5494 39.0408,-119.333 65,-92.5 73.413,-83.8038 84.5784,-78.0572 96.1613,-74.2784"/>
<polygon fill="#191970" stroke="#191970" points="13.3414,-278.9999 15.6245,-289.3458 20.2915,-279.8343 13.3414,-278.9999"/>
</g>
<!-- Node40 -->
<g id="node40" class="node">
<title>Node40</title>
<g id="a_node40"><a xlink:href="../../d2/d12/classgenfit_1_1RKTrackRep.html#ac93d7949e40eddbe2d25f879b9c0d190" target="_top" xlink:title="The actual Runge Kutta propagation.">
<polygon fill="none" stroke="#000000" points="500.5,-425.5 500.5,-457.5 611.5,-457.5 611.5,-425.5 500.5,-425.5"/>
<text text-anchor="start" x="508.5" y="-444.5" font-family="FreeSans" font-size="10.00" fill="#000000">genfit::RKTrackRep</text>
<text text-anchor="middle" x="556" y="-432.5" font-family="FreeSans" font-size="10.00" fill="#000000">::RKPropagate</text>
</a>
</g>
</g>
<!-- Node1&#45;&gt;Node40 -->
<g id="edge48" class="edge">
<title>Node1&#45;&gt;Node40</title>
<path fill="none" stroke="#191970" d="M22.7447,-319.087C30.9024,-335.8888 45.0629,-359.2662 65,-371.5 101.6031,-393.9605 379.3429,-423.9254 500.1561,-436.0581"/>
<polygon fill="#191970" stroke="#191970" points="25.7706,-317.2861 18.4432,-309.6337 19.3992,-320.1853 25.7706,-317.2861"/>
</g>
<!-- Node43 -->
<g id="node43" class="node">
<title>Node43</title>
<g id="a_node43"><a xlink:href="../../d6/d48/structActs_1_1detail_1_1covariance__helper.html#a34fe7bc1e18d6c41e194da12ad846491" target="_top" xlink:title="check if the covariance is semi&#45;positive and correction is attempted">
<polygon fill="none" stroke="#000000" points="86.5,-.5 86.5,-32.5 222.5,-32.5 222.5,-.5 86.5,-.5"/>
<text text-anchor="start" x="94.5" y="-19.5" font-family="FreeSans" font-size="10.00" fill="#000000">Acts::detail::covariance</text>
<text text-anchor="middle" x="154.5" y="-7.5" font-family="FreeSans" font-size="10.00" fill="#000000">_helper::validate</text>
</a>
</g>
</g>
<!-- Node1&#45;&gt;Node43 -->
<g id="edge55" class="edge">
<title>Node1&#45;&gt;Node43</title>
<path fill="none" stroke="#191970" d="M15.7783,-279.1508C19.6179,-224.5017 32.8315,-76.3191 65,-41.5 70.9118,-35.1011 78.3119,-30.2893 86.3092,-26.6799"/>
<polygon fill="#191970" stroke="#191970" points="12.2736,-279.1067 15.0979,-289.3181 19.2579,-279.5742 12.2736,-279.1067"/>
</g>
<!-- Node6 -->
<g id="node6" class="node">
<title>Node6</title>
<g id="a_node6"><a xlink:href="../../d1/d34/classgenfit_1_1MaterialEffects.html#afa5950a2ad4150b4d89ff1b0f750ce56" target="_top" xlink:title="Calculate dEdx for a given energy.">
<polygon fill="none" stroke="#000000" points="296,-485.5 296,-517.5 424,-517.5 424,-485.5 296,-485.5"/>
<text text-anchor="start" x="304" y="-504.5" font-family="FreeSans" font-size="10.00" fill="#000000">genfit::MaterialEffects</text>
<text text-anchor="middle" x="360" y="-492.5" font-family="FreeSans" font-size="10.00" fill="#000000">::dEdx</text>
</a>
</g>
</g>
<!-- Node5&#45;&gt;Node6 -->
<g id="edge5" class="edge">
<title>Node5&#45;&gt;Node6</title>
<path fill="none" stroke="#191970" d="M220.1356,-459.4831C228.1777,-461.8339 236.279,-464.2138 244,-466.5 264.6742,-472.6217 287.3892,-479.4522 307.1963,-485.4426"/>
<polygon fill="#191970" stroke="#191970" points="220.9652,-456.0793 210.3851,-456.6384 219.0046,-462.7991 220.9652,-456.0793"/>
</g>
<!-- Node7 -->
<g id="node7" class="node">
<title>Node7</title>
<g id="a_node7"><a xlink:href="../../d1/d34/classgenfit_1_1MaterialEffects.html#ad7852f974405ca9831b7b2a304e8e553" target="_top" xlink:title="Returns momentum loss.">
<polygon fill="none" stroke="#000000" points="492,-552.5 492,-584.5 620,-584.5 620,-552.5 492,-552.5"/>
<text text-anchor="start" x="500" y="-571.5" font-family="FreeSans" font-size="10.00" fill="#000000">genfit::MaterialEffects</text>
<text text-anchor="middle" x="556" y="-559.5" font-family="FreeSans" font-size="10.00" fill="#000000">::momentumLoss</text>
</a>
</g>
</g>
<!-- Node6&#45;&gt;Node7 -->
<g id="edge6" class="edge">
<title>Node6&#45;&gt;Node7</title>
<path fill="none" stroke="#191970" d="M416.6385,-520.8611C445.9582,-530.8837 481.3273,-542.9741 509.0969,-552.4668"/>
<polygon fill="#191970" stroke="#191970" points="417.5414,-517.471 406.9469,-517.5482 415.2772,-524.0947 417.5414,-517.471"/>
</g>
<!-- Node21 -->
<g id="node21" class="node">
<title>Node21</title>
<g id="a_node21"><a xlink:href="../../d1/d34/classgenfit_1_1MaterialEffects.html#aafe6915ea9e2b517de3989bc6bfe2899" target="_top" xlink:title="genfit::MaterialEffects\l::drawdEdx">
<polygon fill="none" stroke="#000000" points="492,-485.5 492,-517.5 620,-517.5 620,-485.5 492,-485.5"/>
<text text-anchor="start" x="500" y="-504.5" font-family="FreeSans" font-size="10.00" fill="#000000">genfit::MaterialEffects</text>
<text text-anchor="middle" x="556" y="-492.5" font-family="FreeSans" font-size="10.00" fill="#000000">::drawdEdx</text>
</a>
</g>
</g>
<!-- Node6&#45;&gt;Node21 -->
<g id="edge27" class="edge">
<title>Node6&#45;&gt;Node21</title>
<path fill="none" stroke="#191970" d="M434.2338,-501.5C453.1434,-501.5 473.3093,-501.5 491.6781,-501.5"/>
<polygon fill="#191970" stroke="#191970" points="434.1778,-498.0001 424.1777,-501.5 434.1777,-505.0001 434.1778,-498.0001"/>
</g>
<!-- Node8 -->
<g id="node8" class="node">
<title>Node8</title>
<g id="a_node8"><a xlink:href="../../d1/d34/classgenfit_1_1MaterialEffects.html#ac11f0e9f0c47f9ae160e0e21cf846d01" target="_top" xlink:title="Calculates energy loss in the traveled path, optional calculation of noise matrix.">
<polygon fill="none" stroke="#000000" points="1069,-524.5 1069,-556.5 1197,-556.5 1197,-524.5 1069,-524.5"/>
<text text-anchor="start" x="1077" y="-543.5" font-family="FreeSans" font-size="10.00" fill="#000000">genfit::MaterialEffects</text>
<text text-anchor="middle" x="1133" y="-531.5" font-family="FreeSans" font-size="10.00" fill="#000000">::effects</text>
</a>
</g>
</g>
<!-- Node7&#45;&gt;Node8 -->
<g id="edge7" class="edge">
<title>Node7&#45;&gt;Node8</title>
<path fill="none" stroke="#191970" d="M625.6146,-586.7132C640.7983,-589.9517 656.8554,-592.8236 672,-594.5 815.366,-610.37 983.6296,-577.6458 1071.8805,-556.5244"/>
<polygon fill="#191970" stroke="#191970" points="626.3008,-583.2805 615.7812,-584.5411 624.7909,-590.1157 626.3008,-583.2805"/>
</g>
<!-- Node18 -->
<g id="node18" class="node">
<title>Node18</title>
<g id="a_node18"><a xlink:href="../../d1/d34/classgenfit_1_1MaterialEffects.html#a650a96bd4e7202f0df289f812420ba26" target="_top" xlink:title="Returns maximum length so that a specified momentum loss will not be exceeded.">
<polygon fill="none" stroke="#000000" points="690.5,-552.5 690.5,-584.5 818.5,-584.5 818.5,-552.5 690.5,-552.5"/>
<text text-anchor="start" x="698.5" y="-571.5" font-family="FreeSans" font-size="10.00" fill="#000000">genfit::MaterialEffects</text>
<text text-anchor="middle" x="754.5" y="-559.5" font-family="FreeSans" font-size="10.00" fill="#000000">::stepper</text>
</a>
</g>
</g>
<!-- Node7&#45;&gt;Node18 -->
<g id="edge23" class="edge">
<title>Node7&#45;&gt;Node18</title>
<path fill="none" stroke="#191970" d="M630.3238,-568.5C650.0129,-568.5 671.1013,-568.5 690.208,-568.5"/>
<polygon fill="#191970" stroke="#191970" points="630.1732,-565.0001 620.1731,-568.5 630.1731,-572.0001 630.1732,-565.0001"/>
</g>
<!-- Node9 -->
<g id="node9" class="node">
<title>Node9</title>
<g id="a_node9"><a xlink:href="../../d2/d12/classgenfit_1_1RKTrackRep.html#a8aab6f587db26d572214ede92f4877fc" target="_top" xlink:title="Handles propagation and material effects.">
<polygon fill="none" stroke="#000000" points="1233,-426.5 1233,-458.5 1344,-458.5 1344,-426.5 1233,-426.5"/>
<text text-anchor="start" x="1241" y="-445.5" font-family="FreeSans" font-size="10.00" fill="#000000">genfit::RKTrackRep</text>
<text text-anchor="middle" x="1288.5" y="-433.5" font-family="FreeSans" font-size="10.00" fill="#000000">::Extrap</text>
</a>
</g>
</g>
<!-- Node8&#45;&gt;Node9 -->
<g id="edge8" class="edge">
<title>Node8&#45;&gt;Node9</title>
<path fill="none" stroke="#191970" d="M1167.2442,-518.9185C1196.1674,-500.6903 1236.9361,-474.9969 1263.0426,-458.5439"/>
<polygon fill="#191970" stroke="#191970" points="1165.2716,-516.0245 1158.6777,-524.3173 1169.0039,-521.9465 1165.2716,-516.0245"/>
</g>
<!-- Node10 -->
<g id="node10" class="node">
<title>Node10</title>
<g id="a_node10"><a xlink:href="../../d2/d12/classgenfit_1_1RKTrackRep.html#a03a1d1eb5b7169ba697ccf114de5066c" target="_top" xlink:title="Extrapolates the state to plane, and returns the extrapolation length and, via reference, the extrapolated state.">
<polygon fill="none" stroke="#000000" points="1380,-426.5 1380,-458.5 1499,-458.5 1499,-426.5 1380,-426.5"/>
<text text-anchor="start" x="1388" y="-445.5" font-family="FreeSans" font-size="10.00" fill="#000000">genfit::RKTrackRep</text>
<text text-anchor="middle" x="1439.5" y="-433.5" font-family="FreeSans" font-size="10.00" fill="#000000">::extrapolateToPlane</text>
</a>
</g>
</g>
<!-- Node9&#45;&gt;Node10 -->
<g id="edge9" class="edge">
<title>Node9&#45;&gt;Node10</title>
<path fill="none" stroke="#191970" d="M1354.4898,-442.5C1362.9347,-442.5 1371.5409,-442.5 1379.8767,-442.5"/>
<polygon fill="#191970" stroke="#191970" points="1354.2978,-439.0001 1344.2978,-442.5 1354.2978,-446.0001 1354.2978,-439.0001"/>
</g>
<!-- Node11 -->
<g id="node11" class="node">
<title>Node11</title>
<g id="a_node11"><a xlink:href="../../d2/d12/classgenfit_1_1RKTrackRep.html#a216b86da9a7238ff9cf24e944b0f9e4b" target="_top" xlink:title="Extrapolates the state to the POCA to a line, and returns the extrapolation length and...">
<polygon fill="none" stroke="#000000" points="1545.5,-557.5 1545.5,-589.5 1658.5,-589.5 1658.5,-557.5 1545.5,-557.5"/>
<text text-anchor="start" x="1553.5" y="-576.5" font-family="FreeSans" font-size="10.00" fill="#000000">genfit::RKTrackRep</text>
<text text-anchor="middle" x="1602" y="-564.5" font-family="FreeSans" font-size="10.00" fill="#000000">::extrapolateToLine</text>
</a>
</g>
</g>
<!-- Node9&#45;&gt;Node11 -->
<g id="edge17" class="edge">
<title>Node9&#45;&gt;Node11</title>
<path fill="none" stroke="#191970" d="M1313.7318,-465.6532C1331.2082,-480.6056 1355.6307,-499.4496 1380,-511.5 1433.0884,-537.7517 1498.9921,-554.372 1545.1497,-563.7232"/>
<polygon fill="#191970" stroke="#191970" points="1315.5748,-462.6157 1305.7412,-458.6723 1310.9694,-467.8874 1315.5748,-462.6157"/>
</g>
<!-- Node12 -->
<g id="node12" class="node">
<title>Node12</title>
<g id="a_node12"><a xlink:href="../../d2/d12/classgenfit_1_1RKTrackRep.html#abb38b9cdcf9cfa490b795530579bcd73" target="_top" xlink:title="genfit::RKTrackRep\l::extrapToPoint">
<polygon fill="none" stroke="#000000" points="1546.5,-506.5 1546.5,-538.5 1657.5,-538.5 1657.5,-506.5 1546.5,-506.5"/>
<text text-anchor="start" x="1554.5" y="-525.5" font-family="FreeSans" font-size="10.00" fill="#000000">genfit::RKTrackRep</text>
<text text-anchor="middle" x="1602" y="-513.5" font-family="FreeSans" font-size="10.00" fill="#000000">::extrapToPoint</text>
</a>
</g>
</g>
<!-- Node9&#45;&gt;Node12 -->
<g id="edge18" class="edge">
<title>Node9&#45;&gt;Node12</title>
<path fill="none" stroke="#191970" d="M1326.4405,-463.1916C1342.5524,-471.2166 1361.7903,-479.8225 1380,-485.5 1435.2074,-502.7128 1500.78,-512.3897 1546.2811,-517.4912"/>
<polygon fill="#191970" stroke="#191970" points="1327.8461,-459.9797 1317.3467,-458.5603 1324.6693,-466.2174 1327.8461,-459.9797"/>
</g>
<!-- Node14 -->
<g id="node14" class="node">
<title>Node14</title>
<g id="a_node14"><a xlink:href="../../d2/d12/classgenfit_1_1RKTrackRep.html#abb4665294ae573dc5423f2975bb8b3e7" target="_top" xlink:title="Extrapolates the state to the cylinder surface, and returns the extrapolation length and...">
<polygon fill="none" stroke="#000000" points="1535,-455.5 1535,-487.5 1669,-487.5 1669,-455.5 1535,-455.5"/>
<text text-anchor="start" x="1543" y="-474.5" font-family="FreeSans" font-size="10.00" fill="#000000">genfit::RKTrackRep</text>
<text text-anchor="middle" x="1602" y="-462.5" font-family="FreeSans" font-size="10.00" fill="#000000">::extrapolateToCylinder</text>
</a>
</g>
</g>
<!-- Node9&#45;&gt;Node14 -->
<g id="edge19" class="edge">
<title>Node9&#45;&gt;Node14</title>
<path fill="none" stroke="#191970" d="M1345.6737,-461.2341C1356.9371,-464.2153 1368.7518,-466.8554 1380,-468.5 1431.4885,-476.0283 1490.4091,-476.4509 1534.6046,-475.1685"/>
<polygon fill="#191970" stroke="#191970" points="1346.5168,-457.836 1335.9456,-458.5429 1344.6504,-464.5826 1346.5168,-457.836"/>
</g>
<!-- Node15 -->
<g id="node15" class="node">
<title>Node15</title>
<g id="a_node15"><a xlink:href="../../d2/d12/classgenfit_1_1RKTrackRep.html#a44091ce8605a38c40d4a4f1692af448b" target="_top" xlink:title="Extrapolates the state to the cone surface, and returns the extrapolation length and, via reference, the extrapolated state.">
<polygon fill="none" stroke="#000000" points="1543.5,-404.5 1543.5,-436.5 1660.5,-436.5 1660.5,-404.5 1543.5,-404.5"/>
<text text-anchor="start" x="1551.5" y="-423.5" font-family="FreeSans" font-size="10.00" fill="#000000">genfit::RKTrackRep</text>
<text text-anchor="middle" x="1602" y="-411.5" font-family="FreeSans" font-size="10.00" fill="#000000">::extrapolateToCone</text>
</a>
</g>
</g>
<!-- Node9&#45;&gt;Node15 -->
<g id="edge20" class="edge">
<title>Node9&#45;&gt;Node15</title>
<path fill="none" stroke="#191970" d="M1347.5438,-423.903C1358.2439,-421.241 1369.3783,-418.9249 1380,-417.5 1435.0122,-410.1199 1498.3779,-411.9916 1543.2932,-415.042"/>
<polygon fill="#191970" stroke="#191970" points="1346.6581,-420.5168 1337.8665,-426.4293 1348.4263,-427.2899 1346.6581,-420.5168"/>
</g>
<!-- Node16 -->
<g id="node16" class="node">
<title>Node16</title>
<g id="a_node16"><a xlink:href="../../d2/d12/classgenfit_1_1RKTrackRep.html#aaa34d4913daa972f1947554c4b1e23a8" target="_top" xlink:title="Extrapolates the state to the sphere surface, and returns the extrapolation length and...">
<polygon fill="none" stroke="#000000" points="1538.5,-353.5 1538.5,-385.5 1665.5,-385.5 1665.5,-353.5 1538.5,-353.5"/>
<text text-anchor="start" x="1546.5" y="-372.5" font-family="FreeSans" font-size="10.00" fill="#000000">genfit::RKTrackRep</text>
<text text-anchor="middle" x="1602" y="-360.5" font-family="FreeSans" font-size="10.00" fill="#000000">::extrapolateToSphere</text>
</a>
</g>
</g>
<!-- Node9&#45;&gt;Node16 -->
<g id="edge21" class="edge">
<title>Node9&#45;&gt;Node16</title>
<path fill="none" stroke="#191970" d="M1335.3139,-422.5726C1349.4798,-417.0948 1365.2063,-411.5535 1380,-407.5 1432.42,-393.137 1493.3641,-383.1684 1538.1214,-377.0565"/>
<polygon fill="#191970" stroke="#191970" points="1333.8017,-419.4067 1325.7867,-426.3357 1336.3733,-425.9172 1333.8017,-419.4067"/>
</g>
<!-- Node17 -->
<g id="node17" class="node">
<title>Node17</title>
<g id="a_node17"><a xlink:href="../../d2/d12/classgenfit_1_1RKTrackRep.html#afb21945e3f605f45b1a5bbbe7741793f" target="_top" xlink:title="Extrapolates the state by step (cm) and returns the extrapolation length and, via reference...">
<polygon fill="none" stroke="#000000" points="1546.5,-302.5 1546.5,-334.5 1657.5,-334.5 1657.5,-302.5 1546.5,-302.5"/>
<text text-anchor="start" x="1554.5" y="-321.5" font-family="FreeSans" font-size="10.00" fill="#000000">genfit::RKTrackRep</text>
<text text-anchor="middle" x="1602" y="-309.5" font-family="FreeSans" font-size="10.00" fill="#000000">::extrapolateBy</text>
</a>
</g>
</g>
<!-- Node9&#45;&gt;Node17 -->
<g id="edge22" class="edge">
<title>Node9&#45;&gt;Node17</title>
<path fill="none" stroke="#191970" d="M1315.724,-420.1411C1333.19,-406.7412 1356.8586,-390.2696 1380,-379.5 1433.9948,-354.3719 1500.3411,-337.8301 1546.3697,-328.392"/>
<polygon fill="#191970" stroke="#191970" points="1313.3984,-417.5165 1307.6775,-426.434 1317.7108,-423.0305 1313.3984,-417.5165"/>
</g>
<!-- Node10&#45;&gt;Node11 -->
<g id="edge10" class="edge">
<title>Node10&#45;&gt;Node11</title>
<path fill="none" stroke="#191970" d="M1456.0791,-466.8935C1473.3282,-490.6354 1502.3483,-526.2911 1535,-548.5 1539.9275,-551.8516 1545.3627,-554.8253 1550.942,-557.4449"/>
<polygon fill="#191970" stroke="#191970" points="1458.9214,-464.851 1450.2718,-458.7325 1453.218,-468.9095 1458.9214,-464.851"/>
</g>
<!-- Node10&#45;&gt;Node12 -->
<g id="edge11" class="edge">
<title>Node10&#45;&gt;Node12</title>
<path fill="none" stroke="#191970" d="M1473.7218,-464.0509C1491.601,-474.833 1514.0661,-487.6491 1535,-497.5 1541.6279,-500.6189 1548.7595,-503.6281 1555.8106,-506.4124"/>
<polygon fill="#191970" stroke="#191970" points="1475.1827,-460.8423 1464.8226,-458.6244 1471.5384,-466.8189 1475.1827,-460.8423"/>
</g>
<!-- Node10&#45;&gt;Node14 -->
<g id="edge13" class="edge">
<title>Node10&#45;&gt;Node14</title>
<path fill="none" stroke="#191970" d="M1508.9965,-454.9025C1517.5274,-456.4249 1526.2349,-457.9788 1534.732,-459.4953"/>
<polygon fill="#191970" stroke="#191970" points="1509.5457,-451.4452 1499.0863,-453.1339 1508.3158,-458.3364 1509.5457,-451.4452"/>
</g>
<!-- Node10&#45;&gt;Node15 -->
<g id="edge14" class="edge">
<title>Node10&#45;&gt;Node15</title>
<path fill="none" stroke="#191970" d="M1509.003,-433.0904C1520.4064,-431.5465 1532.1251,-429.96 1543.2351,-428.4559"/>
<polygon fill="#191970" stroke="#191970" points="1508.5263,-429.6229 1499.0863,-434.4329 1509.4655,-436.5596 1508.5263,-429.6229"/>
</g>
<!-- Node10&#45;&gt;Node16 -->
<g id="edge15" class="edge">
<title>Node10&#45;&gt;Node16</title>
<path fill="none" stroke="#191970" d="M1479.6337,-421.78C1496.5643,-413.293 1516.584,-403.5866 1535,-395.5 1542.6542,-392.139 1550.8912,-388.7563 1558.8816,-385.5936"/>
<polygon fill="#191970" stroke="#191970" points="1477.926,-418.7214 1470.5754,-426.3516 1481.0799,-424.9706 1477.926,-418.7214"/>
</g>
<!-- Node10&#45;&gt;Node17 -->
<g id="edge16" class="edge">
<title>Node10&#45;&gt;Node17</title>
<path fill="none" stroke="#191970" d="M1457.9628,-418.3322C1475.69,-396.5237 1504.2506,-364.8331 1535,-344.5 1540.62,-340.7837 1546.8503,-337.4784 1553.1832,-334.576"/>
<polygon fill="#191970" stroke="#191970" points="1455.2166,-416.1622 1451.7171,-426.1624 1460.689,-420.5272 1455.2166,-416.1622"/>
</g>
<!-- Node13 -->
<g id="node13" class="node">
<title>Node13</title>
<g id="a_node13"><a xlink:href="../../d2/d12/classgenfit_1_1RKTrackRep.html#aff9f0db2e194bd9889386cc73ed2d0cd" target="_top" xlink:title="Extrapolates the state to the POCA to a point, and returns the extrapolation length and...">
<polygon fill="none" stroke="#000000" points="1705,-506.5 1705,-538.5 1822,-538.5 1822,-506.5 1705,-506.5"/>
<text text-anchor="start" x="1713" y="-525.5" font-family="FreeSans" font-size="10.00" fill="#000000">genfit::RKTrackRep</text>
<text text-anchor="middle" x="1763.5" y="-513.5" font-family="FreeSans" font-size="10.00" fill="#000000">::extrapolateToPoint</text>
</a>
</g>
</g>
<!-- Node12&#45;&gt;Node13 -->
<g id="edge12" class="edge">
<title>Node12&#45;&gt;Node13</title>
<path fill="none" stroke="#191970" d="M1667.7434,-522.5C1680.0089,-522.5 1692.753,-522.5 1704.7897,-522.5"/>
<polygon fill="#191970" stroke="#191970" points="1667.5792,-519.0001 1657.5791,-522.5 1667.5791,-526.0001 1667.5792,-519.0001"/>
</g>
<!-- Node19 -->
<g id="node19" class="node">
<title>Node19</title>
<g id="a_node19"><a xlink:href="../../d2/d12/classgenfit_1_1RKTrackRep.html#a37357f3b52f71699afd587716babde3f" target="_top" xlink:title="genfit::RKTrackRep\l::estimateStep">
<polygon fill="none" stroke="#000000" points="897.5,-424.5 897.5,-456.5 1008.5,-456.5 1008.5,-424.5 897.5,-424.5"/>
<text text-anchor="start" x="905.5" y="-443.5" font-family="FreeSans" font-size="10.00" fill="#000000">genfit::RKTrackRep</text>
<text text-anchor="middle" x="953" y="-431.5" font-family="FreeSans" font-size="10.00" fill="#000000">::estimateStep</text>
</a>
</g>
</g>
<!-- Node18&#45;&gt;Node19 -->
<g id="edge24" class="edge">
<title>Node18&#45;&gt;Node19</title>
<path fill="none" stroke="#191970" d="M827.0541,-548.5238C830.4743,-546.9588 833.8084,-545.286 837,-543.5 878.8346,-520.09 918.5743,-479.4382 938.9069,-456.8393"/>
<polygon fill="#191970" stroke="#191970" points="825.687,-545.3017 817.838,-552.4181 828.4118,-551.7497 825.687,-545.3017"/>
</g>
<!-- Node19&#45;&gt;Node20 -->
<g id="edge25" class="edge">
<title>Node19&#45;&gt;Node20</title>
<path fill="none" stroke="#191970" d="M1019.1135,-432.0522C1038.2535,-429.6065 1058.9473,-426.9623 1077.3775,-424.6073"/>
<polygon fill="#191970" stroke="#191970" points="1018.4421,-428.6094 1008.9664,-433.3487 1019.3294,-435.5529 1018.4421,-428.6094"/>
</g>
<!-- Node20&#45;&gt;Node9 -->
<g id="edge26" class="edge">
<title>Node20&#45;&gt;Node9</title>
<path fill="none" stroke="#191970" d="M1198.6165,-428.0493C1210.035,-429.8851 1221.8115,-431.7784 1232.9278,-433.5656"/>
<polygon fill="#191970" stroke="#191970" points="1199.1287,-424.5868 1188.6999,-426.455 1198.0175,-431.498 1199.1287,-424.5868"/>
</g>
<!-- Node22&#45;&gt;Node23 -->
<g id="edge29" class="edge">
<title>Node22&#45;&gt;Node23</title>
<path fill="none" stroke="#191970" d="M254.0625,-291.1588C270.2079,-292.8872 286.4584,-294.6269 301.2173,-296.207"/>
<polygon fill="#191970" stroke="#191970" points="254.3533,-287.67 244.0375,-290.0855 253.6081,-294.6302 254.3533,-287.67"/>
</g>
<!-- Node22&#45;&gt;Node29 -->
<g id="edge35" class="edge">
<title>Node22&#45;&gt;Node29</title>
<path fill="none" stroke="#191970" d="M221.8119,-268.7081C240.2907,-265.471 260.5122,-261.9285 279.6447,-258.5768"/>
<polygon fill="#191970" stroke="#191970" points="220.9892,-265.2989 211.7432,-270.472 222.1972,-272.1939 220.9892,-265.2989"/>
</g>
<!-- Node24 -->
<g id="node24" class="node">
<title>Node24</title>
<g id="a_node24"><a xlink:href="../../d4/db7/classgenfit_1_1KalmanFitter.html#ac2a327860007e886098409876504c5ba" target="_top" xlink:title="genfit::KalmanFitter\l::fitTrack">
<polygon fill="none" stroke="#000000" points="497.5,-286.5 497.5,-318.5 614.5,-318.5 614.5,-286.5 497.5,-286.5"/>
<text text-anchor="start" x="505.5" y="-305.5" font-family="FreeSans" font-size="10.00" fill="#000000">genfit::KalmanFitter</text>
<text text-anchor="middle" x="556" y="-293.5" font-family="FreeSans" font-size="10.00" fill="#000000">::fitTrack</text>
</a>
</g>
</g>
<!-- Node23&#45;&gt;Node24 -->
<g id="edge30" class="edge">
<title>Node23&#45;&gt;Node24</title>
<path fill="none" stroke="#191970" d="M428.671,-302.5C451.1062,-302.5 475.8004,-302.5 497.4222,-302.5"/>
<polygon fill="#191970" stroke="#191970" points="428.541,-299.0001 418.541,-302.5 428.5409,-306.0001 428.541,-299.0001"/>
</g>
<!-- Node25 -->
<g id="node25" class="node">
<title>Node25</title>
<g id="a_node25"><a xlink:href="../../d4/db7/classgenfit_1_1KalmanFitter.html#aa44364f202ab52ca2f8fa2000e29a534" target="_top" xlink:title="Hit resorting currently NOT supported.">
<polygon fill="none" stroke="#000000" points="689.5,-296.5 689.5,-328.5 819.5,-328.5 819.5,-296.5 689.5,-296.5"/>
<text text-anchor="start" x="697.5" y="-315.5" font-family="FreeSans" font-size="10.00" fill="#000000">genfit::KalmanFitter</text>
<text text-anchor="middle" x="754.5" y="-303.5" font-family="FreeSans" font-size="10.00" fill="#000000">::processTrackWithRep</text>
</a>
</g>
</g>
<!-- Node24&#45;&gt;Node25 -->
<g id="edge31" class="edge">
<title>Node24&#45;&gt;Node25</title>
<path fill="none" stroke="#191970" d="M624.8351,-305.9678C645.741,-307.021 668.6399,-308.1746 689.2991,-309.2153"/>
<polygon fill="#191970" stroke="#191970" points="624.9143,-302.4674 614.7509,-305.4597 624.5621,-309.4585 624.9143,-302.4674"/>
</g>
<!-- Node27 -->
<g id="node27" class="node">
<title>Node27</title>
<g id="a_node27"><a xlink:href="../../d4/db7/classgenfit_1_1KalmanFitter.html#a003f370d672562e1e5c2b345d61f211c" target="_top" xlink:title="genfit::KalmanFitter\l::processTrackPartially">
<polygon fill="none" stroke="#000000" points="690,-245.5 690,-277.5 819,-277.5 819,-245.5 690,-245.5"/>
<text text-anchor="start" x="698" y="-264.5" font-family="FreeSans" font-size="10.00" fill="#000000">genfit::KalmanFitter</text>
<text text-anchor="middle" x="754.5" y="-252.5" font-family="FreeSans" font-size="10.00" fill="#000000">::processTrackPartially</text>
</a>
</g>
</g>
<!-- Node24&#45;&gt;Node27 -->
<g id="edge33" class="edge">
<title>Node24&#45;&gt;Node27</title>
<path fill="none" stroke="#191970" d="M624.5988,-288.331C645.6869,-283.9752 668.8222,-279.1967 689.6507,-274.8946"/>
<polygon fill="#191970" stroke="#191970" points="623.8361,-284.9145 614.7509,-290.3651 625.2521,-291.7698 623.8361,-284.9145"/>
</g>
<!-- Node26 -->
<g id="node26" class="node">
<title>Node26</title>
<g id="a_node26"><a xlink:href="../../d0/d48/GenFit_2blob_2master_2test_2fitterTests_2main_8cc.html#ae66f6b31b5ad750f1fe042a706a4e3d4" target="_top" xlink:title="main">
<polygon fill="none" stroke="#000000" points="932.5,-302.5 932.5,-322.5 973.5,-322.5 973.5,-302.5 932.5,-302.5"/>
<text text-anchor="middle" x="953" y="-309.5" font-family="FreeSans" font-size="10.00" fill="#000000">main</text>
</a>
</g>
</g>
<!-- Node25&#45;&gt;Node26 -->
<g id="edge32" class="edge">
<title>Node25&#45;&gt;Node26</title>
<path fill="none" stroke="#191970" d="M830.0101,-312.5C866.811,-312.5 908.2378,-312.5 932.3965,-312.5"/>
<polygon fill="#191970" stroke="#191970" points="829.7713,-309.0001 819.7713,-312.5 829.7712,-316.0001 829.7713,-309.0001"/>
</g>
<!-- Node28 -->
<g id="node28" class="node">
<title>Node28</title>
<g id="a_node28"><a xlink:href="../../d8/d1e/classPHGenFit2_1_1Fitter.html#aa0bb19a6dc20e77691e5730a8198b509" target="_top" xlink:title="PHGenFit2::Fitter::\lprocessTrackPartially">
<polygon fill="none" stroke="#000000" points="892,-245.5 892,-277.5 1014,-277.5 1014,-245.5 892,-245.5"/>
<text text-anchor="start" x="900" y="-264.5" font-family="FreeSans" font-size="10.00" fill="#000000">PHGenFit2::Fitter::</text>
<text text-anchor="middle" x="953" y="-252.5" font-family="FreeSans" font-size="10.00" fill="#000000">processTrackPartially</text>
</a>
</g>
</g>
<!-- Node27&#45;&gt;Node28 -->
<g id="edge34" class="edge">
<title>Node27&#45;&gt;Node28</title>
<path fill="none" stroke="#191970" d="M829.4905,-261.5C850.0367,-261.5 872.0605,-261.5 891.738,-261.5"/>
<polygon fill="#191970" stroke="#191970" points="829.2217,-258.0001 819.2217,-261.5 829.2216,-265.0001 829.2217,-258.0001"/>
</g>
<!-- Node30 -->
<g id="node30" class="node">
<title>Node30</title>
<g id="a_node30"><a xlink:href="../../d8/d26/classgenfit_1_1KalmanFitterRefTrack.html#a0dffe53c54ee6afe2fc252e643b5b790" target="_top" xlink:title="genfit::KalmanFitterRefTrack\l::processTrackPoint">
<polygon fill="none" stroke="#000000" points="476,-213.5 476,-245.5 636,-245.5 636,-213.5 476,-213.5"/>
<text text-anchor="start" x="484" y="-232.5" font-family="FreeSans" font-size="10.00" fill="#000000">genfit::KalmanFitterRefTrack</text>
<text text-anchor="middle" x="556" y="-220.5" font-family="FreeSans" font-size="10.00" fill="#000000">::processTrackPoint</text>
</a>
</g>
</g>
<!-- Node29&#45;&gt;Node30 -->
<g id="edge36" class="edge">
<title>Node29&#45;&gt;Node30</title>
<path fill="none" stroke="#191970" d="M450.0766,-237.6064C458.7035,-236.9462 467.4128,-236.2796 475.9347,-235.6274"/>
<polygon fill="#191970" stroke="#191970" points="449.7071,-234.1243 440.0034,-238.3773 450.2413,-241.1039 449.7071,-234.1243"/>
</g>
<!-- Node31 -->
<g id="node31" class="node">
<title>Node31</title>
<g id="a_node31"><a xlink:href="../../d8/d26/classgenfit_1_1KalmanFitterRefTrack.html#affda7c9ad9495fd91828d1b43adcc904" target="_top" xlink:title="Fit the track.">
<polygon fill="none" stroke="#000000" points="674.5,-194.5 674.5,-226.5 834.5,-226.5 834.5,-194.5 674.5,-194.5"/>
<text text-anchor="start" x="682.5" y="-213.5" font-family="FreeSans" font-size="10.00" fill="#000000">genfit::KalmanFitterRefTrack</text>
<text text-anchor="middle" x="754.5" y="-201.5" font-family="FreeSans" font-size="10.00" fill="#000000">::fitTrack</text>
</a>
</g>
</g>
<!-- Node30&#45;&gt;Node31 -->
<g id="edge37" class="edge">
<title>Node30&#45;&gt;Node31</title>
<path fill="none" stroke="#191970" d="M646.2715,-220.8594C655.6386,-219.9628 665.1133,-219.0559 674.3581,-218.171"/>
<polygon fill="#191970" stroke="#191970" points="645.7864,-217.3898 636.1654,-221.8267 646.4534,-224.3579 645.7864,-217.3898"/>
</g>
<!-- Node32 -->
<g id="node32" class="node">
<title>Node32</title>
<g id="a_node32"><a xlink:href="../../d8/d26/classgenfit_1_1KalmanFitterRefTrack.html#ad3a24181b5370cc95f01f49ea148c011" target="_top" xlink:title="genfit::KalmanFitterRefTrack\l::processTrackWithRep">
<polygon fill="none" stroke="#000000" points="873,-194.5 873,-226.5 1033,-226.5 1033,-194.5 873,-194.5"/>
<text text-anchor="start" x="881" y="-213.5" font-family="FreeSans" font-size="10.00" fill="#000000">genfit::KalmanFitterRefTrack</text>
<text text-anchor="middle" x="953" y="-201.5" font-family="FreeSans" font-size="10.00" fill="#000000">::processTrackWithRep</text>
</a>
</g>
</g>
<!-- Node31&#45;&gt;Node32 -->
<g id="edge38" class="edge">
<title>Node31&#45;&gt;Node32</title>
<path fill="none" stroke="#191970" d="M844.7715,-210.5C854.1386,-210.5 863.6133,-210.5 872.8581,-210.5"/>
<polygon fill="#191970" stroke="#191970" points="844.6654,-207.0001 834.6654,-210.5 844.6653,-214.0001 844.6654,-207.0001"/>
</g>
<!-- Node34 -->
<g id="node34" class="node">
<title>Node34</title>
<g id="a_node34"><a xlink:href="../../dd/d7e/namespaceActs_1_1Test.html#a222d8ccdd1a7c2a561d6b5fc32bfeaf9" target="_top" xlink:title="Unit test for KalmanVertexTrackUpdater.">
<polygon fill="none" stroke="#000000" points="289.5,-177.5 289.5,-209.5 430.5,-209.5 430.5,-177.5 289.5,-177.5"/>
<text text-anchor="start" x="297.5" y="-196.5" font-family="FreeSans" font-size="10.00" fill="#000000">Acts::Test::BOOST_AUTO</text>
<text text-anchor="middle" x="360" y="-184.5" font-family="FreeSans" font-size="10.00" fill="#000000">_TEST_CASE</text>
</a>
</g>
</g>
<!-- Node33&#45;&gt;Node34 -->
<g id="edge40" class="edge">
<title>Node33&#45;&gt;Node34</title>
<path fill="none" stroke="#191970" d="M242.8993,-195.2095C258.4238,-194.9829 274.3941,-194.7497 289.355,-194.5313"/>
<polygon fill="#191970" stroke="#191970" points="242.7248,-191.7116 232.777,-195.3573 242.827,-198.7108 242.7248,-191.7116"/>
</g>
<!-- Node37 -->
<g id="node37" class="node">
<title>Node37</title>
<g id="a_node37"><a xlink:href="../../dd/d7e/namespaceActs_1_1Test.html#a0f4ee318a6ac919ac5a844eed2f21e6a" target="_top" xlink:title="Test case for comparison between the mapped material and the associated material by propagation...">
<polygon fill="none" stroke="#000000" points="289.5,-109.5 289.5,-141.5 430.5,-141.5 430.5,-109.5 289.5,-109.5"/>
<text text-anchor="start" x="297.5" y="-128.5" font-family="FreeSans" font-size="10.00" fill="#000000">Acts::Test::BOOST_AUTO</text>
<text text-anchor="middle" x="360" y="-116.5" font-family="FreeSans" font-size="10.00" fill="#000000">_TEST_CASE</text>
</a>
</g>
</g>
<!-- Node36&#45;&gt;Node37 -->
<g id="edge45" class="edge">
<title>Node36&#45;&gt;Node37</title>
<path fill="none" stroke="#191970" d="M244.5538,-118.1968C259.5508,-119.1456 274.9143,-120.1175 289.3398,-121.03"/>
<polygon fill="#191970" stroke="#191970" points="244.4468,-114.6832 234.2458,-117.5447 244.0048,-121.6692 244.4468,-114.6832"/>
</g>
<!-- Node38 -->
<g id="node38" class="node">
<title>Node38</title>
<g id="a_node38"><a xlink:href="../../dd/d7e/namespaceActs_1_1Test.html#a1fe2982b4e00b06d7cac792960faf9b6" target="_top" xlink:title="Acts::Test::BOOST_DATA\l_TEST_CASE">
<polygon fill="none" stroke="#000000" points="290.5,-58.5 290.5,-90.5 429.5,-90.5 429.5,-58.5 290.5,-58.5"/>
<text text-anchor="start" x="298.5" y="-77.5" font-family="FreeSans" font-size="10.00" fill="#000000">Acts::Test::BOOST_DATA</text>
<text text-anchor="middle" x="360" y="-65.5" font-family="FreeSans" font-size="10.00" fill="#000000">_TEST_CASE</text>
</a>
</g>
</g>
<!-- Node36&#45;&gt;Node38 -->
<g id="edge46" class="edge">
<title>Node36&#45;&gt;Node38</title>
<path fill="none" stroke="#191970" d="M218.648,-100.6381C241.3946,-96.4319 267.0944,-91.6796 290.2826,-87.3918"/>
<polygon fill="#191970" stroke="#191970" points="217.9584,-97.2062 208.7615,-102.4662 219.2313,-104.0895 217.9584,-97.2062"/>
</g>
<!-- Node40&#45;&gt;Node18 -->
<g id="edge50" class="edge">
<title>Node40&#45;&gt;Node18</title>
<path fill="none" stroke="#191970" d="M616.1006,-462.4044C623.2738,-466.407 630.1238,-471.0795 636,-476.5 660.8472,-499.4202 645.8427,-522.0872 672,-543.5 677.4429,-547.9557 683.668,-551.6179 690.2047,-554.6279"/>
<polygon fill="#191970" stroke="#191970" points="617.3866,-459.1307 606.8907,-457.6867 614.1953,-465.3609 617.3866,-459.1307"/>
</g>
<!-- Node40&#45;&gt;Node19 -->
<g id="edge52" class="edge">
<title>Node40&#45;&gt;Node19</title>
<path fill="none" stroke="#191970" d="M621.6878,-441.3345C698.7229,-441.1405 825.0667,-440.8223 897.4376,-440.64"/>
<polygon fill="#191970" stroke="#191970" points="621.6103,-437.8346 611.6192,-441.3599 621.628,-444.8346 621.6103,-437.8346"/>
</g>
<!-- Node40&#45;&gt;Node20 -->
<g id="edge51" class="edge">
<title>Node40&#45;&gt;Node20</title>
<path fill="none" stroke="#191970" d="M621.7069,-434.5322C685.7501,-428.1143 785.9323,-419.0646 873,-415.5 944.0516,-412.5911 961.8924,-414.789 1033,-415.5 1047.4119,-415.6441 1062.9903,-415.905 1077.464,-416.1918"/>
<polygon fill="#191970" stroke="#191970" points="621.3438,-431.051 611.7463,-435.5384 622.0474,-438.0155 621.3438,-431.051"/>
</g>
<!-- Node41 -->
<g id="node41" class="node">
<title>Node41</title>
<g id="a_node41"><a xlink:href="../../dc/d22/namespacegenfit.html#a3eefd11f59b91588b8b018cc8ae5c259" target="_top" xlink:title="Black&#45;Box&#45;Test.">
<polygon fill="none" stroke="#000000" points="710,-513.5 710,-533.5 799,-533.5 799,-513.5 710,-513.5"/>
<text text-anchor="middle" x="754.5" y="-520.5" font-family="FreeSans" font-size="10.00" fill="#000000">genfit::TEST_F</text>
</a>
</g>
</g>
<!-- Node40&#45;&gt;Node41 -->
<g id="edge49" class="edge">
<title>Node40&#45;&gt;Node41</title>
<path fill="none" stroke="#191970" d="M607.3242,-461.6884C617.0664,-466.149 627.0156,-471.1544 636,-476.5 653.4196,-486.8645 653.6929,-495.7985 672,-504.5 683.6817,-510.0524 697.0808,-514.0326 709.6361,-516.8655"/>
<polygon fill="#191970" stroke="#191970" points="608.6452,-458.4455 598.0854,-457.5854 605.804,-464.843 608.6452,-458.4455"/>
</g>
<!-- Node42 -->
<g id="node42" class="node">
<title>Node42</title>
<g id="a_node42"><a xlink:href="../../de/db6/classgenfit_1_1TGeoMaterialInterface.html#a8f48c2590b8f47c4900454bfb03f1d8d" target="_top" xlink:title="Make a step (following the curvature) until step length sMax or the next boundary is reached...">
<polygon fill="none" stroke="#000000" points="672,-462.5 672,-494.5 837,-494.5 837,-462.5 672,-462.5"/>
<text text-anchor="start" x="680" y="-481.5" font-family="FreeSans" font-size="10.00" fill="#000000">genfit::TGeoMaterialInterface</text>
<text text-anchor="middle" x="754.5" y="-469.5" font-family="FreeSans" font-size="10.00" fill="#000000">::findNextBoundary</text>
</a>
</g>
</g>
<!-- Node40&#45;&gt;Node42 -->
<g id="edge53" class="edge">
<title>Node40&#45;&gt;Node42</title>
<path fill="none" stroke="#191970" d="M621.408,-453.6919C637.5389,-456.6987 655.0246,-459.958 671.8548,-463.0951"/>
<polygon fill="#191970" stroke="#191970" points="622.0293,-450.2475 611.5573,-451.8558 620.7466,-457.129 622.0293,-450.2475"/>
</g>
</g>
</svg>
