<?xml version="1.0" encoding="UTF-8" standalone="no"?>
<!DOCTYPE svg PUBLIC "-//W3C//DTD SVG 1.1//EN"
 "http://www.w3.org/Graphics/SVG/1.1/DTD/svg11.dtd">
<!-- Generated by graphviz version 2.40.1 (20161225.0304)
 -->
<!-- Title: acts/blob/sPHENIX/Core/include/Acts/Geometry/GeometryHierarchyMap.hpp Pages: 1 -->
<svg width="1452pt" height="401pt"
 viewBox="0.00 0.00 1452.00 401.00" xmlns="http://www.w3.org/2000/svg" xmlns:xlink="http://www.w3.org/1999/xlink">
<g id="graph0" class="graph" transform="scale(1 1) rotate(0) translate(4 397)">
<title>acts/blob/sPHENIX/Core/include/Acts/Geometry/GeometryHierarchyMap.hpp</title>
<!-- Node1 -->
<g id="node1" class="node">
<title>Node1</title>
<polygon fill="#bfbfbf" stroke="#000000" points="1027,-348.5 1027,-392.5 1191,-392.5 1191,-348.5 1027,-348.5"/>
<text text-anchor="start" x="1035" y="-379.5" font-family="FreeSans" font-size="10.00" fill="#000000">acts/blob/sPHENIX/Core</text>
<text text-anchor="start" x="1035" y="-367.5" font-family="FreeSans" font-size="10.00" fill="#000000">/include/Acts/Geometry</text>
<text text-anchor="middle" x="1109" y="-355.5" font-family="FreeSans" font-size="10.00" fill="#000000">/GeometryHierarchyMap.hpp</text>
</g>
<!-- Node2 -->
<g id="node2" class="node">
<title>Node2</title>
<g id="a_node2"><a xlink:href="../../d6/d84/CKFSourceLinkSelector_8hpp.html" target="_top" xlink:title="acts/blob/sPHENIX/Core\l/include/Acts/TrackFinding\l/CKFSourceLinkSelector.hpp">
<polygon fill="none" stroke="#000000" points="750,-267.5 750,-311.5 908,-311.5 908,-267.5 750,-267.5"/>
<text text-anchor="start" x="758" y="-298.5" font-family="FreeSans" font-size="10.00" fill="#000000">acts/blob/sPHENIX/Core</text>
<text text-anchor="start" x="758" y="-286.5" font-family="FreeSans" font-size="10.00" fill="#000000">/include/Acts/TrackFinding</text>
<text text-anchor="middle" x="829" y="-274.5" font-family="FreeSans" font-size="10.00" fill="#000000">/CKFSourceLinkSelector.hpp</text>
</a>
</g>
</g>
<!-- Node1&#45;&gt;Node2 -->
<g id="edge1" class="edge">
<title>Node1&#45;&gt;Node2</title>
<path fill="none" stroke="#191970" d="M1022.9286,-345.6008C985.3039,-334.7165 941.545,-322.0577 905.1262,-311.5222"/>
<polygon fill="#191970" stroke="#191970" points="1022.2798,-349.0565 1032.8586,-348.4734 1024.2251,-342.3323 1022.2798,-349.0565"/>
</g>
<!-- Node12 -->
<g id="node12" class="node">
<title>Node12</title>
<g id="a_node12"><a xlink:href="../../d7/d8d/GeometryHierarchyMapJsonConverter_8hpp.html" target="_top" xlink:title="acts/blob/sPHENIX/Plugins\l/Json/include/Acts/Plugins\l/Json/GeometryHierarchyMapJsonConverter.hpp">
<polygon fill="none" stroke="#000000" points="980,-267.5 980,-311.5 1238,-311.5 1238,-267.5 980,-267.5"/>
<text text-anchor="start" x="988" y="-298.5" font-family="FreeSans" font-size="10.00" fill="#000000">acts/blob/sPHENIX/Plugins</text>
<text text-anchor="start" x="988" y="-286.5" font-family="FreeSans" font-size="10.00" fill="#000000">/Json/include/Acts/Plugins</text>
<text text-anchor="middle" x="1109" y="-274.5" font-family="FreeSans" font-size="10.00" fill="#000000">/Json/GeometryHierarchyMapJsonConverter.hpp</text>
</a>
</g>
</g>
<!-- Node1&#45;&gt;Node12 -->
<g id="edge12" class="edge">
<title>Node1&#45;&gt;Node12</title>
<path fill="none" stroke="#191970" d="M1109,-338.2457C1109,-329.3118 1109,-319.8188 1109,-311.6068"/>
<polygon fill="#191970" stroke="#191970" points="1105.5001,-338.3664 1109,-348.3664 1112.5001,-338.3664 1105.5001,-338.3664"/>
</g>
<!-- Node14 -->
<g id="node14" class="node">
<title>Node14</title>
<g id="a_node14"><a xlink:href="../../de/d9e/GeometryHierarchyMapTests_8cpp.html" target="_top" xlink:title="acts/blob/sPHENIX/Tests\l/UnitTests/Core/Geometry\l/GeometryHierarchyMapTests.cpp">
<polygon fill="none" stroke="#000000" points="1256,-267.5 1256,-311.5 1444,-311.5 1444,-267.5 1256,-267.5"/>
<text text-anchor="start" x="1264" y="-298.5" font-family="FreeSans" font-size="10.00" fill="#000000">acts/blob/sPHENIX/Tests</text>
<text text-anchor="start" x="1264" y="-286.5" font-family="FreeSans" font-size="10.00" fill="#000000">/UnitTests/Core/Geometry</text>
<text text-anchor="middle" x="1350" y="-274.5" font-family="FreeSans" font-size="10.00" fill="#000000">/GeometryHierarchyMapTests.cpp</text>
</a>
</g>
</g>
<!-- Node1&#45;&gt;Node14 -->
<g id="edge14" class="edge">
<title>Node1&#45;&gt;Node14</title>
<path fill="none" stroke="#191970" d="M1184.3257,-345.1831C1216.4276,-334.3936 1253.5311,-321.9232 1284.4771,-311.5222"/>
<polygon fill="#191970" stroke="#191970" points="1182.8998,-341.9698 1174.536,-348.4734 1185.13,-348.6051 1182.8998,-341.9698"/>
</g>
<!-- Node3 -->
<g id="node3" class="node">
<title>Node3</title>
<g id="a_node3"><a xlink:href="../../d5/dfc/TrackFindingAlgorithm_8hpp.html" target="_top" xlink:title="acts/blob/sPHENIX/Examples\l/Algorithms/TrackFinding\l/include/ActsExamples/TrackFinding\l/TrackFindingAlgorithm.hpp">
<polygon fill="none" stroke="#000000" points="303,-174.5 303,-230.5 501,-230.5 501,-174.5 303,-174.5"/>
<text text-anchor="start" x="311" y="-217.5" font-family="FreeSans" font-size="10.00" fill="#000000">acts/blob/sPHENIX/Examples</text>
<text text-anchor="start" x="311" y="-205.5" font-family="FreeSans" font-size="10.00" fill="#000000">/Algorithms/TrackFinding</text>
<text text-anchor="start" x="311" y="-193.5" font-family="FreeSans" font-size="10.00" fill="#000000">/include/ActsExamples/TrackFinding</text>
<text text-anchor="middle" x="402" y="-181.5" font-family="FreeSans" font-size="10.00" fill="#000000">/TrackFindingAlgorithm.hpp</text>
</a>
</g>
</g>
<!-- Node2&#45;&gt;Node3 -->
<g id="edge2" class="edge">
<title>Node2&#45;&gt;Node3</title>
<path fill="none" stroke="#191970" d="M739.6074,-271.2865C669.9311,-257.0902 573.2395,-237.3895 501.1848,-222.7086"/>
<polygon fill="#191970" stroke="#191970" points="739.1878,-274.7729 749.6853,-273.3399 740.5854,-267.9138 739.1878,-274.7729"/>
</g>
<!-- Node9 -->
<g id="node9" class="node">
<title>Node9</title>
<g id="a_node9"><a xlink:href="../../d0/d0c/TrkrClusterFindingAlgorithm_8hpp.html" target="_top" xlink:title="acts/blob/sPHENIX/Examples\l/Algorithms/TrackFinding\l/include/ActsExamples/TrackFinding\l/TrkrClusterFindingAlgorithm.hpp">
<polygon fill="none" stroke="#000000" points="621,-174.5 621,-230.5 819,-230.5 819,-174.5 621,-174.5"/>
<text text-anchor="start" x="629" y="-217.5" font-family="FreeSans" font-size="10.00" fill="#000000">acts/blob/sPHENIX/Examples</text>
<text text-anchor="start" x="629" y="-205.5" font-family="FreeSans" font-size="10.00" fill="#000000">/Algorithms/TrackFinding</text>
<text text-anchor="start" x="629" y="-193.5" font-family="FreeSans" font-size="10.00" fill="#000000">/include/ActsExamples/TrackFinding</text>
<text text-anchor="middle" x="720" y="-181.5" font-family="FreeSans" font-size="10.00" fill="#000000">/TrkrClusterFindingAlgorithm.hpp</text>
</a>
</g>
</g>
<!-- Node2&#45;&gt;Node9 -->
<g id="edge9" class="edge">
<title>Node2&#45;&gt;Node9</title>
<path fill="none" stroke="#191970" d="M793.3927,-261.0795C781.1264,-251.289 767.403,-240.3354 755.1717,-230.5728"/>
<polygon fill="#191970" stroke="#191970" points="791.2136,-263.8184 801.2127,-267.3211 795.5804,-258.3474 791.2136,-263.8184"/>
</g>
<!-- Node11 -->
<g id="node11" class="node">
<title>Node11</title>
<g id="a_node11"><a xlink:href="../../d5/d1b/CombinatorialKalmanFilterTests_8cpp.html" target="_top" xlink:title="acts/blob/sPHENIX/Tests\l/UnitTests/Core/TrackFinding\l/CombinatorialKalmanFilterTests.cpp">
<polygon fill="none" stroke="#000000" points="837,-180.5 837,-224.5 1039,-224.5 1039,-180.5 837,-180.5"/>
<text text-anchor="start" x="845" y="-211.5" font-family="FreeSans" font-size="10.00" fill="#000000">acts/blob/sPHENIX/Tests</text>
<text text-anchor="start" x="845" y="-199.5" font-family="FreeSans" font-size="10.00" fill="#000000">/UnitTests/Core/TrackFinding</text>
<text text-anchor="middle" x="938" y="-187.5" font-family="FreeSans" font-size="10.00" fill="#000000">/CombinatorialKalmanFilterTests.cpp</text>
</a>
</g>
</g>
<!-- Node2&#45;&gt;Node11 -->
<g id="edge11" class="edge">
<title>Node2&#45;&gt;Node11</title>
<path fill="none" stroke="#191970" d="M864.7557,-260.961C879.5462,-249.1558 896.434,-235.6765 910.2634,-224.6384"/>
<polygon fill="#191970" stroke="#191970" points="862.4196,-258.3474 856.7873,-267.3211 866.7864,-263.8184 862.4196,-258.3474"/>
</g>
<!-- Node4 -->
<g id="node4" class="node">
<title>Node4</title>
<g id="a_node4"><a xlink:href="../../d2/de6/TrackFindingOptions_8hpp.html" target="_top" xlink:title="acts/blob/sPHENIX/Examples\l/Algorithms/TrackFinding\l/include/ActsExamples/TrackFinding\l/TrackFindingOptions.hpp">
<polygon fill="none" stroke="#000000" points="61,-81.5 61,-137.5 259,-137.5 259,-81.5 61,-81.5"/>
<text text-anchor="start" x="69" y="-124.5" font-family="FreeSans" font-size="10.00" fill="#000000">acts/blob/sPHENIX/Examples</text>
<text text-anchor="start" x="69" y="-112.5" font-family="FreeSans" font-size="10.00" fill="#000000">/Algorithms/TrackFinding</text>
<text text-anchor="start" x="69" y="-100.5" font-family="FreeSans" font-size="10.00" fill="#000000">/include/ActsExamples/TrackFinding</text>
<text text-anchor="middle" x="160" y="-88.5" font-family="FreeSans" font-size="10.00" fill="#000000">/TrackFindingOptions.hpp</text>
</a>
</g>
</g>
<!-- Node3&#45;&gt;Node4 -->
<g id="edge3" class="edge">
<title>Node3&#45;&gt;Node4</title>
<path fill="none" stroke="#191970" d="M319.681,-170.865C291.6336,-160.0865 260.4876,-148.1171 233.2044,-137.6323"/>
<polygon fill="#191970" stroke="#191970" points="318.4738,-174.1506 329.0638,-174.4708 320.9849,-167.6165 318.4738,-174.1506"/>
</g>
<!-- Node6 -->
<g id="node6" class="node">
<title>Node6</title>
<g id="a_node6"><a xlink:href="../../df/dea/RecCKFTracks_8cpp.html" target="_top" xlink:title="acts/blob/sPHENIX/Examples\l/Run/Reconstruction/RecCKFTracks.cpp">
<polygon fill="none" stroke="#000000" points="180.5,-6.5 180.5,-38.5 393.5,-38.5 393.5,-6.5 180.5,-6.5"/>
<text text-anchor="start" x="188.5" y="-25.5" font-family="FreeSans" font-size="10.00" fill="#000000">acts/blob/sPHENIX/Examples</text>
<text text-anchor="middle" x="287" y="-13.5" font-family="FreeSans" font-size="10.00" fill="#000000">/Run/Reconstruction/RecCKFTracks.cpp</text>
</a>
</g>
</g>
<!-- Node3&#45;&gt;Node6 -->
<g id="edge8" class="edge">
<title>Node3&#45;&gt;Node6</title>
<path fill="none" stroke="#191970" d="M335.6445,-168.5598C324.2209,-160.0076 313.5988,-149.8261 306,-138 286.2264,-107.2263 284.8661,-62.6267 285.8012,-38.8579"/>
<polygon fill="#191970" stroke="#191970" points="333.8821,-171.5996 344.0725,-174.4993 337.9146,-165.8777 333.8821,-171.5996"/>
</g>
<!-- Node7 -->
<g id="node7" class="node">
<title>Node7</title>
<g id="a_node7"><a xlink:href="../../d5/d80/TrackFindingAlgorithm_8cpp.html" target="_top" xlink:title="acts/blob/sPHENIX/Examples\l/Algorithms/TrackFinding\l/src/TrackFindingAlgorithm.cpp">
<polygon fill="none" stroke="#000000" points="315.5,-87.5 315.5,-131.5 488.5,-131.5 488.5,-87.5 315.5,-87.5"/>
<text text-anchor="start" x="323.5" y="-118.5" font-family="FreeSans" font-size="10.00" fill="#000000">acts/blob/sPHENIX/Examples</text>
<text text-anchor="start" x="323.5" y="-106.5" font-family="FreeSans" font-size="10.00" fill="#000000">/Algorithms/TrackFinding</text>
<text text-anchor="middle" x="402" y="-94.5" font-family="FreeSans" font-size="10.00" fill="#000000">/src/TrackFindingAlgorithm.cpp</text>
</a>
</g>
</g>
<!-- Node3&#45;&gt;Node7 -->
<g id="edge6" class="edge">
<title>Node3&#45;&gt;Node7</title>
<path fill="none" stroke="#191970" d="M402,-164.0409C402,-153.0068 402,-141.3498 402,-131.6577"/>
<polygon fill="#191970" stroke="#191970" points="398.5001,-164.3445 402,-174.3446 405.5001,-164.3446 398.5001,-164.3445"/>
</g>
<!-- Node8 -->
<g id="node8" class="node">
<title>Node8</title>
<g id="a_node8"><a xlink:href="../../d1/d71/TrackFindingAlgorithmTrackFinderFunction_8cpp.html" target="_top" xlink:title="acts/blob/sPHENIX/Examples\l/Algorithms/TrackFinding\l/src/TrackFindingAlgorithmTrackFinder\lFunction.cpp">
<polygon fill="none" stroke="#000000" points="506.5,-81.5 506.5,-137.5 715.5,-137.5 715.5,-81.5 506.5,-81.5"/>
<text text-anchor="start" x="514.5" y="-124.5" font-family="FreeSans" font-size="10.00" fill="#000000">acts/blob/sPHENIX/Examples</text>
<text text-anchor="start" x="514.5" y="-112.5" font-family="FreeSans" font-size="10.00" fill="#000000">/Algorithms/TrackFinding</text>
<text text-anchor="start" x="514.5" y="-100.5" font-family="FreeSans" font-size="10.00" fill="#000000">/src/TrackFindingAlgorithmTrackFinder</text>
<text text-anchor="middle" x="611" y="-88.5" font-family="FreeSans" font-size="10.00" fill="#000000">Function.cpp</text>
</a>
</g>
</g>
<!-- Node3&#45;&gt;Node8 -->
<g id="edge7" class="edge">
<title>Node3&#45;&gt;Node8</title>
<path fill="none" stroke="#191970" d="M474.3599,-170.3016C498.251,-159.6706 524.6251,-147.9348 547.7781,-137.6323"/>
<polygon fill="#191970" stroke="#191970" points="472.7037,-167.2076 464.9903,-174.4708 475.5496,-173.603 472.7037,-167.2076"/>
</g>
<!-- Node5 -->
<g id="node5" class="node">
<title>Node5</title>
<g id="a_node5"><a xlink:href="../../d9/d3b/TrackFindingOptions_8cpp.html" target="_top" xlink:title="acts/blob/sPHENIX/Examples\l/Algorithms/TrackFinding\l/src/TrackFindingOptions.cpp">
<polygon fill="none" stroke="#000000" points="0,-.5 0,-44.5 162,-44.5 162,-.5 0,-.5"/>
<text text-anchor="start" x="8" y="-31.5" font-family="FreeSans" font-size="10.00" fill="#000000">acts/blob/sPHENIX/Examples</text>
<text text-anchor="start" x="8" y="-19.5" font-family="FreeSans" font-size="10.00" fill="#000000">/Algorithms/TrackFinding</text>
<text text-anchor="middle" x="81" y="-7.5" font-family="FreeSans" font-size="10.00" fill="#000000">/src/TrackFindingOptions.cpp</text>
</a>
</g>
</g>
<!-- Node4&#45;&gt;Node5 -->
<g id="edge4" class="edge">
<title>Node4&#45;&gt;Node5</title>
<path fill="none" stroke="#191970" d="M127.8043,-74.0439C118.781,-64.1069 109.2308,-53.5896 101.1266,-44.6648"/>
<polygon fill="#191970" stroke="#191970" points="125.2554,-76.4434 134.5691,-81.4938 130.4377,-71.7376 125.2554,-76.4434"/>
</g>
<!-- Node4&#45;&gt;Node6 -->
<g id="edge5" class="edge">
<title>Node4&#45;&gt;Node6</title>
<path fill="none" stroke="#191970" d="M209.3167,-75.7161C227.9913,-62.9233 248.3907,-48.9489 263.5976,-38.5316"/>
<polygon fill="#191970" stroke="#191970" points="207.1545,-72.9548 200.8827,-81.4938 211.1106,-78.7297 207.1545,-72.9548"/>
</g>
<!-- Node10 -->
<g id="node10" class="node">
<title>Node10</title>
<g id="a_node10"><a xlink:href="../../d4/d49/TrkrClusterFindingAlgorithmFinderFunction_8cpp.html" target="_top" xlink:title="acts/blob/sPHENIX/Examples\l/Algorithms/TrackFinding\l/src/TrkrClusterFindingAlgorithm\lFinderFunction.cpp">
<polygon fill="none" stroke="#000000" points="733.5,-81.5 733.5,-137.5 912.5,-137.5 912.5,-81.5 733.5,-81.5"/>
<text text-anchor="start" x="741.5" y="-124.5" font-family="FreeSans" font-size="10.00" fill="#000000">acts/blob/sPHENIX/Examples</text>
<text text-anchor="start" x="741.5" y="-112.5" font-family="FreeSans" font-size="10.00" fill="#000000">/Algorithms/TrackFinding</text>
<text text-anchor="start" x="741.5" y="-100.5" font-family="FreeSans" font-size="10.00" fill="#000000">/src/TrkrClusterFindingAlgorithm</text>
<text text-anchor="middle" x="823" y="-88.5" font-family="FreeSans" font-size="10.00" fill="#000000">FinderFunction.cpp</text>
</a>
</g>
</g>
<!-- Node9&#45;&gt;Node10 -->
<g id="edge10" class="edge">
<title>Node9&#45;&gt;Node10</title>
<path fill="none" stroke="#191970" d="M758.6306,-167.6199C769.6199,-157.6976 781.4445,-147.021 791.9231,-137.5597"/>
<polygon fill="#191970" stroke="#191970" points="756.2596,-165.0452 751.1829,-174.3446 760.9507,-170.2407 756.2596,-165.0452"/>
</g>
<!-- Node13 -->
<g id="node13" class="node">
<title>Node13</title>
<g id="a_node13"><a xlink:href="../../de/d0f/GeometryHierarchyMapJsonConverterTests_8cpp.html" target="_top" xlink:title="acts/blob/sPHENIX/Tests\l/UnitTests/Plugins/Json\l/GeometryHierarchyMapJsonConverter\lTests.cpp">
<polygon fill="none" stroke="#000000" points="1057.5,-174.5 1057.5,-230.5 1270.5,-230.5 1270.5,-174.5 1057.5,-174.5"/>
<text text-anchor="start" x="1065.5" y="-217.5" font-family="FreeSans" font-size="10.00" fill="#000000">acts/blob/sPHENIX/Tests</text>
<text text-anchor="start" x="1065.5" y="-205.5" font-family="FreeSans" font-size="10.00" fill="#000000">/UnitTests/Plugins/Json</text>
<text text-anchor="start" x="1065.5" y="-193.5" font-family="FreeSans" font-size="10.00" fill="#000000">/GeometryHierarchyMapJsonConverter</text>
<text text-anchor="middle" x="1164" y="-181.5" font-family="FreeSans" font-size="10.00" fill="#000000">Tests.cpp</text>
</a>
</g>
</g>
<!-- Node12&#45;&gt;Node13 -->
<g id="edge13" class="edge">
<title>Node12&#45;&gt;Node13</title>
<path fill="none" stroke="#191970" d="M1128.6603,-258.401C1134.3608,-249.3838 1140.5518,-239.5908 1146.136,-230.7577"/>
<polygon fill="#191970" stroke="#191970" points="1125.5491,-256.7725 1123.1639,-267.0953 1131.4659,-260.513 1125.5491,-256.7725"/>
</g>
</g>
</svg>
