<?xml version="1.0" encoding="UTF-8" standalone="no"?>
<!DOCTYPE svg PUBLIC "-//W3C//DTD SVG 1.1//EN"
 "http://www.w3.org/Graphics/SVG/1.1/DTD/svg11.dtd">
<!-- Generated by graphviz version 2.40.1 (20161225.0304)
 -->
<!-- Title: Jetscape::FluidDynamics Pages: 1 -->
<svg width="406pt" height="293pt"
 viewBox="0.00 0.00 405.50 293.00" xmlns="http://www.w3.org/2000/svg" xmlns:xlink="http://www.w3.org/1999/xlink">
<g id="graph0" class="graph" transform="scale(1 1) rotate(0) translate(4 289)">
<title>Jetscape::FluidDynamics</title>
<!-- Node1 -->
<g id="node1" class="node">
<title>Node1</title>
<polygon fill="#bfbfbf" stroke="#000000" points="97.5,-57.5 97.5,-77.5 238.5,-77.5 238.5,-57.5 97.5,-57.5"/>
<text text-anchor="middle" x="168" y="-64.5" font-family="FreeSans" font-size="10.00" fill="#000000">Jetscape::FluidDynamics</text>
</g>
<!-- Node6 -->
<g id="node6" class="node">
<title>Node6</title>
<g id="a_node6"><a xlink:href="../../d7/d41/classBrick.html" target="_top" xlink:title="Brick">
<polygon fill="none" stroke="#000000" points="0,-.5 0,-20.5 42,-20.5 42,-.5 0,-.5"/>
<text text-anchor="middle" x="21" y="-7.5" font-family="FreeSans" font-size="10.00" fill="#000000">Brick</text>
</a>
</g>
</g>
<!-- Node1&#45;&gt;Node6 -->
<g id="edge5" class="edge">
<title>Node1&#45;&gt;Node6</title>
<path fill="none" stroke="#191970" d="M132.5754,-53.7639C104.4385,-42.8537 66.0175,-27.9557 42.3898,-18.794"/>
<polygon fill="#191970" stroke="#191970" points="131.4687,-57.0887 142.0577,-57.4408 133.9995,-50.5621 131.4687,-57.0887"/>
</g>
<!-- Node7 -->
<g id="node7" class="node">
<title>Node7</title>
<g id="a_node7"><a xlink:href="../../d4/d03/classCLVisc.html" target="_top" xlink:title="CLVisc">
<polygon fill="none" stroke="#000000" points="60,-.5 60,-20.5 108,-20.5 108,-.5 60,-.5"/>
<text text-anchor="middle" x="84" y="-7.5" font-family="FreeSans" font-size="10.00" fill="#000000">CLVisc</text>
</a>
</g>
</g>
<!-- Node1&#45;&gt;Node7 -->
<g id="edge6" class="edge">
<title>Node1&#45;&gt;Node7</title>
<path fill="none" stroke="#191970" d="M144.4498,-51.5195C129.8389,-41.605 111.5102,-29.1676 98.8875,-20.6022"/>
<polygon fill="#191970" stroke="#191970" points="142.7424,-54.5907 152.9825,-57.3095 146.673,-48.7983 142.7424,-54.5907"/>
</g>
<!-- Node8 -->
<g id="node8" class="node">
<title>Node8</title>
<g id="a_node8"><a xlink:href="../../de/d88/classGubserHydro.html" target="_top" xlink:title="GubserHydro">
<polygon fill="none" stroke="#000000" points="126.5,-.5 126.5,-20.5 209.5,-20.5 209.5,-.5 126.5,-.5"/>
<text text-anchor="middle" x="168" y="-7.5" font-family="FreeSans" font-size="10.00" fill="#000000">GubserHydro</text>
</a>
</g>
</g>
<!-- Node1&#45;&gt;Node8 -->
<g id="edge7" class="edge">
<title>Node1&#45;&gt;Node8</title>
<path fill="none" stroke="#191970" d="M168,-47.1771C168,-38.1625 168,-27.9556 168,-20.6022"/>
<polygon fill="#191970" stroke="#191970" points="164.5001,-47.3095 168,-57.3095 171.5001,-47.3096 164.5001,-47.3095"/>
</g>
<!-- Node9 -->
<g id="node9" class="node">
<title>Node9</title>
<g id="a_node9"><a xlink:href="../../d8/db2/classHydroFromFile.html" target="_top" xlink:title="HydroFromFile">
<polygon fill="none" stroke="#000000" points="228,-.5 228,-20.5 316,-20.5 316,-.5 228,-.5"/>
<text text-anchor="middle" x="272" y="-7.5" font-family="FreeSans" font-size="10.00" fill="#000000">HydroFromFile</text>
</a>
</g>
</g>
<!-- Node1&#45;&gt;Node9 -->
<g id="edge8" class="edge">
<title>Node1&#45;&gt;Node9</title>
<path fill="none" stroke="#191970" d="M195.3809,-52.4931C213.7408,-42.4305 237.4237,-29.4505 253.5679,-20.6022"/>
<polygon fill="#191970" stroke="#191970" points="193.6802,-49.434 186.5931,-57.3095 197.0446,-55.5725 193.6802,-49.434"/>
</g>
<!-- Node10 -->
<g id="node10" class="node">
<title>Node10</title>
<g id="a_node10"><a xlink:href="../../d8/da3/classMpiMusic.html" target="_top" xlink:title="MpiMusic">
<polygon fill="none" stroke="#000000" points="334.5,-.5 334.5,-20.5 397.5,-20.5 397.5,-.5 334.5,-.5"/>
<text text-anchor="middle" x="366" y="-7.5" font-family="FreeSans" font-size="10.00" fill="#000000">MpiMusic</text>
</a>
</g>
</g>
<!-- Node1&#45;&gt;Node10 -->
<g id="edge9" class="edge">
<title>Node1&#45;&gt;Node10</title>
<path fill="none" stroke="#191970" d="M212.9717,-54.5536C249.9936,-43.8958 301.5464,-29.0548 334.3466,-19.6124"/>
<polygon fill="#191970" stroke="#191970" points="211.5841,-51.3108 202.9426,-57.4408 213.5207,-58.0377 211.5841,-51.3108"/>
</g>
<!-- Node2 -->
<g id="node2" class="node">
<title>Node2</title>
<g id="a_node2"><a xlink:href="../../db/d28/classJetscape_1_1JetScapeModuleBase.html" target="_top" xlink:title="Jetscape::JetScapeModuleBase">
<polygon fill="none" stroke="#000000" points="82,-114.5 82,-134.5 254,-134.5 254,-114.5 82,-114.5"/>
<text text-anchor="middle" x="168" y="-121.5" font-family="FreeSans" font-size="10.00" fill="#000000">Jetscape::JetScapeModuleBase</text>
</a>
</g>
</g>
<!-- Node2&#45;&gt;Node1 -->
<g id="edge1" class="edge">
<title>Node2&#45;&gt;Node1</title>
<path fill="none" stroke="#191970" d="M168,-104.1771C168,-95.1625 168,-84.9556 168,-77.6022"/>
<polygon fill="#191970" stroke="#191970" points="164.5001,-104.3095 168,-114.3095 171.5001,-104.3096 164.5001,-104.3095"/>
</g>
<!-- Node3 -->
<g id="node3" class="node">
<title>Node3</title>
<g id="a_node3"><a xlink:href="../../d5/d42/classJetscape_1_1JetScapeTask.html" target="_top" xlink:title="Jetscape::JetScapeTask">
<polygon fill="none" stroke="#000000" points="23.5,-183.5 23.5,-203.5 156.5,-203.5 156.5,-183.5 23.5,-183.5"/>
<text text-anchor="middle" x="90" y="-190.5" font-family="FreeSans" font-size="10.00" fill="#000000">Jetscape::JetScapeTask</text>
</a>
</g>
</g>
<!-- Node3&#45;&gt;Node2 -->
<g id="edge2" class="edge">
<title>Node3&#45;&gt;Node2</title>
<path fill="none" stroke="#191970" d="M109.1221,-176.5843C123.9393,-163.4768 143.9815,-145.7471 156.4436,-134.723"/>
<polygon fill="#191970" stroke="#191970" points="106.6801,-174.0715 101.5092,-183.3188 111.3182,-179.3145 106.6801,-174.0715"/>
</g>
<!-- Node4 -->
<g id="node4" class="node">
<title>Node4</title>
<g id="a_node4"><a xlink:href="../../d7/d53/classsigslot_1_1has__slots.html" target="_top" xlink:title="sigslot::has_slots\l\&lt; sigslot::multi_threaded\l_local \&gt;">
<polygon fill="none" stroke="#000000" points="175,-171.5 175,-215.5 319,-215.5 319,-171.5 175,-171.5"/>
<text text-anchor="start" x="183" y="-202.5" font-family="FreeSans" font-size="10.00" fill="#000000">sigslot::has_slots</text>
<text text-anchor="start" x="183" y="-190.5" font-family="FreeSans" font-size="10.00" fill="#000000">&lt; sigslot::multi_threaded</text>
<text text-anchor="middle" x="247" y="-178.5" font-family="FreeSans" font-size="10.00" fill="#000000">_local &gt;</text>
</a>
</g>
</g>
<!-- Node4&#45;&gt;Node2 -->
<g id="edge3" class="edge">
<title>Node4&#45;&gt;Node2</title>
<path fill="none" stroke="#191970" d="M213.767,-164.4737C201.6417,-153.8832 188.7078,-142.5866 179.6939,-134.7137"/>
<polygon fill="#191970" stroke="#191970" points="211.7349,-167.3459 221.5691,-171.2882 216.3398,-162.0737 211.7349,-167.3459"/>
</g>
<!-- Node5 -->
<g id="node5" class="node">
<title>Node5</title>
<g id="a_node5"><a xlink:href="../../d5/d63/classsigslot_1_1multi__threaded__local.html" target="_top" xlink:title="sigslot::multi_threaded\l_local">
<polygon fill="none" stroke="#000000" points="181,-252.5 181,-284.5 313,-284.5 313,-252.5 181,-252.5"/>
<text text-anchor="start" x="189" y="-271.5" font-family="FreeSans" font-size="10.00" fill="#000000">sigslot::multi_threaded</text>
<text text-anchor="middle" x="247" y="-259.5" font-family="FreeSans" font-size="10.00" fill="#000000">_local</text>
</a>
</g>
</g>
<!-- Node5&#45;&gt;Node4 -->
<g id="edge4" class="edge">
<title>Node5&#45;&gt;Node4</title>
<path fill="none" stroke="#191970" d="M247,-241.9565C247,-233.3741 247,-223.9524 247,-215.7171"/>
<polygon fill="#191970" stroke="#191970" points="243.5001,-242.2261 247,-252.2261 250.5001,-242.2262 243.5001,-242.2261"/>
</g>
</g>
</svg>
