<?xml version="1.0" encoding="UTF-8" standalone="no"?>
<!DOCTYPE svg PUBLIC "-//W3C//DTD SVG 1.1//EN"
 "http://www.w3.org/Graphics/SVG/1.1/DTD/svg11.dtd">
<!-- Generated by graphviz version 2.40.1 (20161225.0304)
 -->
<!-- Title: PHCASeeding::FindBiLinks Pages: 1 -->
<svg width="452pt" height="107pt"
 viewBox="0.00 0.00 452.00 107.00" xmlns="http://www.w3.org/2000/svg" xmlns:xlink="http://www.w3.org/1999/xlink">
<g id="graph0" class="graph" transform="scale(1 1) rotate(0) translate(4 103)">
<title>PHCASeeding::FindBiLinks</title>
<!-- Node1 -->
<g id="node1" class="node">
<title>Node1</title>
<polygon fill="#bfbfbf" stroke="#000000" points="0,-39.5 0,-59.5 148,-59.5 148,-39.5 0,-39.5"/>
<text text-anchor="middle" x="74" y="-46.5" font-family="FreeSans" font-size="10.00" fill="#000000">PHCASeeding::FindBiLinks</text>
</g>
<!-- Node2 -->
<g id="node2" class="node">
<title>Node2</title>
<g id="a_node2"><a xlink:href="../../d6/d3f/namespaceTrkrDefs.html#ad4a7fd368bbf1d5d97ff4fd3e81a6100" target="_top" xlink:title="Get the layer number from either key type.">
<polygon fill="none" stroke="#000000" points="194.5,-78.5 194.5,-98.5 305.5,-98.5 305.5,-78.5 194.5,-78.5"/>
<text text-anchor="middle" x="250" y="-85.5" font-family="FreeSans" font-size="10.00" fill="#000000">TrkrDefs::getLayer</text>
</a>
</g>
</g>
<!-- Node1&#45;&gt;Node2 -->
<g id="edge1" class="edge">
<title>Node1&#45;&gt;Node2</title>
<path fill="none" stroke="#191970" d="M119.3244,-59.5435C142.4198,-64.6612 170.6897,-70.9256 195.0206,-76.3171"/>
<polygon fill="#191970" stroke="#191970" points="194.3088,-79.7442 204.8292,-78.4906 195.8233,-72.9099 194.3088,-79.7442"/>
</g>
<!-- Node4 -->
<g id="node4" class="node">
<title>Node4</title>
<g id="a_node4"><a xlink:href="../../d2/d9c/namespacecpp_1_1ast.html#ac3c068c3189d8f850312a3b500f90bae" target="_top" xlink:title="cpp.ast.reversed">
<polygon fill="none" stroke="#000000" points="200,-39.5 200,-59.5 300,-59.5 300,-39.5 200,-39.5"/>
<text text-anchor="middle" x="250" y="-46.5" font-family="FreeSans" font-size="10.00" fill="#000000">cpp.ast.reversed</text>
</a>
</g>
</g>
<!-- Node1&#45;&gt;Node4 -->
<g id="edge3" class="edge">
<title>Node1&#45;&gt;Node4</title>
<path fill="none" stroke="#191970" d="M148.1297,-49.5C162.0541,-49.5 176.4537,-49.5 189.8864,-49.5"/>
<polygon fill="#191970" stroke="#191970" points="189.9463,-53.0001 199.9462,-49.5 189.9462,-46.0001 189.9463,-53.0001"/>
</g>
<!-- Node5 -->
<g id="node5" class="node">
<title>Node5</title>
<g id="a_node5"><a xlink:href="../../d5/dec/classFun4AllBase.html#a8a5c77a92bdac6bc043476e132379a40" target="_top" xlink:title="Gets the verbosity of this module.">
<polygon fill="none" stroke="#000000" points="184,-.5 184,-20.5 316,-20.5 316,-.5 184,-.5"/>
<text text-anchor="middle" x="250" y="-7.5" font-family="FreeSans" font-size="10.00" fill="#000000">Fun4AllBase::Verbosity</text>
</a>
</g>
</g>
<!-- Node1&#45;&gt;Node5 -->
<g id="edge4" class="edge">
<title>Node1&#45;&gt;Node5</title>
<path fill="none" stroke="#191970" d="M119.3244,-39.4565C142.4198,-34.3388 170.6897,-28.0744 195.0206,-22.6829"/>
<polygon fill="#191970" stroke="#191970" points="195.8233,-26.0901 204.8292,-20.5094 194.3088,-19.2558 195.8233,-26.0901"/>
</g>
<!-- Node3 -->
<g id="node3" class="node">
<title>Node3</title>
<g id="a_node3"><a xlink:href="../../dd/d7e/namespaceActs_1_1Test.html#a88f0887efddd644c8defc1e91456c3c9" target="_top" xlink:title="Acts::Test::tmp">
<polygon fill="none" stroke="#000000" points="352,-78.5 352,-98.5 444,-98.5 444,-78.5 352,-78.5"/>
<text text-anchor="middle" x="398" y="-85.5" font-family="FreeSans" font-size="10.00" fill="#000000">Acts::Test::tmp</text>
</a>
</g>
</g>
<!-- Node2&#45;&gt;Node3 -->
<g id="edge2" class="edge">
<title>Node2&#45;&gt;Node3</title>
<path fill="none" stroke="#191970" d="M305.5308,-88.5C317.3305,-88.5 329.7996,-88.5 341.6303,-88.5"/>
<polygon fill="#191970" stroke="#191970" points="341.8298,-92.0001 351.8297,-88.5 341.8297,-85.0001 341.8298,-92.0001"/>
</g>
</g>
</svg>
