<?xml version="1.0" encoding="UTF-8" standalone="no"?>
<!DOCTYPE svg PUBLIC "-//W3C//DTD SVG 1.1//EN"
 "http://www.w3.org/Graphics/SVG/1.1/DTD/svg11.dtd">
<!-- Generated by graphviz version 2.40.1 (20161225.0304)
 -->
<!-- Title: mg_mgr_free Pages: 1 -->
<svg width="1329pt" height="670pt"
 viewBox="0.00 0.00 1329.00 669.83" xmlns="http://www.w3.org/2000/svg" xmlns:xlink="http://www.w3.org/1999/xlink">
<g id="graph0" class="graph" transform="scale(1 1) rotate(0) translate(4 665.8328)">
<title>mg_mgr_free</title>
<!-- Node1 -->
<g id="node1" class="node">
<title>Node1</title>
<polygon fill="#bfbfbf" stroke="#000000" points="0,-526.5 0,-546.5 83,-546.5 83,-526.5 0,-526.5"/>
<text text-anchor="middle" x="41.5" y="-533.5" font-family="FreeSans" font-size="10.00" fill="#000000">mg_mgr_free</text>
</g>
<!-- Node2 -->
<g id="node2" class="node">
<title>Node2</title>
<g id="a_node2"><a xlink:href="../../d9/d3f/mongoose_8cc.html#aa8329404bac06e97c7eb18ded5dd650a" target="_top" xlink:title="mg_close_conn">
<polygon fill="none" stroke="#000000" points="619.5,-546.5 619.5,-566.5 712.5,-566.5 712.5,-546.5 619.5,-546.5"/>
<text text-anchor="middle" x="666" y="-553.5" font-family="FreeSans" font-size="10.00" fill="#000000">mg_close_conn</text>
</a>
</g>
</g>
<!-- Node1&#45;&gt;Node2 -->
<g id="edge1" class="edge">
<title>Node1&#45;&gt;Node2</title>
<path fill="none" stroke="#191970" d="M57.2629,-546.6568C91.5357,-568.0634 176.1091,-617.2587 255,-634.5 387.864,-663.5369 431.8808,-677.2109 561,-634.5 597.0029,-622.5907 630.7143,-593.0286 649.8041,-573.9116"/>
<polygon fill="#191970" stroke="#191970" points="652.373,-576.2902 656.8296,-566.6782 647.3516,-571.4131 652.373,-576.2902"/>
</g>
<!-- Node28 -->
<g id="node28" class="node">
<title>Node28</title>
<g id="a_node28"><a xlink:href="../../d9/d3f/mongoose_8cc.html#af6e181e9b7c4f5f7ee3f420fbaa29f2e" target="_top" xlink:title="mg_ev_mgr_free">
<polygon fill="none" stroke="#000000" points="119,-487.5 119,-507.5 219,-507.5 219,-487.5 119,-487.5"/>
<text text-anchor="middle" x="169" y="-494.5" font-family="FreeSans" font-size="10.00" fill="#000000">mg_ev_mgr_free</text>
</a>
</g>
</g>
<!-- Node1&#45;&gt;Node28 -->
<g id="edge28" class="edge">
<title>Node1&#45;&gt;Node28</title>
<path fill="none" stroke="#191970" d="M74.3344,-526.4565C90.2475,-521.589 109.5516,-515.6842 126.5663,-510.4797"/>
<polygon fill="#191970" stroke="#191970" points="127.738,-513.7815 136.2768,-507.5094 125.6904,-507.0876 127.738,-513.7815"/>
</g>
<!-- Node29 -->
<g id="node29" class="node">
<title>Node29</title>
<g id="a_node29"><a xlink:href="../../d9/d3f/mongoose_8cc.html#acb40771c75d19f0b8f1f5d36f74820f1" target="_top" xlink:title="mg_mgr_poll">
<polygon fill="none" stroke="#000000" points="128.5,-526.5 128.5,-546.5 209.5,-546.5 209.5,-526.5 128.5,-526.5"/>
<text text-anchor="middle" x="169" y="-533.5" font-family="FreeSans" font-size="10.00" fill="#000000">mg_mgr_poll</text>
</a>
</g>
</g>
<!-- Node1&#45;&gt;Node29 -->
<g id="edge29" class="edge">
<title>Node1&#45;&gt;Node29</title>
<path fill="none" stroke="#191970" d="M83.2483,-536.5C94.4826,-536.5 106.7559,-536.5 118.4149,-536.5"/>
<polygon fill="#191970" stroke="#191970" points="118.4611,-540.0001 128.4611,-536.5 118.4611,-533.0001 118.4611,-540.0001"/>
</g>
<!-- Node3 -->
<g id="node3" class="node">
<title>Node3</title>
<g id="a_node3"><a xlink:href="../../d9/d3f/mongoose_8cc.html#a2ca0faa3cfd1b007fc807e997d256aac" target="_top" xlink:title="mg_call">
<polygon fill="none" stroke="#000000" points="796,-429.5 796,-449.5 851,-449.5 851,-429.5 796,-429.5"/>
<text text-anchor="middle" x="823.5" y="-436.5" font-family="FreeSans" font-size="10.00" fill="#000000">mg_call</text>
</a>
</g>
</g>
<!-- Node2&#45;&gt;Node3 -->
<g id="edge2" class="edge">
<title>Node2&#45;&gt;Node3</title>
<path fill="none" stroke="#191970" d="M703.2827,-546.4781C714.0016,-542.6924 725.3844,-537.7477 735,-531.5 766.0822,-511.3045 794.3254,-478.2291 810.1724,-457.7232"/>
<polygon fill="#191970" stroke="#191970" points="813.128,-459.6171 816.3622,-449.528 807.5423,-455.3982 813.128,-459.6171"/>
</g>
<!-- Node22 -->
<g id="node22" class="node">
<title>Node22</title>
<g id="a_node22"><a xlink:href="../../d9/d3f/mongoose_8cc.html#a62bd58cf658fe1fec289171dc5eb2c67" target="_top" xlink:title="mg_destroy_conn">
<polygon fill="none" stroke="#000000" points="771,-585.5 771,-605.5 876,-605.5 876,-585.5 771,-585.5"/>
<text text-anchor="middle" x="823.5" y="-592.5" font-family="FreeSans" font-size="10.00" fill="#000000">mg_destroy_conn</text>
</a>
</g>
</g>
<!-- Node2&#45;&gt;Node22 -->
<g id="edge22" class="edge">
<title>Node2&#45;&gt;Node22</title>
<path fill="none" stroke="#191970" d="M706.5602,-566.5435C726.8605,-571.5702 751.6283,-577.7032 773.1352,-583.0287"/>
<polygon fill="#191970" stroke="#191970" points="772.5292,-586.4843 783.0773,-585.4906 774.2117,-579.6895 772.5292,-586.4843"/>
</g>
<!-- Node26 -->
<g id="node26" class="node">
<title>Node26</title>
<g id="a_node26"><a xlink:href="../../d9/d3f/mongoose_8cc.html#a19e5ab29cb79fb70b2a13c90d59eac8f" target="_top" xlink:title="mg_remove_conn">
<polygon fill="none" stroke="#000000" points="771,-546.5 771,-566.5 876,-566.5 876,-546.5 771,-546.5"/>
<text text-anchor="middle" x="823.5" y="-553.5" font-family="FreeSans" font-size="10.00" fill="#000000">mg_remove_conn</text>
</a>
</g>
</g>
<!-- Node2&#45;&gt;Node26 -->
<g id="edge26" class="edge">
<title>Node2&#45;&gt;Node26</title>
<path fill="none" stroke="#191970" d="M712.8288,-556.5C727.7799,-556.5 744.5788,-556.5 760.4849,-556.5"/>
<polygon fill="#191970" stroke="#191970" points="760.7802,-560.0001 770.7802,-556.5 760.7801,-553.0001 760.7802,-560.0001"/>
</g>
<!-- Node4 -->
<g id="node4" class="node">
<title>Node4</title>
<g id="a_node4"><a xlink:href="../../d6/d30/rcdaq__mg__server_8cc.html#a1649d4c8e3ef4f59226bba26da5a99e2" target="_top" xlink:title="ev_handler">
<polygon fill="none" stroke="#000000" points="949.5,-234.5 949.5,-254.5 1022.5,-254.5 1022.5,-234.5 949.5,-234.5"/>
<text text-anchor="middle" x="986" y="-241.5" font-family="FreeSans" font-size="10.00" fill="#000000">ev_handler</text>
</a>
</g>
</g>
<!-- Node3&#45;&gt;Node4 -->
<g id="edge3" class="edge">
<title>Node3&#45;&gt;Node4</title>
<path fill="none" stroke="#191970" d="M832.0079,-429.2905C858.169,-397.8972 937.6656,-302.5013 971.019,-262.4772"/>
<polygon fill="#191970" stroke="#191970" points="973.8632,-264.5313 977.5763,-254.6084 968.4856,-260.05 973.8632,-264.5313"/>
</g>
<!-- Node16 -->
<g id="node16" class="node">
<title>Node16</title>
<g id="a_node16"><a xlink:href="../../d9/d3f/mongoose_8cc.html#a6f9932cae4b4a2b6286a3e6449e30f5e" target="_top" xlink:title="mg_hexdump_connection">
<polygon fill="none" stroke="#000000" points="913,-468.5 913,-488.5 1059,-488.5 1059,-468.5 913,-468.5"/>
<text text-anchor="middle" x="986" y="-475.5" font-family="FreeSans" font-size="10.00" fill="#000000">mg_hexdump_connection</text>
</a>
</g>
</g>
<!-- Node3&#45;&gt;Node16 -->
<g id="edge16" class="edge">
<title>Node3&#45;&gt;Node16</title>
<path fill="none" stroke="#191970" d="M851.0659,-446.1158C873.8083,-451.574 906.7077,-459.4698 934.3267,-466.0984"/>
<polygon fill="#191970" stroke="#191970" points="933.694,-469.5459 944.2347,-468.4763 935.3276,-462.7392 933.694,-469.5459"/>
</g>
<!-- Node21 -->
<g id="node21" class="node">
<title>Node21</title>
<g id="a_node21"><a xlink:href="../../d9/d3f/mongoose_8cc.html#ae05768316e0d0d164b8a7b2704ae1d30" target="_top" xlink:title="mg_if_recved">
<polygon fill="none" stroke="#000000" points="944.5,-195.5 944.5,-215.5 1027.5,-215.5 1027.5,-195.5 944.5,-195.5"/>
<text text-anchor="middle" x="986" y="-202.5" font-family="FreeSans" font-size="10.00" fill="#000000">mg_if_recved</text>
</a>
</g>
</g>
<!-- Node3&#45;&gt;Node21 -->
<g id="edge21" class="edge">
<title>Node3&#45;&gt;Node21</title>
<path fill="none" stroke="#191970" d="M824.544,-429.1046C828.6023,-394.3897 846.516,-281.4511 912,-224.5 918.4742,-218.8694 926.4014,-214.8713 934.634,-212.04"/>
<polygon fill="#191970" stroke="#191970" points="935.7357,-215.3649 944.3697,-209.2245 933.791,-208.6404 935.7357,-215.3649"/>
</g>
<!-- Node5 -->
<g id="node5" class="node">
<title>Node5</title>
<g id="a_node5"><a xlink:href="../../d9/d3f/mongoose_8cc.html#a0cc2c4a4f5ecfc4dff1848963df96f3c" target="_top" xlink:title="mg_vcmp">
<polygon fill="none" stroke="#000000" points="1256,-175.5 1256,-195.5 1321,-195.5 1321,-175.5 1256,-175.5"/>
<text text-anchor="middle" x="1288.5" y="-182.5" font-family="FreeSans" font-size="10.00" fill="#000000">mg_vcmp</text>
</a>
</g>
</g>
<!-- Node4&#45;&gt;Node5 -->
<g id="edge4" class="edge">
<title>Node4&#45;&gt;Node5</title>
<path fill="none" stroke="#191970" d="M1022.79,-237.3244C1079.053,-226.3508 1186.2037,-205.452 1245.8081,-193.8267"/>
<polygon fill="#191970" stroke="#191970" points="1246.5112,-197.2556 1255.6563,-191.9059 1245.1711,-190.385 1246.5112,-197.2556"/>
</g>
<!-- Node6 -->
<g id="node6" class="node">
<title>Node6</title>
<g id="a_node6"><a xlink:href="../../db/dcc/rcdaq_8cc.html#af6b78cd2ca74fe1dd4f6e8e51d41ca2c" target="_top" xlink:title="daq_begin">
<polygon fill="none" stroke="#ff0000" points="1124,-117.5 1124,-137.5 1192,-137.5 1192,-117.5 1124,-117.5"/>
<text text-anchor="middle" x="1158" y="-124.5" font-family="FreeSans" font-size="10.00" fill="#000000">daq_begin</text>
</a>
</g>
</g>
<!-- Node4&#45;&gt;Node6 -->
<g id="edge5" class="edge">
<title>Node4&#45;&gt;Node6</title>
<path fill="none" stroke="#191970" d="M1022.8583,-241.0019C1035.7736,-238.2109 1049.6281,-233.257 1060,-224.5 1089.1734,-199.8689 1067.242,-171.6149 1096,-146.5 1101.2414,-141.9226 1107.5663,-138.4479 1114.146,-135.8104"/>
<polygon fill="#191970" stroke="#191970" points="1115.5242,-139.0389 1123.8715,-132.5141 1113.2772,-132.4093 1115.5242,-139.0389"/>
</g>
<!-- Node7 -->
<g id="node7" class="node">
<title>Node7</title>
<g id="a_node7"><a xlink:href="../../db/dcc/rcdaq_8cc.html#a67adb43e122f86a81948a8a3d5bf69e3" target="_top" xlink:title="daq_end">
<polygon fill="none" stroke="#ff0000" points="1128.5,-78.5 1128.5,-98.5 1187.5,-98.5 1187.5,-78.5 1128.5,-78.5"/>
<text text-anchor="middle" x="1158" y="-85.5" font-family="FreeSans" font-size="10.00" fill="#000000">daq_end</text>
</a>
</g>
</g>
<!-- Node4&#45;&gt;Node7 -->
<g id="edge6" class="edge">
<title>Node4&#45;&gt;Node7</title>
<path fill="none" stroke="#191970" d="M1022.7565,-241.8908C1035.9665,-239.2201 1050.0458,-234.1163 1060,-224.5 1099.1293,-186.6992 1057.5074,-145.949 1096,-107.5 1102.1829,-101.3241 1110.3168,-97.1466 1118.6499,-94.3234"/>
<polygon fill="#191970" stroke="#191970" points="1119.7303,-97.6557 1128.4189,-91.5928 1117.8458,-90.9141 1119.7303,-97.6557"/>
</g>
<!-- Node8 -->
<g id="node8" class="node">
<title>Node8</title>
<g id="a_node8"><a xlink:href="../../d6/d30/rcdaq__mg__server_8cc.html#a7ababb5ab905831796ce41c73959f6f9" target="_top" xlink:title="send_error">
<polygon fill="none" stroke="#ff0000" points="1123,-39.5 1123,-59.5 1193,-59.5 1193,-39.5 1123,-39.5"/>
<text text-anchor="middle" x="1158" y="-46.5" font-family="FreeSans" font-size="10.00" fill="#000000">send_error</text>
</a>
</g>
</g>
<!-- Node4&#45;&gt;Node8 -->
<g id="edge7" class="edge">
<title>Node4&#45;&gt;Node8</title>
<path fill="none" stroke="#191970" d="M1022.7457,-242.3366C1036.1134,-239.7354 1050.3045,-234.5627 1060,-224.5 1109.371,-173.2592 1047.4916,-120.5581 1096,-68.5 1100.744,-63.4088 1106.8117,-59.6685 1113.2873,-56.9236"/>
<polygon fill="#191970" stroke="#191970" points="1114.6567,-60.1533 1122.96,-53.5727 1112.3652,-53.539 1114.6567,-60.1533"/>
</g>
<!-- Node9 -->
<g id="node9" class="node">
<title>Node9</title>
<g id="a_node9"><a xlink:href="../../db/dcc/rcdaq_8cc.html#aff8c155f1190c240bd5c66a44e6da868" target="_top" xlink:title="daq_open">
<polygon fill="none" stroke="#000000" points="1125.5,-.5 1125.5,-20.5 1190.5,-20.5 1190.5,-.5 1125.5,-.5"/>
<text text-anchor="middle" x="1158" y="-7.5" font-family="FreeSans" font-size="10.00" fill="#000000">daq_open</text>
</a>
</g>
</g>
<!-- Node4&#45;&gt;Node9 -->
<g id="edge8" class="edge">
<title>Node4&#45;&gt;Node9</title>
<path fill="none" stroke="#191970" d="M1022.5978,-242.6307C1036.1088,-240.0843 1050.4392,-234.8725 1060,-224.5 1119.7308,-159.6977 1037.3597,-95.2908 1096,-29.5 1101.267,-23.5908 1108.3178,-19.4943 1115.7753,-16.6606"/>
<polygon fill="#191970" stroke="#191970" points="1116.8151,-20.0026 1125.3352,-13.7051 1114.7475,-13.3149 1116.8151,-20.0026"/>
</g>
<!-- Node10 -->
<g id="node10" class="node">
<title>Node10</title>
<g id="a_node10"><a xlink:href="../../db/dcc/rcdaq_8cc.html#a9d259bbfa7eb516c904767bc6068f4b1" target="_top" xlink:title="daq_close">
<polygon fill="none" stroke="#000000" points="1125,-390.5 1125,-410.5 1191,-410.5 1191,-390.5 1125,-390.5"/>
<text text-anchor="middle" x="1158" y="-397.5" font-family="FreeSans" font-size="10.00" fill="#000000">daq_close</text>
</a>
</g>
</g>
<!-- Node4&#45;&gt;Node10 -->
<g id="edge9" class="edge">
<title>Node4&#45;&gt;Node10</title>
<path fill="none" stroke="#191970" d="M991.4491,-254.716C1005.3971,-279.8998 1044.9186,-345.4505 1096,-380.5 1101.7645,-384.4553 1108.36,-387.6666 1115.0489,-390.2625"/>
<polygon fill="#191970" stroke="#191970" points="1114.2354,-393.6844 1124.8301,-393.6406 1116.5205,-387.0678 1114.2354,-393.6844"/>
</g>
<!-- Node11 -->
<g id="node11" class="node">
<title>Node11</title>
<g id="a_node11"><a xlink:href="../../d6/d30/rcdaq__mg__server_8cc.html#a192afce8cf54b427719e1a6320a8dbcf" target="_top" xlink:title="initial_ws_update">
<polygon fill="none" stroke="#ff0000" points="1106.5,-351.5 1106.5,-371.5 1209.5,-371.5 1209.5,-351.5 1106.5,-351.5"/>
<text text-anchor="middle" x="1158" y="-358.5" font-family="FreeSans" font-size="10.00" fill="#000000">initial_ws_update</text>
</a>
</g>
</g>
<!-- Node4&#45;&gt;Node11 -->
<g id="edge10" class="edge">
<title>Node4&#45;&gt;Node11</title>
<path fill="none" stroke="#191970" d="M994.6765,-254.5138C1012.0344,-273.9613 1053.0688,-317.0695 1096,-341.5 1100.1439,-343.8581 1104.6043,-345.982 1109.1646,-347.8847"/>
<polygon fill="#191970" stroke="#191970" points="1108.0053,-351.1885 1118.596,-351.4842 1110.5013,-344.6486 1108.0053,-351.1885"/>
</g>
<!-- Node12 -->
<g id="node12" class="node">
<title>Node12</title>
<g id="a_node12"><a xlink:href="../../d6/d30/rcdaq__mg__server_8cc.html#a3013b2522e9be600723160f127b4e87d" target="_top" xlink:title="send_updates">
<polygon fill="none" stroke="#ff0000" points="1114.5,-312.5 1114.5,-332.5 1201.5,-332.5 1201.5,-312.5 1114.5,-312.5"/>
<text text-anchor="middle" x="1158" y="-319.5" font-family="FreeSans" font-size="10.00" fill="#000000">send_updates</text>
</a>
</g>
</g>
<!-- Node4&#45;&gt;Node12 -->
<g id="edge11" class="edge">
<title>Node4&#45;&gt;Node12</title>
<path fill="none" stroke="#191970" d="M1003.0751,-254.697C1024.3265,-267.1054 1061.977,-288.17 1096,-302.5 1101.5422,-304.8343 1107.4569,-307.0617 1113.3502,-309.126"/>
<polygon fill="#191970" stroke="#191970" points="1112.5844,-312.5612 1123.1785,-312.436 1114.8186,-305.9273 1112.5844,-312.5612"/>
</g>
<!-- Node13 -->
<g id="node13" class="node">
<title>Node13</title>
<g id="a_node13"><a xlink:href="../../d6/d30/rcdaq__mg__server_8cc.html#a8976dc152e101f96e0e17f0c3b523c6f" target="_top" xlink:title="send_status">
<polygon fill="none" stroke="#ff0000" points="1119.5,-273.5 1119.5,-293.5 1196.5,-293.5 1196.5,-273.5 1119.5,-273.5"/>
<text text-anchor="middle" x="1158" y="-280.5" font-family="FreeSans" font-size="10.00" fill="#000000">send_status</text>
</a>
</g>
</g>
<!-- Node4&#45;&gt;Node13 -->
<g id="edge12" class="edge">
<title>Node4&#45;&gt;Node13</title>
<path fill="none" stroke="#191970" d="M1022.8983,-252.8665C1048.2173,-258.6074 1082.0753,-266.2845 1109.5622,-272.517"/>
<polygon fill="#191970" stroke="#191970" points="1108.8466,-275.9435 1119.3731,-274.7416 1110.3946,-269.1168 1108.8466,-275.9435"/>
</g>
<!-- Node14 -->
<g id="node14" class="node">
<title>Node14</title>
<g id="a_node14"><a xlink:href="../../d6/d30/rcdaq__mg__server_8cc.html#afc266f75027b7e73341e2eb959d96f55" target="_top" xlink:title="send_nothing">
<polygon fill="none" stroke="#ff0000" points="1116,-234.5 1116,-254.5 1200,-254.5 1200,-234.5 1116,-234.5"/>
<text text-anchor="middle" x="1158" y="-241.5" font-family="FreeSans" font-size="10.00" fill="#000000">send_nothing</text>
</a>
</g>
</g>
<!-- Node4&#45;&gt;Node14 -->
<g id="edge13" class="edge">
<title>Node4&#45;&gt;Node14</title>
<path fill="none" stroke="#191970" d="M1022.8983,-244.5C1046.9495,-244.5 1078.706,-244.5 1105.3871,-244.5"/>
<polygon fill="#191970" stroke="#191970" points="1105.7141,-248.0001 1115.7141,-244.5 1105.7141,-241.0001 1105.7141,-248.0001"/>
</g>
<!-- Node15 -->
<g id="node15" class="node">
<title>Node15</title>
<g id="a_node15"><a xlink:href="../../d9/d3f/mongoose_8cc.html#a3f4e233ca42d64a9bd6e1bf096130773" target="_top" xlink:title="mg_serve_http">
<polygon fill="none" stroke="#ff0000" points="1112.5,-156.5 1112.5,-176.5 1203.5,-176.5 1203.5,-156.5 1112.5,-156.5"/>
<text text-anchor="middle" x="1158" y="-163.5" font-family="FreeSans" font-size="10.00" fill="#000000">mg_serve_http</text>
</a>
</g>
</g>
<!-- Node4&#45;&gt;Node15 -->
<g id="edge14" class="edge">
<title>Node4&#45;&gt;Node15</title>
<path fill="none" stroke="#191970" d="M1022.7114,-238.2327C1035.0505,-235.1908 1048.5731,-230.7865 1060,-224.5 1079.0172,-214.0378 1077.6405,-203.0775 1096,-191.5 1102.6956,-187.2778 1110.2242,-183.5309 1117.6667,-180.3056"/>
<polygon fill="#191970" stroke="#191970" points="1119.0441,-183.5238 1126.9787,-176.5029 1116.3976,-177.0433 1119.0441,-183.5238"/>
</g>
<!-- Node15&#45;&gt;Node5 -->
<g id="edge15" class="edge">
<title>Node15&#45;&gt;Node5</title>
<path fill="none" stroke="#191970" d="M1203.6426,-173.1453C1217.3482,-175.1407 1232.3261,-177.3214 1245.8318,-179.2878"/>
<polygon fill="#191970" stroke="#191970" points="1245.4272,-182.7657 1255.8272,-180.743 1246.4358,-175.8387 1245.4272,-182.7657"/>
</g>
<!-- Node17 -->
<g id="node17" class="node">
<title>Node17</title>
<g id="a_node17"><a xlink:href="../../da/de5/ThicknessScan_8m.html#a5f84f51058cdb4f43c29d2c875659f42" target="_top" xlink:title="fclose">
<polygon fill="none" stroke="#000000" points="1135,-429.5 1135,-449.5 1181,-449.5 1181,-429.5 1135,-429.5"/>
<text text-anchor="middle" x="1158" y="-436.5" font-family="FreeSans" font-size="10.00" fill="#000000">fclose</text>
</a>
</g>
</g>
<!-- Node16&#45;&gt;Node17 -->
<g id="edge17" class="edge">
<title>Node16&#45;&gt;Node17</title>
<path fill="none" stroke="#191970" d="M1030.2943,-468.4565C1059.8191,-461.7619 1097.9971,-453.1053 1124.8922,-447.007"/>
<polygon fill="#191970" stroke="#191970" points="1125.981,-450.349 1134.9595,-444.7243 1124.4331,-443.5223 1125.981,-450.349"/>
</g>
<!-- Node18 -->
<g id="node18" class="node">
<title>Node18</title>
<g id="a_node18"><a xlink:href="../../d4/d23/Prototype2_2EMCal_2macros_2EnergyCalibFit_8m.html#a0f562e412982273e906f55843990c582" target="_top" xlink:title="fprintf">
<polygon fill="none" stroke="#000000" points="1134,-546.5 1134,-566.5 1182,-566.5 1182,-546.5 1134,-546.5"/>
<text text-anchor="middle" x="1158" y="-553.5" font-family="FreeSans" font-size="10.00" fill="#000000">fprintf</text>
</a>
</g>
</g>
<!-- Node16&#45;&gt;Node18 -->
<g id="edge18" class="edge">
<title>Node16&#45;&gt;Node18</title>
<path fill="none" stroke="#191970" d="M1003.0751,-488.697C1024.3265,-501.1054 1061.977,-522.17 1096,-536.5 1104.9559,-540.2721 1114.8842,-543.7651 1124.1234,-546.7414"/>
<polygon fill="#191970" stroke="#191970" points="1123.2112,-550.1231 1133.7997,-549.757 1125.294,-543.4401 1123.2112,-550.1231"/>
</g>
<!-- Node19 -->
<g id="node19" class="node">
<title>Node19</title>
<g id="a_node19"><a xlink:href="../../d9/d3f/mongoose_8cc.html#a45d343f1d3f3c0aa79410b256e56c9ea" target="_top" xlink:title="mg_conn_addr_to_str">
<polygon fill="none" stroke="#ff0000" points="1096,-507.5 1096,-527.5 1220,-527.5 1220,-507.5 1096,-507.5"/>
<text text-anchor="middle" x="1158" y="-514.5" font-family="FreeSans" font-size="10.00" fill="#000000">mg_conn_addr_to_str</text>
</a>
</g>
</g>
<!-- Node16&#45;&gt;Node19 -->
<g id="edge19" class="edge">
<title>Node16&#45;&gt;Node19</title>
<path fill="none" stroke="#191970" d="M1030.2943,-488.5435C1052.7645,-493.6385 1080.2468,-499.8699 1103.9529,-505.2451"/>
<polygon fill="#191970" stroke="#191970" points="1103.3294,-508.6925 1113.8558,-507.4906 1104.8774,-501.8658 1103.3294,-508.6925"/>
</g>
<!-- Node20 -->
<g id="node20" class="node">
<title>Node20</title>
<g id="a_node20"><a xlink:href="../../d9/d3f/mongoose_8cc.html#aa151a33f8ec5d956c754c3728bc1b9be" target="_top" xlink:title="mg_hexdump">
<polygon fill="none" stroke="#000000" points="1115.5,-468.5 1115.5,-488.5 1200.5,-488.5 1200.5,-468.5 1115.5,-468.5"/>
<text text-anchor="middle" x="1158" y="-475.5" font-family="FreeSans" font-size="10.00" fill="#000000">mg_hexdump</text>
</a>
</g>
</g>
<!-- Node16&#45;&gt;Node20 -->
<g id="edge20" class="edge">
<title>Node16&#45;&gt;Node20</title>
<path fill="none" stroke="#191970" d="M1059.4424,-478.5C1074.7249,-478.5 1090.548,-478.5 1104.9252,-478.5"/>
<polygon fill="#191970" stroke="#191970" points="1105.1101,-482.0001 1115.11,-478.5 1105.11,-475.0001 1105.1101,-482.0001"/>
</g>
<!-- Node23 -->
<g id="node23" class="node">
<title>Node23</title>
<g id="a_node23"><a xlink:href="../../d9/d3f/mongoose_8cc.html#ad3c13b475fd6e8e598c383d57a6cf299" target="_top" xlink:title="mbuf_free">
<polygon fill="none" stroke="#000000" points="952.5,-585.5 952.5,-605.5 1019.5,-605.5 1019.5,-585.5 952.5,-585.5"/>
<text text-anchor="middle" x="986" y="-592.5" font-family="FreeSans" font-size="10.00" fill="#000000">mbuf_free</text>
</a>
</g>
</g>
<!-- Node22&#45;&gt;Node23 -->
<g id="edge23" class="edge">
<title>Node22&#45;&gt;Node23</title>
<path fill="none" stroke="#191970" d="M876.2591,-595.5C897.5668,-595.5 921.8678,-595.5 942.1767,-595.5"/>
<polygon fill="#191970" stroke="#191970" points="942.3962,-599.0001 952.3961,-595.5 942.3961,-592.0001 942.3962,-599.0001"/>
</g>
<!-- Node25 -->
<g id="node25" class="node">
<title>Node25</title>
<g id="a_node25"><a xlink:href="../../d9/d3f/mongoose_8cc.html#a153b7b28be9cf2b76e8e0777de0b6252" target="_top" xlink:title="mg_if_destroy_conn">
<polygon fill="none" stroke="#000000" points="928,-624.5 928,-644.5 1044,-644.5 1044,-624.5 928,-624.5"/>
<text text-anchor="middle" x="986" y="-631.5" font-family="FreeSans" font-size="10.00" fill="#000000">mg_if_destroy_conn</text>
</a>
</g>
</g>
<!-- Node22&#45;&gt;Node25 -->
<g id="edge25" class="edge">
<title>Node22&#45;&gt;Node25</title>
<path fill="none" stroke="#191970" d="M865.3478,-605.5435C886.3874,-610.593 912.078,-616.7587 934.3373,-622.1009"/>
<polygon fill="#191970" stroke="#191970" points="933.7533,-625.5601 944.294,-624.4906 935.387,-618.7534 933.7533,-625.5601"/>
</g>
<!-- Node24 -->
<g id="node24" class="node">
<title>Node24</title>
<g id="a_node24"><a xlink:href="../../d9/d3f/mongoose_8cc.html#add7012799d97bd7fa3fc72b4a3822e36" target="_top" xlink:title="mbuf_init">
<polygon fill="none" stroke="#ff0000" points="1126,-585.5 1126,-605.5 1190,-605.5 1190,-585.5 1126,-585.5"/>
<text text-anchor="middle" x="1158" y="-592.5" font-family="FreeSans" font-size="10.00" fill="#000000">mbuf_init</text>
</a>
</g>
</g>
<!-- Node23&#45;&gt;Node24 -->
<g id="edge24" class="edge">
<title>Node23&#45;&gt;Node24</title>
<path fill="none" stroke="#191970" d="M1019.5716,-595.5C1047.1193,-595.5 1086.2728,-595.5 1115.914,-595.5"/>
<polygon fill="#191970" stroke="#191970" points="1115.9672,-599.0001 1125.9671,-595.5 1115.9671,-592.0001 1115.9672,-599.0001"/>
</g>
<!-- Node27 -->
<g id="node27" class="node">
<title>Node27</title>
<g id="a_node27"><a xlink:href="../../d9/d3f/mongoose_8cc.html#a806b9536d9144aeba5b2125ae548c721" target="_top" xlink:title="mg_ev_mgr_remove_conn">
<polygon fill="none" stroke="#000000" points="912,-546.5 912,-566.5 1060,-566.5 1060,-546.5 912,-546.5"/>
<text text-anchor="middle" x="986" y="-553.5" font-family="FreeSans" font-size="10.00" fill="#000000">mg_ev_mgr_remove_conn</text>
</a>
</g>
</g>
<!-- Node26&#45;&gt;Node27 -->
<g id="edge27" class="edge">
<title>Node26&#45;&gt;Node27</title>
<path fill="none" stroke="#191970" d="M876.2591,-556.5C884.452,-556.5 893.0875,-556.5 901.7684,-556.5"/>
<polygon fill="#191970" stroke="#191970" points="901.9562,-560.0001 911.9561,-556.5 901.9561,-553.0001 901.9562,-560.0001"/>
</g>
<!-- Node29&#45;&gt;Node2 -->
<g id="edge31" class="edge">
<title>Node29&#45;&gt;Node2</title>
<path fill="none" stroke="#191970" d="M209.6716,-538.1367C298.0928,-541.6949 508.0021,-550.1419 609.3346,-554.2197"/>
<polygon fill="#191970" stroke="#191970" points="609.2487,-557.719 619.3814,-554.624 609.5302,-550.7246 609.2487,-557.719"/>
</g>
<!-- Node30 -->
<g id="node30" class="node">
<title>Node30</title>
<g id="a_node30"><a xlink:href="../../d9/d3f/mongoose_8cc.html#ae8b040fe0c73e0b5ffe8501e1da9b0a9" target="_top" xlink:title="mg_add_to_set">
<polygon fill="none" stroke="#000000" points="280,-332.5 280,-352.5 373,-352.5 373,-332.5 280,-332.5"/>
<text text-anchor="middle" x="326.5" y="-339.5" font-family="FreeSans" font-size="10.00" fill="#000000">mg_add_to_set</text>
</a>
</g>
</g>
<!-- Node29&#45;&gt;Node30 -->
<g id="edge30" class="edge">
<title>Node29&#45;&gt;Node30</title>
<path fill="none" stroke="#191970" d="M206.1256,-526.4993C210.9706,-523.8919 215.4685,-520.6149 219,-516.5 265.0592,-462.8322 205.7859,-412.2903 255,-361.5 259.3991,-356.96 264.7496,-353.4634 270.523,-350.7769"/>
<polygon fill="#191970" stroke="#191970" points="271.7872,-354.0407 279.8677,-347.1883 269.2777,-347.506 271.7872,-354.0407"/>
</g>
<!-- Node31 -->
<g id="node31" class="node">
<title>Node31</title>
<g id="a_node31"><a xlink:href="../../d9/d3f/mongoose_8cc.html#af86d8e36360fe91924be0df71d3d399b" target="_top" xlink:title="mg_mgr_handle_conn">
<polygon fill="none" stroke="#000000" points="263,-410.5 263,-430.5 390,-430.5 390,-410.5 263,-410.5"/>
<text text-anchor="middle" x="326.5" y="-417.5" font-family="FreeSans" font-size="10.00" fill="#000000">mg_mgr_handle_conn</text>
</a>
</g>
</g>
<!-- Node29&#45;&gt;Node31 -->
<g id="edge32" class="edge">
<title>Node29&#45;&gt;Node31</title>
<path fill="none" stroke="#191970" d="M199.1753,-526.4011C205.9189,-523.6119 212.8806,-520.2917 219,-516.5 255.0521,-494.1611 290.4901,-459.3185 310.3224,-438.3229"/>
<polygon fill="#191970" stroke="#191970" points="313.113,-440.4617 317.3602,-430.7555 307.9871,-435.6946 313.113,-440.4617"/>
</g>
<!-- Node47 -->
<g id="node47" class="node">
<title>Node47</title>
<g id="a_node47"><a xlink:href="../../d9/d3f/mongoose_8cc.html#a8e3d9bf472dde17bb00848b72c6de97d" target="_top" xlink:title="mg_mgr_handle_ctl_sock">
<polygon fill="none" stroke="#000000" points="255,-371.5 255,-391.5 398,-391.5 398,-371.5 255,-371.5"/>
<text text-anchor="middle" x="326.5" y="-378.5" font-family="FreeSans" font-size="10.00" fill="#000000">mg_mgr_handle_ctl_sock</text>
</a>
</g>
</g>
<!-- Node29&#45;&gt;Node47 -->
<g id="edge57" class="edge">
<title>Node29&#45;&gt;Node47</title>
<path fill="none" stroke="#191970" d="M205.6087,-526.3967C210.5848,-523.7994 215.2578,-520.5525 219,-516.5 255.6218,-476.8412 216.0515,-437.8764 255,-400.5 256.2742,-399.2772 257.6179,-398.1309 259.0197,-397.0565"/>
<polygon fill="#191970" stroke="#191970" points="261.0059,-399.9421 267.6082,-391.656 257.2796,-394.0163 261.0059,-399.9421"/>
</g>
<!-- Node48 -->
<g id="node48" class="node">
<title>Node48</title>
<g id="a_node48"><a xlink:href="../../d9/d3f/mongoose_8cc.html#aa93fbafbfbe46d722a902f7ca23b4718" target="_top" xlink:title="mg_time">
<polygon fill="none" stroke="#000000" points="296.5,-604.5 296.5,-624.5 356.5,-624.5 356.5,-604.5 296.5,-604.5"/>
<text text-anchor="middle" x="326.5" y="-611.5" font-family="FreeSans" font-size="10.00" fill="#000000">mg_time</text>
</a>
</g>
</g>
<!-- Node29&#45;&gt;Node48 -->
<g id="edge59" class="edge">
<title>Node29&#45;&gt;Node48</title>
<path fill="none" stroke="#191970" d="M180.7326,-546.5105C196.5904,-559.561 226.2051,-582.2761 255,-595.5 264.9066,-600.0496 276.1036,-603.6709 286.6464,-606.4793"/>
<polygon fill="#191970" stroke="#191970" points="285.9415,-609.9106 296.4906,-608.9267 287.6304,-603.1174 285.9415,-609.9106"/>
</g>
<!-- Node50 -->
<g id="node50" class="node">
<title>Node50</title>
<g id="a_node50"><a xlink:href="../../dd/d7e/namespaceActs_1_1Test.html#a88f0887efddd644c8defc1e91456c3c9" target="_top" xlink:title="Acts::Test::tmp">
<polygon fill="none" stroke="#000000" points="280.5,-565.5 280.5,-585.5 372.5,-585.5 372.5,-565.5 280.5,-565.5"/>
<text text-anchor="middle" x="326.5" y="-572.5" font-family="FreeSans" font-size="10.00" fill="#000000">Acts::Test::tmp</text>
</a>
</g>
</g>
<!-- Node29&#45;&gt;Node50 -->
<g id="edge61" class="edge">
<title>Node29&#45;&gt;Node50</title>
<path fill="none" stroke="#191970" d="M209.5602,-546.5435C229.8605,-551.5702 254.6283,-557.7032 276.1352,-563.0287"/>
<polygon fill="#191970" stroke="#191970" points="275.5292,-566.4843 286.0773,-565.4906 277.2117,-559.6895 275.5292,-566.4843"/>
</g>
<!-- Node32 -->
<g id="node32" class="node">
<title>Node32</title>
<g id="a_node32"><a xlink:href="../../d7/dc7/namespacecheck__license.html#a5d6111870e0d2f540b9458f3674194ff" target="_top" xlink:title="check_license.err">
<polygon fill="none" stroke="#000000" points="445.5,-351.5 445.5,-371.5 549.5,-371.5 549.5,-351.5 445.5,-351.5"/>
<text text-anchor="middle" x="497.5" y="-358.5" font-family="FreeSans" font-size="10.00" fill="#000000">check_license.err</text>
</a>
</g>
</g>
<!-- Node31&#45;&gt;Node32 -->
<g id="edge33" class="edge">
<title>Node31&#45;&gt;Node32</title>
<path fill="none" stroke="#191970" d="M368.6444,-410.4815C378.4305,-407.6712 388.7007,-404.3217 398,-400.5 414.9295,-393.5426 417.1338,-387.6094 434,-380.5 438.9705,-378.4049 444.2497,-376.44 449.558,-374.6278"/>
<polygon fill="#191970" stroke="#191970" points="450.6529,-377.9523 459.0839,-371.5359 448.4918,-371.2942 450.6529,-377.9523"/>
</g>
<!-- Node33 -->
<g id="node33" class="node">
<title>Node33</title>
<g id="a_node33"><a xlink:href="../../d9/d3f/mongoose_8cc.html#a11482eca2b62180bd0c7009ba453debc" target="_top" xlink:title="mg_accept_conn">
<polygon fill="none" stroke="#000000" points="447,-429.5 447,-449.5 548,-449.5 548,-429.5 447,-429.5"/>
<text text-anchor="middle" x="497.5" y="-436.5" font-family="FreeSans" font-size="10.00" fill="#000000">mg_accept_conn</text>
</a>
</g>
</g>
<!-- Node31&#45;&gt;Node33 -->
<g id="edge34" class="edge">
<title>Node31&#45;&gt;Node33</title>
<path fill="none" stroke="#191970" d="M390.1741,-427.5749C405.3731,-429.2637 421.5582,-431.062 436.6275,-432.7364"/>
<polygon fill="#191970" stroke="#191970" points="436.5306,-436.2471 446.8559,-433.8729 437.3037,-429.2899 436.5306,-436.2471"/>
</g>
<!-- Node38 -->
<g id="node38" class="node">
<title>Node38</title>
<g id="a_node38"><a xlink:href="../../d9/d3f/mongoose_8cc.html#a6d625ffb1fbff69999b6d3764188a47a" target="_top" xlink:title="mg_handle_udp_read">
<polygon fill="none" stroke="#000000" points="435.5,-234.5 435.5,-254.5 559.5,-254.5 559.5,-234.5 435.5,-234.5"/>
<text text-anchor="middle" x="497.5" y="-241.5" font-family="FreeSans" font-size="10.00" fill="#000000">mg_handle_udp_read</text>
</a>
</g>
</g>
<!-- Node31&#45;&gt;Node38 -->
<g id="edge41" class="edge">
<title>Node31&#45;&gt;Node38</title>
<path fill="none" stroke="#191970" d="M384.2042,-410.385C389.2983,-407.7851 394.0215,-404.5419 398,-400.5 442.1639,-355.6334 390.2414,-308.7619 434,-263.5 435.0998,-262.3625 436.2646,-261.2923 437.4843,-260.2856"/>
<polygon fill="#191970" stroke="#191970" points="439.8036,-262.9485 446.2231,-254.52 435.9486,-257.1056 439.8036,-262.9485"/>
</g>
<!-- Node42 -->
<g id="node42" class="node">
<title>Node42</title>
<g id="a_node42"><a xlink:href="../../d9/d3f/mongoose_8cc.html#a73a3e947b6d29f71542c280fdbe4fce0" target="_top" xlink:title="mg_if_connect_cb">
<polygon fill="none" stroke="#000000" points="613,-468.5 613,-488.5 719,-488.5 719,-468.5 613,-468.5"/>
<text text-anchor="middle" x="666" y="-475.5" font-family="FreeSans" font-size="10.00" fill="#000000">mg_if_connect_cb</text>
</a>
</g>
</g>
<!-- Node31&#45;&gt;Node42 -->
<g id="edge47" class="edge">
<title>Node31&#45;&gt;Node42</title>
<path fill="none" stroke="#191970" d="M349.4914,-430.5503C370.9278,-439.4543 404.0105,-452.0174 434,-458.5 490.3244,-470.6752 555.8522,-475.4926 602.8723,-477.3713"/>
<polygon fill="#191970" stroke="#191970" points="602.7913,-480.8705 612.9128,-477.7391 603.0476,-473.8752 602.7913,-480.8705"/>
</g>
<!-- Node43 -->
<g id="node43" class="node">
<title>Node43</title>
<g id="a_node43"><a xlink:href="../../d9/d3f/mongoose_8cc.html#a434fcd77e575224c47a797ab0a7aeaa0" target="_top" xlink:title="mg_if_poll">
<polygon fill="none" stroke="#000000" points="464,-273.5 464,-293.5 531,-293.5 531,-273.5 464,-273.5"/>
<text text-anchor="middle" x="497.5" y="-280.5" font-family="FreeSans" font-size="10.00" fill="#000000">mg_if_poll</text>
</a>
</g>
</g>
<!-- Node31&#45;&gt;Node43 -->
<g id="edge49" class="edge">
<title>Node31&#45;&gt;Node43</title>
<path fill="none" stroke="#191970" d="M382.7564,-410.4942C388.3237,-407.886 393.5498,-404.6106 398,-400.5 432.0855,-369.0156 400.199,-334.2896 434,-302.5 439.59,-297.2426 446.5767,-293.435 453.8531,-290.6785"/>
<polygon fill="#191970" stroke="#191970" points="455.3619,-293.8731 463.851,-287.5339 453.2616,-287.1956 455.3619,-293.8731"/>
</g>
<!-- Node44 -->
<g id="node44" class="node">
<title>Node44</title>
<g id="a_node44"><a xlink:href="../../d9/d3f/mongoose_8cc.html#ae662a8a7afb4425fabf95e0b12aabc0a" target="_top" xlink:title="mg_if_timer">
<polygon fill="none" stroke="#000000" points="459.5,-507.5 459.5,-527.5 535.5,-527.5 535.5,-507.5 459.5,-507.5"/>
<text text-anchor="middle" x="497.5" y="-514.5" font-family="FreeSans" font-size="10.00" fill="#000000">mg_if_timer</text>
</a>
</g>
</g>
<!-- Node31&#45;&gt;Node44 -->
<g id="edge51" class="edge">
<title>Node31&#45;&gt;Node44</title>
<path fill="none" stroke="#191970" d="M339.5008,-430.56C359.1597,-445.4519 397.9863,-473.6315 434,-492.5 441.7694,-496.5706 450.3556,-500.3776 458.6364,-503.733"/>
<polygon fill="#191970" stroke="#191970" points="457.5619,-507.0709 468.1499,-507.4533 460.1114,-500.5516 457.5619,-507.0709"/>
</g>
<!-- Node45 -->
<g id="node45" class="node">
<title>Node45</title>
<g id="a_node45"><a xlink:href="../../d9/d3f/mongoose_8cc.html#a9c68f7991bf4d4112786bcb5116792f2" target="_top" xlink:title="mg_read_from_socket">
<polygon fill="none" stroke="#ff0000" points="434,-312.5 434,-332.5 561,-332.5 561,-312.5 434,-312.5"/>
<text text-anchor="middle" x="497.5" y="-319.5" font-family="FreeSans" font-size="10.00" fill="#000000">mg_read_from_socket</text>
</a>
</g>
</g>
<!-- Node31&#45;&gt;Node45 -->
<g id="edge53" class="edge">
<title>Node31&#45;&gt;Node45</title>
<path fill="none" stroke="#191970" d="M379.7991,-410.4936C386.2962,-407.8954 392.5526,-404.6226 398,-400.5 422.4943,-381.9626 409.6734,-360.2569 434,-341.5 436.0732,-339.9015 438.2794,-338.437 440.5786,-337.0954"/>
<polygon fill="#191970" stroke="#191970" points="442.4223,-340.0877 449.823,-332.5062 439.3097,-333.8178 442.4223,-340.0877"/>
</g>
<!-- Node46 -->
<g id="node46" class="node">
<title>Node46</title>
<g id="a_node46"><a xlink:href="../../d9/d3f/mongoose_8cc.html#a2e8c5d40a60cac84806d99ec4294b920" target="_top" xlink:title="mg_write_to_socket">
<polygon fill="none" stroke="#ff0000" points="439.5,-390.5 439.5,-410.5 555.5,-410.5 555.5,-390.5 439.5,-390.5"/>
<text text-anchor="middle" x="497.5" y="-397.5" font-family="FreeSans" font-size="10.00" fill="#000000">mg_write_to_socket</text>
</a>
</g>
</g>
<!-- Node31&#45;&gt;Node46 -->
<g id="edge55" class="edge">
<title>Node31&#45;&gt;Node46</title>
<path fill="none" stroke="#191970" d="M390.1741,-413.0527C402.9116,-411.563 416.3417,-409.9922 429.2273,-408.4851"/>
<polygon fill="#191970" stroke="#191970" points="429.8951,-411.931 439.4208,-407.2929 429.0819,-404.9783 429.8951,-411.931"/>
</g>
<!-- Node33&#45;&gt;Node2 -->
<g id="edge35" class="edge">
<title>Node33&#45;&gt;Node2</title>
<path fill="none" stroke="#191970" d="M512.1585,-449.6783C541.5361,-470.077 607.812,-516.0964 643.016,-540.5408"/>
<polygon fill="#191970" stroke="#191970" points="641.0451,-543.4333 651.2554,-546.2619 645.0376,-537.6835 641.0451,-543.4333"/>
</g>
<!-- Node34 -->
<g id="node34" class="node">
<title>Node34</title>
<g id="a_node34"><a xlink:href="../../d9/d3f/mongoose_8cc.html#a5a65e3a3235b6ab764af7f5090233c52" target="_top" xlink:title="mg_if_accept_new_conn">
<polygon fill="none" stroke="#ff0000" points="597,-351.5 597,-371.5 735,-371.5 735,-351.5 597,-351.5"/>
<text text-anchor="middle" x="666" y="-358.5" font-family="FreeSans" font-size="10.00" fill="#000000">mg_if_accept_new_conn</text>
</a>
</g>
</g>
<!-- Node33&#45;&gt;Node34 -->
<g id="edge36" class="edge">
<title>Node33&#45;&gt;Node34</title>
<path fill="none" stroke="#191970" d="M540.203,-429.4334C547.4395,-426.794 554.6558,-423.5241 561,-419.5 580.9199,-406.865 576.8533,-392.7701 597,-380.5 600.157,-378.5773 603.5121,-376.8448 606.9766,-375.2844"/>
<polygon fill="#191970" stroke="#191970" points="608.354,-378.5032 616.342,-371.5431 605.7571,-372.0026 608.354,-378.5032"/>
</g>
<!-- Node35 -->
<g id="node35" class="node">
<title>Node35</title>
<g id="a_node35"><a xlink:href="../../d9/d3f/mongoose_8cc.html#a34951229fad1d145805f5bb7a29ace67" target="_top" xlink:title="mg_if_accept_tcp_cb">
<polygon fill="none" stroke="#000000" points="605.5,-429.5 605.5,-449.5 726.5,-449.5 726.5,-429.5 605.5,-429.5"/>
<text text-anchor="middle" x="666" y="-436.5" font-family="FreeSans" font-size="10.00" fill="#000000">mg_if_accept_tcp_cb</text>
</a>
</g>
</g>
<!-- Node33&#45;&gt;Node35 -->
<g id="edge37" class="edge">
<title>Node33&#45;&gt;Node35</title>
<path fill="none" stroke="#191970" d="M548.0556,-439.5C562.8463,-439.5 579.2959,-439.5 595.1021,-439.5"/>
<polygon fill="#191970" stroke="#191970" points="595.3723,-443.0001 605.3722,-439.5 595.3722,-436.0001 595.3723,-443.0001"/>
</g>
<!-- Node36 -->
<g id="node36" class="node">
<title>Node36</title>
<g id="a_node36"><a xlink:href="../../d9/d3f/mongoose_8cc.html#a69dd6a141c2cf330e37f0d36313c0cfc" target="_top" xlink:title="mg_is_error">
<polygon fill="none" stroke="#000000" points="628.5,-312.5 628.5,-332.5 703.5,-332.5 703.5,-312.5 628.5,-312.5"/>
<text text-anchor="middle" x="666" y="-319.5" font-family="FreeSans" font-size="10.00" fill="#000000">mg_is_error</text>
</a>
</g>
</g>
<!-- Node33&#45;&gt;Node36 -->
<g id="edge39" class="edge">
<title>Node33&#45;&gt;Node36</title>
<path fill="none" stroke="#191970" d="M544.9646,-429.4968C550.7809,-426.8977 556.3149,-423.6237 561,-419.5 589.6603,-394.2737 567.8851,-366.2002 597,-341.5 603.2644,-336.1855 610.8956,-332.3487 618.7696,-329.5809"/>
<polygon fill="#191970" stroke="#191970" points="619.8339,-332.916 628.4191,-326.7075 617.8361,-326.2071 619.8339,-332.916"/>
</g>
<!-- Node37 -->
<g id="node37" class="node">
<title>Node37</title>
<g id="a_node37"><a xlink:href="../../d9/d3f/mongoose_8cc.html#a7a6908590e9ee9cda54780133d1645c1" target="_top" xlink:title="mg_sock_set">
<polygon fill="none" stroke="#ff0000" points="625.5,-390.5 625.5,-410.5 706.5,-410.5 706.5,-390.5 625.5,-390.5"/>
<text text-anchor="middle" x="666" y="-397.5" font-family="FreeSans" font-size="10.00" fill="#000000">mg_sock_set</text>
</a>
</g>
</g>
<!-- Node33&#45;&gt;Node37 -->
<g id="edge40" class="edge">
<title>Node33&#45;&gt;Node37</title>
<path fill="none" stroke="#191970" d="M540.8929,-429.4565C563.6738,-424.1838 591.7133,-417.694 615.4692,-412.1956"/>
<polygon fill="#191970" stroke="#191970" points="616.407,-415.5711 625.3602,-409.9062 614.8285,-408.7514 616.407,-415.5711"/>
</g>
<!-- Node35&#45;&gt;Node3 -->
<g id="edge38" class="edge">
<title>Node35&#45;&gt;Node3</title>
<path fill="none" stroke="#191970" d="M726.8936,-439.5C746.5354,-439.5 767.7416,-439.5 785.2679,-439.5"/>
<polygon fill="#191970" stroke="#191970" points="785.6581,-443.0001 795.6581,-439.5 785.658,-436.0001 785.6581,-443.0001"/>
</g>
<!-- Node39 -->
<g id="node39" class="node">
<title>Node39</title>
<g id="a_node39"><a xlink:href="../../d9/d3f/mongoose_8cc.html#a3b7cf668d0412cd37c5bba8ba5938ee0" target="_top" xlink:title="mg_if_recv_udp_cb">
<polygon fill="none" stroke="#ff0000" points="610,-195.5 610,-215.5 722,-215.5 722,-195.5 610,-195.5"/>
<text text-anchor="middle" x="666" y="-202.5" font-family="FreeSans" font-size="10.00" fill="#000000">mg_if_recv_udp_cb</text>
</a>
</g>
</g>
<!-- Node38&#45;&gt;Node39 -->
<g id="edge42" class="edge">
<title>Node38&#45;&gt;Node39</title>
<path fill="none" stroke="#191970" d="M540.8929,-234.4565C562.8077,-229.3843 589.5887,-223.1857 612.7414,-217.8269"/>
<polygon fill="#191970" stroke="#191970" points="613.8009,-221.1743 622.7541,-215.5094 612.2224,-214.3546 613.8009,-221.1743"/>
</g>
<!-- Node41 -->
<g id="node41" class="node">
<title>Node41</title>
<g id="a_node41"><a xlink:href="../../d9/d3f/mongoose_8cc.html#a2d471a9e620674ece9f43e802d4bb3cb" target="_top" xlink:title="mg_recvfrom">
<polygon fill="none" stroke="#000000" points="625,-234.5 625,-254.5 707,-254.5 707,-234.5 625,-234.5"/>
<text text-anchor="middle" x="666" y="-241.5" font-family="FreeSans" font-size="10.00" fill="#000000">mg_recvfrom</text>
</a>
</g>
</g>
<!-- Node38&#45;&gt;Node41 -->
<g id="edge46" class="edge">
<title>Node38&#45;&gt;Node41</title>
<path fill="none" stroke="#191970" d="M559.7644,-244.5C577.7759,-244.5 597.2288,-244.5 614.5052,-244.5"/>
<polygon fill="#191970" stroke="#191970" points="614.9487,-248.0001 624.9486,-244.5 614.9486,-241.0001 614.9487,-248.0001"/>
</g>
<!-- Node39&#45;&gt;Node3 -->
<g id="edge43" class="edge">
<title>Node39&#45;&gt;Node3</title>
<path fill="none" stroke="#191970" d="M721.1631,-215.5545C726.1812,-217.9376 730.9061,-220.8767 735,-224.5 794.6558,-277.2995 814.9295,-376.4758 821.0872,-419.1383"/>
<polygon fill="#191970" stroke="#191970" points="817.6305,-419.6966 822.4178,-429.1482 824.5695,-418.7741 817.6305,-419.6966"/>
</g>
<!-- Node39&#45;&gt;Node21 -->
<g id="edge44" class="edge">
<title>Node39&#45;&gt;Node21</title>
<path fill="none" stroke="#191970" d="M722.1059,-205.5C781.9654,-205.5 876.0055,-205.5 934.1723,-205.5"/>
<polygon fill="#191970" stroke="#191970" points="934.2464,-209.0001 944.2464,-205.5 934.2464,-202.0001 934.2464,-209.0001"/>
</g>
<!-- Node40 -->
<g id="node40" class="node">
<title>Node40</title>
<g id="a_node40"><a xlink:href="../../d9/d3f/mongoose_8cc.html#a023ded1c332cffc6af40aba0ad405c80" target="_top" xlink:title="mg_next">
<polygon fill="none" stroke="#000000" points="793.5,-156.5 793.5,-176.5 853.5,-176.5 853.5,-156.5 793.5,-156.5"/>
<text text-anchor="middle" x="823.5" y="-163.5" font-family="FreeSans" font-size="10.00" fill="#000000">mg_next</text>
</a>
</g>
</g>
<!-- Node39&#45;&gt;Node40 -->
<g id="edge45" class="edge">
<title>Node39&#45;&gt;Node40</title>
<path fill="none" stroke="#191970" d="M706.5602,-195.4565C730.0613,-189.6372 759.5496,-182.3353 783.0346,-176.52"/>
<polygon fill="#191970" stroke="#191970" points="784.1619,-179.8467 793.0274,-174.0456 782.4793,-173.0519 784.1619,-179.8467"/>
</g>
<!-- Node42&#45;&gt;Node3 -->
<g id="edge48" class="edge">
<title>Node42&#45;&gt;Node3</title>
<path fill="none" stroke="#191970" d="M706.5602,-468.4565C731.1237,-462.3741 762.228,-454.6721 786.1817,-448.7407"/>
<polygon fill="#191970" stroke="#191970" points="787.1043,-452.118 795.9699,-446.317 785.4218,-445.3233 787.1043,-452.118"/>
</g>
<!-- Node43&#45;&gt;Node3 -->
<g id="edge50" class="edge">
<title>Node43&#45;&gt;Node3</title>
<path fill="none" stroke="#191970" d="M531.3742,-277.3743C580.1406,-270.3994 671.2603,-264.419 735,-302.5 779.7931,-329.2614 805.9556,-388.4811 817.0998,-419.5648"/>
<polygon fill="#191970" stroke="#191970" points="813.8762,-420.9553 820.4213,-429.2867 820.5003,-418.6922 813.8762,-420.9553"/>
</g>
<!-- Node44&#45;&gt;Node3 -->
<g id="edge52" class="edge">
<title>Node44&#45;&gt;Node3</title>
<path fill="none" stroke="#191970" d="M535.699,-519.9474C583.6343,-521.7548 667.7171,-520.7022 735,-497.5 761.1761,-488.4733 787.2076,-469.9699 804.1907,-456.2783"/>
<polygon fill="#191970" stroke="#191970" points="806.739,-458.7118 812.1998,-449.6327 802.269,-453.3248 806.739,-458.7118"/>
</g>
<!-- Node45&#45;&gt;Node36 -->
<g id="edge54" class="edge">
<title>Node45&#45;&gt;Node36</title>
<path fill="none" stroke="#191970" d="M561.2026,-322.5C580.0558,-322.5 600.371,-322.5 618.0497,-322.5"/>
<polygon fill="#191970" stroke="#191970" points="618.123,-326.0001 628.123,-322.5 618.1229,-319.0001 618.123,-326.0001"/>
</g>
<!-- Node46&#45;&gt;Node36 -->
<g id="edge56" class="edge">
<title>Node46&#45;&gt;Node36</title>
<path fill="none" stroke="#191970" d="M540.203,-390.4334C547.4395,-387.794 554.6558,-384.5241 561,-380.5 580.9199,-367.865 576.8533,-353.7701 597,-341.5 603.5669,-337.5005 610.9909,-334.3244 618.4738,-331.8072"/>
<polygon fill="#191970" stroke="#191970" points="619.7064,-335.0916 628.2778,-328.864 617.6937,-328.3872 619.7064,-335.0916"/>
</g>
<!-- Node47&#45;&gt;Node40 -->
<g id="edge58" class="edge">
<title>Node47&#45;&gt;Node40</title>
<path fill="none" stroke="#191970" d="M384.2042,-371.385C389.2983,-368.7851 394.0215,-365.5419 398,-361.5 442.1639,-316.6334 388.9939,-268.5216 434,-224.5 529.0689,-131.5107 704.5402,-146.3477 783.3421,-158.8383"/>
<polygon fill="#191970" stroke="#191970" points="782.9182,-162.3157 793.3557,-160.4966 784.0619,-155.4097 782.9182,-162.3157"/>
</g>
<!-- Node49 -->
<g id="node49" class="node">
<title>Node49</title>
<g id="a_node49"><a xlink:href="../../d9/d3f/mongoose_8cc.html#a3e6050027ad3bf282c3eff9491fe46c0" target="_top" xlink:title="cs_time">
<polygon fill="none" stroke="#ff0000" points="470,-604.5 470,-624.5 525,-624.5 525,-604.5 470,-604.5"/>
<text text-anchor="middle" x="497.5" y="-611.5" font-family="FreeSans" font-size="10.00" fill="#000000">cs_time</text>
</a>
</g>
</g>
<!-- Node48&#45;&gt;Node49 -->
<g id="edge60" class="edge">
<title>Node48&#45;&gt;Node49</title>
<path fill="none" stroke="#191970" d="M356.6777,-614.5C385.4493,-614.5 428.8681,-614.5 459.8818,-614.5"/>
<polygon fill="#191970" stroke="#191970" points="459.8849,-618.0001 469.8849,-614.5 459.8849,-611.0001 459.8849,-618.0001"/>
</g>
</g>
</svg>
