<?xml version="1.0" encoding="UTF-8" standalone="no"?>
<!DOCTYPE svg PUBLIC "-//W3C//DTD SVG 1.1//EN"
 "http://www.w3.org/Graphics/SVG/1.1/DTD/svg11.dtd">
<!-- Generated by graphviz version 2.40.1 (20161225.0304)
 -->
<!-- Title: Jetscape::JetScapeTask::InitTask Pages: 1 -->
<svg width="328pt" height="92pt"
 viewBox="0.00 0.00 328.00 92.00" xmlns="http://www.w3.org/2000/svg" xmlns:xlink="http://www.w3.org/1999/xlink">
<g id="graph0" class="graph" transform="scale(1 1) rotate(0) translate(4 88)">
<title>Jetscape::JetScapeTask::InitTask</title>
<!-- Node1 -->
<g id="node1" class="node">
<title>Node1</title>
<polygon fill="#bfbfbf" stroke="#000000" points="0,-25.5 0,-57.5 133,-57.5 133,-25.5 0,-25.5"/>
<text text-anchor="start" x="8" y="-44.5" font-family="FreeSans" font-size="10.00" fill="#000000">Jetscape::JetScapeTask</text>
<text text-anchor="middle" x="66.5" y="-32.5" font-family="FreeSans" font-size="10.00" fill="#000000">::InitTask</text>
</g>
<!-- Node2 -->
<g id="node2" class="node">
<title>Node2</title>
<g id="a_node2"><a xlink:href="../../da/d0e/classJetscape_1_1SoftParticlization.html#aa3a6434743b91d20558e5afe92c3fee5" target="_top" xlink:title="Jetscape::SoftParticlization\l::Init">
<polygon fill="none" stroke="#000000" points="169,-51.5 169,-83.5 320,-83.5 320,-51.5 169,-51.5"/>
<text text-anchor="start" x="177" y="-70.5" font-family="FreeSans" font-size="10.00" fill="#000000">Jetscape::SoftParticlization</text>
<text text-anchor="middle" x="244.5" y="-58.5" font-family="FreeSans" font-size="10.00" fill="#000000">::Init</text>
</a>
</g>
</g>
<!-- Node1&#45;&gt;Node2 -->
<g id="edge1" class="edge">
<title>Node1&#45;&gt;Node2</title>
<path fill="none" stroke="#191970" d="M142.9763,-52.6707C151.5239,-53.9192 160.2288,-55.1907 168.767,-56.4379"/>
<polygon fill="#191970" stroke="#191970" points="143.4347,-49.2006 133.0338,-51.2184 142.4229,-56.1271 143.4347,-49.2006"/>
</g>
<!-- Node3 -->
<g id="node3" class="node">
<title>Node3</title>
<g id="a_node3"><a xlink:href="../../d7/d05/classJetscape_1_1InitialState.html#a2b82c457bc93218efa9daae0eb503cd7" target="_top" xlink:title="Jetscape::InitialState\l::Init">
<polygon fill="none" stroke="#000000" points="184,-.5 184,-32.5 305,-32.5 305,-.5 184,-.5"/>
<text text-anchor="start" x="192" y="-19.5" font-family="FreeSans" font-size="10.00" fill="#000000">Jetscape::InitialState</text>
<text text-anchor="middle" x="244.5" y="-7.5" font-family="FreeSans" font-size="10.00" fill="#000000">::Init</text>
</a>
</g>
</g>
<!-- Node1&#45;&gt;Node3 -->
<g id="edge2" class="edge">
<title>Node1&#45;&gt;Node3</title>
<path fill="none" stroke="#191970" d="M143.3212,-30.7105C156.9004,-28.8033 170.8651,-26.842 183.9186,-25.0086"/>
<polygon fill="#191970" stroke="#191970" points="142.4497,-27.2985 133.0338,-32.1554 143.4234,-34.2304 142.4497,-27.2985"/>
</g>
</g>
</svg>
