<?xml version="1.0" encoding="UTF-8" standalone="no"?>
<!DOCTYPE svg PUBLIC "-//W3C//DTD SVG 1.1//EN"
 "http://www.w3.org/Graphics/SVG/1.1/DTD/svg11.dtd">
<!-- Generated by graphviz version 2.40.1 (20161225.0304)
 -->
<!-- Title: SColdQcdCorrelatorAnalysis::SCheckTrackPairs::SaveOutput Pages: 1 -->
<svg width="265pt" height="68pt"
 viewBox="0.00 0.00 265.00 68.00" xmlns="http://www.w3.org/2000/svg" xmlns:xlink="http://www.w3.org/1999/xlink">
<g id="graph0" class="graph" transform="scale(1 1) rotate(0) translate(4 64)">
<title>SColdQcdCorrelatorAnalysis::SCheckTrackPairs::SaveOutput</title>
<!-- Node1 -->
<g id="node1" class="node">
<title>Node1</title>
<polygon fill="#bfbfbf" stroke="#000000" points="0,-13.5 0,-45.5 178,-45.5 178,-13.5 0,-13.5"/>
<text text-anchor="start" x="8" y="-32.5" font-family="FreeSans" font-size="10.00" fill="#000000">SColdQcdCorrelatorAnalysis</text>
<text text-anchor="middle" x="89" y="-20.5" font-family="FreeSans" font-size="10.00" fill="#000000">::SCheckTrackPairs::SaveOutput</text>
</g>
<!-- Node2 -->
<g id="node2" class="node">
<title>Node2</title>
<g id="a_node2"><a xlink:href="../../dc/df6/200pp__pythia8__CTEQ6L__7GeV__ALL_8cfg__eneg__DSTReader_8root__Draw__HFJetTruth__CrossSection2RAA_8C.html#ac5741edfd477362a8a413aa18db80bf4" target="_top" xlink:title="cd">
<polygon fill="none" stroke="#000000" points="221,-39.5 221,-59.5 250,-59.5 250,-39.5 221,-39.5"/>
<text text-anchor="middle" x="235.5" y="-46.5" font-family="FreeSans" font-size="10.00" fill="#000000">cd</text>
</a>
</g>
</g>
<!-- Node1&#45;&gt;Node2 -->
<g id="edge1" class="edge">
<title>Node1&#45;&gt;Node2</title>
<path fill="none" stroke="#191970" d="M178.0198,-41.6529C189.9057,-43.2755 201.21,-44.8188 210.5991,-46.1006"/>
<polygon fill="#191970" stroke="#191970" points="210.2799,-49.5894 220.6614,-47.4743 211.2268,-42.6537 210.2799,-49.5894"/>
</g>
<!-- Node3 -->
<g id="node3" class="node">
<title>Node3</title>
<g id="a_node3"><a xlink:href="../../d4/dc5/CalcDecile__RhoFluct_8cc.html#a8b20930e3533641ef7e969a15627baaf" target="_top" xlink:title="Write">
<polygon fill="none" stroke="#000000" points="214,-.5 214,-20.5 257,-20.5 257,-.5 214,-.5"/>
<text text-anchor="middle" x="235.5" y="-7.5" font-family="FreeSans" font-size="10.00" fill="#000000">Write</text>
</a>
</g>
</g>
<!-- Node1&#45;&gt;Node3 -->
<g id="edge2" class="edge">
<title>Node1&#45;&gt;Node3</title>
<path fill="none" stroke="#191970" d="M178.0198,-17.9548C187.1645,-16.7688 195.9649,-15.6274 203.8138,-14.6095"/>
<polygon fill="#191970" stroke="#191970" points="204.4031,-18.0624 213.8699,-13.3053 203.5027,-11.1206 204.4031,-18.0624"/>
</g>
</g>
</svg>
