<?xml version="1.0" encoding="UTF-8" standalone="no"?>
<!DOCTYPE svg PUBLIC "-//W3C//DTD SVG 1.1//EN"
 "http://www.w3.org/Graphics/SVG/1.1/DTD/svg11.dtd">
<!-- Generated by graphviz version 2.40.1 (20161225.0304)
 -->
<!-- Title: acts/blob/sPHENIX/Examples/Io/Csv/include/ActsExamples/Io/Csv/CsvSpacePointReader.hpp Pages: 1 -->
<svg width="3278pt" height="512pt"
 viewBox="0.00 0.00 3278.13 512.00" xmlns="http://www.w3.org/2000/svg" xmlns:xlink="http://www.w3.org/1999/xlink">
<g id="graph0" class="graph" transform="scale(1 1) rotate(0) translate(4 508)">
<title>acts/blob/sPHENIX/Examples/Io/Csv/include/ActsExamples/Io/Csv/CsvSpacePointReader.hpp</title>
<!-- Node1 -->
<g id="node1" class="node">
<title>Node1</title>
<polygon fill="#bfbfbf" stroke="#000000" points="2241.1301,-459.5 2241.1301,-503.5 2427.1301,-503.5 2427.1301,-459.5 2241.1301,-459.5"/>
<text text-anchor="start" x="2249.1301" y="-490.5" font-family="FreeSans" font-size="10.00" fill="#000000">acts/blob/sPHENIX/Examples</text>
<text text-anchor="start" x="2249.1301" y="-478.5" font-family="FreeSans" font-size="10.00" fill="#000000">/Io/Csv/include/ActsExamples</text>
<text text-anchor="middle" x="2334.1301" y="-466.5" font-family="FreeSans" font-size="10.00" fill="#000000">/Io/Csv/CsvSpacePointReader.hpp</text>
</g>
<!-- Node2 -->
<g id="node2" class="node">
<title>Node2</title>
<g id="a_node2"><a xlink:href="../../d5/d67/GeometryIdentifier_8hpp.html" target="_top" xlink:title="Acts/Geometry/GeometryIdentifier.hpp">
<polygon fill="none" stroke="#000000" points="663.6301,-120.5 663.6301,-140.5 876.6301,-140.5 876.6301,-120.5 663.6301,-120.5"/>
<text text-anchor="middle" x="770.1301" y="-127.5" font-family="FreeSans" font-size="10.00" fill="#000000">Acts/Geometry/GeometryIdentifier.hpp</text>
</a>
</g>
</g>
<!-- Node1&#45;&gt;Node2 -->
<g id="edge1" class="edge">
<title>Node1&#45;&gt;Node2</title>
<path fill="none" stroke="#191970" d="M2241.0293,-479.1121C1988.2557,-472.2867 1301.4904,-451.3468 1203.1301,-423 1017.4365,-369.4844 840.9612,-202.4966 786.9422,-147.9379"/>
<polygon fill="#191970" stroke="#191970" points="789.375,-145.4199 779.8742,-140.731 784.3772,-150.3212 789.375,-145.4199"/>
</g>
<!-- Node6 -->
<g id="node6" class="node">
<title>Node6</title>
<polygon fill="none" stroke="#bfbfbf" points="1187.6301,-57.5 1187.6301,-77.5 1232.6301,-77.5 1232.6301,-57.5 1187.6301,-57.5"/>
<text text-anchor="middle" x="1210.1301" y="-64.5" font-family="FreeSans" font-size="10.00" fill="#000000">utility</text>
</g>
<!-- Node1&#45;&gt;Node6 -->
<g id="edge123" class="edge">
<title>Node1&#45;&gt;Node6</title>
<path fill="none" stroke="#191970" d="M2240.7922,-472.6602C2153.6384,-463.4832 2020.2384,-447.0704 1906.1301,-423 1760.45,-392.2698 1215.8329,-234.3714 1202.1301,-216 1173.8228,-178.0483 1190.1748,-118.2697 1201.7302,-87.4082"/>
<polygon fill="#191970" stroke="#191970" points="1205.1144,-88.3678 1205.5363,-77.7813 1198.6047,-85.794 1205.1144,-88.3678"/>
</g>
<!-- Node7 -->
<g id="node7" class="node">
<title>Node7</title>
<g id="a_node7"><a xlink:href="../../d9/d11/Logger_8hpp.html" target="_top" xlink:title="Acts/Utilities/Logger.hpp">
<polygon fill="none" stroke="#000000" points="2264.1301,-120.5 2264.1301,-140.5 2404.1301,-140.5 2404.1301,-120.5 2264.1301,-120.5"/>
<text text-anchor="middle" x="2334.1301" y="-127.5" font-family="FreeSans" font-size="10.00" fill="#000000">Acts/Utilities/Logger.hpp</text>
</a>
</g>
</g>
<!-- Node1&#45;&gt;Node7 -->
<g id="edge6" class="edge">
<title>Node1&#45;&gt;Node7</title>
<path fill="none" stroke="#191970" d="M2334.1301,-459.0516C2334.1301,-430.7227 2334.1301,-380.5 2334.1301,-337.5 2334.1301,-337.5 2334.1301,-337.5 2334.1301,-268.5 2334.1301,-226.5729 2334.1301,-177.4806 2334.1301,-150.6117"/>
<polygon fill="#191970" stroke="#191970" points="2337.6302,-150.5428 2334.1301,-140.5428 2330.6302,-150.5429 2337.6302,-150.5428"/>
</g>
<!-- Node13 -->
<g id="node13" class="node">
<title>Node13</title>
<polygon fill="none" stroke="#bfbfbf" points="1358.1301,-57.5 1358.1301,-77.5 1416.1301,-77.5 1416.1301,-57.5 1358.1301,-57.5"/>
<text text-anchor="middle" x="1387.1301" y="-64.5" font-family="FreeSans" font-size="10.00" fill="#000000">memory</text>
</g>
<!-- Node1&#45;&gt;Node13 -->
<g id="edge121" class="edge">
<title>Node1&#45;&gt;Node13</title>
<path fill="none" stroke="#191970" d="M2240.7556,-464.2536C2037.6604,-425.0939 1564.4898,-324.4144 1446.1301,-216 1408.4335,-181.471 1394.4362,-119.7077 1389.5518,-87.8084"/>
<polygon fill="#191970" stroke="#191970" points="1393.0138,-87.2922 1388.1803,-77.8642 1386.0795,-88.2487 1393.0138,-87.2922"/>
</g>
<!-- Node17 -->
<g id="node17" class="node">
<title>Node17</title>
<polygon fill="none" stroke="#bfbfbf" points="2515.6301,-.5 2515.6301,-20.5 2560.6301,-20.5 2560.6301,-.5 2515.6301,-.5"/>
<text text-anchor="middle" x="2538.1301" y="-7.5" font-family="FreeSans" font-size="10.00" fill="#000000">string</text>
</g>
<!-- Node1&#45;&gt;Node17 -->
<g id="edge122" class="edge">
<title>Node1&#45;&gt;Node17</title>
<path fill="none" stroke="#191970" d="M2427.4109,-475.825C2613.0852,-464.2867 3016.4218,-437.9229 3078.1301,-423 3168.9248,-401.0431 3270.1301,-430.9119 3270.1301,-337.5 3270.1301,-337.5 3270.1301,-337.5 3270.1301,-130.5 3270.1301,-51.436 3184.664,-76.8413 3108.1301,-57 3005.3388,-30.3515 2676.3713,-15.7713 2570.9611,-11.6968"/>
<polygon fill="#191970" stroke="#191970" points="2571.0358,-8.1972 2560.9099,-11.3141 2570.7695,-15.1922 2571.0358,-8.1972"/>
</g>
<!-- Node20 -->
<g id="node20" class="node">
<title>Node20</title>
<g id="a_node20"><a xlink:href="../../d2/d99/SimSpacePoint_8hpp.html" target="_top" xlink:title="ActsExamples/EventData\l/SimSpacePoint.hpp">
<polygon fill="none" stroke="#000000" points="730.1301,-390.5 730.1301,-422.5 874.1301,-422.5 874.1301,-390.5 730.1301,-390.5"/>
<text text-anchor="start" x="738.1301" y="-409.5" font-family="FreeSans" font-size="10.00" fill="#000000">ActsExamples/EventData</text>
<text text-anchor="middle" x="802.1301" y="-397.5" font-family="FreeSans" font-size="10.00" fill="#000000">/SimSpacePoint.hpp</text>
</a>
</g>
</g>
<!-- Node1&#45;&gt;Node20 -->
<g id="edge21" class="edge">
<title>Node1&#45;&gt;Node20</title>
<path fill="none" stroke="#191970" d="M2240.7552,-478.9689C2021.3315,-472.6899 1455.7828,-454.5814 984.1301,-423 951.4237,-420.81 915.4724,-417.7002 884.2228,-414.7697"/>
<polygon fill="#191970" stroke="#191970" points="884.5374,-411.2839 874.252,-413.8259 883.8777,-418.2527 884.5374,-411.2839"/>
</g>
<!-- Node27 -->
<g id="node27" class="node">
<title>Node27</title>
<polygon fill="none" stroke="#bfbfbf" points="1057.1301,-57.5 1057.1301,-77.5 1111.1301,-77.5 1111.1301,-57.5 1057.1301,-57.5"/>
<text text-anchor="middle" x="1084.1301" y="-64.5" font-family="FreeSans" font-size="10.00" fill="#000000">cstddef</text>
</g>
<!-- Node1&#45;&gt;Node27 -->
<g id="edge120" class="edge">
<title>Node1&#45;&gt;Node27</title>
<path fill="none" stroke="#191970" d="M2241.0135,-480.9777C1943.3456,-478.8591 1017.111,-468.6716 721.1301,-423 580.3031,-401.2696 412.1301,-479.9937 412.1301,-337.5 412.1301,-337.5 412.1301,-337.5 412.1301,-199.5 412.1301,-153.8297 429.7053,-137.0536 469.1301,-114 518.9212,-84.8847 920.5771,-71.8392 1046.5097,-68.4382"/>
<polygon fill="#191970" stroke="#191970" points="1046.899,-71.9292 1056.8027,-68.1653 1046.7134,-64.9317 1046.899,-71.9292"/>
</g>
<!-- Node41 -->
<g id="node41" class="node">
<title>Node41</title>
<polygon fill="none" stroke="#bfbfbf" points="2650.6301,-120.5 2650.6301,-140.5 2699.6301,-140.5 2699.6301,-120.5 2650.6301,-120.5"/>
<text text-anchor="middle" x="2675.1301" y="-127.5" font-family="FreeSans" font-size="10.00" fill="#000000">vector</text>
</g>
<!-- Node1&#45;&gt;Node41 -->
<g id="edge124" class="edge">
<title>Node1&#45;&gt;Node41</title>
<path fill="none" stroke="#191970" d="M2427.4033,-461.4922C2528.9724,-436.9467 2677.1301,-391.8309 2677.1301,-337.5 2677.1301,-337.5 2677.1301,-337.5 2677.1301,-268.5 2677.1301,-226.5685 2676.1955,-177.4778 2675.6041,-150.6104"/>
<polygon fill="#191970" stroke="#191970" points="2679.1016,-150.46 2675.3753,-140.5421 2672.1035,-150.6191 2679.1016,-150.46"/>
</g>
<!-- Node43 -->
<g id="node43" class="node">
<title>Node43</title>
<g id="a_node43"><a xlink:href="../../d3/d38/DataHandle_8hpp.html" target="_top" xlink:title="ActsExamples/Framework\l/DataHandle.hpp">
<polygon fill="none" stroke="#000000" points="2728.6301,-252.5 2728.6301,-284.5 2875.6301,-284.5 2875.6301,-252.5 2728.6301,-252.5"/>
<text text-anchor="start" x="2736.6301" y="-271.5" font-family="FreeSans" font-size="10.00" fill="#000000">ActsExamples/Framework</text>
<text text-anchor="middle" x="2802.1301" y="-259.5" font-family="FreeSans" font-size="10.00" fill="#000000">/DataHandle.hpp</text>
</a>
</g>
</g>
<!-- Node1&#45;&gt;Node43 -->
<g id="edge84" class="edge">
<title>Node1&#45;&gt;Node43</title>
<path fill="none" stroke="#191970" d="M2427.3792,-474.3193C2518.0389,-465.9146 2648.1632,-449.6463 2691.1301,-423 2741.0738,-392.027 2775.2148,-329.4699 2791.3925,-294.1977"/>
<polygon fill="#191970" stroke="#191970" points="2794.7923,-295.1661 2795.6562,-284.6065 2788.3958,-292.3226 2794.7923,-295.1661"/>
</g>
<!-- Node47 -->
<g id="node47" class="node">
<title>Node47</title>
<g id="a_node47"><a xlink:href="../../d1/d06/ProcessCode_8hpp.html" target="_top" xlink:title="ActsExamples/Framework\l/ProcessCode.hpp">
<polygon fill="none" stroke="#000000" points="3056.6301,-114.5 3056.6301,-146.5 3203.6301,-146.5 3203.6301,-114.5 3056.6301,-114.5"/>
<text text-anchor="start" x="3064.6301" y="-133.5" font-family="FreeSans" font-size="10.00" fill="#000000">ActsExamples/Framework</text>
<text text-anchor="middle" x="3130.1301" y="-121.5" font-family="FreeSans" font-size="10.00" fill="#000000">/ProcessCode.hpp</text>
</a>
</g>
</g>
<!-- Node1&#45;&gt;Node47 -->
<g id="edge119" class="edge">
<title>Node1&#45;&gt;Node47</title>
<path fill="none" stroke="#191970" d="M2427.2697,-476.2407C2656.9891,-462.0288 3232.1301,-418.3716 3232.1301,-337.5 3232.1301,-337.5 3232.1301,-337.5 3232.1301,-268.5 3232.1301,-220.163 3191.1598,-177.6651 3161.1511,-153.0204"/>
<polygon fill="#191970" stroke="#191970" points="3163.0256,-150.0393 3153.0209,-146.5528 3158.6678,-155.5174 3163.0256,-150.0393"/>
</g>
<!-- Node50 -->
<g id="node50" class="node">
<title>Node50</title>
<g id="a_node50"><a xlink:href="../../d0/d6e/IReader_8hpp.html" target="_top" xlink:title="ActsExamples/Framework\l/IReader.hpp">
<polygon fill="none" stroke="#000000" points="2937.6301,-252.5 2937.6301,-284.5 3084.6301,-284.5 3084.6301,-252.5 2937.6301,-252.5"/>
<text text-anchor="start" x="2945.6301" y="-271.5" font-family="FreeSans" font-size="10.00" fill="#000000">ActsExamples/Framework</text>
<text text-anchor="middle" x="3011.1301" y="-259.5" font-family="FreeSans" font-size="10.00" fill="#000000">/IReader.hpp</text>
</a>
</g>
</g>
<!-- Node1&#45;&gt;Node50 -->
<g id="edge113" class="edge">
<title>Node1&#45;&gt;Node50</title>
<path fill="none" stroke="#191970" d="M2427.2335,-476.561C2507.587,-470.1881 2625.877,-455.7088 2724.1301,-423 2823.1009,-390.0523 2928.348,-324.4467 2979.5173,-290.2977"/>
<polygon fill="#191970" stroke="#191970" points="2981.4978,-293.1837 2987.8433,-284.6993 2977.5919,-287.3748 2981.4978,-293.1837"/>
</g>
<!-- Node3 -->
<g id="node3" class="node">
<title>Node3</title>
<polygon fill="none" stroke="#bfbfbf" points="17.6301,-57.5 17.6301,-77.5 68.6301,-77.5 68.6301,-57.5 17.6301,-57.5"/>
<text text-anchor="middle" x="43.1301" y="-64.5" font-family="FreeSans" font-size="10.00" fill="#000000">cstdint</text>
</g>
<!-- Node2&#45;&gt;Node3 -->
<g id="edge2" class="edge">
<title>Node2&#45;&gt;Node3</title>
<path fill="none" stroke="#191970" d="M706.0603,-120.4879C689.4992,-118.1251 671.6747,-115.7791 655.1301,-114 433.1689,-90.1323 376.6019,-96.5129 154.1301,-78 128.9323,-75.9032 100.5492,-73.2124 78.7919,-71.0797"/>
<polygon fill="#191970" stroke="#191970" points="78.9816,-67.5816 68.6863,-70.0827 78.2943,-74.5477 78.9816,-67.5816"/>
</g>
<!-- Node4 -->
<g id="node4" class="node">
<title>Node4</title>
<polygon fill="none" stroke="#bfbfbf" points="504.1301,-.5 504.1301,-20.5 570.1301,-20.5 570.1301,-.5 504.1301,-.5"/>
<text text-anchor="middle" x="537.1301" y="-7.5" font-family="FreeSans" font-size="10.00" fill="#000000">functional</text>
</g>
<!-- Node2&#45;&gt;Node4 -->
<g id="edge3" class="edge">
<title>Node2&#45;&gt;Node4</title>
<path fill="none" stroke="#191970" d="M752.2377,-120.4712C726.3712,-106.0551 676.9349,-78.8105 634.1301,-57 612.2085,-45.8302 587.1607,-33.8421 568.0099,-24.836"/>
<polygon fill="#191970" stroke="#191970" points="569.3921,-21.6185 558.8518,-20.545 566.4221,-27.9572 569.3921,-21.6185"/>
</g>
<!-- Node5 -->
<g id="node5" class="node">
<title>Node5</title>
<polygon fill="none" stroke="#bfbfbf" points="577.1301,-57.5 577.1301,-77.5 625.1301,-77.5 625.1301,-57.5 577.1301,-57.5"/>
<text text-anchor="middle" x="601.1301" y="-64.5" font-family="FreeSans" font-size="10.00" fill="#000000">iosfwd</text>
</g>
<!-- Node2&#45;&gt;Node5 -->
<g id="edge4" class="edge">
<title>Node2&#45;&gt;Node5</title>
<path fill="none" stroke="#191970" d="M742.9773,-120.378C713.5938,-109.4243 666.6932,-91.9407 634.9405,-80.1039"/>
<polygon fill="#191970" stroke="#191970" points="635.7975,-76.6881 625.2048,-76.4746 633.3524,-83.2472 635.7975,-76.6881"/>
</g>
<!-- Node2&#45;&gt;Node6 -->
<g id="edge5" class="edge">
<title>Node2&#45;&gt;Node6</title>
<path fill="none" stroke="#191970" d="M840.0661,-120.4612C854.9412,-118.3273 870.555,-116.0883 885.1301,-114 991.8933,-98.7032 1118.3901,-80.6147 1177.1188,-72.2188"/>
<polygon fill="#191970" stroke="#191970" points="1177.8721,-75.6468 1187.2761,-70.7667 1176.8814,-68.7172 1177.8721,-75.6468"/>
</g>
<!-- Node7&#45;&gt;Node4 -->
<g id="edge10" class="edge">
<title>Node7&#45;&gt;Node4</title>
<path fill="none" stroke="#191970" d="M2289.8567,-120.4457C2278.2756,-118.0696 2265.773,-115.7277 2254.1301,-114 1979.0964,-73.1868 1908.5543,-75.576 1631.1301,-57 1223.1025,-29.679 728.3286,-15.4398 580.7039,-11.5886"/>
<polygon fill="#191970" stroke="#191970" points="580.3671,-8.0789 570.2799,-11.319 580.186,-15.0765 580.3671,-8.0789"/>
</g>
<!-- Node7&#45;&gt;Node6 -->
<g id="edge20" class="edge">
<title>Node7&#45;&gt;Node6</title>
<path fill="none" stroke="#191970" d="M2291.9948,-120.4641C2279.8416,-117.9362 2266.5174,-115.5135 2254.1301,-114 1854.5611,-65.1804 1751.0034,-101.1643 1349.1301,-78 1312.7099,-75.9007 1270.9855,-72.633 1242.8315,-70.3009"/>
<polygon fill="#191970" stroke="#191970" points="1243.0019,-66.803 1232.7449,-69.4572 1242.4184,-73.7786 1243.0019,-66.803"/>
</g>
<!-- Node8 -->
<g id="node8" class="node">
<title>Node8</title>
<polygon fill="none" stroke="#bfbfbf" points="416.6301,-57.5 416.6301,-77.5 469.6301,-77.5 469.6301,-57.5 416.6301,-57.5"/>
<text text-anchor="middle" x="443.1301" y="-64.5" font-family="FreeSans" font-size="10.00" fill="#000000">cassert</text>
</g>
<!-- Node7&#45;&gt;Node8 -->
<g id="edge7" class="edge">
<title>Node7&#45;&gt;Node8</title>
<path fill="none" stroke="#191970" d="M2292.8389,-120.4895C2280.4655,-117.8954 2266.8127,-115.4312 2254.1301,-114 1881.7417,-71.9764 942.3643,-97.694 568.1301,-78 538.4444,-76.4378 504.8776,-73.5563 480.0082,-71.2066"/>
<polygon fill="#191970" stroke="#191970" points="480.2079,-67.7098 469.9191,-70.2375 479.5386,-74.6777 480.2079,-67.7098"/>
</g>
<!-- Node9 -->
<g id="node9" class="node">
<title>Node9</title>
<polygon fill="none" stroke="#bfbfbf" points="2111.1301,-57.5 2111.1301,-77.5 2155.1301,-77.5 2155.1301,-57.5 2111.1301,-57.5"/>
<text text-anchor="middle" x="2133.1301" y="-64.5" font-family="FreeSans" font-size="10.00" fill="#000000">ctime</text>
</g>
<!-- Node7&#45;&gt;Node9 -->
<g id="edge8" class="edge">
<title>Node7&#45;&gt;Node9</title>
<path fill="none" stroke="#191970" d="M2300.4996,-120.4071C2268.1565,-110.6359 2217.6546,-95.2103 2165.2587,-78.3138"/>
<polygon fill="#191970" stroke="#191970" points="2166.049,-74.8909 2155.4572,-75.1428 2163.8943,-81.5511 2166.049,-74.8909"/>
</g>
<!-- Node10 -->
<g id="node10" class="node">
<title>Node10</title>
<polygon fill="none" stroke="#bfbfbf" points="2566.6301,-57.5 2566.6301,-77.5 2631.6301,-77.5 2631.6301,-57.5 2566.6301,-57.5"/>
<text text-anchor="middle" x="2599.1301" y="-64.5" font-family="FreeSans" font-size="10.00" fill="#000000">exception</text>
</g>
<!-- Node7&#45;&gt;Node10 -->
<g id="edge9" class="edge">
<title>Node7&#45;&gt;Node10</title>
<path fill="none" stroke="#191970" d="M2376.4132,-120.4478C2425.9015,-108.6827 2507.3661,-89.3156 2556.8522,-77.551"/>
<polygon fill="#191970" stroke="#191970" points="2557.6844,-80.9507 2566.6037,-75.2327 2556.0654,-74.1406 2557.6844,-80.9507"/>
</g>
<!-- Node11 -->
<g id="node11" class="node">
<title>Node11</title>
<polygon fill="none" stroke="#bfbfbf" points="2173.6301,-57.5 2173.6301,-77.5 2230.6301,-77.5 2230.6301,-57.5 2173.6301,-57.5"/>
<text text-anchor="middle" x="2202.1301" y="-64.5" font-family="FreeSans" font-size="10.00" fill="#000000">iomanip</text>
</g>
<!-- Node7&#45;&gt;Node11 -->
<g id="edge11" class="edge">
<title>Node7&#45;&gt;Node11</title>
<path fill="none" stroke="#191970" d="M2312.922,-120.378C2291.176,-109.9992 2257.1465,-93.7578 2232.537,-82.0124"/>
<polygon fill="#191970" stroke="#191970" points="2233.8179,-78.7456 2223.2855,-77.5969 2230.8028,-85.063 2233.8179,-78.7456"/>
</g>
<!-- Node12 -->
<g id="node12" class="node">
<title>Node12</title>
<polygon fill="none" stroke="#bfbfbf" points="2650.1301,-57.5 2650.1301,-77.5 2710.1301,-77.5 2710.1301,-57.5 2650.1301,-57.5"/>
<text text-anchor="middle" x="2680.1301" y="-64.5" font-family="FreeSans" font-size="10.00" fill="#000000">iostream</text>
</g>
<!-- Node7&#45;&gt;Node12 -->
<g id="edge12" class="edge">
<title>Node7&#45;&gt;Node12</title>
<path fill="none" stroke="#191970" d="M2383.8262,-120.4549C2395.0922,-118.2566 2407.0121,-115.9928 2418.1301,-114 2516.5176,-96.3646 2542.3442,-98.7131 2640.1301,-78 2640.2311,-77.9786 2640.3322,-77.9571 2640.4334,-77.9356"/>
<polygon fill="#191970" stroke="#191970" points="2641.1006,-81.3735 2650.063,-75.7232 2639.5332,-74.5513 2641.1006,-81.3735"/>
</g>
<!-- Node7&#45;&gt;Node13 -->
<g id="edge13" class="edge">
<title>Node7&#45;&gt;Node13</title>
<path fill="none" stroke="#191970" d="M2291.9912,-120.4932C2279.838,-117.9658 2266.5147,-115.536 2254.1301,-114 1891.4487,-69.0172 1791.2205,-134.2794 1426.4851,-77.8785"/>
<polygon fill="#191970" stroke="#191970" points="1426.8657,-74.3955 1416.4445,-76.3056 1425.7823,-81.3112 1426.8657,-74.3955"/>
</g>
<!-- Node14 -->
<g id="node14" class="node">
<title>Node14</title>
<polygon fill="none" stroke="#bfbfbf" points="2248.6301,-57.5 2248.6301,-77.5 2305.6301,-77.5 2305.6301,-57.5 2248.6301,-57.5"/>
<text text-anchor="middle" x="2277.1301" y="-64.5" font-family="FreeSans" font-size="10.00" fill="#000000">optional</text>
</g>
<!-- Node7&#45;&gt;Node14 -->
<g id="edge14" class="edge">
<title>Node7&#45;&gt;Node14</title>
<path fill="none" stroke="#191970" d="M2324.9721,-120.378C2316.4634,-110.9736 2303.5997,-96.7559 2293.3534,-85.431"/>
<polygon fill="#191970" stroke="#191970" points="2295.7593,-82.8734 2286.4548,-77.8062 2290.5685,-87.5698 2295.7593,-82.8734"/>
</g>
<!-- Node15 -->
<g id="node15" class="node">
<title>Node15</title>
<polygon fill="none" stroke="#bfbfbf" points="2454.1301,-57.5 2454.1301,-77.5 2510.1301,-77.5 2510.1301,-57.5 2454.1301,-57.5"/>
<text text-anchor="middle" x="2482.1301" y="-64.5" font-family="FreeSans" font-size="10.00" fill="#000000">sstream</text>
</g>
<!-- Node7&#45;&gt;Node15 -->
<g id="edge15" class="edge">
<title>Node7&#45;&gt;Node15</title>
<path fill="none" stroke="#191970" d="M2357.9089,-120.378C2382.6144,-109.8614 2421.4604,-93.3256 2449.1306,-81.5471"/>
<polygon fill="#191970" stroke="#191970" points="2450.5801,-84.734 2458.4103,-77.5969 2447.8384,-78.2933 2450.5801,-84.734"/>
</g>
<!-- Node16 -->
<g id="node16" class="node">
<title>Node16</title>
<polygon fill="none" stroke="#bfbfbf" points="2919.1301,-57.5 2919.1301,-77.5 2985.1301,-77.5 2985.1301,-57.5 2919.1301,-57.5"/>
<text text-anchor="middle" x="2952.1301" y="-64.5" font-family="FreeSans" font-size="10.00" fill="#000000">stdexcept</text>
</g>
<!-- Node7&#45;&gt;Node16 -->
<g id="edge16" class="edge">
<title>Node7&#45;&gt;Node16</title>
<path fill="none" stroke="#191970" d="M2404.4209,-123.3344C2533.1869,-110.2078 2803.3587,-82.666 2908.7354,-71.9237"/>
<polygon fill="#191970" stroke="#191970" points="2909.4034,-75.3739 2918.9968,-70.8777 2908.6934,-68.41 2909.4034,-75.3739"/>
</g>
<!-- Node7&#45;&gt;Node17 -->
<g id="edge17" class="edge">
<title>Node7&#45;&gt;Node17</title>
<path fill="none" stroke="#191970" d="M2333.7105,-120.3841C2333.6366,-104.5835 2335.9246,-74.0903 2353.1301,-57 2374.4278,-35.8449 2458.337,-21.3329 2505.4991,-14.6643"/>
<polygon fill="#191970" stroke="#191970" points="2506.0958,-18.1153 2515.5262,-13.2864 2505.1428,-11.1804 2506.0958,-18.1153"/>
</g>
<!-- Node18 -->
<g id="node18" class="node">
<title>Node18</title>
<polygon fill="none" stroke="#bfbfbf" points="2362.1301,-57.5 2362.1301,-77.5 2436.1301,-77.5 2436.1301,-57.5 2362.1301,-57.5"/>
<text text-anchor="middle" x="2399.1301" y="-64.5" font-family="FreeSans" font-size="10.00" fill="#000000">string_view</text>
</g>
<!-- Node7&#45;&gt;Node18 -->
<g id="edge18" class="edge">
<title>Node7&#45;&gt;Node18</title>
<path fill="none" stroke="#191970" d="M2344.5735,-120.378C2354.4647,-110.791 2369.5169,-96.202 2381.307,-84.7747"/>
<polygon fill="#191970" stroke="#191970" points="2383.7519,-87.2792 2388.4967,-77.8062 2378.8801,-82.2527 2383.7519,-87.2792"/>
</g>
<!-- Node19 -->
<g id="node19" class="node">
<title>Node19</title>
<polygon fill="none" stroke="#bfbfbf" points="2043.6301,-57.5 2043.6301,-77.5 2092.6301,-77.5 2092.6301,-57.5 2043.6301,-57.5"/>
<text text-anchor="middle" x="2068.1301" y="-64.5" font-family="FreeSans" font-size="10.00" fill="#000000">thread</text>
</g>
<!-- Node7&#45;&gt;Node19 -->
<g id="edge19" class="edge">
<title>Node7&#45;&gt;Node19</title>
<path fill="none" stroke="#191970" d="M2284.5293,-120.4314C2239.5808,-111.0477 2171.3379,-96.1575 2103.0252,-78.0941"/>
<polygon fill="#191970" stroke="#191970" points="2103.5128,-74.6018 2092.9486,-75.4062 2101.7087,-81.3653 2103.5128,-74.6018"/>
</g>
<!-- Node21 -->
<g id="node21" class="node">
<title>Node21</title>
<g id="a_node21"><a xlink:href="../../da/dd2/Algebra_8hpp.html" target="_top" xlink:title="Acts/Definitions/Algebra.hpp">
<polygon fill="none" stroke="#000000" points="1492.1301,-120.5 1492.1301,-140.5 1654.1301,-140.5 1654.1301,-120.5 1492.1301,-120.5"/>
<text text-anchor="middle" x="1573.1301" y="-127.5" font-family="FreeSans" font-size="10.00" fill="#000000">Acts/Definitions/Algebra.hpp</text>
</a>
</g>
</g>
<!-- Node20&#45;&gt;Node21 -->
<g id="edge22" class="edge">
<title>Node20&#45;&gt;Node21</title>
<path fill="none" stroke="#191970" d="M874.2594,-401.9754C1064.581,-388.3861 1572.6144,-340.876 1673.1301,-216 1682.3265,-204.5748 1680.7169,-195.5519 1673.1301,-183 1661.9292,-164.4688 1641.784,-152.156 1622.4952,-144.1451"/>
<polygon fill="#191970" stroke="#191970" points="1623.728,-140.8693 1613.138,-140.5496 1621.2172,-147.4035 1623.728,-140.8693"/>
</g>
<!-- Node24 -->
<g id="node24" class="node">
<title>Node24</title>
<g id="a_node24"><a xlink:href="../../d8/ddd/Common_8hpp.html" target="_top" xlink:title="Acts/Definitions/Common.hpp">
<polygon fill="none" stroke="#000000" points="478.1301,-120.5 478.1301,-140.5 646.1301,-140.5 646.1301,-120.5 478.1301,-120.5"/>
<text text-anchor="middle" x="562.1301" y="-127.5" font-family="FreeSans" font-size="10.00" fill="#000000">Acts/Definitions/Common.hpp</text>
</a>
</g>
</g>
<!-- Node20&#45;&gt;Node24 -->
<g id="edge25" class="edge">
<title>Node20&#45;&gt;Node24</title>
<path fill="none" stroke="#191970" d="M729.8096,-400.3148C659.3527,-392.9618 558.5427,-378.4953 528.1301,-354 465.5172,-303.5695 428.5953,-252.4301 469.1301,-183 479.6379,-165.0017 498.8481,-152.6872 517.0927,-144.5351"/>
<polygon fill="#191970" stroke="#191970" points="518.5932,-147.7021 526.4942,-140.6435 515.9159,-141.2343 518.5932,-147.7021"/>
</g>
<!-- Node25 -->
<g id="node25" class="node">
<title>Node25</title>
<g id="a_node25"><a xlink:href="../../d8/d6e/SourceLink_8hpp.html" target="_top" xlink:title="Acts/EventData/SourceLink.hpp">
<polygon fill="none" stroke="#000000" points="478.1301,-189.5 478.1301,-209.5 654.1301,-209.5 654.1301,-189.5 478.1301,-189.5"/>
<text text-anchor="middle" x="566.1301" y="-196.5" font-family="FreeSans" font-size="10.00" fill="#000000">Acts/EventData/SourceLink.hpp</text>
</a>
</g>
</g>
<!-- Node20&#45;&gt;Node25 -->
<g id="edge27" class="edge">
<title>Node20&#45;&gt;Node25</title>
<path fill="none" stroke="#191970" d="M729.81,-397.3322C686.8923,-389.8428 632.3991,-376.6585 588.1301,-354 546.0329,-332.4531 526.9567,-327.9343 507.1301,-285 500.9812,-271.6845 501.1253,-265.3811 507.1301,-252 513.926,-236.8559 527.4888,-224.2943 539.8985,-215.2593"/>
<polygon fill="#191970" stroke="#191970" points="541.9276,-218.112 548.2084,-209.5795 537.9776,-212.3329 541.9276,-218.112"/>
</g>
<!-- Node31 -->
<g id="node31" class="node">
<title>Node31</title>
<g id="a_node31"><a xlink:href="../../d1/d1a/Index_8hpp.html" target="_top" xlink:title="ActsExamples/EventData\l/Index.hpp">
<polygon fill="none" stroke="#000000" points="516.1301,-252.5 516.1301,-284.5 660.1301,-284.5 660.1301,-252.5 516.1301,-252.5"/>
<text text-anchor="start" x="524.1301" y="-271.5" font-family="FreeSans" font-size="10.00" fill="#000000">ActsExamples/EventData</text>
<text text-anchor="middle" x="588.1301" y="-259.5" font-family="FreeSans" font-size="10.00" fill="#000000">/Index.hpp</text>
</a>
</g>
</g>
<!-- Node20&#45;&gt;Node31 -->
<g id="edge48" class="edge">
<title>Node20&#45;&gt;Node31</title>
<path fill="none" stroke="#191970" d="M730.0322,-395.0962C681.8397,-386.0231 624.2464,-371.8923 607.1301,-354 592.1228,-338.3123 587.9452,-313.5291 587.1855,-294.6752"/>
<polygon fill="#191970" stroke="#191970" points="590.6849,-294.5999 587.0723,-284.64 583.6854,-294.6789 590.6849,-294.5999"/>
</g>
<!-- Node33 -->
<g id="node33" class="node">
<title>Node33</title>
<g id="a_node33"><a xlink:href="../../dc/d31/IndexSourceLink_8hpp.html" target="_top" xlink:title="ActsExamples/EventData\l/IndexSourceLink.hpp">
<polygon fill="none" stroke="#000000" points="616.1301,-321.5 616.1301,-353.5 760.1301,-353.5 760.1301,-321.5 616.1301,-321.5"/>
<text text-anchor="start" x="624.1301" y="-340.5" font-family="FreeSans" font-size="10.00" fill="#000000">ActsExamples/EventData</text>
<text text-anchor="middle" x="688.1301" y="-328.5" font-family="FreeSans" font-size="10.00" fill="#000000">/IndexSourceLink.hpp</text>
</a>
</g>
</g>
<!-- Node20&#45;&gt;Node33 -->
<g id="edge51" class="edge">
<title>Node20&#45;&gt;Node33</title>
<path fill="none" stroke="#191970" d="M775.6897,-390.4966C760.2613,-381.1584 740.5921,-369.2533 723.8059,-359.0932"/>
<polygon fill="#191970" stroke="#191970" points="725.1894,-355.8395 714.822,-353.6557 721.5647,-361.828 725.1894,-355.8395"/>
</g>
<!-- Node40 -->
<g id="node40" class="node">
<title>Node40</title>
<polygon fill="none" stroke="#bfbfbf" points="778.1301,-327.5 778.1301,-347.5 826.1301,-347.5 826.1301,-327.5 778.1301,-327.5"/>
<text text-anchor="middle" x="802.1301" y="-334.5" font-family="FreeSans" font-size="10.00" fill="#000000">cmath</text>
</g>
<!-- Node20&#45;&gt;Node40 -->
<g id="edge81" class="edge">
<title>Node20&#45;&gt;Node40</title>
<path fill="none" stroke="#191970" d="M802.1301,-390.4966C802.1301,-380.7901 802.1301,-368.3104 802.1301,-357.8996"/>
<polygon fill="#191970" stroke="#191970" points="805.6302,-357.6441 802.1301,-347.6441 798.6302,-357.6441 805.6302,-357.6441"/>
</g>
<!-- Node20&#45;&gt;Node41 -->
<g id="edge82" class="edge">
<title>Node20&#45;&gt;Node41</title>
<path fill="none" stroke="#191970" d="M874.4645,-402.2721C1100.4832,-388.116 1812.8329,-336.3279 2390.1301,-216 2500.8749,-192.9171 2528.2152,-183.9653 2635.1301,-147 2637.5529,-146.1623 2640.0405,-145.2548 2642.5326,-144.3109"/>
<polygon fill="#191970" stroke="#191970" points="2644.021,-147.4863 2652.0392,-140.5611 2641.4525,-140.9746 2644.021,-147.4863"/>
</g>
<!-- Node42 -->
<g id="node42" class="node">
<title>Node42</title>
<polygon fill="none" stroke="#bfbfbf" points="844.1301,-321.5 844.1301,-353.5 970.1301,-353.5 970.1301,-321.5 844.1301,-321.5"/>
<text text-anchor="start" x="852.1301" y="-340.5" font-family="FreeSans" font-size="10.00" fill="#000000">boost/container/static</text>
<text text-anchor="middle" x="907.1301" y="-328.5" font-family="FreeSans" font-size="10.00" fill="#000000">_vector.hpp</text>
</g>
<!-- Node20&#45;&gt;Node42 -->
<g id="edge83" class="edge">
<title>Node20&#45;&gt;Node42</title>
<path fill="none" stroke="#191970" d="M826.4831,-390.4966C840.5618,-381.2448 858.4747,-369.4736 873.8407,-359.3759"/>
<polygon fill="#191970" stroke="#191970" points="876.1105,-362.0724 882.5454,-353.6557 872.2662,-356.2225 876.1105,-362.0724"/>
</g>
<!-- Node22 -->
<g id="node22" class="node">
<title>Node22</title>
<polygon fill="none" stroke="#bfbfbf" points="1434.6301,-57.5 1434.6301,-77.5 1505.6301,-77.5 1505.6301,-57.5 1434.6301,-57.5"/>
<text text-anchor="middle" x="1470.1301" y="-64.5" font-family="FreeSans" font-size="10.00" fill="#000000">Eigen/Core</text>
</g>
<!-- Node21&#45;&gt;Node22 -->
<g id="edge23" class="edge">
<title>Node21&#45;&gt;Node22</title>
<path fill="none" stroke="#191970" d="M1556.5814,-120.378C1540.0634,-110.2747 1514.4627,-94.6161 1495.4014,-82.9572"/>
<polygon fill="#191970" stroke="#191970" points="1496.9948,-79.829 1486.6378,-77.5969 1493.3423,-85.8006 1496.9948,-79.829"/>
</g>
<!-- Node23 -->
<g id="node23" class="node">
<title>Node23</title>
<polygon fill="none" stroke="#bfbfbf" points="1524.1301,-57.5 1524.1301,-77.5 1622.1301,-77.5 1622.1301,-57.5 1524.1301,-57.5"/>
<text text-anchor="middle" x="1573.1301" y="-64.5" font-family="FreeSans" font-size="10.00" fill="#000000">Eigen/Geometry</text>
</g>
<!-- Node21&#45;&gt;Node23 -->
<g id="edge24" class="edge">
<title>Node21&#45;&gt;Node23</title>
<path fill="none" stroke="#191970" d="M1573.1301,-120.378C1573.1301,-111.7041 1573.1301,-98.9355 1573.1301,-88.1186"/>
<polygon fill="#191970" stroke="#191970" points="1576.6302,-87.8062 1573.1301,-77.8062 1569.6302,-87.8062 1576.6302,-87.8062"/>
</g>
<!-- Node24&#45;&gt;Node5 -->
<g id="edge26" class="edge">
<title>Node24&#45;&gt;Node5</title>
<path fill="none" stroke="#191970" d="M568.3961,-120.378C574.0483,-111.2476 582.5091,-97.5801 589.4129,-86.4278"/>
<polygon fill="#191970" stroke="#191970" points="592.4624,-88.1511 594.7501,-77.8062 586.5105,-84.4666 592.4624,-88.1511"/>
</g>
<!-- Node25&#45;&gt;Node2 -->
<g id="edge28" class="edge">
<title>Node25&#45;&gt;Node2</title>
<path fill="none" stroke="#191970" d="M595.7934,-189.4668C631.4488,-177.4069 691.4005,-157.1291 730.866,-143.7805"/>
<polygon fill="#191970" stroke="#191970" points="732.0796,-147.0649 740.4309,-140.5453 729.8367,-140.4339 732.0796,-147.0649"/>
</g>
<!-- Node25&#45;&gt;Node6 -->
<g id="edge47" class="edge">
<title>Node25&#45;&gt;Node6</title>
<path fill="none" stroke="#191970" d="M620.9176,-189.4928C634.6704,-187.1705 649.4167,-184.8422 663.1301,-183 824.2499,-161.356 869.7873,-187.8816 1027.1301,-147 1042.5775,-142.9864 1130.6321,-103.5468 1178.743,-81.7701"/>
<polygon fill="#191970" stroke="#191970" points="1180.4175,-84.8539 1188.081,-77.5381 1177.5279,-78.4781 1180.4175,-84.8539"/>
</g>
<!-- Node25&#45;&gt;Node8 -->
<g id="edge44" class="edge">
<title>Node25&#45;&gt;Node8</title>
<path fill="none" stroke="#191970" d="M502.1205,-189.4074C477.2117,-182.0103 451.1039,-169.1959 436.1301,-147 424.2587,-129.4029 429.1032,-104.3955 434.9079,-87.1494"/>
<polygon fill="#191970" stroke="#191970" points="438.2735,-88.1422 438.5055,-77.5499 431.7187,-85.6856 438.2735,-88.1422"/>
</g>
<!-- Node25&#45;&gt;Node12 -->
<g id="edge45" class="edge">
<title>Node25&#45;&gt;Node12</title>
<path fill="none" stroke="#191970" d="M616.5371,-189.4714C631.4758,-186.8939 647.9098,-184.4431 663.1301,-183 1050.3647,-146.2855 2028.821,-207.0422 2413.1301,-147 2424.5969,-145.2085 2569.0078,-101.3987 2640.529,-79.5959"/>
<polygon fill="#191970" stroke="#191970" points="2641.5717,-82.9371 2650.1157,-76.6721 2639.5296,-76.2416 2641.5717,-82.9371"/>
</g>
<!-- Node26 -->
<g id="node26" class="node">
<title>Node26</title>
<g id="a_node26"><a xlink:href="../../d8/dfe/Any_8hpp.html" target="_top" xlink:title="Acts/Utilities/Any.hpp">
<polygon fill="none" stroke="#ff0000" points="894.1301,-120.5 894.1301,-140.5 1018.1301,-140.5 1018.1301,-120.5 894.1301,-120.5"/>
<text text-anchor="middle" x="956.1301" y="-127.5" font-family="FreeSans" font-size="10.00" fill="#000000">Acts/Utilities/Any.hpp</text>
</a>
</g>
</g>
<!-- Node25&#45;&gt;Node26 -->
<g id="edge29" class="edge">
<title>Node25&#45;&gt;Node26</title>
<path fill="none" stroke="#191970" d="M624.5926,-189.4802C637.2944,-187.3243 650.6602,-185.0716 663.1301,-183 761.7342,-166.6189 787.0603,-166.3241 885.1301,-147 891.4856,-145.7477 898.1381,-144.3365 904.7148,-142.88"/>
<polygon fill="#191970" stroke="#191970" points="905.9513,-146.1889 914.9336,-140.5704 904.408,-139.3612 905.9513,-146.1889"/>
</g>
<!-- Node28 -->
<g id="node28" class="node">
<title>Node28</title>
<g id="a_node28"><a xlink:href="../../d6/d7f/Delegate_8hpp.html" target="_top" xlink:title="Acts/Utilities/Delegate.hpp">
<polygon fill="none" stroke="#000000" points="156.1301,-120.5 156.1301,-140.5 308.1301,-140.5 308.1301,-120.5 156.1301,-120.5"/>
<text text-anchor="middle" x="232.1301" y="-127.5" font-family="FreeSans" font-size="10.00" fill="#000000">Acts/Utilities/Delegate.hpp</text>
</a>
</g>
</g>
<!-- Node25&#45;&gt;Node28 -->
<g id="edge34" class="edge">
<title>Node25&#45;&gt;Node28</title>
<path fill="none" stroke="#191970" d="M517.5636,-189.4668C457.4552,-177.0492 355.1727,-155.919 290.7562,-142.6114"/>
<polygon fill="#191970" stroke="#191970" points="291.2565,-139.1409 280.7552,-140.5453 289.8403,-145.9961 291.2565,-139.1409"/>
</g>
<!-- Node29 -->
<g id="node29" class="node">
<title>Node29</title>
<g id="a_node29"><a xlink:href="../../d0/d81/TypeTraits_8hpp.html" target="_top" xlink:title="Acts/Utilities/TypeTraits.hpp">
<polygon fill="none" stroke="#000000" points="163.1301,-57.5 163.1301,-77.5 319.1301,-77.5 319.1301,-57.5 163.1301,-57.5"/>
<text text-anchor="middle" x="241.1301" y="-64.5" font-family="FreeSans" font-size="10.00" fill="#000000">Acts/Utilities/TypeTraits.hpp</text>
</a>
</g>
</g>
<!-- Node25&#45;&gt;Node29 -->
<g id="edge43" class="edge">
<title>Node25&#45;&gt;Node29</title>
<path fill="none" stroke="#191970" d="M477.6782,-194.5672C361.2212,-187.1537 168.626,-171.3574 147.1301,-147 137.4253,-136.0033 139.3928,-126.4597 147.1301,-114 156.6045,-98.7429 172.7336,-88.3396 188.9825,-81.3148"/>
<polygon fill="#191970" stroke="#191970" points="190.494,-84.4812 198.514,-77.558 187.9271,-77.9688 190.494,-84.4812"/>
</g>
<!-- Node30 -->
<g id="node30" class="node">
<title>Node30</title>
<polygon fill="none" stroke="#bfbfbf" points="81.1301,-.5 81.1301,-20.5 151.1301,-20.5 151.1301,-.5 81.1301,-.5"/>
<text text-anchor="middle" x="116.1301" y="-7.5" font-family="FreeSans" font-size="10.00" fill="#000000">type_traits</text>
</g>
<!-- Node25&#45;&gt;Node30 -->
<g id="edge46" class="edge">
<title>Node25&#45;&gt;Node30</title>
<path fill="none" stroke="#191970" d="M478.0145,-197.124C356.5856,-192.6571 144.9931,-180.2405 76.1301,-147 30.9812,-125.2064 -19.433,-98.8767 8.1301,-57 22.1108,-35.759 48.0567,-24.1796 71.0134,-17.8884"/>
<polygon fill="#191970" stroke="#191970" points="72.0927,-21.227 80.9601,-15.4288 70.4123,-14.4317 72.0927,-21.227"/>
</g>
<!-- Node26&#45;&gt;Node6 -->
<g id="edge33" class="edge">
<title>Node26&#45;&gt;Node6</title>
<path fill="none" stroke="#191970" d="M996.658,-120.4478C1046.9201,-107.9812 1131.5947,-86.9792 1177.751,-75.531"/>
<polygon fill="#191970" stroke="#191970" points="1178.6676,-78.9098 1187.5309,-73.1053 1176.9824,-72.1157 1178.6676,-78.9098"/>
</g>
<!-- Node26&#45;&gt;Node8 -->
<g id="edge30" class="edge">
<title>Node26&#45;&gt;Node8</title>
<path fill="none" stroke="#191970" d="M916.8717,-120.4647C906.5931,-118.0883 895.4882,-115.7416 885.1301,-114 807.2705,-100.9089 571.4352,-79.0323 479.9526,-70.7823"/>
<polygon fill="#191970" stroke="#191970" points="480.0571,-67.2777 469.7838,-69.8679 479.4301,-74.2496 480.0571,-67.2777"/>
</g>
<!-- Node26&#45;&gt;Node13 -->
<g id="edge32" class="edge">
<title>Node26&#45;&gt;Node13</title>
<path fill="none" stroke="#191970" d="M1018.3409,-121.4065C1108.513,-108.2259 1272.9258,-84.1934 1347.9383,-73.2287"/>
<polygon fill="#191970" stroke="#191970" points="1348.5239,-76.6804 1357.9125,-71.7708 1347.5114,-69.754 1348.5239,-76.6804"/>
</g>
<!-- Node26&#45;&gt;Node27 -->
<g id="edge31" class="edge">
<title>Node26&#45;&gt;Node27</title>
<path fill="none" stroke="#191970" d="M976.6955,-120.378C997.6892,-110.0451 1030.489,-93.9015 1054.3272,-82.1686"/>
<polygon fill="#191970" stroke="#191970" points="1056.1892,-85.1532 1063.6157,-77.5969 1053.098,-78.8727 1056.1892,-85.1532"/>
</g>
<!-- Node28&#45;&gt;Node4 -->
<g id="edge40" class="edge">
<title>Node28&#45;&gt;Node4</title>
<path fill="none" stroke="#191970" d="M254.9015,-120.471C288.1408,-105.9381 351.9948,-78.4211 407.1301,-57 437.4421,-45.2232 472.1367,-32.8692 498.0557,-23.8573"/>
<polygon fill="#191970" stroke="#191970" points="499.2284,-27.1551 507.5323,-20.5751 496.9375,-20.5406 499.2284,-27.1551"/>
</g>
<!-- Node28&#45;&gt;Node8 -->
<g id="edge39" class="edge">
<title>Node28&#45;&gt;Node8</title>
<path fill="none" stroke="#191970" d="M266.0309,-120.378C304.5032,-108.891 367.0275,-90.2226 406.5689,-78.4164"/>
<polygon fill="#191970" stroke="#191970" points="407.7609,-81.7132 416.3416,-75.4985 405.7582,-75.0058 407.7609,-81.7132"/>
</g>
<!-- Node28&#45;&gt;Node13 -->
<g id="edge41" class="edge">
<title>Node28&#45;&gt;Node13</title>
<path fill="none" stroke="#191970" d="M308.15,-124.7628C354.626,-121.3659 415.2925,-117.129 469.1301,-114 812.0354,-94.0708 898.2478,-98.3211 1241.1301,-78 1277.2797,-75.8576 1318.4226,-72.8469 1347.7989,-70.5983"/>
<polygon fill="#191970" stroke="#191970" points="1348.3569,-74.0658 1358.0583,-69.8074 1347.8188,-67.0865 1348.3569,-74.0658"/>
</g>
<!-- Node28&#45;&gt;Node29 -->
<g id="edge35" class="edge">
<title>Node28&#45;&gt;Node29</title>
<path fill="none" stroke="#191970" d="M233.5761,-120.378C234.8283,-111.6128 236.6778,-98.6662 238.2333,-87.7777"/>
<polygon fill="#191970" stroke="#191970" points="241.7083,-88.2007 239.6578,-77.8062 234.7787,-87.2107 241.7083,-88.2007"/>
</g>
<!-- Node28&#45;&gt;Node30 -->
<g id="edge42" class="edge">
<title>Node28&#45;&gt;Node30</title>
<path fill="none" stroke="#191970" d="M211.9675,-120.3886C194.9839,-111.1209 170.851,-96.1094 154.1301,-78 141.0629,-63.8477 130.7222,-44.4012 124.1477,-30.0151"/>
<polygon fill="#191970" stroke="#191970" points="127.2419,-28.3539 120.0409,-20.5823 120.8237,-31.1482 127.2419,-28.3539"/>
</g>
<!-- Node29&#45;&gt;Node4 -->
<g id="edge36" class="edge">
<title>Node29&#45;&gt;Node4</title>
<path fill="none" stroke="#191970" d="M293.3676,-57.4408C350.3154,-46.4744 440.4135,-29.1245 493.6529,-18.8723"/>
<polygon fill="#191970" stroke="#191970" points="494.6308,-22.2484 503.7886,-16.9205 493.3071,-15.3746 494.6308,-22.2484"/>
</g>
<!-- Node29&#45;&gt;Node17 -->
<g id="edge37" class="edge">
<title>Node29&#45;&gt;Node17</title>
<path fill="none" stroke="#191970" d="M319.2077,-61.894C346.9547,-60.0785 378.4234,-58.2206 407.1301,-57 1260.7565,-20.7049 2308.0057,-12.0548 2505.2715,-10.7068"/>
<polygon fill="#191970" stroke="#191970" points="2505.5649,-14.2051 2515.5413,-10.6381 2505.518,-7.2052 2505.5649,-14.2051"/>
</g>
<!-- Node29&#45;&gt;Node30 -->
<g id="edge38" class="edge">
<title>Node29&#45;&gt;Node30</title>
<path fill="none" stroke="#191970" d="M219.0703,-57.4408C199.2891,-48.4205 170.0364,-35.0813 147.7651,-24.9255"/>
<polygon fill="#191970" stroke="#191970" points="148.9406,-21.6149 138.3898,-20.6504 146.0363,-27.984 148.9406,-21.6149"/>
</g>
<!-- Node31&#45;&gt;Node3 -->
<g id="edge49" class="edge">
<title>Node31&#45;&gt;Node3</title>
<path fill="none" stroke="#191970" d="M515.6524,-259.6657C390.6059,-243.0946 141.4332,-203.8185 76.1301,-147 58.589,-131.738 50.1801,-105.6613 46.2823,-87.5533"/>
<polygon fill="#191970" stroke="#191970" points="49.7204,-86.8977 44.4351,-77.7153 42.8406,-88.1894 49.7204,-86.8977"/>
</g>
<!-- Node32 -->
<g id="node32" class="node">
<title>Node32</title>
<polygon fill="none" stroke="#bfbfbf" points="672.1301,-183.5 672.1301,-215.5 788.1301,-215.5 788.1301,-183.5 672.1301,-183.5"/>
<text text-anchor="start" x="680.1301" y="-202.5" font-family="FreeSans" font-size="10.00" fill="#000000">boost/container/flat</text>
<text text-anchor="middle" x="730.1301" y="-190.5" font-family="FreeSans" font-size="10.00" fill="#000000">_map.hpp</text>
</g>
<!-- Node31&#45;&gt;Node32 -->
<g id="edge50" class="edge">
<title>Node31&#45;&gt;Node32</title>
<path fill="none" stroke="#191970" d="M621.0647,-252.4966C640.9052,-242.8558 666.3762,-230.479 687.7131,-220.1111"/>
<polygon fill="#191970" stroke="#191970" points="689.4175,-223.1742 696.8822,-215.6557 686.3582,-216.8782 689.4175,-223.1742"/>
</g>
<!-- Node33&#45;&gt;Node8 -->
<g id="edge80" class="edge">
<title>Node33&#45;&gt;Node8</title>
<path fill="none" stroke="#191970" d="M689.4402,-321.438C690.0623,-302.108 687.8855,-270.0094 669.1301,-252 603.9836,-189.4447 544.1478,-266.295 469.1301,-216 438.9202,-195.746 435.3154,-181.916 425.1301,-147 419.2461,-126.8291 426.2423,-103.3134 433.1573,-87.1179"/>
<polygon fill="#191970" stroke="#191970" points="436.5203,-88.1853 437.5535,-77.6409 430.1703,-85.2395 436.5203,-88.1853"/>
</g>
<!-- Node33&#45;&gt;Node25 -->
<g id="edge52" class="edge">
<title>Node33&#45;&gt;Node25</title>
<path fill="none" stroke="#191970" d="M697.1817,-321.1946C706.0515,-302.788 716.3382,-272.7148 702.1301,-252 691.8694,-237.0404 650.4564,-222.3727 615.9965,-212.3607"/>
<polygon fill="#191970" stroke="#191970" points="616.607,-208.8959 606.0315,-209.536 614.6979,-215.6306 616.607,-208.8959"/>
</g>
<!-- Node33&#45;&gt;Node31 -->
<g id="edge79" class="edge">
<title>Node33&#45;&gt;Node31</title>
<path fill="none" stroke="#191970" d="M664.9367,-321.4966C651.5284,-312.2448 634.4686,-300.4736 619.8343,-290.3759"/>
<polygon fill="#191970" stroke="#191970" points="621.7626,-287.4542 611.5441,-284.6557 617.7871,-293.2157 621.7626,-287.4542"/>
</g>
<!-- Node34 -->
<g id="node34" class="node">
<title>Node34</title>
<g id="a_node34"><a xlink:href="../../dd/d24/TrackingGeometry_8hpp.html" target="_top" xlink:title="Acts/Geometry/TrackingGeometry.hpp">
<polygon fill="none" stroke="#ff0000" points="1455.6301,-189.5 1455.6301,-209.5 1664.6301,-209.5 1664.6301,-189.5 1455.6301,-189.5"/>
<text text-anchor="middle" x="1560.1301" y="-196.5" font-family="FreeSans" font-size="10.00" fill="#000000">Acts/Geometry/TrackingGeometry.hpp</text>
</a>
</g>
</g>
<!-- Node33&#45;&gt;Node34 -->
<g id="edge53" class="edge">
<title>Node33&#45;&gt;Node34</title>
<path fill="none" stroke="#191970" d="M760.4848,-322.3555C763.4004,-321.8738 766.2906,-321.4193 769.1301,-321 940.8949,-295.6341 986.4761,-311.105 1158.1301,-285 1286.4002,-265.4928 1435.2682,-230.5608 1510.7579,-211.9582"/>
<polygon fill="#191970" stroke="#191970" points="1511.6071,-215.3537 1520.4736,-209.5542 1509.9257,-208.5586 1511.6071,-215.3537"/>
</g>
<!-- Node36 -->
<g id="node36" class="node">
<title>Node36</title>
<g id="a_node36"><a xlink:href="../../d8/ddd/Surface_8hpp.html" target="_top" xlink:title="Acts/Surfaces/Surface.hpp">
<polygon fill="none" stroke="#ff0000" points="1211.1301,-189.5 1211.1301,-209.5 1361.1301,-209.5 1361.1301,-189.5 1211.1301,-189.5"/>
<text text-anchor="middle" x="1286.1301" y="-196.5" font-family="FreeSans" font-size="10.00" fill="#000000">Acts/Surfaces/Surface.hpp</text>
</a>
</g>
</g>
<!-- Node33&#45;&gt;Node36 -->
<g id="edge61" class="edge">
<title>Node33&#45;&gt;Node36</title>
<path fill="none" stroke="#191970" d="M760.4899,-322.3893C763.4041,-321.8983 766.2926,-321.4326 769.1301,-321 925.0313,-297.2316 975.5664,-343.2169 1122.1301,-285 1144.5189,-276.1069 1144.3688,-264.2194 1165.1301,-252 1191.6678,-236.3808 1223.7125,-222.6846 1248.1564,-213.201"/>
<polygon fill="#191970" stroke="#191970" points="1249.6958,-216.3599 1257.7928,-209.5269 1247.202,-209.8192 1249.6958,-216.3599"/>
</g>
<!-- Node38 -->
<g id="node38" class="node">
<title>Node38</title>
<g id="a_node38"><a xlink:href="../../d7/dab/GeometryContainers_8hpp.html" target="_top" xlink:title="ActsExamples/EventData\l/GeometryContainers.hpp">
<polygon fill="none" stroke="#ff0000" points="965.1301,-252.5 965.1301,-284.5 1113.1301,-284.5 1113.1301,-252.5 965.1301,-252.5"/>
<text text-anchor="start" x="973.1301" y="-271.5" font-family="FreeSans" font-size="10.00" fill="#000000">ActsExamples/EventData</text>
<text text-anchor="middle" x="1039.1301" y="-259.5" font-family="FreeSans" font-size="10.00" fill="#000000">/GeometryContainers.hpp</text>
</a>
</g>
</g>
<!-- Node33&#45;&gt;Node38 -->
<g id="edge69" class="edge">
<title>Node33&#45;&gt;Node38</title>
<path fill="none" stroke="#191970" d="M760.5471,-322.7151C763.4455,-322.1339 766.3151,-321.5604 769.1301,-321 831.2777,-308.6283 901.5424,-294.9763 954.8109,-284.6953"/>
<polygon fill="#191970" stroke="#191970" points="955.7356,-288.0816 964.8917,-282.7508 954.4098,-281.2083 955.7356,-288.0816"/>
</g>
<!-- Node34&#45;&gt;Node2 -->
<g id="edge55" class="edge">
<title>Node34&#45;&gt;Node2</title>
<path fill="none" stroke="#191970" d="M1455.6188,-190.1871C1427.8392,-187.7765 1397.853,-185.2326 1370.1301,-183 1154.679,-165.6495 1100.0123,-170.3628 885.1301,-147 872.0276,-145.5755 858.1215,-143.8031 844.6756,-141.9534"/>
<polygon fill="#191970" stroke="#191970" points="844.893,-138.4497 834.504,-140.5282 843.9216,-145.382 844.893,-138.4497"/>
</g>
<!-- Node34&#45;&gt;Node6 -->
<g id="edge60" class="edge">
<title>Node34&#45;&gt;Node6</title>
<path fill="none" stroke="#191970" d="M1533.5359,-189.4702C1470.2836,-165.615 1311.0462,-105.5598 1242.4217,-79.6785"/>
<polygon fill="#191970" stroke="#191970" points="1243.5682,-76.3704 1232.9764,-76.1163 1241.098,-82.92 1243.5682,-76.3704"/>
</g>
<!-- Node34&#45;&gt;Node7 -->
<g id="edge56" class="edge">
<title>Node34&#45;&gt;Node7</title>
<path fill="none" stroke="#191970" d="M1664.6302,-195.7613C1800.845,-189.9358 2046.2254,-176.182 2254.1301,-147 2262.8031,-145.7826 2271.9473,-144.1924 2280.8306,-142.48"/>
<polygon fill="#191970" stroke="#191970" points="2281.5888,-145.8978 2290.7103,-140.5081 2280.2187,-139.0332 2281.5888,-145.8978"/>
</g>
<!-- Node34&#45;&gt;Node13 -->
<g id="edge57" class="edge">
<title>Node34&#45;&gt;Node13</title>
<path fill="none" stroke="#191970" d="M1544.4937,-189.4548C1528.7227,-179.181 1503.8161,-162.5643 1483.1301,-147 1455.7159,-126.3735 1425.4382,-100.8045 1406.3578,-84.3255"/>
<polygon fill="#191970" stroke="#191970" points="1408.5148,-81.5633 1398.6682,-77.6524 1403.9268,-86.8501 1408.5148,-81.5633"/>
</g>
<!-- Node34&#45;&gt;Node17 -->
<g id="edge58" class="edge">
<title>Node34&#45;&gt;Node17</title>
<path fill="none" stroke="#191970" d="M1583.949,-189.3676C1605.4345,-179.7683 1637.5023,-164.2797 1663.1301,-147 1681.6765,-134.495 1680.9143,-123.5743 1701.1301,-114 1847.8461,-44.5145 2368.3839,-17.7497 2505.0624,-11.8311"/>
<polygon fill="#191970" stroke="#191970" points="2505.4647,-15.3173 2515.307,-11.3957 2505.1674,-8.3236 2505.4647,-15.3173"/>
</g>
<!-- Node34&#45;&gt;Node21 -->
<g id="edge54" class="edge">
<title>Node34&#45;&gt;Node21</title>
<path fill="none" stroke="#191970" d="M1562.0483,-189.3188C1563.9493,-179.2289 1566.9141,-163.4925 1569.2989,-150.8347"/>
<polygon fill="#191970" stroke="#191970" points="1572.7919,-151.1981 1571.204,-140.723 1565.913,-149.902 1572.7919,-151.1981"/>
</g>
<!-- Node35 -->
<g id="node35" class="node">
<title>Node35</title>
<polygon fill="none" stroke="#bfbfbf" points="1786.1301,-120.5 1786.1301,-140.5 1882.1301,-140.5 1882.1301,-120.5 1786.1301,-120.5"/>
<text text-anchor="middle" x="1834.1301" y="-127.5" font-family="FreeSans" font-size="10.00" fill="#000000">unordered_map</text>
</g>
<!-- Node34&#45;&gt;Node35 -->
<g id="edge59" class="edge">
<title>Node34&#45;&gt;Node35</title>
<path fill="none" stroke="#191970" d="M1603.6956,-189.434C1647.4093,-179.211 1716.6103,-162.6932 1776.1301,-147 1780.5194,-145.8427 1785.0857,-144.6041 1789.6431,-143.3449"/>
<polygon fill="#191970" stroke="#191970" points="1790.8458,-146.643 1799.5337,-140.5791 1788.9605,-139.9016 1790.8458,-146.643"/>
</g>
<!-- Node36&#45;&gt;Node6 -->
<g id="edge68" class="edge">
<title>Node36&#45;&gt;Node6</title>
<path fill="none" stroke="#191970" d="M1280.1665,-189.1422C1267.4578,-167.0692 1237.5393,-115.1055 1221.2205,-86.7623"/>
<polygon fill="#191970" stroke="#191970" points="1224.0889,-84.7295 1216.066,-77.8097 1218.0225,-88.2223 1224.0889,-84.7295"/>
</g>
<!-- Node36&#45;&gt;Node13 -->
<g id="edge65" class="edge">
<title>Node36&#45;&gt;Node13</title>
<path fill="none" stroke="#191970" d="M1294.0554,-189.1422C1311.092,-166.8765 1351.4009,-114.1955 1372.9556,-86.0251"/>
<polygon fill="#191970" stroke="#191970" points="1375.9445,-87.8785 1379.2416,-77.8097 1370.3852,-83.6247 1375.9445,-87.8785"/>
</g>
<!-- Node36&#45;&gt;Node17 -->
<g id="edge67" class="edge">
<title>Node36&#45;&gt;Node17</title>
<path fill="none" stroke="#191970" d="M1287.0805,-189.2951C1290.2099,-162.2163 1302.8168,-88.4681 1349.1301,-57 1398.2627,-23.6163 2319.1331,-12.6823 2505.4318,-10.8078"/>
<polygon fill="#191970" stroke="#191970" points="2505.4744,-14.3076 2515.4392,-10.7087 2505.405,-7.308 2505.4744,-14.3076"/>
</g>
<!-- Node36&#45;&gt;Node21 -->
<g id="edge62" class="edge">
<title>Node36&#45;&gt;Node21</title>
<path fill="none" stroke="#191970" d="M1327.8624,-189.4668C1379.0873,-177.1514 1465.9576,-156.2662 1521.3804,-142.9416"/>
<polygon fill="#191970" stroke="#191970" points="1522.4427,-146.286 1531.3475,-140.5453 1520.8063,-139.4799 1522.4427,-146.286"/>
</g>
<!-- Node36&#45;&gt;Node24 -->
<g id="edge63" class="edge">
<title>Node36&#45;&gt;Node24</title>
<path fill="none" stroke="#191970" d="M1210.9743,-195.5628C1092.3153,-188.8281 854.4546,-173.2246 654.1301,-147 644.1142,-145.6888 633.5295,-144.0397 623.2448,-142.2945"/>
<polygon fill="#191970" stroke="#191970" points="623.5445,-138.7941 613.0923,-140.5262 622.3434,-145.6902 623.5445,-138.7941"/>
</g>
<!-- Node36&#45;&gt;Node27 -->
<g id="edge64" class="edge">
<title>Node36&#45;&gt;Node27</title>
<path fill="none" stroke="#191970" d="M1270.6149,-189.3614C1235.5848,-166.4704 1150.1603,-110.6485 1108.1964,-83.2265"/>
<polygon fill="#191970" stroke="#191970" points="1109.9839,-80.2136 1099.6981,-77.6732 1106.1547,-86.0734 1109.9839,-80.2136"/>
</g>
<!-- Node37 -->
<g id="node37" class="node">
<title>Node37</title>
<polygon fill="none" stroke="#bfbfbf" points="1710.6301,-120.5 1710.6301,-140.5 1767.6301,-140.5 1767.6301,-120.5 1710.6301,-120.5"/>
<text text-anchor="middle" x="1739.1301" y="-127.5" font-family="FreeSans" font-size="10.00" fill="#000000">ostream</text>
</g>
<!-- Node36&#45;&gt;Node37 -->
<g id="edge66" class="edge">
<title>Node36&#45;&gt;Node37</title>
<path fill="none" stroke="#191970" d="M1361.1416,-190.7458C1437.4121,-181.4483 1558.8695,-165.55 1663.1301,-147 1675.2621,-144.8415 1688.4032,-142.1249 1700.2919,-139.5225"/>
<polygon fill="#191970" stroke="#191970" points="1701.3595,-142.8707 1710.3604,-137.2819 1699.8388,-136.0378 1701.3595,-142.8707"/>
</g>
<!-- Node38&#45;&gt;Node2 -->
<g id="edge71" class="edge">
<title>Node38&#45;&gt;Node2</title>
<path fill="none" stroke="#191970" d="M1026.6079,-252.1983C1010.9695,-232.933 982.4355,-201.2017 951.1301,-183 917.5342,-163.4665 876.1501,-150.7574 841.4367,-142.7449"/>
<polygon fill="#191970" stroke="#191970" points="841.8868,-139.2597 831.3657,-140.5074 840.3685,-146.093 841.8868,-139.2597"/>
</g>
<!-- Node38&#45;&gt;Node6 -->
<g id="edge77" class="edge">
<title>Node38&#45;&gt;Node6</title>
<path fill="none" stroke="#191970" d="M1052.8347,-252.3911C1084.37,-215.3232 1161.8924,-124.2005 1194.8765,-85.4297"/>
<polygon fill="#191970" stroke="#191970" points="1197.7428,-87.4619 1201.5568,-77.5773 1192.4112,-82.926 1197.7428,-87.4619"/>
</g>
<!-- Node38&#45;&gt;Node8 -->
<g id="edge74" class="edge">
<title>Node38&#45;&gt;Node8</title>
<path fill="none" stroke="#191970" d="M1002.1973,-252.4349C955.4069,-232.7913 871.8488,-200.0594 797.1301,-183 725.6431,-166.6784 526.0537,-193.2222 469.1301,-147 451.4966,-132.6815 445.705,-106.1796 443.8673,-87.7288"/>
<polygon fill="#191970" stroke="#191970" points="447.3558,-87.4394 443.173,-77.7052 440.3725,-87.9232 447.3558,-87.4394"/>
</g>
<!-- Node38&#45;&gt;Node12 -->
<g id="edge76" class="edge">
<title>Node38&#45;&gt;Node12</title>
<path fill="none" stroke="#191970" d="M1113.4562,-266.6007C1339.1828,-260.616 2014.6201,-241.0529 2233.1301,-216 2399.3208,-196.9456 2455.7605,-226.1493 2603.1301,-147 2617.6257,-139.2147 2647.1889,-106.2644 2665.1712,-85.3047"/>
<polygon fill="#191970" stroke="#191970" points="2667.8447,-87.5636 2671.6578,-77.6787 2662.5127,-83.0282 2667.8447,-87.5636"/>
</g>
<!-- Node38&#45;&gt;Node25 -->
<g id="edge70" class="edge">
<title>Node38&#45;&gt;Node25</title>
<path fill="none" stroke="#191970" d="M964.8382,-258.7903C888.9223,-248.7126 767.6717,-232.1862 663.1301,-216 653.4446,-214.5004 643.2282,-212.8442 633.2054,-211.1769"/>
<polygon fill="#191970" stroke="#191970" points="633.7152,-207.7136 623.274,-209.5113 632.5573,-214.6171 633.7152,-207.7136"/>
</g>
<!-- Node38&#45;&gt;Node27 -->
<g id="edge75" class="edge">
<title>Node38&#45;&gt;Node27</title>
<path fill="none" stroke="#191970" d="M1042.7366,-252.3911C1050.8959,-215.9462 1070.7536,-127.2481 1079.6685,-87.4284"/>
<polygon fill="#191970" stroke="#191970" points="1083.1046,-88.1004 1081.874,-77.5773 1076.2737,-86.5711 1083.1046,-88.1004"/>
</g>
<!-- Node38&#45;&gt;Node32 -->
<g id="edge78" class="edge">
<title>Node38&#45;&gt;Node32</title>
<path fill="none" stroke="#191970" d="M966.2284,-252.4946C919.3406,-242.165 857.1179,-228.3909 802.1301,-216 800.8634,-215.7146 799.5843,-215.4259 798.2957,-215.1347"/>
<polygon fill="#191970" stroke="#191970" points="798.8071,-211.6619 788.2807,-212.8644 797.2594,-218.4887 798.8071,-211.6619"/>
</g>
<!-- Node38&#45;&gt;Node36 -->
<g id="edge72" class="edge">
<title>Node38&#45;&gt;Node36</title>
<path fill="none" stroke="#191970" d="M1096.4177,-252.4966C1140.2594,-240.2493 1199.9065,-223.5867 1240.538,-212.2363"/>
<polygon fill="#191970" stroke="#191970" points="1241.4916,-215.6039 1250.1811,-209.5424 1239.6082,-208.8621 1241.4916,-215.6039"/>
</g>
<!-- Node39 -->
<g id="node39" class="node">
<title>Node39</title>
<polygon fill="none" stroke="#bfbfbf" points="1900.6301,-120.5 1900.6301,-140.5 1965.6301,-140.5 1965.6301,-120.5 1900.6301,-120.5"/>
<text text-anchor="middle" x="1933.1301" y="-127.5" font-family="FreeSans" font-size="10.00" fill="#000000">algorithm</text>
</g>
<!-- Node38&#45;&gt;Node39 -->
<g id="edge73" class="edge">
<title>Node38&#45;&gt;Node39</title>
<path fill="none" stroke="#191970" d="M1113.3503,-264.446C1256.9247,-256.2585 1567.8158,-236.7545 1673.1301,-216 1756.8717,-199.4969 1851.102,-164.059 1899.8738,-144.3828"/>
<polygon fill="#191970" stroke="#191970" points="1901.345,-147.5628 1909.2884,-140.5519 1898.7067,-141.0791 1901.345,-147.5628"/>
</g>
<!-- Node43&#45;&gt;Node12 -->
<g id="edge110" class="edge">
<title>Node43&#45;&gt;Node12</title>
<path fill="none" stroke="#191970" d="M2824.8225,-252.4715C2863.3086,-223.3647 2933.7105,-160.5315 2896.1301,-114 2874.4619,-87.1707 2776.6721,-75.09 2720.3825,-70.2755"/>
<polygon fill="#191970" stroke="#191970" points="2720.6343,-66.7845 2710.3827,-69.4592 2720.0647,-73.7613 2720.6343,-66.7845"/>
</g>
<!-- Node43&#45;&gt;Node16 -->
<g id="edge111" class="edge">
<title>Node43&#45;&gt;Node16</title>
<path fill="none" stroke="#191970" d="M2842.09,-252.4357C2859.8007,-243.7469 2879.8195,-231.5711 2894.1301,-216 2928.3252,-178.793 2943.2463,-119.1235 2948.9924,-87.9571"/>
<polygon fill="#191970" stroke="#191970" points="2952.4835,-88.3045 2950.7129,-77.8587 2945.583,-87.1288 2952.4835,-88.3045"/>
</g>
<!-- Node44 -->
<g id="node44" class="node">
<title>Node44</title>
<g id="a_node44"><a xlink:href="../../d8/db0/ThrowAssert_8hpp.html" target="_top" xlink:title="Acts/Utilities/ThrowAssert.hpp">
<polygon fill="none" stroke="#000000" points="2717.6301,-120.5 2717.6301,-140.5 2886.6301,-140.5 2886.6301,-120.5 2717.6301,-120.5"/>
<text text-anchor="middle" x="2802.1301" y="-127.5" font-family="FreeSans" font-size="10.00" fill="#000000">Acts/Utilities/ThrowAssert.hpp</text>
</a>
</g>
</g>
<!-- Node43&#45;&gt;Node44 -->
<g id="edge85" class="edge">
<title>Node43&#45;&gt;Node44</title>
<path fill="none" stroke="#191970" d="M2802.1301,-252.3996C2802.1301,-227.1537 2802.1301,-178.2958 2802.1301,-150.7185"/>
<polygon fill="#191970" stroke="#191970" points="2805.6302,-150.6492 2802.1301,-140.6492 2798.6302,-150.6493 2805.6302,-150.6492"/>
</g>
<!-- Node45 -->
<g id="node45" class="node">
<title>Node45</title>
<g id="a_node45"><a xlink:href="../../d1/dc6/SequenceElement_8hpp.html" target="_top" xlink:title="ActsExamples/Framework\l/SequenceElement.hpp">
<polygon fill="none" stroke="#000000" points="2967.6301,-183.5 2967.6301,-215.5 3114.6301,-215.5 3114.6301,-183.5 2967.6301,-183.5"/>
<text text-anchor="start" x="2975.6301" y="-202.5" font-family="FreeSans" font-size="10.00" fill="#000000">ActsExamples/Framework</text>
<text text-anchor="middle" x="3041.1301" y="-190.5" font-family="FreeSans" font-size="10.00" fill="#000000">/SequenceElement.hpp</text>
</a>
</g>
</g>
<!-- Node43&#45;&gt;Node45 -->
<g id="edge90" class="edge">
<title>Node43&#45;&gt;Node45</title>
<path fill="none" stroke="#191970" d="M2857.5622,-252.4966C2892.8794,-242.3004 2938.7963,-229.0441 2975.8715,-218.3403"/>
<polygon fill="#191970" stroke="#191970" points="2976.9483,-221.6725 2985.5851,-215.536 2975.0066,-214.9472 2976.9483,-221.6725"/>
</g>
<!-- Node48 -->
<g id="node48" class="node">
<title>Node48</title>
<g id="a_node48"><a xlink:href="../../d0/d18/WhiteBoard_8hpp.html" target="_top" xlink:title="ActsExamples/Framework\l/WhiteBoard.hpp">
<polygon fill="none" stroke="#000000" points="2077.6301,-183.5 2077.6301,-215.5 2224.6301,-215.5 2224.6301,-183.5 2077.6301,-183.5"/>
<text text-anchor="start" x="2085.6301" y="-202.5" font-family="FreeSans" font-size="10.00" fill="#000000">ActsExamples/Framework</text>
<text text-anchor="middle" x="2151.1301" y="-190.5" font-family="FreeSans" font-size="10.00" fill="#000000">/WhiteBoard.hpp</text>
</a>
</g>
</g>
<!-- Node43&#45;&gt;Node48 -->
<g id="edge96" class="edge">
<title>Node43&#45;&gt;Node48</title>
<path fill="none" stroke="#191970" d="M2728.402,-260.6855C2606.3732,-247.7516 2363.1696,-221.9742 2234.8567,-208.3742"/>
<polygon fill="#191970" stroke="#191970" points="2235.0028,-204.8702 2224.6895,-207.2966 2234.2649,-211.8312 2235.0028,-204.8702"/>
</g>
<!-- Node49 -->
<g id="node49" class="node">
<title>Node49</title>
<polygon fill="none" stroke="#bfbfbf" points="2536.1301,-120.5 2536.1301,-140.5 2594.1301,-140.5 2594.1301,-120.5 2536.1301,-120.5"/>
<text text-anchor="middle" x="2565.1301" y="-127.5" font-family="FreeSans" font-size="10.00" fill="#000000">typeinfo</text>
</g>
<!-- Node43&#45;&gt;Node49 -->
<g id="edge112" class="edge">
<title>Node43&#45;&gt;Node49</title>
<path fill="none" stroke="#191970" d="M2774.4793,-252.3996C2728.4246,-225.5829 2636.6153,-172.1243 2591.4555,-145.8287"/>
<polygon fill="#191970" stroke="#191970" points="2592.9632,-142.6566 2582.5603,-140.6492 2589.4409,-148.7058 2592.9632,-142.6566"/>
</g>
<!-- Node44&#45;&gt;Node10 -->
<g id="edge86" class="edge">
<title>Node44&#45;&gt;Node10</title>
<path fill="none" stroke="#191970" d="M2769.5146,-120.378C2734.7401,-109.5859 2679.5406,-92.455 2641.4419,-80.6312"/>
<polygon fill="#191970" stroke="#191970" points="2642.2527,-77.2183 2631.6646,-77.5969 2640.1778,-83.9037 2642.2527,-77.2183"/>
</g>
<!-- Node44&#45;&gt;Node12 -->
<g id="edge87" class="edge">
<title>Node44&#45;&gt;Node12</title>
<path fill="none" stroke="#191970" d="M2782.5287,-120.378C2762.608,-110.091 2731.5344,-94.0448 2708.8394,-82.3253"/>
<polygon fill="#191970" stroke="#191970" points="2710.174,-79.0754 2699.6829,-77.5969 2706.9622,-85.2951 2710.174,-79.0754"/>
</g>
<!-- Node44&#45;&gt;Node15 -->
<g id="edge88" class="edge">
<title>Node44&#45;&gt;Node15</title>
<path fill="none" stroke="#191970" d="M2751.0713,-120.4478C2686.7846,-107.7914 2577.8132,-86.3376 2520.3002,-75.0147"/>
<polygon fill="#191970" stroke="#191970" points="2520.6703,-71.5205 2510.1825,-73.0228 2519.318,-78.3886 2520.6703,-71.5205"/>
</g>
<!-- Node44&#45;&gt;Node17 -->
<g id="edge89" class="edge">
<title>Node44&#45;&gt;Node17</title>
<path fill="none" stroke="#191970" d="M2793.5496,-120.2698C2779.6028,-104.3126 2750.4096,-73.6086 2719.1301,-57 2671.2721,-31.5887 2608.8214,-19.5425 2571.1878,-14.2383"/>
<polygon fill="#191970" stroke="#191970" points="2571.1805,-10.7066 2560.8065,-12.8582 2570.258,-17.6456 2571.1805,-10.7066"/>
</g>
<!-- Node45&#45;&gt;Node17 -->
<g id="edge94" class="edge">
<title>Node45&#45;&gt;Node17</title>
<path fill="none" stroke="#191970" d="M3041.0967,-183.1088C3040.0619,-152.8213 3033.1187,-88.3302 2994.1301,-57 2961.2498,-30.5783 2670.041,-16.026 2570.9638,-11.806"/>
<polygon fill="#191970" stroke="#191970" points="2571.0581,-8.307 2560.9205,-11.3858 2570.7655,-15.3009 2571.0581,-8.307"/>
</g>
<!-- Node45&#45;&gt;Node41 -->
<g id="edge95" class="edge">
<title>Node45&#45;&gt;Node41</title>
<path fill="none" stroke="#191970" d="M2967.4376,-189.0201C2877.1901,-176.003 2733.2785,-154.5846 2709.1301,-147 2706.994,-146.3291 2704.8232,-145.5439 2702.665,-144.6867"/>
<polygon fill="#191970" stroke="#191970" points="2703.9907,-141.446 2693.4297,-140.5999 2701.1579,-147.8472 2703.9907,-141.446"/>
</g>
<!-- Node46 -->
<g id="node46" class="node">
<title>Node46</title>
<g id="a_node46"><a xlink:href="../../de/d37/AlgorithmContext_8hpp.html" target="_top" xlink:title="ActsExamples/Framework\l/AlgorithmContext.hpp">
<polygon fill="none" stroke="#ff0000" points="2098.6301,-114.5 2098.6301,-146.5 2245.6301,-146.5 2245.6301,-114.5 2098.6301,-114.5"/>
<text text-anchor="start" x="2106.6301" y="-133.5" font-family="FreeSans" font-size="10.00" fill="#000000">ActsExamples/Framework</text>
<text text-anchor="middle" x="2172.1301" y="-121.5" font-family="FreeSans" font-size="10.00" fill="#000000">/AlgorithmContext.hpp</text>
</a>
</g>
</g>
<!-- Node45&#45;&gt;Node46 -->
<g id="edge91" class="edge">
<title>Node45&#45;&gt;Node46</title>
<path fill="none" stroke="#191970" d="M2967.6129,-188.9208C2950.4197,-186.711 2932.1551,-184.5768 2915.1301,-183 2625.8977,-156.2128 2548.3288,-183.1137 2255.8573,-146.9662"/>
<polygon fill="#191970" stroke="#191970" points="2256.1648,-143.4774 2245.8079,-145.7099 2255.2964,-150.4234 2256.1648,-143.4774"/>
</g>
<!-- Node45&#45;&gt;Node47 -->
<g id="edge93" class="edge">
<title>Node45&#45;&gt;Node47</title>
<path fill="none" stroke="#191970" d="M3061.7722,-183.4966C3073.4825,-174.4178 3088.3224,-162.9127 3101.1808,-152.9439"/>
<polygon fill="#191970" stroke="#191970" points="3103.533,-155.5489 3109.2916,-146.6557 3099.244,-150.0167 3103.533,-155.5489"/>
</g>
<!-- Node46&#45;&gt;Node13 -->
<g id="edge92" class="edge">
<title>Node46&#45;&gt;Node13</title>
<path fill="none" stroke="#191970" d="M2098.2969,-115.9315C2093.5129,-115.2119 2088.7598,-114.5581 2084.1301,-114 1796.1831,-79.2909 1716.3968,-124.302 1426.4127,-77.8895"/>
<polygon fill="#191970" stroke="#191970" points="1426.8814,-74.4198 1416.4498,-76.2724 1425.7599,-81.3294 1426.8814,-74.4198"/>
</g>
<!-- Node48&#45;&gt;Node6 -->
<g id="edge108" class="edge">
<title>Node48&#45;&gt;Node6</title>
<path fill="none" stroke="#191970" d="M2113.4215,-183.4514C2092.8384,-174.0094 2067.3081,-161.1605 2046.1301,-147 2027.5354,-134.5668 2028.8625,-122.3972 2008.1301,-114 1872.194,-58.9422 1495.4833,-87.5242 1349.1301,-78 1312.7264,-75.631 1270.9991,-72.4112 1242.8399,-70.1641"/>
<polygon fill="#191970" stroke="#191970" points="1242.9993,-66.6657 1232.7513,-69.3542 1242.4391,-73.6432 1242.9993,-66.6657"/>
</g>
<!-- Node48&#45;&gt;Node7 -->
<g id="edge97" class="edge">
<title>Node48&#45;&gt;Node7</title>
<path fill="none" stroke="#191970" d="M2193.5739,-183.4966C2225.1631,-171.5859 2267.8276,-155.4993 2297.8378,-144.184"/>
<polygon fill="#191970" stroke="#191970" points="2299.3737,-147.3455 2307.4959,-140.5424 2296.904,-140.7956 2299.3737,-147.3455"/>
</g>
<!-- Node48&#45;&gt;Node13 -->
<g id="edge100" class="edge">
<title>Node48&#45;&gt;Node13</title>
<path fill="none" stroke="#191970" d="M2132.081,-183.4795C2103.2081,-159.2711 2051.1698,-115.9585 2046.1301,-114 1920.1793,-65.0543 1577.3802,-98.9335 1426.54,-77.8075"/>
<polygon fill="#191970" stroke="#191970" points="1426.8661,-74.3167 1416.4515,-76.2625 1425.8064,-81.236 1426.8661,-74.3167"/>
</g>
<!-- Node48&#45;&gt;Node16 -->
<g id="edge102" class="edge">
<title>Node48&#45;&gt;Node16</title>
<path fill="none" stroke="#191970" d="M2224.7024,-197.8799C2401.2637,-193.4883 2838.6449,-179.4375 2896.1301,-147 2919.6857,-133.7082 2935.6903,-105.9175 2944.3697,-86.9806"/>
<polygon fill="#191970" stroke="#191970" points="2947.5981,-88.3326 2948.3408,-77.7639 2941.1695,-85.5627 2947.5981,-88.3326"/>
</g>
<!-- Node48&#45;&gt;Node17 -->
<g id="edge103" class="edge">
<title>Node48&#45;&gt;Node17</title>
<path fill="none" stroke="#191970" d="M2224.7612,-195.3046C2282.9675,-189.7593 2365.1243,-176.8856 2431.1301,-147 2476.4058,-126.5004 2491.4743,-119.2951 2519.1301,-78 2528.5379,-63.9524 2533.33,-45.2817 2535.7457,-31.1377"/>
<polygon fill="#191970" stroke="#191970" points="2539.2531,-31.337 2537.2164,-20.9398 2532.3248,-30.3378 2539.2531,-31.337"/>
</g>
<!-- Node48&#45;&gt;Node18 -->
<g id="edge104" class="edge">
<title>Node48&#45;&gt;Node18</title>
<path fill="none" stroke="#191970" d="M2224.7526,-194.9424C2293.7459,-188.9529 2389.6801,-175.6151 2413.1301,-147 2426.9418,-130.1461 2418.8117,-104.4385 2410.298,-86.8491"/>
<polygon fill="#191970" stroke="#191970" points="2413.1615,-84.7752 2405.404,-77.5592 2406.9683,-88.0379 2413.1615,-84.7752"/>
</g>
<!-- Node48&#45;&gt;Node27 -->
<g id="edge99" class="edge">
<title>Node48&#45;&gt;Node27</title>
<path fill="none" stroke="#191970" d="M2090.4509,-183.4305C2063.9859,-174.8895 2033.3196,-162.8335 2008.1301,-147 1990.3013,-135.7933 1993.4613,-122.3522 1974.1301,-114 1892.8567,-78.8851 1266.3942,-84.918 1178.1301,-78 1159.4214,-76.5336 1138.6837,-74.284 1121.4568,-72.2427"/>
<polygon fill="#191970" stroke="#191970" points="1121.5815,-68.7324 1111.2338,-71.0074 1120.7417,-75.6818 1121.5815,-68.7324"/>
</g>
<!-- Node48&#45;&gt;Node30 -->
<g id="edge105" class="edge">
<title>Node48&#45;&gt;Node30</title>
<path fill="none" stroke="#191970" d="M2077.4402,-196.7066C1983.5632,-193.2054 1816.306,-187.1598 1673.1301,-183 1630.7473,-181.7686 179.9517,-173.8432 147.1301,-147 112.7849,-118.9107 111.6613,-61.4572 113.8419,-30.812"/>
<polygon fill="#191970" stroke="#191970" points="117.329,-31.1121 114.7394,-20.8386 110.3571,-30.4847 117.329,-31.1121"/>
</g>
<!-- Node48&#45;&gt;Node35 -->
<g id="edge107" class="edge">
<title>Node48&#45;&gt;Node35</title>
<path fill="none" stroke="#191970" d="M2077.3651,-186.2848C2025.1197,-176.5162 1953.5207,-162.3016 1891.1301,-147 1886.4963,-145.8635 1881.6735,-144.5982 1876.8819,-143.2879"/>
<polygon fill="#191970" stroke="#191970" points="1877.7343,-139.892 1867.1607,-140.562 1875.8443,-146.6321 1877.7343,-139.892"/>
</g>
<!-- Node48&#45;&gt;Node37 -->
<g id="edge101" class="edge">
<title>Node48&#45;&gt;Node37</title>
<path fill="none" stroke="#191970" d="M2077.5324,-195.056C2001.2252,-189.0894 1879.055,-175.709 1777.1301,-147 1774.4951,-146.2578 1771.8035,-145.3715 1769.1306,-144.4005"/>
<polygon fill="#191970" stroke="#191970" points="1770.2506,-141.079 1759.6658,-140.6181 1767.6529,-147.5792 1770.2506,-141.079"/>
</g>
<!-- Node48&#45;&gt;Node39 -->
<g id="edge98" class="edge">
<title>Node48&#45;&gt;Node39</title>
<path fill="none" stroke="#191970" d="M2097.0453,-183.4947C2063.3175,-173.3654 2019.0708,-159.8075 1980.1301,-147 1977.1855,-146.0315 1974.1441,-145.0108 1971.0907,-143.9714"/>
<polygon fill="#191970" stroke="#191970" points="1971.9959,-140.5814 1961.4012,-140.6293 1969.7134,-147.1988 1971.9959,-140.5814"/>
</g>
<!-- Node48&#45;&gt;Node41 -->
<g id="edge109" class="edge">
<title>Node48&#45;&gt;Node41</title>
<path fill="none" stroke="#191970" d="M2224.6822,-193.4542C2314.4241,-185.5037 2470.5821,-169.8148 2603.1301,-147 2615.4464,-144.8801 2628.8195,-141.9831 2640.66,-139.2078"/>
<polygon fill="#191970" stroke="#191970" points="2641.6975,-142.5583 2650.6056,-136.8229 2640.0651,-135.7513 2641.6975,-142.5583"/>
</g>
<!-- Node48&#45;&gt;Node49 -->
<g id="edge106" class="edge">
<title>Node48&#45;&gt;Node49</title>
<path fill="none" stroke="#191970" d="M2224.9496,-193.9957C2300.5181,-187.2149 2420.9015,-173.224 2522.1301,-147 2525.4827,-146.1315 2528.9317,-145.0845 2532.3486,-143.9444"/>
<polygon fill="#191970" stroke="#191970" points="2533.5576,-147.2292 2541.7861,-140.5553 2531.1917,-140.6411 2533.5576,-147.2292"/>
</g>
<!-- Node50&#45;&gt;Node6 -->
<g id="edge118" class="edge">
<title>Node50&#45;&gt;Node6</title>
<path fill="none" stroke="#191970" d="M2937.3112,-257.5121C2920.2138,-255.3346 2902.0665,-253.3171 2885.1301,-252 2725.6726,-239.5993 1599.2376,-262.2444 1446.1301,-216 1399.7778,-201.9998 1281.7553,-119.1988 1232.3797,-83.6737"/>
<polygon fill="#191970" stroke="#191970" points="1234.1483,-80.6337 1223.9918,-77.6178 1230.0508,-86.3092 1234.1483,-80.6337"/>
</g>
<!-- Node50&#45;&gt;Node17 -->
<g id="edge117" class="edge">
<title>Node50&#45;&gt;Node17</title>
<path fill="none" stroke="#191970" d="M3066.9077,-252.4293C3141.9478,-227.9609 3260.8153,-177.4384 3213.1301,-114 3158.3638,-41.1412 3105.6485,-74.1523 3016.1301,-57 2850.7167,-25.3057 2648.7357,-14.6772 2570.8838,-11.6035"/>
<polygon fill="#191970" stroke="#191970" points="2570.8646,-8.1003 2560.7391,-11.2185 2570.5991,-15.0953 2570.8646,-8.1003"/>
</g>
<!-- Node50&#45;&gt;Node45 -->
<g id="edge116" class="edge">
<title>Node50&#45;&gt;Node45</title>
<path fill="none" stroke="#191970" d="M3018.0881,-252.4966C3021.5965,-244.4274 3025.9381,-234.4415 3029.9035,-225.3211"/>
<polygon fill="#191970" stroke="#191970" points="3033.2239,-226.462 3034.0015,-215.8958 3026.8044,-223.6709 3033.2239,-226.462"/>
</g>
<!-- Node50&#45;&gt;Node46 -->
<g id="edge114" class="edge">
<title>Node50&#45;&gt;Node46</title>
<path fill="none" stroke="#191970" d="M2937.4665,-257.5843C2803.8043,-237.5752 2512.2294,-192.997 2255.7458,-147.0777"/>
<polygon fill="#191970" stroke="#191970" points="2256.3305,-143.6268 2245.8696,-145.3057 2255.0943,-150.5168 2256.3305,-143.6268"/>
</g>
<!-- Node50&#45;&gt;Node47 -->
<g id="edge115" class="edge">
<title>Node50&#45;&gt;Node47</title>
<path fill="none" stroke="#191970" d="M3075.1675,-252.408C3093.9104,-244.5202 3112.4762,-232.9265 3124.1301,-216 3135.9807,-198.7876 3136.6349,-174.7294 3134.8106,-156.5163"/>
<polygon fill="#191970" stroke="#191970" points="3138.2768,-156.029 3133.516,-146.5641 3131.3353,-156.932 3138.2768,-156.029"/>
</g>
</g>
</svg>
