<?xml version="1.0" encoding="UTF-8" standalone="no"?>
<!DOCTYPE svg PUBLIC "-//W3C//DTD SVG 1.1//EN"
 "http://www.w3.org/Graphics/SVG/1.1/DTD/svg11.dtd">
<!-- Generated by graphviz version 2.40.1 (20161225.0304)
 -->
<!-- Title: PROTOTYPE4_FEM::SampleFit_PeakSample Pages: 1 -->
<svg width="361pt" height="92pt"
 viewBox="0.00 0.00 361.00 92.00" xmlns="http://www.w3.org/2000/svg" xmlns:xlink="http://www.w3.org/1999/xlink">
<g id="graph0" class="graph" transform="scale(1 1) rotate(0) translate(4 88)">
<title>PROTOTYPE4_FEM::SampleFit_PeakSample</title>
<!-- Node1 -->
<g id="node1" class="node">
<title>Node1</title>
<polygon fill="#bfbfbf" stroke="#000000" points="0,-25.5 0,-57.5 166,-57.5 166,-25.5 0,-25.5"/>
<text text-anchor="start" x="8" y="-44.5" font-family="FreeSans" font-size="10.00" fill="#000000">PROTOTYPE4_FEM::SampleFit</text>
<text text-anchor="middle" x="83" y="-32.5" font-family="FreeSans" font-size="10.00" fill="#000000">_PeakSample</text>
</g>
<!-- Node2 -->
<g id="node2" class="node">
<title>Node2</title>
<g id="a_node2"><a xlink:href="../../d9/df0/classRawTower__Prototype4.html#a366edf3c476129e92fda7d450efd577b" target="_top" xlink:title="RawTower_Prototype4\l::get_energy_peak_sample">
<polygon fill="none" stroke="#000000" points="202,-51.5 202,-83.5 353,-83.5 353,-51.5 202,-51.5"/>
<text text-anchor="start" x="210" y="-70.5" font-family="FreeSans" font-size="10.00" fill="#000000">RawTower_Prototype4</text>
<text text-anchor="middle" x="277.5" y="-58.5" font-family="FreeSans" font-size="10.00" fill="#000000">::get_energy_peak_sample</text>
</a>
</g>
</g>
<!-- Node1&#45;&gt;Node2 -->
<g id="edge1" class="edge">
<title>Node1&#45;&gt;Node2</title>
<path fill="none" stroke="#191970" d="M176.1205,-53.948C184.7301,-55.0989 193.383,-56.2556 201.8085,-57.3819"/>
<polygon fill="#191970" stroke="#191970" points="176.4253,-50.4577 166.0497,-52.6018 175.4977,-57.396 176.4253,-50.4577"/>
</g>
<!-- Node3 -->
<g id="node3" class="node">
<title>Node3</title>
<g id="a_node3"><a xlink:href="../../da/d36/classCaloCalibration.html#af83bb94aa1707e4f0a2a8cf8f170a218" target="_top" xlink:title="CaloCalibration::process\l_event">
<polygon fill="none" stroke="#000000" points="208,-.5 208,-32.5 347,-32.5 347,-.5 208,-.5"/>
<text text-anchor="start" x="216" y="-19.5" font-family="FreeSans" font-size="10.00" fill="#000000">CaloCalibration::process</text>
<text text-anchor="middle" x="277.5" y="-7.5" font-family="FreeSans" font-size="10.00" fill="#000000">_event</text>
</a>
</g>
</g>
<!-- Node1&#45;&gt;Node3 -->
<g id="edge2" class="edge">
<title>Node1&#45;&gt;Node3</title>
<path fill="none" stroke="#191970" d="M176.2304,-29.5167C186.8871,-28.1469 197.6082,-26.7689 207.8808,-25.4485"/>
<polygon fill="#191970" stroke="#191970" points="175.5219,-26.0788 166.0497,-30.8252 176.4143,-33.0217 175.5219,-26.0788"/>
</g>
</g>
</svg>
