<?xml version="1.0" encoding="UTF-8" standalone="no"?>
<!DOCTYPE svg PUBLIC "-//W3C//DTD SVG 1.1//EN"
 "http://www.w3.org/Graphics/SVG/1.1/DTD/svg11.dtd">
<!-- Generated by graphviz version 2.40.1 (20161225.0304)
 -->
<!-- Title: BaseTruthEval::get_embed Pages: 1 -->
<svg width="865pt" height="827pt"
 viewBox="0.00 0.00 865.00 827.00" xmlns="http://www.w3.org/2000/svg" xmlns:xlink="http://www.w3.org/1999/xlink">
<g id="graph0" class="graph" transform="scale(1 1) rotate(0) translate(4 823)">
<title>BaseTruthEval::get_embed</title>
<!-- Node1 -->
<g id="node1" class="node">
<title>Node1</title>
<polygon fill="#bfbfbf" stroke="#000000" points="0,-220.5 0,-252.5 112,-252.5 112,-220.5 0,-220.5"/>
<text text-anchor="start" x="8" y="-239.5" font-family="FreeSans" font-size="10.00" fill="#000000">BaseTruthEval::get</text>
<text text-anchor="middle" x="56" y="-227.5" font-family="FreeSans" font-size="10.00" fill="#000000">_embed</text>
</g>
<!-- Node2 -->
<g id="node2" class="node">
<title>Node2</title>
<g id="a_node2"><a xlink:href="../../d4/de4/classSvtxTruthEval.html#acba57da6300f3a718d9547ec1c96bb73" target="_top" xlink:title="SvtxTruthEval::get\l_embed">
<polygon fill="none" stroke="#000000" points="148,-396.5 148,-428.5 258,-428.5 258,-396.5 148,-396.5"/>
<text text-anchor="start" x="156" y="-415.5" font-family="FreeSans" font-size="10.00" fill="#000000">SvtxTruthEval::get</text>
<text text-anchor="middle" x="203" y="-403.5" font-family="FreeSans" font-size="10.00" fill="#000000">_embed</text>
</a>
</g>
</g>
<!-- Node1&#45;&gt;Node2 -->
<g id="edge1" class="edge">
<title>Node1&#45;&gt;Node2</title>
<path fill="none" stroke="#191970" d="M75.9808,-260.4225C106.3812,-296.8203 163.4579,-365.1571 189.4669,-396.2971"/>
<polygon fill="#191970" stroke="#191970" points="78.6627,-258.1736 69.5659,-252.7422 73.2901,-262.6609 78.6627,-258.1736"/>
</g>
<!-- Node28 -->
<g id="node28" class="node">
<title>Node28</title>
<g id="a_node28"><a xlink:href="../../d7/d3c/classCaloTruthEval.html#acc021440691d410ba3b017ce742be69b" target="_top" xlink:title="what was the embed flag passed with this particle?">
<polygon fill="none" stroke="#000000" points="148,-45.5 148,-77.5 258,-77.5 258,-45.5 148,-45.5"/>
<text text-anchor="start" x="156" y="-64.5" font-family="FreeSans" font-size="10.00" fill="#000000">CaloTruthEval::get</text>
<text text-anchor="middle" x="203" y="-52.5" font-family="FreeSans" font-size="10.00" fill="#000000">_embed</text>
</a>
</g>
</g>
<!-- Node1&#45;&gt;Node28 -->
<g id="edge29" class="edge">
<title>Node1&#45;&gt;Node28</title>
<path fill="none" stroke="#191970" d="M76.3654,-212.2555C106.8603,-175.9521 163.5672,-108.4438 189.4669,-77.6109"/>
<polygon fill="#191970" stroke="#191970" points="73.3179,-210.4418 69.5659,-220.3501 78.6778,-214.9442 73.3179,-210.4418"/>
</g>
<!-- Node3 -->
<g id="node3" class="node">
<title>Node3</title>
<g id="a_node3"><a xlink:href="../../db/d4b/classEMCalAna.html#a058c1f2ec1ef8b8f7786737eb6e3151b" target="_top" xlink:title="EMCalAna::eval_trk">
<polygon fill="none" stroke="#000000" points="325.5,-747.5 325.5,-767.5 439.5,-767.5 439.5,-747.5 325.5,-747.5"/>
<text text-anchor="middle" x="382.5" y="-754.5" font-family="FreeSans" font-size="10.00" fill="#000000">EMCalAna::eval_trk</text>
</a>
</g>
</g>
<!-- Node2&#45;&gt;Node3 -->
<g id="edge2" class="edge">
<title>Node2&#45;&gt;Node3</title>
<path fill="none" stroke="#191970" d="M207.0869,-438.611C218.3288,-507.2332 251.7067,-690.2806 294,-732.5 302.4746,-740.9598 313.5796,-746.6084 325.0464,-750.367"/>
<polygon fill="#191970" stroke="#191970" points="210.523,-437.9339 205.4748,-428.6191 203.6124,-439.049 210.523,-437.9339"/>
</g>
<!-- Node7 -->
<g id="node7" class="node">
<title>Node7</title>
<g id="a_node7"><a xlink:href="../../de/da4/classEMCalCalib.html#ac80fa52a42070fa6210a5c69f9c10fed" target="_top" xlink:title="project a photon to calorimeters and collect towers around it">
<polygon fill="none" stroke="#000000" points="312,-702.5 312,-722.5 453,-722.5 453,-702.5 312,-702.5"/>
<text text-anchor="middle" x="382.5" y="-709.5" font-family="FreeSans" font-size="10.00" fill="#000000">EMCalCalib::eval_photon</text>
</a>
</g>
</g>
<!-- Node2&#45;&gt;Node7 -->
<g id="edge7" class="edge">
<title>Node2&#45;&gt;Node7</title>
<path fill="none" stroke="#191970" d="M207.9864,-438.4956C220.5418,-501.2607 255.2371,-658.4918 294,-693.5 299.2481,-698.2397 305.3857,-701.9002 311.938,-704.7145"/>
<polygon fill="#191970" stroke="#191970" points="211.4023,-437.7265 206.0332,-428.5929 204.5346,-439.0812 211.4023,-437.7265"/>
</g>
<!-- Node10 -->
<g id="node10" class="node">
<title>Node10</title>
<g id="a_node10"><a xlink:href="../../d8/d98/classpsTOFTimezeroEval.html#ae9fd1570652089bed4ec7eb81009b318" target="_top" xlink:title="dump the evaluator information into ntuple for external analysis">
<polygon fill="none" stroke="#000000" points="321.5,-651.5 321.5,-683.5 443.5,-683.5 443.5,-651.5 321.5,-651.5"/>
<text text-anchor="start" x="329.5" y="-670.5" font-family="FreeSans" font-size="10.00" fill="#000000">psTOFTimezeroEval::</text>
<text text-anchor="middle" x="382.5" y="-658.5" font-family="FreeSans" font-size="10.00" fill="#000000">fillOutputNtuples</text>
</a>
</g>
</g>
<!-- Node2&#45;&gt;Node10 -->
<g id="edge10" class="edge">
<title>Node2&#45;&gt;Node10</title>
<path fill="none" stroke="#191970" d="M205.8379,-438.7348C212.413,-486.4289 233.1013,-587.4855 294,-642.5 301.7008,-649.4567 311.1965,-654.4925 321.0792,-658.1342"/>
<polygon fill="#191970" stroke="#191970" points="209.2834,-438.0845 204.5459,-428.6078 202.3396,-438.9704 209.2834,-438.0845"/>
</g>
<!-- Node12 -->
<g id="node12" class="node">
<title>Node12</title>
<g id="a_node12"><a xlink:href="../../d9/d59/classSimpleTrackingAnalysis.html#a60dd2938667eebaafcb17118a6bdb8f3" target="_top" xlink:title="SimpleTrackingAnalysis\l::process_event">
<polygon fill="none" stroke="#000000" points="315,-600.5 315,-632.5 450,-632.5 450,-600.5 315,-600.5"/>
<text text-anchor="start" x="323" y="-619.5" font-family="FreeSans" font-size="10.00" fill="#000000">SimpleTrackingAnalysis</text>
<text text-anchor="middle" x="382.5" y="-607.5" font-family="FreeSans" font-size="10.00" fill="#000000">::process_event</text>
</a>
</g>
</g>
<!-- Node2&#45;&gt;Node12 -->
<g id="edge12" class="edge">
<title>Node2&#45;&gt;Node12</title>
<path fill="none" stroke="#191970" d="M209.1451,-438.6908C219.6946,-477.8205 245.008,-551.2386 294,-591.5 300.1675,-596.5684 307.3018,-600.6107 314.7901,-603.8342"/>
<polygon fill="#191970" stroke="#191970" points="212.4353,-437.4319 206.5537,-428.6195 205.6561,-439.1763 212.4353,-437.4319"/>
</g>
<!-- Node13 -->
<g id="node13" class="node">
<title>Node13</title>
<g id="a_node13"><a xlink:href="../../d7/ded/classSTACalorimeterCharacterization.html#aebaae010ab7828d310691192de7d16fe" target="_top" xlink:title="STACalorimeterCharacterization\l::process_event">
<polygon fill="none" stroke="#000000" points="294,-549.5 294,-581.5 471,-581.5 471,-549.5 294,-549.5"/>
<text text-anchor="start" x="302" y="-568.5" font-family="FreeSans" font-size="10.00" fill="#000000">STACalorimeterCharacterization</text>
<text text-anchor="middle" x="382.5" y="-556.5" font-family="FreeSans" font-size="10.00" fill="#000000">::process_event</text>
</a>
</g>
</g>
<!-- Node2&#45;&gt;Node13 -->
<g id="edge13" class="edge">
<title>Node2&#45;&gt;Node13</title>
<path fill="none" stroke="#191970" d="M214.3612,-437.6511C228.774,-466.7238 256.3591,-513.9651 294,-540.5 298.8282,-543.9037 304.1095,-546.8457 309.612,-549.3884"/>
<polygon fill="#191970" stroke="#191970" points="217.4703,-436.0403 209.9829,-428.5443 211.1616,-439.0734 217.4703,-436.0403"/>
</g>
<!-- Node14 -->
<g id="node14" class="node">
<title>Node14</title>
<g id="a_node14"><a xlink:href="../../d0/da1/classSvtxSimPerformanceCheckReco.html#a1d70a654fae75f20cf3566e08119d80e" target="_top" xlink:title="SvtxSimPerformanceCheckReco\l::process_event">
<polygon fill="none" stroke="#000000" points="294,-498.5 294,-530.5 471,-530.5 471,-498.5 294,-498.5"/>
<text text-anchor="start" x="302" y="-517.5" font-family="FreeSans" font-size="10.00" fill="#000000">SvtxSimPerformanceCheckReco</text>
<text text-anchor="middle" x="382.5" y="-505.5" font-family="FreeSans" font-size="10.00" fill="#000000">::process_event</text>
</a>
</g>
</g>
<!-- Node2&#45;&gt;Node14 -->
<g id="edge14" class="edge">
<title>Node2&#45;&gt;Node14</title>
<path fill="none" stroke="#191970" d="M225.2345,-436.1101C242.508,-453.1793 267.8552,-475.5955 294,-489.5 300.3433,-492.8736 307.1912,-495.8336 314.1701,-498.4212"/>
<polygon fill="#191970" stroke="#191970" points="227.415,-433.3377 217.8923,-428.6935 222.4403,-438.2625 227.415,-433.3377"/>
</g>
<!-- Node15 -->
<g id="node15" class="node">
<title>Node15</title>
<g id="a_node15"><a xlink:href="../../d2/d85/classSvtxEvaluatorHaiwang.html#a0fd261422264aedc22d0506ef5e897c4" target="_top" xlink:title="dump the evaluator information into ntuple for external analysis">
<polygon fill="none" stroke="#000000" points="317,-447.5 317,-479.5 448,-479.5 448,-447.5 317,-447.5"/>
<text text-anchor="start" x="325" y="-466.5" font-family="FreeSans" font-size="10.00" fill="#000000">SvtxEvaluatorHaiwang</text>
<text text-anchor="middle" x="382.5" y="-454.5" font-family="FreeSans" font-size="10.00" fill="#000000">::fillOutputNtuples</text>
</a>
</g>
</g>
<!-- Node2&#45;&gt;Node15 -->
<g id="edge15" class="edge">
<title>Node2&#45;&gt;Node15</title>
<path fill="none" stroke="#191970" d="M268.0924,-431.1234C276.8015,-433.6076 285.617,-436.1184 294,-438.5 304.1363,-441.3797 314.9285,-444.4363 325.3645,-447.3871"/>
<polygon fill="#191970" stroke="#191970" points="268.9103,-427.7171 258.3337,-428.3382 266.9891,-434.4483 268.9103,-427.7171"/>
</g>
<!-- Node17 -->
<g id="node17" class="node">
<title>Node17</title>
<g id="a_node17"><a xlink:href="../../d9/d03/classTrackClusterEvaluator.html#a9ca3bdf0977a57e152003b989bd2e1ae" target="_top" xlink:title="TrackClusterEvaluator\l::processTruthTracks">
<polygon fill="none" stroke="#000000" points="318.5,-396.5 318.5,-428.5 446.5,-428.5 446.5,-396.5 318.5,-396.5"/>
<text text-anchor="start" x="326.5" y="-415.5" font-family="FreeSans" font-size="10.00" fill="#000000">TrackClusterEvaluator</text>
<text text-anchor="middle" x="382.5" y="-403.5" font-family="FreeSans" font-size="10.00" fill="#000000">::processTruthTracks</text>
</a>
</g>
</g>
<!-- Node2&#45;&gt;Node17 -->
<g id="edge17" class="edge">
<title>Node2&#45;&gt;Node17</title>
<path fill="none" stroke="#191970" d="M268.7476,-412.5C284.8967,-412.5 302.165,-412.5 318.243,-412.5"/>
<polygon fill="#191970" stroke="#191970" points="268.3206,-409.0001 258.3206,-412.5 268.3205,-416.0001 268.3206,-409.0001"/>
</g>
<!-- Node19 -->
<g id="node19" class="node">
<title>Node19</title>
<g id="a_node19"><a xlink:href="../../d9/d03/classTrackClusterEvaluator.html#a66cad1df2e8397a40eefe607cc3a792b" target="_top" xlink:title="TrackClusterEvaluator\l::processRecoTracks">
<polygon fill="none" stroke="#000000" points="318.5,-345.5 318.5,-377.5 446.5,-377.5 446.5,-345.5 318.5,-345.5"/>
<text text-anchor="start" x="326.5" y="-364.5" font-family="FreeSans" font-size="10.00" fill="#000000">TrackClusterEvaluator</text>
<text text-anchor="middle" x="382.5" y="-352.5" font-family="FreeSans" font-size="10.00" fill="#000000">::processRecoTracks</text>
</a>
</g>
</g>
<!-- Node2&#45;&gt;Node19 -->
<g id="edge19" class="edge">
<title>Node2&#45;&gt;Node19</title>
<path fill="none" stroke="#191970" d="M268.0937,-394.0054C287.0997,-388.6054 307.705,-382.751 326.1236,-377.5178"/>
<polygon fill="#191970" stroke="#191970" points="266.9833,-390.6823 258.3206,-396.7822 268.8965,-397.4158 266.9833,-390.6823"/>
</g>
<!-- Node20 -->
<g id="node20" class="node">
<title>Node20</title>
<g id="a_node20"><a xlink:href="../../d5/df8/classQAG4SimulationMicromegas.html#a7d91700abab98412e6b427f4098895ca" target="_top" xlink:title="evaluate clusters">
<polygon fill="none" stroke="#000000" points="302,-294.5 302,-326.5 463,-326.5 463,-294.5 302,-294.5"/>
<text text-anchor="start" x="310" y="-313.5" font-family="FreeSans" font-size="10.00" fill="#000000">QAG4SimulationMicromegas</text>
<text text-anchor="middle" x="382.5" y="-301.5" font-family="FreeSans" font-size="10.00" fill="#000000">::evaluate_clusters</text>
</a>
</g>
</g>
<!-- Node2&#45;&gt;Node20 -->
<g id="edge21" class="edge">
<title>Node2&#45;&gt;Node20</title>
<path fill="none" stroke="#191970" d="M225.2345,-388.8899C242.508,-371.8207 267.8552,-349.4045 294,-335.5 300.3433,-332.1264 307.1912,-329.1664 314.1701,-326.5788"/>
<polygon fill="#191970" stroke="#191970" points="222.4403,-386.7375 217.8923,-396.3065 227.415,-391.6623 222.4403,-386.7375"/>
</g>
<!-- Node22 -->
<g id="node22" class="node">
<title>Node22</title>
<g id="a_node22"><a xlink:href="../../df/db8/classQAG4SimulationTpc.html#aec3889f1254e0eec8b2b6f354e1375bd" target="_top" xlink:title="evaluate clusters">
<polygon fill="none" stroke="#000000" points="320.5,-243.5 320.5,-275.5 444.5,-275.5 444.5,-243.5 320.5,-243.5"/>
<text text-anchor="start" x="328.5" y="-262.5" font-family="FreeSans" font-size="10.00" fill="#000000">QAG4SimulationTpc::</text>
<text text-anchor="middle" x="382.5" y="-250.5" font-family="FreeSans" font-size="10.00" fill="#000000">evaluate_clusters</text>
</a>
</g>
</g>
<!-- Node2&#45;&gt;Node22 -->
<g id="edge23" class="edge">
<title>Node2&#45;&gt;Node22</title>
<path fill="none" stroke="#191970" d="M214.3612,-387.3489C228.774,-358.2762 256.3591,-311.0349 294,-284.5 301.8296,-278.9805 310.8505,-274.675 320.0742,-271.3176"/>
<polygon fill="#191970" stroke="#191970" points="211.1616,-385.9266 209.9829,-396.4557 217.4703,-388.9597 211.1616,-385.9266"/>
</g>
<!-- Node24 -->
<g id="node24" class="node">
<title>Node24</title>
<g id="a_node24"><a xlink:href="../../de/dbf/classQAG4SimulationTracking.html#ac2aeab5238fcf828f70c61b4976b57fe" target="_top" xlink:title="QAG4SimulationTracking\l::process_event">
<polygon fill="none" stroke="#000000" points="312,-192.5 312,-224.5 453,-224.5 453,-192.5 312,-192.5"/>
<text text-anchor="start" x="320" y="-211.5" font-family="FreeSans" font-size="10.00" fill="#000000">QAG4SimulationTracking</text>
<text text-anchor="middle" x="382.5" y="-199.5" font-family="FreeSans" font-size="10.00" fill="#000000">::process_event</text>
</a>
</g>
</g>
<!-- Node2&#45;&gt;Node24 -->
<g id="edge25" class="edge">
<title>Node2&#45;&gt;Node24</title>
<path fill="none" stroke="#191970" d="M209.1451,-386.3092C219.6946,-347.1795 245.008,-273.7614 294,-233.5 299.3041,-229.1412 305.3232,-225.5413 311.6675,-222.5684"/>
<polygon fill="#191970" stroke="#191970" points="205.6561,-385.8237 206.5537,-396.3805 212.4353,-387.5681 205.6561,-385.8237"/>
</g>
<!-- Node25 -->
<g id="node25" class="node">
<title>Node25</title>
<g id="a_node25"><a xlink:href="../../da/d7d/classQAG4SimulationUpsilon.html#ab79aed70b129c1906b4d1986fe2a52d9" target="_top" xlink:title="QAG4SimulationUpsilon\l::process_event">
<polygon fill="none" stroke="#000000" points="314,-141.5 314,-173.5 451,-173.5 451,-141.5 314,-141.5"/>
<text text-anchor="start" x="322" y="-160.5" font-family="FreeSans" font-size="10.00" fill="#000000">QAG4SimulationUpsilon</text>
<text text-anchor="middle" x="382.5" y="-148.5" font-family="FreeSans" font-size="10.00" fill="#000000">::process_event</text>
</a>
</g>
</g>
<!-- Node2&#45;&gt;Node25 -->
<g id="edge26" class="edge">
<title>Node2&#45;&gt;Node25</title>
<path fill="none" stroke="#191970" d="M205.8379,-386.2652C212.413,-338.5711 233.1013,-237.5145 294,-182.5 299.8052,-177.2557 306.6305,-173.1031 313.8725,-169.8163"/>
<polygon fill="#191970" stroke="#191970" points="202.3396,-386.0296 204.5459,-396.3922 209.2834,-386.9155 202.3396,-386.0296"/>
</g>
<!-- Node26 -->
<g id="node26" class="node">
<title>Node26</title>
<g id="a_node26"><a xlink:href="../../d6/d11/classSvtxEvaluator.html#ace95fef2b7b4ad8b797f6695e053dd6e" target="_top" xlink:title="dump the evaluator information into ntuple for external analysis">
<polygon fill="none" stroke="#000000" points="312,-90.5 312,-122.5 453,-122.5 453,-90.5 312,-90.5"/>
<text text-anchor="start" x="320" y="-109.5" font-family="FreeSans" font-size="10.00" fill="#000000">SvtxEvaluator::fillOutput</text>
<text text-anchor="middle" x="382.5" y="-97.5" font-family="FreeSans" font-size="10.00" fill="#000000">Ntuples</text>
</a>
</g>
</g>
<!-- Node2&#45;&gt;Node26 -->
<g id="edge27" class="edge">
<title>Node2&#45;&gt;Node26</title>
<path fill="none" stroke="#191970" d="M208.2187,-386.221C221.1703,-323.5117 256.4613,-167.6433 294,-131.5 299.1756,-126.5168 305.2662,-122.513 311.7902,-119.2983"/>
<polygon fill="#191970" stroke="#191970" points="204.7672,-385.6302 206.1991,-396.1279 211.6261,-387.0285 204.7672,-385.6302"/>
</g>
<!-- Node4 -->
<g id="node4" class="node">
<title>Node4</title>
<g id="a_node4"><a xlink:href="../../db/d4b/classEMCalAna.html#a9647db89feef6823b38bbdeaf7de06c2" target="_top" xlink:title="EMCalAna::process_event\l_UpslisonTrig">
<polygon fill="none" stroke="#000000" points="517,-786.5 517,-818.5 664,-818.5 664,-786.5 517,-786.5"/>
<text text-anchor="start" x="525" y="-805.5" font-family="FreeSans" font-size="10.00" fill="#000000">EMCalAna::process_event</text>
<text text-anchor="middle" x="590.5" y="-793.5" font-family="FreeSans" font-size="10.00" fill="#000000">_UpslisonTrig</text>
</a>
</g>
</g>
<!-- Node3&#45;&gt;Node4 -->
<g id="edge3" class="edge">
<title>Node3&#45;&gt;Node4</title>
<path fill="none" stroke="#191970" d="M438.9233,-769.707C462.927,-774.9001 491.2409,-781.0257 516.8605,-786.5684"/>
<polygon fill="#191970" stroke="#191970" points="439.4344,-766.2366 428.9204,-767.5429 437.9541,-773.0783 439.4344,-766.2366"/>
</g>
<!-- Node6 -->
<g id="node6" class="node">
<title>Node6</title>
<g id="a_node6"><a xlink:href="../../db/d4b/classEMCalAna.html#a2e20101b8705ea086e2c7de88e95767d" target="_top" xlink:title="EMCalAna::process_event_Trk">
<polygon fill="none" stroke="#000000" points="507,-747.5 507,-767.5 674,-767.5 674,-747.5 507,-747.5"/>
<text text-anchor="middle" x="590.5" y="-754.5" font-family="FreeSans" font-size="10.00" fill="#000000">EMCalAna::process_event_Trk</text>
</a>
</g>
</g>
<!-- Node3&#45;&gt;Node6 -->
<g id="edge5" class="edge">
<title>Node3&#45;&gt;Node6</title>
<path fill="none" stroke="#191970" d="M449.7735,-757.5C467.8928,-757.5 487.7185,-757.5 506.622,-757.5"/>
<polygon fill="#191970" stroke="#191970" points="449.6121,-754.0001 439.612,-757.5 449.612,-761.0001 449.6121,-754.0001"/>
</g>
<!-- Node5 -->
<g id="node5" class="node">
<title>Node5</title>
<g id="a_node5"><a xlink:href="../../db/d4b/classEMCalAna.html#a3b829b80df0fd8625130f3d9c11f5d3d" target="_top" xlink:title="EMCalAna::process_event">
<polygon fill="none" stroke="#000000" points="710,-769.5 710,-789.5 857,-789.5 857,-769.5 710,-769.5"/>
<text text-anchor="middle" x="783.5" y="-776.5" font-family="FreeSans" font-size="10.00" fill="#000000">EMCalAna::process_event</text>
</a>
</g>
</g>
<!-- Node4&#45;&gt;Node5 -->
<g id="edge4" class="edge">
<title>Node4&#45;&gt;Node5</title>
<path fill="none" stroke="#191970" d="M673.9694,-792.5529C685.9148,-791.1293 698.1315,-789.6734 709.8693,-788.2746"/>
<polygon fill="#191970" stroke="#191970" points="673.5311,-789.0802 664.0156,-793.7391 674.3595,-796.0311 673.5311,-789.0802"/>
</g>
<!-- Node6&#45;&gt;Node5 -->
<g id="edge6" class="edge">
<title>Node6&#45;&gt;Node5</title>
<path fill="none" stroke="#191970" d="M684.1344,-768.1734C692.7679,-769.1575 701.4319,-770.1451 709.8499,-771.1046"/>
<polygon fill="#191970" stroke="#191970" points="684.3622,-764.6767 674.0301,-767.0216 683.5693,-771.6317 684.3622,-764.6767"/>
</g>
<!-- Node8 -->
<g id="node8" class="node">
<title>Node8</title>
<g id="a_node8"><a xlink:href="../../de/da4/classEMCalCalib.html#a8d33bc88a464878c873f29c9230ce7fe" target="_top" xlink:title="EMCalCalib::process\l_event_MCPhoton">
<polygon fill="none" stroke="#000000" points="531.5,-696.5 531.5,-728.5 649.5,-728.5 649.5,-696.5 531.5,-696.5"/>
<text text-anchor="start" x="539.5" y="-715.5" font-family="FreeSans" font-size="10.00" fill="#000000">EMCalCalib::process</text>
<text text-anchor="middle" x="590.5" y="-703.5" font-family="FreeSans" font-size="10.00" fill="#000000">_event_MCPhoton</text>
</a>
</g>
</g>
<!-- Node7&#45;&gt;Node8 -->
<g id="edge8" class="edge">
<title>Node7&#45;&gt;Node8</title>
<path fill="none" stroke="#191970" d="M463.4861,-712.5C486.123,-712.5 510.2915,-712.5 531.4042,-712.5"/>
<polygon fill="#191970" stroke="#191970" points="463.2096,-709.0001 453.2095,-712.5 463.2095,-716.0001 463.2096,-709.0001"/>
</g>
<!-- Node9 -->
<g id="node9" class="node">
<title>Node9</title>
<g id="a_node9"><a xlink:href="../../de/da4/classEMCalCalib.html#aa70da6270813e434e35da37b6ec2a350" target="_top" xlink:title="EMCalCalib::process\l_event">
<polygon fill="none" stroke="#000000" points="724.5,-696.5 724.5,-728.5 842.5,-728.5 842.5,-696.5 724.5,-696.5"/>
<text text-anchor="start" x="732.5" y="-715.5" font-family="FreeSans" font-size="10.00" fill="#000000">EMCalCalib::process</text>
<text text-anchor="middle" x="783.5" y="-703.5" font-family="FreeSans" font-size="10.00" fill="#000000">_event</text>
</a>
</g>
</g>
<!-- Node8&#45;&gt;Node9 -->
<g id="edge9" class="edge">
<title>Node8&#45;&gt;Node9</title>
<path fill="none" stroke="#191970" d="M659.9126,-712.5C681.0277,-712.5 704.0255,-712.5 724.394,-712.5"/>
<polygon fill="#191970" stroke="#191970" points="659.718,-709.0001 649.718,-712.5 659.7179,-716.0001 659.718,-709.0001"/>
</g>
<!-- Node11 -->
<g id="node11" class="node">
<title>Node11</title>
<g id="a_node11"><a xlink:href="../../d8/d98/classpsTOFTimezeroEval.html#a2e98730e1beaa91c36947c0fe671fdd2" target="_top" xlink:title="psTOFTimezeroEval::\lprocess_event">
<polygon fill="none" stroke="#000000" points="529.5,-645.5 529.5,-677.5 651.5,-677.5 651.5,-645.5 529.5,-645.5"/>
<text text-anchor="start" x="537.5" y="-664.5" font-family="FreeSans" font-size="10.00" fill="#000000">psTOFTimezeroEval::</text>
<text text-anchor="middle" x="590.5" y="-652.5" font-family="FreeSans" font-size="10.00" fill="#000000">process_event</text>
</a>
</g>
</g>
<!-- Node10&#45;&gt;Node11 -->
<g id="edge11" class="edge">
<title>Node10&#45;&gt;Node11</title>
<path fill="none" stroke="#191970" d="M453.5342,-665.4509C478.2288,-664.7386 505.6891,-663.9465 529.4997,-663.2596"/>
<polygon fill="#191970" stroke="#191970" points="453.3963,-661.9534 443.5014,-665.7403 453.5982,-668.9504 453.3963,-661.9534"/>
</g>
<!-- Node16 -->
<g id="node16" class="node">
<title>Node16</title>
<g id="a_node16"><a xlink:href="../../d2/d85/classSvtxEvaluatorHaiwang.html#ab63ca0cc53b56dad65b89d9b18220bce" target="_top" xlink:title="SvtxEvaluatorHaiwang\l::process_event">
<polygon fill="none" stroke="#000000" points="525,-447.5 525,-479.5 656,-479.5 656,-447.5 525,-447.5"/>
<text text-anchor="start" x="533" y="-466.5" font-family="FreeSans" font-size="10.00" fill="#000000">SvtxEvaluatorHaiwang</text>
<text text-anchor="middle" x="590.5" y="-454.5" font-family="FreeSans" font-size="10.00" fill="#000000">::process_event</text>
</a>
</g>
</g>
<!-- Node15&#45;&gt;Node16 -->
<g id="edge16" class="edge">
<title>Node15&#45;&gt;Node16</title>
<path fill="none" stroke="#191970" d="M458.2577,-463.5C480.1119,-463.5 503.7663,-463.5 524.9451,-463.5"/>
<polygon fill="#191970" stroke="#191970" points="458.027,-460.0001 448.027,-463.5 458.027,-467.0001 458.027,-460.0001"/>
</g>
<!-- Node18 -->
<g id="node18" class="node">
<title>Node18</title>
<g id="a_node18"><a xlink:href="../../d9/d03/classTrackClusterEvaluator.html#aad981fb932ceca8568402877088f2fad" target="_top" xlink:title="TrackClusterEvaluator\l::process_event">
<polygon fill="none" stroke="#000000" points="526.5,-371.5 526.5,-403.5 654.5,-403.5 654.5,-371.5 526.5,-371.5"/>
<text text-anchor="start" x="534.5" y="-390.5" font-family="FreeSans" font-size="10.00" fill="#000000">TrackClusterEvaluator</text>
<text text-anchor="middle" x="590.5" y="-378.5" font-family="FreeSans" font-size="10.00" fill="#000000">::process_event</text>
</a>
</g>
</g>
<!-- Node17&#45;&gt;Node18 -->
<g id="edge18" class="edge">
<title>Node17&#45;&gt;Node18</title>
<path fill="none" stroke="#191970" d="M456.5595,-403.5986C479.3299,-400.8618 504.1936,-397.8734 526.2495,-395.2224"/>
<polygon fill="#191970" stroke="#191970" points="456.1149,-400.1268 446.6041,-404.7952 456.9503,-407.0768 456.1149,-400.1268"/>
</g>
<!-- Node19&#45;&gt;Node18 -->
<g id="edge20" class="edge">
<title>Node19&#45;&gt;Node18</title>
<path fill="none" stroke="#191970" d="M456.5595,-370.7574C479.3299,-373.6037 504.1936,-376.7117 526.2495,-379.4687"/>
<polygon fill="#191970" stroke="#191970" points="456.961,-367.2805 446.6041,-369.513 456.0927,-374.2264 456.961,-367.2805"/>
</g>
<!-- Node21 -->
<g id="node21" class="node">
<title>Node21</title>
<g id="a_node21"><a xlink:href="../../d5/df8/classQAG4SimulationMicromegas.html#aaf9244726798d2865626790e62f3a218" target="_top" xlink:title="QAG4SimulationMicromegas\l::process_event">
<polygon fill="none" stroke="#000000" points="510,-294.5 510,-326.5 671,-326.5 671,-294.5 510,-294.5"/>
<text text-anchor="start" x="518" y="-313.5" font-family="FreeSans" font-size="10.00" fill="#000000">QAG4SimulationMicromegas</text>
<text text-anchor="middle" x="590.5" y="-301.5" font-family="FreeSans" font-size="10.00" fill="#000000">::process_event</text>
</a>
</g>
</g>
<!-- Node20&#45;&gt;Node21 -->
<g id="edge22" class="edge">
<title>Node20&#45;&gt;Node21</title>
<path fill="none" stroke="#191970" d="M473.3448,-310.5C485.4887,-310.5 497.8758,-310.5 509.8294,-310.5"/>
<polygon fill="#191970" stroke="#191970" points="473.216,-307.0001 463.2159,-310.5 473.2159,-314.0001 473.216,-307.0001"/>
</g>
<!-- Node23 -->
<g id="node23" class="node">
<title>Node23</title>
<g id="a_node23"><a xlink:href="../../df/db8/classQAG4SimulationTpc.html#aaecb5e12b4083bd235ec7200368c58fc" target="_top" xlink:title="QAG4SimulationTpc::\lprocess_event">
<polygon fill="none" stroke="#000000" points="528.5,-243.5 528.5,-275.5 652.5,-275.5 652.5,-243.5 528.5,-243.5"/>
<text text-anchor="start" x="536.5" y="-262.5" font-family="FreeSans" font-size="10.00" fill="#000000">QAG4SimulationTpc::</text>
<text text-anchor="middle" x="590.5" y="-250.5" font-family="FreeSans" font-size="10.00" fill="#000000">process_event</text>
</a>
</g>
</g>
<!-- Node22&#45;&gt;Node23 -->
<g id="edge24" class="edge">
<title>Node22&#45;&gt;Node23</title>
<path fill="none" stroke="#191970" d="M454.7324,-259.5C478.7117,-259.5 505.1835,-259.5 528.3358,-259.5"/>
<polygon fill="#191970" stroke="#191970" points="454.6251,-256.0001 444.6251,-259.5 454.6251,-263.0001 454.6251,-256.0001"/>
</g>
<!-- Node27 -->
<g id="node27" class="node">
<title>Node27</title>
<g id="a_node27"><a xlink:href="../../d6/d11/classSvtxEvaluator.html#a1eb230f92b6f2cabb175f1349697200d" target="_top" xlink:title="SvtxEvaluator::process\l_event">
<polygon fill="none" stroke="#000000" points="524.5,-90.5 524.5,-122.5 656.5,-122.5 656.5,-90.5 524.5,-90.5"/>
<text text-anchor="start" x="532.5" y="-109.5" font-family="FreeSans" font-size="10.00" fill="#000000">SvtxEvaluator::process</text>
<text text-anchor="middle" x="590.5" y="-97.5" font-family="FreeSans" font-size="10.00" fill="#000000">_event</text>
</a>
</g>
</g>
<!-- Node26&#45;&gt;Node27 -->
<g id="edge28" class="edge">
<title>Node26&#45;&gt;Node27</title>
<path fill="none" stroke="#191970" d="M463.3034,-106.5C483.456,-106.5 504.8331,-106.5 524.1944,-106.5"/>
<polygon fill="#191970" stroke="#191970" points="463.2096,-103.0001 453.2095,-106.5 463.2095,-110.0001 463.2096,-103.0001"/>
</g>
<!-- Node29 -->
<g id="node29" class="node">
<title>Node29</title>
<g id="a_node29"><a xlink:href="../../dd/d59/classCaloEvaluator.html#ab7e09466d57c5b93274f09f61c0f321e" target="_top" xlink:title="print out the ancestry information for detailed diagnosis">
<polygon fill="none" stroke="#000000" points="297,-51.5 297,-71.5 468,-71.5 468,-51.5 297,-51.5"/>
<text text-anchor="middle" x="382.5" y="-58.5" font-family="FreeSans" font-size="10.00" fill="#000000">CaloEvaluator::printOutputInfo</text>
</a>
</g>
</g>
<!-- Node28&#45;&gt;Node29 -->
<g id="edge30" class="edge">
<title>Node28&#45;&gt;Node29</title>
<path fill="none" stroke="#191970" d="M268.5796,-61.5C277.8258,-61.5 287.4418,-61.5 296.9936,-61.5"/>
<polygon fill="#191970" stroke="#191970" points="268.3206,-58.0001 258.3206,-61.5 268.3205,-65.0001 268.3206,-58.0001"/>
</g>
<!-- Node31 -->
<g id="node31" class="node">
<title>Node31</title>
<g id="a_node31"><a xlink:href="../../dd/d59/classCaloEvaluator.html#a5298ee9646d361a4960fc0e20f83c880" target="_top" xlink:title="dump the evaluator information into ntuple for external analysis">
<polygon fill="none" stroke="#000000" points="312,-.5 312,-32.5 453,-32.5 453,-.5 312,-.5"/>
<text text-anchor="start" x="320" y="-19.5" font-family="FreeSans" font-size="10.00" fill="#000000">CaloEvaluator::fillOutput</text>
<text text-anchor="middle" x="382.5" y="-7.5" font-family="FreeSans" font-size="10.00" fill="#000000">Ntuples</text>
</a>
</g>
</g>
<!-- Node28&#45;&gt;Node31 -->
<g id="edge32" class="edge">
<title>Node28&#45;&gt;Node31</title>
<path fill="none" stroke="#191970" d="M268.3416,-45.1191C284.7139,-41.0146 302.2592,-36.6161 318.5624,-32.5289"/>
<polygon fill="#191970" stroke="#191970" points="267.1693,-41.8046 258.3206,-47.6313 268.8715,-48.5945 267.1693,-41.8046"/>
</g>
<!-- Node30 -->
<g id="node30" class="node">
<title>Node30</title>
<g id="a_node30"><a xlink:href="../../dd/d59/classCaloEvaluator.html#ab0007637af39a6efee41168c44d5bbdf" target="_top" xlink:title="CaloEvaluator::process\l_event">
<polygon fill="none" stroke="#000000" points="524.5,-20.5 524.5,-52.5 656.5,-52.5 656.5,-20.5 524.5,-20.5"/>
<text text-anchor="start" x="532.5" y="-39.5" font-family="FreeSans" font-size="10.00" fill="#000000">CaloEvaluator::process</text>
<text text-anchor="middle" x="590.5" y="-27.5" font-family="FreeSans" font-size="10.00" fill="#000000">_event</text>
</a>
</g>
</g>
<!-- Node29&#45;&gt;Node30 -->
<g id="edge31" class="edge">
<title>Node29&#45;&gt;Node30</title>
<path fill="none" stroke="#191970" d="M476.0008,-50.2619C492.3139,-48.3012 508.9752,-46.2987 524.357,-44.4499"/>
<polygon fill="#191970" stroke="#191970" points="475.4139,-46.8072 465.9031,-51.4756 476.2493,-53.7572 475.4139,-46.8072"/>
</g>
<!-- Node31&#45;&gt;Node30 -->
<g id="edge33" class="edge">
<title>Node31&#45;&gt;Node30</title>
<path fill="none" stroke="#191970" d="M463.3034,-24.2696C483.456,-26.2073 504.8331,-28.2628 524.1944,-30.1245"/>
<polygon fill="#191970" stroke="#191970" points="463.4987,-20.7723 453.2095,-23.299 462.8286,-27.7401 463.4987,-20.7723"/>
</g>
</g>
</svg>
