<?xml version="1.0" encoding="UTF-8" standalone="no"?>
<!DOCTYPE svg PUBLIC "-//W3C//DTD SVG 1.1//EN"
 "http://www.w3.org/Graphics/SVG/1.1/DTD/svg11.dtd">
<!-- Generated by graphviz version 2.40.1 (20161225.0304)
 -->
<!-- Title: BaseTruthEval::next_event Pages: 1 -->
<svg width="2035pt" height="781pt"
 viewBox="0.00 0.00 2035.00 781.29" xmlns="http://www.w3.org/2000/svg" xmlns:xlink="http://www.w3.org/1999/xlink">
<g id="graph0" class="graph" transform="scale(1 1) rotate(0) translate(4 777.2855)">
<title>BaseTruthEval::next_event</title>
<!-- Node1 -->
<g id="node1" class="node">
<title>Node1</title>
<polygon fill="#bfbfbf" stroke="#000000" points="0,-641.7855 0,-673.7855 118,-673.7855 118,-641.7855 0,-641.7855"/>
<text text-anchor="start" x="8" y="-660.7855" font-family="FreeSans" font-size="10.00" fill="#000000">BaseTruthEval::next</text>
<text text-anchor="middle" x="59" y="-648.7855" font-family="FreeSans" font-size="10.00" fill="#000000">_event</text>
</g>
<!-- Node2 -->
<g id="node2" class="node">
<title>Node2</title>
<g id="a_node2"><a xlink:href="../../d7/d3c/classCaloTruthEval.html#a13d63607fef75249cc7dcbf2bda5cf33" target="_top" xlink:title="reinitialize the eval for a new event">
<polygon fill="none" stroke="#000000" points="154,-667.7855 154,-699.7855 269,-699.7855 269,-667.7855 154,-667.7855"/>
<text text-anchor="start" x="162" y="-686.7855" font-family="FreeSans" font-size="10.00" fill="#000000">CaloTruthEval::next</text>
<text text-anchor="middle" x="211.5" y="-674.7855" font-family="FreeSans" font-size="10.00" fill="#000000">_event</text>
</a>
</g>
</g>
<!-- Node1&#45;&gt;Node2 -->
<g id="edge1" class="edge">
<title>Node1&#45;&gt;Node2</title>
<path fill="none" stroke="#191970" d="M128.5141,-669.6371C136.8749,-671.0625 145.3445,-672.5065 153.5167,-673.8998"/>
<polygon fill="#191970" stroke="#191970" points="128.8432,-666.1427 118.3972,-667.9122 127.6666,-673.0432 128.8432,-666.1427"/>
</g>
<!-- Node16 -->
<g id="node16" class="node">
<title>Node16</title>
<g id="a_node16"><a xlink:href="../../d4/de4/classSvtxTruthEval.html#ac13b62af4f46d9ba4e0e41f1c42e8770" target="_top" xlink:title="SvtxTruthEval::next\l_event">
<polygon fill="none" stroke="#000000" points="154,-616.7855 154,-648.7855 269,-648.7855 269,-616.7855 154,-616.7855"/>
<text text-anchor="start" x="162" y="-635.7855" font-family="FreeSans" font-size="10.00" fill="#000000">SvtxTruthEval::next</text>
<text text-anchor="middle" x="211.5" y="-623.7855" font-family="FreeSans" font-size="10.00" fill="#000000">_event</text>
</a>
</g>
</g>
<!-- Node1&#45;&gt;Node16 -->
<g id="edge16" class="edge">
<title>Node1&#45;&gt;Node16</title>
<path fill="none" stroke="#191970" d="M128.5141,-646.3897C136.8749,-645.0191 145.3445,-643.6306 153.5167,-642.2909"/>
<polygon fill="#191970" stroke="#191970" points="127.6992,-642.9765 118.3972,-648.0482 128.8317,-649.8843 127.6992,-642.9765"/>
</g>
<!-- Node3 -->
<g id="node3" class="node">
<title>Node3</title>
<g id="a_node3"><a xlink:href="../../de/d0b/classCaloRawTowerEval.html#a1553c46239b752b02a3b86b77ad98389" target="_top" xlink:title="reinitialize the eval for a new event">
<polygon fill="none" stroke="#000000" points="305,-670.7855 305,-702.7855 445,-702.7855 445,-670.7855 305,-670.7855"/>
<text text-anchor="start" x="313" y="-689.7855" font-family="FreeSans" font-size="10.00" fill="#000000">CaloRawTowerEval::next</text>
<text text-anchor="middle" x="375" y="-677.7855" font-family="FreeSans" font-size="10.00" fill="#000000">_event</text>
</a>
</g>
</g>
<!-- Node2&#45;&gt;Node3 -->
<g id="edge2" class="edge">
<title>Node2&#45;&gt;Node3</title>
<path fill="none" stroke="#191970" d="M279.3421,-685.0303C287.8069,-685.1856 296.4767,-685.3447 304.9739,-685.5006"/>
<polygon fill="#191970" stroke="#191970" points="279.2065,-681.5273 269.144,-684.8432 279.0781,-688.5261 279.2065,-681.5273"/>
</g>
<!-- Node4 -->
<g id="node4" class="node">
<title>Node4</title>
<g id="a_node4"><a xlink:href="../../da/d7e/classCaloRawClusterEval.html#a05ef076f8d5fd83f1ff552eb839f5689" target="_top" xlink:title="reinitialize the eval for a new event">
<polygon fill="none" stroke="#000000" points="485.5,-674.7855 485.5,-706.7855 601.5,-706.7855 601.5,-674.7855 485.5,-674.7855"/>
<text text-anchor="start" x="493.5" y="-693.7855" font-family="FreeSans" font-size="10.00" fill="#000000">CaloRawClusterEval</text>
<text text-anchor="middle" x="543.5" y="-681.7855" font-family="FreeSans" font-size="10.00" fill="#000000">::next_event</text>
</a>
</g>
</g>
<!-- Node3&#45;&gt;Node4 -->
<g id="edge3" class="edge">
<title>Node3&#45;&gt;Node4</title>
<path fill="none" stroke="#191970" d="M455.4918,-688.6963C465.5459,-688.9349 475.6715,-689.1753 485.2944,-689.4037"/>
<polygon fill="#191970" stroke="#191970" points="455.5631,-685.1971 445.4829,-688.4587 455.3969,-692.1951 455.5631,-685.1971"/>
</g>
<!-- Node5 -->
<g id="node5" class="node">
<title>Node5</title>
<g id="a_node5"><a xlink:href="../../db/d10/classCaloEvalStack.html#a6d60a0a1ce8c1e26075065ea725e5351" target="_top" xlink:title="CaloEvalStack::next\l_event">
<polygon fill="none" stroke="#000000" points="645,-682.7855 645,-714.7855 762,-714.7855 762,-682.7855 645,-682.7855"/>
<text text-anchor="start" x="653" y="-701.7855" font-family="FreeSans" font-size="10.00" fill="#000000">CaloEvalStack::next</text>
<text text-anchor="middle" x="703.5" y="-689.7855" font-family="FreeSans" font-size="10.00" fill="#000000">_event</text>
</a>
</g>
</g>
<!-- Node4&#45;&gt;Node5 -->
<g id="edge4" class="edge">
<title>Node4&#45;&gt;Node5</title>
<path fill="none" stroke="#191970" d="M611.7146,-694.1962C622.7217,-694.7466 634.0331,-695.3121 644.7906,-695.85"/>
<polygon fill="#191970" stroke="#191970" points="611.8786,-690.7001 601.7163,-693.6963 611.529,-697.6914 611.8786,-690.7001"/>
</g>
<!-- Node6 -->
<g id="node6" class="node">
<title>Node6</title>
<g id="a_node6"><a xlink:href="../../dd/d59/classCaloEvaluator.html#ab0007637af39a6efee41168c44d5bbdf" target="_top" xlink:title="CaloEvaluator::process\l_event">
<polygon fill="none" stroke="#000000" points="804.5,-740.7855 804.5,-772.7855 936.5,-772.7855 936.5,-740.7855 804.5,-740.7855"/>
<text text-anchor="start" x="812.5" y="-759.7855" font-family="FreeSans" font-size="10.00" fill="#000000">CaloEvaluator::process</text>
<text text-anchor="middle" x="870.5" y="-747.7855" font-family="FreeSans" font-size="10.00" fill="#000000">_event</text>
</a>
</g>
</g>
<!-- Node5&#45;&gt;Node6 -->
<g id="edge5" class="edge">
<title>Node5&#45;&gt;Node6</title>
<path fill="none" stroke="#191970" d="M759.0819,-718.0894C780.2358,-725.4362 804.0912,-733.7213 824.2852,-740.7348"/>
<polygon fill="#191970" stroke="#191970" points="760.1704,-714.7624 749.5756,-714.7878 757.8737,-721.3749 760.1704,-714.7624"/>
</g>
<!-- Node7 -->
<g id="node7" class="node">
<title>Node7</title>
<g id="a_node7"><a xlink:href="../../db/d22/classEventEvaluator.html#a5b4dc2c7afd4f3844396f08cc9c555ad" target="_top" xlink:title="EventEvaluator::process\l_event">
<polygon fill="none" stroke="#000000" points="801,-689.7855 801,-721.7855 940,-721.7855 940,-689.7855 801,-689.7855"/>
<text text-anchor="start" x="809" y="-708.7855" font-family="FreeSans" font-size="10.00" fill="#000000">EventEvaluator::process</text>
<text text-anchor="middle" x="870.5" y="-696.7855" font-family="FreeSans" font-size="10.00" fill="#000000">_event</text>
</a>
</g>
</g>
<!-- Node5&#45;&gt;Node7 -->
<g id="edge6" class="edge">
<title>Node5&#45;&gt;Node7</title>
<path fill="none" stroke="#191970" d="M772.4009,-701.6735C781.7503,-702.0654 791.3516,-702.4679 800.7163,-702.8604"/>
<polygon fill="#191970" stroke="#191970" points="772.5158,-698.1754 762.378,-701.2534 772.2226,-705.1692 772.5158,-698.1754"/>
</g>
<!-- Node8 -->
<g id="node8" class="node">
<title>Node8</title>
<g id="a_node8"><a xlink:href="../../d3/d22/classJetTruthEval.html#ac29b8d18ee116903ed233388eb253256" target="_top" xlink:title="reinitialize the eval for a new event">
<polygon fill="none" stroke="#000000" points="1154.5,-652.7855 1154.5,-684.7855 1261.5,-684.7855 1261.5,-652.7855 1154.5,-652.7855"/>
<text text-anchor="start" x="1162.5" y="-671.7855" font-family="FreeSans" font-size="10.00" fill="#000000">JetTruthEval::next</text>
<text text-anchor="middle" x="1208" y="-659.7855" font-family="FreeSans" font-size="10.00" fill="#000000">_event</text>
</a>
</g>
</g>
<!-- Node5&#45;&gt;Node8 -->
<g id="edge7" class="edge">
<title>Node5&#45;&gt;Node8</title>
<path fill="none" stroke="#191970" d="M772.0634,-684.767C781.7446,-683.1855 791.5993,-681.7859 801,-680.7855 927.1769,-667.3582 1076.5087,-666.8608 1154.4904,-667.7627"/>
<polygon fill="#191970" stroke="#191970" points="771.3332,-681.3409 762.0637,-686.4719 772.5097,-688.2413 771.3332,-681.3409"/>
</g>
<!-- Node9 -->
<g id="node9" class="node">
<title>Node9</title>
<g id="a_node9"><a xlink:href="../../dd/d75/classJetRecoEval.html#ae02e058aa7f403d5853482b5d06c01c9" target="_top" xlink:title="reinitialize the eval for a new event">
<polygon fill="none" stroke="#000000" points="1332,-603.7855 1332,-623.7855 1472,-623.7855 1472,-603.7855 1332,-603.7855"/>
<text text-anchor="middle" x="1402" y="-610.7855" font-family="FreeSans" font-size="10.00" fill="#000000">JetRecoEval::next_event</text>
</a>
</g>
</g>
<!-- Node8&#45;&gt;Node9 -->
<g id="edge8" class="edge">
<title>Node8&#45;&gt;Node9</title>
<path fill="none" stroke="#191970" d="M1271.169,-650.8767C1302.872,-641.8888 1340.087,-631.3381 1366.7037,-623.7922"/>
<polygon fill="#191970" stroke="#191970" points="1270.1911,-647.516 1261.5249,-653.6109 1272.1004,-654.2506 1270.1911,-647.516"/>
</g>
<!-- Node10 -->
<g id="node10" class="node">
<title>Node10</title>
<g id="a_node10"><a xlink:href="../../dd/df3/classJetEvalStack.html#ab85ba05ab4fea5909c8faa238ba5f8e6" target="_top" xlink:title="JetEvalStack::next\l_event">
<polygon fill="none" stroke="#000000" points="1527,-492.7855 1527,-524.7855 1636,-524.7855 1636,-492.7855 1527,-492.7855"/>
<text text-anchor="start" x="1535" y="-511.7855" font-family="FreeSans" font-size="10.00" fill="#000000">JetEvalStack::next</text>
<text text-anchor="middle" x="1581.5" y="-499.7855" font-family="FreeSans" font-size="10.00" fill="#000000">_event</text>
</a>
</g>
</g>
<!-- Node9&#45;&gt;Node10 -->
<g id="edge9" class="edge">
<title>Node9&#45;&gt;Node10</title>
<path fill="none" stroke="#191970" d="M1427.9737,-598.592C1461.4912,-578.9856 1519.5607,-545.0174 1553.8664,-524.95"/>
<polygon fill="#191970" stroke="#191970" points="1426.0757,-595.6473 1419.2112,-603.7176 1429.6101,-601.6895 1426.0757,-595.6473"/>
</g>
<!-- Node11 -->
<g id="node11" class="node">
<title>Node11</title>
<g id="a_node11"><a xlink:href="../../d8/de2/classJetEnergies.html#a6acaa9b2ba1fe7353781d2f5d476e8d1" target="_top" xlink:title="JetEnergies::process\l_event">
<polygon fill="none" stroke="#000000" points="1716.5,-543.7855 1716.5,-575.7855 1836.5,-575.7855 1836.5,-543.7855 1716.5,-543.7855"/>
<text text-anchor="start" x="1724.5" y="-562.7855" font-family="FreeSans" font-size="10.00" fill="#000000">JetEnergies::process</text>
<text text-anchor="middle" x="1776.5" y="-550.7855" font-family="FreeSans" font-size="10.00" fill="#000000">_event</text>
</a>
</g>
</g>
<!-- Node10&#45;&gt;Node11 -->
<g id="edge10" class="edge">
<title>Node10&#45;&gt;Node11</title>
<path fill="none" stroke="#191970" d="M1645.9666,-525.646C1668.6857,-531.5879 1694.1185,-538.2395 1716.4575,-544.0821"/>
<polygon fill="#191970" stroke="#191970" points="1646.6379,-522.2039 1636.0777,-523.0596 1644.8666,-528.9761 1646.6379,-522.2039"/>
</g>
<!-- Node12 -->
<g id="node12" class="node">
<title>Node12</title>
<g id="a_node12"><a xlink:href="../../d1/df4/classJetEvaluator.html#abd1af43deddc4ce57f0ef562c23deacb" target="_top" xlink:title="JetEvaluator::process\l_event">
<polygon fill="none" stroke="#000000" points="1714.5,-492.7855 1714.5,-524.7855 1838.5,-524.7855 1838.5,-492.7855 1714.5,-492.7855"/>
<text text-anchor="start" x="1722.5" y="-511.7855" font-family="FreeSans" font-size="10.00" fill="#000000">JetEvaluator::process</text>
<text text-anchor="middle" x="1776.5" y="-499.7855" font-family="FreeSans" font-size="10.00" fill="#000000">_event</text>
</a>
</g>
</g>
<!-- Node10&#45;&gt;Node12 -->
<g id="edge11" class="edge">
<title>Node10&#45;&gt;Node12</title>
<path fill="none" stroke="#191970" d="M1646.289,-508.7855C1668.2204,-508.7855 1692.6494,-508.7855 1714.3694,-508.7855"/>
<polygon fill="#191970" stroke="#191970" points="1646.0777,-505.2856 1636.0777,-508.7855 1646.0776,-512.2856 1646.0777,-505.2856"/>
</g>
<!-- Node13 -->
<g id="node13" class="node">
<title>Node13</title>
<g id="a_node13"><a xlink:href="../../d0/da9/classAnaTutorial.html#af69547260745ac326654881490df1cb0" target="_top" xlink:title="AnaTutorial::getTruthJets">
<polygon fill="none" stroke="#000000" points="1706,-453.7855 1706,-473.7855 1847,-473.7855 1847,-453.7855 1706,-453.7855"/>
<text text-anchor="middle" x="1776.5" y="-460.7855" font-family="FreeSans" font-size="10.00" fill="#000000">AnaTutorial::getTruthJets</text>
</a>
</g>
</g>
<!-- Node10&#45;&gt;Node13 -->
<g id="edge12" class="edge">
<title>Node10&#45;&gt;Node13</title>
<path fill="none" stroke="#191970" d="M1646.0279,-491.535C1657.9605,-488.5035 1670.3358,-485.4648 1682,-482.7855 1695.5372,-479.676 1710.2299,-476.5856 1723.906,-473.8287"/>
<polygon fill="#191970" stroke="#191970" points="1644.9514,-488.1977 1636.134,-494.0716 1646.69,-494.9784 1644.9514,-488.1977"/>
</g>
<!-- Node15 -->
<g id="node15" class="node">
<title>Node15</title>
<g id="a_node15"><a xlink:href="../../d0/da9/classAnaTutorial.html#a9068984e2eafee47f54de4c802d23168" target="_top" xlink:title="AnaTutorial::getReconstructedJets">
<polygon fill="none" stroke="#000000" points="1682,-414.7855 1682,-434.7855 1871,-434.7855 1871,-414.7855 1682,-414.7855"/>
<text text-anchor="middle" x="1776.5" y="-421.7855" font-family="FreeSans" font-size="10.00" fill="#000000">AnaTutorial::getReconstructedJets</text>
</a>
</g>
</g>
<!-- Node10&#45;&gt;Node15 -->
<g id="edge14" class="edge">
<title>Node10&#45;&gt;Node15</title>
<path fill="none" stroke="#191970" d="M1609.4657,-486.5849C1628.7952,-472.3092 1655.6757,-454.4912 1682,-443.7855 1690.9135,-440.1605 1700.5903,-437.2054 1710.2379,-434.8021"/>
<polygon fill="#191970" stroke="#191970" points="1607.2885,-483.843 1601.4068,-492.6554 1611.5001,-489.4343 1607.2885,-483.843"/>
</g>
<!-- Node14 -->
<g id="node14" class="node">
<title>Node14</title>
<g id="a_node14"><a xlink:href="../../d0/da9/classAnaTutorial.html#a3b64c061aaffaf4a42631434fb7eb6f9" target="_top" xlink:title="SubsysReco event processing method.">
<polygon fill="none" stroke="#000000" points="1907,-408.7855 1907,-440.7855 2027,-440.7855 2027,-408.7855 1907,-408.7855"/>
<text text-anchor="start" x="1915" y="-427.7855" font-family="FreeSans" font-size="10.00" fill="#000000">AnaTutorial::process</text>
<text text-anchor="middle" x="1967" y="-415.7855" font-family="FreeSans" font-size="10.00" fill="#000000">_event</text>
</a>
</g>
</g>
<!-- Node13&#45;&gt;Node14 -->
<g id="edge13" class="edge">
<title>Node13&#45;&gt;Node14</title>
<path fill="none" stroke="#191970" d="M1835.4051,-451.7262C1858.1109,-447.0777 1884.0585,-441.7656 1906.8779,-437.0939"/>
<polygon fill="#191970" stroke="#191970" points="1834.6533,-448.3074 1825.5585,-453.742 1836.0573,-455.1652 1834.6533,-448.3074"/>
</g>
<!-- Node15&#45;&gt;Node14 -->
<g id="edge15" class="edge">
<title>Node15&#45;&gt;Node14</title>
<path fill="none" stroke="#191970" d="M1881.4198,-424.7855C1890.105,-424.7855 1898.6818,-424.7855 1906.8574,-424.7855"/>
<polygon fill="#191970" stroke="#191970" points="1881.1919,-421.2856 1871.1919,-424.7855 1881.1919,-428.2856 1881.1919,-421.2856"/>
</g>
<!-- Node17 -->
<g id="node17" class="node">
<title>Node17</title>
<g id="a_node17"><a xlink:href="../../d9/d62/classSvtxHitEval.html#a2b8bd81cd1feca366d3dec9b52f1658e" target="_top" xlink:title="SvtxHitEval::next_event">
<polygon fill="none" stroke="#000000" points="306,-622.7855 306,-642.7855 444,-642.7855 444,-622.7855 306,-622.7855"/>
<text text-anchor="middle" x="375" y="-629.7855" font-family="FreeSans" font-size="10.00" fill="#000000">SvtxHitEval::next_event</text>
</a>
</g>
</g>
<!-- Node16&#45;&gt;Node17 -->
<g id="edge17" class="edge">
<title>Node16&#45;&gt;Node17</title>
<path fill="none" stroke="#191970" d="M279.3023,-632.7855C288.0632,-632.7855 297.0443,-632.7855 305.827,-632.7855"/>
<polygon fill="#191970" stroke="#191970" points="279.144,-629.2856 269.144,-632.7855 279.1439,-636.2856 279.144,-629.2856"/>
</g>
<!-- Node18 -->
<g id="node18" class="node">
<title>Node18</title>
<g id="a_node18"><a xlink:href="../../d1/d1e/classSvtxClusterEval.html#a0f23d4c63d0e893560d423db7e02578d" target="_top" xlink:title="SvtxClusterEval::next\l_event">
<polygon fill="none" stroke="#000000" points="481,-616.7855 481,-648.7855 606,-648.7855 606,-616.7855 481,-616.7855"/>
<text text-anchor="start" x="489" y="-635.7855" font-family="FreeSans" font-size="10.00" fill="#000000">SvtxClusterEval::next</text>
<text text-anchor="middle" x="543.5" y="-623.7855" font-family="FreeSans" font-size="10.00" fill="#000000">_event</text>
</a>
</g>
</g>
<!-- Node17&#45;&gt;Node18 -->
<g id="edge18" class="edge">
<title>Node17&#45;&gt;Node18</title>
<path fill="none" stroke="#191970" d="M454.0887,-632.7855C463.054,-632.7855 472.0975,-632.7855 480.8111,-632.7855"/>
<polygon fill="#191970" stroke="#191970" points="454.0216,-629.2856 444.0216,-632.7855 454.0215,-636.2856 454.0216,-629.2856"/>
</g>
<!-- Node19 -->
<g id="node19" class="node">
<title>Node19</title>
<g id="a_node19"><a xlink:href="../../d5/da2/classPHTruthTrackSeeding.html#a37f708048770642f57f15675683c2cac" target="_top" xlink:title="PHTruthTrackSeeding\l::Process">
<polygon fill="none" stroke="#000000" points="642,-616.7855 642,-648.7855 765,-648.7855 765,-616.7855 642,-616.7855"/>
<text text-anchor="start" x="650" y="-635.7855" font-family="FreeSans" font-size="10.00" fill="#000000">PHTruthTrackSeeding</text>
<text text-anchor="middle" x="703.5" y="-623.7855" font-family="FreeSans" font-size="10.00" fill="#000000">::Process</text>
</a>
</g>
</g>
<!-- Node18&#45;&gt;Node19 -->
<g id="edge19" class="edge">
<title>Node18&#45;&gt;Node19</title>
<path fill="none" stroke="#191970" d="M616.5545,-632.7855C625.0442,-632.7855 633.6391,-632.7855 641.9527,-632.7855"/>
<polygon fill="#191970" stroke="#191970" points="616.2771,-629.2856 606.277,-632.7855 616.277,-636.2856 616.2771,-629.2856"/>
</g>
<!-- Node20 -->
<g id="node20" class="node">
<title>Node20</title>
<g id="a_node20"><a xlink:href="../../df/dad/classSvtxTrackEval.html#aff069c6fdb0f6d80147b65a98878d90f" target="_top" xlink:title="SvtxTrackEval::next\l_event">
<polygon fill="none" stroke="#000000" points="645.5,-535.7855 645.5,-567.7855 761.5,-567.7855 761.5,-535.7855 645.5,-535.7855"/>
<text text-anchor="start" x="653.5" y="-554.7855" font-family="FreeSans" font-size="10.00" fill="#000000">SvtxTrackEval::next</text>
<text text-anchor="middle" x="703.5" y="-542.7855" font-family="FreeSans" font-size="10.00" fill="#000000">_event</text>
</a>
</g>
</g>
<!-- Node18&#45;&gt;Node20 -->
<g id="edge20" class="edge">
<title>Node18&#45;&gt;Node20</title>
<path fill="none" stroke="#191970" d="M584.3492,-612.1056C611.4921,-598.3645 646.6153,-580.5833 671.6814,-567.8936"/>
<polygon fill="#191970" stroke="#191970" points="582.4519,-609.1431 575.1109,-616.7825 585.6136,-615.3884 582.4519,-609.1431"/>
</g>
<!-- Node21 -->
<g id="node21" class="node">
<title>Node21</title>
<g id="a_node21"><a xlink:href="../../d4/d21/classSvtxVertexEval.html#ad872cdf8407f2f483af522aed6786a40" target="_top" xlink:title="SvtxVertexEval::next\l_event">
<polygon fill="none" stroke="#000000" points="809.5,-417.7855 809.5,-449.7855 931.5,-449.7855 931.5,-417.7855 809.5,-417.7855"/>
<text text-anchor="start" x="817.5" y="-436.7855" font-family="FreeSans" font-size="10.00" fill="#000000">SvtxVertexEval::next</text>
<text text-anchor="middle" x="870.5" y="-424.7855" font-family="FreeSans" font-size="10.00" fill="#000000">_event</text>
</a>
</g>
</g>
<!-- Node20&#45;&gt;Node21 -->
<g id="edge21" class="edge">
<title>Node20&#45;&gt;Node21</title>
<path fill="none" stroke="#191970" d="M734.7072,-529.7349C767.5212,-506.549 818.3679,-470.6213 847.6384,-449.9392"/>
<polygon fill="#191970" stroke="#191970" points="732.5177,-526.9963 726.3705,-535.6255 736.5572,-532.7132 732.5177,-526.9963"/>
</g>
<!-- Node22 -->
<g id="node22" class="node">
<title>Node22</title>
<g id="a_node22"><a xlink:href="../../d3/ded/classSvtxEvalStack.html#a8a929a1f521c9e8596ecb1ca108281cf" target="_top" xlink:title="SvtxEvalStack::next\l_event">
<polygon fill="none" stroke="#000000" points="976,-358.7855 976,-390.7855 1093,-390.7855 1093,-358.7855 976,-358.7855"/>
<text text-anchor="start" x="984" y="-377.7855" font-family="FreeSans" font-size="10.00" fill="#000000">SvtxEvalStack::next</text>
<text text-anchor="middle" x="1034.5" y="-365.7855" font-family="FreeSans" font-size="10.00" fill="#000000">_event</text>
</a>
</g>
</g>
<!-- Node21&#45;&gt;Node22 -->
<g id="edge22" class="edge">
<title>Node21&#45;&gt;Node22</title>
<path fill="none" stroke="#191970" d="M924.8152,-414.2452C945.9735,-406.6334 969.9179,-398.0193 990.0246,-390.7858"/>
<polygon fill="#191970" stroke="#191970" points="923.5385,-410.9849 915.3137,-417.6635 925.9082,-417.5716 923.5385,-410.9849"/>
</g>
<!-- Node22&#45;&gt;Node8 -->
<g id="edge39" class="edge">
<title>Node22&#45;&gt;Node8</title>
<path fill="none" stroke="#191970" d="M1036.2854,-401.2367C1041.298,-454.4861 1060.0537,-575.2756 1129,-642.7855 1136.0154,-649.6547 1144.8779,-654.7092 1154.1111,-658.4283"/>
<polygon fill="#191970" stroke="#191970" points="1039.7449,-400.6104 1035.4112,-390.9425 1032.77,-401.2028 1039.7449,-400.6104"/>
</g>
<!-- Node23 -->
<g id="node23" class="node">
<title>Node23</title>
<g id="a_node23"><a xlink:href="../../db/d4b/classEMCalAna.html#a3b829b80df0fd8625130f3d9c11f5d3d" target="_top" xlink:title="EMCalAna::process_event">
<polygon fill="none" stroke="#000000" points="1134.5,-613.7855 1134.5,-633.7855 1281.5,-633.7855 1281.5,-613.7855 1134.5,-613.7855"/>
<text text-anchor="middle" x="1208" y="-620.7855" font-family="FreeSans" font-size="10.00" fill="#000000">EMCalAna::process_event</text>
</a>
</g>
</g>
<!-- Node22&#45;&gt;Node23 -->
<g id="edge23" class="edge">
<title>Node22&#45;&gt;Node23</title>
<path fill="none" stroke="#191970" d="M1037.6599,-401.0927C1044.835,-448.8834 1066.8637,-549.9778 1129,-603.7855 1133.7059,-607.8606 1139.1279,-611.1257 1144.8808,-613.7389"/>
<polygon fill="#191970" stroke="#191970" points="1041.0919,-400.362 1036.2417,-390.9426 1034.1593,-401.3308 1041.0919,-400.362"/>
</g>
<!-- Node24 -->
<g id="node24" class="node">
<title>Node24</title>
<g id="a_node24"><a xlink:href="../../de/da4/classEMCalCalib.html#aa70da6270813e434e35da37b6ec2a350" target="_top" xlink:title="EMCalCalib::process\l_event">
<polygon fill="none" stroke="#000000" points="1149,-562.7855 1149,-594.7855 1267,-594.7855 1267,-562.7855 1149,-562.7855"/>
<text text-anchor="start" x="1157" y="-581.7855" font-family="FreeSans" font-size="10.00" fill="#000000">EMCalCalib::process</text>
<text text-anchor="middle" x="1208" y="-569.7855" font-family="FreeSans" font-size="10.00" fill="#000000">_event</text>
</a>
</g>
</g>
<!-- Node22&#45;&gt;Node24 -->
<g id="edge24" class="edge">
<title>Node22&#45;&gt;Node24</title>
<path fill="none" stroke="#191970" d="M1041.5263,-400.8753C1053.2554,-439.5385 1080.46,-511.8724 1129,-552.7855 1134.8514,-557.7175 1141.666,-561.7217 1148.7943,-564.971"/>
<polygon fill="#191970" stroke="#191970" points="1044.7823,-399.5382 1038.6236,-390.9172 1038.062,-401.4971 1044.7823,-399.5382"/>
</g>
<!-- Node25 -->
<g id="node25" class="node">
<title>Node25</title>
<g id="a_node25"><a xlink:href="../../d7/d62/classHFMLTriggerInterface.html#a29f338c2563a39e5d0e58b316f4b036f" target="_top" xlink:title="HFMLTriggerInterface\l::process_event">
<polygon fill="none" stroke="#000000" points="1147,-511.7855 1147,-543.7855 1269,-543.7855 1269,-511.7855 1147,-511.7855"/>
<text text-anchor="start" x="1155" y="-530.7855" font-family="FreeSans" font-size="10.00" fill="#000000">HFMLTriggerInterface</text>
<text text-anchor="middle" x="1208" y="-518.7855" font-family="FreeSans" font-size="10.00" fill="#000000">::process_event</text>
</a>
</g>
</g>
<!-- Node22&#45;&gt;Node25 -->
<g id="edge25" class="edge">
<title>Node22&#45;&gt;Node25</title>
<path fill="none" stroke="#191970" d="M1047.0425,-399.9147C1062.5484,-428.5267 1091.5421,-474.7877 1129,-501.7855 1134.3882,-505.669 1140.3908,-508.9964 1146.6129,-511.8421"/>
<polygon fill="#191970" stroke="#191970" points="1050.0702,-398.1528 1042.3082,-390.9415 1043.879,-401.4192 1050.0702,-398.1528"/>
</g>
<!-- Node26 -->
<g id="node26" class="node">
<title>Node26</title>
<g id="a_node26"><a xlink:href="../../da/dbf/classHFMLTriggerOccupancy.html#add094957c68c32da4afc212ffa24e885" target="_top" xlink:title="HFMLTriggerOccupancy\l::process_event">
<polygon fill="none" stroke="#000000" points="1141,-460.7855 1141,-492.7855 1275,-492.7855 1275,-460.7855 1141,-460.7855"/>
<text text-anchor="start" x="1149" y="-479.7855" font-family="FreeSans" font-size="10.00" fill="#000000">HFMLTriggerOccupancy</text>
<text text-anchor="middle" x="1208" y="-467.7855" font-family="FreeSans" font-size="10.00" fill="#000000">::process_event</text>
</a>
</g>
</g>
<!-- Node22&#45;&gt;Node26 -->
<g id="edge26" class="edge">
<title>Node22&#45;&gt;Node26</title>
<path fill="none" stroke="#191970" d="M1058.3168,-398.0094C1076.4467,-414.6247 1102.6892,-436.4926 1129,-450.7855 1135.8514,-454.5074 1143.3274,-457.8159 1150.8597,-460.72"/>
<polygon fill="#191970" stroke="#191970" points="1060.2843,-395.0579 1050.5866,-390.791 1055.5068,-400.1741 1060.2843,-395.0579"/>
</g>
<!-- Node27 -->
<g id="node27" class="node">
<title>Node27</title>
<g id="a_node27"><a xlink:href="../../dc/d65/classPhotonJet.html#a3f9d3ec941f851bc2246ceb0c5362c9f" target="_top" xlink:title="PhotonJet::process\l_event">
<polygon fill="none" stroke="#000000" points="1153,-409.7855 1153,-441.7855 1263,-441.7855 1263,-409.7855 1153,-409.7855"/>
<text text-anchor="start" x="1161" y="-428.7855" font-family="FreeSans" font-size="10.00" fill="#000000">PhotonJet::process</text>
<text text-anchor="middle" x="1208" y="-416.7855" font-family="FreeSans" font-size="10.00" fill="#000000">_event</text>
</a>
</g>
</g>
<!-- Node22&#45;&gt;Node27 -->
<g id="edge27" class="edge">
<title>Node22&#45;&gt;Node27</title>
<path fill="none" stroke="#191970" d="M1099.1628,-393.793C1117.028,-399.0444 1136.2321,-404.6894 1153.4606,-409.7537"/>
<polygon fill="#191970" stroke="#191970" points="1099.9777,-390.3845 1089.3965,-390.9222 1098.0035,-397.1004 1099.9777,-390.3845"/>
</g>
<!-- Node28 -->
<g id="node28" class="node">
<title>Node28</title>
<g id="a_node28"><a xlink:href="../../d8/d98/classpsTOFTimezeroEval.html#a2e98730e1beaa91c36947c0fe671fdd2" target="_top" xlink:title="psTOFTimezeroEval::\lprocess_event">
<polygon fill="none" stroke="#000000" points="1147,-358.7855 1147,-390.7855 1269,-390.7855 1269,-358.7855 1147,-358.7855"/>
<text text-anchor="start" x="1155" y="-377.7855" font-family="FreeSans" font-size="10.00" fill="#000000">psTOFTimezeroEval::</text>
<text text-anchor="middle" x="1208" y="-365.7855" font-family="FreeSans" font-size="10.00" fill="#000000">process_event</text>
</a>
</g>
</g>
<!-- Node22&#45;&gt;Node28 -->
<g id="edge28" class="edge">
<title>Node22&#45;&gt;Node28</title>
<path fill="none" stroke="#191970" d="M1103.544,-374.7855C1117.8924,-374.7855 1132.9159,-374.7855 1146.9524,-374.7855"/>
<polygon fill="#191970" stroke="#191970" points="1103.2392,-371.2856 1093.2392,-374.7855 1103.2392,-378.2856 1103.2392,-371.2856"/>
</g>
<!-- Node29 -->
<g id="node29" class="node">
<title>Node29</title>
<g id="a_node29"><a xlink:href="../../db/d2f/classAnaSvtxTracksForGenFit.html#a6f277cfc1d441b018fccacf6fb882dd0" target="_top" xlink:title="AnaSvtxTracksForGenFit\l::process_event">
<polygon fill="none" stroke="#000000" points="1138,-307.7855 1138,-339.7855 1278,-339.7855 1278,-307.7855 1138,-307.7855"/>
<text text-anchor="start" x="1146" y="-326.7855" font-family="FreeSans" font-size="10.00" fill="#000000">AnaSvtxTracksForGenFit</text>
<text text-anchor="middle" x="1208" y="-314.7855" font-family="FreeSans" font-size="10.00" fill="#000000">::process_event</text>
</a>
</g>
</g>
<!-- Node22&#45;&gt;Node29 -->
<g id="edge29" class="edge">
<title>Node22&#45;&gt;Node29</title>
<path fill="none" stroke="#191970" d="M1099.1628,-355.778C1117.028,-350.5265 1136.2321,-344.8815 1153.4606,-339.8172"/>
<polygon fill="#191970" stroke="#191970" points="1098.0035,-352.4706 1089.3965,-358.6488 1099.9777,-359.1865 1098.0035,-352.4706"/>
</g>
<!-- Node30 -->
<g id="node30" class="node">
<title>Node30</title>
<g id="a_node30"><a xlink:href="../../dc/dfb/classGenFitTrackProp.html#a92a3570ed1802ba0f7e9eeb50eb9a6ec" target="_top" xlink:title="Process Event, called for each event.">
<polygon fill="none" stroke="#000000" points="1136.5,-256.7855 1136.5,-288.7855 1279.5,-288.7855 1279.5,-256.7855 1136.5,-256.7855"/>
<text text-anchor="start" x="1144.5" y="-275.7855" font-family="FreeSans" font-size="10.00" fill="#000000">GenFitTrackProp::process</text>
<text text-anchor="middle" x="1208" y="-263.7855" font-family="FreeSans" font-size="10.00" fill="#000000">_event</text>
</a>
</g>
</g>
<!-- Node22&#45;&gt;Node30 -->
<g id="edge30" class="edge">
<title>Node22&#45;&gt;Node30</title>
<path fill="none" stroke="#191970" d="M1058.2144,-351.1487C1076.293,-334.2612 1102.5164,-312.0854 1129,-297.7855 1135.2025,-294.4364 1141.925,-291.4535 1148.741,-288.8192"/>
<polygon fill="#191970" stroke="#191970" points="1055.3359,-349.0568 1050.5094,-358.4885 1060.1641,-354.1253 1055.3359,-349.0568"/>
</g>
<!-- Node31 -->
<g id="node31" class="node">
<title>Node31</title>
<g id="a_node31"><a xlink:href="../../d2/d85/classSvtxEvaluatorHaiwang.html#ab63ca0cc53b56dad65b89d9b18220bce" target="_top" xlink:title="SvtxEvaluatorHaiwang\l::process_event">
<polygon fill="none" stroke="#000000" points="1142.5,-205.7855 1142.5,-237.7855 1273.5,-237.7855 1273.5,-205.7855 1142.5,-205.7855"/>
<text text-anchor="start" x="1150.5" y="-224.7855" font-family="FreeSans" font-size="10.00" fill="#000000">SvtxEvaluatorHaiwang</text>
<text text-anchor="middle" x="1208" y="-212.7855" font-family="FreeSans" font-size="10.00" fill="#000000">::process_event</text>
</a>
</g>
</g>
<!-- Node22&#45;&gt;Node31 -->
<g id="edge31" class="edge">
<title>Node22&#45;&gt;Node31</title>
<path fill="none" stroke="#191970" d="M1046.9381,-349.38C1062.346,-320.4692 1091.2477,-273.7749 1129,-246.7855 1133.7981,-243.3553 1139.0856,-240.3826 1144.5828,-237.8088"/>
<polygon fill="#191970" stroke="#191970" points="1043.732,-347.9599 1042.2368,-358.4487 1049.9466,-351.1816 1043.732,-347.9599"/>
</g>
<!-- Node32 -->
<g id="node32" class="node">
<title>Node32</title>
<g id="a_node32"><a xlink:href="../../dd/de6/classKFParticle__truthAndDetTools.html#ad75d71be845ff83a6bb6839b5e151e3c" target="_top" xlink:title="KFParticle_truthAndDetTools\l::getTruthTrack">
<polygon fill="none" stroke="#000000" points="1129,-154.7855 1129,-186.7855 1287,-186.7855 1287,-154.7855 1129,-154.7855"/>
<text text-anchor="start" x="1137" y="-173.7855" font-family="FreeSans" font-size="10.00" fill="#000000">KFParticle_truthAndDetTools</text>
<text text-anchor="middle" x="1208" y="-161.7855" font-family="FreeSans" font-size="10.00" fill="#000000">::getTruthTrack</text>
</a>
</g>
</g>
<!-- Node22&#45;&gt;Node32 -->
<g id="edge32" class="edge">
<title>Node22&#45;&gt;Node32</title>
<path fill="none" stroke="#191970" d="M1041.3371,-348.7733C1052.8862,-309.8764 1079.9364,-236.7575 1129,-195.7855 1133.0855,-192.3738 1137.6403,-189.426 1142.4433,-186.8794"/>
<polygon fill="#191970" stroke="#191970" points="1037.8597,-348.2052 1038.4853,-358.7816 1044.5918,-350.1235 1037.8597,-348.2052"/>
</g>
<!-- Node37 -->
<g id="node37" class="node">
<title>Node37</title>
<g id="a_node37"><a xlink:href="../../d3/d32/classActsEvaluator.html#abb2053b5956d62192691b2b74ed05ec4" target="_top" xlink:title="ActsEvaluator::process\l_event">
<polygon fill="none" stroke="#000000" points="1142,-103.7855 1142,-135.7855 1274,-135.7855 1274,-103.7855 1142,-103.7855"/>
<text text-anchor="start" x="1150" y="-122.7855" font-family="FreeSans" font-size="10.00" fill="#000000">ActsEvaluator::process</text>
<text text-anchor="middle" x="1208" y="-110.7855" font-family="FreeSans" font-size="10.00" fill="#000000">_event</text>
</a>
</g>
</g>
<!-- Node22&#45;&gt;Node37 -->
<g id="edge38" class="edge">
<title>Node22&#45;&gt;Node37</title>
<path fill="none" stroke="#191970" d="M1037.9332,-348.713C1045.5538,-301.2836 1068.2816,-200.6424 1129,-144.7855 1132.8114,-141.2792 1137.1131,-138.2648 1141.6918,-135.6731"/>
<polygon fill="#191970" stroke="#191970" points="1034.4452,-348.3718 1036.4166,-358.7816 1041.3671,-349.4145 1034.4452,-348.3718"/>
</g>
<!-- Node38 -->
<g id="node38" class="node">
<title>Node38</title>
<g id="a_node38"><a xlink:href="../../d6/d11/classSvtxEvaluator.html#a1eb230f92b6f2cabb175f1349697200d" target="_top" xlink:title="SvtxEvaluator::process\l_event">
<polygon fill="none" stroke="#000000" points="1142,-52.7855 1142,-84.7855 1274,-84.7855 1274,-52.7855 1142,-52.7855"/>
<text text-anchor="start" x="1150" y="-71.7855" font-family="FreeSans" font-size="10.00" fill="#000000">SvtxEvaluator::process</text>
<text text-anchor="middle" x="1208" y="-59.7855" font-family="FreeSans" font-size="10.00" fill="#000000">_event</text>
</a>
</g>
</g>
<!-- Node22&#45;&gt;Node38 -->
<g id="edge40" class="edge">
<title>Node22&#45;&gt;Node38</title>
<path fill="none" stroke="#191970" d="M1035.6973,-348.4991C1039.6372,-293.3851 1056.5367,-164.9608 1129,-93.7855 1132.7973,-90.0557 1137.1472,-86.8818 1141.8106,-84.181"/>
<polygon fill="#191970" stroke="#191970" points="1032.2026,-348.3062 1035.0694,-358.5058 1039.1888,-348.7446 1032.2026,-348.3062"/>
</g>
<!-- Node39 -->
<g id="node39" class="node">
<title>Node39</title>
<g id="a_node39"><a xlink:href="../../d0/da9/classAnaTutorial.html#a54c32a62e705c4464d9652e91c7d46fa" target="_top" xlink:title="Methods for grabbing the data.">
<polygon fill="none" stroke="#000000" points="1517,-89.7855 1517,-109.7855 1646,-109.7855 1646,-89.7855 1517,-89.7855"/>
<text text-anchor="middle" x="1581.5" y="-96.7855" font-family="FreeSans" font-size="10.00" fill="#000000">AnaTutorial::getTracks</text>
</a>
</g>
</g>
<!-- Node22&#45;&gt;Node39 -->
<g id="edge41" class="edge">
<title>Node22&#45;&gt;Node39</title>
<path fill="none" stroke="#191970" d="M1037.931,-348.4258C1047.8709,-276.6185 1079.1879,-80.3977 1129,-42.7855 1267.0688,61.4678 1499.0911,-53.7664 1564.1037,-89.7634"/>
<polygon fill="#191970" stroke="#191970" points="1034.4456,-348.0828 1036.5696,-358.4625 1041.3821,-349.0238 1034.4456,-348.0828"/>
</g>
<!-- Node33 -->
<g id="node33" class="node">
<title>Node33</title>
<g id="a_node33"><a xlink:href="../../dd/de6/classKFParticle__truthAndDetTools.html#aacd7464b07f03f83a4d7e2de49e63a50" target="_top" xlink:title="KFParticle_truthAndDetTools\l::fillTruthBranch">
<polygon fill="none" stroke="#000000" points="1323,-179.7855 1323,-211.7855 1481,-211.7855 1481,-179.7855 1323,-179.7855"/>
<text text-anchor="start" x="1331" y="-198.7855" font-family="FreeSans" font-size="10.00" fill="#000000">KFParticle_truthAndDetTools</text>
<text text-anchor="middle" x="1402" y="-186.7855" font-family="FreeSans" font-size="10.00" fill="#000000">::fillTruthBranch</text>
</a>
</g>
</g>
<!-- Node32&#45;&gt;Node33 -->
<g id="edge33" class="edge">
<title>Node32&#45;&gt;Node33</title>
<path fill="none" stroke="#191970" d="M1297.1574,-182.2748C1305.6963,-183.3752 1314.3167,-184.4861 1322.7517,-185.5731"/>
<polygon fill="#191970" stroke="#191970" points="1297.5524,-178.7969 1287.187,-180.99 1296.6577,-185.7395 1297.5524,-178.7969"/>
</g>
<!-- Node36 -->
<g id="node36" class="node">
<title>Node36</title>
<g id="a_node36"><a xlink:href="../../dd/de6/classKFParticle__truthAndDetTools.html#ac462727f039ecf9c65e6d346bff72180" target="_top" xlink:title="KFParticle_truthAndDetTools\l::getHepMCInfo">
<polygon fill="none" stroke="#000000" points="1323,-128.7855 1323,-160.7855 1481,-160.7855 1481,-128.7855 1323,-128.7855"/>
<text text-anchor="start" x="1331" y="-147.7855" font-family="FreeSans" font-size="10.00" fill="#000000">KFParticle_truthAndDetTools</text>
<text text-anchor="middle" x="1402" y="-135.7855" font-family="FreeSans" font-size="10.00" fill="#000000">::getHepMCInfo</text>
</a>
</g>
</g>
<!-- Node32&#45;&gt;Node36 -->
<g id="edge36" class="edge">
<title>Node32&#45;&gt;Node36</title>
<path fill="none" stroke="#191970" d="M1297.1574,-158.8365C1305.6963,-157.6922 1314.3167,-156.5368 1322.7517,-155.4064"/>
<polygon fill="#191970" stroke="#191970" points="1296.6335,-155.3754 1287.187,-160.1728 1297.5634,-162.3133 1296.6335,-155.3754"/>
</g>
<!-- Node34 -->
<g id="node34" class="node">
<title>Node34</title>
<g id="a_node34"><a xlink:href="../../d9/dae/classKFParticle__nTuple.html#ac32b873cf95657eb34d8b572ad692172" target="_top" xlink:title="Fills required information for your selection, also requests truth and detector information if needed...">
<polygon fill="none" stroke="#000000" points="1526.5,-153.7855 1526.5,-185.7855 1636.5,-185.7855 1636.5,-153.7855 1526.5,-153.7855"/>
<text text-anchor="start" x="1534.5" y="-172.7855" font-family="FreeSans" font-size="10.00" fill="#000000">KFParticle_nTuple::</text>
<text text-anchor="middle" x="1581.5" y="-160.7855" font-family="FreeSans" font-size="10.00" fill="#000000">fillBranch</text>
</a>
</g>
</g>
<!-- Node33&#45;&gt;Node34 -->
<g id="edge34" class="edge">
<title>Node33&#45;&gt;Node34</title>
<path fill="none" stroke="#191970" d="M1491.2783,-182.8538C1503.2375,-181.1215 1515.2079,-179.3877 1526.3401,-177.7752"/>
<polygon fill="#191970" stroke="#191970" points="1490.6488,-179.4084 1481.2538,-184.3058 1491.6523,-186.3361 1490.6488,-179.4084"/>
</g>
<!-- Node35 -->
<g id="node35" class="node">
<title>Node35</title>
<g id="a_node35"><a xlink:href="../../d5/d72/classKFParticle__sPHENIX.html#a7e5ad7cf075fbf8e68a781e7721fec81" target="_top" xlink:title="KFParticle_sPHENIX\l::process_event">
<polygon fill="none" stroke="#000000" points="1719.5,-153.7855 1719.5,-185.7855 1833.5,-185.7855 1833.5,-153.7855 1719.5,-153.7855"/>
<text text-anchor="start" x="1727.5" y="-172.7855" font-family="FreeSans" font-size="10.00" fill="#000000">KFParticle_sPHENIX</text>
<text text-anchor="middle" x="1776.5" y="-160.7855" font-family="FreeSans" font-size="10.00" fill="#000000">::process_event</text>
</a>
</g>
</g>
<!-- Node34&#45;&gt;Node35 -->
<g id="edge35" class="edge">
<title>Node34&#45;&gt;Node35</title>
<path fill="none" stroke="#191970" d="M1646.7957,-169.7855C1670.2278,-169.7855 1696.4556,-169.7855 1719.1618,-169.7855"/>
<polygon fill="#191970" stroke="#191970" points="1646.5973,-166.2856 1636.5973,-169.7855 1646.5972,-173.2856 1646.5973,-166.2856"/>
</g>
<!-- Node36&#45;&gt;Node34 -->
<g id="edge37" class="edge">
<title>Node36&#45;&gt;Node34</title>
<path fill="none" stroke="#191970" d="M1491.2783,-157.2198C1503.2375,-158.8854 1515.2079,-160.5526 1526.3401,-162.103"/>
<polygon fill="#191970" stroke="#191970" points="1491.6411,-153.7366 1481.2538,-155.8236 1490.6754,-160.6697 1491.6411,-153.7366"/>
</g>
<!-- Node39&#45;&gt;Node14 -->
<g id="edge42" class="edge">
<title>Node39&#45;&gt;Node14</title>
<path fill="none" stroke="#191970" d="M1656.2188,-91.1559C1720.3483,-87.9807 1811.5737,-94.115 1871,-143.7855 1913.6211,-179.4096 1952.5133,-354.1799 1963.7523,-408.5868"/>
<polygon fill="#191970" stroke="#191970" points="1655.948,-87.6657 1646.168,-91.7402 1656.3543,-94.6539 1655.948,-87.6657"/>
</g>
</g>
</svg>
