<?xml version="1.0" encoding="UTF-8" standalone="no"?>
<!DOCTYPE svg PUBLIC "-//W3C//DTD SVG 1.1//EN"
 "http://www.w3.org/Graphics/SVG/1.1/DTD/svg11.dtd">
<!-- Generated by graphviz version 2.40.1 (20161225.0304)
 -->
<!-- Title: GPUTPCTrackParam::SetZOffset Pages: 1 -->
<svg width="764pt" height="80pt"
 viewBox="0.00 0.00 764.00 80.00" xmlns="http://www.w3.org/2000/svg" xmlns:xlink="http://www.w3.org/1999/xlink">
<g id="graph0" class="graph" transform="scale(1 1) rotate(0) translate(4 76)">
<title>GPUTPCTrackParam::SetZOffset</title>
<!-- Node1 -->
<g id="node1" class="node">
<title>Node1</title>
<polygon fill="#bfbfbf" stroke="#000000" points="0,-28.5 0,-48.5 176,-48.5 176,-28.5 0,-28.5"/>
<text text-anchor="middle" x="88" y="-35.5" font-family="FreeSans" font-size="10.00" fill="#000000">GPUTPCTrackParam::SetZOffset</text>
</g>
<!-- Node2 -->
<g id="node2" class="node">
<title>Node2</title>
<g id="a_node2"><a xlink:href="../../d4/d60/classGPUTPCTrackParam.html#ab8f13d83726bd39db53e7b3903431d7a" target="_top" xlink:title="GPUTPCTrackParam::InitParam">
<polygon fill="none" stroke="#000000" points="212,-28.5 212,-48.5 382,-48.5 382,-28.5 212,-28.5"/>
<text text-anchor="middle" x="297" y="-35.5" font-family="FreeSans" font-size="10.00" fill="#000000">GPUTPCTrackParam::InitParam</text>
</a>
</g>
</g>
<!-- Node1&#45;&gt;Node2 -->
<g id="edge1" class="edge">
<title>Node1&#45;&gt;Node2</title>
<path fill="none" stroke="#191970" d="M186.0612,-38.5C194.6417,-38.5 203.2803,-38.5 211.7444,-38.5"/>
<polygon fill="#191970" stroke="#191970" points="186.0291,-35.0001 176.0291,-38.5 186.029,-42.0001 186.0291,-35.0001"/>
</g>
<!-- Node3 -->
<g id="node3" class="node">
<title>Node3</title>
<g id="a_node3"><a xlink:href="../../de/dfe/classALICEKF.html#a0b1e9dee25db62e0d3fcb2b078dfb663" target="_top" xlink:title="ALICEKF::ALICEKalmanFilter">
<polygon fill="none" stroke="#000000" points="418,-51.5 418,-71.5 575,-71.5 575,-51.5 418,-51.5"/>
<text text-anchor="middle" x="496.5" y="-58.5" font-family="FreeSans" font-size="10.00" fill="#000000">ALICEKF::ALICEKalmanFilter</text>
</a>
</g>
</g>
<!-- Node2&#45;&gt;Node3 -->
<g id="edge2" class="edge">
<title>Node2&#45;&gt;Node3</title>
<path fill="none" stroke="#191970" d="M392.244,-49.4805C400.8436,-50.4719 409.488,-51.4685 417.9208,-52.4407"/>
<polygon fill="#191970" stroke="#191970" points="392.5197,-45.9892 382.1846,-48.3208 391.7179,-52.9431 392.5197,-45.9892"/>
</g>
<!-- Node4 -->
<g id="node4" class="node">
<title>Node4</title>
<g id="a_node4"><a xlink:href="../../d9/d69/classPHSimpleKFProp.html#ac16feadbc2af84d16b3ae40c99472100" target="_top" xlink:title="PHSimpleKFProp::Propagate\lTrack">
<polygon fill="none" stroke="#000000" points="418,-.5 418,-32.5 575,-32.5 575,-.5 418,-.5"/>
<text text-anchor="start" x="426" y="-19.5" font-family="FreeSans" font-size="10.00" fill="#000000">PHSimpleKFProp::Propagate</text>
<text text-anchor="middle" x="496.5" y="-7.5" font-family="FreeSans" font-size="10.00" fill="#000000">Track</text>
</a>
</g>
</g>
<!-- Node2&#45;&gt;Node4 -->
<g id="edge3" class="edge">
<title>Node2&#45;&gt;Node4</title>
<path fill="none" stroke="#191970" d="M392.244,-27.9969C400.8436,-27.0486 409.488,-26.0953 417.9208,-25.1654"/>
<polygon fill="#191970" stroke="#191970" points="391.7407,-24.5311 382.1846,-29.1062 392.508,-31.4889 391.7407,-24.5311"/>
</g>
<!-- Node5 -->
<g id="node5" class="node">
<title>Node5</title>
<g id="a_node5"><a xlink:href="../../d9/d69/classPHSimpleKFProp.html#a0e11d66809451e62d6001f3aa4cf392e" target="_top" xlink:title="PHSimpleKFProp::process\l_event">
<polygon fill="none" stroke="#000000" points="611,-.5 611,-32.5 756,-32.5 756,-.5 611,-.5"/>
<text text-anchor="start" x="619" y="-19.5" font-family="FreeSans" font-size="10.00" fill="#000000">PHSimpleKFProp::process</text>
<text text-anchor="middle" x="683.5" y="-7.5" font-family="FreeSans" font-size="10.00" fill="#000000">_event</text>
</a>
</g>
</g>
<!-- Node4&#45;&gt;Node5 -->
<g id="edge4" class="edge">
<title>Node4&#45;&gt;Node5</title>
<path fill="none" stroke="#191970" d="M585.5384,-16.5C593.9976,-16.5 602.5057,-16.5 610.7847,-16.5"/>
<polygon fill="#191970" stroke="#191970" points="585.2629,-13.0001 575.2629,-16.5 585.2628,-20.0001 585.2629,-13.0001"/>
</g>
</g>
</svg>
