<?xml version="1.0" encoding="UTF-8" standalone="no"?>
<!DOCTYPE svg PUBLIC "-//W3C//DTD SVG 1.1//EN"
 "http://www.w3.org/Graphics/SVG/1.1/DTD/svg11.dtd">
<!-- Generated by graphviz version 2.40.1 (20161225.0304)
 -->
<!-- Title: Fe55::BaLiS Pages: 1 -->
<svg width="753pt" height="568pt"
 viewBox="0.00 0.00 753.00 568.00" xmlns="http://www.w3.org/2000/svg" xmlns:xlink="http://www.w3.org/1999/xlink">
<g id="graph0" class="graph" transform="scale(1 1) rotate(0) translate(4 564)">
<title>Fe55::BaLiS</title>
<!-- Node1 -->
<g id="node1" class="node">
<title>Node1</title>
<polygon fill="#bfbfbf" stroke="#000000" points="0,-214.5 0,-234.5 75,-234.5 75,-214.5 0,-214.5"/>
<text text-anchor="middle" x="37.5" y="-221.5" font-family="FreeSans" font-size="10.00" fill="#000000">Fe55::BaLiS</text>
</g>
<!-- Node2 -->
<g id="node2" class="node">
<title>Node2</title>
<g id="a_node2"><a xlink:href="../../dd/d7a/Mat__map__detector__plot_8C.html#ac0d08f0933de5ca6053592441e00dacb" target="_top" xlink:title="Fill the histograms for the detector.">
<polygon fill="none" stroke="#000000" points="146.5,-494.5 146.5,-514.5 175.5,-514.5 175.5,-494.5 146.5,-494.5"/>
<text text-anchor="middle" x="161" y="-501.5" font-family="FreeSans" font-size="10.00" fill="#000000">Fill</text>
</a>
</g>
</g>
<!-- Node1&#45;&gt;Node2 -->
<g id="edge1" class="edge">
<title>Node1&#45;&gt;Node2</title>
<path fill="none" stroke="#191970" d="M40.5655,-234.5475C49.6646,-263.8872 77.953,-351.7086 111,-420.5 122.1807,-443.774 137.7316,-469.0526 148.5094,-485.733"/>
<polygon fill="#191970" stroke="#191970" points="145.8297,-488.0299 154.2345,-494.4805 151.6867,-484.1965 145.8297,-488.0299"/>
</g>
<!-- Node7 -->
<g id="node7" class="node">
<title>Node7</title>
<g id="a_node7"><a xlink:href="../../d4/db0/classFe55.html#a04f4233c3697c1cbd9632e255f3945e1" target="_top" xlink:title="Fe55::FitG">
<polygon fill="none" stroke="#000000" points="127.5,-390.5 127.5,-410.5 194.5,-410.5 194.5,-390.5 127.5,-390.5"/>
<text text-anchor="middle" x="161" y="-397.5" font-family="FreeSans" font-size="10.00" fill="#000000">Fe55::FitG</text>
</a>
</g>
</g>
<!-- Node1&#45;&gt;Node7 -->
<g id="edge6" class="edge">
<title>Node1&#45;&gt;Node7</title>
<path fill="none" stroke="#191970" d="M39.9819,-234.6444C46.906,-261.0463 68.7571,-332.8047 111,-375.5 114.7436,-379.2837 119.178,-382.5936 123.8354,-385.4591"/>
<polygon fill="#191970" stroke="#191970" points="122.4889,-388.7115 132.9435,-390.4294 125.8421,-382.5668 122.4889,-388.7115"/>
</g>
<!-- Node11 -->
<g id="node11" class="node">
<title>Node11</title>
<g id="a_node11"><a xlink:href="../../da/d23/msg__buffer_8cc.html#a98631211a4a8aee62f572375d5b637be" target="_top" xlink:title="printf">
<polygon fill="none" stroke="#000000" points="296,-332.5 296,-352.5 340,-352.5 340,-332.5 296,-332.5"/>
<text text-anchor="middle" x="318" y="-339.5" font-family="FreeSans" font-size="10.00" fill="#000000">printf</text>
</a>
</g>
</g>
<!-- Node1&#45;&gt;Node11 -->
<g id="edge20" class="edge">
<title>Node1&#45;&gt;Node11</title>
<path fill="none" stroke="#191970" d="M40.2781,-234.7787C47.3703,-258.7211 68.6482,-317.9566 111,-341.5 166.1345,-372.1494 242.9777,-361.2392 285.8404,-351.3514"/>
<polygon fill="#191970" stroke="#191970" points="286.8282,-354.7133 295.7186,-348.9503 285.1748,-347.9114 286.8282,-354.7133"/>
</g>
<!-- Node12 -->
<g id="node12" class="node">
<title>Node12</title>
<g id="a_node12"><a xlink:href="../../d1/dd6/classDataStr.html#a6a48eb1922f86c77ca08abcdfbc774a2" target="_top" xlink:title="DataStr::IsOver">
<polygon fill="none" stroke="#000000" points="114,-312.5 114,-332.5 208,-332.5 208,-312.5 114,-312.5"/>
<text text-anchor="middle" x="161" y="-319.5" font-family="FreeSans" font-size="10.00" fill="#000000">DataStr::IsOver</text>
</a>
</g>
</g>
<!-- Node1&#45;&gt;Node12 -->
<g id="edge11" class="edge">
<title>Node1&#45;&gt;Node12</title>
<path fill="none" stroke="#191970" d="M44.7591,-234.7006C56.8337,-251.0196 82.5474,-283.1263 111,-302.5 114.038,-304.5686 117.3221,-306.4735 120.705,-308.2163"/>
<polygon fill="#191970" stroke="#191970" points="119.247,-311.3982 129.7894,-312.4516 122.2049,-305.0538 119.247,-311.3982"/>
</g>
<!-- Node13 -->
<g id="node13" class="node">
<title>Node13</title>
<g id="a_node13"><a xlink:href="../../d1/dd6/classDataStr.html#a282dac4e08761ca85f7a4e5199696220" target="_top" xlink:title="DataStr::IsOverX">
<polygon fill="none" stroke="#000000" points="111,-273.5 111,-293.5 211,-293.5 211,-273.5 111,-273.5"/>
<text text-anchor="middle" x="161" y="-280.5" font-family="FreeSans" font-size="10.00" fill="#000000">DataStr::IsOverX</text>
</a>
</g>
</g>
<!-- Node1&#45;&gt;Node13 -->
<g id="edge12" class="edge">
<title>Node1&#45;&gt;Node13</title>
<path fill="none" stroke="#191970" d="M55.3507,-234.665C70.069,-242.8769 91.6043,-254.5066 111,-263.5 115.4317,-265.5549 120.1373,-267.6041 124.8203,-269.5644"/>
<polygon fill="#191970" stroke="#191970" points="123.725,-272.8977 134.3061,-273.4365 126.3705,-266.4168 123.725,-272.8977"/>
</g>
<!-- Node14 -->
<g id="node14" class="node">
<title>Node14</title>
<g id="a_node14"><a xlink:href="../../d1/dd6/classDataStr.html#a68729b361faa3ae5a4bcaa3f24b26e3b" target="_top" xlink:title="DataStr::maxX">
<polygon fill="none" stroke="#000000" points="116,-234.5 116,-254.5 206,-254.5 206,-234.5 116,-234.5"/>
<text text-anchor="middle" x="161" y="-241.5" font-family="FreeSans" font-size="10.00" fill="#000000">DataStr::maxX</text>
</a>
</g>
</g>
<!-- Node1&#45;&gt;Node14 -->
<g id="edge13" class="edge">
<title>Node1&#45;&gt;Node14</title>
<path fill="none" stroke="#191970" d="M75.2251,-230.6093C84.8015,-232.1602 95.2911,-233.8589 105.5466,-235.5197"/>
<polygon fill="#191970" stroke="#191970" points="105.2507,-239.0173 115.6816,-237.161 106.3697,-232.1073 105.2507,-239.0173"/>
</g>
<!-- Node15 -->
<g id="node15" class="node">
<title>Node15</title>
<g id="a_node15"><a xlink:href="../../d1/dd6/classDataStr.html#a79a7bc4a083dfca9fd7c0189defb7253" target="_top" xlink:title="DataStr::maxY">
<polygon fill="none" stroke="#000000" points="116,-195.5 116,-215.5 206,-215.5 206,-195.5 116,-195.5"/>
<text text-anchor="middle" x="161" y="-202.5" font-family="FreeSans" font-size="10.00" fill="#000000">DataStr::maxY</text>
</a>
</g>
</g>
<!-- Node1&#45;&gt;Node15 -->
<g id="edge14" class="edge">
<title>Node1&#45;&gt;Node15</title>
<path fill="none" stroke="#191970" d="M75.2251,-218.6961C84.8015,-217.2229 95.2911,-215.6091 105.5466,-214.0313"/>
<polygon fill="#191970" stroke="#191970" points="106.3301,-217.452 115.6816,-212.4721 105.2657,-210.5334 106.3301,-217.452"/>
</g>
<!-- Node16 -->
<g id="node16" class="node">
<title>Node16</title>
<g id="a_node16"><a xlink:href="../../d1/dd6/classDataStr.html#ae83429637eb077731e439707009ee5e4" target="_top" xlink:title="DataStr::minX">
<polygon fill="none" stroke="#000000" points="117.5,-156.5 117.5,-176.5 204.5,-176.5 204.5,-156.5 117.5,-156.5"/>
<text text-anchor="middle" x="161" y="-163.5" font-family="FreeSans" font-size="10.00" fill="#000000">DataStr::minX</text>
</a>
</g>
</g>
<!-- Node1&#45;&gt;Node16 -->
<g id="edge15" class="edge">
<title>Node1&#45;&gt;Node16</title>
<path fill="none" stroke="#191970" d="M55.0125,-214.412C69.7129,-206.1384 91.3954,-194.3843 111,-185.5 114.9013,-183.732 119.02,-181.9843 123.151,-180.307"/>
<polygon fill="#191970" stroke="#191970" points="124.6912,-183.4622 132.716,-176.5445 122.1288,-176.9481 124.6912,-183.4622"/>
</g>
<!-- Node17 -->
<g id="node17" class="node">
<title>Node17</title>
<g id="a_node17"><a xlink:href="../../d1/dd6/classDataStr.html#a7ca792d491823609cce890533383e63d" target="_top" xlink:title="DataStr::minY">
<polygon fill="none" stroke="#000000" points="117.5,-117.5 117.5,-137.5 204.5,-137.5 204.5,-117.5 117.5,-117.5"/>
<text text-anchor="middle" x="161" y="-124.5" font-family="FreeSans" font-size="10.00" fill="#000000">DataStr::minY</text>
</a>
</g>
</g>
<!-- Node1&#45;&gt;Node17 -->
<g id="edge16" class="edge">
<title>Node1&#45;&gt;Node17</title>
<path fill="none" stroke="#191970" d="M44.7206,-214.2423C56.741,-197.843 82.3804,-165.626 111,-146.5 113.543,-144.8005 116.2594,-143.2239 119.0624,-141.7665"/>
<polygon fill="#191970" stroke="#191970" points="120.6131,-144.9054 128.2036,-137.5139 117.6604,-138.5585 120.6131,-144.9054"/>
</g>
<!-- Node18 -->
<g id="node18" class="node">
<title>Node18</title>
<g id="a_node18"><a xlink:href="../../d1/dd6/classDataStr.html#a3a377f40657d1f6eba9b1031e909150c" target="_top" xlink:title="DataStr::NoverX">
<polygon fill="none" stroke="#000000" points="112,-78.5 112,-98.5 210,-98.5 210,-78.5 112,-78.5"/>
<text text-anchor="middle" x="161" y="-85.5" font-family="FreeSans" font-size="10.00" fill="#000000">DataStr::NoverX</text>
</a>
</g>
</g>
<!-- Node1&#45;&gt;Node18 -->
<g id="edge17" class="edge">
<title>Node1&#45;&gt;Node18</title>
<path fill="none" stroke="#191970" d="M41.3175,-214.182C50.1449,-191.6729 74.0782,-137.7576 111,-107.5 112.7799,-106.0414 114.6837,-104.6871 116.6708,-103.4306"/>
<polygon fill="#191970" stroke="#191970" points="118.6396,-106.346 125.7901,-98.528 115.3249,-100.1805 118.6396,-106.346"/>
</g>
<!-- Node19 -->
<g id="node19" class="node">
<title>Node19</title>
<g id="a_node19"><a xlink:href="../../d1/dd6/classDataStr.html#ae87fcf26e238fd2718b593b14e997048" target="_top" xlink:title="DataStr::OmaX">
<polygon fill="none" stroke="#000000" points="115,-39.5 115,-59.5 207,-59.5 207,-39.5 115,-39.5"/>
<text text-anchor="middle" x="161" y="-46.5" font-family="FreeSans" font-size="10.00" fill="#000000">DataStr::OmaX</text>
</a>
</g>
</g>
<!-- Node1&#45;&gt;Node19 -->
<g id="edge18" class="edge">
<title>Node1&#45;&gt;Node19</title>
<path fill="none" stroke="#191970" d="M39.5489,-214.1691C45.5339,-186.6126 65.5206,-110.599 111,-68.5 112.4566,-67.1516 114.0186,-65.896 115.6582,-64.7269"/>
<polygon fill="#191970" stroke="#191970" points="117.5462,-67.6767 124.3741,-59.5755 113.9844,-61.6506 117.5462,-67.6767"/>
</g>
<!-- Node20 -->
<g id="node20" class="node">
<title>Node20</title>
<g id="a_node20"><a xlink:href="../../d1/dd6/classDataStr.html#a46b1d033dd4d2bf392834d019b39e9e2" target="_top" xlink:title="DataStr::OmiX">
<polygon fill="none" stroke="#000000" points="116.5,-.5 116.5,-20.5 205.5,-20.5 205.5,-.5 116.5,-.5"/>
<text text-anchor="middle" x="161" y="-7.5" font-family="FreeSans" font-size="10.00" fill="#000000">DataStr::OmiX</text>
</a>
</g>
</g>
<!-- Node1&#45;&gt;Node20 -->
<g id="edge19" class="edge">
<title>Node1&#45;&gt;Node20</title>
<path fill="none" stroke="#191970" d="M38.4185,-214.4616C41.8369,-182.8239 56.5826,-84.0641 111,-29.5 112.2398,-28.2569 113.5691,-27.0938 114.9681,-26.0056"/>
<polygon fill="#191970" stroke="#191970" points="117.0126,-28.8541 123.6021,-20.5578 113.2772,-22.934 117.0126,-28.8541"/>
</g>
<!-- Node3 -->
<g id="node3" class="node">
<title>Node3</title>
<g id="a_node3"><a xlink:href="../../dd/d7a/Mat__map__detector__plot_8C.html#ab5e879aeac6e72f1a2567331e3716b3b" target="_top" xlink:title="Initialise the histograms for the detector.">
<polygon fill="none" stroke="#000000" points="276.5,-539.5 276.5,-559.5 359.5,-559.5 359.5,-539.5 276.5,-539.5"/>
<text text-anchor="middle" x="318" y="-546.5" font-family="FreeSans" font-size="10.00" fill="#000000">Initialise_hist</text>
</a>
</g>
</g>
<!-- Node2&#45;&gt;Node3 -->
<g id="edge2" class="edge">
<title>Node2&#45;&gt;Node3</title>
<path fill="none" stroke="#191970" d="M175.566,-509.0595C192.6366,-514.3667 221.7982,-523.3203 247,-530.5 254.3382,-532.5905 262.122,-534.7411 269.7429,-536.8096"/>
<polygon fill="#191970" stroke="#191970" points="269.0502,-540.2477 279.6164,-539.4696 270.8712,-533.4887 269.0502,-540.2477"/>
</g>
<!-- Node4 -->
<g id="node4" class="node">
<title>Node4</title>
<g id="a_node4"><a xlink:href="../../d7/d33/classActs_1_1GeometryIdentifier.html#abc1ccf966fe5fc7f517c6775b5d38623" target="_top" xlink:title="Return the volume identifier.">
<polygon fill="none" stroke="#000000" points="247,-488.5 247,-520.5 389,-520.5 389,-488.5 247,-488.5"/>
<text text-anchor="start" x="255" y="-507.5" font-family="FreeSans" font-size="10.00" fill="#000000">Acts::GeometryIdentifier</text>
<text text-anchor="middle" x="318" y="-495.5" font-family="FreeSans" font-size="10.00" fill="#000000">::volume</text>
</a>
</g>
</g>
<!-- Node2&#45;&gt;Node4 -->
<g id="edge3" class="edge">
<title>Node2&#45;&gt;Node4</title>
<path fill="none" stroke="#191970" d="M175.7702,-504.5C190.1973,-504.5 213.3541,-504.5 236.8296,-504.5"/>
<polygon fill="#191970" stroke="#191970" points="236.8856,-508.0001 246.8856,-504.5 236.8856,-501.0001 236.8856,-508.0001"/>
</g>
<!-- Node5 -->
<g id="node5" class="node">
<title>Node5</title>
<g id="a_node5"><a xlink:href="../../d7/d33/classActs_1_1GeometryIdentifier.html#a5fc08ada52c3da4d9b255e0454739e1d" target="_top" xlink:title="Extract the masked bits from the encoded value.">
<polygon fill="none" stroke="#000000" points="425,-488.5 425,-520.5 567,-520.5 567,-488.5 425,-488.5"/>
<text text-anchor="start" x="433" y="-507.5" font-family="FreeSans" font-size="10.00" fill="#000000">Acts::GeometryIdentifier</text>
<text text-anchor="middle" x="496" y="-495.5" font-family="FreeSans" font-size="10.00" fill="#000000">::getBits</text>
</a>
</g>
</g>
<!-- Node4&#45;&gt;Node5 -->
<g id="edge4" class="edge">
<title>Node4&#45;&gt;Node5</title>
<path fill="none" stroke="#191970" d="M389.1177,-504.5C397.609,-504.5 406.3268,-504.5 414.9445,-504.5"/>
<polygon fill="#191970" stroke="#191970" points="414.9953,-508.0001 424.9953,-504.5 414.9952,-501.0001 414.9953,-508.0001"/>
</g>
<!-- Node6 -->
<g id="node6" class="node">
<title>Node6</title>
<g id="a_node6"><a xlink:href="../../d7/d33/classActs_1_1GeometryIdentifier.html#ac13065798464cc86b747086eea9020e2" target="_top" xlink:title="Extract the bit shift necessary to access the masked values.">
<polygon fill="none" stroke="#000000" points="603,-488.5 603,-520.5 745,-520.5 745,-488.5 603,-488.5"/>
<text text-anchor="start" x="611" y="-507.5" font-family="FreeSans" font-size="10.00" fill="#000000">Acts::GeometryIdentifier</text>
<text text-anchor="middle" x="674" y="-495.5" font-family="FreeSans" font-size="10.00" fill="#000000">::extractShift</text>
</a>
</g>
</g>
<!-- Node5&#45;&gt;Node6 -->
<g id="edge5" class="edge">
<title>Node5&#45;&gt;Node6</title>
<path fill="none" stroke="#191970" d="M567.1177,-504.5C575.609,-504.5 584.3268,-504.5 592.9445,-504.5"/>
<polygon fill="#191970" stroke="#191970" points="592.9953,-508.0001 602.9953,-504.5 592.9952,-501.0001 592.9953,-508.0001"/>
</g>
<!-- Node8 -->
<g id="node8" class="node">
<title>Node8</title>
<g id="a_node8"><a xlink:href="../../d1/ddc/Bias_8cpp.html#a6eb2c8a74c6f0e0632374e2a21d3b0e1" target="_top" xlink:title="PeakRange">
<polygon fill="none" stroke="#000000" points="282,-449.5 282,-469.5 354,-469.5 354,-449.5 282,-449.5"/>
<text text-anchor="middle" x="318" y="-456.5" font-family="FreeSans" font-size="10.00" fill="#000000">PeakRange</text>
</a>
</g>
</g>
<!-- Node7&#45;&gt;Node8 -->
<g id="edge7" class="edge">
<title>Node7&#45;&gt;Node8</title>
<path fill="none" stroke="#191970" d="M180.0625,-410.5379C197.2264,-419.2908 223.32,-431.8986 247,-440.5 255.0169,-443.412 263.6878,-446.0987 272.1246,-448.4792"/>
<polygon fill="#191970" stroke="#191970" points="271.3001,-451.882 281.8681,-451.1282 273.1366,-445.1272 271.3001,-451.882"/>
</g>
<!-- Node9 -->
<g id="node9" class="node">
<title>Node9</title>
<g id="a_node9"><a xlink:href="../../d7/d2d/make__fmod__calibrations_8C.html#a0dac611a7318ae96902d033b4b7b51f1" target="_top" xlink:title="fit">
<polygon fill="none" stroke="#000000" points="303.5,-410.5 303.5,-430.5 332.5,-430.5 332.5,-410.5 303.5,-410.5"/>
<text text-anchor="middle" x="318" y="-417.5" font-family="FreeSans" font-size="10.00" fill="#000000">fit</text>
</a>
</g>
</g>
<!-- Node7&#45;&gt;Node9 -->
<g id="edge8" class="edge">
<title>Node7&#45;&gt;Node9</title>
<path fill="none" stroke="#191970" d="M194.6804,-404.7905C224.2977,-408.5634 266.7156,-413.967 293.2901,-417.3522"/>
<polygon fill="#191970" stroke="#191970" points="292.9349,-420.8352 303.2971,-418.627 293.8196,-413.8913 292.9349,-420.8352"/>
</g>
<!-- Node10 -->
<g id="node10" class="node">
<title>Node10</title>
<g id="a_node10"><a xlink:href="../../d4/db0/classFe55.html#a9947a4457e3ef7cee25b27ed2e0e9f64" target="_top" xlink:title="Fe55::Gauss">
<polygon fill="none" stroke="#000000" points="278.5,-371.5 278.5,-391.5 357.5,-391.5 357.5,-371.5 278.5,-371.5"/>
<text text-anchor="middle" x="318" y="-378.5" font-family="FreeSans" font-size="10.00" fill="#000000">Fe55::Gauss</text>
</a>
</g>
</g>
<!-- Node7&#45;&gt;Node10 -->
<g id="edge9" class="edge">
<title>Node7&#45;&gt;Node10</title>
<path fill="none" stroke="#191970" d="M194.6804,-396.424C216.1245,-393.8289 244.2791,-390.4216 268.272,-387.518"/>
<polygon fill="#191970" stroke="#191970" points="268.7611,-390.9845 278.2681,-386.3083 267.92,-384.0352 268.7611,-390.9845"/>
</g>
<!-- Node7&#45;&gt;Node11 -->
<g id="edge10" class="edge">
<title>Node7&#45;&gt;Node11</title>
<path fill="none" stroke="#191970" d="M180.7717,-390.4083C197.9595,-381.91 223.6921,-369.8398 247,-361.5 259.5774,-356.9997 273.7413,-353.0027 286.0909,-349.85"/>
<polygon fill="#191970" stroke="#191970" points="287.0963,-353.2069 295.9631,-347.4078 285.4152,-346.4117 287.0963,-353.2069"/>
</g>
</g>
</svg>
