<?xml version="1.0" encoding="UTF-8" standalone="no"?>
<!DOCTYPE svg PUBLIC "-//W3C//DTD SVG 1.1//EN"
 "http://www.w3.org/Graphics/SVG/1.1/DTD/svg11.dtd">
<!-- Generated by graphviz version 2.40.1 (20161225.0304)
 -->
<!-- Title: SphenixClient::unlockGlobalTag Pages: 1 -->
<svg width="505pt" height="49pt"
 viewBox="0.00 0.00 505.00 49.00" xmlns="http://www.w3.org/2000/svg" xmlns:xlink="http://www.w3.org/1999/xlink">
<g id="graph0" class="graph" transform="scale(1 1) rotate(0) translate(4 45)">
<title>SphenixClient::unlockGlobalTag</title>
<!-- Node1 -->
<g id="node1" class="node">
<title>Node1</title>
<polygon fill="#bfbfbf" stroke="#000000" points="0,-.5 0,-20.5 176,-20.5 176,-.5 0,-.5"/>
<text text-anchor="middle" x="88" y="-7.5" font-family="FreeSans" font-size="10.00" fill="#000000">SphenixClient::unlockGlobalTag</text>
</g>
<!-- Node2 -->
<g id="node2" class="node">
<title>Node2</title>
<g id="a_node2"><a xlink:href="../../df/d37/classCDBUtils.html#a5bb80d11a25ff15bf603f755df30eaaf" target="_top" xlink:title="CDBUtils::unlockGlobalTag">
<polygon fill="none" stroke="#000000" points="212,-20.5 212,-40.5 362,-40.5 362,-20.5 212,-20.5"/>
<text text-anchor="middle" x="287" y="-27.5" font-family="FreeSans" font-size="10.00" fill="#000000">CDBUtils::unlockGlobalTag</text>
</a>
</g>
</g>
<!-- Node1&#45;&gt;Node2 -->
<g id="edge1" class="edge">
<title>Node1&#45;&gt;Node2</title>
<path fill="none" stroke="#191970" d="M186.2779,-20.3772C194.9206,-21.2458 203.5756,-22.1156 211.9821,-22.9605"/>
<polygon fill="#191970" stroke="#191970" points="186.4532,-16.8773 176.1533,-19.3596 185.7532,-23.8422 186.4532,-16.8773"/>
</g>
<!-- Node3 -->
<g id="node3" class="node">
<title>Node3</title>
<g id="a_node3"><a xlink:href="../../d0/df1/CDBTest_2CDBUtils_8C.html#a5edf60498350c744733107a1334522b3" target="_top" xlink:title="unlockGlobalTag">
<polygon fill="none" stroke="#000000" points="398,-.5 398,-20.5 497,-20.5 497,-.5 398,-.5"/>
<text text-anchor="middle" x="447.5" y="-7.5" font-family="FreeSans" font-size="10.00" fill="#000000">unlockGlobalTag</text>
</a>
</g>
</g>
<!-- Node2&#45;&gt;Node3 -->
<g id="edge2" class="edge">
<title>Node2&#45;&gt;Node3</title>
<path fill="none" stroke="#191970" d="M372.2816,-19.873C380.9611,-18.7915 389.5618,-17.7197 397.6755,-16.7087"/>
<polygon fill="#191970" stroke="#191970" points="371.5713,-16.4344 362.0808,-21.1441 372.4369,-23.3806 371.5713,-16.4344"/>
</g>
<!-- Node3&#45;&gt;Node1 -->
<g id="edge3" class="edge">
<title>Node3&#45;&gt;Node1</title>
<path fill="none" stroke="#191970" d="M387.8873,-10.5C330.2452,-10.5 242.2036,-10.5 176.404,-10.5"/>
<polygon fill="#191970" stroke="#191970" points="387.9299,-14.0001 397.9299,-10.5 387.9298,-7.0001 387.9299,-14.0001"/>
</g>
</g>
</svg>
