<?xml version="1.0" encoding="UTF-8" standalone="no"?>
<!DOCTYPE svg PUBLIC "-//W3C//DTD SVG 1.1//EN"
 "http://www.w3.org/Graphics/SVG/1.1/DTD/svg11.dtd">
<!-- Generated by graphviz version 2.40.1 (20161225.0304)
 -->
<!-- Title: SphenixClient::createDomain Pages: 1 -->
<svg width="747pt" height="138pt"
 viewBox="0.00 0.00 747.00 138.00" xmlns="http://www.w3.org/2000/svg" xmlns:xlink="http://www.w3.org/1999/xlink">
<g id="graph0" class="graph" transform="scale(1 1) rotate(0) translate(4 134)">
<title>SphenixClient::createDomain</title>
<!-- Node1 -->
<g id="node1" class="node">
<title>Node1</title>
<polygon fill="#bfbfbf" stroke="#000000" points="0,-38.5 0,-58.5 164,-58.5 164,-38.5 0,-38.5"/>
<text text-anchor="middle" x="82" y="-45.5" font-family="FreeSans" font-size="10.00" fill="#000000">SphenixClient::createDomain</text>
</g>
<!-- Node2 -->
<g id="node2" class="node">
<title>Node2</title>
<g id="a_node2"><a xlink:href="../../df/d37/classCDBUtils.html#a3f133aa41ce456a2457c339cec1f198a" target="_top" xlink:title="CDBUtils::createPayloadType">
<polygon fill="none" stroke="#000000" points="200,-58.5 200,-78.5 361,-78.5 361,-58.5 200,-58.5"/>
<text text-anchor="middle" x="280.5" y="-65.5" font-family="FreeSans" font-size="10.00" fill="#000000">CDBUtils::createPayloadType</text>
</a>
</g>
</g>
<!-- Node1&#45;&gt;Node2 -->
<g id="edge1" class="edge">
<title>Node1&#45;&gt;Node2</title>
<path fill="none" stroke="#191970" d="M174.2233,-57.792C182.8278,-58.659 191.5031,-59.5331 199.9888,-60.388"/>
<polygon fill="#191970" stroke="#191970" points="174.4709,-54.2993 164.1704,-56.7791 173.7691,-61.2641 174.4709,-54.2993"/>
</g>
<!-- Node3 -->
<g id="node3" class="node">
<title>Node3</title>
<g id="a_node3"><a xlink:href="../../d5/dc2/classTPCPedestalCalibration.html#a8af450ebab01977e40fc66f32b786137" target="_top" xlink:title="TPCPedestalCalibration\l::CDBInsert">
<polygon fill="none" stroke="#000000" points="397,-97.5 397,-129.5 531,-129.5 531,-97.5 397,-97.5"/>
<text text-anchor="start" x="405" y="-116.5" font-family="FreeSans" font-size="10.00" fill="#000000">TPCPedestalCalibration</text>
<text text-anchor="middle" x="464" y="-104.5" font-family="FreeSans" font-size="10.00" fill="#000000">::CDBInsert</text>
</a>
</g>
</g>
<!-- Node2&#45;&gt;Node3 -->
<g id="edge2" class="edge">
<title>Node2&#45;&gt;Node3</title>
<path fill="none" stroke="#191970" d="M331.5495,-81.019C352.2712,-86.1006 376.4667,-92.0341 398.4668,-97.4292"/>
<polygon fill="#191970" stroke="#191970" points="332.2268,-77.5814 321.681,-78.5989 330.5596,-84.38 332.2268,-77.5814"/>
</g>
<!-- Node5 -->
<g id="node5" class="node">
<title>Node5</title>
<g id="a_node5"><a xlink:href="../../d0/df1/CDBTest_2CDBUtils_8C.html#a52dd9e308e0bb96b48b46d34c74aa354" target="_top" xlink:title="createPayloadType">
<polygon fill="none" stroke="#000000" points="408.5,-19.5 408.5,-39.5 519.5,-39.5 519.5,-19.5 408.5,-19.5"/>
<text text-anchor="middle" x="464" y="-26.5" font-family="FreeSans" font-size="10.00" fill="#000000">createPayloadType</text>
</a>
</g>
</g>
<!-- Node2&#45;&gt;Node5 -->
<g id="edge4" class="edge">
<title>Node2&#45;&gt;Node5</title>
<path fill="none" stroke="#191970" d="M337.6529,-56.3531C363.1149,-50.9415 392.7418,-44.6448 416.9043,-39.5094"/>
<polygon fill="#191970" stroke="#191970" points="336.8097,-52.954 327.7558,-58.4565 338.265,-59.8011 336.8097,-52.954"/>
</g>
<!-- Node8 -->
<g id="node8" class="node">
<title>Node8</title>
<g id="a_node8"><a xlink:href="../../d1/d9f/TestCDBInsert_8C.html#a933427ad1e5ce445e6535c113a6bac29" target="_top" xlink:title="TestCDBInsert">
<polygon fill="none" stroke="#000000" points="420,-58.5 420,-78.5 508,-78.5 508,-58.5 420,-58.5"/>
<text text-anchor="middle" x="464" y="-65.5" font-family="FreeSans" font-size="10.00" fill="#000000">TestCDBInsert</text>
</a>
</g>
</g>
<!-- Node2&#45;&gt;Node8 -->
<g id="edge8" class="edge">
<title>Node2&#45;&gt;Node8</title>
<path fill="none" stroke="#191970" d="M371.6582,-68.5C388.4075,-68.5 405.183,-68.5 419.752,-68.5"/>
<polygon fill="#191970" stroke="#191970" points="371.2528,-65.0001 361.2528,-68.5 371.2528,-72.0001 371.2528,-65.0001"/>
</g>
<!-- Node4 -->
<g id="node4" class="node">
<title>Node4</title>
<g id="a_node4"><a xlink:href="../../d5/dc2/classTPCPedestalCalibration.html#acb50b01e66573917f107211aeb18d4ad" target="_top" xlink:title="Called at the end of all processing.">
<polygon fill="none" stroke="#000000" points="573,-103.5 573,-123.5 733,-123.5 733,-103.5 573,-103.5"/>
<text text-anchor="middle" x="653" y="-110.5" font-family="FreeSans" font-size="10.00" fill="#000000">TPCPedestalCalibration::End</text>
</a>
</g>
</g>
<!-- Node3&#45;&gt;Node4 -->
<g id="edge3" class="edge">
<title>Node3&#45;&gt;Node4</title>
<path fill="none" stroke="#191970" d="M541.4055,-113.5C551.7582,-113.5 562.394,-113.5 572.7935,-113.5"/>
<polygon fill="#191970" stroke="#191970" points="541.1665,-110.0001 531.1665,-113.5 541.1665,-117.0001 541.1665,-110.0001"/>
</g>
<!-- Node5&#45;&gt;Node1 -->
<g id="edge5" class="edge">
<title>Node5&#45;&gt;Node1</title>
<path fill="none" stroke="#191970" d="M398.1741,-32.7741C333.4214,-35.9947 234.3709,-40.9213 164.418,-44.4007"/>
<polygon fill="#191970" stroke="#191970" points="398.4485,-36.2648 408.2623,-32.2723 398.1007,-29.2735 398.4485,-36.2648"/>
</g>
<!-- Node6 -->
<g id="node6" class="node">
<title>Node6</title>
<g id="a_node6"><a xlink:href="../../d9/d42/classInsertCalib.html#a7a575e004764b18b406f7556cf25d962" target="_top" xlink:title="InsertCalib::createPayloadType">
<polygon fill="none" stroke="#000000" points="567,-39.5 567,-59.5 739,-59.5 739,-39.5 567,-39.5"/>
<text text-anchor="middle" x="653" y="-46.5" font-family="FreeSans" font-size="10.00" fill="#000000">InsertCalib::createPayloadType</text>
</a>
</g>
</g>
<!-- Node5&#45;&gt;Node6 -->
<g id="edge6" class="edge">
<title>Node5&#45;&gt;Node6</title>
<path fill="none" stroke="#191970" d="M529.9646,-36.4804C541.8837,-37.7417 554.4711,-39.0737 566.8651,-40.3852"/>
<polygon fill="#191970" stroke="#191970" points="529.9968,-32.9643 519.684,-35.3925 529.2601,-39.9255 529.9968,-32.9643"/>
</g>
<!-- Node7 -->
<g id="node7" class="node">
<title>Node7</title>
<g id="a_node7"><a xlink:href="../../d9/d42/classInsertCalib.html#a9bbcebf67fc03335229430a7af1efcaa" target="_top" xlink:title="InsertCalib::insertcalib">
<polygon fill="none" stroke="#000000" points="588,-.5 588,-20.5 718,-20.5 718,-.5 588,-.5"/>
<text text-anchor="middle" x="653" y="-7.5" font-family="FreeSans" font-size="10.00" fill="#000000">InsertCalib::insertcalib</text>
</a>
</g>
</g>
<!-- Node5&#45;&gt;Node7 -->
<g id="edge7" class="edge">
<title>Node5&#45;&gt;Node7</title>
<path fill="none" stroke="#191970" d="M529.6408,-22.9012C548.4474,-21.0106 568.9408,-18.9504 587.7254,-17.062"/>
<polygon fill="#191970" stroke="#191970" points="529.2837,-19.4194 519.684,-23.9021 529.984,-26.3842 529.2837,-19.4194"/>
</g>
</g>
</svg>
