<?xml version="1.0" encoding="UTF-8" standalone="no"?>
<!DOCTYPE svg PUBLIC "-//W3C//DTD SVG 1.1//EN"
 "http://www.w3.org/Graphics/SVG/1.1/DTD/svg11.dtd">
<!-- Generated by graphviz version 2.40.1 (20161225.0304)
 -->
<!-- Title: hijfst_ Pages: 1 -->
<svg width="230pt" height="68pt"
 viewBox="0.00 0.00 230.00 68.00" xmlns="http://www.w3.org/2000/svg" xmlns:xlink="http://www.w3.org/1999/xlink">
<g id="graph0" class="graph" transform="scale(1 1) rotate(0) translate(4 64)">
<title>hijfst_</title>
<!-- Node1 -->
<g id="node1" class="node">
<title>Node1</title>
<polygon fill="#bfbfbf" stroke="#000000" points="0,-19.5 0,-39.5 47,-39.5 47,-19.5 0,-19.5"/>
<text text-anchor="middle" x="23.5" y="-26.5" font-family="FreeSans" font-size="10.00" fill="#000000">hijfst_</text>
</g>
<!-- Node2 -->
<g id="node2" class="node">
<title>Node2</title>
<g id="a_node2"><a xlink:href="../../df/da1/namespaceActs_1_1VectorHelpers.html#afc1703c2fa7adfd6517e5e16df2e5df4" target="_top" xlink:title="Acts::VectorHelpers::eta">
<polygon fill="none" stroke="#000000" points="83,-39.5 83,-59.5 222,-59.5 222,-39.5 83,-39.5"/>
<text text-anchor="middle" x="152.5" y="-46.5" font-family="FreeSans" font-size="10.00" fill="#000000">Acts::VectorHelpers::eta</text>
</a>
</g>
</g>
<!-- Node1&#45;&gt;Node2 -->
<g id="edge1" class="edge">
<title>Node1&#45;&gt;Node2</title>
<path fill="none" stroke="#191970" d="M47.1606,-33.1683C56.0151,-34.5411 66.6141,-36.1844 77.6273,-37.8918"/>
<polygon fill="#191970" stroke="#191970" points="77.4017,-41.3986 87.8199,-39.4721 78.4742,-34.4812 77.4017,-41.3986"/>
</g>
<!-- Node3 -->
<g id="node3" class="node">
<title>Node3</title>
<g id="a_node3"><a xlink:href="../../d2/dc5/KFPTrackVector_8h.html#a39a53a622c6abde5e888e4ad46fb04af" target="_top" xlink:title="Returns momentum of the track with index &quot;n&quot;.">
<polygon fill="none" stroke="#000000" points="138,-.5 138,-20.5 167,-20.5 167,-.5 138,-.5"/>
<text text-anchor="middle" x="152.5" y="-7.5" font-family="FreeSans" font-size="10.00" fill="#000000">P</text>
</a>
</g>
</g>
<!-- Node1&#45;&gt;Node3 -->
<g id="edge2" class="edge">
<title>Node1&#45;&gt;Node3</title>
<path fill="none" stroke="#191970" d="M47.1606,-26.0151C70.017,-22.6487 104.4964,-17.5703 127.7225,-14.1494"/>
<polygon fill="#191970" stroke="#191970" points="128.4366,-17.5821 137.8198,-12.6622 127.4165,-10.6568 128.4366,-17.5821"/>
</g>
</g>
</svg>
