<?xml version="1.0" encoding="UTF-8" standalone="no"?>
<!DOCTYPE svg PUBLIC "-//W3C//DTD SVG 1.1//EN"
 "http://www.w3.org/Graphics/SVG/1.1/DTD/svg11.dtd">
<!-- Generated by graphviz version 2.40.1 (20161225.0304)
 -->
<!-- Title: TSQLDriverManager::GetConnection Pages: 1 -->
<svg width="1288pt" height="1380pt"
 viewBox="0.00 0.00 1288.00 1380.37" xmlns="http://www.w3.org/2000/svg" xmlns:xlink="http://www.w3.org/1999/xlink">
<g id="graph0" class="graph" transform="scale(1 1) rotate(0) translate(4 1376.3727)">
<title>TSQLDriverManager::GetConnection</title>
<!-- Node1 -->
<g id="node1" class="node">
<title>Node1</title>
<polygon fill="#bfbfbf" stroke="#000000" points="0,-331.5 0,-363.5 124,-363.5 124,-331.5 0,-331.5"/>
<text text-anchor="start" x="8" y="-350.5" font-family="FreeSans" font-size="10.00" fill="#000000">TSQLDriverManager::</text>
<text text-anchor="middle" x="62" y="-338.5" font-family="FreeSans" font-size="10.00" fill="#000000">GetConnection</text>
</g>
<!-- Node2 -->
<g id="node2" class="node">
<title>Node2</title>
<g id="a_node2"><a xlink:href="../../d7/d47/classTSQLUrl.html#a8fca14f225e8fe804e6e31ef7bf22912" target="_top" xlink:title="TSQLUrl::AddOption">
<polygon fill="none" stroke="#000000" points="173.5,-765.5 173.5,-785.5 290.5,-785.5 290.5,-765.5 173.5,-765.5"/>
<text text-anchor="middle" x="232" y="-772.5" font-family="FreeSans" font-size="10.00" fill="#000000">TSQLUrl::AddOption</text>
</a>
</g>
</g>
<!-- Node1&#45;&gt;Node2 -->
<g id="edge1" class="edge">
<title>Node1&#45;&gt;Node2</title>
<path fill="none" stroke="#191970" d="M63.8825,-363.8073C72.0256,-431.7259 106.2512,-691.3474 160,-750.5 163.7262,-754.6009 168.1599,-758.0291 172.9699,-760.8949"/>
<polygon fill="#191970" stroke="#191970" points="171.4628,-764.055 181.9627,-765.4699 174.6369,-757.816 171.4628,-764.055"/>
</g>
<!-- Node3 -->
<g id="node3" class="node">
<title>Node3</title>
<g id="a_node3"><a xlink:href="../../de/d63/TSQLDriverManager_8cxx.html#a51e0a183cd8b599fe4741dc34b3cb20d" target="_top" xlink:title="EnterPassword">
<polygon fill="none" stroke="#000000" points="373,-1166.5 373,-1186.5 463,-1186.5 463,-1166.5 373,-1166.5"/>
<text text-anchor="middle" x="418" y="-1173.5" font-family="FreeSans" font-size="10.00" fill="#000000">EnterPassword</text>
</a>
</g>
</g>
<!-- Node1&#45;&gt;Node3 -->
<g id="edge2" class="edge">
<title>Node1&#45;&gt;Node3</title>
<path fill="none" stroke="#191970" d="M64.1507,-363.875C72.9676,-428.5946 108.3401,-665.5516 160,-717.5 206.7545,-764.5156 257.5355,-709.1979 304,-756.5 349.927,-803.2549 323.1163,-836.1735 340,-899.5 365.8016,-996.2757 399.0251,-1111.3476 412.2242,-1156.7151"/>
<polygon fill="#191970" stroke="#191970" points="408.9077,-1157.8444 415.0653,-1166.4661 415.6282,-1155.8862 408.9077,-1157.8444"/>
</g>
<!-- Node5 -->
<g id="node5" class="node">
<title>Node5</title>
<g id="a_node5"><a xlink:href="../../d7/d47/classTSQLUrl.html#a31119818a57751ff813a001f846524be" target="_top" xlink:title="TSQLUrl::GetAnchor">
<polygon fill="none" stroke="#000000" points="173,-525.5 173,-545.5 291,-545.5 291,-525.5 173,-525.5"/>
<text text-anchor="middle" x="232" y="-532.5" font-family="FreeSans" font-size="10.00" fill="#000000">TSQLUrl::GetAnchor</text>
</a>
</g>
</g>
<!-- Node1&#45;&gt;Node5 -->
<g id="edge4" class="edge">
<title>Node1&#45;&gt;Node5</title>
<path fill="none" stroke="#191970" d="M66.6703,-363.5774C77.3308,-397.3456 106.7415,-475.8735 160,-516.5 162.0686,-518.078 164.2569,-519.5252 166.5334,-520.8527"/>
<polygon fill="#191970" stroke="#191970" points="165.1711,-524.084 175.6837,-525.4011 168.2869,-517.8157 165.1711,-524.084"/>
</g>
<!-- Node6 -->
<g id="node6" class="node">
<title>Node6</title>
<g id="a_node6"><a xlink:href="../../d1/df8/classTSQLDriverManager.html#a47891968c18b3bff6c00ba4b7a88f2d6" target="_top" xlink:title="TSQLDriverManager::\lGetConnections">
<polygon fill="none" stroke="#000000" points="170,-474.5 170,-506.5 294,-506.5 294,-474.5 170,-474.5"/>
<text text-anchor="start" x="178" y="-493.5" font-family="FreeSans" font-size="10.00" fill="#000000">TSQLDriverManager::</text>
<text text-anchor="middle" x="232" y="-481.5" font-family="FreeSans" font-size="10.00" fill="#000000">GetConnections</text>
</a>
</g>
</g>
<!-- Node1&#45;&gt;Node6 -->
<g id="edge5" class="edge">
<title>Node1&#45;&gt;Node6</title>
<path fill="none" stroke="#191970" d="M71.3379,-363.629C86.7184,-388.843 119.725,-437.5924 160,-465.5 162.1412,-466.9837 164.379,-468.3871 166.6857,-469.7137"/>
<polygon fill="#191970" stroke="#191970" points="165.3758,-472.9765 175.8666,-474.4575 168.5892,-466.7576 165.3758,-472.9765"/>
</g>
<!-- Node7 -->
<g id="node7" class="node">
<title>Node7</title>
<g id="a_node7"><a xlink:href="../../d7/d47/classTSQLUrl.html#a8b8d06d5ea69df8ec387817606e0d326" target="_top" xlink:title="TSQLUrl::GetDriver">
<polygon fill="none" stroke="#000000" points="175.5,-435.5 175.5,-455.5 288.5,-455.5 288.5,-435.5 175.5,-435.5"/>
<text text-anchor="middle" x="232" y="-442.5" font-family="FreeSans" font-size="10.00" fill="#000000">TSQLUrl::GetDriver</text>
</a>
</g>
</g>
<!-- Node1&#45;&gt;Node7 -->
<g id="edge6" class="edge">
<title>Node1&#45;&gt;Node7</title>
<path fill="none" stroke="#191970" d="M77.4897,-363.5336C95.6513,-381.4289 127.4326,-410.0291 160,-426.5 164.0684,-428.5576 168.3822,-430.4088 172.7967,-432.0716"/>
<polygon fill="#191970" stroke="#191970" points="171.9706,-435.4882 182.5652,-435.4173 174.2388,-428.8658 171.9706,-435.4882"/>
</g>
<!-- Node8 -->
<g id="node8" class="node">
<title>Node8</title>
<g id="a_node8"><a xlink:href="../../d7/d47/classTSQLUrl.html#a49eff606b8520d316f73ceecaa7c9a68" target="_top" xlink:title="TSQLUrl::GetDSN">
<polygon fill="none" stroke="#000000" points="180.5,-396.5 180.5,-416.5 283.5,-416.5 283.5,-396.5 180.5,-396.5"/>
<text text-anchor="middle" x="232" y="-403.5" font-family="FreeSans" font-size="10.00" fill="#000000">TSQLUrl::GetDSN</text>
</a>
</g>
</g>
<!-- Node1&#45;&gt;Node8 -->
<g id="edge7" class="edge">
<title>Node1&#45;&gt;Node8</title>
<path fill="none" stroke="#191970" d="M98.3411,-363.6463C116.6271,-371.4327 139.2611,-380.5636 160,-387.5 166.5076,-389.6765 173.4118,-391.7673 180.2684,-393.7143"/>
<polygon fill="#191970" stroke="#191970" points="179.658,-397.1764 190.2284,-396.4572 181.5166,-390.4277 179.658,-397.1764"/>
</g>
<!-- Node9 -->
<g id="node9" class="node">
<title>Node9</title>
<g id="a_node9"><a xlink:href="../../d7/d47/classTSQLUrl.html#afdd04139137fc3d56bd71afc3fee67c9" target="_top" xlink:title="TSQLUrl::GetPort">
<polygon fill="none" stroke="#000000" points="181,-357.5 181,-377.5 283,-377.5 283,-357.5 181,-357.5"/>
<text text-anchor="middle" x="232" y="-364.5" font-family="FreeSans" font-size="10.00" fill="#000000">TSQLUrl::GetPort</text>
</a>
</g>
</g>
<!-- Node1&#45;&gt;Node9 -->
<g id="edge8" class="edge">
<title>Node1&#45;&gt;Node9</title>
<path fill="none" stroke="#191970" d="M124.3364,-354.8337C139.4272,-356.6091 155.5461,-358.5054 170.5937,-360.2757"/>
<polygon fill="#191970" stroke="#191970" points="170.4738,-363.7857 180.8143,-361.4782 171.2918,-356.8336 170.4738,-363.7857"/>
</g>
<!-- Node10 -->
<g id="node10" class="node">
<title>Node10</title>
<g id="a_node10"><a xlink:href="../../d7/d47/classTSQLUrl.html#a0ecd0ca3da95d5d5689a9eb3d5ed05a2" target="_top" xlink:title="TSQLUrl::GetProtocol">
<polygon fill="none" stroke="#000000" points="171,-318.5 171,-338.5 293,-338.5 293,-318.5 171,-318.5"/>
<text text-anchor="middle" x="232" y="-325.5" font-family="FreeSans" font-size="10.00" fill="#000000">TSQLUrl::GetProtocol</text>
</a>
</g>
</g>
<!-- Node1&#45;&gt;Node10 -->
<g id="edge9" class="edge">
<title>Node1&#45;&gt;Node10</title>
<path fill="none" stroke="#191970" d="M124.3364,-340.533C136.1816,-339.2091 148.6603,-337.8144 160.7571,-336.4624"/>
<polygon fill="#191970" stroke="#191970" points="161.2569,-339.9285 170.8062,-335.3393 160.4793,-332.9718 161.2569,-339.9285"/>
</g>
<!-- Node11 -->
<g id="node11" class="node">
<title>Node11</title>
<g id="a_node11"><a xlink:href="../../d7/d47/classTSQLUrl.html#ac7b15224b1986ba9d5beca03c41af59c" target="_top" xlink:title="TSQLUrl::GetSubProtocol">
<polygon fill="none" stroke="#000000" points="161.5,-279.5 161.5,-299.5 302.5,-299.5 302.5,-279.5 161.5,-279.5"/>
<text text-anchor="middle" x="232" y="-286.5" font-family="FreeSans" font-size="10.00" fill="#000000">TSQLUrl::GetSubProtocol</text>
</a>
</g>
</g>
<!-- Node1&#45;&gt;Node11 -->
<g id="edge10" class="edge">
<title>Node1&#45;&gt;Node11</title>
<path fill="none" stroke="#191970" d="M100.7825,-331.4433C118.6627,-324.3045 140.2559,-316.0523 160,-309.5 167.4455,-307.0291 175.3908,-304.6096 183.1843,-302.3551"/>
<polygon fill="#191970" stroke="#191970" points="184.2581,-305.6888 192.9259,-299.5962 182.3506,-298.9537 184.2581,-305.6888"/>
</g>
<!-- Node12 -->
<g id="node12" class="node">
<title>Node12</title>
<g id="a_node12"><a xlink:href="../../d7/d47/classTSQLUrl.html#a9e67589b89f057092f983b88f6bffff5" target="_top" xlink:title="TSQLUrl::GetUrl">
<polygon fill="none" stroke="#000000" points="184,-240.5 184,-260.5 280,-260.5 280,-240.5 184,-240.5"/>
<text text-anchor="middle" x="232" y="-247.5" font-family="FreeSans" font-size="10.00" fill="#000000">TSQLUrl::GetUrl</text>
</a>
</g>
</g>
<!-- Node1&#45;&gt;Node12 -->
<g id="edge11" class="edge">
<title>Node1&#45;&gt;Node12</title>
<path fill="none" stroke="#191970" d="M78.2701,-331.339C96.6416,-313.9475 128.1446,-286.6197 160,-270.5 164.9196,-268.0105 170.1902,-265.7964 175.5596,-263.8348"/>
<polygon fill="#191970" stroke="#191970" points="176.9111,-267.0731 185.2768,-260.5718 174.6828,-260.4373 176.9111,-267.0731"/>
</g>
<!-- Node13 -->
<g id="node13" class="node">
<title>Node13</title>
<g id="a_node13"><a xlink:href="../../dd/d4d/classTSQL.html#a3737a62f70f9859d07b2cfdb95a1ced1" target="_top" xlink:title="TSQL::GetWarnings">
<polygon fill="none" stroke="#000000" points="174.5,-201.5 174.5,-221.5 289.5,-221.5 289.5,-201.5 174.5,-201.5"/>
<text text-anchor="middle" x="232" y="-208.5" font-family="FreeSans" font-size="10.00" fill="#000000">TSQL::GetWarnings</text>
</a>
</g>
</g>
<!-- Node1&#45;&gt;Node13 -->
<g id="edge12" class="edge">
<title>Node1&#45;&gt;Node13</title>
<path fill="none" stroke="#191970" d="M71.2047,-331.3473C86.4024,-306.1534 119.1634,-257.6825 160,-231.5 163.5631,-229.2155 167.3874,-227.1885 171.3484,-225.3904"/>
<polygon fill="#191970" stroke="#191970" points="172.8088,-228.5756 180.7805,-221.5969 170.1967,-222.0812 172.8088,-228.5756"/>
</g>
<!-- Node14 -->
<g id="node14" class="node">
<title>Node14</title>
<g id="a_node14"><a xlink:href="../../d0/dba/classTSQLImporter.html#ab2b0998076e184db4cbed27757ca35cf" target="_top" xlink:title="TSQLImporter::Import">
<polygon fill="none" stroke="#000000" points="168.5,-687.5 168.5,-707.5 295.5,-707.5 295.5,-687.5 168.5,-687.5"/>
<text text-anchor="middle" x="232" y="-694.5" font-family="FreeSans" font-size="10.00" fill="#000000">TSQLImporter::Import</text>
</a>
</g>
</g>
<!-- Node1&#45;&gt;Node14 -->
<g id="edge13" class="edge">
<title>Node1&#45;&gt;Node14</title>
<path fill="none" stroke="#191970" d="M67.3657,-363.7817C80.6784,-403.3722 117.2547,-507.384 160,-588.5 177.6702,-622.032 202.9547,-658.2371 218.3809,-679.3342"/>
<polygon fill="#191970" stroke="#191970" points="215.5811,-681.4346 224.3377,-687.399 221.2117,-677.2758 215.5811,-681.4346"/>
</g>
<!-- Node36 -->
<g id="node36" class="node">
<title>Node36</title>
<g id="a_node36"><a xlink:href="../../dd/d4d/classTSQL.html#a12129fd04a2499449c8d13ed374f007a" target="_top" xlink:title="TSQL::Throw">
<polygon fill="none" stroke="#000000" points="1006,-770.5 1006,-790.5 1087,-790.5 1087,-770.5 1006,-770.5"/>
<text text-anchor="middle" x="1046.5" y="-777.5" font-family="FreeSans" font-size="10.00" fill="#000000">TSQL::Throw</text>
</a>
</g>
</g>
<!-- Node1&#45;&gt;Node36 -->
<g id="edge57" class="edge">
<title>Node1&#45;&gt;Node36</title>
<path fill="none" stroke="#191970" d="M64.1337,-363.7539C70.3929,-404.17 92.7175,-509.2717 160,-555.5 254.7647,-620.6107 303.0228,-574.5 418,-574.5 418,-574.5 418,-574.5 619,-574.5 760.1977,-574.5 815.5708,-521.7871 936,-595.5 998.1243,-633.5253 1029.6676,-720.7166 1041.2124,-760.2957"/>
<polygon fill="#191970" stroke="#191970" points="1037.8927,-761.4215 1043.9471,-770.116 1044.6361,-759.5436 1037.8927,-761.4215"/>
</g>
<!-- Node43 -->
<g id="node43" class="node">
<title>Node43</title>
<g id="a_node43"><a xlink:href="../../de/d63/TSQLDriverManager_8cxx.html#a6272554846f542535bf6cad71b257aa2" target="_top" xlink:title="InitHandlers">
<polygon fill="none" stroke="#000000" points="193,-162.5 193,-182.5 271,-182.5 271,-162.5 193,-162.5"/>
<text text-anchor="middle" x="232" y="-169.5" font-family="FreeSans" font-size="10.00" fill="#000000">InitHandlers</text>
</a>
</g>
</g>
<!-- Node1&#45;&gt;Node43 -->
<g id="edge50" class="edge">
<title>Node1&#45;&gt;Node43</title>
<path fill="none" stroke="#191970" d="M67.7362,-331.1107C79.7059,-299.355 110.4213,-229.3342 160,-192.5 166.8113,-187.4396 174.842,-183.6595 183.0244,-180.8357"/>
<polygon fill="#191970" stroke="#191970" points="184.07,-184.1762 192.6356,-177.9408 182.0511,-177.4736 184.07,-184.1762"/>
</g>
<!-- Node45 -->
<g id="node45" class="node">
<title>Node45</title>
<g id="a_node45"><a xlink:href="../../d7/d47/classTSQLUrl.html#abe6b083064a04891f2b7eb14b9cc1d90" target="_top" xlink:title="TSQLUrl::IsDynamicDSN">
<polygon fill="none" stroke="#000000" points="163,-123.5 163,-143.5 301,-143.5 301,-123.5 163,-123.5"/>
<text text-anchor="middle" x="232" y="-130.5" font-family="FreeSans" font-size="10.00" fill="#000000">TSQLUrl::IsDynamicDSN</text>
</a>
</g>
</g>
<!-- Node1&#45;&gt;Node45 -->
<g id="edge52" class="edge">
<title>Node1&#45;&gt;Node45</title>
<path fill="none" stroke="#191970" d="M65.4406,-331.4226C74.2549,-294.2229 101.2137,-201.7217 160,-153.5 162.4292,-151.5073 165.0432,-149.7127 167.7853,-148.0964"/>
<polygon fill="#191970" stroke="#191970" points="169.5414,-151.1312 176.9092,-143.5177 166.4017,-144.8748 169.5414,-151.1312"/>
</g>
<!-- Node46 -->
<g id="node46" class="node">
<title>Node46</title>
<g id="a_node46"><a xlink:href="../../d0/dba/classTSQLImporter.html#a4e3879181b35784aebba4ed083d2b4a0" target="_top" xlink:title="TSQLImporter::IsValid">
<polygon fill="none" stroke="#000000" points="169,-84.5 169,-104.5 295,-104.5 295,-84.5 169,-84.5"/>
<text text-anchor="middle" x="232" y="-91.5" font-family="FreeSans" font-size="10.00" fill="#000000">TSQLImporter::IsValid</text>
</a>
</g>
</g>
<!-- Node1&#45;&gt;Node46 -->
<g id="edge53" class="edge">
<title>Node1&#45;&gt;Node46</title>
<path fill="none" stroke="#191970" d="M63.9456,-331.4507C69.9295,-289.2611 91.9791,-174.3761 160,-114.5 162.191,-112.5713 164.5531,-110.8272 167.0393,-109.25"/>
<polygon fill="#191970" stroke="#191970" points="168.7374,-112.3109 175.9017,-104.5056 165.4336,-106.1396 168.7374,-112.3109"/>
</g>
<!-- Node47 -->
<g id="node47" class="node">
<title>Node47</title>
<g id="a_node47"><a xlink:href="../../d7/d47/classTSQLUrl.html#aa7f9c30ec9a33508f1d341a0184e51dc" target="_top" xlink:title="TSQLUrl::IsValid">
<polygon fill="none" stroke="#000000" points="184,-45.5 184,-65.5 280,-65.5 280,-45.5 184,-45.5"/>
<text text-anchor="middle" x="232" y="-52.5" font-family="FreeSans" font-size="10.00" fill="#000000">TSQLUrl::IsValid</text>
</a>
</g>
</g>
<!-- Node1&#45;&gt;Node47 -->
<g id="edge54" class="edge">
<title>Node1&#45;&gt;Node47</title>
<path fill="none" stroke="#191970" d="M62.8707,-331.2537C66.2852,-284.2966 82.7288,-147.1922 160,-75.5 164.1608,-71.6396 169.0023,-68.5146 174.1703,-65.9863"/>
<polygon fill="#191970" stroke="#191970" points="175.8299,-69.0884 183.7489,-62.0499 173.1691,-62.6138 175.8299,-69.0884"/>
</g>
<!-- Node48 -->
<g id="node48" class="node">
<title>Node48</title>
<g id="a_node48"><a xlink:href="../../dd/d85/classTSQLConnection.html#a67f5aea4516b2759ec5dcb0fe0e6cf00" target="_top" xlink:title="TSQLConnection::SetURL">
<polygon fill="none" stroke="#000000" points="160,-6.5 160,-26.5 304,-26.5 304,-6.5 160,-6.5"/>
<text text-anchor="middle" x="232" y="-13.5" font-family="FreeSans" font-size="10.00" fill="#000000">TSQLConnection::SetURL</text>
</a>
</g>
</g>
<!-- Node1&#45;&gt;Node48 -->
<g id="edge55" class="edge">
<title>Node1&#45;&gt;Node48</title>
<path fill="none" stroke="#191970" d="M64.9526,-331.3456C75.8274,-273.5371 115.3408,-78.1363 160,-35.5 161.2857,-34.2725 162.641,-33.1221 164.0548,-32.0439"/>
<polygon fill="#191970" stroke="#191970" points="166.0916,-34.8982 172.7124,-26.6269 162.3786,-28.9641 166.0916,-34.8982"/>
</g>
<!-- Node4 -->
<g id="node4" class="node">
<title>Node4</title>
<g id="a_node4"><a xlink:href="../../dd/d7e/namespaceActs_1_1Test.html#a88f0887efddd644c8defc1e91456c3c9" target="_top" xlink:title="Acts::Test::tmp">
<polygon fill="none" stroke="#000000" points="1000.5,-1341.5 1000.5,-1361.5 1092.5,-1361.5 1092.5,-1341.5 1000.5,-1341.5"/>
<text text-anchor="middle" x="1046.5" y="-1348.5" font-family="FreeSans" font-size="10.00" fill="#000000">Acts::Test::tmp</text>
</a>
</g>
</g>
<!-- Node3&#45;&gt;Node4 -->
<g id="edge3" class="edge">
<title>Node3&#45;&gt;Node4</title>
<path fill="none" stroke="#191970" d="M430.228,-1186.5363C471.1251,-1219.368 608.1175,-1323.4713 742,-1358.5 826.4396,-1380.5926 928.5802,-1371.2858 990.4917,-1361.8859"/>
<polygon fill="#191970" stroke="#191970" points="991.1126,-1365.3314 1000.4475,-1360.3205 990.0253,-1358.4163 991.1126,-1365.3314"/>
</g>
<!-- Node15 -->
<g id="node15" class="node">
<title>Node15</title>
<g id="a_node15"><a xlink:href="../../d0/dba/classTSQLImporter.html#a9dc13175bb0e6fec9985c39e112149cd" target="_top" xlink:title="TSQLImporter::LoadCatalog">
<polygon fill="none" stroke="#000000" points="340,-770.5 340,-790.5 496,-790.5 496,-770.5 340,-770.5"/>
<text text-anchor="middle" x="418" y="-777.5" font-family="FreeSans" font-size="10.00" fill="#000000">TSQLImporter::LoadCatalog</text>
</a>
</g>
</g>
<!-- Node14&#45;&gt;Node15 -->
<g id="edge14" class="edge">
<title>Node14&#45;&gt;Node15</title>
<path fill="none" stroke="#191970" d="M263.8975,-707.5331C276.5321,-711.7764 291.0944,-717.0068 304,-722.5 334.5714,-735.5127 368.3499,-753.1275 391.1431,-765.5196"/>
<polygon fill="#191970" stroke="#191970" points="389.7461,-768.7452 400.1976,-770.4821 393.1105,-762.6066 389.7461,-768.7452"/>
</g>
<!-- Node16 -->
<g id="node16" class="node">
<title>Node16</title>
<g id="a_node16"><a xlink:href="../../d0/dba/classTSQLImporter.html#aed2bf053363970ddef1b086b2429e5a6" target="_top" xlink:title="TSQLImporter::LoadTable">
<polygon fill="none" stroke="#000000" points="547,-1062.5 547,-1082.5 691,-1082.5 691,-1062.5 547,-1062.5"/>
<text text-anchor="middle" x="619" y="-1069.5" font-family="FreeSans" font-size="10.00" fill="#000000">TSQLImporter::LoadTable</text>
</a>
</g>
</g>
<!-- Node14&#45;&gt;Node16 -->
<g id="edge49" class="edge">
<title>Node14&#45;&gt;Node16</title>
<path fill="none" stroke="#191970" d="M278.803,-707.6166C287.9127,-711.1931 296.8427,-716.0133 304,-722.5 332.2906,-748.1402 317.9633,-769.3205 340,-800.5 418.9841,-912.2537 547.3601,-1017.2376 597.7451,-1056.3663"/>
<polygon fill="#191970" stroke="#191970" points="595.6251,-1059.1512 605.6819,-1062.4845 599.8988,-1053.6072 595.6251,-1059.1512"/>
</g>
<!-- Node15&#45;&gt;Node16 -->
<g id="edge15" class="edge">
<title>Node15&#45;&gt;Node16</title>
<path fill="none" stroke="#191970" d="M424.9189,-790.5513C454.1535,-833.0215 567.8107,-998.1355 606.2289,-1053.947"/>
<polygon fill="#191970" stroke="#191970" points="603.5571,-1056.2384 612.1102,-1062.491 609.3231,-1052.2693 603.5571,-1056.2384"/>
</g>
<!-- Node25 -->
<g id="node25" class="node">
<title>Node25</title>
<g id="a_node25"><a xlink:href="../../d7/db0/classTSQLImportClient.html#a3c0a30efc6ddde3f13fd8c4f797b3ebf" target="_top" xlink:title="TSQLImportClient::GetTableName">
<polygon fill="none" stroke="#000000" points="745.5,-887.5 745.5,-907.5 932.5,-907.5 932.5,-887.5 745.5,-887.5"/>
<text text-anchor="middle" x="839" y="-894.5" font-family="FreeSans" font-size="10.00" fill="#000000">TSQLImportClient::GetTableName</text>
</a>
</g>
</g>
<!-- Node15&#45;&gt;Node25 -->
<g id="edge32" class="edge">
<title>Node15&#45;&gt;Node25</title>
<path fill="none" stroke="#191970" d="M447.6503,-790.5618C504.335,-809.5526 632.2132,-851.2171 742,-878.5 751.907,-880.962 762.4476,-883.3057 772.7924,-885.4532"/>
<polygon fill="#191970" stroke="#191970" points="772.1269,-888.8895 782.6234,-887.4495 773.5199,-882.0295 772.1269,-888.8895"/>
</g>
<!-- Node27 -->
<g id="node27" class="node">
<title>Node27</title>
<g id="a_node27"><a xlink:href="../../dd/d85/classTSQLConnection.html#a7bfca405ed849d7fc90270b0fdccfe61" target="_top" xlink:title="TSQLConnection::CreateStatement">
<polygon fill="none" stroke="#000000" points="742,-926.5 742,-946.5 936,-946.5 936,-926.5 742,-926.5"/>
<text text-anchor="middle" x="839" y="-933.5" font-family="FreeSans" font-size="10.00" fill="#000000">TSQLConnection::CreateStatement</text>
</a>
</g>
</g>
<!-- Node15&#45;&gt;Node27 -->
<g id="edge31" class="edge">
<title>Node15&#45;&gt;Node27</title>
<path fill="none" stroke="#191970" d="M430.2351,-790.5125C450.3332,-806.5164 492.0994,-837.9418 532,-856.5 607.0182,-891.3919 699.7,-912.8807 763.4873,-924.6823"/>
<polygon fill="#191970" stroke="#191970" points="763.0053,-928.1519 773.4696,-926.4937 764.2553,-921.2644 763.0053,-928.1519"/>
</g>
<!-- Node31 -->
<g id="node31" class="node">
<title>Node31</title>
<g id="a_node31"><a xlink:href="../../d2/d58/classTSQLStatement.html#a74c6794fc585a834d31e71bf3fe9d3f3" target="_top" xlink:title="TSQLStatement::ExecuteQuery">
<polygon fill="none" stroke="#000000" points="532,-770.5 532,-790.5 706,-790.5 706,-770.5 532,-770.5"/>
<text text-anchor="middle" x="619" y="-777.5" font-family="FreeSans" font-size="10.00" fill="#000000">TSQLStatement::ExecuteQuery</text>
</a>
</g>
</g>
<!-- Node15&#45;&gt;Node31 -->
<g id="edge33" class="edge">
<title>Node15&#45;&gt;Node31</title>
<path fill="none" stroke="#191970" d="M496.2874,-780.5C504.6855,-780.5 513.3014,-780.5 521.8844,-780.5"/>
<polygon fill="#191970" stroke="#191970" points="521.93,-784.0001 531.9299,-780.5 521.9299,-777.0001 521.93,-784.0001"/>
</g>
<!-- Node41 -->
<g id="node41" class="node">
<title>Node41</title>
<g id="a_node41"><a xlink:href="../../d0/db4/classTSQLResultSet.html#a91d513d9731181f4d01127d59da91522" target="_top" xlink:title="TSQLResultSet::Next">
<polygon fill="none" stroke="#000000" points="558,-692.5 558,-712.5 680,-712.5 680,-692.5 558,-692.5"/>
<text text-anchor="middle" x="619" y="-699.5" font-family="FreeSans" font-size="10.00" fill="#000000">TSQLResultSet::Next</text>
</a>
</g>
</g>
<!-- Node15&#45;&gt;Node41 -->
<g id="edge46" class="edge">
<title>Node15&#45;&gt;Node41</title>
<path fill="none" stroke="#191970" d="M434.7925,-770.2977C456.5237,-757.4894 495.8905,-735.6115 532,-722.5 539.6639,-719.7172 547.8521,-717.2335 556.0254,-715.0436"/>
<polygon fill="#191970" stroke="#191970" points="557.1235,-718.3757 565.9514,-712.5175 555.3971,-711.592 557.1235,-718.3757"/>
</g>
<!-- Node42 -->
<g id="node42" class="node">
<title>Node42</title>
<g id="a_node42"><a xlink:href="../../d0/db4/classTSQLResultSet.html#a43772f9b242b2779437df9a2ecf69599" target="_top" xlink:title="TSQLResultSet::GetString">
<polygon fill="none" stroke="#000000" points="546,-731.5 546,-751.5 692,-751.5 692,-731.5 546,-731.5"/>
<text text-anchor="middle" x="619" y="-738.5" font-family="FreeSans" font-size="10.00" fill="#000000">TSQLResultSet::GetString</text>
</a>
</g>
</g>
<!-- Node15&#45;&gt;Node42 -->
<g id="edge47" class="edge">
<title>Node15&#45;&gt;Node42</title>
<path fill="none" stroke="#191970" d="M469.7625,-770.4565C496.4902,-765.2706 529.2861,-758.9072 557.3201,-753.4677"/>
<polygon fill="#191970" stroke="#191970" points="558.2627,-756.8502 567.4129,-751.5094 556.9293,-749.9784 558.2627,-756.8502"/>
</g>
<!-- Node17 -->
<g id="node17" class="node">
<title>Node17</title>
<g id="a_node17"><a xlink:href="../../d7/db0/classTSQLImportClient.html#a7f2cd99d495957b22fe7d134e92c4dd3" target="_top" xlink:title="TSQLImportClient::Init">
<polygon fill="none" stroke="#000000" points="774.5,-1238.5 774.5,-1258.5 903.5,-1258.5 903.5,-1238.5 774.5,-1238.5"/>
<text text-anchor="middle" x="839" y="-1245.5" font-family="FreeSans" font-size="10.00" fill="#000000">TSQLImportClient::Init</text>
</a>
</g>
</g>
<!-- Node16&#45;&gt;Node17 -->
<g id="edge16" class="edge">
<title>Node16&#45;&gt;Node17</title>
<path fill="none" stroke="#191970" d="M623.6762,-1082.6088C637.3621,-1110.9712 680.2983,-1191.6847 742,-1229.5 748.9692,-1233.7712 756.7031,-1237.1108 764.6759,-1239.7175"/>
<polygon fill="#191970" stroke="#191970" points="763.9058,-1243.138 774.4841,-1242.5471 765.8461,-1236.4123 763.9058,-1243.138"/>
</g>
<!-- Node20 -->
<g id="node20" class="node">
<title>Node20</title>
<g id="a_node20"><a xlink:href="../../d7/db0/classTSQLImportClient.html#af7d96f4a21ba0481b889ff79a26ceb02" target="_top" xlink:title="TSQLImportClient::IsValid">
<polygon fill="none" stroke="#000000" points="766.5,-1199.5 766.5,-1219.5 911.5,-1219.5 911.5,-1199.5 766.5,-1199.5"/>
<text text-anchor="middle" x="839" y="-1206.5" font-family="FreeSans" font-size="10.00" fill="#000000">TSQLImportClient::IsValid</text>
</a>
</g>
</g>
<!-- Node16&#45;&gt;Node20 -->
<g id="edge20" class="edge">
<title>Node16&#45;&gt;Node20</title>
<path fill="none" stroke="#191970" d="M626.2835,-1082.7032C643.4933,-1105.9762 689.2155,-1163.0841 742,-1190.5 746.64,-1192.91 751.5495,-1195.0154 756.5987,-1196.8547"/>
<polygon fill="#191970" stroke="#191970" points="755.8542,-1200.2935 766.4467,-1200.0738 758.0291,-1193.6399 755.8542,-1200.2935"/>
</g>
<!-- Node21 -->
<g id="node21" class="node">
<title>Node21</title>
<g id="a_node21"><a xlink:href="../../d7/db0/classTSQLImportClient.html#acc7535fa85ec1ccfc214018d0eb2bace" target="_top" xlink:title="TSQLImportClient::GetStatus">
<polygon fill="none" stroke="#000000" points="757.5,-1160.5 757.5,-1180.5 920.5,-1180.5 920.5,-1160.5 757.5,-1160.5"/>
<text text-anchor="middle" x="839" y="-1167.5" font-family="FreeSans" font-size="10.00" fill="#000000">TSQLImportClient::GetStatus</text>
</a>
</g>
</g>
<!-- Node16&#45;&gt;Node21 -->
<g id="edge21" class="edge">
<title>Node16&#45;&gt;Node21</title>
<path fill="none" stroke="#191970" d="M631.3928,-1082.7662C652.6313,-1099.8057 697.9646,-1133.8005 742,-1151.5 747.9037,-1153.8729 754.132,-1155.957 760.4672,-1157.7862"/>
<polygon fill="#191970" stroke="#191970" points="759.9149,-1161.2612 770.479,-1160.4558 761.7184,-1154.4975 759.9149,-1161.2612"/>
</g>
<!-- Node22 -->
<g id="node22" class="node">
<title>Node22</title>
<g id="a_node22"><a xlink:href="../../d7/db0/classTSQLImportClient.html#a12abe5cc1310f7c177d72d0f10a14db8" target="_top" xlink:title="TSQLImportClient::GetException">
<polygon fill="none" stroke="#000000" points="749,-1121.5 749,-1141.5 929,-1141.5 929,-1121.5 749,-1121.5"/>
<text text-anchor="middle" x="839" y="-1128.5" font-family="FreeSans" font-size="10.00" fill="#000000">TSQLImportClient::GetException</text>
</a>
</g>
</g>
<!-- Node16&#45;&gt;Node22 -->
<g id="edge22" class="edge">
<title>Node16&#45;&gt;Node22</title>
<path fill="none" stroke="#191970" d="M646.5618,-1082.5239C671.3058,-1091.2676 708.7455,-1103.8697 742,-1112.5 751.5923,-1114.9894 761.7931,-1117.3226 771.8396,-1119.4433"/>
<polygon fill="#191970" stroke="#191970" points="771.3067,-1122.9068 781.8065,-1121.4911 772.7156,-1116.0501 771.3067,-1122.9068"/>
</g>
<!-- Node23 -->
<g id="node23" class="node">
<title>Node23</title>
<g id="a_node23"><a xlink:href="../../d0/dba/classTSQLImporter.html#a0db8529023ad798f2492030bb8b22539" target="_top" xlink:title="TSQLImporter::Throw">
<polygon fill="none" stroke="#000000" points="776.5,-1082.5 776.5,-1102.5 901.5,-1102.5 901.5,-1082.5 776.5,-1082.5"/>
<text text-anchor="middle" x="839" y="-1089.5" font-family="FreeSans" font-size="10.00" fill="#000000">TSQLImporter::Throw</text>
</a>
</g>
</g>
<!-- Node16&#45;&gt;Node23 -->
<g id="edge23" class="edge">
<title>Node16&#45;&gt;Node23</title>
<path fill="none" stroke="#191970" d="M691.0362,-1079.0487C715.1594,-1081.2418 742.059,-1083.6872 766.2372,-1085.8852"/>
<polygon fill="#191970" stroke="#191970" points="766.1409,-1089.3908 776.4167,-1086.8106 766.7747,-1082.4195 766.1409,-1089.3908"/>
</g>
<!-- Node24 -->
<g id="node24" class="node">
<title>Node24</title>
<g id="a_node24"><a xlink:href="../../d7/db0/classTSQLImportClient.html#ab4e0ae932986490539e3ee95976aa83f" target="_top" xlink:title="TSQLImportClient::GetColumns">
<polygon fill="none" stroke="#000000" points="751.5,-1043.5 751.5,-1063.5 926.5,-1063.5 926.5,-1043.5 751.5,-1043.5"/>
<text text-anchor="middle" x="839" y="-1050.5" font-family="FreeSans" font-size="10.00" fill="#000000">TSQLImportClient::GetColumns</text>
</a>
</g>
</g>
<!-- Node16&#45;&gt;Node24 -->
<g id="edge24" class="edge">
<title>Node16&#45;&gt;Node24</title>
<path fill="none" stroke="#191970" d="M691.0362,-1066.2787C707.0178,-1064.8985 724.218,-1063.413 741.0382,-1061.9603"/>
<polygon fill="#191970" stroke="#191970" points="741.786,-1065.4089 751.4477,-1061.0613 741.1836,-1058.4348 741.786,-1065.4089"/>
</g>
<!-- Node16&#45;&gt;Node25 -->
<g id="edge25" class="edge">
<title>Node16&#45;&gt;Node25</title>
<path fill="none" stroke="#191970" d="M623.9329,-1062.1456C637.9805,-1033.8679 681.1458,-954.9499 742,-917.5 745.852,-915.1295 749.9365,-913.0349 754.1651,-911.1847"/>
<polygon fill="#191970" stroke="#191970" points="755.5643,-914.396 763.6181,-907.5122 753.0293,-907.8712 755.5643,-914.396"/>
</g>
<!-- Node26 -->
<g id="node26" class="node">
<title>Node26</title>
<g id="a_node26"><a xlink:href="../../d7/db0/classTSQLImportClient.html#a7824dc123f32e923cb4d039ece1767a3" target="_top" xlink:title="TSQLImportClient::GetLocalFile">
<polygon fill="none" stroke="#000000" points="752,-1004.5 752,-1024.5 926,-1024.5 926,-1004.5 752,-1004.5"/>
<text text-anchor="middle" x="839" y="-1011.5" font-family="FreeSans" font-size="10.00" fill="#000000">TSQLImportClient::GetLocalFile</text>
</a>
</g>
</g>
<!-- Node16&#45;&gt;Node26 -->
<g id="edge26" class="edge">
<title>Node16&#45;&gt;Node26</title>
<path fill="none" stroke="#191970" d="M648.5969,-1062.477C673.3702,-1054.3003 709.746,-1042.787 742,-1034.5 752.8841,-1031.7036 764.5328,-1029.0315 775.8465,-1026.6025"/>
<polygon fill="#191970" stroke="#191970" points="776.6104,-1030.0184 785.6749,-1024.5334 775.1684,-1023.1686 776.6104,-1030.0184"/>
</g>
<!-- Node16&#45;&gt;Node27 -->
<g id="edge27" class="edge">
<title>Node16&#45;&gt;Node27</title>
<path fill="none" stroke="#191970" d="M626.6061,-1062.1657C644.1424,-1039.1547 689.9214,-983.5946 742,-956.5 746.9098,-953.9456 752.1183,-951.7174 757.4729,-949.7737"/>
<polygon fill="#191970" stroke="#191970" points="758.8237,-953.0143 767.236,-946.5734 756.6432,-946.3625 758.8237,-953.0143"/>
</g>
<!-- Node28 -->
<g id="node28" class="node">
<title>Node28</title>
<g id="a_node28"><a xlink:href="../../d2/d58/classTSQLStatement.html#a6eddfc317081f91097f514f4f396eb3c" target="_top" xlink:title="TSQLStatement::ExecuteUpdate">
<polygon fill="none" stroke="#000000" points="749,-965.5 749,-985.5 929,-985.5 929,-965.5 749,-965.5"/>
<text text-anchor="middle" x="839" y="-972.5" font-family="FreeSans" font-size="10.00" fill="#000000">TSQLStatement::ExecuteUpdate</text>
</a>
</g>
</g>
<!-- Node16&#45;&gt;Node28 -->
<g id="edge28" class="edge">
<title>Node16&#45;&gt;Node28</title>
<path fill="none" stroke="#191970" d="M631.8043,-1062.2887C653.2835,-1045.6848 698.5063,-1012.9392 742,-995.5 749.1256,-992.6429 756.7163,-990.1741 764.393,-988.0449"/>
<polygon fill="#191970" stroke="#191970" points="765.329,-991.4181 774.1344,-985.5261 763.5766,-984.641 765.329,-991.4181"/>
</g>
<!-- Node29 -->
<g id="node29" class="node">
<title>Node29</title>
<g id="a_node29"><a xlink:href="../../d7/db0/classTSQLImportClient.html#aefca4f35d7fdbe7adbb884da9b4fcc18" target="_top" xlink:title="TSQLImportClient::GetLocal">
<polygon fill="none" stroke="#000000" points="761,-1328.5 761,-1348.5 917,-1348.5 917,-1328.5 761,-1328.5"/>
<text text-anchor="middle" x="839" y="-1335.5" font-family="FreeSans" font-size="10.00" fill="#000000">TSQLImportClient::GetLocal</text>
</a>
</g>
</g>
<!-- Node16&#45;&gt;Node29 -->
<g id="edge29" class="edge">
<title>Node16&#45;&gt;Node29</title>
<path fill="none" stroke="#191970" d="M620.7359,-1082.5029C627.8635,-1120.3594 658.5516,-1255.9174 742,-1319.5 745.0456,-1321.8205 748.2971,-1323.8809 751.6956,-1325.7088"/>
<polygon fill="#191970" stroke="#191970" points="750.4499,-1328.9892 760.9942,-1330.0236 753.3964,-1322.6395 750.4499,-1328.9892"/>
</g>
<!-- Node30 -->
<g id="node30" class="node">
<title>Node30</title>
<g id="a_node30"><a xlink:href="../../d7/db0/classTSQLImportClient.html#a2867f0ad940680b08d383014189690c3" target="_top" xlink:title="TSQLImportClient::GetSkip\lLines">
<polygon fill="none" stroke="#000000" points="763,-1277.5 763,-1309.5 915,-1309.5 915,-1277.5 763,-1277.5"/>
<text text-anchor="start" x="771" y="-1296.5" font-family="FreeSans" font-size="10.00" fill="#000000">TSQLImportClient::GetSkip</text>
<text text-anchor="middle" x="839" y="-1284.5" font-family="FreeSans" font-size="10.00" fill="#000000">Lines</text>
</a>
</g>
</g>
<!-- Node16&#45;&gt;Node30 -->
<g id="edge30" class="edge">
<title>Node16&#45;&gt;Node30</title>
<path fill="none" stroke="#191970" d="M622.3983,-1082.9573C633.6447,-1115.8482 672.9236,-1217.9974 742,-1268.5 745.6523,-1271.1702 749.564,-1273.5559 753.6447,-1275.6873"/>
<polygon fill="#191970" stroke="#191970" points="752.2703,-1278.9082 762.8129,-1279.9589 755.2266,-1272.563 752.2703,-1278.9082"/>
</g>
<!-- Node17&#45;&gt;Node4 -->
<g id="edge18" class="edge">
<title>Node17&#45;&gt;Node4</title>
<path fill="none" stroke="#191970" d="M903.6592,-1257.6751C914.7178,-1260.4075 925.8906,-1263.9395 936,-1268.5 972.4915,-1284.9619 1008.3553,-1315.2233 1028.9082,-1334.3033"/>
<polygon fill="#191970" stroke="#191970" points="1026.5807,-1336.9195 1036.2492,-1341.252 1031.3927,-1331.8357 1026.5807,-1336.9195"/>
</g>
<!-- Node18 -->
<g id="node18" class="node">
<title>Node18</title>
<g id="a_node18"><a xlink:href="../../da/de5/ThicknessScan_8m.html#a5f84f51058cdb4f43c29d2c875659f42" target="_top" xlink:title="fclose">
<polygon fill="none" stroke="#000000" points="1023.5,-1257.5 1023.5,-1277.5 1069.5,-1277.5 1069.5,-1257.5 1023.5,-1257.5"/>
<text text-anchor="middle" x="1046.5" y="-1264.5" font-family="FreeSans" font-size="10.00" fill="#000000">fclose</text>
</a>
</g>
</g>
<!-- Node17&#45;&gt;Node18 -->
<g id="edge17" class="edge">
<title>Node17&#45;&gt;Node18</title>
<path fill="none" stroke="#191970" d="M903.5169,-1254.4076C939.86,-1257.7354 983.7355,-1261.7529 1013.2173,-1264.4524"/>
<polygon fill="#191970" stroke="#191970" points="1013.1096,-1267.9571 1023.3871,-1265.3836 1013.7479,-1260.9863 1013.1096,-1267.9571"/>
</g>
<!-- Node19 -->
<g id="node19" class="node">
<title>Node19</title>
<g id="a_node19"><a xlink:href="../../d8/db1/TSQLImportClient_8cxx.html#a3b2e5061932a086f0cb701213ea229dd" target="_top" xlink:title="Validate">
<polygon fill="none" stroke="#000000" points="1017.5,-1218.5 1017.5,-1238.5 1075.5,-1238.5 1075.5,-1218.5 1017.5,-1218.5"/>
<text text-anchor="middle" x="1046.5" y="-1225.5" font-family="FreeSans" font-size="10.00" fill="#000000">Validate</text>
</a>
</g>
</g>
<!-- Node17&#45;&gt;Node19 -->
<g id="edge19" class="edge">
<title>Node17&#45;&gt;Node19</title>
<path fill="none" stroke="#191970" d="M903.5169,-1242.2815C937.423,-1239.0134 977.8852,-1235.1135 1007.099,-1232.2977"/>
<polygon fill="#191970" stroke="#191970" points="1007.702,-1235.7559 1017.32,-1231.3125 1007.0304,-1228.7882 1007.702,-1235.7559"/>
</g>
<!-- Node32 -->
<g id="node32" class="node">
<title>Node32</title>
<g id="a_node32"><a xlink:href="../../dd/d4d/classTSQL.html#a5f3e7a10e954e822f96fee7185b9c46f" target="_top" xlink:title="TSQL::ClearWarnings">
<polygon fill="none" stroke="#000000" points="777.5,-680.5 777.5,-700.5 900.5,-700.5 900.5,-680.5 777.5,-680.5"/>
<text text-anchor="middle" x="839" y="-687.5" font-family="FreeSans" font-size="10.00" fill="#000000">TSQL::ClearWarnings</text>
</a>
</g>
</g>
<!-- Node31&#45;&gt;Node32 -->
<g id="edge34" class="edge">
<title>Node31&#45;&gt;Node32</title>
<path fill="none" stroke="#191970" d="M688.3987,-770.3897C694.611,-768.0112 700.5885,-765.0887 706,-761.5 729.1224,-746.166 718.7884,-725.6987 742,-710.5 749.7117,-705.4504 758.4474,-701.6387 767.4399,-698.7677"/>
<polygon fill="#191970" stroke="#191970" points="768.582,-702.0825 777.2623,-696.0077 766.6883,-695.3435 768.582,-702.0825"/>
</g>
<!-- Node33 -->
<g id="node33" class="node">
<title>Node33</title>
<g id="a_node33"><a xlink:href="../../d0/db4/classTSQLResultSet.html#a26f7c0f5d3f023ced26cd62c6df48ec8" target="_top" xlink:title="TSQLResultSet::Close">
<polygon fill="none" stroke="#000000" points="776.5,-641.5 776.5,-661.5 901.5,-661.5 901.5,-641.5 776.5,-641.5"/>
<text text-anchor="middle" x="839" y="-648.5" font-family="FreeSans" font-size="10.00" fill="#000000">TSQLResultSet::Close</text>
</a>
</g>
</g>
<!-- Node31&#45;&gt;Node33 -->
<g id="edge35" class="edge">
<title>Node31&#45;&gt;Node33</title>
<path fill="none" stroke="#191970" d="M691.9122,-770.4905C696.9794,-768.0577 701.7527,-765.0968 706,-761.5 738.8767,-733.659 708.9613,-699.1486 742,-671.5 749.1659,-665.5031 757.6606,-661.1511 766.597,-658.0157"/>
<polygon fill="#191970" stroke="#191970" points="767.8507,-661.2938 776.4252,-655.0707 765.8414,-654.5884 767.8507,-661.2938"/>
</g>
<!-- Node34 -->
<g id="node34" class="node">
<title>Node34</title>
<g id="a_node34"><a xlink:href="../../dd/d85/classTSQLConnection.html#aa75ade25fcebc5a884dae09f1f1cd59b" target="_top" xlink:title="TSQLConnection::GetCatalog">
<polygon fill="none" stroke="#000000" points="757,-809.5 757,-829.5 921,-829.5 921,-809.5 757,-809.5"/>
<text text-anchor="middle" x="839" y="-816.5" font-family="FreeSans" font-size="10.00" fill="#000000">TSQLConnection::GetCatalog</text>
</a>
</g>
</g>
<!-- Node31&#45;&gt;Node34 -->
<g id="edge36" class="edge">
<title>Node31&#45;&gt;Node34</title>
<path fill="none" stroke="#191970" d="M675.6555,-790.5435C705.1663,-795.7749 741.4359,-802.2046 772.2959,-807.6752"/>
<polygon fill="#191970" stroke="#191970" points="772.0791,-811.1912 782.5365,-809.4906 773.301,-804.2987 772.0791,-811.1912"/>
</g>
<!-- Node31&#45;&gt;Node36 -->
<g id="edge45" class="edge">
<title>Node31&#45;&gt;Node36</title>
<path fill="none" stroke="#191970" d="M706.0263,-780.5C793.1674,-780.5 924.2867,-780.5 995.7114,-780.5"/>
<polygon fill="#191970" stroke="#191970" points="995.804,-784.0001 1005.804,-780.5 995.804,-777.0001 995.804,-784.0001"/>
</g>
<!-- Node39 -->
<g id="node39" class="node">
<title>Node39</title>
<g id="a_node39"><a xlink:href="../../dd/d85/classTSQLConnection.html#af4750098d4214bd8390565896e148013" target="_top" xlink:title="TSQLConnection::SetCatalog">
<polygon fill="none" stroke="#000000" points="758,-848.5 758,-868.5 920,-868.5 920,-848.5 758,-848.5"/>
<text text-anchor="middle" x="839" y="-855.5" font-family="FreeSans" font-size="10.00" fill="#000000">TSQLConnection::SetCatalog</text>
</a>
</g>
</g>
<!-- Node31&#45;&gt;Node39 -->
<g id="edge41" class="edge">
<title>Node31&#45;&gt;Node39</title>
<path fill="none" stroke="#191970" d="M636.3345,-790.5624C659.6284,-803.6703 702.6619,-826.4489 742,-839.5 749.5844,-842.0163 757.6191,-844.2458 765.6894,-846.2096"/>
<polygon fill="#191970" stroke="#191970" points="764.9925,-849.6407 775.523,-848.4747 766.5638,-842.8193 764.9925,-849.6407"/>
</g>
<!-- Node40 -->
<g id="node40" class="node">
<title>Node40</title>
<g id="a_node40"><a xlink:href="../../da/d0b/classMySQLConnectionPrivate.html#a77ac562ef61183382b70e7a04027c209" target="_top" xlink:title="MySQLConnectionPrivate\l::CheckIfServerIsAlive">
<polygon fill="none" stroke="#000000" points="767.5,-719.5 767.5,-751.5 910.5,-751.5 910.5,-719.5 767.5,-719.5"/>
<text text-anchor="start" x="775.5" y="-738.5" font-family="FreeSans" font-size="10.00" fill="#000000">MySQLConnectionPrivate</text>
<text text-anchor="middle" x="839" y="-726.5" font-family="FreeSans" font-size="10.00" fill="#000000">::CheckIfServerIsAlive</text>
</a>
</g>
</g>
<!-- Node31&#45;&gt;Node40 -->
<g id="edge44" class="edge">
<title>Node31&#45;&gt;Node40</title>
<path fill="none" stroke="#191970" d="M668.0985,-770.4571C694.2672,-765.1044 727.1507,-758.3783 757.0664,-752.2592"/>
<polygon fill="#191970" stroke="#191970" points="757.9882,-755.6432 767.0839,-750.2101 756.5853,-748.7851 757.9882,-755.6432"/>
</g>
<!-- Node35 -->
<g id="node35" class="node">
<title>Node35</title>
<g id="a_node35"><a xlink:href="../../dd/d85/classTSQLConnection.html#a89016b2a42450757a7233a43f28f3ded" target="_top" xlink:title="TSQLConnection::IsClosed">
<polygon fill="none" stroke="#000000" points="972,-829.5 972,-849.5 1121,-849.5 1121,-829.5 972,-829.5"/>
<text text-anchor="middle" x="1046.5" y="-836.5" font-family="FreeSans" font-size="10.00" fill="#000000">TSQLConnection::IsClosed</text>
</a>
</g>
</g>
<!-- Node34&#45;&gt;Node35 -->
<g id="edge37" class="edge">
<title>Node34&#45;&gt;Node35</title>
<path fill="none" stroke="#191970" d="M921.0095,-827.4045C934.3696,-828.6922 948.2332,-830.0285 961.6596,-831.3226"/>
<polygon fill="#191970" stroke="#191970" points="961.5363,-834.8269 971.8259,-832.3025 962.2079,-827.8591 961.5363,-834.8269"/>
</g>
<!-- Node34&#45;&gt;Node36 -->
<g id="edge38" class="edge">
<title>Node34&#45;&gt;Node36</title>
<path fill="none" stroke="#191970" d="M892.4364,-809.4565C924.2922,-803.4692 964.4981,-795.9124 995.8485,-790.02"/>
<polygon fill="#191970" stroke="#191970" points="996.5129,-793.4565 1005.6943,-788.1695 995.2198,-786.577 996.5129,-793.4565"/>
</g>
<!-- Node37 -->
<g id="node37" class="node">
<title>Node37</title>
<g id="a_node37"><a xlink:href="../../d8/d8f/classTSQLException.html#a395335cef98b7d73b7cb158032dcd7e4" target="_top" xlink:title="TSQLException::Print">
<polygon fill="none" stroke="#000000" points="1157,-790.5 1157,-810.5 1280,-810.5 1280,-790.5 1157,-790.5"/>
<text text-anchor="middle" x="1218.5" y="-797.5" font-family="FreeSans" font-size="10.00" fill="#000000">TSQLException::Print</text>
</a>
</g>
</g>
<!-- Node36&#45;&gt;Node37 -->
<g id="edge39" class="edge">
<title>Node36&#45;&gt;Node37</title>
<path fill="none" stroke="#191970" d="M1087.2616,-785.2397C1105.0231,-787.305 1126.3836,-789.7888 1146.6635,-792.1469"/>
<polygon fill="#191970" stroke="#191970" points="1146.4899,-795.6502 1156.8273,-793.3288 1147.2985,-788.6971 1146.4899,-795.6502"/>
</g>
<!-- Node38 -->
<g id="node38" class="node">
<title>Node38</title>
<g id="a_node38"><a xlink:href="../../da/d23/msg__buffer_8cc.html#a98631211a4a8aee62f572375d5b637be" target="_top" xlink:title="printf">
<polygon fill="none" stroke="#000000" points="1196.5,-751.5 1196.5,-771.5 1240.5,-771.5 1240.5,-751.5 1196.5,-751.5"/>
<text text-anchor="middle" x="1218.5" y="-758.5" font-family="FreeSans" font-size="10.00" fill="#000000">printf</text>
</a>
</g>
</g>
<!-- Node36&#45;&gt;Node38 -->
<g id="edge40" class="edge">
<title>Node36&#45;&gt;Node38</title>
<path fill="none" stroke="#191970" d="M1087.2616,-775.9973C1117.5638,-772.6499 1158.3412,-768.1455 1186.3569,-765.0507"/>
<polygon fill="#191970" stroke="#191970" points="1186.8657,-768.5159 1196.421,-763.939 1186.0971,-761.5582 1186.8657,-768.5159"/>
</g>
<!-- Node39&#45;&gt;Node35 -->
<g id="edge42" class="edge">
<title>Node39&#45;&gt;Node35</title>
<path fill="none" stroke="#191970" d="M920.1164,-851.0725C933.7032,-849.8284 947.8344,-848.5344 961.5153,-847.2817"/>
<polygon fill="#191970" stroke="#191970" points="962.2337,-850.7307 971.8729,-846.3333 961.5954,-843.7598 962.2337,-850.7307"/>
</g>
<!-- Node39&#45;&gt;Node36 -->
<g id="edge43" class="edge">
<title>Node39&#45;&gt;Node36</title>
<path fill="none" stroke="#191970" d="M904.4185,-848.4496C915.1187,-846.0213 925.9765,-843.0674 936,-839.5 937.0955,-839.1101 986.0928,-812.883 1018.4677,-795.5318"/>
<polygon fill="#191970" stroke="#191970" points="1020.3471,-798.4956 1027.5072,-790.6863 1017.04,-792.326 1020.3471,-798.4956"/>
</g>
<!-- Node42&#45;&gt;Node36 -->
<g id="edge48" class="edge">
<title>Node42&#45;&gt;Node36</title>
<path fill="none" stroke="#191970" d="M691.9122,-731.4905C696.9794,-729.0577 701.7527,-726.0968 706,-722.5 738.8767,-694.659 706.3258,-656.6526 742,-632.5 813.3978,-584.1613 858.9223,-593.8568 936,-632.5 990.0597,-659.603 1024.438,-727.0926 1038.7947,-760.7562"/>
<polygon fill="#191970" stroke="#191970" points="1035.7186,-762.4797 1042.752,-770.4033 1042.1949,-759.8231 1035.7186,-762.4797"/>
</g>
<!-- Node44 -->
<g id="node44" class="node">
<title>Node44</title>
<g id="a_node44"><a xlink:href="../../de/d63/TSQLDriverManager_8cxx.html#ac941ab2fa068a02690b73de09422638a" target="_top" xlink:title="InitRDBCpath">
<polygon fill="none" stroke="#000000" points="376.5,-162.5 376.5,-182.5 459.5,-182.5 459.5,-162.5 376.5,-162.5"/>
<text text-anchor="middle" x="418" y="-169.5" font-family="FreeSans" font-size="10.00" fill="#000000">InitRDBCpath</text>
</a>
</g>
</g>
<!-- Node43&#45;&gt;Node44 -->
<g id="edge51" class="edge">
<title>Node43&#45;&gt;Node44</title>
<path fill="none" stroke="#191970" d="M271.4458,-172.5C299.0138,-172.5 336.1058,-172.5 366.0757,-172.5"/>
<polygon fill="#191970" stroke="#191970" points="366.3521,-176.0001 376.3521,-172.5 366.352,-169.0001 366.3521,-176.0001"/>
</g>
<!-- Node49 -->
<g id="node49" class="node">
<title>Node49</title>
<g id="a_node49"><a xlink:href="../../de/da5/classTSQLDatabaseMetaData.html#a4a58099a1c291dde74f1accbbf548e8c" target="_top" xlink:title="TSQLDatabaseMetaData\l::SetURL">
<polygon fill="none" stroke="#000000" points="348,-.5 348,-32.5 488,-32.5 488,-.5 348,-.5"/>
<text text-anchor="start" x="356" y="-19.5" font-family="FreeSans" font-size="10.00" fill="#000000">TSQLDatabaseMetaData</text>
<text text-anchor="middle" x="418" y="-7.5" font-family="FreeSans" font-size="10.00" fill="#000000">::SetURL</text>
</a>
</g>
</g>
<!-- Node48&#45;&gt;Node49 -->
<g id="edge56" class="edge">
<title>Node48&#45;&gt;Node49</title>
<path fill="none" stroke="#191970" d="M304.1787,-16.5C315.1242,-16.5 326.4754,-16.5 337.5826,-16.5"/>
<polygon fill="#191970" stroke="#191970" points="337.6959,-20.0001 347.6959,-16.5 337.6958,-13.0001 337.6959,-20.0001"/>
</g>
</g>
</svg>
