<?xml version="1.0" encoding="UTF-8" standalone="no"?>
<!DOCTYPE svg PUBLIC "-//W3C//DTD SVG 1.1//EN"
 "http://www.w3.org/Graphics/SVG/1.1/DTD/svg11.dtd">
<!-- Generated by graphviz version 2.40.1 (20161225.0304)
 -->
<!-- Title: analysis/blob/master/JS&#45;Jet/FastJetMedianBkg/src_JetMedianTree/PrintTowers.h Pages: 1 -->
<svg width="629pt" height="224pt"
 viewBox="0.00 0.00 629.00 224.00" xmlns="http://www.w3.org/2000/svg" xmlns:xlink="http://www.w3.org/1999/xlink">
<g id="graph0" class="graph" transform="scale(1 1) rotate(0) translate(4 220)">
<title>analysis/blob/master/JS&#45;Jet/FastJetMedianBkg/src_JetMedianTree/PrintTowers.h</title>
<!-- Node1 -->
<g id="node1" class="node">
<title>Node1</title>
<polygon fill="#bfbfbf" stroke="#000000" points="310,-171.5 310,-215.5 491,-215.5 491,-171.5 310,-171.5"/>
<text text-anchor="start" x="318" y="-202.5" font-family="FreeSans" font-size="10.00" fill="#000000">analysis/blob/master</text>
<text text-anchor="start" x="318" y="-190.5" font-family="FreeSans" font-size="10.00" fill="#000000">/JS&#45;Jet/FastJetMedianBkg</text>
<text text-anchor="middle" x="400.5" y="-178.5" font-family="FreeSans" font-size="10.00" fill="#000000">/src_JetMedianTree/PrintTowers.h</text>
</g>
<!-- Node2 -->
<g id="node2" class="node">
<title>Node2</title>
<g id="a_node2"><a xlink:href="../../d5/dc2/SubsysReco_8h.html" target="_top" xlink:title="fun4all/SubsysReco.h">
<polygon fill="none" stroke="#000000" points="1.5,-114.5 1.5,-134.5 125.5,-134.5 125.5,-114.5 1.5,-114.5"/>
<text text-anchor="middle" x="63.5" y="-121.5" font-family="FreeSans" font-size="10.00" fill="#000000">fun4all/SubsysReco.h</text>
</a>
</g>
</g>
<!-- Node1&#45;&gt;Node2 -->
<g id="edge1" class="edge">
<title>Node1&#45;&gt;Node2</title>
<path fill="none" stroke="#191970" d="M309.7469,-174.9185C250.3481,-162.7567 174.4401,-147.2147 122.7072,-136.6225"/>
<polygon fill="#191970" stroke="#191970" points="123.1938,-133.1496 112.695,-134.5726 121.7897,-140.0074 123.1938,-133.1496"/>
</g>
<!-- Node5 -->
<g id="node5" class="node">
<title>Node5</title>
<polygon fill="none" stroke="#bfbfbf" points="93,-.5 93,-20.5 138,-20.5 138,-.5 93,-.5"/>
<text text-anchor="middle" x="115.5" y="-7.5" font-family="FreeSans" font-size="10.00" fill="#000000">string</text>
</g>
<!-- Node1&#45;&gt;Node5 -->
<g id="edge15" class="edge">
<title>Node1&#45;&gt;Node5</title>
<path fill="none" stroke="#191970" d="M338.0518,-171.4971C289.2636,-152.1625 221.7085,-120.4769 172.5,-78 155.3851,-63.2264 139.0814,-43.0865 128.3293,-28.6584"/>
<polygon fill="#191970" stroke="#191970" points="131.1116,-26.5335 122.3943,-20.512 125.4539,-30.6554 131.1116,-26.5335"/>
</g>
<!-- Node6 -->
<g id="node6" class="node">
<title>Node6</title>
<g id="a_node6"><a xlink:href="../../da/db7/Jet_8h.html" target="_top" xlink:title="jetbase/Jet.h">
<polygon fill="none" stroke="#000000" points="273.5,-114.5 273.5,-134.5 353.5,-134.5 353.5,-114.5 273.5,-114.5"/>
<text text-anchor="middle" x="313.5" y="-121.5" font-family="FreeSans" font-size="10.00" fill="#000000">jetbase/Jet.h</text>
</a>
</g>
</g>
<!-- Node1&#45;&gt;Node6 -->
<g id="edge6" class="edge">
<title>Node1&#45;&gt;Node6</title>
<path fill="none" stroke="#191970" d="M372.4938,-171.2882C360.1437,-161.4933 345.877,-150.1783 334.4672,-141.1292"/>
<polygon fill="#191970" stroke="#191970" points="336.388,-138.1854 326.3781,-134.7137 332.0382,-143.6699 336.388,-138.1854"/>
</g>
<!-- Node13 -->
<g id="node13" class="node">
<title>Node13</title>
<polygon fill="none" stroke="#bfbfbf" points="371.5,-114.5 371.5,-134.5 429.5,-134.5 429.5,-114.5 371.5,-114.5"/>
<text text-anchor="middle" x="400.5" y="-121.5" font-family="FreeSans" font-size="10.00" fill="#000000">memory</text>
</g>
<!-- Node1&#45;&gt;Node13 -->
<g id="edge14" class="edge">
<title>Node1&#45;&gt;Node13</title>
<path fill="none" stroke="#191970" d="M400.5,-171.2882C400.5,-162.8377 400.5,-153.2557 400.5,-144.9736"/>
<polygon fill="#191970" stroke="#191970" points="404.0001,-144.7136 400.5,-134.7137 397.0001,-144.7137 404.0001,-144.7136"/>
</g>
<!-- Node14 -->
<g id="node14" class="node">
<title>Node14</title>
<polygon fill="none" stroke="#bfbfbf" points="448,-114.5 448,-134.5 493,-134.5 493,-114.5 448,-114.5"/>
<text text-anchor="middle" x="470.5" y="-121.5" font-family="FreeSans" font-size="10.00" fill="#000000">utility</text>
</g>
<!-- Node1&#45;&gt;Node14 -->
<g id="edge16" class="edge">
<title>Node1&#45;&gt;Node14</title>
<path fill="none" stroke="#191970" d="M423.0338,-171.2882C432.6783,-161.7813 443.7757,-150.8426 452.8139,-141.9334"/>
<polygon fill="#191970" stroke="#191970" points="455.4735,-144.2263 460.1383,-134.7137 450.5595,-139.2411 455.4735,-144.2263"/>
</g>
<!-- Node15 -->
<g id="node15" class="node">
<title>Node15</title>
<polygon fill="none" stroke="#bfbfbf" points="511,-114.5 511,-134.5 554,-134.5 554,-114.5 511,-114.5"/>
<text text-anchor="middle" x="532.5" y="-121.5" font-family="FreeSans" font-size="10.00" fill="#000000">array</text>
</g>
<!-- Node1&#45;&gt;Node15 -->
<g id="edge17" class="edge">
<title>Node1&#45;&gt;Node15</title>
<path fill="none" stroke="#191970" d="M442.6285,-171.4783C462.6182,-161.0291 485.9844,-148.815 503.8802,-139.4603"/>
<polygon fill="#191970" stroke="#191970" points="505.9625,-142.3212 513.2034,-134.5869 502.7197,-136.1177 505.9625,-142.3212"/>
</g>
<!-- Node16 -->
<g id="node16" class="node">
<title>Node16</title>
<polygon fill="none" stroke="#bfbfbf" points="572,-114.5 572,-134.5 621,-134.5 621,-114.5 572,-114.5"/>
<text text-anchor="middle" x="596.5" y="-121.5" font-family="FreeSans" font-size="10.00" fill="#000000">vector</text>
</g>
<!-- Node1&#45;&gt;Node16 -->
<g id="edge18" class="edge">
<title>Node1&#45;&gt;Node16</title>
<path fill="none" stroke="#191970" d="M463.0545,-171.4783C495.9816,-159.8866 535.0786,-146.1228 562.412,-136.5004"/>
<polygon fill="#191970" stroke="#191970" points="563.6464,-139.7764 571.9167,-133.1543 561.3219,-133.1736 563.6464,-139.7764"/>
</g>
<!-- Node3 -->
<g id="node3" class="node">
<title>Node3</title>
<g id="a_node3"><a xlink:href="../../d2/de7/Fun4AllBase_8h.html" target="_top" xlink:title="Fun4AllBase.h">
<polygon fill="none" stroke="#000000" points="0,-57.5 0,-77.5 87,-77.5 87,-57.5 0,-57.5"/>
<text text-anchor="middle" x="43.5" y="-64.5" font-family="FreeSans" font-size="10.00" fill="#000000">Fun4AllBase.h</text>
</a>
</g>
</g>
<!-- Node2&#45;&gt;Node3 -->
<g id="edge2" class="edge">
<title>Node2&#45;&gt;Node3</title>
<path fill="none" stroke="#191970" d="M59.9244,-114.3095C57.2794,-106.7714 53.5946,-96.2696 50.3853,-87.123"/>
<polygon fill="#191970" stroke="#191970" points="53.6582,-85.8794 47.0446,-77.6022 47.053,-88.1971 53.6582,-85.8794"/>
</g>
<!-- Node2&#45;&gt;Node5 -->
<g id="edge5" class="edge">
<title>Node2&#45;&gt;Node5</title>
<path fill="none" stroke="#191970" d="M71.8754,-114.368C79.0047,-105.3151 89.0827,-91.4425 95.5,-78 102.7295,-62.8563 107.9571,-44.5409 111.2507,-30.8116"/>
<polygon fill="#191970" stroke="#191970" points="114.6928,-31.4576 113.4787,-20.9326 107.8643,-29.9175 114.6928,-31.4576"/>
</g>
<!-- Node4 -->
<g id="node4" class="node">
<title>Node4</title>
<polygon fill="none" stroke="#bfbfbf" points="21.5,-.5 21.5,-20.5 65.5,-20.5 65.5,-.5 21.5,-.5"/>
<text text-anchor="middle" x="43.5" y="-7.5" font-family="FreeSans" font-size="10.00" fill="#000000">limits</text>
</g>
<!-- Node3&#45;&gt;Node4 -->
<g id="edge3" class="edge">
<title>Node3&#45;&gt;Node4</title>
<path fill="none" stroke="#191970" d="M43.5,-57.3095C43.5,-49.9335 43.5,-39.72 43.5,-30.715"/>
<polygon fill="#191970" stroke="#191970" points="47.0001,-30.6022 43.5,-20.6022 40.0001,-30.6023 47.0001,-30.6022"/>
</g>
<!-- Node3&#45;&gt;Node5 -->
<g id="edge4" class="edge">
<title>Node3&#45;&gt;Node5</title>
<path fill="none" stroke="#191970" d="M56.3722,-57.3095C67.0203,-48.8798 82.3498,-36.7439 94.7318,-26.9415"/>
<polygon fill="#191970" stroke="#191970" points="97.0713,-29.5535 102.7393,-20.6022 92.7263,-24.0651 97.0713,-29.5535"/>
</g>
<!-- Node7 -->
<g id="node7" class="node">
<title>Node7</title>
<g id="a_node7"><a xlink:href="../../df/d32/PHObject_8h.html" target="_top" xlink:title="phool/PHObject.h">
<polygon fill="none" stroke="#000000" points="181.5,-57.5 181.5,-77.5 285.5,-77.5 285.5,-57.5 181.5,-57.5"/>
<text text-anchor="middle" x="233.5" y="-64.5" font-family="FreeSans" font-size="10.00" fill="#000000">phool/PHObject.h</text>
</a>
</g>
</g>
<!-- Node6&#45;&gt;Node7 -->
<g id="edge7" class="edge">
<title>Node6&#45;&gt;Node7</title>
<path fill="none" stroke="#191970" d="M299.1976,-114.3095C287.2526,-105.7987 270.0055,-93.5102 256.1798,-83.6594"/>
<polygon fill="#191970" stroke="#191970" points="257.8538,-80.5545 247.6786,-77.6022 253.7918,-86.2555 257.8538,-80.5545"/>
</g>
<!-- Node9 -->
<g id="node9" class="node">
<title>Node9</title>
<polygon fill="none" stroke="#bfbfbf" points="283.5,-.5 283.5,-20.5 343.5,-20.5 343.5,-.5 283.5,-.5"/>
<text text-anchor="middle" x="313.5" y="-7.5" font-family="FreeSans" font-size="10.00" fill="#000000">iostream</text>
</g>
<!-- Node6&#45;&gt;Node9 -->
<g id="edge12" class="edge">
<title>Node6&#45;&gt;Node9</title>
<path fill="none" stroke="#191970" d="M313.5,-114.3833C313.5,-95.6703 313.5,-55.3266 313.5,-30.7866"/>
<polygon fill="#191970" stroke="#191970" points="317.0001,-30.7579 313.5,-20.7579 310.0001,-30.758 317.0001,-30.7579"/>
</g>
<!-- Node10 -->
<g id="node10" class="node">
<title>Node10</title>
<polygon fill="none" stroke="#bfbfbf" points="341.5,-57.5 341.5,-77.5 389.5,-77.5 389.5,-57.5 341.5,-57.5"/>
<text text-anchor="middle" x="365.5" y="-64.5" font-family="FreeSans" font-size="10.00" fill="#000000">cmath</text>
</g>
<!-- Node6&#45;&gt;Node10 -->
<g id="edge10" class="edge">
<title>Node6&#45;&gt;Node10</title>
<path fill="none" stroke="#191970" d="M322.7966,-114.3095C330.1911,-106.204 340.7116,-94.672 349.4598,-85.0826"/>
<polygon fill="#191970" stroke="#191970" points="352.13,-87.3488 356.2839,-77.6022 346.9586,-82.631 352.13,-87.3488"/>
</g>
<!-- Node11 -->
<g id="node11" class="node">
<title>Node11</title>
<polygon fill="none" stroke="#bfbfbf" points="407.5,-57.5 407.5,-77.5 461.5,-77.5 461.5,-57.5 407.5,-57.5"/>
<text text-anchor="middle" x="434.5" y="-64.5" font-family="FreeSans" font-size="10.00" fill="#000000">cstddef</text>
</g>
<!-- Node6&#45;&gt;Node11 -->
<g id="edge11" class="edge">
<title>Node6&#45;&gt;Node11</title>
<path fill="none" stroke="#191970" d="M334.8538,-114.4408C354.0021,-105.4205 382.3187,-92.0813 403.8773,-81.9255"/>
<polygon fill="#191970" stroke="#191970" points="405.3977,-85.0783 412.9526,-77.6504 402.4146,-78.7458 405.3977,-85.0783"/>
</g>
<!-- Node12 -->
<g id="node12" class="node">
<title>Node12</title>
<polygon fill="none" stroke="#bfbfbf" points="480,-57.5 480,-77.5 519,-77.5 519,-57.5 480,-57.5"/>
<text text-anchor="middle" x="499.5" y="-64.5" font-family="FreeSans" font-size="10.00" fill="#000000">map</text>
</g>
<!-- Node6&#45;&gt;Node12 -->
<g id="edge13" class="edge">
<title>Node6&#45;&gt;Node12</title>
<path fill="none" stroke="#191970" d="M349.5425,-114.4838C379.4277,-106.0324 423.2177,-93.3137 470.1567,-77.981"/>
<polygon fill="#191970" stroke="#191970" points="471.4943,-81.2255 479.8994,-74.7753 469.3064,-74.5762 471.4943,-81.2255"/>
</g>
<!-- Node8 -->
<g id="node8" class="node">
<title>Node8</title>
<polygon fill="none" stroke="#bfbfbf" points="200,-.5 200,-20.5 265,-20.5 265,-.5 200,-.5"/>
<text text-anchor="middle" x="232.5" y="-7.5" font-family="FreeSans" font-size="10.00" fill="#000000">TObject.h</text>
</g>
<!-- Node7&#45;&gt;Node8 -->
<g id="edge8" class="edge">
<title>Node7&#45;&gt;Node8</title>
<path fill="none" stroke="#191970" d="M233.3212,-57.3095C233.1918,-49.9335 233.0126,-39.72 232.8546,-30.715"/>
<polygon fill="#191970" stroke="#191970" points="236.3522,-30.5393 232.6772,-20.6022 229.3533,-30.6621 236.3522,-30.5393"/>
</g>
<!-- Node7&#45;&gt;Node9 -->
<g id="edge9" class="edge">
<title>Node7&#45;&gt;Node9</title>
<path fill="none" stroke="#191970" d="M247.8024,-57.3095C259.7474,-48.7987 276.9945,-36.5102 290.8202,-26.6594"/>
<polygon fill="#191970" stroke="#191970" points="293.2082,-29.2555 299.3214,-20.6022 289.1462,-23.5545 293.2082,-29.2555"/>
</g>
</g>
</svg>
