<?xml version="1.0" encoding="UTF-8" standalone="no"?>
<!DOCTYPE svg PUBLIC "-//W3C//DTD SVG 1.1//EN"
 "http://www.w3.org/Graphics/SVG/1.1/DTD/svg11.dtd">
<!-- Generated by graphviz version 2.40.1 (20161225.0304)
 -->
<!-- Title: analysis/blob/master/EMCTemplateFitting/src/RunInfoUnpackPRDF.cc Pages: 1 -->
<svg width="2105pt" height="395pt"
 viewBox="0.00 0.00 2105.33 395.00" xmlns="http://www.w3.org/2000/svg" xmlns:xlink="http://www.w3.org/1999/xlink">
<g id="graph0" class="graph" transform="scale(1 1) rotate(0) translate(4 391)">
<title>analysis/blob/master/EMCTemplateFitting/src/RunInfoUnpackPRDF.cc</title>
<!-- Node1 -->
<g id="node1" class="node">
<title>Node1</title>
<polygon fill="#bfbfbf" stroke="#000000" points="1013.828,-342.5 1013.828,-386.5 1151.828,-386.5 1151.828,-342.5 1013.828,-342.5"/>
<text text-anchor="start" x="1021.828" y="-373.5" font-family="FreeSans" font-size="10.00" fill="#000000">analysis/blob/master</text>
<text text-anchor="start" x="1021.828" y="-361.5" font-family="FreeSans" font-size="10.00" fill="#000000">/EMCTemplateFitting/src</text>
<text text-anchor="middle" x="1082.828" y="-349.5" font-family="FreeSans" font-size="10.00" fill="#000000">/RunInfoUnpackPRDF.cc</text>
</g>
<!-- Node2 -->
<g id="node2" class="node">
<title>Node2</title>
<g id="a_node2"><a xlink:href="../../d4/ddf/analysis_2blob_2master_2EMCTemplateFitting_2src_2RunInfoUnpackPRDF_8h.html" target="_top" xlink:title="RunInfoUnpackPRDF.h">
<polygon fill="none" stroke="#000000" points="495.328,-228.5 495.328,-248.5 622.328,-248.5 622.328,-228.5 495.328,-228.5"/>
<text text-anchor="middle" x="558.828" y="-235.5" font-family="FreeSans" font-size="10.00" fill="#000000">RunInfoUnpackPRDF.h</text>
</a>
</g>
</g>
<!-- Node1&#45;&gt;Node2 -->
<g id="edge1" class="edge">
<title>Node1&#45;&gt;Node2</title>
<path fill="none" stroke="#191970" d="M1013.7088,-360.2925C905.7491,-352.9112 702.6418,-335.5399 636.828,-306 611.3676,-294.5723 588.0009,-272.0448 573.6135,-256.1659"/>
<polygon fill="#191970" stroke="#191970" points="576.1699,-253.7726 566.9448,-248.5622 570.9072,-258.3882 576.1699,-253.7726"/>
</g>
<!-- Node3 -->
<g id="node3" class="node">
<title>Node3</title>
<g id="a_node3"><a xlink:href="../../d5/dc2/SubsysReco_8h.html" target="_top" xlink:title="fun4all/SubsysReco.h">
<polygon fill="none" stroke="#000000" points="270.828,-171.5 270.828,-191.5 394.828,-191.5 394.828,-171.5 270.828,-171.5"/>
<text text-anchor="middle" x="332.828" y="-178.5" font-family="FreeSans" font-size="10.00" fill="#000000">fun4all/SubsysReco.h</text>
</a>
</g>
</g>
<!-- Node1&#45;&gt;Node3 -->
<g id="edge31" class="edge">
<title>Node1&#45;&gt;Node3</title>
<path fill="none" stroke="#191970" d="M1013.6805,-361.2824C884.894,-354.6276 613.3333,-337.2943 524.828,-306 455.0308,-281.3206 385.1126,-226.6019 352.2328,-198.6532"/>
<polygon fill="#191970" stroke="#191970" points="354.1915,-195.7207 344.332,-191.8424 349.621,-201.0227 354.1915,-195.7207"/>
</g>
<!-- Node4 -->
<g id="node4" class="node">
<title>Node4</title>
<g id="a_node4"><a xlink:href="../../d2/de7/Fun4AllBase_8h.html" target="_top" xlink:title="Fun4AllBase.h">
<polygon fill="none" stroke="#000000" points="279.328,-114.5 279.328,-134.5 366.328,-134.5 366.328,-114.5 279.328,-114.5"/>
<text text-anchor="middle" x="322.828" y="-121.5" font-family="FreeSans" font-size="10.00" fill="#000000">Fun4AllBase.h</text>
</a>
</g>
</g>
<!-- Node1&#45;&gt;Node4 -->
<g id="edge29" class="edge">
<title>Node1&#45;&gt;Node4</title>
<path fill="none" stroke="#191970" d="M1013.7491,-361.2469C876.6601,-354.2341 574.9124,-335.8678 475.828,-306 372.6491,-274.8979 317.2949,-284.394 261.828,-192 249.8062,-171.9745 272.0263,-152.5616 292.9409,-139.7354"/>
<polygon fill="#191970" stroke="#191970" points="294.8155,-142.6945 301.7208,-134.6591 291.3117,-136.6345 294.8155,-142.6945"/>
</g>
<!-- Node6 -->
<g id="node6" class="node">
<title>Node6</title>
<polygon fill="none" stroke="#bfbfbf" points="678.328,-57.5 678.328,-77.5 723.328,-77.5 723.328,-57.5 678.328,-57.5"/>
<text text-anchor="middle" x="700.828" y="-64.5" font-family="FreeSans" font-size="10.00" fill="#000000">string</text>
</g>
<!-- Node1&#45;&gt;Node6 -->
<g id="edge76" class="edge">
<title>Node1&#45;&gt;Node6</title>
<path fill="none" stroke="#191970" d="M1013.5844,-352.0442C967.0931,-342.4425 905.0317,-327.1987 852.828,-306 758.7456,-267.7952 705.6524,-279.909 654.828,-192 634.4006,-156.6674 664.2583,-110.6304 684.5983,-85.6138"/>
<polygon fill="#191970" stroke="#191970" points="687.5117,-87.589 691.2978,-77.6938 682.1673,-83.0682 687.5117,-87.589"/>
</g>
<!-- Node8 -->
<g id="node8" class="node">
<title>Node8</title>
<g id="a_node8"><a xlink:href="../../d2/d83/analysis_2blob_2master_2EMCTemplateFitting_2src_2PROTOTYPE4__FEM_8h.html" target="_top" xlink:title="PROTOTYPE4_FEM.h">
<polygon fill="none" stroke="#000000" points="412.828,-171.5 412.828,-191.5 530.828,-191.5 530.828,-171.5 412.828,-171.5"/>
<text text-anchor="middle" x="471.828" y="-178.5" font-family="FreeSans" font-size="10.00" fill="#000000">PROTOTYPE4_FEM.h</text>
</a>
</g>
</g>
<!-- Node1&#45;&gt;Node8 -->
<g id="edge9" class="edge">
<title>Node1&#45;&gt;Node8</title>
<path fill="none" stroke="#191970" d="M1013.7155,-358.9914C899.6978,-349.4188 677.2854,-328.5664 601.828,-306 547.1748,-289.6553 522.0125,-293.9019 486.828,-249 476.3256,-235.5969 472.8564,-216.3239 471.8509,-201.8005"/>
<polygon fill="#191970" stroke="#191970" points="475.3483,-201.6621 471.4865,-191.7961 468.3529,-201.9169 475.3483,-201.6621"/>
</g>
<!-- Node10 -->
<g id="node10" class="node">
<title>Node10</title>
<g id="a_node10"><a xlink:href="../../d0/db4/EventHeaderv1_8h.html" target="_top" xlink:title="ffaobjects/EventHeaderv1.h">
<polygon fill="none" stroke="#000000" points="57.328,-171.5 57.328,-191.5 214.328,-191.5 214.328,-171.5 57.328,-171.5"/>
<text text-anchor="middle" x="135.828" y="-178.5" font-family="FreeSans" font-size="10.00" fill="#000000">ffaobjects/EventHeaderv1.h</text>
</a>
</g>
</g>
<!-- Node1&#45;&gt;Node10 -->
<g id="edge13" class="edge">
<title>Node1&#45;&gt;Node10</title>
<path fill="none" stroke="#191970" d="M1013.5936,-363.0568C822.4441,-358.6124 296.9753,-343.1238 228.828,-306 185.7829,-282.5508 156.9936,-229.6758 143.9066,-200.9543"/>
<polygon fill="#191970" stroke="#191970" points="147.0134,-199.3231 139.7982,-191.5647 140.6004,-202.1291 147.0134,-199.3231"/>
</g>
<!-- Node12 -->
<g id="node12" class="node">
<title>Node12</title>
<g id="a_node12"><a xlink:href="../../df/d32/PHObject_8h.html" target="_top" xlink:title="phool/PHObject.h">
<polygon fill="none" stroke="#000000" points="1428.828,-57.5 1428.828,-77.5 1532.828,-77.5 1532.828,-57.5 1428.828,-57.5"/>
<text text-anchor="middle" x="1480.828" y="-64.5" font-family="FreeSans" font-size="10.00" fill="#000000">phool/PHObject.h</text>
</a>
</g>
</g>
<!-- Node1&#45;&gt;Node12 -->
<g id="edge63" class="edge">
<title>Node1&#45;&gt;Node12</title>
<path fill="none" stroke="#191970" d="M1152.022,-362.4624C1296.1518,-357.5034 1617.9553,-342.4323 1650.828,-306 1709.1022,-241.4157 1681.5085,-167.3854 1612.828,-114 1592.3427,-98.0767 1565.9793,-87.3467 1542.2063,-80.248"/>
<polygon fill="#191970" stroke="#191970" points="1543.1249,-76.8706 1532.5498,-77.5166 1541.2196,-83.6063 1543.1249,-76.8706"/>
</g>
<!-- Node14 -->
<g id="node14" class="node">
<title>Node14</title>
<polygon fill="none" stroke="#bfbfbf" points="1156.828,-.5 1156.828,-20.5 1216.828,-20.5 1216.828,-.5 1156.828,-.5"/>
<text text-anchor="middle" x="1186.828" y="-7.5" font-family="FreeSans" font-size="10.00" fill="#000000">iostream</text>
</g>
<!-- Node1&#45;&gt;Node14 -->
<g id="edge75" class="edge">
<title>Node1&#45;&gt;Node14</title>
<path fill="none" stroke="#191970" d="M1151.8953,-361.6803C1285.4571,-355.5155 1568.6306,-338.7018 1597.828,-306 1695.0265,-197.1355 1418.07,-77.9706 1370.828,-57 1323.6192,-36.0441 1265.232,-23.3166 1227.0587,-16.5982"/>
<polygon fill="#191970" stroke="#191970" points="1227.2996,-13.0889 1216.8539,-14.8607 1226.1246,-19.9896 1227.2996,-13.0889"/>
</g>
<!-- Node15 -->
<g id="node15" class="node">
<title>Node15</title>
<polygon fill="none" stroke="#bfbfbf" points="19.828,-57.5 19.828,-77.5 67.828,-77.5 67.828,-57.5 19.828,-57.5"/>
<text text-anchor="middle" x="43.828" y="-64.5" font-family="FreeSans" font-size="10.00" fill="#000000">cmath</text>
</g>
<!-- Node1&#45;&gt;Node15 -->
<g id="edge74" class="edge">
<title>Node1&#45;&gt;Node15</title>
<path fill="none" stroke="#191970" d="M1013.6722,-363.5216C779.1855,-359.2999 28.828,-338.0161 28.828,-238.5 28.828,-238.5 28.828,-238.5 28.828,-181.5 28.828,-148.3704 35.1321,-110.2845 39.5666,-87.592"/>
<polygon fill="#191970" stroke="#191970" points="43.0545,-88.0031 41.6147,-77.5066 36.1945,-86.61 43.0545,-88.0031"/>
</g>
<!-- Node18 -->
<g id="node18" class="node">
<title>Node18</title>
<polygon fill="none" stroke="#bfbfbf" points="904.828,-285.5 904.828,-305.5 1070.828,-305.5 1070.828,-285.5 904.828,-285.5"/>
<text text-anchor="middle" x="987.828" y="-292.5" font-family="FreeSans" font-size="10.00" fill="#000000">phparameter/PHParameters.h</text>
</g>
<!-- Node1&#45;&gt;Node18 -->
<g id="edge27" class="edge">
<title>Node1&#45;&gt;Node18</title>
<path fill="none" stroke="#191970" d="M1052.5083,-342.4783C1038.6546,-332.4161 1022.5475,-320.7173 1009.8725,-311.5113"/>
<polygon fill="#191970" stroke="#191970" points="1011.8637,-308.6317 1001.7158,-305.5869 1007.75,-314.2954 1011.8637,-308.6317"/>
</g>
<!-- Node19 -->
<g id="node19" class="node">
<title>Node19</title>
<polygon fill="none" stroke="#bfbfbf" points="1088.828,-285.5 1088.828,-305.5 1268.828,-305.5 1268.828,-285.5 1088.828,-285.5"/>
<text text-anchor="middle" x="1178.828" y="-292.5" font-family="FreeSans" font-size="10.00" fill="#000000">pdbcalbase/PdbParameterMap.h</text>
</g>
<!-- Node1&#45;&gt;Node19 -->
<g id="edge28" class="edge">
<title>Node1&#45;&gt;Node19</title>
<path fill="none" stroke="#191970" d="M1113.467,-342.4783C1127.4665,-332.4161 1143.7431,-320.7173 1156.5515,-311.5113"/>
<polygon fill="#191970" stroke="#191970" points="1158.7167,-314.2653 1164.7941,-305.5869 1154.6312,-308.5812 1158.7167,-314.2653"/>
</g>
<!-- Node20 -->
<g id="node20" class="node">
<title>Node20</title>
<g id="a_node20"><a xlink:href="../../da/dc1/Fun4AllReturnCodes_8h.html" target="_top" xlink:title="fun4all/Fun4AllReturnCodes.h">
<polygon fill="none" stroke="#000000" points="1286.828,-285.5 1286.828,-305.5 1452.828,-305.5 1452.828,-285.5 1286.828,-285.5"/>
<text text-anchor="middle" x="1369.828" y="-292.5" font-family="FreeSans" font-size="10.00" fill="#000000">fun4all/Fun4AllReturnCodes.h</text>
</a>
</g>
</g>
<!-- Node1&#45;&gt;Node20 -->
<g id="edge30" class="edge">
<title>Node1&#45;&gt;Node20</title>
<path fill="none" stroke="#191970" d="M1151.9369,-347.885C1203.0853,-335.588 1271.6622,-319.1008 1318.1193,-307.9317"/>
<polygon fill="#191970" stroke="#191970" points="1319.068,-311.3034 1327.9728,-305.5628 1317.4317,-304.4974 1319.068,-311.3034"/>
</g>
<!-- Node21 -->
<g id="node21" class="node">
<title>Node21</title>
<g id="a_node21"><a xlink:href="../../d8/d30/PHCompositeNode_8h.html" target="_top" xlink:title="phool/PHCompositeNode.h">
<polygon fill="none" stroke="#000000" points="1381.328,-171.5 1381.328,-191.5 1532.328,-191.5 1532.328,-171.5 1381.328,-171.5"/>
<text text-anchor="middle" x="1456.828" y="-178.5" font-family="FreeSans" font-size="10.00" fill="#000000">phool/PHCompositeNode.h</text>
</a>
</g>
</g>
<!-- Node1&#45;&gt;Node21 -->
<g id="edge32" class="edge">
<title>Node1&#45;&gt;Node21</title>
<path fill="none" stroke="#191970" d="M1151.9884,-361.3709C1281.8953,-354.7806 1551.8824,-337.4279 1579.828,-306 1616.8325,-264.3844 1537.8043,-218.5422 1489.9213,-195.8564"/>
<polygon fill="#191970" stroke="#191970" points="1491.3488,-192.6604 1480.8036,-191.6361 1488.4084,-199.0129 1491.3488,-192.6604"/>
</g>
<!-- Node25 -->
<g id="node25" class="node">
<title>Node25</title>
<g id="a_node25"><a xlink:href="../../d3/d79/PHIODataNode_8h.html" target="_top" xlink:title="phool/PHIODataNode.h">
<polygon fill="none" stroke="#000000" points="914.828,-228.5 914.828,-248.5 1046.828,-248.5 1046.828,-228.5 914.828,-228.5"/>
<text text-anchor="middle" x="980.828" y="-235.5" font-family="FreeSans" font-size="10.00" fill="#000000">phool/PHIODataNode.h</text>
</a>
</g>
</g>
<!-- Node1&#45;&gt;Node25 -->
<g id="edge39" class="edge">
<title>Node1&#45;&gt;Node25</title>
<path fill="none" stroke="#191970" d="M1013.5943,-355.3506C956.2394,-346.1832 881.2562,-329.9688 862.828,-306 842.6241,-279.7215 880.1065,-261.9602 918.0596,-251.2802"/>
<polygon fill="#191970" stroke="#191970" points="919.4383,-254.5355 928.2047,-248.5857 917.6413,-247.77 919.4383,-254.5355"/>
</g>
<!-- Node32 -->
<g id="node32" class="node">
<title>Node32</title>
<g id="a_node32"><a xlink:href="../../d8/dfd/PHNodeIterator_8h.html" target="_top" xlink:title="PHNodeIterator.h">
<polygon fill="none" stroke="#000000" points="1128.828,-114.5 1128.828,-134.5 1230.828,-134.5 1230.828,-114.5 1128.828,-114.5"/>
<text text-anchor="middle" x="1179.828" y="-121.5" font-family="FreeSans" font-size="10.00" fill="#000000">PHNodeIterator.h</text>
</a>
</g>
</g>
<!-- Node1&#45;&gt;Node32 -->
<g id="edge62" class="edge">
<title>Node1&#45;&gt;Node32</title>
<path fill="none" stroke="#191970" d="M1013.7302,-358.5813C946.5961,-350.0978 859.6864,-330.1771 895.828,-285 941.3614,-228.0833 988.2258,-276.2529 1055.828,-249 1101.1429,-230.7319 1117.5395,-228.6689 1149.828,-192 1161.8491,-178.3481 1169.759,-159.102 1174.4231,-144.6521"/>
<polygon fill="#191970" stroke="#191970" points="1177.884,-145.2916 1177.3714,-134.7092 1171.1729,-143.3016 1177.884,-145.2916"/>
</g>
<!-- Node34 -->
<g id="node34" class="node">
<title>Node34</title>
<g id="a_node34"><a xlink:href="../../dd/dd4/getClass_8h.html" target="_top" xlink:title="phool/getClass.h">
<polygon fill="none" stroke="#000000" points="1470.828,-285.5 1470.828,-305.5 1570.828,-305.5 1570.828,-285.5 1470.828,-285.5"/>
<text text-anchor="middle" x="1520.828" y="-292.5" font-family="FreeSans" font-size="10.00" fill="#000000">phool/getClass.h</text>
</a>
</g>
</g>
<!-- Node1&#45;&gt;Node34 -->
<g id="edge64" class="edge">
<title>Node1&#45;&gt;Node34</title>
<path fill="none" stroke="#191970" d="M1152.063,-354.3013C1225.9514,-343.3065 1346.7094,-325.0215 1460.6826,-306.1646"/>
<polygon fill="#191970" stroke="#191970" points="1461.3372,-309.604 1470.6295,-304.5145 1460.1915,-302.6983 1461.3372,-309.604"/>
</g>
<!-- Node35 -->
<g id="node35" class="node">
<title>Node35</title>
<polygon fill="none" stroke="#bfbfbf" points="1703.328,-285.5 1703.328,-305.5 1790.328,-305.5 1790.328,-285.5 1703.328,-285.5"/>
<text text-anchor="middle" x="1746.828" y="-292.5" font-family="FreeSans" font-size="10.00" fill="#000000">Event/Event.h</text>
</g>
<!-- Node1&#45;&gt;Node35 -->
<g id="edge71" class="edge">
<title>Node1&#45;&gt;Node35</title>
<path fill="none" stroke="#191970" d="M1152.1163,-359.6888C1264.9179,-351.4352 1495.1378,-332.8342 1688.828,-306 1690.2851,-305.7981 1691.7615,-305.5858 1693.2503,-305.3649"/>
<polygon fill="#191970" stroke="#191970" points="1693.8519,-308.8134 1703.1859,-303.8007 1692.7632,-301.8985 1693.8519,-308.8134"/>
</g>
<!-- Node36 -->
<g id="node36" class="node">
<title>Node36</title>
<polygon fill="none" stroke="#bfbfbf" points="1808.328,-285.5 1808.328,-305.5 1923.328,-305.5 1923.328,-285.5 1808.328,-285.5"/>
<text text-anchor="middle" x="1865.828" y="-292.5" font-family="FreeSans" font-size="10.00" fill="#000000">Event/EventTypes.h</text>
</g>
<!-- Node1&#45;&gt;Node36 -->
<g id="edge72" class="edge">
<title>Node1&#45;&gt;Node36</title>
<path fill="none" stroke="#191970" d="M1151.9686,-360.6201C1278.3135,-353.1444 1555.1286,-334.9836 1798.184,-306.128"/>
<polygon fill="#191970" stroke="#191970" points="1798.7576,-309.5845 1808.2714,-304.9219 1797.9265,-302.634 1798.7576,-309.5845"/>
</g>
<!-- Node37 -->
<g id="node37" class="node">
<title>Node37</title>
<polygon fill="none" stroke="#bfbfbf" points="1941.828,-285.5 1941.828,-305.5 2033.828,-305.5 2033.828,-285.5 1941.828,-285.5"/>
<text text-anchor="middle" x="1987.828" y="-292.5" font-family="FreeSans" font-size="10.00" fill="#000000">Event/packet.h</text>
</g>
<!-- Node1&#45;&gt;Node37 -->
<g id="edge73" class="edge">
<title>Node1&#45;&gt;Node37</title>
<path fill="none" stroke="#191970" d="M1151.9654,-362.551C1295.5215,-357.8944 1636.4348,-343.67 1931.6384,-306.0183"/>
<polygon fill="#191970" stroke="#191970" points="1932.2076,-309.474 1941.6791,-304.7262 1931.3142,-302.5312 1932.2076,-309.474"/>
</g>
<!-- Node38 -->
<g id="node38" class="node">
<title>Node38</title>
<polygon fill="none" stroke="#bfbfbf" points="2052.328,-285.5 2052.328,-305.5 2097.328,-305.5 2097.328,-285.5 2052.328,-285.5"/>
<text text-anchor="middle" x="2074.828" y="-292.5" font-family="FreeSans" font-size="10.00" fill="#000000">utility</text>
</g>
<!-- Node1&#45;&gt;Node38 -->
<g id="edge77" class="edge">
<title>Node1&#45;&gt;Node38</title>
<path fill="none" stroke="#191970" d="M1152.0561,-362.5824C1339.2311,-357.0379 1853.3516,-339.3345 2042.4565,-305.5184"/>
<polygon fill="#191970" stroke="#191970" points="2043.1008,-308.9587 2052.2914,-303.6877 2041.8197,-302.0769 2043.1008,-308.9587"/>
</g>
<!-- Node2&#45;&gt;Node3 -->
<g id="edge2" class="edge">
<title>Node2&#45;&gt;Node3</title>
<path fill="none" stroke="#191970" d="M518.944,-228.4408C480.8974,-218.8449 423.471,-204.3613 382.4776,-194.0222"/>
<polygon fill="#191970" stroke="#191970" points="383.2451,-190.6063 372.6928,-191.5544 381.5332,-197.3937 383.2451,-190.6063"/>
</g>
<!-- Node2&#45;&gt;Node6 -->
<g id="edge8" class="edge">
<title>Node2&#45;&gt;Node6</title>
<path fill="none" stroke="#191970" d="M561.6889,-228.2915C568.5357,-205.4024 587.7983,-149.2312 620.828,-114 634.1125,-99.8302 652.6933,-88.6727 668.6045,-80.8428"/>
<polygon fill="#191970" stroke="#191970" points="670.5221,-83.8098 678.0952,-76.4005 667.5545,-77.4699 670.5221,-83.8098"/>
</g>
<!-- Node7 -->
<g id="node7" class="node">
<title>Node7</title>
<polygon fill="none" stroke="#bfbfbf" points="529.328,-114.5 529.328,-134.5 568.328,-134.5 568.328,-114.5 529.328,-114.5"/>
<text text-anchor="middle" x="548.828" y="-121.5" font-family="FreeSans" font-size="10.00" fill="#000000">map</text>
</g>
<!-- Node2&#45;&gt;Node7 -->
<g id="edge7" class="edge">
<title>Node2&#45;&gt;Node7</title>
<path fill="none" stroke="#191970" d="M557.9406,-228.3833C556.2991,-209.6703 552.7602,-169.3266 550.6076,-144.7866"/>
<polygon fill="#191970" stroke="#191970" points="554.0884,-144.4138 549.7279,-134.7579 547.1152,-145.0256 554.0884,-144.4138"/>
</g>
<!-- Node3&#45;&gt;Node4 -->
<g id="edge3" class="edge">
<title>Node3&#45;&gt;Node4</title>
<path fill="none" stroke="#191970" d="M331.0402,-171.3095C329.7462,-163.9335 327.9544,-153.72 326.3745,-144.715"/>
<polygon fill="#191970" stroke="#191970" points="329.7758,-143.847 324.6004,-134.6022 322.8811,-145.0566 329.7758,-143.847"/>
</g>
<!-- Node3&#45;&gt;Node6 -->
<g id="edge6" class="edge">
<title>Node3&#45;&gt;Node6</title>
<path fill="none" stroke="#191970" d="M341.7579,-171.3085C355.7069,-156.1152 384.2538,-127.8353 414.828,-114 459.6529,-93.7161 602.9582,-77.281 668.0744,-70.6558"/>
<polygon fill="#191970" stroke="#191970" points="668.591,-74.1216 678.192,-69.6415 667.8928,-67.1565 668.591,-74.1216"/>
</g>
<!-- Node5 -->
<g id="node5" class="node">
<title>Node5</title>
<polygon fill="none" stroke="#bfbfbf" points="300.828,-57.5 300.828,-77.5 344.828,-77.5 344.828,-57.5 300.828,-57.5"/>
<text text-anchor="middle" x="322.828" y="-64.5" font-family="FreeSans" font-size="10.00" fill="#000000">limits</text>
</g>
<!-- Node4&#45;&gt;Node5 -->
<g id="edge4" class="edge">
<title>Node4&#45;&gt;Node5</title>
<path fill="none" stroke="#191970" d="M322.828,-114.3095C322.828,-106.9335 322.828,-96.72 322.828,-87.715"/>
<polygon fill="#191970" stroke="#191970" points="326.3281,-87.6022 322.828,-77.6022 319.3281,-87.6023 326.3281,-87.6022"/>
</g>
<!-- Node4&#45;&gt;Node6 -->
<g id="edge5" class="edge">
<title>Node4&#45;&gt;Node6</title>
<path fill="none" stroke="#191970" d="M366.5043,-116.4251C371.3333,-115.5824 376.1822,-114.7578 380.828,-114 485.6701,-96.8979 610.3541,-79.6728 668.2678,-71.8503"/>
<polygon fill="#191970" stroke="#191970" points="668.8413,-75.3047 678.2847,-70.5012 667.907,-68.3673 668.8413,-75.3047"/>
</g>
<!-- Node8&#45;&gt;Node6 -->
<g id="edge11" class="edge">
<title>Node8&#45;&gt;Node6</title>
<path fill="none" stroke="#191970" d="M476.5232,-171.0642C483.8111,-156.0821 499.2834,-128.6714 520.828,-114 544.7116,-97.7359 623.2408,-81.4752 668.2908,-73.1695"/>
<polygon fill="#191970" stroke="#191970" points="668.9529,-76.6066 678.1672,-71.3772 667.703,-69.7191 668.9529,-76.6066"/>
</g>
<!-- Node8&#45;&gt;Node7 -->
<g id="edge10" class="edge">
<title>Node8&#45;&gt;Node7</title>
<path fill="none" stroke="#191970" d="M485.5941,-171.3095C497.0912,-162.7987 513.6915,-150.5102 526.9987,-140.6594"/>
<polygon fill="#191970" stroke="#191970" points="529.2262,-143.3652 535.1812,-134.6022 525.0613,-137.7389 529.2262,-143.3652"/>
</g>
<!-- Node9 -->
<g id="node9" class="node">
<title>Node9</title>
<polygon fill="none" stroke="#bfbfbf" points="423.328,-114.5 423.328,-134.5 472.328,-134.5 472.328,-114.5 423.328,-114.5"/>
<text text-anchor="middle" x="447.828" y="-121.5" font-family="FreeSans" font-size="10.00" fill="#000000">vector</text>
</g>
<!-- Node8&#45;&gt;Node9 -->
<g id="edge12" class="edge">
<title>Node8&#45;&gt;Node9</title>
<path fill="none" stroke="#191970" d="M467.5373,-171.3095C464.3292,-163.6903 459.8463,-153.0435 455.9663,-143.8285"/>
<polygon fill="#191970" stroke="#191970" points="459.188,-142.4604 452.0816,-134.6022 452.7365,-145.1768 459.188,-142.4604"/>
</g>
<!-- Node10&#45;&gt;Node6 -->
<g id="edge26" class="edge">
<title>Node10&#45;&gt;Node6</title>
<path fill="none" stroke="#191970" d="M157.3439,-171.4841C176.9085,-162.2807 206.505,-148.118 231.828,-135 248.9618,-126.1242 251.4291,-119.816 269.828,-114 344.2265,-90.4822 580.8604,-74.5555 668.1102,-69.3516"/>
<polygon fill="#191970" stroke="#191970" points="668.4481,-72.8379 678.2253,-68.7567 668.037,-65.85 668.4481,-72.8379"/>
</g>
<!-- Node10&#45;&gt;Node7 -->
<g id="edge25" class="edge">
<title>Node10&#45;&gt;Node7</title>
<path fill="none" stroke="#191970" d="M214.2237,-171.4608C284.3965,-162.3563 390.0623,-148.3553 481.828,-135 494.049,-133.2214 507.5032,-131.1376 519.1285,-129.2972"/>
<polygon fill="#191970" stroke="#191970" points="519.8784,-132.722 529.2027,-127.6913 518.7764,-125.8092 519.8784,-132.722"/>
</g>
<!-- Node11 -->
<g id="node11" class="node">
<title>Node11</title>
<g id="a_node11"><a xlink:href="../../d5/d61/EventHeader_8h.html" target="_top" xlink:title="EventHeader.h">
<polygon fill="none" stroke="#000000" points="132.828,-114.5 132.828,-134.5 222.828,-134.5 222.828,-114.5 132.828,-114.5"/>
<text text-anchor="middle" x="177.828" y="-121.5" font-family="FreeSans" font-size="10.00" fill="#000000">EventHeader.h</text>
</a>
</g>
</g>
<!-- Node10&#45;&gt;Node11 -->
<g id="edge14" class="edge">
<title>Node10&#45;&gt;Node11</title>
<path fill="none" stroke="#191970" d="M143.3368,-171.3095C149.1899,-163.3661 157.4677,-152.1319 164.4468,-142.6602"/>
<polygon fill="#191970" stroke="#191970" points="167.27,-144.729 170.3843,-134.6022 161.6346,-140.5766 167.27,-144.729"/>
</g>
<!-- Node10&#45;&gt;Node14 -->
<g id="edge24" class="edge">
<title>Node10&#45;&gt;Node14</title>
<path fill="none" stroke="#191970" d="M111.9501,-171.4817C65.087,-150.5223 -30.8808,-100.3906 10.828,-57 30.9436,-36.0734 942.4214,-15.6499 1146.5534,-11.3333"/>
<polygon fill="#191970" stroke="#191970" points="1146.6271,-14.8326 1156.5512,-11.1229 1146.4798,-7.8342 1146.6271,-14.8326"/>
</g>
<!-- Node16 -->
<g id="node16" class="node">
<title>Node16</title>
<polygon fill="none" stroke="#bfbfbf" points="86.328,-57.5 86.328,-77.5 137.328,-77.5 137.328,-57.5 86.328,-57.5"/>
<text text-anchor="middle" x="111.828" y="-64.5" font-family="FreeSans" font-size="10.00" fill="#000000">cstdint</text>
</g>
<!-- Node10&#45;&gt;Node16 -->
<g id="edge23" class="edge">
<title>Node10&#45;&gt;Node16</title>
<path fill="none" stroke="#191970" d="M132.9311,-171.2117C130.3459,-161.8249 126.5579,-147.546 123.828,-135 120.388,-119.19 117.2177,-101.1376 115.0007,-87.6822"/>
<polygon fill="#191970" stroke="#191970" points="118.4242,-86.9267 113.3776,-77.611 111.5133,-88.0405 118.4242,-86.9267"/>
</g>
<!-- Node11&#45;&gt;Node6 -->
<g id="edge22" class="edge">
<title>Node11&#45;&gt;Node6</title>
<path fill="none" stroke="#191970" d="M222.8698,-116.1195C227.5753,-115.3532 232.2938,-114.6297 236.828,-114 397.7142,-91.6553 591.4185,-75.7734 667.6808,-69.9488"/>
<polygon fill="#191970" stroke="#191970" points="668.3553,-73.4079 678.0625,-69.1629 667.8268,-66.4278 668.3553,-73.4079"/>
</g>
<!-- Node11&#45;&gt;Node12 -->
<g id="edge15" class="edge">
<title>Node11&#45;&gt;Node12</title>
<path fill="none" stroke="#191970" d="M223.15,-118.5893C238.0006,-116.8501 254.5968,-115.1163 269.828,-114 758.1131,-78.2121 882.2332,-109.2766 1370.828,-78 1386.2972,-77.0098 1402.9597,-75.5986 1418.5212,-74.1309"/>
<polygon fill="#191970" stroke="#191970" points="1418.9469,-77.6061 1428.5647,-73.1621 1418.2748,-70.6385 1418.9469,-77.6061"/>
</g>
<!-- Node11&#45;&gt;Node14 -->
<g id="edge21" class="edge">
<title>Node11&#45;&gt;Node14</title>
<path fill="none" stroke="#191970" d="M190.194,-114.3884C210.1459,-98.7521 251.3132,-69.2337 291.828,-57 374.2674,-32.1068 983.4733,-15.4925 1146.694,-11.455"/>
<polygon fill="#191970" stroke="#191970" points="1146.8787,-14.9516 1156.7898,-11.2073 1146.7069,-7.9537 1146.8787,-14.9516"/>
</g>
<!-- Node11&#45;&gt;Node15 -->
<g id="edge18" class="edge">
<title>Node11&#45;&gt;Node15</title>
<path fill="none" stroke="#191970" d="M154.18,-114.4408C132.7843,-105.3396 101.0523,-91.8416 77.1002,-81.6531"/>
<polygon fill="#191970" stroke="#191970" points="78.2625,-78.3441 67.6904,-77.6504 75.5225,-84.7855 78.2625,-78.3441"/>
</g>
<!-- Node11&#45;&gt;Node16 -->
<g id="edge19" class="edge">
<title>Node11&#45;&gt;Node16</title>
<path fill="none" stroke="#191970" d="M166.0286,-114.3095C156.3616,-105.9608 142.4856,-93.9769 131.1937,-84.2249"/>
<polygon fill="#191970" stroke="#191970" points="133.3813,-81.4896 123.5254,-77.6022 128.8059,-86.7874 133.3813,-81.4896"/>
</g>
<!-- Node17 -->
<g id="node17" class="node">
<title>Node17</title>
<polygon fill="none" stroke="#bfbfbf" points="155.828,-57.5 155.828,-77.5 199.828,-77.5 199.828,-57.5 155.828,-57.5"/>
<text text-anchor="middle" x="177.828" y="-64.5" font-family="FreeSans" font-size="10.00" fill="#000000">ctime</text>
</g>
<!-- Node11&#45;&gt;Node17 -->
<g id="edge20" class="edge">
<title>Node11&#45;&gt;Node17</title>
<path fill="none" stroke="#191970" d="M177.828,-114.3095C177.828,-106.9335 177.828,-96.72 177.828,-87.715"/>
<polygon fill="#191970" stroke="#191970" points="181.3281,-87.6022 177.828,-77.6022 174.3281,-87.6023 181.3281,-87.6022"/>
</g>
<!-- Node13 -->
<g id="node13" class="node">
<title>Node13</title>
<polygon fill="none" stroke="#bfbfbf" points="1528.328,-.5 1528.328,-20.5 1593.328,-20.5 1593.328,-.5 1528.328,-.5"/>
<text text-anchor="middle" x="1560.828" y="-7.5" font-family="FreeSans" font-size="10.00" fill="#000000">TObject.h</text>
</g>
<!-- Node12&#45;&gt;Node13 -->
<g id="edge16" class="edge">
<title>Node12&#45;&gt;Node13</title>
<path fill="none" stroke="#191970" d="M1495.1304,-57.3095C1507.0755,-48.7987 1524.3225,-36.5102 1538.1482,-26.6594"/>
<polygon fill="#191970" stroke="#191970" points="1540.5362,-29.2555 1546.6495,-20.6022 1536.4743,-23.5545 1540.5362,-29.2555"/>
</g>
<!-- Node12&#45;&gt;Node14 -->
<g id="edge17" class="edge">
<title>Node12&#45;&gt;Node14</title>
<path fill="none" stroke="#191970" d="M1428.9435,-57.4408C1371.2986,-46.2647 1279.456,-28.4585 1227.0181,-18.2919"/>
<polygon fill="#191970" stroke="#191970" points="1227.5611,-14.8321 1217.0777,-16.3647 1226.2287,-21.7042 1227.5611,-14.8321"/>
</g>
<!-- Node21&#45;&gt;Node6 -->
<g id="edge38" class="edge">
<title>Node21&#45;&gt;Node6</title>
<path fill="none" stroke="#191970" d="M1449.1491,-171.4656C1436.5957,-155.935 1410.0313,-126.5589 1379.828,-114 1319.7986,-89.0391 861.1365,-72.6283 733.6254,-68.515"/>
<polygon fill="#191970" stroke="#191970" points="733.4448,-65.0075 723.3382,-68.1868 733.2215,-72.004 733.4448,-65.0075"/>
</g>
<!-- Node22 -->
<g id="node22" class="node">
<title>Node22</title>
<g id="a_node22"><a xlink:href="../../d3/d62/PHNode_8h.html" target="_top" xlink:title="PHNode.h">
<polygon fill="none" stroke="#000000" points="1305.328,-114.5 1305.328,-134.5 1370.328,-134.5 1370.328,-114.5 1305.328,-114.5"/>
<text text-anchor="middle" x="1337.828" y="-121.5" font-family="FreeSans" font-size="10.00" fill="#000000">PHNode.h</text>
</a>
</g>
</g>
<!-- Node21&#45;&gt;Node22 -->
<g id="edge33" class="edge">
<title>Node21&#45;&gt;Node22</title>
<path fill="none" stroke="#191970" d="M1435.8272,-171.4408C1417.0799,-162.461 1389.3964,-149.2008 1368.2302,-139.0624"/>
<polygon fill="#191970" stroke="#191970" points="1369.55,-135.8138 1359.0193,-134.6504 1366.5261,-142.127 1369.55,-135.8138"/>
</g>
<!-- Node24 -->
<g id="node24" class="node">
<title>Node24</title>
<g id="a_node24"><a xlink:href="../../db/dd5/PHPointerList_8h.html" target="_top" xlink:title="PHPointerList.h">
<polygon fill="none" stroke="#000000" points="1140.828,-57.5 1140.828,-77.5 1232.828,-77.5 1232.828,-57.5 1140.828,-57.5"/>
<text text-anchor="middle" x="1186.828" y="-64.5" font-family="FreeSans" font-size="10.00" fill="#000000">PHPointerList.h</text>
</a>
</g>
</g>
<!-- Node21&#45;&gt;Node24 -->
<g id="edge36" class="edge">
<title>Node21&#45;&gt;Node24</title>
<path fill="none" stroke="#191970" d="M1454.2555,-171.448C1449.8645,-156.4369 1439.4354,-128.3917 1419.828,-114 1392.2836,-93.7825 1302.813,-80.2585 1243.1003,-73.2315"/>
<polygon fill="#191970" stroke="#191970" points="1243.3876,-69.7416 1233.0534,-72.0772 1242.5885,-76.6959 1243.3876,-69.7416"/>
</g>
<!-- Node22&#45;&gt;Node6 -->
<g id="edge35" class="edge">
<title>Node22&#45;&gt;Node6</title>
<path fill="none" stroke="#191970" d="M1305.1786,-120.831C1286.1288,-118.7331 1261.6288,-116.1081 1239.828,-114 1048.165,-95.4669 817.8026,-76.7956 733.6448,-70.0933"/>
<polygon fill="#191970" stroke="#191970" points="733.6824,-66.5854 723.4365,-69.282 733.1278,-73.5634 733.6824,-66.5854"/>
</g>
<!-- Node23 -->
<g id="node23" class="node">
<title>Node23</title>
<polygon fill="none" stroke="#bfbfbf" points="1313.828,-57.5 1313.828,-77.5 1361.828,-77.5 1361.828,-57.5 1313.828,-57.5"/>
<text text-anchor="middle" x="1337.828" y="-64.5" font-family="FreeSans" font-size="10.00" fill="#000000">iosfwd</text>
</g>
<!-- Node22&#45;&gt;Node23 -->
<g id="edge34" class="edge">
<title>Node22&#45;&gt;Node23</title>
<path fill="none" stroke="#191970" d="M1337.828,-114.3095C1337.828,-106.9335 1337.828,-96.72 1337.828,-87.715"/>
<polygon fill="#191970" stroke="#191970" points="1341.3281,-87.6022 1337.828,-77.6022 1334.3281,-87.6023 1341.3281,-87.6022"/>
</g>
<!-- Node24&#45;&gt;Node14 -->
<g id="edge37" class="edge">
<title>Node24&#45;&gt;Node14</title>
<path fill="none" stroke="#191970" d="M1186.828,-57.3095C1186.828,-49.9335 1186.828,-39.72 1186.828,-30.715"/>
<polygon fill="#191970" stroke="#191970" points="1190.3281,-30.6022 1186.828,-20.6022 1183.3281,-30.6023 1190.3281,-30.6022"/>
</g>
<!-- Node25&#45;&gt;Node6 -->
<g id="edge61" class="edge">
<title>Node25&#45;&gt;Node6</title>
<path fill="none" stroke="#191970" d="M914.5533,-230.3101C884.3846,-223.8805 849.7215,-212.4188 823.828,-192 792.4015,-167.218 806.9248,-142.5017 778.828,-114 765.6297,-100.6114 747.8023,-89.6062 732.5225,-81.6691"/>
<polygon fill="#191970" stroke="#191970" points="733.9139,-78.4522 723.4019,-77.1297 730.7949,-84.7189 733.9139,-78.4522"/>
</g>
<!-- Node25&#45;&gt;Node13 -->
<g id="edge60" class="edge">
<title>Node25&#45;&gt;Node13</title>
<path fill="none" stroke="#191970" d="M1046.9762,-237.6639C1187.7636,-235.2302 1507.1005,-225.9852 1541.828,-192 1585.5197,-149.2422 1574.1424,-67.8296 1565.8885,-30.3229"/>
<polygon fill="#191970" stroke="#191970" points="1569.2926,-29.5088 1563.5915,-20.5786 1562.4793,-31.1149 1569.2926,-29.5088"/>
</g>
<!-- Node26 -->
<g id="node26" class="node">
<title>Node26</title>
<g id="a_node26"><a xlink:href="../../dd/d9b/PHDataNode_8h.html" target="_top" xlink:title="PHDataNode.h">
<polygon fill="none" stroke="#000000" points="1235.328,-171.5 1235.328,-191.5 1324.328,-191.5 1324.328,-171.5 1235.328,-171.5"/>
<text text-anchor="middle" x="1279.828" y="-178.5" font-family="FreeSans" font-size="10.00" fill="#000000">PHDataNode.h</text>
</a>
</g>
</g>
<!-- Node25&#45;&gt;Node26 -->
<g id="edge40" class="edge">
<title>Node25&#45;&gt;Node26</title>
<path fill="none" stroke="#191970" d="M1033.595,-228.4408C1087.414,-218.1809 1170.5436,-202.3335 1225.0715,-191.9385"/>
<polygon fill="#191970" stroke="#191970" points="1225.7391,-195.3744 1234.9068,-190.0636 1224.4282,-188.4982 1225.7391,-195.3744"/>
</g>
<!-- Node27 -->
<g id="node27" class="node">
<title>Node27</title>
<g id="a_node27"><a xlink:href="../../d9/d53/PHIOManager_8h.html" target="_top" xlink:title="PHIOManager.h">
<polygon fill="none" stroke="#000000" points="941.328,-114.5 941.328,-134.5 1034.328,-134.5 1034.328,-114.5 941.328,-114.5"/>
<text text-anchor="middle" x="987.828" y="-121.5" font-family="FreeSans" font-size="10.00" fill="#000000">PHIOManager.h</text>
</a>
</g>
</g>
<!-- Node25&#45;&gt;Node27 -->
<g id="edge43" class="edge">
<title>Node25&#45;&gt;Node27</title>
<path fill="none" stroke="#191970" d="M981.4492,-228.3833C982.5983,-209.6703 985.0755,-169.3266 986.5824,-144.7866"/>
<polygon fill="#191970" stroke="#191970" points="990.0786,-144.9537 987.1982,-134.7579 983.0918,-144.5246 990.0786,-144.9537"/>
</g>
<!-- Node29 -->
<g id="node29" class="node">
<title>Node29</title>
<g id="a_node29"><a xlink:href="../../dd/de7/PHNodeIOManager_8h.html" target="_top" xlink:title="PHNodeIOManager.h">
<polygon fill="none" stroke="#000000" points="832.828,-171.5 832.828,-191.5 952.828,-191.5 952.828,-171.5 832.828,-171.5"/>
<text text-anchor="middle" x="892.828" y="-178.5" font-family="FreeSans" font-size="10.00" fill="#000000">PHNodeIOManager.h</text>
</a>
</g>
</g>
<!-- Node25&#45;&gt;Node29 -->
<g id="edge46" class="edge">
<title>Node25&#45;&gt;Node29</title>
<path fill="none" stroke="#191970" d="M965.0954,-228.3095C951.7056,-219.6366 932.2593,-207.0407 916.911,-197.0992"/>
<polygon fill="#191970" stroke="#191970" points="918.7204,-194.1011 908.4245,-191.6022 914.9149,-199.9764 918.7204,-194.1011"/>
</g>
<!-- Node31 -->
<g id="node31" class="node">
<title>Node31</title>
<g id="a_node31"><a xlink:href="../../db/d17/PHTypedNodeIterator_8h.html" target="_top" xlink:title="PHTypedNodeIterator.h">
<polygon fill="none" stroke="#000000" points="1008.828,-171.5 1008.828,-191.5 1140.828,-191.5 1140.828,-171.5 1008.828,-171.5"/>
<text text-anchor="middle" x="1074.828" y="-178.5" font-family="FreeSans" font-size="10.00" fill="#000000">PHTypedNodeIterator.h</text>
</a>
</g>
</g>
<!-- Node25&#45;&gt;Node31 -->
<g id="edge53" class="edge">
<title>Node25&#45;&gt;Node31</title>
<path fill="none" stroke="#191970" d="M997.6334,-228.3095C1012.0698,-219.5556 1033.0972,-206.8049 1049.5616,-196.8211"/>
<polygon fill="#191970" stroke="#191970" points="1051.4322,-199.7801 1058.1682,-191.6022 1047.8027,-193.7945 1051.4322,-199.7801"/>
</g>
<!-- Node33 -->
<g id="node33" class="node">
<title>Node33</title>
<g id="a_node33"><a xlink:href="../../de/da7/phooldefs_8h.html" target="_top" xlink:title="phooldefs.h">
<polygon fill="none" stroke="#000000" points="663.328,-171.5 663.328,-191.5 738.328,-191.5 738.328,-171.5 663.328,-171.5"/>
<text text-anchor="middle" x="700.828" y="-178.5" font-family="FreeSans" font-size="10.00" fill="#000000">phooldefs.h</text>
</a>
</g>
</g>
<!-- Node25&#45;&gt;Node33 -->
<g id="edge58" class="edge">
<title>Node25&#45;&gt;Node33</title>
<path fill="none" stroke="#191970" d="M931.4142,-228.4408C879.86,-217.9458 799.5853,-201.6041 748.637,-191.2325"/>
<polygon fill="#191970" stroke="#191970" points="749.0407,-187.743 738.5435,-189.1778 747.6443,-194.6023 749.0407,-187.743"/>
</g>
<!-- Node26&#45;&gt;Node14 -->
<g id="edge42" class="edge">
<title>Node26&#45;&gt;Node14</title>
<path fill="none" stroke="#191970" d="M1278.6953,-171.3172C1275.8085,-148.9537 1266.5712,-94.5533 1241.828,-57 1233.9569,-45.0537 1222.1354,-34.4976 1211.4668,-26.4751"/>
<polygon fill="#191970" stroke="#191970" points="1213.4264,-23.5736 1203.2555,-20.6064 1209.3561,-29.2686 1213.4264,-23.5736"/>
</g>
<!-- Node26&#45;&gt;Node22 -->
<g id="edge41" class="edge">
<title>Node26&#45;&gt;Node22</title>
<path fill="none" stroke="#191970" d="M1290.1973,-171.3095C1298.5275,-163.1229 1310.4144,-151.441 1320.2292,-141.7955"/>
<polygon fill="#191970" stroke="#191970" points="1322.8695,-144.1079 1327.5486,-134.6022 1317.963,-139.1153 1322.8695,-144.1079"/>
</g>
<!-- Node27&#45;&gt;Node6 -->
<g id="edge45" class="edge">
<title>Node27&#45;&gt;Node6</title>
<path fill="none" stroke="#191970" d="M941.0778,-115.2151C882.7999,-103.6408 784.6725,-84.152 733.7355,-74.0356"/>
<polygon fill="#191970" stroke="#191970" points="734.104,-70.5405 723.6137,-72.0254 732.7403,-77.4064 734.104,-70.5405"/>
</g>
<!-- Node28 -->
<g id="node28" class="node">
<title>Node28</title>
<polygon fill="none" stroke="#bfbfbf" points="1035.828,-57.5 1035.828,-77.5 1089.828,-77.5 1089.828,-57.5 1035.828,-57.5"/>
<text text-anchor="middle" x="1062.828" y="-64.5" font-family="FreeSans" font-size="10.00" fill="#000000">cstddef</text>
</g>
<!-- Node27&#45;&gt;Node28 -->
<g id="edge44" class="edge">
<title>Node27&#45;&gt;Node28</title>
<path fill="none" stroke="#191970" d="M1001.2365,-114.3095C1012.435,-105.7987 1028.6041,-93.5102 1041.5657,-83.6594"/>
<polygon fill="#191970" stroke="#191970" points="1043.6918,-86.4397 1049.5356,-77.6022 1039.4562,-80.8665 1043.6918,-86.4397"/>
</g>
<!-- Node29&#45;&gt;Node6 -->
<g id="edge52" class="edge">
<title>Node29&#45;&gt;Node6</title>
<path fill="none" stroke="#191970" d="M883.4022,-171.1201C869.8521,-156.6996 843.5459,-130.5187 816.828,-114 790.5074,-97.7269 757.5092,-85.153 733.4437,-77.2074"/>
<polygon fill="#191970" stroke="#191970" points="734.3135,-73.8108 723.7223,-74.0883 732.1749,-80.4761 734.3135,-73.8108"/>
</g>
<!-- Node29&#45;&gt;Node7 -->
<g id="edge51" class="edge">
<title>Node29&#45;&gt;Node7</title>
<path fill="none" stroke="#191970" d="M832.5142,-171.5061C758.1133,-159.1781 634.5922,-138.7109 578.3499,-129.3917"/>
<polygon fill="#191970" stroke="#191970" points="578.7828,-125.9158 568.3451,-127.7339 577.6384,-132.8216 578.7828,-125.9158"/>
</g>
<!-- Node29&#45;&gt;Node27 -->
<g id="edge47" class="edge">
<title>Node29&#45;&gt;Node27</title>
<path fill="none" stroke="#191970" d="M909.8121,-171.3095C924.4021,-162.5556 945.6532,-149.8049 962.2928,-139.8211"/>
<polygon fill="#191970" stroke="#191970" points="964.2168,-142.7485 970.991,-134.6022 960.6153,-136.746 964.2168,-142.7485"/>
</g>
<!-- Node29&#45;&gt;Node28 -->
<g id="edge50" class="edge">
<title>Node29&#45;&gt;Node28</title>
<path fill="none" stroke="#191970" d="M942.8203,-171.4984C981.071,-162.8882 1029.6029,-149.5758 1043.828,-135 1056.0245,-122.5029 1060.5184,-102.8192 1062.1123,-87.9256"/>
<polygon fill="#191970" stroke="#191970" points="1065.6235,-87.8926 1062.8454,-77.6685 1058.6413,-87.3934 1065.6235,-87.8926"/>
</g>
<!-- Node30 -->
<g id="node30" class="node">
<title>Node30</title>
<g id="a_node30"><a xlink:href="../../d5/d6f/phool_8h.html" target="_top" xlink:title="phool.h">
<polygon fill="none" stroke="#000000" points="868.828,-114.5 868.828,-134.5 922.828,-134.5 922.828,-114.5 868.828,-114.5"/>
<text text-anchor="middle" x="895.828" y="-121.5" font-family="FreeSans" font-size="10.00" fill="#000000">phool.h</text>
</a>
</g>
</g>
<!-- Node29&#45;&gt;Node30 -->
<g id="edge48" class="edge">
<title>Node29&#45;&gt;Node30</title>
<path fill="none" stroke="#191970" d="M893.3644,-171.3095C893.7526,-163.9335 894.2901,-153.72 894.7641,-144.715"/>
<polygon fill="#191970" stroke="#191970" points="898.2658,-144.7724 895.2963,-134.6022 891.2755,-144.4044 898.2658,-144.7724"/>
</g>
<!-- Node30&#45;&gt;Node14 -->
<g id="edge49" class="edge">
<title>Node30&#45;&gt;Node14</title>
<path fill="none" stroke="#191970" d="M912.707,-114.4559C937.19,-100.2022 984.2867,-73.9575 1026.828,-57 1066.5929,-41.1492 1113.8497,-28.0856 1146.6492,-19.8835"/>
<polygon fill="#191970" stroke="#191970" points="1147.889,-23.1829 1156.7625,-17.394 1146.2157,-16.3858 1147.889,-23.1829"/>
</g>
<!-- Node31&#45;&gt;Node28 -->
<g id="edge57" class="edge">
<title>Node31&#45;&gt;Node28</title>
<path fill="none" stroke="#191970" d="M1076.227,-171.3721C1077.8082,-158.1123 1079.8003,-134.1819 1076.828,-114 1075.5127,-105.0687 1072.8484,-95.4736 1070.1937,-87.3325"/>
<polygon fill="#191970" stroke="#191970" points="1073.4153,-85.9406 1066.8236,-77.6459 1066.8039,-88.2407 1073.4153,-85.9406"/>
</g>
<!-- Node31&#45;&gt;Node32 -->
<g id="edge54" class="edge">
<title>Node31&#45;&gt;Node32</title>
<path fill="none" stroke="#191970" d="M1093.5999,-171.3095C1109.9497,-162.434 1133.8676,-149.4499 1152.3682,-139.4068"/>
<polygon fill="#191970" stroke="#191970" points="1154.1,-142.4492 1161.2187,-134.6022 1150.7603,-136.2972 1154.1,-142.4492"/>
</g>
<!-- Node32&#45;&gt;Node6 -->
<g id="edge56" class="edge">
<title>Node32&#45;&gt;Node6</title>
<path fill="none" stroke="#191970" d="M1128.5667,-118.4C1029.724,-106.6379 815.326,-81.125 733.4812,-71.3857"/>
<polygon fill="#191970" stroke="#191970" points="733.8472,-67.9046 723.5037,-70.1984 733.02,-74.8556 733.8472,-67.9046"/>
</g>
<!-- Node32&#45;&gt;Node24 -->
<g id="edge55" class="edge">
<title>Node32&#45;&gt;Node24</title>
<path fill="none" stroke="#191970" d="M1181.0795,-114.3095C1181.9853,-106.9335 1183.2396,-96.72 1184.3455,-87.715"/>
<polygon fill="#191970" stroke="#191970" points="1187.8423,-87.9543 1185.5874,-77.6022 1180.8945,-87.101 1187.8423,-87.9543"/>
</g>
<!-- Node33&#45;&gt;Node6 -->
<g id="edge59" class="edge">
<title>Node33&#45;&gt;Node6</title>
<path fill="none" stroke="#191970" d="M700.828,-171.3833C700.828,-152.6703 700.828,-112.3266 700.828,-87.7866"/>
<polygon fill="#191970" stroke="#191970" points="704.3281,-87.7579 700.828,-77.7579 697.3281,-87.758 704.3281,-87.7579"/>
</g>
<!-- Node34&#45;&gt;Node6 -->
<g id="edge70" class="edge">
<title>Node34&#45;&gt;Node6</title>
<path fill="none" stroke="#191970" d="M1470.6731,-286.1819C1467.6853,-285.7488 1464.7201,-285.3499 1461.828,-285 1215.9919,-255.2599 1143.6056,-318.15 905.828,-249 855.2156,-234.281 842.3015,-225.7665 801.828,-192 763.7599,-160.2402 729.7694,-112.4021 712.6124,-86.2365"/>
<polygon fill="#191970" stroke="#191970" points="715.4359,-84.1565 707.0766,-77.647 709.5519,-87.9486 715.4359,-84.1565"/>
</g>
<!-- Node34&#45;&gt;Node13 -->
<g id="edge69" class="edge">
<title>Node34&#45;&gt;Node13</title>
<path fill="none" stroke="#191970" d="M1526.4202,-285.3956C1539.7499,-260.6693 1573.1511,-194.7663 1584.828,-135 1591.4759,-100.9738 1594.2928,-90.6203 1585.828,-57 1583.3832,-47.2895 1578.472,-37.3984 1573.6448,-29.2493"/>
<polygon fill="#191970" stroke="#191970" points="1576.4749,-27.1764 1568.1694,-20.5984 1570.5601,-30.92 1576.4749,-27.1764"/>
</g>
<!-- Node34&#45;&gt;Node22 -->
<g id="edge67" class="edge">
<title>Node34&#45;&gt;Node22</title>
<path fill="none" stroke="#191970" d="M1500.5584,-285.4477C1469.6954,-269.3147 1410.5347,-235.0405 1372.828,-192 1360.3687,-177.7782 1350.8948,-158.3399 1344.966,-143.9747"/>
<polygon fill="#191970" stroke="#191970" points="1348.1853,-142.5966 1341.2835,-134.5582 1341.6661,-145.1462 1348.1853,-142.5966"/>
</g>
<!-- Node34&#45;&gt;Node25 -->
<g id="edge66" class="edge">
<title>Node34&#45;&gt;Node25</title>
<path fill="none" stroke="#191970" d="M1470.659,-286.2909C1467.6748,-285.8304 1464.7142,-285.3957 1461.828,-285 1319.4791,-265.4843 1152.3221,-251.2694 1057.2561,-243.997"/>
<polygon fill="#191970" stroke="#191970" points="1057.3925,-240.4974 1047.1561,-243.2298 1056.8623,-247.4773 1057.3925,-240.4974"/>
</g>
<!-- Node34&#45;&gt;Node26 -->
<g id="edge65" class="edge">
<title>Node34&#45;&gt;Node26</title>
<path fill="none" stroke="#191970" d="M1470.4463,-286.12C1424.5525,-276.953 1360.705,-262.4525 1338.828,-249 1319.0649,-236.8473 1302.3133,-215.9615 1291.7668,-200.6331"/>
<polygon fill="#191970" stroke="#191970" points="1294.4577,-198.3561 1286.0304,-191.9349 1288.6141,-202.2099 1294.4577,-198.3561"/>
</g>
<!-- Node34&#45;&gt;Node32 -->
<g id="edge68" class="edge">
<title>Node34&#45;&gt;Node32</title>
<path fill="none" stroke="#191970" d="M1470.5959,-285.4823C1412.9605,-273.8228 1324.4746,-255.3544 1309.828,-249 1268.7751,-231.1891 1258.5732,-223.5407 1226.828,-192 1212.3424,-177.6076 1199.3746,-158.2324 1190.7489,-143.9319"/>
<polygon fill="#191970" stroke="#191970" points="1193.5752,-141.8314 1185.5057,-134.966 1187.5326,-145.3651 1193.5752,-141.8314"/>
</g>
</g>
</svg>
