<?xml version="1.0" encoding="UTF-8" standalone="no"?>
<!DOCTYPE svg PUBLIC "-//W3C//DTD SVG 1.1//EN"
 "http://www.w3.org/Graphics/SVG/1.1/DTD/svg11.dtd">
<!-- Generated by graphviz version 2.40.1 (20161225.0304)
 -->
<!-- Title: Acts::BinnedArray::arrayObjects Pages: 1 -->
<svg width="705pt" height="296pt"
 viewBox="0.00 0.00 705.00 296.00" xmlns="http://www.w3.org/2000/svg" xmlns:xlink="http://www.w3.org/1999/xlink">
<g id="graph0" class="graph" transform="scale(1 1) rotate(0) translate(4 292)">
<title>Acts::BinnedArray::arrayObjects</title>
<!-- Node1 -->
<g id="node1" class="node">
<title>Node1</title>
<polygon fill="#bfbfbf" stroke="#000000" points="0,-127.5 0,-159.5 113,-159.5 113,-127.5 0,-127.5"/>
<text text-anchor="start" x="8" y="-146.5" font-family="FreeSans" font-size="10.00" fill="#000000">Acts::BinnedArray::</text>
<text text-anchor="middle" x="56.5" y="-134.5" font-family="FreeSans" font-size="10.00" fill="#000000">arrayObjects</text>
</g>
<!-- Node2 -->
<g id="node2" class="node">
<title>Node2</title>
<g id="a_node2"><a xlink:href="../../dd/d7e/namespaceActs_1_1Test.html#a6be9707dc235928a7c331961ece6fd24" target="_top" xlink:title="Acts::Test::BOOST_AUTO\l_TEST_CASE">
<polygon fill="none" stroke="#000000" points="162,-255.5 162,-287.5 303,-287.5 303,-255.5 162,-255.5"/>
<text text-anchor="start" x="170" y="-274.5" font-family="FreeSans" font-size="10.00" fill="#000000">Acts::Test::BOOST_AUTO</text>
<text text-anchor="middle" x="232.5" y="-262.5" font-family="FreeSans" font-size="10.00" fill="#000000">_TEST_CASE</text>
</a>
</g>
</g>
<!-- Node1&#45;&gt;Node2 -->
<g id="edge1" class="edge">
<title>Node1&#45;&gt;Node2</title>
<path fill="none" stroke="#191970" d="M72.4614,-167.967C88.9554,-191.3833 116.7801,-226.0755 149,-246.5 154.3679,-249.9028 160.222,-252.8619 166.2583,-255.4314"/>
<polygon fill="#191970" stroke="#191970" points="75.2579,-165.8566 66.7092,-159.5979 69.4891,-169.8216 75.2579,-165.8566"/>
</g>
<!-- Node3 -->
<g id="node3" class="node">
<title>Node3</title>
<g id="a_node3"><a xlink:href="../../da/d29/classActsExamples_1_1RootMaterialWriter.html#a1c6c0ee93bbae25071a09b16eb96b7f6" target="_top" xlink:title="ActsExamples::RootMaterial\lWriter::collectMaterial">
<polygon fill="none" stroke="#000000" points="153.5,-204.5 153.5,-236.5 311.5,-236.5 311.5,-204.5 153.5,-204.5"/>
<text text-anchor="start" x="161.5" y="-223.5" font-family="FreeSans" font-size="10.00" fill="#000000">ActsExamples::RootMaterial</text>
<text text-anchor="middle" x="232.5" y="-211.5" font-family="FreeSans" font-size="10.00" fill="#000000">Writer::collectMaterial</text>
</a>
</g>
</g>
<!-- Node1&#45;&gt;Node3 -->
<g id="edge2" class="edge">
<title>Node1&#45;&gt;Node3</title>
<path fill="none" stroke="#191970" d="M90.6609,-165.102C107.7291,-175.2675 128.969,-186.9951 149,-195.5 156.6609,-198.7527 164.8841,-201.7617 173.0745,-204.4816"/>
<polygon fill="#191970" stroke="#191970" points="92.0096,-161.8273 81.6418,-159.6456 88.3862,-167.8166 92.0096,-161.8273"/>
</g>
<!-- Node4 -->
<g id="node4" class="node">
<title>Node4</title>
<g id="a_node4"><a xlink:href="../../d8/d7e/classActs_1_1VolumeMaterialMapper.html#af897e539f0a3887f1eb8047b58c1c8e8" target="_top" xlink:title="check and insert">
<polygon fill="none" stroke="#000000" points="151,-153.5 151,-185.5 314,-185.5 314,-153.5 151,-153.5"/>
<text text-anchor="start" x="159" y="-172.5" font-family="FreeSans" font-size="10.00" fill="#000000">Acts::VolumeMaterialMapper</text>
<text text-anchor="middle" x="232.5" y="-160.5" font-family="FreeSans" font-size="10.00" fill="#000000">::collectMaterialSurfaces</text>
</a>
</g>
</g>
<!-- Node1&#45;&gt;Node4 -->
<g id="edge3" class="edge">
<title>Node1&#45;&gt;Node4</title>
<path fill="none" stroke="#191970" d="M123.2286,-153.3576C132.2899,-154.6962 141.6713,-156.0821 150.9563,-157.4538"/>
<polygon fill="#191970" stroke="#191970" points="123.5605,-149.8688 113.1563,-151.8697 122.5374,-156.7936 123.5605,-149.8688"/>
</g>
<!-- Node5 -->
<g id="node5" class="node">
<title>Node5</title>
<g id="a_node5"><a xlink:href="../../d8/d74/classActs_1_1JsonGeometryConverter.html#ad215289e3308e79e92b999b6e64f0814" target="_top" xlink:title="Acts::JsonGeometryConverter\l::convertToRep">
<polygon fill="none" stroke="#000000" points="149,-102.5 149,-134.5 316,-134.5 316,-102.5 149,-102.5"/>
<text text-anchor="start" x="157" y="-121.5" font-family="FreeSans" font-size="10.00" fill="#000000">Acts::JsonGeometryConverter</text>
<text text-anchor="middle" x="232.5" y="-109.5" font-family="FreeSans" font-size="10.00" fill="#000000">::convertToRep</text>
</a>
</g>
</g>
<!-- Node1&#45;&gt;Node5 -->
<g id="edge4" class="edge">
<title>Node1&#45;&gt;Node5</title>
<path fill="none" stroke="#191970" d="M123.1823,-134.0281C131.5305,-132.8423 140.1511,-131.6177 148.7182,-130.4008"/>
<polygon fill="#191970" stroke="#191970" points="122.5647,-130.5806 113.1563,-135.4522 123.5492,-137.511 122.5647,-130.5806"/>
</g>
<!-- Node6 -->
<g id="node6" class="node">
<title>Node6</title>
<g id="a_node6"><a xlink:href="../../d2/d3f/structActs_1_1GeometryView3D.html#aa0023d78c730a074db60e3ef2788b5ed" target="_top" xlink:title="Acts::GeometryView3D\l::drawTrackingVolume">
<polygon fill="none" stroke="#000000" points="165.5,-51.5 165.5,-83.5 299.5,-83.5 299.5,-51.5 165.5,-51.5"/>
<text text-anchor="start" x="173.5" y="-70.5" font-family="FreeSans" font-size="10.00" fill="#000000">Acts::GeometryView3D</text>
<text text-anchor="middle" x="232.5" y="-58.5" font-family="FreeSans" font-size="10.00" fill="#000000">::drawTrackingVolume</text>
</a>
</g>
</g>
<!-- Node1&#45;&gt;Node6 -->
<g id="edge5" class="edge">
<title>Node1&#45;&gt;Node6</title>
<path fill="none" stroke="#191970" d="M91.9039,-122.2696C108.8092,-112.6806 129.5535,-101.6922 149,-93.5 157.5352,-89.9044 166.7438,-86.5461 175.8203,-83.5161"/>
<polygon fill="#191970" stroke="#191970" points="89.8626,-119.4061 82.9397,-127.4263 93.3531,-125.4738 89.8626,-119.4061"/>
</g>
<!-- Node10 -->
<g id="node10" class="node">
<title>Node10</title>
<g id="a_node10"><a xlink:href="../../d6/d42/classActs_1_1SurfaceMaterialMapper.html#aaebe46b04791dcf333fbda5b70584196" target="_top" xlink:title="finds all surfaces with ProtoSurfaceMaterial of a volume">
<polygon fill="none" stroke="#000000" points="150.5,-.5 150.5,-32.5 314.5,-32.5 314.5,-.5 150.5,-.5"/>
<text text-anchor="start" x="158.5" y="-19.5" font-family="FreeSans" font-size="10.00" fill="#000000">Acts::SurfaceMaterialMapper</text>
<text text-anchor="middle" x="232.5" y="-7.5" font-family="FreeSans" font-size="10.00" fill="#000000">::resolveMaterialSurfaces</text>
</a>
</g>
</g>
<!-- Node1&#45;&gt;Node10 -->
<g id="edge9" class="edge">
<title>Node1&#45;&gt;Node10</title>
<path fill="none" stroke="#191970" d="M72.8955,-119.2086C89.5386,-96.3172 117.315,-62.612 149,-42.5 155.0248,-38.6758 161.6519,-35.3794 168.457,-32.5459"/>
<polygon fill="#191970" stroke="#191970" points="70.0136,-117.2219 67.077,-127.4017 75.7208,-121.275 70.0136,-117.2219"/>
</g>
<!-- Node7 -->
<g id="node7" class="node">
<title>Node7</title>
<g id="a_node7"><a xlink:href="../../d1/d02/classActsExamples_1_1ObjTrackingGeometryWriter.html#a2350265977e0c6ca3298e1f604022316" target="_top" xlink:title="ActsExamples::ObjTracking\lGeometryWriter::write">
<polygon fill="none" stroke="#000000" points="359,-76.5 359,-108.5 513,-108.5 513,-76.5 359,-76.5"/>
<text text-anchor="start" x="367" y="-95.5" font-family="FreeSans" font-size="10.00" fill="#000000">ActsExamples::ObjTracking</text>
<text text-anchor="middle" x="436" y="-83.5" font-family="FreeSans" font-size="10.00" fill="#000000">GeometryWriter::write</text>
</a>
</g>
</g>
<!-- Node6&#45;&gt;Node7 -->
<g id="edge6" class="edge">
<title>Node6&#45;&gt;Node7</title>
<path fill="none" stroke="#191970" d="M310.0266,-77.0241C325.9559,-78.9811 342.7262,-81.0413 358.6493,-82.9975"/>
<polygon fill="#191970" stroke="#191970" points="310.0497,-73.5008 299.6975,-75.7552 309.1961,-80.4485 310.0497,-73.5008"/>
</g>
<!-- Node8 -->
<g id="node8" class="node">
<title>Node8</title>
<g id="a_node8"><a xlink:href="../../da/d27/namespaceActs_1_1TrackingGeometryView3DTest.html#a0e769fd78cb658e66c7362b5fa7bf818" target="_top" xlink:title="Acts::TrackingGeometryView3\lDTest::run">
<polygon fill="none" stroke="#000000" points="352,-25.5 352,-57.5 520,-57.5 520,-25.5 352,-25.5"/>
<text text-anchor="start" x="360" y="-44.5" font-family="FreeSans" font-size="10.00" fill="#000000">Acts::TrackingGeometryView3</text>
<text text-anchor="middle" x="436" y="-32.5" font-family="FreeSans" font-size="10.00" fill="#000000">DTest::run</text>
</a>
</g>
</g>
<!-- Node6&#45;&gt;Node8 -->
<g id="edge7" class="edge">
<title>Node6&#45;&gt;Node8</title>
<path fill="none" stroke="#191970" d="M310.0126,-57.5967C323.6826,-55.8501 337.9724,-54.0244 351.8149,-52.2558"/>
<polygon fill="#191970" stroke="#191970" points="309.1733,-54.1754 299.6975,-58.9146 310.0605,-61.1189 309.1733,-54.1754"/>
</g>
<!-- Node9 -->
<g id="node9" class="node">
<title>Node9</title>
<g id="a_node9"><a xlink:href="../../dd/d7e/namespaceActs_1_1Test.html#a2d44ae4b84089e0459f8fba89928c068" target="_top" xlink:title="This tests if the corresponding obj output is well formatted.">
<polygon fill="none" stroke="#000000" points="556,-25.5 556,-57.5 697,-57.5 697,-25.5 556,-25.5"/>
<text text-anchor="start" x="564" y="-44.5" font-family="FreeSans" font-size="10.00" fill="#000000">Acts::Test::BOOST_AUTO</text>
<text text-anchor="middle" x="626.5" y="-32.5" font-family="FreeSans" font-size="10.00" fill="#000000">_TEST_CASE</text>
</a>
</g>
</g>
<!-- Node8&#45;&gt;Node9 -->
<g id="edge8" class="edge">
<title>Node8&#45;&gt;Node9</title>
<path fill="none" stroke="#191970" d="M530.2417,-41.5C538.8908,-41.5 547.551,-41.5 555.937,-41.5"/>
<polygon fill="#191970" stroke="#191970" points="530.1106,-38.0001 520.1106,-41.5 530.1106,-45.0001 530.1106,-38.0001"/>
</g>
</g>
</svg>
