<?xml version="1.0" encoding="UTF-8" standalone="no"?>
<!DOCTYPE svg PUBLIC "-//W3C//DTD SVG 1.1//EN"
 "http://www.w3.org/Graphics/SVG/1.1/DTD/svg11.dtd">
<!-- Generated by graphviz version 2.40.1 (20161225.0304)
 -->
<!-- Title: PHG4InnerHcalDetector::AddGeometryNode Pages: 1 -->
<svg width="556pt" height="1148pt"
 viewBox="0.00 0.00 556.00 1148.00" xmlns="http://www.w3.org/2000/svg" xmlns:xlink="http://www.w3.org/1999/xlink">
<g id="graph0" class="graph" transform="scale(1 1) rotate(0) translate(4 1144)">
<title>PHG4InnerHcalDetector::AddGeometryNode</title>
<!-- Node1 -->
<g id="node1" class="node">
<title>Node1</title>
<polygon fill="#bfbfbf" stroke="#000000" points="0,-541.5 0,-573.5 137,-573.5 137,-541.5 0,-541.5"/>
<text text-anchor="start" x="8" y="-560.5" font-family="FreeSans" font-size="10.00" fill="#000000">PHG4InnerHcalDetector</text>
<text text-anchor="middle" x="68.5" y="-548.5" font-family="FreeSans" font-size="10.00" fill="#000000">::AddGeometryNode</text>
</g>
<!-- Node2 -->
<g id="node2" class="node">
<title>Node2</title>
<g id="a_node2"><a xlink:href="../../df/d49/classRawTowerGeomContainer.html#a28e5701750d21b4a32f11f7cc92fbb18" target="_top" xlink:title="go through all towers">
<polygon fill="none" stroke="#000000" points="205,-1107.5 205,-1139.5 352,-1139.5 352,-1107.5 205,-1107.5"/>
<text text-anchor="start" x="213" y="-1126.5" font-family="FreeSans" font-size="10.00" fill="#000000">RawTowerGeomContainer</text>
<text text-anchor="middle" x="278.5" y="-1114.5" font-family="FreeSans" font-size="10.00" fill="#000000">::add_tower_geometry</text>
</a>
</g>
</g>
<!-- Node1&#45;&gt;Node2 -->
<g id="edge1" class="edge">
<title>Node1&#45;&gt;Node2</title>
<path fill="none" stroke="#191970" d="M69.3261,-573.7376C73.8087,-655.3736 97.8504,-1020.1366 173,-1098.5 179.3626,-1105.1347 187.137,-1110.1478 195.5529,-1113.9166"/>
<polygon fill="#191970" stroke="#191970" points="194.3113,-1117.1891 204.9005,-1117.5357 196.8387,-1110.6612 194.3113,-1117.1891"/>
</g>
<!-- Node3 -->
<g id="node3" class="node">
<title>Node3</title>
<g id="a_node3"><a xlink:href="../../d5/dca/classPHCompositeNode.html#a15a0c4804399a9de4267647f05bd1ba4" target="_top" xlink:title="PHCompositeNode::addNode">
<polygon fill="none" stroke="#000000" points="197.5,-1068.5 197.5,-1088.5 359.5,-1088.5 359.5,-1068.5 197.5,-1068.5"/>
<text text-anchor="middle" x="278.5" y="-1075.5" font-family="FreeSans" font-size="10.00" fill="#000000">PHCompositeNode::addNode</text>
</a>
</g>
</g>
<!-- Node1&#45;&gt;Node3 -->
<g id="edge2" class="edge">
<title>Node1&#45;&gt;Node3</title>
<path fill="none" stroke="#191970" d="M69.4991,-573.6754C74.6619,-651.8181 100.9139,-989.338 173,-1059.5 177.4,-1063.7826 182.4181,-1067.2768 187.822,-1070.1149"/>
<polygon fill="#191970" stroke="#191970" points="186.6794,-1073.437 197.2395,-1074.295 189.5193,-1067.0389 186.6794,-1073.437"/>
</g>
<!-- Node7 -->
<g id="node7" class="node">
<title>Node7</title>
<g id="a_node7"><a xlink:href="../../da/d58/namespaceRawTowerDefs.html#a833750b09c330a79395b15bcf1d93a9e" target="_top" xlink:title="RawTowerDefs::convert\l_name_to_caloid">
<polygon fill="none" stroke="#000000" points="211,-1017.5 211,-1049.5 346,-1049.5 346,-1017.5 211,-1017.5"/>
<text text-anchor="start" x="219" y="-1036.5" font-family="FreeSans" font-size="10.00" fill="#000000">RawTowerDefs::convert</text>
<text text-anchor="middle" x="278.5" y="-1024.5" font-family="FreeSans" font-size="10.00" fill="#000000">_name_to_caloid</text>
</a>
</g>
</g>
<!-- Node1&#45;&gt;Node7 -->
<g id="edge6" class="edge">
<title>Node1&#45;&gt;Node7</title>
<path fill="none" stroke="#191970" d="M70.014,-573.8878C77.1189,-647.2505 109.5067,-944.6894 173,-1008.5 180.8271,-1016.3662 190.6441,-1021.9352 201.1194,-1025.848"/>
<polygon fill="#191970" stroke="#191970" points="200.2949,-1029.2594 210.8864,-1028.994 202.4411,-1022.5966 200.2949,-1029.2594"/>
</g>
<!-- Node8 -->
<g id="node8" class="node">
<title>Node8</title>
<g id="a_node8"><a xlink:href="../../da/d58/namespaceRawTowerDefs.html#a188fb7233354634d301c172177ab1ab6" target="_top" xlink:title="RawTowerDefs::encode\l_towerid">
<polygon fill="none" stroke="#000000" points="212,-966.5 212,-998.5 345,-998.5 345,-966.5 212,-966.5"/>
<text text-anchor="start" x="220" y="-985.5" font-family="FreeSans" font-size="10.00" fill="#000000">RawTowerDefs::encode</text>
<text text-anchor="middle" x="278.5" y="-973.5" font-family="FreeSans" font-size="10.00" fill="#000000">_towerid</text>
</a>
</g>
</g>
<!-- Node1&#45;&gt;Node8 -->
<g id="edge7" class="edge">
<title>Node1&#45;&gt;Node8</title>
<path fill="none" stroke="#191970" d="M70.5252,-573.846C79.2803,-641.9023 116.0242,-901.8122 173,-957.5 181.173,-965.4882 191.4035,-971.0936 202.2558,-974.997"/>
<polygon fill="#191970" stroke="#191970" points="201.3281,-978.3739 211.9166,-978.0063 203.41,-971.6906 201.3281,-978.3739"/>
</g>
<!-- Node9 -->
<g id="node9" class="node">
<title>Node9</title>
<g id="a_node9"><a xlink:href="../../d5/d07/classPHNodeIterator.html#aea98bf8619af59b1212a94fb32106baa" target="_top" xlink:title="PHNodeIterator::findFirst">
<polygon fill="none" stroke="#000000" points="208,-909.5 208,-929.5 349,-929.5 349,-909.5 208,-909.5"/>
<text text-anchor="middle" x="278.5" y="-916.5" font-family="FreeSans" font-size="10.00" fill="#000000">PHNodeIterator::findFirst</text>
</a>
</g>
</g>
<!-- Node1&#45;&gt;Node9 -->
<g id="edge8" class="edge">
<title>Node1&#45;&gt;Node9</title>
<path fill="none" stroke="#191970" d="M71.1531,-573.6617C81.6132,-635.393 121.9359,-855.1113 173,-900.5 180.2267,-906.9235 188.8652,-911.5223 198.0449,-914.7725"/>
<polygon fill="#191970" stroke="#191970" points="197.1865,-918.169 207.7706,-917.6913 199.1987,-911.4645 197.1865,-918.169"/>
</g>
<!-- Node11 -->
<g id="node11" class="node">
<title>Node11</title>
<g id="a_node11"><a xlink:href="../../d8/dc4/classRawTowerGeom.html#a6ecdff55675d6cbfe0787f15e290cc1d" target="_top" xlink:title="RawTowerGeom::get_center_x">
<polygon fill="none" stroke="#000000" points="194,-870.5 194,-890.5 363,-890.5 363,-870.5 194,-870.5"/>
<text text-anchor="middle" x="278.5" y="-877.5" font-family="FreeSans" font-size="10.00" fill="#000000">RawTowerGeom::get_center_x</text>
</a>
</g>
</g>
<!-- Node1&#45;&gt;Node11 -->
<g id="edge12" class="edge">
<title>Node1&#45;&gt;Node11</title>
<path fill="none" stroke="#191970" d="M71.8368,-573.7718C83.9103,-631.0583 127.0374,-822.0783 173,-861.5 176.5526,-864.547 180.4253,-867.1787 184.5209,-869.4473"/>
<polygon fill="#191970" stroke="#191970" points="183.2706,-872.7281 193.8055,-873.854 186.2721,-866.4042 183.2706,-872.7281"/>
</g>
<!-- Node12 -->
<g id="node12" class="node">
<title>Node12</title>
<g id="a_node12"><a xlink:href="../../dd/dae/classPHParameters.html#aa61ce249b94375d9af4482c36a1308cf" target="_top" xlink:title="PHParameters::get_double\l_param">
<polygon fill="none" stroke="#000000" points="203.5,-819.5 203.5,-851.5 353.5,-851.5 353.5,-819.5 203.5,-819.5"/>
<text text-anchor="start" x="211.5" y="-838.5" font-family="FreeSans" font-size="10.00" fill="#000000">PHParameters::get_double</text>
<text text-anchor="middle" x="278.5" y="-826.5" font-family="FreeSans" font-size="10.00" fill="#000000">_param</text>
</a>
</g>
</g>
<!-- Node1&#45;&gt;Node12 -->
<g id="edge13" class="edge">
<title>Node1&#45;&gt;Node12</title>
<path fill="none" stroke="#191970" d="M70.1697,-573.7595C75.6983,-618.8236 97.5924,-746.2226 173,-810.5 179.1441,-815.7373 186.1909,-819.9214 193.6653,-823.2582"/>
<polygon fill="#191970" stroke="#191970" points="192.7384,-826.6542 203.3259,-827.0472 195.2944,-820.1375 192.7384,-826.6542"/>
</g>
<!-- Node13 -->
<g id="node13" class="node">
<title>Node13</title>
<g id="a_node13"><a xlink:href="../../d0/d25/group__cylindrical__calorimeter.html#ga3d283957eb2f3bc0b27e3217d37b8dfb" target="_top" xlink:title="RawTowerGeomContainer\l::get_etabins">
<polygon fill="none" stroke="#000000" points="205,-768.5 205,-800.5 352,-800.5 352,-768.5 205,-768.5"/>
<text text-anchor="start" x="213" y="-787.5" font-family="FreeSans" font-size="10.00" fill="#000000">RawTowerGeomContainer</text>
<text text-anchor="middle" x="278.5" y="-775.5" font-family="FreeSans" font-size="10.00" fill="#000000">::get_etabins</text>
</a>
</g>
</g>
<!-- Node1&#45;&gt;Node13 -->
<g id="edge14" class="edge">
<title>Node1&#45;&gt;Node13</title>
<path fill="none" stroke="#191970" d="M71.9597,-573.5456C81.1336,-612.0548 109.8288,-710.1652 173,-759.5 179.7175,-764.7462 187.3594,-768.9187 195.3885,-772.2331"/>
<polygon fill="#191970" stroke="#191970" points="194.3658,-775.586 204.9595,-775.7428 196.7758,-769.0139 194.3658,-775.586"/>
</g>
<!-- Node14 -->
<g id="node14" class="node">
<title>Node14</title>
<g id="a_node14"><a xlink:href="../../d0/d25/group__cylindrical__calorimeter.html#gae572a4818b1047fdd6848d83dbea760c" target="_top" xlink:title="RawTowerGeomContainer\l::get_etacenter">
<polygon fill="none" stroke="#000000" points="205,-717.5 205,-749.5 352,-749.5 352,-717.5 205,-717.5"/>
<text text-anchor="start" x="213" y="-736.5" font-family="FreeSans" font-size="10.00" fill="#000000">RawTowerGeomContainer</text>
<text text-anchor="middle" x="278.5" y="-724.5" font-family="FreeSans" font-size="10.00" fill="#000000">::get_etacenter</text>
</a>
</g>
</g>
<!-- Node1&#45;&gt;Node14 -->
<g id="edge15" class="edge">
<title>Node1&#45;&gt;Node14</title>
<path fill="none" stroke="#191970" d="M74.9312,-573.644C88.2463,-604.8917 121.9208,-673.6261 173,-708.5 179.8716,-713.1915 187.5156,-717.0083 195.4604,-720.1125"/>
<polygon fill="#191970" stroke="#191970" points="194.302,-723.4151 204.8969,-723.4389 196.6293,-716.8133 194.302,-723.4151"/>
</g>
<!-- Node15 -->
<g id="node15" class="node">
<title>Node15</title>
<g id="a_node15"><a xlink:href="../../dd/dae/classPHParameters.html#a0241ca27a369ab4865ac3d79620ac27c" target="_top" xlink:title="PHParameters::get_int\l_param">
<polygon fill="none" stroke="#000000" points="214,-666.5 214,-698.5 343,-698.5 343,-666.5 214,-666.5"/>
<text text-anchor="start" x="222" y="-685.5" font-family="FreeSans" font-size="10.00" fill="#000000">PHParameters::get_int</text>
<text text-anchor="middle" x="278.5" y="-673.5" font-family="FreeSans" font-size="10.00" fill="#000000">_param</text>
</a>
</g>
</g>
<!-- Node1&#45;&gt;Node15 -->
<g id="edge16" class="edge">
<title>Node1&#45;&gt;Node15</title>
<path fill="none" stroke="#191970" d="M80.7558,-573.7467C98.5498,-596.1427 133.7324,-636.1481 173,-657.5 182.5589,-662.6977 193.18,-666.8228 203.8962,-670.0946"/>
<polygon fill="#191970" stroke="#191970" points="203.1623,-673.524 213.7367,-672.8658 205.0598,-666.7861 203.1623,-673.524"/>
</g>
<!-- Node16 -->
<g id="node16" class="node">
<title>Node16</title>
<g id="a_node16"><a xlink:href="../../d0/d25/group__cylindrical__calorimeter.html#gab9c3a0fa996fffad8aa107d62d5b26b6" target="_top" xlink:title="RawTowerGeomContainer\l::get_phibins">
<polygon fill="none" stroke="#000000" points="205,-615.5 205,-647.5 352,-647.5 352,-615.5 205,-615.5"/>
<text text-anchor="start" x="213" y="-634.5" font-family="FreeSans" font-size="10.00" fill="#000000">RawTowerGeomContainer</text>
<text text-anchor="middle" x="278.5" y="-622.5" font-family="FreeSans" font-size="10.00" fill="#000000">::get_phibins</text>
</a>
</g>
</g>
<!-- Node1&#45;&gt;Node16 -->
<g id="edge17" class="edge">
<title>Node1&#45;&gt;Node16</title>
<path fill="none" stroke="#191970" d="M98.4456,-573.5602C118.9739,-584.0624 147.0794,-597.46 173,-606.5 180.0441,-608.9567 187.4357,-611.2519 194.8984,-613.3767"/>
<polygon fill="#191970" stroke="#191970" points="194.1571,-616.8026 204.7266,-616.0712 196.0079,-610.0517 194.1571,-616.8026"/>
</g>
<!-- Node17 -->
<g id="node17" class="node">
<title>Node17</title>
<g id="a_node17"><a xlink:href="../../d0/d25/group__cylindrical__calorimeter.html#ga6c435a1e5496cde564dda1e6126c51e7" target="_top" xlink:title="RawTowerGeomContainer\l::get_phicenter">
<polygon fill="none" stroke="#000000" points="205,-564.5 205,-596.5 352,-596.5 352,-564.5 205,-564.5"/>
<text text-anchor="start" x="213" y="-583.5" font-family="FreeSans" font-size="10.00" fill="#000000">RawTowerGeomContainer</text>
<text text-anchor="middle" x="278.5" y="-571.5" font-family="FreeSans" font-size="10.00" fill="#000000">::get_phicenter</text>
</a>
</g>
</g>
<!-- Node1&#45;&gt;Node17 -->
<g id="edge18" class="edge">
<title>Node1&#45;&gt;Node17</title>
<path fill="none" stroke="#191970" d="M137.2619,-565.0311C155.6145,-567.0411 175.6506,-569.2355 194.7133,-571.3234"/>
<polygon fill="#191970" stroke="#191970" points="194.56,-574.8274 204.8816,-572.437 195.3222,-567.869 194.56,-574.8274"/>
</g>
<!-- Node18 -->
<g id="node18" class="node">
<title>Node18</title>
<g id="a_node18"><a xlink:href="../../df/d02/classPHG4Utils.html#abdb6e84eedbd15893104110a0ed3ba88" target="_top" xlink:title="PHG4Utils::get_theta">
<polygon fill="none" stroke="#000000" points="218,-525.5 218,-545.5 339,-545.5 339,-525.5 218,-525.5"/>
<text text-anchor="middle" x="278.5" y="-532.5" font-family="FreeSans" font-size="10.00" fill="#000000">PHG4Utils::get_theta</text>
</a>
</g>
</g>
<!-- Node1&#45;&gt;Node18 -->
<g id="edge19" class="edge">
<title>Node1&#45;&gt;Node18</title>
<path fill="none" stroke="#191970" d="M137.2619,-550.2964C159.7717,-547.9382 184.8142,-545.3147 207.4868,-542.9395"/>
<polygon fill="#191970" stroke="#191970" points="208.1388,-546.3904 217.7197,-541.8675 207.4094,-539.4285 208.1388,-546.3904"/>
</g>
<!-- Node19 -->
<g id="node19" class="node">
<title>Node19</title>
<g id="a_node19"><a xlink:href="../../df/d49/classRawTowerGeomContainer.html#a21ac9ae05bf80964794b1542c0b982ce" target="_top" xlink:title="RawTowerGeomContainer\l::get_tower_geometry">
<polygon fill="none" stroke="#000000" points="205,-474.5 205,-506.5 352,-506.5 352,-474.5 205,-474.5"/>
<text text-anchor="start" x="213" y="-493.5" font-family="FreeSans" font-size="10.00" fill="#000000">RawTowerGeomContainer</text>
<text text-anchor="middle" x="278.5" y="-481.5" font-family="FreeSans" font-size="10.00" fill="#000000">::get_tower_geometry</text>
</a>
</g>
</g>
<!-- Node1&#45;&gt;Node19 -->
<g id="edge20" class="edge">
<title>Node1&#45;&gt;Node19</title>
<path fill="none" stroke="#191970" d="M105.7962,-541.4798C125.5455,-533.3516 150.3408,-523.7024 173,-516.5 181.0113,-513.9535 189.4303,-511.5058 197.8722,-509.1995"/>
<polygon fill="#191970" stroke="#191970" points="199.0096,-512.5186 207.7699,-506.5598 197.2057,-505.755 199.0096,-512.5186"/>
</g>
<!-- Node20 -->
<g id="node20" class="node">
<title>Node20</title>
<g id="a_node20"><a xlink:href="../../df/d49/classRawTowerGeomContainer.html#abf6de939bc33bcfa72d3b26492a115b6" target="_top" xlink:title="RawTowerGeomContainer\l::identify">
<polygon fill="none" stroke="#000000" points="205,-423.5 205,-455.5 352,-455.5 352,-423.5 205,-423.5"/>
<text text-anchor="start" x="213" y="-442.5" font-family="FreeSans" font-size="10.00" fill="#000000">RawTowerGeomContainer</text>
<text text-anchor="middle" x="278.5" y="-430.5" font-family="FreeSans" font-size="10.00" fill="#000000">::identify</text>
</a>
</g>
</g>
<!-- Node1&#45;&gt;Node20 -->
<g id="edge21" class="edge">
<title>Node1&#45;&gt;Node20</title>
<path fill="none" stroke="#191970" d="M82.3244,-541.2274C100.8466,-520.4855 135.7286,-484.9869 173,-465.5 179.9349,-461.8742 187.3927,-458.7407 195.0217,-456.0352"/>
<polygon fill="#191970" stroke="#191970" points="196.3462,-459.284 204.7502,-452.8324 194.1572,-452.6351 196.3462,-459.284"/>
</g>
<!-- Node21 -->
<g id="node21" class="node">
<title>Node21</title>
<g id="a_node21"><a xlink:href="../../d5/dca/classPHCompositeNode.html#a2bebc9857179210d6351aa6c54a20c28" target="_top" xlink:title="PHCompositeNode::PHCompositeNode">
<polygon fill="none" stroke="#000000" points="173,-384.5 173,-404.5 384,-404.5 384,-384.5 173,-384.5"/>
<text text-anchor="middle" x="278.5" y="-391.5" font-family="FreeSans" font-size="10.00" fill="#000000">PHCompositeNode::PHCompositeNode</text>
</a>
</g>
</g>
<!-- Node1&#45;&gt;Node21 -->
<g id="edge22" class="edge">
<title>Node1&#45;&gt;Node21</title>
<path fill="none" stroke="#191970" d="M75.4702,-541.0694C89.2642,-510.7058 123.091,-446.0367 173,-414.5 176.5902,-412.2314 180.3769,-410.2082 184.2967,-408.4046"/>
<polygon fill="#191970" stroke="#191970" points="185.7202,-411.604 193.6546,-404.5829 183.0736,-405.1236 185.7202,-411.604"/>
</g>
<!-- Node22 -->
<g id="node22" class="node">
<title>Node22</title>
<g id="a_node22"><a xlink:href="../../d0/d25/group__cylindrical__calorimeter.html#gab864b6d6a9972b279d884e7b95975634" target="_top" xlink:title="RawTowerGeomContainer\l::set_etabins">
<polygon fill="none" stroke="#000000" points="205,-333.5 205,-365.5 352,-365.5 352,-333.5 205,-333.5"/>
<text text-anchor="start" x="213" y="-352.5" font-family="FreeSans" font-size="10.00" fill="#000000">RawTowerGeomContainer</text>
<text text-anchor="middle" x="278.5" y="-340.5" font-family="FreeSans" font-size="10.00" fill="#000000">::set_etabins</text>
</a>
</g>
</g>
<!-- Node1&#45;&gt;Node22 -->
<g id="edge23" class="edge">
<title>Node1&#45;&gt;Node22</title>
<path fill="none" stroke="#191970" d="M72.9583,-541.4774C83.7539,-505.7662 114.7957,-419.345 173,-375.5 179.7685,-370.4013 187.4102,-366.2914 195.4101,-362.9803"/>
<polygon fill="#191970" stroke="#191970" points="196.7754,-366.207 204.935,-359.4489 194.342,-359.6436 196.7754,-366.207"/>
</g>
<!-- Node23 -->
<g id="node23" class="node">
<title>Node23</title>
<g id="a_node23"><a xlink:href="../../d0/d25/group__cylindrical__calorimeter.html#gaa5d839ee7ae3aca391dc7e8fb17c2ad9" target="_top" xlink:title="RawTowerGeomContainer\l::set_etabounds">
<polygon fill="none" stroke="#000000" points="205,-282.5 205,-314.5 352,-314.5 352,-282.5 205,-282.5"/>
<text text-anchor="start" x="213" y="-301.5" font-family="FreeSans" font-size="10.00" fill="#000000">RawTowerGeomContainer</text>
<text text-anchor="middle" x="278.5" y="-289.5" font-family="FreeSans" font-size="10.00" fill="#000000">::set_etabounds</text>
</a>
</g>
</g>
<!-- Node1&#45;&gt;Node23 -->
<g id="edge24" class="edge">
<title>Node1&#45;&gt;Node23</title>
<path fill="none" stroke="#191970" d="M70.8262,-541.3137C77.8225,-498.789 102.7098,-383.1554 173,-324.5 179.6104,-318.9838 187.2171,-314.6081 195.2547,-311.1415"/>
<polygon fill="#191970" stroke="#191970" points="196.7607,-314.313 204.8542,-307.4758 194.2635,-307.7735 196.7607,-314.313"/>
</g>
<!-- Node24 -->
<g id="node24" class="node">
<title>Node24</title>
<g id="a_node24"><a xlink:href="../../d0/d25/group__cylindrical__calorimeter.html#ga590d9a3522be3e1c5e03ee27eb2bfdb0" target="_top" xlink:title="RawTowerGeomContainer\l::set_phibins">
<polygon fill="none" stroke="#000000" points="205,-231.5 205,-263.5 352,-263.5 352,-231.5 205,-231.5"/>
<text text-anchor="start" x="213" y="-250.5" font-family="FreeSans" font-size="10.00" fill="#000000">RawTowerGeomContainer</text>
<text text-anchor="middle" x="278.5" y="-238.5" font-family="FreeSans" font-size="10.00" fill="#000000">::set_phibins</text>
</a>
</g>
</g>
<!-- Node1&#45;&gt;Node24 -->
<g id="edge25" class="edge">
<title>Node1&#45;&gt;Node24</title>
<path fill="none" stroke="#191970" d="M69.3687,-541.4557C72.8841,-493.1062 90.1929,-347.5939 173,-273.5 179.588,-267.6052 187.2994,-262.9973 195.5022,-259.4027"/>
<polygon fill="#191970" stroke="#191970" points="196.8697,-262.6266 204.9384,-255.7603 194.3489,-256.0962 196.8697,-262.6266"/>
</g>
<!-- Node25 -->
<g id="node25" class="node">
<title>Node25</title>
<g id="a_node25"><a xlink:href="../../d0/d25/group__cylindrical__calorimeter.html#ga92141aecbeea7dba415e979893a345d4" target="_top" xlink:title="RawTowerGeomContainer\l::set_phibounds">
<polygon fill="none" stroke="#000000" points="205,-180.5 205,-212.5 352,-212.5 352,-180.5 205,-180.5"/>
<text text-anchor="start" x="213" y="-199.5" font-family="FreeSans" font-size="10.00" fill="#000000">RawTowerGeomContainer</text>
<text text-anchor="middle" x="278.5" y="-187.5" font-family="FreeSans" font-size="10.00" fill="#000000">::set_phibounds</text>
</a>
</g>
</g>
<!-- Node1&#45;&gt;Node25 -->
<g id="edge26" class="edge">
<title>Node1&#45;&gt;Node25</title>
<path fill="none" stroke="#191970" d="M71.3732,-541.3941C82.4806,-480.8773 124.4171,-268.2179 173,-222.5 179.4879,-216.3947 187.1724,-211.6572 195.3913,-207.9905"/>
<polygon fill="#191970" stroke="#191970" points="196.8219,-211.1893 204.8625,-204.29 194.2744,-204.6693 196.8219,-211.1893"/>
</g>
<!-- Node26 -->
<g id="node26" class="node">
<title>Node26</title>
<g id="a_node26"><a xlink:href="../../d0/d25/group__cylindrical__calorimeter.html#ga5b1d5b75e86073f35f83a3a4fa58a489" target="_top" xlink:title="RawTowerGeomContainer\l::set_radius">
<polygon fill="none" stroke="#000000" points="205,-129.5 205,-161.5 352,-161.5 352,-129.5 205,-129.5"/>
<text text-anchor="start" x="213" y="-148.5" font-family="FreeSans" font-size="10.00" fill="#000000">RawTowerGeomContainer</text>
<text text-anchor="middle" x="278.5" y="-136.5" font-family="FreeSans" font-size="10.00" fill="#000000">::set_radius</text>
</a>
</g>
</g>
<!-- Node1&#45;&gt;Node26 -->
<g id="edge27" class="edge">
<title>Node1&#45;&gt;Node26</title>
<path fill="none" stroke="#191970" d="M70.6863,-541.2866C79.9481,-474.9579 118.0157,-225.247 173,-171.5 179.4198,-165.2247 187.0985,-160.384 195.3464,-156.6614"/>
<polygon fill="#191970" stroke="#191970" points="196.8395,-159.8352 204.8635,-152.9167 194.2764,-153.3213 196.8395,-159.8352"/>
</g>
<!-- Node27 -->
<g id="node27" class="node">
<title>Node27</title>
<g id="a_node27"><a xlink:href="../../d0/d25/group__cylindrical__calorimeter.html#ga2968a63819d769ef09ce6945fc74db06" target="_top" xlink:title="RawTowerGeomContainer\l::set_thickness">
<polygon fill="none" stroke="#000000" points="205,-78.5 205,-110.5 352,-110.5 352,-78.5 205,-78.5"/>
<text text-anchor="start" x="213" y="-97.5" font-family="FreeSans" font-size="10.00" fill="#000000">RawTowerGeomContainer</text>
<text text-anchor="middle" x="278.5" y="-85.5" font-family="FreeSans" font-size="10.00" fill="#000000">::set_thickness</text>
</a>
</g>
</g>
<!-- Node1&#45;&gt;Node27 -->
<g id="edge28" class="edge">
<title>Node1&#45;&gt;Node27</title>
<path fill="none" stroke="#191970" d="M70.155,-541.1495C77.7522,-469.291 111.5727,-182.3531 173,-120.5 179.3743,-114.0815 187.0623,-109.1554 195.3482,-105.3877"/>
<polygon fill="#191970" stroke="#191970" points="196.9036,-108.5365 204.9191,-101.6082 194.3325,-102.0258 196.9036,-108.5365"/>
</g>
<!-- Node28 -->
<g id="node28" class="node">
<title>Node28</title>
<g id="a_node28"><a xlink:href="../../d3/de7/classPHG4Detector.html#a3524241bcf8984af140ba78a3e6925a6" target="_top" xlink:title="PHG4Detector::topNode">
<polygon fill="none" stroke="#000000" points="210,-39.5 210,-59.5 347,-59.5 347,-39.5 210,-39.5"/>
<text text-anchor="middle" x="278.5" y="-46.5" font-family="FreeSans" font-size="10.00" fill="#000000">PHG4Detector::topNode</text>
</a>
</g>
</g>
<!-- Node1&#45;&gt;Node28 -->
<g id="edge29" class="edge">
<title>Node1&#45;&gt;Node28</title>
<path fill="none" stroke="#191970" d="M69.6205,-541.2764C75.2642,-464.4101 103.1124,-137.7572 173,-69.5 180.58,-62.0968 189.9945,-56.9951 200.0552,-53.5377"/>
<polygon fill="#191970" stroke="#191970" points="201.2243,-56.8432 209.8602,-50.7054 199.2817,-50.1181 201.2243,-56.8432"/>
</g>
<!-- Node29 -->
<g id="node29" class="node">
<title>Node29</title>
<g id="a_node29"><a xlink:href="../../d3/de7/classPHG4Detector.html#af5eefc46de6e61b788946ca0d0a7427c" target="_top" xlink:title="PHG4Detector::Verbosity">
<polygon fill="none" stroke="#000000" points="207.5,-.5 207.5,-20.5 349.5,-20.5 349.5,-.5 207.5,-.5"/>
<text text-anchor="middle" x="278.5" y="-7.5" font-family="FreeSans" font-size="10.00" fill="#000000">PHG4Detector::Verbosity</text>
</a>
</g>
</g>
<!-- Node1&#45;&gt;Node29 -->
<g id="edge30" class="edge">
<title>Node1&#45;&gt;Node29</title>
<path fill="none" stroke="#191970" d="M69.3219,-541.3049C73.7502,-460.7076 97.4453,-103.7657 173,-29.5 179.9447,-22.6738 188.4579,-17.8443 197.6082,-14.4804"/>
<polygon fill="#191970" stroke="#191970" points="198.8095,-17.7727 207.3355,-11.4832 196.7482,-11.0831 198.8095,-17.7727"/>
</g>
<!-- Node4 -->
<g id="node4" class="node">
<title>Node4</title>
<g id="a_node4"><a xlink:href="../../d6/d86/classPHPointerList.html#ac2176735e9d046a034f1686fd2c477eb" target="_top" xlink:title="PHPointerList::append">
<polygon fill="none" stroke="#000000" points="420,-1087.5 420,-1107.5 548,-1107.5 548,-1087.5 420,-1087.5"/>
<text text-anchor="middle" x="484" y="-1094.5" font-family="FreeSans" font-size="10.00" fill="#000000">PHPointerList::append</text>
</a>
</g>
</g>
<!-- Node3&#45;&gt;Node4 -->
<g id="edge3" class="edge">
<title>Node3&#45;&gt;Node4</title>
<path fill="none" stroke="#191970" d="M359.719,-1086.0093C376.2564,-1087.5383 393.5729,-1089.1393 409.8491,-1090.6442"/>
<polygon fill="#191970" stroke="#191970" points="409.5528,-1094.1316 419.8326,-1091.5672 410.1973,-1087.1614 409.5528,-1094.1316"/>
</g>
<!-- Node5 -->
<g id="node5" class="node">
<title>Node5</title>
<g id="a_node5"><a xlink:href="../../dc/d82/classPHNode.html#aca3576f926a4401eddc3d88bf0ce0de3" target="_top" xlink:title="PHNode::getName">
<polygon fill="none" stroke="#000000" points="429.5,-988.5 429.5,-1008.5 538.5,-1008.5 538.5,-988.5 429.5,-988.5"/>
<text text-anchor="middle" x="484" y="-995.5" font-family="FreeSans" font-size="10.00" fill="#000000">PHNode::getName</text>
</a>
</g>
</g>
<!-- Node3&#45;&gt;Node5 -->
<g id="edge4" class="edge">
<title>Node3&#45;&gt;Node5</title>
<path fill="none" stroke="#191970" d="M353.7865,-1068.4753C364.1041,-1066.0838 374.431,-1063.1342 384,-1059.5 391.9851,-1056.4673 432.5597,-1031.1423 459.5089,-1014.0911"/>
<polygon fill="#191970" stroke="#191970" points="461.4877,-1016.9807 468.059,-1008.6699 457.7393,-1011.0689 461.4877,-1016.9807"/>
</g>
<!-- Node6 -->
<g id="node6" class="node">
<title>Node6</title>
<g id="a_node6"><a xlink:href="../../dc/d82/classPHNode.html#adda2bd6cef2d5067bbe3016a990b7198" target="_top" xlink:title="PHNode::setParent">
<polygon fill="none" stroke="#000000" points="428.5,-1048.5 428.5,-1068.5 539.5,-1068.5 539.5,-1048.5 428.5,-1048.5"/>
<text text-anchor="middle" x="484" y="-1055.5" font-family="FreeSans" font-size="10.00" fill="#000000">PHNode::setParent</text>
</a>
</g>
</g>
<!-- Node3&#45;&gt;Node6 -->
<g id="edge5" class="edge">
<title>Node3&#45;&gt;Node6</title>
<path fill="none" stroke="#191970" d="M359.719,-1070.5955C379.1242,-1068.7069 399.6022,-1066.7139 418.2134,-1064.9026"/>
<polygon fill="#191970" stroke="#191970" points="418.7283,-1068.3691 428.3422,-1063.9168 418.0501,-1061.402 418.7283,-1068.3691"/>
</g>
<!-- Node9&#45;&gt;Node5 -->
<g id="edge10" class="edge">
<title>Node9&#45;&gt;Node5</title>
<path fill="none" stroke="#191970" d="M307.7327,-929.6463C328.9796,-937.1138 358.3823,-947.6401 384,-957.5 406.4707,-966.1487 431.5397,-976.4284 450.9564,-984.531"/>
<polygon fill="#191970" stroke="#191970" points="449.6982,-987.7986 460.274,-988.433 452.4021,-981.3419 449.6982,-987.7986"/>
</g>
<!-- Node9&#45;&gt;Node9 -->
<g id="edge11" class="edge">
<title>Node9&#45;&gt;Node9</title>
<path fill="none" stroke="#191970" d="M246.5627,-929.7271C231.9949,-938.6067 242.6406,-948 278.5,-948 303.7136,-948 316.462,-943.3561 316.7452,-937.5121"/>
<polygon fill="#191970" stroke="#191970" points="319.4521,-935.2933 310.4373,-929.7271 314.0134,-939.7002 319.4521,-935.2933"/>
</g>
<!-- Node10 -->
<g id="node10" class="node">
<title>Node10</title>
<g id="a_node10"><a xlink:href="../../dc/d82/classPHNode.html#a4ab1f90aed955a652813bfe377087bda" target="_top" xlink:title="PHNode::getType">
<polygon fill="none" stroke="#000000" points="432.5,-909.5 432.5,-929.5 535.5,-929.5 535.5,-909.5 432.5,-909.5"/>
<text text-anchor="middle" x="484" y="-916.5" font-family="FreeSans" font-size="10.00" fill="#000000">PHNode::getType</text>
</a>
</g>
</g>
<!-- Node9&#45;&gt;Node10 -->
<g id="edge9" class="edge">
<title>Node9&#45;&gt;Node10</title>
<path fill="none" stroke="#191970" d="M349.2214,-919.5C372.8816,-919.5 399.0593,-919.5 422.002,-919.5"/>
<polygon fill="#191970" stroke="#191970" points="422.295,-923.0001 432.295,-919.5 422.295,-916.0001 422.295,-923.0001"/>
</g>
</g>
</svg>
