<?xml version="1.0" encoding="UTF-8" standalone="no"?>
<!DOCTYPE svg PUBLIC "-//W3C//DTD SVG 1.1//EN"
 "http://www.w3.org/Graphics/SVG/1.1/DTD/svg11.dtd">
<!-- Generated by graphviz version 2.40.1 (20161225.0304)
 -->
<!-- Title: Get_Res_linear_Summmary Pages: 1 -->
<svg width="579pt" height="165pt"
 viewBox="0.00 0.00 579.00 165.00" xmlns="http://www.w3.org/2000/svg" xmlns:xlink="http://www.w3.org/1999/xlink">
<g id="graph0" class="graph" transform="scale(1 1) rotate(0) translate(4 161)">
<title>Get_Res_linear_Summmary</title>
<!-- Node1 -->
<g id="node1" class="node">
<title>Node1</title>
<polygon fill="#bfbfbf" stroke="#000000" points="0,-97.5 0,-117.5 155,-117.5 155,-97.5 0,-97.5"/>
<text text-anchor="middle" x="77.5" y="-104.5" font-family="FreeSans" font-size="10.00" fill="#000000">Get_Res_linear_Summmary</text>
</g>
<!-- Node2 -->
<g id="node2" class="node">
<title>Node2</title>
<g id="a_node2"><a xlink:href="../../dc/d3f/DrawPrototype2ShowerCalib_8C.html#a04a53ccab016c6e0a03718ada230fe27" target="_top" xlink:title="GetBeamMom">
<polygon fill="none" stroke="#000000" points="191,-136.5 191,-156.5 279,-156.5 279,-136.5 191,-136.5"/>
<text text-anchor="middle" x="235" y="-143.5" font-family="FreeSans" font-size="10.00" fill="#000000">GetBeamMom</text>
</a>
</g>
</g>
<!-- Node1&#45;&gt;Node2 -->
<g id="edge1" class="edge">
<title>Node1&#45;&gt;Node2</title>
<path fill="none" stroke="#191970" d="M118.0602,-117.5435C138.3605,-122.5702 163.1283,-128.7032 184.6352,-134.0287"/>
<polygon fill="#191970" stroke="#191970" points="184.0292,-137.4843 194.5773,-136.4906 185.7117,-130.6895 184.0292,-137.4843"/>
</g>
<!-- Node3 -->
<g id="node3" class="node">
<title>Node3</title>
<g id="a_node3"><a xlink:href="../../d0/d92/analysis_2blob_2master_2Calorimeter_2macros_2SaveCanvas_8C.html#acb5d1d0f06c58ad966ad06c5c7b36861" target="_top" xlink:title="Save canvas to multiple formats.">
<polygon fill="none" stroke="#000000" points="316.5,-117.5 316.5,-137.5 394.5,-137.5 394.5,-117.5 316.5,-117.5"/>
<text text-anchor="middle" x="355.5" y="-124.5" font-family="FreeSans" font-size="10.00" fill="#000000">SaveCanvas</text>
</a>
</g>
</g>
<!-- Node1&#45;&gt;Node3 -->
<g id="edge10" class="edge">
<title>Node1&#45;&gt;Node3</title>
<path fill="none" stroke="#191970" d="M155.3082,-113.0977C203.5823,-116.5707 264.159,-120.9287 305.9634,-123.9362"/>
<polygon fill="#191970" stroke="#191970" points="305.9428,-127.4437 316.1683,-124.6704 306.4452,-120.4617 305.9428,-127.4437"/>
</g>
<!-- Node5 -->
<g id="node5" class="node">
<title>Node5</title>
<g id="a_node5"><a xlink:href="../../d5/d51/DrawHadronShowers_8C.html#a84e15daec6faece69efa9a8c061a4725" target="_top" xlink:title="GetResolution">
<polygon fill="none" stroke="#000000" points="191.5,-58.5 191.5,-78.5 278.5,-78.5 278.5,-58.5 191.5,-58.5"/>
<text text-anchor="middle" x="235" y="-65.5" font-family="FreeSans" font-size="10.00" fill="#000000">GetResolution</text>
</a>
</g>
</g>
<!-- Node1&#45;&gt;Node5 -->
<g id="edge4" class="edge">
<title>Node1&#45;&gt;Node5</title>
<path fill="none" stroke="#191970" d="M118.0602,-97.4565C138.3605,-92.4298 163.1283,-86.2968 184.6352,-80.9713"/>
<polygon fill="#191970" stroke="#191970" points="185.7117,-84.3105 194.5773,-78.5094 184.0292,-77.5157 185.7117,-84.3105"/>
</g>
<!-- Node2&#45;&gt;Node3 -->
<g id="edge2" class="edge">
<title>Node2&#45;&gt;Node3</title>
<path fill="none" stroke="#191970" d="M279.1855,-139.533C288.0676,-138.1325 297.4522,-136.6528 306.4872,-135.2282"/>
<polygon fill="#191970" stroke="#191970" points="307.1613,-138.6652 316.4941,-133.6503 306.071,-131.7506 307.1613,-138.6652"/>
</g>
<!-- Node4 -->
<g id="node4" class="node">
<title>Node4</title>
<g id="a_node4"><a xlink:href="../../d0/d92/analysis_2blob_2master_2Calorimeter_2macros_2SaveCanvas_8C.html#a1b71da436f8aecc5962267d85f5cb013" target="_top" xlink:title="Service function to SaveCanvas()">
<polygon fill="none" stroke="#000000" points="472,-117.5 472,-137.5 531,-137.5 531,-117.5 472,-117.5"/>
<text text-anchor="middle" x="501.5" y="-124.5" font-family="FreeSans" font-size="10.00" fill="#000000">SavePad</text>
</a>
</g>
</g>
<!-- Node3&#45;&gt;Node4 -->
<g id="edge3" class="edge">
<title>Node3&#45;&gt;Node4</title>
<path fill="none" stroke="#191970" d="M394.6253,-127.5C415.4358,-127.5 440.9656,-127.5 461.854,-127.5"/>
<polygon fill="#191970" stroke="#191970" points="461.9987,-131.0001 471.9987,-127.5 461.9986,-124.0001 461.9987,-131.0001"/>
</g>
<!-- Node5&#45;&gt;Node3 -->
<g id="edge9" class="edge">
<title>Node5&#45;&gt;Node3</title>
<path fill="none" stroke="#191970" d="M255.4412,-78.5085C274.7433,-87.9594 303.912,-102.2411 325.7837,-112.9501"/>
<polygon fill="#191970" stroke="#191970" points="324.4382,-116.1883 334.9585,-117.4424 327.5164,-109.9014 324.4382,-116.1883"/>
</g>
<!-- Node6 -->
<g id="node6" class="node">
<title>Node6</title>
<g id="a_node6"><a xlink:href="../../df/da1/namespaceActs_1_1VectorHelpers.html#afc1703c2fa7adfd6517e5e16df2e5df4" target="_top" xlink:title="Acts::VectorHelpers::eta">
<polygon fill="none" stroke="#000000" points="432,-59.5 432,-79.5 571,-79.5 571,-59.5 432,-59.5"/>
<text text-anchor="middle" x="501.5" y="-66.5" font-family="FreeSans" font-size="10.00" fill="#000000">Acts::VectorHelpers::eta</text>
</a>
</g>
</g>
<!-- Node5&#45;&gt;Node6 -->
<g id="edge5" class="edge">
<title>Node5&#45;&gt;Node6</title>
<path fill="none" stroke="#191970" d="M278.5948,-69.1437C290.408,-69.2912 303.1938,-69.4262 315,-69.5 350.0642,-69.7191 388.8374,-69.7529 421.9065,-69.7189"/>
<polygon fill="#191970" stroke="#191970" points="421.9801,-73.2189 431.9757,-69.7062 421.9713,-66.2189 421.9801,-73.2189"/>
</g>
<!-- Node7 -->
<g id="node7" class="node">
<title>Node7</title>
<g id="a_node7"><a xlink:href="../../d5/d51/DrawHadronShowers_8C.html#ac3f29226cb9dcf3fb4ab5aad51ad4afb" target="_top" xlink:title="GetEvalHisto">
<polygon fill="none" stroke="#000000" points="315,-39.5 315,-59.5 396,-59.5 396,-39.5 315,-39.5"/>
<text text-anchor="middle" x="355.5" y="-46.5" font-family="FreeSans" font-size="10.00" fill="#000000">GetEvalHisto</text>
</a>
</g>
</g>
<!-- Node5&#45;&gt;Node7 -->
<g id="edge6" class="edge">
<title>Node5&#45;&gt;Node7</title>
<path fill="none" stroke="#191970" d="M278.5033,-61.6406C287.0311,-60.2959 296.0451,-58.8746 304.7846,-57.4966"/>
<polygon fill="#191970" stroke="#191970" points="305.5394,-60.9209 314.8722,-55.906 304.4491,-54.0064 305.5394,-60.9209"/>
</g>
<!-- Node8 -->
<g id="node8" class="node">
<title>Node8</title>
<g id="a_node8"><a xlink:href="../../d2/dc5/KFPTrackVector_8h.html#a39a53a622c6abde5e888e4ad46fb04af" target="_top" xlink:title="Returns momentum of the track with index &quot;n&quot;.">
<polygon fill="none" stroke="#000000" points="341,-.5 341,-20.5 370,-20.5 370,-.5 341,-.5"/>
<text text-anchor="middle" x="355.5" y="-7.5" font-family="FreeSans" font-size="10.00" fill="#000000">P</text>
</a>
</g>
</g>
<!-- Node5&#45;&gt;Node8 -->
<g id="edge8" class="edge">
<title>Node5&#45;&gt;Node8</title>
<path fill="none" stroke="#191970" d="M255.9895,-58.3972C277.1351,-48.2192 309.7083,-32.5408 331.7781,-21.918"/>
<polygon fill="#191970" stroke="#191970" points="333.3221,-25.0592 340.8147,-17.5684 330.2862,-18.7518 333.3221,-25.0592"/>
</g>
<!-- Node7&#45;&gt;Node6 -->
<g id="edge7" class="edge">
<title>Node7&#45;&gt;Node6</title>
<path fill="none" stroke="#191970" d="M396.1691,-55.0711C404.2613,-56.1796 413.0176,-57.3791 421.9054,-58.5966"/>
<polygon fill="#191970" stroke="#191970" points="421.585,-62.0853 431.9675,-59.975 422.5351,-55.1501 421.585,-62.0853"/>
</g>
</g>
</svg>
