<?xml version="1.0" encoding="UTF-8" standalone="no"?>
<!DOCTYPE svg PUBLIC "-//W3C//DTD SVG 1.1//EN"
 "http://www.w3.org/Graphics/SVG/1.1/DTD/svg11.dtd">
<!-- Generated by graphviz version 2.40.1 (20161225.0304)
 -->
<!-- Title: Acts::JsonGeometryConverter::jsonToVolumeMaterial Pages: 1 -->
<svg width="735pt" height="466pt"
 viewBox="0.00 0.00 735.00 466.00" xmlns="http://www.w3.org/2000/svg" xmlns:xlink="http://www.w3.org/1999/xlink">
<g id="graph0" class="graph" transform="scale(1 1) rotate(0) translate(4 462)">
<title>Acts::JsonGeometryConverter::jsonToVolumeMaterial</title>
<!-- Node1 -->
<g id="node1" class="node">
<title>Node1</title>
<polygon fill="#bfbfbf" stroke="#000000" points="0,-217.5 0,-249.5 167,-249.5 167,-217.5 0,-217.5"/>
<text text-anchor="start" x="8" y="-236.5" font-family="FreeSans" font-size="10.00" fill="#000000">Acts::JsonGeometryConverter</text>
<text text-anchor="middle" x="83.5" y="-224.5" font-family="FreeSans" font-size="10.00" fill="#000000">::jsonToVolumeMaterial</text>
</g>
<!-- Node2 -->
<g id="node2" class="node">
<title>Node2</title>
<g id="a_node2"><a xlink:href="../../d0/df4/exceptionActs_1_1detail_1_1Grid.html#af1740f025f852ded59760beee4f0d33d" target="_top" xlink:title="access value stored in bin with given global bin number">
<polygon fill="none" stroke="#000000" points="221,-437.5 221,-457.5 340,-457.5 340,-437.5 221,-437.5"/>
<text text-anchor="middle" x="280.5" y="-444.5" font-family="FreeSans" font-size="10.00" fill="#000000">Acts::detail::Grid::at</text>
</a>
</g>
</g>
<!-- Node1&#45;&gt;Node2 -->
<g id="edge1" class="edge">
<title>Node1&#45;&gt;Node2</title>
<path fill="none" stroke="#191970" d="M89.2409,-249.573C103.026,-285.8868 141.4866,-374.8072 203,-422.5 208.761,-426.9666 215.3453,-430.6482 222.1876,-433.6797"/>
<polygon fill="#191970" stroke="#191970" points="221.0388,-436.9892 231.6248,-437.4233 223.62,-430.4825 221.0388,-436.9892"/>
</g>
<!-- Node3 -->
<g id="node3" class="node">
<title>Node3</title>
<g id="a_node3"><a xlink:href="../../da/d7b/namespaceActs.html#aef098a24b9d34b18945d9788d1d764ec" target="_top" xlink:title="Create a 2DGrid using a BinUtility. Also determine the coresponding global to local transform and gri...">
<polygon fill="none" stroke="#000000" points="224,-243.5 224,-263.5 337,-263.5 337,-243.5 224,-243.5"/>
<text text-anchor="middle" x="280.5" y="-250.5" font-family="FreeSans" font-size="10.00" fill="#000000">Acts::createGrid2D</text>
</a>
</g>
</g>
<!-- Node1&#45;&gt;Node3 -->
<g id="edge2" class="edge">
<title>Node1&#45;&gt;Node3</title>
<path fill="none" stroke="#191970" d="M167.0457,-241.9818C182.6383,-243.5648 198.7427,-245.1998 213.7467,-246.723"/>
<polygon fill="#191970" stroke="#191970" points="213.636,-250.2297 223.9384,-247.7577 214.3431,-243.2655 213.636,-250.2297"/>
</g>
<!-- Node6 -->
<g id="node6" class="node">
<title>Node6</title>
<g id="a_node6"><a xlink:href="../../d2/db7/namespacestd_1_1tr1.html#af7e12a0f5b5791b5b7c49a5a17b85359" target="_top" xlink:title="std::tr1::make_tuple">
<polygon fill="none" stroke="#000000" points="599,-378.5 599,-398.5 717,-398.5 717,-378.5 599,-378.5"/>
<text text-anchor="middle" x="658" y="-385.5" font-family="FreeSans" font-size="10.00" fill="#000000">std::tr1::make_tuple</text>
</a>
</g>
</g>
<!-- Node1&#45;&gt;Node6 -->
<g id="edge20" class="edge">
<title>Node1&#45;&gt;Node6</title>
<path fill="none" stroke="#191970" d="M94.4349,-249.9146C113.1385,-276.4611 154.0341,-328.1903 203,-351.5 328.7046,-411.3402 496.1348,-406.4786 588.8381,-397.5345"/>
<polygon fill="#191970" stroke="#191970" points="589.3446,-401.0012 598.9426,-396.5146 588.6416,-394.0366 589.3446,-401.0012"/>
</g>
<!-- Node7 -->
<g id="node7" class="node">
<title>Node7</title>
<g id="a_node7"><a xlink:href="../../d0/da7/namespacetesting_1_1internal.html#a0f6d06bf8c3093b9c22bb08723db201e" target="_top" xlink:title="testing::internal::move">
<polygon fill="none" stroke="#000000" points="592,-301.5 592,-321.5 724,-321.5 724,-301.5 592,-301.5"/>
<text text-anchor="middle" x="658" y="-308.5" font-family="FreeSans" font-size="10.00" fill="#000000">testing::internal::move</text>
</a>
</g>
</g>
<!-- Node1&#45;&gt;Node7 -->
<g id="edge23" class="edge">
<title>Node1&#45;&gt;Node7</title>
<path fill="none" stroke="#191970" d="M102.8745,-249.7417C125.467,-267.828 164.6295,-296.603 203,-312.5 347.5995,-372.4079 399.0665,-379.8277 553,-351.5 579.6649,-346.593 608.3262,-335.2236 628.9562,-325.8554"/>
<polygon fill="#191970" stroke="#191970" points="630.5275,-328.9847 638.1136,-321.5887 627.571,-322.6396 630.5275,-328.9847"/>
</g>
<!-- Node12 -->
<g id="node12" class="node">
<title>Node12</title>
<g id="a_node12"><a xlink:href="../../da/d7b/namespaceActs.html#a7c2b92b532e1f70dab5172ca8b40d7ae" target="_top" xlink:title="Create a 3DGrid using a BinUtility. Also determine the coresponding global to local transform and gri...">
<polygon fill="none" stroke="#000000" points="224,-282.5 224,-302.5 337,-302.5 337,-282.5 224,-282.5"/>
<text text-anchor="middle" x="280.5" y="-289.5" font-family="FreeSans" font-size="10.00" fill="#000000">Acts::createGrid3D</text>
</a>
</g>
</g>
<!-- Node1&#45;&gt;Node12 -->
<g id="edge12" class="edge">
<title>Node1&#45;&gt;Node12</title>
<path fill="none" stroke="#191970" d="M128.6194,-249.5824C150.8749,-257.2639 178.2017,-266.3231 203,-273.5 210.7577,-275.7451 219.0011,-277.953 227.1068,-280.0242"/>
<polygon fill="#191970" stroke="#191970" points="226.3327,-283.4384 236.8837,-282.4761 228.0355,-276.6487 226.3327,-283.4384"/>
</g>
<!-- Node13 -->
<g id="node13" class="node">
<title>Node13</title>
<g id="a_node13"><a xlink:href="../../d5/dcc/classActs_1_1BinUtility.html#a62f8782c5f0d57957dd9192f9e86791a" target="_top" xlink:title="Acts::BinUtility::dimensions">
<polygon fill="none" stroke="#000000" points="203,-204.5 203,-224.5 358,-224.5 358,-204.5 203,-204.5"/>
<text text-anchor="middle" x="280.5" y="-211.5" font-family="FreeSans" font-size="10.00" fill="#000000">Acts::BinUtility::dimensions</text>
</a>
</g>
</g>
<!-- Node1&#45;&gt;Node13 -->
<g id="edge18" class="edge">
<title>Node1&#45;&gt;Node13</title>
<path fill="none" stroke="#191970" d="M167.0457,-225.4423C175.563,-224.6208 184.2329,-223.7846 192.7929,-222.9591"/>
<polygon fill="#191970" stroke="#191970" points="193.1574,-226.4402 202.7752,-221.9963 192.4853,-219.4726 193.1574,-226.4402"/>
</g>
<!-- Node14 -->
<g id="node14" class="node">
<title>Node14</title>
<g id="a_node14"><a xlink:href="../../d9/dcc/classnlohmann_1_1basic__json.html#a5961446010dfc494e0c247b4e9026977" target="_top" xlink:title="helper to access iterator member functions in range&#45;based for">
<polygon fill="none" stroke="#000000" points="217.5,-153.5 217.5,-185.5 343.5,-185.5 343.5,-153.5 217.5,-153.5"/>
<text text-anchor="start" x="225.5" y="-172.5" font-family="FreeSans" font-size="10.00" fill="#000000">nlohmann::basic_json</text>
<text text-anchor="middle" x="280.5" y="-160.5" font-family="FreeSans" font-size="10.00" fill="#000000">::items</text>
</a>
</g>
</g>
<!-- Node1&#45;&gt;Node14 -->
<g id="edge19" class="edge">
<title>Node1&#45;&gt;Node14</title>
<path fill="none" stroke="#191970" d="M132.6165,-217.4285C154.2019,-210.3763 179.8547,-202.0099 203,-194.5 208.6857,-192.6552 214.6074,-190.7377 220.532,-188.8221"/>
<polygon fill="#191970" stroke="#191970" points="222.0247,-192.018 230.4642,-185.6129 219.8725,-185.3571 222.0247,-192.018"/>
</g>
<!-- Node15 -->
<g id="node15" class="node">
<title>Node15</title>
<g id="a_node15"><a xlink:href="../../d0/df4/exceptionActs_1_1detail_1_1Grid.html#afc2dfe706ae17c88069626c48e8992ed" target="_top" xlink:title="get the maximum value of all axes of one grid">
<polygon fill="none" stroke="#000000" points="230,-102.5 230,-134.5 331,-134.5 331,-102.5 230,-102.5"/>
<text text-anchor="start" x="238" y="-121.5" font-family="FreeSans" font-size="10.00" fill="#000000">Acts::detail::Grid</text>
<text text-anchor="middle" x="280.5" y="-109.5" font-family="FreeSans" font-size="10.00" fill="#000000">::maxPosition</text>
</a>
</g>
</g>
<!-- Node1&#45;&gt;Node15 -->
<g id="edge21" class="edge">
<title>Node1&#45;&gt;Node15</title>
<path fill="none" stroke="#191970" d="M100.8482,-217.4366C123.0359,-197.6332 163.3506,-164.0802 203,-143.5 208.5172,-140.6363 214.4254,-138.0188 220.4275,-135.6474"/>
<polygon fill="#191970" stroke="#191970" points="221.7432,-138.8923 229.894,-132.1236 219.3012,-132.3321 221.7432,-138.8923"/>
</g>
<!-- Node16 -->
<g id="node16" class="node">
<title>Node16</title>
<g id="a_node16"><a xlink:href="../../d0/df4/exceptionActs_1_1detail_1_1Grid.html#adc9aa0386bff96e4f1615957fe29bd4c" target="_top" xlink:title="get the minimum value of all axes of one grid">
<polygon fill="none" stroke="#000000" points="230,-51.5 230,-83.5 331,-83.5 331,-51.5 230,-51.5"/>
<text text-anchor="start" x="238" y="-70.5" font-family="FreeSans" font-size="10.00" fill="#000000">Acts::detail::Grid</text>
<text text-anchor="middle" x="280.5" y="-58.5" font-family="FreeSans" font-size="10.00" fill="#000000">::minPosition</text>
</a>
</g>
</g>
<!-- Node1&#45;&gt;Node16 -->
<g id="edge22" class="edge">
<title>Node1&#45;&gt;Node16</title>
<path fill="none" stroke="#191970" d="M92.8495,-217.4397C110.6164,-188.3013 152.0694,-126.593 203,-92.5 208.3198,-88.9389 214.1824,-85.8555 220.2292,-83.192"/>
<polygon fill="#191970" stroke="#191970" points="221.8511,-86.3127 229.8317,-79.3442 219.2473,-79.815 221.8511,-86.3127"/>
</g>
<!-- Node17 -->
<g id="node17" class="node">
<title>Node17</title>
<g id="a_node17"><a xlink:href="../../d0/df4/exceptionActs_1_1detail_1_1Grid.html#a53e780b2130802fb3140d7e1af78ec52" target="_top" xlink:title="get number of bins along each specific axis">
<polygon fill="none" stroke="#000000" points="230,-.5 230,-32.5 331,-32.5 331,-.5 230,-.5"/>
<text text-anchor="start" x="238" y="-19.5" font-family="FreeSans" font-size="10.00" fill="#000000">Acts::detail::Grid</text>
<text text-anchor="middle" x="280.5" y="-7.5" font-family="FreeSans" font-size="10.00" fill="#000000">::numLocalBins</text>
</a>
</g>
</g>
<!-- Node1&#45;&gt;Node17 -->
<g id="edge24" class="edge">
<title>Node1&#45;&gt;Node17</title>
<path fill="none" stroke="#191970" d="M89.065,-217.4476C102.607,-180.7347 140.8042,-90.0759 203,-41.5 208.3151,-37.3488 214.3404,-33.8767 220.6266,-30.9746"/>
<polygon fill="#191970" stroke="#191970" points="222.0627,-34.1683 229.971,-27.1179 219.3921,-27.6977 222.0627,-34.1683"/>
</g>
<!-- Node4 -->
<g id="node4" class="node">
<title>Node4</title>
<g id="a_node4"><a xlink:href="../../d5/dcc/classActs_1_1BinUtility.html#a32c9c639c2752e8620a9fa6c11e3d51b" target="_top" xlink:title="return the binning data vector">
<polygon fill="none" stroke="#000000" points="394,-243.5 394,-263.5 553,-263.5 553,-243.5 394,-243.5"/>
<text text-anchor="middle" x="473.5" y="-250.5" font-family="FreeSans" font-size="10.00" fill="#000000">Acts::BinUtility::binningData</text>
</a>
</g>
</g>
<!-- Node3&#45;&gt;Node4 -->
<g id="edge3" class="edge">
<title>Node3&#45;&gt;Node4</title>
<path fill="none" stroke="#191970" d="M337.1023,-253.5C351.701,-253.5 367.7782,-253.5 383.6167,-253.5"/>
<polygon fill="#191970" stroke="#191970" points="383.9724,-257.0001 393.9724,-253.5 383.9723,-250.0001 383.9724,-257.0001"/>
</g>
<!-- Node5 -->
<g id="node5" class="node">
<title>Node5</title>
<g id="a_node5"><a xlink:href="../../da/d7b/namespaceActs.html#ab723a0e159bdcce20e0ed2b982f13e50" target="_top" xlink:title="Helper method that creates the cache grid for the mapping. This grid allows the collection of materia...">
<polygon fill="none" stroke="#000000" points="424.5,-321.5 424.5,-341.5 522.5,-341.5 522.5,-321.5 424.5,-321.5"/>
<text text-anchor="middle" x="473.5" y="-328.5" font-family="FreeSans" font-size="10.00" fill="#000000">Acts::createGrid</text>
</a>
</g>
</g>
<!-- Node3&#45;&gt;Node5 -->
<g id="edge4" class="edge">
<title>Node3&#45;&gt;Node5</title>
<path fill="none" stroke="#191970" d="M326.0821,-263.5388C336.6936,-266.3483 347.8522,-269.6923 358,-273.5 389.9431,-285.4858 424.6865,-303.6946 447.6351,-316.5059"/>
<polygon fill="#191970" stroke="#191970" points="445.9824,-319.5921 456.4107,-321.4634 449.4255,-313.4974 445.9824,-319.5921"/>
</g>
<!-- Node3&#45;&gt;Node7 -->
<g id="edge10" class="edge">
<title>Node3&#45;&gt;Node7</title>
<path fill="none" stroke="#191970" d="M337.1192,-243.854C344.421,-241.407 351.5806,-238.341 358,-234.5 378.5241,-222.2195 372.1513,-204.2306 394,-194.5 458.554,-165.7501 488.4664,-165.7043 553,-194.5 598.0621,-214.6073 631.8461,-264.6698 647.8064,-292.3476"/>
<polygon fill="#191970" stroke="#191970" points="644.9442,-294.4018 652.8679,-301.4349 651.0596,-290.9956 644.9442,-294.4018"/>
</g>
<!-- Node8 -->
<g id="node8" class="node">
<title>Node8</title>
<g id="a_node8"><a xlink:href="../../da/d7b/namespaceActs.html#ac3e47e36f8916515933b97777bbb8fb7" target="_top" xlink:title="return a function that return the coordinate corresponding to type of bin">
<polygon fill="none" stroke="#000000" points="396.5,-126.5 396.5,-146.5 550.5,-146.5 550.5,-126.5 396.5,-126.5"/>
<text text-anchor="middle" x="473.5" y="-133.5" font-family="FreeSans" font-size="10.00" fill="#000000">Acts::globalToLocalFromBin</text>
</a>
</g>
</g>
<!-- Node3&#45;&gt;Node8 -->
<g id="edge7" class="edge">
<title>Node3&#45;&gt;Node8</title>
<path fill="none" stroke="#191970" d="M337.0229,-245.8686C344.5854,-243.1281 351.8428,-239.4439 358,-234.5 386.2075,-211.851 366.5345,-185.0434 394,-161.5 399.0926,-157.1347 404.9478,-153.5305 411.1225,-150.5551"/>
<polygon fill="#191970" stroke="#191970" points="412.5151,-153.7662 420.3461,-146.63 409.7741,-147.3252 412.5151,-153.7662"/>
</g>
<!-- Node11 -->
<g id="node11" class="node">
<title>Node11</title>
<g id="a_node11"><a xlink:href="../../d5/dcc/classActs_1_1BinUtility.html#aeae662a751aecfedb6692a812d86ab96" target="_top" xlink:title="Acts::BinUtility::transform">
<polygon fill="none" stroke="#000000" points="400,-204.5 400,-224.5 547,-224.5 547,-204.5 400,-204.5"/>
<text text-anchor="middle" x="473.5" y="-211.5" font-family="FreeSans" font-size="10.00" fill="#000000">Acts::BinUtility::transform</text>
</a>
</g>
</g>
<!-- Node3&#45;&gt;Node11 -->
<g id="edge11" class="edge">
<title>Node3&#45;&gt;Node11</title>
<path fill="none" stroke="#191970" d="M330.2023,-243.4565C355.7537,-238.2933 387.0807,-231.963 413.9206,-226.5394"/>
<polygon fill="#191970" stroke="#191970" points="414.8575,-229.9209 423.9661,-224.5094 413.471,-223.0595 414.8575,-229.9209"/>
</g>
<!-- Node5&#45;&gt;Node6 -->
<g id="edge5" class="edge">
<title>Node5&#45;&gt;Node6</title>
<path fill="none" stroke="#191970" d="M506.0602,-341.5592C536.5294,-350.9725 582.2233,-365.0893 615.5428,-375.3831"/>
<polygon fill="#191970" stroke="#191970" points="614.868,-378.8378 625.4555,-378.4456 616.9342,-372.1497 614.868,-378.8378"/>
</g>
<!-- Node5&#45;&gt;Node7 -->
<g id="edge6" class="edge">
<title>Node5&#45;&gt;Node7</title>
<path fill="none" stroke="#191970" d="M522.9426,-326.1404C541.0226,-324.1805 561.9214,-321.915 581.7952,-319.7607"/>
<polygon fill="#191970" stroke="#191970" points="582.1973,-323.2377 591.7618,-318.6803 581.4429,-316.2785 582.1973,-323.2377"/>
</g>
<!-- Node9 -->
<g id="node9" class="node">
<title>Node9</title>
<g id="a_node9"><a xlink:href="../../df/da1/namespaceActs_1_1VectorHelpers.html#a9d0d7e35444d5f4a0ae7accb0a2c70db" target="_top" xlink:title="Acts::VectorHelpers\l::perp">
<polygon fill="none" stroke="#000000" points="600,-143.5 600,-175.5 716,-175.5 716,-143.5 600,-143.5"/>
<text text-anchor="start" x="608" y="-162.5" font-family="FreeSans" font-size="10.00" fill="#000000">Acts::VectorHelpers</text>
<text text-anchor="middle" x="658" y="-150.5" font-family="FreeSans" font-size="10.00" fill="#000000">::perp</text>
</a>
</g>
</g>
<!-- Node8&#45;&gt;Node9 -->
<g id="edge8" class="edge">
<title>Node8&#45;&gt;Node9</title>
<path fill="none" stroke="#191970" d="M550.6756,-146.1208C563.6876,-147.7429 577.111,-149.4163 589.872,-151.0071"/>
<polygon fill="#191970" stroke="#191970" points="589.5873,-154.4986 599.9435,-152.2626 590.4533,-147.5524 589.5873,-154.4986"/>
</g>
<!-- Node10 -->
<g id="node10" class="node">
<title>Node10</title>
<g id="a_node10"><a xlink:href="../../df/da1/namespaceActs_1_1VectorHelpers.html#a397d5e8143b34171258deef4f9cca9ad" target="_top" xlink:title="Acts::VectorHelpers::phi">
<polygon fill="none" stroke="#000000" points="589,-104.5 589,-124.5 727,-124.5 727,-104.5 589,-104.5"/>
<text text-anchor="middle" x="658" y="-111.5" font-family="FreeSans" font-size="10.00" fill="#000000">Acts::VectorHelpers::phi</text>
</a>
</g>
</g>
<!-- Node8&#45;&gt;Node10 -->
<g id="edge9" class="edge">
<title>Node8&#45;&gt;Node10</title>
<path fill="none" stroke="#191970" d="M550.6756,-127.2975C559.9577,-126.1907 569.4491,-125.0589 578.76,-123.9487"/>
<polygon fill="#191970" stroke="#191970" points="579.2589,-127.4141 588.7741,-122.7546 578.43,-120.4633 579.2589,-127.4141"/>
</g>
<!-- Node12&#45;&gt;Node4 -->
<g id="edge13" class="edge">
<title>Node12&#45;&gt;Node4</title>
<path fill="none" stroke="#191970" d="M330.2023,-282.4565C355.7537,-277.2933 387.0807,-270.963 413.9206,-265.5394"/>
<polygon fill="#191970" stroke="#191970" points="414.8575,-268.9209 423.9661,-263.5094 413.471,-262.0595 414.8575,-268.9209"/>
</g>
<!-- Node12&#45;&gt;Node5 -->
<g id="edge14" class="edge">
<title>Node12&#45;&gt;Node5</title>
<path fill="none" stroke="#191970" d="M330.2023,-302.5435C355.8527,-307.7267 387.3236,-314.0861 414.2325,-319.5237"/>
<polygon fill="#191970" stroke="#191970" points="413.8054,-323.008 424.3005,-321.5581 415.1919,-316.1467 413.8054,-323.008"/>
</g>
<!-- Node12&#45;&gt;Node7 -->
<g id="edge16" class="edge">
<title>Node12&#45;&gt;Node7</title>
<path fill="none" stroke="#191970" d="M337.0156,-295.3445C402.0035,-298.6154 509.0211,-304.0017 581.4454,-307.6469"/>
<polygon fill="#191970" stroke="#191970" points="581.7075,-311.1645 591.8708,-308.1716 582.0594,-304.1733 581.7075,-311.1645"/>
</g>
<!-- Node12&#45;&gt;Node8 -->
<g id="edge15" class="edge">
<title>Node12&#45;&gt;Node8</title>
<path fill="none" stroke="#191970" d="M337.1612,-285.0381C344.704,-282.2735 351.9191,-278.5374 358,-273.5 387.7137,-248.8853 369.617,-224.4042 394,-194.5 408.2108,-177.0713 428.825,-162.232 445.5011,-151.9268"/>
<polygon fill="#191970" stroke="#191970" points="447.5002,-154.8097 454.2948,-146.6805 443.9138,-148.7983 447.5002,-154.8097"/>
</g>
<!-- Node12&#45;&gt;Node11 -->
<g id="edge17" class="edge">
<title>Node12&#45;&gt;Node11</title>
<path fill="none" stroke="#191970" d="M337.0742,-282.7783C344.383,-280.343 351.5565,-277.3005 358,-273.5 378.3182,-261.516 373.7181,-246.5453 394,-234.5 398.0687,-232.0836 402.4217,-229.9575 406.9164,-228.0871"/>
<polygon fill="#191970" stroke="#191970" points="408.145,-231.3644 416.2958,-224.5957 405.703,-224.8042 408.145,-231.3644"/>
</g>
</g>
</svg>
