<?xml version="1.0" encoding="UTF-8" standalone="no"?>
<!DOCTYPE svg PUBLIC "-//W3C//DTD SVG 1.1//EN"
 "http://www.w3.org/Graphics/SVG/1.1/DTD/svg11.dtd">
<!-- Generated by graphviz version 2.40.1 (20161225.0304)
 -->
<!-- Title: tinyxml2::XMLDocument::LoadFile Pages: 1 -->
<svg width="1151pt" height="409pt"
 viewBox="0.00 0.00 1151.00 409.00" xmlns="http://www.w3.org/2000/svg" xmlns:xlink="http://www.w3.org/1999/xlink">
<g id="graph0" class="graph" transform="scale(1 1) rotate(0) translate(4 405)">
<title>tinyxml2::XMLDocument::LoadFile</title>
<!-- Node1 -->
<g id="node1" class="node">
<title>Node1</title>
<polygon fill="#bfbfbf" stroke="#000000" points="0,-178.5 0,-210.5 141,-210.5 141,-178.5 0,-178.5"/>
<text text-anchor="start" x="8" y="-197.5" font-family="FreeSans" font-size="10.00" fill="#000000">tinyxml2::XMLDocument</text>
<text text-anchor="middle" x="70.5" y="-185.5" font-family="FreeSans" font-size="10.00" fill="#000000">::LoadFile</text>
</g>
<!-- Node2 -->
<g id="node2" class="node">
<title>Node2</title>
<g id="a_node2"><a xlink:href="../../da/dce/namespacetinyxml2.html#a3634a81ca725ead6204f08cbaa5ad58f" target="_top" xlink:title="tinyxml2::callfopen">
<polygon fill="none" stroke="#000000" points="191,-328.5 191,-348.5 304,-348.5 304,-328.5 191,-328.5"/>
<text text-anchor="middle" x="247.5" y="-335.5" font-family="FreeSans" font-size="10.00" fill="#000000">tinyxml2::callfopen</text>
</a>
</g>
</g>
<!-- Node1&#45;&gt;Node2 -->
<g id="edge1" class="edge">
<title>Node1&#45;&gt;Node2</title>
<path fill="none" stroke="#191970" d="M90.4601,-210.7387C124.2989,-238.2686 192.5843,-293.8228 226.8711,-321.7172"/>
<polygon fill="#191970" stroke="#191970" points="224.8479,-324.5832 234.8139,-328.1791 229.2656,-319.1532 224.8479,-324.5832"/>
</g>
<!-- Node4 -->
<g id="node4" class="node">
<title>Node4</title>
<g id="a_node4"><a xlink:href="../../d3/d63/classtinyxml2_1_1XMLDocument.html#a65656b0b2cbc822708eb351504178aaf" target="_top" xlink:title="Clear the document, resetting it to the initial state.">
<polygon fill="none" stroke="#000000" points="177,-201.5 177,-233.5 318,-233.5 318,-201.5 177,-201.5"/>
<text text-anchor="start" x="185" y="-220.5" font-family="FreeSans" font-size="10.00" fill="#000000">tinyxml2::XMLDocument</text>
<text text-anchor="middle" x="247.5" y="-208.5" font-family="FreeSans" font-size="10.00" fill="#000000">::Clear</text>
</a>
</g>
</g>
<!-- Node1&#45;&gt;Node4 -->
<g id="edge3" class="edge">
<title>Node1&#45;&gt;Node4</title>
<path fill="none" stroke="#191970" d="M141.2182,-203.6894C149.6618,-204.7866 158.3306,-205.913 166.8998,-207.0265"/>
<polygon fill="#191970" stroke="#191970" points="166.5265,-210.5074 176.8942,-208.3252 167.4286,-203.5657 166.5265,-210.5074"/>
</g>
<!-- Node16 -->
<g id="node16" class="node">
<title>Node16</title>
<g id="a_node16"><a xlink:href="../../da/de5/ThicknessScan_8m.html#a5f84f51058cdb4f43c29d2c875659f42" target="_top" xlink:title="fclose">
<polygon fill="none" stroke="#000000" points="224.5,-162.5 224.5,-182.5 270.5,-182.5 270.5,-162.5 224.5,-162.5"/>
<text text-anchor="middle" x="247.5" y="-169.5" font-family="FreeSans" font-size="10.00" fill="#000000">fclose</text>
</a>
</g>
</g>
<!-- Node1&#45;&gt;Node16 -->
<g id="edge17" class="edge">
<title>Node1&#45;&gt;Node16</title>
<path fill="none" stroke="#191970" d="M141.2182,-185.7102C166.4737,-182.5711 193.7444,-179.1815 214.338,-176.6218"/>
<polygon fill="#191970" stroke="#191970" points="214.9607,-180.0715 224.4526,-175.3647 214.0972,-173.1249 214.9607,-180.0715"/>
</g>
<!-- Node17 -->
<g id="node17" class="node">
<title>Node17</title>
<g id="a_node17"><a xlink:href="../../d3/d63/classtinyxml2_1_1XMLDocument.html#ae38d194e47336e4c96677ac77e2ac5d4" target="_top" xlink:title="tinyxml2::XMLDocument\l::SetError">
<polygon fill="none" stroke="#000000" points="177,-23.5 177,-55.5 318,-55.5 318,-23.5 177,-23.5"/>
<text text-anchor="start" x="185" y="-42.5" font-family="FreeSans" font-size="10.00" fill="#000000">tinyxml2::XMLDocument</text>
<text text-anchor="middle" x="247.5" y="-30.5" font-family="FreeSans" font-size="10.00" fill="#000000">::SetError</text>
</a>
</g>
</g>
<!-- Node1&#45;&gt;Node17 -->
<g id="edge18" class="edge">
<title>Node1&#45;&gt;Node17</title>
<path fill="none" stroke="#191970" d="M88.7754,-178.4961C120.308,-150.8828 185.036,-94.2001 221.3369,-62.4112"/>
<polygon fill="#191970" stroke="#191970" points="223.8415,-64.8703 229.0588,-55.6491 219.2298,-59.6041 223.8415,-64.8703"/>
</g>
<!-- Node3 -->
<g id="node3" class="node">
<title>Node3</title>
<g id="a_node3"><a xlink:href="../../d7/dc7/namespacecheck__license.html#a5d6111870e0d2f540b9458f3674194ff" target="_top" xlink:title="check_license.err">
<polygon fill="none" stroke="#000000" points="372.5,-380.5 372.5,-400.5 476.5,-400.5 476.5,-380.5 372.5,-380.5"/>
<text text-anchor="middle" x="424.5" y="-387.5" font-family="FreeSans" font-size="10.00" fill="#000000">check_license.err</text>
</a>
</g>
</g>
<!-- Node2&#45;&gt;Node3 -->
<g id="edge2" class="edge">
<title>Node2&#45;&gt;Node3</title>
<path fill="none" stroke="#191970" d="M279.096,-348.6284C300.2368,-355.3219 328.7135,-364.1777 354,-371.5 361.1962,-373.5838 368.8273,-375.7182 376.3089,-377.7686"/>
<polygon fill="#191970" stroke="#191970" points="375.4411,-381.1597 386.009,-380.4046 377.2768,-374.4046 375.4411,-381.1597"/>
</g>
<!-- Node5 -->
<g id="node5" class="node">
<title>Node5</title>
<g id="a_node5"><a xlink:href="../../d3/d63/classtinyxml2_1_1XMLDocument.html#a4085d9c52f1d93214311459d6d1fcf17" target="_top" xlink:title="tinyxml2::XMLDocument\l::ClearError">
<polygon fill="none" stroke="#000000" points="354,-176.5 354,-208.5 495,-208.5 495,-176.5 354,-176.5"/>
<text text-anchor="start" x="362" y="-195.5" font-family="FreeSans" font-size="10.00" fill="#000000">tinyxml2::XMLDocument</text>
<text text-anchor="middle" x="424.5" y="-183.5" font-family="FreeSans" font-size="10.00" fill="#000000">::ClearError</text>
</a>
</g>
</g>
<!-- Node4&#45;&gt;Node5 -->
<g id="edge4" class="edge">
<title>Node4&#45;&gt;Node5</title>
<path fill="none" stroke="#191970" d="M318.2182,-207.5116C326.6618,-206.319 335.3306,-205.0946 343.8998,-203.8842"/>
<polygon fill="#191970" stroke="#191970" points="344.482,-207.3368 353.8942,-202.4726 343.5029,-200.4056 344.482,-207.3368"/>
</g>
<!-- Node6 -->
<g id="node6" class="node">
<title>Node6</title>
<g id="a_node6"><a xlink:href="../../d1/d5d/classtinyxml2_1_1MemPoolT.html#a0573a38b5ca8c0578237bb27ff1a2149" target="_top" xlink:title="tinyxml2::MemPoolT\l::CurrentAllocs">
<polygon fill="none" stroke="#000000" points="364.5,-125.5 364.5,-157.5 484.5,-157.5 484.5,-125.5 364.5,-125.5"/>
<text text-anchor="start" x="372.5" y="-144.5" font-family="FreeSans" font-size="10.00" fill="#000000">tinyxml2::MemPoolT</text>
<text text-anchor="middle" x="424.5" y="-132.5" font-family="FreeSans" font-size="10.00" fill="#000000">::CurrentAllocs</text>
</a>
</g>
</g>
<!-- Node4&#45;&gt;Node6 -->
<g id="edge5" class="edge">
<title>Node4&#45;&gt;Node6</title>
<path fill="none" stroke="#191970" d="M297.8821,-201.494C304.7659,-198.7723 311.6446,-195.7594 318,-192.5 335.3331,-183.6106 336.723,-176.4979 354,-167.5 358.0134,-165.4098 362.2336,-163.4086 366.5308,-161.5108"/>
<polygon fill="#191970" stroke="#191970" points="368.1479,-164.6278 376.0108,-157.5268 365.4358,-158.1745 368.1479,-164.6278"/>
</g>
<!-- Node7 -->
<g id="node7" class="node">
<title>Node7</title>
<g id="a_node7"><a xlink:href="../../d6/de3/classtinyxml2_1_1XMLNode.html#a0360085cc54df5bff85d5c5da13afdce" target="_top" xlink:title="tinyxml2::XMLNode::\lDeleteChildren">
<polygon fill="none" stroke="#000000" points="364,-74.5 364,-106.5 485,-106.5 485,-74.5 364,-74.5"/>
<text text-anchor="start" x="372" y="-93.5" font-family="FreeSans" font-size="10.00" fill="#000000">tinyxml2::XMLNode::</text>
<text text-anchor="middle" x="424.5" y="-81.5" font-family="FreeSans" font-size="10.00" fill="#000000">DeleteChildren</text>
</a>
</g>
</g>
<!-- Node4&#45;&gt;Node7 -->
<g id="edge6" class="edge">
<title>Node4&#45;&gt;Node7</title>
<path fill="none" stroke="#191970" d="M305.4882,-201.3816C309.992,-198.8355 314.2415,-195.8948 318,-192.5 345.7364,-167.4475 326.4212,-141.726 354,-116.5 355.6815,-114.9619 357.4619,-113.5127 359.3196,-112.1473"/>
<polygon fill="#191970" stroke="#191970" points="361.3428,-115.0084 367.8953,-106.6828 357.581,-109.105 361.3428,-115.0084"/>
</g>
<!-- Node13 -->
<g id="node13" class="node">
<title>Node13</title>
<g id="a_node13"><a xlink:href="../../d3/d63/classtinyxml2_1_1XMLDocument.html#abf0f9ac4c3aa5698a785937f71f7a69f" target="_top" xlink:title="Return true if there was an error parsing the document.">
<polygon fill="none" stroke="#000000" points="354,-329.5 354,-361.5 495,-361.5 495,-329.5 354,-329.5"/>
<text text-anchor="start" x="362" y="-348.5" font-family="FreeSans" font-size="10.00" fill="#000000">tinyxml2::XMLDocument</text>
<text text-anchor="middle" x="424.5" y="-336.5" font-family="FreeSans" font-size="10.00" fill="#000000">::Error</text>
</a>
</g>
</g>
<!-- Node4&#45;&gt;Node13 -->
<g id="edge14" class="edge">
<title>Node4&#45;&gt;Node13</title>
<path fill="none" stroke="#191970" d="M260.2966,-233.6427C278.795,-256.008 315.0806,-296.384 354,-320.5 356.62,-322.1235 359.3602,-323.6608 362.1758,-325.114"/>
<polygon fill="#191970" stroke="#191970" points="360.8341,-328.3513 371.3696,-329.4713 363.8321,-322.0257 360.8341,-328.3513"/>
</g>
<!-- Node14 -->
<g id="node14" class="node">
<title>Node14</title>
<g id="a_node14"><a xlink:href="../../d1/d5d/classtinyxml2_1_1MemPoolT.html#a47eefbd934ef70d973ea41d41ab5f239" target="_top" xlink:title="tinyxml2::MemPoolT\l::Trace">
<polygon fill="none" stroke="#000000" points="364.5,-278.5 364.5,-310.5 484.5,-310.5 484.5,-278.5 364.5,-278.5"/>
<text text-anchor="start" x="372.5" y="-297.5" font-family="FreeSans" font-size="10.00" fill="#000000">tinyxml2::MemPoolT</text>
<text text-anchor="middle" x="424.5" y="-285.5" font-family="FreeSans" font-size="10.00" fill="#000000">::Trace</text>
</a>
</g>
</g>
<!-- Node4&#45;&gt;Node14 -->
<g id="edge15" class="edge">
<title>Node4&#45;&gt;Node14</title>
<path fill="none" stroke="#191970" d="M278.2946,-233.6886C299.3356,-244.4627 328.0089,-258.5878 354,-269.5 358.3368,-271.3208 362.8576,-273.1267 367.4235,-274.8857"/>
<polygon fill="#191970" stroke="#191970" points="366.2227,-278.1734 376.8147,-278.4197 368.6882,-271.6219 366.2227,-278.1734"/>
</g>
<!-- Node15 -->
<g id="node15" class="node">
<title>Node15</title>
<g id="a_node15"><a xlink:href="../../d1/d5d/classtinyxml2_1_1MemPoolT.html#afabb6844c7ef3b064a582568d3147c08" target="_top" xlink:title="tinyxml2::MemPoolT\l::Untracked">
<polygon fill="none" stroke="#000000" points="364.5,-227.5 364.5,-259.5 484.5,-259.5 484.5,-227.5 364.5,-227.5"/>
<text text-anchor="start" x="372.5" y="-246.5" font-family="FreeSans" font-size="10.00" fill="#000000">tinyxml2::MemPoolT</text>
<text text-anchor="middle" x="424.5" y="-234.5" font-family="FreeSans" font-size="10.00" fill="#000000">::Untracked</text>
</a>
</g>
</g>
<!-- Node4&#45;&gt;Node15 -->
<g id="edge16" class="edge">
<title>Node4&#45;&gt;Node15</title>
<path fill="none" stroke="#191970" d="M318.2182,-227.888C330.1794,-229.645 342.5927,-231.4684 354.5345,-233.2226"/>
<polygon fill="#191970" stroke="#191970" points="354.032,-236.6863 364.4346,-234.6768 355.0494,-229.7606 354.032,-236.6863"/>
</g>
<!-- Node8 -->
<g id="node8" class="node">
<title>Node8</title>
<g id="a_node8"><a xlink:href="../../d6/de3/classtinyxml2_1_1XMLNode.html#a363b6edbd6ebd55f8387d2b89f2b0921" target="_top" xlink:title="tinyxml2::XMLNode::\lDeleteChild">
<polygon fill="none" stroke="#000000" points="531,-62.5 531,-94.5 652,-94.5 652,-62.5 531,-62.5"/>
<text text-anchor="start" x="539" y="-81.5" font-family="FreeSans" font-size="10.00" fill="#000000">tinyxml2::XMLNode::</text>
<text text-anchor="middle" x="591.5" y="-69.5" font-family="FreeSans" font-size="10.00" fill="#000000">DeleteChild</text>
</a>
</g>
</g>
<!-- Node7&#45;&gt;Node8 -->
<g id="edge7" class="edge">
<title>Node7&#45;&gt;Node8</title>
<path fill="none" stroke="#191970" d="M485.2632,-86.1338C496.7321,-85.3097 508.8205,-84.441 520.569,-83.5968"/>
<polygon fill="#191970" stroke="#191970" points="521.0586,-87.0708 530.782,-82.863 520.5568,-80.0888 521.0586,-87.0708"/>
</g>
<!-- Node9 -->
<g id="node9" class="node">
<title>Node9</title>
<g id="a_node9"><a xlink:href="../../d6/de3/classtinyxml2_1_1XMLNode.html#ab0b21951f2343534c5c67f23dffdc7e6" target="_top" xlink:title="tinyxml2::XMLNode::\lDeleteNode">
<polygon fill="none" stroke="#000000" points="688,-62.5 688,-94.5 809,-94.5 809,-62.5 688,-62.5"/>
<text text-anchor="start" x="696" y="-81.5" font-family="FreeSans" font-size="10.00" fill="#000000">tinyxml2::XMLNode::</text>
<text text-anchor="middle" x="748.5" y="-69.5" font-family="FreeSans" font-size="10.00" fill="#000000">DeleteNode</text>
</a>
</g>
</g>
<!-- Node8&#45;&gt;Node9 -->
<g id="edge8" class="edge">
<title>Node8&#45;&gt;Node9</title>
<path fill="none" stroke="#191970" d="M652.2003,-78.5C660.635,-78.5 669.3591,-78.5 677.9547,-78.5"/>
<polygon fill="#191970" stroke="#191970" points="677.9612,-82.0001 687.9611,-78.5 677.9611,-75.0001 677.9612,-82.0001"/>
</g>
<!-- Node12 -->
<g id="node12" class="node">
<title>Node12</title>
<g id="a_node12"><a xlink:href="../../d6/de3/classtinyxml2_1_1XMLNode.html#a9546e242b6a4f232415befb1cfe0fdd4" target="_top" xlink:title="tinyxml2::XMLNode::\lUnlink">
<polygon fill="none" stroke="#000000" points="1022,-59.5 1022,-91.5 1143,-91.5 1143,-59.5 1022,-59.5"/>
<text text-anchor="start" x="1030" y="-78.5" font-family="FreeSans" font-size="10.00" fill="#000000">tinyxml2::XMLNode::</text>
<text text-anchor="middle" x="1082.5" y="-66.5" font-family="FreeSans" font-size="10.00" fill="#000000">Unlink</text>
</a>
</g>
</g>
<!-- Node8&#45;&gt;Node12 -->
<g id="edge13" class="edge">
<title>Node8&#45;&gt;Node12</title>
<path fill="none" stroke="#191970" d="M641.0774,-62.4656C655.9963,-58.3708 672.5192,-54.549 688,-52.5 720.9323,-48.1412 972.8093,-54.0344 986,-55.5 994.3722,-56.4302 1003.0935,-57.7424 1011.7198,-59.2552"/>
<polygon fill="#191970" stroke="#191970" points="1011.3067,-62.738 1021.7761,-61.1124 1012.578,-55.8544 1011.3067,-62.738"/>
</g>
<!-- Node10 -->
<g id="node10" class="node">
<title>Node10</title>
<g id="a_node10"><a xlink:href="../../db/d69/classtinyxml2_1_1MemPool.html#a49e3bfac2cba2ebd6776b31e571f64f7" target="_top" xlink:title="tinyxml2::MemPool::Free">
<polygon fill="none" stroke="#000000" points="845,-65.5 845,-85.5 986,-85.5 986,-65.5 845,-65.5"/>
<text text-anchor="middle" x="915.5" y="-72.5" font-family="FreeSans" font-size="10.00" fill="#000000">tinyxml2::MemPool::Free</text>
</a>
</g>
</g>
<!-- Node9&#45;&gt;Node10 -->
<g id="edge9" class="edge">
<title>Node9&#45;&gt;Node10</title>
<path fill="none" stroke="#191970" d="M809.2632,-77.4084C817.5751,-77.2591 826.2123,-77.104 834.8098,-76.9495"/>
<polygon fill="#191970" stroke="#191970" points="834.9268,-80.4481 844.8623,-76.7689 834.801,-73.4492 834.9268,-80.4481"/>
</g>
<!-- Node11 -->
<g id="node11" class="node">
<title>Node11</title>
<g id="a_node11"><a xlink:href="../../d6/de3/classtinyxml2_1_1XMLNode.html#a8f41e898cdd4da4cdbb7f05b0c7d9f69" target="_top" xlink:title="tinyxml2::XMLNode::\l~XMLNode">
<polygon fill="none" stroke="#000000" points="855,-104.5 855,-136.5 976,-136.5 976,-104.5 855,-104.5"/>
<text text-anchor="start" x="863" y="-123.5" font-family="FreeSans" font-size="10.00" fill="#000000">tinyxml2::XMLNode::</text>
<text text-anchor="middle" x="915.5" y="-111.5" font-family="FreeSans" font-size="10.00" fill="#000000">~XMLNode</text>
</a>
</g>
</g>
<!-- Node9&#45;&gt;Node11 -->
<g id="edge10" class="edge">
<title>Node9&#45;&gt;Node11</title>
<path fill="none" stroke="#191970" d="M809.2632,-93.7818C820.848,-96.6953 833.0647,-99.7678 844.925,-102.7506"/>
<polygon fill="#191970" stroke="#191970" points="844.2303,-106.1848 854.782,-105.2296 845.9377,-99.3962 844.2303,-106.1848"/>
</g>
<!-- Node11&#45;&gt;Node7 -->
<g id="edge11" class="edge">
<title>Node11&#45;&gt;Node7</title>
<path fill="none" stroke="#191970" d="M854.8068,-119.2649C778.9524,-117.388 645.2012,-112.9804 531,-103.5 519.5142,-102.5465 507.359,-101.2945 495.529,-99.944"/>
<polygon fill="#191970" stroke="#191970" points="495.5815,-96.4262 485.2417,-98.7368 494.7656,-103.3785 495.5815,-96.4262"/>
</g>
<!-- Node11&#45;&gt;Node12 -->
<g id="edge12" class="edge">
<title>Node11&#45;&gt;Node12</title>
<path fill="none" stroke="#191970" d="M975.3191,-104.3811C987.5782,-101.0777 1000.5796,-97.5744 1013.1412,-94.1895"/>
<polygon fill="#191970" stroke="#191970" points="1014.3536,-97.4877 1023.0985,-91.5064 1012.5323,-90.7288 1014.3536,-97.4877"/>
</g>
<!-- Node18 -->
<g id="node18" class="node">
<title>Node18</title>
<g id="a_node18"><a xlink:href="../../d5/dcd/classtinyxml2_1_1StrPair.html#a80c1b3bd99bf62ae85c94a29ce537125" target="_top" xlink:title="tinyxml2::StrPair::\lReset">
<polygon fill="none" stroke="#000000" points="538.5,-.5 538.5,-32.5 644.5,-32.5 644.5,-.5 538.5,-.5"/>
<text text-anchor="start" x="546.5" y="-19.5" font-family="FreeSans" font-size="10.00" fill="#000000">tinyxml2::StrPair::</text>
<text text-anchor="middle" x="591.5" y="-7.5" font-family="FreeSans" font-size="10.00" fill="#000000">Reset</text>
</a>
</g>
</g>
<!-- Node17&#45;&gt;Node18 -->
<g id="edge19" class="edge">
<title>Node17&#45;&gt;Node18</title>
<path fill="none" stroke="#191970" d="M302.3137,-23.4617C318.7814,-19.3668 336.9933,-15.5459 354,-13.5 412.7388,-6.4338 480.2355,-8.2302 528.2242,-11.1748"/>
<polygon fill="#191970" stroke="#191970" points="528.2559,-14.6841 538.4615,-11.8385 528.7089,-7.6988 528.2559,-14.6841"/>
</g>
<!-- Node19 -->
<g id="node19" class="node">
<title>Node19</title>
<g id="a_node19"><a xlink:href="../../d5/dcd/classtinyxml2_1_1StrPair.html#a1f82ec6b5bee35ee7466d8565e43b1de" target="_top" xlink:title="tinyxml2::StrPair::\lSetStr">
<polygon fill="none" stroke="#000000" points="371.5,-23.5 371.5,-55.5 477.5,-55.5 477.5,-23.5 371.5,-23.5"/>
<text text-anchor="start" x="379.5" y="-42.5" font-family="FreeSans" font-size="10.00" fill="#000000">tinyxml2::StrPair::</text>
<text text-anchor="middle" x="424.5" y="-30.5" font-family="FreeSans" font-size="10.00" fill="#000000">SetStr</text>
</a>
</g>
</g>
<!-- Node17&#45;&gt;Node19 -->
<g id="edge20" class="edge">
<title>Node17&#45;&gt;Node19</title>
<path fill="none" stroke="#191970" d="M318.2182,-39.5C332.337,-39.5 347.0855,-39.5 360.9452,-39.5"/>
<polygon fill="#191970" stroke="#191970" points="361.3455,-43.0001 371.3454,-39.5 361.3454,-36.0001 361.3455,-43.0001"/>
</g>
<!-- Node19&#45;&gt;Node18 -->
<g id="edge21" class="edge">
<title>Node19&#45;&gt;Node18</title>
<path fill="none" stroke="#191970" d="M477.799,-32.1594C493.8461,-29.9493 511.6131,-27.5024 528.2407,-25.2124"/>
<polygon fill="#191970" stroke="#191970" points="528.9919,-28.642 538.4208,-23.8103 528.0368,-21.7075 528.9919,-28.642"/>
</g>
</g>
</svg>
