<?xml version="1.0" encoding="UTF-8" standalone="no"?>
<!DOCTYPE svg PUBLIC "-//W3C//DTD SVG 1.1//EN"
 "http://www.w3.org/Graphics/SVG/1.1/DTD/svg11.dtd">
<!-- Generated by graphviz version 2.40.1 (20161225.0304)
 -->
<!-- Title: PHRandomSeed::InitSeed Pages: 1 -->
<svg width="482pt" height="111pt"
 viewBox="0.00 0.00 482.00 111.00" xmlns="http://www.w3.org/2000/svg" xmlns:xlink="http://www.w3.org/1999/xlink">
<g id="graph0" class="graph" transform="scale(1 1) rotate(0) translate(4 107)">
<title>PHRandomSeed::InitSeed</title>
<!-- Node1 -->
<g id="node1" class="node">
<title>Node1</title>
<polygon fill="#bfbfbf" stroke="#000000" points="0,-43.5 0,-63.5 145,-63.5 145,-43.5 0,-43.5"/>
<text text-anchor="middle" x="72.5" y="-50.5" font-family="FreeSans" font-size="10.00" fill="#000000">PHRandomSeed::InitSeed</text>
</g>
<!-- Node2 -->
<g id="node2" class="node">
<title>Node2</title>
<g id="a_node2"><a xlink:href="../../d1/da8/classPHFlag.html#a4b73a422f0076568904d71f40e849da5" target="_top" xlink:title="PHFlag::FlagExist">
<polygon fill="none" stroke="#000000" points="190,-82.5 190,-102.5 294,-102.5 294,-82.5 190,-82.5"/>
<text text-anchor="middle" x="242" y="-89.5" font-family="FreeSans" font-size="10.00" fill="#000000">PHFlag::FlagExist</text>
</a>
</g>
</g>
<!-- Node1&#45;&gt;Node2 -->
<g id="edge1" class="edge">
<title>Node1&#45;&gt;Node2</title>
<path fill="none" stroke="#191970" d="M116.1505,-63.5435C138.2941,-68.6385 165.3769,-74.8699 188.7385,-80.2451"/>
<polygon fill="#191970" stroke="#191970" points="187.9673,-83.6591 198.4975,-82.4906 189.5369,-76.8373 187.9673,-83.6591"/>
</g>
<!-- Node3 -->
<g id="node3" class="node">
<title>Node3</title>
<g id="a_node3"><a xlink:href="../../d1/da8/classPHFlag.html#a07899067141a5f12333cc37183caddc8" target="_top" xlink:title="PHFlag::get_IntFlag">
<polygon fill="none" stroke="#000000" points="185,-43.5 185,-63.5 299,-63.5 299,-43.5 185,-43.5"/>
<text text-anchor="middle" x="242" y="-50.5" font-family="FreeSans" font-size="10.00" fill="#000000">PHFlag::get_IntFlag</text>
</a>
</g>
</g>
<!-- Node1&#45;&gt;Node3 -->
<g id="edge2" class="edge">
<title>Node1&#45;&gt;Node3</title>
<path fill="none" stroke="#191970" d="M145.3669,-53.5C155.0533,-53.5 164.9509,-53.5 174.54,-53.5"/>
<polygon fill="#191970" stroke="#191970" points="174.7997,-57.0001 184.7997,-53.5 174.7996,-50.0001 174.7997,-57.0001"/>
</g>
<!-- Node5 -->
<g id="node5" class="node">
<title>Node5</title>
<g id="a_node5"><a xlink:href="../../d8/d14/classrecoConsts.html#ae69a5c29a7199ba16d0e537158618802" target="_top" xlink:title="recoConsts::instance">
<polygon fill="none" stroke="#000000" points="181,-3.5 181,-23.5 303,-23.5 303,-3.5 181,-3.5"/>
<text text-anchor="middle" x="242" y="-10.5" font-family="FreeSans" font-size="10.00" fill="#000000">recoConsts::instance</text>
</a>
</g>
</g>
<!-- Node1&#45;&gt;Node5 -->
<g id="edge4" class="edge">
<title>Node1&#45;&gt;Node5</title>
<path fill="none" stroke="#191970" d="M115.272,-43.4063C137.8409,-38.0803 165.7232,-31.5004 189.5833,-25.8697"/>
<polygon fill="#191970" stroke="#191970" points="190.6068,-29.2244 199.5356,-23.5211 188.999,-22.4115 190.6068,-29.2244"/>
</g>
<!-- Node4 -->
<g id="node4" class="node">
<title>Node4</title>
<g id="a_node4"><a xlink:href="../../dd/d01/namespacetesting_1_1gtest__printers__test.html#adab26e59d2d7781c06a2c1c5948a8f65" target="_top" xlink:title="testing::gtest_printers\l_test::Print">
<polygon fill="none" stroke="#000000" points="342.5,-39.5 342.5,-71.5 470.5,-71.5 470.5,-39.5 342.5,-39.5"/>
<text text-anchor="start" x="350.5" y="-58.5" font-family="FreeSans" font-size="10.00" fill="#000000">testing::gtest_printers</text>
<text text-anchor="middle" x="406.5" y="-46.5" font-family="FreeSans" font-size="10.00" fill="#000000">_test::Print</text>
</a>
</g>
</g>
<!-- Node3&#45;&gt;Node4 -->
<g id="edge3" class="edge">
<title>Node3&#45;&gt;Node4</title>
<path fill="none" stroke="#191970" d="M299.0725,-54.1939C309.8005,-54.3243 321.1611,-54.4624 332.3215,-54.5981"/>
<polygon fill="#191970" stroke="#191970" points="332.4488,-58.0998 342.4906,-54.7218 332.534,-51.1004 332.4488,-58.0998"/>
</g>
<!-- Node6 -->
<g id="node6" class="node">
<title>Node6</title>
<g id="a_node6"><a xlink:href="../../d8/d14/classrecoConsts.html#ae882d6adc62f783ec78114fe3dee3c24" target="_top" xlink:title="recoConsts::recoConsts">
<polygon fill="none" stroke="#000000" points="339,-.5 339,-20.5 474,-20.5 474,-.5 339,-.5"/>
<text text-anchor="middle" x="406.5" y="-7.5" font-family="FreeSans" font-size="10.00" fill="#000000">recoConsts::recoConsts</text>
</a>
</g>
</g>
<!-- Node5&#45;&gt;Node6 -->
<g id="edge5" class="edge">
<title>Node5&#45;&gt;Node6</title>
<path fill="none" stroke="#191970" d="M303.2537,-12.3829C311.592,-12.2308 320.2388,-12.0732 328.8191,-11.9167"/>
<polygon fill="#191970" stroke="#191970" points="328.9041,-15.4158 338.8386,-11.7339 328.7764,-8.417 328.9041,-15.4158"/>
</g>
</g>
</svg>
