<?xml version="1.0" encoding="UTF-8" standalone="no"?>
<!DOCTYPE svg PUBLIC "-//W3C//DTD SVG 1.1//EN"
 "http://www.w3.org/Graphics/SVG/1.1/DTD/svg11.dtd">
<!-- Generated by graphviz version 2.40.1 (20161225.0304)
 -->
<!-- Title: ActsExamples::Generic::ProtoLayerCreatorT&lt; detector_element_t &gt;::Config Pages: 1 -->
<svg width="1167pt" height="806pt"
 viewBox="0.00 0.00 1167.00 806.50" xmlns="http://www.w3.org/2000/svg" xmlns:xlink="http://www.w3.org/1999/xlink">
<g id="graph0" class="graph" transform="scale(1 1) rotate(0) translate(4 802.4959)">
<title>ActsExamples::Generic::ProtoLayerCreatorT&lt; detector_element_t &gt;::Config</title>
<!-- Node1 -->
<g id="node1" class="node">
<title>Node1</title>
<polygon fill="#bfbfbf" stroke="#000000" points="1022,-363.4959 1022,-419.4959 1159,-419.4959 1159,-363.4959 1022,-363.4959"/>
<text text-anchor="start" x="1030" y="-406.4959" font-family="FreeSans" font-size="10.00" fill="#000000">ActsExamples::Generic</text>
<text text-anchor="start" x="1030" y="-394.4959" font-family="FreeSans" font-size="10.00" fill="#000000">::ProtoLayerCreatorT</text>
<text text-anchor="start" x="1030" y="-382.4959" font-family="FreeSans" font-size="10.00" fill="#000000">&lt; detector_element_t &gt;</text>
<text text-anchor="middle" x="1090.5" y="-370.4959" font-family="FreeSans" font-size="10.00" fill="#000000">::Config</text>
</g>
<!-- Node2 -->
<g id="node2" class="node">
<title>Node2</title>
<polygon fill="none" stroke="#bfbfbf" points="665.5,-673.4959 665.5,-705.4959 802.5,-705.4959 802.5,-673.4959 665.5,-673.4959"/>
<text text-anchor="start" x="673.5" y="-692.4959" font-family="FreeSans" font-size="10.00" fill="#000000">std::vector&lt; std::vector</text>
<text text-anchor="middle" x="734" y="-680.4959" font-family="FreeSans" font-size="10.00" fill="#000000">&lt; int &gt; &gt;</text>
</g>
<!-- Node2&#45;&gt;Node1 -->
<g id="edge1" class="edge">
<title>Node2&#45;&gt;Node1</title>
<path fill="none" stroke="#9a32cd" stroke-dasharray="5,2" d="M812.5998,-700.8117C871.6681,-704.8009 951.1696,-699.9614 1004,-656.4959 1041.3728,-625.748 1073.146,-481.3005 1085.2584,-419.5761"/>
<polygon fill="#9a32cd" stroke="#9a32cd" points="812.8024,-697.317 802.5626,-700.0365 812.2633,-704.2962 812.8024,-697.317"/>
<text text-anchor="middle" x="926.5" y="-704.4959" font-family="FreeSans" font-size="10.00" fill="#000000"> posnegModuleReadoutSide</text>
</g>
<!-- Node3 -->
<g id="node3" class="node">
<title>Node3</title>
<polygon fill="none" stroke="#bfbfbf" points="391,-712.4959 391,-732.4959 497,-732.4959 497,-712.4959 391,-712.4959"/>
<text text-anchor="middle" x="444" y="-719.4959" font-family="FreeSans" font-size="10.00" fill="#000000">std::vector&lt; int &gt;</text>
</g>
<!-- Node3&#45;&gt;Node1 -->
<g id="edge14" class="edge">
<title>Node3&#45;&gt;Node1</title>
<path fill="none" stroke="#9a32cd" stroke-dasharray="5,2" d="M481.0525,-735.9032C578.6007,-768.6073 845.8675,-841.1149 1004,-717.4959 1051.5162,-680.3504 1078.5717,-491.8938 1087.3276,-419.6949"/>
<polygon fill="#9a32cd" stroke="#9a32cd" points="481.9405,-732.5082 471.346,-732.5911 479.6799,-739.1331 481.9405,-732.5082"/>
<text text-anchor="middle" x="734" y="-789.4959" font-family="FreeSans" font-size="10.00" fill="#000000"> centralModuleReadoutSide</text>
</g>
<!-- Node3&#45;&gt;Node2 -->
<g id="edge2" class="edge">
<title>Node3&#45;&gt;Node2</title>
<path fill="none" stroke="#9a32cd" stroke-dasharray="5,2" d="M507.1788,-715.3066C553.8456,-709.9962 617.3217,-702.7731 665.2568,-697.3184"/>
<polygon fill="#9a32cd" stroke="#9a32cd" points="506.7306,-711.8349 497.1905,-716.4432 507.5221,-718.79 506.7306,-711.8349"/>
<text text-anchor="middle" x="593.5" y="-710.4959" font-family="FreeSans" font-size="10.00" fill="#000000"> elements</text>
</g>
<!-- Node4 -->
<g id="node4" class="node">
<title>Node4</title>
<polygon fill="none" stroke="#bfbfbf" points="651.5,-561.4959 651.5,-605.4959 816.5,-605.4959 816.5,-561.4959 651.5,-561.4959"/>
<text text-anchor="start" x="659.5" y="-592.4959" font-family="FreeSans" font-size="10.00" fill="#000000">std::vector&lt; std::vector</text>
<text text-anchor="start" x="659.5" y="-580.4959" font-family="FreeSans" font-size="10.00" fill="#000000">&lt; std::shared_ptr&lt; const</text>
<text text-anchor="middle" x="734" y="-568.4959" font-family="FreeSans" font-size="10.00" fill="#000000"> Acts::ISurfaceMaterial &gt; &gt; &gt;</text>
</g>
<!-- Node4&#45;&gt;Node1 -->
<g id="edge3" class="edge">
<title>Node4&#45;&gt;Node1</title>
<path fill="none" stroke="#9a32cd" stroke-dasharray="5,2" d="M826.91,-589.7429C882.6908,-588.9919 952.5683,-579.6705 1004,-544.4959 1047.699,-514.6098 1071.8969,-454.9568 1082.9548,-419.6124"/>
<polygon fill="#9a32cd" stroke="#9a32cd" points="826.6507,-586.2439 816.6661,-589.7877 826.6814,-593.2438 826.6507,-586.2439"/>
<text text-anchor="middle" x="926.5" y="-591.4959" font-family="FreeSans" font-size="10.00" fill="#000000"> posnegModuleMaterial</text>
</g>
<!-- Node5 -->
<g id="node5" class="node">
<title>Node5</title>
<polygon fill="none" stroke="#bfbfbf" points="338,-604.4959 338,-636.4959 550,-636.4959 550,-604.4959 338,-604.4959"/>
<text text-anchor="start" x="346" y="-623.4959" font-family="FreeSans" font-size="10.00" fill="#000000">std::vector&lt; std::shared</text>
<text text-anchor="middle" x="444" y="-611.4959" font-family="FreeSans" font-size="10.00" fill="#000000">_ptr&lt; const Acts::ISurfaceMaterial &gt; &gt;</text>
</g>
<!-- Node5&#45;&gt;Node1 -->
<g id="edge18" class="edge">
<title>Node5&#45;&gt;Node1</title>
<path fill="none" stroke="#9a32cd" stroke-dasharray="5,2" d="M560.3599,-632.0045C703.4107,-643.6646 935.6505,-653.7331 1004,-604.4959 1064.7206,-560.7544 1082.8973,-466.8252 1088.2771,-419.6903"/>
<polygon fill="#9a32cd" stroke="#9a32cd" points="560.473,-628.5019 550.2179,-631.163 559.8942,-635.4779 560.473,-628.5019"/>
<text text-anchor="middle" x="734" y="-644.4959" font-family="FreeSans" font-size="10.00" fill="#000000"> centralModuleMaterial</text>
</g>
<!-- Node5&#45;&gt;Node4 -->
<g id="edge4" class="edge">
<title>Node5&#45;&gt;Node4</title>
<path fill="none" stroke="#9a32cd" stroke-dasharray="5,2" d="M560.5675,-605.6235C590.9495,-601.7472 623.065,-597.6497 651.2918,-594.0483"/>
<polygon fill="#9a32cd" stroke="#9a32cd" points="559.8152,-602.191 550.3386,-606.9286 560.7012,-609.1347 559.8152,-602.191"/>
<text text-anchor="middle" x="593.5" y="-606.4959" font-family="FreeSans" font-size="10.00" fill="#000000"> elements</text>
</g>
<!-- Node6 -->
<g id="node6" class="node">
<title>Node6</title>
<polygon fill="none" stroke="#bfbfbf" points="375.5,-500.4959 375.5,-532.4959 512.5,-532.4959 512.5,-500.4959 375.5,-500.4959"/>
<text text-anchor="start" x="383.5" y="-519.4959" font-family="FreeSans" font-size="10.00" fill="#000000">std::vector&lt; std::vector</text>
<text text-anchor="middle" x="444" y="-507.4959" font-family="FreeSans" font-size="10.00" fill="#000000">&lt; Acts::Vector3 &gt; &gt;</text>
</g>
<!-- Node6&#45;&gt;Node1 -->
<g id="edge5" class="edge">
<title>Node6&#45;&gt;Node1</title>
<path fill="none" stroke="#9a32cd" stroke-dasharray="5,2" d="M522.8753,-526.5509C635.8847,-537.2756 847.4852,-543.4208 1004,-465.4959 1026.822,-454.1334 1048.6079,-435.432 1064.6069,-419.6731"/>
<polygon fill="#9a32cd" stroke="#9a32cd" points="523.2118,-523.0672 512.9167,-525.5695 522.5253,-530.0335 523.2118,-523.0672"/>
<text text-anchor="middle" x="734" y="-535.4959" font-family="FreeSans" font-size="10.00" fill="#000000"> centralModulePositions</text>
</g>
<!-- Node12 -->
<g id="node12" class="node">
<title>Node12</title>
<polygon fill="none" stroke="#bfbfbf" points="637,-461.4959 637,-493.4959 831,-493.4959 831,-461.4959 637,-461.4959"/>
<text text-anchor="start" x="645" y="-480.4959" font-family="FreeSans" font-size="10.00" fill="#000000">std::vector&lt; std::vector</text>
<text text-anchor="middle" x="734" y="-468.4959" font-family="FreeSans" font-size="10.00" fill="#000000">&lt; std::vector&lt; Acts::Vector3 &gt; &gt; &gt;</text>
</g>
<!-- Node6&#45;&gt;Node12 -->
<g id="edge12" class="edge">
<title>Node6&#45;&gt;Node12</title>
<path fill="none" stroke="#9a32cd" stroke-dasharray="5,2" d="M522.9402,-505.8798C558.1198,-501.1488 599.8976,-495.5304 636.9633,-490.5457"/>
<polygon fill="#9a32cd" stroke="#9a32cd" points="522.1702,-502.4518 512.726,-507.2535 523.1033,-509.3893 522.1702,-502.4518"/>
<text text-anchor="middle" x="593.5" y="-501.4959" font-family="FreeSans" font-size="10.00" fill="#000000"> elements</text>
</g>
<!-- Node7 -->
<g id="node7" class="node">
<title>Node7</title>
<polygon fill="none" stroke="#bfbfbf" points="142,-500.4959 142,-532.4959 251,-532.4959 251,-500.4959 142,-500.4959"/>
<text text-anchor="start" x="150" y="-519.4959" font-family="FreeSans" font-size="10.00" fill="#000000">std::vector&lt; Acts::</text>
<text text-anchor="middle" x="196.5" y="-507.4959" font-family="FreeSans" font-size="10.00" fill="#000000">Vector3 &gt;</text>
</g>
<!-- Node7&#45;&gt;Node6 -->
<g id="edge6" class="edge">
<title>Node7&#45;&gt;Node6</title>
<path fill="none" stroke="#9a32cd" stroke-dasharray="5,2" d="M261.2543,-516.4959C296.3386,-516.4959 339.6819,-516.4959 375.3508,-516.4959"/>
<polygon fill="#9a32cd" stroke="#9a32cd" points="261.1214,-512.996 251.1213,-516.4959 261.1213,-519.996 261.1214,-512.996"/>
<text text-anchor="middle" x="294.5" y="-519.4959" font-family="FreeSans" font-size="10.00" fill="#000000"> elements</text>
</g>
<!-- Node8 -->
<g id="node8" class="node">
<title>Node8</title>
<polygon fill="none" stroke="#bfbfbf" points="0,-506.4959 0,-526.4959 55,-526.4959 55,-506.4959 0,-506.4959"/>
<text text-anchor="middle" x="27.5" y="-513.4959" font-family="FreeSans" font-size="10.00" fill="#000000">Vector3</text>
</g>
<!-- Node8&#45;&gt;Node7 -->
<g id="edge7" class="edge">
<title>Node8&#45;&gt;Node7</title>
<path fill="none" stroke="#9a32cd" stroke-dasharray="5,2" d="M65.2318,-516.4959C87.826,-516.4959 116.9326,-516.4959 141.9942,-516.4959"/>
<polygon fill="#9a32cd" stroke="#9a32cd" points="65.0289,-512.996 55.0289,-516.4959 65.0289,-519.996 65.0289,-512.996"/>
<text text-anchor="middle" x="98.5" y="-519.4959" font-family="FreeSans" font-size="10.00" fill="#000000"> elements</text>
</g>
<!-- Node9 -->
<g id="node9" class="node">
<title>Node9</title>
<polygon fill="none" stroke="#bfbfbf" points="665.5,-241.4959 665.5,-273.4959 802.5,-273.4959 802.5,-241.4959 665.5,-241.4959"/>
<text text-anchor="start" x="673.5" y="-260.4959" font-family="FreeSans" font-size="10.00" fill="#000000">std::vector&lt; std::vector</text>
<text text-anchor="middle" x="734" y="-248.4959" font-family="FreeSans" font-size="10.00" fill="#000000">&lt; double &gt; &gt;</text>
</g>
<!-- Node9&#45;&gt;Node1 -->
<g id="edge8" class="edge">
<title>Node9&#45;&gt;Node1</title>
<path fill="none" stroke="#9a32cd" stroke-dasharray="5,2" d="M812.7668,-243.7706C880.6571,-233.6177 972.5571,-224.3924 1004,-242.4959 1049.1037,-268.4648 1072.8554,-327.9665 1083.4437,-363.4204"/>
<polygon fill="#9a32cd" stroke="#9a32cd" points="811.8689,-240.3671 802.5126,-245.338 812.9266,-247.2867 811.8689,-240.3671"/>
<text text-anchor="middle" x="926.5" y="-329.4959" font-family="FreeSans" font-size="10.00" fill="#000000"> posnegModuleLorentzAngle</text>
<text text-anchor="middle" x="926.5" y="-317.4959" font-family="FreeSans" font-size="10.00" fill="#000000">posnegModuleBacksideGap</text>
<text text-anchor="middle" x="926.5" y="-305.4959" font-family="FreeSans" font-size="10.00" fill="#000000">posnegModuleThickness</text>
<text text-anchor="middle" x="926.5" y="-293.4959" font-family="FreeSans" font-size="10.00" fill="#000000">posnegModuleHalfY</text>
<text text-anchor="middle" x="926.5" y="-281.4959" font-family="FreeSans" font-size="10.00" fill="#000000">posnegModuleBacksideStereo</text>
<text text-anchor="middle" x="926.5" y="-269.4959" font-family="FreeSans" font-size="10.00" fill="#000000">posnegModuleFrontsideStereo</text>
<text text-anchor="middle" x="926.5" y="-257.4959" font-family="FreeSans" font-size="10.00" fill="#000000">posnegModuleMinHalfX</text>
<text text-anchor="middle" x="926.5" y="-245.4959" font-family="FreeSans" font-size="10.00" fill="#000000">posnegModuleMaxHalfX</text>
</g>
<!-- Node10 -->
<g id="node10" class="node">
<title>Node10</title>
<polygon fill="none" stroke="#bfbfbf" points="380,-280.4959 380,-300.4959 508,-300.4959 508,-280.4959 380,-280.4959"/>
<text text-anchor="middle" x="444" y="-287.4959" font-family="FreeSans" font-size="10.00" fill="#000000">std::vector&lt; double &gt;</text>
</g>
<!-- Node10&#45;&gt;Node1 -->
<g id="edge19" class="edge">
<title>Node10&#45;&gt;Node1</title>
<path fill="none" stroke="#9a32cd" stroke-dasharray="5,2" d="M518.3579,-293.4865C622.8208,-298.1091 803.4151,-307.7987 831,-320.4959 841.2772,-325.2265 839.0752,-333.0647 849,-338.4959 902.6589,-367.8599 971.4088,-380.9555 1021.8231,-386.7956"/>
<polygon fill="#9a32cd" stroke="#9a32cd" points="518.3273,-289.9819 508.1839,-293.0416 518.0214,-296.9752 518.3273,-289.9819"/>
<text text-anchor="middle" x="734" y="-443.4959" font-family="FreeSans" font-size="10.00" fill="#000000"> centralModuleHalfY</text>
<text text-anchor="middle" x="734" y="-431.4959" font-family="FreeSans" font-size="10.00" fill="#000000">centralModuleTiltPhi</text>
<text text-anchor="middle" x="734" y="-419.4959" font-family="FreeSans" font-size="10.00" fill="#000000">centralModuleThickness</text>
<text text-anchor="middle" x="734" y="-407.4959" font-family="FreeSans" font-size="10.00" fill="#000000">centralModuleBacksideGap</text>
<text text-anchor="middle" x="734" y="-395.4959" font-family="FreeSans" font-size="10.00" fill="#000000">centralModuleFrontsideStereo</text>
<text text-anchor="middle" x="734" y="-383.4959" font-family="FreeSans" font-size="10.00" fill="#000000">posnegLayerPositionsZ</text>
<text text-anchor="middle" x="734" y="-371.4959" font-family="FreeSans" font-size="10.00" fill="#000000">centralModuleLorentzAngle</text>
<text text-anchor="middle" x="734" y="-359.4959" font-family="FreeSans" font-size="10.00" fill="#000000">posnegLayerEnvelopeR</text>
<text text-anchor="middle" x="734" y="-347.4959" font-family="FreeSans" font-size="10.00" fill="#000000">centralModuleBacksideStereo</text>
<text text-anchor="middle" x="734" y="-335.4959" font-family="FreeSans" font-size="10.00" fill="#000000">centralLayerRadii</text>
<text text-anchor="middle" x="734" y="-323.4959" font-family="FreeSans" font-size="10.00" fill="#000000">...</text>
</g>
<!-- Node10&#45;&gt;Node9 -->
<g id="edge9" class="edge">
<title>Node10&#45;&gt;Node9</title>
<path fill="none" stroke="#9a32cd" stroke-dasharray="5,2" d="M518.0677,-282.0675C563.4145,-276.9074 621.0423,-270.3497 665.3569,-265.307"/>
<polygon fill="#9a32cd" stroke="#9a32cd" points="517.5409,-278.6048 508.0007,-283.2131 518.3324,-285.5599 517.5409,-278.6048"/>
<text text-anchor="middle" x="593.5" y="-278.4959" font-family="FreeSans" font-size="10.00" fill="#000000"> elements</text>
</g>
<!-- Node11 -->
<g id="node11" class="node">
<title>Node11</title>
<polygon fill="none" stroke="#bfbfbf" points="672,-190.4959 672,-222.4959 796,-222.4959 796,-190.4959 672,-190.4959"/>
<text text-anchor="start" x="680" y="-209.4959" font-family="FreeSans" font-size="10.00" fill="#000000">std::vector&lt; std::pair</text>
<text text-anchor="middle" x="734" y="-197.4959" font-family="FreeSans" font-size="10.00" fill="#000000">&lt; int, int &gt; &gt;</text>
</g>
<!-- Node11&#45;&gt;Node1 -->
<g id="edge10" class="edge">
<title>Node11&#45;&gt;Node1</title>
<path fill="none" stroke="#9a32cd" stroke-dasharray="5,2" d="M806.3609,-189.8557C864.4482,-180.707 945.6557,-177.7974 1004,-215.4959 1055.6165,-248.8473 1077.4479,-322.6638 1085.8354,-363.3031"/>
<polygon fill="#9a32cd" stroke="#9a32cd" points="805.4429,-186.4606 796.158,-191.5637 806.5986,-193.3646 805.4429,-186.4606"/>
<text text-anchor="middle" x="926.5" y="-218.4959" font-family="FreeSans" font-size="10.00" fill="#000000"> centralModuleBinningSchema</text>
</g>
<!-- Node12&#45;&gt;Node1 -->
<g id="edge11" class="edge">
<title>Node12&#45;&gt;Node1</title>
<path fill="none" stroke="#9a32cd" stroke-dasharray="5,2" d="M810.4798,-459.0464C873.213,-443.913 961.2372,-422.6785 1021.7607,-408.0782"/>
<polygon fill="#9a32cd" stroke="#9a32cd" points="809.5371,-455.6733 800.6367,-461.4209 811.1787,-462.4781 809.5371,-455.6733"/>
<text text-anchor="middle" x="926.5" y="-452.4959" font-family="FreeSans" font-size="10.00" fill="#000000"> posnegModulePositions</text>
</g>
<!-- Node13 -->
<g id="node13" class="node">
<title>Node13</title>
<polygon fill="none" stroke="#bfbfbf" points="671,-139.4959 671,-171.4959 797,-171.4959 797,-139.4959 671,-139.4959"/>
<text text-anchor="start" x="679" y="-158.4959" font-family="FreeSans" font-size="10.00" fill="#000000">std::vector&lt; std::pair</text>
<text text-anchor="middle" x="734" y="-146.4959" font-family="FreeSans" font-size="10.00" fill="#000000">&lt; double, double &gt; &gt;</text>
</g>
<!-- Node13&#45;&gt;Node1 -->
<g id="edge13" class="edge">
<title>Node13&#45;&gt;Node1</title>
<path fill="none" stroke="#9a32cd" stroke-dasharray="5,2" d="M807.0199,-138.5336C865.7291,-129.2946 947.459,-126.8445 1004,-167.4959 1037.0013,-191.223 1069.9158,-308.7716 1083.7279,-363.4437"/>
<polygon fill="#9a32cd" stroke="#9a32cd" points="806.3565,-135.0959 797.0712,-140.1982 807.5117,-141.9999 806.3565,-135.0959"/>
<text text-anchor="middle" x="926.5" y="-170.4959" font-family="FreeSans" font-size="10.00" fill="#000000"> centralLayerEnvelopes</text>
</g>
<!-- Node14 -->
<g id="node14" class="node">
<title>Node14</title>
<polygon fill="none" stroke="#bfbfbf" points="383.5,-54.4959 383.5,-74.4959 504.5,-74.4959 504.5,-54.4959 383.5,-54.4959"/>
<text text-anchor="middle" x="444" y="-61.4959" font-family="FreeSans" font-size="10.00" fill="#000000">std::vector&lt; size_t &gt;</text>
</g>
<!-- Node14&#45;&gt;Node1 -->
<g id="edge15" class="edge">
<title>Node14&#45;&gt;Node1</title>
<path fill="none" stroke="#9a32cd" stroke-dasharray="5,2" d="M514.9428,-68.108C657.445,-76.0034 967.9801,-96.677 1004,-128.4959 1039.9334,-160.2384 1072.393,-302.2281 1084.9705,-363.3571"/>
<polygon fill="#9a32cd" stroke="#9a32cd" points="514.7437,-64.5919 504.5671,-67.5393 514.3605,-71.5814 514.7437,-64.5919"/>
<text text-anchor="start" x="662.5" y="-119.4959" font-family="FreeSans" font-size="10.00" fill="#000000"> centralModuleReadoutBins</text>
<text text-anchor="middle" x="734" y="-107.4959" font-family="FreeSans" font-size="10.00" fill="#000000">X</text>
<text text-anchor="middle" x="734" y="-95.4959" font-family="FreeSans" font-size="10.00" fill="#000000">centralModuleReadoutBinsY</text>
</g>
<!-- Node15 -->
<g id="node15" class="node">
<title>Node15</title>
<polygon fill="none" stroke="#bfbfbf" points="665.5,-15.4959 665.5,-47.4959 802.5,-47.4959 802.5,-15.4959 665.5,-15.4959"/>
<text text-anchor="start" x="673.5" y="-34.4959" font-family="FreeSans" font-size="10.00" fill="#000000">std::vector&lt; std::vector</text>
<text text-anchor="middle" x="734" y="-22.4959" font-family="FreeSans" font-size="10.00" fill="#000000">&lt; size_t &gt; &gt;</text>
</g>
<!-- Node14&#45;&gt;Node15 -->
<g id="edge17" class="edge">
<title>Node14&#45;&gt;Node15</title>
<path fill="none" stroke="#9a32cd" stroke-dasharray="5,2" d="M514.9458,-56.4228C560.7633,-51.209 620.0649,-44.4609 665.4097,-39.301"/>
<polygon fill="#9a32cd" stroke="#9a32cd" points="514.3336,-52.9697 504.7935,-57.578 515.1251,-59.9249 514.3336,-52.9697"/>
<text text-anchor="middle" x="593.5" y="-53.4959" font-family="FreeSans" font-size="10.00" fill="#000000"> elements</text>
</g>
<!-- Node15&#45;&gt;Node1 -->
<g id="edge16" class="edge">
<title>Node15&#45;&gt;Node1</title>
<path fill="none" stroke="#9a32cd" stroke-dasharray="5,2" d="M793.8816,-12.9343C853.7132,1.6075 945.0496,12.4092 1004,-34.4959 1056.0241,-75.89 1080.6842,-286.6672 1088.0443,-363.4602"/>
<polygon fill="#9a32cd" stroke="#9a32cd" points="792.6586,-9.6336 783.8263,-15.4851 794.38,-16.4186 792.6586,-9.6336"/>
<text text-anchor="middle" x="926.5" y="-61.4959" font-family="FreeSans" font-size="10.00" fill="#000000"> posnegModulePhiBins</text>
<text text-anchor="middle" x="926.5" y="-49.4959" font-family="FreeSans" font-size="10.00" fill="#000000">posnegModuleReadoutBinsX</text>
<text text-anchor="middle" x="926.5" y="-37.4959" font-family="FreeSans" font-size="10.00" fill="#000000">posnegModuleReadoutBinsY</text>
</g>
</g>
</svg>
