<?xml version="1.0" encoding="UTF-8" standalone="no"?>
<!DOCTYPE svg PUBLIC "-//W3C//DTD SVG 1.1//EN"
 "http://www.w3.org/Graphics/SVG/1.1/DTD/svg11.dtd">
<!-- Generated by graphviz version 2.40.1 (20161225.0304)
 -->
<!-- Title: PHField2D::GetFieldValue Pages: 1 -->
<svg width="462pt" height="68pt"
 viewBox="0.00 0.00 462.00 68.00" xmlns="http://www.w3.org/2000/svg" xmlns:xlink="http://www.w3.org/1999/xlink">
<g id="graph0" class="graph" transform="scale(1 1) rotate(0) translate(4 64)">
<title>PHField2D::GetFieldValue</title>
<!-- Node1 -->
<g id="node1" class="node">
<title>Node1</title>
<polygon fill="#bfbfbf" stroke="#000000" points="0,-19.5 0,-39.5 144,-39.5 144,-19.5 0,-19.5"/>
<text text-anchor="middle" x="72" y="-26.5" font-family="FreeSans" font-size="10.00" fill="#000000">PHField2D::GetFieldValue</text>
</g>
<!-- Node2 -->
<g id="node2" class="node">
<title>Node2</title>
<g id="a_node2"><a xlink:href="../../db/d49/classPHField2D.html#a8697dfd40beaa724d06d0a44f928e570" target="_top" xlink:title="PHField2D::GetFieldCyl">
<polygon fill="none" stroke="#000000" points="180,-39.5 180,-59.5 311,-59.5 311,-39.5 180,-39.5"/>
<text text-anchor="middle" x="245.5" y="-46.5" font-family="FreeSans" font-size="10.00" fill="#000000">PHField2D::GetFieldCyl</text>
</a>
</g>
</g>
<!-- Node1&#45;&gt;Node2 -->
<g id="edge1" class="edge">
<title>Node1&#45;&gt;Node2</title>
<path fill="none" stroke="#191970" d="M144.0723,-37.808C152.5709,-38.7877 161.2631,-39.7897 169.8096,-40.7749"/>
<polygon fill="#191970" stroke="#191970" points="169.4203,-44.2531 179.7554,-41.9214 170.222,-37.2992 169.4203,-44.2531"/>
</g>
<!-- Node4 -->
<g id="node4" class="node">
<title>Node4</title>
<g id="a_node4"><a xlink:href="../../da/ddc/classPHField.html#a846981323fe8d6343fd39edf0024ee1f" target="_top" xlink:title="PHField::Verbosity">
<polygon fill="none" stroke="#000000" points="347,-.5 347,-20.5 454,-20.5 454,-.5 347,-.5"/>
<text text-anchor="middle" x="400.5" y="-7.5" font-family="FreeSans" font-size="10.00" fill="#000000">PHField::Verbosity</text>
</a>
</g>
</g>
<!-- Node1&#45;&gt;Node4 -->
<g id="edge4" class="edge">
<title>Node1&#45;&gt;Node4</title>
<path fill="none" stroke="#191970" d="M144.0907,-25.3304C201.6978,-21.9985 281.6672,-17.3731 336.9103,-14.1779"/>
<polygon fill="#191970" stroke="#191970" points="337.1455,-17.6703 346.9267,-13.5986 336.7412,-10.682 337.1455,-17.6703"/>
</g>
<!-- Node3 -->
<g id="node3" class="node">
<title>Node3</title>
<g id="a_node3"><a xlink:href="../../dd/d7e/namespaceActs_1_1Test.html#aab68614b5a83f070aef5b9d6b60d4b36" target="_top" xlink:title="Acts::Test::gauss">
<polygon fill="none" stroke="#000000" points="349.5,-39.5 349.5,-59.5 451.5,-59.5 451.5,-39.5 349.5,-39.5"/>
<text text-anchor="middle" x="400.5" y="-46.5" font-family="FreeSans" font-size="10.00" fill="#000000">Acts::Test::gauss</text>
</a>
</g>
</g>
<!-- Node2&#45;&gt;Node3 -->
<g id="edge2" class="edge">
<title>Node2&#45;&gt;Node3</title>
<path fill="none" stroke="#191970" d="M311.234,-49.5C320.4661,-49.5 329.9263,-49.5 339.0739,-49.5"/>
<polygon fill="#191970" stroke="#191970" points="339.2404,-53.0001 349.2404,-49.5 339.2403,-46.0001 339.2404,-53.0001"/>
</g>
<!-- Node2&#45;&gt;Node4 -->
<g id="edge3" class="edge">
<title>Node2&#45;&gt;Node4</title>
<path fill="none" stroke="#191970" d="M285.4164,-39.4565C305.3945,-34.4298 329.7691,-28.2968 350.9346,-22.9713"/>
<polygon fill="#191970" stroke="#191970" points="351.8752,-26.3438 360.7189,-20.5094 350.1671,-19.5554 351.8752,-26.3438"/>
</g>
</g>
</svg>
