<?xml version="1.0" encoding="UTF-8" standalone="no"?>
<!DOCTYPE svg PUBLIC "-//W3C//DTD SVG 1.1//EN"
 "http://www.w3.org/Graphics/SVG/1.1/DTD/svg11.dtd">
<!-- Generated by graphviz version 2.40.1 (20161225.0304)
 -->
<!-- Title: analysis/blob/master/TPC/DAQ/macros/DrawTPCIntegratedCharge.C Pages: 1 -->
<svg width="1056pt" height="110pt"
 viewBox="0.00 0.00 1055.50 110.00" xmlns="http://www.w3.org/2000/svg" xmlns:xlink="http://www.w3.org/1999/xlink">
<g id="graph0" class="graph" transform="scale(1 1) rotate(0) translate(4 106)">
<title>analysis/blob/master/TPC/DAQ/macros/DrawTPCIntegratedCharge.C</title>
<!-- Node1 -->
<g id="node1" class="node">
<title>Node1</title>
<polygon fill="#bfbfbf" stroke="#000000" points="445.5,-57.5 445.5,-101.5 652.5,-101.5 652.5,-57.5 445.5,-57.5"/>
<text text-anchor="start" x="453.5" y="-88.5" font-family="FreeSans" font-size="10.00" fill="#000000">analysis/blob/master</text>
<text text-anchor="start" x="453.5" y="-76.5" font-family="FreeSans" font-size="10.00" fill="#000000">/TPC/DAQ/macros/DrawTPCIntegrated</text>
<text text-anchor="middle" x="549" y="-64.5" font-family="FreeSans" font-size="10.00" fill="#000000">Charge.C</text>
</g>
<!-- Node2 -->
<g id="node2" class="node">
<title>Node2</title>
<polygon fill="none" stroke="#bfbfbf" points="0,-.5 0,-20.5 50,-20.5 50,-.5 0,-.5"/>
<text text-anchor="middle" x="25" y="-7.5" font-family="FreeSans" font-size="10.00" fill="#000000">TFile.h</text>
</g>
<!-- Node1&#45;&gt;Node2 -->
<g id="edge1" class="edge">
<title>Node1&#45;&gt;Node2</title>
<path fill="none" stroke="#191970" d="M445.3454,-72.5898C347.8921,-64.8417 198.0096,-49.7066 60.0305,-20.9086"/>
<polygon fill="#191970" stroke="#191970" points="60.6254,-17.4571 50.1175,-18.8115 59.1765,-24.3055 60.6254,-17.4571"/>
</g>
<!-- Node3 -->
<g id="node3" class="node">
<title>Node3</title>
<polygon fill="none" stroke="#bfbfbf" points="68.5,-.5 68.5,-20.5 199.5,-20.5 199.5,-.5 68.5,-.5"/>
<text text-anchor="middle" x="134" y="-7.5" font-family="FreeSans" font-size="10.00" fill="#000000">TGraphAsymmErrors.h</text>
</g>
<!-- Node1&#45;&gt;Node3 -->
<g id="edge2" class="edge">
<title>Node1&#45;&gt;Node3</title>
<path fill="none" stroke="#191970" d="M445.3485,-62.2664C370.1053,-49.7561 270.3158,-33.1646 204.2251,-22.176"/>
<polygon fill="#191970" stroke="#191970" points="204.7598,-18.7169 194.3212,-20.5293 203.6117,-25.6221 204.7598,-18.7169"/>
</g>
<!-- Node4 -->
<g id="node4" class="node">
<title>Node4</title>
<polygon fill="none" stroke="#bfbfbf" points="217.5,-.5 217.5,-20.5 310.5,-20.5 310.5,-.5 217.5,-.5"/>
<text text-anchor="middle" x="264" y="-7.5" font-family="FreeSans" font-size="10.00" fill="#000000">TGraphErrors.h</text>
</g>
<!-- Node1&#45;&gt;Node4 -->
<g id="edge3" class="edge">
<title>Node1&#45;&gt;Node4</title>
<path fill="none" stroke="#191970" d="M458.0406,-57.4783C410.9847,-46.0858 355.263,-32.5953 315.6308,-23.0001"/>
<polygon fill="#191970" stroke="#191970" points="316.2059,-19.5383 305.6631,-20.5869 314.5587,-26.3417 316.2059,-19.5383"/>
</g>
<!-- Node5 -->
<g id="node5" class="node">
<title>Node5</title>
<polygon fill="none" stroke="#bfbfbf" points="328.5,-.5 328.5,-20.5 375.5,-20.5 375.5,-.5 328.5,-.5"/>
<text text-anchor="middle" x="352" y="-7.5" font-family="FreeSans" font-size="10.00" fill="#000000">TH2.h</text>
</g>
<!-- Node1&#45;&gt;Node5 -->
<g id="edge4" class="edge">
<title>Node1&#45;&gt;Node5</title>
<path fill="none" stroke="#191970" d="M486.1263,-57.4783C452.6301,-45.7461 412.7812,-31.7888 385.2682,-22.1523"/>
<polygon fill="#191970" stroke="#191970" points="386.3194,-18.8121 375.7245,-18.8096 384.0054,-25.4186 386.3194,-18.8121"/>
</g>
<!-- Node6 -->
<g id="node6" class="node">
<title>Node6</title>
<polygon fill="none" stroke="#bfbfbf" points="394,-.5 394,-20.5 454,-20.5 454,-.5 394,-.5"/>
<text text-anchor="middle" x="424" y="-7.5" font-family="FreeSans" font-size="10.00" fill="#000000">TLatex.h</text>
</g>
<!-- Node1&#45;&gt;Node6 -->
<g id="edge5" class="edge">
<title>Node1&#45;&gt;Node6</title>
<path fill="none" stroke="#191970" d="M509.1055,-57.4783C490.1759,-47.0291 468.0489,-34.815 451.102,-25.4603"/>
<polygon fill="#191970" stroke="#191970" points="452.7195,-22.3554 442.2733,-20.5869 449.3366,-28.4837 452.7195,-22.3554"/>
</g>
<!-- Node7 -->
<g id="node7" class="node">
<title>Node7</title>
<polygon fill="none" stroke="#bfbfbf" points="472,-.5 472,-20.5 542,-20.5 542,-.5 472,-.5"/>
<text text-anchor="middle" x="507" y="-7.5" font-family="FreeSans" font-size="10.00" fill="#000000">TLegend.h</text>
</g>
<!-- Node1&#45;&gt;Node7 -->
<g id="edge6" class="edge">
<title>Node1&#45;&gt;Node7</title>
<path fill="none" stroke="#191970" d="M535.4797,-57.2882C529.9853,-48.2615 523.7049,-37.9438 518.4425,-29.2984"/>
<polygon fill="#191970" stroke="#191970" points="521.4062,-27.4358 513.217,-20.7137 515.4268,-31.0755 521.4062,-27.4358"/>
</g>
<!-- Node8 -->
<g id="node8" class="node">
<title>Node8</title>
<polygon fill="none" stroke="#bfbfbf" points="560.5,-.5 560.5,-20.5 623.5,-20.5 623.5,-.5 560.5,-.5"/>
<text text-anchor="middle" x="592" y="-7.5" font-family="FreeSans" font-size="10.00" fill="#000000">TString.h</text>
</g>
<!-- Node1&#45;&gt;Node8 -->
<g id="edge7" class="edge">
<title>Node1&#45;&gt;Node8</title>
<path fill="none" stroke="#191970" d="M562.8422,-57.2882C568.4675,-48.2615 574.8973,-37.9438 580.2851,-29.2984"/>
<polygon fill="#191970" stroke="#191970" points="583.3164,-31.0517 585.635,-20.7137 577.3756,-27.3494 583.3164,-31.0517"/>
</g>
<!-- Node9 -->
<g id="node9" class="node">
<title>Node9</title>
<polygon fill="none" stroke="#bfbfbf" points="641.5,-.5 641.5,-20.5 694.5,-20.5 694.5,-.5 641.5,-.5"/>
<text text-anchor="middle" x="668" y="-7.5" font-family="FreeSans" font-size="10.00" fill="#000000">TTree.h</text>
</g>
<!-- Node1&#45;&gt;Node9 -->
<g id="edge8" class="edge">
<title>Node1&#45;&gt;Node9</title>
<path fill="none" stroke="#191970" d="M586.9795,-57.4783C604.8337,-47.1259 625.6757,-35.041 641.7494,-25.7209"/>
<polygon fill="#191970" stroke="#191970" points="643.7085,-28.6308 650.6038,-20.5869 640.1972,-22.5752 643.7085,-28.6308"/>
</g>
<!-- Node10 -->
<g id="node10" class="node">
<title>Node10</title>
<polygon fill="none" stroke="#bfbfbf" points="712.5,-.5 712.5,-20.5 765.5,-20.5 765.5,-.5 712.5,-.5"/>
<text text-anchor="middle" x="739" y="-7.5" font-family="FreeSans" font-size="10.00" fill="#000000">cassert</text>
</g>
<!-- Node1&#45;&gt;Node10 -->
<g id="edge9" class="edge">
<title>Node1&#45;&gt;Node10</title>
<path fill="none" stroke="#191970" d="M609.6396,-57.4783C640.3594,-46.3221 676.6193,-33.1541 702.9214,-23.6022"/>
<polygon fill="#191970" stroke="#191970" points="704.2775,-26.8335 712.4821,-20.1302 701.888,-20.2539 704.2775,-26.8335"/>
</g>
<!-- Node11 -->
<g id="node11" class="node">
<title>Node11</title>
<polygon fill="none" stroke="#bfbfbf" points="784,-.5 784,-20.5 832,-20.5 832,-.5 784,-.5"/>
<text text-anchor="middle" x="808" y="-7.5" font-family="FreeSans" font-size="10.00" fill="#000000">cmath</text>
</g>
<!-- Node1&#45;&gt;Node11 -->
<g id="edge10" class="edge">
<title>Node1&#45;&gt;Node11</title>
<path fill="none" stroke="#191970" d="M638.6697,-57.4903C677.7592,-47.607 724.2846,-35.458 774.203,-21.1339"/>
<polygon fill="#191970" stroke="#191970" points="775.258,-24.4723 783.8958,-18.3373 773.3175,-17.7467 775.258,-24.4723"/>
</g>
<!-- Node12 -->
<g id="node12" class="node">
<title>Node12</title>
<polygon fill="none" stroke="#bfbfbf" points="850,-.5 850,-20.5 938,-20.5 938,-.5 850,-.5"/>
<text text-anchor="middle" x="894" y="-7.5" font-family="FreeSans" font-size="10.00" fill="#000000">SaveCanvas.C</text>
</g>
<!-- Node1&#45;&gt;Node12 -->
<g id="edge11" class="edge">
<title>Node1&#45;&gt;Node12</title>
<path fill="none" stroke="#191970" d="M652.5114,-58.7977C714.1597,-46.4681 789.8827,-31.3235 839.9161,-21.3168"/>
<polygon fill="#191970" stroke="#191970" points="840.7589,-24.7176 849.8783,-19.3243 839.386,-17.8536 840.7589,-24.7176"/>
</g>
<!-- Node13 -->
<g id="node13" class="node">
<title>Node13</title>
<polygon fill="none" stroke="#bfbfbf" points="956.5,-.5 956.5,-20.5 1047.5,-20.5 1047.5,-.5 956.5,-.5"/>
<text text-anchor="middle" x="1002" y="-7.5" font-family="FreeSans" font-size="10.00" fill="#000000">sPhenixStyle.C</text>
</g>
<!-- Node1&#45;&gt;Node13 -->
<g id="edge12" class="edge">
<title>Node1&#45;&gt;Node13</title>
<path fill="none" stroke="#191970" d="M652.6864,-65.4955C730.6829,-54.6713 840.4349,-38.8272 946.4879,-21.0314"/>
<polygon fill="#191970" stroke="#191970" points="947.1294,-24.4727 956.4085,-19.3591 945.9658,-17.5701 947.1294,-24.4727"/>
</g>
</g>
</svg>
