<?xml version="1.0" encoding="UTF-8" standalone="no"?>
<!DOCTYPE svg PUBLIC "-//W3C//DTD SVG 1.1//EN"
 "http://www.w3.org/Graphics/SVG/1.1/DTD/svg11.dtd">
<!-- Generated by graphviz version 2.40.1 (20161225.0304)
 -->
<!-- Title: PHG4MvtxSubsystem::InitRunSubsystem Pages: 1 -->
<svg width="541pt" height="837pt"
 viewBox="0.00 0.00 541.00 837.00" xmlns="http://www.w3.org/2000/svg" xmlns:xlink="http://www.w3.org/1999/xlink">
<g id="graph0" class="graph" transform="scale(1 1) rotate(0) translate(4 833)">
<title>PHG4MvtxSubsystem::InitRunSubsystem</title>
<!-- Node1 -->
<g id="node1" class="node">
<title>Node1</title>
<polygon fill="#bfbfbf" stroke="#000000" points="0,-373.5 0,-405.5 131,-405.5 131,-373.5 0,-373.5"/>
<text text-anchor="start" x="8" y="-392.5" font-family="FreeSans" font-size="10.00" fill="#000000">PHG4MvtxSubsystem::</text>
<text text-anchor="middle" x="65.5" y="-380.5" font-family="FreeSans" font-size="10.00" fill="#000000">InitRunSubsystem</text>
</g>
<!-- Node2 -->
<g id="node2" class="node">
<title>Node2</title>
<g id="a_node2"><a xlink:href="../../d5/dca/classPHCompositeNode.html#a15a0c4804399a9de4267647f05bd1ba4" target="_top" xlink:title="PHCompositeNode::addNode">
<polygon fill="none" stroke="#000000" points="182.5,-789.5 182.5,-809.5 344.5,-809.5 344.5,-789.5 182.5,-789.5"/>
<text text-anchor="middle" x="263.5" y="-796.5" font-family="FreeSans" font-size="10.00" fill="#000000">PHCompositeNode::addNode</text>
</a>
</g>
</g>
<!-- Node1&#45;&gt;Node2 -->
<g id="edge1" class="edge">
<title>Node1&#45;&gt;Node2</title>
<path fill="none" stroke="#191970" d="M67.3972,-405.5339C75.62,-472.283 110.3392,-727.1183 167,-780.5 168.9574,-782.3442 171.0393,-784.0333 173.2228,-785.5796"/>
<polygon fill="#191970" stroke="#191970" points="171.7173,-788.7564 182.1011,-790.8607 175.2959,-782.7403 171.7173,-788.7564"/>
</g>
<!-- Node6 -->
<g id="node6" class="node">
<title>Node6</title>
<g id="a_node6"><a xlink:href="../../d7/d7f/classPHG4DetectorGroupSubsystem.html#aa961d4bf5d9d5b94d6f4b52018a27896" target="_top" xlink:title="PHG4DetectorGroupSubsystem\l::CheckOverlap">
<polygon fill="none" stroke="#000000" points="176,-738.5 176,-770.5 351,-770.5 351,-738.5 176,-738.5"/>
<text text-anchor="start" x="184" y="-757.5" font-family="FreeSans" font-size="10.00" fill="#000000">PHG4DetectorGroupSubsystem</text>
<text text-anchor="middle" x="263.5" y="-745.5" font-family="FreeSans" font-size="10.00" fill="#000000">::CheckOverlap</text>
</a>
</g>
</g>
<!-- Node1&#45;&gt;Node6 -->
<g id="edge5" class="edge">
<title>Node1&#45;&gt;Node6</title>
<path fill="none" stroke="#191970" d="M68.2046,-405.8202C78.682,-467.1461 118.4376,-682.6839 167,-729.5 167.9812,-730.4459 168.9933,-731.3573 170.0336,-732.2353"/>
<polygon fill="#191970" stroke="#191970" points="168.3509,-735.3364 178.5125,-738.3351 172.4388,-729.654 168.3509,-735.3364"/>
</g>
<!-- Node7 -->
<g id="node7" class="node">
<title>Node7</title>
<g id="a_node7"><a xlink:href="../../d4/dc1/classPHG4MvtxDetector.html#acc1a14c8f013395462cc52d70dd3880e" target="_top" xlink:title="PHG4MvtxDetector::Detector">
<polygon fill="none" stroke="#000000" points="182,-699.5 182,-719.5 345,-719.5 345,-699.5 182,-699.5"/>
<text text-anchor="middle" x="263.5" y="-706.5" font-family="FreeSans" font-size="10.00" fill="#000000">PHG4MvtxDetector::Detector</text>
</a>
</g>
</g>
<!-- Node1&#45;&gt;Node7 -->
<g id="edge6" class="edge">
<title>Node1&#45;&gt;Node7</title>
<path fill="none" stroke="#191970" d="M68.7171,-405.5819C80.3636,-462.204 122.0146,-651.0461 167,-690.5 168.9657,-692.224 171.0415,-693.8098 173.2073,-695.2676"/>
<polygon fill="#191970" stroke="#191970" points="171.5458,-698.3494 181.9636,-700.2786 175.0227,-692.2739 171.5458,-698.3494"/>
</g>
<!-- Node8 -->
<g id="node8" class="node">
<title>Node8</title>
<g id="a_node8"><a xlink:href="../../d5/d07/classPHNodeIterator.html#aea98bf8619af59b1212a94fb32106baa" target="_top" xlink:title="PHNodeIterator::findFirst">
<polygon fill="none" stroke="#000000" points="193,-642.5 193,-662.5 334,-662.5 334,-642.5 193,-642.5"/>
<text text-anchor="middle" x="263.5" y="-649.5" font-family="FreeSans" font-size="10.00" fill="#000000">PHNodeIterator::findFirst</text>
</a>
</g>
</g>
<!-- Node1&#45;&gt;Node8 -->
<g id="edge7" class="edge">
<title>Node1&#45;&gt;Node8</title>
<path fill="none" stroke="#191970" d="M67.0756,-405.6459C72.2917,-449.767 93.1267,-573.087 167,-633.5 171.9443,-637.5434 177.5041,-640.8109 183.3938,-643.4428"/>
<polygon fill="#191970" stroke="#191970" points="182.2894,-646.7677 192.8798,-647.0757 184.793,-640.2307 182.2894,-646.7677"/>
</g>
<!-- Node10 -->
<g id="node10" class="node">
<title>Node10</title>
<g id="a_node10"><a xlink:href="../../dd/dae/classPHParameters.html#a0241ca27a369ab4865ac3d79620ac27c" target="_top" xlink:title="PHParameters::get_int\l_param">
<polygon fill="none" stroke="#000000" points="199,-591.5 199,-623.5 328,-623.5 328,-591.5 199,-591.5"/>
<text text-anchor="start" x="207" y="-610.5" font-family="FreeSans" font-size="10.00" fill="#000000">PHParameters::get_int</text>
<text text-anchor="middle" x="263.5" y="-598.5" font-family="FreeSans" font-size="10.00" fill="#000000">_param</text>
</a>
</g>
</g>
<!-- Node1&#45;&gt;Node10 -->
<g id="edge11" class="edge">
<title>Node1&#45;&gt;Node10</title>
<path fill="none" stroke="#191970" d="M69.2125,-405.5758C78.6591,-442.757 107.2101,-535.1247 167,-582.5 173.6784,-587.7917 181.3573,-591.9727 189.4049,-595.2745"/>
<polygon fill="#191970" stroke="#191970" points="188.3895,-598.6295 198.9835,-598.7604 190.7834,-592.0515 188.3895,-598.6295"/>
</g>
<!-- Node11 -->
<g id="node11" class="node">
<title>Node11</title>
<g id="a_node11"><a xlink:href="../../d7/d7f/classPHG4DetectorGroupSubsystem.html#a2525d2d21dc85e31b5fcdf989836e3cd" target="_top" xlink:title="PHG4DetectorGroupSubsystem\l::GetDetIds">
<polygon fill="none" stroke="#000000" points="176,-540.5 176,-572.5 351,-572.5 351,-540.5 176,-540.5"/>
<text text-anchor="start" x="184" y="-559.5" font-family="FreeSans" font-size="10.00" fill="#000000">PHG4DetectorGroupSubsystem</text>
<text text-anchor="middle" x="263.5" y="-547.5" font-family="FreeSans" font-size="10.00" fill="#000000">::GetDetIds</text>
</a>
</g>
</g>
<!-- Node1&#45;&gt;Node11 -->
<g id="edge12" class="edge">
<title>Node1&#45;&gt;Node11</title>
<path fill="none" stroke="#191970" d="M72.3671,-405.5111C85.9269,-435.1545 119.0414,-498.559 167,-531.5 169.2624,-533.054 171.6149,-534.5114 174.0376,-535.8782"/>
<polygon fill="#191970" stroke="#191970" points="172.5766,-539.0613 183.0812,-540.4416 175.7302,-532.8118 172.5766,-539.0613"/>
</g>
<!-- Node12 -->
<g id="node12" class="node">
<title>Node12</title>
<g id="a_node12"><a xlink:href="../../d7/d6b/classPHParametersContainer.html#acd9a156fc1b8026ebe9d7e7ab051a560" target="_top" xlink:title="PHParametersContainer\l::GetParameters">
<polygon fill="none" stroke="#000000" points="195,-489.5 195,-521.5 332,-521.5 332,-489.5 195,-489.5"/>
<text text-anchor="start" x="203" y="-508.5" font-family="FreeSans" font-size="10.00" fill="#000000">PHParametersContainer</text>
<text text-anchor="middle" x="263.5" y="-496.5" font-family="FreeSans" font-size="10.00" fill="#000000">::GetParameters</text>
</a>
</g>
</g>
<!-- Node1&#45;&gt;Node12 -->
<g id="edge13" class="edge">
<title>Node1&#45;&gt;Node12</title>
<path fill="none" stroke="#191970" d="M78.8997,-405.5387C96.8601,-425.9935 130.7082,-461.0397 167,-480.5 172.8411,-483.6321 179.0942,-486.3866 185.5053,-488.8063"/>
<polygon fill="#191970" stroke="#191970" points="184.3869,-492.123 194.9817,-492.117 186.6956,-485.5147 184.3869,-492.123"/>
</g>
<!-- Node13 -->
<g id="node13" class="node">
<title>Node13</title>
<g id="a_node13"><a xlink:href="../../d7/d7f/classPHG4DetectorGroupSubsystem.html#a33ab01b8ee11ec1550290c18085c9ff2" target="_top" xlink:title="PHG4DetectorGroupSubsystem\l::GetParamsContainer">
<polygon fill="none" stroke="#000000" points="176,-438.5 176,-470.5 351,-470.5 351,-438.5 176,-438.5"/>
<text text-anchor="start" x="184" y="-457.5" font-family="FreeSans" font-size="10.00" fill="#000000">PHG4DetectorGroupSubsystem</text>
<text text-anchor="middle" x="263.5" y="-445.5" font-family="FreeSans" font-size="10.00" fill="#000000">::GetParamsContainer</text>
</a>
</g>
</g>
<!-- Node1&#45;&gt;Node13 -->
<g id="edge14" class="edge">
<title>Node1&#45;&gt;Node13</title>
<path fill="none" stroke="#191970" d="M103.1781,-405.6164C122.1268,-413.3955 145.5659,-422.5288 167,-429.5 173.524,-431.6219 180.3415,-433.686 187.2049,-435.6595"/>
<polygon fill="#191970" stroke="#191970" points="186.6912,-439.1505 197.2649,-438.4821 188.5823,-432.4107 186.6912,-439.1505"/>
</g>
<!-- Node14 -->
<g id="node14" class="node">
<title>Node14</title>
<g id="a_node14"><a xlink:href="../../d5/dec/classFun4AllBase.html#a41f9ac377743d046f590617fd6f4f0ed" target="_top" xlink:title="Returns the name of this module.">
<polygon fill="none" stroke="#000000" points="206,-399.5 206,-419.5 321,-419.5 321,-399.5 206,-399.5"/>
<text text-anchor="middle" x="263.5" y="-406.5" font-family="FreeSans" font-size="10.00" fill="#000000">Fun4AllBase::Name</text>
</a>
</g>
</g>
<!-- Node1&#45;&gt;Node14 -->
<g id="edge15" class="edge">
<title>Node1&#45;&gt;Node14</title>
<path fill="none" stroke="#191970" d="M131.1561,-396.1319C151.9552,-398.2329 174.9776,-400.5583 195.9099,-402.6727"/>
<polygon fill="#191970" stroke="#191970" points="195.6979,-406.169 205.9991,-403.6918 196.4015,-399.2045 195.6979,-406.169"/>
</g>
<!-- Node15 -->
<g id="node15" class="node">
<title>Node15</title>
<g id="a_node15"><a xlink:href="../../d3/de7/classPHG4Detector.html#a1a914e84447dd5ab89745cb9fcd1942e" target="_top" xlink:title="PHG4Detector::OverlapCheck">
<polygon fill="none" stroke="#000000" points="180.5,-360.5 180.5,-380.5 346.5,-380.5 346.5,-360.5 180.5,-360.5"/>
<text text-anchor="middle" x="263.5" y="-367.5" font-family="FreeSans" font-size="10.00" fill="#000000">PHG4Detector::OverlapCheck</text>
</a>
</g>
</g>
<!-- Node1&#45;&gt;Node15 -->
<g id="edge16" class="edge">
<title>Node1&#45;&gt;Node15</title>
<path fill="none" stroke="#191970" d="M131.1561,-383.1997C143.7147,-381.9945 157.0839,-380.7116 170.3141,-379.4421"/>
<polygon fill="#191970" stroke="#191970" points="170.7686,-382.9146 180.3885,-378.4753 170.0999,-375.9466 170.7686,-382.9146"/>
</g>
<!-- Node16 -->
<g id="node16" class="node">
<title>Node16</title>
<g id="a_node16"><a xlink:href="../../d7/d6b/classPHParametersContainer.html#acefc0c0fb122b49e5cc43f3d0a6f0684" target="_top" xlink:title="PHParametersContainer\l::Print">
<polygon fill="none" stroke="#000000" points="195,-309.5 195,-341.5 332,-341.5 332,-309.5 195,-309.5"/>
<text text-anchor="start" x="203" y="-328.5" font-family="FreeSans" font-size="10.00" fill="#000000">PHParametersContainer</text>
<text text-anchor="middle" x="263.5" y="-316.5" font-family="FreeSans" font-size="10.00" fill="#000000">::Print</text>
</a>
</g>
</g>
<!-- Node1&#45;&gt;Node16 -->
<g id="edge17" class="edge">
<title>Node1&#45;&gt;Node16</title>
<path fill="none" stroke="#191970" d="M105.6917,-373.4485C124.2153,-366.3108 146.5768,-358.058 167,-351.5 174.6341,-349.0486 182.6565,-346.6351 190.6783,-344.3256"/>
<polygon fill="#191970" stroke="#191970" points="191.7673,-347.6549 200.4366,-341.5645 189.8615,-340.9193 191.7673,-347.6549"/>
</g>
<!-- Node18 -->
<g id="node18" class="node">
<title>Node18</title>
<g id="a_node18"><a xlink:href="../../df/d3f/classPHG4SteppingAction.html#aa0f91fa618a033925eca40283ef72c6f" target="_top" xlink:title="Set the G4HIT node names from Subsystem rather than constructing your own.">
<polygon fill="none" stroke="#000000" points="203,-258.5 203,-290.5 324,-290.5 324,-258.5 203,-258.5"/>
<text text-anchor="start" x="211" y="-277.5" font-family="FreeSans" font-size="10.00" fill="#000000">PHG4SteppingAction</text>
<text text-anchor="middle" x="263.5" y="-265.5" font-family="FreeSans" font-size="10.00" fill="#000000">::SetHitNodeName</text>
</a>
</g>
</g>
<!-- Node1&#45;&gt;Node18 -->
<g id="edge19" class="edge">
<title>Node1&#45;&gt;Node18</title>
<path fill="none" stroke="#191970" d="M79.6339,-373.1867C97.8593,-353.1615 131.4617,-319.5255 167,-300.5 175.1443,-296.1399 184.0751,-292.4688 193.1128,-289.3887"/>
<polygon fill="#191970" stroke="#191970" points="194.4565,-292.6344 202.9296,-286.2737 192.3393,-285.9622 194.4565,-292.6344"/>
</g>
<!-- Node19 -->
<g id="node19" class="node">
<title>Node19</title>
<g id="a_node19"><a xlink:href="../../d4/dc1/classPHG4MvtxDetector.html#a362865c6d6150f776f8bacbcb9a90efe" target="_top" xlink:title="PHG4MvtxDetector::SuperDetector">
<polygon fill="none" stroke="#000000" points="167,-219.5 167,-239.5 360,-239.5 360,-219.5 167,-219.5"/>
<text text-anchor="middle" x="263.5" y="-226.5" font-family="FreeSans" font-size="10.00" fill="#000000">PHG4MvtxDetector::SuperDetector</text>
</a>
</g>
</g>
<!-- Node1&#45;&gt;Node19 -->
<g id="edge20" class="edge">
<title>Node1&#45;&gt;Node19</title>
<path fill="none" stroke="#191970" d="M72.2833,-373.4928C85.7035,-343.8975 118.5945,-280.7951 167,-249.5 170.5561,-247.2009 174.3266,-245.1594 178.2368,-243.3472"/>
<polygon fill="#191970" stroke="#191970" points="179.6512,-246.5502 187.5789,-239.5216 176.9984,-240.0723 179.6512,-246.5502"/>
</g>
<!-- Node20 -->
<g id="node20" class="node">
<title>Node20</title>
<g id="a_node20"><a xlink:href="../../d7/d7f/classPHG4DetectorGroupSubsystem.html#a0fea003f8acfb04f8a49dba5254aa5c9" target="_top" xlink:title="PHG4DetectorGroupSubsystem\l::SuperDetector">
<polygon fill="none" stroke="#000000" points="176,-168.5 176,-200.5 351,-200.5 351,-168.5 176,-168.5"/>
<text text-anchor="start" x="184" y="-187.5" font-family="FreeSans" font-size="10.00" fill="#000000">PHG4DetectorGroupSubsystem</text>
<text text-anchor="middle" x="263.5" y="-175.5" font-family="FreeSans" font-size="10.00" fill="#000000">::SuperDetector</text>
</a>
</g>
</g>
<!-- Node1&#45;&gt;Node20 -->
<g id="edge21" class="edge">
<title>Node1&#45;&gt;Node20</title>
<path fill="none" stroke="#191970" d="M69.9962,-373.3045C80.6395,-338.0502 110.7972,-254.0358 167,-210.5 169.3147,-208.707 171.7436,-207.0373 174.2615,-205.4826"/>
<polygon fill="#191970" stroke="#191970" points="176.0387,-208.4999 183.129,-200.6272 172.6768,-202.3601 176.0387,-208.4999"/>
</g>
<!-- Node21 -->
<g id="node21" class="node">
<title>Node21</title>
<g id="a_node21"><a xlink:href="../../d3/de7/classPHG4Detector.html#a3524241bcf8984af140ba78a3e6925a6" target="_top" xlink:title="PHG4Detector::topNode">
<polygon fill="none" stroke="#000000" points="195,-129.5 195,-149.5 332,-149.5 332,-129.5 195,-129.5"/>
<text text-anchor="middle" x="263.5" y="-136.5" font-family="FreeSans" font-size="10.00" fill="#000000">PHG4Detector::topNode</text>
</a>
</g>
</g>
<!-- Node1&#45;&gt;Node21 -->
<g id="edge22" class="edge">
<title>Node1&#45;&gt;Node21</title>
<path fill="none" stroke="#191970" d="M67.555,-373.3827C73.8503,-331.0642 96.9057,-216.1569 167,-159.5 172.4535,-155.092 178.6342,-151.5827 185.1694,-148.7975"/>
<polygon fill="#191970" stroke="#191970" points="186.7678,-151.9396 194.9546,-145.2145 184.3609,-145.3664 186.7678,-151.9396"/>
</g>
<!-- Node22 -->
<g id="node22" class="node">
<title>Node22</title>
<g id="a_node22"><a xlink:href="../../df/d3f/classPHG4SteppingAction.html#a693ac1159f06460044936f3083d361a5" target="_top" xlink:title="PHG4SteppingAction\l::Verbosity">
<polygon fill="none" stroke="#000000" points="203,-78.5 203,-110.5 324,-110.5 324,-78.5 203,-78.5"/>
<text text-anchor="start" x="211" y="-97.5" font-family="FreeSans" font-size="10.00" fill="#000000">PHG4SteppingAction</text>
<text text-anchor="middle" x="263.5" y="-85.5" font-family="FreeSans" font-size="10.00" fill="#000000">::Verbosity</text>
</a>
</g>
</g>
<!-- Node1&#45;&gt;Node22 -->
<g id="edge23" class="edge">
<title>Node1&#45;&gt;Node22</title>
<path fill="none" stroke="#191970" d="M66.6326,-373.3859C70.7944,-326.8191 89.3512,-190.9156 167,-120.5 174.519,-113.6814 183.6407,-108.6214 193.2401,-104.8724"/>
<polygon fill="#191970" stroke="#191970" points="194.631,-108.0957 202.957,-101.5437 192.3624,-101.4735 194.631,-108.0957"/>
</g>
<!-- Node23 -->
<g id="node23" class="node">
<title>Node23</title>
<g id="a_node23"><a xlink:href="../../d3/de7/classPHG4Detector.html#a0c0c0aaaa92b69fcca54ffad216c75b1" target="_top" xlink:title="PHG4Detector::Verbosity">
<polygon fill="none" stroke="#000000" points="192.5,-39.5 192.5,-59.5 334.5,-59.5 334.5,-39.5 192.5,-39.5"/>
<text text-anchor="middle" x="263.5" y="-46.5" font-family="FreeSans" font-size="10.00" fill="#000000">PHG4Detector::Verbosity</text>
</a>
</g>
</g>
<!-- Node1&#45;&gt;Node23 -->
<g id="edge24" class="edge">
<title>Node1&#45;&gt;Node23</title>
<path fill="none" stroke="#191970" d="M68.4273,-373.2538C79.3928,-314.1842 119.83,-112.0546 167,-69.5 171.752,-65.213 177.1756,-61.7517 182.9731,-58.9665"/>
<polygon fill="#191970" stroke="#191970" points="184.4224,-62.1552 192.3485,-55.1247 181.7681,-55.6779 184.4224,-62.1552"/>
</g>
<!-- Node24 -->
<g id="node24" class="node">
<title>Node24</title>
<g id="a_node24"><a xlink:href="../../d5/dec/classFun4AllBase.html#a8a5c77a92bdac6bc043476e132379a40" target="_top" xlink:title="Gets the verbosity of this module.">
<polygon fill="none" stroke="#000000" points="197.5,-.5 197.5,-20.5 329.5,-20.5 329.5,-.5 197.5,-.5"/>
<text text-anchor="middle" x="263.5" y="-7.5" font-family="FreeSans" font-size="10.00" fill="#000000">Fun4AllBase::Verbosity</text>
</a>
</g>
</g>
<!-- Node1&#45;&gt;Node24 -->
<g id="edge25" class="edge">
<title>Node1&#45;&gt;Node24</title>
<path fill="none" stroke="#191970" d="M67.8638,-373.0792C77.3754,-309.2866 114.8605,-79.0545 167,-30.5 172.8986,-25.007 179.8941,-20.8584 187.3831,-17.7454"/>
<polygon fill="#191970" stroke="#191970" points="188.8149,-20.952 197.0876,-14.3328 186.4928,-14.3484 188.8149,-20.952"/>
</g>
<!-- Node3 -->
<g id="node3" class="node">
<title>Node3</title>
<g id="a_node3"><a xlink:href="../../d6/d86/classPHPointerList.html#ac2176735e9d046a034f1686fd2c477eb" target="_top" xlink:title="PHPointerList::append">
<polygon fill="none" stroke="#000000" points="400.5,-808.5 400.5,-828.5 528.5,-828.5 528.5,-808.5 400.5,-808.5"/>
<text text-anchor="middle" x="464.5" y="-815.5" font-family="FreeSans" font-size="10.00" fill="#000000">PHPointerList::append</text>
</a>
</g>
</g>
<!-- Node2&#45;&gt;Node3 -->
<g id="edge2" class="edge">
<title>Node2&#45;&gt;Node3</title>
<path fill="none" stroke="#191970" d="M344.675,-807.1733C359.7244,-808.5958 375.3746,-810.0752 390.2062,-811.4772"/>
<polygon fill="#191970" stroke="#191970" points="390.0409,-814.9771 400.3259,-812.4338 390.6997,-808.0082 390.0409,-814.9771"/>
</g>
<!-- Node4 -->
<g id="node4" class="node">
<title>Node4</title>
<g id="a_node4"><a xlink:href="../../dc/d82/classPHNode.html#aca3576f926a4401eddc3d88bf0ce0de3" target="_top" xlink:title="PHNode::getName">
<polygon fill="none" stroke="#000000" points="410,-715.5 410,-735.5 519,-735.5 519,-715.5 410,-715.5"/>
<text text-anchor="middle" x="464.5" y="-722.5" font-family="FreeSans" font-size="10.00" fill="#000000">PHNode::getName</text>
</a>
</g>
</g>
<!-- Node2&#45;&gt;Node4 -->
<g id="edge3" class="edge">
<title>Node2&#45;&gt;Node4</title>
<path fill="none" stroke="#191970" d="M329.1475,-789.4519C339.6192,-787.031 350.2183,-784.0789 360,-780.5 377.1889,-774.2109 379.8481,-769.1097 396,-760.5 408.7398,-753.7091 422.9348,-746.4124 435.0843,-740.2481"/>
<polygon fill="#191970" stroke="#191970" points="436.9768,-743.2132 444.3225,-735.5784 433.8189,-736.966 436.9768,-743.2132"/>
</g>
<!-- Node5 -->
<g id="node5" class="node">
<title>Node5</title>
<g id="a_node5"><a xlink:href="../../dc/d82/classPHNode.html#adda2bd6cef2d5067bbe3016a990b7198" target="_top" xlink:title="PHNode::setParent">
<polygon fill="none" stroke="#000000" points="409,-769.5 409,-789.5 520,-789.5 520,-769.5 409,-769.5"/>
<text text-anchor="middle" x="464.5" y="-776.5" font-family="FreeSans" font-size="10.00" fill="#000000">PHNode::setParent</text>
</a>
</g>
</g>
<!-- Node2&#45;&gt;Node5 -->
<g id="edge4" class="edge">
<title>Node2&#45;&gt;Node5</title>
<path fill="none" stroke="#191970" d="M344.675,-791.4229C362.7088,-789.6285 381.6052,-787.7482 398.922,-786.0252"/>
<polygon fill="#191970" stroke="#191970" points="399.3125,-789.5037 408.9168,-785.0307 398.6194,-782.5381 399.3125,-789.5037"/>
</g>
<!-- Node8&#45;&gt;Node4 -->
<g id="edge9" class="edge">
<title>Node8&#45;&gt;Node4</title>
<path fill="none" stroke="#191970" d="M291.4482,-662.6503C326.8497,-675.5076 387.9688,-697.7051 427.2907,-711.9862"/>
<polygon fill="#191970" stroke="#191970" points="426.1951,-715.3119 436.7892,-715.4359 428.5847,-708.7324 426.1951,-715.3119"/>
</g>
<!-- Node8&#45;&gt;Node8 -->
<g id="edge10" class="edge">
<title>Node8&#45;&gt;Node8</title>
<path fill="none" stroke="#191970" d="M232.5021,-662.7271C218.3627,-671.6067 228.6953,-681 263.5,-681 287.4282,-681 299.7896,-676.5602 300.5841,-670.8999"/>
<polygon fill="#191970" stroke="#191970" points="303.2778,-668.6571 294.4979,-662.7271 297.6635,-672.838 303.2778,-668.6571"/>
</g>
<!-- Node9 -->
<g id="node9" class="node">
<title>Node9</title>
<g id="a_node9"><a xlink:href="../../dc/d82/classPHNode.html#a4ab1f90aed955a652813bfe377087bda" target="_top" xlink:title="PHNode::getType">
<polygon fill="none" stroke="#000000" points="413,-642.5 413,-662.5 516,-662.5 516,-642.5 413,-642.5"/>
<text text-anchor="middle" x="464.5" y="-649.5" font-family="FreeSans" font-size="10.00" fill="#000000">PHNode::getType</text>
</a>
</g>
</g>
<!-- Node8&#45;&gt;Node9 -->
<g id="edge8" class="edge">
<title>Node8&#45;&gt;Node9</title>
<path fill="none" stroke="#191970" d="M334.0824,-652.5C356.4448,-652.5 380.9816,-652.5 402.6798,-652.5"/>
<polygon fill="#191970" stroke="#191970" points="402.7554,-656.0001 412.7554,-652.5 402.7553,-649.0001 402.7554,-656.0001"/>
</g>
<!-- Node17 -->
<g id="node17" class="node">
<title>Node17</title>
<g id="a_node17"><a xlink:href="../../d7/d6b/classPHParametersContainer.html#a5f90d78420cb8573142c8a4d1c029799" target="_top" xlink:title="PHParametersContainer\l::Name">
<polygon fill="none" stroke="#000000" points="396,-309.5 396,-341.5 533,-341.5 533,-309.5 396,-309.5"/>
<text text-anchor="start" x="404" y="-328.5" font-family="FreeSans" font-size="10.00" fill="#000000">PHParametersContainer</text>
<text text-anchor="middle" x="464.5" y="-316.5" font-family="FreeSans" font-size="10.00" fill="#000000">::Name</text>
</a>
</g>
</g>
<!-- Node16&#45;&gt;Node17 -->
<g id="edge18" class="edge">
<title>Node16&#45;&gt;Node17</title>
<path fill="none" stroke="#191970" d="M332.1106,-325.5C349.318,-325.5 367.9169,-325.5 385.582,-325.5"/>
<polygon fill="#191970" stroke="#191970" points="385.8576,-329.0001 395.8576,-325.5 385.8575,-322.0001 385.8576,-329.0001"/>
</g>
</g>
</svg>
