<?xml version="1.0" encoding="UTF-8" standalone="no"?>
<!DOCTYPE svg PUBLIC "-//W3C//DTD SVG 1.1//EN"
 "http://www.w3.org/Graphics/SVG/1.1/DTD/svg11.dtd">
<!-- Generated by graphviz version 2.40.1 (20161225.0304)
 -->
<!-- Title: testing::internal::OsStackTraceGetterInterface::CurrentStackTrace Pages: 1 -->
<svg width="1389pt" height="693pt"
 viewBox="0.00 0.00 1389.00 693.37" xmlns="http://www.w3.org/2000/svg" xmlns:xlink="http://www.w3.org/1999/xlink">
<g id="graph0" class="graph" transform="scale(1 1) rotate(0) translate(4 689.3658)">
<title>testing::internal::OsStackTraceGetterInterface::CurrentStackTrace</title>
<!-- Node1 -->
<g id="node1" class="node">
<title>Node1</title>
<polygon fill="#bfbfbf" stroke="#000000" points="0,-336.8658 0,-380.8658 161,-380.8658 161,-336.8658 0,-336.8658"/>
<text text-anchor="start" x="8" y="-367.8658" font-family="FreeSans" font-size="10.00" fill="#000000">testing::internal::</text>
<text text-anchor="start" x="8" y="-355.8658" font-family="FreeSans" font-size="10.00" fill="#000000">OsStackTraceGetterInterface</text>
<text text-anchor="middle" x="80.5" y="-343.8658" font-family="FreeSans" font-size="10.00" fill="#000000">::CurrentStackTrace</text>
</g>
<!-- Node2 -->
<g id="node2" class="node">
<title>Node2</title>
<g id="a_node2"><a xlink:href="../../d0/de3/classtesting_1_1internal_1_1UnitTestImpl.html#a61c0a51ac4e57d9f884f646ca6dd2210" target="_top" xlink:title="testing::internal::\lUnitTestImpl::CurrentOsStack\lTraceExceptTop">
<polygon fill="none" stroke="#000000" points="197,-336.8658 197,-380.8658 362,-380.8658 362,-336.8658 197,-336.8658"/>
<text text-anchor="start" x="205" y="-367.8658" font-family="FreeSans" font-size="10.00" fill="#000000">testing::internal::</text>
<text text-anchor="start" x="205" y="-355.8658" font-family="FreeSans" font-size="10.00" fill="#000000">UnitTestImpl::CurrentOsStack</text>
<text text-anchor="middle" x="279.5" y="-343.8658" font-family="FreeSans" font-size="10.00" fill="#000000">TraceExceptTop</text>
</a>
</g>
</g>
<!-- Node1&#45;&gt;Node2 -->
<g id="edge1" class="edge">
<title>Node1&#45;&gt;Node2</title>
<path fill="none" stroke="#191970" d="M171.4124,-358.8658C179.87,-358.8658 188.4109,-358.8658 196.7883,-358.8658"/>
<polygon fill="#191970" stroke="#191970" points="171.1541,-355.3659 161.154,-358.8658 171.154,-362.3659 171.1541,-355.3659"/>
</g>
<!-- Node3 -->
<g id="node3" class="node">
<title>Node3</title>
<g id="a_node3"><a xlink:href="../../d7/d85/classtesting_1_1internal_1_1AssertHelper.html#ab721be11cb9aca8a361ca1f014ca5f80" target="_top" xlink:title="testing::internal::\lAssertHelper::operator=">
<polygon fill="none" stroke="#000000" points="423.5,-368.8658 423.5,-400.8658 563.5,-400.8658 563.5,-368.8658 423.5,-368.8658"/>
<text text-anchor="start" x="431.5" y="-387.8658" font-family="FreeSans" font-size="10.00" fill="#000000">testing::internal::</text>
<text text-anchor="middle" x="493.5" y="-375.8658" font-family="FreeSans" font-size="10.00" fill="#000000">AssertHelper::operator=</text>
</a>
</g>
</g>
<!-- Node2&#45;&gt;Node3 -->
<g id="edge2" class="edge">
<title>Node2&#45;&gt;Node3</title>
<path fill="none" stroke="#191970" d="M372.2799,-370.1381C389.4561,-372.2249 407.13,-374.3722 423.4886,-376.3597"/>
<polygon fill="#191970" stroke="#191970" points="372.5871,-366.6498 362.238,-368.918 371.7428,-373.5987 372.5871,-366.6498"/>
</g>
<!-- Node4 -->
<g id="node4" class="node">
<title>Node4</title>
<g id="a_node4"><a xlink:href="../../d0/da7/namespacetesting_1_1internal.html#aeb475922b8cd1e6c60ac052bbc396e62" target="_top" xlink:title="testing::internal::\lGetCurrentOsStackTraceExceptTop">
<polygon fill="none" stroke="#000000" points="398,-317.8658 398,-349.8658 589,-349.8658 589,-317.8658 398,-317.8658"/>
<text text-anchor="start" x="406" y="-336.8658" font-family="FreeSans" font-size="10.00" fill="#000000">testing::internal::</text>
<text text-anchor="middle" x="493.5" y="-324.8658" font-family="FreeSans" font-size="10.00" fill="#000000">GetCurrentOsStackTraceExceptTop</text>
</a>
</g>
</g>
<!-- Node2&#45;&gt;Node4 -->
<g id="edge3" class="edge">
<title>Node2&#45;&gt;Node4</title>
<path fill="none" stroke="#191970" d="M372.4227,-348.0103C380.832,-347.0279 389.3594,-346.0317 397.7921,-345.0466"/>
<polygon fill="#191970" stroke="#191970" points="371.7643,-344.5633 362.238,-349.2001 372.5766,-351.5161 371.7643,-344.5633"/>
</g>
<!-- Node5 -->
<g id="node5" class="node">
<title>Node5</title>
<g id="a_node5"><a xlink:href="../../d0/da7/namespacetesting_1_1internal.html#ac0bc151763a8187d74387c4b2ba685c9" target="_top" xlink:title="testing::internal::Log">
<polygon fill="none" stroke="#000000" points="625,-343.8658 625,-363.8658 746,-363.8658 746,-343.8658 625,-343.8658"/>
<text text-anchor="middle" x="685.5" y="-350.8658" font-family="FreeSans" font-size="10.00" fill="#000000">testing::internal::Log</text>
</a>
</g>
</g>
<!-- Node4&#45;&gt;Node5 -->
<g id="edge4" class="edge">
<title>Node4&#45;&gt;Node5</title>
<path fill="none" stroke="#191970" d="M599.427,-344.8998C608.0948,-345.8027 616.6535,-346.6943 624.8164,-347.5446"/>
<polygon fill="#191970" stroke="#191970" points="599.5276,-341.3915 589.2188,-343.8365 598.8023,-348.3538 599.5276,-341.3915"/>
</g>
<!-- Node25 -->
<g id="node25" class="node">
<title>Node25</title>
<g id="a_node25"><a xlink:href="../../df/d01/gtest__unittest_8cc.html#a386c193fa342a6cb3a88ffe4751a264b" target="_top" xlink:title="TEST">
<polygon fill="none" stroke="#000000" points="664,-304.8658 664,-324.8658 707,-324.8658 707,-304.8658 664,-304.8658"/>
<text text-anchor="middle" x="685.5" y="-311.8658" font-family="FreeSans" font-size="10.00" fill="#000000">TEST</text>
</a>
</g>
</g>
<!-- Node4&#45;&gt;Node25 -->
<g id="edge25" class="edge">
<title>Node4&#45;&gt;Node25</title>
<path fill="none" stroke="#191970" d="M599.3722,-323.3888C623.8586,-320.9657 647.4791,-318.6282 663.7706,-317.0161"/>
<polygon fill="#191970" stroke="#191970" points="598.8254,-319.9258 589.2188,-324.3936 599.5148,-326.8917 598.8254,-319.9258"/>
</g>
<!-- Node6 -->
<g id="node6" class="node">
<title>Node6</title>
<g id="a_node6"><a xlink:href="../../d7/db7/centrality__newplotbg__newsupp_8C.html#ae9e8330319e197337cda78248c04ed86" target="_top" xlink:title="centrality_newplotbg\l_newsupp">
<polygon fill="none" stroke="#000000" points="806,-652.8658 806,-684.8658 928,-684.8658 928,-652.8658 806,-652.8658"/>
<text text-anchor="start" x="814" y="-671.8658" font-family="FreeSans" font-size="10.00" fill="#000000">centrality_newplotbg</text>
<text text-anchor="middle" x="867" y="-659.8658" font-family="FreeSans" font-size="10.00" fill="#000000">_newsupp</text>
</a>
</g>
</g>
<!-- Node5&#45;&gt;Node6 -->
<g id="edge5" class="edge">
<title>Node5&#45;&gt;Node6</title>
<path fill="none" stroke="#191970" d="M689.6804,-374.0716C702.3199,-433.34 741.7438,-605.0015 782,-643.8658 788.7505,-650.3828 797.11,-655.2135 805.9286,-658.7916"/>
<polygon fill="#191970" stroke="#191970" points="693.0618,-373.1433 687.5773,-364.0784 686.2118,-374.5849 693.0618,-373.1433"/>
</g>
<!-- Node7 -->
<g id="node7" class="node">
<title>Node7</title>
<g id="a_node7"><a xlink:href="../../d6/d38/classtesting_1_1internal_1_1ExpectationBase.html#aaeb143b6f8676e9a6fb9b17678344f03" target="_top" xlink:title="testing::internal::\lExpectationBase::CheckAction\lCountIfNotDone">
<polygon fill="none" stroke="#000000" points="782,-589.8658 782,-633.8658 952,-633.8658 952,-589.8658 782,-589.8658"/>
<text text-anchor="start" x="790" y="-620.8658" font-family="FreeSans" font-size="10.00" fill="#000000">testing::internal::</text>
<text text-anchor="start" x="790" y="-608.8658" font-family="FreeSans" font-size="10.00" fill="#000000">ExpectationBase::CheckAction</text>
<text text-anchor="middle" x="867" y="-596.8658" font-family="FreeSans" font-size="10.00" fill="#000000">CountIfNotDone</text>
</a>
</g>
</g>
<!-- Node5&#45;&gt;Node7 -->
<g id="edge6" class="edge">
<title>Node5&#45;&gt;Node7</title>
<path fill="none" stroke="#191970" d="M688.563,-374.0865C696.2349,-417.8865 720.2808,-522.2899 782,-580.8658 785.418,-584.1097 789.2022,-587.0191 793.2199,-589.6277"/>
<polygon fill="#191970" stroke="#191970" points="691.9963,-373.3945 686.9177,-364.0962 685.0893,-374.5321 691.9963,-373.3945"/>
</g>
<!-- Node8 -->
<g id="node8" class="node">
<title>Node8</title>
<g id="a_node8"><a xlink:href="../../db/d89/ConstructGeometry_8C.html#a21c369835643f1016f506a3da3b8d446" target="_top" xlink:title="ConstructGeometry">
<polygon fill="none" stroke="#000000" points="809.5,-550.8658 809.5,-570.8658 924.5,-570.8658 924.5,-550.8658 809.5,-550.8658"/>
<text text-anchor="middle" x="867" y="-557.8658" font-family="FreeSans" font-size="10.00" fill="#000000">ConstructGeometry</text>
</a>
</g>
</g>
<!-- Node5&#45;&gt;Node8 -->
<g id="edge7" class="edge">
<title>Node5&#45;&gt;Node8</title>
<path fill="none" stroke="#191970" d="M689.8516,-374.0268C699.3472,-412.9325 725.7362,-498.3576 782,-541.8658 789.8948,-547.9708 799.3686,-552.1907 809.0824,-555.0919"/>
<polygon fill="#191970" stroke="#191970" points="693.1844,-372.9043 687.5209,-363.9503 686.3645,-374.4818 693.1844,-372.9043"/>
</g>
<!-- Node9 -->
<g id="node9" class="node">
<title>Node9</title>
<g id="a_node9"><a xlink:href="../../d7/d87/fasthadv4_8C.html#aade223d2ed0173240057a1b89612533e" target="_top" xlink:title="fasthadv4">
<polygon fill="none" stroke="#000000" points="833.5,-511.8658 833.5,-531.8658 900.5,-531.8658 900.5,-511.8658 833.5,-511.8658"/>
<text text-anchor="middle" x="867" y="-518.8658" font-family="FreeSans" font-size="10.00" fill="#000000">fasthadv4</text>
</a>
</g>
</g>
<!-- Node5&#45;&gt;Node9 -->
<g id="edge8" class="edge">
<title>Node5&#45;&gt;Node9</title>
<path fill="none" stroke="#191970" d="M692.6506,-373.8621C705.3346,-406.3185 734.9546,-470.1251 782,-502.8658 796.8936,-513.2308 816.5012,-518.0534 833.1309,-520.2522"/>
<polygon fill="#191970" stroke="#191970" points="695.7933,-372.2755 688.9976,-364.1472 689.2412,-374.7393 695.7933,-372.2755"/>
</g>
<!-- Node10 -->
<g id="node10" class="node">
<title>Node10</title>
<g id="a_node10"><a xlink:href="../../d7/d40/Fun4All__G4__Prototype3_8C.html#a1201361263017b08a070777a0b90b27c" target="_top" xlink:title="Fun4All_G4_Prototype3">
<polygon fill="none" stroke="#000000" points="800.5,-472.8658 800.5,-492.8658 933.5,-492.8658 933.5,-472.8658 800.5,-472.8658"/>
<text text-anchor="middle" x="867" y="-479.8658" font-family="FreeSans" font-size="10.00" fill="#000000">Fun4All_G4_Prototype3</text>
</a>
</g>
</g>
<!-- Node5&#45;&gt;Node10 -->
<g id="edge9" class="edge">
<title>Node5&#45;&gt;Node10</title>
<path fill="none" stroke="#191970" d="M696.4925,-372.5029C712.1909,-397.3933 743.4428,-440.9992 782,-463.8658 788.1128,-467.491 794.8461,-470.4255 801.7661,-472.8007"/>
<polygon fill="#191970" stroke="#191970" points="699.4662,-370.6569 691.2547,-363.962 693.499,-374.3164 699.4662,-370.6569"/>
</g>
<!-- Node11 -->
<g id="node11" class="node">
<title>Node11</title>
<g id="a_node11"><a xlink:href="../../d4/d58/Fun4All__G4__Prototype4_8C.html#acac517f0728af658cbf99c7c9687c908" target="_top" xlink:title="Fun4All_G4_Prototype4">
<polygon fill="none" stroke="#000000" points="800.5,-433.8658 800.5,-453.8658 933.5,-453.8658 933.5,-433.8658 800.5,-433.8658"/>
<text text-anchor="middle" x="867" y="-440.8658" font-family="FreeSans" font-size="10.00" fill="#000000">Fun4All_G4_Prototype4</text>
</a>
</g>
</g>
<!-- Node5&#45;&gt;Node11 -->
<g id="edge10" class="edge">
<title>Node5&#45;&gt;Node11</title>
<path fill="none" stroke="#191970" d="M703.7056,-370.9145C722.0788,-387.1874 751.9575,-411.1923 782,-424.8658 789.8447,-428.4362 798.4101,-431.3586 806.9862,-433.7446"/>
<polygon fill="#191970" stroke="#191970" points="705.878,-368.1601 696.1143,-364.0467 701.1818,-373.351 705.878,-368.1601"/>
</g>
<!-- Node12 -->
<g id="node12" class="node">
<title>Node12</title>
<g id="a_node12"><a xlink:href="../../db/da1/Fun4All__G4__TPC_8C.html#af60bcd3cf09ebd567e28ede14e9e894a" target="_top" xlink:title="Fun4All_G4_TPC">
<polygon fill="none" stroke="#000000" points="818.5,-394.8658 818.5,-414.8658 915.5,-414.8658 915.5,-394.8658 818.5,-394.8658"/>
<text text-anchor="middle" x="867" y="-401.8658" font-family="FreeSans" font-size="10.00" fill="#000000">Fun4All_G4_TPC</text>
</a>
</g>
</g>
<!-- Node5&#45;&gt;Node12 -->
<g id="edge11" class="edge">
<title>Node5&#45;&gt;Node12</title>
<path fill="none" stroke="#191970" d="M723.4922,-367.4422C741.1551,-373.5011 762.5186,-380.473 782,-385.8658 793.6585,-389.093 806.3312,-392.1587 818.2457,-394.8487"/>
<polygon fill="#191970" stroke="#191970" points="724.1572,-363.9684 713.5624,-363.9991 721.8639,-370.5821 724.1572,-363.9684"/>
</g>
<!-- Node13 -->
<g id="node13" class="node">
<title>Node13</title>
<g id="a_node13"><a xlink:href="../../d9/d79/classtesting_1_1internal_1_1TypedExpectation.html#a5053b8335ca295b34cd6a68f8d462602" target="_top" xlink:title="testing::internal::\lTypedExpectation::GetCurrent\lAction">
<polygon fill="none" stroke="#000000" points="782,-331.8658 782,-375.8658 952,-375.8658 952,-331.8658 782,-331.8658"/>
<text text-anchor="start" x="790" y="-362.8658" font-family="FreeSans" font-size="10.00" fill="#000000">testing::internal::</text>
<text text-anchor="start" x="790" y="-350.8658" font-family="FreeSans" font-size="10.00" fill="#000000">TypedExpectation::GetCurrent</text>
<text text-anchor="middle" x="867" y="-338.8658" font-family="FreeSans" font-size="10.00" fill="#000000">Action</text>
</a>
</g>
</g>
<!-- Node5&#45;&gt;Node13 -->
<g id="edge12" class="edge">
<title>Node5&#45;&gt;Node13</title>
<path fill="none" stroke="#191970" d="M756.2685,-353.8658C764.6457,-353.8658 773.2619,-353.8658 781.812,-353.8658"/>
<polygon fill="#191970" stroke="#191970" points="756.1892,-350.3659 746.1892,-353.8658 756.1892,-357.3659 756.1892,-350.3659"/>
</g>
<!-- Node14 -->
<g id="node14" class="node">
<title>Node14</title>
<g id="a_node14"><a xlink:href="../../d2/dbb/classKFParticleBaseSIMD.html#ab67bce164eba1fa6e68b8ffc2eac6e7f" target="_top" xlink:title="KFParticleBaseSIMD\l::GetEta">
<polygon fill="none" stroke="#000000" points="809,-280.8658 809,-312.8658 925,-312.8658 925,-280.8658 809,-280.8658"/>
<text text-anchor="start" x="817" y="-299.8658" font-family="FreeSans" font-size="10.00" fill="#000000">KFParticleBaseSIMD</text>
<text text-anchor="middle" x="867" y="-287.8658" font-family="FreeSans" font-size="10.00" fill="#000000">::GetEta</text>
</a>
</g>
</g>
<!-- Node5&#45;&gt;Node14 -->
<g id="edge13" class="edge">
<title>Node5&#45;&gt;Node14</title>
<path fill="none" stroke="#191970" d="M727.484,-340.7848C733.6979,-338.8186 740.0198,-336.8013 746,-334.8658 762.0459,-329.6723 765.9348,-327.9994 782,-322.8658 792.2897,-319.5777 803.3075,-316.1438 813.8859,-312.8897"/>
<polygon fill="#191970" stroke="#191970" points="726.3587,-337.4697 717.8731,-343.8136 728.4627,-344.146 726.3587,-337.4697"/>
</g>
<!-- Node17 -->
<g id="node17" class="node">
<title>Node17</title>
<g id="a_node17"><a xlink:href="../../d0/da7/namespacetesting_1_1internal.html#af271cd1fc0b62a7f4736cb3109e86a37" target="_top" xlink:title="testing::internal::\lLogWithLocation">
<polygon fill="none" stroke="#000000" points="815.5,-229.8658 815.5,-261.8658 918.5,-261.8658 918.5,-229.8658 815.5,-229.8658"/>
<text text-anchor="start" x="823.5" y="-248.8658" font-family="FreeSans" font-size="10.00" fill="#000000">testing::internal::</text>
<text text-anchor="middle" x="867" y="-236.8658" font-family="FreeSans" font-size="10.00" fill="#000000">LogWithLocation</text>
</a>
</g>
</g>
<!-- Node5&#45;&gt;Node17 -->
<g id="edge16" class="edge">
<title>Node5&#45;&gt;Node17</title>
<path fill="none" stroke="#191970" d="M740.2578,-338.9163C742.2642,-337.6718 744.1886,-336.3245 746,-334.8658 771.117,-314.6387 756.8078,-291.9991 782,-271.8658 791.644,-264.1584 803.5613,-258.729 815.3893,-254.9066"/>
<polygon fill="#191970" stroke="#191970" points="738.2721,-336.0049 731.0314,-343.7395 741.515,-342.2084 738.2721,-336.0049"/>
</g>
<!-- Node20 -->
<g id="node20" class="node">
<title>Node20</title>
<g id="a_node20"><a xlink:href="../../de/dc1/simRho_8cc.html#ae66f6b31b5ad750f1fe042a706a4e3d4" target="_top" xlink:title="main">
<polygon fill="none" stroke="#000000" points="846.5,-190.8658 846.5,-210.8658 887.5,-210.8658 887.5,-190.8658 846.5,-190.8658"/>
<text text-anchor="middle" x="867" y="-197.8658" font-family="FreeSans" font-size="10.00" fill="#000000">main</text>
</a>
</g>
</g>
<!-- Node5&#45;&gt;Node20 -->
<g id="edge19" class="edge">
<title>Node5&#45;&gt;Node20</title>
<path fill="none" stroke="#191970" d="M741.993,-338.3926C743.4005,-337.2963 744.7413,-336.1225 746,-334.8658 783.6004,-297.3248 743.051,-257.0056 782,-220.8658 799.3362,-204.7799 827.1076,-200.8719 846.1588,-200.2733"/>
<polygon fill="#191970" stroke="#191970" points="739.9053,-335.571 733.3092,-343.8621 743.636,-341.494 739.9053,-335.571"/>
</g>
<!-- Node21 -->
<g id="node21" class="node">
<title>Node21</title>
<g id="a_node21"><a xlink:href="../../d9/d7b/newplotbg__newsupp_8C.html#a4d13425b448e7b7b5b6841fd753eebd6" target="_top" xlink:title="newplotbg_newsupp">
<polygon fill="none" stroke="#000000" points="807,-151.8658 807,-171.8658 927,-171.8658 927,-151.8658 807,-151.8658"/>
<text text-anchor="middle" x="867" y="-158.8658" font-family="FreeSans" font-size="10.00" fill="#000000">newplotbg_newsupp</text>
</a>
</g>
</g>
<!-- Node5&#45;&gt;Node21 -->
<g id="edge20" class="edge">
<title>Node5&#45;&gt;Node21</title>
<path fill="none" stroke="#191970" d="M742.6484,-338.0701C743.8254,-337.0666 744.9461,-335.9998 746,-334.8658 793.5556,-283.6949 732.6036,-231.2621 782,-181.8658 788.8606,-175.0052 797.6034,-170.3249 806.8585,-167.1635"/>
<polygon fill="#191970" stroke="#191970" points="740.4872,-335.3068 734.1757,-343.8165 744.4164,-341.1001 740.4872,-335.3068"/>
</g>
<!-- Node22 -->
<g id="node22" class="node">
<title>Node22</title>
<g id="a_node22"><a xlink:href="../../d0/dab/classTrackingPerformanceCheck.html#a8dafa93c6ddc8928257fec958a45ee6b" target="_top" xlink:title="TrackingPerformanceCheck\l::process_event">
<polygon fill="none" stroke="#000000" points="789.5,-100.8658 789.5,-132.8658 944.5,-132.8658 944.5,-100.8658 789.5,-100.8658"/>
<text text-anchor="start" x="797.5" y="-119.8658" font-family="FreeSans" font-size="10.00" fill="#000000">TrackingPerformanceCheck</text>
<text text-anchor="middle" x="867" y="-107.8658" font-family="FreeSans" font-size="10.00" fill="#000000">::process_event</text>
</a>
</g>
</g>
<!-- Node5&#45;&gt;Node22 -->
<g id="edge21" class="edge">
<title>Node5&#45;&gt;Node22</title>
<path fill="none" stroke="#191970" d="M743.1323,-337.763C744.1373,-336.8495 745.0956,-335.8847 746,-334.8658 803.6337,-269.934 724.1248,-207.5824 782,-142.8658 785.3947,-139.0698 789.3267,-135.8204 793.6009,-133.0398"/>
<polygon fill="#191970" stroke="#191970" points="740.7541,-335.1597 734.6369,-343.8102 744.8135,-340.8625 740.7541,-335.1597"/>
</g>
<!-- Node23 -->
<g id="node23" class="node">
<title>Node23</title>
<g id="a_node23"><a xlink:href="../../d0/da7/namespacetesting_1_1internal.html#a8d99a1e87d0cea563b2bfad8a4e65276" target="_top" xlink:title="testing::internal::\lReportUninterestingCall">
<polygon fill="none" stroke="#000000" points="799,-49.8658 799,-81.8658 935,-81.8658 935,-49.8658 799,-49.8658"/>
<text text-anchor="start" x="807" y="-68.8658" font-family="FreeSans" font-size="10.00" fill="#000000">testing::internal::</text>
<text text-anchor="middle" x="867" y="-56.8658" font-family="FreeSans" font-size="10.00" fill="#000000">ReportUninterestingCall</text>
</a>
</g>
</g>
<!-- Node5&#45;&gt;Node23 -->
<g id="edge22" class="edge">
<title>Node5&#45;&gt;Node23</title>
<path fill="none" stroke="#191970" d="M743.2531,-337.7462C744.2174,-336.8375 745.1354,-335.8783 746,-334.8658 816.9002,-251.8407 710.791,-174.6261 782,-91.8658 786.6299,-86.4848 792.3404,-82.1981 798.5936,-78.7863"/>
<polygon fill="#191970" stroke="#191970" points="741.0472,-335.0239 735.068,-343.7704 745.1965,-340.6616 741.0472,-335.0239"/>
</g>
<!-- Node24 -->
<g id="node24" class="node">
<title>Node24</title>
<g id="a_node24"><a xlink:href="../../d7/dcb/classtesting_1_1internal_1_1UntypedFunctionMockerBase.html#adaec41c0ba8a07c2415f6c8efa0ca54f" target="_top" xlink:title="testing::internal::\lUntypedFunctionMockerBase\l::UntypedInvokeWith">
<polygon fill="none" stroke="#000000" points="1012,-21.8658 1012,-65.8658 1175,-65.8658 1175,-21.8658 1012,-21.8658"/>
<text text-anchor="start" x="1020" y="-52.8658" font-family="FreeSans" font-size="10.00" fill="#000000">testing::internal::</text>
<text text-anchor="start" x="1020" y="-40.8658" font-family="FreeSans" font-size="10.00" fill="#000000">UntypedFunctionMockerBase</text>
<text text-anchor="middle" x="1093.5" y="-28.8658" font-family="FreeSans" font-size="10.00" fill="#000000">::UntypedInvokeWith</text>
</a>
</g>
</g>
<!-- Node5&#45;&gt;Node24 -->
<g id="edge24" class="edge">
<title>Node5&#45;&gt;Node24</title>
<path fill="none" stroke="#191970" d="M743.2887,-337.7762C744.2423,-336.8585 745.1484,-335.8893 746,-334.8658 830.4797,-233.331 683.1075,-127.4237 782,-39.8658 850.434,20.7247 964.2674,-.4264 1033.7348,-21.8004"/>
<polygon fill="#191970" stroke="#191970" points="741.0767,-335.0598 735.1644,-343.8516 745.2689,-340.6657 741.0767,-335.0598"/>
</g>
<!-- Node15 -->
<g id="node15" class="node">
<title>Node15</title>
<g id="a_node15"><a xlink:href="../../db/dcc/classKFParticleSIMD.html#a0a034fe797629742f498a57645b2bdd2" target="_top" xlink:title="Returns pseudorapidity.">
<polygon fill="none" stroke="#000000" points="1027.5,-292.8658 1027.5,-312.8658 1159.5,-312.8658 1159.5,-292.8658 1027.5,-292.8658"/>
<text text-anchor="middle" x="1093.5" y="-299.8658" font-family="FreeSans" font-size="10.00" fill="#000000">KFParticleSIMD::GetEta</text>
</a>
</g>
</g>
<!-- Node14&#45;&gt;Node15 -->
<g id="edge14" class="edge">
<title>Node14&#45;&gt;Node15</title>
<path fill="none" stroke="#191970" d="M935.1365,-298.6707C964.3023,-299.4433 998.2401,-300.3423 1027.2005,-301.1095"/>
<polygon fill="#191970" stroke="#191970" points="935.1245,-295.1693 925.0353,-298.4031 934.939,-302.1668 935.1245,-295.1693"/>
</g>
<!-- Node16 -->
<g id="node16" class="node">
<title>Node16</title>
<g id="a_node16"><a xlink:href="../../db/dcc/classKFParticleSIMD.html#ad9ce07062930794c651c1c14b9a92c8b" target="_top" xlink:title="Returns the error of pseudorapidity.">
<polygon fill="none" stroke="#000000" points="1235,-292.8658 1235,-312.8658 1381,-312.8658 1381,-292.8658 1235,-292.8658"/>
<text text-anchor="middle" x="1308" y="-299.8658" font-family="FreeSans" font-size="10.00" fill="#000000">KFParticleSIMD::GetErrEta</text>
</a>
</g>
</g>
<!-- Node15&#45;&gt;Node16 -->
<g id="edge15" class="edge">
<title>Node15&#45;&gt;Node16</title>
<path fill="none" stroke="#191970" d="M1169.8023,-302.8658C1190.8883,-302.8658 1213.7196,-302.8658 1234.6348,-302.8658"/>
<polygon fill="#191970" stroke="#191970" points="1169.6074,-299.3659 1159.6073,-302.8658 1169.6073,-306.3659 1169.6074,-299.3659"/>
</g>
<!-- Node18 -->
<g id="node18" class="node">
<title>Node18</title>
<g id="a_node18"><a xlink:href="../../d0/d7b/classtesting_1_1internal_1_1MockSpec.html#a875c99443da1265604d87429693457f4" target="_top" xlink:title="testing::internal::\lMockSpec\&lt; R(A1, A2,\l A3, A4, A5, A6, A7,\l A8, A9) \&gt;::InternalDefaultActionSetAt">
<polygon fill="none" stroke="#000000" points="988,-217.8658 988,-273.8658 1199,-273.8658 1199,-217.8658 988,-217.8658"/>
<text text-anchor="start" x="996" y="-260.8658" font-family="FreeSans" font-size="10.00" fill="#000000">testing::internal::</text>
<text text-anchor="start" x="996" y="-248.8658" font-family="FreeSans" font-size="10.00" fill="#000000">MockSpec&lt; R(A1, A2,</text>
<text text-anchor="start" x="996" y="-236.8658" font-family="FreeSans" font-size="10.00" fill="#000000"> A3, A4, A5, A6, A7,</text>
<text text-anchor="middle" x="1093.5" y="-224.8658" font-family="FreeSans" font-size="10.00" fill="#000000"> A8, A9) &gt;::InternalDefaultActionSetAt</text>
</a>
</g>
</g>
<!-- Node17&#45;&gt;Node18 -->
<g id="edge17" class="edge">
<title>Node17&#45;&gt;Node18</title>
<path fill="none" stroke="#191970" d="M928.8748,-245.8658C947.1592,-245.8658 967.7109,-245.8658 987.9342,-245.8658"/>
<polygon fill="#191970" stroke="#191970" points="928.6798,-242.3659 918.6798,-245.8658 928.6797,-249.3659 928.6798,-242.3659"/>
</g>
<!-- Node19 -->
<g id="node19" class="node">
<title>Node19</title>
<g id="a_node19"><a xlink:href="../../d0/d7b/classtesting_1_1internal_1_1MockSpec.html#a503a434637634014b9bb6c5d68fd336c" target="_top" xlink:title="testing::internal::\lMockSpec\&lt; R(A1, A2,\l A3, A4, A5, A6, A7,\l A8, A9) \&gt;::InternalExpectedAt">
<polygon fill="none" stroke="#000000" points="1007,-142.8658 1007,-198.8658 1180,-198.8658 1180,-142.8658 1007,-142.8658"/>
<text text-anchor="start" x="1015" y="-185.8658" font-family="FreeSans" font-size="10.00" fill="#000000">testing::internal::</text>
<text text-anchor="start" x="1015" y="-173.8658" font-family="FreeSans" font-size="10.00" fill="#000000">MockSpec&lt; R(A1, A2,</text>
<text text-anchor="start" x="1015" y="-161.8658" font-family="FreeSans" font-size="10.00" fill="#000000"> A3, A4, A5, A6, A7,</text>
<text text-anchor="middle" x="1093.5" y="-149.8658" font-family="FreeSans" font-size="10.00" fill="#000000"> A8, A9) &gt;::InternalExpectedAt</text>
</a>
</g>
</g>
<!-- Node17&#45;&gt;Node19 -->
<g id="edge18" class="edge">
<title>Node17&#45;&gt;Node19</title>
<path fill="none" stroke="#191970" d="M928.4522,-228.2169C936.3953,-225.811 944.4045,-223.3228 952,-220.8658 973.0713,-214.0496 995.7496,-206.2476 1016.6447,-198.8658"/>
<polygon fill="#191970" stroke="#191970" points="927.4016,-224.8779 918.8285,-231.103 929.4124,-231.5829 927.4016,-224.8779"/>
</g>
<!-- Node23&#45;&gt;Node24 -->
<g id="edge23" class="edge">
<title>Node23&#45;&gt;Node24</title>
<path fill="none" stroke="#191970" d="M945.3163,-58.2589C966.7965,-56.1725 990.1353,-53.9056 1011.8002,-51.8013"/>
<polygon fill="#191970" stroke="#191970" points="944.8794,-54.7848 935.2646,-59.2352 945.5562,-61.752 944.8794,-54.7848"/>
</g>
</g>
</svg>
