<?xml version="1.0" encoding="UTF-8" standalone="no"?>
<!DOCTYPE svg PUBLIC "-//W3C//DTD SVG 1.1//EN"
 "http://www.w3.org/Graphics/SVG/1.1/DTD/svg11.dtd">
<!-- Generated by graphviz version 2.40.1 (20161225.0304)
 -->
<!-- Title: ast.AstBuilder._GenerateOne Pages: 1 -->
<svg width="1306pt" height="859pt"
 viewBox="0.00 0.00 1306.00 859.00" xmlns="http://www.w3.org/2000/svg" xmlns:xlink="http://www.w3.org/1999/xlink">
<g id="graph0" class="graph" transform="scale(1 1) rotate(0) translate(4 855)">
<title>ast.AstBuilder._GenerateOne</title>
<!-- Node1 -->
<g id="node1" class="node">
<title>Node1</title>
<polygon fill="#bfbfbf" stroke="#000000" points="0,-201.5 0,-221.5 162,-221.5 162,-201.5 0,-201.5"/>
<text text-anchor="middle" x="81" y="-208.5" font-family="FreeSans" font-size="10.00" fill="#000000">ast.AstBuilder._GenerateOne</text>
</g>
<!-- Node2 -->
<g id="node2" class="node">
<title>Node2</title>
<g id="a_node2"><a xlink:href="../../d5/d87/classast_1_1AstBuilder.html#a78c6e06b0f65de3399ec9a7d75eeb2c2" target="_top" xlink:title="ast.AstBuilder._AddBackToken">
<polygon fill="none" stroke="#000000" points="200,-752.5 200,-772.5 367,-772.5 367,-752.5 200,-752.5"/>
<text text-anchor="middle" x="283.5" y="-759.5" font-family="FreeSans" font-size="10.00" fill="#000000">ast.AstBuilder._AddBackToken</text>
</a>
</g>
</g>
<!-- Node1&#45;&gt;Node2 -->
<g id="edge1" class="edge">
<title>Node1&#45;&gt;Node2</title>
<path fill="none" stroke="#191970" d="M81.8595,-221.5481C87.6929,-287.4754 123.503,-657.9486 198,-737.5 201.6718,-741.4209 205.9212,-744.7381 210.5239,-747.5432"/>
<polygon fill="#191970" stroke="#191970" points="209.2633,-750.8321 219.7517,-752.3304 212.4869,-744.6185 209.2633,-750.8321"/>
</g>
<!-- Node3 -->
<g id="node3" class="node">
<title>Node3</title>
<g id="a_node3"><a xlink:href="../../d5/d87/classast_1_1AstBuilder.html#a6fb1a77772bd1146978bba9ac743f247" target="_top" xlink:title="ast.AstBuilder._AddBackTokens">
<polygon fill="none" stroke="#000000" points="412.5,-830.5 412.5,-850.5 584.5,-850.5 584.5,-830.5 412.5,-830.5"/>
<text text-anchor="middle" x="498.5" y="-837.5" font-family="FreeSans" font-size="10.00" fill="#000000">ast.AstBuilder._AddBackTokens</text>
</a>
</g>
</g>
<!-- Node1&#45;&gt;Node3 -->
<g id="edge2" class="edge">
<title>Node1&#45;&gt;Node3</title>
<path fill="none" stroke="#191970" d="M82.0067,-221.7148C88.5016,-285.5739 126.4928,-629.5294 198,-701.5 253.1583,-757.0158 308.6241,-693.7084 369,-743.5 398.4561,-767.7923 375.0596,-797.8072 405,-821.5 406.7942,-822.9198 408.6669,-824.2417 410.6045,-825.4721"/>
<polygon fill="#191970" stroke="#191970" points="409.017,-828.5928 419.4732,-830.3009 412.3644,-822.445 409.017,-828.5928"/>
</g>
<!-- Node5 -->
<g id="node5" class="node">
<title>Node5</title>
<g id="a_node5"><a xlink:href="../../d5/d87/classast_1_1AstBuilder.html#a5875bec9020c341bf06b0a161cc3a050" target="_top" xlink:title="ast.AstBuilder._CreateVariable">
<polygon fill="none" stroke="#000000" points="414.5,-791.5 414.5,-811.5 582.5,-811.5 582.5,-791.5 414.5,-791.5"/>
<text text-anchor="middle" x="498.5" y="-798.5" font-family="FreeSans" font-size="10.00" fill="#000000">ast.AstBuilder._CreateVariable</text>
</a>
</g>
</g>
<!-- Node1&#45;&gt;Node5 -->
<g id="edge4" class="edge">
<title>Node1&#45;&gt;Node5</title>
<path fill="none" stroke="#191970" d="M82.2186,-221.7694C89.6907,-283.0524 131.2095,-600.0649 198,-666.5 253.5608,-721.7651 308.04,-660.2545 369,-709.5 397.1402,-732.2326 376.3458,-760.4188 405,-782.5 406.8656,-783.9376 408.8124,-785.2742 410.8256,-786.5164"/>
<polygon fill="#191970" stroke="#191970" points="409.5554,-789.8038 420.0323,-791.3802 412.8252,-783.6144 409.5554,-789.8038"/>
</g>
<!-- Node6 -->
<g id="node6" class="node">
<title>Node6</title>
<g id="a_node6"><a xlink:href="../../d5/d87/classast_1_1AstBuilder.html#a9a60f2c823a12e1755aa48a7318695fa" target="_top" xlink:title="ast.AstBuilder._GetMethod">
<polygon fill="none" stroke="#000000" points="209,-636.5 209,-656.5 358,-656.5 358,-636.5 209,-636.5"/>
<text text-anchor="middle" x="283.5" y="-643.5" font-family="FreeSans" font-size="10.00" fill="#000000">ast.AstBuilder._GetMethod</text>
</a>
</g>
</g>
<!-- Node1&#45;&gt;Node6 -->
<g id="edge5" class="edge">
<title>Node1&#45;&gt;Node6</title>
<path fill="none" stroke="#191970" d="M85.8059,-221.8238C112.1764,-278.4716 239.3879,-551.7408 274.5043,-627.1759"/>
<polygon fill="#191970" stroke="#191970" points="271.4347,-628.8753 278.8281,-636.464 277.7807,-625.921 271.4347,-628.8753"/>
</g>
<!-- Node7 -->
<g id="node7" class="node">
<title>Node7</title>
<g id="a_node7"><a xlink:href="../../d5/d87/classast_1_1AstBuilder.html#a5e360f3bd6b32334500685abbda3618b" target="_top" xlink:title="ast.AstBuilder._GetNextToken">
<polygon fill="none" stroke="#000000" points="1041,-521.5 1041,-541.5 1205,-541.5 1205,-521.5 1041,-521.5"/>
<text text-anchor="middle" x="1123" y="-528.5" font-family="FreeSans" font-size="10.00" fill="#000000">ast.AstBuilder._GetNextToken</text>
</a>
</g>
</g>
<!-- Node1&#45;&gt;Node7 -->
<g id="edge29" class="edge">
<title>Node1&#45;&gt;Node7</title>
<path fill="none" stroke="#191970" d="M162.018,-212.195C341.1817,-213.9349 757.4796,-219.1751 786,-230.5 940.3582,-291.7928 1069.8938,-457.5727 1110.0919,-513.0958"/>
<polygon fill="#191970" stroke="#191970" points="1107.2997,-515.2084 1115.9636,-521.3066 1112.9936,-511.1365 1107.2997,-515.2084"/>
</g>
<!-- Node22 -->
<g id="node22" class="node">
<title>Node22</title>
<g id="a_node22"><a xlink:href="../../d5/d87/classast_1_1AstBuilder.html#a0cfe744667e0e12fb4dc9839fb6a9e80" target="_top" xlink:title="ast.AstBuilder._GetTokensUpTo">
<polygon fill="none" stroke="#000000" points="198,-162.5 198,-182.5 369,-182.5 369,-162.5 198,-162.5"/>
<text text-anchor="middle" x="283.5" y="-169.5" font-family="FreeSans" font-size="10.00" fill="#000000">ast.AstBuilder._GetTokensUpTo</text>
</a>
</g>
</g>
<!-- Node1&#45;&gt;Node22 -->
<g id="edge30" class="edge">
<title>Node1&#45;&gt;Node22</title>
<path fill="none" stroke="#191970" d="M133.1488,-201.4565C160.076,-196.2706 193.1166,-189.9072 221.3598,-184.4677"/>
<polygon fill="#191970" stroke="#191970" points="222.3703,-187.8375 231.5279,-182.5094 221.0465,-180.9638 222.3703,-187.8375"/>
</g>
<!-- Node23 -->
<g id="node23" class="node">
<title>Node23</title>
<g id="a_node23"><a xlink:href="../../d5/d87/classast_1_1AstBuilder.html#a870f2ceda4cfe353d72dab25e5afe197" target="_top" xlink:title="ast.AstBuilder._GetVarTokensUpTo">
<polygon fill="none" stroke="#000000" points="405,-162.5 405,-182.5 592,-182.5 592,-162.5 405,-162.5"/>
<text text-anchor="middle" x="498.5" y="-169.5" font-family="FreeSans" font-size="10.00" fill="#000000">ast.AstBuilder._GetVarTokensUpTo</text>
</a>
</g>
</g>
<!-- Node1&#45;&gt;Node23 -->
<g id="edge33" class="edge">
<title>Node1&#45;&gt;Node23</title>
<path fill="none" stroke="#191970" d="M162.1669,-208.0408C219.9572,-205.1156 299.3929,-200.1563 369,-192.5 389.1183,-190.2871 410.8941,-187.1967 430.7453,-184.1061"/>
<polygon fill="#191970" stroke="#191970" points="431.2942,-187.5628 440.6248,-182.5437 430.2008,-180.6487 431.2942,-187.5628"/>
</g>
<!-- Node24 -->
<g id="node24" class="node">
<title>Node24</title>
<g id="a_node24"><a xlink:href="../../d5/d87/classast_1_1AstBuilder.html#af5eff898897d2ae281add154db8b0914" target="_top" xlink:title="ast.AstBuilder._SkipIf0Blocks">
<polygon fill="none" stroke="#000000" points="833,-123.5 833,-143.5 994,-143.5 994,-123.5 833,-123.5"/>
<text text-anchor="middle" x="913.5" y="-130.5" font-family="FreeSans" font-size="10.00" fill="#000000">ast.AstBuilder._SkipIf0Blocks</text>
</a>
</g>
</g>
<!-- Node1&#45;&gt;Node24 -->
<g id="edge34" class="edge">
<title>Node1&#45;&gt;Node24</title>
<path fill="none" stroke="#191970" d="M96.0602,-201.344C117.5728,-187.4836 158.8411,-163.2525 198,-153.5 416.9573,-98.9687 685.2748,-111.7334 822.771,-123.763"/>
<polygon fill="#191970" stroke="#191970" points="822.573,-127.2592 832.845,-124.6637 823.1964,-120.287 822.573,-127.2592"/>
</g>
<!-- Node25 -->
<g id="node25" class="node">
<title>Node25</title>
<g id="a_node25"><a xlink:href="../../d4/d76/namespacekeywords.html#abb6b345afbbc4b6f292a547c45da6781" target="_top" xlink:title="keywords.IsBuiltinType">
<polygon fill="none" stroke="#000000" points="218,-84.5 218,-104.5 349,-104.5 349,-84.5 218,-84.5"/>
<text text-anchor="middle" x="283.5" y="-91.5" font-family="FreeSans" font-size="10.00" fill="#000000">keywords.IsBuiltinType</text>
</a>
</g>
</g>
<!-- Node1&#45;&gt;Node25 -->
<g id="edge36" class="edge">
<title>Node1&#45;&gt;Node25</title>
<path fill="none" stroke="#191970" d="M91.0104,-201.3827C110.1319,-182.6039 153.8888,-142.2079 198,-119.5 207.1697,-114.7795 217.364,-110.822 227.4268,-107.5501"/>
<polygon fill="#191970" stroke="#191970" points="228.4591,-110.8945 236.9967,-104.6208 226.4102,-104.2011 228.4591,-110.8945"/>
</g>
<!-- Node26 -->
<g id="node26" class="node">
<title>Node26</title>
<g id="a_node26"><a xlink:href="../../d4/d76/namespacekeywords.html#abd344590602ffb7ad01ef50a53f945ad" target="_top" xlink:title="keywords.IsKeyword">
<polygon fill="none" stroke="#000000" points="224.5,-45.5 224.5,-65.5 342.5,-65.5 342.5,-45.5 224.5,-45.5"/>
<text text-anchor="middle" x="283.5" y="-52.5" font-family="FreeSans" font-size="10.00" fill="#000000">keywords.IsKeyword</text>
</a>
</g>
</g>
<!-- Node1&#45;&gt;Node26 -->
<g id="edge37" class="edge">
<title>Node1&#45;&gt;Node26</title>
<path fill="none" stroke="#191970" d="M86.5798,-201.3994C101.2201,-175.9002 143.4028,-108.6047 198,-75.5 203.094,-72.4113 208.6251,-69.7995 214.3411,-67.5911"/>
<polygon fill="#191970" stroke="#191970" points="215.7703,-70.8009 224.091,-64.2421 213.4963,-64.1806 215.7703,-70.8009"/>
</g>
<!-- Node27 -->
<g id="node27" class="node">
<title>Node27</title>
<g id="a_node27"><a xlink:href="../../d8/d99/fjcore_8cc.html#ace0f2d08f557c8e9e4f5bc645f3de8cc" target="_top" xlink:title="join">
<polygon fill="none" stroke="#000000" points="266,-6.5 266,-26.5 301,-26.5 301,-6.5 266,-6.5"/>
<text text-anchor="middle" x="283.5" y="-13.5" font-family="FreeSans" font-size="10.00" fill="#000000">join</text>
</a>
</g>
</g>
<!-- Node1&#45;&gt;Node27 -->
<g id="edge38" class="edge">
<title>Node1&#45;&gt;Node27</title>
<path fill="none" stroke="#191970" d="M84.6572,-201.1575C96.0755,-170.4625 134.1646,-79.3023 198,-35.5 215.0042,-23.8321 237.9878,-19.1944 255.8432,-17.4127"/>
<polygon fill="#191970" stroke="#191970" points="256.2313,-20.8934 265.9386,-16.6485 255.7029,-13.9134 256.2313,-20.8934"/>
</g>
<!-- Node4 -->
<g id="node4" class="node">
<title>Node4</title>
<g id="a_node4"><a xlink:href="../../d1/de8/namespaceast.html#aa5f375a131fd637f02b264be63b19a11" target="_top" xlink:title="ast.reversed">
<polygon fill="none" stroke="#000000" points="667.5,-791.5 667.5,-811.5 746.5,-811.5 746.5,-791.5 667.5,-791.5"/>
<text text-anchor="middle" x="707" y="-798.5" font-family="FreeSans" font-size="10.00" fill="#000000">ast.reversed</text>
</a>
</g>
</g>
<!-- Node3&#45;&gt;Node4 -->
<g id="edge3" class="edge">
<title>Node3&#45;&gt;Node4</title>
<path fill="none" stroke="#191970" d="M552.1939,-830.4565C584.6388,-824.3877 625.7037,-816.7065 657.3852,-810.7805"/>
<polygon fill="#191970" stroke="#191970" points="658.1329,-814.2014 667.3189,-808.9224 656.8458,-807.3207 658.1329,-814.2014"/>
</g>
<!-- Node6&#45;&gt;Node5 -->
<g id="edge14" class="edge">
<title>Node6&#45;&gt;Node5</title>
<path fill="none" stroke="#191970" d="M345.4062,-656.6548C354.1109,-660.2271 362.3437,-665.035 369,-671.5 406.2034,-707.6343 366.3124,-747.9594 405,-782.5 406.3592,-783.7135 407.7742,-784.8578 409.2378,-785.9366"/>
<polygon fill="#191970" stroke="#191970" points="407.755,-789.1351 418.0995,-791.4248 411.4407,-783.184 407.755,-789.1351"/>
</g>
<!-- Node6&#45;&gt;Node7 -->
<g id="edge6" class="edge">
<title>Node6&#45;&gt;Node7</title>
<path fill="none" stroke="#191970" d="M349.9356,-656.5904C356.4615,-658.2771 362.9148,-660.2335 369,-662.5 386.3584,-668.9652 387.1187,-678.6658 405,-683.5 663.4656,-753.376 762.4012,-742.7825 1005,-629.5 1046.9052,-609.9322 1086.2606,-571.8113 1107.2396,-549.3161"/>
<polygon fill="#191970" stroke="#191970" points="1109.9466,-551.5421 1114.1079,-541.7986 1104.7788,-546.8204 1109.9466,-551.5421"/>
</g>
<!-- Node9 -->
<g id="node9" class="node">
<title>Node9</title>
<g id="a_node9"><a xlink:href="../../d5/d87/classast_1_1AstBuilder.html#aa69c34afbaf337bc69199fd730630963" target="_top" xlink:title="ast.AstBuilder._GetMatchingChar">
<polygon fill="none" stroke="#000000" points="822,-599.5 822,-619.5 1005,-619.5 1005,-599.5 822,-599.5"/>
<text text-anchor="middle" x="913.5" y="-606.5" font-family="FreeSans" font-size="10.00" fill="#000000">ast.AstBuilder._GetMatchingChar</text>
</a>
</g>
</g>
<!-- Node6&#45;&gt;Node9 -->
<g id="edge8" class="edge">
<title>Node6&#45;&gt;Node9</title>
<path fill="none" stroke="#191970" d="M332.9298,-656.5134C354.8979,-660.4771 381.1367,-664.5491 405,-666.5 574.1048,-680.3251 619.3262,-674.2395 786,-642.5 814.23,-637.1242 845.4727,-629.0728 869.9654,-622.2687"/>
<polygon fill="#191970" stroke="#191970" points="870.9998,-625.6137 879.6792,-619.5377 869.1051,-618.875 870.9998,-625.6137"/>
</g>
<!-- Node10 -->
<g id="node10" class="node">
<title>Node10</title>
<g id="a_node10"><a xlink:href="../../d5/d87/classast_1_1AstBuilder.html#ab4a9d007a5b813fcb07e403fa68ec0de" target="_top" xlink:title="ast.AstBuilder._GetParameters">
<polygon fill="none" stroke="#000000" points="413.5,-636.5 413.5,-656.5 583.5,-656.5 583.5,-636.5 413.5,-636.5"/>
<text text-anchor="middle" x="498.5" y="-643.5" font-family="FreeSans" font-size="10.00" fill="#000000">ast.AstBuilder._GetParameters</text>
</a>
</g>
</g>
<!-- Node6&#45;&gt;Node10 -->
<g id="edge10" class="edge">
<title>Node6&#45;&gt;Node10</title>
<path fill="none" stroke="#191970" d="M358.0932,-646.5C372.579,-646.5 387.947,-646.5 402.9974,-646.5"/>
<polygon fill="#191970" stroke="#191970" points="403.3515,-650.0001 413.3514,-646.5 403.3514,-643.0001 403.3515,-650.0001"/>
</g>
<!-- Node11 -->
<g id="node11" class="node">
<title>Node11</title>
<g id="a_node11"><a xlink:href="../../d5/d87/classast_1_1AstBuilder.html#ae88e982c78e8bbedbd21718e60f78e90" target="_top" xlink:title="ast.AstBuilder.HandleError">
<polygon fill="none" stroke="#000000" points="423.5,-752.5 423.5,-772.5 573.5,-772.5 573.5,-752.5 423.5,-752.5"/>
<text text-anchor="middle" x="498.5" y="-759.5" font-family="FreeSans" font-size="10.00" fill="#000000">ast.AstBuilder.HandleError</text>
</a>
</g>
</g>
<!-- Node6&#45;&gt;Node11 -->
<g id="edge12" class="edge">
<title>Node6&#45;&gt;Node11</title>
<path fill="none" stroke="#191970" d="M341.2997,-656.6322C351.2272,-660.1915 360.9297,-665.0011 369,-671.5 395.0241,-692.4569 378.7346,-716.8463 405,-737.5 410.7209,-741.9986 417.1824,-745.6906 423.9701,-748.7201"/>
<polygon fill="#191970" stroke="#191970" points="422.8034,-752.0225 433.3894,-752.4542 425.3832,-745.5152 422.8034,-752.0225"/>
</g>
<!-- Node12 -->
<g id="node12" class="node">
<title>Node12</title>
<g id="a_node12"><a xlink:href="../../d5/d87/classast_1_1AstBuilder.html#a10cc45fddd0aab97e37c2aa882c502c2" target="_top" xlink:title="ast.AstBuilder.GetScope">
<polygon fill="none" stroke="#000000" points="429.5,-597.5 429.5,-617.5 567.5,-617.5 567.5,-597.5 429.5,-597.5"/>
<text text-anchor="middle" x="498.5" y="-604.5" font-family="FreeSans" font-size="10.00" fill="#000000">ast.AstBuilder.GetScope</text>
</a>
</g>
</g>
<!-- Node6&#45;&gt;Node12 -->
<g id="edge15" class="edge">
<title>Node6&#45;&gt;Node12</title>
<path fill="none" stroke="#191970" d="M338.8678,-636.4565C367.708,-631.2251 403.1533,-624.7954 433.3119,-619.3248"/>
<polygon fill="#191970" stroke="#191970" points="434.1051,-622.7381 443.3198,-617.5094 432.8556,-615.8505 434.1051,-622.7381"/>
</g>
<!-- Node13 -->
<g id="node13" class="node">
<title>Node13</title>
<g id="a_node13"><a xlink:href="../../d5/d87/classast_1_1AstBuilder.html#a24d470f703b0defe088b81b23ded41cf" target="_top" xlink:title="ast.AstBuilder._GetReturn\lTypeAndClassName">
<polygon fill="none" stroke="#000000" points="426,-413.5 426,-445.5 571,-445.5 571,-413.5 426,-413.5"/>
<text text-anchor="start" x="434" y="-432.5" font-family="FreeSans" font-size="10.00" fill="#000000">ast.AstBuilder._GetReturn</text>
<text text-anchor="middle" x="498.5" y="-420.5" font-family="FreeSans" font-size="10.00" fill="#000000">TypeAndClassName</text>
</a>
</g>
</g>
<!-- Node6&#45;&gt;Node13 -->
<g id="edge17" class="edge">
<title>Node6&#45;&gt;Node13</title>
<path fill="none" stroke="#191970" d="M293.5815,-636.3247C326.1394,-603.464 429.0441,-499.602 475.4297,-452.7849"/>
<polygon fill="#191970" stroke="#191970" points="478.0772,-455.0856 482.6292,-445.5185 473.1046,-450.1588 478.0772,-455.0856"/>
</g>
<!-- Node8 -->
<g id="node8" class="node">
<title>Node8</title>
<g id="a_node8"><a xlink:href="../../d1/de8/namespaceast.html#ae4311f7e59a73858a7d6430f9364fe6d" target="_top" xlink:title="ast.next">
<polygon fill="none" stroke="#000000" points="1241,-540.5 1241,-560.5 1298,-560.5 1298,-540.5 1241,-540.5"/>
<text text-anchor="middle" x="1269.5" y="-547.5" font-family="FreeSans" font-size="10.00" fill="#000000">ast.next</text>
</a>
</g>
</g>
<!-- Node7&#45;&gt;Node8 -->
<g id="edge7" class="edge">
<title>Node7&#45;&gt;Node8</title>
<path fill="none" stroke="#191970" d="M1200.1112,-541.5008C1210.6289,-542.8648 1221.0401,-544.2151 1230.4743,-545.4386"/>
<polygon fill="#191970" stroke="#191970" points="1230.2971,-548.9449 1240.6642,-546.7602 1231.1975,-542.003 1230.2971,-548.9449"/>
</g>
<!-- Node9&#45;&gt;Node7 -->
<g id="edge9" class="edge">
<title>Node9&#45;&gt;Node7</title>
<path fill="none" stroke="#191970" d="M940.4596,-599.4625C977.5984,-585.6352 1044.625,-560.6802 1086.305,-545.1621"/>
<polygon fill="#191970" stroke="#191970" points="1087.6618,-548.3917 1095.8121,-541.6225 1085.2193,-541.8317 1087.6618,-548.3917"/>
</g>
<!-- Node10&#45;&gt;Node9 -->
<g id="edge11" class="edge">
<title>Node10&#45;&gt;Node9</title>
<path fill="none" stroke="#191970" d="M583.7655,-639.7941C640.9891,-635.1922 718.0481,-628.7999 786,-622.5 794.3601,-621.7249 803.0258,-620.8959 811.7254,-620.0456"/>
<polygon fill="#191970" stroke="#191970" points="812.3285,-623.5033 821.9372,-619.0398 811.6423,-616.537 812.3285,-623.5033"/>
</g>
<!-- Node11&#45;&gt;Node4 -->
<g id="edge13" class="edge">
<title>Node11&#45;&gt;Node4</title>
<path fill="none" stroke="#191970" d="M552.1939,-772.5435C584.6388,-778.6123 625.7037,-786.2935 657.3852,-792.2195"/>
<polygon fill="#191970" stroke="#191970" points="656.8458,-795.6793 667.3189,-794.0776 658.1329,-788.7986 656.8458,-795.6793"/>
</g>
<!-- Node12&#45;&gt;Node9 -->
<g id="edge16" class="edge">
<title>Node12&#45;&gt;Node9</title>
<path fill="none" stroke="#191970" d="M567.9617,-607.8348C634.6518,-608.1562 736.1578,-608.6453 811.9212,-609.0105"/>
<polygon fill="#191970" stroke="#191970" points="811.9482,-612.5105 821.965,-609.0589 811.982,-605.5106 811.9482,-612.5105"/>
</g>
<!-- Node14 -->
<g id="node14" class="node">
<title>Node14</title>
<g id="a_node14"><a xlink:href="../../d2/def/classPHPy6GenTrigger.html#ab249751b63645a4e317636fc9aab4d62" target="_top" xlink:title="PHPy6GenTrigger::GetName">
<polygon fill="none" stroke="#000000" points="628,-419.5 628,-439.5 786,-439.5 786,-419.5 628,-419.5"/>
<text text-anchor="middle" x="707" y="-426.5" font-family="FreeSans" font-size="10.00" fill="#000000">PHPy6GenTrigger::GetName</text>
</a>
</g>
</g>
<!-- Node13&#45;&gt;Node14 -->
<g id="edge18" class="edge">
<title>Node13&#45;&gt;Node14</title>
<path fill="none" stroke="#191970" d="M571.1305,-429.5C586.17,-429.5 602.1793,-429.5 617.7341,-429.5"/>
<polygon fill="#191970" stroke="#191970" points="617.8755,-433.0001 627.8755,-429.5 617.8754,-426.0001 617.8755,-433.0001"/>
</g>
<!-- Node15 -->
<g id="node15" class="node">
<title>Node15</title>
<g id="a_node15"><a xlink:href="../../db/df0/classPHPy8GenTrigger.html#a42497011fcc10d753b89c6688543fbb7" target="_top" xlink:title="PHPy8GenTrigger::GetName">
<polygon fill="none" stroke="#000000" points="628,-380.5 628,-400.5 786,-400.5 786,-380.5 628,-380.5"/>
<text text-anchor="middle" x="707" y="-387.5" font-family="FreeSans" font-size="10.00" fill="#000000">PHPy8GenTrigger::GetName</text>
</a>
</g>
</g>
<!-- Node13&#45;&gt;Node15 -->
<g id="edge19" class="edge">
<title>Node13&#45;&gt;Node15</title>
<path fill="none" stroke="#191970" d="M571.1305,-415.9144C594.6768,-411.5101 620.6003,-406.6611 643.4349,-402.3899"/>
<polygon fill="#191970" stroke="#191970" points="644.1656,-405.814 653.3516,-400.535 642.8785,-398.9333 644.1656,-405.814"/>
</g>
<!-- Node16 -->
<g id="node16" class="node">
<title>Node16</title>
<g id="a_node16"><a xlink:href="../../d2/d23/classPHSartreGenTrigger.html#a5dbb4b7be85520912ac2ca74d50d1af9" target="_top" xlink:title="PHSartreGenTrigger\l::GetName">
<polygon fill="none" stroke="#000000" points="648.5,-329.5 648.5,-361.5 765.5,-361.5 765.5,-329.5 648.5,-329.5"/>
<text text-anchor="start" x="656.5" y="-348.5" font-family="FreeSans" font-size="10.00" fill="#000000">PHSartreGenTrigger</text>
<text text-anchor="middle" x="707" y="-336.5" font-family="FreeSans" font-size="10.00" fill="#000000">::GetName</text>
</a>
</g>
</g>
<!-- Node13&#45;&gt;Node16 -->
<g id="edge20" class="edge">
<title>Node13&#45;&gt;Node16</title>
<path fill="none" stroke="#191970" d="M531.9084,-413.393C557.8251,-401.1784 594.8058,-384.3564 628,-371.5 633.8318,-369.2413 639.9515,-367.0027 646.095,-364.8419"/>
<polygon fill="#191970" stroke="#191970" points="647.4179,-368.0881 655.7304,-361.5189 645.1357,-361.4705 647.4179,-368.0881"/>
</g>
<!-- Node17 -->
<g id="node17" class="node">
<title>Node17</title>
<g id="a_node17"><a xlink:href="../../d3/de7/classPHG4Detector.html#a2d071f49fa045db5ade51bb99f88218f" target="_top" xlink:title="PHG4Detector::GetName">
<polygon fill="none" stroke="#000000" points="636,-290.5 636,-310.5 778,-310.5 778,-290.5 636,-290.5"/>
<text text-anchor="middle" x="707" y="-297.5" font-family="FreeSans" font-size="10.00" fill="#000000">PHG4Detector::GetName</text>
</a>
</g>
</g>
<!-- Node13&#45;&gt;Node17 -->
<g id="edge21" class="edge">
<title>Node13&#45;&gt;Node17</title>
<path fill="none" stroke="#191970" d="M513.1453,-413.1642C535.5312,-389.2086 580.6697,-344.7692 628,-320.5 632.9571,-317.9582 638.2582,-315.7252 643.6802,-313.766"/>
<polygon fill="#191970" stroke="#191970" points="645.1171,-316.9779 653.5223,-310.5279 642.9293,-310.3286 645.1171,-316.9779"/>
</g>
<!-- Node18 -->
<g id="node18" class="node">
<title>Node18</title>
<g id="a_node18"><a xlink:href="../../d2/d44/classPHG4DisplayAction.html#ad60357b0d195f835e11ae36ad80937f4" target="_top" xlink:title="PHG4DisplayAction::\lGetName">
<polygon fill="none" stroke="#000000" points="647.5,-239.5 647.5,-271.5 766.5,-271.5 766.5,-239.5 647.5,-239.5"/>
<text text-anchor="start" x="655.5" y="-258.5" font-family="FreeSans" font-size="10.00" fill="#000000">PHG4DisplayAction::</text>
<text text-anchor="middle" x="707" y="-246.5" font-family="FreeSans" font-size="10.00" fill="#000000">GetName</text>
</a>
</g>
</g>
<!-- Node13&#45;&gt;Node18 -->
<g id="edge22" class="edge">
<title>Node13&#45;&gt;Node18</title>
<path fill="none" stroke="#191970" d="M508.4868,-413.1617C527.8295,-382.8479 573.3465,-317.6958 628,-281.5 631.1337,-279.4246 634.447,-277.5025 637.8709,-275.7238"/>
<polygon fill="#191970" stroke="#191970" points="639.5972,-278.7793 647.1451,-271.3443 636.6081,-272.4496 639.5972,-278.7793"/>
</g>
<!-- Node19 -->
<g id="node19" class="node">
<title>Node19</title>
<g id="a_node19"><a xlink:href="../../d1/de8/classPHG4StackingAction.html#ac4f834531614c0b642f143c3c46ddd53" target="_top" xlink:title="PHG4StackingAction\l::GetName">
<polygon fill="none" stroke="#000000" points="647.5,-509.5 647.5,-541.5 766.5,-541.5 766.5,-509.5 647.5,-509.5"/>
<text text-anchor="start" x="655.5" y="-528.5" font-family="FreeSans" font-size="10.00" fill="#000000">PHG4StackingAction</text>
<text text-anchor="middle" x="707" y="-516.5" font-family="FreeSans" font-size="10.00" fill="#000000">::GetName</text>
</a>
</g>
</g>
<!-- Node13&#45;&gt;Node19 -->
<g id="edge23" class="edge">
<title>Node13&#45;&gt;Node19</title>
<path fill="none" stroke="#191970" d="M524.5267,-445.7469C550.1513,-461.2622 590.7501,-484.5752 628,-500.5 632.3982,-502.3803 636.9865,-504.1938 641.6415,-505.9263"/>
<polygon fill="#191970" stroke="#191970" points="640.6558,-509.2909 651.2504,-509.364 643.0138,-502.7 640.6558,-509.2909"/>
</g>
<!-- Node20 -->
<g id="node20" class="node">
<title>Node20</title>
<g id="a_node20"><a xlink:href="../../df/d3f/classPHG4SteppingAction.html#a88ff50956245a2b72d459bad2004e1ca" target="_top" xlink:title="PHG4SteppingAction\l::GetName">
<polygon fill="none" stroke="#000000" points="646.5,-458.5 646.5,-490.5 767.5,-490.5 767.5,-458.5 646.5,-458.5"/>
<text text-anchor="start" x="654.5" y="-477.5" font-family="FreeSans" font-size="10.00" fill="#000000">PHG4SteppingAction</text>
<text text-anchor="middle" x="707" y="-465.5" font-family="FreeSans" font-size="10.00" fill="#000000">::GetName</text>
</a>
</g>
</g>
<!-- Node13&#45;&gt;Node20 -->
<g id="edge24" class="edge">
<title>Node13&#45;&gt;Node20</title>
<path fill="none" stroke="#191970" d="M571.1305,-445.1756C592.3351,-449.7522 615.4674,-454.7448 636.5356,-459.2919"/>
<polygon fill="#191970" stroke="#191970" points="635.8609,-462.7268 646.3742,-461.4153 637.3377,-455.8843 635.8609,-462.7268"/>
</g>
<!-- Node21 -->
<g id="node21" class="node">
<title>Node21</title>
<g id="a_node21"><a xlink:href="../../d5/d87/classast_1_1AstBuilder.html#a89ed66321278896a71dd3269bdd5c875" target="_top" xlink:title="ast.AstBuilder.GetName">
<polygon fill="none" stroke="#000000" points="639,-560.5 639,-580.5 775,-580.5 775,-560.5 639,-560.5"/>
<text text-anchor="middle" x="707" y="-567.5" font-family="FreeSans" font-size="10.00" fill="#000000">ast.AstBuilder.GetName</text>
</a>
</g>
</g>
<!-- Node13&#45;&gt;Node21 -->
<g id="edge25" class="edge">
<title>Node13&#45;&gt;Node21</title>
<path fill="none" stroke="#191970" d="M510.9173,-445.7459C532.002,-472.1497 577.4659,-524.1677 628,-551.5 631.7689,-553.5385 635.7555,-555.3607 639.8553,-556.9892"/>
<polygon fill="#191970" stroke="#191970" points="638.9826,-560.3936 649.5773,-560.4485 641.3293,-553.7987 638.9826,-560.3936"/>
</g>
<!-- Node21&#45;&gt;Node7 -->
<g id="edge26" class="edge">
<title>Node21&#45;&gt;Node7</title>
<path fill="none" stroke="#191970" d="M775.0583,-561.7776C790.4808,-559.9227 806.7938,-558.0565 822,-556.5 891.8992,-549.3451 971.0913,-542.8309 1030.6971,-538.247"/>
<polygon fill="#191970" stroke="#191970" points="1031.1359,-541.7238 1040.8397,-537.4711 1030.6018,-534.7442 1031.1359,-541.7238"/>
</g>
<!-- Node21&#45;&gt;Node8 -->
<g id="edge27" class="edge">
<title>Node21&#45;&gt;Node8</title>
<path fill="none" stroke="#191970" d="M775.1307,-568.0776C894.1242,-563.8467 1136.1378,-555.2418 1230.5485,-551.8849"/>
<polygon fill="#191970" stroke="#191970" points="1230.9217,-555.374 1240.791,-551.5208 1230.6729,-548.3784 1230.9217,-555.374"/>
</g>
<!-- Node21&#45;&gt;Node9 -->
<g id="edge28" class="edge">
<title>Node21&#45;&gt;Node9</title>
<path fill="none" stroke="#191970" d="M760.1789,-580.5435C787.7584,-585.7522 821.6269,-592.1487 850.511,-597.6038"/>
<polygon fill="#191970" stroke="#191970" points="850.0255,-601.0739 860.5013,-599.4906 851.3246,-594.1955 850.0255,-601.0739"/>
</g>
<!-- Node22&#45;&gt;Node23 -->
<g id="edge31" class="edge">
<title>Node22&#45;&gt;Node23</title>
<path fill="none" stroke="#191970" d="M369.0915,-172.5C377.5082,-172.5 386.1121,-172.5 394.6847,-172.5"/>
<polygon fill="#191970" stroke="#191970" points="394.7208,-176.0001 404.7207,-172.5 394.7207,-169.0001 394.7208,-176.0001"/>
</g>
<!-- Node23&#45;&gt;Node7 -->
<g id="edge32" class="edge">
<title>Node23&#45;&gt;Node7</title>
<path fill="none" stroke="#191970" d="M592.0539,-164.8885C720.276,-156.442 941.9236,-149.5625 1005,-196.5 1058.0764,-235.9961 1105.0823,-444.6577 1118.9019,-511.136"/>
<polygon fill="#191970" stroke="#191970" points="1115.525,-512.0922 1120.9619,-521.1857 1122.3824,-510.6865 1115.525,-512.0922"/>
</g>
<!-- Node24&#45;&gt;Node7 -->
<g id="edge35" class="edge">
<title>Node24&#45;&gt;Node7</title>
<path fill="none" stroke="#191970" d="M981.1431,-143.5427C989.9422,-147.1484 998.2323,-151.9957 1005,-158.5 1057.9979,-209.4357 1105.7318,-440.8903 1119.2159,-511.19"/>
<polygon fill="#191970" stroke="#191970" points="1115.8447,-512.1995 1121.1444,-521.3736 1122.7225,-510.8969 1115.8447,-512.1995"/>
</g>
<!-- Node28 -->
<g id="node28" class="node">
<title>Node28</title>
<g id="a_node28"><a xlink:href="../../d2/d7e/classJetDefinition_1_1Recombiner.html#ab464439a588af8626f46edb659103674" target="_top" xlink:title="JetDefinition::Recombiner\l::plus_equal">
<polygon fill="none" stroke="#000000" points="425,-.5 425,-32.5 572,-32.5 572,-.5 425,-.5"/>
<text text-anchor="start" x="433" y="-19.5" font-family="FreeSans" font-size="10.00" fill="#000000">JetDefinition::Recombiner</text>
<text text-anchor="middle" x="498.5" y="-7.5" font-family="FreeSans" font-size="10.00" fill="#000000">::plus_equal</text>
</a>
</g>
</g>
<!-- Node27&#45;&gt;Node28 -->
<g id="edge39" class="edge">
<title>Node27&#45;&gt;Node28</title>
<path fill="none" stroke="#191970" d="M301.0944,-16.5C325.832,-16.5 372.5511,-16.5 414.3305,-16.5"/>
<polygon fill="#191970" stroke="#191970" points="414.5492,-20.0001 424.5492,-16.5 414.5491,-13.0001 414.5492,-20.0001"/>
</g>
<!-- Node29 -->
<g id="node29" class="node">
<title>Node29</title>
<g id="a_node29"><a xlink:href="../../d2/d7e/classJetDefinition_1_1Recombiner.html#aff9751e5eaf618745d24efa59c47c2d9" target="_top" xlink:title="JetDefinition::Recombiner\l::recombine">
<polygon fill="none" stroke="#000000" points="633.5,-.5 633.5,-32.5 780.5,-32.5 780.5,-.5 633.5,-.5"/>
<text text-anchor="start" x="641.5" y="-19.5" font-family="FreeSans" font-size="10.00" fill="#000000">JetDefinition::Recombiner</text>
<text text-anchor="middle" x="707" y="-7.5" font-family="FreeSans" font-size="10.00" fill="#000000">::recombine</text>
</a>
</g>
</g>
<!-- Node28&#45;&gt;Node29 -->
<g id="edge40" class="edge">
<title>Node28&#45;&gt;Node29</title>
<path fill="none" stroke="#191970" d="M572.0093,-16.5C588.5149,-16.5 606.1496,-16.5 623.0445,-16.5"/>
<polygon fill="#191970" stroke="#191970" points="623.4518,-20.0001 633.4517,-16.5 623.4517,-13.0001 623.4518,-20.0001"/>
</g>
</g>
</svg>
