<?xml version="1.0" encoding="UTF-8" standalone="no"?>
<!DOCTYPE svg PUBLIC "-//W3C//DTD SVG 1.1//EN"
 "http://www.w3.org/Graphics/SVG/1.1/DTD/svg11.dtd">
<!-- Generated by graphviz version 2.40.1 (20161225.0304)
 -->
<!-- Title: Acts::AccumulatedMaterialSlab Pages: 1 -->
<svg width="183pt" height="179pt"
 viewBox="0.00 0.00 183.00 179.00" xmlns="http://www.w3.org/2000/svg" xmlns:xlink="http://www.w3.org/1999/xlink">
<g id="graph0" class="graph" transform="scale(1 1) rotate(0) translate(4 175)">
<title>Acts::AccumulatedMaterialSlab</title>
<!-- Node1 -->
<g id="node1" class="node">
<title>Node1</title>
<polygon fill="#bfbfbf" stroke="#000000" points="0,-.5 0,-20.5 175,-20.5 175,-.5 0,-.5"/>
<text text-anchor="middle" x="87.5" y="-7.5" font-family="FreeSans" font-size="10.00" fill="#000000">Acts::AccumulatedMaterialSlab</text>
</g>
<!-- Node2 -->
<g id="node2" class="node">
<title>Node2</title>
<g id="a_node2"><a xlink:href="../../da/ddf/classActs_1_1MaterialSlab.html" target="_top" xlink:title="Acts::MaterialSlab">
<polygon fill="none" stroke="#000000" points="33.5,-81.5 33.5,-101.5 141.5,-101.5 141.5,-81.5 33.5,-81.5"/>
<text text-anchor="middle" x="87.5" y="-88.5" font-family="FreeSans" font-size="10.00" fill="#000000">Acts::MaterialSlab</text>
</a>
</g>
</g>
<!-- Node2&#45;&gt;Node1 -->
<g id="edge1" class="edge">
<title>Node2&#45;&gt;Node1</title>
<path fill="none" stroke="#9a32cd" stroke-dasharray="5,2" d="M87.5,-71.1972C87.5,-55.1048 87.5,-33.2944 87.5,-20.6754"/>
<polygon fill="#9a32cd" stroke="#9a32cd" points="84.0001,-71.2413 87.5,-81.2413 91.0001,-71.2413 84.0001,-71.2413"/>
<text text-anchor="middle" x="130.5" y="-54" font-family="FreeSans" font-size="10.00" fill="#000000"> m_trackAverage</text>
<text text-anchor="middle" x="130.5" y="-42" font-family="FreeSans" font-size="10.00" fill="#000000">m_totalAverage</text>
</g>
<!-- Node3 -->
<g id="node3" class="node">
<title>Node3</title>
<g id="a_node3"><a xlink:href="../../dd/d14/classActs_1_1Material.html" target="_top" xlink:title="Acts::Material">
<polygon fill="none" stroke="#000000" points="44.5,-150.5 44.5,-170.5 130.5,-170.5 130.5,-150.5 44.5,-150.5"/>
<text text-anchor="middle" x="87.5" y="-157.5" font-family="FreeSans" font-size="10.00" fill="#000000">Acts::Material</text>
</a>
</g>
</g>
<!-- Node3&#45;&gt;Node2 -->
<g id="edge2" class="edge">
<title>Node3&#45;&gt;Node2</title>
<path fill="none" stroke="#9a32cd" stroke-dasharray="5,2" d="M87.5,-140.2177C87.5,-127.5684 87.5,-111.8285 87.5,-101.723"/>
<polygon fill="#9a32cd" stroke="#9a32cd" points="84.0001,-140.3188 87.5,-150.3188 91.0001,-140.3188 84.0001,-140.3188"/>
<text text-anchor="middle" x="118" y="-123" font-family="FreeSans" font-size="10.00" fill="#000000"> m_material</text>
</g>
</g>
</svg>
