<?xml version="1.0" encoding="UTF-8" standalone="no"?>
<!DOCTYPE svg PUBLIC "-//W3C//DTD SVG 1.1//EN"
 "http://www.w3.org/Graphics/SVG/1.1/DTD/svg11.dtd">
<!-- Generated by graphviz version 2.40.1 (20161225.0304)
 -->
<!-- Title: RawClusterBuilderTemplate::Detector Pages: 1 -->
<svg width="368pt" height="146pt"
 viewBox="0.00 0.00 368.00 146.00" xmlns="http://www.w3.org/2000/svg" xmlns:xlink="http://www.w3.org/1999/xlink">
<g id="graph0" class="graph" transform="scale(1 1) rotate(0) translate(4 142)">
<title>RawClusterBuilderTemplate::Detector</title>
<!-- Node1 -->
<g id="node1" class="node">
<title>Node1</title>
<polygon fill="#bfbfbf" stroke="#000000" points="0,-52.5 0,-84.5 155,-84.5 155,-52.5 0,-52.5"/>
<text text-anchor="start" x="8" y="-71.5" font-family="FreeSans" font-size="10.00" fill="#000000">RawClusterBuilderTemplate</text>
<text text-anchor="middle" x="77.5" y="-59.5" font-family="FreeSans" font-size="10.00" fill="#000000">::Detector</text>
</g>
<!-- Node2 -->
<g id="node2" class="node">
<title>Node2</title>
<g id="a_node2"><a xlink:href="../../d5/dec/classFun4AllBase.html#a41f9ac377743d046f590617fd6f4f0ed" target="_top" xlink:title="Returns the name of this module.">
<polygon fill="none" stroke="#000000" points="218,-117.5 218,-137.5 333,-137.5 333,-117.5 218,-117.5"/>
<text text-anchor="middle" x="275.5" y="-124.5" font-family="FreeSans" font-size="10.00" fill="#000000">Fun4AllBase::Name</text>
</a>
</g>
</g>
<!-- Node1&#45;&gt;Node2 -->
<g id="edge1" class="edge">
<title>Node1&#45;&gt;Node2</title>
<path fill="none" stroke="#191970" d="M119.1627,-84.5062C140.4602,-92.3492 166.9051,-101.5713 191,-108.5 199.1015,-110.8296 207.7071,-113.0501 216.2075,-115.0976"/>
<polygon fill="#191970" stroke="#191970" points="215.5664,-118.5421 226.1014,-117.4177 217.1647,-111.727 215.5664,-118.5421"/>
</g>
<!-- Node3 -->
<g id="node3" class="node">
<title>Node3</title>
<g id="a_node3"><a xlink:href="../../df/d23/classBEmcRec.html#a8c099cfd315604c3ab8d103b0b1eab67" target="_top" xlink:title="BEmcRec::SetProbNoiseParam">
<polygon fill="none" stroke="#000000" points="191,-78.5 191,-98.5 360,-98.5 360,-78.5 191,-78.5"/>
<text text-anchor="middle" x="275.5" y="-85.5" font-family="FreeSans" font-size="10.00" fill="#000000">BEmcRec::SetProbNoiseParam</text>
</a>
</g>
</g>
<!-- Node1&#45;&gt;Node3 -->
<g id="edge2" class="edge">
<title>Node1&#45;&gt;Node3</title>
<path fill="none" stroke="#191970" d="M155.1866,-76.3471C163.5966,-77.1966 172.222,-78.0679 180.8042,-78.9348"/>
<polygon fill="#191970" stroke="#191970" points="180.5425,-82.4261 190.8436,-79.9489 181.246,-75.4615 180.5425,-82.4261"/>
</g>
<!-- Node4 -->
<g id="node4" class="node">
<title>Node4</title>
<g id="a_node4"><a xlink:href="../../df/d23/classBEmcRec.html#aa4fa596a4c2667defdd97427b28f4204" target="_top" xlink:title="BEmcRec::SetTowerThreshold">
<polygon fill="none" stroke="#000000" points="193,-39.5 193,-59.5 358,-59.5 358,-39.5 193,-39.5"/>
<text text-anchor="middle" x="275.5" y="-46.5" font-family="FreeSans" font-size="10.00" fill="#000000">BEmcRec::SetTowerThreshold</text>
</a>
</g>
</g>
<!-- Node1&#45;&gt;Node4 -->
<g id="edge3" class="edge">
<title>Node1&#45;&gt;Node4</title>
<path fill="none" stroke="#191970" d="M155.1866,-61.0452C164.2568,-60.1749 173.5776,-59.2804 182.8245,-58.3931"/>
<polygon fill="#191970" stroke="#191970" points="183.1941,-61.8738 192.814,-57.4345 182.5253,-54.9058 183.1941,-61.8738"/>
</g>
<!-- Node5 -->
<g id="node5" class="node">
<title>Node5</title>
<g id="a_node5"><a xlink:href="../../df/d23/classBEmcRec.html#afdc01a560a57f68f176d3323f9eabe51" target="_top" xlink:title="BEmcRec::SetVertex">
<polygon fill="none" stroke="#000000" points="216,-.5 216,-20.5 335,-20.5 335,-.5 216,-.5"/>
<text text-anchor="middle" x="275.5" y="-7.5" font-family="FreeSans" font-size="10.00" fill="#000000">BEmcRec::SetVertex</text>
</a>
</g>
</g>
<!-- Node1&#45;&gt;Node5 -->
<g id="edge4" class="edge">
<title>Node1&#45;&gt;Node5</title>
<path fill="none" stroke="#191970" d="M122.2231,-52.4845C143.0003,-45.3135 168.1188,-37.0236 191,-30.5 200.2536,-27.8617 210.1458,-25.2957 219.7828,-22.93"/>
<polygon fill="#191970" stroke="#191970" points="220.7933,-26.2868 229.6958,-20.5425 219.1543,-19.4814 220.7933,-26.2868"/>
</g>
</g>
</svg>
