<?xml version="1.0" encoding="UTF-8" standalone="no"?>
<!DOCTYPE svg PUBLIC "-//W3C//DTD SVG 1.1//EN"
 "http://www.w3.org/Graphics/SVG/1.1/DTD/svg11.dtd">
<!-- Generated by graphviz version 2.40.1 (20161225.0304)
 -->
<!-- Title: Acts::PortalJsonConverter::toJson Pages: 1 -->
<svg width="644pt" height="143pt"
 viewBox="0.00 0.00 644.00 143.00" xmlns="http://www.w3.org/2000/svg" xmlns:xlink="http://www.w3.org/1999/xlink">
<g id="graph0" class="graph" transform="scale(1 1) rotate(0) translate(4 139)">
<title>Acts::PortalJsonConverter::toJson</title>
<!-- Node1 -->
<g id="node1" class="node">
<title>Node1</title>
<polygon fill="#bfbfbf" stroke="#000000" points="0,-51.5 0,-83.5 146,-83.5 146,-51.5 0,-51.5"/>
<text text-anchor="start" x="8" y="-70.5" font-family="FreeSans" font-size="10.00" fill="#000000">Acts::PortalJsonConverter</text>
<text text-anchor="middle" x="73" y="-58.5" font-family="FreeSans" font-size="10.00" fill="#000000">::toJson</text>
</g>
<!-- Node2 -->
<g id="node2" class="node">
<title>Node2</title>
<g id="a_node2"><a xlink:href="../../d6/d5a/classActs_1_1Experimental_1_1Portal.html#ab9582b49aeba2cabe9f7517c001ba4ce" target="_top" xlink:title="Acts::Experimental\l::Portal::detectorVolumeUpdators">
<polygon fill="none" stroke="#000000" points="182,-102.5 182,-134.5 367,-134.5 367,-102.5 182,-102.5"/>
<text text-anchor="start" x="190" y="-121.5" font-family="FreeSans" font-size="10.00" fill="#000000">Acts::Experimental</text>
<text text-anchor="middle" x="274.5" y="-109.5" font-family="FreeSans" font-size="10.00" fill="#000000">::Portal::detectorVolumeUpdators</text>
</a>
</g>
</g>
<!-- Node1&#45;&gt;Node2 -->
<g id="edge1" class="edge">
<title>Node1&#45;&gt;Node2</title>
<path fill="none" stroke="#191970" d="M136.4793,-83.5667C156.9942,-88.7591 179.9091,-94.5589 201.0818,-99.9177"/>
<polygon fill="#191970" stroke="#191970" points="200.4406,-103.3657 210.9937,-102.4264 202.1582,-96.5797 200.4406,-103.3657"/>
</g>
<!-- Node3 -->
<g id="node3" class="node">
<title>Node3</title>
<g id="a_node3"><a xlink:href="../../d6/d5a/classActs_1_1Experimental_1_1Portal.html#a42578b0dc667623b86aef459f5856890" target="_top" xlink:title="Const access to the surface representation.">
<polygon fill="none" stroke="#000000" points="218.5,-51.5 218.5,-83.5 330.5,-83.5 330.5,-51.5 218.5,-51.5"/>
<text text-anchor="start" x="226.5" y="-70.5" font-family="FreeSans" font-size="10.00" fill="#000000">Acts::Experimental</text>
<text text-anchor="middle" x="274.5" y="-58.5" font-family="FreeSans" font-size="10.00" fill="#000000">::Portal::surface</text>
</a>
</g>
</g>
<!-- Node1&#45;&gt;Node3 -->
<g id="edge2" class="edge">
<title>Node1&#45;&gt;Node3</title>
<path fill="none" stroke="#191970" d="M146.031,-67.5C166.364,-67.5 188.3303,-67.5 208.2502,-67.5"/>
<polygon fill="#191970" stroke="#191970" points="208.461,-71.0001 218.4609,-67.5 208.4609,-64.0001 208.461,-71.0001"/>
</g>
<!-- Node4 -->
<g id="node4" class="node">
<title>Node4</title>
<g id="a_node4"><a xlink:href="../../d6/ddc/namespaceActs_1_1Transform3JsonConverter.html#ac77a3325dee1f8aa53cd0df4dfaadf2b" target="_top" xlink:title="The Transform converter to json.">
<polygon fill="none" stroke="#000000" points="187.5,-.5 187.5,-32.5 361.5,-32.5 361.5,-.5 187.5,-.5"/>
<text text-anchor="start" x="195.5" y="-19.5" font-family="FreeSans" font-size="10.00" fill="#000000">Acts::Transform3JsonConverter</text>
<text text-anchor="middle" x="274.5" y="-7.5" font-family="FreeSans" font-size="10.00" fill="#000000">::toJson</text>
</a>
</g>
</g>
<!-- Node1&#45;&gt;Node4 -->
<g id="edge3" class="edge">
<title>Node1&#45;&gt;Node4</title>
<path fill="none" stroke="#191970" d="M136.4793,-51.4333C156.9942,-46.2409 179.9091,-40.4411 201.0818,-35.0823"/>
<polygon fill="#191970" stroke="#191970" points="202.1582,-38.4203 210.9937,-32.5736 200.4406,-31.6343 202.1582,-38.4203"/>
</g>
<!-- Node5 -->
<g id="node5" class="node">
<title>Node5</title>
<g id="a_node5"><a xlink:href="../../df/da5/translation_8cxx.html#a6b10c89eba28d5a59fcb6e8c47952817" target="_top" xlink:title="translation">
<polygon fill="none" stroke="#000000" points="403,-6.5 403,-26.5 473,-26.5 473,-6.5 403,-6.5"/>
<text text-anchor="middle" x="438" y="-13.5" font-family="FreeSans" font-size="10.00" fill="#000000">translation</text>
</a>
</g>
</g>
<!-- Node4&#45;&gt;Node5 -->
<g id="edge4" class="edge">
<title>Node4&#45;&gt;Node5</title>
<path fill="none" stroke="#191970" d="M361.5158,-16.5C372.2688,-16.5 382.8998,-16.5 392.6605,-16.5"/>
<polygon fill="#191970" stroke="#191970" points="392.875,-20.0001 402.875,-16.5 392.8749,-13.0001 392.875,-20.0001"/>
</g>
<!-- Node6 -->
<g id="node6" class="node">
<title>Node6</title>
<g id="a_node6"><a xlink:href="../../d2/d0e/export_8cxx.html#a931e6cec5d0f09c278a5f142766bf70c" target="_top" xlink:title="getNode">
<polygon fill="none" stroke="#000000" points="509,-6.5 509,-26.5 568,-26.5 568,-6.5 509,-6.5"/>
<text text-anchor="middle" x="538.5" y="-13.5" font-family="FreeSans" font-size="10.00" fill="#000000">getNode</text>
</a>
</g>
</g>
<!-- Node5&#45;&gt;Node6 -->
<g id="edge5" class="edge">
<title>Node5&#45;&gt;Node6</title>
<path fill="none" stroke="#191970" d="M473.15,-16.5C481.4399,-16.5 490.3341,-16.5 498.8088,-16.5"/>
<polygon fill="#191970" stroke="#191970" points="498.8691,-20.0001 508.8691,-16.5 498.869,-13.0001 498.8691,-20.0001"/>
</g>
<!-- Node7 -->
<g id="node7" class="node">
<title>Node7</title>
<g id="a_node7"><a xlink:href="../../d2/d0e/export_8cxx.html#a386cad5f90f21dcd158f39eae1c4c1ba" target="_top" xlink:title="dfs">
<polygon fill="none" stroke="#000000" points="604,-6.5 604,-26.5 636,-26.5 636,-6.5 604,-6.5"/>
<text text-anchor="middle" x="620" y="-13.5" font-family="FreeSans" font-size="10.00" fill="#000000">dfs</text>
</a>
</g>
</g>
<!-- Node6&#45;&gt;Node7 -->
<g id="edge6" class="edge">
<title>Node6&#45;&gt;Node7</title>
<path fill="none" stroke="#191970" d="M568.3848,-16.5C576.724,-16.5 585.7181,-16.5 593.8257,-16.5"/>
<polygon fill="#191970" stroke="#191970" points="593.8435,-20.0001 603.8434,-16.5 593.8434,-13.0001 593.8435,-20.0001"/>
</g>
</g>
</svg>
