<?xml version="1.0" encoding="UTF-8" standalone="no"?>
<!DOCTYPE svg PUBLIC "-//W3C//DTD SVG 1.1//EN"
 "http://www.w3.org/Graphics/SVG/1.1/DTD/svg11.dtd">
<!-- Generated by graphviz version 2.40.1 (20161225.0304)
 -->
<!-- Title: acts/blob/sPHENIX/Core/src/Geometry/ProtoLayerHelper.cpp Pages: 1 -->
<svg width="2898pt" height="590pt"
 viewBox="0.00 0.00 2898.00 590.00" xmlns="http://www.w3.org/2000/svg" xmlns:xlink="http://www.w3.org/1999/xlink">
<g id="graph0" class="graph" transform="scale(1 1) rotate(0) translate(4 586)">
<title>acts/blob/sPHENIX/Core/src/Geometry/ProtoLayerHelper.cpp</title>
<!-- Node1 -->
<g id="node1" class="node">
<title>Node1</title>
<polygon fill="#bfbfbf" stroke="#000000" points="372.5,-549.5 372.5,-581.5 573.5,-581.5 573.5,-549.5 372.5,-549.5"/>
<text text-anchor="start" x="380.5" y="-568.5" font-family="FreeSans" font-size="10.00" fill="#000000">acts/blob/sPHENIX/Core</text>
<text text-anchor="middle" x="473" y="-556.5" font-family="FreeSans" font-size="10.00" fill="#000000">/src/Geometry/ProtoLayerHelper.cpp</text>
</g>
<!-- Node2 -->
<g id="node2" class="node">
<title>Node2</title>
<g id="a_node2"><a xlink:href="../../d4/d88/ProtoLayerHelper_8hpp.html" target="_top" xlink:title="Acts/Geometry/ProtoLayer\lHelper.hpp">
<polygon fill="none" stroke="#000000" points="2253,-480.5 2253,-512.5 2403,-512.5 2403,-480.5 2253,-480.5"/>
<text text-anchor="start" x="2261" y="-499.5" font-family="FreeSans" font-size="10.00" fill="#000000">Acts/Geometry/ProtoLayer</text>
<text text-anchor="middle" x="2328" y="-487.5" font-family="FreeSans" font-size="10.00" fill="#000000">Helper.hpp</text>
</a>
</g>
</g>
<!-- Node1&#45;&gt;Node2 -->
<g id="edge1" class="edge">
<title>Node1&#45;&gt;Node2</title>
<path fill="none" stroke="#191970" d="M573.7201,-561.7535C902.0787,-549.5397 1937.9309,-511.0093 2242.7959,-499.6693"/>
<polygon fill="#191970" stroke="#191970" points="2243.0359,-503.1629 2252.8989,-499.2935 2242.7756,-496.1677 2243.0359,-503.1629"/>
</g>
<!-- Node5 -->
<g id="node5" class="node">
<title>Node5</title>
<g id="a_node5"><a xlink:href="../../d0/d62/ProtoLayer_8hpp.html" target="_top" xlink:title="Acts/Geometry/ProtoLayer.hpp">
<polygon fill="none" stroke="#000000" points="2299.5,-423.5 2299.5,-443.5 2470.5,-443.5 2470.5,-423.5 2299.5,-423.5"/>
<text text-anchor="middle" x="2385" y="-430.5" font-family="FreeSans" font-size="10.00" fill="#000000">Acts/Geometry/ProtoLayer.hpp</text>
</a>
</g>
</g>
<!-- Node1&#45;&gt;Node5 -->
<g id="edge113" class="edge">
<title>Node1&#45;&gt;Node5</title>
<path fill="none" stroke="#191970" d="M573.7754,-558.5427C905.9784,-535.6082 1963.8346,-462.5763 2288.9898,-440.1283"/>
<polygon fill="#191970" stroke="#191970" points="2289.586,-443.5956 2299.3212,-439.4151 2289.1039,-436.6122 2289.586,-443.5956"/>
</g>
<!-- Node6 -->
<g id="node6" class="node">
<title>Node6</title>
<g id="a_node6"><a xlink:href="../../dc/d2a/Extent_8hpp.html" target="_top" xlink:title="Acts/Geometry/Extent.hpp">
<polygon fill="none" stroke="#000000" points="387.5,-177.5 387.5,-197.5 538.5,-197.5 538.5,-177.5 387.5,-177.5"/>
<text text-anchor="middle" x="463" y="-184.5" font-family="FreeSans" font-size="10.00" fill="#000000">Acts/Geometry/Extent.hpp</text>
</a>
</g>
</g>
<!-- Node1&#45;&gt;Node6 -->
<g id="edge111" class="edge">
<title>Node1&#45;&gt;Node6</title>
<path fill="none" stroke="#191970" d="M444.8202,-549.3904C411.0616,-527.7499 359,-485.8846 359,-433.5 359,-433.5 359,-433.5 359,-313.5 359,-264.4502 406.4562,-224.1723 437.2546,-203.1973"/>
<polygon fill="#191970" stroke="#191970" points="439.3944,-205.9792 445.8265,-197.5602 435.5482,-200.1305 439.3944,-205.9792"/>
</g>
<!-- Node11 -->
<g id="node11" class="node">
<title>Node11</title>
<polygon fill="none" stroke="#bfbfbf" points="94.5,-57.5 94.5,-77.5 139.5,-77.5 139.5,-57.5 94.5,-57.5"/>
<text text-anchor="middle" x="117" y="-64.5" font-family="FreeSans" font-size="10.00" fill="#000000">string</text>
</g>
<!-- Node1&#45;&gt;Node11 -->
<g id="edge117" class="edge">
<title>Node1&#45;&gt;Node11</title>
<path fill="none" stroke="#191970" d="M372.3995,-557.7659C233.5193,-544.27 0,-510.1769 0,-433.5 0,-433.5 0,-433.5 0,-187.5 0,-138.1638 51.327,-101.5391 85.9893,-82.4306"/>
<polygon fill="#191970" stroke="#191970" points="88.0731,-85.2873 95.2674,-77.5095 84.7931,-79.1033 88.0731,-85.2873"/>
</g>
<!-- Node19 -->
<g id="node19" class="node">
<title>Node19</title>
<polygon fill="none" stroke="#bfbfbf" points="499.5,-57.5 499.5,-77.5 542.5,-77.5 542.5,-57.5 499.5,-57.5"/>
<text text-anchor="middle" x="521" y="-64.5" font-family="FreeSans" font-size="10.00" fill="#000000">array</text>
</g>
<!-- Node1&#45;&gt;Node19 -->
<g id="edge115" class="edge">
<title>Node1&#45;&gt;Node19</title>
<path fill="none" stroke="#191970" d="M429.4429,-549.3607C384.5272,-529.5654 321,-491.3433 321,-433.5 321,-433.5 321,-433.5 321,-250.5 321,-211.1441 331.4682,-198.1077 360,-171 389.4464,-143.0234 409.6368,-156.6552 444,-135 466.5882,-120.7652 489.1747,-100.0004 503.9871,-85.2669"/>
<polygon fill="#191970" stroke="#191970" points="506.8385,-87.3601 511.3671,-77.7818 501.8538,-82.4454 506.8385,-87.3601"/>
</g>
<!-- Node22 -->
<g id="node22" class="node">
<title>Node22</title>
<polygon fill="none" stroke="#bfbfbf" points="644.5,-114.5 644.5,-134.5 701.5,-134.5 701.5,-114.5 644.5,-114.5"/>
<text text-anchor="middle" x="673" y="-121.5" font-family="FreeSans" font-size="10.00" fill="#000000">ostream</text>
</g>
<!-- Node1&#45;&gt;Node22 -->
<g id="edge116" class="edge">
<title>Node1&#45;&gt;Node22</title>
<path fill="none" stroke="#191970" d="M465.1264,-549.2638C453.9959,-524.7772 435,-476.6637 435,-433.5 435,-433.5 435,-433.5 435,-376.5 435,-320.3524 539.4611,-207.6469 582,-171 597.8779,-157.3213 618.478,-146.3656 636.0618,-138.5322"/>
<polygon fill="#191970" stroke="#191970" points="637.6555,-141.6573 645.4711,-134.5042 634.9006,-135.2221 637.6555,-141.6573"/>
</g>
<!-- Node23 -->
<g id="node23" class="node">
<title>Node23</title>
<g id="a_node23"><a xlink:href="../../d8/ddd/Surface_8hpp.html" target="_top" xlink:title="Acts/Surfaces/Surface.hpp">
<polygon fill="none" stroke="#000000" points="1629,-366.5 1629,-386.5 1779,-386.5 1779,-366.5 1629,-366.5"/>
<text text-anchor="middle" x="1704" y="-373.5" font-family="FreeSans" font-size="10.00" fill="#000000">Acts/Surfaces/Surface.hpp</text>
</a>
</g>
</g>
<!-- Node1&#45;&gt;Node23 -->
<g id="edge114" class="edge">
<title>Node1&#45;&gt;Node23</title>
<path fill="none" stroke="#191970" d="M573.7379,-550.0333C813.9888,-513.1467 1416.3577,-420.6628 1628.5743,-388.0804"/>
<polygon fill="#191970" stroke="#191970" points="1629.3305,-391.5054 1638.6835,-386.5283 1628.2682,-384.5865 1629.3305,-391.5054"/>
</g>
<!-- Node30 -->
<g id="node30" class="node">
<title>Node30</title>
<g id="a_node30"><a xlink:href="../../db/d40/Polyhedron_8hpp.html" target="_top" xlink:title="Acts/Geometry/Polyhedron.hpp">
<polygon fill="none" stroke="#000000" points="871.5,-240.5 871.5,-260.5 1046.5,-260.5 1046.5,-240.5 871.5,-240.5"/>
<text text-anchor="middle" x="959" y="-247.5" font-family="FreeSans" font-size="10.00" fill="#000000">Acts/Geometry/Polyhedron.hpp</text>
</a>
</g>
</g>
<!-- Node1&#45;&gt;Node30 -->
<g id="edge112" class="edge">
<title>Node1&#45;&gt;Node30</title>
<path fill="none" stroke="#191970" d="M489.9269,-549.3575C538.4201,-503.8667 683.478,-373.0001 825,-297 851.8355,-282.5888 884.0232,-271.2478 910.1254,-263.3746"/>
<polygon fill="#191970" stroke="#191970" points="911.201,-266.7066 919.8075,-260.5278 909.2263,-259.9909 911.201,-266.7066"/>
</g>
<!-- Node3 -->
<g id="node3" class="node">
<title>Node3</title>
<g id="a_node3"><a xlink:href="../../d1/db8/GeometryContext_8hpp.html" target="_top" xlink:title="Acts/Geometry/GeometryContext.hpp">
<polygon fill="none" stroke="#000000" points="2341,-240.5 2341,-260.5 2549,-260.5 2549,-240.5 2341,-240.5"/>
<text text-anchor="middle" x="2445" y="-247.5" font-family="FreeSans" font-size="10.00" fill="#000000">Acts/Geometry/GeometryContext.hpp</text>
</a>
</g>
</g>
<!-- Node2&#45;&gt;Node3 -->
<g id="edge2" class="edge">
<title>Node2&#45;&gt;Node3</title>
<path fill="none" stroke="#191970" d="M2398.7167,-480.4906C2433.3971,-471.0605 2469.874,-458.2104 2480,-444 2518.3728,-390.1491 2478.6434,-307.0162 2457.0305,-269.7385"/>
<polygon fill="#191970" stroke="#191970" points="2459.8778,-267.6803 2451.7391,-260.897 2453.8713,-271.2751 2459.8778,-267.6803"/>
</g>
<!-- Node2&#45;&gt;Node5 -->
<g id="edge4" class="edge">
<title>Node2&#45;&gt;Node5</title>
<path fill="none" stroke="#191970" d="M2342.6789,-480.2759C2350.7408,-471.3654 2360.7496,-460.3031 2369.0095,-451.1737"/>
<polygon fill="#191970" stroke="#191970" points="2371.6113,-453.5149 2375.725,-443.7513 2366.4205,-448.8184 2371.6113,-453.5149"/>
</g>
<!-- Node10 -->
<g id="node10" class="node">
<title>Node10</title>
<g id="a_node10"><a xlink:href="../../de/d09/BinningType_8hpp.html" target="_top" xlink:title="Acts/Utilities/BinningType.hpp">
<polygon fill="none" stroke="#000000" points="720,-114.5 720,-134.5 888,-134.5 888,-114.5 720,-114.5"/>
<text text-anchor="middle" x="804" y="-121.5" font-family="FreeSans" font-size="10.00" fill="#000000">Acts/Utilities/BinningType.hpp</text>
</a>
</g>
</g>
<!-- Node2&#45;&gt;Node10 -->
<g id="edge106" class="edge">
<title>Node2&#45;&gt;Node10</title>
<path fill="none" stroke="#191970" d="M2252.5802,-495.5792C1967.4784,-491.0869 957.2226,-465.7187 671,-330 625.4577,-308.4051 577.2513,-283.9084 602,-240 620.3935,-207.3668 718.1497,-161.3991 770.6281,-138.5434"/>
<polygon fill="#191970" stroke="#191970" points="772.0771,-141.7302 779.8708,-134.5532 769.3025,-135.3035 772.0771,-141.7302"/>
</g>
<!-- Node12 -->
<g id="node12" class="node">
<title>Node12</title>
<polygon fill="none" stroke="#bfbfbf" points="1384.5,-57.5 1384.5,-77.5 1433.5,-77.5 1433.5,-57.5 1384.5,-57.5"/>
<text text-anchor="middle" x="1409" y="-64.5" font-family="FreeSans" font-size="10.00" fill="#000000">vector</text>
</g>
<!-- Node2&#45;&gt;Node12 -->
<g id="edge110" class="edge">
<title>Node2&#45;&gt;Node12</title>
<path fill="none" stroke="#191970" d="M2314.4918,-480.184C2297.6361,-458.1178 2271,-416.8623 2271,-376.5 2271,-376.5 2271,-376.5 2271,-250.5 2271,-214.1716 2274.2149,-199.7446 2252,-171 2219.0508,-128.366 2196.8389,-128.6982 2145,-114 2010.7992,-75.9493 1571.8302,-68.985 1444.1382,-67.7549"/>
<polygon fill="#191970" stroke="#191970" points="1443.8129,-64.2519 1433.7817,-67.6613 1443.7496,-71.2516 1443.8129,-64.2519"/>
</g>
<!-- Node15 -->
<g id="node15" class="node">
<title>Node15</title>
<polygon fill="none" stroke="#bfbfbf" points="2561.5,-57.5 2561.5,-77.5 2606.5,-77.5 2606.5,-57.5 2561.5,-57.5"/>
<text text-anchor="middle" x="2584" y="-64.5" font-family="FreeSans" font-size="10.00" fill="#000000">utility</text>
</g>
<!-- Node2&#45;&gt;Node15 -->
<g id="edge109" class="edge">
<title>Node2&#45;&gt;Node15</title>
<path fill="none" stroke="#191970" d="M2403.3873,-493.5705C2519.9131,-488.1571 2737.7734,-474.2593 2809,-444 2852.1307,-425.6767 2890,-423.3615 2890,-376.5 2890,-376.5 2890,-376.5 2890,-187.5 2890,-143.8918 2862.8733,-135.6169 2825,-114 2789.812,-93.9158 2673.9189,-78.0114 2616.6374,-71.1594"/>
<polygon fill="#191970" stroke="#191970" points="2616.9966,-67.6776 2606.6564,-69.9864 2616.1795,-74.6298 2616.9966,-67.6776"/>
</g>
<!-- Node38 -->
<g id="node38" class="node">
<title>Node38</title>
<g id="a_node38"><a xlink:href="../../d9/d11/Logger_8hpp.html" target="_top" xlink:title="Acts/Utilities/Logger.hpp">
<polygon fill="none" stroke="#000000" points="1801,-177.5 1801,-197.5 1941,-197.5 1941,-177.5 1801,-177.5"/>
<text text-anchor="middle" x="1871" y="-184.5" font-family="FreeSans" font-size="10.00" fill="#000000">Acts/Utilities/Logger.hpp</text>
</a>
</g>
</g>
<!-- Node2&#45;&gt;Node38 -->
<g id="edge107" class="edge">
<title>Node2&#45;&gt;Node38</title>
<path fill="none" stroke="#191970" d="M2287.7347,-480.3947C2248.5893,-461.7669 2195,-427.0369 2195,-376.5 2195,-376.5 2195,-376.5 2195,-313.5 2195,-253.2155 2136.3164,-263.9649 2081,-240 2053.9497,-228.281 1981.1829,-211.2079 1928.8934,-199.7446"/>
<polygon fill="#191970" stroke="#191970" points="1929.5722,-196.3105 1919.0563,-197.6011 1928.0818,-203.15 1929.5722,-196.3105"/>
</g>
<!-- Node45 -->
<g id="node45" class="node">
<title>Node45</title>
<polygon fill="none" stroke="#bfbfbf" points="2728,-114.5 2728,-134.5 2786,-134.5 2786,-114.5 2728,-114.5"/>
<text text-anchor="middle" x="2757" y="-121.5" font-family="FreeSans" font-size="10.00" fill="#000000">memory</text>
</g>
<!-- Node2&#45;&gt;Node45 -->
<g id="edge108" class="edge">
<title>Node2&#45;&gt;Node45</title>
<path fill="none" stroke="#191970" d="M2403.0764,-494.8063C2547.9671,-489.4902 2852,-467.4941 2852,-376.5 2852,-376.5 2852,-376.5 2852,-313.5 2852,-244.0536 2800.1637,-174.0773 2773.0718,-142.2471"/>
<polygon fill="#191970" stroke="#191970" points="2775.6647,-139.8951 2766.4563,-134.6553 2770.3873,-144.4939 2775.6647,-139.8951"/>
</g>
<!-- Node4 -->
<g id="node4" class="node">
<title>Node4</title>
<g id="a_node4"><a xlink:href="../../d2/d59/ContextType_8hpp.html" target="_top" xlink:title="Acts/Utilities/detail\l/ContextType.hpp">
<polygon fill="none" stroke="#ff0000" points="2389.5,-171.5 2389.5,-203.5 2500.5,-203.5 2500.5,-171.5 2389.5,-171.5"/>
<text text-anchor="start" x="2397.5" y="-190.5" font-family="FreeSans" font-size="10.00" fill="#000000">Acts/Utilities/detail</text>
<text text-anchor="middle" x="2445" y="-178.5" font-family="FreeSans" font-size="10.00" fill="#000000">/ContextType.hpp</text>
</a>
</g>
</g>
<!-- Node3&#45;&gt;Node4 -->
<g id="edge3" class="edge">
<title>Node3&#45;&gt;Node4</title>
<path fill="none" stroke="#191970" d="M2445,-240.378C2445,-233.2008 2445,-223.2202 2445,-213.8614"/>
<polygon fill="#191970" stroke="#191970" points="2448.5001,-213.7419 2445,-203.742 2441.5001,-213.742 2448.5001,-213.7419"/>
</g>
<!-- Node5&#45;&gt;Node3 -->
<g id="edge28" class="edge">
<title>Node5&#45;&gt;Node3</title>
<path fill="none" stroke="#191970" d="M2388.3113,-423.4005C2397.8775,-394.2236 2425.6819,-309.4201 2438.4501,-270.4773"/>
<polygon fill="#191970" stroke="#191970" points="2441.8352,-271.3867 2441.6249,-260.7939 2435.1836,-269.2058 2441.8352,-271.3867"/>
</g>
<!-- Node5&#45;&gt;Node6 -->
<g id="edge5" class="edge">
<title>Node5&#45;&gt;Node6</title>
<path fill="none" stroke="#191970" d="M2299.4713,-432.8621C1935.3788,-429.9641 531.5181,-416.8684 497,-387 444.9175,-341.9332 452.6617,-248.9087 459.1485,-207.7967"/>
<polygon fill="#191970" stroke="#191970" points="462.6093,-208.3232 460.854,-197.8748 455.7105,-207.1373 462.6093,-208.3232"/>
</g>
<!-- Node5&#45;&gt;Node10 -->
<g id="edge101" class="edge">
<title>Node5&#45;&gt;Node10</title>
<path fill="none" stroke="#191970" d="M2299.2973,-430.9806C1973.9449,-421.0538 825.8038,-382.5982 671,-330 619.178,-312.3922 594.6624,-309.3425 569,-261 537.0097,-200.737 622.7185,-193.5123 667,-171 694.9937,-156.7683 728.3215,-145.3464 755.096,-137.3845"/>
<polygon fill="#191970" stroke="#191970" points="756.3854,-140.6546 765.0119,-134.5037 754.4325,-133.9326 756.3854,-140.6546"/>
</g>
<!-- Node5&#45;&gt;Node12 -->
<g id="edge105" class="edge">
<title>Node5&#45;&gt;Node12</title>
<path fill="none" stroke="#191970" d="M2372.7893,-423.3295C2351.3058,-404.2171 2309,-360.6008 2309,-313.5 2309,-313.5 2309,-313.5 2309,-250.5 2309,-186.8943 2316.5728,-152.5755 2266,-114 2232.8097,-88.6834 1600.8836,-72.0547 1444.0146,-68.3059"/>
<polygon fill="#191970" stroke="#191970" points="1443.6358,-64.796 1433.5558,-68.0583 1443.4701,-71.7941 1443.6358,-64.796"/>
</g>
<!-- Node5&#45;&gt;Node15 -->
<g id="edge104" class="edge">
<title>Node5&#45;&gt;Node15</title>
<path fill="none" stroke="#191970" d="M2470.6635,-425.4774C2536.6341,-418.0301 2621.4,-405.3169 2651,-387 2763.6127,-317.3139 2787.9387,-265.5798 2810,-135 2811.5548,-125.7971 2815.8973,-121.2342 2810,-114 2785.984,-84.5396 2673.385,-73.2044 2616.7308,-69.3111"/>
<polygon fill="#191970" stroke="#191970" points="2616.7184,-65.803 2606.5127,-68.6482 2616.2651,-72.7883 2616.7184,-65.803"/>
</g>
<!-- Node5&#45;&gt;Node23 -->
<g id="edge29" class="edge">
<title>Node5&#45;&gt;Node23</title>
<path fill="none" stroke="#191970" d="M2299.4404,-426.3386C2168.4448,-415.3742 1919.6579,-394.5507 1788.9991,-383.6145"/>
<polygon fill="#191970" stroke="#191970" points="1789.2891,-380.1266 1779.032,-382.7802 1788.7052,-387.1022 1789.2891,-380.1266"/>
</g>
<!-- Node44 -->
<g id="node44" class="node">
<title>Node44</title>
<polygon fill="none" stroke="#bfbfbf" points="2612,-114.5 2612,-134.5 2672,-134.5 2672,-114.5 2612,-114.5"/>
<text text-anchor="middle" x="2642" y="-121.5" font-family="FreeSans" font-size="10.00" fill="#000000">iostream</text>
</g>
<!-- Node5&#45;&gt;Node44 -->
<g id="edge102" class="edge">
<title>Node5&#45;&gt;Node44</title>
<path fill="none" stroke="#191970" d="M2470.6462,-425.584C2539.9165,-413.9083 2626,-385.0123 2626,-313.5 2626,-313.5 2626,-313.5 2626,-250.5 2626,-212.8295 2633.1252,-169.325 2637.866,-144.5486"/>
<polygon fill="#191970" stroke="#191970" points="2641.3325,-145.0604 2639.8422,-134.5709 2634.4659,-143.7003 2641.3325,-145.0604"/>
</g>
<!-- Node5&#45;&gt;Node45 -->
<g id="edge103" class="edge">
<title>Node5&#45;&gt;Node45</title>
<path fill="none" stroke="#191970" d="M2451.9871,-423.4454C2549.7486,-406.8559 2720,-369.8729 2720,-313.5 2720,-313.5 2720,-313.5 2720,-250.5 2720,-211.4003 2736.6054,-168.1399 2747.5676,-143.8412"/>
<polygon fill="#191970" stroke="#191970" points="2750.7969,-145.1977 2751.8553,-134.6558 2744.4539,-142.2368 2750.7969,-145.1977"/>
</g>
<!-- Node7 -->
<g id="node7" class="node">
<title>Node7</title>
<g id="a_node7"><a xlink:href="../../da/dd2/Algebra_8hpp.html" target="_top" xlink:title="Acts/Definitions/Algebra.hpp">
<polygon fill="none" stroke="#000000" points="1175,-114.5 1175,-134.5 1337,-134.5 1337,-114.5 1175,-114.5"/>
<text text-anchor="middle" x="1256" y="-121.5" font-family="FreeSans" font-size="10.00" fill="#000000">Acts/Definitions/Algebra.hpp</text>
</a>
</g>
</g>
<!-- Node6&#45;&gt;Node7 -->
<g id="edge6" class="edge">
<title>Node6&#45;&gt;Node7</title>
<path fill="none" stroke="#191970" d="M538.677,-181.4878C685.0909,-169.856 1006.5929,-144.3142 1164.6331,-131.7587"/>
<polygon fill="#191970" stroke="#191970" points="1165.1116,-135.2318 1174.803,-130.9507 1164.5572,-128.2537 1165.1116,-135.2318"/>
</g>
<!-- Node6&#45;&gt;Node10 -->
<g id="edge9" class="edge">
<title>Node6&#45;&gt;Node10</title>
<path fill="none" stroke="#191970" d="M517.4095,-177.4478C577.9162,-166.2692 675.5695,-148.2276 739.7773,-136.3652"/>
<polygon fill="#191970" stroke="#191970" points="740.5866,-139.775 749.7843,-134.5164 739.3148,-132.8915 740.5866,-139.775"/>
</g>
<!-- Node6&#45;&gt;Node11 -->
<g id="edge26" class="edge">
<title>Node6&#45;&gt;Node11</title>
<path fill="none" stroke="#191970" d="M387.3812,-181.1313C310.6858,-173.484 198.2713,-158.6467 162,-135 144.3855,-123.5164 132.0112,-102.4695 124.7559,-86.9195"/>
<polygon fill="#191970" stroke="#191970" points="127.9223,-85.4242 120.7238,-77.6505 121.5034,-88.2166 127.9223,-85.4242"/>
</g>
<!-- Node6&#45;&gt;Node12 -->
<g id="edge27" class="edge">
<title>Node6&#45;&gt;Node12</title>
<path fill="none" stroke="#191970" d="M480.8529,-177.3282C511.3229,-160.5608 575.8222,-127.6206 635,-114 952.5976,-40.9003 1048.7301,-133.1006 1374.1069,-77.6858"/>
<polygon fill="#191970" stroke="#191970" points="1375.041,-81.076 1384.2941,-75.9156 1373.8425,-74.1794 1375.041,-81.076"/>
</g>
<!-- Node13 -->
<g id="node13" class="node">
<title>Node13</title>
<g id="a_node13"><a xlink:href="../../d2/df2/Enumerate_8hpp.html" target="_top" xlink:title="Acts/Utilities/Enumerate.hpp">
<polygon fill="none" stroke="#000000" points="2318,-114.5 2318,-134.5 2480,-134.5 2480,-114.5 2318,-114.5"/>
<text text-anchor="middle" x="2399" y="-121.5" font-family="FreeSans" font-size="10.00" fill="#000000">Acts/Utilities/Enumerate.hpp</text>
</a>
</g>
</g>
<!-- Node6&#45;&gt;Node13 -->
<g id="edge12" class="edge">
<title>Node6&#45;&gt;Node13</title>
<path fill="none" stroke="#191970" d="M538.7254,-182.5394C597.0057,-178.876 679.5697,-174.0207 752,-171 1359.2384,-145.6755 1511.5431,-154.3879 2119,-135 2182.0505,-132.9876 2253.0717,-130.3197 2307.8096,-128.1768"/>
<polygon fill="#191970" stroke="#191970" points="2307.9804,-131.6729 2317.8353,-127.783 2307.7056,-124.6783 2307.9804,-131.6729"/>
</g>
<!-- Node16 -->
<g id="node16" class="node">
<title>Node16</title>
<g id="a_node16"><a xlink:href="../../da/d26/Range1D_8hpp.html" target="_top" xlink:title="Acts/Utilities/Range1D.hpp">
<polygon fill="none" stroke="#ff0000" points="170,-57.5 170,-77.5 322,-77.5 322,-57.5 170,-57.5"/>
<text text-anchor="middle" x="246" y="-64.5" font-family="FreeSans" font-size="10.00" fill="#000000">Acts/Utilities/Range1D.hpp</text>
</a>
</g>
</g>
<!-- Node6&#45;&gt;Node16 -->
<g id="edge15" class="edge">
<title>Node6&#45;&gt;Node16</title>
<path fill="none" stroke="#191970" d="M387.4674,-184.5857C310.311,-179.8337 198.0944,-167.4002 171,-135 153.9109,-114.5644 183.5894,-94.5889 210.5034,-81.7379"/>
<polygon fill="#191970" stroke="#191970" points="212.1712,-84.8245 219.8268,-77.5004 209.2747,-78.4518 212.1712,-84.8245"/>
</g>
<!-- Node18 -->
<g id="node18" class="node">
<title>Node18</title>
<g id="a_node18"><a xlink:href="../../da/d29/RangeXD_8hpp.html" target="_top" xlink:title="Acts/Utilities/RangeXD.hpp">
<polygon fill="none" stroke="#ff0000" points="282.5,-114.5 282.5,-134.5 435.5,-134.5 435.5,-114.5 282.5,-114.5"/>
<text text-anchor="middle" x="359" y="-121.5" font-family="FreeSans" font-size="10.00" fill="#000000">Acts/Utilities/RangeXD.hpp</text>
</a>
</g>
</g>
<!-- Node6&#45;&gt;Node18 -->
<g id="edge17" class="edge">
<title>Node6&#45;&gt;Node18</title>
<path fill="none" stroke="#191970" d="M446.2906,-177.378C429.5364,-167.2288 403.5279,-151.4736 384.2546,-139.7985"/>
<polygon fill="#191970" stroke="#191970" points="386.0345,-136.7846 375.6679,-134.5969 382.4076,-142.7717 386.0345,-136.7846"/>
</g>
<!-- Node6&#45;&gt;Node19 -->
<g id="edge23" class="edge">
<title>Node6&#45;&gt;Node19</title>
<path fill="none" stroke="#191970" d="M478.0529,-177.3977C490.6179,-168.0337 507.7569,-152.8774 516,-135 522.8331,-120.1805 523.724,-101.5753 523.1089,-87.653"/>
<polygon fill="#191970" stroke="#191970" points="526.5977,-87.3712 522.3774,-77.6532 519.6163,-87.8819 526.5977,-87.3712"/>
</g>
<!-- Node21 -->
<g id="node21" class="node">
<title>Node21</title>
<polygon fill="none" stroke="#bfbfbf" points="180.5,-114.5 180.5,-134.5 225.5,-134.5 225.5,-114.5 180.5,-114.5"/>
<text text-anchor="middle" x="203" y="-121.5" font-family="FreeSans" font-size="10.00" fill="#000000">bitset</text>
</g>
<!-- Node6&#45;&gt;Node21 -->
<g id="edge24" class="edge">
<title>Node6&#45;&gt;Node21</title>
<path fill="none" stroke="#191970" d="M417.5791,-177.4405C372.4121,-167.2883 301.2133,-150.8826 240,-135 238.5458,-134.6227 237.0613,-134.2306 235.5633,-133.8292"/>
<polygon fill="#191970" stroke="#191970" points="236.2241,-130.3811 225.654,-131.1042 234.368,-137.1305 236.2241,-130.3811"/>
</g>
<!-- Node6&#45;&gt;Node22 -->
<g id="edge25" class="edge">
<title>Node6&#45;&gt;Node22</title>
<path fill="none" stroke="#191970" d="M496.7401,-177.378C534.3902,-166.083 595.1847,-147.8446 634.62,-136.014"/>
<polygon fill="#191970" stroke="#191970" points="635.8309,-139.3049 644.4035,-133.079 633.8195,-132.6001 635.8309,-139.3049"/>
</g>
<!-- Node8 -->
<g id="node8" class="node">
<title>Node8</title>
<polygon fill="none" stroke="#bfbfbf" points="1220.5,-57.5 1220.5,-77.5 1291.5,-77.5 1291.5,-57.5 1220.5,-57.5"/>
<text text-anchor="middle" x="1256" y="-64.5" font-family="FreeSans" font-size="10.00" fill="#000000">Eigen/Core</text>
</g>
<!-- Node7&#45;&gt;Node8 -->
<g id="edge7" class="edge">
<title>Node7&#45;&gt;Node8</title>
<path fill="none" stroke="#191970" d="M1256,-114.3095C1256,-106.9335 1256,-96.72 1256,-87.715"/>
<polygon fill="#191970" stroke="#191970" points="1259.5001,-87.6022 1256,-77.6022 1252.5001,-87.6023 1259.5001,-87.6022"/>
</g>
<!-- Node9 -->
<g id="node9" class="node">
<title>Node9</title>
<polygon fill="none" stroke="#bfbfbf" points="1104,-57.5 1104,-77.5 1202,-77.5 1202,-57.5 1104,-57.5"/>
<text text-anchor="middle" x="1153" y="-64.5" font-family="FreeSans" font-size="10.00" fill="#000000">Eigen/Geometry</text>
</g>
<!-- Node7&#45;&gt;Node9 -->
<g id="edge8" class="edge">
<title>Node7&#45;&gt;Node9</title>
<path fill="none" stroke="#191970" d="M1237.5857,-114.3095C1221.6206,-105.4745 1198.2991,-92.5684 1180.1857,-82.5445"/>
<polygon fill="#191970" stroke="#191970" points="1181.6992,-79.3819 1171.2549,-77.6022 1178.3098,-85.5066 1181.6992,-79.3819"/>
</g>
<!-- Node10&#45;&gt;Node11 -->
<g id="edge10" class="edge">
<title>Node10&#45;&gt;Node11</title>
<path fill="none" stroke="#191970" d="M719.9721,-114.9211C716.6053,-114.5984 713.2714,-114.2898 710,-114 466.4299,-92.4218 402.7831,-114.5092 161,-78 157.2872,-77.4394 153.4264,-76.7219 149.6025,-75.9257"/>
<polygon fill="#191970" stroke="#191970" points="150.2186,-72.4768 139.6933,-73.688 148.6767,-79.3049 150.2186,-72.4768"/>
</g>
<!-- Node10&#45;&gt;Node12 -->
<g id="edge11" class="edge">
<title>Node10&#45;&gt;Node12</title>
<path fill="none" stroke="#191970" d="M888.1671,-118.6656C1027.919,-108.8342 1299.1245,-89.0983 1373.9959,-77.5925"/>
<polygon fill="#191970" stroke="#191970" points="1375.0168,-80.9681 1384.2764,-75.8193 1373.8269,-74.07 1375.0168,-80.9681"/>
</g>
<!-- Node14 -->
<g id="node14" class="node">
<title>Node14</title>
<polygon fill="none" stroke="#bfbfbf" points="2378,-57.5 2378,-77.5 2420,-77.5 2420,-57.5 2378,-57.5"/>
<text text-anchor="middle" x="2399" y="-64.5" font-family="FreeSans" font-size="10.00" fill="#000000">tuple</text>
</g>
<!-- Node13&#45;&gt;Node14 -->
<g id="edge13" class="edge">
<title>Node13&#45;&gt;Node14</title>
<path fill="none" stroke="#191970" d="M2399,-114.3095C2399,-106.9335 2399,-96.72 2399,-87.715"/>
<polygon fill="#191970" stroke="#191970" points="2402.5001,-87.6022 2399,-77.6022 2395.5001,-87.6023 2402.5001,-87.6022"/>
</g>
<!-- Node13&#45;&gt;Node15 -->
<g id="edge14" class="edge">
<title>Node13&#45;&gt;Node15</title>
<path fill="none" stroke="#191970" d="M2431.6484,-114.4408C2465.3964,-104.0427 2517.7715,-87.9055 2551.4742,-77.5215"/>
<polygon fill="#191970" stroke="#191970" points="2552.7668,-80.7856 2561.2929,-74.4962 2550.7057,-74.096 2552.7668,-80.7856"/>
</g>
<!-- Node17 -->
<g id="node17" class="node">
<title>Node17</title>
<polygon fill="none" stroke="#bfbfbf" points="213.5,-.5 213.5,-20.5 278.5,-20.5 278.5,-.5 213.5,-.5"/>
<text text-anchor="middle" x="246" y="-7.5" font-family="FreeSans" font-size="10.00" fill="#000000">algorithm</text>
</g>
<!-- Node16&#45;&gt;Node17 -->
<g id="edge16" class="edge">
<title>Node16&#45;&gt;Node17</title>
<path fill="none" stroke="#191970" d="M246,-57.3095C246,-49.9335 246,-39.72 246,-30.715"/>
<polygon fill="#191970" stroke="#191970" points="249.5001,-30.6022 246,-20.6022 242.5001,-30.6023 249.5001,-30.6022"/>
</g>
<!-- Node18&#45;&gt;Node11 -->
<g id="edge22" class="edge">
<title>Node18&#45;&gt;Node11</title>
<path fill="none" stroke="#191970" d="M316.1172,-114.4758C276.0057,-105.0883 214.4305,-90.6492 161,-78 157.3461,-77.135 153.5222,-76.2268 149.7194,-75.3218"/>
<polygon fill="#191970" stroke="#191970" points="150.3722,-71.8794 139.8331,-72.9653 148.7491,-78.6886 150.3722,-71.8794"/>
</g>
<!-- Node18&#45;&gt;Node16 -->
<g id="edge18" class="edge">
<title>Node18&#45;&gt;Node16</title>
<path fill="none" stroke="#191970" d="M339.058,-114.4408C321.3361,-105.5014 295.2049,-92.3202 275.1412,-82.1996"/>
<polygon fill="#191970" stroke="#191970" points="276.6275,-79.0292 266.1228,-77.6504 273.4749,-85.2791 276.6275,-79.0292"/>
</g>
<!-- Node18&#45;&gt;Node17 -->
<g id="edge19" class="edge">
<title>Node18&#45;&gt;Node17</title>
<path fill="none" stroke="#191970" d="M356.9881,-114.1991C353.7315,-99.8724 346.0886,-73.8023 331,-57 318.3169,-42.8764 300.298,-32.1687 284.1123,-24.6098"/>
<polygon fill="#191970" stroke="#191970" points="285.4103,-21.357 274.8485,-20.5211 282.5838,-27.761 285.4103,-21.357"/>
</g>
<!-- Node18&#45;&gt;Node19 -->
<g id="edge20" class="edge">
<title>Node18&#45;&gt;Node19</title>
<path fill="none" stroke="#191970" d="M387.5894,-114.4408C416.1908,-104.3773 460.0706,-88.9381 489.6193,-78.5413"/>
<polygon fill="#191970" stroke="#191970" points="491.1534,-81.712 499.4249,-75.0913 488.83,-75.1088 491.1534,-81.712"/>
</g>
<!-- Node20 -->
<g id="node20" class="node">
<title>Node20</title>
<polygon fill="none" stroke="#bfbfbf" points="1310,-57.5 1310,-77.5 1366,-77.5 1366,-57.5 1310,-57.5"/>
<text text-anchor="middle" x="1338" y="-64.5" font-family="FreeSans" font-size="10.00" fill="#000000">sstream</text>
</g>
<!-- Node18&#45;&gt;Node20 -->
<g id="edge21" class="edge">
<title>Node18&#45;&gt;Node20</title>
<path fill="none" stroke="#191970" d="M435.9023,-120.5179C474.3706,-118.537 521.645,-116.1191 564,-114 888.1779,-97.7804 975.5969,-130.4274 1299.7175,-77.8586"/>
<polygon fill="#191970" stroke="#191970" points="1300.5648,-81.2666 1309.8681,-76.1972 1299.434,-74.3586 1300.5648,-81.2666"/>
</g>
<!-- Node23&#45;&gt;Node3 -->
<g id="edge40" class="edge">
<title>Node23&#45;&gt;Node3</title>
<path fill="none" stroke="#191970" d="M1779.0205,-373.2647C1871.7909,-368.2953 2034.2027,-356.4249 2171,-330 2256.893,-313.4082 2354.6866,-281.8699 2407.0771,-263.906"/>
<polygon fill="#191970" stroke="#191970" points="2408.3152,-267.1813 2416.6255,-260.6095 2406.0308,-260.5646 2408.3152,-267.1813"/>
</g>
<!-- Node23&#45;&gt;Node7 -->
<g id="edge30" class="edge">
<title>Node23&#45;&gt;Node7</title>
<path fill="none" stroke="#191970" d="M1779.3712,-374.5718C1864.5974,-370.9272 1996.5254,-360.3996 2035,-330 2067.7673,-304.1098 2089.5091,-271.4205 2062,-240 2022.1268,-194.4574 1847.6311,-227.8576 1792,-204 1770.502,-194.7805 1772.6731,-179.7998 1751,-171 1741.7653,-167.2505 1488.0486,-144.6943 1347.538,-132.4293"/>
<polygon fill="#191970" stroke="#191970" points="1347.4738,-128.9105 1337.2075,-131.5283 1346.8655,-135.884 1347.4738,-128.9105"/>
</g>
<!-- Node23&#45;&gt;Node10 -->
<g id="edge69" class="edge">
<title>Node23&#45;&gt;Node10</title>
<path fill="none" stroke="#191970" d="M1628.8664,-375.0897C1428.3432,-370.961 893.9408,-357.4238 868,-330 857.9212,-319.345 858.6607,-308.3088 868,-297 923.3268,-230.0061 1103.8474,-311.8552 1055,-240 1030.5476,-204.0301 1003.7331,-221.6927 964,-204 917.0073,-183.0747 863.7521,-155.8968 832.0703,-139.3494"/>
<polygon fill="#191970" stroke="#191970" points="833.4433,-136.1175 822.9615,-134.574 830.193,-142.3171 833.4433,-136.1175"/>
</g>
<!-- Node23&#45;&gt;Node11 -->
<g id="edge98" class="edge">
<title>Node23&#45;&gt;Node11</title>
<path fill="none" stroke="#191970" d="M1628.6121,-374.733C1399.3913,-369.1544 720.4315,-351.0354 623,-330 395.9066,-280.9706 295.5217,-305.7695 138,-135 126.0643,-122.0605 120.9111,-102.4302 118.6869,-87.669"/>
<polygon fill="#191970" stroke="#191970" points="122.1377,-87.0443 117.4933,-77.5217 115.1856,-87.8621 122.1377,-87.0443"/>
</g>
<!-- Node23&#45;&gt;Node14 -->
<g id="edge99" class="edge">
<title>Node23&#45;&gt;Node14</title>
<path fill="none" stroke="#191970" d="M1779.2302,-373.3211C1962.1191,-364.4956 2424.7893,-335.2629 2558,-261 2595.2031,-240.2599 2708.5595,-146.4761 2681,-114 2664.8532,-94.9726 2499.9399,-77.1347 2430.0421,-70.3668"/>
<polygon fill="#191970" stroke="#191970" points="2430.3493,-66.8803 2420.0617,-69.4133 2429.6835,-73.8485 2430.3493,-66.8803"/>
</g>
<!-- Node23&#45;&gt;Node15 -->
<g id="edge100" class="edge">
<title>Node23&#45;&gt;Node15</title>
<path fill="none" stroke="#191970" d="M1779.0169,-376.0246C1949.9483,-374.3091 2363.9076,-366.4054 2498,-330 2650.392,-288.6263 2746.2973,-285.2104 2795,-135 2797.8786,-126.1217 2800.8465,-121.2753 2795,-114 2773.0263,-86.6565 2670.5362,-74.4469 2616.9075,-69.8527"/>
<polygon fill="#191970" stroke="#191970" points="2617.1233,-66.3587 2606.8716,-69.0332 2616.5535,-73.3355 2617.1233,-66.3587"/>
</g>
<!-- Node23&#45;&gt;Node19 -->
<g id="edge94" class="edge">
<title>Node23&#45;&gt;Node19</title>
<path fill="none" stroke="#191970" d="M1628.6895,-376.242C1405.5147,-375.0422 757.8062,-368.2656 671,-330 631.3155,-312.5064 626.1621,-297.015 602,-261 563.3864,-203.4441 537.419,-124.5244 526.6353,-87.8135"/>
<polygon fill="#191970" stroke="#191970" points="529.8983,-86.4948 523.7789,-77.846 523.1692,-88.4232 529.8983,-86.4948"/>
</g>
<!-- Node23&#45;&gt;Node22 -->
<g id="edge97" class="edge">
<title>Node23&#45;&gt;Node22</title>
<path fill="none" stroke="#191970" d="M1628.782,-375.2938C1420.992,-371.5974 852.5654,-358.8798 825,-330 776.2069,-278.8804 866.156,-227.7173 824,-171 820.518,-166.3152 754.8916,-147.2979 711.3124,-135.0819"/>
<polygon fill="#191970" stroke="#191970" points="712.1426,-131.6799 701.5697,-132.361 710.2597,-138.4219 712.1426,-131.6799"/>
</g>
<!-- Node24 -->
<g id="node24" class="node">
<title>Node24</title>
<g id="a_node24"><a xlink:href="../../dd/dee/Core_2include_2Acts_2Definitions_2Alignment_8hpp.html" target="_top" xlink:title="Acts/Definitions/Alignment.hpp">
<polygon fill="none" stroke="#000000" points="1879,-240.5 1879,-260.5 2053,-260.5 2053,-240.5 1879,-240.5"/>
<text text-anchor="middle" x="1966" y="-247.5" font-family="FreeSans" font-size="10.00" fill="#000000">Acts/Definitions/Alignment.hpp</text>
</a>
</g>
</g>
<!-- Node23&#45;&gt;Node24 -->
<g id="edge31" class="edge">
<title>Node23&#45;&gt;Node24</title>
<path fill="none" stroke="#191970" d="M1779.2407,-370.51C1867.4054,-362.7131 2003.5126,-347.9415 2019,-330 2028.5838,-318.8976 2025.0516,-310.36 2019,-297 2013.3969,-284.6302 2002.6971,-274.249 1992.37,-266.4558"/>
<polygon fill="#191970" stroke="#191970" points="1994.103,-263.3967 1983.903,-260.5313 1990.0899,-269.1321 1994.103,-263.3967"/>
</g>
<!-- Node25 -->
<g id="node25" class="node">
<title>Node25</title>
<g id="a_node25"><a xlink:href="../../d7/d3a/TrackParametrization_8hpp.html" target="_top" xlink:title="Acts/Definitions/TrackParametrization.hpp">
<polygon fill="none" stroke="#ff0000" points="1477.5,-177.5 1477.5,-197.5 1706.5,-197.5 1706.5,-177.5 1477.5,-177.5"/>
<text text-anchor="middle" x="1592" y="-184.5" font-family="FreeSans" font-size="10.00" fill="#000000">Acts/Definitions/TrackParametrization.hpp</text>
</a>
</g>
</g>
<!-- Node23&#45;&gt;Node25 -->
<g id="edge38" class="edge">
<title>Node23&#45;&gt;Node25</title>
<path fill="none" stroke="#191970" d="M1779.1968,-373.5288C1847.7045,-369.0543 1941.6527,-357.8746 1965,-330 1974.4176,-318.7563 1973.7897,-308.741 1965,-297 1955.0286,-283.6805 1739.0306,-225.8914 1640.3769,-200.0585"/>
<polygon fill="#191970" stroke="#191970" points="1641.201,-196.6564 1630.6409,-197.5131 1639.4304,-203.4288 1641.201,-196.6564"/>
</g>
<!-- Node26 -->
<g id="node26" class="node">
<title>Node26</title>
<g id="a_node26"><a xlink:href="../../d8/ddd/Common_8hpp.html" target="_top" xlink:title="Acts/Definitions/Common.hpp">
<polygon fill="none" stroke="#ff0000" points="1097,-303.5 1097,-323.5 1265,-323.5 1265,-303.5 1097,-303.5"/>
<text text-anchor="middle" x="1181" y="-310.5" font-family="FreeSans" font-size="10.00" fill="#000000">Acts/Definitions/Common.hpp</text>
</a>
</g>
</g>
<!-- Node23&#45;&gt;Node26 -->
<g id="edge35" class="edge">
<title>Node23&#45;&gt;Node26</title>
<path fill="none" stroke="#191970" d="M1628.8476,-369.9311C1542.8697,-362.0549 1397.9551,-347.6775 1274,-330 1264.2598,-328.6109 1253.9766,-326.9666 1243.9401,-325.263"/>
<polygon fill="#191970" stroke="#191970" points="1244.4652,-321.8019 1234.015,-323.5469 1243.2725,-328.6996 1244.4652,-321.8019"/>
</g>
<!-- Node27 -->
<g id="node27" class="node">
<title>Node27</title>
<g id="a_node27"><a xlink:href="../../d7/d39/Tolerance_8hpp.html" target="_top" xlink:title="Acts/Definitions/Tolerance.hpp">
<polygon fill="none" stroke="#ff0000" points="1249.5,-240.5 1249.5,-260.5 1420.5,-260.5 1420.5,-240.5 1249.5,-240.5"/>
<text text-anchor="middle" x="1335" y="-247.5" font-family="FreeSans" font-size="10.00" fill="#000000">Acts/Definitions/Tolerance.hpp</text>
</a>
</g>
</g>
<!-- Node23&#45;&gt;Node27 -->
<g id="edge36" class="edge">
<title>Node23&#45;&gt;Node27</title>
<path fill="none" stroke="#191970" d="M1706.9614,-366.3983C1711.2037,-349.589 1716.6896,-315.8643 1699,-297 1694.3958,-292.09 1537.1508,-273.3883 1430.8621,-261.2503"/>
<polygon fill="#191970" stroke="#191970" points="1431.074,-257.7519 1420.742,-260.0968 1430.2812,-264.7069 1431.074,-257.7519"/>
</g>
<!-- Node28 -->
<g id="node28" class="node">
<title>Node28</title>
<g id="a_node28"><a xlink:href="../../dc/d45/DetectorElementBase_8hpp.html" target="_top" xlink:title="Acts/Geometry/DetectorElement\lBase.hpp">
<polygon fill="none" stroke="#ff0000" points="1283,-297.5 1283,-329.5 1465,-329.5 1465,-297.5 1283,-297.5"/>
<text text-anchor="start" x="1291" y="-316.5" font-family="FreeSans" font-size="10.00" fill="#000000">Acts/Geometry/DetectorElement</text>
<text text-anchor="middle" x="1374" y="-304.5" font-family="FreeSans" font-size="10.00" fill="#000000">Base.hpp</text>
</a>
</g>
</g>
<!-- Node23&#45;&gt;Node28 -->
<g id="edge39" class="edge">
<title>Node23&#45;&gt;Node28</title>
<path fill="none" stroke="#191970" d="M1651.3456,-366.4478C1602.1487,-357.0557 1527.5753,-342.8189 1468.143,-331.4728"/>
<polygon fill="#191970" stroke="#191970" points="1468.4672,-327.9715 1457.9882,-329.5341 1467.1544,-334.8473 1468.4672,-327.9715"/>
</g>
<!-- Node29 -->
<g id="node29" class="node">
<title>Node29</title>
<g id="a_node29"><a xlink:href="../../da/de0/GeometryObject_8hpp.html" target="_top" xlink:title="Acts/Geometry/GeometryObject.hpp">
<polygon fill="none" stroke="#ff0000" points="877.5,-303.5 877.5,-323.5 1078.5,-323.5 1078.5,-303.5 877.5,-303.5"/>
<text text-anchor="middle" x="978" y="-310.5" font-family="FreeSans" font-size="10.00" fill="#000000">Acts/Geometry/GeometryObject.hpp</text>
</a>
</g>
</g>
<!-- Node23&#45;&gt;Node29 -->
<g id="edge41" class="edge">
<title>Node23&#45;&gt;Node29</title>
<path fill="none" stroke="#191970" d="M1628.9227,-372.6172C1512.7448,-366.2065 1282.5,-351.8986 1088,-330 1075.508,-328.5935 1062.2563,-326.8354 1049.439,-324.9955"/>
<polygon fill="#191970" stroke="#191970" points="1049.6773,-321.4931 1039.2757,-323.5075 1048.6632,-328.4193 1049.6773,-321.4931"/>
</g>
<!-- Node23&#45;&gt;Node30 -->
<g id="edge50" class="edge">
<title>Node23&#45;&gt;Node30</title>
<path fill="none" stroke="#191970" d="M1628.8891,-375.2566C1422.832,-371.4808 862.1216,-358.6117 835,-330 824.91,-319.3556 826.6459,-309.0549 835,-297 843.8628,-284.211 878.0169,-271.9468 908.241,-263.2276"/>
<polygon fill="#191970" stroke="#191970" points="909.1952,-266.5951 917.8788,-260.5251 907.3052,-259.8551 909.1952,-266.5951"/>
</g>
<!-- Node31 -->
<g id="node31" class="node">
<title>Node31</title>
<polygon fill="none" stroke="#bfbfbf" points="761,-177.5 761,-197.5 815,-197.5 815,-177.5 761,-177.5"/>
<text text-anchor="middle" x="788" y="-184.5" font-family="FreeSans" font-size="10.00" fill="#000000">cstddef</text>
</g>
<!-- Node23&#45;&gt;Node31 -->
<g id="edge95" class="edge">
<title>Node23&#45;&gt;Node31</title>
<path fill="none" stroke="#191970" d="M1628.8416,-375.7455C1404.3337,-373.1267 752.2122,-362.7235 721,-330 674.5016,-281.25 780.8002,-269.5557 786,-261 795.6028,-245.1997 794.9794,-223.7497 792.6276,-208.1012"/>
<polygon fill="#191970" stroke="#191970" points="795.9993,-207.088 790.7311,-197.8958 789.1171,-208.367 795.9993,-207.088"/>
</g>
<!-- Node32 -->
<g id="node32" class="node">
<title>Node32</title>
<g id="a_node32"><a xlink:href="../../d7/d50/BoundaryCheck_8hpp.html" target="_top" xlink:title="Acts/Surfaces/BoundaryCheck.hpp">
<polygon fill="none" stroke="#ff0000" points="1515,-240.5 1515,-260.5 1707,-260.5 1707,-240.5 1515,-240.5"/>
<text text-anchor="middle" x="1611" y="-247.5" font-family="FreeSans" font-size="10.00" fill="#000000">Acts/Surfaces/BoundaryCheck.hpp</text>
</a>
</g>
</g>
<!-- Node23&#45;&gt;Node32 -->
<g id="edge51" class="edge">
<title>Node23&#45;&gt;Node32</title>
<path fill="none" stroke="#191970" d="M1779.2579,-372.4207C1842.8336,-367.2138 1926.832,-355.5831 1948,-330 1957.3499,-318.7 1957.6361,-308.057 1948,-297 1932.8136,-279.5743 1810.1822,-266.0722 1717.1914,-258.2113"/>
<polygon fill="#191970" stroke="#191970" points="1717.4073,-254.7172 1707.1511,-257.3746 1716.8259,-261.6931 1717.4073,-254.7172"/>
</g>
<!-- Node33 -->
<g id="node33" class="node">
<title>Node33</title>
<g id="a_node33"><a xlink:href="../../da/ddb/SurfaceBounds_8hpp.html" target="_top" xlink:title="Acts/Surfaces/SurfaceBounds.hpp">
<polygon fill="none" stroke="#000000" points="1751,-303.5 1751,-323.5 1939,-323.5 1939,-303.5 1751,-303.5"/>
<text text-anchor="middle" x="1845" y="-310.5" font-family="FreeSans" font-size="10.00" fill="#000000">Acts/Surfaces/SurfaceBounds.hpp</text>
</a>
</g>
</g>
<!-- Node23&#45;&gt;Node33 -->
<g id="edge55" class="edge">
<title>Node23&#45;&gt;Node33</title>
<path fill="none" stroke="#191970" d="M1726.6541,-366.378C1750.0883,-355.9073 1786.8768,-339.4699 1813.2154,-327.7016"/>
<polygon fill="#191970" stroke="#191970" points="1814.6998,-330.8719 1822.4021,-323.5969 1811.8442,-324.4808 1814.6998,-330.8719"/>
</g>
<!-- Node34 -->
<g id="node34" class="node">
<title>Node34</title>
<g id="a_node34"><a xlink:href="../../d7/d3a/SurfaceError_8hpp.html" target="_top" xlink:title="Acts/Surfaces/SurfaceError.hpp">
<polygon fill="none" stroke="#ff0000" points="1483,-303.5 1483,-323.5 1657,-323.5 1657,-303.5 1483,-303.5"/>
<text text-anchor="middle" x="1570" y="-310.5" font-family="FreeSans" font-size="10.00" fill="#000000">Acts/Surfaces/SurfaceError.hpp</text>
</a>
</g>
</g>
<!-- Node23&#45;&gt;Node34 -->
<g id="edge59" class="edge">
<title>Node23&#45;&gt;Node34</title>
<path fill="none" stroke="#191970" d="M1682.4706,-366.378C1660.2974,-355.9533 1625.5441,-339.614 1600.5366,-327.8568"/>
<polygon fill="#191970" stroke="#191970" points="1602.0149,-324.6843 1591.476,-323.5969 1599.0365,-331.0191 1602.0149,-324.6843"/>
</g>
<!-- Node35 -->
<g id="node35" class="node">
<title>Node35</title>
<g id="a_node35"><a xlink:href="../../d9/da9/AlignmentHelper_8hpp.html" target="_top" xlink:title="Acts/Surfaces/detail\l/AlignmentHelper.hpp">
<polygon fill="none" stroke="#000000" points="1959,-171.5 1959,-203.5 2087,-203.5 2087,-171.5 1959,-171.5"/>
<text text-anchor="start" x="1967" y="-190.5" font-family="FreeSans" font-size="10.00" fill="#000000">Acts/Surfaces/detail</text>
<text text-anchor="middle" x="2023" y="-178.5" font-family="FreeSans" font-size="10.00" fill="#000000">/AlignmentHelper.hpp</text>
</a>
</g>
</g>
<!-- Node23&#45;&gt;Node35 -->
<g id="edge60" class="edge">
<title>Node23&#45;&gt;Node35</title>
<path fill="none" stroke="#191970" d="M1779.2802,-372.8455C1886.9893,-366.8346 2074.4308,-353.1604 2095,-330 2121.5617,-300.0922 2113.129,-275.6558 2095,-240 2088.5681,-227.3498 2077.5005,-217.0244 2065.9455,-208.982"/>
<polygon fill="#191970" stroke="#191970" points="2067.8037,-206.0156 2057.5048,-203.5288 2064.005,-211.8953 2067.8037,-206.0156"/>
</g>
<!-- Node36 -->
<g id="node36" class="node">
<title>Node36</title>
<g id="a_node36"><a xlink:href="../../d5/d50/BinnedArray_8hpp.html" target="_top" xlink:title="Acts/Utilities/BinnedArray.hpp">
<polygon fill="none" stroke="#ff0000" points="1064.5,-177.5 1064.5,-197.5 1231.5,-197.5 1231.5,-177.5 1064.5,-177.5"/>
<text text-anchor="middle" x="1148" y="-184.5" font-family="FreeSans" font-size="10.00" fill="#000000">Acts/Utilities/BinnedArray.hpp</text>
</a>
</g>
</g>
<!-- Node23&#45;&gt;Node36 -->
<g id="edge65" class="edge">
<title>Node23&#45;&gt;Node36</title>
<path fill="none" stroke="#191970" d="M1702.4419,-366.3912C1699.1634,-348.935 1689.7872,-313.4352 1666,-297 1587.8379,-242.9958 1328.2554,-296.1677 1240,-261 1209.2029,-248.7281 1180.5066,-222.5107 1163.6074,-204.9397"/>
<polygon fill="#191970" stroke="#191970" points="1166.0927,-202.473 1156.7078,-197.5561 1160.9781,-207.2523 1166.0927,-202.473"/>
</g>
<!-- Node37 -->
<g id="node37" class="node">
<title>Node37</title>
<g id="a_node37"><a xlink:href="../../db/d8d/Intersection_8hpp.html" target="_top" xlink:title="Acts/Utilities/Intersection.hpp">
<polygon fill="none" stroke="#ff0000" points="611,-240.5 611,-260.5 777,-260.5 777,-240.5 611,-240.5"/>
<text text-anchor="middle" x="694" y="-247.5" font-family="FreeSans" font-size="10.00" fill="#000000">Acts/Utilities/Intersection.hpp</text>
</a>
</g>
</g>
<!-- Node23&#45;&gt;Node37 -->
<g id="edge70" class="edge">
<title>Node23&#45;&gt;Node37</title>
<path fill="none" stroke="#191970" d="M1628.8065,-375.8842C1398.3675,-373.6321 715.58,-364.0976 683,-330 667.8123,-314.1049 675.5245,-287.6037 683.678,-269.6083"/>
<polygon fill="#191970" stroke="#191970" points="686.8325,-271.1248 688.1104,-260.6073 680.5526,-268.0323 686.8325,-271.1248"/>
</g>
<!-- Node23&#45;&gt;Node45 -->
<g id="edge96" class="edge">
<title>Node23&#45;&gt;Node45</title>
<path fill="none" stroke="#191970" d="M1779.1121,-375.0807C1940.1346,-371.4939 2313.913,-360.1079 2437,-330 2510.6416,-311.9868 2528.5783,-300.9675 2593,-261 2623.4532,-242.1067 2701.5582,-173.7968 2737.8867,-141.5627"/>
<polygon fill="#191970" stroke="#191970" points="2740.6258,-143.8107 2745.7724,-134.5498 2735.974,-138.5799 2740.6258,-143.8107"/>
</g>
<!-- Node50 -->
<g id="node50" class="node">
<title>Node50</title>
<g id="a_node50"><a xlink:href="../../d3/db2/Result_8hpp.html" target="_top" xlink:title="Acts/Utilities/Result.hpp">
<polygon fill="none" stroke="#ff0000" points="2105.5,-177.5 2105.5,-197.5 2242.5,-197.5 2242.5,-177.5 2105.5,-177.5"/>
<text text-anchor="middle" x="2174" y="-184.5" font-family="FreeSans" font-size="10.00" fill="#000000">Acts/Utilities/Result.hpp</text>
</a>
</g>
</g>
<!-- Node23&#45;&gt;Node50 -->
<g id="edge90" class="edge">
<title>Node23&#45;&gt;Node50</title>
<path fill="none" stroke="#191970" d="M1779.1908,-372.1942C1890.9827,-365.1731 2090.7448,-350.0092 2117,-330 2155.8816,-300.3681 2168.3088,-240.0178 2172.2295,-208.199"/>
<polygon fill="#191970" stroke="#191970" points="2175.7499,-208.1898 2173.3223,-197.8769 2168.7888,-207.4528 2175.7499,-208.1898"/>
</g>
<!-- Node24&#45;&gt;Node7 -->
<g id="edge32" class="edge">
<title>Node24&#45;&gt;Node7</title>
<path fill="none" stroke="#191970" d="M1883.9622,-240.462C1844.8219,-233.5997 1798.1142,-222.3078 1759,-204 1737.1814,-193.7876 1738.3927,-179.8832 1716,-171 1699.1442,-164.3133 1476.8213,-143.8921 1347.5431,-132.4616"/>
<polygon fill="#191970" stroke="#191970" points="1347.5197,-128.946 1337.2507,-131.5531 1346.9042,-135.9189 1347.5197,-128.946"/>
</g>
<!-- Node24&#45;&gt;Node25 -->
<g id="edge33" class="edge">
<title>Node24&#45;&gt;Node25</title>
<path fill="none" stroke="#191970" d="M1906.325,-240.4478C1839.6898,-229.2231 1731.977,-211.079 1661.5703,-199.2191"/>
<polygon fill="#191970" stroke="#191970" points="1661.9049,-195.7262 1651.4624,-197.5164 1660.7421,-202.6289 1661.9049,-195.7262"/>
</g>
<!-- Node25&#45;&gt;Node7 -->
<g id="edge34" class="edge">
<title>Node25&#45;&gt;Node7</title>
<path fill="none" stroke="#191970" d="M1538.3883,-177.4478C1478.7688,-166.2692 1382.5473,-148.2276 1319.281,-136.3652"/>
<polygon fill="#191970" stroke="#191970" points="1319.8945,-132.9193 1309.4208,-134.5164 1318.6045,-139.7994 1319.8945,-132.9193"/>
</g>
<!-- Node27&#45;&gt;Node7 -->
<g id="edge37" class="edge">
<title>Node27&#45;&gt;Node7</title>
<path fill="none" stroke="#191970" d="M1333.8281,-240.4336C1331.5893,-224.5427 1325.5616,-193.174 1311,-171 1303.1471,-159.0417 1291.3275,-148.4843 1280.6555,-140.4641"/>
<polygon fill="#191970" stroke="#191970" points="1282.6126,-137.5609 1272.4405,-134.5978 1278.5446,-143.2575 1282.6126,-137.5609"/>
</g>
<!-- Node29&#45;&gt;Node3 -->
<g id="edge43" class="edge">
<title>Node29&#45;&gt;Node3</title>
<path fill="none" stroke="#191970" d="M1036.3635,-303.4733C1052.9991,-300.9616 1071.1738,-298.5451 1088,-297 1209.8187,-285.8136 2026.2981,-262.195 2330.8002,-253.6607"/>
<polygon fill="#191970" stroke="#191970" points="2331.0779,-257.1544 2340.976,-253.3758 2330.8819,-250.1571 2331.0779,-257.1544"/>
</g>
<!-- Node29&#45;&gt;Node7 -->
<g id="edge42" class="edge">
<title>Node29&#45;&gt;Node7</title>
<path fill="none" stroke="#191970" d="M1020.0852,-303.4579C1092.0398,-285.3427 1233.7084,-245.2299 1262,-204 1273.9979,-186.5152 1269.4867,-161.4857 1263.9291,-144.2037"/>
<polygon fill="#191970" stroke="#191970" points="1267.147,-142.8087 1260.4718,-134.5812 1260.5593,-145.1757 1267.147,-142.8087"/>
</g>
<!-- Node29&#45;&gt;Node10 -->
<g id="edge49" class="edge">
<title>Node29&#45;&gt;Node10</title>
<path fill="none" stroke="#191970" d="M1021.2043,-303.4649C1060.3589,-292.157 1109.0908,-271.1842 1089,-240 1062.5234,-198.9042 928.0759,-157.4977 853.6868,-137.2563"/>
<polygon fill="#191970" stroke="#191970" points="854.1723,-133.7625 843.6062,-134.5429 852.3528,-140.5219 854.1723,-133.7625"/>
</g>
<!-- Node29&#45;&gt;Node30 -->
<g id="edge44" class="edge">
<title>Node29&#45;&gt;Node30</title>
<path fill="none" stroke="#191970" d="M974.9473,-303.378C972.2763,-294.5215 968.3179,-281.396 965.0131,-270.4381"/>
<polygon fill="#191970" stroke="#191970" points="968.3466,-269.3697 962.1082,-260.8062 961.6448,-271.3909 968.3466,-269.3697"/>
</g>
<!-- Node30&#45;&gt;Node6 -->
<g id="edge46" class="edge">
<title>Node30&#45;&gt;Node6</title>
<path fill="none" stroke="#191970" d="M880.1333,-240.4827C789.6759,-228.9931 641.8806,-210.2207 548.6629,-198.3806"/>
<polygon fill="#191970" stroke="#191970" points="549.0572,-194.9026 538.6959,-197.1146 548.1752,-201.8468 549.0572,-194.9026"/>
</g>
<!-- Node30&#45;&gt;Node7 -->
<g id="edge45" class="edge">
<title>Node30&#45;&gt;Node7</title>
<path fill="none" stroke="#191970" d="M1046.7101,-246.6646C1118.6658,-241.645 1212.9262,-230.1526 1240,-204 1255.6811,-188.8525 1258.2454,-162.9398 1257.824,-144.8289"/>
<polygon fill="#191970" stroke="#191970" points="1261.3123,-144.5184 1257.2664,-134.7266 1254.323,-144.9043 1261.3123,-144.5184"/>
</g>
<!-- Node30&#45;&gt;Node12 -->
<g id="edge48" class="edge">
<title>Node30&#45;&gt;Node12</title>
<path fill="none" stroke="#191970" d="M970.0821,-240.3751C987.5108,-224.6742 1022.679,-193.8815 1055,-171 1095.1877,-142.5493 1103.7383,-130.8626 1150,-114 1242.1747,-80.4019 1274.36,-99.6984 1374.3369,-77.8392"/>
<polygon fill="#191970" stroke="#191970" points="1375.2519,-81.2206 1384.228,-75.5922 1373.7011,-74.3945 1375.2519,-81.2206"/>
</g>
<!-- Node30&#45;&gt;Node31 -->
<g id="edge47" class="edge">
<title>Node30&#45;&gt;Node31</title>
<path fill="none" stroke="#191970" d="M931.5259,-240.378C902.5215,-229.6921 856.6489,-212.7917 824.594,-200.982"/>
<polygon fill="#191970" stroke="#191970" points="825.7169,-197.6658 815.1235,-197.4929 823.2969,-204.2342 825.7169,-197.6658"/>
</g>
<!-- Node32&#45;&gt;Node7 -->
<g id="edge52" class="edge">
<title>Node32&#45;&gt;Node7</title>
<path fill="none" stroke="#191970" d="M1553.0063,-240.4198C1517.832,-233.0416 1472.6272,-221.2701 1435,-204 1411.4713,-193.2008 1410.0617,-182.7636 1387,-171 1359.8604,-157.1563 1327.631,-145.6583 1301.9316,-137.559"/>
<polygon fill="#191970" stroke="#191970" points="1302.6571,-134.1201 1292.0696,-134.5158 1300.593,-140.8089 1302.6571,-134.1201"/>
</g>
<!-- Node32&#45;&gt;Node12 -->
<g id="edge54" class="edge">
<title>Node32&#45;&gt;Node12</title>
<path fill="none" stroke="#191970" d="M1552.2461,-240.4978C1524.9063,-233.6494 1493.1687,-222.3589 1469,-204 1439.6506,-181.7058 1437.2255,-169.0008 1423,-135 1416.7206,-119.9914 1413.1625,-101.8894 1411.2062,-88.211"/>
<polygon fill="#191970" stroke="#191970" points="1414.6335,-87.4128 1409.915,-77.9267 1407.688,-88.2849 1414.6335,-87.4128"/>
</g>
<!-- Node32&#45;&gt;Node25 -->
<g id="edge53" class="edge">
<title>Node32&#45;&gt;Node25</title>
<path fill="none" stroke="#191970" d="M1607.9473,-240.378C1605.2763,-231.5215 1601.3179,-218.396 1598.0131,-207.4381"/>
<polygon fill="#191970" stroke="#191970" points="1601.3466,-206.3697 1595.1082,-197.8062 1594.6448,-208.3909 1601.3466,-206.3697"/>
</g>
<!-- Node33&#45;&gt;Node7 -->
<g id="edge56" class="edge">
<title>Node33&#45;&gt;Node7</title>
<path fill="none" stroke="#191970" d="M1772.5223,-303.4559C1680.574,-290.5304 1530.8966,-268.81 1506,-261 1485.7066,-254.634 1482.1664,-249.2192 1463,-240 1429.3182,-223.7988 1419.9086,-221.7189 1387,-204 1381.669,-201.1296 1317.6582,-162.1292 1281.1317,-139.8429"/>
<polygon fill="#191970" stroke="#191970" points="1282.8492,-136.7908 1272.4899,-134.5692 1279.2027,-142.7661 1282.8492,-136.7908"/>
</g>
<!-- Node33&#45;&gt;Node22 -->
<g id="edge58" class="edge">
<title>Node33&#45;&gt;Node22</title>
<path fill="none" stroke="#191970" d="M1769.0378,-303.4736C1659.6862,-288.9817 1470.1389,-263.6193 1463,-261 1446.6793,-255.0119 1446.4396,-245.6534 1430,-240 1271.6676,-185.5517 1220.6313,-228.496 1055,-204 903.9072,-181.6541 864.3022,-171.54 711.3363,-134.9649"/>
<polygon fill="#191970" stroke="#191970" points="712.1168,-131.553 701.5771,-132.6324 710.4896,-138.3612 712.1168,-131.553"/>
</g>
<!-- Node33&#45;&gt;Node32 -->
<g id="edge57" class="edge">
<title>Node33&#45;&gt;Node32</title>
<path fill="none" stroke="#191970" d="M1807.6633,-303.4478C1767.0823,-292.5222 1702.1516,-275.0408 1658.0972,-263.18"/>
<polygon fill="#191970" stroke="#191970" points="1658.7698,-259.7365 1648.2037,-260.5164 1656.95,-266.4959 1658.7698,-259.7365"/>
</g>
<!-- Node35&#45;&gt;Node7 -->
<g id="edge61" class="edge">
<title>Node35&#45;&gt;Node7</title>
<path fill="none" stroke="#191970" d="M1958.6149,-172.3771C1955.7103,-171.8749 1952.8287,-171.4119 1950,-171 1920.6986,-166.7333 1528.802,-141.7018 1347.2106,-130.2339"/>
<polygon fill="#191970" stroke="#191970" points="1347.3414,-126.7353 1337.1407,-129.5982 1346.9004,-133.7214 1347.3414,-126.7353"/>
</g>
<!-- Node35&#45;&gt;Node12 -->
<g id="edge64" class="edge">
<title>Node35&#45;&gt;Node12</title>
<path fill="none" stroke="#191970" d="M2071.1808,-171.3994C2104.8329,-157.6966 2140.2371,-136.6735 2119,-114 2095.6728,-89.0951 1583.5245,-72.5366 1443.8909,-68.4737"/>
<polygon fill="#191970" stroke="#191970" points="1443.848,-64.9711 1433.7513,-68.1816 1443.6464,-71.9682 1443.848,-64.9711"/>
</g>
<!-- Node35&#45;&gt;Node14 -->
<g id="edge62" class="edge">
<title>Node35&#45;&gt;Node14</title>
<path fill="none" stroke="#191970" d="M2073.3189,-171.4408C2152.3375,-146.2221 2303.1903,-98.0776 2368.0733,-77.3702"/>
<polygon fill="#191970" stroke="#191970" points="2369.2619,-80.6649 2377.7243,-74.2901 2367.1336,-73.9963 2369.2619,-80.6649"/>
</g>
<!-- Node35&#45;&gt;Node15 -->
<g id="edge63" class="edge">
<title>Node35&#45;&gt;Node15</title>
<path fill="none" stroke="#191970" d="M2087.0752,-172.658C2090.4241,-172.0562 2093.7472,-171.4981 2097,-171 2190.6906,-156.6537 2436.9094,-176.7533 2522,-135 2543.8525,-124.2771 2561.7276,-102.2663 2572.5757,-86.2871"/>
<polygon fill="#191970" stroke="#191970" points="2575.6337,-88.0038 2578.1278,-77.7067 2569.7567,-84.201 2575.6337,-88.0038"/>
</g>
<!-- Node36&#45;&gt;Node7 -->
<g id="edge66" class="edge">
<title>Node36&#45;&gt;Node7</title>
<path fill="none" stroke="#191970" d="M1165.3521,-177.378C1182.8293,-167.1829 1210.0041,-151.3309 1230.0453,-139.6402"/>
<polygon fill="#191970" stroke="#191970" points="1231.8168,-142.6589 1238.691,-134.5969 1228.2896,-136.6124 1231.8168,-142.6589"/>
</g>
<!-- Node36&#45;&gt;Node12 -->
<g id="edge68" class="edge">
<title>Node36&#45;&gt;Node12</title>
<path fill="none" stroke="#191970" d="M1147.2757,-177.2411C1146.7577,-161.2446 1148.3228,-130.4879 1166,-114 1232.6395,-51.8442 1280.0979,-96.7418 1374.3416,-77.7474"/>
<polygon fill="#191970" stroke="#191970" points="1375.2144,-81.1389 1384.2198,-75.5574 1373.6993,-74.3049 1375.2144,-81.1389"/>
</g>
<!-- Node36&#45;&gt;Node19 -->
<g id="edge67" class="edge">
<title>Node36&#45;&gt;Node19</title>
<path fill="none" stroke="#191970" d="M1119.3966,-177.4731C1073.1987,-161.6551 979.0382,-130.968 897,-114 771.0039,-87.9401 618.027,-74.5559 552.8647,-69.6915"/>
<polygon fill="#191970" stroke="#191970" points="553.0466,-66.1956 542.8182,-68.9576 552.5366,-73.177 553.0466,-66.1956"/>
</g>
<!-- Node37&#45;&gt;Node7 -->
<g id="edge71" class="edge">
<title>Node37&#45;&gt;Node7</title>
<path fill="none" stroke="#191970" d="M698.0683,-240.2893C705.6874,-222.6754 723.9179,-186.9393 752,-171 786.9122,-151.1839 1028.7934,-135.9644 1164.3748,-128.8763"/>
<polygon fill="#191970" stroke="#191970" points="1164.9438,-132.3516 1174.7494,-128.339 1164.5817,-125.361 1164.9438,-132.3516"/>
</g>
<!-- Node37&#45;&gt;Node17 -->
<g id="edge87" class="edge">
<title>Node37&#45;&gt;Node17</title>
<path fill="none" stroke="#191970" d="M610.9726,-242.7438C542.9813,-235.4846 444.5618,-222.8953 360,-204 259.1641,-181.4682 225.4557,-190.0188 138,-135 102.524,-112.6819 59.8086,-90.4968 85,-57 99.2463,-38.0568 160.5789,-24.3902 203.2881,-16.9572"/>
<polygon fill="#191970" stroke="#191970" points="203.8888,-20.4054 213.167,-15.2902 202.724,-13.503 203.8888,-20.4054"/>
</g>
<!-- Node37&#45;&gt;Node19 -->
<g id="edge88" class="edge">
<title>Node37&#45;&gt;Node19</title>
<path fill="none" stroke="#191970" d="M610.6674,-243.829C522.2193,-235.8846 393.0866,-221.469 378,-204 321.1332,-138.1528 441.9829,-163.8037 478,-135 493.87,-122.3084 505.6413,-102.0879 512.8174,-87.083"/>
<polygon fill="#191970" stroke="#191970" points="516.1345,-88.2405 517.0452,-77.6849 509.7507,-85.3687 516.1345,-88.2405"/>
</g>
<!-- Node37&#45;&gt;Node31 -->
<g id="edge89" class="edge">
<title>Node37&#45;&gt;Node31</title>
<path fill="none" stroke="#191970" d="M709.1027,-240.378C724.0403,-230.3666 747.117,-214.9003 764.461,-203.2762"/>
<polygon fill="#191970" stroke="#191970" points="766.5765,-206.0718 772.9348,-197.5969 762.6793,-200.2569 766.5765,-206.0718"/>
</g>
<!-- Node37&#45;&gt;Node38 -->
<g id="edge72" class="edge">
<title>Node37&#45;&gt;Node38</title>
<path fill="none" stroke="#191970" d="M777.2962,-244.9588C804.3111,-243.2514 834.4214,-241.443 862,-240 1241.3737,-220.1505 1337.1496,-232.1209 1716,-204 1740.3225,-202.1946 1766.7302,-199.6154 1790.7403,-197.031"/>
<polygon fill="#191970" stroke="#191970" points="1791.3093,-200.4897 1800.8705,-195.9253 1790.5497,-193.5311 1791.3093,-200.4897"/>
</g>
<!-- Node38&#45;&gt;Node11 -->
<g id="edge83" class="edge">
<title>Node38&#45;&gt;Node11</title>
<path fill="none" stroke="#191970" d="M1800.8884,-178.8187C1774.3377,-175.8517 1743.8138,-172.8243 1716,-171 1555.9607,-160.5028 428.0157,-176.1449 273,-135 253.9724,-129.9496 251.8438,-122.316 234,-114 205.9165,-100.9118 173.0616,-88.061 149.3295,-79.1976"/>
<polygon fill="#191970" stroke="#191970" points="150.3508,-75.8436 139.7576,-75.654 147.9205,-82.4082 150.3508,-75.8436"/>
</g>
<!-- Node38&#45;&gt;Node15 -->
<g id="edge86" class="edge">
<title>Node38&#45;&gt;Node15</title>
<path fill="none" stroke="#191970" d="M1913.8619,-177.4152C1925.5278,-174.9809 1938.2009,-172.6182 1950,-171 2068.9314,-154.689 2375.9166,-175.2849 2489,-135 2497.1764,-132.0872 2537.0773,-102.7498 2562.4978,-83.7225"/>
<polygon fill="#191970" stroke="#191970" points="2564.6004,-86.5205 2570.4967,-77.718 2560.398,-80.9223 2564.6004,-86.5205"/>
</g>
<!-- Node38&#45;&gt;Node20 -->
<g id="edge81" class="edge">
<title>Node38&#45;&gt;Node20</title>
<path fill="none" stroke="#191970" d="M1824.0438,-177.4559C1812.008,-175.1074 1799.0567,-172.7762 1787,-171 1626.1689,-147.306 1573.6753,-196.0328 1423,-135 1395.5327,-123.874 1369.7348,-100.9442 1353.921,-84.9119"/>
<polygon fill="#191970" stroke="#191970" points="1356.4396,-82.4815 1346.9964,-77.6776 1351.3828,-87.3218 1356.4396,-82.4815"/>
</g>
<!-- Node39 -->
<g id="node39" class="node">
<title>Node39</title>
<polygon fill="none" stroke="#bfbfbf" points="1750.5,-114.5 1750.5,-134.5 1803.5,-134.5 1803.5,-114.5 1750.5,-114.5"/>
<text text-anchor="middle" x="1777" y="-121.5" font-family="FreeSans" font-size="10.00" fill="#000000">cassert</text>
</g>
<!-- Node38&#45;&gt;Node39 -->
<g id="edge73" class="edge">
<title>Node38&#45;&gt;Node39</title>
<path fill="none" stroke="#191970" d="M1855.8973,-177.378C1840.9597,-167.3666 1817.883,-151.9003 1800.539,-140.2762"/>
<polygon fill="#191970" stroke="#191970" points="1802.3207,-137.2569 1792.0652,-134.5969 1798.4235,-143.0718 1802.3207,-137.2569"/>
</g>
<!-- Node40 -->
<g id="node40" class="node">
<title>Node40</title>
<polygon fill="none" stroke="#bfbfbf" points="1822,-114.5 1822,-134.5 1866,-134.5 1866,-114.5 1822,-114.5"/>
<text text-anchor="middle" x="1844" y="-121.5" font-family="FreeSans" font-size="10.00" fill="#000000">ctime</text>
</g>
<!-- Node38&#45;&gt;Node40 -->
<g id="edge74" class="edge">
<title>Node38&#45;&gt;Node40</title>
<path fill="none" stroke="#191970" d="M1866.662,-177.378C1862.8272,-168.4302 1857.125,-155.125 1852.3999,-144.0999"/>
<polygon fill="#191970" stroke="#191970" points="1855.5732,-142.6189 1848.4169,-134.8062 1849.1392,-145.3764 1855.5732,-142.6189"/>
</g>
<!-- Node41 -->
<g id="node41" class="node">
<title>Node41</title>
<polygon fill="none" stroke="#bfbfbf" points="1884.5,-114.5 1884.5,-134.5 1949.5,-134.5 1949.5,-114.5 1884.5,-114.5"/>
<text text-anchor="middle" x="1917" y="-121.5" font-family="FreeSans" font-size="10.00" fill="#000000">exception</text>
</g>
<!-- Node38&#45;&gt;Node41 -->
<g id="edge75" class="edge">
<title>Node38&#45;&gt;Node41</title>
<path fill="none" stroke="#191970" d="M1878.3907,-177.378C1885.124,-168.1563 1895.2367,-154.3063 1903.4235,-143.094"/>
<polygon fill="#191970" stroke="#191970" points="1906.4045,-144.9464 1909.4748,-134.8062 1900.7511,-140.8185 1906.4045,-144.9464"/>
</g>
<!-- Node42 -->
<g id="node42" class="node">
<title>Node42</title>
<polygon fill="none" stroke="#bfbfbf" points="1968,-114.5 1968,-134.5 2034,-134.5 2034,-114.5 1968,-114.5"/>
<text text-anchor="middle" x="2001" y="-121.5" font-family="FreeSans" font-size="10.00" fill="#000000">functional</text>
</g>
<!-- Node38&#45;&gt;Node42 -->
<g id="edge76" class="edge">
<title>Node38&#45;&gt;Node42</title>
<path fill="none" stroke="#191970" d="M1891.8867,-177.378C1913.3033,-166.9992 1946.8172,-150.7578 1971.0538,-139.0124"/>
<polygon fill="#191970" stroke="#191970" points="1972.6925,-142.1077 1980.1651,-134.5969 1969.6397,-135.8084 1972.6925,-142.1077"/>
</g>
<!-- Node43 -->
<g id="node43" class="node">
<title>Node43</title>
<polygon fill="none" stroke="#bfbfbf" points="1431.5,-114.5 1431.5,-134.5 1488.5,-134.5 1488.5,-114.5 1431.5,-114.5"/>
<text text-anchor="middle" x="1460" y="-121.5" font-family="FreeSans" font-size="10.00" fill="#000000">iomanip</text>
</g>
<!-- Node38&#45;&gt;Node43 -->
<g id="edge77" class="edge">
<title>Node38&#45;&gt;Node43</title>
<path fill="none" stroke="#191970" d="M1823.129,-177.4953C1811.3453,-175.1989 1798.7397,-172.8818 1787,-171 1662.3147,-151.0134 1626.6681,-159.8439 1498.3382,-134.8065"/>
<polygon fill="#191970" stroke="#191970" points="1499.0165,-131.373 1488.5269,-132.8623 1497.6558,-138.2394 1499.0165,-131.373"/>
</g>
<!-- Node38&#45;&gt;Node44 -->
<g id="edge78" class="edge">
<title>Node38&#45;&gt;Node44</title>
<path fill="none" stroke="#191970" d="M1913.4464,-177.4708C1925.2253,-175.0061 1938.059,-172.6143 1950,-171 2202.4289,-136.8736 2267.9921,-154.1032 2522,-135 2548.584,-133.0007 2578.4479,-130.3889 2601.7334,-128.2704"/>
<polygon fill="#191970" stroke="#191970" points="2602.2949,-131.7337 2611.9338,-127.3357 2601.6561,-124.7629 2602.2949,-131.7337"/>
</g>
<!-- Node38&#45;&gt;Node45 -->
<g id="edge79" class="edge">
<title>Node38&#45;&gt;Node45</title>
<path fill="none" stroke="#191970" d="M1913.0218,-177.449C1924.9124,-174.953 1937.9093,-172.5506 1950,-171 2272.64,-129.6212 2357.1306,-165.2881 2681,-135 2693.001,-133.8777 2706.014,-132.2368 2717.8239,-130.5842"/>
<polygon fill="#191970" stroke="#191970" points="2718.4383,-134.0319 2727.8371,-129.1417 2717.4401,-127.1035 2718.4383,-134.0319"/>
</g>
<!-- Node46 -->
<g id="node46" class="node">
<title>Node46</title>
<polygon fill="none" stroke="#bfbfbf" points="2052.5,-114.5 2052.5,-134.5 2109.5,-134.5 2109.5,-114.5 2052.5,-114.5"/>
<text text-anchor="middle" x="2081" y="-121.5" font-family="FreeSans" font-size="10.00" fill="#000000">optional</text>
</g>
<!-- Node38&#45;&gt;Node46 -->
<g id="edge80" class="edge">
<title>Node38&#45;&gt;Node46</title>
<path fill="none" stroke="#191970" d="M1904.7401,-177.378C1942.3902,-166.083 2003.1847,-147.8446 2042.62,-136.014"/>
<polygon fill="#191970" stroke="#191970" points="2043.8309,-139.3049 2052.4035,-133.079 2041.8195,-132.6001 2043.8309,-139.3049"/>
</g>
<!-- Node47 -->
<g id="node47" class="node">
<title>Node47</title>
<polygon fill="none" stroke="#bfbfbf" points="1507,-114.5 1507,-134.5 1573,-134.5 1573,-114.5 1507,-114.5"/>
<text text-anchor="middle" x="1540" y="-121.5" font-family="FreeSans" font-size="10.00" fill="#000000">stdexcept</text>
</g>
<!-- Node38&#45;&gt;Node47 -->
<g id="edge82" class="edge">
<title>Node38&#45;&gt;Node47</title>
<path fill="none" stroke="#191970" d="M1820.8392,-177.4756C1809.7059,-175.2985 1797.9586,-173.0383 1787,-171 1699.163,-154.6623 1674.1744,-154.24 1583.3198,-135.1783"/>
<polygon fill="#191970" stroke="#191970" points="1583.9289,-131.7297 1573.4208,-133.083 1582.4793,-138.578 1583.9289,-131.7297"/>
</g>
<!-- Node48 -->
<g id="node48" class="node">
<title>Node48</title>
<polygon fill="none" stroke="#bfbfbf" points="1591,-114.5 1591,-134.5 1665,-134.5 1665,-114.5 1591,-114.5"/>
<text text-anchor="middle" x="1628" y="-121.5" font-family="FreeSans" font-size="10.00" fill="#000000">string_view</text>
</g>
<!-- Node38&#45;&gt;Node48 -->
<g id="edge84" class="edge">
<title>Node38&#45;&gt;Node48</title>
<path fill="none" stroke="#191970" d="M1832.2272,-177.4478C1789.4087,-166.3467 1720.4851,-148.4776 1674.7215,-136.613"/>
<polygon fill="#191970" stroke="#191970" points="1675.5996,-133.225 1665.0412,-134.1033 1673.8428,-140.001 1675.5996,-133.225"/>
</g>
<!-- Node49 -->
<g id="node49" class="node">
<title>Node49</title>
<polygon fill="none" stroke="#bfbfbf" points="1683.5,-114.5 1683.5,-134.5 1732.5,-134.5 1732.5,-114.5 1683.5,-114.5"/>
<text text-anchor="middle" x="1708" y="-121.5" font-family="FreeSans" font-size="10.00" fill="#000000">thread</text>
</g>
<!-- Node38&#45;&gt;Node49 -->
<g id="edge85" class="edge">
<title>Node38&#45;&gt;Node49</title>
<path fill="none" stroke="#191970" d="M1844.8112,-177.378C1816.8769,-166.5813 1772.5281,-149.4403 1741.9352,-137.6161"/>
<polygon fill="#191970" stroke="#191970" points="1743.1134,-134.3192 1732.524,-133.9786 1740.5898,-140.8484 1743.1134,-134.3192"/>
</g>
<!-- Node50&#45;&gt;Node15 -->
<g id="edge93" class="edge">
<title>Node50&#45;&gt;Node15</title>
<path fill="none" stroke="#191970" d="M2242.6943,-182.0321C2347.0087,-173.1548 2535.8523,-154.6146 2560,-135 2574.1385,-123.5157 2579.9549,-103.08 2582.3438,-87.6934"/>
<polygon fill="#191970" stroke="#191970" points="2585.8408,-87.9258 2583.5476,-77.5821 2578.8899,-87.0982 2585.8408,-87.9258"/>
</g>
<!-- Node50&#45;&gt;Node20 -->
<g id="edge92" class="edge">
<title>Node50&#45;&gt;Node20</title>
<path fill="none" stroke="#191970" d="M2169.903,-177.4074C2162.5346,-160.7567 2145.3187,-127.984 2119,-114 2046.0109,-75.2184 1457.6098,-91.0866 1376,-78 1375.8986,-77.9837 1375.7971,-77.9673 1375.6955,-77.9507"/>
<polygon fill="#191970" stroke="#191970" points="1376.5646,-74.5557 1366.0687,-76.0008 1375.1749,-81.4164 1376.5646,-74.5557"/>
</g>
<!-- Node50&#45;&gt;Node46 -->
<g id="edge91" class="edge">
<title>Node50&#45;&gt;Node46</title>
<path fill="none" stroke="#191970" d="M2159.0579,-177.378C2144.2792,-167.3666 2121.4481,-151.9003 2104.2886,-140.2762"/>
<polygon fill="#191970" stroke="#191970" points="2106.1472,-137.3077 2095.905,-134.5969 2102.2212,-143.1032 2106.1472,-137.3077"/>
</g>
</g>
</svg>
