<?xml version="1.0" encoding="UTF-8" standalone="no"?>
<!DOCTYPE svg PUBLIC "-//W3C//DTD SVG 1.1//EN"
 "http://www.w3.org/Graphics/SVG/1.1/DTD/svg11.dtd">
<!-- Generated by graphviz version 2.40.1 (20161225.0304)
 -->
<!-- Title: Fun4AllHistoManager::Print Pages: 1 -->
<svg width="496pt" height="2186pt"
 viewBox="0.00 0.00 496.00 2186.00" xmlns="http://www.w3.org/2000/svg" xmlns:xlink="http://www.w3.org/1999/xlink">
<g id="graph0" class="graph" transform="scale(1 1) rotate(0) translate(4 2182)">
<title>Fun4AllHistoManager::Print</title>
<!-- Node1 -->
<g id="node1" class="node">
<title>Node1</title>
<polygon fill="#bfbfbf" stroke="#000000" points="0,-1186.5 0,-1218.5 124,-1218.5 124,-1186.5 0,-1186.5"/>
<text text-anchor="start" x="8" y="-1205.5" font-family="FreeSans" font-size="10.00" fill="#000000">Fun4AllHistoManager</text>
<text text-anchor="middle" x="62" y="-1193.5" font-family="FreeSans" font-size="10.00" fill="#000000">::Print</text>
</g>
<!-- Node2 -->
<g id="node2" class="node">
<title>Node2</title>
<g id="a_node2"><a xlink:href="../../d3/d96/classFun4AllHistoManager.html#ae5401f032b650d41224dfa0e2f12d364" target="_top" xlink:title="Fun4AllHistoManager\l::getHisto">
<polygon fill="none" stroke="#ff0000" points="160,-1186.5 160,-1218.5 284,-1218.5 284,-1186.5 160,-1186.5"/>
<text text-anchor="start" x="168" y="-1205.5" font-family="FreeSans" font-size="10.00" fill="#000000">Fun4AllHistoManager</text>
<text text-anchor="middle" x="222" y="-1193.5" font-family="FreeSans" font-size="10.00" fill="#000000">::getHisto</text>
</a>
</g>
</g>
<!-- Node1&#45;&gt;Node2 -->
<g id="edge1" class="edge">
<title>Node1&#45;&gt;Node2</title>
<path fill="none" stroke="#191970" d="M134.5453,-1202.5C142.996,-1202.5 151.5587,-1202.5 159.8518,-1202.5"/>
<polygon fill="#191970" stroke="#191970" points="134.3184,-1199.0001 124.3183,-1202.5 134.3183,-1206.0001 134.3184,-1199.0001"/>
</g>
<!-- Node3 -->
<g id="node3" class="node">
<title>Node3</title>
<g id="a_node3"><a xlink:href="../../dd/d5d/classEMCalLikelihood.html#a6a779ca1c32380a264774f52fc6ff24a" target="_top" xlink:title="EMCalLikelihood::ApplyEMCal\lGanging">
<polygon fill="none" stroke="#ff0000" points="321.5,-2145.5 321.5,-2177.5 486.5,-2177.5 486.5,-2145.5 321.5,-2145.5"/>
<text text-anchor="start" x="329.5" y="-2164.5" font-family="FreeSans" font-size="10.00" fill="#000000">EMCalLikelihood::ApplyEMCal</text>
<text text-anchor="middle" x="404" y="-2152.5" font-family="FreeSans" font-size="10.00" fill="#000000">Ganging</text>
</a>
</g>
</g>
<!-- Node2&#45;&gt;Node3 -->
<g id="edge2" class="edge">
<title>Node2&#45;&gt;Node3</title>
<path fill="none" stroke="#191970" d="M223.0478,-1229.0176C228.9936,-1373.7786 260.3575,-2064.6805 320,-2136.5 322.819,-2139.8946 326.0773,-2142.8409 329.6392,-2145.3969"/>
<polygon fill="#191970" stroke="#191970" points="226.5373,-1228.6861 222.6348,-1218.8363 219.5431,-1228.9699 226.5373,-1228.6861"/>
</g>
<!-- Node4 -->
<g id="node4" class="node">
<title>Node4</title>
<g id="a_node4"><a xlink:href="../../dc/d86/classTPCIntegratedCharge.html#ad54026ec079ca27baf30cb4191a75a78" target="_top" xlink:title="Called at the end of all processing.">
<polygon fill="none" stroke="#000000" points="328.5,-2106.5 328.5,-2126.5 479.5,-2126.5 479.5,-2106.5 328.5,-2106.5"/>
<text text-anchor="middle" x="404" y="-2113.5" font-family="FreeSans" font-size="10.00" fill="#000000">TPCIntegratedCharge::End</text>
</a>
</g>
</g>
<!-- Node2&#45;&gt;Node4 -->
<g id="edge3" class="edge">
<title>Node2&#45;&gt;Node4</title>
<path fill="none" stroke="#191970" d="M223.0864,-1228.8468C229.1326,-1369.7966 260.524,-2030.867 320,-2097.5 323.0865,-2100.9579 326.6572,-2103.857 330.5497,-2106.2818"/>
<polygon fill="#191970" stroke="#191970" points="226.571,-1228.4049 222.6509,-1218.562 219.5772,-1228.7011 226.571,-1228.4049"/>
</g>
<!-- Node5 -->
<g id="node5" class="node">
<title>Node5</title>
<g id="a_node5"><a xlink:href="../../d8/df7/classPHAna.html#aaa72fdcc20fe6696f712b56ae871292e" target="_top" xlink:title="Called at the end of all processing.">
<polygon fill="none" stroke="#000000" points="366.5,-2067.5 366.5,-2087.5 441.5,-2087.5 441.5,-2067.5 366.5,-2067.5"/>
<text text-anchor="middle" x="404" y="-2074.5" font-family="FreeSans" font-size="10.00" fill="#000000">PHAna::End</text>
</a>
</g>
</g>
<!-- Node2&#45;&gt;Node5 -->
<g id="edge4" class="edge">
<title>Node2&#45;&gt;Node5</title>
<path fill="none" stroke="#191970" d="M223.211,-1228.5706C229.7897,-1365.2203 263.049,-1995.0113 320,-2058.5 331.4815,-2071.2995 349.5985,-2076.4336 366.0726,-2078.2063"/>
<polygon fill="#191970" stroke="#191970" points="226.7068,-1228.397 222.7353,-1218.5747 219.7147,-1228.7298 226.7068,-1228.397"/>
</g>
<!-- Node6 -->
<g id="node6" class="node">
<title>Node6</title>
<g id="a_node6"><a xlink:href="../../d4/d6e/classProto4ShowerCalib.html#a2cf473d4b352f3985a055d86755ad6d3" target="_top" xlink:title="Called at the end of all processing.">
<polygon fill="none" stroke="#000000" points="335.5,-2028.5 335.5,-2048.5 472.5,-2048.5 472.5,-2028.5 335.5,-2028.5"/>
<text text-anchor="middle" x="404" y="-2035.5" font-family="FreeSans" font-size="10.00" fill="#000000">Proto4ShowerCalib::End</text>
</a>
</g>
</g>
<!-- Node2&#45;&gt;Node6 -->
<g id="edge5" class="edge">
<title>Node2&#45;&gt;Node6</title>
<path fill="none" stroke="#191970" d="M223.3634,-1228.6275C230.5332,-1361.5948 265.6172,-1959.202 320,-2019.5 324.306,-2024.2743 329.5353,-2027.9808 335.2564,-2030.8435"/>
<polygon fill="#191970" stroke="#191970" points="226.853,-1228.3366 222.8251,-1218.5373 219.8629,-1228.7096 226.853,-1228.3366"/>
</g>
<!-- Node7 -->
<g id="node7" class="node">
<title>Node7</title>
<g id="a_node7"><a xlink:href="../../da/d27/classTPCDataStreamEmulator.html#a0c9af8cff86adab891aa98ad1d98a686" target="_top" xlink:title="Called at the end of all processing.">
<polygon fill="none" stroke="#000000" points="320,-1989.5 320,-2009.5 488,-2009.5 488,-1989.5 320,-1989.5"/>
<text text-anchor="middle" x="404" y="-1996.5" font-family="FreeSans" font-size="10.00" fill="#000000">TPCDataStreamEmulator::End</text>
</a>
</g>
</g>
<!-- Node2&#45;&gt;Node7 -->
<g id="edge6" class="edge">
<title>Node2&#45;&gt;Node7</title>
<path fill="none" stroke="#191970" d="M223.5508,-1229.0072C231.3788,-1358.8079 268.2243,-1923.4335 320,-1980.5 323.2149,-1984.0435 326.9386,-1986.9979 330.9937,-1989.4553"/>
<polygon fill="#191970" stroke="#191970" points="227.0306,-1228.5628 222.9407,-1218.7892 220.0431,-1228.9801 227.0306,-1228.5628"/>
</g>
<!-- Node8 -->
<g id="node8" class="node">
<title>Node8</title>
<g id="a_node8"><a xlink:href="../../d6/da1/classProto2ShowerCalib.html#aa7e70e9213200973ba6e492ec5a10351" target="_top" xlink:title="Called at the end of all processing.">
<polygon fill="none" stroke="#000000" points="335.5,-1950.5 335.5,-1970.5 472.5,-1970.5 472.5,-1950.5 335.5,-1950.5"/>
<text text-anchor="middle" x="404" y="-1957.5" font-family="FreeSans" font-size="10.00" fill="#000000">Proto2ShowerCalib::End</text>
</a>
</g>
</g>
<!-- Node2&#45;&gt;Node8 -->
<g id="edge7" class="edge">
<title>Node2&#45;&gt;Node8</title>
<path fill="none" stroke="#191970" d="M223.7253,-1228.8602C232.1721,-1354.3724 270.7566,-1887.5799 320,-1941.5 324.3356,-1946.2474 329.5847,-1949.936 335.318,-1952.7876"/>
<polygon fill="#191970" stroke="#191970" points="227.2011,-1228.3793 223.0434,-1218.6344 220.2166,-1228.8451 227.2011,-1228.3793"/>
</g>
<!-- Node9 -->
<g id="node9" class="node">
<title>Node9</title>
<g id="a_node9"><a xlink:href="../../d9/d84/classProto3ShowerCalib.html#affc405cc04adb918d44f733c9258fde3" target="_top" xlink:title="Called at the end of all processing.">
<polygon fill="none" stroke="#000000" points="335.5,-1911.5 335.5,-1931.5 472.5,-1931.5 472.5,-1911.5 335.5,-1911.5"/>
<text text-anchor="middle" x="404" y="-1918.5" font-family="FreeSans" font-size="10.00" fill="#000000">Proto3ShowerCalib::End</text>
</a>
</g>
</g>
<!-- Node2&#45;&gt;Node9 -->
<g id="edge8" class="edge">
<title>Node2&#45;&gt;Node9</title>
<path fill="none" stroke="#191970" d="M223.9396,-1229.0032C233.0744,-1350.6498 273.3224,-1851.7601 320,-1902.5 324.3528,-1907.2316 329.6133,-1910.9098 335.3537,-1913.7549"/>
<polygon fill="#191970" stroke="#191970" points="227.4087,-1228.4575 223.1757,-1218.745 220.428,-1228.9774 227.4087,-1228.4575"/>
</g>
<!-- Node10 -->
<g id="node10" class="node">
<title>Node10</title>
<g id="a_node10"><a xlink:href="../../df/d26/classProto4SampleFrac.html#aa63070bee429c4c753c86f9b1a539d9e" target="_top" xlink:title="Standard function called at the end of processing. Save your stuff here.">
<polygon fill="none" stroke="#000000" points="337.5,-1872.5 337.5,-1892.5 470.5,-1892.5 470.5,-1872.5 337.5,-1872.5"/>
<text text-anchor="middle" x="404" y="-1879.5" font-family="FreeSans" font-size="10.00" fill="#000000">Proto4SampleFrac::End</text>
</a>
</g>
</g>
<!-- Node2&#45;&gt;Node10 -->
<g id="edge9" class="edge">
<title>Node2&#45;&gt;Node10</title>
<path fill="none" stroke="#191970" d="M224.1689,-1229.0128C234.0062,-1346.4317 275.8657,-1815.9127 320,-1863.5 324.8803,-1868.7621 330.8836,-1872.7189 337.4172,-1875.6749"/>
<polygon fill="#191970" stroke="#191970" points="227.6343,-1228.4504 223.3178,-1218.7747 220.6583,-1229.0303 227.6343,-1228.4504"/>
</g>
<!-- Node11 -->
<g id="node11" class="node">
<title>Node11</title>
<g id="a_node11"><a xlink:href="../../dd/d7f/classProto4TowerCalib.html#a9a5a379f81ed4f23382debe72a8c282d" target="_top" xlink:title="Standard function called at the end of processing. Save your stuff here.">
<polygon fill="none" stroke="#000000" points="339.5,-1833.5 339.5,-1853.5 468.5,-1853.5 468.5,-1833.5 339.5,-1833.5"/>
<text text-anchor="middle" x="404" y="-1840.5" font-family="FreeSans" font-size="10.00" fill="#000000">Proto4TowerCalib::End</text>
</a>
</g>
</g>
<!-- Node2&#45;&gt;Node11 -->
<g id="edge10" class="edge">
<title>Node2&#45;&gt;Node11</title>
<path fill="none" stroke="#191970" d="M222.3611,-1229.0027C224.3741,-1336.2108 237.3918,-1736.2359 320,-1824.5 325.3128,-1830.1766 331.9331,-1834.3309 339.1105,-1837.3473"/>
<polygon fill="#191970" stroke="#191970" points="225.8563,-1228.6864 222.1861,-1218.7476 218.8573,-1228.8059 225.8563,-1228.6864"/>
</g>
<!-- Node12 -->
<g id="node12" class="node">
<title>Node12</title>
<g id="a_node12"><a xlink:href="../../d8/d7c/classTPCMLDataInterface.html#a06e965f69e774a88ece555040944f543" target="_top" xlink:title="Called at the end of all processing.">
<polygon fill="none" stroke="#000000" points="331.5,-1794.5 331.5,-1814.5 476.5,-1814.5 476.5,-1794.5 331.5,-1794.5"/>
<text text-anchor="middle" x="404" y="-1801.5" font-family="FreeSans" font-size="10.00" fill="#000000">TPCMLDataInterface::End</text>
</a>
</g>
</g>
<!-- Node2&#45;&gt;Node12 -->
<g id="edge11" class="edge">
<title>Node2&#45;&gt;Node12</title>
<path fill="none" stroke="#191970" d="M222.6574,-1228.6623C225.7742,-1331.1059 242.3514,-1703.3842 320,-1785.5 323.2873,-1788.9764 327.0653,-1791.8806 331.1599,-1794.3013"/>
<polygon fill="#191970" stroke="#191970" points="226.1532,-1228.4615 222.368,-1218.5659 219.1561,-1228.6621 226.1532,-1228.4615"/>
</g>
<!-- Node13 -->
<g id="node13" class="node">
<title>Node13</title>
<g id="a_node13"><a xlink:href="../../dd/d5d/classEMCalLikelihood.html#add2c2efcb48129fe34a89154021cdb67" target="_top" xlink:title="Called at the end of all processing.">
<polygon fill="none" stroke="#000000" points="342,-1755.5 342,-1775.5 466,-1775.5 466,-1755.5 342,-1755.5"/>
<text text-anchor="middle" x="404" y="-1762.5" font-family="FreeSans" font-size="10.00" fill="#000000">EMCalLikelihood::End</text>
</a>
</g>
</g>
<!-- Node2&#45;&gt;Node13 -->
<g id="edge12" class="edge">
<title>Node2&#45;&gt;Node13</title>
<path fill="none" stroke="#191970" d="M223.0081,-1228.7943C227.3162,-1327.0136 247.4176,-1670.6355 320,-1746.5 325.995,-1752.7661 333.5853,-1757.1681 341.7402,-1760.2291"/>
<polygon fill="#191970" stroke="#191970" points="226.4949,-1228.4054 222.5783,-1218.5612 219.5011,-1228.6993 226.4949,-1228.4054"/>
</g>
<!-- Node14 -->
<g id="node14" class="node">
<title>Node14</title>
<g id="a_node14"><a xlink:href="../../dc/dd7/classPHG4ScoringManager.html#a9f1122e27b63ccb02a176f608c702695" target="_top" xlink:title="end of run method">
<polygon fill="none" stroke="#000000" points="328,-1716.5 328,-1736.5 480,-1736.5 480,-1716.5 328,-1716.5"/>
<text text-anchor="middle" x="404" y="-1723.5" font-family="FreeSans" font-size="10.00" fill="#000000">PHG4ScoringManager::End</text>
</a>
</g>
</g>
<!-- Node2&#45;&gt;Node14 -->
<g id="edge13" class="edge">
<title>Node2&#45;&gt;Node14</title>
<path fill="none" stroke="#191970" d="M223.4034,-1228.7374C228.9468,-1322.3126 252.4212,-1637.8091 320,-1707.5 323.4348,-1711.0422 327.3799,-1713.9869 331.6467,-1716.4292"/>
<polygon fill="#191970" stroke="#191970" points="226.8944,-1228.4783 222.8277,-1218.6951 219.9059,-1228.8791 226.8944,-1228.4783"/>
</g>
<!-- Node15 -->
<g id="node15" class="node">
<title>Node15</title>
<g id="a_node15"><a xlink:href="../../d5/dee/classTPCFEETestRecov1.html#afb2c97a18a7b138e58b51bd13fd24d64" target="_top" xlink:title="Called at the end of all processing.">
<polygon fill="none" stroke="#000000" points="335,-1677.5 335,-1697.5 473,-1697.5 473,-1677.5 335,-1677.5"/>
<text text-anchor="middle" x="404" y="-1684.5" font-family="FreeSans" font-size="10.00" fill="#000000">TPCFEETestRecov1::End</text>
</a>
</g>
</g>
<!-- Node2&#45;&gt;Node15 -->
<g id="edge14" class="edge">
<title>Node2&#45;&gt;Node15</title>
<path fill="none" stroke="#191970" d="M223.8877,-1229.02C230.7739,-1318.1717 257.4875,-1605.0321 320,-1668.5 324.3017,-1672.8675 329.3801,-1676.3233 334.8761,-1679.0476"/>
<polygon fill="#191970" stroke="#191970" points="227.3688,-1228.6363 223.1283,-1218.9271 220.3885,-1229.1615 227.3688,-1228.6363"/>
</g>
<!-- Node16 -->
<g id="node16" class="node">
<title>Node16</title>
<g id="a_node16"><a xlink:href="../../d2/d90/classExampleAnalysisModule.html#addbbbdacc898dd5a98a90f3fe497ccb6" target="_top" xlink:title="Standard function called at the end of processing. Save your stuff here.">
<polygon fill="none" stroke="#000000" points="321.5,-1638.5 321.5,-1658.5 486.5,-1658.5 486.5,-1638.5 321.5,-1638.5"/>
<text text-anchor="middle" x="404" y="-1645.5" font-family="FreeSans" font-size="10.00" fill="#000000">ExampleAnalysisModule::End</text>
</a>
</g>
</g>
<!-- Node2&#45;&gt;Node16 -->
<g id="edge15" class="edge">
<title>Node2&#45;&gt;Node16</title>
<path fill="none" stroke="#191970" d="M224.4358,-1228.9982C232.7075,-1313.1471 262.4606,-1572.1418 320,-1629.5 323.4944,-1632.9834 327.4837,-1635.8845 331.7823,-1638.2954"/>
<polygon fill="#191970" stroke="#191970" points="227.9129,-1228.5911 223.4714,-1218.9722 220.9451,-1229.2614 227.9129,-1228.5911"/>
</g>
<!-- Node17 -->
<g id="node17" class="node">
<title>Node17</title>
<g id="a_node17"><a xlink:href="../../dd/d60/classTpcPrototypeUnpacker.html#aff86a5a434728f8bddfa35bb2368bdff" target="_top" xlink:title="Called at the end of all processing.">
<polygon fill="none" stroke="#000000" points="325.5,-1599.5 325.5,-1619.5 482.5,-1619.5 482.5,-1599.5 325.5,-1599.5"/>
<text text-anchor="middle" x="404" y="-1606.5" font-family="FreeSans" font-size="10.00" fill="#000000">TpcPrototypeUnpacker::End</text>
</a>
</g>
</g>
<!-- Node2&#45;&gt;Node17 -->
<g id="edge16" class="edge">
<title>Node2&#45;&gt;Node17</title>
<path fill="none" stroke="#191970" d="M225.0794,-1228.8898C234.8083,-1307.723 267.3913,-1539.188 320,-1590.5 323.6392,-1594.0495 327.7935,-1596.9913 332.2617,-1599.4243"/>
<polygon fill="#191970" stroke="#191970" points="228.5361,-1228.3201 223.8586,-1218.8137 221.5869,-1229.1621 228.5361,-1228.3201"/>
</g>
<!-- Node18 -->
<g id="node18" class="node">
<title>Node18</title>
<g id="a_node18"><a xlink:href="../../db/d4b/classEMCalAna.html#a9082f1891dc4967016d84bea32c49542" target="_top" xlink:title="Called at the end of all processing.">
<polygon fill="none" stroke="#000000" points="357.5,-1560.5 357.5,-1580.5 450.5,-1580.5 450.5,-1560.5 357.5,-1560.5"/>
<text text-anchor="middle" x="404" y="-1567.5" font-family="FreeSans" font-size="10.00" fill="#000000">EMCalAna::End</text>
</a>
</g>
</g>
<!-- Node2&#45;&gt;Node18 -->
<g id="edge17" class="edge">
<title>Node2&#45;&gt;Node18</title>
<path fill="none" stroke="#191970" d="M225.9107,-1229.1209C237.2465,-1302.6778 272.3688,-1506.2519 320,-1551.5 330.0814,-1561.077 343.9237,-1566.2032 357.4641,-1568.8484"/>
<polygon fill="#191970" stroke="#191970" points="229.3145,-1228.2219 224.3546,-1218.8597 222.3936,-1229.2715 229.3145,-1228.2219"/>
</g>
<!-- Node19 -->
<g id="node19" class="node">
<title>Node19</title>
<g id="a_node19"><a xlink:href="../../de/da4/classEMCalCalib.html#a9a51df14ce2f12864d6b65afe4e2ac20" target="_top" xlink:title="Called at the end of all processing.">
<polygon fill="none" stroke="#000000" points="355,-1521.5 355,-1541.5 453,-1541.5 453,-1521.5 355,-1521.5"/>
<text text-anchor="middle" x="404" y="-1528.5" font-family="FreeSans" font-size="10.00" fill="#000000">EMCalCalib::End</text>
</a>
</g>
</g>
<!-- Node2&#45;&gt;Node19 -->
<g id="edge18" class="edge">
<title>Node2&#45;&gt;Node19</title>
<path fill="none" stroke="#191970" d="M226.8517,-1228.824C239.8152,-1296.344 277.1992,-1473.1412 320,-1512.5 329.4649,-1521.2038 342.0504,-1526.2039 354.5915,-1529.0066"/>
<polygon fill="#191970" stroke="#191970" points="230.2164,-1227.7803 224.917,-1218.606 223.3386,-1229.0826 230.2164,-1227.7803"/>
</g>
<!-- Node20 -->
<g id="node20" class="node">
<title>Node20</title>
<g id="a_node20"><a xlink:href="../../df/d19/classjetrtrack.html#ad6600ee41bb574359dc6341d16366b51" target="_top" xlink:title="Called at the end of all processing.">
<polygon fill="none" stroke="#000000" points="361.5,-1482.5 361.5,-1502.5 446.5,-1502.5 446.5,-1482.5 361.5,-1482.5"/>
<text text-anchor="middle" x="404" y="-1489.5" font-family="FreeSans" font-size="10.00" fill="#000000">jetrtrack::End</text>
</a>
</g>
</g>
<!-- Node2&#45;&gt;Node20 -->
<g id="edge19" class="edge">
<title>Node2&#45;&gt;Node20</title>
<path fill="none" stroke="#191970" d="M223.4464,-1228.7113C227.9183,-1283.043 246.1308,-1408.3021 320,-1473.5 331.322,-1483.493 346.7853,-1488.5583 361.3597,-1491.0288"/>
<polygon fill="#191970" stroke="#191970" points="226.9224,-1228.2537 222.7041,-1218.5348 219.941,-1228.763 226.9224,-1228.2537"/>
</g>
<!-- Node21 -->
<g id="node21" class="node">
<title>Node21</title>
<g id="a_node21"><a xlink:href="../../d4/db0/classanalysis.html#af046662c23266076400e9d203f0bef53" target="_top" xlink:title="Called at the end of all processing.">
<polygon fill="none" stroke="#000000" points="362.5,-1443.5 362.5,-1463.5 445.5,-1463.5 445.5,-1443.5 362.5,-1443.5"/>
<text text-anchor="middle" x="404" y="-1450.5" font-family="FreeSans" font-size="10.00" fill="#000000">analysis::End</text>
</a>
</g>
</g>
<!-- Node2&#45;&gt;Node21 -->
<g id="edge20" class="edge">
<title>Node2&#45;&gt;Node21</title>
<path fill="none" stroke="#191970" d="M225.2432,-1228.6632C232.6887,-1277.0835 255.6246,-1380.6304 320,-1434.5 331.696,-1444.2872 347.4069,-1449.2916 362.0767,-1451.7706"/>
<polygon fill="#191970" stroke="#191970" points="228.6939,-1228.0696 223.8084,-1218.6684 221.7649,-1229.0643 228.6939,-1228.0696"/>
</g>
<!-- Node22 -->
<g id="node22" class="node">
<title>Node22</title>
<g id="a_node22"><a xlink:href="../../d4/d90/classQAG4SimulationCalorimeterSum.html#a2d446f5f510ab16326c0b748163849e1" target="_top" xlink:title="fetch tower around track and histogram energy distributions">
<polygon fill="none" stroke="#ff0000" points="324.5,-1392.5 324.5,-1424.5 483.5,-1424.5 483.5,-1392.5 324.5,-1392.5"/>
<text text-anchor="start" x="332.5" y="-1411.5" font-family="FreeSans" font-size="10.00" fill="#000000">QAG4SimulationCalorimeter</text>
<text text-anchor="middle" x="404" y="-1399.5" font-family="FreeSans" font-size="10.00" fill="#000000">Sum::eval_trk_proj</text>
</a>
</g>
</g>
<!-- Node2&#45;&gt;Node22 -->
<g id="edge21" class="edge">
<title>Node2&#45;&gt;Node22</title>
<path fill="none" stroke="#191970" d="M229.0408,-1228.4147C241.0677,-1267.7677 269.3207,-1342.3572 320,-1383.5 324.2526,-1386.9524 328.9703,-1389.9282 333.9382,-1392.4932"/>
<polygon fill="#191970" stroke="#191970" points="232.3801,-1227.3641 226.2008,-1218.7579 225.6645,-1229.3391 232.3801,-1227.3641"/>
</g>
<!-- Node23 -->
<g id="node23" class="node">
<title>Node23</title>
<g id="a_node23"><a xlink:href="../../d8/df7/classPHAna.html#a17bf79453780887bdf03b5c90610fd6e" target="_top" xlink:title="PHAna::fill_histos">
<polygon fill="none" stroke="#ff0000" points="352,-1353.5 352,-1373.5 456,-1373.5 456,-1353.5 352,-1353.5"/>
<text text-anchor="middle" x="404" y="-1360.5" font-family="FreeSans" font-size="10.00" fill="#000000">PHAna::fill_histos</text>
</a>
</g>
</g>
<!-- Node2&#45;&gt;Node23 -->
<g id="edge22" class="edge">
<title>Node2&#45;&gt;Node23</title>
<path fill="none" stroke="#191970" d="M232.4338,-1227.8879C247.0674,-1260.1962 276.825,-1315.3045 320,-1344.5 329.4132,-1350.8653 340.6406,-1355.1258 351.7754,-1357.9702"/>
<polygon fill="#191970" stroke="#191970" points="235.6024,-1226.3984 228.3797,-1218.647 229.1922,-1229.2107 235.6024,-1226.3984"/>
</g>
<!-- Node24 -->
<g id="node24" class="node">
<title>Node24</title>
<g id="a_node24"><a xlink:href="../../da/d29/classFun4AllServer.html#a186f6b632bfe6120864a29651f3fff10" target="_top" xlink:title="Fun4AllServer::getHisto">
<polygon fill="none" stroke="#000000" points="336.5,-1314.5 336.5,-1334.5 471.5,-1334.5 471.5,-1314.5 336.5,-1314.5"/>
<text text-anchor="middle" x="404" y="-1321.5" font-family="FreeSans" font-size="10.00" fill="#000000">Fun4AllServer::getHisto</text>
</a>
</g>
</g>
<!-- Node2&#45;&gt;Node24 -->
<g id="edge23" class="edge">
<title>Node2&#45;&gt;Node24</title>
<path fill="none" stroke="#191970" d="M238.4171,-1226.7249C255.8452,-1250.5039 285.5895,-1285.9639 320,-1305.5 326.3712,-1309.1171 333.3808,-1312.0457 340.5511,-1314.4167"/>
<polygon fill="#191970" stroke="#191970" points="241.231,-1224.6428 232.5677,-1218.5439 235.5368,-1228.7142 241.231,-1224.6428"/>
</g>
<!-- Node25 -->
<g id="node25" class="node">
<title>Node25</title>
<g id="a_node25"><a xlink:href="../../dc/d86/classTPCIntegratedCharge.html#a81020cfbf5f20cf2696026c8ecf2953d" target="_top" xlink:title="TPCIntegratedCharge\l::process_event">
<polygon fill="none" stroke="#000000" points="341.5,-1263.5 341.5,-1295.5 466.5,-1295.5 466.5,-1263.5 341.5,-1263.5"/>
<text text-anchor="start" x="349.5" y="-1282.5" font-family="FreeSans" font-size="10.00" fill="#000000">TPCIntegratedCharge</text>
<text text-anchor="middle" x="404" y="-1270.5" font-family="FreeSans" font-size="10.00" fill="#000000">::process_event</text>
</a>
</g>
</g>
<!-- Node2&#45;&gt;Node25 -->
<g id="edge24" class="edge">
<title>Node2&#45;&gt;Node25</title>
<path fill="none" stroke="#191970" d="M257.8346,-1223.721C276.0377,-1233.9264 298.7493,-1245.8007 320,-1254.5 327.8855,-1257.7281 336.3407,-1260.7401 344.7389,-1263.4763"/>
<polygon fill="#191970" stroke="#191970" points="259.1815,-1220.4607 248.7582,-1218.5619 255.7224,-1226.5463 259.1815,-1220.4607"/>
</g>
<!-- Node26 -->
<g id="node26" class="node">
<title>Node26</title>
<g id="a_node26"><a xlink:href="../../da/d7d/classQAG4SimulationUpsilon.html#ab79aed70b129c1906b4d1986fe2a52d9" target="_top" xlink:title="QAG4SimulationUpsilon\l::process_event">
<polygon fill="none" stroke="#000000" points="335.5,-1212.5 335.5,-1244.5 472.5,-1244.5 472.5,-1212.5 335.5,-1212.5"/>
<text text-anchor="start" x="343.5" y="-1231.5" font-family="FreeSans" font-size="10.00" fill="#000000">QAG4SimulationUpsilon</text>
<text text-anchor="middle" x="404" y="-1219.5" font-family="FreeSans" font-size="10.00" fill="#000000">::process_event</text>
</a>
</g>
</g>
<!-- Node2&#45;&gt;Node26 -->
<g id="edge25" class="edge">
<title>Node2&#45;&gt;Node26</title>
<path fill="none" stroke="#191970" d="M294.3188,-1212.8313C307.8225,-1214.7604 321.8998,-1216.7714 335.2909,-1218.6844"/>
<polygon fill="#191970" stroke="#191970" points="294.5195,-1209.3245 284.125,-1211.375 293.5295,-1216.2541 294.5195,-1209.3245"/>
</g>
<!-- Node27 -->
<g id="node27" class="node">
<title>Node27</title>
<g id="a_node27"><a xlink:href="../../d0/d15/classQAG4SimulationDistortions.html#a6ca085c14fc2c1f87ccdade934154401" target="_top" xlink:title="QAG4SimulationDistortions\l::process_event">
<polygon fill="none" stroke="#000000" points="327,-1161.5 327,-1193.5 481,-1193.5 481,-1161.5 327,-1161.5"/>
<text text-anchor="start" x="335" y="-1180.5" font-family="FreeSans" font-size="10.00" fill="#000000">QAG4SimulationDistortions</text>
<text text-anchor="middle" x="404" y="-1168.5" font-family="FreeSans" font-size="10.00" fill="#000000">::process_event</text>
</a>
</g>
</g>
<!-- Node2&#45;&gt;Node27 -->
<g id="edge26" class="edge">
<title>Node2&#45;&gt;Node27</title>
<path fill="none" stroke="#191970" d="M294.2269,-1192.5787C304.8996,-1191.1127 315.9325,-1189.5972 326.7033,-1188.1177"/>
<polygon fill="#191970" stroke="#191970" points="293.5557,-1189.138 284.125,-1193.9663 294.5083,-1196.0728 293.5557,-1189.138"/>
</g>
<!-- Node28 -->
<g id="node28" class="node">
<title>Node28</title>
<g id="a_node28"><a xlink:href="../../d1/d05/classQAG4SimulationVertex.html#a5d6b9df173a4094d3744572a9e2410d0" target="_top" xlink:title="QAG4SimulationVertex\l::process_event">
<polygon fill="none" stroke="#000000" points="338,-1110.5 338,-1142.5 470,-1142.5 470,-1110.5 338,-1110.5"/>
<text text-anchor="start" x="346" y="-1129.5" font-family="FreeSans" font-size="10.00" fill="#000000">QAG4SimulationVertex</text>
<text text-anchor="middle" x="404" y="-1117.5" font-family="FreeSans" font-size="10.00" fill="#000000">::process_event</text>
</a>
</g>
</g>
<!-- Node2&#45;&gt;Node28 -->
<g id="edge27" class="edge">
<title>Node2&#45;&gt;Node28</title>
<path fill="none" stroke="#191970" d="M259.541,-1181.4319C277.4989,-1171.8534 299.5067,-1160.8276 320,-1152.5 328.7686,-1148.9368 338.2169,-1145.5745 347.5013,-1142.5248"/>
<polygon fill="#191970" stroke="#191970" points="257.6853,-1178.4562 250.5488,-1186.2869 261.011,-1184.6157 257.6853,-1178.4562"/>
</g>
<!-- Node29 -->
<g id="node29" class="node">
<title>Node29</title>
<g id="a_node29"><a xlink:href="../../d4/d6e/classProto4ShowerCalib.html#a6779c358aea1a7a5be8e763e75a494fc" target="_top" xlink:title="Proto4ShowerCalib::\lprocess_event">
<polygon fill="none" stroke="#000000" points="345,-1059.5 345,-1091.5 463,-1091.5 463,-1059.5 345,-1059.5"/>
<text text-anchor="start" x="353" y="-1078.5" font-family="FreeSans" font-size="10.00" fill="#000000">Proto4ShowerCalib::</text>
<text text-anchor="middle" x="404" y="-1066.5" font-family="FreeSans" font-size="10.00" fill="#000000">process_event</text>
</a>
</g>
</g>
<!-- Node2&#45;&gt;Node29 -->
<g id="edge28" class="edge">
<title>Node2&#45;&gt;Node29</title>
<path fill="none" stroke="#191970" d="M239.6789,-1178.2329C257.5395,-1155.3593 287.1306,-1121.667 320,-1101.5 327.6771,-1096.7897 336.2773,-1092.8696 344.9672,-1089.6256"/>
<polygon fill="#191970" stroke="#191970" points="236.7148,-1176.3476 233.4256,-1186.4189 242.2775,-1180.5969 236.7148,-1176.3476"/>
</g>
<!-- Node30 -->
<g id="node30" class="node">
<title>Node30</title>
<g id="a_node30"><a xlink:href="../../d9/d7b/classQAG4SimulationCalorimeter.html#aa3467829c4182ba4e09f74fd8198cb28" target="_top" xlink:title="QAG4SimulationCalorimeter\l::process_event">
<polygon fill="none" stroke="#000000" points="324.5,-1008.5 324.5,-1040.5 483.5,-1040.5 483.5,-1008.5 324.5,-1008.5"/>
<text text-anchor="start" x="332.5" y="-1027.5" font-family="FreeSans" font-size="10.00" fill="#000000">QAG4SimulationCalorimeter</text>
<text text-anchor="middle" x="404" y="-1015.5" font-family="FreeSans" font-size="10.00" fill="#000000">::process_event</text>
</a>
</g>
</g>
<!-- Node2&#45;&gt;Node30 -->
<g id="edge29" class="edge">
<title>Node2&#45;&gt;Node30</title>
<path fill="none" stroke="#191970" d="M232.1019,-1176.3996C246.5379,-1142.4861 276.2529,-1083.6981 320,-1050.5 325.1075,-1046.6241 330.8002,-1043.3201 336.7484,-1040.5047"/>
<polygon fill="#191970" stroke="#191970" points="228.6907,-1175.491 228.1136,-1186.0701 235.1619,-1178.1599 228.6907,-1175.491"/>
</g>
<!-- Node31 -->
<g id="node31" class="node">
<title>Node31</title>
<g id="a_node31"><a xlink:href="../../d5/df4/classQAG4SimulationKFParticle.html#a90300d5f56d13aee8a6fe305922187f1" target="_top" xlink:title="QAG4SimulationKFParticle\l::process_event">
<polygon fill="none" stroke="#000000" points="329.5,-957.5 329.5,-989.5 478.5,-989.5 478.5,-957.5 329.5,-957.5"/>
<text text-anchor="start" x="337.5" y="-976.5" font-family="FreeSans" font-size="10.00" fill="#000000">QAG4SimulationKFParticle</text>
<text text-anchor="middle" x="404" y="-964.5" font-family="FreeSans" font-size="10.00" fill="#000000">::process_event</text>
</a>
</g>
</g>
<!-- Node2&#45;&gt;Node31 -->
<g id="edge30" class="edge">
<title>Node2&#45;&gt;Node31</title>
<path fill="none" stroke="#191970" d="M227.4847,-1176.3897C237.8986,-1133.2549 264.6251,-1047.1545 320,-999.5 324.5127,-995.6164 329.6,-992.3127 334.982,-989.5023"/>
<polygon fill="#191970" stroke="#191970" points="224.0174,-1175.8502 225.1811,-1186.3809 230.8384,-1177.423 224.0174,-1175.8502"/>
</g>
<!-- Node32 -->
<g id="node32" class="node">
<title>Node32</title>
<g id="a_node32"><a xlink:href="../../de/dbf/classQAG4SimulationTracking.html#ac2aeab5238fcf828f70c61b4976b57fe" target="_top" xlink:title="QAG4SimulationTracking\l::process_event">
<polygon fill="none" stroke="#000000" points="333.5,-906.5 333.5,-938.5 474.5,-938.5 474.5,-906.5 333.5,-906.5"/>
<text text-anchor="start" x="341.5" y="-925.5" font-family="FreeSans" font-size="10.00" fill="#000000">QAG4SimulationTracking</text>
<text text-anchor="middle" x="404" y="-913.5" font-family="FreeSans" font-size="10.00" fill="#000000">::process_event</text>
</a>
</g>
</g>
<!-- Node2&#45;&gt;Node32 -->
<g id="edge31" class="edge">
<title>Node2&#45;&gt;Node32</title>
<path fill="none" stroke="#191970" d="M224.6443,-1176.2318C231.2089,-1124.9759 252.9079,-1011.1746 320,-948.5 324.1276,-944.6442 328.8168,-941.3598 333.8189,-938.5623"/>
<polygon fill="#191970" stroke="#191970" points="221.1335,-1176.1169 223.4318,-1186.4594 228.0848,-1176.941 221.1335,-1176.1169"/>
</g>
<!-- Node33 -->
<g id="node33" class="node">
<title>Node33</title>
<g id="a_node33"><a xlink:href="../../d4/d90/classQAG4SimulationCalorimeterSum.html#a2104cb16e224c7eb39b9c5aed8aed4f0" target="_top" xlink:title="QAG4SimulationCalorimeter\lSum::process_event">
<polygon fill="none" stroke="#000000" points="324.5,-855.5 324.5,-887.5 483.5,-887.5 483.5,-855.5 324.5,-855.5"/>
<text text-anchor="start" x="332.5" y="-874.5" font-family="FreeSans" font-size="10.00" fill="#000000">QAG4SimulationCalorimeter</text>
<text text-anchor="middle" x="404" y="-862.5" font-family="FreeSans" font-size="10.00" fill="#000000">Sum::process_event</text>
</a>
</g>
</g>
<!-- Node2&#45;&gt;Node33 -->
<g id="edge32" class="edge">
<title>Node2&#45;&gt;Node33</title>
<path fill="none" stroke="#191970" d="M227.1822,-1176.3234C240.8014,-1109.9886 279.3637,-937.703 320,-897.5 323.9068,-893.6348 328.376,-890.3426 333.1721,-887.5385"/>
<polygon fill="#191970" stroke="#191970" points="223.701,-1175.8797 225.1435,-1186.3759 230.5613,-1177.2711 223.701,-1175.8797"/>
</g>
<!-- Node34 -->
<g id="node34" class="node">
<title>Node34</title>
<g id="a_node34"><a xlink:href="../../da/d27/classTPCDataStreamEmulator.html#a103b0eab10ddf8a3b47e2d6e36b5a59d" target="_top" xlink:title="TPCDataStreamEmulator\l::process_event">
<polygon fill="none" stroke="#000000" points="332.5,-804.5 332.5,-836.5 475.5,-836.5 475.5,-804.5 332.5,-804.5"/>
<text text-anchor="start" x="340.5" y="-823.5" font-family="FreeSans" font-size="10.00" fill="#000000">TPCDataStreamEmulator</text>
<text text-anchor="middle" x="404" y="-811.5" font-family="FreeSans" font-size="10.00" fill="#000000">::process_event</text>
</a>
</g>
</g>
<!-- Node2&#45;&gt;Node34 -->
<g id="edge33" class="edge">
<title>Node2&#45;&gt;Node34</title>
<path fill="none" stroke="#191970" d="M225.9403,-1176.0467C237.4761,-1101.9567 273.3269,-894.6691 320,-846.5 323.7181,-842.6628 327.9896,-839.3888 332.5938,-836.5957"/>
<polygon fill="#191970" stroke="#191970" points="222.4144,-1175.9492 224.3578,-1186.3643 229.3335,-1177.0105 222.4144,-1175.9492"/>
</g>
<!-- Node35 -->
<g id="node35" class="node">
<title>Node35</title>
<g id="a_node35"><a xlink:href="../../d6/da1/classProto2ShowerCalib.html#acdbc70e3d9fd76151ff1ea043ccf7db8" target="_top" xlink:title="Proto2ShowerCalib::\lprocess_event">
<polygon fill="none" stroke="#000000" points="345,-753.5 345,-785.5 463,-785.5 463,-753.5 345,-753.5"/>
<text text-anchor="start" x="353" y="-772.5" font-family="FreeSans" font-size="10.00" fill="#000000">Proto2ShowerCalib::</text>
<text text-anchor="middle" x="404" y="-760.5" font-family="FreeSans" font-size="10.00" fill="#000000">process_event</text>
</a>
</g>
</g>
<!-- Node2&#45;&gt;Node35 -->
<g id="edge34" class="edge">
<title>Node2&#45;&gt;Node35</title>
<path fill="none" stroke="#191970" d="M224.9502,-1176.1232C234.5189,-1095.0862 267.1665,-851.8212 320,-795.5 326.7889,-788.263 335.5456,-783.0248 344.8332,-779.2371"/>
<polygon fill="#191970" stroke="#191970" points="221.4285,-1176.1083 223.7534,-1186.4449 228.3819,-1176.9146 221.4285,-1176.1083"/>
</g>
<!-- Node36 -->
<g id="node36" class="node">
<title>Node36</title>
<g id="a_node36"><a xlink:href="../../d9/d84/classProto3ShowerCalib.html#aac6fefbb30143ab22df4299ed4d0d522" target="_top" xlink:title="Proto3ShowerCalib::\lprocess_event">
<polygon fill="none" stroke="#000000" points="345,-702.5 345,-734.5 463,-734.5 463,-702.5 345,-702.5"/>
<text text-anchor="start" x="353" y="-721.5" font-family="FreeSans" font-size="10.00" fill="#000000">Proto3ShowerCalib::</text>
<text text-anchor="middle" x="404" y="-709.5" font-family="FreeSans" font-size="10.00" fill="#000000">process_event</text>
</a>
</g>
</g>
<!-- Node2&#45;&gt;Node36 -->
<g id="edge35" class="edge">
<title>Node2&#45;&gt;Node36</title>
<path fill="none" stroke="#191970" d="M224.1653,-1176.3404C231.9039,-1088.9665 260.933,-809.097 320,-744.5 326.6961,-737.177 335.4071,-731.8966 344.6783,-728.0935"/>
<polygon fill="#191970" stroke="#191970" points="220.6646,-1176.1982 223.2885,-1186.463 227.6385,-1176.8024 220.6646,-1176.1982"/>
</g>
<!-- Node37 -->
<g id="node37" class="node">
<title>Node37</title>
<g id="a_node37"><a xlink:href="../../d2/df0/classSynRadAna.html#a6c0e398679d70c47b26fec84aa644673" target="_top" xlink:title="SynRadAna::process\l_event">
<polygon fill="none" stroke="#000000" points="344,-651.5 344,-683.5 464,-683.5 464,-651.5 344,-651.5"/>
<text text-anchor="start" x="352" y="-670.5" font-family="FreeSans" font-size="10.00" fill="#000000">SynRadAna::process</text>
<text text-anchor="middle" x="404" y="-658.5" font-family="FreeSans" font-size="10.00" fill="#000000">_event</text>
</a>
</g>
</g>
<!-- Node2&#45;&gt;Node37 -->
<g id="edge36" class="edge">
<title>Node2&#45;&gt;Node37</title>
<path fill="none" stroke="#191970" d="M223.5615,-1176.2336C229.6457,-1082.5289 254.7386,-766.3635 320,-693.5 326.4166,-686.3359 334.7623,-681.1233 343.6989,-677.3355"/>
<polygon fill="#191970" stroke="#191970" points="220.0638,-1176.0882 222.9269,-1186.2889 227.0499,-1176.5292 220.0638,-1176.0882"/>
</g>
<!-- Node38 -->
<g id="node38" class="node">
<title>Node38</title>
<g id="a_node38"><a xlink:href="../../d0/d0c/classQAG4Decayer.html#aa696e43f8b271a9bb04e79109be46adc" target="_top" xlink:title="QAG4Decayer::process\l_event">
<polygon fill="none" stroke="#000000" points="337.5,-600.5 337.5,-632.5 470.5,-632.5 470.5,-600.5 337.5,-600.5"/>
<text text-anchor="start" x="345.5" y="-619.5" font-family="FreeSans" font-size="10.00" fill="#000000">QAG4Decayer::process</text>
<text text-anchor="middle" x="404" y="-607.5" font-family="FreeSans" font-size="10.00" fill="#000000">_event</text>
</a>
</g>
</g>
<!-- Node2&#45;&gt;Node38 -->
<g id="edge37" class="edge">
<title>Node2&#45;&gt;Node38</title>
<path fill="none" stroke="#191970" d="M223.0565,-1176.2531C227.5824,-1076.6703 248.4879,-723.7178 320,-642.5 324.8424,-637.0004 330.822,-632.6491 337.3422,-629.2088"/>
<polygon fill="#191970" stroke="#191970" points="219.555,-1176.2132 222.6148,-1186.3566 226.5483,-1176.519 219.555,-1176.2132"/>
</g>
<!-- Node39 -->
<g id="node39" class="node">
<title>Node39</title>
<g id="a_node39"><a xlink:href="../../df/d26/classProto4SampleFrac.html#a0233b792645a661433b6874cfd589e96" target="_top" xlink:title="Standard function called at each event.">
<polygon fill="none" stroke="#000000" points="327.5,-549.5 327.5,-581.5 480.5,-581.5 480.5,-549.5 327.5,-549.5"/>
<text text-anchor="start" x="335.5" y="-568.5" font-family="FreeSans" font-size="10.00" fill="#000000">Proto4SampleFrac::process</text>
<text text-anchor="middle" x="404" y="-556.5" font-family="FreeSans" font-size="10.00" fill="#000000">_event</text>
</a>
</g>
</g>
<!-- Node2&#45;&gt;Node39 -->
<g id="edge38" class="edge">
<title>Node2&#45;&gt;Node39</title>
<path fill="none" stroke="#191970" d="M222.6339,-1176.2899C225.6978,-1071.1225 242.2092,-681.1243 320,-591.5 323.3022,-587.6955 327.1489,-584.4398 331.3448,-581.6546"/>
<polygon fill="#191970" stroke="#191970" points="219.1333,-1176.2667 222.357,-1186.3591 226.1306,-1176.4592 219.1333,-1176.2667"/>
</g>
<!-- Node40 -->
<g id="node40" class="node">
<title>Node40</title>
<g id="a_node40"><a xlink:href="../../dd/d7f/classProto4TowerCalib.html#afa3db4ddfec6bc956909f61aee83cd0d" target="_top" xlink:title="Standard function called at each event.">
<polygon fill="none" stroke="#000000" points="329.5,-498.5 329.5,-530.5 478.5,-530.5 478.5,-498.5 329.5,-498.5"/>
<text text-anchor="start" x="337.5" y="-517.5" font-family="FreeSans" font-size="10.00" fill="#000000">Proto4TowerCalib::process</text>
<text text-anchor="middle" x="404" y="-505.5" font-family="FreeSans" font-size="10.00" fill="#000000">_event</text>
</a>
</g>
</g>
<!-- Node2&#45;&gt;Node40 -->
<g id="edge39" class="edge">
<title>Node2&#45;&gt;Node40</title>
<path fill="none" stroke="#191970" d="M222.2818,-1175.9339C223.9916,-1064.8052 236.0092,-638.4555 320,-540.5 323.2792,-536.6756 327.1088,-533.4052 331.2924,-530.6094"/>
<polygon fill="#191970" stroke="#191970" points="218.7779,-1176.1947 222.1396,-1186.242 225.7773,-1176.2913 218.7779,-1176.1947"/>
</g>
<!-- Node41 -->
<g id="node41" class="node">
<title>Node41</title>
<g id="a_node41"><a xlink:href="../../d2/df2/classtruthDecayTester.html#a62224a46d48010d0b92d8384b746cd29" target="_top" xlink:title="truthDecayTester::process\l_event">
<polygon fill="none" stroke="#000000" points="330,-447.5 330,-479.5 478,-479.5 478,-447.5 330,-447.5"/>
<text text-anchor="start" x="338" y="-466.5" font-family="FreeSans" font-size="10.00" fill="#000000">truthDecayTester::process</text>
<text text-anchor="middle" x="404" y="-454.5" font-family="FreeSans" font-size="10.00" fill="#000000">_event</text>
</a>
</g>
</g>
<!-- Node2&#45;&gt;Node41 -->
<g id="edge40" class="edge">
<title>Node2&#45;&gt;Node41</title>
<path fill="none" stroke="#191970" d="M223.9376,-1176.3556C233.2102,-1054.1764 274.4874,-543.1405 320,-489.5 323.2593,-485.6586 327.0741,-482.3756 331.2471,-479.5708"/>
<polygon fill="#191970" stroke="#191970" points="220.4472,-1176.0976 223.1862,-1186.3322 227.4274,-1176.6233 220.4472,-1176.0976"/>
</g>
<!-- Node42 -->
<g id="node42" class="node">
<title>Node42</title>
<g id="a_node42"><a xlink:href="../../dc/d79/classQAG4SimulationTruthDecay.html#a5469feeef5882fb98cca6680d159d136" target="_top" xlink:title="QAG4SimulationTruthDecay\l::process_event">
<polygon fill="none" stroke="#000000" points="325.5,-396.5 325.5,-428.5 482.5,-428.5 482.5,-396.5 325.5,-396.5"/>
<text text-anchor="start" x="333.5" y="-415.5" font-family="FreeSans" font-size="10.00" fill="#000000">QAG4SimulationTruthDecay</text>
<text text-anchor="middle" x="404" y="-403.5" font-family="FreeSans" font-size="10.00" fill="#000000">::process_event</text>
</a>
</g>
</g>
<!-- Node2&#45;&gt;Node42 -->
<g id="edge41" class="edge">
<title>Node2&#45;&gt;Node42</title>
<path fill="none" stroke="#191970" d="M223.701,-1176.1352C232.1723,-1048.2567 271.3441,-496.372 320,-438.5 323.2419,-434.644 327.0439,-431.3501 331.2076,-428.5374"/>
<polygon fill="#191970" stroke="#191970" points="220.2021,-1176.0053 223.0391,-1186.2133 227.1871,-1176.4642 220.2021,-1176.0053"/>
</g>
<!-- Node43 -->
<g id="node43" class="node">
<title>Node43</title>
<g id="a_node43"><a xlink:href="../../d8/d7c/classTPCMLDataInterface.html#ad8e09026c6e113a6b0a3ad2c5a54eae6" target="_top" xlink:title="TPCMLDataInterface\l::process_event">
<polygon fill="none" stroke="#000000" points="344.5,-345.5 344.5,-377.5 463.5,-377.5 463.5,-345.5 344.5,-345.5"/>
<text text-anchor="start" x="352.5" y="-364.5" font-family="FreeSans" font-size="10.00" fill="#000000">TPCMLDataInterface</text>
<text text-anchor="middle" x="404" y="-352.5" font-family="FreeSans" font-size="10.00" fill="#000000">::process_event</text>
</a>
</g>
</g>
<!-- Node2&#45;&gt;Node43 -->
<g id="edge42" class="edge">
<title>Node2&#45;&gt;Node43</title>
<path fill="none" stroke="#191970" d="M223.4819,-1176.0878C231.1718,-1042.9838 268.1729,-449.6408 320,-387.5 326.3556,-379.8797 334.8991,-374.4528 344.1097,-370.5969"/>
<polygon fill="#191970" stroke="#191970" points="219.9804,-1176.0165 222.9032,-1186.2002 226.9689,-1176.4165 219.9804,-1176.0165"/>
</g>
<!-- Node44 -->
<g id="node44" class="node">
<title>Node44</title>
<g id="a_node44"><a xlink:href="../../dc/dd7/classPHG4ScoringManager.html#a5d492ab9ed5d057011eff6654f83cf72" target="_top" xlink:title="event processing method">
<polygon fill="none" stroke="#000000" points="340.5,-294.5 340.5,-326.5 467.5,-326.5 467.5,-294.5 340.5,-294.5"/>
<text text-anchor="start" x="348.5" y="-313.5" font-family="FreeSans" font-size="10.00" fill="#000000">PHG4ScoringManager</text>
<text text-anchor="middle" x="404" y="-301.5" font-family="FreeSans" font-size="10.00" fill="#000000">::process_event</text>
</a>
</g>
</g>
<!-- Node2&#45;&gt;Node44 -->
<g id="edge43" class="edge">
<title>Node2&#45;&gt;Node44</title>
<path fill="none" stroke="#191970" d="M223.2798,-1176.2039C230.2097,-1038.3623 264.9742,-402.9465 320,-336.5 325.4526,-329.9157 332.5392,-324.9679 340.2841,-321.2557"/>
<polygon fill="#191970" stroke="#191970" points="219.7794,-1176.1252 222.7781,-1186.2868 226.7708,-1176.4731 219.7794,-1176.1252"/>
</g>
<!-- Node45 -->
<g id="node45" class="node">
<title>Node45</title>
<g id="a_node45"><a xlink:href="../../d2/d90/classExampleAnalysisModule.html#ae8a4b6fe1beaa527f3aa92073ea067e4" target="_top" xlink:title="Standard function called at each event.">
<polygon fill="none" stroke="#000000" points="334.5,-243.5 334.5,-275.5 473.5,-275.5 473.5,-243.5 334.5,-243.5"/>
<text text-anchor="start" x="342.5" y="-262.5" font-family="FreeSans" font-size="10.00" fill="#000000">ExampleAnalysisModule</text>
<text text-anchor="middle" x="404" y="-250.5" font-family="FreeSans" font-size="10.00" fill="#000000">::process_event</text>
</a>
</g>
</g>
<!-- Node2&#45;&gt;Node45 -->
<g id="edge44" class="edge">
<title>Node2&#45;&gt;Node45</title>
<path fill="none" stroke="#191970" d="M223.0941,-1176.4742C229.2867,-1034.3972 261.7483,-356.2888 320,-285.5 323.9771,-280.667 328.8349,-276.7151 334.1892,-273.4861"/>
<polygon fill="#191970" stroke="#191970" points="219.5973,-1176.3254 222.6636,-1186.4668 226.5909,-1176.6268 219.5973,-1176.3254"/>
</g>
<!-- Node46 -->
<g id="node46" class="node">
<title>Node46</title>
<g id="a_node46"><a xlink:href="../../d5/dee/classTPCFEETestRecov1.html#ad90f272166874334ddecde7b4877f7a7" target="_top" xlink:title="TPCFEETestRecov1::process\l_event">
<polygon fill="none" stroke="#000000" points="325,-192.5 325,-224.5 483,-224.5 483,-192.5 325,-192.5"/>
<text text-anchor="start" x="333" y="-211.5" font-family="FreeSans" font-size="10.00" fill="#000000">TPCFEETestRecov1::process</text>
<text text-anchor="middle" x="404" y="-199.5" font-family="FreeSans" font-size="10.00" fill="#000000">_event</text>
</a>
</g>
</g>
<!-- Node2&#45;&gt;Node46 -->
<g id="edge45" class="edge">
<title>Node2&#45;&gt;Node46</title>
<path fill="none" stroke="#191970" d="M222.9585,-1175.9805C228.5276,-1028.1233 258.6221,-309.5127 320,-234.5 323.0935,-230.7192 326.7262,-227.4774 330.7149,-224.6989"/>
<polygon fill="#191970" stroke="#191970" points="219.447,-1176.2298 222.5731,-1186.3529 226.4421,-1176.4898 219.447,-1176.2298"/>
</g>
<!-- Node47 -->
<g id="node47" class="node">
<title>Node47</title>
<g id="a_node47"><a xlink:href="../../dd/d60/classTpcPrototypeUnpacker.html#a3c458d1bda422672ff79946e5816f197" target="_top" xlink:title="TpcPrototypeUnpacker\l::process_event">
<polygon fill="none" stroke="#000000" points="338,-141.5 338,-173.5 470,-173.5 470,-141.5 338,-141.5"/>
<text text-anchor="start" x="346" y="-160.5" font-family="FreeSans" font-size="10.00" fill="#000000">TpcPrototypeUnpacker</text>
<text text-anchor="middle" x="404" y="-148.5" font-family="FreeSans" font-size="10.00" fill="#000000">::process_event</text>
</a>
</g>
</g>
<!-- Node2&#45;&gt;Node47 -->
<g id="edge46" class="edge">
<title>Node2&#45;&gt;Node47</title>
<path fill="none" stroke="#191970" d="M222.8155,-1176.0296C227.7332,-1023.6989 255.4172,-262.8348 320,-183.5 324.8188,-177.5804 330.9597,-172.9814 337.7222,-169.4128"/>
<polygon fill="#191970" stroke="#191970" points="219.3085,-1176.1961 222.4888,-1186.3024 226.305,-1176.4187 219.3085,-1176.1961"/>
</g>
<!-- Node48 -->
<g id="node48" class="node">
<title>Node48</title>
<g id="a_node48"><a xlink:href="../../da/daf/classJetHepMCLoader.html#a0f3ee3e4aa8a5cfc1c915d062dd7abb8" target="_top" xlink:title="JetHepMCLoader::process\l_event">
<polygon fill="none" stroke="#000000" points="331,-90.5 331,-122.5 477,-122.5 477,-90.5 331,-90.5"/>
<text text-anchor="start" x="339" y="-109.5" font-family="FreeSans" font-size="10.00" fill="#000000">JetHepMCLoader::process</text>
<text text-anchor="middle" x="404" y="-97.5" font-family="FreeSans" font-size="10.00" fill="#000000">_event</text>
</a>
</g>
</g>
<!-- Node2&#45;&gt;Node48 -->
<g id="edge47" class="edge">
<title>Node2&#45;&gt;Node48</title>
<path fill="none" stroke="#191970" d="M222.6833,-1176.1875C226.9692,-1019.7685 252.1922,-216.1841 320,-132.5 323.0754,-128.7045 326.6945,-125.4516 330.6733,-122.665"/>
<polygon fill="#191970" stroke="#191970" points="219.1812,-1176.2218 222.4106,-1186.3125 226.1787,-1176.4104 219.1812,-1176.2218"/>
</g>
<!-- Node49 -->
<g id="node49" class="node">
<title>Node49</title>
<g id="a_node49"><a xlink:href="../../d4/db0/classanalysis.html#a90b0cea30514b2a753d23c16a997789c" target="_top" xlink:title="analysis::process_event">
<polygon fill="none" stroke="#000000" points="335.5,-51.5 335.5,-71.5 472.5,-71.5 472.5,-51.5 335.5,-51.5"/>
<text text-anchor="middle" x="404" y="-58.5" font-family="FreeSans" font-size="10.00" fill="#000000">analysis::process_event</text>
</a>
</g>
</g>
<!-- Node2&#45;&gt;Node49 -->
<g id="edge48" class="edge">
<title>Node2&#45;&gt;Node49</title>
<path fill="none" stroke="#191970" d="M222.4932,-1175.9004C225.7285,-1014.1825 246.1358,-167.0669 320,-81.5 324.3101,-76.507 329.6201,-72.6395 335.4589,-69.6581"/>
<polygon fill="#191970" stroke="#191970" points="218.9853,-1176.2733 222.2894,-1186.3397 225.984,-1176.41 218.9853,-1176.2733"/>
</g>
<!-- Node50 -->
<g id="node50" class="node">
<title>Node50</title>
<g id="a_node50"><a xlink:href="../../df/d19/classjetrtrack.html#a758b4304d032e00e4c9c6c1ce966d64b" target="_top" xlink:title="jetrtrack::process\l_event">
<polygon fill="none" stroke="#000000" points="351.5,-.5 351.5,-32.5 456.5,-32.5 456.5,-.5 351.5,-.5"/>
<text text-anchor="start" x="359.5" y="-19.5" font-family="FreeSans" font-size="10.00" fill="#000000">jetrtrack::process</text>
<text text-anchor="middle" x="404" y="-7.5" font-family="FreeSans" font-size="10.00" fill="#000000">_event</text>
</a>
</g>
</g>
<!-- Node2&#45;&gt;Node50 -->
<g id="edge49" class="edge">
<title>Node2&#45;&gt;Node50</title>
<path fill="none" stroke="#191970" d="M222.4885,-1176.0666C225.7511,-1011.7237 246.5491,-133.8047 320,-42.5 327.8465,-32.7463 339.2847,-26.5734 351.2087,-22.6882"/>
<polygon fill="#191970" stroke="#191970" points="218.9857,-1176.1805 222.2909,-1186.2465 225.9844,-1176.3163 218.9857,-1176.1805"/>
</g>
</g>
</svg>
