<?xml version="1.0" encoding="UTF-8" standalone="no"?>
<!DOCTYPE svg PUBLIC "-//W3C//DTD SVG 1.1//EN"
 "http://www.w3.org/Graphics/SVG/1.1/DTD/svg11.dtd">
<!-- Generated by graphviz version 2.40.1 (20161225.0304)
 -->
<!-- Title: Acts::Python::addOutput Pages: 1 -->
<svg width="506pt" height="248pt"
 viewBox="0.00 0.00 506.00 248.00" xmlns="http://www.w3.org/2000/svg" xmlns:xlink="http://www.w3.org/1999/xlink">
<g id="graph0" class="graph" transform="scale(1 1) rotate(0) translate(4 244)">
<title>Acts::Python::addOutput</title>
<!-- Node1 -->
<g id="node1" class="node">
<title>Node1</title>
<polygon fill="#bfbfbf" stroke="#000000" points="0,-109.5 0,-129.5 142,-129.5 142,-109.5 0,-109.5"/>
<text text-anchor="middle" x="71" y="-116.5" font-family="FreeSans" font-size="10.00" fill="#000000">Acts::Python::addOutput</text>
</g>
<!-- Node2 -->
<g id="node2" class="node">
<title>Node2</title>
<g id="a_node2"><a xlink:href="../../d4/d63/structActs_1_1Python_1_1Context.html#ad5bc445f3f8c554dd163325b37ac0d3a" target="_top" xlink:title="Acts::Python::Context::get">
<polygon fill="none" stroke="#000000" points="179,-219.5 179,-239.5 329,-239.5 329,-219.5 179,-219.5"/>
<text text-anchor="middle" x="254" y="-226.5" font-family="FreeSans" font-size="10.00" fill="#000000">Acts::Python::Context::get</text>
</a>
</g>
</g>
<!-- Node1&#45;&gt;Node2 -->
<g id="edge1" class="edge">
<title>Node1&#45;&gt;Node2</title>
<path fill="none" stroke="#191970" d="M79.9112,-129.7048C96.9923,-148.6086 136.3595,-189.0922 178,-210.5 182.0558,-212.5851 186.353,-214.45 190.7588,-216.1166"/>
<polygon fill="#191970" stroke="#191970" points="189.9312,-219.5325 200.5258,-219.4566 192.1963,-212.9091 189.9312,-219.5325"/>
</g>
<!-- Node3 -->
<g id="node3" class="node">
<title>Node3</title>
<g id="a_node3"><a xlink:href="../../d5/dfc/classActsExamples_1_1DigitizationConfig.html#afc0a782f2c4a41a135a363db0078232d" target="_top" xlink:title="ActsExamples::Digitization\lConfig::getBoundIndices">
<polygon fill="none" stroke="#000000" points="178,-168.5 178,-200.5 330,-200.5 330,-168.5 178,-168.5"/>
<text text-anchor="start" x="186" y="-187.5" font-family="FreeSans" font-size="10.00" fill="#000000">ActsExamples::Digitization</text>
<text text-anchor="middle" x="254" y="-175.5" font-family="FreeSans" font-size="10.00" fill="#000000">Config::getBoundIndices</text>
</a>
</g>
</g>
<!-- Node1&#45;&gt;Node3 -->
<g id="edge2" class="edge">
<title>Node1&#45;&gt;Node3</title>
<path fill="none" stroke="#191970" d="M97.2768,-129.6573C118.8717,-137.924 150.3072,-149.7734 178,-159.5 183.2421,-161.3412 188.7014,-163.2173 194.1822,-165.0726"/>
<polygon fill="#191970" stroke="#191970" points="193.4346,-168.5135 204.0285,-168.3774 195.662,-161.8773 193.4346,-168.5135"/>
</g>
<!-- Node4 -->
<g id="node4" class="node">
<title>Node4</title>
<g id="a_node4"><a xlink:href="../../da/d7b/namespaceActs.html#a9b4dee934b0b193d57604b19bc8cd527" target="_top" xlink:title="get default debug output logger">
<polygon fill="none" stroke="#000000" points="187,-129.5 187,-149.5 321,-149.5 321,-129.5 187,-129.5"/>
<text text-anchor="middle" x="254" y="-136.5" font-family="FreeSans" font-size="10.00" fill="#000000">Acts::getDefaultLogger</text>
</a>
</g>
</g>
<!-- Node1&#45;&gt;Node4 -->
<g id="edge3" class="edge">
<title>Node1&#45;&gt;Node4</title>
<path fill="none" stroke="#191970" d="M142.0145,-127.2611C153.4373,-128.5095 165.3092,-129.807 176.8673,-131.0702"/>
<polygon fill="#191970" stroke="#191970" points="176.6035,-134.5621 186.9245,-132.1693 177.364,-127.6036 176.6035,-134.5621"/>
</g>
<!-- Node7 -->
<g id="node7" class="node">
<title>Node7</title>
<g id="a_node7"><a xlink:href="../../d4/da3/namespacemyAnalysis.html#a9f597e7106ca1fcda16204c112f7f2e0" target="_top" xlink:title="myAnalysis::init">
<polygon fill="none" stroke="#000000" points="205.5,-90.5 205.5,-110.5 302.5,-110.5 302.5,-90.5 205.5,-90.5"/>
<text text-anchor="middle" x="254" y="-97.5" font-family="FreeSans" font-size="10.00" fill="#000000">myAnalysis::init</text>
</a>
</g>
</g>
<!-- Node1&#45;&gt;Node7 -->
<g id="edge6" class="edge">
<title>Node1&#45;&gt;Node7</title>
<path fill="none" stroke="#191970" d="M142.0145,-112.1269C159.5699,-110.3042 178.1857,-108.3714 195.0936,-106.616"/>
<polygon fill="#191970" stroke="#191970" points="195.7906,-110.0625 205.3756,-105.5484 195.0676,-103.0999 195.7906,-110.0625"/>
</g>
<!-- Node8 -->
<g id="node8" class="node">
<title>Node8</title>
<g id="a_node8"><a xlink:href="../../dc/dab/namespaceActs_1_1Python.html#ad10f6c20fd3eaba67373a45a2a8909e8" target="_top" xlink:title="Acts::Python::patchKwargs\lConstructor">
<polygon fill="none" stroke="#000000" points="178,-39.5 178,-71.5 330,-71.5 330,-39.5 178,-39.5"/>
<text text-anchor="start" x="186" y="-58.5" font-family="FreeSans" font-size="10.00" fill="#000000">Acts::Python::patchKwargs</text>
<text text-anchor="middle" x="254" y="-46.5" font-family="FreeSans" font-size="10.00" fill="#000000">Constructor</text>
</a>
</g>
</g>
<!-- Node1&#45;&gt;Node8 -->
<g id="edge7" class="edge">
<title>Node1&#45;&gt;Node8</title>
<path fill="none" stroke="#191970" d="M99.1292,-109.4097C120.6904,-101.6998 151.1952,-90.8444 178,-81.5 184.2815,-79.3102 190.861,-77.0337 197.4092,-74.7788"/>
<polygon fill="#191970" stroke="#191970" points="198.6225,-78.0629 206.9425,-71.5034 196.3478,-71.4428 198.6225,-78.0629"/>
</g>
<!-- Node9 -->
<g id="node9" class="node">
<title>Node9</title>
<g id="a_node9"><a xlink:href="../../d7/d2d/make__fmod__calibrations_8C.html#aac759501cf6c7895a70eecbef0226ae1" target="_top" xlink:title="write">
<polygon fill="none" stroke="#000000" points="233.5,-.5 233.5,-20.5 274.5,-20.5 274.5,-.5 233.5,-.5"/>
<text text-anchor="middle" x="254" y="-7.5" font-family="FreeSans" font-size="10.00" fill="#000000">write</text>
</a>
</g>
</g>
<!-- Node1&#45;&gt;Node9 -->
<g id="edge8" class="edge">
<title>Node1&#45;&gt;Node9</title>
<path fill="none" stroke="#191970" d="M80.2561,-109.2872C97.6027,-90.7723 136.9708,-51.6298 178,-30.5 192.1528,-23.2114 209.1924,-18.4121 223.5472,-15.347"/>
<polygon fill="#191970" stroke="#191970" points="224.3035,-18.7655 233.4456,-13.4109 222.9597,-11.8957 224.3035,-18.7655"/>
</g>
<!-- Node5 -->
<g id="node5" class="node">
<title>Node5</title>
<g id="a_node5"><a xlink:href="../../d0/da7/namespacetesting_1_1internal.html#a0f6d06bf8c3093b9c22bb08723db201e" target="_top" xlink:title="testing::internal::move">
<polygon fill="none" stroke="#000000" points="366,-148.5 366,-168.5 498,-168.5 498,-148.5 366,-148.5"/>
<text text-anchor="middle" x="432" y="-155.5" font-family="FreeSans" font-size="10.00" fill="#000000">testing::internal::move</text>
</a>
</g>
</g>
<!-- Node4&#45;&gt;Node5 -->
<g id="edge4" class="edge">
<title>Node4&#45;&gt;Node5</title>
<path fill="none" stroke="#191970" d="M321.0405,-146.656C332.3976,-147.8683 344.2636,-149.1349 355.834,-150.3699"/>
<polygon fill="#191970" stroke="#191970" points="355.5906,-153.8637 365.9056,-151.445 356.3336,-146.9033 355.5906,-153.8637"/>
</g>
<!-- Node6 -->
<g id="node6" class="node">
<title>Node6</title>
<g id="a_node6"><a xlink:href="../../dc/d11/Prototype2_2EMCal_2macros_2SaveCanvas_8m.html#a8efe7494567713c8ec7a6803834a0bb6" target="_top" xlink:title="print">
<polygon fill="none" stroke="#000000" points="412,-109.5 412,-129.5 452,-129.5 452,-109.5 412,-109.5"/>
<text text-anchor="middle" x="432" y="-116.5" font-family="FreeSans" font-size="10.00" fill="#000000">print</text>
</a>
</g>
</g>
<!-- Node4&#45;&gt;Node6 -->
<g id="edge5" class="edge">
<title>Node4&#45;&gt;Node6</title>
<path fill="none" stroke="#191970" d="M321.0405,-131.9674C348.8193,-128.8461 379.6424,-125.3829 401.7383,-122.9002"/>
<polygon fill="#191970" stroke="#191970" points="402.2861,-126.3608 411.8328,-121.766 401.5045,-119.4045 402.2861,-126.3608"/>
</g>
</g>
</svg>
