<?xml version="1.0" encoding="UTF-8" standalone="no"?>
<!DOCTYPE svg PUBLIC "-//W3C//DTD SVG 1.1//EN"
 "http://www.w3.org/Graphics/SVG/1.1/DTD/svg11.dtd">
<!-- Generated by graphviz version 2.40.1 (20161225.0304)
 -->
<!-- Title: TrackFitUtils::addClustersOnLine Pages: 1 -->
<svg width="1341pt" height="609pt"
 viewBox="0.00 0.00 1341.00 608.52" xmlns="http://www.w3.org/2000/svg" xmlns:xlink="http://www.w3.org/1999/xlink">
<g id="graph0" class="graph" transform="scale(1 1) rotate(0) translate(4 604.5153)">
<title>TrackFitUtils::addClustersOnLine</title>
<!-- Node1 -->
<g id="node1" class="node">
<title>Node1</title>
<polygon fill="#bfbfbf" stroke="#000000" points="0,-123.5 0,-155.5 145,-155.5 145,-123.5 0,-123.5"/>
<text text-anchor="start" x="8" y="-142.5" font-family="FreeSans" font-size="10.00" fill="#000000">TrackFitUtils::addClusters</text>
<text text-anchor="middle" x="72.5" y="-130.5" font-family="FreeSans" font-size="10.00" fill="#000000">OnLine</text>
</g>
<!-- Node2 -->
<g id="node2" class="node">
<title>Node2</title>
<g id="a_node2"><a xlink:href="../../d0/d2c/classTrkrClusterContainer.html#a6f26d0655c81919f5539934e0d0fc438" target="_top" xlink:title="find cluster matching given key">
<polygon fill="none" stroke="#000000" points="211.5,-455.5 211.5,-487.5 333.5,-487.5 333.5,-455.5 211.5,-455.5"/>
<text text-anchor="start" x="219.5" y="-474.5" font-family="FreeSans" font-size="10.00" fill="#000000">TrkrClusterContainer</text>
<text text-anchor="middle" x="272.5" y="-462.5" font-family="FreeSans" font-size="10.00" fill="#000000">::findCluster</text>
</a>
</g>
</g>
<!-- Node1&#45;&gt;Node2 -->
<g id="edge1" class="edge">
<title>Node1&#45;&gt;Node2</title>
<path fill="none" stroke="#191970" d="M73.1906,-155.6363C76.2613,-206.4321 92.8086,-364.5229 181,-446.5 187.0025,-452.0796 194.1291,-456.4346 201.7159,-459.8303"/>
<polygon fill="#191970" stroke="#191970" points="200.5655,-463.1384 211.1537,-463.5144 203.111,-456.6176 200.5655,-463.1384"/>
</g>
<!-- Node3 -->
<g id="node3" class="node">
<title>Node3</title>
<g id="a_node3"><a xlink:href="../../d0/d2c/classTrkrClusterContainer.html#a9b6a31479d24147db018ac23460ac548" target="_top" xlink:title="return all clusters">
<polygon fill="none" stroke="#000000" points="211.5,-404.5 211.5,-436.5 333.5,-436.5 333.5,-404.5 211.5,-404.5"/>
<text text-anchor="start" x="219.5" y="-423.5" font-family="FreeSans" font-size="10.00" fill="#000000">TrkrClusterContainer</text>
<text text-anchor="middle" x="272.5" y="-411.5" font-family="FreeSans" font-size="10.00" fill="#000000">::getClusters</text>
</a>
</g>
</g>
<!-- Node1&#45;&gt;Node3 -->
<g id="edge2" class="edge">
<title>Node1&#45;&gt;Node3</title>
<path fill="none" stroke="#191970" d="M74.4476,-155.5044C80.7913,-200.4914 105.0404,-329.1042 181,-395.5 187.0153,-400.758 194.037,-404.9209 201.4674,-408.215"/>
<polygon fill="#191970" stroke="#191970" points="200.4643,-411.5801 211.053,-411.9399 202.9998,-405.0555 200.4643,-411.5801"/>
</g>
<!-- Node4 -->
<g id="node4" class="node">
<title>Node4</title>
<g id="a_node4"><a xlink:href="../../d3/d64/classActsGeometry.html#a74c2c69effa2b19cde731a6b67806fba" target="_top" xlink:title="ActsGeometry::getGlobalPosition">
<polygon fill="none" stroke="#000000" points="181,-365.5 181,-385.5 364,-385.5 364,-365.5 181,-365.5"/>
<text text-anchor="middle" x="272.5" y="-372.5" font-family="FreeSans" font-size="10.00" fill="#000000">ActsGeometry::getGlobalPosition</text>
</a>
</g>
</g>
<!-- Node1&#45;&gt;Node4 -->
<g id="edge3" class="edge">
<title>Node1&#45;&gt;Node4</title>
<path fill="none" stroke="#191970" d="M86.2468,-155.7212C122.3955,-198.3767 219.909,-313.4426 257.4679,-357.7622"/>
<polygon fill="#191970" stroke="#191970" points="254.8149,-360.0452 263.9503,-365.4113 260.1551,-355.5195 254.8149,-360.0452"/>
</g>
<!-- Node20 -->
<g id="node20" class="node">
<title>Node20</title>
<g id="a_node20"><a xlink:href="../../d6/d3f/namespaceTrkrDefs.html#ad4a7fd368bbf1d5d97ff4fd3e81a6100" target="_top" xlink:title="Get the layer number from either key type.">
<polygon fill="none" stroke="#000000" points="1076.5,-168.5 1076.5,-188.5 1187.5,-188.5 1187.5,-168.5 1076.5,-168.5"/>
<text text-anchor="middle" x="1132" y="-175.5" font-family="FreeSans" font-size="10.00" fill="#000000">TrkrDefs::getLayer</text>
</a>
</g>
</g>
<!-- Node1&#45;&gt;Node20 -->
<g id="edge34" class="edge">
<title>Node1&#45;&gt;Node20</title>
<path fill="none" stroke="#191970" d="M145.2854,-139.5C230.5373,-139.5 376.0208,-139.5 501,-139.5 501,-139.5 501,-139.5 720.5,-139.5 855.2094,-139.5 889.2935,-142.0931 1023,-158.5 1039.6839,-160.5472 1057.6754,-163.5265 1074.1388,-166.5633"/>
<polygon fill="#191970" stroke="#191970" points="1073.6915,-170.0405 1084.1668,-168.4537 1074.9883,-163.1617 1073.6915,-170.0405"/>
</g>
<!-- Node22 -->
<g id="node22" class="node">
<title>Node22</title>
<g id="a_node22"><a xlink:href="../../d0/d2c/classTrkrClusterContainer.html#a616614c184fce4e85ce993f83191ba2b" target="_top" xlink:title="get hitset key list">
<polygon fill="none" stroke="#000000" points="211.5,-78.5 211.5,-110.5 333.5,-110.5 333.5,-78.5 211.5,-78.5"/>
<text text-anchor="start" x="219.5" y="-97.5" font-family="FreeSans" font-size="10.00" fill="#000000">TrkrClusterContainer</text>
<text text-anchor="middle" x="272.5" y="-85.5" font-family="FreeSans" font-size="10.00" fill="#000000">::getHitSetKeys</text>
</a>
</g>
</g>
<!-- Node1&#45;&gt;Node22 -->
<g id="edge33" class="edge">
<title>Node1&#45;&gt;Node22</title>
<path fill="none" stroke="#191970" d="M143.8576,-123.4445C162.5906,-119.2296 182.7882,-114.6851 201.5024,-110.4745"/>
<polygon fill="#191970" stroke="#191970" points="202.4439,-113.8502 211.4317,-108.2404 200.9072,-107.0209 202.4439,-113.8502"/>
</g>
<!-- Node23 -->
<g id="node23" class="node">
<title>Node23</title>
<g id="a_node23"><a xlink:href="../../d3/dfb/FillHoughHist_8C.html#a7e49780e97b41ea276e508cdbc5b8656" target="_top" xlink:title="intercept">
<polygon fill="none" stroke="#000000" points="241.5,-39.5 241.5,-59.5 303.5,-59.5 303.5,-39.5 241.5,-39.5"/>
<text text-anchor="middle" x="272.5" y="-46.5" font-family="FreeSans" font-size="10.00" fill="#000000">intercept</text>
</a>
</g>
</g>
<!-- Node1&#45;&gt;Node23 -->
<g id="edge35" class="edge">
<title>Node1&#45;&gt;Node23</title>
<path fill="none" stroke="#191970" d="M92.0118,-123.4485C112.8018,-107.166 147.299,-82.4355 181,-68.5 196.7427,-61.9903 214.9643,-57.6243 230.983,-54.7385"/>
<polygon fill="#191970" stroke="#191970" points="231.8533,-58.142 241.1433,-53.0483 230.7045,-51.2369 231.8533,-58.142"/>
</g>
<!-- Node24 -->
<g id="node24" class="node">
<title>Node24</title>
<g id="a_node24"><a xlink:href="../../d1/d22/EllipseBounds_8cpp.html#ab14acda17eb07a638824bb5e3873c586" target="_top" xlink:title="square">
<polygon fill="none" stroke="#000000" points="247.5,-.5 247.5,-20.5 297.5,-20.5 297.5,-.5 247.5,-.5"/>
<text text-anchor="middle" x="272.5" y="-7.5" font-family="FreeSans" font-size="10.00" fill="#000000">square</text>
</a>
</g>
</g>
<!-- Node1&#45;&gt;Node24 -->
<g id="edge36" class="edge">
<title>Node1&#45;&gt;Node24</title>
<path fill="none" stroke="#191970" d="M83.4188,-123.4927C100.9679,-99.0951 137.886,-52.9695 181,-29.5 198.2723,-20.0977 219.7012,-15.3395 237.4784,-12.9355"/>
<polygon fill="#191970" stroke="#191970" points="237.9354,-16.406 247.4644,-11.7748 237.1271,-9.4528 237.9354,-16.406"/>
</g>
<!-- Node5 -->
<g id="node5" class="node">
<title>Node5</title>
<g id="a_node5"><a xlink:href="../../d3/d64/classActsGeometry.html#aef1d7a1753e979a73b28e0ffbe6ab994" target="_top" xlink:title="ActsGeometry::geometry">
<polygon fill="none" stroke="#000000" points="648.5,-424.5 648.5,-444.5 792.5,-444.5 792.5,-424.5 648.5,-424.5"/>
<text text-anchor="middle" x="720.5" y="-431.5" font-family="FreeSans" font-size="10.00" fill="#000000">ActsGeometry::geometry</text>
</a>
</g>
</g>
<!-- Node4&#45;&gt;Node5 -->
<g id="edge4" class="edge">
<title>Node4&#45;&gt;Node5</title>
<path fill="none" stroke="#191970" d="M320.7866,-385.5001C344.5668,-390.192 373.7098,-395.5961 400,-399.5 480.6712,-411.4791 573.3366,-421.1602 638.2101,-427.2785"/>
<polygon fill="#191970" stroke="#191970" points="638.0946,-430.7829 648.3771,-428.2297 638.7467,-423.8134 638.0946,-430.7829"/>
</g>
<!-- Node6 -->
<g id="node6" class="node">
<title>Node6</title>
<g id="a_node6"><a xlink:href="../../d3/d64/classActsGeometry.html#ac2534e5df04d15932c7edb931994888f" target="_top" xlink:title="ActsGeometry::getGlobalPositionTpc">
<polygon fill="none" stroke="#000000" points="400,-462.5 400,-482.5 602,-482.5 602,-462.5 400,-462.5"/>
<text text-anchor="middle" x="501" y="-469.5" font-family="FreeSans" font-size="10.00" fill="#000000">ActsGeometry::getGlobalPositionTpc</text>
</a>
</g>
</g>
<!-- Node4&#45;&gt;Node6 -->
<g id="edge5" class="edge">
<title>Node4&#45;&gt;Node6</title>
<path fill="none" stroke="#191970" d="M344.1226,-385.5638C351.1515,-388.169 357.9207,-391.4276 364,-395.5 387.3535,-411.144 376.8634,-431.5369 400,-447.5 406.7651,-452.1676 414.316,-455.9657 422.1596,-459.0561"/>
<polygon fill="#191970" stroke="#191970" points="421.2443,-462.4449 431.8391,-462.4854 423.582,-455.8468 421.2443,-462.4449"/>
</g>
<!-- Node7 -->
<g id="node7" class="node">
<title>Node7</title>
<g id="a_node7"><a xlink:href="../../d6/dfa/classTrkrCluster.html#acc835716d1c4f76e9c0da8e5a79e25c1" target="_top" xlink:title="TrkrCluster::getLocalX">
<polygon fill="none" stroke="#000000" points="656.5,-385.5 656.5,-405.5 784.5,-405.5 784.5,-385.5 656.5,-385.5"/>
<text text-anchor="middle" x="720.5" y="-392.5" font-family="FreeSans" font-size="10.00" fill="#000000">TrkrCluster::getLocalX</text>
</a>
</g>
</g>
<!-- Node4&#45;&gt;Node7 -->
<g id="edge28" class="edge">
<title>Node4&#45;&gt;Node7</title>
<path fill="none" stroke="#191970" d="M364.2405,-379.5956C447.5382,-383.3142 568.8517,-388.73 646.2172,-392.1838"/>
<polygon fill="#191970" stroke="#191970" points="646.2184,-395.6873 656.3646,-392.6368 646.5307,-388.6942 646.2184,-395.6873"/>
</g>
<!-- Node8 -->
<g id="node8" class="node">
<title>Node8</title>
<g id="a_node8"><a xlink:href="../../d6/dfa/classTrkrCluster.html#a05e4879520abe27bc6028bc05fc94162" target="_top" xlink:title="TrkrCluster::getLocalY">
<polygon fill="none" stroke="#000000" points="656.5,-579.5 656.5,-599.5 784.5,-599.5 784.5,-579.5 656.5,-579.5"/>
<text text-anchor="middle" x="720.5" y="-586.5" font-family="FreeSans" font-size="10.00" fill="#000000">TrkrCluster::getLocalY</text>
</a>
</g>
</g>
<!-- Node4&#45;&gt;Node8 -->
<g id="edge29" class="edge">
<title>Node4&#45;&gt;Node8</title>
<path fill="none" stroke="#191970" d="M350.1918,-385.6335C355.2275,-388.2939 359.9097,-391.5429 364,-395.5 410.7936,-440.77 351.9936,-493.5182 400,-537.5 466.1577,-598.1115 573.949,-603.4536 646.0252,-598.8235"/>
<polygon fill="#191970" stroke="#191970" points="646.6698,-602.2861 656.3911,-598.0734 646.1645,-595.3043 646.6698,-602.2861"/>
</g>
<!-- Node11 -->
<g id="node11" class="node">
<title>Node11</title>
<g id="a_node11"><a xlink:href="../../d0/dcd/structActsSurfaceMaps.html#abb92973b5c8f30db082c275b7b5cfc04" target="_top" xlink:title="ActsSurfaceMaps::getSurface">
<polygon fill="none" stroke="#000000" points="638,-305.5 638,-325.5 803,-325.5 803,-305.5 638,-305.5"/>
<text text-anchor="middle" x="720.5" y="-312.5" font-family="FreeSans" font-size="10.00" fill="#000000">ActsSurfaceMaps::getSurface</text>
</a>
</g>
</g>
<!-- Node4&#45;&gt;Node11 -->
<g id="edge30" class="edge">
<title>Node4&#45;&gt;Node11</title>
<path fill="none" stroke="#191970" d="M304.9265,-365.484C330.501,-357.9809 367.2037,-348.0843 400,-342.5 476.0264,-329.5548 563.3046,-322.7188 627.5659,-319.1681"/>
<polygon fill="#191970" stroke="#191970" points="627.8784,-322.6565 637.6766,-318.626 627.5035,-315.6665 627.8784,-322.6565"/>
</g>
<!-- Node15 -->
<g id="node15" class="node">
<title>Node15</title>
<g id="a_node15"><a xlink:href="../../d6/d3f/namespaceTrkrDefs.html#a542bf66cb1037404f08212eeefdfde70" target="_top" xlink:title="Get the tracker ID from either key type.">
<polygon fill="none" stroke="#000000" points="1077,-393.5 1077,-413.5 1187,-413.5 1187,-393.5 1077,-393.5"/>
<text text-anchor="middle" x="1132" y="-400.5" font-family="FreeSans" font-size="10.00" fill="#000000">TrkrDefs::getTrkrId</text>
</a>
</g>
</g>
<!-- Node4&#45;&gt;Node15 -->
<g id="edge31" class="edge">
<title>Node4&#45;&gt;Node15</title>
<path fill="none" stroke="#191970" d="M364.2556,-367.9237C494.4211,-358.4877 725.4942,-346.9487 803,-376.5 823.0027,-384.1266 818.9902,-400.8923 839,-408.5 915.4395,-437.5622 941.2437,-410.3742 1023,-408.5 1037.0966,-408.1769 1052.2107,-407.6189 1066.5588,-406.9901"/>
<polygon fill="#191970" stroke="#191970" points="1067.015,-410.473 1076.8455,-406.522 1066.6967,-403.4803 1067.015,-410.473"/>
</g>
<!-- Node21 -->
<g id="node21" class="node">
<title>Node21</title>
<g id="a_node21"><a xlink:href="../../d3/d64/classActsGeometry.html#a5de502147722c0e0e8549b706d5d21a8" target="_top" xlink:title="ActsGeometry::maps">
<polygon fill="none" stroke="#000000" points="659,-540.5 659,-560.5 782,-560.5 782,-540.5 659,-540.5"/>
<text text-anchor="middle" x="720.5" y="-547.5" font-family="FreeSans" font-size="10.00" fill="#000000">ActsGeometry::maps</text>
</a>
</g>
</g>
<!-- Node4&#45;&gt;Node21 -->
<g id="edge32" class="edge">
<title>Node4&#45;&gt;Node21</title>
<path fill="none" stroke="#191970" d="M348.8472,-385.7044C354.318,-388.3311 359.4583,-391.5542 364,-395.5 398.7133,-425.6589 364.7471,-462.9737 400,-492.5 469.4139,-550.6379 577.3836,-558.7383 648.5196,-556.6514"/>
<polygon fill="#191970" stroke="#191970" points="648.8747,-560.1407 658.7388,-556.2743 648.6165,-553.1455 648.8747,-560.1407"/>
</g>
<!-- Node6&#45;&gt;Node5 -->
<g id="edge6" class="edge">
<title>Node6&#45;&gt;Node5</title>
<path fill="none" stroke="#191970" d="M558.9582,-462.4662C587.715,-457.4878 622.6273,-451.4438 652.6281,-446.25"/>
<polygon fill="#191970" stroke="#191970" points="653.3416,-449.6787 662.5979,-444.524 652.1474,-442.7813 653.3416,-449.6787"/>
</g>
<!-- Node6&#45;&gt;Node7 -->
<g id="edge7" class="edge">
<title>Node6&#45;&gt;Node7</title>
<path fill="none" stroke="#191970" d="M522.4331,-462.3495C549.0689,-450.0248 596.1302,-429.1921 638,-415.5 646.2438,-412.8041 655.0573,-410.2908 663.743,-408.0185"/>
<polygon fill="#191970" stroke="#191970" points="664.6229,-411.4063 673.4578,-405.5586 662.9046,-404.6204 664.6229,-411.4063"/>
</g>
<!-- Node6&#45;&gt;Node8 -->
<g id="edge8" class="edge">
<title>Node6&#45;&gt;Node8</title>
<path fill="none" stroke="#191970" d="M511.7742,-482.548C533.737,-502.4672 586.0163,-547.0577 638,-570.5 642.9407,-572.728 648.1698,-574.7084 653.5017,-576.4663"/>
<polygon fill="#191970" stroke="#191970" points="652.5847,-579.8455 663.17,-579.3955 654.6145,-573.1462 652.5847,-579.8455"/>
</g>
<!-- Node9 -->
<g id="node9" class="node">
<title>Node9</title>
<g id="a_node9"><a xlink:href="../../d7/db0/namespaceTpcDefs.html#aafa0c31bf0892588a224d8f0726bff11" target="_top" xlink:title="Get the side from hitsetkey.">
<polygon fill="none" stroke="#000000" points="1080.5,-469.5 1080.5,-489.5 1183.5,-489.5 1183.5,-469.5 1080.5,-469.5"/>
<text text-anchor="middle" x="1132" y="-476.5" font-family="FreeSans" font-size="10.00" fill="#000000">TpcDefs::getSide</text>
</a>
</g>
</g>
<!-- Node6&#45;&gt;Node9 -->
<g id="edge9" class="edge">
<title>Node6&#45;&gt;Node9</title>
<path fill="none" stroke="#191970" d="M578.7632,-482.5031C598.0838,-484.5775 618.7675,-486.4503 638,-487.5 808.8568,-496.8256 852.0037,-493.7667 1023,-487.5 1038.399,-486.9357 1054.9972,-485.9243 1070.484,-484.8063"/>
<polygon fill="#191970" stroke="#191970" points="1070.7654,-488.2951 1080.4768,-484.0599 1070.2439,-481.3146 1070.7654,-488.2951"/>
</g>
<!-- Node6&#45;&gt;Node11 -->
<g id="edge11" class="edge">
<title>Node6&#45;&gt;Node11</title>
<path fill="none" stroke="#191970" d="M515.0646,-462.4401C552.1442,-435.9185 652.8095,-363.9165 698.0043,-331.5903"/>
<polygon fill="#191970" stroke="#191970" points="700.171,-334.3437 706.2684,-325.6793 696.0987,-328.6502 700.171,-334.3437"/>
</g>
<!-- Node6&#45;&gt;Node15 -->
<g id="edge26" class="edge">
<title>Node6&#45;&gt;Node15</title>
<path fill="none" stroke="#191970" d="M602.4679,-478.5438C708.6852,-482.4394 879.6414,-481.8119 1023,-449.5 1052.0178,-442.9596 1083.0869,-429.0981 1104.6002,-418.2917"/>
<polygon fill="#191970" stroke="#191970" points="1106.4762,-421.2628 1113.7705,-413.5789 1103.2765,-415.0369 1106.4762,-421.2628"/>
</g>
<!-- Node6&#45;&gt;Node21 -->
<g id="edge27" class="edge">
<title>Node6&#45;&gt;Node21</title>
<path fill="none" stroke="#191970" d="M525.5444,-482.6356C552.8023,-493.7412 598.2143,-511.7976 638,-525.5 650.1704,-529.6916 663.4753,-533.8885 675.7785,-537.6141"/>
<polygon fill="#191970" stroke="#191970" points="674.8062,-540.9765 685.3899,-540.4918 676.814,-534.2706 674.8062,-540.9765"/>
</g>
<!-- Node10 -->
<g id="node10" class="node">
<title>Node10</title>
<g id="a_node10"><a xlink:href="../../dd/d7e/namespaceActs_1_1Test.html#a88f0887efddd644c8defc1e91456c3c9" target="_top" xlink:title="Acts::Test::tmp">
<polygon fill="none" stroke="#000000" points="1241,-348.5 1241,-368.5 1333,-368.5 1333,-348.5 1241,-348.5"/>
<text text-anchor="middle" x="1287" y="-355.5" font-family="FreeSans" font-size="10.00" fill="#000000">Acts::Test::tmp</text>
</a>
</g>
</g>
<!-- Node9&#45;&gt;Node10 -->
<g id="edge10" class="edge">
<title>Node9&#45;&gt;Node10</title>
<path fill="none" stroke="#191970" d="M1145.2362,-469.4463C1159.8987,-458.286 1184.2167,-439.7073 1205,-423.5 1225.9821,-407.1376 1249.7972,-388.2209 1266.3351,-375.0289"/>
<polygon fill="#191970" stroke="#191970" points="1268.6358,-377.6707 1274.2665,-368.696 1264.268,-372.2005 1268.6358,-377.6707"/>
</g>
<!-- Node12 -->
<g id="node12" class="node">
<title>Node12</title>
<g id="a_node12"><a xlink:href="../../d6/d3f/namespaceTrkrDefs.html#aae37fbdb8f0f6f9b7b1e4173f4fcd331" target="_top" xlink:title="Get the upper 32 bits from cluster keys.">
<polygon fill="none" stroke="#000000" points="853,-207.5 853,-239.5 1009,-239.5 1009,-207.5 853,-207.5"/>
<text text-anchor="start" x="861" y="-226.5" font-family="FreeSans" font-size="10.00" fill="#000000">TrkrDefs::getHitSetKeyFrom</text>
<text text-anchor="middle" x="931" y="-214.5" font-family="FreeSans" font-size="10.00" fill="#000000">ClusKey</text>
</a>
</g>
</g>
<!-- Node11&#45;&gt;Node12 -->
<g id="edge12" class="edge">
<title>Node11&#45;&gt;Node12</title>
<path fill="none" stroke="#191970" d="M735.5931,-305.3268C757.5265,-290.9311 799.8719,-264.582 839,-248.5 843.9754,-246.4551 849.1702,-244.5264 854.4487,-242.7175"/>
<polygon fill="#191970" stroke="#191970" points="855.5934,-246.0257 864.0108,-239.5915 853.4182,-239.3722 855.5934,-246.0257"/>
</g>
<!-- Node13 -->
<g id="node13" class="node">
<title>Node13</title>
<g id="a_node13"><a xlink:href="../../d0/dcd/structActsSurfaceMaps.html#a495aa227eb961abc63783e594fb433b2" target="_top" xlink:title="ActsSurfaceMaps::getMMSurface">
<polygon fill="none" stroke="#000000" points="839.5,-348.5 839.5,-368.5 1022.5,-368.5 1022.5,-348.5 839.5,-348.5"/>
<text text-anchor="middle" x="931" y="-355.5" font-family="FreeSans" font-size="10.00" fill="#000000">ActsSurfaceMaps::getMMSurface</text>
</a>
</g>
</g>
<!-- Node11&#45;&gt;Node13 -->
<g id="edge13" class="edge">
<title>Node11&#45;&gt;Node13</title>
<path fill="none" stroke="#191970" d="M769.5872,-325.5273C800.0623,-331.7526 839.4216,-339.7928 871.6442,-346.3751"/>
<polygon fill="#191970" stroke="#191970" points="871.3368,-349.8845 881.835,-348.4568 872.7378,-343.0261 871.3368,-349.8845"/>
</g>
<!-- Node14 -->
<g id="node14" class="node">
<title>Node14</title>
<g id="a_node14"><a xlink:href="../../d0/dcd/structActsSurfaceMaps.html#ab3b444e968e650e0184aefebcaeaaad4" target="_top" xlink:title="ActsSurfaceMaps::getSilicon\lSurface">
<polygon fill="none" stroke="#000000" points="851,-297.5 851,-329.5 1011,-329.5 1011,-297.5 851,-297.5"/>
<text text-anchor="start" x="859" y="-316.5" font-family="FreeSans" font-size="10.00" fill="#000000">ActsSurfaceMaps::getSilicon</text>
<text text-anchor="middle" x="931" y="-304.5" font-family="FreeSans" font-size="10.00" fill="#000000">Surface</text>
</a>
</g>
</g>
<!-- Node11&#45;&gt;Node14 -->
<g id="edge14" class="edge">
<title>Node11&#45;&gt;Node14</title>
<path fill="none" stroke="#191970" d="M803.091,-314.7153C815.329,-314.599 827.9961,-314.4787 840.3871,-314.3609"/>
<polygon fill="#191970" stroke="#191970" points="840.7489,-317.8577 850.7152,-314.2628 840.6824,-310.8581 840.7489,-317.8577"/>
</g>
<!-- Node11&#45;&gt;Node15 -->
<g id="edge25" class="edge">
<title>Node11&#45;&gt;Node15</title>
<path fill="none" stroke="#191970" d="M764.1481,-325.6104C777.2084,-329.715 791.186,-335.2431 803,-342.5 822.2805,-354.3433 818.4823,-368.9593 839,-378.5 911.5743,-412.2471 1005.1429,-414.0369 1066.7751,-410.3542"/>
<polygon fill="#191970" stroke="#191970" points="1067.0154,-413.846 1076.7623,-409.6928 1066.5528,-406.8613 1067.0154,-413.846"/>
</g>
<!-- Node18 -->
<g id="node18" class="node">
<title>Node18</title>
<g id="a_node18"><a xlink:href="../../d6/dfa/classTrkrCluster.html#a924282f2bc8a157638a88c551e6e0cba" target="_top" xlink:title="TrkrCluster::getSubSurfKey">
<polygon fill="none" stroke="#000000" points="854.5,-258.5 854.5,-278.5 1007.5,-278.5 1007.5,-258.5 854.5,-258.5"/>
<text text-anchor="middle" x="931" y="-265.5" font-family="FreeSans" font-size="10.00" fill="#000000">TrkrCluster::getSubSurfKey</text>
</a>
</g>
</g>
<!-- Node11&#45;&gt;Node18 -->
<g id="edge21" class="edge">
<title>Node11&#45;&gt;Node18</title>
<path fill="none" stroke="#191970" d="M761.5652,-305.4943C784.343,-300.0205 813.2002,-293.211 839,-287.5 849.2572,-285.2295 860.1772,-282.8987 870.7772,-280.6816"/>
<polygon fill="#191970" stroke="#191970" points="871.7313,-284.0582 880.8098,-278.5966 870.3068,-277.2047 871.7313,-284.0582"/>
</g>
<!-- Node19 -->
<g id="node19" class="node">
<title>Node19</title>
<g id="a_node19"><a xlink:href="../../d0/dcd/structActsSurfaceMaps.html#ae3624e0027780ed53abd7335f06b79ed" target="_top" xlink:title="ActsSurfaceMaps::getTpcSurface">
<polygon fill="none" stroke="#000000" points="839,-168.5 839,-188.5 1023,-188.5 1023,-168.5 839,-168.5"/>
<text text-anchor="middle" x="931" y="-175.5" font-family="FreeSans" font-size="10.00" fill="#000000">ActsSurfaceMaps::getTpcSurface</text>
</a>
</g>
</g>
<!-- Node11&#45;&gt;Node19 -->
<g id="edge22" class="edge">
<title>Node11&#45;&gt;Node19</title>
<path fill="none" stroke="#191970" d="M727.4421,-305.3283C743.8647,-282.1212 787.6056,-225.1427 839,-197.5 842.7973,-195.4576 846.7916,-193.6344 850.9015,-192.0069"/>
<polygon fill="#191970" stroke="#191970" points="852.4029,-195.1883 860.6631,-188.5535 850.0683,-188.5891 852.4029,-195.1883"/>
</g>
<!-- Node14&#45;&gt;Node15 -->
<g id="edge15" class="edge">
<title>Node14&#45;&gt;Node15</title>
<path fill="none" stroke="#191970" d="M1004.2057,-329.5513C1010.8117,-332.3572 1017.191,-335.6463 1023,-339.5 1044.343,-353.659 1037.5109,-370.5637 1059,-384.5 1061.8018,-386.3171 1064.7698,-387.9606 1067.843,-389.4473"/>
<polygon fill="#191970" stroke="#191970" points="1066.7437,-392.7825 1077.3173,-393.4529 1069.4696,-386.335 1066.7437,-392.7825"/>
</g>
<!-- Node16 -->
<g id="node16" class="node">
<title>Node16</title>
<g id="a_node16"><a xlink:href="../../d6/d9e/namespaceInttDefs.html#a7bab06e7aa1e8cbfd063c989a690b8e3" target="_top" xlink:title="Zero the crossing bits in a copy of the hitsetkey.">
<polygon fill="none" stroke="#000000" points="1059,-342.5 1059,-374.5 1205,-374.5 1205,-342.5 1059,-342.5"/>
<text text-anchor="start" x="1067" y="-361.5" font-family="FreeSans" font-size="10.00" fill="#000000">InttDefs::resetCrossingHit</text>
<text text-anchor="middle" x="1132" y="-349.5" font-family="FreeSans" font-size="10.00" fill="#000000">SetKey</text>
</a>
</g>
</g>
<!-- Node14&#45;&gt;Node16 -->
<g id="edge17" class="edge">
<title>Node14&#45;&gt;Node16</title>
<path fill="none" stroke="#191970" d="M1002.7143,-329.5555C1018.213,-333.0253 1034.7091,-336.7184 1050.5497,-340.2649"/>
<polygon fill="#191970" stroke="#191970" points="1049.7902,-343.6814 1060.3133,-342.4507 1051.3196,-336.8505 1049.7902,-343.6814"/>
</g>
<!-- Node17 -->
<g id="node17" class="node">
<title>Node17</title>
<g id="a_node17"><a xlink:href="../../d8/df1/namespaceMvtxDefs.html#acef48eba67fd28443f939a4594317be6" target="_top" xlink:title="Zero the strobe bits in the hitsetkey.">
<polygon fill="none" stroke="#000000" points="1060,-291.5 1060,-323.5 1204,-323.5 1204,-291.5 1060,-291.5"/>
<text text-anchor="start" x="1068" y="-310.5" font-family="FreeSans" font-size="10.00" fill="#000000">MvtxDefs::resetStrobeHit</text>
<text text-anchor="middle" x="1132" y="-298.5" font-family="FreeSans" font-size="10.00" fill="#000000">SetKey</text>
</a>
</g>
</g>
<!-- Node14&#45;&gt;Node17 -->
<g id="edge19" class="edge">
<title>Node14&#45;&gt;Node17</title>
<path fill="none" stroke="#191970" d="M1011.0181,-311.1114C1023.7166,-310.7323 1036.8707,-310.3397 1049.6223,-309.959"/>
<polygon fill="#191970" stroke="#191970" points="1049.855,-313.4537 1059.7461,-309.6568 1049.6461,-306.4569 1049.855,-313.4537"/>
</g>
<!-- Node15&#45;&gt;Node10 -->
<g id="edge16" class="edge">
<title>Node15&#45;&gt;Node10</title>
<path fill="none" stroke="#191970" d="M1172.2652,-393.4234C1182.9375,-390.6426 1194.4304,-387.5489 1205,-384.5 1218.7217,-380.5418 1233.6337,-375.913 1246.9321,-371.6667"/>
<polygon fill="#191970" stroke="#191970" points="1248.2928,-374.9057 1256.7406,-368.5116 1246.1492,-368.242 1248.2928,-374.9057"/>
</g>
<!-- Node16&#45;&gt;Node10 -->
<g id="edge18" class="edge">
<title>Node16&#45;&gt;Node10</title>
<path fill="none" stroke="#191970" d="M1205.4148,-358.5C1213.8875,-358.5 1222.4255,-358.5 1230.6223,-358.5"/>
<polygon fill="#191970" stroke="#191970" points="1230.7917,-362.0001 1240.7917,-358.5 1230.7917,-355.0001 1230.7917,-362.0001"/>
</g>
<!-- Node17&#45;&gt;Node10 -->
<g id="edge20" class="edge">
<title>Node17&#45;&gt;Node10</title>
<path fill="none" stroke="#191970" d="M1181.043,-323.6367C1202.1357,-330.5769 1226.4942,-338.5916 1246.5337,-345.1853"/>
<polygon fill="#191970" stroke="#191970" points="1245.6914,-348.5927 1256.2844,-348.3936 1247.8793,-341.9434 1245.6914,-348.5927"/>
</g>
<!-- Node19&#45;&gt;Node20 -->
<g id="edge23" class="edge">
<title>Node19&#45;&gt;Node20</title>
<path fill="none" stroke="#191970" d="M1023.2641,-178.5C1037.7382,-178.5 1052.4417,-178.5 1066.1628,-178.5"/>
<polygon fill="#191970" stroke="#191970" points="1066.4439,-182.0001 1076.4439,-178.5 1066.4438,-175.0001 1066.4439,-182.0001"/>
</g>
<!-- Node20&#45;&gt;Node10 -->
<g id="edge24" class="edge">
<title>Node20&#45;&gt;Node10</title>
<path fill="none" stroke="#191970" d="M1140.7776,-188.6933C1166.0345,-218.0239 1239.1398,-302.9204 1271.3946,-340.3775"/>
<polygon fill="#191970" stroke="#191970" points="1269.1412,-343.1246 1278.3187,-348.4185 1274.4456,-338.5569 1269.1412,-343.1246"/>
</g>
</g>
</svg>
