<?xml version="1.0" encoding="UTF-8" standalone="no"?>
<!DOCTYPE svg PUBLIC "-//W3C//DTD SVG 1.1//EN"
 "http://www.w3.org/Graphics/SVG/1.1/DTD/svg11.dtd">
<!-- Generated by graphviz version 2.40.1 (20161225.0304)
 -->
<!-- Title: TrackFitUtils::get_helix_tangent Pages: 1 -->
<svg width="892pt" height="230pt"
 viewBox="0.00 0.00 892.00 230.18" xmlns="http://www.w3.org/2000/svg" xmlns:xlink="http://www.w3.org/1999/xlink">
<g id="graph0" class="graph" transform="scale(1 1) rotate(0) translate(4 226.1794)">
<title>TrackFitUtils::get_helix_tangent</title>
<!-- Node1 -->
<g id="node1" class="node">
<title>Node1</title>
<polygon fill="#bfbfbf" stroke="#000000" points="0,-51.5 0,-83.5 101,-83.5 101,-51.5 0,-51.5"/>
<text text-anchor="start" x="8" y="-70.5" font-family="FreeSans" font-size="10.00" fill="#000000">TrackFitUtils::get</text>
<text text-anchor="middle" x="50.5" y="-58.5" font-family="FreeSans" font-size="10.00" fill="#000000">_helix_tangent</text>
</g>
<!-- Node2 -->
<g id="node2" class="node">
<title>Node2</title>
<g id="a_node2"><a xlink:href="../../d5/de1/classHelicalFitter.html#a33e12d363bb50c65d65826efa05fb95e" target="_top" xlink:title="HelicalFitter::get\l_helix_tangent">
<polygon fill="none" stroke="#000000" points="170.5,-118.5 170.5,-150.5 270.5,-150.5 270.5,-118.5 170.5,-118.5"/>
<text text-anchor="start" x="178.5" y="-137.5" font-family="FreeSans" font-size="10.00" fill="#000000">HelicalFitter::get</text>
<text text-anchor="middle" x="220.5" y="-125.5" font-family="FreeSans" font-size="10.00" fill="#000000">_helix_tangent</text>
</a>
</g>
</g>
<!-- Node1&#45;&gt;Node2 -->
<g id="edge1" class="edge">
<title>Node1&#45;&gt;Node2</title>
<path fill="none" stroke="#191970" d="M100.623,-87.2543C125.8547,-97.1986 156.047,-109.0979 179.8188,-118.4668"/>
<polygon fill="#191970" stroke="#191970" points="101.8061,-83.9587 91.2192,-83.5482 99.2394,-90.4711 101.8061,-83.9587"/>
</g>
<!-- Node7 -->
<g id="node7" class="node">
<title>Node7</title>
<g id="a_node7"><a xlink:href="../../d6/d54/classPHCosmicsTrkFitter.html#a10ea8f2ecd048a4699b3eeae58bc5934" target="_top" xlink:title="PHCosmicsTrkFitter\l::loopTracks">
<polygon fill="none" stroke="#000000" points="164,-51.5 164,-83.5 277,-83.5 277,-51.5 164,-51.5"/>
<text text-anchor="start" x="172" y="-70.5" font-family="FreeSans" font-size="10.00" fill="#000000">PHCosmicsTrkFitter</text>
<text text-anchor="middle" x="220.5" y="-58.5" font-family="FreeSans" font-size="10.00" fill="#000000">::loopTracks</text>
</a>
</g>
</g>
<!-- Node1&#45;&gt;Node7 -->
<g id="edge10" class="edge">
<title>Node1&#45;&gt;Node7</title>
<path fill="none" stroke="#191970" d="M111.4772,-67.5C128.5687,-67.5 147.0721,-67.5 163.898,-67.5"/>
<polygon fill="#191970" stroke="#191970" points="111.0454,-64.0001 101.0453,-67.5 111.0453,-71.0001 111.0454,-64.0001"/>
</g>
<!-- Node9 -->
<g id="node9" class="node">
<title>Node9</title>
<g id="a_node9"><a xlink:href="../../dd/d92/classTrackSeedTrackMapConverter.html#ad4684e56d489fc441709416cc8047607" target="_top" xlink:title="TrackSeedTrackMapConverter\l::process_event">
<polygon fill="none" stroke="#000000" points="137,-.5 137,-32.5 304,-32.5 304,-.5 137,-.5"/>
<text text-anchor="start" x="145" y="-19.5" font-family="FreeSans" font-size="10.00" fill="#000000">TrackSeedTrackMapConverter</text>
<text text-anchor="middle" x="220.5" y="-7.5" font-family="FreeSans" font-size="10.00" fill="#000000">::process_event</text>
</a>
</g>
</g>
<!-- Node1&#45;&gt;Node9 -->
<g id="edge12" class="edge">
<title>Node1&#45;&gt;Node9</title>
<path fill="none" stroke="#191970" d="M111.0178,-49.3006C119.7358,-46.6815 128.5971,-44.0208 137,-41.5 146.5662,-38.6303 156.7498,-35.5785 166.5967,-32.6294"/>
<polygon fill="#191970" stroke="#191970" points="109.8376,-46.0006 101.2678,-52.2303 111.852,-52.7045 109.8376,-46.0006"/>
</g>
<!-- Node3 -->
<g id="node3" class="node">
<title>Node3</title>
<g id="a_node3"><a xlink:href="../../d5/de1/classHelicalFitter.html#abedac3677810592f32b5deaa57141c3e" target="_top" xlink:title="HelicalFitter::get\l_helix_surface_intersection">
<polygon fill="none" stroke="#000000" points="340,-163.5 340,-195.5 494,-195.5 494,-163.5 340,-163.5"/>
<text text-anchor="start" x="348" y="-182.5" font-family="FreeSans" font-size="10.00" fill="#000000">HelicalFitter::get</text>
<text text-anchor="middle" x="417" y="-170.5" font-family="FreeSans" font-size="10.00" fill="#000000">_helix_surface_intersection</text>
</a>
</g>
</g>
<!-- Node2&#45;&gt;Node3 -->
<g id="edge2" class="edge">
<title>Node2&#45;&gt;Node3</title>
<path fill="none" stroke="#191970" d="M280.3555,-148.2074C301.3829,-153.0228 325.1945,-158.4759 346.9821,-163.4654"/>
<polygon fill="#191970" stroke="#191970" points="281.1227,-144.7925 270.5937,-145.9718 279.56,-151.6159 281.1227,-144.7925"/>
</g>
<!-- Node4 -->
<g id="node4" class="node">
<title>Node4</title>
<g id="a_node4"><a xlink:href="../../d5/de1/classHelicalFitter.html#aebd60825962986736286f8a96b9e797a" target="_top" xlink:title="HelicalFitter::getLocalDerivativesXY">
<polygon fill="none" stroke="#000000" points="530,-201.5 530,-221.5 726,-221.5 726,-201.5 530,-201.5"/>
<text text-anchor="middle" x="628" y="-208.5" font-family="FreeSans" font-size="10.00" fill="#000000">HelicalFitter::getLocalDerivativesXY</text>
</a>
</g>
</g>
<!-- Node2&#45;&gt;Node4 -->
<g id="edge8" class="edge">
<title>Node2&#45;&gt;Node4</title>
<path fill="none" stroke="#191970" d="M248.8811,-156.7413C271.9709,-173.3887 306.1637,-194.8765 340,-204.5 401.4565,-221.9791 473.2956,-223.7564 529.8508,-221.1503"/>
<polygon fill="#191970" stroke="#191970" points="250.7246,-153.7519 240.5992,-150.6328 246.5695,-159.3854 250.7246,-153.7519"/>
</g>
<!-- Node5 -->
<g id="node5" class="node">
<title>Node5</title>
<g id="a_node5"><a xlink:href="../../d5/de1/classHelicalFitter.html#a98485e999dddb90f86479a58eb7b53a3" target="_top" xlink:title="HelicalFitter::process\l_event">
<polygon fill="none" stroke="#000000" points="762,-137.5 762,-169.5 884,-169.5 884,-137.5 762,-137.5"/>
<text text-anchor="start" x="770" y="-156.5" font-family="FreeSans" font-size="10.00" fill="#000000">HelicalFitter::process</text>
<text text-anchor="middle" x="823" y="-144.5" font-family="FreeSans" font-size="10.00" fill="#000000">_event</text>
</a>
</g>
</g>
<!-- Node2&#45;&gt;Node5 -->
<g id="edge9" class="edge">
<title>Node2&#45;&gt;Node5</title>
<path fill="none" stroke="#191970" d="M280.6131,-136.3957C395.6392,-140.0231 645.7359,-147.9099 761.6911,-151.5666"/>
<polygon fill="#191970" stroke="#191970" points="280.6802,-132.8962 270.5748,-136.0791 280.4595,-139.8927 280.6802,-132.8962"/>
</g>
<!-- Node6 -->
<g id="node6" class="node">
<title>Node6</title>
<g id="a_node6"><a xlink:href="../../d5/de1/classHelicalFitter.html#a9dd823f2ca5d4ce5f2905f63f90e9a57" target="_top" xlink:title="HelicalFitter::getGlobal\lDerivativesXY">
<polygon fill="none" stroke="#000000" points="562,-73.5 562,-105.5 694,-105.5 694,-73.5 562,-73.5"/>
<text text-anchor="start" x="570" y="-92.5" font-family="FreeSans" font-size="10.00" fill="#000000">HelicalFitter::getGlobal</text>
<text text-anchor="middle" x="628" y="-80.5" font-family="FreeSans" font-size="10.00" fill="#000000">DerivativesXY</text>
</a>
</g>
</g>
<!-- Node2&#45;&gt;Node6 -->
<g id="edge6" class="edge">
<title>Node2&#45;&gt;Node6</title>
<path fill="none" stroke="#191970" d="M280.7783,-127.3263C299.7281,-125.1011 320.733,-122.6655 340,-120.5 416.0857,-111.9484 503.5365,-102.6038 561.9227,-96.4342"/>
<polygon fill="#191970" stroke="#191970" points="280.3046,-123.8578 270.7823,-128.5029 281.1229,-130.8098 280.3046,-123.8578"/>
</g>
<!-- Node3&#45;&gt;Node4 -->
<g id="edge3" class="edge">
<title>Node3&#45;&gt;Node4</title>
<path fill="none" stroke="#191970" d="M504.0859,-192.7073C523.4118,-195.6383 543.5885,-198.6983 561.9126,-201.4773"/>
<polygon fill="#191970" stroke="#191970" points="504.4833,-189.2277 494.0715,-191.1886 503.4336,-196.1485 504.4833,-189.2277"/>
</g>
<!-- Node3&#45;&gt;Node5 -->
<g id="edge5" class="edge">
<title>Node3&#45;&gt;Node5</title>
<path fill="none" stroke="#191970" d="M504.5632,-173.8925C582.1682,-168.9227 693.487,-161.7939 761.8641,-157.4151"/>
<polygon fill="#191970" stroke="#191970" points="504.077,-170.4164 494.3211,-174.5484 504.5244,-177.4021 504.077,-170.4164"/>
</g>
<!-- Node4&#45;&gt;Node5 -->
<g id="edge4" class="edge">
<title>Node4&#45;&gt;Node5</title>
<path fill="none" stroke="#191970" d="M680.6247,-198.8805C695.3709,-195.1264 711.3672,-190.8483 726,-186.5 743.2217,-181.3824 761.953,-175.1663 778.322,-169.515"/>
<polygon fill="#191970" stroke="#191970" points="679.4917,-195.5564 670.6476,-201.3903 681.1994,-202.345 679.4917,-195.5564"/>
</g>
<!-- Node6&#45;&gt;Node5 -->
<g id="edge7" class="edge">
<title>Node6&#45;&gt;Node5</title>
<path fill="none" stroke="#191970" d="M689.1111,-108.6073C701.3442,-112.4951 714.0932,-116.5919 726,-120.5 742.394,-125.8809 760.2907,-131.9219 776.1977,-137.3502"/>
<polygon fill="#191970" stroke="#191970" points="690.0271,-105.2261 679.437,-105.5417 687.9125,-111.899 690.0271,-105.2261"/>
</g>
<!-- Node8 -->
<g id="node8" class="node">
<title>Node8</title>
<g id="a_node8"><a xlink:href="../../d6/d54/classPHCosmicsTrkFitter.html#af7f27bd06c1766a397916ed87c1a0c4e" target="_top" xlink:title="Process each event by calling the fitter.">
<polygon fill="none" stroke="#000000" points="360.5,-35.5 360.5,-67.5 473.5,-67.5 473.5,-35.5 360.5,-35.5"/>
<text text-anchor="start" x="368.5" y="-54.5" font-family="FreeSans" font-size="10.00" fill="#000000">PHCosmicsTrkFitter</text>
<text text-anchor="middle" x="417" y="-42.5" font-family="FreeSans" font-size="10.00" fill="#000000">::process_event</text>
</a>
</g>
</g>
<!-- Node7&#45;&gt;Node8 -->
<g id="edge11" class="edge">
<title>Node7&#45;&gt;Node8</title>
<path fill="none" stroke="#191970" d="M287.1022,-62.0769C310.9471,-60.1353 337.5765,-57.9671 360.4869,-56.1016"/>
<polygon fill="#191970" stroke="#191970" points="286.7552,-58.5935 277.0723,-62.8936 287.3234,-65.5704 286.7552,-58.5935"/>
</g>
</g>
</svg>
