<?xml version="1.0" encoding="UTF-8" standalone="no"?>
<!DOCTYPE svg PUBLIC "-//W3C//DTD SVG 1.1//EN"
 "http://www.w3.org/Graphics/SVG/1.1/DTD/svg11.dtd">
<!-- Generated by graphviz version 2.40.1 (20161225.0304)
 -->
<!-- Title: GPUTPCBaseTrackParam::GetPar Pages: 1 -->
<svg width="975pt" height="182pt"
 viewBox="0.00 0.00 975.00 182.00" xmlns="http://www.w3.org/2000/svg" xmlns:xlink="http://www.w3.org/1999/xlink">
<g id="graph0" class="graph" transform="scale(1 1) rotate(0) translate(4 178)">
<title>GPUTPCBaseTrackParam::GetPar</title>
<!-- Node1 -->
<g id="node1" class="node">
<title>Node1</title>
<polygon fill="#bfbfbf" stroke="#000000" points="0,-73.5 0,-105.5 140,-105.5 140,-73.5 0,-73.5"/>
<text text-anchor="start" x="8" y="-92.5" font-family="FreeSans" font-size="10.00" fill="#000000">GPUTPCBaseTrackParam</text>
<text text-anchor="middle" x="70" y="-80.5" font-family="FreeSans" font-size="10.00" fill="#000000">::GetPar</text>
</g>
<!-- Node2 -->
<g id="node2" class="node">
<title>Node2</title>
<g id="a_node2"><a xlink:href="../../d4/d60/classGPUTPCTrackParam.html#a2a80cddd642a1685811f2c3ed1e51501" target="_top" xlink:title="GPUTPCTrackParam::GetPar">
<polygon fill="none" stroke="#000000" points="176,-79.5 176,-99.5 332,-99.5 332,-79.5 176,-79.5"/>
<text text-anchor="middle" x="254" y="-86.5" font-family="FreeSans" font-size="10.00" fill="#000000">GPUTPCTrackParam::GetPar</text>
</a>
</g>
</g>
<!-- Node1&#45;&gt;Node2 -->
<g id="edge1" class="edge">
<title>Node1&#45;&gt;Node2</title>
<path fill="none" stroke="#191970" d="M150.3213,-89.5C158.7818,-89.5 167.3763,-89.5 175.8122,-89.5"/>
<polygon fill="#191970" stroke="#191970" points="150.0874,-86.0001 140.0874,-89.5 150.0874,-93.0001 150.0874,-86.0001"/>
</g>
<!-- Node3 -->
<g id="node3" class="node">
<title>Node3</title>
<g id="a_node3"><a xlink:href="../../d4/d60/classGPUTPCTrackParam.html#a35863fa7ba18775d5a3fbe52ab6c0181" target="_top" xlink:title="GPUTPCTrackParam::TransportToX">
<polygon fill="none" stroke="#000000" points="368,-147.5 368,-167.5 555,-167.5 555,-147.5 368,-147.5"/>
<text text-anchor="middle" x="461.5" y="-154.5" font-family="FreeSans" font-size="10.00" fill="#000000">GPUTPCTrackParam::TransportToX</text>
</a>
</g>
</g>
<!-- Node2&#45;&gt;Node3 -->
<g id="edge2" class="edge">
<title>Node2&#45;&gt;Node3</title>
<path fill="none" stroke="#191970" d="M283.191,-104.0273C305.8558,-114.8166 338.3169,-129.2133 368,-138.5 379.0661,-141.9622 391.0713,-144.9516 402.6745,-147.4679"/>
<polygon fill="#191970" stroke="#191970" points="284.6416,-100.8411 274.114,-99.6496 281.6008,-107.1462 284.6416,-100.8411"/>
</g>
<!-- Node4 -->
<g id="node4" class="node">
<title>Node4</title>
<g id="a_node4"><a xlink:href="../../d4/d60/classGPUTPCTrackParam.html#afd5bfcc61171afbb01ddeba13d173e38" target="_top" xlink:title="GPUTPCTrackParam::Calculate\lFitParameters">
<polygon fill="none" stroke="#000000" points="377,-96.5 377,-128.5 546,-128.5 546,-96.5 377,-96.5"/>
<text text-anchor="start" x="385" y="-115.5" font-family="FreeSans" font-size="10.00" fill="#000000">GPUTPCTrackParam::Calculate</text>
<text text-anchor="middle" x="461.5" y="-103.5" font-family="FreeSans" font-size="10.00" fill="#000000">FitParameters</text>
</a>
</g>
</g>
<!-- Node2&#45;&gt;Node4 -->
<g id="edge3" class="edge">
<title>Node2&#45;&gt;Node4</title>
<path fill="none" stroke="#191970" d="M342.1642,-99.2724C353.6514,-100.5457 365.3995,-101.8479 376.8277,-103.1146"/>
<polygon fill="#191970" stroke="#191970" points="342.4759,-95.7856 332.1512,-98.1625 341.7047,-102.743 342.4759,-95.7856"/>
</g>
<!-- Node8 -->
<g id="node8" class="node">
<title>Node8</title>
<g id="a_node8"><a xlink:href="../../d4/d60/classGPUTPCTrackParam.html#ab1e2d06794109f6400da74c211d61835" target="_top" xlink:title="GPUTPCTrackParam::Correct\lForMeanMaterial">
<polygon fill="none" stroke="#000000" points="382,-3.5 382,-35.5 541,-35.5 541,-3.5 382,-3.5"/>
<text text-anchor="start" x="390" y="-22.5" font-family="FreeSans" font-size="10.00" fill="#000000">GPUTPCTrackParam::Correct</text>
<text text-anchor="middle" x="461.5" y="-10.5" font-family="FreeSans" font-size="10.00" fill="#000000">ForMeanMaterial</text>
</a>
</g>
</g>
<!-- Node2&#45;&gt;Node8 -->
<g id="edge7" class="edge">
<title>Node2&#45;&gt;Node8</title>
<path fill="none" stroke="#191970" d="M289.5332,-75.7635C311.9239,-67.2685 341.5078,-56.3374 368,-47.5 380.2163,-43.4248 393.4198,-39.3015 405.9476,-35.5178"/>
<polygon fill="#191970" stroke="#191970" points="288.1961,-72.5275 280.0988,-79.3601 290.6897,-79.0683 288.1961,-72.5275"/>
</g>
<!-- Node10 -->
<g id="node10" class="node">
<title>Node10</title>
<g id="a_node10"><a xlink:href="../../d4/d60/classGPUTPCTrackParam.html#a5baf5f012e005d327ea14964e18c5afd" target="_top" xlink:title="GPUTPCTrackParam::Filter">
<polygon fill="none" stroke="#000000" points="388,-57.5 388,-77.5 535,-77.5 535,-57.5 388,-57.5"/>
<text text-anchor="middle" x="461.5" y="-64.5" font-family="FreeSans" font-size="10.00" fill="#000000">GPUTPCTrackParam::Filter</text>
</a>
</g>
</g>
<!-- Node2&#45;&gt;Node10 -->
<g id="edge9" class="edge">
<title>Node2&#45;&gt;Node10</title>
<path fill="none" stroke="#191970" d="M342.5289,-80.1138C357.644,-78.5112 373.1997,-76.862 387.8749,-75.306"/>
<polygon fill="#191970" stroke="#191970" points="341.7264,-76.6792 332.1512,-81.2141 342.4645,-83.6402 341.7264,-76.6792"/>
</g>
<!-- Node5 -->
<g id="node5" class="node">
<title>Node5</title>
<g id="a_node5"><a xlink:href="../../de/dfe/classALICEKF.html#a4398b184780c2bf2c224bdfcbaf541b3" target="_top" xlink:title="ALICEKF::ALICEKalmanFilter">
<polygon fill="none" stroke="#000000" points="597.5,-102.5 597.5,-122.5 754.5,-122.5 754.5,-102.5 597.5,-102.5"/>
<text text-anchor="middle" x="676" y="-109.5" font-family="FreeSans" font-size="10.00" fill="#000000">ALICEKF::ALICEKalmanFilter</text>
</a>
</g>
</g>
<!-- Node4&#45;&gt;Node5 -->
<g id="edge4" class="edge">
<title>Node4&#45;&gt;Node5</title>
<path fill="none" stroke="#191970" d="M556.633,-112.5C570.2636,-112.5 584.1586,-112.5 597.4221,-112.5"/>
<polygon fill="#191970" stroke="#191970" points="556.2761,-109.0001 546.2761,-112.5 556.276,-116.0001 556.2761,-109.0001"/>
</g>
<!-- Node6 -->
<g id="node6" class="node">
<title>Node6</title>
<g id="a_node6"><a xlink:href="../../d4/d60/classGPUTPCTrackParam.html#a4e95972f54c29323f01457a125703808" target="_top" xlink:title="GPUTPCTrackParam::Transport\lToXWithMaterial">
<polygon fill="none" stroke="#000000" points="591,-141.5 591,-173.5 761,-173.5 761,-141.5 591,-141.5"/>
<text text-anchor="start" x="599" y="-160.5" font-family="FreeSans" font-size="10.00" fill="#000000">GPUTPCTrackParam::Transport</text>
<text text-anchor="middle" x="676" y="-148.5" font-family="FreeSans" font-size="10.00" fill="#000000">ToXWithMaterial</text>
</a>
</g>
</g>
<!-- Node4&#45;&gt;Node6 -->
<g id="edge5" class="edge">
<title>Node4&#45;&gt;Node6</title>
<path fill="none" stroke="#191970" d="M547.9727,-130.6411C565.0242,-134.2184 582.8042,-137.9484 599.4986,-141.4507"/>
<polygon fill="#191970" stroke="#191970" points="548.5366,-127.1833 538.031,-128.5555 547.0993,-134.0342 548.5366,-127.1833"/>
</g>
<!-- Node7 -->
<g id="node7" class="node">
<title>Node7</title>
<g id="a_node7"><a xlink:href="../../d4/d60/classGPUTPCTrackParam.html#ab02a0b34001d85ff64f5d6eccd7a1bca" target="_top" xlink:title="GPUTPCTrackParam::Transport\lToXWithMaterial">
<polygon fill="none" stroke="#000000" points="797,-141.5 797,-173.5 967,-173.5 967,-141.5 797,-141.5"/>
<text text-anchor="start" x="805" y="-160.5" font-family="FreeSans" font-size="10.00" fill="#000000">GPUTPCTrackParam::Transport</text>
<text text-anchor="middle" x="882" y="-148.5" font-family="FreeSans" font-size="10.00" fill="#000000">ToXWithMaterial</text>
</a>
</g>
</g>
<!-- Node6&#45;&gt;Node7 -->
<g id="edge6" class="edge">
<title>Node6&#45;&gt;Node7</title>
<path fill="none" stroke="#191970" d="M771.5137,-157.5C779.9474,-157.5 788.4484,-157.5 796.7889,-157.5"/>
<polygon fill="#191970" stroke="#191970" points="771.2751,-154.0001 761.2751,-157.5 771.2751,-161.0001 771.2751,-154.0001"/>
</g>
<!-- Node9 -->
<g id="node9" class="node">
<title>Node9</title>
<g id="a_node9"><a xlink:href="../../d4/d60/classGPUTPCTrackParam.html#a48b7eac34c0453a1779b1111b2cfb06c" target="_top" xlink:title="GPUTPCTrackParam::Transport\lToXWithMaterial">
<polygon fill="none" stroke="#000000" points="591,-.5 591,-32.5 761,-32.5 761,-.5 591,-.5"/>
<text text-anchor="start" x="599" y="-19.5" font-family="FreeSans" font-size="10.00" fill="#000000">GPUTPCTrackParam::Transport</text>
<text text-anchor="middle" x="676" y="-7.5" font-family="FreeSans" font-size="10.00" fill="#000000">ToXWithMaterial</text>
</a>
</g>
</g>
<!-- Node8&#45;&gt;Node9 -->
<g id="edge8" class="edge">
<title>Node8&#45;&gt;Node9</title>
<path fill="none" stroke="#191970" d="M551.4338,-18.2422C564.473,-18.0598 577.863,-17.8725 590.8051,-17.6915"/>
<polygon fill="#191970" stroke="#191970" points="551.0171,-14.7476 541.0671,-18.3872 551.1151,-21.7469 551.0171,-14.7476"/>
</g>
<!-- Node10&#45;&gt;Node5 -->
<g id="edge10" class="edge">
<title>Node10&#45;&gt;Node5</title>
<path fill="none" stroke="#191970" d="M519.2098,-79.6069C553.3423,-86.7676 596.0541,-95.7281 628.2753,-102.4878"/>
<polygon fill="#191970" stroke="#191970" points="519.8766,-76.1707 509.371,-77.5429 518.4393,-83.0216 519.8766,-76.1707"/>
</g>
<!-- Node11 -->
<g id="node11" class="node">
<title>Node11</title>
<g id="a_node11"><a xlink:href="../../d9/d69/classPHSimpleKFProp.html#aa515bad114fc577245f00f96b40b2e1e" target="_top" xlink:title="PHSimpleKFProp::Propagate\lTrack">
<polygon fill="none" stroke="#000000" points="597.5,-51.5 597.5,-83.5 754.5,-83.5 754.5,-51.5 597.5,-51.5"/>
<text text-anchor="start" x="605.5" y="-70.5" font-family="FreeSans" font-size="10.00" fill="#000000">PHSimpleKFProp::Propagate</text>
<text text-anchor="middle" x="676" y="-58.5" font-family="FreeSans" font-size="10.00" fill="#000000">Track</text>
</a>
</g>
</g>
<!-- Node10&#45;&gt;Node11 -->
<g id="edge11" class="edge">
<title>Node10&#45;&gt;Node11</title>
<path fill="none" stroke="#191970" d="M545.0554,-67.5C562.2953,-67.5 580.3949,-67.5 597.4494,-67.5"/>
<polygon fill="#191970" stroke="#191970" points="545.0187,-64.0001 535.0186,-67.5 545.0186,-71.0001 545.0187,-64.0001"/>
</g>
<!-- Node12 -->
<g id="node12" class="node">
<title>Node12</title>
<g id="a_node12"><a xlink:href="../../d9/d69/classPHSimpleKFProp.html#a136dcc93e867e01b138a7cdd6dbcf008" target="_top" xlink:title="PHSimpleKFProp::Process">
<polygon fill="none" stroke="#000000" points="810,-57.5 810,-77.5 954,-77.5 954,-57.5 810,-57.5"/>
<text text-anchor="middle" x="882" y="-64.5" font-family="FreeSans" font-size="10.00" fill="#000000">PHSimpleKFProp::Process</text>
</a>
</g>
</g>
<!-- Node11&#45;&gt;Node12 -->
<g id="edge12" class="edge">
<title>Node11&#45;&gt;Node12</title>
<path fill="none" stroke="#191970" d="M765.0155,-67.5C779.9417,-67.5 795.2671,-67.5 809.7064,-67.5"/>
<polygon fill="#191970" stroke="#191970" points="764.7616,-64.0001 754.7615,-67.5 764.7615,-71.0001 764.7616,-64.0001"/>
</g>
</g>
</svg>
