<?xml version="1.0" encoding="UTF-8" standalone="no"?>
<!DOCTYPE svg PUBLIC "-//W3C//DTD SVG 1.1//EN"
 "http://www.w3.org/Graphics/SVG/1.1/DTD/svg11.dtd">
<!-- Generated by graphviz version 2.40.1 (20161225.0304)
 -->
<!-- Title: Acts::IterativeVertexFinder::find Pages: 1 -->
<svg width="328pt" height="68pt"
 viewBox="0.00 0.00 328.00 68.00" xmlns="http://www.w3.org/2000/svg" xmlns:xlink="http://www.w3.org/1999/xlink">
<g id="graph0" class="graph" transform="scale(1 1) rotate(0) translate(4 64)">
<title>Acts::IterativeVertexFinder::find</title>
<!-- Node1 -->
<g id="node1" class="node">
<title>Node1</title>
<polygon fill="#bfbfbf" stroke="#000000" points="0,-13.5 0,-45.5 152,-45.5 152,-13.5 0,-13.5"/>
<text text-anchor="start" x="8" y="-32.5" font-family="FreeSans" font-size="10.00" fill="#000000">Acts::IterativeVertexFinder</text>
<text text-anchor="middle" x="76" y="-20.5" font-family="FreeSans" font-size="10.00" fill="#000000">::find</text>
</g>
<!-- Node2 -->
<g id="node2" class="node">
<title>Node2</title>
<g id="a_node2"><a xlink:href="../../df/d7d/classActs_1_1Vertex.html#aebc26ce8d9421f4a574d0fa186a6666a" target="_top" xlink:title="Acts::Vertex::fitQuality">
<polygon fill="none" stroke="#000000" points="188.5,-39.5 188.5,-59.5 319.5,-59.5 319.5,-39.5 188.5,-39.5"/>
<text text-anchor="middle" x="254" y="-46.5" font-family="FreeSans" font-size="10.00" fill="#000000">Acts::Vertex::fitQuality</text>
</a>
</g>
</g>
<!-- Node1&#45;&gt;Node2 -->
<g id="edge1" class="edge">
<title>Node1&#45;&gt;Node2</title>
<path fill="none" stroke="#191970" d="M152.0043,-38.0398C160.6976,-39.0166 169.5599,-40.0123 178.2498,-40.9887"/>
<polygon fill="#191970" stroke="#191970" points="178.0231,-44.4852 188.3514,-42.1238 178.8048,-37.529 178.0231,-44.4852"/>
</g>
<!-- Node3 -->
<g id="node3" class="node">
<title>Node3</title>
<g id="a_node3"><a xlink:href="../../d0/da7/namespacetesting_1_1internal.html#a0f6d06bf8c3093b9c22bb08723db201e" target="_top" xlink:title="testing::internal::move">
<polygon fill="none" stroke="#000000" points="188,-.5 188,-20.5 320,-20.5 320,-.5 188,-.5"/>
<text text-anchor="middle" x="254" y="-7.5" font-family="FreeSans" font-size="10.00" fill="#000000">testing::internal::move</text>
</a>
</g>
</g>
<!-- Node1&#45;&gt;Node3 -->
<g id="edge2" class="edge">
<title>Node1&#45;&gt;Node3</title>
<path fill="none" stroke="#191970" d="M152.0043,-21.3872C160.5618,-20.4737 169.283,-19.5428 177.8424,-18.6292"/>
<polygon fill="#191970" stroke="#191970" points="178.2245,-22.1084 187.7965,-17.5667 177.4814,-15.1479 178.2245,-22.1084"/>
</g>
</g>
</svg>
