<?xml version="1.0" encoding="UTF-8" standalone="no"?>
<!DOCTYPE svg PUBLIC "-//W3C//DTD SVG 1.1//EN"
 "http://www.w3.org/Graphics/SVG/1.1/DTD/svg11.dtd">
<!-- Generated by graphviz version 2.40.1 (20161225.0304)
 -->
<!-- Title: PHG4IHCalSubsystem::Print Pages: 1 -->
<svg width="503pt" height="221pt"
 viewBox="0.00 0.00 503.00 221.00" xmlns="http://www.w3.org/2000/svg" xmlns:xlink="http://www.w3.org/1999/xlink">
<g id="graph0" class="graph" transform="scale(1 1) rotate(0) translate(4 217)">
<title>PHG4IHCalSubsystem::Print</title>
<!-- Node1 -->
<g id="node1" class="node">
<title>Node1</title>
<polygon fill="#bfbfbf" stroke="#000000" points="0,-90.5 0,-122.5 127,-122.5 127,-90.5 0,-90.5"/>
<text text-anchor="start" x="8" y="-109.5" font-family="FreeSans" font-size="10.00" fill="#000000">PHG4IHCalSubsystem</text>
<text text-anchor="middle" x="63.5" y="-97.5" font-family="FreeSans" font-size="10.00" fill="#000000">::Print</text>
</g>
<!-- Node2 -->
<g id="node2" class="node">
<title>Node2</title>
<g id="a_node2"><a xlink:href="../../d5/d29/classPHG4DetectorSubsystem.html#a6ce8e425ac50e6f13d44075bd6843dcf" target="_top" xlink:title="PHG4DetectorSubsystem\l::GetParams">
<polygon fill="none" stroke="#000000" points="163,-180.5 163,-212.5 307,-212.5 307,-180.5 163,-180.5"/>
<text text-anchor="start" x="171" y="-199.5" font-family="FreeSans" font-size="10.00" fill="#000000">PHG4DetectorSubsystem</text>
<text text-anchor="middle" x="235" y="-187.5" font-family="FreeSans" font-size="10.00" fill="#000000">::GetParams</text>
</a>
</g>
</g>
<!-- Node1&#45;&gt;Node2 -->
<g id="edge1" class="edge">
<title>Node1&#45;&gt;Node2</title>
<path fill="none" stroke="#191970" d="M84.716,-122.5638C104.264,-136.8176 134.4771,-157.4949 163,-171.5 166.5725,-173.2542 170.2995,-174.9412 174.0953,-176.5528"/>
<polygon fill="#191970" stroke="#191970" points="173.0404,-179.9013 183.6236,-180.3982 175.6602,-173.41 173.0404,-179.9013"/>
</g>
<!-- Node3 -->
<g id="node3" class="node">
<title>Node3</title>
<g id="a_node3"><a xlink:href="../../d5/dec/classFun4AllBase.html#a41f9ac377743d046f590617fd6f4f0ed" target="_top" xlink:title="Returns the name of this module.">
<polygon fill="none" stroke="#000000" points="177.5,-141.5 177.5,-161.5 292.5,-161.5 292.5,-141.5 177.5,-141.5"/>
<text text-anchor="middle" x="235" y="-148.5" font-family="FreeSans" font-size="10.00" fill="#000000">Fun4AllBase::Name</text>
</a>
</g>
</g>
<!-- Node1&#45;&gt;Node3 -->
<g id="edge2" class="edge">
<title>Node1&#45;&gt;Node3</title>
<path fill="none" stroke="#191970" d="M124.931,-122.6189C145.3108,-127.9664 167.6885,-133.8381 186.914,-138.8827"/>
<polygon fill="#191970" stroke="#191970" points="186.0921,-142.2854 196.653,-141.4381 187.8688,-135.5146 186.0921,-142.2854"/>
</g>
<!-- Node4 -->
<g id="node4" class="node">
<title>Node4</title>
<g id="a_node4"><a xlink:href="../../db/d76/classPHG4IHCalDetector.html#abb9551c4a1639ad29c6842fa0e6809b5" target="_top" xlink:title="PHG4IHCalDetector::\lPrint">
<polygon fill="none" stroke="#000000" points="175,-90.5 175,-122.5 295,-122.5 295,-90.5 175,-90.5"/>
<text text-anchor="start" x="183" y="-109.5" font-family="FreeSans" font-size="10.00" fill="#000000">PHG4IHCalDetector::</text>
<text text-anchor="middle" x="235" y="-97.5" font-family="FreeSans" font-size="10.00" fill="#000000">Print</text>
</a>
</g>
</g>
<!-- Node1&#45;&gt;Node4 -->
<g id="edge3" class="edge">
<title>Node1&#45;&gt;Node4</title>
<path fill="none" stroke="#191970" d="M127.3603,-106.5C139.4877,-106.5 152.2412,-106.5 164.5591,-106.5"/>
<polygon fill="#191970" stroke="#191970" points="164.7805,-110.0001 174.7804,-106.5 164.7804,-103.0001 164.7805,-110.0001"/>
</g>
<!-- Node5 -->
<g id="node5" class="node">
<title>Node5</title>
<g id="a_node5"><a xlink:href="../../dd/dae/classPHParameters.html#ae81c95e68232d03560c2fff34c253f28" target="_top" xlink:title="PHParameters::Print">
<polygon fill="none" stroke="#000000" points="176,-51.5 176,-71.5 294,-71.5 294,-51.5 176,-51.5"/>
<text text-anchor="middle" x="235" y="-58.5" font-family="FreeSans" font-size="10.00" fill="#000000">PHParameters::Print</text>
</a>
</g>
</g>
<!-- Node1&#45;&gt;Node5 -->
<g id="edge4" class="edge">
<title>Node1&#45;&gt;Node5</title>
<path fill="none" stroke="#191970" d="M124.931,-90.3811C145.3108,-85.0336 167.6885,-79.1619 186.914,-74.1173"/>
<polygon fill="#191970" stroke="#191970" points="187.8688,-77.4854 196.653,-71.5619 186.0921,-70.7146 187.8688,-77.4854"/>
</g>
<!-- Node9 -->
<g id="node9" class="node">
<title>Node9</title>
<g id="a_node9"><a xlink:href="../../df/d3f/classPHG4SteppingAction.html#ac83526c46a382846b9919dd9bc446c71" target="_top" xlink:title="PHG4SteppingAction\l::Print">
<polygon fill="none" stroke="#000000" points="174.5,-.5 174.5,-32.5 295.5,-32.5 295.5,-.5 174.5,-.5"/>
<text text-anchor="start" x="182.5" y="-19.5" font-family="FreeSans" font-size="10.00" fill="#000000">PHG4SteppingAction</text>
<text text-anchor="middle" x="235" y="-7.5" font-family="FreeSans" font-size="10.00" fill="#000000">::Print</text>
</a>
</g>
</g>
<!-- Node1&#45;&gt;Node9 -->
<g id="edge8" class="edge">
<title>Node1&#45;&gt;Node9</title>
<path fill="none" stroke="#191970" d="M85.5648,-90.2438C105.1827,-76.3024 135.0127,-56.3337 163,-42.5 167.3151,-40.3671 171.8504,-38.3173 176.4573,-36.3698"/>
<polygon fill="#191970" stroke="#191970" points="178.0092,-39.5175 185.9662,-32.522 175.3834,-33.0286 178.0092,-39.5175"/>
</g>
<!-- Node6 -->
<g id="node6" class="node">
<title>Node6</title>
<g id="a_node6"><a xlink:href="../../dd/dae/classPHParameters.html#aa577abe6503ec66413aeea569c309dcf" target="_top" xlink:title="PHParameters::printint">
<polygon fill="none" stroke="#000000" points="353,-90.5 353,-110.5 485,-110.5 485,-90.5 353,-90.5"/>
<text text-anchor="middle" x="419" y="-97.5" font-family="FreeSans" font-size="10.00" fill="#000000">PHParameters::printint</text>
</a>
</g>
</g>
<!-- Node5&#45;&gt;Node6 -->
<g id="edge5" class="edge">
<title>Node5&#45;&gt;Node6</title>
<path fill="none" stroke="#191970" d="M282.3846,-71.5435C306.6371,-76.684 336.3476,-82.9813 361.8605,-88.3889"/>
<polygon fill="#191970" stroke="#191970" points="361.2676,-91.8409 371.776,-90.4906 362.7191,-84.9931 361.2676,-91.8409"/>
</g>
<!-- Node7 -->
<g id="node7" class="node">
<title>Node7</title>
<g id="a_node7"><a xlink:href="../../dd/dae/classPHParameters.html#ad6889e0142f288e487b9918d3beb4571" target="_top" xlink:title="PHParameters::printdouble">
<polygon fill="none" stroke="#000000" points="343,-51.5 343,-71.5 495,-71.5 495,-51.5 343,-51.5"/>
<text text-anchor="middle" x="419" y="-58.5" font-family="FreeSans" font-size="10.00" fill="#000000">PHParameters::printdouble</text>
</a>
</g>
</g>
<!-- Node5&#45;&gt;Node7 -->
<g id="edge6" class="edge">
<title>Node5&#45;&gt;Node7</title>
<path fill="none" stroke="#191970" d="M294.2316,-61.5C306.4173,-61.5 319.4854,-61.5 332.4105,-61.5"/>
<polygon fill="#191970" stroke="#191970" points="332.726,-65.0001 342.726,-61.5 332.7259,-58.0001 332.726,-65.0001"/>
</g>
<!-- Node8 -->
<g id="node8" class="node">
<title>Node8</title>
<g id="a_node8"><a xlink:href="../../dd/dae/classPHParameters.html#a86dcbb8d4a2a23662960c53827a92d00" target="_top" xlink:title="PHParameters::printstring">
<polygon fill="none" stroke="#000000" points="346,-12.5 346,-32.5 492,-32.5 492,-12.5 346,-12.5"/>
<text text-anchor="middle" x="419" y="-19.5" font-family="FreeSans" font-size="10.00" fill="#000000">PHParameters::printstring</text>
</a>
</g>
</g>
<!-- Node5&#45;&gt;Node8 -->
<g id="edge7" class="edge">
<title>Node5&#45;&gt;Node8</title>
<path fill="none" stroke="#191970" d="M282.3846,-51.4565C306.6371,-46.316 336.3476,-40.0187 361.8605,-34.6111"/>
<polygon fill="#191970" stroke="#191970" points="362.7191,-38.0069 371.776,-32.5094 361.2676,-31.1591 362.7191,-38.0069"/>
</g>
</g>
</svg>
