<?xml version="1.0" encoding="UTF-8" standalone="no"?>
<!DOCTYPE svg PUBLIC "-//W3C//DTD SVG 1.1//EN"
 "http://www.w3.org/Graphics/SVG/1.1/DTD/svg11.dtd">
<!-- Generated by graphviz version 2.40.1 (20161225.0304)
 -->
<!-- Title: ActsExamples::TrackFindingAlgorithmExaTrkX::TrackFindingAlgorithmExaTrkX Pages: 1 -->
<svg width="591pt" height="143pt"
 viewBox="0.00 0.00 591.00 143.00" xmlns="http://www.w3.org/2000/svg" xmlns:xlink="http://www.w3.org/1999/xlink">
<g id="graph0" class="graph" transform="scale(1 1) rotate(0) translate(4 139)">
<title>ActsExamples::TrackFindingAlgorithmExaTrkX::TrackFindingAlgorithmExaTrkX</title>
<!-- Node1 -->
<g id="node1" class="node">
<title>Node1</title>
<polygon fill="#bfbfbf" stroke="#000000" points="0,-45.5 0,-89.5 176,-89.5 176,-45.5 0,-45.5"/>
<text text-anchor="start" x="8" y="-76.5" font-family="FreeSans" font-size="10.00" fill="#000000">ActsExamples::TrackFinding</text>
<text text-anchor="start" x="8" y="-64.5" font-family="FreeSans" font-size="10.00" fill="#000000">AlgorithmExaTrkX::TrackFinding</text>
<text text-anchor="middle" x="88" y="-52.5" font-family="FreeSans" font-size="10.00" fill="#000000">AlgorithmExaTrkX</text>
</g>
<!-- Node2 -->
<g id="node2" class="node">
<title>Node2</title>
<g id="a_node2"><a xlink:href="../../d5/d32/exceptionActsExamples_1_1WriteDataHandle.html#a2eab47bc7757731dd4f37ee768281a36" target="_top" xlink:title="ActsExamples::WriteDataHandle\l::initialize">
<polygon fill="none" stroke="#000000" points="212,-102.5 212,-134.5 393,-134.5 393,-102.5 212,-102.5"/>
<text text-anchor="start" x="220" y="-121.5" font-family="FreeSans" font-size="10.00" fill="#000000">ActsExamples::WriteDataHandle</text>
<text text-anchor="middle" x="302.5" y="-109.5" font-family="FreeSans" font-size="10.00" fill="#000000">::initialize</text>
</a>
</g>
</g>
<!-- Node1&#45;&gt;Node2 -->
<g id="edge1" class="edge">
<title>Node1&#45;&gt;Node2</title>
<path fill="none" stroke="#191970" d="M176.1739,-88.4644C192.4413,-92.3322 209.3137,-96.3438 225.2285,-100.1278"/>
<polygon fill="#191970" stroke="#191970" points="224.4616,-103.5429 235,-102.451 226.0808,-96.7328 224.4616,-103.5429"/>
</g>
<!-- Node3 -->
<g id="node3" class="node">
<title>Node3</title>
<g id="a_node3"><a xlink:href="../../d2/db1/exceptionActsExamples_1_1ReadDataHandle.html#a35b9685cb09ffd75ff6d1a5d23dfc3b5" target="_top" xlink:title="ActsExamples::ReadDataHandle\l::initialize">
<polygon fill="none" stroke="#000000" points="212.5,-51.5 212.5,-83.5 392.5,-83.5 392.5,-51.5 212.5,-51.5"/>
<text text-anchor="start" x="220.5" y="-70.5" font-family="FreeSans" font-size="10.00" fill="#000000">ActsExamples::ReadDataHandle</text>
<text text-anchor="middle" x="302.5" y="-58.5" font-family="FreeSans" font-size="10.00" fill="#000000">::initialize</text>
</a>
</g>
</g>
<!-- Node1&#45;&gt;Node3 -->
<g id="edge2" class="edge">
<title>Node1&#45;&gt;Node3</title>
<path fill="none" stroke="#191970" d="M176.1739,-67.5C184.7283,-67.5 193.45,-67.5 202.1117,-67.5"/>
<polygon fill="#191970" stroke="#191970" points="202.2388,-71.0001 212.2387,-67.5 202.2387,-64.0001 202.2388,-71.0001"/>
</g>
<!-- Node4 -->
<g id="node4" class="node">
<title>Node4</title>
<g id="a_node4"><a xlink:href="../../d6/da8/classActsExamples_1_1DataHandleBase.html#a387380ce935fd1c9a9c7e6d23857ba85" target="_top" xlink:title="ActsExamples::DataHandle\lBase::maybeInitialize">
<polygon fill="none" stroke="#000000" points="225.5,-.5 225.5,-32.5 379.5,-32.5 379.5,-.5 225.5,-.5"/>
<text text-anchor="start" x="233.5" y="-19.5" font-family="FreeSans" font-size="10.00" fill="#000000">ActsExamples::DataHandle</text>
<text text-anchor="middle" x="302.5" y="-7.5" font-family="FreeSans" font-size="10.00" fill="#000000">Base::maybeInitialize</text>
</a>
</g>
</g>
<!-- Node1&#45;&gt;Node4 -->
<g id="edge3" class="edge">
<title>Node1&#45;&gt;Node4</title>
<path fill="none" stroke="#191970" d="M176.1739,-46.5356C192.4413,-42.6678 209.3137,-38.6562 225.2285,-34.8722"/>
<polygon fill="#191970" stroke="#191970" points="226.0808,-38.2672 235,-32.549 224.4616,-31.4571 226.0808,-38.2672"/>
</g>
<!-- Node5 -->
<g id="node5" class="node">
<title>Node5</title>
<g id="a_node5"><a xlink:href="../../d6/da8/classActsExamples_1_1DataHandleBase.html#a6e67b8699a8fcd169900dd7b382132ea" target="_top" xlink:title="ActsExamples::DataHandle\lBase::key">
<polygon fill="none" stroke="#000000" points="429,-.5 429,-32.5 583,-32.5 583,-.5 429,-.5"/>
<text text-anchor="start" x="437" y="-19.5" font-family="FreeSans" font-size="10.00" fill="#000000">ActsExamples::DataHandle</text>
<text text-anchor="middle" x="506" y="-7.5" font-family="FreeSans" font-size="10.00" fill="#000000">Base::key</text>
</a>
</g>
</g>
<!-- Node4&#45;&gt;Node5 -->
<g id="edge4" class="edge">
<title>Node4&#45;&gt;Node5</title>
<path fill="none" stroke="#191970" d="M379.7248,-16.5C392.4119,-16.5 405.64,-16.5 418.5544,-16.5"/>
<polygon fill="#191970" stroke="#191970" points="418.828,-20.0001 428.8279,-16.5 418.8279,-13.0001 418.828,-20.0001"/>
</g>
</g>
</svg>
