<?xml version="1.0" encoding="UTF-8" standalone="no"?>
<!DOCTYPE svg PUBLIC "-//W3C//DTD SVG 1.1//EN"
 "http://www.w3.org/Graphics/SVG/1.1/DTD/svg11.dtd">
<!-- Generated by graphviz version 2.40.1 (20161225.0304)
 -->
<!-- Title: acts/blob/sPHENIX/Examples/Scripts/TrackingPerformance/boundParamResolution.C Pages: 1 -->
<svg width="1316pt" height="167pt"
 viewBox="0.00 0.00 1315.50 167.00" xmlns="http://www.w3.org/2000/svg" xmlns:xlink="http://www.w3.org/1999/xlink">
<g id="graph0" class="graph" transform="scale(1 1) rotate(0) translate(4 163)">
<title>acts/blob/sPHENIX/Examples/Scripts/TrackingPerformance/boundParamResolution.C</title>
<!-- Node1 -->
<g id="node1" class="node">
<title>Node1</title>
<polygon fill="#bfbfbf" stroke="#000000" points="504,-114.5 504,-158.5 669,-158.5 669,-114.5 504,-114.5"/>
<text text-anchor="start" x="512" y="-145.5" font-family="FreeSans" font-size="10.00" fill="#000000">acts/blob/sPHENIX/Examples</text>
<text text-anchor="start" x="512" y="-133.5" font-family="FreeSans" font-size="10.00" fill="#000000">/Scripts/TrackingPerformance</text>
<text text-anchor="middle" x="586.5" y="-121.5" font-family="FreeSans" font-size="10.00" fill="#000000">/boundParamResolution.C</text>
</g>
<!-- Node2 -->
<g id="node2" class="node">
<title>Node2</title>
<polygon fill="none" stroke="#bfbfbf" points="0,-.5 0,-20.5 43,-20.5 43,-.5 0,-.5"/>
<text text-anchor="middle" x="21.5" y="-7.5" font-family="FreeSans" font-size="10.00" fill="#000000">array</text>
</g>
<!-- Node1&#45;&gt;Node2 -->
<g id="edge1" class="edge">
<title>Node1&#45;&gt;Node2</title>
<path fill="none" stroke="#191970" d="M503.7487,-130.1841C391.2955,-120.8702 196.5433,-101.939 129.5,-78 96.1568,-66.0942 62.2717,-42.6739 41.5677,-26.8014"/>
<polygon fill="#191970" stroke="#191970" points="43.5728,-23.9261 33.5415,-20.5166 39.2571,-29.4375 43.5728,-23.9261"/>
</g>
<!-- Node3 -->
<g id="node3" class="node">
<title>Node3</title>
<polygon fill="none" stroke="#bfbfbf" points="421.5,-57.5 421.5,-77.5 481.5,-77.5 481.5,-57.5 421.5,-57.5"/>
<text text-anchor="middle" x="451.5" y="-64.5" font-family="FreeSans" font-size="10.00" fill="#000000">iostream</text>
</g>
<!-- Node1&#45;&gt;Node3 -->
<g id="edge2" class="edge">
<title>Node1&#45;&gt;Node3</title>
<path fill="none" stroke="#191970" d="M543.414,-114.4783C522.7807,-103.9323 498.6299,-91.5886 480.2632,-82.2012"/>
<polygon fill="#191970" stroke="#191970" points="481.7324,-79.0215 471.2352,-77.5869 478.5466,-85.2546 481.7324,-79.0215"/>
</g>
<!-- Node4 -->
<g id="node4" class="node">
<title>Node4</title>
<polygon fill="none" stroke="#bfbfbf" points="500,-57.5 500,-77.5 539,-77.5 539,-57.5 500,-57.5"/>
<text text-anchor="middle" x="519.5" y="-64.5" font-family="FreeSans" font-size="10.00" fill="#000000">map</text>
</g>
<!-- Node1&#45;&gt;Node4 -->
<g id="edge3" class="edge">
<title>Node1&#45;&gt;Node4</title>
<path fill="none" stroke="#191970" d="M564.932,-114.2882C555.7007,-104.7813 545.079,-93.8426 536.4281,-84.9334"/>
<polygon fill="#191970" stroke="#191970" points="538.895,-82.4498 529.4176,-77.7137 533.873,-87.3262 538.895,-82.4498"/>
</g>
<!-- Node5 -->
<g id="node5" class="node">
<title>Node5</title>
<polygon fill="none" stroke="#bfbfbf" points="61,-.5 61,-20.5 106,-20.5 106,-.5 61,-.5"/>
<text text-anchor="middle" x="83.5" y="-7.5" font-family="FreeSans" font-size="10.00" fill="#000000">string</text>
</g>
<!-- Node1&#45;&gt;Node5 -->
<g id="edge4" class="edge">
<title>Node1&#45;&gt;Node5</title>
<path fill="none" stroke="#191970" d="M503.8189,-130.4586C398.6577,-121.8456 223.6083,-104.1302 164.5,-78 138.4095,-66.4661 114.0682,-43.9617 99.0146,-28.1171"/>
<polygon fill="#191970" stroke="#191970" points="101.3779,-25.5167 92.029,-20.5318 96.2288,-30.2587 101.3779,-25.5167"/>
</g>
<!-- Node6 -->
<g id="node6" class="node">
<title>Node6</title>
<polygon fill="none" stroke="#bfbfbf" points="124,-.5 124,-20.5 173,-20.5 173,-.5 124,-.5"/>
<text text-anchor="middle" x="148.5" y="-7.5" font-family="FreeSans" font-size="10.00" fill="#000000">vector</text>
</g>
<!-- Node1&#45;&gt;Node6 -->
<g id="edge5" class="edge">
<title>Node1&#45;&gt;Node6</title>
<path fill="none" stroke="#191970" d="M503.8474,-132.9005C402.1029,-127.0388 236.621,-112.4102 186.5,-78 170.1054,-66.7444 159.9718,-45.9698 154.3364,-30.4288"/>
<polygon fill="#191970" stroke="#191970" points="157.5814,-29.0926 151.1318,-20.6871 150.9319,-31.28 157.5814,-29.0926"/>
</g>
<!-- Node7 -->
<g id="node7" class="node">
<title>Node7</title>
<polygon fill="none" stroke="#bfbfbf" points="290,-.5 290,-20.5 359,-20.5 359,-.5 290,-.5"/>
<text text-anchor="middle" x="324.5" y="-7.5" font-family="FreeSans" font-size="10.00" fill="#000000">TCanvas.h</text>
</g>
<!-- Node1&#45;&gt;Node7 -->
<g id="edge6" class="edge">
<title>Node1&#45;&gt;Node7</title>
<path fill="none" stroke="#191970" d="M503.5565,-120.6292C468.0397,-111.5424 427.0966,-97.882 393.5,-78 371.7996,-65.158 351.7713,-44.0929 338.9463,-28.9078"/>
<polygon fill="#191970" stroke="#191970" points="341.3126,-26.2731 332.2694,-20.7531 335.8965,-30.7078 341.3126,-26.2731"/>
</g>
<!-- Node8 -->
<g id="node8" class="node">
<title>Node8</title>
<polygon fill="none" stroke="#bfbfbf" points="517,-.5 517,-20.5 574,-20.5 574,-.5 517,-.5"/>
<text text-anchor="middle" x="545.5" y="-7.5" font-family="FreeSans" font-size="10.00" fill="#000000">TColor.h</text>
</g>
<!-- Node1&#45;&gt;Node8 -->
<g id="edge7" class="edge">
<title>Node1&#45;&gt;Node8</title>
<path fill="none" stroke="#191970" d="M579.2644,-114.2638C571.5245,-90.4778 559.3638,-53.1058 551.9431,-30.3007"/>
<polygon fill="#191970" stroke="#191970" points="555.233,-29.0998 548.8105,-20.6736 548.5766,-31.2659 555.233,-29.0998"/>
</g>
<!-- Node9 -->
<g id="node9" class="node">
<title>Node9</title>
<polygon fill="none" stroke="#bfbfbf" points="592,-.5 592,-20.5 669,-20.5 669,-.5 592,-.5"/>
<text text-anchor="middle" x="630.5" y="-7.5" font-family="FreeSans" font-size="10.00" fill="#000000">TDirectory.h</text>
</g>
<!-- Node1&#45;&gt;Node9 -->
<g id="edge8" class="edge">
<title>Node1&#45;&gt;Node9</title>
<path fill="none" stroke="#191970" d="M594.265,-114.2638C602.5712,-90.4778 615.6218,-53.1058 623.5855,-30.3007"/>
<polygon fill="#191970" stroke="#191970" points="626.9547,-31.2685 626.9473,-20.6736 620.3461,-28.9606 626.9547,-31.2685"/>
</g>
<!-- Node10 -->
<g id="node10" class="node">
<title>Node10</title>
<polygon fill="none" stroke="#bfbfbf" points="782.5,-57.5 782.5,-77.5 838.5,-77.5 838.5,-57.5 782.5,-57.5"/>
<text text-anchor="middle" x="810.5" y="-64.5" font-family="FreeSans" font-size="10.00" fill="#000000">TError.h</text>
</g>
<!-- Node1&#45;&gt;Node10 -->
<g id="edge9" class="edge">
<title>Node1&#45;&gt;Node10</title>
<path fill="none" stroke="#191970" d="M657.9909,-114.4783C696.117,-102.734 741.4812,-88.7603 772.7683,-79.1227"/>
<polygon fill="#191970" stroke="#191970" points="773.8783,-82.4432 782.4048,-76.1543 771.8176,-75.7533 773.8783,-82.4432"/>
</g>
<!-- Node11 -->
<g id="node11" class="node">
<title>Node11</title>
<polygon fill="none" stroke="#bfbfbf" points="857,-57.5 857,-77.5 902,-77.5 902,-57.5 857,-57.5"/>
<text text-anchor="middle" x="879.5" y="-64.5" font-family="FreeSans" font-size="10.00" fill="#000000">TF1.h</text>
</g>
<!-- Node1&#45;&gt;Node11 -->
<g id="edge10" class="edge">
<title>Node1&#45;&gt;Node11</title>
<path fill="none" stroke="#191970" d="M669.2898,-120.0776C718.3411,-109.8472 781.8461,-95.7363 846.8376,-77.991"/>
<polygon fill="#191970" stroke="#191970" points="848.1462,-81.2609 856.8566,-75.2294 846.286,-74.5126 848.1462,-81.2609"/>
</g>
<!-- Node12 -->
<g id="node12" class="node">
<title>Node12</title>
<polygon fill="none" stroke="#bfbfbf" points="377.5,-.5 377.5,-20.5 427.5,-20.5 427.5,-.5 377.5,-.5"/>
<text text-anchor="middle" x="402.5" y="-7.5" font-family="FreeSans" font-size="10.00" fill="#000000">TFile.h</text>
</g>
<!-- Node1&#45;&gt;Node12 -->
<g id="edge11" class="edge">
<title>Node1&#45;&gt;Node12</title>
<path fill="none" stroke="#191970" d="M503.5853,-119.6165C461.7033,-109.2594 417.1156,-94.7786 404.5,-78 394.5062,-64.7084 394.973,-45.4233 397.3767,-30.867"/>
<polygon fill="#191970" stroke="#191970" points="400.8535,-31.3367 399.4511,-20.8351 393.9985,-29.9192 400.8535,-31.3367"/>
</g>
<!-- Node13 -->
<g id="node13" class="node">
<title>Node13</title>
<polygon fill="none" stroke="#bfbfbf" points="687,-.5 687,-20.5 738,-20.5 738,-.5 687,-.5"/>
<text text-anchor="middle" x="712.5" y="-7.5" font-family="FreeSans" font-size="10.00" fill="#000000">TH1F.h</text>
</g>
<!-- Node1&#45;&gt;Node13 -->
<g id="edge12" class="edge">
<title>Node1&#45;&gt;Node13</title>
<path fill="none" stroke="#191970" d="M607.4982,-114.3233C622.842,-98.2408 644.2452,-76.0595 663.5,-57 673.4277,-47.173 684.7246,-36.4243 693.9676,-27.7388"/>
<polygon fill="#191970" stroke="#191970" points="696.5657,-30.101 701.4753,-20.7123 691.7825,-24.9901 696.5657,-30.101"/>
</g>
<!-- Node14 -->
<g id="node14" class="node">
<title>Node14</title>
<polygon fill="none" stroke="#bfbfbf" points="920,-57.5 920,-77.5 971,-77.5 971,-57.5 920,-57.5"/>
<text text-anchor="middle" x="945.5" y="-64.5" font-family="FreeSans" font-size="10.00" fill="#000000">TH2F.h</text>
</g>
<!-- Node1&#45;&gt;Node14 -->
<g id="edge13" class="edge">
<title>Node1&#45;&gt;Node14</title>
<path fill="none" stroke="#191970" d="M669.2251,-124.4518C732.8697,-114.5262 823.0928,-99.0367 910.1922,-78.1226"/>
<polygon fill="#191970" stroke="#191970" points="911.0811,-81.5086 919.9729,-75.7477 909.4294,-74.7062 911.0811,-81.5086"/>
</g>
<!-- Node15 -->
<g id="node15" class="node">
<title>Node15</title>
<polygon fill="none" stroke="#bfbfbf" points="989.5,-57.5 989.5,-77.5 1059.5,-77.5 1059.5,-57.5 989.5,-57.5"/>
<text text-anchor="middle" x="1024.5" y="-64.5" font-family="FreeSans" font-size="10.00" fill="#000000">TLegend.h</text>
</g>
<!-- Node1&#45;&gt;Node15 -->
<g id="edge14" class="edge">
<title>Node1&#45;&gt;Node15</title>
<path fill="none" stroke="#191970" d="M669.1073,-126.3578C746.8087,-116.3323 866.5463,-99.637 979.6258,-78.0437"/>
<polygon fill="#191970" stroke="#191970" points="980.3373,-81.4711 989.495,-76.1432 979.0136,-74.5974 980.3373,-81.4711"/>
</g>
<!-- Node16 -->
<g id="node16" class="node">
<title>Node16</title>
<polygon fill="none" stroke="#bfbfbf" points="1077.5,-57.5 1077.5,-77.5 1135.5,-77.5 1135.5,-57.5 1077.5,-57.5"/>
<text text-anchor="middle" x="1106.5" y="-64.5" font-family="FreeSans" font-size="10.00" fill="#000000">TMath.h</text>
</g>
<!-- Node1&#45;&gt;Node16 -->
<g id="edge15" class="edge">
<title>Node1&#45;&gt;Node16</title>
<path fill="none" stroke="#191970" d="M669.3915,-130.2145C763.7292,-122.211 922.4528,-106.1665 1067.191,-78.0344"/>
<polygon fill="#191970" stroke="#191970" points="1068.0086,-81.4408 1077.1448,-76.0761 1066.6572,-74.5724 1068.0086,-81.4408"/>
</g>
<!-- Node17 -->
<g id="node17" class="node">
<title>Node17</title>
<polygon fill="none" stroke="#bfbfbf" points="1153.5,-57.5 1153.5,-77.5 1231.5,-77.5 1231.5,-57.5 1153.5,-57.5"/>
<text text-anchor="middle" x="1192.5" y="-64.5" font-family="FreeSans" font-size="10.00" fill="#000000">TProfile2D.h</text>
</g>
<!-- Node1&#45;&gt;Node17 -->
<g id="edge16" class="edge">
<title>Node1&#45;&gt;Node17</title>
<path fill="none" stroke="#191970" d="M669.1325,-130.7169C776.3092,-122.5716 969.1748,-105.7218 1143.1643,-78.0741"/>
<polygon fill="#191970" stroke="#191970" points="1143.9558,-81.4919 1153.2749,-76.4517 1142.8467,-74.5803 1143.9558,-81.4919"/>
</g>
<!-- Node18 -->
<g id="node18" class="node">
<title>Node18</title>
<polygon fill="none" stroke="#bfbfbf" points="1249.5,-57.5 1249.5,-77.5 1307.5,-77.5 1307.5,-57.5 1249.5,-57.5"/>
<text text-anchor="middle" x="1278.5" y="-64.5" font-family="FreeSans" font-size="10.00" fill="#000000">TStyle.h</text>
</g>
<!-- Node1&#45;&gt;Node18 -->
<g id="edge17" class="edge">
<title>Node1&#45;&gt;Node18</title>
<path fill="none" stroke="#191970" d="M669.2165,-133.8799C791.9933,-128.9337 1029.6272,-115.3034 1239.2044,-77.9655"/>
<polygon fill="#191970" stroke="#191970" points="1239.9425,-81.3889 1249.1625,-76.1695 1238.7001,-74.5001 1239.9425,-81.3889"/>
</g>
<!-- Node19 -->
<g id="node19" class="node">
<title>Node19</title>
<polygon fill="none" stroke="#bfbfbf" points="446,-.5 446,-20.5 499,-20.5 499,-.5 446,-.5"/>
<text text-anchor="middle" x="472.5" y="-7.5" font-family="FreeSans" font-size="10.00" fill="#000000">TTree.h</text>
</g>
<!-- Node1&#45;&gt;Node19 -->
<g id="edge18" class="edge">
<title>Node1&#45;&gt;Node19</title>
<path fill="none" stroke="#191970" d="M503.6682,-118.4241C464.5546,-108.0416 423.9398,-93.9151 412.5,-78 398.7462,-58.8656 421.8215,-38.9332 443.223,-25.7348"/>
<polygon fill="#191970" stroke="#191970" points="445.0031,-28.7484 451.8729,-20.6826 441.4727,-22.7038 445.0031,-28.7484"/>
</g>
<!-- Node20 -->
<g id="node20" class="node">
<title>Node20</title>
<g id="a_node20"><a xlink:href="../../d5/def/CommonUtils_8h.html" target="_top" xlink:title="CommonUtils.h">
<polygon fill="none" stroke="#000000" points="672,-57.5 672,-77.5 765,-77.5 765,-57.5 672,-57.5"/>
<text text-anchor="middle" x="718.5" y="-64.5" font-family="FreeSans" font-size="10.00" fill="#000000">CommonUtils.h</text>
</a>
</g>
</g>
<!-- Node1&#45;&gt;Node20 -->
<g id="edge19" class="edge">
<title>Node1&#45;&gt;Node20</title>
<path fill="none" stroke="#191970" d="M628.6285,-114.4783C648.6182,-104.0291 671.9844,-91.815 689.8802,-82.4603"/>
<polygon fill="#191970" stroke="#191970" points="691.9625,-85.3212 699.2034,-77.5869 688.7197,-79.1177 691.9625,-85.3212"/>
</g>
<!-- Node24 -->
<g id="node24" class="node">
<title>Node24</title>
<g id="a_node24"><a xlink:href="../../d1/dd7/TreeReader_8h.html" target="_top" xlink:title="TreeReader.h">
<polygon fill="none" stroke="#000000" points="195.5,-57.5 195.5,-77.5 277.5,-77.5 277.5,-57.5 195.5,-57.5"/>
<text text-anchor="middle" x="236.5" y="-64.5" font-family="FreeSans" font-size="10.00" fill="#000000">TreeReader.h</text>
</a>
</g>
</g>
<!-- Node1&#45;&gt;Node24 -->
<g id="edge26" class="edge">
<title>Node1&#45;&gt;Node24</title>
<path fill="none" stroke="#191970" d="M503.9981,-120.2353C436.8882,-107.0051 344.3102,-88.754 287.5277,-77.5598"/>
<polygon fill="#191970" stroke="#191970" points="288.1884,-74.1227 277.7002,-75.6223 286.8344,-80.9905 288.1884,-74.1227"/>
</g>
<!-- Node20&#45;&gt;Node8 -->
<g id="edge22" class="edge">
<title>Node20&#45;&gt;Node8</title>
<path fill="none" stroke="#191970" d="M687.9693,-57.4408C658.9097,-47.8662 615.081,-33.4255 583.7151,-23.0911"/>
<polygon fill="#191970" stroke="#191970" points="584.5969,-19.6966 574.0038,-19.8914 582.4063,-26.345 584.5969,-19.6966"/>
</g>
<!-- Node20&#45;&gt;Node9 -->
<g id="edge23" class="edge">
<title>Node20&#45;&gt;Node9</title>
<path fill="none" stroke="#191970" d="M702.7674,-57.3095C689.3776,-48.6366 669.9312,-36.0407 654.5829,-26.0992"/>
<polygon fill="#191970" stroke="#191970" points="656.3924,-23.1011 646.0964,-20.6022 652.5868,-28.9764 656.3924,-23.1011"/>
</g>
<!-- Node20&#45;&gt;Node13 -->
<g id="edge24" class="edge">
<title>Node20&#45;&gt;Node13</title>
<path fill="none" stroke="#191970" d="M717.4273,-57.3095C716.6509,-49.9335 715.5758,-39.72 714.6279,-30.715"/>
<polygon fill="#191970" stroke="#191970" points="718.0911,-30.1809 713.5634,-20.6022 711.1296,-30.9137 718.0911,-30.1809"/>
</g>
<!-- Node21 -->
<g id="node21" class="node">
<title>Node21</title>
<polygon fill="none" stroke="#bfbfbf" points="756.5,-.5 756.5,-20.5 822.5,-20.5 822.5,-.5 756.5,-.5"/>
<text text-anchor="middle" x="789.5" y="-7.5" font-family="FreeSans" font-size="10.00" fill="#000000">functional</text>
</g>
<!-- Node20&#45;&gt;Node21 -->
<g id="edge20" class="edge">
<title>Node20&#45;&gt;Node21</title>
<path fill="none" stroke="#191970" d="M731.1934,-57.3095C741.6936,-48.8798 756.8102,-36.7439 769.0202,-26.9415"/>
<polygon fill="#191970" stroke="#191970" points="771.3097,-29.5919 776.9165,-20.6022 766.9274,-24.1333 771.3097,-29.5919"/>
</g>
<!-- Node22 -->
<g id="node22" class="node">
<title>Node22</title>
<polygon fill="none" stroke="#bfbfbf" points="840.5,-.5 840.5,-20.5 884.5,-20.5 884.5,-.5 840.5,-.5"/>
<text text-anchor="middle" x="862.5" y="-7.5" font-family="FreeSans" font-size="10.00" fill="#000000">limits</text>
</g>
<!-- Node20&#45;&gt;Node22 -->
<g id="edge21" class="edge">
<title>Node20&#45;&gt;Node22</title>
<path fill="none" stroke="#191970" d="M743.9128,-57.4408C768.1119,-47.862 804.6152,-33.4127 830.7256,-23.0774"/>
<polygon fill="#191970" stroke="#191970" points="832.1666,-26.2713 840.1765,-19.3364 829.5902,-19.7626 832.1666,-26.2713"/>
</g>
<!-- Node23 -->
<g id="node23" class="node">
<title>Node23</title>
<polygon fill="none" stroke="#bfbfbf" points="903,-.5 903,-20.5 966,-20.5 966,-.5 903,-.5"/>
<text text-anchor="middle" x="934.5" y="-7.5" font-family="FreeSans" font-size="10.00" fill="#000000">TString.h</text>
</g>
<!-- Node20&#45;&gt;Node23 -->
<g id="edge25" class="edge">
<title>Node20&#45;&gt;Node23</title>
<path fill="none" stroke="#191970" d="M756.6193,-57.4408C794.8341,-47.3563 853.5055,-31.8735 892.9059,-21.4762"/>
<polygon fill="#191970" stroke="#191970" points="893.955,-24.8193 902.7309,-18.8835 892.1689,-18.051 893.955,-24.8193"/>
</g>
<!-- Node24&#45;&gt;Node2 -->
<g id="edge27" class="edge">
<title>Node24&#45;&gt;Node2</title>
<path fill="none" stroke="#191970" d="M195.4273,-58.3008C159.8789,-50.0886 106.9291,-37.2598 52.8108,-21.2277"/>
<polygon fill="#191970" stroke="#191970" points="53.6375,-17.8217 43.0537,-18.3055 51.6291,-24.5274 53.6375,-17.8217"/>
</g>
<!-- Node24&#45;&gt;Node5 -->
<g id="edge28" class="edge">
<title>Node24&#45;&gt;Node5</title>
<path fill="none" stroke="#191970" d="M209.4989,-57.4408C183.3685,-47.7059 143.7353,-32.9406 115.9133,-22.5755"/>
<polygon fill="#191970" stroke="#191970" points="116.837,-19.1847 106.2443,-18.9734 114.3932,-25.7443 116.837,-19.1847"/>
</g>
<!-- Node24&#45;&gt;Node6 -->
<g id="edge29" class="edge">
<title>Node24&#45;&gt;Node6</title>
<path fill="none" stroke="#191970" d="M220.7674,-57.3095C207.3776,-48.6366 187.9312,-36.0407 172.5829,-26.0992"/>
<polygon fill="#191970" stroke="#191970" points="174.3924,-23.1011 164.0964,-20.6022 170.5868,-28.9764 174.3924,-23.1011"/>
</g>
<!-- Node24&#45;&gt;Node7 -->
<g id="edge30" class="edge">
<title>Node24&#45;&gt;Node7</title>
<path fill="none" stroke="#191970" d="M252.2326,-57.3095C265.6224,-48.6366 285.0688,-36.0407 300.4171,-26.0992"/>
<polygon fill="#191970" stroke="#191970" points="302.4132,-28.9764 308.9036,-20.6022 298.6076,-23.1011 302.4132,-28.9764"/>
</g>
<!-- Node24&#45;&gt;Node12 -->
<g id="edge32" class="edge">
<title>Node24&#45;&gt;Node12</title>
<path fill="none" stroke="#191970" d="M265.7954,-57.4408C294.2274,-47.6779 337.3938,-32.8557 367.5925,-22.4863"/>
<polygon fill="#191970" stroke="#191970" points="368.9754,-25.7121 377.2966,-19.1542 366.702,-19.0916 368.9754,-25.7121"/>
</g>
<!-- Node24&#45;&gt;Node19 -->
<g id="edge33" class="edge">
<title>Node24&#45;&gt;Node19</title>
<path fill="none" stroke="#191970" d="M277.6485,-58.6315C316.1386,-50.1802 375.4363,-36.7634 436.0696,-21.011"/>
<polygon fill="#191970" stroke="#191970" points="437.0207,-24.3801 445.8094,-18.4632 435.2491,-17.6079 437.0207,-24.3801"/>
</g>
<!-- Node25 -->
<g id="node25" class="node">
<title>Node25</title>
<polygon fill="none" stroke="#bfbfbf" points="191.5,-.5 191.5,-20.5 271.5,-20.5 271.5,-.5 191.5,-.5"/>
<text text-anchor="middle" x="231.5" y="-7.5" font-family="FreeSans" font-size="10.00" fill="#000000">TEfficiency.h</text>
</g>
<!-- Node24&#45;&gt;Node25 -->
<g id="edge31" class="edge">
<title>Node24&#45;&gt;Node25</title>
<path fill="none" stroke="#191970" d="M235.6061,-57.3095C234.9591,-49.9335 234.0632,-39.72 233.2732,-30.715"/>
<polygon fill="#191970" stroke="#191970" points="236.7467,-30.2581 232.3862,-20.6022 229.7735,-30.8699 236.7467,-30.2581"/>
</g>
</g>
</svg>
