<?xml version="1.0" encoding="UTF-8" standalone="no"?>
<!DOCTYPE svg PUBLIC "-//W3C//DTD SVG 1.1//EN"
 "http://www.w3.org/Graphics/SVG/1.1/DTD/svg11.dtd">
<!-- Generated by graphviz version 2.40.1 (20161225.0304)
 -->
<!-- Title: JETSCAPE/blob/master/src/framework/JetScape.cc Pages: 1 -->
<svg width="2294pt" height="554pt"
 viewBox="0.00 0.00 2294.00 554.00" xmlns="http://www.w3.org/2000/svg" xmlns:xlink="http://www.w3.org/1999/xlink">
<g id="graph0" class="graph" transform="scale(1 1) rotate(0) translate(4 550)">
<title>JETSCAPE/blob/master/src/framework/JetScape.cc</title>
<!-- Node1 -->
<g id="node1" class="node">
<title>Node1</title>
<polygon fill="#bfbfbf" stroke="#000000" points="447,-513.5 447,-545.5 601,-545.5 601,-513.5 447,-513.5"/>
<text text-anchor="start" x="455" y="-532.5" font-family="FreeSans" font-size="10.00" fill="#000000">JETSCAPE/blob/master</text>
<text text-anchor="middle" x="524" y="-520.5" font-family="FreeSans" font-size="10.00" fill="#000000">/src/framework/JetScape.cc</text>
</g>
<!-- Node2 -->
<g id="node2" class="node">
<title>Node2</title>
<g id="a_node2"><a xlink:href="../../df/d18/JetScape_8h.html" target="_top" xlink:title="JetScape.h">
<polygon fill="none" stroke="#000000" points="815,-456.5 815,-476.5 885,-476.5 885,-456.5 815,-456.5"/>
<text text-anchor="middle" x="850" y="-463.5" font-family="FreeSans" font-size="10.00" fill="#000000">JetScape.h</text>
</a>
</g>
</g>
<!-- Node1&#45;&gt;Node2 -->
<g id="edge1" class="edge">
<title>Node1&#45;&gt;Node2</title>
<path fill="none" stroke="#191970" d="M601.2574,-514.5699C664.6276,-502.3235 752.1686,-485.4061 804.7205,-475.2503"/>
<polygon fill="#191970" stroke="#191970" points="805.5926,-478.6466 814.7468,-473.3127 804.2643,-471.7738 805.5926,-478.6466"/>
</g>
<!-- Node4 -->
<g id="node4" class="node">
<title>Node4</title>
<polygon fill="none" stroke="#bfbfbf" points="732,-57.5 732,-77.5 792,-77.5 792,-57.5 732,-57.5"/>
<text text-anchor="middle" x="762" y="-64.5" font-family="FreeSans" font-size="10.00" fill="#000000">iostream</text>
</g>
<!-- Node1&#45;&gt;Node4 -->
<g id="edge132" class="edge">
<title>Node1&#45;&gt;Node4</title>
<path fill="none" stroke="#191970" d="M521.0559,-513.3577C515.6619,-478.7928 507.7511,-396.3542 543,-342 588.1721,-272.3442 652.9925,-313.7122 705,-249 744.2058,-200.2168 756.6014,-124.2085 760.3959,-88.0077"/>
<polygon fill="#191970" stroke="#191970" points="763.9099,-88.0185 761.3488,-77.7379 756.9398,-87.3718 763.9099,-88.0185"/>
</g>
<!-- Node14 -->
<g id="node14" class="node">
<title>Node14</title>
<g id="a_node14"><a xlink:href="../../d6/d8a/InitialState_8h.html" target="_top" xlink:title="InitialState.h">
<polygon fill="none" stroke="#000000" points="300,-171.5 300,-191.5 380,-191.5 380,-171.5 300,-171.5"/>
<text text-anchor="middle" x="340" y="-178.5" font-family="FreeSans" font-size="10.00" fill="#000000">InitialState.h</text>
</a>
</g>
</g>
<!-- Node1&#45;&gt;Node14 -->
<g id="edge130" class="edge">
<title>Node1&#45;&gt;Node14</title>
<path fill="none" stroke="#191970" d="M446.87,-514.2821C358.5738,-494.5987 226,-457.1164 226,-409.5 226,-409.5 226,-409.5 226,-295.5 226,-248.6808 274.672,-214.374 308.4102,-196.2175"/>
<polygon fill="#191970" stroke="#191970" points="310.203,-199.2308 317.4773,-191.5278 306.9871,-193.0132 310.203,-199.2308"/>
</g>
<!-- Node30 -->
<g id="node30" class="node">
<title>Node30</title>
<g id="a_node30"><a xlink:href="../../db/da4/JetScapeXML_8h.html" target="_top" xlink:title="JetScapeXML.h">
<polygon fill="none" stroke="#000000" points="330.5,-114.5 330.5,-134.5 421.5,-134.5 421.5,-114.5 330.5,-114.5"/>
<text text-anchor="middle" x="376" y="-121.5" font-family="FreeSans" font-size="10.00" fill="#000000">JetScapeXML.h</text>
</a>
</g>
</g>
<!-- Node1&#45;&gt;Node30 -->
<g id="edge101" class="edge">
<title>Node1&#45;&gt;Node30</title>
<path fill="none" stroke="#191970" d="M446.9604,-520.588C337.4769,-505.7421 150,-471.298 150,-409.5 150,-409.5 150,-409.5 150,-295.5 150,-207.2831 260.8586,-158.7563 327.2906,-137.5962"/>
<polygon fill="#191970" stroke="#191970" points="328.6269,-140.8467 337.1492,-134.5522 326.5617,-134.1583 328.6269,-140.8467"/>
</g>
<!-- Node33 -->
<g id="node33" class="node">
<title>Node33</title>
<g id="a_node33"><a xlink:href="../../d5/d9b/FluidDynamics_8h.html" target="_top" xlink:title="FluidDynamics.h">
<polygon fill="none" stroke="#000000" points="364,-285.5 364,-305.5 464,-305.5 464,-285.5 364,-285.5"/>
<text text-anchor="middle" x="414" y="-292.5" font-family="FreeSans" font-size="10.00" fill="#000000">FluidDynamics.h</text>
</a>
</g>
</g>
<!-- Node1&#45;&gt;Node33 -->
<g id="edge127" class="edge">
<title>Node1&#45;&gt;Node33</title>
<path fill="none" stroke="#191970" d="M478.743,-513.3421C461.9992,-505.0642 444.5462,-493.2298 434,-477 401.2689,-426.6291 406.0351,-351.3835 410.7208,-315.6862"/>
<polygon fill="#191970" stroke="#191970" points="414.2167,-315.967 412.1916,-305.5675 407.2895,-314.96 414.2167,-315.967"/>
</g>
<!-- Node35 -->
<g id="node35" class="node">
<title>Node35</title>
<g id="a_node35"><a xlink:href="../../de/d68/PreequilibriumDynamics_8h.html" target="_top" xlink:title="PreequilibriumDynamics.h">
<polygon fill="none" stroke="#000000" points="547.5,-228.5 547.5,-248.5 696.5,-248.5 696.5,-228.5 547.5,-228.5"/>
<text text-anchor="middle" x="622" y="-235.5" font-family="FreeSans" font-size="10.00" fill="#000000">PreequilibriumDynamics.h</text>
</a>
</g>
</g>
<!-- Node1&#45;&gt;Node35 -->
<g id="edge131" class="edge">
<title>Node1&#45;&gt;Node35</title>
<path fill="none" stroke="#191970" d="M517.9162,-513.3455C506.2975,-479.7871 484.2903,-400.765 510,-342 527.2569,-302.5557 567.7828,-271.4602 595.0524,-254.0228"/>
<polygon fill="#191970" stroke="#191970" points="597.0821,-256.8826 603.7393,-248.6405 593.3953,-250.9322 597.0821,-256.8826"/>
</g>
<!-- Node42 -->
<g id="node42" class="node">
<title>Node42</title>
<g id="a_node42"><a xlink:href="../../d3/d7d/JetEnergyLossManager_8h.html" target="_top" xlink:title="JetEnergyLossManager.h">
<polygon fill="none" stroke="#000000" points="2118,-171.5 2118,-191.5 2258,-191.5 2258,-171.5 2118,-171.5"/>
<text text-anchor="middle" x="2188" y="-178.5" font-family="FreeSans" font-size="10.00" fill="#000000">JetEnergyLossManager.h</text>
</a>
</g>
</g>
<!-- Node1&#45;&gt;Node42 -->
<g id="edge126" class="edge">
<title>Node1&#45;&gt;Node42</title>
<path fill="none" stroke="#191970" d="M601.1444,-528.2266C936.1524,-522.1994 2248,-493.2505 2248,-409.5 2248,-409.5 2248,-409.5 2248,-295.5 2248,-257.9547 2222.1998,-220.6294 2204.4362,-199.3802"/>
<polygon fill="#191970" stroke="#191970" points="2206.8395,-196.8097 2197.64,-191.5542 2201.5542,-201.3995 2206.8395,-196.8097"/>
</g>
<!-- Node46 -->
<g id="node46" class="node">
<title>Node46</title>
<g id="a_node46"><a xlink:href="../../da/d13/JetScapeSignalManager_8h.html" target="_top" xlink:title="JetScapeSignalManager.h">
<polygon fill="none" stroke="#000000" points="1392.5,-399.5 1392.5,-419.5 1537.5,-419.5 1537.5,-399.5 1392.5,-399.5"/>
<text text-anchor="middle" x="1465" y="-406.5" font-family="FreeSans" font-size="10.00" fill="#000000">JetScapeSignalManager.h</text>
</a>
</g>
</g>
<!-- Node1&#45;&gt;Node46 -->
<g id="edge102" class="edge">
<title>Node1&#45;&gt;Node46</title>
<path fill="none" stroke="#191970" d="M601.006,-519.6799C776.0175,-497.3617 1202.4039,-442.9873 1382.5246,-420.0176"/>
<polygon fill="#191970" stroke="#191970" points="1382.9961,-423.4859 1392.473,-418.7489 1382.1105,-416.5421 1382.9961,-423.4859"/>
</g>
<!-- Node50 -->
<g id="node50" class="node">
<title>Node50</title>
<g id="a_node50"><a xlink:href="../../db/daa/JetScapeBanner_8h.html" target="_top" xlink:title="JetScapeBanner.h">
<polygon fill="none" stroke="#000000" points="1697,-456.5 1697,-476.5 1803,-476.5 1803,-456.5 1697,-456.5"/>
<text text-anchor="middle" x="1750" y="-463.5" font-family="FreeSans" font-size="10.00" fill="#000000">JetScapeBanner.h</text>
</a>
</g>
</g>
<!-- Node1&#45;&gt;Node50 -->
<g id="edge128" class="edge">
<title>Node1&#45;&gt;Node50</title>
<path fill="none" stroke="#191970" d="M601.1562,-525.5352C826.383,-513.9616 1480.0509,-480.3718 1686.6379,-469.756"/>
<polygon fill="#191970" stroke="#191970" points="1686.907,-473.2469 1696.7141,-469.2382 1686.5477,-466.2561 1686.907,-473.2469"/>
</g>
<!-- Node3 -->
<g id="node3" class="node">
<title>Node3</title>
<g id="a_node3"><a xlink:href="../../d4/d14/JetScapeLogger_8h.html" target="_top" xlink:title="JetScapeLogger.h">
<polygon fill="none" stroke="#000000" points="1496,-171.5 1496,-191.5 1600,-191.5 1600,-171.5 1496,-171.5"/>
<text text-anchor="middle" x="1548" y="-178.5" font-family="FreeSans" font-size="10.00" fill="#000000">JetScapeLogger.h</text>
</a>
</g>
</g>
<!-- Node2&#45;&gt;Node3 -->
<g id="edge2" class="edge">
<title>Node2&#45;&gt;Node3</title>
<path fill="none" stroke="#191970" d="M885.1195,-461.8327C958.6235,-451.208 1133.0356,-421.4869 1268,-363 1373.3947,-317.3271 1483.4991,-233.5219 1527.7907,-198.0535"/>
<polygon fill="#191970" stroke="#191970" points="1530.1665,-200.6337 1535.7506,-191.6299 1525.7704,-195.1863 1530.1665,-200.6337"/>
</g>
<!-- Node13 -->
<g id="node13" class="node">
<title>Node13</title>
<g id="a_node13"><a xlink:href="../../db/d8a/JetScapeTaskSupport_8h.html" target="_top" xlink:title="JetScapeTaskSupport.h">
<polygon fill="none" stroke="#000000" points="689,-399.5 689,-419.5 821,-419.5 821,-399.5 689,-399.5"/>
<text text-anchor="middle" x="755" y="-406.5" font-family="FreeSans" font-size="10.00" fill="#000000">JetScapeTaskSupport.h</text>
</a>
</g>
</g>
<!-- Node2&#45;&gt;Node13 -->
<g id="edge14" class="edge">
<title>Node2&#45;&gt;Node13</title>
<path fill="none" stroke="#191970" d="M833.0159,-456.3095C818.4259,-447.5556 797.1748,-434.8049 780.5352,-424.8211"/>
<polygon fill="#191970" stroke="#191970" points="782.2128,-421.746 771.8371,-419.6022 778.6112,-427.7485 782.2128,-421.746"/>
</g>
<!-- Node16 -->
<g id="node16" class="node">
<title>Node16</title>
<g id="a_node16"><a xlink:href="../../dc/da0/JetScapeModuleBase_8h.html" target="_top" xlink:title="JetScapeModuleBase.h">
<polygon fill="none" stroke="#000000" points="1015,-114.5 1015,-134.5 1147,-134.5 1147,-114.5 1015,-114.5"/>
<text text-anchor="middle" x="1081" y="-121.5" font-family="FreeSans" font-size="10.00" fill="#000000">JetScapeModuleBase.h</text>
</a>
</g>
</g>
<!-- Node2&#45;&gt;Node16 -->
<g id="edge100" class="edge">
<title>Node2&#45;&gt;Node16</title>
<path fill="none" stroke="#191970" d="M853.713,-456.256C866.4904,-421.8192 911.1716,-307.91 971,-228 997.0338,-193.2279 1035.4354,-160.1188 1059.2974,-141.0806"/>
<polygon fill="#191970" stroke="#191970" points="1061.6822,-143.6578 1067.3809,-134.7261 1057.3561,-138.1546 1061.6822,-143.6578"/>
</g>
<!-- Node3&#45;&gt;Node4 -->
<g id="edge3" class="edge">
<title>Node3&#45;&gt;Node4</title>
<path fill="none" stroke="#191970" d="M1495.8297,-171.6092C1420.8432,-157.5997 1278.162,-131.7138 1156,-114 1027.3,-95.3381 874.1238,-78.9099 802.5816,-71.5718"/>
<polygon fill="#191970" stroke="#191970" points="802.5273,-68.0481 792.2236,-70.5144 801.8164,-75.0119 802.5273,-68.0481"/>
</g>
<!-- Node5 -->
<g id="node5" class="node">
<title>Node5</title>
<polygon fill="none" stroke="#bfbfbf" points="1485,-57.5 1485,-77.5 1541,-77.5 1541,-57.5 1485,-57.5"/>
<text text-anchor="middle" x="1513" y="-64.5" font-family="FreeSans" font-size="10.00" fill="#000000">sstream</text>
</g>
<!-- Node3&#45;&gt;Node5 -->
<g id="edge4" class="edge">
<title>Node3&#45;&gt;Node5</title>
<path fill="none" stroke="#191970" d="M1566.9166,-171.4622C1588.0395,-158.8652 1617.5917,-136.2086 1604,-114 1597.6387,-103.6057 1571.9,-90.9768 1549.4125,-81.5047"/>
<polygon fill="#191970" stroke="#191970" points="1550.6198,-78.2169 1540.0399,-77.6542 1547.9597,-84.6918 1550.6198,-78.2169"/>
</g>
<!-- Node6 -->
<g id="node6" class="node">
<title>Node6</title>
<polygon fill="none" stroke="#bfbfbf" points="1475.5,-114.5 1475.5,-134.5 1528.5,-134.5 1528.5,-114.5 1475.5,-114.5"/>
<text text-anchor="middle" x="1502" y="-121.5" font-family="FreeSans" font-size="10.00" fill="#000000">cassert</text>
</g>
<!-- Node3&#45;&gt;Node6 -->
<g id="edge5" class="edge">
<title>Node3&#45;&gt;Node6</title>
<path fill="none" stroke="#191970" d="M1539.7761,-171.3095C1533.3656,-163.3661 1524.2994,-152.1319 1516.6556,-142.6602"/>
<polygon fill="#191970" stroke="#191970" points="1519.1566,-140.1862 1510.1527,-134.6022 1513.7092,-144.5823 1519.1566,-140.1862"/>
</g>
<!-- Node7 -->
<g id="node7" class="node">
<title>Node7</title>
<polygon fill="none" stroke="#bfbfbf" points="1547,-114.5 1547,-134.5 1595,-134.5 1595,-114.5 1547,-114.5"/>
<text text-anchor="middle" x="1571" y="-121.5" font-family="FreeSans" font-size="10.00" fill="#000000">mutex</text>
</g>
<!-- Node3&#45;&gt;Node7 -->
<g id="edge6" class="edge">
<title>Node3&#45;&gt;Node7</title>
<path fill="none" stroke="#191970" d="M1552.1119,-171.3095C1555.1537,-163.7714 1559.3912,-153.2696 1563.0819,-144.123"/>
<polygon fill="#191970" stroke="#191970" points="1566.4274,-145.1854 1566.9237,-134.6022 1559.9359,-142.566 1566.4274,-145.1854"/>
</g>
<!-- Node8 -->
<g id="node8" class="node">
<title>Node8</title>
<polygon fill="none" stroke="#bfbfbf" points="882,-.5 882,-20.5 940,-20.5 940,-.5 882,-.5"/>
<text text-anchor="middle" x="911" y="-7.5" font-family="FreeSans" font-size="10.00" fill="#000000">memory</text>
</g>
<!-- Node3&#45;&gt;Node8 -->
<g id="edge7" class="edge">
<title>Node3&#45;&gt;Node8</title>
<path fill="none" stroke="#191970" d="M1518.7736,-171.4603C1479.7124,-158.0938 1408.29,-133.8337 1347,-114 1265.9507,-87.7721 1246.708,-77.403 1164,-57 1089.1117,-38.526 1000.1133,-23.8139 950.1313,-16.1966"/>
<polygon fill="#191970" stroke="#191970" points="950.4872,-12.7108 940.077,-14.68 949.4431,-19.6325 950.4872,-12.7108"/>
</g>
<!-- Node9 -->
<g id="node9" class="node">
<title>Node9</title>
<g id="a_node9"><a xlink:href="../../d5/d64/JetClass_8h.html" target="_top" xlink:title="JetClass.h">
<polygon fill="none" stroke="#ff0000" points="1651,-114.5 1651,-134.5 1717,-134.5 1717,-114.5 1651,-114.5"/>
<text text-anchor="middle" x="1684" y="-121.5" font-family="FreeSans" font-size="10.00" fill="#000000">JetClass.h</text>
</a>
</g>
</g>
<!-- Node3&#45;&gt;Node9 -->
<g id="edge8" class="edge">
<title>Node3&#45;&gt;Node9</title>
<path fill="none" stroke="#191970" d="M1572.001,-171.4408C1593.8125,-162.2992 1626.2082,-148.7216 1650.5549,-138.5174"/>
<polygon fill="#191970" stroke="#191970" points="1651.9116,-141.7438 1659.7815,-134.6504 1649.2058,-135.2879 1651.9116,-141.7438"/>
</g>
<!-- Node9&#45;&gt;Node4 -->
<g id="edge12" class="edge">
<title>Node9&#45;&gt;Node4</title>
<path fill="none" stroke="#191970" d="M1650.9787,-119.5976C1636.5784,-117.6069 1619.4819,-115.4414 1604,-114 1296.5865,-85.3784 924.27,-72.3573 802.5909,-68.6567"/>
<polygon fill="#191970" stroke="#191970" points="802.3678,-65.1486 792.2673,-68.347 802.1578,-72.1454 802.3678,-65.1486"/>
</g>
<!-- Node9&#45;&gt;Node5 -->
<g id="edge13" class="edge">
<title>Node9&#45;&gt;Node5</title>
<path fill="none" stroke="#191970" d="M1653.8223,-114.4408C1625.0986,-104.8662 1581.7766,-90.4255 1550.7733,-80.0911"/>
<polygon fill="#191970" stroke="#191970" points="1551.7679,-76.7334 1541.1743,-76.8914 1549.5543,-83.3742 1551.7679,-76.7334"/>
</g>
<!-- Node10 -->
<g id="node10" class="node">
<title>Node10</title>
<polygon fill="none" stroke="#bfbfbf" points="1559,-57.5 1559,-77.5 1609,-77.5 1609,-57.5 1559,-57.5"/>
<text text-anchor="middle" x="1584" y="-64.5" font-family="FreeSans" font-size="10.00" fill="#000000">stdio.h</text>
</g>
<!-- Node9&#45;&gt;Node10 -->
<g id="edge9" class="edge">
<title>Node9&#45;&gt;Node10</title>
<path fill="none" stroke="#191970" d="M1666.122,-114.3095C1650.7641,-105.5556 1628.3946,-92.8049 1610.8792,-82.8211"/>
<polygon fill="#191970" stroke="#191970" points="1612.1442,-79.5136 1601.7232,-77.6022 1608.6778,-85.595 1612.1442,-79.5136"/>
</g>
<!-- Node11 -->
<g id="node11" class="node">
<title>Node11</title>
<polygon fill="none" stroke="#bfbfbf" points="1627,-57.5 1627,-77.5 1679,-77.5 1679,-57.5 1627,-57.5"/>
<text text-anchor="middle" x="1653" y="-64.5" font-family="FreeSans" font-size="10.00" fill="#000000">math.h</text>
</g>
<!-- Node9&#45;&gt;Node11 -->
<g id="edge10" class="edge">
<title>Node9&#45;&gt;Node11</title>
<path fill="none" stroke="#191970" d="M1678.4578,-114.3095C1674.27,-106.6093 1668.4003,-95.8166 1663.3523,-86.5349"/>
<polygon fill="#191970" stroke="#191970" points="1666.3467,-84.7149 1658.4942,-77.6022 1660.1973,-88.0593 1666.3467,-84.7149"/>
</g>
<!-- Node12 -->
<g id="node12" class="node">
<title>Node12</title>
<polygon fill="none" stroke="#bfbfbf" points="1795.5,-.5 1795.5,-20.5 1844.5,-20.5 1844.5,-.5 1795.5,-.5"/>
<text text-anchor="middle" x="1820" y="-7.5" font-family="FreeSans" font-size="10.00" fill="#000000">vector</text>
</g>
<!-- Node9&#45;&gt;Node12 -->
<g id="edge11" class="edge">
<title>Node9&#45;&gt;Node12</title>
<path fill="none" stroke="#191970" d="M1689.1182,-114.198C1696.6532,-99.8701 1711.9244,-73.7986 1731,-57 1747.1169,-42.8069 1768.3312,-31.506 1786.0053,-23.6003"/>
<polygon fill="#191970" stroke="#191970" points="1787.5995,-26.7248 1795.4051,-19.5607 1784.8356,-20.2935 1787.5995,-26.7248"/>
</g>
<!-- Node13&#45;&gt;Node4 -->
<g id="edge95" class="edge">
<title>Node13&#45;&gt;Node4</title>
<path fill="none" stroke="#191970" d="M755.2095,-399.2646C756.1816,-351.7691 760.2615,-152.4362 761.5842,-87.8162"/>
<polygon fill="#191970" stroke="#191970" points="765.0859,-87.765 761.7913,-77.6955 758.0873,-87.6217 765.0859,-87.765"/>
</g>
<!-- Node13&#45;&gt;Node8 -->
<g id="edge97" class="edge">
<title>Node13&#45;&gt;Node8</title>
<path fill="none" stroke="#191970" d="M688.8373,-404.0894C599.36,-396.251 444.7759,-380.7209 391,-363 341.6774,-346.7466 316.4485,-350.0848 289,-306 230.4768,-212.0065 216.9034,-133.4479 297,-57 317.8468,-37.1028 739.3089,-17.7295 871.6188,-12.1178"/>
<polygon fill="#191970" stroke="#191970" points="871.8744,-15.6103 881.7183,-11.6925 871.5798,-8.6165 871.8744,-15.6103"/>
</g>
<!-- Node13&#45;&gt;Node14 -->
<g id="edge15" class="edge">
<title>Node13&#45;&gt;Node14</title>
<path fill="none" stroke="#191970" d="M688.6973,-401.4029C579.7826,-386.9114 369.4264,-353.5465 313,-306 285.1615,-282.5425 273.1364,-261.2311 288,-228 293.4857,-215.7354 303.9821,-205.3682 314.1163,-197.5572"/>
<polygon fill="#191970" stroke="#191970" points="316.3299,-200.277 322.4259,-191.6115 312.2566,-194.5841 316.3299,-200.277"/>
</g>
<!-- Node18 -->
<g id="node18" class="node">
<title>Node18</title>
<polygon fill="none" stroke="#bfbfbf" points="1100.5,-57.5 1100.5,-77.5 1155.5,-77.5 1155.5,-57.5 1100.5,-57.5"/>
<text text-anchor="middle" x="1128" y="-64.5" font-family="FreeSans" font-size="10.00" fill="#000000">random</text>
</g>
<!-- Node13&#45;&gt;Node18 -->
<g id="edge98" class="edge">
<title>Node13&#45;&gt;Node18</title>
<path fill="none" stroke="#191970" d="M760.9808,-399.2554C785.7274,-357.7043 884.5327,-199.8754 1006,-114 1031.6531,-95.8637 1065.2899,-83.7354 1090.7459,-76.4257"/>
<polygon fill="#191970" stroke="#191970" points="1091.6992,-79.7936 1100.4129,-73.7668 1089.8428,-73.0442 1091.6992,-79.7936"/>
</g>
<!-- Node32 -->
<g id="node32" class="node">
<title>Node32</title>
<g id="a_node32"><a xlink:href="../../de/d5d/JetEnergyLoss_8h.html" target="_top" xlink:title="JetEnergyLoss.h">
<polygon fill="none" stroke="#000000" points="1162.5,-342.5 1162.5,-362.5 1259.5,-362.5 1259.5,-342.5 1162.5,-342.5"/>
<text text-anchor="middle" x="1211" y="-349.5" font-family="FreeSans" font-size="10.00" fill="#000000">JetEnergyLoss.h</text>
</a>
</g>
</g>
<!-- Node13&#45;&gt;Node32 -->
<g id="edge43" class="edge">
<title>Node13&#45;&gt;Node32</title>
<path fill="none" stroke="#191970" d="M821.3063,-401.2117C910.4364,-390.0704 1067.4878,-370.439 1152.457,-359.8179"/>
<polygon fill="#191970" stroke="#191970" points="1152.9637,-363.2819 1162.4523,-358.5685 1152.0954,-356.3359 1152.9637,-363.2819"/>
</g>
<!-- Node13&#45;&gt;Node33 -->
<g id="edge87" class="edge">
<title>Node13&#45;&gt;Node33</title>
<path fill="none" stroke="#191970" d="M730.3253,-399.3406C708.6768,-390.27 676.4555,-376.387 649,-363 631.305,-354.3721 628.4005,-348.9984 610,-342 565.7967,-325.1879 513.6023,-313.1623 474.1935,-305.5575"/>
<polygon fill="#191970" stroke="#191970" points="474.6822,-302.088 464.2064,-303.6718 473.3834,-308.9664 474.6822,-302.088"/>
</g>
<!-- Node37 -->
<g id="node37" class="node">
<title>Node37</title>
<g id="a_node37"><a xlink:href="../../d6/dbc/JetScapeWriter_8h.html" target="_top" xlink:title="JetScapeWriter.h">
<polygon fill="none" stroke="#000000" points="1468,-285.5 1468,-305.5 1568,-305.5 1568,-285.5 1468,-285.5"/>
<text text-anchor="middle" x="1518" y="-292.5" font-family="FreeSans" font-size="10.00" fill="#000000">JetScapeWriter.h</text>
</a>
</g>
</g>
<!-- Node13&#45;&gt;Node37 -->
<g id="edge94" class="edge">
<title>Node13&#45;&gt;Node37</title>
<path fill="none" stroke="#191970" d="M821.0805,-407.1706C919.2474,-402.8863 1109.1066,-391.4304 1268,-363 1343.3514,-349.5176 1429.0626,-324.1093 1478.0189,-308.6037"/>
<polygon fill="#191970" stroke="#191970" points="1479.1356,-311.9213 1487.5985,-305.5471 1477.0077,-305.2526 1479.1356,-311.9213"/>
</g>
<!-- Node13&#45;&gt;Node42 -->
<g id="edge82" class="edge">
<title>Node13&#45;&gt;Node42</title>
<path fill="none" stroke="#191970" d="M821.0845,-408.3728C969.9569,-405.3318 1342.8036,-394.9063 1653,-363 1818.0742,-346.0207 1869.05,-370.3745 2022,-306 2083.3469,-280.18 2142.6099,-226.7794 2170.8422,-199.0587"/>
<polygon fill="#191970" stroke="#191970" points="2173.6598,-201.1918 2178.2679,-191.6515 2168.7162,-196.2359 2173.6598,-201.1918"/>
</g>
<!-- Node43 -->
<g id="node43" class="node">
<title>Node43</title>
<g id="a_node43"><a xlink:href="../../d5/d8d/HardProcess_8h.html" target="_top" xlink:title="HardProcess.h">
<polygon fill="none" stroke="#000000" points="980,-228.5 980,-248.5 1068,-248.5 1068,-228.5 980,-228.5"/>
<text text-anchor="middle" x="1024" y="-235.5" font-family="FreeSans" font-size="10.00" fill="#000000">HardProcess.h</text>
</a>
</g>
</g>
<!-- Node13&#45;&gt;Node43 -->
<g id="edge88" class="edge">
<title>Node13&#45;&gt;Node43</title>
<path fill="none" stroke="#191970" d="M770.6469,-399.4562C803.7136,-378.2425 883.1545,-327.3405 950,-285 966.298,-274.6767 984.6611,-263.1372 999.0175,-254.1362"/>
<polygon fill="#191970" stroke="#191970" points="1001.1956,-256.9017 1007.8111,-248.6261 997.4788,-250.97 1001.1956,-256.9017"/>
</g>
<!-- Node44 -->
<g id="node44" class="node">
<title>Node44</title>
<polygon fill="none" stroke="#bfbfbf" points="658,-342.5 658,-362.5 708,-362.5 708,-342.5 658,-342.5"/>
<text text-anchor="middle" x="683" y="-349.5" font-family="FreeSans" font-size="10.00" fill="#000000">atomic</text>
</g>
<!-- Node13&#45;&gt;Node44 -->
<g id="edge96" class="edge">
<title>Node13&#45;&gt;Node44</title>
<path fill="none" stroke="#191970" d="M742.1278,-399.3095C731.4797,-390.8798 716.1502,-378.7439 703.7682,-368.9415"/>
<polygon fill="#191970" stroke="#191970" points="705.7737,-366.0651 695.7607,-362.6022 701.4287,-371.5535 705.7737,-366.0651"/>
</g>
<!-- Node45 -->
<g id="node45" class="node">
<title>Node45</title>
<polygon fill="none" stroke="#bfbfbf" points="552.5,-342.5 552.5,-362.5 601.5,-362.5 601.5,-342.5 552.5,-342.5"/>
<text text-anchor="middle" x="577" y="-349.5" font-family="FreeSans" font-size="10.00" fill="#000000">thread</text>
</g>
<!-- Node13&#45;&gt;Node45 -->
<g id="edge99" class="edge">
<title>Node13&#45;&gt;Node45</title>
<path fill="none" stroke="#191970" d="M723.5869,-399.4408C692.0204,-389.3324 643.5161,-373.8001 611.0459,-363.4023"/>
<polygon fill="#191970" stroke="#191970" points="612.1113,-360.0685 601.5203,-360.352 609.9765,-366.735 612.1113,-360.0685"/>
</g>
<!-- Node14&#45;&gt;Node8 -->
<g id="edge17" class="edge">
<title>Node14&#45;&gt;Node8</title>
<path fill="none" stroke="#191970" d="M362.0178,-171.395C380.5935,-162.5728 407.6514,-149.0176 430,-135 478.9465,-104.2996 480.4108,-78.5978 534,-57 594.7108,-32.532 787.9541,-18.0504 871.686,-12.7801"/>
<polygon fill="#191970" stroke="#191970" points="872.0447,-16.2647 881.8097,-12.1543 871.6128,-9.278 872.0447,-16.2647"/>
</g>
<!-- Node14&#45;&gt;Node9 -->
<g id="edge30" class="edge">
<title>Node14&#45;&gt;Node9</title>
<path fill="none" stroke="#191970" d="M380.2084,-175.8855C394.9037,-174.035 411.6777,-172.1566 427,-171 948.871,-131.6062 1082.3408,-177.1057 1604,-135 1615.9871,-134.0325 1628.9315,-132.533 1640.8429,-130.9672"/>
<polygon fill="#191970" stroke="#191970" points="1641.5579,-134.4022 1650.9946,-129.5858 1640.614,-127.4661 1641.5579,-134.4022"/>
</g>
<!-- Node15 -->
<g id="node15" class="node">
<title>Node15</title>
<polygon fill="none" stroke="#bfbfbf" points="478,-114.5 478,-134.5 520,-134.5 520,-114.5 478,-114.5"/>
<text text-anchor="middle" x="499" y="-121.5" font-family="FreeSans" font-size="10.00" fill="#000000">tuple</text>
</g>
<!-- Node14&#45;&gt;Node15 -->
<g id="edge16" class="edge">
<title>Node14&#45;&gt;Node15</title>
<path fill="none" stroke="#191970" d="M368.06,-171.4408C396.1317,-161.3773 439.199,-145.9381 468.2005,-135.5413"/>
<polygon fill="#191970" stroke="#191970" points="469.5921,-138.7606 477.8244,-132.0913 467.2299,-132.1712 469.5921,-138.7606"/>
</g>
<!-- Node14&#45;&gt;Node16 -->
<g id="edge18" class="edge">
<title>Node14&#45;&gt;Node16</title>
<path fill="none" stroke="#191970" d="M380.2375,-176.2257C394.9357,-174.4095 411.7042,-172.4659 427,-171 635.574,-151.0109 882.334,-135.7263 1004.5274,-128.7155"/>
<polygon fill="#191970" stroke="#191970" points="1004.7498,-132.2086 1014.5339,-128.1439 1004.3506,-125.22 1004.7498,-132.2086"/>
</g>
<!-- Node23 -->
<g id="node23" class="node">
<title>Node23</title>
<g id="a_node23"><a xlink:href="../../d7/d95/tinyxml2_8h.html" target="_top" xlink:title="tinyxml2.h">
<polygon fill="none" stroke="#000000" points="128,-57.5 128,-77.5 198,-77.5 198,-57.5 128,-57.5"/>
<text text-anchor="middle" x="163" y="-64.5" font-family="FreeSans" font-size="10.00" fill="#000000">tinyxml2.h</text>
</a>
</g>
</g>
<!-- Node14&#45;&gt;Node23 -->
<g id="edge31" class="edge">
<title>Node14&#45;&gt;Node23</title>
<path fill="none" stroke="#191970" d="M317.9229,-171.4887C299.311,-162.7237 272.2333,-149.1998 250,-135 225.4929,-119.348 199.3938,-98.4655 182.2468,-84.094"/>
<polygon fill="#191970" stroke="#191970" points="184.4876,-81.4052 174.5945,-77.6134 179.9637,-86.747 184.4876,-81.4052"/>
</g>
<!-- Node14&#45;&gt;Node30 -->
<g id="edge38" class="edge">
<title>Node14&#45;&gt;Node30</title>
<path fill="none" stroke="#191970" d="M346.4361,-171.3095C351.3506,-163.5282 358.2596,-152.589 364.1628,-143.2423"/>
<polygon fill="#191970" stroke="#191970" points="367.2389,-144.9261 369.6196,-134.6022 361.3204,-141.1881 367.2389,-144.9261"/>
</g>
<!-- Node16&#45;&gt;Node8 -->
<g id="edge20" class="edge">
<title>Node16&#45;&gt;Node8</title>
<path fill="none" stroke="#191970" d="M1047.9585,-114.3614C1025.5625,-106.543 995.9738,-94.3044 973,-78 953.8723,-64.4251 936.216,-44.1034 924.6785,-29.3054"/>
<polygon fill="#191970" stroke="#191970" points="927.1533,-26.7758 918.327,-20.9151 921.5721,-31.0008 927.1533,-26.7758"/>
</g>
<!-- Node17 -->
<g id="node17" class="node">
<title>Node17</title>
<polygon fill="none" stroke="#bfbfbf" points="1291.5,-.5 1291.5,-20.5 1336.5,-20.5 1336.5,-.5 1291.5,-.5"/>
<text text-anchor="middle" x="1314" y="-7.5" font-family="FreeSans" font-size="10.00" fill="#000000">string</text>
</g>
<!-- Node16&#45;&gt;Node17 -->
<g id="edge19" class="edge">
<title>Node16&#45;&gt;Node17</title>
<path fill="none" stroke="#191970" d="M1079.2523,-114.2866C1077.369,-99.5817 1076.3691,-72.5128 1091,-57 1116.6194,-29.8363 1225.7739,-17.4458 1281.2906,-12.8137"/>
<polygon fill="#191970" stroke="#191970" points="1281.6299,-16.2978 1291.3195,-12.0129 1281.0726,-9.32 1281.6299,-16.2978"/>
</g>
<!-- Node16&#45;&gt;Node18 -->
<g id="edge21" class="edge">
<title>Node16&#45;&gt;Node18</title>
<path fill="none" stroke="#191970" d="M1089.4027,-114.3095C1096.0193,-106.2851 1105.4052,-94.9022 1113.2644,-85.3708"/>
<polygon fill="#191970" stroke="#191970" points="1116.0086,-87.5443 1119.6701,-77.6022 1110.6078,-83.091 1116.0086,-87.5443"/>
</g>
<!-- Node19 -->
<g id="node19" class="node">
<title>Node19</title>
<g id="a_node19"><a xlink:href="../../d1/df0/JetScapeTask_8h.html" target="_top" xlink:title="JetScapeTask.h">
<polygon fill="none" stroke="#000000" points="1811,-57.5 1811,-77.5 1903,-77.5 1903,-57.5 1811,-57.5"/>
<text text-anchor="middle" x="1857" y="-64.5" font-family="FreeSans" font-size="10.00" fill="#000000">JetScapeTask.h</text>
</a>
</g>
</g>
<!-- Node16&#45;&gt;Node19 -->
<g id="edge22" class="edge">
<title>Node16&#45;&gt;Node19</title>
<path fill="none" stroke="#191970" d="M1147.1613,-119.6402C1297.1629,-108.6221 1660.9013,-81.9042 1800.8419,-71.625"/>
<polygon fill="#191970" stroke="#191970" points="1801.204,-75.1079 1810.9207,-70.8847 1800.6911,-68.1268 1801.204,-75.1079"/>
</g>
<!-- Node21 -->
<g id="node21" class="node">
<title>Node21</title>
<g id="a_node21"><a xlink:href="../../da/db0/sigslot_8h.html" target="_top" xlink:title="sigslot.h">
<polygon fill="none" stroke="#000000" points="2112,-57.5 2112,-77.5 2170,-77.5 2170,-57.5 2112,-57.5"/>
<text text-anchor="middle" x="2141" y="-64.5" font-family="FreeSans" font-size="10.00" fill="#000000">sigslot.h</text>
</a>
</g>
</g>
<!-- Node16&#45;&gt;Node21 -->
<g id="edge27" class="edge">
<title>Node16&#45;&gt;Node21</title>
<path fill="none" stroke="#191970" d="M1147.3077,-120.9344C1347.5716,-110.1655 1942.2298,-78.1886 2101.4259,-69.628"/>
<polygon fill="#191970" stroke="#191970" points="2101.9021,-73.1076 2111.6997,-69.0756 2101.5261,-66.1177 2101.9021,-73.1076"/>
</g>
<!-- Node19&#45;&gt;Node8 -->
<g id="edge26" class="edge">
<title>Node19&#45;&gt;Node8</title>
<path fill="none" stroke="#191970" d="M1810.736,-64.5971C1776.7725,-62.473 1729.5194,-59.5322 1688,-57 1405.1383,-39.7489 1064.314,-19.5583 950.2916,-12.8197"/>
<polygon fill="#191970" stroke="#191970" points="950.4736,-9.3245 940.2845,-12.2284 950.0606,-16.3123 950.4736,-9.3245"/>
</g>
<!-- Node19&#45;&gt;Node12 -->
<g id="edge24" class="edge">
<title>Node19&#45;&gt;Node12</title>
<path fill="none" stroke="#191970" d="M1850.3851,-57.3095C1845.3341,-49.5282 1838.2332,-38.589 1832.166,-29.2423"/>
<polygon fill="#191970" stroke="#191970" points="1834.9381,-27.0844 1826.5576,-20.6022 1829.0666,-30.8957 1834.9381,-27.0844"/>
</g>
<!-- Node19&#45;&gt;Node17 -->
<g id="edge25" class="edge">
<title>Node19&#45;&gt;Node17</title>
<path fill="none" stroke="#191970" d="M1810.7041,-62.6402C1703.3888,-51.3751 1439.7322,-23.6984 1346.9503,-13.9589"/>
<polygon fill="#191970" stroke="#191970" points="1347.0643,-10.4517 1336.7535,-12.8885 1346.3334,-17.4134 1347.0643,-10.4517"/>
</g>
<!-- Node20 -->
<g id="node20" class="node">
<title>Node20</title>
<polygon fill="none" stroke="#bfbfbf" points="1958,-.5 1958,-20.5 1990,-20.5 1990,-.5 1958,-.5"/>
<text text-anchor="middle" x="1974" y="-7.5" font-family="FreeSans" font-size="10.00" fill="#000000">list</text>
</g>
<!-- Node19&#45;&gt;Node20 -->
<g id="edge23" class="edge">
<title>Node19&#45;&gt;Node20</title>
<path fill="none" stroke="#191970" d="M1877.6479,-57.4408C1897.4455,-47.7958 1927.3789,-33.2129 1948.6217,-22.8638"/>
<polygon fill="#191970" stroke="#191970" points="1950.2458,-25.9659 1957.7028,-18.4397 1947.18,-19.6729 1950.2458,-25.9659"/>
</g>
<!-- Node21&#45;&gt;Node20 -->
<g id="edge29" class="edge">
<title>Node21&#45;&gt;Node20</title>
<path fill="none" stroke="#191970" d="M2111.9108,-57.5714C2080.3122,-46.7862 2030.3004,-29.7163 1999.9778,-19.3667"/>
<polygon fill="#191970" stroke="#191970" points="2000.7304,-15.9254 1990.1359,-16.0075 1998.4692,-22.5501 2000.7304,-15.9254"/>
</g>
<!-- Node22 -->
<g id="node22" class="node">
<title>Node22</title>
<polygon fill="none" stroke="#bfbfbf" points="2125,-.5 2125,-20.5 2157,-20.5 2157,-.5 2125,-.5"/>
<text text-anchor="middle" x="2141" y="-7.5" font-family="FreeSans" font-size="10.00" fill="#000000">set</text>
</g>
<!-- Node21&#45;&gt;Node22 -->
<g id="edge28" class="edge">
<title>Node21&#45;&gt;Node22</title>
<path fill="none" stroke="#191970" d="M2141,-57.3095C2141,-49.9335 2141,-39.72 2141,-30.715"/>
<polygon fill="#191970" stroke="#191970" points="2144.5001,-30.6022 2141,-20.6022 2137.5001,-30.6023 2144.5001,-30.6022"/>
</g>
<!-- Node24 -->
<g id="node24" class="node">
<title>Node24</title>
<polygon fill="none" stroke="#bfbfbf" points="208,-.5 208,-20.5 258,-20.5 258,-.5 208,-.5"/>
<text text-anchor="middle" x="233" y="-7.5" font-family="FreeSans" font-size="10.00" fill="#000000">cctype</text>
</g>
<!-- Node23&#45;&gt;Node24 -->
<g id="edge32" class="edge">
<title>Node23&#45;&gt;Node24</title>
<path fill="none" stroke="#191970" d="M175.5146,-57.3095C185.8669,-48.8798 200.7706,-36.7439 212.8087,-26.9415"/>
<polygon fill="#191970" stroke="#191970" points="215.0494,-29.6306 220.5937,-20.6022 210.6294,-24.2025 215.0494,-29.6306"/>
</g>
<!-- Node25 -->
<g id="node25" class="node">
<title>Node25</title>
<polygon fill="none" stroke="#bfbfbf" points="276.5,-.5 276.5,-20.5 325.5,-20.5 325.5,-.5 276.5,-.5"/>
<text text-anchor="middle" x="301" y="-7.5" font-family="FreeSans" font-size="10.00" fill="#000000">climits</text>
</g>
<!-- Node23&#45;&gt;Node25 -->
<g id="edge33" class="edge">
<title>Node23&#45;&gt;Node25</title>
<path fill="none" stroke="#191970" d="M187.354,-57.4408C209.4862,-48.2992 242.3583,-34.7216 267.0631,-24.5174"/>
<polygon fill="#191970" stroke="#191970" points="268.5189,-27.703 276.4253,-20.6504 265.8465,-21.2332 268.5189,-27.703"/>
</g>
<!-- Node26 -->
<g id="node26" class="node">
<title>Node26</title>
<polygon fill="none" stroke="#bfbfbf" points="344,-.5 344,-20.5 390,-20.5 390,-.5 344,-.5"/>
<text text-anchor="middle" x="367" y="-7.5" font-family="FreeSans" font-size="10.00" fill="#000000">cstdio</text>
</g>
<!-- Node23&#45;&gt;Node26 -->
<g id="edge34" class="edge">
<title>Node23&#45;&gt;Node26</title>
<path fill="none" stroke="#191970" d="M198.1655,-58.4052C232.8227,-49.3319 287.2281,-34.7935 334,-21 334.1009,-20.9702 334.202,-20.9404 334.3032,-20.9105"/>
<polygon fill="#191970" stroke="#191970" points="335.4136,-24.2311 343.9595,-17.9687 333.3736,-17.5349 335.4136,-24.2311"/>
</g>
<!-- Node27 -->
<g id="node27" class="node">
<title>Node27</title>
<polygon fill="none" stroke="#bfbfbf" points="68,-.5 68,-20.5 118,-20.5 118,-.5 68,-.5"/>
<text text-anchor="middle" x="93" y="-7.5" font-family="FreeSans" font-size="10.00" fill="#000000">cstdlib</text>
</g>
<!-- Node23&#45;&gt;Node27 -->
<g id="edge35" class="edge">
<title>Node23&#45;&gt;Node27</title>
<path fill="none" stroke="#191970" d="M150.4854,-57.3095C140.1331,-48.8798 125.2294,-36.7439 113.1913,-26.9415"/>
<polygon fill="#191970" stroke="#191970" points="115.3706,-24.2025 105.4063,-20.6022 110.9506,-29.6306 115.3706,-24.2025"/>
</g>
<!-- Node28 -->
<g id="node28" class="node">
<title>Node28</title>
<polygon fill="none" stroke="#bfbfbf" points="0,-.5 0,-20.5 50,-20.5 50,-.5 0,-.5"/>
<text text-anchor="middle" x="25" y="-7.5" font-family="FreeSans" font-size="10.00" fill="#000000">cstring</text>
</g>
<!-- Node23&#45;&gt;Node28 -->
<g id="edge36" class="edge">
<title>Node23&#45;&gt;Node28</title>
<path fill="none" stroke="#191970" d="M138.646,-57.4408C116.5138,-48.2992 83.6417,-34.7216 58.9369,-24.5174"/>
<polygon fill="#191970" stroke="#191970" points="60.1535,-21.2332 49.5747,-20.6504 57.4811,-27.703 60.1535,-21.2332"/>
</g>
<!-- Node29 -->
<g id="node29" class="node">
<title>Node29</title>
<polygon fill="none" stroke="#bfbfbf" points="136,-.5 136,-20.5 190,-20.5 190,-.5 136,-.5"/>
<text text-anchor="middle" x="163" y="-7.5" font-family="FreeSans" font-size="10.00" fill="#000000">stdint.h</text>
</g>
<!-- Node23&#45;&gt;Node29 -->
<g id="edge37" class="edge">
<title>Node23&#45;&gt;Node29</title>
<path fill="none" stroke="#191970" d="M163,-57.3095C163,-49.9335 163,-39.72 163,-30.715"/>
<polygon fill="#191970" stroke="#191970" points="166.5001,-30.6022 163,-20.6022 159.5001,-30.6023 166.5001,-30.6022"/>
</g>
<!-- Node30&#45;&gt;Node4 -->
<g id="edge39" class="edge">
<title>Node30&#45;&gt;Node4</title>
<path fill="none" stroke="#191970" d="M421.7951,-117.7375C497.9314,-106.4946 649.3153,-84.14 721.6682,-73.4557"/>
<polygon fill="#191970" stroke="#191970" points="722.3701,-76.8901 731.7515,-71.9668 721.3474,-69.9652 722.3701,-76.8901"/>
</g>
<!-- Node30&#45;&gt;Node17 -->
<g id="edge40" class="edge">
<title>Node30&#45;&gt;Node17</title>
<path fill="none" stroke="#191970" d="M401.9218,-114.378C442.5657,-99.0062 524.085,-70.1745 596,-57 730.3272,-32.3918 1158.973,-15.898 1281.1884,-11.6091"/>
<polygon fill="#191970" stroke="#191970" points="1281.5279,-15.0995 1291.4002,-11.2543 1281.2847,-8.1038 1281.5279,-15.0995"/>
</g>
<!-- Node30&#45;&gt;Node23 -->
<g id="edge42" class="edge">
<title>Node30&#45;&gt;Node23</title>
<path fill="none" stroke="#191970" d="M338.4102,-114.4408C302.0121,-104.7004 246.7948,-89.9239 208.0588,-79.558"/>
<polygon fill="#191970" stroke="#191970" points="208.6592,-76.0956 198.0943,-76.8914 206.8496,-82.8576 208.6592,-76.0956"/>
</g>
<!-- Node31 -->
<g id="node31" class="node">
<title>Node31</title>
<polygon fill="none" stroke="#bfbfbf" points="306,-57.5 306,-77.5 372,-77.5 372,-57.5 306,-57.5"/>
<text text-anchor="middle" x="339" y="-64.5" font-family="FreeSans" font-size="10.00" fill="#000000">stdexcept</text>
</g>
<!-- Node30&#45;&gt;Node31 -->
<g id="edge41" class="edge">
<title>Node30&#45;&gt;Node31</title>
<path fill="none" stroke="#191970" d="M369.3851,-114.3095C364.3341,-106.5282 357.2332,-95.589 351.166,-86.2423"/>
<polygon fill="#191970" stroke="#191970" points="353.9381,-84.0844 345.5576,-77.6022 348.0666,-87.8957 353.9381,-84.0844"/>
</g>
<!-- Node32&#45;&gt;Node9 -->
<g id="edge63" class="edge">
<title>Node32&#45;&gt;Node9</title>
<path fill="none" stroke="#191970" d="M1259.9486,-351.631C1386.0681,-348.2161 1716.6178,-331.4211 1779,-249 1792.4191,-231.2703 1776.9753,-189.1479 1763,-171 1752.2248,-157.0076 1735.9472,-146.4086 1720.962,-138.8902"/>
<polygon fill="#191970" stroke="#191970" points="1722.3977,-135.6977 1711.8594,-134.6043 1719.4157,-142.0308 1722.3977,-135.6977"/>
</g>
<!-- Node32&#45;&gt;Node12 -->
<g id="edge80" class="edge">
<title>Node32&#45;&gt;Node12</title>
<path fill="none" stroke="#191970" d="M1259.5926,-350.9823C1368.2436,-347.1044 1627.7427,-335.0157 1710,-306 1837.6726,-260.9644 1872.2468,-207.4147 1912,-78 1914.7406,-69.0781 1916.8896,-64.95 1912,-57 1899.5113,-36.6945 1875.1111,-24.9306 1854.5762,-18.3169"/>
<polygon fill="#191970" stroke="#191970" points="1855.4561,-14.9276 1844.8751,-15.4691 1853.4843,-21.6442 1855.4561,-14.9276"/>
</g>
<!-- Node32&#45;&gt;Node16 -->
<g id="edge44" class="edge">
<title>Node32&#45;&gt;Node16</title>
<path fill="none" stroke="#191970" d="M1199.1626,-342.3214C1189.3693,-333.4544 1175.5635,-319.8746 1166,-306 1128.7595,-251.9718 1100.2584,-179.0472 1087.8307,-144.3882"/>
<polygon fill="#191970" stroke="#191970" points="1090.9907,-142.8237 1084.3699,-134.5523 1084.3875,-145.1471 1090.9907,-142.8237"/>
</g>
<!-- Node32&#45;&gt;Node18 -->
<g id="edge81" class="edge">
<title>Node32&#45;&gt;Node18</title>
<path fill="none" stroke="#191970" d="M1208.2354,-342.1814C1205.7392,-332.7742 1202.0076,-318.4824 1199,-306 1178.5162,-220.9857 1188.5302,-195.1714 1156,-114 1152.1286,-104.3398 1146.3865,-94.3606 1141.1083,-86.1354"/>
<polygon fill="#191970" stroke="#191970" points="1143.9387,-84.0716 1135.4705,-77.7046 1138.1199,-87.9628 1143.9387,-84.0716"/>
</g>
<!-- Node32&#45;&gt;Node33 -->
<g id="edge45" class="edge">
<title>Node32&#45;&gt;Node33</title>
<path fill="none" stroke="#191970" d="M1162.3438,-349.0202C1023.5848,-339.0964 626.1613,-310.6734 474.1383,-299.801"/>
<polygon fill="#191970" stroke="#191970" points="474.2782,-296.3021 464.054,-299.0798 473.7788,-303.2843 474.2782,-296.3021"/>
</g>
<!-- Node32&#45;&gt;Node37 -->
<g id="edge64" class="edge">
<title>Node32&#45;&gt;Node37</title>
<path fill="none" stroke="#191970" d="M1259.6451,-343.4682C1313.3159,-333.5032 1399.7467,-317.4558 1457.6839,-306.6987"/>
<polygon fill="#191970" stroke="#191970" points="1458.6054,-310.0876 1467.7984,-304.8208 1457.3275,-303.2052 1458.6054,-310.0876"/>
</g>
<!-- Node38 -->
<g id="node38" class="node">
<title>Node38</title>
<g id="a_node38"><a xlink:href="../../de/daa/PartonShower_8h.html" target="_top" xlink:title="PartonShower.h">
<polygon fill="none" stroke="#ff0000" points="1504,-228.5 1504,-248.5 1598,-248.5 1598,-228.5 1504,-228.5"/>
<text text-anchor="middle" x="1551" y="-235.5" font-family="FreeSans" font-size="10.00" fill="#000000">PartonShower.h</text>
</a>
</g>
</g>
<!-- Node32&#45;&gt;Node38 -->
<g id="edge72" class="edge">
<title>Node32&#45;&gt;Node38</title>
<path fill="none" stroke="#191970" d="M1240.8747,-342.4832C1302.1905,-321.9244 1442.2623,-274.9591 1511.192,-251.8474"/>
<polygon fill="#191970" stroke="#191970" points="1512.4593,-255.1141 1520.8279,-248.6165 1510.2339,-248.4772 1512.4593,-255.1141"/>
</g>
<!-- Node40 -->
<g id="node40" class="node">
<title>Node40</title>
<g id="a_node40"><a xlink:href="../../da/d01/PartonPrinter_8h.html" target="_top" xlink:title="PartonPrinter.h">
<polygon fill="none" stroke="#ff0000" points="1208,-285.5 1208,-305.5 1298,-305.5 1298,-285.5 1208,-285.5"/>
<text text-anchor="middle" x="1253" y="-292.5" font-family="FreeSans" font-size="10.00" fill="#000000">PartonPrinter.h</text>
</a>
</g>
</g>
<!-- Node32&#45;&gt;Node40 -->
<g id="edge73" class="edge">
<title>Node32&#45;&gt;Node40</title>
<path fill="none" stroke="#191970" d="M1218.5088,-342.3095C1224.3618,-334.3661 1232.6397,-323.1319 1239.6188,-313.6602"/>
<polygon fill="#191970" stroke="#191970" points="1242.4419,-315.729 1245.5562,-305.6022 1236.8065,-311.5766 1242.4419,-315.729"/>
</g>
<!-- Node41 -->
<g id="node41" class="node">
<title>Node41</title>
<g id="a_node41"><a xlink:href="../../dd/d70/MakeUniqueHelper_8h.html" target="_top" xlink:title="MakeUniqueHelper.h">
<polygon fill="none" stroke="#ff0000" points="992.5,-285.5 992.5,-305.5 1113.5,-305.5 1113.5,-285.5 992.5,-285.5"/>
<text text-anchor="middle" x="1053" y="-292.5" font-family="FreeSans" font-size="10.00" fill="#000000">MakeUniqueHelper.h</text>
</a>
</g>
</g>
<!-- Node32&#45;&gt;Node41 -->
<g id="edge78" class="edge">
<title>Node32&#45;&gt;Node41</title>
<path fill="none" stroke="#191970" d="M1183.1165,-342.4408C1157.361,-333.1492 1118.9026,-319.275 1090.4712,-309.0181"/>
<polygon fill="#191970" stroke="#191970" points="1091.4644,-305.6557 1080.8701,-305.5544 1089.0889,-312.2403 1091.4644,-305.6557"/>
</g>
<!-- Node33&#45;&gt;Node4 -->
<g id="edge51" class="edge">
<title>Node33&#45;&gt;Node4</title>
<path fill="none" stroke="#191970" d="M434.4159,-285.4409C452.2891,-276.4347 478.7969,-262.5897 501,-249 593.0438,-192.6634 696.7434,-116.5035 740.5983,-83.6668"/>
<polygon fill="#191970" stroke="#191970" points="742.8921,-86.3213 748.7867,-77.5177 738.6886,-80.7239 742.8921,-86.3213"/>
</g>
<!-- Node33&#45;&gt;Node8 -->
<g id="edge46" class="edge">
<title>Node33&#45;&gt;Node8</title>
<path fill="none" stroke="#191970" d="M411.7967,-285.4788C407.3632,-262.4883 399.9507,-205.2989 427,-171 456.7693,-133.2521 484.5227,-153.2451 529,-135 604.4177,-104.0629 617.7678,-83.0793 695,-57 755.2258,-36.6633 827.9905,-23.1707 871.8243,-16.1831"/>
<polygon fill="#191970" stroke="#191970" points="872.4469,-19.6284 881.7874,-14.6278 871.3672,-12.7121 872.4469,-19.6284"/>
</g>
<!-- Node33&#45;&gt;Node12 -->
<g id="edge47" class="edge">
<title>Node33&#45;&gt;Node12</title>
<path fill="none" stroke="#191970" d="M464.2376,-292.1114C523.105,-287.0883 623.0238,-275.2605 705,-249 887.4726,-190.5463 905.9638,-106.7463 1091,-57 1224.4316,-21.1274 1658.8694,-12.6334 1785.2297,-10.8996"/>
<polygon fill="#191970" stroke="#191970" points="1785.5251,-14.3961 1795.4781,-10.7647 1785.4329,-7.3967 1785.5251,-14.3961"/>
</g>
<!-- Node33&#45;&gt;Node14 -->
<g id="edge52" class="edge">
<title>Node33&#45;&gt;Node14</title>
<path fill="none" stroke="#191970" d="M399.9581,-285.4821C388.8441,-276.9105 373.6387,-263.6595 364,-249 354.5107,-234.5677 348.254,-215.9296 344.5153,-201.8961"/>
<polygon fill="#191970" stroke="#191970" points="347.8206,-200.678 342.0431,-191.797 341.0213,-202.3424 347.8206,-200.678"/>
</g>
<!-- Node33&#45;&gt;Node16 -->
<g id="edge53" class="edge">
<title>Node33&#45;&gt;Node16</title>
<path fill="none" stroke="#191970" d="M464.1754,-289.9785C522.5613,-282.9801 621.6178,-269.3259 705,-249 833.0429,-217.7873 980.1145,-163.5267 1045.952,-138.2243"/>
<polygon fill="#191970" stroke="#191970" points="1047.3668,-141.43 1055.4355,-134.5636 1044.846,-134.8996 1047.3668,-141.43"/>
</g>
<!-- Node33&#45;&gt;Node23 -->
<g id="edge54" class="edge">
<title>Node33&#45;&gt;Node23</title>
<path fill="none" stroke="#191970" d="M384.6311,-285.3545C363.2241,-277.2377 334.0549,-264.6415 311,-249 250.9197,-208.2389 235.7289,-194.4122 194,-135 183.6049,-120.1999 175.2954,-101.3567 169.9062,-87.3427"/>
<polygon fill="#191970" stroke="#191970" points="173.1026,-85.8935 166.3682,-77.7143 166.5321,-88.3079 173.1026,-85.8935"/>
</g>
<!-- Node33&#45;&gt;Node28 -->
<g id="edge48" class="edge">
<title>Node33&#45;&gt;Node28</title>
<path fill="none" stroke="#191970" d="M363.8318,-289.3053C269.2551,-276.2192 74,-241.8897 74,-181.5 74,-181.5 74,-181.5 74,-124.5 74,-88.3086 52.8975,-50.5227 38.3895,-28.8214"/>
<polygon fill="#191970" stroke="#191970" points="41.2321,-26.7786 32.6563,-20.5572 35.4806,-30.7687 41.2321,-26.7786"/>
</g>
<!-- Node33&#45;&gt;Node31 -->
<g id="edge49" class="edge">
<title>Node33&#45;&gt;Node31</title>
<path fill="none" stroke="#191970" d="M392.3575,-285.395C362.5824,-270.0854 310.4599,-237.8583 291,-192 275.0533,-154.4209 303.806,-109.5837 323.2751,-85.2879"/>
<polygon fill="#191970" stroke="#191970" points="325.9718,-87.519 329.6858,-77.5965 320.5947,-83.0372 325.9718,-87.519"/>
</g>
<!-- Node34 -->
<g id="node34" class="node">
<title>Node34</title>
<polygon fill="none" stroke="#bfbfbf" points="444,-228.5 444,-248.5 492,-248.5 492,-228.5 444,-228.5"/>
<text text-anchor="middle" x="468" y="-235.5" font-family="FreeSans" font-size="10.00" fill="#000000">cmath</text>
</g>
<!-- Node33&#45;&gt;Node34 -->
<g id="edge50" class="edge">
<title>Node33&#45;&gt;Node34</title>
<path fill="none" stroke="#191970" d="M423.6541,-285.3095C431.3331,-277.204 442.2582,-265.672 451.3428,-256.0826"/>
<polygon fill="#191970" stroke="#191970" points="454.0928,-258.2689 458.4295,-248.6022 449.0111,-253.4547 454.0928,-258.2689"/>
</g>
<!-- Node33&#45;&gt;Node35 -->
<g id="edge55" class="edge">
<title>Node33&#45;&gt;Node35</title>
<path fill="none" stroke="#191970" d="M450.7074,-285.4408C485.5017,-275.9058 537.9066,-261.5448 575.5851,-251.2195"/>
<polygon fill="#191970" stroke="#191970" points="576.5909,-254.573 585.3103,-248.5544 574.7408,-247.8219 576.5909,-254.573"/>
</g>
<!-- Node36 -->
<g id="node36" class="node">
<title>Node36</title>
<g id="a_node36"><a xlink:href="../../d2/d7a/RealType_8h.html" target="_top" xlink:title="RealType.h">
<polygon fill="none" stroke="#000000" points="436,-171.5 436,-191.5 506,-191.5 506,-171.5 436,-171.5"/>
<text text-anchor="middle" x="471" y="-178.5" font-family="FreeSans" font-size="10.00" fill="#000000">RealType.h</text>
</a>
</g>
</g>
<!-- Node33&#45;&gt;Node36 -->
<g id="edge62" class="edge">
<title>Node33&#45;&gt;Node36</title>
<path fill="none" stroke="#191970" d="M415.9472,-285.4569C418.8376,-271.8775 425.0215,-247.1571 435,-228 440.2508,-217.9195 447.7429,-207.8126 454.5339,-199.6086"/>
<polygon fill="#191970" stroke="#191970" points="457.3602,-201.6903 461.2338,-191.829 452.056,-197.1224 457.3602,-201.6903"/>
</g>
<!-- Node35&#45;&gt;Node12 -->
<g id="edge56" class="edge">
<title>Node35&#45;&gt;Node12</title>
<path fill="none" stroke="#191970" d="M624.0581,-228.2709C631.1186,-196.1939 657.626,-97.3225 723,-57 746.1527,-42.7194 1600.6553,-16.9224 1785.1264,-11.512"/>
<polygon fill="#191970" stroke="#191970" points="1785.4478,-15.0042 1795.3411,-11.2132 1785.243,-8.0072 1785.4478,-15.0042"/>
</g>
<!-- Node35&#45;&gt;Node14 -->
<g id="edge57" class="edge">
<title>Node35&#45;&gt;Node14</title>
<path fill="none" stroke="#191970" d="M572.2332,-228.4408C520.9435,-218.0737 441.4289,-202.0016 390.0395,-191.6144"/>
<polygon fill="#191970" stroke="#191970" points="390.6485,-188.1668 380.1533,-189.6161 389.2616,-195.028 390.6485,-188.1668"/>
</g>
<!-- Node35&#45;&gt;Node16 -->
<g id="edge58" class="edge">
<title>Node35&#45;&gt;Node16</title>
<path fill="none" stroke="#191970" d="M662.3309,-228.4832C746.1455,-207.6665 938.965,-159.7767 1030.7153,-136.989"/>
<polygon fill="#191970" stroke="#191970" points="1031.7351,-140.3422 1040.5965,-134.5348 1030.0477,-133.5485 1031.7351,-140.3422"/>
</g>
<!-- Node35&#45;&gt;Node23 -->
<g id="edge59" class="edge">
<title>Node35&#45;&gt;Node23</title>
<path fill="none" stroke="#191970" d="M547.4759,-230.0728C457.1637,-219.5426 314.1365,-201.7263 291,-192 238.3947,-169.8853 195.2604,-115.2024 175.1759,-86.2222"/>
<polygon fill="#191970" stroke="#191970" points="177.9789,-84.119 169.4821,-77.7901 172.1777,-88.0363 177.9789,-84.119"/>
</g>
<!-- Node35&#45;&gt;Node36 -->
<g id="edge60" class="edge">
<title>Node35&#45;&gt;Node36</title>
<path fill="none" stroke="#191970" d="M595.3518,-228.4408C570.8449,-219.1898 534.3036,-205.3961 507.1676,-195.1527"/>
<polygon fill="#191970" stroke="#191970" points="508.227,-191.8116 497.6353,-191.5544 505.7549,-198.3605 508.227,-191.8116"/>
</g>
<!-- Node36&#45;&gt;Node15 -->
<g id="edge61" class="edge">
<title>Node36&#45;&gt;Node15</title>
<path fill="none" stroke="#191970" d="M476.0058,-171.3095C479.7486,-163.6903 484.9787,-153.0435 489.5053,-143.8285"/>
<polygon fill="#191970" stroke="#191970" points="492.7698,-145.121 494.0375,-134.6022 486.487,-142.0346 492.7698,-145.121"/>
</g>
<!-- Node37&#45;&gt;Node9 -->
<g id="edge70" class="edge">
<title>Node37&#45;&gt;Node9</title>
<path fill="none" stroke="#191970" d="M1568.1898,-293.1479C1631.8255,-288.9924 1736.1576,-277.8599 1760,-249 1789.3153,-213.5155 1738.6927,-165.6594 1706.8652,-140.8865"/>
<polygon fill="#191970" stroke="#191970" points="1708.9395,-138.0671 1698.8534,-134.8236 1704.7154,-143.649 1708.9395,-138.0671"/>
</g>
<!-- Node37&#45;&gt;Node16 -->
<g id="edge66" class="edge">
<title>Node37&#45;&gt;Node16</title>
<path fill="none" stroke="#191970" d="M1500.5401,-285.4727C1459.8824,-262.4694 1355.2446,-205.2547 1262,-171 1222.6108,-156.5298 1176.8208,-144.8116 1141.1524,-136.7583"/>
<polygon fill="#191970" stroke="#191970" points="1141.8954,-133.3381 1131.3742,-134.5848 1140.3765,-140.1714 1141.8954,-133.3381"/>
</g>
<!-- Node37&#45;&gt;Node17 -->
<g id="edge65" class="edge">
<title>Node37&#45;&gt;Node17</title>
<path fill="none" stroke="#191970" d="M1512.6868,-285.308C1490.1727,-242.215 1402.9725,-76.2987 1385,-57 1373.3325,-44.4716 1357.6307,-33.737 1343.96,-25.7487"/>
<polygon fill="#191970" stroke="#191970" points="1345.3294,-22.504 1334.8947,-20.6688 1341.9074,-28.6106 1345.3294,-22.504"/>
</g>
<!-- Node37&#45;&gt;Node38 -->
<g id="edge67" class="edge">
<title>Node37&#45;&gt;Node38</title>
<path fill="none" stroke="#191970" d="M1523.8997,-285.3095C1528.3578,-277.6093 1534.6062,-266.8166 1539.9798,-257.5349"/>
<polygon fill="#191970" stroke="#191970" points="1543.1699,-259.0102 1545.1513,-248.6022 1537.1119,-255.5029 1543.1699,-259.0102"/>
</g>
<!-- Node39 -->
<g id="node39" class="node">
<title>Node39</title>
<g id="a_node39"><a xlink:href="../../d4/d77/JetScapeEventHeader_8h.html" target="_top" xlink:title="JetScapeEventHeader.h">
<polygon fill="none" stroke="#000000" points="1616.5,-228.5 1616.5,-248.5 1751.5,-248.5 1751.5,-228.5 1616.5,-228.5"/>
<text text-anchor="middle" x="1684" y="-235.5" font-family="FreeSans" font-size="10.00" fill="#000000">JetScapeEventHeader.h</text>
</a>
</g>
</g>
<!-- Node37&#45;&gt;Node39 -->
<g id="edge71" class="edge">
<title>Node37&#45;&gt;Node39</title>
<path fill="none" stroke="#191970" d="M1547.2954,-285.4408C1574.473,-276.1087 1615.1137,-262.1537 1645.0223,-251.8839"/>
<polygon fill="#191970" stroke="#191970" points="1646.3975,-255.1124 1654.7188,-248.5544 1644.1241,-248.4918 1646.3975,-255.1124"/>
</g>
<!-- Node38&#45;&gt;Node3 -->
<g id="edge69" class="edge">
<title>Node38&#45;&gt;Node3</title>
<path fill="none" stroke="#191970" d="M1550.4637,-228.3095C1550.0754,-220.9335 1549.5379,-210.72 1549.0639,-201.715"/>
<polygon fill="#191970" stroke="#191970" points="1552.5525,-201.4044 1548.5317,-191.6022 1545.5622,-201.7724 1552.5525,-201.4044"/>
</g>
<!-- Node38&#45;&gt;Node9 -->
<g id="edge68" class="edge">
<title>Node38&#45;&gt;Node9</title>
<path fill="none" stroke="#191970" d="M1580.1087,-228.3606C1599.3014,-220.6092 1624.1048,-208.4485 1642,-192 1656.6963,-178.4918 1668.1922,-158.7031 1675.4133,-144.0413"/>
<polygon fill="#191970" stroke="#191970" points="1678.646,-145.3908 1679.7163,-134.8502 1672.3064,-142.4227 1678.646,-145.3908"/>
</g>
<!-- Node40&#45;&gt;Node12 -->
<g id="edge76" class="edge">
<title>Node40&#45;&gt;Node12</title>
<path fill="none" stroke="#191970" d="M1286.0609,-285.397C1332.4626,-271.4195 1419.6731,-245.8859 1495,-228 1575.6498,-208.8502 1602.9614,-227.2182 1678,-192 1749.1481,-158.6077 1794.7196,-69.5876 1812.0722,-29.9763"/>
<polygon fill="#191970" stroke="#191970" points="1815.36,-31.1883 1816.0463,-20.6157 1808.9166,-28.4527 1815.36,-31.1883"/>
</g>
<!-- Node40&#45;&gt;Node16 -->
<g id="edge74" class="edge">
<title>Node40&#45;&gt;Node16</title>
<path fill="none" stroke="#191970" d="M1245.8904,-285.3651C1229.9777,-263.0973 1189.6114,-208.8757 1148,-171 1135.3238,-159.4618 1119.6532,-148.4374 1106.6552,-140.0212"/>
<polygon fill="#191970" stroke="#191970" points="1108.4742,-137.0304 1098.1532,-134.6371 1104.729,-142.9443 1108.4742,-137.0304"/>
</g>
<!-- Node40&#45;&gt;Node17 -->
<g id="edge77" class="edge">
<title>Node40&#45;&gt;Node17</title>
<path fill="none" stroke="#191970" d="M1255.171,-285.3567C1264.0465,-243.8892 1297.6696,-86.7977 1309.6928,-30.624"/>
<polygon fill="#191970" stroke="#191970" points="1313.1845,-31.0328 1311.855,-20.5218 1306.3395,-29.5677 1313.1845,-31.0328"/>
</g>
<!-- Node40&#45;&gt;Node38 -->
<g id="edge75" class="edge">
<title>Node40&#45;&gt;Node38</title>
<path fill="none" stroke="#191970" d="M1298.2598,-286.8429C1350.6371,-276.8244 1436.9673,-260.3116 1493.9098,-249.4199"/>
<polygon fill="#191970" stroke="#191970" points="1494.6706,-252.8379 1503.835,-247.5215 1493.3555,-245.9626 1494.6706,-252.8379"/>
</g>
<!-- Node41&#45;&gt;Node8 -->
<g id="edge79" class="edge">
<title>Node41&#45;&gt;Node8</title>
<path fill="none" stroke="#191970" d="M1061.1379,-285.4012C1070.7581,-272.1728 1084.5637,-248.2763 1077,-228 1046.1666,-145.344 996.9599,-150.7099 947,-78 936.3479,-62.4973 926.4638,-43.4888 919.758,-29.5981"/>
<polygon fill="#191970" stroke="#191970" points="922.9035,-28.0622 915.4714,-20.5113 916.5726,-31.0488 922.9035,-28.0622"/>
</g>
<!-- Node42&#45;&gt;Node9 -->
<g id="edge84" class="edge">
<title>Node42&#45;&gt;Node9</title>
<path fill="none" stroke="#191970" d="M2117.7995,-172.0838C2114.8273,-171.7122 2111.8844,-171.3494 2109,-171 1969.6552,-154.1191 1804.2677,-136.8042 1727.3487,-128.9079"/>
<polygon fill="#191970" stroke="#191970" points="1727.3988,-125.3948 1717.0941,-127.8573 1726.6853,-132.3584 1727.3988,-125.3948"/>
</g>
<!-- Node42&#45;&gt;Node12 -->
<g id="edge86" class="edge">
<title>Node42&#45;&gt;Node12</title>
<path fill="none" stroke="#191970" d="M2176.5372,-171.4506C2149.0726,-147.8924 2076.5324,-88.7066 2006,-57 1955.9111,-34.4834 1893.1281,-21.6757 1854.8183,-15.415"/>
<polygon fill="#191970" stroke="#191970" points="1855.1157,-11.9188 1844.6929,-13.8201 1854.0265,-18.8335 1855.1157,-11.9188"/>
</g>
<!-- Node42&#45;&gt;Node19 -->
<g id="edge83" class="edge">
<title>Node42&#45;&gt;Node19</title>
<path fill="none" stroke="#191970" d="M2158.9161,-171.4832C2099.3457,-150.9665 1963.4179,-104.1515 1896.1677,-80.9898"/>
<polygon fill="#191970" stroke="#191970" points="1896.9682,-77.5638 1886.3735,-77.6165 1894.6887,-84.1822 1896.9682,-77.5638"/>
</g>
<!-- Node42&#45;&gt;Node21 -->
<g id="edge85" class="edge">
<title>Node42&#45;&gt;Node21</title>
<path fill="none" stroke="#191970" d="M2183.8291,-171.3833C2176.0445,-152.5017 2159.1807,-111.598 2149.0919,-87.1272"/>
<polygon fill="#191970" stroke="#191970" points="2152.2766,-85.669 2145.2292,-77.7579 2145.805,-88.3371 2152.2766,-85.669"/>
</g>
<!-- Node43&#45;&gt;Node9 -->
<g id="edge92" class="edge">
<title>Node43&#45;&gt;Node9</title>
<path fill="none" stroke="#191970" d="M1068.2027,-236.6224C1195.9604,-230.9678 1559.7441,-213.1783 1609,-192 1633.8489,-181.3159 1656.0068,-158.9642 1669.6801,-142.9063"/>
<polygon fill="#191970" stroke="#191970" points="1672.7353,-144.7 1676.3667,-134.7469 1667.3211,-140.2631 1672.7353,-144.7"/>
</g>
<!-- Node43&#45;&gt;Node12 -->
<g id="edge93" class="edge">
<title>Node43&#45;&gt;Node12</title>
<path fill="none" stroke="#191970" d="M1068.3863,-238.0432C1191.318,-236.322 1534.1112,-228.3085 1640,-192 1683.3762,-177.1266 1694.923,-168.7185 1726,-135 1752.8278,-105.8919 1744.4902,-88.0851 1769,-57 1777.6939,-45.9738 1789.1152,-35.2984 1798.9451,-26.9632"/>
<polygon fill="#191970" stroke="#191970" points="1801.2346,-29.6119 1806.7332,-20.5557 1796.7871,-24.2063 1801.2346,-29.6119"/>
</g>
<!-- Node43&#45;&gt;Node14 -->
<g id="edge89" class="edge">
<title>Node43&#45;&gt;Node14</title>
<path fill="none" stroke="#191970" d="M979.7557,-235.6979C880.6602,-229.2808 633.3858,-212.4827 427,-192 415.1735,-190.8263 402.4638,-189.3912 390.511,-187.9635"/>
<polygon fill="#191970" stroke="#191970" points="390.5919,-184.4477 380.2431,-186.7176 389.7486,-191.3968 390.5919,-184.4477"/>
</g>
<!-- Node43&#45;&gt;Node16 -->
<g id="edge90" class="edge">
<title>Node43&#45;&gt;Node16</title>
<path fill="none" stroke="#191970" d="M1029.0584,-228.3833C1038.5413,-209.4174 1059.1338,-168.2323 1071.3498,-143.8004"/>
<polygon fill="#191970" stroke="#191970" points="1074.5293,-145.2675 1075.871,-134.7579 1068.2683,-142.137 1074.5293,-145.2675"/>
</g>
<!-- Node43&#45;&gt;Node23 -->
<g id="edge91" class="edge">
<title>Node43&#45;&gt;Node23</title>
<path fill="none" stroke="#191970" d="M979.8381,-232.6716C835.7166,-213.5573 384.7062,-152.9719 321,-135 273.9092,-121.7154 222.297,-97.7423 191.291,-82.2321"/>
<polygon fill="#191970" stroke="#191970" points="192.8608,-79.1039 182.3578,-77.7115 189.7001,-85.3497 192.8608,-79.1039"/>
</g>
<!-- Node46&#45;&gt;Node4 -->
<g id="edge122" class="edge">
<title>Node46&#45;&gt;Node4</title>
<path fill="none" stroke="#191970" d="M1392.2573,-407.4169C1286.1635,-403.4153 1094.878,-392.2796 1033,-363 965.5207,-331.07 820.8769,-145.2069 775.7428,-85.7705"/>
<polygon fill="#191970" stroke="#191970" points="778.4272,-83.5176 769.6025,-77.6545 772.8448,-87.741 778.4272,-83.5176"/>
</g>
<!-- Node46&#45;&gt;Node14 -->
<g id="edge103" class="edge">
<title>Node46&#45;&gt;Node14</title>
<path fill="none" stroke="#191970" d="M1392.236,-405.3936C1279.064,-398.6634 1054.1051,-383.9111 864,-363 798.399,-355.7841 782.518,-349.934 717,-342 636.745,-332.2814 412.7543,-362.5663 355,-306 327.3865,-278.9545 330.8592,-229.5424 335.5818,-201.7944"/>
<polygon fill="#191970" stroke="#191970" points="339.0764,-202.1551 337.5269,-191.6742 332.2022,-200.8338 339.0764,-202.1551"/>
</g>
<!-- Node46&#45;&gt;Node17 -->
<g id="edge123" class="edge">
<title>Node46&#45;&gt;Node17</title>
<path fill="none" stroke="#191970" d="M1461.1157,-399.2361C1441.0058,-346.098 1348.6125,-101.9595 1321.4995,-30.3165"/>
<polygon fill="#191970" stroke="#191970" points="1324.6716,-28.8099 1317.8587,-20.6961 1318.1248,-31.2876 1324.6716,-28.8099"/>
</g>
<!-- Node46&#45;&gt;Node21 -->
<g id="edge125" class="edge">
<title>Node46&#45;&gt;Node21</title>
<path fill="none" stroke="#191970" d="M1537.7054,-407.0435C1700.5129,-401.1759 2084.4268,-385.165 2139,-363 2218.3238,-330.7825 2286,-324.1167 2286,-238.5 2286,-238.5 2286,-238.5 2286,-181.5 2286,-127.4313 2222.922,-95.0934 2179.9735,-79.3418"/>
<polygon fill="#191970" stroke="#191970" points="2180.9377,-75.9709 2170.3429,-75.9604 2178.6187,-82.5756 2180.9377,-75.9709"/>
</g>
<!-- Node46&#45;&gt;Node32 -->
<g id="edge104" class="edge">
<title>Node46&#45;&gt;Node32</title>
<path fill="none" stroke="#191970" d="M1420.1746,-399.4408C1377.0526,-389.7638 1311.7799,-375.116 1265.636,-364.7608"/>
<polygon fill="#191970" stroke="#191970" points="1266.3275,-361.329 1255.8038,-362.5544 1264.7947,-368.1592 1266.3275,-361.329"/>
</g>
<!-- Node46&#45;&gt;Node33 -->
<g id="edge118" class="edge">
<title>Node46&#45;&gt;Node33</title>
<path fill="none" stroke="#191970" d="M1392.3909,-406.3521C1263.7428,-400.2831 1000.9583,-385.5396 912,-363 889.4276,-357.2808 886.5168,-347.9343 864,-342 791.9699,-323.0165 579.6273,-306.6358 474.4469,-299.4229"/>
<polygon fill="#191970" stroke="#191970" points="474.5196,-295.9198 464.3051,-298.7331 474.0445,-302.9037 474.5196,-295.9198"/>
</g>
<!-- Node46&#45;&gt;Node35 -->
<g id="edge121" class="edge">
<title>Node46&#45;&gt;Node35</title>
<path fill="none" stroke="#191970" d="M1392.2785,-407.6122C1298.049,-403.985 1129.1127,-393.4507 988,-363 861.5806,-335.7199 718.1128,-278.9708 654.8852,-252.5711"/>
<polygon fill="#191970" stroke="#191970" points="656.0165,-249.2501 645.4414,-248.6039 653.3054,-255.7038 656.0165,-249.2501"/>
</g>
<!-- Node46&#45;&gt;Node37 -->
<g id="edge120" class="edge">
<title>Node46&#45;&gt;Node37</title>
<path fill="none" stroke="#191970" d="M1469.7034,-399.3833C1478.4817,-380.5017 1497.4983,-339.598 1508.8751,-315.1272"/>
<polygon fill="#191970" stroke="#191970" points="1512.1889,-316.3014 1513.231,-305.7579 1505.8413,-313.3503 1512.1889,-316.3014"/>
</g>
<!-- Node46&#45;&gt;Node42 -->
<g id="edge105" class="edge">
<title>Node46&#45;&gt;Node42</title>
<path fill="none" stroke="#191970" d="M1537.5411,-408.5916C1697.3446,-405.9839 2069.2313,-396.3639 2115,-363 2168.2066,-324.2141 2182.6922,-240.0867 2186.5894,-201.5327"/>
<polygon fill="#191970" stroke="#191970" points="2190.0792,-201.8013 2187.4611,-191.5351 2183.1057,-201.1932 2190.0792,-201.8013"/>
</g>
<!-- Node46&#45;&gt;Node43 -->
<g id="edge119" class="edge">
<title>Node46&#45;&gt;Node43</title>
<path fill="none" stroke="#191970" d="M1392.4546,-405.3998C1269.8074,-396.7136 1030.1714,-371.5687 983,-306 971.0673,-289.4135 986.9208,-269.2642 1002.254,-255.3208"/>
<polygon fill="#191970" stroke="#191970" points="1004.7402,-257.8004 1010.075,-248.6466 1000.1963,-252.4756 1004.7402,-257.8004"/>
</g>
<!-- Node47 -->
<g id="node47" class="node">
<title>Node47</title>
<g id="a_node47"><a xlink:href="../../da/ddb/HadronizationManager_8h.html" target="_top" xlink:title="HadronizationManager.h">
<polygon fill="none" stroke="#000000" points="1960,-171.5 1960,-191.5 2100,-191.5 2100,-171.5 1960,-171.5"/>
<text text-anchor="middle" x="2030" y="-178.5" font-family="FreeSans" font-size="10.00" fill="#000000">HadronizationManager.h</text>
</a>
</g>
</g>
<!-- Node46&#45;&gt;Node47 -->
<g id="edge106" class="edge">
<title>Node46&#45;&gt;Node47</title>
<path fill="none" stroke="#191970" d="M1537.624,-406.7078C1673.6772,-399.833 1958.9333,-377.096 2022,-306 2047.3914,-277.3759 2041.5484,-228.9696 2035.4877,-201.7147"/>
<polygon fill="#191970" stroke="#191970" points="2038.8285,-200.642 2033.0514,-191.7609 2032.0293,-202.3063 2038.8285,-200.642"/>
</g>
<!-- Node48 -->
<g id="node48" class="node">
<title>Node48</title>
<g id="a_node48"><a xlink:href="../../db/dba/Hadronization_8h.html" target="_top" xlink:title="Hadronization.h">
<polygon fill="none" stroke="#000000" points="1548,-342.5 1548,-362.5 1644,-362.5 1644,-342.5 1548,-342.5"/>
<text text-anchor="middle" x="1596" y="-349.5" font-family="FreeSans" font-size="10.00" fill="#000000">Hadronization.h</text>
</a>
</g>
</g>
<!-- Node46&#45;&gt;Node48 -->
<g id="edge111" class="edge">
<title>Node46&#45;&gt;Node48</title>
<path fill="none" stroke="#191970" d="M1488.1186,-399.4408C1509.0353,-390.3396 1540.0569,-376.8416 1563.4728,-366.6531"/>
<polygon fill="#191970" stroke="#191970" points="1564.8987,-369.8497 1572.6719,-362.6504 1562.1058,-363.4309 1564.8987,-369.8497"/>
</g>
<!-- Node49 -->
<g id="node49" class="node">
<title>Node49</title>
<polygon fill="none" stroke="#bfbfbf" points="2066.5,-342.5 2066.5,-362.5 2105.5,-362.5 2105.5,-342.5 2066.5,-342.5"/>
<text text-anchor="middle" x="2086" y="-349.5" font-family="FreeSans" font-size="10.00" fill="#000000">map</text>
</g>
<!-- Node46&#45;&gt;Node49 -->
<g id="edge124" class="edge">
<title>Node46&#45;&gt;Node49</title>
<path fill="none" stroke="#191970" d="M1537.5947,-405.7537C1672.1491,-398.4775 1955.3622,-381.5144 2052,-363 2053.479,-362.7167 2054.9845,-362.3921 2056.4982,-362.0367"/>
<polygon fill="#191970" stroke="#191970" points="2057.6712,-365.3452 2066.4098,-359.3546 2055.8428,-358.5882 2057.6712,-365.3452"/>
</g>
<!-- Node47&#45;&gt;Node9 -->
<g id="edge108" class="edge">
<title>Node47&#45;&gt;Node9</title>
<path fill="none" stroke="#191970" d="M1968.9386,-171.4408C1899.6157,-160.0205 1788.2686,-141.6772 1727.3205,-131.6366"/>
<polygon fill="#191970" stroke="#191970" points="1727.7026,-128.1525 1717.2667,-129.9803 1726.5647,-135.0594 1727.7026,-128.1525"/>
</g>
<!-- Node47&#45;&gt;Node12 -->
<g id="edge110" class="edge">
<title>Node47&#45;&gt;Node12</title>
<path fill="none" stroke="#191970" d="M2029.2838,-171.4378C2027.0542,-147.8521 2018.1657,-88.6111 1984,-57 1965.1861,-39.5928 1896.7481,-24.453 1854.4541,-16.4818"/>
<polygon fill="#191970" stroke="#191970" points="1855.037,-13.0303 1844.5681,-14.659 1853.7676,-19.9143 1855.037,-13.0303"/>
</g>
<!-- Node47&#45;&gt;Node19 -->
<g id="edge107" class="edge">
<title>Node47&#45;&gt;Node19</title>
<path fill="none" stroke="#191970" d="M1995.1711,-171.4817C1971.9823,-163.7828 1941.5631,-151.6352 1918,-135 1898.9796,-121.5719 1881.6386,-101.228 1870.3493,-86.3847"/>
<polygon fill="#191970" stroke="#191970" points="1872.8926,-83.9363 1864.1412,-77.9645 1867.2584,-88.0904 1872.8926,-83.9363"/>
</g>
<!-- Node47&#45;&gt;Node21 -->
<g id="edge109" class="edge">
<title>Node47&#45;&gt;Node21</title>
<path fill="none" stroke="#191970" d="M2039.8505,-171.3833C2058.7277,-151.9959 2100.2115,-109.3909 2123.7688,-85.1969"/>
<polygon fill="#191970" stroke="#191970" points="2126.5435,-87.3643 2131.012,-77.7579 2121.5282,-82.481 2126.5435,-87.3643"/>
</g>
<!-- Node48&#45;&gt;Node9 -->
<g id="edge113" class="edge">
<title>Node48&#45;&gt;Node9</title>
<path fill="none" stroke="#191970" d="M1644.1337,-348.7504C1727.3796,-341.7737 1891.0156,-325.7034 1908,-306 1948.127,-259.4493 1987.2913,-287.4945 1832,-171 1801.3201,-147.9849 1758.9774,-136.1863 1727.44,-130.2471"/>
<polygon fill="#191970" stroke="#191970" points="1727.6457,-126.7298 1717.1914,-128.4498 1726.4365,-133.6246 1727.6457,-126.7298"/>
</g>
<!-- Node48&#45;&gt;Node12 -->
<g id="edge116" class="edge">
<title>Node48&#45;&gt;Node12</title>
<path fill="none" stroke="#191970" d="M1644.1739,-349.2431C1732.8645,-342.7657 1914.7297,-327.0561 1934,-306 1943.3484,-295.7852 1952.9021,-68.3707 1945,-57 1934.3723,-41.7073 1887.7465,-27.2734 1854.5581,-18.6572"/>
<polygon fill="#191970" stroke="#191970" points="1855.2973,-15.234 1844.7444,-16.1754 1853.5811,-22.0203 1855.2973,-15.234"/>
</g>
<!-- Node48&#45;&gt;Node16 -->
<g id="edge112" class="edge">
<title>Node48&#45;&gt;Node16</title>
<path fill="none" stroke="#191970" d="M1562.648,-342.4188C1534.6497,-333.6623 1493.7674,-320.187 1459,-306 1389.5143,-277.646 1186.7606,-177.2319 1110.4791,-139.2239"/>
<polygon fill="#191970" stroke="#191970" points="1111.9169,-136.0299 1101.4059,-134.7001 1108.7935,-142.2944 1111.9169,-136.0299"/>
</g>
<!-- Node48&#45;&gt;Node18 -->
<g id="edge117" class="edge">
<title>Node48&#45;&gt;Node18</title>
<path fill="none" stroke="#191970" d="M1631.0551,-342.426C1691.5665,-323.3738 1805.0127,-279.3382 1760,-228 1719.6583,-181.9892 1546.5459,-206.0972 1487,-192 1363.6093,-162.7879 1223.1199,-107.2539 1160.7728,-81.3944"/>
<polygon fill="#191970" stroke="#191970" points="1162.0288,-78.1261 1151.452,-77.5075 1159.3345,-84.5868 1162.0288,-78.1261"/>
</g>
<!-- Node48&#45;&gt;Node37 -->
<g id="edge114" class="edge">
<title>Node48&#45;&gt;Node37</title>
<path fill="none" stroke="#191970" d="M1582.0552,-342.3095C1570.4088,-333.7987 1553.5929,-321.5102 1540.1128,-311.6594"/>
<polygon fill="#191970" stroke="#191970" points="1541.9631,-308.6766 1531.8241,-305.6022 1537.833,-314.3283 1541.9631,-308.6766"/>
</g>
<!-- Node48&#45;&gt;Node38 -->
<g id="edge115" class="edge">
<title>Node48&#45;&gt;Node38</title>
<path fill="none" stroke="#191970" d="M1593.8922,-342.1854C1590.9633,-328.7238 1585.0948,-304.5754 1577,-285 1573.1386,-275.6622 1567.8378,-265.8256 1563.0294,-257.6167"/>
<polygon fill="#191970" stroke="#191970" points="1565.8988,-255.598 1557.7266,-248.8551 1559.9102,-259.2225 1565.8988,-255.598"/>
</g>
<!-- Node50&#45;&gt;Node3 -->
<g id="edge129" class="edge">
<title>Node50&#45;&gt;Node3</title>
<path fill="none" stroke="#191970" d="M1803.2052,-458.8301C1912.803,-441.8009 2150.6371,-397.8882 2115,-342 2050.4289,-240.7356 1985.1031,-262.281 1870,-228 1782.0051,-201.7926 1675.931,-190.1188 1610.2164,-185.0883"/>
<polygon fill="#191970" stroke="#191970" points="1610.2554,-181.5817 1600.0251,-184.3368 1609.7406,-188.5628 1610.2554,-181.5817"/>
</g>
</g>
</svg>
