<?xml version="1.0" encoding="UTF-8" standalone="no"?>
<!DOCTYPE svg PUBLIC "-//W3C//DTD SVG 1.1//EN"
 "http://www.w3.org/Graphics/SVG/1.1/DTD/svg11.dtd">
<!-- Generated by graphviz version 2.40.1 (20161225.0304)
 -->
<!-- Title: acts/blob/sPHENIX/Tests/UnitTests/Core/Definitions/UnitsTests.cpp Pages: 1 -->
<svg width="646pt" height="236pt"
 viewBox="0.00 0.00 645.50 236.00" xmlns="http://www.w3.org/2000/svg" xmlns:xlink="http://www.w3.org/1999/xlink">
<g id="graph0" class="graph" transform="scale(1 1) rotate(0) translate(4 232)">
<title>acts/blob/sPHENIX/Tests/UnitTests/Core/Definitions/UnitsTests.cpp</title>
<!-- Node1 -->
<g id="node1" class="node">
<title>Node1</title>
<polygon fill="#bfbfbf" stroke="#000000" points="338,-183.5 338,-227.5 489,-227.5 489,-183.5 338,-183.5"/>
<text text-anchor="start" x="346" y="-214.5" font-family="FreeSans" font-size="10.00" fill="#000000">acts/blob/sPHENIX/Tests</text>
<text text-anchor="start" x="346" y="-202.5" font-family="FreeSans" font-size="10.00" fill="#000000">/UnitTests/Core/Definitions</text>
<text text-anchor="middle" x="413.5" y="-190.5" font-family="FreeSans" font-size="10.00" fill="#000000">/UnitsTests.cpp</text>
</g>
<!-- Node2 -->
<g id="node2" class="node">
<title>Node2</title>
<polygon fill="none" stroke="#bfbfbf" points="0,-57.5 0,-77.5 137,-77.5 137,-57.5 0,-57.5"/>
<text text-anchor="middle" x="68.5" y="-64.5" font-family="FreeSans" font-size="10.00" fill="#000000">boost/test/unit_test.hpp</text>
</g>
<!-- Node1&#45;&gt;Node2 -->
<g id="edge1" class="edge">
<title>Node1&#45;&gt;Node2</title>
<path fill="none" stroke="#191970" d="M337.9961,-197.7517C285.9074,-190.1312 216.2712,-175.3254 160.5,-147 129.8157,-131.4159 100.9013,-103.4384 83.9471,-85.1732"/>
<polygon fill="#191970" stroke="#191970" points="86.3433,-82.6052 77.0355,-77.5439 81.1555,-87.3049 86.3433,-82.6052"/>
</g>
<!-- Node3 -->
<g id="node3" class="node">
<title>Node3</title>
<g id="a_node3"><a xlink:href="../../df/d6f/Units_8hpp.html" target="_top" xlink:title="Acts/Definitions/Units.hpp">
<polygon fill="none" stroke="#000000" points="169.5,-120.5 169.5,-140.5 317.5,-140.5 317.5,-120.5 169.5,-120.5"/>
<text text-anchor="middle" x="243.5" y="-127.5" font-family="FreeSans" font-size="10.00" fill="#000000">Acts/Definitions/Units.hpp</text>
</a>
</g>
</g>
<!-- Node1&#45;&gt;Node3 -->
<g id="edge2" class="edge">
<title>Node1&#45;&gt;Node3</title>
<path fill="none" stroke="#191970" d="M363.4139,-183.4032C335.0538,-170.8914 300.4176,-155.6107 275.6752,-144.6949"/>
<polygon fill="#191970" stroke="#191970" points="276.9448,-141.4296 266.3828,-140.5954 274.1192,-147.834 276.9448,-141.4296"/>
</g>
<!-- Node4 -->
<g id="node4" class="node">
<title>Node4</title>
<g id="a_node4"><a xlink:href="../../d4/d47/FloatComparisons_8hpp.html" target="_top" xlink:title="Acts/Tests/CommonHelpers\l/FloatComparisons.hpp">
<polygon fill="none" stroke="#000000" points="336,-114.5 336,-146.5 491,-146.5 491,-114.5 336,-114.5"/>
<text text-anchor="start" x="344" y="-133.5" font-family="FreeSans" font-size="10.00" fill="#000000">Acts/Tests/CommonHelpers</text>
<text text-anchor="middle" x="413.5" y="-121.5" font-family="FreeSans" font-size="10.00" fill="#000000">/FloatComparisons.hpp</text>
</a>
</g>
</g>
<!-- Node1&#45;&gt;Node4 -->
<g id="edge3" class="edge">
<title>Node1&#45;&gt;Node4</title>
<path fill="none" stroke="#191970" d="M413.5,-183.4032C413.5,-175.0476 413.5,-165.4571 413.5,-156.7565"/>
<polygon fill="#191970" stroke="#191970" points="417.0001,-156.7277 413.5,-146.7277 410.0001,-156.7277 417.0001,-156.7277"/>
</g>
<!-- Node13 -->
<g id="node13" class="node">
<title>Node13</title>
<polygon fill="none" stroke="#bfbfbf" points="593.5,-57.5 593.5,-77.5 637.5,-77.5 637.5,-57.5 593.5,-57.5"/>
<text text-anchor="middle" x="615.5" y="-64.5" font-family="FreeSans" font-size="10.00" fill="#000000">limits</text>
</g>
<!-- Node1&#45;&gt;Node13 -->
<g id="edge15" class="edge">
<title>Node1&#45;&gt;Node13</title>
<path fill="none" stroke="#191970" d="M448.4802,-183.3911C464.6375,-172.8238 483.8817,-159.7262 500.5,-147 518.2592,-133.4001 520.415,-127.1635 538.5,-114 554.2885,-102.508 573.0248,-91.1481 588.062,-82.5332"/>
<polygon fill="#191970" stroke="#191970" points="589.9023,-85.5135 596.8873,-77.5473 586.4591,-79.4189 589.9023,-85.5135"/>
</g>
<!-- Node14 -->
<g id="node14" class="node">
<title>Node14</title>
<polygon fill="none" stroke="#bfbfbf" points="547.5,-120.5 547.5,-140.5 595.5,-140.5 595.5,-120.5 547.5,-120.5"/>
<text text-anchor="middle" x="571.5" y="-127.5" font-family="FreeSans" font-size="10.00" fill="#000000">cmath</text>
</g>
<!-- Node1&#45;&gt;Node14 -->
<g id="edge14" class="edge">
<title>Node1&#45;&gt;Node14</title>
<path fill="none" stroke="#191970" d="M460.0506,-183.4032C486.1755,-171.0021 518.0308,-155.881 540.9834,-144.9857"/>
<polygon fill="#191970" stroke="#191970" points="542.6995,-148.0455 550.2324,-140.5954 539.6977,-141.7218 542.6995,-148.0455"/>
</g>
<!-- Node4&#45;&gt;Node2 -->
<g id="edge4" class="edge">
<title>Node4&#45;&gt;Node2</title>
<path fill="none" stroke="#191970" d="M335.7184,-115.712C332.6054,-115.1316 329.5234,-114.5591 326.5,-114 261.4662,-101.9727 187.1346,-88.6171 135.0145,-79.3164"/>
<polygon fill="#191970" stroke="#191970" points="135.3551,-75.822 124.8959,-77.5119 134.1261,-82.7133 135.3551,-75.822"/>
</g>
<!-- Node5 -->
<g id="node5" class="node">
<title>Node5</title>
<g id="a_node5"><a xlink:href="../../da/dd2/Algebra_8hpp.html" target="_top" xlink:title="Acts/Definitions/Algebra.hpp">
<polygon fill="none" stroke="#000000" points="155.5,-57.5 155.5,-77.5 317.5,-77.5 317.5,-57.5 155.5,-57.5"/>
<text text-anchor="middle" x="236.5" y="-64.5" font-family="FreeSans" font-size="10.00" fill="#000000">Acts/Definitions/Algebra.hpp</text>
</a>
</g>
</g>
<!-- Node4&#45;&gt;Node5 -->
<g id="edge5" class="edge">
<title>Node4&#45;&gt;Node5</title>
<path fill="none" stroke="#191970" d="M368.3775,-114.4394C339.2781,-104.082 301.8662,-90.7659 274.3271,-80.9639"/>
<polygon fill="#191970" stroke="#191970" points="275.2562,-77.5796 264.6616,-77.5236 272.9089,-84.1743 275.2562,-77.5796"/>
</g>
<!-- Node8 -->
<g id="node8" class="node">
<title>Node8</title>
<g id="a_node8"><a xlink:href="../../d0/d81/TypeTraits_8hpp.html" target="_top" xlink:title="Acts/Utilities/TypeTraits.hpp">
<polygon fill="none" stroke="#000000" points="335.5,-57.5 335.5,-77.5 491.5,-77.5 491.5,-57.5 335.5,-57.5"/>
<text text-anchor="middle" x="413.5" y="-64.5" font-family="FreeSans" font-size="10.00" fill="#000000">Acts/Utilities/TypeTraits.hpp</text>
</a>
</g>
</g>
<!-- Node4&#45;&gt;Node8 -->
<g id="edge8" class="edge">
<title>Node4&#45;&gt;Node8</title>
<path fill="none" stroke="#191970" d="M413.5,-114.2759C413.5,-106.2654 413.5,-96.5159 413.5,-87.9952"/>
<polygon fill="#191970" stroke="#191970" points="417.0001,-87.7512 413.5,-77.7513 410.0001,-87.7513 417.0001,-87.7512"/>
</g>
<!-- Node12 -->
<g id="node12" class="node">
<title>Node12</title>
<polygon fill="none" stroke="#bfbfbf" points="510,-57.5 510,-77.5 575,-77.5 575,-57.5 510,-57.5"/>
<text text-anchor="middle" x="542.5" y="-64.5" font-family="FreeSans" font-size="10.00" fill="#000000">algorithm</text>
</g>
<!-- Node4&#45;&gt;Node12 -->
<g id="edge12" class="edge">
<title>Node4&#45;&gt;Node12</title>
<path fill="none" stroke="#191970" d="M446.3859,-114.4394C466.7857,-104.4768 492.7907,-91.7766 512.6056,-82.0996"/>
<polygon fill="#191970" stroke="#191970" points="514.3342,-85.1505 521.784,-77.6171 511.2624,-78.8605 514.3342,-85.1505"/>
</g>
<!-- Node4&#45;&gt;Node13 -->
<g id="edge13" class="edge">
<title>Node4&#45;&gt;Node13</title>
<path fill="none" stroke="#191970" d="M467.1528,-114.4589C498.6018,-104.9569 539.3166,-92.4861 583.4149,-78.2977"/>
<polygon fill="#191970" stroke="#191970" points="584.7331,-81.55 593.1743,-75.1472 582.5827,-74.8885 584.7331,-81.55"/>
</g>
<!-- Node6 -->
<g id="node6" class="node">
<title>Node6</title>
<polygon fill="none" stroke="#bfbfbf" points="100,-.5 100,-20.5 171,-20.5 171,-.5 100,-.5"/>
<text text-anchor="middle" x="135.5" y="-7.5" font-family="FreeSans" font-size="10.00" fill="#000000">Eigen/Core</text>
</g>
<!-- Node5&#45;&gt;Node6 -->
<g id="edge6" class="edge">
<title>Node5&#45;&gt;Node6</title>
<path fill="none" stroke="#191970" d="M218.4432,-57.3095C202.7881,-48.4745 179.9195,-35.5684 162.1579,-25.5445"/>
<polygon fill="#191970" stroke="#191970" points="163.8295,-22.4691 153.4004,-20.6022 160.3891,-28.5653 163.8295,-22.4691"/>
</g>
<!-- Node7 -->
<g id="node7" class="node">
<title>Node7</title>
<polygon fill="none" stroke="#bfbfbf" points="189.5,-.5 189.5,-20.5 287.5,-20.5 287.5,-.5 189.5,-.5"/>
<text text-anchor="middle" x="238.5" y="-7.5" font-family="FreeSans" font-size="10.00" fill="#000000">Eigen/Geometry</text>
</g>
<!-- Node5&#45;&gt;Node7 -->
<g id="edge7" class="edge">
<title>Node5&#45;&gt;Node7</title>
<path fill="none" stroke="#191970" d="M236.8576,-57.3095C237.1164,-49.9335 237.4747,-39.72 237.7907,-30.715"/>
<polygon fill="#191970" stroke="#191970" points="241.2926,-30.7188 238.1455,-20.6022 234.2969,-30.4733 241.2926,-30.7188"/>
</g>
<!-- Node9 -->
<g id="node9" class="node">
<title>Node9</title>
<polygon fill="none" stroke="#bfbfbf" points="306.5,-.5 306.5,-20.5 372.5,-20.5 372.5,-.5 306.5,-.5"/>
<text text-anchor="middle" x="339.5" y="-7.5" font-family="FreeSans" font-size="10.00" fill="#000000">functional</text>
</g>
<!-- Node8&#45;&gt;Node9 -->
<g id="edge9" class="edge">
<title>Node8&#45;&gt;Node9</title>
<path fill="none" stroke="#191970" d="M400.2703,-57.3095C389.3264,-48.8798 373.571,-36.7439 360.8451,-26.9415"/>
<polygon fill="#191970" stroke="#191970" points="362.6733,-23.9318 352.6152,-20.6022 358.4016,-29.4773 362.6733,-23.9318"/>
</g>
<!-- Node10 -->
<g id="node10" class="node">
<title>Node10</title>
<polygon fill="none" stroke="#bfbfbf" points="391,-.5 391,-20.5 436,-20.5 436,-.5 391,-.5"/>
<text text-anchor="middle" x="413.5" y="-7.5" font-family="FreeSans" font-size="10.00" fill="#000000">string</text>
</g>
<!-- Node8&#45;&gt;Node10 -->
<g id="edge10" class="edge">
<title>Node8&#45;&gt;Node10</title>
<path fill="none" stroke="#191970" d="M413.5,-57.3095C413.5,-49.9335 413.5,-39.72 413.5,-30.715"/>
<polygon fill="#191970" stroke="#191970" points="417.0001,-30.6022 413.5,-20.6022 410.0001,-30.6023 417.0001,-30.6022"/>
</g>
<!-- Node11 -->
<g id="node11" class="node">
<title>Node11</title>
<polygon fill="none" stroke="#bfbfbf" points="454.5,-.5 454.5,-20.5 524.5,-20.5 524.5,-.5 454.5,-.5"/>
<text text-anchor="middle" x="489.5" y="-7.5" font-family="FreeSans" font-size="10.00" fill="#000000">type_traits</text>
</g>
<!-- Node8&#45;&gt;Node11 -->
<g id="edge11" class="edge">
<title>Node8&#45;&gt;Node11</title>
<path fill="none" stroke="#191970" d="M427.0873,-57.3095C438.435,-48.7987 454.8198,-36.5102 467.9542,-26.6594"/>
<polygon fill="#191970" stroke="#191970" points="470.1303,-29.4023 476.0304,-20.6022 465.9303,-23.8023 470.1303,-29.4023"/>
</g>
</g>
</svg>
