<?xml version="1.0" encoding="UTF-8" standalone="no"?>
<!DOCTYPE svg PUBLIC "-//W3C//DTD SVG 1.1//EN"
 "http://www.w3.org/Graphics/SVG/1.1/DTD/svg11.dtd">
<!-- Generated by graphviz version 2.40.1 (20161225.0304)
 -->
<!-- Title: EventHeader::set_EvtType Pages: 1 -->
<svg width="339pt" height="131pt"
 viewBox="0.00 0.00 339.00 131.00" xmlns="http://www.w3.org/2000/svg" xmlns:xlink="http://www.w3.org/1999/xlink">
<g id="graph0" class="graph" transform="scale(1 1) rotate(0) translate(4 127)">
<title>EventHeader::set_EvtType</title>
<!-- Node1 -->
<g id="node1" class="node">
<title>Node1</title>
<polygon fill="#bfbfbf" stroke="#000000" points="0,-57.5 0,-77.5 148,-77.5 148,-57.5 0,-57.5"/>
<text text-anchor="middle" x="74" y="-64.5" font-family="FreeSans" font-size="10.00" fill="#000000">EventHeader::set_EvtType</text>
</g>
<!-- Node2 -->
<g id="node2" class="node">
<title>Node2</title>
<g id="a_node2"><a xlink:href="../../de/ddc/classHeadReco.html#af4731b1cf68faa709b2881fcb7361468" target="_top" xlink:title="HeadReco::process_event">
<polygon fill="none" stroke="#000000" points="184,-102.5 184,-122.5 331,-122.5 331,-102.5 184,-102.5"/>
<text text-anchor="middle" x="257.5" y="-109.5" font-family="FreeSans" font-size="10.00" fill="#000000">HeadReco::process_event</text>
</a>
</g>
</g>
<!-- Node1&#45;&gt;Node2 -->
<g id="edge1" class="edge">
<title>Node1&#45;&gt;Node2</title>
<path fill="none" stroke="#191970" d="M125.0733,-80.0248C153.9033,-87.0948 189.4518,-95.8124 216.4565,-102.4348"/>
<polygon fill="#191970" stroke="#191970" points="125.7268,-76.5814 115.181,-77.5989 124.0596,-83.38 125.7268,-76.5814"/>
</g>
<!-- Node3 -->
<g id="node3" class="node">
<title>Node3</title>
<g id="a_node3"><a xlink:href="../../d4/d1f/classRunInfoUnpackPRDF.html#a848c2b3838f4cd681d2774f5ac66121a" target="_top" xlink:title="RunInfoUnpackPRDF::\lprocess_event">
<polygon fill="none" stroke="#000000" points="195.5,-51.5 195.5,-83.5 319.5,-83.5 319.5,-51.5 195.5,-51.5"/>
<text text-anchor="start" x="203.5" y="-70.5" font-family="FreeSans" font-size="10.00" fill="#000000">RunInfoUnpackPRDF::</text>
<text text-anchor="middle" x="257.5" y="-58.5" font-family="FreeSans" font-size="10.00" fill="#000000">process_event</text>
</a>
</g>
</g>
<!-- Node1&#45;&gt;Node3 -->
<g id="edge2" class="edge">
<title>Node1&#45;&gt;Node3</title>
<path fill="none" stroke="#191970" d="M158.1305,-67.5C170.7022,-67.5 183.4661,-67.5 195.4692,-67.5"/>
<polygon fill="#191970" stroke="#191970" points="158.1076,-64.0001 148.1075,-67.5 158.1075,-71.0001 158.1076,-64.0001"/>
</g>
<!-- Node4 -->
<g id="node4" class="node">
<title>Node4</title>
<g id="a_node4"><a xlink:href="../../d8/d84/classMvtxRunInfoUnpackPRDF.html#a917855e273e7e0c77887fa8468e439c2" target="_top" xlink:title="MvtxRunInfoUnpackPRDF\l::process_event">
<polygon fill="none" stroke="#000000" points="185.5,-.5 185.5,-32.5 329.5,-32.5 329.5,-.5 185.5,-.5"/>
<text text-anchor="start" x="193.5" y="-19.5" font-family="FreeSans" font-size="10.00" fill="#000000">MvtxRunInfoUnpackPRDF</text>
<text text-anchor="middle" x="257.5" y="-7.5" font-family="FreeSans" font-size="10.00" fill="#000000">::process_event</text>
</a>
</g>
</g>
<!-- Node1&#45;&gt;Node4 -->
<g id="edge3" class="edge">
<title>Node1&#45;&gt;Node4</title>
<path fill="none" stroke="#191970" d="M119.8888,-54.7462C144.0489,-48.0314 173.9203,-39.7292 199.652,-32.5777"/>
<polygon fill="#191970" stroke="#191970" points="118.9512,-51.374 110.2537,-57.424 120.8258,-58.1184 118.9512,-51.374"/>
</g>
</g>
</svg>
