<?xml version="1.0" encoding="UTF-8" standalone="no"?>
<!DOCTYPE svg PUBLIC "-//W3C//DTD SVG 1.1//EN"
 "http://www.w3.org/Graphics/SVG/1.1/DTD/svg11.dtd">
<!-- Generated by graphviz version 2.40.1 (20161225.0304)
 -->
<!-- Title: Mvtx_QA Pages: 1 -->
<svg width="226pt" height="131pt"
 viewBox="0.00 0.00 226.00 131.00" xmlns="http://www.w3.org/2000/svg" xmlns:xlink="http://www.w3.org/1999/xlink">
<g id="graph0" class="graph" transform="scale(1 1) rotate(0) translate(4 127)">
<title>Mvtx_QA</title>
<!-- Node1 -->
<g id="node1" class="node">
<title>Node1</title>
<polygon fill="#bfbfbf" stroke="#000000" points="0,-45.5 0,-65.5 61,-65.5 61,-45.5 0,-45.5"/>
<text text-anchor="middle" x="30.5" y="-52.5" font-family="FreeSans" font-size="10.00" fill="#000000">Mvtx_QA</text>
</g>
<!-- Node2 -->
<g id="node2" class="node">
<title>Node2</title>
<g id="a_node2"><a xlink:href="../../d4/de9/Fun4All__AnaTutorial__sPHENIX_8C.html#a5028836c74f0bebec560d3ab54daa022" target="_top" xlink:title="Fun4All_AnaTutorial\l_sPHENIX">
<polygon fill="none" stroke="#000000" points="100,-90.5 100,-122.5 215,-122.5 215,-90.5 100,-90.5"/>
<text text-anchor="start" x="108" y="-109.5" font-family="FreeSans" font-size="10.00" fill="#000000">Fun4All_AnaTutorial</text>
<text text-anchor="middle" x="157.5" y="-97.5" font-family="FreeSans" font-size="10.00" fill="#000000">_sPHENIX</text>
</a>
</g>
</g>
<!-- Node1&#45;&gt;Node2 -->
<g id="edge1" class="edge">
<title>Node1&#45;&gt;Node2</title>
<path fill="none" stroke="#191970" d="M65.1962,-69.4331C81.3601,-75.9241 100.6836,-83.684 117.4635,-90.4223"/>
<polygon fill="#191970" stroke="#191970" points="66.1751,-66.0546 55.5911,-65.576 63.5665,-72.5504 66.1751,-66.0546"/>
</g>
<!-- Node3 -->
<g id="node3" class="node">
<title>Node3</title>
<g id="a_node3"><a xlink:href="../../d6/d14/Fun4All__AnaTutorial__sPHENIX__Jets_8C.html#a61b352bca84476d24b0ff40991b27900" target="_top" xlink:title="Fun4All_AnaTutorial\l_sPHENIX_Jets">
<polygon fill="none" stroke="#000000" points="100,-39.5 100,-71.5 215,-71.5 215,-39.5 100,-39.5"/>
<text text-anchor="start" x="108" y="-58.5" font-family="FreeSans" font-size="10.00" fill="#000000">Fun4All_AnaTutorial</text>
<text text-anchor="middle" x="157.5" y="-46.5" font-family="FreeSans" font-size="10.00" fill="#000000">_sPHENIX_Jets</text>
</a>
</g>
</g>
<!-- Node1&#45;&gt;Node3 -->
<g id="edge2" class="edge">
<title>Node1&#45;&gt;Node3</title>
<path fill="none" stroke="#191970" d="M71.521,-55.5C80.5967,-55.5 90.3758,-55.5 99.9714,-55.5"/>
<polygon fill="#191970" stroke="#191970" points="71.2432,-52.0001 61.2432,-55.5 71.2431,-59.0001 71.2432,-52.0001"/>
</g>
<!-- Node4 -->
<g id="node4" class="node">
<title>Node4</title>
<g id="a_node4"><a xlink:href="../../d1/d19/macros_2blob_2master_2detectors_2sPHENIX_2Fun4All__G4__sPHENIX_8C.html#a4102cd3e195333de974409428a2e6dae" target="_top" xlink:title="Fun4All_G4_sPHENIX">
<polygon fill="none" stroke="#000000" points="97,-.5 97,-20.5 218,-20.5 218,-.5 97,-.5"/>
<text text-anchor="middle" x="157.5" y="-7.5" font-family="FreeSans" font-size="10.00" fill="#000000">Fun4All_G4_sPHENIX</text>
</a>
</g>
</g>
<!-- Node1&#45;&gt;Node4 -->
<g id="edge3" class="edge">
<title>Node1&#45;&gt;Node4</title>
<path fill="none" stroke="#191970" d="M66.2094,-41.7732C76.1485,-38.035 86.9689,-34.042 97,-30.5 106.4925,-27.1482 116.8811,-23.6522 126.3293,-20.538"/>
<polygon fill="#191970" stroke="#191970" points="64.7395,-38.5871 56.6258,-45.4002 67.2173,-45.1339 64.7395,-38.5871"/>
</g>
</g>
</svg>
