<?xml version="1.0" encoding="UTF-8" standalone="no"?>
<!DOCTYPE svg PUBLIC "-//W3C//DTD SVG 1.1//EN"
 "http://www.w3.org/Graphics/SVG/1.1/DTD/svg11.dtd">
<!-- Generated by graphviz version 2.40.1 (20161225.0304)
 -->
<!-- Title: PHHepMCGenHelper::set_beam_direction_theta_phi Pages: 1 -->
<svg width="786pt" height="170pt"
 viewBox="0.00 0.00 786.00 170.00" xmlns="http://www.w3.org/2000/svg" xmlns:xlink="http://www.w3.org/1999/xlink">
<g id="graph0" class="graph" transform="scale(1 1) rotate(0) translate(4 166)">
<title>PHHepMCGenHelper::set_beam_direction_theta_phi</title>
<!-- Node1 -->
<g id="node1" class="node">
<title>Node1</title>
<polygon fill="#bfbfbf" stroke="#000000" points="0,-84.5 0,-116.5 153,-116.5 153,-84.5 0,-84.5"/>
<text text-anchor="start" x="8" y="-103.5" font-family="FreeSans" font-size="10.00" fill="#000000">PHHepMCGenHelper::set</text>
<text text-anchor="middle" x="76.5" y="-91.5" font-family="FreeSans" font-size="10.00" fill="#000000">_beam_direction_theta_phi</text>
</g>
<!-- Node2 -->
<g id="node2" class="node">
<title>Node2</title>
<g id="a_node2"><a xlink:href="../../da/d73/namespaceInput.html#a0d3ec00dcd31f521d5b88a044e5a9aff" target="_top" xlink:title="Input::ApplyEICBeamParameter">
<polygon fill="none" stroke="#000000" points="198,-132.5 198,-152.5 374,-152.5 374,-132.5 198,-132.5"/>
<text text-anchor="middle" x="286" y="-139.5" font-family="FreeSans" font-size="10.00" fill="#000000">Input::ApplyEICBeamParameter</text>
</a>
</g>
</g>
<!-- Node1&#45;&gt;Node2 -->
<g id="edge1" class="edge">
<title>Node1&#45;&gt;Node2</title>
<path fill="none" stroke="#191970" d="M162.8662,-117.8145C187.8072,-122.8146 214.1837,-128.1025 236.0987,-132.4959"/>
<polygon fill="#191970" stroke="#191970" points="163.5165,-114.3753 153.0236,-115.8412 162.1405,-121.2387 163.5165,-114.3753"/>
</g>
<!-- Node4 -->
<g id="node4" class="node">
<title>Node4</title>
<g id="a_node4"><a xlink:href="../../da/d73/namespaceInput.html#a45ed2ddcc1311167c16f8135d9ea6b42" target="_top" xlink:title="Input::ApplysPHENIXBeamParameter">
<polygon fill="none" stroke="#000000" points="419,-90.5 419,-110.5 621,-110.5 621,-90.5 419,-90.5"/>
<text text-anchor="middle" x="520" y="-97.5" font-family="FreeSans" font-size="10.00" fill="#000000">Input::ApplysPHENIXBeamParameter</text>
</a>
</g>
</g>
<!-- Node1&#45;&gt;Node4 -->
<g id="edge3" class="edge">
<title>Node1&#45;&gt;Node4</title>
<path fill="none" stroke="#191970" d="M163.3749,-100.5C236.6976,-100.5 341.7453,-100.5 418.8433,-100.5"/>
<polygon fill="#191970" stroke="#191970" points="163.2455,-97.0001 153.2455,-100.5 163.2455,-104.0001 163.2455,-97.0001"/>
</g>
<!-- Node8 -->
<g id="node8" class="node">
<title>Node8</title>
<g id="a_node8"><a xlink:href="../../dd/d2a/classPHHepMCGenHelper.html#a5bf0ae0e0ff2c79947216d6f50e28c23" target="_top" xlink:title="PHHepMCGenHelper::CopySettings">
<polygon fill="none" stroke="#000000" points="189,-45.5 189,-65.5 383,-65.5 383,-45.5 189,-45.5"/>
<text text-anchor="middle" x="286" y="-52.5" font-family="FreeSans" font-size="10.00" fill="#000000">PHHepMCGenHelper::CopySettings</text>
</a>
</g>
</g>
<!-- Node1&#45;&gt;Node8 -->
<g id="edge7" class="edge">
<title>Node1&#45;&gt;Node8</title>
<path fill="none" stroke="#191970" d="M161.3482,-82.2749C187.9707,-76.5564 216.374,-70.4555 239.3334,-65.5239"/>
<polygon fill="#191970" stroke="#191970" points="160.289,-78.9225 151.247,-84.4445 161.7591,-85.7664 160.289,-78.9225"/>
</g>
<!-- Node3 -->
<g id="node3" class="node">
<title>Node3</title>
<g id="a_node3"><a xlink:href="../../df/dd8/Fun4All__G4__EICDetector__AnaTutorial_8C.html#a598434aca3dac5cdb0ca67ccc548d865" target="_top" xlink:title="Fun4All_G4_EICDetector\l_AnaTutorial">
<polygon fill="none" stroke="#000000" points="450.5,-129.5 450.5,-161.5 589.5,-161.5 589.5,-129.5 450.5,-129.5"/>
<text text-anchor="start" x="458.5" y="-148.5" font-family="FreeSans" font-size="10.00" fill="#000000">Fun4All_G4_EICDetector</text>
<text text-anchor="middle" x="520" y="-136.5" font-family="FreeSans" font-size="10.00" fill="#000000">_AnaTutorial</text>
</a>
</g>
</g>
<!-- Node2&#45;&gt;Node3 -->
<g id="edge2" class="edge">
<title>Node2&#45;&gt;Node3</title>
<path fill="none" stroke="#191970" d="M384.2346,-143.7594C406.3896,-144.0435 429.4664,-144.3393 450.1748,-144.6048"/>
<polygon fill="#191970" stroke="#191970" points="384.176,-140.2585 374.1319,-143.6299 384.0862,-147.2579 384.176,-140.2585"/>
</g>
<!-- Node5 -->
<g id="node5" class="node">
<title>Node5</title>
<g id="a_node5"><a xlink:href="../../d1/d19/macros_2blob_2master_2detectors_2sPHENIX_2Fun4All__G4__sPHENIX_8C.html#a4102cd3e195333de974409428a2e6dae" target="_top" xlink:title="Fun4All_G4_sPHENIX">
<polygon fill="none" stroke="#000000" points="657,-112.5 657,-132.5 778,-132.5 778,-112.5 657,-112.5"/>
<text text-anchor="middle" x="717.5" y="-119.5" font-family="FreeSans" font-size="10.00" fill="#000000">Fun4All_G4_sPHENIX</text>
</a>
</g>
</g>
<!-- Node4&#45;&gt;Node5 -->
<g id="edge4" class="edge">
<title>Node4&#45;&gt;Node5</title>
<path fill="none" stroke="#191970" d="M619.8779,-111.6256C632.4665,-113.0279 645.0307,-114.4275 656.7519,-115.7331"/>
<polygon fill="#191970" stroke="#191970" points="620.1185,-108.1309 609.7925,-110.5022 619.3435,-115.0878 620.1185,-108.1309"/>
</g>
<!-- Node6 -->
<g id="node6" class="node">
<title>Node6</title>
<g id="a_node6"><a xlink:href="../../d4/de9/Fun4All__AnaTutorial__sPHENIX_8C.html#a5028836c74f0bebec560d3ab54daa022" target="_top" xlink:title="Fun4All_AnaTutorial\l_sPHENIX">
<polygon fill="none" stroke="#000000" points="660,-61.5 660,-93.5 775,-93.5 775,-61.5 660,-61.5"/>
<text text-anchor="start" x="668" y="-80.5" font-family="FreeSans" font-size="10.00" fill="#000000">Fun4All_AnaTutorial</text>
<text text-anchor="middle" x="717.5" y="-68.5" font-family="FreeSans" font-size="10.00" fill="#000000">_sPHENIX</text>
</a>
</g>
</g>
<!-- Node4&#45;&gt;Node6 -->
<g id="edge5" class="edge">
<title>Node4&#45;&gt;Node6</title>
<path fill="none" stroke="#191970" d="M616.3294,-89.2819C631.2157,-87.5483 646.1754,-85.8062 659.8543,-84.2132"/>
<polygon fill="#191970" stroke="#191970" points="615.5798,-85.8454 606.0518,-90.4788 616.3896,-92.7985 615.5798,-85.8454"/>
</g>
<!-- Node7 -->
<g id="node7" class="node">
<title>Node7</title>
<g id="a_node7"><a xlink:href="../../d6/d14/Fun4All__AnaTutorial__sPHENIX__Jets_8C.html#a61b352bca84476d24b0ff40991b27900" target="_top" xlink:title="Fun4All_AnaTutorial\l_sPHENIX_Jets">
<polygon fill="none" stroke="#000000" points="660,-10.5 660,-42.5 775,-42.5 775,-10.5 660,-10.5"/>
<text text-anchor="start" x="668" y="-29.5" font-family="FreeSans" font-size="10.00" fill="#000000">Fun4All_AnaTutorial</text>
<text text-anchor="middle" x="717.5" y="-17.5" font-family="FreeSans" font-size="10.00" fill="#000000">_sPHENIX_Jets</text>
</a>
</g>
</g>
<!-- Node4&#45;&gt;Node7 -->
<g id="edge6" class="edge">
<title>Node4&#45;&gt;Node7</title>
<path fill="none" stroke="#191970" d="M605.6354,-87.5163C610.9241,-85.7593 616.0885,-83.7646 621,-81.5 639.6578,-72.8972 639.399,-63.0985 657,-52.5 662.9742,-48.9026 669.5364,-45.5433 676.0672,-42.513"/>
<polygon fill="#191970" stroke="#191970" points="604.5673,-84.1827 596.0096,-90.429 606.5947,-90.8827 604.5673,-84.1827"/>
</g>
<!-- Node9 -->
<g id="node9" class="node">
<title>Node9</title>
<g id="a_node9"><a xlink:href="../../dd/d2a/classPHHepMCGenHelper.html#a78f6ef6e01396748039e64a68c8aaa88" target="_top" xlink:title="copy setting from helper_src">
<polygon fill="none" stroke="#000000" points="427,-39.5 427,-71.5 613,-71.5 613,-39.5 427,-39.5"/>
<text text-anchor="start" x="435" y="-58.5" font-family="FreeSans" font-size="10.00" fill="#000000">PHHepMCGenHelper::CopyHelper</text>
<text text-anchor="middle" x="520" y="-46.5" font-family="FreeSans" font-size="10.00" fill="#000000">Settings</text>
</a>
</g>
</g>
<!-- Node8&#45;&gt;Node9 -->
<g id="edge8" class="edge">
<title>Node8&#45;&gt;Node9</title>
<path fill="none" stroke="#191970" d="M393.4141,-55.5C404.5803,-55.5 415.8637,-55.5 426.8538,-55.5"/>
<polygon fill="#191970" stroke="#191970" points="393.2042,-52.0001 383.2042,-55.5 393.2041,-59.0001 393.2042,-52.0001"/>
</g>
<!-- Node10 -->
<g id="node10" class="node">
<title>Node10</title>
<g id="a_node10"><a xlink:href="../../dd/d2a/classPHHepMCGenHelper.html#a7bddd89f0e069f7593fe76b58458da91" target="_top" xlink:title="copy setting to helper_dest">
<polygon fill="none" stroke="#000000" points="423,-.5 423,-20.5 617,-20.5 617,-.5 423,-.5"/>
<text text-anchor="middle" x="520" y="-7.5" font-family="FreeSans" font-size="10.00" fill="#000000">PHHepMCGenHelper::CopySettings</text>
</a>
</g>
</g>
<!-- Node8&#45;&gt;Node10 -->
<g id="edge12" class="edge">
<title>Node8&#45;&gt;Node10</title>
<path fill="none" stroke="#191970" d="M348.4772,-43.4852C385.7914,-36.3093 432.6354,-27.3009 467.9367,-20.5122"/>
<polygon fill="#191970" stroke="#191970" points="347.382,-40.1316 338.2229,-45.4571 348.704,-47.0056 347.382,-40.1316"/>
</g>
<!-- Node9&#45;&gt;Node5 -->
<g id="edge11" class="edge">
<title>Node9&#45;&gt;Node5</title>
<path fill="none" stroke="#191970" d="M602.9206,-74.6934C609.1119,-76.7791 615.2001,-79.0461 621,-81.5 638.2691,-88.8064 639.928,-95.7442 657,-103.5 664.4173,-106.8697 672.6017,-109.8788 680.4899,-112.4544"/>
<polygon fill="#191970" stroke="#191970" points="603.7244,-71.276 593.1335,-71.5645 601.5927,-77.9435 603.7244,-71.276"/>
</g>
<!-- Node9&#45;&gt;Node6 -->
<g id="edge9" class="edge">
<title>Node9&#45;&gt;Node6</title>
<path fill="none" stroke="#191970" d="M623.3149,-67.0085C635.8508,-68.4049 648.2885,-69.7904 659.8174,-71.0746"/>
<polygon fill="#191970" stroke="#191970" points="623.5817,-63.5167 613.2557,-65.888 622.8067,-70.4736 623.5817,-63.5167"/>
</g>
<!-- Node9&#45;&gt;Node7 -->
<g id="edge10" class="edge">
<title>Node9&#45;&gt;Node7</title>
<path fill="none" stroke="#191970" d="M623.3149,-40.3297C635.8508,-38.489 648.2885,-36.6627 659.8174,-34.9698"/>
<polygon fill="#191970" stroke="#191970" points="622.6411,-36.891 613.2557,-41.8068 623.6581,-43.8168 622.6411,-36.891"/>
</g>
</g>
</svg>
