<?xml version="1.0" encoding="UTF-8" standalone="no"?>
<!DOCTYPE svg PUBLIC "-//W3C//DTD SVG 1.1//EN"
 "http://www.w3.org/Graphics/SVG/1.1/DTD/svg11.dtd">
<!-- Generated by graphviz version 2.40.1 (20161225.0304)
 -->
<!-- Title: coresoftware/blob/master/offline/packages/trackbase/TrkrClusterCrossingAssocv1.h Pages: 1 -->
<svg width="346pt" height="134pt"
 viewBox="0.00 0.00 346.00 134.00" xmlns="http://www.w3.org/2000/svg" xmlns:xlink="http://www.w3.org/1999/xlink">
<g id="graph0" class="graph" transform="scale(1 1) rotate(0) translate(4 130)">
<title>coresoftware/blob/master/offline/packages/trackbase/TrkrClusterCrossingAssocv1.h</title>
<!-- Node1 -->
<g id="node1" class="node">
<title>Node1</title>
<polygon fill="#bfbfbf" stroke="#000000" points="77.5,-81.5 77.5,-125.5 246.5,-125.5 246.5,-81.5 77.5,-81.5"/>
<text text-anchor="start" x="85.5" y="-112.5" font-family="FreeSans" font-size="10.00" fill="#000000">coresoftware/blob/master</text>
<text text-anchor="start" x="85.5" y="-100.5" font-family="FreeSans" font-size="10.00" fill="#000000">/offline/packages/trackbase</text>
<text text-anchor="middle" x="162" y="-88.5" font-family="FreeSans" font-size="10.00" fill="#000000">/TrkrClusterCrossingAssocv1.h</text>
</g>
<!-- Node2 -->
<g id="node2" class="node">
<title>Node2</title>
<g id="a_node2"><a xlink:href="../../d2/da5/InttClusterizer_8cc.html" target="_top" xlink:title="coresoftware/blob/master\l/offline/packages/intt\l/InttClusterizer.cc">
<polygon fill="none" stroke="#000000" points="0,-.5 0,-44.5 146,-44.5 146,-.5 0,-.5"/>
<text text-anchor="start" x="8" y="-31.5" font-family="FreeSans" font-size="10.00" fill="#000000">coresoftware/blob/master</text>
<text text-anchor="start" x="8" y="-19.5" font-family="FreeSans" font-size="10.00" fill="#000000">/offline/packages/intt</text>
<text text-anchor="middle" x="73" y="-7.5" font-family="FreeSans" font-size="10.00" fill="#000000">/InttClusterizer.cc</text>
</a>
</g>
</g>
<!-- Node1&#45;&gt;Node2 -->
<g id="edge1" class="edge">
<title>Node1&#45;&gt;Node2</title>
<path fill="none" stroke="#191970" d="M130.0514,-74.4232C119.2582,-64.6001 107.3921,-53.8007 97.2902,-44.6068"/>
<polygon fill="#191970" stroke="#191970" points="127.9289,-77.224 137.6804,-81.3664 132.6405,-72.047 127.9289,-77.224"/>
</g>
<!-- Node3 -->
<g id="node3" class="node">
<title>Node3</title>
<g id="a_node3"><a xlink:href="../../d2/d02/TrkrClusterCrossingAssocv1_8cc.html" target="_top" xlink:title="TrkrClusterCrossingAssoc implementation.">
<polygon fill="none" stroke="#000000" points="164,-.5 164,-44.5 338,-44.5 338,-.5 164,-.5"/>
<text text-anchor="start" x="172" y="-31.5" font-family="FreeSans" font-size="10.00" fill="#000000">coresoftware/blob/master</text>
<text text-anchor="start" x="172" y="-19.5" font-family="FreeSans" font-size="10.00" fill="#000000">/offline/packages/trackbase</text>
<text text-anchor="middle" x="251" y="-7.5" font-family="FreeSans" font-size="10.00" fill="#000000">/TrkrClusterCrossingAssocv1.cc</text>
</a>
</g>
</g>
<!-- Node1&#45;&gt;Node3 -->
<g id="edge2" class="edge">
<title>Node1&#45;&gt;Node3</title>
<path fill="none" stroke="#191970" d="M193.9486,-74.4232C204.7418,-64.6001 216.6079,-53.8007 226.7098,-44.6068"/>
<polygon fill="#191970" stroke="#191970" points="191.3595,-72.047 186.3196,-81.3664 196.0711,-77.224 191.3595,-72.047"/>
</g>
</g>
</svg>
