<?xml version="1.0" encoding="UTF-8" standalone="no"?>
<!DOCTYPE svg PUBLIC "-//W3C//DTD SVG 1.1//EN"
 "http://www.w3.org/Graphics/SVG/1.1/DTD/svg11.dtd">
<!-- Generated by graphviz version 2.40.1 (20161225.0304)
 -->
<!-- Title: EMCalCalib_TestBeam::End Pages: 1 -->
<svg width="1561pt" height="363pt"
 viewBox="0.00 0.00 1561.00 363.00" xmlns="http://www.w3.org/2000/svg" xmlns:xlink="http://www.w3.org/1999/xlink">
<g id="graph0" class="graph" transform="scale(1 1) rotate(0) translate(4 359)">
<title>EMCalCalib_TestBeam::End</title>
<!-- Node1 -->
<g id="node1" class="node">
<title>Node1</title>
<polygon fill="#bfbfbf" stroke="#000000" points="0,-87.5 0,-107.5 153,-107.5 153,-87.5 0,-87.5"/>
<text text-anchor="middle" x="76.5" y="-94.5" font-family="FreeSans" font-size="10.00" fill="#000000">EMCalCalib_TestBeam::End</text>
</g>
<!-- Node2 -->
<g id="node2" class="node">
<title>Node2</title>
<g id="a_node2"><a xlink:href="../../d3/d2b/classPHTFileServer.html#ac4e4f66af63e11c709628712c43c5dc9" target="_top" xlink:title="change to directory of TFile matching filename">
<polygon fill="none" stroke="#000000" points="200.5,-126.5 200.5,-146.5 304.5,-146.5 304.5,-126.5 200.5,-126.5"/>
<text text-anchor="middle" x="252.5" y="-133.5" font-family="FreeSans" font-size="10.00" fill="#000000">PHTFileServer::cd</text>
</a>
</g>
</g>
<!-- Node1&#45;&gt;Node2 -->
<g id="edge1" class="edge">
<title>Node1&#45;&gt;Node2</title>
<path fill="none" stroke="#191970" d="M121.8244,-107.5435C144.9198,-112.6612 173.1897,-118.9256 197.5206,-124.3171"/>
<polygon fill="#191970" stroke="#191970" points="196.8088,-127.7442 207.3292,-126.4906 198.3233,-120.9099 196.8088,-127.7442"/>
</g>
<!-- Node4 -->
<g id="node4" class="node">
<title>Node4</title>
<g id="a_node4"><a xlink:href="../../d3/d2b/classPHTFileServer.html#a5a3ed7a2a70cc2e38dbe1cb33afe9c2f" target="_top" xlink:title="return reference to class singleton">
<polygon fill="none" stroke="#000000" points="197.5,-87.5 197.5,-107.5 307.5,-107.5 307.5,-87.5 197.5,-87.5"/>
<text text-anchor="middle" x="252.5" y="-94.5" font-family="FreeSans" font-size="10.00" fill="#000000">PHTFileServer::get</text>
</a>
</g>
</g>
<!-- Node1&#45;&gt;Node4 -->
<g id="edge3" class="edge">
<title>Node1&#45;&gt;Node4</title>
<path fill="none" stroke="#191970" d="M153.1842,-97.5C164.6027,-97.5 176.2797,-97.5 187.4289,-97.5"/>
<polygon fill="#191970" stroke="#191970" points="187.497,-101.0001 197.4969,-97.5 187.4969,-94.0001 187.497,-101.0001"/>
</g>
<!-- Node5 -->
<g id="node5" class="node">
<title>Node5</title>
<g id="a_node5"><a xlink:href="../../d8/dd6/classEMCalCalib__TestBeam.html#a444f2647e1250bbed36bd3fc209e10bd" target="_top" xlink:title="EMCalCalib_TestBeam\l::get_HistoManager">
<polygon fill="none" stroke="#000000" points="189,-36.5 189,-68.5 316,-68.5 316,-36.5 189,-36.5"/>
<text text-anchor="start" x="197" y="-55.5" font-family="FreeSans" font-size="10.00" fill="#000000">EMCalCalib_TestBeam</text>
<text text-anchor="middle" x="252.5" y="-43.5" font-family="FreeSans" font-size="10.00" fill="#000000">::get_HistoManager</text>
</a>
</g>
</g>
<!-- Node1&#45;&gt;Node5 -->
<g id="edge4" class="edge">
<title>Node1&#45;&gt;Node5</title>
<path fill="none" stroke="#191970" d="M115.9978,-87.4011C134.806,-82.5922 157.9128,-76.6842 179.7313,-71.1056"/>
<polygon fill="#191970" stroke="#191970" points="180.8239,-74.4389 189.6452,-68.5708 179.0899,-67.6571 180.8239,-74.4389"/>
</g>
<!-- Node3 -->
<g id="node3" class="node">
<title>Node3</title>
<g id="a_node3"><a xlink:href="../../da/dbc/classPHTFileServer_1_1SafeTFile.html#af878cc9c0b4dbe271c278d16aacd7fc4" target="_top" xlink:title="PHTFileServer::SafeTFile\l::file_map">
<polygon fill="none" stroke="#000000" points="352,-120.5 352,-152.5 490,-152.5 490,-120.5 352,-120.5"/>
<text text-anchor="start" x="360" y="-139.5" font-family="FreeSans" font-size="10.00" fill="#000000">PHTFileServer::SafeTFile</text>
<text text-anchor="middle" x="421" y="-127.5" font-family="FreeSans" font-size="10.00" fill="#000000">::file_map</text>
</a>
</g>
</g>
<!-- Node2&#45;&gt;Node3 -->
<g id="edge2" class="edge">
<title>Node2&#45;&gt;Node3</title>
<path fill="none" stroke="#191970" d="M304.8908,-136.5C316.6302,-136.5 329.3375,-136.5 341.892,-136.5"/>
<polygon fill="#191970" stroke="#191970" points="341.9062,-140.0001 351.9062,-136.5 341.9062,-133.0001 341.9062,-140.0001"/>
</g>
<!-- Node6 -->
<g id="node6" class="node">
<title>Node6</title>
<g id="a_node6"><a xlink:href="../../da/d29/classFun4AllServer.html#a3e55156f91b2c94bb6c4ef33ffce587a" target="_top" xlink:title="Fun4AllServer::instance">
<polygon fill="none" stroke="#000000" points="353,-81.5 353,-101.5 489,-101.5 489,-81.5 353,-81.5"/>
<text text-anchor="middle" x="421" y="-88.5" font-family="FreeSans" font-size="10.00" fill="#000000">Fun4AllServer::instance</text>
</a>
</g>
</g>
<!-- Node5&#45;&gt;Node6 -->
<g id="edge5" class="edge">
<title>Node5&#45;&gt;Node6</title>
<path fill="none" stroke="#191970" d="M316.2026,-67.2442C333.1817,-71.1741 351.3466,-75.3784 367.7035,-79.1643"/>
<polygon fill="#191970" stroke="#191970" points="367.0959,-82.6161 377.6276,-81.4613 368.6744,-75.7964 367.0959,-82.6161"/>
</g>
<!-- Node16 -->
<g id="node16" class="node">
<title>Node16</title>
<g id="a_node16"><a xlink:href="../../da/d29/classFun4AllServer.html#a377f113767f24ce6413e678752ed7f53" target="_top" xlink:title="Fun4AllServer::registerHisto\lManager">
<polygon fill="none" stroke="#000000" points="901,-36.5 901,-68.5 1059,-68.5 1059,-36.5 901,-36.5"/>
<text text-anchor="start" x="909" y="-55.5" font-family="FreeSans" font-size="10.00" fill="#000000">Fun4AllServer::registerHisto</text>
<text text-anchor="middle" x="980" y="-43.5" font-family="FreeSans" font-size="10.00" fill="#000000">Manager</text>
</a>
</g>
</g>
<!-- Node5&#45;&gt;Node16 -->
<g id="edge29" class="edge">
<title>Node5&#45;&gt;Node16</title>
<path fill="none" stroke="#191970" d="M316.1054,-52.5C445.9799,-52.5 741.9313,-52.5 890.8794,-52.5"/>
<polygon fill="#191970" stroke="#191970" points="890.91,-56.0001 900.9099,-52.5 890.9099,-49.0001 890.91,-56.0001"/>
</g>
<!-- Node26 -->
<g id="node26" class="node">
<title>Node26</title>
<g id="a_node26"><a xlink:href="../../da/d29/classFun4AllServer.html#af5885837658eb26f98dbc697b58747a7" target="_top" xlink:title="Fun4AllServer::getHistoManager">
<polygon fill="none" stroke="#000000" points="526,-.5 526,-20.5 707,-20.5 707,-.5 526,-.5"/>
<text text-anchor="middle" x="616.5" y="-7.5" font-family="FreeSans" font-size="10.00" fill="#000000">Fun4AllServer::getHistoManager</text>
</a>
</g>
</g>
<!-- Node5&#45;&gt;Node26 -->
<g id="edge27" class="edge">
<title>Node5&#45;&gt;Node26</title>
<path fill="none" stroke="#191970" d="M316.1531,-43.2126C328.0564,-41.5699 340.4,-39.9296 352,-38.5 406.0239,-31.8418 466.3769,-25.3786 515.7758,-20.3425"/>
<polygon fill="#191970" stroke="#191970" points="516.2286,-23.8146 525.824,-19.3223 515.5215,-16.8504 516.2286,-23.8146"/>
</g>
<!-- Node7 -->
<g id="node7" class="node">
<title>Node7</title>
<g id="a_node7"><a xlink:href="../../da/d29/classFun4AllServer.html#a90e27f05f0b2e8b6fe462387b14bfb92" target="_top" xlink:title="Fun4AllServer::Fun4AllServer">
<polygon fill="none" stroke="#000000" points="534.5,-104.5 534.5,-124.5 698.5,-124.5 698.5,-104.5 534.5,-104.5"/>
<text text-anchor="middle" x="616.5" y="-111.5" font-family="FreeSans" font-size="10.00" fill="#000000">Fun4AllServer::Fun4AllServer</text>
</a>
</g>
</g>
<!-- Node6&#45;&gt;Node7 -->
<g id="edge6" class="edge">
<title>Node6&#45;&gt;Node7</title>
<path fill="none" stroke="#191970" d="M489.102,-99.512C500.3524,-100.8356 512.1817,-102.2273 523.9115,-103.6072"/>
<polygon fill="#191970" stroke="#191970" points="523.8364,-107.1225 534.1769,-104.8149 524.6544,-100.1704 523.8364,-107.1225"/>
</g>
<!-- Node8 -->
<g id="node8" class="node">
<title>Node8</title>
<g id="a_node8"><a xlink:href="../../da/d29/classFun4AllServer.html#aa1939c3e2c3113cce0a6415103b4f5a5" target="_top" xlink:title="Fun4AllServer::InitAll">
<polygon fill="none" stroke="#000000" points="743,-126.5 743,-146.5 865,-146.5 865,-126.5 743,-126.5"/>
<text text-anchor="middle" x="804" y="-133.5" font-family="FreeSans" font-size="10.00" fill="#000000">Fun4AllServer::InitAll</text>
</a>
</g>
</g>
<!-- Node7&#45;&gt;Node8 -->
<g id="edge7" class="edge">
<title>Node7&#45;&gt;Node8</title>
<path fill="none" stroke="#191970" d="M698.7402,-124.1495C710.1158,-125.4842 721.7208,-126.8459 732.8718,-128.1543"/>
<polygon fill="#191970" stroke="#191970" points="732.6254,-131.6493 742.9652,-129.3386 733.4412,-124.697 732.6254,-131.6493"/>
</g>
<!-- Node9 -->
<g id="node9" class="node">
<title>Node9</title>
<g id="a_node9"><a xlink:href="../../d5/d4f/classFun4AllMonitoring.html#a4d2dc73220d8300c356f258b8c6283a8" target="_top" xlink:title="Fun4AllMonitoring::\linstance">
<polygon fill="none" stroke="#000000" points="923,-165.5 923,-197.5 1037,-197.5 1037,-165.5 923,-165.5"/>
<text text-anchor="start" x="931" y="-184.5" font-family="FreeSans" font-size="10.00" fill="#000000">Fun4AllMonitoring::</text>
<text text-anchor="middle" x="980" y="-172.5" font-family="FreeSans" font-size="10.00" fill="#000000">instance</text>
</a>
</g>
</g>
<!-- Node8&#45;&gt;Node9 -->
<g id="edge8" class="edge">
<title>Node8&#45;&gt;Node9</title>
<path fill="none" stroke="#191970" d="M843.4978,-146.5989C863.983,-151.8366 889.5676,-158.3781 913.0328,-164.3777"/>
<polygon fill="#191970" stroke="#191970" points="912.3832,-167.8241 922.9386,-166.9104 914.1173,-161.0423 912.3832,-167.8241"/>
</g>
<!-- Node11 -->
<g id="node11" class="node">
<title>Node11</title>
<g id="a_node11"><a xlink:href="../../d5/d4f/classFun4AllMonitoring.html#aeea0018148441caf4a9a1b5cc448ecfb" target="_top" xlink:title="Fun4AllMonitoring::\lSnapshot">
<polygon fill="none" stroke="#000000" points="923,-216.5 923,-248.5 1037,-248.5 1037,-216.5 923,-216.5"/>
<text text-anchor="start" x="931" y="-235.5" font-family="FreeSans" font-size="10.00" fill="#000000">Fun4AllMonitoring::</text>
<text text-anchor="middle" x="980" y="-223.5" font-family="FreeSans" font-size="10.00" fill="#000000">Snapshot</text>
</a>
</g>
</g>
<!-- Node8&#45;&gt;Node11 -->
<g id="edge10" class="edge">
<title>Node8&#45;&gt;Node11</title>
<path fill="none" stroke="#191970" d="M815.4758,-146.6074C832.889,-161.5027 867.5129,-189.4253 901,-206.5 905.2771,-208.6808 909.7758,-210.7338 914.3664,-212.6552"/>
<polygon fill="#191970" stroke="#191970" points="913.2904,-215.9933 923.8769,-216.4135 915.8631,-209.4832 913.2904,-215.9933"/>
</g>
<!-- Node15 -->
<g id="node15" class="node">
<title>Node15</title>
<g id="a_node15"><a xlink:href="../../d5/dec/classFun4AllBase.html#a41f9ac377743d046f590617fd6f4f0ed" target="_top" xlink:title="Returns the name of this module.">
<polygon fill="none" stroke="#000000" points="1118.5,-75.5 1118.5,-95.5 1233.5,-95.5 1233.5,-75.5 1118.5,-75.5"/>
<text text-anchor="middle" x="1176" y="-82.5" font-family="FreeSans" font-size="10.00" fill="#000000">Fun4AllBase::Name</text>
</a>
</g>
</g>
<!-- Node8&#45;&gt;Node15 -->
<g id="edge14" class="edge">
<title>Node8&#45;&gt;Node15</title>
<path fill="none" stroke="#191970" d="M848.2704,-126.487C864.7623,-122.9909 883.6795,-119.256 901,-116.5 971.3527,-105.3057 1052.4612,-96.6794 1108.2661,-91.4016"/>
<polygon fill="#191970" stroke="#191970" points="1108.7528,-94.8715 1118.3833,-90.4552 1108.1008,-87.9019 1108.7528,-94.8715"/>
</g>
<!-- Node8&#45;&gt;Node16 -->
<g id="edge15" class="edge">
<title>Node8&#45;&gt;Node16</title>
<path fill="none" stroke="#191970" d="M820.8352,-126.4531C839.9208,-115.2646 872.1381,-96.9822 901,-83.5 909.2346,-79.6534 918.0877,-75.8606 926.7833,-72.319"/>
<polygon fill="#191970" stroke="#191970" points="928.1355,-75.5478 936.1202,-68.584 925.5356,-69.0485 928.1355,-75.5478"/>
</g>
<!-- Node18 -->
<g id="node18" class="node">
<title>Node18</title>
<g id="a_node18"><a xlink:href="../../da/d29/classFun4AllServer.html#a1d7daeb59511a7dc61a2566f4116a6ec" target="_top" xlink:title="Fun4AllServer::registerHisto">
<polygon fill="none" stroke="#000000" points="901,-126.5 901,-146.5 1059,-146.5 1059,-126.5 901,-126.5"/>
<text text-anchor="middle" x="980" y="-133.5" font-family="FreeSans" font-size="10.00" fill="#000000">Fun4AllServer::registerHisto</text>
</a>
</g>
</g>
<!-- Node8&#45;&gt;Node18 -->
<g id="edge18" class="edge">
<title>Node8&#45;&gt;Node18</title>
<path fill="none" stroke="#191970" d="M865.0623,-136.5C873.3401,-136.5 881.9697,-136.5 890.6172,-136.5"/>
<polygon fill="#191970" stroke="#191970" points="890.7568,-140.0001 900.7568,-136.5 890.7567,-133.0001 890.7568,-140.0001"/>
</g>
<!-- Node21 -->
<g id="node21" class="node">
<title>Node21</title>
<g id="a_node21"><a xlink:href="../../da/d29/classFun4AllServer.html#a2ebfcdcf706670c98c189bfa93c3ff89" target="_top" xlink:title="Fun4AllServer::InitNodeTree">
<polygon fill="none" stroke="#000000" points="901.5,-283.5 901.5,-303.5 1058.5,-303.5 1058.5,-283.5 901.5,-283.5"/>
<text text-anchor="middle" x="980" y="-290.5" font-family="FreeSans" font-size="10.00" fill="#000000">Fun4AllServer::InitNodeTree</text>
</a>
</g>
</g>
<!-- Node8&#45;&gt;Node21 -->
<g id="edge22" class="edge">
<title>Node8&#45;&gt;Node21</title>
<path fill="none" stroke="#191970" d="M809.7937,-146.5895C823.2041,-169.179 858.5044,-224.4293 901,-257.5 912.5816,-266.513 926.7814,-273.8776 939.9323,-279.5441"/>
<polygon fill="#191970" stroke="#191970" points="938.69,-282.8174 949.2704,-283.3693 941.3434,-276.3398 938.69,-282.8174"/>
</g>
<!-- Node10 -->
<g id="node10" class="node">
<title>Node10</title>
<g id="a_node10"><a xlink:href="../../d5/d4f/classFun4AllMonitoring.html#aaf0fd3c11a5727613f4a81e113eb8675" target="_top" xlink:title="Fun4AllMonitoring::\lFun4AllMonitoring">
<polygon fill="none" stroke="#000000" points="1119,-165.5 1119,-197.5 1233,-197.5 1233,-165.5 1119,-165.5"/>
<text text-anchor="start" x="1127" y="-184.5" font-family="FreeSans" font-size="10.00" fill="#000000">Fun4AllMonitoring::</text>
<text text-anchor="middle" x="1176" y="-172.5" font-family="FreeSans" font-size="10.00" fill="#000000">Fun4AllMonitoring</text>
</a>
</g>
</g>
<!-- Node9&#45;&gt;Node10 -->
<g id="edge9" class="edge">
<title>Node9&#45;&gt;Node10</title>
<path fill="none" stroke="#191970" d="M1037.2182,-181.5C1059.5611,-181.5 1085.3462,-181.5 1108.5821,-181.5"/>
<polygon fill="#191970" stroke="#191970" points="1108.7107,-185.0001 1118.7107,-181.5 1108.7107,-178.0001 1108.7107,-185.0001"/>
</g>
<!-- Node12 -->
<g id="node12" class="node">
<title>Node12</title>
<g id="a_node12"><a xlink:href="../../d5/d4f/classFun4AllMonitoring.html#a4a815a60428fa831a2b25d7ff4e48281" target="_top" xlink:title="Fun4AllMonitoring::\lGet_Memory">
<polygon fill="none" stroke="#000000" points="1119,-216.5 1119,-248.5 1233,-248.5 1233,-216.5 1119,-216.5"/>
<text text-anchor="start" x="1127" y="-235.5" font-family="FreeSans" font-size="10.00" fill="#000000">Fun4AllMonitoring::</text>
<text text-anchor="middle" x="1176" y="-223.5" font-family="FreeSans" font-size="10.00" fill="#000000">Get_Memory</text>
</a>
</g>
</g>
<!-- Node11&#45;&gt;Node12 -->
<g id="edge11" class="edge">
<title>Node11&#45;&gt;Node12</title>
<path fill="none" stroke="#191970" d="M1037.2182,-232.5C1059.5611,-232.5 1085.3462,-232.5 1108.5821,-232.5"/>
<polygon fill="#191970" stroke="#191970" points="1108.7107,-236.0001 1118.7107,-232.5 1108.7107,-229.0001 1108.7107,-236.0001"/>
</g>
<!-- Node13 -->
<g id="node13" class="node">
<title>Node13</title>
<g id="a_node13"><a xlink:href="../../d9/dda/arsenal_8cpp.html#aa7cb820696f8a66d03330e091482020c" target="_top" xlink:title="trim">
<polygon fill="none" stroke="#000000" points="1340.5,-217.5 1340.5,-237.5 1377.5,-237.5 1377.5,-217.5 1340.5,-217.5"/>
<text text-anchor="middle" x="1359" y="-224.5" font-family="FreeSans" font-size="10.00" fill="#000000">trim</text>
</a>
</g>
</g>
<!-- Node12&#45;&gt;Node13 -->
<g id="edge12" class="edge">
<title>Node12&#45;&gt;Node13</title>
<path fill="none" stroke="#191970" d="M1233.1496,-230.9385C1265.2665,-230.061 1303.9887,-229.003 1329.9236,-228.2944"/>
<polygon fill="#191970" stroke="#191970" points="1330.2985,-231.7856 1340.1992,-228.0137 1330.1073,-224.7882 1330.2985,-231.7856"/>
</g>
<!-- Node14 -->
<g id="node14" class="node">
<title>Node14</title>
<g id="a_node14"><a xlink:href="../../dd/d7e/namespaceActs_1_1Test.html#a88f0887efddd644c8defc1e91456c3c9" target="_top" xlink:title="Acts::Test::tmp">
<polygon fill="none" stroke="#000000" points="1461,-217.5 1461,-237.5 1553,-237.5 1553,-217.5 1461,-217.5"/>
<text text-anchor="middle" x="1507" y="-224.5" font-family="FreeSans" font-size="10.00" fill="#000000">Acts::Test::tmp</text>
</a>
</g>
</g>
<!-- Node13&#45;&gt;Node14 -->
<g id="edge13" class="edge">
<title>Node13&#45;&gt;Node14</title>
<path fill="none" stroke="#191970" d="M1377.7443,-227.5C1396.0785,-227.5 1424.9265,-227.5 1450.7218,-227.5"/>
<polygon fill="#191970" stroke="#191970" points="1450.8013,-231.0001 1460.8012,-227.5 1450.8012,-224.0001 1450.8013,-231.0001"/>
</g>
<!-- Node16&#45;&gt;Node15 -->
<g id="edge16" class="edge">
<title>Node16&#45;&gt;Node15</title>
<path fill="none" stroke="#191970" d="M1059.1557,-65.8272C1075.3663,-68.5566 1092.2918,-71.4063 1108.0665,-74.0622"/>
<polygon fill="#191970" stroke="#191970" points="1107.8051,-77.5674 1118.2474,-75.7764 1108.9674,-70.6645 1107.8051,-77.5674"/>
</g>
<!-- Node17 -->
<g id="node17" class="node">
<title>Node17</title>
<g id="a_node17"><a xlink:href="../../d5/dec/classFun4AllBase.html#a8a5c77a92bdac6bc043476e132379a40" target="_top" xlink:title="Gets the verbosity of this module.">
<polygon fill="none" stroke="#000000" points="1293,-36.5 1293,-56.5 1425,-56.5 1425,-36.5 1293,-36.5"/>
<text text-anchor="middle" x="1359" y="-43.5" font-family="FreeSans" font-size="10.00" fill="#000000">Fun4AllBase::Verbosity</text>
</a>
</g>
</g>
<!-- Node16&#45;&gt;Node17 -->
<g id="edge17" class="edge">
<title>Node16&#45;&gt;Node17</title>
<path fill="none" stroke="#191970" d="M1059.4508,-51.2422C1125.1769,-50.2017 1217.9324,-48.7333 1282.758,-47.707"/>
<polygon fill="#191970" stroke="#191970" points="1282.9705,-51.2042 1292.9138,-47.5462 1282.8597,-44.205 1282.9705,-51.2042"/>
</g>
<!-- Node19 -->
<g id="node19" class="node">
<title>Node19</title>
<g id="a_node19"><a xlink:href="../../d3/d96/classFun4AllHistoManager.html#a7e1354855437fa28bb0d29dc0581d0a6" target="_top" xlink:title="Fun4AllHistoManager\l::registerHisto">
<polygon fill="none" stroke="#000000" points="1114,-114.5 1114,-146.5 1238,-146.5 1238,-114.5 1114,-114.5"/>
<text text-anchor="start" x="1122" y="-133.5" font-family="FreeSans" font-size="10.00" fill="#000000">Fun4AllHistoManager</text>
<text text-anchor="middle" x="1176" y="-121.5" font-family="FreeSans" font-size="10.00" fill="#000000">::registerHisto</text>
</a>
</g>
</g>
<!-- Node18&#45;&gt;Node19 -->
<g id="edge19" class="edge">
<title>Node18&#45;&gt;Node19</title>
<path fill="none" stroke="#191970" d="M1059.1557,-134.0769C1073.7752,-133.6293 1088.976,-133.164 1103.3898,-132.7228"/>
<polygon fill="#191970" stroke="#191970" points="1103.8385,-136.2108 1113.7266,-132.4063 1103.6242,-129.214 1103.8385,-136.2108"/>
</g>
<!-- Node19&#45;&gt;Node17 -->
<g id="edge20" class="edge">
<title>Node19&#45;&gt;Node17</title>
<path fill="none" stroke="#191970" d="M1231.4693,-114.3813C1240.1267,-111.3845 1248.8865,-108.0633 1257,-104.5 1284.82,-92.2822 1314.8479,-74.6122 1335.0668,-61.991"/>
<polygon fill="#191970" stroke="#191970" points="1337.0385,-64.8854 1343.6231,-56.5851 1333.2996,-58.9675 1337.0385,-64.8854"/>
</g>
<!-- Node20 -->
<g id="node20" class="node">
<title>Node20</title>
<g id="a_node20"><a xlink:href="../../dc/df6/200pp__pythia8__CTEQ6L__7GeV__ALL_8cfg__eneg__DSTReader_8root__Draw__HFJetTruth__CrossSection2RAA_8C.html#abf6f7b5ad3b256b0f81411de1474963c" target="_top" xlink:title="SetDirectory">
<polygon fill="none" stroke="#000000" points="1319.5,-120.5 1319.5,-140.5 1398.5,-140.5 1398.5,-120.5 1319.5,-120.5"/>
<text text-anchor="middle" x="1359" y="-127.5" font-family="FreeSans" font-size="10.00" fill="#000000">SetDirectory</text>
</a>
</g>
</g>
<!-- Node19&#45;&gt;Node20 -->
<g id="edge21" class="edge">
<title>Node19&#45;&gt;Node20</title>
<path fill="none" stroke="#191970" d="M1238.2108,-130.5C1261.3786,-130.5 1287.3469,-130.5 1309.2515,-130.5"/>
<polygon fill="#191970" stroke="#191970" points="1309.3257,-134.0001 1319.3256,-130.5 1309.3256,-127.0001 1309.3257,-134.0001"/>
</g>
<!-- Node22 -->
<g id="node22" class="node">
<title>Node22</title>
<g id="a_node22"><a xlink:href="../../d5/dca/classPHCompositeNode.html#a15a0c4804399a9de4267647f05bd1ba4" target="_top" xlink:title="PHCompositeNode::addNode">
<polygon fill="none" stroke="#000000" points="1095,-287.5 1095,-307.5 1257,-307.5 1257,-287.5 1095,-287.5"/>
<text text-anchor="middle" x="1176" y="-294.5" font-family="FreeSans" font-size="10.00" fill="#000000">PHCompositeNode::addNode</text>
</a>
</g>
</g>
<!-- Node21&#45;&gt;Node22 -->
<g id="edge23" class="edge">
<title>Node21&#45;&gt;Node22</title>
<path fill="none" stroke="#191970" d="M1058.5914,-295.1039C1067.1647,-295.2789 1075.9445,-295.4581 1084.6539,-295.6358"/>
<polygon fill="#191970" stroke="#191970" points="1084.7597,-299.1386 1094.8291,-295.8435 1084.9026,-292.14 1084.7597,-299.1386"/>
</g>
<!-- Node23 -->
<g id="node23" class="node">
<title>Node23</title>
<g id="a_node23"><a xlink:href="../../dc/d82/classPHNode.html#aca3576f926a4401eddc3d88bf0ce0de3" target="_top" xlink:title="PHNode::getName">
<polygon fill="none" stroke="#000000" points="1304.5,-334.5 1304.5,-354.5 1413.5,-354.5 1413.5,-334.5 1304.5,-334.5"/>
<text text-anchor="middle" x="1359" y="-341.5" font-family="FreeSans" font-size="10.00" fill="#000000">PHNode::getName</text>
</a>
</g>
</g>
<!-- Node22&#45;&gt;Node23 -->
<g id="edge24" class="edge">
<title>Node22&#45;&gt;Node23</title>
<path fill="none" stroke="#191970" d="M1215.2581,-307.5827C1242.9988,-314.7073 1280.3739,-324.3064 1310.0594,-331.9306"/>
<polygon fill="#191970" stroke="#191970" points="1309.2505,-335.3363 1319.8068,-334.434 1310.9919,-328.5564 1309.2505,-335.3363"/>
</g>
<!-- Node24 -->
<g id="node24" class="node">
<title>Node24</title>
<g id="a_node24"><a xlink:href="../../dc/d82/classPHNode.html#adda2bd6cef2d5067bbe3016a990b7198" target="_top" xlink:title="PHNode::setParent">
<polygon fill="none" stroke="#000000" points="1303.5,-295.5 1303.5,-315.5 1414.5,-315.5 1414.5,-295.5 1303.5,-295.5"/>
<text text-anchor="middle" x="1359" y="-302.5" font-family="FreeSans" font-size="10.00" fill="#000000">PHNode::setParent</text>
</a>
</g>
</g>
<!-- Node22&#45;&gt;Node24 -->
<g id="edge25" class="edge">
<title>Node22&#45;&gt;Node24</title>
<path fill="none" stroke="#191970" d="M1257.0656,-301.0439C1269.1924,-301.574 1281.5669,-302.1149 1293.322,-302.6288"/>
<polygon fill="#191970" stroke="#191970" points="1293.3277,-306.1323 1303.4711,-303.0725 1293.6335,-299.139 1293.3277,-306.1323"/>
</g>
<!-- Node25 -->
<g id="node25" class="node">
<title>Node25</title>
<g id="a_node25"><a xlink:href="../../d6/d86/classPHPointerList.html#ac2176735e9d046a034f1686fd2c477eb" target="_top" xlink:title="PHPointerList::append">
<polygon fill="none" stroke="#000000" points="1295,-256.5 1295,-276.5 1423,-276.5 1423,-256.5 1295,-256.5"/>
<text text-anchor="middle" x="1359" y="-263.5" font-family="FreeSans" font-size="10.00" fill="#000000">PHPointerList::append</text>
</a>
</g>
</g>
<!-- Node22&#45;&gt;Node25 -->
<g id="edge26" class="edge">
<title>Node22&#45;&gt;Node25</title>
<path fill="none" stroke="#191970" d="M1235.1621,-287.478C1252.6078,-284.5227 1271.8534,-281.2625 1289.8668,-278.2111"/>
<polygon fill="#191970" stroke="#191970" points="1290.4534,-281.6617 1299.7283,-276.5406 1289.2842,-274.76 1290.4534,-281.6617"/>
</g>
<!-- Node26&#45;&gt;Node17 -->
<g id="edge28" class="edge">
<title>Node26&#45;&gt;Node17</title>
<path fill="none" stroke="#191970" d="M707.2152,-12.973C796.6858,-15.6024 937.3167,-20.2454 1059,-26.5 1135.1365,-30.4135 1222.0444,-36.3712 1282.6522,-40.7669"/>
<polygon fill="#191970" stroke="#191970" points="1282.6717,-44.2776 1292.8996,-41.5135 1283.1804,-37.2961 1282.6717,-44.2776"/>
</g>
</g>
</svg>
