<?xml version="1.0" encoding="UTF-8" standalone="no"?>
<!DOCTYPE svg PUBLIC "-//W3C//DTD SVG 1.1//EN"
 "http://www.w3.org/Graphics/SVG/1.1/DTD/svg11.dtd">
<!-- Generated by graphviz version 2.40.1 (20161225.0304)
 -->
<!-- Title: PHG4OHCalSteppingAction::NoHitSteppingAction Pages: 1 -->
<svg width="1625pt" height="587pt"
 viewBox="0.00 0.00 1625.00 587.00" xmlns="http://www.w3.org/2000/svg" xmlns:xlink="http://www.w3.org/1999/xlink">
<g id="graph0" class="graph" transform="scale(1 1) rotate(0) translate(4 583)">
<title>PHG4OHCalSteppingAction::NoHitSteppingAction</title>
<!-- Node1 -->
<g id="node1" class="node">
<title>Node1</title>
<polygon fill="#bfbfbf" stroke="#000000" points="0,-217.5 0,-249.5 152,-249.5 152,-217.5 0,-217.5"/>
<text text-anchor="start" x="8" y="-236.5" font-family="FreeSans" font-size="10.00" fill="#000000">PHG4OHCalSteppingAction</text>
<text text-anchor="middle" x="76" y="-224.5" font-family="FreeSans" font-size="10.00" fill="#000000">::NoHitSteppingAction</text>
</g>
<!-- Node2 -->
<g id="node2" class="node">
<title>Node2</title>
<g id="a_node2"><a xlink:href="../../da/d55/TPCRateLayered_8m.html#ac40e4ec8f2a74a2878f06670249eebb8" target="_top" xlink:title="double">
<polygon fill="none" stroke="#000000" points="244.5,-423.5 244.5,-443.5 295.5,-443.5 295.5,-423.5 244.5,-423.5"/>
<text text-anchor="middle" x="270" y="-430.5" font-family="FreeSans" font-size="10.00" fill="#000000">double</text>
</a>
</g>
</g>
<!-- Node1&#45;&gt;Node2 -->
<g id="edge1" class="edge">
<title>Node1&#45;&gt;Node2</title>
<path fill="none" stroke="#191970" d="M81.112,-249.5108C93.3658,-285.1818 127.9433,-371.4267 188,-414.5 201.3147,-424.0494 218.6964,-428.8786 234.0283,-431.2905"/>
<polygon fill="#191970" stroke="#191970" points="233.8755,-434.7996 244.24,-432.6024 234.7675,-427.8566 233.8755,-434.7996"/>
</g>
<!-- Node3 -->
<g id="node3" class="node">
<title>Node3</title>
<g id="a_node3"><a xlink:href="../../da/d9c/namespaceTowerInfoDefs.html#a2e815ce9a29173aad1d9c56f4afc9fec" target="_top" xlink:title="TowerInfoDefs::encode_hcal">
<polygon fill="none" stroke="#000000" points="191,-384.5 191,-404.5 349,-404.5 349,-384.5 191,-384.5"/>
<text text-anchor="middle" x="270" y="-391.5" font-family="FreeSans" font-size="10.00" fill="#000000">TowerInfoDefs::encode_hcal</text>
</a>
</g>
</g>
<!-- Node1&#45;&gt;Node3 -->
<g id="edge2" class="edge">
<title>Node1&#45;&gt;Node3</title>
<path fill="none" stroke="#191970" d="M83.9553,-249.6324C99.5475,-279.478 137.0949,-343.2061 188,-375.5 190.9268,-377.3568 194.0152,-379.0325 197.2101,-380.545"/>
<polygon fill="#191970" stroke="#191970" points="195.8728,-383.7794 206.4501,-384.3894 198.5618,-377.3165 195.8728,-383.7794"/>
</g>
<!-- Node4 -->
<g id="node4" class="node">
<title>Node4</title>
<g id="a_node4"><a xlink:href="../../de/d05/classPHG4OHCalSteppingAction.html#aa92bf3219f2b2f232007f74628746bc0" target="_top" xlink:title="PHG4OHCalSteppingAction\l::FieldChecker">
<polygon fill="none" stroke="#000000" points="194,-333.5 194,-365.5 346,-365.5 346,-333.5 194,-333.5"/>
<text text-anchor="start" x="202" y="-352.5" font-family="FreeSans" font-size="10.00" fill="#000000">PHG4OHCalSteppingAction</text>
<text text-anchor="middle" x="270" y="-340.5" font-family="FreeSans" font-size="10.00" fill="#000000">::FieldChecker</text>
</a>
</g>
</g>
<!-- Node1&#45;&gt;Node4 -->
<g id="edge3" class="edge">
<title>Node1&#45;&gt;Node4</title>
<path fill="none" stroke="#191970" d="M91.6198,-249.5723C112.0422,-269.7369 149.7394,-304.1354 188,-324.5 191.4487,-326.3356 195.0523,-328.0576 198.7428,-329.6701"/>
<polygon fill="#191970" stroke="#191970" points="197.4747,-332.9326 208.0566,-333.4547 200.1099,-326.4476 197.4747,-332.9326"/>
</g>
<!-- Node30 -->
<g id="node30" class="node">
<title>Node30</title>
<g id="a_node30"><a xlink:href="../../d3/d65/classTowerInfo.html#aec47b24db774275f49d738950530b5e0" target="_top" xlink:title="TowerInfo::get_energy">
<polygon fill="none" stroke="#000000" points="205.5,-294.5 205.5,-314.5 334.5,-314.5 334.5,-294.5 205.5,-294.5"/>
<text text-anchor="middle" x="270" y="-301.5" font-family="FreeSans" font-size="10.00" fill="#000000">TowerInfo::get_energy</text>
</a>
</g>
</g>
<!-- Node1&#45;&gt;Node30 -->
<g id="edge33" class="edge">
<title>Node1&#45;&gt;Node30</title>
<path fill="none" stroke="#191970" d="M107.2132,-249.6332C129.3285,-260.5842 159.936,-274.7849 188,-284.5 195.8626,-287.2219 204.2714,-289.7202 212.5973,-291.9603"/>
<polygon fill="#191970" stroke="#191970" points="211.7375,-295.353 222.2954,-294.4693 213.4908,-288.5761 211.7375,-295.353"/>
</g>
<!-- Node31 -->
<g id="node31" class="node">
<title>Node31</title>
<g id="a_node31"><a xlink:href="../../d9/da7/classTowerInfoContainer.html#a4a5660445958fcceed637c5f4213afb4" target="_top" xlink:title="TowerInfoContainer\l::get_tower_at_key">
<polygon fill="none" stroke="#000000" points="212,-243.5 212,-275.5 328,-275.5 328,-243.5 212,-243.5"/>
<text text-anchor="start" x="220" y="-262.5" font-family="FreeSans" font-size="10.00" fill="#000000">TowerInfoContainer</text>
<text text-anchor="middle" x="270" y="-250.5" font-family="FreeSans" font-size="10.00" fill="#000000">::get_tower_at_key</text>
</a>
</g>
</g>
<!-- Node1&#45;&gt;Node31 -->
<g id="edge34" class="edge">
<title>Node1&#45;&gt;Node31</title>
<path fill="none" stroke="#191970" d="M152.1171,-243.7013C168.4008,-245.8836 185.5087,-248.1764 201.4853,-250.3176"/>
<polygon fill="#191970" stroke="#191970" points="201.4245,-253.8407 211.8008,-251.7001 202.3544,-246.9027 201.4245,-253.8407"/>
</g>
<!-- Node32 -->
<g id="node32" class="node">
<title>Node32</title>
<g id="a_node32"><a xlink:href="../../df/d3f/classPHG4SteppingAction.html#a1d609cbf3e7bab8fbc5ff65ee4682f3e" target="_top" xlink:title="PHG4SteppingAction\l::GetLightCorrection">
<polygon fill="none" stroke="#000000" points="209.5,-192.5 209.5,-224.5 330.5,-224.5 330.5,-192.5 209.5,-192.5"/>
<text text-anchor="start" x="217.5" y="-211.5" font-family="FreeSans" font-size="10.00" fill="#000000">PHG4SteppingAction</text>
<text text-anchor="middle" x="270" y="-199.5" font-family="FreeSans" font-size="10.00" fill="#000000">::GetLightCorrection</text>
</a>
</g>
</g>
<!-- Node1&#45;&gt;Node32 -->
<g id="edge35" class="edge">
<title>Node1&#45;&gt;Node32</title>
<path fill="none" stroke="#191970" d="M152.1171,-223.6911C167.7042,-221.6825 184.0464,-219.5765 199.4288,-217.5942"/>
<polygon fill="#191970" stroke="#191970" points="199.9103,-221.0612 209.3809,-216.3117 199.0156,-214.1186 199.9103,-221.0612"/>
</g>
<!-- Node34 -->
<g id="node34" class="node">
<title>Node34</title>
<g id="a_node34"><a xlink:href="../../d3/d07/classPHG4OHCalDetector.html#ad9edfd1b5977a1ecc9c621f56ff5e163" target="_top" xlink:title="PHG4OHCalDetector::\lGetRowColumnId">
<polygon fill="none" stroke="#000000" points="207.5,-141.5 207.5,-173.5 332.5,-173.5 332.5,-141.5 207.5,-141.5"/>
<text text-anchor="start" x="215.5" y="-160.5" font-family="FreeSans" font-size="10.00" fill="#000000">PHG4OHCalDetector::</text>
<text text-anchor="middle" x="270" y="-148.5" font-family="FreeSans" font-size="10.00" fill="#000000">GetRowColumnId</text>
</a>
</g>
</g>
<!-- Node1&#45;&gt;Node34 -->
<g id="edge37" class="edge">
<title>Node1&#45;&gt;Node34</title>
<path fill="none" stroke="#191970" d="M108.3562,-217.3978C130.4714,-206.7334 160.6223,-192.8555 188,-182.5 193.1332,-180.5584 198.4889,-178.6574 203.8966,-176.8257"/>
<polygon fill="#191970" stroke="#191970" points="205.2489,-180.0652 213.6498,-173.6095 203.0567,-173.4173 205.2489,-180.0652"/>
</g>
<!-- Node35 -->
<g id="node35" class="node">
<title>Node35</title>
<g id="a_node35"><a xlink:href="../../df/d3f/classPHG4SteppingAction.html#a57aa751589ae9eb0c2e6563948e85513" target="_top" xlink:title="get amount of energy that can make scintillation light, in Unit of GeV.">
<polygon fill="none" stroke="#000000" points="188,-90.5 188,-122.5 352,-122.5 352,-90.5 188,-90.5"/>
<text text-anchor="start" x="196" y="-109.5" font-family="FreeSans" font-size="10.00" fill="#000000">PHG4SteppingAction</text>
<text text-anchor="middle" x="270" y="-97.5" font-family="FreeSans" font-size="10.00" fill="#000000">::GetVisibleEnergyDeposition</text>
</a>
</g>
</g>
<!-- Node1&#45;&gt;Node35 -->
<g id="edge38" class="edge">
<title>Node1&#45;&gt;Node35</title>
<path fill="none" stroke="#191970" d="M89.5247,-217.3107C109.0584,-194.9208 147.3121,-154.6515 188,-131.5 191.0682,-129.7542 194.2717,-128.1173 197.5592,-126.5841"/>
<polygon fill="#191970" stroke="#191970" points="199.1927,-129.6919 207.0035,-122.5335 196.4335,-123.2586 199.1927,-129.6919"/>
</g>
<!-- Node36 -->
<g id="node36" class="node">
<title>Node36</title>
<g id="a_node36"><a xlink:href="../../d3/d07/classPHG4OHCalDetector.html#a75be330a35bb6333b108d39e3c49b4fb" target="_top" xlink:title="PHG4OHCalDetector::\lIsInOHCal">
<polygon fill="none" stroke="#000000" points="207.5,-39.5 207.5,-71.5 332.5,-71.5 332.5,-39.5 207.5,-39.5"/>
<text text-anchor="start" x="215.5" y="-58.5" font-family="FreeSans" font-size="10.00" fill="#000000">PHG4OHCalDetector::</text>
<text text-anchor="middle" x="270" y="-46.5" font-family="FreeSans" font-size="10.00" fill="#000000">IsInOHCal</text>
</a>
</g>
</g>
<!-- Node1&#45;&gt;Node36 -->
<g id="edge39" class="edge">
<title>Node1&#45;&gt;Node36</title>
<path fill="none" stroke="#191970" d="M83.3631,-217.43C98.4582,-186.273 135.9277,-117.4718 188,-80.5 191.0945,-78.3029 194.3861,-76.2954 197.8049,-74.4616"/>
<polygon fill="#191970" stroke="#191970" points="199.6004,-77.4823 207.1035,-70.0021 196.5733,-71.1706 199.6004,-77.4823"/>
</g>
<!-- Node37 -->
<g id="node37" class="node">
<title>Node37</title>
<g id="a_node37"><a xlink:href="../../d3/d65/classTowerInfo.html#a43d0cdf6977d627bcb5c54d30906ce31" target="_top" xlink:title="TowerInfo::set_energy">
<polygon fill="none" stroke="#000000" points="206,-.5 206,-20.5 334,-20.5 334,-.5 206,-.5"/>
<text text-anchor="middle" x="270" y="-7.5" font-family="FreeSans" font-size="10.00" fill="#000000">TowerInfo::set_energy</text>
</a>
</g>
</g>
<!-- Node1&#45;&gt;Node37 -->
<g id="edge40" class="edge">
<title>Node1&#45;&gt;Node37</title>
<path fill="none" stroke="#191970" d="M80.0065,-217.2564C90.5018,-178.279 122.6169,-79.0188 188,-29.5 190.6793,-27.4708 193.5391,-25.6528 196.5253,-24.0245"/>
<polygon fill="#191970" stroke="#191970" points="198.2306,-27.091 205.809,-19.6871 195.2676,-20.749 198.2306,-27.091"/>
</g>
<!-- Node5 -->
<g id="node5" class="node">
<title>Node5</title>
<g id="a_node5"><a xlink:href="../../da/d29/classFun4AllServer.html#a076cf04bf26e8a5bfc56e61e7cb90d60" target="_top" xlink:title="Fun4AllServer::getHisto">
<polygon fill="none" stroke="#000000" points="411,-271.5 411,-291.5 546,-291.5 546,-271.5 411,-271.5"/>
<text text-anchor="middle" x="478.5" y="-278.5" font-family="FreeSans" font-size="10.00" fill="#000000">Fun4AllServer::getHisto</text>
</a>
</g>
</g>
<!-- Node4&#45;&gt;Node5 -->
<g id="edge4" class="edge">
<title>Node4&#45;&gt;Node5</title>
<path fill="none" stroke="#191970" d="M324.8786,-333.3915C333.975,-330.5433 343.2807,-327.5198 352,-324.5 368.2219,-318.8817 371.8183,-316.2331 388,-310.5 403.4361,-305.031 420.5073,-299.4434 435.625,-294.6512"/>
<polygon fill="#191970" stroke="#191970" points="436.7519,-297.9659 445.2406,-291.6262 434.6512,-291.2885 436.7519,-297.9659"/>
</g>
<!-- Node9 -->
<g id="node9" class="node">
<title>Node9</title>
<g id="a_node9"><a xlink:href="../../da/d29/classFun4AllServer.html#a3e55156f91b2c94bb6c4ef33ffce587a" target="_top" xlink:title="Fun4AllServer::instance">
<polygon fill="none" stroke="#000000" points="410.5,-400.5 410.5,-420.5 546.5,-420.5 546.5,-400.5 410.5,-400.5"/>
<text text-anchor="middle" x="478.5" y="-407.5" font-family="FreeSans" font-size="10.00" fill="#000000">Fun4AllServer::instance</text>
</a>
</g>
</g>
<!-- Node4&#45;&gt;Node9 -->
<g id="edge8" class="edge">
<title>Node4&#45;&gt;Node9</title>
<path fill="none" stroke="#191970" d="M321.6064,-365.5694C342.2206,-371.9033 366.1986,-379.1643 388,-385.5 401.981,-389.563 417.2231,-393.8342 431.1441,-397.6737"/>
<polygon fill="#191970" stroke="#191970" points="430.4405,-401.11 441.0104,-400.384 432.2948,-394.36 430.4405,-401.11"/>
</g>
<!-- Node19 -->
<g id="node19" class="node">
<title>Node19</title>
<g id="a_node19"><a xlink:href="../../da/d29/classFun4AllServer.html#a1d7daeb59511a7dc61a2566f4116a6ec" target="_top" xlink:title="Fun4AllServer::registerHisto">
<polygon fill="none" stroke="#000000" points="965,-309.5 965,-329.5 1123,-329.5 1123,-309.5 965,-309.5"/>
<text text-anchor="middle" x="1044" y="-316.5" font-family="FreeSans" font-size="10.00" fill="#000000">Fun4AllServer::registerHisto</text>
</a>
</g>
</g>
<!-- Node4&#45;&gt;Node19 -->
<g id="edge32" class="edge">
<title>Node4&#45;&gt;Node19</title>
<path fill="none" stroke="#191970" d="M346.1687,-353.0622C444.1046,-356.9299 619.3912,-361.4444 769,-352.5 836.894,-348.4409 913.7148,-338.793 968.8708,-330.9713"/>
<polygon fill="#191970" stroke="#191970" points="969.5076,-334.4159 978.9105,-329.5338 968.5154,-327.4866 969.5076,-334.4159"/>
</g>
<!-- Node28 -->
<g id="node28" class="node">
<title>Node28</title>
<g id="a_node28"><a xlink:href="../../da/d29/classFun4AllServer.html#a737e191e9187f364a741270be993baaa" target="_top" xlink:title="Fun4AllServer::isHistoRegistered">
<polygon fill="none" stroke="#000000" points="388,-319.5 388,-339.5 569,-339.5 569,-319.5 388,-319.5"/>
<text text-anchor="middle" x="478.5" y="-326.5" font-family="FreeSans" font-size="10.00" fill="#000000">Fun4AllServer::isHistoRegistered</text>
</a>
</g>
</g>
<!-- Node4&#45;&gt;Node28 -->
<g id="edge30" class="edge">
<title>Node4&#45;&gt;Node28</title>
<path fill="none" stroke="#191970" d="M346.1583,-342.1946C356.3844,-341.2137 367.0003,-340.1954 377.5705,-339.1815"/>
<polygon fill="#191970" stroke="#191970" points="378.0566,-342.651 387.6767,-338.2121 377.3882,-335.683 378.0566,-342.651"/>
</g>
<!-- Node6 -->
<g id="node6" class="node">
<title>Node6</title>
<g id="a_node6"><a xlink:href="../../d3/d96/classFun4AllHistoManager.html#ae5401f032b650d41224dfa0e2f12d364" target="_top" xlink:title="Fun4AllHistoManager\l::getHisto">
<polygon fill="none" stroke="#000000" points="625,-259.5 625,-291.5 749,-291.5 749,-259.5 625,-259.5"/>
<text text-anchor="start" x="633" y="-278.5" font-family="FreeSans" font-size="10.00" fill="#000000">Fun4AllHistoManager</text>
<text text-anchor="middle" x="687" y="-266.5" font-family="FreeSans" font-size="10.00" fill="#000000">::getHisto</text>
</a>
</g>
</g>
<!-- Node5&#45;&gt;Node6 -->
<g id="edge5" class="edge">
<title>Node5&#45;&gt;Node6</title>
<path fill="none" stroke="#191970" d="M546.194,-279.552C568.1575,-278.9199 592.5997,-278.2166 614.8736,-277.5756"/>
<polygon fill="#191970" stroke="#191970" points="615.0431,-281.0722 624.9382,-277.2859 614.8417,-274.0751 615.0431,-281.0722"/>
</g>
<!-- Node7 -->
<g id="node7" class="node">
<title>Node7</title>
<g id="a_node7"><a xlink:href="../../d3/d96/classFun4AllHistoManager.html#a78e6d7a95c28595e45b84db4c1542237" target="_top" xlink:title="Fun4AllHistoManager\l::Print">
<polygon fill="none" stroke="#000000" points="805,-262.5 805,-294.5 929,-294.5 929,-262.5 805,-262.5"/>
<text text-anchor="start" x="813" y="-281.5" font-family="FreeSans" font-size="10.00" fill="#000000">Fun4AllHistoManager</text>
<text text-anchor="middle" x="867" y="-269.5" font-family="FreeSans" font-size="10.00" fill="#000000">::Print</text>
</a>
</g>
</g>
<!-- Node6&#45;&gt;Node7 -->
<g id="edge6" class="edge">
<title>Node6&#45;&gt;Node7</title>
<path fill="none" stroke="#191970" d="M749.1978,-276.5366C763.8117,-276.7802 779.5101,-277.0418 794.5307,-277.2922"/>
<polygon fill="#191970" stroke="#191970" points="794.7427,-280.7961 804.7997,-277.4633 794.8594,-273.7971 794.7427,-280.7961"/>
</g>
<!-- Node8 -->
<g id="node8" class="node">
<title>Node8</title>
<g id="a_node8"><a xlink:href="../../d5/dec/classFun4AllBase.html#a41f9ac377743d046f590617fd6f4f0ed" target="_top" xlink:title="Returns the name of this module.">
<polygon fill="none" stroke="#000000" points="1182.5,-393.5 1182.5,-413.5 1297.5,-413.5 1297.5,-393.5 1182.5,-393.5"/>
<text text-anchor="middle" x="1240" y="-400.5" font-family="FreeSans" font-size="10.00" fill="#000000">Fun4AllBase::Name</text>
</a>
</g>
</g>
<!-- Node7&#45;&gt;Node8 -->
<g id="edge7" class="edge">
<title>Node7&#45;&gt;Node8</title>
<path fill="none" stroke="#191970" d="M929.0123,-270.6739C983.3839,-266.7568 1062.9072,-268.3784 1123,-300.5 1145.588,-312.574 1140.4128,-327.8785 1159,-345.5 1176.0507,-361.6649 1197.8137,-377.0059 1214.4869,-387.8457"/>
<polygon fill="#191970" stroke="#191970" points="1212.8509,-390.9535 1223.1638,-393.3813 1216.6158,-385.0522 1212.8509,-390.9535"/>
</g>
<!-- Node10 -->
<g id="node10" class="node">
<title>Node10</title>
<g id="a_node10"><a xlink:href="../../da/d29/classFun4AllServer.html#a90e27f05f0b2e8b6fe462387b14bfb92" target="_top" xlink:title="Fun4AllServer::Fun4AllServer">
<polygon fill="none" stroke="#000000" points="605,-400.5 605,-420.5 769,-420.5 769,-400.5 605,-400.5"/>
<text text-anchor="middle" x="687" y="-407.5" font-family="FreeSans" font-size="10.00" fill="#000000">Fun4AllServer::Fun4AllServer</text>
</a>
</g>
</g>
<!-- Node9&#45;&gt;Node10 -->
<g id="edge9" class="edge">
<title>Node9&#45;&gt;Node10</title>
<path fill="none" stroke="#191970" d="M546.7707,-410.5C561.9688,-410.5 578.3298,-410.5 594.3229,-410.5"/>
<polygon fill="#191970" stroke="#191970" points="594.7637,-414.0001 604.7637,-410.5 594.7636,-407.0001 594.7637,-414.0001"/>
</g>
<!-- Node11 -->
<g id="node11" class="node">
<title>Node11</title>
<g id="a_node11"><a xlink:href="../../da/d29/classFun4AllServer.html#aa1939c3e2c3113cce0a6415103b4f5a5" target="_top" xlink:title="Fun4AllServer::InitAll">
<polygon fill="none" stroke="#000000" points="806,-400.5 806,-420.5 928,-420.5 928,-400.5 806,-400.5"/>
<text text-anchor="middle" x="867" y="-407.5" font-family="FreeSans" font-size="10.00" fill="#000000">Fun4AllServer::InitAll</text>
</a>
</g>
</g>
<!-- Node10&#45;&gt;Node11 -->
<g id="edge10" class="edge">
<title>Node10&#45;&gt;Node11</title>
<path fill="none" stroke="#191970" d="M769.0989,-410.5C777.9624,-410.5 786.929,-410.5 795.6511,-410.5"/>
<polygon fill="#191970" stroke="#191970" points="795.7571,-414.0001 805.757,-410.5 795.757,-407.0001 795.7571,-414.0001"/>
</g>
<!-- Node11&#45;&gt;Node8 -->
<g id="edge18" class="edge">
<title>Node11&#45;&gt;Node8</title>
<path fill="none" stroke="#191970" d="M928.1757,-409.3519C995.2116,-408.0939 1102.4538,-406.0813 1172.0587,-404.775"/>
<polygon fill="#191970" stroke="#191970" points="1172.5376,-408.2668 1182.4701,-404.5796 1172.4061,-401.268 1172.5376,-408.2668"/>
</g>
<!-- Node12 -->
<g id="node12" class="node">
<title>Node12</title>
<g id="a_node12"><a xlink:href="../../da/d29/classFun4AllServer.html#a2ebfcdcf706670c98c189bfa93c3ff89" target="_top" xlink:title="Fun4AllServer::InitNodeTree">
<polygon fill="none" stroke="#000000" points="965.5,-489.5 965.5,-509.5 1122.5,-509.5 1122.5,-489.5 965.5,-489.5"/>
<text text-anchor="middle" x="1044" y="-496.5" font-family="FreeSans" font-size="10.00" fill="#000000">Fun4AllServer::InitNodeTree</text>
</a>
</g>
</g>
<!-- Node11&#45;&gt;Node12 -->
<g id="edge11" class="edge">
<title>Node11&#45;&gt;Node12</title>
<path fill="none" stroke="#191970" d="M878.1538,-420.7052C895.4537,-435.986 930.3813,-464.7012 965,-480.5 969.8926,-482.7328 975.0801,-484.722 980.3661,-486.4906"/>
<polygon fill="#191970" stroke="#191970" points="979.3577,-489.8422 989.9449,-489.4408 981.4182,-483.1523 979.3577,-489.8422"/>
</g>
<!-- Node17 -->
<g id="node17" class="node">
<title>Node17</title>
<g id="a_node17"><a xlink:href="../../d5/d4f/classFun4AllMonitoring.html#a4d2dc73220d8300c356f258b8c6283a8" target="_top" xlink:title="Fun4AllMonitoring::\linstance">
<polygon fill="none" stroke="#000000" points="987,-438.5 987,-470.5 1101,-470.5 1101,-438.5 987,-438.5"/>
<text text-anchor="start" x="995" y="-457.5" font-family="FreeSans" font-size="10.00" fill="#000000">Fun4AllMonitoring::</text>
<text text-anchor="middle" x="1044" y="-445.5" font-family="FreeSans" font-size="10.00" fill="#000000">instance</text>
</a>
</g>
</g>
<!-- Node11&#45;&gt;Node17 -->
<g id="edge16" class="edge">
<title>Node11&#45;&gt;Node17</title>
<path fill="none" stroke="#191970" d="M907.6074,-420.5945C928.1476,-425.7005 953.6133,-432.031 976.959,-437.8344"/>
<polygon fill="#191970" stroke="#191970" points="976.2648,-441.2683 986.8139,-440.2842 977.9536,-434.4751 976.2648,-441.2683"/>
</g>
<!-- Node11&#45;&gt;Node19 -->
<g id="edge19" class="edge">
<title>Node11&#45;&gt;Node19</title>
<path fill="none" stroke="#191970" d="M901.1919,-400.3921C910.7374,-396.6239 920.7459,-391.7101 929,-385.5 949.7452,-369.8919 943.247,-353.6697 965,-339.5 968.5342,-337.1979 972.3166,-335.1607 976.2415,-333.358"/>
<polygon fill="#191970" stroke="#191970" points="977.6546,-336.5618 985.6085,-329.5628 975.026,-330.0741 977.6546,-336.5618"/>
</g>
<!-- Node23 -->
<g id="node23" class="node">
<title>Node23</title>
<g id="a_node23"><a xlink:href="../../da/d29/classFun4AllServer.html#a377f113767f24ce6413e678752ed7f53" target="_top" xlink:title="Fun4AllServer::registerHisto\lManager">
<polygon fill="none" stroke="#000000" points="965,-348.5 965,-380.5 1123,-380.5 1123,-348.5 965,-348.5"/>
<text text-anchor="start" x="973" y="-367.5" font-family="FreeSans" font-size="10.00" fill="#000000">Fun4AllServer::registerHisto</text>
<text text-anchor="middle" x="1044" y="-355.5" font-family="FreeSans" font-size="10.00" fill="#000000">Manager</text>
</a>
</g>
</g>
<!-- Node11&#45;&gt;Node23 -->
<g id="edge23" class="edge">
<title>Node11&#45;&gt;Node23</title>
<path fill="none" stroke="#191970" d="M905.8434,-400.4051C925.3454,-395.3368 949.6039,-389.0323 972.326,-383.1272"/>
<polygon fill="#191970" stroke="#191970" points="973.4939,-386.44 982.292,-380.5371 971.7331,-379.665 973.4939,-386.44"/>
</g>
<!-- Node24 -->
<g id="node24" class="node">
<title>Node24</title>
<g id="a_node24"><a xlink:href="../../d5/d4f/classFun4AllMonitoring.html#aeea0018148441caf4a9a1b5cc448ecfb" target="_top" xlink:title="Fun4AllMonitoring::\lSnapshot">
<polygon fill="none" stroke="#000000" points="987,-536.5 987,-568.5 1101,-568.5 1101,-536.5 987,-536.5"/>
<text text-anchor="start" x="995" y="-555.5" font-family="FreeSans" font-size="10.00" fill="#000000">Fun4AllMonitoring::</text>
<text text-anchor="middle" x="1044" y="-543.5" font-family="FreeSans" font-size="10.00" fill="#000000">Snapshot</text>
</a>
</g>
</g>
<!-- Node11&#45;&gt;Node24 -->
<g id="edge26" class="edge">
<title>Node11&#45;&gt;Node24</title>
<path fill="none" stroke="#191970" d="M873.7017,-420.5777C888.1208,-441.5811 924.1144,-490.4907 965,-519.5 971.5631,-524.1567 978.8837,-528.3197 986.3477,-531.9896"/>
<polygon fill="#191970" stroke="#191970" points="985.2869,-535.3551 995.8326,-536.3744 988.2243,-529.0012 985.2869,-535.3551"/>
</g>
<!-- Node13 -->
<g id="node13" class="node">
<title>Node13</title>
<g id="a_node13"><a xlink:href="../../d5/dca/classPHCompositeNode.html#a15a0c4804399a9de4267647f05bd1ba4" target="_top" xlink:title="PHCompositeNode::addNode">
<polygon fill="none" stroke="#000000" points="1159,-489.5 1159,-509.5 1321,-509.5 1321,-489.5 1159,-489.5"/>
<text text-anchor="middle" x="1240" y="-496.5" font-family="FreeSans" font-size="10.00" fill="#000000">PHCompositeNode::addNode</text>
</a>
</g>
</g>
<!-- Node12&#45;&gt;Node13 -->
<g id="edge12" class="edge">
<title>Node12&#45;&gt;Node13</title>
<path fill="none" stroke="#191970" d="M1122.5914,-499.5C1131.1647,-499.5 1139.9445,-499.5 1148.6539,-499.5"/>
<polygon fill="#191970" stroke="#191970" points="1148.8291,-503.0001 1158.8291,-499.5 1148.829,-496.0001 1148.8291,-503.0001"/>
</g>
<!-- Node14 -->
<g id="node14" class="node">
<title>Node14</title>
<g id="a_node14"><a xlink:href="../../d6/d86/classPHPointerList.html#ac2176735e9d046a034f1686fd2c477eb" target="_top" xlink:title="PHPointerList::append">
<polygon fill="none" stroke="#000000" points="1359,-480.5 1359,-500.5 1487,-500.5 1487,-480.5 1359,-480.5"/>
<text text-anchor="middle" x="1423" y="-487.5" font-family="FreeSans" font-size="10.00" fill="#000000">PHPointerList::append</text>
</a>
</g>
</g>
<!-- Node13&#45;&gt;Node14 -->
<g id="edge13" class="edge">
<title>Node13&#45;&gt;Node14</title>
<path fill="none" stroke="#191970" d="M1321.0656,-495.5132C1330.2346,-495.0622 1339.5453,-494.6043 1348.6227,-494.1579"/>
<polygon fill="#191970" stroke="#191970" points="1348.9365,-497.6468 1358.7524,-493.6597 1348.5926,-490.6552 1348.9365,-497.6468"/>
</g>
<!-- Node15 -->
<g id="node15" class="node">
<title>Node15</title>
<g id="a_node15"><a xlink:href="../../dc/d82/classPHNode.html#aca3576f926a4401eddc3d88bf0ce0de3" target="_top" xlink:title="PHNode::getName">
<polygon fill="none" stroke="#000000" points="1368.5,-441.5 1368.5,-461.5 1477.5,-461.5 1477.5,-441.5 1368.5,-441.5"/>
<text text-anchor="middle" x="1423" y="-448.5" font-family="FreeSans" font-size="10.00" fill="#000000">PHNode::getName</text>
</a>
</g>
</g>
<!-- Node13&#45;&gt;Node15 -->
<g id="edge14" class="edge">
<title>Node13&#45;&gt;Node15</title>
<path fill="none" stroke="#191970" d="M1284.655,-489.4186C1296.4971,-486.6378 1309.2553,-483.5453 1321,-480.5 1340.2465,-475.5096 1361.4076,-469.5684 1379.4423,-464.3669"/>
<polygon fill="#191970" stroke="#191970" points="1380.4785,-467.7107 1389.108,-461.5641 1378.5288,-460.9877 1380.4785,-467.7107"/>
</g>
<!-- Node16 -->
<g id="node16" class="node">
<title>Node16</title>
<g id="a_node16"><a xlink:href="../../dc/d82/classPHNode.html#adda2bd6cef2d5067bbe3016a990b7198" target="_top" xlink:title="PHNode::setParent">
<polygon fill="none" stroke="#000000" points="1367.5,-519.5 1367.5,-539.5 1478.5,-539.5 1478.5,-519.5 1367.5,-519.5"/>
<text text-anchor="middle" x="1423" y="-526.5" font-family="FreeSans" font-size="10.00" fill="#000000">PHNode::setParent</text>
</a>
</g>
</g>
<!-- Node13&#45;&gt;Node16 -->
<g id="edge15" class="edge">
<title>Node13&#45;&gt;Node16</title>
<path fill="none" stroke="#191970" d="M1301.1908,-509.5313C1319.2508,-512.4919 1339.0868,-515.7437 1357.4116,-518.7478"/>
<polygon fill="#191970" stroke="#191970" points="1356.9812,-522.2239 1367.4157,-520.3878 1358.1136,-515.3161 1356.9812,-522.2239"/>
</g>
<!-- Node18 -->
<g id="node18" class="node">
<title>Node18</title>
<g id="a_node18"><a xlink:href="../../d5/d4f/classFun4AllMonitoring.html#aaf0fd3c11a5727613f4a81e113eb8675" target="_top" xlink:title="Fun4AllMonitoring::\lFun4AllMonitoring">
<polygon fill="none" stroke="#000000" points="1183,-438.5 1183,-470.5 1297,-470.5 1297,-438.5 1183,-438.5"/>
<text text-anchor="start" x="1191" y="-457.5" font-family="FreeSans" font-size="10.00" fill="#000000">Fun4AllMonitoring::</text>
<text text-anchor="middle" x="1240" y="-445.5" font-family="FreeSans" font-size="10.00" fill="#000000">Fun4AllMonitoring</text>
</a>
</g>
</g>
<!-- Node17&#45;&gt;Node18 -->
<g id="edge17" class="edge">
<title>Node17&#45;&gt;Node18</title>
<path fill="none" stroke="#191970" d="M1101.2182,-454.5C1123.5611,-454.5 1149.3462,-454.5 1172.5821,-454.5"/>
<polygon fill="#191970" stroke="#191970" points="1172.7107,-458.0001 1182.7107,-454.5 1172.7107,-451.0001 1172.7107,-458.0001"/>
</g>
<!-- Node20 -->
<g id="node20" class="node">
<title>Node20</title>
<g id="a_node20"><a xlink:href="../../d3/d96/classFun4AllHistoManager.html#a7e1354855437fa28bb0d29dc0581d0a6" target="_top" xlink:title="Fun4AllHistoManager\l::registerHisto">
<polygon fill="none" stroke="#000000" points="1178,-303.5 1178,-335.5 1302,-335.5 1302,-303.5 1178,-303.5"/>
<text text-anchor="start" x="1186" y="-322.5" font-family="FreeSans" font-size="10.00" fill="#000000">Fun4AllHistoManager</text>
<text text-anchor="middle" x="1240" y="-310.5" font-family="FreeSans" font-size="10.00" fill="#000000">::registerHisto</text>
</a>
</g>
</g>
<!-- Node19&#45;&gt;Node20 -->
<g id="edge20" class="edge">
<title>Node19&#45;&gt;Node20</title>
<path fill="none" stroke="#191970" d="M1123.1557,-319.5C1137.7752,-319.5 1152.976,-319.5 1167.3898,-319.5"/>
<polygon fill="#191970" stroke="#191970" points="1167.7267,-323.0001 1177.7266,-319.5 1167.7266,-316.0001 1167.7267,-323.0001"/>
</g>
<!-- Node21 -->
<g id="node21" class="node">
<title>Node21</title>
<g id="a_node21"><a xlink:href="../../dc/df6/200pp__pythia8__CTEQ6L__7GeV__ALL_8cfg__eneg__DSTReader_8root__Draw__HFJetTruth__CrossSection2RAA_8C.html#abf6f7b5ad3b256b0f81411de1474963c" target="_top" xlink:title="SetDirectory">
<polygon fill="none" stroke="#000000" points="1383.5,-309.5 1383.5,-329.5 1462.5,-329.5 1462.5,-309.5 1383.5,-309.5"/>
<text text-anchor="middle" x="1423" y="-316.5" font-family="FreeSans" font-size="10.00" fill="#000000">SetDirectory</text>
</a>
</g>
</g>
<!-- Node20&#45;&gt;Node21 -->
<g id="edge21" class="edge">
<title>Node20&#45;&gt;Node21</title>
<path fill="none" stroke="#191970" d="M1302.2108,-319.5C1325.3786,-319.5 1351.3469,-319.5 1373.2515,-319.5"/>
<polygon fill="#191970" stroke="#191970" points="1373.3257,-323.0001 1383.3256,-319.5 1373.3256,-316.0001 1373.3257,-323.0001"/>
</g>
<!-- Node22 -->
<g id="node22" class="node">
<title>Node22</title>
<g id="a_node22"><a xlink:href="../../d5/dec/classFun4AllBase.html#a8a5c77a92bdac6bc043476e132379a40" target="_top" xlink:title="Gets the verbosity of this module.">
<polygon fill="none" stroke="#000000" points="1357,-351.5 1357,-371.5 1489,-371.5 1489,-351.5 1357,-351.5"/>
<text text-anchor="middle" x="1423" y="-358.5" font-family="FreeSans" font-size="10.00" fill="#000000">Fun4AllBase::Verbosity</text>
</a>
</g>
</g>
<!-- Node20&#45;&gt;Node22 -->
<g id="edge22" class="edge">
<title>Node20&#45;&gt;Node22</title>
<path fill="none" stroke="#191970" d="M1302.2108,-333.7779C1324.1262,-338.8077 1348.5477,-344.4126 1369.6649,-349.2591"/>
<polygon fill="#191970" stroke="#191970" points="1368.8967,-352.6738 1379.4262,-351.4995 1370.4626,-345.8511 1368.8967,-352.6738"/>
</g>
<!-- Node23&#45;&gt;Node8 -->
<g id="edge24" class="edge">
<title>Node23&#45;&gt;Node8</title>
<path fill="none" stroke="#191970" d="M1123.1557,-380.2504C1141.8955,-383.9792 1161.5905,-387.8981 1179.3587,-391.4336"/>
<polygon fill="#191970" stroke="#191970" points="1179.0851,-394.9477 1189.5759,-393.4666 1180.4512,-388.0823 1179.0851,-394.9477"/>
</g>
<!-- Node23&#45;&gt;Node22 -->
<g id="edge25" class="edge">
<title>Node23&#45;&gt;Node22</title>
<path fill="none" stroke="#191970" d="M1123.4508,-363.8711C1189.1769,-363.3508 1281.9324,-362.6166 1346.758,-362.1035"/>
<polygon fill="#191970" stroke="#191970" points="1346.9419,-365.6023 1356.9138,-362.0231 1346.8864,-358.6025 1346.9419,-365.6023"/>
</g>
<!-- Node25 -->
<g id="node25" class="node">
<title>Node25</title>
<g id="a_node25"><a xlink:href="../../d5/d4f/classFun4AllMonitoring.html#a4a815a60428fa831a2b25d7ff4e48281" target="_top" xlink:title="Fun4AllMonitoring::\lGet_Memory">
<polygon fill="none" stroke="#000000" points="1183,-544.5 1183,-576.5 1297,-576.5 1297,-544.5 1183,-544.5"/>
<text text-anchor="start" x="1191" y="-563.5" font-family="FreeSans" font-size="10.00" fill="#000000">Fun4AllMonitoring::</text>
<text text-anchor="middle" x="1240" y="-551.5" font-family="FreeSans" font-size="10.00" fill="#000000">Get_Memory</text>
</a>
</g>
</g>
<!-- Node24&#45;&gt;Node25 -->
<g id="edge27" class="edge">
<title>Node24&#45;&gt;Node25</title>
<path fill="none" stroke="#191970" d="M1101.2182,-554.8354C1123.5611,-555.7474 1149.3462,-556.7998 1172.5821,-557.7482"/>
<polygon fill="#191970" stroke="#191970" points="1172.5762,-561.2508 1182.7107,-558.1617 1172.8618,-554.2567 1172.5762,-561.2508"/>
</g>
<!-- Node26 -->
<g id="node26" class="node">
<title>Node26</title>
<g id="a_node26"><a xlink:href="../../d9/dda/arsenal_8cpp.html#aa7cb820696f8a66d03330e091482020c" target="_top" xlink:title="trim">
<polygon fill="none" stroke="#000000" points="1404.5,-558.5 1404.5,-578.5 1441.5,-578.5 1441.5,-558.5 1404.5,-558.5"/>
<text text-anchor="middle" x="1423" y="-565.5" font-family="FreeSans" font-size="10.00" fill="#000000">trim</text>
</a>
</g>
</g>
<!-- Node25&#45;&gt;Node26 -->
<g id="edge28" class="edge">
<title>Node25&#45;&gt;Node26</title>
<path fill="none" stroke="#191970" d="M1297.1496,-562.9983C1329.2665,-564.4024 1367.9887,-566.0951 1393.9236,-567.2289"/>
<polygon fill="#191970" stroke="#191970" points="1394.0558,-570.7379 1404.1992,-567.6781 1394.3616,-563.7446 1394.0558,-570.7379"/>
</g>
<!-- Node27 -->
<g id="node27" class="node">
<title>Node27</title>
<g id="a_node27"><a xlink:href="../../dd/d7e/namespaceActs_1_1Test.html#a88f0887efddd644c8defc1e91456c3c9" target="_top" xlink:title="Acts::Test::tmp">
<polygon fill="none" stroke="#000000" points="1525,-558.5 1525,-578.5 1617,-578.5 1617,-558.5 1525,-558.5"/>
<text text-anchor="middle" x="1571" y="-565.5" font-family="FreeSans" font-size="10.00" fill="#000000">Acts::Test::tmp</text>
</a>
</g>
</g>
<!-- Node26&#45;&gt;Node27 -->
<g id="edge29" class="edge">
<title>Node26&#45;&gt;Node27</title>
<path fill="none" stroke="#191970" d="M1441.7443,-568.5C1460.0785,-568.5 1488.9265,-568.5 1514.7218,-568.5"/>
<polygon fill="#191970" stroke="#191970" points="1514.8013,-572.0001 1524.8012,-568.5 1514.8012,-565.0001 1514.8013,-572.0001"/>
</g>
<!-- Node29 -->
<g id="node29" class="node">
<title>Node29</title>
<g id="a_node29"><a xlink:href="../../d3/d96/classFun4AllHistoManager.html#af2d3721028bbdf8eca4c6f09de0b65dc" target="_top" xlink:title="Fun4AllHistoManager\l::isHistoRegistered">
<polygon fill="none" stroke="#000000" points="625,-310.5 625,-342.5 749,-342.5 749,-310.5 625,-310.5"/>
<text text-anchor="start" x="633" y="-329.5" font-family="FreeSans" font-size="10.00" fill="#000000">Fun4AllHistoManager</text>
<text text-anchor="middle" x="687" y="-317.5" font-family="FreeSans" font-size="10.00" fill="#000000">::isHistoRegistered</text>
</a>
</g>
</g>
<!-- Node28&#45;&gt;Node29 -->
<g id="edge31" class="edge">
<title>Node28&#45;&gt;Node29</title>
<path fill="none" stroke="#191970" d="M569.0415,-328.1972C584.3106,-327.9775 599.9789,-327.7521 614.7055,-327.5402"/>
<polygon fill="#191970" stroke="#191970" points="614.7852,-331.0395 624.7338,-327.3959 614.6845,-324.0402 614.7852,-331.0395"/>
</g>
<!-- Node33 -->
<g id="node33" class="node">
<title>Node33</title>
<g id="a_node33"><a xlink:href="../../df/d3f/classPHG4SteppingAction.html#af935b2f4316ea30f8d5bdc95b98a30e5" target="_top" xlink:title="PHG4SteppingAction\l::ValidCorrection">
<polygon fill="none" stroke="#000000" points="418,-192.5 418,-224.5 539,-224.5 539,-192.5 418,-192.5"/>
<text text-anchor="start" x="426" y="-211.5" font-family="FreeSans" font-size="10.00" fill="#000000">PHG4SteppingAction</text>
<text text-anchor="middle" x="478.5" y="-199.5" font-family="FreeSans" font-size="10.00" fill="#000000">::ValidCorrection</text>
</a>
</g>
</g>
<!-- Node32&#45;&gt;Node33 -->
<g id="edge36" class="edge">
<title>Node32&#45;&gt;Node33</title>
<path fill="none" stroke="#191970" d="M330.5869,-208.5C354.6808,-208.5 382.5726,-208.5 407.5985,-208.5"/>
<polygon fill="#191970" stroke="#191970" points="407.762,-212.0001 417.762,-208.5 407.7619,-205.0001 407.762,-212.0001"/>
</g>
</g>
</svg>
