<?xml version="1.0" encoding="UTF-8" standalone="no"?>
<!DOCTYPE svg PUBLIC "-//W3C//DTD SVG 1.1//EN"
 "http://www.w3.org/Graphics/SVG/1.1/DTD/svg11.dtd">
<!-- Generated by graphviz version 2.40.1 (20161225.0304)
 -->
<!-- Title: InttMonDraw::Option_s Pages: 1 -->
<svg width="139pt" height="192pt"
 viewBox="0.00 0.00 139.00 192.00" xmlns="http://www.w3.org/2000/svg" xmlns:xlink="http://www.w3.org/1999/xlink">
<g id="graph0" class="graph" transform="scale(1 1) rotate(0) translate(4 188)">
<title>InttMonDraw::Option_s</title>
<!-- Node1 -->
<g id="node1" class="node">
<title>Node1</title>
<polygon fill="#bfbfbf" stroke="#000000" points="0,-.5 0,-20.5 131,-20.5 131,-.5 0,-.5"/>
<text text-anchor="middle" x="65.5" y="-7.5" font-family="FreeSans" font-size="10.00" fill="#000000">InttMonDraw::Option_s</text>
</g>
<!-- Node2 -->
<g id="node2" class="node">
<title>Node2</title>
<g id="a_node2"><a xlink:title="STL class.">
<polygon fill="none" stroke="#bfbfbf" points="32,-93.5 32,-113.5 99,-113.5 99,-93.5 32,-93.5"/>
<text text-anchor="middle" x="65.5" y="-100.5" font-family="FreeSans" font-size="10.00" fill="#000000">std::string</text>
</a>
</g>
</g>
<!-- Node2&#45;&gt;Node1 -->
<g id="edge1" class="edge">
<title>Node2&#45;&gt;Node1</title>
<path fill="none" stroke="#9a32cd" stroke-dasharray="5,2" d="M65.5,-82.9902C65.5,-63.6435 65.5,-35.4545 65.5,-20.5714"/>
<polygon fill="#9a32cd" stroke="#9a32cd" points="62.0001,-83.192 65.5,-93.192 69.0001,-83.1921 62.0001,-83.192"/>
<text text-anchor="middle" x="81" y="-66" font-family="FreeSans" font-size="10.00" fill="#000000"> head</text>
<text text-anchor="middle" x="81" y="-54" font-family="FreeSans" font-size="10.00" fill="#000000">global</text>
<text text-anchor="middle" x="81" y="-42" font-family="FreeSans" font-size="10.00" fill="#000000">local</text>
</g>
<!-- Node3 -->
<g id="node3" class="node">
<title>Node3</title>
<g id="a_node3"><a xlink:title="STL class.">
<polygon fill="none" stroke="#bfbfbf" points="12,-151.5 12,-183.5 119,-183.5 119,-151.5 12,-151.5"/>
<text text-anchor="start" x="20" y="-170.5" font-family="FreeSans" font-size="10.00" fill="#000000">std::basic_string&lt;</text>
<text text-anchor="middle" x="65.5" y="-158.5" font-family="FreeSans" font-size="10.00" fill="#000000"> char &gt;</text>
</a>
</g>
</g>
<!-- Node3&#45;&gt;Node2 -->
<g id="edge2" class="edge">
<title>Node3&#45;&gt;Node2</title>
<path fill="none" stroke="#191970" d="M65.5,-141.2639C65.5,-131.5394 65.5,-121.0805 65.5,-113.641"/>
<polygon fill="#191970" stroke="#191970" points="62.0001,-141.3501 65.5,-151.3501 69.0001,-141.3501 62.0001,-141.3501"/>
</g>
</g>
</svg>
