<?xml version="1.0" encoding="UTF-8" standalone="no"?>
<!DOCTYPE svg PUBLIC "-//W3C//DTD SVG 1.1//EN"
 "http://www.w3.org/Graphics/SVG/1.1/DTD/svg11.dtd">
<!-- Generated by graphviz version 2.40.1 (20161225.0304)
 -->
<!-- Title: MvtxAlign Pages: 1 -->
<svg width="846pt" height="192pt"
 viewBox="0.00 0.00 846.00 191.50" xmlns="http://www.w3.org/2000/svg" xmlns:xlink="http://www.w3.org/1999/xlink">
<g id="graph0" class="graph" transform="scale(1 1) rotate(0) translate(4 187.5)">
<title>MvtxAlign</title>
<!-- Node1 -->
<g id="node1" class="node">
<title>Node1</title>
<polygon fill="#bfbfbf" stroke="#000000" points="772,-90.5 772,-110.5 838,-110.5 838,-90.5 772,-90.5"/>
<text text-anchor="middle" x="805" y="-97.5" font-family="FreeSans" font-size="10.00" fill="#000000">MvtxAlign</text>
</g>
<!-- Node2 -->
<g id="node2" class="node">
<title>Node2</title>
<g id="a_node2"><a xlink:href="../../d0/d32/classSubsysReco.html" target="_top" xlink:title="SubsysReco">
<polygon fill="none" stroke="#000000" points="564,-129.5 564,-149.5 640,-149.5 640,-129.5 564,-129.5"/>
<text text-anchor="middle" x="602" y="-136.5" font-family="FreeSans" font-size="10.00" fill="#000000">SubsysReco</text>
</a>
</g>
</g>
<!-- Node2&#45;&gt;Node1 -->
<g id="edge1" class="edge">
<title>Node2&#45;&gt;Node1</title>
<path fill="none" stroke="#191970" d="M650.3172,-134.1168C680.369,-130.2938 719.6894,-124.4283 754,-116.5 761.1427,-114.8495 768.7338,-112.694 775.8163,-110.5023"/>
<polygon fill="#191970" stroke="#191970" points="649.5908,-130.6799 640.0975,-135.3838 650.4522,-137.6267 649.5908,-130.6799"/>
</g>
<!-- Node3 -->
<g id="node3" class="node">
<title>Node3</title>
<g id="a_node3"><a xlink:href="../../d5/dec/classFun4AllBase.html" target="_top" xlink:title="Fun4AllBase">
<polygon fill="none" stroke="#000000" points="338.5,-129.5 338.5,-149.5 416.5,-149.5 416.5,-129.5 338.5,-129.5"/>
<text text-anchor="middle" x="377.5" y="-136.5" font-family="FreeSans" font-size="10.00" fill="#000000">Fun4AllBase</text>
</a>
</g>
</g>
<!-- Node3&#45;&gt;Node2 -->
<g id="edge2" class="edge">
<title>Node3&#45;&gt;Node2</title>
<path fill="none" stroke="#191970" d="M426.6985,-139.5C467.9106,-139.5 525.9055,-139.5 563.7179,-139.5"/>
<polygon fill="#191970" stroke="#191970" points="426.605,-136.0001 416.6049,-139.5 426.6049,-143.0001 426.605,-136.0001"/>
</g>
<!-- Node4 -->
<g id="node4" class="node">
<title>Node4</title>
<g id="a_node4"><a xlink:title="STL class.">
<polygon fill="none" stroke="#bfbfbf" points="144,-148.5 144,-168.5 211,-168.5 211,-148.5 144,-148.5"/>
<text text-anchor="middle" x="177.5" y="-155.5" font-family="FreeSans" font-size="10.00" fill="#000000">std::string</text>
</a>
</g>
</g>
<!-- Node4&#45;&gt;Node1 -->
<g id="edge8" class="edge">
<title>Node4&#45;&gt;Node1</title>
<path fill="none" stroke="#9a32cd" stroke-dasharray="5,2" d="M221.2989,-163.9528C223.902,-164.168 226.4838,-164.3539 229,-164.5 260.0588,-166.3032 267.8896,-164.7047 299,-164.5 467.8999,-163.3889 512.2925,-186.6478 679,-159.5 713.5434,-153.8747 722.5712,-150.8987 754,-135.5 768.0793,-128.6018 782.6875,-118.1879 792.6419,-110.512"/>
<polygon fill="#9a32cd" stroke="#9a32cd" points="221.5338,-160.4594 211.2479,-162.9991 220.8725,-167.4281 221.5338,-160.4594"/>
<text text-anchor="middle" x="481.5" y="-174.5" font-family="FreeSans" font-size="10.00" fill="#000000"> fdir_</text>
</g>
<!-- Node4&#45;&gt;Node3 -->
<g id="edge3" class="edge">
<title>Node4&#45;&gt;Node3</title>
<path fill="none" stroke="#9a32cd" stroke-dasharray="5,2" d="M221.198,-153.3214C223.8371,-153.0358 226.4534,-152.7598 229,-152.5 266.0746,-148.7183 308.4266,-145.0777 338.3883,-142.6161"/>
<polygon fill="#9a32cd" stroke="#9a32cd" points="220.5568,-149.8711 211.0052,-154.4555 221.3309,-156.8281 220.5568,-149.8711"/>
<text text-anchor="middle" x="264" y="-155.5" font-family="FreeSans" font-size="10.00" fill="#000000"> m_ThisName</text>
</g>
<!-- Node5 -->
<g id="node5" class="node">
<title>Node5</title>
<g id="a_node5"><a xlink:title="STL class.">
<polygon fill="none" stroke="#bfbfbf" points="0,-142.5 0,-174.5 107,-174.5 107,-142.5 0,-142.5"/>
<text text-anchor="start" x="8" y="-161.5" font-family="FreeSans" font-size="10.00" fill="#000000">std::basic_string&lt;</text>
<text text-anchor="middle" x="53.5" y="-149.5" font-family="FreeSans" font-size="10.00" fill="#000000"> char &gt;</text>
</a>
</g>
</g>
<!-- Node5&#45;&gt;Node4 -->
<g id="edge4" class="edge">
<title>Node5&#45;&gt;Node4</title>
<path fill="none" stroke="#191970" d="M117.4289,-158.5C126.5342,-158.5 135.584,-158.5 143.7918,-158.5"/>
<polygon fill="#191970" stroke="#191970" points="117.167,-155.0001 107.167,-158.5 117.167,-162.0001 117.167,-155.0001"/>
</g>
<!-- Node6 -->
<g id="node6" class="node">
<title>Node6</title>
<g id="a_node6"><a xlink:href="../../d0/d2c/classTrkrClusterContainer.html" target="_top" xlink:title="Cluster container object.">
<polygon fill="none" stroke="#000000" points="541,-90.5 541,-110.5 663,-110.5 663,-90.5 541,-90.5"/>
<text text-anchor="middle" x="602" y="-97.5" font-family="FreeSans" font-size="10.00" fill="#000000">TrkrClusterContainer</text>
</a>
</g>
</g>
<!-- Node6&#45;&gt;Node1 -->
<g id="edge5" class="edge">
<title>Node6&#45;&gt;Node1</title>
<path fill="none" stroke="#9a32cd" stroke-dasharray="5,2" d="M673.4205,-100.5C706.9691,-100.5 745.3373,-100.5 771.9495,-100.5"/>
<polygon fill="#9a32cd" stroke="#9a32cd" points="673.182,-97.0001 663.182,-100.5 673.1819,-104.0001 673.182,-97.0001"/>
<text text-anchor="middle" x="725.5" y="-103.5" font-family="FreeSans" font-size="10.00" fill="#000000"> clusters_</text>
</g>
<!-- Node7 -->
<g id="node7" class="node">
<title>Node7</title>
<g id="a_node7"><a xlink:href="../../d9/d24/classPHObject.html" target="_top" xlink:title="PHObject">
<polygon fill="none" stroke="#000000" points="346,-90.5 346,-110.5 409,-110.5 409,-90.5 346,-90.5"/>
<text text-anchor="middle" x="377.5" y="-97.5" font-family="FreeSans" font-size="10.00" fill="#000000">PHObject</text>
</a>
</g>
</g>
<!-- Node7&#45;&gt;Node6 -->
<g id="edge6" class="edge">
<title>Node7&#45;&gt;Node6</title>
<path fill="none" stroke="#191970" d="M419.3002,-100.5C453.482,-100.5 502.2931,-100.5 540.8653,-100.5"/>
<polygon fill="#191970" stroke="#191970" points="419.1892,-97.0001 409.1892,-100.5 419.1892,-104.0001 419.1892,-97.0001"/>
</g>
<!-- Node8 -->
<g id="node8" class="node">
<title>Node8</title>
<polygon fill="none" stroke="#bfbfbf" points="149,-90.5 149,-110.5 206,-110.5 206,-90.5 149,-90.5"/>
<text text-anchor="middle" x="177.5" y="-97.5" font-family="FreeSans" font-size="10.00" fill="#000000">TObject</text>
</g>
<!-- Node8&#45;&gt;Node7 -->
<g id="edge7" class="edge">
<title>Node8&#45;&gt;Node7</title>
<path fill="none" stroke="#191970" d="M216.2768,-100.5C254.0648,-100.5 310.8128,-100.5 345.9284,-100.5"/>
<polygon fill="#191970" stroke="#191970" points="216.1552,-97.0001 206.1551,-100.5 216.1551,-104.0001 216.1552,-97.0001"/>
</g>
<!-- Node9 -->
<g id="node9" class="node">
<title>Node9</title>
<g id="a_node9"><a xlink:href="../../d7/d41/classPHTimeServer_1_1timer.html" target="_top" xlink:title="wrapper around PHTimer, for storage in a map">
<polygon fill="none" stroke="#000000" points="541,-51.5 541,-71.5 663,-71.5 663,-51.5 541,-51.5"/>
<text text-anchor="middle" x="602" y="-58.5" font-family="FreeSans" font-size="10.00" fill="#000000">PHTimeServer::timer</text>
</a>
</g>
</g>
<!-- Node9&#45;&gt;Node1 -->
<g id="edge9" class="edge">
<title>Node9&#45;&gt;Node1</title>
<path fill="none" stroke="#9a32cd" stroke-dasharray="5,2" d="M673.0804,-69.9493C698.744,-73.6054 727.8293,-78.4526 754,-84.5 761.1427,-86.1505 768.7338,-88.306 775.8163,-90.4977"/>
<polygon fill="#9a32cd" stroke="#9a32cd" points="673.4426,-66.4661 663.056,-68.5563 672.4791,-73.3995 673.4426,-66.4661"/>
<text text-anchor="middle" x="725.5" y="-87.5" font-family="FreeSans" font-size="10.00" fill="#000000"> _timer</text>
</g>
<!-- Node10 -->
<g id="node10" class="node">
<title>Node10</title>
<polygon fill="none" stroke="#bfbfbf" points="525,-.5 525,-32.5 679,-32.5 679,-.5 525,-.5"/>
<text text-anchor="start" x="533" y="-19.5" font-family="FreeSans" font-size="10.00" fill="#000000">std::map&lt; TrkrDefs</text>
<text text-anchor="middle" x="602" y="-7.5" font-family="FreeSans" font-size="10.00" fill="#000000">::hitsetkey, AlignmentPar &gt;</text>
</g>
<!-- Node10&#45;&gt;Node1 -->
<g id="edge10" class="edge">
<title>Node10&#45;&gt;Node1</title>
<path fill="none" stroke="#9a32cd" stroke-dasharray="5,2" d="M688.7371,-32.9172C710.7488,-38.9412 733.8529,-46.9604 754,-57.5 770.2139,-65.982 785.8407,-80.3736 795.4289,-90.1492"/>
<polygon fill="#9a32cd" stroke="#9a32cd" points="689.6111,-29.5281 679.0499,-30.3723 687.8324,-36.2984 689.6111,-29.5281"/>
<text text-anchor="middle" x="725.5" y="-60.5" font-family="FreeSans" font-size="10.00" fill="#000000"> alignmap_</text>
</g>
<!-- Node11 -->
<g id="node11" class="node">
<title>Node11</title>
<g id="a_node11"><a xlink:href="../../d1/d11/structMvtxPrototype2Align_1_1AlignmentPar.html" target="_top" xlink:title="MvtxPrototype2Align\l::AlignmentPar">
<polygon fill="none" stroke="#000000" points="317,-.5 317,-32.5 438,-32.5 438,-.5 317,-.5"/>
<text text-anchor="start" x="325" y="-19.5" font-family="FreeSans" font-size="10.00" fill="#000000">MvtxPrototype2Align</text>
<text text-anchor="middle" x="377.5" y="-7.5" font-family="FreeSans" font-size="10.00" fill="#000000">::AlignmentPar</text>
</a>
</g>
</g>
<!-- Node11&#45;&gt;Node10 -->
<g id="edge11" class="edge">
<title>Node11&#45;&gt;Node10</title>
<path fill="none" stroke="#9a32cd" stroke-dasharray="5,2" d="M448.4509,-16.5C472.7107,-16.5 499.9613,-16.5 524.6969,-16.5"/>
<polygon fill="#9a32cd" stroke="#9a32cd" points="448.253,-13.0001 438.2529,-16.5 448.2529,-20.0001 448.253,-13.0001"/>
<text text-anchor="middle" x="481.5" y="-19.5" font-family="FreeSans" font-size="10.00" fill="#000000"> elements</text>
</g>
</g>
</svg>
