<?xml version="1.0" encoding="UTF-8" standalone="no"?>
<!DOCTYPE svg PUBLIC "-//W3C//DTD SVG 1.1//EN"
 "http://www.w3.org/Graphics/SVG/1.1/DTD/svg11.dtd">
<!-- Generated by graphviz version 2.40.1 (20161225.0304)
 -->
<!-- Title: HydroFromFile Pages: 1 -->
<svg width="1635pt" height="925pt"
 viewBox="0.00 0.00 1635.00 925.00" xmlns="http://www.w3.org/2000/svg" xmlns:xlink="http://www.w3.org/1999/xlink">
<g id="graph0" class="graph" transform="scale(1 1) rotate(0) translate(4 921)">
<title>HydroFromFile</title>
<!-- Node1 -->
<g id="node1" class="node">
<title>Node1</title>
<polygon fill="#bfbfbf" stroke="#000000" points="1539,-599.5 1539,-619.5 1627,-619.5 1627,-599.5 1539,-599.5"/>
<text text-anchor="middle" x="1583" y="-606.5" font-family="FreeSans" font-size="10.00" fill="#000000">HydroFromFile</text>
</g>
<!-- Node2 -->
<g id="node2" class="node">
<title>Node2</title>
<g id="a_node2"><a xlink:href="../../dc/d9a/classJetscape_1_1FluidDynamics.html" target="_top" xlink:title="Jetscape::FluidDynamics">
<polygon fill="none" stroke="#000000" points="1361,-599.5 1361,-619.5 1502,-619.5 1502,-599.5 1361,-599.5"/>
<text text-anchor="middle" x="1431.5" y="-606.5" font-family="FreeSans" font-size="10.00" fill="#000000">Jetscape::FluidDynamics</text>
</a>
</g>
</g>
<!-- Node2&#45;&gt;Node1 -->
<g id="edge1" class="edge">
<title>Node2&#45;&gt;Node1</title>
<path fill="none" stroke="#191970" d="M1512.6166,-609.5C1521.6775,-609.5 1530.6355,-609.5 1538.9685,-609.5"/>
<polygon fill="#191970" stroke="#191970" points="1512.3707,-606.0001 1502.3707,-609.5 1512.3706,-613.0001 1512.3707,-606.0001"/>
</g>
<!-- Node3 -->
<g id="node3" class="node">
<title>Node3</title>
<g id="a_node3"><a xlink:href="../../db/d28/classJetscape_1_1JetScapeModuleBase.html" target="_top" xlink:title="Jetscape::JetScapeModuleBase">
<polygon fill="none" stroke="#000000" points="1043,-579.5 1043,-599.5 1215,-599.5 1215,-579.5 1043,-579.5"/>
<text text-anchor="middle" x="1129" y="-586.5" font-family="FreeSans" font-size="10.00" fill="#000000">Jetscape::JetScapeModuleBase</text>
</a>
</g>
</g>
<!-- Node3&#45;&gt;Node2 -->
<g id="edge2" class="edge">
<title>Node3&#45;&gt;Node2</title>
<path fill="none" stroke="#191970" d="M1225.4217,-595.875C1269.4167,-598.7837 1320.5695,-602.1658 1360.9053,-604.8326"/>
<polygon fill="#191970" stroke="#191970" points="1225.4887,-592.3719 1215.2795,-595.2044 1225.0268,-599.3566 1225.4887,-592.3719"/>
</g>
<!-- Node4 -->
<g id="node4" class="node">
<title>Node4</title>
<g id="a_node4"><a xlink:href="../../d5/d42/classJetscape_1_1JetScapeTask.html" target="_top" xlink:title="Jetscape::JetScapeTask">
<polygon fill="none" stroke="#000000" points="749,-558.5 749,-578.5 882,-578.5 882,-558.5 749,-558.5"/>
<text text-anchor="middle" x="815.5" y="-565.5" font-family="FreeSans" font-size="10.00" fill="#000000">Jetscape::JetScapeTask</text>
</a>
</g>
</g>
<!-- Node4&#45;&gt;Node3 -->
<g id="edge3" class="edge">
<title>Node4&#45;&gt;Node3</title>
<path fill="none" stroke="#191970" d="M892.4804,-573.6566C938.015,-576.7067 995.7936,-580.5771 1042.8451,-583.7289"/>
<polygon fill="#191970" stroke="#191970" points="892.5807,-570.1555 882.3691,-572.9793 892.1128,-577.1399 892.5807,-570.1555"/>
</g>
<!-- Node5 -->
<g id="node5" class="node">
<title>Node5</title>
<polygon fill="none" stroke="#bfbfbf" points="442.5,-536.5 442.5,-568.5 578.5,-568.5 578.5,-536.5 442.5,-536.5"/>
<text text-anchor="start" x="450.5" y="-555.5" font-family="FreeSans" font-size="10.00" fill="#000000">std::vector&lt; shared</text>
<text text-anchor="middle" x="510.5" y="-543.5" font-family="FreeSans" font-size="10.00" fill="#000000">_ptr&lt; JetScapeTask &gt; &gt;</text>
</g>
<!-- Node5&#45;&gt;Node4 -->
<g id="edge4" class="edge">
<title>Node5&#45;&gt;Node4</title>
<path fill="none" stroke="#9a32cd" stroke-dasharray="5,2" d="M589.0894,-550.8373C627.6779,-550.6381 674.8292,-551.3128 717,-554.5 728.9703,-555.4047 741.7009,-556.85 753.8968,-558.4758"/>
<polygon fill="#9a32cd" stroke="#9a32cd" points="588.9336,-547.3382 578.9592,-550.9104 588.9843,-554.338 588.9336,-547.3382"/>
<text text-anchor="middle" x="661" y="-557.5" font-family="FreeSans" font-size="10.00" fill="#000000"> tasks</text>
</g>
<!-- Node6 -->
<g id="node6" class="node">
<title>Node6</title>
<g id="a_node6"><a xlink:href="../../d4/d67/classshared__ptr.html" target="_top" xlink:title="shared_ptr\&lt; JetScapeTask \&gt;">
<polygon fill="none" stroke="#000000" points="189,-542.5 189,-562.5 347,-562.5 347,-542.5 189,-542.5"/>
<text text-anchor="middle" x="268" y="-549.5" font-family="FreeSans" font-size="10.00" fill="#000000">shared_ptr&lt; JetScapeTask &gt;</text>
</a>
</g>
</g>
<!-- Node6&#45;&gt;Node5 -->
<g id="edge5" class="edge">
<title>Node6&#45;&gt;Node5</title>
<path fill="none" stroke="#9a32cd" stroke-dasharray="5,2" d="M357.2717,-552.5C385.3021,-552.5 415.788,-552.5 442.1319,-552.5"/>
<polygon fill="#9a32cd" stroke="#9a32cd" points="357.0681,-549.0001 347.068,-552.5 357.068,-556.0001 357.0681,-549.0001"/>
<text text-anchor="middle" x="390.5" y="-555.5" font-family="FreeSans" font-size="10.00" fill="#000000"> elements</text>
</g>
<!-- Node7 -->
<g id="node7" class="node">
<title>Node7</title>
<g id="a_node7"><a xlink:title="STL class.">
<polygon fill="none" stroke="#bfbfbf" points="477,-587.5 477,-607.5 544,-607.5 544,-587.5 477,-587.5"/>
<text text-anchor="middle" x="510.5" y="-594.5" font-family="FreeSans" font-size="10.00" fill="#000000">std::string</text>
</a>
</g>
</g>
<!-- Node7&#45;&gt;Node3 -->
<g id="edge11" class="edge">
<title>Node7&#45;&gt;Node3</title>
<path fill="none" stroke="#9a32cd" stroke-dasharray="5,2" d="M554.2908,-599.7398C570.2481,-600.454 588.4352,-601.1496 605,-601.5 791.6588,-605.4487 838.3963,-599.5117 1025,-593.5 1030.7791,-593.3138 1036.7383,-593.1117 1042.7425,-592.9005"/>
<polygon fill="#9a32cd" stroke="#9a32cd" points="554.3171,-596.2374 544.1659,-599.2712 553.9934,-603.2299 554.3171,-596.2374"/>
<text text-anchor="middle" x="815.5" y="-606.5" font-family="FreeSans" font-size="10.00" fill="#000000"> xml_file_name</text>
</g>
<!-- Node7&#45;&gt;Node4 -->
<g id="edge6" class="edge">
<title>Node7&#45;&gt;Node4</title>
<path fill="none" stroke="#9a32cd" stroke-dasharray="5,2" d="M554.0186,-593.3622C604.8553,-588.5285 689.5263,-580.4778 748.7027,-574.8512"/>
<polygon fill="#9a32cd" stroke="#9a32cd" points="553.6366,-589.8826 544.0128,-594.3135 554.2992,-596.8512 553.6366,-589.8826"/>
<text text-anchor="middle" x="661" y="-591.5" font-family="FreeSans" font-size="10.00" fill="#000000"> id</text>
</g>
<!-- Node30 -->
<g id="node30" class="node">
<title>Node30</title>
<g id="a_node30"><a xlink:href="../../d7/d7a/classHydroinfo__MUSIC.html" target="_top" xlink:title="Hydroinfo_MUSIC">
<polygon fill="none" stroke="#000000" points="764,-806.5 764,-826.5 867,-826.5 867,-806.5 764,-806.5"/>
<text text-anchor="middle" x="815.5" y="-813.5" font-family="FreeSans" font-size="10.00" fill="#000000">Hydroinfo_MUSIC</text>
</a>
</g>
</g>
<!-- Node7&#45;&gt;Node30 -->
<g id="edge56" class="edge">
<title>Node7&#45;&gt;Node30</title>
<path fill="none" stroke="#9a32cd" stroke-dasharray="5,2" d="M554.4449,-600.9034C566.1476,-603.6829 578.0175,-608.4436 587,-616.5 604.2716,-631.9908 588.5854,-649.1039 605,-665.5 642.5036,-702.9614 680.7356,-667.8378 717,-706.5 736.3381,-727.1167 717.7704,-745.0912 735,-767.5 748.8621,-785.529 771.4034,-798.4255 789.1121,-806.448"/>
<polygon fill="#9a32cd" stroke="#9a32cd" points="554.7631,-597.4002 544.2805,-598.9378 553.434,-604.2729 554.7631,-597.4002"/>
<text text-anchor="middle" x="661" y="-745.5" font-family="FreeSans" font-size="10.00" fill="#000000"> hydro_ideal_filename</text>
<text text-anchor="middle" x="661" y="-733.5" font-family="FreeSans" font-size="10.00" fill="#000000">hydro_bulk_filename</text>
<text text-anchor="middle" x="661" y="-721.5" font-family="FreeSans" font-size="10.00" fill="#000000">input_filename</text>
<text text-anchor="middle" x="661" y="-709.5" font-family="FreeSans" font-size="10.00" fill="#000000">hydro_shear_filename</text>
</g>
<!-- Node8 -->
<g id="node8" class="node">
<title>Node8</title>
<g id="a_node8"><a xlink:title="STL class.">
<polygon fill="none" stroke="#bfbfbf" points="214.5,-581.5 214.5,-613.5 321.5,-613.5 321.5,-581.5 214.5,-581.5"/>
<text text-anchor="start" x="222.5" y="-600.5" font-family="FreeSans" font-size="10.00" fill="#000000">std::basic_string&lt;</text>
<text text-anchor="middle" x="268" y="-588.5" font-family="FreeSans" font-size="10.00" fill="#000000"> char &gt;</text>
</a>
</g>
</g>
<!-- Node8&#45;&gt;Node7 -->
<g id="edge7" class="edge">
<title>Node8&#45;&gt;Node7</title>
<path fill="none" stroke="#191970" d="M331.8064,-597.5C378.3357,-597.5 439.543,-597.5 476.9028,-597.5"/>
<polygon fill="#191970" stroke="#191970" points="331.5179,-594.0001 321.5179,-597.5 331.5178,-601.0001 331.5179,-594.0001"/>
</g>
<!-- Node9 -->
<g id="node9" class="node">
<title>Node9</title>
<g id="a_node9"><a xlink:href="../../d7/d53/classsigslot_1_1has__slots.html" target="_top" xlink:title="sigslot::has_slots\l\&lt; sigslot::multi_threaded\l_local \&gt;">
<polygon fill="none" stroke="#000000" points="743.5,-646.5 743.5,-690.5 887.5,-690.5 887.5,-646.5 743.5,-646.5"/>
<text text-anchor="start" x="751.5" y="-677.5" font-family="FreeSans" font-size="10.00" fill="#000000">sigslot::has_slots</text>
<text text-anchor="start" x="751.5" y="-665.5" font-family="FreeSans" font-size="10.00" fill="#000000">&lt; sigslot::multi_threaded</text>
<text text-anchor="middle" x="815.5" y="-653.5" font-family="FreeSans" font-size="10.00" fill="#000000">_local &gt;</text>
</a>
</g>
</g>
<!-- Node9&#45;&gt;Node3 -->
<g id="edge8" class="edge">
<title>Node9&#45;&gt;Node3</title>
<path fill="none" stroke="#191970" d="M897.6541,-665.9359C938.2311,-661.6086 986.5915,-651.6502 1025,-629.5 1035.6488,-623.3588 1032.4552,-614.8181 1043,-608.5 1049.0336,-604.8849 1055.6755,-601.9555 1062.5125,-599.5822"/>
<polygon fill="#191970" stroke="#191970" points="897.1319,-662.47 887.5164,-666.9187 897.8075,-669.4374 897.1319,-662.47"/>
</g>
<!-- Node10 -->
<g id="node10" class="node">
<title>Node10</title>
<g id="a_node10"><a xlink:href="../../d5/d63/classsigslot_1_1multi__threaded__local.html" target="_top" xlink:title="sigslot::multi_threaded\l_local">
<polygon fill="none" stroke="#000000" points="444.5,-689.5 444.5,-721.5 576.5,-721.5 576.5,-689.5 444.5,-689.5"/>
<text text-anchor="start" x="452.5" y="-708.5" font-family="FreeSans" font-size="10.00" fill="#000000">sigslot::multi_threaded</text>
<text text-anchor="middle" x="510.5" y="-696.5" font-family="FreeSans" font-size="10.00" fill="#000000">_local</text>
</a>
</g>
</g>
<!-- Node10&#45;&gt;Node9 -->
<g id="edge9" class="edge">
<title>Node10&#45;&gt;Node9</title>
<path fill="none" stroke="#191970" d="M586.8297,-692.118C592.9697,-691.1814 599.0837,-690.295 605,-689.5 650.8632,-683.337 702.5731,-678.1535 743.2641,-674.4783"/>
<polygon fill="#191970" stroke="#191970" points="585.8407,-688.7301 576.5022,-693.7343 586.9231,-695.6459 585.8407,-688.7301"/>
</g>
<!-- Node11 -->
<g id="node11" class="node">
<title>Node11</title>
<polygon fill="none" stroke="#bfbfbf" points="438.5,-626.5 438.5,-670.5 582.5,-670.5 582.5,-626.5 438.5,-626.5"/>
<text text-anchor="start" x="446.5" y="-657.5" font-family="FreeSans" font-size="10.00" fill="#000000">std::set&lt; _signal_base</text>
<text text-anchor="start" x="446.5" y="-645.5" font-family="FreeSans" font-size="10.00" fill="#000000">&lt; sigslot::multi_threaded</text>
<text text-anchor="middle" x="510.5" y="-633.5" font-family="FreeSans" font-size="10.00" fill="#000000">_local &gt; * &gt;</text>
</g>
<!-- Node11&#45;&gt;Node9 -->
<g id="edge10" class="edge">
<title>Node11&#45;&gt;Node9</title>
<path fill="none" stroke="#9a32cd" stroke-dasharray="5,2" d="M593.2756,-645.3992C631.0848,-644.8813 676.3957,-645.5204 717,-649.5 725.5798,-650.3409 734.5243,-651.567 743.3717,-652.9978"/>
<polygon fill="#9a32cd" stroke="#9a32cd" points="592.7606,-641.9072 582.8206,-645.5742 592.8778,-648.9063 592.7606,-641.9072"/>
<text text-anchor="middle" x="661" y="-652.5" font-family="FreeSans" font-size="10.00" fill="#000000"> m_senders</text>
</g>
<!-- Node12 -->
<g id="node12" class="node">
<title>Node12</title>
<g id="a_node12"><a xlink:href="../../d4/d67/classshared__ptr.html" target="_top" xlink:title="shared_ptr\&lt; std::mt19937 \&gt;">
<polygon fill="none" stroke="#000000" points="735,-519.5 735,-539.5 896,-539.5 896,-519.5 735,-519.5"/>
<text text-anchor="middle" x="815.5" y="-526.5" font-family="FreeSans" font-size="10.00" fill="#000000">shared_ptr&lt; std::mt19937 &gt;</text>
</a>
</g>
</g>
<!-- Node12&#45;&gt;Node3 -->
<g id="edge12" class="edge">
<title>Node12&#45;&gt;Node3</title>
<path fill="none" stroke="#9a32cd" stroke-dasharray="5,2" d="M906.3167,-539.7144C943.3336,-544.6007 986.4173,-551.2145 1025,-559.5 1049.9871,-564.8659 1077.777,-572.9973 1098.3397,-579.4415"/>
<polygon fill="#9a32cd" stroke="#9a32cd" points="906.4129,-536.1976 896.0458,-538.3821 905.5124,-543.1395 906.4129,-536.1976"/>
<text text-anchor="middle" x="969.5" y="-562.5" font-family="FreeSans" font-size="10.00" fill="#000000"> mt19937_generator_</text>
</g>
<!-- Node13 -->
<g id="node13" class="node">
<title>Node13</title>
<g id="a_node13"><a xlink:href="../../d5/df6/classJetscape_1_1Parameter.html" target="_top" xlink:title="Jetscape::Parameter">
<polygon fill="none" stroke="#000000" points="1069.5,-657.5 1069.5,-677.5 1188.5,-677.5 1188.5,-657.5 1069.5,-657.5"/>
<text text-anchor="middle" x="1129" y="-664.5" font-family="FreeSans" font-size="10.00" fill="#000000">Jetscape::Parameter</text>
</a>
</g>
</g>
<!-- Node13&#45;&gt;Node2 -->
<g id="edge13" class="edge">
<title>Node13&#45;&gt;Node2</title>
<path fill="none" stroke="#9a32cd" stroke-dasharray="5,2" d="M1198.7168,-661.2932C1240.8355,-656.7434 1295.4009,-649.4281 1343,-638.5 1364.2739,-633.6158 1387.7216,-625.8183 1405.1343,-619.5383"/>
<polygon fill="#9a32cd" stroke="#9a32cd" points="1198.1415,-657.8343 1188.5632,-662.3627 1198.8748,-664.7958 1198.1415,-657.8343"/>
<text text-anchor="middle" x="1288" y="-660.5" font-family="FreeSans" font-size="10.00" fill="#000000"> parameter_list</text>
</g>
<!-- Node14 -->
<g id="node14" class="node">
<title>Node14</title>
<g id="a_node14"><a xlink:href="../../d5/d83/classtinyxml2_1_1XMLElement.html" target="_top" xlink:title="tinyxml2::XMLElement">
<polygon fill="none" stroke="#000000" points="1063.5,-486.5 1063.5,-506.5 1194.5,-506.5 1194.5,-486.5 1063.5,-486.5"/>
<text text-anchor="middle" x="1129" y="-493.5" font-family="FreeSans" font-size="10.00" fill="#000000">tinyxml2::XMLElement</text>
</a>
</g>
</g>
<!-- Node14&#45;&gt;Node1 -->
<g id="edge48" class="edge">
<title>Node14&#45;&gt;Node1</title>
<path fill="none" stroke="#9a32cd" stroke-dasharray="5,2" d="M1204.8666,-507.1986C1245.9614,-513.5114 1297.4979,-522.2658 1343,-532.5 1414.6523,-548.6158 1432.4264,-553.978 1502,-577.5 1521.6234,-584.1344 1543.4414,-592.8325 1559.4851,-599.4854"/>
<polygon fill="#9a32cd" stroke="#9a32cd" points="1205.3361,-503.7299 1194.9237,-505.6875 1204.2842,-510.6504 1205.3361,-503.7299"/>
<text text-anchor="middle" x="1431.5" y="-580.5" font-family="FreeSans" font-size="10.00" fill="#000000"> para_</text>
</g>
<!-- Node14&#45;&gt;Node2 -->
<g id="edge14" class="edge">
<title>Node14&#45;&gt;Node2</title>
<path fill="none" stroke="#9a32cd" stroke-dasharray="5,2" d="M1165.5439,-510.1511C1227.1809,-533.1758 1350.3887,-579.2006 1404.7153,-599.4945"/>
<polygon fill="#9a32cd" stroke="#9a32cd" points="1166.4374,-506.7487 1155.8449,-506.528 1163.9878,-513.3061 1166.4374,-506.7487"/>
<text text-anchor="middle" x="1288" y="-579.5" font-family="FreeSans" font-size="10.00" fill="#000000"> fd</text>
</g>
<!-- Node15 -->
<g id="node15" class="node">
<title>Node15</title>
<g id="a_node15"><a xlink:href="../../d6/de3/classtinyxml2_1_1XMLNode.html" target="_top" xlink:title="tinyxml2::XMLNode">
<polygon fill="none" stroke="#000000" points="758.5,-272.5 758.5,-292.5 872.5,-292.5 872.5,-272.5 758.5,-272.5"/>
<text text-anchor="middle" x="815.5" y="-279.5" font-family="FreeSans" font-size="10.00" fill="#000000">tinyxml2::XMLNode</text>
</a>
</g>
</g>
<!-- Node15&#45;&gt;Node14 -->
<g id="edge15" class="edge">
<title>Node15&#45;&gt;Node14</title>
<path fill="none" stroke="#191970" d="M838.7873,-298.3963C900.0254,-340.1983 1064.2923,-452.3295 1114.3315,-486.4871"/>
<polygon fill="#191970" stroke="#191970" points="840.4328,-295.2818 830.2003,-292.5346 836.4862,-301.0633 840.4328,-295.2818"/>
</g>
<!-- Node15&#45;&gt;Node15 -->
<g id="edge40" class="edge">
<title>Node15&#45;&gt;Node15</title>
<path fill="none" stroke="#9a32cd" stroke-dasharray="5,2" d="M786.7969,-301.6639C788.1674,-306.9546 797.7351,-311 815.5,-311 842.5703,-311 850.6068,-301.6067 839.6095,-292.7271"/>
<polygon fill="#9a32cd" stroke="#9a32cd" points="789.9317,-303.221 791.3905,-292.7271 783.706,-300.0209 789.9317,-303.221"/>
<text text-anchor="middle" x="815.5" y="-362" font-family="FreeSans" font-size="10.00" fill="#000000"> _lastChild</text>
<text text-anchor="middle" x="815.5" y="-350" font-family="FreeSans" font-size="10.00" fill="#000000">_prev</text>
<text text-anchor="middle" x="815.5" y="-338" font-family="FreeSans" font-size="10.00" fill="#000000">_parent</text>
<text text-anchor="middle" x="815.5" y="-326" font-family="FreeSans" font-size="10.00" fill="#000000">_next</text>
<text text-anchor="middle" x="815.5" y="-314" font-family="FreeSans" font-size="10.00" fill="#000000">_firstChild</text>
</g>
<!-- Node16 -->
<g id="node16" class="node">
<title>Node16</title>
<g id="a_node16"><a xlink:href="../../d3/d63/classtinyxml2_1_1XMLDocument.html" target="_top" xlink:title="tinyxml2::XMLDocument">
<polygon fill="none" stroke="#000000" points="1058.5,-210.5 1058.5,-230.5 1199.5,-230.5 1199.5,-210.5 1058.5,-210.5"/>
<text text-anchor="middle" x="1129" y="-217.5" font-family="FreeSans" font-size="10.00" fill="#000000">tinyxml2::XMLDocument</text>
</a>
</g>
</g>
<!-- Node15&#45;&gt;Node16 -->
<g id="edge17" class="edge">
<title>Node15&#45;&gt;Node16</title>
<path fill="none" stroke="#191970" d="M882.8583,-284.1891C924.422,-283.717 978.4984,-280.3524 1025,-268.5 1057.3732,-260.2487 1092.0457,-242.1553 1112.0576,-230.6912"/>
<polygon fill="#191970" stroke="#191970" points="882.8222,-280.6892 872.8437,-284.25 882.8648,-287.689 882.8222,-280.6892"/>
</g>
<!-- Node16&#45;&gt;Node15 -->
<g id="edge16" class="edge">
<title>Node16&#45;&gt;Node15</title>
<path fill="none" stroke="#9a32cd" stroke-dasharray="5,2" d="M1048.8677,-232.1196C1008.2845,-238.4592 958.3408,-246.9569 914,-256.5 892.7327,-261.0772 869.1632,-267.2581 850.4133,-272.445"/>
<polygon fill="#9a32cd" stroke="#9a32cd" points="1049.6279,-235.5437 1058.9747,-230.555 1048.5569,-228.6261 1049.6279,-235.5437"/>
<text text-anchor="middle" x="969.5" y="-259.5" font-family="FreeSans" font-size="10.00" fill="#000000"> _document</text>
</g>
<!-- Node17 -->
<g id="node17" class="node">
<title>Node17</title>
<g id="a_node17"><a xlink:href="../../d1/d5d/classtinyxml2_1_1MemPoolT.html" target="_top" xlink:title="tinyxml2::MemPoolT\l\&lt; sizeof(XMLText) \&gt;">
<polygon fill="none" stroke="#000000" points="755.5,-133.5 755.5,-165.5 875.5,-165.5 875.5,-133.5 755.5,-133.5"/>
<text text-anchor="start" x="763.5" y="-152.5" font-family="FreeSans" font-size="10.00" fill="#000000">tinyxml2::MemPoolT</text>
<text text-anchor="middle" x="815.5" y="-140.5" font-family="FreeSans" font-size="10.00" fill="#000000">&lt; sizeof(XMLText) &gt;</text>
</a>
</g>
</g>
<!-- Node17&#45;&gt;Node16 -->
<g id="edge18" class="edge">
<title>Node17&#45;&gt;Node16</title>
<path fill="none" stroke="#9a32cd" stroke-dasharray="5,2" d="M885.5092,-165.3554C946.4765,-179.1629 1032.9961,-198.7575 1084.805,-210.4909"/>
<polygon fill="#9a32cd" stroke="#9a32cd" points="886.1011,-161.9008 875.575,-163.1055 884.5549,-168.728 886.1011,-161.9008"/>
<text text-anchor="middle" x="969.5" y="-199.5" font-family="FreeSans" font-size="10.00" fill="#000000"> _textPool</text>
</g>
<!-- Node18 -->
<g id="node18" class="node">
<title>Node18</title>
<g id="a_node18"><a xlink:href="../../db/d69/classtinyxml2_1_1MemPool.html" target="_top" xlink:title="tinyxml2::MemPool">
<polygon fill="none" stroke="#000000" points="454,-230.5 454,-250.5 567,-250.5 567,-230.5 454,-230.5"/>
<text text-anchor="middle" x="510.5" y="-237.5" font-family="FreeSans" font-size="10.00" fill="#000000">tinyxml2::MemPool</text>
</a>
</g>
</g>
<!-- Node18&#45;&gt;Node15 -->
<g id="edge39" class="edge">
<title>Node18&#45;&gt;Node15</title>
<path fill="none" stroke="#9a32cd" stroke-dasharray="5,2" d="M577.2303,-250.5122C586.5533,-251.8742 596.0144,-253.2368 605,-254.5 656.8415,-261.7876 715.9376,-269.6055 758.2897,-275.1232"/>
<polygon fill="#9a32cd" stroke="#9a32cd" points="577.5996,-247.029 567.1972,-249.0393 576.5828,-253.9547 577.5996,-247.029"/>
<text text-anchor="middle" x="661" y="-272.5" font-family="FreeSans" font-size="10.00" fill="#000000"> _memPool</text>
</g>
<!-- Node18&#45;&gt;Node17 -->
<g id="edge19" class="edge">
<title>Node18&#45;&gt;Node17</title>
<path fill="none" stroke="#191970" d="M577.5536,-239.2391C618.8555,-236.6495 672.2771,-229.9827 717,-213.5 725.0846,-210.5204 765.4219,-183.5832 791.905,-165.6185"/>
<polygon fill="#191970" stroke="#191970" points="577.1151,-235.7581 567.3269,-239.8131 577.5074,-242.7471 577.1151,-235.7581"/>
</g>
<!-- Node22 -->
<g id="node22" class="node">
<title>Node22</title>
<g id="a_node22"><a xlink:href="../../d1/d5d/classtinyxml2_1_1MemPoolT.html" target="_top" xlink:title="tinyxml2::MemPoolT\l\&lt; sizeof(XMLComment) \&gt;">
<polygon fill="none" stroke="#000000" points="742.5,-213.5 742.5,-245.5 888.5,-245.5 888.5,-213.5 742.5,-213.5"/>
<text text-anchor="start" x="750.5" y="-232.5" font-family="FreeSans" font-size="10.00" fill="#000000">tinyxml2::MemPoolT</text>
<text text-anchor="middle" x="815.5" y="-220.5" font-family="FreeSans" font-size="10.00" fill="#000000">&lt; sizeof(XMLComment) &gt;</text>
</a>
</g>
</g>
<!-- Node18&#45;&gt;Node22 -->
<g id="edge26" class="edge">
<title>Node18&#45;&gt;Node22</title>
<path fill="none" stroke="#191970" d="M577.0861,-241.2289C617.5676,-241.3304 670.2916,-240.8562 717,-238.5 725.2321,-238.0847 733.84,-237.5088 742.3934,-236.847"/>
<polygon fill="#191970" stroke="#191970" points="577.082,-237.729 567.069,-241.1915 577.0558,-244.7289 577.082,-237.729"/>
</g>
<!-- Node23 -->
<g id="node23" class="node">
<title>Node23</title>
<g id="a_node23"><a xlink:href="../../d1/d5d/classtinyxml2_1_1MemPoolT.html" target="_top" xlink:title="tinyxml2::MemPoolT\l\&lt; sizeof(XMLAttribute) \&gt;">
<polygon fill="none" stroke="#000000" points="745,-64.5 745,-96.5 886,-96.5 886,-64.5 745,-64.5"/>
<text text-anchor="start" x="753" y="-83.5" font-family="FreeSans" font-size="10.00" fill="#000000">tinyxml2::MemPoolT</text>
<text text-anchor="middle" x="815.5" y="-71.5" font-family="FreeSans" font-size="10.00" fill="#000000">&lt; sizeof(XMLAttribute) &gt;</text>
</a>
</g>
</g>
<!-- Node18&#45;&gt;Node23 -->
<g id="edge30" class="edge">
<title>Node18&#45;&gt;Node23</title>
<path fill="none" stroke="#191970" d="M533.6468,-224.7209C552.4421,-212.236 579.8588,-194.7576 605,-181.5 653.0605,-156.1566 668.0539,-156.0876 717,-132.5 730.0651,-126.2038 761.6368,-109.4332 785.5422,-96.6245"/>
<polygon fill="#191970" stroke="#191970" points="531.5189,-221.9336 525.1604,-230.4083 535.4159,-227.7485 531.5189,-221.9336"/>
</g>
<!-- Node24 -->
<g id="node24" class="node">
<title>Node24</title>
<g id="a_node24"><a xlink:href="../../d1/d5d/classtinyxml2_1_1MemPoolT.html" target="_top" xlink:title="tinyxml2::MemPoolT\l\&lt; sizeof(XMLElement) \&gt;">
<polygon fill="none" stroke="#000000" points="746,-.5 746,-32.5 885,-32.5 885,-.5 746,-.5"/>
<text text-anchor="start" x="754" y="-19.5" font-family="FreeSans" font-size="10.00" fill="#000000">tinyxml2::MemPoolT</text>
<text text-anchor="middle" x="815.5" y="-7.5" font-family="FreeSans" font-size="10.00" fill="#000000">&lt; sizeof(XMLElement) &gt;</text>
</a>
</g>
</g>
<!-- Node18&#45;&gt;Node24 -->
<g id="edge34" class="edge">
<title>Node18&#45;&gt;Node24</title>
<path fill="none" stroke="#191970" d="M517.8505,-220.8457C530.606,-189.5198 559.8774,-128.544 605,-96.5 646.834,-66.7913 670.8657,-90.957 717,-68.5 726.1126,-64.0642 726.3653,-59.8064 735,-54.5 748.167,-46.4084 763.3306,-38.84 776.9218,-32.6208"/>
<polygon fill="#191970" stroke="#191970" points="514.5558,-219.6606 514.1589,-230.248 521.0716,-222.2189 514.5558,-219.6606"/>
</g>
<!-- Node26 -->
<g id="node26" class="node">
<title>Node26</title>
<g id="a_node26"><a xlink:href="../../db/d8e/classtinyxml2_1_1XMLAttribute.html" target="_top" xlink:title="tinyxml2::XMLAttribute">
<polygon fill="none" stroke="#000000" points="749,-450.5 749,-470.5 882,-470.5 882,-450.5 749,-450.5"/>
<text text-anchor="middle" x="815.5" y="-457.5" font-family="FreeSans" font-size="10.00" fill="#000000">tinyxml2::XMLAttribute</text>
</a>
</g>
</g>
<!-- Node18&#45;&gt;Node26 -->
<g id="edge44" class="edge">
<title>Node18&#45;&gt;Node26</title>
<path fill="none" stroke="#9a32cd" stroke-dasharray="5,2" d="M521.6156,-259.3579C537.3907,-284.7587 568.4537,-330.053 605,-358.5 648.1614,-392.0961 675.0356,-374.4202 717,-409.5 727.7832,-418.5141 723.6699,-427.1837 735,-435.5 743.848,-441.9944 754.4209,-446.8293 764.9488,-450.4196"/>
<polygon fill="#9a32cd" stroke="#9a32cd" points="524.5227,-257.4019 516.3387,-250.6734 518.5404,-261.037 524.5227,-257.4019"/>
<text text-anchor="middle" x="661" y="-412.5" font-family="FreeSans" font-size="10.00" fill="#000000"> _memPool</text>
</g>
<!-- Node19 -->
<g id="node19" class="node">
<title>Node19</title>
<g id="a_node19"><a xlink:href="../../db/d5b/classtinyxml2_1_1DynArray.html" target="_top" xlink:title="tinyxml2::DynArray\l\&lt; Block *, 10 \&gt;">
<polygon fill="none" stroke="#000000" points="453,-65.5 453,-97.5 568,-97.5 568,-65.5 453,-65.5"/>
<text text-anchor="start" x="461" y="-84.5" font-family="FreeSans" font-size="10.00" fill="#000000">tinyxml2::DynArray</text>
<text text-anchor="middle" x="510.5" y="-72.5" font-family="FreeSans" font-size="10.00" fill="#000000">&lt; Block *, 10 &gt;</text>
</a>
</g>
</g>
<!-- Node19&#45;&gt;Node17 -->
<g id="edge20" class="edge">
<title>Node19&#45;&gt;Node17</title>
<path fill="none" stroke="#9a32cd" stroke-dasharray="5,2" d="M578.4544,-90.303C618.9984,-96.2263 671.3158,-105.0496 717,-116.5 735.3684,-121.1039 755.2395,-127.4827 772.2905,-133.4059"/>
<polygon fill="#9a32cd" stroke="#9a32cd" points="578.8077,-86.8179 568.4115,-88.8597 577.8119,-93.7467 578.8077,-86.8179"/>
<text text-anchor="middle" x="661" y="-119.5" font-family="FreeSans" font-size="10.00" fill="#000000"> _blockPtrs</text>
</g>
<!-- Node19&#45;&gt;Node22 -->
<g id="edge27" class="edge">
<title>Node19&#45;&gt;Node22</title>
<path fill="none" stroke="#9a32cd" stroke-dasharray="5,2" d="M548.3484,-102.6326C565.5111,-112.032 586.1442,-123.0792 605,-132.5 665.1131,-162.5339 736.3762,-194.6615 778.6607,-213.3702"/>
<polygon fill="#9a32cd" stroke="#9a32cd" points="549.6525,-99.3553 539.204,-97.601 546.278,-105.4882 549.6525,-99.3553"/>
<text text-anchor="middle" x="661" y="-187.5" font-family="FreeSans" font-size="10.00" fill="#000000"> _blockPtrs</text>
</g>
<!-- Node19&#45;&gt;Node23 -->
<g id="edge31" class="edge">
<title>Node19&#45;&gt;Node23</title>
<path fill="none" stroke="#9a32cd" stroke-dasharray="5,2" d="M578.5091,-81.277C627.9859,-81.1148 694.7999,-80.8957 744.8738,-80.7316"/>
<polygon fill="#9a32cd" stroke="#9a32cd" points="578.2152,-77.7779 568.2267,-81.3107 578.2382,-84.7778 578.2152,-77.7779"/>
<text text-anchor="middle" x="661" y="-84.5" font-family="FreeSans" font-size="10.00" fill="#000000"> _blockPtrs</text>
</g>
<!-- Node19&#45;&gt;Node24 -->
<g id="edge35" class="edge">
<title>Node19&#45;&gt;Node24</title>
<path fill="none" stroke="#9a32cd" stroke-dasharray="5,2" d="M578.2693,-67.0574C628.1342,-56.4304 695.7057,-42.0299 745.9789,-31.316"/>
<polygon fill="#9a32cd" stroke="#9a32cd" points="577.2776,-63.69 568.2267,-69.1976 578.7366,-70.5363 577.2776,-63.69"/>
<text text-anchor="middle" x="661" y="-63.5" font-family="FreeSans" font-size="10.00" fill="#000000"> _blockPtrs</text>
</g>
<!-- Node20 -->
<g id="node20" class="node">
<title>Node20</title>
<g id="a_node20"><a xlink:href="../../d9/d14/structtinyxml2_1_1MemPoolT_1_1Block.html" target="_top" xlink:title="tinyxml2::MemPoolT\l\&lt; ITEM_SIZE \&gt;::Block">
<polygon fill="none" stroke="#000000" points="205,-65.5 205,-97.5 331,-97.5 331,-65.5 205,-65.5"/>
<text text-anchor="start" x="213" y="-84.5" font-family="FreeSans" font-size="10.00" fill="#000000">tinyxml2::MemPoolT</text>
<text text-anchor="middle" x="268" y="-72.5" font-family="FreeSans" font-size="10.00" fill="#000000">&lt; ITEM_SIZE &gt;::Block</text>
</a>
</g>
</g>
<!-- Node20&#45;&gt;Node19 -->
<g id="edge21" class="edge">
<title>Node20&#45;&gt;Node19</title>
<path fill="none" stroke="#9a32cd" stroke-dasharray="5,2" d="M341.4401,-81.5C377.1203,-81.5 419.3775,-81.5 452.7185,-81.5"/>
<polygon fill="#9a32cd" stroke="#9a32cd" points="341.081,-78.0001 331.081,-81.5 341.0809,-85.0001 341.081,-78.0001"/>
<text text-anchor="middle" x="390.5" y="-96.5" font-family="FreeSans" font-size="10.00" fill="#000000"> _mem</text>
<text text-anchor="middle" x="390.5" y="-84.5" font-family="FreeSans" font-size="10.00" fill="#000000">_pool</text>
</g>
<!-- Node21 -->
<g id="node21" class="node">
<title>Node21</title>
<g id="a_node21"><a xlink:href="../../d5/db2/uniontinyxml2_1_1MemPoolT_1_1Item.html" target="_top" xlink:title="tinyxml2::MemPoolT\l\&lt; ITEM_SIZE \&gt;::Item">
<polygon fill="none" stroke="#000000" points="0,-65.5 0,-97.5 121,-97.5 121,-65.5 0,-65.5"/>
<text text-anchor="start" x="8" y="-84.5" font-family="FreeSans" font-size="10.00" fill="#000000">tinyxml2::MemPoolT</text>
<text text-anchor="middle" x="60.5" y="-72.5" font-family="FreeSans" font-size="10.00" fill="#000000">&lt; ITEM_SIZE &gt;::Item</text>
</a>
</g>
</g>
<!-- Node21&#45;&gt;Node17 -->
<g id="edge24" class="edge">
<title>Node21&#45;&gt;Node17</title>
<path fill="none" stroke="#9a32cd" stroke-dasharray="5,2" d="M130.9715,-97.0221C149.746,-100.6599 170.0725,-104.1541 189,-106.5 395.9238,-132.146 643.3328,-143.4722 755.2493,-147.561"/>
<polygon fill="#9a32cd" stroke="#9a32cd" points="131.5055,-93.56 121.0164,-95.0527 130.147,-100.4269 131.5055,-93.56"/>
<text text-anchor="middle" x="390.5" y="-131.5" font-family="FreeSans" font-size="10.00" fill="#000000"> _root</text>
</g>
<!-- Node21&#45;&gt;Node20 -->
<g id="edge22" class="edge">
<title>Node21&#45;&gt;Node20</title>
<path fill="none" stroke="#9a32cd" stroke-dasharray="5,2" d="M131.1386,-81.5C155.0332,-81.5 181.5453,-81.5 204.8231,-81.5"/>
<polygon fill="#9a32cd" stroke="#9a32cd" points="131.0754,-78.0001 121.0754,-81.5 131.0754,-85.0001 131.0754,-78.0001"/>
<text text-anchor="middle" x="155" y="-84.5" font-family="FreeSans" font-size="10.00" fill="#000000"> items</text>
</g>
<!-- Node21&#45;&gt;Node21 -->
<g id="edge23" class="edge">
<title>Node21&#45;&gt;Node21</title>
<path fill="none" stroke="#9a32cd" stroke-dasharray="5,2" d="M43.9573,-108.0753C46.1474,-112.7466 51.6617,-116 60.5,-116 75.0039,-116 80.5562,-107.2388 77.1568,-97.8274"/>
<polygon fill="#9a32cd" stroke="#9a32cd" points="47.4544,-107.7878 43.8432,-97.8274 40.4548,-107.8658 47.4544,-107.7878"/>
<text text-anchor="middle" x="60.5" y="-119" font-family="FreeSans" font-size="10.00" fill="#000000"> next</text>
</g>
<!-- Node21&#45;&gt;Node22 -->
<g id="edge28" class="edge">
<title>Node21&#45;&gt;Node22</title>
<path fill="none" stroke="#9a32cd" stroke-dasharray="5,2" d="M96.0079,-102.8189C160.7634,-140.678 303.4268,-219.4219 434,-259.5 507.4896,-282.0569 528.3452,-279.7057 605,-285.5 654.6362,-289.2519 672.2511,-307.3028 717,-285.5 728.6691,-279.8145 724.6499,-270.3339 735,-262.5 743.9122,-255.7544 754.3984,-250.1512 764.804,-245.5936"/>
<polygon fill="#9a32cd" stroke="#9a32cd" points="97.4241,-99.5914 87.0298,-97.5393 93.8757,-105.6254 97.4241,-99.5914"/>
<text text-anchor="middle" x="390.5" y="-256.5" font-family="FreeSans" font-size="10.00" fill="#000000"> _root</text>
</g>
<!-- Node21&#45;&gt;Node23 -->
<g id="edge32" class="edge">
<title>Node21&#45;&gt;Node23</title>
<path fill="none" stroke="#9a32cd" stroke-dasharray="5,2" d="M131.1502,-64.5729C149.8466,-60.818 170.0904,-57.3938 189,-55.5 365.0084,-37.8723 410.3736,-45.8665 587,-55.5 640.097,-58.396 699.8263,-65.0504 744.8981,-70.7661"/>
<polygon fill="#9a32cd" stroke="#9a32cd" points="130.3207,-61.1703 121.2364,-66.6225 131.738,-68.0253 130.3207,-61.1703"/>
<text text-anchor="middle" x="390.5" y="-49.5" font-family="FreeSans" font-size="10.00" fill="#000000"> _root</text>
</g>
<!-- Node21&#45;&gt;Node24 -->
<g id="edge36" class="edge">
<title>Node21&#45;&gt;Node24</title>
<path fill="none" stroke="#9a32cd" stroke-dasharray="5,2" d="M111.4052,-62.0337C134.6939,-54.0744 162.868,-45.7499 189,-41.5 389.1113,-8.9551 629.6597,-10.5328 745.8845,-13.8084"/>
<polygon fill="#9a32cd" stroke="#9a32cd" points="110.0295,-58.8068 101.7437,-65.4095 112.3385,-65.415 110.0295,-58.8068"/>
<text text-anchor="middle" x="390.5" y="-24.5" font-family="FreeSans" font-size="10.00" fill="#000000"> _root</text>
</g>
<!-- Node22&#45;&gt;Node16 -->
<g id="edge25" class="edge">
<title>Node22&#45;&gt;Node16</title>
<path fill="none" stroke="#9a32cd" stroke-dasharray="5,2" d="M898.6355,-222.2954C903.8322,-221.9852 908.9862,-221.715 914,-221.5 962.1074,-219.4375 1016.3247,-219.1997 1058.2787,-219.4714"/>
<polygon fill="#9a32cd" stroke="#9a32cd" points="898.3709,-218.805 888.615,-222.9369 898.8182,-225.7907 898.3709,-218.805"/>
<text text-anchor="middle" x="969.5" y="-224.5" font-family="FreeSans" font-size="10.00" fill="#000000"> _commentPool</text>
</g>
<!-- Node23&#45;&gt;Node16 -->
<g id="edge29" class="edge">
<title>Node23&#45;&gt;Node16</title>
<path fill="none" stroke="#9a32cd" stroke-dasharray="5,2" d="M878.4253,-99.6062C920.7553,-113.3537 977.322,-133.4789 1025,-156.5 1058.601,-172.7241 1095.1569,-196.89 1114.7229,-210.4094"/>
<polygon fill="#9a32cd" stroke="#9a32cd" points="879.395,-96.2416 868.8036,-96.5114 877.2515,-102.9053 879.395,-96.2416"/>
<text text-anchor="middle" x="969.5" y="-159.5" font-family="FreeSans" font-size="10.00" fill="#000000"> _attributePool</text>
</g>
<!-- Node24&#45;&gt;Node16 -->
<g id="edge33" class="edge">
<title>Node24&#45;&gt;Node16</title>
<path fill="none" stroke="#9a32cd" stroke-dasharray="5,2" d="M890.1907,-35.4149C932.3267,-48.4303 984.4833,-68.6409 1025,-97.5 1070.782,-130.1095 1108.7849,-187.3377 1123.001,-210.4228"/>
<polygon fill="#9a32cd" stroke="#9a32cd" points="891.1215,-32.04 880.5368,-32.5037 889.1004,-38.7419 891.1215,-32.04"/>
<text text-anchor="middle" x="969.5" y="-100.5" font-family="FreeSans" font-size="10.00" fill="#000000"> _elementPool</text>
</g>
<!-- Node25 -->
<g id="node25" class="node">
<title>Node25</title>
<g id="a_node25"><a xlink:href="../../d5/dcd/classtinyxml2_1_1StrPair.html" target="_top" xlink:title="tinyxml2::StrPair">
<polygon fill="none" stroke="#000000" points="460,-397.5 460,-417.5 561,-417.5 561,-397.5 460,-397.5"/>
<text text-anchor="middle" x="510.5" y="-404.5" font-family="FreeSans" font-size="10.00" fill="#000000">tinyxml2::StrPair</text>
</a>
</g>
</g>
<!-- Node25&#45;&gt;Node15 -->
<g id="edge38" class="edge">
<title>Node25&#45;&gt;Node15</title>
<path fill="none" stroke="#9a32cd" stroke-dasharray="5,2" d="M530.9729,-391.0659C549.3197,-377.1541 577.5035,-357.7343 605,-346.5 652.0416,-327.2801 668.4304,-338.4438 717,-323.5 744.4411,-315.057 774.7621,-301.8076 794.4159,-292.6673"/>
<polygon fill="#9a32cd" stroke="#9a32cd" points="528.5661,-388.5029 522.8026,-397.3929 532.8521,-394.0374 528.5661,-388.5029"/>
<text text-anchor="middle" x="661" y="-349.5" font-family="FreeSans" font-size="10.00" fill="#000000"> _value</text>
</g>
<!-- Node25&#45;&gt;Node16 -->
<g id="edge37" class="edge">
<title>Node25&#45;&gt;Node16</title>
<path fill="none" stroke="#9a32cd" stroke-dasharray="5,2" d="M571.2821,-412.7346C648.9698,-417.2799 786.5068,-418.0392 896,-379.5 993.0085,-345.3551 1087.6511,-260.2361 1118.5311,-230.7489"/>
<polygon fill="#9a32cd" stroke="#9a32cd" points="571.3872,-409.2344 561.188,-412.1027 570.9497,-416.2207 571.3872,-409.2344"/>
<text text-anchor="middle" x="815.5" y="-426.5" font-family="FreeSans" font-size="10.00" fill="#000000"> _errorStr1</text>
<text text-anchor="middle" x="815.5" y="-414.5" font-family="FreeSans" font-size="10.00" fill="#000000">_errorStr2</text>
</g>
<!-- Node25&#45;&gt;Node26 -->
<g id="edge43" class="edge">
<title>Node25&#45;&gt;Node26</title>
<path fill="none" stroke="#9a32cd" stroke-dasharray="5,2" d="M571.3866,-418.0803C625.693,-427.5171 704.6278,-441.2337 757.9078,-450.4922"/>
<polygon fill="#9a32cd" stroke="#9a32cd" points="571.6585,-414.5752 561.2069,-416.3114 570.46,-421.4718 571.6585,-414.5752"/>
<text text-anchor="middle" x="661" y="-458.5" font-family="FreeSans" font-size="10.00" fill="#000000"> _value</text>
<text text-anchor="middle" x="661" y="-446.5" font-family="FreeSans" font-size="10.00" fill="#000000">_name</text>
</g>
<!-- Node26&#45;&gt;Node14 -->
<g id="edge41" class="edge">
<title>Node26&#45;&gt;Node14</title>
<path fill="none" stroke="#9a32cd" stroke-dasharray="5,2" d="M892.6193,-469.3558C944.9988,-475.3707 1013.5315,-483.2405 1063.3092,-488.9566"/>
<polygon fill="#9a32cd" stroke="#9a32cd" points="892.7031,-465.8425 882.3691,-468.1787 891.9045,-472.7968 892.7031,-465.8425"/>
<text text-anchor="middle" x="969.5" y="-487.5" font-family="FreeSans" font-size="10.00" fill="#000000"> _rootAttribute</text>
</g>
<!-- Node26&#45;&gt;Node26 -->
<g id="edge42" class="edge">
<title>Node26&#45;&gt;Node26</title>
<path fill="none" stroke="#9a32cd" stroke-dasharray="5,2" d="M786.7969,-479.6639C788.1674,-484.9546 797.7351,-489 815.5,-489 842.5703,-489 850.6068,-479.6067 839.6095,-470.7271"/>
<polygon fill="#9a32cd" stroke="#9a32cd" points="789.9317,-481.221 791.3905,-470.7271 783.706,-478.0209 789.9317,-481.221"/>
<text text-anchor="middle" x="815.5" y="-492" font-family="FreeSans" font-size="10.00" fill="#000000"> _next</text>
</g>
<!-- Node27 -->
<g id="node27" class="node">
<title>Node27</title>
<g id="a_node27"><a xlink:href="../../d3/d99/classJetscape_1_1EvolutionHistory.html" target="_top" xlink:title="Jetscape::EvolutionHistory">
<polygon fill="none" stroke="#000000" points="1054,-618.5 1054,-638.5 1204,-638.5 1204,-618.5 1054,-618.5"/>
<text text-anchor="middle" x="1129" y="-625.5" font-family="FreeSans" font-size="10.00" fill="#000000">Jetscape::EvolutionHistory</text>
</a>
</g>
</g>
<!-- Node27&#45;&gt;Node2 -->
<g id="edge45" class="edge">
<title>Node27&#45;&gt;Node2</title>
<path fill="none" stroke="#9a32cd" stroke-dasharray="5,2" d="M1214.1805,-623.1498C1260.48,-620.2418 1317.0597,-616.688 1360.88,-613.9356"/>
<polygon fill="#9a32cd" stroke="#9a32cd" points="1213.9248,-619.6589 1204.164,-623.779 1214.3637,-626.6451 1213.9248,-619.6589"/>
<text text-anchor="middle" x="1288" y="-625.5" font-family="FreeSans" font-size="10.00" fill="#000000"> bulk_info</text>
</g>
<!-- Node28 -->
<g id="node28" class="node">
<title>Node28</title>
<polygon fill="none" stroke="#bfbfbf" points="738,-738.5 738,-758.5 893,-758.5 893,-738.5 738,-738.5"/>
<text text-anchor="middle" x="815.5" y="-745.5" font-family="FreeSans" font-size="10.00" fill="#000000">std::vector&lt; FluidCellInfo &gt;</text>
</g>
<!-- Node28&#45;&gt;Node27 -->
<g id="edge46" class="edge">
<title>Node28&#45;&gt;Node27</title>
<path fill="none" stroke="#9a32cd" stroke-dasharray="5,2" d="M844.1898,-733.8817C863.6597,-724.1922 890.1088,-711.4757 914,-701.5 962.3899,-681.2949 979.0679,-686.7995 1025,-661.5 1033.8773,-656.6103 1033.8272,-651.8099 1043,-647.5 1050.7499,-643.8587 1059.2245,-640.9013 1067.7358,-638.5028"/>
<polygon fill="#9a32cd" stroke="#9a32cd" points="842.6061,-730.7603 835.2342,-738.3699 845.7425,-737.0184 842.6061,-730.7603"/>
<text text-anchor="middle" x="969.5" y="-704.5" font-family="FreeSans" font-size="10.00" fill="#000000"> data</text>
</g>
<!-- Node29 -->
<g id="node29" class="node">
<title>Node29</title>
<g id="a_node29"><a xlink:href="../../df/de4/classJetscape_1_1FluidCellInfo.html" target="_top" xlink:title="Jetscape::FluidCellInfo">
<polygon fill="none" stroke="#000000" points="446,-767.5 446,-787.5 575,-787.5 575,-767.5 446,-767.5"/>
<text text-anchor="middle" x="510.5" y="-774.5" font-family="FreeSans" font-size="10.00" fill="#000000">Jetscape::FluidCellInfo</text>
</a>
</g>
</g>
<!-- Node29&#45;&gt;Node28 -->
<g id="edge47" class="edge">
<title>Node29&#45;&gt;Node28</title>
<path fill="none" stroke="#9a32cd" stroke-dasharray="5,2" d="M585.169,-770.4003C631.5441,-765.9909 691.0384,-760.3341 737.944,-755.8742"/>
<polygon fill="#9a32cd" stroke="#9a32cd" points="584.8064,-766.9189 575.1827,-771.3498 585.4691,-773.8875 584.8064,-766.9189"/>
<text text-anchor="middle" x="661" y="-771.5" font-family="FreeSans" font-size="10.00" fill="#000000"> elements</text>
</g>
<!-- Node30&#45;&gt;Node1 -->
<g id="edge49" class="edge">
<title>Node30&#45;&gt;Node1</title>
<path fill="none" stroke="#9a32cd" stroke-dasharray="5,2" d="M862.8299,-803.7348C1003.6961,-765.7422 1418.3376,-653.9106 1545.4944,-619.6155"/>
<polygon fill="#9a32cd" stroke="#9a32cd" points="861.5211,-800.4627 852.7775,-806.446 863.3439,-807.2212 861.5211,-800.4627"/>
<text text-anchor="middle" x="1288" y="-706.5" font-family="FreeSans" font-size="10.00" fill="#000000"> hydroinfo_MUSIC_ptr</text>
</g>
<!-- Node31 -->
<g id="node31" class="node">
<title>Node31</title>
<polygon fill="none" stroke="#bfbfbf" points="434,-845.5 434,-865.5 587,-865.5 587,-845.5 434,-845.5"/>
<text text-anchor="middle" x="510.5" y="-852.5" font-family="FreeSans" font-size="10.00" fill="#000000">std::vector&lt; fluidCell_3D &gt;</text>
</g>
<!-- Node31&#45;&gt;Node30 -->
<g id="edge50" class="edge">
<title>Node31&#45;&gt;Node30</title>
<path fill="none" stroke="#9a32cd" stroke-dasharray="5,2" d="M597.3063,-846.1028C634.2399,-841.9254 677.7634,-836.766 717,-831.5 732.2583,-829.4522 748.8125,-827.0153 763.9173,-824.7073"/>
<polygon fill="#9a32cd" stroke="#9a32cd" points="596.6188,-842.6579 587.0729,-847.2542 597.4016,-849.6141 596.6188,-842.6579"/>
<text text-anchor="middle" x="661" y="-848.5" font-family="FreeSans" font-size="10.00" fill="#000000"> lattice_3D</text>
</g>
<!-- Node32 -->
<g id="node32" class="node">
<title>Node32</title>
<g id="a_node32"><a xlink:href="../../d7/d2b/structfluidCell__3D.html" target="_top" xlink:title="fluidCell_3D">
<polygon fill="none" stroke="#000000" points="229.5,-845.5 229.5,-865.5 306.5,-865.5 306.5,-845.5 229.5,-845.5"/>
<text text-anchor="middle" x="268" y="-852.5" font-family="FreeSans" font-size="10.00" fill="#000000">fluidCell_3D</text>
</a>
</g>
</g>
<!-- Node32&#45;&gt;Node31 -->
<g id="edge51" class="edge">
<title>Node32&#45;&gt;Node31</title>
<path fill="none" stroke="#9a32cd" stroke-dasharray="5,2" d="M316.7,-855.5C350.2216,-855.5 395.4442,-855.5 433.7734,-855.5"/>
<polygon fill="#9a32cd" stroke="#9a32cd" points="316.693,-852.0001 306.693,-855.5 316.693,-859.0001 316.693,-852.0001"/>
<text text-anchor="middle" x="390.5" y="-858.5" font-family="FreeSans" font-size="10.00" fill="#000000"> elements</text>
</g>
<!-- Node33 -->
<g id="node33" class="node">
<title>Node33</title>
<polygon fill="none" stroke="#bfbfbf" points="434,-806.5 434,-826.5 587,-826.5 587,-806.5 434,-806.5"/>
<text text-anchor="middle" x="510.5" y="-813.5" font-family="FreeSans" font-size="10.00" fill="#000000">std::vector&lt; fluidCell_2D &gt;</text>
</g>
<!-- Node33&#45;&gt;Node30 -->
<g id="edge52" class="edge">
<title>Node33&#45;&gt;Node30</title>
<path fill="none" stroke="#9a32cd" stroke-dasharray="5,2" d="M597.2898,-816.5C651.0606,-816.5 718.3077,-816.5 763.8317,-816.5"/>
<polygon fill="#9a32cd" stroke="#9a32cd" points="597.0707,-813.0001 587.0707,-816.5 597.0707,-820.0001 597.0707,-813.0001"/>
<text text-anchor="middle" x="661" y="-819.5" font-family="FreeSans" font-size="10.00" fill="#000000"> lattice_2D</text>
</g>
<!-- Node34 -->
<g id="node34" class="node">
<title>Node34</title>
<g id="a_node34"><a xlink:href="../../d8/d08/structfluidCell__2D.html" target="_top" xlink:title="fluidCell_2D">
<polygon fill="none" stroke="#000000" points="229.5,-806.5 229.5,-826.5 306.5,-826.5 306.5,-806.5 229.5,-806.5"/>
<text text-anchor="middle" x="268" y="-813.5" font-family="FreeSans" font-size="10.00" fill="#000000">fluidCell_2D</text>
</a>
</g>
</g>
<!-- Node34&#45;&gt;Node33 -->
<g id="edge53" class="edge">
<title>Node34&#45;&gt;Node33</title>
<path fill="none" stroke="#9a32cd" stroke-dasharray="5,2" d="M316.7,-816.5C350.2216,-816.5 395.4442,-816.5 433.7734,-816.5"/>
<polygon fill="#9a32cd" stroke="#9a32cd" points="316.693,-813.0001 306.693,-816.5 316.693,-820.0001 316.693,-813.0001"/>
<text text-anchor="middle" x="390.5" y="-819.5" font-family="FreeSans" font-size="10.00" fill="#000000"> elements</text>
</g>
<!-- Node35 -->
<g id="node35" class="node">
<title>Node35</title>
<polygon fill="none" stroke="#bfbfbf" points="449,-884.5 449,-916.5 572,-916.5 572,-884.5 449,-884.5"/>
<text text-anchor="start" x="457" y="-903.5" font-family="FreeSans" font-size="10.00" fill="#000000">std::vector&lt; fluidCell</text>
<text text-anchor="middle" x="510.5" y="-891.5" font-family="FreeSans" font-size="10.00" fill="#000000">_3D_new &gt;</text>
</g>
<!-- Node35&#45;&gt;Node30 -->
<g id="edge54" class="edge">
<title>Node35&#45;&gt;Node30</title>
<path fill="none" stroke="#9a32cd" stroke-dasharray="5,2" d="M582.4324,-891.2864C622.6104,-885.0586 673.2443,-875.4005 717,-861.5 746.0277,-852.2784 777.7617,-836.7075 797.1526,-826.516"/>
<polygon fill="#9a32cd" stroke="#9a32cd" points="581.8173,-887.8395 572.4535,-892.7963 582.8646,-894.7607 581.8173,-887.8395"/>
<text text-anchor="middle" x="661" y="-890.5" font-family="FreeSans" font-size="10.00" fill="#000000"> lattice_3D_new</text>
</g>
<!-- Node36 -->
<g id="node36" class="node">
<title>Node36</title>
<g id="a_node36"><a xlink:href="../../d8/d1c/structfluidCell__3D__new.html" target="_top" xlink:title="fluidCell_3D_new">
<polygon fill="none" stroke="#000000" points="216.5,-890.5 216.5,-910.5 319.5,-910.5 319.5,-890.5 216.5,-890.5"/>
<text text-anchor="middle" x="268" y="-897.5" font-family="FreeSans" font-size="10.00" fill="#000000">fluidCell_3D_new</text>
</a>
</g>
</g>
<!-- Node36&#45;&gt;Node35 -->
<g id="edge55" class="edge">
<title>Node36&#45;&gt;Node35</title>
<path fill="none" stroke="#9a32cd" stroke-dasharray="5,2" d="M329.7656,-900.5C366.3228,-900.5 412.4703,-900.5 448.9837,-900.5"/>
<polygon fill="#9a32cd" stroke="#9a32cd" points="329.7249,-897.0001 319.7249,-900.5 329.7249,-904.0001 329.7249,-897.0001"/>
<text text-anchor="middle" x="390.5" y="-903.5" font-family="FreeSans" font-size="10.00" fill="#000000"> elements</text>
</g>
</g>
</svg>
