<?xml version="1.0" encoding="UTF-8" standalone="no"?>
<!DOCTYPE svg PUBLIC "-//W3C//DTD SVG 1.1//EN"
 "http://www.w3.org/Graphics/SVG/1.1/DTD/svg11.dtd">
<!-- Generated by graphviz version 2.40.1 (20161225.0304)
 -->
<!-- Title: HFTriggerMVA::calcualteTrackTrackDCA Pages: 1 -->
<svg width="555pt" height="68pt"
 viewBox="0.00 0.00 555.00 68.00" xmlns="http://www.w3.org/2000/svg" xmlns:xlink="http://www.w3.org/1999/xlink">
<g id="graph0" class="graph" transform="scale(1 1) rotate(0) translate(4 64)">
<title>HFTriggerMVA::calcualteTrackTrackDCA</title>
<!-- Node1 -->
<g id="node1" class="node">
<title>Node1</title>
<polygon fill="#bfbfbf" stroke="#000000" points="0,-13.5 0,-45.5 165,-45.5 165,-13.5 0,-13.5"/>
<text text-anchor="start" x="8" y="-32.5" font-family="FreeSans" font-size="10.00" fill="#000000">HFTriggerMVA::calcualteTrack</text>
<text text-anchor="middle" x="82.5" y="-20.5" font-family="FreeSans" font-size="10.00" fill="#000000">TrackDCA</text>
</g>
<!-- Node2 -->
<g id="node2" class="node">
<title>Node2</title>
<g id="a_node2"><a xlink:href="../../df/d28/namespacekdfinder.html#ab72d428625e99a2d7380eb7691c246c7" target="_top" xlink:title="kdfinder::abs">
<polygon fill="none" stroke="#000000" points="248.5,-39.5 248.5,-59.5 331.5,-59.5 331.5,-39.5 248.5,-39.5"/>
<text text-anchor="middle" x="290" y="-46.5" font-family="FreeSans" font-size="10.00" fill="#000000">kdfinder::abs</text>
</a>
</g>
</g>
<!-- Node1&#45;&gt;Node2 -->
<g id="edge1" class="edge">
<title>Node1&#45;&gt;Node2</title>
<path fill="none" stroke="#191970" d="M165.1057,-37.462C189.7899,-39.8412 216.1418,-42.3811 238.2466,-44.5117"/>
<polygon fill="#191970" stroke="#191970" points="238.1162,-48.0153 248.4059,-45.4909 238.7878,-41.0476 238.1162,-48.0153"/>
</g>
<!-- Node4 -->
<g id="node4" class="node">
<title>Node4</title>
<g id="a_node4"><a xlink:href="../../d0/d75/classHFTriggerMVA.html#a8ed52bdb2af91ad734e2c8974015df0f" target="_top" xlink:title="HFTriggerMVA::decomposeTrack">
<polygon fill="none" stroke="#000000" points="201,-.5 201,-20.5 379,-20.5 379,-.5 201,-.5"/>
<text text-anchor="middle" x="290" y="-7.5" font-family="FreeSans" font-size="10.00" fill="#000000">HFTriggerMVA::decomposeTrack</text>
</a>
</g>
</g>
<!-- Node1&#45;&gt;Node4 -->
<g id="edge3" class="edge">
<title>Node1&#45;&gt;Node4</title>
<path fill="none" stroke="#191970" d="M165.1057,-21.9361C173.5538,-21.1625 182.1972,-20.3711 190.7988,-19.5835"/>
<polygon fill="#191970" stroke="#191970" points="191.2238,-23.0593 200.863,-18.6619 190.5855,-16.0885 191.2238,-23.0593"/>
</g>
<!-- Node3 -->
<g id="node3" class="node">
<title>Node3</title>
<g id="a_node3"><a xlink:href="../../d8/dc7/classkdfinder_1_1TVector.html#ac9649c7577f12a7502ed523260f4ee90" target="_top" xlink:title="kdfinder::TVector::mag">
<polygon fill="none" stroke="#000000" points="415,-39.5 415,-59.5 547,-59.5 547,-39.5 415,-39.5"/>
<text text-anchor="middle" x="481" y="-46.5" font-family="FreeSans" font-size="10.00" fill="#000000">kdfinder::TVector::mag</text>
</a>
</g>
</g>
<!-- Node2&#45;&gt;Node3 -->
<g id="edge2" class="edge">
<title>Node2&#45;&gt;Node3</title>
<path fill="none" stroke="#191970" d="M331.9158,-49.5C353.2455,-49.5 379.8481,-49.5 404.653,-49.5"/>
<polygon fill="#191970" stroke="#191970" points="404.7848,-53.0001 414.7848,-49.5 404.7847,-46.0001 404.7848,-53.0001"/>
</g>
</g>
</svg>
