<?xml version="1.0" encoding="UTF-8" standalone="no"?>
<!DOCTYPE svg PUBLIC "-//W3C//DTD SVG 1.1//EN"
 "http://www.w3.org/Graphics/SVG/1.1/DTD/svg11.dtd">
<!-- Generated by graphviz version 2.40.1 (20161225.0304)
 -->
<!-- Title: Acts::DirectNavigator::postStep Pages: 1 -->
<svg width="367pt" height="107pt"
 viewBox="0.00 0.00 367.00 107.00" xmlns="http://www.w3.org/2000/svg" xmlns:xlink="http://www.w3.org/1999/xlink">
<g id="graph0" class="graph" transform="scale(1 1) rotate(0) translate(4 103)">
<title>Acts::DirectNavigator::postStep</title>
<!-- Node1 -->
<g id="node1" class="node">
<title>Node1</title>
<polygon fill="#bfbfbf" stroke="#000000" points="0,-33.5 0,-65.5 125,-65.5 125,-33.5 0,-33.5"/>
<text text-anchor="start" x="8" y="-52.5" font-family="FreeSans" font-size="10.00" fill="#000000">Acts::DirectNavigator</text>
<text text-anchor="middle" x="62.5" y="-40.5" font-family="FreeSans" font-size="10.00" fill="#000000">::postStep</text>
</g>
<!-- Node2 -->
<g id="node2" class="node">
<title>Node2</title>
<g id="a_node2"><a xlink:href="../../da/d7b/namespaceActs.html#a0fb9330028a5f6a2d19ebd1e1c48e0f5" target="_top" xlink:title="Acts::ACTS_VERBOSE">
<polygon fill="none" stroke="#000000" points="161,-78.5 161,-98.5 285,-98.5 285,-78.5 161,-78.5"/>
<text text-anchor="middle" x="223" y="-85.5" font-family="FreeSans" font-size="10.00" fill="#000000">Acts::ACTS_VERBOSE</text>
</a>
</g>
</g>
<!-- Node1&#45;&gt;Node2 -->
<g id="edge1" class="edge">
<title>Node1&#45;&gt;Node2</title>
<path fill="none" stroke="#191970" d="M125.0131,-64.6901C140.4604,-68.4436 156.8307,-72.4215 171.6763,-76.0288"/>
<polygon fill="#191970" stroke="#191970" points="171.1366,-79.4995 181.6803,-78.4597 172.7895,-72.6974 171.1366,-79.4995"/>
</g>
<!-- Node3 -->
<g id="node3" class="node">
<title>Node3</title>
<g id="a_node3"><a xlink:href="../../d2/d5a/ExaTrkXEdgeBuildingTest_8cpp.html#a6c3fdf667362d0fcd29829e3a34003f8" target="_top" xlink:title="distance">
<polygon fill="none" stroke="#000000" points="193.5,-39.5 193.5,-59.5 252.5,-59.5 252.5,-39.5 193.5,-39.5"/>
<text text-anchor="middle" x="223" y="-46.5" font-family="FreeSans" font-size="10.00" fill="#000000">distance</text>
</a>
</g>
</g>
<!-- Node1&#45;&gt;Node3 -->
<g id="edge2" class="edge">
<title>Node1&#45;&gt;Node3</title>
<path fill="none" stroke="#191970" d="M125.0131,-49.5C144.402,-49.5 165.245,-49.5 182.7019,-49.5"/>
<polygon fill="#191970" stroke="#191970" points="183.0905,-53.0001 193.0905,-49.5 183.0905,-46.0001 183.0905,-53.0001"/>
</g>
<!-- Node5 -->
<g id="node5" class="node">
<title>Node5</title>
<g id="a_node5"><a xlink:href="../../da/d7b/namespaceActs.html#aec6e7239a08a76afd1ce38a1fe00f4e0" target="_top" xlink:title="Acts::if">
<polygon fill="none" stroke="#000000" points="197,-.5 197,-20.5 249,-20.5 249,-.5 197,-.5"/>
<text text-anchor="middle" x="223" y="-7.5" font-family="FreeSans" font-size="10.00" fill="#000000">Acts::if</text>
</a>
</g>
</g>
<!-- Node1&#45;&gt;Node5 -->
<g id="edge4" class="edge">
<title>Node1&#45;&gt;Node5</title>
<path fill="none" stroke="#191970" d="M125.0131,-34.3099C146.007,-29.2086 168.7057,-23.693 186.9647,-19.2562"/>
<polygon fill="#191970" stroke="#191970" points="187.9929,-22.6083 196.8837,-16.846 186.34,-15.8063 187.9929,-22.6083"/>
</g>
<!-- Node4 -->
<g id="node4" class="node">
<title>Node4</title>
<g id="a_node4"><a xlink:href="../../da/d55/TPCRateLayered_8m.html#a7507ef556477c204b499f1e189d40796" target="_top" xlink:title="sum">
<polygon fill="none" stroke="#000000" points="321,-39.5 321,-59.5 359,-59.5 359,-39.5 321,-39.5"/>
<text text-anchor="middle" x="340" y="-46.5" font-family="FreeSans" font-size="10.00" fill="#000000">sum</text>
</a>
</g>
</g>
<!-- Node3&#45;&gt;Node4 -->
<g id="edge3" class="edge">
<title>Node3&#45;&gt;Node4</title>
<path fill="none" stroke="#191970" d="M252.524,-49.5C270.3228,-49.5 292.9091,-49.5 310.6724,-49.5"/>
<polygon fill="#191970" stroke="#191970" points="310.7618,-53.0001 320.7618,-49.5 310.7617,-46.0001 310.7618,-53.0001"/>
</g>
</g>
</svg>
