<?xml version="1.0" encoding="UTF-8" standalone="no"?>
<!DOCTYPE svg PUBLIC "-//W3C//DTD SVG 1.1//EN"
 "http://www.w3.org/Graphics/SVG/1.1/DTD/svg11.dtd">
<!-- Generated by graphviz version 2.40.1 (20161225.0304)
 -->
<!-- Title: ActsExamples::RootPlanarClusterWriter::writeT Pages: 1 -->
<svg width="739pt" height="488pt"
 viewBox="0.00 0.00 739.00 488.00" xmlns="http://www.w3.org/2000/svg" xmlns:xlink="http://www.w3.org/1999/xlink">
<g id="graph0" class="graph" transform="scale(1 1) rotate(0) translate(4 484)">
<title>ActsExamples::RootPlanarClusterWriter::writeT</title>
<!-- Node1 -->
<g id="node1" class="node">
<title>Node1</title>
<polygon fill="#bfbfbf" stroke="#000000" points="0,-229.5 0,-261.5 150,-261.5 150,-229.5 0,-229.5"/>
<text text-anchor="start" x="8" y="-248.5" font-family="FreeSans" font-size="10.00" fill="#000000">ActsExamples::RootPlanar</text>
<text text-anchor="middle" x="75" y="-236.5" font-family="FreeSans" font-size="10.00" fill="#000000">ClusterWriter::writeT</text>
</g>
<!-- Node2 -->
<g id="node2" class="node">
<title>Node2</title>
<g id="a_node2"><a xlink:href="../../d9/d5c/classActs_1_1Segmentation.html#ad936b9d316ac5f4774f0a490ed106b2a" target="_top" xlink:title="Acts::Segmentation\l::cellPosition">
<polygon fill="none" stroke="#000000" points="217,-447.5 217,-479.5 333,-479.5 333,-447.5 217,-447.5"/>
<text text-anchor="start" x="225" y="-466.5" font-family="FreeSans" font-size="10.00" fill="#000000">Acts::Segmentation</text>
<text text-anchor="middle" x="275" y="-454.5" font-family="FreeSans" font-size="10.00" fill="#000000">::cellPosition</text>
</a>
</g>
</g>
<!-- Node1&#45;&gt;Node2 -->
<g id="edge1" class="edge">
<title>Node1&#45;&gt;Node2</title>
<path fill="none" stroke="#191970" d="M79.5931,-261.513C91.0603,-298.5606 124.535,-390.6633 186,-438.5 192.3931,-443.4756 199.7253,-447.4611 207.3776,-450.6534"/>
<polygon fill="#191970" stroke="#191970" points="206.236,-453.9629 216.8288,-454.1671 208.6753,-447.4017 206.236,-453.9629"/>
</g>
<!-- Node3 -->
<g id="node3" class="node">
<title>Node3</title>
<g id="a_node3"><a xlink:href="../../d3/dd5/classActs_1_1PlanarModuleCluster.html#a54a5e915a2803ce86a0c7f569d16488e" target="_top" xlink:title="Acts::PlanarModuleCluster\l::digitizationCells">
<polygon fill="none" stroke="#000000" points="200,-396.5 200,-428.5 350,-428.5 350,-396.5 200,-396.5"/>
<text text-anchor="start" x="208" y="-415.5" font-family="FreeSans" font-size="10.00" fill="#000000">Acts::PlanarModuleCluster</text>
<text text-anchor="middle" x="275" y="-403.5" font-family="FreeSans" font-size="10.00" fill="#000000">::digitizationCells</text>
</a>
</g>
</g>
<!-- Node1&#45;&gt;Node3 -->
<g id="edge2" class="edge">
<title>Node1&#45;&gt;Node3</title>
<path fill="none" stroke="#191970" d="M83.233,-261.8782C99.0021,-291.5548 136.3575,-354.2198 186,-387.5 188.2954,-389.0388 190.6847,-390.4838 193.1448,-391.8405"/>
<polygon fill="#191970" stroke="#191970" points="191.8057,-395.0828 202.3212,-396.3771 194.908,-388.8077 191.8057,-395.0828"/>
</g>
<!-- Node4 -->
<g id="node4" class="node">
<title>Node4</title>
<g id="a_node4"><a xlink:href="../../d7/d41/classActs_1_1IdentifiedDetectorElement.html#a5bb79cbe56f9ad59df972ccd2f5c1735" target="_top" xlink:title="Retrieve the DigitizationModule.">
<polygon fill="none" stroke="#000000" points="196,-345.5 196,-377.5 354,-377.5 354,-345.5 196,-345.5"/>
<text text-anchor="start" x="204" y="-364.5" font-family="FreeSans" font-size="10.00" fill="#000000">Acts::IdentifiedDetector</text>
<text text-anchor="middle" x="275" y="-352.5" font-family="FreeSans" font-size="10.00" fill="#000000">Element::digitizationModule</text>
</a>
</g>
</g>
<!-- Node1&#45;&gt;Node4 -->
<g id="edge3" class="edge">
<title>Node1&#45;&gt;Node4</title>
<path fill="none" stroke="#191970" d="M90.3813,-261.7132C110.5169,-282.0266 147.7671,-316.5821 186,-336.5 189.5028,-338.3248 193.1546,-340.0299 196.8944,-341.6212"/>
<polygon fill="#191970" stroke="#191970" points="195.7503,-344.9323 206.337,-345.3464 198.3192,-338.4207 195.7503,-344.9323"/>
</g>
<!-- Node5 -->
<g id="node5" class="node">
<title>Node5</title>
<g id="a_node5"><a xlink:href="../../d7/dad/classActsExamples_1_1WhiteBoard.html#ac03c687110ea21a40d383325a7c7b0b8" target="_top" xlink:title="ActsExamples::WhiteBoard::get">
<polygon fill="none" stroke="#000000" points="186,-306.5 186,-326.5 364,-326.5 364,-306.5 186,-306.5"/>
<text text-anchor="middle" x="275" y="-313.5" font-family="FreeSans" font-size="10.00" fill="#000000">ActsExamples::WhiteBoard::get</text>
</a>
</g>
</g>
<!-- Node1&#45;&gt;Node5 -->
<g id="edge4" class="edge">
<title>Node1&#45;&gt;Node5</title>
<path fill="none" stroke="#191970" d="M104.3902,-261.5244C126.3365,-272.9271 157.3558,-287.8734 186,-297.5 193.2659,-299.9419 200.9743,-302.1406 208.6966,-304.1007"/>
<polygon fill="#191970" stroke="#191970" points="207.911,-307.5115 218.4532,-306.4561 209.5538,-300.707 207.911,-307.5115"/>
</g>
<!-- Node7 -->
<g id="node7" class="node">
<title>Node7</title>
<g id="a_node7"><a xlink:href="../../d7/d33/classActs_1_1GeometryIdentifier.html#a67b1bfbab773f4ca99a12164b2bdbf61" target="_top" xlink:title="Return the layer identifier.">
<polygon fill="none" stroke="#000000" points="204,-204.5 204,-236.5 346,-236.5 346,-204.5 204,-204.5"/>
<text text-anchor="start" x="212" y="-223.5" font-family="FreeSans" font-size="10.00" fill="#000000">Acts::GeometryIdentifier</text>
<text text-anchor="middle" x="275" y="-211.5" font-family="FreeSans" font-size="10.00" fill="#000000">::layer</text>
</a>
</g>
</g>
<!-- Node1&#45;&gt;Node7 -->
<g id="edge6" class="edge">
<title>Node1&#45;&gt;Node7</title>
<path fill="none" stroke="#191970" d="M150.0416,-236.1198C164.361,-234.3299 179.4097,-232.4488 193.9081,-230.6365"/>
<polygon fill="#191970" stroke="#191970" points="194.3532,-234.1082 203.8418,-229.3948 193.4848,-227.1622 194.3532,-234.1082"/>
</g>
<!-- Node10 -->
<g id="node10" class="node">
<title>Node10</title>
<g id="a_node10"><a xlink:href="../../d7/d24/classActs_1_1Measurement.html#a00d089f309459e8c8be60424726df07e" target="_top" xlink:title="access vector with measured parameter values">
<polygon fill="none" stroke="#000000" points="214.5,-255.5 214.5,-287.5 335.5,-287.5 335.5,-255.5 214.5,-255.5"/>
<text text-anchor="start" x="222.5" y="-274.5" font-family="FreeSans" font-size="10.00" fill="#000000">Acts::Measurement::</text>
<text text-anchor="middle" x="275" y="-262.5" font-family="FreeSans" font-size="10.00" fill="#000000">parameters</text>
</a>
</g>
</g>
<!-- Node1&#45;&gt;Node10 -->
<g id="edge9" class="edge">
<title>Node1&#45;&gt;Node10</title>
<path fill="none" stroke="#191970" d="M150.0416,-255.2554C167.739,-257.5561 186.5506,-260.0016 204.0603,-262.2778"/>
<polygon fill="#191970" stroke="#191970" points="203.8333,-265.7777 214.2011,-263.5961 204.7358,-258.8361 203.8333,-265.7777"/>
</g>
<!-- Node12 -->
<g id="node12" class="node">
<title>Node12</title>
<g id="a_node12"><a xlink:href="../../d7/d24/classActs_1_1Measurement.html#a745c63bf57e1fc8d4db0c7acf44b1f59" target="_top" xlink:title="access associated object">
<polygon fill="none" stroke="#000000" points="214.5,-153.5 214.5,-185.5 335.5,-185.5 335.5,-153.5 214.5,-153.5"/>
<text text-anchor="start" x="222.5" y="-172.5" font-family="FreeSans" font-size="10.00" fill="#000000">Acts::Measurement::</text>
<text text-anchor="middle" x="275" y="-160.5" font-family="FreeSans" font-size="10.00" fill="#000000">referenceObject</text>
</a>
</g>
</g>
<!-- Node1&#45;&gt;Node12 -->
<g id="edge11" class="edge">
<title>Node1&#45;&gt;Node12</title>
<path fill="none" stroke="#191970" d="M106.5007,-229.4184C128.4214,-218.6288 158.5307,-204.5977 186,-194.5 191.9314,-192.3196 198.1437,-190.2185 204.4101,-188.2239"/>
<polygon fill="#191970" stroke="#191970" points="205.7462,-191.4745 214.2694,-185.1811 203.6819,-184.7858 205.7462,-191.4745"/>
</g>
<!-- Node13 -->
<g id="node13" class="node">
<title>Node13</title>
<g id="a_node13"><a xlink:href="../../d7/d33/classActs_1_1GeometryIdentifier.html#afb698536104f96ff92d3c8bdb7aaa3a7" target="_top" xlink:title="Return the sensitive identifier.">
<polygon fill="none" stroke="#000000" points="204,-102.5 204,-134.5 346,-134.5 346,-102.5 204,-102.5"/>
<text text-anchor="start" x="212" y="-121.5" font-family="FreeSans" font-size="10.00" fill="#000000">Acts::GeometryIdentifier</text>
<text text-anchor="middle" x="275" y="-109.5" font-family="FreeSans" font-size="10.00" fill="#000000">::sensitive</text>
</a>
</g>
</g>
<!-- Node1&#45;&gt;Node13 -->
<g id="edge12" class="edge">
<title>Node1&#45;&gt;Node13</title>
<path fill="none" stroke="#191970" d="M88.3019,-229.1797C107.5399,-206.6342 145.3089,-166.1811 186,-143.5 189.2024,-141.715 192.542,-140.0495 195.9687,-138.4963"/>
<polygon fill="#191970" stroke="#191970" points="197.3264,-141.7223 205.2087,-134.6427 194.6319,-135.2617 197.3264,-141.7223"/>
</g>
<!-- Node14 -->
<g id="node14" class="node">
<title>Node14</title>
<g id="a_node14"><a xlink:href="../../d7/d24/classActs_1_1Measurement.html#a698990c71da4deaa080f63781afcf3d7" target="_top" xlink:title="link access to the source of the measurement.">
<polygon fill="none" stroke="#000000" points="214.5,-51.5 214.5,-83.5 335.5,-83.5 335.5,-51.5 214.5,-51.5"/>
<text text-anchor="start" x="222.5" y="-70.5" font-family="FreeSans" font-size="10.00" fill="#000000">Acts::Measurement::</text>
<text text-anchor="middle" x="275" y="-58.5" font-family="FreeSans" font-size="10.00" fill="#000000">sourceLink</text>
</a>
</g>
</g>
<!-- Node1&#45;&gt;Node14 -->
<g id="edge14" class="edge">
<title>Node1&#45;&gt;Node14</title>
<path fill="none" stroke="#191970" d="M82.1866,-229.3282C96.9528,-197.9927 133.7632,-128.8931 186,-92.5 191.6625,-88.555 197.9338,-85.2299 204.4495,-82.4278"/>
<polygon fill="#191970" stroke="#191970" points="206.0636,-85.5563 214.1283,-78.6853 203.539,-79.0273 206.0636,-85.5563"/>
</g>
<!-- Node15 -->
<g id="node15" class="node">
<title>Node15</title>
<g id="a_node15"><a xlink:href="../../d7/d33/classActs_1_1GeometryIdentifier.html#abc1ccf966fe5fc7f517c6775b5d38623" target="_top" xlink:title="Return the volume identifier.">
<polygon fill="none" stroke="#000000" points="204,-.5 204,-32.5 346,-32.5 346,-.5 204,-.5"/>
<text text-anchor="start" x="212" y="-19.5" font-family="FreeSans" font-size="10.00" fill="#000000">Acts::GeometryIdentifier</text>
<text text-anchor="middle" x="275" y="-7.5" font-family="FreeSans" font-size="10.00" fill="#000000">::volume</text>
</a>
</g>
</g>
<!-- Node1&#45;&gt;Node15 -->
<g id="edge15" class="edge">
<title>Node1&#45;&gt;Node15</title>
<path fill="none" stroke="#191970" d="M79.0743,-229.4507C89.7055,-190.9047 122.0055,-92.5301 186,-41.5 188.7822,-39.2814 191.7501,-37.2597 194.8506,-35.4172"/>
<polygon fill="#191970" stroke="#191970" points="196.6574,-38.422 203.8956,-30.6851 193.4124,-32.2196 196.6574,-38.422"/>
</g>
<!-- Node6 -->
<g id="node6" class="node">
<title>Node6</title>
<g id="a_node6"><a xlink:href="../../d5/dd6/structActsExamples_1_1WhiteBoard_1_1IHolder.html#aa1264c6da568fd3833b53e4b7e73b4e0" target="_top" xlink:title="ActsExamples::WhiteBoard\l::IHolder::type">
<polygon fill="none" stroke="#000000" points="400,-303.5 400,-335.5 553,-335.5 553,-303.5 400,-303.5"/>
<text text-anchor="start" x="408" y="-322.5" font-family="FreeSans" font-size="10.00" fill="#000000">ActsExamples::WhiteBoard</text>
<text text-anchor="middle" x="476.5" y="-310.5" font-family="FreeSans" font-size="10.00" fill="#000000">::IHolder::type</text>
</a>
</g>
</g>
<!-- Node5&#45;&gt;Node6 -->
<g id="edge5" class="edge">
<title>Node5&#45;&gt;Node6</title>
<path fill="none" stroke="#191970" d="M364.2608,-317.8289C372.7177,-317.9549 381.2839,-318.0824 389.7171,-318.2079"/>
<polygon fill="#191970" stroke="#191970" points="389.8703,-321.7105 399.9213,-318.3599 389.9746,-314.7113 389.8703,-321.7105"/>
</g>
<!-- Node8 -->
<g id="node8" class="node">
<title>Node8</title>
<g id="a_node8"><a xlink:href="../../d7/d33/classActs_1_1GeometryIdentifier.html#a5fc08ada52c3da4d9b255e0454739e1d" target="_top" xlink:title="Extract the masked bits from the encoded value.">
<polygon fill="none" stroke="#000000" points="405.5,-102.5 405.5,-134.5 547.5,-134.5 547.5,-102.5 405.5,-102.5"/>
<text text-anchor="start" x="413.5" y="-121.5" font-family="FreeSans" font-size="10.00" fill="#000000">Acts::GeometryIdentifier</text>
<text text-anchor="middle" x="476.5" y="-109.5" font-family="FreeSans" font-size="10.00" fill="#000000">::getBits</text>
</a>
</g>
</g>
<!-- Node7&#45;&gt;Node8 -->
<g id="edge7" class="edge">
<title>Node7&#45;&gt;Node8</title>
<path fill="none" stroke="#191970" d="M339.095,-204.3862C347.6239,-201.4896 356.1324,-198.196 364,-194.5 394.887,-179.99 426.8206,-157.5838 448.7378,-140.8538"/>
<polygon fill="#191970" stroke="#191970" points="451.1482,-143.414 456.9105,-134.5232 446.8615,-137.88 451.1482,-143.414"/>
</g>
<!-- Node9 -->
<g id="node9" class="node">
<title>Node9</title>
<g id="a_node9"><a xlink:href="../../d7/d33/classActs_1_1GeometryIdentifier.html#ac13065798464cc86b747086eea9020e2" target="_top" xlink:title="Extract the bit shift necessary to access the masked values.">
<polygon fill="none" stroke="#000000" points="589,-102.5 589,-134.5 731,-134.5 731,-102.5 589,-102.5"/>
<text text-anchor="start" x="597" y="-121.5" font-family="FreeSans" font-size="10.00" fill="#000000">Acts::GeometryIdentifier</text>
<text text-anchor="middle" x="660" y="-109.5" font-family="FreeSans" font-size="10.00" fill="#000000">::extractShift</text>
</a>
</g>
</g>
<!-- Node8&#45;&gt;Node9 -->
<g id="edge8" class="edge">
<title>Node8&#45;&gt;Node9</title>
<path fill="none" stroke="#191970" d="M547.7085,-118.5C557.8332,-118.5 568.3097,-118.5 578.6098,-118.5"/>
<polygon fill="#191970" stroke="#191970" points="578.8315,-122.0001 588.8315,-118.5 578.8315,-115.0001 578.8315,-122.0001"/>
</g>
<!-- Node11 -->
<g id="node11" class="node">
<title>Node11</title>
<g id="a_node11"><a xlink:href="../../d0/d49/classActs_1_1ParameterSet.html#a4a7dcb897a18668c4e2f718c74072372" target="_top" xlink:title="access vector with stored parameters">
<polygon fill="none" stroke="#000000" points="419,-252.5 419,-284.5 534,-284.5 534,-252.5 419,-252.5"/>
<text text-anchor="start" x="427" y="-271.5" font-family="FreeSans" font-size="10.00" fill="#000000">Acts::ParameterSet</text>
<text text-anchor="middle" x="476.5" y="-259.5" font-family="FreeSans" font-size="10.00" fill="#000000">::getParameters</text>
</a>
</g>
</g>
<!-- Node10&#45;&gt;Node11 -->
<g id="edge10" class="edge">
<title>Node10&#45;&gt;Node11</title>
<path fill="none" stroke="#191970" d="M335.7299,-270.5958C358.6437,-270.2547 384.8553,-269.8644 408.3996,-269.5139"/>
<polygon fill="#191970" stroke="#191970" points="408.7107,-273.0098 418.6575,-269.3612 408.6065,-266.0105 408.7107,-273.0098"/>
</g>
<!-- Node13&#45;&gt;Node8 -->
<g id="edge13" class="edge">
<title>Node13&#45;&gt;Node8</title>
<path fill="none" stroke="#191970" d="M346.0414,-118.5C361.9928,-118.5 379.0355,-118.5 395.3632,-118.5"/>
<polygon fill="#191970" stroke="#191970" points="395.421,-122.0001 405.421,-118.5 395.421,-115.0001 395.421,-122.0001"/>
</g>
<!-- Node15&#45;&gt;Node8 -->
<g id="edge16" class="edge">
<title>Node15&#45;&gt;Node8</title>
<path fill="none" stroke="#191970" d="M341.4906,-32.5741C349.2168,-35.2013 356.8749,-38.1715 364,-41.5 395.3738,-56.1563 427.6324,-79.2107 449.5167,-96.2766"/>
<polygon fill="#191970" stroke="#191970" points="447.3592,-99.0326 457.3727,-102.494 451.7034,-93.5436 447.3592,-99.0326"/>
</g>
</g>
</svg>
