<?xml version="1.0" encoding="UTF-8" standalone="no"?>
<!DOCTYPE svg PUBLIC "-//W3C//DTD SVG 1.1//EN"
 "http://www.w3.org/Graphics/SVG/1.1/DTD/svg11.dtd">
<!-- Generated by graphviz version 2.40.1 (20161225.0304)
 -->
<!-- Title: coresoftware/blob/master/offline/packages/trackbase/ActsGsfTrackFittingAlgorithm.h Pages: 1 -->
<svg width="388pt" height="134pt"
 viewBox="0.00 0.00 387.50 134.00" xmlns="http://www.w3.org/2000/svg" xmlns:xlink="http://www.w3.org/1999/xlink">
<g id="graph0" class="graph" transform="scale(1 1) rotate(0) translate(4 130)">
<title>coresoftware/blob/master/offline/packages/trackbase/ActsGsfTrackFittingAlgorithm.h</title>
<!-- Node1 -->
<g id="node1" class="node">
<title>Node1</title>
<polygon fill="#bfbfbf" stroke="#000000" points="115,-81.5 115,-125.5 290,-125.5 290,-81.5 115,-81.5"/>
<text text-anchor="start" x="123" y="-112.5" font-family="FreeSans" font-size="10.00" fill="#000000">coresoftware/blob/master</text>
<text text-anchor="start" x="123" y="-100.5" font-family="FreeSans" font-size="10.00" fill="#000000">/offline/packages/trackbase</text>
<text text-anchor="middle" x="202.5" y="-88.5" font-family="FreeSans" font-size="10.00" fill="#000000">/ActsGsfTrackFittingAlgorithm.h</text>
</g>
<!-- Node2 -->
<g id="node2" class="node">
<title>Node2</title>
<g id="a_node2"><a xlink:href="../../db/d52/TrackFittingAlgorithmFunctionsGsf_8cc.html" target="_top" xlink:title="coresoftware/blob/master\l/offline/packages/trackbase\l/TrackFittingAlgorithmFunctionsGsf.cc">
<polygon fill="none" stroke="#000000" points="0,-.5 0,-44.5 207,-44.5 207,-.5 0,-.5"/>
<text text-anchor="start" x="8" y="-31.5" font-family="FreeSans" font-size="10.00" fill="#000000">coresoftware/blob/master</text>
<text text-anchor="start" x="8" y="-19.5" font-family="FreeSans" font-size="10.00" fill="#000000">/offline/packages/trackbase</text>
<text text-anchor="middle" x="103.5" y="-7.5" font-family="FreeSans" font-size="10.00" fill="#000000">/TrackFittingAlgorithmFunctionsGsf.cc</text>
</a>
</g>
</g>
<!-- Node1&#45;&gt;Node2 -->
<g id="edge1" class="edge">
<title>Node1&#45;&gt;Node2</title>
<path fill="none" stroke="#191970" d="M167.6597,-74.9943C155.4691,-65.0201 141.9746,-53.9792 130.5195,-44.6068"/>
<polygon fill="#191970" stroke="#191970" points="165.4919,-77.7428 175.4478,-81.3664 169.9246,-72.3251 165.4919,-77.7428"/>
</g>
<!-- Node3 -->
<g id="node3" class="node">
<title>Node3</title>
<g id="a_node3"><a xlink:href="../../de/df7/PHActsGSF_8cc.html" target="_top" xlink:title="coresoftware/blob/master\l/offline/packages/trackreco\l/PHActsGSF.cc">
<polygon fill="none" stroke="#000000" points="225.5,-.5 225.5,-44.5 379.5,-44.5 379.5,-.5 225.5,-.5"/>
<text text-anchor="start" x="233.5" y="-31.5" font-family="FreeSans" font-size="10.00" fill="#000000">coresoftware/blob/master</text>
<text text-anchor="start" x="233.5" y="-19.5" font-family="FreeSans" font-size="10.00" fill="#000000">/offline/packages/trackreco</text>
<text text-anchor="middle" x="302.5" y="-7.5" font-family="FreeSans" font-size="10.00" fill="#000000">/PHActsGSF.cc</text>
</a>
</g>
</g>
<!-- Node1&#45;&gt;Node3 -->
<g id="edge2" class="edge">
<title>Node1&#45;&gt;Node3</title>
<path fill="none" stroke="#191970" d="M237.6923,-74.9943C250.006,-65.0201 263.6368,-53.9792 275.2076,-44.6068"/>
<polygon fill="#191970" stroke="#191970" points="235.3931,-72.3524 229.8254,-81.3664 239.7991,-77.7919 235.3931,-72.3524"/>
</g>
</g>
</svg>
