<?xml version="1.0" encoding="UTF-8" standalone="no"?>
<!DOCTYPE svg PUBLIC "-//W3C//DTD SVG 1.1//EN"
 "http://www.w3.org/Graphics/SVG/1.1/DTD/svg11.dtd">
<!-- Generated by graphviz version 2.40.1 (20161225.0304)
 -->
<!-- Title: save Pages: 1 -->
<svg width="978pt" height="1058pt"
 viewBox="0.00 0.00 978.00 1058.00" xmlns="http://www.w3.org/2000/svg" xmlns:xlink="http://www.w3.org/1999/xlink">
<g id="graph0" class="graph" transform="scale(1 1) rotate(0) translate(4 1054)">
<title>save</title>
<!-- Node1 -->
<g id="node1" class="node">
<title>Node1</title>
<polygon fill="#bfbfbf" stroke="#000000" points="0,-166.5 0,-186.5 40,-186.5 40,-166.5 0,-166.5"/>
<text text-anchor="middle" x="20" y="-173.5" font-family="FreeSans" font-size="10.00" fill="#000000">save</text>
</g>
<!-- Node2 -->
<g id="node2" class="node">
<title>Node2</title>
<g id="a_node2"><a xlink:href="../../de/d7e/classTDirectoryHelper.html#aa7f7303a8eb5001c361300640d8f490b" target="_top" xlink:title="TDirectoryHelper::copyToFile">
<polygon fill="none" stroke="#000000" points="76,-282.5 76,-302.5 238,-302.5 238,-282.5 76,-282.5"/>
<text text-anchor="middle" x="157" y="-289.5" font-family="FreeSans" font-size="10.00" fill="#000000">TDirectoryHelper::copyToFile</text>
</a>
</g>
</g>
<!-- Node1&#45;&gt;Node2 -->
<g id="edge1" class="edge">
<title>Node1&#45;&gt;Node2</title>
<path fill="none" stroke="#191970" d="M26.0646,-196.2686C33.9325,-218.5136 49.8399,-254.0709 76,-273.5 80.8703,-277.1171 86.3227,-280.0588 92.0352,-282.4493"/>
<polygon fill="#191970" stroke="#191970" points="29.3099,-194.9354 22.8383,-186.5468 22.6662,-197.1402 29.3099,-194.9354"/>
</g>
<!-- Node3 -->
<g id="node3" class="node">
<title>Node3</title>
<g id="a_node3"><a xlink:href="../../de/d7e/classTDirectoryHelper.html#aad8dd2fbd310c358f0fa57b4b4a07045" target="_top" xlink:title="TDirectoryHelper::mkdir">
<polygon fill="none" stroke="#000000" points="87.5,-243.5 87.5,-263.5 226.5,-263.5 226.5,-243.5 87.5,-243.5"/>
<text text-anchor="middle" x="157" y="-250.5" font-family="FreeSans" font-size="10.00" fill="#000000">TDirectoryHelper::mkdir</text>
</a>
</g>
</g>
<!-- Node1&#45;&gt;Node3 -->
<g id="edge2" class="edge">
<title>Node1&#45;&gt;Node3</title>
<path fill="none" stroke="#191970" d="M35.2677,-194.3177C45.7253,-205.5307 60.4696,-219.5279 76,-228.5 86.9593,-234.8313 99.6965,-239.7302 111.7802,-243.4444"/>
<polygon fill="#191970" stroke="#191970" points="37.7526,-191.8468 28.4606,-186.7567 32.5502,-196.5304 37.7526,-191.8468"/>
</g>
<!-- Node34 -->
<g id="node34" class="node">
<title>Node34</title>
<g id="a_node34"><a xlink:href="../../db/d6a/structActs_1_1VolumeCollector.html#a27e8228c077514386090b6aa89597a8f" target="_top" xlink:title="Acts::VolumeCollector\l::operator()">
<polygon fill="none" stroke="#000000" points="92.5,-115.5 92.5,-147.5 221.5,-147.5 221.5,-115.5 92.5,-115.5"/>
<text text-anchor="start" x="100.5" y="-134.5" font-family="FreeSans" font-size="10.00" fill="#000000">Acts::VolumeCollector</text>
<text text-anchor="middle" x="157" y="-122.5" font-family="FreeSans" font-size="10.00" fill="#000000">::operator()</text>
</a>
</g>
</g>
<!-- Node1&#45;&gt;Node34 -->
<g id="edge34" class="edge">
<title>Node1&#45;&gt;Node34</title>
<path fill="none" stroke="#191970" d="M50.1533,-166.5956C67.1835,-161.0018 88.8791,-153.8755 108.2649,-147.5079"/>
<polygon fill="#191970" stroke="#191970" points="48.6232,-163.4142 40.2148,-169.8601 50.8077,-170.0646 48.6232,-163.4142"/>
</g>
<!-- Node35 -->
<g id="node35" class="node">
<title>Node35</title>
<g id="a_node35"><a xlink:href="../../d5/d72/classKFParticle__sPHENIX.html#a20ffe97d52602ec3481fc333025364d0" target="_top" xlink:title="KFParticle_sPHENIX\l::saveDST">
<polygon fill="none" stroke="#000000" points="475.5,-147.5 475.5,-179.5 589.5,-179.5 589.5,-147.5 475.5,-147.5"/>
<text text-anchor="start" x="483.5" y="-166.5" font-family="FreeSans" font-size="10.00" fill="#000000">KFParticle_sPHENIX</text>
<text text-anchor="middle" x="532.5" y="-154.5" font-family="FreeSans" font-size="10.00" fill="#000000">::saveDST</text>
</a>
</g>
</g>
<!-- Node1&#45;&gt;Node35 -->
<g id="edge35" class="edge">
<title>Node1&#45;&gt;Node35</title>
<path fill="none" stroke="#191970" d="M50.1178,-175.736C133.1259,-173.6305 366.2356,-167.7174 475.1184,-164.9555"/>
<polygon fill="#191970" stroke="#191970" points="49.9986,-172.2378 40.0906,-175.9904 50.1762,-179.2356 49.9986,-172.2378"/>
</g>
<!-- Node44 -->
<g id="node44" class="node">
<title>Node44</title>
<g id="a_node44"><a xlink:href="../../d5/d72/classKFParticle__sPHENIX.html#a5017c5e94543ae7d1017419a42578b3b" target="_top" xlink:title="KFParticle_sPHENIX\l::saveOutput">
<polygon fill="none" stroke="#000000" points="475.5,-198.5 475.5,-230.5 589.5,-230.5 589.5,-198.5 475.5,-198.5"/>
<text text-anchor="start" x="483.5" y="-217.5" font-family="FreeSans" font-size="10.00" fill="#000000">KFParticle_sPHENIX</text>
<text text-anchor="middle" x="532.5" y="-205.5" font-family="FreeSans" font-size="10.00" fill="#000000">::saveOutput</text>
</a>
</g>
</g>
<!-- Node1&#45;&gt;Node44 -->
<g id="edge50" class="edge">
<title>Node1&#45;&gt;Node44</title>
<path fill="none" stroke="#191970" d="M50.1679,-183.2C58.5001,-184.8387 67.5687,-186.4276 76,-187.5 218.9447,-205.6822 388.662,-211.6544 475.3368,-213.5905"/>
<polygon fill="#191970" stroke="#191970" points="50.611,-179.718 40.1111,-181.1327 49.2015,-186.5746 50.611,-179.718"/>
</g>
<!-- Node45 -->
<g id="node45" class="node">
<title>Node45</title>
<g id="a_node45"><a xlink:href="../../d5/d72/classKFParticle__sPHENIX.html#adbb78f790cc29eeffdf7653add7b8b04" target="_top" xlink:title="KFParticle_sPHENIX\l::saveParticleContainer">
<polygon fill="none" stroke="#000000" points="90,-64.5 90,-96.5 224,-96.5 224,-64.5 90,-64.5"/>
<text text-anchor="start" x="98" y="-83.5" font-family="FreeSans" font-size="10.00" fill="#000000">KFParticle_sPHENIX</text>
<text text-anchor="middle" x="157" y="-71.5" font-family="FreeSans" font-size="10.00" fill="#000000">::saveParticleContainer</text>
</a>
</g>
</g>
<!-- Node1&#45;&gt;Node45 -->
<g id="edge59" class="edge">
<title>Node1&#45;&gt;Node45</title>
<path fill="none" stroke="#191970" d="M30.5617,-157.4061C40.3644,-141.3623 56.3797,-118.9565 76,-105.5 80.9761,-102.0872 86.4359,-99.1262 92.0969,-96.56"/>
<polygon fill="#191970" stroke="#191970" points="27.308,-156.0368 25.2842,-166.4366 33.3517,-159.5688 27.308,-156.0368"/>
</g>
<!-- Node46 -->
<g id="node46" class="node">
<title>Node46</title>
<g id="a_node46"><a xlink:href="../../d5/d72/classKFParticle__sPHENIX.html#ac43d2afdd0751517f545f2e0819945fd" target="_top" xlink:title="KFParticle_sPHENIX\l::saveTrackContainer">
<polygon fill="none" stroke="#000000" points="95.5,-13.5 95.5,-45.5 218.5,-45.5 218.5,-13.5 95.5,-13.5"/>
<text text-anchor="start" x="103.5" y="-32.5" font-family="FreeSans" font-size="10.00" fill="#000000">KFParticle_sPHENIX</text>
<text text-anchor="middle" x="157" y="-20.5" font-family="FreeSans" font-size="10.00" fill="#000000">::saveTrackContainer</text>
</a>
</g>
</g>
<!-- Node1&#45;&gt;Node46 -->
<g id="edge60" class="edge">
<title>Node1&#45;&gt;Node46</title>
<path fill="none" stroke="#191970" d="M23.8828,-156.4307C30.1451,-129.4232 45.045,-81.6451 76,-54.5 81.6432,-49.5513 88.2527,-45.5822 95.2195,-42.3987"/>
<polygon fill="#191970" stroke="#191970" points="20.4404,-155.7912 21.7668,-166.3027 27.285,-157.2583 20.4404,-155.7912"/>
</g>
<!-- Node4 -->
<g id="node4" class="node">
<title>Node4</title>
<g id="a_node4"><a xlink:href="../../d3/d96/classFun4AllHistoManager.html#a61c2043c62739de451de3f9287832a08" target="_top" xlink:title="Fun4AllHistoManager\l::dumpHistos">
<polygon fill="none" stroke="#000000" points="274,-613.5 274,-645.5 398,-645.5 398,-613.5 274,-613.5"/>
<text text-anchor="start" x="282" y="-632.5" font-family="FreeSans" font-size="10.00" fill="#000000">Fun4AllHistoManager</text>
<text text-anchor="middle" x="336" y="-620.5" font-family="FreeSans" font-size="10.00" fill="#000000">::dumpHistos</text>
</a>
</g>
</g>
<!-- Node3&#45;&gt;Node4 -->
<g id="edge3" class="edge">
<title>Node3&#45;&gt;Node4</title>
<path fill="none" stroke="#191970" d="M232.6252,-268.9477C234.5151,-270.3436 236.3137,-271.8579 238,-273.5 288.5193,-322.6952 324.584,-550.2512 333.7282,-613.2785"/>
<polygon fill="#191970" stroke="#191970" points="234.1757,-265.793 223.82,-263.5547 230.5196,-271.7624 234.1757,-265.793"/>
</g>
<!-- Node5 -->
<g id="node5" class="node">
<title>Node5</title>
<g id="a_node5"><a xlink:href="../../d8/d5c/classEdepNtuple.html#a3847388b5ca20643b45241e17e976741" target="_top" xlink:title="end of run method">
<polygon fill="none" stroke="#000000" points="482,-795.5 482,-815.5 583,-815.5 583,-795.5 482,-795.5"/>
<text text-anchor="middle" x="532.5" y="-802.5" font-family="FreeSans" font-size="10.00" fill="#000000">EdepNtuple::End</text>
</a>
</g>
</g>
<!-- Node4&#45;&gt;Node5 -->
<g id="edge4" class="edge">
<title>Node4&#45;&gt;Node5</title>
<path fill="none" stroke="#191970" d="M344.6323,-655.3662C357.9098,-690.9158 386.8669,-754.1395 434,-786.5 447.9269,-796.0619 465.4415,-801.1055 481.8254,-803.682"/>
<polygon fill="#191970" stroke="#191970" points="347.8349,-653.9288 341.1563,-645.7039 341.2481,-656.2984 347.8349,-653.9288"/>
</g>
<!-- Node6 -->
<g id="node6" class="node">
<title>Node6</title>
<g id="a_node6"><a xlink:href="../../d2/d9c/classHijingShowerSize.html#a2387f3a36daa0175cafc1c6136d6c8ed" target="_top" xlink:title="end of run method">
<polygon fill="none" stroke="#000000" points="467.5,-756.5 467.5,-776.5 597.5,-776.5 597.5,-756.5 467.5,-756.5"/>
<text text-anchor="middle" x="532.5" y="-763.5" font-family="FreeSans" font-size="10.00" fill="#000000">HijingShowerSize::End</text>
</a>
</g>
</g>
<!-- Node4&#45;&gt;Node6 -->
<g id="edge5" class="edge">
<title>Node4&#45;&gt;Node6</title>
<path fill="none" stroke="#191970" d="M349.8643,-654.9077C366.2257,-682.325 396.0692,-725.0642 434,-747.5 444.1183,-753.4849 455.7487,-757.6346 467.3905,-760.5008"/>
<polygon fill="#191970" stroke="#191970" points="352.6907,-652.8043 344.6482,-645.9072 346.6342,-656.3143 352.6907,-652.8043"/>
</g>
<!-- Node7 -->
<g id="node7" class="node">
<title>Node7</title>
<g id="a_node7"><a xlink:href="../../df/d62/classShowerSize.html#a819ecb79c646e1baba8ca5c7d9e0cf6e" target="_top" xlink:title="end of run method">
<polygon fill="none" stroke="#000000" points="482.5,-717.5 482.5,-737.5 582.5,-737.5 582.5,-717.5 482.5,-717.5"/>
<text text-anchor="middle" x="532.5" y="-724.5" font-family="FreeSans" font-size="10.00" fill="#000000">ShowerSize::End</text>
</a>
</g>
</g>
<!-- Node4&#45;&gt;Node7 -->
<g id="edge6" class="edge">
<title>Node4&#45;&gt;Node7</title>
<path fill="none" stroke="#191970" d="M358.3218,-652.9147C376.8725,-670.9355 404.8603,-694.9766 434,-708.5 449.0077,-715.4649 466.4414,-719.877 482.4338,-722.6719"/>
<polygon fill="#191970" stroke="#191970" points="360.5325,-650.1772 350.9734,-645.6083 355.597,-655.1411 360.5325,-650.1772"/>
</g>
<!-- Node8 -->
<g id="node8" class="node">
<title>Node8</title>
<g id="a_node8"><a xlink:href="../../d7/d34/classSigmaTimingNtuple.html#a7790cae11b0120462165b76dc7c12b83" target="_top" xlink:title="end of run method">
<polygon fill="none" stroke="#000000" points="461.5,-678.5 461.5,-698.5 603.5,-698.5 603.5,-678.5 461.5,-678.5"/>
<text text-anchor="middle" x="532.5" y="-685.5" font-family="FreeSans" font-size="10.00" fill="#000000">SigmaTimingNtuple::End</text>
</a>
</g>
</g>
<!-- Node4&#45;&gt;Node8 -->
<g id="edge7" class="edge">
<title>Node4&#45;&gt;Node8</title>
<path fill="none" stroke="#191970" d="M380.2269,-649.713C396.8321,-656.7243 416.0362,-664.1582 434,-669.5 445.6854,-672.9749 458.3451,-675.97 470.5724,-678.4879"/>
<polygon fill="#191970" stroke="#191970" points="381.3488,-646.3857 370.7793,-645.6527 378.5848,-652.8169 381.3488,-646.3857"/>
</g>
<!-- Node9 -->
<g id="node9" class="node">
<title>Node9</title>
<g id="a_node9"><a xlink:href="../../dc/dbd/classTimingNtuple.html#a01b462c161120cb944952aa3809831ad" target="_top" xlink:title="end of run method">
<polygon fill="none" stroke="#000000" points="477,-639.5 477,-659.5 588,-659.5 588,-639.5 477,-639.5"/>
<text text-anchor="middle" x="532.5" y="-646.5" font-family="FreeSans" font-size="10.00" fill="#000000">TimingNtuple::End</text>
</a>
</g>
</g>
<!-- Node4&#45;&gt;Node9 -->
<g id="edge8" class="edge">
<title>Node4&#45;&gt;Node9</title>
<path fill="none" stroke="#191970" d="M408.3845,-636.8674C430.9488,-639.164 455.4727,-641.6601 476.7166,-643.8223"/>
<polygon fill="#191970" stroke="#191970" points="408.4769,-633.3588 398.1738,-635.8281 407.768,-640.3228 408.4769,-633.3588"/>
</g>
<!-- Node10 -->
<g id="node10" class="node">
<title>Node10</title>
<g id="a_node10"><a xlink:href="../../df/d1c/classTowerTiming.html#a9aa3a111f63d8f4a217cce5424905548" target="_top" xlink:title="end of run method">
<polygon fill="none" stroke="#000000" points="479,-600.5 479,-620.5 586,-620.5 586,-600.5 479,-600.5"/>
<text text-anchor="middle" x="532.5" y="-607.5" font-family="FreeSans" font-size="10.00" fill="#000000">TowerTiming::End</text>
</a>
</g>
</g>
<!-- Node4&#45;&gt;Node10 -->
<g id="edge9" class="edge">
<title>Node4&#45;&gt;Node10</title>
<path fill="none" stroke="#191970" d="M408.3491,-622.5044C431.62,-620.2543 456.9786,-617.8023 478.6756,-615.7044"/>
<polygon fill="#191970" stroke="#191970" points="407.7905,-619.042 398.1738,-623.4883 408.4643,-626.0095 407.7905,-619.042"/>
</g>
<!-- Node11 -->
<g id="node11" class="node">
<title>Node11</title>
<g id="a_node11"><a xlink:href="../../d2/df0/classSynRadAna.html#a0b05e9790eb5619e590dfc9471fffec4" target="_top" xlink:title="Called at the end of all processing.">
<polygon fill="none" stroke="#000000" points="482.5,-561.5 482.5,-581.5 582.5,-581.5 582.5,-561.5 482.5,-561.5"/>
<text text-anchor="middle" x="532.5" y="-568.5" font-family="FreeSans" font-size="10.00" fill="#000000">SynRadAna::End</text>
</a>
</g>
</g>
<!-- Node4&#45;&gt;Node11 -->
<g id="edge10" class="edge">
<title>Node4&#45;&gt;Node11</title>
<path fill="none" stroke="#191970" d="M382.8494,-609.4727C398.8712,-603.125 417.033,-596.473 434,-591.5 449.573,-586.9356 466.8306,-583.048 482.4937,-579.9479"/>
<polygon fill="#191970" stroke="#191970" points="381.1478,-606.3849 373.18,-613.368 383.7635,-612.8778 381.1478,-606.3849"/>
</g>
<!-- Node12 -->
<g id="node12" class="node">
<title>Node12</title>
<g id="a_node12"><a xlink:href="../../d5/d60/analysis_2blob_2master_2HF-Jet_2TruthGeneration_2macros_2Fun4All__G4__sPHENIX_8C.html#a9a881c27e3822a95643d09c2fd73009e" target="_top" xlink:title="Fun4All_G4_sPHENIX">
<polygon fill="none" stroke="#000000" points="679.5,-737.5 679.5,-757.5 800.5,-757.5 800.5,-737.5 679.5,-737.5"/>
<text text-anchor="middle" x="740" y="-744.5" font-family="FreeSans" font-size="10.00" fill="#000000">Fun4All_G4_sPHENIX</text>
</a>
</g>
</g>
<!-- Node4&#45;&gt;Node12 -->
<g id="edge11" class="edge">
<title>Node4&#45;&gt;Node12</title>
<path fill="none" stroke="#191970" d="M337.9212,-655.9783C343.1994,-706.7573 362.7201,-816.9956 434,-864.5 506.858,-913.0561 550.7146,-899.4318 631,-864.5 682.6763,-842.0158 720.9364,-781.6206 734.5635,-757.5769"/>
<polygon fill="#191970" stroke="#191970" points="341.3864,-655.4417 336.9745,-645.8092 334.4166,-656.0906 341.3864,-655.4417"/>
</g>
<!-- Node13 -->
<g id="node13" class="node">
<title>Node13</title>
<g id="a_node13"><a xlink:href="../../d8/db5/namespaceQAHistManagerDef.html#aa4c4b65716047fdf03fed1d19f802be7" target="_top" xlink:title="Save hist to root files.">
<polygon fill="none" stroke="#000000" points="434,-522.5 434,-542.5 631,-542.5 631,-522.5 434,-522.5"/>
<text text-anchor="middle" x="532.5" y="-529.5" font-family="FreeSans" font-size="10.00" fill="#000000">QAHistManagerDef::saveQARootFile</text>
</a>
</g>
</g>
<!-- Node4&#45;&gt;Node13 -->
<g id="edge12" class="edge">
<title>Node4&#45;&gt;Node13</title>
<path fill="none" stroke="#191970" d="M359.1382,-606.1422C377.7699,-588.7017 405.4741,-565.6914 434,-552.5 442.8694,-548.3985 452.5718,-545.1344 462.3183,-542.5375"/>
<polygon fill="#191970" stroke="#191970" points="356.5364,-603.7876 351.7326,-613.2308 361.3768,-608.8444 356.5364,-603.7876"/>
</g>
<!-- Node22 -->
<g id="node22" class="node">
<title>Node22</title>
<g id="a_node22"><a xlink:href="../../d0/d39/classG4CellNtuple.html#aaa9fc79fc06ce7a03f18deb9d1f765fa" target="_top" xlink:title="end of run method">
<polygon fill="none" stroke="#000000" points="478,-444.5 478,-464.5 587,-464.5 587,-444.5 478,-444.5"/>
<text text-anchor="middle" x="532.5" y="-451.5" font-family="FreeSans" font-size="10.00" fill="#000000">G4CellNtuple::End</text>
</a>
</g>
</g>
<!-- Node4&#45;&gt;Node22 -->
<g id="edge22" class="edge">
<title>Node4&#45;&gt;Node22</title>
<path fill="none" stroke="#191970" d="M344.874,-603.7524C358.3612,-568.6756 387.4816,-506.5754 434,-474.5 446.7854,-465.6842 462.5862,-460.5808 477.7604,-457.6741"/>
<polygon fill="#191970" stroke="#191970" points="341.5306,-602.7021 341.3352,-613.2951 348.0939,-605.136 341.5306,-602.7021"/>
</g>
<!-- Node23 -->
<g id="node23" class="node">
<title>Node23</title>
<g id="a_node23"><a xlink:href="../../d7/d71/classG4EdepNtuple.html#afb50ac55fc093a20c6d7a0432ea1725a" target="_top" xlink:title="end of run method">
<polygon fill="none" stroke="#000000" points="475,-405.5 475,-425.5 590,-425.5 590,-405.5 475,-405.5"/>
<text text-anchor="middle" x="532.5" y="-412.5" font-family="FreeSans" font-size="10.00" fill="#000000">G4EdepNtuple::End</text>
</a>
</g>
</g>
<!-- Node4&#45;&gt;Node23 -->
<g id="edge23" class="edge">
<title>Node4&#45;&gt;Node23</title>
<path fill="none" stroke="#191970" d="M341.4219,-603.6148C351.6876,-561.3866 378.1324,-478.1189 434,-435.5 445.7232,-426.5569 460.439,-421.3386 474.8946,-418.3605"/>
<polygon fill="#191970" stroke="#191970" points="337.9983,-602.885 339.1524,-613.4168 344.8179,-604.464 337.9983,-602.885"/>
</g>
<!-- Node24 -->
<g id="node24" class="node">
<title>Node24</title>
<g id="a_node24"><a xlink:href="../../d4/db8/classG4HitNtuple.html#a0e81761f65bbfc0cd4e716d040f1a604" target="_top" xlink:title="end of run method">
<polygon fill="none" stroke="#000000" points="480.5,-366.5 480.5,-386.5 584.5,-386.5 584.5,-366.5 480.5,-366.5"/>
<text text-anchor="middle" x="532.5" y="-373.5" font-family="FreeSans" font-size="10.00" fill="#000000">G4HitNtuple::End</text>
</a>
</g>
</g>
<!-- Node4&#45;&gt;Node24 -->
<g id="edge24" class="edge">
<title>Node4&#45;&gt;Node24</title>
<path fill="none" stroke="#191970" d="M339.0432,-603.446C346.1854,-554.749 368.6782,-450.0281 434,-396.5 446.957,-385.8824 464.0478,-380.4154 480.35,-377.7293"/>
<polygon fill="#191970" stroke="#191970" points="335.5572,-603.106 337.6742,-613.4872 342.4931,-604.0516 335.5572,-603.106"/>
</g>
<!-- Node25 -->
<g id="node25" class="node">
<title>Node25</title>
<g id="a_node25"><a xlink:href="../../d2/d1c/classG4HitTTree.html#ace025522ad4d00facae61bf44d03e53b" target="_top" xlink:title="Called at the end of all processing.">
<polygon fill="none" stroke="#000000" points="483.5,-327.5 483.5,-347.5 581.5,-347.5 581.5,-327.5 483.5,-327.5"/>
<text text-anchor="middle" x="532.5" y="-334.5" font-family="FreeSans" font-size="10.00" fill="#000000">G4HitTTree::End</text>
</a>
</g>
</g>
<!-- Node4&#45;&gt;Node25 -->
<g id="edge25" class="edge">
<title>Node4&#45;&gt;Node25</title>
<path fill="none" stroke="#191970" d="M337.2991,-603.063C341.4927,-548.2872 359.2087,-422.1309 434,-357.5 447.533,-345.8055 466.0198,-340.2694 483.324,-337.8351"/>
<polygon fill="#191970" stroke="#191970" points="333.788,-603.1123 336.6107,-613.3242 340.7723,-603.581 333.788,-603.1123"/>
</g>
<!-- Node26 -->
<g id="node26" class="node">
<title>Node26</title>
<g id="a_node26"><a xlink:href="../../d9/d2f/classG4RawTowerTTree.html#ae4aed91bf1fb8c4ea26bc52e5c85d627" target="_top" xlink:title="Called at the end of all processing.">
<polygon fill="none" stroke="#000000" points="465.5,-288.5 465.5,-308.5 599.5,-308.5 599.5,-288.5 465.5,-288.5"/>
<text text-anchor="middle" x="532.5" y="-295.5" font-family="FreeSans" font-size="10.00" fill="#000000">G4RawTowerTTree::End</text>
</a>
</g>
</g>
<!-- Node4&#45;&gt;Node26 -->
<g id="edge26" class="edge">
<title>Node4&#45;&gt;Node26</title>
<path fill="none" stroke="#191970" d="M340.7109,-603.4559C353.451,-535.9035 390.5682,-357.5974 434,-318.5 442.8189,-310.5612 453.9025,-305.4288 465.4256,-302.172"/>
<polygon fill="#191970" stroke="#191970" points="337.266,-602.837 338.8782,-613.3085 344.148,-604.1172 337.266,-602.837"/>
</g>
<!-- Node27 -->
<g id="node27" class="node">
<title>Node27</title>
<g id="a_node27"><a xlink:href="../../de/d31/classG4ScintillatorSlatTTree.html#a80b04f241dc50549f1d7289feabe7510" target="_top" xlink:title="Called at the end of all processing.">
<polygon fill="none" stroke="#000000" points="454,-249.5 454,-269.5 611,-269.5 611,-249.5 454,-249.5"/>
<text text-anchor="middle" x="532.5" y="-256.5" font-family="FreeSans" font-size="10.00" fill="#000000">G4ScintillatorSlatTTree::End</text>
</a>
</g>
</g>
<!-- Node4&#45;&gt;Node27 -->
<g id="edge27" class="edge">
<title>Node4&#45;&gt;Node27</title>
<path fill="none" stroke="#191970" d="M339.7726,-603.2525C350.8638,-529.7748 385.6501,-324.4573 434,-279.5 439.7505,-274.153 446.5229,-270.0678 453.7803,-266.966"/>
<polygon fill="#191970" stroke="#191970" points="336.2598,-603.0809 338.2532,-613.4865 343.1839,-604.109 336.2598,-603.0809"/>
</g>
<!-- Node28 -->
<g id="node28" class="node">
<title>Node28</title>
<g id="a_node28"><a xlink:href="../../db/d3d/classG4ScintillatorTowerTTree.html#a8f170293d71b7d7db87147ce3f9fbbdd" target="_top" xlink:title="Called at the end of all processing.">
<polygon fill="none" stroke="#000000" points="449,-1029.5 449,-1049.5 616,-1049.5 616,-1029.5 449,-1029.5"/>
<text text-anchor="middle" x="532.5" y="-1036.5" font-family="FreeSans" font-size="10.00" fill="#000000">G4ScintillatorTowerTTree::End</text>
</a>
</g>
</g>
<!-- Node4&#45;&gt;Node28 -->
<g id="edge28" class="edge">
<title>Node4&#45;&gt;Node28</title>
<path fill="none" stroke="#191970" d="M338.9116,-655.6315C348.2641,-734.7671 380.1163,-969.5027 434,-1020.5 438.4272,-1024.69 443.4849,-1028.0895 448.9181,-1030.8362"/>
<polygon fill="#191970" stroke="#191970" points="342.3693,-655.0637 337.7412,-645.5332 335.4158,-655.8696 342.3693,-655.0637"/>
</g>
<!-- Node29 -->
<g id="node29" class="node">
<title>Node29</title>
<g id="a_node29"><a xlink:href="../../d1/ddd/classG4SnglNtuple.html#ade0a5677fd83ab2c5cb1d410e6786da1" target="_top" xlink:title="end of run method">
<polygon fill="none" stroke="#000000" points="476.5,-990.5 476.5,-1010.5 588.5,-1010.5 588.5,-990.5 476.5,-990.5"/>
<text text-anchor="middle" x="532.5" y="-997.5" font-family="FreeSans" font-size="10.00" fill="#000000">G4SnglNtuple::End</text>
</a>
</g>
</g>
<!-- Node4&#45;&gt;Node29 -->
<g id="edge29" class="edge">
<title>Node4&#45;&gt;Node29</title>
<path fill="none" stroke="#191970" d="M339.7283,-655.9195C350.7019,-729.8756 385.2068,-936.5063 434,-981.5 445.523,-992.1257 461.1181,-997.6285 476.4979,-1000.2972"/>
<polygon fill="#191970" stroke="#191970" points="343.1326,-655.0087 338.2256,-645.6187 336.2059,-656.0192 343.1326,-655.0087"/>
</g>
<!-- Node30 -->
<g id="node30" class="node">
<title>Node30</title>
<g id="a_node30"><a xlink:href="../../dc/d81/classG4TowerNtuple.html#a586f5539301558936fe45bcf26566199" target="_top" xlink:title="end of run method">
<polygon fill="none" stroke="#000000" points="473,-951.5 473,-971.5 592,-971.5 592,-951.5 473,-951.5"/>
<text text-anchor="middle" x="532.5" y="-958.5" font-family="FreeSans" font-size="10.00" fill="#000000">G4TowerNtuple::End</text>
</a>
</g>
</g>
<!-- Node4&#45;&gt;Node30 -->
<g id="edge30" class="edge">
<title>Node4&#45;&gt;Node30</title>
<path fill="none" stroke="#191970" d="M340.6648,-655.7336C353.2924,-723.7744 390.1584,-903.3474 434,-942.5 444.7167,-952.0705 458.7559,-957.4458 472.8632,-960.3358"/>
<polygon fill="#191970" stroke="#191970" points="344.0918,-655.0164 338.8489,-645.8097 337.2061,-656.2764 344.0918,-655.0164"/>
</g>
<!-- Node31 -->
<g id="node31" class="node">
<title>Node31</title>
<g id="a_node31"><a xlink:href="../../de/d86/classG4VtxNtuple.html#a479363c6740d67f8e67f2f7d1f8b81c0" target="_top" xlink:title="end of run method">
<polygon fill="none" stroke="#000000" points="479.5,-912.5 479.5,-932.5 585.5,-932.5 585.5,-912.5 479.5,-912.5"/>
<text text-anchor="middle" x="532.5" y="-919.5" font-family="FreeSans" font-size="10.00" fill="#000000">G4VtxNtuple::End</text>
</a>
</g>
</g>
<!-- Node4&#45;&gt;Node31 -->
<g id="edge31" class="edge">
<title>Node4&#45;&gt;Node31</title>
<path fill="none" stroke="#191970" d="M337.714,-655.6589C342.6801,-709.32 361.7576,-832.2752 434,-897.5 446.4405,-908.732 463.2122,-915.0705 479.3875,-918.6007"/>
<polygon fill="#191970" stroke="#191970" points="341.1939,-655.2713 336.8757,-645.5964 334.2181,-655.8525 341.1939,-655.2713"/>
</g>
<!-- Node32 -->
<g id="node32" class="node">
<title>Node32</title>
<g id="a_node32"><a xlink:href="../../da/daf/classJetHepMCLoader.html#a6f8c1ea54a8ca1ec7143bca6d741967b" target="_top" xlink:title="Called at the end of all processing.">
<polygon fill="none" stroke="#000000" points="469.5,-834.5 469.5,-854.5 595.5,-854.5 595.5,-834.5 469.5,-834.5"/>
<text text-anchor="middle" x="532.5" y="-841.5" font-family="FreeSans" font-size="10.00" fill="#000000">JetHepMCLoader::End</text>
</a>
</g>
</g>
<!-- Node4&#45;&gt;Node32 -->
<g id="edge32" class="edge">
<title>Node4&#45;&gt;Node32</title>
<path fill="none" stroke="#191970" d="M341.2179,-655.3908C351.2417,-698.0337 377.4121,-782.5842 434,-825.5 444.1993,-833.2351 456.6615,-838.0948 469.2465,-841.0925"/>
<polygon fill="#191970" stroke="#191970" points="344.6051,-654.4993 339.0087,-645.5032 337.7735,-656.0258 344.6051,-654.4993"/>
</g>
<!-- Node33 -->
<g id="node33" class="node">
<title>Node33</title>
<g id="a_node33"><a xlink:href="../../dd/d0c/classCaloAna.html#a2dfde85ee58d7d8543b74d0ce426e309" target="_top" xlink:title="end of run method">
<polygon fill="none" stroke="#000000" points="490.5,-483.5 490.5,-503.5 574.5,-503.5 574.5,-483.5 490.5,-483.5"/>
<text text-anchor="middle" x="532.5" y="-490.5" font-family="FreeSans" font-size="10.00" fill="#000000">CaloAna::End</text>
</a>
</g>
</g>
<!-- Node4&#45;&gt;Node33 -->
<g id="edge33" class="edge">
<title>Node4&#45;&gt;Node33</title>
<path fill="none" stroke="#191970" d="M350.0121,-604.591C366.5045,-577.6987 396.4634,-535.737 434,-513.5 450.8146,-503.5389 471.7699,-498.4657 490.0244,-495.91"/>
<polygon fill="#191970" stroke="#191970" points="346.8644,-603.036 344.7499,-613.4177 352.877,-606.6206 346.8644,-603.036"/>
</g>
<!-- Node13&#45;&gt;Node12 -->
<g id="edge13" class="edge">
<title>Node13&#45;&gt;Node12</title>
<path fill="none" stroke="#191970" d="M622.0536,-546.8782C625.1696,-548.5631 628.1661,-550.4307 631,-552.5 639.6137,-558.7897 713.9219,-698.2814 734.6507,-737.3891"/>
<polygon fill="#191970" stroke="#191970" points="623.5282,-543.704 612.9912,-542.5982 620.5388,-550.0336 623.5282,-543.704"/>
</g>
<!-- Node14 -->
<g id="node14" class="node">
<title>Node14</title>
<g id="a_node14"><a xlink:href="../../da/db5/Fun4All__G4__W_8C.html#ad4745423f42356b6b3cb65bbbc1e917e" target="_top" xlink:title="Fun4All_G4_W">
<polygon fill="none" stroke="#000000" points="696,-464.5 696,-484.5 784,-484.5 784,-464.5 696,-464.5"/>
<text text-anchor="middle" x="740" y="-471.5" font-family="FreeSans" font-size="10.00" fill="#000000">Fun4All_G4_W</text>
</a>
</g>
</g>
<!-- Node13&#45;&gt;Node14 -->
<g id="edge14" class="edge">
<title>Node13&#45;&gt;Node14</title>
<path fill="none" stroke="#191970" d="M608.8663,-520.1014C616.4265,-518.1806 623.9171,-515.9902 631,-513.5 648.0675,-507.4993 650.1756,-501.152 667,-494.5 676.5317,-490.7314 687.032,-487.4025 697.0257,-484.5954"/>
<polygon fill="#191970" stroke="#191970" points="607.8316,-516.7499 598.9161,-522.4738 609.4552,-523.559 607.8316,-516.7499"/>
</g>
<!-- Node15 -->
<g id="node15" class="node">
<title>Node15</title>
<g id="a_node15"><a xlink:href="../../d7/d73/QA_8C.html#aeb948329a77cf960efa70b07edb92bb7" target="_top" xlink:title="QA_Output">
<polygon fill="none" stroke="#000000" points="704,-372.5 704,-392.5 776,-392.5 776,-372.5 704,-372.5"/>
<text text-anchor="middle" x="740" y="-379.5" font-family="FreeSans" font-size="10.00" fill="#000000">QA_Output</text>
</a>
</g>
</g>
<!-- Node13&#45;&gt;Node15 -->
<g id="edge15" class="edge">
<title>Node13&#45;&gt;Node15</title>
<path fill="none" stroke="#191970" d="M623.4361,-518.099C626.0497,-516.6959 628.5793,-515.1665 631,-513.5 655.9901,-496.2957 648.1489,-479.2725 667,-455.5 686.3772,-431.0641 713.1377,-406.1216 728.293,-392.6499"/>
<polygon fill="#191970" stroke="#191970" points="621.8319,-514.9855 614.2624,-522.3985 624.8026,-521.3238 621.8319,-514.9855"/>
</g>
<!-- Node19 -->
<g id="node19" class="node">
<title>Node19</title>
<g id="a_node19"><a xlink:href="../../dc/d8e/Fun4All__G4__Prototype2_8C.html#a6b8f092c4f51be2938dd09c810ba6226" target="_top" xlink:title="Fun4All_G4_Prototype2">
<polygon fill="none" stroke="#000000" points="673.5,-581.5 673.5,-601.5 806.5,-601.5 806.5,-581.5 673.5,-581.5"/>
<text text-anchor="middle" x="740" y="-588.5" font-family="FreeSans" font-size="10.00" fill="#000000">Fun4All_G4_Prototype2</text>
</a>
</g>
</g>
<!-- Node13&#45;&gt;Node19 -->
<g id="edge19" class="edge">
<title>Node13&#45;&gt;Node19</title>
<path fill="none" stroke="#191970" d="M606.4556,-544.9361C614.8398,-547.1037 623.1759,-549.611 631,-552.5 648.1703,-558.8399 650.0082,-565.6963 667,-572.5 675.6318,-575.9563 685.0908,-578.9569 694.2541,-581.4887"/>
<polygon fill="#191970" stroke="#191970" points="607.1628,-541.5062 596.619,-542.5452 605.5094,-548.3081 607.1628,-541.5062"/>
</g>
<!-- Node20 -->
<g id="node20" class="node">
<title>Node20</title>
<g id="a_node20"><a xlink:href="../../d7/d40/Fun4All__G4__Prototype3_8C.html#a1201361263017b08a070777a0b90b27c" target="_top" xlink:title="Fun4All_G4_Prototype3">
<polygon fill="none" stroke="#000000" points="673.5,-542.5 673.5,-562.5 806.5,-562.5 806.5,-542.5 673.5,-542.5"/>
<text text-anchor="middle" x="740" y="-549.5" font-family="FreeSans" font-size="10.00" fill="#000000">Fun4All_G4_Prototype3</text>
</a>
</g>
</g>
<!-- Node13&#45;&gt;Node20 -->
<g id="edge20" class="edge">
<title>Node13&#45;&gt;Node20</title>
<path fill="none" stroke="#191970" d="M641.165,-542.9737C652.1342,-544.031 663.0301,-545.0812 673.3605,-546.0769"/>
<polygon fill="#191970" stroke="#191970" points="641.3744,-539.4778 631.0847,-542.0021 640.7027,-546.4455 641.3744,-539.4778"/>
</g>
<!-- Node21 -->
<g id="node21" class="node">
<title>Node21</title>
<g id="a_node21"><a xlink:href="../../d4/d58/Fun4All__G4__Prototype4_8C.html#acac517f0728af658cbf99c7c9687c908" target="_top" xlink:title="Fun4All_G4_Prototype4">
<polygon fill="none" stroke="#000000" points="673.5,-503.5 673.5,-523.5 806.5,-523.5 806.5,-503.5 673.5,-503.5"/>
<text text-anchor="middle" x="740" y="-510.5" font-family="FreeSans" font-size="10.00" fill="#000000">Fun4All_G4_Prototype4</text>
</a>
</g>
</g>
<!-- Node13&#45;&gt;Node21 -->
<g id="edge21" class="edge">
<title>Node13&#45;&gt;Node21</title>
<path fill="none" stroke="#191970" d="M641.165,-522.55C652.1342,-521.5455 663.0301,-520.5478 673.3605,-519.6019"/>
<polygon fill="#191970" stroke="#191970" points="640.7238,-519.0756 631.0847,-523.473 641.3622,-526.0465 640.7238,-519.0756"/>
</g>
<!-- Node16 -->
<g id="node16" class="node">
<title>Node16</title>
<g id="a_node16"><a xlink:href="../../d1/d19/macros_2blob_2master_2detectors_2sPHENIX_2Fun4All__G4__sPHENIX_8C.html#a4102cd3e195333de974409428a2e6dae" target="_top" xlink:title="Fun4All_G4_sPHENIX">
<polygon fill="none" stroke="#000000" points="849,-300.5 849,-320.5 970,-320.5 970,-300.5 849,-300.5"/>
<text text-anchor="middle" x="909.5" y="-307.5" font-family="FreeSans" font-size="10.00" fill="#000000">Fun4All_G4_sPHENIX</text>
</a>
</g>
</g>
<!-- Node15&#45;&gt;Node16 -->
<g id="edge16" class="edge">
<title>Node15&#45;&gt;Node16</title>
<path fill="none" stroke="#191970" d="M785.9264,-372.4024C795.0304,-369.8844 804.4207,-366.9111 813,-363.5 843.017,-351.5652 875.4575,-332.2904 894.0401,-320.5679"/>
<polygon fill="#191970" stroke="#191970" points="784.9941,-369.0284 776.212,-374.955 786.7731,-375.7986 784.9941,-369.0284"/>
</g>
<!-- Node17 -->
<g id="node17" class="node">
<title>Node17</title>
<g id="a_node17"><a xlink:href="../../d4/de9/Fun4All__AnaTutorial__sPHENIX_8C.html#a5028836c74f0bebec560d3ab54daa022" target="_top" xlink:title="Fun4All_AnaTutorial\l_sPHENIX">
<polygon fill="none" stroke="#000000" points="852,-249.5 852,-281.5 967,-281.5 967,-249.5 852,-249.5"/>
<text text-anchor="start" x="860" y="-268.5" font-family="FreeSans" font-size="10.00" fill="#000000">Fun4All_AnaTutorial</text>
<text text-anchor="middle" x="909.5" y="-256.5" font-family="FreeSans" font-size="10.00" fill="#000000">_sPHENIX</text>
</a>
</g>
</g>
<!-- Node15&#45;&gt;Node17 -->
<g id="edge17" class="edge">
<title>Node15&#45;&gt;Node17</title>
<path fill="none" stroke="#191970" d="M786.1616,-376.7883C795.7657,-373.9519 805.2967,-369.7407 813,-363.5 840.7993,-340.979 822.9818,-316.0572 849,-291.5 852.9907,-287.7334 857.6118,-284.4652 862.4867,-281.641"/>
<polygon fill="#191970" stroke="#191970" points="785.0554,-373.4569 776.2002,-379.2738 786.7501,-380.2487 785.0554,-373.4569"/>
</g>
<!-- Node18 -->
<g id="node18" class="node">
<title>Node18</title>
<g id="a_node18"><a xlink:href="../../d6/d14/Fun4All__AnaTutorial__sPHENIX__Jets_8C.html#a61b352bca84476d24b0ff40991b27900" target="_top" xlink:title="Fun4All_AnaTutorial\l_sPHENIX_Jets">
<polygon fill="none" stroke="#000000" points="852,-198.5 852,-230.5 967,-230.5 967,-198.5 852,-198.5"/>
<text text-anchor="start" x="860" y="-217.5" font-family="FreeSans" font-size="10.00" fill="#000000">Fun4All_AnaTutorial</text>
<text text-anchor="middle" x="909.5" y="-205.5" font-family="FreeSans" font-size="10.00" fill="#000000">_sPHENIX_Jets</text>
</a>
</g>
</g>
<!-- Node15&#45;&gt;Node18 -->
<g id="edge18" class="edge">
<title>Node15&#45;&gt;Node18</title>
<path fill="none" stroke="#191970" d="M786.1665,-378.0338C796.0286,-375.1559 805.6692,-370.6134 813,-363.5 853.8785,-323.834 811.2355,-283.1414 849,-240.5 852.4108,-236.6487 856.4919,-233.348 860.9023,-230.5233"/>
<polygon fill="#191970" stroke="#191970" points="785.22,-374.6614 776.3077,-380.3904 786.8474,-381.4696 785.22,-374.6614"/>
</g>
<!-- Node36 -->
<g id="node36" class="node">
<title>Node36</title>
<g id="a_node36"><a xlink:href="../../d8/db2/Fun4All__KFParticle__advanced_8C.html#a491c6a8ad8c4fccf0642c04171d5f856" target="_top" xlink:title="Fun4All_KFParticle\l_advanced">
<polygon fill="none" stroke="#000000" points="686,-153.5 686,-185.5 794,-185.5 794,-153.5 686,-153.5"/>
<text text-anchor="start" x="694" y="-172.5" font-family="FreeSans" font-size="10.00" fill="#000000">Fun4All_KFParticle</text>
<text text-anchor="middle" x="740" y="-160.5" font-family="FreeSans" font-size="10.00" fill="#000000">_advanced</text>
</a>
</g>
</g>
<!-- Node35&#45;&gt;Node36 -->
<g id="edge36" class="edge">
<title>Node35&#45;&gt;Node36</title>
<path fill="none" stroke="#191970" d="M599.8068,-165.4462C627.6454,-166.2512 659.4943,-167.1721 685.7931,-167.9326"/>
<polygon fill="#191970" stroke="#191970" points="599.8466,-161.946 589.7496,-165.1554 599.6442,-168.9431 599.8466,-161.946"/>
</g>
<!-- Node37 -->
<g id="node37" class="node">
<title>Node37</title>
<g id="a_node37"><a xlink:href="../../d0/d10/Fun4All__KFParticle__basic_8C.html#a612dfd96156bfb6ae2a57529bdd75ede" target="_top" xlink:title="Fun4All_KFParticle\l_basic">
<polygon fill="none" stroke="#000000" points="686,-102.5 686,-134.5 794,-134.5 794,-102.5 686,-102.5"/>
<text text-anchor="start" x="694" y="-121.5" font-family="FreeSans" font-size="10.00" fill="#000000">Fun4All_KFParticle</text>
<text text-anchor="middle" x="740" y="-109.5" font-family="FreeSans" font-size="10.00" fill="#000000">_basic</text>
</a>
</g>
</g>
<!-- Node35&#45;&gt;Node37 -->
<g id="edge37" class="edge">
<title>Node35&#45;&gt;Node37</title>
<path fill="none" stroke="#191970" d="M599.8068,-148.9034C627.6454,-142.8661 659.4943,-135.9591 685.7931,-130.2557"/>
<polygon fill="#191970" stroke="#191970" points="598.7806,-145.5445 589.7496,-151.0844 600.2642,-152.3854 598.7806,-145.5445"/>
</g>
<!-- Node38 -->
<g id="node38" class="node">
<title>Node38</title>
<g id="a_node38"><a xlink:href="../../d2/d9d/Fun4All__KFParticle__condorJob_8C.html#ab799e8959b01c0e0aa6b3aa5b54708d9" target="_top" xlink:title="Fun4All_KFParticle\l_condorJob">
<polygon fill="none" stroke="#000000" points="686,-51.5 686,-83.5 794,-83.5 794,-51.5 686,-51.5"/>
<text text-anchor="start" x="694" y="-70.5" font-family="FreeSans" font-size="10.00" fill="#000000">Fun4All_KFParticle</text>
<text text-anchor="middle" x="740" y="-58.5" font-family="FreeSans" font-size="10.00" fill="#000000">_condorJob</text>
</a>
</g>
</g>
<!-- Node35&#45;&gt;Node38 -->
<g id="edge38" class="edge">
<title>Node35&#45;&gt;Node38</title>
<path fill="none" stroke="#191970" d="M568.9128,-142.2933C595.5513,-127.2733 632.8501,-107.2544 667,-92.5 674.2555,-89.3653 682.0442,-86.3475 689.7348,-83.5594"/>
<polygon fill="#191970" stroke="#191970" points="566.9237,-139.3979 559.9577,-147.3807 570.3815,-145.4843 566.9237,-139.3979"/>
</g>
<!-- Node39 -->
<g id="node39" class="node">
<title>Node39</title>
<g id="a_node39"><a xlink:href="../../d8/de3/Fun4All__KFParticle__singleFile_8C.html#aaec2a97559fc6a6e6f3c2b846fdb7a60" target="_top" xlink:title="Fun4All_KFParticle\l_singleFile">
<polygon fill="none" stroke="#000000" points="686,-.5 686,-32.5 794,-32.5 794,-.5 686,-.5"/>
<text text-anchor="start" x="694" y="-19.5" font-family="FreeSans" font-size="10.00" fill="#000000">Fun4All_KFParticle</text>
<text text-anchor="middle" x="740" y="-7.5" font-family="FreeSans" font-size="10.00" fill="#000000">_singleFile</text>
</a>
</g>
</g>
<!-- Node35&#45;&gt;Node39 -->
<g id="edge39" class="edge">
<title>Node35&#45;&gt;Node39</title>
<path fill="none" stroke="#191970" d="M552.9187,-139.8917C577.5234,-112.7521 621.2894,-68.4872 667,-41.5 672.8832,-38.0266 679.3196,-34.9449 685.8552,-32.2367"/>
<polygon fill="#191970" stroke="#191970" points="550.2659,-137.6076 546.2091,-147.395 555.4839,-142.2737 550.2659,-137.6076"/>
</g>
<!-- Node40 -->
<g id="node40" class="node">
<title>Node40</title>
<g id="a_node40"><a xlink:href="../../d3/df5/Fun4All__KFParticle__standardContainers_8C.html#a65aca8a9b0ccba979548bcf0b9f27941" target="_top" xlink:title="Fun4All_KFParticle\l_standardContainers">
<polygon fill="none" stroke="#000000" points="679,-321.5 679,-353.5 801,-353.5 801,-321.5 679,-321.5"/>
<text text-anchor="start" x="687" y="-340.5" font-family="FreeSans" font-size="10.00" fill="#000000">Fun4All_KFParticle</text>
<text text-anchor="middle" x="740" y="-328.5" font-family="FreeSans" font-size="10.00" fill="#000000">_standardContainers</text>
</a>
</g>
</g>
<!-- Node35&#45;&gt;Node40 -->
<g id="edge40" class="edge">
<title>Node35&#45;&gt;Node40</title>
<path fill="none" stroke="#191970" d="M599.5055,-170.5291C611.1376,-174.3651 622.2786,-180.0702 631,-188.5 672.2624,-228.3829 627.3943,-270.9714 667,-312.5 670.5133,-316.1838 674.592,-319.3249 678.9909,-322.0031"/>
<polygon fill="#191970" stroke="#191970" points="600.2376,-167.0986 589.6614,-167.7278 598.3216,-173.8313 600.2376,-167.0986"/>
</g>
<!-- Node41 -->
<g id="node41" class="node">
<title>Node41</title>
<g id="a_node41"><a xlink:href="../../d6/dec/G4__KFParticle_8C.html#a71acb06a18c13a756dabacd73268a654" target="_top" xlink:title="KFParticle_Upsilon_Reco">
<polygon fill="none" stroke="#000000" points="671,-243.5 671,-263.5 809,-263.5 809,-243.5 671,-243.5"/>
<text text-anchor="middle" x="740" y="-250.5" font-family="FreeSans" font-size="10.00" fill="#000000">KFParticle_Upsilon_Reco</text>
</a>
</g>
</g>
<!-- Node35&#45;&gt;Node41 -->
<g id="edge41" class="edge">
<title>Node35&#45;&gt;Node41</title>
<path fill="none" stroke="#191970" d="M599.3463,-174.0937C610.4566,-177.6044 621.4546,-182.2781 631,-188.5 652.7487,-202.6763 645.2943,-220.2578 667,-234.5 672.4746,-238.0922 678.5955,-241.006 684.9012,-243.3693"/>
<polygon fill="#191970" stroke="#191970" points="600.1648,-170.6875 589.5876,-171.2983 598.2371,-177.4168 600.1648,-170.6875"/>
</g>
<!-- Node42 -->
<g id="node42" class="node">
<title>Node42</title>
<g id="a_node42"><a xlink:href="../../d6/dec/G4__KFParticle_8C.html#a86ebd84b08f013986376f92d34027d5c" target="_top" xlink:title="KFParticle_D0_Reco">
<polygon fill="none" stroke="#000000" points="683,-204.5 683,-224.5 797,-224.5 797,-204.5 683,-204.5"/>
<text text-anchor="middle" x="740" y="-211.5" font-family="FreeSans" font-size="10.00" fill="#000000">KFParticle_D0_Reco</text>
</a>
</g>
</g>
<!-- Node35&#45;&gt;Node42 -->
<g id="edge45" class="edge">
<title>Node35&#45;&gt;Node42</title>
<path fill="none" stroke="#191970" d="M599.713,-180.0198C632.4485,-188.0657 670.7474,-197.4789 699.0502,-204.4352"/>
<polygon fill="#191970" stroke="#191970" points="600.296,-176.559 589.7496,-177.571 598.6252,-183.3567 600.296,-176.559"/>
</g>
<!-- Node43 -->
<g id="node43" class="node">
<title>Node43</title>
<g id="a_node43"><a xlink:href="../../d6/dec/G4__KFParticle_8C.html#af7b0f7f3f0cb246035b84e117f531e61" target="_top" xlink:title="KFParticle_Lambdac_Reco">
<polygon fill="none" stroke="#000000" points="667,-282.5 667,-302.5 813,-302.5 813,-282.5 667,-282.5"/>
<text text-anchor="middle" x="740" y="-289.5" font-family="FreeSans" font-size="10.00" fill="#000000">KFParticle_Lambdac_Reco</text>
</a>
</g>
</g>
<!-- Node35&#45;&gt;Node43 -->
<g id="edge49" class="edge">
<title>Node35&#45;&gt;Node43</title>
<path fill="none" stroke="#191970" d="M599.3296,-171.5724C610.819,-175.3261 621.9533,-180.7341 631,-188.5 662.1298,-215.2226 635.9514,-246.6831 667,-273.5 671.1626,-277.0952 675.9242,-280.0222 680.9763,-282.4034"/>
<polygon fill="#191970" stroke="#191970" points="600.2104,-168.184 589.6331,-168.7929 598.2815,-174.913 600.2104,-168.184"/>
</g>
<!-- Node41&#45;&gt;Node16 -->
<g id="edge42" class="edge">
<title>Node41&#45;&gt;Node16</title>
<path fill="none" stroke="#191970" d="M791.856,-266.3495C799.0311,-268.5201 806.2501,-270.9166 813,-273.5 829.7067,-279.8941 832.414,-284.7988 849,-291.5 857.064,-294.7581 865.9124,-297.8147 874.2932,-300.4839"/>
<polygon fill="#191970" stroke="#191970" points="792.7264,-262.9578 782.1472,-263.5331 790.7762,-269.6806 792.7264,-262.9578"/>
</g>
<!-- Node41&#45;&gt;Node17 -->
<g id="edge43" class="edge">
<title>Node41&#45;&gt;Node17</title>
<path fill="none" stroke="#191970" d="M819.7404,-259.1453C830.552,-259.9108 841.4726,-260.6839 851.7953,-261.4147"/>
<polygon fill="#191970" stroke="#191970" points="819.6534,-255.6305 809.4312,-258.4155 819.159,-262.613 819.6534,-255.6305"/>
</g>
<!-- Node41&#45;&gt;Node18 -->
<g id="edge44" class="edge">
<title>Node41&#45;&gt;Node18</title>
<path fill="none" stroke="#191970" d="M793.4323,-241.2058C812.0431,-236.9237 832.9986,-232.1021 851.9303,-227.7461"/>
<polygon fill="#191970" stroke="#191970" points="792.611,-237.8033 783.6505,-243.4565 794.1807,-244.625 792.611,-237.8033"/>
</g>
<!-- Node42&#45;&gt;Node16 -->
<g id="edge46" class="edge">
<title>Node42&#45;&gt;Node16</title>
<path fill="none" stroke="#191970" d="M803.9573,-228.8458C807.1295,-230.5261 810.1686,-232.4031 813,-234.5 837.0788,-252.3323 825.2542,-273.2267 849,-291.5 853.7115,-295.1256 859.1272,-298.0671 864.7404,-300.4517"/>
<polygon fill="#191970" stroke="#191970" points="805.2755,-225.5999 794.7268,-224.6125 802.3573,-231.9626 805.2755,-225.5999"/>
</g>
<!-- Node42&#45;&gt;Node17 -->
<g id="edge47" class="edge">
<title>Node42&#45;&gt;Node17</title>
<path fill="none" stroke="#191970" d="M787.7217,-227.2539C796.1614,-229.6007 804.8524,-232.0765 813,-234.5 828.6857,-239.1658 845.7102,-244.5328 861.0307,-249.4757"/>
<polygon fill="#191970" stroke="#191970" points="788.5478,-223.8511 777.9774,-224.569 786.6883,-230.5997 788.5478,-223.8511"/>
</g>
<!-- Node42&#45;&gt;Node18 -->
<g id="edge48" class="edge">
<title>Node42&#45;&gt;Node18</title>
<path fill="none" stroke="#191970" d="M807.4337,-214.5C822.1497,-214.5 837.5934,-214.5 851.8859,-214.5"/>
<polygon fill="#191970" stroke="#191970" points="807.385,-211.0001 797.385,-214.5 807.3849,-218.0001 807.385,-211.0001"/>
</g>
<!-- Node44&#45;&gt;Node36 -->
<g id="edge51" class="edge">
<title>Node44&#45;&gt;Node36</title>
<path fill="none" stroke="#191970" d="M599.8068,-199.9034C627.6454,-193.8661 659.4943,-186.9591 685.7931,-181.2557"/>
<polygon fill="#191970" stroke="#191970" points="598.7806,-196.5445 589.7496,-202.0844 600.2642,-203.3854 598.7806,-196.5445"/>
</g>
<!-- Node44&#45;&gt;Node37 -->
<g id="edge52" class="edge">
<title>Node44&#45;&gt;Node37</title>
<path fill="none" stroke="#191970" d="M599.3007,-203.0813C610.4159,-199.4737 621.4274,-194.7316 631,-188.5 652.465,-174.5267 646.0509,-158.2355 667,-143.5 672.6977,-139.4923 679.0927,-136.0812 685.6665,-133.1897"/>
<polygon fill="#191970" stroke="#191970" points="598.1362,-199.7758 589.5396,-205.9685 600.1217,-206.4883 598.1362,-199.7758"/>
</g>
<!-- Node44&#45;&gt;Node38 -->
<g id="edge53" class="edge">
<title>Node44&#45;&gt;Node38</title>
<path fill="none" stroke="#191970" d="M599.4244,-206.0727C610.9571,-202.1754 622.0827,-196.5617 631,-188.5 664.8022,-157.941 634.3175,-124.2538 667,-92.5 672.3805,-87.2724 678.9002,-83.1355 685.8033,-79.8624"/>
<polygon fill="#191970" stroke="#191970" points="598.2749,-202.7628 589.6807,-208.9588 600.263,-209.4745 598.2749,-202.7628"/>
</g>
<!-- Node44&#45;&gt;Node39 -->
<g id="edge54" class="edge">
<title>Node44&#45;&gt;Node39</title>
<path fill="none" stroke="#191970" d="M599.6298,-207.109C611.3056,-203.132 622.4309,-197.2239 631,-188.5 678.1352,-140.5133 621.6194,-91.1492 667,-41.5 672.242,-35.7649 678.8559,-31.3453 685.9509,-27.9394"/>
<polygon fill="#191970" stroke="#191970" points="598.345,-203.8384 589.7368,-210.0148 600.3178,-210.5547 598.345,-203.8384"/>
</g>
<!-- Node44&#45;&gt;Node40 -->
<g id="edge55" class="edge">
<title>Node44&#45;&gt;Node40</title>
<path fill="none" stroke="#191970" d="M599.16,-223.8342C610.6143,-227.6517 621.7796,-233.0039 631,-240.5 658.7605,-263.0689 640.0684,-288.9482 667,-312.5 670.9328,-315.9393 675.3616,-318.9108 680.0439,-321.4774"/>
<polygon fill="#191970" stroke="#191970" points="600.0891,-220.4592 589.5068,-220.9752 598.1012,-227.171 600.0891,-220.4592"/>
</g>
<!-- Node44&#45;&gt;Node41 -->
<g id="edge56" class="edge">
<title>Node44&#45;&gt;Node41</title>
<path fill="none" stroke="#191970" d="M599.8888,-227.1659C627.9581,-232.4415 660.0925,-238.4812 686.5004,-243.4447"/>
<polygon fill="#191970" stroke="#191970" points="600.224,-223.6676 589.7496,-225.2602 598.9309,-230.5472 600.224,-223.6676"/>
</g>
<!-- Node44&#45;&gt;Node42 -->
<g id="edge57" class="edge">
<title>Node44&#45;&gt;Node42</title>
<path fill="none" stroke="#191970" d="M599.8331,-214.5C626.6652,-214.5 657.2192,-214.5 682.9373,-214.5"/>
<polygon fill="#191970" stroke="#191970" points="599.7496,-211.0001 589.7496,-214.5 599.7495,-218.0001 599.7496,-211.0001"/>
</g>
<!-- Node44&#45;&gt;Node43 -->
<g id="edge58" class="edge">
<title>Node44&#45;&gt;Node43</title>
<path fill="none" stroke="#191970" d="M599.1472,-227.3735C610.1443,-230.8132 621.1562,-235.1222 631,-240.5 650.0479,-250.9062 647.9342,-263.1267 667,-273.5 673.672,-277.1301 681.0679,-280.0906 688.5171,-282.4985"/>
<polygon fill="#191970" stroke="#191970" points="600.0965,-224.0046 589.5167,-224.5696 598.1396,-230.7256 600.0965,-224.0046"/>
</g>
</g>
</svg>
