<?xml version="1.0" encoding="UTF-8" standalone="no"?>
<!DOCTYPE svg PUBLIC "-//W3C//DTD SVG 1.1//EN"
 "http://www.w3.org/Graphics/SVG/1.1/DTD/svg11.dtd">
<!-- Generated by graphviz version 2.40.1 (20161225.0304)
 -->
<!-- Title: acts/blob/sPHENIX/Core/include/Acts/Propagator/EigenStepper.ipp Pages: 1 -->
<svg width="3444pt" height="719pt"
 viewBox="0.00 0.00 3444.00 719.00" xmlns="http://www.w3.org/2000/svg" xmlns:xlink="http://www.w3.org/1999/xlink">
<g id="graph0" class="graph" transform="scale(1 1) rotate(0) translate(4 715)">
<title>acts/blob/sPHENIX/Core/include/Acts/Propagator/EigenStepper.ipp</title>
<!-- Node1 -->
<g id="node1" class="node">
<title>Node1</title>
<polygon fill="#bfbfbf" stroke="#000000" points="2795.5,-666.5 2795.5,-710.5 2936.5,-710.5 2936.5,-666.5 2795.5,-666.5"/>
<text text-anchor="start" x="2803.5" y="-697.5" font-family="FreeSans" font-size="10.00" fill="#000000">acts/blob/sPHENIX/Core</text>
<text text-anchor="start" x="2803.5" y="-685.5" font-family="FreeSans" font-size="10.00" fill="#000000">/include/Acts/Propagator</text>
<text text-anchor="middle" x="2866" y="-673.5" font-family="FreeSans" font-size="10.00" fill="#000000">/EigenStepper.ipp</text>
</g>
<!-- Node2 -->
<g id="node2" class="node">
<title>Node2</title>
<g id="a_node2"><a xlink:href="../../df/d57/TransformationBoundToFree_8hpp.html" target="_top" xlink:title="Acts/EventData/detail\l/TransformationBoundToFree.hpp">
<polygon fill="none" stroke="#000000" points="3027,-252.5 3027,-284.5 3211,-284.5 3211,-252.5 3027,-252.5"/>
<text text-anchor="start" x="3035" y="-271.5" font-family="FreeSans" font-size="10.00" fill="#000000">Acts/EventData/detail</text>
<text text-anchor="middle" x="3119" y="-259.5" font-family="FreeSans" font-size="10.00" fill="#000000">/TransformationBoundToFree.hpp</text>
</a>
</g>
</g>
<!-- Node1&#45;&gt;Node2 -->
<g id="edge1" class="edge">
<title>Node1&#45;&gt;Node2</title>
<path fill="none" stroke="#191970" d="M2936.5537,-683.2532C3071.5208,-671.2663 3353,-636.0159 3353,-550.5 3353,-550.5 3353,-550.5 3353,-412.5 3353,-343.5347 3278.3652,-306.5378 3213.3969,-287.397"/>
<polygon fill="#191970" stroke="#191970" points="3214.0547,-283.9457 3203.4794,-284.5885 3212.1473,-290.6809 3214.0547,-283.9457"/>
</g>
<!-- Node11 -->
<g id="node11" class="node">
<title>Node11</title>
<g id="a_node11"><a xlink:href="../../dc/d18/ConstrainedStep_8hpp.html" target="_top" xlink:title="Acts/Propagator/Constrained\lStep.hpp">
<polygon fill="none" stroke="#000000" points="364.5,-252.5 364.5,-284.5 525.5,-284.5 525.5,-252.5 364.5,-252.5"/>
<text text-anchor="start" x="372.5" y="-271.5" font-family="FreeSans" font-size="10.00" fill="#000000">Acts/Propagator/Constrained</text>
<text text-anchor="middle" x="445" y="-259.5" font-family="FreeSans" font-size="10.00" fill="#000000">Step.hpp</text>
</a>
</g>
</g>
<!-- Node1&#45;&gt;Node11 -->
<g id="edge10" class="edge">
<title>Node1&#45;&gt;Node11</title>
<path fill="none" stroke="#191970" d="M2795.1699,-688.011C2368.8462,-684.7305 159.3164,-662.842 62,-561 -53.152,-440.493 242.8601,-330.4069 379.8371,-287.5007"/>
<polygon fill="#191970" stroke="#191970" points="380.9032,-290.8346 389.4168,-284.5284 378.8287,-284.1491 380.9032,-290.8346"/>
</g>
<!-- Node20 -->
<g id="node20" class="node">
<title>Node20</title>
<g id="a_node20"><a xlink:href="../../d8/d07/CovarianceEngine_8hpp.html" target="_top" xlink:title="Acts/Propagator/detail\l/CovarianceEngine.hpp">
<polygon fill="none" stroke="#000000" points="2798.5,-597.5 2798.5,-629.5 2933.5,-629.5 2933.5,-597.5 2798.5,-597.5"/>
<text text-anchor="start" x="2806.5" y="-616.5" font-family="FreeSans" font-size="10.00" fill="#000000">Acts/Propagator/detail</text>
<text text-anchor="middle" x="2866" y="-604.5" font-family="FreeSans" font-size="10.00" fill="#000000">/CovarianceEngine.hpp</text>
</a>
</g>
</g>
<!-- Node1&#45;&gt;Node20 -->
<g id="edge20" class="edge">
<title>Node1&#45;&gt;Node20</title>
<path fill="none" stroke="#191970" d="M2866,-666.4032C2866,-658.0476 2866,-648.4571 2866,-639.7565"/>
<polygon fill="#191970" stroke="#191970" points="2869.5001,-639.7277 2866,-629.7277 2862.5001,-639.7277 2869.5001,-639.7277"/>
</g>
<!-- Node3 -->
<g id="node3" class="node">
<title>Node3</title>
<g id="a_node3"><a xlink:href="../../d7/d3a/TrackParametrization_8hpp.html" target="_top" xlink:title="Acts/Definitions/TrackParametrization.hpp">
<polygon fill="none" stroke="#000000" points="2362.5,-120.5 2362.5,-140.5 2591.5,-140.5 2591.5,-120.5 2362.5,-120.5"/>
<text text-anchor="middle" x="2477" y="-127.5" font-family="FreeSans" font-size="10.00" fill="#000000">Acts/Definitions/TrackParametrization.hpp</text>
</a>
</g>
</g>
<!-- Node2&#45;&gt;Node3 -->
<g id="edge2" class="edge">
<title>Node2&#45;&gt;Node3</title>
<path fill="none" stroke="#191970" d="M3110.0848,-252.2044C3098.0404,-231.9968 3074.5186,-198.3455 3044,-183 2955.7583,-138.6298 2699.2074,-157.5174 2601,-147 2586.8761,-145.4874 2571.8751,-143.6707 2557.367,-141.804"/>
<polygon fill="#191970" stroke="#191970" points="2557.7871,-138.3292 2547.4185,-140.5067 2556.882,-145.2704 2557.7871,-138.3292"/>
</g>
<!-- Node8 -->
<g id="node8" class="node">
<title>Node8</title>
<g id="a_node8"><a xlink:href="../../d1/db8/GeometryContext_8hpp.html" target="_top" xlink:title="Acts/Geometry/GeometryContext.hpp">
<polygon fill="none" stroke="#000000" points="2794,-189.5 2794,-209.5 3002,-209.5 3002,-189.5 2794,-189.5"/>
<text text-anchor="middle" x="2898" y="-196.5" font-family="FreeSans" font-size="10.00" fill="#000000">Acts/Geometry/GeometryContext.hpp</text>
</a>
</g>
</g>
<!-- Node2&#45;&gt;Node8 -->
<g id="edge7" class="edge">
<title>Node2&#45;&gt;Node8</title>
<path fill="none" stroke="#191970" d="M3067.7427,-252.4966C3028.9305,-240.3788 2976.2741,-223.9385 2939.9515,-212.598"/>
<polygon fill="#191970" stroke="#191970" points="2940.7535,-209.1818 2930.1648,-209.5424 2938.6673,-215.8637 2940.7535,-209.1818"/>
</g>
<!-- Node4 -->
<g id="node4" class="node">
<title>Node4</title>
<g id="a_node4"><a xlink:href="../../da/dd2/Algebra_8hpp.html" target="_top" xlink:title="Acts/Definitions/Algebra.hpp">
<polygon fill="none" stroke="#000000" points="1542,-57.5 1542,-77.5 1704,-77.5 1704,-57.5 1542,-57.5"/>
<text text-anchor="middle" x="1623" y="-64.5" font-family="FreeSans" font-size="10.00" fill="#000000">Acts/Definitions/Algebra.hpp</text>
</a>
</g>
</g>
<!-- Node3&#45;&gt;Node4 -->
<g id="edge3" class="edge">
<title>Node3&#45;&gt;Node4</title>
<path fill="none" stroke="#191970" d="M2380.7891,-120.4817C2357.6206,-118.2109 2332.9367,-115.9089 2310,-114 2096.7984,-96.2565 1845.9449,-80.5963 1714.2745,-72.778"/>
<polygon fill="#191970" stroke="#191970" points="1714.4186,-69.2805 1704.2291,-72.183 1714.0046,-76.2682 1714.4186,-69.2805"/>
</g>
<!-- Node7 -->
<g id="node7" class="node">
<title>Node7</title>
<polygon fill="none" stroke="#bfbfbf" points="2670,-57.5 2670,-77.5 2740,-77.5 2740,-57.5 2670,-57.5"/>
<text text-anchor="middle" x="2705" y="-64.5" font-family="FreeSans" font-size="10.00" fill="#000000">type_traits</text>
</g>
<!-- Node3&#45;&gt;Node7 -->
<g id="edge6" class="edge">
<title>Node3&#45;&gt;Node7</title>
<path fill="none" stroke="#191970" d="M2513.3794,-120.4478C2553.1857,-109.4487 2617.0377,-91.8054 2659.9738,-79.9415"/>
<polygon fill="#191970" stroke="#191970" points="2661.1671,-83.243 2669.8737,-77.206 2659.3027,-76.4958 2661.1671,-83.243"/>
</g>
<!-- Node5 -->
<g id="node5" class="node">
<title>Node5</title>
<polygon fill="none" stroke="#bfbfbf" points="1536.5,-.5 1536.5,-20.5 1607.5,-20.5 1607.5,-.5 1536.5,-.5"/>
<text text-anchor="middle" x="1572" y="-7.5" font-family="FreeSans" font-size="10.00" fill="#000000">Eigen/Core</text>
</g>
<!-- Node4&#45;&gt;Node5 -->
<g id="edge4" class="edge">
<title>Node4&#45;&gt;Node5</title>
<path fill="none" stroke="#191970" d="M1613.8822,-57.3095C1606.6299,-49.204 1596.3117,-37.672 1587.7318,-28.0826"/>
<polygon fill="#191970" stroke="#191970" points="1590.3152,-25.7209 1581.0388,-20.6022 1585.0985,-30.3885 1590.3152,-25.7209"/>
</g>
<!-- Node6 -->
<g id="node6" class="node">
<title>Node6</title>
<polygon fill="none" stroke="#bfbfbf" points="1626,-.5 1626,-20.5 1724,-20.5 1724,-.5 1626,-.5"/>
<text text-anchor="middle" x="1675" y="-7.5" font-family="FreeSans" font-size="10.00" fill="#000000">Eigen/Geometry</text>
</g>
<!-- Node4&#45;&gt;Node6 -->
<g id="edge5" class="edge">
<title>Node4&#45;&gt;Node6</title>
<path fill="none" stroke="#191970" d="M1632.2966,-57.3095C1639.6911,-49.204 1650.2116,-37.672 1658.9598,-28.0826"/>
<polygon fill="#191970" stroke="#191970" points="1661.63,-30.3488 1665.7839,-20.6022 1656.4586,-25.631 1661.63,-30.3488"/>
</g>
<!-- Node9 -->
<g id="node9" class="node">
<title>Node9</title>
<g id="a_node9"><a xlink:href="../../d2/d59/ContextType_8hpp.html" target="_top" xlink:title="Acts/Utilities/detail\l/ContextType.hpp">
<polygon fill="none" stroke="#000000" points="3111.5,-114.5 3111.5,-146.5 3222.5,-146.5 3222.5,-114.5 3111.5,-114.5"/>
<text text-anchor="start" x="3119.5" y="-133.5" font-family="FreeSans" font-size="10.00" fill="#000000">Acts/Utilities/detail</text>
<text text-anchor="middle" x="3167" y="-121.5" font-family="FreeSans" font-size="10.00" fill="#000000">/ContextType.hpp</text>
</a>
</g>
</g>
<!-- Node8&#45;&gt;Node9 -->
<g id="edge8" class="edge">
<title>Node8&#45;&gt;Node9</title>
<path fill="none" stroke="#191970" d="M2937.1149,-189.4668C2980.2363,-178.4059 3050.3074,-160.4323 3101.7698,-147.2319"/>
<polygon fill="#191970" stroke="#191970" points="3102.6591,-150.6172 3111.4759,-144.7422 3100.9198,-143.8367 3102.6591,-150.6172"/>
</g>
<!-- Node10 -->
<g id="node10" class="node">
<title>Node10</title>
<polygon fill="none" stroke="#bfbfbf" points="3234.5,-57.5 3234.5,-77.5 3269.5,-77.5 3269.5,-57.5 3234.5,-57.5"/>
<text text-anchor="middle" x="3252" y="-64.5" font-family="FreeSans" font-size="10.00" fill="#000000">any</text>
</g>
<!-- Node9&#45;&gt;Node10 -->
<g id="edge9" class="edge">
<title>Node9&#45;&gt;Node10</title>
<path fill="none" stroke="#191970" d="M3188.8896,-114.2759C3201.5989,-104.8561 3217.5527,-93.0315 3230.2398,-83.6281"/>
<polygon fill="#191970" stroke="#191970" points="3232.4715,-86.3306 3238.4213,-77.5642 3228.3033,-80.7069 3232.4715,-86.3306"/>
</g>
<!-- Node11&#45;&gt;Node4 -->
<g id="edge11" class="edge">
<title>Node11&#45;&gt;Node4</title>
<path fill="none" stroke="#191970" d="M364.4536,-258.7208C266.6046,-246.4525 113.4316,-225.8335 105,-216 95.4532,-204.8659 96.7012,-195.093 105,-183 153.2434,-112.6999 200.4604,-131.049 284,-114 405.2161,-89.2619 1249.709,-73.5264 1531.6217,-68.9152"/>
<polygon fill="#191970" stroke="#191970" points="1531.8714,-72.4117 1541.8131,-68.7493 1531.7574,-65.4126 1531.8714,-72.4117"/>
</g>
<!-- Node12 -->
<g id="node12" class="node">
<title>Node12</title>
<polygon fill="none" stroke="#bfbfbf" points="573.5,-189.5 573.5,-209.5 638.5,-209.5 638.5,-189.5 573.5,-189.5"/>
<text text-anchor="middle" x="606" y="-196.5" font-family="FreeSans" font-size="10.00" fill="#000000">algorithm</text>
</g>
<!-- Node11&#45;&gt;Node12 -->
<g id="edge12" class="edge">
<title>Node11&#45;&gt;Node12</title>
<path fill="none" stroke="#191970" d="M482.3413,-252.4966C509.688,-240.7766 546.4691,-225.0133 572.7944,-213.731"/>
<polygon fill="#191970" stroke="#191970" points="574.5177,-216.8004 582.3304,-209.6441 571.7602,-210.3664 574.5177,-216.8004"/>
</g>
<!-- Node13 -->
<g id="node13" class="node">
<title>Node13</title>
<polygon fill="none" stroke="#bfbfbf" points="512.5,-189.5 512.5,-209.5 555.5,-209.5 555.5,-189.5 512.5,-189.5"/>
<text text-anchor="middle" x="534" y="-196.5" font-family="FreeSans" font-size="10.00" fill="#000000">array</text>
</g>
<!-- Node11&#45;&gt;Node13 -->
<g id="edge13" class="edge">
<title>Node11&#45;&gt;Node13</title>
<path fill="none" stroke="#191970" d="M465.6421,-252.4966C479.7603,-241.551 498.4273,-227.0789 512.6867,-216.0238"/>
<polygon fill="#191970" stroke="#191970" points="515.157,-218.5373 520.9156,-209.6441 510.868,-213.0052 515.157,-218.5373"/>
</g>
<!-- Node14 -->
<g id="node14" class="node">
<title>Node14</title>
<polygon fill="none" stroke="#bfbfbf" points="381.5,-120.5 381.5,-140.5 434.5,-140.5 434.5,-120.5 381.5,-120.5"/>
<text text-anchor="middle" x="408" y="-127.5" font-family="FreeSans" font-size="10.00" fill="#000000">cassert</text>
</g>
<!-- Node11&#45;&gt;Node14 -->
<g id="edge14" class="edge">
<title>Node11&#45;&gt;Node14</title>
<path fill="none" stroke="#191970" d="M440.6832,-252.3996C433.8843,-227.0415 420.6982,-177.861 413.3227,-150.3521"/>
<polygon fill="#191970" stroke="#191970" points="416.6915,-149.4017 410.7212,-140.6492 409.9303,-151.2145 416.6915,-149.4017"/>
</g>
<!-- Node15 -->
<g id="node15" class="node">
<title>Node15</title>
<polygon fill="none" stroke="#bfbfbf" points="2610,-120.5 2610,-140.5 2658,-140.5 2658,-120.5 2610,-120.5"/>
<text text-anchor="middle" x="2634" y="-127.5" font-family="FreeSans" font-size="10.00" fill="#000000">cmath</text>
</g>
<!-- Node11&#45;&gt;Node15 -->
<g id="edge15" class="edge">
<title>Node11&#45;&gt;Node15</title>
<path fill="none" stroke="#191970" d="M525.5301,-259.1894C552.6477,-256.4026 583.101,-253.6516 611,-252 819.1185,-239.6796 2286.2378,-272.2107 2487,-216 2536.5122,-202.1373 2586.6891,-167.5676 2613.7129,-146.8796"/>
<polygon fill="#191970" stroke="#191970" points="2615.9105,-149.6043 2621.6431,-140.6944 2611.6054,-144.0847 2615.9105,-149.6043"/>
</g>
<!-- Node16 -->
<g id="node16" class="node">
<title>Node16</title>
<polygon fill="none" stroke="#bfbfbf" points="538.5,-120.5 538.5,-140.5 595.5,-140.5 595.5,-120.5 538.5,-120.5"/>
<text text-anchor="middle" x="567" y="-127.5" font-family="FreeSans" font-size="10.00" fill="#000000">iomanip</text>
</g>
<!-- Node11&#45;&gt;Node16 -->
<g id="edge16" class="edge">
<title>Node11&#45;&gt;Node16</title>
<path fill="none" stroke="#191970" d="M446.0429,-252.3008C448.0074,-233.7157 453.6713,-203.2094 470,-183 485.0994,-164.3121 508.6984,-151.3315 528.8384,-142.9528"/>
<polygon fill="#191970" stroke="#191970" points="530.3636,-146.1143 538.3951,-139.2045 527.8075,-139.5976 530.3636,-146.1143"/>
</g>
<!-- Node17 -->
<g id="node17" class="node">
<title>Node17</title>
<polygon fill="none" stroke="#bfbfbf" points="891,-189.5 891,-209.5 935,-209.5 935,-189.5 891,-189.5"/>
<text text-anchor="middle" x="913" y="-196.5" font-family="FreeSans" font-size="10.00" fill="#000000">limits</text>
</g>
<!-- Node11&#45;&gt;Node17 -->
<g id="edge17" class="edge">
<title>Node11&#45;&gt;Node17</title>
<path fill="none" stroke="#191970" d="M525.679,-256.969C598.8592,-246.4617 709.7004,-230.4271 806,-216 831.125,-212.2359 859.5469,-207.8469 880.7803,-204.5422"/>
<polygon fill="#191970" stroke="#191970" points="881.5347,-207.9669 890.8762,-202.9683 880.4564,-201.0505 881.5347,-207.9669"/>
</g>
<!-- Node18 -->
<g id="node18" class="node">
<title>Node18</title>
<polygon fill="none" stroke="#bfbfbf" points="1461.5,-189.5 1461.5,-209.5 1518.5,-209.5 1518.5,-189.5 1461.5,-189.5"/>
<text text-anchor="middle" x="1490" y="-196.5" font-family="FreeSans" font-size="10.00" fill="#000000">ostream</text>
</g>
<!-- Node11&#45;&gt;Node18 -->
<g id="edge18" class="edge">
<title>Node11&#45;&gt;Node18</title>
<path fill="none" stroke="#191970" d="M525.5578,-259.6108C552.6774,-256.8535 583.1248,-254.0134 611,-252 964.662,-226.4548 1056.0458,-259.1003 1408,-216 1422.2426,-214.2558 1437.7071,-211.3999 1451.3283,-208.5502"/>
<polygon fill="#191970" stroke="#191970" points="1452.2978,-211.9217 1461.3345,-206.3908 1450.8211,-205.0792 1452.2978,-211.9217"/>
</g>
<!-- Node19 -->
<g id="node19" class="node">
<title>Node19</title>
<polygon fill="none" stroke="#bfbfbf" points="699,-120.5 699,-140.5 755,-140.5 755,-120.5 699,-120.5"/>
<text text-anchor="middle" x="727" y="-127.5" font-family="FreeSans" font-size="10.00" fill="#000000">sstream</text>
</g>
<!-- Node11&#45;&gt;Node19 -->
<g id="edge19" class="edge">
<title>Node11&#45;&gt;Node19</title>
<path fill="none" stroke="#191970" d="M451.77,-252.2324C460.7612,-232.6952 478.5294,-200.3878 504,-183 533.7802,-162.6702 633.24,-144.8023 688.7383,-136.107"/>
<polygon fill="#191970" stroke="#191970" points="689.5405,-139.5248 698.8905,-134.5419 688.4739,-132.6065 689.5405,-139.5248"/>
</g>
<!-- Node20&#45;&gt;Node3 -->
<g id="edge25" class="edge">
<title>Node20&#45;&gt;Node3</title>
<path fill="none" stroke="#191970" d="M2889.4832,-597.3001C2917.6154,-575.7744 2961,-534.8949 2961,-487.5 2961,-487.5 2961,-487.5 2961,-412.5 2961,-360.3037 3046.2573,-221.4887 3011,-183 2980.11,-149.2788 2646.4548,-152.0172 2601,-147 2587.1906,-145.4757 2572.5396,-143.6829 2558.3299,-141.8509"/>
<polygon fill="#191970" stroke="#191970" points="2558.4482,-138.3368 2548.0794,-140.5133 2557.5424,-145.2779 2558.4482,-138.3368"/>
</g>
<!-- Node20&#45;&gt;Node4 -->
<g id="edge24" class="edge">
<title>Node20&#45;&gt;Node4</title>
<path fill="none" stroke="#191970" d="M2798.329,-612.8782C2464.9861,-609.6769 995.3267,-593.9152 539,-561 291.1628,-543.1233 0,-660.9811 0,-412.5 0,-412.5 0,-412.5 0,-199.5 0,-143.3534 41.0034,-135.1849 93,-114 159.7426,-86.8071 1212.2559,-72.3076 1531.748,-68.5173"/>
<polygon fill="#191970" stroke="#191970" points="1531.9364,-72.0155 1541.8944,-68.3977 1531.8538,-65.016 1531.9364,-72.0155"/>
</g>
<!-- Node20&#45;&gt;Node8 -->
<g id="edge120" class="edge">
<title>Node20&#45;&gt;Node8</title>
<path fill="none" stroke="#191970" d="M2920.1549,-597.4587C2939.731,-589.3004 2960.5471,-577.5194 2975,-561 2997.6275,-535.1372 2999,-521.8641 2999,-487.5 2999,-487.5 2999,-487.5 2999,-412.5 2999,-333.6474 2941.7892,-252.8351 2913.4841,-217.6785"/>
<polygon fill="#191970" stroke="#191970" points="2916.0195,-215.2513 2906.9631,-209.753 2910.6141,-219.6989 2916.0195,-215.2513"/>
</g>
<!-- Node20&#45;&gt;Node15 -->
<g id="edge123" class="edge">
<title>Node20&#45;&gt;Node15</title>
<path fill="none" stroke="#191970" d="M2933.8683,-606.8313C3050.6038,-593.4641 3277,-558.4004 3277,-487.5 3277,-487.5 3277,-487.5 3277,-268.5 3277,-205.5217 3222.6425,-205.9638 3164,-183 3072.9447,-147.3437 2770.5476,-134.7686 2668.2015,-131.4749"/>
<polygon fill="#191970" stroke="#191970" points="2668.2099,-127.9735 2658.1055,-131.1595 2667.9913,-134.9701 2668.2099,-127.9735"/>
</g>
<!-- Node21 -->
<g id="node21" class="node">
<title>Node21</title>
<g id="a_node21"><a xlink:href="../../d0/d75/ReferenceWrapperAnyCompat_8hpp.html" target="_top" xlink:title="Acts/Utilities/detail\l/ReferenceWrapperAnyCompat.hpp">
<polygon fill="none" stroke="#000000" points="3240,-114.5 3240,-146.5 3436,-146.5 3436,-114.5 3240,-114.5"/>
<text text-anchor="start" x="3248" y="-133.5" font-family="FreeSans" font-size="10.00" fill="#000000">Acts/Utilities/detail</text>
<text text-anchor="middle" x="3338" y="-121.5" font-family="FreeSans" font-size="10.00" fill="#000000">/ReferenceWrapperAnyCompat.hpp</text>
</a>
</g>
</g>
<!-- Node20&#45;&gt;Node21 -->
<g id="edge21" class="edge">
<title>Node20&#45;&gt;Node21</title>
<path fill="none" stroke="#191970" d="M2933.706,-608.6009C3059.1382,-597.6519 3315,-565.7301 3315,-487.5 3315,-487.5 3315,-487.5 3315,-268.5 3315,-229.0459 3324.2602,-184.0995 3331.029,-156.5157"/>
<polygon fill="#191970" stroke="#191970" points="3334.5027,-157.0556 3333.5654,-146.5023 3327.717,-155.3368 3334.5027,-157.0556"/>
</g>
<!-- Node22 -->
<g id="node22" class="node">
<title>Node22</title>
<g id="a_node22"><a xlink:href="../../d8/d81/TrackParameters_8hpp.html" target="_top" xlink:title="Acts/EventData/TrackParameters.hpp">
<polygon fill="none" stroke="#000000" points="2474.5,-540.5 2474.5,-560.5 2679.5,-560.5 2679.5,-540.5 2474.5,-540.5"/>
<text text-anchor="middle" x="2577" y="-547.5" font-family="FreeSans" font-size="10.00" fill="#000000">Acts/EventData/TrackParameters.hpp</text>
</a>
</g>
</g>
<!-- Node20&#45;&gt;Node22 -->
<g id="edge26" class="edge">
<title>Node20&#45;&gt;Node22</title>
<path fill="none" stroke="#191970" d="M2798.2423,-598.7293C2748.0383,-587.7852 2680.4234,-573.0456 2633.2057,-562.7524"/>
<polygon fill="#191970" stroke="#191970" points="2633.6723,-559.272 2623.1562,-560.5617 2632.1813,-566.1114 2633.6723,-559.272"/>
</g>
<!-- Node26 -->
<g id="node26" class="node">
<title>Node26</title>
<g id="a_node26"><a xlink:href="../../d3/db2/Result_8hpp.html" target="_top" xlink:title="Acts/Utilities/Result.hpp">
<polygon fill="none" stroke="#ff0000" points="2529.5,-258.5 2529.5,-278.5 2666.5,-278.5 2666.5,-258.5 2529.5,-258.5"/>
<text text-anchor="middle" x="2598" y="-265.5" font-family="FreeSans" font-size="10.00" fill="#000000">Acts/Utilities/Result.hpp</text>
</a>
</g>
</g>
<!-- Node20&#45;&gt;Node26 -->
<g id="edge122" class="edge">
<title>Node20&#45;&gt;Node26</title>
<path fill="none" stroke="#191970" d="M2870.0294,-597.3073C2875.6067,-573.4357 2885,-527.3202 2885,-487.5 2885,-487.5 2885,-487.5 2885,-412.5 2885,-319.0223 2761.8645,-286.2208 2676.9045,-274.7139"/>
<polygon fill="#191970" stroke="#191970" points="2677.1071,-271.2114 2666.7437,-273.4136 2676.2184,-278.1547 2677.1071,-271.2114"/>
</g>
<!-- Node28 -->
<g id="node28" class="node">
<title>Node28</title>
<polygon fill="none" stroke="#bfbfbf" points="2724,-189.5 2724,-209.5 2776,-209.5 2776,-189.5 2724,-189.5"/>
<text text-anchor="middle" x="2750" y="-196.5" font-family="FreeSans" font-size="10.00" fill="#000000">variant</text>
</g>
<!-- Node20&#45;&gt;Node28 -->
<g id="edge126" class="edge">
<title>Node20&#45;&gt;Node28</title>
<path fill="none" stroke="#191970" d="M2878.6501,-597.4388C2895.4428,-574.4584 2923,-530.2364 2923,-487.5 2923,-487.5 2923,-487.5 2923,-337.5 2923,-300.7747 2826.5182,-241.9394 2777.6583,-214.4988"/>
<polygon fill="#191970" stroke="#191970" points="2779.2843,-211.3983 2768.8434,-209.5988 2775.8832,-217.5166 2779.2843,-211.3983"/>
</g>
<!-- Node29 -->
<g id="node29" class="node">
<title>Node29</title>
<g id="a_node29"><a xlink:href="../../d8/ddd/Surface_8hpp.html" target="_top" xlink:title="Acts/Surfaces/Surface.hpp">
<polygon fill="none" stroke="#ff0000" points="1627,-327.5 1627,-347.5 1777,-347.5 1777,-327.5 1627,-327.5"/>
<text text-anchor="middle" x="1702" y="-334.5" font-family="FreeSans" font-size="10.00" fill="#000000">Acts/Surfaces/Surface.hpp</text>
</a>
</g>
</g>
<!-- Node20&#45;&gt;Node29 -->
<g id="edge121" class="edge">
<title>Node20&#45;&gt;Node29</title>
<path fill="none" stroke="#191970" d="M2798.1968,-611.7667C2575.7857,-605.8551 1880.2279,-585.4887 1839,-561 1760.3762,-514.2988 1720.7751,-403.2197 1707.3762,-357.5929"/>
<polygon fill="#191970" stroke="#191970" points="1710.673,-356.3883 1704.5891,-347.7144 1703.9361,-358.2891 1710.673,-356.3883"/>
</g>
<!-- Node41 -->
<g id="node41" class="node">
<title>Node41</title>
<polygon fill="none" stroke="#bfbfbf" points="300,-189.5 300,-209.5 342,-209.5 342,-189.5 300,-189.5"/>
<text text-anchor="middle" x="321" y="-196.5" font-family="FreeSans" font-size="10.00" fill="#000000">tuple</text>
</g>
<!-- Node20&#45;&gt;Node41 -->
<g id="edge125" class="edge">
<title>Node20&#45;&gt;Node41</title>
<path fill="none" stroke="#191970" d="M2798.4157,-612.2651C2372.3375,-604.2647 76,-557.8817 76,-487.5 76,-487.5 76,-487.5 76,-337.5 76,-294.3494 87.4806,-277.8918 122,-252 183.4352,-205.9197 219.0286,-242.7917 291,-216 292.4275,-215.4686 293.8698,-214.8783 295.3096,-214.2461"/>
<polygon fill="#191970" stroke="#191970" points="297.1847,-217.2233 304.593,-209.6491 294.0783,-210.9503 297.1847,-217.2233"/>
</g>
<!-- Node45 -->
<g id="node45" class="node">
<title>Node45</title>
<polygon fill="none" stroke="#bfbfbf" points="1173,-120.5 1173,-140.5 1239,-140.5 1239,-120.5 1173,-120.5"/>
<text text-anchor="middle" x="1206" y="-127.5" font-family="FreeSans" font-size="10.00" fill="#000000">functional</text>
</g>
<!-- Node20&#45;&gt;Node45 -->
<g id="edge124" class="edge">
<title>Node20&#45;&gt;Node45</title>
<path fill="none" stroke="#191970" d="M2798.356,-612.2152C2571.6671,-607.0244 1853,-583.0344 1853,-487.5 1853,-487.5 1853,-487.5 1853,-337.5 1853,-280.6958 1807.5162,-279.8363 1758,-252 1664.9695,-199.7014 1631.9963,-206.9707 1528,-183 1429.3886,-160.2705 1311.5826,-143.6958 1249.4051,-135.7558"/>
<polygon fill="#191970" stroke="#191970" points="1249.5468,-132.246 1239.187,-134.465 1248.6694,-139.1908 1249.5468,-132.246"/>
</g>
<!-- Node49 -->
<g id="node49" class="node">
<title>Node49</title>
<g id="a_node49"><a xlink:href="../../de/deb/CorrectedTransformationFreeToBound_8hpp.html" target="_top" xlink:title="Acts/EventData/detail\l/CorrectedTransformationFree\lToBound.hpp">
<polygon fill="none" stroke="#000000" points="1995.5,-390.5 1995.5,-434.5 2162.5,-434.5 2162.5,-390.5 1995.5,-390.5"/>
<text text-anchor="start" x="2003.5" y="-421.5" font-family="FreeSans" font-size="10.00" fill="#000000">Acts/EventData/detail</text>
<text text-anchor="start" x="2003.5" y="-409.5" font-family="FreeSans" font-size="10.00" fill="#000000">/CorrectedTransformationFree</text>
<text text-anchor="middle" x="2079" y="-397.5" font-family="FreeSans" font-size="10.00" fill="#000000">ToBound.hpp</text>
</a>
</g>
</g>
<!-- Node20&#45;&gt;Node49 -->
<g id="edge107" class="edge">
<title>Node20&#45;&gt;Node49</title>
<path fill="none" stroke="#191970" d="M2867.149,-597.1287C2868.2724,-566.8745 2865.7948,-502.4364 2828,-471 2788.2443,-437.9325 2415.5528,-439.0349 2364,-435 2300.182,-430.0052 2228.33,-424.3323 2172.7369,-419.9324"/>
<polygon fill="#191970" stroke="#191970" points="2172.7963,-416.4262 2162.5513,-419.1261 2172.2439,-423.4044 2172.7963,-416.4262"/>
</g>
<!-- Node21&#45;&gt;Node7 -->
<g id="edge23" class="edge">
<title>Node21&#45;&gt;Node7</title>
<path fill="none" stroke="#191970" d="M3239.8552,-114.9879C3237.2105,-114.6454 3234.5883,-114.3153 3232,-114 3054.2229,-92.3447 2841.5302,-76.7015 2750.2431,-70.4748"/>
<polygon fill="#191970" stroke="#191970" points="2750.4523,-66.9811 2740.2385,-69.7971 2749.9791,-73.965 2750.4523,-66.9811"/>
</g>
<!-- Node21&#45;&gt;Node10 -->
<g id="edge22" class="edge">
<title>Node21&#45;&gt;Node10</title>
<path fill="none" stroke="#191970" d="M3315.8529,-114.2759C3302.9941,-104.8561 3286.8526,-93.0315 3274.0162,-83.6281"/>
<polygon fill="#191970" stroke="#191970" points="3275.8738,-80.6503 3265.7384,-77.5642 3271.7371,-86.2973 3275.8738,-80.6503"/>
</g>
<!-- Node23 -->
<g id="node23" class="node">
<title>Node23</title>
<g id="a_node23"><a xlink:href="../../de/d46/GenericBoundTrackParameters_8hpp.html" target="_top" xlink:title="Acts/EventData/GenericBound\lTrackParameters.hpp">
<polygon fill="none" stroke="#ff0000" points="2373,-396.5 2373,-428.5 2543,-428.5 2543,-396.5 2373,-396.5"/>
<text text-anchor="start" x="2381" y="-415.5" font-family="FreeSans" font-size="10.00" fill="#000000">Acts/EventData/GenericBound</text>
<text text-anchor="middle" x="2458" y="-403.5" font-family="FreeSans" font-size="10.00" fill="#000000">TrackParameters.hpp</text>
</a>
</g>
</g>
<!-- Node22&#45;&gt;Node23 -->
<g id="edge27" class="edge">
<title>Node22&#45;&gt;Node23</title>
<path fill="none" stroke="#191970" d="M2474.3815,-542.3852C2421.0087,-535.8053 2363.5087,-524.1803 2347,-504 2323.7484,-475.5771 2363.8261,-449.6188 2402.1548,-432.6706"/>
<polygon fill="#191970" stroke="#191970" points="2403.9891,-435.6939 2411.822,-428.5598 2401.2498,-429.2521 2403.9891,-435.6939"/>
</g>
<!-- Node46 -->
<g id="node46" class="node">
<title>Node46</title>
<g id="a_node46"><a xlink:href="../../db/d68/GenericCurvilinearTrackParameters_8hpp.html" target="_top" xlink:title="Acts/EventData/GenericCurvilinear\lTrackParameters.hpp">
<polygon fill="none" stroke="#ff0000" points="2355.5,-471.5 2355.5,-503.5 2548.5,-503.5 2548.5,-471.5 2355.5,-471.5"/>
<text text-anchor="start" x="2363.5" y="-490.5" font-family="FreeSans" font-size="10.00" fill="#000000">Acts/EventData/GenericCurvilinear</text>
<text text-anchor="middle" x="2452" y="-478.5" font-family="FreeSans" font-size="10.00" fill="#000000">TrackParameters.hpp</text>
</a>
</g>
</g>
<!-- Node22&#45;&gt;Node46 -->
<g id="edge96" class="edge">
<title>Node22&#45;&gt;Node46</title>
<path fill="none" stroke="#191970" d="M2556.9166,-540.378C2539.8434,-531.7731 2514.7746,-519.1384 2493.423,-508.3772"/>
<polygon fill="#191970" stroke="#191970" points="2494.7314,-505.1172 2484.2261,-503.742 2491.5808,-511.3682 2494.7314,-505.1172"/>
</g>
<!-- Node47 -->
<g id="node47" class="node">
<title>Node47</title>
<g id="a_node47"><a xlink:href="../../d1/d03/GenericFreeTrackParameters_8hpp.html" target="_top" xlink:title="Acts/EventData/GenericFree\lTrackParameters.hpp">
<polygon fill="none" stroke="#ff0000" points="2108.5,-183.5 2108.5,-215.5 2267.5,-215.5 2267.5,-183.5 2108.5,-183.5"/>
<text text-anchor="start" x="2116.5" y="-202.5" font-family="FreeSans" font-size="10.00" fill="#000000">Acts/EventData/GenericFree</text>
<text text-anchor="middle" x="2188" y="-190.5" font-family="FreeSans" font-size="10.00" fill="#000000">TrackParameters.hpp</text>
</a>
</g>
</g>
<!-- Node22&#45;&gt;Node47 -->
<g id="edge98" class="edge">
<title>Node22&#45;&gt;Node47</title>
<path fill="none" stroke="#191970" d="M2577.9365,-540.4674C2579.7045,-524.89 2584.4511,-494.2598 2596,-471 2625.9135,-410.7536 2669.3426,-417.3331 2692,-354 2707.457,-310.794 2710.6055,-282.1353 2676,-252 2611.091,-195.4756 2381.1832,-225.9328 2277.7177,-215.8134"/>
<polygon fill="#191970" stroke="#191970" points="2277.8554,-212.3058 2267.5168,-214.622 2277.0433,-219.2585 2277.8554,-212.3058"/>
</g>
<!-- Node48 -->
<g id="node48" class="node">
<title>Node48</title>
<g id="a_node48"><a xlink:href="../../d0/db1/ParticleHypothesis_8hpp.html" target="_top" xlink:title="Acts/EventData/ParticleHypothesis.hpp">
<polygon fill="none" stroke="#ff0000" points="2605,-477.5 2605,-497.5 2819,-497.5 2819,-477.5 2605,-477.5"/>
<text text-anchor="middle" x="2712" y="-484.5" font-family="FreeSans" font-size="10.00" fill="#000000">Acts/EventData/ParticleHypothesis.hpp</text>
</a>
</g>
</g>
<!-- Node22&#45;&gt;Node48 -->
<g id="edge106" class="edge">
<title>Node22&#45;&gt;Node48</title>
<path fill="none" stroke="#191970" d="M2598.6901,-540.378C2621.0287,-529.9533 2656.0414,-513.614 2681.2355,-501.8568"/>
<polygon fill="#191970" stroke="#191970" points="2682.782,-504.9975 2690.3637,-497.5969 2679.8218,-498.6542 2682.782,-504.9975"/>
</g>
<!-- Node23&#45;&gt;Node7 -->
<g id="edge95" class="edge">
<title>Node23&#45;&gt;Node7</title>
<path fill="none" stroke="#191970" d="M2543.1247,-399.9517C2597.9841,-390.4995 2670.3254,-375.4593 2732,-354 2862.6563,-308.539 2938.0172,-333.5215 3011,-216 3073.583,-115.2249 2849.5099,-81.1658 2750.1369,-71.1721"/>
<polygon fill="#191970" stroke="#191970" points="2750.3637,-67.6778 2740.0734,-70.1996 2749.6903,-74.6453 2750.3637,-67.6778"/>
</g>
<!-- Node23&#45;&gt;Node14 -->
<g id="edge93" class="edge">
<title>Node23&#45;&gt;Node14</title>
<path fill="none" stroke="#191970" d="M2372.9357,-405.3431C2316.0724,-400.6734 2239.5793,-394.6115 2172,-390 1970.3542,-376.2401 494.7306,-431.9837 356,-285 337.0976,-264.9731 376.9846,-186.1103 397.202,-149.4383"/>
<polygon fill="#191970" stroke="#191970" points="400.2682,-151.1261 402.0948,-140.6899 394.1588,-147.7092 400.2682,-151.1261"/>
</g>
<!-- Node23&#45;&gt;Node15 -->
<g id="edge94" class="edge">
<title>Node23&#45;&gt;Node15</title>
<path fill="none" stroke="#191970" d="M2543.0803,-404.4265C2732.643,-385.5814 3176.5045,-336.378 3220,-285 3292.2941,-199.6044 3220.9608,-224.9836 3077,-183 3000.1058,-160.5752 2758.2675,-140.1145 2668.2252,-133.0835"/>
<polygon fill="#191970" stroke="#191970" points="2668.2586,-129.5757 2658.0182,-132.2934 2667.7183,-136.5548 2668.2586,-129.5757"/>
</g>
<!-- Node24 -->
<g id="node24" class="node">
<title>Node24</title>
<g id="a_node24"><a xlink:href="../../d7/d39/Tolerance_8hpp.html" target="_top" xlink:title="Acts/Definitions/Tolerance.hpp">
<polygon fill="none" stroke="#000000" points="1919.5,-258.5 1919.5,-278.5 2090.5,-278.5 2090.5,-258.5 1919.5,-258.5"/>
<text text-anchor="middle" x="2005" y="-265.5" font-family="FreeSans" font-size="10.00" fill="#000000">Acts/Definitions/Tolerance.hpp</text>
</a>
</g>
</g>
<!-- Node23&#45;&gt;Node24 -->
<g id="edge28" class="edge">
<title>Node23&#45;&gt;Node24</title>
<path fill="none" stroke="#191970" d="M2407.3537,-396.4005C2316.9467,-367.6619 2129.4781,-308.0692 2046.297,-281.6275"/>
<polygon fill="#191970" stroke="#191970" points="2047.2739,-278.2656 2036.6835,-278.5716 2045.1533,-284.9366 2047.2739,-278.2656"/>
</g>
<!-- Node25 -->
<g id="node25" class="node">
<title>Node25</title>
<g id="a_node25"><a xlink:href="../../d2/d86/TransformationFreeToBound_8hpp.html" target="_top" xlink:title="Acts/EventData/detail\l/TransformationFreeToBound.hpp">
<polygon fill="none" stroke="#000000" points="2499,-321.5 2499,-353.5 2683,-353.5 2683,-321.5 2499,-321.5"/>
<text text-anchor="start" x="2507" y="-340.5" font-family="FreeSans" font-size="10.00" fill="#000000">Acts/EventData/detail</text>
<text text-anchor="middle" x="2591" y="-328.5" font-family="FreeSans" font-size="10.00" fill="#000000">/TransformationFreeToBound.hpp</text>
</a>
</g>
</g>
<!-- Node23&#45;&gt;Node25 -->
<g id="edge31" class="edge">
<title>Node23&#45;&gt;Node25</title>
<path fill="none" stroke="#191970" d="M2486.5318,-396.4106C2506.1671,-385.3381 2532.444,-370.5203 2553.7315,-358.5161"/>
<polygon fill="#191970" stroke="#191970" points="2555.524,-361.5234 2562.5154,-353.5628 2552.0856,-355.4261 2555.524,-361.5234"/>
</g>
<!-- Node23&#45;&gt;Node29 -->
<g id="edge41" class="edge">
<title>Node23&#45;&gt;Node29</title>
<path fill="none" stroke="#191970" d="M2372.7468,-404.0423C2227.2773,-389.6108 1932.7653,-360.3934 1787.2786,-345.9602"/>
<polygon fill="#191970" stroke="#191970" points="1787.3619,-342.4513 1777.0652,-344.9469 1786.6708,-349.4172 1787.3619,-342.4513"/>
</g>
<!-- Node24&#45;&gt;Node4 -->
<g id="edge29" class="edge">
<title>Node24&#45;&gt;Node4</title>
<path fill="none" stroke="#191970" d="M1993.3314,-258.4299C1982.139,-248.3984 1965.1876,-232.196 1953,-216 1921.7745,-174.5047 1938.4176,-143.9606 1896,-114 1867.2383,-93.6849 1782.0105,-81.3939 1714.3518,-74.5955"/>
<polygon fill="#191970" stroke="#191970" points="1714.3741,-71.081 1704.081,-73.5916 1713.6931,-78.0478 1714.3741,-71.081"/>
</g>
<!-- Node24&#45;&gt;Node17 -->
<g id="edge30" class="edge">
<title>Node24&#45;&gt;Node17</title>
<path fill="none" stroke="#191970" d="M1919.2908,-262.3961C1871.7787,-259.1076 1811.6323,-255.101 1758,-252 1430.6007,-233.0699 1347.301,-248.8074 1021,-216 995.3748,-213.4236 966.5501,-208.9384 945.1287,-205.2941"/>
<polygon fill="#191970" stroke="#191970" points="945.7045,-201.8418 935.254,-203.5847 944.5104,-208.7392 945.7045,-201.8418"/>
</g>
<!-- Node25&#45;&gt;Node3 -->
<g id="edge34" class="edge">
<title>Node25&#45;&gt;Node3</title>
<path fill="none" stroke="#191970" d="M2634.6781,-321.3204C2650.6278,-313.0394 2666.9602,-301.2085 2676,-285 2683.1439,-272.1908 2682.108,-265.3343 2676,-252 2648.7378,-192.4847 2576.506,-159.6766 2526.9998,-143.5834"/>
<polygon fill="#191970" stroke="#191970" points="2528.0106,-140.2324 2517.4216,-140.5847 2525.9191,-146.9126 2528.0106,-140.2324"/>
</g>
<!-- Node25&#45;&gt;Node4 -->
<g id="edge32" class="edge">
<title>Node25&#45;&gt;Node4</title>
<path fill="none" stroke="#191970" d="M2498.875,-325.7151C2438.821,-316.9864 2359.0674,-303.4115 2290,-285 2203.191,-261.8591 2173.524,-267.6288 2100,-216 2051.7065,-182.0882 2066.8697,-142.1391 2015,-114 1964.7687,-86.7497 1813.622,-75.2698 1714.3614,-70.5777"/>
<polygon fill="#191970" stroke="#191970" points="1714.4741,-67.0793 1704.3243,-70.1179 1714.1537,-74.072 1714.4741,-67.0793"/>
</g>
<!-- Node25&#45;&gt;Node8 -->
<g id="edge35" class="edge">
<title>Node25&#45;&gt;Node8</title>
<path fill="none" stroke="#191970" d="M2647.2135,-321.4293C2677.3359,-312.1121 2714.7749,-299.3879 2747,-285 2793.6659,-264.1646 2844.7913,-233.3982 2873.9741,-215.0118"/>
<polygon fill="#191970" stroke="#191970" points="2876.0794,-217.821 2882.6446,-209.5054 2872.3267,-211.9119 2876.0794,-217.821"/>
</g>
<!-- Node25&#45;&gt;Node24 -->
<g id="edge33" class="edge">
<title>Node25&#45;&gt;Node24</title>
<path fill="none" stroke="#191970" d="M2498.824,-322.8943C2494.152,-322.2347 2489.5235,-321.5991 2485,-321 2351.9623,-303.3794 2197.6112,-287.2667 2100.6254,-277.6663"/>
<polygon fill="#191970" stroke="#191970" points="2100.8431,-274.1709 2090.5477,-276.6718 2100.1555,-281.1371 2100.8431,-274.1709"/>
</g>
<!-- Node25&#45;&gt;Node26 -->
<g id="edge36" class="edge">
<title>Node25&#45;&gt;Node26</title>
<path fill="none" stroke="#191970" d="M2592.6235,-321.4966C2593.6082,-311.7901 2594.8743,-299.3104 2595.9305,-288.8996"/>
<polygon fill="#191970" stroke="#191970" points="2599.4436,-288.9463 2596.9709,-278.6441 2592.4794,-288.2398 2599.4436,-288.9463"/>
</g>
<!-- Node26&#45;&gt;Node7 -->
<g id="edge39" class="edge">
<title>Node26&#45;&gt;Node7</title>
<path fill="none" stroke="#191970" d="M2618.0117,-258.4795C2634.4491,-249.3661 2657.3343,-234.5257 2672,-216 2701.9291,-178.1935 2705.953,-118.7796 2705.7992,-87.8091"/>
<polygon fill="#191970" stroke="#191970" points="2709.2979,-87.7048 2705.5938,-77.7786 2702.2994,-87.8482 2709.2979,-87.7048"/>
</g>
<!-- Node26&#45;&gt;Node19 -->
<g id="edge38" class="edge">
<title>Node26&#45;&gt;Node19</title>
<path fill="none" stroke="#191970" d="M2535.5206,-258.4861C2518.2244,-256.0215 2499.4181,-253.6259 2482,-252 2126.741,-218.8382 2033.8239,-262.0142 1680,-216 1611.4479,-207.0849 1596.4742,-192.4947 1528,-183 1271.295,-147.4051 1204.5535,-164.7357 946,-147 882.745,-142.661 809.2625,-136.997 765.529,-133.5601"/>
<polygon fill="#191970" stroke="#191970" points="765.5844,-130.0537 755.3404,-132.7574 765.0345,-137.0321 765.5844,-130.0537"/>
</g>
<!-- Node27 -->
<g id="node27" class="node">
<title>Node27</title>
<polygon fill="none" stroke="#bfbfbf" points="1948.5,-120.5 1948.5,-140.5 2005.5,-140.5 2005.5,-120.5 1948.5,-120.5"/>
<text text-anchor="middle" x="1977" y="-127.5" font-family="FreeSans" font-size="10.00" fill="#000000">optional</text>
</g>
<!-- Node26&#45;&gt;Node27 -->
<g id="edge37" class="edge">
<title>Node26&#45;&gt;Node27</title>
<path fill="none" stroke="#191970" d="M2531.5146,-258.4918C2515.332,-256.2082 2498.0598,-253.8979 2482,-252 2312.6484,-231.987 2260.1501,-274.5871 2100,-216 2058.2358,-200.7216 2017.3856,-167.7056 1994.8627,-147.4653"/>
<polygon fill="#191970" stroke="#191970" points="1997.1612,-144.8241 1987.4263,-140.6429 1992.4289,-149.9823 1997.1612,-144.8241"/>
</g>
<!-- Node26&#45;&gt;Node28 -->
<g id="edge40" class="edge">
<title>Node26&#45;&gt;Node28</title>
<path fill="none" stroke="#191970" d="M2620.1021,-258.4668C2645.9934,-246.7135 2689.0791,-227.1549 2718.4725,-213.8118"/>
<polygon fill="#191970" stroke="#191970" points="2720.2122,-216.8659 2727.8712,-209.5453 2717.3187,-210.4919 2720.2122,-216.8659"/>
</g>
<!-- Node29&#45;&gt;Node3 -->
<g id="edge48" class="edge">
<title>Node29&#45;&gt;Node3</title>
<path fill="none" stroke="#191970" d="M1777.1915,-334.3478C1873.7099,-329.1788 2045.9149,-316.1566 2190,-285 2235.7447,-275.1083 2244.6501,-263.5675 2290,-252 2376.2441,-230.0015 2430.0005,-284.3596 2487,-216 2502.3331,-197.611 2494.5587,-168.7531 2486.5935,-149.7311"/>
<polygon fill="#191970" stroke="#191970" points="2489.7413,-148.1981 2482.4134,-140.546 2483.37,-151.0976 2489.7413,-148.1981"/>
</g>
<!-- Node29&#45;&gt;Node4 -->
<g id="edge42" class="edge">
<title>Node29&#45;&gt;Node4</title>
<path fill="none" stroke="#191970" d="M1718.7651,-327.3853C1732.1932,-318.2143 1750.0535,-303.3425 1758,-285 1763.8304,-271.542 1765.9047,-264.3543 1758,-252 1737.4223,-219.8389 1705.3375,-244.562 1680,-216 1648.3807,-180.3567 1665.321,-157.9837 1647,-114 1643.1334,-104.7174 1638.1237,-94.7689 1633.6823,-86.4656"/>
<polygon fill="#191970" stroke="#191970" points="1636.7064,-84.7009 1628.832,-77.6126 1630.5673,-88.0644 1636.7064,-84.7009"/>
</g>
<!-- Node29&#45;&gt;Node8 -->
<g id="edge50" class="edge">
<title>Node29&#45;&gt;Node8</title>
<path fill="none" stroke="#191970" d="M1777.0919,-335.1903C1990.3867,-328.3856 2590.0381,-307.4774 2676,-285 2708.1141,-276.6028 2712.3256,-264.685 2743,-252 2779.958,-236.7165 2823.1368,-222.3673 2854.5207,-212.5458"/>
<polygon fill="#191970" stroke="#191970" points="2855.759,-215.8263 2864.2731,-209.5207 2853.6851,-209.1406 2855.759,-215.8263"/>
</g>
<!-- Node29&#45;&gt;Node13 -->
<g id="edge89" class="edge">
<title>Node29&#45;&gt;Node13</title>
<path fill="none" stroke="#191970" d="M1626.9053,-337.2118C1395.2927,-335.8634 702.1285,-328.2216 611,-285 581.084,-270.8111 557.6281,-239.1536 544.8079,-218.5961"/>
<polygon fill="#191970" stroke="#191970" points="547.6703,-216.5633 539.5337,-209.7776 541.6628,-220.1563 547.6703,-216.5633"/>
</g>
<!-- Node29&#45;&gt;Node18 -->
<g id="edge91" class="edge">
<title>Node29&#45;&gt;Node18</title>
<path fill="none" stroke="#191970" d="M1649.6652,-327.4329C1619.0002,-319.6247 1580.7687,-306.4211 1552,-285 1528.3304,-267.3757 1509.9168,-238.1177 1499.5059,-218.8201"/>
<polygon fill="#191970" stroke="#191970" points="1502.5147,-217.019 1494.8057,-209.751 1496.2997,-220.24 1502.5147,-217.019"/>
</g>
<!-- Node29&#45;&gt;Node24 -->
<g id="edge47" class="edge">
<title>Node29&#45;&gt;Node24</title>
<path fill="none" stroke="#191970" d="M1746.0588,-327.4668C1800.3639,-315.1003 1892.6145,-294.0927 1951.092,-280.7761"/>
<polygon fill="#191970" stroke="#191970" points="1951.9148,-284.1784 1960.888,-278.5453 1950.3605,-277.3531 1951.9148,-284.1784"/>
</g>
<!-- Node29&#45;&gt;Node26 -->
<g id="edge88" class="edge">
<title>Node29&#45;&gt;Node26</title>
<path fill="none" stroke="#191970" d="M1777.1825,-334.2947C1916.4801,-327.944 2224.0076,-311.9936 2482,-285 2495.5122,-283.5862 2509.8695,-281.7871 2523.7113,-279.8998"/>
<polygon fill="#191970" stroke="#191970" points="2524.2568,-283.3577 2533.6797,-278.5143 2523.2931,-276.4244 2524.2568,-283.3577"/>
</g>
<!-- Node30 -->
<g id="node30" class="node">
<title>Node30</title>
<g id="a_node30"><a xlink:href="../../dd/dee/Core_2include_2Acts_2Definitions_2Alignment_8hpp.html" target="_top" xlink:title="Acts/Definitions/Alignment.hpp">
<polygon fill="none" stroke="#000000" points="1689,-189.5 1689,-209.5 1863,-209.5 1863,-189.5 1689,-189.5"/>
<text text-anchor="middle" x="1776" y="-196.5" font-family="FreeSans" font-size="10.00" fill="#000000">Acts/Definitions/Alignment.hpp</text>
</a>
</g>
</g>
<!-- Node29&#45;&gt;Node30 -->
<g id="edge43" class="edge">
<title>Node29&#45;&gt;Node30</title>
<path fill="none" stroke="#191970" d="M1734.8034,-327.4957C1754.8958,-319.4797 1778.9891,-306.0299 1791,-285 1802.7297,-264.4624 1794.4407,-236.9733 1786.2692,-218.774"/>
<polygon fill="#191970" stroke="#191970" points="1789.389,-217.186 1781.8695,-209.7223 1783.0933,-220.2462 1789.389,-217.186"/>
</g>
<!-- Node31 -->
<g id="node31" class="node">
<title>Node31</title>
<g id="a_node31"><a xlink:href="../../d8/ddd/Common_8hpp.html" target="_top" xlink:title="Acts/Definitions/Common.hpp">
<polygon fill="none" stroke="#ff0000" points="2062,-120.5 2062,-140.5 2230,-140.5 2230,-120.5 2062,-120.5"/>
<text text-anchor="middle" x="2146" y="-127.5" font-family="FreeSans" font-size="10.00" fill="#000000">Acts/Definitions/Common.hpp</text>
</a>
</g>
</g>
<!-- Node29&#45;&gt;Node31 -->
<g id="edge46" class="edge">
<title>Node29&#45;&gt;Node31</title>
<path fill="none" stroke="#191970" d="M1777.3007,-332.853C1886.7518,-325.3204 2079.0941,-308.8447 2100,-285 2129.886,-250.9128 2084.0408,-225.4313 2100,-183 2105.184,-169.217 2115.811,-156.6899 2125.5457,-147.3319"/>
<polygon fill="#191970" stroke="#191970" points="2127.9787,-149.8505 2133.0404,-140.5429 2123.2792,-144.6625 2127.9787,-149.8505"/>
</g>
<!-- Node32 -->
<g id="node32" class="node">
<title>Node32</title>
<g id="a_node32"><a xlink:href="../../dc/d45/DetectorElementBase_8hpp.html" target="_top" xlink:title="Acts/Geometry/DetectorElement\lBase.hpp">
<polygon fill="none" stroke="#ff0000" points="1103,-252.5 1103,-284.5 1285,-284.5 1285,-252.5 1103,-252.5"/>
<text text-anchor="start" x="1111" y="-271.5" font-family="FreeSans" font-size="10.00" fill="#000000">Acts/Geometry/DetectorElement</text>
<text text-anchor="middle" x="1194" y="-259.5" font-family="FreeSans" font-size="10.00" fill="#000000">Base.hpp</text>
</a>
</g>
</g>
<!-- Node29&#45;&gt;Node32 -->
<g id="edge49" class="edge">
<title>Node29&#45;&gt;Node32</title>
<path fill="none" stroke="#191970" d="M1626.8827,-328.5784C1545.1306,-318.6897 1410.614,-301.8955 1295,-285 1294.8984,-284.9851 1294.7967,-284.9703 1294.6949,-284.9554"/>
<polygon fill="#191970" stroke="#191970" points="1295.5023,-281.5371 1285.096,-283.5267 1294.4717,-288.4608 1295.5023,-281.5371"/>
</g>
<!-- Node33 -->
<g id="node33" class="node">
<title>Node33</title>
<g id="a_node33"><a xlink:href="../../da/de0/GeometryObject_8hpp.html" target="_top" xlink:title="Acts/Geometry/GeometryObject.hpp">
<polygon fill="none" stroke="#ff0000" points="1303.5,-258.5 1303.5,-278.5 1504.5,-278.5 1504.5,-258.5 1303.5,-258.5"/>
<text text-anchor="middle" x="1404" y="-265.5" font-family="FreeSans" font-size="10.00" fill="#000000">Acts/Geometry/GeometryObject.hpp</text>
</a>
</g>
</g>
<!-- Node29&#45;&gt;Node33 -->
<g id="edge51" class="edge">
<title>Node29&#45;&gt;Node33</title>
<path fill="none" stroke="#191970" d="M1658.6682,-327.4668C1605.3696,-315.1259 1514.9057,-294.1795 1457.3753,-280.8587"/>
<polygon fill="#191970" stroke="#191970" points="1457.9159,-277.3913 1447.3841,-278.5453 1456.3368,-284.2109 1457.9159,-277.3913"/>
</g>
<!-- Node34 -->
<g id="node34" class="node">
<title>Node34</title>
<g id="a_node34"><a xlink:href="../../db/d40/Polyhedron_8hpp.html" target="_top" xlink:title="Acts/Geometry/Polyhedron.hpp">
<polygon fill="none" stroke="#ff0000" points="1223.5,-189.5 1223.5,-209.5 1398.5,-209.5 1398.5,-189.5 1223.5,-189.5"/>
<text text-anchor="middle" x="1311" y="-196.5" font-family="FreeSans" font-size="10.00" fill="#000000">Acts/Geometry/Polyhedron.hpp</text>
</a>
</g>
</g>
<!-- Node29&#45;&gt;Node34 -->
<g id="edge58" class="edge">
<title>Node29&#45;&gt;Node34</title>
<path fill="none" stroke="#191970" d="M1626.8022,-336.5673C1472.0365,-333.8652 1129.3633,-323.5484 1094,-285 1084.0852,-274.1922 1084.9301,-263.5259 1094,-252 1103.4796,-239.9534 1184.1057,-222.7478 1244.3295,-211.359"/>
<polygon fill="#191970" stroke="#191970" points="1244.9977,-214.7949 1254.182,-209.513 1243.7084,-207.9146 1244.9977,-214.7949"/>
</g>
<!-- Node35 -->
<g id="node35" class="node">
<title>Node35</title>
<polygon fill="none" stroke="#bfbfbf" points="955,-120.5 955,-140.5 1009,-140.5 1009,-120.5 955,-120.5"/>
<text text-anchor="middle" x="982" y="-127.5" font-family="FreeSans" font-size="10.00" fill="#000000">cstddef</text>
</g>
<!-- Node29&#45;&gt;Node35 -->
<g id="edge90" class="edge">
<title>Node29&#45;&gt;Node35</title>
<path fill="none" stroke="#191970" d="M1626.9656,-334.8043C1469.965,-328.6563 1117.3774,-312.0063 1070,-285 1019.1824,-256.0327 995.3802,-185.298 986.4427,-150.4999"/>
<polygon fill="#191970" stroke="#191970" points="989.7934,-149.4646 984.0478,-140.5631 982.9883,-151.1048 989.7934,-149.4646"/>
</g>
<!-- Node36 -->
<g id="node36" class="node">
<title>Node36</title>
<g id="a_node36"><a xlink:href="../../de/d09/BinningType_8hpp.html" target="_top" xlink:title="Acts/Utilities/BinningType.hpp">
<polygon fill="none" stroke="#ff0000" points="1030,-189.5 1030,-209.5 1198,-209.5 1198,-189.5 1030,-189.5"/>
<text text-anchor="middle" x="1114" y="-196.5" font-family="FreeSans" font-size="10.00" fill="#000000">Acts/Utilities/BinningType.hpp</text>
</a>
</g>
</g>
<!-- Node29&#45;&gt;Node36 -->
<g id="edge75" class="edge">
<title>Node29&#45;&gt;Node36</title>
<path fill="none" stroke="#191970" d="M1626.8148,-336.7043C1469.725,-334.2592 1118.2029,-324.3981 1082,-285 1064.5166,-265.9736 1082.2796,-236.5049 1097.487,-217.6105"/>
<polygon fill="#191970" stroke="#191970" points="1100.3567,-219.6381 1104.1585,-209.7489 1095.0195,-215.1088 1100.3567,-219.6381"/>
</g>
<!-- Node37 -->
<g id="node37" class="node">
<title>Node37</title>
<g id="a_node37"><a xlink:href="../../d7/d50/BoundaryCheck_8hpp.html" target="_top" xlink:title="Acts/Surfaces/BoundaryCheck.hpp">
<polygon fill="none" stroke="#ff0000" points="2286,-189.5 2286,-209.5 2478,-209.5 2478,-189.5 2286,-189.5"/>
<text text-anchor="middle" x="2382" y="-196.5" font-family="FreeSans" font-size="10.00" fill="#000000">Acts/Surfaces/BoundaryCheck.hpp</text>
</a>
</g>
</g>
<!-- Node29&#45;&gt;Node37 -->
<g id="edge59" class="edge">
<title>Node29&#45;&gt;Node37</title>
<path fill="none" stroke="#191970" d="M1777.3728,-333.9186C1864.2092,-328.5096 2010.6562,-315.4332 2133,-285 2172.7289,-275.1174 2180.3903,-265.614 2219,-252 2259.5285,-237.7094 2306.2559,-222.8191 2339.261,-212.5623"/>
<polygon fill="#191970" stroke="#191970" points="2340.5242,-215.8352 2349.0414,-209.5337 2338.4535,-209.1484 2340.5242,-215.8352"/>
</g>
<!-- Node38 -->
<g id="node38" class="node">
<title>Node38</title>
<g id="a_node38"><a xlink:href="../../da/ddb/SurfaceBounds_8hpp.html" target="_top" xlink:title="Acts/Surfaces/SurfaceBounds.hpp">
<polygon fill="none" stroke="#000000" points="1561,-258.5 1561,-278.5 1749,-278.5 1749,-258.5 1561,-258.5"/>
<text text-anchor="middle" x="1655" y="-265.5" font-family="FreeSans" font-size="10.00" fill="#000000">Acts/Surfaces/SurfaceBounds.hpp</text>
</a>
</g>
</g>
<!-- Node29&#45;&gt;Node38 -->
<g id="edge63" class="edge">
<title>Node29&#45;&gt;Node38</title>
<path fill="none" stroke="#191970" d="M1695.065,-327.3188C1687.9144,-316.8212 1676.6007,-300.2116 1667.8167,-287.316"/>
<polygon fill="#191970" stroke="#191970" points="1670.4858,-285.0174 1661.9635,-278.723 1664.7005,-288.9582 1670.4858,-285.0174"/>
</g>
<!-- Node39 -->
<g id="node39" class="node">
<title>Node39</title>
<g id="a_node39"><a xlink:href="../../d7/d3a/SurfaceError_8hpp.html" target="_top" xlink:title="Acts/Surfaces/SurfaceError.hpp">
<polygon fill="none" stroke="#ff0000" points="2299,-258.5 2299,-278.5 2473,-278.5 2473,-258.5 2299,-258.5"/>
<text text-anchor="middle" x="2386" y="-265.5" font-family="FreeSans" font-size="10.00" fill="#000000">Acts/Surfaces/SurfaceError.hpp</text>
</a>
</g>
</g>
<!-- Node29&#45;&gt;Node39 -->
<g id="edge67" class="edge">
<title>Node29&#45;&gt;Node39</title>
<path fill="none" stroke="#191970" d="M1777.4313,-330.7651C1882.6653,-321.2481 2079.4784,-303.0093 2247,-285 2262.1627,-283.3699 2278.2441,-281.5476 2293.8828,-279.7251"/>
<polygon fill="#191970" stroke="#191970" points="2294.5571,-283.1701 2304.0816,-278.5295 2293.7421,-276.2177 2294.5571,-283.1701"/>
</g>
<!-- Node40 -->
<g id="node40" class="node">
<title>Node40</title>
<g id="a_node40"><a xlink:href="../../d9/da9/AlignmentHelper_8hpp.html" target="_top" xlink:title="Acts/Surfaces/detail\l/AlignmentHelper.hpp">
<polygon fill="none" stroke="#ff0000" points="142,-252.5 142,-284.5 270,-284.5 270,-252.5 142,-252.5"/>
<text text-anchor="start" x="150" y="-271.5" font-family="FreeSans" font-size="10.00" fill="#000000">Acts/Surfaces/detail</text>
<text text-anchor="middle" x="206" y="-259.5" font-family="FreeSans" font-size="10.00" fill="#000000">/AlignmentHelper.hpp</text>
</a>
</g>
</g>
<!-- Node29&#45;&gt;Node40 -->
<g id="edge69" class="edge">
<title>Node29&#45;&gt;Node40</title>
<path fill="none" stroke="#191970" d="M1626.9003,-335.6673C1377.591,-329.4223 578.7031,-308.0777 322,-285 308.4686,-283.7835 294.1021,-282.0787 280.2572,-280.2231"/>
<polygon fill="#191970" stroke="#191970" points="280.6716,-276.7473 270.2876,-278.8502 279.7166,-283.6818 280.6716,-276.7473"/>
</g>
<!-- Node29&#45;&gt;Node41 -->
<g id="edge92" class="edge">
<title>Node29&#45;&gt;Node41</title>
<path fill="none" stroke="#191970" d="M1626.711,-336.8031C1350.798,-333.9609 408.3005,-321.6019 356,-285 334.7117,-270.1017 326.3506,-239.8204 323.0807,-219.5913"/>
<polygon fill="#191970" stroke="#191970" points="326.5324,-218.9966 321.738,-209.5486 319.5941,-219.9243 326.5324,-218.9966"/>
</g>
<!-- Node42 -->
<g id="node42" class="node">
<title>Node42</title>
<g id="a_node42"><a xlink:href="../../d5/d50/BinnedArray_8hpp.html" target="_top" xlink:title="Acts/Utilities/BinnedArray.hpp">
<polygon fill="none" stroke="#ff0000" points="619.5,-258.5 619.5,-278.5 786.5,-278.5 786.5,-258.5 619.5,-258.5"/>
<text text-anchor="middle" x="703" y="-265.5" font-family="FreeSans" font-size="10.00" fill="#000000">Acts/Utilities/BinnedArray.hpp</text>
</a>
</g>
</g>
<!-- Node29&#45;&gt;Node42 -->
<g id="edge72" class="edge">
<title>Node29&#45;&gt;Node42</title>
<path fill="none" stroke="#191970" d="M1626.866,-336.1341C1471.3191,-332.6493 1102.9027,-320.9906 796,-285 785.5093,-283.7697 774.4099,-282.114 763.6724,-280.3247"/>
<polygon fill="#191970" stroke="#191970" points="763.9688,-276.8243 753.5201,-278.5778 762.7818,-283.723 763.9688,-276.8243"/>
</g>
<!-- Node43 -->
<g id="node43" class="node">
<title>Node43</title>
<g id="a_node43"><a xlink:href="../../db/d8d/Intersection_8hpp.html" target="_top" xlink:title="Acts/Utilities/Intersection.hpp">
<polygon fill="none" stroke="#ff0000" points="805,-258.5 805,-278.5 971,-278.5 971,-258.5 805,-258.5"/>
<text text-anchor="middle" x="888" y="-265.5" font-family="FreeSans" font-size="10.00" fill="#000000">Acts/Utilities/Intersection.hpp</text>
</a>
</g>
</g>
<!-- Node29&#45;&gt;Node43 -->
<g id="edge76" class="edge">
<title>Node29&#45;&gt;Node43</title>
<path fill="none" stroke="#191970" d="M1626.9358,-334.3639C1496.1691,-328.3744 1218.2474,-313.312 985,-285 974.159,-283.6841 962.6833,-281.9964 951.5661,-280.2048"/>
<polygon fill="#191970" stroke="#191970" points="951.9227,-276.7163 941.4856,-278.5378 950.7806,-283.6225 951.9227,-276.7163"/>
</g>
<!-- Node30&#45;&gt;Node3 -->
<g id="edge45" class="edge">
<title>Node30&#45;&gt;Node3</title>
<path fill="none" stroke="#191970" d="M1863.0118,-190.9354C1989.8227,-178.4533 2225.4629,-155.259 2365.0484,-141.5195"/>
<polygon fill="#191970" stroke="#191970" points="2365.7351,-144.9689 2375.3441,-140.5061 2365.0493,-138.0026 2365.7351,-144.9689"/>
</g>
<!-- Node30&#45;&gt;Node4 -->
<g id="edge44" class="edge">
<title>Node30&#45;&gt;Node4</title>
<path fill="none" stroke="#191970" d="M1763.9943,-189.1422C1737.7395,-166.4909 1674.9991,-112.362 1642.8019,-84.584"/>
<polygon fill="#191970" stroke="#191970" points="1644.8078,-81.692 1634.9499,-77.8097 1640.2351,-86.9921 1644.8078,-81.692"/>
</g>
<!-- Node33&#45;&gt;Node4 -->
<g id="edge52" class="edge">
<title>Node33&#45;&gt;Node4</title>
<path fill="none" stroke="#191970" d="M1408.0216,-258.3293C1415.1338,-241.2731 1431.2576,-206.4697 1453,-183 1494.5144,-138.1876 1556.5325,-101.6568 1593.0638,-82.3725"/>
<polygon fill="#191970" stroke="#191970" points="1594.9513,-85.3362 1602.2139,-77.6222 1591.7259,-79.1235 1594.9513,-85.3362"/>
</g>
<!-- Node33&#45;&gt;Node8 -->
<g id="edge53" class="edge">
<title>Node33&#45;&gt;Node8</title>
<path fill="none" stroke="#191970" d="M1483.0036,-258.4817C1505.2825,-255.986 1529.5626,-253.5756 1552,-252 2098.8867,-213.5957 2238.8443,-263.6858 2785,-216 2798.9861,-214.7788 2813.8809,-212.9708 2828.1115,-210.9939"/>
<polygon fill="#191970" stroke="#191970" points="2828.9306,-214.4125 2838.3337,-209.5306 2827.9386,-207.4831 2828.9306,-214.4125"/>
</g>
<!-- Node33&#45;&gt;Node34 -->
<g id="edge54" class="edge">
<title>Node33&#45;&gt;Node34</title>
<path fill="none" stroke="#191970" d="M1390.2775,-258.3188C1375.167,-247.1078 1350.6608,-228.9258 1332.8906,-215.7414"/>
<polygon fill="#191970" stroke="#191970" points="1334.8952,-212.8706 1324.7788,-209.723 1330.7243,-218.4923 1334.8952,-212.8706"/>
</g>
<!-- Node33&#45;&gt;Node36 -->
<g id="edge57" class="edge">
<title>Node33&#45;&gt;Node36</title>
<path fill="none" stroke="#191970" d="M1361.8315,-258.4668C1310.0711,-246.1514 1222.2927,-225.2662 1166.2906,-211.9416"/>
<polygon fill="#191970" stroke="#191970" points="1166.758,-208.4551 1156.2194,-209.5453 1165.1376,-215.265 1166.758,-208.4551"/>
</g>
<!-- Node34&#45;&gt;Node4 -->
<g id="edge55" class="edge">
<title>Node34&#45;&gt;Node4</title>
<path fill="none" stroke="#191970" d="M1320.4394,-189.2807C1337.7576,-171.18 1376.5576,-133.5549 1417,-114 1452.6018,-96.7856 1494.7719,-85.8225 1531.6556,-78.8988"/>
<polygon fill="#191970" stroke="#191970" points="1532.6879,-82.2693 1541.9087,-77.0513 1531.4464,-75.3802 1532.6879,-82.2693"/>
</g>
<!-- Node34&#45;&gt;Node35 -->
<g id="edge56" class="edge">
<title>Node34&#45;&gt;Node35</title>
<path fill="none" stroke="#191970" d="M1263.1606,-189.4668C1197.0882,-175.6097 1079.2829,-150.9028 1019.3079,-138.3244"/>
<polygon fill="#191970" stroke="#191970" points="1019.6596,-134.8221 1009.1541,-136.1949 1018.2227,-141.6731 1019.6596,-134.8221"/>
</g>
<!-- Node37&#45;&gt;Node3 -->
<g id="edge61" class="edge">
<title>Node37&#45;&gt;Node3</title>
<path fill="none" stroke="#191970" d="M2396.0176,-189.3188C2411.4531,-178.1078 2436.4862,-159.9258 2454.6387,-146.7414"/>
<polygon fill="#191970" stroke="#191970" points="2456.8907,-149.4315 2462.9249,-140.723 2452.777,-143.7678 2456.8907,-149.4315"/>
</g>
<!-- Node37&#45;&gt;Node4 -->
<g id="edge60" class="edge">
<title>Node37&#45;&gt;Node4</title>
<path fill="none" stroke="#191970" d="M2371.3011,-189.2674C2350.8446,-170.4317 2303.9392,-130.6759 2256,-114 2158.5229,-80.092 1864.7788,-70.9096 1714.1846,-68.4231"/>
<polygon fill="#191970" stroke="#191970" points="1714.0891,-64.9213 1704.0348,-68.2621 1713.978,-71.9204 1714.0891,-64.9213"/>
</g>
<!-- Node37&#45;&gt;Node15 -->
<g id="edge62" class="edge">
<title>Node37&#45;&gt;Node15</title>
<path fill="none" stroke="#191970" d="M2439.3089,-189.4869C2484.1143,-180.7743 2547.5509,-166.4782 2601,-147 2602.8506,-146.3256 2604.7328,-145.5751 2606.6122,-144.7766"/>
<polygon fill="#191970" stroke="#191970" points="2608.2215,-147.8886 2615.8279,-140.5133 2605.2824,-141.5355 2608.2215,-147.8886"/>
</g>
<!-- Node38&#45;&gt;Node4 -->
<g id="edge64" class="edge">
<title>Node38&#45;&gt;Node4</title>
<path fill="none" stroke="#191970" d="M1653.3691,-258.256C1648.3418,-226.678 1633.0158,-130.4116 1626.2587,-87.9687"/>
<polygon fill="#191970" stroke="#191970" points="1629.6948,-87.2897 1624.666,-77.9644 1622.7818,-88.3903 1629.6948,-87.2897"/>
</g>
<!-- Node38&#45;&gt;Node18 -->
<g id="edge66" class="edge">
<title>Node38&#45;&gt;Node18</title>
<path fill="none" stroke="#191970" d="M1631.0076,-258.4668C1602.6575,-246.6113 1555.3164,-226.8141 1523.3949,-213.4651"/>
<polygon fill="#191970" stroke="#191970" points="1524.5975,-210.1744 1514.0214,-209.5453 1521.8968,-216.6325 1524.5975,-210.1744"/>
</g>
<!-- Node38&#45;&gt;Node37 -->
<g id="edge65" class="edge">
<title>Node38&#45;&gt;Node37</title>
<path fill="none" stroke="#191970" d="M1749.2625,-262.6547C1871.3025,-254.6032 2090.4654,-238.4992 2277,-216 2288.6647,-214.593 2301.0224,-212.8652 2313.0067,-211.0633"/>
<polygon fill="#191970" stroke="#191970" points="2313.6079,-214.5121 2322.9623,-209.5375 2312.5475,-207.5928 2313.6079,-214.5121"/>
</g>
<!-- Node39&#45;&gt;Node7 -->
<g id="edge68" class="edge">
<title>Node39&#45;&gt;Node7</title>
<path fill="none" stroke="#191970" d="M2444.0493,-258.4692C2507.6555,-244.473 2608.4157,-212.9709 2667,-147 2682.5621,-129.4758 2693.1073,-104.454 2699.0669,-87.1847"/>
<polygon fill="#191970" stroke="#191970" points="2702.4293,-88.1623 2702.1889,-77.5702 2695.7715,-86.0004 2702.4293,-88.1623"/>
</g>
<!-- Node40&#45;&gt;Node4 -->
<g id="edge70" class="edge">
<title>Node40&#45;&gt;Node4</title>
<path fill="none" stroke="#191970" d="M141.8096,-252.7527C123.1893,-244.8855 104.9442,-233.217 94,-216 67.6998,-174.6255 93.6414,-138.6842 136,-114 196.352,-78.8302 1216.7927,-69.8941 1531.4018,-67.9698"/>
<polygon fill="#191970" stroke="#191970" points="1531.8675,-71.4671 1541.8462,-67.9069 1531.8252,-64.4673 1531.8675,-71.4671"/>
</g>
<!-- Node40&#45;&gt;Node41 -->
<g id="edge71" class="edge">
<title>Node40&#45;&gt;Node41</title>
<path fill="none" stroke="#191970" d="M232.6724,-252.4966C251.5173,-241.1896 276.6345,-226.1193 295.2664,-214.9401"/>
<polygon fill="#191970" stroke="#191970" points="297.319,-217.7903 304.0931,-209.6441 293.7175,-211.7879 297.319,-217.7903"/>
</g>
<!-- Node42&#45;&gt;Node4 -->
<g id="edge73" class="edge">
<title>Node42&#45;&gt;Node4</title>
<path fill="none" stroke="#191970" d="M729.1166,-258.4401C750.9357,-249.3027 782.2089,-234.4492 806,-216 853.7758,-178.9516 841.7159,-140.6147 896,-114 951.6911,-86.6955 1348.9107,-73.9328 1531.5488,-69.4584"/>
<polygon fill="#191970" stroke="#191970" points="1531.7611,-72.9544 1541.6735,-69.2135 1531.5918,-65.9564 1531.7611,-72.9544"/>
</g>
<!-- Node42&#45;&gt;Node13 -->
<g id="edge74" class="edge">
<title>Node42&#45;&gt;Node13</title>
<path fill="none" stroke="#191970" d="M673.4878,-258.4849C645.2443,-248.6177 601.6424,-232.6422 565,-216 563.8135,-215.4611 562.6089,-214.8972 561.3977,-214.3161"/>
<polygon fill="#191970" stroke="#191970" points="562.673,-211.0393 552.1685,-209.6589 559.5194,-217.2887 562.673,-211.0393"/>
</g>
<!-- Node43&#45;&gt;Node4 -->
<g id="edge77" class="edge">
<title>Node43&#45;&gt;Node4</title>
<path fill="none" stroke="#191970" d="M884.5512,-258.3316C879.556,-241.8655 871.945,-208.6264 882,-183 897.2778,-144.0626 908.2601,-132.0342 946,-114 997.525,-89.3785 1359.34,-75.3792 1531.8785,-70.0355"/>
<polygon fill="#191970" stroke="#191970" points="1532.0723,-73.5313 1541.9603,-69.7264 1531.8577,-66.5346 1532.0723,-73.5313"/>
</g>
<!-- Node43&#45;&gt;Node12 -->
<g id="edge84" class="edge">
<title>Node43&#45;&gt;Node12</title>
<path fill="none" stroke="#191970" d="M829.6284,-258.4222C780.6138,-249.3216 709.013,-234.5295 648,-216 645.189,-215.1463 642.3002,-214.1886 639.4169,-213.1758"/>
<polygon fill="#191970" stroke="#191970" points="640.3484,-209.7883 629.7554,-209.5906 637.9131,-216.351 640.3484,-209.7883"/>
</g>
<!-- Node43&#45;&gt;Node13 -->
<g id="edge85" class="edge">
<title>Node43&#45;&gt;Node13</title>
<path fill="none" stroke="#191970" d="M833.063,-258.4352C820.8693,-256.2604 808.0029,-254.0114 796,-252 693.5229,-234.8276 663.5702,-248.8687 565,-216 563.3299,-215.4431 561.6422,-214.8019 559.9621,-214.1026"/>
<polygon fill="#191970" stroke="#191970" points="561.1313,-210.7827 550.598,-209.6424 558.1212,-217.1025 561.1313,-210.7827"/>
</g>
<!-- Node43&#45;&gt;Node17 -->
<g id="edge87" class="edge">
<title>Node43&#45;&gt;Node17</title>
<path fill="none" stroke="#191970" d="M891.6888,-258.3188C895.3815,-248.1269 901.1616,-232.174 905.771,-219.4521"/>
<polygon fill="#191970" stroke="#191970" points="909.1801,-220.3172 909.296,-209.723 902.5988,-217.9326 909.1801,-220.3172"/>
</g>
<!-- Node43&#45;&gt;Node35 -->
<g id="edge86" class="edge">
<title>Node43&#45;&gt;Node35</title>
<path fill="none" stroke="#191970" d="M901.4455,-258.4827C913.7954,-248.7335 931.9556,-232.945 944,-216 958.6324,-195.414 969.5083,-168.2944 975.793,-150.1716"/>
<polygon fill="#191970" stroke="#191970" points="979.1222,-151.2518 978.9565,-140.6582 972.4798,-149.0429 979.1222,-151.2518"/>
</g>
<!-- Node44 -->
<g id="node44" class="node">
<title>Node44</title>
<g id="a_node44"><a xlink:href="../../d9/d11/Logger_8hpp.html" target="_top" xlink:title="Acts/Utilities/Logger.hpp">
<polygon fill="none" stroke="#ff0000" points="657,-189.5 657,-209.5 797,-209.5 797,-189.5 657,-189.5"/>
<text text-anchor="middle" x="727" y="-196.5" font-family="FreeSans" font-size="10.00" fill="#000000">Acts/Utilities/Logger.hpp</text>
</a>
</g>
</g>
<!-- Node43&#45;&gt;Node44 -->
<g id="edge78" class="edge">
<title>Node43&#45;&gt;Node44</title>
<path fill="none" stroke="#191970" d="M864.5892,-258.4668C837.0456,-246.6624 791.1309,-226.9847 759.989,-213.6381"/>
<polygon fill="#191970" stroke="#191970" points="761.0092,-210.2675 750.439,-209.5453 758.2518,-216.7016 761.0092,-210.2675"/>
</g>
<!-- Node44&#45;&gt;Node14 -->
<g id="edge79" class="edge">
<title>Node44&#45;&gt;Node14</title>
<path fill="none" stroke="#191970" d="M680.6147,-189.4668C616.7136,-175.6449 502.907,-151.0285 444.6189,-138.4207"/>
<polygon fill="#191970" stroke="#191970" points="445.257,-134.9779 434.7431,-136.2845 443.7771,-141.8196 445.257,-134.9779"/>
</g>
<!-- Node44&#45;&gt;Node16 -->
<g id="edge81" class="edge">
<title>Node44&#45;&gt;Node16</title>
<path fill="none" stroke="#191970" d="M703.7346,-189.4668C676.3621,-177.6624 630.7325,-157.9847 599.7841,-144.6381"/>
<polygon fill="#191970" stroke="#191970" points="600.862,-141.2914 590.2935,-140.5453 598.09,-147.7192 600.862,-141.2914"/>
</g>
<!-- Node44&#45;&gt;Node19 -->
<g id="edge83" class="edge">
<title>Node44&#45;&gt;Node19</title>
<path fill="none" stroke="#191970" d="M727,-189.3188C727,-179.2289 727,-163.4925 727,-150.8347"/>
<polygon fill="#191970" stroke="#191970" points="730.5001,-150.7229 727,-140.723 723.5001,-150.723 730.5001,-150.7229"/>
</g>
<!-- Node44&#45;&gt;Node27 -->
<g id="edge82" class="edge">
<title>Node44&#45;&gt;Node27</title>
<path fill="none" stroke="#191970" d="M797.136,-191.1608C823.6895,-188.2333 854.2089,-185.1436 882,-183 1294.418,-151.189 1795.8026,-135.5516 1937.8382,-131.554"/>
<polygon fill="#191970" stroke="#191970" points="1938.301,-135.0425 1948.1996,-131.2651 1938.1059,-128.0452 1938.301,-135.0425"/>
</g>
<!-- Node44&#45;&gt;Node45 -->
<g id="edge80" class="edge">
<title>Node44&#45;&gt;Node45</title>
<path fill="none" stroke="#191970" d="M796.6507,-189.4668C897.0533,-175.0038 1079.5056,-148.7215 1162.6399,-136.746"/>
<polygon fill="#191970" stroke="#191970" points="1163.3488,-140.1801 1172.7476,-135.29 1162.3507,-133.2516 1163.3488,-140.1801"/>
</g>
<!-- Node46&#45;&gt;Node23 -->
<g id="edge97" class="edge">
<title>Node46&#45;&gt;Node23</title>
<path fill="none" stroke="#191970" d="M2453.3019,-471.2261C2454.0567,-461.7911 2455.0254,-449.6831 2455.8868,-438.915"/>
<polygon fill="#191970" stroke="#191970" points="2459.3919,-438.9894 2456.7006,-428.7421 2452.4142,-438.4311 2459.3919,-438.9894"/>
</g>
<!-- Node47&#45;&gt;Node3 -->
<g id="edge101" class="edge">
<title>Node47&#45;&gt;Node3</title>
<path fill="none" stroke="#191970" d="M2255.0288,-183.4966C2306.8677,-171.1198 2377.5925,-154.234 2425.1555,-142.8781"/>
<polygon fill="#191970" stroke="#191970" points="2426.0245,-146.2691 2434.9383,-140.5424 2424.3988,-139.4604 2426.0245,-146.2691"/>
</g>
<!-- Node47&#45;&gt;Node4 -->
<g id="edge99" class="edge">
<title>Node47&#45;&gt;Node4</title>
<path fill="none" stroke="#191970" d="M2209.3229,-183.3575C2230.9436,-165.1005 2258.6268,-135.1642 2239,-114 2221.4349,-95.059 1881.3219,-78.2872 1714.1695,-71.15"/>
<polygon fill="#191970" stroke="#191970" points="1714.2857,-67.6519 1704.1463,-70.7247 1713.9889,-74.6456 1714.2857,-67.6519"/>
</g>
<!-- Node47&#45;&gt;Node7 -->
<g id="edge105" class="edge">
<title>Node47&#45;&gt;Node7</title>
<path fill="none" stroke="#191970" d="M2212.4295,-183.4822C2243.8185,-163.7289 2300.6383,-130.7214 2354,-114 2410.1109,-96.4171 2578.3908,-79.1442 2659.846,-71.5381"/>
<polygon fill="#191970" stroke="#191970" points="2660.1708,-75.0231 2669.8055,-70.616 2659.5253,-68.0529 2660.1708,-75.0231"/>
</g>
<!-- Node47&#45;&gt;Node14 -->
<g id="edge102" class="edge">
<title>Node47&#45;&gt;Node14</title>
<path fill="none" stroke="#191970" d="M2108.4813,-194.7889C2044.5951,-191.1388 1952.5555,-186.1831 1872,-183 1275.8062,-159.442 1124.7208,-195.0534 530,-147 501.2355,-144.6758 468.876,-140.2135 444.7151,-136.5149"/>
<polygon fill="#191970" stroke="#191970" points="444.9856,-133.0148 434.5658,-134.9325 443.9072,-139.9313 444.9856,-133.0148"/>
</g>
<!-- Node47&#45;&gt;Node15 -->
<g id="edge103" class="edge">
<title>Node47&#45;&gt;Node15</title>
<path fill="none" stroke="#191970" d="M2267.5285,-184.46C2270.7245,-183.9494 2273.891,-183.4603 2277,-183 2420.3239,-161.7806 2462.0463,-188.035 2601,-147 2603.1463,-146.3662 2605.3213,-145.598 2607.4774,-144.7441"/>
<polygon fill="#191970" stroke="#191970" points="2608.9841,-147.9041 2616.6596,-140.6008 2606.105,-141.5235 2608.9841,-147.9041"/>
</g>
<!-- Node47&#45;&gt;Node27 -->
<g id="edge104" class="edge">
<title>Node47&#45;&gt;Node27</title>
<path fill="none" stroke="#191970" d="M2139.062,-183.4966C2101.3888,-171.1769 2050.0537,-154.3896 2015.3333,-143.0355"/>
<polygon fill="#191970" stroke="#191970" points="2016.1587,-139.6231 2005.5661,-139.8415 2013.9829,-146.2764 2016.1587,-139.6231"/>
</g>
<!-- Node47&#45;&gt;Node31 -->
<g id="edge100" class="edge">
<title>Node47&#45;&gt;Node31</title>
<path fill="none" stroke="#191970" d="M2178.2588,-183.4966C2172.0362,-173.2738 2163.9412,-159.9749 2157.4171,-149.2567"/>
<polygon fill="#191970" stroke="#191970" points="2160.3639,-147.3663 2152.1747,-140.6441 2154.3845,-151.0059 2160.3639,-147.3663"/>
</g>
<!-- Node49&#45;&gt;Node3 -->
<g id="edge113" class="edge">
<title>Node49&#45;&gt;Node3</title>
<path fill="none" stroke="#191970" d="M2162.5535,-395.4242C2266.6826,-372.5997 2436.5109,-329.7967 2482,-285 2515.1114,-252.3926 2516.271,-228.084 2505,-183 2502.0311,-171.1246 2495.8113,-158.9942 2489.9863,-149.3893"/>
<polygon fill="#191970" stroke="#191970" points="2492.775,-147.2545 2484.428,-140.7293 2486.884,-151.0356 2492.775,-147.2545"/>
</g>
<!-- Node49&#45;&gt;Node4 -->
<g id="edge108" class="edge">
<title>Node49&#45;&gt;Node4</title>
<path fill="none" stroke="#191970" d="M2038.1707,-390.4667C2000.5082,-368.2873 1945.3772,-330.8456 1911,-285 1881.8834,-246.1699 1905.1125,-218.484 1872,-183 1819.5539,-126.7978 1734.3337,-95.564 1678.4683,-80.1478"/>
<polygon fill="#191970" stroke="#191970" points="1679.3017,-76.7477 1668.7365,-77.5401 1677.4898,-83.5092 1679.3017,-76.7477"/>
</g>
<!-- Node49&#45;&gt;Node8 -->
<g id="edge115" class="edge">
<title>Node49&#45;&gt;Node8</title>
<path fill="none" stroke="#191970" d="M2162.6577,-405.6386C2324.6604,-392.1958 2667.5174,-362.9248 2692,-354 2734.034,-338.6772 2836.2675,-252.8682 2878.8697,-216.1607"/>
<polygon fill="#191970" stroke="#191970" points="2881.2859,-218.6985 2886.5596,-209.5093 2876.7066,-213.4041 2881.2859,-218.6985"/>
</g>
<!-- Node49&#45;&gt;Node25 -->
<g id="edge114" class="edge">
<title>Node49&#45;&gt;Node25</title>
<path fill="none" stroke="#191970" d="M2162.6869,-400.2412C2251.8216,-387.1843 2392.9756,-366.5075 2488.6631,-352.4908"/>
<polygon fill="#191970" stroke="#191970" points="2489.2598,-355.9408 2498.6469,-351.0283 2488.2452,-349.0147 2489.2598,-355.9408"/>
</g>
<!-- Node49&#45;&gt;Node27 -->
<g id="edge118" class="edge">
<title>Node49&#45;&gt;Node27</title>
<path fill="none" stroke="#191970" d="M2090.0061,-390.3247C2104.4879,-357.7196 2125.3079,-295.9598 2100,-252 2084.1021,-224.3854 2061.5609,-237.4521 2038,-216 2016.4147,-196.3467 1997.9708,-167.8369 1987.1809,-149.2337"/>
<polygon fill="#191970" stroke="#191970" points="1990.2208,-147.499 1982.26,-140.5078 1984.1236,-150.9375 1990.2208,-147.499"/>
</g>
<!-- Node49&#45;&gt;Node29 -->
<g id="edge116" class="edge">
<title>Node49&#45;&gt;Node29</title>
<path fill="none" stroke="#191970" d="M1995.3315,-395.8551C1924.8489,-381.8333 1825.6946,-362.1077 1762.6423,-349.5641"/>
<polygon fill="#191970" stroke="#191970" points="1762.9495,-346.0567 1752.4588,-347.5382 1761.5837,-352.9222 1762.9495,-346.0567"/>
</g>
<!-- Node49&#45;&gt;Node41 -->
<g id="edge119" class="edge">
<title>Node49&#45;&gt;Node41</title>
<path fill="none" stroke="#191970" d="M1995.2382,-411.7093C1663.4662,-408.3128 451.4234,-393.3071 284,-354 212.1673,-337.1354 172.8847,-347.077 133,-285 125.072,-272.6607 123.8533,-263.4651 133,-252 177.9155,-195.6994 223.6824,-241.6028 291,-216 292.4237,-215.4585 293.8629,-214.8601 295.3004,-214.2216"/>
<polygon fill="#191970" stroke="#191970" points="297.1836,-217.1939 304.5762,-209.6044 294.0642,-210.9274 297.1836,-217.1939"/>
</g>
<!-- Node49&#45;&gt;Node44 -->
<g id="edge117" class="edge">
<title>Node49&#45;&gt;Node44</title>
<path fill="none" stroke="#191970" d="M1995.2461,-411.6664C1697.7893,-407.849 704.9546,-387.4685 611,-285 583.1773,-254.6561 639.052,-227.9948 682.52,-212.8194"/>
<polygon fill="#191970" stroke="#191970" points="683.7723,-216.0907 692.128,-209.5767 681.5338,-209.4583 683.7723,-216.0907"/>
</g>
<!-- Node50 -->
<g id="node50" class="node">
<title>Node50</title>
<g id="a_node50"><a xlink:href="../../d3/d33/Direction_8hpp.html" target="_top" xlink:title="Acts/Definitions/Direction.hpp">
<polygon fill="none" stroke="#ff0000" points="114,-189.5 114,-209.5 282,-209.5 282,-189.5 114,-189.5"/>
<text text-anchor="middle" x="198" y="-196.5" font-family="FreeSans" font-size="10.00" fill="#000000">Acts/Definitions/Direction.hpp</text>
</a>
</g>
</g>
<!-- Node49&#45;&gt;Node50 -->
<g id="edge109" class="edge">
<title>Node49&#45;&gt;Node50</title>
<path fill="none" stroke="#191970" d="M1995.3208,-412.2038C1636.3947,-410.6459 241.6824,-401.5442 162,-354 120.1835,-329.0493 99.3784,-295.121 122,-252 130.781,-235.2617 147.587,-222.8074 163.1669,-214.2406"/>
<polygon fill="#191970" stroke="#191970" points="164.8289,-217.3217 172.1284,-209.6427 161.6334,-211.0936 164.8289,-217.3217"/>
</g>
<!-- Node50&#45;&gt;Node4 -->
<g id="edge110" class="edge">
<title>Node50&#45;&gt;Node4</title>
<path fill="none" stroke="#191970" d="M213.0781,-189.3999C242.3792,-170.4128 309.7005,-129.8817 373,-114 484.1944,-86.1016 1262.4103,-72.5898 1531.6189,-68.7123"/>
<polygon fill="#191970" stroke="#191970" points="1531.7999,-72.2102 1541.7488,-68.5675 1531.6998,-65.2109 1531.7999,-72.2102"/>
</g>
<!-- Node50&#45;&gt;Node14 -->
<g id="edge111" class="edge">
<title>Node50&#45;&gt;Node14</title>
<path fill="none" stroke="#191970" d="M228.5358,-189.4668C266.4983,-176.9934 331.2161,-155.729 371.6835,-142.4326"/>
<polygon fill="#191970" stroke="#191970" points="373.0106,-145.6807 381.4183,-139.234 370.8254,-139.0305 373.0106,-145.6807"/>
</g>
<!-- Node50&#45;&gt;Node35 -->
<g id="edge112" class="edge">
<title>Node50&#45;&gt;Node35</title>
<path fill="none" stroke="#191970" d="M249.5117,-189.4166C262.974,-187.0408 277.4971,-184.7065 291,-183 295.0984,-182.4821 801.3259,-144.1685 944.6061,-133.3286"/>
<polygon fill="#191970" stroke="#191970" points="944.96,-136.812 954.6674,-132.5675 944.4318,-129.8319 944.96,-136.812"/>
</g>
</g>
</svg>
