<?xml version="1.0" encoding="UTF-8" standalone="no"?>
<!DOCTYPE svg PUBLIC "-//W3C//DTD SVG 1.1//EN"
 "http://www.w3.org/Graphics/SVG/1.1/DTD/svg11.dtd">
<!-- Generated by graphviz version 2.40.1 (20161225.0304)
 -->
<!-- Title: Jetscape::SoftParticlization::Init Pages: 1 -->
<svg width="510pt" height="284pt"
 viewBox="0.00 0.00 510.00 284.00" xmlns="http://www.w3.org/2000/svg" xmlns:xlink="http://www.w3.org/1999/xlink">
<g id="graph0" class="graph" transform="scale(1 1) rotate(0) translate(4 280)">
<title>Jetscape::SoftParticlization::Init</title>
<!-- Node1 -->
<g id="node1" class="node">
<title>Node1</title>
<polygon fill="#bfbfbf" stroke="#000000" points="0,-115.5 0,-147.5 151,-147.5 151,-115.5 0,-115.5"/>
<text text-anchor="start" x="8" y="-134.5" font-family="FreeSans" font-size="10.00" fill="#000000">Jetscape::SoftParticlization</text>
<text text-anchor="middle" x="75.5" y="-122.5" font-family="FreeSans" font-size="10.00" fill="#000000">::Init</text>
</g>
<!-- Node2 -->
<g id="node2" class="node">
<title>Node2</title>
<g id="a_node2"><a xlink:href="../../d6/de3/classtinyxml2_1_1XMLNode.html#a4a38e0da23f4d97673a86c77d5cae5c2" target="_top" xlink:title="tinyxml2::XMLNode::\lFirstChildElement">
<polygon fill="none" stroke="#000000" points="200,-243.5 200,-275.5 321,-275.5 321,-243.5 200,-243.5"/>
<text text-anchor="start" x="208" y="-262.5" font-family="FreeSans" font-size="10.00" fill="#000000">tinyxml2::XMLNode::</text>
<text text-anchor="middle" x="260.5" y="-250.5" font-family="FreeSans" font-size="10.00" fill="#000000">FirstChildElement</text>
</a>
</g>
</g>
<!-- Node1&#45;&gt;Node2 -->
<g id="edge1" class="edge">
<title>Node1&#45;&gt;Node2</title>
<path fill="none" stroke="#191970" d="M89.019,-147.6779C108.5303,-170.0851 146.6899,-210.5105 187,-234.5 189.7798,-236.1543 192.6844,-237.7182 195.6659,-239.194"/>
<polygon fill="#191970" stroke="#191970" points="194.243,-242.3918 204.7935,-243.3598 197.1494,-236.0237 194.243,-242.3918"/>
</g>
<!-- Node3 -->
<g id="node3" class="node">
<title>Node3</title>
<g id="a_node3"><a xlink:href="../../d5/d42/classJetscape_1_1JetScapeTask.html#a3694c1c61e017ffabe32b72f7a84d61f" target="_top" xlink:title="Jetscape::JetScapeTask\l::GetId">
<polygon fill="none" stroke="#000000" points="194,-192.5 194,-224.5 327,-224.5 327,-192.5 194,-192.5"/>
<text text-anchor="start" x="202" y="-211.5" font-family="FreeSans" font-size="10.00" fill="#000000">Jetscape::JetScapeTask</text>
<text text-anchor="middle" x="260.5" y="-199.5" font-family="FreeSans" font-size="10.00" fill="#000000">::GetId</text>
</a>
</g>
</g>
<!-- Node1&#45;&gt;Node3 -->
<g id="edge2" class="edge">
<title>Node1&#45;&gt;Node3</title>
<path fill="none" stroke="#191970" d="M107.779,-147.689C129.8247,-158.4633 159.8483,-172.5884 187,-183.5 191.6488,-185.3682 196.4972,-187.221 201.3893,-189.0235"/>
<polygon fill="#191970" stroke="#191970" points="200.2154,-192.3207 210.8098,-192.4184 202.5887,-185.7353 200.2154,-192.3207"/>
</g>
<!-- Node4 -->
<g id="node4" class="node">
<title>Node4</title>
<g id="a_node4"><a xlink:href="../../d9/d2b/classJetscape_1_1JetScapeXML.html#a4d093b0c3a96c7e205fe3e68190fe0b8" target="_top" xlink:title="Jetscape::JetScapeXML\l::GetXMLRoot">
<polygon fill="none" stroke="#000000" points="194.5,-141.5 194.5,-173.5 326.5,-173.5 326.5,-141.5 194.5,-141.5"/>
<text text-anchor="start" x="202.5" y="-160.5" font-family="FreeSans" font-size="10.00" fill="#000000">Jetscape::JetScapeXML</text>
<text text-anchor="middle" x="260.5" y="-148.5" font-family="FreeSans" font-size="10.00" fill="#000000">::GetXMLRoot</text>
</a>
</g>
</g>
<!-- Node1&#45;&gt;Node4 -->
<g id="edge3" class="edge">
<title>Node1&#45;&gt;Node4</title>
<path fill="none" stroke="#191970" d="M151.0134,-142.1127C162.0286,-143.6608 173.3766,-145.2556 184.4034,-146.8053"/>
<polygon fill="#191970" stroke="#191970" points="184.0311,-150.2873 194.4209,-148.2132 185.0053,-143.3555 184.0311,-150.2873"/>
</g>
<!-- Node5 -->
<g id="node5" class="node">
<title>Node5</title>
<g id="a_node5"><a xlink:href="../../db/d28/classJetscape_1_1JetScapeModuleBase.html#a6ccb4e0cf75bc0718b21098a915d63fe" target="_top" xlink:title="Jetscape::JetScapeModule\lBase::Init">
<polygon fill="none" stroke="#000000" points="187,-90.5 187,-122.5 334,-122.5 334,-90.5 187,-90.5"/>
<text text-anchor="start" x="195" y="-109.5" font-family="FreeSans" font-size="10.00" fill="#000000">Jetscape::JetScapeModule</text>
<text text-anchor="middle" x="260.5" y="-97.5" font-family="FreeSans" font-size="10.00" fill="#000000">Base::Init</text>
</a>
</g>
</g>
<!-- Node1&#45;&gt;Node5 -->
<g id="edge4" class="edge">
<title>Node1&#45;&gt;Node5</title>
<path fill="none" stroke="#191970" d="M151.0134,-121.2955C159.4871,-120.1504 168.1578,-118.9787 176.7276,-117.8206"/>
<polygon fill="#191970" stroke="#191970" points="177.2826,-121.2775 186.7237,-116.4698 176.3451,-114.3406 177.2826,-121.2775"/>
</g>
<!-- Node6 -->
<g id="node6" class="node">
<title>Node6</title>
<g id="a_node6"><a xlink:href="../../d9/d2b/classJetscape_1_1JetScapeXML.html#a926eea50031c28ec5b9f56f5b100ec3b" target="_top" xlink:title="Jetscape::JetScapeXML\l::Instance">
<polygon fill="none" stroke="#000000" points="370,-67.5 370,-99.5 502,-99.5 502,-67.5 370,-67.5"/>
<text text-anchor="start" x="378" y="-86.5" font-family="FreeSans" font-size="10.00" fill="#000000">Jetscape::JetScapeXML</text>
<text text-anchor="middle" x="436" y="-74.5" font-family="FreeSans" font-size="10.00" fill="#000000">::Instance</text>
</a>
</g>
</g>
<!-- Node1&#45;&gt;Node6 -->
<g id="edge7" class="edge">
<title>Node1&#45;&gt;Node6</title>
<path fill="none" stroke="#191970" d="M102.7913,-115.328C124.705,-103.3318 156.7118,-87.9802 187,-81.5 244.0497,-69.2941 310.1471,-70.5129 359.8991,-74.3945"/>
<polygon fill="#191970" stroke="#191970" points="359.6847,-77.8886 369.9408,-75.2311 360.266,-70.9128 359.6847,-77.8886"/>
</g>
<!-- Node7 -->
<g id="node7" class="node">
<title>Node7</title>
<g id="a_node7"><a xlink:href="../../d5/d42/classJetscape_1_1JetScapeTask.html#a4299cff29709f7ce2079768642dc4133" target="_top" xlink:title="Jetscape::JetScapeTask\l::InitTask">
<polygon fill="none" stroke="#000000" points="194,-.5 194,-32.5 327,-32.5 327,-.5 194,-.5"/>
<text text-anchor="start" x="202" y="-19.5" font-family="FreeSans" font-size="10.00" fill="#000000">Jetscape::JetScapeTask</text>
<text text-anchor="middle" x="260.5" y="-7.5" font-family="FreeSans" font-size="10.00" fill="#000000">::InitTask</text>
</a>
</g>
</g>
<!-- Node1&#45;&gt;Node7 -->
<g id="edge6" class="edge">
<title>Node1&#45;&gt;Node7</title>
<path fill="none" stroke="#191970" d="M93.8405,-115.4239C115.1619,-97.2881 151.9237,-67.6948 187,-47.5 193.5185,-43.747 200.5795,-40.1911 207.6592,-36.9177"/>
<polygon fill="#191970" stroke="#191970" points="209.5636,-39.9011 217.276,-32.6369 206.7169,-33.5061 209.5636,-39.9011"/>
</g>
<!-- Node5&#45;&gt;Node6 -->
<g id="edge5" class="edge">
<title>Node5&#45;&gt;Node6</title>
<path fill="none" stroke="#191970" d="M334.165,-96.8459C342.6601,-95.7326 351.336,-94.5956 359.863,-93.4781"/>
<polygon fill="#191970" stroke="#191970" points="360.3244,-96.9476 369.7848,-92.1778 359.4148,-90.007 360.3244,-96.9476"/>
</g>
</g>
</svg>
