<?xml version="1.0" encoding="UTF-8" standalone="no"?>
<!DOCTYPE svg PUBLIC "-//W3C//DTD SVG 1.1//EN"
 "http://www.w3.org/Graphics/SVG/1.1/DTD/svg11.dtd">
<!-- Generated by graphviz version 2.40.1 (20161225.0304)
 -->
<!-- Title: AntiTrigger::End Pages: 1 -->
<svg width="425pt" height="68pt"
 viewBox="0.00 0.00 425.00 68.00" xmlns="http://www.w3.org/2000/svg" xmlns:xlink="http://www.w3.org/1999/xlink">
<g id="graph0" class="graph" transform="scale(1 1) rotate(0) translate(4 64)">
<title>AntiTrigger::End</title>
<!-- Node1 -->
<g id="node1" class="node">
<title>Node1</title>
<polygon fill="#bfbfbf" stroke="#000000" points="0,-19.5 0,-39.5 98,-39.5 98,-19.5 0,-19.5"/>
<text text-anchor="middle" x="49" y="-26.5" font-family="FreeSans" font-size="10.00" fill="#000000">AntiTrigger::End</text>
</g>
<!-- Node2 -->
<g id="node2" class="node">
<title>Node2</title>
<g id="a_node2"><a xlink:href="../../de/df2/classAntiTrigger.html#ac6cbc93335a12d6482205689d7a28ca2" target="_top" xlink:title="AntiTrigger::printInfo">
<polygon fill="none" stroke="#000000" points="139,-39.5 139,-59.5 261,-59.5 261,-39.5 139,-39.5"/>
<text text-anchor="middle" x="200" y="-46.5" font-family="FreeSans" font-size="10.00" fill="#000000">AntiTrigger::printInfo</text>
</a>
</g>
</g>
<!-- Node1&#45;&gt;Node2 -->
<g id="edge1" class="edge">
<title>Node1&#45;&gt;Node2</title>
<path fill="none" stroke="#191970" d="M98.0254,-35.9934C107.8795,-37.2986 118.4226,-38.695 128.8545,-40.0768"/>
<polygon fill="#191970" stroke="#191970" points="128.4229,-43.5501 138.796,-41.3935 129.3421,-36.6107 128.4229,-43.5501"/>
</g>
<!-- Node4 -->
<g id="node4" class="node">
<title>Node4</title>
<g id="a_node4"><a xlink:href="../../d5/dec/classFun4AllBase.html#a8a5c77a92bdac6bc043476e132379a40" target="_top" xlink:title="Gets the verbosity of this module.">
<polygon fill="none" stroke="#000000" points="134,-.5 134,-20.5 266,-20.5 266,-.5 134,-.5"/>
<text text-anchor="middle" x="200" y="-7.5" font-family="FreeSans" font-size="10.00" fill="#000000">Fun4AllBase::Verbosity</text>
</a>
</g>
</g>
<!-- Node1&#45;&gt;Node4 -->
<g id="edge3" class="edge">
<title>Node1&#45;&gt;Node4</title>
<path fill="none" stroke="#191970" d="M98.0254,-23.3312C106.3469,-22.2842 115.1598,-21.1753 123.9821,-20.0652"/>
<polygon fill="#191970" stroke="#191970" points="124.4363,-23.5357 133.9211,-18.8146 123.5623,-16.5905 124.4363,-23.5357"/>
</g>
<!-- Node3 -->
<g id="node3" class="node">
<title>Node3</title>
<g id="a_node3"><a xlink:href="../../d5/dec/classFun4AllBase.html#a41f9ac377743d046f590617fd6f4f0ed" target="_top" xlink:title="Returns the name of this module.">
<polygon fill="none" stroke="#000000" points="302,-39.5 302,-59.5 417,-59.5 417,-39.5 302,-39.5"/>
<text text-anchor="middle" x="359.5" y="-46.5" font-family="FreeSans" font-size="10.00" fill="#000000">Fun4AllBase::Name</text>
</a>
</g>
</g>
<!-- Node2&#45;&gt;Node3 -->
<g id="edge2" class="edge">
<title>Node2&#45;&gt;Node3</title>
<path fill="none" stroke="#191970" d="M261.2107,-49.5C271.2257,-49.5 281.6537,-49.5 291.8143,-49.5"/>
<polygon fill="#191970" stroke="#191970" points="291.8605,-53.0001 301.8605,-49.5 291.8604,-46.0001 291.8605,-53.0001"/>
</g>
</g>
</svg>
