<?xml version="1.0" encoding="UTF-8" standalone="no"?>
<!DOCTYPE svg PUBLIC "-//W3C//DTD SVG 1.1//EN"
 "http://www.w3.org/Graphics/SVG/1.1/DTD/svg11.dtd">
<!-- Generated by graphviz version 2.40.1 (20161225.0304)
 -->
<!-- Title: ActsExamples::EDM4hepSimHitWriter::writeT Pages: 1 -->
<svg width="713pt" height="452pt"
 viewBox="0.00 0.00 713.00 452.00" xmlns="http://www.w3.org/2000/svg" xmlns:xlink="http://www.w3.org/1999/xlink">
<g id="graph0" class="graph" transform="scale(1 1) rotate(0) translate(4 448)">
<title>ActsExamples::EDM4hepSimHitWriter::writeT</title>
<!-- Node1 -->
<g id="node1" class="node">
<title>Node1</title>
<polygon fill="#bfbfbf" stroke="#000000" points="0,-295.5 0,-327.5 162,-327.5 162,-295.5 0,-295.5"/>
<text text-anchor="start" x="8" y="-314.5" font-family="FreeSans" font-size="10.00" fill="#000000">ActsExamples::EDM4hepSim</text>
<text text-anchor="middle" x="81" y="-302.5" font-family="FreeSans" font-size="10.00" fill="#000000">HitWriter::writeT</text>
</g>
<!-- Node2 -->
<g id="node2" class="node">
<title>Node2</title>
<g id="a_node2"><a xlink:href="../../d0/da7/namespacetesting_1_1internal.html#a0f6d06bf8c3093b9c22bb08723db201e" target="_top" xlink:title="testing::internal::move">
<polygon fill="none" stroke="#000000" points="212,-346.5 212,-366.5 344,-366.5 344,-346.5 212,-346.5"/>
<text text-anchor="middle" x="278" y="-353.5" font-family="FreeSans" font-size="10.00" fill="#000000">testing::internal::move</text>
</a>
</g>
</g>
<!-- Node1&#45;&gt;Node2 -->
<g id="edge1" class="edge">
<title>Node1&#45;&gt;Node2</title>
<path fill="none" stroke="#191970" d="M151.2872,-327.5555C175.2431,-333.0276 201.6305,-339.0552 224.0951,-344.1867"/>
<polygon fill="#191970" stroke="#191970" points="223.5894,-347.6613 234.1178,-346.4761 225.1483,-340.8371 223.5894,-347.6613"/>
</g>
<!-- Node3 -->
<g id="node3" class="node">
<title>Node3</title>
<g id="a_node3"><a xlink:href="../../d4/d7c/namespaceActsExamples_1_1EDM4hepUtil.html#acc5558a0fe81bb758024d23ab5aeeba6" target="_top" xlink:title="ActsExamples::EDM4hepUtil\l::writeParticle">
<polygon fill="none" stroke="#000000" points="198,-295.5 198,-327.5 358,-327.5 358,-295.5 198,-295.5"/>
<text text-anchor="start" x="206" y="-314.5" font-family="FreeSans" font-size="10.00" fill="#000000">ActsExamples::EDM4hepUtil</text>
<text text-anchor="middle" x="278" y="-302.5" font-family="FreeSans" font-size="10.00" fill="#000000">::writeParticle</text>
</a>
</g>
</g>
<!-- Node1&#45;&gt;Node3 -->
<g id="edge2" class="edge">
<title>Node1&#45;&gt;Node3</title>
<path fill="none" stroke="#191970" d="M162.2648,-311.5C170.6288,-311.5 179.1638,-311.5 187.6186,-311.5"/>
<polygon fill="#191970" stroke="#191970" points="187.8748,-315.0001 197.8748,-311.5 187.8747,-308.0001 187.8748,-315.0001"/>
</g>
<!-- Node10 -->
<g id="node10" class="node">
<title>Node10</title>
<g id="a_node10"><a xlink:href="../../d4/d7c/namespaceActsExamples_1_1EDM4hepUtil.html#a8dc7c04e606f3e7f0525000e50cfcb4f" target="_top" xlink:title="ActsExamples::EDM4hepUtil\l::writeSimHit">
<polygon fill="none" stroke="#000000" points="198,-104.5 198,-136.5 358,-136.5 358,-104.5 198,-104.5"/>
<text text-anchor="start" x="206" y="-123.5" font-family="FreeSans" font-size="10.00" fill="#000000">ActsExamples::EDM4hepUtil</text>
<text text-anchor="middle" x="278" y="-111.5" font-family="FreeSans" font-size="10.00" fill="#000000">::writeSimHit</text>
</a>
</g>
</g>
<!-- Node1&#45;&gt;Node10 -->
<g id="edge9" class="edge">
<title>Node1&#45;&gt;Node10</title>
<path fill="none" stroke="#191970" d="M97.7961,-295.2154C132.7615,-261.315 213.4734,-183.0613 253.9457,-143.8217"/>
<polygon fill="#191970" stroke="#191970" points="256.5031,-146.2171 261.2464,-136.7433 251.6305,-141.1914 256.5031,-146.2171"/>
</g>
<!-- Node4 -->
<g id="node4" class="node">
<title>Node4</title>
<g id="a_node4"><a xlink:href="../../db/dfd/classActsFatras_1_1Particle.html#afb30f8d2e20e1c91cb7160239e2e1c7f" target="_top" xlink:title="PDG particle number that identifies the type.">
<polygon fill="none" stroke="#000000" points="405.5,-423.5 405.5,-443.5 544.5,-443.5 544.5,-423.5 405.5,-423.5"/>
<text text-anchor="middle" x="475" y="-430.5" font-family="FreeSans" font-size="10.00" fill="#000000">ActsFatras::Particle::pdg</text>
</a>
</g>
</g>
<!-- Node3&#45;&gt;Node4 -->
<g id="edge3" class="edge">
<title>Node3&#45;&gt;Node4</title>
<path fill="none" stroke="#191970" d="M343.403,-327.5315C348.6609,-330.3368 353.6231,-333.6313 358,-337.5 386.3056,-362.5191 364.6709,-390.6889 394,-414.5 395.7767,-415.9424 397.6437,-417.2791 399.5831,-418.5175"/>
<polygon fill="#191970" stroke="#191970" points="398.0338,-421.6587 408.4941,-423.3421 401.3666,-415.503 398.0338,-421.6587"/>
</g>
<!-- Node5 -->
<g id="node5" class="node">
<title>Node5</title>
<g id="a_node5"><a xlink:href="../../db/dfd/classActsFatras_1_1Particle.html#acf597772d569b8a942ba010e572b3af7" target="_top" xlink:title="Particle charge.">
<polygon fill="none" stroke="#000000" points="418.5,-372.5 418.5,-404.5 531.5,-404.5 531.5,-372.5 418.5,-372.5"/>
<text text-anchor="start" x="426.5" y="-391.5" font-family="FreeSans" font-size="10.00" fill="#000000">ActsFatras::Particle</text>
<text text-anchor="middle" x="475" y="-379.5" font-family="FreeSans" font-size="10.00" fill="#000000">::charge</text>
</a>
</g>
</g>
<!-- Node3&#45;&gt;Node5 -->
<g id="edge4" class="edge">
<title>Node3&#45;&gt;Node5</title>
<path fill="none" stroke="#191970" d="M334.8384,-327.5319C342.7782,-330.4703 350.708,-333.7972 358,-337.5 375.5977,-346.4359 376.3363,-354.6951 394,-363.5 398.6553,-365.8205 403.569,-367.9768 408.5812,-369.97"/>
<polygon fill="#191970" stroke="#191970" points="407.7066,-373.3796 418.2991,-373.6023 410.1575,-366.8226 407.7066,-373.3796"/>
</g>
<!-- Node6 -->
<g id="node6" class="node">
<title>Node6</title>
<g id="a_node6"><a xlink:href="../../db/dfd/classActsFatras_1_1Particle.html#a9e136f344c2d49ee1220040c8be090c1" target="_top" xlink:title="Particle mass.">
<polygon fill="none" stroke="#000000" points="418.5,-321.5 418.5,-353.5 531.5,-353.5 531.5,-321.5 418.5,-321.5"/>
<text text-anchor="start" x="426.5" y="-340.5" font-family="FreeSans" font-size="10.00" fill="#000000">ActsFatras::Particle</text>
<text text-anchor="middle" x="475" y="-328.5" font-family="FreeSans" font-size="10.00" fill="#000000">::mass</text>
</a>
</g>
</g>
<!-- Node3&#45;&gt;Node6 -->
<g id="edge5" class="edge">
<title>Node3&#45;&gt;Node6</title>
<path fill="none" stroke="#191970" d="M358.1274,-322.0752C374.7303,-324.2664 392.0551,-326.553 408.1239,-328.6737"/>
<polygon fill="#191970" stroke="#191970" points="408.1097,-332.2021 418.4817,-330.0407 409.0257,-325.2623 408.1097,-332.2021"/>
</g>
<!-- Node7 -->
<g id="node7" class="node">
<title>Node7</title>
<g id="a_node7"><a xlink:href="../../db/dfd/classActsFatras_1_1Particle.html#a1086c72f8e0b531866be9e7046e61cfb" target="_top" xlink:title="Three&#45;position, i.e. spatial coordinates without the time.">
<polygon fill="none" stroke="#000000" points="418.5,-270.5 418.5,-302.5 531.5,-302.5 531.5,-270.5 418.5,-270.5"/>
<text text-anchor="start" x="426.5" y="-289.5" font-family="FreeSans" font-size="10.00" fill="#000000">ActsFatras::Particle</text>
<text text-anchor="middle" x="475" y="-277.5" font-family="FreeSans" font-size="10.00" fill="#000000">::position</text>
</a>
</g>
</g>
<!-- Node3&#45;&gt;Node7 -->
<g id="edge6" class="edge">
<title>Node3&#45;&gt;Node7</title>
<path fill="none" stroke="#191970" d="M358.1274,-301.3315C374.7303,-299.2246 392.0551,-297.026 408.1239,-294.9868"/>
<polygon fill="#191970" stroke="#191970" points="409.002,-298.4035 418.4817,-293.6724 408.1206,-291.4592 409.002,-298.4035"/>
</g>
<!-- Node8 -->
<g id="node8" class="node">
<title>Node8</title>
<g id="a_node8"><a xlink:href="../../db/dfd/classActsFatras_1_1Particle.html#a6fa44e26dadc6e8425b6b67b6c2c1c13" target="_top" xlink:title="Energy&#45;momentum four&#45;vector.">
<polygon fill="none" stroke="#000000" points="418.5,-219.5 418.5,-251.5 531.5,-251.5 531.5,-219.5 418.5,-219.5"/>
<text text-anchor="start" x="426.5" y="-238.5" font-family="FreeSans" font-size="10.00" fill="#000000">ActsFatras::Particle</text>
<text text-anchor="middle" x="475" y="-226.5" font-family="FreeSans" font-size="10.00" fill="#000000">::fourMomentum</text>
</a>
</g>
</g>
<!-- Node3&#45;&gt;Node8 -->
<g id="edge7" class="edge">
<title>Node3&#45;&gt;Node8</title>
<path fill="none" stroke="#191970" d="M312.9228,-295.4016C335.7646,-285.1329 366.3823,-271.8571 394,-261.5 399.9896,-259.2538 406.271,-257.0234 412.5742,-254.8678"/>
<polygon fill="#191970" stroke="#191970" points="414.0915,-258.0505 422.4581,-251.5504 411.8641,-251.4143 414.0915,-258.0505"/>
</g>
<!-- Node9 -->
<g id="node9" class="node">
<title>Node9</title>
<g id="a_node9"><a xlink:href="../../db/dfd/classActsFatras_1_1Particle.html#aac32c3f5cf0a4fb9c031f25bf043ba09" target="_top" xlink:title="Total energy, i.e. norm of the four&#45;momentum.">
<polygon fill="none" stroke="#000000" points="592,-219.5 592,-251.5 705,-251.5 705,-219.5 592,-219.5"/>
<text text-anchor="start" x="600" y="-238.5" font-family="FreeSans" font-size="10.00" fill="#000000">ActsFatras::Particle</text>
<text text-anchor="middle" x="648.5" y="-226.5" font-family="FreeSans" font-size="10.00" fill="#000000">::energy</text>
</a>
</g>
</g>
<!-- Node8&#45;&gt;Node9 -->
<g id="edge8" class="edge">
<title>Node8&#45;&gt;Node9</title>
<path fill="none" stroke="#191970" d="M531.8104,-235.5C547.7696,-235.5 565.2696,-235.5 581.751,-235.5"/>
<polygon fill="#191970" stroke="#191970" points="581.8585,-239.0001 591.8584,-235.5 581.8584,-232.0001 581.8585,-239.0001"/>
</g>
<!-- Node11 -->
<g id="node11" class="node">
<title>Node11</title>
<g id="a_node11"><a xlink:href="../../d9/d47/classActsFatras_1_1Hit.html#ac25a5799bf8ab2274e08a79dabf13080" target="_top" xlink:title="Space&#45;time position four&#45;vector.">
<polygon fill="none" stroke="#000000" points="397,-180.5 397,-200.5 553,-200.5 553,-180.5 397,-180.5"/>
<text text-anchor="middle" x="475" y="-187.5" font-family="FreeSans" font-size="10.00" fill="#000000">ActsFatras::Hit::fourPosition</text>
</a>
</g>
</g>
<!-- Node10&#45;&gt;Node11 -->
<g id="edge10" class="edge">
<title>Node10&#45;&gt;Node11</title>
<path fill="none" stroke="#191970" d="M311.4337,-136.6577C334.3048,-147.2742 365.524,-160.9203 394,-170.5 401.9927,-173.1889 410.5393,-175.6891 418.9744,-177.9475"/>
<polygon fill="#191970" stroke="#191970" points="418.2276,-181.3694 428.7854,-180.4843 419.98,-174.5923 418.2276,-181.3694"/>
</g>
<!-- Node12 -->
<g id="node12" class="node">
<title>Node12</title>
<g id="a_node12"><a xlink:href="../../d9/d47/classActsFatras_1_1Hit.html#a7bec20d0b37094a3b7ac26b463a31b50" target="_top" xlink:title="Particle four&#45;momentum before the hit.">
<polygon fill="none" stroke="#000000" points="394,-129.5 394,-161.5 556,-161.5 556,-129.5 394,-129.5"/>
<text text-anchor="start" x="402" y="-148.5" font-family="FreeSans" font-size="10.00" fill="#000000">ActsFatras::Hit::momentum4</text>
<text text-anchor="middle" x="475" y="-136.5" font-family="FreeSans" font-size="10.00" fill="#000000">Before</text>
</a>
</g>
</g>
<!-- Node10&#45;&gt;Node12 -->
<g id="edge11" class="edge">
<title>Node10&#45;&gt;Node12</title>
<path fill="none" stroke="#191970" d="M358.1274,-130.6685C366.6261,-131.747 375.3139,-132.8495 383.9256,-133.9423"/>
<polygon fill="#191970" stroke="#191970" points="383.6231,-137.4319 393.9842,-135.2188 384.5044,-130.4876 383.6231,-137.4319"/>
</g>
<!-- Node13 -->
<g id="node13" class="node">
<title>Node13</title>
<g id="a_node13"><a xlink:href="../../d9/d47/classActsFatras_1_1Hit.html#a6ea7d56aaccf98efba37d17d0fb9930f" target="_top" xlink:title="Particle four&#45;momentum after the hit.">
<polygon fill="none" stroke="#000000" points="394,-78.5 394,-110.5 556,-110.5 556,-78.5 394,-78.5"/>
<text text-anchor="start" x="402" y="-97.5" font-family="FreeSans" font-size="10.00" fill="#000000">ActsFatras::Hit::momentum4</text>
<text text-anchor="middle" x="475" y="-85.5" font-family="FreeSans" font-size="10.00" fill="#000000">After</text>
</a>
</g>
</g>
<!-- Node10&#45;&gt;Node13 -->
<g id="edge12" class="edge">
<title>Node10&#45;&gt;Node13</title>
<path fill="none" stroke="#191970" d="M358.1274,-109.9248C366.6261,-108.8032 375.3139,-107.6565 383.9256,-106.52"/>
<polygon fill="#191970" stroke="#191970" points="384.5281,-109.9709 393.9842,-105.1924 383.6122,-103.0311 384.5281,-109.9709"/>
</g>
<!-- Node14 -->
<g id="node14" class="node">
<title>Node14</title>
<g id="a_node14"><a xlink:href="../../d9/d47/classActsFatras_1_1Hit.html#a3e2b2b1ed5f32b2ae199949fbebff5c8" target="_top" xlink:title="Particle identifier of the particle that generated the hit.">
<polygon fill="none" stroke="#000000" points="403,-39.5 403,-59.5 547,-59.5 547,-39.5 403,-39.5"/>
<text text-anchor="middle" x="475" y="-46.5" font-family="FreeSans" font-size="10.00" fill="#000000">ActsFatras::Hit::particleId</text>
</a>
</g>
</g>
<!-- Node10&#45;&gt;Node14 -->
<g id="edge13" class="edge">
<title>Node10&#45;&gt;Node14</title>
<path fill="none" stroke="#191970" d="M309.3473,-104.479C332.324,-93.2261 364.5197,-78.4632 394,-68.5 400.8676,-66.179 408.1556,-64.0378 415.4352,-62.0951"/>
<polygon fill="#191970" stroke="#191970" points="416.494,-65.4371 425.3165,-59.5708 414.7613,-58.655 416.494,-65.4371"/>
</g>
<!-- Node15 -->
<g id="node15" class="node">
<title>Node15</title>
<g id="a_node15"><a xlink:href="../../d9/d47/classActsFatras_1_1Hit.html#a3139d3a5bbd8233d8105d6e51818cd29" target="_top" xlink:title="Geometry identifier of the hit surface.">
<polygon fill="none" stroke="#000000" points="397.5,-.5 397.5,-20.5 552.5,-20.5 552.5,-.5 397.5,-.5"/>
<text text-anchor="middle" x="475" y="-7.5" font-family="FreeSans" font-size="10.00" fill="#000000">ActsFatras::Hit::geometryId</text>
</a>
</g>
</g>
<!-- Node10&#45;&gt;Node15 -->
<g id="edge14" class="edge">
<title>Node10&#45;&gt;Node15</title>
<path fill="none" stroke="#191970" d="M293.7234,-104.4071C314.6923,-83.8937 353.8538,-48.7842 394,-29.5 398.6018,-27.2895 403.4768,-25.3273 408.462,-23.5868"/>
<polygon fill="#191970" stroke="#191970" points="409.6739,-26.8742 418.1416,-20.5063 407.551,-20.2038 409.6739,-26.8742"/>
</g>
</g>
</svg>
