<?xml version="1.0" encoding="UTF-8" standalone="no"?>
<!DOCTYPE svg PUBLIC "-//W3C//DTD SVG 1.1//EN"
 "http://www.w3.org/Graphics/SVG/1.1/DTD/svg11.dtd">
<!-- Generated by graphviz version 2.40.1 (20161225.0304)
 -->
<!-- Title: JetContainer::add_jet Pages: 1 -->
<svg width="484pt" height="245pt"
 viewBox="0.00 0.00 484.00 245.00" xmlns="http://www.w3.org/2000/svg" xmlns:xlink="http://www.w3.org/1999/xlink">
<g id="graph0" class="graph" transform="scale(1 1) rotate(0) translate(4 241)">
<title>JetContainer::add_jet</title>
<!-- Node1 -->
<g id="node1" class="node">
<title>Node1</title>
<polygon fill="#bfbfbf" stroke="#000000" points="0,-108.5 0,-128.5 124,-128.5 124,-108.5 0,-108.5"/>
<text text-anchor="middle" x="62" y="-115.5" font-family="FreeSans" font-size="10.00" fill="#000000">JetContainer::add_jet</text>
</g>
<!-- Node2 -->
<g id="node2" class="node">
<title>Node2</title>
<g id="a_node2"><a xlink:href="../../d6/d77/classFastJetAlgoSub.html#a2f572102e2f50eb020856f2d44f4c3ca" target="_top" xlink:title="FastJetAlgoSub::cluster\l_and_fill">
<polygon fill="none" stroke="#000000" points="166.5,-204.5 166.5,-236.5 299.5,-236.5 299.5,-204.5 166.5,-204.5"/>
<text text-anchor="start" x="174.5" y="-223.5" font-family="FreeSans" font-size="10.00" fill="#000000">FastJetAlgoSub::cluster</text>
<text text-anchor="middle" x="233" y="-211.5" font-family="FreeSans" font-size="10.00" fill="#000000">_and_fill</text>
</a>
</g>
</g>
<!-- Node1&#45;&gt;Node2 -->
<g id="edge1" class="edge">
<title>Node1&#45;&gt;Node2</title>
<path fill="none" stroke="#191970" d="M79.7734,-135.5185C98.4651,-152.646 129.3653,-178.8453 160,-195.5 166.0024,-198.7632 172.5104,-201.7185 179.0844,-204.3589"/>
<polygon fill="#191970" stroke="#191970" points="82.0199,-132.8278 72.3177,-128.5712 77.2478,-137.9491 82.0199,-132.8278"/>
</g>
<!-- Node3 -->
<g id="node3" class="node">
<title>Node3</title>
<g id="a_node3"><a xlink:href="../../df/d87/classFastJetAlgo.html#a7616ba9d85c8d817f0fa9e3da4c8ea8c" target="_top" xlink:title="FastJetAlgo::cluster\l_and_fill">
<polygon fill="none" stroke="#000000" points="176.5,-153.5 176.5,-185.5 289.5,-185.5 289.5,-153.5 176.5,-153.5"/>
<text text-anchor="start" x="184.5" y="-172.5" font-family="FreeSans" font-size="10.00" fill="#000000">FastJetAlgo::cluster</text>
<text text-anchor="middle" x="233" y="-160.5" font-family="FreeSans" font-size="10.00" fill="#000000">_and_fill</text>
</a>
</g>
</g>
<!-- Node1&#45;&gt;Node3 -->
<g id="edge2" class="edge">
<title>Node1&#45;&gt;Node3</title>
<path fill="none" stroke="#191970" d="M105.6663,-131.5233C128.0188,-138.1898 155.4335,-146.3661 179.0926,-153.4223"/>
<polygon fill="#191970" stroke="#191970" points="106.3673,-128.0801 95.7841,-128.576 104.3666,-134.7881 106.3673,-128.0801"/>
</g>
<!-- Node5 -->
<g id="node5" class="node">
<title>Node5</title>
<g id="a_node5"><a xlink:href="../../dd/d55/classJetProbeMaker.html#a53a2948eb8a3f2a4373c8200a1c80c58" target="_top" xlink:title="JetProbeMaker::process\l_event">
<polygon fill="none" stroke="#000000" points="165.5,-102.5 165.5,-134.5 300.5,-134.5 300.5,-102.5 165.5,-102.5"/>
<text text-anchor="start" x="173.5" y="-121.5" font-family="FreeSans" font-size="10.00" fill="#000000">JetProbeMaker::process</text>
<text text-anchor="middle" x="233" y="-109.5" font-family="FreeSans" font-size="10.00" fill="#000000">_event</text>
</a>
</g>
</g>
<!-- Node1&#45;&gt;Node5 -->
<g id="edge4" class="edge">
<title>Node1&#45;&gt;Node5</title>
<path fill="none" stroke="#191970" d="M134.3771,-118.5C144.6443,-118.5 155.1702,-118.5 165.3434,-118.5"/>
<polygon fill="#191970" stroke="#191970" points="134.2187,-115.0001 124.2187,-118.5 134.2186,-122.0001 134.2187,-115.0001"/>
</g>
<!-- Node6 -->
<g id="node6" class="node">
<title>Node6</title>
<g id="a_node6"><a xlink:href="../../d3/d26/classCopyAndSubtractJets.html#ad0aab36ec70213251d94f7d0eb2cc618" target="_top" xlink:title="CopyAndSubtractJets\l::process_event">
<polygon fill="none" stroke="#000000" points="171.5,-51.5 171.5,-83.5 294.5,-83.5 294.5,-51.5 171.5,-51.5"/>
<text text-anchor="start" x="179.5" y="-70.5" font-family="FreeSans" font-size="10.00" fill="#000000">CopyAndSubtractJets</text>
<text text-anchor="middle" x="233" y="-58.5" font-family="FreeSans" font-size="10.00" fill="#000000">::process_event</text>
</a>
</g>
</g>
<!-- Node1&#45;&gt;Node6 -->
<g id="edge5" class="edge">
<title>Node1&#45;&gt;Node6</title>
<path fill="none" stroke="#191970" d="M105.6663,-105.4767C128.0188,-98.8102 155.4335,-90.6339 179.0926,-83.5777"/>
<polygon fill="#191970" stroke="#191970" points="104.3666,-102.2119 95.7841,-108.424 106.3673,-108.9199 104.3666,-102.2119"/>
</g>
<!-- Node7 -->
<g id="node7" class="node">
<title>Node7</title>
<g id="a_node7"><a xlink:href="../../da/daf/classJetHepMCLoader.html#a0f3ee3e4aa8a5cfc1c915d062dd7abb8" target="_top" xlink:title="JetHepMCLoader::process\l_event">
<polygon fill="none" stroke="#000000" points="160,-.5 160,-32.5 306,-32.5 306,-.5 160,-.5"/>
<text text-anchor="start" x="168" y="-19.5" font-family="FreeSans" font-size="10.00" fill="#000000">JetHepMCLoader::process</text>
<text text-anchor="middle" x="233" y="-7.5" font-family="FreeSans" font-size="10.00" fill="#000000">_event</text>
</a>
</g>
</g>
<!-- Node1&#45;&gt;Node7 -->
<g id="edge6" class="edge">
<title>Node1&#45;&gt;Node7</title>
<path fill="none" stroke="#191970" d="M80.161,-101.5208C98.948,-84.6844 129.7299,-59.0717 160,-42.5 166.7264,-38.8175 174.0765,-35.4859 181.4391,-32.5315"/>
<polygon fill="#191970" stroke="#191970" points="77.6866,-99.0403 72.6491,-108.3609 82.3996,-104.216 77.6866,-99.0403"/>
</g>
<!-- Node4 -->
<g id="node4" class="node">
<title>Node4</title>
<g id="a_node4"><a xlink:href="../../df/d87/classFastJetAlgo.html#a189331aad33a542213a789385663714a" target="_top" xlink:title="FastJetAlgo::FastJetAlgo">
<polygon fill="none" stroke="#000000" points="342,-159.5 342,-179.5 476,-179.5 476,-159.5 342,-159.5"/>
<text text-anchor="middle" x="409" y="-166.5" font-family="FreeSans" font-size="10.00" fill="#000000">FastJetAlgo::FastJetAlgo</text>
</a>
</g>
</g>
<!-- Node3&#45;&gt;Node4 -->
<g id="edge3" class="edge">
<title>Node3&#45;&gt;Node4</title>
<path fill="none" stroke="#191970" d="M299.9479,-169.5C313.6206,-169.5 328.0137,-169.5 341.6988,-169.5"/>
<polygon fill="#191970" stroke="#191970" points="299.6563,-166.0001 289.6563,-169.5 299.6563,-173.0001 299.6563,-166.0001"/>
</g>
</g>
</svg>
