<?xml version="1.0" encoding="UTF-8" standalone="no"?>
<!DOCTYPE svg PUBLIC "-//W3C//DTD SVG 1.1//EN"
 "http://www.w3.org/Graphics/SVG/1.1/DTD/svg11.dtd">
<!-- Generated by graphviz version 2.40.1 (20161225.0304)
 -->
<!-- Title: FieldMapReadBack::Verbosity Pages: 1 -->
<svg width="341pt" height="68pt"
 viewBox="0.00 0.00 341.00 68.00" xmlns="http://www.w3.org/2000/svg" xmlns:xlink="http://www.w3.org/1999/xlink">
<g id="graph0" class="graph" transform="scale(1 1) rotate(0) translate(4 64)">
<title>FieldMapReadBack::Verbosity</title>
<!-- Node1 -->
<g id="node1" class="node">
<title>Node1</title>
<polygon fill="#bfbfbf" stroke="#000000" points="0,-19.5 0,-39.5 165,-39.5 165,-19.5 0,-19.5"/>
<text text-anchor="middle" x="82.5" y="-26.5" font-family="FreeSans" font-size="10.00" fill="#000000">FieldMapReadBack::Verbosity</text>
</g>
<!-- Node2 -->
<g id="node2" class="node">
<title>Node2</title>
<g id="a_node2"><a xlink:href="../../da/ddc/classPHField.html#ad7c24b839a6b0083c76f8a576a6cb005" target="_top" xlink:title="PHField::Verbosity">
<polygon fill="none" stroke="#000000" points="213.5,-39.5 213.5,-59.5 320.5,-59.5 320.5,-39.5 213.5,-39.5"/>
<text text-anchor="middle" x="267" y="-46.5" font-family="FreeSans" font-size="10.00" fill="#000000">PHField::Verbosity</text>
</a>
</g>
</g>
<!-- Node1&#45;&gt;Node2 -->
<g id="edge1" class="edge">
<title>Node1&#45;&gt;Node2</title>
<path fill="none" stroke="#191970" d="M165.0365,-38.4471C177.8543,-39.8365 190.9249,-41.2534 203.2439,-42.5888"/>
<polygon fill="#191970" stroke="#191970" points="203.074,-46.0908 213.3929,-43.6889 203.8284,-39.1315 203.074,-46.0908"/>
</g>
<!-- Node3 -->
<g id="node3" class="node">
<title>Node3</title>
<g id="a_node3"><a xlink:href="../../d5/dec/classFun4AllBase.html#a8a5c77a92bdac6bc043476e132379a40" target="_top" xlink:title="Gets the verbosity of this module.">
<polygon fill="none" stroke="#000000" points="201,-.5 201,-20.5 333,-20.5 333,-.5 201,-.5"/>
<text text-anchor="middle" x="267" y="-7.5" font-family="FreeSans" font-size="10.00" fill="#000000">Fun4AllBase::Verbosity</text>
</a>
</g>
</g>
<!-- Node1&#45;&gt;Node3 -->
<g id="edge2" class="edge">
<title>Node1&#45;&gt;Node3</title>
<path fill="none" stroke="#191970" d="M165.0365,-21.0003C173.5629,-20.1222 182.2013,-19.2327 190.6558,-18.362"/>
<polygon fill="#191970" stroke="#191970" points="191.2686,-21.8175 200.8575,-17.3114 190.5515,-14.8543 191.2686,-21.8175"/>
</g>
</g>
</svg>
