<?xml version="1.0" encoding="UTF-8" standalone="no"?>
<!DOCTYPE svg PUBLIC "-//W3C//DTD SVG 1.1//EN"
 "http://www.w3.org/Graphics/SVG/1.1/DTD/svg11.dtd">
<!-- Generated by graphviz version 2.40.1 (20161225.0304)
 -->
<!-- Title: acts/blob/sPHENIX/Fatras/Geant4/src/DummyDetectorConstruction.cpp Pages: 1 -->
<svg width="1023pt" height="167pt"
 viewBox="0.00 0.00 1022.50 167.00" xmlns="http://www.w3.org/2000/svg" xmlns:xlink="http://www.w3.org/1999/xlink">
<g id="graph0" class="graph" transform="scale(1 1) rotate(0) translate(4 163)">
<title>acts/blob/sPHENIX/Fatras/Geant4/src/DummyDetectorConstruction.cpp</title>
<!-- Node1 -->
<g id="node1" class="node">
<title>Node1</title>
<polygon fill="#bfbfbf" stroke="#000000" points="415,-126.5 415,-158.5 664,-158.5 664,-126.5 415,-126.5"/>
<text text-anchor="start" x="423" y="-145.5" font-family="FreeSans" font-size="10.00" fill="#000000">acts/blob/sPHENIX/Fatras</text>
<text text-anchor="middle" x="539.5" y="-133.5" font-family="FreeSans" font-size="10.00" fill="#000000">/Geant4/src/DummyDetectorConstruction.cpp</text>
</g>
<!-- Node2 -->
<g id="node2" class="node">
<title>Node2</title>
<g id="a_node2"><a xlink:href="../../d4/dd2/DummyDetectorConstruction_8hpp.html" target="_top" xlink:title="ActsFatras/Geant4/DummyDetector\lConstruction.hpp">
<polygon fill="none" stroke="#000000" points="0,-57.5 0,-89.5 197,-89.5 197,-57.5 0,-57.5"/>
<text text-anchor="start" x="8" y="-76.5" font-family="FreeSans" font-size="10.00" fill="#000000">ActsFatras/Geant4/DummyDetector</text>
<text text-anchor="middle" x="98.5" y="-64.5" font-family="FreeSans" font-size="10.00" fill="#000000">Construction.hpp</text>
</a>
</g>
</g>
<!-- Node1&#45;&gt;Node2 -->
<g id="edge1" class="edge">
<title>Node1&#45;&gt;Node2</title>
<path fill="none" stroke="#191970" d="M437.2173,-126.4966C368.3422,-115.7202 277.6191,-101.5254 207.4007,-90.5389"/>
<polygon fill="#191970" stroke="#191970" points="207.6153,-87.03 197.1944,-88.942 206.5332,-93.9458 207.6153,-87.03"/>
</g>
<!-- Node4 -->
<g id="node4" class="node">
<title>Node4</title>
<polygon fill="none" stroke="#bfbfbf" points="215,-63.5 215,-83.5 280,-83.5 280,-63.5 215,-63.5"/>
<text text-anchor="middle" x="247.5" y="-70.5" font-family="FreeSans" font-size="10.00" fill="#000000">G4Box.hh</text>
</g>
<!-- Node1&#45;&gt;Node4 -->
<g id="edge3" class="edge">
<title>Node1&#45;&gt;Node4</title>
<path fill="none" stroke="#191970" d="M444.78,-126.481C397.6372,-117.5326 340.0622,-105.1249 289.5,-90 286.6854,-89.1581 283.7942,-88.2087 280.9092,-87.2015"/>
<polygon fill="#191970" stroke="#191970" points="281.8379,-83.8133 271.2447,-83.6262 279.4091,-90.3785 281.8379,-83.8133"/>
</g>
<!-- Node5 -->
<g id="node5" class="node">
<title>Node5</title>
<polygon fill="none" stroke="#bfbfbf" points="298.5,-63.5 298.5,-83.5 418.5,-83.5 418.5,-63.5 298.5,-63.5"/>
<text text-anchor="middle" x="358.5" y="-70.5" font-family="FreeSans" font-size="10.00" fill="#000000">G4LogicalVolume.hh</text>
</g>
<!-- Node1&#45;&gt;Node5 -->
<g id="edge4" class="edge">
<title>Node1&#45;&gt;Node5</title>
<path fill="none" stroke="#191970" d="M497.52,-126.4966C466.2761,-114.5859 424.0779,-98.4993 394.3956,-87.184"/>
<polygon fill="#191970" stroke="#191970" points="395.434,-83.8342 384.8432,-83.5424 392.9405,-90.375 395.434,-83.8342"/>
</g>
<!-- Node6 -->
<g id="node6" class="node">
<title>Node6</title>
<polygon fill="none" stroke="#bfbfbf" points="437,-63.5 437,-83.5 524,-83.5 524,-63.5 437,-63.5"/>
<text text-anchor="middle" x="480.5" y="-70.5" font-family="FreeSans" font-size="10.00" fill="#000000">G4Material.hh</text>
</g>
<!-- Node1&#45;&gt;Node6 -->
<g id="edge5" class="edge">
<title>Node1&#45;&gt;Node6</title>
<path fill="none" stroke="#191970" d="M525.8159,-126.4966C516.8098,-115.964 505.0116,-102.1661 495.7113,-91.2895"/>
<polygon fill="#191970" stroke="#191970" points="498.3329,-88.9699 489.174,-83.6441 493.0127,-93.5191 498.3329,-88.9699"/>
</g>
<!-- Node7 -->
<g id="node7" class="node">
<title>Node7</title>
<polygon fill="none" stroke="#bfbfbf" points="542.5,-63.5 542.5,-83.5 654.5,-83.5 654.5,-63.5 542.5,-63.5"/>
<text text-anchor="middle" x="598.5" y="-70.5" font-family="FreeSans" font-size="10.00" fill="#000000">G4PVPlacement.hh</text>
</g>
<!-- Node1&#45;&gt;Node7 -->
<g id="edge6" class="edge">
<title>Node1&#45;&gt;Node7</title>
<path fill="none" stroke="#191970" d="M553.1841,-126.4966C562.1902,-115.964 573.9884,-102.1661 583.2887,-91.2895"/>
<polygon fill="#191970" stroke="#191970" points="585.9873,-93.5191 589.826,-83.6441 580.6671,-88.9699 585.9873,-93.5191"/>
</g>
<!-- Node8 -->
<g id="node8" class="node">
<title>Node8</title>
<polygon fill="none" stroke="#bfbfbf" points="673,-63.5 673,-83.5 782,-83.5 782,-63.5 673,-63.5"/>
<text text-anchor="middle" x="727.5" y="-70.5" font-family="FreeSans" font-size="10.00" fill="#000000">G4RunManager.hh</text>
</g>
<!-- Node1&#45;&gt;Node8 -->
<g id="edge7" class="edge">
<title>Node1&#45;&gt;Node8</title>
<path fill="none" stroke="#191970" d="M583.1035,-126.4966C615.6969,-114.5341 659.7673,-98.3594 690.6176,-87.0366"/>
<polygon fill="#191970" stroke="#191970" points="691.9563,-90.2737 700.138,-83.5424 689.5444,-83.7023 691.9563,-90.2737"/>
</g>
<!-- Node9 -->
<g id="node9" class="node">
<title>Node9</title>
<polygon fill="none" stroke="#bfbfbf" points="800.5,-63.5 800.5,-83.5 906.5,-83.5 906.5,-63.5 800.5,-63.5"/>
<text text-anchor="middle" x="853.5" y="-70.5" font-family="FreeSans" font-size="10.00" fill="#000000">G4ThreeVector.hh</text>
</g>
<!-- Node1&#45;&gt;Node9 -->
<g id="edge8" class="edge">
<title>Node1&#45;&gt;Node9</title>
<path fill="none" stroke="#191970" d="M622.0351,-126.4895C671.3624,-116.6265 735.1878,-103.3485 791.5,-90 796.5855,-88.7945 801.8896,-87.4766 807.1614,-86.128"/>
<polygon fill="#191970" stroke="#191970" points="808.3968,-89.4232 817.1935,-83.5182 806.6344,-82.6487 808.3968,-89.4232"/>
</g>
<!-- Node10 -->
<g id="node10" class="node">
<title>Node10</title>
<polygon fill="none" stroke="#bfbfbf" points="924.5,-63.5 924.5,-83.5 1014.5,-83.5 1014.5,-63.5 924.5,-63.5"/>
<text text-anchor="middle" x="969.5" y="-70.5" font-family="FreeSans" font-size="10.00" fill="#000000">QGSP_BERT.hh</text>
</g>
<!-- Node1&#45;&gt;Node10 -->
<g id="edge9" class="edge">
<title>Node1&#45;&gt;Node10</title>
<path fill="none" stroke="#191970" d="M664.0014,-130.1126C737.6546,-121.5465 832.4805,-108.359 915.5,-90 920.217,-88.9569 925.1191,-87.7039 929.9601,-86.3605"/>
<polygon fill="#191970" stroke="#191970" points="931.1102,-89.6711 939.7325,-83.5144 929.1527,-82.9503 931.1102,-89.6711"/>
</g>
<!-- Node3 -->
<g id="node3" class="node">
<title>Node3</title>
<polygon fill="none" stroke="#bfbfbf" points="6.5,-.5 6.5,-20.5 190.5,-20.5 190.5,-.5 6.5,-.5"/>
<text text-anchor="middle" x="98.5" y="-7.5" font-family="FreeSans" font-size="10.00" fill="#000000">G4VUserDetectorConstruction.hh</text>
</g>
<!-- Node2&#45;&gt;Node3 -->
<g id="edge2" class="edge">
<title>Node2&#45;&gt;Node3</title>
<path fill="none" stroke="#191970" d="M98.5,-57.2759C98.5,-49.2654 98.5,-39.5159 98.5,-30.9952"/>
<polygon fill="#191970" stroke="#191970" points="102.0001,-30.7512 98.5,-20.7513 95.0001,-30.7513 102.0001,-30.7512"/>
</g>
</g>
</svg>
