<?xml version="1.0" encoding="UTF-8" standalone="no"?>
<!DOCTYPE svg PUBLIC "-//W3C//DTD SVG 1.1//EN"
 "http://www.w3.org/Graphics/SVG/1.1/DTD/svg11.dtd">
<!-- Generated by graphviz version 2.40.1 (20161225.0304)
 -->
<!-- Title: coresoftware/blob/master/simulation/g4simulation/g4eval/SvtxClusterEval.cc Pages: 1 -->
<svg width="3429pt" height="407pt"
 viewBox="0.00 0.00 3428.50 407.00" xmlns="http://www.w3.org/2000/svg" xmlns:xlink="http://www.w3.org/1999/xlink">
<g id="graph0" class="graph" transform="scale(1 1) rotate(0) translate(4 403)">
<title>coresoftware/blob/master/simulation/g4simulation/g4eval/SvtxClusterEval.cc</title>
<!-- Node1 -->
<g id="node1" class="node">
<title>Node1</title>
<polygon fill="#bfbfbf" stroke="#000000" points="1492,-354.5 1492,-398.5 1644,-398.5 1644,-354.5 1492,-354.5"/>
<text text-anchor="start" x="1500" y="-385.5" font-family="FreeSans" font-size="10.00" fill="#000000">coresoftware/blob/master</text>
<text text-anchor="start" x="1500" y="-373.5" font-family="FreeSans" font-size="10.00" fill="#000000">/simulation/g4simulation</text>
<text text-anchor="middle" x="1568" y="-361.5" font-family="FreeSans" font-size="10.00" fill="#000000">/g4eval/SvtxClusterEval.cc</text>
</g>
<!-- Node2 -->
<g id="node2" class="node">
<title>Node2</title>
<g id="a_node2"><a xlink:href="../../d7/dcd/SvtxClusterEval_8h.html" target="_top" xlink:title="SvtxClusterEval.h">
<polygon fill="none" stroke="#000000" points="247.5,-297.5 247.5,-317.5 352.5,-317.5 352.5,-297.5 247.5,-297.5"/>
<text text-anchor="middle" x="300" y="-304.5" font-family="FreeSans" font-size="10.00" fill="#000000">SvtxClusterEval.h</text>
</a>
</g>
</g>
<!-- Node1&#45;&gt;Node2 -->
<g id="edge1" class="edge">
<title>Node1&#45;&gt;Node2</title>
<path fill="none" stroke="#191970" d="M1491.9101,-375.6101C1301.7515,-372.7746 790.6424,-361.3883 367,-318 365.5359,-317.8501 364.0551,-317.6897 362.5626,-317.5204"/>
<polygon fill="#191970" stroke="#191970" points="362.9522,-314.042 352.5979,-316.2863 362.0918,-320.9889 362.9522,-314.042"/>
</g>
<!-- Node3 -->
<g id="node3" class="node">
<title>Node3</title>
<g id="a_node3"><a xlink:href="../../d7/d98/SvtxHitEval_8h.html" target="_top" xlink:title="SvtxHitEval.h">
<polygon fill="none" stroke="#000000" points="301,-240.5 301,-260.5 385,-260.5 385,-240.5 301,-240.5"/>
<text text-anchor="middle" x="343" y="-247.5" font-family="FreeSans" font-size="10.00" fill="#000000">SvtxHitEval.h</text>
</a>
</g>
</g>
<!-- Node1&#45;&gt;Node3 -->
<g id="edge22" class="edge">
<title>Node1&#45;&gt;Node3</title>
<path fill="none" stroke="#191970" d="M1491.8399,-376.0018C1248.9456,-373.9535 502.8429,-363.9491 405,-318 382.8467,-307.5963 364.9323,-285.327 354.1604,-269.2063"/>
<polygon fill="#191970" stroke="#191970" points="356.9836,-267.1232 348.6654,-260.5613 351.076,-270.8783 356.9836,-267.1232"/>
</g>
<!-- Node4 -->
<g id="node4" class="node">
<title>Node4</title>
<g id="a_node4"><a xlink:href="../../d7/d20/SvtxTruthEval_8h.html" target="_top" xlink:title="SvtxTruthEval.h">
<polygon fill="none" stroke="#000000" points="105.5,-177.5 105.5,-197.5 200.5,-197.5 200.5,-177.5 105.5,-177.5"/>
<text text-anchor="middle" x="153" y="-184.5" font-family="FreeSans" font-size="10.00" fill="#000000">SvtxTruthEval.h</text>
</a>
</g>
</g>
<!-- Node1&#45;&gt;Node4 -->
<g id="edge23" class="edge">
<title>Node1&#45;&gt;Node4</title>
<path fill="none" stroke="#191970" d="M1491.9922,-375.0592C1217.9257,-369.6177 293.7074,-349.0374 239,-318 195.9116,-293.5545 170.5404,-237.5993 159.5315,-207.5137"/>
<polygon fill="#191970" stroke="#191970" points="162.711,-206.0008 156.1193,-197.7062 156.0998,-208.3011 162.711,-206.0008"/>
</g>
<!-- Node6 -->
<g id="node6" class="node">
<title>Node6</title>
<polygon fill="none" stroke="#bfbfbf" points="209,-57.5 209,-77.5 241,-77.5 241,-57.5 209,-57.5"/>
<text text-anchor="middle" x="225" y="-64.5" font-family="FreeSans" font-size="10.00" fill="#000000">set</text>
</g>
<!-- Node1&#45;&gt;Node6 -->
<g id="edge141" class="edge">
<title>Node1&#45;&gt;Node6</title>
<path fill="none" stroke="#191970" d="M1491.7135,-374.6956C1223.6517,-368.1512 334.3137,-344.6429 209,-318 129.0796,-301.0081 38,-332.2068 38,-250.5 38,-250.5 38,-250.5 38,-187.5 38,-149.8761 50.7681,-137.6866 80,-114 114.9096,-85.7128 167.3781,-74.4898 198.7031,-70.1412"/>
<polygon fill="#191970" stroke="#191970" points="199.3499,-73.5876 208.838,-68.873 198.4807,-66.6418 199.3499,-73.5876"/>
</g>
<!-- Node7 -->
<g id="node7" class="node">
<title>Node7</title>
<g id="a_node7"><a xlink:href="../../d8/d00/TrkrDefs_8h.html" target="_top" xlink:title="Namespace with Trkr key types and utility functions.">
<polygon fill="none" stroke="#000000" points="821,-114.5 821,-134.5 941,-134.5 941,-114.5 821,-114.5"/>
<text text-anchor="middle" x="881" y="-121.5" font-family="FreeSans" font-size="10.00" fill="#000000">trackbase/TrkrDefs.h</text>
</a>
</g>
</g>
<!-- Node1&#45;&gt;Node7 -->
<g id="edge33" class="edge">
<title>Node1&#45;&gt;Node7</title>
<path fill="none" stroke="#191970" d="M1491.8144,-372.5318C1291.9644,-361.324 756.801,-325.9478 593,-261 548.6366,-243.4097 525.1142,-245.7524 502,-204 494.8964,-191.1684 492.2811,-181.9842 502,-171 522.0874,-148.2974 706.9478,-134.2983 810.8697,-128.1552"/>
<polygon fill="#191970" stroke="#191970" points="811.1931,-131.6424 820.973,-127.5676 810.7867,-124.6542 811.1931,-131.6424"/>
</g>
<!-- Node9 -->
<g id="node9" class="node">
<title>Node9</title>
<polygon fill="none" stroke="#bfbfbf" points="1587,-.5 1587,-20.5 1647,-20.5 1647,-.5 1587,-.5"/>
<text text-anchor="middle" x="1617" y="-7.5" font-family="FreeSans" font-size="10.00" fill="#000000">iostream</text>
</g>
<!-- Node1&#45;&gt;Node9 -->
<g id="edge139" class="edge">
<title>Node1&#45;&gt;Node9</title>
<path fill="none" stroke="#191970" d="M1491.8239,-375.273C1193.9122,-370.2532 120.8735,-350.0171 56,-318 21.0451,-300.7486 0,-289.4802 0,-250.5 0,-250.5 0,-250.5 0,-124.5 0,-30.6851 107.6866,-73.7172 200,-57 338.4416,-31.9294 1359.8947,-14.5494 1576.6479,-11.1208"/>
<polygon fill="#191970" stroke="#191970" points="1576.9856,-14.616 1586.9293,-10.9591 1576.8755,-7.6169 1576.9856,-14.616"/>
</g>
<!-- Node10 -->
<g id="node10" class="node">
<title>Node10</title>
<polygon fill="none" stroke="#bfbfbf" points="959.5,-114.5 959.5,-134.5 998.5,-134.5 998.5,-114.5 959.5,-114.5"/>
<text text-anchor="middle" x="979" y="-121.5" font-family="FreeSans" font-size="10.00" fill="#000000">map</text>
</g>
<!-- Node1&#45;&gt;Node10 -->
<g id="edge140" class="edge">
<title>Node1&#45;&gt;Node10</title>
<path fill="none" stroke="#191970" d="M1491.72,-369.7055C1260.1743,-348.3155 577.3265,-279.3002 514,-204 504.56,-192.7751 504.065,-181.7892 514,-171 545.3839,-136.9179 869.8819,-144.5169 949.3532,-134.1118"/>
<polygon fill="#191970" stroke="#191970" points="949.9609,-137.5588 959.2365,-132.4389 948.7926,-130.657 949.9609,-137.5588"/>
</g>
<!-- Node14 -->
<g id="node14" class="node">
<title>Node14</title>
<g id="a_node14"><a xlink:href="../../d1/d4a/TrkrCluster_8h.html" target="_top" xlink:title="Base class for cluster object.">
<polygon fill="none" stroke="#000000" points="1502,-177.5 1502,-197.5 1634,-197.5 1634,-177.5 1502,-177.5"/>
<text text-anchor="middle" x="1568" y="-184.5" font-family="FreeSans" font-size="10.00" fill="#000000">trackbase/TrkrCluster.h</text>
</a>
</g>
</g>
<!-- Node1&#45;&gt;Node14 -->
<g id="edge24" class="edge">
<title>Node1&#45;&gt;Node14</title>
<path fill="none" stroke="#191970" d="M1568,-354.4494C1568,-317.5457 1568,-243.8027 1568,-207.9771"/>
<polygon fill="#191970" stroke="#191970" points="1571.5001,-207.7725 1568,-197.7726 1564.5001,-207.7726 1571.5001,-207.7725"/>
</g>
<!-- Node18 -->
<g id="node18" class="node">
<title>Node18</title>
<polygon fill="none" stroke="#bfbfbf" points="1933,-114.5 1933,-134.5 1981,-134.5 1981,-114.5 1933,-114.5"/>
<text text-anchor="middle" x="1957" y="-121.5" font-family="FreeSans" font-size="10.00" fill="#000000">cmath</text>
</g>
<!-- Node1&#45;&gt;Node18 -->
<g id="edge138" class="edge">
<title>Node1&#45;&gt;Node18</title>
<path fill="none" stroke="#191970" d="M1644.0051,-369.675C1741.5843,-356.372 1907.3189,-317.4164 1983,-204 1995.5135,-185.2471 1983.2873,-160.0013 1971.7258,-143.0345"/>
<polygon fill="#191970" stroke="#191970" points="1974.2568,-140.5656 1965.5325,-134.5542 1968.6038,-144.6941 1974.2568,-140.5656"/>
</g>
<!-- Node19 -->
<g id="node19" class="node">
<title>Node19</title>
<g id="a_node19"><a xlink:href="../../d2/d44/TrkrClusterContainer_8h.html" target="_top" xlink:title="Cluster container base class.">
<polygon fill="none" stroke="#000000" points="1145.5,-177.5 1145.5,-197.5 1326.5,-197.5 1326.5,-177.5 1145.5,-177.5"/>
<text text-anchor="middle" x="1236" y="-184.5" font-family="FreeSans" font-size="10.00" fill="#000000">trackbase/TrkrClusterContainer.h</text>
</a>
</g>
</g>
<!-- Node1&#45;&gt;Node19 -->
<g id="edge34" class="edge">
<title>Node1&#45;&gt;Node19</title>
<path fill="none" stroke="#191970" d="M1549.8874,-354.4497C1523.9513,-324.2823 1473.3307,-270.4269 1419,-240 1384.2051,-220.5138 1341.5579,-207.7336 1306.1893,-199.6668"/>
<polygon fill="#191970" stroke="#191970" points="1306.938,-196.2479 1296.4192,-197.5149 1305.4322,-203.084 1306.938,-196.2479"/>
</g>
<!-- Node20 -->
<g id="node20" class="node">
<title>Node20</title>
<g id="a_node20"><a xlink:href="../../d7/d04/TrkrClusterHitAssoc_8h.html" target="_top" xlink:title="Class for associating clusters to the hits that went into them.">
<polygon fill="none" stroke="#000000" points="1344.5,-171.5 1344.5,-203.5 1483.5,-203.5 1483.5,-171.5 1344.5,-171.5"/>
<text text-anchor="start" x="1352.5" y="-190.5" font-family="FreeSans" font-size="10.00" fill="#000000">trackbase/TrkrClusterHit</text>
<text text-anchor="middle" x="1414" y="-178.5" font-family="FreeSans" font-size="10.00" fill="#000000">Assoc.h</text>
</a>
</g>
</g>
<!-- Node1&#45;&gt;Node20 -->
<g id="edge40" class="edge">
<title>Node1&#45;&gt;Node20</title>
<path fill="none" stroke="#191970" d="M1557.9262,-354.4244C1544.1949,-325.8857 1517.5478,-275.631 1485,-240 1474.4991,-228.5044 1461.1553,-217.8669 1448.8771,-209.216"/>
<polygon fill="#191970" stroke="#191970" points="1450.8265,-206.309 1440.595,-203.5581 1446.8779,-212.089 1450.8265,-206.309"/>
</g>
<!-- Node21 -->
<g id="node21" class="node">
<title>Node21</title>
<g id="a_node21"><a xlink:href="../../d1/d21/TrkrHitTruthAssoc_8h.html" target="_top" xlink:title="trackbase/TrkrHitTruthAssoc.h">
<polygon fill="none" stroke="#000000" points="1652,-177.5 1652,-197.5 1818,-197.5 1818,-177.5 1652,-177.5"/>
<text text-anchor="middle" x="1735" y="-184.5" font-family="FreeSans" font-size="10.00" fill="#000000">trackbase/TrkrHitTruthAssoc.h</text>
</a>
</g>
</g>
<!-- Node1&#45;&gt;Node21 -->
<g id="edge47" class="edge">
<title>Node1&#45;&gt;Node21</title>
<path fill="none" stroke="#191970" d="M1587.4839,-354.4494C1620.7977,-316.7469 1688.0871,-240.5931 1718.9142,-205.7048"/>
<polygon fill="#191970" stroke="#191970" points="1721.9245,-207.5839 1725.9232,-197.7726 1716.6789,-202.9488 1721.9245,-207.5839"/>
</g>
<!-- Node22 -->
<g id="node22" class="node">
<title>Node22</title>
<g id="a_node22"><a xlink:href="../../d2/d92/PHG4HitDefs_8h.html" target="_top" xlink:title="g4main/PHG4HitDefs.h">
<polygon fill="none" stroke="#000000" points="2113,-114.5 2113,-134.5 2245,-134.5 2245,-114.5 2113,-114.5"/>
<text text-anchor="middle" x="2179" y="-121.5" font-family="FreeSans" font-size="10.00" fill="#000000">g4main/PHG4HitDefs.h</text>
</a>
</g>
</g>
<!-- Node1&#45;&gt;Node22 -->
<g id="edge93" class="edge">
<title>Node1&#45;&gt;Node22</title>
<path fill="none" stroke="#191970" d="M1644.2424,-374.7062C1844.6283,-368.1457 2377.4235,-338.1676 2475,-204 2483.6265,-192.1385 2484.5323,-182.1466 2475,-171 2460.8212,-154.42 2338.1225,-139.6022 2255.2153,-131.3565"/>
<polygon fill="#191970" stroke="#191970" points="2255.354,-127.8534 2245.0598,-130.3594 2254.67,-134.8199 2255.354,-127.8534"/>
</g>
<!-- Node24 -->
<g id="node24" class="node">
<title>Node24</title>
<g id="a_node24"><a xlink:href="../../d8/d2e/TrkrHitSet_8h.html" target="_top" xlink:title="Base Class Container for storing TrkrHit&#39;s.">
<polygon fill="none" stroke="#000000" points="729,-177.5 729,-197.5 857,-197.5 857,-177.5 729,-177.5"/>
<text text-anchor="middle" x="793" y="-184.5" font-family="FreeSans" font-size="10.00" fill="#000000">trackbase/TrkrHitSet.h</text>
</a>
</g>
</g>
<!-- Node1&#45;&gt;Node24 -->
<g id="edge55" class="edge">
<title>Node1&#45;&gt;Node24</title>
<path fill="none" stroke="#191970" d="M1516.4468,-354.4471C1442.4966,-323.7661 1301.3811,-268.7424 1176,-240 1040.8032,-209.0074 1002.7288,-227.3229 866,-204 858.7793,-202.7683 851.1987,-201.2789 843.7669,-199.7051"/>
<polygon fill="#191970" stroke="#191970" points="844.2891,-196.2367 833.7726,-197.5229 842.7958,-203.0756 844.2891,-196.2367"/>
</g>
<!-- Node25 -->
<g id="node25" class="node">
<title>Node25</title>
<g id="a_node25"><a xlink:href="../../d4/dbe/TrkrHitSetContainer_8h.html" target="_top" xlink:title="trackbase/TrkrHitSetContainer.h">
<polygon fill="none" stroke="#000000" points="875,-177.5 875,-197.5 1051,-197.5 1051,-177.5 875,-177.5"/>
<text text-anchor="middle" x="963" y="-184.5" font-family="FreeSans" font-size="10.00" fill="#000000">trackbase/TrkrHitSetContainer.h</text>
</a>
</g>
</g>
<!-- Node1&#45;&gt;Node25 -->
<g id="edge61" class="edge">
<title>Node1&#45;&gt;Node25</title>
<path fill="none" stroke="#191970" d="M1537.5278,-354.4526C1493.1319,-323.5168 1406.999,-267.8957 1325,-240 1277.627,-223.8839 1151.3967,-207.7146 1061.3497,-197.6648"/>
<polygon fill="#191970" stroke="#191970" points="1061.706,-194.183 1051.3815,-196.5607 1060.9354,-201.1404 1061.706,-194.183"/>
</g>
<!-- Node26 -->
<g id="node26" class="node">
<title>Node26</title>
<g id="a_node26"><a xlink:href="../../de/d83/PHG4Hit_8h.html" target="_top" xlink:title="g4main/PHG4Hit.h">
<polygon fill="none" stroke="#000000" points="2030,-177.5 2030,-197.5 2140,-197.5 2140,-177.5 2030,-177.5"/>
<text text-anchor="middle" x="2085" y="-184.5" font-family="FreeSans" font-size="10.00" fill="#000000">g4main/PHG4Hit.h</text>
</a>
</g>
</g>
<!-- Node1&#45;&gt;Node26 -->
<g id="edge67" class="edge">
<title>Node1&#45;&gt;Node26</title>
<path fill="none" stroke="#191970" d="M1644.4254,-374.8541C1756.2293,-371.0765 1957.4583,-358.6668 2016,-318 2054.074,-291.5514 2072.7925,-237.3229 2080.4989,-207.7788"/>
<polygon fill="#191970" stroke="#191970" points="2083.9698,-208.3175 2082.9306,-197.7738 2077.1678,-206.6642 2083.9698,-208.3175"/>
</g>
<!-- Node27 -->
<g id="node27" class="node">
<title>Node27</title>
<g id="a_node27"><a xlink:href="../../dd/d05/PHG4Particle_8h.html" target="_top" xlink:title="g4main/PHG4Particle.h">
<polygon fill="none" stroke="#000000" points="2334,-177.5 2334,-197.5 2466,-197.5 2466,-177.5 2334,-177.5"/>
<text text-anchor="middle" x="2400" y="-184.5" font-family="FreeSans" font-size="10.00" fill="#000000">g4main/PHG4Particle.h</text>
</a>
</g>
</g>
<!-- Node1&#45;&gt;Node27 -->
<g id="edge75" class="edge">
<title>Node1&#45;&gt;Node27</title>
<path fill="none" stroke="#191970" d="M1644.1809,-374.1275C1744.7244,-369.5554 1926.5773,-356.2811 2077,-318 2190.0726,-289.2241 2316.1534,-229.7091 2371.4245,-202.1253"/>
<polygon fill="#191970" stroke="#191970" points="2373.233,-205.1336 2380.5963,-197.5157 2370.0895,-198.8791 2373.233,-205.1336"/>
</g>
<!-- Node28 -->
<g id="node28" class="node">
<title>Node28</title>
<g id="a_node28"><a xlink:href="../../d4/d2a/PHG4VtxPoint_8h.html" target="_top" xlink:title="g4main/PHG4VtxPoint.h">
<polygon fill="none" stroke="#000000" points="1836.5,-177.5 1836.5,-197.5 1973.5,-197.5 1973.5,-177.5 1836.5,-177.5"/>
<text text-anchor="middle" x="1905" y="-184.5" font-family="FreeSans" font-size="10.00" fill="#000000">g4main/PHG4VtxPoint.h</text>
</a>
</g>
</g>
<!-- Node1&#45;&gt;Node28 -->
<g id="edge80" class="edge">
<title>Node1&#45;&gt;Node28</title>
<path fill="none" stroke="#191970" d="M1607.3177,-354.4494C1676.7026,-315.5362 1819.1231,-235.6624 1878.3002,-202.4741"/>
<polygon fill="#191970" stroke="#191970" points="1880.0491,-205.5061 1887.0591,-197.5618 1876.625,-199.4007 1880.0491,-205.5061"/>
</g>
<!-- Node29 -->
<g id="node29" class="node">
<title>Node29</title>
<g id="a_node29"><a xlink:href="../../d3/d08/PHG4HitContainer_8h.html" target="_top" xlink:title="g4main/PHG4HitContainer.h">
<polygon fill="none" stroke="#000000" points="2158,-177.5 2158,-197.5 2316,-197.5 2316,-177.5 2158,-177.5"/>
<text text-anchor="middle" x="2237" y="-184.5" font-family="FreeSans" font-size="10.00" fill="#000000">g4main/PHG4HitContainer.h</text>
</a>
</g>
</g>
<!-- Node1&#45;&gt;Node29 -->
<g id="edge85" class="edge">
<title>Node1&#45;&gt;Node29</title>
<path fill="none" stroke="#191970" d="M1644.435,-371.2997C1758.9687,-362.7872 1969.2337,-344.1683 2040,-318 2112.7181,-291.11 2185.4312,-232.803 2218.5175,-204.1186"/>
<polygon fill="#191970" stroke="#191970" points="2220.8478,-206.7302 2226.0514,-197.5013 2216.2283,-201.4709 2220.8478,-206.7302"/>
</g>
<!-- Node30 -->
<g id="node30" class="node">
<title>Node30</title>
<g id="a_node30"><a xlink:href="../../d0/d25/PHG4TruthInfoContainer_8h.html" target="_top" xlink:title="g4main/PHG4TruthInfoContainer.h">
<polygon fill="none" stroke="#000000" points="523,-177.5 523,-197.5 711,-197.5 711,-177.5 523,-177.5"/>
<text text-anchor="middle" x="617" y="-184.5" font-family="FreeSans" font-size="10.00" fill="#000000">g4main/PHG4TruthInfoContainer.h</text>
</a>
</g>
</g>
<!-- Node1&#45;&gt;Node30 -->
<g id="edge94" class="edge">
<title>Node1&#45;&gt;Node30</title>
<path fill="none" stroke="#191970" d="M1491.7833,-361.3528C1308.0863,-324.8452 843.8079,-232.5754 677.4614,-199.516"/>
<polygon fill="#191970" stroke="#191970" points="677.9005,-196.0349 667.4101,-197.5184 676.536,-202.9006 677.9005,-196.0349"/>
</g>
<!-- Node32 -->
<g id="node32" class="node">
<title>Node32</title>
<g id="a_node32"><a xlink:href="../../dd/dd4/getClass_8h.html" target="_top" xlink:title="phool/getClass.h">
<polygon fill="none" stroke="#000000" points="2593,-297.5 2593,-317.5 2693,-317.5 2693,-297.5 2593,-297.5"/>
<text text-anchor="middle" x="2643" y="-304.5" font-family="FreeSans" font-size="10.00" fill="#000000">phool/getClass.h</text>
</a>
</g>
</g>
<!-- Node1&#45;&gt;Node32 -->
<g id="edge100" class="edge">
<title>Node1&#45;&gt;Node32</title>
<path fill="none" stroke="#191970" d="M1644.1786,-372.1597C1804.213,-362.9534 2187.0791,-340.465 2508,-318 2532.4114,-316.2912 2559.2916,-314.2359 2582.5965,-312.3986"/>
<polygon fill="#191970" stroke="#191970" points="2582.9959,-315.878 2592.6882,-311.599 2582.443,-308.8998 2582.9959,-315.878"/>
</g>
<!-- Node44 -->
<g id="node44" class="node">
<title>Node44</title>
<g id="a_node44"><a xlink:href="../../dc/d26/PHTimer_8h.html" target="_top" xlink:title="high precision timer">
<polygon fill="none" stroke="#000000" points="3222.5,-114.5 3222.5,-134.5 3321.5,-134.5 3321.5,-114.5 3222.5,-114.5"/>
<text text-anchor="middle" x="3272" y="-121.5" font-family="FreeSans" font-size="10.00" fill="#000000">phool/PHTimer.h</text>
</a>
</g>
</g>
<!-- Node1&#45;&gt;Node44 -->
<g id="edge130" class="edge">
<title>Node1&#45;&gt;Node44</title>
<path fill="none" stroke="#191970" d="M1644.3246,-375.9334C1908.5129,-373.1374 2782.1074,-356.699 3043,-261 3125.4671,-230.7499 3211.5183,-170.3315 3250.5158,-141.1006"/>
<polygon fill="#191970" stroke="#191970" points="3253.1034,-143.5313 3258.9616,-134.7033 3248.8768,-137.9513 3253.1034,-143.5313"/>
</g>
<!-- Node48 -->
<g id="node48" class="node">
<title>Node48</title>
<polygon fill="none" stroke="#bfbfbf" points="3004.5,-297.5 3004.5,-317.5 3057.5,-317.5 3057.5,-297.5 3004.5,-297.5"/>
<text text-anchor="middle" x="3031" y="-304.5" font-family="FreeSans" font-size="10.00" fill="#000000">cassert</text>
</g>
<!-- Node1&#45;&gt;Node48 -->
<g id="edge136" class="edge">
<title>Node1&#45;&gt;Node48</title>
<path fill="none" stroke="#191970" d="M1644.1767,-375.4707C1899.9569,-371.6848 2726.7491,-356.6866 2990,-318 2991.4539,-317.7863 2992.9309,-317.542 2994.4185,-317.273"/>
<polygon fill="#191970" stroke="#191970" points="2995.191,-320.6872 3004.2575,-315.2056 2993.7515,-313.8368 2995.191,-320.6872"/>
</g>
<!-- Node49 -->
<g id="node49" class="node">
<title>Node49</title>
<polygon fill="none" stroke="#bfbfbf" points="3075.5,-297.5 3075.5,-317.5 3120.5,-317.5 3120.5,-297.5 3075.5,-297.5"/>
<text text-anchor="middle" x="3098" y="-304.5" font-family="FreeSans" font-size="10.00" fill="#000000">cfloat</text>
</g>
<!-- Node1&#45;&gt;Node49 -->
<g id="edge137" class="edge">
<title>Node1&#45;&gt;Node49</title>
<path fill="none" stroke="#191970" d="M1644.1006,-374.8115C1923.7477,-368.4346 2887.1375,-344.8891 3065.2524,-317.7187"/>
<polygon fill="#191970" stroke="#191970" points="3065.8922,-321.1603 3075.1726,-316.0491 3064.7303,-314.2574 3065.8922,-321.1603"/>
</g>
<!-- Node50 -->
<g id="node50" class="node">
<title>Node50</title>
<polygon fill="none" stroke="#bfbfbf" points="3138.5,-297.5 3138.5,-317.5 3209.5,-317.5 3209.5,-297.5 3138.5,-297.5"/>
<text text-anchor="middle" x="3174" y="-304.5" font-family="FreeSans" font-size="10.00" fill="#000000">TVector3.h</text>
</g>
<!-- Node1&#45;&gt;Node50 -->
<g id="edge142" class="edge">
<title>Node1&#45;&gt;Node50</title>
<path fill="none" stroke="#191970" d="M1644.4562,-375.6287C1913.6087,-372.2541 2817.3285,-358.2405 3127.745,-318.0571"/>
<polygon fill="#191970" stroke="#191970" points="3128.641,-321.4687 3138.0907,-316.6778 3127.7158,-314.5301 3128.641,-321.4687"/>
</g>
<!-- Node2&#45;&gt;Node3 -->
<g id="edge2" class="edge">
<title>Node2&#45;&gt;Node3</title>
<path fill="none" stroke="#191970" d="M307.6875,-297.3095C313.68,-289.3661 322.1549,-278.1319 329.3002,-268.6602"/>
<polygon fill="#191970" stroke="#191970" points="332.1507,-270.6933 335.379,-260.6022 326.5625,-266.4776 332.1507,-270.6933"/>
</g>
<!-- Node2&#45;&gt;Node6 -->
<g id="edge20" class="edge">
<title>Node2&#45;&gt;Node6</title>
<path fill="none" stroke="#191970" d="M249.6447,-297.4944C200.9169,-284.8607 129.6392,-257.908 96,-204 74.8229,-170.0629 71.9646,-146.7043 95,-114 107.1962,-96.6845 164.5024,-81.1167 198.8272,-73.1349"/>
<polygon fill="#191970" stroke="#191970" points="199.6859,-76.5291 208.6665,-70.9078 198.1405,-69.7018 199.6859,-76.5291"/>
</g>
<!-- Node2&#45;&gt;Node7 -->
<g id="edge17" class="edge">
<title>Node2&#45;&gt;Node7</title>
<path fill="none" stroke="#191970" d="M296.0858,-297.1629C291.5797,-283.6769 285.5749,-259.5022 292,-240 303.9325,-203.7807 309.7232,-189.6247 343,-171 382.866,-148.6874 673.9288,-133.3946 810.5468,-127.3674"/>
<polygon fill="#191970" stroke="#191970" points="811.0649,-130.8483 820.9027,-126.9153 810.7595,-123.8549 811.0649,-130.8483"/>
</g>
<!-- Node2&#45;&gt;Node10 -->
<g id="edge18" class="edge">
<title>Node2&#45;&gt;Node10</title>
<path fill="none" stroke="#191970" d="M326.0763,-297.4667C345.7327,-289.2444 372.8284,-276.4646 394,-261 438.9252,-228.1848 430.6529,-194.6703 481,-171 572.9169,-127.786 832.5353,-155.3286 949.3937,-134.4101"/>
<polygon fill="#191970" stroke="#191970" points="950.1133,-137.8356 959.2399,-132.4546 948.7497,-130.9697 950.1133,-137.8356"/>
</g>
<!-- Node12 -->
<g id="node12" class="node">
<title>Node12</title>
<polygon fill="none" stroke="#bfbfbf" points="325,-114.5 325,-134.5 383,-134.5 383,-114.5 325,-114.5"/>
<text text-anchor="middle" x="354" y="-121.5" font-family="FreeSans" font-size="10.00" fill="#000000">memory</text>
</g>
<!-- Node2&#45;&gt;Node12 -->
<g id="edge19" class="edge">
<title>Node2&#45;&gt;Node12</title>
<path fill="none" stroke="#191970" d="M284.5389,-297.3456C273.4415,-289.0599 259.3661,-276.2537 253,-261 237.5939,-224.0859 231.426,-204.6833 253,-171 266.6334,-149.7143 292.7451,-138.0379 315.0026,-131.7096"/>
<polygon fill="#191970" stroke="#191970" points="316.0869,-135.0447 324.8992,-129.163 314.3424,-128.2655 316.0869,-135.0447"/>
</g>
<!-- Node13 -->
<g id="node13" class="node">
<title>Node13</title>
<polygon fill="none" stroke="#bfbfbf" points="1174.5,-114.5 1174.5,-134.5 1219.5,-134.5 1219.5,-114.5 1174.5,-114.5"/>
<text text-anchor="middle" x="1197" y="-121.5" font-family="FreeSans" font-size="10.00" fill="#000000">utility</text>
</g>
<!-- Node2&#45;&gt;Node13 -->
<g id="edge21" class="edge">
<title>Node2&#45;&gt;Node13</title>
<path fill="none" stroke="#191970" d="M352.5089,-304.3022C507.333,-294.3058 959.6204,-260.8733 1095,-204 1116.8864,-194.8055 1118.2846,-185.6044 1137,-171 1149.7501,-161.0505 1164.064,-149.9545 1175.5124,-141.0975"/>
<polygon fill="#191970" stroke="#191970" points="1177.8649,-143.7028 1183.6351,-134.8171 1173.5831,-138.165 1177.8649,-143.7028"/>
</g>
<!-- Node3&#45;&gt;Node4 -->
<g id="edge3" class="edge">
<title>Node3&#45;&gt;Node4</title>
<path fill="none" stroke="#191970" d="M312.4732,-240.378C280.0642,-229.6318 228.7004,-212.6007 193.0582,-200.7825"/>
<polygon fill="#191970" stroke="#191970" points="194.0444,-197.4221 183.451,-197.5969 191.8413,-204.0664 194.0444,-197.4221"/>
</g>
<!-- Node3&#45;&gt;Node6 -->
<g id="edge15" class="edge">
<title>Node3&#45;&gt;Node6</title>
<path fill="none" stroke="#191970" d="M340.2174,-240.2907C336.4945,-224.4768 331.593,-193.5353 343,-171 355.2044,-146.8893 379.7956,-159.1107 392,-135 396.2151,-126.6727 397.6456,-121.4323 392,-114 374.966,-91.575 293.5936,-77.0871 251.0507,-70.9157"/>
<polygon fill="#191970" stroke="#191970" points="251.523,-67.4478 241.134,-69.5261 250.5516,-74.38 251.523,-67.4478"/>
</g>
<!-- Node3&#45;&gt;Node7 -->
<g id="edge13" class="edge">
<title>Node3&#45;&gt;Node7</title>
<path fill="none" stroke="#191970" d="M342.7335,-240.2771C342.8957,-222.9728 345.9911,-188.1255 367,-171 383.9428,-157.189 673.7896,-137.4102 810.5882,-128.7899"/>
<polygon fill="#191970" stroke="#191970" points="811.1995,-132.2585 820.9607,-128.1392 810.7612,-125.2722 811.1995,-132.2585"/>
</g>
<!-- Node3&#45;&gt;Node10 -->
<g id="edge14" class="edge">
<title>Node3&#45;&gt;Node10</title>
<path fill="none" stroke="#191970" d="M351.6827,-240.4208C367.6679,-222.6753 403.7314,-186.289 443,-171 650.4245,-90.2407 726.7803,-179.2174 949.2248,-134.5518"/>
<polygon fill="#191970" stroke="#191970" points="950.1644,-137.9314 959.2433,-132.4702 948.7403,-131.0778 950.1644,-137.9314"/>
</g>
<!-- Node3&#45;&gt;Node13 -->
<g id="edge16" class="edge">
<title>Node3&#45;&gt;Node13</title>
<path fill="none" stroke="#191970" d="M385.4265,-249.1854C529.8545,-244.5128 996.9501,-227.7082 1060,-204 1082.5489,-195.5211 1082.5507,-183.7347 1103,-171 1122.8732,-158.6241 1146.4978,-146.949 1165.0915,-138.3932"/>
<polygon fill="#191970" stroke="#191970" points="1166.6457,-141.5315 1174.3096,-134.2162 1163.7565,-135.1556 1166.6457,-141.5315"/>
</g>
<!-- Node5 -->
<g id="node5" class="node">
<title>Node5</title>
<g id="a_node5"><a xlink:href="../../d8/d89/BaseTruthEval_8h.html" target="_top" xlink:title="BaseTruthEval.h">
<polygon fill="none" stroke="#000000" points="104.5,-114.5 104.5,-134.5 201.5,-134.5 201.5,-114.5 104.5,-114.5"/>
<text text-anchor="middle" x="153" y="-121.5" font-family="FreeSans" font-size="10.00" fill="#000000">BaseTruthEval.h</text>
</a>
</g>
</g>
<!-- Node4&#45;&gt;Node5 -->
<g id="edge4" class="edge">
<title>Node4&#45;&gt;Node5</title>
<path fill="none" stroke="#191970" d="M153,-177.378C153,-168.7041 153,-155.9355 153,-145.1186"/>
<polygon fill="#191970" stroke="#191970" points="156.5001,-144.8062 153,-134.8062 149.5001,-144.8062 156.5001,-144.8062"/>
</g>
<!-- Node4&#45;&gt;Node6 -->
<g id="edge10" class="edge">
<title>Node4&#45;&gt;Node6</title>
<path fill="none" stroke="#191970" d="M188.4653,-177.4086C221.6433,-167.166 267.6097,-150.6335 278,-135 290.6587,-115.9534 269.0844,-95.4808 249.7771,-82.1393"/>
<polygon fill="#191970" stroke="#191970" points="251.4846,-79.0743 241.1969,-76.542 247.66,-84.9372 251.4846,-79.0743"/>
</g>
<!-- Node4&#45;&gt;Node7 -->
<g id="edge6" class="edge">
<title>Node4&#45;&gt;Node7</title>
<path fill="none" stroke="#191970" d="M200.6893,-178.7367C217.2098,-175.939 235.8774,-173.0424 253,-171 454.5323,-146.9614 694.0284,-133.3337 810.4428,-127.6589"/>
<polygon fill="#191970" stroke="#191970" points="810.8229,-131.1447 820.6426,-127.1667 810.4855,-124.1529 810.8229,-131.1447"/>
</g>
<!-- Node4&#45;&gt;Node10 -->
<g id="edge9" class="edge">
<title>Node4&#45;&gt;Node10</title>
<path fill="none" stroke="#191970" d="M200.5824,-183.6219C243.9393,-180.1379 309.7527,-174.9742 367,-171 622.6935,-153.2492 694.003,-186.8544 949.3079,-134.5557"/>
<polygon fill="#191970" stroke="#191970" points="950.167,-137.9521 959.2485,-132.4953 948.7463,-131.0978 950.167,-137.9521"/>
</g>
<!-- Node11 -->
<g id="node11" class="node">
<title>Node11</title>
<polygon fill="none" stroke="#bfbfbf" points="219.5,-114.5 219.5,-134.5 268.5,-134.5 268.5,-114.5 219.5,-114.5"/>
<text text-anchor="middle" x="244" y="-121.5" font-family="FreeSans" font-size="10.00" fill="#000000">vector</text>
</g>
<!-- Node4&#45;&gt;Node11 -->
<g id="edge11" class="edge">
<title>Node4&#45;&gt;Node11</title>
<path fill="none" stroke="#191970" d="M167.6207,-177.378C181.9489,-167.4584 204.0125,-152.1837 220.7487,-140.597"/>
<polygon fill="#191970" stroke="#191970" points="223.1859,-143.1667 229.4156,-134.5969 219.2014,-137.4114 223.1859,-143.1667"/>
</g>
<!-- Node4&#45;&gt;Node12 -->
<g id="edge12" class="edge">
<title>Node4&#45;&gt;Node12</title>
<path fill="none" stroke="#191970" d="M185.2941,-177.378C220.6428,-166.2985 277.3067,-148.5382 315.0818,-136.6982"/>
<polygon fill="#191970" stroke="#191970" points="316.2321,-140.0057 324.7275,-133.675 314.1384,-133.3261 316.2321,-140.0057"/>
</g>
<!-- Node5&#45;&gt;Node6 -->
<g id="edge5" class="edge">
<title>Node5&#45;&gt;Node6</title>
<path fill="none" stroke="#191970" d="M165.8722,-114.3095C176.5203,-105.8798 191.8498,-93.7439 204.2318,-83.9415"/>
<polygon fill="#191970" stroke="#191970" points="206.5713,-86.5535 212.2393,-77.6022 202.2263,-81.0651 206.5713,-86.5535"/>
</g>
<!-- Node8 -->
<g id="node8" class="node">
<title>Node8</title>
<polygon fill="none" stroke="#bfbfbf" points="855.5,-57.5 855.5,-77.5 906.5,-77.5 906.5,-57.5 855.5,-57.5"/>
<text text-anchor="middle" x="881" y="-64.5" font-family="FreeSans" font-size="10.00" fill="#000000">cstdint</text>
</g>
<!-- Node7&#45;&gt;Node8 -->
<g id="edge7" class="edge">
<title>Node7&#45;&gt;Node8</title>
<path fill="none" stroke="#191970" d="M881,-114.3095C881,-106.9335 881,-96.72 881,-87.715"/>
<polygon fill="#191970" stroke="#191970" points="884.5001,-87.6022 881,-77.6022 877.5001,-87.6023 884.5001,-87.6022"/>
</g>
<!-- Node7&#45;&gt;Node9 -->
<g id="edge8" class="edge">
<title>Node7&#45;&gt;Node9</title>
<path fill="none" stroke="#191970" d="M904.5529,-114.3775C941.1303,-99.1408 1014.1405,-70.6471 1079,-57 1174.2226,-36.9642 1468.7718,-18.8464 1576.7718,-12.7104"/>
<polygon fill="#191970" stroke="#191970" points="1577.1391,-16.1953 1586.9261,-12.1376 1576.7448,-9.2064 1577.1391,-16.1953"/>
</g>
<!-- Node14&#45;&gt;Node7 -->
<g id="edge25" class="edge">
<title>Node14&#45;&gt;Node7</title>
<path fill="none" stroke="#191970" d="M1527.7223,-177.4734C1516.5399,-175.0087 1504.3512,-172.6163 1493,-171 1257.2587,-137.4334 1192.778,-160.2839 951.4274,-134.9478"/>
<polygon fill="#191970" stroke="#191970" points="951.6031,-131.4467 941.2882,-133.8661 950.8605,-138.4072 951.6031,-131.4467"/>
</g>
<!-- Node14&#45;&gt;Node9 -->
<g id="edge31" class="edge">
<title>Node14&#45;&gt;Node9</title>
<path fill="none" stroke="#191970" d="M1563.6501,-177.3716C1558.111,-163.0643 1549.9438,-136.2031 1556,-114 1564.9481,-81.1944 1587.2387,-48.1966 1602.2487,-28.5562"/>
<polygon fill="#191970" stroke="#191970" points="1605.1352,-30.5474 1608.5587,-20.5209 1599.6299,-26.2241 1605.1352,-30.5474"/>
</g>
<!-- Node14&#45;&gt;Node12 -->
<g id="edge32" class="edge">
<title>Node14&#45;&gt;Node12</title>
<path fill="none" stroke="#191970" d="M1528.5282,-177.4437C1517.135,-174.9154 1504.6364,-172.4977 1493,-171 1090.6696,-119.2179 986.2769,-152.3718 581,-135 515.135,-132.1768 438.5364,-128.5654 393.2805,-126.3977"/>
<polygon fill="#191970" stroke="#191970" points="393.1785,-122.8889 383.0222,-125.9054 392.8429,-129.8809 393.1785,-122.8889"/>
</g>
<!-- Node15 -->
<g id="node15" class="node">
<title>Node15</title>
<g id="a_node15"><a xlink:href="../../df/d32/PHObject_8h.html" target="_top" xlink:title="phool/PHObject.h">
<polygon fill="none" stroke="#000000" points="1565,-114.5 1565,-134.5 1669,-134.5 1669,-114.5 1565,-114.5"/>
<text text-anchor="middle" x="1617" y="-121.5" font-family="FreeSans" font-size="10.00" fill="#000000">phool/PHObject.h</text>
</a>
</g>
</g>
<!-- Node14&#45;&gt;Node15 -->
<g id="edge26" class="edge">
<title>Node14&#45;&gt;Node15</title>
<path fill="none" stroke="#191970" d="M1575.8727,-177.378C1583.1162,-168.0649 1594.031,-154.0316 1602.7965,-142.7617"/>
<polygon fill="#191970" stroke="#191970" points="1605.6074,-144.8486 1608.9841,-134.8062 1600.0819,-140.551 1605.6074,-144.8486"/>
</g>
<!-- Node17 -->
<g id="node17" class="node">
<title>Node17</title>
<polygon fill="none" stroke="#bfbfbf" points="1687.5,-114.5 1687.5,-134.5 1736.5,-134.5 1736.5,-114.5 1687.5,-114.5"/>
<text text-anchor="middle" x="1712" y="-121.5" font-family="FreeSans" font-size="10.00" fill="#000000">climits</text>
</g>
<!-- Node14&#45;&gt;Node17 -->
<g id="edge29" class="edge">
<title>Node14&#45;&gt;Node17</title>
<path fill="none" stroke="#191970" d="M1591.1361,-177.378C1615.0689,-166.9073 1652.6402,-150.4699 1679.5391,-138.7016"/>
<polygon fill="#191970" stroke="#191970" points="1681.1626,-141.8117 1688.9213,-134.5969 1678.3569,-135.3986 1681.1626,-141.8117"/>
</g>
<!-- Node14&#45;&gt;Node18 -->
<g id="edge30" class="edge">
<title>Node14&#45;&gt;Node18</title>
<path fill="none" stroke="#191970" d="M1611.1254,-177.4749C1621.5333,-175.2043 1632.6411,-172.9041 1643,-171 1744.2837,-152.3826 1865.013,-136.168 1922.8311,-128.7684"/>
<polygon fill="#191970" stroke="#191970" points="1923.3976,-132.2247 1932.876,-127.4908 1922.5143,-125.2806 1923.3976,-132.2247"/>
</g>
<!-- Node15&#45;&gt;Node9 -->
<g id="edge28" class="edge">
<title>Node15&#45;&gt;Node9</title>
<path fill="none" stroke="#191970" d="M1617,-114.3833C1617,-95.6703 1617,-55.3266 1617,-30.7866"/>
<polygon fill="#191970" stroke="#191970" points="1620.5001,-30.7579 1617,-20.7579 1613.5001,-30.758 1620.5001,-30.7579"/>
</g>
<!-- Node16 -->
<g id="node16" class="node">
<title>Node16</title>
<polygon fill="none" stroke="#bfbfbf" points="3084.5,-57.5 3084.5,-77.5 3149.5,-77.5 3149.5,-57.5 3084.5,-57.5"/>
<text text-anchor="middle" x="3117" y="-64.5" font-family="FreeSans" font-size="10.00" fill="#000000">TObject.h</text>
</g>
<!-- Node15&#45;&gt;Node16 -->
<g id="edge27" class="edge">
<title>Node15&#45;&gt;Node16</title>
<path fill="none" stroke="#191970" d="M1669.0239,-115.1421C1672.3932,-114.7055 1675.7403,-114.3179 1679,-114 2275.9367,-55.7813 2429.7874,-121.1804 3028,-78 3042.9847,-76.9184 3059.3278,-75.1588 3073.8725,-73.3866"/>
<polygon fill="#191970" stroke="#191970" points="3074.6138,-76.8211 3084.1003,-72.1035 3073.7423,-69.8756 3074.6138,-76.8211"/>
</g>
<!-- Node19&#45;&gt;Node7 -->
<g id="edge35" class="edge">
<title>Node19&#45;&gt;Node7</title>
<path fill="none" stroke="#191970" d="M1179.3567,-177.4478C1116.2362,-166.2461 1014.2848,-148.1534 947.4472,-136.292"/>
<polygon fill="#191970" stroke="#191970" points="947.8993,-132.8177 937.4416,-134.5164 946.6761,-139.71 947.8993,-132.8177"/>
</g>
<!-- Node19&#45;&gt;Node9 -->
<g id="edge38" class="edge">
<title>Node19&#45;&gt;Node9</title>
<path fill="none" stroke="#191970" d="M1257.5759,-177.4766C1321.6039,-147.7313 1510.7312,-59.869 1585.79,-24.9991"/>
<polygon fill="#191970" stroke="#191970" points="1587.5941,-28.0203 1595.1885,-20.6329 1584.6448,-21.672 1587.5941,-28.0203"/>
</g>
<!-- Node19&#45;&gt;Node10 -->
<g id="edge37" class="edge">
<title>Node19&#45;&gt;Node10</title>
<path fill="none" stroke="#191970" d="M1194.9934,-177.4478C1142.9297,-164.6851 1054.3735,-142.9768 1008.5008,-131.7317"/>
<polygon fill="#191970" stroke="#191970" points="1009.1413,-128.2852 998.5955,-129.3036 1007.4746,-135.0839 1009.1413,-128.2852"/>
</g>
<!-- Node19&#45;&gt;Node13 -->
<g id="edge39" class="edge">
<title>Node19&#45;&gt;Node13</title>
<path fill="none" stroke="#191970" d="M1229.734,-177.378C1224.0818,-168.2476 1215.621,-154.5801 1208.7172,-143.4278"/>
<polygon fill="#191970" stroke="#191970" points="1211.6196,-141.4666 1203.38,-134.8062 1205.6677,-145.1511 1211.6196,-141.4666"/>
</g>
<!-- Node19&#45;&gt;Node15 -->
<g id="edge36" class="edge">
<title>Node19&#45;&gt;Node15</title>
<path fill="none" stroke="#191970" d="M1296.7919,-177.4478C1367.4777,-165.7596 1483.5376,-146.5686 1554.8138,-134.7828"/>
<polygon fill="#191970" stroke="#191970" points="1555.6992,-138.184 1564.9942,-133.0994 1554.5572,-131.2777 1555.6992,-138.184"/>
</g>
<!-- Node20&#45;&gt;Node7 -->
<g id="edge41" class="edge">
<title>Node20&#45;&gt;Node7</title>
<path fill="none" stroke="#191970" d="M1344.3315,-172.347C1341.5221,-171.8677 1338.7368,-171.416 1336,-171 1169.3297,-145.6653 1123.3398,-155.365 951.4544,-134.9841"/>
<polygon fill="#191970" stroke="#191970" points="951.6465,-131.4821 941.3001,-133.7627 950.8105,-138.432 951.6465,-131.4821"/>
</g>
<!-- Node20&#45;&gt;Node9 -->
<g id="edge43" class="edge">
<title>Node20&#45;&gt;Node9</title>
<path fill="none" stroke="#191970" d="M1432.3729,-171.4803C1470.6421,-138.1125 1558.5807,-61.4371 1597.6659,-27.3578"/>
<polygon fill="#191970" stroke="#191970" points="1599.9922,-29.9731 1605.2293,-20.7631 1595.3919,-24.697 1599.9922,-29.9731"/>
</g>
<!-- Node20&#45;&gt;Node10 -->
<g id="edge44" class="edge">
<title>Node20&#45;&gt;Node10</title>
<path fill="none" stroke="#191970" d="M1344.3112,-172.4735C1341.5074,-171.9592 1338.7288,-171.4656 1336,-171 1215.3957,-150.4223 1070.5013,-134.1264 1008.9767,-127.5954"/>
<polygon fill="#191970" stroke="#191970" points="1009.1312,-124.0924 998.8196,-126.5258 1008.398,-131.0539 1009.1312,-124.0924"/>
</g>
<!-- Node20&#45;&gt;Node13 -->
<g id="edge45" class="edge">
<title>Node20&#45;&gt;Node13</title>
<path fill="none" stroke="#191970" d="M1358.6803,-171.4394C1317.827,-159.5788 1263.6098,-143.8383 1229.5083,-133.9379"/>
<polygon fill="#191970" stroke="#191970" points="1230.1872,-130.4905 1219.6079,-131.0636 1228.2355,-137.213 1230.1872,-130.4905"/>
</g>
<!-- Node20&#45;&gt;Node15 -->
<g id="edge42" class="edge">
<title>Node20&#45;&gt;Node15</title>
<path fill="none" stroke="#191970" d="M1465.7507,-171.4394C1499.5637,-160.9457 1543.1628,-147.415 1574.8572,-137.5788"/>
<polygon fill="#191970" stroke="#191970" points="1576.1885,-140.8304 1584.7017,-134.5236 1574.1136,-134.1449 1576.1885,-140.8304"/>
</g>
<!-- Node20&#45;&gt;Node17 -->
<g id="edge46" class="edge">
<title>Node20&#45;&gt;Node17</title>
<path fill="none" stroke="#191970" d="M1483.7762,-172.8724C1486.8927,-172.2361 1489.9784,-171.6095 1493,-171 1572.0636,-155.0515 1595.0648,-155.3412 1677.4124,-134.9466"/>
<polygon fill="#191970" stroke="#191970" points="1678.3542,-138.3189 1687.2043,-132.4944 1676.6536,-131.5286 1678.3542,-138.3189"/>
</g>
<!-- Node21&#45;&gt;Node7 -->
<g id="edge48" class="edge">
<title>Node21&#45;&gt;Node7</title>
<path fill="none" stroke="#191970" d="M1685.5125,-177.4485C1671.7951,-174.9837 1656.8636,-172.5974 1643,-171 1340.3394,-136.126 1259.1565,-165.2388 951.3891,-134.9299"/>
<polygon fill="#191970" stroke="#191970" points="951.5806,-131.4317 941.2824,-133.9213 950.8854,-138.3971 951.5806,-131.4317"/>
</g>
<!-- Node21&#45;&gt;Node9 -->
<g id="edge52" class="edge">
<title>Node21&#45;&gt;Node9</title>
<path fill="none" stroke="#191970" d="M1739.989,-177.449C1746.5265,-162.7701 1756.0458,-134.9395 1746,-114 1725.9088,-72.1219 1679.6999,-41.8422 1648.4029,-25.2246"/>
<polygon fill="#191970" stroke="#191970" points="1649.709,-21.9609 1639.2142,-20.5083 1646.5125,-28.1884 1649.709,-21.9609"/>
</g>
<!-- Node21&#45;&gt;Node10 -->
<g id="edge53" class="edge">
<title>Node21&#45;&gt;Node10</title>
<path fill="none" stroke="#191970" d="M1684.5339,-177.441C1671.0816,-175.0362 1656.5266,-172.6817 1643,-171 1517.4521,-155.3915 1120.9184,-132.466 1008.7961,-126.1585"/>
<polygon fill="#191970" stroke="#191970" points="1008.7421,-122.6501 998.5618,-125.5846 1008.3501,-129.6391 1008.7421,-122.6501"/>
</g>
<!-- Node21&#45;&gt;Node13 -->
<g id="edge54" class="edge">
<title>Node21&#45;&gt;Node13</title>
<path fill="none" stroke="#191970" d="M1683.0472,-177.4938C1670.0031,-175.1715 1656.0141,-172.8429 1643,-171 1489.0844,-149.2043 1303.9312,-133.1193 1229.913,-127.0968"/>
<polygon fill="#191970" stroke="#191970" points="1230.0648,-123.5978 1219.8156,-126.2818 1229.5015,-130.5751 1230.0648,-123.5978"/>
</g>
<!-- Node21&#45;&gt;Node15 -->
<g id="edge51" class="edge">
<title>Node21&#45;&gt;Node15</title>
<path fill="none" stroke="#191970" d="M1716.0413,-177.378C1696.7737,-167.091 1666.7189,-151.0448 1644.768,-139.3253"/>
<polygon fill="#191970" stroke="#191970" points="1646.3816,-136.2192 1635.9117,-134.5969 1643.0847,-142.3943 1646.3816,-136.2192"/>
</g>
<!-- Node21&#45;&gt;Node22 -->
<g id="edge49" class="edge">
<title>Node21&#45;&gt;Node22</title>
<path fill="none" stroke="#191970" d="M1789.5191,-177.4146C1802.1371,-175.1952 1815.5223,-172.9325 1828,-171 1922.3742,-156.384 2031.4735,-142.3824 2102.6678,-133.6325"/>
<polygon fill="#191970" stroke="#191970" points="2103.3904,-137.0702 2112.8906,-132.3802 2102.5392,-130.1222 2103.3904,-137.0702"/>
</g>
<!-- Node23 -->
<g id="node23" class="node">
<title>Node23</title>
<polygon fill="none" stroke="#bfbfbf" points="2623.5,-57.5 2623.5,-77.5 2668.5,-77.5 2668.5,-57.5 2623.5,-57.5"/>
<text text-anchor="middle" x="2646" y="-64.5" font-family="FreeSans" font-size="10.00" fill="#000000">string</text>
</g>
<!-- Node22&#45;&gt;Node23 -->
<g id="edge50" class="edge">
<title>Node22&#45;&gt;Node23</title>
<path fill="none" stroke="#191970" d="M2245.4138,-116.3938C2346.9069,-104.006 2536.8432,-80.8232 2613.0863,-71.5173"/>
<polygon fill="#191970" stroke="#191970" points="2613.5667,-74.9847 2623.069,-70.2989 2612.7186,-68.0363 2613.5667,-74.9847"/>
</g>
<!-- Node24&#45;&gt;Node7 -->
<g id="edge56" class="edge">
<title>Node24&#45;&gt;Node7</title>
<path fill="none" stroke="#191970" d="M807.1387,-177.378C820.9946,-167.4584 842.3308,-152.1837 858.5152,-140.597"/>
<polygon fill="#191970" stroke="#191970" points="860.8027,-143.264 866.8964,-134.5969 856.7279,-137.5722 860.8027,-143.264"/>
</g>
<!-- Node24&#45;&gt;Node9 -->
<g id="edge58" class="edge">
<title>Node24&#45;&gt;Node9</title>
<path fill="none" stroke="#191970" d="M793.4179,-177.483C795.1131,-151.6494 803.683,-82.9784 847,-57 909.8101,-19.3311 1427.4995,-12.0855 1576.8254,-10.7744"/>
<polygon fill="#191970" stroke="#191970" points="1576.9586,-14.2735 1586.9289,-10.6899 1576.9,-7.2738 1576.9586,-14.2735"/>
</g>
<!-- Node24&#45;&gt;Node10 -->
<g id="edge59" class="edge">
<title>Node24&#45;&gt;Node10</title>
<path fill="none" stroke="#191970" d="M823.7616,-177.4622C853.55,-167.6872 900.2155,-152.2308 949.7571,-135.0289"/>
<polygon fill="#191970" stroke="#191970" points="951.0751,-138.2762 959.3679,-131.6823 948.7731,-131.6655 951.0751,-138.2762"/>
</g>
<!-- Node24&#45;&gt;Node13 -->
<g id="edge60" class="edge">
<title>Node24&#45;&gt;Node13</title>
<path fill="none" stroke="#191970" d="M834.5702,-177.4792C844.8118,-175.1832 855.775,-172.8705 866,-171 974.5501,-151.1428 1104.4758,-135.1281 1164.123,-128.2044"/>
<polygon fill="#191970" stroke="#191970" points="1164.8877,-131.6396 1174.4216,-127.0185 1164.0869,-124.6856 1164.8877,-131.6396"/>
</g>
<!-- Node24&#45;&gt;Node15 -->
<g id="edge57" class="edge">
<title>Node24&#45;&gt;Node15</title>
<path fill="none" stroke="#191970" d="M832.1862,-177.4283C843.0704,-174.9634 854.9383,-172.5821 866,-171 998.3366,-152.0721 1399.1072,-133.687 1554.4956,-127.0756"/>
<polygon fill="#191970" stroke="#191970" points="1554.9689,-130.5588 1564.8118,-126.6386 1554.6726,-123.5651 1554.9689,-130.5588"/>
</g>
<!-- Node25&#45;&gt;Node7 -->
<g id="edge62" class="edge">
<title>Node25&#45;&gt;Node7</title>
<path fill="none" stroke="#191970" d="M949.8253,-177.378C937.0337,-167.5503 917.4003,-152.4661 902.3719,-140.9198"/>
<polygon fill="#191970" stroke="#191970" points="904.2042,-137.9139 894.142,-134.5969 899.9395,-143.4648 904.2042,-137.9139"/>
</g>
<!-- Node25&#45;&gt;Node9 -->
<g id="edge64" class="edge">
<title>Node25&#45;&gt;Node9</title>
<path fill="none" stroke="#191970" d="M987.6769,-177.4584C1025.5665,-162.2938 1100.5631,-133.277 1166,-114 1315.5254,-69.9515 1497.4838,-33.2158 1576.8061,-18.0134"/>
<polygon fill="#191970" stroke="#191970" points="1577.6898,-21.408 1586.8574,-16.0972 1576.3789,-14.5319 1577.6898,-21.408"/>
</g>
<!-- Node25&#45;&gt;Node10 -->
<g id="edge65" class="edge">
<title>Node25&#45;&gt;Node10</title>
<path fill="none" stroke="#191970" d="M965.5707,-177.378C967.7968,-168.6128 971.0848,-155.6662 973.8501,-144.7777"/>
<polygon fill="#191970" stroke="#191970" points="977.3132,-145.3601 976.3825,-134.8062 970.5286,-143.637 977.3132,-145.3601"/>
</g>
<!-- Node25&#45;&gt;Node13 -->
<g id="edge66" class="edge">
<title>Node25&#45;&gt;Node13</title>
<path fill="none" stroke="#191970" d="M1000.3367,-177.4478C1045.7299,-165.2266 1121.5904,-144.8026 1164.6191,-133.2179"/>
<polygon fill="#191970" stroke="#191970" points="1165.556,-136.5904 1174.3022,-130.6109 1163.7361,-129.8311 1165.556,-136.5904"/>
</g>
<!-- Node25&#45;&gt;Node15 -->
<g id="edge63" class="edge">
<title>Node25&#45;&gt;Node15</title>
<path fill="none" stroke="#191970" d="M1051.2013,-179.0035C1185.395,-166.0766 1437.5633,-141.7852 1554.5052,-130.5201"/>
<polygon fill="#191970" stroke="#191970" points="1555.0987,-133.9793 1564.717,-129.5364 1554.4275,-127.0115 1555.0987,-133.9793"/>
</g>
<!-- Node26&#45;&gt;Node9 -->
<g id="edge72" class="edge">
<title>Node26&#45;&gt;Node9</title>
<path fill="none" stroke="#191970" d="M2074.8233,-177.408C2058.3725,-161.6404 2024.3028,-131.1914 1990,-114 1876.8486,-57.2925 1728.3093,-28.0057 1657.6889,-16.4851"/>
<polygon fill="#191970" stroke="#191970" points="1657.8711,-12.97 1647.4444,-14.8501 1656.7677,-19.8825 1657.8711,-12.97"/>
</g>
<!-- Node26&#45;&gt;Node13 -->
<g id="edge74" class="edge">
<title>Node26&#45;&gt;Node13</title>
<path fill="none" stroke="#191970" d="M2029.8203,-177.5273C2014.6847,-175.0779 1998.2452,-172.6797 1983,-171 1692.0304,-138.9421 1337.8591,-127.9794 1229.8269,-125.2517"/>
<polygon fill="#191970" stroke="#191970" points="1229.663,-121.7467 1219.5798,-124.9993 1229.4906,-128.7446 1229.663,-121.7467"/>
</g>
<!-- Node26&#45;&gt;Node15 -->
<g id="edge69" class="edge">
<title>Node26&#45;&gt;Node15</title>
<path fill="none" stroke="#191970" d="M2029.7458,-178.1225C2014.6102,-175.6736 1998.1893,-173.1269 1983,-171 1848.2594,-152.1325 1813.67,-154.3651 1679,-135 1678.8987,-134.9854 1678.7973,-134.9708 1678.6958,-134.9562"/>
<polygon fill="#191970" stroke="#191970" points="1679.4743,-131.5339 1669.0657,-133.5113 1678.4356,-138.4564 1679.4743,-131.5339"/>
</g>
<!-- Node26&#45;&gt;Node17 -->
<g id="edge71" class="edge">
<title>Node26&#45;&gt;Node17</title>
<path fill="none" stroke="#191970" d="M2029.9626,-178.2041C1952.0259,-165.0406 1811.77,-141.3512 1746.7914,-130.3763"/>
<polygon fill="#191970" stroke="#191970" points="1747.1062,-126.88 1736.663,-128.6656 1745.9404,-133.7822 1747.1062,-126.88"/>
</g>
<!-- Node26&#45;&gt;Node18 -->
<g id="edge70" class="edge">
<title>Node26&#45;&gt;Node18</title>
<path fill="none" stroke="#191970" d="M2064.4346,-177.378C2043.4409,-167.0451 2010.6411,-150.9015 1986.8028,-139.1686"/>
<polygon fill="#191970" stroke="#191970" points="1988.0321,-135.8727 1977.5144,-134.5969 1984.9409,-142.1532 1988.0321,-135.8727"/>
</g>
<!-- Node26&#45;&gt;Node22 -->
<g id="edge68" class="edge">
<title>Node26&#45;&gt;Node22</title>
<path fill="none" stroke="#191970" d="M2100.1027,-177.378C2115.0403,-167.3666 2138.117,-151.9003 2155.461,-140.2762"/>
<polygon fill="#191970" stroke="#191970" points="2157.5765,-143.0718 2163.9348,-134.5969 2153.6793,-137.2569 2157.5765,-143.0718"/>
</g>
<!-- Node26&#45;&gt;Node23 -->
<g id="edge73" class="edge">
<title>Node26&#45;&gt;Node23</title>
<path fill="none" stroke="#191970" d="M2084.2714,-177.3012C2083.7358,-161.1 2085.3557,-129.7133 2104,-114 2140.9999,-82.8168 2489.8073,-82.3413 2538,-78 2563.1996,-75.73 2591.6846,-72.9517 2613.0715,-70.8234"/>
<polygon fill="#191970" stroke="#191970" points="2613.6512,-74.283 2623.2536,-69.8058 2612.9551,-67.3177 2613.6512,-74.283"/>
</g>
<!-- Node27&#45;&gt;Node9 -->
<g id="edge78" class="edge">
<title>Node27&#45;&gt;Node9</title>
<path fill="none" stroke="#191970" d="M2384.6071,-177.4776C2360.9063,-162.3382 2313.734,-133.3539 2271,-114 2200.3245,-81.9916 2181.8207,-73.4552 2106,-57 1942.1629,-21.4428 1741.5825,-13.0747 1657.3109,-11.1057"/>
<polygon fill="#191970" stroke="#191970" points="1657.2215,-7.603 1647.1483,-10.8865 1657.0705,-14.6014 1657.2215,-7.603"/>
</g>
<!-- Node27&#45;&gt;Node15 -->
<g id="edge76" class="edge">
<title>Node27&#45;&gt;Node15</title>
<path fill="none" stroke="#191970" d="M2360.1232,-177.4794C2348.8347,-174.9837 2336.4918,-172.5739 2325,-171 2040.1029,-131.9814 1964.764,-167.058 1679,-135 1678.8983,-134.9886 1678.7965,-134.9771 1678.6946,-134.9656"/>
<polygon fill="#191970" stroke="#191970" points="1679.3948,-131.5263 1669.0354,-133.7475 1678.5189,-138.4713 1679.3948,-131.5263"/>
</g>
<!-- Node27&#45;&gt;Node18 -->
<g id="edge77" class="edge">
<title>Node27&#45;&gt;Node18</title>
<path fill="none" stroke="#191970" d="M2357.6921,-177.4883C2347.0572,-175.1661 2335.6414,-172.839 2325,-171 2202.9766,-149.913 2056.6331,-134.2684 1991.3548,-127.788"/>
<polygon fill="#191970" stroke="#191970" points="1991.5192,-124.2873 1981.2245,-126.7915 1990.8339,-131.2537 1991.5192,-124.2873"/>
</g>
<!-- Node27&#45;&gt;Node23 -->
<g id="edge79" class="edge">
<title>Node27&#45;&gt;Node23</title>
<path fill="none" stroke="#191970" d="M2403.1415,-177.4096C2408.6795,-161.3606 2421.7492,-130.1831 2444,-114 2470.7631,-94.5351 2563.3319,-79.038 2613.3393,-71.8541"/>
<polygon fill="#191970" stroke="#191970" points="2613.9106,-75.3083 2623.3253,-70.4489 2612.9352,-68.3766 2613.9106,-75.3083"/>
</g>
<!-- Node28&#45;&gt;Node9 -->
<g id="edge84" class="edge">
<title>Node28&#45;&gt;Node9</title>
<path fill="none" stroke="#191970" d="M1892.8109,-177.3732C1864.3767,-154.0685 1790.9077,-95.6772 1723,-57 1700.8404,-44.3789 1674.6029,-32.8441 1653.7757,-24.4202"/>
<polygon fill="#191970" stroke="#191970" points="1654.9108,-21.1049 1644.3253,-20.6599 1652.3228,-27.609 1654.9108,-21.1049"/>
</g>
<!-- Node28&#45;&gt;Node15 -->
<g id="edge81" class="edge">
<title>Node28&#45;&gt;Node15</title>
<path fill="none" stroke="#191970" d="M1859.0471,-177.4478C1808.3653,-166.3612 1726.8246,-148.5241 1672.5855,-136.6593"/>
<polygon fill="#191970" stroke="#191970" points="1673.3062,-133.2343 1662.7892,-134.5164 1671.8103,-140.0726 1673.3062,-133.2343"/>
</g>
<!-- Node28&#45;&gt;Node17 -->
<g id="edge83" class="edge">
<title>Node28&#45;&gt;Node17</title>
<path fill="none" stroke="#191970" d="M1873.9912,-177.378C1839.0251,-165.9641 1782.3381,-147.4601 1746.1359,-135.6428"/>
<polygon fill="#191970" stroke="#191970" points="1747.0957,-132.2744 1736.5032,-132.4985 1744.9235,-138.9289 1747.0957,-132.2744"/>
</g>
<!-- Node28&#45;&gt;Node18 -->
<g id="edge82" class="edge">
<title>Node28&#45;&gt;Node18</title>
<path fill="none" stroke="#191970" d="M1913.3547,-177.378C1921.0416,-168.0649 1932.6248,-154.0316 1941.9269,-142.7617"/>
<polygon fill="#191970" stroke="#191970" points="1944.8269,-144.7465 1948.4933,-134.8062 1939.4283,-140.2905 1944.8269,-144.7465"/>
</g>
<!-- Node29&#45;&gt;Node6 -->
<g id="edge90" class="edge">
<title>Node29&#45;&gt;Node6</title>
<path fill="none" stroke="#191970" d="M2211.5586,-177.4948C2167.338,-160.6603 2073.0668,-127.2164 1990,-114 1900.3615,-99.738 465.3335,-72.0547 251.5484,-68.0004"/>
<polygon fill="#191970" stroke="#191970" points="251.325,-64.4957 241.2605,-67.8057 251.1925,-71.4944 251.325,-64.4957"/>
</g>
<!-- Node29&#45;&gt;Node9 -->
<g id="edge88" class="edge">
<title>Node29&#45;&gt;Node9</title>
<path fill="none" stroke="#191970" d="M2244.147,-177.4323C2254.1697,-161.9705 2269.5296,-132.2565 2254,-114 2214.9492,-68.0921 1791.5215,-26.2373 1657.4574,-14.0548"/>
<polygon fill="#191970" stroke="#191970" points="1657.4896,-10.5436 1647.2156,-13.1308 1656.8606,-17.5152 1657.4896,-10.5436"/>
</g>
<!-- Node29&#45;&gt;Node10 -->
<g id="edge89" class="edge">
<title>Node29&#45;&gt;Node10</title>
<path fill="none" stroke="#191970" d="M2190.6105,-177.466C2177.2413,-174.938 2162.5946,-172.5149 2149,-171 1714.5076,-122.5824 1602.7123,-155.2555 1166,-135 1110.4211,-132.4222 1045.5968,-128.5994 1008.7163,-126.3477"/>
<polygon fill="#191970" stroke="#191970" points="1008.843,-122.8489 998.6472,-125.7294 1008.4139,-129.8358 1008.843,-122.8489"/>
</g>
<!-- Node29&#45;&gt;Node13 -->
<g id="edge92" class="edge">
<title>Node29&#45;&gt;Node13</title>
<path fill="none" stroke="#191970" d="M2190.142,-177.487C2176.8962,-174.9913 2162.4307,-172.5796 2149,-171 1965.222,-149.385 1375.9384,-130.0463 1229.9544,-125.5043"/>
<polygon fill="#191970" stroke="#191970" points="1229.9443,-122.0024 1219.8408,-125.1913 1229.7277,-128.9991 1229.9443,-122.0024"/>
</g>
<!-- Node29&#45;&gt;Node15 -->
<g id="edge87" class="edge">
<title>Node29&#45;&gt;Node15</title>
<path fill="none" stroke="#191970" d="M2188.7372,-177.4716C2175.8698,-175.0666 2161.9453,-172.7042 2149,-171 1941.2915,-143.6552 1886.9409,-160.5175 1679,-135 1678.8984,-134.9875 1678.7967,-134.975 1678.695,-134.9625"/>
<polygon fill="#191970" stroke="#191970" points="1679.4212,-131.5286 1669.0447,-133.6685 1678.4909,-138.4665 1679.4212,-131.5286"/>
</g>
<!-- Node29&#45;&gt;Node22 -->
<g id="edge86" class="edge">
<title>Node29&#45;&gt;Node22</title>
<path fill="none" stroke="#191970" d="M2227.6813,-177.378C2219.0234,-167.9736 2205.934,-153.7559 2195.5079,-142.431"/>
<polygon fill="#191970" stroke="#191970" points="2197.8363,-139.7926 2188.4883,-134.8062 2192.6864,-144.5338 2197.8363,-139.7926"/>
</g>
<!-- Node29&#45;&gt;Node23 -->
<g id="edge91" class="edge">
<title>Node29&#45;&gt;Node23</title>
<path fill="none" stroke="#191970" d="M2258.5196,-177.3847C2292.2708,-161.8593 2360.0049,-132.0615 2420,-114 2487.4703,-93.6881 2568.9195,-79.3358 2613.2843,-72.3428"/>
<polygon fill="#191970" stroke="#191970" points="2613.8672,-75.7944 2623.213,-70.8036 2612.7948,-68.877 2613.8672,-75.7944"/>
</g>
<!-- Node30&#45;&gt;Node9 -->
<g id="edge96" class="edge">
<title>Node30&#45;&gt;Node9</title>
<path fill="none" stroke="#191970" d="M628.3021,-177.1927C657.5202,-151.281 739.018,-83.5985 821,-57 893.0892,-33.6112 1424.3445,-16.21 1576.4285,-11.6679"/>
<polygon fill="#191970" stroke="#191970" points="1576.8198,-15.1579 1586.7117,-11.3632 1576.6124,-8.161 1576.8198,-15.1579"/>
</g>
<!-- Node30&#45;&gt;Node10 -->
<g id="edge98" class="edge">
<title>Node30&#45;&gt;Node10</title>
<path fill="none" stroke="#191970" d="M679.3596,-177.4735C692.7648,-175.3285 706.853,-173.0819 720,-171 819.0997,-155.3068 848.0448,-160.393 949.4739,-134.7357"/>
<polygon fill="#191970" stroke="#191970" points="950.3741,-138.1181 959.1896,-132.2413 948.6333,-131.338 950.3741,-138.1181"/>
</g>
<!-- Node30&#45;&gt;Node13 -->
<g id="edge99" class="edge">
<title>Node30&#45;&gt;Node13</title>
<path fill="none" stroke="#191970" d="M675.4647,-177.4925C689.9903,-175.1833 705.5408,-172.8611 720,-171 886.3041,-149.5942 1086.3654,-133.0746 1163.9828,-127.013"/>
<polygon fill="#191970" stroke="#191970" points="1164.4068,-130.4908 1174.1061,-126.2277 1163.8653,-123.5117 1164.4068,-130.4908"/>
</g>
<!-- Node30&#45;&gt;Node15 -->
<g id="edge95" class="edge">
<title>Node30&#45;&gt;Node15</title>
<path fill="none" stroke="#191970" d="M672.716,-177.4582C687.9999,-175.0087 704.6018,-172.6277 720,-171 1032.3443,-137.9821 1408.4606,-128.1353 1554.6507,-125.4373"/>
<polygon fill="#191970" stroke="#191970" points="1554.8397,-128.9346 1564.7751,-125.2552 1554.7137,-121.9357 1554.8397,-128.9346"/>
</g>
<!-- Node31 -->
<g id="node31" class="node">
<title>Node31</title>
<polygon fill="none" stroke="#bfbfbf" points="590,-114.5 590,-134.5 644,-134.5 644,-114.5 590,-114.5"/>
<text text-anchor="middle" x="617" y="-121.5" font-family="FreeSans" font-size="10.00" fill="#000000">iterator</text>
</g>
<!-- Node30&#45;&gt;Node31 -->
<g id="edge97" class="edge">
<title>Node30&#45;&gt;Node31</title>
<path fill="none" stroke="#191970" d="M617,-177.378C617,-168.7041 617,-155.9355 617,-145.1186"/>
<polygon fill="#191970" stroke="#191970" points="620.5001,-144.8062 617,-134.8062 613.5001,-144.8062 620.5001,-144.8062"/>
</g>
<!-- Node32&#45;&gt;Node16 -->
<g id="edge128" class="edge">
<title>Node32&#45;&gt;Node16</title>
<path fill="none" stroke="#191970" d="M2693.2162,-303.022C2776.958,-295.2005 2941.4212,-278.2344 2997,-261 3050.3475,-244.4576 3070.971,-244.9072 3109,-204 3137.6138,-173.2206 3146.8468,-155.0836 3138,-114 3135.985,-104.6423 3131.9292,-94.8992 3127.9147,-86.7634"/>
<polygon fill="#191970" stroke="#191970" points="3130.9351,-84.9873 3123.1781,-77.7706 3124.7416,-88.2495 3130.9351,-84.9873"/>
</g>
<!-- Node32&#45;&gt;Node23 -->
<g id="edge129" class="edge">
<title>Node32&#45;&gt;Node23</title>
<path fill="none" stroke="#191970" d="M2634.1687,-297.169C2616.1068,-274.7653 2577.6456,-219.795 2590,-171 2598.1384,-138.8565 2618.4653,-105.8704 2632.2554,-86.0292"/>
<polygon fill="#191970" stroke="#191970" points="2635.278,-87.8191 2638.241,-77.647 2629.5813,-83.7511 2635.278,-87.8191"/>
</g>
<!-- Node33 -->
<g id="node33" class="node">
<title>Node33</title>
<g id="a_node33"><a xlink:href="../../dd/d9b/PHDataNode_8h.html" target="_top" xlink:title="PHDataNode.h">
<polygon fill="none" stroke="#000000" points="2598.5,-177.5 2598.5,-197.5 2687.5,-197.5 2687.5,-177.5 2598.5,-177.5"/>
<text text-anchor="middle" x="2643" y="-184.5" font-family="FreeSans" font-size="10.00" fill="#000000">PHDataNode.h</text>
</a>
</g>
</g>
<!-- Node32&#45;&gt;Node33 -->
<g id="edge101" class="edge">
<title>Node32&#45;&gt;Node33</title>
<path fill="none" stroke="#191970" d="M2643,-297.2689C2643,-277.52 2643,-233.8129 2643,-207.9032"/>
<polygon fill="#191970" stroke="#191970" points="2646.5001,-207.7052 2643,-197.7052 2639.5001,-207.7053 2646.5001,-207.7052"/>
</g>
<!-- Node34 -->
<g id="node34" class="node">
<title>Node34</title>
<g id="a_node34"><a xlink:href="../../d3/d62/PHNode_8h.html" target="_top" xlink:title="PHNode.h">
<polygon fill="none" stroke="#000000" points="2860.5,-114.5 2860.5,-134.5 2925.5,-134.5 2925.5,-114.5 2860.5,-114.5"/>
<text text-anchor="middle" x="2893" y="-121.5" font-family="FreeSans" font-size="10.00" fill="#000000">PHNode.h</text>
</a>
</g>
</g>
<!-- Node32&#45;&gt;Node34 -->
<g id="edge126" class="edge">
<title>Node32&#45;&gt;Node34</title>
<path fill="none" stroke="#191970" d="M2693.1529,-303.4914C2795.4759,-294.0719 3021.963,-266.4411 3061,-204 3091.9013,-154.5722 2995.5293,-135.3151 2936.1234,-128.2612"/>
<polygon fill="#191970" stroke="#191970" points="2936.1841,-124.7465 2925.8583,-127.1188 2935.4098,-131.7035 2936.1841,-124.7465"/>
</g>
<!-- Node36 -->
<g id="node36" class="node">
<title>Node36</title>
<g id="a_node36"><a xlink:href="../../d3/d79/PHIODataNode_8h.html" target="_top" xlink:title="PHIODataNode.h">
<polygon fill="none" stroke="#000000" points="2835,-240.5 2835,-260.5 2935,-260.5 2935,-240.5 2835,-240.5"/>
<text text-anchor="middle" x="2885" y="-247.5" font-family="FreeSans" font-size="10.00" fill="#000000">PHIODataNode.h</text>
</a>
</g>
</g>
<!-- Node32&#45;&gt;Node36 -->
<g id="edge106" class="edge">
<title>Node32&#45;&gt;Node36</title>
<path fill="none" stroke="#191970" d="M2685.7077,-297.4408C2726.6201,-287.8043 2788.4602,-273.2387 2832.3913,-262.8913"/>
<polygon fill="#191970" stroke="#191970" points="2833.3817,-266.2539 2842.3129,-260.5544 2831.7768,-259.4403 2833.3817,-266.2539"/>
</g>
<!-- Node41 -->
<g id="node41" class="node">
<title>Node41</title>
<g id="a_node41"><a xlink:href="../../d8/dfd/PHNodeIterator_8h.html" target="_top" xlink:title="PHNodeIterator.h">
<polygon fill="none" stroke="#000000" points="2453,-114.5 2453,-134.5 2555,-134.5 2555,-114.5 2453,-114.5"/>
<text text-anchor="middle" x="2504" y="-121.5" font-family="FreeSans" font-size="10.00" fill="#000000">PHNodeIterator.h</text>
</a>
</g>
</g>
<!-- Node32&#45;&gt;Node41 -->
<g id="edge127" class="edge">
<title>Node32&#45;&gt;Node41</title>
<path fill="none" stroke="#191970" d="M2612.4725,-297.4508C2593.9474,-289.9782 2571.053,-278.0951 2556,-261 2525.9663,-226.8919 2512.4992,-173.6449 2507.1224,-144.7701"/>
<polygon fill="#191970" stroke="#191970" points="2510.5288,-143.926 2505.389,-134.6614 2503.6295,-145.1091 2510.5288,-143.926"/>
</g>
<!-- Node33&#45;&gt;Node9 -->
<g id="edge105" class="edge">
<title>Node33&#45;&gt;Node9</title>
<path fill="none" stroke="#191970" d="M2604.4508,-177.4422C2564.3414,-166.9511 2499.7277,-149.9766 2444,-135 2317.1752,-100.9164 2288.2878,-80.041 2159,-57 1973.4187,-23.9267 1747.7449,-14.1592 1657.3109,-11.4607"/>
<polygon fill="#191970" stroke="#191970" points="1657.3118,-7.9593 1647.2159,-11.1724 1657.1119,-14.9565 1657.3118,-7.9593"/>
</g>
<!-- Node33&#45;&gt;Node34 -->
<g id="edge102" class="edge">
<title>Node33&#45;&gt;Node34</title>
<path fill="none" stroke="#191970" d="M2674.5974,-177.4771C2681.9267,-175.2548 2689.7148,-172.9751 2697,-171 2749.4761,-156.7734 2810.5011,-142.6769 2850.3382,-133.7992"/>
<polygon fill="#191970" stroke="#191970" points="2851.2355,-137.1853 2860.2403,-131.6028 2849.7196,-130.3514 2851.2355,-137.1853"/>
</g>
<!-- Node34&#45;&gt;Node23 -->
<g id="edge104" class="edge">
<title>Node34&#45;&gt;Node23</title>
<path fill="none" stroke="#191970" d="M2860.4551,-116.9896C2813.2015,-106.085 2726.0838,-85.9809 2678.7277,-75.0525"/>
<polygon fill="#191970" stroke="#191970" points="2679.2307,-71.5767 2668.6998,-72.7384 2677.6567,-78.3975 2679.2307,-71.5767"/>
</g>
<!-- Node35 -->
<g id="node35" class="node">
<title>Node35</title>
<polygon fill="none" stroke="#bfbfbf" points="2869,-57.5 2869,-77.5 2917,-77.5 2917,-57.5 2869,-57.5"/>
<text text-anchor="middle" x="2893" y="-64.5" font-family="FreeSans" font-size="10.00" fill="#000000">iosfwd</text>
</g>
<!-- Node34&#45;&gt;Node35 -->
<g id="edge103" class="edge">
<title>Node34&#45;&gt;Node35</title>
<path fill="none" stroke="#191970" d="M2893,-114.3095C2893,-106.9335 2893,-96.72 2893,-87.715"/>
<polygon fill="#191970" stroke="#191970" points="2896.5001,-87.6022 2893,-77.6022 2889.5001,-87.6023 2896.5001,-87.6022"/>
</g>
<!-- Node36&#45;&gt;Node16 -->
<g id="edge124" class="edge">
<title>Node36&#45;&gt;Node16</title>
<path fill="none" stroke="#191970" d="M2935.3109,-242.9563C2985.1083,-234.7138 3057.1185,-220.4668 3080,-204 3109.3289,-182.8933 3113.0611,-169.7404 3123,-135 3127.443,-119.4701 3125.3944,-101.1827 3122.5395,-87.5626"/>
<polygon fill="#191970" stroke="#191970" points="3125.9284,-86.6853 3120.1856,-77.7819 3119.1227,-88.3233 3125.9284,-86.6853"/>
</g>
<!-- Node36&#45;&gt;Node23 -->
<g id="edge125" class="edge">
<title>Node36&#45;&gt;Node23</title>
<path fill="none" stroke="#191970" d="M2882.9726,-240.3061C2879.0651,-223.361 2868.8692,-189.4414 2847,-171 2802.1494,-133.1794 2771.2638,-163.5307 2720,-135 2696.9235,-122.1568 2675.1828,-100.7951 2661.315,-85.5426"/>
<polygon fill="#191970" stroke="#191970" points="2663.7075,-82.9646 2654.4621,-77.7904 2658.4629,-87.6008 2663.7075,-82.9646"/>
</g>
<!-- Node36&#45;&gt;Node33 -->
<g id="edge107" class="edge">
<title>Node36&#45;&gt;Node33</title>
<path fill="none" stroke="#191970" d="M2841.5178,-240.4497C2803.3021,-231.4491 2746.2613,-217.6075 2697,-204 2692.9605,-202.8842 2688.7643,-201.6809 2684.5764,-200.4505"/>
<polygon fill="#191970" stroke="#191970" points="2685.4805,-197.0678 2674.8971,-197.5587 2683.4767,-203.7749 2685.4805,-197.0678"/>
</g>
<!-- Node37 -->
<g id="node37" class="node">
<title>Node37</title>
<g id="a_node37"><a xlink:href="../../d9/d53/PHIOManager_8h.html" target="_top" xlink:title="PHIOManager.h">
<polygon fill="none" stroke="#000000" points="3020.5,-114.5 3020.5,-134.5 3113.5,-134.5 3113.5,-114.5 3020.5,-114.5"/>
<text text-anchor="middle" x="3067" y="-121.5" font-family="FreeSans" font-size="10.00" fill="#000000">PHIOManager.h</text>
</a>
</g>
</g>
<!-- Node36&#45;&gt;Node37 -->
<g id="edge108" class="edge">
<title>Node36&#45;&gt;Node37</title>
<path fill="none" stroke="#191970" d="M2935.1716,-243.7815C2981.3316,-236.4914 3044.9817,-223.2543 3061,-204 3074.6352,-187.6103 3074.0343,-162.1625 3071.3924,-144.4903"/>
<polygon fill="#191970" stroke="#191970" points="3074.8335,-143.8501 3069.5927,-134.6422 3067.9475,-145.1085 3074.8335,-143.8501"/>
</g>
<!-- Node39 -->
<g id="node39" class="node">
<title>Node39</title>
<g id="a_node39"><a xlink:href="../../dd/de7/PHNodeIOManager_8h.html" target="_top" xlink:title="PHNodeIOManager.h">
<polygon fill="none" stroke="#ff0000" points="2932,-177.5 2932,-197.5 3052,-197.5 3052,-177.5 2932,-177.5"/>
<text text-anchor="middle" x="2992" y="-184.5" font-family="FreeSans" font-size="10.00" fill="#000000">PHNodeIOManager.h</text>
</a>
</g>
</g>
<!-- Node36&#45;&gt;Node39 -->
<g id="edge111" class="edge">
<title>Node36&#45;&gt;Node39</title>
<path fill="none" stroke="#191970" d="M2902.1914,-240.378C2919.4289,-230.2288 2946.1877,-214.4736 2966.0169,-202.7985"/>
<polygon fill="#191970" stroke="#191970" points="2968.0098,-205.6867 2974.8513,-197.5969 2964.4582,-199.6546 2968.0098,-205.6867"/>
</g>
<!-- Node40 -->
<g id="node40" class="node">
<title>Node40</title>
<g id="a_node40"><a xlink:href="../../db/d17/PHTypedNodeIterator_8h.html" target="_top" xlink:title="PHTypedNodeIterator.h">
<polygon fill="none" stroke="#000000" points="2706,-177.5 2706,-197.5 2838,-197.5 2838,-177.5 2706,-177.5"/>
<text text-anchor="middle" x="2772" y="-184.5" font-family="FreeSans" font-size="10.00" fill="#000000">PHTypedNodeIterator.h</text>
</a>
</g>
</g>
<!-- Node36&#45;&gt;Node40 -->
<g id="edge116" class="edge">
<title>Node36&#45;&gt;Node40</title>
<path fill="none" stroke="#191970" d="M2866.8446,-240.378C2848.4758,-230.137 2819.8689,-214.188 2798.8734,-202.4825"/>
<polygon fill="#191970" stroke="#191970" points="2800.549,-199.4095 2790.1103,-197.5969 2797.1403,-205.5235 2800.549,-199.4095"/>
</g>
<!-- Node43 -->
<g id="node43" class="node">
<title>Node43</title>
<g id="a_node43"><a xlink:href="../../de/da7/phooldefs_8h.html" target="_top" xlink:title="phooldefs.h">
<polygon fill="none" stroke="#000000" points="2728.5,-114.5 2728.5,-134.5 2803.5,-134.5 2803.5,-114.5 2728.5,-114.5"/>
<text text-anchor="middle" x="2766" y="-121.5" font-family="FreeSans" font-size="10.00" fill="#000000">phooldefs.h</text>
</a>
</g>
</g>
<!-- Node36&#45;&gt;Node43 -->
<g id="edge122" class="edge">
<title>Node36&#45;&gt;Node43</title>
<path fill="none" stroke="#191970" d="M2887.505,-240.3408C2890.8932,-224.0414 2894.931,-191.7755 2880,-171 2871.4636,-159.1222 2839.4711,-146.654 2811.5427,-137.6216"/>
<polygon fill="#191970" stroke="#191970" points="2812.4683,-134.2437 2801.8787,-134.5766 2810.3646,-140.9201 2812.4683,-134.2437"/>
</g>
<!-- Node37&#45;&gt;Node23 -->
<g id="edge110" class="edge">
<title>Node37&#45;&gt;Node23</title>
<path fill="none" stroke="#191970" d="M3020.3371,-118.1822C2934.4313,-106.5513 2753.2527,-82.0211 2678.9011,-71.9545"/>
<polygon fill="#191970" stroke="#191970" points="2679.1096,-68.4509 2668.7304,-70.5775 2678.1703,-75.3876 2679.1096,-68.4509"/>
</g>
<!-- Node38 -->
<g id="node38" class="node">
<title>Node38</title>
<polygon fill="none" stroke="#bfbfbf" points="2965,-57.5 2965,-77.5 3019,-77.5 3019,-57.5 2965,-57.5"/>
<text text-anchor="middle" x="2992" y="-64.5" font-family="FreeSans" font-size="10.00" fill="#000000">cstddef</text>
</g>
<!-- Node37&#45;&gt;Node38 -->
<g id="edge109" class="edge">
<title>Node37&#45;&gt;Node38</title>
<path fill="none" stroke="#191970" d="M3053.5915,-114.3095C3042.393,-105.7987 3026.2239,-93.5102 3013.2623,-83.6594"/>
<polygon fill="#191970" stroke="#191970" points="3015.3719,-80.8665 3005.2924,-77.6022 3011.1362,-86.4397 3015.3719,-80.8665"/>
</g>
<!-- Node39&#45;&gt;Node10 -->
<g id="edge114" class="edge">
<title>Node39&#45;&gt;Node10</title>
<path fill="none" stroke="#191970" d="M2931.7941,-179.3948C2905.7673,-176.2162 2874.9329,-172.8844 2847,-171 2101.4122,-120.7018 1912.7214,-163.9512 1166,-135 1110.4031,-132.8444 1045.5849,-128.8795 1008.7104,-126.487"/>
<polygon fill="#191970" stroke="#191970" points="1008.8504,-122.9887 998.6431,-125.8277 1008.3929,-129.9738 1008.8504,-122.9887"/>
</g>
<!-- Node39&#45;&gt;Node23 -->
<g id="edge115" class="edge">
<title>Node39&#45;&gt;Node23</title>
<path fill="none" stroke="#191970" d="M2961.7554,-177.4862C2933.0735,-167.6803 2888.988,-151.8006 2852,-135 2834.0759,-126.8586 2831.2619,-121.3524 2813,-114 2767.7114,-95.7664 2712.7624,-81.9695 2678.5809,-74.308"/>
<polygon fill="#191970" stroke="#191970" points="2679.1916,-70.8587 2668.6733,-72.1291 2677.6881,-77.6954 2679.1916,-70.8587"/>
</g>
<!-- Node39&#45;&gt;Node37 -->
<g id="edge112" class="edge">
<title>Node39&#45;&gt;Node37</title>
<path fill="none" stroke="#191970" d="M3004.05,-177.378C3015.5718,-167.6997 3033.1623,-152.9236 3046.8226,-141.449"/>
<polygon fill="#191970" stroke="#191970" points="3049.3248,-143.9181 3054.7307,-134.8062 3044.8224,-138.5582 3049.3248,-143.9181"/>
</g>
<!-- Node39&#45;&gt;Node38 -->
<g id="edge113" class="edge">
<title>Node39&#45;&gt;Node38</title>
<path fill="none" stroke="#191970" d="M2992,-177.2689C2992,-157.52 2992,-113.8129 2992,-87.9032"/>
<polygon fill="#191970" stroke="#191970" points="2995.5001,-87.7052 2992,-77.7052 2988.5001,-87.7053 2995.5001,-87.7052"/>
</g>
<!-- Node40&#45;&gt;Node38 -->
<g id="edge121" class="edge">
<title>Node40&#45;&gt;Node38</title>
<path fill="none" stroke="#191970" d="M2828.6416,-177.4155C2861.6844,-169.6215 2903.0203,-156.4383 2935,-135 2953.9909,-122.269 2970.1915,-101.4784 2980.4124,-86.3304"/>
<polygon fill="#191970" stroke="#191970" points="2983.4719,-88.0451 2985.9752,-77.7503 2977.5983,-84.2371 2983.4719,-88.0451"/>
</g>
<!-- Node40&#45;&gt;Node41 -->
<g id="edge117" class="edge">
<title>Node40&#45;&gt;Node41</title>
<path fill="none" stroke="#191970" d="M2729.2383,-177.4478C2682.2717,-166.4072 2606.8271,-148.672 2556.355,-136.8073"/>
<polygon fill="#191970" stroke="#191970" points="2557.145,-133.3977 2546.6094,-134.5164 2555.5431,-140.212 2557.145,-133.3977"/>
</g>
<!-- Node41&#45;&gt;Node23 -->
<g id="edge120" class="edge">
<title>Node41&#45;&gt;Node23</title>
<path fill="none" stroke="#191970" d="M2529.0599,-114.4408C2552.6404,-104.9753 2588.0689,-90.754 2613.7485,-80.446"/>
<polygon fill="#191970" stroke="#191970" points="2615.0917,-83.6784 2623.0682,-76.705 2612.4841,-77.1822 2615.0917,-83.6784"/>
</g>
<!-- Node42 -->
<g id="node42" class="node">
<title>Node42</title>
<g id="a_node42"><a xlink:href="../../db/dd5/PHPointerList_8h.html" target="_top" xlink:title="PHPointerList.h">
<polygon fill="none" stroke="#000000" points="2437,-57.5 2437,-77.5 2529,-77.5 2529,-57.5 2437,-57.5"/>
<text text-anchor="middle" x="2483" y="-64.5" font-family="FreeSans" font-size="10.00" fill="#000000">PHPointerList.h</text>
</a>
</g>
</g>
<!-- Node41&#45;&gt;Node42 -->
<g id="edge118" class="edge">
<title>Node41&#45;&gt;Node42</title>
<path fill="none" stroke="#191970" d="M2500.2456,-114.3095C2497.4684,-106.7714 2493.5993,-96.2696 2490.2295,-87.123"/>
<polygon fill="#191970" stroke="#191970" points="2493.4632,-85.7757 2486.7219,-77.6022 2486.8948,-88.1957 2493.4632,-85.7757"/>
</g>
<!-- Node42&#45;&gt;Node9 -->
<g id="edge119" class="edge">
<title>Node42&#45;&gt;Node9</title>
<path fill="none" stroke="#191970" d="M2436.6596,-61.0067C2425.0342,-59.5319 2412.5748,-58.0831 2401,-57 2116.9706,-30.4232 1773.5486,-16.2287 1657.5194,-11.9284"/>
<polygon fill="#191970" stroke="#191970" points="1657.4478,-8.4235 1647.3262,-11.5545 1657.1912,-15.4188 1657.4478,-8.4235"/>
</g>
<!-- Node43&#45;&gt;Node23 -->
<g id="edge123" class="edge">
<title>Node43&#45;&gt;Node23</title>
<path fill="none" stroke="#191970" d="M2744.8226,-114.4408C2725.9178,-105.461 2698.0017,-92.2008 2676.6576,-82.0624"/>
<polygon fill="#191970" stroke="#191970" points="2677.9038,-78.7796 2667.3693,-77.6504 2674.9004,-85.1025 2677.9038,-78.7796"/>
</g>
<!-- Node44&#45;&gt;Node9 -->
<g id="edge133" class="edge">
<title>Node44&#45;&gt;Node9</title>
<path fill="none" stroke="#191970" d="M3255.3308,-114.2416C3225.1946,-95.7379 3164.2642,-58.5383 3159,-57 3084.9032,-35.3473 1893.301,-14.9759 1657.3972,-11.1439"/>
<polygon fill="#191970" stroke="#191970" points="1657.2602,-7.6413 1647.2049,-10.979 1657.1469,-14.6404 1657.2602,-7.6413"/>
</g>
<!-- Node44&#45;&gt;Node23 -->
<g id="edge134" class="edge">
<title>Node44&#45;&gt;Node23</title>
<path fill="none" stroke="#191970" d="M3222.3556,-119.9797C3099.0446,-108.7517 2781.3632,-79.8254 2678.5965,-70.4681"/>
<polygon fill="#191970" stroke="#191970" points="2678.7878,-66.9711 2668.5116,-69.5498 2678.153,-73.9422 2678.7878,-66.9711"/>
</g>
<!-- Node45 -->
<g id="node45" class="node">
<title>Node45</title>
<polygon fill="none" stroke="#bfbfbf" points="3280.5,-57.5 3280.5,-77.5 3337.5,-77.5 3337.5,-57.5 3280.5,-57.5"/>
<text text-anchor="middle" x="3309" y="-64.5" font-family="FreeSans" font-size="10.00" fill="#000000">unistd.h</text>
</g>
<!-- Node44&#45;&gt;Node45 -->
<g id="edge131" class="edge">
<title>Node44&#45;&gt;Node45</title>
<path fill="none" stroke="#191970" d="M3278.6149,-114.3095C3283.6659,-106.5282 3290.7668,-95.589 3296.834,-86.2423"/>
<polygon fill="#191970" stroke="#191970" points="3299.9334,-87.8957 3302.4424,-77.6022 3294.0619,-84.0844 3299.9334,-87.8957"/>
</g>
<!-- Node46 -->
<g id="node46" class="node">
<title>Node46</title>
<polygon fill="none" stroke="#bfbfbf" points="3355.5,-57.5 3355.5,-77.5 3420.5,-77.5 3420.5,-57.5 3355.5,-57.5"/>
<text text-anchor="middle" x="3388" y="-64.5" font-family="FreeSans" font-size="10.00" fill="#000000">exception</text>
</g>
<!-- Node44&#45;&gt;Node46 -->
<g id="edge132" class="edge">
<title>Node44&#45;&gt;Node46</title>
<path fill="none" stroke="#191970" d="M3292.4714,-114.4408C3310.7461,-105.461 3337.7317,-92.2008 3358.3643,-82.0624"/>
<polygon fill="#191970" stroke="#191970" points="3359.9116,-85.2019 3367.343,-77.6504 3356.8244,-78.9193 3359.9116,-85.2019"/>
</g>
<!-- Node47 -->
<g id="node47" class="node">
<title>Node47</title>
<polygon fill="none" stroke="#bfbfbf" points="3206,-57.5 3206,-77.5 3262,-77.5 3262,-57.5 3206,-57.5"/>
<text text-anchor="middle" x="3234" y="-64.5" font-family="FreeSans" font-size="10.00" fill="#000000">sstream</text>
</g>
<!-- Node44&#45;&gt;Node47 -->
<g id="edge135" class="edge">
<title>Node44&#45;&gt;Node47</title>
<path fill="none" stroke="#191970" d="M3265.2064,-114.3095C3259.9648,-106.4472 3252.5739,-95.3608 3246.3005,-85.9507"/>
<polygon fill="#191970" stroke="#191970" points="3249.1941,-83.9813 3240.7348,-77.6022 3243.3697,-87.8642 3249.1941,-83.9813"/>
</g>
</g>
</svg>
