<?xml version="1.0" encoding="UTF-8" standalone="no"?>
<!DOCTYPE svg PUBLIC "-//W3C//DTD SVG 1.1//EN"
 "http://www.w3.org/Graphics/SVG/1.1/DTD/svg11.dtd">
<!-- Generated by graphviz version 2.40.1 (20161225.0304)
 -->
<!-- Title: MicromegasHotChannelMapData::read Pages: 1 -->
<svg width="719pt" height="107pt"
 viewBox="0.00 0.00 719.00 107.00" xmlns="http://www.w3.org/2000/svg" xmlns:xlink="http://www.w3.org/1999/xlink">
<g id="graph0" class="graph" transform="scale(1 1) rotate(0) translate(4 103)">
<title>MicromegasHotChannelMapData::read</title>
<!-- Node1 -->
<g id="node1" class="node">
<title>Node1</title>
<polygon fill="#bfbfbf" stroke="#000000" points="0,-33.5 0,-65.5 182,-65.5 182,-33.5 0,-33.5"/>
<text text-anchor="start" x="8" y="-52.5" font-family="FreeSans" font-size="10.00" fill="#000000">MicromegasHotChannelMapData</text>
<text text-anchor="middle" x="91" y="-40.5" font-family="FreeSans" font-size="10.00" fill="#000000">::read</text>
</g>
<!-- Node2 -->
<g id="node2" class="node">
<title>Node2</title>
<g id="a_node2"><a xlink:href="../../dd/d3c/classCDBTTree.html#a9fc6dc6c02f57d29e2383ad9a5ca747e" target="_top" xlink:title="CDBTTree::GetIntValue">
<polygon fill="none" stroke="#000000" points="233.5,-78.5 233.5,-98.5 364.5,-98.5 364.5,-78.5 233.5,-78.5"/>
<text text-anchor="middle" x="299" y="-85.5" font-family="FreeSans" font-size="10.00" fill="#000000">CDBTTree::GetIntValue</text>
</a>
</g>
</g>
<!-- Node1&#45;&gt;Node2 -->
<g id="edge1" class="edge">
<title>Node1&#45;&gt;Node2</title>
<path fill="none" stroke="#191970" d="M176.502,-65.5316C196.1667,-69.2187 216.743,-73.0768 235.2956,-76.5554"/>
<polygon fill="#191970" stroke="#191970" points="234.9019,-80.0425 245.3757,-78.4454 236.192,-73.1624 234.9019,-80.0425"/>
</g>
<!-- Node3 -->
<g id="node3" class="node">
<title>Node3</title>
<g id="a_node3"><a xlink:href="../../dd/d3c/classCDBTTree.html#aa299d0220ccd1f3ae00623c462e4f88e" target="_top" xlink:title="CDBTTree::LoadCalibrations">
<polygon fill="none" stroke="#000000" points="416,-39.5 416,-59.5 572,-59.5 572,-39.5 416,-39.5"/>
<text text-anchor="middle" x="494" y="-46.5" font-family="FreeSans" font-size="10.00" fill="#000000">CDBTTree::LoadCalibrations</text>
</a>
</g>
</g>
<!-- Node1&#45;&gt;Node3 -->
<g id="edge6" class="edge">
<title>Node1&#45;&gt;Node3</title>
<path fill="none" stroke="#191970" d="M182.1951,-49.5C249.1136,-49.5 339.4927,-49.5 405.7169,-49.5"/>
<polygon fill="#191970" stroke="#191970" points="405.7183,-53.0001 415.7183,-49.5 405.7183,-46.0001 405.7183,-53.0001"/>
</g>
<!-- Node5 -->
<g id="node5" class="node">
<title>Node5</title>
<g id="a_node5"><a xlink:href="../../dd/d3c/classCDBTTree.html#a840edf796072b37b6c085075ed81f99f" target="_top" xlink:title="CDBTTree::GetSingleIntValue">
<polygon fill="none" stroke="#000000" points="218,-.5 218,-20.5 380,-20.5 380,-.5 218,-.5"/>
<text text-anchor="middle" x="299" y="-7.5" font-family="FreeSans" font-size="10.00" fill="#000000">CDBTTree::GetSingleIntValue</text>
</a>
</g>
</g>
<!-- Node1&#45;&gt;Node5 -->
<g id="edge4" class="edge">
<title>Node1&#45;&gt;Node5</title>
<path fill="none" stroke="#191970" d="M176.502,-33.4684C196.1667,-29.7813 216.743,-25.9232 235.2956,-22.4446"/>
<polygon fill="#191970" stroke="#191970" points="236.192,-25.8376 245.3757,-20.5546 234.9019,-18.9575 236.192,-25.8376"/>
</g>
<!-- Node2&#45;&gt;Node3 -->
<g id="edge2" class="edge">
<title>Node2&#45;&gt;Node3</title>
<path fill="none" stroke="#191970" d="M349.2173,-78.4565C375.0335,-73.2933 406.6851,-66.963 433.8032,-61.5394"/>
<polygon fill="#191970" stroke="#191970" points="434.8335,-64.9027 443.9528,-59.5094 433.4606,-58.0386 434.8335,-64.9027"/>
</g>
<!-- Node4 -->
<g id="node4" class="node">
<title>Node4</title>
<g id="a_node4"><a xlink:href="../../d0/da7/namespacetesting_1_1internal.html#a635606b4731f843c86ec8ca51cab83a1" target="_top" xlink:title="testing::internal::\lGetTypeName">
<polygon fill="none" stroke="#000000" points="608,-33.5 608,-65.5 711,-65.5 711,-33.5 608,-33.5"/>
<text text-anchor="start" x="616" y="-52.5" font-family="FreeSans" font-size="10.00" fill="#000000">testing::internal::</text>
<text text-anchor="middle" x="659.5" y="-40.5" font-family="FreeSans" font-size="10.00" fill="#000000">GetTypeName</text>
</a>
</g>
</g>
<!-- Node3&#45;&gt;Node4 -->
<g id="edge3" class="edge">
<title>Node3&#45;&gt;Node4</title>
<path fill="none" stroke="#191970" d="M572.388,-49.5C580.8473,-49.5 589.3675,-49.5 597.5937,-49.5"/>
<polygon fill="#191970" stroke="#191970" points="597.8297,-53.0001 607.8297,-49.5 597.8297,-46.0001 597.8297,-53.0001"/>
</g>
<!-- Node5&#45;&gt;Node3 -->
<g id="edge5" class="edge">
<title>Node5&#45;&gt;Node3</title>
<path fill="none" stroke="#191970" d="M349.2173,-20.5435C375.0335,-25.7067 406.6851,-32.037 433.8032,-37.4606"/>
<polygon fill="#191970" stroke="#191970" points="433.4606,-40.9614 443.9528,-39.4906 434.8335,-34.0973 433.4606,-40.9614"/>
</g>
</g>
</svg>
