<?xml version="1.0" encoding="UTF-8" standalone="no"?>
<!DOCTYPE svg PUBLIC "-//W3C//DTD SVG 1.1//EN"
 "http://www.w3.org/Graphics/SVG/1.1/DTD/svg11.dtd">
<!-- Generated by graphviz version 2.40.1 (20161225.0304)
 -->
<!-- Title: acts/blob/sPHENIX/Examples/Run/Reconstruction/Common/MeasurementsToSpacepoints.cpp Pages: 1 -->
<svg width="4237pt" height="593pt"
 viewBox="0.00 0.00 4236.50 593.00" xmlns="http://www.w3.org/2000/svg" xmlns:xlink="http://www.w3.org/1999/xlink">
<g id="graph0" class="graph" transform="scale(1 1) rotate(0) translate(4 589)">
<title>acts/blob/sPHENIX/Examples/Run/Reconstruction/Common/MeasurementsToSpacepoints.cpp</title>
<!-- Node1 -->
<g id="node1" class="node">
<title>Node1</title>
<polygon fill="#bfbfbf" stroke="#000000" points="1715,-540.5 1715,-584.5 1905,-584.5 1905,-540.5 1715,-540.5"/>
<text text-anchor="start" x="1723" y="-571.5" font-family="FreeSans" font-size="10.00" fill="#000000">acts/blob/sPHENIX/Examples</text>
<text text-anchor="start" x="1723" y="-559.5" font-family="FreeSans" font-size="10.00" fill="#000000">/Run/Reconstruction/Common</text>
<text text-anchor="middle" x="1810" y="-547.5" font-family="FreeSans" font-size="10.00" fill="#000000">/MeasurementsToSpacepoints.cpp</text>
</g>
<!-- Node2 -->
<g id="node2" class="node">
<title>Node2</title>
<g id="a_node2"><a xlink:href="../../df/d6f/Units_8hpp.html" target="_top" xlink:title="Acts/Definitions/Units.hpp">
<polygon fill="none" stroke="#000000" points="0,-477.5 0,-497.5 148,-497.5 148,-477.5 0,-477.5"/>
<text text-anchor="middle" x="74" y="-484.5" font-family="FreeSans" font-size="10.00" fill="#000000">Acts/Definitions/Units.hpp</text>
</a>
</g>
</g>
<!-- Node1&#45;&gt;Node2 -->
<g id="edge1" class="edge">
<title>Node1&#45;&gt;Node2</title>
<path fill="none" stroke="#191970" d="M1714.9659,-561.1475C1410.5824,-556.4989 461.9345,-539.472 157,-504 147.4688,-502.8913 137.3984,-501.2743 127.6844,-499.4806"/>
<polygon fill="#191970" stroke="#191970" points="128.2098,-496.0175 117.728,-497.5612 126.8847,-502.8909 128.2098,-496.0175"/>
</g>
<!-- Node3 -->
<g id="node3" class="node">
<title>Node3</title>
<g id="a_node3"><a xlink:href="../../d6/dfa/IBaseDetector_8hpp.html" target="_top" xlink:title="ActsExamples/Detector\l/IBaseDetector.hpp">
<polygon fill="none" stroke="#000000" points="446.5,-195.5 446.5,-227.5 581.5,-227.5 581.5,-195.5 446.5,-195.5"/>
<text text-anchor="start" x="454.5" y="-214.5" font-family="FreeSans" font-size="10.00" fill="#000000">ActsExamples/Detector</text>
<text text-anchor="middle" x="514" y="-202.5" font-family="FreeSans" font-size="10.00" fill="#000000">/IBaseDetector.hpp</text>
</a>
</g>
</g>
<!-- Node1&#45;&gt;Node3 -->
<g id="edge2" class="edge">
<title>Node1&#45;&gt;Node3</title>
<path fill="none" stroke="#191970" d="M1714.6631,-560.643C1441.9636,-554.9653 671.2879,-536.2351 562,-504 489.5069,-482.6178 415,-494.0807 415,-418.5 415,-418.5 415,-418.5 415,-349.5 415,-310.573 411.8805,-296.0318 434,-264 442.7436,-251.3382 455.6329,-240.9661 468.5234,-232.8843"/>
<polygon fill="#191970" stroke="#191970" points="470.5584,-235.7476 477.3968,-227.6551 467.0044,-229.7169 470.5584,-235.7476"/>
</g>
<!-- Node8 -->
<g id="node8" class="node">
<title>Node8</title>
<g id="a_node8"><a xlink:href="../../d8/d1b/RandomNumbers_8hpp.html" target="_top" xlink:title="ActsExamples/Framework\l/RandomNumbers.hpp">
<polygon fill="none" stroke="#000000" points="3383.5,-333.5 3383.5,-365.5 3530.5,-365.5 3530.5,-333.5 3383.5,-333.5"/>
<text text-anchor="start" x="3391.5" y="-352.5" font-family="FreeSans" font-size="10.00" fill="#000000">ActsExamples/Framework</text>
<text text-anchor="middle" x="3457" y="-340.5" font-family="FreeSans" font-size="10.00" fill="#000000">/RandomNumbers.hpp</text>
</a>
</g>
</g>
<!-- Node1&#45;&gt;Node8 -->
<g id="edge7" class="edge">
<title>Node1&#45;&gt;Node8</title>
<path fill="none" stroke="#191970" d="M1905.28,-559.2488C2058.8022,-553.2185 2370.1992,-537.7147 2632,-504 2962.5188,-461.4358 3041.452,-427.3736 3369,-366 3370.2891,-365.7585 3371.5888,-365.5149 3372.897,-365.2698"/>
<polygon fill="#191970" stroke="#191970" points="3373.8745,-368.6476 3383.0587,-363.3654 3372.585,-361.7674 3373.8745,-368.6476"/>
</g>
<!-- Node15 -->
<g id="node15" class="node">
<title>Node15</title>
<g id="a_node15"><a xlink:href="../../d7/d32/Sequencer_8hpp.html" target="_top" xlink:title="ActsExamples/Framework\l/Sequencer.hpp">
<polygon fill="none" stroke="#000000" points="2612.5,-333.5 2612.5,-365.5 2759.5,-365.5 2759.5,-333.5 2612.5,-333.5"/>
<text text-anchor="start" x="2620.5" y="-352.5" font-family="FreeSans" font-size="10.00" fill="#000000">ActsExamples/Framework</text>
<text text-anchor="middle" x="2686" y="-340.5" font-family="FreeSans" font-size="10.00" fill="#000000">/Sequencer.hpp</text>
</a>
</g>
</g>
<!-- Node1&#45;&gt;Node15 -->
<g id="edge16" class="edge">
<title>Node1&#45;&gt;Node15</title>
<path fill="none" stroke="#191970" d="M1905.0855,-559.5703C2091.4172,-553.1591 2491.1974,-535.8513 2545,-504 2591.6731,-476.3694 2574.3413,-441.034 2612,-402 2623.1078,-390.4866 2637.0491,-379.8454 2649.8274,-371.1965"/>
<polygon fill="#191970" stroke="#191970" points="2652.0018,-373.9559 2658.439,-365.5409 2648.1591,-368.1049 2652.0018,-373.9559"/>
</g>
<!-- Node20 -->
<g id="node20" class="node">
<title>Node20</title>
<g id="a_node20"><a xlink:href="../../d9/d11/Logger_8hpp.html" target="_top" xlink:title="Acts/Utilities/Logger.hpp">
<polygon fill="none" stroke="#ff0000" points="1319,-201.5 1319,-221.5 1459,-221.5 1459,-201.5 1319,-201.5"/>
<text text-anchor="middle" x="1389" y="-208.5" font-family="FreeSans" font-size="10.00" fill="#000000">Acts/Utilities/Logger.hpp</text>
</a>
</g>
</g>
<!-- Node1&#45;&gt;Node20 -->
<g id="edge155" class="edge">
<title>Node1&#45;&gt;Node20</title>
<path fill="none" stroke="#191970" d="M1714.8221,-561.0068C1431.4735,-555.311 613,-529.2712 613,-418.5 613,-418.5 613,-418.5 613,-349.5 613,-239.6096 737.8709,-288.4797 845,-264 931.0074,-244.3467 1179.1218,-225.5429 1308.4422,-216.7253"/>
<polygon fill="#191970" stroke="#191970" points="1308.9414,-220.1996 1318.6817,-216.0311 1308.4679,-213.2156 1308.9414,-220.1996"/>
</g>
<!-- Node21 -->
<g id="node21" class="node">
<title>Node21</title>
<polygon fill="none" stroke="#bfbfbf" points="1145,-132.5 1145,-152.5 1205,-152.5 1205,-132.5 1145,-132.5"/>
<text text-anchor="middle" x="1175" y="-139.5" font-family="FreeSans" font-size="10.00" fill="#000000">iostream</text>
</g>
<!-- Node1&#45;&gt;Node21 -->
<g id="edge156" class="edge">
<title>Node1&#45;&gt;Node21</title>
<path fill="none" stroke="#191970" d="M1714.8134,-561.336C1411.9566,-557.2562 487.4686,-541.7532 436,-504 325.2612,-422.7709 328.4326,-277.8023 438,-195 493.7234,-152.8887 988.0898,-144.4314 1134.3881,-142.8451"/>
<polygon fill="#191970" stroke="#191970" points="1134.742,-146.3417 1144.7052,-142.7385 1134.6696,-139.3421 1134.742,-146.3417"/>
</g>
<!-- Node31 -->
<g id="node31" class="node">
<title>Node31</title>
<g id="a_node31"><a xlink:href="../../dd/d38/CommonGeometry_8hpp.html" target="_top" xlink:title="ActsExamples/Geometry\l/CommonGeometry.hpp">
<polygon fill="none" stroke="#000000" points="443,-264.5 443,-296.5 585,-296.5 585,-264.5 443,-264.5"/>
<text text-anchor="start" x="451" y="-283.5" font-family="FreeSans" font-size="10.00" fill="#000000">ActsExamples/Geometry</text>
<text text-anchor="middle" x="514" y="-271.5" font-family="FreeSans" font-size="10.00" fill="#000000">/CommonGeometry.hpp</text>
</a>
</g>
</g>
<!-- Node1&#45;&gt;Node31 -->
<g id="edge63" class="edge">
<title>Node1&#45;&gt;Node31</title>
<path fill="none" stroke="#191970" d="M1714.5698,-560.7257C1436.5322,-555.1834 643.9032,-536.5901 599,-504 534.6354,-457.2851 519.003,-355.3226 515.2112,-306.9629"/>
<polygon fill="#191970" stroke="#191970" points="518.6836,-306.433 514.5232,-296.6892 511.6993,-306.9007 518.6836,-306.433"/>
</g>
<!-- Node32 -->
<g id="node32" class="node">
<title>Node32</title>
<g id="a_node32"><a xlink:href="../../dd/d14/CsvParticleReader_8hpp.html" target="_top" xlink:title="ActsExamples/Io/Csv\l/CsvParticleReader.hpp">
<polygon fill="none" stroke="#000000" points="795.5,-333.5 795.5,-365.5 928.5,-365.5 928.5,-333.5 795.5,-333.5"/>
<text text-anchor="start" x="803.5" y="-352.5" font-family="FreeSans" font-size="10.00" fill="#000000">ActsExamples/Io/Csv</text>
<text text-anchor="middle" x="862" y="-340.5" font-family="FreeSans" font-size="10.00" fill="#000000">/CsvParticleReader.hpp</text>
</a>
</g>
</g>
<!-- Node1&#45;&gt;Node32 -->
<g id="edge69" class="edge">
<title>Node1&#45;&gt;Node32</title>
<path fill="none" stroke="#191970" d="M1714.9089,-561.2132C1533.184,-557.8166 1143.3165,-545.7521 1016,-504 961.1624,-486.0166 945.0381,-477.504 906,-435 889.9929,-417.5717 878.2222,-393.23 870.9041,-374.9743"/>
<polygon fill="#191970" stroke="#191970" points="874.138,-373.6319 867.298,-365.541 867.5995,-376.1315 874.138,-373.6319"/>
</g>
<!-- Node35 -->
<g id="node35" class="node">
<title>Node35</title>
<g id="a_node35"><a xlink:href="../../dd/d04/CsvSimHitReader_8hpp.html" target="_top" xlink:title="ActsExamples/Io/Csv\l/CsvSimHitReader.hpp">
<polygon fill="none" stroke="#000000" points="1831,-333.5 1831,-365.5 1961,-365.5 1961,-333.5 1831,-333.5"/>
<text text-anchor="start" x="1839" y="-352.5" font-family="FreeSans" font-size="10.00" fill="#000000">ActsExamples/Io/Csv</text>
<text text-anchor="middle" x="1896" y="-340.5" font-family="FreeSans" font-size="10.00" fill="#000000">/CsvSimHitReader.hpp</text>
</a>
</g>
</g>
<!-- Node1&#45;&gt;Node35 -->
<g id="edge83" class="edge">
<title>Node1&#45;&gt;Node35</title>
<path fill="none" stroke="#191970" d="M1905.1642,-541.3796C1923.6307,-532.8342 1940.7259,-520.8379 1952,-504 1979.8312,-462.4339 1943.2715,-405.3321 1917.4675,-373.4728"/>
<polygon fill="#191970" stroke="#191970" points="1919.9586,-370.9956 1910.8611,-365.5656 1914.5868,-375.4838 1919.9586,-370.9956"/>
</g>
<!-- Node38 -->
<g id="node38" class="node">
<title>Node38</title>
<g id="a_node38"><a xlink:href="../../d6/d30/CsvSpacepointWriter_8hpp.html" target="_top" xlink:title="ActsExamples/Io/Csv\l/CsvSpacepointWriter.hpp">
<polygon fill="none" stroke="#ff0000" points="3837,-333.5 3837,-365.5 3985,-365.5 3985,-333.5 3837,-333.5"/>
<text text-anchor="start" x="3845" y="-352.5" font-family="FreeSans" font-size="10.00" fill="#000000">ActsExamples/Io/Csv</text>
<text text-anchor="middle" x="3911" y="-340.5" font-family="FreeSans" font-size="10.00" fill="#000000">/CsvSpacepointWriter.hpp</text>
</a>
</g>
</g>
<!-- Node1&#45;&gt;Node38 -->
<g id="edge96" class="edge">
<title>Node1&#45;&gt;Node38</title>
<path fill="none" stroke="#191970" d="M1905.1196,-562.0102C2270.827,-559.8031 3574.9037,-548.8354 3755,-504 3822.3143,-487.2419 3853.0776,-490.2681 3895,-435 3907.8169,-418.103 3911.3866,-394.0141 3911.9977,-375.7091"/>
<polygon fill="#191970" stroke="#191970" points="3915.4976,-375.7205 3912.0631,-365.6978 3908.4977,-375.6747 3915.4976,-375.7205"/>
</g>
<!-- Node41 -->
<g id="node41" class="node">
<title>Node41</title>
<g id="a_node41"><a xlink:href="../../db/d01/JsonDigitizationConfig_8hpp.html" target="_top" xlink:title="ActsExamples/Io/Json\l/JsonDigitizationConfig.hpp">
<polygon fill="none" stroke="#ff0000" points="3732,-402.5 3732,-434.5 3886,-434.5 3886,-402.5 3732,-402.5"/>
<text text-anchor="start" x="3740" y="-421.5" font-family="FreeSans" font-size="10.00" fill="#000000">ActsExamples/Io/Json</text>
<text text-anchor="middle" x="3809" y="-409.5" font-family="FreeSans" font-size="10.00" fill="#000000">/JsonDigitizationConfig.hpp</text>
</a>
</g>
</g>
<!-- Node1&#45;&gt;Node41 -->
<g id="edge105" class="edge">
<title>Node1&#45;&gt;Node41</title>
<path fill="none" stroke="#191970" d="M1905.027,-561.4525C2279.0736,-557.0892 3633.6007,-538.9346 3718,-504 3748.6316,-491.3209 3775.1404,-463.2784 3791.5208,-442.7528"/>
<polygon fill="#191970" stroke="#191970" points="3794.3544,-444.81 3797.6989,-434.7569 3788.8152,-440.5301 3794.3544,-444.81"/>
</g>
<!-- Node42 -->
<g id="node42" class="node">
<title>Node42</title>
<g id="a_node42"><a xlink:href="../../d7/d2b/CommonOptions_8hpp.html" target="_top" xlink:title="ActsExamples/Options\l/CommonOptions.hpp">
<polygon fill="none" stroke="#ff0000" points="2621,-402.5 2621,-434.5 2751,-434.5 2751,-402.5 2621,-402.5"/>
<text text-anchor="start" x="2629" y="-421.5" font-family="FreeSans" font-size="10.00" fill="#000000">ActsExamples/Options</text>
<text text-anchor="middle" x="2686" y="-409.5" font-family="FreeSans" font-size="10.00" fill="#000000">/CommonOptions.hpp</text>
</a>
</g>
</g>
<!-- Node1&#45;&gt;Node42 -->
<g id="edge107" class="edge">
<title>Node1&#45;&gt;Node42</title>
<path fill="none" stroke="#191970" d="M1905.3071,-558.9576C2100.6447,-551.1824 2533.3101,-531.1295 2595,-504 2625.3471,-490.6542 2651.9113,-462.7415 2668.3824,-442.4286"/>
<polygon fill="#191970" stroke="#191970" points="2671.1688,-444.5475 2674.5992,-434.5234 2665.6664,-440.2203 2671.1688,-444.5475"/>
</g>
<!-- Node43 -->
<g id="node43" class="node">
<title>Node43</title>
<polygon fill="none" stroke="#bfbfbf" points="3587,-339.5 3587,-359.5 3743,-359.5 3743,-339.5 3587,-339.5"/>
<text text-anchor="middle" x="3665" y="-346.5" font-family="FreeSans" font-size="10.00" fill="#000000">boost/program_options.hpp</text>
</g>
<!-- Node1&#45;&gt;Node43 -->
<g id="edge157" class="edge">
<title>Node1&#45;&gt;Node43</title>
<path fill="none" stroke="#191970" d="M1905.1893,-559.3666C2249.8061,-547.511 3420.0823,-502.6151 3573,-435 3606.3535,-420.2522 3635.3941,-388.2807 3651.521,-367.8855"/>
<polygon fill="#191970" stroke="#191970" points="3654.5005,-369.7515 3657.8042,-359.685 3648.944,-365.4941 3654.5005,-369.7515"/>
</g>
<!-- Node44 -->
<g id="node44" class="node">
<title>Node44</title>
<g id="a_node44"><a xlink:href="../../d6/d79/CsvOptionsReader_8hpp.html" target="_top" xlink:title="ActsExamples/Options\l/CsvOptionsReader.hpp">
<polygon fill="none" stroke="#ff0000" points="914.5,-402.5 914.5,-434.5 1049.5,-434.5 1049.5,-402.5 914.5,-402.5"/>
<text text-anchor="start" x="922.5" y="-421.5" font-family="FreeSans" font-size="10.00" fill="#000000">ActsExamples/Options</text>
<text text-anchor="middle" x="982" y="-409.5" font-family="FreeSans" font-size="10.00" fill="#000000">/CsvOptionsReader.hpp</text>
</a>
</g>
</g>
<!-- Node1&#45;&gt;Node44 -->
<g id="edge113" class="edge">
<title>Node1&#45;&gt;Node44</title>
<path fill="none" stroke="#191970" d="M1714.6742,-558.8108C1526.7044,-550.9868 1121.4216,-531.1927 1064,-504 1035.9879,-490.7345 1012.5399,-463.4586 997.9897,-443.2641"/>
<polygon fill="#191970" stroke="#191970" points="1000.7103,-441.0459 992.1287,-434.8325 994.9625,-445.0413 1000.7103,-441.0459"/>
</g>
<!-- Node45 -->
<g id="node45" class="node">
<title>Node45</title>
<g id="a_node45"><a xlink:href="../../d8/dbb/MagneticFieldOptions_8hpp.html" target="_top" xlink:title="ActsExamples/Options\l/MagneticFieldOptions.hpp">
<polygon fill="none" stroke="#ff0000" points="166,-471.5 166,-503.5 318,-503.5 318,-471.5 166,-471.5"/>
<text text-anchor="start" x="174" y="-490.5" font-family="FreeSans" font-size="10.00" fill="#000000">ActsExamples/Options</text>
<text text-anchor="middle" x="242" y="-478.5" font-family="FreeSans" font-size="10.00" fill="#000000">/MagneticFieldOptions.hpp</text>
</a>
</g>
</g>
<!-- Node1&#45;&gt;Node45 -->
<g id="edge117" class="edge">
<title>Node1&#45;&gt;Node45</title>
<path fill="none" stroke="#191970" d="M1714.7637,-560.4972C1432.1998,-554.275 601.5108,-533.8863 332,-504 330.8948,-503.8774 329.7827,-503.7493 328.665,-503.6158"/>
<polygon fill="#191970" stroke="#191970" points="328.8551,-500.111 318.4856,-502.2844 327.9472,-507.0518 328.8551,-500.111"/>
</g>
<!-- Node46 -->
<g id="node46" class="node">
<title>Node46</title>
<g id="a_node46"><a xlink:href="../../d1/d06/ReconstructionBase_8hpp.html" target="_top" xlink:title="ActsExamples/Reconstruction\l/ReconstructionBase.hpp">
<polygon fill="none" stroke="#ff0000" points="1777,-471.5 1777,-503.5 1943,-503.5 1943,-471.5 1777,-471.5"/>
<text text-anchor="start" x="1785" y="-490.5" font-family="FreeSans" font-size="10.00" fill="#000000">ActsExamples/Reconstruction</text>
<text text-anchor="middle" x="1860" y="-478.5" font-family="FreeSans" font-size="10.00" fill="#000000">/ReconstructionBase.hpp</text>
</a>
</g>
</g>
<!-- Node1&#45;&gt;Node46 -->
<g id="edge119" class="edge">
<title>Node1&#45;&gt;Node46</title>
<path fill="none" stroke="#191970" d="M1824.7312,-540.4032C1830.6077,-531.5885 1837.4003,-521.3995 1843.4462,-512.3307"/>
<polygon fill="#191970" stroke="#191970" points="1846.5467,-513.9897 1849.1815,-503.7277 1840.7223,-510.1067 1846.5467,-513.9897"/>
</g>
<!-- Node47 -->
<g id="node47" class="node">
<title>Node47</title>
<g id="a_node47"><a xlink:href="../../da/d67/Options_8hpp.html" target="_top" xlink:title="ActsExamples/Utilities\l/Options.hpp">
<polygon fill="none" stroke="#ff0000" points="3613.5,-195.5 3613.5,-227.5 3742.5,-227.5 3742.5,-195.5 3613.5,-195.5"/>
<text text-anchor="start" x="3621.5" y="-214.5" font-family="FreeSans" font-size="10.00" fill="#000000">ActsExamples/Utilities</text>
<text text-anchor="middle" x="3678" y="-202.5" font-family="FreeSans" font-size="10.00" fill="#000000">/Options.hpp</text>
</a>
</g>
</g>
<!-- Node1&#45;&gt;Node47 -->
<g id="edge149" class="edge">
<title>Node1&#45;&gt;Node47</title>
<path fill="none" stroke="#191970" d="M1905.1595,-560.2442C2179.1425,-553.4816 2966.5823,-532.0952 3223,-504 3396.2382,-485.0186 3443.2045,-488.6992 3609,-435 3676.1339,-413.2561 3714.4788,-425.7655 3752,-366 3768.0028,-340.51 3733.7054,-268.4849 3731,-264 3724.4147,-253.0833 3715.0574,-242.7995 3706.0335,-234.276"/>
<polygon fill="#191970" stroke="#191970" points="3708.3651,-231.6656 3698.6001,-227.5551 3703.6704,-236.8579 3708.3651,-231.6656"/>
</g>
<!-- Node48 -->
<g id="node48" class="node">
<title>Node48</title>
<g id="a_node48"><a xlink:href="../../de/d52/SpacePointMaker_8hpp.html" target="_top" xlink:title="ActsExamples/TrackFinding\l/SpacePointMaker.hpp">
<polygon fill="none" stroke="#ff0000" points="1659,-333.5 1659,-365.5 1813,-365.5 1813,-333.5 1659,-333.5"/>
<text text-anchor="start" x="1667" y="-352.5" font-family="FreeSans" font-size="10.00" fill="#000000">ActsExamples/TrackFinding</text>
<text text-anchor="middle" x="1736" y="-340.5" font-family="FreeSans" font-size="10.00" fill="#000000">/SpacePointMaker.hpp</text>
</a>
</g>
</g>
<!-- Node1&#45;&gt;Node48 -->
<g id="edge132" class="edge">
<title>Node1&#45;&gt;Node48</title>
<path fill="none" stroke="#191970" d="M1790.6389,-540.2426C1782.5247,-529.8519 1773.6763,-516.9376 1768,-504 1749.2951,-461.3668 1741.3221,-407.2428 1738.0756,-375.6775"/>
<polygon fill="#191970" stroke="#191970" points="1741.5401,-375.1354 1737.1146,-365.5091 1734.5711,-375.7941 1741.5401,-375.1354"/>
</g>
<!-- Node49 -->
<g id="node49" class="node">
<title>Node49</title>
<g id="a_node49"><a xlink:href="../../d0/d3e/TruthSeedSelector_8hpp.html" target="_top" xlink:title="ActsExamples/TruthTracking\l/TruthSeedSelector.hpp">
<polygon fill="none" stroke="#ff0000" points="1040.5,-333.5 1040.5,-365.5 1199.5,-365.5 1199.5,-333.5 1040.5,-333.5"/>
<text text-anchor="start" x="1048.5" y="-352.5" font-family="FreeSans" font-size="10.00" fill="#000000">ActsExamples/TruthTracking</text>
<text text-anchor="middle" x="1120" y="-340.5" font-family="FreeSans" font-size="10.00" fill="#000000">/TruthSeedSelector.hpp</text>
</a>
</g>
</g>
<!-- Node1&#45;&gt;Node49 -->
<g id="edge141" class="edge">
<title>Node1&#45;&gt;Node49</title>
<path fill="none" stroke="#191970" d="M1738.434,-540.4079C1602.5245,-498.4532 1309.2601,-407.9238 1181.5373,-368.4963"/>
<polygon fill="#191970" stroke="#191970" points="1182.4852,-365.126 1171.8977,-365.5206 1180.4204,-371.8146 1182.4852,-365.126"/>
</g>
<!-- Node50 -->
<g id="node50" class="node">
<title>Node50</title>
<g id="a_node50"><a xlink:href="../../dc/dad/Paths_8hpp.html" target="_top" xlink:title="ActsExamples/Utilities\l/Paths.hpp">
<polygon fill="none" stroke="#000000" points="1971.5,-195.5 1971.5,-227.5 2100.5,-227.5 2100.5,-195.5 1971.5,-195.5"/>
<text text-anchor="start" x="1979.5" y="-214.5" font-family="FreeSans" font-size="10.00" fill="#000000">ActsExamples/Utilities</text>
<text text-anchor="middle" x="2036" y="-202.5" font-family="FreeSans" font-size="10.00" fill="#000000">/Paths.hpp</text>
</a>
</g>
</g>
<!-- Node1&#45;&gt;Node50 -->
<g id="edge150" class="edge">
<title>Node1&#45;&gt;Node50</title>
<path fill="none" stroke="#191970" d="M1905.3711,-553.2897C2101.326,-533.0767 2531,-481.565 2531,-418.5 2531,-418.5 2531,-418.5 2531,-349.5 2531,-279.2282 2463.8244,-288.6023 2398,-264 2371.7155,-254.176 2209.1718,-232.8922 2111.0475,-220.6553"/>
<polygon fill="#191970" stroke="#191970" points="2111.2363,-217.1519 2100.8807,-219.391 2110.3724,-224.0984 2111.2363,-217.1519"/>
</g>
<!-- Node4 -->
<g id="node4" class="node">
<title>Node4</title>
<g id="a_node4"><a xlink:href="../../d5/d78/OptionsFwd_8hpp.html" target="_top" xlink:title="ActsExamples/Utilities\l/OptionsFwd.hpp">
<polygon fill="none" stroke="#000000" points="219.5,-126.5 219.5,-158.5 348.5,-158.5 348.5,-126.5 219.5,-126.5"/>
<text text-anchor="start" x="227.5" y="-145.5" font-family="FreeSans" font-size="10.00" fill="#000000">ActsExamples/Utilities</text>
<text text-anchor="middle" x="284" y="-133.5" font-family="FreeSans" font-size="10.00" fill="#000000">/OptionsFwd.hpp</text>
</a>
</g>
</g>
<!-- Node3&#45;&gt;Node4 -->
<g id="edge3" class="edge">
<title>Node3&#45;&gt;Node4</title>
<path fill="none" stroke="#191970" d="M460.6553,-195.4966C426.8127,-185.3438 382.8561,-172.1568 347.2571,-161.4771"/>
<polygon fill="#191970" stroke="#191970" points="348.0373,-158.0572 337.4533,-158.536 346.0259,-164.7619 348.0373,-158.0572"/>
</g>
<!-- Node5 -->
<g id="node5" class="node">
<title>Node5</title>
<polygon fill="none" stroke="#bfbfbf" points="1366,-.5 1366,-20.5 1424,-20.5 1424,-.5 1366,-.5"/>
<text text-anchor="middle" x="1395" y="-7.5" font-family="FreeSans" font-size="10.00" fill="#000000">memory</text>
</g>
<!-- Node3&#45;&gt;Node5 -->
<g id="edge4" class="edge">
<title>Node3&#45;&gt;Node5</title>
<path fill="none" stroke="#191970" d="M517.1467,-195.3144C524.452,-162.6321 545.907,-89.143 596,-57 628.2592,-36.3003 1198.6339,-16.7342 1355.41,-11.7291"/>
<polygon fill="#191970" stroke="#191970" points="1355.6662,-15.2229 1365.5502,-11.4074 1355.4441,-8.2264 1355.6662,-15.2229"/>
</g>
<!-- Node6 -->
<g id="node6" class="node">
<title>Node6</title>
<polygon fill="none" stroke="#bfbfbf" points="1502.5,-132.5 1502.5,-152.5 1547.5,-152.5 1547.5,-132.5 1502.5,-132.5"/>
<text text-anchor="middle" x="1525" y="-139.5" font-family="FreeSans" font-size="10.00" fill="#000000">utility</text>
</g>
<!-- Node3&#45;&gt;Node6 -->
<g id="edge5" class="edge">
<title>Node3&#45;&gt;Node6</title>
<path fill="none" stroke="#191970" d="M581.5887,-203.6466C609.5428,-200.6056 642.3035,-197.3083 672,-195 984.3556,-170.7211 1063.7217,-184.2527 1376,-159 1416.1455,-155.7536 1462.2034,-150.4026 1492.3553,-146.6778"/>
<polygon fill="#191970" stroke="#191970" points="1492.8316,-150.1456 1502.3212,-145.4342 1491.9648,-143.1994 1492.8316,-150.1456"/>
</g>
<!-- Node7 -->
<g id="node7" class="node">
<title>Node7</title>
<polygon fill="none" stroke="#bfbfbf" points="2142.5,-132.5 2142.5,-152.5 2191.5,-152.5 2191.5,-132.5 2142.5,-132.5"/>
<text text-anchor="middle" x="2167" y="-139.5" font-family="FreeSans" font-size="10.00" fill="#000000">vector</text>
</g>
<!-- Node3&#45;&gt;Node7 -->
<g id="edge6" class="edge">
<title>Node3&#45;&gt;Node7</title>
<path fill="none" stroke="#191970" d="M581.7139,-208.0875C653.1392,-204.5502 768.9738,-198.9899 869,-195 1349.3288,-175.8402 1470.0053,-185.2292 1950,-159 2014.3406,-155.4841 2089.2631,-149.3297 2132.1124,-145.6128"/>
<polygon fill="#191970" stroke="#191970" points="2132.6321,-149.0808 2142.2894,-144.7234 2132.0226,-142.1074 2132.6321,-149.0808"/>
</g>
<!-- Node9 -->
<g id="node9" class="node">
<title>Node9</title>
<g id="a_node9"><a xlink:href="../../de/d37/AlgorithmContext_8hpp.html" target="_top" xlink:title="ActsExamples/Framework\l/AlgorithmContext.hpp">
<polygon fill="none" stroke="#ff0000" points="2804.5,-126.5 2804.5,-158.5 2951.5,-158.5 2951.5,-126.5 2804.5,-126.5"/>
<text text-anchor="start" x="2812.5" y="-145.5" font-family="FreeSans" font-size="10.00" fill="#000000">ActsExamples/Framework</text>
<text text-anchor="middle" x="2878" y="-133.5" font-family="FreeSans" font-size="10.00" fill="#000000">/AlgorithmContext.hpp</text>
</a>
</g>
</g>
<!-- Node8&#45;&gt;Node9 -->
<g id="edge8" class="edge">
<title>Node8&#45;&gt;Node9</title>
<path fill="none" stroke="#191970" d="M3526.7124,-333.4437C3574.1918,-319.2604 3623.9327,-295.8658 3597,-264 3586.7314,-251.8506 3149.1251,-183.8453 2961.7383,-155.2111"/>
<polygon fill="#191970" stroke="#191970" points="2962.0673,-151.7208 2951.6535,-153.6711 2961.0106,-158.6406 2962.0673,-151.7208"/>
</g>
<!-- Node13 -->
<g id="node13" class="node">
<title>Node13</title>
<polygon fill="none" stroke="#bfbfbf" points="2665.5,-201.5 2665.5,-221.5 2716.5,-221.5 2716.5,-201.5 2665.5,-201.5"/>
<text text-anchor="middle" x="2691" y="-208.5" font-family="FreeSans" font-size="10.00" fill="#000000">cstdint</text>
</g>
<!-- Node8&#45;&gt;Node13 -->
<g id="edge14" class="edge">
<title>Node8&#45;&gt;Node13</title>
<path fill="none" stroke="#191970" d="M3446.9889,-333.4001C3433.3253,-313.0673 3406.7515,-278.936 3374,-264 3242.7791,-204.1579 2865.8091,-263.4036 2726,-228 2723.4928,-227.3651 2720.9481,-226.548 2718.4339,-225.6178"/>
<polygon fill="#191970" stroke="#191970" points="2719.604,-222.3121 2709.032,-221.6164 2716.8627,-228.753 2719.604,-222.3121"/>
</g>
<!-- Node14 -->
<g id="node14" class="node">
<title>Node14</title>
<polygon fill="none" stroke="#bfbfbf" points="3649.5,-270.5 3649.5,-290.5 3704.5,-290.5 3704.5,-270.5 3649.5,-270.5"/>
<text text-anchor="middle" x="3677" y="-277.5" font-family="FreeSans" font-size="10.00" fill="#000000">random</text>
</g>
<!-- Node8&#45;&gt;Node14 -->
<g id="edge15" class="edge">
<title>Node8&#45;&gt;Node14</title>
<path fill="none" stroke="#191970" d="M3516.3378,-333.4039C3551.145,-323.6135 3595.8403,-310.4382 3635,-297 3637.5518,-296.1243 3640.1771,-295.1856 3642.81,-294.2168"/>
<polygon fill="#191970" stroke="#191970" points="3644.1497,-297.452 3652.2597,-290.6345 3641.6683,-290.9065 3644.1497,-297.452"/>
</g>
<!-- Node9&#45;&gt;Node5 -->
<g id="edge13" class="edge">
<title>Node9&#45;&gt;Node5</title>
<path fill="none" stroke="#191970" d="M2804.4578,-135.9541C2538.7573,-112.3044 1633.6765,-31.7443 1434.1336,-13.9832"/>
<polygon fill="#191970" stroke="#191970" points="1434.3789,-10.4913 1424.1079,-13.0909 1433.7582,-17.4638 1434.3789,-10.4913"/>
</g>
<!-- Node10 -->
<g id="node10" class="node">
<title>Node10</title>
<g id="a_node10"><a xlink:href="../../d3/d2a/FpeMonitor_8hpp.html" target="_top" xlink:title="Acts/Plugins/FpeMonitoring\l/FpeMonitor.hpp">
<polygon fill="none" stroke="#ff0000" points="3128,-57.5 3128,-89.5 3282,-89.5 3282,-57.5 3128,-57.5"/>
<text text-anchor="start" x="3136" y="-76.5" font-family="FreeSans" font-size="10.00" fill="#000000">Acts/Plugins/FpeMonitoring</text>
<text text-anchor="middle" x="3205" y="-64.5" font-family="FreeSans" font-size="10.00" fill="#000000">/FpeMonitor.hpp</text>
</a>
</g>
</g>
<!-- Node9&#45;&gt;Node10 -->
<g id="edge9" class="edge">
<title>Node9&#45;&gt;Node10</title>
<path fill="none" stroke="#191970" d="M2951.7929,-126.929C3001.4314,-116.4548 3067.0476,-102.6092 3119.0456,-91.6372"/>
<polygon fill="#191970" stroke="#191970" points="3119.8597,-95.0425 3128.9216,-89.5532 3118.4144,-88.1934 3119.8597,-95.0425"/>
</g>
<!-- Node12 -->
<g id="node12" class="node">
<title>Node12</title>
<g id="a_node12"><a xlink:href="../../d1/db8/GeometryContext_8hpp.html" target="_top" xlink:title="Acts/Geometry/GeometryContext.hpp">
<polygon fill="none" stroke="#ff0000" points="3456,-63.5 3456,-83.5 3664,-83.5 3664,-63.5 3456,-63.5"/>
<text text-anchor="middle" x="3560" y="-70.5" font-family="FreeSans" font-size="10.00" fill="#000000">Acts/Geometry/GeometryContext.hpp</text>
</a>
</g>
</g>
<!-- Node9&#45;&gt;Node12 -->
<g id="edge12" class="edge">
<title>Node9&#45;&gt;Node12</title>
<path fill="none" stroke="#191970" d="M2951.6339,-135.0502C3071.7629,-122.8964 3310.5275,-98.7399 3450.5567,-84.5727"/>
<polygon fill="#191970" stroke="#191970" points="3451.2836,-88.0171 3460.8805,-83.5282 3450.5789,-81.0527 3451.2836,-88.0171"/>
</g>
<!-- Node10&#45;&gt;Node5 -->
<g id="edge11" class="edge">
<title>Node10&#45;&gt;Node5</title>
<path fill="none" stroke="#191970" d="M3127.669,-58.6512C3123.054,-58.0224 3118.4718,-57.4632 3114,-57 2772.7053,-21.6504 1658.4254,-12.2923 1434.4315,-10.7498"/>
<polygon fill="#191970" stroke="#191970" points="1434.1735,-7.248 1424.15,-10.6802 1434.126,-14.2479 1434.1735,-7.248"/>
</g>
<!-- Node11 -->
<g id="node11" class="node">
<title>Node11</title>
<polygon fill="none" stroke="#bfbfbf" points="3230,-.5 3230,-20.5 3284,-20.5 3284,-.5 3230,-.5"/>
<text text-anchor="middle" x="3257" y="-7.5" font-family="FreeSans" font-size="10.00" fill="#000000">cstddef</text>
</g>
<!-- Node10&#45;&gt;Node11 -->
<g id="edge10" class="edge">
<title>Node10&#45;&gt;Node11</title>
<path fill="none" stroke="#191970" d="M3218.3913,-57.2759C3225.5974,-48.5454 3234.5086,-37.7492 3241.9535,-28.7294"/>
<polygon fill="#191970" stroke="#191970" points="3244.8722,-30.6915 3248.5386,-20.7513 3239.4737,-26.2355 3244.8722,-30.6915"/>
</g>
<!-- Node15&#45;&gt;Node5 -->
<g id="edge54" class="edge">
<title>Node15&#45;&gt;Node5</title>
<path fill="none" stroke="#191970" d="M2759.8498,-340.6654C2795.7722,-333.4787 2837.9912,-320.4797 2870,-297 2939.4178,-246.0792 3019.3091,-189.3388 2961,-126 2907.6117,-68.0065 1672.0983,-20.5146 1434.3698,-11.8965"/>
<polygon fill="#191970" stroke="#191970" points="1434.2433,-8.3897 1424.1236,-11.5268 1433.9908,-15.3852 1434.2433,-8.3897"/>
</g>
<!-- Node15&#45;&gt;Node6 -->
<g id="edge60" class="edge">
<title>Node15&#45;&gt;Node6</title>
<path fill="none" stroke="#191970" d="M2642.2907,-333.4437C2586.4487,-313.6503 2486.4257,-280.601 2398,-264 2207.3367,-228.205 2153.9417,-262.2787 1963,-228 1909.4002,-218.3775 1898.1719,-206.7594 1845,-195 1740.9843,-171.9961 1615.9051,-154.3159 1557.7289,-146.6573"/>
<polygon fill="#191970" stroke="#191970" points="1558.0336,-143.1675 1547.6649,-145.3449 1557.1283,-150.1087 1558.0336,-143.1675"/>
</g>
<!-- Node15&#45;&gt;Node7 -->
<g id="edge61" class="edge">
<title>Node15&#45;&gt;Node7</title>
<path fill="none" stroke="#191970" d="M2668.2194,-333.2437C2643.9082,-311.2848 2601.2348,-273.7625 2583,-264 2452.1299,-193.9355 2275.8914,-159.7005 2201.9467,-147.6838"/>
<polygon fill="#191970" stroke="#191970" points="2202.2221,-144.1837 2191.7966,-146.0705 2201.1232,-151.097 2202.2221,-144.1837"/>
</g>
<!-- Node15&#45;&gt;Node10 -->
<g id="edge17" class="edge">
<title>Node15&#45;&gt;Node10</title>
<path fill="none" stroke="#191970" d="M2759.6001,-346.548C2932.8314,-339.2442 3353.3399,-319.2967 3374,-297 3437.9186,-228.0181 3308.9256,-135.7669 3241.9278,-94.7281"/>
<polygon fill="#191970" stroke="#191970" points="3243.6708,-91.692 3233.3016,-89.5169 3240.0512,-97.6836 3243.6708,-91.692"/>
</g>
<!-- Node15&#45;&gt;Node11 -->
<g id="edge53" class="edge">
<title>Node15&#45;&gt;Node11</title>
<path fill="none" stroke="#191970" d="M2759.5354,-346.3411C2928.7307,-338.7955 3341.6111,-318.7258 3479,-297 3494.4516,-294.5566 3742.3887,-240.3428 3752,-228 3791.4543,-177.3331 3791.9117,-129.522 3695,-57 3663.212,-33.212 3394.734,-17.4169 3294.5214,-12.3019"/>
<polygon fill="#191970" stroke="#191970" points="3294.42,-8.7925 3284.2568,-11.7855 3294.0682,-15.7836 3294.42,-8.7925"/>
</g>
<!-- Node16 -->
<g id="node16" class="node">
<title>Node16</title>
<g id="a_node16"><a xlink:href="../../d3/d98/IAlgorithm_8hpp.html" target="_top" xlink:title="ActsExamples/Framework\l/IAlgorithm.hpp">
<polygon fill="none" stroke="#000000" points="1691.5,-264.5 1691.5,-296.5 1838.5,-296.5 1838.5,-264.5 1691.5,-264.5"/>
<text text-anchor="start" x="1699.5" y="-283.5" font-family="FreeSans" font-size="10.00" fill="#000000">ActsExamples/Framework</text>
<text text-anchor="middle" x="1765" y="-271.5" font-family="FreeSans" font-size="10.00" fill="#000000">/IAlgorithm.hpp</text>
</a>
</g>
</g>
<!-- Node15&#45;&gt;Node16 -->
<g id="edge18" class="edge">
<title>Node15&#45;&gt;Node16</title>
<path fill="none" stroke="#191970" d="M2612.4357,-346.2245C2471.9791,-339.6199 2155.9892,-323.0729 1891,-297 1877.3077,-295.6528 1862.8091,-293.9828 1848.7096,-292.2272"/>
<polygon fill="#191970" stroke="#191970" points="1848.8915,-288.7223 1838.5307,-290.9371 1848.0113,-295.6668 1848.8915,-288.7223"/>
</g>
<!-- Node18 -->
<g id="node18" class="node">
<title>Node18</title>
<g id="a_node18"><a xlink:href="../../d1/dc6/SequenceElement_8hpp.html" target="_top" xlink:title="ActsExamples/Framework\l/SequenceElement.hpp">
<polygon fill="none" stroke="#000000" points="2195.5,-195.5 2195.5,-227.5 2342.5,-227.5 2342.5,-195.5 2195.5,-195.5"/>
<text text-anchor="start" x="2203.5" y="-214.5" font-family="FreeSans" font-size="10.00" fill="#000000">ActsExamples/Framework</text>
<text text-anchor="middle" x="2269" y="-202.5" font-family="FreeSans" font-size="10.00" fill="#000000">/SequenceElement.hpp</text>
</a>
</g>
</g>
<!-- Node15&#45;&gt;Node18 -->
<g id="edge49" class="edge">
<title>Node15&#45;&gt;Node18</title>
<path fill="none" stroke="#191970" d="M2655.8709,-333.3728C2637.4727,-323.3087 2613.603,-309.8627 2593,-297 2571.0397,-283.2899 2568.8938,-273.9653 2545,-264 2483.4434,-238.327 2408.9025,-225.1014 2352.8105,-218.3506"/>
<polygon fill="#191970" stroke="#191970" points="2352.895,-214.8371 2342.5589,-217.1638 2352.09,-221.7906 2352.895,-214.8371"/>
</g>
<!-- Node19 -->
<g id="node19" class="node">
<title>Node19</title>
<polygon fill="none" stroke="#bfbfbf" points="2443.5,-132.5 2443.5,-152.5 2488.5,-152.5 2488.5,-132.5 2443.5,-132.5"/>
<text text-anchor="middle" x="2466" y="-139.5" font-family="FreeSans" font-size="10.00" fill="#000000">string</text>
</g>
<!-- Node15&#45;&gt;Node19 -->
<g id="edge57" class="edge">
<title>Node15&#45;&gt;Node19</title>
<path fill="none" stroke="#191970" d="M2740.9516,-333.4674C2818.445,-308.2206 2944.723,-255.7677 2891,-195 2865.0699,-165.6697 2594.0968,-149.0633 2498.8688,-144.0986"/>
<polygon fill="#191970" stroke="#191970" points="2498.8317,-140.5922 2488.6658,-143.5764 2498.4738,-147.5831 2498.8317,-140.5922"/>
</g>
<!-- Node15&#45;&gt;Node20 -->
<g id="edge52" class="edge">
<title>Node15&#45;&gt;Node20</title>
<path fill="none" stroke="#191970" d="M2612.2636,-348.4121C2406.5292,-344.9599 1829.1438,-332.3162 1643,-297 1560.846,-281.4133 1468.8604,-245.5739 1421.3351,-225.599"/>
<polygon fill="#191970" stroke="#191970" points="1422.4608,-222.2746 1411.8881,-221.5903 1419.7265,-228.7185 1422.4608,-222.2746"/>
</g>
<!-- Node22 -->
<g id="node22" class="node">
<title>Node22</title>
<polygon fill="none" stroke="#bfbfbf" points="3448.5,-132.5 3448.5,-152.5 3505.5,-152.5 3505.5,-132.5 3448.5,-132.5"/>
<text text-anchor="middle" x="3477" y="-139.5" font-family="FreeSans" font-size="10.00" fill="#000000">optional</text>
</g>
<!-- Node15&#45;&gt;Node22 -->
<g id="edge55" class="edge">
<title>Node15&#45;&gt;Node22</title>
<path fill="none" stroke="#191970" d="M2759.5594,-348.4214C2932.6629,-345.2812 3355.1232,-333.8878 3407,-297 3447.2363,-268.3893 3430.2596,-239.8037 3451,-195 3456.1273,-183.9239 3462.1607,-171.696 3467.124,-161.8298"/>
<polygon fill="#191970" stroke="#191970" points="3470.2605,-163.3834 3471.6575,-152.881 3464.0161,-160.2199 3470.2605,-163.3834"/>
</g>
<!-- Node23 -->
<g id="node23" class="node">
<title>Node23</title>
<polygon fill="none" stroke="#bfbfbf" points="1301,-132.5 1301,-152.5 1367,-152.5 1367,-132.5 1301,-132.5"/>
<text text-anchor="middle" x="1334" y="-139.5" font-family="FreeSans" font-size="10.00" fill="#000000">stdexcept</text>
</g>
<!-- Node15&#45;&gt;Node23 -->
<g id="edge56" class="edge">
<title>Node15&#45;&gt;Node23</title>
<path fill="none" stroke="#191970" d="M2612.47,-346.0968C2454.3214,-338.4611 2086.2109,-318.9077 1963,-297 1910.6473,-287.6914 1899.4207,-277.5413 1848,-264 1781.7006,-246.5405 1759.3516,-258.6011 1698,-228 1677.3762,-217.7132 1678.9945,-204.5074 1658,-195 1608.6086,-172.6332 1453.6124,-154.509 1377.3081,-146.6793"/>
<polygon fill="#191970" stroke="#191970" points="1377.3846,-143.1692 1367.0827,-145.6435 1376.679,-150.1336 1377.3846,-143.1692"/>
</g>
<!-- Node24 -->
<g id="node24" class="node">
<title>Node24</title>
<g id="a_node24"><a xlink:href="../../db/d42/IContextDecorator_8hpp.html" target="_top" xlink:title="ActsExamples/Framework\l/IContextDecorator.hpp">
<polygon fill="none" stroke="#000000" points="2734.5,-195.5 2734.5,-227.5 2881.5,-227.5 2881.5,-195.5 2734.5,-195.5"/>
<text text-anchor="start" x="2742.5" y="-214.5" font-family="FreeSans" font-size="10.00" fill="#000000">ActsExamples/Framework</text>
<text text-anchor="middle" x="2808" y="-202.5" font-family="FreeSans" font-size="10.00" fill="#000000">/IContextDecorator.hpp</text>
</a>
</g>
</g>
<!-- Node15&#45;&gt;Node24 -->
<g id="edge34" class="edge">
<title>Node15&#45;&gt;Node24</title>
<path fill="none" stroke="#191970" d="M2741.2009,-333.4935C2759.9613,-325.4283 2779.3572,-313.7014 2792,-297 2804.8004,-280.0905 2808.3717,-256.0028 2808.9876,-237.7014"/>
<polygon fill="#191970" stroke="#191970" points="2812.4875,-237.7163 2809.0561,-227.6925 2805.4876,-237.6683 2812.4875,-237.7163"/>
</g>
<!-- Node25 -->
<g id="node25" class="node">
<title>Node25</title>
<g id="a_node25"><a xlink:href="../../d0/d6e/IReader_8hpp.html" target="_top" xlink:title="ActsExamples/Framework\l/IReader.hpp">
<polygon fill="none" stroke="#000000" points="1971.5,-264.5 1971.5,-296.5 2118.5,-296.5 2118.5,-264.5 1971.5,-264.5"/>
<text text-anchor="start" x="1979.5" y="-283.5" font-family="FreeSans" font-size="10.00" fill="#000000">ActsExamples/Framework</text>
<text text-anchor="middle" x="2045" y="-271.5" font-family="FreeSans" font-size="10.00" fill="#000000">/IReader.hpp</text>
</a>
</g>
</g>
<!-- Node15&#45;&gt;Node25 -->
<g id="edge38" class="edge">
<title>Node15&#45;&gt;Node25</title>
<path fill="none" stroke="#191970" d="M2612.4297,-342.843C2511.769,-333.5555 2325.5162,-315.7314 2167,-297 2154.6899,-295.5454 2141.696,-293.903 2128.9598,-292.2325"/>
<polygon fill="#191970" stroke="#191970" points="2129.1919,-288.7328 2118.819,-290.8899 2128.2731,-295.6722 2129.1919,-288.7328"/>
</g>
<!-- Node26 -->
<g id="node26" class="node">
<title>Node26</title>
<g id="a_node26"><a xlink:href="../../da/d8c/IWriter_8hpp.html" target="_top" xlink:title="ActsExamples/Framework\l/IWriter.hpp">
<polygon fill="none" stroke="#000000" points="2635.5,-264.5 2635.5,-296.5 2782.5,-296.5 2782.5,-264.5 2635.5,-264.5"/>
<text text-anchor="start" x="2643.5" y="-283.5" font-family="FreeSans" font-size="10.00" fill="#000000">ActsExamples/Framework</text>
<text text-anchor="middle" x="2709" y="-271.5" font-family="FreeSans" font-size="10.00" fill="#000000">/IWriter.hpp</text>
</a>
</g>
</g>
<!-- Node15&#45;&gt;Node26 -->
<g id="edge44" class="edge">
<title>Node15&#45;&gt;Node26</title>
<path fill="none" stroke="#191970" d="M2691.3345,-333.4966C2693.9956,-325.5132 2697.2821,-315.6538 2700.2958,-306.6125"/>
<polygon fill="#191970" stroke="#191970" points="2703.6928,-307.4894 2703.5347,-296.8958 2697.052,-305.2758 2703.6928,-307.4894"/>
</g>
<!-- Node27 -->
<g id="node27" class="node">
<title>Node27</title>
<g id="a_node27"><a xlink:href="../../d2/dfe/tbbWrap_8hpp.html" target="_top" xlink:title="ActsExamples/Utilities\l/tbbWrap.hpp">
<polygon fill="none" stroke="#ff0000" points="3459.5,-195.5 3459.5,-227.5 3588.5,-227.5 3588.5,-195.5 3459.5,-195.5"/>
<text text-anchor="start" x="3467.5" y="-214.5" font-family="FreeSans" font-size="10.00" fill="#000000">ActsExamples/Utilities</text>
<text text-anchor="middle" x="3524" y="-202.5" font-family="FreeSans" font-size="10.00" fill="#000000">/tbbWrap.hpp</text>
</a>
</g>
</g>
<!-- Node15&#45;&gt;Node27 -->
<g id="edge50" class="edge">
<title>Node15&#45;&gt;Node27</title>
<path fill="none" stroke="#191970" d="M2759.7072,-347.4857C2938.3496,-342.1669 3384.2542,-326.1173 3445,-297 3472.623,-283.7594 3495.2298,-256.2257 3509.077,-235.9654"/>
<polygon fill="#191970" stroke="#191970" points="3512.0623,-237.7959 3514.6369,-227.5186 3506.2152,-233.9472 3512.0623,-237.7959"/>
</g>
<!-- Node28 -->
<g id="node28" class="node">
<title>Node28</title>
<polygon fill="none" stroke="#bfbfbf" points="1591,-201.5 1591,-221.5 1649,-221.5 1649,-201.5 1591,-201.5"/>
<text text-anchor="middle" x="1620" y="-208.5" font-family="FreeSans" font-size="10.00" fill="#000000">typeinfo</text>
</g>
<!-- Node15&#45;&gt;Node28 -->
<g id="edge58" class="edge">
<title>Node15&#45;&gt;Node28</title>
<path fill="none" stroke="#191970" d="M2612.494,-347.37C2387.9552,-340.6379 1723.7789,-318.9627 1683,-297 1656.3365,-282.6396 1637.9536,-251.5102 1628.2017,-231.0414"/>
<polygon fill="#191970" stroke="#191970" points="1631.2977,-229.3924 1623.9997,-221.7119 1624.9152,-232.2671 1631.2977,-229.3924"/>
</g>
<!-- Node29 -->
<g id="node29" class="node">
<title>Node29</title>
<polygon fill="none" stroke="#bfbfbf" points="2953,-270.5 2953,-290.5 3049,-290.5 3049,-270.5 2953,-270.5"/>
<text text-anchor="middle" x="3001" y="-277.5" font-family="FreeSans" font-size="10.00" fill="#000000">unordered_map</text>
</g>
<!-- Node15&#45;&gt;Node29 -->
<g id="edge59" class="edge">
<title>Node15&#45;&gt;Node29</title>
<path fill="none" stroke="#191970" d="M2759.5835,-335.3514C2810.1946,-325.3459 2878.8668,-311.2291 2939,-297 2944.086,-295.7965 2949.3904,-294.4799 2954.6624,-293.132"/>
<polygon fill="#191970" stroke="#191970" points="2955.8975,-296.4273 2964.6946,-290.5231 2954.1356,-289.6527 2955.8975,-296.4273"/>
</g>
<!-- Node30 -->
<g id="node30" class="node">
<title>Node30</title>
<polygon fill="none" stroke="#bfbfbf" points="3229.5,-264.5 3229.5,-296.5 3364.5,-296.5 3364.5,-264.5 3229.5,-264.5"/>
<text text-anchor="start" x="3237.5" y="-283.5" font-family="FreeSans" font-size="10.00" fill="#000000">tbb/enumerable_thread</text>
<text text-anchor="middle" x="3297" y="-271.5" font-family="FreeSans" font-size="10.00" fill="#000000">_specific.h</text>
</g>
<!-- Node15&#45;&gt;Node30 -->
<g id="edge62" class="edge">
<title>Node15&#45;&gt;Node30</title>
<path fill="none" stroke="#191970" d="M2759.7529,-344.8978C2861.1154,-337.9832 3049.2818,-323.0361 3219.5775,-296.9531"/>
<polygon fill="#191970" stroke="#191970" points="3220.1272,-300.4098 3229.4742,-295.4215 3219.0566,-293.4922 3220.1272,-300.4098"/>
</g>
<!-- Node16&#45;&gt;Node5 -->
<g id="edge32" class="edge">
<title>Node16&#45;&gt;Node5</title>
<path fill="none" stroke="#191970" d="M1745.5676,-264.3687C1724.3451,-246.8944 1689.2101,-218.3812 1658,-195 1571.3746,-130.1044 1464.9502,-57.575 1418.5236,-26.2777"/>
<polygon fill="#191970" stroke="#191970" points="1420.3122,-23.2626 1410.0619,-20.5825 1416.4036,-29.0698 1420.3122,-23.2626"/>
</g>
<!-- Node17 -->
<g id="node17" class="node">
<title>Node17</title>
<g id="a_node17"><a xlink:href="../../d1/d06/ProcessCode_8hpp.html" target="_top" xlink:title="ActsExamples/Framework\l/ProcessCode.hpp">
<polygon fill="none" stroke="#000000" points="1793.5,-126.5 1793.5,-158.5 1940.5,-158.5 1940.5,-126.5 1793.5,-126.5"/>
<text text-anchor="start" x="1801.5" y="-145.5" font-family="FreeSans" font-size="10.00" fill="#000000">ActsExamples/Framework</text>
<text text-anchor="middle" x="1867" y="-133.5" font-family="FreeSans" font-size="10.00" fill="#000000">/ProcessCode.hpp</text>
</a>
</g>
</g>
<!-- Node16&#45;&gt;Node17 -->
<g id="edge19" class="edge">
<title>Node16&#45;&gt;Node17</title>
<path fill="none" stroke="#191970" d="M1776.9003,-264.3996C1794.6168,-240.4302 1828.0655,-195.1761 1848.8477,-167.0589"/>
<polygon fill="#191970" stroke="#191970" points="1851.73,-169.0478 1854.8593,-158.9256 1846.1007,-164.887 1851.73,-169.0478"/>
</g>
<!-- Node16&#45;&gt;Node18 -->
<g id="edge20" class="edge">
<title>Node16&#45;&gt;Node18</title>
<path fill="none" stroke="#191970" d="M1838.5556,-270.4299C1930.7813,-257.8037 2088.4967,-236.2118 2185.2624,-222.9641"/>
<polygon fill="#191970" stroke="#191970" points="2185.8684,-226.4138 2195.3012,-221.5897 2184.9189,-219.4785 2185.8684,-226.4138"/>
</g>
<!-- Node16&#45;&gt;Node19 -->
<g id="edge33" class="edge">
<title>Node16&#45;&gt;Node19</title>
<path fill="none" stroke="#191970" d="M1838.5052,-274.7603C1909.1484,-267.9764 2018.3861,-254.1411 2110,-228 2145.8036,-217.7838 2151.3805,-205.8409 2187,-195 2273.9026,-168.551 2380.2837,-152.9741 2433.055,-146.3235"/>
<polygon fill="#191970" stroke="#191970" points="2433.6782,-149.7733 2443.1746,-145.0754 2432.8213,-142.8259 2433.6782,-149.7733"/>
</g>
<!-- Node16&#45;&gt;Node20 -->
<g id="edge25" class="edge">
<title>Node16&#45;&gt;Node20</title>
<path fill="none" stroke="#191970" d="M1691.1631,-266.9501C1621.998,-254.2576 1519.6547,-235.4765 1453.6408,-223.3623"/>
<polygon fill="#191970" stroke="#191970" points="1454.2386,-219.9136 1443.771,-221.5511 1452.975,-226.7986 1454.2386,-219.9136"/>
</g>
<!-- Node18&#45;&gt;Node7 -->
<g id="edge24" class="edge">
<title>Node18&#45;&gt;Node7</title>
<path fill="none" stroke="#191970" d="M2245.3428,-195.4966C2228.8571,-184.3445 2206.9596,-169.5315 2190.5069,-158.4017"/>
<polygon fill="#191970" stroke="#191970" points="2192.2396,-155.3483 2181.9956,-152.6441 2188.3174,-161.1462 2192.2396,-155.3483"/>
</g>
<!-- Node18&#45;&gt;Node9 -->
<g id="edge21" class="edge">
<title>Node18&#45;&gt;Node9</title>
<path fill="none" stroke="#191970" d="M2342.7628,-203.1426C2456.6145,-190.2432 2674.4852,-165.5583 2794.1556,-151.9996"/>
<polygon fill="#191970" stroke="#191970" points="2794.8216,-155.4466 2804.364,-150.843 2794.0335,-148.4911 2794.8216,-155.4466"/>
</g>
<!-- Node18&#45;&gt;Node17 -->
<g id="edge22" class="edge">
<title>Node18&#45;&gt;Node17</title>
<path fill="none" stroke="#191970" d="M2195.267,-198.8443C2126.0999,-186.9724 2022.7765,-169.2378 1950.5791,-156.8457"/>
<polygon fill="#191970" stroke="#191970" points="1951.0531,-153.3759 1940.6051,-155.1337 1949.8688,-160.275 1951.0531,-153.3759"/>
</g>
<!-- Node18&#45;&gt;Node19 -->
<g id="edge23" class="edge">
<title>Node18&#45;&gt;Node19</title>
<path fill="none" stroke="#191970" d="M2314.6909,-195.4966C2351.101,-182.7438 2401.1791,-165.2038 2433.5702,-153.8586"/>
<polygon fill="#191970" stroke="#191970" points="2435.1448,-157.0157 2443.4256,-150.4068 2432.8308,-150.4092 2435.1448,-157.0157"/>
</g>
<!-- Node20&#45;&gt;Node5 -->
<g id="edge27" class="edge">
<title>Node20&#45;&gt;Node5</title>
<path fill="none" stroke="#191970" d="M1389.3058,-201.256C1390.2484,-169.678 1393.122,-73.4116 1394.389,-30.9687"/>
<polygon fill="#191970" stroke="#191970" points="1397.8876,-31.0644 1394.6876,-20.9644 1390.8907,-30.8554 1397.8876,-31.0644"/>
</g>
<!-- Node20&#45;&gt;Node6 -->
<g id="edge31" class="edge">
<title>Node20&#45;&gt;Node6</title>
<path fill="none" stroke="#191970" d="M1408.7756,-201.4668C1431.74,-189.8157 1469.8225,-170.4944 1496.1024,-157.1613"/>
<polygon fill="#191970" stroke="#191970" points="1497.8663,-160.1911 1505.2006,-152.5453 1494.6991,-153.9486 1497.8663,-160.1911"/>
</g>
<!-- Node20&#45;&gt;Node19 -->
<g id="edge30" class="edge">
<title>Node20&#45;&gt;Node19</title>
<path fill="none" stroke="#191970" d="M1459.0952,-205.0457C1495.7019,-201.792 1541.2455,-197.9267 1582,-195 1856.8682,-175.2612 1925.9222,-175.5627 2201,-159 2284.5913,-153.9669 2382.9959,-147.7678 2433.0927,-144.5924"/>
<polygon fill="#191970" stroke="#191970" points="2433.5568,-148.07 2443.3151,-143.9438 2433.1136,-141.0841 2433.5568,-148.07"/>
</g>
<!-- Node20&#45;&gt;Node21 -->
<g id="edge26" class="edge">
<title>Node20&#45;&gt;Node21</title>
<path fill="none" stroke="#191970" d="M1357.8826,-201.4668C1320.0789,-189.2778 1256.2391,-168.6939 1214.8663,-155.3541"/>
<polygon fill="#191970" stroke="#191970" points="1215.7094,-151.9486 1205.1179,-152.2109 1213.5613,-158.6108 1215.7094,-151.9486"/>
</g>
<!-- Node20&#45;&gt;Node22 -->
<g id="edge28" class="edge">
<title>Node20&#45;&gt;Node22</title>
<path fill="none" stroke="#191970" d="M1459.0608,-204.5056C1495.6582,-201.1066 1541.2039,-197.2744 1582,-195 2194.1471,-160.8728 2348.1607,-176.7975 2961,-159 3139.4587,-153.8174 3352.6038,-146.7103 3438.4127,-143.8113"/>
<polygon fill="#191970" stroke="#191970" points="3438.5975,-147.3071 3448.4734,-143.471 3438.3608,-140.3111 3438.5975,-147.3071"/>
</g>
<!-- Node20&#45;&gt;Node23 -->
<g id="edge29" class="edge">
<title>Node20&#45;&gt;Node23</title>
<path fill="none" stroke="#191970" d="M1380.8846,-201.3188C1372.3544,-190.6174 1358.7614,-173.5643 1348.4029,-160.5691"/>
<polygon fill="#191970" stroke="#191970" points="1351.1188,-158.3611 1342.1487,-152.723 1345.645,-162.7243 1351.1188,-158.3611"/>
</g>
<!-- Node24&#45;&gt;Node9 -->
<g id="edge35" class="edge">
<title>Node24&#45;&gt;Node9</title>
<path fill="none" stroke="#191970" d="M2824.2354,-195.4966C2833.1182,-186.7406 2844.2905,-175.7279 2854.1462,-166.013"/>
<polygon fill="#191970" stroke="#191970" points="2856.7018,-168.4084 2861.3666,-158.8958 2851.7878,-163.4232 2856.7018,-168.4084"/>
</g>
<!-- Node24&#45;&gt;Node17 -->
<g id="edge36" class="edge">
<title>Node24&#45;&gt;Node17</title>
<path fill="none" stroke="#191970" d="M2734.3227,-196.1764C2731.5174,-195.7514 2728.7359,-195.3567 2726,-195 2464.6152,-160.9198 2397.1032,-175.1293 2134,-159 2072.7237,-155.2435 2003.5395,-150.9671 1950.9518,-147.7093"/>
<polygon fill="#191970" stroke="#191970" points="1950.8601,-144.1969 1940.6628,-147.0717 1950.4271,-151.1835 1950.8601,-144.1969"/>
</g>
<!-- Node24&#45;&gt;Node19 -->
<g id="edge37" class="edge">
<title>Node24&#45;&gt;Node19</title>
<path fill="none" stroke="#191970" d="M2734.2121,-196.613C2661.1277,-181.8679 2552.5675,-159.9654 2498.7279,-149.103"/>
<polygon fill="#191970" stroke="#191970" points="2499.2111,-145.63 2488.7164,-147.0831 2497.8266,-152.4918 2499.2111,-145.63"/>
</g>
<!-- Node25&#45;&gt;Node6 -->
<g id="edge43" class="edge">
<title>Node25&#45;&gt;Node6</title>
<path fill="none" stroke="#191970" d="M1971.4314,-264.9304C1926.1473,-255.044 1867.0109,-241.5891 1815,-228 1720.7724,-203.3809 1610.7962,-169.5355 1557.3971,-152.7701"/>
<polygon fill="#191970" stroke="#191970" points="1558.3864,-149.4122 1547.7969,-149.7484 1556.2847,-156.0893 1558.3864,-149.4122"/>
</g>
<!-- Node25&#45;&gt;Node9 -->
<g id="edge39" class="edge">
<title>Node25&#45;&gt;Node9</title>
<path fill="none" stroke="#191970" d="M2118.7862,-269.6105C2188.0965,-259.2779 2294.6707,-243.124 2387,-228 2530.2904,-204.5284 2696.7047,-175.0895 2794.3554,-157.5924"/>
<polygon fill="#191970" stroke="#191970" points="2795.2351,-160.9905 2804.4603,-155.7804 2793.9995,-154.1004 2795.2351,-160.9905"/>
</g>
<!-- Node25&#45;&gt;Node17 -->
<g id="edge40" class="edge">
<title>Node25&#45;&gt;Node17</title>
<path fill="none" stroke="#191970" d="M2017.3115,-264.2825C2001.0644,-254.3995 1980.3786,-241.1715 1963,-228 1937.3201,-208.5367 1910.0719,-183.8329 1891.192,-165.9898"/>
<polygon fill="#191970" stroke="#191970" points="1893.2968,-163.161 1883.6419,-158.7981 1888.4688,-168.2296 1893.2968,-163.161"/>
</g>
<!-- Node25&#45;&gt;Node18 -->
<g id="edge41" class="edge">
<title>Node25&#45;&gt;Node18</title>
<path fill="none" stroke="#191970" d="M2096.9531,-264.4966C2129.772,-254.3872 2172.3571,-241.2695 2206.9481,-230.6142"/>
<polygon fill="#191970" stroke="#191970" points="2208.4146,-233.8248 2216.9411,-227.536 2206.3539,-227.135 2208.4146,-233.8248"/>
</g>
<!-- Node25&#45;&gt;Node19 -->
<g id="edge42" class="edge">
<title>Node25&#45;&gt;Node19</title>
<path fill="none" stroke="#191970" d="M2118.9197,-266.5157C2123.6826,-265.6531 2128.4073,-264.8079 2133,-264 2230.1478,-246.9098 2261.4864,-267.2054 2352,-228 2374.1058,-218.425 2375.7586,-209.4954 2395,-195 2411.3253,-182.7014 2429.9043,-168.9729 2443.9612,-158.6399"/>
<polygon fill="#191970" stroke="#191970" points="2446.0788,-161.4272 2452.0687,-152.6881 2441.9364,-155.7845 2446.0788,-161.4272"/>
</g>
<!-- Node26&#45;&gt;Node9 -->
<g id="edge45" class="edge">
<title>Node26&#45;&gt;Node9</title>
<path fill="none" stroke="#191970" d="M2782.618,-268.4872C2827.0313,-259.5699 2877.5563,-245.8699 2891,-228 2903.8541,-210.9139 2898.3846,-186.3797 2890.9999,-167.9709"/>
<polygon fill="#191970" stroke="#191970" points="2894.1594,-166.4609 2886.9279,-158.7178 2887.7523,-169.2805 2894.1594,-166.4609"/>
</g>
<!-- Node26&#45;&gt;Node17 -->
<g id="edge46" class="edge">
<title>Node26&#45;&gt;Node17</title>
<path fill="none" stroke="#191970" d="M2651.9639,-264.4629C2581.8762,-245.3092 2459.0697,-213.5389 2352,-195 2212.1604,-170.7871 2047.5865,-155.778 1950.5749,-148.298"/>
<polygon fill="#191970" stroke="#191970" points="1950.7705,-144.8028 1940.5333,-147.5321 1950.2381,-151.7826 1950.7705,-144.8028"/>
</g>
<!-- Node26&#45;&gt;Node18 -->
<g id="edge47" class="edge">
<title>Node26&#45;&gt;Node18</title>
<path fill="none" stroke="#191970" d="M2635.3539,-268.951C2557.3464,-256.718 2434.4104,-237.4394 2352.7622,-224.6354"/>
<polygon fill="#191970" stroke="#191970" points="2352.9408,-221.1208 2342.5193,-223.0292 2351.8563,-228.0362 2352.9408,-221.1208"/>
</g>
<!-- Node26&#45;&gt;Node19 -->
<g id="edge48" class="edge">
<title>Node26&#45;&gt;Node19</title>
<path fill="none" stroke="#191970" d="M2692.4526,-264.3468C2669.8231,-242.5104 2630.0847,-205.1326 2613,-195 2576.3528,-173.2652 2529.2721,-158.4249 2498.3971,-150.2088"/>
<polygon fill="#191970" stroke="#191970" points="2499.1436,-146.7868 2488.5861,-147.676 2497.3938,-153.5646 2499.1436,-146.7868"/>
</g>
<!-- Node27&#45;&gt;Node22 -->
<g id="edge51" class="edge">
<title>Node27&#45;&gt;Node22</title>
<path fill="none" stroke="#191970" d="M3513.0991,-195.4966C3506.0655,-185.1706 3496.8939,-171.7059 3489.5556,-160.9327"/>
<polygon fill="#191970" stroke="#191970" points="3492.4321,-158.9385 3483.9098,-152.6441 3486.6468,-162.8793 3492.4321,-158.9385"/>
</g>
<!-- Node31&#45;&gt;Node3 -->
<g id="edge64" class="edge">
<title>Node31&#45;&gt;Node3</title>
<path fill="none" stroke="#191970" d="M514,-264.4966C514,-256.599 514,-246.8656 514,-237.9044"/>
<polygon fill="#191970" stroke="#191970" points="517.5001,-237.8957 514,-227.8958 510.5001,-237.8958 517.5001,-237.8957"/>
</g>
<!-- Node31&#45;&gt;Node4 -->
<g id="edge65" class="edge">
<title>Node31&#45;&gt;Node4</title>
<path fill="none" stroke="#191970" d="M487.1659,-264.3996C445.7283,-239.537 366.1231,-191.7738 319.8151,-163.9891"/>
<polygon fill="#191970" stroke="#191970" points="321.3944,-160.855 311.0187,-158.7112 317.7929,-166.8574 321.3944,-160.855"/>
</g>
<!-- Node31&#45;&gt;Node5 -->
<g id="edge66" class="edge">
<title>Node31&#45;&gt;Node5</title>
<path fill="none" stroke="#191970" d="M548.2603,-264.3778C563.4411,-255.6125 580.258,-243.3903 591,-228 635.8526,-163.739 573.6972,-107.048 634,-57 662.0063,-33.7563 1203.7513,-16.1251 1355.6864,-11.6227"/>
<polygon fill="#191970" stroke="#191970" points="1356.0468,-15.1137 1365.9396,-11.3213 1355.8411,-8.1167 1356.0468,-15.1137"/>
</g>
<!-- Node31&#45;&gt;Node6 -->
<g id="edge67" class="edge">
<title>Node31&#45;&gt;Node6</title>
<path fill="none" stroke="#191970" d="M547.9597,-264.4909C592.6831,-244.2561 674.299,-210.2308 748,-195 1021.7842,-138.4206 1097.4111,-182.3937 1376,-159 1416.1353,-155.6298 1462.1954,-150.3046 1492.3505,-146.6196"/>
<polygon fill="#191970" stroke="#191970" points="1492.8212,-150.0882 1502.3176,-145.3905 1491.9644,-143.1408 1492.8212,-150.0882"/>
</g>
<!-- Node31&#45;&gt;Node7 -->
<g id="edge68" class="edge">
<title>Node31&#45;&gt;Node7</title>
<path fill="none" stroke="#191970" d="M585.3483,-266.2176C589.9614,-265.428 594.5419,-264.6804 599,-264 1194.3603,-173.1299 1348.92,-196.6058 1950,-159 2014.3109,-154.9765 2089.2432,-148.9908 2132.1025,-145.4431"/>
<polygon fill="#191970" stroke="#191970" points="2132.6065,-148.9134 2142.2819,-144.5964 2132.0262,-141.9375 2132.6065,-148.9134"/>
</g>
<!-- Node32&#45;&gt;Node5 -->
<g id="edge80" class="edge">
<title>Node32&#45;&gt;Node5</title>
<path fill="none" stroke="#191970" d="M795.0991,-348.0104C690.2128,-344.5734 492.9475,-333.3379 434,-297 395.1229,-273.0344 377,-257.1703 377,-211.5 377,-211.5 377,-211.5 377,-142.5 377,-53.532 471.7627,-78.8732 558,-57 711.7965,-17.991 1210.8059,-11.6991 1355.399,-10.6909"/>
<polygon fill="#191970" stroke="#191970" points="1355.6005,-14.1898 1365.5775,-10.6247 1355.5549,-7.1899 1355.6005,-14.1898"/>
</g>
<!-- Node32&#45;&gt;Node6 -->
<g id="edge82" class="edge">
<title>Node32&#45;&gt;Node6</title>
<path fill="none" stroke="#191970" d="M797.786,-333.3756C779.5339,-325.505 761.7205,-313.9297 751,-297 743.1534,-284.6088 741.974,-275.5603 751,-264 837.6717,-152.9929 1235.9633,-173.976 1376,-159 1416.0482,-154.7171 1462.1265,-149.5827 1492.3096,-146.1914"/>
<polygon fill="#191970" stroke="#191970" points="1492.741,-149.665 1502.2869,-145.0688 1491.9582,-142.7089 1492.741,-149.665"/>
</g>
<!-- Node32&#45;&gt;Node11 -->
<g id="edge79" class="edge">
<title>Node32&#45;&gt;Node11</title>
<path fill="none" stroke="#191970" d="M795.4284,-336.2295C774.0685,-328.4834 752.6792,-316.2595 740,-297 711.7947,-254.1564 751.1876,-223.2527 794,-195 993.2133,-63.5354 1076.7174,-90.7551 1313,-57 1508.2116,-29.1123 2966.389,-13.3961 3219.5796,-10.8639"/>
<polygon fill="#191970" stroke="#191970" points="3219.772,-14.3622 3229.7367,-10.7629 3219.7023,-7.3626 3219.772,-14.3622"/>
</g>
<!-- Node32&#45;&gt;Node17 -->
<g id="edge77" class="edge">
<title>Node32&#45;&gt;Node17</title>
<path fill="none" stroke="#191970" d="M831.761,-333.3554C803.5585,-316.2292 768.6634,-288.339 789,-264 816.6553,-230.9018 1128.216,-200.4627 1171,-195 1287.2216,-180.1606 1625.0031,-157.7832 1783.3002,-147.7235"/>
<polygon fill="#191970" stroke="#191970" points="1783.7048,-151.2049 1793.4632,-147.0789 1783.2616,-144.219 1783.7048,-151.2049"/>
</g>
<!-- Node32&#45;&gt;Node19 -->
<g id="edge81" class="edge">
<title>Node32&#45;&gt;Node19</title>
<path fill="none" stroke="#191970" d="M851.7162,-333.3494C841.1719,-314.5261 828.4677,-283.5158 845,-264 876.454,-226.8698 1013.0502,-236.2953 1061,-228 1142.8665,-213.8371 1162.3975,-203.9183 1245,-195 1667.7333,-149.3589 1776.3395,-180.2131 2201,-159 2284.6384,-154.822 2383.0232,-148.2644 2433.1046,-144.8086"/>
<polygon fill="#191970" stroke="#191970" points="2433.5898,-148.2835 2443.3237,-144.1002 2433.1056,-141.3002 2433.5898,-148.2835"/>
</g>
<!-- Node32&#45;&gt;Node20 -->
<g id="edge78" class="edge">
<title>Node32&#45;&gt;Node20</title>
<path fill="none" stroke="#191970" d="M855.7199,-333.3537C849.462,-314.2413 843.0029,-282.6606 860,-264 888.9316,-232.2368 1202.2662,-232.4457 1245,-228 1265.6485,-225.8519 1287.9436,-223.3747 1308.6794,-221.0036"/>
<polygon fill="#191970" stroke="#191970" points="1309.1845,-224.4687 1318.7196,-219.85 1308.3854,-217.5144 1309.1845,-224.4687"/>
</g>
<!-- Node32&#45;&gt;Node25 -->
<g id="edge76" class="edge">
<title>Node32&#45;&gt;Node25</title>
<path fill="none" stroke="#191970" d="M928.5399,-342.223C959.8953,-339.0039 997.8362,-335.4099 1032,-333 1394.1196,-307.4564 1485.7197,-320.1541 1848,-297 1885.0971,-294.6291 1926.0665,-291.3109 1960.9913,-288.2713"/>
<polygon fill="#191970" stroke="#191970" points="1961.4917,-291.741 1971.1476,-287.3805 1960.88,-284.7677 1961.4917,-291.741"/>
</g>
<!-- Node33 -->
<g id="node33" class="node">
<title>Node33</title>
<g id="a_node33"><a xlink:href="../../de/df0/SimParticle_8hpp.html" target="_top" xlink:title="ActsExamples/EventData\l/SimParticle.hpp">
<polygon fill="none" stroke="#ff0000" points="869,-264.5 869,-296.5 1013,-296.5 1013,-264.5 869,-264.5"/>
<text text-anchor="start" x="877" y="-283.5" font-family="FreeSans" font-size="10.00" fill="#000000">ActsExamples/EventData</text>
<text text-anchor="middle" x="941" y="-271.5" font-family="FreeSans" font-size="10.00" fill="#000000">/SimParticle.hpp</text>
</a>
</g>
</g>
<!-- Node32&#45;&gt;Node33 -->
<g id="edge70" class="edge">
<title>Node32&#45;&gt;Node33</title>
<path fill="none" stroke="#191970" d="M880.3228,-333.4966C890.5193,-324.5907 903.389,-313.3501 914.6493,-303.5151"/>
<polygon fill="#191970" stroke="#191970" points="917.2737,-305.8701 922.503,-296.6557 912.6688,-300.5979 917.2737,-305.8701"/>
</g>
<!-- Node34 -->
<g id="node34" class="node">
<title>Node34</title>
<g id="a_node34"><a xlink:href="../../d3/d38/DataHandle_8hpp.html" target="_top" xlink:title="ActsExamples/Framework\l/DataHandle.hpp">
<polygon fill="none" stroke="#ff0000" points="1259.5,-264.5 1259.5,-296.5 1406.5,-296.5 1406.5,-264.5 1259.5,-264.5"/>
<text text-anchor="start" x="1267.5" y="-283.5" font-family="FreeSans" font-size="10.00" fill="#000000">ActsExamples/Framework</text>
<text text-anchor="middle" x="1333" y="-271.5" font-family="FreeSans" font-size="10.00" fill="#000000">/DataHandle.hpp</text>
</a>
</g>
</g>
<!-- Node32&#45;&gt;Node34 -->
<g id="edge71" class="edge">
<title>Node32&#45;&gt;Node34</title>
<path fill="none" stroke="#191970" d="M928.9826,-339.6873C1013.1929,-327.3507 1157.7725,-306.1703 1249.215,-292.7742"/>
<polygon fill="#191970" stroke="#191970" points="1249.8817,-296.214 1259.2688,-291.3014 1248.867,-289.2879 1249.8817,-296.214"/>
</g>
<!-- Node34&#45;&gt;Node18 -->
<g id="edge72" class="edge">
<title>Node34&#45;&gt;Node18</title>
<path fill="none" stroke="#191970" d="M1406.7194,-276.4041C1544.8176,-268.5346 1851.8614,-250.1077 2110,-228 2134.4367,-225.9072 2160.9502,-223.2929 2185.1943,-220.7667"/>
<polygon fill="#191970" stroke="#191970" points="2185.8534,-224.2168 2195.433,-219.6912 2185.1221,-217.2551 2185.8534,-224.2168"/>
</g>
<!-- Node34&#45;&gt;Node21 -->
<g id="edge73" class="edge">
<title>Node34&#45;&gt;Node21</title>
<path fill="none" stroke="#191970" d="M1314.5662,-264.3996C1284.5053,-238.1439 1225.2044,-186.3494 1194.4801,-159.5143"/>
<polygon fill="#191970" stroke="#191970" points="1196.4542,-156.5915 1186.6201,-152.6492 1191.8494,-161.8636 1196.4542,-156.5915"/>
</g>
<!-- Node34&#45;&gt;Node23 -->
<g id="edge74" class="edge">
<title>Node34&#45;&gt;Node23</title>
<path fill="none" stroke="#191970" d="M1323.6967,-264.0668C1318.5415,-254.002 1312.6518,-240.6614 1310,-228 1306.9935,-213.6448 1306.8797,-209.3309 1310,-195 1312.5319,-183.3715 1317.879,-171.2346 1322.8848,-161.5631"/>
<polygon fill="#191970" stroke="#191970" points="1326.1136,-162.9538 1327.8454,-152.5015 1319.9734,-159.5925 1326.1136,-162.9538"/>
</g>
<!-- Node34&#45;&gt;Node28 -->
<g id="edge75" class="edge">
<title>Node34&#45;&gt;Node28</title>
<path fill="none" stroke="#191970" d="M1399.5649,-264.4966C1455.756,-250.9872 1534.292,-232.1058 1580.8716,-220.9072"/>
<polygon fill="#191970" stroke="#191970" points="1581.9634,-224.2445 1590.8682,-218.5038 1580.3271,-217.4384 1581.9634,-224.2445"/>
</g>
<!-- Node35&#45;&gt;Node5 -->
<g id="edge93" class="edge">
<title>Node35&#45;&gt;Node5</title>
<path fill="none" stroke="#191970" d="M1830.6747,-334.7085C1827.7461,-334.1166 1824.8442,-333.5441 1822,-333 1722.5319,-313.9714 1683.6457,-349.4264 1597,-297 1488.8552,-231.5652 1423.2288,-83.7302 1402.3117,-30.2658"/>
<polygon fill="#191970" stroke="#191970" points="1405.4641,-28.7099 1398.6259,-20.6173 1398.925,-31.2079 1405.4641,-28.7099"/>
</g>
<!-- Node35&#45;&gt;Node6 -->
<g id="edge95" class="edge">
<title>Node35&#45;&gt;Node6</title>
<path fill="none" stroke="#191970" d="M1830.6462,-334.8501C1827.7253,-334.2199 1824.8328,-333.6006 1822,-333 1742.6161,-316.169 1713.3146,-337.5086 1643,-297 1587.6077,-265.0882 1549.5876,-195.8234 1533.5555,-161.9469"/>
<polygon fill="#191970" stroke="#191970" points="1536.6417,-160.2802 1529.291,-152.6501 1530.2791,-163.1988 1536.6417,-160.2802"/>
</g>
<!-- Node35&#45;&gt;Node11 -->
<g id="edge92" class="edge">
<title>Node35&#45;&gt;Node11</title>
<path fill="none" stroke="#191970" d="M1961.0635,-348.5002C2139.495,-345.3115 2633.7765,-333.3593 2792,-297 2909.0019,-270.1133 3224.3292,-189.8366 3291,-90 3304.1106,-70.3675 3288.2818,-44.8539 3274.1219,-28.094"/>
<polygon fill="#191970" stroke="#191970" points="3276.7183,-25.7468 3267.4389,-20.6338 3271.5044,-30.4175 3276.7183,-25.7468"/>
</g>
<!-- Node35&#45;&gt;Node17 -->
<g id="edge91" class="edge">
<title>Node35&#45;&gt;Node17</title>
<path fill="none" stroke="#191970" d="M1893.7244,-333.2571C1888.7268,-297.5846 1876.7547,-212.1284 1870.6757,-168.737"/>
<polygon fill="#191970" stroke="#191970" points="1874.1187,-168.0852 1869.265,-158.6675 1867.1864,-169.0564 1874.1187,-168.0852"/>
</g>
<!-- Node35&#45;&gt;Node19 -->
<g id="edge94" class="edge">
<title>Node35&#45;&gt;Node19</title>
<path fill="none" stroke="#191970" d="M1961.062,-346.3182C2088.8816,-339.5469 2363.3985,-322.2387 2398,-297 2442.4586,-264.5715 2458.2818,-196.5928 2463.5582,-162.6621"/>
<polygon fill="#191970" stroke="#191970" points="2467.052,-162.9491 2464.9693,-152.561 2460.1193,-161.9805 2467.052,-162.9491"/>
</g>
<!-- Node35&#45;&gt;Node20 -->
<g id="edge87" class="edge">
<title>Node35&#45;&gt;Node20</title>
<path fill="none" stroke="#191970" d="M1830.7056,-334.5358C1827.7686,-333.9906 1824.8565,-333.4752 1822,-333 1678.6424,-309.1508 1631.4162,-352.2492 1497,-297 1496.365,-296.739 1441.0142,-252.8144 1409.8117,-228.0337"/>
<polygon fill="#191970" stroke="#191970" points="1411.7243,-225.0832 1401.7169,-221.6042 1407.3706,-230.5645 1411.7243,-225.0832"/>
</g>
<!-- Node35&#45;&gt;Node25 -->
<g id="edge90" class="edge">
<title>Node35&#45;&gt;Node25</title>
<path fill="none" stroke="#191970" d="M1930.5581,-333.4966C1951.5453,-323.7777 1978.5366,-311.2784 2001.035,-300.8596"/>
<polygon fill="#191970" stroke="#191970" points="2002.7681,-303.9142 2010.3715,-296.536 1999.8265,-297.5622 2002.7681,-303.9142"/>
</g>
<!-- Node35&#45;&gt;Node34 -->
<g id="edge89" class="edge">
<title>Node35&#45;&gt;Node34</title>
<path fill="none" stroke="#191970" d="M1830.7123,-334.4947C1827.7735,-333.9607 1824.8592,-333.4588 1822,-333 1661.9233,-307.3119 1620.0626,-315.5277 1459,-297 1445.3317,-295.4277 1430.8454,-293.6422 1416.7508,-291.8408"/>
<polygon fill="#191970" stroke="#191970" points="1416.9397,-288.3363 1406.5743,-290.5291 1416.0447,-295.2788 1416.9397,-288.3363"/>
</g>
<!-- Node36 -->
<g id="node36" class="node">
<title>Node36</title>
<g id="a_node36"><a xlink:href="../../d5/d67/GeometryIdentifier_8hpp.html" target="_top" xlink:title="Acts/Geometry/GeometryIdentifier.hpp">
<polygon fill="none" stroke="#ff0000" points="2175.5,-270.5 2175.5,-290.5 2388.5,-290.5 2388.5,-270.5 2175.5,-270.5"/>
<text text-anchor="middle" x="2282" y="-277.5" font-family="FreeSans" font-size="10.00" fill="#000000">Acts/Geometry/GeometryIdentifier.hpp</text>
</a>
</g>
</g>
<!-- Node35&#45;&gt;Node36 -->
<g id="edge84" class="edge">
<title>Node35&#45;&gt;Node36</title>
<path fill="none" stroke="#191970" d="M1961.0432,-337.8731C2031.7967,-325.2255 2144.3075,-305.1134 2215.5925,-292.3708"/>
<polygon fill="#191970" stroke="#191970" points="2216.5729,-295.7511 2225.8009,-290.546 2215.341,-288.8603 2216.5729,-295.7511"/>
</g>
<!-- Node37 -->
<g id="node37" class="node">
<title>Node37</title>
<g id="a_node37"><a xlink:href="../../dc/d24/SimHit_8hpp.html" target="_top" xlink:title="ActsExamples/EventData\l/SimHit.hpp">
<polygon fill="none" stroke="#ff0000" points="3067,-264.5 3067,-296.5 3211,-296.5 3211,-264.5 3067,-264.5"/>
<text text-anchor="start" x="3075" y="-283.5" font-family="FreeSans" font-size="10.00" fill="#000000">ActsExamples/EventData</text>
<text text-anchor="middle" x="3139" y="-271.5" font-family="FreeSans" font-size="10.00" fill="#000000">/SimHit.hpp</text>
</a>
</g>
</g>
<!-- Node35&#45;&gt;Node37 -->
<g id="edge88" class="edge">
<title>Node35&#45;&gt;Node37</title>
<path fill="none" stroke="#191970" d="M1961.1343,-347.8946C2170.1898,-342.5348 2823.653,-324.1187 3056.5627,-297.0293"/>
<polygon fill="#191970" stroke="#191970" points="3057.1573,-300.4831 3066.6685,-295.8154 3056.3224,-293.5331 3057.1573,-300.4831"/>
</g>
<!-- Node36&#45;&gt;Node6 -->
<g id="edge86" class="edge">
<title>Node36&#45;&gt;Node6</title>
<path fill="none" stroke="#191970" d="M2196.8641,-270.454C2099.9374,-258.7717 1947.6983,-239.611 1891,-228 1837.231,-216.9889 1825.3121,-208.0449 1772,-195 1695.5923,-176.3039 1604.952,-158.0249 1557.5661,-148.7629"/>
<polygon fill="#191970" stroke="#191970" points="1558.0663,-145.2946 1547.5818,-146.8199 1556.7291,-152.1657 1558.0663,-145.2946"/>
</g>
<!-- Node36&#45;&gt;Node13 -->
<g id="edge85" class="edge">
<title>Node36&#45;&gt;Node13</title>
<path fill="none" stroke="#191970" d="M2341.4721,-270.4668C2427.6627,-255.9261 2584.6674,-229.4388 2655.1133,-217.5542"/>
<polygon fill="#191970" stroke="#191970" points="2655.9782,-220.9579 2665.2566,-215.843 2654.8137,-214.0554 2655.9782,-220.9579"/>
</g>
<!-- Node38&#45;&gt;Node12 -->
<g id="edge101" class="edge">
<title>Node38&#45;&gt;Node12</title>
<path fill="none" stroke="#191970" d="M3905.079,-333.3856C3892.7852,-302.1215 3861.5281,-232.9773 3813,-195 3746.3091,-142.8087 3653.5617,-105.4827 3600.8758,-86.8932"/>
<polygon fill="#191970" stroke="#191970" points="3601.8008,-83.5094 3591.206,-83.5334 3599.5034,-90.1216 3601.8008,-83.5094"/>
</g>
<!-- Node38&#45;&gt;Node19 -->
<g id="edge104" class="edge">
<title>Node38&#45;&gt;Node19</title>
<path fill="none" stroke="#191970" d="M3898.494,-333.4523C3868.2217,-294.7057 3792.9026,-198.9303 3785,-195 3686.5429,-146.0331 2905.8592,-163.7457 2796,-159 2687.2871,-154.3038 2558.4928,-147.5077 2499.0678,-144.3022"/>
<polygon fill="#191970" stroke="#191970" points="2498.9741,-140.7921 2488.7996,-143.7468 2498.596,-147.7819 2498.9741,-140.7921"/>
</g>
<!-- Node38&#45;&gt;Node36 -->
<g id="edge102" class="edge">
<title>Node38&#45;&gt;Node36</title>
<path fill="none" stroke="#191970" d="M3836.6759,-340.6775C3810.0072,-337.8057 3779.6888,-334.8773 3752,-333 3252.8899,-299.1604 3126.858,-316.9496 2627,-297 2551.0595,-293.9692 2465.749,-289.895 2398.9607,-286.5535"/>
<polygon fill="#191970" stroke="#191970" points="2398.9881,-283.0506 2388.8252,-286.0449 2398.6372,-290.0418 2398.9881,-283.0506"/>
</g>
<!-- Node38&#45;&gt;Node37 -->
<g id="edge103" class="edge">
<title>Node38&#45;&gt;Node37</title>
<path fill="none" stroke="#191970" d="M3836.6336,-341.2278C3809.961,-338.4077 3779.6509,-335.3713 3752,-333 3519.6605,-313.0751 3457.2077,-327.9631 3221.6107,-296.9572"/>
<polygon fill="#191970" stroke="#191970" points="3221.7247,-293.4416 3211.3505,-295.5925 3220.8017,-300.3805 3221.7247,-293.4416"/>
</g>
<!-- Node39 -->
<g id="node39" class="node">
<title>Node39</title>
<g id="a_node39"><a xlink:href="../../d7/d3a/TrackParametrization_8hpp.html" target="_top" xlink:title="Acts/Definitions/TrackParametrization.hpp">
<polygon fill="none" stroke="#ff0000" points="3999.5,-201.5 3999.5,-221.5 4228.5,-221.5 4228.5,-201.5 3999.5,-201.5"/>
<text text-anchor="middle" x="4114" y="-208.5" font-family="FreeSans" font-size="10.00" fill="#000000">Acts/Definitions/TrackParametrization.hpp</text>
</a>
</g>
</g>
<!-- Node38&#45;&gt;Node39 -->
<g id="edge97" class="edge">
<title>Node38&#45;&gt;Node39</title>
<path fill="none" stroke="#191970" d="M3985.0933,-339.5754C4035.582,-331.1367 4096.0554,-317.1526 4112,-297 4126.4783,-278.7007 4123.9341,-250.6472 4119.811,-231.7118"/>
<polygon fill="#191970" stroke="#191970" points="4123.143,-230.609 4117.3177,-221.7593 4116.3528,-232.3101 4123.143,-230.609"/>
</g>
<!-- Node40 -->
<g id="node40" class="node">
<title>Node40</title>
<g id="a_node40"><a xlink:href="../../d2/d16/Core_2include_2Acts_2EventData_2Measurement_8hpp.html" target="_top" xlink:title="Acts/EventData/Measurement.hpp">
<polygon fill="none" stroke="#ff0000" points="3913,-270.5 3913,-290.5 4103,-290.5 4103,-270.5 3913,-270.5"/>
<text text-anchor="middle" x="4008" y="-277.5" font-family="FreeSans" font-size="10.00" fill="#000000">Acts/EventData/Measurement.hpp</text>
</a>
</g>
</g>
<!-- Node38&#45;&gt;Node40 -->
<g id="edge98" class="edge">
<title>Node38&#45;&gt;Node40</title>
<path fill="none" stroke="#191970" d="M3933.4976,-333.4966C3949.03,-322.4477 3969.614,-307.8055 3985.2095,-296.7118"/>
<polygon fill="#191970" stroke="#191970" points="3987.6195,-299.2927 3993.7394,-290.6441 3983.562,-293.5886 3987.6195,-299.2927"/>
</g>
<!-- Node40&#45;&gt;Node11 -->
<g id="edge100" class="edge">
<title>Node40&#45;&gt;Node11</title>
<path fill="none" stroke="#191970" d="M4004.9292,-270.3377C3993.2793,-233.7664 3948.0047,-108.32 3861,-57 3812.2582,-28.2495 3418.5497,-14.9744 3294.3747,-11.475"/>
<polygon fill="#191970" stroke="#191970" points="3294.3124,-7.972 3284.2193,-11.1938 3294.1186,-14.9694 3294.3124,-7.972"/>
</g>
<!-- Node40&#45;&gt;Node39 -->
<g id="edge99" class="edge">
<title>Node40&#45;&gt;Node39</title>
<path fill="none" stroke="#191970" d="M4023.6407,-270.3188C4041.0983,-258.9549 4069.5589,-240.4286 4089.8737,-227.2049"/>
<polygon fill="#191970" stroke="#191970" points="4091.8237,-230.1117 4098.2952,-221.723 4088.0049,-224.2452 4091.8237,-230.1117"/>
</g>
<!-- Node41&#45;&gt;Node19 -->
<g id="edge106" class="edge">
<title>Node41&#45;&gt;Node19</title>
<path fill="none" stroke="#191970" d="M3811.1158,-402.3856C3815.7632,-359.121 3821.4498,-240.6171 3752,-195 3707.577,-165.8214 2849.0978,-161.3271 2796,-159 2687.2901,-154.2356 2558.4943,-147.4724 2499.0684,-144.2885"/>
<polygon fill="#191970" stroke="#191970" points="2498.9734,-140.7784 2488.8001,-143.7369 2498.5979,-147.7684 2498.9734,-140.7784"/>
</g>
<!-- Node42&#45;&gt;Node8 -->
<g id="edge109" class="edge">
<title>Node42&#45;&gt;Node8</title>
<path fill="none" stroke="#191970" d="M2751.2234,-415.8481C2873.0332,-410.3721 3143.2087,-395.7564 3369,-366 3370.3003,-365.8286 3371.6104,-365.6507 3372.9284,-365.4667"/>
<polygon fill="#191970" stroke="#191970" points="3373.7742,-368.8795 3383.1517,-363.9488 3372.7461,-361.9554 3373.7742,-368.8795"/>
</g>
<!-- Node42&#45;&gt;Node15 -->
<g id="edge110" class="edge">
<title>Node42&#45;&gt;Node15</title>
<path fill="none" stroke="#191970" d="M2686,-402.4966C2686,-394.599 2686,-384.8656 2686,-375.9044"/>
<polygon fill="#191970" stroke="#191970" points="2689.5001,-375.8957 2686,-365.8958 2682.5001,-375.8958 2689.5001,-375.8957"/>
</g>
<!-- Node42&#45;&gt;Node19 -->
<g id="edge111" class="edge">
<title>Node42&#45;&gt;Node19</title>
<path fill="none" stroke="#191970" d="M2751.1143,-414.8626C2938.1159,-403.2009 3458.1757,-361.6499 3374,-264 3357.0201,-244.3021 2936.7777,-198.4406 2911,-195 2757.0291,-174.4493 2572.5153,-154.0168 2498.781,-146.021"/>
<polygon fill="#191970" stroke="#191970" points="2499.0413,-142.5289 2488.7228,-144.933 2498.2884,-149.4883 2499.0413,-142.5289"/>
</g>
<!-- Node42&#45;&gt;Node20 -->
<g id="edge108" class="edge">
<title>Node42&#45;&gt;Node20</title>
<path fill="none" stroke="#191970" d="M2620.9274,-417.9236C2457.285,-415.8838 2015.5766,-406.7226 1650,-366 1471.1408,-346.0764 1366.9065,-434.6708 1251,-297 1222.0705,-262.6382 1282.6475,-237.9229 1332.4975,-224.1609"/>
<polygon fill="#191970" stroke="#191970" points="1333.5304,-227.5079 1342.2947,-221.5549 1331.731,-220.7431 1333.5304,-227.5079"/>
</g>
<!-- Node42&#45;&gt;Node43 -->
<g id="edge112" class="edge">
<title>Node42&#45;&gt;Node43</title>
<path fill="none" stroke="#191970" d="M2751.2074,-416.0466C2894.2635,-410.3231 3246.3225,-394.3747 3540,-366 3554.6934,-364.5803 3570.3198,-362.7636 3585.3679,-360.8576"/>
<polygon fill="#191970" stroke="#191970" points="3586.2052,-364.2787 3595.675,-359.5275 3585.3092,-357.3362 3586.2052,-364.2787"/>
</g>
<!-- Node44&#45;&gt;Node4 -->
<g id="edge116" class="edge">
<title>Node44&#45;&gt;Node4</title>
<path fill="none" stroke="#191970" d="M914.3179,-412.7855C772.2523,-399.6061 448.9875,-363.0395 363,-297 320.7772,-264.5723 299.2024,-203.2917 289.8888,-168.4456"/>
<polygon fill="#191970" stroke="#191970" points="293.2289,-167.3771 287.3828,-158.5412 286.4427,-169.0942 293.2289,-167.3771"/>
</g>
<!-- Node44&#45;&gt;Node32 -->
<g id="edge114" class="edge">
<title>Node44&#45;&gt;Node32</title>
<path fill="none" stroke="#191970" d="M954.168,-402.4966C937.7772,-393.0719 916.8394,-381.0326 899.0634,-370.8115"/>
<polygon fill="#191970" stroke="#191970" points="900.5105,-367.6062 890.0968,-365.6557 897.0212,-373.6746 900.5105,-367.6062"/>
</g>
<!-- Node44&#45;&gt;Node35 -->
<g id="edge115" class="edge">
<title>Node44&#45;&gt;Node35</title>
<path fill="none" stroke="#191970" d="M1049.813,-415.6385C1218.5397,-408.3022 1654.9596,-387.9427 1820.6836,-366.0153"/>
<polygon fill="#191970" stroke="#191970" points="1821.3009,-369.4635 1830.7321,-364.636 1820.349,-362.5285 1821.3009,-369.4635"/>
</g>
<!-- Node45&#45;&gt;Node4 -->
<g id="edge118" class="edge">
<title>Node45&#45;&gt;Node4</title>
<path fill="none" stroke="#191970" d="M244.6993,-471.4071C248.7676,-445.7152 256,-393.8096 256,-349.5 256,-349.5 256,-349.5 256,-280.5 256,-240.8308 267.25,-196.0051 275.488,-168.4984"/>
<polygon fill="#191970" stroke="#191970" points="278.8607,-169.4386 278.4681,-158.8511 272.1725,-167.3726 278.8607,-169.4386"/>
</g>
<!-- Node46&#45;&gt;Node5 -->
<g id="edge130" class="edge">
<title>Node46&#45;&gt;Node5</title>
<path fill="none" stroke="#191970" d="M1776.9665,-483.0888C1657.4404,-476.1503 1430.1284,-460.7553 1238,-435 1157.821,-424.2518 1138.9019,-414.6445 1059,-402 938.5557,-382.9396 894.6389,-423.306 787,-366 750.8691,-346.7642 740.4948,-335.28 726,-297 692.6634,-208.9597 767.1646,-168.8258 851,-126 928.7782,-86.2684 950.2402,-78.067 1035,-57 1149.3639,-28.5749 1288.7352,-16.8656 1355.5602,-12.6184"/>
<polygon fill="#191970" stroke="#191970" points="1355.8805,-16.1054 1365.6473,-11.9994 1355.4517,-9.1186 1355.8805,-16.1054"/>
</g>
<!-- Node46&#45;&gt;Node15 -->
<g id="edge120" class="edge">
<title>Node46&#45;&gt;Node15</title>
<path fill="none" stroke="#191970" d="M1943.0468,-482.2413C2078.2779,-473.2781 2340.1019,-454.1463 2431,-435 2505.044,-419.4037 2587.5293,-389.2911 2638.0972,-369.2906"/>
<polygon fill="#191970" stroke="#191970" points="2639.4726,-372.5102 2647.4658,-365.5561 2636.8806,-366.0078 2639.4726,-372.5102"/>
</g>
<!-- Node46&#45;&gt;Node19 -->
<g id="edge131" class="edge">
<title>Node46&#45;&gt;Node19</title>
<path fill="none" stroke="#191970" d="M1943.4831,-478.3174C2062.5967,-461.3733 2282.7259,-415.3707 2426,-297 2453.1568,-274.5635 2455.8394,-262.0143 2465,-228 2470.8267,-206.3646 2470.1302,-180.5194 2468.5771,-162.9498"/>
<polygon fill="#191970" stroke="#191970" points="2472.0281,-162.3015 2467.4928,-152.7264 2465.0671,-163.0398 2472.0281,-162.3015"/>
</g>
<!-- Node46&#45;&gt;Node31 -->
<g id="edge121" class="edge">
<title>Node46&#45;&gt;Node31</title>
<path fill="none" stroke="#191970" d="M1776.6781,-485.5461C1576.343,-480.4238 1072.0049,-464.8925 906,-435 804.3129,-416.6892 779.8107,-404.6765 684,-366 637.0968,-347.0663 585.4897,-320.1978 551.5818,-301.6579"/>
<polygon fill="#191970" stroke="#191970" points="552.9544,-298.4183 542.5059,-296.663 549.5793,-304.5509 552.9544,-298.4183"/>
</g>
<!-- Node46&#45;&gt;Node32 -->
<g id="edge122" class="edge">
<title>Node46&#45;&gt;Node32</title>
<path fill="none" stroke="#191970" d="M1776.6276,-475.9716C1586.3927,-449.6665 1122.5885,-385.5333 938.8195,-360.1223"/>
<polygon fill="#191970" stroke="#191970" points="939.086,-356.626 928.7008,-358.7232 938.1271,-363.56 939.086,-356.626"/>
</g>
<!-- Node46&#45;&gt;Node35 -->
<g id="edge123" class="edge">
<title>Node46&#45;&gt;Node35</title>
<path fill="none" stroke="#191970" d="M1864.2001,-471.3996C1870.3182,-447.9468 1881.7521,-404.1168 1889.113,-375.9003"/>
<polygon fill="#191970" stroke="#191970" points="1892.5774,-376.4853 1891.715,-365.9256 1885.8041,-374.7183 1892.5774,-376.4853"/>
</g>
<!-- Node46&#45;&gt;Node42 -->
<g id="edge124" class="edge">
<title>Node46&#45;&gt;Node42</title>
<path fill="none" stroke="#191970" d="M1943.0079,-481.0568C2066.1485,-471.4322 2304.4843,-452.5497 2507,-435 2541.0872,-432.046 2578.8079,-428.596 2610.7981,-425.6165"/>
<polygon fill="#191970" stroke="#191970" points="2611.3399,-429.0813 2620.9713,-424.667 2610.6892,-422.1116 2611.3399,-429.0813"/>
</g>
<!-- Node46&#45;&gt;Node44 -->
<g id="edge125" class="edge">
<title>Node46&#45;&gt;Node44</title>
<path fill="none" stroke="#191970" d="M1776.8413,-483.5801C1637.17,-476.5843 1346.7156,-460.2697 1102,-435 1088.3656,-433.5921 1073.8951,-431.8315 1059.898,-429.9891"/>
<polygon fill="#191970" stroke="#191970" points="1060.1846,-426.4963 1049.8083,-428.6369 1059.2548,-433.4343 1060.1846,-426.4963"/>
</g>
<!-- Node46&#45;&gt;Node47 -->
<g id="edge126" class="edge">
<title>Node46&#45;&gt;Node47</title>
<path fill="none" stroke="#191970" d="M1943.1653,-484.64C2261.5066,-473.2635 3392.2172,-428.7713 3540,-366 3560.5882,-357.2551 3558.2314,-343.4665 3578,-333 3633.259,-303.743 3675.8614,-346.5477 3714,-297 3728.2271,-278.5169 3714.8368,-253.5839 3700.5226,-235.4135"/>
<polygon fill="#191970" stroke="#191970" points="3703.0776,-233.0128 3693.9767,-227.5882 3697.7084,-237.5042 3703.0776,-233.0128"/>
</g>
<!-- Node47&#45;&gt;Node7 -->
<g id="edge129" class="edge">
<title>Node47&#45;&gt;Node7</title>
<path fill="none" stroke="#191970" d="M3613.0982,-197.1382C3608.0063,-196.3102 3602.9294,-195.5802 3598,-195 3084.4094,-134.545 2951.5843,-182.892 2435,-159 2351.3129,-155.1295 2253.0471,-148.5616 2201.9152,-144.9911"/>
<polygon fill="#191970" stroke="#191970" points="2201.9624,-141.4859 2191.7418,-144.2767 2201.4721,-148.4687 2201.9624,-141.4859"/>
</g>
<!-- Node47&#45;&gt;Node11 -->
<g id="edge127" class="edge">
<title>Node47&#45;&gt;Node11</title>
<path fill="none" stroke="#191970" d="M3683.4795,-195.4317C3692.9857,-164.2483 3708.3327,-95.2391 3673,-57 3647.5086,-29.4118 3391.8588,-16.0556 3294.4361,-11.9377"/>
<polygon fill="#191970" stroke="#191970" points="3294.3033,-8.4293 3284.1673,-11.5132 3294.0142,-15.4233 3294.3033,-8.4293"/>
</g>
<!-- Node47&#45;&gt;Node22 -->
<g id="edge128" class="edge">
<title>Node47&#45;&gt;Node22</title>
<path fill="none" stroke="#191970" d="M3631.3813,-195.4966C3596.1731,-183.4102 3548.4387,-167.0237 3515.4122,-155.6863"/>
<polygon fill="#191970" stroke="#191970" points="3516.2596,-152.2767 3505.6649,-152.3402 3513.9867,-158.8975 3516.2596,-152.2767"/>
</g>
<!-- Node48&#45;&gt;Node5 -->
<g id="edge138" class="edge">
<title>Node48&#45;&gt;Node5</title>
<path fill="none" stroke="#191970" d="M1658.8027,-344.4685C1541.8444,-336.2833 1325.4792,-318.7861 1251,-297 1169.065,-273.033 1079,-296.8683 1079,-211.5 1079,-211.5 1079,-211.5 1079,-142.5 1079,-83.1424 1271.2388,-36.0766 1355.836,-18.2384"/>
<polygon fill="#191970" stroke="#191970" points="1356.7591,-21.6215 1365.8379,-16.1602 1355.3349,-14.7679 1356.7591,-21.6215"/>
</g>
<!-- Node48&#45;&gt;Node7 -->
<g id="edge140" class="edge">
<title>Node48&#45;&gt;Node7</title>
<path fill="none" stroke="#191970" d="M1774.4704,-333.3889C1819.2307,-315.0247 1895.6161,-284.8586 1963,-264 2027.2559,-244.1096 2054.9244,-266.615 2110,-228 2133.6342,-211.4294 2150.1624,-181.6519 2159.1262,-161.9806"/>
<polygon fill="#191970" stroke="#191970" points="2162.3661,-163.3063 2163.1218,-152.7384 2155.9409,-160.5285 2162.3661,-163.3063"/>
</g>
<!-- Node48&#45;&gt;Node16 -->
<g id="edge136" class="edge">
<title>Node48&#45;&gt;Node16</title>
<path fill="none" stroke="#191970" d="M1742.7261,-333.4966C1746.1175,-325.4274 1750.3144,-315.4415 1754.1477,-306.3211"/>
<polygon fill="#191970" stroke="#191970" points="1757.461,-307.4708 1758.109,-296.8958 1751.0078,-304.7585 1757.461,-307.4708"/>
</g>
<!-- Node48&#45;&gt;Node17 -->
<g id="edge137" class="edge">
<title>Node48&#45;&gt;Node17</title>
<path fill="none" stroke="#191970" d="M1697.644,-333.3048C1638.6463,-306.1641 1536.9271,-249.1341 1582,-195 1607.2119,-164.7196 1708.2638,-151.8394 1782.9125,-146.4026"/>
<polygon fill="#191970" stroke="#191970" points="1783.5265,-149.8685 1793.2599,-145.6838 1783.0414,-142.8853 1783.5265,-149.8685"/>
</g>
<!-- Node48&#45;&gt;Node19 -->
<g id="edge139" class="edge">
<title>Node48&#45;&gt;Node19</title>
<path fill="none" stroke="#191970" d="M1813.3092,-334.3935C1816.2407,-333.9078 1819.1453,-333.4412 1822,-333 1957.3313,-312.0851 2002.3941,-351.5449 2128,-297 2148.8269,-287.9558 2146.3823,-273.5114 2167,-264 2256.9665,-222.4966 2299.7459,-274.9384 2387,-228 2416.3468,-212.2129 2440.6629,-181.2927 2454.2542,-161.2828"/>
<polygon fill="#191970" stroke="#191970" points="2457.3253,-162.9819 2459.882,-152.7002 2451.4716,-159.1435 2457.3253,-162.9819"/>
</g>
<!-- Node48&#45;&gt;Node20 -->
<g id="edge134" class="edge">
<title>Node48&#45;&gt;Node20</title>
<path fill="none" stroke="#191970" d="M1658.9173,-340.8649C1589.0413,-331.9723 1492.0865,-316.6548 1459,-297 1431.9277,-280.9179 1410.7942,-250.3092 1399.1135,-230.4135"/>
<polygon fill="#191970" stroke="#191970" points="1402.1143,-228.6094 1394.154,-221.6177 1396.0168,-232.0475 1402.1143,-228.6094"/>
</g>
<!-- Node48&#45;&gt;Node34 -->
<g id="edge135" class="edge">
<title>Node48&#45;&gt;Node34</title>
<path fill="none" stroke="#191970" d="M1658.8997,-337.0959C1595.0808,-326.7214 1502.0701,-311.3547 1421,-297 1419.7086,-296.7713 1418.4067,-296.5398 1417.0964,-296.3059"/>
<polygon fill="#191970" stroke="#191970" points="1417.3841,-292.8014 1406.9218,-294.4724 1416.1426,-299.6905 1417.3841,-292.8014"/>
</g>
<!-- Node48&#45;&gt;Node36 -->
<g id="edge133" class="edge">
<title>Node48&#45;&gt;Node36</title>
<path fill="none" stroke="#191970" d="M1813.3029,-334.352C1816.2362,-333.8778 1819.1429,-333.425 1822,-333 1971.8647,-310.706 2010.5878,-315.2378 2161,-297 2173.9144,-295.4341 2187.5894,-293.6709 2200.9184,-291.895"/>
<polygon fill="#191970" stroke="#191970" points="2201.5803,-295.3376 2211.0254,-290.5376 2200.6484,-288.3999 2201.5803,-295.3376"/>
</g>
<!-- Node49&#45;&gt;Node11 -->
<g id="edge147" class="edge">
<title>Node49&#45;&gt;Node11</title>
<path fill="none" stroke="#191970" d="M1114.8924,-333.3055C1102.9463,-291.8709 1078.3528,-181.3857 1136,-126 1214.2343,-50.8348 2941.3287,-16.2542 3219.3717,-11.1658"/>
<polygon fill="#191970" stroke="#191970" points="3219.7974,-14.6587 3229.7322,-10.9776 3219.6702,-7.6599 3219.7974,-14.6587"/>
</g>
<!-- Node49&#45;&gt;Node16 -->
<g id="edge145" class="edge">
<title>Node49&#45;&gt;Node16</title>
<path fill="none" stroke="#191970" d="M1199.7366,-340.97C1322.3469,-327.8536 1556.0759,-302.85 1681.131,-289.472"/>
<polygon fill="#191970" stroke="#191970" points="1681.8443,-292.9158 1691.4153,-288.3719 1681.0997,-285.9555 1681.8443,-292.9158"/>
</g>
<!-- Node49&#45;&gt;Node17 -->
<g id="edge146" class="edge">
<title>Node49&#45;&gt;Node17</title>
<path fill="none" stroke="#191970" d="M1120.3484,-333.4723C1121.5028,-315.0484 1125.7953,-284.6932 1141,-264 1176.0678,-216.2736 1198.6881,-213.3447 1255,-195 1303.9574,-179.0512 1627.3751,-157.2857 1783.2651,-147.5576"/>
<polygon fill="#191970" stroke="#191970" points="1783.5228,-151.0484 1793.2863,-146.9344 1783.0883,-144.0619 1783.5228,-151.0484"/>
</g>
<!-- Node49&#45;&gt;Node19 -->
<g id="edge148" class="edge">
<title>Node49&#45;&gt;Node19</title>
<path fill="none" stroke="#191970" d="M1125.7764,-333.3897C1133.2178,-314.605 1147.7731,-283.632 1169,-264 1196.4393,-238.6224 1211.4447,-244.4614 1245,-228 1274.0872,-213.7306 1278.6496,-203.175 1310,-195 1501.7495,-144.9989 2003.099,-169.1579 2201,-159 2284.6325,-154.7073 2383.0199,-148.1978 2433.1032,-144.7796"/>
<polygon fill="#191970" stroke="#191970" points="2433.5854,-148.2549 2443.3227,-144.0792 2433.1067,-141.2712 2433.5854,-148.2549"/>
</g>
<!-- Node49&#45;&gt;Node20 -->
<g id="edge142" class="edge">
<title>Node49&#45;&gt;Node20</title>
<path fill="none" stroke="#191970" d="M1134.2054,-333.3361C1151.8396,-314.2064 1183.6821,-282.6086 1217,-264 1250.8642,-245.0863 1292.3684,-232.1656 1326.1217,-223.8757"/>
<polygon fill="#191970" stroke="#191970" points="1326.9577,-227.2745 1335.8759,-221.5548 1325.3373,-220.4647 1326.9577,-227.2745"/>
</g>
<!-- Node49&#45;&gt;Node33 -->
<g id="edge143" class="edge">
<title>Node49&#45;&gt;Node33</title>
<path fill="none" stroke="#191970" d="M1078.4839,-333.4966C1052.7083,-323.5607 1019.3942,-310.719 992.0153,-300.1651"/>
<polygon fill="#191970" stroke="#191970" points="993.1903,-296.8671 982.6006,-296.536 990.6725,-303.3986 993.1903,-296.8671"/>
</g>
<!-- Node49&#45;&gt;Node34 -->
<g id="edge144" class="edge">
<title>Node49&#45;&gt;Node34</title>
<path fill="none" stroke="#191970" d="M1169.4019,-333.4966C1200.4751,-323.4306 1240.7555,-310.382 1273.5714,-299.7515"/>
<polygon fill="#191970" stroke="#191970" points="1275.0629,-302.9475 1283.4976,-296.536 1272.9056,-296.2882 1275.0629,-302.9475"/>
</g>
<!-- Node50&#45;&gt;Node6 -->
<g id="edge153" class="edge">
<title>Node50&#45;&gt;Node6</title>
<path fill="none" stroke="#191970" d="M1971.3376,-202.291C1954.3171,-199.8916 1935.9699,-197.3272 1919,-195 1784.9904,-176.6226 1625.2095,-155.6087 1557.6873,-146.7698"/>
<polygon fill="#191970" stroke="#191970" points="1558.0302,-143.2849 1547.6606,-145.458 1557.1221,-150.2257 1558.0302,-143.2849"/>
</g>
<!-- Node50&#45;&gt;Node7 -->
<g id="edge154" class="edge">
<title>Node50&#45;&gt;Node7</title>
<path fill="none" stroke="#191970" d="M2066.3833,-195.4966C2088.2423,-183.9831 2117.5095,-168.5675 2138.8416,-157.3315"/>
<polygon fill="#191970" stroke="#191970" points="2140.5243,-160.4011 2147.7409,-152.6441 2137.2621,-154.2077 2140.5243,-160.4011"/>
</g>
<!-- Node50&#45;&gt;Node11 -->
<g id="edge151" class="edge">
<title>Node50&#45;&gt;Node11</title>
<path fill="none" stroke="#191970" d="M2048.9271,-195.2746C2066.0149,-175.1411 2098.1748,-141.568 2134,-126 2335.8186,-38.2987 3047.6031,-15.5872 3219.4524,-11.3304"/>
<polygon fill="#191970" stroke="#191970" points="3219.6143,-14.8276 3229.5268,-11.0869 3219.4451,-7.8297 3219.6143,-14.8276"/>
</g>
<!-- Node50&#45;&gt;Node19 -->
<g id="edge152" class="edge">
<title>Node50&#45;&gt;Node19</title>
<path fill="none" stroke="#191970" d="M2100.6106,-197.6902C2105.4736,-196.7474 2110.3108,-195.8397 2115,-195 2231.6744,-174.1078 2371.2004,-154.9689 2433.351,-146.7457"/>
<polygon fill="#191970" stroke="#191970" points="2433.8839,-150.2058 2443.3412,-145.4299 2432.9698,-143.2657 2433.8839,-150.2058"/>
</g>
</g>
</svg>
