<?xml version="1.0" encoding="UTF-8" standalone="no"?>
<!DOCTYPE svg PUBLIC "-//W3C//DTD SVG 1.1//EN"
 "http://www.w3.org/Graphics/SVG/1.1/DTD/svg11.dtd">
<!-- Generated by graphviz version 2.40.1 (20161225.0304)
 -->
<!-- Title: ActsExamples::TGeoITkModuleSplitter::splitDiscModule Pages: 1 -->
<svg width="473pt" height="248pt"
 viewBox="0.00 0.00 473.00 248.00" xmlns="http://www.w3.org/2000/svg" xmlns:xlink="http://www.w3.org/1999/xlink">
<g id="graph0" class="graph" transform="scale(1 1) rotate(0) translate(4 244)">
<title>ActsExamples::TGeoITkModuleSplitter::splitDiscModule</title>
<!-- Node1 -->
<g id="node1" class="node">
<title>Node1</title>
<polygon fill="#bfbfbf" stroke="#000000" points="0,-115.5 0,-147.5 173,-147.5 173,-115.5 0,-115.5"/>
<text text-anchor="start" x="8" y="-134.5" font-family="FreeSans" font-size="10.00" fill="#000000">ActsExamples::TGeoITkModule</text>
<text text-anchor="middle" x="86.5" y="-122.5" font-family="FreeSans" font-size="10.00" fill="#000000">Splitter::splitDiscModule</text>
</g>
<!-- Node2 -->
<g id="node2" class="node">
<title>Node2</title>
<g id="a_node2"><a xlink:href="../../de/d7d/classActs_1_1Surface.html#a6926cf349535014a09529e416ef4a004" target="_top" xlink:title="Acts::Surface::bounds">
<polygon fill="none" stroke="#000000" points="215,-219.5 215,-239.5 343,-239.5 343,-219.5 215,-219.5"/>
<text text-anchor="middle" x="279" y="-226.5" font-family="FreeSans" font-size="10.00" fill="#000000">Acts::Surface::bounds</text>
</a>
</g>
</g>
<!-- Node1&#45;&gt;Node2 -->
<g id="edge1" class="edge">
<title>Node1&#45;&gt;Node2</title>
<path fill="none" stroke="#191970" d="M107.0465,-147.591C130.5091,-165.268 170.6239,-193.4124 209,-210.5 213.7668,-212.6225 218.8245,-214.5557 223.954,-216.3053"/>
<polygon fill="#191970" stroke="#191970" points="223.259,-219.7566 233.8492,-219.4449 225.376,-213.0844 223.259,-219.7566"/>
</g>
<!-- Node3 -->
<g id="node3" class="node">
<title>Node3</title>
<g id="a_node3"><a xlink:href="../../d0/da7/namespacetesting_1_1internal.html#a0f6d06bf8c3093b9c22bb08723db201e" target="_top" xlink:title="testing::internal::move">
<polygon fill="none" stroke="#000000" points="213,-180.5 213,-200.5 345,-200.5 345,-180.5 213,-180.5"/>
<text text-anchor="middle" x="279" y="-187.5" font-family="FreeSans" font-size="10.00" fill="#000000">testing::internal::move</text>
</a>
</g>
</g>
<!-- Node1&#45;&gt;Node3 -->
<g id="edge2" class="edge">
<title>Node1&#45;&gt;Node3</title>
<path fill="none" stroke="#191970" d="M133.7357,-147.5414C156.4139,-155.0846 184.0269,-164.0387 209,-171.5 216.0508,-173.6066 223.5301,-175.7414 230.875,-177.7819"/>
<polygon fill="#191970" stroke="#191970" points="230.1846,-181.2219 240.7544,-180.4944 232.038,-174.4717 230.1846,-181.2219"/>
</g>
<!-- Node4 -->
<g id="node4" class="node">
<title>Node4</title>
<g id="a_node4"><a xlink:href="../../d9/d52/HoughTransformSeeder_8cpp.html#a1f2cfb6e3644c66f2bfe3c54f699a72a" target="_top" xlink:title="to_string">
<polygon fill="none" stroke="#000000" points="249,-141.5 249,-161.5 309,-161.5 309,-141.5 249,-141.5"/>
<text text-anchor="middle" x="279" y="-148.5" font-family="FreeSans" font-size="10.00" fill="#000000">to_string</text>
</a>
</g>
</g>
<!-- Node1&#45;&gt;Node4 -->
<g id="edge3" class="edge">
<title>Node1&#45;&gt;Node4</title>
<path fill="none" stroke="#191970" d="M173.1767,-140.5054C196.0794,-142.8849 219.7123,-145.3402 238.8192,-147.3254"/>
<polygon fill="#191970" stroke="#191970" points="238.6269,-150.8241 248.9351,-148.3764 239.3504,-143.8616 238.6269,-150.8241"/>
</g>
<!-- Node5 -->
<g id="node5" class="node">
<title>Node5</title>
<g id="a_node5"><a xlink:href="../../de/d7d/classActs_1_1Surface.html#a094d716342a3f36de3219927986c9a66" target="_top" xlink:title="Acts::Surface::transform">
<polygon fill="none" stroke="#000000" points="209,-102.5 209,-122.5 349,-122.5 349,-102.5 209,-102.5"/>
<text text-anchor="middle" x="279" y="-109.5" font-family="FreeSans" font-size="10.00" fill="#000000">Acts::Surface::transform</text>
</a>
</g>
</g>
<!-- Node1&#45;&gt;Node5 -->
<g id="edge4" class="edge">
<title>Node1&#45;&gt;Node5</title>
<path fill="none" stroke="#191970" d="M173.1767,-122.9449C181.6904,-122.1046 190.3049,-121.2543 198.7504,-120.4207"/>
<polygon fill="#191970" stroke="#191970" points="199.3422,-123.8794 208.95,-119.414 198.6546,-116.9133 199.3422,-123.8794"/>
</g>
<!-- Node7 -->
<g id="node7" class="node">
<title>Node7</title>
<g id="a_node7"><a xlink:href="../../df/dd3/classActs_1_1SurfaceBounds.html#a59935775fe677c49c9ba4cbd72c11011" target="_top" xlink:title="Acts::SurfaceBounds\l::type">
<polygon fill="none" stroke="#000000" points="218,-51.5 218,-83.5 340,-83.5 340,-51.5 218,-51.5"/>
<text text-anchor="start" x="226" y="-70.5" font-family="FreeSans" font-size="10.00" fill="#000000">Acts::SurfaceBounds</text>
<text text-anchor="middle" x="279" y="-58.5" font-family="FreeSans" font-size="10.00" fill="#000000">::type</text>
</a>
</g>
</g>
<!-- Node1&#45;&gt;Node7 -->
<g id="edge6" class="edge">
<title>Node1&#45;&gt;Node7</title>
<path fill="none" stroke="#191970" d="M135.0759,-115.3501C161.2793,-106.6383 193.7896,-95.8297 221.2783,-86.6906"/>
<polygon fill="#191970" stroke="#191970" points="222.3884,-90.01 230.7734,-83.5338 220.1799,-83.3675 222.3884,-90.01"/>
</g>
<!-- Node8 -->
<g id="node8" class="node">
<title>Node8</title>
<g id="a_node8"><a xlink:href="../../df/dd3/classActs_1_1SurfaceBounds.html#a171e3d6795b2dcc7ef51feced51623ce" target="_top" xlink:title="Acts::SurfaceBounds\l::values">
<polygon fill="none" stroke="#000000" points="218,-.5 218,-32.5 340,-32.5 340,-.5 218,-.5"/>
<text text-anchor="start" x="226" y="-19.5" font-family="FreeSans" font-size="10.00" fill="#000000">Acts::SurfaceBounds</text>
<text text-anchor="middle" x="279" y="-7.5" font-family="FreeSans" font-size="10.00" fill="#000000">::values</text>
</a>
</g>
</g>
<!-- Node1&#45;&gt;Node8 -->
<g id="edge7" class="edge">
<title>Node1&#45;&gt;Node8</title>
<path fill="none" stroke="#191970" d="M105.3498,-115.2632C128.5155,-95.9302 169.6108,-63.6097 209,-42.5 212.8975,-40.4112 216.9991,-38.4175 221.1812,-36.5306"/>
<polygon fill="#191970" stroke="#191970" points="222.6028,-39.7293 230.4173,-32.5749 219.8469,-33.2946 222.6028,-39.7293"/>
</g>
<!-- Node6 -->
<g id="node6" class="node">
<title>Node6</title>
<g id="a_node6"><a xlink:href="../../de/d33/Volume_8cpp.html#a0ce60e705eae0758e42adda551820bce" target="_top" xlink:title="m_transform">
<polygon fill="none" stroke="#000000" points="385,-102.5 385,-122.5 465,-122.5 465,-102.5 385,-102.5"/>
<text text-anchor="middle" x="425" y="-109.5" font-family="FreeSans" font-size="10.00" fill="#000000">m_transform</text>
</a>
</g>
</g>
<!-- Node5&#45;&gt;Node6 -->
<g id="edge5" class="edge">
<title>Node5&#45;&gt;Node6</title>
<path fill="none" stroke="#191970" d="M349.0066,-112.5C357.6514,-112.5 366.3523,-112.5 374.6232,-112.5"/>
<polygon fill="#191970" stroke="#191970" points="374.8333,-116.0001 384.8332,-112.5 374.8332,-109.0001 374.8333,-116.0001"/>
</g>
</g>
</svg>
