<?xml version="1.0" encoding="UTF-8" standalone="no"?>
<!DOCTYPE svg PUBLIC "-//W3C//DTD SVG 1.1//EN"
 "http://www.w3.org/Graphics/SVG/1.1/DTD/svg11.dtd">
<!-- Generated by graphviz version 2.40.1 (20161225.0304)
 -->
<!-- Title: PHTrackPropagating::GetNodes Pages: 1 -->
<svg width="496pt" height="272pt"
 viewBox="0.00 0.00 496.00 272.00" xmlns="http://www.w3.org/2000/svg" xmlns:xlink="http://www.w3.org/1999/xlink">
<g id="graph0" class="graph" transform="scale(1 1) rotate(0) translate(4 268)">
<title>PHTrackPropagating::GetNodes</title>
<!-- Node1 -->
<g id="node1" class="node">
<title>Node1</title>
<polygon fill="#bfbfbf" stroke="#000000" points="0,-118.5 0,-150.5 117,-150.5 117,-118.5 0,-118.5"/>
<text text-anchor="start" x="8" y="-137.5" font-family="FreeSans" font-size="10.00" fill="#000000">PHTrackPropagating</text>
<text text-anchor="middle" x="58.5" y="-125.5" font-family="FreeSans" font-size="10.00" fill="#000000">::GetNodes</text>
</g>
<!-- Node2 -->
<g id="node2" class="node">
<title>Node2</title>
<g id="a_node2"><a xlink:href="../../d2/d5c/classPHTrackPropagating.html#ab26e33655ef4692c8d96d9a5591d478d" target="_top" xlink:title="PHTrackPropagating\l::Setup">
<polygon fill="none" stroke="#000000" points="153,-118.5 153,-150.5 270,-150.5 270,-118.5 153,-118.5"/>
<text text-anchor="start" x="161" y="-137.5" font-family="FreeSans" font-size="10.00" fill="#000000">PHTrackPropagating</text>
<text text-anchor="middle" x="211.5" y="-125.5" font-family="FreeSans" font-size="10.00" fill="#000000">::Setup</text>
</a>
</g>
</g>
<!-- Node1&#45;&gt;Node2 -->
<g id="edge1" class="edge">
<title>Node1&#45;&gt;Node2</title>
<path fill="none" stroke="#191970" d="M127.4932,-134.5C135.9927,-134.5 144.617,-134.5 152.9409,-134.5"/>
<polygon fill="#191970" stroke="#191970" points="127.2163,-131.0001 117.2162,-134.5 127.2162,-138.0001 127.2163,-131.0001"/>
</g>
<!-- Node3 -->
<g id="node3" class="node">
<title>Node3</title>
<g id="a_node3"><a xlink:href="../../d0/d22/classPHGenFitTrkProp.html#a8a925731719897df898a280a3a93763a" target="_top" xlink:title="PHGenFitTrkProp::Setup">
<polygon fill="none" stroke="#000000" points="329.5,-243.5 329.5,-263.5 464.5,-263.5 464.5,-243.5 329.5,-243.5"/>
<text text-anchor="middle" x="397" y="-250.5" font-family="FreeSans" font-size="10.00" fill="#000000">PHGenFitTrkProp::Setup</text>
</a>
</g>
</g>
<!-- Node2&#45;&gt;Node3 -->
<g id="edge2" class="edge">
<title>Node2&#45;&gt;Node3</title>
<path fill="none" stroke="#191970" d="M227.7299,-158.8302C244.5226,-181.9989 272.9065,-215.9997 306,-234.5 313.1846,-238.5164 321.1182,-241.6866 329.2172,-244.1884"/>
<polygon fill="#191970" stroke="#191970" points="230.5017,-156.6877 221.8758,-150.5359 224.7827,-160.7242 230.5017,-156.6877"/>
</g>
<!-- Node4 -->
<g id="node4" class="node">
<title>Node4</title>
<g id="a_node4"><a xlink:href="../../db/d8d/classPHMicromegasTpcTrackMatching.html#a4b9a39cc10ad92595e37d11558559be8" target="_top" xlink:title="PHMicromegasTpcTrackMatching\l::Setup">
<polygon fill="none" stroke="#000000" points="306,-192.5 306,-224.5 488,-224.5 488,-192.5 306,-192.5"/>
<text text-anchor="start" x="314" y="-211.5" font-family="FreeSans" font-size="10.00" fill="#000000">PHMicromegasTpcTrackMatching</text>
<text text-anchor="middle" x="397" y="-199.5" font-family="FreeSans" font-size="10.00" fill="#000000">::Setup</text>
</a>
</g>
</g>
<!-- Node2&#45;&gt;Node4 -->
<g id="edge3" class="edge">
<title>Node2&#45;&gt;Node4</title>
<path fill="none" stroke="#191970" d="M248.0258,-155.7285C265.2224,-165.122 286.2535,-175.7675 306,-183.5 314.2382,-186.726 323.05,-189.7034 331.8267,-192.3935"/>
<polygon fill="#191970" stroke="#191970" points="249.3415,-152.4559 238.8991,-150.6651 245.9456,-158.577 249.3415,-152.4559"/>
</g>
<!-- Node5 -->
<g id="node5" class="node">
<title>Node5</title>
<g id="a_node5"><a xlink:href="../../d2/d71/classPHSiliconTpcTrackMatching.html#a3aeca8b7ce1e82153de789b510346126" target="_top" xlink:title="PHSiliconTpcTrackMatching\l::Setup">
<polygon fill="none" stroke="#000000" points="320,-141.5 320,-173.5 474,-173.5 474,-141.5 320,-141.5"/>
<text text-anchor="start" x="328" y="-160.5" font-family="FreeSans" font-size="10.00" fill="#000000">PHSiliconTpcTrackMatching</text>
<text text-anchor="middle" x="397" y="-148.5" font-family="FreeSans" font-size="10.00" fill="#000000">::Setup</text>
</a>
</g>
</g>
<!-- Node2&#45;&gt;Node5 -->
<g id="edge4" class="edge">
<title>Node2&#45;&gt;Node5</title>
<path fill="none" stroke="#191970" d="M280.3159,-143.0324C293.1386,-144.6223 306.6164,-146.2934 319.6745,-147.9125"/>
<polygon fill="#191970" stroke="#191970" points="280.5481,-139.5345 270.1934,-141.7773 279.6867,-146.4813 280.5481,-139.5345"/>
</g>
<!-- Node6 -->
<g id="node6" class="node">
<title>Node6</title>
<g id="a_node6"><a xlink:href="../../d9/d69/classPHSimpleKFProp.html#a897af714d857412db2473324e6a45228" target="_top" xlink:title="PHSimpleKFProp::Setup">
<polygon fill="none" stroke="#000000" points="329,-102.5 329,-122.5 465,-122.5 465,-102.5 329,-102.5"/>
<text text-anchor="middle" x="397" y="-109.5" font-family="FreeSans" font-size="10.00" fill="#000000">PHSimpleKFProp::Setup</text>
</a>
</g>
</g>
<!-- Node2&#45;&gt;Node6 -->
<g id="edge5" class="edge">
<title>Node2&#45;&gt;Node6</title>
<path fill="none" stroke="#191970" d="M280.4498,-126.3227C296.3079,-124.4419 313.1616,-122.4431 328.98,-120.5671"/>
<polygon fill="#191970" stroke="#191970" points="279.7115,-122.8856 270.1934,-127.5391 280.536,-129.8369 279.7115,-122.8856"/>
</g>
<!-- Node7 -->
<g id="node7" class="node">
<title>Node7</title>
<g id="a_node7"><a xlink:href="../../d3/d4e/classPHTpcTrackSeedVertexAssoc.html#ad5269c432a9396b8a6c9351b99b9d3c6" target="_top" xlink:title="PHTpcTrackSeedVertexAssoc\l::Setup">
<polygon fill="none" stroke="#000000" points="316.5,-51.5 316.5,-83.5 477.5,-83.5 477.5,-51.5 316.5,-51.5"/>
<text text-anchor="start" x="324.5" y="-70.5" font-family="FreeSans" font-size="10.00" fill="#000000">PHTpcTrackSeedVertexAssoc</text>
<text text-anchor="middle" x="397" y="-58.5" font-family="FreeSans" font-size="10.00" fill="#000000">::Setup</text>
</a>
</g>
</g>
<!-- Node2&#45;&gt;Node7 -->
<g id="edge6" class="edge">
<title>Node2&#45;&gt;Node7</title>
<path fill="none" stroke="#191970" d="M255.1535,-114.1392C270.9866,-107.1341 289.1287,-99.5407 306,-93.5 315.7456,-90.0106 326.2056,-86.6641 336.4383,-83.6013"/>
<polygon fill="#191970" stroke="#191970" points="253.3219,-111.1244 245.6255,-118.4056 256.1827,-117.5131 253.3219,-111.1244"/>
</g>
<!-- Node8 -->
<g id="node8" class="node">
<title>Node8</title>
<g id="a_node8"><a xlink:href="../../d2/d5c/classPHTrackPropagating.html#af398469c5e2be557b1929d496d2a79c2" target="_top" xlink:title="PHTrackPropagating\l::InitRun">
<polygon fill="none" stroke="#000000" points="338.5,-.5 338.5,-32.5 455.5,-32.5 455.5,-.5 338.5,-.5"/>
<text text-anchor="start" x="346.5" y="-19.5" font-family="FreeSans" font-size="10.00" fill="#000000">PHTrackPropagating</text>
<text text-anchor="middle" x="397" y="-7.5" font-family="FreeSans" font-size="10.00" fill="#000000">::InitRun</text>
</a>
</g>
</g>
<!-- Node2&#45;&gt;Node8 -->
<g id="edge7" class="edge">
<title>Node2&#45;&gt;Node8</title>
<path fill="none" stroke="#191970" d="M230.154,-110.5832C247.632,-89.7293 275.5673,-60.1332 306,-42.5 315.9517,-36.7338 327.265,-32.177 338.4512,-28.5994"/>
<polygon fill="#191970" stroke="#191970" points="227.3978,-108.4247 223.7652,-118.3773 232.8115,-112.8623 227.3978,-108.4247"/>
</g>
</g>
</svg>
