<?xml version="1.0" encoding="UTF-8" standalone="no"?>
<!DOCTYPE svg PUBLIC "-//W3C//DTD SVG 1.1//EN"
 "http://www.w3.org/Graphics/SVG/1.1/DTD/svg11.dtd">
<!-- Generated by graphviz version 2.40.1 (20161225.0304)
 -->
<!-- Title: TrackSeedContainer::index Pages: 1 -->
<svg width="330pt" height="194pt"
 viewBox="0.00 0.00 330.00 194.00" xmlns="http://www.w3.org/2000/svg" xmlns:xlink="http://www.w3.org/1999/xlink">
<g id="graph0" class="graph" transform="scale(1 1) rotate(0) translate(4 190)">
<title>TrackSeedContainer::index</title>
<!-- Node1 -->
<g id="node1" class="node">
<title>Node1</title>
<polygon fill="#bfbfbf" stroke="#000000" points="0,-76.5 0,-108.5 119,-108.5 119,-76.5 0,-76.5"/>
<text text-anchor="start" x="8" y="-95.5" font-family="FreeSans" font-size="10.00" fill="#000000">TrackSeedContainer</text>
<text text-anchor="middle" x="59.5" y="-83.5" font-family="FreeSans" font-size="10.00" fill="#000000">::index</text>
</g>
<!-- Node2 -->
<g id="node2" class="node">
<title>Node2</title>
<g id="a_node2"><a xlink:href="../../dc/dc1/classPHCosmicSeedCombiner.html#a7810c7b1938a87bccfbe5a770a058df1" target="_top" xlink:title="PHCosmicSeedCombiner\l::process_event">
<polygon fill="none" stroke="#000000" points="167.5,-153.5 167.5,-185.5 309.5,-185.5 309.5,-153.5 167.5,-153.5"/>
<text text-anchor="start" x="175.5" y="-172.5" font-family="FreeSans" font-size="10.00" fill="#000000">PHCosmicSeedCombiner</text>
<text text-anchor="middle" x="238.5" y="-160.5" font-family="FreeSans" font-size="10.00" fill="#000000">::process_event</text>
</a>
</g>
</g>
<!-- Node1&#45;&gt;Node2 -->
<g id="edge1" class="edge">
<title>Node1&#45;&gt;Node2</title>
<path fill="none" stroke="#191970" d="M94.3631,-113.7583C112.0876,-123.973 134.2245,-135.8443 155,-144.5 162.6827,-147.7008 170.9184,-150.6803 179.1149,-153.3857"/>
<polygon fill="#191970" stroke="#191970" points="95.9267,-110.6182 85.5271,-108.5935 92.3942,-116.6615 95.9267,-110.6182"/>
</g>
<!-- Node3 -->
<g id="node3" class="node">
<title>Node3</title>
<g id="a_node3"><a xlink:href="../../dd/d92/classTrackSeedTrackMapConverter.html#ad4684e56d489fc441709416cc8047607" target="_top" xlink:title="TrackSeedTrackMapConverter\l::process_event">
<polygon fill="none" stroke="#000000" points="155,-102.5 155,-134.5 322,-134.5 322,-102.5 155,-102.5"/>
<text text-anchor="start" x="163" y="-121.5" font-family="FreeSans" font-size="10.00" fill="#000000">TrackSeedTrackMapConverter</text>
<text text-anchor="middle" x="238.5" y="-109.5" font-family="FreeSans" font-size="10.00" fill="#000000">::process_event</text>
</a>
</g>
</g>
<!-- Node1&#45;&gt;Node3 -->
<g id="edge2" class="edge">
<title>Node1&#45;&gt;Node3</title>
<path fill="none" stroke="#191970" d="M129.2352,-102.6291C137.6581,-103.8526 146.3269,-105.1117 154.9224,-106.3602"/>
<polygon fill="#191970" stroke="#191970" points="129.5037,-99.1315 119.1044,-101.1576 128.4974,-106.0588 129.5037,-99.1315"/>
</g>
<!-- Node4 -->
<g id="node4" class="node">
<title>Node4</title>
<g id="a_node4"><a xlink:href="../../d9/d26/classhelixResiduals.html#a244bd2dcfa0bbebcca1939aa27013dbc" target="_top" xlink:title="helixResiduals::process\l_event">
<polygon fill="none" stroke="#000000" points="171.5,-51.5 171.5,-83.5 305.5,-83.5 305.5,-51.5 171.5,-51.5"/>
<text text-anchor="start" x="179.5" y="-70.5" font-family="FreeSans" font-size="10.00" fill="#000000">helixResiduals::process</text>
<text text-anchor="middle" x="238.5" y="-58.5" font-family="FreeSans" font-size="10.00" fill="#000000">_event</text>
</a>
</g>
</g>
<!-- Node1&#45;&gt;Node4 -->
<g id="edge3" class="edge">
<title>Node1&#45;&gt;Node4</title>
<path fill="none" stroke="#191970" d="M129.0976,-82.7797C143.0139,-80.836 157.6065,-78.798 171.4353,-76.8666"/>
<polygon fill="#191970" stroke="#191970" points="128.5241,-79.3257 119.1044,-84.1754 129.4924,-86.2584 128.5241,-79.3257"/>
</g>
<!-- Node5 -->
<g id="node5" class="node">
<title>Node5</title>
<g id="a_node5"><a xlink:href="../../dd/dfe/classPHCosmicTrackMerger.html#aacc3e4a946a5f0592f4abe8a76573857" target="_top" xlink:title="PHCosmicTrackMerger\l::process_event">
<polygon fill="none" stroke="#000000" points="174,-.5 174,-32.5 303,-32.5 303,-.5 174,-.5"/>
<text text-anchor="start" x="182" y="-19.5" font-family="FreeSans" font-size="10.00" fill="#000000">PHCosmicTrackMerger</text>
<text text-anchor="middle" x="238.5" y="-7.5" font-family="FreeSans" font-size="10.00" fill="#000000">::process_event</text>
</a>
</g>
</g>
<!-- Node1&#45;&gt;Node5 -->
<g id="edge4" class="edge">
<title>Node1&#45;&gt;Node5</title>
<path fill="none" stroke="#191970" d="M95.6452,-71.6022C113.2031,-61.9659 134.8234,-50.843 155,-42.5 163.5588,-38.9609 172.7798,-35.6322 181.8614,-32.6146"/>
<polygon fill="#191970" stroke="#191970" points="93.9034,-68.566 86.8631,-76.4834 97.3041,-74.6845 93.9034,-68.566"/>
</g>
</g>
</svg>
