<?xml version="1.0" encoding="UTF-8" standalone="no"?>
<!DOCTYPE svg PUBLIC "-//W3C//DTD SVG 1.1//EN"
 "http://www.w3.org/Graphics/SVG/1.1/DTD/svg11.dtd">
<!-- Generated by graphviz version 2.40.1 (20161225.0304)
 -->
<!-- Title: ExploreTTrees Pages: 1 -->
<svg width="312pt" height="162pt"
 viewBox="0.00 0.00 312.00 161.86" xmlns="http://www.w3.org/2000/svg" xmlns:xlink="http://www.w3.org/1999/xlink">
<g id="graph0" class="graph" transform="scale(1 1) rotate(0) translate(4 157.8582)">
<title>ExploreTTrees</title>
<!-- Node1 -->
<g id="node1" class="node">
<title>Node1</title>
<polygon fill="#bfbfbf" stroke="#000000" points="0,-78.5 0,-98.5 87,-98.5 87,-78.5 0,-78.5"/>
<text text-anchor="middle" x="43.5" y="-85.5" font-family="FreeSans" font-size="10.00" fill="#000000">ExploreTTrees</text>
</g>
<!-- Node2 -->
<g id="node2" class="node">
<title>Node2</title>
<g id="a_node2"><a xlink:href="../../db/d04/EMCalTowerRingStudy_8C.html#af302a003baa57717a4371eeee3999460" target="_top" xlink:title="delta_phi">
<polygon fill="none" stroke="#000000" points="242,-117.5 242,-137.5 304,-137.5 304,-117.5 242,-117.5"/>
<text text-anchor="middle" x="273" y="-124.5" font-family="FreeSans" font-size="10.00" fill="#000000">delta_phi</text>
</a>
</g>
</g>
<!-- Node1&#45;&gt;Node2 -->
<g id="edge1" class="edge">
<title>Node1&#45;&gt;Node2</title>
<path fill="none" stroke="#191970" d="M53.0535,-98.92C66.8635,-113.125 93.9515,-137.8986 123,-147.5 161.0993,-160.093 207.1302,-150.5405 238.0668,-140.7848"/>
<polygon fill="#191970" stroke="#191970" points="239.5613,-143.9763 247.9464,-137.5002 237.3529,-137.3338 239.5613,-143.9763"/>
</g>
<!-- Node3 -->
<g id="node3" class="node">
<title>Node3</title>
<g id="a_node3"><a xlink:href="../../da/d55/TPCRateLayered_8m.html#ac40e4ec8f2a74a2878f06670249eebb8" target="_top" xlink:title="double">
<polygon fill="none" stroke="#000000" points="139,-117.5 139,-137.5 190,-137.5 190,-117.5 139,-117.5"/>
<text text-anchor="middle" x="164.5" y="-124.5" font-family="FreeSans" font-size="10.00" fill="#000000">double</text>
</a>
</g>
</g>
<!-- Node1&#45;&gt;Node3 -->
<g id="edge2" class="edge">
<title>Node1&#45;&gt;Node3</title>
<path fill="none" stroke="#191970" d="M74.6605,-98.5435C91.2842,-103.9015 111.8074,-110.5164 129.0397,-116.0706"/>
<polygon fill="#191970" stroke="#191970" points="128.1595,-119.4642 138.7511,-119.2008 130.307,-112.8017 128.1595,-119.4642"/>
</g>
<!-- Node4 -->
<g id="node4" class="node">
<title>Node4</title>
<g id="a_node4"><a xlink:href="../../d5/da9/ExploreTTrees_8C.html#ac295e38649593860060414ec2d8f155e" target="_top" xlink:title="dR">
<polygon fill="none" stroke="#000000" points="149.5,-78.5 149.5,-98.5 179.5,-98.5 179.5,-78.5 149.5,-78.5"/>
<text text-anchor="middle" x="164.5" y="-85.5" font-family="FreeSans" font-size="10.00" fill="#000000">dR</text>
</a>
</g>
</g>
<!-- Node1&#45;&gt;Node4 -->
<g id="edge3" class="edge">
<title>Node1&#45;&gt;Node4</title>
<path fill="none" stroke="#191970" d="M87.1838,-88.5C104.7238,-88.5 124.3122,-88.5 139.3835,-88.5"/>
<polygon fill="#191970" stroke="#191970" points="139.4657,-92.0001 149.4656,-88.5 139.4656,-85.0001 139.4657,-92.0001"/>
</g>
<!-- Node5 -->
<g id="node5" class="node">
<title>Node5</title>
<g id="a_node5"><a xlink:href="../../db/d04/EMCalTowerRingStudy_8C.html#aa87de61771b0ccfbbf96e0f007ac4f63" target="_top" xlink:title="phi_in_range">
<polygon fill="none" stroke="#000000" points="124,-39.5 124,-59.5 205,-59.5 205,-39.5 124,-39.5"/>
<text text-anchor="middle" x="164.5" y="-46.5" font-family="FreeSans" font-size="10.00" fill="#000000">phi_in_range</text>
</a>
</g>
</g>
<!-- Node1&#45;&gt;Node5 -->
<g id="edge5" class="edge">
<title>Node1&#45;&gt;Node5</title>
<path fill="none" stroke="#191970" d="M74.6605,-78.4565C89.6212,-73.6345 107.7402,-67.7945 123.7763,-62.6258"/>
<polygon fill="#191970" stroke="#191970" points="125.001,-65.9085 133.4451,-59.5094 122.8535,-59.246 125.001,-65.9085"/>
</g>
<!-- Node6 -->
<g id="node6" class="node">
<title>Node6</title>
<g id="a_node6"><a xlink:href="../../d5/da9/ExploreTTrees_8C.html#a52d668143b57342fb1b99449e0533400" target="_top" xlink:title="tower_in_3x3">
<polygon fill="none" stroke="#000000" points="123,-.5 123,-20.5 206,-20.5 206,-.5 123,-.5"/>
<text text-anchor="middle" x="164.5" y="-7.5" font-family="FreeSans" font-size="10.00" fill="#000000">tower_in_3x3</text>
</a>
</g>
</g>
<!-- Node1&#45;&gt;Node6 -->
<g id="edge6" class="edge">
<title>Node1&#45;&gt;Node6</title>
<path fill="none" stroke="#191970" d="M55.952,-78.3142C71.2017,-66.1044 98.0839,-45.4249 123,-30.5 126.0425,-28.6775 129.2761,-26.8863 132.5434,-25.1703"/>
<polygon fill="#191970" stroke="#191970" points="134.3425,-28.1835 141.7097,-20.5693 131.2023,-21.9273 134.3425,-28.1835"/>
</g>
<!-- Node4&#45;&gt;Node2 -->
<g id="edge4" class="edge">
<title>Node4&#45;&gt;Node2</title>
<path fill="none" stroke="#191970" d="M179.5865,-93.9228C194.0321,-99.1152 216.4104,-107.159 235.6425,-114.0719"/>
<polygon fill="#191970" stroke="#191970" points="234.4729,-117.3707 245.0674,-117.4597 236.8408,-110.7834 234.4729,-117.3707"/>
</g>
</g>
</svg>
