<?xml version="1.0" encoding="UTF-8" standalone="no"?>
<!DOCTYPE svg PUBLIC "-//W3C//DTD SVG 1.1//EN"
 "http://www.w3.org/Graphics/SVG/1.1/DTD/svg11.dtd">
<!-- Generated by graphviz version 2.40.1 (20161225.0304)
 -->
<!-- Title: dfs::init_handler Pages: 1 -->
<svg width="544pt" height="338pt"
 viewBox="0.00 0.00 544.00 338.00" xmlns="http://www.w3.org/2000/svg" xmlns:xlink="http://www.w3.org/1999/xlink">
<g id="graph0" class="graph" transform="scale(1 1) rotate(0) translate(4 334)">
<title>dfs::init_handler</title>
<!-- Node1 -->
<g id="node1" class="node">
<title>Node1</title>
<polygon fill="#bfbfbf" stroke="#000000" points="0,-160.5 0,-180.5 99,-180.5 99,-160.5 0,-160.5"/>
<text text-anchor="middle" x="49.5" y="-167.5" font-family="FreeSans" font-size="10.00" fill="#000000">dfs::init_handler</text>
</g>
<!-- Node2 -->
<g id="node2" class="node">
<title>Node2</title>
<g id="a_node2"><a xlink:href="../../da/db2/classdfs.html#af0863b8974d5fd58cd0375c78ed8163b" target="_top" xlink:title="Applies algorithm to graph g.">
<polygon fill="none" stroke="#000000" points="135,-160.5 135,-180.5 190,-180.5 190,-160.5 135,-160.5"/>
<text text-anchor="middle" x="162.5" y="-167.5" font-family="FreeSans" font-size="10.00" fill="#000000">dfs::run</text>
</a>
</g>
</g>
<!-- Node1&#45;&gt;Node2 -->
<g id="edge1" class="edge">
<title>Node1&#45;&gt;Node2</title>
<path fill="none" stroke="#191970" d="M109.1351,-170.5C118.0586,-170.5 126.8774,-170.5 134.6977,-170.5"/>
<polygon fill="#191970" stroke="#191970" points="109.0635,-167.0001 99.0634,-170.5 109.0634,-174.0001 109.0635,-167.0001"/>
</g>
<!-- Node3 -->
<g id="node3" class="node">
<title>Node3</title>
<g id="a_node3"><a xlink:href="../../d5/dbe/coresoftware_2blob_2master_2generators_2JETSCAPE_2readerTest_8cc.html#a054154ba03a21a269a8ec3126aec208e" target="_top" xlink:title="AnalyzeGraph">
<polygon fill="none" stroke="#000000" points="253,-309.5 253,-329.5 341,-329.5 341,-309.5 253,-309.5"/>
<text text-anchor="middle" x="297" y="-316.5" font-family="FreeSans" font-size="10.00" fill="#000000">AnalyzeGraph</text>
</a>
</g>
</g>
<!-- Node2&#45;&gt;Node3 -->
<g id="edge2" class="edge">
<title>Node2&#45;&gt;Node3</title>
<path fill="none" stroke="#191970" d="M166.8335,-190.8487C174.0359,-219.6246 191.2529,-271.8832 226,-300.5 233.6828,-306.8273 243.2751,-311.0628 252.9001,-313.8937"/>
<polygon fill="#191970" stroke="#191970" points="170.1562,-189.685 164.4772,-180.7408 163.339,-191.2743 170.1562,-189.685"/>
</g>
<!-- Node5 -->
<g id="node5" class="node">
<title>Node5</title>
<g id="a_node5"><a xlink:href="../../da/d70/classbiconnectivity.html#a64adab869e0080e3a1f8479e70010317" target="_top" xlink:title="Handler called before the start of DFS.">
<polygon fill="none" stroke="#000000" points="242,-258.5 242,-290.5 352,-290.5 352,-258.5 242,-258.5"/>
<text text-anchor="start" x="250" y="-277.5" font-family="FreeSans" font-size="10.00" fill="#000000">biconnectivity::init</text>
<text text-anchor="middle" x="297" y="-265.5" font-family="FreeSans" font-size="10.00" fill="#000000">_handler</text>
</a>
</g>
</g>
<!-- Node2&#45;&gt;Node5 -->
<g id="edge4" class="edge">
<title>Node2&#45;&gt;Node5</title>
<path fill="none" stroke="#191970" d="M173.5423,-189.6641C184.6934,-207.4595 203.4625,-233.5409 226,-249.5 230.9059,-252.974 236.3412,-256.0066 241.9572,-258.6445"/>
<polygon fill="#191970" stroke="#191970" points="176.3221,-187.4968 168.1555,-180.7472 170.3306,-191.1164 176.3221,-187.4968"/>
</g>
<!-- Node6 -->
<g id="node6" class="node">
<title>Node6</title>
<g id="a_node6"><a xlink:href="../../dd/d9b/classgraph.html#a2a19afec99de7d8655c11b5b7e49dc2c" target="_top" xlink:title="graph::is_connected">
<polygon fill="none" stroke="#000000" points="238,-219.5 238,-239.5 356,-239.5 356,-219.5 238,-219.5"/>
<text text-anchor="middle" x="297" y="-226.5" font-family="FreeSans" font-size="10.00" fill="#000000">graph::is_connected</text>
</a>
</g>
</g>
<!-- Node2&#45;&gt;Node6 -->
<g id="edge5" class="edge">
<title>Node2&#45;&gt;Node6</title>
<path fill="none" stroke="#191970" d="M184.2989,-186.5329C196.1508,-194.6442 211.3474,-204.1001 226,-210.5 233.9515,-213.973 242.6883,-216.9416 251.2321,-219.4286"/>
<polygon fill="#191970" stroke="#191970" points="186.1457,-183.5529 175.952,-180.6651 182.12,-189.2795 186.1457,-183.5529"/>
</g>
<!-- Node12 -->
<g id="node12" class="node">
<title>Node12</title>
<g id="a_node12"><a xlink:href="../../dd/d9b/classgraph.html#abab8ba361624ba7ad7f204848553f3b0" target="_top" xlink:title="graph::is_acyclic">
<polygon fill="none" stroke="#000000" points="247,-180.5 247,-200.5 347,-200.5 347,-180.5 247,-180.5"/>
<text text-anchor="middle" x="297" y="-187.5" font-family="FreeSans" font-size="10.00" fill="#000000">graph::is_acyclic</text>
</a>
</g>
</g>
<!-- Node2&#45;&gt;Node12 -->
<g id="edge11" class="edge">
<title>Node2&#45;&gt;Node12</title>
<path fill="none" stroke="#191970" d="M200.1428,-176.0974C214.641,-178.2533 231.433,-180.7503 246.9224,-183.0535"/>
<polygon fill="#191970" stroke="#191970" points="200.4487,-172.6045 190.0426,-174.5956 199.4191,-179.5284 200.4487,-172.6045"/>
</g>
<!-- Node13 -->
<g id="node13" class="node">
<title>Node13</title>
<g id="a_node13"><a xlink:href="../../d0/d8e/classplanarity.html#a93232e765c08dd2a4c00d192bb48b5fc" target="_top" xlink:title="Runs planarity test on G.">
<polygon fill="none" stroke="#000000" points="255,-141.5 255,-161.5 339,-161.5 339,-141.5 255,-141.5"/>
<text text-anchor="middle" x="297" y="-148.5" font-family="FreeSans" font-size="10.00" fill="#000000">planarity::run</text>
</a>
</g>
</g>
<!-- Node2&#45;&gt;Node13 -->
<g id="edge12" class="edge">
<title>Node2&#45;&gt;Node13</title>
<path fill="none" stroke="#191970" d="M200.1844,-165.1766C217.2115,-162.7712 237.3958,-159.9199 254.9168,-157.4448"/>
<polygon fill="#191970" stroke="#191970" points="199.4547,-161.7448 190.0426,-166.6092 200.4339,-168.676 199.4547,-161.7448"/>
</g>
<!-- Node14 -->
<g id="node14" class="node">
<title>Node14</title>
<g id="a_node14"><a xlink:href="../../de/d39/classratio__cut__partition.html#a20a50609115998baaa361627a5a1ca79" target="_top" xlink:title="ratio_cut_partition\l::make_connected">
<polygon fill="none" stroke="#000000" points="243,-90.5 243,-122.5 351,-122.5 351,-90.5 243,-90.5"/>
<text text-anchor="start" x="251" y="-109.5" font-family="FreeSans" font-size="10.00" fill="#000000">ratio_cut_partition</text>
<text text-anchor="middle" x="297" y="-97.5" font-family="FreeSans" font-size="10.00" fill="#000000">::make_connected</text>
</a>
</g>
</g>
<!-- Node2&#45;&gt;Node14 -->
<g id="edge13" class="edge">
<title>Node2&#45;&gt;Node14</title>
<path fill="none" stroke="#191970" d="M186.1632,-154.8882C197.863,-147.5489 212.3671,-139.004 226,-132.5 233.3455,-128.9956 241.2976,-125.6636 249.1315,-122.626"/>
<polygon fill="#191970" stroke="#191970" points="183.9944,-152.1205 177.4517,-160.4538 187.7631,-158.0194 183.9944,-152.1205"/>
</g>
<!-- Node15 -->
<g id="node15" class="node">
<title>Node15</title>
<g id="a_node15"><a xlink:href="../../df/de4/my__test2_8cc.html#a0ddf1224851353fc92bfbff6f499fa97" target="_top" xlink:title="main">
<polygon fill="none" stroke="#000000" points="276.5,-51.5 276.5,-71.5 317.5,-71.5 317.5,-51.5 276.5,-51.5"/>
<text text-anchor="middle" x="297" y="-58.5" font-family="FreeSans" font-size="10.00" fill="#000000">main</text>
</a>
</g>
</g>
<!-- Node2&#45;&gt;Node15 -->
<g id="edge15" class="edge">
<title>Node2&#45;&gt;Node15</title>
<path fill="none" stroke="#191970" d="M171.4569,-150.9902C181.7768,-130.6624 200.6297,-99.3387 226,-81.5 240.9803,-70.9668 261.3787,-65.9607 276.4679,-63.5934"/>
<polygon fill="#191970" stroke="#191970" points="168.188,-149.7094 166.9666,-160.2336 174.4844,-152.768 168.188,-149.7094"/>
</g>
<!-- Node16 -->
<g id="node16" class="node">
<title>Node16</title>
<g id="a_node16"><a xlink:href="../../dd/de6/classJetscape_1_1JetScapeWriterHepMC.html#a98694627acd2525958f8888c811ef0ed" target="_top" xlink:title="Jetscape::JetScapeWriter\lHepMC::Write">
<polygon fill="none" stroke="#000000" points="226,-.5 226,-32.5 368,-32.5 368,-.5 226,-.5"/>
<text text-anchor="start" x="234" y="-19.5" font-family="FreeSans" font-size="10.00" fill="#000000">Jetscape::JetScapeWriter</text>
<text text-anchor="middle" x="297" y="-7.5" font-family="FreeSans" font-size="10.00" fill="#000000">HepMC::Write</text>
</a>
</g>
</g>
<!-- Node2&#45;&gt;Node16 -->
<g id="edge16" class="edge">
<title>Node2&#45;&gt;Node16</title>
<path fill="none" stroke="#191970" d="M167.2957,-150.2417C174.9859,-122.0284 192.7093,-71.0512 226,-41.5 229.8115,-38.1166 234.1096,-35.1839 238.6574,-32.643"/>
<polygon fill="#191970" stroke="#191970" points="163.8434,-149.6144 164.7506,-160.1703 170.6241,-151.3526 163.8434,-149.6144"/>
</g>
<!-- Node4 -->
<g id="node4" class="node">
<title>Node4</title>
<g id="a_node4"><a xlink:href="../../d5/dbe/coresoftware_2blob_2master_2generators_2JETSCAPE_2readerTest_8cc.html#a3c04138a5bfe5d72780bb7e82a18e627" target="_top" xlink:title="main">
<polygon fill="none" stroke="#000000" points="449.5,-309.5 449.5,-329.5 490.5,-329.5 490.5,-309.5 449.5,-309.5"/>
<text text-anchor="middle" x="470" y="-316.5" font-family="FreeSans" font-size="10.00" fill="#000000">main</text>
</a>
</g>
</g>
<!-- Node3&#45;&gt;Node4 -->
<g id="edge3" class="edge">
<title>Node3&#45;&gt;Node4</title>
<path fill="none" stroke="#191970" d="M351.1359,-319.5C384.318,-319.5 424.9248,-319.5 449.0608,-319.5"/>
<polygon fill="#191970" stroke="#191970" points="351.1029,-316.0001 341.1028,-319.5 351.1028,-323.0001 351.1029,-316.0001"/>
</g>
<!-- Node7 -->
<g id="node7" class="node">
<title>Node7</title>
<g id="a_node7"><a xlink:href="../../de/da7/classmaxflow__ff.html#a4d0deee7d70bac4c9dad942341d87e37" target="_top" xlink:title="maxflow_ff::check">
<polygon fill="none" stroke="#000000" points="416,-266.5 416,-286.5 524,-286.5 524,-266.5 416,-266.5"/>
<text text-anchor="middle" x="470" y="-273.5" font-family="FreeSans" font-size="10.00" fill="#000000">maxflow_ff::check</text>
</a>
</g>
</g>
<!-- Node6&#45;&gt;Node7 -->
<g id="edge6" class="edge">
<title>Node6&#45;&gt;Node7</title>
<path fill="none" stroke="#191970" d="M344.066,-242.2867C372.0204,-249.8813 406.9659,-259.3751 432.9485,-266.434"/>
<polygon fill="#191970" stroke="#191970" points="344.6807,-238.8269 334.1128,-239.5827 342.8454,-245.5821 344.6807,-238.8269"/>
</g>
<!-- Node8 -->
<g id="node8" class="node">
<title>Node8</title>
<g id="a_node8"><a xlink:href="../../d8/d25/classmaxflow__pp.html#a7ea24bd88999718e5e4e28ac028131cd" target="_top" xlink:title="maxflow_pp::check">
<polygon fill="none" stroke="#000000" points="413,-227.5 413,-247.5 527,-247.5 527,-227.5 413,-227.5"/>
<text text-anchor="middle" x="470" y="-234.5" font-family="FreeSans" font-size="10.00" fill="#000000">maxflow_pp::check</text>
</a>
</g>
</g>
<!-- Node6&#45;&gt;Node8 -->
<g id="edge7" class="edge">
<title>Node6&#45;&gt;Node8</title>
<path fill="none" stroke="#191970" d="M366.1297,-232.6967C381.6687,-233.4153 397.9877,-234.17 412.9676,-234.8627"/>
<polygon fill="#191970" stroke="#191970" points="366.204,-229.1965 356.0529,-232.2308 365.8805,-236.1891 366.204,-229.1965"/>
</g>
<!-- Node9 -->
<g id="node9" class="node">
<title>Node9</title>
<g id="a_node9"><a xlink:href="../../da/d1a/classmaxflow__sap.html#aa2974bf25fb597677848fdb23c12d338" target="_top" xlink:title="maxflow_sap::check">
<polygon fill="none" stroke="#000000" points="410.5,-188.5 410.5,-208.5 529.5,-208.5 529.5,-188.5 410.5,-188.5"/>
<text text-anchor="middle" x="470" y="-195.5" font-family="FreeSans" font-size="10.00" fill="#000000">maxflow_sap::check</text>
</a>
</g>
</g>
<!-- Node6&#45;&gt;Node9 -->
<g id="edge8" class="edge">
<title>Node6&#45;&gt;Node9</title>
<path fill="none" stroke="#191970" d="M363.4262,-217.597C380.1602,-214.5985 397.9551,-211.4098 414.1137,-208.5143"/>
<polygon fill="#191970" stroke="#191970" points="362.394,-214.2262 353.1681,-219.4352 363.6287,-221.1164 362.394,-214.2262"/>
</g>
<!-- Node10 -->
<g id="node10" class="node">
<title>Node10</title>
<g id="a_node10"><a xlink:href="../../dc/d06/classmin__tree.html#ad87b1bfbc687ad943c07538fa0c3d270" target="_top" xlink:title="Checks whether algorithm can be applied.">
<polygon fill="none" stroke="#000000" points="421.5,-149.5 421.5,-169.5 518.5,-169.5 518.5,-149.5 421.5,-149.5"/>
<text text-anchor="middle" x="470" y="-156.5" font-family="FreeSans" font-size="10.00" fill="#000000">min_tree::check</text>
</a>
</g>
</g>
<!-- Node6&#45;&gt;Node10 -->
<g id="edge9" class="edge">
<title>Node6&#45;&gt;Node10</title>
<path fill="none" stroke="#191970" d="M355.6688,-216.089C359.9304,-214.4247 364.0867,-212.5682 368,-210.5 386.6678,-200.6339 385.4963,-189.6705 404,-179.5 411.2397,-175.5207 419.3715,-172.2335 427.3885,-169.5545"/>
<polygon fill="#191970" stroke="#191970" points="354.4828,-212.796 346.2244,-219.4329 356.8192,-219.3946 354.4828,-212.796"/>
</g>
<!-- Node11 -->
<g id="node11" class="node">
<title>Node11</title>
<g id="a_node11"><a xlink:href="../../de/d39/classratio__cut__partition.html#a4ab180ca4cf57c811e3478c3de4c4dc3" target="_top" xlink:title="ratio_cut_partition::run">
<polygon fill="none" stroke="#000000" points="404,-101.5 404,-121.5 536,-121.5 536,-101.5 404,-101.5"/>
<text text-anchor="middle" x="470" y="-108.5" font-family="FreeSans" font-size="10.00" fill="#000000">ratio_cut_partition::run</text>
</a>
</g>
</g>
<!-- Node6&#45;&gt;Node11 -->
<g id="edge10" class="edge">
<title>Node6&#45;&gt;Node11</title>
<path fill="none" stroke="#191970" d="M362.2682,-214.5648C364.2656,-213.3164 366.1841,-211.9643 368,-210.5 395.2329,-188.5393 378.5193,-164.4716 404,-140.5 412.8423,-132.1814 424.4594,-126.0032 435.479,-121.5377"/>
<polygon fill="#191970" stroke="#191970" points="360.2992,-211.6459 353.0803,-219.4008 363.5596,-217.8402 360.2992,-211.6459"/>
</g>
<!-- Node14&#45;&gt;Node11 -->
<g id="edge14" class="edge">
<title>Node14&#45;&gt;Node11</title>
<path fill="none" stroke="#191970" d="M361.613,-108.3674C375.3818,-108.7654 389.9424,-109.1862 403.7707,-109.5859"/>
<polygon fill="#191970" stroke="#191970" points="361.3606,-104.8588 351.2636,-108.0683 361.1583,-111.8558 361.3606,-104.8588"/>
</g>
</g>
</svg>
