<?xml version="1.0" encoding="UTF-8" standalone="no"?>
<!DOCTYPE svg PUBLIC "-//W3C//DTD SVG 1.1//EN"
 "http://www.w3.org/Graphics/SVG/1.1/DTD/svg11.dtd">
<!-- Generated by graphviz version 2.40.1 (20161225.0304)
 -->
<!-- Title: rcdaq/blob/master/daq_device_pluginexample.cc Pages: 1 -->
<svg width="576pt" height="269pt"
 viewBox="0.00 0.00 575.50 269.00" xmlns="http://www.w3.org/2000/svg" xmlns:xlink="http://www.w3.org/1999/xlink">
<g id="graph0" class="graph" transform="scale(1 1) rotate(0) translate(4 265)">
<title>rcdaq/blob/master/daq_device_pluginexample.cc</title>
<!-- Node1 -->
<g id="node1" class="node">
<title>Node1</title>
<polygon fill="#bfbfbf" stroke="#000000" points="238,-228.5 238,-260.5 388,-260.5 388,-228.5 238,-228.5"/>
<text text-anchor="start" x="246" y="-247.5" font-family="FreeSans" font-size="10.00" fill="#000000">rcdaq/blob/master/daq</text>
<text text-anchor="middle" x="313" y="-235.5" font-family="FreeSans" font-size="10.00" fill="#000000">_device_pluginexample.cc</text>
</g>
<!-- Node2 -->
<g id="node2" class="node">
<title>Node2</title>
<g id="a_node2"><a xlink:href="../../d3/de7/daq__device__pluginexample_8h.html" target="_top" xlink:title="daq_device_pluginexample.h">
<polygon fill="none" stroke="#000000" points="166.5,-171.5 166.5,-191.5 329.5,-191.5 329.5,-171.5 166.5,-171.5"/>
<text text-anchor="middle" x="248" y="-178.5" font-family="FreeSans" font-size="10.00" fill="#000000">daq_device_pluginexample.h</text>
</a>
</g>
</g>
<!-- Node1&#45;&gt;Node2 -->
<g id="edge1" class="edge">
<title>Node1&#45;&gt;Node2</title>
<path fill="none" stroke="#191970" d="M296.2609,-228.2759C286.9746,-219.2754 275.4232,-208.0794 265.95,-198.8977"/>
<polygon fill="#191970" stroke="#191970" points="268.1933,-196.1978 258.5767,-191.7513 263.3215,-201.2243 268.1933,-196.1978"/>
</g>
<!-- Node12 -->
<g id="node12" class="node">
<title>Node12</title>
<polygon fill="none" stroke="#bfbfbf" points="348,-171.5 348,-191.5 408,-191.5 408,-171.5 348,-171.5"/>
<text text-anchor="middle" x="378" y="-178.5" font-family="FreeSans" font-size="10.00" fill="#000000">strings.h</text>
</g>
<!-- Node1&#45;&gt;Node12 -->
<g id="edge13" class="edge">
<title>Node1&#45;&gt;Node12</title>
<path fill="none" stroke="#191970" d="M329.7391,-228.2759C339.0254,-219.2754 350.5768,-208.0794 360.05,-198.8977"/>
<polygon fill="#191970" stroke="#191970" points="362.6785,-201.2243 367.4233,-191.7513 357.8067,-196.1978 362.6785,-201.2243"/>
</g>
<!-- Node3 -->
<g id="node3" class="node">
<title>Node3</title>
<g id="a_node3"><a xlink:href="../../d6/d8a/daq__device_8h.html" target="_top" xlink:title="daq_device.h">
<polygon fill="none" stroke="#000000" points="206.5,-114.5 206.5,-134.5 289.5,-134.5 289.5,-114.5 206.5,-114.5"/>
<text text-anchor="middle" x="248" y="-121.5" font-family="FreeSans" font-size="10.00" fill="#000000">daq_device.h</text>
</a>
</g>
</g>
<!-- Node2&#45;&gt;Node3 -->
<g id="edge2" class="edge">
<title>Node2&#45;&gt;Node3</title>
<path fill="none" stroke="#191970" d="M248,-171.3095C248,-163.9335 248,-153.72 248,-144.715"/>
<polygon fill="#191970" stroke="#191970" points="251.5001,-144.6022 248,-134.6022 244.5001,-144.6023 251.5001,-144.6022"/>
</g>
<!-- Node6 -->
<g id="node6" class="node">
<title>Node6</title>
<polygon fill="none" stroke="#bfbfbf" points="0,-57.5 0,-77.5 60,-77.5 60,-57.5 0,-57.5"/>
<text text-anchor="middle" x="30" y="-64.5" font-family="FreeSans" font-size="10.00" fill="#000000">iostream</text>
</g>
<!-- Node2&#45;&gt;Node6 -->
<g id="edge12" class="edge">
<title>Node2&#45;&gt;Node6</title>
<path fill="none" stroke="#191970" d="M228.654,-171.3833C190.0319,-151.1864 103.226,-105.7925 58.236,-82.2656"/>
<polygon fill="#191970" stroke="#191970" points="59.7861,-79.1266 49.3027,-77.5941 56.5423,-85.3296 59.7861,-79.1266"/>
</g>
<!-- Node10 -->
<g id="node10" class="node">
<title>Node10</title>
<g id="a_node10"><a xlink:href="../../d0/ddc/pulserTriggerHandler_8h.html" target="_top" xlink:title="pulserTriggerHandler.h">
<polygon fill="none" stroke="#000000" points="404.5,-114.5 404.5,-134.5 535.5,-134.5 535.5,-114.5 404.5,-114.5"/>
<text text-anchor="middle" x="470" y="-121.5" font-family="FreeSans" font-size="10.00" fill="#000000">pulserTriggerHandler.h</text>
</a>
</g>
</g>
<!-- Node2&#45;&gt;Node10 -->
<g id="edge10" class="edge">
<title>Node2&#45;&gt;Node10</title>
<path fill="none" stroke="#191970" d="M287.1781,-171.4408C324.4723,-161.8652 380.7229,-147.4225 420.9736,-137.0879"/>
<polygon fill="#191970" stroke="#191970" points="422.0254,-140.4314 430.8408,-134.5544 420.2845,-133.6513 422.0254,-140.4314"/>
</g>
<!-- Node4 -->
<g id="node4" class="node">
<title>Node4</title>
<g id="a_node4"><a xlink:href="../../d7/d83/SubevtStructures_8h.html" target="_top" xlink:title="SubevtStructures.h">
<polygon fill="none" stroke="#000000" points="78.5,-57.5 78.5,-77.5 191.5,-77.5 191.5,-57.5 78.5,-57.5"/>
<text text-anchor="middle" x="135" y="-64.5" font-family="FreeSans" font-size="10.00" fill="#000000">SubevtStructures.h</text>
</a>
</g>
</g>
<!-- Node3&#45;&gt;Node4 -->
<g id="edge3" class="edge">
<title>Node3&#45;&gt;Node4</title>
<path fill="none" stroke="#191970" d="M228.058,-114.4408C210.3361,-105.5014 184.2049,-92.3202 164.1412,-82.1996"/>
<polygon fill="#191970" stroke="#191970" points="165.6275,-79.0292 155.1228,-77.6504 162.4749,-85.2791 165.6275,-79.0292"/>
</g>
<!-- Node5 -->
<g id="node5" class="node">
<title>Node5</title>
<g id="a_node5"><a xlink:href="../../d4/d19/SubevtConstants_8h.html" target="_top" xlink:title="SubevtConstants.h">
<polygon fill="none" stroke="#000000" points="121.5,-.5 121.5,-20.5 232.5,-20.5 232.5,-.5 121.5,-.5"/>
<text text-anchor="middle" x="177" y="-7.5" font-family="FreeSans" font-size="10.00" fill="#000000">SubevtConstants.h</text>
</a>
</g>
</g>
<!-- Node3&#45;&gt;Node5 -->
<g id="edge5" class="edge">
<title>Node3&#45;&gt;Node5</title>
<path fill="none" stroke="#191970" d="M241.6992,-114.3833C229.8346,-95.3331 204.0085,-53.8658 188.8182,-29.4757"/>
<polygon fill="#191970" stroke="#191970" points="191.6463,-27.396 183.3887,-20.7579 185.7044,-31.0966 191.6463,-27.396"/>
</g>
<!-- Node3&#45;&gt;Node6 -->
<g id="edge6" class="edge">
<title>Node3&#45;&gt;Node6</title>
<path fill="none" stroke="#191970" d="M208.8653,-114.4398C174.7098,-105.6359 123.5473,-92.3916 70.208,-78.3053"/>
<polygon fill="#191970" stroke="#191970" points="70.7891,-74.8388 60.2266,-75.6662 68.9997,-81.6062 70.7891,-74.8388"/>
</g>
<!-- Node7 -->
<g id="node7" class="node">
<title>Node7</title>
<polygon fill="none" stroke="#bfbfbf" points="248.5,-57.5 248.5,-77.5 305.5,-77.5 305.5,-57.5 248.5,-57.5"/>
<text text-anchor="middle" x="277" y="-64.5" font-family="FreeSans" font-size="10.00" fill="#000000">iomanip</text>
</g>
<!-- Node3&#45;&gt;Node7 -->
<g id="edge7" class="edge">
<title>Node3&#45;&gt;Node7</title>
<path fill="none" stroke="#191970" d="M253.1846,-114.3095C257.1023,-106.6093 262.5933,-95.8166 267.3156,-86.5349"/>
<polygon fill="#191970" stroke="#191970" points="270.4451,-88.1021 271.8603,-77.6022 264.2062,-84.9279 270.4451,-88.1021"/>
</g>
<!-- Node8 -->
<g id="node8" class="node">
<title>Node8</title>
<polygon fill="none" stroke="#bfbfbf" points="324,-57.5 324,-77.5 374,-77.5 374,-57.5 324,-57.5"/>
<text text-anchor="middle" x="349" y="-64.5" font-family="FreeSans" font-size="10.00" fill="#000000">stdio.h</text>
</g>
<!-- Node3&#45;&gt;Node8 -->
<g id="edge8" class="edge">
<title>Node3&#45;&gt;Node8</title>
<path fill="none" stroke="#191970" d="M266.0568,-114.3095C281.7119,-105.4745 304.5805,-92.5684 322.3421,-82.5445"/>
<polygon fill="#191970" stroke="#191970" points="324.1109,-85.5653 331.0996,-77.6022 320.6705,-79.4691 324.1109,-85.5653"/>
</g>
<!-- Node9 -->
<g id="node9" class="node">
<title>Node9</title>
<g id="a_node9"><a xlink:href="../../d5/d14/TriggerHandler_8h.html" target="_top" xlink:title="TriggerHandler.h">
<polygon fill="none" stroke="#000000" points="392,-57.5 392,-77.5 492,-77.5 492,-57.5 392,-57.5"/>
<text text-anchor="middle" x="442" y="-64.5" font-family="FreeSans" font-size="10.00" fill="#000000">TriggerHandler.h</text>
</a>
</g>
</g>
<!-- Node3&#45;&gt;Node9 -->
<g id="edge9" class="edge">
<title>Node3&#45;&gt;Node9</title>
<path fill="none" stroke="#191970" d="M282.2367,-114.4408C314.4129,-104.9869 362.736,-90.7889 397.809,-80.484"/>
<polygon fill="#191970" stroke="#191970" points="399.172,-83.7315 407.7798,-77.5544 397.1987,-77.0154 399.172,-83.7315"/>
</g>
<!-- Node4&#45;&gt;Node5 -->
<g id="edge4" class="edge">
<title>Node4&#45;&gt;Node5</title>
<path fill="none" stroke="#191970" d="M142.5088,-57.3095C148.3618,-49.3661 156.6397,-38.1319 163.6188,-28.6602"/>
<polygon fill="#191970" stroke="#191970" points="166.4419,-30.729 169.5562,-20.6022 160.8065,-26.5766 166.4419,-30.729"/>
</g>
<!-- Node11 -->
<g id="node11" class="node">
<title>Node11</title>
<polygon fill="none" stroke="#bfbfbf" points="510.5,-57.5 510.5,-77.5 567.5,-77.5 567.5,-57.5 510.5,-57.5"/>
<text text-anchor="middle" x="539" y="-64.5" font-family="FreeSans" font-size="10.00" fill="#000000">unistd.h</text>
</g>
<!-- Node10&#45;&gt;Node11 -->
<g id="edge11" class="edge">
<title>Node10&#45;&gt;Node11</title>
<path fill="none" stroke="#191970" d="M482.3358,-114.3095C492.4422,-105.9608 506.949,-93.9769 518.7541,-84.2249"/>
<polygon fill="#191970" stroke="#191970" points="521.2904,-86.6695 526.771,-77.6022 516.8322,-81.2727 521.2904,-86.6695"/>
</g>
</g>
</svg>
