<?xml version="1.0" encoding="UTF-8" standalone="no"?>
<!DOCTYPE svg PUBLIC "-//W3C//DTD SVG 1.1//EN"
 "http://www.w3.org/Graphics/SVG/1.1/DTD/svg11.dtd">
<!-- Generated by graphviz version 2.40.1 (20161225.0304)
 -->
<!-- Title: PHG4DetectorSubsystem::ReadParamsFromCDB Pages: 1 -->
<svg width="2003pt" height="709pt"
 viewBox="0.00 0.00 2003.00 709.00" xmlns="http://www.w3.org/2000/svg" xmlns:xlink="http://www.w3.org/1999/xlink">
<g id="graph0" class="graph" transform="scale(1 1) rotate(0) translate(4 705)">
<title>PHG4DetectorSubsystem::ReadParamsFromCDB</title>
<!-- Node1 -->
<g id="node1" class="node">
<title>Node1</title>
<polygon fill="#bfbfbf" stroke="#000000" points="0,-264.5 0,-296.5 144,-296.5 144,-264.5 0,-264.5"/>
<text text-anchor="start" x="8" y="-283.5" font-family="FreeSans" font-size="10.00" fill="#000000">PHG4DetectorSubsystem</text>
<text text-anchor="middle" x="72" y="-271.5" font-family="FreeSans" font-size="10.00" fill="#000000">::ReadParamsFromCDB</text>
</g>
<!-- Node2 -->
<g id="node2" class="node">
<title>Node2</title>
<g id="a_node2"><a xlink:href="../../dd/dae/classPHParameters.html#a8bd392c0d324fd6ddace7e7fc7b47b3e" target="_top" xlink:title="PHParameters::ReadFromCDB">
<polygon fill="none" stroke="#000000" points="180,-270.5 180,-290.5 346,-290.5 346,-270.5 180,-270.5"/>
<text text-anchor="middle" x="263" y="-277.5" font-family="FreeSans" font-size="10.00" fill="#000000">PHParameters::ReadFromCDB</text>
</a>
</g>
</g>
<!-- Node1&#45;&gt;Node2 -->
<g id="edge1" class="edge">
<title>Node1&#45;&gt;Node2</title>
<path fill="none" stroke="#191970" d="M144.2089,-280.5C152.5611,-280.5 161.1664,-280.5 169.7475,-280.5"/>
<polygon fill="#191970" stroke="#191970" points="169.7933,-284.0001 179.7933,-280.5 169.7932,-277.0001 169.7933,-284.0001"/>
</g>
<!-- Node3 -->
<g id="node3" class="node">
<title>Node3</title>
<g id="a_node3"><a xlink:href="../../d5/d4b/classCDBInterface.html#ac1458cd6adb1e2944371c40a90dc9dfe" target="_top" xlink:title="CDBInterface::instance">
<polygon fill="none" stroke="#000000" points="382.5,-387.5 382.5,-407.5 514.5,-407.5 514.5,-387.5 382.5,-387.5"/>
<text text-anchor="middle" x="448.5" y="-394.5" font-family="FreeSans" font-size="10.00" fill="#000000">CDBInterface::instance</text>
</a>
</g>
</g>
<!-- Node2&#45;&gt;Node3 -->
<g id="edge2" class="edge">
<title>Node2&#45;&gt;Node3</title>
<path fill="none" stroke="#191970" d="M279.1374,-290.6783C311.6976,-311.2149 385.4297,-357.7198 423.9785,-382.0336"/>
<polygon fill="#191970" stroke="#191970" points="422.2066,-385.0541 432.532,-387.4285 425.941,-379.1334 422.2066,-385.0541"/>
</g>
<!-- Node26 -->
<g id="node26" class="node">
<title>Node26</title>
<g id="a_node26"><a xlink:href="../../d5/d4b/classCDBInterface.html#a43822e59a3876434355e4cd55eba6b23" target="_top" xlink:title="CDBInterface::getUrl">
<polygon fill="none" stroke="#000000" points="388.5,-270.5 388.5,-290.5 508.5,-290.5 508.5,-270.5 388.5,-270.5"/>
<text text-anchor="middle" x="448.5" y="-277.5" font-family="FreeSans" font-size="10.00" fill="#000000">CDBInterface::getUrl</text>
</a>
</g>
</g>
<!-- Node2&#45;&gt;Node26 -->
<g id="edge27" class="edge">
<title>Node2&#45;&gt;Node26</title>
<path fill="none" stroke="#191970" d="M346.2543,-280.5C356.8731,-280.5 367.6597,-280.5 378.0494,-280.5"/>
<polygon fill="#191970" stroke="#191970" points="378.286,-284.0001 388.286,-280.5 378.2859,-277.0001 378.286,-284.0001"/>
</g>
<!-- Node43 -->
<g id="node43" class="node">
<title>Node43</title>
<g id="a_node43"><a xlink:href="../../dd/dae/classPHParameters.html#a60173f5ff12c567632583ea619a7d2fb" target="_top" xlink:title="PHParameters::FillFrom">
<polygon fill="none" stroke="#000000" points="382,-83.5 382,-103.5 515,-103.5 515,-83.5 382,-83.5"/>
<text text-anchor="middle" x="448.5" y="-90.5" font-family="FreeSans" font-size="10.00" fill="#000000">PHParameters::FillFrom</text>
</a>
</g>
</g>
<!-- Node2&#45;&gt;Node43 -->
<g id="edge47" class="edge">
<title>Node2&#45;&gt;Node43</title>
<path fill="none" stroke="#191970" d="M272.9733,-270.4461C303.0433,-240.1329 393.0856,-149.3625 431.1777,-110.9623"/>
<polygon fill="#191970" stroke="#191970" points="433.9197,-113.1681 438.4774,-103.6036 428.95,-108.2383 433.9197,-113.1681"/>
</g>
<!-- Node4 -->
<g id="node4" class="node">
<title>Node4</title>
<g id="a_node4"><a xlink:href="../../d5/d4b/classCDBInterface.html#a0a9c97fd3e4b52cc2148eeab58f7d1de" target="_top" xlink:title="CDBInterface::CDBInterface">
<polygon fill="none" stroke="#000000" points="555,-494.5 555,-514.5 711,-514.5 711,-494.5 555,-494.5"/>
<text text-anchor="middle" x="633" y="-501.5" font-family="FreeSans" font-size="10.00" fill="#000000">CDBInterface::CDBInterface</text>
</a>
</g>
</g>
<!-- Node3&#45;&gt;Node4 -->
<g id="edge3" class="edge">
<title>Node3&#45;&gt;Node4</title>
<path fill="none" stroke="#191970" d="M465.8573,-407.5663C498.2743,-426.3664 568.196,-466.9172 606.5309,-489.1493"/>
<polygon fill="#191970" stroke="#191970" points="605.148,-492.3933 615.5544,-494.3825 608.6598,-486.3379 605.148,-492.3933"/>
</g>
<!-- Node5 -->
<g id="node5" class="node">
<title>Node5</title>
<g id="a_node5"><a xlink:href="../../da/d29/classFun4AllServer.html#a831774a33d8bdf10edda529215af7b2b" target="_top" xlink:title="Fun4AllServer::addNewSubsystem">
<polygon fill="none" stroke="#000000" points="751,-533.5 751,-553.5 941,-553.5 941,-533.5 751,-533.5"/>
<text text-anchor="middle" x="846" y="-540.5" font-family="FreeSans" font-size="10.00" fill="#000000">Fun4AllServer::addNewSubsystem</text>
</a>
</g>
</g>
<!-- Node4&#45;&gt;Node5 -->
<g id="edge4" class="edge">
<title>Node4&#45;&gt;Node5</title>
<path fill="none" stroke="#191970" d="M687.8528,-514.5435C716.4246,-519.7749 751.5402,-526.2046 781.4183,-531.6752"/>
<polygon fill="#191970" stroke="#191970" points="780.8662,-535.1322 791.3331,-533.4906 782.127,-528.2467 780.8662,-535.1322"/>
</g>
<!-- Node6 -->
<g id="node6" class="node">
<title>Node6</title>
<g id="a_node6"><a xlink:href="../../da/d29/classFun4AllServer.html#a3e55156f91b2c94bb6c4ef33ffce587a" target="_top" xlink:title="Fun4AllServer::instance">
<polygon fill="none" stroke="#000000" points="778,-494.5 778,-514.5 914,-514.5 914,-494.5 778,-494.5"/>
<text text-anchor="middle" x="846" y="-501.5" font-family="FreeSans" font-size="10.00" fill="#000000">Fun4AllServer::instance</text>
</a>
</g>
</g>
<!-- Node4&#45;&gt;Node6 -->
<g id="edge5" class="edge">
<title>Node4&#45;&gt;Node6</title>
<path fill="none" stroke="#191970" d="M711.1039,-504.5C729.5368,-504.5 749.1941,-504.5 767.6384,-504.5"/>
<polygon fill="#191970" stroke="#191970" points="767.7449,-508.0001 777.7449,-504.5 767.7449,-501.0001 767.7449,-508.0001"/>
</g>
<!-- Node7 -->
<g id="node7" class="node">
<title>Node7</title>
<g id="a_node7"><a xlink:href="../../da/d29/classFun4AllServer.html#a90e27f05f0b2e8b6fe462387b14bfb92" target="_top" xlink:title="Fun4AllServer::Fun4AllServer">
<polygon fill="none" stroke="#000000" points="981,-518.5 981,-538.5 1145,-538.5 1145,-518.5 981,-518.5"/>
<text text-anchor="middle" x="1063" y="-525.5" font-family="FreeSans" font-size="10.00" fill="#000000">Fun4AllServer::Fun4AllServer</text>
</a>
</g>
</g>
<!-- Node6&#45;&gt;Node7 -->
<g id="edge6" class="edge">
<title>Node6&#45;&gt;Node7</title>
<path fill="none" stroke="#191970" d="M914.0648,-512.0279C931.9759,-514.0089 951.6025,-516.1795 970.5602,-518.2762"/>
<polygon fill="#191970" stroke="#191970" points="970.3788,-521.7774 980.703,-519.398 971.1484,-514.8199 970.3788,-521.7774"/>
</g>
<!-- Node8 -->
<g id="node8" class="node">
<title>Node8</title>
<g id="a_node8"><a xlink:href="../../da/d29/classFun4AllServer.html#aa1939c3e2c3113cce0a6415103b4f5a5" target="_top" xlink:title="Fun4AllServer::InitAll">
<polygon fill="none" stroke="#000000" points="1185,-542.5 1185,-562.5 1307,-562.5 1307,-542.5 1185,-542.5"/>
<text text-anchor="middle" x="1246" y="-549.5" font-family="FreeSans" font-size="10.00" fill="#000000">Fun4AllServer::InitAll</text>
</a>
</g>
</g>
<!-- Node7&#45;&gt;Node8 -->
<g id="edge7" class="edge">
<title>Node7&#45;&gt;Node8</title>
<path fill="none" stroke="#191970" d="M1139.2833,-538.5044C1151.0405,-540.0463 1163.1426,-541.6335 1174.7835,-543.1601"/>
<polygon fill="#191970" stroke="#191970" points="1174.5041,-546.6534 1184.8743,-544.4835 1175.4144,-539.7128 1174.5041,-546.6534"/>
</g>
<!-- Node9 -->
<g id="node9" class="node">
<title>Node9</title>
<g id="a_node9"><a xlink:href="../../da/d29/classFun4AllServer.html#a2ebfcdcf706670c98c189bfa93c3ff89" target="_top" xlink:title="Fun4AllServer::InitNodeTree">
<polygon fill="none" stroke="#000000" points="1343.5,-446.5 1343.5,-466.5 1500.5,-466.5 1500.5,-446.5 1343.5,-446.5"/>
<text text-anchor="middle" x="1422" y="-453.5" font-family="FreeSans" font-size="10.00" fill="#000000">Fun4AllServer::InitNodeTree</text>
</a>
</g>
</g>
<!-- Node8&#45;&gt;Node9 -->
<g id="edge8" class="edge">
<title>Node8&#45;&gt;Node9</title>
<path fill="none" stroke="#191970" d="M1255.7276,-542.307C1272.1343,-525.7295 1307.0501,-493.0208 1343,-475.5 1347.3669,-473.3717 1351.9884,-471.4722 1356.7172,-469.7785"/>
<polygon fill="#191970" stroke="#191970" points="1358.1024,-473.0083 1366.5268,-466.5834 1355.9344,-466.3525 1358.1024,-473.0083"/>
</g>
<!-- Node14 -->
<g id="node14" class="node">
<title>Node14</title>
<g id="a_node14"><a xlink:href="../../d5/d4f/classFun4AllMonitoring.html#a4d2dc73220d8300c356f258b8c6283a8" target="_top" xlink:title="Fun4AllMonitoring::\linstance">
<polygon fill="none" stroke="#000000" points="1365,-485.5 1365,-517.5 1479,-517.5 1479,-485.5 1365,-485.5"/>
<text text-anchor="start" x="1373" y="-504.5" font-family="FreeSans" font-size="10.00" fill="#000000">Fun4AllMonitoring::</text>
<text text-anchor="middle" x="1422" y="-492.5" font-family="FreeSans" font-size="10.00" fill="#000000">instance</text>
</a>
</g>
</g>
<!-- Node8&#45;&gt;Node14 -->
<g id="edge13" class="edge">
<title>Node8&#45;&gt;Node14</title>
<path fill="none" stroke="#191970" d="M1280.7719,-542.424C1302.4467,-536.1433 1331.0222,-527.8629 1356.7958,-520.3944"/>
<polygon fill="#191970" stroke="#191970" points="1357.8856,-523.7227 1366.5163,-517.5777 1355.9373,-516.9992 1357.8856,-523.7227"/>
</g>
<!-- Node16 -->
<g id="node16" class="node">
<title>Node16</title>
<g id="a_node16"><a xlink:href="../../d5/dec/classFun4AllBase.html#a41f9ac377743d046f590617fd6f4f0ed" target="_top" xlink:title="Returns the name of this module.">
<polygon fill="none" stroke="#000000" points="1560.5,-578.5 1560.5,-598.5 1675.5,-598.5 1675.5,-578.5 1560.5,-578.5"/>
<text text-anchor="middle" x="1618" y="-585.5" font-family="FreeSans" font-size="10.00" fill="#000000">Fun4AllBase::Name</text>
</a>
</g>
</g>
<!-- Node8&#45;&gt;Node16 -->
<g id="edge15" class="edge">
<title>Node8&#45;&gt;Node16</title>
<path fill="none" stroke="#191970" d="M1277.9829,-562.5694C1296.7272,-568.0091 1320.9772,-574.2591 1343,-577.5 1413.0911,-587.8146 1494.241,-589.871 1550.1271,-589.7753"/>
<polygon fill="#191970" stroke="#191970" points="1550.2743,-593.2748 1560.2599,-589.7339 1550.2457,-586.2749 1550.2743,-593.2748"/>
</g>
<!-- Node17 -->
<g id="node17" class="node">
<title>Node17</title>
<g id="a_node17"><a xlink:href="../../da/d29/classFun4AllServer.html#a1d7daeb59511a7dc61a2566f4116a6ec" target="_top" xlink:title="Fun4AllServer::registerHisto">
<polygon fill="none" stroke="#000000" points="1343,-626.5 1343,-646.5 1501,-646.5 1501,-626.5 1343,-626.5"/>
<text text-anchor="middle" x="1422" y="-633.5" font-family="FreeSans" font-size="10.00" fill="#000000">Fun4AllServer::registerHisto</text>
</a>
</g>
</g>
<!-- Node8&#45;&gt;Node17 -->
<g id="edge16" class="edge">
<title>Node8&#45;&gt;Node17</title>
<path fill="none" stroke="#191970" d="M1260.1873,-562.636C1278.571,-575.4092 1311.9546,-597.3943 1343,-611.5 1352.8259,-615.9645 1363.6775,-619.9594 1374.1098,-623.3764"/>
<polygon fill="#191970" stroke="#191970" points="1373.3465,-626.8055 1383.9361,-626.472 1375.4499,-620.129 1373.3465,-626.8055"/>
</g>
<!-- Node21 -->
<g id="node21" class="node">
<title>Node21</title>
<g id="a_node21"><a xlink:href="../../da/d29/classFun4AllServer.html#a377f113767f24ce6413e678752ed7f53" target="_top" xlink:title="Fun4AllServer::registerHisto\lManager">
<polygon fill="none" stroke="#000000" points="1343,-536.5 1343,-568.5 1501,-568.5 1501,-536.5 1343,-536.5"/>
<text text-anchor="start" x="1351" y="-555.5" font-family="FreeSans" font-size="10.00" fill="#000000">Fun4AllServer::registerHisto</text>
<text text-anchor="middle" x="1422" y="-543.5" font-family="FreeSans" font-size="10.00" fill="#000000">Manager</text>
</a>
</g>
</g>
<!-- Node8&#45;&gt;Node21 -->
<g id="edge20" class="edge">
<title>Node8&#45;&gt;Node21</title>
<path fill="none" stroke="#191970" d="M1307.0623,-552.5C1315.3401,-552.5 1323.9697,-552.5 1332.6172,-552.5"/>
<polygon fill="#191970" stroke="#191970" points="1332.7568,-556.0001 1342.7568,-552.5 1332.7567,-549.0001 1332.7568,-556.0001"/>
</g>
<!-- Node22 -->
<g id="node22" class="node">
<title>Node22</title>
<g id="a_node22"><a xlink:href="../../d5/d4f/classFun4AllMonitoring.html#aeea0018148441caf4a9a1b5cc448ecfb" target="_top" xlink:title="Fun4AllMonitoring::\lSnapshot">
<polygon fill="none" stroke="#000000" points="1365,-665.5 1365,-697.5 1479,-697.5 1479,-665.5 1365,-665.5"/>
<text text-anchor="start" x="1373" y="-684.5" font-family="FreeSans" font-size="10.00" fill="#000000">Fun4AllMonitoring::</text>
<text text-anchor="middle" x="1422" y="-672.5" font-family="FreeSans" font-size="10.00" fill="#000000">Snapshot</text>
</a>
</g>
</g>
<!-- Node8&#45;&gt;Node22 -->
<g id="edge23" class="edge">
<title>Node8&#45;&gt;Node22</title>
<path fill="none" stroke="#191970" d="M1252.7449,-562.702C1266.9617,-583.4234 1302.0855,-630.6575 1343,-656.5 1346.8673,-658.9427 1350.9928,-661.1643 1355.2524,-663.182"/>
<polygon fill="#191970" stroke="#191970" points="1354.1759,-666.5295 1364.7441,-667.2802 1356.9507,-660.1029 1354.1759,-666.5295"/>
</g>
<!-- Node10 -->
<g id="node10" class="node">
<title>Node10</title>
<g id="a_node10"><a xlink:href="../../d5/dca/classPHCompositeNode.html#a15a0c4804399a9de4267647f05bd1ba4" target="_top" xlink:title="PHCompositeNode::addNode">
<polygon fill="none" stroke="#000000" points="1537,-368.5 1537,-388.5 1699,-388.5 1699,-368.5 1537,-368.5"/>
<text text-anchor="middle" x="1618" y="-375.5" font-family="FreeSans" font-size="10.00" fill="#000000">PHCompositeNode::addNode</text>
</a>
</g>
</g>
<!-- Node9&#45;&gt;Node10 -->
<g id="edge9" class="edge">
<title>Node9&#45;&gt;Node10</title>
<path fill="none" stroke="#191970" d="M1447.2223,-446.4625C1481.8213,-432.6935 1544.1468,-407.8906 1583.1747,-392.3591"/>
<polygon fill="#191970" stroke="#191970" points="1584.5669,-395.572 1592.564,-388.6225 1581.9786,-389.0681 1584.5669,-395.572"/>
</g>
<!-- Node11 -->
<g id="node11" class="node">
<title>Node11</title>
<g id="a_node11"><a xlink:href="../../d6/d86/classPHPointerList.html#ac2176735e9d046a034f1686fd2c477eb" target="_top" xlink:title="PHPointerList::append">
<polygon fill="none" stroke="#000000" points="1737,-407.5 1737,-427.5 1865,-427.5 1865,-407.5 1737,-407.5"/>
<text text-anchor="middle" x="1801" y="-414.5" font-family="FreeSans" font-size="10.00" fill="#000000">PHPointerList::append</text>
</a>
</g>
</g>
<!-- Node10&#45;&gt;Node11 -->
<g id="edge10" class="edge">
<title>Node10&#45;&gt;Node11</title>
<path fill="none" stroke="#191970" d="M1665.127,-388.5435C1689.2478,-393.684 1718.7967,-399.9813 1744.171,-405.3889"/>
<polygon fill="#191970" stroke="#191970" points="1743.5227,-408.8293 1754.0327,-407.4906 1744.9818,-401.983 1743.5227,-408.8293"/>
</g>
<!-- Node12 -->
<g id="node12" class="node">
<title>Node12</title>
<g id="a_node12"><a xlink:href="../../dc/d82/classPHNode.html#aca3576f926a4401eddc3d88bf0ce0de3" target="_top" xlink:title="PHNode::getName">
<polygon fill="none" stroke="#000000" points="1746.5,-368.5 1746.5,-388.5 1855.5,-388.5 1855.5,-368.5 1746.5,-368.5"/>
<text text-anchor="middle" x="1801" y="-375.5" font-family="FreeSans" font-size="10.00" fill="#000000">PHNode::getName</text>
</a>
</g>
</g>
<!-- Node10&#45;&gt;Node12 -->
<g id="edge11" class="edge">
<title>Node10&#45;&gt;Node12</title>
<path fill="none" stroke="#191970" d="M1699.0656,-378.5C1711.4142,-378.5 1724.0197,-378.5 1735.9665,-378.5"/>
<polygon fill="#191970" stroke="#191970" points="1736.2727,-382.0001 1746.2726,-378.5 1736.2726,-375.0001 1736.2727,-382.0001"/>
</g>
<!-- Node13 -->
<g id="node13" class="node">
<title>Node13</title>
<g id="a_node13"><a xlink:href="../../dc/d82/classPHNode.html#adda2bd6cef2d5067bbe3016a990b7198" target="_top" xlink:title="PHNode::setParent">
<polygon fill="none" stroke="#000000" points="1745.5,-329.5 1745.5,-349.5 1856.5,-349.5 1856.5,-329.5 1745.5,-329.5"/>
<text text-anchor="middle" x="1801" y="-336.5" font-family="FreeSans" font-size="10.00" fill="#000000">PHNode::setParent</text>
</a>
</g>
</g>
<!-- Node10&#45;&gt;Node13 -->
<g id="edge12" class="edge">
<title>Node10&#45;&gt;Node13</title>
<path fill="none" stroke="#191970" d="M1665.127,-368.4565C1689.2478,-363.316 1718.7967,-357.0187 1744.171,-351.6111"/>
<polygon fill="#191970" stroke="#191970" points="1744.9818,-355.017 1754.0327,-349.5094 1743.5227,-348.1707 1744.9818,-355.017"/>
</g>
<!-- Node15 -->
<g id="node15" class="node">
<title>Node15</title>
<g id="a_node15"><a xlink:href="../../d5/d4f/classFun4AllMonitoring.html#aaf0fd3c11a5727613f4a81e113eb8675" target="_top" xlink:title="Fun4AllMonitoring::\lFun4AllMonitoring">
<polygon fill="none" stroke="#000000" points="1561,-485.5 1561,-517.5 1675,-517.5 1675,-485.5 1561,-485.5"/>
<text text-anchor="start" x="1569" y="-504.5" font-family="FreeSans" font-size="10.00" fill="#000000">Fun4AllMonitoring::</text>
<text text-anchor="middle" x="1618" y="-492.5" font-family="FreeSans" font-size="10.00" fill="#000000">Fun4AllMonitoring</text>
</a>
</g>
</g>
<!-- Node14&#45;&gt;Node15 -->
<g id="edge14" class="edge">
<title>Node14&#45;&gt;Node15</title>
<path fill="none" stroke="#191970" d="M1479.2182,-501.5C1501.5611,-501.5 1527.3462,-501.5 1550.5821,-501.5"/>
<polygon fill="#191970" stroke="#191970" points="1550.7107,-505.0001 1560.7107,-501.5 1550.7107,-498.0001 1550.7107,-505.0001"/>
</g>
<!-- Node18 -->
<g id="node18" class="node">
<title>Node18</title>
<g id="a_node18"><a xlink:href="../../d3/d96/classFun4AllHistoManager.html#a7e1354855437fa28bb0d29dc0581d0a6" target="_top" xlink:title="Fun4AllHistoManager\l::registerHisto">
<polygon fill="none" stroke="#000000" points="1556,-617.5 1556,-649.5 1680,-649.5 1680,-617.5 1556,-617.5"/>
<text text-anchor="start" x="1564" y="-636.5" font-family="FreeSans" font-size="10.00" fill="#000000">Fun4AllHistoManager</text>
<text text-anchor="middle" x="1618" y="-624.5" font-family="FreeSans" font-size="10.00" fill="#000000">::registerHisto</text>
</a>
</g>
</g>
<!-- Node17&#45;&gt;Node18 -->
<g id="edge17" class="edge">
<title>Node17&#45;&gt;Node18</title>
<path fill="none" stroke="#191970" d="M1501.1557,-635.2884C1515.7752,-635.0647 1530.976,-634.832 1545.3898,-634.6114"/>
<polygon fill="#191970" stroke="#191970" points="1545.7814,-638.1059 1555.7266,-634.4532 1545.6742,-631.1067 1545.7814,-638.1059"/>
</g>
<!-- Node19 -->
<g id="node19" class="node">
<title>Node19</title>
<g id="a_node19"><a xlink:href="../../dc/df6/200pp__pythia8__CTEQ6L__7GeV__ALL_8cfg__eneg__DSTReader_8root__Draw__HFJetTruth__CrossSection2RAA_8C.html#abf6f7b5ad3b256b0f81411de1474963c" target="_top" xlink:title="SetDirectory">
<polygon fill="none" stroke="#000000" points="1761.5,-623.5 1761.5,-643.5 1840.5,-643.5 1840.5,-623.5 1761.5,-623.5"/>
<text text-anchor="middle" x="1801" y="-630.5" font-family="FreeSans" font-size="10.00" fill="#000000">SetDirectory</text>
</a>
</g>
</g>
<!-- Node18&#45;&gt;Node19 -->
<g id="edge18" class="edge">
<title>Node18&#45;&gt;Node19</title>
<path fill="none" stroke="#191970" d="M1680.2108,-633.5C1703.3786,-633.5 1729.3469,-633.5 1751.2515,-633.5"/>
<polygon fill="#191970" stroke="#191970" points="1751.3257,-637.0001 1761.3256,-633.5 1751.3256,-630.0001 1751.3257,-637.0001"/>
</g>
<!-- Node20 -->
<g id="node20" class="node">
<title>Node20</title>
<g id="a_node20"><a xlink:href="../../d5/dec/classFun4AllBase.html#a8a5c77a92bdac6bc043476e132379a40" target="_top" xlink:title="Gets the verbosity of this module.">
<polygon fill="none" stroke="#000000" points="1735,-539.5 1735,-559.5 1867,-559.5 1867,-539.5 1735,-539.5"/>
<text text-anchor="middle" x="1801" y="-546.5" font-family="FreeSans" font-size="10.00" fill="#000000">Fun4AllBase::Verbosity</text>
</a>
</g>
</g>
<!-- Node18&#45;&gt;Node20 -->
<g id="edge19" class="edge">
<title>Node18&#45;&gt;Node20</title>
<path fill="none" stroke="#191970" d="M1673.4693,-617.3813C1682.1267,-614.3845 1690.8865,-611.0633 1699,-607.5 1726.82,-595.2822 1756.8479,-577.6122 1777.0668,-564.991"/>
<polygon fill="#191970" stroke="#191970" points="1779.0385,-567.8854 1785.6231,-559.5851 1775.2996,-561.9675 1779.0385,-567.8854"/>
</g>
<!-- Node21&#45;&gt;Node16 -->
<g id="edge21" class="edge">
<title>Node21&#45;&gt;Node16</title>
<path fill="none" stroke="#191970" d="M1501.1557,-567.0388C1518.4885,-570.2224 1536.6386,-573.5561 1553.3254,-576.621"/>
<polygon fill="#191970" stroke="#191970" points="1553.038,-580.1267 1563.5058,-578.4909 1554.3026,-573.2419 1553.038,-580.1267"/>
</g>
<!-- Node21&#45;&gt;Node20 -->
<g id="edge22" class="edge">
<title>Node21&#45;&gt;Node20</title>
<path fill="none" stroke="#191970" d="M1501.4508,-551.8711C1567.1769,-551.3508 1659.9324,-550.6166 1724.758,-550.1035"/>
<polygon fill="#191970" stroke="#191970" points="1724.9419,-553.6023 1734.9138,-550.0231 1724.8864,-546.6025 1724.9419,-553.6023"/>
</g>
<!-- Node23 -->
<g id="node23" class="node">
<title>Node23</title>
<g id="a_node23"><a xlink:href="../../d5/d4f/classFun4AllMonitoring.html#a4a815a60428fa831a2b25d7ff4e48281" target="_top" xlink:title="Fun4AllMonitoring::\lGet_Memory">
<polygon fill="none" stroke="#000000" points="1561,-668.5 1561,-700.5 1675,-700.5 1675,-668.5 1561,-668.5"/>
<text text-anchor="start" x="1569" y="-687.5" font-family="FreeSans" font-size="10.00" fill="#000000">Fun4AllMonitoring::</text>
<text text-anchor="middle" x="1618" y="-675.5" font-family="FreeSans" font-size="10.00" fill="#000000">Get_Memory</text>
</a>
</g>
</g>
<!-- Node22&#45;&gt;Node23 -->
<g id="edge24" class="edge">
<title>Node22&#45;&gt;Node23</title>
<path fill="none" stroke="#191970" d="M1479.2182,-682.3758C1501.5611,-682.7178 1527.3462,-683.1124 1550.5821,-683.4681"/>
<polygon fill="#191970" stroke="#191970" points="1550.6583,-686.9696 1560.7107,-683.6231 1550.7655,-679.9704 1550.6583,-686.9696"/>
</g>
<!-- Node24 -->
<g id="node24" class="node">
<title>Node24</title>
<g id="a_node24"><a xlink:href="../../d9/dda/arsenal_8cpp.html#aa7cb820696f8a66d03330e091482020c" target="_top" xlink:title="trim">
<polygon fill="none" stroke="#000000" points="1782.5,-674.5 1782.5,-694.5 1819.5,-694.5 1819.5,-674.5 1782.5,-674.5"/>
<text text-anchor="middle" x="1801" y="-681.5" font-family="FreeSans" font-size="10.00" fill="#000000">trim</text>
</a>
</g>
</g>
<!-- Node23&#45;&gt;Node24 -->
<g id="edge25" class="edge">
<title>Node23&#45;&gt;Node24</title>
<path fill="none" stroke="#191970" d="M1675.1496,-684.5C1707.2665,-684.5 1745.9887,-684.5 1771.9236,-684.5"/>
<polygon fill="#191970" stroke="#191970" points="1772.1992,-688.0001 1782.1992,-684.5 1772.1991,-681.0001 1772.1992,-688.0001"/>
</g>
<!-- Node25 -->
<g id="node25" class="node">
<title>Node25</title>
<g id="a_node25"><a xlink:href="../../dd/d7e/namespaceActs_1_1Test.html#a88f0887efddd644c8defc1e91456c3c9" target="_top" xlink:title="Acts::Test::tmp">
<polygon fill="none" stroke="#000000" points="1903,-674.5 1903,-694.5 1995,-694.5 1995,-674.5 1903,-674.5"/>
<text text-anchor="middle" x="1949" y="-681.5" font-family="FreeSans" font-size="10.00" fill="#000000">Acts::Test::tmp</text>
</a>
</g>
</g>
<!-- Node24&#45;&gt;Node25 -->
<g id="edge26" class="edge">
<title>Node24&#45;&gt;Node25</title>
<path fill="none" stroke="#191970" d="M1819.7443,-684.5C1838.0785,-684.5 1866.9265,-684.5 1892.7218,-684.5"/>
<polygon fill="#191970" stroke="#191970" points="1892.8013,-688.0001 1902.8012,-684.5 1892.8012,-681.0001 1892.8013,-688.0001"/>
</g>
<!-- Node26&#45;&gt;Node20 -->
<g id="edge46" class="edge">
<title>Node26&#45;&gt;Node20</title>
<path fill="none" stroke="#191970" d="M455.6138,-290.5717C470.6116,-310.9245 507.6832,-356.7727 551,-377.5 670.3509,-434.6099 713.6891,-417.5 846,-417.5 846,-417.5 846,-417.5 1422,-417.5 1547.7809,-417.5 1583.9983,-424.5544 1699,-475.5 1731.3796,-489.8442 1763.5935,-515.6357 1782.9047,-532.6624"/>
<polygon fill="#191970" stroke="#191970" points="1780.5787,-535.2778 1790.3539,-539.3641 1785.2605,-530.0738 1780.5787,-535.2778"/>
</g>
<!-- Node27 -->
<g id="node27" class="node">
<title>Node27</title>
<g id="a_node27"><a xlink:href="../../d1/da8/classPHFlag.html#a4b73a422f0076568904d71f40e849da5" target="_top" xlink:title="PHFlag::FlagExist">
<polygon fill="none" stroke="#000000" points="581,-153.5 581,-173.5 685,-173.5 685,-153.5 581,-153.5"/>
<text text-anchor="middle" x="633" y="-160.5" font-family="FreeSans" font-size="10.00" fill="#000000">PHFlag::FlagExist</text>
</a>
</g>
</g>
<!-- Node26&#45;&gt;Node27 -->
<g id="edge28" class="edge">
<title>Node26&#45;&gt;Node27</title>
<path fill="none" stroke="#191970" d="M455.991,-270.3459C471.3985,-250.236 508.7611,-205.3194 551,-182.5 557.1332,-179.1866 563.8279,-176.4483 570.6619,-174.1858"/>
<polygon fill="#191970" stroke="#191970" points="572.1338,-177.4 580.7251,-171.1999 570.1426,-170.6891 572.1338,-177.4"/>
</g>
<!-- Node28 -->
<g id="node28" class="node">
<title>Node28</title>
<g id="a_node28"><a xlink:href="../../d1/da8/classPHFlag.html#aa2dc135d4d458dd420bbead4ea2b5f0b" target="_top" xlink:title="PHFlag::get_StringFlag">
<polygon fill="none" stroke="#000000" points="567.5,-348.5 567.5,-368.5 698.5,-368.5 698.5,-348.5 567.5,-348.5"/>
<text text-anchor="middle" x="633" y="-355.5" font-family="FreeSans" font-size="10.00" fill="#000000">PHFlag::get_StringFlag</text>
</a>
</g>
</g>
<!-- Node26&#45;&gt;Node28 -->
<g id="edge29" class="edge">
<title>Node26&#45;&gt;Node28</title>
<path fill="none" stroke="#191970" d="M463.1311,-290.5081C482.4573,-303.3134 517.9226,-325.4002 551,-338.5 557.8375,-341.2079 565.1457,-343.6227 572.4771,-345.7553"/>
<polygon fill="#191970" stroke="#191970" points="571.8774,-349.22 582.447,-348.4895 573.7288,-342.4693 571.8774,-349.22"/>
</g>
<!-- Node36 -->
<g id="node36" class="node">
<title>Node36</title>
<g id="a_node36"><a xlink:href="../../d1/da8/classPHFlag.html#a9912bec8f445c81b296cee7355cdb063" target="_top" xlink:title="PHFlag::get_uint64Flag">
<polygon fill="none" stroke="#000000" points="566.5,-309.5 566.5,-329.5 699.5,-329.5 699.5,-309.5 566.5,-309.5"/>
<text text-anchor="middle" x="633" y="-316.5" font-family="FreeSans" font-size="10.00" fill="#000000">PHFlag::get_uint64Flag</text>
</a>
</g>
</g>
<!-- Node26&#45;&gt;Node36 -->
<g id="edge37" class="edge">
<title>Node26&#45;&gt;Node36</title>
<path fill="none" stroke="#191970" d="M496.0133,-290.5435C520.3318,-295.684 550.123,-301.9813 575.7052,-307.3889"/>
<polygon fill="#191970" stroke="#191970" points="575.14,-310.8467 585.6477,-309.4906 576.5877,-303.998 575.14,-310.8467"/>
</g>
<!-- Node37 -->
<g id="node37" class="node">
<title>Node37</title>
<g id="a_node37"><a xlink:href="../../d4/d32/classSphenixClient.html#ac5f598eea561d5cd3d79b83f79209ace" target="_top" xlink:title="SphenixClient::getCalibration">
<polygon fill="none" stroke="#000000" points="551,-270.5 551,-290.5 715,-290.5 715,-270.5 551,-270.5"/>
<text text-anchor="middle" x="633" y="-277.5" font-family="FreeSans" font-size="10.00" fill="#000000">SphenixClient::getCalibration</text>
</a>
</g>
</g>
<!-- Node26&#45;&gt;Node37 -->
<g id="edge40" class="edge">
<title>Node26&#45;&gt;Node37</title>
<path fill="none" stroke="#191970" d="M508.6569,-280.5C518.9624,-280.5 529.8782,-280.5 540.7933,-280.5"/>
<polygon fill="#191970" stroke="#191970" points="540.7996,-284.0001 550.7996,-280.5 540.7995,-277.0001 540.7996,-284.0001"/>
</g>
<!-- Node40 -->
<g id="node40" class="node">
<title>Node40</title>
<g id="a_node40"><a xlink:href="../../d8/d14/classrecoConsts.html#ae69a5c29a7199ba16d0e537158618802" target="_top" xlink:title="recoConsts::instance">
<polygon fill="none" stroke="#000000" points="572,-192.5 572,-212.5 694,-212.5 694,-192.5 572,-192.5"/>
<text text-anchor="middle" x="633" y="-199.5" font-family="FreeSans" font-size="10.00" fill="#000000">recoConsts::instance</text>
</a>
</g>
</g>
<!-- Node26&#45;&gt;Node40 -->
<g id="edge43" class="edge">
<title>Node26&#45;&gt;Node40</title>
<path fill="none" stroke="#191970" d="M462.7492,-270.4705C481.9435,-257.3989 517.5649,-234.6606 551,-221.5 556.8896,-219.1818 563.1335,-217.1041 569.4432,-215.252"/>
<polygon fill="#191970" stroke="#191970" points="570.6555,-218.5487 579.3713,-212.5249 568.8014,-211.7987 570.6555,-218.5487"/>
</g>
<!-- Node42 -->
<g id="node42" class="node">
<title>Node42</title>
<g id="a_node42"><a xlink:href="../../d2/db7/namespacestd_1_1tr1.html#af7e12a0f5b5791b5b7c49a5a17b85359" target="_top" xlink:title="std::tr1::make_tuple">
<polygon fill="none" stroke="#000000" points="574,-231.5 574,-251.5 692,-251.5 692,-231.5 574,-231.5"/>
<text text-anchor="middle" x="633" y="-238.5" font-family="FreeSans" font-size="10.00" fill="#000000">std::tr1::make_tuple</text>
</a>
</g>
</g>
<!-- Node26&#45;&gt;Node42 -->
<g id="edge45" class="edge">
<title>Node26&#45;&gt;Node42</title>
<path fill="none" stroke="#191970" d="M496.0133,-270.4565C520.3318,-265.316 550.123,-259.0187 575.7052,-253.6111"/>
<polygon fill="#191970" stroke="#191970" points="576.5877,-257.002 585.6477,-251.5094 575.14,-250.1533 576.5877,-257.002"/>
</g>
<!-- Node29 -->
<g id="node29" class="node">
<title>Node29</title>
<g id="a_node29"><a xlink:href="../../d1/da8/classPHFlag.html#a7c2615c6c6570b73c005f98d2d7adee2" target="_top" xlink:title="PHFlag::Print">
<polygon fill="none" stroke="#000000" points="805.5,-309.5 805.5,-329.5 886.5,-329.5 886.5,-309.5 805.5,-309.5"/>
<text text-anchor="middle" x="846" y="-316.5" font-family="FreeSans" font-size="10.00" fill="#000000">PHFlag::Print</text>
</a>
</g>
</g>
<!-- Node28&#45;&gt;Node29 -->
<g id="edge30" class="edge">
<title>Node28&#45;&gt;Node29</title>
<path fill="none" stroke="#191970" d="M687.8528,-348.4565C720.9979,-342.3877 762.9491,-334.7065 795.3144,-328.7805"/>
<polygon fill="#191970" stroke="#191970" points="796.2564,-332.1663 805.4624,-326.9224 794.9956,-325.2807 796.2564,-332.1663"/>
</g>
<!-- Node35 -->
<g id="node35" class="node">
<title>Node35</title>
<g id="a_node35"><a xlink:href="../../d1/da8/classPHFlag.html#a5be3faf4dda955a43deee72b2f8b8bde" target="_top" xlink:title="PHFlag::PrintStackTrace">
<polygon fill="none" stroke="#000000" points="778.5,-348.5 778.5,-368.5 913.5,-368.5 913.5,-348.5 778.5,-348.5"/>
<text text-anchor="middle" x="846" y="-355.5" font-family="FreeSans" font-size="10.00" fill="#000000">PHFlag::PrintStackTrace</text>
</a>
</g>
</g>
<!-- Node28&#45;&gt;Node35 -->
<g id="edge36" class="edge">
<title>Node28&#45;&gt;Node35</title>
<path fill="none" stroke="#191970" d="M698.645,-358.5C720.6861,-358.5 745.4788,-358.5 768.3514,-358.5"/>
<polygon fill="#191970" stroke="#191970" points="768.3643,-362.0001 778.3643,-358.5 768.3642,-355.0001 768.3643,-362.0001"/>
</g>
<!-- Node30 -->
<g id="node30" class="node">
<title>Node30</title>
<g id="a_node30"><a xlink:href="../../d1/da8/classPHFlag.html#a1ff4c6fb4381385006ee1a1a98127db5" target="_top" xlink:title="PHFlag::PrintDoubleFlags">
<polygon fill="none" stroke="#000000" points="991,-290.5 991,-310.5 1135,-310.5 1135,-290.5 991,-290.5"/>
<text text-anchor="middle" x="1063" y="-297.5" font-family="FreeSans" font-size="10.00" fill="#000000">PHFlag::PrintDoubleFlags</text>
</a>
</g>
</g>
<!-- Node29&#45;&gt;Node30 -->
<g id="edge31" class="edge">
<title>Node29&#45;&gt;Node30</title>
<path fill="none" stroke="#191970" d="M886.5615,-315.9485C912.9061,-313.6419 948.1924,-310.5523 980.2842,-307.7424"/>
<polygon fill="#191970" stroke="#191970" points="980.9194,-311.2003 990.576,-306.8413 980.3088,-304.2269 980.9194,-311.2003"/>
</g>
<!-- Node31 -->
<g id="node31" class="node">
<title>Node31</title>
<g id="a_node31"><a xlink:href="../../d1/da8/classPHFlag.html#ac342a6f0241b1db3bbf5cbb82635a572" target="_top" xlink:title="PHFlag::PrintFloatFlags">
<polygon fill="none" stroke="#000000" points="996.5,-251.5 996.5,-271.5 1129.5,-271.5 1129.5,-251.5 996.5,-251.5"/>
<text text-anchor="middle" x="1063" y="-258.5" font-family="FreeSans" font-size="10.00" fill="#000000">PHFlag::PrintFloatFlags</text>
</a>
</g>
</g>
<!-- Node29&#45;&gt;Node31 -->
<g id="edge32" class="edge">
<title>Node29&#45;&gt;Node31</title>
<path fill="none" stroke="#191970" d="M877.3213,-309.4844C903.7498,-301.2001 942.6572,-289.3935 977,-280.5 985.9138,-278.1917 995.3926,-275.918 1004.6774,-273.7904"/>
<polygon fill="#191970" stroke="#191970" points="1005.655,-277.1579 1014.6404,-271.5443 1004.1155,-270.3293 1005.655,-277.1579"/>
</g>
<!-- Node32 -->
<g id="node32" class="node">
<title>Node32</title>
<g id="a_node32"><a xlink:href="../../d1/da8/classPHFlag.html#ad1b9a7480bf5f4c89b9d3c7a8bc0a80a" target="_top" xlink:title="PHFlag::PrintIntFlags">
<polygon fill="none" stroke="#000000" points="1002.5,-212.5 1002.5,-232.5 1123.5,-232.5 1123.5,-212.5 1002.5,-212.5"/>
<text text-anchor="middle" x="1063" y="-219.5" font-family="FreeSans" font-size="10.00" fill="#000000">PHFlag::PrintIntFlags</text>
</a>
</g>
</g>
<!-- Node29&#45;&gt;Node32 -->
<g id="edge33" class="edge">
<title>Node29&#45;&gt;Node32</title>
<path fill="none" stroke="#191970" d="M880.3435,-309.4626C899.2528,-302.9703 922.5546,-293.3223 941,-280.5 960.369,-267.0357 956.5455,-253.2497 977,-241.5 982.0114,-238.6213 987.4177,-236.1785 992.993,-234.1055"/>
<polygon fill="#191970" stroke="#191970" points="994.1054,-237.4241 1002.4956,-230.9546 991.9022,-230.7799 994.1054,-237.4241"/>
</g>
<!-- Node33 -->
<g id="node33" class="node">
<title>Node33</title>
<g id="a_node33"><a xlink:href="../../d1/da8/classPHFlag.html#a0252ef9f9c5331ecb3756b24f6a96b73" target="_top" xlink:title="PHFlag::PrintStringFlags">
<polygon fill="none" stroke="#000000" points="994,-368.5 994,-388.5 1132,-388.5 1132,-368.5 994,-368.5"/>
<text text-anchor="middle" x="1063" y="-375.5" font-family="FreeSans" font-size="10.00" fill="#000000">PHFlag::PrintStringFlags</text>
</a>
</g>
</g>
<!-- Node29&#45;&gt;Node33 -->
<g id="edge34" class="edge">
<title>Node29&#45;&gt;Node33</title>
<path fill="none" stroke="#191970" d="M886.5086,-324.7622C903.6523,-327.7112 923.6344,-332.1168 941,-338.5 958.1795,-344.8148 959.9208,-351.9188 977,-358.5 984.1407,-361.2515 991.7669,-363.6905 999.4175,-365.8342"/>
<polygon fill="#191970" stroke="#191970" points="998.5242,-369.2182 1009.0868,-368.3928 1000.3149,-362.4511 998.5242,-369.2182"/>
</g>
<!-- Node34 -->
<g id="node34" class="node">
<title>Node34</title>
<g id="a_node34"><a xlink:href="../../d1/da8/classPHFlag.html#a8cd889a7b07b5e99051241c68355916b" target="_top" xlink:title="PHFlag::Printuint64Flags">
<polygon fill="none" stroke="#000000" points="993,-329.5 993,-349.5 1133,-349.5 1133,-329.5 993,-329.5"/>
<text text-anchor="middle" x="1063" y="-336.5" font-family="FreeSans" font-size="10.00" fill="#000000">PHFlag::Printuint64Flags</text>
</a>
</g>
</g>
<!-- Node29&#45;&gt;Node34 -->
<g id="edge35" class="edge">
<title>Node29&#45;&gt;Node34</title>
<path fill="none" stroke="#191970" d="M886.5615,-323.2384C913.576,-325.7282 949.9927,-329.0846 982.7259,-332.1015"/>
<polygon fill="#191970" stroke="#191970" points="982.4727,-335.5929 992.7518,-333.0255 983.1152,-328.6224 982.4727,-335.5929"/>
</g>
<!-- Node36&#45;&gt;Node29 -->
<g id="edge38" class="edge">
<title>Node36&#45;&gt;Node29</title>
<path fill="none" stroke="#191970" d="M699.5184,-319.5C730.3929,-319.5 766.5117,-319.5 795.1582,-319.5"/>
<polygon fill="#191970" stroke="#191970" points="795.3506,-323.0001 805.3505,-319.5 795.3505,-316.0001 795.3506,-323.0001"/>
</g>
<!-- Node36&#45;&gt;Node35 -->
<g id="edge39" class="edge">
<title>Node36&#45;&gt;Node35</title>
<path fill="none" stroke="#191970" d="M687.8528,-329.5435C716.4246,-334.7749 751.5402,-341.2046 781.4183,-346.6752"/>
<polygon fill="#191970" stroke="#191970" points="780.8662,-350.1322 791.3331,-348.4906 782.127,-343.2467 780.8662,-350.1322"/>
</g>
<!-- Node38 -->
<g id="node38" class="node">
<title>Node38</title>
<g id="a_node38"><a xlink:href="../../d4/d32/classSphenixClient.html#afa06dbc2eb74cd61d832555dd5d5c872" target="_top" xlink:title="SphenixClient::getUrl">
<polygon fill="none" stroke="#000000" points="784,-251.5 784,-271.5 908,-271.5 908,-251.5 784,-251.5"/>
<text text-anchor="middle" x="846" y="-258.5" font-family="FreeSans" font-size="10.00" fill="#000000">SphenixClient::getUrl</text>
</a>
</g>
</g>
<!-- Node37&#45;&gt;Node38 -->
<g id="edge41" class="edge">
<title>Node37&#45;&gt;Node38</title>
<path fill="none" stroke="#191970" d="M715.0467,-273.1813C734.4179,-271.4533 754.9301,-269.6236 773.8277,-267.9379"/>
<polygon fill="#191970" stroke="#191970" points="774.1947,-271.4192 783.8442,-267.0444 773.5727,-264.4468 774.1947,-271.4192"/>
</g>
<!-- Node39 -->
<g id="node39" class="node">
<title>Node39</title>
<g id="a_node39"><a xlink:href="../../d4/d32/classSphenixClient.html#ad3afdbb895e5658a62507527c53aa798" target="_top" xlink:title="SphenixClient::getPayloadIOVs">
<polygon fill="none" stroke="#000000" points="977,-173.5 977,-193.5 1149,-193.5 1149,-173.5 977,-173.5"/>
<text text-anchor="middle" x="1063" y="-180.5" font-family="FreeSans" font-size="10.00" fill="#000000">SphenixClient::getPayloadIOVs</text>
</a>
</g>
</g>
<!-- Node38&#45;&gt;Node39 -->
<g id="edge42" class="edge">
<title>Node38&#45;&gt;Node39</title>
<path fill="none" stroke="#191970" d="M871.6685,-251.3988C890.9377,-243.6461 917.8696,-232.4479 941,-221.5 957.3525,-213.7601 960.0147,-208.7296 977,-202.5 983.4622,-200.1299 990.311,-198.0058 997.2104,-196.1146"/>
<polygon fill="#191970" stroke="#191970" points="998.5069,-199.3948 1007.3162,-193.5087 996.759,-192.6165 998.5069,-199.3948"/>
</g>
<!-- Node41 -->
<g id="node41" class="node">
<title>Node41</title>
<g id="a_node41"><a xlink:href="../../d8/d14/classrecoConsts.html#ae882d6adc62f783ec78114fe3dee3c24" target="_top" xlink:title="recoConsts::recoConsts">
<polygon fill="none" stroke="#000000" points="778.5,-192.5 778.5,-212.5 913.5,-212.5 913.5,-192.5 778.5,-192.5"/>
<text text-anchor="middle" x="846" y="-199.5" font-family="FreeSans" font-size="10.00" fill="#000000">recoConsts::recoConsts</text>
</a>
</g>
</g>
<!-- Node40&#45;&gt;Node41 -->
<g id="edge44" class="edge">
<title>Node40&#45;&gt;Node41</title>
<path fill="none" stroke="#191970" d="M694.0373,-202.5C717.0562,-202.5 743.5636,-202.5 767.9289,-202.5"/>
<polygon fill="#191970" stroke="#191970" points="768.2236,-206.0001 778.2236,-202.5 768.2235,-199.0001 768.2236,-206.0001"/>
</g>
<!-- Node44 -->
<g id="node44" class="node">
<title>Node44</title>
<g id="a_node44"><a xlink:href="../../d8/d21/classPdbParameterMap.html#ade341cd2fa2ac009cd6e7741e728f85b" target="_top" xlink:title="PdbParameterMap::get\l_dparam_iters">
<polygon fill="none" stroke="#000000" points="566.5,-102.5 566.5,-134.5 699.5,-134.5 699.5,-102.5 566.5,-102.5"/>
<text text-anchor="start" x="574.5" y="-121.5" font-family="FreeSans" font-size="10.00" fill="#000000">PdbParameterMap::get</text>
<text text-anchor="middle" x="633" y="-109.5" font-family="FreeSans" font-size="10.00" fill="#000000">_dparam_iters</text>
</a>
</g>
</g>
<!-- Node43&#45;&gt;Node44 -->
<g id="edge48" class="edge">
<title>Node43&#45;&gt;Node44</title>
<path fill="none" stroke="#191970" d="M515.1087,-102.5256C528.5642,-104.3488 542.8103,-106.2792 556.5721,-108.1439"/>
<polygon fill="#191970" stroke="#191970" points="556.1096,-111.6132 566.489,-109.4877 557.0496,-104.6765 556.1096,-111.6132"/>
</g>
<!-- Node45 -->
<g id="node45" class="node">
<title>Node45</title>
<g id="a_node45"><a xlink:href="../../d8/d21/classPdbParameterMap.html#ac348934f368cf69d37ce7480fdcd332c" target="_top" xlink:title="PdbParameterMap::get\l_iparam_iters">
<polygon fill="none" stroke="#000000" points="566.5,-51.5 566.5,-83.5 699.5,-83.5 699.5,-51.5 566.5,-51.5"/>
<text text-anchor="start" x="574.5" y="-70.5" font-family="FreeSans" font-size="10.00" fill="#000000">PdbParameterMap::get</text>
<text text-anchor="middle" x="633" y="-58.5" font-family="FreeSans" font-size="10.00" fill="#000000">_iparam_iters</text>
</a>
</g>
</g>
<!-- Node43&#45;&gt;Node45 -->
<g id="edge49" class="edge">
<title>Node43&#45;&gt;Node45</title>
<path fill="none" stroke="#191970" d="M515.1087,-84.1134C528.5642,-82.2172 542.8103,-80.2097 556.5721,-78.2703"/>
<polygon fill="#191970" stroke="#191970" points="557.0753,-81.7341 566.489,-76.8728 556.0984,-74.8026 557.0753,-81.7341"/>
</g>
<!-- Node46 -->
<g id="node46" class="node">
<title>Node46</title>
<g id="a_node46"><a xlink:href="../../d8/d21/classPdbParameterMap.html#ab0e99129bc91837311172241b78f4c82" target="_top" xlink:title="PdbParameterMap::get\l_cparam_iters">
<polygon fill="none" stroke="#000000" points="566.5,-.5 566.5,-32.5 699.5,-32.5 699.5,-.5 566.5,-.5"/>
<text text-anchor="start" x="574.5" y="-19.5" font-family="FreeSans" font-size="10.00" fill="#000000">PdbParameterMap::get</text>
<text text-anchor="middle" x="633" y="-7.5" font-family="FreeSans" font-size="10.00" fill="#000000">_cparam_iters</text>
</a>
</g>
</g>
<!-- Node43&#45;&gt;Node46 -->
<g id="edge50" class="edge">
<title>Node43&#45;&gt;Node46</title>
<path fill="none" stroke="#191970" d="M466.2048,-83.3244C486.2963,-72.0618 520.2724,-53.8695 551,-41.5 555.7956,-39.5695 560.7993,-37.7027 565.8666,-35.9177"/>
<polygon fill="#191970" stroke="#191970" points="567.3103,-39.1237 575.6513,-32.5909 565.0569,-32.4963 567.3103,-39.1237"/>
</g>
</g>
</svg>
