<?xml version="1.0" encoding="UTF-8" standalone="no"?>
<!DOCTYPE svg PUBLIC "-//W3C//DTD SVG 1.1//EN"
 "http://www.w3.org/Graphics/SVG/1.1/DTD/svg11.dtd">
<!-- Generated by graphviz version 2.40.1 (20161225.0304)
 -->
<!-- Title: coresoftware/blob/master/offline/packages/ResonanceJetTagging/ResonanceJetTagging.h Pages: 1 -->
<svg width="765pt" height="281pt"
 viewBox="0.00 0.00 764.69 281.00" xmlns="http://www.w3.org/2000/svg" xmlns:xlink="http://www.w3.org/1999/xlink">
<g id="graph0" class="graph" transform="scale(1 1) rotate(0) translate(4 277)">
<title>coresoftware/blob/master/offline/packages/ResonanceJetTagging/ResonanceJetTagging.h</title>
<!-- Node1 -->
<g id="node1" class="node">
<title>Node1</title>
<polygon fill="#bfbfbf" stroke="#000000" points="352.6917,-228.5 352.6917,-272.5 529.6917,-272.5 529.6917,-228.5 352.6917,-228.5"/>
<text text-anchor="start" x="360.6917" y="-259.5" font-family="FreeSans" font-size="10.00" fill="#000000">coresoftware/blob/master</text>
<text text-anchor="start" x="360.6917" y="-247.5" font-family="FreeSans" font-size="10.00" fill="#000000">/offline/packages/ResonanceJet</text>
<text text-anchor="middle" x="441.1917" y="-235.5" font-family="FreeSans" font-size="10.00" fill="#000000">Tagging/ResonanceJetTagging.h</text>
</g>
<!-- Node2 -->
<g id="node2" class="node">
<title>Node2</title>
<g id="a_node2"><a xlink:href="../../d2/d8f/Jetv2_8h.html" target="_top" xlink:title="Version of Jet.h updated to include data in vector&lt;float&gt; instead of map&lt;int,float&gt;">
<polygon fill="none" stroke="#000000" points="140.1917,-171.5 140.1917,-191.5 232.1917,-191.5 232.1917,-171.5 140.1917,-171.5"/>
<text text-anchor="middle" x="186.1917" y="-178.5" font-family="FreeSans" font-size="10.00" fill="#000000">jetbase/Jetv2.h</text>
</a>
</g>
</g>
<!-- Node1&#45;&gt;Node2 -->
<g id="edge1" class="edge">
<title>Node1&#45;&gt;Node2</title>
<path fill="none" stroke="#191970" d="M359.807,-228.4783C318.1513,-217.2067 268.9057,-203.8814 233.5219,-194.307"/>
<polygon fill="#191970" stroke="#191970" points="234.0363,-190.8204 223.4692,-191.5869 232.2079,-197.5774 234.0363,-190.8204"/>
</g>
<!-- Node9 -->
<g id="node9" class="node">
<title>Node9</title>
<polygon fill="none" stroke="#bfbfbf" points="310.6917,-57.5 310.6917,-77.5 349.6917,-77.5 349.6917,-57.5 310.6917,-57.5"/>
<text text-anchor="middle" x="330.1917" y="-64.5" font-family="FreeSans" font-size="10.00" fill="#000000">map</text>
</g>
<!-- Node1&#45;&gt;Node9 -->
<g id="edge22" class="edge">
<title>Node1&#45;&gt;Node9</title>
<path fill="none" stroke="#191970" d="M406.7865,-228.4873C393.7661,-218.6805 379.7882,-206.1407 370.1917,-192 348.0924,-159.436 337.581,-113.8873 333.0972,-87.8699"/>
<polygon fill="#191970" stroke="#191970" points="336.5087,-87.036 331.4846,-77.7081 329.5952,-88.1332 336.5087,-87.036"/>
</g>
<!-- Node11 -->
<g id="node11" class="node">
<title>Node11</title>
<polygon fill="none" stroke="#bfbfbf" points="276.6917,-114.5 276.6917,-134.5 321.6917,-134.5 321.6917,-114.5 276.6917,-114.5"/>
<text text-anchor="middle" x="299.1917" y="-121.5" font-family="FreeSans" font-size="10.00" fill="#000000">utility</text>
</g>
<!-- Node1&#45;&gt;Node11 -->
<g id="edge24" class="edge">
<title>Node1&#45;&gt;Node11</title>
<path fill="none" stroke="#191970" d="M388.3908,-228.4395C370.3272,-219.0931 350.9698,-206.8803 336.1917,-192 322.7033,-178.4183 312.7258,-158.9039 306.553,-144.3473"/>
<polygon fill="#191970" stroke="#191970" points="309.6921,-142.7702 302.7348,-134.7798 303.1907,-145.3648 309.6921,-142.7702"/>
</g>
<!-- Node12 -->
<g id="node12" class="node">
<title>Node12</title>
<g id="a_node12"><a xlink:href="../../d5/dc2/SubsysReco_8h.html" target="_top" xlink:title="fun4all/SubsysReco.h">
<polygon fill="none" stroke="#000000" points="379.1917,-171.5 379.1917,-191.5 503.1917,-191.5 503.1917,-171.5 379.1917,-171.5"/>
<text text-anchor="middle" x="441.1917" y="-178.5" font-family="FreeSans" font-size="10.00" fill="#000000">fun4all/SubsysReco.h</text>
</a>
</g>
</g>
<!-- Node1&#45;&gt;Node12 -->
<g id="edge16" class="edge">
<title>Node1&#45;&gt;Node12</title>
<path fill="none" stroke="#191970" d="M441.1917,-228.2882C441.1917,-219.8377 441.1917,-210.2557 441.1917,-201.9736"/>
<polygon fill="#191970" stroke="#191970" points="444.6918,-201.7136 441.1917,-191.7137 437.6918,-201.7137 444.6918,-201.7136"/>
</g>
<!-- Node15 -->
<g id="node15" class="node">
<title>Node15</title>
<polygon fill="none" stroke="#bfbfbf" points="471.6917,-57.5 471.6917,-77.5 516.6917,-77.5 516.6917,-57.5 471.6917,-57.5"/>
<text text-anchor="middle" x="494.1917" y="-64.5" font-family="FreeSans" font-size="10.00" fill="#000000">string</text>
</g>
<!-- Node1&#45;&gt;Node15 -->
<g id="edge23" class="edge">
<title>Node1&#45;&gt;Node15</title>
<path fill="none" stroke="#191970" d="M479.8132,-228.4558C492.5574,-219.0134 505.2408,-206.7336 512.1917,-192 528.4077,-157.6276 514.2593,-112.4551 503.5353,-87.0493"/>
<polygon fill="#191970" stroke="#191970" points="506.6582,-85.4588 499.3861,-77.7539 500.2661,-88.3121 506.6582,-85.4588"/>
</g>
<!-- Node16 -->
<g id="node16" class="node">
<title>Node16</title>
<polygon fill="none" stroke="#bfbfbf" points="560.6917,-171.5 560.6917,-191.5 689.6917,-191.5 689.6917,-171.5 560.6917,-171.5"/>
<text text-anchor="middle" x="625.1917" y="-178.5" font-family="FreeSans" font-size="10.00" fill="#000000">fastjet/JetDefinition.hh</text>
</g>
<!-- Node1&#45;&gt;Node16 -->
<g id="edge21" class="edge">
<title>Node1&#45;&gt;Node16</title>
<path fill="none" stroke="#191970" d="M499.9163,-228.4783C529.0708,-217.5453 563.3777,-204.6802 588.7119,-195.1799"/>
<polygon fill="#191970" stroke="#191970" points="590.1591,-198.3753 598.2934,-191.5869 587.7011,-191.821 590.1591,-198.3753"/>
</g>
<!-- Node17 -->
<g id="node17" class="node">
<title>Node17</title>
<polygon fill="none" stroke="#bfbfbf" points="707.6917,-171.5 707.6917,-191.5 756.6917,-191.5 756.6917,-171.5 707.6917,-171.5"/>
<text text-anchor="middle" x="732.1917" y="-178.5" font-family="FreeSans" font-size="10.00" fill="#000000">vector</text>
</g>
<!-- Node1&#45;&gt;Node17 -->
<g id="edge25" class="edge">
<title>Node1&#45;&gt;Node17</title>
<path fill="none" stroke="#191970" d="M529.7169,-232.376C577.1858,-222.196 636.8229,-208.6721 697.6258,-192.293"/>
<polygon fill="#191970" stroke="#191970" points="698.6599,-195.639 707.3926,-189.6398 696.8248,-188.8838 698.6599,-195.639"/>
</g>
<!-- Node3 -->
<g id="node3" class="node">
<title>Node3</title>
<g id="a_node3"><a xlink:href="../../da/db7/Jet_8h.html" target="_top" xlink:title="Jet.h">
<polygon fill="none" stroke="#000000" points="142.6917,-114.5 142.6917,-134.5 181.6917,-134.5 181.6917,-114.5 142.6917,-114.5"/>
<text text-anchor="middle" x="162.1917" y="-121.5" font-family="FreeSans" font-size="10.00" fill="#000000">Jet.h</text>
</a>
</g>
</g>
<!-- Node2&#45;&gt;Node3 -->
<g id="edge2" class="edge">
<title>Node2&#45;&gt;Node3</title>
<path fill="none" stroke="#191970" d="M181.901,-171.3095C178.6929,-163.6903 174.21,-153.0435 170.33,-143.8285"/>
<polygon fill="#191970" stroke="#191970" points="173.5516,-142.4604 166.4453,-134.6022 167.1002,-145.1768 173.5516,-142.4604"/>
</g>
<!-- Node6 -->
<g id="node6" class="node">
<title>Node6</title>
<polygon fill="none" stroke="#bfbfbf" points="57.1917,-.5 57.1917,-20.5 117.1917,-20.5 117.1917,-.5 57.1917,-.5"/>
<text text-anchor="middle" x="87.1917" y="-7.5" font-family="FreeSans" font-size="10.00" fill="#000000">iostream</text>
</g>
<!-- Node2&#45;&gt;Node6 -->
<g id="edge12" class="edge">
<title>Node2&#45;&gt;Node6</title>
<path fill="none" stroke="#191970" d="M140.016,-172.6024C93.0315,-160.5793 24.2166,-133.8515 3.1917,-78 -.0965,-69.2651 -1.5476,-65.0405 3.1917,-57 12.885,-40.5546 30.7164,-29.5172 47.4646,-22.3403"/>
<polygon fill="#191970" stroke="#191970" points="49.0993,-25.4588 57.1309,-18.5491 46.5434,-18.9421 49.0993,-25.4588"/>
</g>
<!-- Node7 -->
<g id="node7" class="node">
<title>Node7</title>
<polygon fill="none" stroke="#bfbfbf" points="12.1917,-57.5 12.1917,-77.5 60.1917,-77.5 60.1917,-57.5 12.1917,-57.5"/>
<text text-anchor="middle" x="36.1917" y="-64.5" font-family="FreeSans" font-size="10.00" fill="#000000">cmath</text>
</g>
<!-- Node2&#45;&gt;Node7 -->
<g id="edge10" class="edge">
<title>Node2&#45;&gt;Node7</title>
<path fill="none" stroke="#191970" d="M142.7717,-171.4933C119.6737,-164.4045 92.029,-152.8986 72.1917,-135 57.909,-122.1132 48.264,-102.2006 42.5809,-87.3379"/>
<polygon fill="#191970" stroke="#191970" points="45.765,-85.8433 39.1334,-77.5807 39.1649,-88.1755 45.765,-85.8433"/>
</g>
<!-- Node8 -->
<g id="node8" class="node">
<title>Node8</title>
<polygon fill="none" stroke="#bfbfbf" points="238.1917,-57.5 238.1917,-77.5 292.1917,-77.5 292.1917,-57.5 238.1917,-57.5"/>
<text text-anchor="middle" x="265.1917" y="-64.5" font-family="FreeSans" font-size="10.00" fill="#000000">cstddef</text>
</g>
<!-- Node2&#45;&gt;Node8 -->
<g id="edge11" class="edge">
<title>Node2&#45;&gt;Node8</title>
<path fill="none" stroke="#191970" d="M193.2024,-171.3833C206.4623,-152.2488 235.3946,-110.4984 252.2655,-86.1529"/>
<polygon fill="#191970" stroke="#191970" points="255.264,-87.9708 258.0831,-77.7579 249.5105,-83.9837 255.264,-87.9708"/>
</g>
<!-- Node2&#45;&gt;Node9 -->
<g id="edge13" class="edge">
<title>Node2&#45;&gt;Node9</title>
<path fill="none" stroke="#191970" d="M197.8183,-171.4424C213.3919,-158.0562 241.9891,-133.7743 267.1917,-114 280.4452,-103.6011 295.6298,-92.3738 307.7704,-83.5567"/>
<polygon fill="#191970" stroke="#191970" points="309.9461,-86.3027 316.0015,-77.6088 305.8462,-80.629 309.9461,-86.3027"/>
</g>
<!-- Node10 -->
<g id="node10" class="node">
<title>Node10</title>
<polygon fill="none" stroke="#bfbfbf" points="81.6917,-114.5 81.6917,-134.5 124.6917,-134.5 124.6917,-114.5 81.6917,-114.5"/>
<text text-anchor="middle" x="103.1917" y="-121.5" font-family="FreeSans" font-size="10.00" fill="#000000">array</text>
</g>
<!-- Node2&#45;&gt;Node10 -->
<g id="edge14" class="edge">
<title>Node2&#45;&gt;Node10</title>
<path fill="none" stroke="#191970" d="M171.353,-171.3095C158.842,-162.7177 140.7248,-150.2758 126.3132,-140.3786"/>
<polygon fill="#191970" stroke="#191970" points="128.1267,-137.3782 117.902,-134.6022 124.1639,-143.1485 128.1267,-137.3782"/>
</g>
<!-- Node2&#45;&gt;Node11 -->
<g id="edge15" class="edge">
<title>Node2&#45;&gt;Node11</title>
<path fill="none" stroke="#191970" d="M206.1337,-171.4408C223.8556,-162.5014 249.9868,-149.3202 270.0505,-139.1996"/>
<polygon fill="#191970" stroke="#191970" points="271.7168,-142.2791 279.0689,-134.6504 268.5642,-136.0292 271.7168,-142.2791"/>
</g>
<!-- Node4 -->
<g id="node4" class="node">
<title>Node4</title>
<g id="a_node4"><a xlink:href="../../df/d32/PHObject_8h.html" target="_top" xlink:title="phool/PHObject.h">
<polygon fill="none" stroke="#000000" points="116.1917,-57.5 116.1917,-77.5 220.1917,-77.5 220.1917,-57.5 116.1917,-57.5"/>
<text text-anchor="middle" x="168.1917" y="-64.5" font-family="FreeSans" font-size="10.00" fill="#000000">phool/PHObject.h</text>
</a>
</g>
</g>
<!-- Node3&#45;&gt;Node4 -->
<g id="edge3" class="edge">
<title>Node3&#45;&gt;Node4</title>
<path fill="none" stroke="#191970" d="M163.2644,-114.3095C164.0408,-106.9335 165.1159,-96.72 166.0638,-87.715"/>
<polygon fill="#191970" stroke="#191970" points="169.5621,-87.9137 167.1283,-77.6022 162.6006,-87.1809 169.5621,-87.9137"/>
</g>
<!-- Node3&#45;&gt;Node6 -->
<g id="edge8" class="edge">
<title>Node3&#45;&gt;Node6</title>
<path fill="none" stroke="#191970" d="M145.7292,-114.4166C133.4333,-106.0823 117.105,-93.1805 107.1917,-78 97.911,-63.7882 92.8138,-45.1314 90.0923,-31.0346"/>
<polygon fill="#191970" stroke="#191970" points="93.4945,-30.16 88.3845,-20.8788 86.5914,-31.3208 93.4945,-30.16"/>
</g>
<!-- Node3&#45;&gt;Node7 -->
<g id="edge6" class="edge">
<title>Node3&#45;&gt;Node7</title>
<path fill="none" stroke="#191970" d="M142.5042,-115.5938C122.5511,-106.5674 91.3635,-92.4587 67.9182,-81.8525"/>
<polygon fill="#191970" stroke="#191970" points="69.2717,-78.6233 58.718,-77.6905 66.3865,-85.0011 69.2717,-78.6233"/>
</g>
<!-- Node3&#45;&gt;Node8 -->
<g id="edge7" class="edge">
<title>Node3&#45;&gt;Node8</title>
<path fill="none" stroke="#191970" d="M180.606,-114.3095C196.5711,-105.4745 219.8926,-92.5684 238.006,-82.5445"/>
<polygon fill="#191970" stroke="#191970" points="239.8819,-85.5066 246.9368,-77.6022 236.4925,-79.3819 239.8819,-85.5066"/>
</g>
<!-- Node3&#45;&gt;Node9 -->
<g id="edge9" class="edge">
<title>Node3&#45;&gt;Node9</title>
<path fill="none" stroke="#191970" d="M182.0395,-118.0301C207.3697,-109.7369 252.7564,-94.7559 300.8993,-78.0456"/>
<polygon fill="#191970" stroke="#191970" points="302.2666,-81.2757 310.5595,-74.682 299.9647,-74.665 302.2666,-81.2757"/>
</g>
<!-- Node5 -->
<g id="node5" class="node">
<title>Node5</title>
<polygon fill="none" stroke="#bfbfbf" points="135.6917,-.5 135.6917,-20.5 200.6917,-20.5 200.6917,-.5 135.6917,-.5"/>
<text text-anchor="middle" x="168.1917" y="-7.5" font-family="FreeSans" font-size="10.00" fill="#000000">TObject.h</text>
</g>
<!-- Node4&#45;&gt;Node5 -->
<g id="edge4" class="edge">
<title>Node4&#45;&gt;Node5</title>
<path fill="none" stroke="#191970" d="M168.1917,-57.3095C168.1917,-49.9335 168.1917,-39.72 168.1917,-30.715"/>
<polygon fill="#191970" stroke="#191970" points="171.6918,-30.6022 168.1917,-20.6022 164.6918,-30.6023 171.6918,-30.6022"/>
</g>
<!-- Node4&#45;&gt;Node6 -->
<g id="edge5" class="edge">
<title>Node4&#45;&gt;Node6</title>
<path fill="none" stroke="#191970" d="M153.7105,-57.3095C141.501,-48.7177 123.8204,-36.2758 109.756,-26.3786"/>
<polygon fill="#191970" stroke="#191970" points="111.7398,-23.4949 101.5475,-20.6022 107.7113,-29.2195 111.7398,-23.4949"/>
</g>
<!-- Node13 -->
<g id="node13" class="node">
<title>Node13</title>
<g id="a_node13"><a xlink:href="../../d2/de7/Fun4AllBase_8h.html" target="_top" xlink:title="Fun4AllBase.h">
<polygon fill="none" stroke="#000000" points="378.6917,-114.5 378.6917,-134.5 465.6917,-134.5 465.6917,-114.5 378.6917,-114.5"/>
<text text-anchor="middle" x="422.1917" y="-121.5" font-family="FreeSans" font-size="10.00" fill="#000000">Fun4AllBase.h</text>
</a>
</g>
</g>
<!-- Node12&#45;&gt;Node13 -->
<g id="edge17" class="edge">
<title>Node12&#45;&gt;Node13</title>
<path fill="none" stroke="#191970" d="M437.7949,-171.3095C435.2822,-163.7714 431.7816,-153.2696 428.7327,-144.123"/>
<polygon fill="#191970" stroke="#191970" points="432.0418,-142.9823 425.5591,-134.6022 425.4011,-145.1959 432.0418,-142.9823"/>
</g>
<!-- Node12&#45;&gt;Node15 -->
<g id="edge20" class="edge">
<title>Node12&#45;&gt;Node15</title>
<path fill="none" stroke="#191970" d="M450.1734,-171.4801C457.8013,-162.499 468.5405,-148.6688 475.1917,-135 482.5892,-119.7974 487.5521,-101.2248 490.5449,-87.4124"/>
<polygon fill="#191970" stroke="#191970" points="493.9958,-88.0041 492.5316,-77.511 487.1326,-86.627 493.9958,-88.0041"/>
</g>
<!-- Node14 -->
<g id="node14" class="node">
<title>Node14</title>
<polygon fill="none" stroke="#bfbfbf" points="400.1917,-57.5 400.1917,-77.5 444.1917,-77.5 444.1917,-57.5 400.1917,-57.5"/>
<text text-anchor="middle" x="422.1917" y="-64.5" font-family="FreeSans" font-size="10.00" fill="#000000">limits</text>
</g>
<!-- Node13&#45;&gt;Node14 -->
<g id="edge18" class="edge">
<title>Node13&#45;&gt;Node14</title>
<path fill="none" stroke="#191970" d="M422.1917,-114.3095C422.1917,-106.9335 422.1917,-96.72 422.1917,-87.715"/>
<polygon fill="#191970" stroke="#191970" points="425.6918,-87.6022 422.1917,-77.6022 418.6918,-87.6023 425.6918,-87.6022"/>
</g>
<!-- Node13&#45;&gt;Node15 -->
<g id="edge19" class="edge">
<title>Node13&#45;&gt;Node15</title>
<path fill="none" stroke="#191970" d="M435.0639,-114.3095C445.712,-105.8798 461.0415,-93.7439 473.4235,-83.9415"/>
<polygon fill="#191970" stroke="#191970" points="475.763,-86.5535 481.431,-77.6022 471.418,-81.0651 475.763,-86.5535"/>
</g>
</g>
</svg>
