<?xml version="1.0" encoding="UTF-8" standalone="no"?>
<!DOCTYPE svg PUBLIC "-//W3C//DTD SVG 1.1//EN"
 "http://www.w3.org/Graphics/SVG/1.1/DTD/svg11.dtd">
<!-- Generated by graphviz version 2.40.1 (20161225.0304)
 -->
<!-- Title: acts/blob/sPHENIX/Examples/Algorithms/Utilities/src/PrototracksToSeeds.cpp Pages: 1 -->
<svg width="3345pt" height="776pt"
 viewBox="0.00 0.00 3345.04 776.00" xmlns="http://www.w3.org/2000/svg" xmlns:xlink="http://www.w3.org/1999/xlink">
<g id="graph0" class="graph" transform="scale(1 1) rotate(0) translate(4 772)">
<title>acts/blob/sPHENIX/Examples/Algorithms/Utilities/src/PrototracksToSeeds.cpp</title>
<!-- Node1 -->
<g id="node1" class="node">
<title>Node1</title>
<polygon fill="#bfbfbf" stroke="#000000" points="2107.5,-723.5 2107.5,-767.5 2268.5,-767.5 2268.5,-723.5 2107.5,-723.5"/>
<text text-anchor="start" x="2115.5" y="-754.5" font-family="FreeSans" font-size="10.00" fill="#000000">acts/blob/sPHENIX/Examples</text>
<text text-anchor="start" x="2115.5" y="-742.5" font-family="FreeSans" font-size="10.00" fill="#000000">/Algorithms/Utilities/src</text>
<text text-anchor="middle" x="2188" y="-730.5" font-family="FreeSans" font-size="10.00" fill="#000000">/PrototracksToSeeds.cpp</text>
</g>
<!-- Node2 -->
<g id="node2" class="node">
<title>Node2</title>
<g id="a_node2"><a xlink:href="../../d1/d3e/PrototracksToSeeds_8hpp.html" target="_top" xlink:title="ActsExamples/Utilities\l/PrototracksToSeeds.hpp">
<polygon fill="none" stroke="#000000" points="2216.5,-654.5 2216.5,-686.5 2357.5,-686.5 2357.5,-654.5 2216.5,-654.5"/>
<text text-anchor="start" x="2224.5" y="-673.5" font-family="FreeSans" font-size="10.00" fill="#000000">ActsExamples/Utilities</text>
<text text-anchor="middle" x="2287" y="-661.5" font-family="FreeSans" font-size="10.00" fill="#000000">/PrototracksToSeeds.hpp</text>
</a>
</g>
</g>
<!-- Node1&#45;&gt;Node2 -->
<g id="edge1" class="edge">
<title>Node1&#45;&gt;Node2</title>
<path fill="none" stroke="#191970" d="M2217.1678,-723.4032C2229.894,-713.7621 2244.7904,-702.477 2257.5486,-692.8117"/>
<polygon fill="#191970" stroke="#191970" points="2259.722,-695.5561 2265.5794,-686.7277 2255.495,-689.9765 2259.722,-695.5561"/>
</g>
<!-- Node3 -->
<g id="node3" class="node">
<title>Node3</title>
<g id="a_node3"><a xlink:href="../../d4/d98/ProtoTrack_8hpp.html" target="_top" xlink:title="ActsExamples/EventData\l/ProtoTrack.hpp">
<polygon fill="none" stroke="#000000" points="1870,-447.5 1870,-479.5 2014,-479.5 2014,-447.5 1870,-447.5"/>
<text text-anchor="start" x="1878" y="-466.5" font-family="FreeSans" font-size="10.00" fill="#000000">ActsExamples/EventData</text>
<text text-anchor="middle" x="1942" y="-454.5" font-family="FreeSans" font-size="10.00" fill="#000000">/ProtoTrack.hpp</text>
</a>
</g>
</g>
<!-- Node1&#45;&gt;Node3 -->
<g id="edge134" class="edge">
<title>Node1&#45;&gt;Node3</title>
<path fill="none" stroke="#191970" d="M2107.4025,-728.8176C2063.2551,-718.1273 2014.443,-703.2427 1999,-687 1946.762,-632.0572 1940.6138,-536.1427 1940.9548,-489.9062"/>
<polygon fill="#191970" stroke="#191970" points="1944.4563,-489.8535 1941.1416,-479.7906 1937.4575,-489.7243 1944.4563,-489.8535"/>
</g>
<!-- Node7 -->
<g id="node7" class="node">
<title>Node7</title>
<g id="a_node7"><a xlink:href="../../d9/d0e/SimSeed_8hpp.html" target="_top" xlink:title="ActsExamples/EventData\l/SimSeed.hpp">
<polygon fill="none" stroke="#000000" points="2050,-585.5 2050,-617.5 2194,-617.5 2194,-585.5 2050,-585.5"/>
<text text-anchor="start" x="2058" y="-604.5" font-family="FreeSans" font-size="10.00" fill="#000000">ActsExamples/EventData</text>
<text text-anchor="middle" x="2122" y="-592.5" font-family="FreeSans" font-size="10.00" fill="#000000">/SimSeed.hpp</text>
</a>
</g>
</g>
<!-- Node1&#45;&gt;Node7 -->
<g id="edge135" class="edge">
<title>Node1&#45;&gt;Node7</title>
<path fill="none" stroke="#191970" d="M2186.6426,-723.3665C2184.7273,-704.1447 2180.1127,-676.0152 2169,-654 2163.682,-643.4647 2155.698,-633.4143 2147.8122,-624.9795"/>
<polygon fill="#191970" stroke="#191970" points="2150.1831,-622.3985 2140.6772,-617.7198 2145.1906,-627.3053 2150.1831,-622.3985"/>
</g>
<!-- Node24 -->
<g id="node24" class="node">
<title>Node24</title>
<g id="a_node24"><a xlink:href="../../dc/d31/IndexSourceLink_8hpp.html" target="_top" xlink:title="ActsExamples/EventData\l/IndexSourceLink.hpp">
<polygon fill="none" stroke="#000000" points="1522,-447.5 1522,-479.5 1666,-479.5 1666,-447.5 1522,-447.5"/>
<text text-anchor="start" x="1530" y="-466.5" font-family="FreeSans" font-size="10.00" fill="#000000">ActsExamples/EventData</text>
<text text-anchor="middle" x="1594" y="-454.5" font-family="FreeSans" font-size="10.00" fill="#000000">/IndexSourceLink.hpp</text>
</a>
</g>
</g>
<!-- Node1&#45;&gt;Node24 -->
<g id="edge133" class="edge">
<title>Node1&#45;&gt;Node24</title>
<path fill="none" stroke="#191970" d="M2107.1583,-724.418C2073.1909,-714.5543 2033.6099,-701.7234 1999,-687 1855.0765,-625.7736 1695.7377,-528.3513 1627.7361,-485.242"/>
<polygon fill="#191970" stroke="#191970" points="1629.4547,-482.187 1619.1388,-479.772 1625.6971,-488.093 1629.4547,-482.187"/>
</g>
<!-- Node41 -->
<g id="node41" class="node">
<title>Node41</title>
<polygon fill="none" stroke="#bfbfbf" points="2666.5,-246.5 2666.5,-266.5 2731.5,-266.5 2731.5,-246.5 2666.5,-246.5"/>
<text text-anchor="middle" x="2699" y="-253.5" font-family="FreeSans" font-size="10.00" fill="#000000">algorithm</text>
</g>
<!-- Node1&#45;&gt;Node41 -->
<g id="edge140" class="edge">
<title>Node1&#45;&gt;Node41</title>
<path fill="none" stroke="#191970" d="M2268.591,-735.7505C2395.0935,-718.1706 2626,-675.8926 2626,-601.5 2626,-601.5 2626,-601.5 2626,-394.5 2626,-346.5282 2660.894,-298.9254 2682.4323,-274.1119"/>
<polygon fill="#191970" stroke="#191970" points="2685.0923,-276.388 2689.1549,-266.603 2679.877,-271.7189 2685.0923,-276.388"/>
</g>
<!-- Node47 -->
<g id="node47" class="node">
<title>Node47</title>
<g id="a_node47"><a xlink:href="../../d0/d18/WhiteBoard_8hpp.html" target="_top" xlink:title="ActsExamples/Framework\l/WhiteBoard.hpp">
<polygon fill="none" stroke="#000000" points="2412.5,-309.5 2412.5,-341.5 2559.5,-341.5 2559.5,-309.5 2412.5,-309.5"/>
<text text-anchor="start" x="2420.5" y="-328.5" font-family="FreeSans" font-size="10.00" fill="#000000">ActsExamples/Framework</text>
<text text-anchor="middle" x="2486" y="-316.5" font-family="FreeSans" font-size="10.00" fill="#000000">/WhiteBoard.hpp</text>
</a>
</g>
</g>
<!-- Node1&#45;&gt;Node47 -->
<g id="edge136" class="edge">
<title>Node1&#45;&gt;Node47</title>
<path fill="none" stroke="#191970" d="M2268.8006,-726.6902C2309.1752,-715.8334 2352.4779,-701.4911 2367,-687 2462.5003,-591.7037 2481.3622,-418.4473 2485.0853,-352.2192"/>
<polygon fill="#191970" stroke="#191970" points="2488.6003,-351.9941 2485.5914,-341.8355 2481.6086,-351.6533 2488.6003,-351.9941"/>
</g>
<!-- Node50 -->
<g id="node50" class="node">
<title>Node50</title>
<g id="a_node50"><a xlink:href="../../d0/d93/EventDataTransforms_8hpp.html" target="_top" xlink:title="ActsExamples/Utilities\l/EventDataTransforms.hpp">
<polygon fill="none" stroke="#000000" points="2008,-654.5 2008,-686.5 2160,-686.5 2160,-654.5 2008,-654.5"/>
<text text-anchor="start" x="2016" y="-673.5" font-family="FreeSans" font-size="10.00" fill="#000000">ActsExamples/Utilities</text>
<text text-anchor="middle" x="2084" y="-661.5" font-family="FreeSans" font-size="10.00" fill="#000000">/EventDataTransforms.hpp</text>
</a>
</g>
</g>
<!-- Node1&#45;&gt;Node50 -->
<g id="edge137" class="edge">
<title>Node1&#45;&gt;Node50</title>
<path fill="none" stroke="#191970" d="M2157.3591,-723.4032C2143.9901,-713.7621 2128.3414,-702.477 2114.9389,-692.8117"/>
<polygon fill="#191970" stroke="#191970" points="2116.6606,-689.7381 2106.5024,-686.7277 2112.5661,-695.4158 2116.6606,-689.7381"/>
</g>
<!-- Node2&#45;&gt;Node3 -->
<g id="edge2" class="edge">
<title>Node2&#45;&gt;Node3</title>
<path fill="none" stroke="#191970" d="M2275.4257,-654.4791C2249.3558,-618.8141 2185.9808,-534.5489 2156,-516 2133.8505,-502.2963 2074.7154,-488.3168 2024.2085,-478.2323"/>
<polygon fill="#191970" stroke="#191970" points="2024.7235,-474.7665 2014.2357,-476.2685 2023.371,-481.6347 2024.7235,-474.7665"/>
</g>
<!-- Node2&#45;&gt;Node7 -->
<g id="edge6" class="edge">
<title>Node2&#45;&gt;Node7</title>
<path fill="none" stroke="#191970" d="M2248.731,-654.4966C2225.1789,-644.6475 2194.7987,-631.9431 2169.6877,-621.4421"/>
<polygon fill="#191970" stroke="#191970" points="2170.9231,-618.1651 2160.347,-617.536 2168.2224,-624.6232 2170.9231,-618.1651"/>
</g>
<!-- Node43 -->
<g id="node43" class="node">
<title>Node43</title>
<g id="a_node43"><a xlink:href="../../d3/d38/DataHandle_8hpp.html" target="_top" xlink:title="ActsExamples/Framework\l/DataHandle.hpp">
<polygon fill="none" stroke="#000000" points="2762.5,-378.5 2762.5,-410.5 2909.5,-410.5 2909.5,-378.5 2762.5,-378.5"/>
<text text-anchor="start" x="2770.5" y="-397.5" font-family="FreeSans" font-size="10.00" fill="#000000">ActsExamples/Framework</text>
<text text-anchor="middle" x="2836" y="-385.5" font-family="FreeSans" font-size="10.00" fill="#000000">/DataHandle.hpp</text>
</a>
</g>
</g>
<!-- Node2&#45;&gt;Node43 -->
<g id="edge102" class="edge">
<title>Node2&#45;&gt;Node43</title>
<path fill="none" stroke="#191970" d="M2308.3348,-654.3873C2362.5986,-614.0889 2511.4082,-507.8128 2650,-447 2682.4395,-432.7659 2719.7579,-421.3429 2752.4134,-412.8335"/>
<polygon fill="#191970" stroke="#191970" points="2753.5647,-416.1519 2762.3877,-410.2863 2751.8326,-409.3696 2753.5647,-416.1519"/>
</g>
<!-- Node49 -->
<g id="node49" class="node">
<title>Node49</title>
<g id="a_node49"><a xlink:href="../../d3/d98/IAlgorithm_8hpp.html" target="_top" xlink:title="ActsExamples/Framework\l/IAlgorithm.hpp">
<polygon fill="none" stroke="#000000" points="3107.5,-378.5 3107.5,-410.5 3254.5,-410.5 3254.5,-378.5 3107.5,-378.5"/>
<text text-anchor="start" x="3115.5" y="-397.5" font-family="FreeSans" font-size="10.00" fill="#000000">ActsExamples/Framework</text>
<text text-anchor="middle" x="3181" y="-385.5" font-family="FreeSans" font-size="10.00" fill="#000000">/IAlgorithm.hpp</text>
</a>
</g>
</g>
<!-- Node2&#45;&gt;Node49 -->
<g id="edge127" class="edge">
<title>Node2&#45;&gt;Node49</title>
<path fill="none" stroke="#191970" d="M2338.9294,-654.4681C2493.8508,-606.64 2952.3419,-465.0924 3119.3013,-413.5479"/>
<polygon fill="#191970" stroke="#191970" points="3120.4047,-416.8704 3128.9272,-410.5762 3118.3397,-410.1818 3120.4047,-416.8704"/>
</g>
<!-- Node4 -->
<g id="node4" class="node">
<title>Node4</title>
<g id="a_node4"><a xlink:href="../../d1/d1a/Index_8hpp.html" target="_top" xlink:title="ActsExamples/EventData\l/Index.hpp">
<polygon fill="none" stroke="#ff0000" points="1870,-378.5 1870,-410.5 2014,-410.5 2014,-378.5 1870,-378.5"/>
<text text-anchor="start" x="1878" y="-397.5" font-family="FreeSans" font-size="10.00" fill="#000000">ActsExamples/EventData</text>
<text text-anchor="middle" x="1942" y="-385.5" font-family="FreeSans" font-size="10.00" fill="#000000">/Index.hpp</text>
</a>
</g>
</g>
<!-- Node3&#45;&gt;Node4 -->
<g id="edge3" class="edge">
<title>Node3&#45;&gt;Node4</title>
<path fill="none" stroke="#191970" d="M1942,-447.4966C1942,-439.599 1942,-429.8656 1942,-420.9044"/>
<polygon fill="#191970" stroke="#191970" points="1945.5001,-420.8957 1942,-410.8958 1938.5001,-420.8958 1945.5001,-420.8957"/>
</g>
<!-- Node5 -->
<g id="node5" class="node">
<title>Node5</title>
<polygon fill="none" stroke="#bfbfbf" points="2294.5,-246.5 2294.5,-266.5 2343.5,-266.5 2343.5,-246.5 2294.5,-246.5"/>
<text text-anchor="middle" x="2319" y="-253.5" font-family="FreeSans" font-size="10.00" fill="#000000">vector</text>
</g>
<!-- Node3&#45;&gt;Node5 -->
<g id="edge4" class="edge">
<title>Node3&#45;&gt;Node5</title>
<path fill="none" stroke="#191970" d="M1971.2689,-447.4293C2042.1533,-408.5086 2222.2747,-309.6091 2291.4045,-271.6519"/>
<polygon fill="#191970" stroke="#191970" points="2293.3184,-274.594 2300.3995,-266.713 2289.9493,-268.458 2293.3184,-274.594"/>
</g>
<!-- Node6 -->
<g id="node6" class="node">
<title>Node6</title>
<polygon fill="none" stroke="#bfbfbf" points="1186,-240.5 1186,-272.5 1312,-272.5 1312,-240.5 1186,-240.5"/>
<text text-anchor="start" x="1194" y="-259.5" font-family="FreeSans" font-size="10.00" fill="#000000">boost/container/small</text>
<text text-anchor="middle" x="1249" y="-247.5" font-family="FreeSans" font-size="10.00" fill="#000000">_vector.hpp</text>
</g>
<!-- Node3&#45;&gt;Node6 -->
<g id="edge5" class="edge">
<title>Node3&#45;&gt;Node6</title>
<path fill="none" stroke="#191970" d="M1869.9588,-458.886C1716.0011,-448.7908 1367.0612,-424.5643 1345,-411 1297.0109,-381.4939 1269.2871,-318.0871 1256.888,-282.3539"/>
<polygon fill="#191970" stroke="#191970" points="1260.1349,-281.0257 1253.6594,-272.6401 1253.4922,-283.2336 1260.1349,-281.0257"/>
</g>
<!-- Node7&#45;&gt;Node5 -->
<g id="edge101" class="edge">
<title>Node7&#45;&gt;Node5</title>
<path fill="none" stroke="#191970" d="M2194.2321,-593.7913C2254.3122,-585.8941 2333.5011,-571.5448 2356,-549 2383.4975,-521.4465 2375,-502.427 2375,-463.5 2375,-463.5 2375,-463.5 2375,-394.5 2375,-348.9049 2348.4278,-300.6439 2331.8915,-275.0249"/>
<polygon fill="#191970" stroke="#191970" points="2334.7762,-273.042 2326.321,-266.6576 2328.9493,-276.9212 2334.7762,-273.042"/>
</g>
<!-- Node8 -->
<g id="node8" class="node">
<title>Node8</title>
<g id="a_node8"><a xlink:href="../../d0/d0b/Seed_8hpp.html" target="_top" xlink:title="Acts/Seeding/Seed.hpp">
<polygon fill="none" stroke="#ff0000" points="1988.5,-315.5 1988.5,-335.5 2123.5,-335.5 2123.5,-315.5 1988.5,-315.5"/>
<text text-anchor="middle" x="2056" y="-322.5" font-family="FreeSans" font-size="10.00" fill="#000000">Acts/Seeding/Seed.hpp</text>
</a>
</g>
</g>
<!-- Node7&#45;&gt;Node8 -->
<g id="edge7" class="edge">
<title>Node7&#45;&gt;Node8</title>
<path fill="none" stroke="#191970" d="M2113.7842,-585.3083C2108.8935,-575.1089 2102.9004,-561.5427 2099,-549 2076.3115,-476.0398 2063.3649,-385.7836 2058.388,-345.9869"/>
<polygon fill="#191970" stroke="#191970" points="2061.8491,-345.4541 2057.1697,-335.9487 2054.9001,-346.2975 2061.8491,-345.4541"/>
</g>
<!-- Node9 -->
<g id="node9" class="node">
<title>Node9</title>
<g id="a_node9"><a xlink:href="../../d2/d99/SimSpacePoint_8hpp.html" target="_top" xlink:title="ActsExamples/EventData\l/SimSpacePoint.hpp">
<polygon fill="none" stroke="#ff0000" points="2203,-516.5 2203,-548.5 2347,-548.5 2347,-516.5 2203,-516.5"/>
<text text-anchor="start" x="2211" y="-535.5" font-family="FreeSans" font-size="10.00" fill="#000000">ActsExamples/EventData</text>
<text text-anchor="middle" x="2275" y="-523.5" font-family="FreeSans" font-size="10.00" fill="#000000">/SimSpacePoint.hpp</text>
</a>
</g>
</g>
<!-- Node7&#45;&gt;Node9 -->
<g id="edge10" class="edge">
<title>Node7&#45;&gt;Node9</title>
<path fill="none" stroke="#191970" d="M2157.4858,-585.4966C2179.1326,-575.7343 2206.9999,-563.1667 2230.1639,-552.7202"/>
<polygon fill="#191970" stroke="#191970" points="2231.7649,-555.8377 2239.4419,-548.536 2228.8871,-549.4566 2231.7649,-555.8377"/>
</g>
<!-- Node42 -->
<g id="node42" class="node">
<title>Node42</title>
<polygon fill="none" stroke="#bfbfbf" points="2107.5,-522.5 2107.5,-542.5 2146.5,-542.5 2146.5,-522.5 2107.5,-522.5"/>
<text text-anchor="middle" x="2127" y="-529.5" font-family="FreeSans" font-size="10.00" fill="#000000">map</text>
</g>
<!-- Node7&#45;&gt;Node42 -->
<g id="edge100" class="edge">
<title>Node7&#45;&gt;Node42</title>
<path fill="none" stroke="#191970" d="M2123.1597,-585.4966C2123.863,-575.7901 2124.7674,-563.3104 2125.5218,-552.8996"/>
<polygon fill="#191970" stroke="#191970" points="2129.0329,-552.871 2126.2649,-542.6441 2122.0512,-552.365 2129.0329,-552.871"/>
</g>
<!-- Node8&#45;&gt;Node5 -->
<g id="edge8" class="edge">
<title>Node8&#45;&gt;Node5</title>
<path fill="none" stroke="#191970" d="M2094.2425,-315.4668C2145.4494,-302.0323 2235.5272,-278.3997 2284.6634,-265.5085"/>
<polygon fill="#191970" stroke="#191970" points="2285.7139,-268.8514 2294.4984,-262.9282 2283.9375,-262.0805 2285.7139,-268.8514"/>
</g>
<!-- Node8&#45;&gt;Node6 -->
<g id="edge9" class="edge">
<title>Node8&#45;&gt;Node6</title>
<path fill="none" stroke="#191970" d="M1988.2378,-319.7062C1838.0295,-306.8631 1478.1177,-276.09 1322.6198,-262.7946"/>
<polygon fill="#191970" stroke="#191970" points="1322.4918,-259.271 1312.23,-261.9063 1321.8954,-266.2456 1322.4918,-259.271"/>
</g>
<!-- Node9&#45;&gt;Node4 -->
<g id="edge33" class="edge">
<title>Node9&#45;&gt;Node4</title>
<path fill="none" stroke="#191970" d="M2220.5991,-516.3991C2189.8286,-506.8027 2150.8522,-493.8215 2117,-480 2069.0086,-460.4056 2015.7399,-433.6185 1980.724,-415.2796"/>
<polygon fill="#191970" stroke="#191970" points="1982.27,-412.1382 1971.7908,-410.5768 1979.0091,-418.3323 1982.27,-412.1382"/>
</g>
<!-- Node9&#45;&gt;Node5 -->
<g id="edge99" class="edge">
<title>Node9&#45;&gt;Node5</title>
<path fill="none" stroke="#191970" d="M2277.5558,-516.4681C2285.1255,-468.9854 2307.421,-329.1318 2315.7831,-276.6785"/>
<polygon fill="#191970" stroke="#191970" points="2319.2694,-277.0413 2317.3875,-266.6149 2312.3567,-275.9392 2319.2694,-277.0413"/>
</g>
<!-- Node10 -->
<g id="node10" class="node">
<title>Node10</title>
<g id="a_node10"><a xlink:href="../../da/dd2/Algebra_8hpp.html" target="_top" xlink:title="Acts/Definitions/Algebra.hpp">
<polygon fill="none" stroke="#ff0000" points="528,-.5 528,-20.5 690,-20.5 690,-.5 528,-.5"/>
<text text-anchor="middle" x="609" y="-7.5" font-family="FreeSans" font-size="10.00" fill="#000000">Acts/Definitions/Algebra.hpp</text>
</a>
</g>
</g>
<!-- Node9&#45;&gt;Node10 -->
<g id="edge11" class="edge">
<title>Node9&#45;&gt;Node10</title>
<path fill="none" stroke="#191970" d="M2273.2647,-516.3756C2270.6494,-490.6406 2266,-438.677 2266,-394.5 2266,-394.5 2266,-394.5 2266,-325.5 2266,-258.8107 2264.9335,-231.3484 2219,-183 2160.56,-121.4875 2123.7838,-132.5972 2041,-114 1783.7811,-56.2165 973.9331,-23.2597 700.3361,-13.5535"/>
<polygon fill="#191970" stroke="#191970" points="700.1675,-10.0455 690.0502,-13.1906 699.9206,-17.0411 700.1675,-10.0455"/>
</g>
<!-- Node11 -->
<g id="node11" class="node">
<title>Node11</title>
<g id="a_node11"><a xlink:href="../../d8/ddd/Common_8hpp.html" target="_top" xlink:title="Acts/Definitions/Common.hpp">
<polygon fill="none" stroke="#ff0000" points="1130,-120.5 1130,-140.5 1298,-140.5 1298,-120.5 1130,-120.5"/>
<text text-anchor="middle" x="1214" y="-127.5" font-family="FreeSans" font-size="10.00" fill="#000000">Acts/Definitions/Common.hpp</text>
</a>
</g>
</g>
<!-- Node9&#45;&gt;Node11 -->
<g id="edge12" class="edge">
<title>Node9&#45;&gt;Node11</title>
<path fill="none" stroke="#191970" d="M2256.5563,-516.2263C2231.5571,-492.2685 2190,-444.8677 2190,-394.5 2190,-394.5 2190,-394.5 2190,-325.5 2190,-262.0669 2241.9392,-228.7504 2198,-183 2163.684,-147.2695 1356.2518,-152.3393 1307,-147 1296.141,-145.8228 1284.6368,-144.1411 1273.5582,-142.2972"/>
<polygon fill="#191970" stroke="#191970" points="1273.9839,-138.819 1263.5344,-140.568 1272.7938,-145.7171 1273.9839,-138.819"/>
</g>
<!-- Node12 -->
<g id="node12" class="node">
<title>Node12</title>
<g id="a_node12"><a xlink:href="../../d8/d6e/SourceLink_8hpp.html" target="_top" xlink:title="Acts/EventData/SourceLink.hpp">
<polygon fill="none" stroke="#000000" points="1570,-315.5 1570,-335.5 1746,-335.5 1746,-315.5 1570,-315.5"/>
<text text-anchor="middle" x="1658" y="-322.5" font-family="FreeSans" font-size="10.00" fill="#000000">Acts/EventData/SourceLink.hpp</text>
</a>
</g>
</g>
<!-- Node9&#45;&gt;Node12 -->
<g id="edge13" class="edge">
<title>Node9&#45;&gt;Node12</title>
<path fill="none" stroke="#191970" d="M2242.4457,-516.2804C2222.9111,-506.2912 2197.721,-492.9553 2176,-480 2105.8107,-438.1362 2099.3295,-407.2047 2023,-378 1975.6693,-359.8906 1847.2878,-344.1014 1756.2033,-334.6885"/>
<polygon fill="#191970" stroke="#191970" points="1756.4277,-331.1932 1746.1233,-333.657 1755.715,-338.1569 1756.4277,-331.1932"/>
</g>
<!-- Node9&#45;&gt;Node24 -->
<g id="edge34" class="edge">
<title>Node9&#45;&gt;Node24</title>
<path fill="none" stroke="#191970" d="M2202.6965,-521.9489C2187.2997,-519.8495 2171.1245,-517.7541 2156,-516 1985.8532,-496.2668 1786.0515,-479.0054 1676.4128,-470.0399"/>
<polygon fill="#191970" stroke="#191970" points="1676.6631,-466.5488 1666.4117,-469.2247 1676.0943,-473.5256 1676.6631,-466.5488"/>
</g>
<!-- Node13 -->
<g id="node13" class="node">
<title>Node13</title>
<g id="a_node13"><a xlink:href="../../d5/d67/GeometryIdentifier_8hpp.html" target="_top" xlink:title="Acts/Geometry/GeometryIdentifier.hpp">
<polygon fill="none" stroke="#ff0000" points="878.5,-246.5 878.5,-266.5 1091.5,-266.5 1091.5,-246.5 878.5,-246.5"/>
<text text-anchor="middle" x="985" y="-253.5" font-family="FreeSans" font-size="10.00" fill="#000000">Acts/Geometry/GeometryIdentifier.hpp</text>
</a>
</g>
</g>
<!-- Node12&#45;&gt;Node13 -->
<g id="edge14" class="edge">
<title>Node12&#45;&gt;Node13</title>
<path fill="none" stroke="#191970" d="M1569.6712,-316.444C1446.9823,-303.8652 1225.1875,-281.1255 1092.8704,-267.5595"/>
<polygon fill="#191970" stroke="#191970" points="1093.0194,-264.0565 1082.7145,-266.5183 1092.3054,-271.02 1093.0194,-264.0565"/>
</g>
<!-- Node14 -->
<g id="node14" class="node">
<title>Node14</title>
<polygon fill="none" stroke="#bfbfbf" points="1067.5,-120.5 1067.5,-140.5 1112.5,-140.5 1112.5,-120.5 1067.5,-120.5"/>
<text text-anchor="middle" x="1090" y="-127.5" font-family="FreeSans" font-size="10.00" fill="#000000">utility</text>
</g>
<!-- Node12&#45;&gt;Node14 -->
<g id="edge32" class="edge">
<title>Node12&#45;&gt;Node14</title>
<path fill="none" stroke="#191970" d="M1626.7106,-315.4394C1519.3431,-280.8703 1169.8165,-167.9285 1121,-147 1119.6341,-146.4144 1118.2473,-145.7908 1116.8559,-145.1416"/>
<polygon fill="#191970" stroke="#191970" points="1118.2923,-141.9469 1107.7808,-140.6203 1115.1708,-148.2124 1118.2923,-141.9469"/>
</g>
<!-- Node15 -->
<g id="node15" class="node">
<title>Node15</title>
<g id="a_node15"><a xlink:href="../../d8/dfe/Any_8hpp.html" target="_top" xlink:title="Acts/Utilities/Any.hpp">
<polygon fill="none" stroke="#ff0000" points="1596,-246.5 1596,-266.5 1720,-266.5 1720,-246.5 1596,-246.5"/>
<text text-anchor="middle" x="1658" y="-253.5" font-family="FreeSans" font-size="10.00" fill="#000000">Acts/Utilities/Any.hpp</text>
</a>
</g>
</g>
<!-- Node12&#45;&gt;Node15 -->
<g id="edge16" class="edge">
<title>Node12&#45;&gt;Node15</title>
<path fill="none" stroke="#191970" d="M1658,-315.3188C1658,-305.2289 1658,-289.4925 1658,-276.8347"/>
<polygon fill="#191970" stroke="#191970" points="1661.5001,-276.7229 1658,-266.723 1654.5001,-276.723 1661.5001,-276.7229"/>
</g>
<!-- Node16 -->
<g id="node16" class="node">
<title>Node16</title>
<polygon fill="none" stroke="#bfbfbf" points="1487.5,-183.5 1487.5,-203.5 1540.5,-203.5 1540.5,-183.5 1487.5,-183.5"/>
<text text-anchor="middle" x="1514" y="-190.5" font-family="FreeSans" font-size="10.00" fill="#000000">cassert</text>
</g>
<!-- Node12&#45;&gt;Node16 -->
<g id="edge29" class="edge">
<title>Node12&#45;&gt;Node16</title>
<path fill="none" stroke="#191970" d="M1642.6704,-315.4295C1627.8353,-305.3977 1605.0114,-289.1951 1587,-273 1565.2862,-253.4758 1542.9576,-228.2624 1528.8089,-211.521"/>
<polygon fill="#191970" stroke="#191970" points="1531.2998,-209.0436 1522.2022,-203.6137 1525.928,-213.5318 1531.2998,-209.0436"/>
</g>
<!-- Node19 -->
<g id="node19" class="node">
<title>Node19</title>
<g id="a_node19"><a xlink:href="../../d6/d7f/Delegate_8hpp.html" target="_top" xlink:title="Acts/Utilities/Delegate.hpp">
<polygon fill="none" stroke="#ff0000" points="1738,-246.5 1738,-266.5 1890,-266.5 1890,-246.5 1738,-246.5"/>
<text text-anchor="middle" x="1814" y="-253.5" font-family="FreeSans" font-size="10.00" fill="#000000">Acts/Utilities/Delegate.hpp</text>
</a>
</g>
</g>
<!-- Node12&#45;&gt;Node19 -->
<g id="edge21" class="edge">
<title>Node12&#45;&gt;Node19</title>
<path fill="none" stroke="#191970" d="M1680.6837,-315.4668C1707.3719,-303.6624 1751.8608,-283.9847 1782.0356,-270.6381"/>
<polygon fill="#191970" stroke="#191970" points="1783.5593,-273.7913 1791.2889,-266.5453 1780.7277,-267.3895 1783.5593,-273.7913"/>
</g>
<!-- Node20 -->
<g id="node20" class="node">
<title>Node20</title>
<g id="a_node20"><a xlink:href="../../d0/d81/TypeTraits_8hpp.html" target="_top" xlink:title="Acts/Utilities/TypeTraits.hpp">
<polygon fill="none" stroke="#ff0000" points="1825,-183.5 1825,-203.5 1981,-203.5 1981,-183.5 1825,-183.5"/>
<text text-anchor="middle" x="1903" y="-190.5" font-family="FreeSans" font-size="10.00" fill="#000000">Acts/Utilities/TypeTraits.hpp</text>
</a>
</g>
</g>
<!-- Node12&#45;&gt;Node20 -->
<g id="edge28" class="edge">
<title>Node12&#45;&gt;Node20</title>
<path fill="none" stroke="#191970" d="M1746.1585,-317.4537C1806.5754,-309.9495 1879.2334,-296.3117 1899,-273 1912.7666,-256.7644 1911.415,-231.2853 1908.1541,-213.5637"/>
<polygon fill="#191970" stroke="#191970" points="1911.5494,-212.7062 1905.9951,-203.684 1904.7108,-214.2007 1911.5494,-212.7062"/>
</g>
<!-- Node22 -->
<g id="node22" class="node">
<title>Node22</title>
<polygon fill="none" stroke="#bfbfbf" points="1868,-.5 1868,-20.5 1938,-20.5 1938,-.5 1868,-.5"/>
<text text-anchor="middle" x="1903" y="-7.5" font-family="FreeSans" font-size="10.00" fill="#000000">type_traits</text>
</g>
<!-- Node12&#45;&gt;Node22 -->
<g id="edge31" class="edge">
<title>Node12&#45;&gt;Node22</title>
<path fill="none" stroke="#191970" d="M1746.4634,-322.3077C1862.9533,-316.9591 2060.6557,-303.5968 2126,-273 2166.1397,-254.205 2180.6041,-244.7655 2198,-204 2245.7328,-92.1432 2041.9571,-37.3968 1948.104,-18.4599"/>
<polygon fill="#191970" stroke="#191970" points="1948.5189,-14.9746 1938.0316,-16.4801 1947.1688,-21.8431 1948.5189,-14.9746"/>
</g>
<!-- Node23 -->
<g id="node23" class="node">
<title>Node23</title>
<polygon fill="none" stroke="#bfbfbf" points="2129,-183.5 2129,-203.5 2189,-203.5 2189,-183.5 2129,-183.5"/>
<text text-anchor="middle" x="2159" y="-190.5" font-family="FreeSans" font-size="10.00" fill="#000000">iostream</text>
</g>
<!-- Node12&#45;&gt;Node23 -->
<g id="edge30" class="edge">
<title>Node12&#45;&gt;Node23</title>
<path fill="none" stroke="#191970" d="M1746.3644,-322.6933C1856.3906,-317.8696 2036.9433,-305.1915 2095,-273 2119.9401,-259.1711 2138.8172,-231.3077 2149.3971,-212.5226"/>
<polygon fill="#191970" stroke="#191970" points="2152.5146,-214.1151 2154.1616,-203.649 2146.3473,-210.8037 2152.5146,-214.1151"/>
</g>
<!-- Node13&#45;&gt;Node14 -->
<g id="edge15" class="edge">
<title>Node13&#45;&gt;Node14</title>
<path fill="none" stroke="#191970" d="M980.1246,-246.3139C973.6769,-231.2181 964.5033,-202.5856 977,-183 986.2517,-168.5002 1027.6128,-151.7563 1057.6216,-141.1513"/>
<polygon fill="#191970" stroke="#191970" points="1058.9947,-144.3799 1067.3005,-137.8023 1056.7057,-137.7647 1058.9947,-144.3799"/>
</g>
<!-- Node15&#45;&gt;Node14 -->
<g id="edge20" class="edge">
<title>Node15&#45;&gt;Node14</title>
<path fill="none" stroke="#191970" d="M1643.2768,-246.284C1614.7442,-226.5265 1554.2475,-184.8479 1549,-183 1368.9446,-119.5921 1304.1119,-200.9491 1121,-147 1119.0701,-146.4314 1117.1226,-145.7352 1115.1941,-144.9538"/>
<polygon fill="#191970" stroke="#191970" points="1116.4147,-141.6589 1105.8799,-140.5323 1113.4128,-147.9826 1116.4147,-141.6589"/>
</g>
<!-- Node15&#45;&gt;Node16 -->
<g id="edge17" class="edge">
<title>Node15&#45;&gt;Node16</title>
<path fill="none" stroke="#191970" d="M1634.8639,-246.378C1610.9311,-235.9073 1573.3598,-219.4699 1546.4609,-207.7016"/>
<polygon fill="#191970" stroke="#191970" points="1547.6431,-204.3986 1537.0787,-203.5969 1544.8374,-210.8117 1547.6431,-204.3986"/>
</g>
<!-- Node17 -->
<g id="node17" class="node">
<title>Node17</title>
<polygon fill="none" stroke="#bfbfbf" points="1316,-120.5 1316,-140.5 1370,-140.5 1370,-120.5 1316,-120.5"/>
<text text-anchor="middle" x="1343" y="-127.5" font-family="FreeSans" font-size="10.00" fill="#000000">cstddef</text>
</g>
<!-- Node15&#45;&gt;Node17 -->
<g id="edge18" class="edge">
<title>Node15&#45;&gt;Node17</title>
<path fill="none" stroke="#191970" d="M1650.7406,-246.3746C1638.6271,-230.2764 1612.6738,-199.0313 1583,-183 1517.4491,-147.5861 1429.6104,-136.0574 1380.4211,-132.3066"/>
<polygon fill="#191970" stroke="#191970" points="1380.46,-128.801 1370.2417,-131.6002 1379.9753,-135.7842 1380.46,-128.801"/>
</g>
<!-- Node18 -->
<g id="node18" class="node">
<title>Node18</title>
<polygon fill="none" stroke="#bfbfbf" points="1626,-120.5 1626,-140.5 1684,-140.5 1684,-120.5 1626,-120.5"/>
<text text-anchor="middle" x="1655" y="-127.5" font-family="FreeSans" font-size="10.00" fill="#000000">memory</text>
</g>
<!-- Node15&#45;&gt;Node18 -->
<g id="edge19" class="edge">
<title>Node15&#45;&gt;Node18</title>
<path fill="none" stroke="#191970" d="M1657.7545,-246.1889C1657.2598,-225.4121 1656.1352,-178.1771 1655.4863,-150.923"/>
<polygon fill="#191970" stroke="#191970" points="1658.9776,-150.5153 1655.2405,-140.6014 1651.9796,-150.6819 1658.9776,-150.5153"/>
</g>
<!-- Node19&#45;&gt;Node16 -->
<g id="edge25" class="edge">
<title>Node19&#45;&gt;Node16</title>
<path fill="none" stroke="#191970" d="M1766.1324,-246.4478C1706.1441,-233.8503 1604.6528,-212.5371 1550.5403,-201.1735"/>
<polygon fill="#191970" stroke="#191970" points="1551.1979,-197.7353 1540.692,-199.1053 1549.7592,-204.5859 1551.1979,-197.7353"/>
</g>
<!-- Node19&#45;&gt;Node18 -->
<g id="edge26" class="edge">
<title>Node19&#45;&gt;Node18</title>
<path fill="none" stroke="#191970" d="M1783.9771,-246.4227C1761.1331,-237.7157 1729.8392,-223.457 1707,-204 1689.0665,-188.7222 1674.2252,-165.9572 1665.0513,-149.8168"/>
<polygon fill="#191970" stroke="#191970" points="1667.9623,-147.845 1660.0946,-140.7493 1661.8201,-151.2027 1667.9623,-147.845"/>
</g>
<!-- Node19&#45;&gt;Node20 -->
<g id="edge22" class="edge">
<title>Node19&#45;&gt;Node20</title>
<path fill="none" stroke="#191970" d="M1828.2994,-246.378C1842.3127,-236.4584 1863.8913,-221.1837 1880.2597,-209.597"/>
<polygon fill="#191970" stroke="#191970" points="1882.5962,-212.2313 1888.7361,-203.5969 1878.5518,-206.5179 1882.5962,-212.2313"/>
</g>
<!-- Node19&#45;&gt;Node22 -->
<g id="edge27" class="edge">
<title>Node19&#45;&gt;Node22</title>
<path fill="none" stroke="#191970" d="M1812.8957,-246.3238C1811.6456,-231.9597 1810.441,-205.0314 1816,-183 1831.1708,-122.8751 1869.8027,-59.6274 1890.098,-29.124"/>
<polygon fill="#191970" stroke="#191970" points="1893.0593,-30.9929 1895.7616,-20.7484 1887.2606,-27.0718 1893.0593,-30.9929"/>
</g>
<!-- Node21 -->
<g id="node21" class="node">
<title>Node21</title>
<polygon fill="none" stroke="#bfbfbf" points="1986.5,-120.5 1986.5,-140.5 2031.5,-140.5 2031.5,-120.5 1986.5,-120.5"/>
<text text-anchor="middle" x="2009" y="-127.5" font-family="FreeSans" font-size="10.00" fill="#000000">string</text>
</g>
<!-- Node20&#45;&gt;Node21 -->
<g id="edge23" class="edge">
<title>Node20&#45;&gt;Node21</title>
<path fill="none" stroke="#191970" d="M1920.0307,-183.378C1937.1071,-173.2288 1963.6158,-157.4736 1983.2597,-145.7985"/>
<polygon fill="#191970" stroke="#191970" points="1985.2034,-148.7148 1992.0115,-140.5969 1981.627,-142.6974 1985.2034,-148.7148"/>
</g>
<!-- Node20&#45;&gt;Node22 -->
<g id="edge24" class="edge">
<title>Node20&#45;&gt;Node22</title>
<path fill="none" stroke="#191970" d="M1903,-183.4005C1903,-154.3483 1903,-70.1439 1903,-30.9791"/>
<polygon fill="#191970" stroke="#191970" points="1906.5001,-30.7939 1903,-20.7939 1899.5001,-30.7939 1906.5001,-30.7939"/>
</g>
<!-- Node24&#45;&gt;Node4 -->
<g id="edge97" class="edge">
<title>Node24&#45;&gt;Node4</title>
<path fill="none" stroke="#191970" d="M1666.1058,-449.2032C1722.565,-438.0087 1801.1233,-422.4324 1859.978,-410.763"/>
<polygon fill="#191970" stroke="#191970" points="1860.8582,-414.1567 1869.9865,-408.7785 1859.4968,-407.2903 1860.8582,-414.1567"/>
</g>
<!-- Node24&#45;&gt;Node12 -->
<g id="edge35" class="edge">
<title>Node24&#45;&gt;Node12</title>
<path fill="none" stroke="#191970" d="M1601.4669,-447.3996C1613.2792,-421.9293 1636.2375,-372.4253 1648.962,-344.9882"/>
<polygon fill="#191970" stroke="#191970" points="1652.261,-346.1937 1653.2931,-335.6492 1645.9106,-343.2486 1652.261,-346.1937"/>
</g>
<!-- Node24&#45;&gt;Node16 -->
<g id="edge98" class="edge">
<title>Node24&#45;&gt;Node16</title>
<path fill="none" stroke="#191970" d="M1589.2352,-447.4188C1575.3837,-400.67 1535.1472,-264.8717 1519.9267,-213.5026"/>
<polygon fill="#191970" stroke="#191970" points="1523.1974,-212.2208 1517.0006,-203.6271 1516.4858,-214.2094 1523.1974,-212.2208"/>
</g>
<!-- Node25 -->
<g id="node25" class="node">
<title>Node25</title>
<g id="a_node25"><a xlink:href="../../dd/d24/TrackingGeometry_8hpp.html" target="_top" xlink:title="Acts/Geometry/TrackingGeometry.hpp">
<polygon fill="none" stroke="#000000" points="638.5,-384.5 638.5,-404.5 847.5,-404.5 847.5,-384.5 638.5,-384.5"/>
<text text-anchor="middle" x="743" y="-391.5" font-family="FreeSans" font-size="10.00" fill="#000000">Acts/Geometry/TrackingGeometry.hpp</text>
</a>
</g>
</g>
<!-- Node24&#45;&gt;Node25 -->
<g id="edge36" class="edge">
<title>Node24&#45;&gt;Node25</title>
<path fill="none" stroke="#191970" d="M1521.8113,-457.6469C1374.0802,-445.6687 1036.2098,-418.2738 857.964,-403.8214"/>
<polygon fill="#191970" stroke="#191970" points="858.0165,-400.3143 847.7663,-402.9946 857.4508,-407.2914 858.0165,-400.3143"/>
</g>
<!-- Node28 -->
<g id="node28" class="node">
<title>Node28</title>
<g id="a_node28"><a xlink:href="../../d8/ddd/Surface_8hpp.html" target="_top" xlink:title="Acts/Surfaces/Surface.hpp">
<polygon fill="none" stroke="#ff0000" points="775,-183.5 775,-203.5 925,-203.5 925,-183.5 775,-183.5"/>
<text text-anchor="middle" x="850" y="-190.5" font-family="FreeSans" font-size="10.00" fill="#000000">Acts/Surfaces/Surface.hpp</text>
</a>
</g>
</g>
<!-- Node24&#45;&gt;Node28 -->
<g id="edge87" class="edge">
<title>Node24&#45;&gt;Node28</title>
<path fill="none" stroke="#191970" d="M1521.9056,-453.0066C1463.1114,-443.827 1378.129,-429.1379 1305,-411 1107.7247,-362.0707 1007.4595,-421.7971 869,-273 854.18,-257.0735 850.2961,-231.712 849.5649,-213.9272"/>
<polygon fill="#191970" stroke="#191970" points="853.0628,-213.7077 849.4518,-203.7473 846.0632,-213.7856 853.0628,-213.7077"/>
</g>
<!-- Node40 -->
<g id="node40" class="node">
<title>Node40</title>
<g id="a_node40"><a xlink:href="../../d7/dab/GeometryContainers_8hpp.html" target="_top" xlink:title="ActsExamples/EventData\l/GeometryContainers.hpp">
<polygon fill="none" stroke="#ff0000" points="1354,-378.5 1354,-410.5 1502,-410.5 1502,-378.5 1354,-378.5"/>
<text text-anchor="start" x="1362" y="-397.5" font-family="FreeSans" font-size="10.00" fill="#000000">ActsExamples/EventData</text>
<text text-anchor="middle" x="1428" y="-385.5" font-family="FreeSans" font-size="10.00" fill="#000000">/GeometryContainers.hpp</text>
</a>
</g>
</g>
<!-- Node24&#45;&gt;Node40 -->
<g id="edge88" class="edge">
<title>Node24&#45;&gt;Node40</title>
<path fill="none" stroke="#191970" d="M1555.499,-447.4966C1531.8042,-437.6475 1501.2399,-424.9431 1475.9768,-414.4421"/>
<polygon fill="#191970" stroke="#191970" points="1477.1568,-411.1424 1466.5794,-410.536 1474.47,-417.6062 1477.1568,-411.1424"/>
</g>
<!-- Node25&#45;&gt;Node10 -->
<g id="edge37" class="edge">
<title>Node25&#45;&gt;Node10</title>
<path fill="none" stroke="#191970" d="M638.2732,-392.5736C453.8117,-388.3244 85.8573,-375.6948 38,-342 3.9981,-318.0603 0,-298.0841 0,-256.5 0,-256.5 0,-256.5 0,-130.5 0,-78.3906 347.6614,-36.5202 517.6253,-19.1642"/>
<polygon fill="#191970" stroke="#191970" points="518.2187,-22.6221 527.8147,-18.1313 517.5127,-15.6578 518.2187,-22.6221"/>
</g>
<!-- Node25&#45;&gt;Node13 -->
<g id="edge39" class="edge">
<title>Node25&#45;&gt;Node13</title>
<path fill="none" stroke="#191970" d="M760.7948,-384.3525C802.8384,-360.3773 908.5124,-300.1169 958.2844,-271.7345"/>
<polygon fill="#191970" stroke="#191970" points="960.226,-274.6564 967.1791,-266.6623 956.7584,-268.5756 960.226,-274.6564"/>
</g>
<!-- Node25&#45;&gt;Node14 -->
<g id="edge86" class="edge">
<title>Node25&#45;&gt;Node14</title>
<path fill="none" stroke="#191970" d="M638.4828,-386.7473C436.6577,-369.787 19.4786,-324.0284 95,-240 233.0974,-86.3468 816.0976,-180.2267 1020,-147 1032.3907,-144.9809 1045.8465,-142.0025 1057.6194,-139.1299"/>
<polygon fill="#191970" stroke="#191970" points="1058.6157,-142.4885 1067.4629,-136.6594 1056.9117,-135.699 1058.6157,-142.4885"/>
</g>
<!-- Node25&#45;&gt;Node18 -->
<g id="edge83" class="edge">
<title>Node25&#45;&gt;Node18</title>
<path fill="none" stroke="#191970" d="M790.4655,-384.4423C861.2242,-368.1371 997.0643,-331.7094 1100,-273 1153.3902,-242.5489 1148.4981,-207.1932 1205,-183 1351.5979,-120.2293 1404.0457,-168.9446 1562,-147 1579.7545,-144.5334 1599.3034,-141.1648 1615.877,-138.1143"/>
<polygon fill="#191970" stroke="#191970" points="1616.5817,-141.5433 1625.7693,-136.2669 1615.2967,-134.6622 1616.5817,-141.5433"/>
</g>
<!-- Node25&#45;&gt;Node21 -->
<g id="edge84" class="edge">
<title>Node25&#45;&gt;Node21</title>
<path fill="none" stroke="#191970" d="M816.9084,-384.4829C868.3402,-376.2484 937.9989,-362.5523 997,-342 1061.3813,-319.5736 1076.2585,-309.2466 1134,-273 1154.4034,-260.192 1155.0118,-249.842 1177,-240 1324.4346,-174.0073 1840.6947,-140.1828 1976.2155,-132.3123"/>
<polygon fill="#191970" stroke="#191970" points="1976.5899,-135.7967 1986.3731,-131.7298 1976.1891,-128.8081 1976.5899,-135.7967"/>
</g>
<!-- Node26 -->
<g id="node26" class="node">
<title>Node26</title>
<g id="a_node26"><a xlink:href="../../d1/db8/GeometryContext_8hpp.html" target="_top" xlink:title="Acts/Geometry/GeometryContext.hpp">
<polygon fill="none" stroke="#ff0000" points="335,-120.5 335,-140.5 543,-140.5 543,-120.5 335,-120.5"/>
<text text-anchor="middle" x="439" y="-127.5" font-family="FreeSans" font-size="10.00" fill="#000000">Acts/Geometry/GeometryContext.hpp</text>
</a>
</g>
</g>
<!-- Node25&#45;&gt;Node26 -->
<g id="edge38" class="edge">
<title>Node25&#45;&gt;Node26</title>
<path fill="none" stroke="#191970" d="M638.4017,-390.1316C452.3027,-381.8483 81.2719,-362.8148 62,-342 12.6378,-288.6859 38.7605,-222.099 100,-183 136.539,-159.6713 241.1515,-145.8974 324.5969,-138.3555"/>
<polygon fill="#191970" stroke="#191970" points="325.009,-141.8328 334.6622,-137.4664 324.393,-134.8599 325.009,-141.8328"/>
</g>
<!-- Node27 -->
<g id="node27" class="node">
<title>Node27</title>
<g id="a_node27"><a xlink:href="../../d7/db7/SurfaceVisitorConcept_8hpp.html" target="_top" xlink:title="Acts/Geometry/SurfaceVisitor\lConcept.hpp">
<polygon fill="none" stroke="#000000" points="313.5,-240.5 313.5,-272.5 480.5,-272.5 480.5,-240.5 313.5,-240.5"/>
<text text-anchor="start" x="321.5" y="-259.5" font-family="FreeSans" font-size="10.00" fill="#000000">Acts/Geometry/SurfaceVisitor</text>
<text text-anchor="middle" x="397" y="-247.5" font-family="FreeSans" font-size="10.00" fill="#000000">Concept.hpp</text>
</a>
</g>
</g>
<!-- Node25&#45;&gt;Node27 -->
<g id="edge40" class="edge">
<title>Node25&#45;&gt;Node27</title>
<path fill="none" stroke="#191970" d="M686.1596,-384.4827C644.421,-376.033 586.8929,-362.0757 539,-342 498.2891,-324.9349 455.3812,-297.6217 427.5268,-278.4694"/>
<polygon fill="#191970" stroke="#191970" points="429.2417,-275.3989 419.034,-272.5612 425.2442,-281.1452 429.2417,-275.3989"/>
</g>
<!-- Node34 -->
<g id="node34" class="node">
<title>Node34</title>
<g id="a_node34"><a xlink:href="../../df/d37/TrackingVolume_8hpp.html" target="_top" xlink:title="Acts/Geometry/TrackingVolume.hpp">
<polygon fill="none" stroke="#ff0000" points="548,-315.5 548,-335.5 746,-335.5 746,-315.5 548,-315.5"/>
<text text-anchor="middle" x="647" y="-322.5" font-family="FreeSans" font-size="10.00" fill="#000000">Acts/Geometry/TrackingVolume.hpp</text>
</a>
</g>
</g>
<!-- Node25&#45;&gt;Node34 -->
<g id="edge59" class="edge">
<title>Node25&#45;&gt;Node34</title>
<path fill="none" stroke="#191970" d="M728.8349,-384.3188C713.2369,-373.1078 687.9402,-354.9258 669.5967,-341.7414"/>
<polygon fill="#191970" stroke="#191970" points="671.3862,-338.7173 661.2232,-335.723 667.3007,-344.4014 671.3862,-338.7173"/>
</g>
<!-- Node35 -->
<g id="node35" class="node">
<title>Node35</title>
<g id="a_node35"><a xlink:href="../../d3/d84/Concepts_8hpp.html" target="_top" xlink:title="Acts/Utilities/Concepts.hpp">
<polygon fill="none" stroke="#000000" points="104.5,-246.5 104.5,-266.5 257.5,-266.5 257.5,-246.5 104.5,-246.5"/>
<text text-anchor="middle" x="181" y="-253.5" font-family="FreeSans" font-size="10.00" fill="#000000">Acts/Utilities/Concepts.hpp</text>
</a>
</g>
</g>
<!-- Node25&#45;&gt;Node35 -->
<g id="edge81" class="edge">
<title>Node25&#45;&gt;Node35</title>
<path fill="none" stroke="#191970" d="M683.8531,-384.4841C629.328,-374.8797 546.2981,-359.314 475,-342 383.6327,-319.8124 278.1697,-287.4681 221.7076,-269.5946"/>
<polygon fill="#191970" stroke="#191970" points="222.6714,-266.2284 212.081,-266.537 220.5523,-272.9 222.6714,-266.2284"/>
</g>
<!-- Node36 -->
<g id="node36" class="node">
<title>Node36</title>
<g id="a_node36"><a xlink:href="../../d9/d11/Logger_8hpp.html" target="_top" xlink:title="Acts/Utilities/Logger.hpp">
<polygon fill="none" stroke="#ff0000" points="1946,-246.5 1946,-266.5 2086,-266.5 2086,-246.5 1946,-246.5"/>
<text text-anchor="middle" x="2016" y="-253.5" font-family="FreeSans" font-size="10.00" fill="#000000">Acts/Utilities/Logger.hpp</text>
</a>
</g>
</g>
<!-- Node25&#45;&gt;Node36 -->
<g id="edge82" class="edge">
<title>Node25&#45;&gt;Node36</title>
<path fill="none" stroke="#191970" d="M847.6696,-392.5756C1070.09,-387.9139 1583.4508,-373.9617 1755,-342 1839.4189,-326.2717 1934.23,-290.3593 1983.0333,-270.4451"/>
<polygon fill="#191970" stroke="#191970" points="1984.5325,-273.6129 1992.4464,-266.5688 1981.867,-267.1403 1984.5325,-273.6129"/>
</g>
<!-- Node39 -->
<g id="node39" class="node">
<title>Node39</title>
<polygon fill="none" stroke="#bfbfbf" points="726,-246.5 726,-266.5 822,-266.5 822,-246.5 726,-246.5"/>
<text text-anchor="middle" x="774" y="-253.5" font-family="FreeSans" font-size="10.00" fill="#000000">unordered_map</text>
</g>
<!-- Node25&#45;&gt;Node39 -->
<g id="edge85" class="edge">
<title>Node25&#45;&gt;Node39</title>
<path fill="none" stroke="#191970" d="M745.3185,-384.4395C747.7488,-373.8747 751.6696,-356.7758 755,-342 760.0465,-319.6104 765.7471,-293.9004 769.5762,-276.5687"/>
<polygon fill="#191970" stroke="#191970" points="773.0591,-277.0276 771.7965,-266.5083 766.2235,-275.519 773.0591,-277.0276"/>
</g>
<!-- Node27&#45;&gt;Node28 -->
<g id="edge41" class="edge">
<title>Node27&#45;&gt;Node28</title>
<path fill="none" stroke="#191970" d="M480.6151,-244.8714C562.4993,-233.4835 686.4944,-216.2392 767.8661,-204.9226"/>
<polygon fill="#191970" stroke="#191970" points="768.6438,-208.3482 778.0664,-203.504 767.6795,-201.4149 768.6438,-208.3482"/>
</g>
<!-- Node28&#45;&gt;Node10 -->
<g id="edge42" class="edge">
<title>Node28&#45;&gt;Node10</title>
<path fill="none" stroke="#191970" d="M774.8518,-186.9589C718.5018,-180.4268 647.8236,-168.2232 628,-147 598.4567,-115.3709 601.1777,-60.2873 605.3175,-30.6874"/>
<polygon fill="#191970" stroke="#191970" points="608.7929,-31.1188 606.9093,-20.6927 601.88,-30.0177 608.7929,-31.1188"/>
</g>
<!-- Node28&#45;&gt;Node11 -->
<g id="edge48" class="edge">
<title>Node28&#45;&gt;Node11</title>
<path fill="none" stroke="#191970" d="M908.9605,-183.4821C963.8681,-174.1293 1047.9928,-159.7399 1121,-147 1129.5679,-145.5049 1138.5775,-143.921 1147.4781,-142.3494"/>
<polygon fill="#191970" stroke="#191970" points="1148.2139,-145.7737 1157.4515,-140.5855 1146.9948,-138.8807 1148.2139,-145.7737"/>
</g>
<!-- Node28&#45;&gt;Node14 -->
<g id="edge58" class="edge">
<title>Node28&#45;&gt;Node14</title>
<path fill="none" stroke="#191970" d="M907.2554,-183.4717C948.3764,-175.5268 1004.8172,-163.0919 1053,-147 1055.2515,-146.248 1057.5525,-145.4076 1059.8507,-144.515"/>
<polygon fill="#191970" stroke="#191970" points="1061.2613,-147.719 1069.1492,-140.6457 1058.5719,-141.2562 1061.2613,-147.719"/>
</g>
<!-- Node28&#45;&gt;Node17 -->
<g id="edge54" class="edge">
<title>Node28&#45;&gt;Node17</title>
<path fill="none" stroke="#191970" d="M925.383,-188.8345C1036.0857,-181.4723 1237.0681,-166.022 1307,-147 1309.4961,-146.321 1312.0361,-145.4852 1314.5532,-144.5534"/>
<polygon fill="#191970" stroke="#191970" points="1316.1236,-147.6907 1324.0064,-140.6117 1313.4296,-141.2299 1316.1236,-147.6907"/>
</g>
<!-- Node28&#45;&gt;Node18 -->
<g id="edge55" class="edge">
<title>Node28&#45;&gt;Node18</title>
<path fill="none" stroke="#191970" d="M925.2252,-189.6426C1082.2709,-181.4164 1440.4827,-161.7023 1562,-147 1579.7953,-144.847 1599.3501,-141.5242 1615.9171,-138.4232"/>
<polygon fill="#191970" stroke="#191970" points="1616.6388,-141.8487 1625.8039,-136.5334 1615.3246,-134.9731 1616.6388,-141.8487"/>
</g>
<!-- Node28&#45;&gt;Node21 -->
<g id="edge57" class="edge">
<title>Node28&#45;&gt;Node21</title>
<path fill="none" stroke="#191970" d="M925.1522,-189.4149C1151.2231,-177.1264 1819.0924,-140.8228 1975.8162,-132.3038"/>
<polygon fill="#191970" stroke="#191970" points="1976.4086,-135.7768 1986.2039,-131.7391 1976.0286,-128.7872 1976.4086,-135.7768"/>
</g>
<!-- Node28&#45;&gt;Node26 -->
<g id="edge53" class="edge">
<title>Node28&#45;&gt;Node26</title>
<path fill="none" stroke="#191970" d="M784.4214,-183.4478C710.8938,-172.1771 591.854,-153.9302 514.5037,-142.0736"/>
<polygon fill="#191970" stroke="#191970" points="514.7599,-138.572 504.345,-140.5164 513.6993,-145.4912 514.7599,-138.572"/>
</g>
<!-- Node29 -->
<g id="node29" class="node">
<title>Node29</title>
<g id="a_node29"><a xlink:href="../../dd/dee/Core_2include_2Acts_2Definitions_2Alignment_8hpp.html" target="_top" xlink:title="Acts/Definitions/Alignment.hpp">
<polygon fill="none" stroke="#000000" points="637,-120.5 637,-140.5 811,-140.5 811,-120.5 637,-120.5"/>
<text text-anchor="middle" x="724" y="-127.5" font-family="FreeSans" font-size="10.00" fill="#000000">Acts/Definitions/Alignment.hpp</text>
</a>
</g>
</g>
<!-- Node28&#45;&gt;Node29 -->
<g id="edge43" class="edge">
<title>Node28&#45;&gt;Node29</title>
<path fill="none" stroke="#191970" d="M829.7559,-183.378C809.0902,-173.0451 776.8029,-156.9015 753.3372,-145.1686"/>
<polygon fill="#191970" stroke="#191970" points="754.7034,-141.9386 744.1938,-140.5969 751.5729,-148.1996 754.7034,-141.9386"/>
</g>
<!-- Node30 -->
<g id="node30" class="node">
<title>Node30</title>
<g id="a_node30"><a xlink:href="../../d7/d3a/TrackParametrization_8hpp.html" target="_top" xlink:title="Acts/Definitions/TrackParametrization.hpp">
<polygon fill="none" stroke="#000000" points="818.5,-57.5 818.5,-77.5 1047.5,-77.5 1047.5,-57.5 818.5,-57.5"/>
<text text-anchor="middle" x="933" y="-64.5" font-family="FreeSans" font-size="10.00" fill="#000000">Acts/Definitions/TrackParametrization.hpp</text>
</a>
</g>
</g>
<!-- Node28&#45;&gt;Node30 -->
<g id="edge51" class="edge">
<title>Node28&#45;&gt;Node30</title>
<path fill="none" stroke="#191970" d="M917.8068,-183.4988C959.4913,-175.8073 1007.2838,-163.6615 1020,-147 1028.8982,-135.341 1027.5403,-126.5799 1020,-114 1011.1044,-99.159 995.6798,-88.7896 980.2651,-81.6739"/>
<polygon fill="#191970" stroke="#191970" points="981.3013,-78.3125 970.727,-77.653 978.582,-84.7628 981.3013,-78.3125"/>
</g>
<!-- Node31 -->
<g id="node31" class="node">
<title>Node31</title>
<g id="a_node31"><a xlink:href="../../d7/d39/Tolerance_8hpp.html" target="_top" xlink:title="Acts/Definitions/Tolerance.hpp">
<polygon fill="none" stroke="#ff0000" points="409.5,-57.5 409.5,-77.5 580.5,-77.5 580.5,-57.5 409.5,-57.5"/>
<text text-anchor="middle" x="495" y="-64.5" font-family="FreeSans" font-size="10.00" fill="#000000">Acts/Definitions/Tolerance.hpp</text>
</a>
</g>
</g>
<!-- Node28&#45;&gt;Node31 -->
<g id="edge49" class="edge">
<title>Node28&#45;&gt;Node31</title>
<path fill="none" stroke="#191970" d="M774.9128,-183.9272C711.5878,-175.1027 626.3997,-161.2499 595,-147 590.47,-144.9442 543.1604,-106.712 515.2677,-84.0275"/>
<polygon fill="#191970" stroke="#191970" points="517.2683,-81.143 507.3035,-77.5439 512.8489,-86.5716 517.2683,-81.143"/>
</g>
<!-- Node32 -->
<g id="node32" class="node">
<title>Node32</title>
<g id="a_node32"><a xlink:href="../../dc/d45/DetectorElementBase_8hpp.html" target="_top" xlink:title="Acts/Geometry/DetectorElement\lBase.hpp">
<polygon fill="none" stroke="#ff0000" points="829,-114.5 829,-146.5 1011,-146.5 1011,-114.5 829,-114.5"/>
<text text-anchor="start" x="837" y="-133.5" font-family="FreeSans" font-size="10.00" fill="#000000">Acts/Geometry/DetectorElement</text>
<text text-anchor="middle" x="920" y="-121.5" font-family="FreeSans" font-size="10.00" fill="#000000">Base.hpp</text>
</a>
</g>
</g>
<!-- Node28&#45;&gt;Node32 -->
<g id="edge52" class="edge">
<title>Node28&#45;&gt;Node32</title>
<path fill="none" stroke="#191970" d="M861.2467,-183.378C870.1646,-175.3519 882.9779,-163.8199 894.364,-153.5724"/>
<polygon fill="#191970" stroke="#191970" points="896.8618,-156.0332 901.9534,-146.742 892.179,-150.8301 896.8618,-156.0332"/>
</g>
<!-- Node33 -->
<g id="node33" class="node">
<title>Node33</title>
<polygon fill="none" stroke="#bfbfbf" points="1496.5,-120.5 1496.5,-140.5 1553.5,-140.5 1553.5,-120.5 1496.5,-120.5"/>
<text text-anchor="middle" x="1525" y="-127.5" font-family="FreeSans" font-size="10.00" fill="#000000">ostream</text>
</g>
<!-- Node28&#45;&gt;Node33 -->
<g id="edge56" class="edge">
<title>Node28&#45;&gt;Node33</title>
<path fill="none" stroke="#191970" d="M925.3931,-187.466C1028.0587,-179.1137 1217.5502,-163.2163 1379,-147 1415.3938,-143.3445 1456.823,-138.6075 1486.2288,-135.1473"/>
<polygon fill="#191970" stroke="#191970" points="1486.967,-138.5845 1496.4869,-133.9346 1486.1451,-131.6329 1486.967,-138.5845"/>
</g>
<!-- Node29&#45;&gt;Node10 -->
<g id="edge44" class="edge">
<title>Node29&#45;&gt;Node10</title>
<path fill="none" stroke="#191970" d="M714.1952,-120.2689C694.5902,-99.8115 650.3484,-53.6462 625.9485,-28.1854"/>
<polygon fill="#191970" stroke="#191970" points="628.2261,-25.5035 618.78,-20.7052 623.1721,-30.3468 628.2261,-25.5035"/>
</g>
<!-- Node29&#45;&gt;Node30 -->
<g id="edge45" class="edge">
<title>Node29&#45;&gt;Node30</title>
<path fill="none" stroke="#191970" d="M757.5795,-120.378C793.458,-109.5629 850.4548,-92.3821 889.6878,-80.5558"/>
<polygon fill="#191970" stroke="#191970" points="890.9395,-83.8341 899.5039,-77.5969 888.9192,-77.132 890.9395,-83.8341"/>
</g>
<!-- Node30&#45;&gt;Node10 -->
<g id="edge46" class="edge">
<title>Node30&#45;&gt;Node10</title>
<path fill="none" stroke="#191970" d="M875.8211,-57.4408C819.922,-47.6067 734.8428,-32.639 675.8456,-22.2599"/>
<polygon fill="#191970" stroke="#191970" points="676.3343,-18.7922 665.879,-20.5065 675.1213,-25.6863 676.3343,-18.7922"/>
</g>
<!-- Node30&#45;&gt;Node22 -->
<g id="edge47" class="edge">
<title>Node30&#45;&gt;Node22</title>
<path fill="none" stroke="#191970" d="M1047.6019,-60.7657C1261.5764,-48.1919 1713.2498,-21.6503 1857.6166,-13.1669"/>
<polygon fill="#191970" stroke="#191970" points="1858.0916,-16.6451 1867.869,-12.5644 1857.6809,-9.6571 1858.0916,-16.6451"/>
</g>
<!-- Node31&#45;&gt;Node10 -->
<g id="edge50" class="edge">
<title>Node31&#45;&gt;Node10</title>
<path fill="none" stroke="#191970" d="M515.1185,-57.4408C532.9972,-48.5014 559.3596,-35.3202 579.6009,-25.1996"/>
<polygon fill="#191970" stroke="#191970" points="581.3202,-28.2531 588.6992,-20.6504 578.1896,-21.9921 581.3202,-28.2531"/>
</g>
<!-- Node34&#45;&gt;Node5 -->
<g id="edge79" class="edge">
<title>Node34&#45;&gt;Node5</title>
<path fill="none" stroke="#191970" d="M746.2484,-323.177C980.9037,-317.4062 1588.2539,-300.8405 2095,-273 2162.0836,-269.3145 2240.3326,-263.116 2284.3317,-259.4565"/>
<polygon fill="#191970" stroke="#191970" points="2284.8181,-262.9281 2294.4912,-258.6059 2284.2341,-255.9525 2284.8181,-262.9281"/>
</g>
<!-- Node34&#45;&gt;Node6 -->
<g id="edge80" class="edge">
<title>Node34&#45;&gt;Node6</title>
<path fill="none" stroke="#191970" d="M734.536,-315.4668C853.5958,-301.8204 1064.4584,-277.6518 1175.655,-264.9067"/>
<polygon fill="#191970" stroke="#191970" points="1176.2356,-268.3631 1185.7719,-263.7471 1175.4384,-261.4086 1176.2356,-268.3631"/>
</g>
<!-- Node34&#45;&gt;Node10 -->
<g id="edge60" class="edge">
<title>Node34&#45;&gt;Node10</title>
<path fill="none" stroke="#191970" d="M547.767,-316.8638C452.206,-307.5184 319.8444,-291.4541 304,-273 280.102,-245.1659 265.2288,-214.5467 326,-114 347.4741,-78.4709 362.3979,-74.5938 400,-57 436.7791,-39.7912 480.2254,-28.802 517.9522,-21.8578"/>
<polygon fill="#191970" stroke="#191970" points="518.6843,-25.2826 527.9203,-20.0915 517.4629,-18.39 518.6843,-25.2826"/>
</g>
<!-- Node34&#45;&gt;Node13 -->
<g id="edge62" class="edge">
<title>Node34&#45;&gt;Node13</title>
<path fill="none" stroke="#191970" d="M696.1481,-315.4668C756.9764,-303.0492 860.4839,-281.919 925.6717,-268.6114"/>
<polygon fill="#191970" stroke="#191970" points="926.6947,-271.9748 935.7926,-266.5453 925.2946,-265.1163 926.6947,-271.9748"/>
</g>
<!-- Node34&#45;&gt;Node14 -->
<g id="edge78" class="edge">
<title>Node34&#45;&gt;Node14</title>
<path fill="none" stroke="#191970" d="M633.5288,-315.3546C613.3621,-298.9207 579.5621,-265.726 598,-240 709.8802,-83.8963 831.2616,-182.5435 1020,-147 1032.3372,-144.6766 1045.7816,-141.633 1057.5603,-138.7933"/>
<polygon fill="#191970" stroke="#191970" points="1058.5361,-142.1577 1067.4127,-136.3735 1056.8665,-135.3598 1058.5361,-142.1577"/>
</g>
<!-- Node34&#45;&gt;Node17 -->
<g id="edge74" class="edge">
<title>Node34&#45;&gt;Node17</title>
<path fill="none" stroke="#191970" d="M643.0148,-315.3183C636.8259,-297.6122 627.4321,-261.0334 646,-240 688.685,-191.6472 870.2215,-213.6074 934,-204 987.1069,-196.0001 999.9606,-191.4362 1053,-183 1165.6017,-165.0902 1197.5911,-179.0872 1307,-147 1309.4245,-146.2889 1311.8948,-145.442 1314.3478,-144.5129"/>
<polygon fill="#191970" stroke="#191970" points="1315.7222,-147.7318 1323.5892,-140.6353 1313.0138,-141.277 1315.7222,-147.7318"/>
</g>
<!-- Node34&#45;&gt;Node18 -->
<g id="edge75" class="edge">
<title>Node34&#45;&gt;Node18</title>
<path fill="none" stroke="#191970" d="M648.14,-315.3143C650.7883,-296.9188 659.1572,-258.3625 684,-240 742.2565,-196.9398 936.2784,-214.1986 1008,-204 1062.0381,-196.316 1074.8606,-189.9347 1129,-183 1320.5435,-158.4652 1370.5028,-171.8939 1562,-147 1579.7755,-144.6893 1599.3274,-141.3434 1615.8976,-138.2678"/>
<polygon fill="#191970" stroke="#191970" points="1616.6107,-141.6951 1625.7871,-136.3994 1615.3111,-134.8168 1616.6107,-141.6951"/>
</g>
<!-- Node34&#45;&gt;Node21 -->
<g id="edge76" class="edge">
<title>Node34&#45;&gt;Node21</title>
<path fill="none" stroke="#191970" d="M653.7857,-315.3899C667.8681,-294.7411 700.3396,-248.9164 717,-240 789.0556,-201.437 1002.0096,-214.939 1083,-204 1137.5245,-196.6356 1150.3619,-189.4682 1205,-183 1358.3524,-164.8459 1845.2429,-138.954 1976.264,-132.1757"/>
<polygon fill="#191970" stroke="#191970" points="1976.6486,-135.6606 1986.4549,-131.65 1976.2879,-128.6699 1976.6486,-135.6606"/>
</g>
<!-- Node34&#45;&gt;Node26 -->
<g id="edge61" class="edge">
<title>Node34&#45;&gt;Node26</title>
<path fill="none" stroke="#191970" d="M612.432,-315.4529C587.9635,-307.0581 555.4597,-293.1814 532,-273 490.9313,-237.6704 460.9794,-179.8361 447.2911,-149.8667"/>
<polygon fill="#191970" stroke="#191970" points="450.3936,-148.2295 443.136,-140.5108 443.9962,-151.0707 450.3936,-148.2295"/>
</g>
<!-- Node34&#45;&gt;Node27 -->
<g id="edge63" class="edge">
<title>Node34&#45;&gt;Node27</title>
<path fill="none" stroke="#191970" d="M610.6479,-315.4668C572.5922,-304.9635 511.9516,-288.2266 464.9814,-275.2629"/>
<polygon fill="#191970" stroke="#191970" points="465.7498,-271.8441 455.179,-272.5574 463.8873,-278.5918 465.7498,-271.8441"/>
</g>
<!-- Node34&#45;&gt;Node28 -->
<g id="edge64" class="edge">
<title>Node34&#45;&gt;Node28</title>
<path fill="none" stroke="#191970" d="M635.7927,-315.3405C618.335,-298.3006 588.5685,-263.5207 608,-240 627.8104,-216.0207 703.1887,-204.2799 764.6198,-198.611"/>
<polygon fill="#191970" stroke="#191970" points="765.0836,-202.0838 774.7378,-197.7196 764.4692,-195.1108 765.0836,-202.0838"/>
</g>
<!-- Node34&#45;&gt;Node35 -->
<g id="edge65" class="edge">
<title>Node34&#45;&gt;Node35</title>
<path fill="none" stroke="#191970" d="M568.5751,-315.4555C492.6111,-305.5055 374.2292,-289.4172 272,-273 263.0356,-271.5604 253.5914,-269.9517 244.3169,-268.3189"/>
<polygon fill="#191970" stroke="#191970" points="244.809,-264.8515 234.3503,-266.5445 243.582,-271.7432 244.809,-264.8515"/>
</g>
<!-- Node34&#45;&gt;Node36 -->
<g id="edge66" class="edge">
<title>Node34&#45;&gt;Node36</title>
<path fill="none" stroke="#191970" d="M746.2239,-324.6456C958.2665,-322.0934 1471.1125,-312.0478 1899,-273 1913.3575,-271.6898 1928.65,-269.8554 1943.282,-267.8833"/>
<polygon fill="#191970" stroke="#191970" points="1943.8599,-271.3368 1953.2867,-266.5008 1942.9017,-264.4027 1943.8599,-271.3368"/>
</g>
<!-- Node34&#45;&gt;Node39 -->
<g id="edge77" class="edge">
<title>Node34&#45;&gt;Node39</title>
<path fill="none" stroke="#191970" d="M665.4669,-315.4668C686.8176,-303.8668 722.1623,-284.6638 746.6912,-271.3371"/>
<polygon fill="#191970" stroke="#191970" points="748.3948,-274.3947 755.5108,-266.5453 745.053,-268.2439 748.3948,-274.3947"/>
</g>
<!-- Node36&#45;&gt;Node14 -->
<g id="edge73" class="edge">
<title>Node36&#45;&gt;Node14</title>
<path fill="none" stroke="#191970" d="M1965.5308,-246.4928C1884.5362,-230.7721 1720.3726,-200.302 1580,-183 1376.9104,-157.9676 1317.4471,-204.276 1121,-147 1119.0685,-146.4368 1117.1198,-145.7447 1115.1905,-144.9662"/>
<polygon fill="#191970" stroke="#191970" points="1116.4099,-141.671 1105.8744,-140.5511 1113.412,-147.9965 1116.4099,-141.671"/>
</g>
<!-- Node36&#45;&gt;Node16 -->
<g id="edge67" class="edge">
<title>Node36&#45;&gt;Node16</title>
<path fill="none" stroke="#191970" d="M1946.4301,-246.4567C1930.8319,-244.2696 1914.3567,-242.01 1899,-240 1771.3162,-223.2876 1619.5141,-205.5911 1550.9083,-197.7101"/>
<polygon fill="#191970" stroke="#191970" points="1550.962,-194.1934 1540.6283,-196.5312 1550.1644,-201.1479 1550.962,-194.1934"/>
</g>
<!-- Node36&#45;&gt;Node18 -->
<g id="edge69" class="edge">
<title>Node36&#45;&gt;Node18</title>
<path fill="none" stroke="#191970" d="M1966.6689,-246.4093C1925.6696,-237.348 1866.1443,-222.6176 1816,-204 1796.0615,-196.5972 1792.2746,-191.9909 1773,-183 1744.2461,-169.5874 1711.2268,-154.9619 1687.4428,-144.5625"/>
<polygon fill="#191970" stroke="#191970" points="1688.7386,-141.3093 1678.1733,-140.5189 1685.9397,-147.7254 1688.7386,-141.3093"/>
</g>
<!-- Node36&#45;&gt;Node21 -->
<g id="edge71" class="edge">
<title>Node36&#45;&gt;Node21</title>
<path fill="none" stroke="#191970" d="M2015.4272,-246.1889C2014.2729,-225.4121 2011.6487,-178.1771 2010.1346,-150.923"/>
<polygon fill="#191970" stroke="#191970" points="2013.6106,-150.3919 2009.5612,-140.6014 2006.6214,-150.7802 2013.6106,-150.3919"/>
</g>
<!-- Node36&#45;&gt;Node23 -->
<g id="edge68" class="edge">
<title>Node36&#45;&gt;Node23</title>
<path fill="none" stroke="#191970" d="M2038.9754,-246.378C2062.7421,-235.9073 2100.0524,-219.4699 2126.7645,-207.7016"/>
<polygon fill="#191970" stroke="#191970" points="2128.3414,-210.8316 2136.0816,-203.5969 2125.5192,-204.4257 2128.3414,-210.8316"/>
</g>
<!-- Node37 -->
<g id="node37" class="node">
<title>Node37</title>
<polygon fill="none" stroke="#bfbfbf" points="2590,-183.5 2590,-203.5 2656,-203.5 2656,-183.5 2590,-183.5"/>
<text text-anchor="middle" x="2623" y="-190.5" font-family="FreeSans" font-size="10.00" fill="#000000">stdexcept</text>
</g>
<!-- Node36&#45;&gt;Node37 -->
<g id="edge70" class="edge">
<title>Node36&#45;&gt;Node37</title>
<path fill="none" stroke="#191970" d="M2086.2236,-249.2116C2212.9421,-236.0595 2476.2816,-208.7278 2579.8385,-197.9797"/>
<polygon fill="#191970" stroke="#191970" points="2580.3454,-201.446 2589.9306,-196.9322 2579.6227,-194.4834 2580.3454,-201.446"/>
</g>
<!-- Node38 -->
<g id="node38" class="node">
<title>Node38</title>
<polygon fill="none" stroke="#bfbfbf" points="2037,-183.5 2037,-203.5 2111,-203.5 2111,-183.5 2037,-183.5"/>
<text text-anchor="middle" x="2074" y="-190.5" font-family="FreeSans" font-size="10.00" fill="#000000">string_view</text>
</g>
<!-- Node36&#45;&gt;Node38 -->
<g id="edge72" class="edge">
<title>Node36&#45;&gt;Node38</title>
<path fill="none" stroke="#191970" d="M2025.3187,-246.378C2033.9766,-236.9736 2047.066,-222.7559 2057.4921,-211.431"/>
<polygon fill="#191970" stroke="#191970" points="2060.3136,-213.5338 2064.5117,-203.8062 2055.1637,-208.7926 2060.3136,-213.5338"/>
</g>
<!-- Node40&#45;&gt;Node12 -->
<g id="edge89" class="edge">
<title>Node40&#45;&gt;Node12</title>
<path fill="none" stroke="#191970" d="M1481.3447,-378.4966C1521.9101,-366.327 1577.0069,-349.7979 1614.8238,-338.4529"/>
<polygon fill="#191970" stroke="#191970" points="1615.9527,-341.7684 1624.5253,-335.5424 1613.9413,-335.0636 1615.9527,-341.7684"/>
</g>
<!-- Node40&#45;&gt;Node13 -->
<g id="edge90" class="edge">
<title>Node40&#45;&gt;Node13</title>
<path fill="none" stroke="#191970" d="M1376.3153,-378.3996C1287.7791,-350.8195 1108.7799,-295.059 1027.2143,-269.6503"/>
<polygon fill="#191970" stroke="#191970" points="1027.8866,-266.1939 1017.2981,-266.5613 1025.8046,-272.8771 1027.8866,-266.1939"/>
</g>
<!-- Node40&#45;&gt;Node14 -->
<g id="edge96" class="edge">
<title>Node40&#45;&gt;Node14</title>
<path fill="none" stroke="#191970" d="M1421.2809,-378.4841C1406.2307,-343.2253 1369.3823,-260.4023 1347,-240 1266.7281,-166.8293 1219.2824,-193.2397 1121,-147 1119.8208,-146.4452 1118.6224,-145.868 1117.4162,-145.2761"/>
<polygon fill="#191970" stroke="#191970" points="1118.7052,-142.0045 1108.2072,-140.5751 1115.5225,-148.2391 1118.7052,-142.0045"/>
</g>
<!-- Node40&#45;&gt;Node16 -->
<g id="edge93" class="edge">
<title>Node40&#45;&gt;Node16</title>
<path fill="none" stroke="#191970" d="M1434.8924,-378.3911C1450.5523,-341.7905 1488.7609,-252.4891 1505.6907,-212.9205"/>
<polygon fill="#191970" stroke="#191970" points="1508.9724,-214.1479 1509.6883,-203.5773 1502.5367,-211.3943 1508.9724,-214.1479"/>
</g>
<!-- Node40&#45;&gt;Node17 -->
<g id="edge94" class="edge">
<title>Node40&#45;&gt;Node17</title>
<path fill="none" stroke="#191970" d="M1425.307,-378.4282C1420.3182,-350.0333 1408.6134,-289.331 1392,-240 1380.9823,-207.2847 1363.6906,-171.0301 1352.8679,-149.5338"/>
<polygon fill="#191970" stroke="#191970" points="1355.9241,-147.8224 1348.2633,-140.5038 1349.688,-151.0024 1355.9241,-147.8224"/>
</g>
<!-- Node40&#45;&gt;Node23 -->
<g id="edge95" class="edge">
<title>Node40&#45;&gt;Node23</title>
<path fill="none" stroke="#191970" d="M1502.2514,-387.0829C1583.3721,-378.4554 1716.9762,-362.7083 1831,-342 1835.1401,-341.2481 2122.7914,-275.7222 2126,-273 2143.8249,-257.8776 2152.1875,-231.5542 2155.9962,-213.3639"/>
<polygon fill="#191970" stroke="#191970" points="2159.4442,-213.965 2157.7865,-203.5007 2152.5568,-212.7148 2159.4442,-213.965"/>
</g>
<!-- Node40&#45;&gt;Node28 -->
<g id="edge91" class="edge">
<title>Node40&#45;&gt;Node28</title>
<path fill="none" stroke="#191970" d="M1403.0045,-378.4089C1390.0107,-369.0427 1374.6619,-356.279 1364,-342 1334.5655,-302.5798 1360.6036,-269.1874 1321,-240 1313.3245,-234.3433 1069.0446,-212.4334 935.3904,-200.8208"/>
<polygon fill="#191970" stroke="#191970" points="935.441,-197.3121 925.1759,-199.9346 934.8359,-204.2859 935.441,-197.3121"/>
</g>
<!-- Node40&#45;&gt;Node41 -->
<g id="edge92" class="edge">
<title>Node40&#45;&gt;Node41</title>
<path fill="none" stroke="#191970" d="M1502.3182,-391.6786C1751.6064,-382.1385 2543.8987,-351.1705 2569,-342 2591.6276,-333.7332 2592.1005,-322.5778 2612,-309 2631.5496,-295.661 2654.5018,-281.8846 2671.9215,-271.7926"/>
<polygon fill="#191970" stroke="#191970" points="2674.0467,-274.6082 2680.9732,-266.5911 2670.559,-268.5389 2674.0467,-274.6082"/>
</g>
<!-- Node43&#45;&gt;Node23 -->
<g id="edge124" class="edge">
<title>Node43&#45;&gt;Node23</title>
<path fill="none" stroke="#191970" d="M2839.8867,-378.0553C2846.3274,-346.2121 2855.0204,-276.0998 2817,-240 2794.5138,-218.6496 2339.004,-200.1389 2199.3495,-194.9477"/>
<polygon fill="#191970" stroke="#191970" points="2199.2133,-191.4404 2189.091,-194.5693 2198.9552,-198.4356 2199.2133,-191.4404"/>
</g>
<!-- Node43&#45;&gt;Node37 -->
<g id="edge125" class="edge">
<title>Node43&#45;&gt;Node37</title>
<path fill="none" stroke="#191970" d="M2891.0751,-378.4395C2969.1496,-353.0599 3096.7663,-300.3221 3042,-240 3014.0864,-209.2547 2711.0083,-210.5394 2670,-204 2668.7228,-203.7963 2667.4284,-203.5789 2666.1234,-203.3502"/>
<polygon fill="#191970" stroke="#191970" points="2666.5056,-199.8599 2656.0256,-201.415 2665.188,-206.7347 2666.5056,-199.8599"/>
</g>
<!-- Node44 -->
<g id="node44" class="node">
<title>Node44</title>
<g id="a_node44"><a xlink:href="../../d8/db0/ThrowAssert_8hpp.html" target="_top" xlink:title="Acts/Utilities/ThrowAssert.hpp">
<polygon fill="none" stroke="#ff0000" points="2863.5,-246.5 2863.5,-266.5 3032.5,-266.5 3032.5,-246.5 2863.5,-246.5"/>
<text text-anchor="middle" x="2948" y="-253.5" font-family="FreeSans" font-size="10.00" fill="#000000">Acts/Utilities/ThrowAssert.hpp</text>
</a>
</g>
</g>
<!-- Node43&#45;&gt;Node44 -->
<g id="edge103" class="edge">
<title>Node43&#45;&gt;Node44</title>
<path fill="none" stroke="#191970" d="M2849.067,-378.3996C2870.1028,-352.4805 2911.3377,-301.6733 2933.3438,-274.5586"/>
<polygon fill="#191970" stroke="#191970" points="2936.1788,-276.6194 2939.763,-266.6492 2930.7436,-272.2082 2936.1788,-276.6194"/>
</g>
<!-- Node45 -->
<g id="node45" class="node">
<title>Node45</title>
<g id="a_node45"><a xlink:href="../../d1/dc6/SequenceElement_8hpp.html" target="_top" xlink:title="ActsExamples/Framework\l/SequenceElement.hpp">
<polygon fill="none" stroke="#ff0000" points="3056.5,-309.5 3056.5,-341.5 3203.5,-341.5 3203.5,-309.5 3056.5,-309.5"/>
<text text-anchor="start" x="3064.5" y="-328.5" font-family="FreeSans" font-size="10.00" fill="#000000">ActsExamples/Framework</text>
<text text-anchor="middle" x="3130" y="-316.5" font-family="FreeSans" font-size="10.00" fill="#000000">/SequenceElement.hpp</text>
</a>
</g>
</g>
<!-- Node43&#45;&gt;Node45 -->
<g id="edge106" class="edge">
<title>Node43&#45;&gt;Node45</title>
<path fill="none" stroke="#191970" d="M2904.1885,-378.4966C2948.28,-368.1486 3005.802,-354.6485 3051.7542,-343.8638"/>
<polygon fill="#191970" stroke="#191970" points="3052.7369,-347.2283 3061.6727,-341.536 3051.1375,-340.4135 3052.7369,-347.2283"/>
</g>
<!-- Node43&#45;&gt;Node47 -->
<g id="edge110" class="edge">
<title>Node43&#45;&gt;Node47</title>
<path fill="none" stroke="#191970" d="M2762.2017,-379.9512C2705.8933,-368.8504 2628.2869,-353.5508 2569.6718,-341.9953"/>
<polygon fill="#191970" stroke="#191970" points="2570.1855,-338.5293 2559.6974,-340.0289 2568.8315,-345.3971 2570.1855,-338.5293"/>
</g>
<!-- Node48 -->
<g id="node48" class="node">
<title>Node48</title>
<polygon fill="none" stroke="#bfbfbf" points="2750,-246.5 2750,-266.5 2808,-266.5 2808,-246.5 2750,-246.5"/>
<text text-anchor="middle" x="2779" y="-253.5" font-family="FreeSans" font-size="10.00" fill="#000000">typeinfo</text>
</g>
<!-- Node43&#45;&gt;Node48 -->
<g id="edge126" class="edge">
<title>Node43&#45;&gt;Node48</title>
<path fill="none" stroke="#191970" d="M2829.3498,-378.3996C2818.8295,-352.9293 2798.3822,-303.4253 2787.0495,-275.9882"/>
<polygon fill="#191970" stroke="#191970" points="2790.2446,-274.5557 2783.1921,-266.6492 2783.7748,-277.228 2790.2446,-274.5557"/>
</g>
<!-- Node44&#45;&gt;Node21 -->
<g id="edge105" class="edge">
<title>Node44&#45;&gt;Node21</title>
<path fill="none" stroke="#191970" d="M2925.3427,-246.4269C2887.1536,-229.9584 2807.1602,-197.6406 2736,-183 2600.3431,-155.0898 2165.1529,-136.5254 2041.8439,-131.7301"/>
<polygon fill="#191970" stroke="#191970" points="2041.6755,-128.2211 2031.5482,-131.3337 2041.4061,-135.2159 2041.6755,-128.2211"/>
</g>
<!-- Node44&#45;&gt;Node23 -->
<g id="edge104" class="edge">
<title>Node44&#45;&gt;Node23</title>
<path fill="none" stroke="#191970" d="M2894.478,-246.4977C2880.0774,-244.0779 2864.4794,-241.7018 2850,-240 2603.8036,-211.0634 2305.9814,-198.5756 2199.3669,-194.8105"/>
<polygon fill="#191970" stroke="#191970" points="2199.1842,-191.3021 2189.0688,-194.4531 2198.9414,-198.2979 2199.1842,-191.3021"/>
</g>
<!-- Node45&#45;&gt;Node5 -->
<g id="edge109" class="edge">
<title>Node45&#45;&gt;Node5</title>
<path fill="none" stroke="#191970" d="M3056.2394,-319.2244C2887.0025,-304.8257 2475.9863,-269.8564 2353.8084,-259.4615"/>
<polygon fill="#191970" stroke="#191970" points="2353.8106,-255.9491 2343.5499,-258.5887 2353.2172,-262.9239 2353.8106,-255.9491"/>
</g>
<!-- Node45&#45;&gt;Node21 -->
<g id="edge108" class="edge">
<title>Node45&#45;&gt;Node21</title>
<path fill="none" stroke="#191970" d="M3121.8124,-309.4502C3110.9245,-289.8223 3089.7763,-257.1067 3062,-240 2956.0897,-174.7727 2911.233,-199.8887 2788,-183 2500.7388,-143.6318 2149.6572,-133.3992 2041.9623,-131.0984"/>
<polygon fill="#191970" stroke="#191970" points="2041.8098,-127.5946 2031.7401,-130.8885 2041.6661,-134.5931 2041.8098,-127.5946"/>
</g>
<!-- Node46 -->
<g id="node46" class="node">
<title>Node46</title>
<g id="a_node46"><a xlink:href="../../d1/d06/ProcessCode_8hpp.html" target="_top" xlink:title="ActsExamples/Framework\l/ProcessCode.hpp">
<polygon fill="none" stroke="#000000" points="3126.5,-240.5 3126.5,-272.5 3273.5,-272.5 3273.5,-240.5 3126.5,-240.5"/>
<text text-anchor="start" x="3134.5" y="-259.5" font-family="FreeSans" font-size="10.00" fill="#000000">ActsExamples/Framework</text>
<text text-anchor="middle" x="3200" y="-247.5" font-family="FreeSans" font-size="10.00" fill="#000000">/ProcessCode.hpp</text>
</a>
</g>
</g>
<!-- Node45&#45;&gt;Node46 -->
<g id="edge107" class="edge">
<title>Node45&#45;&gt;Node46</title>
<path fill="none" stroke="#191970" d="M3146.2354,-309.4966C3155.1182,-300.7406 3166.2905,-289.7279 3176.1462,-280.013"/>
<polygon fill="#191970" stroke="#191970" points="3178.7018,-282.4084 3183.3666,-272.8958 3173.7878,-277.4232 3178.7018,-282.4084"/>
</g>
<!-- Node47&#45;&gt;Node5 -->
<g id="edge123" class="edge">
<title>Node47&#45;&gt;Node5</title>
<path fill="none" stroke="#191970" d="M2446.4551,-309.4115C2421.1365,-299.0784 2387.5992,-285.3311 2358,-273 2356.1676,-272.2366 2354.288,-271.4508 2352.3914,-270.6556"/>
<polygon fill="#191970" stroke="#191970" points="2353.4823,-267.3174 2342.9076,-266.6638 2350.7666,-273.7692 2353.4823,-267.3174"/>
</g>
<!-- Node47&#45;&gt;Node14 -->
<g id="edge122" class="edge">
<title>Node47&#45;&gt;Node14</title>
<path fill="none" stroke="#191970" d="M2466.563,-309.376C2454.2596,-299.0875 2438.0748,-285.4015 2424,-273 2407.7147,-258.6508 2406.8716,-250.7227 2388,-240 2349.6734,-218.2232 2241.501,-190.1289 2198,-183 1961.6853,-144.2729 1352.3403,-208.8554 1121,-147 1119.0122,-146.4685 1117.0096,-145.7903 1115.0309,-145.0135"/>
<polygon fill="#191970" stroke="#191970" points="1116.0508,-141.625 1105.5129,-140.528 1113.0667,-147.9571 1116.0508,-141.625"/>
</g>
<!-- Node47&#45;&gt;Node17 -->
<g id="edge113" class="edge">
<title>Node47&#45;&gt;Node17</title>
<path fill="none" stroke="#191970" d="M2477.6082,-309.4908C2467.151,-290.8034 2447.733,-259.9238 2424,-240 2379.6986,-202.8091 2363.0644,-197.2324 2307,-183 2130.2098,-138.1204 1668.8292,-161.3908 1487,-147 1450.5834,-144.1178 1409.1618,-139.1985 1380.1224,-135.4792"/>
<polygon fill="#191970" stroke="#191970" points="1380.383,-131.9838 1370.0161,-134.1693 1379.4832,-138.9258 1380.383,-131.9838"/>
</g>
<!-- Node47&#45;&gt;Node18 -->
<g id="edge114" class="edge">
<title>Node47&#45;&gt;Node18</title>
<path fill="none" stroke="#191970" d="M2494.5381,-309.2965C2508.7188,-279.8932 2532.5159,-217.5988 2500,-183 2493.0052,-175.5571 1860.6035,-141.4327 1694.5591,-132.5949"/>
<polygon fill="#191970" stroke="#191970" points="1694.4798,-129.0859 1684.3081,-132.0499 1694.1081,-136.076 1694.4798,-129.0859"/>
</g>
<!-- Node47&#45;&gt;Node21 -->
<g id="edge117" class="edge">
<title>Node47&#45;&gt;Node21</title>
<path fill="none" stroke="#191970" d="M2532.6636,-309.4257C2554.8189,-300.5702 2580.9805,-288.2585 2602,-273 2641.5129,-244.3167 2698.1196,-218.8761 2665,-183 2643.6108,-159.8306 2171.1454,-137.5746 2041.596,-131.8911"/>
<polygon fill="#191970" stroke="#191970" points="2041.6437,-128.39 2031.5008,-131.4515 2041.339,-135.3834 2041.6437,-128.39"/>
</g>
<!-- Node47&#45;&gt;Node22 -->
<g id="edge119" class="edge">
<title>Node47&#45;&gt;Node22</title>
<path fill="none" stroke="#191970" d="M2502.8669,-309.314C2525.2571,-285.9998 2562,-240.5697 2562,-193.5 2562,-193.5 2562,-193.5 2562,-130.5 2562,-68.039 2097.8579,-25.8992 1948.6208,-13.9642"/>
<polygon fill="#191970" stroke="#191970" points="1948.6758,-10.4577 1938.4307,-13.1572 1948.1231,-17.4358 1948.6758,-10.4577"/>
</g>
<!-- Node47&#45;&gt;Node33 -->
<g id="edge115" class="edge">
<title>Node47&#45;&gt;Node33</title>
<path fill="none" stroke="#191970" d="M2489.0206,-309.2118C2493.555,-279.0961 2498.11,-214.8798 2462,-183 2426.7761,-151.9025 1663.7029,-152.1591 1617,-147 1599.5354,-145.0708 1580.3855,-141.8216 1564.1005,-138.7142"/>
<polygon fill="#191970" stroke="#191970" points="1564.3455,-135.1958 1553.8592,-136.708 1562.9998,-142.0652 1564.3455,-135.1958"/>
</g>
<!-- Node47&#45;&gt;Node36 -->
<g id="edge111" class="edge">
<title>Node47&#45;&gt;Node36</title>
<path fill="none" stroke="#191970" d="M2412.3042,-314.6808C2325.736,-301.9719 2182.7328,-280.9778 2094.2433,-267.9868"/>
<polygon fill="#191970" stroke="#191970" points="2094.6639,-264.5111 2084.2616,-266.5214 2093.6471,-271.4369 2094.6639,-264.5111"/>
</g>
<!-- Node47&#45;&gt;Node37 -->
<g id="edge116" class="edge">
<title>Node47&#45;&gt;Node37</title>
<path fill="none" stroke="#191970" d="M2523.0665,-309.2994C2540.5583,-300.3792 2560.8626,-288.0491 2576,-273 2593.5845,-255.518 2607.0753,-230.1456 2615.0013,-212.7956"/>
<polygon fill="#191970" stroke="#191970" points="2618.2107,-214.1918 2619.0138,-203.6275 2611.798,-211.3852 2618.2107,-214.1918"/>
</g>
<!-- Node47&#45;&gt;Node38 -->
<g id="edge118" class="edge">
<title>Node47&#45;&gt;Node38</title>
<path fill="none" stroke="#191970" d="M2456.2428,-309.3922C2438.4265,-299.4427 2415.523,-286.1091 2396,-273 2376.0001,-259.5706 2375.1516,-249.4684 2353,-240 2259.5654,-200.0626 2225.0207,-222.2272 2121.0534,-204.0339"/>
<polygon fill="#191970" stroke="#191970" points="2121.5769,-200.5716 2111.1094,-202.2089 2120.3133,-207.4566 2121.5769,-200.5716"/>
</g>
<!-- Node47&#45;&gt;Node39 -->
<g id="edge121" class="edge">
<title>Node47&#45;&gt;Node39</title>
<path fill="none" stroke="#191970" d="M2412.3221,-321.6644C2340.9216,-318.04 2229.5606,-312.6315 2133,-309 1571.3914,-287.8788 1428.1855,-329.2305 869,-273 857.0285,-271.7962 844.2907,-269.9677 832.1606,-267.9602"/>
<polygon fill="#191970" stroke="#191970" points="832.5923,-264.4832 822.1444,-266.2415 831.4084,-271.3823 832.5923,-264.4832"/>
</g>
<!-- Node47&#45;&gt;Node41 -->
<g id="edge112" class="edge">
<title>Node47&#45;&gt;Node41</title>
<path fill="none" stroke="#191970" d="M2538.0991,-309.482C2570.8744,-299.2917 2614.008,-285.6731 2652,-273 2654.9405,-272.0191 2657.9789,-270.9895 2661.0302,-269.9439"/>
<polygon fill="#191970" stroke="#191970" points="2662.4115,-273.1696 2670.716,-266.5905 2660.1213,-266.5548 2662.4115,-273.1696"/>
</g>
<!-- Node47&#45;&gt;Node48 -->
<g id="edge120" class="edge">
<title>Node47&#45;&gt;Node48</title>
<path fill="none" stroke="#191970" d="M2559.5684,-314.4984C2611.068,-305.7967 2681.098,-291.9472 2741,-273 2743.4601,-272.2219 2745.977,-271.3378 2748.4864,-270.3927"/>
<polygon fill="#191970" stroke="#191970" points="2750.0385,-273.5403 2757.9919,-266.5408 2747.4095,-267.0527 2750.0385,-273.5403"/>
</g>
<!-- Node49&#45;&gt;Node18 -->
<g id="edge131" class="edge">
<title>Node49&#45;&gt;Node18</title>
<path fill="none" stroke="#191970" d="M3205.3888,-378.4495C3247.2281,-349.037 3324.3676,-285.3586 3283,-240 3280.0958,-236.8156 2669.2987,-183.3098 2665,-183 2640.3448,-181.2229 1877.126,-141.9271 1694.1438,-132.5133"/>
<polygon fill="#191970" stroke="#191970" points="1694.3196,-129.0178 1684.1529,-131.9993 1693.9599,-136.0085 1694.3196,-129.0178"/>
</g>
<!-- Node49&#45;&gt;Node21 -->
<g id="edge132" class="edge">
<title>Node49&#45;&gt;Node21</title>
<path fill="none" stroke="#191970" d="M3240.9475,-378.4419C3272.6342,-368.6137 3306.8421,-355.3874 3316,-342 3341.5953,-304.5836 3345.8059,-274.1573 3316,-240 3272.7018,-190.3807 2240.0824,-141.0095 2041.7694,-131.968"/>
<polygon fill="#191970" stroke="#191970" points="2041.8303,-128.4673 2031.6819,-131.5102 2041.5129,-135.4601 2041.8303,-128.4673"/>
</g>
<!-- Node49&#45;&gt;Node36 -->
<g id="edge130" class="edge">
<title>Node49&#45;&gt;Node36</title>
<path fill="none" stroke="#191970" d="M3107.2609,-389.817C2920.002,-377.8844 2438.4427,-346.9303 2404,-342 2279.2785,-324.1467 2135.0074,-288.2426 2062.5799,-269.1357"/>
<polygon fill="#191970" stroke="#191970" points="2063.4094,-265.7347 2052.8463,-266.5547 2061.6152,-272.5009 2063.4094,-265.7347"/>
</g>
<!-- Node49&#45;&gt;Node45 -->
<g id="edge129" class="edge">
<title>Node49&#45;&gt;Node45</title>
<path fill="none" stroke="#191970" d="M3169.1714,-378.4966C3162.9534,-370.084 3155.1956,-359.5882 3148.2282,-350.1617"/>
<polygon fill="#191970" stroke="#191970" points="3150.8772,-347.8572 3142.1186,-341.8958 3145.2479,-352.0179 3150.8772,-347.8572"/>
</g>
<!-- Node49&#45;&gt;Node46 -->
<g id="edge128" class="edge">
<title>Node49&#45;&gt;Node46</title>
<path fill="none" stroke="#191970" d="M3194.2302,-378.1159C3201.307,-368.2795 3209.307,-355.1545 3213,-342 3218.5116,-322.3676 3214.5164,-299.502 3209.5502,-282.3593"/>
<polygon fill="#191970" stroke="#191970" points="3212.7808,-280.9696 3206.4088,-272.5051 3206.1115,-283.0957 3212.7808,-280.9696"/>
</g>
<!-- Node50&#45;&gt;Node3 -->
<g id="edge138" class="edge">
<title>Node50&#45;&gt;Node3</title>
<path fill="none" stroke="#191970" d="M2069.9392,-654.3374C2061.2846,-644.1489 2050.1378,-630.584 2041,-618 2008.9389,-573.8473 1975.4624,-519.6147 1956.8167,-488.5556"/>
<polygon fill="#191970" stroke="#191970" points="1959.6578,-486.4867 1951.5242,-479.6973 1953.6486,-490.077 1959.6578,-486.4867"/>
</g>
<!-- Node50&#45;&gt;Node7 -->
<g id="edge139" class="edge">
<title>Node50&#45;&gt;Node7</title>
<path fill="none" stroke="#191970" d="M2092.8135,-654.4966C2097.3519,-646.2557 2102.9913,-636.0157 2108.0996,-626.7401"/>
<polygon fill="#191970" stroke="#191970" points="2111.2122,-628.3437 2112.9704,-617.8958 2105.0805,-624.9668 2111.2122,-628.3437"/>
</g>
</g>
</svg>
