<?xml version="1.0" encoding="UTF-8" standalone="no"?>
<!DOCTYPE svg PUBLIC "-//W3C//DTD SVG 1.1//EN"
 "http://www.w3.org/Graphics/SVG/1.1/DTD/svg11.dtd">
<!-- Generated by graphviz version 2.40.1 (20161225.0304)
 -->
<!-- Title: Acts::Vertex::position Pages: 1 -->
<svg width="521pt" height="449pt"
 viewBox="0.00 0.00 521.00 449.00" xmlns="http://www.w3.org/2000/svg" xmlns:xlink="http://www.w3.org/1999/xlink">
<g id="graph0" class="graph" transform="scale(1 1) rotate(0) translate(4 445)">
<title>Acts::Vertex::position</title>
<!-- Node1 -->
<g id="node1" class="node">
<title>Node1</title>
<polygon fill="#bfbfbf" stroke="#000000" points="0,-210.5 0,-230.5 124,-230.5 124,-210.5 0,-210.5"/>
<text text-anchor="middle" x="62" y="-217.5" font-family="FreeSans" font-size="10.00" fill="#000000">Acts::Vertex::position</text>
</g>
<!-- Node2 -->
<g id="node2" class="node">
<title>Node2</title>
<g id="a_node2"><a xlink:href="../../dd/d7e/namespaceActs_1_1Test.html#ad0713917f439f5e20c3c5b0d56b2cfa1" target="_top" xlink:title="Unit test for FullBilloirVertexFitter.">
<polygon fill="none" stroke="#000000" points="169.5,-408.5 169.5,-440.5 310.5,-440.5 310.5,-408.5 169.5,-408.5"/>
<text text-anchor="start" x="177.5" y="-427.5" font-family="FreeSans" font-size="10.00" fill="#000000">Acts::Test::BOOST_AUTO</text>
<text text-anchor="middle" x="240" y="-415.5" font-family="FreeSans" font-size="10.00" fill="#000000">_TEST_CASE</text>
</a>
</g>
</g>
<!-- Node1&#45;&gt;Node2 -->
<g id="edge1" class="edge">
<title>Node1&#45;&gt;Node2</title>
<path fill="none" stroke="#191970" d="M67.583,-240.8379C78.8003,-277.901 107.5949,-356.5657 160,-399.5 164.1647,-402.9121 168.7967,-405.8601 173.6739,-408.4069"/>
<polygon fill="#191970" stroke="#191970" points="70.8063,-239.3861 64.6594,-230.7567 64.0833,-241.3359 70.8063,-239.3861"/>
</g>
<!-- Node3 -->
<g id="node3" class="node">
<title>Node3</title>
<g id="a_node3"><a xlink:href="../../d7/dd3/classPHActsVertexFitter.html#aefe1e3172dbd9dedad3a702a44ce1930" target="_top" xlink:title="Update SvtxVertex or create new SvtxVertexMap.">
<polygon fill="none" stroke="#000000" points="174.5,-357.5 174.5,-389.5 305.5,-389.5 305.5,-357.5 174.5,-357.5"/>
<text text-anchor="start" x="182.5" y="-376.5" font-family="FreeSans" font-size="10.00" fill="#000000">PHActsVertexFitter</text>
<text text-anchor="middle" x="240" y="-364.5" font-family="FreeSans" font-size="10.00" fill="#000000">::createActsSvtxVertex</text>
</a>
</g>
</g>
<!-- Node1&#45;&gt;Node3 -->
<g id="edge2" class="edge">
<title>Node1&#45;&gt;Node3</title>
<path fill="none" stroke="#191970" d="M71.666,-239.6421C86.7552,-267.6233 118.5291,-319.5073 160,-348.5 164.8896,-351.9184 170.265,-354.883 175.8452,-357.4516"/>
<polygon fill="#191970" stroke="#191970" points="74.6173,-237.7335 66.8747,-230.5014 68.4174,-240.9834 74.6173,-237.7335"/>
</g>
<!-- Node5 -->
<g id="node5" class="node">
<title>Node5</title>
<g id="a_node5"><a xlink:href="../../d4/db7/classActs_1_1ImpactPointEstimator.html#a35ab63eacdeb8cd1cd6c5433e096b5aa" target="_top" xlink:title="Estimates the impact parameters and their errors of a given track w.r.t. a vertex by propagating the ...">
<polygon fill="none" stroke="#000000" points="160,-306.5 160,-338.5 320,-338.5 320,-306.5 160,-306.5"/>
<text text-anchor="start" x="168" y="-325.5" font-family="FreeSans" font-size="10.00" fill="#000000">Acts::ImpactPointEstimator</text>
<text text-anchor="middle" x="240" y="-313.5" font-family="FreeSans" font-size="10.00" fill="#000000">::estimateImpactParameters</text>
</a>
</g>
</g>
<!-- Node1&#45;&gt;Node5 -->
<g id="edge4" class="edge">
<title>Node1&#45;&gt;Node5</title>
<path fill="none" stroke="#191970" d="M79.6817,-237.6899C98.3002,-254.9543 129.1428,-281.2614 160,-297.5 166.3097,-300.8205 173.1349,-303.7858 180.0471,-306.4102"/>
<polygon fill="#191970" stroke="#191970" points="81.9328,-235.0016 72.2588,-230.6814 77.1271,-240.0915 81.9328,-235.0016"/>
</g>
<!-- Node6 -->
<g id="node6" class="node">
<title>Node6</title>
<g id="a_node6"><a xlink:href="../../d8/d1a/classActs_1_1IterativeVertexFinder.html#a1e4d798ddc840abc713f7a8a5337cec4" target="_top" xlink:title="Function that fills vector with tracks compatible with seed vertex.">
<polygon fill="none" stroke="#000000" points="164,-255.5 164,-287.5 316,-287.5 316,-255.5 164,-255.5"/>
<text text-anchor="start" x="172" y="-274.5" font-family="FreeSans" font-size="10.00" fill="#000000">Acts::IterativeVertexFinder</text>
<text text-anchor="middle" x="240" y="-262.5" font-family="FreeSans" font-size="10.00" fill="#000000">::fillPerigeesToFit</text>
</a>
</g>
</g>
<!-- Node1&#45;&gt;Node6 -->
<g id="edge5" class="edge">
<title>Node1&#45;&gt;Node6</title>
<path fill="none" stroke="#191970" d="M106.8262,-233.3435C130.2068,-240.0424 159.0364,-248.3026 183.8858,-255.4223"/>
<polygon fill="#191970" stroke="#191970" points="107.7443,-229.9658 97.1671,-230.576 105.8162,-236.695 107.7443,-229.9658"/>
</g>
<!-- Node7 -->
<g id="node7" class="node">
<title>Node7</title>
<g id="a_node7"><a xlink:href="../../d8/de8/classActs_1_1AdaptiveMultiVertexFinder.html#a4451a6c7e21a59085521ee2e585b382e" target="_top" xlink:title="Function that performs the adaptive multi&#45;vertex finding.">
<polygon fill="none" stroke="#000000" points="166.5,-204.5 166.5,-236.5 313.5,-236.5 313.5,-204.5 166.5,-204.5"/>
<text text-anchor="start" x="174.5" y="-223.5" font-family="FreeSans" font-size="10.00" fill="#000000">Acts::AdaptiveMultiVertex</text>
<text text-anchor="middle" x="240" y="-211.5" font-family="FreeSans" font-size="10.00" fill="#000000">Finder::find</text>
</a>
</g>
</g>
<!-- Node1&#45;&gt;Node7 -->
<g id="edge6" class="edge">
<title>Node1&#45;&gt;Node7</title>
<path fill="none" stroke="#191970" d="M134.3039,-220.5C144.9107,-220.5 155.8455,-220.5 166.4765,-220.5"/>
<polygon fill="#191970" stroke="#191970" points="134.2558,-217.0001 124.2558,-220.5 134.2557,-224.0001 134.2558,-217.0001"/>
</g>
<!-- Node8 -->
<g id="node8" class="node">
<title>Node8</title>
<g id="a_node8"><a xlink:href="../../d7/dd3/classPHActsVertexFitter.html#acecfcb6adc69dd416777157c698799bf" target="_top" xlink:title="Run the Acts vertex fitter.">
<polygon fill="none" stroke="#000000" points="185,-153.5 185,-185.5 295,-185.5 295,-153.5 185,-153.5"/>
<text text-anchor="start" x="193" y="-172.5" font-family="FreeSans" font-size="10.00" fill="#000000">PHActsVertexFitter</text>
<text text-anchor="middle" x="240" y="-160.5" font-family="FreeSans" font-size="10.00" fill="#000000">::fitVertex</text>
</a>
</g>
</g>
<!-- Node1&#45;&gt;Node8 -->
<g id="edge7" class="edge">
<title>Node1&#45;&gt;Node8</title>
<path fill="none" stroke="#191970" d="M106.9495,-207.6212C130.6369,-200.8344 159.8911,-192.4526 184.931,-185.2782"/>
<polygon fill="#191970" stroke="#191970" points="105.8162,-204.305 97.1671,-210.424 107.7443,-211.0342 105.8162,-204.305"/>
</g>
<!-- Node9 -->
<g id="node9" class="node">
<title>Node9</title>
<g id="a_node9"><a xlink:href="../../d5/d82/namespaceActs_1_1KalmanVertexUpdater.html#a574196fd01398cd48fe3a7bb9966a43a" target="_top" xlink:title="Updates vertex position.">
<polygon fill="none" stroke="#000000" points="161.5,-51.5 161.5,-83.5 318.5,-83.5 318.5,-51.5 161.5,-51.5"/>
<text text-anchor="start" x="169.5" y="-70.5" font-family="FreeSans" font-size="10.00" fill="#000000">Acts::KalmanVertexUpdater</text>
<text text-anchor="middle" x="240" y="-58.5" font-family="FreeSans" font-size="10.00" fill="#000000">::updatePosition</text>
</a>
</g>
</g>
<!-- Node1&#45;&gt;Node9 -->
<g id="edge9" class="edge">
<title>Node1&#45;&gt;Node9</title>
<path fill="none" stroke="#191970" d="M71.9729,-201.1586C87.2538,-173.38 119.0451,-122.3629 160,-93.5 165.3718,-89.7142 171.327,-86.456 177.4945,-83.6569"/>
<polygon fill="#191970" stroke="#191970" points="68.7362,-199.789 67.1037,-210.2574 74.908,-203.0919 68.7362,-199.789"/>
</g>
<!-- Node11 -->
<g id="node11" class="node">
<title>Node11</title>
<g id="a_node11"><a xlink:href="../../d7/dd3/classPHActsVertexFitter.html#a8b3cf108aee6a6bc7d2b6bb1c477c0c7" target="_top" xlink:title="PHActsVertexFitter\l::updateSvtxVertex">
<polygon fill="none" stroke="#000000" points="183.5,-102.5 183.5,-134.5 296.5,-134.5 296.5,-102.5 183.5,-102.5"/>
<text text-anchor="start" x="191.5" y="-121.5" font-family="FreeSans" font-size="10.00" fill="#000000">PHActsVertexFitter</text>
<text text-anchor="middle" x="240" y="-109.5" font-family="FreeSans" font-size="10.00" fill="#000000">::updateSvtxVertex</text>
</a>
</g>
</g>
<!-- Node1&#45;&gt;Node11 -->
<g id="edge11" class="edge">
<title>Node1&#45;&gt;Node11</title>
<path fill="none" stroke="#191970" d="M80.0652,-203.3428C98.7771,-186.3671 129.5014,-160.6475 160,-144.5 167.3568,-140.6049 175.4035,-137.1554 183.4683,-134.1462"/>
<polygon fill="#191970" stroke="#191970" points="77.5613,-200.8909 72.5869,-210.2454 82.3091,-206.0347 77.5613,-200.8909"/>
</g>
<!-- Node12 -->
<g id="node12" class="node">
<title>Node12</title>
<g id="a_node12"><a xlink:href="../../d8/dd5/namespaceActs_1_1KalmanVertexUpdater_1_1detail.html#a8a233d10ea173ce01a619fcdec9f81a5" target="_top" xlink:title="Takes old and new vtx and calculates position chi2.">
<polygon fill="none" stroke="#000000" points="161.5,-.5 161.5,-32.5 318.5,-32.5 318.5,-.5 161.5,-.5"/>
<text text-anchor="start" x="169.5" y="-19.5" font-family="FreeSans" font-size="10.00" fill="#000000">Acts::KalmanVertexUpdater</text>
<text text-anchor="middle" x="240" y="-7.5" font-family="FreeSans" font-size="10.00" fill="#000000">::detail::vertexPositionChi2</text>
</a>
</g>
</g>
<!-- Node1&#45;&gt;Node12 -->
<g id="edge13" class="edge">
<title>Node1&#45;&gt;Node12</title>
<path fill="none" stroke="#191970" d="M67.6632,-200.3313C79.0117,-163.5661 108.0126,-85.4838 160,-42.5 164.6146,-38.6846 169.8031,-35.4244 175.2633,-32.6395"/>
<polygon fill="#191970" stroke="#191970" points="64.1858,-199.7479 64.7021,-210.3302 70.8977,-201.7357 64.1858,-199.7479"/>
</g>
<!-- Node4 -->
<g id="node4" class="node">
<title>Node4</title>
<g id="a_node4"><a xlink:href="../../d7/dd3/classPHActsVertexFitter.html#ab932df5aa801bddf0590f8a9384a622d" target="_top" xlink:title="PHActsVertexFitter\l::process_event">
<polygon fill="none" stroke="#000000" points="379.5,-153.5 379.5,-185.5 489.5,-185.5 489.5,-153.5 379.5,-153.5"/>
<text text-anchor="start" x="387.5" y="-172.5" font-family="FreeSans" font-size="10.00" fill="#000000">PHActsVertexFitter</text>
<text text-anchor="middle" x="434.5" y="-160.5" font-family="FreeSans" font-size="10.00" fill="#000000">::process_event</text>
</a>
</g>
</g>
<!-- Node3&#45;&gt;Node4 -->
<g id="edge3" class="edge">
<title>Node3&#45;&gt;Node4</title>
<path fill="none" stroke="#191970" d="M314.2816,-352.4702C316.2561,-351.2215 318.1679,-349.8995 320,-348.5 378.3394,-303.9377 415.1674,-220.4927 428.6752,-185.5428"/>
<polygon fill="#191970" stroke="#191970" points="312.306,-349.5643 305.2744,-357.4894 315.7134,-355.679 312.306,-349.5643"/>
</g>
<!-- Node8&#45;&gt;Node4 -->
<g id="edge8" class="edge">
<title>Node8&#45;&gt;Node4</title>
<path fill="none" stroke="#191970" d="M305.3327,-169.5C329.4051,-169.5 356.412,-169.5 379.4832,-169.5"/>
<polygon fill="#191970" stroke="#191970" points="305.2157,-166.0001 295.2156,-169.5 305.2156,-173.0001 305.2157,-166.0001"/>
</g>
<!-- Node10 -->
<g id="node10" class="node">
<title>Node10</title>
<g id="a_node10"><a xlink:href="../../d8/dd5/namespaceActs_1_1KalmanVertexUpdater_1_1detail.html#a636e9e73aaf549b3f32f1fc3a84d5b15" target="_top" xlink:title="Adds or removes (depending on sign) tracks from vertex and updates the vertex.">
<polygon fill="none" stroke="#000000" points="356,-51.5 356,-83.5 513,-83.5 513,-51.5 356,-51.5"/>
<text text-anchor="start" x="364" y="-70.5" font-family="FreeSans" font-size="10.00" fill="#000000">Acts::KalmanVertexUpdater</text>
<text text-anchor="middle" x="434.5" y="-58.5" font-family="FreeSans" font-size="10.00" fill="#000000">::detail::update</text>
</a>
</g>
</g>
<!-- Node9&#45;&gt;Node10 -->
<g id="edge10" class="edge">
<title>Node9&#45;&gt;Node10</title>
<path fill="none" stroke="#191970" d="M328.7454,-67.5C337.8283,-67.5 347.0109,-67.5 355.973,-67.5"/>
<polygon fill="#191970" stroke="#191970" points="328.55,-64.0001 318.55,-67.5 328.5499,-71.0001 328.55,-64.0001"/>
</g>
<!-- Node11&#45;&gt;Node4 -->
<g id="edge12" class="edge">
<title>Node11&#45;&gt;Node4</title>
<path fill="none" stroke="#191970" d="M306.4805,-135.9319C330.1562,-142.1399 356.5444,-149.0592 379.1829,-154.9952"/>
<polygon fill="#191970" stroke="#191970" points="307.0795,-132.4707 296.5187,-133.3198 305.304,-139.2418 307.0795,-132.4707"/>
</g>
</g>
</svg>
