<?xml version="1.0" encoding="UTF-8" standalone="no"?>
<!DOCTYPE svg PUBLIC "-//W3C//DTD SVG 1.1//EN"
 "http://www.w3.org/Graphics/SVG/1.1/DTD/svg11.dtd">
<!-- Generated by graphviz version 2.40.1 (20161225.0304)
 -->
<!-- Title: pysspa Pages: 1 -->
<svg width="1098pt" height="2172pt"
 viewBox="0.00 0.00 1098.00 2171.50" xmlns="http://www.w3.org/2000/svg" xmlns:xlink="http://www.w3.org/1999/xlink">
<g id="graph0" class="graph" transform="scale(1 1) rotate(0) translate(4 2167.5)">
<title>pysspa</title>
<!-- Node1 -->
<g id="node1" class="node">
<title>Node1</title>
<polygon fill="#bfbfbf" stroke="#000000" points="0,-1019.5 0,-1039.5 51,-1039.5 51,-1019.5 0,-1019.5"/>
<text text-anchor="middle" x="25.5" y="-1026.5" font-family="FreeSans" font-size="10.00" fill="#000000">pysspa</text>
</g>
<!-- Node2 -->
<g id="node2" class="node">
<title>Node2</title>
<g id="a_node2"><a xlink:href="../../d4/d3e/classActs_1_1Logger.html#a2e009357e8b3be1d10f072a71074ba58" target="_top" xlink:title="log a debug message">
<polygon fill="none" stroke="#000000" points="771,-1694.5 771,-1714.5 873,-1714.5 873,-1694.5 771,-1694.5"/>
<text text-anchor="middle" x="822" y="-1701.5" font-family="FreeSans" font-size="10.00" fill="#000000">Acts::Logger::log</text>
</a>
</g>
</g>
<!-- Node1&#45;&gt;Node2 -->
<g id="edge1" class="edge">
<title>Node1&#45;&gt;Node2</title>
<path fill="none" stroke="#191970" d="M25.6923,-1039.6501C28.0485,-1150.1401 55.5448,-2125.5 292,-2125.5 292,-2125.5 292,-2125.5 469.5,-2125.5 599.924,-2125.5 651.6495,-2100.815 735,-2000.5 771.0973,-1957.0558 806.7669,-1784.2883 818.2129,-1724.7725"/>
<polygon fill="#191970" stroke="#191970" points="821.6906,-1725.2188 820.1177,-1714.7414 814.8135,-1723.9129 821.6906,-1725.2188"/>
</g>
<!-- Node4 -->
<g id="node4" class="node">
<title>Node4</title>
<g id="a_node4"><a xlink:href="../../da/d72/structActs_1_1detail_1_1PhiBoundParameterLimits.html#a04ea1c8ef7fa6ef9596ffec9da84eae1" target="_top" xlink:title="Acts::detail::PhiBoundParameter\lLimits::max">
<polygon fill="none" stroke="#000000" points="909,-1457.5 909,-1489.5 1090,-1489.5 1090,-1457.5 909,-1457.5"/>
<text text-anchor="start" x="917" y="-1476.5" font-family="FreeSans" font-size="10.00" fill="#000000">Acts::detail::PhiBoundParameter</text>
<text text-anchor="middle" x="999.5" y="-1464.5" font-family="FreeSans" font-size="10.00" fill="#000000">Limits::max</text>
</a>
</g>
</g>
<!-- Node1&#45;&gt;Node4 -->
<g id="edge3" class="edge">
<title>Node1&#45;&gt;Node4</title>
<path fill="none" stroke="#191970" d="M25.804,-1039.7467C28.642,-1133.6933 51.1996,-1843.9299 87,-1930.5 139.7109,-2057.9619 154.0689,-2163.5 292,-2163.5 292,-2163.5 292,-2163.5 691,-2163.5 780.8482,-2163.5 821.8152,-2149.3431 873,-2075.5 922.7083,-2003.7869 887.5397,-1769.0762 909,-1684.5 926.8487,-1614.1573 965.086,-1537.1432 985.6823,-1498.5281"/>
<polygon fill="#191970" stroke="#191970" points="988.8496,-1500.0286 990.5154,-1489.5655 982.6883,-1496.7061 988.8496,-1500.0286"/>
</g>
<!-- Node5 -->
<g id="node5" class="node">
<title>Node5</title>
<g id="a_node5"><a xlink:href="../../d2/d18/medium-simple_8f.html#a58e0410e81664819969cd2981fd7cd27" target="_top" xlink:title="npart">
<polygon fill="none" stroke="#000000" points="356.5,-268.5 356.5,-288.5 400.5,-288.5 400.5,-268.5 356.5,-268.5"/>
<text text-anchor="middle" x="378.5" y="-275.5" font-family="FreeSans" font-size="10.00" fill="#000000">npart</text>
</a>
</g>
</g>
<!-- Node1&#45;&gt;Node5 -->
<g id="edge4" class="edge">
<title>Node1&#45;&gt;Node5</title>
<path fill="none" stroke="#191970" d="M27.004,-1019.4587C32.7065,-982.3019 54.339,-849.2903 87,-743.5 149.8635,-539.8829 103.073,-434.4475 268,-299.5 289.8537,-281.6187 322.2749,-277.2378 346.353,-276.8109"/>
<polygon fill="#191970" stroke="#191970" points="346.4193,-280.3111 356.4329,-276.8503 346.4467,-273.3112 346.4193,-280.3111"/>
</g>
<!-- Node9 -->
<g id="node9" class="node">
<title>Node9</title>
<g id="a_node9"><a xlink:href="../../dc/d9f/hcalUtil_8C.html#af562b1ac3ac927ecde202ce0501a97a6" target="_top" xlink:title="ps">
<polygon fill="none" stroke="#000000" points="676.5,-1001.5 676.5,-1021.5 705.5,-1021.5 705.5,-1001.5 676.5,-1001.5"/>
<text text-anchor="middle" x="691" y="-1008.5" font-family="FreeSans" font-size="10.00" fill="#000000">ps</text>
</a>
</g>
</g>
<!-- Node1&#45;&gt;Node9 -->
<g id="edge10" class="edge">
<title>Node1&#45;&gt;Node9</title>
<path fill="none" stroke="#191970" d="M51.1324,-1039.3013C62.0185,-1042.9675 74.9557,-1046.6819 87,-1048.5 150.7225,-1058.119 167.6077,-1051.0911 232,-1048.5 398.0931,-1041.8165 597.1752,-1021.5816 666.0904,-1014.2174"/>
<polygon fill="#191970" stroke="#191970" points="666.7936,-1017.662 676.3615,-1013.1117 666.0443,-1010.7022 666.7936,-1017.662"/>
</g>
<!-- Node11 -->
<g id="node11" class="node">
<title>Node11</title>
<g id="a_node11"><a xlink:href="../../d6/dcf/pythia6425mod_8f.html#a29c95baea28af87f8639a7f77a68edc5" target="_top" xlink:title="pyalps">
<polygon fill="none" stroke="#000000" points="666,-1385.5 666,-1405.5 716,-1405.5 716,-1385.5 666,-1385.5"/>
<text text-anchor="middle" x="691" y="-1392.5" font-family="FreeSans" font-size="10.00" fill="#000000">pyalps</text>
</a>
</g>
</g>
<!-- Node1&#45;&gt;Node11 -->
<g id="edge12" class="edge">
<title>Node1&#45;&gt;Node11</title>
<path fill="none" stroke="#191970" d="M26.1713,-1039.5424C29.4472,-1085.333 45.3233,-1273.7267 87,-1311.5 154.9701,-1373.1042 200.2666,-1335.5 292,-1335.5 292,-1335.5 292,-1335.5 469.5,-1335.5 532.9533,-1335.5 550.4475,-1335.534 611,-1354.5 630.6102,-1360.6422 651.2115,-1371.3125 666.5966,-1380.228"/>
<polygon fill="#191970" stroke="#191970" points="665.0634,-1383.3885 675.4464,-1385.4962 668.644,-1377.3736 665.0634,-1383.3885"/>
</g>
<!-- Node12 -->
<g id="node12" class="node">
<title>Node12</title>
<g id="a_node12"><a xlink:href="../../d6/dcf/pythia6425mod_8f.html#aa8c99978a55999fa0b1fd2a946d8553a" target="_top" xlink:title="pyangl">
<polygon fill="none" stroke="#000000" points="797,-306.5 797,-326.5 847,-326.5 847,-306.5 797,-306.5"/>
<text text-anchor="middle" x="822" y="-313.5" font-family="FreeSans" font-size="10.00" fill="#000000">pyangl</text>
</a>
</g>
</g>
<!-- Node1&#45;&gt;Node12 -->
<g id="edge15" class="edge">
<title>Node1&#45;&gt;Node12</title>
<path fill="none" stroke="#191970" d="M25.5599,-1019.3187C26.1302,-943.2444 31.8975,-462.941 87,-330.5 141.2773,-200.0423 150.7016,-87.5 292,-87.5 292,-87.5 292,-87.5 469.5,-87.5 597.743,-87.5 634.0709,-121.3824 735,-200.5 769.8056,-227.7839 797.8122,-272.2494 811.9601,-297.4659"/>
<polygon fill="#191970" stroke="#191970" points="808.9783,-299.3082 816.8451,-306.405 815.121,-295.9514 808.9783,-299.3082"/>
</g>
<!-- Node14 -->
<g id="node14" class="node">
<title>Node14</title>
<g id="a_node14"><a xlink:href="../../d6/dcf/pythia6425mod_8f.html#a8a7efe2037220dc632000fb06895ebca" target="_top" xlink:title="pyerrm">
<polygon fill="none" stroke="#000000" points="443.5,-814.5 443.5,-834.5 495.5,-834.5 495.5,-814.5 443.5,-814.5"/>
<text text-anchor="middle" x="469.5" y="-821.5" font-family="FreeSans" font-size="10.00" fill="#000000">pyerrm</text>
</a>
</g>
</g>
<!-- Node1&#45;&gt;Node14 -->
<g id="edge17" class="edge">
<title>Node1&#45;&gt;Node14</title>
<path fill="none" stroke="#191970" d="M51.1336,-1032.8791C118.6092,-1040.2406 302.9572,-1050.2161 405,-956.5 438.6662,-925.581 456.8057,-873.2633 464.6588,-844.6591"/>
<polygon fill="#191970" stroke="#191970" points="468.1379,-845.1851 467.2546,-834.6272 461.3611,-843.4315 468.1379,-845.1851"/>
</g>
<!-- Node26 -->
<g id="node26" class="node">
<title>Node26</title>
<g id="a_node26"><a xlink:href="../../d6/dcf/pythia6425mod_8f.html#ad69903a1054f4f77d45fd8fe4c687aa9" target="_top" xlink:title="pymass">
<polygon fill="none" stroke="#000000" points="794.5,-576.5 794.5,-596.5 849.5,-596.5 849.5,-576.5 794.5,-576.5"/>
<text text-anchor="middle" x="822" y="-583.5" font-family="FreeSans" font-size="10.00" fill="#000000">pymass</text>
</a>
</g>
</g>
<!-- Node1&#45;&gt;Node26 -->
<g id="edge43" class="edge">
<title>Node1&#45;&gt;Node26</title>
<path fill="none" stroke="#191970" d="M39.3855,-1039.7681C51.3711,-1048.0897 69.473,-1059.4011 87,-1065.5 224.0083,-1113.1752 624.8045,-1238.8459 735,-1144.5 756.0445,-1126.4824 807.7581,-705.2107 819.5704,-606.8857"/>
<polygon fill="#191970" stroke="#191970" points="823.0678,-607.1156 820.7814,-596.7704 816.1174,-606.2834 823.0678,-607.1156"/>
</g>
<!-- Node27 -->
<g id="node27" class="node">
<title>Node27</title>
<g id="a_node27"><a xlink:href="../../d6/dcf/pythia6425mod_8f.html#ac28b7ef95cee2881a46f71d3a88d05ac" target="_top" xlink:title="pyr">
<polygon fill="none" stroke="#000000" points="983,-421.5 983,-441.5 1016,-441.5 1016,-421.5 983,-421.5"/>
<text text-anchor="middle" x="999.5" y="-428.5" font-family="FreeSans" font-size="10.00" fill="#000000">pyr</text>
</a>
</g>
</g>
<!-- Node1&#45;&gt;Node27 -->
<g id="edge97" class="edge">
<title>Node1&#45;&gt;Node27</title>
<path fill="none" stroke="#191970" d="M25.8178,-1019.4332C28.9699,-920.9029 55.1812,-131.5042 87,-94.5 147.8172,-23.7716 198.7196,-49.5 292,-49.5 292,-49.5 292,-49.5 691,-49.5 798.9963,-49.5 817.0173,-118.1466 873,-210.5 907.4207,-267.283 873.852,-299.1644 909,-355.5 925.2719,-381.5807 953.4965,-403.1659 974.1092,-416.5841"/>
<polygon fill="#191970" stroke="#191970" points="972.3697,-419.6249 982.6966,-421.9926 976.1002,-413.7017 972.3697,-419.6249"/>
</g>
<!-- Node28 -->
<g id="node28" class="node">
<title>Node28</title>
<g id="a_node28"><a xlink:href="../../d6/dcf/pythia6425mod_8f.html#a2f7ebe82da0d6aa3faf81aba70d6f832" target="_top" xlink:title="pymemx">
<polygon fill="none" stroke="#000000" points="129,-961.5 129,-981.5 190,-981.5 190,-961.5 129,-961.5"/>
<text text-anchor="middle" x="159.5" y="-968.5" font-family="FreeSans" font-size="10.00" fill="#000000">pymemx</text>
</a>
</g>
</g>
<!-- Node1&#45;&gt;Node28 -->
<g id="edge44" class="edge">
<title>Node1&#45;&gt;Node28</title>
<path fill="none" stroke="#191970" d="M42.626,-1019.3507C54.7635,-1012.3977 71.5685,-1003.2488 87,-996.5 97.2735,-992.007 108.6339,-987.7646 119.2543,-984.0941"/>
<polygon fill="#191970" stroke="#191970" points="120.3897,-987.4049 128.7472,-980.8932 118.1531,-980.7718 120.3897,-987.4049"/>
</g>
<!-- Node29 -->
<g id="node29" class="node">
<title>Node29</title>
<g id="a_node29"><a xlink:href="../../d6/dcf/pythia6425mod_8f.html#a15360bfe935dfa4b14c89715a3425579" target="_top" xlink:title="pymewt">
<polygon fill="none" stroke="#000000" points="131,-922.5 131,-942.5 188,-942.5 188,-922.5 131,-922.5"/>
<text text-anchor="middle" x="159.5" y="-929.5" font-family="FreeSans" font-size="10.00" fill="#000000">pymewt</text>
</a>
</g>
</g>
<!-- Node1&#45;&gt;Node29 -->
<g id="edge45" class="edge">
<title>Node1&#45;&gt;Node29</title>
<path fill="none" stroke="#191970" d="M30.6152,-1019.405C39.6413,-1002.642 60.0212,-969.1648 87,-951.5 97.1035,-944.8846 109.4105,-940.5686 120.9952,-937.7543"/>
<polygon fill="#191970" stroke="#191970" points="121.8614,-941.1484 130.9163,-935.6476 120.4074,-934.3011 121.8614,-941.1484"/>
</g>
<!-- Node30 -->
<g id="node30" class="node">
<title>Node30</title>
<g id="a_node30"><a xlink:href="../../d6/dcf/pythia6425mod_8f.html#aeceae4435f53744a1fd6d16580b88e9b" target="_top" xlink:title="pypdfl">
<polygon fill="none" stroke="#000000" points="268,-1837.5 268,-1857.5 316,-1857.5 316,-1837.5 268,-1837.5"/>
<text text-anchor="middle" x="292" y="-1844.5" font-family="FreeSans" font-size="10.00" fill="#000000">pypdfl</text>
</a>
</g>
</g>
<!-- Node1&#45;&gt;Node30 -->
<g id="edge46" class="edge">
<title>Node1&#45;&gt;Node30</title>
<path fill="none" stroke="#191970" d="M26.2481,-1039.5871C30.8022,-1099.868 55.6504,-1412.9285 87,-1503.5 133.9902,-1639.2585 238.6875,-1779.9842 277.3154,-1829.2056"/>
<polygon fill="#191970" stroke="#191970" points="274.7795,-1831.6412 283.7304,-1837.3097 280.268,-1827.2965 274.7795,-1831.6412"/>
</g>
<!-- Node31 -->
<g id="node31" class="node">
<title>Node31</title>
<g id="a_node31"><a xlink:href="../../d6/dcf/pythia6425mod_8f.html#a18485907fca6114e02a4ea4be006a91e" target="_top" xlink:title="pypdfu">
<polygon fill="none" stroke="#000000" points="353,-1595.5 353,-1615.5 404,-1615.5 404,-1595.5 353,-1595.5"/>
<text text-anchor="middle" x="378.5" y="-1602.5" font-family="FreeSans" font-size="10.00" fill="#000000">pypdfu</text>
</a>
</g>
</g>
<!-- Node1&#45;&gt;Node31 -->
<g id="edge96" class="edge">
<title>Node1&#45;&gt;Node31</title>
<path fill="none" stroke="#191970" d="M26.5612,-1039.6872C31.7292,-1088.018 55.3058,-1294.1463 87,-1349.5 122.0083,-1410.6419 294.4796,-1542.8233 356.3553,-1589.0984"/>
<polygon fill="#191970" stroke="#191970" points="354.5432,-1592.113 364.6525,-1595.2838 358.727,-1586.5009 354.5432,-1592.113"/>
</g>
<!-- Node45 -->
<g id="node45" class="node">
<title>Node45</title>
<g id="a_node45"><a xlink:href="../../d6/dcf/pythia6425mod_8f.html#a98ffa3df00dbe1c8a9944e3453e44580" target="_top" xlink:title="pyrobo">
<polygon fill="none" stroke="#000000" points="353,-849.5 353,-869.5 404,-869.5 404,-849.5 353,-849.5"/>
<text text-anchor="middle" x="378.5" y="-856.5" font-family="FreeSans" font-size="10.00" fill="#000000">pyrobo</text>
</a>
</g>
</g>
<!-- Node1&#45;&gt;Node45 -->
<g id="edge98" class="edge">
<title>Node1&#45;&gt;Node45</title>
<path fill="none" stroke="#191970" d="M51.1034,-1029.1781C91.6343,-1027.7086 172.1112,-1020.8308 232,-990.5 297.0831,-957.5385 295.5715,-924.7396 352,-878.5 353.1494,-877.5581 354.3417,-876.6097 355.5561,-875.6658"/>
<polygon fill="#191970" stroke="#191970" points="357.7389,-878.4042 363.6681,-869.6238 353.5575,-872.7902 357.7389,-878.4042"/>
</g>
<!-- Node46 -->
<g id="node46" class="node">
<title>Node46</title>
<g id="a_node46"><a xlink:href="../../d6/dcf/pythia6425mod_8f.html#a71b2257a4e5d19b7b94b70fee55bea56" target="_top" xlink:title="pyshow">
<polygon fill="none" stroke="#000000" points="132,-753.5 132,-773.5 187,-773.5 187,-753.5 132,-753.5"/>
<text text-anchor="middle" x="159.5" y="-760.5" font-family="FreeSans" font-size="10.00" fill="#000000">pyshow</text>
</a>
</g>
</g>
<!-- Node1&#45;&gt;Node46 -->
<g id="edge100" class="edge">
<title>Node1&#45;&gt;Node46</title>
<path fill="none" stroke="#191970" d="M30.5893,-1019.3973C50.4886,-979.8957 123.2356,-835.4875 149.7488,-782.8569"/>
<polygon fill="#191970" stroke="#191970" points="153.0323,-784.1183 154.4056,-773.6128 146.7808,-780.9689 153.0323,-784.1183"/>
</g>
<!-- Node50 -->
<g id="node50" class="node">
<title>Node50</title>
<g id="a_node50"><a xlink:href="../../de/d50/classFun4AllFileOutStream.html#ad23d8e6e6b621202575374a2155ce229" target="_top" xlink:title="Fun4AllFileOutStream::xb">
<polygon fill="none" stroke="#000000" points="87,-.5 87,-20.5 232,-20.5 232,-.5 87,-.5"/>
<text text-anchor="middle" x="159.5" y="-7.5" font-family="FreeSans" font-size="10.00" fill="#000000">Fun4AllFileOutStream::xb</text>
</a>
</g>
</g>
<!-- Node1&#45;&gt;Node50 -->
<g id="edge133" class="edge">
<title>Node1&#45;&gt;Node50</title>
<path fill="none" stroke="#191970" d="M25.803,-1019.4645C28.9113,-917.7864 55.5327,-76.8704 87,-35.5 89.8425,-31.7629 93.2777,-28.581 97.0883,-25.8722"/>
<polygon fill="#191970" stroke="#191970" points="99.0982,-28.7508 105.9459,-20.6663 95.5512,-22.7159 99.0982,-28.7508"/>
</g>
<!-- Node3 -->
<g id="node3" class="node">
<title>Node3</title>
<g id="a_node3"><a xlink:href="../../d4/d3e/classActs_1_1Logger.html#a7014d28adf021f598d69b840aa77c486" target="_top" xlink:title="decide whether a message with a given debug level has to be printed">
<polygon fill="none" stroke="#000000" points="938,-1694.5 938,-1714.5 1061,-1714.5 1061,-1694.5 938,-1694.5"/>
<text text-anchor="middle" x="999.5" y="-1701.5" font-family="FreeSans" font-size="10.00" fill="#000000">Acts::Logger::doPrint</text>
</a>
</g>
</g>
<!-- Node2&#45;&gt;Node3 -->
<g id="edge2" class="edge">
<title>Node2&#45;&gt;Node3</title>
<path fill="none" stroke="#191970" d="M873.3404,-1704.5C890.3591,-1704.5 909.6243,-1704.5 927.8837,-1704.5"/>
<polygon fill="#191970" stroke="#191970" points="927.9037,-1708.0001 937.9037,-1704.5 927.9036,-1701.0001 927.9037,-1708.0001"/>
</g>
<!-- Node6 -->
<g id="node6" class="node">
<title>Node6</title>
<g id="a_node6"><a xlink:href="../../d8/d1a/classHiMain1.html#afa91501b2c79bdaf9274e067b9d97e31" target="_top" xlink:title="HiMain1::n0">
<polygon fill="none" stroke="#000000" points="534,-230.5 534,-250.5 611,-250.5 611,-230.5 534,-230.5"/>
<text text-anchor="middle" x="572.5" y="-237.5" font-family="FreeSans" font-size="10.00" fill="#000000">HiMain1::n0</text>
</a>
</g>
</g>
<!-- Node5&#45;&gt;Node6 -->
<g id="edge5" class="edge">
<title>Node5&#45;&gt;Node6</title>
<path fill="none" stroke="#191970" d="M400.5139,-270.4224C412.3716,-266.3353 427.3335,-261.5973 441,-258.5 468.1583,-252.345 498.9801,-247.9899 523.9543,-245.1069"/>
<polygon fill="#191970" stroke="#191970" points="524.3675,-248.5827 533.9191,-243.9983 523.5934,-241.6256 524.3675,-248.5827"/>
</g>
<!-- Node8 -->
<g id="node8" class="node">
<title>Node8</title>
<g id="a_node8"><a xlink:href="../../d2/d18/medium-simple_8f.html#a1fdcab7823056a622e99f159e74b0a1e" target="_top" xlink:title="nthick">
<polygon fill="none" stroke="#000000" points="445.5,-268.5 445.5,-288.5 493.5,-288.5 493.5,-268.5 445.5,-268.5"/>
<text text-anchor="middle" x="469.5" y="-275.5" font-family="FreeSans" font-size="10.00" fill="#000000">nthick</text>
</a>
</g>
</g>
<!-- Node5&#45;&gt;Node8 -->
<g id="edge7" class="edge">
<title>Node5&#45;&gt;Node8</title>
<path fill="none" stroke="#191970" d="M400.5286,-278.5C410.9189,-278.5 423.558,-278.5 435.1641,-278.5"/>
<polygon fill="#191970" stroke="#191970" points="435.4383,-282.0001 445.4383,-278.5 435.4382,-275.0001 435.4383,-282.0001"/>
</g>
<!-- Node7 -->
<g id="node7" class="node">
<title>Node7</title>
<g id="a_node7"><a xlink:href="../../d8/d1a/classHiMain1.html#abdd4d6ac793897447c6d9f7b9e6d20ca" target="_top" xlink:title="HiMain1::init">
<polygon fill="none" stroke="#ff0000" points="650.5,-230.5 650.5,-250.5 731.5,-250.5 731.5,-230.5 650.5,-230.5"/>
<text text-anchor="middle" x="691" y="-237.5" font-family="FreeSans" font-size="10.00" fill="#000000">HiMain1::init</text>
</a>
</g>
</g>
<!-- Node6&#45;&gt;Node7 -->
<g id="edge6" class="edge">
<title>Node6&#45;&gt;Node7</title>
<path fill="none" stroke="#191970" d="M611.3013,-240.5C620.6194,-240.5 630.7065,-240.5 640.4707,-240.5"/>
<polygon fill="#191970" stroke="#191970" points="640.4832,-244.0001 650.4832,-240.5 640.4831,-237.0001 640.4832,-244.0001"/>
</g>
<!-- Node8&#45;&gt;Node4 -->
<g id="edge8" class="edge">
<title>Node8&#45;&gt;Node4</title>
<path fill="none" stroke="#191970" d="M493.5482,-279.6153C542.2814,-282.819 654.8563,-295.0821 735,-341.5 812.5442,-386.4124 837.836,-406.076 873,-488.5 932.641,-628.2979 883.0007,-1021.7518 909,-1171.5 927.2196,-1276.4393 970.0315,-1396.3389 989.5217,-1447.8213"/>
<polygon fill="#191970" stroke="#191970" points="986.3652,-1449.3666 993.2022,-1457.4602 992.9047,-1446.8695 986.3652,-1449.3666"/>
</g>
<!-- Node8&#45;&gt;Node6 -->
<g id="edge9" class="edge">
<title>Node8&#45;&gt;Node6</title>
<path fill="none" stroke="#191970" d="M493.6489,-269.5907C506.2099,-264.9565 521.829,-259.1942 535.8443,-254.0235"/>
<polygon fill="#191970" stroke="#191970" points="537.0633,-257.3044 545.2337,-250.5594 534.6403,-250.7371 537.0633,-257.3044"/>
</g>
<!-- Node10 -->
<g id="node10" class="node">
<title>Node10</title>
<g id="a_node10"><a xlink:href="../../da/d55/TPCRateLayered_8m.html#a7507ef556477c204b499f1e189d40796" target="_top" xlink:title="sum">
<polygon fill="none" stroke="#000000" points="803,-1001.5 803,-1021.5 841,-1021.5 841,-1001.5 803,-1001.5"/>
<text text-anchor="middle" x="822" y="-1008.5" font-family="FreeSans" font-size="10.00" fill="#000000">sum</text>
</a>
</g>
</g>
<!-- Node9&#45;&gt;Node10 -->
<g id="edge11" class="edge">
<title>Node9&#45;&gt;Node10</title>
<path fill="none" stroke="#191970" d="M705.5198,-1011.5C726.456,-1011.5 765.578,-1011.5 792.6713,-1011.5"/>
<polygon fill="#191970" stroke="#191970" points="792.7541,-1015.0001 802.7541,-1011.5 792.754,-1008.0001 792.7541,-1015.0001"/>
</g>
<!-- Node11&#45;&gt;Node2 -->
<g id="edge13" class="edge">
<title>Node11&#45;&gt;Node2</title>
<path fill="none" stroke="#191970" d="M716.2708,-1405.6201C723.1482,-1409.4085 730.0546,-1414.3301 735,-1420.5 800.826,-1502.6241 816.9905,-1634.3202 820.8391,-1684.342"/>
<polygon fill="#191970" stroke="#191970" points="817.3583,-1684.7444 821.5319,-1694.4825 824.342,-1684.2672 817.3583,-1684.7444"/>
</g>
<!-- Node11&#45;&gt;Node4 -->
<g id="edge14" class="edge">
<title>Node11&#45;&gt;Node4</title>
<path fill="none" stroke="#191970" d="M716.2458,-1401.8831C761.6453,-1413.3617 858.6417,-1437.8859 926.4118,-1455.0207"/>
<polygon fill="#191970" stroke="#191970" points="925.6361,-1458.4346 936.189,-1457.4927 927.352,-1451.6482 925.6361,-1458.4346"/>
</g>
<!-- Node13 -->
<g id="node13" class="node">
<title>Node13</title>
<g id="a_node13"><a xlink:href="../../d2/d0c/hdo_8cpp.html#a8f3cba07aa75b7320ae8bd6c0aeac498" target="_top" xlink:title="sign">
<polygon fill="none" stroke="#000000" points="981,-326.5 981,-346.5 1018,-346.5 1018,-326.5 981,-326.5"/>
<text text-anchor="middle" x="999.5" y="-333.5" font-family="FreeSans" font-size="10.00" fill="#000000">sign</text>
</a>
</g>
</g>
<!-- Node12&#45;&gt;Node13 -->
<g id="edge16" class="edge">
<title>Node12&#45;&gt;Node13</title>
<path fill="none" stroke="#191970" d="M847.0549,-319.3231C879.5637,-322.9861 936.1712,-329.3644 970.5028,-333.2327"/>
<polygon fill="#191970" stroke="#191970" points="970.4788,-336.7521 980.8079,-334.3938 971.2627,-329.7961 970.4788,-336.7521"/>
</g>
<!-- Node15 -->
<g id="node15" class="node">
<title>Node15</title>
<g id="a_node15"><a xlink:href="../../d5/d89/classValueGen1.html#a072deb230ac8bf0f6742e0484e030c52" target="_top" xlink:title="ValueGen1::i2">
<polygon fill="none" stroke="#000000" points="647,-536.5 647,-556.5 735,-556.5 735,-536.5 647,-536.5"/>
<text text-anchor="middle" x="691" y="-543.5" font-family="FreeSans" font-size="10.00" fill="#000000">ValueGen1::i2</text>
</a>
</g>
</g>
<!-- Node14&#45;&gt;Node15 -->
<g id="edge18" class="edge">
<title>Node14&#45;&gt;Node15</title>
<path fill="none" stroke="#191970" d="M473.9245,-814.4963C483.2663,-793.9761 506.4267,-746.1401 534,-711.5 562.9906,-675.0794 583.6977,-678.2027 611,-640.5 631.8626,-611.6902 620.5482,-590.8711 646.3181,-563.6801"/>
<polygon fill="#191970" stroke="#191970" points="648.8955,-566.0584 653.7109,-556.6211 644.0613,-560.9957 648.8955,-566.0584"/>
</g>
<!-- Node16 -->
<g id="node16" class="node">
<title>Node16</title>
<g id="a_node16"><a xlink:href="../../d6/dcf/pythia6425mod_8f.html#acc54128638bbd93cf630e1576f91d443" target="_top" xlink:title="pylist">
<polygon fill="none" stroke="#000000" points="550.5,-721.5 550.5,-741.5 594.5,-741.5 594.5,-721.5 550.5,-721.5"/>
<text text-anchor="middle" x="572.5" y="-728.5" font-family="FreeSans" font-size="10.00" fill="#000000">pylist</text>
</a>
</g>
</g>
<!-- Node14&#45;&gt;Node16 -->
<g id="edge19" class="edge">
<title>Node14&#45;&gt;Node16</title>
<path fill="none" stroke="#191970" d="M480.9163,-814.192C498.5651,-798.2567 532.65,-767.481 553.8936,-748.3"/>
<polygon fill="#191970" stroke="#191970" points="556.269,-750.8708 561.3456,-741.5714 551.5778,-745.6753 556.269,-750.8708"/>
</g>
<!-- Node22 -->
<g id="node22" class="node">
<title>Node22</title>
<g id="a_node22"><a xlink:href="../../d6/dcf/pythia6425mod_8f.html#a4140396b9ec9bafcebf4c7ebecb462e7" target="_top" xlink:title="pystop">
<polygon fill="none" stroke="#000000" points="797,-1136.5 797,-1156.5 847,-1156.5 847,-1136.5 797,-1136.5"/>
<text text-anchor="middle" x="822" y="-1143.5" font-family="FreeSans" font-size="10.00" fill="#000000">pystop</text>
</a>
</g>
</g>
<!-- Node14&#45;&gt;Node22 -->
<g id="edge42" class="edge">
<title>Node14&#45;&gt;Node22</title>
<path fill="none" stroke="#191970" d="M493.5252,-834.6368C543.6975,-856.779 661.0656,-913.7731 735,-991.5 774.3628,-1032.8819 802.2826,-1095.4431 814.7312,-1126.9308"/>
<polygon fill="#191970" stroke="#191970" points="811.4953,-1128.2673 818.354,-1136.3425 818.028,-1125.7526 811.4953,-1128.2673"/>
</g>
<!-- Node16&#45;&gt;Node4 -->
<g id="edge25" class="edge">
<title>Node16&#45;&gt;Node4</title>
<path fill="none" stroke="#191970" d="M594.6496,-741.2689C609.2892,-747.4383 629.024,-755.2138 647,-760.5 745.3401,-789.4187 804.3264,-730.4014 873,-806.5 927.6049,-867.0088 893.2285,-1091.5358 909,-1171.5 929.61,-1275.9961 971.1783,-1396.1263 989.9343,-1447.7448"/>
<polygon fill="#191970" stroke="#191970" points="986.7479,-1449.2223 993.4717,-1457.4102 993.3215,-1446.8165 986.7479,-1449.2223"/>
</g>
<!-- Node16&#45;&gt;Node9 -->
<g id="edge26" class="edge">
<title>Node16&#45;&gt;Node9</title>
<path fill="none" stroke="#191970" d="M576.858,-741.7974C594.3535,-783.137 659.6549,-937.4357 682.8014,-992.1278"/>
<polygon fill="#191970" stroke="#191970" points="679.6066,-993.5591 686.7273,-1001.4042 686.053,-990.8309 679.6066,-993.5591"/>
</g>
<!-- Node16&#45;&gt;Node15 -->
<g id="edge21" class="edge">
<title>Node16&#45;&gt;Node15</title>
<path fill="none" stroke="#191970" d="M584.4594,-721.1872C592.949,-713.2848 604.0326,-701.6963 611,-689.5 638.1982,-641.8904 612.7317,-614.3031 647,-571.5 649.857,-567.9314 653.3703,-564.7807 657.155,-562.0254"/>
<polygon fill="#191970" stroke="#191970" points="659.1363,-564.9138 665.7247,-556.6165 655.4001,-558.9942 659.1363,-564.9138"/>
</g>
<!-- Node17 -->
<g id="node17" class="node">
<title>Node17</title>
<g id="a_node17"><a xlink:href="../../d5/d89/classValueGen1.html#a9558bbb6f1b9bfcb2631b70b720742fc" target="_top" xlink:title="ValueGen1::i1">
<polygon fill="none" stroke="#000000" points="778,-498.5 778,-518.5 866,-518.5 866,-498.5 778,-498.5"/>
<text text-anchor="middle" x="822" y="-505.5" font-family="FreeSans" font-size="10.00" fill="#000000">ValueGen1::i1</text>
</a>
</g>
</g>
<!-- Node16&#45;&gt;Node17 -->
<g id="edge20" class="edge">
<title>Node16&#45;&gt;Node17</title>
<path fill="none" stroke="#191970" d="M583.7368,-721.2973C592.0792,-713.2734 603.2981,-701.4821 611,-689.5 633.1835,-654.9884 618.231,-633.749 647,-604.5 676.9987,-574.0008 699.0276,-588.654 735,-565.5 753.0008,-553.9136 753.2262,-545.4317 771,-533.5 776.5339,-529.785 782.7011,-526.2889 788.7812,-523.1551"/>
<polygon fill="#191970" stroke="#191970" points="790.7271,-526.0989 798.1606,-518.5494 787.6416,-519.8155 790.7271,-526.0989"/>
</g>
<!-- Node18 -->
<g id="node18" class="node">
<title>Node18</title>
<g id="a_node18"><a xlink:href="../../d5/d89/classValueGen1.html#a0a32cfdf50e9bb9c84580912795b1e41" target="_top" xlink:title="ValueGen1::i3">
<polygon fill="none" stroke="#000000" points="647,-731.5 647,-751.5 735,-751.5 735,-731.5 647,-731.5"/>
<text text-anchor="middle" x="691" y="-738.5" font-family="FreeSans" font-size="10.00" fill="#000000">ValueGen1::i3</text>
</a>
</g>
</g>
<!-- Node16&#45;&gt;Node18 -->
<g id="edge22" class="edge">
<title>Node16&#45;&gt;Node18</title>
<path fill="none" stroke="#191970" d="M594.5112,-733.3575C606.3666,-734.3579 621.567,-735.6407 636.3793,-736.8907"/>
<polygon fill="#191970" stroke="#191970" points="636.267,-740.3935 646.526,-737.7469 636.8557,-733.4183 636.267,-740.3935"/>
</g>
<!-- Node19 -->
<g id="node19" class="node">
<title>Node19</title>
<g id="a_node19"><a xlink:href="../../d5/d89/classValueGen1.html#adac3584a4cd24abc0946b772431a39bb" target="_top" xlink:title="ValueGen1::i4">
<polygon fill="none" stroke="#000000" points="955.5,-872.5 955.5,-892.5 1043.5,-892.5 1043.5,-872.5 955.5,-872.5"/>
<text text-anchor="middle" x="999.5" y="-879.5" font-family="FreeSans" font-size="10.00" fill="#000000">ValueGen1::i4</text>
</a>
</g>
</g>
<!-- Node16&#45;&gt;Node19 -->
<g id="edge23" class="edge">
<title>Node16&#45;&gt;Node19</title>
<path fill="none" stroke="#191970" d="M583.5382,-721.1813C597.2079,-709.1793 621.7882,-690.048 647,-682.5 684.468,-671.2827 697.3415,-671.9399 735,-682.5 847.7689,-714.1222 948.3431,-821.788 984.8892,-864.6673"/>
<polygon fill="#191970" stroke="#191970" points="982.2187,-866.9297 991.3294,-872.3376 987.5796,-862.4285 982.2187,-866.9297"/>
</g>
<!-- Node20 -->
<g id="node20" class="node">
<title>Node20</title>
<g id="a_node20"><a xlink:href="../../d5/d89/classValueGen1.html#a4d833b840495a0aee4e37d3c6bce1650" target="_top" xlink:title="ValueGen1::i5">
<polygon fill="none" stroke="#000000" points="647,-1079.5 647,-1099.5 735,-1099.5 735,-1079.5 647,-1079.5"/>
<text text-anchor="middle" x="691" y="-1086.5" font-family="FreeSans" font-size="10.00" fill="#000000">ValueGen1::i5</text>
</a>
</g>
</g>
<!-- Node16&#45;&gt;Node20 -->
<g id="edge24" class="edge">
<title>Node16&#45;&gt;Node20</title>
<path fill="none" stroke="#191970" d="M573.5452,-741.5299C577.8919,-780.4238 596.7197,-924.3838 647,-1030.5 654.1503,-1045.5907 665.467,-1060.6498 674.8327,-1071.7767"/>
<polygon fill="#191970" stroke="#191970" points="672.3086,-1074.2078 681.5131,-1079.4545 677.5894,-1069.613 672.3086,-1074.2078"/>
</g>
<!-- Node21 -->
<g id="node21" class="node">
<title>Node21</title>
<g id="a_node21"><a xlink:href="../../d6/dcf/pythia6425mod_8f.html#a56718d08dbb42b3b978fc9b5bd6970e6" target="_top" xlink:title="pylogo">
<polygon fill="none" stroke="#ff0000" points="666,-809.5 666,-829.5 716,-829.5 716,-809.5 666,-809.5"/>
<text text-anchor="middle" x="691" y="-816.5" font-family="FreeSans" font-size="10.00" fill="#000000">pylogo</text>
</a>
</g>
</g>
<!-- Node16&#45;&gt;Node21 -->
<g id="edge27" class="edge">
<title>Node16&#45;&gt;Node21</title>
<path fill="none" stroke="#191970" d="M583.0951,-741.5586C597.0995,-754.5895 622.8309,-777.632 647,-794.5 651.7731,-797.8312 657.0225,-801.1126 662.182,-804.1468"/>
<polygon fill="#191970" stroke="#191970" points="660.8261,-807.4018 671.2498,-809.2988 664.2842,-801.3156 660.8261,-807.4018"/>
</g>
<!-- Node24 -->
<g id="node24" class="node">
<title>Node24</title>
<g id="a_node24"><a xlink:href="../../d6/dcf/pythia6425mod_8f.html#ab0dbe916b7d36854c02faf180f41d585" target="_top" xlink:title="pyname">
<polygon fill="none" stroke="#000000" points="662.5,-692.5 662.5,-712.5 719.5,-712.5 719.5,-692.5 662.5,-692.5"/>
<text text-anchor="middle" x="691" y="-699.5" font-family="FreeSans" font-size="10.00" fill="#000000">pyname</text>
</a>
</g>
</g>
<!-- Node16&#45;&gt;Node24 -->
<g id="edge32" class="edge">
<title>Node16&#45;&gt;Node24</title>
<path fill="none" stroke="#191970" d="M594.5112,-726.1133C610.7376,-722.1423 633.2303,-716.6377 652.4173,-711.9422"/>
<polygon fill="#191970" stroke="#191970" points="653.5051,-715.2793 662.3865,-709.5025 651.8411,-708.48 653.5051,-715.2793"/>
</g>
<!-- Node25 -->
<g id="node25" class="node">
<title>Node25</title>
<g id="a_node25"><a xlink:href="../../d6/dcf/pythia6425mod_8f.html#a6cee1eea51c820d9e90932c9eca205b7" target="_top" xlink:title="pyp">
<polygon fill="none" stroke="#ff0000" points="673.5,-614.5 673.5,-634.5 708.5,-634.5 708.5,-614.5 673.5,-614.5"/>
<text text-anchor="middle" x="691" y="-621.5" font-family="FreeSans" font-size="10.00" fill="#000000">pyp</text>
</a>
</g>
</g>
<!-- Node16&#45;&gt;Node25 -->
<g id="edge33" class="edge">
<title>Node16&#45;&gt;Node25</title>
<path fill="none" stroke="#191970" d="M582.0195,-721.1679C589.8272,-712.6811 601.157,-700.3367 611,-689.5 627.081,-671.7955 628.3624,-664.4896 647,-649.5 652.3016,-645.2361 658.4219,-641.2643 664.3804,-637.7979"/>
<polygon fill="#191970" stroke="#191970" points="666.3951,-640.6843 673.4698,-632.7977 663.021,-634.5511 666.3951,-640.6843"/>
</g>
<!-- Node21&#45;&gt;Node4 -->
<g id="edge28" class="edge">
<title>Node21&#45;&gt;Node4</title>
<path fill="none" stroke="#191970" d="M716.0554,-814.3939C755.5384,-807.962 831.9533,-802.3358 873,-844.5 923.9947,-896.8831 894.4474,-1099.8574 909,-1171.5 930.202,-1275.8776 971.4623,-1396.0694 990.0365,-1447.7243"/>
<polygon fill="#191970" stroke="#191970" points="986.8432,-1449.1856 993.5384,-1457.3969 993.4251,-1446.8026 986.8432,-1449.1856"/>
</g>
<!-- Node21&#45;&gt;Node22 -->
<g id="edge29" class="edge">
<title>Node21&#45;&gt;Node22</title>
<path fill="none" stroke="#191970" d="M700.1116,-829.9008C710.0911,-841.8186 725.8862,-862.3162 735,-882.5 762.859,-944.1976 749.2935,-966.3787 771,-1030.5 782.8673,-1065.5562 801.1623,-1104.6335 812.3117,-1127.3072"/>
<polygon fill="#191970" stroke="#191970" points="809.2955,-1129.1024 816.8828,-1136.4972 815.563,-1125.9849 809.2955,-1129.1024"/>
</g>
<!-- Node22&#45;&gt;Node19 -->
<g id="edge30" class="edge">
<title>Node22&#45;&gt;Node19</title>
<path fill="none" stroke="#191970" d="M847.0614,-1137.96C856.0275,-1133.9973 865.7077,-1128.5695 873,-1121.5 940.5734,-1055.9915 979.8882,-946.5195 993.7645,-902.1102"/>
<polygon fill="#191970" stroke="#191970" points="997.122,-903.099 996.6796,-892.5134 990.4242,-901.0644 997.122,-903.099"/>
</g>
<!-- Node23 -->
<g id="node23" class="node">
<title>Node23</title>
<g id="a_node23"><a xlink:href="../../d4/da6/classActs_1_1ExaTrkXTimer.html#a00d2cecc70cefbf45e374fb27c11632d" target="_top" xlink:title="Acts::ExaTrkXTimer\l::stop">
<polygon fill="none" stroke="#000000" points="942,-1130.5 942,-1162.5 1057,-1162.5 1057,-1130.5 942,-1130.5"/>
<text text-anchor="start" x="950" y="-1149.5" font-family="FreeSans" font-size="10.00" fill="#000000">Acts::ExaTrkXTimer</text>
<text text-anchor="middle" x="999.5" y="-1137.5" font-family="FreeSans" font-size="10.00" fill="#000000">::stop</text>
</a>
</g>
</g>
<!-- Node22&#45;&gt;Node23 -->
<g id="edge31" class="edge">
<title>Node22&#45;&gt;Node23</title>
<path fill="none" stroke="#191970" d="M847.0549,-1146.5C868.9388,-1146.5 901.7429,-1146.5 931.3211,-1146.5"/>
<polygon fill="#191970" stroke="#191970" points="931.6255,-1150.0001 941.6255,-1146.5 931.6254,-1143.0001 931.6255,-1150.0001"/>
</g>
<!-- Node25&#45;&gt;Node2 -->
<g id="edge35" class="edge">
<title>Node25&#45;&gt;Node2</title>
<path fill="none" stroke="#191970" d="M701.903,-634.8722C712.4455,-645.6582 727.844,-663.5859 735,-682.5 773.0864,-783.1671 761.9302,-1058.2518 771,-1165.5 788.1068,-1367.7837 812.6488,-1612.3891 819.9045,-1683.9287"/>
<polygon fill="#191970" stroke="#191970" points="816.4582,-1684.6354 820.9513,-1694.2303 823.4223,-1683.9277 816.4582,-1684.6354"/>
</g>
<!-- Node25&#45;&gt;Node4 -->
<g id="edge36" class="edge">
<title>Node25&#45;&gt;Node4</title>
<path fill="none" stroke="#191970" d="M708.6648,-632.1982C746.4919,-649.737 834.9692,-696.6271 873,-766.5 916.195,-845.8611 891.9442,-1082.7695 909,-1171.5 929.1052,-1276.0944 970.9361,-1396.1734 989.8472,-1447.7617"/>
<polygon fill="#191970" stroke="#191970" points="986.6669,-1449.2533 993.4148,-1457.4213 993.2334,-1446.828 986.6669,-1449.2533"/>
</g>
<!-- Node25&#45;&gt;Node12 -->
<g id="edge37" class="edge">
<title>Node25&#45;&gt;Node12</title>
<path fill="none" stroke="#191970" d="M700.1534,-614.2869C709.8743,-603.0141 725.1662,-584.005 735,-565.5 777.5009,-485.5228 806.2602,-380.4977 817.1425,-336.8663"/>
<polygon fill="#191970" stroke="#191970" points="820.598,-337.4702 819.5753,-326.9248 813.7986,-335.8063 820.598,-337.4702"/>
</g>
<!-- Node25&#45;&gt;Node13 -->
<g id="edge41" class="edge">
<title>Node25&#45;&gt;Node13</title>
<path fill="none" stroke="#191970" d="M708.6924,-615.6295C716.9543,-611.1941 726.7609,-605.4987 735,-599.5 752.547,-586.7245 752.5365,-577.911 771,-566.5 812.2855,-540.9841 839.8018,-562.9039 873,-527.5 909.9242,-488.1226 878.9736,-456.3597 909,-411.5 925.7097,-386.5356 953.1289,-365.4812 973.4147,-352.0955"/>
<polygon fill="#191970" stroke="#191970" points="975.3579,-355.0073 981.894,-346.6689 971.5845,-349.1114 975.3579,-355.0073"/>
</g>
<!-- Node25&#45;&gt;Node17 -->
<g id="edge34" class="edge">
<title>Node25&#45;&gt;Node17</title>
<path fill="none" stroke="#191970" d="M708.8028,-617.1962C717.4801,-612.9825 727.6099,-607.0194 735,-599.5 758.4209,-575.6692 746.8642,-556.6064 771,-533.5 775.0511,-529.6217 779.8195,-526.2327 784.7864,-523.307"/>
<polygon fill="#191970" stroke="#191970" points="786.6183,-526.2977 793.8293,-518.5355 783.3516,-520.1067 786.6183,-526.2977"/>
</g>
<!-- Node25&#45;&gt;Node26 -->
<g id="edge38" class="edge">
<title>Node25&#45;&gt;Node26</title>
<path fill="none" stroke="#191970" d="M708.6672,-619.3752C727.9411,-613.7843 759.3647,-604.669 784.2404,-597.4532"/>
<polygon fill="#191970" stroke="#191970" points="785.4715,-600.7404 794.1005,-594.593 783.5213,-594.0175 785.4715,-600.7404"/>
</g>
<!-- Node26&#45;&gt;Node4 -->
<g id="edge39" class="edge">
<title>Node26&#45;&gt;Node4</title>
<path fill="none" stroke="#191970" d="M849.6257,-593.9059C858.5357,-597.6966 867.5171,-603.3042 873,-611.5 907.6693,-663.3232 897.98,-1110.1309 909,-1171.5 927.8246,-1276.3324 970.3218,-1396.2876 989.6261,-1447.8028"/>
<polygon fill="#191970" stroke="#191970" points="986.4618,-1449.3306 993.2704,-1457.4482 993.01,-1446.8565 986.4618,-1449.3306"/>
</g>
<!-- Node26&#45;&gt;Node27 -->
<g id="edge40" class="edge">
<title>Node26&#45;&gt;Node27</title>
<path fill="none" stroke="#191970" d="M846.8408,-576.4126C855.489,-572.3697 865.0172,-567.2887 873,-561.5 919.2384,-527.9701 963.4548,-476.6979 985.3052,-449.6538"/>
<polygon fill="#191970" stroke="#191970" points="988.088,-451.7778 991.5878,-441.7777 982.6157,-447.4127 988.088,-451.7778"/>
</g>
<!-- Node30&#45;&gt;Node2 -->
<g id="edge47" class="edge">
<title>Node30&#45;&gt;Node2</title>
<path fill="none" stroke="#191970" d="M295.1681,-1857.5172C308.7466,-1898.2766 366.0927,-2049.5 469.5,-2049.5 469.5,-2049.5 469.5,-2049.5 572.5,-2049.5 659.2182,-2049.5 681.2842,-2009.5783 735,-1941.5 788.9478,-1873.1277 811.5629,-1768.111 818.9837,-1724.5271"/>
<polygon fill="#191970" stroke="#191970" points="822.4467,-1725.0369 820.5869,-1714.6066 815.5363,-1723.9201 822.4467,-1725.0369"/>
</g>
<!-- Node30&#45;&gt;Node4 -->
<g id="edge48" class="edge">
<title>Node30&#45;&gt;Node4</title>
<path fill="none" stroke="#191970" d="M293.1066,-1857.8081C296.6376,-1886.1079 309.9919,-1966.1107 352,-2014.5 381.3248,-2048.2793 397.6993,-2050.2734 441,-2061.5 627.4639,-2109.8445 739.2239,-2165.0999 873,-2026.5 926.0717,-1971.5146 889.7214,-1758.4482 909,-1684.5 927.3078,-1614.2754 965.3511,-1537.2114 985.7971,-1498.5577"/>
<polygon fill="#191970" stroke="#191970" points="988.9656,-1500.0546 990.5934,-1489.5856 982.7923,-1496.7545 988.9656,-1500.0546"/>
</g>
<!-- Node30&#45;&gt;Node31 -->
<g id="edge49" class="edge">
<title>Node30&#45;&gt;Node31</title>
<path fill="none" stroke="#191970" d="M295.6067,-1837.4097C308.7136,-1800.7406 353.9681,-1674.1326 371.492,-1625.1061"/>
<polygon fill="#191970" stroke="#191970" points="374.8078,-1626.228 374.8779,-1615.6334 368.2162,-1623.8719 374.8078,-1626.228"/>
</g>
<!-- Node31&#45;&gt;Node2 -->
<g id="edge52" class="edge">
<title>Node31&#45;&gt;Node2</title>
<path fill="none" stroke="#191970" d="M379.3513,-1615.5385C383.3064,-1659.6387 401.397,-1835.5443 441,-1870.5 489.9847,-1913.7364 680.7997,-1903.9858 735,-1867.5 785.4234,-1833.5567 808.8671,-1760.5553 817.6449,-1724.9154"/>
<polygon fill="#191970" stroke="#191970" points="821.1517,-1725.2851 819.9952,-1714.7536 814.3318,-1723.7077 821.1517,-1725.2851"/>
</g>
<!-- Node31&#45;&gt;Node4 -->
<g id="edge53" class="edge">
<title>Node31&#45;&gt;Node4</title>
<path fill="none" stroke="#191970" d="M378.7289,-1615.7106C380.1287,-1668.0778 389.2937,-1905.8665 441,-1952.5 538.1003,-2040.074 615.8039,-1995.2585 735,-1941.5 808.3,-1908.4411 830.3126,-1892.6437 873,-1824.5 907.1066,-1770.0542 888.2766,-1745.3124 909,-1684.5 932.4681,-1615.6333 968.4791,-1537.7026 987.2157,-1498.6443"/>
<polygon fill="#191970" stroke="#191970" points="990.3953,-1500.1083 991.5889,-1489.5809 984.0909,-1497.0663 990.3953,-1500.1083"/>
</g>
<!-- Node31&#45;&gt;Node14 -->
<g id="edge56" class="edge">
<title>Node31&#45;&gt;Node14</title>
<path fill="none" stroke="#191970" d="M379.6839,-1595.3396C389.2511,-1513.2297 453.9117,-958.2849 467.1392,-844.7617"/>
<polygon fill="#191970" stroke="#191970" points="470.6347,-845.0022 468.3157,-834.6643 463.6818,-844.192 470.6347,-845.0022"/>
</g>
<!-- Node31&#45;&gt;Node17 -->
<g id="edge50" class="edge">
<title>Node31&#45;&gt;Node17</title>
<path fill="none" stroke="#191970" d="M379.3811,-1595.4614C383.7986,-1546.9174 404.7695,-1336.6804 441,-1283.5 502.0888,-1193.8317 552.5749,-1205.943 647,-1152.5 685.0551,-1130.9615 710.7904,-1144.9142 735,-1108.5 801.8305,-1007.9786 724.6842,-677.9707 771,-566.5 777.5411,-550.7571 790.1644,-536.3454 801.2152,-525.8258"/>
<polygon fill="#191970" stroke="#191970" points="803.811,-528.1969 808.8744,-518.8903 799.1125,-523.0081 803.811,-528.1969"/>
</g>
<!-- Node31&#45;&gt;Node20 -->
<g id="edge51" class="edge">
<title>Node31&#45;&gt;Node20</title>
<path fill="none" stroke="#191970" d="M379.518,-1595.2063C384.4919,-1546.3767 407.3695,-1338.1945 441,-1283.5 495.4274,-1194.9828 605.9002,-1131.3639 659.8897,-1104.1719"/>
<polygon fill="#191970" stroke="#191970" points="661.5713,-1107.2448 668.9793,-1099.6704 658.4648,-1100.9719 661.5713,-1107.2448"/>
</g>
<!-- Node31&#45;&gt;Node27 -->
<g id="edge90" class="edge">
<title>Node31&#45;&gt;Node27</title>
<path fill="none" stroke="#191970" d="M379.1614,-1595.3316C381.7483,-1562.1977 393.5266,-1455.4023 441,-1384.5 505.8025,-1287.7164 548.06,-1283.9598 647,-1222.5 683.813,-1199.6324 702.2492,-1208.8815 735,-1180.5 756.7982,-1161.6099 752.3772,-1148.5271 771,-1126.5 811.193,-1078.9597 842.5053,-1084.7737 873,-1030.5 873.9262,-1028.8516 973.285,-556.2376 995.2389,-451.7773"/>
<polygon fill="#191970" stroke="#191970" points="998.6904,-452.3716 997.3219,-441.8655 991.8401,-450.9319 998.6904,-452.3716"/>
</g>
<!-- Node32 -->
<g id="node32" class="node">
<title>Node32</title>
<g id="a_node32"><a xlink:href="../../dc/db8/pythia-6_84_828_8f.html#ae919bdecd4999b50dd2ce8fe8cb8c1ca" target="_top" xlink:title="pdfset">
<polygon fill="none" stroke="#000000" points="548,-1364.5 548,-1384.5 597,-1384.5 597,-1364.5 548,-1364.5"/>
<text text-anchor="middle" x="572.5" y="-1371.5" font-family="FreeSans" font-size="10.00" fill="#000000">pdfset</text>
</a>
</g>
</g>
<!-- Node31&#45;&gt;Node32 -->
<g id="edge54" class="edge">
<title>Node31&#45;&gt;Node32</title>
<path fill="none" stroke="#191970" d="M378.8911,-1595.4431C380.6325,-1564.6601 390.0747,-1470.7085 441,-1419.5 466.7615,-1393.5952 508.0481,-1382.5916 537.4847,-1377.9244"/>
<polygon fill="#191970" stroke="#191970" points="538.3306,-1381.3398 547.7429,-1376.4758 537.3517,-1374.4086 538.3306,-1381.3398"/>
</g>
<!-- Node33 -->
<g id="node33" class="node">
<title>Node33</title>
<g id="a_node33"><a xlink:href="../../d6/dcf/pythia6425mod_8f.html#a40c4a6998ba33195decba0c36a8c74fe" target="_top" xlink:title="pyfcmp">
<polygon fill="none" stroke="#000000" points="442.5,-1840.5 442.5,-1860.5 496.5,-1860.5 496.5,-1840.5 442.5,-1840.5"/>
<text text-anchor="middle" x="469.5" y="-1847.5" font-family="FreeSans" font-size="10.00" fill="#000000">pyfcmp</text>
</a>
</g>
</g>
<!-- Node31&#45;&gt;Node33 -->
<g id="edge57" class="edge">
<title>Node31&#45;&gt;Node33</title>
<path fill="none" stroke="#191970" d="M379.951,-1615.8069C384.7434,-1647.5658 402.0337,-1746.0919 441,-1817.5 443.9009,-1822.816 447.7719,-1828.0322 451.7235,-1832.6918"/>
<polygon fill="#191970" stroke="#191970" points="449.4077,-1835.3468 458.7311,-1840.3792 454.5809,-1830.6311 449.4077,-1835.3468"/>
</g>
<!-- Node34 -->
<g id="node34" class="node">
<title>Node34</title>
<g id="a_node34"><a xlink:href="../../d6/dcf/pythia6425mod_8f.html#a055632fad3ca0e02e8fd6c3e1111633d" target="_top" xlink:title="pygano">
<polygon fill="none" stroke="#ff0000" points="664,-1694.5 664,-1714.5 718,-1714.5 718,-1694.5 664,-1694.5"/>
<text text-anchor="middle" x="691" y="-1701.5" font-family="FreeSans" font-size="10.00" fill="#000000">pygano</text>
</a>
</g>
</g>
<!-- Node31&#45;&gt;Node34 -->
<g id="edge59" class="edge">
<title>Node31&#45;&gt;Node34</title>
<path fill="none" stroke="#191970" d="M389.4308,-1615.7582C413.3247,-1637.3276 472.9698,-1686.6152 534,-1701.5 573.9767,-1711.25 621.3904,-1710.5457 653.5745,-1708.3254"/>
<polygon fill="#191970" stroke="#191970" points="654.1729,-1711.7896 663.8725,-1707.5272 653.6319,-1704.8105 654.1729,-1711.7896"/>
</g>
<!-- Node35 -->
<g id="node35" class="node">
<title>Node35</title>
<g id="a_node35"><a xlink:href="../../d6/dcf/pythia6425mod_8f.html#a5d921e74d5d3170e13e61189727bb8e4" target="_top" xlink:title="pyggam">
<polygon fill="none" stroke="#ff0000" points="544,-1750.5 544,-1770.5 601,-1770.5 601,-1750.5 544,-1750.5"/>
<text text-anchor="middle" x="572.5" y="-1757.5" font-family="FreeSans" font-size="10.00" fill="#000000">pyggam</text>
</a>
</g>
</g>
<!-- Node31&#45;&gt;Node35 -->
<g id="edge62" class="edge">
<title>Node31&#45;&gt;Node35</title>
<path fill="none" stroke="#191970" d="M380.1748,-1615.559C384.8564,-1640.302 400.4942,-1704.3697 441,-1735.5 467.3049,-1755.7164 505.1662,-1761.1596 533.5142,-1762.0195"/>
<polygon fill="#191970" stroke="#191970" points="533.8271,-1765.5235 543.8692,-1762.1459 533.9127,-1758.524 533.8271,-1765.5235"/>
</g>
<!-- Node36 -->
<g id="node36" class="node">
<title>Node36</title>
<g id="a_node36"><a xlink:href="../../d6/dcf/pythia6425mod_8f.html#a6b802d62748ef3052e945d88179ab875" target="_top" xlink:title="pygvmd">
<polygon fill="none" stroke="#ff0000" points="662.5,-1810.5 662.5,-1830.5 719.5,-1830.5 719.5,-1810.5 662.5,-1810.5"/>
<text text-anchor="middle" x="691" y="-1817.5" font-family="FreeSans" font-size="10.00" fill="#000000">pygvmd</text>
</a>
</g>
</g>
<!-- Node31&#45;&gt;Node36 -->
<g id="edge69" class="edge">
<title>Node31&#45;&gt;Node36</title>
<path fill="none" stroke="#191970" d="M379.417,-1615.7208C382.493,-1643.6687 395.0075,-1721.9082 441,-1761.5 501.0433,-1813.1871 598.1486,-1821.5497 651.9596,-1821.8274"/>
<polygon fill="#191970" stroke="#191970" points="652.1353,-1825.3268 662.1208,-1821.7855 652.1064,-1818.3268 652.1353,-1825.3268"/>
</g>
<!-- Node37 -->
<g id="node37" class="node">
<title>Node37</title>
<g id="a_node37"><a xlink:href="../../d6/dcf/pythia6425mod_8f.html#a798f90cb9dfdd7ac82ec4df67aa3c137" target="_top" xlink:title="pypcmp">
<polygon fill="none" stroke="#000000" points="441,-1922.5 441,-1942.5 498,-1942.5 498,-1922.5 441,-1922.5"/>
<text text-anchor="middle" x="469.5" y="-1929.5" font-family="FreeSans" font-size="10.00" fill="#000000">pypcmp</text>
</a>
</g>
</g>
<!-- Node31&#45;&gt;Node37 -->
<g id="edge70" class="edge">
<title>Node31&#45;&gt;Node37</title>
<path fill="none" stroke="#191970" d="M379.7321,-1615.7332C385.4908,-1662.4673 410.7522,-1855.5661 441,-1907.5 442.5527,-1910.166 444.4924,-1912.6939 446.6252,-1915.0448"/>
<polygon fill="#191970" stroke="#191970" points="444.6567,-1917.9982 454.339,-1922.2998 449.4525,-1912.8991 444.6567,-1917.9982"/>
</g>
<!-- Node38 -->
<g id="node38" class="node">
<title>Node38</title>
<g id="a_node38"><a xlink:href="../../d6/dcf/pythia6425mod_8f.html#a685bfaaf4e371dea879c7215f06ef963" target="_top" xlink:title="pypdel">
<polygon fill="none" stroke="#ff0000" points="444.5,-1595.5 444.5,-1615.5 494.5,-1615.5 494.5,-1595.5 444.5,-1595.5"/>
<text text-anchor="middle" x="469.5" y="-1602.5" font-family="FreeSans" font-size="10.00" fill="#000000">pypdel</text>
</a>
</g>
</g>
<!-- Node31&#45;&gt;Node38 -->
<g id="edge72" class="edge">
<title>Node31&#45;&gt;Node38</title>
<path fill="none" stroke="#191970" d="M404.3335,-1605.5C413.6153,-1605.5 424.2491,-1605.5 434.1973,-1605.5"/>
<polygon fill="#191970" stroke="#191970" points="434.2308,-1609.0001 444.2308,-1605.5 434.2307,-1602.0001 434.2308,-1609.0001"/>
</g>
<!-- Node39 -->
<g id="node39" class="node">
<title>Node39</title>
<g id="a_node39"><a xlink:href="../../d6/dcf/pythia6425mod_8f.html#adaeea1cf93a90348771583d1ca460c5a" target="_top" xlink:title="pypdga">
<polygon fill="none" stroke="#000000" points="545.5,-1672.5 545.5,-1692.5 599.5,-1692.5 599.5,-1672.5 545.5,-1672.5"/>
<text text-anchor="middle" x="572.5" y="-1679.5" font-family="FreeSans" font-size="10.00" fill="#000000">pypdga</text>
</a>
</g>
</g>
<!-- Node31&#45;&gt;Node39 -->
<g id="edge84" class="edge">
<title>Node31&#45;&gt;Node39</title>
<path fill="none" stroke="#191970" d="M403.8621,-1615.5664C437.9921,-1629.1129 498.8568,-1653.2705 537.3757,-1668.5589"/>
<polygon fill="#191970" stroke="#191970" points="536.5458,-1671.9951 547.1317,-1672.4311 539.1282,-1665.4888 536.5458,-1671.9951"/>
</g>
<!-- Node40 -->
<g id="node40" class="node">
<title>Node40</title>
<g id="a_node40"><a xlink:href="../../dc/db8/pythia-6_84_828_8f.html#abbdced697febbc6728f18f644baf7041" target="_top" xlink:title="structm">
<polygon fill="none" stroke="#000000" points="545,-1403.5 545,-1423.5 600,-1423.5 600,-1403.5 545,-1403.5"/>
<text text-anchor="middle" x="572.5" y="-1410.5" font-family="FreeSans" font-size="10.00" fill="#000000">structm</text>
</a>
</g>
</g>
<!-- Node31&#45;&gt;Node40 -->
<g id="edge91" class="edge">
<title>Node31&#45;&gt;Node40</title>
<path fill="none" stroke="#191970" d="M379.6154,-1595.1276C383.1481,-1567.4925 396.6234,-1491.4768 441,-1451.5 466.789,-1428.2679 505.9576,-1419.176 534.8431,-1415.6515"/>
<polygon fill="#191970" stroke="#191970" points="535.3955,-1419.1128 544.976,-1414.589 534.6655,-1412.151 535.3955,-1419.1128"/>
</g>
<!-- Node41 -->
<g id="node41" class="node">
<title>Node41</title>
<g id="a_node41"><a xlink:href="../../dc/d4e/classbin__heap.html#a09924a9669f054bc6fdcf2dc5637f7f3" target="_top" xlink:title="Returns a reference to the element at the top of the heap.">
<polygon fill="none" stroke="#000000" points="648,-1463.5 648,-1483.5 734,-1483.5 734,-1463.5 648,-1463.5"/>
<text text-anchor="middle" x="691" y="-1470.5" font-family="FreeSans" font-size="10.00" fill="#000000">bin_heap::top</text>
</a>
</g>
</g>
<!-- Node31&#45;&gt;Node41 -->
<g id="edge95" class="edge">
<title>Node31&#45;&gt;Node41</title>
<path fill="none" stroke="#191970" d="M402.2448,-1595.4702C457.407,-1572.1697 594.3314,-1514.3328 657.7654,-1487.5383"/>
<polygon fill="#191970" stroke="#191970" points="659.4414,-1490.6299 667.2914,-1483.5145 656.7175,-1484.1815 659.4414,-1490.6299"/>
</g>
<!-- Node42 -->
<g id="node42" class="node">
<title>Node42</title>
<g id="a_node42"><a xlink:href="../../d6/dcf/pythia6425mod_8f.html#a531404f3c78f1a46663578aced4e7949" target="_top" xlink:title="pypdpi">
<polygon fill="none" stroke="#ff0000" points="666,-1502.5 666,-1522.5 716,-1522.5 716,-1502.5 666,-1502.5"/>
<text text-anchor="middle" x="691" y="-1509.5" font-family="FreeSans" font-size="10.00" fill="#000000">pypdpi</text>
</a>
</g>
</g>
<!-- Node31&#45;&gt;Node42 -->
<g id="edge85" class="edge">
<title>Node31&#45;&gt;Node42</title>
<path fill="none" stroke="#191970" d="M404.3005,-1597.0803C415.5511,-1593.4511 428.9074,-1589.1997 441,-1585.5 517.4932,-1562.0973 607.6581,-1536.1768 656.0659,-1522.3953"/>
<polygon fill="#191970" stroke="#191970" points="657.0805,-1525.7457 665.7419,-1519.6441 655.1659,-1519.0126 657.0805,-1525.7457"/>
</g>
<!-- Node43 -->
<g id="node43" class="node">
<title>Node43</title>
<g id="a_node43"><a xlink:href="../../d6/dcf/pythia6425mod_8f.html#a50867d0838ac3bac097f6b5ebad0367e" target="_top" xlink:title="pypdpr">
<polygon fill="none" stroke="#ff0000" points="443,-2000.5 443,-2020.5 496,-2020.5 496,-2000.5 443,-2000.5"/>
<text text-anchor="middle" x="469.5" y="-2007.5" font-family="FreeSans" font-size="10.00" fill="#000000">pypdpr</text>
</a>
</g>
</g>
<!-- Node31&#45;&gt;Node43 -->
<g id="edge88" class="edge">
<title>Node31&#45;&gt;Node43</title>
<path fill="none" stroke="#191970" d="M379.2516,-1615.7518C383.3305,-1669.5025 404.0001,-1918.8643 441,-1985.5 442.4977,-1988.1973 444.4025,-1990.745 446.515,-1993.1075"/>
<polygon fill="#191970" stroke="#191970" points="444.5351,-1996.0519 454.2082,-2000.3742 449.3418,-1990.963 444.5351,-1996.0519"/>
</g>
<!-- Node44 -->
<g id="node44" class="node">
<title>Node44</title>
<g id="a_node44"><a xlink:href="../../dc/db8/pythia-6_84_828_8f.html#a1e98d1a0597a83ca8ab61c39097e70cf" target="_top" xlink:title="structp">
<polygon fill="none" stroke="#000000" points="546.5,-1442.5 546.5,-1462.5 598.5,-1462.5 598.5,-1442.5 546.5,-1442.5"/>
<text text-anchor="middle" x="572.5" y="-1449.5" font-family="FreeSans" font-size="10.00" fill="#000000">structp</text>
</a>
</g>
</g>
<!-- Node31&#45;&gt;Node44 -->
<g id="edge92" class="edge">
<title>Node31&#45;&gt;Node44</title>
<path fill="none" stroke="#191970" d="M380.2972,-1595.2307C385.1801,-1570.6028 401.1029,-1507.9699 441,-1477.5 468.1032,-1456.8009 507.3455,-1451.6179 535.9029,-1450.9639"/>
<polygon fill="#191970" stroke="#191970" points="536.2947,-1454.4621 546.2771,-1450.9121 536.2597,-1447.4622 536.2947,-1454.4621"/>
</g>
<!-- Node32&#45;&gt;Node22 -->
<g id="edge55" class="edge">
<title>Node32&#45;&gt;Node22</title>
<path fill="none" stroke="#191970" d="M583.048,-1364.4643C597.4275,-1350.812 624.0247,-1325.6616 647,-1304.5 703.1053,-1252.8237 770.2571,-1192.6607 802.6451,-1163.7479"/>
<polygon fill="#191970" stroke="#191970" points="805.3303,-1166.0428 810.4623,-1156.7738 800.6703,-1160.8193 805.3303,-1166.0428"/>
</g>
<!-- Node33&#45;&gt;Node2 -->
<g id="edge58" class="edge">
<title>Node33&#45;&gt;Node2</title>
<path fill="none" stroke="#191970" d="M496.5711,-1857.1837C547.2208,-1868.1148 658.129,-1884.4797 735,-1840.5 779.8312,-1814.851 805.1998,-1755.6605 815.8961,-1724.5057"/>
<polygon fill="#191970" stroke="#191970" points="819.3026,-1725.3484 819.0755,-1714.756 812.6475,-1723.1782 819.3026,-1725.3484"/>
</g>
<!-- Node34&#45;&gt;Node2 -->
<g id="edge60" class="edge">
<title>Node34&#45;&gt;Node2</title>
<path fill="none" stroke="#191970" d="M718.1433,-1704.5C730.5042,-1704.5 745.679,-1704.5 760.572,-1704.5"/>
<polygon fill="#191970" stroke="#191970" points="760.7995,-1708.0001 770.7994,-1704.5 760.7994,-1701.0001 760.7995,-1708.0001"/>
</g>
<!-- Node34&#45;&gt;Node4 -->
<g id="edge61" class="edge">
<title>Node34&#45;&gt;Node4</title>
<path fill="none" stroke="#191970" d="M713.8493,-1694.4782C749.6535,-1678.2083 820.3253,-1643.7799 873,-1603.5 914.9401,-1571.4288 956.2027,-1525.6075 979.687,-1497.8016"/>
<polygon fill="#191970" stroke="#191970" points="982.6588,-1499.7035 986.3855,-1489.7857 977.2874,-1495.2148 982.6588,-1499.7035"/>
</g>
<!-- Node35&#45;&gt;Node2 -->
<g id="edge63" class="edge">
<title>Node35&#45;&gt;Node2</title>
<path fill="none" stroke="#191970" d="M601.1208,-1754.0761C641.5606,-1744.9994 716.1965,-1728.2475 767.4278,-1716.7487"/>
<polygon fill="#191970" stroke="#191970" points="768.3542,-1720.1279 777.3449,-1714.5228 766.8211,-1713.2978 768.3542,-1720.1279"/>
</g>
<!-- Node35&#45;&gt;Node4 -->
<g id="edge64" class="edge">
<title>Node35&#45;&gt;Node4</title>
<path fill="none" stroke="#191970" d="M601.0783,-1765.5223C658.7121,-1773.9786 790.4075,-1784.6447 873,-1723.5 912.2781,-1694.4218 967.8306,-1556.972 989.9115,-1499.1877"/>
<polygon fill="#191970" stroke="#191970" points="993.2431,-1500.273 993.5161,-1489.6817 986.6979,-1497.7911 993.2431,-1500.273"/>
</g>
<!-- Node35&#45;&gt;Node34 -->
<g id="edge65" class="edge">
<title>Node35&#45;&gt;Node34</title>
<path fill="none" stroke="#191970" d="M593.6854,-1750.4883C612.2746,-1741.7036 639.5326,-1728.8222 660.4747,-1718.9255"/>
<polygon fill="#191970" stroke="#191970" points="662.0526,-1722.051 669.5985,-1714.6138 659.0617,-1715.7221 662.0526,-1722.051"/>
</g>
<!-- Node35&#45;&gt;Node36 -->
<g id="edge66" class="edge">
<title>Node35&#45;&gt;Node36</title>
<path fill="none" stroke="#191970" d="M592.3342,-1770.5427C611.3889,-1780.1906 640.3974,-1794.8784 662.0353,-1805.8343"/>
<polygon fill="#191970" stroke="#191970" points="660.5984,-1809.0298 671.1011,-1810.4246 663.7605,-1802.7847 660.5984,-1809.0298"/>
</g>
<!-- Node36&#45;&gt;Node2 -->
<g id="edge67" class="edge">
<title>Node36&#45;&gt;Node2</title>
<path fill="none" stroke="#191970" d="M702.6254,-1810.2058C725.211,-1790.2063 775.2176,-1745.9256 802.8021,-1721.4997"/>
<polygon fill="#191970" stroke="#191970" points="805.4213,-1723.8553 810.5877,-1714.6055 800.7807,-1718.6146 805.4213,-1723.8553"/>
</g>
<!-- Node36&#45;&gt;Node4 -->
<g id="edge68" class="edge">
<title>Node36&#45;&gt;Node4</title>
<path fill="none" stroke="#191970" d="M719.5979,-1825.1386C758.879,-1829.8012 829.586,-1831.8334 873,-1795.5 912.7724,-1762.2143 890.7591,-1733.0494 909,-1684.5 934.589,-1616.3929 969.6965,-1538.1386 987.7397,-1498.832"/>
<polygon fill="#191970" stroke="#191970" points="990.9377,-1500.2549 991.9431,-1489.7078 984.58,-1497.3258 990.9377,-1500.2549"/>
</g>
<!-- Node37&#45;&gt;Node2 -->
<g id="edge71" class="edge">
<title>Node37&#45;&gt;Node2</title>
<path fill="none" stroke="#191970" d="M498.3149,-1939.1325C550.863,-1949.4633 663.4285,-1963.2387 735,-1911.5 797.3515,-1866.4264 815.2729,-1767.8184 820.2115,-1725.0108"/>
<polygon fill="#191970" stroke="#191970" points="823.7047,-1725.2554 821.2468,-1714.9496 816.7415,-1724.5387 823.7047,-1725.2554"/>
</g>
<!-- Node38&#45;&gt;Node2 -->
<g id="edge73" class="edge">
<title>Node38&#45;&gt;Node2</title>
<path fill="none" stroke="#191970" d="M494.5069,-1611.7423C541.7163,-1623.6253 647.1201,-1650.6256 735,-1676.5 750.4589,-1681.0516 767.3451,-1686.3987 782.0929,-1691.1937"/>
<polygon fill="#191970" stroke="#191970" points="781.3249,-1694.6249 791.9175,-1694.4086 783.5019,-1687.9721 781.3249,-1694.6249"/>
</g>
<!-- Node38&#45;&gt;Node4 -->
<g id="edge74" class="edge">
<title>Node38&#45;&gt;Node4</title>
<path fill="none" stroke="#191970" d="M494.6653,-1601.4682C523.0504,-1596.7834 570.5337,-1588.5327 611,-1579.5 728.5227,-1553.2671 756.9808,-1542.7382 873,-1510.5 893.5568,-1504.7879 915.9206,-1498.3283 936.0479,-1492.4236"/>
<polygon fill="#191970" stroke="#191970" points="937.1254,-1495.755 945.7313,-1489.5751 935.15,-1489.0395 937.1254,-1495.755"/>
</g>
<!-- Node38&#45;&gt;Node32 -->
<g id="edge75" class="edge">
<title>Node38&#45;&gt;Node32</title>
<path fill="none" stroke="#191970" d="M469.8364,-1595.3216C471.4455,-1562.2381 480.7203,-1456.2636 534,-1393.5 535.4893,-1391.7456 537.1794,-1390.138 539.0002,-1388.6673"/>
<polygon fill="#191970" stroke="#191970" points="541.1324,-1391.4555 547.6021,-1383.0655 537.3124,-1385.5897 541.1324,-1391.4555"/>
</g>
<!-- Node38&#45;&gt;Node35 -->
<g id="edge76" class="edge">
<title>Node38&#45;&gt;Node35</title>
<path fill="none" stroke="#191970" d="M476.2581,-1615.67C493.2851,-1641.2931 538.1464,-1708.8029 560.0759,-1741.8036"/>
<polygon fill="#191970" stroke="#191970" points="557.4012,-1744.1024 565.8509,-1750.4941 563.2313,-1740.2282 557.4012,-1744.1024"/>
</g>
<!-- Node38&#45;&gt;Node39 -->
<g id="edge77" class="edge">
<title>Node38&#45;&gt;Node39</title>
<path fill="none" stroke="#191970" d="M481.5714,-1615.8527C494.3157,-1626.6335 515.1334,-1643.8244 534,-1657.5 538.3253,-1660.6352 543.0251,-1663.8426 547.6068,-1666.8694"/>
<polygon fill="#191970" stroke="#191970" points="545.8469,-1669.8996 556.1422,-1672.401 549.6539,-1664.0253 545.8469,-1669.8996"/>
</g>
<!-- Node38&#45;&gt;Node40 -->
<g id="edge80" class="edge">
<title>Node38&#45;&gt;Node40</title>
<path fill="none" stroke="#191970" d="M470.6831,-1595.1746C474.5207,-1566.0626 489.0943,-1482.2152 534,-1432.5 534.9992,-1431.3937 536.0773,-1430.3444 537.2159,-1429.3497"/>
<polygon fill="#191970" stroke="#191970" points="539.2652,-1432.1873 545.4115,-1423.5575 535.2251,-1426.4708 539.2652,-1432.1873"/>
</g>
<!-- Node38&#45;&gt;Node41 -->
<g id="edge83" class="edge">
<title>Node38&#45;&gt;Node41</title>
<path fill="none" stroke="#191970" d="M494.7185,-1598.9713C524.869,-1590.2115 575.6773,-1572.3309 611,-1543.5 632.4941,-1525.9562 625.4592,-1509.9864 647,-1492.5 648.7321,-1491.0939 650.584,-1489.7739 652.5117,-1488.5375"/>
<polygon fill="#191970" stroke="#191970" points="654.2736,-1491.5625 661.3115,-1483.6429 650.871,-1485.4451 654.2736,-1491.5625"/>
</g>
<!-- Node39&#45;&gt;Node2 -->
<g id="edge78" class="edge">
<title>Node39&#45;&gt;Node2</title>
<path fill="none" stroke="#191970" d="M599.6433,-1681.0724C632.0026,-1679.7766 687.6564,-1678.833 735,-1684.5 748.6114,-1686.1293 763.2032,-1689.0204 776.4729,-1692.1067"/>
<polygon fill="#191970" stroke="#191970" points="775.7822,-1695.5405 786.3245,-1694.4873 777.4264,-1688.7363 775.7822,-1695.5405"/>
</g>
<!-- Node39&#45;&gt;Node4 -->
<g id="edge79" class="edge">
<title>Node39&#45;&gt;Node4</title>
<path fill="none" stroke="#191970" d="M597.1877,-1672.4708C634.659,-1657.2947 708.18,-1627.6991 771,-1603.5 816.1435,-1586.1101 830.3771,-1588.383 873,-1565.5 909.9727,-1545.6504 948.403,-1516.2419 973.0592,-1496.0475"/>
<polygon fill="#191970" stroke="#191970" points="975.4007,-1498.6529 980.8708,-1489.5793 970.9363,-1493.2612 975.4007,-1498.6529"/>
</g>
<!-- Node40&#45;&gt;Node22 -->
<g id="edge81" class="edge">
<title>Node40&#45;&gt;Node22</title>
<path fill="none" stroke="#191970" d="M596.4389,-1403.3246C601.5422,-1400.5563 606.6874,-1397.2643 611,-1393.5 631.9022,-1375.2551 627.4469,-1362.1838 647,-1342.5 680.8989,-1308.3746 701.7102,-1314.2198 735,-1279.5 769.1844,-1243.8472 798.1022,-1193.021 812.4032,-1165.6762"/>
<polygon fill="#191970" stroke="#191970" points="815.5395,-1167.2305 816.9933,-1156.7359 809.3123,-1164.0333 815.5395,-1167.2305"/>
</g>
<!-- Node40&#45;&gt;Node41 -->
<g id="edge82" class="edge">
<title>Node40&#45;&gt;Node41</title>
<path fill="none" stroke="#191970" d="M592.9089,-1423.5003C598.7597,-1426.3866 605.1402,-1429.5527 611,-1432.5 628.2037,-1441.1529 647.4087,-1450.9895 662.689,-1458.8586"/>
<polygon fill="#191970" stroke="#191970" points="661.151,-1462.0034 671.6431,-1463.4758 664.3592,-1455.7819 661.151,-1462.0034"/>
</g>
<!-- Node42&#45;&gt;Node2 -->
<g id="edge86" class="edge">
<title>Node42&#45;&gt;Node2</title>
<path fill="none" stroke="#191970" d="M697.8587,-1522.5524C718.7624,-1553.19 781.9073,-1645.7382 809.2025,-1685.7434"/>
<polygon fill="#191970" stroke="#191970" points="806.3643,-1687.7936 814.8915,-1694.0815 812.1466,-1683.8484 806.3643,-1687.7936"/>
</g>
<!-- Node42&#45;&gt;Node4 -->
<g id="edge87" class="edge">
<title>Node42&#45;&gt;Node4</title>
<path fill="none" stroke="#191970" d="M716.2458,-1509.3085C755.7222,-1504.3179 834.2104,-1494.3956 898.5737,-1486.2589"/>
<polygon fill="#191970" stroke="#191970" points="899.2921,-1489.696 908.7742,-1484.9694 898.4141,-1482.7513 899.2921,-1489.696"/>
</g>
<!-- Node43&#45;&gt;Node4 -->
<g id="edge89" class="edge">
<title>Node43&#45;&gt;Node4</title>
<path fill="none" stroke="#191970" d="M496.0402,-2019.0766C567.72,-2040.4052 766.942,-2087.2463 873,-1987.5 922.394,-1941.0456 891.4556,-1749.9979 909,-1684.5 927.7773,-1614.3994 965.6222,-1537.283 985.9146,-1498.5887"/>
<polygon fill="#191970" stroke="#191970" points="989.0844,-1500.0817 990.6732,-1489.6067 982.8989,-1496.8046 989.0844,-1500.0817"/>
</g>
<!-- Node44&#45;&gt;Node22 -->
<g id="edge94" class="edge">
<title>Node44&#45;&gt;Node22</title>
<path fill="none" stroke="#191970" d="M596.5843,-1442.4869C601.6801,-1439.7102 606.7855,-1436.3738 611,-1432.5 633.06,-1412.2236 625.3249,-1396.1874 647,-1375.5 679.5408,-1344.442 704.2305,-1358.3138 735,-1325.5 779.9795,-1277.532 806.1638,-1201.9582 816.6397,-1166.3332"/>
<polygon fill="#191970" stroke="#191970" points="820.029,-1167.21 819.39,-1156.6345 813.2945,-1165.3003 820.029,-1167.21"/>
</g>
<!-- Node44&#45;&gt;Node41 -->
<g id="edge93" class="edge">
<title>Node44&#45;&gt;Node41</title>
<path fill="none" stroke="#191970" d="M598.5053,-1457.1085C610.1278,-1459.1682 624.2737,-1461.6751 637.9712,-1464.1025"/>
<polygon fill="#191970" stroke="#191970" points="637.3659,-1467.5497 647.8233,-1465.8484 638.5875,-1460.6571 637.3659,-1467.5497"/>
</g>
<!-- Node45&#45;&gt;Node14 -->
<g id="edge99" class="edge">
<title>Node45&#45;&gt;Node14</title>
<path fill="none" stroke="#191970" d="M404.3335,-849.564C413.4766,-846.0475 423.9315,-842.0263 433.7507,-838.2497"/>
<polygon fill="#191970" stroke="#191970" points="435.2089,-841.4389 443.2859,-834.5824 432.696,-834.9055 435.2089,-841.4389"/>
</g>
<!-- Node46&#45;&gt;Node2 -->
<g id="edge105" class="edge">
<title>Node46&#45;&gt;Node2</title>
<path fill="none" stroke="#191970" d="M166.0921,-773.8369C180.7466,-797.3796 215.9934,-857.2359 232,-912.5 252.0926,-981.871 219.6244,-1181.873 268,-1235.5 301.6623,-1272.8166 328.2439,-1259.5 378.5,-1259.5 378.5,-1259.5 378.5,-1259.5 469.5,-1259.5 545.2478,-1259.5 558.8169,-1299.5942 611,-1354.5 632.4239,-1377.0417 623.6976,-1393.9061 647,-1414.5 679.0555,-1442.8296 706.0392,-1422.0136 735,-1453.5 797.8791,-1521.8625 815.6682,-1638.0059 820.3963,-1684.4429"/>
<polygon fill="#191970" stroke="#191970" points="816.9147,-1684.8052 821.3174,-1694.4419 823.8852,-1684.163 816.9147,-1684.8052"/>
</g>
<!-- Node46&#45;&gt;Node4 -->
<g id="edge106" class="edge">
<title>Node46&#45;&gt;Node4</title>
<path fill="none" stroke="#191970" d="M164.4582,-773.6001C176.2455,-797.6312 206.8396,-860.1184 232,-912.5 297.8059,-1049.5018 226.5135,-1221.5 378.5,-1221.5 378.5,-1221.5 378.5,-1221.5 469.5,-1221.5 681.8961,-1221.5 899.8273,-1388.6053 973.4356,-1450.6617"/>
<polygon fill="#191970" stroke="#191970" points="971.4113,-1453.535 981.2944,-1457.3529 975.9493,-1448.2052 971.4113,-1453.535"/>
</g>
<!-- Node46&#45;&gt;Node5 -->
<g id="edge107" class="edge">
<title>Node46&#45;&gt;Node5</title>
<path fill="none" stroke="#191970" d="M160.9964,-753.465C169.6958,-696.1785 215.2044,-410.6414 268,-341.5 287.8767,-315.4694 321.8108,-298.4548 346.8427,-288.7464"/>
<polygon fill="#191970" stroke="#191970" points="348.1163,-292.0072 356.2869,-285.2625 345.6935,-285.4398 348.1163,-292.0072"/>
</g>
<!-- Node46&#45;&gt;Node9 -->
<g id="edge108" class="edge">
<title>Node46&#45;&gt;Node9</title>
<path fill="none" stroke="#191970" d="M164.8718,-773.5846C178.9117,-799.1917 219.0273,-867.7218 268,-910.5 300.0569,-938.502 311.7448,-942.6699 352,-956.5 381.7676,-966.727 593.0727,-997.5029 666.1821,-1007.9703"/>
<polygon fill="#191970" stroke="#191970" points="665.911,-1011.467 676.3054,-1009.4162 666.9008,-1004.5373 665.911,-1011.467"/>
</g>
<!-- Node46&#45;&gt;Node12 -->
<g id="edge109" class="edge">
<title>Node46&#45;&gt;Node12</title>
<path fill="none" stroke="#191970" d="M160.6976,-753.2264C168.0206,-691.8907 208.4235,-374.2043 268,-299.5 333.6249,-217.2115 638.7786,-177.8449 735,-220.5 770.4449,-236.2128 797.6015,-274.2906 811.5612,-297.4909"/>
<polygon fill="#191970" stroke="#191970" points="808.6857,-299.5099 816.7217,-306.4145 814.7454,-296.0056 808.6857,-299.5099"/>
</g>
<!-- Node46&#45;&gt;Node13 -->
<g id="edge132" class="edge">
<title>Node46&#45;&gt;Node13</title>
<path fill="none" stroke="#191970" d="M160.1665,-753.3431C164.7376,-686.7014 193.5225,-312.2006 268,-231.5 450.4715,-33.7818 638.9666,-77.772 873,-210.5 922.1464,-238.3725 965.4372,-290.4302 986.296,-318.1031"/>
<polygon fill="#191970" stroke="#191970" points="983.5,-320.2087 992.2591,-326.1694 989.1289,-316.0475 983.5,-320.2087"/>
</g>
<!-- Node46&#45;&gt;Node14 -->
<g id="edge110" class="edge">
<title>Node46&#45;&gt;Node14</title>
<path fill="none" stroke="#191970" d="M187.0104,-768.9133C243.1571,-779.9616 370.9137,-805.1008 433.54,-817.424"/>
<polygon fill="#191970" stroke="#191970" points="432.8824,-820.8617 443.3701,-819.3583 434.234,-813.9934 432.8824,-820.8617"/>
</g>
<!-- Node46&#45;&gt;Node15 -->
<g id="edge104" class="edge">
<title>Node46&#45;&gt;Node15</title>
<path fill="none" stroke="#191970" d="M168.3932,-753.4189C185.7821,-734.2523 226.249,-692.2637 268,-667.5 388.2979,-596.1478 552.9213,-564.9624 636.9115,-552.9885"/>
<polygon fill="#191970" stroke="#191970" points="637.5675,-556.4311 646.9911,-551.589 636.6047,-549.4976 637.5675,-556.4311"/>
</g>
<!-- Node46&#45;&gt;Node17 -->
<g id="edge103" class="edge">
<title>Node46&#45;&gt;Node17</title>
<path fill="none" stroke="#191970" d="M163.101,-753.4893C173.9038,-723.3704 206.8428,-630.8966 232,-553.5 248.9495,-501.3547 236.1353,-480.1213 268,-435.5 303.2353,-386.1586 317.8692,-355.5 378.5,-355.5 378.5,-355.5 378.5,-355.5 572.5,-355.5 674.9652,-355.5 770.818,-450.4369 806.896,-490.7433"/>
<polygon fill="#191970" stroke="#191970" points="804.4418,-493.2531 813.6682,-498.4612 809.7034,-488.6362 804.4418,-493.2531"/>
</g>
<!-- Node46&#45;&gt;Node26 -->
<g id="edge115" class="edge">
<title>Node46&#45;&gt;Node26</title>
<path fill="none" stroke="#191970" d="M163.0252,-753.2179C183.8175,-693.4602 292.4717,-393.5 378.5,-393.5 378.5,-393.5 378.5,-393.5 469.5,-393.5 615.2308,-393.5 757.8166,-521.9808 805.376,-569.2857"/>
<polygon fill="#191970" stroke="#191970" points="802.8951,-571.7546 812.4196,-576.3952 807.8679,-566.8279 802.8951,-571.7546"/>
</g>
<!-- Node46&#45;&gt;Node27 -->
<g id="edge130" class="edge">
<title>Node46&#45;&gt;Node27</title>
<path fill="none" stroke="#191970" d="M160.4261,-753.1777C166.4036,-688.6259 201.405,-340.6404 268,-261.5 293.9317,-230.6832 313.4932,-239.3047 352,-227.5 515.1504,-177.4844 572.3821,-148.7794 735,-200.5 806.1999,-223.1451 821.7758,-242.1097 873,-296.5 894.0604,-318.8621 888.9754,-332.2058 909,-355.5 929.1813,-378.9764 957.013,-401.1814 976.4653,-415.4577"/>
<polygon fill="#191970" stroke="#191970" points="974.5972,-418.4257 984.7556,-421.4353 978.6912,-412.7477 974.5972,-418.4257"/>
</g>
<!-- Node46&#45;&gt;Node45 -->
<g id="edge131" class="edge">
<title>Node46&#45;&gt;Node45</title>
<path fill="none" stroke="#191970" d="M171.6838,-773.6049C190.9253,-789.0486 230.0716,-818.4206 268,-834.5 291.9184,-844.64 320.5707,-850.9716 342.705,-854.7254"/>
<polygon fill="#191970" stroke="#191970" points="342.2592,-858.1985 352.6861,-856.3198 343.3634,-851.2861 342.2592,-858.1985"/>
</g>
<!-- Node47 -->
<g id="node47" class="node">
<title>Node47</title>
<g id="a_node47"><a xlink:href="../../d3/dd5/jewel-2_82_80_8f.html#a128c80a01e220038eb138a985885083a" target="_top" xlink:title="ei">
<polygon fill="none" stroke="#000000" points="364,-927.5 364,-947.5 393,-947.5 393,-927.5 364,-927.5"/>
<text text-anchor="middle" x="378.5" y="-934.5" font-family="FreeSans" font-size="10.00" fill="#000000">ei</text>
</a>
</g>
</g>
<!-- Node46&#45;&gt;Node47 -->
<g id="edge101" class="edge">
<title>Node46&#45;&gt;Node47</title>
<path fill="none" stroke="#191970" d="M166.6377,-773.5856C182.6643,-795.6644 223.5971,-848.9769 268,-882.5 295.1138,-902.9703 331.0242,-919.1802 354.4371,-928.5557"/>
<polygon fill="#191970" stroke="#191970" points="353.3528,-931.8895 363.9411,-932.2606 355.8952,-925.3675 353.3528,-931.8895"/>
</g>
<!-- Node48 -->
<g id="node48" class="node">
<title>Node48</title>
<g id="a_node48"><a xlink:href="../../d6/dcf/pythia6425mod_8f.html#a77daa748922eb89e9148b8a9f2eebaff" target="_top" xlink:title="pymael">
<polygon fill="none" stroke="#000000" points="352,-888.5 352,-908.5 405,-908.5 405,-888.5 352,-888.5"/>
<text text-anchor="middle" x="378.5" y="-895.5" font-family="FreeSans" font-size="10.00" fill="#000000">pymael</text>
</a>
</g>
</g>
<!-- Node46&#45;&gt;Node48 -->
<g id="edge111" class="edge">
<title>Node46&#45;&gt;Node48</title>
<path fill="none" stroke="#191970" d="M169.0526,-773.7622C186.9133,-792.4434 227.2575,-832.3028 268,-856.5 291.2591,-870.3137 319.8615,-881.0371 342.1384,-888.1903"/>
<polygon fill="#191970" stroke="#191970" points="341.2983,-891.5944 351.8867,-891.2239 343.3784,-884.9105 341.2983,-891.5944"/>
</g>
<!-- Node49 -->
<g id="node49" class="node">
<title>Node49</title>
<g id="a_node49"><a xlink:href="../../d6/dcf/pythia6425mod_8f.html#a7fce06ff25ae6503bb24f0f3c9b453b3" target="_top" xlink:title="pyptfs">
<polygon fill="none" stroke="#ff0000" points="268,-677.5 268,-697.5 316,-697.5 316,-677.5 268,-677.5"/>
<text text-anchor="middle" x="292" y="-684.5" font-family="FreeSans" font-size="10.00" fill="#000000">pyptfs</text>
</a>
</g>
</g>
<!-- Node46&#45;&gt;Node49 -->
<g id="edge116" class="edge">
<title>Node46&#45;&gt;Node49</title>
<path fill="none" stroke="#191970" d="M177.095,-753.4078C199.7646,-740.4048 239.3737,-717.6856 265.6455,-702.6166"/>
<polygon fill="#191970" stroke="#191970" points="267.3993,-705.6455 274.3323,-697.634 263.9164,-699.5735 267.3993,-705.6455"/>
</g>
<!-- Node47&#45;&gt;Node4 -->
<g id="edge102" class="edge">
<title>Node47&#45;&gt;Node4</title>
<path fill="none" stroke="#191970" d="M393.2046,-942.5606C458.7811,-965.1775 721.9058,-1056.4601 735,-1069.5 767.2883,-1101.6544 746.2358,-1127.2485 771,-1165.5 805.6711,-1219.0541 833.4108,-1216.4718 873,-1266.5 921.1684,-1327.3696 965.5465,-1407.8846 986.6257,-1448.2088"/>
<polygon fill="#191970" stroke="#191970" points="983.6443,-1450.0626 991.3537,-1457.3301 989.859,-1446.8412 983.6443,-1450.0626"/>
</g>
<!-- Node48&#45;&gt;Node4 -->
<g id="edge112" class="edge">
<title>Node48&#45;&gt;Node4</title>
<path fill="none" stroke="#191970" d="M405.1659,-894.2193C487.8795,-882.6001 742.3656,-859.6155 873,-991.5 930.4135,-1049.4629 889.2687,-1092.3377 909,-1171.5 934.7595,-1274.8473 973.6487,-1395.5752 990.8231,-1447.5465"/>
<polygon fill="#191970" stroke="#191970" points="987.5816,-1448.8913 994.0522,-1457.2807 994.2256,-1446.6873 987.5816,-1448.8913"/>
</g>
<!-- Node48&#45;&gt;Node9 -->
<g id="edge113" class="edge">
<title>Node48&#45;&gt;Node9</title>
<path fill="none" stroke="#191970" d="M405.1284,-905.319C462.0715,-919.9749 592.0531,-953.8493 611,-962.5 628.4926,-970.4867 630.6299,-976.4105 647,-986.5 653.4322,-990.4644 660.5084,-994.5866 667.0699,-998.3132"/>
<polygon fill="#191970" stroke="#191970" points="665.7466,-1001.5839 676.1801,-1003.4254 669.1722,-995.4794 665.7466,-1001.5839"/>
</g>
<!-- Node48&#45;&gt;Node14 -->
<g id="edge114" class="edge">
<title>Node48&#45;&gt;Node14</title>
<path fill="none" stroke="#191970" d="M392.0822,-888.4558C396.2595,-885.3115 400.8494,-881.8003 405,-878.5 420.3784,-866.2721 437.4062,-851.9832 450.103,-841.1764"/>
<polygon fill="#191970" stroke="#191970" points="452.4308,-843.7911 457.7603,-834.6342 447.8837,-838.469 452.4308,-843.7911"/>
</g>
<!-- Node49&#45;&gt;Node2 -->
<g id="edge120" class="edge">
<title>Node49&#45;&gt;Node2</title>
<path fill="none" stroke="#191970" d="M310.1513,-697.602C357.1495,-723.7878 480.3833,-792.6466 498,-804.5 609.3204,-879.4021 669.2537,-874.5385 735,-991.5 769.9675,-1053.7066 811.9585,-1574.7022 820.4571,-1684.312"/>
<polygon fill="#191970" stroke="#191970" points="816.9737,-1684.6633 821.2317,-1694.3648 823.953,-1684.1255 816.9737,-1684.6633"/>
</g>
<!-- Node49&#45;&gt;Node4 -->
<g id="edge121" class="edge">
<title>Node49&#45;&gt;Node4</title>
<path fill="none" stroke="#191970" d="M316.2,-693.2974C339.3516,-699.1392 375.0719,-708.9296 405,-720.5 516.6099,-763.6492 536.9174,-791.5911 647,-838.5 745.4393,-880.4474 805.6397,-838.3588 873,-921.5 908.3336,-965.1114 896.9108,-1116.6888 909,-1171.5 931.9404,-1275.5094 972.2963,-1395.8928 990.3365,-1447.6607"/>
<polygon fill="#191970" stroke="#191970" points="987.1237,-1449.0759 993.7344,-1457.3554 993.7297,-1446.7605 987.1237,-1449.0759"/>
</g>
<!-- Node49&#45;&gt;Node5 -->
<g id="edge122" class="edge">
<title>Node49&#45;&gt;Node5</title>
<path fill="none" stroke="#191970" d="M294.1382,-677.3898C305.4966,-623.6839 358.8249,-371.5302 374.2879,-298.4162"/>
<polygon fill="#191970" stroke="#191970" points="377.7141,-299.1307 376.3591,-288.6229 370.8656,-297.6823 377.7141,-299.1307"/>
</g>
<!-- Node49&#45;&gt;Node12 -->
<g id="edge123" class="edge">
<title>Node49&#45;&gt;Node12</title>
<path fill="none" stroke="#191970" d="M292.4538,-677.3539C294.3509,-646.2352 303.9953,-550.7851 352,-493.5 466.6256,-356.7146 698.4047,-325.5103 786.7276,-318.4964"/>
<polygon fill="#191970" stroke="#191970" points="787.0546,-321.9819 796.77,-317.7555 786.5395,-315.0009 787.0546,-321.9819"/>
</g>
<!-- Node49&#45;&gt;Node13 -->
<g id="edge129" class="edge">
<title>Node49&#45;&gt;Node13</title>
<path fill="none" stroke="#191970" d="M308.3426,-677.1901C311.1503,-674.9048 313.851,-672.3152 316,-669.5 342.3915,-634.9277 321.363,-609.3727 352,-578.5 534.7149,-394.3795 870.4812,-348.656 970.5939,-338.8821"/>
<polygon fill="#191970" stroke="#191970" points="971.206,-342.3403 980.8388,-337.929 970.5576,-335.3704 971.206,-342.3403"/>
</g>
<!-- Node49&#45;&gt;Node14 -->
<g id="edge124" class="edge">
<title>Node49&#45;&gt;Node14</title>
<path fill="none" stroke="#191970" d="M298.8031,-697.6654C309.0398,-712.4134 329.6049,-739.9985 352,-758.5 377.9561,-779.9434 411.8575,-798.1333 436.571,-809.9521"/>
<polygon fill="#191970" stroke="#191970" points="435.3463,-813.2434 445.8868,-814.3147 438.315,-806.904 435.3463,-813.2434"/>
</g>
<!-- Node49&#45;&gt;Node15 -->
<g id="edge119" class="edge">
<title>Node49&#45;&gt;Node15</title>
<path fill="none" stroke="#191970" d="M316.0682,-678.8405C373.3325,-658.2629 522.2296,-604.9081 647,-561.5 648.4292,-561.0028 649.8851,-560.4979 651.3561,-559.9892"/>
<polygon fill="#191970" stroke="#191970" points="652.8432,-563.179 661.1607,-556.6162 650.566,-556.5598 652.8432,-563.179"/>
</g>
<!-- Node49&#45;&gt;Node16 -->
<g id="edge125" class="edge">
<title>Node49&#45;&gt;Node16</title>
<path fill="none" stroke="#191970" d="M316.1826,-686.8863C355.079,-686.4512 433.6922,-687.8569 498,-703.5 512.4433,-707.0134 527.9037,-712.5185 540.9758,-717.7209"/>
<polygon fill="#191970" stroke="#191970" points="539.8697,-721.05 550.4501,-721.6022 542.5234,-714.5725 539.8697,-721.05"/>
</g>
<!-- Node49&#45;&gt;Node17 -->
<g id="edge118" class="edge">
<title>Node49&#45;&gt;Node17</title>
<path fill="none" stroke="#191970" d="M304.2891,-677.3429C316.0251,-667.9781 334.4709,-654.1135 352,-644.5 475.8132,-576.5968 509.8612,-560.1675 647,-526.5 686.8199,-516.7242 733.0016,-512.2514 767.9221,-510.208"/>
<polygon fill="#191970" stroke="#191970" points="768.1194,-513.7026 777.9173,-509.6712 767.7439,-506.7127 768.1194,-513.7026"/>
</g>
<!-- Node49&#45;&gt;Node27 -->
<g id="edge127" class="edge">
<title>Node49&#45;&gt;Node27</title>
<path fill="none" stroke="#191970" d="M307.1798,-677.4373C310.278,-675.0313 313.3861,-672.3324 316,-669.5 336.3208,-647.4808 329.7387,-632.5552 352,-612.5 384.7836,-582.9653 400.6065,-586.2602 441,-568.5 634.7361,-483.3182 890.5742,-445.2693 972.8259,-434.7031"/>
<polygon fill="#191970" stroke="#191970" points="973.3486,-438.165 982.8336,-433.4443 972.475,-431.2197 973.3486,-438.165"/>
</g>
<!-- Node49&#45;&gt;Node45 -->
<g id="edge128" class="edge">
<title>Node49&#45;&gt;Node45</title>
<path fill="none" stroke="#191970" d="M297.1519,-697.7443C311.1814,-725.641 350.2442,-803.315 368.6577,-839.9292"/>
<polygon fill="#191970" stroke="#191970" points="365.6459,-841.7306 373.2657,-849.0919 371.8996,-838.5855 365.6459,-841.7306"/>
</g>
<!-- Node49&#45;&gt;Node47 -->
<g id="edge117" class="edge">
<title>Node49&#45;&gt;Node47</title>
<path fill="none" stroke="#191970" d="M292.3271,-697.6347C293.8746,-731.6534 302.6572,-843.7626 352,-917.5 353.154,-919.2245 354.5075,-920.8595 355.9815,-922.3961"/>
<polygon fill="#191970" stroke="#191970" points="354.1084,-925.3981 363.991,-929.2172 358.647,-920.0689 354.1084,-925.3981"/>
</g>
<!-- Node49&#45;&gt;Node48 -->
<g id="edge126" class="edge">
<title>Node49&#45;&gt;Node48</title>
<path fill="none" stroke="#191970" d="M292.9915,-697.5751C296.3783,-727.678 309.7272,-818.5711 352,-878.5 352.7475,-879.5598 353.5684,-880.5877 354.4439,-881.5813"/>
<polygon fill="#191970" stroke="#191970" points="352.1942,-884.2679 361.9151,-888.4816 356.9436,-879.1256 352.1942,-884.2679"/>
</g>
</g>
</svg>
