<?xml version="1.0" encoding="UTF-8" standalone="no"?>
<!DOCTYPE svg PUBLIC "-//W3C//DTD SVG 1.1//EN"
 "http://www.w3.org/Graphics/SVG/1.1/DTD/svg11.dtd">
<!-- Generated by graphviz version 2.40.1 (20161225.0304)
 -->
<!-- Title: ActsExamples::IterativeVertexFinderAlgorithm Pages: 1 -->
<svg width="1945pt" height="333pt"
 viewBox="0.00 0.00 1945.00 332.75" xmlns="http://www.w3.org/2000/svg" xmlns:xlink="http://www.w3.org/1999/xlink">
<g id="graph0" class="graph" transform="scale(1 1) rotate(0) translate(4 328.7489)">
<title>ActsExamples::IterativeVertexFinderAlgorithm</title>
<!-- Node1 -->
<g id="node1" class="node">
<title>Node1</title>
<polygon fill="#bfbfbf" stroke="#000000" points="1768,-109.2489 1768,-141.2489 1937,-141.2489 1937,-109.2489 1768,-109.2489"/>
<text text-anchor="start" x="1776" y="-128.2489" font-family="FreeSans" font-size="10.00" fill="#000000">ActsExamples::IterativeVertex</text>
<text text-anchor="middle" x="1852.5" y="-116.2489" font-family="FreeSans" font-size="10.00" fill="#000000">FinderAlgorithm</text>
</g>
<!-- Node2 -->
<g id="node2" class="node">
<title>Node2</title>
<g id="a_node2"><a xlink:href="../../de/dc1/classActsExamples_1_1IAlgorithm.html" target="_top" xlink:title="ActsExamples::IAlgorithm">
<polygon fill="none" stroke="#000000" points="975,-97.2489 975,-117.2489 1122,-117.2489 1122,-97.2489 975,-97.2489"/>
<text text-anchor="middle" x="1048.5" y="-104.2489" font-family="FreeSans" font-size="10.00" fill="#000000">ActsExamples::IAlgorithm</text>
</a>
</g>
</g>
<!-- Node2&#45;&gt;Node1 -->
<g id="edge1" class="edge">
<title>Node2&#45;&gt;Node1</title>
<path fill="none" stroke="#191970" d="M1127.4877,-95.9186C1235.1737,-82.1139 1434.0051,-62.4703 1603,-78.2489 1665.6486,-84.0982 1736.0081,-98.0382 1785.9993,-109.2271"/>
<polygon fill="#191970" stroke="#191970" points="1126.8208,-92.4757 1117.355,-97.2349 1127.7226,-99.4174 1126.8208,-92.4757"/>
</g>
<!-- Node3 -->
<g id="node3" class="node">
<title>Node3</title>
<g id="a_node3"><a xlink:href="../../d5/d52/classActsExamples_1_1SequenceElement.html" target="_top" xlink:title="ActsExamples::SequenceElement">
<polygon fill="none" stroke="#000000" points="622,-210.2489 622,-230.2489 809,-230.2489 809,-210.2489 622,-210.2489"/>
<text text-anchor="middle" x="715.5" y="-217.2489" font-family="FreeSans" font-size="10.00" fill="#000000">ActsExamples::SequenceElement</text>
</a>
</g>
</g>
<!-- Node3&#45;&gt;Node2 -->
<g id="edge2" class="edge">
<title>Node3&#45;&gt;Node2</title>
<path fill="none" stroke="#191970" d="M806.6916,-208.5916C848.588,-201.3928 898.3338,-190.1939 941,-173.2489 977.6363,-158.6987 1015.8992,-131.9803 1035.3888,-117.3987"/>
<polygon fill="#191970" stroke="#191970" points="806.0617,-205.1482 796.7743,-210.2467 807.2141,-212.0527 806.0617,-205.1482"/>
</g>
<!-- Node5 -->
<g id="node5" class="node">
<title>Node5</title>
<g id="a_node5"><a xlink:href="../../d6/da8/classActsExamples_1_1DataHandleBase.html" target="_top" xlink:title="ActsExamples::DataHandleBase">
<polygon fill="none" stroke="#000000" points="959,-196.2489 959,-216.2489 1138,-216.2489 1138,-196.2489 959,-196.2489"/>
<text text-anchor="middle" x="1048.5" y="-203.2489" font-family="FreeSans" font-size="10.00" fill="#000000">ActsExamples::DataHandleBase</text>
</a>
</g>
</g>
<!-- Node3&#45;&gt;Node5 -->
<g id="edge5" class="edge">
<title>Node3&#45;&gt;Node5</title>
<path fill="none" stroke="#9a32cd" stroke-dasharray="5,2" d="M819.1821,-215.8899C863.9867,-214.0062 915.903,-211.8236 958.9952,-210.0119"/>
<polygon fill="#9a32cd" stroke="#9a32cd" points="818.9894,-212.3948 809.1452,-216.3119 819.2835,-219.3886 818.9894,-212.3948"/>
<text text-anchor="middle" x="884" y="-218.2489" font-family="FreeSans" font-size="10.00" fill="#000000"> m_parent</text>
</g>
<!-- Node4 -->
<g id="node4" class="node">
<title>Node4</title>
<polygon fill="none" stroke="#bfbfbf" points="1411,-292.2489 1411,-324.2489 1535,-324.2489 1535,-292.2489 1411,-292.2489"/>
<text text-anchor="start" x="1419" y="-311.2489" font-family="FreeSans" font-size="10.00" fill="#000000">std::vector&lt; const</text>
<text text-anchor="middle" x="1473" y="-299.2489" font-family="FreeSans" font-size="10.00" fill="#000000"> DataHandleBase * &gt;</text>
</g>
<!-- Node4&#45;&gt;Node3 -->
<g id="edge3" class="edge">
<title>Node4&#45;&gt;Node3</title>
<path fill="none" stroke="#9a32cd" stroke-dasharray="5,2" d="M1400.8416,-306.5614C1336.4764,-304.537 1239.7483,-300.2182 1156,-291.2489 1014.0865,-276.0503 848.269,-245.9509 766.4683,-230.2727"/>
<polygon fill="#9a32cd" stroke="#9a32cd" points="1400.7851,-310.0612 1410.887,-306.8669 1400.998,-303.0644 1400.7851,-310.0612"/>
<text text-anchor="middle" x="1048.5" y="-303.2489" font-family="FreeSans" font-size="10.00" fill="#000000"> m_readHandles</text>
<text text-anchor="middle" x="1048.5" y="-291.2489" font-family="FreeSans" font-size="10.00" fill="#000000">m_writeHandles</text>
</g>
<!-- Node5&#45;&gt;Node4 -->
<g id="edge4" class="edge">
<title>Node5&#45;&gt;Node4</title>
<path fill="none" stroke="#9a32cd" stroke-dasharray="5,2" d="M1084.3883,-219.8265C1105.1217,-227.3608 1131.8102,-236.5364 1156,-243.2489 1230.0001,-263.7835 1249.9599,-262.919 1325,-279.2489 1333.0077,-280.9915 1334.9753,-281.586 1343,-283.2489 1365.0548,-287.8191 1389.2748,-292.5539 1410.7702,-296.6575"/>
<polygon fill="#9a32cd" stroke="#9a32cd" points="1085.3191,-216.4399 1074.7256,-216.2777 1082.9058,-223.0107 1085.3191,-216.4399"/>
<text text-anchor="middle" x="1240.5" y="-282.2489" font-family="FreeSans" font-size="10.00" fill="#000000"> elements</text>
</g>
<!-- Node14 -->
<g id="node14" class="node">
<title>Node14</title>
<g id="a_node14"><a xlink:href="../../d2/db1/exceptionActsExamples_1_1ReadDataHandle.html" target="_top" xlink:title="ActsExamples::ReadDataHandle\l\&lt; TrajectoriesContainer \&gt;">
<polygon fill="none" stroke="#000000" points="1383,-88.2489 1383,-120.2489 1563,-120.2489 1563,-88.2489 1383,-88.2489"/>
<text text-anchor="start" x="1391" y="-107.2489" font-family="FreeSans" font-size="10.00" fill="#000000">ActsExamples::ReadDataHandle</text>
<text text-anchor="middle" x="1473" y="-95.2489" font-family="FreeSans" font-size="10.00" fill="#000000">&lt; TrajectoriesContainer &gt;</text>
</a>
</g>
</g>
<!-- Node5&#45;&gt;Node14 -->
<g id="edge16" class="edge">
<title>Node5&#45;&gt;Node14</title>
<path fill="none" stroke="#191970" d="M1083.225,-192.6388C1104.0968,-184.7948 1131.3143,-175.1525 1156,-168.2489 1231.4284,-147.1546 1318.7815,-130.0456 1382.6656,-118.8423"/>
<polygon fill="#191970" stroke="#191970" points="1081.9258,-189.3883 1073.8213,-196.2123 1084.4124,-195.9318 1081.9258,-189.3883"/>
</g>
<!-- Node16 -->
<g id="node16" class="node">
<title>Node16</title>
<g id="a_node16"><a xlink:href="../../d5/d32/exceptionActsExamples_1_1WriteDataHandle.html" target="_top" xlink:title="ActsExamples::WriteDataHandle\l\&lt; VertexCollection \&gt;">
<polygon fill="none" stroke="#000000" points="1382.5,-241.2489 1382.5,-273.2489 1563.5,-273.2489 1563.5,-241.2489 1382.5,-241.2489"/>
<text text-anchor="start" x="1390.5" y="-260.2489" font-family="FreeSans" font-size="10.00" fill="#000000">ActsExamples::WriteDataHandle</text>
<text text-anchor="middle" x="1473" y="-248.2489" font-family="FreeSans" font-size="10.00" fill="#000000">&lt; VertexCollection &gt;</text>
</a>
</g>
</g>
<!-- Node5&#45;&gt;Node16 -->
<g id="edge20" class="edge">
<title>Node5&#45;&gt;Node16</title>
<path fill="none" stroke="#191970" d="M1134.4656,-217.5479C1141.7483,-218.4737 1149.0012,-219.3848 1156,-220.2489 1232.2997,-229.6697 1319.0122,-239.7474 1382.4368,-247.0026"/>
<polygon fill="#191970" stroke="#191970" points="1134.9001,-214.075 1124.5371,-216.2794 1134.0129,-221.0186 1134.9001,-214.075"/>
</g>
<!-- Node17 -->
<g id="node17" class="node">
<title>Node17</title>
<g id="a_node17"><a xlink:href="../../d5/d32/exceptionActsExamples_1_1WriteDataHandle.html" target="_top" xlink:title="ActsExamples::WriteDataHandle\l\&lt; ProtoVertexContainer \&gt;">
<polygon fill="none" stroke="#000000" points="1382.5,-190.2489 1382.5,-222.2489 1563.5,-222.2489 1563.5,-190.2489 1382.5,-190.2489"/>
<text text-anchor="start" x="1390.5" y="-209.2489" font-family="FreeSans" font-size="10.00" fill="#000000">ActsExamples::WriteDataHandle</text>
<text text-anchor="middle" x="1473" y="-197.2489" font-family="FreeSans" font-size="10.00" fill="#000000">&lt; ProtoVertexContainer &gt;</text>
</a>
</g>
</g>
<!-- Node5&#45;&gt;Node17 -->
<g id="edge22" class="edge">
<title>Node5&#45;&gt;Node17</title>
<path fill="none" stroke="#191970" d="M1148.28,-206.2489C1219.1044,-206.2489 1313.4225,-206.2489 1382.1529,-206.2489"/>
<polygon fill="#191970" stroke="#191970" points="1148.0069,-202.749 1138.0068,-206.2489 1148.0068,-209.749 1148.0069,-202.749"/>
</g>
<!-- Node18 -->
<g id="node18" class="node">
<title>Node18</title>
<g id="a_node18"><a xlink:href="../../d2/db1/exceptionActsExamples_1_1ReadDataHandle.html" target="_top" xlink:title="ActsExamples::ReadDataHandle\l\&lt; std::vector\&lt; Acts::BoundTrackParameters \&gt; \&gt;">
<polygon fill="none" stroke="#000000" points="1343,-139.2489 1343,-171.2489 1603,-171.2489 1603,-139.2489 1343,-139.2489"/>
<text text-anchor="start" x="1351" y="-158.2489" font-family="FreeSans" font-size="10.00" fill="#000000">ActsExamples::ReadDataHandle</text>
<text text-anchor="middle" x="1473" y="-146.2489" font-family="FreeSans" font-size="10.00" fill="#000000">&lt; std::vector&lt; Acts::BoundTrackParameters &gt; &gt;</text>
</a>
</g>
</g>
<!-- Node5&#45;&gt;Node18 -->
<g id="edge24" class="edge">
<title>Node5&#45;&gt;Node18</title>
<path fill="none" stroke="#191970" d="M1141.8977,-195.028C1200.8044,-187.9509 1277.7349,-178.7083 1342.6138,-170.9137"/>
<polygon fill="#191970" stroke="#191970" points="1141.3721,-191.5659 1131.861,-196.2338 1142.2072,-198.5159 1141.3721,-191.5659"/>
</g>
<!-- Node6 -->
<g id="node6" class="node">
<title>Node6</title>
<g id="a_node6"><a xlink:title="STL class.">
<polygon fill="none" stroke="#bfbfbf" points="682,-75.2489 682,-95.2489 749,-95.2489 749,-75.2489 682,-75.2489"/>
<text text-anchor="middle" x="715.5" y="-82.2489" font-family="FreeSans" font-size="10.00" fill="#000000">std::string</text>
</a>
</g>
</g>
<!-- Node6&#45;&gt;Node2 -->
<g id="edge8" class="edge">
<title>Node6&#45;&gt;Node2</title>
<path fill="none" stroke="#9a32cd" stroke-dasharray="5,2" d="M759.3027,-84.8468C804.8042,-84.7963 878.0206,-85.7446 941,-91.2489 956.9776,-92.6453 974.1963,-94.8783 990.0706,-97.2385"/>
<polygon fill="#9a32cd" stroke="#9a32cd" points="759.1823,-81.3471 749.1922,-84.8751 759.202,-88.347 759.1823,-81.3471"/>
<text text-anchor="middle" x="884" y="-94.2489" font-family="FreeSans" font-size="10.00" fill="#000000"> m_name</text>
</g>
<!-- Node6&#45;&gt;Node5 -->
<g id="edge6" class="edge">
<title>Node6&#45;&gt;Node5</title>
<path fill="none" stroke="#9a32cd" stroke-dasharray="5,2" d="M759.309,-86.2883C776.2041,-88.5886 794.8297,-93.6502 809,-104.2489 822.692,-114.4898 813.8227,-127.3537 827,-138.2489 865.7522,-170.2899 919.4701,-187.2533 964.2996,-196.2242"/>
<polygon fill="#9a32cd" stroke="#9a32cd" points="759.3851,-82.7765 749.0684,-85.1882 758.6373,-89.7364 759.3851,-82.7765"/>
<text text-anchor="middle" x="884" y="-193.2489" font-family="FreeSans" font-size="10.00" fill="#000000"> m_name</text>
</g>
<!-- Node15 -->
<g id="node15" class="node">
<title>Node15</title>
<g id="a_node15"><a xlink:href="../../d9/d20/structActsExamples_1_1IterativeVertexFinderAlgorithm_1_1Config.html" target="_top" xlink:title="ActsExamples::IterativeVertex\lFinderAlgorithm::Config">
<polygon fill="none" stroke="#000000" points="1156,-3.2489 1156,-35.2489 1325,-35.2489 1325,-3.2489 1156,-3.2489"/>
<text text-anchor="start" x="1164" y="-22.2489" font-family="FreeSans" font-size="10.00" fill="#000000">ActsExamples::IterativeVertex</text>
<text text-anchor="middle" x="1240.5" y="-10.2489" font-family="FreeSans" font-size="10.00" fill="#000000">FinderAlgorithm::Config</text>
</a>
</g>
</g>
<!-- Node6&#45;&gt;Node15 -->
<g id="edge18" class="edge">
<title>Node6&#45;&gt;Node15</title>
<path fill="none" stroke="#9a32cd" stroke-dasharray="5,2" d="M741.1135,-70.0025C763.0654,-57.8168 795.9659,-41.6013 827,-34.2489 938.3165,-7.8765 1071.1524,-8.5105 1155.6581,-12.7565"/>
<polygon fill="#9a32cd" stroke="#9a32cd" points="739.0955,-67.1234 732.1288,-75.1057 742.5527,-73.2101 739.0955,-67.1234"/>
<text text-anchor="middle" x="884" y="-73.2489" font-family="FreeSans" font-size="10.00" fill="#000000"> inputTrackParameters</text>
<text text-anchor="middle" x="884" y="-61.2489" font-family="FreeSans" font-size="10.00" fill="#000000">outputVertices</text>
<text text-anchor="middle" x="884" y="-49.2489" font-family="FreeSans" font-size="10.00" fill="#000000">outputProtoVertices</text>
<text text-anchor="middle" x="884" y="-37.2489" font-family="FreeSans" font-size="10.00" fill="#000000">inputTrajectories</text>
</g>
<!-- Node7 -->
<g id="node7" class="node">
<title>Node7</title>
<g id="a_node7"><a xlink:title="STL class.">
<polygon fill="none" stroke="#bfbfbf" points="460,-69.2489 460,-101.2489 567,-101.2489 567,-69.2489 460,-69.2489"/>
<text text-anchor="start" x="468" y="-88.2489" font-family="FreeSans" font-size="10.00" fill="#000000">std::basic_string&lt;</text>
<text text-anchor="middle" x="513.5" y="-76.2489" font-family="FreeSans" font-size="10.00" fill="#000000"> char &gt;</text>
</a>
</g>
</g>
<!-- Node7&#45;&gt;Node6 -->
<g id="edge7" class="edge">
<title>Node7&#45;&gt;Node6</title>
<path fill="none" stroke="#191970" d="M577.1699,-85.2489C611.9094,-85.2489 653.5058,-85.2489 681.9525,-85.2489"/>
<polygon fill="#191970" stroke="#191970" points="577.102,-81.749 567.102,-85.2489 577.1019,-88.749 577.102,-81.749"/>
</g>
<!-- Node8 -->
<g id="node8" class="node">
<title>Node8</title>
<polygon fill="none" stroke="#bfbfbf" points="649.5,-114.2489 649.5,-146.2489 781.5,-146.2489 781.5,-114.2489 649.5,-114.2489"/>
<text text-anchor="start" x="657.5" y="-133.2489" font-family="FreeSans" font-size="10.00" fill="#000000">std::unique_ptr&lt; const</text>
<text text-anchor="middle" x="715.5" y="-121.2489" font-family="FreeSans" font-size="10.00" fill="#000000"> Acts::Logger &gt;</text>
</g>
<!-- Node8&#45;&gt;Node2 -->
<g id="edge9" class="edge">
<title>Node8&#45;&gt;Node2</title>
<path fill="none" stroke="#9a32cd" stroke-dasharray="5,2" d="M791.7278,-124.9839C846.7165,-121.1859 920.5341,-116.0874 974.9079,-112.3318"/>
<polygon fill="#9a32cd" stroke="#9a32cd" points="791.4233,-121.4965 781.6882,-125.6773 791.9057,-128.4799 791.4233,-121.4965"/>
<text text-anchor="middle" x="884" y="-125.2489" font-family="FreeSans" font-size="10.00" fill="#000000"> m_logger</text>
</g>
<!-- Node9 -->
<g id="node9" class="node">
<title>Node9</title>
<g id="a_node9"><a xlink:href="../../d4/d3e/classActs_1_1Logger.html" target="_top" xlink:title="class for printing debug output">
<polygon fill="none" stroke="#000000" points="473,-120.2489 473,-140.2489 554,-140.2489 554,-120.2489 473,-120.2489"/>
<text text-anchor="middle" x="513.5" y="-127.2489" font-family="FreeSans" font-size="10.00" fill="#000000">Acts::Logger</text>
</a>
</g>
</g>
<!-- Node9&#45;&gt;Node8 -->
<g id="edge10" class="edge">
<title>Node9&#45;&gt;Node8</title>
<path fill="none" stroke="#9a32cd" stroke-dasharray="5,2" d="M564.6388,-130.2489C590.3158,-130.2489 621.732,-130.2489 649.2353,-130.2489"/>
<polygon fill="#9a32cd" stroke="#9a32cd" points="564.3777,-126.749 554.3777,-130.2489 564.3777,-133.749 564.3777,-126.749"/>
<text text-anchor="middle" x="594.5" y="-133.2489" font-family="FreeSans" font-size="10.00" fill="#000000"> ptr</text>
</g>
<!-- Node10 -->
<g id="node10" class="node">
<title>Node10</title>
<polygon fill="none" stroke="#bfbfbf" points="208,-137.2489 208,-169.2489 352,-169.2489 352,-137.2489 208,-137.2489"/>
<text text-anchor="start" x="216" y="-156.2489" font-family="FreeSans" font-size="10.00" fill="#000000">std::unique_ptr&lt; Logging</text>
<text text-anchor="middle" x="280" y="-144.2489" font-family="FreeSans" font-size="10.00" fill="#000000">::OutputFilterPolicy &gt;</text>
</g>
<!-- Node10&#45;&gt;Node9 -->
<g id="edge11" class="edge">
<title>Node10&#45;&gt;Node9</title>
<path fill="none" stroke="#9a32cd" stroke-dasharray="5,2" d="M362.6669,-145.1061C400.017,-141.4271 442.4682,-137.2456 472.7982,-134.2581"/>
<polygon fill="#9a32cd" stroke="#9a32cd" points="361.8905,-141.6656 352.2818,-146.1291 362.5767,-148.6319 361.8905,-141.6656"/>
<text text-anchor="middle" x="406" y="-146.2489" font-family="FreeSans" font-size="10.00" fill="#000000"> m_filterPolicy</text>
</g>
<!-- Node11 -->
<g id="node11" class="node">
<title>Node11</title>
<g id="a_node11"><a xlink:href="../../d5/d5e/classActs_1_1Logging_1_1OutputFilterPolicy.html" target="_top" xlink:title="abstract base class for filtering debug output">
<polygon fill="none" stroke="#000000" points="0,-137.2489 0,-169.2489 153,-169.2489 153,-137.2489 0,-137.2489"/>
<text text-anchor="start" x="8" y="-156.2489" font-family="FreeSans" font-size="10.00" fill="#000000">Acts::Logging::OutputFilter</text>
<text text-anchor="middle" x="76.5" y="-144.2489" font-family="FreeSans" font-size="10.00" fill="#000000">Policy</text>
</a>
</g>
</g>
<!-- Node11&#45;&gt;Node10 -->
<g id="edge12" class="edge">
<title>Node11&#45;&gt;Node10</title>
<path fill="none" stroke="#9a32cd" stroke-dasharray="5,2" d="M163.3223,-153.2489C178.146,-153.2489 193.4019,-153.2489 207.7942,-153.2489"/>
<polygon fill="#9a32cd" stroke="#9a32cd" points="163.1447,-149.749 153.1446,-153.2489 163.1446,-156.749 163.1447,-149.749"/>
<text text-anchor="middle" x="180.5" y="-156.2489" font-family="FreeSans" font-size="10.00" fill="#000000"> ptr</text>
</g>
<!-- Node12 -->
<g id="node12" class="node">
<title>Node12</title>
<polygon fill="none" stroke="#bfbfbf" points="208,-86.2489 208,-118.2489 352,-118.2489 352,-86.2489 208,-86.2489"/>
<text text-anchor="start" x="216" y="-105.2489" font-family="FreeSans" font-size="10.00" fill="#000000">std::unique_ptr&lt; Logging</text>
<text text-anchor="middle" x="280" y="-93.2489" font-family="FreeSans" font-size="10.00" fill="#000000">::OutputPrintPolicy &gt;</text>
</g>
<!-- Node12&#45;&gt;Node9 -->
<g id="edge13" class="edge">
<title>Node12&#45;&gt;Node9</title>
<path fill="none" stroke="#9a32cd" stroke-dasharray="5,2" d="M362.2185,-111.7552C387.7864,-114.7481 416.0667,-118.096 442,-121.2489 451.9358,-122.4569 462.6441,-123.7888 472.6718,-125.0492"/>
<polygon fill="#9a32cd" stroke="#9a32cd" points="362.5305,-108.2679 352.1918,-110.5833 361.7178,-115.2206 362.5305,-108.2679"/>
<text text-anchor="middle" x="406" y="-124.2489" font-family="FreeSans" font-size="10.00" fill="#000000"> m_printPolicy</text>
</g>
<!-- Node13 -->
<g id="node13" class="node">
<title>Node13</title>
<g id="a_node13"><a xlink:href="../../df/dce/classActs_1_1Logging_1_1OutputPrintPolicy.html" target="_top" xlink:title="abstract base class for printing debug output">
<polygon fill="none" stroke="#000000" points="1,-86.2489 1,-118.2489 152,-118.2489 152,-86.2489 1,-86.2489"/>
<text text-anchor="start" x="9" y="-105.2489" font-family="FreeSans" font-size="10.00" fill="#000000">Acts::Logging::OutputPrint</text>
<text text-anchor="middle" x="76.5" y="-93.2489" font-family="FreeSans" font-size="10.00" fill="#000000">Policy</text>
</a>
</g>
</g>
<!-- Node13&#45;&gt;Node12 -->
<g id="edge14" class="edge">
<title>Node13&#45;&gt;Node12</title>
<path fill="none" stroke="#9a32cd" stroke-dasharray="5,2" d="M162.6182,-102.2489C177.6896,-102.2489 193.2297,-102.2489 207.8731,-102.2489"/>
<polygon fill="#9a32cd" stroke="#9a32cd" points="162.2759,-98.749 152.2759,-102.2489 162.2759,-105.749 162.2759,-98.749"/>
<text text-anchor="middle" x="180.5" y="-105.2489" font-family="FreeSans" font-size="10.00" fill="#000000"> ptr</text>
</g>
<!-- Node14&#45;&gt;Node1 -->
<g id="edge15" class="edge">
<title>Node14&#45;&gt;Node1</title>
<path fill="none" stroke="#9a32cd" stroke-dasharray="5,2" d="M1573.1847,-108.2012C1625.8358,-110.4679 1691.4305,-113.5898 1750,-117.2489 1755.7897,-117.6106 1761.7614,-118.0094 1767.7755,-118.4301"/>
<polygon fill="#9a32cd" stroke="#9a32cd" points="1573.3117,-104.7036 1563.1715,-107.7737 1573.013,-111.6972 1573.3117,-104.7036"/>
<text text-anchor="middle" x="1685.5" y="-120.2489" font-family="FreeSans" font-size="10.00" fill="#000000"> m_inputTrajectories</text>
</g>
<!-- Node15&#45;&gt;Node1 -->
<g id="edge17" class="edge">
<title>Node15&#45;&gt;Node1</title>
<path fill="none" stroke="#9a32cd" stroke-dasharray="5,2" d="M1335.0082,-6.7475C1440.1851,3.288 1613.3186,8.0938 1750,-45.2489 1785.7491,-59.2007 1819.2193,-89.9011 1837.6726,-108.9534"/>
<polygon fill="#9a32cd" stroke="#9a32cd" points="1334.6522,-3.2655 1325.0455,-7.7332 1335.3415,-10.2315 1334.6522,-3.2655"/>
<text text-anchor="middle" x="1473" y="-11.2489" font-family="FreeSans" font-size="10.00" fill="#000000"> m_cfg</text>
</g>
<!-- Node16&#45;&gt;Node1 -->
<g id="edge19" class="edge">
<title>Node16&#45;&gt;Node1</title>
<path fill="none" stroke="#9a32cd" stroke-dasharray="5,2" d="M1573.6713,-247.3535C1627.7281,-239.4027 1694.4715,-225.2476 1750,-200.2489 1783.1758,-185.3133 1816.1665,-158.4741 1835.4288,-141.2803"/>
<polygon fill="#9a32cd" stroke="#9a32cd" points="1573.1386,-243.894 1563.731,-248.7671 1574.1241,-250.8243 1573.1386,-243.894"/>
<text text-anchor="middle" x="1685.5" y="-241.2489" font-family="FreeSans" font-size="10.00" fill="#000000"> m_outputVertices</text>
</g>
<!-- Node17&#45;&gt;Node1 -->
<g id="edge21" class="edge">
<title>Node17&#45;&gt;Node1</title>
<path fill="none" stroke="#9a32cd" stroke-dasharray="5,2" d="M1573.8463,-192.2477C1626.6777,-184.0399 1692.2341,-172.4787 1750,-158.2489 1768.9689,-153.5762 1789.531,-147.2195 1807.2248,-141.3323"/>
<polygon fill="#9a32cd" stroke="#9a32cd" points="1573.1477,-188.8139 1563.7956,-193.7927 1574.2113,-195.7327 1573.1477,-188.8139"/>
<text text-anchor="middle" x="1685.5" y="-187.2489" font-family="FreeSans" font-size="10.00" fill="#000000"> m_outputProtoVertices</text>
</g>
<!-- Node18&#45;&gt;Node1 -->
<g id="edge23" class="edge">
<title>Node18&#45;&gt;Node1</title>
<path fill="none" stroke="#9a32cd" stroke-dasharray="5,2" d="M1613.0466,-144.178C1665.0072,-140.0705 1722.3174,-135.54 1767.8402,-131.9414"/>
<polygon fill="#9a32cd" stroke="#9a32cd" points="1612.7645,-140.6893 1603.0714,-144.9666 1613.3162,-147.6675 1612.7645,-140.6893"/>
<text text-anchor="middle" x="1685.5" y="-145.2489" font-family="FreeSans" font-size="10.00" fill="#000000"> m_inputTrackParameters</text>
</g>
</g>
</svg>
