<?xml version="1.0" encoding="UTF-8" standalone="no"?>
<!DOCTYPE svg PUBLIC "-//W3C//DTD SVG 1.1//EN"
 "http://www.w3.org/Graphics/SVG/1.1/DTD/svg11.dtd">
<!-- Generated by graphviz version 2.40.1 (20161225.0304)
 -->
<!-- Title: coresoftware/blob/master/simulation/g4simulation/g4histos/G4ScintillatorTowerTTree.cc Pages: 1 -->
<svg width="1611pt" height="395pt"
 viewBox="0.00 0.00 1610.79 395.00" xmlns="http://www.w3.org/2000/svg" xmlns:xlink="http://www.w3.org/1999/xlink">
<g id="graph0" class="graph" transform="scale(1 1) rotate(0) translate(4 391)">
<title>coresoftware/blob/master/simulation/g4simulation/g4histos/G4ScintillatorTowerTTree.cc</title>
<!-- Node1 -->
<g id="node1" class="node">
<title>Node1</title>
<polygon fill="#bfbfbf" stroke="#000000" points="722.2864,-342.5 722.2864,-386.5 928.2864,-386.5 928.2864,-342.5 722.2864,-342.5"/>
<text text-anchor="start" x="730.2864" y="-373.5" font-family="FreeSans" font-size="10.00" fill="#000000">coresoftware/blob/master</text>
<text text-anchor="start" x="730.2864" y="-361.5" font-family="FreeSans" font-size="10.00" fill="#000000">/simulation/g4simulation</text>
<text text-anchor="middle" x="825.2864" y="-349.5" font-family="FreeSans" font-size="10.00" fill="#000000">/g4histos/G4ScintillatorTowerTTree.cc</text>
</g>
<!-- Node2 -->
<g id="node2" class="node">
<title>Node2</title>
<g id="a_node2"><a xlink:href="../../d2/d42/G4ScintillatorTowerTTree_8h.html" target="_top" xlink:title="G4ScintillatorTowerTTree.h">
<polygon fill="none" stroke="#000000" points="1064.2864,-228.5 1064.2864,-248.5 1214.2864,-248.5 1214.2864,-228.5 1064.2864,-228.5"/>
<text text-anchor="middle" x="1139.2864" y="-235.5" font-family="FreeSans" font-size="10.00" fill="#000000">G4ScintillatorTowerTTree.h</text>
</a>
</g>
</g>
<!-- Node1&#45;&gt;Node2 -->
<g id="edge1" class="edge">
<title>Node1&#45;&gt;Node2</title>
<path fill="none" stroke="#191970" d="M880.3404,-342.4083C945.0824,-316.429 1050.5723,-274.0987 1104.7585,-252.3551"/>
<polygon fill="#191970" stroke="#191970" points="1106.2806,-255.5157 1114.2579,-248.5433 1103.6737,-249.0192 1106.2806,-255.5157"/>
</g>
<!-- Node3 -->
<g id="node3" class="node">
<title>Node3</title>
<g id="a_node3"><a xlink:href="../../d5/dc2/SubsysReco_8h.html" target="_top" xlink:title="fun4all/SubsysReco.h">
<polygon fill="none" stroke="#000000" points="1139.2864,-171.5 1139.2864,-191.5 1263.2864,-191.5 1263.2864,-171.5 1139.2864,-171.5"/>
<text text-anchor="middle" x="1201.2864" y="-178.5" font-family="FreeSans" font-size="10.00" fill="#000000">fun4all/SubsysReco.h</text>
</a>
</g>
</g>
<!-- Node1&#45;&gt;Node3 -->
<g id="edge19" class="edge">
<title>Node1&#45;&gt;Node3</title>
<path fill="none" stroke="#191970" d="M928.3365,-348.8327C1034.0137,-330.4116 1187.8021,-296.2459 1223.2864,-249 1234.1973,-234.4726 1225.249,-214.2953 1215.694,-199.7912"/>
<polygon fill="#191970" stroke="#191970" points="1218.4993,-197.6971 1209.8383,-191.5948 1212.8035,-201.7662 1218.4993,-197.6971"/>
</g>
<!-- Node7 -->
<g id="node7" class="node">
<title>Node7</title>
<g id="a_node7"><a xlink:href="../../df/da2/G4RootScintillatorTowerContainer_8h.html" target="_top" xlink:title="G4RootScintillatorTowerContainer.h">
<polygon fill="none" stroke="#000000" points="29.2864,-285.5 29.2864,-305.5 223.2864,-305.5 223.2864,-285.5 29.2864,-285.5"/>
<text text-anchor="middle" x="126.2864" y="-292.5" font-family="FreeSans" font-size="10.00" fill="#000000">G4RootScintillatorTowerContainer.h</text>
</a>
</g>
</g>
<!-- Node1&#45;&gt;Node7 -->
<g id="edge8" class="edge">
<title>Node1&#45;&gt;Node7</title>
<path fill="none" stroke="#191970" d="M722.1466,-354.3188C591.2165,-341.3944 366.4332,-319.2055 233.5618,-306.0894"/>
<polygon fill="#191970" stroke="#191970" points="233.6629,-302.5825 223.3674,-305.0831 232.9752,-309.5486 233.6629,-302.5825"/>
</g>
<!-- Node8 -->
<g id="node8" class="node">
<title>Node8</title>
<g id="a_node8"><a xlink:href="../../df/d32/PHObject_8h.html" target="_top" xlink:title="phool/PHObject.h">
<polygon fill="none" stroke="#000000" points="133.2864,-228.5 133.2864,-248.5 237.2864,-248.5 237.2864,-228.5 133.2864,-228.5"/>
<text text-anchor="middle" x="185.2864" y="-235.5" font-family="FreeSans" font-size="10.00" fill="#000000">phool/PHObject.h</text>
</a>
</g>
</g>
<!-- Node1&#45;&gt;Node8 -->
<g id="edge52" class="edge">
<title>Node1&#45;&gt;Node8</title>
<path fill="none" stroke="#191970" d="M722.2105,-360.0677C586.0348,-353.0953 354.2035,-337.0395 275.2864,-306 246.702,-294.7572 219.2726,-271.8541 202.3665,-255.8598"/>
<polygon fill="#191970" stroke="#191970" points="204.5607,-253.1113 194.9535,-248.6445 199.6783,-258.1275 204.5607,-253.1113"/>
</g>
<!-- Node10 -->
<g id="node10" class="node">
<title>Node10</title>
<polygon fill="none" stroke="#bfbfbf" points="141.2864,-.5 141.2864,-20.5 201.2864,-20.5 201.2864,-.5 141.2864,-.5"/>
<text text-anchor="middle" x="171.2864" y="-7.5" font-family="FreeSans" font-size="10.00" fill="#000000">iostream</text>
</g>
<!-- Node1&#45;&gt;Node10 -->
<g id="edge62" class="edge">
<title>Node1&#45;&gt;Node10</title>
<path fill="none" stroke="#191970" d="M722.121,-363.52C517.098,-360.6413 73.4818,-349.4126 20.2864,-306 -3.8593,-286.2948 1.2864,-269.6658 1.2864,-238.5 1.2864,-238.5 1.2864,-238.5 1.2864,-124.5 1.2864,-62.1652 81.1048,-31.7306 131.356,-18.7467"/>
<polygon fill="#191970" stroke="#191970" points="132.4092,-22.0921 141.2852,-16.3069 130.7388,-15.2943 132.4092,-22.0921"/>
</g>
<!-- Node11 -->
<g id="node11" class="node">
<title>Node11</title>
<polygon fill="none" stroke="#bfbfbf" points="355.2864,-285.5 355.2864,-305.5 477.2864,-305.5 477.2864,-285.5 355.2864,-285.5"/>
<text text-anchor="middle" x="416.2864" y="-292.5" font-family="FreeSans" font-size="10.00" fill="#000000">calobase/TowerInfo.h</text>
</g>
<!-- Node1&#45;&gt;Node11 -->
<g id="edge13" class="edge">
<title>Node1&#45;&gt;Node11</title>
<path fill="none" stroke="#191970" d="M722.0785,-347.0884C648.1755,-334.6207 550.6608,-318.1695 485.8328,-307.2328"/>
<polygon fill="#191970" stroke="#191970" points="486.1605,-303.7387 475.7175,-305.5263 484.9959,-310.6411 486.1605,-303.7387"/>
</g>
<!-- Node12 -->
<g id="node12" class="node">
<title>Node12</title>
<polygon fill="none" stroke="#bfbfbf" points="495.2864,-285.5 495.2864,-305.5 679.2864,-305.5 679.2864,-285.5 495.2864,-285.5"/>
<text text-anchor="middle" x="587.2864" y="-292.5" font-family="FreeSans" font-size="10.00" fill="#000000">calobase/TowerInfoContainerv1.h</text>
</g>
<!-- Node1&#45;&gt;Node12 -->
<g id="edge14" class="edge">
<title>Node1&#45;&gt;Node12</title>
<path fill="none" stroke="#191970" d="M749.3274,-342.4783C710.6156,-331.2551 664.8806,-317.9958 631.8872,-308.4305"/>
<polygon fill="#191970" stroke="#191970" points="632.6579,-305.0099 622.0788,-305.5869 630.7087,-311.733 632.6579,-305.0099"/>
</g>
<!-- Node13 -->
<g id="node13" class="node">
<title>Node13</title>
<g id="a_node13"><a xlink:href="../../d0/d59/Fun4AllHistoManager_8h.html" target="_top" xlink:title="fun4all/Fun4AllHistoManager.h">
<polygon fill="none" stroke="#000000" points="1281.2864,-171.5 1281.2864,-191.5 1451.2864,-191.5 1451.2864,-171.5 1281.2864,-171.5"/>
<text text-anchor="middle" x="1366.2864" y="-178.5" font-family="FreeSans" font-size="10.00" fill="#000000">fun4all/Fun4AllHistoManager.h</text>
</a>
</g>
</g>
<!-- Node1&#45;&gt;Node13 -->
<g id="edge15" class="edge">
<title>Node1&#45;&gt;Node13</title>
<path fill="none" stroke="#191970" d="M928.3746,-356.1883C995.4868,-348.4203 1084.0304,-333.6648 1158.2864,-306 1231.7266,-278.6391 1308.3837,-225.2064 1344.7178,-198.1097"/>
<polygon fill="#191970" stroke="#191970" points="1347.1823,-200.6349 1353.06,-191.82 1342.9681,-195.0455 1347.1823,-200.6349"/>
</g>
<!-- Node14 -->
<g id="node14" class="node">
<title>Node14</title>
<polygon fill="none" stroke="#bfbfbf" points="1298.7864,-114.5 1298.7864,-134.5 1337.7864,-134.5 1337.7864,-114.5 1298.7864,-114.5"/>
<text text-anchor="middle" x="1318.2864" y="-121.5" font-family="FreeSans" font-size="10.00" fill="#000000">map</text>
</g>
<!-- Node1&#45;&gt;Node14 -->
<g id="edge63" class="edge">
<title>Node1&#45;&gt;Node14</title>
<path fill="none" stroke="#191970" d="M928.3326,-352.8161C1092.7416,-331.6787 1401.8837,-280.8346 1460.2864,-192 1488.6457,-148.8636 1397.6042,-132.6228 1348.1019,-127.0813"/>
<polygon fill="#191970" stroke="#191970" points="1348.2472,-123.5777 1337.9396,-126.0279 1347.5254,-130.5404 1348.2472,-123.5777"/>
</g>
<!-- Node15 -->
<g id="node15" class="node">
<title>Node15</title>
<g id="a_node15"><a xlink:href="../../d8/d30/PHCompositeNode_8h.html" target="_top" xlink:title="phool/PHCompositeNode.h">
<polygon fill="none" stroke="#000000" points="147.7864,-171.5 147.7864,-191.5 298.7864,-191.5 298.7864,-171.5 147.7864,-171.5"/>
<text text-anchor="middle" x="223.2864" y="-178.5" font-family="FreeSans" font-size="10.00" fill="#000000">phool/PHCompositeNode.h</text>
</a>
</g>
</g>
<!-- Node1&#45;&gt;Node15 -->
<g id="edge20" class="edge">
<title>Node1&#45;&gt;Node15</title>
<path fill="none" stroke="#191970" d="M722.025,-362.4363C592.8579,-358.2041 380.4711,-345.3031 313.2864,-306 291.5892,-293.3071 253.0484,-231.8052 234.2326,-200.255"/>
<polygon fill="#191970" stroke="#191970" points="237.1673,-198.3414 229.067,-191.5123 231.1406,-201.9022 237.1673,-198.3414"/>
</g>
<!-- Node16 -->
<g id="node16" class="node">
<title>Node16</title>
<g id="a_node16"><a xlink:href="../../d3/d62/PHNode_8h.html" target="_top" xlink:title="PHNode.h">
<polygon fill="none" stroke="#000000" points="387.7864,-114.5 387.7864,-134.5 452.7864,-134.5 452.7864,-114.5 387.7864,-114.5"/>
<text text-anchor="middle" x="420.2864" y="-121.5" font-family="FreeSans" font-size="10.00" fill="#000000">PHNode.h</text>
</a>
</g>
</g>
<!-- Node1&#45;&gt;Node16 -->
<g id="edge50" class="edge">
<title>Node1&#45;&gt;Node16</title>
<path fill="none" stroke="#191970" d="M722.2003,-359.0697C588.8869,-350.9742 370.773,-333.659 346.2864,-306 306.5147,-261.0755 317.264,-223.5138 346.2864,-171 354.1131,-156.8382 368.2601,-146.406 382.1037,-139.0537"/>
<polygon fill="#191970" stroke="#191970" points="383.6429,-142.1971 391.0875,-134.6586 380.5667,-135.9092 383.6429,-142.1971"/>
</g>
<!-- Node19 -->
<g id="node19" class="node">
<title>Node19</title>
<g id="a_node19"><a xlink:href="../../d3/d79/PHIODataNode_8h.html" target="_top" xlink:title="phool/PHIODataNode.h">
<polygon fill="none" stroke="#000000" points="755.2864,-228.5 755.2864,-248.5 887.2864,-248.5 887.2864,-228.5 755.2864,-228.5"/>
<text text-anchor="middle" x="821.2864" y="-235.5" font-family="FreeSans" font-size="10.00" fill="#000000">phool/PHIODataNode.h</text>
</a>
</g>
</g>
<!-- Node1&#45;&gt;Node19 -->
<g id="edge27" class="edge">
<title>Node1&#45;&gt;Node19</title>
<path fill="none" stroke="#191970" d="M833.524,-342.2034C838.3643,-326.2548 842.8891,-304.2867 839.2864,-285 837.5653,-275.7858 834.0798,-266.0472 830.6305,-257.8763"/>
<polygon fill="#191970" stroke="#191970" points="833.715,-256.202 826.4161,-248.5223 827.3328,-259.0774 833.715,-256.202"/>
</g>
<!-- Node26 -->
<g id="node26" class="node">
<title>Node26</title>
<g id="a_node26"><a xlink:href="../../d8/dfd/PHNodeIterator_8h.html" target="_top" xlink:title="PHNodeIterator.h">
<polygon fill="none" stroke="#000000" points="547.2864,-114.5 547.2864,-134.5 649.2864,-134.5 649.2864,-114.5 547.2864,-114.5"/>
<text text-anchor="middle" x="598.2864" y="-121.5" font-family="FreeSans" font-size="10.00" fill="#000000">PHNodeIterator.h</text>
</a>
</g>
</g>
<!-- Node1&#45;&gt;Node26 -->
<g id="edge51" class="edge">
<title>Node1&#45;&gt;Node26</title>
<path fill="none" stroke="#191970" d="M824.5611,-342.3355C822.9917,-325.2187 818.5342,-301.7108 806.2864,-285 787.9026,-259.9172 772.9156,-265.0624 746.2864,-249 704.4495,-223.7645 689,-224.2378 652.2864,-192 635.8204,-177.5414 620.5704,-157.6169 610.506,-143.1655"/>
<polygon fill="#191970" stroke="#191970" points="613.1886,-140.8852 604.6804,-134.5716 607.3944,-144.8129 613.1886,-140.8852"/>
</g>
<!-- Node28 -->
<g id="node28" class="node">
<title>Node28</title>
<g id="a_node28"><a xlink:href="../../dd/dd4/getClass_8h.html" target="_top" xlink:title="phool/getClass.h">
<polygon fill="none" stroke="#000000" points="697.2864,-285.5 697.2864,-305.5 797.2864,-305.5 797.2864,-285.5 697.2864,-285.5"/>
<text text-anchor="middle" x="747.2864" y="-292.5" font-family="FreeSans" font-size="10.00" fill="#000000">phool/getClass.h</text>
</a>
</g>
</g>
<!-- Node1&#45;&gt;Node28 -->
<g id="edge53" class="edge">
<title>Node1&#45;&gt;Node28</title>
<path fill="none" stroke="#191970" d="M800.1774,-342.2882C789.2134,-332.5893 776.5647,-321.4 766.3862,-312.396"/>
<polygon fill="#191970" stroke="#191970" points="768.6413,-309.7179 758.8323,-305.7137 764.0033,-314.9609 768.6413,-309.7179"/>
</g>
<!-- Node29 -->
<g id="node29" class="node">
<title>Node29</title>
<polygon fill="none" stroke="#bfbfbf" points="1403.7864,-285.5 1403.7864,-305.5 1450.7864,-305.5 1450.7864,-285.5 1403.7864,-285.5"/>
<text text-anchor="middle" x="1427.2864" y="-292.5" font-family="FreeSans" font-size="10.00" fill="#000000">TH1.h</text>
</g>
<!-- Node1&#45;&gt;Node29 -->
<g id="edge60" class="edge">
<title>Node1&#45;&gt;Node29</title>
<path fill="none" stroke="#191970" d="M928.4301,-358.9613C1042.0841,-351.6634 1229.9148,-336.0676 1389.2864,-306 1390.7577,-305.7224 1392.255,-305.4156 1393.7631,-305.0866"/>
<polygon fill="#191970" stroke="#191970" points="1394.8223,-308.4311 1403.7123,-302.6675 1393.1684,-301.6293 1394.8223,-308.4311"/>
</g>
<!-- Node30 -->
<g id="node30" class="node">
<title>Node30</title>
<polygon fill="none" stroke="#bfbfbf" points="1469.2864,-285.5 1469.2864,-305.5 1539.2864,-305.5 1539.2864,-285.5 1469.2864,-285.5"/>
<text text-anchor="middle" x="1504.2864" y="-292.5" font-family="FreeSans" font-size="10.00" fill="#000000">TSystem.h</text>
</g>
<!-- Node1&#45;&gt;Node30 -->
<g id="edge61" class="edge">
<title>Node1&#45;&gt;Node30</title>
<path fill="none" stroke="#191970" d="M928.4167,-359.5212C1052.3688,-352.5166 1266.6865,-337.1574 1458.8311,-306.0552"/>
<polygon fill="#191970" stroke="#191970" points="1459.5294,-309.4876 1468.8329,-304.4186 1458.3989,-302.5795 1459.5294,-309.4876"/>
</g>
<!-- Node31 -->
<g id="node31" class="node">
<title>Node31</title>
<polygon fill="none" stroke="#bfbfbf" points="1557.7864,-285.5 1557.7864,-305.5 1602.7864,-305.5 1602.7864,-285.5 1557.7864,-285.5"/>
<text text-anchor="middle" x="1580.2864" y="-292.5" font-family="FreeSans" font-size="10.00" fill="#000000">utility</text>
</g>
<!-- Node1&#45;&gt;Node31 -->
<g id="edge64" class="edge">
<title>Node1&#45;&gt;Node31</title>
<path fill="none" stroke="#191970" d="M928.3625,-359.1679C1094.6179,-350.0751 1415.7911,-330.3469 1547.8115,-305.5764"/>
<polygon fill="#191970" stroke="#191970" points="1548.5986,-308.9888 1557.7385,-303.6302 1547.2519,-302.1195 1548.5986,-308.9888"/>
</g>
<!-- Node2&#45;&gt;Node3 -->
<g id="edge2" class="edge">
<title>Node2&#45;&gt;Node3</title>
<path fill="none" stroke="#191970" d="M1150.3708,-228.3095C1159.3637,-220.0419 1172.2342,-208.2093 1182.7848,-198.5096"/>
<polygon fill="#191970" stroke="#191970" points="1185.3051,-200.9469 1190.298,-191.6022 1180.5675,-195.7937 1185.3051,-200.9469"/>
</g>
<!-- Node6 -->
<g id="node6" class="node">
<title>Node6</title>
<polygon fill="none" stroke="#bfbfbf" points="979.7864,-57.5 979.7864,-77.5 1024.7864,-77.5 1024.7864,-57.5 979.7864,-57.5"/>
<text text-anchor="middle" x="1002.2864" y="-64.5" font-family="FreeSans" font-size="10.00" fill="#000000">string</text>
</g>
<!-- Node2&#45;&gt;Node6 -->
<g id="edge7" class="edge">
<title>Node2&#45;&gt;Node6</title>
<path fill="none" stroke="#191970" d="M1137.4098,-228.2322C1132.7376,-205.2218 1118.6303,-148.8185 1087.2864,-114 1072.9482,-98.0723 1051.8283,-86.481 1034.2284,-78.8549"/>
<polygon fill="#191970" stroke="#191970" points="1035.4587,-75.5766 1024.8783,-75.0238 1032.8046,-82.054 1035.4587,-75.5766"/>
</g>
<!-- Node4 -->
<g id="node4" class="node">
<title>Node4</title>
<g id="a_node4"><a xlink:href="../../d2/de7/Fun4AllBase_8h.html" target="_top" xlink:title="Fun4AllBase.h">
<polygon fill="none" stroke="#000000" points="1177.7864,-114.5 1177.7864,-134.5 1264.7864,-134.5 1264.7864,-114.5 1177.7864,-114.5"/>
<text text-anchor="middle" x="1221.2864" y="-121.5" font-family="FreeSans" font-size="10.00" fill="#000000">Fun4AllBase.h</text>
</a>
</g>
</g>
<!-- Node3&#45;&gt;Node4 -->
<g id="edge3" class="edge">
<title>Node3&#45;&gt;Node4</title>
<path fill="none" stroke="#191970" d="M1204.862,-171.3095C1207.507,-163.7714 1211.1918,-153.2696 1214.4011,-144.123"/>
<polygon fill="#191970" stroke="#191970" points="1217.7334,-145.1971 1217.7418,-134.6022 1211.1282,-142.8794 1217.7334,-145.1971"/>
</g>
<!-- Node3&#45;&gt;Node6 -->
<g id="edge6" class="edge">
<title>Node3&#45;&gt;Node6</title>
<path fill="none" stroke="#191970" d="M1191.9058,-171.0462C1178.4094,-156.5379 1152.1666,-130.2533 1125.2864,-114 1096.6576,-96.6893 1060.499,-83.9597 1034.8131,-76.2389"/>
<polygon fill="#191970" stroke="#191970" points="1035.7599,-72.8693 1025.1799,-73.43 1033.8004,-79.5894 1035.7599,-72.8693"/>
</g>
<!-- Node5 -->
<g id="node5" class="node">
<title>Node5</title>
<polygon fill="none" stroke="#bfbfbf" points="1199.2864,-57.5 1199.2864,-77.5 1243.2864,-77.5 1243.2864,-57.5 1199.2864,-57.5"/>
<text text-anchor="middle" x="1221.2864" y="-64.5" font-family="FreeSans" font-size="10.00" fill="#000000">limits</text>
</g>
<!-- Node4&#45;&gt;Node5 -->
<g id="edge4" class="edge">
<title>Node4&#45;&gt;Node5</title>
<path fill="none" stroke="#191970" d="M1221.2864,-114.3095C1221.2864,-106.9335 1221.2864,-96.72 1221.2864,-87.715"/>
<polygon fill="#191970" stroke="#191970" points="1224.7865,-87.6022 1221.2864,-77.6022 1217.7865,-87.6023 1224.7865,-87.6022"/>
</g>
<!-- Node4&#45;&gt;Node6 -->
<g id="edge5" class="edge">
<title>Node4&#45;&gt;Node6</title>
<path fill="none" stroke="#191970" d="M1182.6377,-114.4408C1140.5928,-103.4975 1074.1243,-86.1975 1034.7029,-75.9372"/>
<polygon fill="#191970" stroke="#191970" points="1035.3785,-72.4965 1024.8193,-73.3647 1033.6153,-79.2708 1035.3785,-72.4965"/>
</g>
<!-- Node7&#45;&gt;Node8 -->
<g id="edge9" class="edge">
<title>Node7&#45;&gt;Node8</title>
<path fill="none" stroke="#191970" d="M136.8344,-285.3095C145.3083,-277.1229 157.4002,-265.441 167.3841,-255.7955"/>
<polygon fill="#191970" stroke="#191970" points="170.0696,-258.0676 174.8297,-248.6022 165.2059,-253.0332 170.0696,-258.0676"/>
</g>
<!-- Node7&#45;&gt;Node10 -->
<g id="edge12" class="edge">
<title>Node7&#45;&gt;Node10</title>
<path fill="none" stroke="#191970" d="M119.2552,-285.3475C106.5989,-266.0517 81.2864,-222.3534 81.2864,-181.5 81.2864,-181.5 81.2864,-181.5 81.2864,-124.5 81.2864,-82.135 120.0498,-46.2764 146.6972,-26.6309"/>
<polygon fill="#191970" stroke="#191970" points="149.0636,-29.2436 155.1962,-20.6041 145.0144,-23.5336 149.0636,-29.2436"/>
</g>
<!-- Node9 -->
<g id="node9" class="node">
<title>Node9</title>
<polygon fill="none" stroke="#bfbfbf" points="355.7864,-171.5 355.7864,-191.5 420.7864,-191.5 420.7864,-171.5 355.7864,-171.5"/>
<text text-anchor="middle" x="388.2864" y="-178.5" font-family="FreeSans" font-size="10.00" fill="#000000">TObject.h</text>
</g>
<!-- Node8&#45;&gt;Node9 -->
<g id="edge10" class="edge">
<title>Node8&#45;&gt;Node9</title>
<path fill="none" stroke="#191970" d="M221.1115,-228.4408C255.8612,-218.6834 308.6092,-203.8724 345.536,-193.5038"/>
<polygon fill="#191970" stroke="#191970" points="346.8221,-196.7781 355.5036,-190.705 344.9297,-190.0388 346.8221,-196.7781"/>
</g>
<!-- Node8&#45;&gt;Node10 -->
<g id="edge11" class="edge">
<title>Node8&#45;&gt;Node10</title>
<path fill="none" stroke="#191970" d="M169.8253,-228.3456C158.7279,-220.0599 144.6525,-207.2537 138.2864,-192 115.0344,-136.2865 143.9165,-64.2143 160.7639,-30.0809"/>
<polygon fill="#191970" stroke="#191970" points="164.0913,-31.2619 165.535,-20.7659 157.861,-28.0707 164.0913,-31.2619"/>
</g>
<!-- Node13&#45;&gt;Node4 -->
<g id="edge16" class="edge">
<title>Node13&#45;&gt;Node4</title>
<path fill="none" stroke="#191970" d="M1340.6971,-171.4408C1317.3393,-162.2587 1282.5968,-148.6013 1256.6007,-138.3822"/>
<polygon fill="#191970" stroke="#191970" points="1257.6949,-135.0516 1247.1077,-134.6504 1255.1339,-141.5663 1257.6949,-135.0516"/>
</g>
<!-- Node13&#45;&gt;Node6 -->
<g id="edge18" class="edge">
<title>Node13&#45;&gt;Node6</title>
<path fill="none" stroke="#191970" d="M1366.6347,-171.4826C1366.5604,-156.5167 1364.0142,-128.5297 1347.2864,-114 1323.897,-93.6839 1116.6489,-76.0813 1035.0713,-69.8788"/>
<polygon fill="#191970" stroke="#191970" points="1035.1053,-66.3716 1024.8713,-69.1131 1034.5812,-73.3519 1035.1053,-66.3716"/>
</g>
<!-- Node13&#45;&gt;Node14 -->
<g id="edge17" class="edge">
<title>Node13&#45;&gt;Node14</title>
<path fill="none" stroke="#191970" d="M1357.705,-171.3095C1350.9475,-163.2851 1341.362,-151.9022 1333.3355,-142.3708"/>
<polygon fill="#191970" stroke="#191970" points="1335.9122,-139.9969 1326.7936,-134.6022 1330.5578,-144.5059 1335.9122,-139.9969"/>
</g>
<!-- Node15&#45;&gt;Node6 -->
<g id="edge26" class="edge">
<title>Node15&#45;&gt;Node6</title>
<path fill="none" stroke="#191970" d="M280.7644,-171.4902C329.1252,-162.7767 399.9976,-149.3245 461.2864,-135 495.8277,-126.927 503.407,-120.4576 538.2864,-114 621.4653,-98.6003 878.0377,-77.3565 969.4898,-70.0717"/>
<polygon fill="#191970" stroke="#191970" points="969.8632,-73.5532 979.5551,-69.2733 969.3096,-66.5751 969.8632,-73.5532"/>
</g>
<!-- Node15&#45;&gt;Node16 -->
<g id="edge21" class="edge">
<title>Node15&#45;&gt;Node16</title>
<path fill="none" stroke="#191970" d="M258.0526,-171.4408C291.4724,-161.7711 342.046,-147.1381 377.8302,-136.7843"/>
<polygon fill="#191970" stroke="#191970" points="378.8713,-140.1267 387.5045,-133.9851 376.9257,-133.4025 378.8713,-140.1267"/>
</g>
<!-- Node18 -->
<g id="node18" class="node">
<title>Node18</title>
<g id="a_node18"><a xlink:href="../../db/dd5/PHPointerList_8h.html" target="_top" xlink:title="PHPointerList.h">
<polygon fill="none" stroke="#000000" points="177.2864,-57.5 177.2864,-77.5 269.2864,-77.5 269.2864,-57.5 177.2864,-57.5"/>
<text text-anchor="middle" x="223.2864" y="-64.5" font-family="FreeSans" font-size="10.00" fill="#000000">PHPointerList.h</text>
</a>
</g>
</g>
<!-- Node15&#45;&gt;Node18 -->
<g id="edge24" class="edge">
<title>Node15&#45;&gt;Node18</title>
<path fill="none" stroke="#191970" d="M223.2864,-171.3833C223.2864,-152.6703 223.2864,-112.3266 223.2864,-87.7866"/>
<polygon fill="#191970" stroke="#191970" points="226.7865,-87.7579 223.2864,-77.7579 219.7865,-87.758 226.7865,-87.7579"/>
</g>
<!-- Node16&#45;&gt;Node6 -->
<g id="edge23" class="edge">
<title>Node16&#45;&gt;Node6</title>
<path fill="none" stroke="#191970" d="M452.9547,-120.2349C468.7502,-118.2314 487.9911,-115.8769 505.2864,-114 679.7316,-95.069 889.1347,-76.9954 969.0716,-70.2654"/>
<polygon fill="#191970" stroke="#191970" points="969.8025,-73.7164 979.4747,-69.3921 969.2169,-66.741 969.8025,-73.7164"/>
</g>
<!-- Node17 -->
<g id="node17" class="node">
<title>Node17</title>
<polygon fill="none" stroke="#bfbfbf" points="396.2864,-57.5 396.2864,-77.5 444.2864,-77.5 444.2864,-57.5 396.2864,-57.5"/>
<text text-anchor="middle" x="420.2864" y="-64.5" font-family="FreeSans" font-size="10.00" fill="#000000">iosfwd</text>
</g>
<!-- Node16&#45;&gt;Node17 -->
<g id="edge22" class="edge">
<title>Node16&#45;&gt;Node17</title>
<path fill="none" stroke="#191970" d="M420.2864,-114.3095C420.2864,-106.9335 420.2864,-96.72 420.2864,-87.715"/>
<polygon fill="#191970" stroke="#191970" points="423.7865,-87.6022 420.2864,-77.6022 416.7865,-87.6023 423.7865,-87.6022"/>
</g>
<!-- Node18&#45;&gt;Node10 -->
<g id="edge25" class="edge">
<title>Node18&#45;&gt;Node10</title>
<path fill="none" stroke="#191970" d="M213.9899,-57.3095C206.5953,-49.204 196.0749,-37.672 187.3266,-28.0826"/>
<polygon fill="#191970" stroke="#191970" points="189.8278,-25.631 180.5025,-20.6022 184.6565,-30.3488 189.8278,-25.631"/>
</g>
<!-- Node19&#45;&gt;Node6 -->
<g id="edge49" class="edge">
<title>Node19&#45;&gt;Node6</title>
<path fill="none" stroke="#191970" d="M882.9948,-228.4874C926.4836,-220.2759 979.7931,-207.5006 996.2864,-192 1022.2866,-167.5648 1020.1348,-149.3494 1015.2864,-114 1014.0668,-105.1075 1011.593,-95.5186 1009.1277,-87.3718"/>
<polygon fill="#191970" stroke="#191970" points="1012.3997,-86.1144 1005.9978,-77.6725 1005.738,-88.2641 1012.3997,-86.1144"/>
</g>
<!-- Node19&#45;&gt;Node9 -->
<g id="edge48" class="edge">
<title>Node19&#45;&gt;Node9</title>
<path fill="none" stroke="#191970" d="M755.0517,-229.7809C665.1116,-217.9412 506.9001,-197.1143 431.1124,-187.1376"/>
<polygon fill="#191970" stroke="#191970" points="431.3525,-183.6391 420.9812,-185.8039 430.4388,-190.5792 431.3525,-183.6391"/>
</g>
<!-- Node20 -->
<g id="node20" class="node">
<title>Node20</title>
<g id="a_node20"><a xlink:href="../../dd/d9b/PHDataNode_8h.html" target="_top" xlink:title="PHDataNode.h">
<polygon fill="none" stroke="#000000" points="477.7864,-171.5 477.7864,-191.5 566.7864,-191.5 566.7864,-171.5 477.7864,-171.5"/>
<text text-anchor="middle" x="522.2864" y="-178.5" font-family="FreeSans" font-size="10.00" fill="#000000">PHDataNode.h</text>
</a>
</g>
</g>
<!-- Node19&#45;&gt;Node20 -->
<g id="edge28" class="edge">
<title>Node19&#45;&gt;Node20</title>
<path fill="none" stroke="#191970" d="M768.5195,-228.4408C714.7005,-218.1809 631.5709,-202.3335 577.0429,-191.9385"/>
<polygon fill="#191970" stroke="#191970" points="577.6863,-188.4982 567.2077,-190.0636 576.3754,-195.3744 577.6863,-188.4982"/>
</g>
<!-- Node21 -->
<g id="node21" class="node">
<title>Node21</title>
<g id="a_node21"><a xlink:href="../../d9/d53/PHIOManager_8h.html" target="_top" xlink:title="PHIOManager.h">
<polygon fill="none" stroke="#000000" points="743.7864,-114.5 743.7864,-134.5 836.7864,-134.5 836.7864,-114.5 743.7864,-114.5"/>
<text text-anchor="middle" x="790.2864" y="-121.5" font-family="FreeSans" font-size="10.00" fill="#000000">PHIOManager.h</text>
</a>
</g>
</g>
<!-- Node19&#45;&gt;Node21 -->
<g id="edge31" class="edge">
<title>Node19&#45;&gt;Node21</title>
<path fill="none" stroke="#191970" d="M818.5354,-228.3833C813.4238,-209.586 802.3772,-168.9627 795.713,-144.4559"/>
<polygon fill="#191970" stroke="#191970" points="799.0773,-143.4891 793.0759,-134.7579 792.3226,-145.326 799.0773,-143.4891"/>
</g>
<!-- Node23 -->
<g id="node23" class="node">
<title>Node23</title>
<g id="a_node23"><a xlink:href="../../dd/de7/PHNodeIOManager_8h.html" target="_top" xlink:title="PHNodeIOManager.h">
<polygon fill="none" stroke="#000000" points="849.2864,-171.5 849.2864,-191.5 969.2864,-191.5 969.2864,-171.5 849.2864,-171.5"/>
<text text-anchor="middle" x="909.2864" y="-178.5" font-family="FreeSans" font-size="10.00" fill="#000000">PHNodeIOManager.h</text>
</a>
</g>
</g>
<!-- Node19&#45;&gt;Node23 -->
<g id="edge34" class="edge">
<title>Node19&#45;&gt;Node23</title>
<path fill="none" stroke="#191970" d="M837.0191,-228.3095C850.4089,-219.6366 869.8552,-207.0407 885.2035,-197.0992"/>
<polygon fill="#191970" stroke="#191970" points="887.1996,-199.9764 893.69,-191.6022 883.3941,-194.1011 887.1996,-199.9764"/>
</g>
<!-- Node25 -->
<g id="node25" class="node">
<title>Node25</title>
<g id="a_node25"><a xlink:href="../../db/d17/PHTypedNodeIterator_8h.html" target="_top" xlink:title="PHTypedNodeIterator.h">
<polygon fill="none" stroke="#000000" points="661.2864,-171.5 661.2864,-191.5 793.2864,-191.5 793.2864,-171.5 661.2864,-171.5"/>
<text text-anchor="middle" x="727.2864" y="-178.5" font-family="FreeSans" font-size="10.00" fill="#000000">PHTypedNodeIterator.h</text>
</a>
</g>
</g>
<!-- Node19&#45;&gt;Node25 -->
<g id="edge41" class="edge">
<title>Node19&#45;&gt;Node25</title>
<path fill="none" stroke="#191970" d="M804.4811,-228.3095C790.0447,-219.5556 769.0173,-206.8049 752.5529,-196.8211"/>
<polygon fill="#191970" stroke="#191970" points="754.3118,-193.7945 743.9462,-191.6022 750.6822,-199.7801 754.3118,-193.7945"/>
</g>
<!-- Node27 -->
<g id="node27" class="node">
<title>Node27</title>
<g id="a_node27"><a xlink:href="../../de/da7/phooldefs_8h.html" target="_top" xlink:title="phooldefs.h">
<polygon fill="none" stroke="#000000" points="931.7864,-114.5 931.7864,-134.5 1006.7864,-134.5 1006.7864,-114.5 931.7864,-114.5"/>
<text text-anchor="middle" x="969.2864" y="-121.5" font-family="FreeSans" font-size="10.00" fill="#000000">phooldefs.h</text>
</a>
</g>
</g>
<!-- Node19&#45;&gt;Node27 -->
<g id="edge46" class="edge">
<title>Node19&#45;&gt;Node27</title>
<path fill="none" stroke="#191970" d="M881.0271,-228.4162C920.2141,-220.4448 966.3375,-208.001 978.2864,-192 988.4186,-178.4319 984.3952,-158.9158 978.8847,-144.3552"/>
<polygon fill="#191970" stroke="#191970" points="981.9416,-142.602 974.7906,-134.7845 975.5057,-145.3552 981.9416,-142.602"/>
</g>
<!-- Node20&#45;&gt;Node10 -->
<g id="edge30" class="edge">
<title>Node20&#45;&gt;Node10</title>
<path fill="none" stroke="#191970" d="M519.9107,-171.4175C513.6505,-147.2542 494.2872,-85.9055 453.2864,-57 415.0801,-30.0647 280.35,-17.5891 211.8792,-12.8794"/>
<polygon fill="#191970" stroke="#191970" points="211.6938,-9.3595 201.4839,-12.1892 211.23,-16.3441 211.6938,-9.3595"/>
</g>
<!-- Node20&#45;&gt;Node16 -->
<g id="edge29" class="edge">
<title>Node20&#45;&gt;Node16</title>
<path fill="none" stroke="#191970" d="M504.0509,-171.3095C488.2408,-162.4745 465.1457,-149.5684 447.2082,-139.5445"/>
<polygon fill="#191970" stroke="#191970" points="448.8009,-136.4252 438.3641,-134.6022 445.3862,-142.5358 448.8009,-136.4252"/>
</g>
<!-- Node21&#45;&gt;Node6 -->
<g id="edge33" class="edge">
<title>Node21&#45;&gt;Node6</title>
<path fill="none" stroke="#191970" d="M827.6998,-114.4408C867.9017,-103.6317 931.17,-86.6209 969.4903,-76.3178"/>
<polygon fill="#191970" stroke="#191970" points="970.8489,-79.5769 979.5971,-73.6004 969.0313,-72.817 970.8489,-79.5769"/>
</g>
<!-- Node22 -->
<g id="node22" class="node">
<title>Node22</title>
<polygon fill="none" stroke="#bfbfbf" points="688.2864,-57.5 688.2864,-77.5 742.2864,-77.5 742.2864,-57.5 688.2864,-57.5"/>
<text text-anchor="middle" x="715.2864" y="-64.5" font-family="FreeSans" font-size="10.00" fill="#000000">cstddef</text>
</g>
<!-- Node21&#45;&gt;Node22 -->
<g id="edge32" class="edge">
<title>Node21&#45;&gt;Node22</title>
<path fill="none" stroke="#191970" d="M776.8779,-114.3095C765.6795,-105.7987 749.5103,-93.5102 736.5488,-83.6594"/>
<polygon fill="#191970" stroke="#191970" points="738.6583,-80.8665 728.5788,-77.6022 734.4227,-86.4397 738.6583,-80.8665"/>
</g>
<!-- Node23&#45;&gt;Node6 -->
<g id="edge40" class="edge">
<title>Node23&#45;&gt;Node6</title>
<path fill="none" stroke="#191970" d="M908.7472,-171.344C908.5089,-157.1895 909.9909,-131.3226 922.2864,-114 933.9458,-97.5737 953.3763,-86.083 970.1681,-78.6337"/>
<polygon fill="#191970" stroke="#191970" points="971.7651,-81.7609 979.6712,-74.708 969.0925,-75.2912 971.7651,-81.7609"/>
</g>
<!-- Node23&#45;&gt;Node14 -->
<g id="edge39" class="edge">
<title>Node23&#45;&gt;Node14</title>
<path fill="none" stroke="#191970" d="M969.3368,-175.8504C1041.9213,-168.5614 1167.6111,-154.4651 1274.2864,-135 1278.9316,-134.1524 1283.8218,-133.1237 1288.5859,-132.0458"/>
<polygon fill="#191970" stroke="#191970" points="1289.7446,-135.3684 1298.6692,-129.6587 1288.1319,-128.5567 1289.7446,-135.3684"/>
</g>
<!-- Node23&#45;&gt;Node21 -->
<g id="edge35" class="edge">
<title>Node23&#45;&gt;Node21</title>
<path fill="none" stroke="#191970" d="M888.2855,-171.4408C869.5383,-162.461 841.8548,-149.2008 820.6885,-139.0624"/>
<polygon fill="#191970" stroke="#191970" points="822.0084,-135.8138 811.4776,-134.6504 818.9844,-142.127 822.0084,-135.8138"/>
</g>
<!-- Node23&#45;&gt;Node22 -->
<g id="edge38" class="edge">
<title>Node23&#45;&gt;Node22</title>
<path fill="none" stroke="#191970" d="M849.1755,-172.0438C805.2533,-163.9668 750.632,-151.1075 734.2864,-135 721.8485,-122.7432 717.3837,-103.0305 715.8621,-88.065"/>
<polygon fill="#191970" stroke="#191970" points="719.3327,-87.499 715.1889,-77.7482 712.3476,-87.9549 719.3327,-87.499"/>
</g>
<!-- Node24 -->
<g id="node24" class="node">
<title>Node24</title>
<g id="a_node24"><a xlink:href="../../d5/d6f/phool_8h.html" target="_top" xlink:title="phool.h">
<polygon fill="none" stroke="#000000" points="799.2864,-57.5 799.2864,-77.5 853.2864,-77.5 853.2864,-57.5 799.2864,-57.5"/>
<text text-anchor="middle" x="826.2864" y="-64.5" font-family="FreeSans" font-size="10.00" fill="#000000">phool.h</text>
</a>
</g>
</g>
<!-- Node23&#45;&gt;Node24 -->
<g id="edge36" class="edge">
<title>Node23&#45;&gt;Node24</title>
<path fill="none" stroke="#191970" d="M901.9207,-171.3833C887.9895,-152.2488 857.5922,-110.4984 839.8671,-86.1529"/>
<polygon fill="#191970" stroke="#191970" points="842.4704,-83.7822 833.7549,-77.7579 836.8114,-87.9023 842.4704,-83.7822"/>
</g>
<!-- Node24&#45;&gt;Node10 -->
<g id="edge37" class="edge">
<title>Node24&#45;&gt;Node10</title>
<path fill="none" stroke="#191970" d="M799.2571,-63.3226C785.0114,-61.2206 767.2306,-58.7537 751.2864,-57 549.2132,-34.7742 306.4216,-18.7567 211.8048,-12.9215"/>
<polygon fill="#191970" stroke="#191970" points="211.7317,-9.4106 201.5364,-12.2925 211.3036,-16.3975 211.7317,-9.4106"/>
</g>
<!-- Node25&#45;&gt;Node22 -->
<g id="edge45" class="edge">
<title>Node25&#45;&gt;Node22</title>
<path fill="none" stroke="#191970" d="M719.6551,-171.4482C713.3328,-162.4467 704.8315,-148.6044 701.2864,-135 697.1018,-118.9417 701.5572,-100.4768 706.5209,-86.9232"/>
<polygon fill="#191970" stroke="#191970" points="709.7719,-88.2198 710.2811,-77.6372 703.2837,-85.5925 709.7719,-88.2198"/>
</g>
<!-- Node25&#45;&gt;Node26 -->
<g id="edge42" class="edge">
<title>Node25&#45;&gt;Node26</title>
<path fill="none" stroke="#191970" d="M704.5208,-171.4408C684.015,-162.3801 653.6468,-148.9615 630.6249,-138.7891"/>
<polygon fill="#191970" stroke="#191970" points="631.8199,-135.4907 621.2584,-134.6504 628.9907,-141.8935 631.8199,-135.4907"/>
</g>
<!-- Node26&#45;&gt;Node6 -->
<g id="edge44" class="edge">
<title>Node26&#45;&gt;Node6</title>
<path fill="none" stroke="#191970" d="M649.4533,-117.2809C733.6699,-105.3989 899.1519,-82.0512 969.4477,-72.1332"/>
<polygon fill="#191970" stroke="#191970" points="970.0843,-75.5781 979.4972,-70.7153 969.1063,-68.6468 970.0843,-75.5781"/>
</g>
<!-- Node26&#45;&gt;Node18 -->
<g id="edge43" class="edge">
<title>Node26&#45;&gt;Node18</title>
<path fill="none" stroke="#191970" d="M546.9306,-116.6939C476.9553,-106.0577 352.0919,-87.0784 279.6185,-76.0625"/>
<polygon fill="#191970" stroke="#191970" points="279.7311,-72.5395 269.3187,-74.4969 278.6791,-79.46 279.7311,-72.5395"/>
</g>
<!-- Node27&#45;&gt;Node6 -->
<g id="edge47" class="edge">
<title>Node27&#45;&gt;Node6</title>
<path fill="none" stroke="#191970" d="M975.1862,-114.3095C979.6442,-106.6093 985.8926,-95.8166 991.2662,-86.5349"/>
<polygon fill="#191970" stroke="#191970" points="994.4563,-88.0102 996.4378,-77.6022 988.3984,-84.5029 994.4563,-88.0102"/>
</g>
<!-- Node28&#45;&gt;Node6 -->
<g id="edge59" class="edge">
<title>Node28&#45;&gt;Node6</title>
<path fill="none" stroke="#191970" d="M797.3583,-291.4843C859.7761,-283.6163 964.8582,-260.3951 1019.2864,-192 1041.1268,-164.5551 1040.9395,-147.72 1031.2864,-114 1028.4327,-104.0314 1022.7528,-94.1229 1017.1704,-86.0301"/>
<polygon fill="#191970" stroke="#191970" points="1019.8193,-83.7252 1011.0648,-77.758 1014.1873,-87.8822 1019.8193,-83.7252"/>
</g>
<!-- Node28&#45;&gt;Node9 -->
<g id="edge58" class="edge">
<title>Node28&#45;&gt;Node9</title>
<path fill="none" stroke="#191970" d="M697.0945,-286.4451C694.116,-285.9458 691.1629,-285.4605 688.2864,-285 576.1372,-267.0472 531.9976,-308.5542 435.2864,-249 417.1331,-237.8213 404.1682,-216.7237 396.5143,-201.0784"/>
<polygon fill="#191970" stroke="#191970" points="399.5888,-199.3854 392.2503,-191.7436 393.2216,-202.2939 399.5888,-199.3854"/>
</g>
<!-- Node28&#45;&gt;Node16 -->
<g id="edge56" class="edge">
<title>Node28&#45;&gt;Node16</title>
<path fill="none" stroke="#191970" d="M697.0642,-285.5718C648.5357,-275.6005 578.7439,-260.155 553.2864,-249 511.6249,-230.7447 500.8877,-223.719 468.2864,-192 453.3807,-177.4977 439.9971,-157.8381 431.1731,-143.4768"/>
<polygon fill="#191970" stroke="#191970" points="433.9554,-141.3085 425.8299,-134.5094 427.9419,-144.8916 433.9554,-141.3085"/>
</g>
<!-- Node28&#45;&gt;Node19 -->
<g id="edge55" class="edge">
<title>Node28&#45;&gt;Node19</title>
<path fill="none" stroke="#191970" d="M760.5161,-285.3095C771.46,-276.8798 787.2154,-264.7439 799.9413,-254.9415"/>
<polygon fill="#191970" stroke="#191970" points="802.3848,-257.4773 808.1712,-248.6022 798.1132,-251.9318 802.3848,-257.4773"/>
</g>
<!-- Node28&#45;&gt;Node20 -->
<g id="edge54" class="edge">
<title>Node28&#45;&gt;Node20</title>
<path fill="none" stroke="#191970" d="M700.1244,-285.459C658.3534,-275.9982 601.0303,-261.4557 581.2864,-249 561.6642,-236.621 544.8894,-215.7725 534.2989,-200.5147"/>
<polygon fill="#191970" stroke="#191970" points="536.9916,-198.2437 528.5338,-191.8627 531.1663,-202.1252 536.9916,-198.2437"/>
</g>
<!-- Node28&#45;&gt;Node26 -->
<g id="edge57" class="edge">
<title>Node28&#45;&gt;Node26</title>
<path fill="none" stroke="#191970" d="M724.9396,-285.4096C707.8512,-277.0716 684.251,-264.1682 666.2864,-249 641.1983,-227.8172 634.9007,-220.8846 619.2864,-192 611.1814,-177.0067 605.69,-158.4163 602.3618,-144.5438"/>
<polygon fill="#191970" stroke="#191970" points="605.7353,-143.5903 600.1477,-134.5887 598.9023,-145.1101 605.7353,-143.5903"/>
</g>
</g>
</svg>
