<?xml version="1.0" encoding="UTF-8" standalone="no"?>
<!DOCTYPE svg PUBLIC "-//W3C//DTD SVG 1.1//EN"
 "http://www.w3.org/Graphics/SVG/1.1/DTD/svg11.dtd">
<!-- Generated by graphviz version 2.40.1 (20161225.0304)
 -->
<!-- Title: hist Pages: 1 -->
<svg width="642pt" height="366pt"
 viewBox="0.00 0.00 642.00 366.00" xmlns="http://www.w3.org/2000/svg" xmlns:xlink="http://www.w3.org/1999/xlink">
<g id="graph0" class="graph" transform="scale(1 1) rotate(0) translate(4 362)">
<title>hist</title>
<!-- Node1 -->
<g id="node1" class="node">
<title>Node1</title>
<polygon fill="#bfbfbf" stroke="#000000" points="0,-148.5 0,-168.5 35,-168.5 35,-148.5 0,-148.5"/>
<text text-anchor="middle" x="17.5" y="-155.5" font-family="FreeSans" font-size="10.00" fill="#000000">hist</text>
</g>
<!-- Node2 -->
<g id="node2" class="node">
<title>Node2</title>
<g id="a_node2"><a xlink:href="../../d4/dee/namespaceActsExamples_1_1PlotHelpers.html#aae562370f6b16f912053eca7fc81c52d" target="_top" xlink:title="book a 1D histogram">
<polygon fill="none" stroke="#000000" points="71,-297.5 71,-329.5 224,-329.5 224,-297.5 71,-297.5"/>
<text text-anchor="start" x="79" y="-316.5" font-family="FreeSans" font-size="10.00" fill="#000000">ActsExamples::PlotHelpers</text>
<text text-anchor="middle" x="147.5" y="-304.5" font-family="FreeSans" font-size="10.00" fill="#000000">::bookHisto</text>
</a>
</g>
</g>
<!-- Node1&#45;&gt;Node2 -->
<g id="edge1" class="edge">
<title>Node1&#45;&gt;Node2</title>
<path fill="none" stroke="#191970" d="M20.3997,-178.5419C25.5493,-206.9427 38.9413,-258.7466 71,-288.5 74.6869,-291.9218 78.8497,-294.8756 83.2816,-297.4253"/>
<polygon fill="#191970" stroke="#191970" points="23.8371,-177.8746 18.7603,-168.5753 16.9299,-179.0108 23.8371,-177.8746"/>
</g>
<!-- Node7 -->
<g id="node7" class="node">
<title>Node7</title>
<g id="a_node7"><a xlink:href="../../de/d98/compareHitHistograms_8C.html#ade8a44892f32bbde775dd68627290733" target="_top" xlink:title="compareHitHistograms">
<polygon fill="none" stroke="#000000" points="81,-258.5 81,-278.5 214,-278.5 214,-258.5 81,-258.5"/>
<text text-anchor="middle" x="147.5" y="-265.5" font-family="FreeSans" font-size="10.00" fill="#000000">compareHitHistograms</text>
</a>
</g>
</g>
<!-- Node1&#45;&gt;Node7 -->
<g id="edge6" class="edge">
<title>Node1&#45;&gt;Node7</title>
<path fill="none" stroke="#191970" d="M23.8958,-178.2481C31.6878,-199.1303 46.8804,-231.4903 71,-249.5 75.8247,-253.1025 81.2508,-256.028 86.929,-258.4026"/>
<polygon fill="#191970" stroke="#191970" points="27.1847,-177.05 20.5729,-168.7714 20.579,-179.3663 27.1847,-177.05"/>
</g>
<!-- Node8 -->
<g id="node8" class="node">
<title>Node8</title>
<g id="a_node8"><a xlink:href="../../d3/d25/classClusterSequence.html#ab3507a392b7a067bd20e00255e640092" target="_top" xlink:title="ClusterSequence::has\l_parents">
<polygon fill="none" stroke="#000000" points="84,-207.5 84,-239.5 211,-239.5 211,-207.5 84,-207.5"/>
<text text-anchor="start" x="92" y="-226.5" font-family="FreeSans" font-size="10.00" fill="#000000">ClusterSequence::has</text>
<text text-anchor="middle" x="147.5" y="-214.5" font-family="FreeSans" font-size="10.00" fill="#000000">_parents</text>
</a>
</g>
</g>
<!-- Node1&#45;&gt;Node8 -->
<g id="edge7" class="edge">
<title>Node1&#45;&gt;Node8</title>
<path fill="none" stroke="#191970" d="M36.5165,-175.1199C46.3077,-183.0331 58.7408,-192.1344 71,-198.5 77.3242,-201.7839 84.1647,-204.7515 91.0649,-207.3986"/>
<polygon fill="#191970" stroke="#191970" points="38.5844,-172.2871 28.6629,-168.5703 34.1011,-177.663 38.5844,-172.2871"/>
</g>
<!-- Node9 -->
<g id="node9" class="node">
<title>Node9</title>
<g id="a_node9"><a xlink:href="../../dd/d39/Mat__map__surface__plot_8C.html#a316b27b9b510494703b3b9ba3b5ef653" target="_top" xlink:title="Mat_map_surface_plot">
<polygon fill="none" stroke="#000000" points="82.5,-168.5 82.5,-188.5 212.5,-188.5 212.5,-168.5 82.5,-168.5"/>
<text text-anchor="middle" x="147.5" y="-175.5" font-family="FreeSans" font-size="10.00" fill="#000000">Mat_map_surface_plot</text>
</a>
</g>
</g>
<!-- Node1&#45;&gt;Node9 -->
<g id="edge8" class="edge">
<title>Node1&#45;&gt;Node9</title>
<path fill="none" stroke="#191970" d="M45.2086,-162.7629C56.1776,-164.4504 69.2878,-166.4674 82.4033,-168.4851"/>
<polygon fill="#191970" stroke="#191970" points="45.4483,-159.2586 35.0324,-161.1973 44.3839,-166.1772 45.4483,-159.2586"/>
</g>
<!-- Node10 -->
<g id="node10" class="node">
<title>Node10</title>
<g id="a_node10"><a xlink:href="../../d0/dab/Mat__map__surface__plot__1D_8C.html#aed6e995568a560922476e7e1e169c8c6" target="_top" xlink:title="Mat_map_surface_plot_1D">
<polygon fill="none" stroke="#000000" points="73,-129.5 73,-149.5 222,-149.5 222,-129.5 73,-129.5"/>
<text text-anchor="middle" x="147.5" y="-136.5" font-family="FreeSans" font-size="10.00" fill="#000000">Mat_map_surface_plot_1D</text>
</a>
</g>
</g>
<!-- Node1&#45;&gt;Node10 -->
<g id="edge9" class="edge">
<title>Node1&#45;&gt;Node10</title>
<path fill="none" stroke="#191970" d="M45.1129,-154.4643C55.122,-153.0014 66.9231,-151.2766 78.888,-149.5279"/>
<polygon fill="#191970" stroke="#191970" points="44.4211,-151.0281 35.0324,-155.9376 45.4334,-157.9545 44.4211,-151.0281"/>
</g>
<!-- Node11 -->
<g id="node11" class="node">
<title>Node11</title>
<g id="a_node11"><a xlink:href="../../d7/dee/Mat__map__surface__plot__ratio_8C.html#adb69c3efe670b5d46dee1f10d84945cf" target="_top" xlink:title="Mat_map_surface_plot\l_ratio">
<polygon fill="none" stroke="#000000" points="82.5,-78.5 82.5,-110.5 212.5,-110.5 212.5,-78.5 82.5,-78.5"/>
<text text-anchor="start" x="90.5" y="-97.5" font-family="FreeSans" font-size="10.00" fill="#000000">Mat_map_surface_plot</text>
<text text-anchor="middle" x="147.5" y="-85.5" font-family="FreeSans" font-size="10.00" fill="#000000">_ratio</text>
</a>
</g>
</g>
<!-- Node1&#45;&gt;Node11 -->
<g id="edge10" class="edge">
<title>Node1&#45;&gt;Node11</title>
<path fill="none" stroke="#191970" d="M37.734,-142.0133C47.3861,-134.7155 59.3504,-126.4559 71,-120.5 78.1192,-116.8603 85.8606,-113.5525 93.5943,-110.6091"/>
<polygon fill="#191970" stroke="#191970" points="35.3347,-139.4457 29.5953,-148.3513 39.6356,-144.9686 35.3347,-139.4457"/>
</g>
<!-- Node12 -->
<g id="node12" class="node">
<title>Node12</title>
<g id="a_node12"><a xlink:href="../../d6/dc6/examples_2unittests_2fluid__dynamics_8cc.html#a5604593ebcf281bdd8c8596bc84657ed" target="_top" xlink:title="TEST">
<polygon fill="none" stroke="#000000" points="126,-39.5 126,-59.5 169,-59.5 169,-39.5 126,-39.5"/>
<text text-anchor="middle" x="147.5" y="-46.5" font-family="FreeSans" font-size="10.00" fill="#000000">TEST</text>
</a>
</g>
</g>
<!-- Node1&#45;&gt;Node12 -->
<g id="edge11" class="edge">
<title>Node1&#45;&gt;Node12</title>
<path fill="none" stroke="#191970" d="M24.1649,-138.957C32.1253,-118.5691 47.4038,-87.1652 71,-69.5 86.9344,-57.5708 109.3606,-52.7388 125.8125,-50.7913"/>
<polygon fill="#191970" stroke="#191970" points="20.8283,-137.8898 20.6639,-148.4833 27.3986,-140.3045 20.8283,-137.8898"/>
</g>
<!-- Node13 -->
<g id="node13" class="node">
<title>Node13</title>
<g id="a_node13"><a xlink:href="../../d7/d42/test__nucleus_8cxx.html#a086420a443a738c4fa72e59864da1dad" target="_top" xlink:title="TEST_CASE">
<polygon fill="none" stroke="#000000" points="110.5,-.5 110.5,-20.5 184.5,-20.5 184.5,-.5 110.5,-.5"/>
<text text-anchor="middle" x="147.5" y="-7.5" font-family="FreeSans" font-size="10.00" fill="#000000">TEST_CASE</text>
</a>
</g>
</g>
<!-- Node1&#45;&gt;Node13 -->
<g id="edge12" class="edge">
<title>Node1&#45;&gt;Node13</title>
<path fill="none" stroke="#191970" d="M20.163,-138.2927C25.0232,-109.7197 38.0643,-57.8406 71,-29.5 81.8918,-20.1278 96.7183,-15.2474 110.4196,-12.7508"/>
<polygon fill="#191970" stroke="#191970" points="16.68,-137.9165 18.6326,-148.3298 23.6,-138.9717 16.68,-137.9165"/>
</g>
<!-- Node3 -->
<g id="node3" class="node">
<title>Node3</title>
<g id="a_node3"><a xlink:href="../../de/d9c/classActsExamples_1_1FakeRatePlotTool.html#af5a217efceb846e8a178163d07eddb1f" target="_top" xlink:title="book the fake rate plots">
<polygon fill="none" stroke="#000000" points="260,-323.5 260,-355.5 420,-355.5 420,-323.5 260,-323.5"/>
<text text-anchor="start" x="268" y="-342.5" font-family="FreeSans" font-size="10.00" fill="#000000">ActsExamples::FakeRatePlot</text>
<text text-anchor="middle" x="340" y="-330.5" font-family="FreeSans" font-size="10.00" fill="#000000">Tool::book</text>
</a>
</g>
</g>
<!-- Node2&#45;&gt;Node3 -->
<g id="edge2" class="edge">
<title>Node2&#45;&gt;Node3</title>
<path fill="none" stroke="#191970" d="M234.1224,-325.1996C242.6851,-326.3562 251.3504,-327.5265 259.8436,-328.6737"/>
<polygon fill="#191970" stroke="#191970" points="234.5127,-321.7207 224.1342,-323.8506 233.5757,-328.6577 234.5127,-321.7207"/>
</g>
<!-- Node5 -->
<g id="node5" class="node">
<title>Node5</title>
<g id="a_node5"><a xlink:href="../../d7/dc1/classActsExamples_1_1ResPlotTool.html#a79f83999bc83bb91748265e3c4bbb461" target="_top" xlink:title="book the histograms">
<polygon fill="none" stroke="#000000" points="264.5,-271.5 264.5,-303.5 415.5,-303.5 415.5,-271.5 264.5,-271.5"/>
<text text-anchor="start" x="272.5" y="-290.5" font-family="FreeSans" font-size="10.00" fill="#000000">ActsExamples::ResPlotTool</text>
<text text-anchor="middle" x="340" y="-278.5" font-family="FreeSans" font-size="10.00" fill="#000000">::book</text>
</a>
</g>
</g>
<!-- Node2&#45;&gt;Node5 -->
<g id="edge4" class="edge">
<title>Node2&#45;&gt;Node5</title>
<path fill="none" stroke="#191970" d="M234.1224,-301.8004C244.1742,-300.4427 254.3675,-299.0659 264.2578,-297.7301"/>
<polygon fill="#191970" stroke="#191970" points="233.5757,-298.3423 224.1342,-303.1494 234.5127,-305.2793 233.5757,-298.3423"/>
</g>
<!-- Node4 -->
<g id="node4" class="node">
<title>Node4</title>
<g id="a_node4"><a xlink:href="../../dd/d47/exceptionActsExamples_1_1CKFPerformanceWriter.html#a34c41f18aea0d5d078295ca9cad0ba21" target="_top" xlink:title="Construct from configuration and log level.">
<polygon fill="none" stroke="#000000" points="456,-325.5 456,-357.5 634,-357.5 634,-325.5 456,-325.5"/>
<text text-anchor="start" x="464" y="-344.5" font-family="FreeSans" font-size="10.00" fill="#000000">ActsExamples::CKFPerformance</text>
<text text-anchor="middle" x="545" y="-332.5" font-family="FreeSans" font-size="10.00" fill="#000000">Writer::CKFPerformanceWriter</text>
</a>
</g>
</g>
<!-- Node3&#45;&gt;Node4 -->
<g id="edge3" class="edge">
<title>Node3&#45;&gt;Node4</title>
<path fill="none" stroke="#191970" d="M430.3534,-340.3815C438.7853,-340.4638 447.3285,-340.5471 455.7502,-340.6293"/>
<polygon fill="#191970" stroke="#191970" points="430.1728,-336.8797 420.1391,-340.2818 430.1045,-343.8793 430.1728,-336.8797"/>
</g>
<!-- Node6 -->
<g id="node6" class="node">
<title>Node6</title>
<g id="a_node6"><a xlink:href="../../d1/dc6/exceptionActsExamples_1_1TrackFitterPerformanceWriter.html#a7902f6fe24d3acbbbeb9832ba17185d1" target="_top" xlink:title="Construct from configuration and log level.">
<polygon fill="none" stroke="#000000" points="460,-262.5 460,-306.5 630,-306.5 630,-262.5 460,-262.5"/>
<text text-anchor="start" x="468" y="-293.5" font-family="FreeSans" font-size="10.00" fill="#000000">ActsExamples::TrackFitter</text>
<text text-anchor="start" x="468" y="-281.5" font-family="FreeSans" font-size="10.00" fill="#000000">PerformanceWriter::TrackFitter</text>
<text text-anchor="middle" x="545" y="-269.5" font-family="FreeSans" font-size="10.00" fill="#000000">PerformanceWriter</text>
</a>
</g>
</g>
<!-- Node5&#45;&gt;Node6 -->
<g id="edge5" class="edge">
<title>Node5&#45;&gt;Node6</title>
<path fill="none" stroke="#191970" d="M425.965,-286.242C437.1863,-286.0778 448.6792,-285.9096 459.8865,-285.7456"/>
<polygon fill="#191970" stroke="#191970" points="425.6997,-282.7454 415.752,-286.3914 425.8022,-289.7446 425.6997,-282.7454"/>
</g>
</g>
</svg>
