<?xml version="1.0" encoding="UTF-8" standalone="no"?>
<!DOCTYPE svg PUBLIC "-//W3C//DTD SVG 1.1//EN"
 "http://www.w3.org/Graphics/SVG/1.1/DTD/svg11.dtd">
<!-- Generated by graphviz version 2.40.1 (20161225.0304)
 -->
<!-- Title: PHG4MvtxSupport::GetConeVolume Pages: 1 -->
<svg width="1001pt" height="41pt"
 viewBox="0.00 0.00 1001.00 41.00" xmlns="http://www.w3.org/2000/svg" xmlns:xlink="http://www.w3.org/1999/xlink">
<g id="graph0" class="graph" transform="scale(1 1) rotate(0) translate(4 37)">
<title>PHG4MvtxSupport::GetConeVolume</title>
<!-- Node1 -->
<g id="node1" class="node">
<title>Node1</title>
<polygon fill="#bfbfbf" stroke="#000000" points="0,-.5 0,-32.5 159,-32.5 159,-.5 0,-.5"/>
<text text-anchor="start" x="8" y="-19.5" font-family="FreeSans" font-size="10.00" fill="#000000">PHG4MvtxSupport::GetCone</text>
<text text-anchor="middle" x="79.5" y="-7.5" font-family="FreeSans" font-size="10.00" fill="#000000">Volume</text>
</g>
<!-- Node2 -->
<g id="node2" class="node">
<title>Node2</title>
<g id="a_node2"><a xlink:href="../../d6/dc2/classPHG4MvtxSupport.html#a9b4c68ef1a929811cc388538eb7c8ec7" target="_top" xlink:title="PHG4MvtxSupport::CreateCone\lLayers">
<polygon fill="none" stroke="#000000" points="195,-.5 195,-32.5 370,-32.5 370,-.5 195,-.5"/>
<text text-anchor="start" x="203" y="-19.5" font-family="FreeSans" font-size="10.00" fill="#000000">PHG4MvtxSupport::CreateCone</text>
<text text-anchor="middle" x="282.5" y="-7.5" font-family="FreeSans" font-size="10.00" fill="#000000">Layers</text>
</a>
</g>
</g>
<!-- Node1&#45;&gt;Node2 -->
<g id="edge1" class="edge">
<title>Node1&#45;&gt;Node2</title>
<path fill="none" stroke="#191970" d="M169.3479,-16.5C177.7668,-16.5 186.294,-16.5 194.6938,-16.5"/>
<polygon fill="#191970" stroke="#191970" points="169.1484,-13.0001 159.1483,-16.5 169.1483,-20.0001 169.1484,-13.0001"/>
</g>
<!-- Node3 -->
<g id="node3" class="node">
<title>Node3</title>
<g id="a_node3"><a xlink:href="../../d6/dc2/classPHG4MvtxSupport.html#a1bea4e0e4d4b21b3e321ff1b4a9e76ea" target="_top" xlink:title="PHG4MvtxSupport::Construct\lMvtxSupport">
<polygon fill="none" stroke="#000000" points="406,-.5 406,-32.5 571,-32.5 571,-.5 406,-.5"/>
<text text-anchor="start" x="414" y="-19.5" font-family="FreeSans" font-size="10.00" fill="#000000">PHG4MvtxSupport::Construct</text>
<text text-anchor="middle" x="488.5" y="-7.5" font-family="FreeSans" font-size="10.00" fill="#000000">MvtxSupport</text>
</a>
</g>
</g>
<!-- Node2&#45;&gt;Node3 -->
<g id="edge2" class="edge">
<title>Node2&#45;&gt;Node3</title>
<path fill="none" stroke="#191970" d="M380.1913,-16.5C388.7669,-16.5 397.3917,-16.5 405.8271,-16.5"/>
<polygon fill="#191970" stroke="#191970" points="380.1613,-13.0001 370.1613,-16.5 380.1612,-20.0001 380.1613,-13.0001"/>
</g>
<!-- Node4 -->
<g id="node4" class="node">
<title>Node4</title>
<g id="a_node4"><a xlink:href="../../d4/dc1/classPHG4MvtxDetector.html#ab59e4aed55e51d4757ba5a64b4998f76" target="_top" xlink:title="PHG4MvtxDetector::Construct\lMvtxPassiveVol">
<polygon fill="none" stroke="#000000" points="607,-.5 607,-32.5 775,-32.5 775,-.5 607,-.5"/>
<text text-anchor="start" x="615" y="-19.5" font-family="FreeSans" font-size="10.00" fill="#000000">PHG4MvtxDetector::Construct</text>
<text text-anchor="middle" x="691" y="-7.5" font-family="FreeSans" font-size="10.00" fill="#000000">MvtxPassiveVol</text>
</a>
</g>
</g>
<!-- Node3&#45;&gt;Node4 -->
<g id="edge3" class="edge">
<title>Node3&#45;&gt;Node4</title>
<path fill="none" stroke="#191970" d="M581.1902,-16.5C589.7825,-16.5 598.4576,-16.5 606.9656,-16.5"/>
<polygon fill="#191970" stroke="#191970" points="581.1566,-13.0001 571.1566,-16.5 581.1565,-20.0001 581.1566,-13.0001"/>
</g>
<!-- Node5 -->
<g id="node5" class="node">
<title>Node5</title>
<g id="a_node5"><a xlink:href="../../d4/dc1/classPHG4MvtxDetector.html#a8b1e48980398bde6fd22e58e3c26dd63" target="_top" xlink:title="construct">
<polygon fill="none" stroke="#000000" points="811,-6.5 811,-26.5 993,-26.5 993,-6.5 811,-6.5"/>
<text text-anchor="middle" x="902" y="-13.5" font-family="FreeSans" font-size="10.00" fill="#000000">PHG4MvtxDetector::ConstructMe</text>
</a>
</g>
</g>
<!-- Node4&#45;&gt;Node5 -->
<g id="edge4" class="edge">
<title>Node4&#45;&gt;Node5</title>
<path fill="none" stroke="#191970" d="M785.5322,-16.5C793.9693,-16.5 802.501,-16.5 810.9082,-16.5"/>
<polygon fill="#191970" stroke="#191970" points="785.3025,-13.0001 775.3024,-16.5 785.3024,-20.0001 785.3025,-13.0001"/>
</g>
</g>
</svg>
