<?xml version="1.0" encoding="UTF-8" standalone="no"?>
<!DOCTYPE svg PUBLIC "-//W3C//DTD SVG 1.1//EN"
 "http://www.w3.org/Graphics/SVG/1.1/DTD/svg11.dtd">
<!-- Generated by graphviz version 2.40.1 (20161225.0304)
 -->
<!-- Title: kdfinder::Helix::momentumAt Pages: 1 -->
<svg width="684pt" height="263pt"
 viewBox="0.00 0.00 684.00 263.00" xmlns="http://www.w3.org/2000/svg" xmlns:xlink="http://www.w3.org/1999/xlink">
<g id="graph0" class="graph" transform="scale(1 1) rotate(0) translate(4 259)">
<title>kdfinder::Helix::momentumAt</title>
<!-- Node1 -->
<g id="node1" class="node">
<title>Node1</title>
<polygon fill="#bfbfbf" stroke="#000000" points="0,-116.5 0,-136.5 167,-136.5 167,-116.5 0,-116.5"/>
<text text-anchor="middle" x="83.5" y="-123.5" font-family="FreeSans" font-size="10.00" fill="#000000">kdfinder::Helix::momentumAt</text>
</g>
<!-- Node2 -->
<g id="node2" class="node">
<title>Node2</title>
<g id="a_node2"><a xlink:href="../../de/d52/classkdfinder_1_1Helix.html#af7e2f89d52129fd120ff747800f55678" target="_top" xlink:title="kdfinder::Helix::momentum">
<polygon fill="none" stroke="#000000" points="203,-136.5 203,-156.5 359,-156.5 359,-136.5 203,-136.5"/>
<text text-anchor="middle" x="281" y="-143.5" font-family="FreeSans" font-size="10.00" fill="#000000">kdfinder::Helix::momentum</text>
</a>
</g>
</g>
<!-- Node1&#45;&gt;Node2 -->
<g id="edge1" class="edge">
<title>Node1&#45;&gt;Node2</title>
<path fill="none" stroke="#191970" d="M167.2578,-134.9818C175.6291,-135.8295 184.1475,-136.6922 192.5649,-137.5446"/>
<polygon fill="#191970" stroke="#191970" points="192.4637,-141.0521 202.7655,-138.5775 193.169,-134.0877 192.4637,-141.0521"/>
</g>
<!-- Node3 -->
<g id="node3" class="node">
<title>Node3</title>
<g id="a_node3"><a xlink:href="../../de/d52/classkdfinder_1_1Helix.html#aea7551d3a5f92374f543f3d4ee214e94" target="_top" xlink:title="move the origin along the helix to s which becomes then s=0">
<polygon fill="none" stroke="#000000" points="203,-97.5 203,-117.5 359,-117.5 359,-97.5 203,-97.5"/>
<text text-anchor="middle" x="281" y="-104.5" font-family="FreeSans" font-size="10.00" fill="#000000">kdfinder::Helix::moveOrigin</text>
</a>
</g>
</g>
<!-- Node1&#45;&gt;Node3 -->
<g id="edge2" class="edge">
<title>Node1&#45;&gt;Node3</title>
<path fill="none" stroke="#191970" d="M167.2578,-118.4423C175.6291,-117.6369 184.1475,-116.8175 192.5649,-116.0077"/>
<polygon fill="#191970" stroke="#191970" points="193.1466,-119.468 202.7655,-115.0264 192.4763,-112.5001 193.1466,-119.468"/>
</g>
<!-- Node4 -->
<g id="node4" class="node">
<title>Node4</title>
<g id="a_node4"><a xlink:href="../../de/d52/classkdfinder_1_1Helix.html#a5ddeeeb1269d014eb96dbbdbc3b6538a" target="_top" xlink:title="kdfinder::Helix::at">
<polygon fill="none" stroke="#000000" points="412,-195.5 412,-215.5 520,-215.5 520,-195.5 412,-195.5"/>
<text text-anchor="middle" x="466" y="-202.5" font-family="FreeSans" font-size="10.00" fill="#000000">kdfinder::Helix::at</text>
</a>
</g>
</g>
<!-- Node3&#45;&gt;Node4 -->
<g id="edge3" class="edge">
<title>Node3&#45;&gt;Node4</title>
<path fill="none" stroke="#191970" d="M340.7196,-117.591C347.2368,-120.1786 353.4932,-123.4258 359,-127.5 383.6944,-145.7699 370.4016,-168.101 395,-186.5 397.4747,-188.351 400.1166,-190.0218 402.8719,-191.53"/>
<polygon fill="#191970" stroke="#191970" points="401.4527,-194.7302 411.9919,-195.8146 404.4292,-188.3946 401.4527,-194.7302"/>
</g>
<!-- Node8 -->
<g id="node8" class="node">
<title>Node8</title>
<g id="a_node8"><a xlink:href="../../d8/dc7/classkdfinder_1_1TVector.html#a6c5e56880a562a954a3e4cfa6e331e24" target="_top" xlink:title="kdfinder::TVector::y">
<polygon fill="none" stroke="#000000" points="408,-156.5 408,-176.5 524,-176.5 524,-156.5 408,-156.5"/>
<text text-anchor="middle" x="466" y="-163.5" font-family="FreeSans" font-size="10.00" fill="#000000">kdfinder::TVector::y</text>
</a>
</g>
</g>
<!-- Node3&#45;&gt;Node8 -->
<g id="edge7" class="edge">
<title>Node3&#45;&gt;Node8</title>
<path fill="none" stroke="#191970" d="M328.2306,-117.5376C338.5315,-120.2971 349.2594,-123.6202 359,-127.5 376.0041,-134.2729 378.0316,-140.6381 395,-147.5 400.3806,-149.6759 406.0905,-151.6783 411.8428,-153.5003"/>
<polygon fill="#191970" stroke="#191970" points="410.9294,-156.8803 421.5131,-156.395 412.9368,-150.1743 410.9294,-156.8803"/>
</g>
<!-- Node9 -->
<g id="node9" class="node">
<title>Node9</title>
<g id="a_node9"><a xlink:href="../../de/d52/classkdfinder_1_1Helix.html#af1b55343799e5f1b3cbb41753f3a6d67" target="_top" xlink:title="kdfinder::Helix::ycenter">
<polygon fill="none" stroke="#000000" points="398,-117.5 398,-137.5 534,-137.5 534,-117.5 398,-117.5"/>
<text text-anchor="middle" x="466" y="-124.5" font-family="FreeSans" font-size="10.00" fill="#000000">kdfinder::Helix::ycenter</text>
</a>
</g>
</g>
<!-- Node3&#45;&gt;Node9 -->
<g id="edge8" class="edge">
<title>Node3&#45;&gt;Node9</title>
<path fill="none" stroke="#191970" d="M359.1885,-115.9528C368.6031,-116.9706 378.2204,-118.0103 387.6375,-119.0284"/>
<polygon fill="#191970" stroke="#191970" points="387.4402,-122.5274 397.7585,-120.1225 388.1926,-115.5679 387.4402,-122.5274"/>
</g>
<!-- Node10 -->
<g id="node10" class="node">
<title>Node10</title>
<g id="a_node10"><a xlink:href="../../d8/dc7/classkdfinder_1_1TVector.html#acaa0f748885d9540c37ada22f2aae88e" target="_top" xlink:title="kdfinder::TVector::x">
<polygon fill="none" stroke="#000000" points="408,-78.5 408,-98.5 524,-98.5 524,-78.5 408,-78.5"/>
<text text-anchor="middle" x="466" y="-85.5" font-family="FreeSans" font-size="10.00" fill="#000000">kdfinder::TVector::x</text>
</a>
</g>
</g>
<!-- Node3&#45;&gt;Node10 -->
<g id="edge9" class="edge">
<title>Node3&#45;&gt;Node10</title>
<path fill="none" stroke="#191970" d="M359.1885,-99.4698C371.9006,-98.1643 384.9822,-96.8208 397.4414,-95.5411"/>
<polygon fill="#191970" stroke="#191970" points="398.149,-98.987 407.7391,-94.4836 397.4338,-92.0236 398.149,-98.987"/>
</g>
<!-- Node11 -->
<g id="node11" class="node">
<title>Node11</title>
<g id="a_node11"><a xlink:href="../../de/d52/classkdfinder_1_1Helix.html#a63c6664359a92fb6f581e9e089ed9c53" target="_top" xlink:title="kdfinder::Helix::xcenter">
<polygon fill="none" stroke="#000000" points="398,-39.5 398,-59.5 534,-59.5 534,-39.5 398,-39.5"/>
<text text-anchor="middle" x="466" y="-46.5" font-family="FreeSans" font-size="10.00" fill="#000000">kdfinder::Helix::xcenter</text>
</a>
</g>
</g>
<!-- Node3&#45;&gt;Node11 -->
<g id="edge10" class="edge">
<title>Node3&#45;&gt;Node11</title>
<path fill="none" stroke="#191970" d="M309.9292,-97.4375C332.9001,-89.5492 365.885,-78.4477 395,-69.5 402.8324,-67.0929 411.1848,-64.6397 419.3082,-62.3138"/>
<polygon fill="#191970" stroke="#191970" points="420.3864,-65.6461 429.0528,-59.5514 418.4773,-58.9114 420.3864,-65.6461"/>
</g>
<!-- Node12 -->
<g id="node12" class="node">
<title>Node12</title>
<g id="a_node12"><a xlink:href="../../de/d52/classkdfinder_1_1Helix.html#a202b47264575a23443b77c20644d740b" target="_top" xlink:title="kdfinder::Helix::setPhase">
<polygon fill="none" stroke="#000000" points="395,-.5 395,-20.5 537,-20.5 537,-.5 395,-.5"/>
<text text-anchor="middle" x="466" y="-7.5" font-family="FreeSans" font-size="10.00" fill="#000000">kdfinder::Helix::setPhase</text>
</a>
</g>
</g>
<!-- Node3&#45;&gt;Node12 -->
<g id="edge11" class="edge">
<title>Node3&#45;&gt;Node12</title>
<path fill="none" stroke="#191970" d="M292.8183,-97.3713C312.6554,-80.8614 354.4702,-48.1253 395,-29.5 399.6631,-27.3571 404.6135,-25.4185 409.6457,-23.673"/>
<polygon fill="#191970" stroke="#191970" points="410.9183,-26.9405 419.3699,-20.5513 408.7786,-20.2755 410.9183,-26.9405"/>
</g>
<!-- Node5 -->
<g id="node5" class="node">
<title>Node5</title>
<g id="a_node5"><a xlink:href="../../de/d52/classkdfinder_1_1Helix.html#a704fb653ce98fc1ffdd2a2dd064ea0a9" target="_top" xlink:title="coordinates of helix at point s">
<polygon fill="none" stroke="#000000" points="573,-234.5 573,-254.5 676,-254.5 676,-234.5 573,-234.5"/>
<text text-anchor="middle" x="624.5" y="-241.5" font-family="FreeSans" font-size="10.00" fill="#000000">kdfinder::Helix::x</text>
</a>
</g>
</g>
<!-- Node4&#45;&gt;Node5 -->
<g id="edge4" class="edge">
<title>Node4&#45;&gt;Node5</title>
<path fill="none" stroke="#191970" d="M506.8177,-215.5435C527.3394,-220.593 552.3976,-226.7587 574.109,-232.1009"/>
<polygon fill="#191970" stroke="#191970" points="573.274,-235.4998 583.8206,-234.4906 574.9465,-228.7026 573.274,-235.4998"/>
</g>
<!-- Node6 -->
<g id="node6" class="node">
<title>Node6</title>
<g id="a_node6"><a xlink:href="../../de/d52/classkdfinder_1_1Helix.html#a36fb6a8c8160ee8b0b87b93fe53c9a7a" target="_top" xlink:title="kdfinder::Helix::y">
<polygon fill="none" stroke="#000000" points="573,-195.5 573,-215.5 676,-215.5 676,-195.5 573,-195.5"/>
<text text-anchor="middle" x="624.5" y="-202.5" font-family="FreeSans" font-size="10.00" fill="#000000">kdfinder::Helix::y</text>
</a>
</g>
</g>
<!-- Node4&#45;&gt;Node6 -->
<g id="edge5" class="edge">
<title>Node4&#45;&gt;Node6</title>
<path fill="none" stroke="#191970" d="M520.1034,-205.5C533.8147,-205.5 548.6463,-205.5 562.7065,-205.5"/>
<polygon fill="#191970" stroke="#191970" points="562.7811,-209.0001 572.7811,-205.5 562.7811,-202.0001 562.7811,-209.0001"/>
</g>
<!-- Node7 -->
<g id="node7" class="node">
<title>Node7</title>
<g id="a_node7"><a xlink:href="../../de/d52/classkdfinder_1_1Helix.html#a926fcb4ce5366515b7469082ec0cf47a" target="_top" xlink:title="kdfinder::Helix::z">
<polygon fill="none" stroke="#000000" points="573.5,-156.5 573.5,-176.5 675.5,-176.5 675.5,-156.5 573.5,-156.5"/>
<text text-anchor="middle" x="624.5" y="-163.5" font-family="FreeSans" font-size="10.00" fill="#000000">kdfinder::Helix::z</text>
</a>
</g>
</g>
<!-- Node4&#45;&gt;Node7 -->
<g id="edge6" class="edge">
<title>Node4&#45;&gt;Node7</title>
<path fill="none" stroke="#191970" d="M506.8177,-195.4565C527.3394,-190.407 552.3976,-184.2413 574.109,-178.8991"/>
<polygon fill="#191970" stroke="#191970" points="574.9465,-182.2974 583.8206,-176.5094 573.274,-175.5002 574.9465,-182.2974"/>
</g>
</g>
</svg>
