<?xml version="1.0" encoding="UTF-8" standalone="no"?>
<!DOCTYPE svg PUBLIC "-//W3C//DTD SVG 1.1//EN"
 "http://www.w3.org/Graphics/SVG/1.1/DTD/svg11.dtd">
<!-- Generated by graphviz version 2.40.1 (20161225.0304)
 -->
<!-- Title: kdfinder::Helix::Helix Pages: 1 -->
<svg width="713pt" height="107pt"
 viewBox="0.00 0.00 713.00 107.00" xmlns="http://www.w3.org/2000/svg" xmlns:xlink="http://www.w3.org/1999/xlink">
<g id="graph0" class="graph" transform="scale(1 1) rotate(0) translate(4 103)">
<title>kdfinder::Helix::Helix</title>
<!-- Node1 -->
<g id="node1" class="node">
<title>Node1</title>
<polygon fill="#bfbfbf" stroke="#000000" points="0,-58.5 0,-78.5 123,-78.5 123,-58.5 0,-58.5"/>
<text text-anchor="middle" x="61.5" y="-65.5" font-family="FreeSans" font-size="10.00" fill="#000000">kdfinder::Helix::Helix</text>
</g>
<!-- Node2 -->
<g id="node2" class="node">
<title>Node2</title>
<g id="a_node2"><a xlink:href="../../de/d52/classkdfinder_1_1Helix.html#a824e285d814012e52283f6bff643c180" target="_top" xlink:title="kdfinder::Helix::h">
<polygon fill="none" stroke="#000000" points="192.5,-78.5 192.5,-98.5 295.5,-98.5 295.5,-78.5 192.5,-78.5"/>
<text text-anchor="middle" x="244" y="-85.5" font-family="FreeSans" font-size="10.00" fill="#000000">kdfinder::Helix::h</text>
</a>
</g>
</g>
<!-- Node1&#45;&gt;Node2 -->
<g id="edge1" class="edge">
<title>Node1&#45;&gt;Node2</title>
<path fill="none" stroke="#191970" d="M123.0317,-75.2432C142.1537,-77.3388 163.2302,-79.6485 182.3595,-81.7449"/>
<polygon fill="#191970" stroke="#191970" points="182.1404,-85.2417 192.4622,-82.852 182.903,-78.2834 182.1404,-85.2417"/>
</g>
<!-- Node3 -->
<g id="node3" class="node">
<title>Node3</title>
<g id="a_node3"><a xlink:href="../../de/d52/classkdfinder_1_1Helix.html#aa47da6c1716f6af9d4f7510594d55502" target="_top" xlink:title="kdfinder::Helix::setParameters">
<polygon fill="none" stroke="#000000" points="159,-39.5 159,-59.5 329,-59.5 329,-39.5 159,-39.5"/>
<text text-anchor="middle" x="244" y="-46.5" font-family="FreeSans" font-size="10.00" fill="#000000">kdfinder::Helix::setParameters</text>
</a>
</g>
</g>
<!-- Node1&#45;&gt;Node3 -->
<g id="edge2" class="edge">
<title>Node1&#45;&gt;Node3</title>
<path fill="none" stroke="#191970" d="M123.0317,-62.094C131.2875,-61.2345 139.9076,-60.337 148.578,-59.4343"/>
<polygon fill="#191970" stroke="#191970" points="149.1768,-62.891 158.7606,-58.3742 148.4519,-55.9286 149.1768,-62.891"/>
</g>
<!-- Node4 -->
<g id="node4" class="node">
<title>Node4</title>
<g id="a_node4"><a xlink:href="../../de/d52/classkdfinder_1_1Helix.html#a50612f7ff53d59f410f2c3445aadf211" target="_top" xlink:title="kdfinder::Helix::setDipAngle">
<polygon fill="none" stroke="#000000" points="367,-78.5 367,-98.5 525,-98.5 525,-78.5 367,-78.5"/>
<text text-anchor="middle" x="446" y="-85.5" font-family="FreeSans" font-size="10.00" fill="#000000">kdfinder::Helix::setDipAngle</text>
</a>
</g>
</g>
<!-- Node3&#45;&gt;Node4 -->
<g id="edge3" class="edge">
<title>Node3&#45;&gt;Node4</title>
<path fill="none" stroke="#191970" d="M296.02,-59.5435C322.8807,-64.7294 355.8397,-71.0928 384.0132,-76.5323"/>
<polygon fill="#191970" stroke="#191970" points="383.6741,-80.0313 394.1563,-78.4906 385.0011,-73.1583 383.6741,-80.0313"/>
</g>
<!-- Node5 -->
<g id="node5" class="node">
<title>Node5</title>
<g id="a_node5"><a xlink:href="../../de/d52/classkdfinder_1_1Helix.html#a202b47264575a23443b77c20644d740b" target="_top" xlink:title="kdfinder::Helix::setPhase">
<polygon fill="none" stroke="#000000" points="563,-19.5 563,-39.5 705,-39.5 705,-19.5 563,-19.5"/>
<text text-anchor="middle" x="634" y="-26.5" font-family="FreeSans" font-size="10.00" fill="#000000">kdfinder::Helix::setPhase</text>
</a>
</g>
</g>
<!-- Node3&#45;&gt;Node5 -->
<g id="edge4" class="edge">
<title>Node3&#45;&gt;Node5</title>
<path fill="none" stroke="#191970" d="M329.1052,-45.1356C395.482,-41.7317 487.0823,-37.0342 552.5175,-33.6786"/>
<polygon fill="#191970" stroke="#191970" points="552.9794,-37.1596 562.787,-33.152 552.6208,-30.1688 552.9794,-37.1596"/>
</g>
<!-- Node6 -->
<g id="node6" class="node">
<title>Node6</title>
<g id="a_node6"><a xlink:href="../../de/d52/classkdfinder_1_1Helix.html#a065b0734b99fbac08e83620c81a11093" target="_top" xlink:title="kdfinder::Helix::setCurvature">
<polygon fill="none" stroke="#000000" points="365,-.5 365,-20.5 527,-20.5 527,-.5 365,-.5"/>
<text text-anchor="middle" x="446" y="-7.5" font-family="FreeSans" font-size="10.00" fill="#000000">kdfinder::Helix::setCurvature</text>
</a>
</g>
</g>
<!-- Node3&#45;&gt;Node6 -->
<g id="edge5" class="edge">
<title>Node3&#45;&gt;Node6</title>
<path fill="none" stroke="#191970" d="M296.02,-39.4565C322.8807,-34.2706 355.8397,-27.9072 384.0132,-22.4677"/>
<polygon fill="#191970" stroke="#191970" points="385.0011,-25.8417 394.1563,-20.5094 383.6741,-18.9687 385.0011,-25.8417"/>
</g>
<!-- Node6&#45;&gt;Node5 -->
<g id="edge6" class="edge">
<title>Node6&#45;&gt;Node5</title>
<path fill="none" stroke="#191970" d="M527.093,-18.6956C535.6644,-19.5618 544.3818,-20.4428 552.9527,-21.3091"/>
<polygon fill="#191970" stroke="#191970" points="552.6282,-24.794 562.9294,-22.3173 553.3321,-17.8295 552.6282,-24.794"/>
</g>
</g>
</svg>
