<?xml version="1.0" encoding="UTF-8" standalone="no"?>
<!DOCTYPE svg PUBLIC "-//W3C//DTD SVG 1.1//EN"
 "http://www.w3.org/Graphics/SVG/1.1/DTD/svg11.dtd">
<!-- Generated by graphviz version 2.40.1 (20161225.0304)
 -->
<!-- Title: coresoftware/blob/master/generators/phhepmc/PHHepMCGenHelper.h Pages: 1 -->
<svg width="281pt" height="110pt"
 viewBox="0.00 0.00 280.50 110.00" xmlns="http://www.w3.org/2000/svg" xmlns:xlink="http://www.w3.org/1999/xlink">
<g id="graph0" class="graph" transform="scale(1 1) rotate(0) translate(4 106)">
<title>coresoftware/blob/master/generators/phhepmc/PHHepMCGenHelper.h</title>
<!-- Node1 -->
<g id="node1" class="node">
<title>Node1</title>
<polygon fill="#bfbfbf" stroke="#000000" points="54,-57.5 54,-101.5 254,-101.5 254,-57.5 54,-57.5"/>
<text text-anchor="start" x="62" y="-88.5" font-family="FreeSans" font-size="10.00" fill="#000000">coresoftware/blob/master</text>
<text text-anchor="start" x="62" y="-76.5" font-family="FreeSans" font-size="10.00" fill="#000000">/generators/phhepmc/PHHepMCGen</text>
<text text-anchor="middle" x="154" y="-64.5" font-family="FreeSans" font-size="10.00" fill="#000000">Helper.h</text>
</g>
<!-- Node2 -->
<g id="node2" class="node">
<title>Node2</title>
<polygon fill="none" stroke="#bfbfbf" points="0,-.5 0,-20.5 80,-20.5 80,-.5 0,-.5"/>
<text text-anchor="middle" x="40" y="-7.5" font-family="FreeSans" font-size="10.00" fill="#000000">gsl/gsl_rng.h</text>
</g>
<!-- Node1&#45;&gt;Node2 -->
<g id="edge1" class="edge">
<title>Node1&#45;&gt;Node2</title>
<path fill="none" stroke="#191970" d="M117.6163,-57.4783C100.6721,-47.2226 80.919,-35.2667 65.5805,-25.9829"/>
<polygon fill="#191970" stroke="#191970" points="67.0326,-22.7707 56.6652,-20.5869 63.4079,-28.7592 67.0326,-22.7707"/>
</g>
<!-- Node3 -->
<g id="node3" class="node">
<title>Node3</title>
<polygon fill="none" stroke="#bfbfbf" points="98,-.5 98,-20.5 146,-20.5 146,-.5 98,-.5"/>
<text text-anchor="middle" x="122" y="-7.5" font-family="FreeSans" font-size="10.00" fill="#000000">cmath</text>
</g>
<!-- Node1&#45;&gt;Node3 -->
<g id="edge2" class="edge">
<title>Node1&#45;&gt;Node3</title>
<path fill="none" stroke="#191970" d="M143.6989,-57.2882C139.6016,-48.4535 134.9309,-38.3823 130.9751,-29.8525"/>
<polygon fill="#191970" stroke="#191970" points="134.1192,-28.313 126.7368,-20.7137 127.7689,-31.2581 134.1192,-28.313"/>
</g>
<!-- Node4 -->
<g id="node4" class="node">
<title>Node4</title>
<polygon fill="none" stroke="#bfbfbf" points="164.5,-.5 164.5,-20.5 209.5,-20.5 209.5,-.5 164.5,-.5"/>
<text text-anchor="middle" x="187" y="-7.5" font-family="FreeSans" font-size="10.00" fill="#000000">string</text>
</g>
<!-- Node1&#45;&gt;Node4 -->
<g id="edge3" class="edge">
<title>Node1&#45;&gt;Node4</title>
<path fill="none" stroke="#191970" d="M164.6231,-57.2882C168.8483,-48.4535 173.665,-38.3823 177.7445,-29.8525"/>
<polygon fill="#191970" stroke="#191970" points="180.9581,-31.2451 182.1152,-20.7137 174.6431,-28.2249 180.9581,-31.2451"/>
</g>
<!-- Node5 -->
<g id="node5" class="node">
<title>Node5</title>
<polygon fill="none" stroke="#bfbfbf" points="227.5,-.5 227.5,-20.5 272.5,-20.5 272.5,-.5 227.5,-.5"/>
<text text-anchor="middle" x="250" y="-7.5" font-family="FreeSans" font-size="10.00" fill="#000000">utility</text>
</g>
<!-- Node1&#45;&gt;Node5 -->
<g id="edge4" class="edge">
<title>Node1&#45;&gt;Node5</title>
<path fill="none" stroke="#191970" d="M184.6389,-57.4783C198.6385,-47.4161 214.9151,-35.7173 227.7235,-26.5113"/>
<polygon fill="#191970" stroke="#191970" points="229.8887,-29.2653 235.9661,-20.5869 225.8032,-23.5812 229.8887,-29.2653"/>
</g>
</g>
</svg>
