<?xml version="1.0" encoding="UTF-8" standalone="no"?>
<!DOCTYPE svg PUBLIC "-//W3C//DTD SVG 1.1//EN"
 "http://www.w3.org/Graphics/SVG/1.1/DTD/svg11.dtd">
<!-- Generated by graphviz version 2.40.1 (20161225.0304)
 -->
<!-- Title: sPHElectronv1::get_charge Pages: 1 -->
<svg width="604pt" height="74pt"
 viewBox="0.00 0.00 604.00 74.00" xmlns="http://www.w3.org/2000/svg" xmlns:xlink="http://www.w3.org/1999/xlink">
<g id="graph0" class="graph" transform="scale(1 1) rotate(0) translate(4 70)">
<title>sPHElectronv1::get_charge</title>
<!-- Node1 -->
<g id="node1" class="node">
<title>Node1</title>
<polygon fill="#bfbfbf" stroke="#000000" points="0,-13.5 0,-45.5 113,-45.5 113,-13.5 0,-13.5"/>
<text text-anchor="start" x="8" y="-32.5" font-family="FreeSans" font-size="10.00" fill="#000000">sPHElectronv1::get</text>
<text text-anchor="middle" x="56.5" y="-20.5" font-family="FreeSans" font-size="10.00" fill="#000000">_charge</text>
</g>
<!-- Node2 -->
<g id="node2" class="node">
<title>Node2</title>
<g id="a_node2"><a xlink:href="../../dc/d00/classPairMaker.html#aeb7c1a5054c3337c83e5a7d475caf298" target="_top" xlink:title="PairMaker::MakeMixedPairs">
<polygon fill="none" stroke="#000000" points="149,-39.5 149,-59.5 302,-59.5 302,-39.5 149,-39.5"/>
<text text-anchor="middle" x="225.5" y="-46.5" font-family="FreeSans" font-size="10.00" fill="#000000">PairMaker::MakeMixedPairs</text>
</a>
</g>
</g>
<!-- Node1&#45;&gt;Node2 -->
<g id="edge1" class="edge">
<title>Node1&#45;&gt;Node2</title>
<path fill="none" stroke="#191970" d="M123.3072,-37.4062C131.6744,-38.3964 140.2839,-39.4153 148.7873,-40.4216"/>
<polygon fill="#191970" stroke="#191970" points="123.5868,-33.9149 113.2447,-36.2153 122.764,-40.8664 123.5868,-33.9149"/>
</g>
<!-- Node5 -->
<g id="node5" class="node">
<title>Node5</title>
<g id="a_node5"><a xlink:href="../../db/d30/classsPHElectronv1.html#ae3cc031d19b4052fff1400d2ced23d2b" target="_top" xlink:title="sPHElectronv1::operator=">
<polygon fill="none" stroke="#000000" points="152,-.5 152,-20.5 299,-20.5 299,-.5 152,-.5"/>
<text text-anchor="middle" x="225.5" y="-7.5" font-family="FreeSans" font-size="10.00" fill="#000000">sPHElectronv1::operator=</text>
</a>
</g>
</g>
<!-- Node1&#45;&gt;Node5 -->
<g id="edge4" class="edge">
<title>Node1&#45;&gt;Node5</title>
<path fill="none" stroke="#191970" d="M123.2678,-21.9936C132.6363,-20.9403 142.3093,-19.8528 151.7976,-18.7861"/>
<polygon fill="#191970" stroke="#191970" points="122.791,-18.525 113.2447,-23.1204 123.5731,-25.4812 122.791,-18.525"/>
</g>
<!-- Node3 -->
<g id="node3" class="node">
<title>Node3</title>
<g id="a_node3"><a xlink:href="../../dc/d00/classPairMaker.html#ac4dbcbf8460f299fb192dc174790235b" target="_top" xlink:title="PairMaker::process\l_event_test">
<polygon fill="none" stroke="#000000" points="338,-33.5 338,-65.5 449,-65.5 449,-33.5 338,-33.5"/>
<text text-anchor="start" x="346" y="-52.5" font-family="FreeSans" font-size="10.00" fill="#000000">PairMaker::process</text>
<text text-anchor="middle" x="393.5" y="-40.5" font-family="FreeSans" font-size="10.00" fill="#000000">_event_test</text>
</a>
</g>
</g>
<!-- Node2&#45;&gt;Node3 -->
<g id="edge2" class="edge">
<title>Node2&#45;&gt;Node3</title>
<path fill="none" stroke="#191970" d="M312.2279,-49.5C320.8371,-49.5 329.4081,-49.5 337.5785,-49.5"/>
<polygon fill="#191970" stroke="#191970" points="312.1257,-46.0001 302.1256,-49.5 312.1256,-53.0001 312.1257,-46.0001"/>
</g>
<!-- Node4 -->
<g id="node4" class="node">
<title>Node4</title>
<g id="a_node4"><a xlink:href="../../dc/d00/classPairMaker.html#a733df0bfd06f87ad288582ca0132ca0b" target="_top" xlink:title="PairMaker::process\l_event">
<polygon fill="none" stroke="#000000" points="485,-33.5 485,-65.5 596,-65.5 596,-33.5 485,-33.5"/>
<text text-anchor="start" x="493" y="-52.5" font-family="FreeSans" font-size="10.00" fill="#000000">PairMaker::process</text>
<text text-anchor="middle" x="540.5" y="-40.5" font-family="FreeSans" font-size="10.00" fill="#000000">_event</text>
</a>
</g>
</g>
<!-- Node3&#45;&gt;Node4 -->
<g id="edge3" class="edge">
<title>Node3&#45;&gt;Node4</title>
<path fill="none" stroke="#191970" d="M459.0775,-49.5C467.6805,-49.5 476.4299,-49.5 484.847,-49.5"/>
<polygon fill="#191970" stroke="#191970" points="459.0744,-46.0001 449.0744,-49.5 459.0744,-53.0001 459.0744,-46.0001"/>
</g>
</g>
</svg>
