<?xml version="1.0" encoding="UTF-8" standalone="no"?>
<!DOCTYPE svg PUBLIC "-//W3C//DTD SVG 1.1//EN"
 "http://www.w3.org/Graphics/SVG/1.1/DTD/svg11.dtd">
<!-- Generated by graphviz version 2.40.1 (20161225.0304)
 -->
<!-- Title: luxjet Pages: 1 -->
<svg width="730pt" height="548pt"
 viewBox="0.00 0.00 730.00 548.00" xmlns="http://www.w3.org/2000/svg" xmlns:xlink="http://www.w3.org/1999/xlink">
<g id="graph0" class="graph" transform="scale(1 1) rotate(0) translate(4 544)">
<title>luxjet</title>
<!-- Node1 -->
<g id="node1" class="node">
<title>Node1</title>
<polygon fill="#bfbfbf" stroke="#000000" points="0,-39.5 0,-59.5 45,-59.5 45,-39.5 0,-39.5"/>
<text text-anchor="middle" x="22.5" y="-46.5" font-family="FreeSans" font-size="10.00" fill="#000000">luxjet</text>
</g>
<!-- Node2 -->
<g id="node2" class="node">
<title>Node2</title>
<g id="a_node2"><a xlink:href="../../df/dd0/luerrm_8f.html#ab2b89149ed6c532c613c12ae6c351b5d" target="_top" xlink:title="luerrm">
<polygon fill="none" stroke="#000000" points="81,-322.5 81,-342.5 130,-342.5 130,-322.5 81,-322.5"/>
<text text-anchor="middle" x="105.5" y="-329.5" font-family="FreeSans" font-size="10.00" fill="#000000">luerrm</text>
</a>
</g>
</g>
<!-- Node1&#45;&gt;Node2 -->
<g id="edge1" class="edge">
<title>Node1&#45;&gt;Node2</title>
<path fill="none" stroke="#191970" d="M25.454,-59.5721C37.5287,-100.7423 83.2659,-256.6897 99.6318,-312.4914"/>
<polygon fill="#191970" stroke="#191970" points="96.3217,-313.642 102.4946,-322.2528 103.0388,-311.672 96.3217,-313.642"/>
</g>
<!-- Node16 -->
<g id="node16" class="node">
<title>Node16</title>
<g id="a_node16"><a xlink:href="../../d5/dae/rlu_8f.html#a722544a6fb4dd0f67ceda726148484f5" target="_top" xlink:title="rlu">
<polygon fill="none" stroke="#000000" points="648.5,-59.5 648.5,-79.5 677.5,-79.5 677.5,-59.5 648.5,-59.5"/>
<text text-anchor="middle" x="663" y="-66.5" font-family="FreeSans" font-size="10.00" fill="#000000">rlu</text>
</a>
</g>
</g>
<!-- Node1&#45;&gt;Node16 -->
<g id="edge32" class="edge">
<title>Node1&#45;&gt;Node16</title>
<path fill="none" stroke="#191970" d="M45.2408,-49.5C80.4422,-49.5 150.2509,-49.5 209.5,-49.5 209.5,-49.5 209.5,-49.5 341.5,-49.5 452.4171,-49.5 584.4445,-61.5047 638.2952,-66.9129"/>
<polygon fill="#191970" stroke="#191970" points="637.976,-70.3984 648.2795,-67.9306 638.686,-63.4345 637.976,-70.3984"/>
</g>
<!-- Node24 -->
<g id="node24" class="node">
<title>Node24</title>
<g id="a_node24"><a xlink:href="../../dd/da4/ulalps_8f.html#ab97912b68e33a5152f0271fc0dbc311d" target="_top" xlink:title="ulalps">
<polygon fill="none" stroke="#000000" points="82.5,-.5 82.5,-20.5 128.5,-20.5 128.5,-.5 82.5,-.5"/>
<text text-anchor="middle" x="105.5" y="-7.5" font-family="FreeSans" font-size="10.00" fill="#000000">ulalps</text>
</a>
</g>
</g>
<!-- Node1&#45;&gt;Node24 -->
<g id="edge33" class="edge">
<title>Node1&#45;&gt;Node24</title>
<path fill="none" stroke="#191970" d="M43.8746,-39.4565C53.3624,-34.9984 64.7019,-29.6702 75.0521,-24.8068"/>
<polygon fill="#191970" stroke="#191970" points="76.6357,-27.9299 84.1979,-20.5094 73.6587,-21.5945 76.6357,-27.9299"/>
</g>
<!-- Node3 -->
<g id="node3" class="node">
<title>Node3</title>
<g id="a_node3"><a xlink:href="../../d5/d89/classValueGen1.html#a072deb230ac8bf0f6742e0484e030c52" target="_top" xlink:title="ValueGen1::i2">
<polygon fill="none" stroke="#000000" points="297.5,-429.5 297.5,-449.5 385.5,-449.5 385.5,-429.5 297.5,-429.5"/>
<text text-anchor="middle" x="341.5" y="-436.5" font-family="FreeSans" font-size="10.00" fill="#000000">ValueGen1::i2</text>
</a>
</g>
</g>
<!-- Node2&#45;&gt;Node3 -->
<g id="edge2" class="edge">
<title>Node2&#45;&gt;Node3</title>
<path fill="none" stroke="#191970" d="M125.3583,-342.5484C158.7729,-359.3127 228.5227,-393.6913 289,-419.5 293.8653,-421.5763 299.0254,-423.6704 304.1371,-425.6817"/>
<polygon fill="#191970" stroke="#191970" points="303.2276,-429.0824 313.8171,-429.4209 305.75,-422.5527 303.2276,-429.0824"/>
</g>
<!-- Node4 -->
<g id="node4" class="node">
<title>Node4</title>
<g id="a_node4"><a xlink:href="../../d7/dda/lulist_8f.html#a69a9c5efe2681d7e19be2b4ed218153e" target="_top" xlink:title="lulist">
<polygon fill="none" stroke="#000000" points="189,-273.5 189,-293.5 230,-293.5 230,-273.5 189,-273.5"/>
<text text-anchor="middle" x="209.5" y="-280.5" font-family="FreeSans" font-size="10.00" fill="#000000">lulist</text>
</a>
</g>
</g>
<!-- Node2&#45;&gt;Node4 -->
<g id="edge3" class="edge">
<title>Node2&#45;&gt;Node4</title>
<path fill="none" stroke="#191970" d="M126.7969,-322.4659C141.9981,-315.3038 162.6532,-305.5721 179.5182,-297.626"/>
<polygon fill="#191970" stroke="#191970" points="181.3859,-300.6152 188.9403,-293.1868 178.4023,-294.2828 181.3859,-300.6152"/>
</g>
<!-- Node19 -->
<g id="node19" class="node">
<title>Node19</title>
<g id="a_node19"><a xlink:href="../../d0/d5e/classPHTimer.html#adce6f9a85834e59bd154b9c624ee4e41" target="_top" xlink:title="stops the counter">
<polygon fill="none" stroke="#000000" points="166,-468.5 166,-488.5 253,-488.5 253,-468.5 166,-468.5"/>
<text text-anchor="middle" x="209.5" y="-475.5" font-family="FreeSans" font-size="10.00" fill="#000000">PHTimer::stop</text>
</a>
</g>
</g>
<!-- Node2&#45;&gt;Node19 -->
<g id="edge26" class="edge">
<title>Node2&#45;&gt;Node19</title>
<path fill="none" stroke="#191970" d="M112.6483,-342.5352C129.9406,-366.8108 174.237,-428.9962 196.4246,-460.1442"/>
<polygon fill="#191970" stroke="#191970" points="193.6491,-462.2804 202.3016,-468.3946 199.3505,-458.2191 193.6491,-462.2804"/>
</g>
<!-- Node4&#45;&gt;Node3 -->
<g id="edge5" class="edge">
<title>Node4&#45;&gt;Node3</title>
<path fill="none" stroke="#191970" d="M214.9855,-293.765C231.123,-323.8316 277.9928,-410.1742 289,-419.5 291.2325,-421.3915 293.6628,-423.1143 296.2137,-424.6821"/>
<polygon fill="#191970" stroke="#191970" points="294.7611,-427.8727 305.2402,-429.4344 298.0222,-421.6787 294.7611,-427.8727"/>
</g>
<!-- Node5 -->
<g id="node5" class="node">
<title>Node5</title>
<g id="a_node5"><a xlink:href="../../d5/d89/classValueGen1.html#a9558bbb6f1b9bfcb2631b70b720742fc" target="_top" xlink:title="ValueGen1::i1">
<polygon fill="none" stroke="#000000" points="455,-196.5 455,-216.5 543,-216.5 543,-196.5 455,-196.5"/>
<text text-anchor="middle" x="499" y="-203.5" font-family="FreeSans" font-size="10.00" fill="#000000">ValueGen1::i1</text>
</a>
</g>
</g>
<!-- Node4&#45;&gt;Node5 -->
<g id="edge4" class="edge">
<title>Node4&#45;&gt;Node5</title>
<path fill="none" stroke="#191970" d="M230.3201,-277.9623C276.2231,-265.7533 387.1233,-236.2565 451.176,-219.22"/>
<polygon fill="#191970" stroke="#191970" points="452.2724,-222.5502 461.0368,-216.5973 450.4731,-215.7854 452.2724,-222.5502"/>
</g>
<!-- Node6 -->
<g id="node6" class="node">
<title>Node6</title>
<g id="a_node6"><a xlink:href="../../d5/d89/classValueGen1.html#a0a32cfdf50e9bb9c84580912795b1e41" target="_top" xlink:title="ValueGen1::i3">
<polygon fill="none" stroke="#000000" points="297.5,-117.5 297.5,-137.5 385.5,-137.5 385.5,-117.5 297.5,-117.5"/>
<text text-anchor="middle" x="341.5" y="-124.5" font-family="FreeSans" font-size="10.00" fill="#000000">ValueGen1::i3</text>
</a>
</g>
</g>
<!-- Node4&#45;&gt;Node6 -->
<g id="edge6" class="edge">
<title>Node4&#45;&gt;Node6</title>
<path fill="none" stroke="#191970" d="M213.2977,-273.2823C222.6818,-249.2641 249.1304,-188.5319 289,-152.5 293.3663,-148.554 298.4665,-145.1087 303.7399,-142.1408"/>
<polygon fill="#191970" stroke="#191970" points="305.3538,-145.2467 312.6793,-137.5924 302.1794,-139.0078 305.3538,-145.2467"/>
</g>
<!-- Node7 -->
<g id="node7" class="node">
<title>Node7</title>
<g id="a_node7"><a xlink:href="../../d5/d89/classValueGen1.html#adac3584a4cd24abc0946b772431a39bb" target="_top" xlink:title="ValueGen1::i4">
<polygon fill="none" stroke="#000000" points="297.5,-78.5 297.5,-98.5 385.5,-98.5 385.5,-78.5 297.5,-78.5"/>
<text text-anchor="middle" x="341.5" y="-85.5" font-family="FreeSans" font-size="10.00" fill="#000000">ValueGen1::i4</text>
</a>
</g>
</g>
<!-- Node4&#45;&gt;Node7 -->
<g id="edge7" class="edge">
<title>Node4&#45;&gt;Node7</title>
<path fill="none" stroke="#191970" d="M211.2735,-273.1276C216.9356,-243.1225 237.333,-155.3328 289,-107.5 290.467,-106.1418 292.0385,-104.8792 293.6879,-103.7055"/>
<polygon fill="#191970" stroke="#191970" points="295.6159,-106.6321 302.4637,-98.5477 292.069,-100.5973 295.6159,-106.6321"/>
</g>
<!-- Node8 -->
<g id="node8" class="node">
<title>Node8</title>
<g id="a_node8"><a xlink:href="../../d5/d89/classValueGen1.html#a4d833b840495a0aee4e37d3c6bce1650" target="_top" xlink:title="ValueGen1::i5">
<polygon fill="none" stroke="#000000" points="297.5,-390.5 297.5,-410.5 385.5,-410.5 385.5,-390.5 297.5,-390.5"/>
<text text-anchor="middle" x="341.5" y="-397.5" font-family="FreeSans" font-size="10.00" fill="#000000">ValueGen1::i5</text>
</a>
</g>
</g>
<!-- Node4&#45;&gt;Node8 -->
<g id="edge8" class="edge">
<title>Node4&#45;&gt;Node8</title>
<path fill="none" stroke="#191970" d="M215.3786,-293.7705C227.03,-313.281 254.8987,-355.943 289,-380.5 291.8568,-382.5572 294.9516,-384.4319 298.1606,-386.1347"/>
<polygon fill="#191970" stroke="#191970" points="296.8653,-389.3933 307.4036,-390.4868 299.8474,-383.0602 296.8653,-389.3933"/>
</g>
<!-- Node9 -->
<g id="node9" class="node">
<title>Node9</title>
<g id="a_node9"><a xlink:href="../../d0/da8/lucomp_8f.html#af4e2c29d51aeb470efbf59be26e18d04" target="_top" xlink:title="lucomp">
<polygon fill="none" stroke="#000000" points="636,-254.5 636,-274.5 690,-274.5 690,-254.5 636,-254.5"/>
<text text-anchor="middle" x="663" y="-261.5" font-family="FreeSans" font-size="10.00" fill="#000000">lucomp</text>
</a>
</g>
</g>
<!-- Node4&#45;&gt;Node9 -->
<g id="edge9" class="edge">
<title>Node4&#45;&gt;Node9</title>
<path fill="none" stroke="#191970" d="M230.1823,-289.8548C246.0882,-294.3958 268.7057,-300.1086 289,-302.5 412.3029,-317.0297 445.5073,-308.7546 568,-288.5 587.3612,-285.2986 608.5639,-280.109 626.0171,-275.3731"/>
<polygon fill="#191970" stroke="#191970" points="627.1165,-278.7004 635.8177,-272.6556 625.246,-271.9549 627.1165,-278.7004"/>
</g>
<!-- Node10 -->
<g id="node10" class="node">
<title>Node10</title>
<g id="a_node10"><a xlink:href="../../d6/d80/luname_8f.html#a87cfaa02a00bc60d5b1ce6c2fce29432" target="_top" xlink:title="luname">
<polygon fill="none" stroke="#000000" points="314.5,-273.5 314.5,-293.5 368.5,-293.5 368.5,-273.5 314.5,-273.5"/>
<text text-anchor="middle" x="341.5" y="-280.5" font-family="FreeSans" font-size="10.00" fill="#000000">luname</text>
</a>
</g>
</g>
<!-- Node4&#45;&gt;Node10 -->
<g id="edge10" class="edge">
<title>Node4&#45;&gt;Node10</title>
<path fill="none" stroke="#191970" d="M230.125,-283.5C249.8318,-283.5 279.9994,-283.5 303.9693,-283.5"/>
<polygon fill="#191970" stroke="#191970" points="304.1495,-287.0001 314.1495,-283.5 304.1495,-280.0001 304.1495,-287.0001"/>
</g>
<!-- Node12 -->
<g id="node12" class="node">
<title>Node12</title>
<g id="a_node12"><a xlink:href="../../d0/d38/plu_8f.html#ab4b095f080a22e776f5a9cc25e23cc54" target="_top" xlink:title="plu">
<polygon fill="none" stroke="#000000" points="325.5,-195.5 325.5,-215.5 357.5,-215.5 357.5,-195.5 325.5,-195.5"/>
<text text-anchor="middle" x="341.5" y="-202.5" font-family="FreeSans" font-size="10.00" fill="#000000">plu</text>
</a>
</g>
</g>
<!-- Node4&#45;&gt;Node12 -->
<g id="edge14" class="edge">
<title>Node4&#45;&gt;Node12</title>
<path fill="none" stroke="#191970" d="M223.1892,-273.4937C238.7341,-262.3415 265.0519,-244.0915 289,-230.5 297.5479,-225.6487 307.1875,-220.8715 315.8521,-216.8137"/>
<polygon fill="#191970" stroke="#191970" points="317.4765,-219.9194 325.1102,-212.5724 314.561,-213.5554 317.4765,-219.9194"/>
</g>
<!-- Node15 -->
<g id="node15" class="node">
<title>Node15</title>
<g id="a_node15"><a xlink:href="../../d7/ded/ulmass_8f.html#aa951cb677600842104db95323a7647b2" target="_top" xlink:title="ulmass">
<polygon fill="none" stroke="#000000" points="473,-79.5 473,-99.5 525,-99.5 525,-79.5 473,-79.5"/>
<text text-anchor="middle" x="499" y="-86.5" font-family="FreeSans" font-size="10.00" fill="#000000">ulmass</text>
</a>
</g>
</g>
<!-- Node4&#45;&gt;Node15 -->
<g id="edge25" class="edge">
<title>Node4&#45;&gt;Node15</title>
<path fill="none" stroke="#191970" d="M215.1543,-273.4001C226.6188,-253.782 254.469,-210.2795 289,-185.5 329.4455,-156.4762 348.6775,-167.0936 394,-146.5 401.8044,-142.9538 443.3139,-120.2188 471.7439,-104.5561"/>
<polygon fill="#191970" stroke="#191970" points="473.7494,-107.4472 480.8163,-99.5535 470.3693,-101.3173 473.7494,-107.4472"/>
</g>
<!-- Node17 -->
<g id="node17" class="node">
<title>Node17</title>
<g id="a_node17"><a xlink:href="../../dc/d9f/hcalUtil_8C.html#af562b1ac3ac927ecde202ce0501a97a6" target="_top" xlink:title="ps">
<polygon fill="none" stroke="#000000" points="327,-351.5 327,-371.5 356,-371.5 356,-351.5 327,-351.5"/>
<text text-anchor="middle" x="341.5" y="-358.5" font-family="FreeSans" font-size="10.00" fill="#000000">ps</text>
</a>
</g>
</g>
<!-- Node4&#45;&gt;Node17 -->
<g id="edge23" class="edge">
<title>Node4&#45;&gt;Node17</title>
<path fill="none" stroke="#191970" d="M223.1892,-293.5063C238.7341,-304.6585 265.0519,-322.9085 289,-336.5 298.1557,-341.6962 308.5637,-346.8074 317.6846,-351.0406"/>
<polygon fill="#191970" stroke="#191970" points="316.4041,-354.3031 326.9564,-355.252 319.299,-347.9297 316.4041,-354.3031"/>
</g>
<!-- Node10&#45;&gt;Node9 -->
<g id="edge13" class="edge">
<title>Node10&#45;&gt;Node9</title>
<path fill="none" stroke="#191970" d="M368.6338,-281.8964C425.9947,-278.5065 559.6729,-270.6064 625.2957,-266.7282"/>
<polygon fill="#191970" stroke="#191970" points="625.8217,-270.2034 635.5978,-266.1194 625.4087,-263.2156 625.8217,-270.2034"/>
</g>
<!-- Node11 -->
<g id="node11" class="node">
<title>Node11</title>
<g id="a_node11"><a xlink:href="../../df/d5f/luchge_8f.html#a86938fb3242850e133e3b60d256582b7" target="_top" xlink:title="luchge">
<polygon fill="none" stroke="#000000" points="474,-235.5 474,-255.5 524,-255.5 524,-235.5 474,-235.5"/>
<text text-anchor="middle" x="499" y="-242.5" font-family="FreeSans" font-size="10.00" fill="#000000">luchge</text>
</a>
</g>
</g>
<!-- Node10&#45;&gt;Node11 -->
<g id="edge11" class="edge">
<title>Node10&#45;&gt;Node11</title>
<path fill="none" stroke="#191970" d="M368.5752,-276.9676C394.8949,-270.6174 435.0025,-260.9407 463.7897,-253.9952"/>
<polygon fill="#191970" stroke="#191970" points="464.9366,-257.319 473.8368,-251.5711 463.2948,-250.5142 464.9366,-257.319"/>
</g>
<!-- Node11&#45;&gt;Node9 -->
<g id="edge12" class="edge">
<title>Node11&#45;&gt;Node9</title>
<path fill="none" stroke="#191970" d="M524.2656,-248.4271C551.3891,-251.5695 594.7565,-256.5937 625.7842,-260.1884"/>
<polygon fill="#191970" stroke="#191970" points="625.4558,-263.6737 635.7922,-261.3479 626.2615,-256.7202 625.4558,-263.6737"/>
</g>
<!-- Node12&#45;&gt;Node5 -->
<g id="edge15" class="edge">
<title>Node12&#45;&gt;Node5</title>
<path fill="none" stroke="#191970" d="M357.762,-205.6033C378.1693,-205.7328 414.2016,-205.9616 444.7629,-206.1556"/>
<polygon fill="#191970" stroke="#191970" points="444.8649,-209.6563 454.8869,-206.2199 444.9094,-202.6564 444.8649,-209.6563"/>
</g>
<!-- Node12&#45;&gt;Node11 -->
<g id="edge16" class="edge">
<title>Node12&#45;&gt;Node11</title>
<path fill="none" stroke="#191970" d="M357.762,-209.63C382.6916,-215.9614 430.9386,-228.2146 464.0448,-236.6225"/>
<polygon fill="#191970" stroke="#191970" points="463.2366,-240.0283 473.7904,-239.0976 464.9597,-233.2436 463.2366,-240.0283"/>
</g>
<!-- Node13 -->
<g id="node13" class="node">
<title>Node13</title>
<g id="a_node13"><a xlink:href="../../d2/da8/ulangl_8f.html#a13a8d5a72aa20b0ae2ceca14e31467ba" target="_top" xlink:title="ulangl">
<polygon fill="none" stroke="#000000" points="475.5,-157.5 475.5,-177.5 522.5,-177.5 522.5,-157.5 475.5,-157.5"/>
<text text-anchor="middle" x="499" y="-164.5" font-family="FreeSans" font-size="10.00" fill="#000000">ulangl</text>
</a>
</g>
</g>
<!-- Node12&#45;&gt;Node13 -->
<g id="edge17" class="edge">
<title>Node12&#45;&gt;Node13</title>
<path fill="none" stroke="#191970" d="M357.762,-201.5765C383.0097,-195.485 432.1736,-183.6232 465.3045,-175.6297"/>
<polygon fill="#191970" stroke="#191970" points="466.5471,-178.9304 475.4473,-173.1826 464.9053,-172.1257 466.5471,-178.9304"/>
</g>
<!-- Node14 -->
<g id="node14" class="node">
<title>Node14</title>
<g id="a_node14"><a xlink:href="../../da/d0a/CylinderKalman_8cpp.html#ab74daa0c9784c63e060bfb98cc06fbf5" target="_top" xlink:title="sign">
<polygon fill="none" stroke="#000000" points="644.5,-137.5 644.5,-157.5 681.5,-157.5 681.5,-137.5 644.5,-137.5"/>
<text text-anchor="middle" x="663" y="-144.5" font-family="FreeSans" font-size="10.00" fill="#000000">sign</text>
</a>
</g>
</g>
<!-- Node12&#45;&gt;Node14 -->
<g id="edge22" class="edge">
<title>Node12&#45;&gt;Node14</title>
<path fill="none" stroke="#191970" d="M357.7881,-199.2294C368.5106,-194.7508 382.616,-188.1748 394,-180.5 411.9971,-168.3668 409.7714,-155.3686 430,-147.5 499.2798,-120.5513 589.1599,-132.2924 634.3652,-141.0636"/>
<polygon fill="#191970" stroke="#191970" points="633.8451,-144.5294 644.3423,-143.0944 635.2413,-137.6701 633.8451,-144.5294"/>
</g>
<!-- Node12&#45;&gt;Node15 -->
<g id="edge19" class="edge">
<title>Node12&#45;&gt;Node15</title>
<path fill="none" stroke="#191970" d="M357.7469,-200.7371C368.9966,-196.7815 383.7356,-190.2156 394,-180.5 418.2666,-157.531 404.6504,-136.2679 430,-114.5 439.3454,-106.475 451.4731,-100.9458 462.9488,-97.1718"/>
<polygon fill="#191970" stroke="#191970" points="464.1686,-100.4616 472.7793,-94.2885 462.1985,-93.7445 464.1686,-100.4616"/>
</g>
<!-- Node13&#45;&gt;Node14 -->
<g id="edge18" class="edge">
<title>Node13&#45;&gt;Node14</title>
<path fill="none" stroke="#191970" d="M522.847,-164.5918C552.3787,-160.9904 602.6429,-154.8606 634.2693,-151.0037"/>
<polygon fill="#191970" stroke="#191970" points="634.7206,-154.4747 644.2233,-149.7898 633.8732,-147.5262 634.7206,-154.4747"/>
</g>
<!-- Node15&#45;&gt;Node9 -->
<g id="edge20" class="edge">
<title>Node15&#45;&gt;Node9</title>
<path fill="none" stroke="#191970" d="M512.6221,-99.7003C527.0336,-110.7703 550.1171,-129.3104 568,-147.5 599.8806,-179.9274 632.2594,-222.2503 649.7662,-246.0869"/>
<polygon fill="#191970" stroke="#191970" points="647.0001,-248.2341 655.7156,-254.2582 652.659,-244.1139 647.0001,-248.2341"/>
</g>
<!-- Node15&#45;&gt;Node16 -->
<g id="edge21" class="edge">
<title>Node15&#45;&gt;Node16</title>
<path fill="none" stroke="#191970" d="M525.3494,-86.2867C556.4771,-82.4906 607.8622,-76.2241 638.2675,-72.5162"/>
<polygon fill="#191970" stroke="#191970" points="638.9411,-75.96 648.4438,-71.2751 638.0937,-69.0115 638.9411,-75.96"/>
</g>
<!-- Node18 -->
<g id="node18" class="node">
<title>Node18</title>
<g id="a_node18"><a xlink:href="../../da/d55/TPCRateLayered_8m.html#a7507ef556477c204b499f1e189d40796" target="_top" xlink:title="sum">
<polygon fill="none" stroke="#000000" points="480,-351.5 480,-371.5 518,-371.5 518,-351.5 480,-351.5"/>
<text text-anchor="middle" x="499" y="-358.5" font-family="FreeSans" font-size="10.00" fill="#000000">sum</text>
</a>
</g>
</g>
<!-- Node17&#45;&gt;Node18 -->
<g id="edge24" class="edge">
<title>Node17&#45;&gt;Node18</title>
<path fill="none" stroke="#191970" d="M356.0349,-361.5C381.8036,-361.5 435.9563,-361.5 469.7198,-361.5"/>
<polygon fill="#191970" stroke="#191970" points="469.9038,-365.0001 479.9038,-361.5 469.9038,-358.0001 469.9038,-365.0001"/>
</g>
<!-- Node20 -->
<g id="node20" class="node">
<title>Node20</title>
<g id="a_node20"><a xlink:href="../../d0/d5e/classPHTimer.html#aa92e3fe4a0a1799f39743eda9ef9d497" target="_top" xlink:title="gets time from cpu clock counts">
<polygon fill="none" stroke="#000000" points="442.5,-462.5 442.5,-494.5 555.5,-494.5 555.5,-462.5 442.5,-462.5"/>
<text text-anchor="start" x="450.5" y="-481.5" font-family="FreeSans" font-size="10.00" fill="#000000">PHTimer::get_clock</text>
<text text-anchor="middle" x="499" y="-469.5" font-family="FreeSans" font-size="10.00" fill="#000000">_counts</text>
</a>
</g>
</g>
<!-- Node19&#45;&gt;Node20 -->
<g id="edge27" class="edge">
<title>Node19&#45;&gt;Node20</title>
<path fill="none" stroke="#191970" d="M253.1545,-478.5C300.665,-478.5 377.1979,-478.5 432.258,-478.5"/>
<polygon fill="#191970" stroke="#191970" points="432.2772,-482.0001 442.2772,-478.5 432.2772,-475.0001 432.2772,-482.0001"/>
</g>
<!-- Node21 -->
<g id="node21" class="node">
<title>Node21</title>
<g id="a_node21"><a xlink:href="../../d0/d5e/classPHTimer.html#a976738876ad978116fdc4549a3765685" target="_top" xlink:title="retrieve elapsed value since last restart (in ms)">
<polygon fill="none" stroke="#000000" points="289,-507.5 289,-527.5 394,-527.5 394,-507.5 289,-507.5"/>
<text text-anchor="middle" x="341.5" y="-514.5" font-family="FreeSans" font-size="10.00" fill="#000000">PHTimer::elapsed</text>
</a>
</g>
</g>
<!-- Node19&#45;&gt;Node21 -->
<g id="edge28" class="edge">
<title>Node19&#45;&gt;Node21</title>
<path fill="none" stroke="#191970" d="M243.4933,-488.5435C259.968,-493.411 279.9535,-499.3158 297.5687,-504.5203"/>
<polygon fill="#191970" stroke="#191970" points="297.04,-508.0136 307.6219,-507.4906 299.0235,-501.3005 297.04,-508.0136"/>
</g>
<!-- Node21&#45;&gt;Node20 -->
<g id="edge31" class="edge">
<title>Node21&#45;&gt;Node20</title>
<path fill="none" stroke="#191970" d="M382.0602,-507.4565C397.3746,-503.6644 415.2315,-499.2427 432.3129,-495.013"/>
<polygon fill="#191970" stroke="#191970" points="433.3898,-498.3521 442.2554,-492.551 431.7073,-491.5573 433.3898,-498.3521"/>
</g>
<!-- Node22 -->
<g id="node22" class="node">
<title>Node22</title>
<g id="a_node22"><a xlink:href="../../d0/d5e/classPHTimer.html#aa75ff2c27aba40e7ef0a934f9a3355c2" target="_top" xlink:title="returns difference between to time">
<polygon fill="none" stroke="#000000" points="430,-513.5 430,-533.5 568,-533.5 568,-513.5 430,-513.5"/>
<text text-anchor="middle" x="499" y="-520.5" font-family="FreeSans" font-size="10.00" fill="#000000">PHTimer::get_difference</text>
</a>
</g>
</g>
<!-- Node21&#45;&gt;Node22 -->
<g id="edge29" class="edge">
<title>Node21&#45;&gt;Node22</title>
<path fill="none" stroke="#191970" d="M394.3834,-519.5146C402.5408,-519.8254 411.1148,-520.152 419.6976,-520.479"/>
<polygon fill="#191970" stroke="#191970" points="419.6266,-523.9787 429.7526,-520.862 419.8931,-516.9838 419.6266,-523.9787"/>
</g>
<!-- Node23 -->
<g id="node23" class="node">
<title>Node23</title>
<g id="a_node23"><a xlink:href="../../d2/db1/classPHTimer_1_1Frequency.html#a023a2d706df9a8bd303810a9ed017f61" target="_top" xlink:title="period accessor">
<polygon fill="none" stroke="#000000" points="604,-507.5 604,-539.5 722,-539.5 722,-507.5 604,-507.5"/>
<text text-anchor="start" x="612" y="-526.5" font-family="FreeSans" font-size="10.00" fill="#000000">PHTimer::Frequency</text>
<text text-anchor="middle" x="663" y="-514.5" font-family="FreeSans" font-size="10.00" fill="#000000">::period</text>
</a>
</g>
</g>
<!-- Node22&#45;&gt;Node23 -->
<g id="edge30" class="edge">
<title>Node22&#45;&gt;Node23</title>
<path fill="none" stroke="#191970" d="M568.0754,-523.5C576.5394,-523.5 585.1918,-523.5 593.6596,-523.5"/>
<polygon fill="#191970" stroke="#191970" points="593.8719,-527.0001 603.8719,-523.5 593.8719,-520.0001 593.8719,-527.0001"/>
</g>
</g>
</svg>
