<?xml version="1.0" encoding="UTF-8" standalone="no"?>
<!DOCTYPE svg PUBLIC "-//W3C//DTD SVG 1.1//EN"
 "http://www.w3.org/Graphics/SVG/1.1/DTD/svg11.dtd">
<!-- Generated by graphviz version 2.40.1 (20161225.0304)
 -->
<!-- Title: PHActsTrkFitter::doTimeAnalysis Pages: 1 -->
<svg width="486pt" height="233pt"
 viewBox="0.00 0.00 486.00 233.00" xmlns="http://www.w3.org/2000/svg" xmlns:xlink="http://www.w3.org/1999/xlink">
<g id="graph0" class="graph" transform="scale(1 1) rotate(0) translate(4 229)">
<title>PHActsTrkFitter::doTimeAnalysis</title>
<!-- Node1 -->
<g id="node1" class="node">
<title>Node1</title>
<polygon fill="#bfbfbf" stroke="#000000" points="0,-96.5 0,-116.5 178,-116.5 178,-96.5 0,-96.5"/>
<text text-anchor="middle" x="89" y="-103.5" font-family="FreeSans" font-size="10.00" fill="#000000">PHActsTrkFitter::doTimeAnalysis</text>
</g>
<!-- Node2 -->
<g id="node2" class="node">
<title>Node2</title>
<g id="a_node2"><a xlink:href="../../d6/d98/analysis_2blob_2master_2HF-Particle_2KFParticle__sPHENIX_2ACTS__tracking_2G4__Tracking_8C.html#aa4a8fbf7fb6b81c8284e7f8029636428" target="_top" xlink:title="Tracking_Reco">
<polygon fill="none" stroke="#000000" points="214,-96.5 214,-116.5 303,-116.5 303,-96.5 214,-96.5"/>
<text text-anchor="middle" x="258.5" y="-103.5" font-family="FreeSans" font-size="10.00" fill="#000000">Tracking_Reco</text>
</a>
</g>
</g>
<!-- Node1&#45;&gt;Node2 -->
<g id="edge1" class="edge">
<title>Node1&#45;&gt;Node2</title>
<path fill="none" stroke="#191970" d="M188.2434,-106.5C197.0612,-106.5 205.6632,-106.5 213.6523,-106.5"/>
<polygon fill="#191970" stroke="#191970" points="188.2174,-103.0001 178.2174,-106.5 188.2174,-110.0001 188.2174,-103.0001"/>
</g>
<!-- Node3 -->
<g id="node3" class="node">
<title>Node3</title>
<g id="a_node3"><a xlink:href="../../d4/de9/Fun4All__AnaTutorial__sPHENIX_8C.html#a5028836c74f0bebec560d3ab54daa022" target="_top" xlink:title="Fun4All_AnaTutorial\l_sPHENIX">
<polygon fill="none" stroke="#000000" points="351,-192.5 351,-224.5 466,-224.5 466,-192.5 351,-192.5"/>
<text text-anchor="start" x="359" y="-211.5" font-family="FreeSans" font-size="10.00" fill="#000000">Fun4All_AnaTutorial</text>
<text text-anchor="middle" x="408.5" y="-199.5" font-family="FreeSans" font-size="10.00" fill="#000000">_sPHENIX</text>
</a>
</g>
</g>
<!-- Node2&#45;&gt;Node3 -->
<g id="edge2" class="edge">
<title>Node2&#45;&gt;Node3</title>
<path fill="none" stroke="#191970" d="M273.1565,-124.3217C288.137,-141.5375 312.8557,-167.3179 339,-183.5 344.3426,-186.8068 350.1862,-189.7637 356.1433,-192.3834"/>
<polygon fill="#191970" stroke="#191970" points="275.7662,-121.9877 266.6212,-116.6379 270.434,-126.5229 275.7662,-121.9877"/>
</g>
<!-- Node4 -->
<g id="node4" class="node">
<title>Node4</title>
<g id="a_node4"><a xlink:href="../../d6/d14/Fun4All__AnaTutorial__sPHENIX__Jets_8C.html#a61b352bca84476d24b0ff40991b27900" target="_top" xlink:title="Fun4All_AnaTutorial\l_sPHENIX_Jets">
<polygon fill="none" stroke="#000000" points="351,-141.5 351,-173.5 466,-173.5 466,-141.5 351,-141.5"/>
<text text-anchor="start" x="359" y="-160.5" font-family="FreeSans" font-size="10.00" fill="#000000">Fun4All_AnaTutorial</text>
<text text-anchor="middle" x="408.5" y="-148.5" font-family="FreeSans" font-size="10.00" fill="#000000">_sPHENIX_Jets</text>
</a>
</g>
</g>
<!-- Node2&#45;&gt;Node4 -->
<g id="edge3" class="edge">
<title>Node2&#45;&gt;Node4</title>
<path fill="none" stroke="#191970" d="M297.8679,-119.8851C317.2767,-126.4841 340.8331,-134.4933 361.2128,-141.4223"/>
<polygon fill="#191970" stroke="#191970" points="298.7296,-116.4813 288.1352,-116.576 296.4762,-123.1088 298.7296,-116.4813"/>
</g>
<!-- Node5 -->
<g id="node5" class="node">
<title>Node5</title>
<g id="a_node5"><a xlink:href="../../df/dd8/Fun4All__G4__EICDetector__AnaTutorial_8C.html#a598434aca3dac5cdb0ca67ccc548d865" target="_top" xlink:title="Fun4All_G4_EICDetector\l_AnaTutorial">
<polygon fill="none" stroke="#000000" points="339,-90.5 339,-122.5 478,-122.5 478,-90.5 339,-90.5"/>
<text text-anchor="start" x="347" y="-109.5" font-family="FreeSans" font-size="10.00" fill="#000000">Fun4All_G4_EICDetector</text>
<text text-anchor="middle" x="408.5" y="-97.5" font-family="FreeSans" font-size="10.00" fill="#000000">_AnaTutorial</text>
</a>
</g>
</g>
<!-- Node2&#45;&gt;Node5 -->
<g id="edge4" class="edge">
<title>Node2&#45;&gt;Node5</title>
<path fill="none" stroke="#191970" d="M313.3534,-106.5C321.6246,-106.5 330.2489,-106.5 338.7816,-106.5"/>
<polygon fill="#191970" stroke="#191970" points="313.0989,-103.0001 303.0988,-106.5 313.0988,-110.0001 313.0989,-103.0001"/>
</g>
<!-- Node6 -->
<g id="node6" class="node">
<title>Node6</title>
<g id="a_node6"><a xlink:href="../../d1/d19/macros_2blob_2master_2detectors_2sPHENIX_2Fun4All__G4__sPHENIX_8C.html#a4102cd3e195333de974409428a2e6dae" target="_top" xlink:title="Fun4All_G4_sPHENIX">
<polygon fill="none" stroke="#000000" points="348,-51.5 348,-71.5 469,-71.5 469,-51.5 348,-51.5"/>
<text text-anchor="middle" x="408.5" y="-58.5" font-family="FreeSans" font-size="10.00" fill="#000000">Fun4All_G4_sPHENIX</text>
</a>
</g>
</g>
<!-- Node2&#45;&gt;Node6 -->
<g id="edge5" class="edge">
<title>Node2&#45;&gt;Node6</title>
<path fill="none" stroke="#191970" d="M299.9225,-93.4541C312.4602,-89.5544 326.2777,-85.3056 339,-81.5 350.0667,-78.1896 362.1551,-74.6756 373.1017,-71.5318"/>
<polygon fill="#191970" stroke="#191970" points="298.6909,-90.1719 290.1872,-96.4915 300.7758,-96.8542 298.6909,-90.1719"/>
</g>
<!-- Node7 -->
<g id="node7" class="node">
<title>Node7</title>
<g id="a_node7"><a xlink:href="../../d8/db2/Fun4All__KFParticle__advanced_8C.html#a491c6a8ad8c4fccf0642c04171d5f856" target="_top" xlink:title="Fun4All_KFParticle\l_advanced">
<polygon fill="none" stroke="#000000" points="354.5,-.5 354.5,-32.5 462.5,-32.5 462.5,-.5 354.5,-.5"/>
<text text-anchor="start" x="362.5" y="-19.5" font-family="FreeSans" font-size="10.00" fill="#000000">Fun4All_KFParticle</text>
<text text-anchor="middle" x="408.5" y="-7.5" font-family="FreeSans" font-size="10.00" fill="#000000">_advanced</text>
</a>
</g>
</g>
<!-- Node2&#45;&gt;Node7 -->
<g id="edge6" class="edge">
<title>Node2&#45;&gt;Node7</title>
<path fill="none" stroke="#191970" d="M276.5249,-89.4163C292.0985,-75.3604 315.7096,-55.6762 339,-42.5 345.3912,-38.8843 352.3819,-35.5897 359.3882,-32.6525"/>
<polygon fill="#191970" stroke="#191970" points="274.1507,-86.8447 269.1579,-96.1893 278.8884,-91.9978 274.1507,-86.8447"/>
</g>
</g>
</svg>
