<?xml version="1.0" encoding="UTF-8" standalone="no"?>
<!DOCTYPE svg PUBLIC "-//W3C//DTD SVG 1.1//EN"
 "http://www.w3.org/Graphics/SVG/1.1/DTD/svg11.dtd">
<!-- Generated by graphviz version 2.40.1 (20161225.0304)
 -->
<!-- Title: G4Pythia6Decayer::G4Pythia6Decayer Pages: 1 -->
<svg width="1558pt" height="419pt"
 viewBox="0.00 0.00 1558.00 419.29" xmlns="http://www.w3.org/2000/svg" xmlns:xlink="http://www.w3.org/1999/xlink">
<g id="graph0" class="graph" transform="scale(1 1) rotate(0) translate(4 415.2917)">
<title>G4Pythia6Decayer::G4Pythia6Decayer</title>
<!-- Node1 -->
<g id="node1" class="node">
<title>Node1</title>
<polygon fill="#bfbfbf" stroke="#000000" points="0,-188.7917 0,-220.7917 169,-220.7917 169,-188.7917 0,-188.7917"/>
<text text-anchor="start" x="8" y="-207.7917" font-family="FreeSans" font-size="10.00" fill="#000000">G4Pythia6Decayer::G4Pythia6</text>
<text text-anchor="middle" x="84.5" y="-195.7917" font-family="FreeSans" font-size="10.00" fill="#000000">Decayer</text>
</g>
<!-- Node2 -->
<g id="node2" class="node">
<title>Node2</title>
<g id="a_node2"><a xlink:href="../../d8/d46/classG4Pythia6Decayer.html#a275808d1bb8f7f3573a88607eb1797a9" target="_top" xlink:title="G4Pythia6Decayer::ForceDecay">
<polygon fill="none" stroke="#000000" points="205,-194.7917 205,-214.7917 381,-214.7917 381,-194.7917 205,-194.7917"/>
<text text-anchor="middle" x="293" y="-201.7917" font-family="FreeSans" font-size="10.00" fill="#000000">G4Pythia6Decayer::ForceDecay</text>
</a>
</g>
</g>
<!-- Node1&#45;&gt;Node2 -->
<g id="edge1" class="edge">
<title>Node1&#45;&gt;Node2</title>
<path fill="none" stroke="#191970" d="M169.0044,-204.7917C177.5234,-204.7917 186.2251,-204.7917 194.8705,-204.7917"/>
<polygon fill="#191970" stroke="#191970" points="194.9792,-208.2918 204.9792,-204.7917 194.9791,-201.2918 194.9792,-208.2918"/>
</g>
<!-- Node3 -->
<g id="node3" class="node">
<title>Node3</title>
<g id="a_node3"><a xlink:href="../../d8/d25/classPythia6.html#a2d69c1109df9b9a45134c793c312c223" target="_top" xlink:title="Pythia6::Instance">
<polygon fill="none" stroke="#000000" points="1093,-156.7917 1093,-176.7917 1197,-176.7917 1197,-156.7917 1093,-156.7917"/>
<text text-anchor="middle" x="1145" y="-163.7917" font-family="FreeSans" font-size="10.00" fill="#000000">Pythia6::Instance</text>
</a>
</g>
</g>
<!-- Node2&#45;&gt;Node3 -->
<g id="edge2" class="edge">
<title>Node2&#45;&gt;Node3</title>
<path fill="none" stroke="#191970" d="M309.6352,-194.6105C359.1565,-164.9603 510.8361,-78.8752 650,-48.7917 826.8098,-10.5703 895.8028,36.2938 1057,-45.7917 1098.8486,-67.1021 1125.479,-118.6635 1137.5136,-147.118"/>
<polygon fill="#191970" stroke="#191970" points="1134.2959,-148.4972 1141.2882,-156.457 1140.7859,-145.8741 1134.2959,-148.4972"/>
</g>
<!-- Node6 -->
<g id="node6" class="node">
<title>Node6</title>
<g id="a_node6"><a xlink:href="../../d8/d25/classPythia6.html#a978742e560ffcd1be5745cc4ea67525a" target="_top" xlink:title="Pythia6::SetMSTJ">
<polygon fill="none" stroke="#000000" points="465,-233.7917 465,-253.7917 566,-253.7917 566,-233.7917 465,-233.7917"/>
<text text-anchor="middle" x="515.5" y="-240.7917" font-family="FreeSans" font-size="10.00" fill="#000000">Pythia6::SetMSTJ</text>
</a>
</g>
</g>
<!-- Node2&#45;&gt;Node6 -->
<g id="edge5" class="edge">
<title>Node2&#45;&gt;Node6</title>
<path fill="none" stroke="#191970" d="M350.2993,-214.8352C382.3887,-220.4599 422.3799,-227.4696 454.9774,-233.1833"/>
<polygon fill="#191970" stroke="#191970" points="454.3854,-236.6328 464.8395,-234.9119 455.594,-229.7379 454.3854,-236.6328"/>
</g>
<!-- Node7 -->
<g id="node7" class="node">
<title>Node7</title>
<g id="a_node7"><a xlink:href="../../d8/d46/classG4Pythia6Decayer.html#a811d49ed4865ad3b9001c7770104d08b" target="_top" xlink:title="G4Pythia6Decayer::ForceParticle\lDecay">
<polygon fill="none" stroke="#000000" points="650,-309.7917 650,-341.7917 831,-341.7917 831,-309.7917 650,-309.7917"/>
<text text-anchor="start" x="658" y="-328.7917" font-family="FreeSans" font-size="10.00" fill="#000000">G4Pythia6Decayer::ForceParticle</text>
<text text-anchor="middle" x="740.5" y="-316.7917" font-family="FreeSans" font-size="10.00" fill="#000000">Decay</text>
</a>
</g>
</g>
<!-- Node2&#45;&gt;Node7 -->
<g id="edge6" class="edge">
<title>Node2&#45;&gt;Node7</title>
<path fill="none" stroke="#191970" d="M310.4792,-214.8712C333.9666,-227.998 377.3545,-250.7973 417,-263.7917 489.7297,-287.6301 574.8345,-303.4891 639.4953,-313.1964"/>
<polygon fill="#191970" stroke="#191970" points="639.2885,-316.7037 649.6924,-314.7018 640.3109,-309.7787 639.2885,-316.7037"/>
</g>
<!-- Node16 -->
<g id="node16" class="node">
<title>Node16</title>
<g id="a_node16"><a xlink:href="../../d8/d46/classG4Pythia6Decayer.html#a6f1f6c3050d58e4ff10422cf99dced0b" target="_top" xlink:title="G4Pythia6Decayer::ForceHadronicD">
<polygon fill="none" stroke="#000000" points="417,-194.7917 417,-214.7917 614,-214.7917 614,-194.7917 417,-194.7917"/>
<text text-anchor="middle" x="515.5" y="-201.7917" font-family="FreeSans" font-size="10.00" fill="#000000">G4Pythia6Decayer::ForceHadronicD</text>
</a>
</g>
</g>
<!-- Node2&#45;&gt;Node16 -->
<g id="edge17" class="edge">
<title>Node2&#45;&gt;Node16</title>
<path fill="none" stroke="#191970" d="M381.2575,-204.7917C389.5382,-204.7917 397.9966,-204.7917 406.4383,-204.7917"/>
<polygon fill="#191970" stroke="#191970" points="406.7138,-208.2918 416.7138,-204.7917 406.7138,-201.2918 406.7138,-208.2918"/>
</g>
<!-- Node18 -->
<g id="node18" class="node">
<title>Node18</title>
<g id="a_node18"><a xlink:href="../../d8/d46/classG4Pythia6Decayer.html#aaf4e00bbb581e2a9ccf2771f163a77b9" target="_top" xlink:title="G4Pythia6Decayer::ForceOmega">
<polygon fill="none" stroke="#000000" points="650.5,-155.7917 650.5,-175.7917 830.5,-175.7917 830.5,-155.7917 650.5,-155.7917"/>
<text text-anchor="middle" x="740.5" y="-162.7917" font-family="FreeSans" font-size="10.00" fill="#000000">G4Pythia6Decayer::ForceOmega</text>
</a>
</g>
</g>
<!-- Node2&#45;&gt;Node18 -->
<g id="edge26" class="edge">
<title>Node2&#45;&gt;Node18</title>
<path fill="none" stroke="#191970" d="M347.4686,-194.7839C369.0527,-191.1387 394.1319,-187.301 417,-184.7917 491.5836,-176.6079 576.2544,-171.7944 640.2605,-169.0607"/>
<polygon fill="#191970" stroke="#191970" points="640.5056,-172.5536 650.351,-168.6396 640.2137,-165.5597 640.5056,-172.5536"/>
</g>
<!-- Node4 -->
<g id="node4" class="node">
<title>Node4</title>
<g id="a_node4"><a xlink:href="../../d8/d25/classPythia6.html#a7907092070bb53cee29bb34c9d7f2b0a" target="_top" xlink:title="Pythia6::Pythia6">
<polygon fill="none" stroke="#000000" points="1250,-156.7917 1250,-176.7917 1348,-176.7917 1348,-156.7917 1250,-156.7917"/>
<text text-anchor="middle" x="1299" y="-163.7917" font-family="FreeSans" font-size="10.00" fill="#000000">Pythia6::Pythia6</text>
</a>
</g>
</g>
<!-- Node3&#45;&gt;Node4 -->
<g id="edge3" class="edge">
<title>Node3&#45;&gt;Node4</title>
<path fill="none" stroke="#191970" d="M1197.1374,-166.7917C1210.8295,-166.7917 1225.6966,-166.7917 1239.7325,-166.7917"/>
<polygon fill="#191970" stroke="#191970" points="1239.7772,-170.2918 1249.7772,-166.7917 1239.7771,-163.2918 1239.7772,-170.2918"/>
</g>
<!-- Node5 -->
<g id="node5" class="node">
<title>Node5</title>
<g id="a_node5"><a xlink:href="../../d8/de1/Pythia6_8cc.html#a77d0b9d64ec0087e94c426a01cf59645" target="_top" xlink:title="pythia6_common_address">
<polygon fill="none" stroke="#000000" points="1401,-156.7917 1401,-176.7917 1550,-176.7917 1550,-156.7917 1401,-156.7917"/>
<text text-anchor="middle" x="1475.5" y="-163.7917" font-family="FreeSans" font-size="10.00" fill="#000000">pythia6_common_address</text>
</a>
</g>
</g>
<!-- Node4&#45;&gt;Node5 -->
<g id="edge4" class="edge">
<title>Node4&#45;&gt;Node5</title>
<path fill="none" stroke="#191970" d="M1348.1651,-166.7917C1361.4253,-166.7917 1376.1609,-166.7917 1390.7678,-166.7917"/>
<polygon fill="#191970" stroke="#191970" points="1390.84,-170.2918 1400.84,-166.7917 1390.84,-163.2918 1390.84,-170.2918"/>
</g>
<!-- Node7&#45;&gt;Node3 -->
<g id="edge7" class="edge">
<title>Node7&#45;&gt;Node3</title>
<path fill="none" stroke="#191970" d="M781.3468,-341.792C845.3903,-364.0385 970.9887,-395.9496 1057,-342.7917 1113.0723,-308.1372 1134.6113,-225.7371 1141.8195,-187.2526"/>
<polygon fill="#191970" stroke="#191970" points="1145.2978,-187.6782 1143.5546,-177.2278 1138.4003,-186.4844 1145.2978,-187.6782"/>
</g>
<!-- Node8 -->
<g id="node8" class="node">
<title>Node8</title>
<g id="a_node8"><a xlink:href="../../d8/d25/classPythia6.html#a8de9bc23893ff2dea3bc59bc2b50f973" target="_top" xlink:title="Pythia6::Pycomp">
<polygon fill="none" stroke="#000000" points="911.5,-234.7917 911.5,-254.7917 1012.5,-254.7917 1012.5,-234.7917 911.5,-234.7917"/>
<text text-anchor="middle" x="962" y="-241.7917" font-family="FreeSans" font-size="10.00" fill="#000000">Pythia6::Pycomp</text>
</a>
</g>
</g>
<!-- Node7&#45;&gt;Node8 -->
<g id="edge8" class="edge">
<title>Node7&#45;&gt;Node8</title>
<path fill="none" stroke="#191970" d="M768.8008,-309.6876C793.9015,-296.0087 831.9202,-276.745 867,-264.7917 877.8586,-261.0917 889.6584,-257.9454 901.1315,-255.3199"/>
<polygon fill="#191970" stroke="#191970" points="902.0736,-258.6968 911.0979,-253.1459 900.5817,-251.8576 902.0736,-258.6968"/>
</g>
<!-- Node9 -->
<g id="node9" class="node">
<title>Node9</title>
<g id="a_node9"><a xlink:href="../../d8/d25/classPythia6.html#a1c309e0807535318aaecfae4985889e4" target="_top" xlink:title="Pythia6::SetMDCY">
<polygon fill="none" stroke="#000000" points="908.5,-195.7917 908.5,-215.7917 1015.5,-215.7917 1015.5,-195.7917 908.5,-195.7917"/>
<text text-anchor="middle" x="962" y="-202.7917" font-family="FreeSans" font-size="10.00" fill="#000000">Pythia6::SetMDCY</text>
</a>
</g>
</g>
<!-- Node7&#45;&gt;Node9 -->
<g id="edge9" class="edge">
<title>Node7&#45;&gt;Node9</title>
<path fill="none" stroke="#191970" d="M756.0076,-309.4873C778.3456,-287.0226 821.8771,-246.9363 867,-225.7917 876.8154,-221.1923 887.6947,-217.6415 898.484,-214.9028"/>
<polygon fill="#191970" stroke="#191970" points="899.3884,-218.286 908.3341,-212.6093 897.8009,-211.4683 899.3884,-218.286"/>
</g>
<!-- Node10 -->
<g id="node10" class="node">
<title>Node10</title>
<g id="a_node10"><a xlink:href="../../d8/d25/classPythia6.html#a3ad80d4c2d9891bc2a82d717c2a76e26" target="_top" xlink:title="Pythia6::GetMDCY">
<polygon fill="none" stroke="#000000" points="907.5,-117.7917 907.5,-137.7917 1016.5,-137.7917 1016.5,-117.7917 907.5,-117.7917"/>
<text text-anchor="middle" x="962" y="-124.7917" font-family="FreeSans" font-size="10.00" fill="#000000">Pythia6::GetMDCY</text>
</a>
</g>
</g>
<!-- Node7&#45;&gt;Node10 -->
<g id="edge10" class="edge">
<title>Node7&#45;&gt;Node10</title>
<path fill="none" stroke="#191970" d="M752.4981,-309.7241C773.588,-282.1724 819.5841,-225.0909 867,-185.7917 887.4573,-168.8363 913.3452,-153.3625 932.9284,-142.6702"/>
<polygon fill="#191970" stroke="#191970" points="934.8215,-145.6267 941.9841,-137.8197 931.5164,-139.4561 934.8215,-145.6267"/>
</g>
<!-- Node11 -->
<g id="node11" class="node">
<title>Node11</title>
<g id="a_node11"><a xlink:href="../../d9/d9e/evDisplay_8C.html#a493aff38bcceaba17aef8c5257ff963a" target="_top" xlink:title="channel">
<polygon fill="none" stroke="#000000" points="934,-312.7917 934,-332.7917 990,-332.7917 990,-312.7917 934,-312.7917"/>
<text text-anchor="middle" x="962" y="-319.7917" font-family="FreeSans" font-size="10.00" fill="#000000">channel</text>
</a>
</g>
</g>
<!-- Node7&#45;&gt;Node11 -->
<g id="edge11" class="edge">
<title>Node7&#45;&gt;Node11</title>
<path fill="none" stroke="#191970" d="M831.2316,-324.5629C863.4296,-324.1268 897.9627,-323.6591 923.4518,-323.3138"/>
<polygon fill="#191970" stroke="#191970" points="923.8371,-326.809 933.7888,-323.1738 923.7422,-319.8097 923.8371,-326.809"/>
</g>
<!-- Node12 -->
<g id="node12" class="node">
<title>Node12</title>
<g id="a_node12"><a xlink:href="../../d8/d46/classG4Pythia6Decayer.html#ac8715f299f7b17c024f0e18f49fd8dd3" target="_top" xlink:title="G4Pythia6Decayer::CountProducts">
<polygon fill="none" stroke="#000000" points="867,-390.7917 867,-410.7917 1057,-410.7917 1057,-390.7917 867,-390.7917"/>
<text text-anchor="middle" x="962" y="-397.7917" font-family="FreeSans" font-size="10.00" fill="#000000">G4Pythia6Decayer::CountProducts</text>
</a>
</g>
</g>
<!-- Node7&#45;&gt;Node12 -->
<g id="edge12" class="edge">
<title>Node7&#45;&gt;Node12</title>
<path fill="none" stroke="#191970" d="M777.7114,-341.8545C802.688,-352.2986 836.4823,-365.7845 867,-375.7917 880.6924,-380.2817 895.695,-384.5311 909.6514,-388.2097"/>
<polygon fill="#191970" stroke="#191970" points="909.0373,-391.666 919.5953,-390.7827 910.7909,-384.8892 909.0373,-391.666"/>
</g>
<!-- Node15 -->
<g id="node15" class="node">
<title>Node15</title>
<g id="a_node15"><a xlink:href="../../d8/d25/classPythia6.html#abe9b1ada9bf1bd85428366f88b434321" target="_top" xlink:title="Pythia6::SetMDME">
<polygon fill="none" stroke="#000000" points="907.5,-273.7917 907.5,-293.7917 1016.5,-293.7917 1016.5,-273.7917 907.5,-273.7917"/>
<text text-anchor="middle" x="962" y="-280.7917" font-family="FreeSans" font-size="10.00" fill="#000000">Pythia6::SetMDME</text>
</a>
</g>
</g>
<!-- Node7&#45;&gt;Node15 -->
<g id="edge16" class="edge">
<title>Node7&#45;&gt;Node15</title>
<path fill="none" stroke="#191970" d="M825.1878,-309.7336C849.763,-305.0737 876.1534,-300.0697 899.1362,-295.7117"/>
<polygon fill="#191970" stroke="#191970" points="899.9258,-299.1245 909.0986,-293.8227 898.6216,-292.247 899.9258,-299.1245"/>
</g>
<!-- Node12&#45;&gt;Node3 -->
<g id="edge15" class="edge">
<title>Node12&#45;&gt;Node3</title>
<path fill="none" stroke="#191970" d="M1031.1739,-390.6957C1040.5678,-387.1044 1049.5296,-382.2754 1057,-375.7917 1115.5575,-324.9693 1136.099,-228.6491 1142.4601,-186.9136"/>
<polygon fill="#191970" stroke="#191970" points="1145.9433,-187.2779 1143.8705,-176.8878 1139.0115,-186.3027 1145.9433,-187.2779"/>
</g>
<!-- Node13 -->
<g id="node13" class="node">
<title>Node13</title>
<g id="a_node13"><a xlink:href="../../df/d28/namespacekdfinder.html#ab72d428625e99a2d7380eb7691c246c7" target="_top" xlink:title="kdfinder::abs">
<polygon fill="none" stroke="#000000" points="1103.5,-390.7917 1103.5,-410.7917 1186.5,-410.7917 1186.5,-390.7917 1103.5,-390.7917"/>
<text text-anchor="middle" x="1145" y="-397.7917" font-family="FreeSans" font-size="10.00" fill="#000000">kdfinder::abs</text>
</a>
</g>
</g>
<!-- Node12&#45;&gt;Node13 -->
<g id="edge13" class="edge">
<title>Node12&#45;&gt;Node13</title>
<path fill="none" stroke="#191970" d="M1057.252,-400.7917C1069.6196,-400.7917 1081.8956,-400.7917 1093.1742,-400.7917"/>
<polygon fill="#191970" stroke="#191970" points="1093.2258,-404.2918 1103.2258,-400.7917 1093.2258,-397.2918 1093.2258,-404.2918"/>
</g>
<!-- Node14 -->
<g id="node14" class="node">
<title>Node14</title>
<g id="a_node14"><a xlink:href="../../d8/dc7/classkdfinder_1_1TVector.html#ac9649c7577f12a7502ed523260f4ee90" target="_top" xlink:title="kdfinder::TVector::mag">
<polygon fill="none" stroke="#000000" points="1233,-390.7917 1233,-410.7917 1365,-410.7917 1365,-390.7917 1233,-390.7917"/>
<text text-anchor="middle" x="1299" y="-397.7917" font-family="FreeSans" font-size="10.00" fill="#000000">kdfinder::TVector::mag</text>
</a>
</g>
</g>
<!-- Node13&#45;&gt;Node14 -->
<g id="edge14" class="edge">
<title>Node13&#45;&gt;Node14</title>
<path fill="none" stroke="#191970" d="M1186.6746,-400.7917C1197.8093,-400.7917 1210.2023,-400.7917 1222.5754,-400.7917"/>
<polygon fill="#191970" stroke="#191970" points="1222.9362,-404.2918 1232.9361,-400.7917 1222.9361,-397.2918 1222.9362,-404.2918"/>
</g>
<!-- Node16&#45;&gt;Node3 -->
<g id="edge20" class="edge">
<title>Node16&#45;&gt;Node3</title>
<path fill="none" stroke="#191970" d="M523.2189,-194.5285C541.8905,-170.6049 592.2407,-111.3109 650,-86.7917 733.335,-51.4155 974.319,-31.9128 1057,-68.7917 1093.1585,-84.9198 1120.6607,-124.0611 1134.6755,-147.7081"/>
<polygon fill="#191970" stroke="#191970" points="1131.694,-149.5453 1139.6875,-156.4991 1137.7751,-146.0783 1131.694,-149.5453"/>
</g>
<!-- Node16&#45;&gt;Node7 -->
<g id="edge19" class="edge">
<title>Node16&#45;&gt;Node7</title>
<path fill="none" stroke="#191970" d="M596.6327,-214.8929C602.8261,-217.5341 608.7135,-220.7891 614,-224.7917 641.8916,-245.9095 623.5355,-271.9109 650,-294.7917 654.5071,-298.6885 659.5283,-302.1019 664.8309,-305.0909"/>
<polygon fill="#191970" stroke="#191970" points="663.4778,-308.329 673.9795,-309.7309 666.6441,-302.0861 663.4778,-308.329"/>
</g>
<!-- Node16&#45;&gt;Node8 -->
<g id="edge21" class="edge">
<title>Node16&#45;&gt;Node8</title>
<path fill="none" stroke="#191970" d="M609.1762,-214.7924C622.8648,-216.1811 636.7934,-217.5543 650,-218.7917 737.2761,-226.9696 838.4103,-235.1623 901.3058,-240.1056"/>
<polygon fill="#191970" stroke="#191970" points="901.2025,-243.6081 911.4455,-240.9004 901.7496,-236.6295 901.2025,-243.6081"/>
</g>
<!-- Node16&#45;&gt;Node9 -->
<g id="edge22" class="edge">
<title>Node16&#45;&gt;Node9</title>
<path fill="none" stroke="#191970" d="M614.0391,-205.0124C700.6225,-205.2063 824.0539,-205.4828 898.2635,-205.649"/>
<polygon fill="#191970" stroke="#191970" points="898.3913,-209.1492 908.3991,-205.6717 898.407,-202.1492 898.3913,-209.1492"/>
</g>
<!-- Node16&#45;&gt;Node10 -->
<g id="edge23" class="edge">
<title>Node16&#45;&gt;Node10</title>
<path fill="none" stroke="#191970" d="M533.0583,-194.6472C558.0802,-180.7694 605.8655,-156.3822 650,-145.7917 733.5862,-125.7344 833.21,-123.6088 897.0078,-124.9021"/>
<polygon fill="#191970" stroke="#191970" points="897.2402,-128.4085 907.3206,-125.1474 897.4067,-121.4105 897.2402,-128.4085"/>
</g>
<!-- Node16&#45;&gt;Node11 -->
<g id="edge18" class="edge">
<title>Node16&#45;&gt;Node11</title>
<path fill="none" stroke="#191970" d="M599.8976,-214.9697C605.0054,-217.6398 609.7767,-220.8774 614,-224.7917 657.0288,-264.6728 603.199,-316.4132 650,-351.7917 735.2985,-416.2719 873.5429,-364.6398 933.1438,-337.1857"/>
<polygon fill="#191970" stroke="#191970" points="934.7904,-340.2789 942.3438,-332.8496 931.806,-333.947 934.7904,-340.2789"/>
</g>
<!-- Node16&#45;&gt;Node15 -->
<g id="edge25" class="edge">
<title>Node16&#45;&gt;Node15</title>
<path fill="none" stroke="#191970" d="M574.5661,-214.8384C587.6709,-217.6053 601.4045,-220.9292 614,-224.7917 630.5716,-229.8736 633.2829,-235.2111 650,-239.7917 733.5845,-262.6948 833.2086,-274.1018 897.007,-279.47"/>
<polygon fill="#191970" stroke="#191970" points="897.0684,-282.9866 907.3199,-280.3114 897.6377,-276.0098 897.0684,-282.9866"/>
</g>
<!-- Node17 -->
<g id="node17" class="node">
<title>Node17</title>
<g id="a_node17"><a xlink:href="../../d8/d25/classPythia6.html#a1bdc0d72709ccb972bcfee24020170d1" target="_top" xlink:title="Pythia6::GetKFDP">
<polygon fill="none" stroke="#000000" points="909.5,-78.7917 909.5,-98.7917 1014.5,-98.7917 1014.5,-78.7917 909.5,-78.7917"/>
<text text-anchor="middle" x="962" y="-85.7917" font-family="FreeSans" font-size="10.00" fill="#000000">Pythia6::GetKFDP</text>
</a>
</g>
</g>
<!-- Node16&#45;&gt;Node17 -->
<g id="edge24" class="edge">
<title>Node16&#45;&gt;Node17</title>
<path fill="none" stroke="#191970" d="M527.5178,-194.7326C549.9447,-176.5964 600.4048,-138.7316 650,-121.7917 732.8835,-93.4819 834.7399,-87.7163 899.0345,-87.3433"/>
<polygon fill="#191970" stroke="#191970" points="899.4186,-90.8428 909.4134,-87.3281 899.4083,-83.8428 899.4186,-90.8428"/>
</g>
<!-- Node18&#45;&gt;Node3 -->
<g id="edge27" class="edge">
<title>Node18&#45;&gt;Node3</title>
<path fill="none" stroke="#191970" d="M830.5228,-166.0143C907.2485,-166.204 1015.5043,-166.4716 1082.905,-166.6382"/>
<polygon fill="#191970" stroke="#191970" points="1082.9436,-170.1382 1092.9522,-166.6631 1082.961,-163.1383 1082.9436,-170.1382"/>
</g>
<!-- Node18&#45;&gt;Node8 -->
<g id="edge28" class="edge">
<title>Node18&#45;&gt;Node8</title>
<path fill="none" stroke="#191970" d="M758.3523,-175.9904C782.3361,-189.2826 826.6241,-212.4053 867,-225.7917 877.8662,-229.3944 889.6697,-232.4244 901.1439,-234.9316"/>
<polygon fill="#191970" stroke="#191970" points="900.6079,-238.3949 911.1107,-237.0016 902.0314,-231.5412 900.6079,-238.3949"/>
</g>
<!-- Node18&#45;&gt;Node9 -->
<g id="edge29" class="edge">
<title>Node18&#45;&gt;Node9</title>
<path fill="none" stroke="#191970" d="M796.1079,-175.8338C827.0981,-181.4302 865.822,-188.4232 898.0605,-194.2451"/>
<polygon fill="#191970" stroke="#191970" points="897.8188,-197.758 908.2817,-196.0909 899.0629,-190.8694 897.8188,-197.758"/>
</g>
<!-- Node18&#45;&gt;Node10 -->
<g id="edge30" class="edge">
<title>Node18&#45;&gt;Node10</title>
<path fill="none" stroke="#191970" d="M798.9863,-155.758C829.2879,-150.5595 866.3623,-144.1991 897.4942,-138.8582"/>
<polygon fill="#191970" stroke="#191970" points="898.1129,-142.3033 907.3771,-137.1627 896.9292,-135.4041 898.1129,-142.3033"/>
</g>
<!-- Node18&#45;&gt;Node11 -->
<g id="edge31" class="edge">
<title>Node18&#45;&gt;Node11</title>
<path fill="none" stroke="#191970" d="M746.65,-176.1461C762.7538,-202.2673 808.9532,-271.0844 867,-303.7917 884.2294,-313.4999 905.6722,-318.2983 923.8235,-320.6491"/>
<polygon fill="#191970" stroke="#191970" points="923.4744,-324.1317 933.7967,-321.744 924.2384,-317.1735 923.4744,-324.1317"/>
</g>
<!-- Node18&#45;&gt;Node15 -->
<g id="edge33" class="edge">
<title>Node18&#45;&gt;Node15</title>
<path fill="none" stroke="#191970" d="M749.9043,-175.7963C769.5663,-196.0619 817.3322,-241.9697 867,-264.7917 876.4972,-269.1557 886.9813,-272.5205 897.4136,-275.1142"/>
<polygon fill="#191970" stroke="#191970" points="896.8393,-278.5728 907.3659,-277.3721 898.3881,-271.7463 896.8393,-278.5728"/>
</g>
<!-- Node18&#45;&gt;Node17 -->
<g id="edge32" class="edge">
<title>Node18&#45;&gt;Node17</title>
<path fill="none" stroke="#191970" d="M758.8138,-155.7438C782.9429,-142.8953 827.0121,-120.7619 867,-107.7917 877.2894,-104.4543 888.4047,-101.5946 899.2814,-99.1833"/>
<polygon fill="#191970" stroke="#191970" points="900.1119,-102.5852 909.1726,-97.094 898.6651,-95.7363 900.1119,-102.5852"/>
</g>
</g>
</svg>
