<?xml version="1.0" encoding="UTF-8" standalone="no"?>
<!DOCTYPE svg PUBLIC "-//W3C//DTD SVG 1.1//EN"
 "http://www.w3.org/Graphics/SVG/1.1/DTD/svg11.dtd">
<!-- Generated by graphviz version 2.40.1 (20161225.0304)
 -->
<!-- Title: acts/blob/sPHENIX/Plugins/Sycl/include/Acts/Plugins/Sycl/Seeding/CreateSeedsForGroupSycl.hpp Pages: 1 -->
<svg width="434pt" height="248pt"
 viewBox="0.00 0.00 433.50 248.00" xmlns="http://www.w3.org/2000/svg" xmlns:xlink="http://www.w3.org/1999/xlink">
<g id="graph0" class="graph" transform="scale(1 1) rotate(0) translate(4 244)">
<title>acts/blob/sPHENIX/Plugins/Sycl/include/Acts/Plugins/Sycl/Seeding/CreateSeedsForGroupSycl.hpp</title>
<!-- Node1 -->
<g id="node1" class="node">
<title>Node1</title>
<polygon fill="#bfbfbf" stroke="#000000" points="77.5,-195.5 77.5,-239.5 321.5,-239.5 321.5,-195.5 77.5,-195.5"/>
<text text-anchor="start" x="85.5" y="-226.5" font-family="FreeSans" font-size="10.00" fill="#000000">acts/blob/sPHENIX/Plugins</text>
<text text-anchor="start" x="85.5" y="-214.5" font-family="FreeSans" font-size="10.00" fill="#000000">/Sycl/include/Acts/Plugins</text>
<text text-anchor="middle" x="199.5" y="-202.5" font-family="FreeSans" font-size="10.00" fill="#000000">/Sycl/Seeding/CreateSeedsForGroupSycl.hpp</text>
</g>
<!-- Node2 -->
<g id="node2" class="node">
<title>Node2</title>
<polygon fill="none" stroke="#bfbfbf" points="0,-132.5 0,-152.5 49,-152.5 49,-132.5 0,-132.5"/>
<text text-anchor="middle" x="24.5" y="-139.5" font-family="FreeSans" font-size="10.00" fill="#000000">vector</text>
</g>
<!-- Node1&#45;&gt;Node2 -->
<g id="edge1" class="edge">
<title>Node1&#45;&gt;Node2</title>
<path fill="none" stroke="#191970" d="M143.1179,-195.3714C116.896,-184.8 85.4065,-171.7046 57.5,-159 56.1154,-158.3697 54.7038,-157.7143 53.2819,-157.0439"/>
<polygon fill="#191970" stroke="#191970" points="54.4554,-153.7232 43.9303,-152.5092 51.4011,-160.0217 54.4554,-153.7232"/>
</g>
<!-- Node3 -->
<g id="node3" class="node">
<title>Node3</title>
<g id="a_node3"><a xlink:href="../../d7/d7f/DeviceExperimentCuts_8hpp.html" target="_top" xlink:title="Acts/Plugins/Sycl/Seeding\l/DeviceExperimentCuts.hpp">
<polygon fill="none" stroke="#000000" points="67,-126.5 67,-158.5 226,-158.5 226,-126.5 67,-126.5"/>
<text text-anchor="start" x="75" y="-145.5" font-family="FreeSans" font-size="10.00" fill="#000000">Acts/Plugins/Sycl/Seeding</text>
<text text-anchor="middle" x="146.5" y="-133.5" font-family="FreeSans" font-size="10.00" fill="#000000">/DeviceExperimentCuts.hpp</text>
</a>
</g>
</g>
<!-- Node1&#45;&gt;Node3 -->
<g id="edge2" class="edge">
<title>Node1&#45;&gt;Node3</title>
<path fill="none" stroke="#191970" d="M183.8849,-195.4032C177.591,-186.4967 170.3055,-176.1871 163.847,-167.0477"/>
<polygon fill="#191970" stroke="#191970" points="166.5971,-164.8745 157.9676,-158.7277 160.8804,-168.9143 166.5971,-164.8745"/>
</g>
<!-- Node4 -->
<g id="node4" class="node">
<title>Node4</title>
<g id="a_node4"><a xlink:href="../../d4/d0f/Sycl_2include_2Acts_2Plugins_2Sycl_2Seeding_2detail_2Types_8hpp.html" target="_top" xlink:title="Acts/Plugins/Sycl/Seeding\l/detail/Types.hpp">
<polygon fill="none" stroke="#000000" points="120,-57.5 120,-89.5 267,-89.5 267,-57.5 120,-57.5"/>
<text text-anchor="start" x="128" y="-76.5" font-family="FreeSans" font-size="10.00" fill="#000000">Acts/Plugins/Sycl/Seeding</text>
<text text-anchor="middle" x="193.5" y="-64.5" font-family="FreeSans" font-size="10.00" fill="#000000">/detail/Types.hpp</text>
</a>
</g>
</g>
<!-- Node1&#45;&gt;Node4 -->
<g id="edge6" class="edge">
<title>Node1&#45;&gt;Node4</title>
<path fill="none" stroke="#191970" d="M217.0547,-195.4661C229.5382,-177.0273 242.748,-149.962 234.5,-126 230.9431,-115.6664 224.4253,-105.808 217.6173,-97.4821"/>
<polygon fill="#191970" stroke="#191970" points="220.0313,-94.9259 210.8115,-89.7061 214.7639,-99.5362 220.0313,-94.9259"/>
</g>
<!-- Node7 -->
<g id="node7" class="node">
<title>Node7</title>
<g id="a_node7"><a xlink:href="../../dd/d5b/QueueWrapper_8hpp.html" target="_top" xlink:title="Acts/Plugins/Sycl/Utilities\l/QueueWrapper.hpp">
<polygon fill="none" stroke="#000000" points="281.5,-126.5 281.5,-158.5 425.5,-158.5 425.5,-126.5 281.5,-126.5"/>
<text text-anchor="start" x="289.5" y="-145.5" font-family="FreeSans" font-size="10.00" fill="#000000">Acts/Plugins/Sycl/Utilities</text>
<text text-anchor="middle" x="353.5" y="-133.5" font-family="FreeSans" font-size="10.00" fill="#000000">/QueueWrapper.hpp</text>
</a>
</g>
</g>
<!-- Node1&#45;&gt;Node7 -->
<g id="edge7" class="edge">
<title>Node1&#45;&gt;Node7</title>
<path fill="none" stroke="#191970" d="M244.8721,-195.4032C265.7997,-185.2112 290.4999,-173.1819 311.055,-163.1713"/>
<polygon fill="#191970" stroke="#191970" points="312.7211,-166.2529 320.1791,-158.7277 309.6561,-159.9596 312.7211,-166.2529"/>
</g>
<!-- Node3&#45;&gt;Node4 -->
<g id="edge3" class="edge">
<title>Node3&#45;&gt;Node4</title>
<path fill="none" stroke="#191970" d="M157.4009,-126.4966C163.1312,-118.084 170.2805,-107.5882 176.7015,-98.1617"/>
<polygon fill="#191970" stroke="#191970" points="179.5949,-100.131 182.3319,-89.8958 173.8095,-96.1902 179.5949,-100.131"/>
</g>
<!-- Node5 -->
<g id="node5" class="node">
<title>Node5</title>
<polygon fill="none" stroke="#bfbfbf" points="131.5,-.5 131.5,-20.5 185.5,-20.5 185.5,-.5 131.5,-.5"/>
<text text-anchor="middle" x="158.5" y="-7.5" font-family="FreeSans" font-size="10.00" fill="#000000">cstddef</text>
</g>
<!-- Node4&#45;&gt;Node5 -->
<g id="edge4" class="edge">
<title>Node4&#45;&gt;Node5</title>
<path fill="none" stroke="#191970" d="M184.4866,-57.2759C179.7863,-48.8154 174.0083,-38.415 169.0951,-29.5712"/>
<polygon fill="#191970" stroke="#191970" points="172.1112,-27.7931 164.1952,-20.7513 165.9921,-31.1926 172.1112,-27.7931"/>
</g>
<!-- Node6 -->
<g id="node6" class="node">
<title>Node6</title>
<polygon fill="none" stroke="#bfbfbf" points="204,-.5 204,-20.5 255,-20.5 255,-.5 204,-.5"/>
<text text-anchor="middle" x="229.5" y="-7.5" font-family="FreeSans" font-size="10.00" fill="#000000">cstdint</text>
</g>
<!-- Node4&#45;&gt;Node6 -->
<g id="edge5" class="edge">
<title>Node4&#45;&gt;Node6</title>
<path fill="none" stroke="#191970" d="M202.7709,-57.2759C207.6055,-48.8154 213.5486,-38.415 218.6021,-29.5712"/>
<polygon fill="#191970" stroke="#191970" points="221.7195,-31.1702 223.6421,-20.7513 215.6418,-27.6972 221.7195,-31.1702"/>
</g>
<!-- Node8 -->
<g id="node8" class="node">
<title>Node8</title>
<polygon fill="none" stroke="#bfbfbf" points="331,-63.5 331,-83.5 376,-83.5 376,-63.5 331,-63.5"/>
<text text-anchor="middle" x="353.5" y="-70.5" font-family="FreeSans" font-size="10.00" fill="#000000">string</text>
</g>
<!-- Node7&#45;&gt;Node8 -->
<g id="edge8" class="edge">
<title>Node7&#45;&gt;Node8</title>
<path fill="none" stroke="#191970" d="M353.5,-126.4966C353.5,-116.7901 353.5,-104.3104 353.5,-93.8996"/>
<polygon fill="#191970" stroke="#191970" points="357.0001,-93.6441 353.5,-83.6441 350.0001,-93.6441 357.0001,-93.6441"/>
</g>
</g>
</svg>
