<?xml version="1.0" encoding="UTF-8" standalone="no"?>
<!DOCTYPE svg PUBLIC "-//W3C//DTD SVG 1.1//EN"
 "http://www.w3.org/Graphics/SVG/1.1/DTD/svg11.dtd">
<!-- Generated by graphviz version 2.40.1 (20161225.0304)
 -->
<!-- Title: PHG4Hit::identify Pages: 1 -->
<svg width="505pt" height="437pt"
 viewBox="0.00 0.00 505.00 437.00" xmlns="http://www.w3.org/2000/svg" xmlns:xlink="http://www.w3.org/1999/xlink">
<g id="graph0" class="graph" transform="scale(1 1) rotate(0) translate(4 433)">
<title>PHG4Hit::identify</title>
<!-- Node1 -->
<g id="node1" class="node">
<title>Node1</title>
<polygon fill="#bfbfbf" stroke="#000000" points="0,-204.5 0,-224.5 104,-224.5 104,-204.5 0,-204.5"/>
<text text-anchor="middle" x="52" y="-211.5" font-family="FreeSans" font-size="10.00" fill="#000000">PHG4Hit::identify</text>
</g>
<!-- Node2 -->
<g id="node2" class="node">
<title>Node2</title>
<g id="a_node2"><a xlink:href="../../d8/d98/classpsTOFTimezeroEval.html#a25c3e5e12649de1507e66c332b989be0" target="_top" xlink:title="print out the input object information (debugging upstream components)">
<polygon fill="none" stroke="#000000" points="160,-396.5 160,-428.5 282,-428.5 282,-396.5 160,-396.5"/>
<text text-anchor="start" x="168" y="-415.5" font-family="FreeSans" font-size="10.00" fill="#000000">psTOFTimezeroEval::</text>
<text text-anchor="middle" x="221" y="-403.5" font-family="FreeSans" font-size="10.00" fill="#000000">printInputInfo</text>
</a>
</g>
</g>
<!-- Node1&#45;&gt;Node2 -->
<g id="edge1" class="edge">
<title>Node1&#45;&gt;Node2</title>
<path fill="none" stroke="#191970" d="M56.7186,-234.6671C66.1908,-270.6941 90.9426,-346.1962 140,-387.5 145.8542,-392.429 152.6722,-396.387 159.8209,-399.5652"/>
<polygon fill="#191970" stroke="#191970" points="60.0813,-233.6871 54.2594,-224.8352 53.2905,-235.3856 60.0813,-233.6871"/>
</g>
<!-- Node4 -->
<g id="node4" class="node">
<title>Node4</title>
<g id="a_node4"><a xlink:href="../../d2/d85/classSvtxEvaluatorHaiwang.html#a5f5b66b96bcf4e8f905129e47e406dfc" target="_top" xlink:title="print out the input object information (debugging upstream components)">
<polygon fill="none" stroke="#000000" points="155.5,-294.5 155.5,-326.5 286.5,-326.5 286.5,-294.5 155.5,-294.5"/>
<text text-anchor="start" x="163.5" y="-313.5" font-family="FreeSans" font-size="10.00" fill="#000000">SvtxEvaluatorHaiwang</text>
<text text-anchor="middle" x="221" y="-301.5" font-family="FreeSans" font-size="10.00" fill="#000000">::printInputInfo</text>
</a>
</g>
</g>
<!-- Node1&#45;&gt;Node4 -->
<g id="edge3" class="edge">
<title>Node1&#45;&gt;Node4</title>
<path fill="none" stroke="#191970" d="M69.2873,-231.8264C86.0637,-247.773 112.897,-271.074 140,-285.5 146.2359,-288.8191 152.9809,-291.7725 159.825,-294.3806"/>
<polygon fill="#191970" stroke="#191970" points="71.5163,-229.1124 61.9024,-224.66 66.6414,-234.1359 71.5163,-229.1124"/>
</g>
<!-- Node6 -->
<g id="node6" class="node">
<title>Node6</title>
<g id="a_node6"><a xlink:href="../../d6/d11/classSvtxEvaluator.html#a51a88cb55f439b7bc820fa1f727bf39a" target="_top" xlink:title="print out the input object information (debugging upstream components)">
<polygon fill="none" stroke="#000000" points="140,-204.5 140,-224.5 302,-224.5 302,-204.5 140,-204.5"/>
<text text-anchor="middle" x="221" y="-211.5" font-family="FreeSans" font-size="10.00" fill="#000000">SvtxEvaluator::printInputInfo</text>
</a>
</g>
</g>
<!-- Node1&#45;&gt;Node6 -->
<g id="edge5" class="edge">
<title>Node1&#45;&gt;Node6</title>
<path fill="none" stroke="#191970" d="M114.1307,-214.5C122.5155,-214.5 131.217,-214.5 139.8712,-214.5"/>
<polygon fill="#191970" stroke="#191970" points="114.0846,-211.0001 104.0846,-214.5 114.0845,-218.0001 114.0846,-211.0001"/>
</g>
<!-- Node8 -->
<g id="node8" class="node">
<title>Node8</title>
<g id="a_node8"><a xlink:href="../../d2/d85/classSvtxEvaluatorHaiwang.html#a25f5176857128e2009be02655d32dabe" target="_top" xlink:title="print out the ancestry information for detailed diagnosis">
<polygon fill="none" stroke="#000000" points="155.5,-243.5 155.5,-275.5 286.5,-275.5 286.5,-243.5 155.5,-243.5"/>
<text text-anchor="start" x="163.5" y="-262.5" font-family="FreeSans" font-size="10.00" fill="#000000">SvtxEvaluatorHaiwang</text>
<text text-anchor="middle" x="221" y="-250.5" font-family="FreeSans" font-size="10.00" fill="#000000">::printOutputInfo</text>
</a>
</g>
</g>
<!-- Node1&#45;&gt;Node8 -->
<g id="edge7" class="edge">
<title>Node1&#45;&gt;Node8</title>
<path fill="none" stroke="#191970" d="M99.7981,-227.2273C118.7073,-232.2623 140.6598,-238.1076 160.6451,-243.4292"/>
<polygon fill="#191970" stroke="#191970" points="100.4908,-223.7899 89.9269,-224.5989 98.6896,-230.5542 100.4908,-223.7899"/>
</g>
<!-- Node9 -->
<g id="node9" class="node">
<title>Node9</title>
<g id="a_node9"><a xlink:href="../../d8/d98/classpsTOFTimezeroEval.html#a506f1d899507a34d445b7c1bbf514fb0" target="_top" xlink:title="print out the ancestry information for detailed diagnosis">
<polygon fill="none" stroke="#000000" points="160,-345.5 160,-377.5 282,-377.5 282,-345.5 160,-345.5"/>
<text text-anchor="start" x="168" y="-364.5" font-family="FreeSans" font-size="10.00" fill="#000000">psTOFTimezeroEval::</text>
<text text-anchor="middle" x="221" y="-352.5" font-family="FreeSans" font-size="10.00" fill="#000000">printOutputInfo</text>
</a>
</g>
</g>
<!-- Node1&#45;&gt;Node9 -->
<g id="edge9" class="edge">
<title>Node1&#45;&gt;Node9</title>
<path fill="none" stroke="#191970" d="M60.961,-233.921C74.3721,-260.8727 102.1887,-309.3553 140,-336.5 145.9776,-340.7914 152.7102,-344.3601 159.6747,-347.3247"/>
<polygon fill="#191970" stroke="#191970" points="64.029,-232.225 56.5356,-224.7351 57.7227,-235.2632 64.029,-232.225"/>
</g>
<!-- Node10 -->
<g id="node10" class="node">
<title>Node10</title>
<g id="a_node10"><a xlink:href="../../d9/d7b/classQAG4SimulationCalorimeter.html#a5b70cca03633b9708a6aea0b57e21272" target="_top" xlink:title="QAG4SimulationCalorimeter\l::process_event_G4Hit">
<polygon fill="none" stroke="#000000" points="141.5,-153.5 141.5,-185.5 300.5,-185.5 300.5,-153.5 141.5,-153.5"/>
<text text-anchor="start" x="149.5" y="-172.5" font-family="FreeSans" font-size="10.00" fill="#000000">QAG4SimulationCalorimeter</text>
<text text-anchor="middle" x="221" y="-160.5" font-family="FreeSans" font-size="10.00" fill="#000000">::process_event_G4Hit</text>
</a>
</g>
</g>
<!-- Node1&#45;&gt;Node10 -->
<g id="edge11" class="edge">
<title>Node1&#45;&gt;Node10</title>
<path fill="none" stroke="#191970" d="M99.7981,-201.7727C118.7073,-196.7377 140.6598,-190.8924 160.6451,-185.5708"/>
<polygon fill="#191970" stroke="#191970" points="98.6896,-198.4458 89.9269,-204.4011 100.4908,-205.2101 98.6896,-198.4458"/>
</g>
<!-- Node12 -->
<g id="node12" class="node">
<title>Node12</title>
<g id="a_node12"><a xlink:href="../../d9/d91/classPHG4TrackFastSim.html#aaf5c166b63822e4eb712f93328186293" target="_top" xlink:title="PHG4TrackFastSim::Pseudo\lPatternRecognition">
<polygon fill="none" stroke="#000000" points="144.5,-102.5 144.5,-134.5 297.5,-134.5 297.5,-102.5 144.5,-102.5"/>
<text text-anchor="start" x="152.5" y="-121.5" font-family="FreeSans" font-size="10.00" fill="#000000">PHG4TrackFastSim::Pseudo</text>
<text text-anchor="middle" x="221" y="-109.5" font-family="FreeSans" font-size="10.00" fill="#000000">PatternRecognition</text>
</a>
</g>
</g>
<!-- Node1&#45;&gt;Node12 -->
<g id="edge13" class="edge">
<title>Node1&#45;&gt;Node12</title>
<path fill="none" stroke="#191970" d="M69.6479,-197.2412C86.4997,-181.5851 113.2258,-158.8251 140,-144.5 146.9019,-140.8073 154.4178,-137.5291 161.9976,-134.6522"/>
<polygon fill="#191970" stroke="#191970" points="67.0626,-194.8692 62.2114,-204.2881 71.8775,-199.9502 67.0626,-194.8692"/>
</g>
<!-- Node13 -->
<g id="node13" class="node">
<title>Node13</title>
<g id="a_node13"><a xlink:href="../../db/d97/classPHG4HcalSteppingAction.html#a8e7f7455c1bd0131036f960d54fdc973" target="_top" xlink:title="stepping action">
<polygon fill="none" stroke="#000000" points="149.5,-51.5 149.5,-83.5 292.5,-83.5 292.5,-51.5 149.5,-51.5"/>
<text text-anchor="start" x="157.5" y="-70.5" font-family="FreeSans" font-size="10.00" fill="#000000">PHG4HcalSteppingAction</text>
<text text-anchor="middle" x="221" y="-58.5" font-family="FreeSans" font-size="10.00" fill="#000000">::UserSteppingAction</text>
</a>
</g>
</g>
<!-- Node1&#45;&gt;Node13 -->
<g id="edge14" class="edge">
<title>Node1&#45;&gt;Node13</title>
<path fill="none" stroke="#191970" d="M61.0448,-195.2974C74.556,-168.6374 102.4913,-120.6361 140,-93.5 145.2651,-89.6909 151.1131,-86.4232 157.1881,-83.6232"/>
<polygon fill="#191970" stroke="#191970" points="57.8498,-193.8634 56.5828,-204.3822 64.1329,-196.9494 57.8498,-193.8634"/>
</g>
<!-- Node14 -->
<g id="node14" class="node">
<title>Node14</title>
<g id="a_node14"><a xlink:href="../../de/dea/classPHG4SpacalSteppingAction.html#ad27b2325877c9d504389c79a338d25fe" target="_top" xlink:title="stepping action">
<polygon fill="none" stroke="#000000" points="143.5,-.5 143.5,-32.5 298.5,-32.5 298.5,-.5 143.5,-.5"/>
<text text-anchor="start" x="151.5" y="-19.5" font-family="FreeSans" font-size="10.00" fill="#000000">PHG4SpacalSteppingAction</text>
<text text-anchor="middle" x="221" y="-7.5" font-family="FreeSans" font-size="10.00" fill="#000000">::UserSteppingAction</text>
</a>
</g>
</g>
<!-- Node1&#45;&gt;Node14 -->
<g id="edge15" class="edge">
<title>Node1&#45;&gt;Node14</title>
<path fill="none" stroke="#191970" d="M56.7992,-194.502C66.4004,-158.7671 91.3509,-83.8308 140,-42.5 144.5022,-38.675 149.5751,-35.4106 154.9303,-32.6249"/>
<polygon fill="#191970" stroke="#191970" points="53.3924,-193.6973 54.3031,-204.2529 60.1737,-195.4333 53.3924,-193.6973"/>
</g>
<!-- Node3 -->
<g id="node3" class="node">
<title>Node3</title>
<g id="a_node3"><a xlink:href="../../d8/d98/classpsTOFTimezeroEval.html#a2e98730e1beaa91c36947c0fe671fdd2" target="_top" xlink:title="psTOFTimezeroEval::\lprocess_event">
<polygon fill="none" stroke="#000000" points="356.5,-355.5 356.5,-387.5 478.5,-387.5 478.5,-355.5 356.5,-355.5"/>
<text text-anchor="start" x="364.5" y="-374.5" font-family="FreeSans" font-size="10.00" fill="#000000">psTOFTimezeroEval::</text>
<text text-anchor="middle" x="417.5" y="-362.5" font-family="FreeSans" font-size="10.00" fill="#000000">process_event</text>
</a>
</g>
</g>
<!-- Node2&#45;&gt;Node3 -->
<g id="edge2" class="edge">
<title>Node2&#45;&gt;Node3</title>
<path fill="none" stroke="#191970" d="M291.9724,-397.6915C313.0837,-393.2866 336.0198,-388.501 356.4411,-384.24"/>
<polygon fill="#191970" stroke="#191970" points="291.171,-394.2833 282.0967,-399.7521 292.6008,-401.1357 291.171,-394.2833"/>
</g>
<!-- Node5 -->
<g id="node5" class="node">
<title>Node5</title>
<g id="a_node5"><a xlink:href="../../d2/d85/classSvtxEvaluatorHaiwang.html#ab63ca0cc53b56dad65b89d9b18220bce" target="_top" xlink:title="SvtxEvaluatorHaiwang\l::process_event">
<polygon fill="none" stroke="#000000" points="352,-283.5 352,-315.5 483,-315.5 483,-283.5 352,-283.5"/>
<text text-anchor="start" x="360" y="-302.5" font-family="FreeSans" font-size="10.00" fill="#000000">SvtxEvaluatorHaiwang</text>
<text text-anchor="middle" x="417.5" y="-290.5" font-family="FreeSans" font-size="10.00" fill="#000000">::process_event</text>
</a>
</g>
</g>
<!-- Node4&#45;&gt;Node5 -->
<g id="edge4" class="edge">
<title>Node4&#45;&gt;Node5</title>
<path fill="none" stroke="#191970" d="M296.9361,-306.2491C315.056,-305.2348 334.2449,-304.1606 351.8571,-303.1747"/>
<polygon fill="#191970" stroke="#191970" points="296.4936,-302.7683 286.7048,-306.8219 296.8849,-309.7574 296.4936,-302.7683"/>
</g>
<!-- Node7 -->
<g id="node7" class="node">
<title>Node7</title>
<g id="a_node7"><a xlink:href="../../d6/d11/classSvtxEvaluator.html#a1eb230f92b6f2cabb175f1349697200d" target="_top" xlink:title="SvtxEvaluator::process\l_event">
<polygon fill="none" stroke="#000000" points="351.5,-201.5 351.5,-233.5 483.5,-233.5 483.5,-201.5 351.5,-201.5"/>
<text text-anchor="start" x="359.5" y="-220.5" font-family="FreeSans" font-size="10.00" fill="#000000">SvtxEvaluator::process</text>
<text text-anchor="middle" x="417.5" y="-208.5" font-family="FreeSans" font-size="10.00" fill="#000000">_event</text>
</a>
</g>
</g>
<!-- Node6&#45;&gt;Node7 -->
<g id="edge6" class="edge">
<title>Node6&#45;&gt;Node7</title>
<path fill="none" stroke="#191970" d="M312.1096,-215.891C325.3183,-216.0926 338.6999,-216.2969 351.2929,-216.4892"/>
<polygon fill="#191970" stroke="#191970" points="312.1108,-212.3907 302.0586,-215.7375 312.0039,-219.3899 312.1108,-212.3907"/>
</g>
<!-- Node8&#45;&gt;Node5 -->
<g id="edge8" class="edge">
<title>Node8&#45;&gt;Node5</title>
<path fill="none" stroke="#191970" d="M296.6833,-274.9063C314.8774,-278.6099 334.163,-282.5357 351.8571,-286.1376"/>
<polygon fill="#191970" stroke="#191970" points="297.2021,-271.4402 286.7048,-272.875 295.8057,-278.2995 297.2021,-271.4402"/>
</g>
<!-- Node9&#45;&gt;Node3 -->
<g id="edge10" class="edge">
<title>Node9&#45;&gt;Node3</title>
<path fill="none" stroke="#191970" d="M292.2591,-365.1264C313.2912,-366.1968 336.1122,-367.3581 356.4411,-368.3927"/>
<polygon fill="#191970" stroke="#191970" points="292.2617,-361.6221 282.0967,-364.6092 291.9059,-368.6131 292.2617,-361.6221"/>
</g>
<!-- Node11 -->
<g id="node11" class="node">
<title>Node11</title>
<g id="a_node11"><a xlink:href="../../d9/d7b/classQAG4SimulationCalorimeter.html#aa3467829c4182ba4e09f74fd8198cb28" target="_top" xlink:title="QAG4SimulationCalorimeter\l::process_event">
<polygon fill="none" stroke="#000000" points="338,-150.5 338,-182.5 497,-182.5 497,-150.5 338,-150.5"/>
<text text-anchor="start" x="346" y="-169.5" font-family="FreeSans" font-size="10.00" fill="#000000">QAG4SimulationCalorimeter</text>
<text text-anchor="middle" x="417.5" y="-157.5" font-family="FreeSans" font-size="10.00" fill="#000000">::process_event</text>
</a>
</g>
</g>
<!-- Node10&#45;&gt;Node11 -->
<g id="edge12" class="edge">
<title>Node10&#45;&gt;Node11</title>
<path fill="none" stroke="#191970" d="M310.7501,-168.1298C319.7546,-167.9923 328.855,-167.8534 337.7458,-167.7176"/>
<polygon fill="#191970" stroke="#191970" points="310.5862,-164.6318 300.6408,-168.2841 310.6931,-171.631 310.5862,-164.6318"/>
</g>
</g>
</svg>
