<?xml version="1.0" encoding="UTF-8" standalone="no"?>
<!DOCTYPE svg PUBLIC "-//W3C//DTD SVG 1.1//EN"
 "http://www.w3.org/Graphics/SVG/1.1/DTD/svg11.dtd">
<!-- Generated by graphviz version 2.40.1 (20161225.0304)
 -->
<!-- Title: PHG4Hit::get_py Pages: 1 -->
<svg width="670pt" height="386pt"
 viewBox="0.00 0.00 670.00 386.00" xmlns="http://www.w3.org/2000/svg" xmlns:xlink="http://www.w3.org/1999/xlink">
<g id="graph0" class="graph" transform="scale(1 1) rotate(0) translate(4 382)">
<title>PHG4Hit::get_py</title>
<!-- Node1 -->
<g id="node1" class="node">
<title>Node1</title>
<polygon fill="#bfbfbf" stroke="#000000" points="0,-159.5 0,-179.5 99,-179.5 99,-159.5 0,-159.5"/>
<text text-anchor="middle" x="49.5" y="-166.5" font-family="FreeSans" font-size="10.00" fill="#000000">PHG4Hit::get_py</text>
</g>
<!-- Node2 -->
<g id="node2" class="node">
<title>Node2</title>
<g id="a_node2"><a xlink:href="../../de/da4/classEMCalCalib.html#ac80fa52a42070fa6210a5c69f9c10fed" target="_top" xlink:title="project a photon to calorimeters and collect towers around it">
<polygon fill="none" stroke="#000000" points="135,-325.5 135,-345.5 276,-345.5 276,-325.5 135,-325.5"/>
<text text-anchor="middle" x="205.5" y="-332.5" font-family="FreeSans" font-size="10.00" fill="#000000">EMCalCalib::eval_photon</text>
</a>
</g>
</g>
<!-- Node1&#45;&gt;Node2 -->
<g id="edge1" class="edge">
<title>Node1&#45;&gt;Node2</title>
<path fill="none" stroke="#191970" d="M59.7304,-188.7607C74.0433,-214.4288 102.0255,-260.2383 135,-291.5 149.8678,-305.5955 169.9329,-317.5917 184.8551,-325.4805"/>
<polygon fill="#191970" stroke="#191970" points="62.6385,-186.7834 54.7734,-179.6847 56.495,-190.1388 62.6385,-186.7834"/>
</g>
<!-- Node5 -->
<g id="node5" class="node">
<title>Node5</title>
<g id="a_node5"><a xlink:href="../../db/d4b/classEMCalAna.html#a058c1f2ec1ef8b8f7786737eb6e3151b" target="_top" xlink:title="EMCalAna::eval_trk">
<polygon fill="none" stroke="#000000" points="148.5,-261.5 148.5,-281.5 262.5,-281.5 262.5,-261.5 148.5,-261.5"/>
<text text-anchor="middle" x="205.5" y="-268.5" font-family="FreeSans" font-size="10.00" fill="#000000">EMCalAna::eval_trk</text>
</a>
</g>
</g>
<!-- Node1&#45;&gt;Node5 -->
<g id="edge4" class="edge">
<title>Node1&#45;&gt;Node5</title>
<path fill="none" stroke="#191970" d="M65.6249,-187.2526C81.7833,-204.1586 108.0642,-229.3546 135,-245.5 145.8536,-252.0057 158.6039,-257.3141 170.2553,-261.3985"/>
<polygon fill="#191970" stroke="#191970" points="67.9376,-184.6017 58.5473,-179.6952 62.8283,-189.3867 67.9376,-184.6017"/>
</g>
<!-- Node9 -->
<g id="node9" class="node">
<title>Node9</title>
<g id="a_node9"><a xlink:href="../../d8/d98/classpsTOFTimezeroEval.html#ae9fd1570652089bed4ec7eb81009b318" target="_top" xlink:title="dump the evaluator information into ntuple for external analysis">
<polygon fill="none" stroke="#000000" points="144.5,-204.5 144.5,-236.5 266.5,-236.5 266.5,-204.5 144.5,-204.5"/>
<text text-anchor="start" x="152.5" y="-223.5" font-family="FreeSans" font-size="10.00" fill="#000000">psTOFTimezeroEval::</text>
<text text-anchor="middle" x="205.5" y="-211.5" font-family="FreeSans" font-size="10.00" fill="#000000">fillOutputNtuples</text>
</a>
</g>
</g>
<!-- Node1&#45;&gt;Node9 -->
<g id="edge9" class="edge">
<title>Node1&#45;&gt;Node9</title>
<path fill="none" stroke="#191970" d="M89.8882,-182.7038C110.178,-189.337 134.932,-197.4297 156.3213,-204.4223"/>
<polygon fill="#191970" stroke="#191970" points="90.9131,-179.3567 80.3206,-179.576 88.7379,-186.0102 90.9131,-179.3567"/>
</g>
<!-- Node11 -->
<g id="node11" class="node">
<title>Node11</title>
<g id="a_node11"><a xlink:href="../../d2/d85/classSvtxEvaluatorHaiwang.html#a0fd261422264aedc22d0506ef5e897c4" target="_top" xlink:title="dump the evaluator information into ntuple for external analysis">
<polygon fill="none" stroke="#000000" points="140,-153.5 140,-185.5 271,-185.5 271,-153.5 140,-153.5"/>
<text text-anchor="start" x="148" y="-172.5" font-family="FreeSans" font-size="10.00" fill="#000000">SvtxEvaluatorHaiwang</text>
<text text-anchor="middle" x="205.5" y="-160.5" font-family="FreeSans" font-size="10.00" fill="#000000">::fillOutputNtuples</text>
</a>
</g>
</g>
<!-- Node1&#45;&gt;Node11 -->
<g id="edge11" class="edge">
<title>Node1&#45;&gt;Node11</title>
<path fill="none" stroke="#191970" d="M109.4974,-169.5C119.4664,-169.5 129.8503,-169.5 139.9485,-169.5"/>
<polygon fill="#191970" stroke="#191970" points="109.2883,-166.0001 99.2883,-169.5 109.2883,-173.0001 109.2883,-166.0001"/>
</g>
<!-- Node13 -->
<g id="node13" class="node">
<title>Node13</title>
<g id="a_node13"><a xlink:href="../../d6/d11/classSvtxEvaluator.html#ace95fef2b7b4ad8b797f6695e053dd6e" target="_top" xlink:title="dump the evaluator information into ntuple for external analysis">
<polygon fill="none" stroke="#000000" points="135,-102.5 135,-134.5 276,-134.5 276,-102.5 135,-102.5"/>
<text text-anchor="start" x="143" y="-121.5" font-family="FreeSans" font-size="10.00" fill="#000000">SvtxEvaluator::fillOutput</text>
<text text-anchor="middle" x="205.5" y="-109.5" font-family="FreeSans" font-size="10.00" fill="#000000">Ntuples</text>
</a>
</g>
</g>
<!-- Node1&#45;&gt;Node13 -->
<g id="edge13" class="edge">
<title>Node1&#45;&gt;Node13</title>
<path fill="none" stroke="#191970" d="M89.8882,-156.2962C110.178,-149.663 134.932,-141.5703 156.3213,-134.5777"/>
<polygon fill="#191970" stroke="#191970" points="88.7379,-152.9898 80.3206,-159.424 90.9131,-159.6433 88.7379,-152.9898"/>
</g>
<!-- Node15 -->
<g id="node15" class="node">
<title>Node15</title>
<g id="a_node15"><a xlink:href="../../df/d40/classIsolatedTrackAnalysis.html#a7cce63dc20e7d7455b7f54697b9a9185" target="_top" xlink:title="IsolatedTrackAnalysis\l::getAddTruth">
<polygon fill="none" stroke="#000000" points="143,-51.5 143,-83.5 268,-83.5 268,-51.5 143,-51.5"/>
<text text-anchor="start" x="151" y="-70.5" font-family="FreeSans" font-size="10.00" fill="#000000">IsolatedTrackAnalysis</text>
<text text-anchor="middle" x="205.5" y="-58.5" font-family="FreeSans" font-size="10.00" fill="#000000">::getAddTruth</text>
</a>
</g>
</g>
<!-- Node1&#45;&gt;Node15 -->
<g id="edge15" class="edge">
<title>Node1&#45;&gt;Node15</title>
<path fill="none" stroke="#191970" d="M65.2732,-151.7055C81.3407,-134.5104 107.7107,-108.7454 135,-92.5 140.5794,-89.1786 146.6687,-86.2009 152.8559,-83.5594"/>
<polygon fill="#191970" stroke="#191970" points="62.421,-149.638 58.2542,-159.3791 67.5861,-154.3626 62.421,-149.638"/>
</g>
<!-- Node17 -->
<g id="node17" class="node">
<title>Node17</title>
<g id="a_node17"><a xlink:href="../../de/d13/classTruthCaloTree.html#a0b38ca1069c6ef33e834982503abf914" target="_top" xlink:title="TruthCaloTree::process\l_event">
<polygon fill="none" stroke="#000000" points="139.5,-.5 139.5,-32.5 271.5,-32.5 271.5,-.5 139.5,-.5"/>
<text text-anchor="start" x="147.5" y="-19.5" font-family="FreeSans" font-size="10.00" fill="#000000">TruthCaloTree::process</text>
<text text-anchor="middle" x="205.5" y="-7.5" font-family="FreeSans" font-size="10.00" fill="#000000">_event</text>
</a>
</g>
</g>
<!-- Node1&#45;&gt;Node17 -->
<g id="edge17" class="edge">
<title>Node1&#45;&gt;Node17</title>
<path fill="none" stroke="#191970" d="M57.7815,-149.7545C70.4541,-121.8202 97.2246,-70.8985 135,-41.5 139.3044,-38.1501 144.094,-35.2266 149.0937,-32.6795"/>
<polygon fill="#191970" stroke="#191970" points="54.4317,-148.6785 53.6214,-159.2423 60.8425,-151.4895 54.4317,-148.6785"/>
</g>
<!-- Node3 -->
<g id="node3" class="node">
<title>Node3</title>
<g id="a_node3"><a xlink:href="../../de/da4/classEMCalCalib.html#a8d33bc88a464878c873f29c9230ce7fe" target="_top" xlink:title="EMCalCalib::process\l_event_MCPhoton">
<polygon fill="none" stroke="#000000" points="336.5,-345.5 336.5,-377.5 454.5,-377.5 454.5,-345.5 336.5,-345.5"/>
<text text-anchor="start" x="344.5" y="-364.5" font-family="FreeSans" font-size="10.00" fill="#000000">EMCalCalib::process</text>
<text text-anchor="middle" x="395.5" y="-352.5" font-family="FreeSans" font-size="10.00" fill="#000000">_event_MCPhoton</text>
</a>
</g>
</g>
<!-- Node2&#45;&gt;Node3 -->
<g id="edge2" class="edge">
<title>Node2&#45;&gt;Node3</title>
<path fill="none" stroke="#191970" d="M286.5358,-346.5891C303.2092,-348.8707 320.4693,-351.2326 336.2009,-353.3854"/>
<polygon fill="#191970" stroke="#191970" points="286.6312,-343.0696 276.249,-345.1814 285.6821,-350.005 286.6312,-343.0696"/>
</g>
<!-- Node4 -->
<g id="node4" class="node">
<title>Node4</title>
<g id="a_node4"><a xlink:href="../../de/da4/classEMCalCalib.html#aa70da6270813e434e35da37b6ec2a350" target="_top" xlink:title="EMCalCalib::process\l_event">
<polygon fill="none" stroke="#000000" points="529.5,-345.5 529.5,-377.5 647.5,-377.5 647.5,-345.5 529.5,-345.5"/>
<text text-anchor="start" x="537.5" y="-364.5" font-family="FreeSans" font-size="10.00" fill="#000000">EMCalCalib::process</text>
<text text-anchor="middle" x="588.5" y="-352.5" font-family="FreeSans" font-size="10.00" fill="#000000">_event</text>
</a>
</g>
</g>
<!-- Node3&#45;&gt;Node4 -->
<g id="edge3" class="edge">
<title>Node3&#45;&gt;Node4</title>
<path fill="none" stroke="#191970" d="M464.9126,-361.5C486.0277,-361.5 509.0255,-361.5 529.394,-361.5"/>
<polygon fill="#191970" stroke="#191970" points="464.718,-358.0001 454.718,-361.5 464.7179,-365.0001 464.718,-358.0001"/>
</g>
<!-- Node6 -->
<g id="node6" class="node">
<title>Node6</title>
<g id="a_node6"><a xlink:href="../../db/d4b/classEMCalAna.html#a2e20101b8705ea086e2c7de88e95767d" target="_top" xlink:title="EMCalAna::process_event_Trk">
<polygon fill="none" stroke="#000000" points="312,-306.5 312,-326.5 479,-326.5 479,-306.5 312,-306.5"/>
<text text-anchor="middle" x="395.5" y="-313.5" font-family="FreeSans" font-size="10.00" fill="#000000">EMCalAna::process_event_Trk</text>
</a>
</g>
</g>
<!-- Node5&#45;&gt;Node6 -->
<g id="edge5" class="edge">
<title>Node5&#45;&gt;Node6</title>
<path fill="none" stroke="#191970" d="M256.0373,-284.0098C273.7243,-288.3424 293.7273,-293.1909 312,-297.5 324.589,-300.4688 338.2652,-303.6141 350.8356,-306.4731"/>
<polygon fill="#191970" stroke="#191970" points="256.4678,-280.5117 245.9217,-281.5265 254.7989,-287.3098 256.4678,-280.5117"/>
</g>
<!-- Node8 -->
<g id="node8" class="node">
<title>Node8</title>
<g id="a_node8"><a xlink:href="../../db/d4b/classEMCalAna.html#a9647db89feef6823b38bbdeaf7de06c2" target="_top" xlink:title="EMCalAna::process_event\l_UpslisonTrig">
<polygon fill="none" stroke="#000000" points="322,-255.5 322,-287.5 469,-287.5 469,-255.5 322,-255.5"/>
<text text-anchor="start" x="330" y="-274.5" font-family="FreeSans" font-size="10.00" fill="#000000">EMCalAna::process_event</text>
<text text-anchor="middle" x="395.5" y="-262.5" font-family="FreeSans" font-size="10.00" fill="#000000">_UpslisonTrig</text>
</a>
</g>
</g>
<!-- Node5&#45;&gt;Node8 -->
<g id="edge7" class="edge">
<title>Node5&#45;&gt;Node8</title>
<path fill="none" stroke="#191970" d="M272.7886,-271.5C288.7174,-271.5 305.7854,-271.5 321.9752,-271.5"/>
<polygon fill="#191970" stroke="#191970" points="272.5063,-268.0001 262.5063,-271.5 272.5062,-275.0001 272.5063,-268.0001"/>
</g>
<!-- Node7 -->
<g id="node7" class="node">
<title>Node7</title>
<g id="a_node7"><a xlink:href="../../db/d4b/classEMCalAna.html#a3b829b80df0fd8625130f3d9c11f5d3d" target="_top" xlink:title="EMCalAna::process_event">
<polygon fill="none" stroke="#000000" points="515,-284.5 515,-304.5 662,-304.5 662,-284.5 515,-284.5"/>
<text text-anchor="middle" x="588.5" y="-291.5" font-family="FreeSans" font-size="10.00" fill="#000000">EMCalAna::process_event</text>
</a>
</g>
</g>
<!-- Node6&#45;&gt;Node7 -->
<g id="edge6" class="edge">
<title>Node6&#45;&gt;Node7</title>
<path fill="none" stroke="#191970" d="M489.1344,-305.8266C497.7679,-304.8425 506.4319,-303.8549 514.8499,-302.8954"/>
<polygon fill="#191970" stroke="#191970" points="488.5693,-302.3683 479.0301,-306.9784 489.3622,-309.3233 488.5693,-302.3683"/>
</g>
<!-- Node8&#45;&gt;Node7 -->
<g id="edge8" class="edge">
<title>Node8&#45;&gt;Node7</title>
<path fill="none" stroke="#191970" d="M478.9694,-281.4471C490.9148,-282.8707 503.1315,-284.3266 514.8693,-285.7254"/>
<polygon fill="#191970" stroke="#191970" points="479.3595,-277.9689 469.0156,-280.2609 478.5311,-284.9198 479.3595,-277.9689"/>
</g>
<!-- Node10 -->
<g id="node10" class="node">
<title>Node10</title>
<g id="a_node10"><a xlink:href="../../d8/d98/classpsTOFTimezeroEval.html#a2e98730e1beaa91c36947c0fe671fdd2" target="_top" xlink:title="psTOFTimezeroEval::\lprocess_event">
<polygon fill="none" stroke="#000000" points="334.5,-204.5 334.5,-236.5 456.5,-236.5 456.5,-204.5 334.5,-204.5"/>
<text text-anchor="start" x="342.5" y="-223.5" font-family="FreeSans" font-size="10.00" fill="#000000">psTOFTimezeroEval::</text>
<text text-anchor="middle" x="395.5" y="-211.5" font-family="FreeSans" font-size="10.00" fill="#000000">process_event</text>
</a>
</g>
</g>
<!-- Node9&#45;&gt;Node10 -->
<g id="edge10" class="edge">
<title>Node9&#45;&gt;Node10</title>
<path fill="none" stroke="#191970" d="M276.7484,-220.5C295.7324,-220.5 316.0685,-220.5 334.4516,-220.5"/>
<polygon fill="#191970" stroke="#191970" points="276.6631,-217.0001 266.663,-220.5 276.663,-224.0001 276.6631,-217.0001"/>
</g>
<!-- Node12 -->
<g id="node12" class="node">
<title>Node12</title>
<g id="a_node12"><a xlink:href="../../d2/d85/classSvtxEvaluatorHaiwang.html#ab63ca0cc53b56dad65b89d9b18220bce" target="_top" xlink:title="SvtxEvaluatorHaiwang\l::process_event">
<polygon fill="none" stroke="#000000" points="330,-153.5 330,-185.5 461,-185.5 461,-153.5 330,-153.5"/>
<text text-anchor="start" x="338" y="-172.5" font-family="FreeSans" font-size="10.00" fill="#000000">SvtxEvaluatorHaiwang</text>
<text text-anchor="middle" x="395.5" y="-160.5" font-family="FreeSans" font-size="10.00" fill="#000000">::process_event</text>
</a>
</g>
</g>
<!-- Node11&#45;&gt;Node12 -->
<g id="edge12" class="edge">
<title>Node11&#45;&gt;Node12</title>
<path fill="none" stroke="#191970" d="M281.5355,-169.5C297.5289,-169.5 314.2699,-169.5 329.8441,-169.5"/>
<polygon fill="#191970" stroke="#191970" points="281.1533,-166.0001 271.1533,-169.5 281.1532,-173.0001 281.1533,-166.0001"/>
</g>
<!-- Node14 -->
<g id="node14" class="node">
<title>Node14</title>
<g id="a_node14"><a xlink:href="../../d6/d11/classSvtxEvaluator.html#a1eb230f92b6f2cabb175f1349697200d" target="_top" xlink:title="SvtxEvaluator::process\l_event">
<polygon fill="none" stroke="#000000" points="329.5,-102.5 329.5,-134.5 461.5,-134.5 461.5,-102.5 329.5,-102.5"/>
<text text-anchor="start" x="337.5" y="-121.5" font-family="FreeSans" font-size="10.00" fill="#000000">SvtxEvaluator::process</text>
<text text-anchor="middle" x="395.5" y="-109.5" font-family="FreeSans" font-size="10.00" fill="#000000">_event</text>
</a>
</g>
</g>
<!-- Node13&#45;&gt;Node14 -->
<g id="edge14" class="edge">
<title>Node13&#45;&gt;Node14</title>
<path fill="none" stroke="#191970" d="M286.5636,-118.5C300.8596,-118.5 315.586,-118.5 329.4097,-118.5"/>
<polygon fill="#191970" stroke="#191970" points="286.249,-115.0001 276.249,-118.5 286.249,-122.0001 286.249,-115.0001"/>
</g>
<!-- Node16 -->
<g id="node16" class="node">
<title>Node16</title>
<g id="a_node16"><a xlink:href="../../df/d40/classIsolatedTrackAnalysis.html#a5de3498641ec622ac1474dc3314f5228" target="_top" xlink:title="IsolatedTrackAnalysis\l::process_event">
<polygon fill="none" stroke="#000000" points="333,-51.5 333,-83.5 458,-83.5 458,-51.5 333,-51.5"/>
<text text-anchor="start" x="341" y="-70.5" font-family="FreeSans" font-size="10.00" fill="#000000">IsolatedTrackAnalysis</text>
<text text-anchor="middle" x="395.5" y="-58.5" font-family="FreeSans" font-size="10.00" fill="#000000">::process_event</text>
</a>
</g>
</g>
<!-- Node15&#45;&gt;Node16 -->
<g id="edge16" class="edge">
<title>Node15&#45;&gt;Node16</title>
<path fill="none" stroke="#191970" d="M278.3713,-67.5C296.3275,-67.5 315.4006,-67.5 332.8262,-67.5"/>
<polygon fill="#191970" stroke="#191970" points="278.2397,-64.0001 268.2397,-67.5 278.2396,-71.0001 278.2397,-64.0001"/>
</g>
</g>
</svg>
