<?xml version="1.0" encoding="UTF-8" standalone="no"?>
<!DOCTYPE svg PUBLIC "-//W3C//DTD SVG 1.1//EN"
 "http://www.w3.org/Graphics/SVG/1.1/DTD/svg11.dtd">
<!-- Generated by graphviz version 2.40.1 (20161225.0304)
 -->
<!-- Title: MvtxRawEvtHeader::getMvtxLvL1BCO Pages: 1 -->
<svg width="387pt" height="92pt"
 viewBox="0.00 0.00 387.00 92.00" xmlns="http://www.w3.org/2000/svg" xmlns:xlink="http://www.w3.org/1999/xlink">
<g id="graph0" class="graph" transform="scale(1 1) rotate(0) translate(4 88)">
<title>MvtxRawEvtHeader::getMvtxLvL1BCO</title>
<!-- Node1 -->
<g id="node1" class="node">
<title>Node1</title>
<polygon fill="#bfbfbf" stroke="#000000" points="0,-25.5 0,-57.5 163,-57.5 163,-25.5 0,-25.5"/>
<text text-anchor="start" x="8" y="-44.5" font-family="FreeSans" font-size="10.00" fill="#000000">MvtxRawEvtHeader::getMvtx</text>
<text text-anchor="middle" x="81.5" y="-32.5" font-family="FreeSans" font-size="10.00" fill="#000000">LvL1BCO</text>
</g>
<!-- Node2 -->
<g id="node2" class="node">
<title>Node2</title>
<g id="a_node2"><a xlink:href="../../dd/d50/classMvtxCombinedRawDataDecoder.html#a5d1daca77ea10f340fc030e46a139ca8" target="_top" xlink:title="event processing">
<polygon fill="none" stroke="#000000" points="199,-51.5 199,-83.5 379,-83.5 379,-51.5 199,-51.5"/>
<text text-anchor="start" x="207" y="-70.5" font-family="FreeSans" font-size="10.00" fill="#000000">MvtxCombinedRawDataDecoder</text>
<text text-anchor="middle" x="289" y="-58.5" font-family="FreeSans" font-size="10.00" fill="#000000">::process_event</text>
</a>
</g>
</g>
<!-- Node1&#45;&gt;Node2 -->
<g id="edge1" class="edge">
<title>Node1&#45;&gt;Node2</title>
<path fill="none" stroke="#191970" d="M173.1465,-52.9834C181.6646,-54.0507 190.293,-55.1319 198.7979,-56.1976"/>
<polygon fill="#191970" stroke="#191970" points="173.5692,-49.5091 163.2116,-51.7386 172.6989,-56.4548 173.5692,-49.5091"/>
</g>
<!-- Node3 -->
<g id="node3" class="node">
<title>Node3</title>
<g id="a_node3"><a xlink:href="../../df/d90/classDumpMvtxRawEvtHeader.html#a2a031e6ab0d08f4d75002f1fdb74cd3d" target="_top" xlink:title="DumpMvtxRawEvtHeader\l::process_Node">
<polygon fill="none" stroke="#000000" points="216,-.5 216,-32.5 362,-32.5 362,-.5 216,-.5"/>
<text text-anchor="start" x="224" y="-19.5" font-family="FreeSans" font-size="10.00" fill="#000000">DumpMvtxRawEvtHeader</text>
<text text-anchor="middle" x="289" y="-7.5" font-family="FreeSans" font-size="10.00" fill="#000000">::process_Node</text>
</a>
</g>
</g>
<!-- Node1&#45;&gt;Node3 -->
<g id="edge2" class="edge">
<title>Node1&#45;&gt;Node3</title>
<path fill="none" stroke="#191970" d="M173.462,-30.4202C187.6325,-28.713 202.1001,-26.9699 215.7891,-25.3206"/>
<polygon fill="#191970" stroke="#191970" points="172.7211,-26.9841 163.2116,-31.6552 173.5585,-33.9338 172.7211,-26.9841"/>
</g>
</g>
</svg>
