<?xml version="1.0" encoding="UTF-8" standalone="no"?>
<!DOCTYPE svg PUBLIC "-//W3C//DTD SVG 1.1//EN"
 "http://www.w3.org/Graphics/SVG/1.1/DTD/svg11.dtd">
<!-- Generated by graphviz version 2.40.1 (20161225.0304)
 -->
<!-- Title: coresoftware/blob/master/simulation/g4simulation/g4decayer/EvtGenExtDecayerPhysics.hh Pages: 1 -->
<svg width="396pt" height="134pt"
 viewBox="0.00 0.00 396.00 134.00" xmlns="http://www.w3.org/2000/svg" xmlns:xlink="http://www.w3.org/1999/xlink">
<g id="graph0" class="graph" transform="scale(1 1) rotate(0) translate(4 130)">
<title>coresoftware/blob/master/simulation/g4simulation/g4decayer/EvtGenExtDecayerPhysics.hh</title>
<!-- Node1 -->
<g id="node1" class="node">
<title>Node1</title>
<polygon fill="#bfbfbf" stroke="#000000" points="100,-81.5 100,-125.5 326,-125.5 326,-81.5 100,-81.5"/>
<text text-anchor="start" x="108" y="-112.5" font-family="FreeSans" font-size="10.00" fill="#000000">coresoftware/blob/master</text>
<text text-anchor="start" x="108" y="-100.5" font-family="FreeSans" font-size="10.00" fill="#000000">/simulation/g4simulation</text>
<text text-anchor="middle" x="213" y="-88.5" font-family="FreeSans" font-size="10.00" fill="#000000">/g4decayer/EvtGenExtDecayerPhysics.hh</text>
</g>
<!-- Node2 -->
<g id="node2" class="node">
<title>Node2</title>
<g id="a_node2"><a xlink:href="../../d3/ddb/EvtGenExtDecayerPhysics_8cc.html" target="_top" xlink:title="coresoftware/blob/master\l/simulation/g4simulation\l/g4decayer/EvtGenExtDecayerPhysics.cc">
<polygon fill="none" stroke="#000000" points="0,-.5 0,-44.5 224,-44.5 224,-.5 0,-.5"/>
<text text-anchor="start" x="8" y="-31.5" font-family="FreeSans" font-size="10.00" fill="#000000">coresoftware/blob/master</text>
<text text-anchor="start" x="8" y="-19.5" font-family="FreeSans" font-size="10.00" fill="#000000">/simulation/g4simulation</text>
<text text-anchor="middle" x="112" y="-7.5" font-family="FreeSans" font-size="10.00" fill="#000000">/g4decayer/EvtGenExtDecayerPhysics.cc</text>
</a>
</g>
</g>
<!-- Node1&#45;&gt;Node2 -->
<g id="edge1" class="edge">
<title>Node1&#45;&gt;Node2</title>
<path fill="none" stroke="#191970" d="M177.4558,-74.9943C165.0189,-65.0201 151.2518,-53.9792 139.5653,-44.6068"/>
<polygon fill="#191970" stroke="#191970" points="175.4104,-77.8404 185.4013,-81.3664 179.7899,-72.3796 175.4104,-77.8404"/>
</g>
<!-- Node3 -->
<g id="node3" class="node">
<title>Node3</title>
<g id="a_node3"><a xlink:href="../../d2/dcb/PHG4Reco_8cc.html" target="_top" xlink:title="coresoftware/blob/master\l/simulation/g4simulation\l/g4main/PHG4Reco.cc">
<polygon fill="none" stroke="#000000" points="242,-.5 242,-44.5 388,-44.5 388,-.5 242,-.5"/>
<text text-anchor="start" x="250" y="-31.5" font-family="FreeSans" font-size="10.00" fill="#000000">coresoftware/blob/master</text>
<text text-anchor="start" x="250" y="-19.5" font-family="FreeSans" font-size="10.00" fill="#000000">/simulation/g4simulation</text>
<text text-anchor="middle" x="315" y="-7.5" font-family="FreeSans" font-size="10.00" fill="#000000">/g4main/PHG4Reco.cc</text>
</a>
</g>
</g>
<!-- Node1&#45;&gt;Node3 -->
<g id="edge2" class="edge">
<title>Node1&#45;&gt;Node3</title>
<path fill="none" stroke="#191970" d="M248.8961,-74.9943C261.4561,-65.0201 275.3595,-53.9792 287.1618,-44.6068"/>
<polygon fill="#191970" stroke="#191970" points="246.5265,-72.4066 240.8719,-81.3664 250.8797,-77.8884 246.5265,-72.4066"/>
</g>
</g>
</svg>
