<?xml version="1.0" encoding="UTF-8" standalone="no"?>
<!DOCTYPE svg PUBLIC "-//W3C//DTD SVG 1.1//EN"
 "http://www.w3.org/Graphics/SVG/1.1/DTD/svg11.dtd">
<!-- Generated by graphviz version 2.40.1 (20161225.0304)
 -->
<!-- Title: PHG4ParticleGeneratorBase::Embed Pages: 1 -->
<svg width="543pt" height="717pt"
 viewBox="0.00 0.00 543.00 717.00" xmlns="http://www.w3.org/2000/svg" xmlns:xlink="http://www.w3.org/1999/xlink">
<g id="graph0" class="graph" transform="scale(1 1) rotate(0) translate(4 713)">
<title>PHG4ParticleGeneratorBase::Embed</title>
<!-- Node1 -->
<g id="node1" class="node">
<title>Node1</title>
<polygon fill="#bfbfbf" stroke="#000000" points="0,-353.5 0,-385.5 157,-385.5 157,-353.5 0,-353.5"/>
<text text-anchor="start" x="8" y="-372.5" font-family="FreeSans" font-size="10.00" fill="#000000">PHG4ParticleGeneratorBase</text>
<text text-anchor="middle" x="78.5" y="-360.5" font-family="FreeSans" font-size="10.00" fill="#000000">::Embed</text>
</g>
<!-- Node2 -->
<g id="node2" class="node">
<title>Node2</title>
<g id="a_node2"><a xlink:href="../../d3/d7f/Fun_8C.html#ab689f6a95e742654fc06aa27a8486ffd" target="_top" xlink:title="ConfigureInput">
<polygon fill="none" stroke="#000000" points="230.5,-688.5 230.5,-708.5 322.5,-708.5 322.5,-688.5 230.5,-688.5"/>
<text text-anchor="middle" x="276.5" y="-695.5" font-family="FreeSans" font-size="10.00" fill="#000000">ConfigureInput</text>
</a>
</g>
</g>
<!-- Node1&#45;&gt;Node2 -->
<g id="edge1" class="edge">
<title>Node1&#45;&gt;Node2</title>
<path fill="none" stroke="#191970" d="M80.0834,-395.7533C85.1748,-455.7216 106.3332,-603.4322 193,-679.5 203.2797,-688.5226 216.955,-693.514 230.2576,-696.2065"/>
<polygon fill="#191970" stroke="#191970" points="83.5604,-395.3178 79.3075,-385.614 76.5808,-395.8519 83.5604,-395.3178"/>
</g>
<!-- Node4 -->
<g id="node4" class="node">
<title>Node4</title>
<g id="a_node4"><a xlink:href="../../d2/d47/Fun4All__EICAnalysis__DVCS_8C.html#a84f48142243e969fd353cc8509f0ba22" target="_top" xlink:title="Fun4All_EICAnalysis_DVCS">
<polygon fill="none" stroke="#000000" points="201.5,-649.5 201.5,-669.5 351.5,-669.5 351.5,-649.5 201.5,-649.5"/>
<text text-anchor="middle" x="276.5" y="-656.5" font-family="FreeSans" font-size="10.00" fill="#000000">Fun4All_EICAnalysis_DVCS</text>
</a>
</g>
</g>
<!-- Node1&#45;&gt;Node4 -->
<g id="edge3" class="edge">
<title>Node1&#45;&gt;Node4</title>
<path fill="none" stroke="#191970" d="M81.6602,-395.8073C89.6629,-450.3202 115.8995,-575.9029 193,-640.5 197.2165,-644.0327 201.9584,-646.9412 206.9858,-649.332"/>
<polygon fill="#191970" stroke="#191970" points="85.0857,-395.0252 80.2552,-385.5957 78.151,-395.9794 85.0857,-395.0252"/>
</g>
<!-- Node5 -->
<g id="node5" class="node">
<title>Node5</title>
<g id="a_node5"><a xlink:href="../../dd/d2a/Fun4All__G4__EICDetector__LQ_8C.html#aaa01242fd6e77ca43a9d49a6d46008e4" target="_top" xlink:title="Fun4All_G4_EICDetector_LQ">
<polygon fill="none" stroke="#000000" points="198.5,-610.5 198.5,-630.5 354.5,-630.5 354.5,-610.5 198.5,-610.5"/>
<text text-anchor="middle" x="276.5" y="-617.5" font-family="FreeSans" font-size="10.00" fill="#000000">Fun4All_G4_EICDetector_LQ</text>
</a>
</g>
</g>
<!-- Node1&#45;&gt;Node5 -->
<g id="edge4" class="edge">
<title>Node1&#45;&gt;Node5</title>
<path fill="none" stroke="#191970" d="M83.7001,-395.7485C94.7495,-444.311 125.3059,-548.0853 193,-601.5 197.5518,-605.0916 202.6546,-608.0299 208.035,-610.4305"/>
<polygon fill="#191970" stroke="#191970" points="87.0651,-394.7512 81.5202,-385.7232 80.2249,-396.2386 87.0651,-394.7512"/>
</g>
<!-- Node6 -->
<g id="node6" class="node">
<title>Node6</title>
<g id="a_node6"><a xlink:href="../../d4/df5/Fun4All__G4__EICDetector__LQ__reference_8C.html#a2feefc472f17f90b3cbe74897d049f75" target="_top" xlink:title="Fun4All_G4_EICDetector\l_LQ_reference">
<polygon fill="none" stroke="#000000" points="207,-559.5 207,-591.5 346,-591.5 346,-559.5 207,-559.5"/>
<text text-anchor="start" x="215" y="-578.5" font-family="FreeSans" font-size="10.00" fill="#000000">Fun4All_G4_EICDetector</text>
<text text-anchor="middle" x="276.5" y="-566.5" font-family="FreeSans" font-size="10.00" fill="#000000">_LQ_reference</text>
</a>
</g>
</g>
<!-- Node1&#45;&gt;Node6 -->
<g id="edge5" class="edge">
<title>Node1&#45;&gt;Node6</title>
<path fill="none" stroke="#191970" d="M87.7612,-394.8924C103.3675,-434.1302 138.6266,-509.2654 193,-550.5 197.4612,-553.8832 202.3771,-556.8107 207.5231,-559.3435"/>
<polygon fill="#191970" stroke="#191970" points="91.0035,-393.5727 84.1328,-385.5077 84.4745,-396.097 91.0035,-393.5727"/>
</g>
<!-- Node7 -->
<g id="node7" class="node">
<title>Node7</title>
<g id="a_node7"><a xlink:href="../../d3/d51/Fun4All__G4__EICDetector__RICH_8C.html#a5739502b0a7a1ba782c01069f77e933f" target="_top" xlink:title="Fun4All_G4_EICDetector_RICH">
<polygon fill="none" stroke="#000000" points="193,-520.5 193,-540.5 360,-540.5 360,-520.5 193,-520.5"/>
<text text-anchor="middle" x="276.5" y="-527.5" font-family="FreeSans" font-size="10.00" fill="#000000">Fun4All_G4_EICDetector_RICH</text>
</a>
</g>
</g>
<!-- Node1&#45;&gt;Node7 -->
<g id="edge6" class="edge">
<title>Node1&#45;&gt;Node7</title>
<path fill="none" stroke="#191970" d="M91.5927,-394.4774C109.846,-426.7334 146.0523,-482.1988 193,-511.5 198.8016,-515.1209 205.2143,-518.0541 211.8311,-520.4296"/>
<polygon fill="#191970" stroke="#191970" points="94.6169,-392.7134 86.719,-385.6512 88.489,-396.0971 94.6169,-392.7134"/>
</g>
<!-- Node8 -->
<g id="node8" class="node">
<title>Node8</title>
<g id="a_node8"><a xlink:href="../../da/d2f/Fun4All__G4__fsPHENIX__FastSim_8C.html#a66fb850cae5fcaadda23b74a25ce4c9c" target="_top" xlink:title="Fun4All_G4_fsPHENIX\l_FastSim">
<polygon fill="none" stroke="#000000" points="214.5,-469.5 214.5,-501.5 338.5,-501.5 338.5,-469.5 214.5,-469.5"/>
<text text-anchor="start" x="222.5" y="-488.5" font-family="FreeSans" font-size="10.00" fill="#000000">Fun4All_G4_fsPHENIX</text>
<text text-anchor="middle" x="276.5" y="-476.5" font-family="FreeSans" font-size="10.00" fill="#000000">_FastSim</text>
</a>
</g>
</g>
<!-- Node1&#45;&gt;Node8 -->
<g id="edge7" class="edge">
<title>Node1&#45;&gt;Node8</title>
<path fill="none" stroke="#191970" d="M102.0049,-392.6762C123.9084,-413.1164 158.3199,-442.3912 193,-460.5 199.7069,-464.0021 206.9791,-467.0899 214.3401,-469.7916"/>
<polygon fill="#191970" stroke="#191970" points="104.1885,-389.9234 94.5238,-385.5824 99.372,-395.0029 104.1885,-389.9234"/>
</g>
<!-- Node9 -->
<g id="node9" class="node">
<title>Node9</title>
<g id="a_node9"><a xlink:href="../../d5/d60/analysis_2blob_2master_2HF-Jet_2TruthGeneration_2macros_2Fun4All__G4__sPHENIX_8C.html#a9a881c27e3822a95643d09c2fd73009e" target="_top" xlink:title="Fun4All_G4_sPHENIX">
<polygon fill="none" stroke="#000000" points="216,-430.5 216,-450.5 337,-450.5 337,-430.5 216,-430.5"/>
<text text-anchor="middle" x="276.5" y="-437.5" font-family="FreeSans" font-size="10.00" fill="#000000">Fun4All_G4_sPHENIX</text>
</a>
</g>
</g>
<!-- Node1&#45;&gt;Node9 -->
<g id="edge8" class="edge">
<title>Node1&#45;&gt;Node9</title>
<path fill="none" stroke="#191970" d="M118.5894,-390.1241C140.204,-400.621 167.5884,-412.9371 193,-421.5 203.1439,-424.9181 214.1868,-427.9165 224.8207,-430.4609"/>
<polygon fill="#191970" stroke="#191970" points="119.9157,-386.876 109.3978,-385.6017 116.8253,-393.157 119.9157,-386.876"/>
</g>
<!-- Node10 -->
<g id="node10" class="node">
<title>Node10</title>
<g id="a_node10"><a xlink:href="../../d3/de2/Fun4All__G4__sPHENIX__AnaGenFit_8C.html#a9bf3f2f72ed69a17e2d0c1121d48013c" target="_top" xlink:title="Fun4All_G4_sPHENIX\l_AnaGenFit">
<polygon fill="none" stroke="#000000" points="216,-379.5 216,-411.5 337,-411.5 337,-379.5 216,-379.5"/>
<text text-anchor="start" x="224" y="-398.5" font-family="FreeSans" font-size="10.00" fill="#000000">Fun4All_G4_sPHENIX</text>
<text text-anchor="middle" x="276.5" y="-386.5" font-family="FreeSans" font-size="10.00" fill="#000000">_AnaGenFit</text>
</a>
</g>
</g>
<!-- Node1&#45;&gt;Node10 -->
<g id="edge9" class="edge">
<title>Node1&#45;&gt;Node10</title>
<path fill="none" stroke="#191970" d="M167.198,-381.1472C183.6192,-383.3035 200.4227,-385.5101 215.7748,-387.526"/>
<polygon fill="#191970" stroke="#191970" points="167.4098,-377.6451 157.0392,-379.8132 166.4984,-384.5855 167.4098,-377.6451"/>
</g>
<!-- Node11 -->
<g id="node11" class="node">
<title>Node11</title>
<g id="a_node11"><a xlink:href="../../da/dd0/Fun4All__G4__sPHENIX__photonjet_8C.html#a6f18519e216acc05399e562ea57ea77c" target="_top" xlink:title="Fun4All_G4_sPHENIX\l_photonjet">
<polygon fill="none" stroke="#000000" points="216,-328.5 216,-360.5 337,-360.5 337,-328.5 216,-328.5"/>
<text text-anchor="start" x="224" y="-347.5" font-family="FreeSans" font-size="10.00" fill="#000000">Fun4All_G4_sPHENIX</text>
<text text-anchor="middle" x="276.5" y="-335.5" font-family="FreeSans" font-size="10.00" fill="#000000">_photonjet</text>
</a>
</g>
</g>
<!-- Node1&#45;&gt;Node11 -->
<g id="edge10" class="edge">
<title>Node1&#45;&gt;Node11</title>
<path fill="none" stroke="#191970" d="M167.198,-358.3008C183.6192,-356.2274 200.4227,-354.1057 215.7748,-352.1673"/>
<polygon fill="#191970" stroke="#191970" points="166.522,-354.8582 157.0392,-359.5834 167.3989,-361.8031 166.522,-354.8582"/>
</g>
<!-- Node12 -->
<g id="node12" class="node">
<title>Node12</title>
<g id="a_node12"><a xlink:href="../../da/d85/Fun4All__G4__sPHENIX__photons_8C.html#a02fbbd59878fe1299f58ed187e7214ba" target="_top" xlink:title="Fun4All_G4_sPHENIX\l_photons">
<polygon fill="none" stroke="#000000" points="216,-277.5 216,-309.5 337,-309.5 337,-277.5 216,-277.5"/>
<text text-anchor="start" x="224" y="-296.5" font-family="FreeSans" font-size="10.00" fill="#000000">Fun4All_G4_sPHENIX</text>
<text text-anchor="middle" x="276.5" y="-284.5" font-family="FreeSans" font-size="10.00" fill="#000000">_photons</text>
</a>
</g>
</g>
<!-- Node1&#45;&gt;Node12 -->
<g id="edge11" class="edge">
<title>Node1&#45;&gt;Node12</title>
<path fill="none" stroke="#191970" d="M122.0411,-349.1422C143.2284,-339.5831 169.2054,-328.3693 193,-319.5 202.2474,-316.0531 212.182,-312.6803 221.8587,-309.5664"/>
<polygon fill="#191970" stroke="#191970" points="120.3233,-346.0784 112.6685,-353.4035 123.2205,-352.4508 120.3233,-346.0784"/>
</g>
<!-- Node13 -->
<g id="node13" class="node">
<title>Node13</title>
<g id="a_node13"><a xlink:href="../../de/d55/Fun4All__G4__sPHENIX__truthphotonjet_8C.html#a48a6f4503eaa1b3793d8ae572aa795b9" target="_top" xlink:title="Fun4All_G4_sPHENIX\l_truthphotonjet">
<polygon fill="none" stroke="#000000" points="216,-226.5 216,-258.5 337,-258.5 337,-226.5 216,-226.5"/>
<text text-anchor="start" x="224" y="-245.5" font-family="FreeSans" font-size="10.00" fill="#000000">Fun4All_G4_sPHENIX</text>
<text text-anchor="middle" x="276.5" y="-233.5" font-family="FreeSans" font-size="10.00" fill="#000000">_truthphotonjet</text>
</a>
</g>
</g>
<!-- Node1&#45;&gt;Node13 -->
<g id="edge12" class="edge">
<title>Node1&#45;&gt;Node13</title>
<path fill="none" stroke="#191970" d="M99.8081,-345.5984C121.2894,-322.8337 156.42,-289.0743 193,-268.5 200.1461,-264.4807 207.9927,-261.0002 215.9264,-258.01"/>
<polygon fill="#191970" stroke="#191970" points="97.0351,-343.4412 92.7991,-353.1524 102.1665,-348.2024 97.0351,-343.4412"/>
</g>
<!-- Node14 -->
<g id="node14" class="node">
<title>Node14</title>
<g id="a_node14"><a xlink:href="../../da/db5/Fun4All__G4__W_8C.html#ad4745423f42356b6b3cb65bbbc1e917e" target="_top" xlink:title="Fun4All_G4_W">
<polygon fill="none" stroke="#000000" points="232.5,-187.5 232.5,-207.5 320.5,-207.5 320.5,-187.5 232.5,-187.5"/>
<text text-anchor="middle" x="276.5" y="-194.5" font-family="FreeSans" font-size="10.00" fill="#000000">Fun4All_G4_W</text>
</a>
</g>
</g>
<!-- Node1&#45;&gt;Node14 -->
<g id="edge13" class="edge">
<title>Node1&#45;&gt;Node14</title>
<path fill="none" stroke="#191970" d="M90.637,-343.9167C108.2525,-309.6529 144.2089,-249.4764 193,-217.5 204.5949,-209.901 218.7851,-205.1837 232.1548,-202.2572"/>
<polygon fill="#191970" stroke="#191970" points="87.3094,-342.7452 85.9619,-353.254 93.5687,-345.8792 87.3094,-342.7452"/>
</g>
<!-- Node15 -->
<g id="node15" class="node">
<title>Node15</title>
<g id="a_node15"><a xlink:href="../../d4/dfa/Fun4All__Generator__Display_8C.html#af87924a94b22e18901f0d64805565f09" target="_top" xlink:title="Fun4All_Generator_Display">
<polygon fill="none" stroke="#000000" points="200.5,-148.5 200.5,-168.5 352.5,-168.5 352.5,-148.5 200.5,-148.5"/>
<text text-anchor="middle" x="276.5" y="-155.5" font-family="FreeSans" font-size="10.00" fill="#000000">Fun4All_Generator_Display</text>
</a>
</g>
</g>
<!-- Node1&#45;&gt;Node15 -->
<g id="edge14" class="edge">
<title>Node1&#45;&gt;Node15</title>
<path fill="none" stroke="#191970" d="M86.5517,-343.8466C100.9366,-302.3769 135.094,-220.9803 193,-178.5 198.5288,-174.444 204.7667,-171.1999 211.2804,-168.6069"/>
<polygon fill="#191970" stroke="#191970" points="83.1818,-342.8875 83.3181,-353.4815 89.818,-345.1148 83.1818,-342.8875"/>
</g>
<!-- Node16 -->
<g id="node16" class="node">
<title>Node16</title>
<g id="a_node16"><a xlink:href="../../d4/d65/Fun4All__single__particle_8C.html#a8a492b5dbead494bfdddbebde8a49b0e" target="_top" xlink:title="Fun4All_single_particle">
<polygon fill="none" stroke="#000000" points="210.5,-109.5 210.5,-129.5 342.5,-129.5 342.5,-109.5 210.5,-109.5"/>
<text text-anchor="middle" x="276.5" y="-116.5" font-family="FreeSans" font-size="10.00" fill="#000000">Fun4All_single_particle</text>
</a>
</g>
</g>
<!-- Node1&#45;&gt;Node16 -->
<g id="edge15" class="edge">
<title>Node1&#45;&gt;Node16</title>
<path fill="none" stroke="#191970" d="M83.8275,-343.5445C95.0892,-295.512 125.9851,-192.8103 193,-139.5 198.1329,-135.4168 203.968,-132.1464 210.1124,-129.53"/>
<polygon fill="#191970" stroke="#191970" points="80.3771,-342.9358 81.6021,-353.4596 87.2072,-344.4688 80.3771,-342.9358"/>
</g>
<!-- Node17 -->
<g id="node17" class="node">
<title>Node17</title>
<g id="a_node17"><a xlink:href="../../dc/d7e/G4__Input_8C.html#a3aaa44380554d19cfcd8a7ab373031ed" target="_top" xlink:title="InputInit">
<polygon fill="none" stroke="#000000" points="247,-70.5 247,-90.5 306,-90.5 306,-70.5 247,-70.5"/>
<text text-anchor="middle" x="276.5" y="-77.5" font-family="FreeSans" font-size="10.00" fill="#000000">InputInit</text>
</a>
</g>
</g>
<!-- Node1&#45;&gt;Node17 -->
<g id="edge16" class="edge">
<title>Node1&#45;&gt;Node17</title>
<path fill="none" stroke="#191970" d="M81.8409,-343.0656C90.1415,-288.8723 116.8431,-164.872 193,-100.5 207.9137,-87.8941 229.4291,-82.9524 246.8846,-81.1321"/>
<polygon fill="#191970" stroke="#191970" points="78.3384,-342.8332 80.3772,-353.23 85.2669,-343.831 78.3384,-342.8332"/>
</g>
<!-- Node22 -->
<g id="node22" class="node">
<title>Node22</title>
<g id="a_node22"><a xlink:href="../../d0/d99/Jin__BJet_8C.html#a36169bfee2ed7efda633944d12aebad9" target="_top" xlink:title="Jin_BJet">
<polygon fill="none" stroke="#000000" points="249,-31.5 249,-51.5 304,-51.5 304,-31.5 249,-31.5"/>
<text text-anchor="middle" x="276.5" y="-38.5" font-family="FreeSans" font-size="10.00" fill="#000000">Jin_BJet</text>
</a>
</g>
</g>
<!-- Node1&#45;&gt;Node22 -->
<g id="edge21" class="edge">
<title>Node1&#45;&gt;Node22</title>
<path fill="none" stroke="#191970" d="M80.2379,-343.0603C85.6385,-283.3452 107.3767,-137.3557 193,-61.5 208.1745,-48.0566 230.792,-43.2522 248.6617,-41.7021"/>
<polygon fill="#191970" stroke="#191970" points="76.7379,-342.9171 79.4078,-353.17 83.7144,-343.49 76.7379,-342.9171"/>
</g>
<!-- Node3 -->
<g id="node3" class="node">
<title>Node3</title>
<g id="a_node3"><a xlink:href="../../d3/d7f/Fun_8C.html#af69a3eef3ff244bb51f5740c6ecb5432" target="_top" xlink:title="Fun">
<polygon fill="none" stroke="#000000" points="448.5,-688.5 448.5,-708.5 482.5,-708.5 482.5,-688.5 448.5,-688.5"/>
<text text-anchor="middle" x="465.5" y="-695.5" font-family="FreeSans" font-size="10.00" fill="#000000">Fun</text>
</a>
</g>
</g>
<!-- Node2&#45;&gt;Node3 -->
<g id="edge2" class="edge">
<title>Node2&#45;&gt;Node3</title>
<path fill="none" stroke="#191970" d="M332.7912,-698.5C372.323,-698.5 422.5822,-698.5 448.4334,-698.5"/>
<polygon fill="#191970" stroke="#191970" points="332.7346,-695.0001 322.7346,-698.5 332.7346,-702.0001 332.7346,-695.0001"/>
</g>
<!-- Node18 -->
<g id="node18" class="node">
<title>Node18</title>
<g id="a_node18"><a xlink:href="../../d4/de9/Fun4All__AnaTutorial__sPHENIX_8C.html#a5028836c74f0bebec560d3ab54daa022" target="_top" xlink:title="Fun4All_AnaTutorial\l_sPHENIX">
<polygon fill="none" stroke="#000000" points="408,-141.5 408,-173.5 523,-173.5 523,-141.5 408,-141.5"/>
<text text-anchor="start" x="416" y="-160.5" font-family="FreeSans" font-size="10.00" fill="#000000">Fun4All_AnaTutorial</text>
<text text-anchor="middle" x="465.5" y="-148.5" font-family="FreeSans" font-size="10.00" fill="#000000">_sPHENIX</text>
</a>
</g>
</g>
<!-- Node17&#45;&gt;Node18 -->
<g id="edge17" class="edge">
<title>Node17&#45;&gt;Node18</title>
<path fill="none" stroke="#191970" d="M316.4186,-85.9237C330.7166,-88.9186 346.6001,-93.5091 360,-100.5 378.9796,-110.4019 377.5946,-121.5678 396,-132.5 401.5124,-135.7742 407.5227,-138.723 413.6262,-141.3488"/>
<polygon fill="#191970" stroke="#191970" points="316.823,-82.438 306.3459,-84.0134 315.5186,-89.3154 316.823,-82.438"/>
</g>
<!-- Node19 -->
<g id="node19" class="node">
<title>Node19</title>
<g id="a_node19"><a xlink:href="../../d6/d14/Fun4All__AnaTutorial__sPHENIX__Jets_8C.html#a61b352bca84476d24b0ff40991b27900" target="_top" xlink:title="Fun4All_AnaTutorial\l_sPHENIX_Jets">
<polygon fill="none" stroke="#000000" points="408,-90.5 408,-122.5 523,-122.5 523,-90.5 408,-90.5"/>
<text text-anchor="start" x="416" y="-109.5" font-family="FreeSans" font-size="10.00" fill="#000000">Fun4All_AnaTutorial</text>
<text text-anchor="middle" x="465.5" y="-97.5" font-family="FreeSans" font-size="10.00" fill="#000000">_sPHENIX_Jets</text>
</a>
</g>
</g>
<!-- Node17&#45;&gt;Node19 -->
<g id="edge18" class="edge">
<title>Node17&#45;&gt;Node19</title>
<path fill="none" stroke="#191970" d="M316.0927,-85.9466C342.6165,-89.5954 377.9763,-94.4597 407.6381,-98.5402"/>
<polygon fill="#191970" stroke="#191970" points="316.415,-82.4581 306.0313,-84.5625 315.4609,-89.3928 316.415,-82.4581"/>
</g>
<!-- Node20 -->
<g id="node20" class="node">
<title>Node20</title>
<g id="a_node20"><a xlink:href="../../df/dd8/Fun4All__G4__EICDetector__AnaTutorial_8C.html#a598434aca3dac5cdb0ca67ccc548d865" target="_top" xlink:title="Fun4All_G4_EICDetector\l_AnaTutorial">
<polygon fill="none" stroke="#000000" points="396,-39.5 396,-71.5 535,-71.5 535,-39.5 396,-39.5"/>
<text text-anchor="start" x="404" y="-58.5" font-family="FreeSans" font-size="10.00" fill="#000000">Fun4All_G4_EICDetector</text>
<text text-anchor="middle" x="465.5" y="-46.5" font-family="FreeSans" font-size="10.00" fill="#000000">_AnaTutorial</text>
</a>
</g>
</g>
<!-- Node17&#45;&gt;Node20 -->
<g id="edge19" class="edge">
<title>Node17&#45;&gt;Node20</title>
<path fill="none" stroke="#191970" d="M316.1251,-75.2586C339.1909,-72.2076 368.931,-68.2737 395.7945,-64.7203"/>
<polygon fill="#191970" stroke="#191970" points="315.4859,-71.8126 306.0313,-76.5938 316.4039,-78.7521 315.4859,-71.8126"/>
</g>
<!-- Node21 -->
<g id="node21" class="node">
<title>Node21</title>
<g id="a_node21"><a xlink:href="../../d1/d19/macros_2blob_2master_2detectors_2sPHENIX_2Fun4All__G4__sPHENIX_8C.html#a4102cd3e195333de974409428a2e6dae" target="_top" xlink:title="Fun4All_G4_sPHENIX">
<polygon fill="none" stroke="#000000" points="405,-.5 405,-20.5 526,-20.5 526,-.5 405,-.5"/>
<text text-anchor="middle" x="465.5" y="-7.5" font-family="FreeSans" font-size="10.00" fill="#000000">Fun4All_G4_sPHENIX</text>
</a>
</g>
</g>
<!-- Node17&#45;&gt;Node21 -->
<g id="edge20" class="edge">
<title>Node17&#45;&gt;Node21</title>
<path fill="none" stroke="#191970" d="M316.3555,-75.511C330.6469,-72.6828 346.5424,-68.2907 360,-61.5 378.8507,-51.9879 377.4254,-40.5404 396,-30.5 403.4003,-26.4998 411.6876,-23.2235 419.8906,-20.5662"/>
<polygon fill="#191970" stroke="#191970" points="315.5206,-72.1046 306.2904,-77.3059 316.7496,-78.9958 315.5206,-72.1046"/>
</g>
</g>
</svg>
