<?xml version="1.0" encoding="UTF-8" standalone="no"?>
<!DOCTYPE svg PUBLIC "-//W3C//DTD SVG 1.1//EN"
 "http://www.w3.org/Graphics/SVG/1.1/DTD/svg11.dtd">
<!-- Generated by graphviz version 2.40.1 (20161225.0304)
 -->
<!-- Title: Acts::detail_lt::TrackStateProxy::setUncalibratedSourceLink Pages: 1 -->
<svg width="755pt" height="188pt"
 viewBox="0.00 0.00 755.00 188.00" xmlns="http://www.w3.org/2000/svg" xmlns:xlink="http://www.w3.org/1999/xlink">
<g id="graph0" class="graph" transform="scale(1 1) rotate(0) translate(4 184)">
<title>Acts::detail_lt::TrackStateProxy::setUncalibratedSourceLink</title>
<!-- Node1 -->
<g id="node1" class="node">
<title>Node1</title>
<polygon fill="#bfbfbf" stroke="#000000" points="0,-76.5 0,-108.5 186,-108.5 186,-76.5 0,-76.5"/>
<text text-anchor="start" x="8" y="-95.5" font-family="FreeSans" font-size="10.00" fill="#000000">Acts::detail_lt::TrackState</text>
<text text-anchor="middle" x="93" y="-83.5" font-family="FreeSans" font-size="10.00" fill="#000000">Proxy::setUncalibratedSourceLink</text>
</g>
<!-- Node2 -->
<g id="node2" class="node">
<title>Node2</title>
<g id="a_node2"><a xlink:href="../../d4/d29/classCalibrator.html#a84a0727fe35e560152e7a4d26491b975" target="_top" xlink:title="Calibrator::calibrate">
<polygon fill="none" stroke="#000000" points="257.5,-153.5 257.5,-173.5 374.5,-173.5 374.5,-153.5 257.5,-153.5"/>
<text text-anchor="middle" x="316" y="-160.5" font-family="FreeSans" font-size="10.00" fill="#000000">Calibrator::calibrate</text>
</a>
</g>
</g>
<!-- Node1&#45;&gt;Node2 -->
<g id="edge1" class="edge">
<title>Node1&#45;&gt;Node2</title>
<path fill="none" stroke="#191970" d="M137.1033,-112.6248C161.6956,-123.2467 193.107,-135.8368 222,-144.5 233.4826,-147.9429 245.9417,-150.9521 257.9199,-153.4992"/>
<polygon fill="#191970" stroke="#191970" points="138.257,-109.3094 127.6921,-108.5127 135.4542,-115.7238 138.257,-109.3094"/>
</g>
<!-- Node5 -->
<g id="node5" class="node">
<title>Node5</title>
<g id="a_node5"><a xlink:href="../../da/dfd/structActsExamples_1_1RefittingCalibrator.html#a3c028c96394b966a08b006ce606ec3db" target="_top" xlink:title="ActsExamples::RefittingCalibrator\l::calibrate">
<polygon fill="none" stroke="#000000" points="222,-102.5 222,-134.5 410,-134.5 410,-102.5 222,-102.5"/>
<text text-anchor="start" x="230" y="-121.5" font-family="FreeSans" font-size="10.00" fill="#000000">ActsExamples::RefittingCalibrator</text>
<text text-anchor="middle" x="316" y="-109.5" font-family="FreeSans" font-size="10.00" fill="#000000">::calibrate</text>
</a>
</g>
</g>
<!-- Node1&#45;&gt;Node5 -->
<g id="edge4" class="edge">
<title>Node1&#45;&gt;Node5</title>
<path fill="none" stroke="#191970" d="M196.479,-104.5648C204.8757,-105.5438 213.3334,-106.5299 221.6603,-107.5007"/>
<polygon fill="#191970" stroke="#191970" points="196.6181,-101.0574 186.28,-103.3757 195.8073,-108.0103 196.6181,-101.0574"/>
</g>
<!-- Node6 -->
<g id="node6" class="node">
<title>Node6</title>
<g id="a_node6"><a xlink:href="../../db/dab/classActsExamples_1_1PassThroughCalibrator.html#a5366f4b10b2b9fb3bc9af87517d077df" target="_top" xlink:title="ActsExamples::PassThrough\lCalibrator::calibrate">
<polygon fill="none" stroke="#000000" points="236.5,-51.5 236.5,-83.5 395.5,-83.5 395.5,-51.5 236.5,-51.5"/>
<text text-anchor="start" x="244.5" y="-70.5" font-family="FreeSans" font-size="10.00" fill="#000000">ActsExamples::PassThrough</text>
<text text-anchor="middle" x="316" y="-58.5" font-family="FreeSans" font-size="10.00" fill="#000000">Calibrator::calibrate</text>
</a>
</g>
</g>
<!-- Node1&#45;&gt;Node6 -->
<g id="edge5" class="edge">
<title>Node1&#45;&gt;Node6</title>
<path fill="none" stroke="#191970" d="M196.4451,-80.903C209.7941,-79.4065 223.2978,-77.8926 236.1857,-76.4478"/>
<polygon fill="#191970" stroke="#191970" points="195.8278,-77.4502 186.28,-82.0426 196.6077,-84.4066 195.8278,-77.4502"/>
</g>
<!-- Node7 -->
<g id="node7" class="node">
<title>Node7</title>
<g id="a_node7"><a xlink:href="../../d2/d14/classActs_1_1detail__lt_1_1TrackStateProxy.html#a1b51ee0c0d74f78b8e39752572e72f2b" target="_top" xlink:title="Acts::detail_lt::TrackState\lProxy::copyFrom">
<polygon fill="none" stroke="#000000" points="243.5,-.5 243.5,-32.5 388.5,-32.5 388.5,-.5 243.5,-.5"/>
<text text-anchor="start" x="251.5" y="-19.5" font-family="FreeSans" font-size="10.00" fill="#000000">Acts::detail_lt::TrackState</text>
<text text-anchor="middle" x="316" y="-7.5" font-family="FreeSans" font-size="10.00" fill="#000000">Proxy::copyFrom</text>
</a>
</g>
</g>
<!-- Node1&#45;&gt;Node7 -->
<g id="edge6" class="edge">
<title>Node1&#45;&gt;Node7</title>
<path fill="none" stroke="#191970" d="M140.602,-72.7394C164.7733,-63.0413 194.7247,-51.5329 222,-42.5 232.4479,-39.0399 243.6502,-35.6607 254.5504,-32.5444"/>
<polygon fill="#191970" stroke="#191970" points="139.263,-69.5054 131.3015,-76.4958 141.8846,-75.996 139.263,-69.5054"/>
</g>
<!-- Node3 -->
<g id="node3" class="node">
<title>Node3</title>
<g id="a_node3"><a xlink:href="../../d0/dc0/classCalibratorAdapter.html#a8268d93b04a01f1c10804bdd3e4d9c83" target="_top" xlink:title="CalibratorAdapter::\lcalibrate">
<polygon fill="none" stroke="#000000" points="446,-147.5 446,-179.5 558,-179.5 558,-147.5 446,-147.5"/>
<text text-anchor="start" x="454" y="-166.5" font-family="FreeSans" font-size="10.00" fill="#000000">CalibratorAdapter::</text>
<text text-anchor="middle" x="502" y="-154.5" font-family="FreeSans" font-size="10.00" fill="#000000">calibrate</text>
</a>
</g>
</g>
<!-- Node2&#45;&gt;Node3 -->
<g id="edge2" class="edge">
<title>Node2&#45;&gt;Node3</title>
<path fill="none" stroke="#191970" d="M384.6578,-163.5C404.8263,-163.5 426.6377,-163.5 445.9209,-163.5"/>
<polygon fill="#191970" stroke="#191970" points="384.5963,-160.0001 374.5963,-163.5 384.5962,-167.0001 384.5963,-160.0001"/>
</g>
<!-- Node4 -->
<g id="node4" class="node">
<title>Node4</title>
<g id="a_node4"><a xlink:href="../../d3/db8/structsPHENIXTrackFitterFunctionImpl.html#a3885e3da52004316f7350566ef2def55" target="_top" xlink:title="sPHENIXTrackFitterFunction\lImpl::operator()">
<polygon fill="none" stroke="#000000" points="594,-147.5 594,-179.5 747,-179.5 747,-147.5 594,-147.5"/>
<text text-anchor="start" x="602" y="-166.5" font-family="FreeSans" font-size="10.00" fill="#000000">sPHENIXTrackFitterFunction</text>
<text text-anchor="middle" x="670.5" y="-154.5" font-family="FreeSans" font-size="10.00" fill="#000000">Impl::operator()</text>
</a>
</g>
</g>
<!-- Node3&#45;&gt;Node4 -->
<g id="edge3" class="edge">
<title>Node3&#45;&gt;Node4</title>
<path fill="none" stroke="#191970" d="M568.2441,-163.5C576.6763,-163.5 585.3609,-163.5 593.9384,-163.5"/>
<polygon fill="#191970" stroke="#191970" points="568.1081,-160.0001 558.1081,-163.5 568.108,-167.0001 568.1081,-160.0001"/>
</g>
</g>
</svg>
