<?xml version="1.0" encoding="UTF-8" standalone="no"?>
<!DOCTYPE svg PUBLIC "-//W3C//DTD SVG 1.1//EN"
 "http://www.w3.org/Graphics/SVG/1.1/DTD/svg11.dtd">
<!-- Generated by graphviz version 2.40.1 (20161225.0304)
 -->
<!-- Title: ActsExamples::MaterialMapping::execute Pages: 1 -->
<svg width="591pt" height="107pt"
 viewBox="0.00 0.00 591.00 107.00" xmlns="http://www.w3.org/2000/svg" xmlns:xlink="http://www.w3.org/1999/xlink">
<g id="graph0" class="graph" transform="scale(1 1) rotate(0) translate(4 103)">
<title>ActsExamples::MaterialMapping::execute</title>
<!-- Node1 -->
<g id="node1" class="node">
<title>Node1</title>
<polygon fill="#bfbfbf" stroke="#000000" points="0,-33.5 0,-65.5 179,-65.5 179,-33.5 0,-33.5"/>
<text text-anchor="start" x="8" y="-52.5" font-family="FreeSans" font-size="10.00" fill="#000000">ActsExamples::MaterialMapping</text>
<text text-anchor="middle" x="89.5" y="-40.5" font-family="FreeSans" font-size="10.00" fill="#000000">::execute</text>
</g>
<!-- Node2 -->
<g id="node2" class="node">
<title>Node2</title>
<g id="a_node2"><a xlink:href="../../d7/dad/classActsExamples_1_1WhiteBoard.html#a560ea4fc9b1f4a36c345eb054cea56cb" target="_top" xlink:title="ActsExamples::WhiteBoard::add">
<polygon fill="none" stroke="#000000" points="215,-78.5 215,-98.5 394,-98.5 394,-78.5 215,-78.5"/>
<text text-anchor="middle" x="304.5" y="-85.5" font-family="FreeSans" font-size="10.00" fill="#000000">ActsExamples::WhiteBoard::add</text>
</a>
</g>
</g>
<!-- Node1&#45;&gt;Node2 -->
<g id="edge1" class="edge">
<title>Node1&#45;&gt;Node2</title>
<path fill="none" stroke="#191970" d="M177.8795,-65.5316C198.3941,-69.2529 219.8687,-73.1483 239.1838,-76.6519"/>
<polygon fill="#191970" stroke="#191970" points="238.6069,-80.1043 249.071,-78.4454 239.8563,-73.2167 238.6069,-80.1043"/>
</g>
<!-- Node3 -->
<g id="node3" class="node">
<title>Node3</title>
<g id="a_node3"><a xlink:href="../../d7/dad/classActsExamples_1_1WhiteBoard.html#ac03c687110ea21a40d383325a7c7b0b8" target="_top" xlink:title="ActsExamples::WhiteBoard::get">
<polygon fill="none" stroke="#000000" points="215.5,-39.5 215.5,-59.5 393.5,-59.5 393.5,-39.5 215.5,-39.5"/>
<text text-anchor="middle" x="304.5" y="-46.5" font-family="FreeSans" font-size="10.00" fill="#000000">ActsExamples::WhiteBoard::get</text>
</a>
</g>
</g>
<!-- Node1&#45;&gt;Node3 -->
<g id="edge2" class="edge">
<title>Node1&#45;&gt;Node3</title>
<path fill="none" stroke="#191970" d="M179.1225,-49.5C187.7353,-49.5 196.5057,-49.5 205.204,-49.5"/>
<polygon fill="#191970" stroke="#191970" points="205.3682,-53.0001 215.3682,-49.5 205.3681,-46.0001 205.3682,-53.0001"/>
</g>
<!-- Node5 -->
<g id="node5" class="node">
<title>Node5</title>
<g id="a_node5"><a xlink:href="../../d0/da7/namespacetesting_1_1internal.html#a0f6d06bf8c3093b9c22bb08723db201e" target="_top" xlink:title="testing::internal::move">
<polygon fill="none" stroke="#000000" points="238.5,-.5 238.5,-20.5 370.5,-20.5 370.5,-.5 238.5,-.5"/>
<text text-anchor="middle" x="304.5" y="-7.5" font-family="FreeSans" font-size="10.00" fill="#000000">testing::internal::move</text>
</a>
</g>
</g>
<!-- Node1&#45;&gt;Node5 -->
<g id="edge4" class="edge">
<title>Node1&#45;&gt;Node5</title>
<path fill="none" stroke="#191970" d="M177.8795,-33.4684C198.3941,-29.7471 219.8687,-25.8517 239.1838,-22.3481"/>
<polygon fill="#191970" stroke="#191970" points="239.8563,-25.7833 249.071,-20.5546 238.6069,-18.8957 239.8563,-25.7833"/>
</g>
<!-- Node4 -->
<g id="node4" class="node">
<title>Node4</title>
<g id="a_node4"><a xlink:href="../../d5/dd6/structActsExamples_1_1WhiteBoard_1_1IHolder.html#aa1264c6da568fd3833b53e4b7e73b4e0" target="_top" xlink:title="ActsExamples::WhiteBoard\l::IHolder::type">
<polygon fill="none" stroke="#000000" points="430,-33.5 430,-65.5 583,-65.5 583,-33.5 430,-33.5"/>
<text text-anchor="start" x="438" y="-52.5" font-family="FreeSans" font-size="10.00" fill="#000000">ActsExamples::WhiteBoard</text>
<text text-anchor="middle" x="506.5" y="-40.5" font-family="FreeSans" font-size="10.00" fill="#000000">::IHolder::type</text>
</a>
</g>
</g>
<!-- Node3&#45;&gt;Node4 -->
<g id="edge3" class="edge">
<title>Node3&#45;&gt;Node4</title>
<path fill="none" stroke="#191970" d="M393.6881,-49.5C402.3481,-49.5 411.1255,-49.5 419.7609,-49.5"/>
<polygon fill="#191970" stroke="#191970" points="419.8175,-53.0001 429.8174,-49.5 419.8174,-46.0001 419.8175,-53.0001"/>
</g>
</g>
</svg>
