<?xml version="1.0" encoding="UTF-8" standalone="no"?>
<!DOCTYPE svg PUBLIC "-//W3C//DTD SVG 1.1//EN"
 "http://www.w3.org/Graphics/SVG/1.1/DTD/svg11.dtd">
<!-- Generated by graphviz version 2.40.1 (20161225.0304)
 -->
<!-- Title: acts/blob/sPHENIX/Examples/Io/Csv/include/ActsExamples/Io/Csv/CsvOptionsReader.hpp Pages: 1 -->
<svg width="1132pt" height="134pt"
 viewBox="0.00 0.00 1131.50 134.00" xmlns="http://www.w3.org/2000/svg" xmlns:xlink="http://www.w3.org/1999/xlink">
<g id="graph0" class="graph" transform="scale(1 1) rotate(0) translate(4 130)">
<title>acts/blob/sPHENIX/Examples/Io/Csv/include/ActsExamples/Io/Csv/CsvOptionsReader.hpp</title>
<!-- Node1 -->
<g id="node1" class="node">
<title>Node1</title>
<polygon fill="#bfbfbf" stroke="#000000" points="482.5,-81.5 482.5,-125.5 651.5,-125.5 651.5,-81.5 482.5,-81.5"/>
<text text-anchor="start" x="490.5" y="-112.5" font-family="FreeSans" font-size="10.00" fill="#000000">acts/blob/sPHENIX/Examples</text>
<text text-anchor="start" x="490.5" y="-100.5" font-family="FreeSans" font-size="10.00" fill="#000000">/Io/Csv/include/ActsExamples</text>
<text text-anchor="middle" x="567" y="-88.5" font-family="FreeSans" font-size="10.00" fill="#000000">/Io/Csv/CsvOptionsReader.hpp</text>
</g>
<!-- Node2 -->
<g id="node2" class="node">
<title>Node2</title>
<g id="a_node2"><a xlink:href="../../da/d2b/CsvOptionsReader_8cpp.html" target="_top" xlink:title="acts/blob/sPHENIX/Examples\l/Io/Csv/src/CsvOptionsReader.cpp">
<polygon fill="none" stroke="#000000" points="0,-6.5 0,-38.5 186,-38.5 186,-6.5 0,-6.5"/>
<text text-anchor="start" x="8" y="-25.5" font-family="FreeSans" font-size="10.00" fill="#000000">acts/blob/sPHENIX/Examples</text>
<text text-anchor="middle" x="93" y="-13.5" font-family="FreeSans" font-size="10.00" fill="#000000">/Io/Csv/src/CsvOptionsReader.cpp</text>
</a>
</g>
</g>
<!-- Node1&#45;&gt;Node2 -->
<g id="edge1" class="edge">
<title>Node1&#45;&gt;Node2</title>
<path fill="none" stroke="#191970" d="M472.3208,-90.3492C396.7545,-79.4446 288.2999,-62.8798 194,-45 183.6747,-43.0423 172.7942,-40.8043 162.1515,-38.5165"/>
<polygon fill="#191970" stroke="#191970" points="471.8996,-93.8246 482.296,-91.7834 472.8959,-86.8958 471.8996,-93.8246"/>
</g>
<!-- Node3 -->
<g id="node3" class="node">
<title>Node3</title>
<g id="a_node3"><a xlink:href="../../da/dc9/GenericReadCsvExample_8cpp.html" target="_top" xlink:title="acts/blob/sPHENIX/Examples\l/Run/ReadCsv/GenericReadCsvExample.cpp">
<polygon fill="none" stroke="#000000" points="203.5,-6.5 203.5,-38.5 442.5,-38.5 442.5,-6.5 203.5,-6.5"/>
<text text-anchor="start" x="211.5" y="-25.5" font-family="FreeSans" font-size="10.00" fill="#000000">acts/blob/sPHENIX/Examples</text>
<text text-anchor="middle" x="323" y="-13.5" font-family="FreeSans" font-size="10.00" fill="#000000">/Run/ReadCsv/GenericReadCsvExample.cpp</text>
</a>
</g>
</g>
<!-- Node1&#45;&gt;Node3 -->
<g id="edge2" class="edge">
<title>Node1&#45;&gt;Node3</title>
<path fill="none" stroke="#191970" d="M490.9081,-78.24C451.93,-65.3005 405.6322,-49.9312 371.5342,-38.6118"/>
<polygon fill="#191970" stroke="#191970" points="490.0548,-81.6445 500.6482,-81.4734 492.2602,-75.001 490.0548,-81.6445"/>
</g>
<!-- Node4 -->
<g id="node4" class="node">
<title>Node4</title>
<g id="a_node4"><a xlink:href="../../df/dea/RecCKFTracks_8cpp.html" target="_top" xlink:title="acts/blob/sPHENIX/Examples\l/Run/Reconstruction/RecCKFTracks.cpp">
<polygon fill="none" stroke="#000000" points="460.5,-6.5 460.5,-38.5 673.5,-38.5 673.5,-6.5 460.5,-6.5"/>
<text text-anchor="start" x="468.5" y="-25.5" font-family="FreeSans" font-size="10.00" fill="#000000">acts/blob/sPHENIX/Examples</text>
<text text-anchor="middle" x="567" y="-13.5" font-family="FreeSans" font-size="10.00" fill="#000000">/Run/Reconstruction/RecCKFTracks.cpp</text>
</a>
</g>
</g>
<!-- Node1&#45;&gt;Node4 -->
<g id="edge3" class="edge">
<title>Node1&#45;&gt;Node4</title>
<path fill="none" stroke="#191970" d="M567,-71.0737C567,-59.9468 567,-47.9724 567,-38.6969"/>
<polygon fill="#191970" stroke="#191970" points="563.5001,-71.3664 567,-81.3664 570.5001,-71.3664 563.5001,-71.3664"/>
</g>
<!-- Node5 -->
<g id="node5" class="node">
<title>Node5</title>
<g id="a_node5"><a xlink:href="../../de/dcb/RecTruthTracks_8cpp.html" target="_top" xlink:title="acts/blob/sPHENIX/Examples\l/Run/Reconstruction/RecTruthTracks.cpp">
<polygon fill="none" stroke="#000000" points="691.5,-6.5 691.5,-38.5 910.5,-38.5 910.5,-6.5 691.5,-6.5"/>
<text text-anchor="start" x="699.5" y="-25.5" font-family="FreeSans" font-size="10.00" fill="#000000">acts/blob/sPHENIX/Examples</text>
<text text-anchor="middle" x="801" y="-13.5" font-family="FreeSans" font-size="10.00" fill="#000000">/Run/Reconstruction/RecTruthTracks.cpp</text>
</a>
</g>
</g>
<!-- Node1&#45;&gt;Node5 -->
<g id="edge4" class="edge">
<title>Node1&#45;&gt;Node5</title>
<path fill="none" stroke="#191970" d="M640.4489,-78.0754C677.7301,-65.1704 721.8929,-49.8832 754.4549,-38.6118"/>
<polygon fill="#191970" stroke="#191970" points="638.9374,-74.8948 630.6324,-81.4734 641.2272,-81.5097 638.9374,-74.8948"/>
</g>
<!-- Node6 -->
<g id="node6" class="node">
<title>Node6</title>
<g id="a_node6"><a xlink:href="../../df/d7f/VertexFinderReaderExample_8cpp.html" target="_top" xlink:title="acts/blob/sPHENIX/Examples\l/Run/Vertexing/VertexFinderReader\lExample.cpp">
<polygon fill="none" stroke="#000000" points="928.5,-.5 928.5,-44.5 1123.5,-44.5 1123.5,-.5 928.5,-.5"/>
<text text-anchor="start" x="936.5" y="-31.5" font-family="FreeSans" font-size="10.00" fill="#000000">acts/blob/sPHENIX/Examples</text>
<text text-anchor="start" x="936.5" y="-19.5" font-family="FreeSans" font-size="10.00" fill="#000000">/Run/Vertexing/VertexFinderReader</text>
<text text-anchor="middle" x="1026" y="-7.5" font-family="FreeSans" font-size="10.00" fill="#000000">Example.cpp</text>
</a>
</g>
</g>
<!-- Node1&#45;&gt;Node6 -->
<g id="edge5" class="edge">
<title>Node1&#45;&gt;Node6</title>
<path fill="none" stroke="#191970" d="M661.9976,-88.9425C733.1714,-77.7482 832.8757,-61.4573 920,-45 922.7729,-44.4762 925.5847,-43.9366 928.4215,-43.3847"/>
<polygon fill="#191970" stroke="#191970" points="661.0452,-85.549 651.7085,-90.5565 662.1301,-92.4644 661.0452,-85.549"/>
</g>
</g>
</svg>
