<?xml version="1.0" encoding="UTF-8" standalone="no"?>
<!DOCTYPE svg PUBLIC "-//W3C//DTD SVG 1.1//EN"
 "http://www.w3.org/Graphics/SVG/1.1/DTD/svg11.dtd">
<!-- Generated by graphviz version 2.40.1 (20161225.0304)
 -->
<!-- Title: OnlMonServer::PortNumber Pages: 1 -->
<svg width="1078pt" height="716pt"
 viewBox="0.00 0.00 1078.00 716.00" xmlns="http://www.w3.org/2000/svg" xmlns:xlink="http://www.w3.org/1999/xlink">
<g id="graph0" class="graph" transform="scale(1 1) rotate(0) translate(4 712)">
<title>OnlMonServer::PortNumber</title>
<!-- Node1 -->
<g id="node1" class="node">
<title>Node1</title>
<polygon fill="#bfbfbf" stroke="#000000" points="0,-577.5 0,-597.5 155,-597.5 155,-577.5 0,-577.5"/>
<text text-anchor="middle" x="77.5" y="-584.5" font-family="FreeSans" font-size="10.00" fill="#000000">OnlMonServer::PortNumber</text>
</g>
<!-- Node2 -->
<g id="node2" class="node">
<title>Node2</title>
<g id="a_node2"><a xlink:href="../../d8/d38/classOnlMonServer.html#a55d8d563322ba6252e2430f672601515" target="_top" xlink:title="OnlMonServer::Print">
<polygon fill="none" stroke="#000000" points="191,-558.5 191,-578.5 309,-578.5 309,-558.5 191,-558.5"/>
<text text-anchor="middle" x="250" y="-565.5" font-family="FreeSans" font-size="10.00" fill="#000000">OnlMonServer::Print</text>
</a>
</g>
</g>
<!-- Node1&#45;&gt;Node2 -->
<g id="edge1" class="edge">
<title>Node1&#45;&gt;Node2</title>
<path fill="none" stroke="#191970" d="M165.3141,-577.8277C173.9638,-576.875 182.5925,-575.9246 190.8521,-575.0148"/>
<polygon fill="#191970" stroke="#191970" points="164.728,-574.371 155.1713,-578.9449 165.4944,-581.3289 164.728,-574.371"/>
</g>
<!-- Node5 -->
<g id="node5" class="node">
<title>Node5</title>
<g id="a_node5"><a xlink:href="../../d6/d55/pmonitorInterface_8cc.html#a73fdf82650602ce867f6ab0b93e0a8a6" target="_top" xlink:title="server">
<polygon fill="none" stroke="#000000" points="783.5,-616.5 783.5,-636.5 832.5,-636.5 832.5,-616.5 783.5,-616.5"/>
<text text-anchor="middle" x="808" y="-623.5" font-family="FreeSans" font-size="10.00" fill="#000000">server</text>
</a>
</g>
</g>
<!-- Node1&#45;&gt;Node5 -->
<g id="edge27" class="edge">
<title>Node1&#45;&gt;Node5</title>
<path fill="none" stroke="#191970" d="M165.2304,-594.806C217.4218,-598.966 284.9589,-604.0245 345,-607.5 512.4571,-617.1933 714.2659,-623.7005 783.3907,-625.7815"/>
<polygon fill="#191970" stroke="#191970" points="165.2511,-591.2965 155.0035,-593.9867 164.6921,-598.2741 165.2511,-591.2965"/>
</g>
<!-- Node3 -->
<g id="node3" class="node">
<title>Node3</title>
<g id="a_node3"><a xlink:href="../../d8/d38/classOnlMonServer.html#a36186ae110cdd51eed481a0e54802155" target="_top" xlink:title="OnlMonServer::getHisto">
<polygon fill="none" stroke="#000000" points="367.5,-538.5 367.5,-558.5 504.5,-558.5 504.5,-538.5 367.5,-538.5"/>
<text text-anchor="middle" x="436" y="-545.5" font-family="FreeSans" font-size="10.00" fill="#000000">OnlMonServer::getHisto</text>
</a>
</g>
</g>
<!-- Node2&#45;&gt;Node3 -->
<g id="edge2" class="edge">
<title>Node2&#45;&gt;Node3</title>
<path fill="none" stroke="#191970" d="M319.2651,-561.0521C334.966,-559.3639 351.6342,-557.5716 367.3112,-555.8859"/>
<polygon fill="#191970" stroke="#191970" points="318.6756,-557.5953 309.1071,-562.1444 319.424,-564.5551 318.6756,-557.5953"/>
</g>
<!-- Node9 -->
<g id="node9" class="node">
<title>Node9</title>
<g id="a_node9"><a xlink:href="../../d8/d38/classOnlMonServer.html#a645442c767b945bb0922e38d0f12da29" target="_top" xlink:title="OnlMonServer::getCommonHisto">
<polygon fill="none" stroke="#000000" points="345,-449.5 345,-469.5 527,-469.5 527,-449.5 345,-449.5"/>
<text text-anchor="middle" x="436" y="-456.5" font-family="FreeSans" font-size="10.00" fill="#000000">OnlMonServer::getCommonHisto</text>
</a>
</g>
</g>
<!-- Node2&#45;&gt;Node9 -->
<g id="edge8" class="edge">
<title>Node2&#45;&gt;Node9</title>
<path fill="none" stroke="#191970" d="M276.2586,-553.1119C314.9586,-530.4329 386.2437,-488.6583 418.8764,-469.5348"/>
<polygon fill="#191970" stroke="#191970" points="274.0231,-550.3652 267.165,-558.4409 277.5623,-556.4046 274.0231,-550.3652"/>
</g>
<!-- Node27 -->
<g id="node27" class="node">
<title>Node27</title>
<g id="a_node27"><a xlink:href="../../d8/d38/classOnlMonServer.html#a0c4fe0b496117e34f7b3289439fb0037" target="_top" xlink:title="OnlMonServer::PrintFile">
<polygon fill="none" stroke="#000000" points="369,-577.5 369,-597.5 503,-597.5 503,-577.5 369,-577.5"/>
<text text-anchor="middle" x="436" y="-584.5" font-family="FreeSans" font-size="10.00" fill="#000000">OnlMonServer::PrintFile</text>
</a>
</g>
</g>
<!-- Node2&#45;&gt;Node27 -->
<g id="edge26" class="edge">
<title>Node2&#45;&gt;Node27</title>
<path fill="none" stroke="#191970" d="M319.1001,-575.5586C335.399,-577.2236 352.7485,-578.9958 368.955,-580.6513"/>
<polygon fill="#191970" stroke="#191970" points="319.4111,-572.0723 309.1071,-574.5378 318.6997,-579.036 319.4111,-572.0723"/>
</g>
<!-- Node4 -->
<g id="node4" class="node">
<title>Node4</title>
<g id="a_node4"><a xlink:href="../../dc/df4/pmonitorInterface_8h.html#a3878d599729268140232f06a080d17e6" target="_top" xlink:title="handleconnection">
<polygon fill="none" stroke="#000000" points="571.5,-558.5 571.5,-578.5 677.5,-578.5 677.5,-558.5 571.5,-558.5"/>
<text text-anchor="middle" x="624.5" y="-565.5" font-family="FreeSans" font-size="10.00" fill="#000000">handleconnection</text>
</a>
</g>
</g>
<!-- Node3&#45;&gt;Node4 -->
<g id="edge3" class="edge">
<title>Node3&#45;&gt;Node4</title>
<path fill="none" stroke="#191970" d="M514.763,-556.8568C533.8292,-558.8798 553.7647,-560.9949 571.3326,-562.8589"/>
<polygon fill="#191970" stroke="#191970" points="514.8996,-553.3517 504.5861,-555.777 514.1609,-560.3127 514.8996,-553.3517"/>
</g>
<!-- Node4&#45;&gt;Node5 -->
<g id="edge4" class="edge">
<title>Node4&#45;&gt;Node5</title>
<path fill="none" stroke="#191970" d="M666.2376,-581.6923C702.4019,-593.1229 753.4941,-609.272 783.4428,-618.738"/>
<polygon fill="#191970" stroke="#191970" points="667.0532,-578.2794 656.4633,-578.6028 664.9435,-584.954 667.0532,-578.2794"/>
</g>
<!-- Node6 -->
<g id="node6" class="node">
<title>Node6</title>
<g id="a_node6"><a xlink:href="../../d6/d55/pmonitorInterface_8cc.html#a26c72a23c37eb6fb838112aefcc580c8" target="_top" xlink:title="pinit">
<polygon fill="none" stroke="#000000" points="980.5,-687.5 980.5,-707.5 1019.5,-707.5 1019.5,-687.5 980.5,-687.5"/>
<text text-anchor="middle" x="1000" y="-694.5" font-family="FreeSans" font-size="10.00" fill="#000000">pinit</text>
</a>
</g>
</g>
<!-- Node5&#45;&gt;Node6 -->
<g id="edge5" class="edge">
<title>Node5&#45;&gt;Node6</title>
<path fill="none" stroke="#191970" d="M838.3533,-640.823C862.7628,-652.0019 898.123,-667.4395 930,-678.5 946.7744,-684.3203 966.3059,-689.493 980.4688,-692.9658"/>
<polygon fill="#191970" stroke="#191970" points="839.7914,-637.6319 829.2454,-636.6165 836.8564,-643.9869 839.7914,-637.6319"/>
</g>
<!-- Node7 -->
<g id="node7" class="node">
<title>Node7</title>
<g id="a_node7"><a xlink:href="../../d9/dce/classrcdaqEventiterator.html#a65e4811d6d752bf3b89f5a4215ea8e21" target="_top" xlink:title="rcdaqEventiterator\l::read_next_buffer">
<polygon fill="none" stroke="#000000" points="944,-636.5 944,-668.5 1056,-668.5 1056,-636.5 944,-636.5"/>
<text text-anchor="start" x="952" y="-655.5" font-family="FreeSans" font-size="10.00" fill="#000000">rcdaqEventiterator</text>
<text text-anchor="middle" x="1000" y="-643.5" font-family="FreeSans" font-size="10.00" fill="#000000">::read_next_buffer</text>
</a>
</g>
</g>
<!-- Node5&#45;&gt;Node7 -->
<g id="edge6" class="edge">
<title>Node5&#45;&gt;Node7</title>
<path fill="none" stroke="#191970" d="M842.878,-631.2231C871.0577,-635.0391 911.2665,-640.484 943.9536,-644.9104"/>
<polygon fill="#191970" stroke="#191970" points="843.0868,-627.7195 832.7076,-629.8458 842.1474,-634.6562 843.0868,-627.7195"/>
</g>
<!-- Node8 -->
<g id="node8" class="node">
<title>Node8</title>
<g id="a_node8"><a xlink:href="../../d9/dce/classrcdaqEventiterator.html#a29a1bf02deb57642c119f73a3751b688" target="_top" xlink:title="rcdaqEventiterator\l::setup">
<polygon fill="none" stroke="#000000" points="944,-585.5 944,-617.5 1056,-617.5 1056,-585.5 944,-585.5"/>
<text text-anchor="start" x="952" y="-604.5" font-family="FreeSans" font-size="10.00" fill="#000000">rcdaqEventiterator</text>
<text text-anchor="middle" x="1000" y="-592.5" font-family="FreeSans" font-size="10.00" fill="#000000">::setup</text>
</a>
</g>
</g>
<!-- Node5&#45;&gt;Node8 -->
<g id="edge7" class="edge">
<title>Node5&#45;&gt;Node8</title>
<path fill="none" stroke="#191970" d="M842.878,-621.9586C871.0577,-618.2894 911.2665,-613.0538 943.9536,-608.7977"/>
<polygon fill="#191970" stroke="#191970" points="842.1719,-618.5209 832.7076,-623.2829 843.0758,-625.4623 842.1719,-618.5209"/>
</g>
<!-- Node10 -->
<g id="node10" class="node">
<title>Node10</title>
<g id="a_node10"><a xlink:href="../../d3/d57/classOnlMon.html#aa8bae92c39beecb9c127c665e0e7ae2a" target="_top" xlink:title="OnlMon::InitCommon">
<polygon fill="none" stroke="#000000" points="563,-349.5 563,-369.5 686,-369.5 686,-349.5 563,-349.5"/>
<text text-anchor="middle" x="624.5" y="-356.5" font-family="FreeSans" font-size="10.00" fill="#000000">OnlMon::InitCommon</text>
</a>
</g>
</g>
<!-- Node9&#45;&gt;Node10 -->
<g id="edge9" class="edge">
<title>Node9&#45;&gt;Node10</title>
<path fill="none" stroke="#191970" d="M464.3306,-444.4705C503.3016,-423.7962 572.3899,-387.1446 605.6179,-369.517"/>
<polygon fill="#191970" stroke="#191970" points="462.3054,-441.5828 455.1117,-449.3612 465.5859,-447.7666 462.3054,-441.5828"/>
</g>
<!-- Node11 -->
<g id="node11" class="node">
<title>Node11</title>
<g id="a_node11"><a xlink:href="../../d8/d38/classOnlMonServer.html#a2735505e0585739434f2b644f524e52c" target="_top" xlink:title="OnlMonServer::registerMonitor">
<polygon fill="none" stroke="#000000" points="722,-292.5 722,-312.5 894,-312.5 894,-292.5 722,-292.5"/>
<text text-anchor="middle" x="808" y="-299.5" font-family="FreeSans" font-size="10.00" fill="#000000">OnlMonServer::registerMonitor</text>
</a>
</g>
</g>
<!-- Node10&#45;&gt;Node11 -->
<g id="edge10" class="edge">
<title>Node10&#45;&gt;Node11</title>
<path fill="none" stroke="#191970" d="M666.7442,-346.3778C699.8873,-336.0827 745.3331,-321.966 775.6319,-312.5544"/>
<polygon fill="#191970" stroke="#191970" points="665.3953,-343.1318 656.8837,-349.4408 667.4719,-349.8167 665.3953,-343.1318"/>
</g>
<!-- Node12 -->
<g id="node12" class="node">
<title>Node12</title>
<g id="a_node12"><a xlink:href="../../df/d8f/run__bbc__server_8C.html#aa84d6465e29819dce6642125b3feb5cb" target="_top" xlink:title="run_bbc_server">
<polygon fill="none" stroke="#000000" points="953,-429.5 953,-449.5 1047,-449.5 1047,-429.5 953,-429.5"/>
<text text-anchor="middle" x="1000" y="-436.5" font-family="FreeSans" font-size="10.00" fill="#000000">run_bbc_server</text>
</a>
</g>
</g>
<!-- Node11&#45;&gt;Node12 -->
<g id="edge11" class="edge">
<title>Node11&#45;&gt;Node12</title>
<path fill="none" stroke="#191970" d="M821.7887,-320.73C842.4509,-346.7651 883.9688,-394.3342 930,-420.5 937.0064,-424.4827 944.8845,-427.6615 952.7607,-430.1895"/>
<polygon fill="#191970" stroke="#191970" points="824.51,-318.528 815.6046,-312.7883 818.9869,-322.8287 824.51,-318.528"/>
</g>
<!-- Node13 -->
<g id="node13" class="node">
<title>Node13</title>
<g id="a_node13"><a xlink:href="../../dd/d54/run__cemc__server_8C.html#a0e95369df8bda12c3143bdafd535ab6b" target="_top" xlink:title="run_cemc_server">
<polygon fill="none" stroke="#000000" points="948.5,-390.5 948.5,-410.5 1051.5,-410.5 1051.5,-390.5 948.5,-390.5"/>
<text text-anchor="middle" x="1000" y="-397.5" font-family="FreeSans" font-size="10.00" fill="#000000">run_cemc_server</text>
</a>
</g>
</g>
<!-- Node11&#45;&gt;Node13 -->
<g id="edge12" class="edge">
<title>Node11&#45;&gt;Node13</title>
<path fill="none" stroke="#191970" d="M828.9053,-318.9394C852.3232,-336.6401 891.997,-364.536 930,-381.5 937.8192,-384.9904 946.4235,-387.9671 954.844,-390.4567"/>
<polygon fill="#191970" stroke="#191970" points="830.8294,-316.0043 820.7634,-312.6986 826.5709,-321.56 830.8294,-316.0043"/>
</g>
<!-- Node14 -->
<g id="node14" class="node">
<title>Node14</title>
<g id="a_node14"><a xlink:href="../../d9/d8b/run__cemc__server__SEB00_8C.html#acec8bb578606167643fa970c447dbbdd" target="_top" xlink:title="run_cemc_server_SEB00">
<polygon fill="none" stroke="#000000" points="930,-351.5 930,-371.5 1070,-371.5 1070,-351.5 930,-351.5"/>
<text text-anchor="middle" x="1000" y="-358.5" font-family="FreeSans" font-size="10.00" fill="#000000">run_cemc_server_SEB00</text>
</a>
</g>
</g>
<!-- Node11&#45;&gt;Node14 -->
<g id="edge13" class="edge">
<title>Node11&#45;&gt;Node14</title>
<path fill="none" stroke="#191970" d="M847.1906,-315.9213C871.0349,-323.9442 902.1607,-334.1641 930,-342.5 940.1332,-345.5342 951.1531,-348.6228 961.3868,-351.4035"/>
<polygon fill="#191970" stroke="#191970" points="848.0425,-312.5148 837.4482,-312.6294 845.8016,-319.1465 848.0425,-312.5148"/>
</g>
<!-- Node15 -->
<g id="node15" class="node">
<title>Node15</title>
<g id="a_node15"><a xlink:href="../../d1/d3f/run__cemc__server__SEB01_8C.html#ac3c5efc0469df5bb13fbce0dda32da5b" target="_top" xlink:title="run_cemc_server_SEB01">
<polygon fill="none" stroke="#000000" points="930,-312.5 930,-332.5 1070,-332.5 1070,-312.5 930,-312.5"/>
<text text-anchor="middle" x="1000" y="-319.5" font-family="FreeSans" font-size="10.00" fill="#000000">run_cemc_server_SEB01</text>
</a>
</g>
</g>
<!-- Node11&#45;&gt;Node15 -->
<g id="edge14" class="edge">
<title>Node11&#45;&gt;Node15</title>
<path fill="none" stroke="#191970" d="M904.2973,-312.531C912.936,-313.4308 921.5714,-314.3304 929.9238,-315.2004"/>
<polygon fill="#191970" stroke="#191970" points="904.4804,-309.0312 894.1716,-311.4762 903.7551,-315.9935 904.4804,-309.0312"/>
</g>
<!-- Node16 -->
<g id="node16" class="node">
<title>Node16</title>
<g id="a_node16"><a xlink:href="../../d4/d65/run__daq__server_8C.html#ad611c08a24357b826a7d1ba8a9daf1d7" target="_top" xlink:title="run_daq_server">
<polygon fill="none" stroke="#000000" points="952.5,-273.5 952.5,-293.5 1047.5,-293.5 1047.5,-273.5 952.5,-273.5"/>
<text text-anchor="middle" x="1000" y="-280.5" font-family="FreeSans" font-size="10.00" fill="#000000">run_daq_server</text>
</a>
</g>
</g>
<!-- Node11&#45;&gt;Node16 -->
<g id="edge15" class="edge">
<title>Node11&#45;&gt;Node16</title>
<path fill="none" stroke="#191970" d="M904.5368,-292.9469C921.2083,-291.2971 937.8582,-289.6495 952.4753,-288.203"/>
<polygon fill="#191970" stroke="#191970" points="903.7783,-289.5048 894.1716,-293.9726 904.4677,-296.4707 903.7783,-289.5048"/>
</g>
<!-- Node17 -->
<g id="node17" class="node">
<title>Node17</title>
<g id="a_node17"><a xlink:href="../../dc/dd5/run__example__server0_8C.html#a7d82e3f4155710af7135c545ec8da38a" target="_top" xlink:title="run_example_server0">
<polygon fill="none" stroke="#000000" points="937.5,-234.5 937.5,-254.5 1062.5,-254.5 1062.5,-234.5 937.5,-234.5"/>
<text text-anchor="middle" x="1000" y="-241.5" font-family="FreeSans" font-size="10.00" fill="#000000">run_example_server0</text>
</a>
</g>
</g>
<!-- Node11&#45;&gt;Node17 -->
<g id="edge16" class="edge">
<title>Node11&#45;&gt;Node17</title>
<path fill="none" stroke="#191970" d="M847.9393,-289.2396C871.6968,-281.4752 902.4768,-271.6302 930,-263.5 940.2651,-260.4678 951.4307,-257.3545 961.7671,-254.5482"/>
<polygon fill="#191970" stroke="#191970" points="846.6284,-285.9861 838.2175,-292.4287 848.8103,-292.6373 846.6284,-285.9861"/>
</g>
<!-- Node18 -->
<g id="node18" class="node">
<title>Node18</title>
<g id="a_node18"><a xlink:href="../../dd/d6d/run__example__server1_8C.html#a1c9a50db50f1df6e2cce283873a4400f" target="_top" xlink:title="run_example_server1">
<polygon fill="none" stroke="#000000" points="937.5,-195.5 937.5,-215.5 1062.5,-215.5 1062.5,-195.5 937.5,-195.5"/>
<text text-anchor="middle" x="1000" y="-202.5" font-family="FreeSans" font-size="10.00" fill="#000000">run_example_server1</text>
</a>
</g>
</g>
<!-- Node11&#45;&gt;Node18 -->
<g id="edge17" class="edge">
<title>Node11&#45;&gt;Node18</title>
<path fill="none" stroke="#191970" d="M828.9405,-286.2846C852.3892,-268.8218 892.0896,-241.291 930,-224.5 937.8293,-221.0323 946.4383,-218.0662 954.8603,-215.58"/>
<polygon fill="#191970" stroke="#191970" points="826.6584,-283.622 820.7869,-292.4411 830.8765,-289.2084 826.6584,-283.622"/>
</g>
<!-- Node19 -->
<g id="node19" class="node">
<title>Node19</title>
<g id="a_node19"><a xlink:href="../../df/d16/run__hcal__server_8C.html#a4ff26c6ec8f82220c3a0260f92b98501" target="_top" xlink:title="run_hcal_server">
<polygon fill="none" stroke="#000000" points="951.5,-156.5 951.5,-176.5 1048.5,-176.5 1048.5,-156.5 951.5,-156.5"/>
<text text-anchor="middle" x="1000" y="-163.5" font-family="FreeSans" font-size="10.00" fill="#000000">run_hcal_server</text>
</a>
</g>
</g>
<!-- Node11&#45;&gt;Node19 -->
<g id="edge18" class="edge">
<title>Node11&#45;&gt;Node19</title>
<path fill="none" stroke="#191970" d="M821.8241,-284.4291C842.5301,-258.6203 884.1016,-211.4614 930,-185.5 936.5764,-181.7802 943.9153,-178.7604 951.2981,-176.3167"/>
<polygon fill="#191970" stroke="#191970" points="819.0619,-282.2795 815.6258,-292.3017 824.5619,-286.6097 819.0619,-282.2795"/>
</g>
<!-- Node20 -->
<g id="node20" class="node">
<title>Node20</title>
<g id="a_node20"><a xlink:href="../../dd/d65/run__intt__server_8C.html#a632a11687f1abad277159b9a35d63e83" target="_top" xlink:title="run_intt_server">
<polygon fill="none" stroke="#000000" points="953.5,-117.5 953.5,-137.5 1046.5,-137.5 1046.5,-117.5 953.5,-117.5"/>
<text text-anchor="middle" x="1000" y="-124.5" font-family="FreeSans" font-size="10.00" fill="#000000">run_intt_server</text>
</a>
</g>
</g>
<!-- Node11&#45;&gt;Node20 -->
<g id="edge19" class="edge">
<title>Node11&#45;&gt;Node20</title>
<path fill="none" stroke="#191970" d="M817.711,-283.159C835.3804,-249.983 876.0053,-182.3459 930,-146.5 937.029,-141.8336 945.1736,-138.3083 953.3682,-135.6465"/>
<polygon fill="#191970" stroke="#191970" points="814.4792,-281.7877 812.9749,-292.2752 820.691,-285.0149 814.4792,-281.7877"/>
</g>
<!-- Node21 -->
<g id="node21" class="node">
<title>Node21</title>
<g id="a_node21"><a xlink:href="../../d8/d73/run__ll1__server_8C.html#a30b13c4910a319a7e3f520338c259267" target="_top" xlink:title="run_ll1_server">
<polygon fill="none" stroke="#000000" points="956,-78.5 956,-98.5 1044,-98.5 1044,-78.5 956,-78.5"/>
<text text-anchor="middle" x="1000" y="-85.5" font-family="FreeSans" font-size="10.00" fill="#000000">run_ll1_server</text>
</a>
</g>
</g>
<!-- Node11&#45;&gt;Node21 -->
<g id="edge20" class="edge">
<title>Node11&#45;&gt;Node21</title>
<path fill="none" stroke="#191970" d="M814.8028,-282.5333C829.3684,-242.8577 867.4293,-153.9302 930,-107.5 937.5844,-101.8721 946.7329,-97.911 955.8782,-95.1231"/>
<polygon fill="#191970" stroke="#191970" points="811.4418,-281.5388 811.3883,-292.1335 818.0371,-283.8846 811.4418,-281.5388"/>
</g>
<!-- Node22 -->
<g id="node22" class="node">
<title>Node22</title>
<g id="a_node22"><a xlink:href="../../da/d56/run__mvtx__server_8C.html#a387fffecfca209fbb90717f3f36fb580" target="_top" xlink:title="run_mvtx_server">
<polygon fill="none" stroke="#000000" points="949.5,-39.5 949.5,-59.5 1050.5,-59.5 1050.5,-39.5 949.5,-39.5"/>
<text text-anchor="middle" x="1000" y="-46.5" font-family="FreeSans" font-size="10.00" fill="#000000">run_mvtx_server</text>
</a>
</g>
</g>
<!-- Node11&#45;&gt;Node22 -->
<g id="edge21" class="edge">
<title>Node11&#45;&gt;Node22</title>
<path fill="none" stroke="#191970" d="M812.5511,-282.6874C823.9867,-237.4869 858.2815,-126.2145 930,-68.5 935.69,-63.921 942.3949,-60.4416 949.3627,-57.7986"/>
<polygon fill="#191970" stroke="#191970" points="809.1383,-281.91 810.1805,-292.4534 815.9407,-283.5613 809.1383,-281.91"/>
</g>
<!-- Node23 -->
<g id="node23" class="node">
<title>Node23</title>
<g id="a_node23"><a xlink:href="../../d0/ddb/run__pktsize__server_8C.html#a815e0985950fcdc18cfc0caea228e278" target="_top" xlink:title="run_pktsize_server">
<polygon fill="none" stroke="#000000" points="944.5,-.5 944.5,-20.5 1055.5,-20.5 1055.5,-.5 944.5,-.5"/>
<text text-anchor="middle" x="1000" y="-7.5" font-family="FreeSans" font-size="10.00" fill="#000000">run_pktsize_server</text>
</a>
</g>
</g>
<!-- Node11&#45;&gt;Node23 -->
<g id="edge22" class="edge">
<title>Node11&#45;&gt;Node23</title>
<path fill="none" stroke="#191970" d="M811.0283,-282.2034C819.6855,-231.5198 849.3253,-98.5327 930,-29.5 934.2098,-25.8977 939.0404,-22.9724 944.154,-20.5978"/>
<polygon fill="#191970" stroke="#191970" points="807.5486,-281.7977 809.4112,-292.2275 814.4593,-282.9126 807.5486,-281.7977"/>
</g>
<!-- Node24 -->
<g id="node24" class="node">
<title>Node24</title>
<g id="a_node24"><a xlink:href="../../d2/d36/run__sepd__server_8C.html#a8b2a48e9abca81b102f6e526832eeb70" target="_top" xlink:title="run_sepd_server">
<polygon fill="none" stroke="#000000" points="950,-546.5 950,-566.5 1050,-566.5 1050,-546.5 950,-546.5"/>
<text text-anchor="middle" x="1000" y="-553.5" font-family="FreeSans" font-size="10.00" fill="#000000">run_sepd_server</text>
</a>
</g>
</g>
<!-- Node11&#45;&gt;Node24 -->
<g id="edge23" class="edge">
<title>Node11&#45;&gt;Node24</title>
<path fill="none" stroke="#191970" d="M812.5247,-322.3959C823.9048,-367.7865 858.0909,-479.5287 930,-537.5 935.7841,-542.163 942.6201,-545.6858 949.7161,-548.3463"/>
<polygon fill="#191970" stroke="#191970" points="815.9075,-321.4933 810.1665,-312.5888 809.1015,-323.1299 815.9075,-321.4933"/>
</g>
<!-- Node25 -->
<g id="node25" class="node">
<title>Node25</title>
<g id="a_node25"><a xlink:href="../../d1/dfa/run__tpc__server_8C.html#a8c3af2b8194ec413a5e57bf5e2598046" target="_top" xlink:title="run_tpc_server">
<polygon fill="none" stroke="#000000" points="954,-507.5 954,-527.5 1046,-527.5 1046,-507.5 954,-507.5"/>
<text text-anchor="middle" x="1000" y="-514.5" font-family="FreeSans" font-size="10.00" fill="#000000">run_tpc_server</text>
</a>
</g>
</g>
<!-- Node11&#45;&gt;Node25 -->
<g id="edge24" class="edge">
<title>Node11&#45;&gt;Node25</title>
<path fill="none" stroke="#191970" d="M814.7728,-322.5682C829.2842,-362.4456 867.2521,-451.8265 930,-498.5 936.9717,-503.6857 945.2705,-507.4563 953.6745,-510.1979"/>
<polygon fill="#191970" stroke="#191970" points="817.9971,-321.187 811.3719,-312.9192 811.3952,-323.514 817.9971,-321.187"/>
</g>
<!-- Node26 -->
<g id="node26" class="node">
<title>Node26</title>
<g id="a_node26"><a xlink:href="../../d3/d4f/run__zdc__server_8C.html#a5c0b7046dd5a57f9bd037cfe469fb278" target="_top" xlink:title="run_zdc_server">
<polygon fill="none" stroke="#000000" points="953.5,-468.5 953.5,-488.5 1046.5,-488.5 1046.5,-468.5 953.5,-468.5"/>
<text text-anchor="middle" x="1000" y="-475.5" font-family="FreeSans" font-size="10.00" fill="#000000">run_zdc_server</text>
</a>
</g>
</g>
<!-- Node11&#45;&gt;Node26 -->
<g id="edge25" class="edge">
<title>Node11&#45;&gt;Node26</title>
<path fill="none" stroke="#191970" d="M817.6778,-321.9657C835.2964,-355.3552 875.8461,-423.4275 930,-459.5 937.0218,-464.1773 945.1629,-467.7078 953.3564,-470.3713"/>
<polygon fill="#191970" stroke="#191970" points="820.6442,-320.081 812.9564,-312.7907 814.4199,-323.2839 820.6442,-320.081"/>
</g>
</g>
</svg>
