<?xml version="1.0" encoding="UTF-8" standalone="no"?>
<!DOCTYPE svg PUBLIC "-//W3C//DTD SVG 1.1//EN"
 "http://www.w3.org/Graphics/SVG/1.1/DTD/svg11.dtd">
<!-- Generated by graphviz version 2.40.1 (20161225.0304)
 -->
<!-- Title: coresoftware/blob/master/offline/packages/jetbase/JetMap.cc Pages: 1 -->
<svg width="581pt" height="281pt"
 viewBox="0.00 0.00 581.00 281.00" xmlns="http://www.w3.org/2000/svg" xmlns:xlink="http://www.w3.org/1999/xlink">
<g id="graph0" class="graph" transform="scale(1 1) rotate(0) translate(4 277)">
<title>coresoftware/blob/master/offline/packages/jetbase/JetMap.cc</title>
<!-- Node1 -->
<g id="node1" class="node">
<title>Node1</title>
<polygon fill="#bfbfbf" stroke="#000000" points="283,-228.5 283,-272.5 429,-272.5 429,-228.5 283,-228.5"/>
<text text-anchor="start" x="291" y="-259.5" font-family="FreeSans" font-size="10.00" fill="#000000">coresoftware/blob/master</text>
<text text-anchor="start" x="291" y="-247.5" font-family="FreeSans" font-size="10.00" fill="#000000">/offline/packages/jetbase</text>
<text text-anchor="middle" x="356" y="-235.5" font-family="FreeSans" font-size="10.00" fill="#000000">/JetMap.cc</text>
</g>
<!-- Node2 -->
<g id="node2" class="node">
<title>Node2</title>
<g id="a_node2"><a xlink:href="../../df/dd0/JetMap_8h.html" target="_top" xlink:title="JetMap.h">
<polygon fill="none" stroke="#000000" points="287.5,-171.5 287.5,-191.5 348.5,-191.5 348.5,-171.5 287.5,-171.5"/>
<text text-anchor="middle" x="318" y="-178.5" font-family="FreeSans" font-size="10.00" fill="#000000">JetMap.h</text>
</a>
</g>
</g>
<!-- Node1&#45;&gt;Node2 -->
<g id="edge1" class="edge">
<title>Node1&#45;&gt;Node2</title>
<path fill="none" stroke="#191970" d="M343.7674,-228.2882C338.8491,-219.3575 333.2348,-209.1632 328.505,-200.5749"/>
<polygon fill="#191970" stroke="#191970" points="331.5149,-198.7847 323.6249,-191.7137 325.3832,-202.1616 331.5149,-198.7847"/>
</g>
<!-- Node13 -->
<g id="node13" class="node">
<title>Node13</title>
<polygon fill="none" stroke="#bfbfbf" points="366.5,-171.5 366.5,-191.5 423.5,-191.5 423.5,-171.5 366.5,-171.5"/>
<text text-anchor="middle" x="395" y="-178.5" font-family="FreeSans" font-size="10.00" fill="#000000">ostream</text>
</g>
<!-- Node1&#45;&gt;Node13 -->
<g id="edge18" class="edge">
<title>Node1&#45;&gt;Node13</title>
<path fill="none" stroke="#191970" d="M368.5545,-228.2882C373.6023,-219.3575 379.3643,-209.1632 384.2186,-200.5749"/>
<polygon fill="#191970" stroke="#191970" points="387.3534,-202.1415 389.2271,-191.7137 381.2595,-198.6971 387.3534,-202.1415"/>
</g>
<!-- Node3 -->
<g id="node3" class="node">
<title>Node3</title>
<g id="a_node3"><a xlink:href="../../da/db7/Jet_8h.html" target="_top" xlink:title="Jet.h">
<polygon fill="none" stroke="#000000" points="181.5,-114.5 181.5,-134.5 220.5,-134.5 220.5,-114.5 181.5,-114.5"/>
<text text-anchor="middle" x="201" y="-121.5" font-family="FreeSans" font-size="10.00" fill="#000000">Jet.h</text>
</a>
</g>
</g>
<!-- Node2&#45;&gt;Node3 -->
<g id="edge2" class="edge">
<title>Node2&#45;&gt;Node3</title>
<path fill="none" stroke="#191970" d="M297.3521,-171.4408C278.5785,-162.2947 250.6906,-148.7082 229.7417,-138.5024"/>
<polygon fill="#191970" stroke="#191970" points="231.1853,-135.3125 220.6625,-134.0792 228.1195,-141.6054 231.1853,-135.3125"/>
</g>
<!-- Node4 -->
<g id="node4" class="node">
<title>Node4</title>
<g id="a_node4"><a xlink:href="../../df/d32/PHObject_8h.html" target="_top" xlink:title="phool/PHObject.h">
<polygon fill="none" stroke="#000000" points="0,-57.5 0,-77.5 104,-77.5 104,-57.5 0,-57.5"/>
<text text-anchor="middle" x="52" y="-64.5" font-family="FreeSans" font-size="10.00" fill="#000000">phool/PHObject.h</text>
</a>
</g>
</g>
<!-- Node2&#45;&gt;Node4 -->
<g id="edge10" class="edge">
<title>Node2&#45;&gt;Node4</title>
<path fill="none" stroke="#191970" d="M287.3865,-175.7743C253.6781,-168.8031 198.3767,-155.3759 154,-135 123.7418,-121.1067 92.2847,-98.9103 72.4485,-83.7939"/>
<polygon fill="#191970" stroke="#191970" points="74.4968,-80.9533 64.4473,-77.598 70.2109,-86.4879 74.4968,-80.9533"/>
</g>
<!-- Node6 -->
<g id="node6" class="node">
<title>Node6</title>
<polygon fill="none" stroke="#bfbfbf" points="168,-.5 168,-20.5 228,-20.5 228,-.5 168,-.5"/>
<text text-anchor="middle" x="198" y="-7.5" font-family="FreeSans" font-size="10.00" fill="#000000">iostream</text>
</g>
<!-- Node2&#45;&gt;Node6 -->
<g id="edge13" class="edge">
<title>Node2&#45;&gt;Node6</title>
<path fill="none" stroke="#191970" d="M325.3312,-171.3669C340.8054,-148.6323 373.2985,-92.7567 347,-57 333.9656,-39.2778 277.5278,-25.3307 237.9864,-17.499"/>
<polygon fill="#191970" stroke="#191970" points="238.5654,-14.0463 228.0842,-15.5944 237.2431,-20.9203 238.5654,-14.0463"/>
</g>
<!-- Node7 -->
<g id="node7" class="node">
<title>Node7</title>
<polygon fill="none" stroke="#bfbfbf" points="122,-57.5 122,-77.5 170,-77.5 170,-57.5 122,-57.5"/>
<text text-anchor="middle" x="146" y="-64.5" font-family="FreeSans" font-size="10.00" fill="#000000">cmath</text>
</g>
<!-- Node2&#45;&gt;Node7 -->
<g id="edge11" class="edge">
<title>Node2&#45;&gt;Node7</title>
<path fill="none" stroke="#191970" d="M287.1911,-174.9822C249.5343,-166.4687 188.7464,-150.7811 172,-135 158.7622,-122.5252 152.1809,-102.5584 148.9615,-87.5709"/>
<polygon fill="#191970" stroke="#191970" points="152.4016,-86.9258 147.1643,-77.7161 145.5152,-88.1818 152.4016,-86.9258"/>
</g>
<!-- Node8 -->
<g id="node8" class="node">
<title>Node8</title>
<polygon fill="none" stroke="#bfbfbf" points="226,-57.5 226,-77.5 280,-77.5 280,-57.5 226,-57.5"/>
<text text-anchor="middle" x="253" y="-64.5" font-family="FreeSans" font-size="10.00" fill="#000000">cstddef</text>
</g>
<!-- Node2&#45;&gt;Node8 -->
<g id="edge12" class="edge">
<title>Node2&#45;&gt;Node8</title>
<path fill="none" stroke="#191970" d="M312.2317,-171.3833C301.3697,-152.3331 277.7261,-110.8658 263.8195,-86.4757"/>
<polygon fill="#191970" stroke="#191970" points="266.8426,-84.7114 258.8488,-77.7579 260.7616,-88.1787 266.8426,-84.7114"/>
</g>
<!-- Node9 -->
<g id="node9" class="node">
<title>Node9</title>
<polygon fill="none" stroke="#bfbfbf" points="298.5,-57.5 298.5,-77.5 337.5,-77.5 337.5,-57.5 298.5,-57.5"/>
<text text-anchor="middle" x="318" y="-64.5" font-family="FreeSans" font-size="10.00" fill="#000000">map</text>
</g>
<!-- Node2&#45;&gt;Node9 -->
<g id="edge14" class="edge">
<title>Node2&#45;&gt;Node9</title>
<path fill="none" stroke="#191970" d="M318,-171.3833C318,-152.6703 318,-112.3266 318,-87.7866"/>
<polygon fill="#191970" stroke="#191970" points="321.5001,-87.7579 318,-77.7579 314.5001,-87.758 321.5001,-87.7579"/>
</g>
<!-- Node10 -->
<g id="node10" class="node">
<title>Node10</title>
<polygon fill="none" stroke="#bfbfbf" points="389.5,-114.5 389.5,-134.5 438.5,-134.5 438.5,-114.5 389.5,-114.5"/>
<text text-anchor="middle" x="414" y="-121.5" font-family="FreeSans" font-size="10.00" fill="#000000">vector</text>
</g>
<!-- Node2&#45;&gt;Node10 -->
<g id="edge15" class="edge">
<title>Node2&#45;&gt;Node10</title>
<path fill="none" stroke="#191970" d="M335.1629,-171.3095C349.9064,-162.5556 371.3812,-149.8049 388.196,-139.8211"/>
<polygon fill="#191970" stroke="#191970" points="390.1741,-142.7172 396.9857,-134.6022 386.6002,-136.6982 390.1741,-142.7172"/>
</g>
<!-- Node11 -->
<g id="node11" class="node">
<title>Node11</title>
<polygon fill="none" stroke="#bfbfbf" points="457,-114.5 457,-134.5 523,-134.5 523,-114.5 457,-114.5"/>
<text text-anchor="middle" x="490" y="-121.5" font-family="FreeSans" font-size="10.00" fill="#000000">functional</text>
</g>
<!-- Node2&#45;&gt;Node11 -->
<g id="edge16" class="edge">
<title>Node2&#45;&gt;Node11</title>
<path fill="none" stroke="#191970" d="M348.3542,-171.4408C376.6367,-162.0681 418.9903,-148.0323 450.017,-137.7502"/>
<polygon fill="#191970" stroke="#191970" points="451.2691,-141.0225 459.6604,-134.5544 449.0671,-134.3779 451.2691,-141.0225"/>
</g>
<!-- Node12 -->
<g id="node12" class="node">
<title>Node12</title>
<polygon fill="none" stroke="#bfbfbf" points="541,-114.5 541,-134.5 573,-134.5 573,-114.5 541,-114.5"/>
<text text-anchor="middle" x="557" y="-121.5" font-family="FreeSans" font-size="10.00" fill="#000000">set</text>
</g>
<!-- Node2&#45;&gt;Node12 -->
<g id="edge17" class="edge">
<title>Node2&#45;&gt;Node12</title>
<path fill="none" stroke="#191970" d="M348.5336,-173.3079C351.7244,-172.5049 354.9244,-171.7213 358,-171 431.8817,-153.6728 454.7964,-158.0111 531.1755,-134.8208"/>
<polygon fill="#191970" stroke="#191970" points="532.2445,-138.1538 540.7621,-131.8529 530.1743,-131.4669 532.2445,-138.1538"/>
</g>
<!-- Node3&#45;&gt;Node4 -->
<g id="edge3" class="edge">
<title>Node3&#45;&gt;Node4</title>
<path fill="none" stroke="#191970" d="M181.214,-116.9308C157.3881,-107.8162 116.9226,-92.3362 87.6139,-81.1241"/>
<polygon fill="#191970" stroke="#191970" points="88.7328,-77.8048 78.1423,-77.5008 86.2317,-84.3428 88.7328,-77.8048"/>
</g>
<!-- Node3&#45;&gt;Node6 -->
<g id="edge8" class="edge">
<title>Node3&#45;&gt;Node6</title>
<path fill="none" stroke="#191970" d="M200.7338,-114.3833C200.2413,-95.6703 199.1796,-55.3266 198.5339,-30.7866"/>
<polygon fill="#191970" stroke="#191970" points="202.0319,-30.6624 198.2699,-20.7579 195.0343,-30.8466 202.0319,-30.6624"/>
</g>
<!-- Node3&#45;&gt;Node7 -->
<g id="edge6" class="edge">
<title>Node3&#45;&gt;Node7</title>
<path fill="none" stroke="#191970" d="M191.1671,-114.3095C183.346,-106.204 172.2185,-94.672 162.9656,-85.0826"/>
<polygon fill="#191970" stroke="#191970" points="165.2102,-82.3681 155.7478,-77.6022 160.1728,-87.2288 165.2102,-82.3681"/>
</g>
<!-- Node3&#45;&gt;Node8 -->
<g id="edge7" class="edge">
<title>Node3&#45;&gt;Node8</title>
<path fill="none" stroke="#191970" d="M210.2966,-114.3095C217.6911,-106.204 228.2116,-94.672 236.9598,-85.0826"/>
<polygon fill="#191970" stroke="#191970" points="239.63,-87.3488 243.7839,-77.6022 234.4586,-82.631 239.63,-87.3488"/>
</g>
<!-- Node3&#45;&gt;Node9 -->
<g id="edge9" class="edge">
<title>Node3&#45;&gt;Node9</title>
<path fill="none" stroke="#191970" d="M220.5832,-114.9595C239.3123,-105.835 267.7812,-91.9656 289.1141,-81.5726"/>
<polygon fill="#191970" stroke="#191970" points="290.8959,-84.5979 298.3529,-77.0716 287.8301,-78.3049 290.8959,-84.5979"/>
</g>
<!-- Node5 -->
<g id="node5" class="node">
<title>Node5</title>
<polygon fill="none" stroke="#bfbfbf" points="19.5,-.5 19.5,-20.5 84.5,-20.5 84.5,-.5 19.5,-.5"/>
<text text-anchor="middle" x="52" y="-7.5" font-family="FreeSans" font-size="10.00" fill="#000000">TObject.h</text>
</g>
<!-- Node4&#45;&gt;Node5 -->
<g id="edge4" class="edge">
<title>Node4&#45;&gt;Node5</title>
<path fill="none" stroke="#191970" d="M52,-57.3095C52,-49.9335 52,-39.72 52,-30.715"/>
<polygon fill="#191970" stroke="#191970" points="55.5001,-30.6022 52,-20.6022 48.5001,-30.6023 55.5001,-30.6022"/>
</g>
<!-- Node4&#45;&gt;Node6 -->
<g id="edge5" class="edge">
<title>Node4&#45;&gt;Node6</title>
<path fill="none" stroke="#191970" d="M77.7658,-57.4408C101.2847,-48.2587 136.2668,-34.6013 162.4422,-24.3822"/>
<polygon fill="#191970" stroke="#191970" points="163.9583,-27.5476 172.0007,-20.6504 161.4125,-21.0269 163.9583,-27.5476"/>
</g>
</g>
</svg>
