<?xml version="1.0" encoding="UTF-8" standalone="no"?>
<!DOCTYPE svg PUBLIC "-//W3C//DTD SVG 1.1//EN"
 "http://www.w3.org/Graphics/SVG/1.1/DTD/svg11.dtd">
<!-- Generated by graphviz version 2.40.1 (20161225.0304)
 -->
<!-- Title: acts/blob/sPHENIX/Plugins/Json/include/Acts/Plugins/Json/DetectorJsonConverter.hpp Pages: 1 -->
<svg width="586pt" height="134pt"
 viewBox="0.00 0.00 585.50 134.00" xmlns="http://www.w3.org/2000/svg" xmlns:xlink="http://www.w3.org/1999/xlink">
<g id="graph0" class="graph" transform="scale(1 1) rotate(0) translate(4 130)">
<title>acts/blob/sPHENIX/Plugins/Json/include/Acts/Plugins/Json/DetectorJsonConverter.hpp</title>
<!-- Node1 -->
<g id="node1" class="node">
<title>Node1</title>
<polygon fill="#bfbfbf" stroke="#000000" points="188,-81.5 188,-125.5 369,-125.5 369,-81.5 188,-81.5"/>
<text text-anchor="start" x="196" y="-112.5" font-family="FreeSans" font-size="10.00" fill="#000000">acts/blob/sPHENIX/Plugins</text>
<text text-anchor="start" x="196" y="-100.5" font-family="FreeSans" font-size="10.00" fill="#000000">/Json/include/Acts/Plugins</text>
<text text-anchor="middle" x="278.5" y="-88.5" font-family="FreeSans" font-size="10.00" fill="#000000">/Json/DetectorJsonConverter.hpp</text>
</g>
<!-- Node2 -->
<g id="node2" class="node">
<title>Node2</title>
<g id="a_node2"><a xlink:href="../../d7/d75/Json_8cpp.html" target="_top" xlink:title="acts/blob/sPHENIX/Examples\l/Python/src/Json.cpp">
<polygon fill="none" stroke="#000000" points="0,-6.5 0,-38.5 161,-38.5 161,-6.5 0,-6.5"/>
<text text-anchor="start" x="8" y="-25.5" font-family="FreeSans" font-size="10.00" fill="#000000">acts/blob/sPHENIX/Examples</text>
<text text-anchor="middle" x="80.5" y="-13.5" font-family="FreeSans" font-size="10.00" fill="#000000">/Python/src/Json.cpp</text>
</a>
</g>
</g>
<!-- Node1&#45;&gt;Node2 -->
<g id="edge1" class="edge">
<title>Node1&#45;&gt;Node2</title>
<path fill="none" stroke="#191970" d="M215.14,-77.58C183.8528,-64.7807 147.0851,-49.7393 119.8843,-38.6118"/>
<polygon fill="#191970" stroke="#191970" points="214.0765,-80.9264 224.6572,-81.4734 216.7269,-74.4476 214.0765,-80.9264"/>
</g>
<!-- Node3 -->
<g id="node3" class="node">
<title>Node3</title>
<g id="a_node3"><a xlink:href="../../d7/da0/DetectorJsonConverter_8cpp.html" target="_top" xlink:title="acts/blob/sPHENIX/Plugins\l/Json/src/DetectorJsonConverter.cpp">
<polygon fill="none" stroke="#000000" points="179.5,-6.5 179.5,-38.5 377.5,-38.5 377.5,-6.5 179.5,-6.5"/>
<text text-anchor="start" x="187.5" y="-25.5" font-family="FreeSans" font-size="10.00" fill="#000000">acts/blob/sPHENIX/Plugins</text>
<text text-anchor="middle" x="278.5" y="-13.5" font-family="FreeSans" font-size="10.00" fill="#000000">/Json/src/DetectorJsonConverter.cpp</text>
</a>
</g>
</g>
<!-- Node1&#45;&gt;Node3 -->
<g id="edge2" class="edge">
<title>Node1&#45;&gt;Node3</title>
<path fill="none" stroke="#191970" d="M278.5,-71.0737C278.5,-59.9468 278.5,-47.9724 278.5,-38.6969"/>
<polygon fill="#191970" stroke="#191970" points="275.0001,-71.3664 278.5,-81.3664 282.0001,-71.3664 275.0001,-71.3664"/>
</g>
<!-- Node4 -->
<g id="node4" class="node">
<title>Node4</title>
<g id="a_node4"><a xlink:href="../../db/d22/DetectorJsonConverterTests_8cpp.html" target="_top" xlink:title="acts/blob/sPHENIX/Tests\l/UnitTests/Plugins/Json\l/DetectorJsonConverterTests.cpp">
<polygon fill="none" stroke="#000000" points="395.5,-.5 395.5,-44.5 577.5,-44.5 577.5,-.5 395.5,-.5"/>
<text text-anchor="start" x="403.5" y="-31.5" font-family="FreeSans" font-size="10.00" fill="#000000">acts/blob/sPHENIX/Tests</text>
<text text-anchor="start" x="403.5" y="-19.5" font-family="FreeSans" font-size="10.00" fill="#000000">/UnitTests/Plugins/Json</text>
<text text-anchor="middle" x="486.5" y="-7.5" font-family="FreeSans" font-size="10.00" fill="#000000">/DetectorJsonConverterTests.cpp</text>
</a>
</g>
</g>
<!-- Node1&#45;&gt;Node4 -->
<g id="edge3" class="edge">
<title>Node1&#45;&gt;Node4</title>
<path fill="none" stroke="#191970" d="M344.5884,-77.7637C372.0449,-67.0714 403.5859,-54.7887 429.9491,-44.5222"/>
<polygon fill="#191970" stroke="#191970" points="343.1104,-74.5831 335.0622,-81.4734 345.6506,-81.106 343.1104,-74.5831"/>
</g>
</g>
</svg>
