<?xml version="1.0" encoding="UTF-8" standalone="no"?>
<!DOCTYPE svg PUBLIC "-//W3C//DTD SVG 1.1//EN"
 "http://www.w3.org/Graphics/SVG/1.1/DTD/svg11.dtd">
<!-- Generated by graphviz version 2.40.1 (20161225.0304)
 -->
<!-- Title: testing::internal::UnitTestImpl::CurrentOsStackTraceExceptTop Pages: 1 -->
<svg width="370pt" height="116pt"
 viewBox="0.00 0.00 370.00 116.00" xmlns="http://www.w3.org/2000/svg" xmlns:xlink="http://www.w3.org/1999/xlink">
<g id="graph0" class="graph" transform="scale(1 1) rotate(0) translate(4 112)">
<title>testing::internal::UnitTestImpl::CurrentOsStackTraceExceptTop</title>
<!-- Node1 -->
<g id="node1" class="node">
<title>Node1</title>
<polygon fill="#bfbfbf" stroke="#000000" points="0,-31.5 0,-75.5 165,-75.5 165,-31.5 0,-31.5"/>
<text text-anchor="start" x="8" y="-62.5" font-family="FreeSans" font-size="10.00" fill="#000000">testing::internal::</text>
<text text-anchor="start" x="8" y="-50.5" font-family="FreeSans" font-size="10.00" fill="#000000">UnitTestImpl::CurrentOsStack</text>
<text text-anchor="middle" x="82.5" y="-38.5" font-family="FreeSans" font-size="10.00" fill="#000000">TraceExceptTop</text>
</g>
<!-- Node2 -->
<g id="node2" class="node">
<title>Node2</title>
<g id="a_node2"><a xlink:href="../../da/ddd/classtesting_1_1internal_1_1OsStackTraceGetterInterface.html#a6965eadb9b340808718fab9f1475c49a" target="_top" xlink:title="testing::internal::\lOsStackTraceGetterInterface\l::CurrentStackTrace">
<polygon fill="none" stroke="#000000" points="201,-63.5 201,-107.5 362,-107.5 362,-63.5 201,-63.5"/>
<text text-anchor="start" x="209" y="-94.5" font-family="FreeSans" font-size="10.00" fill="#000000">testing::internal::</text>
<text text-anchor="start" x="209" y="-82.5" font-family="FreeSans" font-size="10.00" fill="#000000">OsStackTraceGetterInterface</text>
<text text-anchor="middle" x="281.5" y="-70.5" font-family="FreeSans" font-size="10.00" fill="#000000">::CurrentStackTrace</text>
</a>
</g>
</g>
<!-- Node1&#45;&gt;Node2 -->
<g id="edge1" class="edge">
<title>Node1&#45;&gt;Node2</title>
<path fill="none" stroke="#191970" d="M165.1651,-66.7929C173.608,-68.1505 182.2174,-69.535 190.7406,-70.9055"/>
<polygon fill="#191970" stroke="#191970" points="190.2625,-74.3735 200.6913,-72.5056 191.3739,-67.4623 190.2625,-74.3735"/>
</g>
<!-- Node3 -->
<g id="node3" class="node">
<title>Node3</title>
<g id="a_node3"><a xlink:href="../../d0/de3/classtesting_1_1internal_1_1UnitTestImpl.html#a71753679854f7fbba6c1568eb422fecb" target="_top" xlink:title="testing::internal::\lUnitTestImpl::os_stack\l_trace_getter">
<polygon fill="none" stroke="#000000" points="217,-.5 217,-44.5 346,-44.5 346,-.5 217,-.5"/>
<text text-anchor="start" x="225" y="-31.5" font-family="FreeSans" font-size="10.00" fill="#000000">testing::internal::</text>
<text text-anchor="start" x="225" y="-19.5" font-family="FreeSans" font-size="10.00" fill="#000000">UnitTestImpl::os_stack</text>
<text text-anchor="middle" x="281.5" y="-7.5" font-family="FreeSans" font-size="10.00" fill="#000000">_trace_getter</text>
</a>
</g>
</g>
<!-- Node1&#45;&gt;Node3 -->
<g id="edge2" class="edge">
<title>Node1&#45;&gt;Node3</title>
<path fill="none" stroke="#191970" d="M165.1651,-40.6225C178.9506,-38.475 193.1802,-36.2584 206.7536,-34.1439"/>
<polygon fill="#191970" stroke="#191970" points="207.645,-37.5474 216.987,-32.5498 206.5675,-30.6308 207.645,-37.5474"/>
</g>
</g>
</svg>
