<?xml version="1.0" encoding="UTF-8" standalone="no"?>
<!DOCTYPE svg PUBLIC "-//W3C//DTD SVG 1.1//EN"
 "http://www.w3.org/Graphics/SVG/1.1/DTD/svg11.dtd">
<!-- Generated by graphviz version 2.40.1 (20161225.0304)
 -->
<!-- Title: testing::internal::UnitTestImpl::reportable_disabled_test_count Pages: 1 -->
<svg width="619pt" height="143pt"
 viewBox="0.00 0.00 619.00 143.00" xmlns="http://www.w3.org/2000/svg" xmlns:xlink="http://www.w3.org/1999/xlink">
<g id="graph0" class="graph" transform="scale(1 1) rotate(0) translate(4 139)">
<title>testing::internal::UnitTestImpl::reportable_disabled_test_count</title>
<!-- Node1 -->
<g id="node1" class="node">
<title>Node1</title>
<polygon fill="#bfbfbf" stroke="#000000" points="0,-22.5 0,-66.5 138,-66.5 138,-22.5 0,-22.5"/>
<text text-anchor="start" x="8" y="-53.5" font-family="FreeSans" font-size="10.00" fill="#000000">testing::internal::</text>
<text text-anchor="start" x="8" y="-41.5" font-family="FreeSans" font-size="10.00" fill="#000000">UnitTestImpl::reportable</text>
<text text-anchor="middle" x="69" y="-29.5" font-family="FreeSans" font-size="10.00" fill="#000000">_disabled_test_count</text>
</g>
<!-- Node2 -->
<g id="node2" class="node">
<title>Node2</title>
<g id="a_node2"><a xlink:href="../../d0/d9a/classtesting_1_1TestCase.html#a24883385d803653c0031fb4a39be1fa6" target="_top" xlink:title="testing::TestCase::\lreportable_disabled\l_test_count">
<polygon fill="none" stroke="#000000" points="179,-51.5 179,-95.5 295,-95.5 295,-51.5 179,-51.5"/>
<text text-anchor="start" x="187" y="-82.5" font-family="FreeSans" font-size="10.00" fill="#000000">testing::TestCase::</text>
<text text-anchor="start" x="187" y="-70.5" font-family="FreeSans" font-size="10.00" fill="#000000">reportable_disabled</text>
<text text-anchor="middle" x="237" y="-58.5" font-family="FreeSans" font-size="10.00" fill="#000000">_test_count</text>
</a>
</g>
</g>
<!-- Node1&#45;&gt;Node2 -->
<g id="edge1" class="edge">
<title>Node1&#45;&gt;Node2</title>
<path fill="none" stroke="#191970" d="M138.302,-56.4628C148.4026,-58.2064 158.7958,-60.0005 168.8728,-61.7399"/>
<polygon fill="#191970" stroke="#191970" points="168.3721,-65.2052 178.8218,-63.4573 169.5629,-58.3072 168.3721,-65.2052"/>
</g>
<!-- Node6 -->
<g id="node6" class="node">
<title>Node6</title>
<g id="a_node6"><a xlink:href="../../d0/da7/namespacetesting_1_1internal.html#ad1b758141e7e064d00a2bf0355c8ee43" target="_top" xlink:title="testing::internal::\lSumOverTestCaseList">
<polygon fill="none" stroke="#000000" points="174,-.5 174,-32.5 300,-32.5 300,-.5 174,-.5"/>
<text text-anchor="start" x="182" y="-19.5" font-family="FreeSans" font-size="10.00" fill="#000000">testing::internal::</text>
<text text-anchor="middle" x="237" y="-7.5" font-family="FreeSans" font-size="10.00" fill="#000000">SumOverTestCaseList</text>
</a>
</g>
</g>
<!-- Node1&#45;&gt;Node6 -->
<g id="edge5" class="edge">
<title>Node1&#45;&gt;Node6</title>
<path fill="none" stroke="#191970" d="M138.302,-32.9497C146.7474,-31.5421 155.3974,-30.1004 163.896,-28.684"/>
<polygon fill="#191970" stroke="#191970" points="164.4934,-32.1328 173.7819,-27.0364 163.3425,-25.228 164.4934,-32.1328"/>
</g>
<!-- Node3 -->
<g id="node3" class="node">
<title>Node3</title>
<g id="a_node3"><a xlink:href="../../d0/da7/namespacetesting_1_1internal.html#a1e77a774d910346eff11a86d8df783a5" target="_top" xlink:title="testing::internal::\lCountIf">
<polygon fill="none" stroke="#000000" points="352.5,-102.5 352.5,-134.5 455.5,-134.5 455.5,-102.5 352.5,-102.5"/>
<text text-anchor="start" x="360.5" y="-121.5" font-family="FreeSans" font-size="10.00" fill="#000000">testing::internal::</text>
<text text-anchor="middle" x="404" y="-109.5" font-family="FreeSans" font-size="10.00" fill="#000000">CountIf</text>
</a>
</g>
</g>
<!-- Node2&#45;&gt;Node3 -->
<g id="edge2" class="edge">
<title>Node2&#45;&gt;Node3</title>
<path fill="none" stroke="#191970" d="M295.4085,-89.2388C310.6085,-93.3346 327.0314,-97.76 342.391,-101.8988"/>
<polygon fill="#191970" stroke="#191970" points="341.7411,-105.3484 352.3074,-104.5709 343.5624,-98.5895 341.7411,-105.3484"/>
</g>
<!-- Node4 -->
<g id="node4" class="node">
<title>Node4</title>
<g id="a_node4"><a xlink:href="../../d0/d9a/classtesting_1_1TestCase.html#a1f2da5337f941d746dfcb98bc4acc149" target="_top" xlink:title="testing::TestCase::\lTestReportableDisabled">
<polygon fill="none" stroke="#000000" points="336,-51.5 336,-83.5 472,-83.5 472,-51.5 336,-51.5"/>
<text text-anchor="start" x="344" y="-70.5" font-family="FreeSans" font-size="10.00" fill="#000000">testing::TestCase::</text>
<text text-anchor="middle" x="404" y="-58.5" font-family="FreeSans" font-size="10.00" fill="#000000">TestReportableDisabled</text>
</a>
</g>
</g>
<!-- Node2&#45;&gt;Node4 -->
<g id="edge3" class="edge">
<title>Node2&#45;&gt;Node4</title>
<path fill="none" stroke="#191970" d="M295.4085,-71.4015C305.2141,-71.0492 315.5286,-70.6786 325.7383,-70.3118"/>
<polygon fill="#191970" stroke="#191970" points="326.0225,-73.8039 335.8903,-69.9471 325.7711,-66.8085 326.0225,-73.8039"/>
</g>
<!-- Node5 -->
<g id="node5" class="node">
<title>Node5</title>
<g id="a_node5"><a xlink:href="../../df/d65/classtesting_1_1TestInfo.html#a7ad90aeebb1d6fe3a43c6e3e3427e382" target="_top" xlink:title="testing::TestInfo::\lis_reportable">
<polygon fill="none" stroke="#000000" points="508,-51.5 508,-83.5 611,-83.5 611,-51.5 508,-51.5"/>
<text text-anchor="start" x="516" y="-70.5" font-family="FreeSans" font-size="10.00" fill="#000000">testing::TestInfo::</text>
<text text-anchor="middle" x="559.5" y="-58.5" font-family="FreeSans" font-size="10.00" fill="#000000">is_reportable</text>
</a>
</g>
</g>
<!-- Node4&#45;&gt;Node5 -->
<g id="edge4" class="edge">
<title>Node4&#45;&gt;Node5</title>
<path fill="none" stroke="#191970" d="M472.2046,-67.5C480.6747,-67.5 489.2984,-67.5 497.6651,-67.5"/>
<polygon fill="#191970" stroke="#191970" points="497.7157,-71.0001 507.7157,-67.5 497.7157,-64.0001 497.7157,-71.0001"/>
</g>
<!-- Node7 -->
<g id="node7" class="node">
<title>Node7</title>
<g id="a_node7"><a xlink:href="../../da/d55/TPCRateLayered_8m.html#a7507ef556477c204b499f1e189d40796" target="_top" xlink:title="sum">
<polygon fill="none" stroke="#000000" points="385,-6.5 385,-26.5 423,-26.5 423,-6.5 385,-6.5"/>
<text text-anchor="middle" x="404" y="-13.5" font-family="FreeSans" font-size="10.00" fill="#000000">sum</text>
</a>
</g>
</g>
<!-- Node6&#45;&gt;Node7 -->
<g id="edge6" class="edge">
<title>Node6&#45;&gt;Node7</title>
<path fill="none" stroke="#191970" d="M300.1355,-16.5C325.7773,-16.5 354.1476,-16.5 374.7493,-16.5"/>
<polygon fill="#191970" stroke="#191970" points="374.759,-20.0001 384.7589,-16.5 374.7589,-13.0001 374.759,-20.0001"/>
</g>
</g>
</svg>
