<?xml version="1.0" encoding="UTF-8" standalone="no"?>
<!DOCTYPE svg PUBLIC "-//W3C//DTD SVG 1.1//EN"
 "http://www.w3.org/Graphics/SVG/1.1/DTD/svg11.dtd">
<!-- Generated by graphviz version 2.40.1 (20161225.0304)
 -->
<!-- Title: SvtxClusterEval::get_hit_eval Pages: 1 -->
<svg width="1258pt" height="347pt"
 viewBox="0.00 0.00 1258.00 347.00" xmlns="http://www.w3.org/2000/svg" xmlns:xlink="http://www.w3.org/1999/xlink">
<g id="graph0" class="graph" transform="scale(1 1) rotate(0) translate(4 343)">
<title>SvtxClusterEval::get_hit_eval</title>
<!-- Node1 -->
<g id="node1" class="node">
<title>Node1</title>
<polygon fill="#bfbfbf" stroke="#000000" points="0,-178.5 0,-210.5 120,-210.5 120,-178.5 0,-178.5"/>
<text text-anchor="start" x="8" y="-197.5" font-family="FreeSans" font-size="10.00" fill="#000000">SvtxClusterEval::get</text>
<text text-anchor="middle" x="60" y="-185.5" font-family="FreeSans" font-size="10.00" fill="#000000">_hit_eval</text>
</g>
<!-- Node2 -->
<g id="node2" class="node">
<title>Node2</title>
<g id="a_node2"><a xlink:href="../../df/dad/classSvtxTrackEval.html#a90002b103ce63b1c96d883f943a9e4cb" target="_top" xlink:title="SvtxTrackEval::get\l_hit_eval">
<polygon fill="none" stroke="#000000" points="156,-178.5 156,-210.5 266,-210.5 266,-178.5 156,-178.5"/>
<text text-anchor="start" x="164" y="-197.5" font-family="FreeSans" font-size="10.00" fill="#000000">SvtxTrackEval::get</text>
<text text-anchor="middle" x="211" y="-185.5" font-family="FreeSans" font-size="10.00" fill="#000000">_hit_eval</text>
</a>
</g>
</g>
<!-- Node1&#45;&gt;Node2 -->
<g id="edge1" class="edge">
<title>Node1&#45;&gt;Node2</title>
<path fill="none" stroke="#191970" d="M130.2035,-194.5C138.8589,-194.5 147.6076,-194.5 155.9916,-194.5"/>
<polygon fill="#191970" stroke="#191970" points="130.1131,-191.0001 120.1131,-194.5 130.113,-198.0001 130.1131,-191.0001"/>
</g>
<!-- Node3 -->
<g id="node3" class="node">
<title>Node3</title>
<g id="a_node3"><a xlink:href="../../d4/d21/classSvtxVertexEval.html#abb5c8c9377e176478d520aa06c8a432c" target="_top" xlink:title="SvtxVertexEval::get\l_hit_eval">
<polygon fill="none" stroke="#000000" points="302,-178.5 302,-210.5 418,-210.5 418,-178.5 302,-178.5"/>
<text text-anchor="start" x="310" y="-197.5" font-family="FreeSans" font-size="10.00" fill="#000000">SvtxVertexEval::get</text>
<text text-anchor="middle" x="360" y="-185.5" font-family="FreeSans" font-size="10.00" fill="#000000">_hit_eval</text>
</a>
</g>
</g>
<!-- Node2&#45;&gt;Node3 -->
<g id="edge2" class="edge">
<title>Node2&#45;&gt;Node3</title>
<path fill="none" stroke="#191970" d="M276.3367,-194.5C284.8538,-194.5 293.5331,-194.5 301.9202,-194.5"/>
<polygon fill="#191970" stroke="#191970" points="276.0588,-191.0001 266.0588,-194.5 276.0587,-198.0001 276.0588,-191.0001"/>
</g>
<!-- Node4 -->
<g id="node4" class="node">
<title>Node4</title>
<g id="a_node4"><a xlink:href="../../d3/ded/classSvtxEvalStack.html#a7b0818eebf0fca350e4809a09f445ed7" target="_top" xlink:title="SvtxEvalStack::get\l_hit_eval">
<polygon fill="none" stroke="#000000" points="454,-178.5 454,-210.5 566,-210.5 566,-178.5 454,-178.5"/>
<text text-anchor="start" x="462" y="-197.5" font-family="FreeSans" font-size="10.00" fill="#000000">SvtxEvalStack::get</text>
<text text-anchor="middle" x="510" y="-185.5" font-family="FreeSans" font-size="10.00" fill="#000000">_hit_eval</text>
</a>
</g>
</g>
<!-- Node3&#45;&gt;Node4 -->
<g id="edge3" class="edge">
<title>Node3&#45;&gt;Node4</title>
<path fill="none" stroke="#191970" d="M428.6654,-194.5C437.13,-194.5 445.7029,-194.5 453.9489,-194.5"/>
<polygon fill="#191970" stroke="#191970" points="428.4235,-191.0001 418.4234,-194.5 428.4234,-198.0001 428.4235,-191.0001"/>
</g>
<!-- Node5 -->
<g id="node5" class="node">
<title>Node5</title>
<g id="a_node5"><a xlink:href="../../d7/d62/classHFMLTriggerInterface.html#a29f338c2563a39e5d0e58b316f4b036f" target="_top" xlink:title="HFMLTriggerInterface\l::process_event">
<polygon fill="none" stroke="#000000" points="620,-306.5 620,-338.5 742,-338.5 742,-306.5 620,-306.5"/>
<text text-anchor="start" x="628" y="-325.5" font-family="FreeSans" font-size="10.00" fill="#000000">HFMLTriggerInterface</text>
<text text-anchor="middle" x="681" y="-313.5" font-family="FreeSans" font-size="10.00" fill="#000000">::process_event</text>
</a>
</g>
</g>
<!-- Node4&#45;&gt;Node5 -->
<g id="edge4" class="edge">
<title>Node4&#45;&gt;Node5</title>
<path fill="none" stroke="#191970" d="M525.9145,-218.8615C542.349,-242.1982 570.0452,-276.8319 602,-297.5 607.5564,-301.0939 613.6668,-304.2034 619.9525,-306.8866"/>
<polygon fill="#191970" stroke="#191970" points="528.7314,-216.7808 520.1819,-210.5233 522.9632,-220.7466 528.7314,-216.7808"/>
</g>
<!-- Node6 -->
<g id="node6" class="node">
<title>Node6</title>
<g id="a_node6"><a xlink:href="../../da/dbf/classHFMLTriggerOccupancy.html#add094957c68c32da4afc212ffa24e885" target="_top" xlink:title="HFMLTriggerOccupancy\l::process_event">
<polygon fill="none" stroke="#000000" points="614,-255.5 614,-287.5 748,-287.5 748,-255.5 614,-255.5"/>
<text text-anchor="start" x="622" y="-274.5" font-family="FreeSans" font-size="10.00" fill="#000000">HFMLTriggerOccupancy</text>
<text text-anchor="middle" x="681" y="-262.5" font-family="FreeSans" font-size="10.00" fill="#000000">::process_event</text>
</a>
</g>
</g>
<!-- Node4&#45;&gt;Node6 -->
<g id="edge5" class="edge">
<title>Node4&#45;&gt;Node6</title>
<path fill="none" stroke="#191970" d="M544.0202,-215.9773C561.0067,-226.1132 582.1278,-237.8519 602,-246.5 609.3868,-249.7146 617.3221,-252.7192 625.2126,-255.4517"/>
<polygon fill="#191970" stroke="#191970" points="545.4097,-212.7271 535.0428,-210.541 541.7838,-218.7148 545.4097,-212.7271"/>
</g>
<!-- Node7 -->
<g id="node7" class="node">
<title>Node7</title>
<g id="a_node7"><a xlink:href="../../d8/d98/classpsTOFTimezeroEval.html#ae9fd1570652089bed4ec7eb81009b318" target="_top" xlink:title="dump the evaluator information into ntuple for external analysis">
<polygon fill="none" stroke="#000000" points="620,-204.5 620,-236.5 742,-236.5 742,-204.5 620,-204.5"/>
<text text-anchor="start" x="628" y="-223.5" font-family="FreeSans" font-size="10.00" fill="#000000">psTOFTimezeroEval::</text>
<text text-anchor="middle" x="681" y="-211.5" font-family="FreeSans" font-size="10.00" fill="#000000">fillOutputNtuples</text>
</a>
</g>
</g>
<!-- Node4&#45;&gt;Node7 -->
<g id="edge6" class="edge">
<title>Node4&#45;&gt;Node7</title>
<path fill="none" stroke="#191970" d="M576.6756,-204.6378C590.9079,-206.8018 605.8725,-209.0771 619.8838,-211.2075"/>
<polygon fill="#191970" stroke="#191970" points="576.8782,-201.1285 566.4657,-203.0854 575.8259,-208.0489 576.8782,-201.1285"/>
</g>
<!-- Node9 -->
<g id="node9" class="node">
<title>Node9</title>
<g id="a_node9"><a xlink:href="../../d2/d85/classSvtxEvaluatorHaiwang.html#a0fd261422264aedc22d0506ef5e897c4" target="_top" xlink:title="dump the evaluator information into ntuple for external analysis">
<polygon fill="none" stroke="#000000" points="615.5,-153.5 615.5,-185.5 746.5,-185.5 746.5,-153.5 615.5,-153.5"/>
<text text-anchor="start" x="623.5" y="-172.5" font-family="FreeSans" font-size="10.00" fill="#000000">SvtxEvaluatorHaiwang</text>
<text text-anchor="middle" x="681" y="-160.5" font-family="FreeSans" font-size="10.00" fill="#000000">::fillOutputNtuples</text>
</a>
</g>
</g>
<!-- Node4&#45;&gt;Node9 -->
<g id="edge8" class="edge">
<title>Node4&#45;&gt;Node9</title>
<path fill="none" stroke="#191970" d="M576.5507,-184.7704C589.3135,-182.9045 602.6693,-180.9519 615.4018,-179.0904"/>
<polygon fill="#191970" stroke="#191970" points="575.8542,-181.3349 566.4657,-186.2448 576.8669,-188.2613 575.8542,-181.3349"/>
</g>
<!-- Node11 -->
<g id="node11" class="node">
<title>Node11</title>
<g id="a_node11"><a xlink:href="../../dd/de6/classKFParticle__truthAndDetTools.html#ad75d71be845ff83a6bb6839b5e151e3c" target="_top" xlink:title="KFParticle_truthAndDetTools\l::getTruthTrack">
<polygon fill="none" stroke="#000000" points="602,-102.5 602,-134.5 760,-134.5 760,-102.5 602,-102.5"/>
<text text-anchor="start" x="610" y="-121.5" font-family="FreeSans" font-size="10.00" fill="#000000">KFParticle_truthAndDetTools</text>
<text text-anchor="middle" x="681" y="-109.5" font-family="FreeSans" font-size="10.00" fill="#000000">::getTruthTrack</text>
</a>
</g>
</g>
<!-- Node4&#45;&gt;Node11 -->
<g id="edge10" class="edge">
<title>Node4&#45;&gt;Node11</title>
<path fill="none" stroke="#191970" d="M545.6284,-173.1892C562.3844,-163.6771 582.8513,-152.7745 602,-144.5 610.2177,-140.949 619.0887,-137.5929 627.8146,-134.5457"/>
<polygon fill="#191970" stroke="#191970" points="543.6568,-170.2855 536.7332,-178.3052 547.1467,-176.3535 543.6568,-170.2855"/>
</g>
<!-- Node16 -->
<g id="node16" class="node">
<title>Node16</title>
<g id="a_node16"><a xlink:href="../../d6/d11/classSvtxEvaluator.html#ace95fef2b7b4ad8b797f6695e053dd6e" target="_top" xlink:title="dump the evaluator information into ntuple for external analysis">
<polygon fill="none" stroke="#000000" points="610.5,-26.5 610.5,-58.5 751.5,-58.5 751.5,-26.5 610.5,-26.5"/>
<text text-anchor="start" x="618.5" y="-45.5" font-family="FreeSans" font-size="10.00" fill="#000000">SvtxEvaluator::fillOutput</text>
<text text-anchor="middle" x="681" y="-33.5" font-family="FreeSans" font-size="10.00" fill="#000000">Ntuples</text>
</a>
</g>
</g>
<!-- Node4&#45;&gt;Node16 -->
<g id="edge16" class="edge">
<title>Node4&#45;&gt;Node16</title>
<path fill="none" stroke="#191970" d="M529.0353,-170.2527C546.6342,-148.6984 574.1953,-117.0446 602,-93.5 617.573,-80.313 636.773,-67.8446 652.3452,-58.537"/>
<polygon fill="#191970" stroke="#191970" points="526.1307,-168.2789 522.5763,-178.2598 531.579,-172.6739 526.1307,-168.2789"/>
</g>
<!-- Node8 -->
<g id="node8" class="node">
<title>Node8</title>
<g id="a_node8"><a xlink:href="../../d8/d98/classpsTOFTimezeroEval.html#a2e98730e1beaa91c36947c0fe671fdd2" target="_top" xlink:title="psTOFTimezeroEval::\lprocess_event">
<polygon fill="none" stroke="#000000" points="814,-204.5 814,-236.5 936,-236.5 936,-204.5 814,-204.5"/>
<text text-anchor="start" x="822" y="-223.5" font-family="FreeSans" font-size="10.00" fill="#000000">psTOFTimezeroEval::</text>
<text text-anchor="middle" x="875" y="-211.5" font-family="FreeSans" font-size="10.00" fill="#000000">process_event</text>
</a>
</g>
</g>
<!-- Node7&#45;&gt;Node8 -->
<g id="edge7" class="edge">
<title>Node7&#45;&gt;Node8</title>
<path fill="none" stroke="#191970" d="M752.2125,-220.5C772.441,-220.5 794.2829,-220.5 813.8575,-220.5"/>
<polygon fill="#191970" stroke="#191970" points="752.1166,-217.0001 742.1165,-220.5 752.1165,-224.0001 752.1166,-217.0001"/>
</g>
<!-- Node10 -->
<g id="node10" class="node">
<title>Node10</title>
<g id="a_node10"><a xlink:href="../../d2/d85/classSvtxEvaluatorHaiwang.html#ab63ca0cc53b56dad65b89d9b18220bce" target="_top" xlink:title="SvtxEvaluatorHaiwang\l::process_event">
<polygon fill="none" stroke="#000000" points="809.5,-153.5 809.5,-185.5 940.5,-185.5 940.5,-153.5 809.5,-153.5"/>
<text text-anchor="start" x="817.5" y="-172.5" font-family="FreeSans" font-size="10.00" fill="#000000">SvtxEvaluatorHaiwang</text>
<text text-anchor="middle" x="875" y="-160.5" font-family="FreeSans" font-size="10.00" fill="#000000">::process_event</text>
</a>
</g>
</g>
<!-- Node9&#45;&gt;Node10 -->
<g id="edge9" class="edge">
<title>Node9&#45;&gt;Node10</title>
<path fill="none" stroke="#191970" d="M756.7809,-169.5C774.155,-169.5 792.4843,-169.5 809.3881,-169.5"/>
<polygon fill="#191970" stroke="#191970" points="756.6796,-166.0001 746.6796,-169.5 756.6795,-173.0001 756.6796,-166.0001"/>
</g>
<!-- Node12 -->
<g id="node12" class="node">
<title>Node12</title>
<g id="a_node12"><a xlink:href="../../dd/de6/classKFParticle__truthAndDetTools.html#aacd7464b07f03f83a4d7e2de49e63a50" target="_top" xlink:title="KFParticle_truthAndDetTools\l::fillTruthBranch">
<polygon fill="none" stroke="#000000" points="796,-102.5 796,-134.5 954,-134.5 954,-102.5 796,-102.5"/>
<text text-anchor="start" x="804" y="-121.5" font-family="FreeSans" font-size="10.00" fill="#000000">KFParticle_truthAndDetTools</text>
<text text-anchor="middle" x="875" y="-109.5" font-family="FreeSans" font-size="10.00" fill="#000000">::fillTruthBranch</text>
</a>
</g>
</g>
<!-- Node11&#45;&gt;Node12 -->
<g id="edge11" class="edge">
<title>Node11&#45;&gt;Node12</title>
<path fill="none" stroke="#191970" d="M770.4359,-118.5C778.8837,-118.5 787.4084,-118.5 795.7517,-118.5"/>
<polygon fill="#191970" stroke="#191970" points="770.1871,-115.0001 760.187,-118.5 770.187,-122.0001 770.1871,-115.0001"/>
</g>
<!-- Node15 -->
<g id="node15" class="node">
<title>Node15</title>
<g id="a_node15"><a xlink:href="../../dd/de6/classKFParticle__truthAndDetTools.html#ac462727f039ecf9c65e6d346bff72180" target="_top" xlink:title="KFParticle_truthAndDetTools\l::getHepMCInfo">
<polygon fill="none" stroke="#000000" points="796,-51.5 796,-83.5 954,-83.5 954,-51.5 796,-51.5"/>
<text text-anchor="start" x="804" y="-70.5" font-family="FreeSans" font-size="10.00" fill="#000000">KFParticle_truthAndDetTools</text>
<text text-anchor="middle" x="875" y="-58.5" font-family="FreeSans" font-size="10.00" fill="#000000">::getHepMCInfo</text>
</a>
</g>
</g>
<!-- Node11&#45;&gt;Node15 -->
<g id="edge14" class="edge">
<title>Node11&#45;&gt;Node15</title>
<path fill="none" stroke="#191970" d="M751.9355,-99.852C772.2415,-94.5138 794.1935,-88.7429 813.8575,-83.5736"/>
<polygon fill="#191970" stroke="#191970" points="750.898,-96.5057 742.1165,-102.4333 752.6778,-103.2757 750.898,-96.5057"/>
</g>
<!-- Node13 -->
<g id="node13" class="node">
<title>Node13</title>
<g id="a_node13"><a xlink:href="../../d9/dae/classKFParticle__nTuple.html#ac32b873cf95657eb34d8b572ad692172" target="_top" xlink:title="Fills required information for your selection, also requests truth and detector information if needed...">
<polygon fill="none" stroke="#000000" points="990,-76.5 990,-108.5 1100,-108.5 1100,-76.5 990,-76.5"/>
<text text-anchor="start" x="998" y="-95.5" font-family="FreeSans" font-size="10.00" fill="#000000">KFParticle_nTuple::</text>
<text text-anchor="middle" x="1045" y="-83.5" font-family="FreeSans" font-size="10.00" fill="#000000">fillBranch</text>
</a>
</g>
</g>
<!-- Node12&#45;&gt;Node13 -->
<g id="edge12" class="edge">
<title>Node12&#45;&gt;Node13</title>
<path fill="none" stroke="#191970" d="M964.0019,-104.8879C972.8324,-103.5374 981.6052,-102.1957 989.938,-100.9213"/>
<polygon fill="#191970" stroke="#191970" points="963.3837,-101.4417 954.0278,-106.4134 964.442,-108.3612 963.3837,-101.4417"/>
</g>
<!-- Node14 -->
<g id="node14" class="node">
<title>Node14</title>
<g id="a_node14"><a xlink:href="../../d5/d72/classKFParticle__sPHENIX.html#a7e5ad7cf075fbf8e68a781e7721fec81" target="_top" xlink:title="KFParticle_sPHENIX\l::process_event">
<polygon fill="none" stroke="#000000" points="1136,-76.5 1136,-108.5 1250,-108.5 1250,-76.5 1136,-76.5"/>
<text text-anchor="start" x="1144" y="-95.5" font-family="FreeSans" font-size="10.00" fill="#000000">KFParticle_sPHENIX</text>
<text text-anchor="middle" x="1193" y="-83.5" font-family="FreeSans" font-size="10.00" fill="#000000">::process_event</text>
</a>
</g>
</g>
<!-- Node13&#45;&gt;Node14 -->
<g id="edge13" class="edge">
<title>Node13&#45;&gt;Node14</title>
<path fill="none" stroke="#191970" d="M1110.3677,-92.5C1118.8651,-92.5 1127.5165,-92.5 1135.8654,-92.5"/>
<polygon fill="#191970" stroke="#191970" points="1110.1098,-89.0001 1100.1097,-92.5 1110.1097,-96.0001 1110.1098,-89.0001"/>
</g>
<!-- Node15&#45;&gt;Node13 -->
<g id="edge15" class="edge">
<title>Node15&#45;&gt;Node13</title>
<path fill="none" stroke="#191970" d="M964.0019,-80.5885C972.8324,-81.8871 981.6052,-83.1772 989.938,-84.4026"/>
<polygon fill="#191970" stroke="#191970" points="964.4307,-77.114 954.0278,-79.1217 963.4121,-84.0395 964.4307,-77.114"/>
</g>
<!-- Node17 -->
<g id="node17" class="node">
<title>Node17</title>
<g id="a_node17"><a xlink:href="../../d6/d11/classSvtxEvaluator.html#a1eb230f92b6f2cabb175f1349697200d" target="_top" xlink:title="SvtxEvaluator::process\l_event">
<polygon fill="none" stroke="#000000" points="809,-.5 809,-32.5 941,-32.5 941,-.5 809,-.5"/>
<text text-anchor="start" x="817" y="-19.5" font-family="FreeSans" font-size="10.00" fill="#000000">SvtxEvaluator::process</text>
<text text-anchor="middle" x="875" y="-7.5" font-family="FreeSans" font-size="10.00" fill="#000000">_event</text>
</a>
</g>
</g>
<!-- Node16&#45;&gt;Node17 -->
<g id="edge17" class="edge">
<title>Node16&#45;&gt;Node17</title>
<path fill="none" stroke="#191970" d="M761.8106,-31.6697C777.5231,-29.5639 793.8187,-27.38 808.9852,-25.3473"/>
<polygon fill="#191970" stroke="#191970" points="761.0337,-28.2425 751.5872,-33.0399 761.9636,-35.1804 761.0337,-28.2425"/>
</g>
</g>
</svg>
