<?xml version="1.0" encoding="UTF-8" standalone="no"?>
<!DOCTYPE svg PUBLIC "-//W3C//DTD SVG 1.1//EN"
 "http://www.w3.org/Graphics/SVG/1.1/DTD/svg11.dtd">
<!-- Generated by graphviz version 2.40.1 (20161225.0304)
 -->
<!-- Title: ActsExamples::HepMC3Particle::particle Pages: 1 -->
<svg width="499pt" height="182pt"
 viewBox="0.00 0.00 499.00 182.00" xmlns="http://www.w3.org/2000/svg" xmlns:xlink="http://www.w3.org/1999/xlink">
<g id="graph0" class="graph" transform="scale(1 1) rotate(0) translate(4 178)">
<title>ActsExamples::HepMC3Particle::particle</title>
<!-- Node1 -->
<g id="node1" class="node">
<title>Node1</title>
<polygon fill="#bfbfbf" stroke="#000000" points="0,-76.5 0,-108.5 174,-108.5 174,-76.5 0,-76.5"/>
<text text-anchor="start" x="8" y="-95.5" font-family="FreeSans" font-size="10.00" fill="#000000">ActsExamples::HepMC3Particle</text>
<text text-anchor="middle" x="87" y="-83.5" font-family="FreeSans" font-size="10.00" fill="#000000">::particle</text>
</g>
<!-- Node2 -->
<g id="node2" class="node">
<title>Node2</title>
<g id="a_node2"><a xlink:href="../../d0/da7/namespacetesting_1_1internal.html#a0f6d06bf8c3093b9c22bb08723db201e" target="_top" xlink:title="testing::internal::move">
<polygon fill="none" stroke="#000000" points="210,-153.5 210,-173.5 342,-173.5 342,-153.5 210,-153.5"/>
<text text-anchor="middle" x="276" y="-160.5" font-family="FreeSans" font-size="10.00" fill="#000000">testing::internal::move</text>
</a>
</g>
</g>
<!-- Node1&#45;&gt;Node2 -->
<g id="edge1" class="edge">
<title>Node1&#45;&gt;Node2</title>
<path fill="none" stroke="#191970" d="M121.8187,-108.5377C146.2109,-119.446 179.7297,-133.7876 210,-144.5 215.9013,-146.5884 222.1579,-148.6193 228.3759,-150.5285"/>
<polygon fill="#191970" stroke="#191970" points="227.4753,-153.9122 238.0586,-153.4192 229.4778,-147.2048 227.4753,-153.9122"/>
</g>
<!-- Node3 -->
<g id="node3" class="node">
<title>Node3</title>
<g id="a_node3"><a xlink:href="../../db/dfd/classActsFatras_1_1Particle.html#a6a76ea804ade195b9939d07d9a78bd26" target="_top" xlink:title="Set the absolute momentum.">
<polygon fill="none" stroke="#000000" points="219,-102.5 219,-134.5 333,-134.5 333,-102.5 219,-102.5"/>
<text text-anchor="start" x="227" y="-121.5" font-family="FreeSans" font-size="10.00" fill="#000000">ActsFatras::Particle</text>
<text text-anchor="middle" x="276" y="-109.5" font-family="FreeSans" font-size="10.00" fill="#000000">::setAbsMomentum</text>
</a>
</g>
</g>
<!-- Node1&#45;&gt;Node3 -->
<g id="edge2" class="edge">
<title>Node1&#45;&gt;Node3</title>
<path fill="none" stroke="#191970" d="M174.0318,-104.4726C185.6773,-106.0747 197.475,-107.6976 208.7115,-109.2434"/>
<polygon fill="#191970" stroke="#191970" points="208.4688,-112.7429 218.8526,-110.6384 209.4229,-105.8082 208.4688,-112.7429"/>
</g>
<!-- Node5 -->
<g id="node5" class="node">
<title>Node5</title>
<g id="a_node5"><a xlink:href="../../db/dfd/classActsFatras_1_1Particle.html#a10a601efd010f82417545852ec405c25" target="_top" xlink:title="Set the direction three&#45;vector.">
<polygon fill="none" stroke="#000000" points="219.5,-51.5 219.5,-83.5 332.5,-83.5 332.5,-51.5 219.5,-51.5"/>
<text text-anchor="start" x="227.5" y="-70.5" font-family="FreeSans" font-size="10.00" fill="#000000">ActsFatras::Particle</text>
<text text-anchor="middle" x="276" y="-58.5" font-family="FreeSans" font-size="10.00" fill="#000000">::setDirection</text>
</a>
</g>
</g>
<!-- Node1&#45;&gt;Node5 -->
<g id="edge4" class="edge">
<title>Node1&#45;&gt;Node5</title>
<path fill="none" stroke="#191970" d="M174.0318,-80.9879C185.8257,-79.4278 197.7756,-77.8471 209.1407,-76.3438"/>
<polygon fill="#191970" stroke="#191970" points="209.9377,-79.769 219.3923,-74.9878 209.0197,-72.8294 209.9377,-79.769"/>
</g>
<!-- Node6 -->
<g id="node6" class="node">
<title>Node6</title>
<g id="a_node6"><a xlink:href="../../d2/d46/classActsFatras_1_1Barcode.html#a4a64190f3ce62c920ffe6e83f31aa5cf" target="_top" xlink:title="Set the parent particle identifier.">
<polygon fill="none" stroke="#000000" points="217.5,-.5 217.5,-32.5 334.5,-32.5 334.5,-.5 217.5,-.5"/>
<text text-anchor="start" x="225.5" y="-19.5" font-family="FreeSans" font-size="10.00" fill="#000000">ActsFatras::Barcode</text>
<text text-anchor="middle" x="276" y="-7.5" font-family="FreeSans" font-size="10.00" fill="#000000">::setParticle</text>
</a>
</g>
</g>
<!-- Node1&#45;&gt;Node6 -->
<g id="edge5" class="edge">
<title>Node1&#45;&gt;Node6</title>
<path fill="none" stroke="#191970" d="M126.286,-76.4038C150.4137,-66.5497 181.9649,-53.7199 210,-42.5 215.0737,-40.4695 220.3716,-38.3616 225.6634,-36.2644"/>
<polygon fill="#191970" stroke="#191970" points="227.1204,-39.452 235.1324,-32.5196 224.546,-32.9425 227.1204,-39.452"/>
</g>
<!-- Node4 -->
<g id="node4" class="node">
<title>Node4</title>
<g id="a_node4"><a xlink:href="../../db/dfd/classActsFatras_1_1Particle.html#affd60965ee11f6a03a08e36fdc0e7851" target="_top" xlink:title="Absolute momentum.">
<polygon fill="none" stroke="#000000" points="378,-102.5 378,-134.5 491,-134.5 491,-102.5 378,-102.5"/>
<text text-anchor="start" x="386" y="-121.5" font-family="FreeSans" font-size="10.00" fill="#000000">ActsFatras::Particle</text>
<text text-anchor="middle" x="434.5" y="-109.5" font-family="FreeSans" font-size="10.00" fill="#000000">::absMomentum</text>
</a>
</g>
</g>
<!-- Node3&#45;&gt;Node4 -->
<g id="edge3" class="edge">
<title>Node3&#45;&gt;Node4</title>
<path fill="none" stroke="#191970" d="M333.2221,-118.5C344.4697,-118.5 356.3603,-118.5 367.885,-118.5"/>
<polygon fill="#191970" stroke="#191970" points="367.8933,-122.0001 377.8933,-118.5 367.8932,-115.0001 367.8933,-122.0001"/>
</g>
</g>
</svg>
