<?xml version="1.0" encoding="UTF-8" standalone="no"?>
<!DOCTYPE svg PUBLIC "-//W3C//DTD SVG 1.1//EN"
 "http://www.w3.org/Graphics/SVG/1.1/DTD/svg11.dtd">
<!-- Generated by graphviz version 2.40.1 (20161225.0304)
 -->
<!-- Title: MinimumBiasInfo::setIsAuAuMinimumBias Pages: 1 -->
<svg width="489pt" height="41pt"
 viewBox="0.00 0.00 489.00 41.00" xmlns="http://www.w3.org/2000/svg" xmlns:xlink="http://www.w3.org/1999/xlink">
<g id="graph0" class="graph" transform="scale(1 1) rotate(0) translate(4 37)">
<title>MinimumBiasInfo::setIsAuAuMinimumBias</title>
<!-- Node1 -->
<g id="node1" class="node">
<title>Node1</title>
<polygon fill="#bfbfbf" stroke="#000000" points="0,-.5 0,-32.5 147,-32.5 147,-.5 0,-.5"/>
<text text-anchor="start" x="8" y="-19.5" font-family="FreeSans" font-size="10.00" fill="#000000">MinimumBiasInfo::setIsAu</text>
<text text-anchor="middle" x="73.5" y="-7.5" font-family="FreeSans" font-size="10.00" fill="#000000">AuMinimumBias</text>
</g>
<!-- Node2 -->
<g id="node2" class="node">
<title>Node2</title>
<g id="a_node2"><a xlink:href="../../d7/ded/classMinimumBiasClassifier.html#a36b686ba00285f954f4e14abd7ba7f61" target="_top" xlink:title="MinimumBiasClassifier\l::FillMinimumBiasInfo">
<polygon fill="none" stroke="#000000" points="183,-.5 183,-32.5 314,-32.5 314,-.5 183,-.5"/>
<text text-anchor="start" x="191" y="-19.5" font-family="FreeSans" font-size="10.00" fill="#000000">MinimumBiasClassifier</text>
<text text-anchor="middle" x="248.5" y="-7.5" font-family="FreeSans" font-size="10.00" fill="#000000">::FillMinimumBiasInfo</text>
</a>
</g>
</g>
<!-- Node1&#45;&gt;Node2 -->
<g id="edge1" class="edge">
<title>Node1&#45;&gt;Node2</title>
<path fill="none" stroke="#191970" d="M157.2804,-16.5C165.896,-16.5 174.5598,-16.5 182.9368,-16.5"/>
<polygon fill="#191970" stroke="#191970" points="157.2086,-13.0001 147.2086,-16.5 157.2085,-20.0001 157.2086,-13.0001"/>
</g>
<!-- Node3 -->
<g id="node3" class="node">
<title>Node3</title>
<g id="a_node3"><a xlink:href="../../d7/ded/classMinimumBiasClassifier.html#aa7605e6c0a5ab6b9de7fb8cbc32c3cf6" target="_top" xlink:title="event processing method">
<polygon fill="none" stroke="#000000" points="350,-.5 350,-32.5 481,-32.5 481,-.5 350,-.5"/>
<text text-anchor="start" x="358" y="-19.5" font-family="FreeSans" font-size="10.00" fill="#000000">MinimumBiasClassifier</text>
<text text-anchor="middle" x="415.5" y="-7.5" font-family="FreeSans" font-size="10.00" fill="#000000">::process_event</text>
</a>
</g>
</g>
<!-- Node2&#45;&gt;Node3 -->
<g id="edge2" class="edge">
<title>Node2&#45;&gt;Node3</title>
<path fill="none" stroke="#191970" d="M324.0663,-16.5C332.6848,-16.5 341.4171,-16.5 349.8913,-16.5"/>
<polygon fill="#191970" stroke="#191970" points="324.0235,-13.0001 314.0235,-16.5 324.0235,-20.0001 324.0235,-13.0001"/>
</g>
</g>
</svg>
