<?xml version="1.0" encoding="UTF-8" standalone="no"?>
<!DOCTYPE svg PUBLIC "-//W3C//DTD SVG 1.1//EN"
 "http://www.w3.org/Graphics/SVG/1.1/DTD/svg11.dtd">
<!-- Generated by graphviz version 2.40.1 (20161225.0304)
 -->
<!-- Title: PHG4TpcElectronDrift::InitRun Pages: 1 -->
<svg width="979pt" height="479pt"
 viewBox="0.00 0.00 979.00 479.00" xmlns="http://www.w3.org/2000/svg" xmlns:xlink="http://www.w3.org/1999/xlink">
<g id="graph0" class="graph" transform="scale(1 1) rotate(0) translate(4 475)">
<title>PHG4TpcElectronDrift::InitRun</title>
<!-- Node1 -->
<g id="node1" class="node">
<title>Node1</title>
<polygon fill="#bfbfbf" stroke="#000000" points="0,-239.5 0,-271.5 126,-271.5 126,-239.5 0,-239.5"/>
<text text-anchor="start" x="8" y="-258.5" font-family="FreeSans" font-size="10.00" fill="#000000">PHG4TpcElectronDrift</text>
<text text-anchor="middle" x="63" y="-246.5" font-family="FreeSans" font-size="10.00" fill="#000000">::InitRun</text>
</g>
<!-- Node2 -->
<g id="node2" class="node">
<title>Node2</title>
<g id="a_node2"><a xlink:href="../../d5/dca/classPHCompositeNode.html#a15a0c4804399a9de4267647f05bd1ba4" target="_top" xlink:title="PHCompositeNode::addNode">
<polygon fill="none" stroke="#000000" points="375.5,-303.5 375.5,-323.5 537.5,-323.5 537.5,-303.5 375.5,-303.5"/>
<text text-anchor="middle" x="456.5" y="-310.5" font-family="FreeSans" font-size="10.00" fill="#000000">PHCompositeNode::addNode</text>
</a>
</g>
</g>
<!-- Node1&#45;&gt;Node2 -->
<g id="edge1" class="edge">
<title>Node1&#45;&gt;Node2</title>
<path fill="none" stroke="#191970" d="M95.1428,-271.5727C114.1071,-280.2637 138.8571,-290.2637 162,-295.5 228.8084,-310.6162 306.176,-314.8518 364.8431,-315.4493"/>
<polygon fill="#191970" stroke="#191970" points="365.1785,-318.9516 375.2019,-315.5192 365.2257,-311.9517 365.1785,-318.9516"/>
</g>
<!-- Node6 -->
<g id="node6" class="node">
<title>Node6</title>
<g id="a_node6"><a xlink:href="../../d5/d07/classPHNodeIterator.html#aea98bf8619af59b1212a94fb32106baa" target="_top" xlink:title="PHNodeIterator::findFirst">
<polygon fill="none" stroke="#000000" points="176.5,-432.5 176.5,-452.5 317.5,-452.5 317.5,-432.5 176.5,-432.5"/>
<text text-anchor="middle" x="247" y="-439.5" font-family="FreeSans" font-size="10.00" fill="#000000">PHNodeIterator::findFirst</text>
</a>
</g>
</g>
<!-- Node1&#45;&gt;Node6 -->
<g id="edge5" class="edge">
<title>Node1&#45;&gt;Node6</title>
<path fill="none" stroke="#191970" d="M67.6772,-271.6457C78.3685,-305.5274 107.9384,-384.1571 162,-423.5 164.1396,-425.0571 166.3839,-426.4901 168.7085,-427.8086"/>
<polygon fill="#191970" stroke="#191970" points="167.4993,-431.1128 178.0219,-432.3478 170.5662,-424.8204 167.4993,-431.1128"/>
</g>
<!-- Node8 -->
<g id="node8" class="node">
<title>Node8</title>
<g id="a_node8"><a xlink:href="../../d4/d31/classPHParameterInterface.html#ad2a1bcd8dfa116aeb75cafc5b81c059d" target="_top" xlink:title="PHParameterInterface\l::get_double_param">
<polygon fill="none" stroke="#000000" points="183.5,-381.5 183.5,-413.5 310.5,-413.5 310.5,-381.5 183.5,-381.5"/>
<text text-anchor="start" x="191.5" y="-400.5" font-family="FreeSans" font-size="10.00" fill="#000000">PHParameterInterface</text>
<text text-anchor="middle" x="247" y="-388.5" font-family="FreeSans" font-size="10.00" fill="#000000">::get_double_param</text>
</a>
</g>
</g>
<!-- Node1&#45;&gt;Node8 -->
<g id="edge9" class="edge">
<title>Node1&#45;&gt;Node8</title>
<path fill="none" stroke="#191970" d="M73.5538,-271.7428C89.8482,-295.6372 123.3229,-340.2606 162,-366.5 167.9875,-370.5621 174.5722,-374.166 181.3454,-377.3451"/>
<polygon fill="#191970" stroke="#191970" points="180.0955,-380.6185 190.66,-381.4201 182.9012,-374.2054 180.0955,-380.6185"/>
</g>
<!-- Node9 -->
<g id="node9" class="node">
<title>Node9</title>
<g id="a_node9"><a xlink:href="../../dd/dae/classPHParameters.html#aa61ce249b94375d9af4482c36a1308cf" target="_top" xlink:title="PHParameters::get_double\l_param">
<polygon fill="none" stroke="#000000" points="381.5,-342.5 381.5,-374.5 531.5,-374.5 531.5,-342.5 381.5,-342.5"/>
<text text-anchor="start" x="389.5" y="-361.5" font-family="FreeSans" font-size="10.00" fill="#000000">PHParameters::get_double</text>
<text text-anchor="middle" x="456.5" y="-349.5" font-family="FreeSans" font-size="10.00" fill="#000000">_param</text>
</a>
</g>
</g>
<!-- Node1&#45;&gt;Node9 -->
<g id="edge11" class="edge">
<title>Node1&#45;&gt;Node9</title>
<path fill="none" stroke="#191970" d="M82.4897,-271.5458C101.5336,-286.3021 131.9638,-307.5065 162,-318.5 229.6762,-343.27 311.168,-352.9182 371.2555,-356.572"/>
<polygon fill="#191970" stroke="#191970" points="371.2809,-360.0789 381.4622,-357.1477 371.6752,-353.09 371.2809,-360.0789"/>
</g>
<!-- Node10 -->
<g id="node10" class="node">
<title>Node10</title>
<g id="a_node10"><a xlink:href="../../da/d29/classFun4AllServer.html#a3e55156f91b2c94bb6c4ef33ffce587a" target="_top" xlink:title="Fun4AllServer::instance">
<polygon fill="none" stroke="#000000" points="179,-265.5 179,-285.5 315,-285.5 315,-265.5 179,-265.5"/>
<text text-anchor="middle" x="247" y="-272.5" font-family="FreeSans" font-size="10.00" fill="#000000">Fun4AllServer::instance</text>
</a>
</g>
</g>
<!-- Node1&#45;&gt;Node10 -->
<g id="edge12" class="edge">
<title>Node1&#45;&gt;Node10</title>
<path fill="none" stroke="#191970" d="M126.0649,-262.3549C139.7939,-263.8472 154.4799,-265.4435 168.7176,-266.991"/>
<polygon fill="#191970" stroke="#191970" points="168.6658,-270.5059 178.9855,-268.1071 169.4223,-263.5469 168.6658,-270.5059"/>
</g>
<!-- Node11 -->
<g id="node11" class="node">
<title>Node11</title>
<g id="a_node11"><a xlink:href="../../d5/dec/classFun4AllBase.html#a41f9ac377743d046f590617fd6f4f0ed" target="_top" xlink:title="Returns the name of this module.">
<polygon fill="none" stroke="#000000" points="189.5,-226.5 189.5,-246.5 304.5,-246.5 304.5,-226.5 189.5,-226.5"/>
<text text-anchor="middle" x="247" y="-233.5" font-family="FreeSans" font-size="10.00" fill="#000000">Fun4AllBase::Name</text>
</a>
</g>
</g>
<!-- Node1&#45;&gt;Node11 -->
<g id="edge13" class="edge">
<title>Node1&#45;&gt;Node11</title>
<path fill="none" stroke="#191970" d="M126.0649,-248.9879C143.1969,-247.2188 161.8192,-245.2958 179.2008,-243.501"/>
<polygon fill="#191970" stroke="#191970" points="179.6832,-246.9699 189.2708,-242.4612 178.9642,-240.0069 179.6832,-246.9699"/>
</g>
<!-- Node12 -->
<g id="node12" class="node">
<title>Node12</title>
<g id="a_node12"><a xlink:href="../../d4/d31/classPHParameterInterface.html#a843431a58ea1f6414cd05e0121bf163c" target="_top" xlink:title="PHParameterInterface\l::PutOnParNode">
<polygon fill="none" stroke="#000000" points="183.5,-175.5 183.5,-207.5 310.5,-207.5 310.5,-175.5 183.5,-175.5"/>
<text text-anchor="start" x="191.5" y="-194.5" font-family="FreeSans" font-size="10.00" fill="#000000">PHParameterInterface</text>
<text text-anchor="middle" x="247" y="-182.5" font-family="FreeSans" font-size="10.00" fill="#000000">::PutOnParNode</text>
</a>
</g>
</g>
<!-- Node1&#45;&gt;Node12 -->
<g id="edge14" class="edge">
<title>Node1&#45;&gt;Node12</title>
<path fill="none" stroke="#191970" d="M103.2273,-239.3292C121.1182,-232.3268 142.5044,-224.2141 162,-217.5 168.7209,-215.1854 175.7751,-212.8619 182.8251,-210.6078"/>
<polygon fill="#191970" stroke="#191970" points="183.9216,-213.932 192.4043,-207.5842 181.8146,-207.2566 183.9216,-213.932"/>
</g>
<!-- Node13 -->
<g id="node13" class="node">
<title>Node13</title>
<g id="a_node13"><a xlink:href="../../d4/d31/classPHParameterInterface.html#ab386d05bc4aa6e4e3fcd2ff4d466aeb1" target="_top" xlink:title="PHParameterInterface\l::SaveToNodeTree">
<polygon fill="none" stroke="#000000" points="183.5,-124.5 183.5,-156.5 310.5,-156.5 310.5,-124.5 183.5,-124.5"/>
<text text-anchor="start" x="191.5" y="-143.5" font-family="FreeSans" font-size="10.00" fill="#000000">PHParameterInterface</text>
<text text-anchor="middle" x="247" y="-131.5" font-family="FreeSans" font-size="10.00" fill="#000000">::SaveToNodeTree</text>
</a>
</g>
</g>
<!-- Node1&#45;&gt;Node13 -->
<g id="edge16" class="edge">
<title>Node1&#45;&gt;Node13</title>
<path fill="none" stroke="#191970" d="M76.8046,-239.3606C94.6003,-219.5148 127.3951,-186.0639 162,-166.5 165.8832,-164.3047 169.9731,-162.2736 174.1737,-160.3977"/>
<polygon fill="#191970" stroke="#191970" points="175.6065,-163.5927 183.5088,-156.5354 172.9303,-157.1244 175.6065,-163.5927"/>
</g>
<!-- Node20 -->
<g id="node20" class="node">
<title>Node20</title>
<g id="a_node20"><a xlink:href="../../d4/d31/classPHParameterInterface.html#ae61699fe7fdd30a6327893f31e6ed7f8" target="_top" xlink:title="PHParameterInterface\l::UpdateParametersWithMacro">
<polygon fill="none" stroke="#000000" points="162,-73.5 162,-105.5 332,-105.5 332,-73.5 162,-73.5"/>
<text text-anchor="start" x="170" y="-92.5" font-family="FreeSans" font-size="10.00" fill="#000000">PHParameterInterface</text>
<text text-anchor="middle" x="247" y="-80.5" font-family="FreeSans" font-size="10.00" fill="#000000">::UpdateParametersWithMacro</text>
</a>
</g>
</g>
<!-- Node1&#45;&gt;Node20 -->
<g id="edge23" class="edge">
<title>Node1&#45;&gt;Node20</title>
<path fill="none" stroke="#191970" d="M69.9951,-239.4502C83.494,-210.3505 115.9258,-148.8167 162,-115.5 164.544,-113.6604 167.2204,-111.949 169.9922,-110.357"/>
<polygon fill="#191970" stroke="#191970" points="171.8263,-113.3498 179.1234,-105.6684 168.6288,-107.1227 171.8263,-113.3498"/>
</g>
<!-- Node24 -->
<g id="node24" class="node">
<title>Node24</title>
<g id="a_node24"><a xlink:href="../../d5/dec/classFun4AllBase.html#a8a5c77a92bdac6bc043476e132379a40" target="_top" xlink:title="Gets the verbosity of this module.">
<polygon fill="none" stroke="#000000" points="181,-34.5 181,-54.5 313,-54.5 313,-34.5 181,-34.5"/>
<text text-anchor="middle" x="247" y="-41.5" font-family="FreeSans" font-size="10.00" fill="#000000">Fun4AllBase::Verbosity</text>
</a>
</g>
</g>
<!-- Node1&#45;&gt;Node24 -->
<g id="edge27" class="edge">
<title>Node1&#45;&gt;Node24</title>
<path fill="none" stroke="#191970" d="M66.4163,-239.3774C75.1937,-202.1115 102.1765,-109.673 162,-63.5 164.9889,-61.1931 168.2033,-59.1555 171.5708,-57.3566"/>
<polygon fill="#191970" stroke="#191970" points="173.1596,-60.4786 180.7928,-53.1312 170.2438,-54.1148 173.1596,-60.4786"/>
</g>
<!-- Node3 -->
<g id="node3" class="node">
<title>Node3</title>
<g id="a_node3"><a xlink:href="../../d6/d86/classPHPointerList.html#ac2176735e9d046a034f1686fd2c477eb" target="_top" xlink:title="PHPointerList::append">
<polygon fill="none" stroke="#000000" points="628.5,-322.5 628.5,-342.5 756.5,-342.5 756.5,-322.5 628.5,-322.5"/>
<text text-anchor="middle" x="692.5" y="-329.5" font-family="FreeSans" font-size="10.00" fill="#000000">PHPointerList::append</text>
</a>
</g>
</g>
<!-- Node2&#45;&gt;Node3 -->
<g id="edge2" class="edge">
<title>Node2&#45;&gt;Node3</title>
<path fill="none" stroke="#191970" d="M537.7178,-320.0387C563.849,-322.1425 592.654,-324.4616 618.2572,-326.5228"/>
<polygon fill="#191970" stroke="#191970" points="618.0215,-330.0151 628.2701,-327.329 618.5833,-323.0377 618.0215,-330.0151"/>
</g>
<!-- Node4 -->
<g id="node4" class="node">
<title>Node4</title>
<g id="a_node4"><a xlink:href="../../dc/d82/classPHNode.html#aca3576f926a4401eddc3d88bf0ce0de3" target="_top" xlink:title="PHNode::getName">
<polygon fill="none" stroke="#000000" points="638,-406.5 638,-426.5 747,-426.5 747,-406.5 638,-406.5"/>
<text text-anchor="middle" x="692.5" y="-413.5" font-family="FreeSans" font-size="10.00" fill="#000000">PHNode::getName</text>
</a>
</g>
</g>
<!-- Node2&#45;&gt;Node4 -->
<g id="edge3" class="edge">
<title>Node2&#45;&gt;Node4</title>
<path fill="none" stroke="#191970" d="M512.4708,-323.5594C523.4296,-326.2494 534.7094,-329.5394 545,-333.5 551.3284,-335.9357 625.2415,-378.0253 665.9681,-401.3077"/>
<polygon fill="#191970" stroke="#191970" points="664.4154,-404.4516 674.8335,-406.3785 667.8909,-398.3753 664.4154,-404.4516"/>
</g>
<!-- Node5 -->
<g id="node5" class="node">
<title>Node5</title>
<g id="a_node5"><a xlink:href="../../dc/d82/classPHNode.html#adda2bd6cef2d5067bbe3016a990b7198" target="_top" xlink:title="PHNode::setParent">
<polygon fill="none" stroke="#000000" points="637,-283.5 637,-303.5 748,-303.5 748,-283.5 637,-283.5"/>
<text text-anchor="middle" x="692.5" y="-290.5" font-family="FreeSans" font-size="10.00" fill="#000000">PHNode::setParent</text>
</a>
</g>
</g>
<!-- Node2&#45;&gt;Node5 -->
<g id="edge4" class="edge">
<title>Node2&#45;&gt;Node5</title>
<path fill="none" stroke="#191970" d="M537.7178,-306.6171C566.6838,-304.1624 598.9354,-301.4292 626.4695,-299.0958"/>
<polygon fill="#191970" stroke="#191970" points="627.1058,-302.5545 636.7745,-298.2225 626.5146,-295.5795 627.1058,-302.5545"/>
</g>
<!-- Node6&#45;&gt;Node4 -->
<g id="edge7" class="edge">
<title>Node6&#45;&gt;Node4</title>
<path fill="none" stroke="#191970" d="M317.5908,-438.3802C402.8512,-433.4043 545.0825,-425.1035 627.6735,-420.2834"/>
<polygon fill="#191970" stroke="#191970" points="627.9091,-423.7757 637.6881,-419.6989 627.5012,-416.7876 627.9091,-423.7757"/>
</g>
<!-- Node6&#45;&gt;Node6 -->
<g id="edge8" class="edge">
<title>Node6&#45;&gt;Node6</title>
<path fill="none" stroke="#191970" d="M218.1938,-452.7271C205.0542,-461.6067 214.6563,-471 247,-471 268.731,-471 280.1959,-466.7597 281.395,-461.2839"/>
<polygon fill="#191970" stroke="#191970" points="284.2049,-459.1855 275.8062,-452.7271 278.3442,-463.0134 284.2049,-459.1855"/>
</g>
<!-- Node7 -->
<g id="node7" class="node">
<title>Node7</title>
<g id="a_node7"><a xlink:href="../../dc/d82/classPHNode.html#a4ab1f90aed955a652813bfe377087bda" target="_top" xlink:title="PHNode::getType">
<polygon fill="none" stroke="#000000" points="405,-393.5 405,-413.5 508,-413.5 508,-393.5 405,-393.5"/>
<text text-anchor="middle" x="456.5" y="-400.5" font-family="FreeSans" font-size="10.00" fill="#000000">PHNode::getType</text>
</a>
</g>
</g>
<!-- Node6&#45;&gt;Node7 -->
<g id="edge6" class="edge">
<title>Node6&#45;&gt;Node7</title>
<path fill="none" stroke="#191970" d="M300.9515,-432.4565C329.7074,-427.1034 365.2023,-420.4957 395.0213,-414.9447"/>
<polygon fill="#191970" stroke="#191970" points="395.7077,-418.3772 404.8983,-413.106 394.4266,-411.4954 395.7077,-418.3772"/>
</g>
<!-- Node8&#45;&gt;Node9 -->
<g id="edge10" class="edge">
<title>Node8&#45;&gt;Node9</title>
<path fill="none" stroke="#191970" d="M310.7102,-385.6399C329.8492,-382.077 351.1594,-378.11 371.4469,-374.3333"/>
<polygon fill="#191970" stroke="#191970" points="372.1196,-377.7683 381.3102,-372.4972 370.8385,-370.8865 372.1196,-377.7683"/>
</g>
<!-- Node12&#45;&gt;Node2 -->
<g id="edge15" class="edge">
<title>Node12&#45;&gt;Node2</title>
<path fill="none" stroke="#191970" d="M308.8713,-207.5367C316.8325,-210.432 324.7335,-213.746 332,-217.5 373.6823,-239.0337 415.5194,-274.9307 438.5114,-296.1943"/>
<polygon fill="#191970" stroke="#191970" points="436.4078,-299.0202 446.0943,-303.3125 441.1987,-293.9165 436.4078,-299.0202"/>
</g>
<!-- Node14 -->
<g id="node14" class="node">
<title>Node14</title>
<g id="a_node14"><a xlink:href="../../dd/dae/classPHParameters.html#a9485c99fc0bbee6150171583f1048190" target="_top" xlink:title="PHParameters::SaveToNodeTree">
<polygon fill="none" stroke="#000000" points="368,-153.5 368,-173.5 545,-173.5 545,-153.5 368,-153.5"/>
<text text-anchor="middle" x="456.5" y="-160.5" font-family="FreeSans" font-size="10.00" fill="#000000">PHParameters::SaveToNodeTree</text>
</a>
</g>
</g>
<!-- Node13&#45;&gt;Node14 -->
<g id="edge17" class="edge">
<title>Node13&#45;&gt;Node14</title>
<path fill="none" stroke="#191970" d="M310.7102,-147.4944C325.664,-149.1361 341.9433,-150.9234 358.0246,-152.6889"/>
<polygon fill="#191970" stroke="#191970" points="357.676,-156.1715 367.9983,-153.7838 358.44,-149.2133 357.676,-156.1715"/>
</g>
<!-- Node15 -->
<g id="node15" class="node">
<title>Node15</title>
<g id="a_node15"><a xlink:href="../../d8/d21/classPdbParameterMap.html#a92a2189dca701d55646b76a5a86e4100" target="_top" xlink:title="Clear Event.">
<polygon fill="none" stroke="#000000" points="620.5,-133.5 620.5,-153.5 764.5,-153.5 764.5,-133.5 620.5,-133.5"/>
<text text-anchor="middle" x="692.5" y="-140.5" font-family="FreeSans" font-size="10.00" fill="#000000">PdbParameterMap::Reset</text>
</a>
</g>
</g>
<!-- Node14&#45;&gt;Node15 -->
<g id="edge18" class="edge">
<title>Node14&#45;&gt;Node15</title>
<path fill="none" stroke="#191970" d="M545.0491,-155.9958C566.4052,-154.186 589.1361,-152.2597 610.193,-150.4752"/>
<polygon fill="#191970" stroke="#191970" points="610.7136,-153.9437 620.3823,-149.6117 610.1224,-146.9687 610.7136,-153.9437"/>
</g>
<!-- Node16 -->
<g id="node16" class="node">
<title>Node16</title>
<g id="a_node16"><a xlink:href="../../dd/dae/classPHParameters.html#a4dc6a076735983c1a66c1739f2905012" target="_top" xlink:title="PHParameters::CopyToPdbParameterMap">
<polygon fill="none" stroke="#000000" points="581,-172.5 581,-192.5 804,-192.5 804,-172.5 581,-172.5"/>
<text text-anchor="middle" x="692.5" y="-179.5" font-family="FreeSans" font-size="10.00" fill="#000000">PHParameters::CopyToPdbParameterMap</text>
</a>
</g>
</g>
<!-- Node14&#45;&gt;Node16 -->
<g id="edge19" class="edge">
<title>Node14&#45;&gt;Node16</title>
<path fill="none" stroke="#191970" d="M545.0491,-170.629C553.4158,-171.3025 561.9935,-171.9931 570.5989,-172.6859"/>
<polygon fill="#191970" stroke="#191970" points="570.4539,-176.1855 580.7026,-173.4994 571.0157,-169.2081 570.4539,-176.1855"/>
</g>
<!-- Node17 -->
<g id="node17" class="node">
<title>Node17</title>
<g id="a_node17"><a xlink:href="../../d8/d21/classPdbParameterMap.html#a8ad4dc22c7352f3a20558f177f3aabc1" target="_top" xlink:title="PdbParameterMap::set\l_double_param">
<polygon fill="none" stroke="#000000" points="840,-217.5 840,-249.5 971,-249.5 971,-217.5 840,-217.5"/>
<text text-anchor="start" x="848" y="-236.5" font-family="FreeSans" font-size="10.00" fill="#000000">PdbParameterMap::set</text>
<text text-anchor="middle" x="905.5" y="-224.5" font-family="FreeSans" font-size="10.00" fill="#000000">_double_param</text>
</a>
</g>
</g>
<!-- Node16&#45;&gt;Node17 -->
<g id="edge20" class="edge">
<title>Node16&#45;&gt;Node17</title>
<path fill="none" stroke="#191970" d="M734.3278,-192.5151C761.5573,-199.0349 797.8645,-207.7281 830.0328,-215.4304"/>
<polygon fill="#191970" stroke="#191970" points="829.3285,-218.8606 839.8686,-217.7854 830.9585,-212.053 829.3285,-218.8606"/>
</g>
<!-- Node18 -->
<g id="node18" class="node">
<title>Node18</title>
<g id="a_node18"><a xlink:href="../../d8/d21/classPdbParameterMap.html#aa47d7a23c66ee4fc4bcedca941892f72" target="_top" xlink:title="PdbParameterMap::set\l_int_param">
<polygon fill="none" stroke="#000000" points="840,-166.5 840,-198.5 971,-198.5 971,-166.5 840,-166.5"/>
<text text-anchor="start" x="848" y="-185.5" font-family="FreeSans" font-size="10.00" fill="#000000">PdbParameterMap::set</text>
<text text-anchor="middle" x="905.5" y="-173.5" font-family="FreeSans" font-size="10.00" fill="#000000">_int_param</text>
</a>
</g>
</g>
<!-- Node16&#45;&gt;Node18 -->
<g id="edge21" class="edge">
<title>Node16&#45;&gt;Node18</title>
<path fill="none" stroke="#191970" d="M804.3023,-182.5C812.8475,-182.5 821.3471,-182.5 829.5803,-182.5"/>
<polygon fill="#191970" stroke="#191970" points="829.8499,-186.0001 839.8499,-182.5 829.8498,-179.0001 829.8499,-186.0001"/>
</g>
<!-- Node19 -->
<g id="node19" class="node">
<title>Node19</title>
<g id="a_node19"><a xlink:href="../../d8/d21/classPdbParameterMap.html#adda244f2d8e7c3020f6dc8a0cffcbf97" target="_top" xlink:title="PdbParameterMap::set\l_string_param">
<polygon fill="none" stroke="#000000" points="840,-115.5 840,-147.5 971,-147.5 971,-115.5 840,-115.5"/>
<text text-anchor="start" x="848" y="-134.5" font-family="FreeSans" font-size="10.00" fill="#000000">PdbParameterMap::set</text>
<text text-anchor="middle" x="905.5" y="-122.5" font-family="FreeSans" font-size="10.00" fill="#000000">_string_param</text>
</a>
</g>
</g>
<!-- Node16&#45;&gt;Node19 -->
<g id="edge22" class="edge">
<title>Node16&#45;&gt;Node19</title>
<path fill="none" stroke="#191970" d="M760.3148,-172.4678C774.8063,-169.8996 789.9708,-166.89 804,-163.5 818.8841,-159.9034 834.7686,-155.2818 849.446,-150.6758"/>
<polygon fill="#191970" stroke="#191970" points="850.9253,-153.8777 859.3873,-147.5023 848.7965,-147.2092 850.9253,-153.8777"/>
</g>
<!-- Node21 -->
<g id="node21" class="node">
<title>Node21</title>
<g id="a_node21"><a xlink:href="../../dd/dae/classPHParameters.html#a75005aa44390e1eb574603b0b230152b" target="_top" xlink:title="PHParameters::set_double\l_param">
<polygon fill="none" stroke="#000000" points="382,-.5 382,-32.5 531,-32.5 531,-.5 382,-.5"/>
<text text-anchor="start" x="390" y="-19.5" font-family="FreeSans" font-size="10.00" fill="#000000">PHParameters::set_double</text>
<text text-anchor="middle" x="456.5" y="-7.5" font-family="FreeSans" font-size="10.00" fill="#000000">_param</text>
</a>
</g>
</g>
<!-- Node20&#45;&gt;Node21 -->
<g id="edge24" class="edge">
<title>Node20&#45;&gt;Node21</title>
<path fill="none" stroke="#191970" d="M306.2388,-73.4883C315.0102,-70.5142 323.8373,-67.1717 332,-63.5 349.1008,-55.8079 350.8174,-49.0076 368,-41.5 372.4302,-39.5643 377.0507,-37.7367 381.7543,-36.0188"/>
<polygon fill="#191970" stroke="#191970" points="383.1874,-39.2265 391.4917,-32.6471 380.8969,-32.6119 383.1874,-39.2265"/>
</g>
<!-- Node22 -->
<g id="node22" class="node">
<title>Node22</title>
<g id="a_node22"><a xlink:href="../../dd/dae/classPHParameters.html#a62881b44dd0564425633070316af66ec" target="_top" xlink:title="PHParameters::set_int\l_param">
<polygon fill="none" stroke="#000000" points="392.5,-102.5 392.5,-134.5 520.5,-134.5 520.5,-102.5 392.5,-102.5"/>
<text text-anchor="start" x="400.5" y="-121.5" font-family="FreeSans" font-size="10.00" fill="#000000">PHParameters::set_int</text>
<text text-anchor="middle" x="456.5" y="-109.5" font-family="FreeSans" font-size="10.00" fill="#000000">_param</text>
</a>
</g>
</g>
<!-- Node20&#45;&gt;Node22 -->
<g id="edge25" class="edge">
<title>Node20&#45;&gt;Node22</title>
<path fill="none" stroke="#191970" d="M332.2117,-101.2954C348.8166,-103.5939 366.1006,-105.9865 382.3139,-108.2308"/>
<polygon fill="#191970" stroke="#191970" points="381.8695,-111.7026 392.255,-109.6069 382.8294,-104.7687 381.8695,-111.7026"/>
</g>
<!-- Node23 -->
<g id="node23" class="node">
<title>Node23</title>
<g id="a_node23"><a xlink:href="../../dd/dae/classPHParameters.html#a2ebd6e499647b20dd41ca164e71ca061" target="_top" xlink:title="PHParameters::set_string\l_param">
<polygon fill="none" stroke="#000000" points="385,-51.5 385,-83.5 528,-83.5 528,-51.5 385,-51.5"/>
<text text-anchor="start" x="393" y="-70.5" font-family="FreeSans" font-size="10.00" fill="#000000">PHParameters::set_string</text>
<text text-anchor="middle" x="456.5" y="-58.5" font-family="FreeSans" font-size="10.00" fill="#000000">_param</text>
</a>
</g>
</g>
<!-- Node20&#45;&gt;Node23 -->
<g id="edge26" class="edge">
<title>Node20&#45;&gt;Node23</title>
<path fill="none" stroke="#191970" d="M332.2117,-80.5518C346.25,-79.0776 360.7737,-77.5524 374.7255,-76.0873"/>
<polygon fill="#191970" stroke="#191970" points="375.1886,-79.558 384.7683,-75.0327 374.4574,-72.5963 375.1886,-79.558"/>
</g>
</g>
</svg>
