<?xml version="1.0" encoding="UTF-8" standalone="no"?>
<!DOCTYPE svg PUBLIC "-//W3C//DTD SVG 1.1//EN"
 "http://www.w3.org/Graphics/SVG/1.1/DTD/svg11.dtd">
<!-- Generated by graphviz version 2.40.1 (20161225.0304)
 -->
<!-- Title: HelicalFitter::get_helix_pca Pages: 1 -->
<svg width="559pt" height="92pt"
 viewBox="0.00 0.00 559.00 92.00" xmlns="http://www.w3.org/2000/svg" xmlns:xlink="http://www.w3.org/1999/xlink">
<g id="graph0" class="graph" transform="scale(1 1) rotate(0) translate(4 88)">
<title>HelicalFitter::get_helix_pca</title>
<!-- Node1 -->
<g id="node1" class="node">
<title>Node1</title>
<polygon fill="#bfbfbf" stroke="#000000" points="0,-25.5 0,-57.5 100,-57.5 100,-25.5 0,-25.5"/>
<text text-anchor="start" x="8" y="-44.5" font-family="FreeSans" font-size="10.00" fill="#000000">HelicalFitter::get</text>
<text text-anchor="middle" x="50" y="-32.5" font-family="FreeSans" font-size="10.00" fill="#000000">_helix_pca</text>
</g>
<!-- Node2 -->
<g id="node2" class="node">
<title>Node2</title>
<g id="a_node2"><a xlink:href="../../d5/d7f/classTrackFitUtils.html#a18dad9ad18ffffd799eb07fc099053c9" target="_top" xlink:title="TrackFitUtils::get\l_helix_pca">
<polygon fill="none" stroke="#000000" points="136,-25.5 136,-57.5 237,-57.5 237,-25.5 136,-25.5"/>
<text text-anchor="start" x="144" y="-44.5" font-family="FreeSans" font-size="10.00" fill="#000000">TrackFitUtils::get</text>
<text text-anchor="middle" x="186.5" y="-32.5" font-family="FreeSans" font-size="10.00" fill="#000000">_helix_pca</text>
</a>
</g>
</g>
<!-- Node1&#45;&gt;Node2 -->
<g id="edge1" class="edge">
<title>Node1&#45;&gt;Node2</title>
<path fill="none" stroke="#191970" d="M100.0525,-41.5C108.4745,-41.5 117.2953,-41.5 125.9489,-41.5"/>
<polygon fill="#191970" stroke="#191970" points="125.9967,-45.0001 135.9967,-41.5 125.9966,-38.0001 125.9967,-45.0001"/>
</g>
<!-- Node3 -->
<g id="node3" class="node">
<title>Node3</title>
<g id="a_node3"><a xlink:href="../../d5/d7f/classTrackFitUtils.html#ace12678e4df927da3d37405578917cf2" target="_top" xlink:title="TrackFitUtils::get\l_circle_point_pca">
<polygon fill="none" stroke="#000000" points="292.5,-51.5 292.5,-83.5 395.5,-83.5 395.5,-51.5 292.5,-51.5"/>
<text text-anchor="start" x="300.5" y="-70.5" font-family="FreeSans" font-size="10.00" fill="#000000">TrackFitUtils::get</text>
<text text-anchor="middle" x="344" y="-58.5" font-family="FreeSans" font-size="10.00" fill="#000000">_circle_point_pca</text>
</a>
</g>
</g>
<!-- Node2&#45;&gt;Node3 -->
<g id="edge2" class="edge">
<title>Node2&#45;&gt;Node3</title>
<path fill="none" stroke="#191970" d="M237.2009,-49.8697C251.5217,-52.2337 267.266,-54.8328 282.1628,-57.292"/>
<polygon fill="#191970" stroke="#191970" points="281.8762,-60.7919 292.3127,-58.9675 283.0164,-53.8854 281.8762,-60.7919"/>
</g>
<!-- Node5 -->
<g id="node5" class="node">
<title>Node5</title>
<g id="a_node5"><a xlink:href="../../d5/d7f/classTrackFitUtils.html#a7e2b88ee7150691c7f252be65013b687" target="_top" xlink:title="TrackFitUtils::getPCALine\lPoint">
<polygon fill="none" stroke="#000000" points="273,-.5 273,-32.5 415,-32.5 415,-.5 273,-.5"/>
<text text-anchor="start" x="281" y="-19.5" font-family="FreeSans" font-size="10.00" fill="#000000">TrackFitUtils::getPCALine</text>
<text text-anchor="middle" x="344" y="-7.5" font-family="FreeSans" font-size="10.00" fill="#000000">Point</text>
</a>
</g>
</g>
<!-- Node2&#45;&gt;Node5 -->
<g id="edge4" class="edge">
<title>Node2&#45;&gt;Node5</title>
<path fill="none" stroke="#191970" d="M237.2009,-33.4522C245.3449,-32.1595 253.9492,-30.7938 262.5962,-29.4212"/>
<polygon fill="#191970" stroke="#191970" points="263.414,-32.8353 272.7417,-27.8108 262.3166,-25.9219 263.414,-32.8353"/>
</g>
<!-- Node4 -->
<g id="node4" class="node">
<title>Node4</title>
<g id="a_node4"><a xlink:href="../../dd/d7e/namespaceActs_1_1Test.html#a25144f827aaec56765c0d318216c94a5" target="_top" xlink:title="Acts::Test::origin">
<polygon fill="none" stroke="#000000" points="451,-57.5 451,-77.5 551,-77.5 551,-57.5 451,-57.5"/>
<text text-anchor="middle" x="501" y="-64.5" font-family="FreeSans" font-size="10.00" fill="#000000">Acts::Test::origin</text>
</a>
</g>
</g>
<!-- Node3&#45;&gt;Node4 -->
<g id="edge3" class="edge">
<title>Node3&#45;&gt;Node4</title>
<path fill="none" stroke="#191970" d="M395.8428,-67.5C410.2118,-67.5 425.9329,-67.5 440.7379,-67.5"/>
<polygon fill="#191970" stroke="#191970" points="440.8132,-71.0001 450.8132,-67.5 440.8132,-64.0001 440.8132,-71.0001"/>
</g>
</g>
</svg>
