<?xml version="1.0" encoding="UTF-8" standalone="no"?>
<!DOCTYPE svg PUBLIC "-//W3C//DTD SVG 1.1//EN"
 "http://www.w3.org/Graphics/SVG/1.1/DTD/svg11.dtd">
<!-- Generated by graphviz version 2.40.1 (20161225.0304)
 -->
<!-- Title: ReadMLPnew::Transform_1 Pages: 1 -->
<svg width="524pt" height="29pt"
 viewBox="0.00 0.00 524.00 29.00" xmlns="http://www.w3.org/2000/svg" xmlns:xlink="http://www.w3.org/1999/xlink">
<g id="graph0" class="graph" transform="scale(1 1) rotate(0) translate(4 25)">
<title>ReadMLPnew::Transform_1</title>
<!-- Node1 -->
<g id="node1" class="node">
<title>Node1</title>
<polygon fill="#bfbfbf" stroke="#000000" points="0,-.5 0,-20.5 150,-20.5 150,-.5 0,-.5"/>
<text text-anchor="middle" x="75" y="-7.5" font-family="FreeSans" font-size="10.00" fill="#000000">ReadMLPnew::Transform_1</text>
</g>
<!-- Node2 -->
<g id="node2" class="node">
<title>Node2</title>
<g id="a_node2"><a xlink:href="../../d7/d56/classReadMLPnew.html#a6f48408fe44b099d88775fae6eb157eb" target="_top" xlink:title="ReadMLPnew::Transform">
<polygon fill="none" stroke="#000000" points="186,-.5 186,-20.5 325,-20.5 325,-.5 186,-.5"/>
<text text-anchor="middle" x="255.5" y="-7.5" font-family="FreeSans" font-size="10.00" fill="#000000">ReadMLPnew::Transform</text>
</a>
</g>
</g>
<!-- Node1&#45;&gt;Node2 -->
<g id="edge1" class="edge">
<title>Node1&#45;&gt;Node2</title>
<path fill="none" stroke="#191970" d="M160.2636,-10.5C168.8406,-10.5 177.4779,-10.5 185.8643,-10.5"/>
<polygon fill="#191970" stroke="#191970" points="160.2413,-7.0001 150.2412,-10.5 160.2412,-14.0001 160.2413,-7.0001"/>
</g>
<!-- Node3 -->
<g id="node3" class="node">
<title>Node3</title>
<g id="a_node3"><a xlink:href="../../d7/d56/classReadMLPnew.html#add643469c5db915a3301214932dec921" target="_top" xlink:title="ReadMLPnew::GetMvaValue">
<polygon fill="none" stroke="#000000" points="361,-.5 361,-20.5 516,-20.5 516,-.5 361,-.5"/>
<text text-anchor="middle" x="438.5" y="-7.5" font-family="FreeSans" font-size="10.00" fill="#000000">ReadMLPnew::GetMvaValue</text>
</a>
</g>
</g>
<!-- Node2&#45;&gt;Node3 -->
<g id="edge2" class="edge">
<title>Node2&#45;&gt;Node3</title>
<path fill="none" stroke="#191970" d="M335.3848,-10.5C343.7993,-10.5 352.347,-10.5 360.7371,-10.5"/>
<polygon fill="#191970" stroke="#191970" points="335.2065,-7.0001 325.2065,-10.5 335.2065,-14.0001 335.2065,-7.0001"/>
</g>
</g>
</svg>
