<?xml version="1.0" encoding="UTF-8" standalone="no"?>
<!DOCTYPE svg PUBLIC "-//W3C//DTD SVG 1.1//EN"
 "http://www.w3.org/Graphics/SVG/1.1/DTD/svg11.dtd">
<!-- Generated by graphviz version 2.40.1 (20161225.0304)
 -->
<!-- Title: BOOST_AUTO_TEST_CASE Pages: 1 -->
<svg width="349pt" height="80pt"
 viewBox="0.00 0.00 349.00 80.00" xmlns="http://www.w3.org/2000/svg" xmlns:xlink="http://www.w3.org/1999/xlink">
<g id="graph0" class="graph" transform="scale(1 1) rotate(0) translate(4 76)">
<title>BOOST_AUTO_TEST_CASE</title>
<!-- Node1 -->
<g id="node1" class="node">
<title>Node1</title>
<polygon fill="#bfbfbf" stroke="#000000" points="0,-28.5 0,-48.5 147,-48.5 147,-28.5 0,-28.5"/>
<text text-anchor="middle" x="73.5" y="-35.5" font-family="FreeSans" font-size="10.00" fill="#000000">BOOST_AUTO_TEST_CASE</text>
</g>
<!-- Node2 -->
<g id="node2" class="node">
<title>Node2</title>
<g id="a_node2"><a xlink:href="../../de/d7d/classActs_1_1Surface.html#a64d681efb4e7ff11c8cfc075d359ba96" target="_top" xlink:title="Acts::Surface::getSharedPtr">
<polygon fill="none" stroke="#000000" points="183.5,-51.5 183.5,-71.5 340.5,-71.5 340.5,-51.5 183.5,-51.5"/>
<text text-anchor="middle" x="262" y="-58.5" font-family="FreeSans" font-size="10.00" fill="#000000">Acts::Surface::getSharedPtr</text>
</a>
</g>
</g>
<!-- Node1&#45;&gt;Node2 -->
<g id="edge1" class="edge">
<title>Node1&#45;&gt;Node2</title>
<path fill="none" stroke="#191970" d="M147.1889,-47.4912C155.7239,-48.5326 164.4954,-49.6029 173.2046,-50.6655"/>
<polygon fill="#191970" stroke="#191970" points="173.0316,-54.1703 183.3819,-51.9073 173.8795,-47.2218 173.0316,-54.1703"/>
</g>
<!-- Node3 -->
<g id="node3" class="node">
<title>Node3</title>
<g id="a_node3"><a xlink:href="../../d5/d0b/classActs_1_1Test_1_1DetectorElementStub.html#a7829a13713006c281f9d84400880c253" target="_top" xlink:title="Return surface associated with this detector element.">
<polygon fill="none" stroke="#000000" points="183,-.5 183,-32.5 341,-32.5 341,-.5 183,-.5"/>
<text text-anchor="start" x="191" y="-19.5" font-family="FreeSans" font-size="10.00" fill="#000000">Acts::Test::DetectorElement</text>
<text text-anchor="middle" x="262" y="-7.5" font-family="FreeSans" font-size="10.00" fill="#000000">Stub::surface</text>
</a>
</g>
</g>
<!-- Node1&#45;&gt;Node3 -->
<g id="edge2" class="edge">
<title>Node1&#45;&gt;Node3</title>
<path fill="none" stroke="#191970" d="M147.1889,-29.8997C155.5755,-28.9209 164.1904,-27.9154 172.7502,-26.9164"/>
<polygon fill="#191970" stroke="#191970" points="173.2294,-30.3843 182.7563,-25.7486 172.4179,-23.4315 173.2294,-30.3843"/>
</g>
</g>
</svg>
