<?xml version="1.0" encoding="UTF-8" standalone="no"?>
<!DOCTYPE svg PUBLIC "-//W3C//DTD SVG 1.1//EN"
 "http://www.w3.org/Graphics/SVG/1.1/DTD/svg11.dtd">
<!-- Generated by graphviz version 2.40.1 (20161225.0304)
 -->
<!-- Title: PHG4BbcSteppingAction::UserSteppingAction Pages: 1 -->
<svg width="484pt" height="638pt"
 viewBox="0.00 0.00 484.00 638.00" xmlns="http://www.w3.org/2000/svg" xmlns:xlink="http://www.w3.org/1999/xlink">
<g id="graph0" class="graph" transform="scale(1 1) rotate(0) translate(4 634)">
<title>PHG4BbcSteppingAction::UserSteppingAction</title>
<!-- Node1 -->
<g id="node1" class="node">
<title>Node1</title>
<polygon fill="#bfbfbf" stroke="#000000" points="0,-286.5 0,-318.5 140,-318.5 140,-286.5 0,-286.5"/>
<text text-anchor="start" x="8" y="-305.5" font-family="FreeSans" font-size="10.00" fill="#000000">PHG4BbcSteppingAction</text>
<text text-anchor="middle" x="70" y="-293.5" font-family="FreeSans" font-size="10.00" fill="#000000">::UserSteppingAction</text>
</g>
<!-- Node2 -->
<g id="node2" class="node">
<title>Node2</title>
<g id="a_node2"><a xlink:href="../../d4/d30/classPHG4HitContainer.html#a4df3ca68ecff69c9d7976b84fcc82e93" target="_top" xlink:title="PHG4HitContainer::AddHit">
<polygon fill="none" stroke="#000000" points="176.5,-609.5 176.5,-629.5 325.5,-629.5 325.5,-609.5 176.5,-609.5"/>
<text text-anchor="middle" x="251" y="-616.5" font-family="FreeSans" font-size="10.00" fill="#000000">PHG4HitContainer::AddHit</text>
</a>
</g>
</g>
<!-- Node1&#45;&gt;Node2 -->
<g id="edge1" class="edge">
<title>Node1&#45;&gt;Node2</title>
<path fill="none" stroke="#191970" d="M71.0878,-318.688C75.2394,-367.5255 94.2836,-514.9186 176,-594.5 180.2834,-598.6715 185.2807,-602.1472 190.625,-605.0431"/>
<polygon fill="#191970" stroke="#191970" points="189.3424,-608.3075 199.8819,-609.3899 192.3178,-601.9713 189.3424,-608.3075"/>
</g>
<!-- Node3 -->
<g id="node3" class="node">
<title>Node3</title>
<g id="a_node3"><a xlink:href="../../d3/d9e/classPHG4Hit.html#acea6b2f3763d899e4de3765b9b5c6e51" target="_top" xlink:title="PHG4Hit::get_hit_id">
<polygon fill="none" stroke="#000000" points="362,-589.5 362,-609.5 476,-609.5 476,-589.5 362,-589.5"/>
<text text-anchor="middle" x="419" y="-596.5" font-family="FreeSans" font-size="10.00" fill="#000000">PHG4Hit::get_hit_id</text>
</a>
</g>
</g>
<!-- Node1&#45;&gt;Node3 -->
<g id="edge3" class="edge">
<title>Node1&#45;&gt;Node3</title>
<path fill="none" stroke="#191970" d="M71.3165,-318.7852C75.9978,-365.1193 96.1371,-498.3939 176,-561.5 202.5395,-582.471 289.2985,-592.0394 351.5766,-596.2867"/>
<polygon fill="#191970" stroke="#191970" points="351.5293,-599.7909 361.7355,-596.9476 351.9838,-592.8057 351.5293,-599.7909"/>
</g>
<!-- Node4 -->
<g id="node4" class="node">
<title>Node4</title>
<g id="a_node4"><a xlink:href="../../d3/d9e/classPHG4Hit.html#a69cc7aee827e3da7cf86e87418f9211b" target="_top" xlink:title="PHG4Hit::get_x">
<polygon fill="none" stroke="#000000" points="204.5,-531.5 204.5,-551.5 297.5,-551.5 297.5,-531.5 204.5,-531.5"/>
<text text-anchor="middle" x="251" y="-538.5" font-family="FreeSans" font-size="10.00" fill="#000000">PHG4Hit::get_x</text>
</a>
</g>
</g>
<!-- Node1&#45;&gt;Node4 -->
<g id="edge4" class="edge">
<title>Node1&#45;&gt;Node4</title>
<path fill="none" stroke="#191970" d="M72.9304,-318.6685C81.2088,-359.5169 108.6904,-467.5153 176,-522.5 181.4516,-526.9533 187.8141,-530.3796 194.4863,-533.0127"/>
<polygon fill="#191970" stroke="#191970" points="193.8194,-536.48 204.4132,-536.3301 196.0382,-529.841 193.8194,-536.48"/>
</g>
<!-- Node5 -->
<g id="node5" class="node">
<title>Node5</title>
<g id="a_node5"><a xlink:href="../../d4/d30/classPHG4HitContainer.html#a5073671e6d35969dc3d421e2278229af" target="_top" xlink:title="PHG4HitContainer::GetID">
<polygon fill="none" stroke="#000000" points="179.5,-492.5 179.5,-512.5 322.5,-512.5 322.5,-492.5 179.5,-492.5"/>
<text text-anchor="middle" x="251" y="-499.5" font-family="FreeSans" font-size="10.00" fill="#000000">PHG4HitContainer::GetID</text>
</a>
</g>
</g>
<!-- Node1&#45;&gt;Node5 -->
<g id="edge5" class="edge">
<title>Node1&#45;&gt;Node5</title>
<path fill="none" stroke="#191970" d="M74.7244,-318.6791C85.9919,-354.3102 117.9267,-439.8489 176,-483.5 178.1139,-485.0889 180.3462,-486.5458 182.6662,-487.8816"/>
<polygon fill="#191970" stroke="#191970" points="181.4657,-491.1912 191.9847,-492.4565 184.5506,-484.9076 181.4657,-491.1912"/>
</g>
<!-- Node6 -->
<g id="node6" class="node">
<title>Node6</title>
<g id="a_node6"><a xlink:href="../../df/d3f/classPHG4SteppingAction.html#a88ff50956245a2b72d459bad2004e1ca" target="_top" xlink:title="PHG4SteppingAction\l::GetName">
<polygon fill="none" stroke="#000000" points="190.5,-441.5 190.5,-473.5 311.5,-473.5 311.5,-441.5 190.5,-441.5"/>
<text text-anchor="start" x="198.5" y="-460.5" font-family="FreeSans" font-size="10.00" fill="#000000">PHG4SteppingAction</text>
<text text-anchor="middle" x="251" y="-448.5" font-family="FreeSans" font-size="10.00" fill="#000000">::GetName</text>
</a>
</g>
</g>
<!-- Node1&#45;&gt;Node6 -->
<g id="edge6" class="edge">
<title>Node1&#45;&gt;Node6</title>
<path fill="none" stroke="#191970" d="M78.9273,-318.5604C94.8988,-345.8658 130.9464,-401.3954 176,-432.5 178.1248,-433.967 180.3424,-435.3533 182.6276,-436.663"/>
<polygon fill="#191970" stroke="#191970" points="181.2305,-439.8803 191.7239,-441.3428 184.4329,-433.6557 181.2305,-439.8803"/>
</g>
<!-- Node7 -->
<g id="node7" class="node">
<title>Node7</title>
<g id="a_node7"><a xlink:href="../../d2/df6/namespacePHG4StepStatusDecode.html#aeadff043ba4ca96f6011a5a8d7e803bf" target="_top" xlink:title="PHG4StepStatusDecode\l::GetStepStatus">
<polygon fill="none" stroke="#000000" points="182,-390.5 182,-422.5 320,-422.5 320,-390.5 182,-390.5"/>
<text text-anchor="start" x="190" y="-409.5" font-family="FreeSans" font-size="10.00" fill="#000000">PHG4StepStatusDecode</text>
<text text-anchor="middle" x="251" y="-397.5" font-family="FreeSans" font-size="10.00" fill="#000000">::GetStepStatus</text>
</a>
</g>
</g>
<!-- Node1&#45;&gt;Node7 -->
<g id="edge7" class="edge">
<title>Node1&#45;&gt;Node7</title>
<path fill="none" stroke="#191970" d="M87.9337,-318.7068C108.0986,-336.2226 142.429,-363.9751 176,-381.5 179.46,-383.3062 183.0768,-385.0196 186.7728,-386.6386"/>
<polygon fill="#191970" stroke="#191970" points="185.4996,-389.8994 196.0792,-390.4674 188.163,-383.4258 185.4996,-389.8994"/>
</g>
<!-- Node8 -->
<g id="node8" class="node">
<title>Node8</title>
<g id="a_node8"><a xlink:href="../../d3/d22/classPHG4BbcDetector.html#a140248bc74c73e1dcc7da334217a5cc8" target="_top" xlink:title="PHG4BbcDetector::IsInBbc">
<polygon fill="none" stroke="#000000" points="176,-351.5 176,-371.5 326,-371.5 326,-351.5 176,-351.5"/>
<text text-anchor="middle" x="251" y="-358.5" font-family="FreeSans" font-size="10.00" fill="#000000">PHG4BbcDetector::IsInBbc</text>
</a>
</g>
</g>
<!-- Node1&#45;&gt;Node8 -->
<g id="edge8" class="edge">
<title>Node1&#45;&gt;Node8</title>
<path fill="none" stroke="#191970" d="M109.3952,-318.5769C129.1954,-326.3463 153.6699,-335.4829 176,-342.5 183.128,-344.7399 190.6993,-346.9035 198.1848,-348.9182"/>
<polygon fill="#191970" stroke="#191970" points="197.3705,-352.3229 207.9313,-351.4747 199.1466,-345.5519 197.3705,-352.3229"/>
</g>
<!-- Node9 -->
<g id="node9" class="node">
<title>Node9</title>
<g id="a_node9"><a xlink:href="../../d3/d9e/classPHG4Hit.html#abfb89e6996324dc9961cf790c74c7741" target="_top" xlink:title="Clear Event.">
<polygon fill="none" stroke="#000000" points="204,-312.5 204,-332.5 298,-332.5 298,-312.5 204,-312.5"/>
<text text-anchor="middle" x="251" y="-319.5" font-family="FreeSans" font-size="10.00" fill="#000000">PHG4Hit::Reset</text>
</a>
</g>
</g>
<!-- Node1&#45;&gt;Node9 -->
<g id="edge9" class="edge">
<title>Node1&#45;&gt;Node9</title>
<path fill="none" stroke="#191970" d="M140.2384,-310.2611C157.931,-312.2161 176.7128,-314.2915 193.6866,-316.167"/>
<polygon fill="#191970" stroke="#191970" points="193.6717,-319.6866 203.9956,-317.3061 194.4406,-312.7289 193.6717,-319.6866"/>
</g>
<!-- Node10 -->
<g id="node10" class="node">
<title>Node10</title>
<g id="a_node10"><a xlink:href="../../d3/d9e/classPHG4Hit.html#ad97bbe7fcf81822a93654afe0e540143" target="_top" xlink:title="PHG4Hit::set_edep">
<polygon fill="none" stroke="#000000" points="195.5,-273.5 195.5,-293.5 306.5,-293.5 306.5,-273.5 195.5,-273.5"/>
<text text-anchor="middle" x="251" y="-280.5" font-family="FreeSans" font-size="10.00" fill="#000000">PHG4Hit::set_edep</text>
</a>
</g>
</g>
<!-- Node1&#45;&gt;Node10 -->
<g id="edge10" class="edge">
<title>Node1&#45;&gt;Node10</title>
<path fill="none" stroke="#191970" d="M140.2384,-295.1269C155.0943,-293.5674 170.7181,-291.9274 185.3947,-290.3867"/>
<polygon fill="#191970" stroke="#191970" points="185.8031,-293.8632 195.383,-289.3382 185.0722,-286.9015 185.8031,-293.8632"/>
</g>
<!-- Node11 -->
<g id="node11" class="node">
<title>Node11</title>
<g id="a_node11"><a xlink:href="../../d3/d9e/classPHG4Hit.html#a65d6d5bfd2a9e6fe2392fc57ac6c57d0" target="_top" xlink:title="PHG4Hit::set_eion">
<polygon fill="none" stroke="#000000" points="197.5,-234.5 197.5,-254.5 304.5,-254.5 304.5,-234.5 197.5,-234.5"/>
<text text-anchor="middle" x="251" y="-241.5" font-family="FreeSans" font-size="10.00" fill="#000000">PHG4Hit::set_eion</text>
</a>
</g>
</g>
<!-- Node1&#45;&gt;Node11 -->
<g id="edge11" class="edge">
<title>Node1&#45;&gt;Node11</title>
<path fill="none" stroke="#191970" d="M112.2778,-286.428C131.5825,-279.3265 154.8181,-271.1083 176,-264.5 184.0442,-261.9904 192.6335,-259.5135 201.0215,-257.203"/>
<polygon fill="#191970" stroke="#191970" points="201.9928,-260.5662 210.7312,-254.5753 200.1641,-253.8092 201.9928,-260.5662"/>
</g>
<!-- Node12 -->
<g id="node12" class="node">
<title>Node12</title>
<g id="a_node12"><a xlink:href="../../d3/d9e/classPHG4Hit.html#a164f860f2c74482d5d26c220f19be1f1" target="_top" xlink:title="PHG4Hit::set_layer">
<polygon fill="none" stroke="#000000" points="195,-195.5 195,-215.5 307,-215.5 307,-195.5 195,-195.5"/>
<text text-anchor="middle" x="251" y="-202.5" font-family="FreeSans" font-size="10.00" fill="#000000">PHG4Hit::set_layer</text>
</a>
</g>
</g>
<!-- Node1&#45;&gt;Node12 -->
<g id="edge12" class="edge">
<title>Node1&#45;&gt;Node12</title>
<path fill="none" stroke="#191970" d="M87.8148,-286.345C107.8755,-268.9588 142.1153,-241.6356 176,-225.5 181.3781,-222.939 187.135,-220.6661 192.9796,-218.6582"/>
<polygon fill="#191970" stroke="#191970" points="194.3751,-221.8874 202.847,-215.5251 192.2567,-215.2156 194.3751,-221.8874"/>
</g>
<!-- Node13 -->
<g id="node13" class="node">
<title>Node13</title>
<g id="a_node13"><a xlink:href="../../d3/d9e/classPHG4Hit.html#a5cced855d1a85cb380f993417f1e5b1a" target="_top" xlink:title="PHG4Hit::set_t">
<polygon fill="none" stroke="#000000" points="206,-156.5 206,-176.5 296,-176.5 296,-156.5 206,-156.5"/>
<text text-anchor="middle" x="251" y="-163.5" font-family="FreeSans" font-size="10.00" fill="#000000">PHG4Hit::set_t</text>
</a>
</g>
</g>
<!-- Node1&#45;&gt;Node13 -->
<g id="edge13" class="edge">
<title>Node1&#45;&gt;Node13</title>
<path fill="none" stroke="#191970" d="M80.2548,-286.3145C97.1027,-261.0758 133.0888,-212.5446 176,-186.5 182.1776,-182.7506 189.058,-179.6943 196.0758,-177.2055"/>
<polygon fill="#191970" stroke="#191970" points="197.2089,-180.5179 205.6775,-174.1514 195.087,-173.8473 197.2089,-180.5179"/>
</g>
<!-- Node14 -->
<g id="node14" class="node">
<title>Node14</title>
<g id="a_node14"><a xlink:href="../../d3/d9e/classPHG4Hit.html#ac4e7f18a0d54ec275128651928e69531" target="_top" xlink:title="PHG4Hit::set_trkid">
<polygon fill="none" stroke="#000000" points="197,-117.5 197,-137.5 305,-137.5 305,-117.5 197,-117.5"/>
<text text-anchor="middle" x="251" y="-124.5" font-family="FreeSans" font-size="10.00" fill="#000000">PHG4Hit::set_trkid</text>
</a>
</g>
</g>
<!-- Node1&#45;&gt;Node14 -->
<g id="edge14" class="edge">
<title>Node1&#45;&gt;Node14</title>
<path fill="none" stroke="#191970" d="M76.556,-286.0573C90.119,-254.2079 124.372,-184.0306 176,-147.5 179.5271,-145.0044 183.3471,-142.8201 187.3314,-140.9084"/>
<polygon fill="#191970" stroke="#191970" points="188.9884,-144.0094 196.8656,-136.9242 186.2893,-137.5506 188.9884,-144.0094"/>
</g>
<!-- Node15 -->
<g id="node15" class="node">
<title>Node15</title>
<g id="a_node15"><a xlink:href="../../d3/d9e/classPHG4Hit.html#aa91398b4546e9d099443217e1577f79b" target="_top" xlink:title="PHG4Hit::set_x">
<polygon fill="none" stroke="#000000" points="205,-78.5 205,-98.5 297,-98.5 297,-78.5 205,-78.5"/>
<text text-anchor="middle" x="251" y="-85.5" font-family="FreeSans" font-size="10.00" fill="#000000">PHG4Hit::set_x</text>
</a>
</g>
</g>
<!-- Node1&#45;&gt;Node15 -->
<g id="edge15" class="edge">
<title>Node1&#45;&gt;Node15</title>
<path fill="none" stroke="#191970" d="M74.0967,-286.36C84.4303,-249.0269 115.1746,-156.2614 176,-108.5 181.6836,-104.0371 188.277,-100.5663 195.1497,-97.8679"/>
<polygon fill="#191970" stroke="#191970" points="196.2922,-101.1763 204.6353,-94.6462 194.041,-94.5481 196.2922,-101.1763"/>
</g>
<!-- Node16 -->
<g id="node16" class="node">
<title>Node16</title>
<g id="a_node16"><a xlink:href="../../d3/d9e/classPHG4Hit.html#a3ab7971f354374b005f9a11fd761b53e" target="_top" xlink:title="PHG4Hit::set_y">
<polygon fill="none" stroke="#000000" points="205,-39.5 205,-59.5 297,-59.5 297,-39.5 205,-39.5"/>
<text text-anchor="middle" x="251" y="-46.5" font-family="FreeSans" font-size="10.00" fill="#000000">PHG4Hit::set_y</text>
</a>
</g>
</g>
<!-- Node1&#45;&gt;Node16 -->
<g id="edge16" class="edge">
<title>Node1&#45;&gt;Node16</title>
<path fill="none" stroke="#191970" d="M72.4988,-286.3833C79.9363,-244.029 105.942,-128.7759 176,-69.5 181.5874,-64.7725 188.1799,-61.1507 195.0993,-58.3783"/>
<polygon fill="#191970" stroke="#191970" points="196.347,-61.6507 204.6741,-55.1001 194.0795,-55.0281 196.347,-61.6507"/>
</g>
<!-- Node17 -->
<g id="node17" class="node">
<title>Node17</title>
<g id="a_node17"><a xlink:href="../../d3/d9e/classPHG4Hit.html#a896d7a45139f9cbc2e429127baa61715" target="_top" xlink:title="PHG4Hit::set_z">
<polygon fill="none" stroke="#000000" points="205.5,-.5 205.5,-20.5 296.5,-20.5 296.5,-.5 205.5,-.5"/>
<text text-anchor="middle" x="251" y="-7.5" font-family="FreeSans" font-size="10.00" fill="#000000">PHG4Hit::set_z</text>
</a>
</g>
</g>
<!-- Node1&#45;&gt;Node17 -->
<g id="edge17" class="edge">
<title>Node1&#45;&gt;Node17</title>
<path fill="none" stroke="#191970" d="M71.3547,-286.1835C76.1668,-239.0362 96.6833,-101.4675 176,-30.5 181.5926,-25.4961 188.301,-21.7229 195.3751,-18.8816"/>
<polygon fill="#191970" stroke="#191970" points="196.832,-22.0834 205.1779,-15.5568 194.5836,-15.4543 196.832,-22.0834"/>
</g>
<!-- Node2&#45;&gt;Node3 -->
<g id="edge2" class="edge">
<title>Node2&#45;&gt;Node3</title>
<path fill="none" stroke="#191970" d="M325.6656,-610.6112C334.4208,-609.569 343.313,-608.5104 351.9553,-607.4815"/>
<polygon fill="#191970" stroke="#191970" points="352.4465,-610.9478 361.9626,-606.2902 351.619,-603.9969 352.4465,-610.9478"/>
</g>
</g>
</svg>
