<?xml version="1.0" encoding="UTF-8" standalone="no"?>
<!DOCTYPE svg PUBLIC "-//W3C//DTD SVG 1.1//EN"
 "http://www.w3.org/Graphics/SVG/1.1/DTD/svg11.dtd">
<!-- Generated by graphviz version 2.40.1 (20161225.0304)
 -->
<!-- Title: clvisc::OpenclBackend::CreateImage2DByCopyVector Pages: 1 -->
<svg width="502pt" height="41pt"
 viewBox="0.00 0.00 502.00 41.00" xmlns="http://www.w3.org/2000/svg" xmlns:xlink="http://www.w3.org/1999/xlink">
<g id="graph0" class="graph" transform="scale(1 1) rotate(0) translate(4 37)">
<title>clvisc::OpenclBackend::CreateImage2DByCopyVector</title>
<!-- Node1 -->
<g id="node1" class="node">
<title>Node1</title>
<polygon fill="#bfbfbf" stroke="#000000" points="0,-.5 0,-32.5 173,-32.5 173,-.5 0,-.5"/>
<text text-anchor="start" x="8" y="-19.5" font-family="FreeSans" font-size="10.00" fill="#000000">clvisc::OpenclBackend</text>
<text text-anchor="middle" x="86.5" y="-7.5" font-family="FreeSans" font-size="10.00" fill="#000000">::CreateImage2DByCopyVector</text>
</g>
<!-- Node2 -->
<g id="node2" class="node">
<title>Node2</title>
<g id="a_node2"><a xlink:href="../../de/de7/classclvisc_1_1CLIdeal.html#af387bf85312cb816571556dd02a667f8" target="_top" xlink:title="clvisc::CLIdeal::read\l_eos_table_">
<polygon fill="none" stroke="#000000" points="209,-.5 209,-32.5 326,-32.5 326,-.5 209,-.5"/>
<text text-anchor="start" x="217" y="-19.5" font-family="FreeSans" font-size="10.00" fill="#000000">clvisc::CLIdeal::read</text>
<text text-anchor="middle" x="267.5" y="-7.5" font-family="FreeSans" font-size="10.00" fill="#000000">_eos_table_</text>
</a>
</g>
</g>
<!-- Node1&#45;&gt;Node2 -->
<g id="edge1" class="edge">
<title>Node1&#45;&gt;Node2</title>
<path fill="none" stroke="#191970" d="M183.3035,-16.5C192.0459,-16.5 200.7096,-16.5 208.9659,-16.5"/>
<polygon fill="#191970" stroke="#191970" points="183.0241,-13.0001 173.0241,-16.5 183.0241,-20.0001 183.0241,-13.0001"/>
</g>
<!-- Node3 -->
<g id="node3" class="node">
<title>Node3</title>
<g id="a_node3"><a xlink:href="../../de/de7/classclvisc_1_1CLIdeal.html#a570f6d568595f33822f2466dfe0fe11e" target="_top" xlink:title="clvisc::CLIdeal::CLIdeal">
<polygon fill="none" stroke="#000000" points="362,-6.5 362,-26.5 494,-26.5 494,-6.5 362,-6.5"/>
<text text-anchor="middle" x="428" y="-13.5" font-family="FreeSans" font-size="10.00" fill="#000000">clvisc::CLIdeal::CLIdeal</text>
</a>
</g>
</g>
<!-- Node2&#45;&gt;Node3 -->
<g id="edge2" class="edge">
<title>Node2&#45;&gt;Node3</title>
<path fill="none" stroke="#191970" d="M336.4954,-16.5C344.8997,-16.5 353.4719,-16.5 361.8335,-16.5"/>
<polygon fill="#191970" stroke="#191970" points="336.3529,-13.0001 326.3529,-16.5 336.3529,-20.0001 336.3529,-13.0001"/>
</g>
</g>
</svg>
