<?xml version="1.0" encoding="UTF-8" standalone="no"?>
<!DOCTYPE svg PUBLIC "-//W3C//DTD SVG 1.1//EN"
 "http://www.w3.org/Graphics/SVG/1.1/DTD/svg11.dtd">
<!-- Generated by graphviz version 2.40.1 (20161225.0304)
 -->
<!-- Title: coresoftware/blob/master/offline/packages/KFParticle_sPHENIX/KFParticle_Tools.h Pages: 1 -->
<svg width="487pt" height="224pt"
 viewBox="0.00 0.00 487.00 224.00" xmlns="http://www.w3.org/2000/svg" xmlns:xlink="http://www.w3.org/1999/xlink">
<g id="graph0" class="graph" transform="scale(1 1) rotate(0) translate(4 220)">
<title>coresoftware/blob/master/offline/packages/KFParticle_sPHENIX/KFParticle_Tools.h</title>
<!-- Node1 -->
<g id="node1" class="node">
<title>Node1</title>
<polygon fill="#bfbfbf" stroke="#000000" points="171,-171.5 171,-215.5 328,-215.5 328,-171.5 171,-171.5"/>
<text text-anchor="start" x="179" y="-202.5" font-family="FreeSans" font-size="10.00" fill="#000000">coresoftware/blob/master</text>
<text text-anchor="start" x="179" y="-190.5" font-family="FreeSans" font-size="10.00" fill="#000000">/offline/packages/KFParticle</text>
<text text-anchor="middle" x="249.5" y="-178.5" font-family="FreeSans" font-size="10.00" fill="#000000">_sPHENIX/KFParticle_Tools.h</text>
</g>
<!-- Node2 -->
<g id="node2" class="node">
<title>Node2</title>
<g id="a_node2"><a xlink:href="../../db/d02/KFParticle__MVA_8h.html" target="_top" xlink:title="KFParticle_MVA.h">
<polygon fill="none" stroke="#000000" points="81.5,-114.5 81.5,-134.5 183.5,-134.5 183.5,-114.5 81.5,-114.5"/>
<text text-anchor="middle" x="132.5" y="-121.5" font-family="FreeSans" font-size="10.00" fill="#000000">KFParticle_MVA.h</text>
</a>
</g>
</g>
<!-- Node1&#45;&gt;Node2 -->
<g id="edge1" class="edge">
<title>Node1&#45;&gt;Node2</title>
<path fill="none" stroke="#191970" d="M212.1588,-171.4783C194.6047,-161.1259 174.113,-149.041 158.3094,-139.7209"/>
<polygon fill="#191970" stroke="#191970" points="159.9954,-136.652 149.6038,-134.5869 156.4395,-142.6815 159.9954,-136.652"/>
</g>
<!-- Node4 -->
<g id="node4" class="node">
<title>Node4</title>
<polygon fill="none" stroke="#bfbfbf" points="0,-57.5 0,-77.5 45,-77.5 45,-57.5 0,-57.5"/>
<text text-anchor="middle" x="22.5" y="-64.5" font-family="FreeSans" font-size="10.00" fill="#000000">string</text>
</g>
<!-- Node1&#45;&gt;Node4 -->
<g id="edge12" class="edge">
<title>Node1&#45;&gt;Node4</title>
<path fill="none" stroke="#191970" d="M170.6012,-178.4803C138.0812,-169.6002 101.3451,-155.8651 72.5,-135 55.0525,-122.3793 41.098,-101.8617 32.4114,-86.7553"/>
<polygon fill="#191970" stroke="#191970" points="35.352,-84.8381 27.48,-77.7471 29.2118,-88.1995 35.352,-84.8381"/>
</g>
<!-- Node5 -->
<g id="node5" class="node">
<title>Node5</title>
<polygon fill="none" stroke="#bfbfbf" points="179.5,-57.5 179.5,-77.5 221.5,-77.5 221.5,-57.5 179.5,-57.5"/>
<text text-anchor="middle" x="200.5" y="-64.5" font-family="FreeSans" font-size="10.00" fill="#000000">tuple</text>
</g>
<!-- Node1&#45;&gt;Node5 -->
<g id="edge13" class="edge">
<title>Node1&#45;&gt;Node5</title>
<path fill="none" stroke="#191970" d="M240.8526,-171.2638C231.6025,-147.4778 217.0689,-110.1058 208.2003,-87.3007"/>
<polygon fill="#191970" stroke="#191970" points="211.3429,-85.7251 204.4564,-77.6736 204.8189,-88.2623 211.3429,-85.7251"/>
</g>
<!-- Node6 -->
<g id="node6" class="node">
<title>Node6</title>
<polygon fill="none" stroke="#bfbfbf" points="225,-.5 225,-20.5 274,-20.5 274,-.5 225,-.5"/>
<text text-anchor="middle" x="249.5" y="-7.5" font-family="FreeSans" font-size="10.00" fill="#000000">vector</text>
</g>
<!-- Node1&#45;&gt;Node6 -->
<g id="edge15" class="edge">
<title>Node1&#45;&gt;Node6</title>
<path fill="none" stroke="#191970" d="M249.5,-171.4259C249.5,-135.7252 249.5,-65.8174 249.5,-31.0908"/>
<polygon fill="#191970" stroke="#191970" points="253.0001,-30.7629 249.5,-20.763 246.0001,-30.763 253.0001,-30.7629"/>
</g>
<!-- Node7 -->
<g id="node7" class="node">
<title>Node7</title>
<g id="a_node7"><a xlink:href="../../d6/db1/KFParticle_8h.html" target="_top" xlink:title="KFParticle.h">
<polygon fill="none" stroke="#000000" points="278,-114.5 278,-134.5 353,-134.5 353,-114.5 278,-114.5"/>
<text text-anchor="middle" x="315.5" y="-121.5" font-family="FreeSans" font-size="10.00" fill="#000000">KFParticle.h</text>
</a>
</g>
</g>
<!-- Node1&#45;&gt;Node7 -->
<g id="edge6" class="edge">
<title>Node1&#45;&gt;Node7</title>
<path fill="none" stroke="#191970" d="M270.7461,-171.2882C279.7477,-161.8774 290.0915,-151.0634 298.5657,-142.204"/>
<polygon fill="#191970" stroke="#191970" points="301.3474,-144.3594 305.7304,-134.7137 296.2889,-139.5208 301.3474,-144.3594"/>
</g>
<!-- Node11 -->
<g id="node11" class="node">
<title>Node11</title>
<polygon fill="none" stroke="#bfbfbf" points="371,-114.5 371,-134.5 416,-134.5 416,-114.5 371,-114.5"/>
<text text-anchor="middle" x="393.5" y="-121.5" font-family="FreeSans" font-size="10.00" fill="#000000">cfloat</text>
</g>
<!-- Node1&#45;&gt;Node11 -->
<g id="edge11" class="edge">
<title>Node1&#45;&gt;Node11</title>
<path fill="none" stroke="#191970" d="M295.4584,-171.4783C317.6692,-160.8356 343.7011,-148.362 363.3568,-138.9436"/>
<polygon fill="#191970" stroke="#191970" points="364.9434,-142.0645 372.4492,-134.5869 361.9185,-135.7518 364.9434,-142.0645"/>
</g>
<!-- Node12 -->
<g id="node12" class="node">
<title>Node12</title>
<polygon fill="none" stroke="#bfbfbf" points="434,-114.5 434,-134.5 479,-134.5 479,-114.5 434,-114.5"/>
<text text-anchor="middle" x="456.5" y="-121.5" font-family="FreeSans" font-size="10.00" fill="#000000">utility</text>
</g>
<!-- Node1&#45;&gt;Node12 -->
<g id="edge14" class="edge">
<title>Node1&#45;&gt;Node12</title>
<path fill="none" stroke="#191970" d="M316.3894,-171.3661C346.8947,-161.2483 383.7056,-149.0068 424.2714,-135.4026"/>
<polygon fill="#191970" stroke="#191970" points="425.4511,-138.6986 433.8181,-132.1991 423.2242,-132.0623 425.4511,-138.6986"/>
</g>
<!-- Node3 -->
<g id="node3" class="node">
<title>Node3</title>
<polygon fill="none" stroke="#bfbfbf" points="63.5,-57.5 63.5,-77.5 123.5,-77.5 123.5,-57.5 63.5,-57.5"/>
<text text-anchor="middle" x="93.5" y="-64.5" font-family="FreeSans" font-size="10.00" fill="#000000">Rtypes.h</text>
</g>
<!-- Node2&#45;&gt;Node3 -->
<g id="edge2" class="edge">
<title>Node2&#45;&gt;Node3</title>
<path fill="none" stroke="#191970" d="M125.5276,-114.3095C120.1481,-106.4472 112.5626,-95.3608 106.1242,-85.9507"/>
<polygon fill="#191970" stroke="#191970" points="108.9475,-83.8789 100.4121,-77.6022 103.1704,-87.8317 108.9475,-83.8789"/>
</g>
<!-- Node2&#45;&gt;Node4 -->
<g id="edge3" class="edge">
<title>Node2&#45;&gt;Node4</title>
<path fill="none" stroke="#191970" d="M113.0874,-114.4408C95.9141,-105.5419 70.6286,-92.4394 51.1331,-82.3371"/>
<polygon fill="#191970" stroke="#191970" points="52.5776,-79.1437 42.0885,-77.6504 49.357,-85.3589 52.5776,-79.1437"/>
</g>
<!-- Node2&#45;&gt;Node5 -->
<g id="edge4" class="edge">
<title>Node2&#45;&gt;Node5</title>
<path fill="none" stroke="#191970" d="M144.657,-114.3095C154.6169,-105.9608 168.9135,-93.9769 180.5475,-84.2249"/>
<polygon fill="#191970" stroke="#191970" points="183.0329,-86.7086 188.4482,-77.6022 178.5361,-81.344 183.0329,-86.7086"/>
</g>
<!-- Node2&#45;&gt;Node6 -->
<g id="edge5" class="edge">
<title>Node2&#45;&gt;Node6</title>
<path fill="none" stroke="#191970" d="M136.265,-114.2788C141.9138,-100.0469 153.7373,-74.0887 170.5,-57 183.513,-43.7339 201.0904,-32.8956 216.3612,-25.0303"/>
<polygon fill="#191970" stroke="#191970" points="218.0869,-28.0819 225.5099,-20.5221 214.9928,-21.8028 218.0869,-28.0819"/>
</g>
<!-- Node8 -->
<g id="node8" class="node">
<title>Node8</title>
<g id="a_node8"><a xlink:href="../../d0/d4c/KFParticleBase_8h.html" target="_top" xlink:title="KFParticleBase.h">
<polygon fill="none" stroke="#000000" points="277.5,-57.5 277.5,-77.5 377.5,-77.5 377.5,-57.5 277.5,-57.5"/>
<text text-anchor="middle" x="327.5" y="-64.5" font-family="FreeSans" font-size="10.00" fill="#000000">KFParticleBase.h</text>
</a>
</g>
</g>
<!-- Node7&#45;&gt;Node8 -->
<g id="edge7" class="edge">
<title>Node7&#45;&gt;Node8</title>
<path fill="none" stroke="#191970" d="M317.6454,-114.3095C319.2153,-106.8524 321.3958,-96.4951 323.3066,-87.4186"/>
<polygon fill="#191970" stroke="#191970" points="326.738,-88.1088 325.3732,-77.6022 319.8881,-86.6667 326.738,-88.1088"/>
</g>
<!-- Node10 -->
<g id="node10" class="node">
<title>Node10</title>
<polygon fill="none" stroke="#bfbfbf" points="395.5,-57.5 395.5,-77.5 443.5,-77.5 443.5,-57.5 395.5,-57.5"/>
<text text-anchor="middle" x="419.5" y="-64.5" font-family="FreeSans" font-size="10.00" fill="#000000">cmath</text>
</g>
<!-- Node7&#45;&gt;Node10 -->
<g id="edge10" class="edge">
<title>Node7&#45;&gt;Node10</title>
<path fill="none" stroke="#191970" d="M334.0931,-114.3095C350.2132,-105.4745 373.7611,-92.5684 392.0503,-82.5445"/>
<polygon fill="#191970" stroke="#191970" points="393.9808,-85.4778 401.0679,-77.6022 390.6164,-79.3393 393.9808,-85.4778"/>
</g>
<!-- Node8&#45;&gt;Node6 -->
<g id="edge9" class="edge">
<title>Node8&#45;&gt;Node6</title>
<path fill="none" stroke="#191970" d="M313.5552,-57.3095C301.9088,-48.7987 285.0929,-36.5102 271.6128,-26.6594"/>
<polygon fill="#191970" stroke="#191970" points="273.4631,-23.6766 263.3241,-20.6022 269.333,-29.3283 273.4631,-23.6766"/>
</g>
<!-- Node9 -->
<g id="node9" class="node">
<title>Node9</title>
<polygon fill="none" stroke="#bfbfbf" points="295,-.5 295,-20.5 360,-20.5 360,-.5 295,-.5"/>
<text text-anchor="middle" x="327.5" y="-7.5" font-family="FreeSans" font-size="10.00" fill="#000000">TObject.h</text>
</g>
<!-- Node8&#45;&gt;Node9 -->
<g id="edge8" class="edge">
<title>Node8&#45;&gt;Node9</title>
<path fill="none" stroke="#191970" d="M327.5,-57.3095C327.5,-49.9335 327.5,-39.72 327.5,-30.715"/>
<polygon fill="#191970" stroke="#191970" points="331.0001,-30.6022 327.5,-20.6022 324.0001,-30.6023 331.0001,-30.6022"/>
</g>
</g>
</svg>
