<?xml version="1.0" encoding="UTF-8" standalone="no"?>
<!DOCTYPE svg PUBLIC "-//W3C//DTD SVG 1.1//EN"
 "http://www.w3.org/Graphics/SVG/1.1/DTD/svg11.dtd">
<!-- Generated by graphviz version 2.40.1 (20161225.0304)
 -->
<!-- Title: nlohmann::basic_json::get Pages: 1 -->
<svg width="868pt" height="92pt"
 viewBox="0.00 0.00 868.00 92.00" xmlns="http://www.w3.org/2000/svg" xmlns:xlink="http://www.w3.org/1999/xlink">
<g id="graph0" class="graph" transform="scale(1 1) rotate(0) translate(4 88)">
<title>nlohmann::basic_json::get</title>
<!-- Node1 -->
<g id="node1" class="node">
<title>Node1</title>
<polygon fill="#bfbfbf" stroke="#000000" points="0,-31.5 0,-51.5 150,-51.5 150,-31.5 0,-31.5"/>
<text text-anchor="middle" x="75" y="-38.5" font-family="FreeSans" font-size="10.00" fill="#000000">nlohmann::basic_json::get</text>
</g>
<!-- Node2 -->
<g id="node2" class="node">
<title>Node2</title>
<g id="a_node2"><a xlink:href="../../dc/df0/namespacenlohmann_1_1detail.html#a1f0395aad0fe853a4539288749d3a603" target="_top" xlink:title="nlohmann::detail::from_json">
<polygon fill="none" stroke="#000000" points="186,-31.5 186,-51.5 344,-51.5 344,-31.5 186,-31.5"/>
<text text-anchor="middle" x="265" y="-38.5" font-family="FreeSans" font-size="10.00" fill="#000000">nlohmann::detail::from_json</text>
</a>
</g>
</g>
<!-- Node1&#45;&gt;Node2 -->
<g id="edge1" class="edge">
<title>Node1&#45;&gt;Node2</title>
<path fill="none" stroke="#191970" d="M150.093,-41.5C158.5176,-41.5 167.1609,-41.5 175.7415,-41.5"/>
<polygon fill="#191970" stroke="#191970" points="175.7687,-45.0001 185.7687,-41.5 175.7686,-38.0001 175.7687,-45.0001"/>
</g>
<!-- Node3 -->
<g id="node3" class="node">
<title>Node3</title>
<g id="a_node3"><a xlink:href="../../da/d1c/classnlohmann_1_1detail_1_1type__error.html#aecc083aea4b698c33d042670ba50c10f" target="_top" xlink:title="nlohmann::detail::type\l_error::create">
<polygon fill="none" stroke="#000000" points="380,-25.5 380,-57.5 512,-57.5 512,-25.5 380,-25.5"/>
<text text-anchor="start" x="388" y="-44.5" font-family="FreeSans" font-size="10.00" fill="#000000">nlohmann::detail::type</text>
<text text-anchor="middle" x="446" y="-32.5" font-family="FreeSans" font-size="10.00" fill="#000000">_error::create</text>
</a>
</g>
</g>
<!-- Node2&#45;&gt;Node3 -->
<g id="edge2" class="edge">
<title>Node2&#45;&gt;Node3</title>
<path fill="none" stroke="#191970" d="M344.1259,-41.5C352.5795,-41.5 361.1675,-41.5 369.5888,-41.5"/>
<polygon fill="#191970" stroke="#191970" points="369.7579,-45.0001 379.7578,-41.5 369.7578,-38.0001 369.7579,-45.0001"/>
</g>
<!-- Node4 -->
<g id="node4" class="node">
<title>Node4</title>
<g id="a_node4"><a xlink:href="../../de/df2/classnlohmann_1_1detail_1_1exception.html#abf41a7e9178356314082284e6cfea278" target="_top" xlink:title="nlohmann::detail::exception\l::name">
<polygon fill="none" stroke="#000000" points="548,-51.5 548,-83.5 706,-83.5 706,-51.5 548,-51.5"/>
<text text-anchor="start" x="556" y="-70.5" font-family="FreeSans" font-size="10.00" fill="#000000">nlohmann::detail::exception</text>
<text text-anchor="middle" x="627" y="-58.5" font-family="FreeSans" font-size="10.00" fill="#000000">::name</text>
</a>
</g>
</g>
<!-- Node3&#45;&gt;Node4 -->
<g id="edge3" class="edge">
<title>Node3&#45;&gt;Node4</title>
<path fill="none" stroke="#191970" d="M512.1135,-50.997C520.4606,-52.196 529.1069,-53.438 537.7381,-54.6779"/>
<polygon fill="#191970" stroke="#191970" points="537.4487,-58.1721 547.8448,-56.1296 538.444,-51.2432 537.4487,-58.1721"/>
</g>
<!-- Node6 -->
<g id="node6" class="node">
<title>Node6</title>
<g id="a_node6"><a xlink:href="../../da/d1c/classnlohmann_1_1detail_1_1type__error.html#aa01edaa0bf18b853368f0b900e485cd7" target="_top" xlink:title="nlohmann::detail::type\l_error::type_error">
<polygon fill="none" stroke="#000000" points="561,-.5 561,-32.5 693,-32.5 693,-.5 561,-.5"/>
<text text-anchor="start" x="569" y="-19.5" font-family="FreeSans" font-size="10.00" fill="#000000">nlohmann::detail::type</text>
<text text-anchor="middle" x="627" y="-7.5" font-family="FreeSans" font-size="10.00" fill="#000000">_error::type_error</text>
</a>
</g>
</g>
<!-- Node3&#45;&gt;Node6 -->
<g id="edge5" class="edge">
<title>Node3&#45;&gt;Node6</title>
<path fill="none" stroke="#191970" d="M512.1135,-32.3683C524.624,-30.6403 537.8063,-28.8196 550.603,-27.0521"/>
<polygon fill="#191970" stroke="#191970" points="551.3358,-30.4842 560.7628,-25.6488 550.378,-23.55 551.3358,-30.4842"/>
</g>
<!-- Node5 -->
<g id="node5" class="node">
<title>Node5</title>
<g id="a_node5"><a xlink:href="../../d3/d9b/namespacenlohmann.html#a6ce645a0b8717757e096a5b5773b7a16" target="_top" xlink:title="user&#45;defined to_string function for JSON values">
<polygon fill="none" stroke="#000000" points="742,-57.5 742,-77.5 860,-77.5 860,-57.5 742,-57.5"/>
<text text-anchor="middle" x="801" y="-64.5" font-family="FreeSans" font-size="10.00" fill="#000000">nlohmann::to_string</text>
</a>
</g>
</g>
<!-- Node4&#45;&gt;Node5 -->
<g id="edge4" class="edge">
<title>Node4&#45;&gt;Node5</title>
<path fill="none" stroke="#191970" d="M706.1083,-67.5C714.6607,-67.5 723.3157,-67.5 731.739,-67.5"/>
<polygon fill="#191970" stroke="#191970" points="731.8763,-71.0001 741.8763,-67.5 731.8762,-64.0001 731.8763,-71.0001"/>
</g>
</g>
</svg>
