<?xml version="1.0" encoding="UTF-8" standalone="no"?>
<!DOCTYPE svg PUBLIC "-//W3C//DTD SVG 1.1//EN"
 "http://www.w3.org/Graphics/SVG/1.1/DTD/svg11.dtd">
<!-- Generated by graphviz version 2.40.1 (20161225.0304)
 -->
<!-- Title: nlohmann::basic_json::diff Pages: 1 -->
<svg width="1558pt" height="542pt"
 viewBox="0.00 0.00 1558.00 542.00" xmlns="http://www.w3.org/2000/svg" xmlns:xlink="http://www.w3.org/1999/xlink">
<g id="graph0" class="graph" transform="scale(1 1) rotate(0) translate(4 538)">
<title>nlohmann::basic_json::diff</title>
<!-- Node1 -->
<g id="node1" class="node">
<title>Node1</title>
<polygon fill="#bfbfbf" stroke="#000000" points="0,-249.5 0,-281.5 126,-281.5 126,-249.5 0,-249.5"/>
<text text-anchor="start" x="8" y="-268.5" font-family="FreeSans" font-size="10.00" fill="#000000">nlohmann::basic_json</text>
<text text-anchor="middle" x="63" y="-256.5" font-family="FreeSans" font-size="10.00" fill="#000000">::diff</text>
</g>
<!-- Node2 -->
<g id="node2" class="node">
<title>Node2</title>
<g id="a_node2"><a xlink:href="../../d6/dcf/pythia6425mod_8f.html#a3bcc54cc63edef034e45de8d31a94568" target="_top" xlink:title="pysgsu">
<polygon fill="none" stroke="#000000" points="162,-275.5 162,-295.5 214,-295.5 214,-275.5 162,-275.5"/>
<text text-anchor="middle" x="188" y="-282.5" font-family="FreeSans" font-size="10.00" fill="#000000">pysgsu</text>
</a>
</g>
</g>
<!-- Node1&#45;&gt;Node2 -->
<g id="edge1" class="edge">
<title>Node1&#45;&gt;Node2</title>
<path fill="none" stroke="#191970" d="M136.2226,-277.2156C145.3508,-278.6761 154.1644,-280.0863 161.853,-281.3165"/>
<polygon fill="#191970" stroke="#191970" points="136.6598,-273.7411 126.2324,-275.6172 135.5538,-280.6532 136.6598,-273.7411"/>
</g>
<!-- Node36 -->
<g id="node36" class="node">
<title>Node36</title>
<g id="a_node36"><a xlink:href="../../d6/dcf/pythia6425mod_8f.html#ae158d47b60e51c8ce75393f8688541f5" target="_top" xlink:title="pythrg">
<polygon fill="none" stroke="#000000" points="163.5,-236.5 163.5,-256.5 212.5,-256.5 212.5,-236.5 163.5,-236.5"/>
<text text-anchor="middle" x="188" y="-243.5" font-family="FreeSans" font-size="10.00" fill="#000000">pythrg</text>
</a>
</g>
</g>
<!-- Node1&#45;&gt;Node36 -->
<g id="edge48" class="edge">
<title>Node1&#45;&gt;Node36</title>
<path fill="none" stroke="#191970" d="M136.3934,-254.3442C146.0581,-252.8752 155.3641,-251.4607 163.3483,-250.2471"/>
<polygon fill="#191970" stroke="#191970" points="135.5929,-250.9256 126.2324,-255.8887 136.6448,-257.8461 135.5929,-250.9256"/>
</g>
<!-- Node3 -->
<g id="node3" class="node">
<title>Node3</title>
<g id="a_node3"><a xlink:href="../../d6/dcf/pythia6425mod_8f.html#a3ccdee32be69df9daf5605283165a012" target="_top" xlink:title="pysigh">
<polygon fill="none" stroke="#000000" points="252,-294.5 252,-314.5 301,-314.5 301,-294.5 252,-294.5"/>
<text text-anchor="middle" x="276.5" y="-301.5" font-family="FreeSans" font-size="10.00" fill="#000000">pysigh</text>
</a>
</g>
</g>
<!-- Node2&#45;&gt;Node3 -->
<g id="edge2" class="edge">
<title>Node2&#45;&gt;Node3</title>
<path fill="none" stroke="#191970" d="M223.9501,-293.2181C233.3141,-295.2285 243.1925,-297.3492 251.8258,-299.2027"/>
<polygon fill="#191970" stroke="#191970" points="224.5862,-289.775 214.0743,-291.0979 223.1168,-296.619 224.5862,-289.775"/>
</g>
<!-- Node4 -->
<g id="node4" class="node">
<title>Node4</title>
<g id="a_node4"><a xlink:href="../../d6/dcf/pythia6425mod_8f.html#aa9cb6f1467302508501201a0e38959d1" target="_top" xlink:title="pymaxi">
<polygon fill="none" stroke="#000000" points="339,-236.5 339,-256.5 392,-256.5 392,-236.5 339,-236.5"/>
<text text-anchor="middle" x="365.5" y="-243.5" font-family="FreeSans" font-size="10.00" fill="#000000">pymaxi</text>
</a>
</g>
</g>
<!-- Node3&#45;&gt;Node4 -->
<g id="edge3" class="edge">
<title>Node3&#45;&gt;Node4</title>
<path fill="none" stroke="#191970" d="M300.6498,-288.7619C316.3144,-278.5535 336.2666,-265.551 349.8764,-256.6817"/>
<polygon fill="#191970" stroke="#191970" points="298.4697,-286.005 292.0026,-294.3972 302.2916,-291.8696 298.4697,-286.005"/>
</g>
<!-- Node9 -->
<g id="node9" class="node">
<title>Node9</title>
<g id="a_node9"><a xlink:href="../../d6/dcf/pythia6425mod_8f.html#a5c7e2372fde451d6f2253ef044e01364" target="_top" xlink:title="pymign">
<polygon fill="none" stroke="#000000" points="428,-313.5 428,-333.5 482,-333.5 482,-313.5 428,-313.5"/>
<text text-anchor="middle" x="455" y="-320.5" font-family="FreeSans" font-size="10.00" fill="#000000">pymign</text>
</a>
</g>
</g>
<!-- Node3&#45;&gt;Node9 -->
<g id="edge8" class="edge">
<title>Node3&#45;&gt;Node9</title>
<path fill="none" stroke="#191970" d="M311.3007,-308.2043C345.3664,-311.8303 396.5611,-317.2796 427.7622,-320.6007"/>
<polygon fill="#191970" stroke="#191970" points="311.634,-304.7201 301.3197,-307.1419 310.893,-311.6807 311.634,-304.7201"/>
</g>
<!-- Node29 -->
<g id="node29" class="node">
<title>Node29</title>
<g id="a_node29"><a xlink:href="../../d6/dcf/pythia6425mod_8f.html#a2d74d5dd64881524212b3720af2696de" target="_top" xlink:title="pyrand">
<polygon fill="none" stroke="#000000" points="518,-352.5 518,-372.5 569,-372.5 569,-352.5 518,-352.5"/>
<text text-anchor="middle" x="543.5" y="-359.5" font-family="FreeSans" font-size="10.00" fill="#000000">pyrand</text>
</a>
</g>
</g>
<!-- Node3&#45;&gt;Node29 -->
<g id="edge47" class="edge">
<title>Node3&#45;&gt;Node29</title>
<path fill="none" stroke="#191970" d="M308.8269,-318.3391C318.4081,-322.0501 329.0113,-325.7818 339,-328.5 402.2048,-345.6998 478.9011,-355.6284 517.96,-359.9311"/>
<polygon fill="#191970" stroke="#191970" points="309.8657,-314.985 299.2809,-314.5226 307.267,-321.4848 309.8657,-314.985"/>
</g>
<!-- Node32 -->
<g id="node32" class="node">
<title>Node32</title>
<g id="a_node32"><a xlink:href="../../d6/dcf/pythia6425mod_8f.html#a4ae1a9148440832c122abdaedf3555a7" target="_top" xlink:title="pymult">
<polygon fill="none" stroke="#000000" points="429,-274.5 429,-294.5 481,-294.5 481,-274.5 429,-274.5"/>
<text text-anchor="middle" x="455" y="-281.5" font-family="FreeSans" font-size="10.00" fill="#000000">pymult</text>
</a>
</g>
</g>
<!-- Node3&#45;&gt;Node32 -->
<g id="edge38" class="edge">
<title>Node3&#45;&gt;Node32</title>
<path fill="none" stroke="#191970" d="M311.4227,-300.5871C345.9223,-296.7216 397.9029,-290.8974 428.9431,-287.4195"/>
<polygon fill="#191970" stroke="#191970" points="310.8677,-297.1273 301.3197,-301.7191 311.6472,-304.0838 310.8677,-297.1273"/>
</g>
<!-- Node33 -->
<g id="node33" class="node">
<title>Node33</title>
<g id="a_node33"><a xlink:href="../../d6/dcf/pythia6425mod_8f.html#af1b5061d1d80462745ef6b9ab52500f2" target="_top" xlink:title="pyptmi">
<polygon fill="none" stroke="#000000" points="340,-391.5 340,-411.5 391,-411.5 391,-391.5 340,-391.5"/>
<text text-anchor="middle" x="365.5" y="-398.5" font-family="FreeSans" font-size="10.00" fill="#000000">pyptmi</text>
</a>
</g>
</g>
<!-- Node3&#45;&gt;Node33 -->
<g id="edge42" class="edge">
<title>Node3&#45;&gt;Node33</title>
<path fill="none" stroke="#191970" d="M291.2304,-322.4536C303.604,-337.2908 321.9484,-358.7274 339,-376.5 343.8167,-381.5204 349.3868,-386.8422 354.1735,-391.2794"/>
<polygon fill="#191970" stroke="#191970" points="293.7645,-320.0262 284.6898,-314.558 288.3738,-324.4917 293.7645,-320.0262"/>
</g>
<!-- Node5 -->
<g id="node5" class="node">
<title>Node5</title>
<g id="a_node5"><a xlink:href="../../d6/dcf/pythia6425mod_8f.html#aac00ac3ccd923c2c3dc37e2b89a9f025" target="_top" xlink:title="pyinit">
<polygon fill="none" stroke="#000000" points="521,-235.5 521,-255.5 566,-255.5 566,-235.5 521,-235.5"/>
<text text-anchor="middle" x="543.5" y="-242.5" font-family="FreeSans" font-size="10.00" fill="#000000">pyinit</text>
</a>
</g>
</g>
<!-- Node4&#45;&gt;Node5 -->
<g id="edge4" class="edge">
<title>Node4&#45;&gt;Node5</title>
<path fill="none" stroke="#191970" d="M402.1725,-246.294C437.8734,-246.0934 490.9946,-245.795 520.9075,-245.6269"/>
<polygon fill="#191970" stroke="#191970" points="402.1285,-242.7941 392.1484,-246.3503 402.1679,-249.794 402.1285,-242.7941"/>
</g>
<!-- Node6 -->
<g id="node6" class="node">
<title>Node6</title>
<g id="a_node6"><a xlink:href="../../d3/dd5/jewel-2_82_80_8f.html#a2cba90a4cdaaf1d5de1cf1bfe9afaa2e" target="_top" xlink:title="initpythia">
<polygon fill="none" stroke="#000000" points="697,-193.5 697,-213.5 760,-213.5 760,-193.5 697,-193.5"/>
<text text-anchor="middle" x="728.5" y="-200.5" font-family="FreeSans" font-size="10.00" fill="#000000">initpythia</text>
</a>
</g>
</g>
<!-- Node5&#45;&gt;Node6 -->
<g id="edge5" class="edge">
<title>Node5&#45;&gt;Node6</title>
<path fill="none" stroke="#191970" d="M576.1069,-238.0973C610.1842,-230.3609 663.2866,-218.3052 696.96,-210.6604"/>
<polygon fill="#191970" stroke="#191970" points="575.1616,-234.7228 566.1846,-240.35 576.7114,-241.5491 575.1616,-234.7228"/>
</g>
<!-- Node8 -->
<g id="node8" class="node">
<title>Node8</title>
<g id="a_node8"><a xlink:href="../../d6/dcf/pythia6425mod_8f.html#a4cc0e611278607d6b413b5cecdfe16c3" target="_top" xlink:title="pytest">
<polygon fill="none" stroke="#000000" points="804.5,-258.5 804.5,-278.5 852.5,-278.5 852.5,-258.5 804.5,-258.5"/>
<text text-anchor="middle" x="828.5" y="-265.5" font-family="FreeSans" font-size="10.00" fill="#000000">pytest</text>
</a>
</g>
</g>
<!-- Node5&#45;&gt;Node8 -->
<g id="edge7" class="edge">
<title>Node5&#45;&gt;Node8</title>
<path fill="none" stroke="#191970" d="M576.4224,-248.1569C634.3748,-252.8338 753.2951,-262.4308 804.3461,-266.5507"/>
<polygon fill="#191970" stroke="#191970" points="576.5901,-244.6591 566.341,-247.3433 576.027,-251.6365 576.5901,-244.6591"/>
</g>
<!-- Node7 -->
<g id="node7" class="node">
<title>Node7</title>
<g id="a_node7"><a xlink:href="../../d3/dd5/jewel-2_82_80_8f.html#a15e2df3184692bfe4ca2261638190094" target="_top" xlink:title="jewel">
<polygon fill="none" stroke="#000000" points="971,-153.5 971,-173.5 1014,-173.5 1014,-153.5 971,-153.5"/>
<text text-anchor="middle" x="992.5" y="-160.5" font-family="FreeSans" font-size="10.00" fill="#000000">jewel</text>
</a>
</g>
</g>
<!-- Node6&#45;&gt;Node7 -->
<g id="edge6" class="edge">
<title>Node6&#45;&gt;Node7</title>
<path fill="none" stroke="#191970" d="M770.1809,-197.1847C827.0684,-188.5654 926.9569,-173.4308 970.8147,-166.7856"/>
<polygon fill="#191970" stroke="#191970" points="769.4452,-193.7562 760.0823,-198.7148 770.4938,-200.6772 769.4452,-193.7562"/>
</g>
<!-- Node9&#45;&gt;Node5 -->
<g id="edge32" class="edge">
<title>Node9&#45;&gt;Node5</title>
<path fill="none" stroke="#191970" d="M477.302,-307.3082C478.9092,-306.0416 480.4902,-304.7636 482,-303.5 500.9083,-287.6758 521.4853,-267.6424 533.3977,-255.7392"/>
<polygon fill="#191970" stroke="#191970" points="475.0967,-304.5882 469.2564,-313.428 479.3346,-310.1596 475.0967,-304.5882"/>
</g>
<!-- Node10 -->
<g id="node10" class="node">
<title>Node10</title>
<g id="a_node10"><a xlink:href="../../d6/dcf/pythia6425mod_8f.html#ac81fa418f8cd77b0873b2de2a4140933" target="_top" xlink:title="pyevnt">
<polygon fill="none" stroke="#000000" points="702.5,-313.5 702.5,-333.5 754.5,-333.5 754.5,-313.5 702.5,-313.5"/>
<text text-anchor="middle" x="728.5" y="-320.5" font-family="FreeSans" font-size="10.00" fill="#000000">pyevnt</text>
</a>
</g>
</g>
<!-- Node9&#45;&gt;Node10 -->
<g id="edge9" class="edge">
<title>Node9&#45;&gt;Node10</title>
<path fill="none" stroke="#191970" d="M492.4563,-323.5C548.6499,-323.5 653.3756,-323.5 702.1904,-323.5"/>
<polygon fill="#191970" stroke="#191970" points="492.2242,-320.0001 482.2241,-323.5 492.2241,-327.0001 492.2242,-320.0001"/>
</g>
<!-- Node9&#45;&gt;Node29 -->
<g id="edge33" class="edge">
<title>Node9&#45;&gt;Node29</title>
<path fill="none" stroke="#191970" d="M487.2121,-337.6952C498.3444,-342.6009 510.5767,-347.9914 520.7863,-352.4906"/>
<polygon fill="#191970" stroke="#191970" points="488.3532,-334.3733 477.7909,-333.5435 485.5304,-340.7789 488.3532,-334.3733"/>
</g>
<!-- Node10&#45;&gt;Node8 -->
<g id="edge31" class="edge">
<title>Node10&#45;&gt;Node8</title>
<path fill="none" stroke="#191970" d="M755.9122,-308.4233C773.2141,-298.9072 795.0848,-286.8784 810.2747,-278.5239"/>
<polygon fill="#191970" stroke="#191970" points="753.917,-305.5262 746.8415,-313.4122 757.2904,-311.6597 753.917,-305.5262"/>
</g>
<!-- Node11 -->
<g id="node11" class="node">
<title>Node11</title>
<g id="a_node11"><a xlink:href="../../d3/dd5/jewel-2_82_80_8f.html#aeb24fa7919aa21c652e9c8f2ec45cb91" target="_top" xlink:title="genevent">
<polygon fill="none" stroke="#000000" points="796,-315.5 796,-335.5 861,-335.5 861,-315.5 796,-315.5"/>
<text text-anchor="middle" x="828.5" y="-322.5" font-family="FreeSans" font-size="10.00" fill="#000000">genevent</text>
</a>
</g>
</g>
<!-- Node10&#45;&gt;Node11 -->
<g id="edge10" class="edge">
<title>Node10&#45;&gt;Node11</title>
<path fill="none" stroke="#191970" d="M764.7245,-324.2245C774.8845,-324.4277 785.8676,-324.6474 795.8092,-324.8462"/>
<polygon fill="#191970" stroke="#191970" points="764.5808,-320.721 754.5128,-324.0203 764.4408,-327.7196 764.5808,-320.721"/>
</g>
<!-- Node11&#45;&gt;Node7 -->
<g id="edge28" class="edge">
<title>Node11&#45;&gt;Node7</title>
<path fill="none" stroke="#191970" d="M845.9846,-307.7433C851.3116,-301.674 856.8495,-294.6138 861,-287.5 884.5939,-247.0608 862.3952,-220.0358 897,-188.5 917.268,-170.0295 949.5057,-164.8815 970.8338,-163.6179"/>
<polygon fill="#191970" stroke="#191970" points="843.2068,-305.5928 839.0016,-315.3173 848.3533,-310.3377 843.2068,-305.5928"/>
</g>
<!-- Node12 -->
<g id="node12" class="node">
<title>Node12</title>
<g id="a_node12"><a xlink:href="../../d4/db6/exceptionFun4AllDstPileupMerger.html#aff74804be47480038d862e90001e8e8f" target="_top" xlink:title="time&#45;shift and copy content of source nodes to destination">
<polygon fill="none" stroke="#000000" points="919.5,-417.5 919.5,-449.5 1065.5,-449.5 1065.5,-417.5 919.5,-417.5"/>
<text text-anchor="start" x="927.5" y="-436.5" font-family="FreeSans" font-size="10.00" fill="#000000">Fun4AllDstPileupMerger</text>
<text text-anchor="middle" x="992.5" y="-424.5" font-family="FreeSans" font-size="10.00" fill="#000000">::copy_background_event</text>
</a>
</g>
</g>
<!-- Node11&#45;&gt;Node12 -->
<g id="edge11" class="edge">
<title>Node11&#45;&gt;Node12</title>
<path fill="none" stroke="#191970" d="M842.0188,-343.8273C854.6791,-359.8771 874.9169,-382.8609 897,-397.5 909.1101,-405.5279 923.2605,-412.1066 936.9016,-417.3407"/>
<polygon fill="#191970" stroke="#191970" points="844.6645,-341.5257 835.8013,-335.7211 839.1102,-345.786 844.6645,-341.5257"/>
</g>
<!-- Node15 -->
<g id="node15" class="node">
<title>Node15</title>
<g id="a_node15"><a xlink:href="../../d6/d45/classEpFinderEval.html#af537855512c06847c1021dd83f015031" target="_top" xlink:title="EpFinderEval::fill_tree">
<polygon fill="none" stroke="#000000" points="929.5,-367.5 929.5,-387.5 1055.5,-387.5 1055.5,-367.5 929.5,-367.5"/>
<text text-anchor="middle" x="992.5" y="-374.5" font-family="FreeSans" font-size="10.00" fill="#000000">EpFinderEval::fill_tree</text>
</a>
</g>
</g>
<!-- Node11&#45;&gt;Node15 -->
<g id="edge14" class="edge">
<title>Node11&#45;&gt;Node15</title>
<path fill="none" stroke="#191970" d="M869.7044,-338.5648C897.9079,-347.5074 934.7511,-359.1894 960.6969,-367.4161"/>
<polygon fill="#191970" stroke="#191970" points="870.711,-335.2123 860.1208,-335.5261 868.5953,-341.8849 870.711,-335.2123"/>
</g>
<!-- Node17 -->
<g id="node17" class="node">
<title>Node17</title>
<g id="a_node17"><a xlink:href="../../dd/d2a/classPHHepMCGenHelper.html#ab0c755f6e53c0bf57ccd314a0017d227" target="_top" xlink:title="send HepMC::GenEvent to DST tree. This function takes ownership of evt">
<polygon fill="none" stroke="#000000" points="914.5,-231.5 914.5,-263.5 1070.5,-263.5 1070.5,-231.5 914.5,-231.5"/>
<text text-anchor="start" x="922.5" y="-250.5" font-family="FreeSans" font-size="10.00" fill="#000000">PHHepMCGenHelper::insert</text>
<text text-anchor="middle" x="992.5" y="-238.5" font-family="FreeSans" font-size="10.00" fill="#000000">_event</text>
</a>
</g>
</g>
<!-- Node11&#45;&gt;Node17 -->
<g id="edge16" class="edge">
<title>Node11&#45;&gt;Node17</title>
<path fill="none" stroke="#191970" d="M858.9964,-310.9956C887.2928,-297.5376 929.3373,-277.5408 958.6582,-263.5955"/>
<polygon fill="#191970" stroke="#191970" points="857.1317,-308.0067 849.6044,-315.4625 860.1383,-314.3282 857.1317,-308.0067"/>
</g>
<!-- Node20 -->
<g id="node20" class="node">
<title>Node20</title>
<g id="a_node20"><a xlink:href="../../da/df0/classPHSartre.html#aafe9fd92317ab1f7eee67a9354696c4e" target="_top" xlink:title="PHSartre::process_event">
<polygon fill="none" stroke="#000000" points="1161,-333.5 1161,-353.5 1301,-353.5 1301,-333.5 1161,-333.5"/>
<text text-anchor="middle" x="1231" y="-340.5" font-family="FreeSans" font-size="10.00" fill="#000000">PHSartre::process_event</text>
</a>
</g>
</g>
<!-- Node11&#45;&gt;Node20 -->
<g id="edge29" class="edge">
<title>Node11&#45;&gt;Node20</title>
<path fill="none" stroke="#191970" d="M871.1795,-327.4086C940.2362,-330.4969 1077.1506,-336.6198 1160.7451,-340.3582"/>
<polygon fill="#191970" stroke="#191970" points="871.2437,-323.9081 861.0973,-326.9578 870.9309,-330.9011 871.2437,-323.9081"/>
</g>
<!-- Node25 -->
<g id="node25" class="node">
<title>Node25</title>
<g id="a_node25"><a xlink:href="../../d9/d3a/classPHPythia8.html#a534c21ef917fe92922c6757a75ca84e1" target="_top" xlink:title="PHPythia8::process\l_event">
<polygon fill="none" stroke="#000000" points="1174.5,-.5 1174.5,-32.5 1287.5,-32.5 1287.5,-.5 1174.5,-.5"/>
<text text-anchor="start" x="1182.5" y="-19.5" font-family="FreeSans" font-size="10.00" fill="#000000">PHPythia8::process</text>
<text text-anchor="middle" x="1231" y="-7.5" font-family="FreeSans" font-size="10.00" fill="#000000">_event</text>
</a>
</g>
</g>
<!-- Node11&#45;&gt;Node25 -->
<g id="edge30" class="edge">
<title>Node11&#45;&gt;Node25</title>
<path fill="none" stroke="#191970" d="M845.133,-307.6127C850.4882,-301.4579 856.2584,-294.3798 861,-287.5 879.9614,-259.988 870.1284,-241.3586 897,-221.5 966.678,-170.0068 1025.2667,-242.2587 1088,-182.5 1134.8303,-137.8902 1077.8012,-86.7635 1124,-41.5 1137.354,-28.4164 1156.1642,-21.6863 1174.2962,-18.3626"/>
<polygon fill="#191970" stroke="#191970" points="842.2875,-305.5436 838.2233,-315.328 847.502,-310.2137 842.2875,-305.5436"/>
</g>
<!-- Node27 -->
<g id="node27" class="node">
<title>Node27</title>
<g id="a_node27"><a xlink:href="../../de/d99/classFun4AllHepMCPileupInputManager.html#a9ce1ce8bd07083235c302e7c2c6985e0" target="_top" xlink:title="Fun4AllHepMCPileupInputManager\l::InsertEvent">
<polygon fill="none" stroke="#000000" points="897,-487.5 897,-519.5 1088,-519.5 1088,-487.5 897,-487.5"/>
<text text-anchor="start" x="905" y="-506.5" font-family="FreeSans" font-size="10.00" fill="#000000">Fun4AllHepMCPileupInputManager</text>
<text text-anchor="middle" x="992.5" y="-494.5" font-family="FreeSans" font-size="10.00" fill="#000000">::InsertEvent</text>
</a>
</g>
</g>
<!-- Node11&#45;&gt;Node27 -->
<g id="edge26" class="edge">
<title>Node11&#45;&gt;Node27</title>
<path fill="none" stroke="#191970" d="M834.0562,-345.3047C842.99,-373.9123 863.0729,-426.9302 897,-459.5 909.5105,-471.51 925.8872,-480.6656 941.5379,-487.4314"/>
<polygon fill="#191970" stroke="#191970" points="837.3831,-344.213 831.1725,-335.6293 830.6747,-346.2124 837.3831,-344.213"/>
</g>
<!-- Node13 -->
<g id="node13" class="node">
<title>Node13</title>
<g id="a_node13"><a xlink:href="../../dd/d8c/classFun4AllDstPileupInputManager.html#aef764d010943119087c60e7c845fbb49" target="_top" xlink:title="Fun4AllDstPileupInputManager::run">
<polygon fill="none" stroke="#000000" points="1133.5,-423.5 1133.5,-443.5 1328.5,-443.5 1328.5,-423.5 1133.5,-423.5"/>
<text text-anchor="middle" x="1231" y="-430.5" font-family="FreeSans" font-size="10.00" fill="#000000">Fun4AllDstPileupInputManager::run</text>
</a>
</g>
</g>
<!-- Node12&#45;&gt;Node13 -->
<g id="edge12" class="edge">
<title>Node12&#45;&gt;Node13</title>
<path fill="none" stroke="#191970" d="M1075.8494,-433.5C1094.4172,-433.5 1114.2657,-433.5 1133.3505,-433.5"/>
<polygon fill="#191970" stroke="#191970" points="1075.6787,-430.0001 1065.6787,-433.5 1075.6787,-437.0001 1075.6787,-430.0001"/>
</g>
<!-- Node14 -->
<g id="node14" class="node">
<title>Node14</title>
<g id="a_node14"><a xlink:href="../../d5/d00/classFun4AllSingleDstPileupInputManager.html#a01149fa86dc066e4413d6b02e94df581" target="_top" xlink:title="Fun4AllSingleDstPileupInput\lManager::run">
<polygon fill="none" stroke="#000000" points="1151.5,-462.5 1151.5,-494.5 1310.5,-494.5 1310.5,-462.5 1151.5,-462.5"/>
<text text-anchor="start" x="1159.5" y="-481.5" font-family="FreeSans" font-size="10.00" fill="#000000">Fun4AllSingleDstPileupInput</text>
<text text-anchor="middle" x="1231" y="-469.5" font-family="FreeSans" font-size="10.00" fill="#000000">Manager::run</text>
</a>
</g>
</g>
<!-- Node12&#45;&gt;Node14 -->
<g id="edge13" class="edge">
<title>Node12&#45;&gt;Node14</title>
<path fill="none" stroke="#191970" d="M1075.6808,-449.1945C1100.2194,-453.8244 1127.0072,-458.8787 1151.32,-463.466"/>
<polygon fill="#191970" stroke="#191970" points="1076.1543,-445.7221 1065.6787,-447.3073 1074.8564,-452.6008 1076.1543,-445.7221"/>
</g>
<!-- Node16 -->
<g id="node16" class="node">
<title>Node16</title>
<g id="a_node16"><a xlink:href="../../d6/d45/classEpFinderEval.html#a2539c184425a5dceabf6a3be79b31e9a" target="_top" xlink:title="EpFinderEval::process\l_event">
<polygon fill="none" stroke="#000000" points="1167,-372.5 1167,-404.5 1295,-404.5 1295,-372.5 1167,-372.5"/>
<text text-anchor="start" x="1175" y="-391.5" font-family="FreeSans" font-size="10.00" fill="#000000">EpFinderEval::process</text>
<text text-anchor="middle" x="1231" y="-379.5" font-family="FreeSans" font-size="10.00" fill="#000000">_event</text>
</a>
</g>
</g>
<!-- Node15&#45;&gt;Node16 -->
<g id="edge15" class="edge">
<title>Node15&#45;&gt;Node16</title>
<path fill="none" stroke="#191970" d="M1066.027,-380.8912C1098.1755,-382.3739 1135.5486,-384.0976 1166.5862,-385.5291"/>
<polygon fill="#191970" stroke="#191970" points="1065.9381,-377.3835 1055.7875,-380.4189 1065.6156,-384.376 1065.9381,-377.3835"/>
</g>
<!-- Node18 -->
<g id="node18" class="node">
<title>Node18</title>
<g id="a_node18"><a xlink:href="../../db/d1f/classFun4AllOscarInputManager.html#a1537e89c4e652f70747fbbef18ceadc4" target="_top" xlink:title="Fun4AllOscarInputManager\l::ConvertFromOscar">
<polygon fill="none" stroke="#000000" points="1154,-51.5 1154,-83.5 1308,-83.5 1308,-51.5 1154,-51.5"/>
<text text-anchor="start" x="1162" y="-70.5" font-family="FreeSans" font-size="10.00" fill="#000000">Fun4AllOscarInputManager</text>
<text text-anchor="middle" x="1231" y="-58.5" font-family="FreeSans" font-size="10.00" fill="#000000">::ConvertFromOscar</text>
</a>
</g>
</g>
<!-- Node17&#45;&gt;Node18 -->
<g id="edge17" class="edge">
<title>Node17&#45;&gt;Node18</title>
<path fill="none" stroke="#191970" d="M1076.5212,-226.0192C1080.6713,-223.2248 1084.5426,-220.0675 1088,-216.5 1127.9381,-175.291 1082.36,-131.9885 1124,-92.5 1132.3745,-84.5582 1142.7668,-78.9739 1153.7554,-75.0763"/>
<polygon fill="#191970" stroke="#191970" points="1074.482,-223.1588 1067.6544,-231.2602 1078.0439,-229.1848 1074.482,-223.1588"/>
</g>
<!-- Node17&#45;&gt;Node20 -->
<g id="edge19" class="edge">
<title>Node17&#45;&gt;Node20</title>
<path fill="none" stroke="#191970" d="M1023.6335,-269.5756C1049.3757,-286.7979 1087.4996,-309.9934 1124,-323.5 1135.6976,-327.8286 1148.4756,-331.2546 1160.9994,-333.9557"/>
<polygon fill="#191970" stroke="#191970" points="1025.3066,-266.4811 1015.0675,-263.7587 1021.3741,-272.2721 1025.3066,-266.4811"/>
</g>
<!-- Node21 -->
<g id="node21" class="node">
<title>Node21</title>
<g id="a_node21"><a xlink:href="../../dd/da8/classPHPythia6.html#a7a70bdd1c198a83ed143d3e2c4516d0d" target="_top" xlink:title="PHPythia6::process\l_event">
<polygon fill="none" stroke="#000000" points="1174.5,-282.5 1174.5,-314.5 1287.5,-314.5 1287.5,-282.5 1174.5,-282.5"/>
<text text-anchor="start" x="1182.5" y="-301.5" font-family="FreeSans" font-size="10.00" fill="#000000">PHPythia6::process</text>
<text text-anchor="middle" x="1231" y="-289.5" font-family="FreeSans" font-size="10.00" fill="#000000">_event</text>
</a>
</g>
</g>
<!-- Node17&#45;&gt;Node21 -->
<g id="edge20" class="edge">
<title>Node17&#45;&gt;Node21</title>
<path fill="none" stroke="#191970" d="M1077.4912,-265.6742C1109.6621,-272.5535 1145.4679,-280.2101 1174.4015,-286.3972"/>
<polygon fill="#191970" stroke="#191970" points="1078.1464,-262.2353 1067.6355,-263.5667 1076.6825,-269.0805 1078.1464,-262.2353"/>
</g>
<!-- Node22 -->
<g id="node22" class="node">
<title>Node22</title>
<g id="a_node22"><a xlink:href="../../d3/d49/classReadEICFiles.html#a7dd6da2318a9ea07bb3569bc2d5549c6" target="_top" xlink:title="ReadEICFiles::process\l_event">
<polygon fill="none" stroke="#000000" points="1168,-231.5 1168,-263.5 1294,-263.5 1294,-231.5 1168,-231.5"/>
<text text-anchor="start" x="1176" y="-250.5" font-family="FreeSans" font-size="10.00" fill="#000000">ReadEICFiles::process</text>
<text text-anchor="middle" x="1231" y="-238.5" font-family="FreeSans" font-size="10.00" fill="#000000">_event</text>
</a>
</g>
</g>
<!-- Node17&#45;&gt;Node22 -->
<g id="edge21" class="edge">
<title>Node17&#45;&gt;Node22</title>
<path fill="none" stroke="#191970" d="M1080.6999,-247.5C1109.6148,-247.5 1141.1474,-247.5 1167.8297,-247.5"/>
<polygon fill="#191970" stroke="#191970" points="1080.5939,-244.0001 1070.5938,-247.5 1080.5938,-251.0001 1080.5939,-244.0001"/>
</g>
<!-- Node23 -->
<g id="node23" class="node">
<title>Node23</title>
<g id="a_node23"><a xlink:href="../../d5/dfb/classReadSynRadFiles.html#af3b9bf370ff1e93c7a2ddcc4d6c1c816" target="_top" xlink:title="ReadSynRadFiles::process\l_event">
<polygon fill="none" stroke="#000000" points="1157,-180.5 1157,-212.5 1305,-212.5 1305,-180.5 1157,-180.5"/>
<text text-anchor="start" x="1165" y="-199.5" font-family="FreeSans" font-size="10.00" fill="#000000">ReadSynRadFiles::process</text>
<text text-anchor="middle" x="1231" y="-187.5" font-family="FreeSans" font-size="10.00" fill="#000000">_event</text>
</a>
</g>
</g>
<!-- Node17&#45;&gt;Node23 -->
<g id="edge22" class="edge">
<title>Node17&#45;&gt;Node23</title>
<path fill="none" stroke="#191970" d="M1077.4255,-229.3398C1103.3002,-223.8069 1131.5317,-217.7699 1156.6508,-212.3986"/>
<polygon fill="#191970" stroke="#191970" points="1076.6825,-225.9195 1067.6355,-231.4333 1078.1464,-232.7647 1076.6825,-225.9195"/>
</g>
<!-- Node24 -->
<g id="node24" class="node">
<title>Node24</title>
<g id="a_node24"><a xlink:href="../../df/d98/classsHEPGen.html#af0d88e02a25b1437c784a31f8fa9d93d" target="_top" xlink:title="sHEPGen::process_event">
<polygon fill="none" stroke="#000000" points="1160,-141.5 1160,-161.5 1302,-161.5 1302,-141.5 1160,-141.5"/>
<text text-anchor="middle" x="1231" y="-148.5" font-family="FreeSans" font-size="10.00" fill="#000000">sHEPGen::process_event</text>
</a>
</g>
</g>
<!-- Node17&#45;&gt;Node24 -->
<g id="edge23" class="edge">
<title>Node17&#45;&gt;Node24</title>
<path fill="none" stroke="#191970" d="M1068.9211,-227.3552C1075.6346,-224.2189 1082.1076,-220.621 1088,-216.5 1109.2742,-201.6211 1101.7496,-183.8752 1124,-170.5 1134.8341,-163.9874 1147.3264,-159.5823 1159.8668,-156.6276"/>
<polygon fill="#191970" stroke="#191970" points="1067.447,-224.1792 1059.6491,-231.3516 1070.2178,-230.6075 1067.447,-224.1792"/>
</g>
<!-- Node17&#45;&gt;Node25 -->
<g id="edge24" class="edge">
<title>Node17&#45;&gt;Node25</title>
<path fill="none" stroke="#191970" d="M1077.118,-226.1586C1081.0851,-223.3284 1084.7564,-220.1252 1088,-216.5 1140.9479,-157.3232 1068.6041,-98.3918 1124,-41.5 1137.1753,-27.9689 1156.1623,-21.1645 1174.4957,-17.9077"/>
<polygon fill="#191970" stroke="#191970" points="1075.2418,-223.2037 1068.6016,-231.4596 1078.9408,-229.1465 1075.2418,-223.2037"/>
</g>
<!-- Node26 -->
<g id="node26" class="node">
<title>Node26</title>
<g id="a_node26"><a xlink:href="../../d6/d6f/classFun4AllHepMCInputManager.html#abc2abd5f69e96e3fb974376f5f258f80" target="_top" xlink:title="Fun4AllHepMCInputManager::run">
<polygon fill="none" stroke="#000000" points="1139.5,-102.5 1139.5,-122.5 1322.5,-122.5 1322.5,-102.5 1139.5,-102.5"/>
<text text-anchor="middle" x="1231" y="-109.5" font-family="FreeSans" font-size="10.00" fill="#000000">Fun4AllHepMCInputManager::run</text>
</a>
</g>
</g>
<!-- Node17&#45;&gt;Node26 -->
<g id="edge25" class="edge">
<title>Node17&#45;&gt;Node26</title>
<path fill="none" stroke="#191970" d="M1074.2246,-226.6263C1079.1694,-223.6845 1083.8241,-220.3285 1088,-216.5 1118.2406,-188.7752 1091.9181,-157.0717 1124,-131.5 1128.7212,-127.7369 1133.9339,-124.6176 1139.4416,-122.0402"/>
<polygon fill="#191970" stroke="#191970" points="1072.2491,-223.7121 1065.0516,-231.4869 1075.5266,-229.8974 1072.2491,-223.7121"/>
</g>
<!-- Node19 -->
<g id="node19" class="node">
<title>Node19</title>
<g id="a_node19"><a xlink:href="../../db/d1f/classFun4AllOscarInputManager.html#abd9c677329f73038579c12aff1f8d42a" target="_top" xlink:title="Fun4AllOscarInputManager::run">
<polygon fill="none" stroke="#000000" points="1374,-57.5 1374,-77.5 1550,-77.5 1550,-57.5 1374,-57.5"/>
<text text-anchor="middle" x="1462" y="-64.5" font-family="FreeSans" font-size="10.00" fill="#000000">Fun4AllOscarInputManager::run</text>
</a>
</g>
</g>
<!-- Node18&#45;&gt;Node19 -->
<g id="edge18" class="edge">
<title>Node18&#45;&gt;Node19</title>
<path fill="none" stroke="#191970" d="M1318.4565,-67.5C1336.5223,-67.5 1355.5624,-67.5 1373.6594,-67.5"/>
<polygon fill="#191970" stroke="#191970" points="1318.2408,-64.0001 1308.2408,-67.5 1318.2408,-71.0001 1318.2408,-64.0001"/>
</g>
<!-- Node28 -->
<g id="node28" class="node">
<title>Node28</title>
<g id="a_node28"><a xlink:href="../../de/d99/classFun4AllHepMCPileupInputManager.html#a0afd07a242a008dab637fe4f6ba997bd" target="_top" xlink:title="Fun4AllHepMCPileupInputManager::run">
<polygon fill="none" stroke="#000000" points="1124,-513.5 1124,-533.5 1338,-533.5 1338,-513.5 1124,-513.5"/>
<text text-anchor="middle" x="1231" y="-520.5" font-family="FreeSans" font-size="10.00" fill="#000000">Fun4AllHepMCPileupInputManager::run</text>
</a>
</g>
</g>
<!-- Node27&#45;&gt;Node28 -->
<g id="edge27" class="edge">
<title>Node27&#45;&gt;Node28</title>
<path fill="none" stroke="#191970" d="M1098.1486,-512.3594C1106.7271,-513.0788 1115.4006,-513.8061 1123.9886,-514.5263"/>
<polygon fill="#191970" stroke="#191970" points="1098.3904,-508.8675 1088.1328,-511.5195 1097.8054,-515.843 1098.3904,-508.8675"/>
</g>
<!-- Node29&#45;&gt;Node10 -->
<g id="edge34" class="edge">
<title>Node29&#45;&gt;Node10</title>
<path fill="none" stroke="#191970" d="M575.1992,-376.1415C599.3423,-384.5223 633.0708,-391.851 661,-381.5 686.7881,-371.9425 709.3481,-347.6353 720.7016,-333.7103"/>
<polygon fill="#191970" stroke="#191970" points="576.3993,-372.8536 565.8062,-372.6609 573.9671,-379.4175 576.3993,-372.8536"/>
</g>
<!-- Node30 -->
<g id="node30" class="node">
<title>Node30</title>
<g id="a_node30"><a xlink:href="../../d6/dcf/pythia6425mod_8f.html#a83ae6561ab82fd7af8b1b3e511f477ac" target="_top" xlink:title="pyevnw">
<polygon fill="none" stroke="#000000" points="605,-429.5 605,-449.5 661,-449.5 661,-429.5 605,-429.5"/>
<text text-anchor="middle" x="633" y="-436.5" font-family="FreeSans" font-size="10.00" fill="#000000">pyevnw</text>
</a>
</g>
</g>
<!-- Node29&#45;&gt;Node30 -->
<g id="edge35" class="edge">
<title>Node29&#45;&gt;Node30</title>
<path fill="none" stroke="#191970" d="M563.2237,-379.469C581.0045,-394.7664 606.5546,-416.7481 621.2966,-429.4311"/>
<polygon fill="#191970" stroke="#191970" points="565.0638,-376.4351 555.2006,-372.5664 560.4985,-381.7415 565.0638,-376.4351"/>
</g>
<!-- Node31 -->
<g id="node31" class="node">
<title>Node31</title>
<g id="a_node31"><a xlink:href="../../d6/dcf/pythia6425mod_8f.html#ae7cb37215e5a38b3fb0529c9996646e6" target="_top" xlink:title="pyupev">
<polygon fill="none" stroke="#000000" points="606,-351.5 606,-371.5 660,-371.5 660,-351.5 606,-351.5"/>
<text text-anchor="middle" x="633" y="-358.5" font-family="FreeSans" font-size="10.00" fill="#000000">pyupev</text>
</a>
</g>
</g>
<!-- Node29&#45;&gt;Node31 -->
<g id="edge37" class="edge">
<title>Node29&#45;&gt;Node31</title>
<path fill="none" stroke="#191970" d="M579.45,-362.0983C588.2824,-361.9996 597.591,-361.8956 605.9251,-361.8025"/>
<polygon fill="#191970" stroke="#191970" points="579.3473,-358.5992 569.3871,-362.2108 579.4256,-365.5987 579.3473,-358.5992"/>
</g>
<!-- Node30&#45;&gt;Node10 -->
<g id="edge36" class="edge">
<title>Node30&#45;&gt;Node10</title>
<path fill="none" stroke="#191970" d="M653.3555,-422.2215C656.0092,-419.7132 658.6269,-417.0985 661,-414.5 685.9374,-387.193 710.6512,-350.9162 722.0209,-333.5709"/>
<polygon fill="#191970" stroke="#191970" points="650.5809,-420.0105 645.4957,-429.3052 655.2672,-425.2103 650.5809,-420.0105"/>
</g>
<!-- Node32&#45;&gt;Node5 -->
<g id="edge40" class="edge">
<title>Node32&#45;&gt;Node5</title>
<path fill="none" stroke="#191970" d="M487.2121,-270.3048C498.3444,-265.3991 510.5767,-260.0086 520.7863,-255.5094"/>
<polygon fill="#191970" stroke="#191970" points="485.5304,-267.2211 477.7909,-274.4565 488.3532,-273.6267 485.5304,-267.2211"/>
</g>
<!-- Node32&#45;&gt;Node10 -->
<g id="edge39" class="edge">
<title>Node32&#45;&gt;Node10</title>
<path fill="none" stroke="#191970" d="M491.3992,-289.6904C547.3898,-297.6744 653.3045,-312.7774 702.3551,-319.7718"/>
<polygon fill="#191970" stroke="#191970" points="491.6183,-286.1863 481.2243,-288.2395 490.6301,-293.1162 491.6183,-286.1863"/>
</g>
<!-- Node32&#45;&gt;Node29 -->
<g id="edge41" class="edge">
<title>Node32&#45;&gt;Node29</title>
<path fill="none" stroke="#191970" d="M478.4002,-300.6305C479.6314,-301.5834 480.8386,-302.5435 482,-303.5 501.4164,-319.4901 522.1656,-340.2611 533.9152,-352.4121"/>
<polygon fill="#191970" stroke="#191970" points="480.2819,-297.6697 470.1536,-294.5605 476.1323,-303.3072 480.2819,-297.6697"/>
</g>
<!-- Node34 -->
<g id="node34" class="node">
<title>Node34</title>
<g id="a_node34"><a xlink:href="../../d6/dcf/pythia6425mod_8f.html#a15448b25c4eb515f33e35f86f376af68" target="_top" xlink:title="pyevol">
<polygon fill="none" stroke="#000000" points="518.5,-429.5 518.5,-449.5 568.5,-449.5 568.5,-429.5 518.5,-429.5"/>
<text text-anchor="middle" x="543.5" y="-436.5" font-family="FreeSans" font-size="10.00" fill="#000000">pyevol</text>
</a>
</g>
</g>
<!-- Node33&#45;&gt;Node34 -->
<g id="edge43" class="edge">
<title>Node33&#45;&gt;Node34</title>
<path fill="none" stroke="#191970" d="M400.714,-413.8205C409.5478,-416.6192 419.0584,-419.3861 428,-421.5 458.6121,-428.7371 494.4962,-433.8092 518.0462,-436.6849"/>
<polygon fill="#191970" stroke="#191970" points="401.6869,-410.4564 391.0945,-410.6803 399.5146,-417.1108 401.6869,-410.4564"/>
</g>
<!-- Node35 -->
<g id="node35" class="node">
<title>Node35</title>
<g id="a_node35"><a xlink:href="../../d6/dcf/pythia6425mod_8f.html#ac00de061be805868aa61d626239f5fa9" target="_top" xlink:title="pyptis">
<polygon fill="none" stroke="#000000" points="431.5,-391.5 431.5,-411.5 478.5,-411.5 478.5,-391.5 431.5,-391.5"/>
<text text-anchor="middle" x="455" y="-398.5" font-family="FreeSans" font-size="10.00" fill="#000000">pyptis</text>
</a>
</g>
</g>
<!-- Node33&#45;&gt;Node35 -->
<g id="edge45" class="edge">
<title>Node33&#45;&gt;Node35</title>
<path fill="none" stroke="#191970" d="M401.5278,-401.5C411.5552,-401.5 422.1905,-401.5 431.3129,-401.5"/>
<polygon fill="#191970" stroke="#191970" points="401.3871,-398.0001 391.3871,-401.5 401.3871,-405.0001 401.3871,-398.0001"/>
</g>
<!-- Node34&#45;&gt;Node30 -->
<g id="edge44" class="edge">
<title>Node34&#45;&gt;Node30</title>
<path fill="none" stroke="#191970" d="M578.9979,-439.5C587.5336,-439.5 596.5389,-439.5 604.697,-439.5"/>
<polygon fill="#191970" stroke="#191970" points="578.9077,-436.0001 568.9077,-439.5 578.9077,-443.0001 578.9077,-436.0001"/>
</g>
<!-- Node35&#45;&gt;Node34 -->
<g id="edge46" class="edge">
<title>Node35&#45;&gt;Node34</title>
<path fill="none" stroke="#191970" d="M488.1256,-415.7234C498.7335,-420.2782 510.2535,-425.2247 520.025,-429.4204"/>
<polygon fill="#191970" stroke="#191970" points="489.2861,-412.4127 478.7164,-411.6833 486.5242,-418.8449 489.2861,-412.4127"/>
</g>
<!-- Node37 -->
<g id="node37" class="node">
<title>Node37</title>
<g id="a_node37"><a xlink:href="../../d6/dcf/pythia6425mod_8f.html#a27a2354cb3c8dc0f2fd65bc366f1cad9" target="_top" xlink:title="pymsin">
<polygon fill="none" stroke="#000000" points="250,-236.5 250,-256.5 303,-256.5 303,-236.5 250,-236.5"/>
<text text-anchor="middle" x="276.5" y="-243.5" font-family="FreeSans" font-size="10.00" fill="#000000">pymsin</text>
</a>
</g>
</g>
<!-- Node36&#45;&gt;Node37 -->
<g id="edge49" class="edge">
<title>Node36&#45;&gt;Node37</title>
<path fill="none" stroke="#191970" d="M222.8415,-246.5C231.8131,-246.5 241.3257,-246.5 249.8102,-246.5"/>
<polygon fill="#191970" stroke="#191970" points="222.6522,-243.0001 212.6522,-246.5 222.6521,-250.0001 222.6522,-243.0001"/>
</g>
<!-- Node37&#45;&gt;Node5 -->
<g id="edge50" class="edge">
<title>Node37&#45;&gt;Node5</title>
<path fill="none" stroke="#191970" d="M311.5218,-233.1987C320.3607,-230.4263 329.9219,-227.9171 339,-226.5 404.7034,-216.2436 483.2102,-231.0151 520.9944,-239.7914"/>
<polygon fill="#191970" stroke="#191970" points="310.2965,-229.9177 301.9136,-236.3967 312.5072,-236.5595 310.2965,-229.9177"/>
</g>
</g>
</svg>
