<?xml version="1.0" encoding="UTF-8" standalone="no"?>
<!DOCTYPE svg PUBLIC "-//W3C//DTD SVG 1.1//EN"
 "http://www.w3.org/Graphics/SVG/1.1/DTD/svg11.dtd">
<!-- Generated by graphviz version 2.40.1 (20161225.0304)
 -->
<!-- Title: Jetscape::JetScapeXML::GetXMLRoot Pages: 1 -->
<svg width="327pt" height="452pt"
 viewBox="0.00 0.00 327.00 452.00" xmlns="http://www.w3.org/2000/svg" xmlns:xlink="http://www.w3.org/1999/xlink">
<g id="graph0" class="graph" transform="scale(1 1) rotate(0) translate(4 448)">
<title>Jetscape::JetScapeXML::GetXMLRoot</title>
<!-- Node1 -->
<g id="node1" class="node">
<title>Node1</title>
<polygon fill="#bfbfbf" stroke="#000000" points="0,-205.5 0,-237.5 132,-237.5 132,-205.5 0,-205.5"/>
<text text-anchor="start" x="8" y="-224.5" font-family="FreeSans" font-size="10.00" fill="#000000">Jetscape::JetScapeXML</text>
<text text-anchor="middle" x="66" y="-212.5" font-family="FreeSans" font-size="10.00" fill="#000000">::GetXMLRoot</text>
</g>
<!-- Node2 -->
<g id="node2" class="node">
<title>Node2</title>
<g id="a_node2"><a xlink:href="../../dc/dc3/classColoredHadronization.html#aa021ea4a5c1b55d130aaa2dba1ceb346" target="_top" xlink:title="ColoredHadronization\l::Init">
<polygon fill="none" stroke="#000000" points="181,-411.5 181,-443.5 306,-443.5 306,-411.5 181,-411.5"/>
<text text-anchor="start" x="189" y="-430.5" font-family="FreeSans" font-size="10.00" fill="#000000">ColoredHadronization</text>
<text text-anchor="middle" x="243.5" y="-418.5" font-family="FreeSans" font-size="10.00" fill="#000000">::Init</text>
</a>
</g>
</g>
<!-- Node1&#45;&gt;Node2 -->
<g id="edge1" class="edge">
<title>Node1&#45;&gt;Node2</title>
<path fill="none" stroke="#191970" d="M73.7896,-247.2344C86.9201,-286.348 117.1272,-360.6246 168,-402.5 172.1576,-405.9223 176.8007,-408.882 181.6848,-411.4408"/>
<polygon fill="#191970" stroke="#191970" points="77.0917,-246.0707 70.6761,-237.6392 70.4335,-248.2313 77.0917,-246.0707"/>
</g>
<!-- Node3 -->
<g id="node3" class="node">
<title>Node3</title>
<g id="a_node3"><a xlink:href="../../d8/d15/classMatter.html#ac54d2916cc6fd239d7e84c3837648adc" target="_top" xlink:title="Matter::Init">
<polygon fill="none" stroke="#000000" points="207.5,-372.5 207.5,-392.5 279.5,-392.5 279.5,-372.5 207.5,-372.5"/>
<text text-anchor="middle" x="243.5" y="-379.5" font-family="FreeSans" font-size="10.00" fill="#000000">Matter::Init</text>
</a>
</g>
</g>
<!-- Node1&#45;&gt;Node3 -->
<g id="edge2" class="edge">
<title>Node1&#45;&gt;Node3</title>
<path fill="none" stroke="#191970" d="M77.2487,-246.7325C92.9003,-278.8729 124.3266,-333.7999 168,-363.5 179.512,-371.3288 193.9825,-375.9336 207.1671,-378.6413"/>
<polygon fill="#191970" stroke="#191970" points="80.3416,-245.0857 72.9016,-237.5426 74.0138,-248.079 80.3416,-245.0857"/>
</g>
<!-- Node4 -->
<g id="node4" class="node">
<title>Node4</title>
<g id="a_node4"><a xlink:href="../../d4/d9a/classElossValidate.html#a0e5b218b459325cf055a079a50a05133" target="_top" xlink:title="ElossValidate::Init">
<polygon fill="none" stroke="#000000" points="190,-333.5 190,-353.5 297,-353.5 297,-333.5 190,-333.5"/>
<text text-anchor="middle" x="243.5" y="-340.5" font-family="FreeSans" font-size="10.00" fill="#000000">ElossValidate::Init</text>
</a>
</g>
</g>
<!-- Node1&#45;&gt;Node4 -->
<g id="edge3" class="edge">
<title>Node1&#45;&gt;Node4</title>
<path fill="none" stroke="#191970" d="M83.7181,-245.9293C102.1493,-269.5563 133.1507,-304.6203 168,-324.5 174.692,-328.3175 182.147,-331.3769 189.6934,-333.8266"/>
<polygon fill="#191970" stroke="#191970" points="86.3594,-243.6209 77.5125,-237.7913 80.7931,-247.8655 86.3594,-243.6209"/>
</g>
<!-- Node5 -->
<g id="node5" class="node">
<title>Node5</title>
<g id="a_node5"><a xlink:href="../../dd/d85/classColorlessHadronization.html#a73e5fa254d6850c79e79040ee4716e1a" target="_top" xlink:title="ColorlessHadronization\l::Init">
<polygon fill="none" stroke="#000000" points="177,-282.5 177,-314.5 310,-314.5 310,-282.5 177,-282.5"/>
<text text-anchor="start" x="185" y="-301.5" font-family="FreeSans" font-size="10.00" fill="#000000">ColorlessHadronization</text>
<text text-anchor="middle" x="243.5" y="-289.5" font-family="FreeSans" font-size="10.00" fill="#000000">::Init</text>
</a>
</g>
</g>
<!-- Node1&#45;&gt;Node5 -->
<g id="edge4" class="edge">
<title>Node1&#45;&gt;Node5</title>
<path fill="none" stroke="#191970" d="M103.8119,-242.5095C122.7597,-252.5886 146.2481,-264.4158 168,-273.5 175.5172,-276.6394 183.5797,-279.6597 191.5369,-282.4489"/>
<polygon fill="#191970" stroke="#191970" points="105.3679,-239.3724 94.9024,-237.7216 102.0543,-245.5384 105.3679,-239.3724"/>
</g>
<!-- Node6 -->
<g id="node6" class="node">
<title>Node6</title>
<g id="a_node6"><a xlink:href="../../da/d0e/classJetscape_1_1SoftParticlization.html#aa3a6434743b91d20558e5afe92c3fee5" target="_top" xlink:title="Jetscape::SoftParticlization\l::Init">
<polygon fill="none" stroke="#000000" points="168,-231.5 168,-263.5 319,-263.5 319,-231.5 168,-231.5"/>
<text text-anchor="start" x="176" y="-250.5" font-family="FreeSans" font-size="10.00" fill="#000000">Jetscape::SoftParticlization</text>
<text text-anchor="middle" x="243.5" y="-238.5" font-family="FreeSans" font-size="10.00" fill="#000000">::Init</text>
</a>
</g>
</g>
<!-- Node1&#45;&gt;Node6 -->
<g id="edge5" class="edge">
<title>Node1&#45;&gt;Node6</title>
<path fill="none" stroke="#191970" d="M142.0205,-232.6354C150.5553,-233.8856 159.2506,-235.1592 167.7816,-236.4089"/>
<polygon fill="#191970" stroke="#191970" points="142.4962,-229.1678 132.0944,-231.1814 141.4816,-236.0939 142.4962,-229.1678"/>
</g>
<!-- Node7 -->
<g id="node7" class="node">
<title>Node7</title>
<g id="a_node7"><a xlink:href="../../de/d8e/classJetscape_1_1JetScape.html#a9c33ad856175726bc82545442d52820f" target="_top" xlink:title="Jetscape::JetScape\l::Init">
<polygon fill="none" stroke="#000000" points="188.5,-180.5 188.5,-212.5 298.5,-212.5 298.5,-180.5 188.5,-180.5"/>
<text text-anchor="start" x="196.5" y="-199.5" font-family="FreeSans" font-size="10.00" fill="#000000">Jetscape::JetScape</text>
<text text-anchor="middle" x="243.5" y="-187.5" font-family="FreeSans" font-size="10.00" fill="#000000">::Init</text>
</a>
</g>
</g>
<!-- Node1&#45;&gt;Node7 -->
<g id="edge6" class="edge">
<title>Node1&#45;&gt;Node7</title>
<path fill="none" stroke="#191970" d="M142.1998,-210.7676C157.7232,-208.5812 173.7693,-206.3212 188.3867,-204.2624"/>
<polygon fill="#191970" stroke="#191970" points="141.5085,-207.3304 132.0944,-212.1909 142.4849,-214.2619 141.5085,-207.3304"/>
</g>
<!-- Node8 -->
<g id="node8" class="node">
<title>Node8</title>
<g id="a_node8"><a xlink:href="../../d8/d5d/classLBT.html#a35ac27fd47a457ecb4bca90e77bbf3fa" target="_top" xlink:title="LBT::Init">
<polygon fill="none" stroke="#000000" points="215,-141.5 215,-161.5 272,-161.5 272,-141.5 215,-141.5"/>
<text text-anchor="middle" x="243.5" y="-148.5" font-family="FreeSans" font-size="10.00" fill="#000000">LBT::Init</text>
</a>
</g>
</g>
<!-- Node1&#45;&gt;Node8 -->
<g id="edge7" class="edge">
<title>Node1&#45;&gt;Node8</title>
<path fill="none" stroke="#191970" d="M103.6745,-200.8202C122.5891,-191.013 146.0892,-179.6814 168,-171.5 183.1167,-165.8555 200.4936,-161.137 214.763,-157.7033"/>
<polygon fill="#191970" stroke="#191970" points="102.0086,-197.7418 94.7845,-205.4918 105.2649,-203.9383 102.0086,-197.7418"/>
</g>
<!-- Node9 -->
<g id="node9" class="node">
<title>Node9</title>
<g id="a_node9"><a xlink:href="../../d7/d05/classJetscape_1_1InitialState.html#a2b82c457bc93218efa9daae0eb503cd7" target="_top" xlink:title="Jetscape::InitialState\l::Init">
<polygon fill="none" stroke="#000000" points="183,-90.5 183,-122.5 304,-122.5 304,-90.5 183,-90.5"/>
<text text-anchor="start" x="191" y="-109.5" font-family="FreeSans" font-size="10.00" fill="#000000">Jetscape::InitialState</text>
<text text-anchor="middle" x="243.5" y="-97.5" font-family="FreeSans" font-size="10.00" fill="#000000">::Init</text>
</a>
</g>
</g>
<!-- Node1&#45;&gt;Node9 -->
<g id="edge8" class="edge">
<title>Node1&#45;&gt;Node9</title>
<path fill="none" stroke="#191970" d="M87.9149,-197.8194C107.3311,-178.0294 137.2916,-150.2683 168,-132.5 174.4796,-128.7508 181.5849,-125.4265 188.7638,-122.5145"/>
<polygon fill="#191970" stroke="#191970" points="85.1844,-195.6087 80.763,-205.2369 90.2236,-200.4674 85.1844,-195.6087"/>
</g>
<!-- Node10 -->
<g id="node10" class="node">
<title>Node10</title>
<g id="a_node10"><a xlink:href="../../dd/d12/classMartini.html#a36bb7d6a1705df0ba61e99bf1c4015d5" target="_top" xlink:title="Martini::Init">
<polygon fill="none" stroke="#000000" points="206.5,-51.5 206.5,-71.5 280.5,-71.5 280.5,-51.5 206.5,-51.5"/>
<text text-anchor="middle" x="243.5" y="-58.5" font-family="FreeSans" font-size="10.00" fill="#000000">Martini::Init</text>
</a>
</g>
</g>
<!-- Node1&#45;&gt;Node10 -->
<g id="edge9" class="edge">
<title>Node1&#45;&gt;Node10</title>
<path fill="none" stroke="#191970" d="M77.6474,-196.2091C93.5427,-164.543 125.0401,-110.8938 168,-81.5 179.3028,-73.7664 193.439,-69.022 206.4134,-66.1119"/>
<polygon fill="#191970" stroke="#191970" points="74.4612,-194.7577 73.2199,-205.2796 80.7518,-197.8284 74.4612,-194.7577"/>
</g>
<!-- Node11 -->
<g id="node11" class="node">
<title>Node11</title>
<g id="a_node11"><a xlink:href="../../dc/d9a/classJetscape_1_1FluidDynamics.html#a634b5f0625ad98c726e3a83742a8566e" target="_top" xlink:title="Jetscape::FluidDynamics\l::Init">
<polygon fill="none" stroke="#000000" points="173,-.5 173,-32.5 314,-32.5 314,-.5 173,-.5"/>
<text text-anchor="start" x="181" y="-19.5" font-family="FreeSans" font-size="10.00" fill="#000000">Jetscape::FluidDynamics</text>
<text text-anchor="middle" x="243.5" y="-7.5" font-family="FreeSans" font-size="10.00" fill="#000000">::Init</text>
</a>
</g>
</g>
<!-- Node1&#45;&gt;Node11 -->
<g id="edge10" class="edge">
<title>Node1&#45;&gt;Node11</title>
<path fill="none" stroke="#191970" d="M74.0317,-195.8302C87.4022,-157.1671 117.8278,-84.0993 168,-42.5 172.5889,-38.6952 177.7664,-35.435 183.2052,-32.6438"/>
<polygon fill="#191970" stroke="#191970" points="70.7091,-194.7301 70.8539,-205.3239 77.3471,-196.952 70.7091,-194.7301"/>
</g>
</g>
</svg>
