<?xml version="1.0" encoding="UTF-8" standalone="no"?>
<!DOCTYPE svg PUBLIC "-//W3C//DTD SVG 1.1//EN"
 "http://www.w3.org/Graphics/SVG/1.1/DTD/svg11.dtd">
<!-- Generated by graphviz version 2.40.1 (20161225.0304)
 -->
<!-- Title: ActsExamples::Options::addParticleGunOptions Pages: 1 -->
<svg width="431pt" height="93pt"
 viewBox="0.00 0.00 431.00 93.00" xmlns="http://www.w3.org/2000/svg" xmlns:xlink="http://www.w3.org/1999/xlink">
<g id="graph0" class="graph" transform="scale(1 1) rotate(0) translate(4 89)">
<title>ActsExamples::Options::addParticleGunOptions</title>
<!-- Node1 -->
<g id="node1" class="node">
<title>Node1</title>
<polygon fill="#bfbfbf" stroke="#000000" points="0,-16.5 0,-48.5 139,-48.5 139,-16.5 0,-16.5"/>
<text text-anchor="start" x="8" y="-35.5" font-family="FreeSans" font-size="10.00" fill="#000000">ActsExamples::Options</text>
<text text-anchor="middle" x="69.5" y="-23.5" font-family="FreeSans" font-size="10.00" fill="#000000">::addParticleGunOptions</text>
</g>
<!-- Node2 -->
<g id="node2" class="node">
<title>Node2</title>
<g id="a_node2"><a xlink:href="../../da/df9/namespaceActsExamples_1_1Simulation.html#acac6247d257ed27c1f16f695146f6a16" target="_top" xlink:title="ActsExamples::Simulation\l::addInputOptions">
<polygon fill="none" stroke="#000000" points="175,-39.5 175,-71.5 323,-71.5 323,-39.5 175,-39.5"/>
<text text-anchor="start" x="183" y="-58.5" font-family="FreeSans" font-size="10.00" fill="#000000">ActsExamples::Simulation</text>
<text text-anchor="middle" x="249" y="-46.5" font-family="FreeSans" font-size="10.00" fill="#000000">::addInputOptions</text>
</a>
</g>
</g>
<!-- Node1&#45;&gt;Node2 -->
<g id="edge1" class="edge">
<title>Node1&#45;&gt;Node2</title>
<path fill="none" stroke="#191970" d="M149.1465,-42.7054C157.7216,-43.8042 166.4214,-44.9189 174.9273,-46.0088"/>
<polygon fill="#191970" stroke="#191970" points="149.5201,-39.2247 139.1563,-41.4253 148.6303,-46.168 149.5201,-39.2247"/>
</g>
<!-- Node5 -->
<g id="node5" class="node">
<title>Node5</title>
<g id="a_node5"><a xlink:href="../../d3/d80/DD4hepMaterialRecording_8cpp.html#a0ddf1224851353fc92bfbff6f499fa97" target="_top" xlink:title="main">
<polygon fill="none" stroke="#000000" points="228.5,-.5 228.5,-20.5 269.5,-20.5 269.5,-.5 228.5,-.5"/>
<text text-anchor="middle" x="249" y="-7.5" font-family="FreeSans" font-size="10.00" fill="#000000">main</text>
</a>
</g>
</g>
<!-- Node1&#45;&gt;Node5 -->
<g id="edge4" class="edge">
<title>Node1&#45;&gt;Node5</title>
<path fill="none" stroke="#191970" d="M149.358,-22.7124C178.4223,-19.1502 208.8875,-15.4163 228.3612,-13.0295"/>
<polygon fill="#191970" stroke="#191970" points="148.6562,-19.2721 139.1563,-23.9627 149.5078,-26.2201 148.6562,-19.2721"/>
</g>
<!-- Node3 -->
<g id="node3" class="node">
<title>Node3</title>
<g id="a_node3"><a xlink:href="../../df/d19/FatrasCommon_8cpp.html#aef85221ef3a1ef39fff4fe8c628eea8e" target="_top" xlink:title="runFatras">
<polygon fill="none" stroke="#000000" points="359,-64.5 359,-84.5 423,-84.5 423,-64.5 359,-64.5"/>
<text text-anchor="middle" x="391" y="-71.5" font-family="FreeSans" font-size="10.00" fill="#000000">runFatras</text>
</a>
</g>
</g>
<!-- Node2&#45;&gt;Node3 -->
<g id="edge2" class="edge">
<title>Node2&#45;&gt;Node3</title>
<path fill="none" stroke="#191970" d="M333.5031,-66.8068C342.4329,-68.0016 351.0668,-69.1568 358.8113,-70.1931"/>
<polygon fill="#191970" stroke="#191970" points="333.7029,-63.3024 323.327,-65.4452 332.7745,-70.2405 333.7029,-63.3024"/>
</g>
<!-- Node4 -->
<g id="node4" class="node">
<title>Node4</title>
<g id="a_node4"><a xlink:href="../../d0/de0/DD4hepGeant4Simulation_8cpp.html#a0ddf1224851353fc92bfbff6f499fa97" target="_top" xlink:title="main">
<polygon fill="none" stroke="#000000" points="370.5,-25.5 370.5,-45.5 411.5,-45.5 411.5,-25.5 370.5,-25.5"/>
<text text-anchor="middle" x="391" y="-32.5" font-family="FreeSans" font-size="10.00" fill="#000000">main</text>
</a>
</g>
</g>
<!-- Node2&#45;&gt;Node4 -->
<g id="edge3" class="edge">
<title>Node2&#45;&gt;Node4</title>
<path fill="none" stroke="#191970" d="M333.4102,-43.6112C347.1317,-41.6786 360.1597,-39.8437 370.3425,-38.4095"/>
<polygon fill="#191970" stroke="#191970" points="332.7411,-40.1708 323.327,-45.0314 333.7175,-47.1024 332.7411,-40.1708"/>
</g>
</g>
</svg>
