<?xml version="1.0" encoding="UTF-8" standalone="no"?>
<!DOCTYPE svg PUBLIC "-//W3C//DTD SVG 1.1//EN"
 "http://www.w3.org/Graphics/SVG/1.1/DTD/svg11.dtd">
<!-- Generated by graphviz version 2.40.1 (20161225.0304)
 -->
<!-- Title: myAnalysis::finalize Pages: 1 -->
<svg width="462pt" height="146pt"
 viewBox="0.00 0.00 462.00 146.00" xmlns="http://www.w3.org/2000/svg" xmlns:xlink="http://www.w3.org/1999/xlink">
<g id="graph0" class="graph" transform="scale(1 1) rotate(0) translate(4 142)">
<title>myAnalysis::finalize</title>
<!-- Node1 -->
<g id="node1" class="node">
<title>Node1</title>
<polygon fill="#bfbfbf" stroke="#000000" points="0,-58.5 0,-78.5 117,-78.5 117,-58.5 0,-58.5"/>
<text text-anchor="middle" x="58.5" y="-65.5" font-family="FreeSans" font-size="10.00" fill="#000000">myAnalysis::finalize</text>
</g>
<!-- Node2 -->
<g id="node2" class="node">
<title>Node2</title>
<g id="a_node2"><a xlink:href="../../dc/dab/namespaceActs_1_1Python.html#a19fde2458eb67e824b5ffec2ce2fe7fe" target="_top" xlink:title="Acts::Python::addDetector">
<polygon fill="none" stroke="#000000" points="153,-117.5 153,-137.5 303,-137.5 303,-117.5 153,-117.5"/>
<text text-anchor="middle" x="228" y="-124.5" font-family="FreeSans" font-size="10.00" fill="#000000">Acts::Python::addDetector</text>
</a>
</g>
</g>
<!-- Node1&#45;&gt;Node2 -->
<g id="edge1" class="edge">
<title>Node1&#45;&gt;Node2</title>
<path fill="none" stroke="#191970" d="M89.1788,-82.8893C107.4481,-91.1025 131.2421,-101.1866 153,-108.5 162.8038,-111.7953 173.4951,-114.8272 183.6533,-117.456"/>
<polygon fill="#191970" stroke="#191970" points="90.4594,-79.6266 79.9079,-78.6691 87.5593,-85.9976 90.4594,-79.6266"/>
</g>
<!-- Node4 -->
<g id="node4" class="node">
<title>Node4</title>
<g id="a_node4"><a xlink:href="../../db/d55/event-display_8C.html#a7440088f954e931b74d9408215396bbd" target="_top" xlink:title="event_display">
<polygon fill="none" stroke="#000000" points="185,-78.5 185,-98.5 271,-98.5 271,-78.5 185,-78.5"/>
<text text-anchor="middle" x="228" y="-85.5" font-family="FreeSans" font-size="10.00" fill="#000000">event_display</text>
</a>
</g>
</g>
<!-- Node1&#45;&gt;Node4 -->
<g id="edge3" class="edge">
<title>Node1&#45;&gt;Node4</title>
<path fill="none" stroke="#191970" d="M127.3364,-76.6223C146.76,-78.9142 167.3403,-81.3425 184.7963,-83.4022"/>
<polygon fill="#191970" stroke="#191970" points="127.6484,-73.1349 117.3072,-75.4389 126.8281,-80.0867 127.6484,-73.1349"/>
</g>
<!-- Node6 -->
<g id="node6" class="node">
<title>Node6</title>
<g id="a_node6"><a xlink:href="../../de/dc6/analysis_2blob_2master_2EMCal-QA_2macro_2QA_8C.html#aafc4b8c0bb262ba9788ca687197b5166" target="_top" xlink:title="QA">
<polygon fill="none" stroke="#000000" points="212.5,-39.5 212.5,-59.5 243.5,-59.5 243.5,-39.5 212.5,-39.5"/>
<text text-anchor="middle" x="228" y="-46.5" font-family="FreeSans" font-size="10.00" fill="#000000">QA</text>
</a>
</g>
</g>
<!-- Node1&#45;&gt;Node6 -->
<g id="edge5" class="edge">
<title>Node1&#45;&gt;Node6</title>
<path fill="none" stroke="#191970" d="M127.3179,-60.7859C158.5444,-57.2856 192.7645,-53.4497 212.1871,-51.2725"/>
<polygon fill="#191970" stroke="#191970" points="126.855,-57.3158 117.3072,-61.908 127.6349,-64.2722 126.855,-57.3158"/>
</g>
<!-- Node8 -->
<g id="node8" class="node">
<title>Node8</title>
<g id="a_node8"><a xlink:href="../../db/d56/read-LEDs_8C.html#a98c164ba9e1229e66fe2f4771ef7234a" target="_top" xlink:title="read_LEDs">
<polygon fill="none" stroke="#000000" points="193.5,-.5 193.5,-20.5 262.5,-20.5 262.5,-.5 193.5,-.5"/>
<text text-anchor="middle" x="228" y="-7.5" font-family="FreeSans" font-size="10.00" fill="#000000">read_LEDs</text>
</a>
</g>
</g>
<!-- Node1&#45;&gt;Node8 -->
<g id="edge7" class="edge">
<title>Node1&#45;&gt;Node8</title>
<path fill="none" stroke="#191970" d="M90.6251,-54.4496C108.7417,-46.8136 131.908,-37.524 153,-30.5 166.0412,-26.157 180.5967,-22.0998 193.3893,-18.7901"/>
<polygon fill="#191970" stroke="#191970" points="88.9533,-51.3574 81.1251,-58.4968 91.6969,-57.7973 88.9533,-51.3574"/>
</g>
<!-- Node3 -->
<g id="node3" class="node">
<title>Node3</title>
<g id="a_node3"><a xlink:href="../../d2/d88/ModuleEntry_8cpp.html#a67bb088b1bb5c0fd6de84f6601af1310" target="_top" xlink:title="PYBIND11_MODULE">
<polygon fill="none" stroke="#000000" points="339,-117.5 339,-137.5 454,-137.5 454,-117.5 339,-117.5"/>
<text text-anchor="middle" x="396.5" y="-124.5" font-family="FreeSans" font-size="10.00" fill="#000000">PYBIND11_MODULE</text>
</a>
</g>
</g>
<!-- Node2&#45;&gt;Node3 -->
<g id="edge2" class="edge">
<title>Node2&#45;&gt;Node3</title>
<path fill="none" stroke="#191970" d="M313.4691,-127.5C322.0762,-127.5 330.6664,-127.5 338.8801,-127.5"/>
<polygon fill="#191970" stroke="#191970" points="313.3789,-124.0001 303.3789,-127.5 313.3789,-131.0001 313.3789,-124.0001"/>
</g>
<!-- Node5 -->
<g id="node5" class="node">
<title>Node5</title>
<g id="a_node5"><a xlink:href="../../db/d55/event-display_8C.html#a0ddf1224851353fc92bfbff6f499fa97" target="_top" xlink:title="main">
<polygon fill="none" stroke="#000000" points="376,-78.5 376,-98.5 417,-98.5 417,-78.5 376,-78.5"/>
<text text-anchor="middle" x="396.5" y="-85.5" font-family="FreeSans" font-size="10.00" fill="#000000">main</text>
</a>
</g>
</g>
<!-- Node4&#45;&gt;Node5 -->
<g id="edge4" class="edge">
<title>Node4&#45;&gt;Node5</title>
<path fill="none" stroke="#191970" d="M281.518,-88.5C313.533,-88.5 352.4089,-88.5 375.7647,-88.5"/>
<polygon fill="#191970" stroke="#191970" points="281.393,-85.0001 271.3929,-88.5 281.3929,-92.0001 281.393,-85.0001"/>
</g>
<!-- Node7 -->
<g id="node7" class="node">
<title>Node7</title>
<g id="a_node7"><a xlink:href="../../de/dc6/analysis_2blob_2master_2EMCal-QA_2macro_2QA_8C.html#a0ddf1224851353fc92bfbff6f499fa97" target="_top" xlink:title="main">
<polygon fill="none" stroke="#000000" points="376,-39.5 376,-59.5 417,-59.5 417,-39.5 376,-39.5"/>
<text text-anchor="middle" x="396.5" y="-46.5" font-family="FreeSans" font-size="10.00" fill="#000000">main</text>
</a>
</g>
</g>
<!-- Node6&#45;&gt;Node7 -->
<g id="edge6" class="edge">
<title>Node6&#45;&gt;Node7</title>
<path fill="none" stroke="#191970" d="M253.9082,-49.5C287.401,-49.5 345.0617,-49.5 375.7964,-49.5"/>
<polygon fill="#191970" stroke="#191970" points="253.5501,-46.0001 243.55,-49.5 253.55,-53.0001 253.5501,-46.0001"/>
</g>
<!-- Node9 -->
<g id="node9" class="node">
<title>Node9</title>
<g id="a_node9"><a xlink:href="../../db/d56/read-LEDs_8C.html#a0ddf1224851353fc92bfbff6f499fa97" target="_top" xlink:title="main">
<polygon fill="none" stroke="#000000" points="376,-.5 376,-20.5 417,-20.5 417,-.5 376,-.5"/>
<text text-anchor="middle" x="396.5" y="-7.5" font-family="FreeSans" font-size="10.00" fill="#000000">main</text>
</a>
</g>
</g>
<!-- Node8&#45;&gt;Node9 -->
<g id="edge8" class="edge">
<title>Node8&#45;&gt;Node9</title>
<path fill="none" stroke="#191970" d="M272.9379,-10.5C306.3345,-10.5 350.3541,-10.5 375.832,-10.5"/>
<polygon fill="#191970" stroke="#191970" points="272.5051,-7.0001 262.5051,-10.5 272.5051,-14.0001 272.5051,-7.0001"/>
</g>
</g>
</svg>
