<?xml version="1.0" encoding="UTF-8" standalone="no"?>
<!DOCTYPE svg PUBLIC "-//W3C//DTD SVG 1.1//EN"
 "http://www.w3.org/Graphics/SVG/1.1/DTD/svg11.dtd">
<!-- Generated by graphviz version 2.40.1 (20161225.0304)
 -->
<!-- Title: analysis/blob/master/AndersonAnalysisModules/ColdQcdCorrelatorAnalysis/SEnergyCorrelator/macros/DoPercentDifference.C Pages: 1 -->
<svg width="846pt" height="134pt"
 viewBox="0.00 0.00 845.50 134.00" xmlns="http://www.w3.org/2000/svg" xmlns:xlink="http://www.w3.org/1999/xlink">
<g id="graph0" class="graph" transform="scale(1 1) rotate(0) translate(4 130)">
<title>analysis/blob/master/AndersonAnalysisModules/ColdQcdCorrelatorAnalysis/SEnergyCorrelator/macros/DoPercentDifference.C</title>
<!-- Node1 -->
<g id="node1" class="node">
<title>Node1</title>
<polygon fill="#bfbfbf" stroke="#000000" points="306.5,-57.5 306.5,-125.5 461.5,-125.5 461.5,-57.5 306.5,-57.5"/>
<text text-anchor="start" x="314.5" y="-112.5" font-family="FreeSans" font-size="10.00" fill="#000000">analysis/blob/master</text>
<text text-anchor="start" x="314.5" y="-100.5" font-family="FreeSans" font-size="10.00" fill="#000000">/AndersonAnalysisModules</text>
<text text-anchor="start" x="314.5" y="-88.5" font-family="FreeSans" font-size="10.00" fill="#000000">/ColdQcdCorrelatorAnalysis</text>
<text text-anchor="start" x="314.5" y="-76.5" font-family="FreeSans" font-size="10.00" fill="#000000">/SEnergyCorrelator/macros</text>
<text text-anchor="middle" x="384" y="-64.5" font-family="FreeSans" font-size="10.00" fill="#000000">/DoPercentDifference.C</text>
</g>
<!-- Node2 -->
<g id="node2" class="node">
<title>Node2</title>
<polygon fill="none" stroke="#bfbfbf" points="0,-.5 0,-20.5 60,-20.5 60,-.5 0,-.5"/>
<text text-anchor="middle" x="30" y="-7.5" font-family="FreeSans" font-size="10.00" fill="#000000">iostream</text>
</g>
<!-- Node1&#45;&gt;Node2 -->
<g id="edge1" class="edge">
<title>Node1&#45;&gt;Node2</title>
<path fill="none" stroke="#191970" d="M306.4356,-75.1089C244.9144,-61.8844 156.5205,-42.3885 70.1732,-21.2222"/>
<polygon fill="#191970" stroke="#191970" points="70.7474,-17.7591 60.2007,-18.7678 69.0744,-24.5563 70.7474,-17.7591"/>
</g>
<!-- Node3 -->
<g id="node3" class="node">
<title>Node3</title>
<polygon fill="none" stroke="#bfbfbf" points="78.5,-.5 78.5,-20.5 125.5,-20.5 125.5,-.5 78.5,-.5"/>
<text text-anchor="middle" x="102" y="-7.5" font-family="FreeSans" font-size="10.00" fill="#000000">TH1.h</text>
</g>
<!-- Node1&#45;&gt;Node3 -->
<g id="edge2" class="edge">
<title>Node1&#45;&gt;Node3</title>
<path fill="none" stroke="#191970" d="M306.3304,-70.5056C259.2679,-57.5712 197.8236,-40.3093 135.3567,-21.3438"/>
<polygon fill="#191970" stroke="#191970" points="136.3162,-17.9773 125.7302,-18.4099 134.2755,-24.6733 136.3162,-17.9773"/>
</g>
<!-- Node4 -->
<g id="node4" class="node">
<title>Node4</title>
<polygon fill="none" stroke="#bfbfbf" points="143.5,-.5 143.5,-20.5 194.5,-20.5 194.5,-.5 143.5,-.5"/>
<text text-anchor="middle" x="169" y="-7.5" font-family="FreeSans" font-size="10.00" fill="#000000">TPad.h</text>
</g>
<!-- Node1&#45;&gt;Node4 -->
<g id="edge3" class="edge">
<title>Node1&#45;&gt;Node4</title>
<path fill="none" stroke="#191970" d="M306.3801,-62.2571C271.4571,-49.1001 231.9639,-34.2213 204.3143,-23.8044"/>
<polygon fill="#191970" stroke="#191970" points="205.2857,-20.4303 194.6938,-20.18 202.8178,-26.9809 205.2857,-20.4303"/>
</g>
<!-- Node5 -->
<g id="node5" class="node">
<title>Node5</title>
<polygon fill="none" stroke="#bfbfbf" points="213,-.5 213,-20.5 263,-20.5 263,-.5 213,-.5"/>
<text text-anchor="middle" x="238" y="-7.5" font-family="FreeSans" font-size="10.00" fill="#000000">TFile.h</text>
</g>
<!-- Node1&#45;&gt;Node5 -->
<g id="edge4" class="edge">
<title>Node1&#45;&gt;Node5</title>
<path fill="none" stroke="#191970" d="M322.506,-57.3835C302.4412,-46.2516 281.1867,-34.4597 265.0129,-25.4866"/>
<polygon fill="#191970" stroke="#191970" points="266.567,-22.3463 256.1246,-20.5554 263.171,-28.4674 266.567,-22.3463"/>
</g>
<!-- Node6 -->
<g id="node6" class="node">
<title>Node6</title>
<polygon fill="none" stroke="#bfbfbf" points="281,-.5 281,-20.5 339,-20.5 339,-.5 281,-.5"/>
<text text-anchor="middle" x="310" y="-7.5" font-family="FreeSans" font-size="10.00" fill="#000000">TMath.h</text>
</g>
<!-- Node1&#45;&gt;Node6 -->
<g id="edge5" class="edge">
<title>Node1&#45;&gt;Node6</title>
<path fill="none" stroke="#191970" d="M352.6173,-57.1487C343.5424,-47.2153 334.0059,-36.7767 326.2604,-28.2986"/>
<polygon fill="#191970" stroke="#191970" points="328.7856,-25.8735 319.4567,-20.8513 323.6176,-30.5949 328.7856,-25.8735"/>
</g>
<!-- Node7 -->
<g id="node7" class="node">
<title>Node7</title>
<polygon fill="none" stroke="#bfbfbf" points="357,-.5 357,-20.5 411,-20.5 411,-.5 357,-.5"/>
<text text-anchor="middle" x="384" y="-7.5" font-family="FreeSans" font-size="10.00" fill="#000000">TLine.h</text>
</g>
<!-- Node1&#45;&gt;Node7 -->
<g id="edge6" class="edge">
<title>Node1&#45;&gt;Node7</title>
<path fill="none" stroke="#191970" d="M384,-57.1487C384,-48.2394 384,-38.9236 384,-30.9805"/>
<polygon fill="#191970" stroke="#191970" points="387.5001,-30.8512 384,-20.8513 380.5001,-30.8513 387.5001,-30.8512"/>
</g>
<!-- Node8 -->
<g id="node8" class="node">
<title>Node8</title>
<polygon fill="none" stroke="#bfbfbf" points="429,-.5 429,-20.5 485,-20.5 485,-.5 429,-.5"/>
<text text-anchor="middle" x="457" y="-7.5" font-family="FreeSans" font-size="10.00" fill="#000000">TError.h</text>
</g>
<!-- Node1&#45;&gt;Node8 -->
<g id="edge7" class="edge">
<title>Node1&#45;&gt;Node8</title>
<path fill="none" stroke="#191970" d="M414.9586,-57.1487C423.9109,-47.2153 433.3185,-36.7767 440.9593,-28.2986"/>
<polygon fill="#191970" stroke="#191970" points="443.5763,-30.6228 447.6711,-20.8513 438.3764,-25.9365 443.5763,-30.6228"/>
</g>
<!-- Node9 -->
<g id="node9" class="node">
<title>Node9</title>
<polygon fill="none" stroke="#bfbfbf" points="503.5,-.5 503.5,-20.5 566.5,-20.5 566.5,-.5 503.5,-.5"/>
<text text-anchor="middle" x="535" y="-7.5" font-family="FreeSans" font-size="10.00" fill="#000000">TString.h</text>
</g>
<!-- Node1&#45;&gt;Node9 -->
<g id="edge8" class="edge">
<title>Node1&#45;&gt;Node9</title>
<path fill="none" stroke="#191970" d="M447.6,-57.3835C468.352,-46.2516 490.3343,-34.4597 507.062,-25.4866"/>
<polygon fill="#191970" stroke="#191970" points="509.097,-28.3668 516.2547,-20.5554 505.788,-22.1983 509.097,-28.3668"/>
</g>
<!-- Node10 -->
<g id="node10" class="node">
<title>Node10</title>
<polygon fill="none" stroke="#bfbfbf" points="584.5,-.5 584.5,-20.5 653.5,-20.5 653.5,-.5 584.5,-.5"/>
<text text-anchor="middle" x="619" y="-7.5" font-family="FreeSans" font-size="10.00" fill="#000000">TCanvas.h</text>
</g>
<!-- Node1&#45;&gt;Node10 -->
<g id="edge9" class="edge">
<title>Node1&#45;&gt;Node10</title>
<path fill="none" stroke="#191970" d="M461.5991,-64.7531C501.4602,-51.0137 548.2733,-34.8782 580.424,-23.7964"/>
<polygon fill="#191970" stroke="#191970" points="581.5936,-27.0954 589.9072,-20.5277 579.3125,-20.4775 581.5936,-27.0954"/>
</g>
<!-- Node11 -->
<g id="node11" class="node">
<title>Node11</title>
<polygon fill="none" stroke="#bfbfbf" points="672,-.5 672,-20.5 742,-20.5 742,-.5 672,-.5"/>
<text text-anchor="middle" x="707" y="-7.5" font-family="FreeSans" font-size="10.00" fill="#000000">TLegend.h</text>
</g>
<!-- Node1&#45;&gt;Node11 -->
<g id="edge10" class="edge">
<title>Node1&#45;&gt;Node11</title>
<path fill="none" stroke="#191970" d="M461.7776,-71.9954C524.4289,-56.2841 610.315,-34.7461 662.0528,-21.7716"/>
<polygon fill="#191970" stroke="#191970" points="663.0798,-25.1225 671.9281,-19.2951 661.377,-18.3327 663.0798,-25.1225"/>
</g>
<!-- Node12 -->
<g id="node12" class="node">
<title>Node12</title>
<polygon fill="none" stroke="#bfbfbf" points="760.5,-.5 760.5,-20.5 837.5,-20.5 837.5,-.5 760.5,-.5"/>
<text text-anchor="middle" x="799" y="-7.5" font-family="FreeSans" font-size="10.00" fill="#000000">TPaveText.h</text>
</g>
<!-- Node1&#45;&gt;Node12 -->
<g id="edge11" class="edge">
<title>Node1&#45;&gt;Node12</title>
<path fill="none" stroke="#191970" d="M461.7949,-77.1528C533.9095,-63.7163 644.4411,-42.7757 750.3421,-21.0987"/>
<polygon fill="#191970" stroke="#191970" points="751.1531,-24.5053 760.2455,-19.0666 749.746,-17.6482 751.1531,-24.5053"/>
</g>
</g>
</svg>
