<?xml version="1.0" encoding="UTF-8" standalone="no"?>
<!DOCTYPE svg PUBLIC "-//W3C//DTD SVG 1.1//EN"
 "http://www.w3.org/Graphics/SVG/1.1/DTD/svg11.dtd">
<!-- Generated by graphviz version 2.40.1 (20161225.0304)
 -->
<!-- Title: PHSiliconSeedMerger::searchIntt Pages: 1 -->
<svg width="439pt" height="41pt"
 viewBox="0.00 0.00 439.00 41.00" xmlns="http://www.w3.org/2000/svg" xmlns:xlink="http://www.w3.org/1999/xlink">
<g id="graph0" class="graph" transform="scale(1 1) rotate(0) translate(4 37)">
<title>PHSiliconSeedMerger::searchIntt</title>
<!-- Node1 -->
<g id="node1" class="node">
<title>Node1</title>
<polygon fill="#bfbfbf" stroke="#000000" points="0,-.5 0,-32.5 125,-32.5 125,-.5 0,-.5"/>
<text text-anchor="start" x="8" y="-19.5" font-family="FreeSans" font-size="10.00" fill="#000000">PHSiliconSeedMerger</text>
<text text-anchor="middle" x="62.5" y="-7.5" font-family="FreeSans" font-size="10.00" fill="#000000">::searchIntt</text>
</g>
<!-- Node2 -->
<g id="node2" class="node">
<title>Node2</title>
<g id="a_node2"><a xlink:href="../../da/de7/Trkr__Reco_8C.html#a2c0624ccfbfac35c99cce3416dfa6879" target="_top" xlink:title="Tracking_Reco_TrackSeed\l_pass1">
<polygon fill="none" stroke="#000000" points="161,-.5 161,-32.5 306,-32.5 306,-.5 161,-.5"/>
<text text-anchor="start" x="169" y="-19.5" font-family="FreeSans" font-size="10.00" fill="#000000">Tracking_Reco_TrackSeed</text>
<text text-anchor="middle" x="233.5" y="-7.5" font-family="FreeSans" font-size="10.00" fill="#000000">_pass1</text>
</a>
</g>
</g>
<!-- Node1&#45;&gt;Node2 -->
<g id="edge1" class="edge">
<title>Node1&#45;&gt;Node2</title>
<path fill="none" stroke="#191970" d="M135.4168,-16.5C143.8773,-16.5 152.5058,-16.5 160.9612,-16.5"/>
<polygon fill="#191970" stroke="#191970" points="135.2031,-13.0001 125.2031,-16.5 135.2031,-20.0001 135.2031,-13.0001"/>
</g>
<!-- Node3 -->
<g id="node3" class="node">
<title>Node3</title>
<g id="a_node3"><a xlink:href="../../da/de7/Trkr__Reco_8C.html#aa4a8fbf7fb6b81c8284e7f8029636428" target="_top" xlink:title="Tracking_Reco">
<polygon fill="none" stroke="#000000" points="342,-6.5 342,-26.5 431,-26.5 431,-6.5 342,-6.5"/>
<text text-anchor="middle" x="386.5" y="-13.5" font-family="FreeSans" font-size="10.00" fill="#000000">Tracking_Reco</text>
</a>
</g>
</g>
<!-- Node2&#45;&gt;Node3 -->
<g id="edge2" class="edge">
<title>Node2&#45;&gt;Node3</title>
<path fill="none" stroke="#191970" d="M316.5475,-16.5C325.1576,-16.5 333.6563,-16.5 341.603,-16.5"/>
<polygon fill="#191970" stroke="#191970" points="316.4153,-13.0001 306.4152,-16.5 316.4152,-20.0001 316.4153,-13.0001"/>
</g>
</g>
</svg>
