<?xml version="1.0" encoding="UTF-8" standalone="no"?>
<!DOCTYPE svg PUBLIC "-//W3C//DTD SVG 1.1//EN"
 "http://www.w3.org/Graphics/SVG/1.1/DTD/svg11.dtd">
<!-- Generated by graphviz version 2.40.1 (20161225.0304)
 -->
<!-- Title: PHActsSiliconSeeding::runSeeder Pages: 1 -->
<svg width="701pt" height="491pt"
 viewBox="0.00 0.00 701.00 491.00" xmlns="http://www.w3.org/2000/svg" xmlns:xlink="http://www.w3.org/1999/xlink">
<g id="graph0" class="graph" transform="scale(1 1) rotate(0) translate(4 487)">
<title>PHActsSiliconSeeding::runSeeder</title>
<!-- Node1 -->
<g id="node1" class="node">
<title>Node1</title>
<polygon fill="#bfbfbf" stroke="#000000" points="0,-358.5 0,-390.5 125,-390.5 125,-358.5 0,-358.5"/>
<text text-anchor="start" x="8" y="-377.5" font-family="FreeSans" font-size="10.00" fill="#000000">PHActsSiliconSeeding</text>
<text text-anchor="middle" x="62.5" y="-365.5" font-family="FreeSans" font-size="10.00" fill="#000000">::runSeeder</text>
</g>
<!-- Node2 -->
<g id="node2" class="node">
<title>Node2</title>
<g id="a_node2"><a xlink:href="../../d3/d3d/classActs_1_1BinnedSPGroup.html#aa74be047c53acc72996781ed3e98ba6a" target="_top" xlink:title="Acts::BinnedSPGroup\l::begin">
<polygon fill="none" stroke="#000000" points="168.5,-432.5 168.5,-464.5 292.5,-464.5 292.5,-432.5 168.5,-432.5"/>
<text text-anchor="start" x="176.5" y="-451.5" font-family="FreeSans" font-size="10.00" fill="#000000">Acts::BinnedSPGroup</text>
<text text-anchor="middle" x="230.5" y="-439.5" font-family="FreeSans" font-size="10.00" fill="#000000">::begin</text>
</a>
</g>
</g>
<!-- Node1&#45;&gt;Node2 -->
<g id="edge1" class="edge">
<title>Node1&#45;&gt;Node2</title>
<path fill="none" stroke="#191970" d="M92.6856,-390.6583C111.9631,-400.6907 137.6369,-413.5269 161,-423.5 165.159,-425.2754 169.491,-427.036 173.8695,-428.7523"/>
<polygon fill="#191970" stroke="#191970" points="172.8892,-432.1246 183.4797,-432.4272 175.3895,-425.5863 172.8892,-432.1246"/>
</g>
<!-- Node3 -->
<g id="node3" class="node">
<title>Node3</title>
<g id="a_node3"><a xlink:href="../../dc/d44/classActs_1_1Seedfinder.html#a705e7b7397d37515f73047a90bf72b32" target="_top" xlink:title="Acts::Seedfinder::create\lSeedsForGroup">
<polygon fill="none" stroke="#000000" points="161,-381.5 161,-413.5 300,-413.5 300,-381.5 161,-381.5"/>
<text text-anchor="start" x="169" y="-400.5" font-family="FreeSans" font-size="10.00" fill="#000000">Acts::Seedfinder::create</text>
<text text-anchor="middle" x="230.5" y="-388.5" font-family="FreeSans" font-size="10.00" fill="#000000">SeedsForGroup</text>
</a>
</g>
</g>
<!-- Node1&#45;&gt;Node3 -->
<g id="edge2" class="edge">
<title>Node1&#45;&gt;Node3</title>
<path fill="none" stroke="#191970" d="M125.057,-383.0644C133.4386,-384.2118 142.1254,-385.4011 150.7523,-386.5822"/>
<polygon fill="#191970" stroke="#191970" points="150.4477,-390.073 160.83,-387.9619 151.3972,-383.1377 150.4477,-390.073"/>
</g>
<!-- Node8 -->
<g id="node8" class="node">
<title>Node8</title>
<g id="a_node8"><a xlink:href="../../d0/da7/namespacetesting_1_1internal.html#a0f6d06bf8c3093b9c22bb08723db201e" target="_top" xlink:title="testing::internal::move">
<polygon fill="none" stroke="#000000" points="348,-345.5 348,-365.5 480,-365.5 480,-345.5 348,-345.5"/>
<text text-anchor="middle" x="414" y="-352.5" font-family="FreeSans" font-size="10.00" fill="#000000">testing::internal::move</text>
</a>
</g>
</g>
<!-- Node1&#45;&gt;Node8 -->
<g id="edge21" class="edge">
<title>Node1&#45;&gt;Node8</title>
<path fill="none" stroke="#191970" d="M125.3412,-371.1032C184.7311,-367.8929 273.9517,-363.0702 337.464,-359.6371"/>
<polygon fill="#191970" stroke="#191970" points="338.0262,-363.1119 347.8226,-359.0772 337.6483,-356.1221 338.0262,-363.1119"/>
</g>
<!-- Node9 -->
<g id="node9" class="node">
<title>Node9</title>
<g id="a_node9"><a xlink:href="../../d3/df0/classPHActsSiliconSeeding.html#ae494698198694311a69a91e49e3884af" target="_top" xlink:title="Get all space points for the seeder.">
<polygon fill="none" stroke="#000000" points="168,-192.5 168,-224.5 293,-224.5 293,-192.5 168,-192.5"/>
<text text-anchor="start" x="176" y="-211.5" font-family="FreeSans" font-size="10.00" fill="#000000">PHActsSiliconSeeding</text>
<text text-anchor="middle" x="230.5" y="-199.5" font-family="FreeSans" font-size="10.00" fill="#000000">::getMvtxSpacePoints</text>
</a>
</g>
</g>
<!-- Node1&#45;&gt;Node9 -->
<g id="edge8" class="edge">
<title>Node1&#45;&gt;Node9</title>
<path fill="none" stroke="#191970" d="M78.9144,-358.281C108.8506,-328.7012 172.4064,-265.902 206.9529,-231.7668"/>
<polygon fill="#191970" stroke="#191970" points="209.613,-234.0588 214.2663,-224.5405 204.6929,-229.0794 209.613,-234.0588"/>
</g>
<!-- Node4 -->
<g id="node4" class="node">
<title>Node4</title>
<g id="a_node4"><a xlink:href="../../df/d89/draw__G4__bjet__truth__tagging_8C.html#ac11d74dd8646e14cb846022b308603a5" target="_top" xlink:title="deltaR">
<polygon fill="none" stroke="#000000" points="389.5,-462.5 389.5,-482.5 438.5,-482.5 438.5,-462.5 389.5,-462.5"/>
<text text-anchor="middle" x="414" y="-469.5" font-family="FreeSans" font-size="10.00" fill="#000000">deltaR</text>
</a>
</g>
</g>
<!-- Node3&#45;&gt;Node4 -->
<g id="edge3" class="edge">
<title>Node3&#45;&gt;Node4</title>
<path fill="none" stroke="#191970" d="M279.6881,-413.5195C286.6835,-416.4756 293.6508,-419.8109 300,-423.5 318.0082,-433.9634 317.4013,-444.1264 336,-453.5 349.3894,-460.2482 365.2998,-464.6801 379.2478,-467.5507"/>
<polygon fill="#191970" stroke="#191970" points="378.9851,-471.062 389.4572,-469.4541 380.2681,-464.1805 378.9851,-471.062"/>
</g>
<!-- Node5 -->
<g id="node5" class="node">
<title>Node5</title>
<g id="a_node5"><a xlink:href="../../db/d30/TPCRateData_8m.html#a2ae3b94a32881ed5840bebb9dd7954d2" target="_top" xlink:title="if">
<polygon fill="none" stroke="#000000" points="399.5,-423.5 399.5,-443.5 428.5,-443.5 428.5,-423.5 399.5,-423.5"/>
<text text-anchor="middle" x="414" y="-430.5" font-family="FreeSans" font-size="10.00" fill="#000000">if</text>
</a>
</g>
</g>
<!-- Node3&#45;&gt;Node5 -->
<g id="edge4" class="edge">
<title>Node3&#45;&gt;Node5</title>
<path fill="none" stroke="#191970" d="M300.1351,-411.1614C331.4696,-417.3088 366.4635,-424.174 389.282,-428.6507"/>
<polygon fill="#191970" stroke="#191970" points="388.6575,-432.0948 399.1443,-430.5855 390.0052,-425.2258 388.6575,-432.0948"/>
</g>
<!-- Node6 -->
<g id="node6" class="node">
<title>Node6</title>
<g id="a_node6"><a xlink:href="../../df/d28/namespacekdfinder.html#ab72d428625e99a2d7380eb7691c246c7" target="_top" xlink:title="kdfinder::abs">
<polygon fill="none" stroke="#000000" points="372.5,-384.5 372.5,-404.5 455.5,-404.5 455.5,-384.5 372.5,-384.5"/>
<text text-anchor="middle" x="414" y="-391.5" font-family="FreeSans" font-size="10.00" fill="#000000">kdfinder::abs</text>
</a>
</g>
</g>
<!-- Node3&#45;&gt;Node6 -->
<g id="edge5" class="edge">
<title>Node3&#45;&gt;Node6</title>
<path fill="none" stroke="#191970" d="M300.1351,-396.3616C320.7613,-396.0243 342.9731,-395.6612 362.254,-395.346"/>
<polygon fill="#191970" stroke="#191970" points="362.3981,-398.8442 372.3395,-395.1811 362.2836,-391.8451 362.3981,-398.8442"/>
</g>
<!-- Node3&#45;&gt;Node8 -->
<g id="edge7" class="edge">
<title>Node3&#45;&gt;Node8</title>
<path fill="none" stroke="#191970" d="M300.1351,-381.5617C320.0738,-376.9981 341.4941,-372.0954 360.3163,-367.7873"/>
<polygon fill="#191970" stroke="#191970" points="361.2223,-371.1705 370.1893,-365.5275 359.6604,-364.347 361.2223,-371.1705"/>
</g>
<!-- Node7 -->
<g id="node7" class="node">
<title>Node7</title>
<g id="a_node7"><a xlink:href="../../d8/dc7/classkdfinder_1_1TVector.html#ac9649c7577f12a7502ed523260f4ee90" target="_top" xlink:title="kdfinder::TVector::mag">
<polygon fill="none" stroke="#000000" points="544.5,-384.5 544.5,-404.5 676.5,-404.5 676.5,-384.5 544.5,-384.5"/>
<text text-anchor="middle" x="610.5" y="-391.5" font-family="FreeSans" font-size="10.00" fill="#000000">kdfinder::TVector::mag</text>
</a>
</g>
</g>
<!-- Node6&#45;&gt;Node7 -->
<g id="edge6" class="edge">
<title>Node6&#45;&gt;Node7</title>
<path fill="none" stroke="#191970" d="M455.6726,-394.5C478.4488,-394.5 507.3786,-394.5 534.0509,-394.5"/>
<polygon fill="#191970" stroke="#191970" points="534.1453,-398.0001 544.1453,-394.5 534.1453,-391.0001 534.1453,-398.0001"/>
</g>
<!-- Node10 -->
<g id="node10" class="node">
<title>Node10</title>
<g id="a_node10"><a xlink:href="../../d0/d2c/classTrkrClusterContainer.html#a9b6a31479d24147db018ac23460ac548" target="_top" xlink:title="return all clusters">
<polygon fill="none" stroke="#000000" points="353,-294.5 353,-326.5 475,-326.5 475,-294.5 353,-294.5"/>
<text text-anchor="start" x="361" y="-313.5" font-family="FreeSans" font-size="10.00" fill="#000000">TrkrClusterContainer</text>
<text text-anchor="middle" x="414" y="-301.5" font-family="FreeSans" font-size="10.00" fill="#000000">::getClusters</text>
</a>
</g>
</g>
<!-- Node9&#45;&gt;Node10 -->
<g id="edge9" class="edge">
<title>Node9&#45;&gt;Node10</title>
<path fill="none" stroke="#191970" d="M248.7389,-224.6565C268.8762,-241.7863 302.85,-268.6473 336,-285.5 339.5355,-287.2974 343.2264,-288.9998 346.997,-290.6067"/>
<polygon fill="#191970" stroke="#191970" points="345.9057,-293.9398 356.4904,-294.4039 348.5053,-287.4404 345.9057,-293.9398"/>
</g>
<!-- Node11 -->
<g id="node11" class="node">
<title>Node11</title>
<g id="a_node11"><a xlink:href="../../d6/d3f/namespaceTrkrDefs.html#aae37fbdb8f0f6f9b7b1e4173f4fcd331" target="_top" xlink:title="Get the upper 32 bits from cluster keys.">
<polygon fill="none" stroke="#000000" points="336,-243.5 336,-275.5 492,-275.5 492,-243.5 336,-243.5"/>
<text text-anchor="start" x="344" y="-262.5" font-family="FreeSans" font-size="10.00" fill="#000000">TrkrDefs::getHitSetKeyFrom</text>
<text text-anchor="middle" x="414" y="-250.5" font-family="FreeSans" font-size="10.00" fill="#000000">ClusKey</text>
</a>
</g>
</g>
<!-- Node9&#45;&gt;Node11 -->
<g id="edge10" class="edge">
<title>Node9&#45;&gt;Node11</title>
<path fill="none" stroke="#191970" d="M288.3087,-224.5667C306.7374,-229.6886 327.2928,-235.4015 346.3542,-240.6993"/>
<polygon fill="#191970" stroke="#191970" points="345.5947,-244.1208 356.1667,-243.4264 347.4692,-237.3764 345.5947,-244.1208"/>
</g>
<!-- Node12 -->
<g id="node12" class="node">
<title>Node12</title>
<g id="a_node12"><a xlink:href="../../d5/d76/classTrkrHitSetContainer.html#a0e347bd66bf03e9a34651410a79d5cab" target="_top" xlink:title="return all HitSets matching a given detid">
<polygon fill="none" stroke="#000000" points="355.5,-192.5 355.5,-224.5 472.5,-224.5 472.5,-192.5 355.5,-192.5"/>
<text text-anchor="start" x="363.5" y="-211.5" font-family="FreeSans" font-size="10.00" fill="#000000">TrkrHitSetContainer</text>
<text text-anchor="middle" x="414" y="-199.5" font-family="FreeSans" font-size="10.00" fill="#000000">::getHitSets</text>
</a>
</g>
</g>
<!-- Node9&#45;&gt;Node12 -->
<g id="edge11" class="edge">
<title>Node9&#45;&gt;Node12</title>
<path fill="none" stroke="#191970" d="M293.1371,-208.5C309.8172,-208.5 327.9296,-208.5 344.933,-208.5"/>
<polygon fill="#191970" stroke="#191970" points="345.3541,-212.0001 355.354,-208.5 345.354,-205.0001 345.3541,-212.0001"/>
</g>
<!-- Node13 -->
<g id="node13" class="node">
<title>Node13</title>
<g id="a_node13"><a xlink:href="../../d3/df0/classPHActsSiliconSeeding.html#abb69b023cb96d5e8c5e137c1dda851dc" target="_top" xlink:title="PHActsSiliconSeeding\l::getSurface">
<polygon fill="none" stroke="#000000" points="351.5,-141.5 351.5,-173.5 476.5,-173.5 476.5,-141.5 351.5,-141.5"/>
<text text-anchor="start" x="359.5" y="-160.5" font-family="FreeSans" font-size="10.00" fill="#000000">PHActsSiliconSeeding</text>
<text text-anchor="middle" x="414" y="-148.5" font-family="FreeSans" font-size="10.00" fill="#000000">::getSurface</text>
</a>
</g>
</g>
<!-- Node9&#45;&gt;Node13 -->
<g id="edge12" class="edge">
<title>Node9&#45;&gt;Node13</title>
<path fill="none" stroke="#191970" d="M288.3087,-192.4333C306.7374,-187.3114 327.2928,-181.5985 346.3542,-176.3007"/>
<polygon fill="#191970" stroke="#191970" points="347.4692,-179.6236 356.1667,-173.5736 345.5947,-172.8792 347.4692,-179.6236"/>
</g>
<!-- Node14 -->
<g id="node14" class="node">
<title>Node14</title>
<g id="a_node14"><a xlink:href="../../d3/df0/classPHActsSiliconSeeding.html#a7b6958881a5b50eacb592f85b6003239" target="_top" xlink:title="Create a seeding space point out of an Acts::SourceLink.">
<polygon fill="none" stroke="#000000" points="351.5,-90.5 351.5,-122.5 476.5,-122.5 476.5,-90.5 351.5,-90.5"/>
<text text-anchor="start" x="359.5" y="-109.5" font-family="FreeSans" font-size="10.00" fill="#000000">PHActsSiliconSeeding</text>
<text text-anchor="middle" x="414" y="-97.5" font-family="FreeSans" font-size="10.00" fill="#000000">::makeSpacePoint</text>
</a>
</g>
</g>
<!-- Node9&#45;&gt;Node14 -->
<g id="edge13" class="edge">
<title>Node9&#45;&gt;Node14</title>
<path fill="none" stroke="#191970" d="M249.1852,-192.3342C269.4307,-175.4903 303.2451,-149.2627 336,-132.5 340.225,-130.3378 344.6684,-128.2986 349.202,-126.3871"/>
<polygon fill="#191970" stroke="#191970" points="350.6003,-129.5976 358.5938,-122.6439 348.0086,-123.095 350.6003,-129.5976"/>
</g>
<!-- Node20 -->
<g id="node20" class="node">
<title>Node20</title>
<g id="a_node20"><a xlink:href="../../d5/dec/classFun4AllBase.html#a8a5c77a92bdac6bc043476e132379a40" target="_top" xlink:title="Gets the verbosity of this module.">
<polygon fill="none" stroke="#000000" points="544.5,-.5 544.5,-20.5 676.5,-20.5 676.5,-.5 544.5,-.5"/>
<text text-anchor="middle" x="610.5" y="-7.5" font-family="FreeSans" font-size="10.00" fill="#000000">Fun4AllBase::Verbosity</text>
</a>
</g>
</g>
<!-- Node9&#45;&gt;Node20 -->
<g id="edge20" class="edge">
<title>Node9&#45;&gt;Node20</title>
<path fill="none" stroke="#191970" d="M239.5329,-192.1092C255.3969,-164.8831 290.9033,-110.4723 336,-81.5 395.9703,-42.9721 475.9246,-25.3137 534.0673,-17.2425"/>
<polygon fill="#191970" stroke="#191970" points="534.8405,-20.6708 544.2953,-15.8899 533.9227,-13.7312 534.8405,-20.6708"/>
</g>
<!-- Node15 -->
<g id="node15" class="node">
<title>Node15</title>
<g id="a_node15"><a xlink:href="../../d2/dcb/classActsExamples_1_1TrkrClusterSourceLink.html#aefa9723f1ddd5299571de9de7e1004e3" target="_top" xlink:title="ActsExamples::TrkrCluster\lSourceLink::covariance">
<polygon fill="none" stroke="#000000" points="535.5,-231.5 535.5,-263.5 685.5,-263.5 685.5,-231.5 535.5,-231.5"/>
<text text-anchor="start" x="543.5" y="-250.5" font-family="FreeSans" font-size="10.00" fill="#000000">ActsExamples::TrkrCluster</text>
<text text-anchor="middle" x="610.5" y="-238.5" font-family="FreeSans" font-size="10.00" fill="#000000">SourceLink::covariance</text>
</a>
</g>
</g>
<!-- Node14&#45;&gt;Node15 -->
<g id="edge14" class="edge">
<title>Node14&#45;&gt;Node15</title>
<path fill="none" stroke="#191970" d="M476.8627,-121.8007C482.368,-124.7594 487.5342,-128.2892 492,-132.5 523.3448,-162.0551 496.2516,-193.3789 528,-222.5 529.289,-223.6824 530.6323,-224.8089 532.0222,-225.8822"/>
<polygon fill="#191970" stroke="#191970" points="530.1711,-228.8543 540.4391,-231.4657 534.0407,-223.021 530.1711,-228.8543"/>
</g>
<!-- Node16 -->
<g id="node16" class="node">
<title>Node16</title>
<g id="a_node16"><a xlink:href="../../d3/d07/classActs_1_1GeometryObject.html#abc805e37f184d25c4d25b5f99330125c" target="_top" xlink:title="Acts::GeometryObject\l::geometryId">
<polygon fill="none" stroke="#000000" points="546,-180.5 546,-212.5 675,-212.5 675,-180.5 546,-180.5"/>
<text text-anchor="start" x="554" y="-199.5" font-family="FreeSans" font-size="10.00" fill="#000000">Acts::GeometryObject</text>
<text text-anchor="middle" x="610.5" y="-187.5" font-family="FreeSans" font-size="10.00" fill="#000000">::geometryId</text>
</a>
</g>
</g>
<!-- Node14&#45;&gt;Node16 -->
<g id="edge15" class="edge">
<title>Node14&#45;&gt;Node16</title>
<path fill="none" stroke="#191970" d="M472.9973,-122.5626C479.6413,-125.4097 486.1249,-128.7047 492,-132.5 511.8142,-145.3001 508.0116,-158.9737 528,-171.5 530.79,-173.2484 533.7097,-174.8809 536.7163,-176.4046"/>
<polygon fill="#191970" stroke="#191970" points="535.4062,-179.6545 545.9536,-180.656 538.3328,-173.2957 535.4062,-179.6545"/>
</g>
<!-- Node17 -->
<g id="node17" class="node">
<title>Node17</title>
<g id="a_node17"><a xlink:href="../../de/d7d/classActs_1_1Surface.html#a75a7d22d900a0fee41505d364b2e4d2f" target="_top" xlink:title="Acts::Surface::localToGlobal">
<polygon fill="none" stroke="#000000" points="532,-141.5 532,-161.5 689,-161.5 689,-141.5 532,-141.5"/>
<text text-anchor="middle" x="610.5" y="-148.5" font-family="FreeSans" font-size="10.00" fill="#000000">Acts::Surface::localToGlobal</text>
</a>
</g>
</g>
<!-- Node14&#45;&gt;Node17 -->
<g id="edge16" class="edge">
<title>Node14&#45;&gt;Node17</title>
<path fill="none" stroke="#191970" d="M476.7141,-120.862C502.4793,-126.7624 532.0128,-133.5258 556.7658,-139.1945"/>
<polygon fill="#191970" stroke="#191970" points="556.1735,-142.6493 566.7024,-141.47 557.7361,-135.826 556.1735,-142.6493"/>
</g>
<!-- Node18 -->
<g id="node18" class="node">
<title>Node18</title>
<g id="a_node18"><a xlink:href="../../d2/dcb/classActsExamples_1_1TrkrClusterSourceLink.html#a9a0878108f01ce74e0fbd42528d23940" target="_top" xlink:title="ActsExamples::TrkrCluster\lSourceLink::location">
<polygon fill="none" stroke="#000000" points="535.5,-90.5 535.5,-122.5 685.5,-122.5 685.5,-90.5 535.5,-90.5"/>
<text text-anchor="start" x="543.5" y="-109.5" font-family="FreeSans" font-size="10.00" fill="#000000">ActsExamples::TrkrCluster</text>
<text text-anchor="middle" x="610.5" y="-97.5" font-family="FreeSans" font-size="10.00" fill="#000000">SourceLink::location</text>
</a>
</g>
</g>
<!-- Node14&#45;&gt;Node18 -->
<g id="edge17" class="edge">
<title>Node14&#45;&gt;Node18</title>
<path fill="none" stroke="#191970" d="M476.7141,-106.5C492.1544,-106.5 508.9479,-106.5 525.2549,-106.5"/>
<polygon fill="#191970" stroke="#191970" points="525.329,-110.0001 535.329,-106.5 525.329,-103.0001 525.329,-110.0001"/>
</g>
<!-- Node19 -->
<g id="node19" class="node">
<title>Node19</title>
<g id="a_node19"><a xlink:href="../../d2/dcb/classActsExamples_1_1TrkrClusterSourceLink.html#ade1fc9419aa94201928be6c8017ca917" target="_top" xlink:title="Needs referenceSurface function to satisfy SourceLinkConcept.">
<polygon fill="none" stroke="#000000" points="528,-39.5 528,-71.5 693,-71.5 693,-39.5 528,-39.5"/>
<text text-anchor="start" x="536" y="-58.5" font-family="FreeSans" font-size="10.00" fill="#000000">ActsExamples::TrkrCluster</text>
<text text-anchor="middle" x="610.5" y="-46.5" font-family="FreeSans" font-size="10.00" fill="#000000">SourceLink::referenceSurface</text>
</a>
</g>
</g>
<!-- Node14&#45;&gt;Node19 -->
<g id="edge18" class="edge">
<title>Node14&#45;&gt;Node19</title>
<path fill="none" stroke="#191970" d="M475.9041,-90.4333C495.8194,-85.2644 518.0541,-79.4936 538.6232,-74.155"/>
<polygon fill="#191970" stroke="#191970" points="539.7695,-77.4736 548.5696,-71.5736 538.011,-70.6981 539.7695,-77.4736"/>
</g>
<!-- Node14&#45;&gt;Node20 -->
<g id="edge19" class="edge">
<title>Node14&#45;&gt;Node20</title>
<path fill="none" stroke="#191970" d="M435.7312,-90.411C463.1279,-70.3806 508.9453,-37.7864 528,-29.5 533.2671,-27.2095 538.8486,-25.1755 544.5258,-23.3731"/>
<polygon fill="#191970" stroke="#191970" points="545.5219,-26.7285 554.1316,-20.5541 543.5507,-20.0117 545.5219,-26.7285"/>
</g>
</g>
</svg>
