<?xml version="1.0" encoding="UTF-8" standalone="no"?>
<!DOCTYPE svg PUBLIC "-//W3C//DTD SVG 1.1//EN"
 "http://www.w3.org/Graphics/SVG/1.1/DTD/svg11.dtd">
<!-- Generated by graphviz version 2.40.1 (20161225.0304)
 -->
<!-- Title: acts/blob/sPHENIX/Plugins/ActSVG/src/LayerSvgConverter.cpp Pages: 1 -->
<svg width="3324pt" height="614pt"
 viewBox="0.00 0.00 3323.89 614.00" xmlns="http://www.w3.org/2000/svg" xmlns:xlink="http://www.w3.org/1999/xlink">
<g id="graph0" class="graph" transform="scale(1 1) rotate(0) translate(4 610)">
<title>acts/blob/sPHENIX/Plugins/ActSVG/src/LayerSvgConverter.cpp</title>
<!-- Node1 -->
<g id="node1" class="node">
<title>Node1</title>
<polygon fill="#bfbfbf" stroke="#000000" points="2522.5,-573.5 2522.5,-605.5 2719.5,-605.5 2719.5,-573.5 2522.5,-573.5"/>
<text text-anchor="start" x="2530.5" y="-592.5" font-family="FreeSans" font-size="10.00" fill="#000000">acts/blob/sPHENIX/Plugins</text>
<text text-anchor="middle" x="2621" y="-580.5" font-family="FreeSans" font-size="10.00" fill="#000000">/ActSVG/src/LayerSvgConverter.cpp</text>
</g>
<!-- Node2 -->
<g id="node2" class="node">
<title>Node2</title>
<g id="a_node2"><a xlink:href="../../d7/d32/LayerSvgConverter_8hpp.html" target="_top" xlink:title="Acts/Plugins/ActSVG\l/LayerSvgConverter.hpp">
<polygon fill="none" stroke="#000000" points="2677.5,-252.5 2677.5,-284.5 2816.5,-284.5 2816.5,-252.5 2677.5,-252.5"/>
<text text-anchor="start" x="2685.5" y="-271.5" font-family="FreeSans" font-size="10.00" fill="#000000">Acts/Plugins/ActSVG</text>
<text text-anchor="middle" x="2747" y="-259.5" font-family="FreeSans" font-size="10.00" fill="#000000">/LayerSvgConverter.hpp</text>
</a>
</g>
</g>
<!-- Node1&#45;&gt;Node2 -->
<g id="edge1" class="edge">
<title>Node1&#45;&gt;Node2</title>
<path fill="none" stroke="#191970" d="M2633.6501,-573.4388C2650.4428,-550.4584 2678,-506.2364 2678,-463.5 2678,-463.5 2678,-463.5 2678,-394.5 2678,-355.2347 2704.0967,-316.6101 2724.1917,-292.6888"/>
<polygon fill="#191970" stroke="#191970" points="2727.0755,-294.7064 2730.9966,-284.8638 2721.7934,-290.1129 2727.0755,-294.7064"/>
</g>
<!-- Node27 -->
<g id="node27" class="node">
<title>Node27</title>
<g id="a_node27"><a xlink:href="../../d2/d3b/Layer_8hpp.html" target="_top" xlink:title="Acts/Geometry/Layer.hpp">
<polygon fill="none" stroke="#000000" points="1493.5,-516.5 1493.5,-536.5 1638.5,-536.5 1638.5,-516.5 1493.5,-516.5"/>
<text text-anchor="middle" x="1566" y="-523.5" font-family="FreeSans" font-size="10.00" fill="#000000">Acts/Geometry/Layer.hpp</text>
</a>
</g>
</g>
<!-- Node1&#45;&gt;Node27 -->
<g id="edge29" class="edge">
<title>Node1&#45;&gt;Node27</title>
<path fill="none" stroke="#191970" d="M2522.2223,-583.6014C2315.5185,-571.258 1840.6618,-542.9016 1648.7369,-531.4407"/>
<polygon fill="#191970" stroke="#191970" points="1648.9005,-527.9443 1638.7096,-530.8419 1648.4832,-534.9319 1648.9005,-527.9443"/>
</g>
<!-- Node43 -->
<g id="node43" class="node">
<title>Node43</title>
<polygon fill="none" stroke="#bfbfbf" points="1799,-120.5 1799,-140.5 1855,-140.5 1855,-120.5 1799,-120.5"/>
<text text-anchor="middle" x="1827" y="-127.5" font-family="FreeSans" font-size="10.00" fill="#000000">sstream</text>
</g>
<!-- Node1&#45;&gt;Node43 -->
<g id="edge141" class="edge">
<title>Node1&#45;&gt;Node43</title>
<path fill="none" stroke="#191970" d="M2522.3342,-577.5159C2406.5037,-560.6294 2230,-524.8348 2230,-463.5 2230,-463.5 2230,-463.5 2230,-331.5 2230,-243.4896 2176.2905,-225.0952 2099,-183 2004.6636,-131.621 1962.4117,-179.419 1860,-147 1858.0764,-146.3911 1856.1265,-145.6822 1854.186,-144.9071"/>
<polygon fill="#191970" stroke="#191970" points="1855.2804,-141.5611 1844.7259,-140.6373 1852.4006,-147.9414 1855.2804,-141.5611"/>
</g>
<!-- Node48 -->
<g id="node48" class="node">
<title>Node48</title>
<g id="a_node48"><a xlink:href="../../d1/d65/SurfaceArraySvgConverter_8hpp.html" target="_top" xlink:title="Acts/Plugins/ActSVG\l/SurfaceArraySvgConverter.hpp">
<polygon fill="none" stroke="#000000" points="2482.5,-252.5 2482.5,-284.5 2659.5,-284.5 2659.5,-252.5 2482.5,-252.5"/>
<text text-anchor="start" x="2490.5" y="-271.5" font-family="FreeSans" font-size="10.00" fill="#000000">Acts/Plugins/ActSVG</text>
<text text-anchor="middle" x="2571" y="-259.5" font-family="FreeSans" font-size="10.00" fill="#000000">/SurfaceArraySvgConverter.hpp</text>
</a>
</g>
</g>
<!-- Node1&#45;&gt;Node48 -->
<g id="edge126" class="edge">
<title>Node1&#45;&gt;Node48</title>
<path fill="none" stroke="#191970" d="M2625.0294,-573.3073C2630.6067,-549.4357 2640,-503.3202 2640,-463.5 2640,-463.5 2640,-463.5 2640,-394.5 2640,-360.1359 2632.8393,-350.9554 2616,-321 2610.2351,-310.7448 2602.2894,-300.6476 2594.6774,-292.0903"/>
<polygon fill="#191970" stroke="#191970" points="2597.2098,-289.6736 2587.8527,-284.7041 2592.0684,-294.4241 2597.2098,-289.6736"/>
</g>
<!-- Node49 -->
<g id="node49" class="node">
<title>Node49</title>
<g id="a_node49"><a xlink:href="../../dd/d76/SurfaceSvgConverter_8hpp.html" target="_top" xlink:title="Acts/Plugins/ActSVG\l/SurfaceSvgConverter.hpp">
<polygon fill="none" stroke="#000000" points="2315,-252.5 2315,-284.5 2465,-284.5 2465,-252.5 2315,-252.5"/>
<text text-anchor="start" x="2323" y="-271.5" font-family="FreeSans" font-size="10.00" fill="#000000">Acts/Plugins/ActSVG</text>
<text text-anchor="middle" x="2390" y="-259.5" font-family="FreeSans" font-size="10.00" fill="#000000">/SurfaceSvgConverter.hpp</text>
</a>
</g>
</g>
<!-- Node1&#45;&gt;Node49 -->
<g id="edge134" class="edge">
<title>Node1&#45;&gt;Node49</title>
<path fill="none" stroke="#191970" d="M2616.9706,-573.3073C2611.3933,-549.4357 2602,-503.3202 2602,-463.5 2602,-463.5 2602,-463.5 2602,-394.5 2602,-357.5931 2505.8543,-313.2519 2443.059,-288.2275"/>
<polygon fill="#191970" stroke="#191970" points="2444.2565,-284.9375 2433.6695,-284.5299 2441.6916,-291.4506 2444.2565,-284.9375"/>
</g>
<!-- Node50 -->
<g id="node50" class="node">
<title>Node50</title>
<polygon fill="none" stroke="#bfbfbf" points="2706,-516.5 2706,-536.5 2738,-536.5 2738,-516.5 2706,-516.5"/>
<text text-anchor="middle" x="2722" y="-523.5" font-family="FreeSans" font-size="10.00" fill="#000000">set</text>
</g>
<!-- Node1&#45;&gt;Node50 -->
<g id="edge140" class="edge">
<title>Node1&#45;&gt;Node50</title>
<path fill="none" stroke="#191970" d="M2646.7479,-573.4394C2662.139,-563.839 2681.6053,-551.6967 2696.8831,-542.167"/>
<polygon fill="#191970" stroke="#191970" points="2699.1481,-544.8793 2705.7805,-536.6171 2695.4434,-538.94 2699.1481,-544.8793"/>
</g>
<!-- Node3 -->
<g id="node3" class="node">
<title>Node3</title>
<g id="a_node3"><a xlink:href="../../d1/db8/GeometryContext_8hpp.html" target="_top" xlink:title="Acts/Geometry/GeometryContext.hpp">
<polygon fill="none" stroke="#000000" points="1728,-189.5 1728,-209.5 1936,-209.5 1936,-189.5 1728,-189.5"/>
<text text-anchor="middle" x="1832" y="-196.5" font-family="FreeSans" font-size="10.00" fill="#000000">Acts/Geometry/GeometryContext.hpp</text>
</a>
</g>
</g>
<!-- Node2&#45;&gt;Node3 -->
<g id="edge2" class="edge">
<title>Node2&#45;&gt;Node3</title>
<path fill="none" stroke="#191970" d="M2677.347,-253.2402C2674.5332,-252.7905 2671.7429,-252.3741 2669,-252 2532.6976,-233.4097 2141.5733,-213.6591 1946.0818,-204.5902"/>
<polygon fill="#191970" stroke="#191970" points="1946.2156,-201.0927 1936.0646,-204.1269 1945.8922,-208.0853 1946.2156,-201.0927"/>
</g>
<!-- Node5 -->
<g id="node5" class="node">
<title>Node5</title>
<g id="a_node5"><a xlink:href="../../d9/ddf/GeometryHierarchyMap_8hpp.html" target="_top" xlink:title="Acts/Geometry/GeometryHierarchy\lMap.hpp">
<polygon fill="none" stroke="#000000" points="2706.5,-183.5 2706.5,-215.5 2901.5,-215.5 2901.5,-183.5 2706.5,-183.5"/>
<text text-anchor="start" x="2714.5" y="-202.5" font-family="FreeSans" font-size="10.00" fill="#000000">Acts/Geometry/GeometryHierarchy</text>
<text text-anchor="middle" x="2804" y="-190.5" font-family="FreeSans" font-size="10.00" fill="#000000">Map.hpp</text>
</a>
</g>
</g>
<!-- Node2&#45;&gt;Node5 -->
<g id="edge4" class="edge">
<title>Node2&#45;&gt;Node5</title>
<path fill="none" stroke="#191970" d="M2760.2202,-252.4966C2767.2407,-243.9981 2776.0173,-233.3738 2783.8654,-223.8735"/>
<polygon fill="#191970" stroke="#191970" points="2786.7852,-225.8345 2790.4557,-215.8958 2781.3884,-221.3763 2786.7852,-225.8345"/>
</g>
<!-- Node17 -->
<g id="node17" class="node">
<title>Node17</title>
<g id="a_node17"><a xlink:href="../../d9/dcc/SvgUtils_8hpp.html" target="_top" xlink:title="Acts/Plugins/ActSVG\l/SvgUtils.hpp">
<polygon fill="none" stroke="#000000" points="2454.5,-183.5 2454.5,-215.5 2573.5,-215.5 2573.5,-183.5 2454.5,-183.5"/>
<text text-anchor="start" x="2462.5" y="-202.5" font-family="FreeSans" font-size="10.00" fill="#000000">Acts/Plugins/ActSVG</text>
<text text-anchor="middle" x="2514" y="-190.5" font-family="FreeSans" font-size="10.00" fill="#000000">/SvgUtils.hpp</text>
</a>
</g>
</g>
<!-- Node2&#45;&gt;Node17 -->
<g id="edge17" class="edge">
<title>Node2&#45;&gt;Node17</title>
<path fill="none" stroke="#191970" d="M2692.9595,-252.4966C2658.6755,-242.3438 2614.1455,-229.1568 2578.0822,-218.4771"/>
<polygon fill="#191970" stroke="#191970" points="2578.7328,-215.0196 2568.1506,-215.536 2576.7451,-221.7315 2578.7328,-215.0196"/>
</g>
<!-- Node21 -->
<g id="node21" class="node">
<title>Node21</title>
<polygon fill="none" stroke="#bfbfbf" points="3138,-120.5 3138,-140.5 3240,-140.5 3240,-120.5 3138,-120.5"/>
<text text-anchor="middle" x="3189" y="-127.5" font-family="FreeSans" font-size="10.00" fill="#000000">actsvg/meta.hpp</text>
</g>
<!-- Node2&#45;&gt;Node21 -->
<g id="edge28" class="edge">
<title>Node2&#45;&gt;Node21</title>
<path fill="none" stroke="#191970" d="M2816.5303,-260.5647C2872.539,-252.8888 2952.7467,-238.9743 3020,-216 3073.8087,-197.6185 3132.0374,-165.0562 3164.1612,-145.8592"/>
<polygon fill="#191970" stroke="#191970" points="3166.1319,-148.7579 3172.8818,-140.5915 3162.5125,-142.7661 3166.1319,-148.7579"/>
</g>
<!-- Node26 -->
<g id="node26" class="node">
<title>Node26</title>
<polygon fill="none" stroke="#bfbfbf" points="2591.5,-189.5 2591.5,-209.5 2688.5,-209.5 2688.5,-189.5 2591.5,-189.5"/>
<text text-anchor="middle" x="2640" y="-196.5" font-family="FreeSans" font-size="10.00" fill="#000000">actsvg/core.hpp</text>
</g>
<!-- Node2&#45;&gt;Node26 -->
<g id="edge27" class="edge">
<title>Node2&#45;&gt;Node26</title>
<path fill="none" stroke="#191970" d="M2722.1831,-252.4966C2704.7292,-241.2412 2681.4925,-226.2569 2664.1813,-215.0935"/>
<polygon fill="#191970" stroke="#191970" points="2666.0317,-212.1222 2655.7307,-209.6441 2662.238,-218.0051 2666.0317,-212.1222"/>
</g>
<!-- Node4 -->
<g id="node4" class="node">
<title>Node4</title>
<g id="a_node4"><a xlink:href="../../d2/d59/ContextType_8hpp.html" target="_top" xlink:title="Acts/Utilities/detail\l/ContextType.hpp">
<polygon fill="none" stroke="#ff0000" points="1555.5,-114.5 1555.5,-146.5 1666.5,-146.5 1666.5,-114.5 1555.5,-114.5"/>
<text text-anchor="start" x="1563.5" y="-133.5" font-family="FreeSans" font-size="10.00" fill="#000000">Acts/Utilities/detail</text>
<text text-anchor="middle" x="1611" y="-121.5" font-family="FreeSans" font-size="10.00" fill="#000000">/ContextType.hpp</text>
</a>
</g>
</g>
<!-- Node3&#45;&gt;Node4 -->
<g id="edge3" class="edge">
<title>Node3&#45;&gt;Node4</title>
<path fill="none" stroke="#191970" d="M1799.8647,-189.4668C1766.505,-179.0513 1713.513,-162.5063 1672.1404,-149.5891"/>
<polygon fill="#191970" stroke="#191970" points="1673.0189,-146.1968 1662.4302,-146.5574 1670.9327,-152.8787 1673.0189,-146.1968"/>
</g>
<!-- Node6 -->
<g id="node6" class="node">
<title>Node6</title>
<g id="a_node6"><a xlink:href="../../d5/d67/GeometryIdentifier_8hpp.html" target="_top" xlink:title="Acts/Geometry/GeometryIdentifier.hpp">
<polygon fill="none" stroke="#000000" points="2347.5,-120.5 2347.5,-140.5 2560.5,-140.5 2560.5,-120.5 2347.5,-120.5"/>
<text text-anchor="middle" x="2454" y="-127.5" font-family="FreeSans" font-size="10.00" fill="#000000">Acts/Geometry/GeometryIdentifier.hpp</text>
</a>
</g>
</g>
<!-- Node5&#45;&gt;Node6 -->
<g id="edge5" class="edge">
<title>Node5&#45;&gt;Node6</title>
<path fill="none" stroke="#191970" d="M2722.8232,-183.4966C2659.3859,-170.9904 2572.5953,-153.8802 2514.9891,-142.5236"/>
<polygon fill="#191970" stroke="#191970" points="2515.428,-139.0428 2504.9398,-140.5424 2514.074,-145.9106 2515.428,-139.0428"/>
</g>
<!-- Node10 -->
<g id="node10" class="node">
<title>Node10</title>
<polygon fill="none" stroke="#bfbfbf" points="2665.5,-57.5 2665.5,-77.5 2710.5,-77.5 2710.5,-57.5 2665.5,-57.5"/>
<text text-anchor="middle" x="2688" y="-64.5" font-family="FreeSans" font-size="10.00" fill="#000000">utility</text>
</g>
<!-- Node5&#45;&gt;Node10 -->
<g id="edge15" class="edge">
<title>Node5&#45;&gt;Node10</title>
<path fill="none" stroke="#191970" d="M2901.7017,-185.2165C2959.3007,-172.6926 3015.3104,-150.6131 2984,-114 2967.0019,-94.1232 2794.0368,-76.7791 2720.6451,-70.2552"/>
<polygon fill="#191970" stroke="#191970" points="2720.8372,-66.7587 2710.5698,-69.3721 2720.226,-73.732 2720.8372,-66.7587"/>
</g>
<!-- Node11 -->
<g id="node11" class="node">
<title>Node11</title>
<polygon fill="none" stroke="#bfbfbf" points="2176.5,-57.5 2176.5,-77.5 2241.5,-77.5 2241.5,-57.5 2176.5,-57.5"/>
<text text-anchor="middle" x="2209" y="-64.5" font-family="FreeSans" font-size="10.00" fill="#000000">algorithm</text>
</g>
<!-- Node5&#45;&gt;Node11 -->
<g id="edge10" class="edge">
<title>Node5&#45;&gt;Node11</title>
<path fill="none" stroke="#191970" d="M2873.5945,-183.3827C2922.8345,-168.8868 2975.3104,-145.0972 2946,-114 2899.5831,-64.7534 2405.5073,-82.7454 2338,-78 2309.2673,-75.9803 2276.9648,-73.3505 2251.8718,-71.2281"/>
<polygon fill="#191970" stroke="#191970" points="2251.8514,-67.7138 2241.5905,-70.3528 2251.2575,-74.6885 2251.8514,-67.7138"/>
</g>
<!-- Node12 -->
<g id="node12" class="node">
<title>Node12</title>
<polygon fill="none" stroke="#bfbfbf" points="2777.5,-120.5 2777.5,-140.5 2830.5,-140.5 2830.5,-120.5 2777.5,-120.5"/>
<text text-anchor="middle" x="2804" y="-127.5" font-family="FreeSans" font-size="10.00" fill="#000000">cassert</text>
</g>
<!-- Node5&#45;&gt;Node12 -->
<g id="edge11" class="edge">
<title>Node5&#45;&gt;Node12</title>
<path fill="none" stroke="#191970" d="M2804,-183.4966C2804,-173.7901 2804,-161.3104 2804,-150.8996"/>
<polygon fill="#191970" stroke="#191970" points="2807.5001,-150.6441 2804,-140.6441 2800.5001,-150.6441 2807.5001,-150.6441"/>
</g>
<!-- Node13 -->
<g id="node13" class="node">
<title>Node13</title>
<polygon fill="none" stroke="#bfbfbf" points="3036.5,-120.5 3036.5,-140.5 3119.5,-140.5 3119.5,-120.5 3036.5,-120.5"/>
<text text-anchor="middle" x="3078" y="-127.5" font-family="FreeSans" font-size="10.00" fill="#000000">initializer_list</text>
</g>
<!-- Node5&#45;&gt;Node13 -->
<g id="edge12" class="edge">
<title>Node5&#45;&gt;Node13</title>
<path fill="none" stroke="#191970" d="M2874.4234,-183.486C2917.2323,-173.5168 2972.9235,-160.1306 3022,-147 3026.3019,-145.849 3030.7768,-144.607 3035.2385,-143.3393"/>
<polygon fill="#191970" stroke="#191970" points="3036.2749,-146.6831 3044.9126,-140.5479 3034.3343,-139.9575 3036.2749,-146.6831"/>
</g>
<!-- Node14 -->
<g id="node14" class="node">
<title>Node14</title>
<polygon fill="none" stroke="#bfbfbf" points="2237,-120.5 2237,-140.5 2291,-140.5 2291,-120.5 2237,-120.5"/>
<text text-anchor="middle" x="2264" y="-127.5" font-family="FreeSans" font-size="10.00" fill="#000000">iterator</text>
</g>
<!-- Node5&#45;&gt;Node14 -->
<g id="edge13" class="edge">
<title>Node5&#45;&gt;Node14</title>
<path fill="none" stroke="#191970" d="M2706.4167,-184.1054C2703.5814,-183.7238 2700.7711,-183.3543 2698,-183 2538.9394,-162.6604 2497.3521,-172.2701 2339,-147 2326.6788,-145.0338 2313.343,-142.3 2301.3811,-139.6227"/>
<polygon fill="#191970" stroke="#191970" points="2301.8123,-136.1308 2291.2828,-137.3052 2300.2465,-142.9534 2301.8123,-136.1308"/>
</g>
<!-- Node15 -->
<g id="node15" class="node">
<title>Node15</title>
<polygon fill="none" stroke="#bfbfbf" points="2655,-120.5 2655,-140.5 2721,-140.5 2721,-120.5 2655,-120.5"/>
<text text-anchor="middle" x="2688" y="-127.5" font-family="FreeSans" font-size="10.00" fill="#000000">stdexcept</text>
</g>
<!-- Node5&#45;&gt;Node15 -->
<g id="edge14" class="edge">
<title>Node5&#45;&gt;Node15</title>
<path fill="none" stroke="#191970" d="M2777.0957,-183.4966C2758.0001,-172.138 2732.5198,-156.9816 2713.7003,-145.7872"/>
<polygon fill="#191970" stroke="#191970" points="2715.4377,-142.7483 2705.0539,-140.6441 2711.8591,-148.7645 2715.4377,-142.7483"/>
</g>
<!-- Node16 -->
<g id="node16" class="node">
<title>Node16</title>
<polygon fill="none" stroke="#bfbfbf" points="1605.5,-57.5 1605.5,-77.5 1654.5,-77.5 1654.5,-57.5 1605.5,-57.5"/>
<text text-anchor="middle" x="1630" y="-64.5" font-family="FreeSans" font-size="10.00" fill="#000000">vector</text>
</g>
<!-- Node5&#45;&gt;Node16 -->
<g id="edge16" class="edge">
<title>Node5&#45;&gt;Node16</title>
<path fill="none" stroke="#191970" d="M2851.6715,-183.3769C2891.9774,-167.3449 2939.2956,-141.2659 2913,-114 2890.6978,-90.8749 1867.331,-71.6772 1664.664,-68.0985"/>
<polygon fill="#191970" stroke="#191970" points="1664.6438,-64.5977 1654.5839,-67.9214 1664.5208,-71.5966 1664.6438,-64.5977"/>
</g>
<!-- Node7 -->
<g id="node7" class="node">
<title>Node7</title>
<polygon fill="none" stroke="#bfbfbf" points="2346.5,-57.5 2346.5,-77.5 2397.5,-77.5 2397.5,-57.5 2346.5,-57.5"/>
<text text-anchor="middle" x="2372" y="-64.5" font-family="FreeSans" font-size="10.00" fill="#000000">cstdint</text>
</g>
<!-- Node6&#45;&gt;Node7 -->
<g id="edge6" class="edge">
<title>Node6&#45;&gt;Node7</title>
<path fill="none" stroke="#191970" d="M2440.8253,-120.378C2428.0337,-110.5503 2408.4003,-95.4661 2393.3719,-83.9198"/>
<polygon fill="#191970" stroke="#191970" points="2395.2042,-80.9139 2385.142,-77.5969 2390.9395,-86.4648 2395.2042,-80.9139"/>
</g>
<!-- Node8 -->
<g id="node8" class="node">
<title>Node8</title>
<polygon fill="none" stroke="#bfbfbf" points="2470,-57.5 2470,-77.5 2536,-77.5 2536,-57.5 2470,-57.5"/>
<text text-anchor="middle" x="2503" y="-64.5" font-family="FreeSans" font-size="10.00" fill="#000000">functional</text>
</g>
<!-- Node6&#45;&gt;Node8 -->
<g id="edge7" class="edge">
<title>Node6&#45;&gt;Node8</title>
<path fill="none" stroke="#191970" d="M2461.8727,-120.378C2469.1162,-111.0649 2480.031,-97.0316 2488.7965,-85.7617"/>
<polygon fill="#191970" stroke="#191970" points="2491.6074,-87.8486 2494.9841,-77.8062 2486.0819,-83.551 2491.6074,-87.8486"/>
</g>
<!-- Node9 -->
<g id="node9" class="node">
<title>Node9</title>
<polygon fill="none" stroke="#bfbfbf" points="1491,-57.5 1491,-77.5 1539,-77.5 1539,-57.5 1491,-57.5"/>
<text text-anchor="middle" x="1515" y="-64.5" font-family="FreeSans" font-size="10.00" fill="#000000">iosfwd</text>
</g>
<!-- Node6&#45;&gt;Node9 -->
<g id="edge8" class="edge">
<title>Node6&#45;&gt;Node9</title>
<path fill="none" stroke="#191970" d="M2368.5488,-120.4891C2346.2584,-118.1123 2322.2485,-115.7594 2300,-114 1987.6773,-89.3021 1908.0297,-106.1592 1596,-78 1580.5444,-76.6052 1563.5005,-74.4841 1549.0506,-72.5125"/>
<polygon fill="#191970" stroke="#191970" points="1549.4352,-69.0323 1539.0472,-71.1159 1548.4672,-75.9651 1549.4352,-69.0323"/>
</g>
<!-- Node6&#45;&gt;Node10 -->
<g id="edge9" class="edge">
<title>Node6&#45;&gt;Node10</title>
<path fill="none" stroke="#191970" d="M2491.3367,-120.4478C2536.7299,-108.2266 2612.5904,-87.8026 2655.6191,-76.2179"/>
<polygon fill="#191970" stroke="#191970" points="2656.556,-79.5904 2665.3022,-73.6109 2654.7361,-72.8311 2656.556,-79.5904"/>
</g>
<!-- Node17&#45;&gt;Node16 -->
<g id="edge26" class="edge">
<title>Node17&#45;&gt;Node16</title>
<path fill="none" stroke="#191970" d="M2454.4864,-190.2479C2437.5472,-187.7461 2419.0637,-185.1411 2402,-183 2248.1564,-163.6964 2199.3637,-203.5652 2055,-147 2032.2403,-138.0822 2033.6782,-123.1231 2011,-114 1948.4326,-88.8301 1746.6188,-74.3924 1664.87,-69.4509"/>
<polygon fill="#191970" stroke="#191970" points="1664.7981,-65.9406 1654.6085,-68.8426 1664.3838,-72.9283 1664.7981,-65.9406"/>
</g>
<!-- Node18 -->
<g id="node18" class="node">
<title>Node18</title>
<g id="a_node18"><a xlink:href="../../da/dd2/Algebra_8hpp.html" target="_top" xlink:title="Acts/Definitions/Algebra.hpp">
<polygon fill="none" stroke="#000000" points="522,-57.5 522,-77.5 684,-77.5 684,-57.5 522,-57.5"/>
<text text-anchor="middle" x="603" y="-64.5" font-family="FreeSans" font-size="10.00" fill="#000000">Acts/Definitions/Algebra.hpp</text>
</a>
</g>
</g>
<!-- Node17&#45;&gt;Node18 -->
<g id="edge18" class="edge">
<title>Node17&#45;&gt;Node18</title>
<path fill="none" stroke="#191970" d="M2454.4359,-192.2577C2428.2504,-189.1938 2397.1191,-185.7139 2369,-183 2167.5251,-163.5545 2106.7038,-211.9609 1915,-147 1889.4302,-138.3354 1889.7472,-122.1223 1864,-114 1808.4728,-96.4832 975.3146,-75.987 694.5622,-69.544"/>
<polygon fill="#191970" stroke="#191970" points="694.4867,-66.0414 684.4092,-69.3116 694.3265,-73.0396 694.4867,-66.0414"/>
</g>
<!-- Node17&#45;&gt;Node21 -->
<g id="edge21" class="edge">
<title>Node17&#45;&gt;Node21</title>
<path fill="none" stroke="#191970" d="M2573.7176,-184.5674C2576.8476,-183.9893 2579.9555,-183.461 2583,-183 2823.4526,-146.5901 2889.1939,-187.4494 3129,-147 3134.9373,-145.9985 3141.1333,-144.651 3147.1939,-143.1557"/>
<polygon fill="#191970" stroke="#191970" points="3148.41,-146.4552 3157.1961,-140.5344 3146.6354,-139.6839 3148.41,-146.4552"/>
</g>
<!-- Node22 -->
<g id="node22" class="node">
<title>Node22</title>
<polygon fill="none" stroke="#bfbfbf" points="1219.5,-120.5 1219.5,-140.5 1262.5,-140.5 1262.5,-120.5 1219.5,-120.5"/>
<text text-anchor="middle" x="1241" y="-127.5" font-family="FreeSans" font-size="10.00" fill="#000000">array</text>
</g>
<!-- Node17&#45;&gt;Node22 -->
<g id="edge22" class="edge">
<title>Node17&#45;&gt;Node22</title>
<path fill="none" stroke="#191970" d="M2454.4776,-191.7814C2428.2997,-188.6313 2397.1627,-185.2156 2369,-183 2004.0002,-154.2848 1911.6902,-164.8892 1546,-147 1446.4415,-142.1297 1328.6514,-135.5159 1273.0776,-132.3446"/>
<polygon fill="#191970" stroke="#191970" points="1272.9998,-128.8345 1262.8162,-131.7578 1272.6001,-135.8231 1272.9998,-128.8345"/>
</g>
<!-- Node23 -->
<g id="node23" class="node">
<title>Node23</title>
<polygon fill="none" stroke="#bfbfbf" points="2848.5,-120.5 2848.5,-140.5 2903.5,-140.5 2903.5,-120.5 2848.5,-120.5"/>
<text text-anchor="middle" x="2876" y="-127.5" font-family="FreeSans" font-size="10.00" fill="#000000">fstream</text>
</g>
<!-- Node17&#45;&gt;Node23 -->
<g id="edge23" class="edge">
<title>Node17&#45;&gt;Node23</title>
<path fill="none" stroke="#191970" d="M2573.7639,-184.8393C2576.8817,-184.1902 2579.9744,-183.5723 2583,-183 2696.3278,-161.5633 2729.2979,-179.369 2840,-147 2842.4251,-146.2909 2844.8958,-145.4454 2847.3491,-144.5172"/>
<polygon fill="#191970" stroke="#191970" points="2848.7227,-147.7365 2856.591,-140.6414 2846.0155,-141.2812 2848.7227,-147.7365"/>
</g>
<!-- Node24 -->
<g id="node24" class="node">
<title>Node24</title>
<polygon fill="none" stroke="#bfbfbf" points="1300.5,-57.5 1300.5,-77.5 1345.5,-77.5 1345.5,-57.5 1300.5,-57.5"/>
<text text-anchor="middle" x="1323" y="-64.5" font-family="FreeSans" font-size="10.00" fill="#000000">string</text>
</g>
<!-- Node17&#45;&gt;Node24 -->
<g id="edge24" class="edge">
<title>Node17&#45;&gt;Node24</title>
<path fill="none" stroke="#191970" d="M2454.4086,-192.5262C2428.2182,-189.511 2397.0905,-185.9949 2369,-183 2208.2286,-165.8594 2164.4636,-183.6941 2007,-147 1966.3193,-137.5201 1959.7792,-123.047 1919,-114 1891.3377,-107.8631 1477.0613,-78.3514 1355.9907,-69.8166"/>
<polygon fill="#191970" stroke="#191970" points="1356.0697,-66.3135 1345.8485,-69.1023 1355.5779,-73.2962 1356.0697,-66.3135"/>
</g>
<!-- Node25 -->
<g id="node25" class="node">
<title>Node25</title>
<polygon fill="none" stroke="#bfbfbf" points="3258,-120.5 3258,-140.5 3300,-140.5 3300,-120.5 3258,-120.5"/>
<text text-anchor="middle" x="3279" y="-127.5" font-family="FreeSans" font-size="10.00" fill="#000000">tuple</text>
</g>
<!-- Node17&#45;&gt;Node25 -->
<g id="edge25" class="edge">
<title>Node17&#45;&gt;Node25</title>
<path fill="none" stroke="#191970" d="M2573.7111,-184.5234C2576.8427,-183.9568 2579.9528,-183.443 2583,-183 2729.6743,-161.6775 3106.4917,-187.7356 3249,-147 3250.886,-146.4609 3252.7843,-145.7866 3254.6604,-145.0209"/>
<polygon fill="#191970" stroke="#191970" points="3256.2286,-148.1503 3263.6956,-140.6339 3253.1711,-141.8533 3256.2286,-148.1503"/>
</g>
<!-- Node19 -->
<g id="node19" class="node">
<title>Node19</title>
<polygon fill="none" stroke="#bfbfbf" points="516.5,-.5 516.5,-20.5 587.5,-20.5 587.5,-.5 516.5,-.5"/>
<text text-anchor="middle" x="552" y="-7.5" font-family="FreeSans" font-size="10.00" fill="#000000">Eigen/Core</text>
</g>
<!-- Node18&#45;&gt;Node19 -->
<g id="edge19" class="edge">
<title>Node18&#45;&gt;Node19</title>
<path fill="none" stroke="#191970" d="M593.8822,-57.3095C586.6299,-49.204 576.3117,-37.672 567.7318,-28.0826"/>
<polygon fill="#191970" stroke="#191970" points="570.3152,-25.7209 561.0388,-20.6022 565.0985,-30.3885 570.3152,-25.7209"/>
</g>
<!-- Node20 -->
<g id="node20" class="node">
<title>Node20</title>
<polygon fill="none" stroke="#bfbfbf" points="606,-.5 606,-20.5 704,-20.5 704,-.5 606,-.5"/>
<text text-anchor="middle" x="655" y="-7.5" font-family="FreeSans" font-size="10.00" fill="#000000">Eigen/Geometry</text>
</g>
<!-- Node18&#45;&gt;Node20 -->
<g id="edge20" class="edge">
<title>Node18&#45;&gt;Node20</title>
<path fill="none" stroke="#191970" d="M612.2966,-57.3095C619.6911,-49.204 630.2116,-37.672 638.9598,-28.0826"/>
<polygon fill="#191970" stroke="#191970" points="641.63,-30.3488 645.7839,-20.6022 636.4586,-25.631 641.63,-30.3488"/>
</g>
<!-- Node27&#45;&gt;Node3 -->
<g id="edge108" class="edge">
<title>Node27&#45;&gt;Node3</title>
<path fill="none" stroke="#191970" d="M1638.5421,-522.8848C1779.786,-513.8552 2078,-484.1727 2078,-394.5 2078,-394.5 2078,-394.5 2078,-331.5 2078,-259.3182 1994.7479,-226.4469 1925.1062,-211.5769"/>
<polygon fill="#191970" stroke="#191970" points="1925.4382,-208.0729 1914.9414,-209.511 1924.044,-214.9327 1925.4382,-208.0729"/>
</g>
<!-- Node27&#45;&gt;Node6 -->
<g id="edge109" class="edge">
<title>Node27&#45;&gt;Node6</title>
<path fill="none" stroke="#191970" d="M1638.5767,-525.0759C1782.3813,-521.6026 2092.8852,-510.6134 2130,-480 2160.4476,-454.8859 2154,-433.9687 2154,-394.5 2154,-394.5 2154,-394.5 2154,-268.5 2154,-222.8297 2173.2497,-208.7039 2211,-183 2236.4202,-165.6916 2308.8389,-151.3847 2368.0543,-142.1011"/>
<polygon fill="#191970" stroke="#191970" points="2368.8363,-145.522 2378.1871,-140.5407 2367.7709,-138.6035 2368.8363,-145.522"/>
</g>
<!-- Node27&#45;&gt;Node10 -->
<g id="edge123" class="edge">
<title>Node27&#45;&gt;Node10</title>
<path fill="none" stroke="#191970" d="M1638.7427,-523.4334C1944.5878,-508.7736 3119.1755,-434.1768 3309,-147 3317.0876,-134.7647 3318.9762,-124.7511 3309,-114 3288.8136,-92.2456 2846.303,-73.597 2720.8708,-68.7335"/>
<polygon fill="#191970" stroke="#191970" points="2720.8568,-65.2305 2710.7297,-68.3437 2720.5879,-72.2254 2720.8568,-65.2305"/>
</g>
<!-- Node27&#45;&gt;Node16 -->
<g id="edge124" class="edge">
<title>Node27&#45;&gt;Node16</title>
<path fill="none" stroke="#191970" d="M1638.8827,-523.8064C1746.915,-518.9803 1943.8059,-506.7509 2009,-480 2065.3165,-456.8918 2116,-455.3731 2116,-394.5 2116,-394.5 2116,-394.5 2116,-268.5 2116,-113.8753 1932.7615,-206.3965 1790,-147 1765.4169,-136.7721 1763.4721,-126.5698 1740,-114 1715.4323,-100.8435 1686.3383,-88.6835 1664.244,-80.1006"/>
<polygon fill="#191970" stroke="#191970" points="1665.2169,-76.7254 1654.6265,-76.4181 1662.7138,-83.2626 1665.2169,-76.7254"/>
</g>
<!-- Node27&#45;&gt;Node18 -->
<g id="edge30" class="edge">
<title>Node27&#45;&gt;Node18</title>
<path fill="none" stroke="#191970" d="M1493.2851,-525.2682C1233.6502,-520.689 361.1853,-503.6837 238,-480 127.6251,-458.7792 0,-506.8963 0,-394.5 0,-394.5 0,-394.5 0,-199.5 0,-156.9649 7.7467,-137.8 43,-114 80.8648,-88.4369 363.1504,-75.3871 511.887,-70.225"/>
<polygon fill="#191970" stroke="#191970" points="512.0491,-73.7216 521.9235,-69.8816 511.8096,-66.7256 512.0491,-73.7216"/>
</g>
<!-- Node28 -->
<g id="node28" class="node">
<title>Node28</title>
<g id="a_node28"><a xlink:href="../../d4/d5b/AbstractVolume_8hpp.html" target="_top" xlink:title="Acts/Geometry/AbstractVolume.hpp">
<polygon fill="none" stroke="#000000" points="303,-453.5 303,-473.5 501,-473.5 501,-453.5 303,-453.5"/>
<text text-anchor="middle" x="402" y="-460.5" font-family="FreeSans" font-size="10.00" fill="#000000">Acts/Geometry/AbstractVolume.hpp</text>
</a>
</g>
</g>
<!-- Node27&#45;&gt;Node28 -->
<g id="edge31" class="edge">
<title>Node27&#45;&gt;Node28</title>
<path fill="none" stroke="#191970" d="M1493.3287,-525.3198C1324.1176,-522.1172 890.7552,-511.2931 530,-480 514.1948,-478.629 497.3408,-476.7542 481.2272,-474.7591"/>
<polygon fill="#191970" stroke="#191970" points="481.666,-471.2868 471.3059,-473.5048 480.7879,-478.2315 481.666,-471.2868"/>
</g>
<!-- Node31 -->
<g id="node31" class="node">
<title>Node31</title>
<g id="a_node31"><a xlink:href="../../da/de0/GeometryObject_8hpp.html" target="_top" xlink:title="Acts/Geometry/GeometryObject.hpp">
<polygon fill="none" stroke="#000000" points="817.5,-258.5 817.5,-278.5 1018.5,-278.5 1018.5,-258.5 817.5,-258.5"/>
<text text-anchor="middle" x="918" y="-265.5" font-family="FreeSans" font-size="10.00" fill="#000000">Acts/Geometry/GeometryObject.hpp</text>
</a>
</g>
</g>
<!-- Node27&#45;&gt;Node31 -->
<g id="edge110" class="edge">
<title>Node27&#45;&gt;Node31</title>
<path fill="none" stroke="#191970" d="M1493.0922,-525.0981C1226.132,-519.8062 316.2966,-500.3105 294,-480 127.4353,-328.2724 586.6052,-284.8197 807.2074,-272.848"/>
<polygon fill="#191970" stroke="#191970" points="807.406,-276.3425 817.2067,-272.3181 807.0354,-269.3523 807.406,-276.3425"/>
</g>
<!-- Node36 -->
<g id="node36" class="node">
<title>Node36</title>
<polygon fill="none" stroke="#bfbfbf" points="218,-120.5 218,-140.5 276,-140.5 276,-120.5 218,-120.5"/>
<text text-anchor="middle" x="247" y="-127.5" font-family="FreeSans" font-size="10.00" fill="#000000">memory</text>
</g>
<!-- Node27&#45;&gt;Node36 -->
<g id="edge122" class="edge">
<title>Node27&#45;&gt;Node36</title>
<path fill="none" stroke="#191970" d="M1493.2299,-524.0728C1315.2755,-516.0357 846.3374,-482.0995 486,-342 381.3803,-301.3238 292.6693,-192.5729 260.207,-148.9654"/>
<polygon fill="#191970" stroke="#191970" points="262.882,-146.6943 254.1482,-140.6967 257.2355,-150.8317 262.882,-146.6943"/>
</g>
<!-- Node38 -->
<g id="node38" class="node">
<title>Node38</title>
<g id="a_node38"><a xlink:href="../../d7/d50/BoundaryCheck_8hpp.html" target="_top" xlink:title="Acts/Surfaces/BoundaryCheck.hpp">
<polygon fill="none" stroke="#ff0000" points="1442,-189.5 1442,-209.5 1634,-209.5 1634,-189.5 1442,-189.5"/>
<text text-anchor="middle" x="1538" y="-196.5" font-family="FreeSans" font-size="10.00" fill="#000000">Acts/Surfaces/BoundaryCheck.hpp</text>
</a>
</g>
</g>
<!-- Node27&#45;&gt;Node38 -->
<g id="edge112" class="edge">
<title>Node27&#45;&gt;Node38</title>
<path fill="none" stroke="#191970" d="M1566,-516.2307C1566,-494.0237 1566,-439.875 1566,-394.5 1566,-394.5 1566,-394.5 1566,-331.5 1566,-290.9135 1553.176,-244.8053 1544.8854,-219.2378"/>
<polygon fill="#191970" stroke="#191970" points="1548.1565,-217.9836 1541.6605,-209.6139 1541.5192,-220.2077 1548.1565,-217.9836"/>
</g>
<!-- Node40 -->
<g id="node40" class="node">
<title>Node40</title>
<g id="a_node40"><a xlink:href="../../d5/d50/BinnedArray_8hpp.html" target="_top" xlink:title="Acts/Utilities/BinnedArray.hpp">
<polygon fill="none" stroke="#ff0000" points="407.5,-258.5 407.5,-278.5 574.5,-278.5 574.5,-258.5 407.5,-258.5"/>
<text text-anchor="middle" x="491" y="-265.5" font-family="FreeSans" font-size="10.00" fill="#000000">Acts/Utilities/BinnedArray.hpp</text>
</a>
</g>
</g>
<!-- Node27&#45;&gt;Node40 -->
<g id="edge119" class="edge">
<title>Node27&#45;&gt;Node40</title>
<path fill="none" stroke="#191970" d="M1493.2304,-525.1741C1222.3447,-520.0789 286.7335,-500.9896 264,-480 230.5902,-449.153 233.976,-417.7831 256,-378 287.1565,-321.7205 356.7683,-294.1518 412.1873,-280.7777"/>
<polygon fill="#191970" stroke="#191970" points="413.0441,-284.1721 422.0048,-278.519 411.4746,-277.3503 413.0441,-284.1721"/>
</g>
<!-- Node41 -->
<g id="node41" class="node">
<title>Node41</title>
<g id="a_node41"><a xlink:href="../../db/d8d/Intersection_8hpp.html" target="_top" xlink:title="Acts/Utilities/Intersection.hpp">
<polygon fill="none" stroke="#ff0000" points="1846,-258.5 1846,-278.5 2012,-278.5 2012,-258.5 1846,-258.5"/>
<text text-anchor="middle" x="1929" y="-265.5" font-family="FreeSans" font-size="10.00" fill="#000000">Acts/Utilities/Intersection.hpp</text>
</a>
</g>
</g>
<!-- Node27&#45;&gt;Node41 -->
<g id="edge120" class="edge">
<title>Node27&#45;&gt;Node41</title>
<path fill="none" stroke="#191970" d="M1638.5879,-517.8588C1709.2489,-505.7468 1815.1906,-477.2034 1880,-411 1913.267,-377.0174 1923.996,-319.4467 1927.4209,-288.9202"/>
<polygon fill="#191970" stroke="#191970" points="1930.9351,-288.9392 1928.4076,-278.6503 1923.9672,-288.2696 1930.9351,-288.9392"/>
</g>
<!-- Node42 -->
<g id="node42" class="node">
<title>Node42</title>
<g id="a_node42"><a xlink:href="../../d9/d11/Logger_8hpp.html" target="_top" xlink:title="Acts/Utilities/Logger.hpp">
<polygon fill="none" stroke="#ff0000" points="2220,-189.5 2220,-209.5 2360,-209.5 2360,-189.5 2220,-189.5"/>
<text text-anchor="middle" x="2290" y="-196.5" font-family="FreeSans" font-size="10.00" fill="#000000">Acts/Utilities/Logger.hpp</text>
</a>
</g>
</g>
<!-- Node27&#45;&gt;Node42 -->
<g id="edge121" class="edge">
<title>Node27&#45;&gt;Node42</title>
<path fill="none" stroke="#191970" d="M1638.5238,-525.4893C1789.7036,-522.7304 2127.886,-512.9133 2168,-480 2198.5125,-454.9647 2192,-433.9687 2192,-394.5 2192,-394.5 2192,-394.5 2192,-331.5 2192,-281.3631 2238.1416,-237.8814 2267.1026,-215.5278"/>
<polygon fill="#191970" stroke="#191970" points="2269.2006,-218.3293 2275.1159,-209.5396 2265.0103,-212.722 2269.2006,-218.3293"/>
</g>
<!-- Node44 -->
<g id="node44" class="node">
<title>Node44</title>
<g id="a_node44"><a xlink:href="../../d1/d33/ApproachDescriptor_8hpp.html" target="_top" xlink:title="Acts/Geometry/ApproachDescriptor.hpp">
<polygon fill="none" stroke="#000000" points="1653,-384.5 1653,-404.5 1871,-404.5 1871,-384.5 1653,-384.5"/>
<text text-anchor="middle" x="1762" y="-391.5" font-family="FreeSans" font-size="10.00" fill="#000000">Acts/Geometry/ApproachDescriptor.hpp</text>
</a>
</g>
</g>
<!-- Node27&#45;&gt;Node44 -->
<g id="edge102" class="edge">
<title>Node27&#45;&gt;Node44</title>
<path fill="none" stroke="#191970" d="M1581.0543,-516.3614C1614.9727,-493.5184 1697.5837,-437.8824 1738.3919,-410.3994"/>
<polygon fill="#191970" stroke="#191970" points="1740.5551,-413.1623 1746.8944,-404.6732 1736.6449,-407.3562 1740.5551,-413.1623"/>
</g>
<!-- Node45 -->
<g id="node45" class="node">
<title>Node45</title>
<g id="a_node45"><a xlink:href="../../d0/df0/IMaterialDecorator_8hpp.html" target="_top" xlink:title="Acts/Material/IMaterialDecorator.hpp">
<polygon fill="none" stroke="#000000" points="1156,-453.5 1156,-473.5 1358,-473.5 1358,-453.5 1156,-453.5"/>
<text text-anchor="middle" x="1257" y="-460.5" font-family="FreeSans" font-size="10.00" fill="#000000">Acts/Material/IMaterialDecorator.hpp</text>
</a>
</g>
</g>
<!-- Node27&#45;&gt;Node45 -->
<g id="edge111" class="edge">
<title>Node27&#45;&gt;Node45</title>
<path fill="none" stroke="#191970" d="M1516.6964,-516.4478C1462.2062,-505.3382 1374.4695,-487.4501 1316.2768,-475.5856"/>
<polygon fill="#191970" stroke="#191970" points="1316.6257,-472.0848 1306.128,-473.5164 1315.2272,-478.9437 1316.6257,-472.0848"/>
</g>
<!-- Node46 -->
<g id="node46" class="node">
<title>Node46</title>
<g id="a_node46"><a xlink:href="../../d3/de5/SurfaceArray_8hpp.html" target="_top" xlink:title="Acts/Surfaces/SurfaceArray.hpp">
<polygon fill="none" stroke="#ff0000" points="1226,-384.5 1226,-404.5 1402,-404.5 1402,-384.5 1226,-384.5"/>
<text text-anchor="middle" x="1314" y="-391.5" font-family="FreeSans" font-size="10.00" fill="#000000">Acts/Surfaces/SurfaceArray.hpp</text>
</a>
</g>
</g>
<!-- Node27&#45;&gt;Node46 -->
<g id="edge113" class="edge">
<title>Node27&#45;&gt;Node46</title>
<path fill="none" stroke="#191970" d="M1507.1141,-516.4863C1475.4148,-509.4139 1436.4752,-497.9258 1405,-480 1396.5803,-475.2048 1355.5354,-435.4044 1331.5426,-411.8326"/>
<polygon fill="#191970" stroke="#191970" points="1333.7126,-409.0573 1324.1314,-404.5348 1328.8011,-414.0451 1333.7126,-409.0573"/>
</g>
<!-- Node47 -->
<g id="node47" class="node">
<title>Node47</title>
<g id="a_node47"><a xlink:href="../../dc/deb/Layer_8ipp.html" target="_top" xlink:title="Acts/Geometry/detail\l/Layer.ipp">
<polygon fill="none" stroke="#ff0000" points="1414,-447.5 1414,-479.5 1538,-479.5 1538,-447.5 1414,-447.5"/>
<text text-anchor="start" x="1422" y="-466.5" font-family="FreeSans" font-size="10.00" fill="#000000">Acts/Geometry/detail</text>
<text text-anchor="middle" x="1476" y="-454.5" font-family="FreeSans" font-size="10.00" fill="#000000">/Layer.ipp</text>
</a>
</g>
</g>
<!-- Node27&#45;&gt;Node47 -->
<g id="edge125" class="edge">
<title>Node27&#45;&gt;Node47</title>
<path fill="none" stroke="#191970" d="M1551.5399,-516.378C1539.7434,-508.1204 1522.6453,-496.1517 1507.6984,-485.6889"/>
<polygon fill="#191970" stroke="#191970" points="1509.4023,-482.6093 1499.2028,-479.742 1505.388,-488.344 1509.4023,-482.6093"/>
</g>
<!-- Node28&#45;&gt;Node16 -->
<g id="edge101" class="edge">
<title>Node28&#45;&gt;Node16</title>
<path fill="none" stroke="#191970" d="M501.4051,-461.7963C749.5062,-457.083 1378.4819,-442.1113 1411,-411 1484.5598,-340.6224 1388.9079,-274.7602 1433,-183 1463.7148,-119.0794 1547.687,-88.0954 1595.4958,-75.228"/>
<polygon fill="#191970" stroke="#191970" points="1596.5864,-78.5616 1605.4003,-72.6824 1594.8438,-71.7819 1596.5864,-78.5616"/>
</g>
<!-- Node28&#45;&gt;Node18 -->
<g id="edge32" class="edge">
<title>Node28&#45;&gt;Node18</title>
<path fill="none" stroke="#191970" d="M305.8871,-453.4525C198.0446,-436.2404 38,-390.196 38,-268.5 38,-268.5 38,-268.5 38,-199.5 38,-157.7335 42.8985,-138.115 77,-114 111.5722,-89.5522 370.2007,-76.173 511.4827,-70.6195"/>
<polygon fill="#191970" stroke="#191970" points="512.0067,-74.1019 521.8637,-70.2172 511.7356,-67.1072 512.0067,-74.1019"/>
</g>
<!-- Node29 -->
<g id="node29" class="node">
<title>Node29</title>
<g id="a_node29"><a xlink:href="../../d4/d5f/BoundarySurfaceT_8hpp.html" target="_top" xlink:title="Acts/Geometry/BoundarySurface\lT.hpp">
<polygon fill="none" stroke="#ff0000" points="294.5,-378.5 294.5,-410.5 477.5,-410.5 477.5,-378.5 294.5,-378.5"/>
<text text-anchor="start" x="302.5" y="-397.5" font-family="FreeSans" font-size="10.00" fill="#000000">Acts/Geometry/BoundarySurface</text>
<text text-anchor="middle" x="386" y="-385.5" font-family="FreeSans" font-size="10.00" fill="#000000">T.hpp</text>
</a>
</g>
</g>
<!-- Node28&#45;&gt;Node29 -->
<g id="edge33" class="edge">
<title>Node28&#45;&gt;Node29</title>
<path fill="none" stroke="#191970" d="M399.6391,-453.3188C397.6425,-444.7084 394.6924,-431.9862 392.0462,-420.5741"/>
<polygon fill="#191970" stroke="#191970" points="395.4059,-419.5684 389.7374,-410.6175 388.5868,-421.1497 395.4059,-419.5684"/>
</g>
<!-- Node30 -->
<g id="node30" class="node">
<title>Node30</title>
<g id="a_node30"><a xlink:href="../../d6/d0f/Volume_8hpp.html" target="_top" xlink:title="Acts/Geometry/Volume.hpp">
<polygon fill="none" stroke="#ff0000" points="495,-321.5 495,-341.5 651,-341.5 651,-321.5 495,-321.5"/>
<text text-anchor="middle" x="573" y="-328.5" font-family="FreeSans" font-size="10.00" fill="#000000">Acts/Geometry/Volume.hpp</text>
</a>
</g>
</g>
<!-- Node28&#45;&gt;Node30 -->
<g id="edge99" class="edge">
<title>Node28&#45;&gt;Node30</title>
<path fill="none" stroke="#191970" d="M420.3236,-453.3443C437.7756,-443.3755 464.4975,-427.329 486,-411 511.6258,-391.5397 538.5995,-365.9868 555.5942,-349.1709"/>
<polygon fill="#191970" stroke="#191970" points="558.4874,-351.2276 563.0857,-341.6826 553.5387,-346.2767 558.4874,-351.2276"/>
</g>
<!-- Node28&#45;&gt;Node36 -->
<g id="edge100" class="edge">
<title>Node28&#45;&gt;Node36</title>
<path fill="none" stroke="#191970" d="M360.1045,-453.4831C335.3448,-445.6296 305.0208,-432.3611 285,-411 223.74,-345.6387 236.5933,-305.5442 234,-216 233.5754,-201.3395 232.2243,-197.5588 234,-183 235.3216,-172.1646 238.1236,-160.344 240.789,-150.6673"/>
<polygon fill="#191970" stroke="#191970" points="244.2211,-151.3995 243.6541,-140.8198 237.4998,-149.4439 244.2211,-151.3995"/>
</g>
<!-- Node29&#45;&gt;Node3 -->
<g id="edge35" class="edge">
<title>Node29&#45;&gt;Node3</title>
<path fill="none" stroke="#191970" d="M477.6376,-392.5578C628.7357,-388.4675 939.3797,-376.3118 1200,-342 1328.07,-325.139 1359.0497,-313.6837 1485,-285 1542.7021,-271.859 1556.5646,-266.2616 1614,-252 1670.4331,-237.9873 1735.2258,-222.454 1779.412,-211.9448"/>
<polygon fill="#191970" stroke="#191970" points="1780.4289,-215.3007 1789.3488,-209.5835 1778.8105,-208.4903 1780.4289,-215.3007"/>
</g>
<!-- Node29&#45;&gt;Node18 -->
<g id="edge34" class="edge">
<title>Node29&#45;&gt;Node18</title>
<path fill="none" stroke="#191970" d="M345.7611,-378.3895C246.3015,-336.4154 3.7036,-219.6092 100,-114 127.13,-84.2463 374.2083,-73.2514 511.691,-69.4133"/>
<polygon fill="#191970" stroke="#191970" points="511.9003,-72.909 521.8014,-69.1384 511.71,-65.9116 511.9003,-72.909"/>
</g>
<!-- Node29&#45;&gt;Node30 -->
<g id="edge36" class="edge">
<title>Node29&#45;&gt;Node30</title>
<path fill="none" stroke="#191970" d="M433.6718,-378.4394C464.5501,-368.0366 504.2877,-354.6491 533.418,-344.8351"/>
<polygon fill="#191970" stroke="#191970" points="534.8882,-348.0332 543.2474,-341.5236 532.6533,-341.3995 534.8882,-348.0332"/>
</g>
<!-- Node29&#45;&gt;Node36 -->
<g id="edge98" class="edge">
<title>Node29&#45;&gt;Node36</title>
<path fill="none" stroke="#191970" d="M353.1899,-378.3684C320.9059,-360.4933 273.4309,-328.3631 252,-285 230.2905,-241.0734 237.004,-181.2172 242.6407,-150.4964"/>
<polygon fill="#191970" stroke="#191970" points="246.095,-151.0707 244.614,-140.5799 239.2296,-149.7045 246.095,-151.0707"/>
</g>
<!-- Node37 -->
<g id="node37" class="node">
<title>Node37</title>
<g id="a_node37"><a xlink:href="../../d8/ddd/Surface_8hpp.html" target="_top" xlink:title="Acts/Surfaces/Surface.hpp">
<polygon fill="none" stroke="#ff0000" points="1041,-321.5 1041,-341.5 1191,-341.5 1191,-321.5 1041,-321.5"/>
<text text-anchor="middle" x="1116" y="-328.5" font-family="FreeSans" font-size="10.00" fill="#000000">Acts/Surfaces/Surface.hpp</text>
</a>
</g>
</g>
<!-- Node29&#45;&gt;Node37 -->
<g id="edge58" class="edge">
<title>Node29&#45;&gt;Node37</title>
<path fill="none" stroke="#191970" d="M477.7158,-386.5848C620.1457,-374.2929 892.4803,-350.7901 1030.8169,-338.8514"/>
<polygon fill="#191970" stroke="#191970" points="1031.2846,-342.3242 1040.9466,-337.9772 1030.6827,-335.3501 1031.2846,-342.3242"/>
</g>
<!-- Node29&#45;&gt;Node40 -->
<g id="edge97" class="edge">
<title>Node29&#45;&gt;Node40</title>
<path fill="none" stroke="#191970" d="M399.512,-378.2857C419.1324,-354.7411 455.3966,-311.2241 475.8823,-286.6412"/>
<polygon fill="#191970" stroke="#191970" points="478.7041,-288.7223 482.4172,-278.7994 473.3265,-284.241 478.7041,-288.7223"/>
</g>
<!-- Node30&#45;&gt;Node3 -->
<g id="edge38" class="edge">
<title>Node30&#45;&gt;Node3</title>
<path fill="none" stroke="#191970" d="M651.0891,-325.7065C757.9366,-317.5975 955.6509,-301.9434 1124,-285 1255.3412,-271.7813 1583.0698,-232.8079 1714,-216 1726.3038,-214.4205 1739.3184,-212.6756 1752.0356,-210.9294"/>
<polygon fill="#191970" stroke="#191970" points="1752.7246,-214.3676 1762.1515,-209.5319 1751.7666,-207.4334 1752.7246,-214.3676"/>
</g>
<!-- Node30&#45;&gt;Node9 -->
<g id="edge56" class="edge">
<title>Node30&#45;&gt;Node9</title>
<path fill="none" stroke="#191970" d="M575.7518,-321.2468C578.1334,-311.8837 581.4341,-297.6198 583,-285 592.3642,-209.532 535.5491,-168.0935 589,-114 618.905,-83.7355 1311.5198,-80.3846 1354,-78 1397.5943,-75.5529 1447.7919,-72.1929 1480.3882,-69.939"/>
<polygon fill="#191970" stroke="#191970" points="1480.9996,-73.405 1490.7328,-69.22 1480.5142,-66.4219 1480.9996,-73.405"/>
</g>
<!-- Node30&#45;&gt;Node18 -->
<g id="edge37" class="edge">
<title>Node30&#45;&gt;Node18</title>
<path fill="none" stroke="#191970" d="M501.3399,-321.429C458.8937,-313.8324 410.9351,-301.821 398,-285 389.0594,-273.3735 396.6875,-266.6078 398,-252 403.5779,-189.9184 380.5761,-159.6667 423,-114 437.0834,-98.8401 482.2145,-87.2011 523.759,-79.3591"/>
<polygon fill="#191970" stroke="#191970" points="524.4572,-82.7895 533.6637,-77.5464 523.1969,-75.9039 524.4572,-82.7895"/>
</g>
<!-- Node30&#45;&gt;Node31 -->
<g id="edge39" class="edge">
<title>Node30&#45;&gt;Node31</title>
<path fill="none" stroke="#191970" d="M628.0478,-321.4478C689.2642,-310.2692 788.063,-292.2276 853.024,-280.3652"/>
<polygon fill="#191970" stroke="#191970" points="853.9398,-283.7559 863.1483,-278.5164 852.6822,-276.8698 853.9398,-283.7559"/>
</g>
<!-- Node33 -->
<g id="node33" class="node">
<title>Node33</title>
<g id="a_node33"><a xlink:href="../../de/d09/BinningType_8hpp.html" target="_top" xlink:title="Acts/Utilities/BinningType.hpp">
<polygon fill="none" stroke="#000000" points="1034,-120.5 1034,-140.5 1202,-140.5 1202,-120.5 1034,-120.5"/>
<text text-anchor="middle" x="1118" y="-127.5" font-family="FreeSans" font-size="10.00" fill="#000000">Acts/Utilities/BinningType.hpp</text>
</a>
</g>
</g>
<!-- Node30&#45;&gt;Node33 -->
<g id="edge55" class="edge">
<title>Node30&#45;&gt;Node33</title>
<path fill="none" stroke="#191970" d="M651.2761,-327.3189C772.797,-320.2575 996.1545,-304.7835 1027,-285 1076.4169,-253.3053 1102.4104,-184.4617 1112.6731,-150.4034"/>
<polygon fill="#191970" stroke="#191970" points="1116.0753,-151.2361 1115.4622,-140.659 1109.3455,-149.3098 1116.0753,-151.2361"/>
</g>
<!-- Node30&#45;&gt;Node36 -->
<g id="edge57" class="edge">
<title>Node30&#45;&gt;Node36</title>
<path fill="none" stroke="#191970" d="M505.8306,-321.4803C454.5753,-312.9078 388.9807,-299.6562 366,-285 338.1055,-267.21 283.446,-186.5368 259.1454,-149.3623"/>
<polygon fill="#191970" stroke="#191970" points="262.0392,-147.392 253.6561,-140.9131 256.1692,-151.2056 262.0392,-147.392"/>
</g>
<!-- Node31&#45;&gt;Node3 -->
<g id="edge41" class="edge">
<title>Node31&#45;&gt;Node3</title>
<path fill="none" stroke="#191970" d="M1018.7229,-264.2197C1169.9742,-257.2578 1464.6376,-241.623 1714,-216 1727.7432,-214.5878 1742.3472,-212.7894 1756.4273,-210.9024"/>
<polygon fill="#191970" stroke="#191970" points="1757.1333,-214.3386 1766.5674,-209.517 1756.1857,-207.403 1757.1333,-214.3386"/>
</g>
<!-- Node31&#45;&gt;Node6 -->
<g id="edge42" class="edge">
<title>Node31&#45;&gt;Node6</title>
<path fill="none" stroke="#191970" d="M1018.6729,-260.022C1051.0224,-257.366 1087.0182,-254.4821 1120,-252 1352.3375,-234.5154 1416.6386,-271.1991 1643,-216 1678.7762,-207.2758 1683.1941,-191.6017 1719,-183 1970.5603,-122.5671 2042.2015,-168.7865 2300,-147 2318.3965,-145.4453 2338.0028,-143.5377 2356.8465,-141.5782"/>
<polygon fill="#191970" stroke="#191970" points="2357.3421,-145.0455 2366.9211,-140.5185 2356.6098,-138.0839 2357.3421,-145.0455"/>
</g>
<!-- Node31&#45;&gt;Node18 -->
<g id="edge40" class="edge">
<title>Node31&#45;&gt;Node18</title>
<path fill="none" stroke="#191970" d="M817.209,-259.7447C745.2607,-251.779 656.1085,-237.8715 626,-216 586.9839,-187.6579 581.9738,-161.7091 589,-114 590.3153,-105.0687 592.9797,-95.4736 595.6344,-87.3325"/>
<polygon fill="#191970" stroke="#191970" points="599.0241,-88.2407 599.0044,-77.6459 592.4128,-85.9406 599.0241,-88.2407"/>
</g>
<!-- Node32 -->
<g id="node32" class="node">
<title>Node32</title>
<g id="a_node32"><a xlink:href="../../db/d40/Polyhedron_8hpp.html" target="_top" xlink:title="Acts/Geometry/Polyhedron.hpp">
<polygon fill="none" stroke="#ff0000" points="830.5,-189.5 830.5,-209.5 1005.5,-209.5 1005.5,-189.5 830.5,-189.5"/>
<text text-anchor="middle" x="918" y="-196.5" font-family="FreeSans" font-size="10.00" fill="#000000">Acts/Geometry/Polyhedron.hpp</text>
</a>
</g>
</g>
<!-- Node31&#45;&gt;Node32 -->
<g id="edge43" class="edge">
<title>Node31&#45;&gt;Node32</title>
<path fill="none" stroke="#191970" d="M918,-258.3188C918,-248.2289 918,-232.4925 918,-219.8347"/>
<polygon fill="#191970" stroke="#191970" points="921.5001,-219.7229 918,-209.723 914.5001,-219.723 921.5001,-219.7229"/>
</g>
<!-- Node31&#45;&gt;Node33 -->
<g id="edge46" class="edge">
<title>Node31&#45;&gt;Node33</title>
<path fill="none" stroke="#191970" d="M939.2615,-258.3211C959.1691,-248.4577 989.4464,-232.592 1014,-216 1045.6601,-194.6059 1079.2948,-165.6699 1099.4717,-147.5484"/>
<polygon fill="#191970" stroke="#191970" points="1101.9448,-150.0306 1107.0047,-140.7221 1097.2444,-144.8435 1101.9448,-150.0306"/>
</g>
<!-- Node34 -->
<g id="node34" class="node">
<title>Node34</title>
<g id="a_node34"><a xlink:href="../../dc/d9c/VectorHelpers_8hpp.html" target="_top" xlink:title="Acts/Utilities/VectorHelpers.hpp">
<polygon fill="none" stroke="#ff0000" points="635.5,-189.5 635.5,-209.5 812.5,-209.5 812.5,-189.5 635.5,-189.5"/>
<text text-anchor="middle" x="724" y="-196.5" font-family="FreeSans" font-size="10.00" fill="#000000">Acts/Utilities/VectorHelpers.hpp</text>
</a>
</g>
</g>
<!-- Node31&#45;&gt;Node34 -->
<g id="edge49" class="edge">
<title>Node31&#45;&gt;Node34</title>
<path fill="none" stroke="#191970" d="M889.7907,-258.4668C856.0269,-246.458 799.353,-226.3008 761.8175,-212.9506"/>
<polygon fill="#191970" stroke="#191970" points="762.838,-209.5988 752.2433,-209.5453 760.4922,-216.1941 762.838,-209.5988"/>
</g>
<!-- Node32&#45;&gt;Node16 -->
<g id="edge45" class="edge">
<title>Node32&#45;&gt;Node16</title>
<path fill="none" stroke="#191970" d="M926.7423,-189.2477C943.5419,-170.3793 982.4587,-130.5711 1025,-114 1133.5524,-71.7156 1432.0622,-89.4032 1548,-78 1563.5165,-76.4739 1580.63,-74.3522 1595.1911,-72.4153"/>
<polygon fill="#191970" stroke="#191970" points="1595.8435,-75.859 1605.2834,-71.0487 1594.9041,-68.9223 1595.8435,-75.859"/>
</g>
<!-- Node32&#45;&gt;Node18 -->
<g id="edge44" class="edge">
<title>Node32&#45;&gt;Node18</title>
<path fill="none" stroke="#191970" d="M913.536,-189.3763C904.9039,-171.0814 884.0857,-132.6828 854,-114 827.5642,-97.5837 754.6005,-85.1854 694.111,-77.3367"/>
<polygon fill="#191970" stroke="#191970" points="694.4964,-73.8576 684.1348,-76.0683 693.6135,-80.8017 694.4964,-73.8576"/>
</g>
<!-- Node33&#45;&gt;Node16 -->
<g id="edge48" class="edge">
<title>Node33&#45;&gt;Node16</title>
<path fill="none" stroke="#191970" d="M1170.4392,-120.4281C1183.345,-118.1337 1197.1486,-115.8344 1210,-114 1359.5559,-92.652 1397.9562,-95.5949 1548,-78 1563.4853,-76.1841 1580.594,-74.0186 1595.16,-72.1272"/>
<polygon fill="#191970" stroke="#191970" points="1595.7954,-75.574 1605.2574,-70.8073 1594.888,-68.6331 1595.7954,-75.574"/>
</g>
<!-- Node33&#45;&gt;Node24 -->
<g id="edge47" class="edge">
<title>Node33&#45;&gt;Node24</title>
<path fill="none" stroke="#191970" d="M1150.9368,-120.378C1189.3786,-108.5641 1252.5371,-89.1545 1290.7024,-77.4256"/>
<polygon fill="#191970" stroke="#191970" points="1291.7691,-80.7594 1300.2997,-74.4762 1289.7127,-74.0683 1291.7691,-80.7594"/>
</g>
<!-- Node34&#45;&gt;Node18 -->
<g id="edge50" class="edge">
<title>Node34&#45;&gt;Node18</title>
<path fill="none" stroke="#191970" d="M772.6709,-189.4868C796.0637,-181.9636 822.003,-169.0196 836,-147 843.868,-134.6224 845.3008,-125.3404 836,-114 817.9554,-91.9983 751.6863,-80.2057 694.4131,-74.0084"/>
<polygon fill="#191970" stroke="#191970" points="694.5138,-70.5002 684.2065,-72.9516 693.7928,-77.463 694.5138,-70.5002"/>
</g>
<!-- Node34&#45;&gt;Node22 -->
<g id="edge54" class="edge">
<title>Node34&#45;&gt;Node22</title>
<path fill="none" stroke="#191970" d="M778.5246,-189.473C792.35,-187.1378 807.196,-184.8085 821,-183 993.5953,-160.3882 1044.5735,-198.0162 1211,-147 1212.8754,-146.4251 1214.7658,-145.7243 1216.6362,-144.9395"/>
<polygon fill="#191970" stroke="#191970" points="1218.2244,-148.0589 1225.6591,-140.5106 1215.1399,-141.7751 1218.2244,-148.0589"/>
</g>
<!-- Node34&#45;&gt;Node33 -->
<g id="edge53" class="edge">
<title>Node34&#45;&gt;Node33</title>
<path fill="none" stroke="#191970" d="M781.291,-189.4668C852.7809,-176.947 974.8435,-155.5706 1050.7093,-142.2844"/>
<polygon fill="#191970" stroke="#191970" points="1051.3936,-145.7179 1060.6399,-140.5453 1050.186,-138.8229 1051.3936,-145.7179"/>
</g>
<!-- Node35 -->
<g id="node35" class="node">
<title>Node35</title>
<g id="a_node35"><a xlink:href="../../d7/d3a/TrackParametrization_8hpp.html" target="_top" xlink:title="Acts/Definitions/TrackParametrization.hpp">
<polygon fill="none" stroke="#ff0000" points="598.5,-120.5 598.5,-140.5 827.5,-140.5 827.5,-120.5 598.5,-120.5"/>
<text text-anchor="middle" x="713" y="-127.5" font-family="FreeSans" font-size="10.00" fill="#000000">Acts/Definitions/TrackParametrization.hpp</text>
</a>
</g>
</g>
<!-- Node34&#45;&gt;Node35 -->
<g id="edge51" class="edge">
<title>Node34&#45;&gt;Node35</title>
<path fill="none" stroke="#191970" d="M722.3769,-189.3188C720.7684,-179.2289 718.2597,-163.4925 716.2418,-150.8347"/>
<polygon fill="#191970" stroke="#191970" points="719.6605,-150.0472 714.6297,-140.723 712.7478,-151.1493 719.6605,-150.0472"/>
</g>
<!-- Node35&#45;&gt;Node18 -->
<g id="edge52" class="edge">
<title>Node35&#45;&gt;Node18</title>
<path fill="none" stroke="#191970" d="M695.3266,-120.378C677.5257,-110.1829 649.8476,-94.3309 629.4353,-82.6402"/>
<polygon fill="#191970" stroke="#191970" points="631.0466,-79.5297 620.6295,-77.5969 627.5677,-85.604 631.0466,-79.5297"/>
</g>
<!-- Node37&#45;&gt;Node3 -->
<g id="edge61" class="edge">
<title>Node37&#45;&gt;Node3</title>
<path fill="none" stroke="#191970" d="M1191.3148,-324.9318C1255.0922,-318.2673 1348.5541,-305.8939 1428,-285 1467.5932,-274.5872 1474.4896,-262.7227 1514,-252 1557.4366,-240.2118 1671.8551,-222.5076 1750.8935,-210.9775"/>
<polygon fill="#191970" stroke="#191970" points="1751.4398,-214.435 1760.8324,-209.5329 1750.4329,-207.5078 1751.4398,-214.435"/>
</g>
<!-- Node37&#45;&gt;Node10 -->
<g id="edge96" class="edge">
<title>Node37&#45;&gt;Node10</title>
<path fill="none" stroke="#191970" d="M1191.0721,-329.0415C1378.0866,-322.6918 1861.1657,-304.8465 2021,-285 2177.4759,-265.5706 2218.3795,-262.6443 2369,-216 2404.5663,-204.9858 2410.0718,-192.7692 2446,-183 2507.3873,-166.3083 2687.94,-194.7281 2730,-147 2746.4676,-128.3132 2726.0903,-102.0359 2708.4008,-84.89"/>
<polygon fill="#191970" stroke="#191970" points="2710.3327,-81.9113 2700.6044,-77.7148 2705.5924,-87.062 2710.3327,-81.9113"/>
</g>
<!-- Node37&#45;&gt;Node18 -->
<g id="edge59" class="edge">
<title>Node37&#45;&gt;Node18</title>
<path fill="none" stroke="#191970" d="M1040.6731,-330.1997C932.0008,-327.2107 737.5217,-317.368 676,-285 610.5454,-250.5628 599.7834,-219.0315 583,-147 579.6718,-132.7159 580.0417,-128.3652 583,-114 584.9155,-104.6987 588.7775,-94.9643 592.6014,-86.8198"/>
<polygon fill="#191970" stroke="#191970" points="595.7652,-88.3186 597.1135,-77.8099 589.5062,-85.1841 595.7652,-88.3186"/>
</g>
<!-- Node37&#45;&gt;Node22 -->
<g id="edge92" class="edge">
<title>Node37&#45;&gt;Node22</title>
<path fill="none" stroke="#191970" d="M1122.3706,-321.256C1142.2176,-289.3421 1203.1542,-191.356 1229.1017,-149.6325"/>
<polygon fill="#191970" stroke="#191970" points="1232.1834,-151.3046 1234.4923,-140.9644 1226.2391,-147.6078 1232.1834,-151.3046"/>
</g>
<!-- Node37&#45;&gt;Node24 -->
<g id="edge94" class="edge">
<title>Node37&#45;&gt;Node24</title>
<path fill="none" stroke="#191970" d="M1129.6304,-321.1961C1141.0318,-312.2526 1157.4068,-298.6309 1170,-285 1231.5171,-218.4136 1288.6784,-126.0121 1311.9734,-86.5723"/>
<polygon fill="#191970" stroke="#191970" points="1315.1158,-88.1324 1317.1482,-77.7343 1309.075,-84.5954 1315.1158,-88.1324"/>
</g>
<!-- Node37&#45;&gt;Node25 -->
<g id="edge95" class="edge">
<title>Node37&#45;&gt;Node25</title>
<path fill="none" stroke="#191970" d="M1191.1542,-330.5463C1500.0489,-326.4779 2663.2617,-309.6494 2826,-285 3021.5217,-255.3851 3069.8549,-230.7426 3249,-147 3250.151,-146.462 3251.319,-145.8987 3252.493,-145.3183"/>
<polygon fill="#191970" stroke="#191970" points="3254.179,-148.3865 3261.432,-140.6634 3250.9459,-142.1778 3254.179,-148.3865"/>
</g>
<!-- Node37&#45;&gt;Node31 -->
<g id="edge62" class="edge">
<title>Node37&#45;&gt;Node31</title>
<path fill="none" stroke="#191970" d="M1084.1879,-321.378C1050.2699,-310.5859 996.43,-293.455 959.2696,-281.6312"/>
<polygon fill="#191970" stroke="#191970" points="960.3237,-278.2938 949.7332,-278.5969 958.2012,-284.9643 960.3237,-278.2938"/>
</g>
<!-- Node37&#45;&gt;Node32 -->
<g id="edge63" class="edge">
<title>Node37&#45;&gt;Node32</title>
<path fill="none" stroke="#191970" d="M1106.6142,-321.4599C1091.157,-305.3277 1058.8708,-273.2917 1027,-252 1003.8748,-236.5509 975.5125,-223.0385 953.5166,-213.5923"/>
<polygon fill="#191970" stroke="#191970" points="954.7821,-210.3275 944.2075,-209.6727 952.0656,-216.779 954.7821,-210.3275"/>
</g>
<!-- Node37&#45;&gt;Node33 -->
<g id="edge78" class="edge">
<title>Node37&#45;&gt;Node33</title>
<path fill="none" stroke="#191970" d="M1118.2868,-321.2227C1120.2497,-311.8434 1122.9267,-297.5692 1124,-285 1127.8572,-239.8311 1126.5779,-228.26 1124,-183 1123.386,-172.2195 1122.0682,-160.254 1120.8236,-150.4721"/>
<polygon fill="#191970" stroke="#191970" points="1124.2892,-149.9814 1119.491,-140.5354 1117.3514,-150.912 1124.2892,-149.9814"/>
</g>
<!-- Node37&#45;&gt;Node35 -->
<g id="edge60" class="edge">
<title>Node37&#45;&gt;Node35</title>
<path fill="none" stroke="#191970" d="M1040.528,-325.6927C915.0559,-314.2083 672.6742,-283.611 626,-216 617.6677,-203.93 618.7899,-195.7721 626,-183 635.9515,-165.3717 654.4618,-152.9985 671.8586,-144.7113"/>
<polygon fill="#191970" stroke="#191970" points="673.6141,-147.7621 681.3474,-140.5202 670.7859,-141.3589 673.6141,-147.7621"/>
</g>
<!-- Node37&#45;&gt;Node36 -->
<g id="edge93" class="edge">
<title>Node37&#45;&gt;Node36</title>
<path fill="none" stroke="#191970" d="M1040.8753,-329.8679C868.4187,-325.6608 454.5941,-312.7753 398,-285 384.4316,-278.3409 318.7532,-193.6214 308,-183 295.2386,-170.395 279.9365,-157.2299 267.8509,-147.2362"/>
<polygon fill="#191970" stroke="#191970" points="270.0248,-144.4927 260.0686,-140.87 265.5926,-149.9108 270.0248,-144.4927"/>
</g>
<!-- Node37&#45;&gt;Node38 -->
<g id="edge64" class="edge">
<title>Node37&#45;&gt;Node38</title>
<path fill="none" stroke="#191970" d="M1186.7705,-321.4595C1225.4822,-314.3605 1273.6351,-302.8556 1314,-285 1337.6757,-274.527 1338.6448,-263.1694 1362,-252 1399.5701,-234.0324 1444.6156,-220.7333 1479.7298,-212.0158"/>
<polygon fill="#191970" stroke="#191970" points="1480.9282,-215.3267 1489.8214,-209.568 1479.2781,-208.5239 1480.9282,-215.3267"/>
</g>
<!-- Node37&#45;&gt;Node40 -->
<g id="edge74" class="edge">
<title>Node37&#45;&gt;Node40</title>
<path fill="none" stroke="#191970" d="M1040.5985,-326.7797C937.9559,-319.9164 748.6294,-305.7007 588,-285 577.3636,-283.6293 566.1103,-281.9385 555.1824,-280.1671"/>
<polygon fill="#191970" stroke="#191970" points="555.7026,-276.7057 545.265,-278.5245 554.5587,-283.6116 555.7026,-276.7057"/>
</g>
<!-- Node37&#45;&gt;Node41 -->
<g id="edge79" class="edge">
<title>Node37&#45;&gt;Node41</title>
<path fill="none" stroke="#191970" d="M1191.0278,-325.686C1340.0362,-314.1393 1672.9104,-288.3446 1835.7212,-275.7282"/>
<polygon fill="#191970" stroke="#191970" points="1836.0211,-279.2156 1845.7207,-274.9534 1835.4802,-272.2365 1836.0211,-279.2156"/>
</g>
<!-- Node38&#45;&gt;Node14 -->
<g id="edge72" class="edge">
<title>Node38&#45;&gt;Node14</title>
<path fill="none" stroke="#191970" d="M1622.4679,-189.4969C1643.226,-187.2005 1665.403,-184.883 1686,-183 1909.6381,-162.5547 1967.7972,-179.5256 2190,-147 2202.0878,-145.2306 2215.1375,-142.5754 2226.8627,-139.9093"/>
<polygon fill="#191970" stroke="#191970" points="2227.832,-143.277 2236.7683,-137.5855 2226.2332,-136.462 2227.832,-143.277"/>
</g>
<!-- Node38&#45;&gt;Node16 -->
<g id="edge73" class="edge">
<title>Node38&#45;&gt;Node16</title>
<path fill="none" stroke="#191970" d="M1529.9912,-189.4296C1517.5853,-172.5212 1496.7601,-137.9298 1513,-114 1531.2847,-87.0571 1567.9077,-75.7251 1595.335,-70.9591"/>
<polygon fill="#191970" stroke="#191970" points="1595.9803,-74.4013 1605.3391,-69.4351 1594.926,-67.4811 1595.9803,-74.4013"/>
</g>
<!-- Node38&#45;&gt;Node18 -->
<g id="edge65" class="edge">
<title>Node38&#45;&gt;Node18</title>
<path fill="none" stroke="#191970" d="M1525.0071,-189.211C1500.2482,-170.2815 1443.8714,-130.3756 1389,-114 1324.0138,-94.6058 887.4557,-77.3371 694.4567,-70.553"/>
<polygon fill="#191970" stroke="#191970" points="694.4506,-67.0508 684.3344,-70.199 694.2059,-74.0465 694.4506,-67.0508"/>
</g>
<!-- Node38&#45;&gt;Node35 -->
<g id="edge66" class="edge">
<title>Node38&#45;&gt;Node35</title>
<path fill="none" stroke="#191970" d="M1441.7474,-191.4498C1292.0754,-178.9318 1003.5804,-154.8031 838.0078,-140.9552"/>
<polygon fill="#191970" stroke="#191970" points="838.029,-137.4448 827.772,-140.0991 837.4455,-144.4205 838.029,-137.4448"/>
</g>
<!-- Node39 -->
<g id="node39" class="node">
<title>Node39</title>
<g id="a_node39"><a xlink:href="../../d4/d27/VerticesHelper_8hpp.html" target="_top" xlink:title="Acts/Surfaces/detail\l/VerticesHelper.hpp">
<polygon fill="none" stroke="#ff0000" points="2063.5,-114.5 2063.5,-146.5 2180.5,-146.5 2180.5,-114.5 2063.5,-114.5"/>
<text text-anchor="start" x="2071.5" y="-133.5" font-family="FreeSans" font-size="10.00" fill="#000000">Acts/Surfaces/detail</text>
<text text-anchor="middle" x="2122" y="-121.5" font-family="FreeSans" font-size="10.00" fill="#000000">/VerticesHelper.hpp</text>
</a>
</g>
</g>
<!-- Node38&#45;&gt;Node39 -->
<g id="edge67" class="edge">
<title>Node38&#45;&gt;Node39</title>
<path fill="none" stroke="#191970" d="M1622.9186,-189.4668C1739.2216,-175.7255 1945.8252,-151.3152 2053.0841,-138.6425"/>
<polygon fill="#191970" stroke="#191970" points="2053.6272,-142.1027 2063.1474,-137.4535 2052.8058,-135.1511 2053.6272,-142.1027"/>
</g>
<!-- Node39&#45;&gt;Node10 -->
<g id="edge70" class="edge">
<title>Node39&#45;&gt;Node10</title>
<path fill="none" stroke="#191970" d="M2180.5143,-120.8164C2195.9353,-118.422 2212.575,-115.9787 2228,-114 2387.7352,-93.5092 2579.6357,-76.5754 2655.1716,-70.209"/>
<polygon fill="#191970" stroke="#191970" points="2655.7815,-73.6702 2665.4542,-69.3472 2655.1968,-66.6947 2655.7815,-73.6702"/>
</g>
<!-- Node39&#45;&gt;Node11 -->
<g id="edge69" class="edge">
<title>Node39&#45;&gt;Node11</title>
<path fill="none" stroke="#191970" d="M2144.4047,-114.2759C2157.413,-104.8561 2173.7422,-93.0315 2186.7278,-83.6281"/>
<polygon fill="#191970" stroke="#191970" points="2189.0552,-86.2641 2195.1018,-77.5642 2184.9496,-80.5945 2189.0552,-86.2641"/>
</g>
<!-- Node39&#45;&gt;Node16 -->
<g id="edge71" class="edge">
<title>Node39&#45;&gt;Node16</title>
<path fill="none" stroke="#191970" d="M2063.1452,-116.6038C2058.3722,-115.658 2053.613,-114.7748 2049,-114 1907.5722,-90.2454 1737.1777,-75.613 1665.0113,-70.0548"/>
<polygon fill="#191970" stroke="#191970" points="1664.9277,-66.5384 1654.6912,-69.2706 1664.3972,-73.5183 1664.9277,-66.5384"/>
</g>
<!-- Node39&#45;&gt;Node18 -->
<g id="edge68" class="edge">
<title>Node39&#45;&gt;Node18</title>
<path fill="none" stroke="#191970" d="M2063.294,-125.5929C2017.9145,-121.9456 1953.5127,-117.0864 1897,-114 1445.9212,-89.3643 905.646,-74.7523 694.1748,-69.6078"/>
<polygon fill="#191970" stroke="#191970" points="694.1332,-66.1059 684.0513,-69.3627 693.9636,-73.1038 694.1332,-66.1059"/>
</g>
<!-- Node40&#45;&gt;Node16 -->
<g id="edge77" class="edge">
<title>Node40&#45;&gt;Node16</title>
<path fill="none" stroke="#191970" d="M493.8763,-258.1336C502.5455,-229.1216 531.4391,-147.0741 589,-114 681.455,-60.876 1441.7315,-86.7805 1548,-78 1563.5384,-76.7161 1580.6552,-74.6311 1595.2129,-72.6561"/>
<polygon fill="#191970" stroke="#191970" points="1595.8803,-76.097 1605.3016,-71.2504 1594.9143,-69.164 1595.8803,-76.097"/>
</g>
<!-- Node40&#45;&gt;Node18 -->
<g id="edge75" class="edge">
<title>Node40&#45;&gt;Node18</title>
<path fill="none" stroke="#191970" d="M476.7506,-258.2756C464.9208,-248.8333 448.9494,-233.6307 442,-216 425.3761,-173.8247 414.7524,-150.2309 442,-114 453.1965,-99.112 493.4772,-87.4833 530.9434,-79.5785"/>
<polygon fill="#191970" stroke="#191970" points="531.7983,-82.9763 540.8973,-77.5488 530.3997,-76.1174 531.7983,-82.9763"/>
</g>
<!-- Node40&#45;&gt;Node22 -->
<g id="edge76" class="edge">
<title>Node40&#45;&gt;Node22</title>
<path fill="none" stroke="#191970" d="M574.8461,-266.1846C678.9529,-261.9193 861.4407,-249.8709 1014,-216 1104.5656,-195.8928 1126.2872,-184.8174 1211,-147 1212.1907,-146.4684 1213.3977,-145.9068 1214.6093,-145.3242"/>
<polygon fill="#191970" stroke="#191970" points="1216.5073,-148.2839 1223.7984,-140.5969 1213.305,-142.0592 1216.5073,-148.2839"/>
</g>
<!-- Node41&#45;&gt;Node7 -->
<g id="edge91" class="edge">
<title>Node41&#45;&gt;Node7</title>
<path fill="none" stroke="#191970" d="M1953.3194,-258.3836C2004.731,-237.0356 2121.2801,-188.8555 2140,-183 2209.5651,-161.2404 2237.0406,-183.7275 2300,-147 2325.8683,-131.9097 2347.6507,-104.4029 2360.2714,-86.0364"/>
<polygon fill="#191970" stroke="#191970" points="2363.2473,-87.8819 2365.8592,-77.614 2357.4142,-84.012 2363.2473,-87.8819"/>
</g>
<!-- Node41&#45;&gt;Node11 -->
<g id="edge89" class="edge">
<title>Node41&#45;&gt;Node11</title>
<path fill="none" stroke="#191970" d="M1946.519,-258.3407C1964.223,-247.9782 1992.2766,-231.2938 2016,-216 2037.759,-201.9726 2040.5804,-194.0339 2064,-183 2116.6862,-158.1774 2149.7272,-189.0726 2190,-147 2205.1243,-131.1998 2208.9241,-105.6077 2209.5533,-87.7417"/>
<polygon fill="#191970" stroke="#191970" points="2213.0542,-87.5518 2209.6024,-77.5351 2206.0543,-87.5181 2213.0542,-87.5518"/>
</g>
<!-- Node41&#45;&gt;Node18 -->
<g id="edge80" class="edge">
<title>Node41&#45;&gt;Node18</title>
<path fill="none" stroke="#191970" d="M1845.7635,-264.1619C1698.639,-255.999 1404.1158,-237.2521 1362,-216 1307.7618,-188.6307 1325.5471,-140.7484 1271,-114 1220.5587,-89.265 865.4321,-75.372 694.5044,-70.0504"/>
<polygon fill="#191970" stroke="#191970" points="694.3668,-66.5446 684.2638,-69.735 694.1513,-73.5413 694.3668,-66.5446"/>
</g>
<!-- Node41&#45;&gt;Node22 -->
<g id="edge90" class="edge">
<title>Node41&#45;&gt;Node22</title>
<path fill="none" stroke="#191970" d="M1845.763,-264.5068C1690.8983,-256.6053 1369.9803,-237.8378 1324,-216 1292.886,-201.2228 1267.1348,-169.5003 1252.9321,-149.1255"/>
<polygon fill="#191970" stroke="#191970" points="1255.7265,-147.0089 1247.2414,-140.6643 1249.918,-150.9155 1255.7265,-147.0089"/>
</g>
<!-- Node41&#45;&gt;Node42 -->
<g id="edge81" class="edge">
<title>Node41&#45;&gt;Node42</title>
<path fill="none" stroke="#191970" d="M1981.4925,-258.4668C2046.7273,-245.9981 2157.9215,-224.7449 2227.4921,-211.4475"/>
<polygon fill="#191970" stroke="#191970" points="2228.2791,-214.8605 2237.4441,-209.5453 2226.9648,-207.985 2228.2791,-214.8605"/>
</g>
<!-- Node42&#45;&gt;Node8 -->
<g id="edge83" class="edge">
<title>Node42&#45;&gt;Node8</title>
<path fill="none" stroke="#191970" d="M2354.9721,-189.4491C2435.5157,-176.679 2563.1103,-155.3015 2570,-147 2579.3667,-135.7139 2576.7993,-126.9954 2570,-114 2562.9222,-100.4725 2549.9202,-90.0909 2537.2402,-82.6052"/>
<polygon fill="#191970" stroke="#191970" points="2538.6104,-79.3662 2528.1534,-77.6625 2535.2656,-85.5154 2538.6104,-79.3662"/>
</g>
<!-- Node42&#45;&gt;Node10 -->
<g id="edge88" class="edge">
<title>Node42&#45;&gt;Node10</title>
<path fill="none" stroke="#191970" d="M2356.5463,-189.4944C2437.5916,-177.0356 2566.3002,-156.2664 2587,-147 2620.5045,-132.0016 2652.654,-103.4524 2671.3557,-84.9602"/>
<polygon fill="#191970" stroke="#191970" points="2673.9719,-87.2923 2678.5122,-77.7196 2668.9932,-82.3716 2673.9719,-87.2923"/>
</g>
<!-- Node42&#45;&gt;Node12 -->
<g id="edge82" class="edge">
<title>Node42&#45;&gt;Node12</title>
<path fill="none" stroke="#191970" d="M2360.0032,-192.0171C2465.5865,-180.5827 2660.612,-158.8445 2730,-147 2742.2432,-144.9101 2755.5145,-142.1191 2767.3927,-139.4279"/>
<polygon fill="#191970" stroke="#191970" points="2768.4586,-142.7738 2777.4116,-137.1086 2766.8799,-135.9541 2768.4586,-142.7738"/>
</g>
<!-- Node42&#45;&gt;Node15 -->
<g id="edge86" class="edge">
<title>Node42&#45;&gt;Node15</title>
<path fill="none" stroke="#191970" d="M2360.0883,-189.7422C2454.6407,-176.4668 2614.3496,-153.6079 2641,-147 2644.6565,-146.0934 2648.4296,-145.0175 2652.1736,-143.8563"/>
<polygon fill="#191970" stroke="#191970" points="2653.5174,-147.0985 2661.9166,-140.6406 2651.3234,-140.4512 2653.5174,-147.0985"/>
</g>
<!-- Node42&#45;&gt;Node24 -->
<g id="edge87" class="edge">
<title>Node42&#45;&gt;Node24</title>
<path fill="none" stroke="#191970" d="M2241.2259,-189.432C2229.6984,-187.1878 2217.4339,-184.9099 2206,-183 2090.502,-163.7071 2058.103,-177.3267 1945,-147 1907.4533,-136.9325 1901.7927,-123.1008 1864,-114 1814.6626,-102.1192 1465.5652,-77.3262 1355.8891,-69.7484"/>
<polygon fill="#191970" stroke="#191970" points="1355.9659,-66.2455 1345.7489,-69.0498 1355.4847,-73.2289 1355.9659,-66.2455"/>
</g>
<!-- Node42&#45;&gt;Node36 -->
<g id="edge84" class="edge">
<title>Node42&#45;&gt;Node36</title>
<path fill="none" stroke="#191970" d="M2219.9777,-195.7144C2150.2887,-192.0497 2040.2774,-186.5427 1945,-183 1342.5373,-160.5985 1191.458,-169.5276 589,-147 479.2735,-142.897 349.8364,-136.1246 286.2604,-132.6711"/>
<polygon fill="#191970" stroke="#191970" points="286.4454,-129.1761 276.2696,-132.1263 286.0642,-136.1657 286.4454,-129.1761"/>
</g>
<!-- Node42&#45;&gt;Node43 -->
<g id="edge85" class="edge">
<title>Node42&#45;&gt;Node43</title>
<path fill="none" stroke="#191970" d="M2242.5933,-189.4354C2230.6827,-187.1145 2217.9027,-184.8012 2206,-183 2057.0657,-160.4618 2015.2991,-182.8604 1869,-147 1865.6259,-146.173 1862.1606,-145.1374 1858.7368,-143.9903"/>
<polygon fill="#191970" stroke="#191970" points="1859.9019,-140.6897 1849.3081,-140.5429 1857.4981,-147.2641 1859.9019,-140.6897"/>
</g>
<!-- Node44&#45;&gt;Node3 -->
<g id="edge104" class="edge">
<title>Node44&#45;&gt;Node3</title>
<path fill="none" stroke="#191970" d="M1764.265,-384.2381C1769.6746,-360.4644 1784.3725,-299.9823 1804,-252 1808.6931,-240.5269 1815.1388,-228.2742 1820.6628,-218.4937"/>
<polygon fill="#191970" stroke="#191970" points="1823.7972,-220.0653 1825.7805,-209.6577 1817.7398,-216.5569 1823.7972,-220.0653"/>
</g>
<!-- Node44&#45;&gt;Node16 -->
<g id="edge107" class="edge">
<title>Node44&#45;&gt;Node16</title>
<path fill="none" stroke="#191970" d="M1768.1486,-384.1362C1774.3371,-373.6145 1784.0745,-356.8089 1792,-342 1813.1021,-302.5703 1803.2151,-281.3015 1837,-252 1875.2233,-218.8491 1915.4157,-257.046 1945,-216 1953.5758,-204.1018 1954.3449,-194.3041 1945,-183 1890.7951,-117.4305 1836.185,-178.101 1757,-147 1716.4605,-131.0775 1674.6222,-101.9744 1650.5263,-83.7437"/>
<polygon fill="#191970" stroke="#191970" points="1652.5482,-80.8834 1642.4869,-77.5636 1648.282,-86.4331 1652.5482,-80.8834"/>
</g>
<!-- Node44&#45;&gt;Node18 -->
<g id="edge103" class="edge">
<title>Node44&#45;&gt;Node18</title>
<path fill="none" stroke="#191970" d="M1652.9172,-389.1451C1583.6345,-385.8002 1492.0616,-381.4827 1411,-378 1308.2392,-373.5851 584.6382,-371.151 486,-342 341.6162,-299.3296 275.7982,-281.9276 209,-147 202.4928,-133.8559 199.2558,-124.9618 209,-114 228.7747,-91.7542 401.4732,-78.3498 511.5687,-71.9893"/>
<polygon fill="#191970" stroke="#191970" points="511.9049,-75.4759 521.6902,-71.4141 511.5077,-68.4872 511.9049,-75.4759"/>
</g>
<!-- Node44&#45;&gt;Node37 -->
<g id="edge105" class="edge">
<title>Node44&#45;&gt;Node37</title>
<path fill="none" stroke="#191970" d="M1659.2825,-384.4827C1532.5054,-372.1189 1319.2544,-351.322 1201.1561,-339.8047"/>
<polygon fill="#191970" stroke="#191970" points="1201.3694,-336.309 1191.0769,-338.8217 1200.6899,-343.2759 1201.3694,-336.309"/>
</g>
<!-- Node44&#45;&gt;Node41 -->
<g id="edge106" class="edge">
<title>Node44&#45;&gt;Node41</title>
<path fill="none" stroke="#191970" d="M1775.4342,-384.455C1789.5371,-373.9028 1812.349,-356.8141 1832,-342 1858.1603,-322.2788 1888.2155,-299.4836 1907.8505,-284.5729"/>
<polygon fill="#191970" stroke="#191970" points="1909.9903,-287.3428 1915.8365,-278.5068 1905.7562,-281.7685 1909.9903,-287.3428"/>
</g>
<!-- Node46&#45;&gt;Node3 -->
<g id="edge115" class="edge">
<title>Node46&#45;&gt;Node3</title>
<path fill="none" stroke="#191970" d="M1344.1157,-384.4813C1374.8704,-374.1604 1423.937,-357.4461 1466,-342 1588.9842,-296.8386 1733.529,-239.1971 1797.9934,-213.2484"/>
<polygon fill="#191970" stroke="#191970" points="1799.3071,-216.4926 1807.2743,-209.5088 1796.6908,-209.9999 1799.3071,-216.4926"/>
</g>
<!-- Node46&#45;&gt;Node16 -->
<g id="edge118" class="edge">
<title>Node46&#45;&gt;Node16</title>
<path fill="none" stroke="#191970" d="M1333.9528,-384.3887C1403.8599,-348.8712 1633.9852,-231.1471 1643,-216 1650.5009,-203.3965 1651.3745,-195.0407 1643,-183 1616.7434,-145.2487 1572.2566,-184.7513 1546,-147 1537.6255,-134.9593 1538.5525,-126.6351 1546,-114 1556.7619,-95.7417 1577.555,-84.1494 1595.7601,-77.1055"/>
<polygon fill="#191970" stroke="#191970" points="1596.9987,-80.3798 1605.2516,-73.736 1594.6569,-73.7831 1596.9987,-80.3798"/>
</g>
<!-- Node46&#45;&gt;Node18 -->
<g id="edge114" class="edge">
<title>Node46&#45;&gt;Node18</title>
<path fill="none" stroke="#191970" d="M1225.8725,-393.024C1023.1381,-389.0779 528.6257,-376.1607 366,-342 295.3916,-327.1682 275.5857,-322.5863 214,-285 175.0575,-261.2331 156.4703,-257.7161 138,-216 119.6467,-174.548 107.5811,-147.6125 138,-114 162.5477,-86.8751 383.3285,-74.8897 511.644,-70.1753"/>
<polygon fill="#191970" stroke="#191970" points="511.9918,-73.6652 521.8596,-69.8081 511.7403,-66.6697 511.9918,-73.6652"/>
</g>
<!-- Node46&#45;&gt;Node33 -->
<g id="edge117" class="edge">
<title>Node46&#45;&gt;Node33</title>
<path fill="none" stroke="#191970" d="M1306.5559,-384.4733C1277.2676,-345.0237 1169.7103,-200.1506 1131.5438,-148.7427"/>
<polygon fill="#191970" stroke="#191970" points="1134.2228,-146.4795 1125.4515,-140.5367 1128.6024,-150.6522 1134.2228,-146.4795"/>
</g>
<!-- Node46&#45;&gt;Node37 -->
<g id="edge116" class="edge">
<title>Node46&#45;&gt;Node37</title>
<path fill="none" stroke="#191970" d="M1282.1879,-384.378C1248.2699,-373.5859 1194.43,-356.455 1157.2696,-344.6312"/>
<polygon fill="#191970" stroke="#191970" points="1158.3237,-341.2938 1147.7332,-341.5969 1156.2012,-347.9643 1158.3237,-341.2938"/>
</g>
<!-- Node48&#45;&gt;Node3 -->
<g id="edge128" class="edge">
<title>Node48&#45;&gt;Node3</title>
<path fill="none" stroke="#191970" d="M2482.2453,-253.0376C2479.4676,-252.6705 2476.714,-252.3232 2474,-252 2242.2004,-224.3925 2182.1823,-240.1786 1950,-216 1936.3415,-214.5777 1921.8316,-212.7834 1907.8304,-210.9058"/>
<polygon fill="#191970" stroke="#191970" points="1908.1264,-207.4138 1897.7447,-209.528 1907.1789,-214.3494 1908.1264,-207.4138"/>
</g>
<!-- Node48&#45;&gt;Node5 -->
<g id="edge129" class="edge">
<title>Node48&#45;&gt;Node5</title>
<path fill="none" stroke="#191970" d="M2625.0405,-252.4966C2659.3245,-242.3438 2703.8545,-229.1568 2739.9178,-218.4771"/>
<polygon fill="#191970" stroke="#191970" points="2741.2549,-221.7315 2749.8494,-215.536 2739.2672,-215.0196 2741.2549,-221.7315"/>
</g>
<!-- Node48&#45;&gt;Node16 -->
<g id="edge133" class="edge">
<title>Node48&#45;&gt;Node16</title>
<path fill="none" stroke="#191970" d="M2532.6741,-252.4878C2507.9226,-242.1259 2475.0353,-228.3191 2446,-216 2411.7247,-201.4577 2405.0515,-192.3037 2369,-183 2214.1594,-143.0407 2166.9782,-182.2584 2011,-147 1968.6293,-137.4222 1961.0681,-124.8299 1919,-114 1828.7995,-90.779 1719.622,-76.9731 1664.8747,-71.0035"/>
<polygon fill="#191970" stroke="#191970" points="1664.988,-67.4957 1654.6728,-69.9136 1664.2443,-74.4561 1664.988,-67.4957"/>
</g>
<!-- Node48&#45;&gt;Node17 -->
<g id="edge130" class="edge">
<title>Node48&#45;&gt;Node17</title>
<path fill="none" stroke="#191970" d="M2557.7798,-252.4966C2550.7593,-243.9981 2541.9827,-233.3738 2534.1346,-223.8735"/>
<polygon fill="#191970" stroke="#191970" points="2536.6116,-221.3763 2527.5443,-215.8958 2531.2148,-225.8345 2536.6116,-221.3763"/>
</g>
<!-- Node48&#45;&gt;Node18 -->
<g id="edge127" class="edge">
<title>Node48&#45;&gt;Node18</title>
<path fill="none" stroke="#191970" d="M2482.4721,-253.3193C2479.6157,-252.8685 2476.7859,-252.4275 2474,-252 2357.3861,-234.1055 2327.6674,-233.5423 2211,-216 2023.5002,-187.8072 1974.9981,-188.5536 1790,-147 1738.1188,-135.3466 1727.4828,-122.545 1675,-114 1487.3538,-83.4484 917.45,-72.0547 694.138,-68.6912"/>
<polygon fill="#191970" stroke="#191970" points="694.1407,-65.1909 684.0898,-68.5417 694.0366,-72.1901 694.1407,-65.1909"/>
</g>
<!-- Node48&#45;&gt;Node21 -->
<g id="edge131" class="edge">
<title>Node48&#45;&gt;Node21</title>
<path fill="none" stroke="#191970" d="M2659.6443,-253.3818C2662.8001,-252.9052 2665.9261,-252.4429 2669,-252 2801.917,-232.8465 2840.1506,-253.8367 2969,-216 3001.2321,-206.535 3005.9575,-195.8397 3037,-183 3073.4323,-167.931 3115.9231,-153.5115 3146.7022,-143.6104"/>
<polygon fill="#191970" stroke="#191970" points="3147.799,-146.9344 3156.2613,-140.5594 3145.6705,-140.2658 3147.799,-146.9344"/>
</g>
<!-- Node48&#45;&gt;Node25 -->
<g id="edge132" class="edge">
<title>Node48&#45;&gt;Node25</title>
<path fill="none" stroke="#191970" d="M2659.6352,-253.3166C2662.7935,-252.8584 2665.9226,-252.4178 2669,-252 2823.0785,-231.0812 2864.9058,-248.3287 3017,-216 3063.1922,-206.1815 3072.7747,-196.594 3118,-183 3175.8249,-165.6187 3193.051,-169.7054 3249,-147 3250.377,-146.4412 3251.7711,-145.8342 3253.1659,-145.1937"/>
<polygon fill="#191970" stroke="#191970" points="3254.8513,-148.2637 3262.206,-140.6375 3251.7008,-142.0128 3254.8513,-148.2637"/>
</g>
<!-- Node49&#45;&gt;Node3 -->
<g id="edge136" class="edge">
<title>Node49&#45;&gt;Node3</title>
<path fill="none" stroke="#191970" d="M2314.8127,-259.9961C2227.166,-249.9747 2077.9816,-232.5814 1950,-216 1937.698,-214.4061 1924.6844,-212.6536 1911.9677,-210.9042"/>
<polygon fill="#191970" stroke="#191970" points="1912.2372,-207.4082 1901.852,-209.5049 1911.278,-214.3422 1912.2372,-207.4082"/>
</g>
<!-- Node49&#45;&gt;Node17 -->
<g id="edge137" class="edge">
<title>Node49&#45;&gt;Node17</title>
<path fill="none" stroke="#191970" d="M2418.7598,-252.4966C2435.8522,-242.9855 2457.73,-230.8115 2476.2059,-220.5306"/>
<polygon fill="#191970" stroke="#191970" points="2477.9303,-223.5765 2484.9667,-215.6557 2474.5265,-217.4597 2477.9303,-223.5765"/>
</g>
<!-- Node49&#45;&gt;Node18 -->
<g id="edge135" class="edge">
<title>Node49&#45;&gt;Node18</title>
<path fill="none" stroke="#191970" d="M2314.7747,-264.9763C2092.6104,-254.4921 1453.5729,-223.7448 1433,-216 1364.2693,-190.1259 1371.5805,-140.2698 1303,-114 1247.598,-92.7782 871.034,-76.9239 694.2765,-70.56"/>
<polygon fill="#191970" stroke="#191970" points="694.3309,-67.0598 684.2122,-70.2002 694.0807,-74.0553 694.3309,-67.0598"/>
</g>
<!-- Node49&#45;&gt;Node21 -->
<g id="edge139" class="edge">
<title>Node49&#45;&gt;Node21</title>
<path fill="none" stroke="#191970" d="M2465.0358,-253.3295C2468.0591,-252.855 2471.0559,-252.4091 2474,-252 2667.0254,-225.177 2724.809,-273.5428 2911,-216 2939.3358,-207.2428 2941.3414,-193.7055 2969,-183 3036.9747,-156.6898 3058.2849,-164.6684 3129,-147 3133.7296,-145.8183 3138.6561,-144.5405 3143.5632,-143.2372"/>
<polygon fill="#191970" stroke="#191970" points="3144.794,-146.5305 3153.5388,-140.5489 3142.9725,-139.7716 3144.794,-146.5305"/>
</g>
<!-- Node49&#45;&gt;Node26 -->
<g id="edge138" class="edge">
<title>Node49&#45;&gt;Node26</title>
<path fill="none" stroke="#191970" d="M2450.0545,-252.432C2488.179,-242.1653 2538.5353,-228.4825 2583,-216 2587.1287,-214.841 2591.4216,-213.6226 2595.7164,-212.3949"/>
<polygon fill="#191970" stroke="#191970" points="2597.0196,-215.6622 2605.6641,-209.5367 2595.0864,-208.9344 2597.0196,-215.6622"/>
</g>
</g>
</svg>
