<?xml version="1.0" encoding="UTF-8" standalone="no"?>
<!DOCTYPE svg PUBLIC "-//W3C//DTD SVG 1.1//EN"
 "http://www.w3.org/Graphics/SVG/1.1/DTD/svg11.dtd">
<!-- Generated by graphviz version 2.40.1 (20161225.0304)
 -->
<!-- Title: nlohmann::detail::to_chars Pages: 1 -->
<svg width="661pt" height="206pt"
 viewBox="0.00 0.00 661.00 206.00" xmlns="http://www.w3.org/2000/svg" xmlns:xlink="http://www.w3.org/1999/xlink">
<g id="graph0" class="graph" transform="scale(1 1) rotate(0) translate(4 202)">
<title>nlohmann::detail::to_chars</title>
<!-- Node1 -->
<g id="node1" class="node">
<title>Node1</title>
<polygon fill="#bfbfbf" stroke="#000000" points="0,-133.5 0,-165.5 119,-165.5 119,-133.5 0,-133.5"/>
<text text-anchor="start" x="8" y="-152.5" font-family="FreeSans" font-size="10.00" fill="#000000">nlohmann::detail::to</text>
<text text-anchor="middle" x="59.5" y="-140.5" font-family="FreeSans" font-size="10.00" fill="#000000">_chars</text>
</g>
<!-- Node2 -->
<g id="node2" class="node">
<title>Node2</title>
<g id="a_node2"><a xlink:href="../../dc/d41/namespacenlohmann_1_1detail_1_1dtoa__impl.html#ab441f2761e33839ca48bc2225e14a2a9" target="_top" xlink:title="prettify v = buf * 10^decimal_exponent">
<polygon fill="none" stroke="#000000" points="155,-162.5 155,-194.5 286,-194.5 286,-162.5 155,-162.5"/>
<text text-anchor="start" x="163" y="-181.5" font-family="FreeSans" font-size="10.00" fill="#000000">nlohmann::detail::dtoa</text>
<text text-anchor="middle" x="220.5" y="-169.5" font-family="FreeSans" font-size="10.00" fill="#000000">_impl::format_buffer</text>
</a>
</g>
</g>
<!-- Node1&#45;&gt;Node2 -->
<g id="edge1" class="edge">
<title>Node1&#45;&gt;Node2</title>
<path fill="none" stroke="#191970" d="M119.4505,-160.2985C127.7398,-161.7916 136.3408,-163.3409 144.8686,-164.8769"/>
<polygon fill="#191970" stroke="#191970" points="144.3607,-168.3417 154.8228,-166.67 145.6017,-161.4526 144.3607,-168.3417"/>
</g>
<!-- Node4 -->
<g id="node4" class="node">
<title>Node4</title>
<g id="a_node4"><a xlink:href="../../dc/d41/namespacenlohmann_1_1detail_1_1dtoa__impl.html#a05b681dcb8569b9784c6dccfadb01633" target="_top" xlink:title="nlohmann::detail::dtoa\l_impl::grisu2">
<polygon fill="none" stroke="#000000" points="155,-108.5 155,-140.5 286,-140.5 286,-108.5 155,-108.5"/>
<text text-anchor="start" x="163" y="-127.5" font-family="FreeSans" font-size="10.00" fill="#000000">nlohmann::detail::dtoa</text>
<text text-anchor="middle" x="220.5" y="-115.5" font-family="FreeSans" font-size="10.00" fill="#000000">_impl::grisu2</text>
</a>
</g>
</g>
<!-- Node1&#45;&gt;Node4 -->
<g id="edge3" class="edge">
<title>Node1&#45;&gt;Node4</title>
<path fill="none" stroke="#191970" d="M119.4505,-140.1909C127.7398,-138.9038 136.3408,-137.5682 144.8686,-136.244"/>
<polygon fill="#191970" stroke="#191970" points="145.4783,-139.6914 154.8228,-134.6983 144.4042,-132.7743 145.4783,-139.6914"/>
</g>
<!-- Node3 -->
<g id="node3" class="node">
<title>Node3</title>
<g id="a_node3"><a xlink:href="../../dc/d41/namespacenlohmann_1_1detail_1_1dtoa__impl.html#ad90f19ed10d8133b727df4b9bc5ddf5c" target="_top" xlink:title="appends a decimal representation of e to buf">
<polygon fill="none" stroke="#000000" points="323.5,-165.5 323.5,-197.5 466.5,-197.5 466.5,-165.5 323.5,-165.5"/>
<text text-anchor="start" x="331.5" y="-184.5" font-family="FreeSans" font-size="10.00" fill="#000000">nlohmann::detail::dtoa</text>
<text text-anchor="middle" x="395" y="-172.5" font-family="FreeSans" font-size="10.00" fill="#000000">_impl::append_exponent</text>
</a>
</g>
</g>
<!-- Node2&#45;&gt;Node3 -->
<g id="edge2" class="edge">
<title>Node2&#45;&gt;Node3</title>
<path fill="none" stroke="#191970" d="M286.471,-179.6342C295.2364,-179.7849 304.3071,-179.9408 313.2988,-180.0954"/>
<polygon fill="#191970" stroke="#191970" points="313.338,-183.5965 323.3967,-180.269 313.4584,-176.5975 313.338,-183.5965"/>
</g>
<!-- Node5 -->
<g id="node5" class="node">
<title>Node5</title>
<g id="a_node5"><a xlink:href="../../dc/d41/namespacenlohmann_1_1detail_1_1dtoa__impl.html#adbf329a18c5cf854a3477327afd2200b" target="_top" xlink:title="nlohmann::detail::dtoa\l_impl::get_cached_power\l_for_binary_exponent">
<polygon fill="none" stroke="#000000" points="322,-102.5 322,-146.5 468,-146.5 468,-102.5 322,-102.5"/>
<text text-anchor="start" x="330" y="-133.5" font-family="FreeSans" font-size="10.00" fill="#000000">nlohmann::detail::dtoa</text>
<text text-anchor="start" x="330" y="-121.5" font-family="FreeSans" font-size="10.00" fill="#000000">_impl::get_cached_power</text>
<text text-anchor="middle" x="395" y="-109.5" font-family="FreeSans" font-size="10.00" fill="#000000">_for_binary_exponent</text>
</a>
</g>
</g>
<!-- Node4&#45;&gt;Node5 -->
<g id="edge4" class="edge">
<title>Node4&#45;&gt;Node5</title>
<path fill="none" stroke="#191970" d="M286.471,-124.5C294.7048,-124.5 303.208,-124.5 311.6621,-124.5"/>
<polygon fill="#191970" stroke="#191970" points="311.9285,-128.0001 321.9284,-124.5 311.9284,-121.0001 311.9285,-128.0001"/>
</g>
<!-- Node6 -->
<g id="node6" class="node">
<title>Node6</title>
<g id="a_node6"><a xlink:href="../../dc/d41/namespacenlohmann_1_1detail_1_1dtoa__impl.html#a9b899c72b0e1e3dd46d75c2b4e6bcdfb" target="_top" xlink:title="nlohmann::detail::dtoa\l_impl::grisu2_digit_gen">
<polygon fill="none" stroke="#000000" points="328,-51.5 328,-83.5 462,-83.5 462,-51.5 328,-51.5"/>
<text text-anchor="start" x="336" y="-70.5" font-family="FreeSans" font-size="10.00" fill="#000000">nlohmann::detail::dtoa</text>
<text text-anchor="middle" x="395" y="-58.5" font-family="FreeSans" font-size="10.00" fill="#000000">_impl::grisu2_digit_gen</text>
</a>
</g>
</g>
<!-- Node4&#45;&gt;Node6 -->
<g id="edge5" class="edge">
<title>Node4&#45;&gt;Node6</title>
<path fill="none" stroke="#191970" d="M269.5724,-108.4706C290.2904,-101.7031 314.5859,-93.7671 336.2484,-86.6911"/>
<polygon fill="#191970" stroke="#191970" points="337.575,-89.9398 345.9939,-83.5077 335.4014,-83.2858 337.575,-89.9398"/>
</g>
<!-- Node7 -->
<g id="node7" class="node">
<title>Node7</title>
<g id="a_node7"><a xlink:href="../../d1/d24/namespacecentrality.html#a78957542206b2fc7b74d88cfed409426" target="_top" xlink:title="centrality.dist">
<polygon fill="none" stroke="#000000" points="536,-102.5 536,-122.5 621,-122.5 621,-102.5 536,-102.5"/>
<text text-anchor="middle" x="578.5" y="-109.5" font-family="FreeSans" font-size="10.00" fill="#000000">centrality.dist</text>
</a>
</g>
</g>
<!-- Node6&#45;&gt;Node7 -->
<g id="edge6" class="edge">
<title>Node6&#45;&gt;Node7</title>
<path fill="none" stroke="#191970" d="M460.4706,-83.5555C482.5838,-88.9783 506.9212,-94.9466 527.7226,-100.0478"/>
<polygon fill="#191970" stroke="#191970" points="527.0791,-103.4936 537.6249,-102.4761 528.7464,-96.695 527.0791,-103.4936"/>
</g>
<!-- Node8 -->
<g id="node8" class="node">
<title>Node8</title>
<g id="a_node8"><a xlink:href="../../dc/d41/namespacenlohmann_1_1detail_1_1dtoa__impl.html#a36ded358763b5dbcea9867660fbe4e28" target="_top" xlink:title="nlohmann::detail::dtoa\l_impl::find_largest_pow10">
<polygon fill="none" stroke="#000000" points="504,-51.5 504,-83.5 653,-83.5 653,-51.5 504,-51.5"/>
<text text-anchor="start" x="512" y="-70.5" font-family="FreeSans" font-size="10.00" fill="#000000">nlohmann::detail::dtoa</text>
<text text-anchor="middle" x="578.5" y="-58.5" font-family="FreeSans" font-size="10.00" fill="#000000">_impl::find_largest_pow10</text>
</a>
</g>
</g>
<!-- Node6&#45;&gt;Node8 -->
<g id="edge7" class="edge">
<title>Node6&#45;&gt;Node8</title>
<path fill="none" stroke="#191970" d="M462.0266,-67.5C472.3456,-67.5 483.1153,-67.5 493.7586,-67.5"/>
<polygon fill="#191970" stroke="#191970" points="493.9054,-71.0001 503.9054,-67.5 493.9053,-64.0001 493.9054,-71.0001"/>
</g>
<!-- Node9 -->
<g id="node9" class="node">
<title>Node9</title>
<g id="a_node9"><a xlink:href="../../dc/d41/namespacenlohmann_1_1detail_1_1dtoa__impl.html#a5bc841e0bee12fd6489d49cf7bd07bb4" target="_top" xlink:title="nlohmann::detail::dtoa\l_impl::grisu2_round">
<polygon fill="none" stroke="#000000" points="513,-.5 513,-32.5 644,-32.5 644,-.5 513,-.5"/>
<text text-anchor="start" x="521" y="-19.5" font-family="FreeSans" font-size="10.00" fill="#000000">nlohmann::detail::dtoa</text>
<text text-anchor="middle" x="578.5" y="-7.5" font-family="FreeSans" font-size="10.00" fill="#000000">_impl::grisu2_round</text>
</a>
</g>
</g>
<!-- Node6&#45;&gt;Node9 -->
<g id="edge8" class="edge">
<title>Node6&#45;&gt;Node9</title>
<path fill="none" stroke="#191970" d="M452.8087,-51.4333C471.2374,-46.3114 491.7928,-40.5985 510.8542,-35.3007"/>
<polygon fill="#191970" stroke="#191970" points="511.9692,-38.6236 520.6667,-32.5736 510.0947,-31.8792 511.9692,-38.6236"/>
</g>
</g>
</svg>
