<?xml version="1.0" encoding="UTF-8" standalone="no"?>
<!DOCTYPE svg PUBLIC "-//W3C//DTD SVG 1.1//EN"
 "http://www.w3.org/Graphics/SVG/1.1/DTD/svg11.dtd">
<!-- Generated by graphviz version 2.40.1 (20161225.0304)
 -->
<!-- Title: SaveAsCSV Pages: 1 -->
<svg width="558pt" height="299pt"
 viewBox="0.00 0.00 558.00 299.00" xmlns="http://www.w3.org/2000/svg" xmlns:xlink="http://www.w3.org/1999/xlink">
<g id="graph0" class="graph" transform="scale(1 1) rotate(0) translate(4 295)">
<title>SaveAsCSV</title>
<!-- Node1 -->
<g id="node1" class="node">
<title>Node1</title>
<polygon fill="#bfbfbf" stroke="#000000" points="0,-123.5 0,-143.5 74,-143.5 74,-123.5 0,-123.5"/>
<text text-anchor="middle" x="37" y="-130.5" font-family="FreeSans" font-size="10.00" fill="#000000">SaveAsCSV</text>
</g>
<!-- Node2 -->
<g id="node2" class="node">
<title>Node2</title>
<g id="a_node2"><a xlink:href="../../da/de5/ThicknessScan_8m.html#a5f84f51058cdb4f43c29d2c875659f42" target="_top" xlink:title="fclose">
<polygon fill="none" stroke="#000000" points="169,-270.5 169,-290.5 215,-290.5 215,-270.5 169,-270.5"/>
<text text-anchor="middle" x="192" y="-277.5" font-family="FreeSans" font-size="10.00" fill="#000000">fclose</text>
</a>
</g>
</g>
<!-- Node1&#45;&gt;Node2 -->
<g id="edge1" class="edge">
<title>Node1&#45;&gt;Node2</title>
<path fill="none" stroke="#191970" d="M39.7354,-143.6989C46.8513,-168.1706 68.3485,-230.4828 110,-261.5 123.9409,-271.8816 142.6294,-276.7177 158.644,-278.9204"/>
<polygon fill="#191970" stroke="#191970" points="158.3842,-282.4127 168.7051,-280.0194 159.1443,-275.4541 158.3842,-282.4127"/>
</g>
<!-- Node3 -->
<g id="node3" class="node">
<title>Node3</title>
<g id="a_node3"><a xlink:href="../../d7/d95/classTSQLResultSetMetaData.html#a12d3efdbfd53b07f4d4d81af3435846f" target="_top" xlink:title="TSQLResultSetMetaData\l::GetColumnCount">
<polygon fill="none" stroke="#000000" points="122.5,-219.5 122.5,-251.5 261.5,-251.5 261.5,-219.5 122.5,-219.5"/>
<text text-anchor="start" x="130.5" y="-238.5" font-family="FreeSans" font-size="10.00" fill="#000000">TSQLResultSetMetaData</text>
<text text-anchor="middle" x="192" y="-226.5" font-family="FreeSans" font-size="10.00" fill="#000000">::GetColumnCount</text>
</a>
</g>
</g>
<!-- Node1&#45;&gt;Node3 -->
<g id="edge2" class="edge">
<title>Node1&#45;&gt;Node3</title>
<path fill="none" stroke="#191970" d="M43.8535,-143.5799C55.5289,-159.9947 80.862,-192.4749 110,-210.5 112.6362,-212.1308 115.3863,-213.6617 118.2142,-215.0982"/>
<polygon fill="#191970" stroke="#191970" points="116.9204,-218.3559 127.4665,-219.3713 119.8555,-212.0009 116.9204,-218.3559"/>
</g>
<!-- Node4 -->
<g id="node4" class="node">
<title>Node4</title>
<g id="a_node4"><a xlink:href="../../d7/d95/classTSQLResultSetMetaData.html#a339fe80e1f5c41d8d36c2d885e92794c" target="_top" xlink:title="TSQLResultSetMetaData\l::GetColumnName">
<polygon fill="none" stroke="#000000" points="122.5,-168.5 122.5,-200.5 261.5,-200.5 261.5,-168.5 122.5,-168.5"/>
<text text-anchor="start" x="130.5" y="-187.5" font-family="FreeSans" font-size="10.00" fill="#000000">TSQLResultSetMetaData</text>
<text text-anchor="middle" x="192" y="-175.5" font-family="FreeSans" font-size="10.00" fill="#000000">::GetColumnName</text>
</a>
</g>
</g>
<!-- Node1&#45;&gt;Node4 -->
<g id="edge3" class="edge">
<title>Node1&#45;&gt;Node4</title>
<path fill="none" stroke="#191970" d="M64.2823,-143.5545C77.9556,-148.5073 94.7983,-154.4785 110,-159.5 115.9354,-161.4606 122.1305,-163.4508 128.3401,-165.4081"/>
<polygon fill="#191970" stroke="#191970" points="127.4863,-168.8081 138.0751,-168.4479 129.5728,-162.1263 127.4863,-168.8081"/>
</g>
<!-- Node8 -->
<g id="node8" class="node">
<title>Node8</title>
<g id="a_node8"><a xlink:href="../../d7/d95/classTSQLResultSetMetaData.html#a353f35211485b7247cba84991094024d" target="_top" xlink:title="TSQLResultSetMetaData\l::GetColumnType">
<polygon fill="none" stroke="#000000" points="122.5,-117.5 122.5,-149.5 261.5,-149.5 261.5,-117.5 122.5,-117.5"/>
<text text-anchor="start" x="130.5" y="-136.5" font-family="FreeSans" font-size="10.00" fill="#000000">TSQLResultSetMetaData</text>
<text text-anchor="middle" x="192" y="-124.5" font-family="FreeSans" font-size="10.00" fill="#000000">::GetColumnType</text>
</a>
</g>
</g>
<!-- Node1&#45;&gt;Node8 -->
<g id="edge7" class="edge">
<title>Node1&#45;&gt;Node8</title>
<path fill="none" stroke="#191970" d="M74.1264,-133.5C85.6882,-133.5 98.9132,-133.5 112.2278,-133.5"/>
<polygon fill="#191970" stroke="#191970" points="112.4009,-137.0001 122.4009,-133.5 112.4008,-130.0001 112.4009,-137.0001"/>
</g>
<!-- Node9 -->
<g id="node9" class="node">
<title>Node9</title>
<g id="a_node9"><a xlink:href="../../d0/db4/classTSQLResultSet.html#a53f804225d7fd6c27fe3550a70dfd85e" target="_top" xlink:title="TSQLResultSet::GetMetaData">
<polygon fill="none" stroke="#000000" points="110,-78.5 110,-98.5 274,-98.5 274,-78.5 110,-78.5"/>
<text text-anchor="middle" x="192" y="-85.5" font-family="FreeSans" font-size="10.00" fill="#000000">TSQLResultSet::GetMetaData</text>
</a>
</g>
</g>
<!-- Node1&#45;&gt;Node9 -->
<g id="edge9" class="edge">
<title>Node1&#45;&gt;Node9</title>
<path fill="none" stroke="#191970" d="M64.5425,-123.4072C78.1332,-118.5965 94.8283,-112.9382 110,-108.5 118.8823,-105.9017 128.3728,-103.3681 137.6307,-101.0255"/>
<polygon fill="#191970" stroke="#191970" points="138.6833,-104.3705 147.5455,-98.5645 136.9969,-97.5767 138.6833,-104.3705"/>
</g>
<!-- Node10 -->
<g id="node10" class="node">
<title>Node10</title>
<g id="a_node10"><a xlink:href="../../d0/db4/classTSQLResultSet.html#a43772f9b242b2779437df9a2ecf69599" target="_top" xlink:title="TSQLResultSet::GetString">
<polygon fill="none" stroke="#000000" points="119,-39.5 119,-59.5 265,-59.5 265,-39.5 119,-39.5"/>
<text text-anchor="middle" x="192" y="-46.5" font-family="FreeSans" font-size="10.00" fill="#000000">TSQLResultSet::GetString</text>
</a>
</g>
</g>
<!-- Node1&#45;&gt;Node10 -->
<g id="edge10" class="edge">
<title>Node1&#45;&gt;Node10</title>
<path fill="none" stroke="#191970" d="M45.788,-123.1511C58.4874,-108.8758 83.3824,-83.341 110,-69.5 114.8753,-66.9649 120.0818,-64.7433 125.4179,-62.7978"/>
<polygon fill="#191970" stroke="#191970" points="126.726,-66.0517 135.1192,-59.5861 124.5259,-59.4064 126.726,-66.0517"/>
</g>
<!-- Node11 -->
<g id="node11" class="node">
<title>Node11</title>
<g id="a_node11"><a xlink:href="../../d0/db4/classTSQLResultSet.html#a91d513d9731181f4d01127d59da91522" target="_top" xlink:title="TSQLResultSet::Next">
<polygon fill="none" stroke="#000000" points="131,-.5 131,-20.5 253,-20.5 253,-.5 131,-.5"/>
<text text-anchor="middle" x="192" y="-7.5" font-family="FreeSans" font-size="10.00" fill="#000000">TSQLResultSet::Next</text>
</a>
</g>
</g>
<!-- Node1&#45;&gt;Node11 -->
<g id="edge12" class="edge">
<title>Node1&#45;&gt;Node11</title>
<path fill="none" stroke="#191970" d="M41.1539,-123.4753C50.3083,-102.6783 74.2843,-54.7634 110,-30.5 113.5454,-28.0914 117.3511,-25.9722 121.3114,-24.1076"/>
<polygon fill="#191970" stroke="#191970" points="122.8717,-27.2501 130.7827,-20.2026 120.2035,-20.7786 122.8717,-27.2501"/>
</g>
<!-- Node5 -->
<g id="node5" class="node">
<title>Node5</title>
<g id="a_node5"><a xlink:href="../../dd/d4d/classTSQL.html#a12129fd04a2499449c8d13ed374f007a" target="_top" xlink:title="TSQL::Throw">
<polygon fill="none" stroke="#000000" points="310,-123.5 310,-143.5 391,-143.5 391,-123.5 310,-123.5"/>
<text text-anchor="middle" x="350.5" y="-130.5" font-family="FreeSans" font-size="10.00" fill="#000000">TSQL::Throw</text>
</a>
</g>
</g>
<!-- Node4&#45;&gt;Node5 -->
<g id="edge4" class="edge">
<title>Node4&#45;&gt;Node5</title>
<path fill="none" stroke="#191970" d="M245.4489,-168.4723C254.9741,-165.5397 264.7924,-162.4675 274,-159.5 286.3081,-155.5333 299.672,-151.0519 311.7353,-146.9408"/>
<polygon fill="#191970" stroke="#191970" points="313.1835,-150.1445 321.5108,-143.5941 310.9162,-143.5219 313.1835,-150.1445"/>
</g>
<!-- Node6 -->
<g id="node6" class="node">
<title>Node6</title>
<g id="a_node6"><a xlink:href="../../da/d23/msg__buffer_8cc.html#a98631211a4a8aee62f572375d5b637be" target="_top" xlink:title="printf">
<polygon fill="none" stroke="#000000" points="466.5,-143.5 466.5,-163.5 510.5,-163.5 510.5,-143.5 466.5,-143.5"/>
<text text-anchor="middle" x="488.5" y="-150.5" font-family="FreeSans" font-size="10.00" fill="#000000">printf</text>
</a>
</g>
</g>
<!-- Node5&#45;&gt;Node6 -->
<g id="edge5" class="edge">
<title>Node5&#45;&gt;Node6</title>
<path fill="none" stroke="#191970" d="M391.1582,-139.3925C411.8195,-142.3869 436.5845,-145.976 455.9645,-148.7847"/>
<polygon fill="#191970" stroke="#191970" points="455.7183,-152.2855 466.1169,-150.2561 456.7223,-145.3579 455.7183,-152.2855"/>
</g>
<!-- Node7 -->
<g id="node7" class="node">
<title>Node7</title>
<g id="a_node7"><a xlink:href="../../d8/d8f/classTSQLException.html#a395335cef98b7d73b7cb158032dcd7e4" target="_top" xlink:title="TSQLException::Print">
<polygon fill="none" stroke="#000000" points="427,-104.5 427,-124.5 550,-124.5 550,-104.5 427,-104.5"/>
<text text-anchor="middle" x="488.5" y="-111.5" font-family="FreeSans" font-size="10.00" fill="#000000">TSQLException::Print</text>
</a>
</g>
</g>
<!-- Node5&#45;&gt;Node7 -->
<g id="edge6" class="edge">
<title>Node5&#45;&gt;Node7</title>
<path fill="none" stroke="#191970" d="M391.1582,-127.9021C399.3031,-126.7807 408.0857,-125.5715 416.9248,-124.3546"/>
<polygon fill="#191970" stroke="#191970" points="417.4682,-127.8128 426.8973,-122.9815 416.5134,-120.8783 417.4682,-127.8128"/>
</g>
<!-- Node8&#45;&gt;Node5 -->
<g id="edge8" class="edge">
<title>Node8&#45;&gt;Node5</title>
<path fill="none" stroke="#191970" d="M261.5204,-133.5C274.2583,-133.5 287.3366,-133.5 299.4122,-133.5"/>
<polygon fill="#191970" stroke="#191970" points="299.7322,-137.0001 309.7322,-133.5 299.7322,-130.0001 299.7322,-137.0001"/>
</g>
<!-- Node10&#45;&gt;Node5 -->
<g id="edge11" class="edge">
<title>Node10&#45;&gt;Node5</title>
<path fill="none" stroke="#191970" d="M248.3651,-59.6165C257.1907,-62.2222 266.0223,-65.4682 274,-69.5 297.2108,-81.2305 319.5174,-101.2247 333.9919,-115.7491"/>
<polygon fill="#191970" stroke="#191970" points="331.7103,-118.424 341.1836,-123.1683 336.7365,-113.5519 331.7103,-118.424"/>
</g>
</g>
</svg>
