<?xml version="1.0" encoding="UTF-8" standalone="no"?>
<!DOCTYPE svg PUBLIC "-//W3C//DTD SVG 1.1//EN"
 "http://www.w3.org/Graphics/SVG/1.1/DTD/svg11.dtd">
<!-- Generated by graphviz version 2.40.1 (20161225.0304)
 -->
<!-- Title: Acts::podio_detail::ConstDynamicColumn&lt; T &gt; Pages: 1 -->
<svg width="172pt" height="250pt"
 viewBox="0.00 0.00 172.00 250.00" xmlns="http://www.w3.org/2000/svg" xmlns:xlink="http://www.w3.org/1999/xlink">
<g id="graph0" class="graph" transform="scale(1 1) rotate(0) translate(4 246)">
<title>Acts::podio_detail::ConstDynamicColumn&lt; T &gt;</title>
<!-- Node1 -->
<g id="node1" class="node">
<title>Node1</title>
<polygon fill="#bfbfbf" stroke="#000000" points="0,-.5 0,-32.5 164,-32.5 164,-.5 0,-.5"/>
<text text-anchor="start" x="8" y="-19.5" font-family="FreeSans" font-size="10.00" fill="#000000">Acts::podio_detail</text>
<text text-anchor="middle" x="82" y="-7.5" font-family="FreeSans" font-size="10.00" fill="#000000">::ConstDynamicColumn&lt; T &gt;</text>
</g>
<!-- Node2 -->
<g id="node2" class="node">
<title>Node2</title>
<g id="a_node2"><a xlink:href="../../db/d68/structActs_1_1podio__detail_1_1ConstDynamicColumnBase.html" target="_top" xlink:title="Acts::podio_detail\l::ConstDynamicColumnBase">
<polygon fill="none" stroke="#000000" points="2,-70.5 2,-102.5 162,-102.5 162,-70.5 2,-70.5"/>
<text text-anchor="start" x="10" y="-89.5" font-family="FreeSans" font-size="10.00" fill="#000000">Acts::podio_detail</text>
<text text-anchor="middle" x="82" y="-77.5" font-family="FreeSans" font-size="10.00" fill="#000000">::ConstDynamicColumnBase</text>
</a>
</g>
</g>
<!-- Node2&#45;&gt;Node1 -->
<g id="edge1" class="edge">
<title>Node2&#45;&gt;Node1</title>
<path fill="none" stroke="#191970" d="M82,-60.0079C82,-50.8027 82,-40.7615 82,-32.6473"/>
<polygon fill="#191970" stroke="#191970" points="78.5001,-60.2646 82,-70.2646 85.5001,-60.2647 78.5001,-60.2646"/>
</g>
<!-- Node3 -->
<g id="node3" class="node">
<title>Node3</title>
<g id="a_node3"><a xlink:title="STL class.">
<polygon fill="none" stroke="#bfbfbf" points="48.5,-151.5 48.5,-171.5 115.5,-171.5 115.5,-151.5 48.5,-151.5"/>
<text text-anchor="middle" x="82" y="-158.5" font-family="FreeSans" font-size="10.00" fill="#000000">std::string</text>
</a>
</g>
</g>
<!-- Node3&#45;&gt;Node2 -->
<g id="edge2" class="edge">
<title>Node3&#45;&gt;Node2</title>
<path fill="none" stroke="#9a32cd" stroke-dasharray="5,2" d="M82,-141.3477C82,-129.2564 82,-114.0788 82,-102.7566"/>
<polygon fill="#9a32cd" stroke="#9a32cd" points="78.5001,-141.3851 82,-151.3852 85.5001,-141.3852 78.5001,-141.3851"/>
<text text-anchor="middle" x="106" y="-124" font-family="FreeSans" font-size="10.00" fill="#000000"> m_name</text>
</g>
<!-- Node4 -->
<g id="node4" class="node">
<title>Node4</title>
<g id="a_node4"><a xlink:title="STL class.">
<polygon fill="none" stroke="#bfbfbf" points="28.5,-209.5 28.5,-241.5 135.5,-241.5 135.5,-209.5 28.5,-209.5"/>
<text text-anchor="start" x="36.5" y="-228.5" font-family="FreeSans" font-size="10.00" fill="#000000">std::basic_string&lt;</text>
<text text-anchor="middle" x="82" y="-216.5" font-family="FreeSans" font-size="10.00" fill="#000000"> char &gt;</text>
</a>
</g>
</g>
<!-- Node4&#45;&gt;Node3 -->
<g id="edge3" class="edge">
<title>Node4&#45;&gt;Node3</title>
<path fill="none" stroke="#191970" d="M82,-199.2639C82,-189.5394 82,-179.0805 82,-171.641"/>
<polygon fill="#191970" stroke="#191970" points="78.5001,-199.3501 82,-209.3501 85.5001,-199.3501 78.5001,-199.3501"/>
</g>
</g>
</svg>
