<?xml version="1.0" encoding="UTF-8" standalone="no"?>
<!DOCTYPE svg PUBLIC "-//W3C//DTD SVG 1.1//EN"
 "http://www.w3.org/Graphics/SVG/1.1/DTD/svg11.dtd">
<!-- Generated by graphviz version 2.40.1 (20161225.0304)
 -->
<!-- Title: coresoftware/blob/master/simulation/g4simulation/g4detectors/PHG4ConeSubsystem.cc Pages: 1 -->
<svg width="2308pt" height="395pt"
 viewBox="0.00 0.00 2307.50 395.00" xmlns="http://www.w3.org/2000/svg" xmlns:xlink="http://www.w3.org/1999/xlink">
<g id="graph0" class="graph" transform="scale(1 1) rotate(0) translate(4 391)">
<title>coresoftware/blob/master/simulation/g4simulation/g4detectors/PHG4ConeSubsystem.cc</title>
<!-- Node1 -->
<g id="node1" class="node">
<title>Node1</title>
<polygon fill="#bfbfbf" stroke="#000000" points="1233.5,-342.5 1233.5,-386.5 1441.5,-386.5 1441.5,-342.5 1233.5,-342.5"/>
<text text-anchor="start" x="1241.5" y="-373.5" font-family="FreeSans" font-size="10.00" fill="#000000">coresoftware/blob/master</text>
<text text-anchor="start" x="1241.5" y="-361.5" font-family="FreeSans" font-size="10.00" fill="#000000">/simulation/g4simulation</text>
<text text-anchor="middle" x="1337.5" y="-349.5" font-family="FreeSans" font-size="10.00" fill="#000000">/g4detectors/PHG4ConeSubsystem.cc</text>
</g>
<!-- Node2 -->
<g id="node2" class="node">
<title>Node2</title>
<g id="a_node2"><a xlink:href="../../dd/dfe/PHG4ConeSubsystem_8h.html" target="_top" xlink:title="PHG4ConeSubsystem.h">
<polygon fill="none" stroke="#000000" points="250,-285.5 250,-305.5 385,-305.5 385,-285.5 250,-285.5"/>
<text text-anchor="middle" x="317.5" y="-292.5" font-family="FreeSans" font-size="10.00" fill="#000000">PHG4ConeSubsystem.h</text>
</a>
</g>
</g>
<!-- Node1&#45;&gt;Node2 -->
<g id="edge1" class="edge">
<title>Node1&#45;&gt;Node2</title>
<path fill="none" stroke="#191970" d="M1233.1356,-357.4401C1027.9521,-343.56 576.2586,-313.0043 395.0056,-300.743"/>
<polygon fill="#191970" stroke="#191970" points="395.2325,-297.2505 385.0191,-300.0675 394.76,-304.2345 395.2325,-297.2505"/>
</g>
<!-- Node13 -->
<g id="node13" class="node">
<title>Node13</title>
<g id="a_node13"><a xlink:href="../../d6/dfd/PHG4ConeDetector_8h.html" target="_top" xlink:title="PHG4ConeDetector.h">
<polygon fill="none" stroke="#000000" points="1852.5,-114.5 1852.5,-134.5 1974.5,-134.5 1974.5,-114.5 1852.5,-114.5"/>
<text text-anchor="middle" x="1913.5" y="-121.5" font-family="FreeSans" font-size="10.00" fill="#000000">PHG4ConeDetector.h</text>
</a>
</g>
</g>
<!-- Node1&#45;&gt;Node13 -->
<g id="edge16" class="edge">
<title>Node1&#45;&gt;Node13</title>
<path fill="none" stroke="#191970" d="M1441.8085,-351.9981C1511.265,-342.4348 1604.1774,-327.2528 1684.5,-306 1755.8609,-287.1184 1777.4487,-287.3852 1840.5,-249 1872.4722,-229.5355 1884.7366,-224.9477 1902.5,-192 1910.3251,-177.4859 1912.8974,-158.8548 1913.6132,-144.8448"/>
<polygon fill="#191970" stroke="#191970" points="1917.114,-144.8474 1913.8541,-134.7666 1910.116,-144.6801 1917.114,-144.8474"/>
</g>
<!-- Node16 -->
<g id="node16" class="node">
<title>Node16</title>
<g id="a_node16"><a xlink:href="../../d7/d0b/PHG4ConeDisplayAction_8h.html" target="_top" xlink:title="PHG4ConeDisplayAction.h">
<polygon fill="none" stroke="#000000" points="988.5,-285.5 988.5,-305.5 1136.5,-305.5 1136.5,-285.5 988.5,-285.5"/>
<text text-anchor="middle" x="1062.5" y="-292.5" font-family="FreeSans" font-size="10.00" fill="#000000">PHG4ConeDisplayAction.h</text>
</a>
</g>
</g>
<!-- Node1&#45;&gt;Node16 -->
<g id="edge22" class="edge">
<title>Node1&#45;&gt;Node16</title>
<path fill="none" stroke="#191970" d="M1249.7322,-342.4783C1204.4238,-331.11 1150.7891,-317.6525 1112.563,-308.0613"/>
<polygon fill="#191970" stroke="#191970" points="1113.2524,-304.6258 1102.7013,-305.5869 1111.5488,-311.4154 1113.2524,-304.6258"/>
</g>
<!-- Node17 -->
<g id="node17" class="node">
<title>Node17</title>
<g id="a_node17"><a xlink:href="../../df/dad/PHG4DisplayAction_8h.html" target="_top" xlink:title="g4main/PHG4DisplayAction.h">
<polygon fill="none" stroke="#000000" points="957.5,-228.5 957.5,-248.5 1121.5,-248.5 1121.5,-228.5 957.5,-228.5"/>
<text text-anchor="middle" x="1039.5" y="-235.5" font-family="FreeSans" font-size="10.00" fill="#000000">g4main/PHG4DisplayAction.h</text>
</a>
</g>
</g>
<!-- Node1&#45;&gt;Node17 -->
<g id="edge31" class="edge">
<title>Node1&#45;&gt;Node17</title>
<path fill="none" stroke="#191970" d="M1285.2514,-342.4083C1223.9358,-316.4829 1124.1089,-274.2742 1072.5892,-252.4907"/>
<polygon fill="#191970" stroke="#191970" points="1073.8268,-249.2141 1063.2532,-248.5433 1071.1007,-255.6614 1073.8268,-249.2141"/>
</g>
<!-- Node18 -->
<g id="node18" class="node">
<title>Node18</title>
<g id="a_node18"><a xlink:href="../../dd/d39/PHG4ConeSteppingAction_8h.html" target="_top" xlink:title="PHG4ConeSteppingAction.h">
<polygon fill="none" stroke="#000000" points="814.5,-285.5 814.5,-305.5 970.5,-305.5 970.5,-285.5 814.5,-285.5"/>
<text text-anchor="middle" x="892.5" y="-292.5" font-family="FreeSans" font-size="10.00" fill="#000000">PHG4ConeSteppingAction.h</text>
</a>
</g>
</g>
<!-- Node1&#45;&gt;Node18 -->
<g id="edge26" class="edge">
<title>Node1&#45;&gt;Node18</title>
<path fill="none" stroke="#191970" d="M1233.4482,-348.3661C1151.7567,-335.6994 1039.9972,-318.3704 967.0459,-307.0588"/>
<polygon fill="#191970" stroke="#191970" points="967.4351,-303.5774 957.0168,-305.5037 966.3624,-310.4947 967.4351,-303.5774"/>
</g>
<!-- Node19 -->
<g id="node19" class="node">
<title>Node19</title>
<g id="a_node19"><a xlink:href="../../d0/d55/PHG4SteppingAction_8h.html" target="_top" xlink:title="g4main/PHG4SteppingAction.h">
<polygon fill="none" stroke="#000000" points="700.5,-228.5 700.5,-248.5 872.5,-248.5 872.5,-228.5 700.5,-228.5"/>
<text text-anchor="middle" x="786.5" y="-235.5" font-family="FreeSans" font-size="10.00" fill="#000000">g4main/PHG4SteppingAction.h</text>
</a>
</g>
</g>
<!-- Node1&#45;&gt;Node19 -->
<g id="edge43" class="edge">
<title>Node1&#45;&gt;Node19</title>
<path fill="none" stroke="#191970" d="M1233.4144,-359.2581C1087.8009,-350.9964 837.4224,-333.0503 805.5,-306 791.8975,-294.4735 787.6402,-274.044 786.4875,-258.6703"/>
<polygon fill="#191970" stroke="#191970" points="789.981,-258.4303 786.1076,-248.569 782.986,-258.6935 789.981,-258.4303"/>
</g>
<!-- Node21 -->
<g id="node21" class="node">
<title>Node21</title>
<polygon fill="none" stroke="#bfbfbf" points="1993.5,-285.5 1993.5,-305.5 2159.5,-305.5 2159.5,-285.5 1993.5,-285.5"/>
<text text-anchor="middle" x="2076.5" y="-292.5" font-family="FreeSans" font-size="10.00" fill="#000000">phparameter/PHParameters.h</text>
</g>
<!-- Node1&#45;&gt;Node21 -->
<g id="edge30" class="edge">
<title>Node1&#45;&gt;Node21</title>
<path fill="none" stroke="#191970" d="M1441.5192,-355.5676C1568.5381,-344.5342 1789.8956,-324.8992 1979.5,-306 1980.7799,-305.8724 1982.0693,-305.7432 1983.3664,-305.6125"/>
<polygon fill="#191970" stroke="#191970" points="1983.841,-309.0823 1993.434,-304.5853 1983.1304,-302.1184 1983.841,-309.0823"/>
</g>
<!-- Node22 -->
<g id="node22" class="node">
<title>Node22</title>
<g id="a_node22"><a xlink:href="../../d3/d08/PHG4HitContainer_8h.html" target="_top" xlink:title="g4main/PHG4HitContainer.h">
<polygon fill="none" stroke="#000000" points="524.5,-228.5 524.5,-248.5 682.5,-248.5 682.5,-228.5 524.5,-228.5"/>
<text text-anchor="middle" x="603.5" y="-235.5" font-family="FreeSans" font-size="10.00" fill="#000000">g4main/PHG4HitContainer.h</text>
</a>
</g>
</g>
<!-- Node1&#45;&gt;Node22 -->
<g id="edge32" class="edge">
<title>Node1&#45;&gt;Node22</title>
<path fill="none" stroke="#191970" d="M1233.3496,-361.0276C1121.7906,-355.5509 940.1756,-341.5523 787.5,-306 732.2179,-293.1269 670.8528,-268.369 634.8061,-252.6814"/>
<polygon fill="#191970" stroke="#191970" points="635.8993,-249.3387 625.3366,-248.5146 633.08,-255.7458 635.8993,-249.3387"/>
</g>
<!-- Node24 -->
<g id="node24" class="node">
<title>Node24</title>
<g id="a_node24"><a xlink:href="../../df/d32/PHObject_8h.html" target="_top" xlink:title="phool/PHObject.h">
<polygon fill="none" stroke="#000000" points="1649.5,-171.5 1649.5,-191.5 1753.5,-191.5 1753.5,-171.5 1649.5,-171.5"/>
<text text-anchor="middle" x="1701.5" y="-178.5" font-family="FreeSans" font-size="10.00" fill="#000000">phool/PHObject.h</text>
</a>
</g>
</g>
<!-- Node1&#45;&gt;Node24 -->
<g id="edge76" class="edge">
<title>Node1&#45;&gt;Node24</title>
<path fill="none" stroke="#191970" d="M1441.549,-349.1516C1504.3626,-338.4683 1577.3505,-323.1087 1604.5,-306 1646.2051,-279.7189 1677.1983,-228.8895 1691.9385,-200.9944"/>
<polygon fill="#191970" stroke="#191970" points="1695.182,-202.3391 1696.6235,-191.8428 1688.951,-199.1493 1695.182,-202.3391"/>
</g>
<!-- Node27 -->
<g id="node27" class="node">
<title>Node27</title>
<g id="a_node27"><a xlink:href="../../d8/d30/PHCompositeNode_8h.html" target="_top" xlink:title="phool/PHCompositeNode.h">
<polygon fill="none" stroke="#000000" points="1366,-171.5 1366,-191.5 1517,-191.5 1517,-171.5 1366,-171.5"/>
<text text-anchor="middle" x="1441.5" y="-178.5" font-family="FreeSans" font-size="10.00" fill="#000000">phool/PHCompositeNode.h</text>
</a>
</g>
</g>
<!-- Node1&#45;&gt;Node27 -->
<g id="edge44" class="edge">
<title>Node1&#45;&gt;Node27</title>
<path fill="none" stroke="#191970" d="M1350.0448,-342.4259C1370.5984,-306.2595 1411.1025,-234.9879 1430.5601,-200.7501"/>
<polygon fill="#191970" stroke="#191970" points="1433.7695,-202.1864 1435.6675,-191.763 1427.6836,-198.7277 1433.7695,-202.1864"/>
</g>
<!-- Node28 -->
<g id="node28" class="node">
<title>Node28</title>
<g id="a_node28"><a xlink:href="../../d3/d62/PHNode_8h.html" target="_top" xlink:title="PHNode.h">
<polygon fill="none" stroke="#000000" points="1755,-114.5 1755,-134.5 1820,-134.5 1820,-114.5 1755,-114.5"/>
<text text-anchor="middle" x="1787.5" y="-121.5" font-family="FreeSans" font-size="10.00" fill="#000000">PHNode.h</text>
</a>
</g>
</g>
<!-- Node1&#45;&gt;Node28 -->
<g id="edge74" class="edge">
<title>Node1&#45;&gt;Node28</title>
<path fill="none" stroke="#191970" d="M1441.6006,-347.7582C1586.7383,-321.9264 1837.6537,-267.3425 1886.5,-192 1904.0096,-164.9925 1864.1889,-145.9739 1829.9425,-135.1531"/>
<polygon fill="#191970" stroke="#191970" points="1830.6079,-131.6991 1820.0243,-132.1885 1828.6031,-138.4059 1830.6079,-131.6991"/>
</g>
<!-- Node31 -->
<g id="node31" class="node">
<title>Node31</title>
<g id="a_node31"><a xlink:href="../../d3/d79/PHIODataNode_8h.html" target="_top" xlink:title="phool/PHIODataNode.h">
<polygon fill="none" stroke="#000000" points="1139.5,-228.5 1139.5,-248.5 1271.5,-248.5 1271.5,-228.5 1139.5,-228.5"/>
<text text-anchor="middle" x="1205.5" y="-235.5" font-family="FreeSans" font-size="10.00" fill="#000000">phool/PHIODataNode.h</text>
</a>
</g>
</g>
<!-- Node1&#45;&gt;Node31 -->
<g id="edge51" class="edge">
<title>Node1&#45;&gt;Node31</title>
<path fill="none" stroke="#191970" d="M1314.2049,-342.2638C1288.2715,-317.5091 1246.9222,-278.0394 1223.4027,-255.5889"/>
<polygon fill="#191970" stroke="#191970" points="1225.8083,-253.0466 1216.1581,-248.6736 1220.975,-258.1102 1225.8083,-253.0466"/>
</g>
<!-- Node38 -->
<g id="node38" class="node">
<title>Node38</title>
<g id="a_node38"><a xlink:href="../../d8/dfd/PHNodeIterator_8h.html" target="_top" xlink:title="PHNodeIterator.h">
<polygon fill="none" stroke="#000000" points="1247.5,-114.5 1247.5,-134.5 1349.5,-134.5 1349.5,-114.5 1247.5,-114.5"/>
<text text-anchor="middle" x="1298.5" y="-121.5" font-family="FreeSans" font-size="10.00" fill="#000000">PHNodeIterator.h</text>
</a>
</g>
</g>
<!-- Node1&#45;&gt;Node38 -->
<g id="edge75" class="edge">
<title>Node1&#45;&gt;Node38</title>
<path fill="none" stroke="#191970" d="M1333.9009,-342.3516C1326.3563,-295.9234 1308.9858,-189.0279 1301.753,-144.5182"/>
<polygon fill="#191970" stroke="#191970" points="1305.2034,-143.9302 1300.1447,-134.621 1298.294,-145.053 1305.2034,-143.9302"/>
</g>
<!-- Node40 -->
<g id="node40" class="node">
<title>Node40</title>
<g id="a_node40"><a xlink:href="../../dd/dd4/getClass_8h.html" target="_top" xlink:title="phool/getClass.h">
<polygon fill="none" stroke="#000000" points="1495.5,-285.5 1495.5,-305.5 1595.5,-305.5 1595.5,-285.5 1495.5,-285.5"/>
<text text-anchor="middle" x="1545.5" y="-292.5" font-family="FreeSans" font-size="10.00" fill="#000000">phool/getClass.h</text>
</a>
</g>
</g>
<!-- Node1&#45;&gt;Node40 -->
<g id="edge77" class="edge">
<title>Node1&#45;&gt;Node40</title>
<path fill="none" stroke="#191970" d="M1403.8844,-342.4783C1437.2791,-331.4002 1476.6539,-318.3384 1505.3971,-308.8034"/>
<polygon fill="#191970" stroke="#191970" points="1506.7039,-312.0575 1515.0932,-305.5869 1504.4998,-305.4135 1506.7039,-312.0575"/>
</g>
<!-- Node41 -->
<g id="node41" class="node">
<title>Node41</title>
<polygon fill="none" stroke="#bfbfbf" points="2177.5,-285.5 2177.5,-305.5 2225.5,-305.5 2225.5,-285.5 2177.5,-285.5"/>
<text text-anchor="middle" x="2201.5" y="-292.5" font-family="FreeSans" font-size="10.00" fill="#000000">cmath</text>
</g>
<!-- Node1&#45;&gt;Node41 -->
<g id="edge84" class="edge">
<title>Node1&#45;&gt;Node41</title>
<path fill="none" stroke="#191970" d="M1441.7751,-360.2546C1628.5871,-352.1466 2014.3038,-332.9941 2167.0071,-305.8406"/>
<polygon fill="#191970" stroke="#191970" points="2167.9655,-309.2226 2177.1588,-303.9563 2166.6879,-302.3402 2167.9655,-309.2226"/>
</g>
<!-- Node42 -->
<g id="node42" class="node">
<title>Node42</title>
<polygon fill="none" stroke="#bfbfbf" points="2243.5,-285.5 2243.5,-305.5 2299.5,-305.5 2299.5,-285.5 2243.5,-285.5"/>
<text text-anchor="middle" x="2271.5" y="-292.5" font-family="FreeSans" font-size="10.00" fill="#000000">sstream</text>
</g>
<!-- Node1&#45;&gt;Node42 -->
<g id="edge85" class="edge">
<title>Node1&#45;&gt;Node42</title>
<path fill="none" stroke="#191970" d="M1441.6464,-360.4764C1640.1321,-352.3605 2066.8748,-332.6463 2233.2561,-305.8415"/>
<polygon fill="#191970" stroke="#191970" points="2234.0758,-309.253 2243.3599,-304.1486 2232.919,-302.3493 2234.0758,-309.253"/>
</g>
<!-- Node3 -->
<g id="node3" class="node">
<title>Node3</title>
<g id="a_node3"><a xlink:href="../../d8/d3a/PHG4DetectorSubsystem_8h.html" target="_top" xlink:title="PHG4DetectorSubsystem.h">
<polygon fill="none" stroke="#000000" points="299,-228.5 299,-248.5 452,-248.5 452,-228.5 299,-228.5"/>
<text text-anchor="middle" x="375.5" y="-235.5" font-family="FreeSans" font-size="10.00" fill="#000000">PHG4DetectorSubsystem.h</text>
</a>
</g>
</g>
<!-- Node2&#45;&gt;Node3 -->
<g id="edge2" class="edge">
<title>Node2&#45;&gt;Node3</title>
<path fill="none" stroke="#191970" d="M327.8692,-285.3095C336.1995,-277.1229 348.0864,-265.441 357.9011,-255.7955"/>
<polygon fill="#191970" stroke="#191970" points="360.5415,-258.1079 365.2205,-248.6022 355.6349,-253.1153 360.5415,-258.1079"/>
</g>
<!-- Node9 -->
<g id="node9" class="node">
<title>Node9</title>
<polygon fill="none" stroke="#bfbfbf" points="832,-.5 832,-20.5 877,-20.5 877,-.5 832,-.5"/>
<text text-anchor="middle" x="854.5" y="-7.5" font-family="FreeSans" font-size="10.00" fill="#000000">string</text>
</g>
<!-- Node2&#45;&gt;Node9 -->
<g id="edge15" class="edge">
<title>Node2&#45;&gt;Node9</title>
<path fill="none" stroke="#191970" d="M249.9561,-285.844C191.2332,-273.1842 115.5,-244.6213 115.5,-181.5 115.5,-181.5 115.5,-181.5 115.5,-124.5 115.5,-47.7291 199.9429,-75.3035 274.5,-57 379.6617,-31.1831 715.4551,-15.9954 821.8429,-11.7401"/>
<polygon fill="#191970" stroke="#191970" points="822.1195,-15.232 831.9737,-11.3403 821.8435,-8.2374 822.1195,-15.232"/>
</g>
<!-- Node12 -->
<g id="node12" class="node">
<title>Node12</title>
<polygon fill="none" stroke="#bfbfbf" points="238,-228.5 238,-248.5 281,-248.5 281,-228.5 238,-228.5"/>
<text text-anchor="middle" x="259.5" y="-235.5" font-family="FreeSans" font-size="10.00" fill="#000000">array</text>
</g>
<!-- Node2&#45;&gt;Node12 -->
<g id="edge14" class="edge">
<title>Node2&#45;&gt;Node12</title>
<path fill="none" stroke="#191970" d="M307.1308,-285.3095C298.8005,-277.1229 286.9136,-265.441 277.0989,-255.7955"/>
<polygon fill="#191970" stroke="#191970" points="279.3651,-253.1153 269.7795,-248.6022 274.4585,-258.1079 279.3651,-253.1153"/>
</g>
<!-- Node4 -->
<g id="node4" class="node">
<title>Node4</title>
<g id="a_node4"><a xlink:href="../../df/d1c/PHG4Subsystem_8h.html" target="_top" xlink:title="g4main/PHG4Subsystem.h">
<polygon fill="none" stroke="#000000" points="300,-171.5 300,-191.5 451,-191.5 451,-171.5 300,-171.5"/>
<text text-anchor="middle" x="375.5" y="-178.5" font-family="FreeSans" font-size="10.00" fill="#000000">g4main/PHG4Subsystem.h</text>
</a>
</g>
</g>
<!-- Node3&#45;&gt;Node4 -->
<g id="edge3" class="edge">
<title>Node3&#45;&gt;Node4</title>
<path fill="none" stroke="#191970" d="M375.5,-228.3095C375.5,-220.9335 375.5,-210.72 375.5,-201.715"/>
<polygon fill="#191970" stroke="#191970" points="379.0001,-201.6022 375.5,-191.6022 372.0001,-201.6023 379.0001,-201.6022"/>
</g>
<!-- Node3&#45;&gt;Node9 -->
<g id="edge13" class="edge">
<title>Node3&#45;&gt;Node9</title>
<path fill="none" stroke="#191970" d="M325.1649,-228.4806C250.4559,-211.4076 123.9771,-172.7209 172.5,-114 214.6082,-63.042 691.3938,-22.9944 821.7396,-12.9429"/>
<polygon fill="#191970" stroke="#191970" points="822.1898,-16.4188 831.8939,-12.1667 821.6562,-9.4391 822.1898,-16.4188"/>
</g>
<!-- Node11 -->
<g id="node11" class="node">
<title>Node11</title>
<polygon fill="none" stroke="#bfbfbf" points="622,-114.5 622,-134.5 661,-134.5 661,-114.5 622,-114.5"/>
<text text-anchor="middle" x="641.5" y="-121.5" font-family="FreeSans" font-size="10.00" fill="#000000">map</text>
</g>
<!-- Node3&#45;&gt;Node11 -->
<g id="edge12" class="edge">
<title>Node3&#45;&gt;Node11</title>
<path fill="none" stroke="#191970" d="M399.1057,-228.3833C447.8415,-207.4965 559.4554,-159.662 612.4893,-136.9331"/>
<polygon fill="#191970" stroke="#191970" points="614.1681,-140.0216 621.9808,-132.8654 611.4106,-133.5876 614.1681,-140.0216"/>
</g>
<!-- Node5 -->
<g id="node5" class="node">
<title>Node5</title>
<g id="a_node5"><a xlink:href="../../da/dc1/Fun4AllReturnCodes_8h.html" target="_top" xlink:title="fun4all/Fun4AllReturnCodes.h">
<polygon fill="none" stroke="#000000" points="181.5,-114.5 181.5,-134.5 347.5,-134.5 347.5,-114.5 181.5,-114.5"/>
<text text-anchor="middle" x="264.5" y="-121.5" font-family="FreeSans" font-size="10.00" fill="#000000">fun4all/Fun4AllReturnCodes.h</text>
</a>
</g>
</g>
<!-- Node4&#45;&gt;Node5 -->
<g id="edge4" class="edge">
<title>Node4&#45;&gt;Node5</title>
<path fill="none" stroke="#191970" d="M355.9109,-171.4408C338.5815,-162.5419 313.0662,-149.4394 293.3934,-139.3371"/>
<polygon fill="#191970" stroke="#191970" points="294.7611,-136.105 284.2666,-134.6504 291.5634,-142.332 294.7611,-136.105"/>
</g>
<!-- Node6 -->
<g id="node6" class="node">
<title>Node6</title>
<g id="a_node6"><a xlink:href="../../d5/dc2/SubsysReco_8h.html" target="_top" xlink:title="fun4all/SubsysReco.h">
<polygon fill="none" stroke="#000000" points="365.5,-114.5 365.5,-134.5 489.5,-134.5 489.5,-114.5 365.5,-114.5"/>
<text text-anchor="middle" x="427.5" y="-121.5" font-family="FreeSans" font-size="10.00" fill="#000000">fun4all/SubsysReco.h</text>
</a>
</g>
</g>
<!-- Node4&#45;&gt;Node6 -->
<g id="edge5" class="edge">
<title>Node4&#45;&gt;Node6</title>
<path fill="none" stroke="#191970" d="M384.7966,-171.3095C392.1911,-163.204 402.7116,-151.672 411.4598,-142.0826"/>
<polygon fill="#191970" stroke="#191970" points="414.13,-144.3488 418.2839,-134.6022 408.9586,-139.631 414.13,-144.3488"/>
</g>
<!-- Node4&#45;&gt;Node9 -->
<g id="edge11" class="edge">
<title>Node4&#45;&gt;Node9</title>
<path fill="none" stroke="#191970" d="M424.6264,-171.4398C449.0073,-164.4715 477.6274,-153.0938 498.5,-135 528.4114,-109.0708 508.991,-79.5872 541.5,-57 586.4513,-25.7679 751.0713,-14.9833 821.8234,-11.7372"/>
<polygon fill="#191970" stroke="#191970" points="822.1107,-15.2281 831.9485,-11.2952 821.8053,-8.2348 822.1107,-15.2281"/>
</g>
<!-- Node10 -->
<g id="node10" class="node">
<title>Node10</title>
<polygon fill="none" stroke="#bfbfbf" points="1421.5,-.5 1421.5,-20.5 1481.5,-20.5 1481.5,-.5 1421.5,-.5"/>
<text text-anchor="middle" x="1451.5" y="-7.5" font-family="FreeSans" font-size="10.00" fill="#000000">iostream</text>
</g>
<!-- Node4&#45;&gt;Node10 -->
<g id="edge10" class="edge">
<title>Node4&#45;&gt;Node10</title>
<path fill="none" stroke="#191970" d="M404.8033,-171.4961C449.3476,-156.6772 537.01,-129.0296 613.5,-114 754.3674,-86.3208 792.4079,-98.4846 934.5,-78 987.6566,-70.3367 1000.3613,-64.7861 1053.5,-57 1184.0554,-37.8704 1339.631,-21.5615 1411.4843,-14.3946"/>
<polygon fill="#191970" stroke="#191970" points="1411.8596,-17.8746 1421.4651,-13.4042 1411.1684,-10.9088 1411.8596,-17.8746"/>
</g>
<!-- Node7 -->
<g id="node7" class="node">
<title>Node7</title>
<g id="a_node7"><a xlink:href="../../d2/de7/Fun4AllBase_8h.html" target="_top" xlink:title="Fun4AllBase.h">
<polygon fill="none" stroke="#000000" points="0,-57.5 0,-77.5 87,-77.5 87,-57.5 0,-57.5"/>
<text text-anchor="middle" x="43.5" y="-64.5" font-family="FreeSans" font-size="10.00" fill="#000000">Fun4AllBase.h</text>
</a>
</g>
</g>
<!-- Node6&#45;&gt;Node7 -->
<g id="edge6" class="edge">
<title>Node6&#45;&gt;Node7</title>
<path fill="none" stroke="#191970" d="M365.377,-115.2786C290.9246,-104.2271 167.4221,-85.8947 97.0148,-75.4436"/>
<polygon fill="#191970" stroke="#191970" points="97.4299,-71.9669 87.0243,-73.9606 96.402,-78.8911 97.4299,-71.9669"/>
</g>
<!-- Node6&#45;&gt;Node9 -->
<g id="edge9" class="edge">
<title>Node6&#45;&gt;Node9</title>
<path fill="none" stroke="#191970" d="M435.351,-114.4409C447.9148,-99.1533 474.1318,-70.4324 503.5,-57 559.8436,-31.2297 745.0967,-17.2115 821.304,-12.4166"/>
<polygon fill="#191970" stroke="#191970" points="821.9618,-15.8828 831.7282,-11.7758 821.5322,-8.896 821.9618,-15.8828"/>
</g>
<!-- Node8 -->
<g id="node8" class="node">
<title>Node8</title>
<polygon fill="none" stroke="#bfbfbf" points="21.5,-.5 21.5,-20.5 65.5,-20.5 65.5,-.5 21.5,-.5"/>
<text text-anchor="middle" x="43.5" y="-7.5" font-family="FreeSans" font-size="10.00" fill="#000000">limits</text>
</g>
<!-- Node7&#45;&gt;Node8 -->
<g id="edge7" class="edge">
<title>Node7&#45;&gt;Node8</title>
<path fill="none" stroke="#191970" d="M43.5,-57.3095C43.5,-49.9335 43.5,-39.72 43.5,-30.715"/>
<polygon fill="#191970" stroke="#191970" points="47.0001,-30.6022 43.5,-20.6022 40.0001,-30.6023 47.0001,-30.6022"/>
</g>
<!-- Node7&#45;&gt;Node9 -->
<g id="edge8" class="edge">
<title>Node7&#45;&gt;Node9</title>
<path fill="none" stroke="#191970" d="M87.1211,-59.0364C91.9604,-58.2665 96.8268,-57.5653 101.5,-57 378.7308,-23.4635 716.4755,-13.5347 821.6488,-11.1523"/>
<polygon fill="#191970" stroke="#191970" points="822.0071,-14.6454 831.928,-10.9271 821.8537,-7.6471 822.0071,-14.6454"/>
</g>
<!-- Node13&#45;&gt;Node9 -->
<g id="edge21" class="edge">
<title>Node13&#45;&gt;Node9</title>
<path fill="none" stroke="#191970" d="M1896.3803,-114.2511C1865.4308,-95.7633 1802.8615,-58.5891 1797.5,-57 1708.8691,-30.7312 1044.1964,-14.6508 887.5147,-11.2007"/>
<polygon fill="#191970" stroke="#191970" points="887.2003,-7.6931 877.1264,-10.9742 887.0476,-14.6915 887.2003,-7.6931"/>
</g>
<!-- Node14 -->
<g id="node14" class="node">
<title>Node14</title>
<g id="a_node14"><a xlink:href="../../dd/dcc/PHG4Detector_8h.html" target="_top" xlink:title="g4main/PHG4Detector.h">
<polygon fill="none" stroke="#000000" points="1844.5,-57.5 1844.5,-77.5 1982.5,-77.5 1982.5,-57.5 1844.5,-57.5"/>
<text text-anchor="middle" x="1913.5" y="-64.5" font-family="FreeSans" font-size="10.00" fill="#000000">g4main/PHG4Detector.h</text>
</a>
</g>
</g>
<!-- Node13&#45;&gt;Node14 -->
<g id="edge17" class="edge">
<title>Node13&#45;&gt;Node14</title>
<path fill="none" stroke="#191970" d="M1913.5,-114.3095C1913.5,-106.9335 1913.5,-96.72 1913.5,-87.715"/>
<polygon fill="#191970" stroke="#191970" points="1917.0001,-87.6022 1913.5,-77.6022 1910.0001,-87.6023 1917.0001,-87.6022"/>
</g>
<!-- Node14&#45;&gt;Node9 -->
<g id="edge20" class="edge">
<title>Node14&#45;&gt;Node9</title>
<path fill="none" stroke="#191970" d="M1844.2518,-58.3284C1839.6021,-57.8395 1834.9857,-57.39 1830.5,-57 1461.392,-24.9095 1011.6903,-13.7292 887.5782,-11.1377"/>
<polygon fill="#191970" stroke="#191970" points="887.3112,-7.6316 877.2416,-10.9261 887.1679,-14.6301 887.3112,-7.6316"/>
</g>
<!-- Node14&#45;&gt;Node10 -->
<g id="edge19" class="edge">
<title>Node14&#45;&gt;Node10</title>
<path fill="none" stroke="#191970" d="M1844.2109,-58.7148C1839.5711,-58.1326 1834.9681,-57.5567 1830.5,-57 1707.2346,-41.6414 1561.3659,-23.8536 1492.0238,-15.4213"/>
<polygon fill="#191970" stroke="#191970" points="1492.3126,-11.9307 1481.9633,-14.1982 1491.4678,-18.8795 1492.3126,-11.9307"/>
</g>
<!-- Node15 -->
<g id="node15" class="node">
<title>Node15</title>
<polygon fill="none" stroke="#bfbfbf" points="1833,-.5 1833,-20.5 1994,-20.5 1994,-.5 1833,-.5"/>
<text text-anchor="middle" x="1913.5" y="-7.5" font-family="FreeSans" font-size="10.00" fill="#000000">Geant4/G4RotationMatrix.hh</text>
</g>
<!-- Node14&#45;&gt;Node15 -->
<g id="edge18" class="edge">
<title>Node14&#45;&gt;Node15</title>
<path fill="none" stroke="#191970" d="M1913.5,-57.3095C1913.5,-49.9335 1913.5,-39.72 1913.5,-30.715"/>
<polygon fill="#191970" stroke="#191970" points="1917.0001,-30.6022 1913.5,-20.6022 1910.0001,-30.6023 1917.0001,-30.6022"/>
</g>
<!-- Node16&#45;&gt;Node9 -->
<g id="edge25" class="edge">
<title>Node16&#45;&gt;Node9</title>
<path fill="none" stroke="#191970" d="M1028.7865,-285.4152C986.961,-271.2172 916.2066,-241.3966 875.5,-192 835.7028,-143.7068 823.4389,-118.405 835.5,-57 837.2964,-47.8544 840.9044,-38.2405 844.4982,-30.1433"/>
<polygon fill="#191970" stroke="#191970" points="847.784,-31.3828 848.9055,-20.8475 841.4589,-28.384 847.784,-31.3828"/>
</g>
<!-- Node16&#45;&gt;Node17 -->
<g id="edge23" class="edge">
<title>Node16&#45;&gt;Node17</title>
<path fill="none" stroke="#191970" d="M1058.3881,-285.3095C1055.3463,-277.7714 1051.1088,-267.2696 1047.4181,-258.123"/>
<polygon fill="#191970" stroke="#191970" points="1050.5641,-256.566 1043.5763,-248.6022 1044.0726,-259.1854 1050.5641,-256.566"/>
</g>
<!-- Node17&#45;&gt;Node9 -->
<g id="edge24" class="edge">
<title>Node17&#45;&gt;Node9</title>
<path fill="none" stroke="#191970" d="M978.4358,-228.4352C952.4217,-221.6595 923.1496,-210.4458 901.5,-192 857.918,-154.8674 855.2343,-133.5841 841.5,-78 837.5696,-62.0932 841.5943,-43.8332 846.1718,-30.3195"/>
<polygon fill="#191970" stroke="#191970" points="849.57,-31.2268 849.8199,-20.6349 843.0194,-28.7592 849.57,-31.2268"/>
</g>
<!-- Node18&#45;&gt;Node19 -->
<g id="edge27" class="edge">
<title>Node18&#45;&gt;Node19</title>
<path fill="none" stroke="#191970" d="M873.5493,-285.3095C857.0439,-276.434 832.8981,-263.4499 814.2214,-253.4068"/>
<polygon fill="#191970" stroke="#191970" points="815.7516,-250.2557 805.2866,-248.6022 812.4364,-256.4209 815.7516,-250.2557"/>
</g>
<!-- Node19&#45;&gt;Node9 -->
<g id="edge29" class="edge">
<title>Node19&#45;&gt;Node9</title>
<path fill="none" stroke="#191970" d="M783.9965,-228.2768C775.9337,-194.3931 752.1511,-86.2662 769.5,-57 780.8947,-37.7782 803.3522,-25.9841 822.3227,-19.085"/>
<polygon fill="#191970" stroke="#191970" points="823.4681,-22.3926 831.8482,-15.91 821.2545,-15.7518 823.4681,-22.3926"/>
</g>
<!-- Node20 -->
<g id="node20" class="node">
<title>Node20</title>
<polygon fill="none" stroke="#bfbfbf" points="723.5,-171.5 723.5,-191.5 755.5,-191.5 755.5,-171.5 723.5,-171.5"/>
<text text-anchor="middle" x="739.5" y="-178.5" font-family="FreeSans" font-size="10.00" fill="#000000">set</text>
</g>
<!-- Node19&#45;&gt;Node20 -->
<g id="edge28" class="edge">
<title>Node19&#45;&gt;Node20</title>
<path fill="none" stroke="#191970" d="M778.0973,-228.3095C771.4807,-220.2851 762.0948,-208.9022 754.2356,-199.3708"/>
<polygon fill="#191970" stroke="#191970" points="756.8922,-197.091 747.8299,-191.6022 751.4914,-201.5443 756.8922,-197.091"/>
</g>
<!-- Node22&#45;&gt;Node9 -->
<g id="edge41" class="edge">
<title>Node22&#45;&gt;Node9</title>
<path fill="none" stroke="#191970" d="M592.2942,-228.2889C583.6563,-219.6053 572.3878,-206.2977 567.5,-192 549.8535,-140.3805 583.3111,-84.3996 617.5,-57 648.6103,-32.0677 764.2766,-18.5178 821.7112,-13.1975"/>
<polygon fill="#191970" stroke="#191970" points="822.0772,-16.6788 831.7243,-12.2989 821.4515,-9.7068 822.0772,-16.6788"/>
</g>
<!-- Node22&#45;&gt;Node10 -->
<g id="edge38" class="edge">
<title>Node22&#45;&gt;Node10</title>
<path fill="none" stroke="#191970" d="M617.1905,-228.4517C637.5045,-213.9524 677.2473,-187.1371 714.5,-171 965.6076,-62.2251 1297.8627,-24.087 1411.4521,-13.7463"/>
<polygon fill="#191970" stroke="#191970" points="1411.7913,-17.23 1421.4419,-12.8578 1411.1711,-10.2575 1411.7913,-17.23"/>
</g>
<!-- Node22&#45;&gt;Node11 -->
<g id="edge39" class="edge">
<title>Node22&#45;&gt;Node11</title>
<path fill="none" stroke="#191970" d="M593.5932,-228.1917C581.9235,-214.7369 565.3352,-190.5959 575.5,-171 583.3659,-155.836 598.701,-144.5713 612.6107,-136.9301"/>
<polygon fill="#191970" stroke="#191970" points="614.5691,-139.8612 621.9035,-132.2155 611.4019,-133.6187 614.5691,-139.8612"/>
</g>
<!-- Node22&#45;&gt;Node20 -->
<g id="edge40" class="edge">
<title>Node22&#45;&gt;Node20</title>
<path fill="none" stroke="#191970" d="M627.501,-228.4408C651.7628,-218.2722 689.1204,-202.615 713.9291,-192.2172"/>
<polygon fill="#191970" stroke="#191970" points="715.5319,-195.3405 723.4017,-188.2471 712.826,-188.8846 715.5319,-195.3405"/>
</g>
<!-- Node23 -->
<g id="node23" class="node">
<title>Node23</title>
<g id="a_node23"><a xlink:href="../../d2/d92/PHG4HitDefs_8h.html" target="_top" xlink:title="PHG4HitDefs.h">
<polygon fill="none" stroke="#000000" points="626,-57.5 626,-77.5 717,-77.5 717,-57.5 626,-57.5"/>
<text text-anchor="middle" x="671.5" y="-64.5" font-family="FreeSans" font-size="10.00" fill="#000000">PHG4HitDefs.h</text>
</a>
</g>
</g>
<!-- Node22&#45;&gt;Node23 -->
<g id="edge33" class="edge">
<title>Node22&#45;&gt;Node23</title>
<path fill="none" stroke="#191970" d="M613.2087,-228.4195C629.1363,-211.0604 660.0866,-173.6492 670.5,-135 674.6448,-119.6167 674.6697,-101.5378 673.7815,-87.9637"/>
<polygon fill="#191970" stroke="#191970" points="677.2488,-87.4362 672.8909,-77.7791 670.2754,-88.046 677.2488,-87.4362"/>
</g>
<!-- Node22&#45;&gt;Node24 -->
<g id="edge35" class="edge">
<title>Node22&#45;&gt;Node24</title>
<path fill="none" stroke="#191970" d="M682.6257,-228.7725C685.6202,-228.4954 688.5862,-228.2363 691.5,-228 1061.7403,-197.9739 1155.5368,-211.1243 1526.5,-192 1563.9633,-190.0686 1605.9168,-187.5632 1639.3532,-185.4841"/>
<polygon fill="#191970" stroke="#191970" points="1639.68,-188.9706 1649.4422,-184.8536 1639.2433,-181.9842 1639.68,-188.9706"/>
</g>
<!-- Node26 -->
<g id="node26" class="node">
<title>Node26</title>
<polygon fill="none" stroke="#bfbfbf" points="584,-171.5 584,-191.5 629,-191.5 629,-171.5 584,-171.5"/>
<text text-anchor="middle" x="606.5" y="-178.5" font-family="FreeSans" font-size="10.00" fill="#000000">utility</text>
</g>
<!-- Node22&#45;&gt;Node26 -->
<g id="edge42" class="edge">
<title>Node22&#45;&gt;Node26</title>
<path fill="none" stroke="#191970" d="M604.0363,-228.3095C604.4246,-220.9335 604.9621,-210.72 605.4361,-201.715"/>
<polygon fill="#191970" stroke="#191970" points="608.9378,-201.7724 605.9683,-191.6022 601.9475,-201.4044 608.9378,-201.7724"/>
</g>
<!-- Node23&#45;&gt;Node9 -->
<g id="edge34" class="edge">
<title>Node23&#45;&gt;Node9</title>
<path fill="none" stroke="#191970" d="M703.7955,-57.4408C737.0856,-47.0717 788.699,-30.9954 822.0468,-20.6084"/>
<polygon fill="#191970" stroke="#191970" points="823.2625,-23.8956 831.7692,-17.5801 821.1808,-17.2123 823.2625,-23.8956"/>
</g>
<!-- Node24&#45;&gt;Node10 -->
<g id="edge37" class="edge">
<title>Node24&#45;&gt;Node10</title>
<path fill="none" stroke="#191970" d="M1696.4148,-171.3332C1688.9499,-157.1659 1673.8971,-131.2839 1655.5,-114 1607.3327,-68.7474 1535.5836,-38.592 1491.2658,-23.0282"/>
<polygon fill="#191970" stroke="#191970" points="1492.2979,-19.6821 1481.7033,-19.7471 1490.026,-26.3032 1492.2979,-19.6821"/>
</g>
<!-- Node25 -->
<g id="node25" class="node">
<title>Node25</title>
<polygon fill="none" stroke="#bfbfbf" points="1581,-114.5 1581,-134.5 1646,-134.5 1646,-114.5 1581,-114.5"/>
<text text-anchor="middle" x="1613.5" y="-121.5" font-family="FreeSans" font-size="10.00" fill="#000000">TObject.h</text>
</g>
<!-- Node24&#45;&gt;Node25 -->
<g id="edge36" class="edge">
<title>Node24&#45;&gt;Node25</title>
<path fill="none" stroke="#191970" d="M1685.7674,-171.3095C1672.3776,-162.6366 1652.9312,-150.0407 1637.5829,-140.0992"/>
<polygon fill="#191970" stroke="#191970" points="1639.3924,-137.1011 1629.0964,-134.6022 1635.5868,-142.9764 1639.3924,-137.1011"/>
</g>
<!-- Node27&#45;&gt;Node9 -->
<g id="edge50" class="edge">
<title>Node27&#45;&gt;Node9</title>
<path fill="none" stroke="#191970" d="M1436.2883,-171.4896C1422.8959,-146.9329 1384.6349,-83.7673 1332.5,-57 1293.0496,-36.7453 989.044,-18.0411 887.4448,-12.299"/>
<polygon fill="#191970" stroke="#191970" points="887.3476,-8.7882 877.1675,-11.7235 886.9562,-15.7772 887.3476,-8.7882"/>
</g>
<!-- Node27&#45;&gt;Node28 -->
<g id="edge45" class="edge">
<title>Node27&#45;&gt;Node28</title>
<path fill="none" stroke="#191970" d="M1502.5614,-171.4408C1572.0677,-159.9903 1683.8208,-141.5801 1744.6621,-131.5571"/>
<polygon fill="#191970" stroke="#191970" points="1745.3941,-134.9838 1754.6921,-129.9048 1744.2562,-128.0769 1745.3941,-134.9838"/>
</g>
<!-- Node30 -->
<g id="node30" class="node">
<title>Node30</title>
<g id="a_node30"><a xlink:href="../../db/dd5/PHPointerList_8h.html" target="_top" xlink:title="PHPointerList.h">
<polygon fill="none" stroke="#000000" points="1405.5,-57.5 1405.5,-77.5 1497.5,-77.5 1497.5,-57.5 1405.5,-57.5"/>
<text text-anchor="middle" x="1451.5" y="-64.5" font-family="FreeSans" font-size="10.00" fill="#000000">PHPointerList.h</text>
</a>
</g>
</g>
<!-- Node27&#45;&gt;Node30 -->
<g id="edge48" class="edge">
<title>Node27&#45;&gt;Node30</title>
<path fill="none" stroke="#191970" d="M1442.3874,-171.3833C1444.0289,-152.6703 1447.5678,-112.3266 1449.7205,-87.7866"/>
<polygon fill="#191970" stroke="#191970" points="1453.2129,-88.0256 1450.6002,-77.7579 1446.2396,-87.4138 1453.2129,-88.0256"/>
</g>
<!-- Node28&#45;&gt;Node9 -->
<g id="edge47" class="edge">
<title>Node28&#45;&gt;Node9</title>
<path fill="none" stroke="#191970" d="M1760.5958,-114.4063C1718.4208,-99.0723 1633.867,-70.2904 1559.5,-57 1427.6375,-33.4344 1007.6206,-16.2328 887.1109,-11.6891"/>
<polygon fill="#191970" stroke="#191970" points="887.1579,-8.1885 877.0342,-11.3125 886.8964,-15.1836 887.1579,-8.1885"/>
</g>
<!-- Node29 -->
<g id="node29" class="node">
<title>Node29</title>
<polygon fill="none" stroke="#bfbfbf" points="1740.5,-57.5 1740.5,-77.5 1788.5,-77.5 1788.5,-57.5 1740.5,-57.5"/>
<text text-anchor="middle" x="1764.5" y="-64.5" font-family="FreeSans" font-size="10.00" fill="#000000">iosfwd</text>
</g>
<!-- Node28&#45;&gt;Node29 -->
<g id="edge46" class="edge">
<title>Node28&#45;&gt;Node29</title>
<path fill="none" stroke="#191970" d="M1783.3881,-114.3095C1780.3463,-106.7714 1776.1088,-96.2696 1772.4181,-87.123"/>
<polygon fill="#191970" stroke="#191970" points="1775.5641,-85.566 1768.5763,-77.6022 1769.0726,-88.1854 1775.5641,-85.566"/>
</g>
<!-- Node30&#45;&gt;Node10 -->
<g id="edge49" class="edge">
<title>Node30&#45;&gt;Node10</title>
<path fill="none" stroke="#191970" d="M1451.5,-57.3095C1451.5,-49.9335 1451.5,-39.72 1451.5,-30.715"/>
<polygon fill="#191970" stroke="#191970" points="1455.0001,-30.6022 1451.5,-20.6022 1448.0001,-30.6023 1455.0001,-30.6022"/>
</g>
<!-- Node31&#45;&gt;Node9 -->
<g id="edge73" class="edge">
<title>Node31&#45;&gt;Node9</title>
<path fill="none" stroke="#191970" d="M1142.2752,-228.4754C1080.983,-218.2466 995.5285,-202.4343 983.5,-192 935.2834,-150.1737 975.4359,-105.9747 934.5,-57 921.7536,-41.7506 902.6428,-30.3802 886.2961,-22.7011"/>
<polygon fill="#191970" stroke="#191970" points="887.6202,-19.4596 877.0598,-18.6049 884.7823,-25.8585 887.6202,-19.4596"/>
</g>
<!-- Node31&#45;&gt;Node25 -->
<g id="edge72" class="edge">
<title>Node31&#45;&gt;Node25</title>
<path fill="none" stroke="#191970" d="M1271.7564,-232.9165C1351.9699,-225.4631 1481.8657,-210.9687 1526.5,-192 1554.0185,-180.3052 1580.3863,-157.7045 1596.7376,-141.8895"/>
<polygon fill="#191970" stroke="#191970" points="1599.2967,-144.2807 1603.9211,-134.7484 1594.3616,-139.3163 1599.2967,-144.2807"/>
</g>
<!-- Node32 -->
<g id="node32" class="node">
<title>Node32</title>
<g id="a_node32"><a xlink:href="../../dd/d9b/PHDataNode_8h.html" target="_top" xlink:title="PHDataNode.h">
<polygon fill="none" stroke="#000000" points="1772,-171.5 1772,-191.5 1861,-191.5 1861,-171.5 1772,-171.5"/>
<text text-anchor="middle" x="1816.5" y="-178.5" font-family="FreeSans" font-size="10.00" fill="#000000">PHDataNode.h</text>
</a>
</g>
</g>
<!-- Node31&#45;&gt;Node32 -->
<g id="edge52" class="edge">
<title>Node31&#45;&gt;Node32</title>
<path fill="none" stroke="#191970" d="M1271.7784,-235.3037C1374.5218,-229.8333 1578.5774,-216.9145 1761.6885,-191.9743"/>
<polygon fill="#191970" stroke="#191970" points="1762.3446,-195.4171 1771.7736,-190.5855 1761.3896,-188.4825 1762.3446,-195.4171"/>
</g>
<!-- Node33 -->
<g id="node33" class="node">
<title>Node33</title>
<g id="a_node33"><a xlink:href="../../d9/d53/PHIOManager_8h.html" target="_top" xlink:title="PHIOManager.h">
<polygon fill="none" stroke="#000000" points="984,-114.5 984,-134.5 1077,-134.5 1077,-114.5 984,-114.5"/>
<text text-anchor="middle" x="1030.5" y="-121.5" font-family="FreeSans" font-size="10.00" fill="#000000">PHIOManager.h</text>
</a>
</g>
</g>
<!-- Node31&#45;&gt;Node33 -->
<g id="edge55" class="edge">
<title>Node31&#45;&gt;Node33</title>
<path fill="none" stroke="#191970" d="M1140.4384,-228.4862C1081.3155,-218.7232 1001.9065,-203.6816 992.5,-192 979.7871,-176.2123 995.2172,-155.6161 1010.0576,-141.3466"/>
<polygon fill="#191970" stroke="#191970" points="1012.5391,-143.8215 1017.6122,-134.5202 1007.846,-138.6278 1012.5391,-143.8215"/>
</g>
<!-- Node35 -->
<g id="node35" class="node">
<title>Node35</title>
<g id="a_node35"><a xlink:href="../../dd/de7/PHNodeIOManager_8h.html" target="_top" xlink:title="PHNodeIOManager.h">
<polygon fill="none" stroke="#000000" points="1001.5,-171.5 1001.5,-191.5 1121.5,-191.5 1121.5,-171.5 1001.5,-171.5"/>
<text text-anchor="middle" x="1061.5" y="-178.5" font-family="FreeSans" font-size="10.00" fill="#000000">PHNodeIOManager.h</text>
</a>
</g>
</g>
<!-- Node31&#45;&gt;Node35 -->
<g id="edge58" class="edge">
<title>Node31&#45;&gt;Node35</title>
<path fill="none" stroke="#191970" d="M1180.0872,-228.4408C1156.8904,-219.2587 1122.3876,-205.6013 1096.5707,-195.3822"/>
<polygon fill="#191970" stroke="#191970" points="1097.7294,-192.0766 1087.1432,-191.6504 1095.153,-198.5853 1097.7294,-192.0766"/>
</g>
<!-- Node37 -->
<g id="node37" class="node">
<title>Node37</title>
<g id="a_node37"><a xlink:href="../../db/d17/PHTypedNodeIterator_8h.html" target="_top" xlink:title="PHTypedNodeIterator.h">
<polygon fill="none" stroke="#000000" points="1139.5,-171.5 1139.5,-191.5 1271.5,-191.5 1271.5,-171.5 1139.5,-171.5"/>
<text text-anchor="middle" x="1205.5" y="-178.5" font-family="FreeSans" font-size="10.00" fill="#000000">PHTypedNodeIterator.h</text>
</a>
</g>
</g>
<!-- Node31&#45;&gt;Node37 -->
<g id="edge65" class="edge">
<title>Node31&#45;&gt;Node37</title>
<path fill="none" stroke="#191970" d="M1205.5,-228.3095C1205.5,-220.9335 1205.5,-210.72 1205.5,-201.715"/>
<polygon fill="#191970" stroke="#191970" points="1209.0001,-201.6022 1205.5,-191.6022 1202.0001,-201.6023 1209.0001,-201.6022"/>
</g>
<!-- Node39 -->
<g id="node39" class="node">
<title>Node39</title>
<g id="a_node39"><a xlink:href="../../de/da7/phooldefs_8h.html" target="_top" xlink:title="phooldefs.h">
<polygon fill="none" stroke="#000000" points="850,-57.5 850,-77.5 925,-77.5 925,-57.5 850,-57.5"/>
<text text-anchor="middle" x="887.5" y="-64.5" font-family="FreeSans" font-size="10.00" fill="#000000">phooldefs.h</text>
</a>
</g>
</g>
<!-- Node31&#45;&gt;Node39 -->
<g id="edge70" class="edge">
<title>Node31&#45;&gt;Node39</title>
<path fill="none" stroke="#191970" d="M1139.4154,-228.5786C1056.7827,-216.0439 925.5602,-195.6574 921.5,-192 891.9436,-165.3761 887.03,-115.8008 886.7945,-87.9132"/>
<polygon fill="#191970" stroke="#191970" points="890.2962,-87.7778 886.9114,-77.7382 883.2967,-87.6973 890.2962,-87.7778"/>
</g>
<!-- Node32&#45;&gt;Node10 -->
<g id="edge54" class="edge">
<title>Node32&#45;&gt;Node10</title>
<path fill="none" stroke="#191970" d="M1801.6462,-171.1687C1767.8337,-148.0283 1681.9658,-91.376 1603.5,-57 1566.824,-40.9322 1522.8932,-28.1404 1491.7137,-20.0728"/>
<polygon fill="#191970" stroke="#191970" points="1492.2112,-16.5881 1481.6575,-17.52 1490.4889,-23.373 1492.2112,-16.5881"/>
</g>
<!-- Node32&#45;&gt;Node28 -->
<g id="edge53" class="edge">
<title>Node32&#45;&gt;Node28</title>
<path fill="none" stroke="#191970" d="M1811.3154,-171.3095C1807.3977,-163.6093 1801.9067,-152.8166 1797.1844,-143.5349"/>
<polygon fill="#191970" stroke="#191970" points="1800.2938,-141.9279 1792.6397,-134.6022 1794.0549,-145.1021 1800.2938,-141.9279"/>
</g>
<!-- Node33&#45;&gt;Node9 -->
<g id="edge57" class="edge">
<title>Node33&#45;&gt;Node9</title>
<path fill="none" stroke="#191970" d="M1029.5197,-114.2712C1027.5642,-99.547 1021.8445,-72.4544 1005.5,-57 988.3473,-40.7815 926.0012,-25.3518 886.9862,-16.9816"/>
<polygon fill="#191970" stroke="#191970" points="887.6407,-13.5428 877.1346,-14.9113 886.201,-20.3931 887.6407,-13.5428"/>
</g>
<!-- Node34 -->
<g id="node34" class="node">
<title>Node34</title>
<polygon fill="none" stroke="#bfbfbf" points="1133.5,-57.5 1133.5,-77.5 1187.5,-77.5 1187.5,-57.5 1133.5,-57.5"/>
<text text-anchor="middle" x="1160.5" y="-64.5" font-family="FreeSans" font-size="10.00" fill="#000000">cstddef</text>
</g>
<!-- Node33&#45;&gt;Node34 -->
<g id="edge56" class="edge">
<title>Node33&#45;&gt;Node34</title>
<path fill="none" stroke="#191970" d="M1053.4421,-114.4408C1074.1069,-105.3801 1104.7105,-91.9615 1127.9108,-81.7891"/>
<polygon fill="#191970" stroke="#191970" points="1129.5971,-84.8715 1137.3499,-77.6504 1126.7861,-78.4606 1129.5971,-84.8715"/>
</g>
<!-- Node35&#45;&gt;Node9 -->
<g id="edge64" class="edge">
<title>Node35&#45;&gt;Node9</title>
<path fill="none" stroke="#191970" d="M1070.1921,-171.3102C1080.4459,-157.9835 1095.078,-133.9807 1086.5,-114 1071.9899,-80.2014 1058.5668,-75.0169 1026.5,-57 981.828,-31.9008 922.9522,-19.814 886.9581,-14.4087"/>
<polygon fill="#191970" stroke="#191970" points="887.3957,-10.9359 877.0034,-12.9972 886.413,-17.8665 887.3957,-10.9359"/>
</g>
<!-- Node35&#45;&gt;Node11 -->
<g id="edge63" class="edge">
<title>Node35&#45;&gt;Node11</title>
<path fill="none" stroke="#191970" d="M1001.3242,-173.3333C910.0348,-160.944 739.9269,-137.8579 671.323,-128.5474"/>
<polygon fill="#191970" stroke="#191970" points="671.5915,-125.0518 661.2116,-127.1752 670.6501,-131.9883 671.5915,-125.0518"/>
</g>
<!-- Node35&#45;&gt;Node33 -->
<g id="edge59" class="edge">
<title>Node35&#45;&gt;Node33</title>
<path fill="none" stroke="#191970" d="M1055.9578,-171.3095C1051.77,-163.6093 1045.9003,-152.8166 1040.8523,-143.5349"/>
<polygon fill="#191970" stroke="#191970" points="1043.8467,-141.7149 1035.9942,-134.6022 1037.6973,-145.0593 1043.8467,-141.7149"/>
</g>
<!-- Node35&#45;&gt;Node34 -->
<g id="edge62" class="edge">
<title>Node35&#45;&gt;Node34</title>
<path fill="none" stroke="#191970" d="M1076.7786,-171.4944C1089.2471,-162.8332 1106.8139,-149.4518 1119.5,-135 1132.3104,-120.4066 1143.4951,-101.3012 1150.9321,-87.1426"/>
<polygon fill="#191970" stroke="#191970" points="1154.2477,-88.3434 1155.6547,-77.8424 1148.0063,-85.174 1154.2477,-88.3434"/>
</g>
<!-- Node36 -->
<g id="node36" class="node">
<title>Node36</title>
<g id="a_node36"><a xlink:href="../../d5/d6f/phool_8h.html" target="_top" xlink:title="phool.h">
<polygon fill="none" stroke="#000000" points="1269.5,-57.5 1269.5,-77.5 1323.5,-77.5 1323.5,-57.5 1269.5,-57.5"/>
<text text-anchor="middle" x="1296.5" y="-64.5" font-family="FreeSans" font-size="10.00" fill="#000000">phool.h</text>
</a>
</g>
</g>
<!-- Node35&#45;&gt;Node36 -->
<g id="edge60" class="edge">
<title>Node35&#45;&gt;Node36</title>
<path fill="none" stroke="#191970" d="M1082.3547,-171.3833C1124.1628,-151.1019 1218.3477,-105.4122 1266.6685,-81.9714"/>
<polygon fill="#191970" stroke="#191970" points="1268.2224,-85.1078 1275.6921,-77.5941 1265.1672,-78.8097 1268.2224,-85.1078"/>
</g>
<!-- Node36&#45;&gt;Node10 -->
<g id="edge61" class="edge">
<title>Node36&#45;&gt;Node10</title>
<path fill="none" stroke="#191970" d="M1323.8541,-57.4408C1349.1205,-48.1492 1386.8487,-34.275 1414.7403,-24.0181"/>
<polygon fill="#191970" stroke="#191970" points="1415.9816,-27.2908 1424.1591,-20.5544 1413.5656,-20.721 1415.9816,-27.2908"/>
</g>
<!-- Node37&#45;&gt;Node34 -->
<g id="edge69" class="edge">
<title>Node37&#45;&gt;Node34</title>
<path fill="none" stroke="#191970" d="M1201.5066,-171.3833C1194.0533,-152.5017 1177.9071,-111.598 1168.2476,-87.1272"/>
<polygon fill="#191970" stroke="#191970" points="1171.4765,-85.7744 1164.5492,-77.7579 1164.9654,-88.3446 1171.4765,-85.7744"/>
</g>
<!-- Node37&#45;&gt;Node38 -->
<g id="edge66" class="edge">
<title>Node37&#45;&gt;Node38</title>
<path fill="none" stroke="#191970" d="M1222.1265,-171.3095C1236.2771,-162.6366 1256.8284,-150.0407 1273.0487,-140.0992"/>
<polygon fill="#191970" stroke="#191970" points="1275.3204,-142.812 1282.0174,-134.6022 1271.6624,-136.8438 1275.3204,-142.812"/>
</g>
<!-- Node38&#45;&gt;Node9 -->
<g id="edge68" class="edge">
<title>Node38&#45;&gt;Node9</title>
<path fill="none" stroke="#191970" d="M1286.926,-114.2519C1268.9658,-98.9848 1232.6716,-70.6097 1196.5,-57 1140.106,-35.7816 961.254,-19.2038 887.1491,-13.0702"/>
<polygon fill="#191970" stroke="#191970" points="887.2543,-9.5672 877.0026,-12.2417 886.6846,-16.544 887.2543,-9.5672"/>
</g>
<!-- Node38&#45;&gt;Node30 -->
<g id="edge67" class="edge">
<title>Node38&#45;&gt;Node30</title>
<path fill="none" stroke="#191970" d="M1325.5011,-114.4408C1350.3326,-105.1898 1387.3579,-91.3961 1414.8534,-81.1527"/>
<polygon fill="#191970" stroke="#191970" points="1416.363,-84.3253 1424.5119,-77.5544 1413.9192,-77.7658 1416.363,-84.3253"/>
</g>
<!-- Node39&#45;&gt;Node9 -->
<g id="edge71" class="edge">
<title>Node39&#45;&gt;Node9</title>
<path fill="none" stroke="#191970" d="M881.6003,-57.3095C877.1422,-49.6093 870.8938,-38.8166 865.5202,-29.5349"/>
<polygon fill="#191970" stroke="#191970" points="868.3881,-27.5029 860.3487,-20.6022 862.3301,-31.0102 868.3881,-27.5029"/>
</g>
<!-- Node40&#45;&gt;Node9 -->
<g id="edge83" class="edge">
<title>Node40&#45;&gt;Node9</title>
<path fill="none" stroke="#191970" d="M1545.5,-285.4352C1545.5,-265.5659 1545.5,-219.8958 1545.5,-181.5 1545.5,-181.5 1545.5,-181.5 1545.5,-124.5 1545.5,-89.8526 1535.8729,-75.376 1506.5,-57 1453.6829,-23.9571 1011.7125,-13.3868 887.0937,-11.0489"/>
<polygon fill="#191970" stroke="#191970" points="887.0858,-7.5482 877.0236,-10.8651 886.958,-14.5471 887.0858,-7.5482"/>
</g>
<!-- Node40&#45;&gt;Node25 -->
<g id="edge82" class="edge">
<title>Node40&#45;&gt;Node25</title>
<path fill="none" stroke="#191970" d="M1549.5501,-285.3153C1560.5319,-257.6992 1591.0252,-181.0174 1605.5762,-144.426"/>
<polygon fill="#191970" stroke="#191970" points="1608.9422,-145.4331 1609.3852,-134.8476 1602.4377,-142.8465 1608.9422,-145.4331"/>
</g>
<!-- Node40&#45;&gt;Node28 -->
<g id="edge80" class="edge">
<title>Node40&#45;&gt;Node28</title>
<path fill="none" stroke="#191970" d="M1595.5109,-286.9393C1678.2577,-271.6409 1837.8043,-236.9566 1870.5,-192 1886.7435,-169.6652 1856.117,-150.5039 1827.5871,-138.3645"/>
<polygon fill="#191970" stroke="#191970" points="1828.6462,-135.0177 1818.0629,-134.5224 1826.0274,-141.5094 1828.6462,-135.0177"/>
</g>
<!-- Node40&#45;&gt;Node31 -->
<g id="edge79" class="edge">
<title>Node40&#45;&gt;Node31</title>
<path fill="none" stroke="#191970" d="M1495.3318,-287.0895C1437.2067,-277.3449 1341.0542,-261.2253 1275.5707,-250.2471"/>
<polygon fill="#191970" stroke="#191970" points="1275.7759,-246.7328 1265.3348,-248.5311 1274.6185,-253.6364 1275.7759,-246.7328"/>
</g>
<!-- Node40&#45;&gt;Node32 -->
<g id="edge78" class="edge">
<title>Node40&#45;&gt;Node32</title>
<path fill="none" stroke="#191970" d="M1569.5494,-285.3833C1618.0635,-264.9751 1727.7354,-218.8401 1783.1372,-195.5345"/>
<polygon fill="#191970" stroke="#191970" points="1784.644,-198.6978 1792.5045,-191.5941 1781.9297,-192.2455 1784.644,-198.6978"/>
</g>
<!-- Node40&#45;&gt;Node38 -->
<g id="edge81" class="edge">
<title>Node40&#45;&gt;Node38</title>
<path fill="none" stroke="#191970" d="M1521.3125,-285.4826C1483.8565,-269.2751 1410.608,-234.7597 1357.5,-192 1339.6296,-177.6117 1322.7774,-157.4134 1311.6958,-142.8664"/>
<polygon fill="#191970" stroke="#191970" points="1314.3578,-140.5806 1305.5841,-134.6416 1308.7392,-144.7557 1314.3578,-140.5806"/>
</g>
</g>
</svg>
