<?xml version="1.0" encoding="UTF-8" standalone="no"?>
<!DOCTYPE svg PUBLIC "-//W3C//DTD SVG 1.1//EN"
 "http://www.w3.org/Graphics/SVG/1.1/DTD/svg11.dtd">
<!-- Generated by graphviz version 2.40.1 (20161225.0304)
 -->
<!-- Title: SvtxTrack_v1::set_positive_charge Pages: 1 -->
<svg width="731pt" height="41pt"
 viewBox="0.00 0.00 731.00 41.00" xmlns="http://www.w3.org/2000/svg" xmlns:xlink="http://www.w3.org/1999/xlink">
<g id="graph0" class="graph" transform="scale(1 1) rotate(0) translate(4 37)">
<title>SvtxTrack_v1::set_positive_charge</title>
<!-- Node1 -->
<g id="node1" class="node">
<title>Node1</title>
<polygon fill="#bfbfbf" stroke="#000000" points="0,-.5 0,-32.5 149,-32.5 149,-.5 0,-.5"/>
<text text-anchor="start" x="8" y="-19.5" font-family="FreeSans" font-size="10.00" fill="#000000">SvtxTrack_v1::set_positive</text>
<text text-anchor="middle" x="74.5" y="-7.5" font-family="FreeSans" font-size="10.00" fill="#000000">_charge</text>
</g>
<!-- Node2 -->
<g id="node2" class="node">
<title>Node2</title>
<g id="a_node2"><a xlink:href="../../db/de4/classSvtxTrack__v1.html#a97e7a3e6b2cfd5ea32dd46dbe9e1a23c" target="_top" xlink:title="SvtxTrack_v1::set_charge">
<polygon fill="none" stroke="#000000" points="185,-6.5 185,-26.5 329,-26.5 329,-6.5 185,-6.5"/>
<text text-anchor="middle" x="257" y="-13.5" font-family="FreeSans" font-size="10.00" fill="#000000">SvtxTrack_v1::set_charge</text>
</a>
</g>
</g>
<!-- Node1&#45;&gt;Node2 -->
<g id="edge1" class="edge">
<title>Node1&#45;&gt;Node2</title>
<path fill="none" stroke="#191970" d="M159.4891,-16.5C167.9233,-16.5 176.4291,-16.5 184.7166,-16.5"/>
<polygon fill="#191970" stroke="#191970" points="159.2563,-13.0001 149.2563,-16.5 159.2563,-20.0001 159.2563,-13.0001"/>
</g>
<!-- Node3 -->
<g id="node3" class="node">
<title>Node3</title>
<g id="a_node3"><a xlink:href="../../d9/d91/classPHG4TrackFastSim.html#a27f5d3e1fcab6a5cc74fda92cd51359f" target="_top" xlink:title="PHG4TrackFastSim::MakeSvtx\lTrack">
<polygon fill="none" stroke="#000000" points="365,-.5 365,-32.5 531,-32.5 531,-.5 365,-.5"/>
<text text-anchor="start" x="373" y="-19.5" font-family="FreeSans" font-size="10.00" fill="#000000">PHG4TrackFastSim::MakeSvtx</text>
<text text-anchor="middle" x="448" y="-7.5" font-family="FreeSans" font-size="10.00" fill="#000000">Track</text>
</a>
</g>
</g>
<!-- Node2&#45;&gt;Node3 -->
<g id="edge2" class="edge">
<title>Node2&#45;&gt;Node3</title>
<path fill="none" stroke="#191970" d="M339.3908,-16.5C347.8092,-16.5 356.3662,-16.5 364.7933,-16.5"/>
<polygon fill="#191970" stroke="#191970" points="339.2089,-13.0001 329.2089,-16.5 339.2089,-20.0001 339.2089,-13.0001"/>
</g>
<!-- Node4 -->
<g id="node4" class="node">
<title>Node4</title>
<g id="a_node4"><a xlink:href="../../d9/d91/classPHG4TrackFastSim.html#a8bb22ab279c5f433069774bd2ab0a7ae" target="_top" xlink:title="Process Event, called for each event.">
<polygon fill="none" stroke="#000000" points="567,-.5 567,-32.5 723,-32.5 723,-.5 567,-.5"/>
<text text-anchor="start" x="575" y="-19.5" font-family="FreeSans" font-size="10.00" fill="#000000">PHG4TrackFastSim::process</text>
<text text-anchor="middle" x="645" y="-7.5" font-family="FreeSans" font-size="10.00" fill="#000000">_event</text>
</a>
</g>
</g>
<!-- Node3&#45;&gt;Node4 -->
<g id="edge3" class="edge">
<title>Node3&#45;&gt;Node4</title>
<path fill="none" stroke="#191970" d="M541.5172,-16.5C549.9596,-16.5 558.451,-16.5 566.7424,-16.5"/>
<polygon fill="#191970" stroke="#191970" points="541.2602,-13.0001 531.2602,-16.5 541.2602,-20.0001 541.2602,-13.0001"/>
</g>
</g>
</svg>
