<?xml version="1.0" encoding="UTF-8" standalone="no"?>
<!DOCTYPE svg PUBLIC "-//W3C//DTD SVG 1.1//EN"
 "http://www.w3.org/Graphics/SVG/1.1/DTD/svg11.dtd">
<!-- Generated by graphviz version 2.40.1 (20161225.0304)
 -->
<!-- Title: SvtxTrack_v1::get_px Pages: 1 -->
<svg width="1071pt" height="482pt"
 viewBox="0.00 0.00 1071.00 482.13" xmlns="http://www.w3.org/2000/svg" xmlns:xlink="http://www.w3.org/1999/xlink">
<g id="graph0" class="graph" transform="scale(1 1) rotate(0) translate(4 478.1278)">
<title>SvtxTrack_v1::get_px</title>
<!-- Node1 -->
<g id="node1" class="node">
<title>Node1</title>
<polygon fill="#bfbfbf" stroke="#000000" points="0,-216.6278 0,-236.6278 123,-236.6278 123,-216.6278 0,-216.6278"/>
<text text-anchor="middle" x="61.5" y="-223.6278" font-family="FreeSans" font-size="10.00" fill="#000000">SvtxTrack_v1::get_px</text>
</g>
<!-- Node2 -->
<g id="node2" class="node">
<title>Node2</title>
<g id="a_node2"><a xlink:href="../../d2/d8f/classPHInitZVertexing.html#a8be961e889654346a4d4435896e5d0e0" target="_top" xlink:title="PHInitZVertexing::export\l_output">
<polygon fill="none" stroke="#000000" points="162.5,-441.6278 162.5,-473.6278 303.5,-473.6278 303.5,-441.6278 162.5,-441.6278"/>
<text text-anchor="start" x="170.5" y="-460.6278" font-family="FreeSans" font-size="10.00" fill="#000000">PHInitZVertexing::export</text>
<text text-anchor="middle" x="233" y="-448.6278" font-family="FreeSans" font-size="10.00" fill="#000000">_output</text>
</a>
</g>
</g>
<!-- Node1&#45;&gt;Node2 -->
<g id="edge1" class="edge">
<title>Node1&#45;&gt;Node2</title>
<path fill="none" stroke="#191970" d="M65.5064,-246.7574C74.6848,-287.68 101.0609,-381.0615 159,-432.6278 162.8493,-436.0536 167.1863,-439.0133 171.7814,-441.5697"/>
<polygon fill="#191970" stroke="#191970" points="68.9125,-245.9476 63.4045,-236.8971 62.0663,-247.407 68.9125,-245.9476"/>
</g>
<!-- Node4 -->
<g id="node4" class="node">
<title>Node4</title>
<g id="a_node4"><a xlink:href="../../d1/d97/classPHPatternReco.html#a6549c8bd552acd725fc0e611560c53c7" target="_top" xlink:title="PHPatternReco::export\l_output">
<polygon fill="none" stroke="#000000" points="168,-390.6278 168,-422.6278 298,-422.6278 298,-390.6278 168,-390.6278"/>
<text text-anchor="start" x="176" y="-409.6278" font-family="FreeSans" font-size="10.00" fill="#000000">PHPatternReco::export</text>
<text text-anchor="middle" x="233" y="-397.6278" font-family="FreeSans" font-size="10.00" fill="#000000">_output</text>
</a>
</g>
</g>
<!-- Node1&#45;&gt;Node4 -->
<g id="edge3" class="edge">
<title>Node1&#45;&gt;Node4</title>
<path fill="none" stroke="#191970" d="M68.8009,-246.4309C81.8781,-279.2342 112.366,-344.8673 159,-381.6278 163.2599,-384.9857 167.9952,-387.9047 172.9533,-390.4398"/>
<polygon fill="#191970" stroke="#191970" points="72.0324,-245.083 65.1685,-237.0122 65.5013,-247.6019 72.0324,-245.083"/>
</g>
<!-- Node6 -->
<g id="node6" class="node">
<title>Node6</title>
<g id="a_node6"><a xlink:href="../../d8/dd4/classPHHoughSeeding.html#a61550a59cd3a34af03c43572e28274cb" target="_top" xlink:title="code to translate back to the SVTX universe">
<polygon fill="none" stroke="#000000" points="161,-339.6278 161,-371.6278 305,-371.6278 305,-339.6278 161,-339.6278"/>
<text text-anchor="start" x="169" y="-358.6278" font-family="FreeSans" font-size="10.00" fill="#000000">PHHoughSeeding::export</text>
<text text-anchor="middle" x="233" y="-346.6278" font-family="FreeSans" font-size="10.00" fill="#000000">_output</text>
</a>
</g>
</g>
<!-- Node1&#45;&gt;Node6 -->
<g id="edge5" class="edge">
<title>Node1&#45;&gt;Node6</title>
<path fill="none" stroke="#191970" d="M75.7724,-244.8048C93.4013,-266.2635 125.2246,-301.899 159,-324.6278 167.5515,-330.3824 177.3424,-335.4004 186.9416,-339.6268"/>
<polygon fill="#191970" stroke="#191970" points="78.3288,-242.3993 69.3261,-236.8134 72.8804,-246.7943 78.3288,-242.3993"/>
</g>
<!-- Node8 -->
<g id="node8" class="node">
<title>Node8</title>
<g id="a_node8"><a xlink:href="../../d0/d71/classPHG4TrackFastSimEval.html#a52a746bdc6e84dc7886b5bae0b608e68" target="_top" xlink:title="PHG4TrackFastSimEval\l::fill_track_tree">
<polygon fill="none" stroke="#000000" points="541.5,-246.6278 541.5,-278.6278 672.5,-278.6278 672.5,-246.6278 541.5,-246.6278"/>
<text text-anchor="start" x="549.5" y="-265.6278" font-family="FreeSans" font-size="10.00" fill="#000000">PHG4TrackFastSimEval</text>
<text text-anchor="middle" x="607" y="-253.6278" font-family="FreeSans" font-size="10.00" fill="#000000">::fill_track_tree</text>
</a>
</g>
</g>
<!-- Node1&#45;&gt;Node8 -->
<g id="edge7" class="edge">
<title>Node1&#45;&gt;Node8</title>
<path fill="none" stroke="#191970" d="M79.6578,-243.6064C98.0431,-259.5375 128.1006,-282.2722 159,-291.6278 294.9517,-332.7906 464.3877,-300.6468 550.7288,-278.7102"/>
<polygon fill="#191970" stroke="#191970" points="81.8629,-240.8832 72.0708,-236.8379 77.203,-246.1068 81.8629,-240.8832"/>
</g>
<!-- Node10 -->
<g id="node10" class="node">
<title>Node10</title>
<g id="a_node10"><a xlink:href="../../d6/dab/classFastTrackingEval.html#ad48789b2016d4db8b323a1f4767553d7" target="_top" xlink:title="FastTrackingEval::fill_tree">
<polygon fill="none" stroke="#000000" points="161,-261.6278 161,-281.6278 305,-281.6278 305,-261.6278 161,-261.6278"/>
<text text-anchor="middle" x="233" y="-268.6278" font-family="FreeSans" font-size="10.00" fill="#000000">FastTrackingEval::fill_tree</text>
</a>
</g>
</g>
<!-- Node1&#45;&gt;Node10 -->
<g id="edge9" class="edge">
<title>Node1&#45;&gt;Node10</title>
<path fill="none" stroke="#191970" d="M108.6429,-239.2936C124.6217,-243.5615 142.5791,-248.3303 159,-252.6278 170.1637,-255.5494 182.2861,-258.6796 193.4262,-261.5392"/>
<polygon fill="#191970" stroke="#191970" points="109.5458,-235.9122 98.9811,-236.7097 107.7373,-242.6745 109.5458,-235.9122"/>
</g>
<!-- Node12 -->
<g id="node12" class="node">
<title>Node12</title>
<g id="a_node12"><a xlink:href="../../db/d22/classEventEvaluator.html#ada437671569f41f49d8efe8235d569ab" target="_top" xlink:title="dump the evaluator information into ntuple for external analysis">
<polygon fill="none" stroke="#000000" points="159,-210.6278 159,-242.6278 307,-242.6278 307,-210.6278 159,-210.6278"/>
<text text-anchor="start" x="167" y="-229.6278" font-family="FreeSans" font-size="10.00" fill="#000000">EventEvaluator::fillOutput</text>
<text text-anchor="middle" x="233" y="-217.6278" font-family="FreeSans" font-size="10.00" fill="#000000">Ntuples</text>
</a>
</g>
</g>
<!-- Node1&#45;&gt;Node12 -->
<g id="edge11" class="edge">
<title>Node1&#45;&gt;Node12</title>
<path fill="none" stroke="#191970" d="M133.5335,-226.6278C141.9199,-226.6278 150.486,-226.6278 158.8996,-226.6278"/>
<polygon fill="#191970" stroke="#191970" points="133.4155,-223.1279 123.4154,-226.6278 133.4154,-230.1279 133.4155,-223.1279"/>
</g>
<!-- Node14 -->
<g id="node14" class="node">
<title>Node14</title>
<g id="a_node14"><a xlink:href="../../db/de4/classSvtxTrack__v1.html#a648d8317759237869ef5dec90df68f61" target="_top" xlink:title="SvtxTrack_v1::get_p">
<polygon fill="none" stroke="#000000" points="359,-93.6278 359,-113.6278 476,-113.6278 476,-93.6278 359,-93.6278"/>
<text text-anchor="middle" x="417.5" y="-100.6278" font-family="FreeSans" font-size="10.00" fill="#000000">SvtxTrack_v1::get_p</text>
</a>
</g>
</g>
<!-- Node1&#45;&gt;Node14 -->
<g id="edge13" class="edge">
<title>Node1&#45;&gt;Node14</title>
<path fill="none" stroke="#191970" d="M72.9804,-207.7046C88.8987,-183.402 120.1518,-142.1555 159,-123.6278 222.3804,-93.4 304.5068,-92.5855 358.9969,-96.5617"/>
<polygon fill="#191970" stroke="#191970" points="69.8696,-206.0746 67.47,-216.3942 75.7812,-209.8234 69.8696,-206.0746"/>
</g>
<!-- Node18 -->
<g id="node18" class="node">
<title>Node18</title>
<g id="a_node18"><a xlink:href="../../db/de4/classSvtxTrack__v1.html#abf1fee73eee01958a930a6741557341e" target="_top" xlink:title="SvtxTrack_v1::get_phi">
<polygon fill="none" stroke="#000000" points="170,-54.6278 170,-74.6278 296,-74.6278 296,-54.6278 170,-54.6278"/>
<text text-anchor="middle" x="233" y="-61.6278" font-family="FreeSans" font-size="10.00" fill="#000000">SvtxTrack_v1::get_phi</text>
</a>
</g>
</g>
<!-- Node1&#45;&gt;Node18 -->
<g id="edge17" class="edge">
<title>Node1&#45;&gt;Node18</title>
<path fill="none" stroke="#191970" d="M70.4246,-207.0835C84.8986,-177.4897 116.2394,-121.4009 159,-89.6278 167.7077,-83.1575 178.1997,-78.2897 188.5104,-74.6548"/>
<polygon fill="#191970" stroke="#191970" points="67.146,-205.8284 66.0173,-216.3629 73.4691,-208.8316 67.146,-205.8284"/>
</g>
<!-- Node19 -->
<g id="node19" class="node">
<title>Node19</title>
<g id="a_node19"><a xlink:href="../../db/de4/classSvtxTrack__v1.html#ad4d9ed0aac7c3b30b38afb352003b346" target="_top" xlink:title="SvtxTrack_v1::get_pt">
<polygon fill="none" stroke="#000000" points="172,-15.6278 172,-35.6278 294,-35.6278 294,-15.6278 172,-15.6278"/>
<text text-anchor="middle" x="233" y="-22.6278" font-family="FreeSans" font-size="10.00" fill="#000000">SvtxTrack_v1::get_pt</text>
</a>
</g>
</g>
<!-- Node1&#45;&gt;Node19 -->
<g id="edge19" class="edge">
<title>Node1&#45;&gt;Node19</title>
<path fill="none" stroke="#191970" d="M66.4258,-206.7161C76.8053,-169.0477 104.5794,-87.3154 159,-44.6278 163.592,-41.0258 168.7915,-38.1007 174.2541,-35.7263"/>
<polygon fill="#191970" stroke="#191970" points="63.0105,-205.9417 63.8517,-216.5031 69.7803,-207.7223 63.0105,-205.9417"/>
</g>
<!-- Node21 -->
<g id="node21" class="node">
<title>Node21</title>
<g id="a_node21"><a xlink:href="../../db/de4/classSvtxTrack__v1.html#a7c816df61589ef81d5def0bee904d8d0" target="_top" xlink:title="SvtxTrack_v1::identify">
<polygon fill="none" stroke="#000000" points="169.5,-132.6278 169.5,-152.6278 296.5,-152.6278 296.5,-132.6278 169.5,-132.6278"/>
<text text-anchor="middle" x="233" y="-139.6278" font-family="FreeSans" font-size="10.00" fill="#000000">SvtxTrack_v1::identify</text>
</a>
</g>
</g>
<!-- Node1&#45;&gt;Node21 -->
<g id="edge23" class="edge">
<title>Node1&#45;&gt;Node21</title>
<path fill="none" stroke="#191970" d="M84.2145,-210.9228C103.489,-198.0831 132.2033,-180.0795 159,-167.6278 171.4207,-161.8562 185.5592,-156.7474 198.1266,-152.6767"/>
<polygon fill="#191970" stroke="#191970" points="82.1443,-208.0975 75.8124,-216.5921 86.0596,-213.9001 82.1443,-208.0975"/>
</g>
<!-- Node22 -->
<g id="node22" class="node">
<title>Node22</title>
<g id="a_node22"><a xlink:href="../../d9/da8/classSvtxTrack__FastSim.html#a69d872d53515332c6f431be1da6887f4" target="_top" xlink:title="SvtxTrack_FastSim::\lidentify">
<polygon fill="none" stroke="#000000" points="360,-147.6278 360,-179.6278 475,-179.6278 475,-147.6278 360,-147.6278"/>
<text text-anchor="start" x="368" y="-166.6278" font-family="FreeSans" font-size="10.00" fill="#000000">SvtxTrack_FastSim::</text>
<text text-anchor="middle" x="417.5" y="-154.6278" font-family="FreeSans" font-size="10.00" fill="#000000">identify</text>
</a>
</g>
</g>
<!-- Node1&#45;&gt;Node22 -->
<g id="edge27" class="edge">
<title>Node1&#45;&gt;Node22</title>
<path fill="none" stroke="#191970" d="M106.8066,-213.9562C123.1679,-209.6604 141.8336,-205.0804 159,-201.6278 227.5953,-187.8313 307.3772,-176.8647 359.9612,-170.3265"/>
<polygon fill="#191970" stroke="#191970" points="105.7132,-210.6254 96.9512,-216.5817 107.5152,-217.3895 105.7132,-210.6254"/>
</g>
<!-- Node3 -->
<g id="node3" class="node">
<title>Node3</title>
<g id="a_node3"><a xlink:href="../../d2/d8f/classPHInitZVertexing.html#a8e47fa6360aff82159de5cb71ea1620c" target="_top" xlink:title="PHInitZVertexing::Process">
<polygon fill="none" stroke="#000000" points="344.5,-447.6278 344.5,-467.6278 490.5,-467.6278 490.5,-447.6278 344.5,-447.6278"/>
<text text-anchor="middle" x="417.5" y="-454.6278" font-family="FreeSans" font-size="10.00" fill="#000000">PHInitZVertexing::Process</text>
</a>
</g>
</g>
<!-- Node2&#45;&gt;Node3 -->
<g id="edge2" class="edge">
<title>Node2&#45;&gt;Node3</title>
<path fill="none" stroke="#191970" d="M313.6375,-457.6278C323.8164,-457.6278 334.1869,-457.6278 344.2427,-457.6278"/>
<polygon fill="#191970" stroke="#191970" points="313.5413,-454.1279 303.5413,-457.6278 313.5412,-461.1279 313.5413,-454.1279"/>
</g>
<!-- Node5 -->
<g id="node5" class="node">
<title>Node5</title>
<g id="a_node5"><a xlink:href="../../d1/d97/classPHPatternReco.html#ac707abec77626e83b0d03a48661e40cf" target="_top" xlink:title="PHPatternReco::process\l_event">
<polygon fill="none" stroke="#000000" points="349.5,-390.6278 349.5,-422.6278 485.5,-422.6278 485.5,-390.6278 349.5,-390.6278"/>
<text text-anchor="start" x="357.5" y="-409.6278" font-family="FreeSans" font-size="10.00" fill="#000000">PHPatternReco::process</text>
<text text-anchor="middle" x="417.5" y="-397.6278" font-family="FreeSans" font-size="10.00" fill="#000000">_event</text>
</a>
</g>
</g>
<!-- Node4&#45;&gt;Node5 -->
<g id="edge4" class="edge">
<title>Node4&#45;&gt;Node5</title>
<path fill="none" stroke="#191970" d="M308.3026,-406.6278C321.8683,-406.6278 335.9404,-406.6278 349.2905,-406.6278"/>
<polygon fill="#191970" stroke="#191970" points="308.0478,-403.1279 298.0478,-406.6278 308.0478,-410.1279 308.0478,-403.1279"/>
</g>
<!-- Node7 -->
<g id="node7" class="node">
<title>Node7</title>
<g id="a_node7"><a xlink:href="../../d8/dd4/classPHHoughSeeding.html#a50ee2f174c0a9899aac7c01b4b363783" target="_top" xlink:title="PHHoughSeeding::Process">
<polygon fill="none" stroke="#000000" points="343,-345.6278 343,-365.6278 492,-365.6278 492,-345.6278 343,-345.6278"/>
<text text-anchor="middle" x="417.5" y="-352.6278" font-family="FreeSans" font-size="10.00" fill="#000000">PHHoughSeeding::Process</text>
</a>
</g>
</g>
<!-- Node6&#45;&gt;Node7 -->
<g id="edge6" class="edge">
<title>Node6&#45;&gt;Node7</title>
<path fill="none" stroke="#191970" d="M315.4181,-355.6278C324.6016,-355.6278 333.9165,-355.6278 342.9933,-355.6278"/>
<polygon fill="#191970" stroke="#191970" points="315.1252,-352.1279 305.1252,-355.6278 315.1252,-359.1279 315.1252,-352.1279"/>
</g>
<!-- Node9 -->
<g id="node9" class="node">
<title>Node9</title>
<g id="a_node9"><a xlink:href="../../d0/d71/classPHG4TrackFastSimEval.html#a49d7dacf282d8b17d774ef0f8778a802" target="_top" xlink:title="PHG4TrackFastSimEval\l::process_event">
<polygon fill="none" stroke="#000000" points="749,-246.6278 749,-278.6278 880,-278.6278 880,-246.6278 749,-246.6278"/>
<text text-anchor="start" x="757" y="-265.6278" font-family="FreeSans" font-size="10.00" fill="#000000">PHG4TrackFastSimEval</text>
<text text-anchor="middle" x="814.5" y="-253.6278" font-family="FreeSans" font-size="10.00" fill="#000000">::process_event</text>
</a>
</g>
</g>
<!-- Node8&#45;&gt;Node9 -->
<g id="edge8" class="edge">
<title>Node8&#45;&gt;Node9</title>
<path fill="none" stroke="#191970" d="M682.8031,-262.6278C704.4774,-262.6278 727.91,-262.6278 748.9169,-262.6278"/>
<polygon fill="#191970" stroke="#191970" points="682.6543,-259.1279 672.6543,-262.6278 682.6543,-266.1279 682.6543,-259.1279"/>
</g>
<!-- Node11 -->
<g id="node11" class="node">
<title>Node11</title>
<g id="a_node11"><a xlink:href="../../d6/dab/classFastTrackingEval.html#abd960faa580a65cecfe212d902cde7c1" target="_top" xlink:title="FastTrackingEval::process\l_event">
<polygon fill="none" stroke="#000000" points="344.5,-249.6278 344.5,-281.6278 490.5,-281.6278 490.5,-249.6278 344.5,-249.6278"/>
<text text-anchor="start" x="352.5" y="-268.6278" font-family="FreeSans" font-size="10.00" fill="#000000">FastTrackingEval::process</text>
<text text-anchor="middle" x="417.5" y="-256.6278" font-family="FreeSans" font-size="10.00" fill="#000000">_event</text>
</a>
</g>
</g>
<!-- Node10&#45;&gt;Node11 -->
<g id="edge10" class="edge">
<title>Node10&#45;&gt;Node11</title>
<path fill="none" stroke="#191970" d="M315.1436,-268.9564C324.8268,-268.6415 334.6604,-268.3217 344.2106,-268.0112"/>
<polygon fill="#191970" stroke="#191970" points="315.0061,-265.459 305.1252,-269.2822 315.2337,-272.4553 315.0061,-265.459"/>
</g>
<!-- Node13 -->
<g id="node13" class="node">
<title>Node13</title>
<g id="a_node13"><a xlink:href="../../db/d22/classEventEvaluator.html#a5b4dc2c7afd4f3844396f08cc9c555ad" target="_top" xlink:title="EventEvaluator::process\l_event">
<polygon fill="none" stroke="#000000" points="348,-198.6278 348,-230.6278 487,-230.6278 487,-198.6278 348,-198.6278"/>
<text text-anchor="start" x="356" y="-217.6278" font-family="FreeSans" font-size="10.00" fill="#000000">EventEvaluator::process</text>
<text text-anchor="middle" x="417.5" y="-205.6278" font-family="FreeSans" font-size="10.00" fill="#000000">_event</text>
</a>
</g>
</g>
<!-- Node12&#45;&gt;Node13 -->
<g id="edge12" class="edge">
<title>Node12&#45;&gt;Node13</title>
<path fill="none" stroke="#191970" d="M317.3894,-221.139C327.5949,-220.4752 337.9297,-219.8031 347.8892,-219.1553"/>
<polygon fill="#191970" stroke="#191970" points="316.9974,-217.657 307.2457,-221.7988 317.4518,-224.6423 316.9974,-217.657"/>
</g>
<!-- Node15 -->
<g id="node15" class="node">
<title>Node15</title>
<g id="a_node15"><a xlink:href="../../db/db5/classDISKinematicsReco.html#ad801f1794841d3657aa4c0b2da334743" target="_top" xlink:title="DISKinematicsReco::\lInsertCandidateFromCluster">
<polygon fill="none" stroke="#000000" points="528,-29.6278 528,-61.6278 686,-61.6278 686,-29.6278 528,-29.6278"/>
<text text-anchor="start" x="536" y="-48.6278" font-family="FreeSans" font-size="10.00" fill="#000000">DISKinematicsReco::</text>
<text text-anchor="middle" x="607" y="-36.6278" font-family="FreeSans" font-size="10.00" fill="#000000">InsertCandidateFromCluster</text>
</a>
</g>
</g>
<!-- Node14&#45;&gt;Node15 -->
<g id="edge14" class="edge">
<title>Node14&#45;&gt;Node15</title>
<path fill="none" stroke="#191970" d="M460.3523,-90.512C488.2128,-81.9848 524.7308,-70.8078 554.3553,-61.7407"/>
<polygon fill="#191970" stroke="#191970" points="459.0462,-87.2514 450.5084,-93.5249 461.0949,-93.9449 459.0462,-87.2514"/>
</g>
<!-- Node16 -->
<g id="node16" class="node">
<title>Node16</title>
<g id="a_node16"><a xlink:href="../../db/db5/classDISKinematicsReco.html#a4ea9fa36ccd955fd7cdfa7e7eaf1e534" target="_top" xlink:title="DISKinematicsReco::\lCollectEmCandidatesFromCluster">
<polygon fill="none" stroke="#000000" points="722,-29.6278 722,-61.6278 907,-61.6278 907,-29.6278 722,-29.6278"/>
<text text-anchor="start" x="730" y="-48.6278" font-family="FreeSans" font-size="10.00" fill="#000000">DISKinematicsReco::</text>
<text text-anchor="middle" x="814.5" y="-36.6278" font-family="FreeSans" font-size="10.00" fill="#000000">CollectEmCandidatesFromCluster</text>
</a>
</g>
</g>
<!-- Node15&#45;&gt;Node16 -->
<g id="edge15" class="edge">
<title>Node15&#45;&gt;Node16</title>
<path fill="none" stroke="#191970" d="M696.2651,-45.6278C704.7147,-45.6278 713.295,-45.6278 721.776,-45.6278"/>
<polygon fill="#191970" stroke="#191970" points="696.0388,-42.1279 686.0388,-45.6278 696.0388,-49.1279 696.0388,-42.1279"/>
</g>
<!-- Node17 -->
<g id="node17" class="node">
<title>Node17</title>
<g id="a_node17"><a xlink:href="../../db/db5/classDISKinematicsReco.html#a6d03dc93ccee64fd4d931a06dad1ec55" target="_top" xlink:title="DISKinematicsReco::\lprocess_event">
<polygon fill="none" stroke="#000000" points="943,-29.6278 943,-61.6278 1063,-61.6278 1063,-29.6278 943,-29.6278"/>
<text text-anchor="start" x="951" y="-48.6278" font-family="FreeSans" font-size="10.00" fill="#000000">DISKinematicsReco::</text>
<text text-anchor="middle" x="1003" y="-36.6278" font-family="FreeSans" font-size="10.00" fill="#000000">process_event</text>
</a>
</g>
</g>
<!-- Node16&#45;&gt;Node17 -->
<g id="edge16" class="edge">
<title>Node16&#45;&gt;Node17</title>
<path fill="none" stroke="#191970" d="M917.3751,-45.6278C926.1102,-45.6278 934.7457,-45.6278 942.9779,-45.6278"/>
<polygon fill="#191970" stroke="#191970" points="917.0934,-42.1279 907.0933,-45.6278 917.0933,-49.1279 917.0934,-42.1279"/>
</g>
<!-- Node18&#45;&gt;Node15 -->
<g id="edge18" class="edge">
<title>Node18&#45;&gt;Node15</title>
<path fill="none" stroke="#191970" d="M306.3984,-60.899C370.171,-57.6592 462.3263,-52.9775 527.7597,-49.6533"/>
<polygon fill="#191970" stroke="#191970" points="305.8306,-57.4232 296.0211,-61.4262 306.1858,-64.4142 305.8306,-57.4232"/>
</g>
<!-- Node19&#45;&gt;Node15 -->
<g id="edge22" class="edge">
<title>Node19&#45;&gt;Node15</title>
<path fill="none" stroke="#191970" d="M287.8884,-13.6818C340.5555,-4.0311 422.1698,6.17 492,-5.6278 519.2003,-10.2232 548.5531,-20.5279 570.7955,-29.5269"/>
<polygon fill="#191970" stroke="#191970" points="286.9288,-10.3011 277.7531,-15.5979 288.2292,-17.1793 286.9288,-10.3011"/>
</g>
<!-- Node20 -->
<g id="node20" class="node">
<title>Node20</title>
<g id="a_node20"><a xlink:href="../../db/de4/classSvtxTrack__v1.html#abf771be95545c2c2bff569b3152a961c" target="_top" xlink:title="SvtxTrack_v1::get_eta">
<polygon fill="none" stroke="#000000" points="354.5,-15.6278 354.5,-35.6278 480.5,-35.6278 480.5,-15.6278 354.5,-15.6278"/>
<text text-anchor="middle" x="417.5" y="-22.6278" font-family="FreeSans" font-size="10.00" fill="#000000">SvtxTrack_v1::get_eta</text>
</a>
</g>
</g>
<!-- Node19&#45;&gt;Node20 -->
<g id="edge20" class="edge">
<title>Node19&#45;&gt;Node20</title>
<path fill="none" stroke="#191970" d="M304.2934,-25.6278C320.7645,-25.6278 338.1768,-25.6278 354.2758,-25.6278"/>
<polygon fill="#191970" stroke="#191970" points="304.1796,-22.1279 294.1796,-25.6278 304.1795,-29.1279 304.1796,-22.1279"/>
</g>
<!-- Node20&#45;&gt;Node15 -->
<g id="edge21" class="edge">
<title>Node20&#45;&gt;Node15</title>
<path fill="none" stroke="#191970" d="M490.72,-33.3555C502.9306,-34.6442 515.6448,-35.9861 527.9921,-37.2892"/>
<polygon fill="#191970" stroke="#191970" points="490.9129,-29.8565 480.6008,-32.2875 490.1781,-36.8178 490.9129,-29.8565"/>
</g>
<!-- Node21&#45;&gt;Node22 -->
<g id="edge24" class="edge">
<title>Node21&#45;&gt;Node22</title>
<path fill="none" stroke="#191970" d="M307,-151.0505C324.6204,-153.0561 343.166,-155.167 359.9249,-157.0745"/>
<polygon fill="#191970" stroke="#191970" points="307.0845,-147.5376 296.7528,-149.8842 306.2928,-154.4927 307.0845,-147.5376"/>
</g>
<!-- Node22&#45;&gt;Node8 -->
<g id="edge25" class="edge">
<title>Node22&#45;&gt;Node8</title>
<path fill="none" stroke="#191970" d="M477.937,-183.3791C482.751,-185.3571 487.4914,-187.446 492,-189.6278 526.0588,-206.1091 562.466,-230.5044 584.9818,-246.4832"/>
<polygon fill="#191970" stroke="#191970" points="479.2172,-180.1217 468.6302,-179.7165 476.6538,-186.6354 479.2172,-180.1217"/>
</g>
<!-- Node23 -->
<g id="node23" class="node">
<title>Node23</title>
<g id="a_node23"><a xlink:href="../../d2/d33/exceptionSvtxTrack__FastSim__v1.html#a0ed6fe69dd2febdf7c8828c60142ccac" target="_top" xlink:title="SvtxTrack_FastSim_v1\l::identify">
<polygon fill="none" stroke="#000000" points="544,-147.6278 544,-179.6278 670,-179.6278 670,-147.6278 544,-147.6278"/>
<text text-anchor="start" x="552" y="-166.6278" font-family="FreeSans" font-size="10.00" fill="#000000">SvtxTrack_FastSim_v1</text>
<text text-anchor="middle" x="607" y="-154.6278" font-family="FreeSans" font-size="10.00" fill="#000000">::identify</text>
</a>
</g>
</g>
<!-- Node22&#45;&gt;Node23 -->
<g id="edge26" class="edge">
<title>Node22&#45;&gt;Node23</title>
<path fill="none" stroke="#191970" d="M485.2258,-163.6278C504.277,-163.6278 524.919,-163.6278 543.7012,-163.6278"/>
<polygon fill="#191970" stroke="#191970" points="485.1281,-160.1279 475.1281,-163.6278 485.128,-167.1279 485.1281,-160.1279"/>
</g>
</g>
</svg>
