<?xml version="1.0" encoding="UTF-8" standalone="no"?>
<!DOCTYPE svg PUBLIC "-//W3C//DTD SVG 1.1//EN"
 "http://www.w3.org/Graphics/SVG/1.1/DTD/svg11.dtd">
<!-- Generated by graphviz version 2.40.1 (20161225.0304)
 -->
<!-- Title: test_examples.test_bfield_writing Pages: 1 -->
<svg width="477pt" height="170pt"
 viewBox="0.00 0.00 477.00 170.00" xmlns="http://www.w3.org/2000/svg" xmlns:xlink="http://www.w3.org/1999/xlink">
<g id="graph0" class="graph" transform="scale(1 1) rotate(0) translate(4 166)">
<title>test_examples.test_bfield_writing</title>
<!-- Node1 -->
<g id="node1" class="node">
<title>Node1</title>
<polygon fill="#bfbfbf" stroke="#000000" points="0,-84.5 0,-116.5 112,-116.5 112,-84.5 0,-84.5"/>
<text text-anchor="start" x="8" y="-103.5" font-family="FreeSans" font-size="10.00" fill="#000000">test_examples.test</text>
<text text-anchor="middle" x="56" y="-91.5" font-family="FreeSans" font-size="10.00" fill="#000000">_bfield_writing</text>
</g>
<!-- Node2 -->
<g id="node2" class="node">
<title>Node2</title>
<g id="a_node2"><a xlink:href="../../de/dce/namespacetest__examples.html#a683b01ab3d379c4941e6a4af5cb9a633" target="_top" xlink:title="test_examples.assert\l_entries">
<polygon fill="none" stroke="#000000" points="158.5,-129.5 158.5,-161.5 282.5,-161.5 282.5,-129.5 158.5,-129.5"/>
<text text-anchor="start" x="166.5" y="-148.5" font-family="FreeSans" font-size="10.00" fill="#000000">test_examples.assert</text>
<text text-anchor="middle" x="220.5" y="-136.5" font-family="FreeSans" font-size="10.00" fill="#000000">_entries</text>
</a>
</g>
</g>
<!-- Node1&#45;&gt;Node2 -->
<g id="edge1" class="edge">
<title>Node1&#45;&gt;Node2</title>
<path fill="none" stroke="#191970" d="M112.1515,-115.8606C124.9086,-119.3504 138.6001,-123.0958 151.8116,-126.7099"/>
<polygon fill="#191970" stroke="#191970" points="151.2284,-130.1789 161.7975,-129.4416 153.0755,-123.4269 151.2284,-130.1789"/>
</g>
<!-- Node4 -->
<g id="node4" class="node">
<title>Node4</title>
<g id="a_node4"><a xlink:href="../../d1/d5c/namespaceconftest.html#aac1806114f966f43aab579877804b685" target="_top" xlink:title="conftest.assert_root_hash">
<polygon fill="none" stroke="#000000" points="148,-90.5 148,-110.5 293,-110.5 293,-90.5 148,-90.5"/>
<text text-anchor="middle" x="220.5" y="-97.5" font-family="FreeSans" font-size="10.00" fill="#000000">conftest.assert_root_hash</text>
</a>
</g>
</g>
<!-- Node1&#45;&gt;Node4 -->
<g id="edge3" class="edge">
<title>Node1&#45;&gt;Node4</title>
<path fill="none" stroke="#191970" d="M112.1515,-100.5C120.3799,-100.5 128.9971,-100.5 137.6234,-100.5"/>
<polygon fill="#191970" stroke="#191970" points="137.7316,-104.0001 147.7315,-100.5 137.7315,-97.0001 137.7316,-104.0001"/>
</g>
<!-- Node5 -->
<g id="node5" class="node">
<title>Node5</title>
<g id="a_node5"><a xlink:href="../../dc/d23/namespacebfield__writing.html#ab1b256d0194da85ca0aaa1fa0d5c4417" target="_top" xlink:title="bfield_writing.runBField\lWriting">
<polygon fill="none" stroke="#000000" points="153,-39.5 153,-71.5 288,-71.5 288,-39.5 153,-39.5"/>
<text text-anchor="start" x="161" y="-58.5" font-family="FreeSans" font-size="10.00" fill="#000000">bfield_writing.runBField</text>
<text text-anchor="middle" x="220.5" y="-46.5" font-family="FreeSans" font-size="10.00" fill="#000000">Writing</text>
</a>
</g>
</g>
<!-- Node1&#45;&gt;Node5 -->
<g id="edge4" class="edge">
<title>Node1&#45;&gt;Node5</title>
<path fill="none" stroke="#191970" d="M112.1515,-85.1394C124.9086,-81.6496 138.6001,-77.9042 151.8116,-74.2901"/>
<polygon fill="#191970" stroke="#191970" points="153.0755,-77.5731 161.7975,-71.5584 151.2284,-70.8211 153.0755,-77.5731"/>
</g>
<!-- Node3 -->
<g id="node3" class="node">
<title>Node3</title>
<g id="a_node3"><a xlink:href="../../dc/d11/Prototype2_2EMCal_2macros_2SaveCanvas_8m.html#a8efe7494567713c8ec7a6803834a0bb6" target="_top" xlink:title="print">
<polygon fill="none" stroke="#000000" points="379,-113.5 379,-133.5 419,-133.5 419,-113.5 379,-113.5"/>
<text text-anchor="middle" x="399" y="-120.5" font-family="FreeSans" font-size="10.00" fill="#000000">print</text>
</a>
</g>
</g>
<!-- Node2&#45;&gt;Node3 -->
<g id="edge2" class="edge">
<title>Node2&#45;&gt;Node3</title>
<path fill="none" stroke="#191970" d="M282.6801,-137.8364C311.8223,-134.2446 345.2176,-130.1286 368.7279,-127.231"/>
<polygon fill="#191970" stroke="#191970" points="369.2868,-130.6887 378.7836,-125.9917 368.4305,-123.7413 369.2868,-130.6887"/>
</g>
<!-- Node5&#45;&gt;Node3 -->
<g id="edge6" class="edge">
<title>Node5&#45;&gt;Node3</title>
<path fill="none" stroke="#191970" d="M266.22,-71.6379C275.1216,-74.8528 284.3675,-78.2429 293,-81.5 318.9009,-91.2726 348.1372,-102.9022 369.3349,-111.4433"/>
<polygon fill="#191970" stroke="#191970" points="368.1731,-114.7487 378.7561,-115.2492 370.7951,-108.2583 368.1731,-114.7487"/>
</g>
<!-- Node6 -->
<g id="node6" class="node">
<title>Node6</title>
<g id="a_node6"><a xlink:href="../../dc/d23/namespacebfield__writing.html#a5483b4248d5c41b7aa93e2022ac83c7d" target="_top" xlink:title="bfield_writing.CsvBField\lWrite">
<polygon fill="none" stroke="#000000" points="331,-51.5 331,-83.5 467,-83.5 467,-51.5 331,-51.5"/>
<text text-anchor="start" x="339" y="-70.5" font-family="FreeSans" font-size="10.00" fill="#000000">bfield_writing.CsvBField</text>
<text text-anchor="middle" x="399" y="-58.5" font-family="FreeSans" font-size="10.00" fill="#000000">Write</text>
</a>
</g>
</g>
<!-- Node5&#45;&gt;Node6 -->
<g id="edge5" class="edge">
<title>Node5&#45;&gt;Node6</title>
<path fill="none" stroke="#191970" d="M288.2377,-60.0538C298.776,-60.7623 309.7398,-61.4993 320.4925,-62.2222"/>
<polygon fill="#191970" stroke="#191970" points="320.5041,-65.7308 330.7164,-62.9095 320.9737,-58.7465 320.5041,-65.7308"/>
</g>
<!-- Node7 -->
<g id="node7" class="node">
<title>Node7</title>
<g id="a_node7"><a xlink:href="../../dc/d23/namespacebfield__writing.html#a60b46b6b83955f729f0ee49418e69d18" target="_top" xlink:title="bfield_writing.RootBField\lWrite">
<polygon fill="none" stroke="#000000" points="329,-.5 329,-32.5 469,-32.5 469,-.5 329,-.5"/>
<text text-anchor="start" x="337" y="-19.5" font-family="FreeSans" font-size="10.00" fill="#000000">bfield_writing.RootBField</text>
<text text-anchor="middle" x="399" y="-7.5" font-family="FreeSans" font-size="10.00" fill="#000000">Write</text>
</a>
</g>
</g>
<!-- Node5&#45;&gt;Node7 -->
<g id="edge7" class="edge">
<title>Node5&#45;&gt;Node7</title>
<path fill="none" stroke="#191970" d="M288.2377,-40.7002C298.3276,-38.4957 308.8075,-36.2059 319.1188,-33.953"/>
<polygon fill="#191970" stroke="#191970" points="319.9125,-37.3623 328.9349,-31.8083 318.4182,-30.5236 319.9125,-37.3623"/>
</g>
</g>
</svg>
