<?xml version="1.0" encoding="UTF-8" standalone="no"?>
<!DOCTYPE svg PUBLIC "-//W3C//DTD SVG 1.1//EN"
 "http://www.w3.org/Graphics/SVG/1.1/DTD/svg11.dtd">
<!-- Generated by graphviz version 2.40.1 (20161225.0304)
 -->
<!-- Title: PHTpcResiduals::addTrackState Pages: 1 -->
<svg width="750pt" height="41pt"
 viewBox="0.00 0.00 750.00 41.00" xmlns="http://www.w3.org/2000/svg" xmlns:xlink="http://www.w3.org/1999/xlink">
<g id="graph0" class="graph" transform="scale(1 1) rotate(0) translate(4 37)">
<title>PHTpcResiduals::addTrackState</title>
<!-- Node1 -->
<g id="node1" class="node">
<title>Node1</title>
<polygon fill="#bfbfbf" stroke="#000000" points="0,-.5 0,-32.5 149,-32.5 149,-.5 0,-.5"/>
<text text-anchor="start" x="8" y="-19.5" font-family="FreeSans" font-size="10.00" fill="#000000">PHTpcResiduals::addTrack</text>
<text text-anchor="middle" x="74.5" y="-7.5" font-family="FreeSans" font-size="10.00" fill="#000000">State</text>
</g>
<!-- Node2 -->
<g id="node2" class="node">
<title>Node2</title>
<g id="a_node2"><a xlink:href="../../d5/d55/classPHTpcResiduals.html#abe1d80fe32c832f457a28c43e8c2d883" target="_top" xlink:title="PHTpcResiduals::processTrack">
<polygon fill="none" stroke="#000000" points="185,-6.5 185,-26.5 354,-26.5 354,-6.5 185,-6.5"/>
<text text-anchor="middle" x="269.5" y="-13.5" font-family="FreeSans" font-size="10.00" fill="#000000">PHTpcResiduals::processTrack</text>
</a>
</g>
</g>
<!-- Node1&#45;&gt;Node2 -->
<g id="edge1" class="edge">
<title>Node1&#45;&gt;Node2</title>
<path fill="none" stroke="#191970" d="M159.3187,-16.5C167.7998,-16.5 176.4111,-16.5 184.8901,-16.5"/>
<polygon fill="#191970" stroke="#191970" points="159.0559,-13.0001 149.0558,-16.5 159.0558,-20.0001 159.0559,-13.0001"/>
</g>
<!-- Node3 -->
<g id="node3" class="node">
<title>Node3</title>
<g id="a_node3"><a xlink:href="../../d5/d55/classPHTpcResiduals.html#ac8936c9d7cf8808255c355520b304e95" target="_top" xlink:title="PHTpcResiduals::processTracks">
<polygon fill="none" stroke="#000000" points="390,-6.5 390,-26.5 564,-26.5 564,-6.5 390,-6.5"/>
<text text-anchor="middle" x="477" y="-13.5" font-family="FreeSans" font-size="10.00" fill="#000000">PHTpcResiduals::processTracks</text>
</a>
</g>
</g>
<!-- Node2&#45;&gt;Node3 -->
<g id="edge2" class="edge">
<title>Node2&#45;&gt;Node3</title>
<path fill="none" stroke="#191970" d="M364.4709,-16.5C372.9377,-16.5 381.483,-16.5 389.8792,-16.5"/>
<polygon fill="#191970" stroke="#191970" points="364.1975,-13.0001 354.1975,-16.5 364.1974,-20.0001 364.1975,-13.0001"/>
</g>
<!-- Node4 -->
<g id="node4" class="node">
<title>Node4</title>
<g id="a_node4"><a xlink:href="../../d5/d55/classPHTpcResiduals.html#afb9145abb0d5d579afed2c31f700989a" target="_top" xlink:title="PHTpcResiduals::process\l_event">
<polygon fill="none" stroke="#000000" points="600,-.5 600,-32.5 742,-32.5 742,-.5 600,-.5"/>
<text text-anchor="start" x="608" y="-19.5" font-family="FreeSans" font-size="10.00" fill="#000000">PHTpcResiduals::process</text>
<text text-anchor="middle" x="671" y="-7.5" font-family="FreeSans" font-size="10.00" fill="#000000">_event</text>
</a>
</g>
</g>
<!-- Node3&#45;&gt;Node4 -->
<g id="edge3" class="edge">
<title>Node3&#45;&gt;Node4</title>
<path fill="none" stroke="#191970" d="M574.215,-16.5C582.8709,-16.5 591.5246,-16.5 599.9002,-16.5"/>
<polygon fill="#191970" stroke="#191970" points="574.0692,-13.0001 564.0692,-16.5 574.0692,-20.0001 574.0692,-13.0001"/>
</g>
</g>
</svg>
