<?xml version="1.0" encoding="UTF-8" standalone="no"?>
<!DOCTYPE svg PUBLIC "-//W3C//DTD SVG 1.1//EN"
 "http://www.w3.org/Graphics/SVG/1.1/DTD/svg11.dtd">
<!-- Generated by graphviz version 2.40.1 (20161225.0304)
 -->
<!-- Title: Fun4AllDstInputManager Pages: 1 -->
<svg width="1839pt" height="591pt"
 viewBox="0.00 0.00 1839.00 590.50" xmlns="http://www.w3.org/2000/svg" xmlns:xlink="http://www.w3.org/1999/xlink">
<g id="graph0" class="graph" transform="scale(1 1) rotate(0) translate(4 586.5)">
<title>Fun4AllDstInputManager</title>
<!-- Node1 -->
<g id="node1" class="node">
<title>Node1</title>
<polygon fill="#bfbfbf" stroke="#000000" points="1438.5,-248.5 1438.5,-268.5 1579.5,-268.5 1579.5,-248.5 1438.5,-248.5"/>
<text text-anchor="middle" x="1509" y="-255.5" font-family="FreeSans" font-size="10.00" fill="#000000">Fun4AllDstInputManager</text>
</g>
<!-- Node2 -->
<g id="node2" class="node">
<title>Node2</title>
<g id="a_node2"><a xlink:href="../../d4/da9/classFun4AllInputManager.html" target="_top" xlink:title="Fun4AllInputManager">
<polygon fill="none" stroke="#000000" points="1216,-433.5 1216,-453.5 1341,-453.5 1341,-433.5 1216,-433.5"/>
<text text-anchor="middle" x="1278.5" y="-440.5" font-family="FreeSans" font-size="10.00" fill="#000000">Fun4AllInputManager</text>
</a>
</g>
</g>
<!-- Node2&#45;&gt;Node1 -->
<g id="edge1" class="edge">
<title>Node2&#45;&gt;Node1</title>
<path fill="none" stroke="#191970" d="M1298.6853,-426.8447C1314.6041,-414.0489 1337.613,-396.2903 1359,-382.5 1384.0709,-366.3343 1394.1428,-368.4084 1418,-350.5 1452.1373,-324.8749 1485.7287,-286.6096 1500.7802,-268.5822"/>
<polygon fill="#191970" stroke="#191970" points="1296.1847,-424.3665 1290.6263,-433.3862 1300.5963,-429.8015 1296.1847,-424.3665"/>
</g>
<!-- Node9 -->
<g id="node9" class="node">
<title>Node9</title>
<polygon fill="none" stroke="#bfbfbf" points="1436,-427.5 1436,-459.5 1582,-459.5 1582,-427.5 1436,-427.5"/>
<text text-anchor="start" x="1444" y="-446.5" font-family="FreeSans" font-size="10.00" fill="#000000">std::vector&lt; Fun4AllInput</text>
<text text-anchor="middle" x="1509" y="-434.5" font-family="FreeSans" font-size="10.00" fill="#000000">Manager * &gt;</text>
</g>
<!-- Node2&#45;&gt;Node9 -->
<g id="edge12" class="edge">
<title>Node2&#45;&gt;Node9</title>
<path fill="none" stroke="#9a32cd" stroke-dasharray="5,2" d="M1351.3081,-443.5C1378.2303,-443.5 1408.7441,-443.5 1435.7089,-443.5"/>
<polygon fill="#9a32cd" stroke="#9a32cd" points="1351.1807,-440.0001 1341.1807,-443.5 1351.1806,-447.0001 1351.1807,-440.0001"/>
<text text-anchor="middle" x="1388.5" y="-446.5" font-family="FreeSans" font-size="10.00" fill="#000000"> elements</text>
</g>
<!-- Node3 -->
<g id="node3" class="node">
<title>Node3</title>
<g id="a_node3"><a xlink:href="../../d5/dec/classFun4AllBase.html" target="_top" xlink:title="Fun4AllBase">
<polygon fill="none" stroke="#000000" points="341.5,-516.5 341.5,-536.5 419.5,-536.5 419.5,-516.5 341.5,-516.5"/>
<text text-anchor="middle" x="380.5" y="-523.5" font-family="FreeSans" font-size="10.00" fill="#000000">Fun4AllBase</text>
</a>
</g>
</g>
<!-- Node3&#45;&gt;Node2 -->
<g id="edge2" class="edge">
<title>Node3&#45;&gt;Node2</title>
<path fill="none" stroke="#191970" d="M430.1641,-528.6196C440.674,-528.9865 451.7012,-529.3105 462,-529.5 518.4349,-530.5383 532.5598,-530.1924 589,-529.5 801.579,-526.8921 855.348,-531.502 1067,-511.5 1125.5705,-505.9648 1142.6434,-512.4194 1198,-492.5 1223.8633,-483.1934 1250.4495,-464.9992 1265.6714,-453.5904"/>
<polygon fill="#191970" stroke="#191970" points="429.9945,-525.1111 419.8728,-528.2419 429.7377,-532.1064 429.9945,-525.1111"/>
</g>
<!-- Node7 -->
<g id="node7" class="node">
<title>Node7</title>
<g id="a_node7"><a xlink:href="../../d0/d32/classSubsysReco.html" target="_top" xlink:title="SubsysReco">
<polygon fill="none" stroke="#000000" points="641.5,-495.5 641.5,-515.5 717.5,-515.5 717.5,-495.5 641.5,-495.5"/>
<text text-anchor="middle" x="679.5" y="-502.5" font-family="FreeSans" font-size="10.00" fill="#000000">SubsysReco</text>
</a>
</g>
</g>
<!-- Node3&#45;&gt;Node7 -->
<g id="edge7" class="edge">
<title>Node3&#45;&gt;Node7</title>
<path fill="none" stroke="#191970" d="M429.8376,-523.0348C489.1762,-518.8672 587.5008,-511.9615 641.3467,-508.1797"/>
<polygon fill="#191970" stroke="#191970" points="429.3192,-519.5625 419.589,-523.7546 429.8097,-526.5453 429.3192,-519.5625"/>
</g>
<!-- Node8 -->
<g id="node8" class="node">
<title>Node8</title>
<g id="a_node8"><a xlink:href="../../dd/ded/classFun4AllSyncManager.html" target="_top" xlink:title="Fun4AllSyncManager">
<polygon fill="none" stroke="#000000" points="1708,-386.5 1708,-406.5 1831,-406.5 1831,-386.5 1708,-386.5"/>
<text text-anchor="middle" x="1769.5" y="-393.5" font-family="FreeSans" font-size="10.00" fill="#000000">Fun4AllSyncManager</text>
</a>
</g>
</g>
<!-- Node3&#45;&gt;Node8 -->
<g id="edge10" class="edge">
<title>Node3&#45;&gt;Node8</title>
<path fill="none" stroke="#191970" d="M422.2177,-539.3733C479.5883,-555.9083 586.3347,-582.5 679.5,-582.5 679.5,-582.5 679.5,-582.5 1509,-582.5 1631.2558,-582.5 1735.7703,-445.1343 1762.7474,-406.5002"/>
<polygon fill="#191970" stroke="#191970" points="423.012,-535.9591 412.4315,-536.5117 421.0473,-542.6777 423.012,-535.9591"/>
</g>
<!-- Node4 -->
<g id="node4" class="node">
<title>Node4</title>
<g id="a_node4"><a xlink:title="STL class.">
<polygon fill="none" stroke="#bfbfbf" points="144,-266.5 144,-286.5 211,-286.5 211,-266.5 144,-266.5"/>
<text text-anchor="middle" x="177.5" y="-273.5" font-family="FreeSans" font-size="10.00" fill="#000000">std::string</text>
</a>
</g>
</g>
<!-- Node4&#45;&gt;Node1 -->
<g id="edge22" class="edge">
<title>Node4&#45;&gt;Node1</title>
<path fill="none" stroke="#9a32cd" stroke-dasharray="5,2" d="M210.6723,-289.9139C216.6805,-291.8176 222.9581,-293.4746 229,-294.5 259.6725,-299.7058 267.8894,-294.6791 299,-294.5 414.7835,-293.8333 1225.555,-291.3728 1341,-282.5 1378.1608,-279.6439 1419.6177,-273.7503 1452.0512,-268.5184"/>
<polygon fill="#9a32cd" stroke="#9a32cd" points="211.4991,-286.4968 200.9044,-286.545 209.2168,-293.1143 211.4991,-286.4968"/>
<text text-anchor="middle" x="829" y="-318.5" font-family="FreeSans" font-size="10.00" fill="#000000"> syncbranchname</text>
<text text-anchor="middle" x="829" y="-306.5" font-family="FreeSans" font-size="10.00" fill="#000000">RunNode</text>
<text text-anchor="middle" x="829" y="-294.5" font-family="FreeSans" font-size="10.00" fill="#000000">fullfilename</text>
</g>
<!-- Node4&#45;&gt;Node2 -->
<g id="edge8" class="edge">
<title>Node4&#45;&gt;Node2</title>
<path fill="none" stroke="#9a32cd" stroke-dasharray="5,2" d="M182.2486,-296.3597C190.8442,-330.522 209.8718,-398.1362 229,-412.5 260.3738,-436.0593 277.8203,-417.4242 317,-419.5 655.7012,-437.4446 1062.2482,-442.0224 1215.738,-443.148"/>
<polygon fill="#9a32cd" stroke="#9a32cd" points="185.624,-295.4285 179.8375,-286.5534 178.8265,-297.0999 185.624,-295.4285"/>
<text text-anchor="middle" x="679.5" y="-462.5" font-family="FreeSans" font-size="10.00" fill="#000000"> m_FileName</text>
<text text-anchor="middle" x="679.5" y="-450.5" font-family="FreeSans" font-size="10.00" fill="#000000">m_InputNode</text>
<text text-anchor="middle" x="679.5" y="-438.5" font-family="FreeSans" font-size="10.00" fill="#000000">m_TopNodeName</text>
</g>
<!-- Node4&#45;&gt;Node3 -->
<g id="edge3" class="edge">
<title>Node4&#45;&gt;Node3</title>
<path fill="none" stroke="#9a32cd" stroke-dasharray="5,2" d="M181.1825,-296.6939C189.0556,-338.0155 208.4859,-430.3607 229,-454.5 258.0414,-488.6735 306.9668,-507.7872 341.3438,-517.5933"/>
<polygon fill="#9a32cd" stroke="#9a32cd" points="184.5937,-295.8939 179.3165,-286.7068 177.7128,-297.1796 184.5937,-295.8939"/>
<text text-anchor="middle" x="264" y="-503.5" font-family="FreeSans" font-size="10.00" fill="#000000"> m_ThisName</text>
</g>
<!-- Node14 -->
<g id="node14" class="node">
<title>Node14</title>
<polygon fill="none" stroke="#bfbfbf" points="462,-384.5 462,-404.5 589,-404.5 589,-384.5 462,-384.5"/>
<text text-anchor="middle" x="525.5" y="-391.5" font-family="FreeSans" font-size="10.00" fill="#000000">std::list&lt; std::string &gt;</text>
</g>
<!-- Node4&#45;&gt;Node14 -->
<g id="edge18" class="edge">
<title>Node4&#45;&gt;Node14</title>
<path fill="none" stroke="#9a32cd" stroke-dasharray="5,2" d="M182.6637,-296.5154C189.4113,-318.2321 203.4898,-352.0055 229,-368.5 300.598,-414.7941 403.0739,-412.2131 466.8808,-404.5286"/>
<polygon fill="#9a32cd" stroke="#9a32cd" points="185.9664,-295.3344 179.8517,-286.6821 179.2362,-297.259 185.9664,-295.3344"/>
<text text-anchor="middle" x="264" y="-399.5" font-family="FreeSans" font-size="10.00" fill="#000000"> elements</text>
</g>
<!-- Node15 -->
<g id="node15" class="node">
<title>Node15</title>
<polygon fill="none" stroke="#bfbfbf" points="770,-338.5 770,-370.5 888,-370.5 888,-338.5 770,-338.5"/>
<text text-anchor="start" x="778" y="-357.5" font-family="FreeSans" font-size="10.00" fill="#000000">std::map&lt; const std</text>
<text text-anchor="middle" x="829" y="-345.5" font-family="FreeSans" font-size="10.00" fill="#000000">::string, int &gt;</text>
</g>
<!-- Node4&#45;&gt;Node15 -->
<g id="edge20" class="edge">
<title>Node4&#45;&gt;Node15</title>
<path fill="none" stroke="#9a32cd" stroke-dasharray="5,2" d="M191.9639,-294.4125C201.3394,-304.6101 214.4833,-316.5131 229,-322.5 325.5559,-362.3214 638.1817,-359.4242 769.7656,-356.2738"/>
<polygon fill="#9a32cd" stroke="#9a32cd" points="194.5008,-291.996 185.2985,-286.7454 189.218,-296.5886 194.5008,-291.996"/>
<text text-anchor="middle" x="380.5" y="-356.5" font-family="FreeSans" font-size="10.00" fill="#000000"> keys</text>
</g>
<!-- Node17 -->
<g id="node17" class="node">
<title>Node17</title>
<g id="a_node17"><a xlink:href="../../dc/d82/classPHNode.html" target="_top" xlink:title="PHNode">
<polygon fill="none" stroke="#000000" points="352.5,-229.5 352.5,-249.5 408.5,-249.5 408.5,-229.5 352.5,-229.5"/>
<text text-anchor="middle" x="380.5" y="-236.5" font-family="FreeSans" font-size="10.00" fill="#000000">PHNode</text>
</a>
</g>
</g>
<!-- Node4&#45;&gt;Node17 -->
<g id="edge26" class="edge">
<title>Node4&#45;&gt;Node17</title>
<path fill="none" stroke="#9a32cd" stroke-dasharray="5,2" d="M199.1408,-260.7705C207.9645,-255.2145 218.5404,-249.5851 229,-246.5 270.6699,-234.2093 321.5609,-234.8541 352.4759,-236.8656"/>
<polygon fill="#9a32cd" stroke="#9a32cd" points="197.0383,-257.9656 190.6582,-266.424 200.9205,-263.7904 197.0383,-257.9656"/>
<text text-anchor="middle" x="264" y="-285.5" font-family="FreeSans" font-size="10.00" fill="#000000"> objecttype</text>
<text text-anchor="middle" x="264" y="-273.5" font-family="FreeSans" font-size="10.00" fill="#000000">objectclass</text>
<text text-anchor="middle" x="264" y="-261.5" font-family="FreeSans" font-size="10.00" fill="#000000">type</text>
<text text-anchor="middle" x="264" y="-249.5" font-family="FreeSans" font-size="10.00" fill="#000000">name</text>
</g>
<!-- Node19 -->
<g id="node19" class="node">
<title>Node19</title>
<g id="a_node19"><a xlink:href="../../d7/d4d/classPHNodeIOManager.html" target="_top" xlink:title="PHNodeIOManager">
<polygon fill="none" stroke="#000000" points="623.5,-145.5 623.5,-165.5 735.5,-165.5 735.5,-145.5 623.5,-145.5"/>
<text text-anchor="middle" x="679.5" y="-152.5" font-family="FreeSans" font-size="10.00" fill="#000000">PHNodeIOManager</text>
</a>
</g>
</g>
<!-- Node4&#45;&gt;Node19 -->
<g id="edge37" class="edge">
<title>Node4&#45;&gt;Node19</title>
<path fill="none" stroke="#9a32cd" stroke-dasharray="5,2" d="M184.5083,-256.8393C192.7414,-235.7327 207.992,-202.0642 229,-178.5 260.5009,-143.1662 271.7662,-132.4533 317,-118.5 373.9744,-100.9251 543.585,-129.2926 629.0671,-145.4739"/>
<polygon fill="#9a32cd" stroke="#9a32cd" points="181.1752,-255.76 180.9424,-266.3522 187.7298,-258.217 181.1752,-255.76"/>
<text text-anchor="middle" x="380.5" y="-121.5" font-family="FreeSans" font-size="10.00" fill="#000000"> TreeName</text>
</g>
<!-- Node20 -->
<g id="node20" class="node">
<title>Node20</title>
<g id="a_node20"><a xlink:href="../../d0/d36/classPHIOManager.html" target="_top" xlink:title="PHIOManager">
<polygon fill="none" stroke="#000000" points="337.5,-51.5 337.5,-71.5 423.5,-71.5 423.5,-51.5 337.5,-51.5"/>
<text text-anchor="middle" x="380.5" y="-58.5" font-family="FreeSans" font-size="10.00" fill="#000000">PHIOManager</text>
</a>
</g>
</g>
<!-- Node4&#45;&gt;Node20 -->
<g id="edge31" class="edge">
<title>Node4&#45;&gt;Node20</title>
<path fill="none" stroke="#9a32cd" stroke-dasharray="5,2" d="M180.0229,-256.369C186.0658,-211.5486 202.8398,-105.6546 229,-82.5 258.229,-56.6292 303.844,-53.5451 337.3891,-55.6089"/>
<polygon fill="#9a32cd" stroke="#9a32cd" points="176.5425,-255.9918 178.7186,-266.3607 183.4836,-256.8979 176.5425,-255.9918"/>
<text text-anchor="middle" x="264" y="-85.5" font-family="FreeSans" font-size="10.00" fill="#000000"> filename</text>
</g>
<!-- Node21 -->
<g id="node21" class="node">
<title>Node21</title>
<polygon fill="none" stroke="#bfbfbf" points="317,-.5 317,-32.5 444,-32.5 444,-.5 317,-.5"/>
<text text-anchor="start" x="325" y="-19.5" font-family="FreeSans" font-size="10.00" fill="#000000">std::map&lt; std::string,</text>
<text text-anchor="middle" x="380.5" y="-7.5" font-family="FreeSans" font-size="10.00" fill="#000000"> TBranch * &gt;</text>
</g>
<!-- Node4&#45;&gt;Node21 -->
<g id="edge33" class="edge">
<title>Node4&#45;&gt;Node21</title>
<path fill="none" stroke="#9a32cd" stroke-dasharray="5,2" d="M179.0658,-255.9956C183.4567,-204.1922 197.6701,-70.0711 229,-40.5 252.1424,-18.6567 286.691,-11.9766 316.9542,-11.0631"/>
<polygon fill="#9a32cd" stroke="#9a32cd" points="175.5536,-256.006 178.235,-266.2559 182.5308,-256.5711 175.5536,-256.006"/>
<text text-anchor="middle" x="264" y="-43.5" font-family="FreeSans" font-size="10.00" fill="#000000"> keys</text>
</g>
<!-- Node22 -->
<g id="node22" class="node">
<title>Node22</title>
<polygon fill="none" stroke="#bfbfbf" points="317,-139.5 317,-171.5 444,-171.5 444,-139.5 317,-139.5"/>
<text text-anchor="start" x="325" y="-158.5" font-family="FreeSans" font-size="10.00" fill="#000000">std::map&lt; std::string,</text>
<text text-anchor="middle" x="380.5" y="-146.5" font-family="FreeSans" font-size="10.00" fill="#000000"> bool &gt;</text>
</g>
<!-- Node4&#45;&gt;Node22 -->
<g id="edge35" class="edge">
<title>Node4&#45;&gt;Node22</title>
<path fill="none" stroke="#9a32cd" stroke-dasharray="5,2" d="M190.6194,-258.2745C200.1627,-246.0399 213.9965,-230.2529 229,-219.5 258.7061,-198.21 296.5811,-182.21 327.0296,-171.5325"/>
<polygon fill="#9a32cd" stroke="#9a32cd" points="187.6951,-256.3395 184.4733,-266.4326 193.286,-260.5516 187.6951,-256.3395"/>
<text text-anchor="middle" x="264" y="-222.5" font-family="FreeSans" font-size="10.00" fill="#000000"> keys</text>
</g>
<!-- Node5 -->
<g id="node5" class="node">
<title>Node5</title>
<g id="a_node5"><a xlink:title="STL class.">
<polygon fill="none" stroke="#bfbfbf" points="0,-260.5 0,-292.5 107,-292.5 107,-260.5 0,-260.5"/>
<text text-anchor="start" x="8" y="-279.5" font-family="FreeSans" font-size="10.00" fill="#000000">std::basic_string&lt;</text>
<text text-anchor="middle" x="53.5" y="-267.5" font-family="FreeSans" font-size="10.00" fill="#000000"> char &gt;</text>
</a>
</g>
</g>
<!-- Node5&#45;&gt;Node4 -->
<g id="edge4" class="edge">
<title>Node5&#45;&gt;Node4</title>
<path fill="none" stroke="#191970" d="M117.4289,-276.5C126.5342,-276.5 135.584,-276.5 143.7918,-276.5"/>
<polygon fill="#191970" stroke="#191970" points="117.167,-273.0001 107.167,-276.5 117.167,-280.0001 117.167,-273.0001"/>
</g>
<!-- Node6 -->
<g id="node6" class="node">
<title>Node6</title>
<polygon fill="none" stroke="#bfbfbf" points="906,-481.5 906,-501.5 1067,-501.5 1067,-481.5 906,-481.5"/>
<text text-anchor="middle" x="986.5" y="-488.5" font-family="FreeSans" font-size="10.00" fill="#000000">std::vector&lt; SubsysReco * &gt;</text>
</g>
<!-- Node6&#45;&gt;Node2 -->
<g id="edge5" class="edge">
<title>Node6&#45;&gt;Node2</title>
<path fill="none" stroke="#9a32cd" stroke-dasharray="5,2" d="M1068.6304,-479.9715C1107.8595,-474.2357 1155.4305,-466.9468 1198,-459.5 1208.3866,-457.683 1219.4948,-455.5796 1230.0395,-453.5071"/>
<polygon fill="#9a32cd" stroke="#9a32cd" points="1067.9761,-476.5298 1058.5842,-481.4332 1068.984,-483.4569 1067.9761,-476.5298"/>
<text text-anchor="middle" x="1141.5" y="-479.5" font-family="FreeSans" font-size="10.00" fill="#000000"> m_SubsystemsVector</text>
</g>
<!-- Node7&#45;&gt;Node6 -->
<g id="edge6" class="edge">
<title>Node7&#45;&gt;Node6</title>
<path fill="none" stroke="#9a32cd" stroke-dasharray="5,2" d="M727.826,-503.2962C775.5439,-501.1201 849.3805,-497.753 905.9718,-495.1723"/>
<polygon fill="#9a32cd" stroke="#9a32cd" points="727.5912,-499.8032 717.761,-503.7552 727.9101,-506.7959 727.5912,-499.8032"/>
<text text-anchor="middle" x="829" y="-503.5" font-family="FreeSans" font-size="10.00" fill="#000000"> elements</text>
</g>
<!-- Node8&#45;&gt;Node2 -->
<g id="edge9" class="edge">
<title>Node8&#45;&gt;Node2</title>
<path fill="none" stroke="#9a32cd" stroke-dasharray="5,2" d="M1697.5961,-394.5085C1629.8283,-393.6101 1525.5923,-394.7545 1436,-406.5 1392.6935,-412.1775 1343.8862,-424.6093 1312.2392,-433.4952"/>
<polygon fill="#9a32cd" stroke="#9a32cd" points="1697.6856,-398.0101 1707.7374,-394.6618 1697.7915,-391.0109 1697.6856,-398.0101"/>
<text text-anchor="middle" x="1509" y="-409.5" font-family="FreeSans" font-size="10.00" fill="#000000"> m_MySyncManager</text>
</g>
<!-- Node9&#45;&gt;Node8 -->
<g id="edge11" class="edge">
<title>Node9&#45;&gt;Node8</title>
<path fill="none" stroke="#9a32cd" stroke-dasharray="5,2" d="M1592.1937,-428.49C1631.8917,-421.3276 1678.3273,-412.9496 1713.7174,-406.5644"/>
<polygon fill="#9a32cd" stroke="#9a32cd" points="1591.4766,-425.0628 1582.257,-430.2828 1592.7196,-431.9516 1591.4766,-425.0628"/>
<text text-anchor="middle" x="1645" y="-429.5" font-family="FreeSans" font-size="10.00" fill="#000000"> m_InManager</text>
</g>
<!-- Node10 -->
<g id="node10" class="node">
<title>Node10</title>
<g id="a_node10"><a xlink:href="../../de/dbb/classSyncObject.html" target="_top" xlink:title="SyncObject">
<polygon fill="none" stroke="#000000" points="1241.5,-105.5 1241.5,-125.5 1315.5,-125.5 1315.5,-105.5 1241.5,-105.5"/>
<text text-anchor="middle" x="1278.5" y="-112.5" font-family="FreeSans" font-size="10.00" fill="#000000">SyncObject</text>
</a>
</g>
</g>
<!-- Node10&#45;&gt;Node1 -->
<g id="edge21" class="edge">
<title>Node10&#45;&gt;Node1</title>
<path fill="none" stroke="#9a32cd" stroke-dasharray="5,2" d="M1325.6644,-123.7207C1359.8436,-130.2831 1402.6423,-139.9332 1418,-149.5 1459.4293,-175.3077 1491.2094,-226.3985 1503.4831,-248.2243"/>
<polygon fill="#9a32cd" stroke="#9a32cd" points="1326.304,-120.2797 1315.8293,-121.8706 1325.0098,-127.159 1326.304,-120.2797"/>
<text text-anchor="middle" x="1388.5" y="-152.5" font-family="FreeSans" font-size="10.00" fill="#000000"> syncobject</text>
</g>
<!-- Node10&#45;&gt;Node8 -->
<g id="edge13" class="edge">
<title>Node10&#45;&gt;Node8</title>
<path fill="none" stroke="#9a32cd" stroke-dasharray="5,2" d="M1325.6951,-115.1505C1353.2313,-116.1882 1388.2866,-119.6756 1418,-129.5 1579.5259,-182.9068 1725.2383,-344.474 1761.094,-386.4482"/>
<polygon fill="#9a32cd" stroke="#9a32cd" points="1325.631,-111.6474 1315.5365,-114.8647 1325.4341,-118.6447 1325.631,-111.6474"/>
<text text-anchor="middle" x="1509" y="-220.5" font-family="FreeSans" font-size="10.00" fill="#000000"> m_MasterSync</text>
</g>
<!-- Node11 -->
<g id="node11" class="node">
<title>Node11</title>
<g id="a_node11"><a xlink:href="../../d9/d24/classPHObject.html" target="_top" xlink:title="PHObject">
<polygon fill="none" stroke="#000000" points="955,-105.5 955,-125.5 1018,-125.5 1018,-105.5 955,-105.5"/>
<text text-anchor="middle" x="986.5" y="-112.5" font-family="FreeSans" font-size="10.00" fill="#000000">PHObject</text>
</a>
</g>
</g>
<!-- Node11&#45;&gt;Node10 -->
<g id="edge14" class="edge">
<title>Node11&#45;&gt;Node10</title>
<path fill="none" stroke="#191970" d="M1028.1265,-115.5C1085.1009,-115.5 1186.5148,-115.5 1241.1564,-115.5"/>
<polygon fill="#191970" stroke="#191970" points="1028.0266,-112.0001 1018.0266,-115.5 1028.0265,-119.0001 1028.0266,-112.0001"/>
</g>
<!-- Node12 -->
<g id="node12" class="node">
<title>Node12</title>
<polygon fill="none" stroke="#bfbfbf" points="651,-105.5 651,-125.5 708,-125.5 708,-105.5 651,-105.5"/>
<text text-anchor="middle" x="679.5" y="-112.5" font-family="FreeSans" font-size="10.00" fill="#000000">TObject</text>
</g>
<!-- Node12&#45;&gt;Node11 -->
<g id="edge15" class="edge">
<title>Node12&#45;&gt;Node11</title>
<path fill="none" stroke="#191970" d="M718.1521,-115.5C779.4724,-115.5 897.9013,-115.5 954.6572,-115.5"/>
<polygon fill="#191970" stroke="#191970" points="718.1062,-112.0001 708.1061,-115.5 718.1061,-119.0001 718.1062,-112.0001"/>
</g>
<!-- Node13 -->
<g id="node13" class="node">
<title>Node13</title>
<polygon fill="none" stroke="#bfbfbf" points="1456,-58.5 1456,-78.5 1562,-78.5 1562,-58.5 1456,-58.5"/>
<text text-anchor="middle" x="1509" y="-65.5" font-family="FreeSans" font-size="10.00" fill="#000000">std::vector&lt; int &gt;</text>
</g>
<!-- Node13&#45;&gt;Node8 -->
<g id="edge16" class="edge">
<title>Node13&#45;&gt;Node8</title>
<path fill="none" stroke="#9a32cd" stroke-dasharray="5,2" d="M1572.1343,-59.2543C1610.5803,-57.2734 1658.2454,-61.8476 1690,-89.5 1736.8142,-130.2666 1762.8401,-337.4193 1768.377,-386.2012"/>
<polygon fill="#9a32cd" stroke="#9a32cd" points="1571.8092,-55.7681 1562.0663,-59.9305 1572.2784,-62.7524 1571.8092,-55.7681"/>
<text text-anchor="middle" x="1645" y="-92.5" font-family="FreeSans" font-size="10.00" fill="#000000"> m_iretInManager</text>
</g>
<!-- Node14&#45;&gt;Node2 -->
<g id="edge17" class="edge">
<title>Node14&#45;&gt;Node2</title>
<path fill="none" stroke="#9a32cd" stroke-dasharray="5,2" d="M599.1406,-392.2732C672.435,-390.6291 788.0968,-389.5803 888,-395.5 1026.4608,-403.7044 1060.4992,-413.2724 1198,-431.5 1203.7431,-432.2613 1209.7115,-433.0866 1215.6856,-433.9358"/>
<polygon fill="#9a32cd" stroke="#9a32cd" points="599.001,-388.7754 589.0856,-392.5085 599.1648,-395.7735 599.001,-388.7754"/>
<text text-anchor="middle" x="829" y="-422.5" font-family="FreeSans" font-size="10.00" fill="#000000"> m_FileListOpened</text>
<text text-anchor="middle" x="829" y="-410.5" font-family="FreeSans" font-size="10.00" fill="#000000">m_FileListCopy</text>
<text text-anchor="middle" x="829" y="-398.5" font-family="FreeSans" font-size="10.00" fill="#000000">m_FileList</text>
</g>
<!-- Node15&#45;&gt;Node1 -->
<g id="edge19" class="edge">
<title>Node15&#45;&gt;Node1</title>
<path fill="none" stroke="#9a32cd" stroke-dasharray="5,2" d="M898.4108,-359.0515C1010.437,-364.2631 1236.8568,-365.9106 1418,-310.5 1447.9283,-301.3451 1478.7193,-281.0185 1495.7036,-268.6648"/>
<polygon fill="#9a32cd" stroke="#9a32cd" points="898.4174,-355.5478 888.2582,-358.5546 898.0751,-362.5394 898.4174,-355.5478"/>
<text text-anchor="middle" x="1141.5" y="-362.5" font-family="FreeSans" font-size="10.00" fill="#000000"> branchread</text>
</g>
<!-- Node16 -->
<g id="node16" class="node">
<title>Node16</title>
<g id="a_node16"><a xlink:href="../../d5/dca/classPHCompositeNode.html" target="_top" xlink:title="PHCompositeNode">
<polygon fill="none" stroke="#000000" points="931.5,-212.5 931.5,-232.5 1041.5,-232.5 1041.5,-212.5 931.5,-212.5"/>
<text text-anchor="middle" x="986.5" y="-219.5" font-family="FreeSans" font-size="10.00" fill="#000000">PHCompositeNode</text>
</a>
</g>
</g>
<!-- Node16&#45;&gt;Node1 -->
<g id="edge23" class="edge">
<title>Node16&#45;&gt;Node1</title>
<path fill="none" stroke="#9a32cd" stroke-dasharray="5,2" d="M1051.737,-222.5998C1122.954,-223.2001 1240.2899,-225.628 1341,-234.5 1377.3929,-237.706 1417.9462,-243.437 1450.091,-248.4948"/>
<polygon fill="#9a32cd" stroke="#9a32cd" points="1051.5975,-219.0987 1041.5716,-222.5239 1051.5452,-226.0985 1051.5975,-219.0987"/>
<text text-anchor="middle" x="1278.5" y="-273.5" font-family="FreeSans" font-size="10.00" fill="#000000"> m_RunNodeSum</text>
<text text-anchor="middle" x="1278.5" y="-261.5" font-family="FreeSans" font-size="10.00" fill="#000000">dstNode</text>
<text text-anchor="middle" x="1278.5" y="-249.5" font-family="FreeSans" font-size="10.00" fill="#000000">m_RunNode</text>
<text text-anchor="middle" x="1278.5" y="-237.5" font-family="FreeSans" font-size="10.00" fill="#000000">m_RunNodeCopy</text>
</g>
<!-- Node17&#45;&gt;Node16 -->
<g id="edge24" class="edge">
<title>Node17&#45;&gt;Node16</title>
<path fill="none" stroke="#191970" d="M418.5259,-238.4333C522.1694,-235.5258 809.9566,-227.4525 931.3542,-224.047"/>
<polygon fill="#191970" stroke="#191970" points="418.4112,-234.935 408.5133,-238.7141 418.6075,-241.9323 418.4112,-234.935"/>
</g>
<!-- Node17&#45;&gt;Node17 -->
<g id="edge25" class="edge">
<title>Node17&#45;&gt;Node17</title>
<path fill="none" stroke="#9a32cd" stroke-dasharray="5,2" d="M359.0689,-259.4109C360.6122,-264.3307 367.7559,-268 380.5,-268 400.8906,-268 406.9441,-258.6067 398.6604,-249.7271"/>
<polygon fill="#9a32cd" stroke="#9a32cd" points="362.4556,-260.3213 362.3396,-249.7271 355.8237,-258.0813 362.4556,-260.3213"/>
<text text-anchor="middle" x="380.5" y="-271" font-family="FreeSans" font-size="10.00" fill="#000000"> parent</text>
</g>
<!-- Node18 -->
<g id="node18" class="node">
<title>Node18</title>
<g id="a_node18"><a xlink:href="../../d6/d86/classPHPointerList.html" target="_top" xlink:title="PHPointerList\&lt; PHNode \&gt;">
<polygon fill="none" stroke="#000000" points="607,-251.5 607,-271.5 752,-271.5 752,-251.5 607,-251.5"/>
<text text-anchor="middle" x="679.5" y="-258.5" font-family="FreeSans" font-size="10.00" fill="#000000">PHPointerList&lt; PHNode &gt;</text>
</a>
</g>
</g>
<!-- Node17&#45;&gt;Node18 -->
<g id="edge28" class="edge">
<title>Node17&#45;&gt;Node18</title>
<path fill="none" stroke="#9a32cd" stroke-dasharray="5,2" d="M418.7394,-242.3136C465.9898,-245.7902 547.3954,-251.7799 606.7074,-256.144"/>
<polygon fill="#9a32cd" stroke="#9a32cd" points="418.8591,-238.813 408.6292,-241.5697 418.3454,-245.7942 418.8591,-238.813"/>
<text text-anchor="middle" x="525.5" y="-256.5" font-family="FreeSans" font-size="10.00" fill="#000000"> items</text>
</g>
<!-- Node18&#45;&gt;Node16 -->
<g id="edge27" class="edge">
<title>Node18&#45;&gt;Node16</title>
<path fill="none" stroke="#9a32cd" stroke-dasharray="5,2" d="M762.4595,-251.9743C800.7064,-247.4745 846.6871,-241.9121 888,-236.5 902.0435,-234.6603 917.1965,-232.5627 931.3074,-230.5613"/>
<polygon fill="#9a32cd" stroke="#9a32cd" points="761.9243,-248.513 752.4002,-253.1543 762.7399,-255.4653 761.9243,-248.513"/>
<text text-anchor="middle" x="829" y="-253.5" font-family="FreeSans" font-size="10.00" fill="#000000"> subNodes</text>
</g>
<!-- Node19&#45;&gt;Node1 -->
<g id="edge29" class="edge">
<title>Node19&#45;&gt;Node1</title>
<path fill="none" stroke="#9a32cd" stroke-dasharray="5,2" d="M745.8428,-161.3633C865.1101,-172.0947 1123.5856,-196.2212 1341,-222.5 1375.2603,-226.641 1384.204,-225.5181 1418,-232.5 1438.2747,-236.6885 1460.6361,-243.0524 1478.1186,-248.4357"/>
<polygon fill="#9a32cd" stroke="#9a32cd" points="746.0466,-157.8676 735.7737,-160.4594 745.4207,-164.8395 746.0466,-157.8676"/>
<text text-anchor="middle" x="1141.5" y="-208.5" font-family="FreeSans" font-size="10.00" fill="#000000"> m_IManager</text>
</g>
<!-- Node20&#45;&gt;Node19 -->
<g id="edge30" class="edge">
<title>Node20&#45;&gt;Node19</title>
<path fill="none" stroke="#191970" d="M433.9311,-56.5682C479.6545,-55.2217 544.8909,-60.4755 589,-94.5 604.7577,-106.655 591.9486,-122.4806 607,-135.5 611.8388,-139.6856 617.4814,-143.0016 623.4428,-145.6276"/>
<polygon fill="#191970" stroke="#191970" points="433.7582,-53.0722 423.9093,-56.9773 434.0438,-60.0664 433.7582,-53.0722"/>
</g>
<!-- Node21&#45;&gt;Node19 -->
<g id="edge32" class="edge">
<title>Node21&#45;&gt;Node19</title>
<path fill="none" stroke="#9a32cd" stroke-dasharray="5,2" d="M454.4208,-5.3489C498.9212,-3.0036 553.6263,-8.5152 589,-41.5 620.1102,-70.5093 578.1483,-104.2436 607,-135.5 611.5167,-140.3931 617.1111,-144.1304 623.1747,-146.9782"/>
<polygon fill="#9a32cd" stroke="#9a32cd" points="453.9657,-1.8714 444.2215,-6.0307 454.4327,-8.8558 453.9657,-1.8714"/>
<text text-anchor="middle" x="525.5" y="-44.5" font-family="FreeSans" font-size="10.00" fill="#000000"> fBranches</text>
</g>
<!-- Node22&#45;&gt;Node19 -->
<g id="edge34" class="edge">
<title>Node22&#45;&gt;Node19</title>
<path fill="none" stroke="#9a32cd" stroke-dasharray="5,2" d="M454.4901,-155.5C506.7272,-155.5 575.6427,-155.5 623.3769,-155.5"/>
<polygon fill="#9a32cd" stroke="#9a32cd" points="454.2763,-152.0001 444.2763,-155.5 454.2762,-159.0001 454.2763,-152.0001"/>
<text text-anchor="middle" x="525.5" y="-158.5" font-family="FreeSans" font-size="10.00" fill="#000000"> objectToRead</text>
</g>
<!-- Node23 -->
<g id="node23" class="node">
<title>Node23</title>
<polygon fill="none" stroke="#bfbfbf" points="360.5,-190.5 360.5,-210.5 400.5,-210.5 400.5,-190.5 360.5,-190.5"/>
<text text-anchor="middle" x="380.5" y="-197.5" font-family="FreeSans" font-size="10.00" fill="#000000">TFile</text>
</g>
<!-- Node23&#45;&gt;Node19 -->
<g id="edge36" class="edge">
<title>Node23&#45;&gt;Node19</title>
<path fill="none" stroke="#9a32cd" stroke-dasharray="5,2" d="M410.7071,-196.653C451.3091,-191.4011 525.7065,-181.4932 589,-171.5 600.505,-169.6835 612.8074,-167.602 624.5171,-165.5542"/>
<polygon fill="#9a32cd" stroke="#9a32cd" points="410.1351,-193.1976 400.6639,-197.9461 411.0291,-200.1403 410.1351,-193.1976"/>
<text text-anchor="middle" x="525.5" y="-191.5" font-family="FreeSans" font-size="10.00" fill="#000000"> file</text>
</g>
</g>
</svg>
