<?xml version="1.0" encoding="UTF-8" standalone="no"?>
<!DOCTYPE svg PUBLIC "-//W3C//DTD SVG 1.1//EN"
 "http://www.w3.org/Graphics/SVG/1.1/DTD/svg11.dtd">
<!-- Generated by graphviz version 2.40.1 (20161225.0304)
 -->
<!-- Title: RawClusterBuilderTopo Pages: 1 -->
<svg width="1309pt" height="437pt"
 viewBox="0.00 0.00 1309.00 436.50" xmlns="http://www.w3.org/2000/svg" xmlns:xlink="http://www.w3.org/1999/xlink">
<g id="graph0" class="graph" transform="scale(1 1) rotate(0) translate(4 432.5)">
<title>RawClusterBuilderTopo</title>
<!-- Node1 -->
<g id="node1" class="node">
<title>Node1</title>
<polygon fill="#bfbfbf" stroke="#000000" points="1169,-197.5 1169,-217.5 1301,-217.5 1301,-197.5 1169,-197.5"/>
<text text-anchor="middle" x="1235" y="-204.5" font-family="FreeSans" font-size="10.00" fill="#000000">RawClusterBuilderTopo</text>
</g>
<!-- Node2 -->
<g id="node2" class="node">
<title>Node2</title>
<g id="a_node2"><a xlink:href="../../d0/d32/classSubsysReco.html" target="_top" xlink:title="SubsysReco">
<polygon fill="none" stroke="#000000" points="858,-314.5 858,-334.5 934,-334.5 934,-314.5 858,-314.5"/>
<text text-anchor="middle" x="896" y="-321.5" font-family="FreeSans" font-size="10.00" fill="#000000">SubsysReco</text>
</a>
</g>
</g>
<!-- Node2&#45;&gt;Node1 -->
<g id="edge1" class="edge">
<title>Node2&#45;&gt;Node1</title>
<path fill="none" stroke="#191970" d="M944.4234,-329.6972C997.9162,-333.2555 1085.1858,-332.4587 1151,-299.5 1188.5175,-280.7119 1217.412,-237.5658 1229.2073,-217.7689"/>
<polygon fill="#191970" stroke="#191970" points="944.4237,-326.1876 934.1915,-328.9357 943.9041,-333.1683 944.4237,-326.1876"/>
</g>
<!-- Node3 -->
<g id="node3" class="node">
<title>Node3</title>
<g id="a_node3"><a xlink:href="../../d5/dec/classFun4AllBase.html" target="_top" xlink:title="Fun4AllBase">
<polygon fill="none" stroke="#000000" points="574,-314.5 574,-334.5 652,-334.5 652,-314.5 574,-314.5"/>
<text text-anchor="middle" x="613" y="-321.5" font-family="FreeSans" font-size="10.00" fill="#000000">Fun4AllBase</text>
</a>
</g>
</g>
<!-- Node3&#45;&gt;Node2 -->
<g id="edge2" class="edge">
<title>Node3&#45;&gt;Node2</title>
<path fill="none" stroke="#191970" d="M662.3703,-324.5C717.999,-324.5 807.234,-324.5 857.8,-324.5"/>
<polygon fill="#191970" stroke="#191970" points="662.0528,-321.0001 652.0528,-324.5 662.0528,-328.0001 662.0528,-321.0001"/>
</g>
<!-- Node4 -->
<g id="node4" class="node">
<title>Node4</title>
<g id="a_node4"><a xlink:title="STL class.">
<polygon fill="none" stroke="#bfbfbf" points="262.5,-333.5 262.5,-353.5 329.5,-353.5 329.5,-333.5 262.5,-333.5"/>
<text text-anchor="middle" x="296" y="-340.5" font-family="FreeSans" font-size="10.00" fill="#000000">std::string</text>
</a>
</g>
</g>
<!-- Node4&#45;&gt;Node1 -->
<g id="edge12" class="edge">
<title>Node4&#45;&gt;Node1</title>
<path fill="none" stroke="#9a32cd" stroke-dasharray="5,2" d="M339.0144,-356.3465C471.1864,-393.1557 878.8871,-486.5896 1151,-328.5 1195.8872,-302.4219 1222.4052,-241.6173 1231.4614,-217.5582"/>
<polygon fill="#9a32cd" stroke="#9a32cd" points="339.8274,-352.9393 329.2526,-353.5904 337.9254,-359.676 339.8274,-352.9393"/>
<text text-anchor="middle" x="755" y="-419.5" font-family="FreeSans" font-size="10.00" fill="#000000"> ClusterNodeName</text>
</g>
<!-- Node4&#45;&gt;Node3 -->
<g id="edge3" class="edge">
<title>Node4&#45;&gt;Node3</title>
<path fill="none" stroke="#9a32cd" stroke-dasharray="5,2" d="M339.8922,-339.8477C350.4066,-339.0245 361.6,-338.1909 372,-337.5 443.0752,-332.7782 526.0296,-328.5948 573.7435,-326.317"/>
<polygon fill="#9a32cd" stroke="#9a32cd" points="339.3496,-336.3797 329.6586,-340.6616 339.9047,-343.3576 339.3496,-336.3797"/>
<text text-anchor="middle" x="445.5" y="-340.5" font-family="FreeSans" font-size="10.00" fill="#000000"> m_ThisName</text>
</g>
<!-- Node5 -->
<g id="node5" class="node">
<title>Node5</title>
<g id="a_node5"><a xlink:title="STL class.">
<polygon fill="none" stroke="#bfbfbf" points="94,-327.5 94,-359.5 201,-359.5 201,-327.5 94,-327.5"/>
<text text-anchor="start" x="102" y="-346.5" font-family="FreeSans" font-size="10.00" fill="#000000">std::basic_string&lt;</text>
<text text-anchor="middle" x="147.5" y="-334.5" font-family="FreeSans" font-size="10.00" fill="#000000"> char &gt;</text>
</a>
</g>
</g>
<!-- Node5&#45;&gt;Node4 -->
<g id="edge4" class="edge">
<title>Node5&#45;&gt;Node4</title>
<path fill="none" stroke="#191970" d="M211.3234,-343.5C228.874,-343.5 247.2177,-343.5 262.3263,-343.5"/>
<polygon fill="#191970" stroke="#191970" points="211.1119,-340.0001 201.1119,-343.5 211.1119,-347.0001 211.1119,-340.0001"/>
</g>
<!-- Node6 -->
<g id="node6" class="node">
<title>Node6</title>
<g id="a_node6"><a xlink:href="../../df/d49/classRawTowerGeomContainer.html" target="_top" xlink:title="base class to describe calorimeter geometries">
<polygon fill="none" stroke="#000000" points="372,-275.5 372,-295.5 519,-295.5 519,-275.5 372,-275.5"/>
<text text-anchor="middle" x="445.5" y="-282.5" font-family="FreeSans" font-size="10.00" fill="#000000">RawTowerGeomContainer</text>
</a>
</g>
</g>
<!-- Node6&#45;&gt;Node1 -->
<g id="edge5" class="edge">
<title>Node6&#45;&gt;Node1</title>
<path fill="none" stroke="#9a32cd" stroke-dasharray="5,2" d="M529.3723,-293.5418C663.6398,-303.7335 933.8175,-313.1613 1151,-250.5 1176.5004,-243.1427 1203.3648,-227.8775 1219.6552,-217.6592"/>
<polygon fill="#9a32cd" stroke="#9a32cd" points="529.4005,-290.0335 519.1585,-292.745 528.8559,-297.0123 529.4005,-290.0335"/>
<text text-anchor="middle" x="755" y="-303.5" font-family="FreeSans" font-size="10.00" fill="#000000"> _geom_containers</text>
</g>
<!-- Node7 -->
<g id="node7" class="node">
<title>Node7</title>
<g id="a_node7"><a xlink:href="../../d9/d24/classPHObject.html" target="_top" xlink:title="PHObject">
<polygon fill="none" stroke="#000000" points="116,-237.5 116,-257.5 179,-257.5 179,-237.5 116,-237.5"/>
<text text-anchor="middle" x="147.5" y="-244.5" font-family="FreeSans" font-size="10.00" fill="#000000">PHObject</text>
</a>
</g>
</g>
<!-- Node7&#45;&gt;Node6 -->
<g id="edge6" class="edge">
<title>Node7&#45;&gt;Node6</title>
<path fill="none" stroke="#191970" d="M189.0083,-256.2673C198.814,-258.1607 209.2526,-260.0322 219,-261.5 269.8329,-269.1547 327.4469,-275.224 371.8466,-279.3442"/>
<polygon fill="#191970" stroke="#191970" points="189.5633,-252.8093 179.0742,-254.3022 188.2049,-259.6763 189.5633,-252.8093"/>
</g>
<!-- Node13 -->
<g id="node13" class="node">
<title>Node13</title>
<g id="a_node13"><a xlink:href="../../d6/d12/classRawClusterContainer.html" target="_top" xlink:title="RawClusterContainer">
<polygon fill="none" stroke="#000000" points="834.5,-236.5 834.5,-256.5 957.5,-256.5 957.5,-236.5 834.5,-236.5"/>
<text text-anchor="middle" x="896" y="-243.5" font-family="FreeSans" font-size="10.00" fill="#000000">RawClusterContainer</text>
</a>
</g>
</g>
<!-- Node7&#45;&gt;Node13 -->
<g id="edge14" class="edge">
<title>Node7&#45;&gt;Node13</title>
<path fill="none" stroke="#191970" d="M189.5045,-247.4439C314.8553,-247.2764 686.6988,-246.7796 834.4601,-246.5822"/>
<polygon fill="#191970" stroke="#191970" points="189.1793,-243.9442 179.184,-247.4577 189.1887,-250.9442 189.1793,-243.9442"/>
</g>
<!-- Node15 -->
<g id="node15" class="node">
<title>Node15</title>
<g id="a_node15"><a xlink:href="../../d2/d4e/classRawCluster.html" target="_top" xlink:title="RawCluster">
<polygon fill="none" stroke="#000000" points="259,-195.5 259,-215.5 333,-215.5 333,-195.5 259,-195.5"/>
<text text-anchor="middle" x="296" y="-202.5" font-family="FreeSans" font-size="10.00" fill="#000000">RawCluster</text>
</a>
</g>
</g>
<!-- Node7&#45;&gt;Node15 -->
<g id="edge17" class="edge">
<title>Node7&#45;&gt;Node15</title>
<path fill="none" stroke="#191970" d="M188.9871,-235.7663C211.5041,-229.3978 239.0494,-221.6072 260.5544,-215.525"/>
<polygon fill="#191970" stroke="#191970" points="188.027,-232.4005 179.357,-238.4899 189.9321,-239.1362 188.027,-232.4005"/>
</g>
<!-- Node8 -->
<g id="node8" class="node">
<title>Node8</title>
<polygon fill="none" stroke="#bfbfbf" points="0,-237.5 0,-257.5 57,-257.5 57,-237.5 0,-237.5"/>
<text text-anchor="middle" x="28.5" y="-244.5" font-family="FreeSans" font-size="10.00" fill="#000000">TObject</text>
</g>
<!-- Node8&#45;&gt;Node7 -->
<g id="edge7" class="edge">
<title>Node8&#45;&gt;Node7</title>
<path fill="none" stroke="#191970" d="M67.0045,-247.5C82.8051,-247.5 100.8715,-247.5 115.8799,-247.5"/>
<polygon fill="#191970" stroke="#191970" points="67.0035,-244.0001 57.0035,-247.5 67.0034,-251.0001 67.0035,-244.0001"/>
</g>
<!-- Node9 -->
<g id="node9" class="node">
<title>Node9</title>
<polygon fill="none" stroke="#bfbfbf" points="544.5,-120.5 544.5,-152.5 681.5,-152.5 681.5,-120.5 544.5,-120.5"/>
<text text-anchor="start" x="552.5" y="-139.5" font-family="FreeSans" font-size="10.00" fill="#000000">std::vector&lt; std::vector</text>
<text text-anchor="middle" x="613" y="-127.5" font-family="FreeSans" font-size="10.00" fill="#000000">&lt; int &gt; &gt;</text>
</g>
<!-- Node9&#45;&gt;Node1 -->
<g id="edge8" class="edge">
<title>Node9&#45;&gt;Node1</title>
<path fill="none" stroke="#9a32cd" stroke-dasharray="5,2" d="M691.8109,-145.4961C815.6475,-159.6318 1053.554,-186.7883 1168.9697,-199.9628"/>
<polygon fill="#9a32cd" stroke="#9a32cd" points="691.975,-141.9922 681.6425,-144.3354 691.181,-148.947 691.975,-141.9922"/>
<text text-anchor="start" x="830" y="-215.5" font-family="FreeSans" font-size="10.00" fill="#000000"> _EMTOWERMAP_KEY_ETA</text>
<text text-anchor="middle" x="896" y="-203.5" font-family="FreeSans" font-size="10.00" fill="#000000">_PHI</text>
<text text-anchor="start" x="830" y="-191.5" font-family="FreeSans" font-size="10.00" fill="#000000">_EMTOWERMAP_STATUS</text>
<text text-anchor="middle" x="896" y="-179.5" font-family="FreeSans" font-size="10.00" fill="#000000">_ETA_PHI</text>
</g>
<!-- Node16 -->
<g id="node16" class="node">
<title>Node16</title>
<polygon fill="none" stroke="#bfbfbf" points="826,-100.5 826,-132.5 966,-132.5 966,-100.5 826,-100.5"/>
<text text-anchor="start" x="834" y="-119.5" font-family="FreeSans" font-size="10.00" fill="#000000">std::vector&lt; std::vector</text>
<text text-anchor="middle" x="896" y="-107.5" font-family="FreeSans" font-size="10.00" fill="#000000">&lt; std::vector&lt; int &gt; &gt; &gt;</text>
</g>
<!-- Node9&#45;&gt;Node16 -->
<g id="edge19" class="edge">
<title>Node9&#45;&gt;Node16</title>
<path fill="none" stroke="#9a32cd" stroke-dasharray="5,2" d="M691.6985,-130.9383C733.7114,-127.9692 784.9907,-124.3452 825.6643,-121.4707"/>
<polygon fill="#9a32cd" stroke="#9a32cd" points="691.2348,-127.4622 681.5064,-131.6586 691.7283,-134.4448 691.2348,-127.4622"/>
<text text-anchor="middle" x="755" y="-131.5" font-family="FreeSans" font-size="10.00" fill="#000000"> elements</text>
</g>
<!-- Node10 -->
<g id="node10" class="node">
<title>Node10</title>
<polygon fill="none" stroke="#bfbfbf" points="243,-126.5 243,-146.5 349,-146.5 349,-126.5 243,-126.5"/>
<text text-anchor="middle" x="296" y="-133.5" font-family="FreeSans" font-size="10.00" fill="#000000">std::vector&lt; int &gt;</text>
</g>
<!-- Node10&#45;&gt;Node9 -->
<g id="edge9" class="edge">
<title>Node10&#45;&gt;Node9</title>
<path fill="none" stroke="#9a32cd" stroke-dasharray="5,2" d="M359.1028,-136.5C412.6016,-136.5 489.191,-136.5 544.2401,-136.5"/>
<polygon fill="#9a32cd" stroke="#9a32cd" points="359.0587,-133.0001 349.0587,-136.5 359.0586,-140.0001 359.0587,-133.0001"/>
<text text-anchor="middle" x="445.5" y="-139.5" font-family="FreeSans" font-size="10.00" fill="#000000"> elements</text>
</g>
<!-- Node11 -->
<g id="node11" class="node">
<title>Node11</title>
<polygon fill="none" stroke="#bfbfbf" points="544.5,-33.5 544.5,-65.5 681.5,-65.5 681.5,-33.5 544.5,-33.5"/>
<text text-anchor="start" x="552.5" y="-52.5" font-family="FreeSans" font-size="10.00" fill="#000000">std::vector&lt; std::vector</text>
<text text-anchor="middle" x="613" y="-40.5" font-family="FreeSans" font-size="10.00" fill="#000000">&lt; float &gt; &gt;</text>
</g>
<!-- Node11&#45;&gt;Node1 -->
<g id="edge10" class="edge">
<title>Node11&#45;&gt;Node1</title>
<path fill="none" stroke="#9a32cd" stroke-dasharray="5,2" d="M692.1465,-54.0579C840.5177,-62.6618 1146.081,-80.6885 1151,-83.5 1197.0529,-109.8223 1223.0498,-172.9346 1231.7109,-197.488"/>
<polygon fill="#9a32cd" stroke="#9a32cd" points="691.9275,-50.5394 681.7417,-53.455 691.5225,-57.5277 691.9275,-50.5394"/>
<text text-anchor="middle" x="896" y="-73.5" font-family="FreeSans" font-size="10.00" fill="#000000"> _EMTOWERMAP_E_ETA_PHI</text>
</g>
<!-- Node17 -->
<g id="node17" class="node">
<title>Node17</title>
<polygon fill="none" stroke="#bfbfbf" points="821,-.5 821,-32.5 971,-32.5 971,-.5 821,-.5"/>
<text text-anchor="start" x="829" y="-19.5" font-family="FreeSans" font-size="10.00" fill="#000000">std::vector&lt; std::vector</text>
<text text-anchor="middle" x="896" y="-7.5" font-family="FreeSans" font-size="10.00" fill="#000000">&lt; std::vector&lt; float &gt; &gt; &gt;</text>
</g>
<!-- Node11&#45;&gt;Node17 -->
<g id="edge21" class="edge">
<title>Node11&#45;&gt;Node17</title>
<path fill="none" stroke="#9a32cd" stroke-dasharray="5,2" d="M691.5857,-40.3363C732.0022,-35.6234 781.0174,-29.9079 820.9187,-25.2551"/>
<polygon fill="#9a32cd" stroke="#9a32cd" points="691.0337,-36.8769 681.5064,-41.5116 691.8445,-43.8297 691.0337,-36.8769"/>
<text text-anchor="middle" x="755" y="-41.5" font-family="FreeSans" font-size="10.00" fill="#000000"> elements</text>
</g>
<!-- Node12 -->
<g id="node12" class="node">
<title>Node12</title>
<polygon fill="none" stroke="#bfbfbf" points="238,-39.5 238,-59.5 354,-59.5 354,-39.5 238,-39.5"/>
<text text-anchor="middle" x="296" y="-46.5" font-family="FreeSans" font-size="10.00" fill="#000000">std::vector&lt; float &gt;</text>
</g>
<!-- Node12&#45;&gt;Node11 -->
<g id="edge11" class="edge">
<title>Node12&#45;&gt;Node11</title>
<path fill="none" stroke="#9a32cd" stroke-dasharray="5,2" d="M364.1752,-49.5C417.4369,-49.5 491.1242,-49.5 544.475,-49.5"/>
<polygon fill="#9a32cd" stroke="#9a32cd" points="364.1427,-46.0001 354.1427,-49.5 364.1427,-53.0001 364.1427,-46.0001"/>
<text text-anchor="middle" x="445.5" y="-52.5" font-family="FreeSans" font-size="10.00" fill="#000000"> elements</text>
</g>
<!-- Node13&#45;&gt;Node1 -->
<g id="edge13" class="edge">
<title>Node13&#45;&gt;Node1</title>
<path fill="none" stroke="#9a32cd" stroke-dasharray="5,2" d="M967.8381,-238.2354C1027.2314,-231.4026 1110.9073,-221.7761 1168.7164,-215.1255"/>
<polygon fill="#9a32cd" stroke="#9a32cd" points="967.3181,-234.7721 957.7836,-239.3921 968.1182,-241.7262 967.3181,-234.7721"/>
<text text-anchor="middle" x="1070" y="-237.5" font-family="FreeSans" font-size="10.00" fill="#000000"> _clusters</text>
</g>
<!-- Node14 -->
<g id="node14" class="node">
<title>Node14</title>
<polygon fill="none" stroke="#bfbfbf" points="537,-186.5 537,-218.5 689,-218.5 689,-186.5 537,-186.5"/>
<text text-anchor="start" x="545" y="-205.5" font-family="FreeSans" font-size="10.00" fill="#000000">std::map&lt; RawClusterDefs</text>
<text text-anchor="middle" x="613" y="-193.5" font-family="FreeSans" font-size="10.00" fill="#000000">::keytype, RawCluster * &gt;</text>
</g>
<!-- Node14&#45;&gt;Node13 -->
<g id="edge15" class="edge">
<title>Node14&#45;&gt;Node13</title>
<path fill="none" stroke="#9a32cd" stroke-dasharray="5,2" d="M699.1909,-208.1298C731.8699,-211.0457 769.3116,-215.3301 803,-221.5 823.3924,-225.2348 845.8493,-231.217 863.5862,-236.3932"/>
<polygon fill="#9a32cd" stroke="#9a32cd" points="699.4755,-204.6414 689.2114,-207.2682 698.8733,-211.6155 699.4755,-204.6414"/>
<text text-anchor="middle" x="755" y="-224.5" font-family="FreeSans" font-size="10.00" fill="#000000"> _clusters</text>
</g>
<!-- Node15&#45;&gt;Node14 -->
<g id="edge16" class="edge">
<title>Node15&#45;&gt;Node14</title>
<path fill="none" stroke="#9a32cd" stroke-dasharray="5,2" d="M343.4092,-205.0513C394.5634,-204.5672 476.7692,-203.7893 536.9718,-203.2195"/>
<polygon fill="#9a32cd" stroke="#9a32cd" points="343.2625,-201.5525 333.2961,-205.147 343.3288,-208.5522 343.2625,-201.5525"/>
<text text-anchor="middle" x="445.5" y="-207.5" font-family="FreeSans" font-size="10.00" fill="#000000"> elements</text>
</g>
<!-- Node16&#45;&gt;Node1 -->
<g id="edge18" class="edge">
<title>Node16&#45;&gt;Node1</title>
<path fill="none" stroke="#9a32cd" stroke-dasharray="5,2" d="M961.9152,-98.3052C1015.4268,-87.1628 1091.4939,-79.771 1151,-107.5 1191.6921,-126.462 1219.6879,-175.9127 1230.2847,-197.3467"/>
<polygon fill="#9a32cd" stroke="#9a32cd" points="960.885,-94.9476 951.8604,-100.4979 962.3765,-101.7868 960.885,-94.9476"/>
<text text-anchor="start" x="1005" y="-146.5" font-family="FreeSans" font-size="10.00" fill="#000000"> _TOWERMAP_KEY_LAYER</text>
<text text-anchor="middle" x="1070" y="-134.5" font-family="FreeSans" font-size="10.00" fill="#000000">_ETA_PHI</text>
<text text-anchor="start" x="1005" y="-122.5" font-family="FreeSans" font-size="10.00" fill="#000000">_TOWERMAP_STATUS</text>
<text text-anchor="middle" x="1070" y="-110.5" font-family="FreeSans" font-size="10.00" fill="#000000">_LAYER_ETA_PHI</text>
</g>
<!-- Node17&#45;&gt;Node1 -->
<g id="edge20" class="edge">
<title>Node17&#45;&gt;Node1</title>
<path fill="none" stroke="#9a32cd" stroke-dasharray="5,2" d="M981.1823,-6.0466C1034.3823,-3.9402 1101.8613,-9.7767 1151,-43.5 1206.3891,-81.5129 1227.4301,-167.5186 1233.2033,-197.1995"/>
<polygon fill="#9a32cd" stroke="#9a32cd" points="980.8972,-2.5563 971.0829,-6.5474 981.244,-9.5477 980.8972,-2.5563"/>
<text text-anchor="middle" x="1070" y="-46.5" font-family="FreeSans" font-size="10.00" fill="#000000"> _TOWERMAP_E_LAYER_ETA_PHI</text>
</g>
</g>
</svg>
