<?xml version="1.0" encoding="UTF-8" standalone="no"?>
<!DOCTYPE svg PUBLIC "-//W3C//DTD SVG 1.1//EN"
 "http://www.w3.org/Graphics/SVG/1.1/DTD/svg11.dtd">
<!-- Generated by graphviz version 2.40.1 (20161225.0304)
 -->
<!-- Title: Acts::Surface::pathCorrection Pages: 1 -->
<svg width="1173pt" height="223pt"
 viewBox="0.00 0.00 1173.00 222.67" xmlns="http://www.w3.org/2000/svg" xmlns:xlink="http://www.w3.org/1999/xlink">
<g id="graph0" class="graph" transform="scale(1 1) rotate(0) translate(4 218.674)">
<title>Acts::Surface::pathCorrection</title>
<!-- Node1 -->
<g id="node1" class="node">
<title>Node1</title>
<polygon fill="#bfbfbf" stroke="#000000" points="0,-82.5 0,-102.5 165,-102.5 165,-82.5 0,-82.5"/>
<text text-anchor="middle" x="82.5" y="-89.5" font-family="FreeSans" font-size="10.00" fill="#000000">Acts::Surface::pathCorrection</text>
</g>
<!-- Node2 -->
<g id="node2" class="node">
<title>Node2</title>
<g id="a_node2"><a xlink:href="../../df/de3/structActs_1_1detail_1_1PointwiseMaterialInteraction.html#ae34e9a63e62a6c62c2baea2b933fd8f0" target="_top" xlink:title="This function evaluates the material properties to interact with.">
<polygon fill="none" stroke="#000000" points="201,-76.5 201,-108.5 386,-108.5 386,-76.5 201,-76.5"/>
<text text-anchor="start" x="209" y="-95.5" font-family="FreeSans" font-size="10.00" fill="#000000">Acts::detail::PointwiseMaterial</text>
<text text-anchor="middle" x="293.5" y="-83.5" font-family="FreeSans" font-size="10.00" fill="#000000">Interaction::evaluateMaterialSlab</text>
</a>
</g>
</g>
<!-- Node1&#45;&gt;Node2 -->
<g id="edge1" class="edge">
<title>Node1&#45;&gt;Node2</title>
<path fill="none" stroke="#191970" d="M175.4822,-92.5C183.896,-92.5 192.4176,-92.5 200.8288,-92.5"/>
<polygon fill="#191970" stroke="#191970" points="175.2872,-89.0001 165.2872,-92.5 175.2872,-96.0001 175.2872,-89.0001"/>
</g>
<!-- Node3 -->
<g id="node3" class="node">
<title>Node3</title>
<g id="a_node3"><a xlink:href="../../d0/d33/structActs_1_1MaterialInteractor.html#aad01bb877878766da52fdcd95c5a16ac" target="_top" xlink:title="Interaction with detector material for the ActionList of the Propagator.">
<polygon fill="none" stroke="#000000" points="440.5,-153.5 440.5,-185.5 576.5,-185.5 576.5,-153.5 440.5,-153.5"/>
<text text-anchor="start" x="448.5" y="-172.5" font-family="FreeSans" font-size="10.00" fill="#000000">Acts::MaterialInteractor</text>
<text text-anchor="middle" x="508.5" y="-160.5" font-family="FreeSans" font-size="10.00" fill="#000000">::operator()</text>
</a>
</g>
</g>
<!-- Node2&#45;&gt;Node3 -->
<g id="edge2" class="edge">
<title>Node2&#45;&gt;Node3</title>
<path fill="none" stroke="#191970" d="M339.5587,-112.4826C363.8526,-122.6791 394.2904,-134.9177 422,-144.5 430.8641,-147.5653 440.3248,-150.5671 449.6155,-153.3666"/>
<polygon fill="#191970" stroke="#191970" points="340.8034,-109.2089 330.2297,-108.5409 338.079,-115.657 340.8034,-109.2089"/>
</g>
<!-- Node4 -->
<g id="node4" class="node">
<title>Node4</title>
<g id="a_node4"><a xlink:href="../../d4/dc6/classActs_1_1CombinatorialKalmanFilter_1_1Actor.html#ad4c4bf69db2e11c40c999da121d4a1f8" target="_top" xlink:title="CombinatorialKalmanFilter actor operation: material interaction.">
<polygon fill="none" stroke="#000000" points="422,-102.5 422,-134.5 595,-134.5 595,-102.5 422,-102.5"/>
<text text-anchor="start" x="430" y="-121.5" font-family="FreeSans" font-size="10.00" fill="#000000">Acts::CombinatorialKalman</text>
<text text-anchor="middle" x="508.5" y="-109.5" font-family="FreeSans" font-size="10.00" fill="#000000">Filter::Actor::materialInteractor</text>
</a>
</g>
</g>
<!-- Node2&#45;&gt;Node4 -->
<g id="edge3" class="edge">
<title>Node2&#45;&gt;Node4</title>
<path fill="none" stroke="#191970" d="M396.2568,-104.9264C404.817,-105.9616 413.4174,-107.0016 421.8403,-108.0202"/>
<polygon fill="#191970" stroke="#191970" points="396.5872,-101.4409 386.2393,-103.715 395.7468,-108.3903 396.5872,-101.4409"/>
</g>
<!-- Node8 -->
<g id="node8" class="node">
<title>Node8</title>
<g id="a_node8"><a xlink:href="../../d1/d44/structActs_1_1detail_1_1GsfActor.html#a59e9ca886b1c179839b6ee4ece659fdb" target="_top" xlink:title="Apply the multiple scattering to the state.">
<polygon fill="none" stroke="#000000" points="437,-51.5 437,-83.5 580,-83.5 580,-51.5 437,-51.5"/>
<text text-anchor="start" x="445" y="-70.5" font-family="FreeSans" font-size="10.00" fill="#000000">Acts::detail::GsfActor</text>
<text text-anchor="middle" x="508.5" y="-58.5" font-family="FreeSans" font-size="10.00" fill="#000000">::applyMultipleScattering</text>
</a>
</g>
</g>
<!-- Node2&#45;&gt;Node8 -->
<g id="edge10" class="edge">
<title>Node2&#45;&gt;Node8</title>
<path fill="none" stroke="#191970" d="M396.2058,-80.5575C409.9361,-78.9609 423.7709,-77.3522 436.8118,-75.8358"/>
<polygon fill="#191970" stroke="#191970" points="395.7681,-77.0847 386.2393,-81.7164 396.5767,-84.0378 395.7681,-77.0847"/>
</g>
<!-- Node10 -->
<g id="node10" class="node">
<title>Node10</title>
<g id="a_node10"><a xlink:href="../../d6/d87/classActs_1_1KalmanFitter_1_1Actor.html#a266c82d08fee156daf0c9cf898469737" target="_top" xlink:title="Kalman actor operation: material interaction.">
<polygon fill="none" stroke="#000000" points="434.5,-.5 434.5,-32.5 582.5,-32.5 582.5,-.5 434.5,-.5"/>
<text text-anchor="start" x="442.5" y="-19.5" font-family="FreeSans" font-size="10.00" fill="#000000">Acts::KalmanFitter</text>
<text text-anchor="middle" x="508.5" y="-7.5" font-family="FreeSans" font-size="10.00" fill="#000000">::Actor::materialInteractor</text>
</a>
</g>
</g>
<!-- Node2&#45;&gt;Node10 -->
<g id="edge12" class="edge">
<title>Node2&#45;&gt;Node10</title>
<path fill="none" stroke="#191970" d="M340.3884,-72.6297C364.5584,-62.7096 394.6336,-50.861 422,-41.5 431.0223,-38.4138 440.6562,-35.379 450.0979,-32.5462"/>
<polygon fill="#191970" stroke="#191970" points="339.002,-69.4154 331.0954,-76.4679 341.6742,-75.8853 339.002,-69.4154"/>
</g>
<!-- Node5 -->
<g id="node5" class="node">
<title>Node5</title>
<g id="a_node5"><a xlink:href="../../d4/dc6/classActs_1_1CombinatorialKalmanFilter_1_1Actor.html#a0a1b450b21cc2d51a609cd2aea791136" target="_top" xlink:title="CombinatorialKalmanFilter actor operation.">
<polygon fill="none" stroke="#000000" points="1011,-144.5 1011,-176.5 1165,-176.5 1165,-144.5 1011,-144.5"/>
<text text-anchor="start" x="1019" y="-163.5" font-family="FreeSans" font-size="10.00" fill="#000000">Acts::CombinatorialKalman</text>
<text text-anchor="middle" x="1088" y="-151.5" font-family="FreeSans" font-size="10.00" fill="#000000">Filter::Actor::operator()</text>
</a>
</g>
</g>
<!-- Node4&#45;&gt;Node5 -->
<g id="edge4" class="edge">
<title>Node4&#45;&gt;Node5</title>
<path fill="none" stroke="#191970" d="M584.4987,-138.6954C588.1322,-140.4779 591.655,-142.409 595,-144.5 615.0025,-157.0038 609.3913,-174.039 631,-183.5 768.9017,-243.8777 953.056,-202.2653 1039.4245,-176.5722"/>
<polygon fill="#191970" stroke="#191970" points="585.8344,-135.4587 575.2774,-134.5645 582.9726,-141.847 585.8344,-135.4587"/>
</g>
<!-- Node6 -->
<g id="node6" class="node">
<title>Node6</title>
<g id="a_node6"><a xlink:href="../../d4/dc6/classActs_1_1CombinatorialKalmanFilter_1_1Actor.html#a8cacc4f1e8e28179d1f5785a3dc7c960" target="_top" xlink:title="Kalman actor operation: reset propagation.">
<polygon fill="none" stroke="#000000" points="631,-141.5 631,-173.5 785,-173.5 785,-141.5 631,-141.5"/>
<text text-anchor="start" x="639" y="-160.5" font-family="FreeSans" font-size="10.00" fill="#000000">Acts::CombinatorialKalman</text>
<text text-anchor="middle" x="708" y="-148.5" font-family="FreeSans" font-size="10.00" fill="#000000">Filter::Actor::reset</text>
</a>
</g>
</g>
<!-- Node4&#45;&gt;Node6 -->
<g id="edge5" class="edge">
<title>Node4&#45;&gt;Node6</title>
<path fill="none" stroke="#191970" d="M600.569,-136.4985C610.6809,-138.4752 620.8987,-140.4727 630.8034,-142.4089"/>
<polygon fill="#191970" stroke="#191970" points="600.9937,-133.0153 590.5079,-134.5316 599.6506,-139.8853 600.9937,-133.0153"/>
</g>
<!-- Node7 -->
<g id="node7" class="node">
<title>Node7</title>
<g id="a_node7"><a xlink:href="../../d4/dc6/classActs_1_1CombinatorialKalmanFilter_1_1Actor.html#a8492310b344821f3602d1c0e431f5874" target="_top" xlink:title="CombinatorialKalmanFilter actor operation:">
<polygon fill="none" stroke="#000000" points="821,-99.5 821,-131.5 975,-131.5 975,-99.5 821,-99.5"/>
<text text-anchor="start" x="829" y="-118.5" font-family="FreeSans" font-size="10.00" fill="#000000">Acts::CombinatorialKalman</text>
<text text-anchor="middle" x="898" y="-106.5" font-family="FreeSans" font-size="10.00" fill="#000000">Filter::Actor::filter</text>
</a>
</g>
</g>
<!-- Node4&#45;&gt;Node7 -->
<g id="edge9" class="edge">
<title>Node4&#45;&gt;Node7</title>
<path fill="none" stroke="#191970" d="M605.5036,-117.7529C672.0317,-117.2404 759.1047,-116.5698 820.9005,-116.0938"/>
<polygon fill="#191970" stroke="#191970" points="605.3993,-114.2535 595.4266,-117.8305 605.4533,-121.2533 605.3993,-114.2535"/>
</g>
<!-- Node6&#45;&gt;Node5 -->
<g id="edge6" class="edge">
<title>Node6&#45;&gt;Node5</title>
<path fill="none" stroke="#191970" d="M795.5842,-158.1915C860.5752,-158.7045 948.3676,-159.3976 1010.7516,-159.8901"/>
<polygon fill="#191970" stroke="#191970" points="795.3841,-154.6899 785.3567,-158.1107 795.3287,-161.6896 795.3841,-154.6899"/>
</g>
<!-- Node6&#45;&gt;Node7 -->
<g id="edge7" class="edge">
<title>Node6&#45;&gt;Node7</title>
<path fill="none" stroke="#191970" d="M790.7113,-139.2164C802.2592,-136.6637 814.0535,-134.0566 825.3961,-131.5493"/>
<polygon fill="#191970" stroke="#191970" points="789.6529,-135.8658 780.6441,-141.4418 791.1639,-142.7008 789.6529,-135.8658"/>
</g>
<!-- Node7&#45;&gt;Node5 -->
<g id="edge8" class="edge">
<title>Node7&#45;&gt;Node5</title>
<path fill="none" stroke="#191970" d="M975.8678,-133.9424C990.5821,-137.4273 1005.8636,-141.0466 1020.2365,-144.4507"/>
<polygon fill="#191970" stroke="#191970" points="976.3271,-130.4544 965.7897,-131.5555 974.7138,-137.266 976.3271,-130.4544"/>
</g>
<!-- Node9 -->
<g id="node9" class="node">
<title>Node9</title>
<g id="a_node9"><a xlink:href="../../d1/d44/structActs_1_1detail_1_1GsfActor.html#a8034e7482079d864362f65f442425b7d" target="_top" xlink:title="GSF actor operation.">
<polygon fill="none" stroke="#000000" points="646,-51.5 646,-83.5 770,-83.5 770,-51.5 646,-51.5"/>
<text text-anchor="start" x="654" y="-70.5" font-family="FreeSans" font-size="10.00" fill="#000000">Acts::detail::GsfActor</text>
<text text-anchor="middle" x="708" y="-58.5" font-family="FreeSans" font-size="10.00" fill="#000000">::operator()</text>
</a>
</g>
</g>
<!-- Node8&#45;&gt;Node9 -->
<g id="edge11" class="edge">
<title>Node8&#45;&gt;Node9</title>
<path fill="none" stroke="#191970" d="M590.4168,-67.5C608.9181,-67.5 628.2653,-67.5 645.8,-67.5"/>
<polygon fill="#191970" stroke="#191970" points="590.2423,-64.0001 580.2422,-67.5 590.2422,-71.0001 590.2423,-64.0001"/>
</g>
<!-- Node11 -->
<g id="node11" class="node">
<title>Node11</title>
<g id="a_node11"><a xlink:href="../../d6/d87/classActs_1_1KalmanFitter_1_1Actor.html#a0b2a36f8ad6cdcf3e13bee5b45d6ac23" target="_top" xlink:title="Kalman actor operation.">
<polygon fill="none" stroke="#000000" points="653,-.5 653,-32.5 763,-32.5 763,-.5 653,-.5"/>
<text text-anchor="start" x="661" y="-19.5" font-family="FreeSans" font-size="10.00" fill="#000000">Acts::KalmanFitter</text>
<text text-anchor="middle" x="708" y="-7.5" font-family="FreeSans" font-size="10.00" fill="#000000">::Actor::operator()</text>
</a>
</g>
</g>
<!-- Node10&#45;&gt;Node11 -->
<g id="edge13" class="edge">
<title>Node10&#45;&gt;Node11</title>
<path fill="none" stroke="#191970" d="M592.7091,-16.5C613.0278,-16.5 634.2285,-16.5 652.8264,-16.5"/>
<polygon fill="#191970" stroke="#191970" points="592.503,-13.0001 582.5029,-16.5 592.5029,-20.0001 592.503,-13.0001"/>
</g>
</g>
</svg>
