<?xml version="1.0" encoding="UTF-8" standalone="no"?>
<!DOCTYPE svg PUBLIC "-//W3C//DTD SVG 1.1//EN"
 "http://www.w3.org/Graphics/SVG/1.1/DTD/svg11.dtd">
<!-- Generated by graphviz version 2.40.1 (20161225.0304)
 -->
<!-- Title: OnCalServer::SetEorTime Pages: 1 -->
<svg width="570pt" height="146pt"
 viewBox="0.00 0.00 570.00 146.00" xmlns="http://www.w3.org/2000/svg" xmlns:xlink="http://www.w3.org/1999/xlink">
<g id="graph0" class="graph" transform="scale(1 1) rotate(0) translate(4 142)">
<title>OnCalServer::SetEorTime</title>
<!-- Node1 -->
<g id="node1" class="node">
<title>Node1</title>
<polygon fill="#bfbfbf" stroke="#000000" points="0,-58.5 0,-78.5 144,-78.5 144,-58.5 0,-58.5"/>
<text text-anchor="middle" x="72" y="-65.5" font-family="FreeSans" font-size="10.00" fill="#000000">OnCalServer::SetEorTime</text>
</g>
<!-- Node2 -->
<g id="node2" class="node">
<title>Node2</title>
<g id="a_node2"><a xlink:href="../../de/d33/classOnCalServer.html#a78a2eaf72b53e810f3888971250c0740" target="_top" xlink:title="OnCalServer::EndTimeStamp">
<polygon fill="none" stroke="#000000" points="180,-117.5 180,-137.5 344,-137.5 344,-117.5 180,-117.5"/>
<text text-anchor="middle" x="262" y="-124.5" font-family="FreeSans" font-size="10.00" fill="#000000">OnCalServer::EndTimeStamp</text>
</a>
</g>
</g>
<!-- Node1&#45;&gt;Node2 -->
<g id="edge1" class="edge">
<title>Node1&#45;&gt;Node2</title>
<path fill="none" stroke="#191970" d="M96.5764,-78.6208C118.2719,-87.309 150.8875,-99.7745 180,-108.5 187.7624,-110.8265 196.0094,-113.0366 204.167,-115.0716"/>
<polygon fill="#191970" stroke="#191970" points="203.4913,-118.5091 214.0344,-117.463 205.1401,-111.7061 203.4913,-118.5091"/>
</g>
<!-- Node3 -->
<g id="node3" class="node">
<title>Node3</title>
<g id="a_node3"><a xlink:href="../../dc/d4a/classRunToTime.html#a033a4ce5cfd9967be66279f7794d41ac" target="_top" xlink:title="RunToTime::getEndTime">
<polygon fill="none" stroke="#000000" points="192.5,-78.5 192.5,-98.5 331.5,-98.5 331.5,-78.5 192.5,-78.5"/>
<text text-anchor="middle" x="262" y="-85.5" font-family="FreeSans" font-size="10.00" fill="#000000">RunToTime::getEndTime</text>
</a>
</g>
</g>
<!-- Node1&#45;&gt;Node3 -->
<g id="edge2" class="edge">
<title>Node1&#45;&gt;Node3</title>
<path fill="none" stroke="#191970" d="M144.1018,-76.0897C156.6099,-77.4063 169.6812,-78.7822 182.3762,-80.1186"/>
<polygon fill="#191970" stroke="#191970" points="182.1473,-83.6137 192.4587,-81.1799 182.8801,-76.6522 182.1473,-83.6137"/>
</g>
<!-- Node4 -->
<g id="node4" class="node">
<title>Node4</title>
<g id="a_node4"><a xlink:href="../../da/dc2/classPHTimeStamp.html#aaf398dcc8d0066c674cc30dbbef5efcb" target="_top" xlink:title="PHTimeStamp::getTics">
<polygon fill="none" stroke="#000000" points="196.5,-39.5 196.5,-59.5 327.5,-59.5 327.5,-39.5 196.5,-39.5"/>
<text text-anchor="middle" x="262" y="-46.5" font-family="FreeSans" font-size="10.00" fill="#000000">PHTimeStamp::getTics</text>
</a>
</g>
</g>
<!-- Node1&#45;&gt;Node4 -->
<g id="edge3" class="edge">
<title>Node1&#45;&gt;Node4</title>
<path fill="none" stroke="#191970" d="M144.1018,-61.2898C157.8713,-59.9129 172.3234,-58.4677 186.2045,-57.0795"/>
<polygon fill="#191970" stroke="#191970" points="186.5913,-60.5584 196.1933,-56.0807 185.8947,-53.5932 186.5913,-60.5584"/>
</g>
<!-- Node6 -->
<g id="node6" class="node">
<title>Node6</title>
<g id="a_node6"><a xlink:href="../../dc/d4a/classRunToTime.html#a48de36b60ad6e4093a3e8dd7e403e4b7" target="_top" xlink:title="RunToTime::instance">
<polygon fill="none" stroke="#000000" points="201.5,-.5 201.5,-20.5 322.5,-20.5 322.5,-.5 201.5,-.5"/>
<text text-anchor="middle" x="262" y="-7.5" font-family="FreeSans" font-size="10.00" fill="#000000">RunToTime::instance</text>
</a>
</g>
</g>
<!-- Node1&#45;&gt;Node6 -->
<g id="edge5" class="edge">
<title>Node1&#45;&gt;Node6</title>
<path fill="none" stroke="#191970" d="M98.39,-58.39C120.11,-50.2693 151.8005,-38.8776 180,-30.5 188.7682,-27.8951 198.1358,-25.3715 207.2891,-23.0443"/>
<polygon fill="#191970" stroke="#191970" points="208.2409,-26.4142 217.0989,-20.6016 206.5494,-19.6216 208.2409,-26.4142"/>
</g>
<!-- Node5 -->
<g id="node5" class="node">
<title>Node5</title>
<g id="a_node5"><a xlink:href="../../da/dc2/classPHTimeStamp.html#a50f44df466af8818a2c140e7f04deddb" target="_top" xlink:title="PHTimeStamp::binaryTimeToTics">
<polygon fill="none" stroke="#000000" points="380,-39.5 380,-59.5 562,-59.5 562,-39.5 380,-39.5"/>
<text text-anchor="middle" x="471" y="-46.5" font-family="FreeSans" font-size="10.00" fill="#000000">PHTimeStamp::binaryTimeToTics</text>
</a>
</g>
</g>
<!-- Node4&#45;&gt;Node5 -->
<g id="edge4" class="edge">
<title>Node4&#45;&gt;Node5</title>
<path fill="none" stroke="#191970" d="M327.5555,-49.5C340.8492,-49.5 355.1241,-49.5 369.3293,-49.5"/>
<polygon fill="#191970" stroke="#191970" points="369.6455,-53.0001 379.6455,-49.5 369.6454,-46.0001 369.6455,-53.0001"/>
</g>
</g>
</svg>
