<?xml version="1.0" encoding="UTF-8" standalone="no"?>
<!DOCTYPE svg PUBLIC "-//W3C//DTD SVG 1.1//EN"
 "http://www.w3.org/Graphics/SVG/1.1/DTD/svg11.dtd">
<!-- Generated by graphviz version 2.40.1 (20161225.0304)
 -->
<!-- Title: OnCalServer::ClosestGoodRun Pages: 1 -->
<svg width="579pt" height="488pt"
 viewBox="0.00 0.00 579.00 488.00" xmlns="http://www.w3.org/2000/svg" xmlns:xlink="http://www.w3.org/1999/xlink">
<g id="graph0" class="graph" transform="scale(1 1) rotate(0) translate(4 484)">
<title>OnCalServer::ClosestGoodRun</title>
<!-- Node1 -->
<g id="node1" class="node">
<title>Node1</title>
<polygon fill="#bfbfbf" stroke="#000000" points="0,-214.5 0,-234.5 169,-234.5 169,-214.5 0,-214.5"/>
<text text-anchor="middle" x="84.5" y="-221.5" font-family="FreeSans" font-size="10.00" fill="#000000">OnCalServer::ClosestGoodRun</text>
</g>
<!-- Node2 -->
<g id="node2" class="node">
<title>Node2</title>
<g id="a_node2"><a xlink:href="../../de/d33/classOnCalServer.html#a627b3eb03d6d5cc10629d9aa4b1ae0e5" target="_top" xlink:title="OnCalServer::connectDB">
<polygon fill="none" stroke="#000000" points="208.5,-453.5 208.5,-473.5 349.5,-473.5 349.5,-453.5 208.5,-453.5"/>
<text text-anchor="middle" x="279" y="-460.5" font-family="FreeSans" font-size="10.00" fill="#000000">OnCalServer::connectDB</text>
</a>
</g>
</g>
<!-- Node1&#45;&gt;Node2 -->
<g id="edge1" class="edge">
<title>Node1&#45;&gt;Node2</title>
<path fill="none" stroke="#191970" d="M86.9659,-234.7079C96.0016,-269.8443 130.7193,-386.7892 205,-444.5 207.0163,-446.0665 209.1478,-447.5049 211.3657,-448.8255"/>
<polygon fill="#191970" stroke="#191970" points="209.7875,-451.9494 220.2884,-453.3575 212.9576,-445.7084 209.7875,-451.9494"/>
</g>
<!-- Node4 -->
<g id="node4" class="node">
<title>Node4</title>
<g id="a_node4"><a xlink:href="../../df/d98/classodbc_1_1Connection.html#a5f7d42a771ea7d1e25b564ac438d5f35" target="_top" xlink:title="odbc::Connection::create\lStatement">
<polygon fill="none" stroke="#000000" points="207.5,-402.5 207.5,-434.5 350.5,-434.5 350.5,-402.5 207.5,-402.5"/>
<text text-anchor="start" x="215.5" y="-421.5" font-family="FreeSans" font-size="10.00" fill="#000000">odbc::Connection::create</text>
<text text-anchor="middle" x="279" y="-409.5" font-family="FreeSans" font-size="10.00" fill="#000000">Statement</text>
</a>
</g>
</g>
<!-- Node1&#45;&gt;Node4 -->
<g id="edge3" class="edge">
<title>Node1&#45;&gt;Node4</title>
<path fill="none" stroke="#191970" d="M88.8883,-234.5397C102.0782,-263.5678 144.2395,-348.3939 205,-393.5 206.8578,-394.8792 208.7967,-396.1855 210.7976,-397.4227"/>
<polygon fill="#191970" stroke="#191970" points="209.4571,-400.6791 219.9088,-402.4148 212.8207,-394.5402 209.4571,-400.6791"/>
</g>
<!-- Node5 -->
<g id="node5" class="node">
<title>Node5</title>
<g id="a_node5"><a xlink:href="../../db/df0/classodbc_1_1Statement.html#a75fe7e274081ba449d4ed4239515dec8" target="_top" xlink:title="odbc::Statement::execute\lQuery">
<polygon fill="none" stroke="#000000" points="205.5,-351.5 205.5,-383.5 352.5,-383.5 352.5,-351.5 205.5,-351.5"/>
<text text-anchor="start" x="213.5" y="-370.5" font-family="FreeSans" font-size="10.00" fill="#000000">odbc::Statement::execute</text>
<text text-anchor="middle" x="279" y="-358.5" font-family="FreeSans" font-size="10.00" fill="#000000">Query</text>
</a>
</g>
</g>
<!-- Node1&#45;&gt;Node5 -->
<g id="edge4" class="edge">
<title>Node1&#45;&gt;Node5</title>
<path fill="none" stroke="#191970" d="M92.1104,-234.5725C109.6156,-257.0793 155.0867,-311.8733 205,-342.5 207.6313,-344.1146 210.3798,-345.6397 213.2039,-347.0784"/>
<polygon fill="#191970" stroke="#191970" points="211.8873,-350.3264 222.4293,-351.3837 214.8476,-343.9831 211.8873,-350.3264"/>
</g>
<!-- Node6 -->
<g id="node6" class="node">
<title>Node6</title>
<g id="a_node6"><a xlink:href="../../dc/d4a/classRunToTime.html#a171dc1a85d955abfab00ccbb52cf4528" target="_top" xlink:title="RunToTime::getBeginTime">
<polygon fill="none" stroke="#000000" points="205,-312.5 205,-332.5 353,-332.5 353,-312.5 205,-312.5"/>
<text text-anchor="middle" x="279" y="-319.5" font-family="FreeSans" font-size="10.00" fill="#000000">RunToTime::getBeginTime</text>
</a>
</g>
</g>
<!-- Node1&#45;&gt;Node6 -->
<g id="edge5" class="edge">
<title>Node1&#45;&gt;Node6</title>
<path fill="none" stroke="#191970" d="M96.7168,-234.5055C117.6353,-251.161 162.2077,-284.6045 205,-303.5 210.0051,-305.7101 215.3186,-307.7012 220.7111,-309.4867"/>
<polygon fill="#191970" stroke="#191970" points="219.8664,-312.8886 230.4534,-312.481 221.923,-306.1975 219.8664,-312.8886"/>
</g>
<!-- Node7 -->
<g id="node7" class="node">
<title>Node7</title>
<g id="a_node7"><a xlink:href="../../dc/d4a/classRunToTime.html#a033a4ce5cfd9967be66279f7794d41ac" target="_top" xlink:title="RunToTime::getEndTime">
<polygon fill="none" stroke="#000000" points="209.5,-273.5 209.5,-293.5 348.5,-293.5 348.5,-273.5 209.5,-273.5"/>
<text text-anchor="middle" x="279" y="-280.5" font-family="FreeSans" font-size="10.00" fill="#000000">RunToTime::getEndTime</text>
</a>
</g>
</g>
<!-- Node1&#45;&gt;Node7 -->
<g id="edge6" class="edge">
<title>Node1&#45;&gt;Node7</title>
<path fill="none" stroke="#191970" d="M113.0539,-234.5981C137.3601,-243.0446 173.2783,-255.1747 205,-264.5 212.4265,-266.6832 220.3127,-268.8584 228.0631,-270.9158"/>
<polygon fill="#191970" stroke="#191970" points="227.2027,-274.3084 237.7627,-273.4506 228.9726,-267.5358 227.2027,-274.3084"/>
</g>
<!-- Node8 -->
<g id="node8" class="node">
<title>Node8</title>
<g id="a_node8"><a xlink:href="../../d6/dba/classodbc_1_1ResultSet.html#a0cbb40c2cada9af651ca727c0bef4f48" target="_top" xlink:title="odbc::ResultSet::getInt">
<polygon fill="none" stroke="#000000" points="213,-234.5 213,-254.5 345,-254.5 345,-234.5 213,-234.5"/>
<text text-anchor="middle" x="279" y="-241.5" font-family="FreeSans" font-size="10.00" fill="#000000">odbc::ResultSet::getInt</text>
</a>
</g>
</g>
<!-- Node1&#45;&gt;Node8 -->
<g id="edge7" class="edge">
<title>Node1&#45;&gt;Node8</title>
<path fill="none" stroke="#191970" d="M169.2447,-233.2141C180.4527,-234.3666 191.886,-235.5423 202.9358,-236.6785"/>
<polygon fill="#191970" stroke="#191970" points="202.6527,-240.1677 212.9582,-237.7091 203.3687,-233.2045 202.6527,-240.1677"/>
</g>
<!-- Node9 -->
<g id="node9" class="node">
<title>Node9</title>
<g id="a_node9"><a xlink:href="../../d6/dba/classodbc_1_1ResultSet.html#ae25d132ed74640702fc2797ed77531fe" target="_top" xlink:title="odbc::ResultSet::getLong">
<polygon fill="none" stroke="#000000" points="207.5,-195.5 207.5,-215.5 350.5,-215.5 350.5,-195.5 207.5,-195.5"/>
<text text-anchor="middle" x="279" y="-202.5" font-family="FreeSans" font-size="10.00" fill="#000000">odbc::ResultSet::getLong</text>
</a>
</g>
</g>
<!-- Node1&#45;&gt;Node9 -->
<g id="edge8" class="edge">
<title>Node1&#45;&gt;Node9</title>
<path fill="none" stroke="#191970" d="M169.2447,-216.2216C178.5668,-215.311 188.0449,-214.3851 197.3284,-213.4782"/>
<polygon fill="#191970" stroke="#191970" points="197.6968,-216.959 207.3091,-212.5032 197.0162,-209.9921 197.6968,-216.959"/>
</g>
<!-- Node10 -->
<g id="node10" class="node">
<title>Node10</title>
<g id="a_node10"><a xlink:href="../../da/dc2/classPHTimeStamp.html#aaf398dcc8d0066c674cc30dbbef5efcb" target="_top" xlink:title="PHTimeStamp::getTics">
<polygon fill="none" stroke="#000000" points="213.5,-156.5 213.5,-176.5 344.5,-176.5 344.5,-156.5 213.5,-156.5"/>
<text text-anchor="middle" x="279" y="-163.5" font-family="FreeSans" font-size="10.00" fill="#000000">PHTimeStamp::getTics</text>
</a>
</g>
</g>
<!-- Node1&#45;&gt;Node10 -->
<g id="edge9" class="edge">
<title>Node1&#45;&gt;Node10</title>
<path fill="none" stroke="#191970" d="M115.0999,-214.4642C139.3922,-206.5906 174.2632,-195.4959 205,-186.5 213.2621,-184.0819 222.0737,-181.6088 230.6296,-179.263"/>
<polygon fill="#191970" stroke="#191970" points="231.7755,-182.5786 240.5076,-176.5785 229.9397,-175.8236 231.7755,-182.5786"/>
</g>
<!-- Node12 -->
<g id="node12" class="node">
<title>Node12</title>
<g id="a_node12"><a xlink:href="../../dc/d4a/classRunToTime.html#a48de36b60ad6e4093a3e8dd7e403e4b7" target="_top" xlink:title="RunToTime::instance">
<polygon fill="none" stroke="#000000" points="218.5,-117.5 218.5,-137.5 339.5,-137.5 339.5,-117.5 218.5,-117.5"/>
<text text-anchor="middle" x="279" y="-124.5" font-family="FreeSans" font-size="10.00" fill="#000000">RunToTime::instance</text>
</a>
</g>
</g>
<!-- Node1&#45;&gt;Node12 -->
<g id="edge11" class="edge">
<title>Node1&#45;&gt;Node12</title>
<path fill="none" stroke="#191970" d="M97.4717,-214.3026C118.7705,-198.0136 162.9934,-166.0721 205,-147.5 210.831,-144.922 217.071,-142.6085 223.3628,-140.5507"/>
<polygon fill="#191970" stroke="#191970" points="224.7039,-143.8006 233.2412,-137.5264 222.6547,-137.1072 224.7039,-143.8006"/>
</g>
<!-- Node13 -->
<g id="node13" class="node">
<title>Node13</title>
<g id="a_node13"><a xlink:href="../../d5/dec/classFun4AllBase.html#a41f9ac377743d046f590617fd6f4f0ed" target="_top" xlink:title="Returns the name of this module.">
<polygon fill="none" stroke="#000000" points="221.5,-78.5 221.5,-98.5 336.5,-98.5 336.5,-78.5 221.5,-78.5"/>
<text text-anchor="middle" x="279" y="-85.5" font-family="FreeSans" font-size="10.00" fill="#000000">Fun4AllBase::Name</text>
</a>
</g>
</g>
<!-- Node1&#45;&gt;Node13 -->
<g id="edge12" class="edge">
<title>Node1&#45;&gt;Node13</title>
<path fill="none" stroke="#191970" d="M92.0206,-214.3837C109.3418,-191.8191 154.461,-137.1133 205,-108.5 209.2632,-106.0863 213.8305,-103.9532 218.5263,-102.07"/>
<polygon fill="#191970" stroke="#191970" points="220.0719,-105.2332 228.2892,-98.5453 217.6949,-98.6491 220.0719,-105.2332"/>
</g>
<!-- Node14 -->
<g id="node14" class="node">
<title>Node14</title>
<g id="a_node14"><a xlink:href="../../d6/dba/classodbc_1_1ResultSet.html#af81f9d661a658b7330d430c582056a6e" target="_top" xlink:title="odbc::ResultSet::next">
<polygon fill="none" stroke="#000000" points="216.5,-39.5 216.5,-59.5 341.5,-59.5 341.5,-39.5 216.5,-39.5"/>
<text text-anchor="middle" x="279" y="-46.5" font-family="FreeSans" font-size="10.00" fill="#000000">odbc::ResultSet::next</text>
</a>
</g>
</g>
<!-- Node1&#45;&gt;Node14 -->
<g id="edge13" class="edge">
<title>Node1&#45;&gt;Node14</title>
<path fill="none" stroke="#191970" d="M89.3945,-214.3371C103.3148,-186.5488 145.9698,-108.7655 205,-69.5 208.3329,-67.2831 211.9041,-65.311 215.6117,-63.5568"/>
<polygon fill="#191970" stroke="#191970" points="217.162,-66.7027 225.0504,-59.63 214.4731,-60.2397 217.162,-66.7027"/>
</g>
<!-- Node15 -->
<g id="node15" class="node">
<title>Node15</title>
<g id="a_node15"><a xlink:href="../../d5/dec/classFun4AllBase.html#a8a5c77a92bdac6bc043476e132379a40" target="_top" xlink:title="Gets the verbosity of this module.">
<polygon fill="none" stroke="#000000" points="213,-.5 213,-20.5 345,-20.5 345,-.5 213,-.5"/>
<text text-anchor="middle" x="279" y="-7.5" font-family="FreeSans" font-size="10.00" fill="#000000">Fun4AllBase::Verbosity</text>
</a>
</g>
</g>
<!-- Node1&#45;&gt;Node15 -->
<g id="edge14" class="edge">
<title>Node1&#45;&gt;Node15</title>
<path fill="none" stroke="#191970" d="M87.8214,-214.1842C98.8159,-181.7323 137.2348,-80.8987 205,-30.5 207.8081,-28.4115 210.8202,-26.5411 213.9647,-24.8659"/>
<polygon fill="#191970" stroke="#191970" points="215.5036,-28.0105 223.1175,-20.643 212.571,-21.6543 215.5036,-28.0105"/>
</g>
<!-- Node3 -->
<g id="node3" class="node">
<title>Node3</title>
<g id="a_node3"><a xlink:href="../../db/dad/classodbc_1_1SQLException.html#a312d6e981c5a59d9ef4f605ae12d1714" target="_top" xlink:title="odbc::SQLException\l::getMessage">
<polygon fill="none" stroke="#000000" points="421.5,-447.5 421.5,-479.5 538.5,-479.5 538.5,-447.5 421.5,-447.5"/>
<text text-anchor="start" x="429.5" y="-466.5" font-family="FreeSans" font-size="10.00" fill="#000000">odbc::SQLException</text>
<text text-anchor="middle" x="480" y="-454.5" font-family="FreeSans" font-size="10.00" fill="#000000">::getMessage</text>
</a>
</g>
</g>
<!-- Node2&#45;&gt;Node3 -->
<g id="edge2" class="edge">
<title>Node2&#45;&gt;Node3</title>
<path fill="none" stroke="#191970" d="M349.5824,-463.5C369.5221,-463.5 391.1905,-463.5 411.0338,-463.5"/>
<polygon fill="#191970" stroke="#191970" points="411.2255,-467.0001 421.2254,-463.5 411.2254,-460.0001 411.2255,-467.0001"/>
</g>
<!-- Node11 -->
<g id="node11" class="node">
<title>Node11</title>
<g id="a_node11"><a xlink:href="../../da/dc2/classPHTimeStamp.html#a50f44df466af8818a2c140e7f04deddb" target="_top" xlink:title="PHTimeStamp::binaryTimeToTics">
<polygon fill="none" stroke="#000000" points="389,-156.5 389,-176.5 571,-176.5 571,-156.5 389,-156.5"/>
<text text-anchor="middle" x="480" y="-163.5" font-family="FreeSans" font-size="10.00" fill="#000000">PHTimeStamp::binaryTimeToTics</text>
</a>
</g>
</g>
<!-- Node10&#45;&gt;Node11 -->
<g id="edge10" class="edge">
<title>Node10&#45;&gt;Node11</title>
<path fill="none" stroke="#191970" d="M344.5368,-166.5C355.524,-166.5 367.1481,-166.5 378.785,-166.5"/>
<polygon fill="#191970" stroke="#191970" points="378.999,-170.0001 388.999,-166.5 378.9989,-163.0001 378.999,-170.0001"/>
</g>
</g>
</svg>
