<?xml version="1.0" encoding="UTF-8" standalone="no"?>
<!DOCTYPE svg PUBLIC "-//W3C//DTD SVG 1.1//EN"
 "http://www.w3.org/Graphics/SVG/1.1/DTD/svg11.dtd">
<!-- Generated by graphviz version 2.40.1 (20161225.0304)
 -->
<!-- Title: Jetscape::JetScapeModuleBase::GetMt19937Generator Pages: 1 -->
<svg width="397pt" height="194pt"
 viewBox="0.00 0.00 397.00 194.00" xmlns="http://www.w3.org/2000/svg" xmlns:xlink="http://www.w3.org/1999/xlink">
<g id="graph0" class="graph" transform="scale(1 1) rotate(0) translate(4 190)">
<title>Jetscape::JetScapeModuleBase::GetMt19937Generator</title>
<!-- Node1 -->
<g id="node1" class="node">
<title>Node1</title>
<polygon fill="#bfbfbf" stroke="#000000" points="0,-76.5 0,-108.5 162,-108.5 162,-76.5 0,-76.5"/>
<text text-anchor="start" x="8" y="-95.5" font-family="FreeSans" font-size="10.00" fill="#000000">Jetscape::JetScapeModule</text>
<text text-anchor="middle" x="81" y="-83.5" font-family="FreeSans" font-size="10.00" fill="#000000">Base::GetMt19937Generator</text>
</g>
<!-- Node2 -->
<g id="node2" class="node">
<title>Node2</title>
<g id="a_node2"><a xlink:href="../../db/d45/classJetscape_1_1TrentoInitial.html#a17126c51c0969689f25913914c4dc18a" target="_top" xlink:title="Jetscape::TrentoInitial\l::InitTask">
<polygon fill="none" stroke="#000000" points="230.5,-153.5 230.5,-185.5 356.5,-185.5 356.5,-153.5 230.5,-153.5"/>
<text text-anchor="start" x="238.5" y="-172.5" font-family="FreeSans" font-size="10.00" fill="#000000">Jetscape::TrentoInitial</text>
<text text-anchor="middle" x="293.5" y="-160.5" font-family="FreeSans" font-size="10.00" fill="#000000">::InitTask</text>
</a>
</g>
</g>
<!-- Node1&#45;&gt;Node2 -->
<g id="edge1" class="edge">
<title>Node1&#45;&gt;Node2</title>
<path fill="none" stroke="#191970" d="M122.3037,-112.8265C144.4086,-123.1991 172.3031,-135.493 198,-144.5 208.3512,-148.1282 219.4956,-151.5048 230.3896,-154.5289"/>
<polygon fill="#191970" stroke="#191970" points="123.7432,-109.6356 113.2079,-108.5139 120.7442,-115.9606 123.7432,-109.6356"/>
</g>
<!-- Node3 -->
<g id="node3" class="node">
<title>Node3</title>
<g id="a_node3"><a xlink:href="../../d9/d32/classNcollListFromFile.html#a26758dae11a9ba29ad7b8487626fdad3" target="_top" xlink:title="NcollListFromFile::\lSampleABinaryCollisionPoint">
<polygon fill="none" stroke="#000000" points="212.5,-102.5 212.5,-134.5 374.5,-134.5 374.5,-102.5 212.5,-102.5"/>
<text text-anchor="start" x="220.5" y="-121.5" font-family="FreeSans" font-size="10.00" fill="#000000">NcollListFromFile::</text>
<text text-anchor="middle" x="293.5" y="-109.5" font-family="FreeSans" font-size="10.00" fill="#000000">SampleABinaryCollisionPoint</text>
</a>
</g>
</g>
<!-- Node1&#45;&gt;Node3 -->
<g id="edge2" class="edge">
<title>Node1&#45;&gt;Node3</title>
<path fill="none" stroke="#191970" d="M172.3327,-103.6748C185.6216,-105.3008 199.2281,-106.9656 212.2983,-108.5647"/>
<polygon fill="#191970" stroke="#191970" points="172.5978,-100.1812 162.2467,-102.4408 171.7476,-107.1294 172.5978,-100.1812"/>
</g>
<!-- Node4 -->
<g id="node4" class="node">
<title>Node4</title>
<g id="a_node4"><a xlink:href="../../d5/d01/classIPGlasmaWrapper.html#a28b6e9305337aee72c0420d8803691ba" target="_top" xlink:title="IPGlasmaWrapper::SampleABinary\lCollisionPoint">
<polygon fill="none" stroke="#000000" points="198,-51.5 198,-83.5 389,-83.5 389,-51.5 198,-51.5"/>
<text text-anchor="start" x="206" y="-70.5" font-family="FreeSans" font-size="10.00" fill="#000000">IPGlasmaWrapper::SampleABinary</text>
<text text-anchor="middle" x="293.5" y="-58.5" font-family="FreeSans" font-size="10.00" fill="#000000">CollisionPoint</text>
</a>
</g>
</g>
<!-- Node1&#45;&gt;Node4 -->
<g id="edge3" class="edge">
<title>Node1&#45;&gt;Node4</title>
<path fill="none" stroke="#191970" d="M172.397,-81.7474C180.7813,-80.761 189.2915,-79.7598 197.7132,-78.769"/>
<polygon fill="#191970" stroke="#191970" points="171.7693,-78.297 162.2467,-82.9416 172.5872,-85.2491 171.7693,-78.297"/>
</g>
<!-- Node5 -->
<g id="node5" class="node">
<title>Node5</title>
<g id="a_node5"><a xlink:href="../../d7/d05/classJetscape_1_1InitialState.html#a75c1918ab93e649c3f1e21fa035bb1a0" target="_top" xlink:title="Jetscape::InitialState\l::SampleABinaryCollisionPoint">
<polygon fill="none" stroke="#000000" points="209,-.5 209,-32.5 378,-32.5 378,-.5 209,-.5"/>
<text text-anchor="start" x="217" y="-19.5" font-family="FreeSans" font-size="10.00" fill="#000000">Jetscape::InitialState</text>
<text text-anchor="middle" x="293.5" y="-7.5" font-family="FreeSans" font-size="10.00" fill="#000000">::SampleABinaryCollisionPoint</text>
</a>
</g>
</g>
<!-- Node1&#45;&gt;Node5 -->
<g id="edge4" class="edge">
<title>Node1&#45;&gt;Node5</title>
<path fill="none" stroke="#191970" d="M124.3818,-72.2658C146.1897,-62.5311 173.1932,-51.1312 198,-42.5 208.1432,-38.9708 219.0258,-35.6152 229.6824,-32.5587"/>
<polygon fill="#191970" stroke="#191970" points="122.7448,-69.1644 115.0656,-76.4637 125.6206,-75.5465 122.7448,-69.1644"/>
</g>
</g>
</svg>
