<?xml version="1.0" encoding="UTF-8" standalone="no"?>
<!DOCTYPE svg PUBLIC "-//W3C//DTD SVG 1.1//EN"
 "http://www.w3.org/Graphics/SVG/1.1/DTD/svg11.dtd">
<!-- Generated by graphviz version 2.40.1 (20161225.0304)
 -->
<!-- Title: acts/blob/sPHENIX/Examples/Framework/include/ActsExamples/Utilities/Options.hpp Pages: 1 -->
<svg width="3813pt" height="320pt"
 viewBox="0.00 0.00 3813.00 320.00" xmlns="http://www.w3.org/2000/svg" xmlns:xlink="http://www.w3.org/1999/xlink">
<g id="graph0" class="graph" transform="scale(1 1) rotate(0) translate(4 316)">
<title>acts/blob/sPHENIX/Examples/Framework/include/ActsExamples/Utilities/Options.hpp</title>
<!-- Node1 -->
<g id="node1" class="node">
<title>Node1</title>
<polygon fill="#bfbfbf" stroke="#000000" points="1980,-267.5 1980,-311.5 2171,-311.5 2171,-267.5 1980,-267.5"/>
<text text-anchor="start" x="1988" y="-298.5" font-family="FreeSans" font-size="10.00" fill="#000000">acts/blob/sPHENIX/Examples</text>
<text text-anchor="start" x="1988" y="-286.5" font-family="FreeSans" font-size="10.00" fill="#000000">/Framework/include/ActsExamples</text>
<text text-anchor="middle" x="2075.5" y="-274.5" font-family="FreeSans" font-size="10.00" fill="#000000">/Utilities/Options.hpp</text>
</g>
<!-- Node2 -->
<g id="node2" class="node">
<title>Node2</title>
<g id="a_node2"><a xlink:href="../../da/db9/Geant4Options_8cpp.html" target="_top" xlink:title="acts/blob/sPHENIX/Examples\l/Algorithms/Geant4/src/Geant4Options.cpp">
<polygon fill="none" stroke="#000000" points="0,-186.5 0,-218.5 235,-218.5 235,-186.5 0,-186.5"/>
<text text-anchor="start" x="8" y="-205.5" font-family="FreeSans" font-size="10.00" fill="#000000">acts/blob/sPHENIX/Examples</text>
<text text-anchor="middle" x="117.5" y="-193.5" font-family="FreeSans" font-size="10.00" fill="#000000">/Algorithms/Geant4/src/Geant4Options.cpp</text>
</a>
</g>
</g>
<!-- Node1&#45;&gt;Node2 -->
<g id="edge1" class="edge">
<title>Node1&#45;&gt;Node2</title>
<path fill="none" stroke="#191970" d="M1969.728,-288.7442C1631.9495,-285.9177 581.6437,-273.8247 244.5,-231 222.6436,-228.2237 199.0138,-223.4282 178.1317,-218.5542"/>
<polygon fill="#191970" stroke="#191970" points="1969.7252,-292.2442 1979.7538,-288.8272 1969.7831,-285.2445 1969.7252,-292.2442"/>
</g>
<!-- Node3 -->
<g id="node3" class="node">
<title>Node3</title>
<g id="a_node3"><a xlink:href="../../da/d2f/ParticleGunOptions_8cpp.html" target="_top" xlink:title="acts/blob/sPHENIX/Examples\l/Algorithms/Generators/ActsExamples\l/Options/ParticleGunOptions.cpp">
<polygon fill="none" stroke="#000000" points="253.5,-180.5 253.5,-224.5 463.5,-224.5 463.5,-180.5 253.5,-180.5"/>
<text text-anchor="start" x="261.5" y="-211.5" font-family="FreeSans" font-size="10.00" fill="#000000">acts/blob/sPHENIX/Examples</text>
<text text-anchor="start" x="261.5" y="-199.5" font-family="FreeSans" font-size="10.00" fill="#000000">/Algorithms/Generators/ActsExamples</text>
<text text-anchor="middle" x="358.5" y="-187.5" font-family="FreeSans" font-size="10.00" fill="#000000">/Options/ParticleGunOptions.cpp</text>
</a>
</g>
</g>
<!-- Node1&#45;&gt;Node3 -->
<g id="edge2" class="edge">
<title>Node1&#45;&gt;Node3</title>
<path fill="none" stroke="#191970" d="M1969.5644,-288.5142C1660.4006,-285.1805 762.8554,-272.1331 472.5,-231 461.0875,-229.3833 449.1596,-227.0919 437.4998,-224.5025"/>
<polygon fill="#191970" stroke="#191970" points="1969.8327,-292.0172 1979.8694,-288.6241 1969.9073,-285.0176 1969.8327,-292.0172"/>
</g>
<!-- Node4 -->
<g id="node4" class="node">
<title>Node4</title>
<g id="a_node4"><a xlink:href="../../d3/d22/MaterialMappingOptions_8hpp.html" target="_top" xlink:title="acts/blob/sPHENIX/Examples\l/Algorithms/MaterialMapping\l/include/ActsExamples/MaterialMapping\l/MaterialMappingOptions.hpp">
<polygon fill="none" stroke="#000000" points="482,-174.5 482,-230.5 701,-230.5 701,-174.5 482,-174.5"/>
<text text-anchor="start" x="490" y="-217.5" font-family="FreeSans" font-size="10.00" fill="#000000">acts/blob/sPHENIX/Examples</text>
<text text-anchor="start" x="490" y="-205.5" font-family="FreeSans" font-size="10.00" fill="#000000">/Algorithms/MaterialMapping</text>
<text text-anchor="start" x="490" y="-193.5" font-family="FreeSans" font-size="10.00" fill="#000000">/include/ActsExamples/MaterialMapping</text>
<text text-anchor="middle" x="591.5" y="-181.5" font-family="FreeSans" font-size="10.00" fill="#000000">/MaterialMappingOptions.hpp</text>
</a>
</g>
</g>
<!-- Node1&#45;&gt;Node4 -->
<g id="edge3" class="edge">
<title>Node1&#45;&gt;Node4</title>
<path fill="none" stroke="#191970" d="M1969.5465,-287.6229C1692.6845,-282.2918 952.2753,-265.1859 709.5,-231 706.787,-230.618 704.0452,-230.2013 701.2846,-229.7543"/>
<polygon fill="#191970" stroke="#191970" points="1969.5315,-291.1232 1979.5966,-287.8152 1969.6654,-284.1245 1969.5315,-291.1232"/>
</g>
<!-- Node6 -->
<g id="node6" class="node">
<title>Node6</title>
<g id="a_node6"><a xlink:href="../../da/d82/PropagationOptions_8hpp.html" target="_top" xlink:title="acts/blob/sPHENIX/Examples\l/Algorithms/Propagation\l/include/ActsExamples/Propagation\l/PropagationOptions.hpp">
<polygon fill="none" stroke="#000000" points="719,-174.5 719,-230.5 914,-230.5 914,-174.5 719,-174.5"/>
<text text-anchor="start" x="727" y="-217.5" font-family="FreeSans" font-size="10.00" fill="#000000">acts/blob/sPHENIX/Examples</text>
<text text-anchor="start" x="727" y="-205.5" font-family="FreeSans" font-size="10.00" fill="#000000">/Algorithms/Propagation</text>
<text text-anchor="start" x="727" y="-193.5" font-family="FreeSans" font-size="10.00" fill="#000000">/include/ActsExamples/Propagation</text>
<text text-anchor="middle" x="816.5" y="-181.5" font-family="FreeSans" font-size="10.00" fill="#000000">/PropagationOptions.hpp</text>
</a>
</g>
</g>
<!-- Node1&#45;&gt;Node6 -->
<g id="edge5" class="edge">
<title>Node1&#45;&gt;Node6</title>
<path fill="none" stroke="#191970" d="M1969.3215,-286.8453C1724.3946,-280.2754 1125.634,-261.543 926.5,-231 922.4051,-230.3719 918.2417,-229.6551 914.0488,-228.8683"/>
<polygon fill="#191970" stroke="#191970" points="1969.5645,-290.3529 1979.6543,-287.1208 1969.7512,-283.3554 1969.5645,-290.3529"/>
</g>
<!-- Node9 -->
<g id="node9" class="node">
<title>Node9</title>
<g id="a_node9"><a xlink:href="../../de/d33/ParticleSelector_8cpp.html" target="_top" xlink:title="acts/blob/sPHENIX/Examples\l/Algorithms/TruthTracking\l/ActsExamples/TruthTracking\l/ParticleSelector.cpp">
<polygon fill="none" stroke="#000000" points="935.5,-174.5 935.5,-230.5 1097.5,-230.5 1097.5,-174.5 935.5,-174.5"/>
<text text-anchor="start" x="943.5" y="-217.5" font-family="FreeSans" font-size="10.00" fill="#000000">acts/blob/sPHENIX/Examples</text>
<text text-anchor="start" x="943.5" y="-205.5" font-family="FreeSans" font-size="10.00" fill="#000000">/Algorithms/TruthTracking</text>
<text text-anchor="start" x="943.5" y="-193.5" font-family="FreeSans" font-size="10.00" fill="#000000">/ActsExamples/TruthTracking</text>
<text text-anchor="middle" x="1016.5" y="-181.5" font-family="FreeSans" font-size="10.00" fill="#000000">/ParticleSelector.cpp</text>
</a>
</g>
</g>
<!-- Node1&#45;&gt;Node9 -->
<g id="edge9" class="edge">
<title>Node1&#45;&gt;Node9</title>
<path fill="none" stroke="#191970" d="M1969.6058,-286.3983C1753.7262,-279.535 1269.4133,-261.2326 1106.5,-231 1103.5994,-230.4617 1100.6617,-229.8582 1097.7065,-229.2014"/>
<polygon fill="#191970" stroke="#191970" points="1969.575,-289.8989 1979.6805,-286.7164 1969.796,-282.9024 1969.575,-289.8989"/>
</g>
<!-- Node10 -->
<g id="node10" class="node">
<title>Node10</title>
<g id="a_node10"><a xlink:href="../../d1/df1/DD4hepDetectorOptions_8hpp.html" target="_top" xlink:title="acts/blob/sPHENIX/Examples\l/Detectors/DD4hepDetector\l/include/ActsExamples/DD4hepDetector\l/DD4hepDetectorOptions.hpp">
<polygon fill="none" stroke="#000000" points="1115.5,-174.5 1115.5,-230.5 1335.5,-230.5 1335.5,-174.5 1115.5,-174.5"/>
<text text-anchor="start" x="1123.5" y="-217.5" font-family="FreeSans" font-size="10.00" fill="#000000">acts/blob/sPHENIX/Examples</text>
<text text-anchor="start" x="1123.5" y="-205.5" font-family="FreeSans" font-size="10.00" fill="#000000">/Detectors/DD4hepDetector</text>
<text text-anchor="start" x="1123.5" y="-193.5" font-family="FreeSans" font-size="10.00" fill="#000000">/include/ActsExamples/DD4hepDetector</text>
<text text-anchor="middle" x="1225.5" y="-181.5" font-family="FreeSans" font-size="10.00" fill="#000000">/DD4hepDetectorOptions.hpp</text>
</a>
</g>
</g>
<!-- Node1&#45;&gt;Node10 -->
<g id="edge10" class="edge">
<title>Node1&#45;&gt;Node10</title>
<path fill="none" stroke="#191970" d="M1969.6649,-286.1817C1826.9455,-280.5353 1565.221,-266.0454 1344.5,-231 1341.5626,-230.5336 1338.5907,-230.033 1335.5966,-229.5033"/>
<polygon fill="#191970" stroke="#191970" points="1969.6043,-289.6819 1979.7328,-286.5731 1969.8763,-282.6872 1969.6043,-289.6819"/>
</g>
<!-- Node13 -->
<g id="node13" class="node">
<title>Node13</title>
<g id="a_node13"><a xlink:href="../../de/d49/GenericDetectorOptions_8hpp.html" target="_top" xlink:title="acts/blob/sPHENIX/Examples\l/Detectors/GenericDetector\l/include/ActsExamples/GenericDetector\l/GenericDetectorOptions.hpp">
<polygon fill="none" stroke="#000000" points="1354,-174.5 1354,-230.5 1573,-230.5 1573,-174.5 1354,-174.5"/>
<text text-anchor="start" x="1362" y="-217.5" font-family="FreeSans" font-size="10.00" fill="#000000">acts/blob/sPHENIX/Examples</text>
<text text-anchor="start" x="1362" y="-205.5" font-family="FreeSans" font-size="10.00" fill="#000000">/Detectors/GenericDetector</text>
<text text-anchor="start" x="1362" y="-193.5" font-family="FreeSans" font-size="10.00" fill="#000000">/include/ActsExamples/GenericDetector</text>
<text text-anchor="middle" x="1463.5" y="-181.5" font-family="FreeSans" font-size="10.00" fill="#000000">/GenericDetectorOptions.hpp</text>
</a>
</g>
</g>
<!-- Node1&#45;&gt;Node13 -->
<g id="edge13" class="edge">
<title>Node1&#45;&gt;Node13</title>
<path fill="none" stroke="#191970" d="M1969.6905,-280.6474C1869.2949,-271.3811 1714.4339,-254.8371 1581.5,-231 1578.6995,-230.4978 1575.8663,-229.9694 1573.0115,-229.4188"/>
<polygon fill="#191970" stroke="#191970" points="1969.561,-284.1501 1979.8385,-281.5764 1970.1992,-277.1792 1969.561,-284.1501"/>
</g>
<!-- Node17 -->
<g id="node17" class="node">
<title>Node17</title>
<g id="a_node17"><a xlink:href="../../dc/da8/BFieldOptions_8cpp.html" target="_top" xlink:title="acts/blob/sPHENIX/Examples\l/Detectors/MagneticField\l/src/BFieldOptions.cpp">
<polygon fill="none" stroke="#000000" points="1591,-180.5 1591,-224.5 1752,-224.5 1752,-180.5 1591,-180.5"/>
<text text-anchor="start" x="1599" y="-211.5" font-family="FreeSans" font-size="10.00" fill="#000000">acts/blob/sPHENIX/Examples</text>
<text text-anchor="start" x="1599" y="-199.5" font-family="FreeSans" font-size="10.00" fill="#000000">/Detectors/MagneticField</text>
<text text-anchor="middle" x="1671.5" y="-187.5" font-family="FreeSans" font-size="10.00" fill="#000000">/src/BFieldOptions.cpp</text>
</a>
</g>
</g>
<!-- Node1&#45;&gt;Node17 -->
<g id="edge17" class="edge">
<title>Node1&#45;&gt;Node17</title>
<path fill="none" stroke="#191970" d="M1969.6268,-273.0985C1908.4148,-262.7899 1830.1599,-248.1983 1761.5,-231 1753.8687,-229.0885 1745.9351,-226.8918 1738.0808,-224.5842"/>
<polygon fill="#191970" stroke="#191970" points="1969.2466,-276.5835 1979.6868,-274.7801 1970.4007,-269.6792 1969.2466,-276.5835"/>
</g>
<!-- Node18 -->
<g id="node18" class="node">
<title>Node18</title>
<g id="a_node18"><a xlink:href="../../d2/d70/TGeoDetectorOptions_8hpp.html" target="_top" xlink:title="acts/blob/sPHENIX/Examples\l/Detectors/TGeoDetector\l/include/ActsExamples/TGeoDetector\l/TGeoDetectorOptions.hpp">
<polygon fill="none" stroke="#000000" points="1770.5,-174.5 1770.5,-230.5 1976.5,-230.5 1976.5,-174.5 1770.5,-174.5"/>
<text text-anchor="start" x="1778.5" y="-217.5" font-family="FreeSans" font-size="10.00" fill="#000000">acts/blob/sPHENIX/Examples</text>
<text text-anchor="start" x="1778.5" y="-205.5" font-family="FreeSans" font-size="10.00" fill="#000000">/Detectors/TGeoDetector</text>
<text text-anchor="start" x="1778.5" y="-193.5" font-family="FreeSans" font-size="10.00" fill="#000000">/include/ActsExamples/TGeoDetector</text>
<text text-anchor="middle" x="1873.5" y="-181.5" font-family="FreeSans" font-size="10.00" fill="#000000">/TGeoDetectorOptions.hpp</text>
</a>
</g>
</g>
<!-- Node1&#45;&gt;Node18 -->
<g id="edge18" class="edge">
<title>Node1&#45;&gt;Node18</title>
<path fill="none" stroke="#191970" d="M2014.9186,-263.408C1990.9229,-253.0732 1963.282,-241.1685 1938.8384,-230.6408"/>
<polygon fill="#191970" stroke="#191970" points="2013.6969,-266.6926 2024.2657,-267.4338 2016.4658,-260.2635 2013.6969,-266.6926"/>
</g>
<!-- Node21 -->
<g id="node21" class="node">
<title>Node21</title>
<g id="a_node21"><a xlink:href="../../d8/df8/Options_8cpp.html" target="_top" xlink:title="acts/blob/sPHENIX/Examples\l/Framework/src/Utilities\l/Options.cpp">
<polygon fill="none" stroke="#000000" points="1995,-180.5 1995,-224.5 2156,-224.5 2156,-180.5 1995,-180.5"/>
<text text-anchor="start" x="2003" y="-211.5" font-family="FreeSans" font-size="10.00" fill="#000000">acts/blob/sPHENIX/Examples</text>
<text text-anchor="start" x="2003" y="-199.5" font-family="FreeSans" font-size="10.00" fill="#000000">/Framework/src/Utilities</text>
<text text-anchor="middle" x="2075.5" y="-187.5" font-family="FreeSans" font-size="10.00" fill="#000000">/Options.cpp</text>
</a>
</g>
</g>
<!-- Node1&#45;&gt;Node21 -->
<g id="edge22" class="edge">
<title>Node1&#45;&gt;Node21</title>
<path fill="none" stroke="#191970" d="M2075.5,-257.0893C2075.5,-246.2369 2075.5,-234.3979 2075.5,-224.5276"/>
<polygon fill="#191970" stroke="#191970" points="2072.0001,-257.0953 2075.5,-267.0953 2079.0001,-257.0954 2072.0001,-257.0953"/>
</g>
<!-- Node22 -->
<g id="node22" class="node">
<title>Node22</title>
<g id="a_node22"><a xlink:href="../../d5/d38/ObjWriterOptions_8hpp.html" target="_top" xlink:title="acts/blob/sPHENIX/Examples\l/Io/Obj/include/ActsExamples\l/Plugins/Obj/ObjWriterOptions.hpp">
<polygon fill="none" stroke="#000000" points="2213,-180.5 2213,-224.5 2404,-224.5 2404,-180.5 2213,-180.5"/>
<text text-anchor="start" x="2221" y="-211.5" font-family="FreeSans" font-size="10.00" fill="#000000">acts/blob/sPHENIX/Examples</text>
<text text-anchor="start" x="2221" y="-199.5" font-family="FreeSans" font-size="10.00" fill="#000000">/Io/Obj/include/ActsExamples</text>
<text text-anchor="middle" x="2308.5" y="-187.5" font-family="FreeSans" font-size="10.00" fill="#000000">/Plugins/Obj/ObjWriterOptions.hpp</text>
</a>
</g>
</g>
<!-- Node1&#45;&gt;Node22 -->
<g id="edge23" class="edge">
<title>Node1&#45;&gt;Node22</title>
<path fill="none" stroke="#191970" d="M2144.2934,-263.8132C2177.7068,-251.3369 2217.4492,-236.4975 2249.466,-224.5427"/>
<polygon fill="#191970" stroke="#191970" points="2142.7409,-260.6568 2134.5969,-267.4338 2145.1895,-267.2146 2142.7409,-260.6568"/>
</g>
<!-- Node23 -->
<g id="node23" class="node">
<title>Node23</title>
<g id="a_node23"><a xlink:href="../../d0/d8e/GeometryExampleBase_8cpp.html" target="_top" xlink:title="acts/blob/sPHENIX/Examples\l/Run/Common/src/GeometryExample\lBase.cpp">
<polygon fill="none" stroke="#000000" points="2156,-87.5 2156,-131.5 2361,-131.5 2361,-87.5 2156,-87.5"/>
<text text-anchor="start" x="2164" y="-118.5" font-family="FreeSans" font-size="10.00" fill="#000000">acts/blob/sPHENIX/Examples</text>
<text text-anchor="start" x="2164" y="-106.5" font-family="FreeSans" font-size="10.00" fill="#000000">/Run/Common/src/GeometryExample</text>
<text text-anchor="middle" x="2258.5" y="-94.5" font-family="FreeSans" font-size="10.00" fill="#000000">Base.cpp</text>
</a>
</g>
</g>
<!-- Node1&#45;&gt;Node23 -->
<g id="edge27" class="edge">
<title>Node1&#45;&gt;Node23</title>
<path fill="none" stroke="#191970" d="M2124.9033,-261.8908C2138.5517,-253.0144 2152.8097,-242.4754 2164.5,-231 2186.4056,-209.4972 2184.8488,-198.3794 2203.5,-174 2214.5879,-159.5067 2227.8385,-143.9209 2238.5552,-131.7013"/>
<polygon fill="#191970" stroke="#191970" points="2122.6427,-259.1788 2116.0555,-267.4769 2126.3797,-265.0978 2122.6427,-259.1788"/>
</g>
<!-- Node24 -->
<g id="node24" class="node">
<title>Node24</title>
<g id="a_node24"><a xlink:href="../../d4/df1/MakeActsGeometry_8cc.html" target="_top" xlink:title="Refit SvtxTracks with PHActs.">
<polygon fill="none" stroke="#000000" points="2379.5,-87.5 2379.5,-131.5 2533.5,-131.5 2533.5,-87.5 2379.5,-87.5"/>
<text text-anchor="start" x="2387.5" y="-118.5" font-family="FreeSans" font-size="10.00" fill="#000000">coresoftware/blob/master</text>
<text text-anchor="start" x="2387.5" y="-106.5" font-family="FreeSans" font-size="10.00" fill="#000000">/offline/packages/trackreco</text>
<text text-anchor="middle" x="2456.5" y="-94.5" font-family="FreeSans" font-size="10.00" fill="#000000">/MakeActsGeometry.cc</text>
</a>
</g>
</g>
<!-- Node1&#45;&gt;Node24 -->
<g id="edge34" class="edge">
<title>Node1&#45;&gt;Node24</title>
<path fill="none" stroke="#191970" d="M2181.2899,-282.6235C2266.6829,-275.0309 2378.0813,-259.8503 2412.5,-231 2442.2442,-206.068 2451.8812,-159.3465 2455.0035,-131.6713"/>
<polygon fill="#191970" stroke="#191970" points="2180.9365,-279.1409 2171.2755,-283.49 2181.54,-286.1148 2180.9365,-279.1409"/>
</g>
<!-- Node25 -->
<g id="node25" class="node">
<title>Node25</title>
<g id="a_node25"><a xlink:href="../../d4/dc0/CommonOptions_8cpp.html" target="_top" xlink:title="acts/blob/sPHENIX/Examples\l/Run/Common/src/CommonOptions.cpp">
<polygon fill="none" stroke="#000000" points="2461,-186.5 2461,-218.5 2678,-218.5 2678,-186.5 2461,-186.5"/>
<text text-anchor="start" x="2469" y="-205.5" font-family="FreeSans" font-size="10.00" fill="#000000">acts/blob/sPHENIX/Examples</text>
<text text-anchor="middle" x="2569.5" y="-193.5" font-family="FreeSans" font-size="10.00" fill="#000000">/Run/Common/src/CommonOptions.cpp</text>
</a>
</g>
</g>
<!-- Node1&#45;&gt;Node25 -->
<g id="edge26" class="edge">
<title>Node1&#45;&gt;Node25</title>
<path fill="none" stroke="#191970" d="M2181.4536,-274.843C2255.8528,-264.0509 2357.5536,-248.2946 2446.5,-231 2465.3273,-227.3393 2485.6539,-222.8515 2504.2553,-218.5296"/>
<polygon fill="#191970" stroke="#191970" points="2180.5378,-271.4388 2171.1409,-276.3325 2181.5386,-278.3669 2180.5378,-271.4388"/>
</g>
<!-- Node26 -->
<g id="node26" class="node">
<title>Node26</title>
<g id="a_node26"><a xlink:href="../../d2/d9c/BFieldAccessExample_8cpp.html" target="_top" xlink:title="acts/blob/sPHENIX/Examples\l/Run/MagneticField/BFieldAccess\lExample.cpp">
<polygon fill="none" stroke="#000000" points="2696.5,-180.5 2696.5,-224.5 2878.5,-224.5 2878.5,-180.5 2696.5,-180.5"/>
<text text-anchor="start" x="2704.5" y="-211.5" font-family="FreeSans" font-size="10.00" fill="#000000">acts/blob/sPHENIX/Examples</text>
<text text-anchor="start" x="2704.5" y="-199.5" font-family="FreeSans" font-size="10.00" fill="#000000">/Run/MagneticField/BFieldAccess</text>
<text text-anchor="middle" x="2787.5" y="-187.5" font-family="FreeSans" font-size="10.00" fill="#000000">Example.cpp</text>
</a>
</g>
</g>
<!-- Node1&#45;&gt;Node26 -->
<g id="edge28" class="edge">
<title>Node1&#45;&gt;Node26</title>
<path fill="none" stroke="#191970" d="M2181.2766,-285.2475C2303.934,-278.9672 2511.7772,-264.152 2687.5,-231 2696.8132,-229.243 2706.5123,-227.008 2716.0472,-224.5649"/>
<polygon fill="#191970" stroke="#191970" points="2180.9483,-281.7595 2171.1366,-285.7571 2181.2997,-288.7506 2180.9483,-281.7595"/>
</g>
<!-- Node27 -->
<g id="node27" class="node">
<title>Node27</title>
<g id="a_node27"><a xlink:href="../../d6/d05/BFieldWritingBase_8hpp.html" target="_top" xlink:title="acts/blob/sPHENIX/Examples\l/Run/MagneticField/BFieldWriting\lBase.hpp">
<polygon fill="none" stroke="#000000" points="2897,-180.5 2897,-224.5 3080,-224.5 3080,-180.5 2897,-180.5"/>
<text text-anchor="start" x="2905" y="-211.5" font-family="FreeSans" font-size="10.00" fill="#000000">acts/blob/sPHENIX/Examples</text>
<text text-anchor="start" x="2905" y="-199.5" font-family="FreeSans" font-size="10.00" fill="#000000">/Run/MagneticField/BFieldWriting</text>
<text text-anchor="middle" x="2988.5" y="-187.5" font-family="FreeSans" font-size="10.00" fill="#000000">Base.hpp</text>
</a>
</g>
</g>
<!-- Node1&#45;&gt;Node27 -->
<g id="edge29" class="edge">
<title>Node1&#45;&gt;Node27</title>
<path fill="none" stroke="#191970" d="M2181.3775,-284.5514C2369.5268,-275.3108 2754.8145,-254.2512 2887.5,-231 2897.1908,-229.3018 2907.2873,-227.052 2917.1871,-224.5587"/>
<polygon fill="#191970" stroke="#191970" points="2181.0124,-281.065 2171.1954,-285.0494 2181.3544,-288.0567 2181.0124,-281.065"/>
</g>
<!-- Node29 -->
<g id="node29" class="node">
<title>Node29</title>
<g id="a_node29"><a xlink:href="../../da/dc9/GenericReadCsvExample_8cpp.html" target="_top" xlink:title="acts/blob/sPHENIX/Examples\l/Run/ReadCsv/GenericReadCsvExample.cpp">
<polygon fill="none" stroke="#000000" points="3098,-186.5 3098,-218.5 3337,-218.5 3337,-186.5 3098,-186.5"/>
<text text-anchor="start" x="3106" y="-205.5" font-family="FreeSans" font-size="10.00" fill="#000000">acts/blob/sPHENIX/Examples</text>
<text text-anchor="middle" x="3217.5" y="-193.5" font-family="FreeSans" font-size="10.00" fill="#000000">/Run/ReadCsv/GenericReadCsvExample.cpp</text>
</a>
</g>
</g>
<!-- Node1&#45;&gt;Node29 -->
<g id="edge31" class="edge">
<title>Node1&#45;&gt;Node29</title>
<path fill="none" stroke="#191970" d="M2181.1647,-285.5702C2404.1559,-276.9222 2916.5267,-255.0857 3089.5,-231 3111.0342,-228.0015 3134.3148,-223.274 3155.0421,-218.5247"/>
<polygon fill="#191970" stroke="#191970" points="2180.9477,-282.0759 2171.0904,-285.9596 2181.2181,-289.0707 2180.9477,-282.0759"/>
</g>
<!-- Node30 -->
<g id="node30" class="node">
<title>Node30</title>
<g id="a_node30"><a xlink:href="../../df/dea/RecCKFTracks_8cpp.html" target="_top" xlink:title="acts/blob/sPHENIX/Examples\l/Run/Reconstruction/RecCKFTracks.cpp">
<polygon fill="none" stroke="#000000" points="3355,-186.5 3355,-218.5 3568,-218.5 3568,-186.5 3355,-186.5"/>
<text text-anchor="start" x="3363" y="-205.5" font-family="FreeSans" font-size="10.00" fill="#000000">acts/blob/sPHENIX/Examples</text>
<text text-anchor="middle" x="3461.5" y="-193.5" font-family="FreeSans" font-size="10.00" fill="#000000">/Run/Reconstruction/RecCKFTracks.cpp</text>
</a>
</g>
</g>
<!-- Node1&#45;&gt;Node30 -->
<g id="edge32" class="edge">
<title>Node1&#45;&gt;Node30</title>
<path fill="none" stroke="#191970" d="M2181.4358,-287.3099C2444.5785,-281.4375 3122.8351,-263.5379 3346.5,-231 3366.2443,-228.1277 3387.5367,-223.3403 3406.3693,-218.5015"/>
<polygon fill="#191970" stroke="#191970" points="2181.0335,-283.8179 2171.1136,-287.5389 2181.1888,-290.8162 2181.0335,-283.8179"/>
</g>
<!-- Node31 -->
<g id="node31" class="node">
<title>Node31</title>
<g id="a_node31"><a xlink:href="../../de/dcb/RecTruthTracks_8cpp.html" target="_top" xlink:title="acts/blob/sPHENIX/Examples\l/Run/Reconstruction/RecTruthTracks.cpp">
<polygon fill="none" stroke="#000000" points="3586,-186.5 3586,-218.5 3805,-218.5 3805,-186.5 3586,-186.5"/>
<text text-anchor="start" x="3594" y="-205.5" font-family="FreeSans" font-size="10.00" fill="#000000">acts/blob/sPHENIX/Examples</text>
<text text-anchor="middle" x="3695.5" y="-193.5" font-family="FreeSans" font-size="10.00" fill="#000000">/Run/Reconstruction/RecTruthTracks.cpp</text>
</a>
</g>
</g>
<!-- Node1&#45;&gt;Node31 -->
<g id="edge33" class="edge">
<title>Node1&#45;&gt;Node31</title>
<path fill="none" stroke="#191970" d="M2181.3874,-288.1021C2477.0351,-283.765 3307.3584,-268.5063 3577.5,-231 3597.7487,-228.1887 3619.5939,-223.4161 3638.9187,-218.5721"/>
<polygon fill="#191970" stroke="#191970" points="2181.0456,-284.6066 2171.0976,-288.2518 2181.1475,-291.6059 2181.0456,-284.6066"/>
</g>
<!-- Node5 -->
<g id="node5" class="node">
<title>Node5</title>
<g id="a_node5"><a xlink:href="../../de/d20/MaterialMappingBase_8cpp.html" target="_top" xlink:title="acts/blob/sPHENIX/Examples\l/Run/Common/src/MaterialMapping\lBase.cpp">
<polygon fill="none" stroke="#000000" points="276,-87.5 276,-131.5 471,-131.5 471,-87.5 276,-87.5"/>
<text text-anchor="start" x="284" y="-118.5" font-family="FreeSans" font-size="10.00" fill="#000000">acts/blob/sPHENIX/Examples</text>
<text text-anchor="start" x="284" y="-106.5" font-family="FreeSans" font-size="10.00" fill="#000000">/Run/Common/src/MaterialMapping</text>
<text text-anchor="middle" x="373.5" y="-94.5" font-family="FreeSans" font-size="10.00" fill="#000000">Base.cpp</text>
</a>
</g>
</g>
<!-- Node4&#45;&gt;Node5 -->
<g id="edge4" class="edge">
<title>Node4&#45;&gt;Node5</title>
<path fill="none" stroke="#191970" d="M516.5882,-170.5422C486.4779,-157.697 452.5087,-143.2056 425.2261,-131.5666"/>
<polygon fill="#191970" stroke="#191970" points="515.2258,-173.7661 525.7972,-174.4708 517.9726,-167.3275 515.2258,-173.7661"/>
</g>
<!-- Node6&#45;&gt;Node5 -->
<g id="edge6" class="edge">
<title>Node6&#45;&gt;Node5</title>
<path fill="none" stroke="#191970" d="M709.0992,-174.0141C606.5236,-153.0416 577.652,-158.8136 479.5,-138 470.4587,-136.0828 461.0386,-133.869 451.7078,-131.54"/>
<polygon fill="#191970" stroke="#191970" points="708.4226,-177.4482 718.9258,-176.0581 709.8482,-170.5949 708.4226,-177.4482"/>
</g>
<!-- Node7 -->
<g id="node7" class="node">
<title>Node7</title>
<g id="a_node7"><a xlink:href="../../dc/da7/MaterialValidationBase_8cpp.html" target="_top" xlink:title="acts/blob/sPHENIX/Examples\l/Run/Common/src/MaterialValidation\lBase.cpp">
<polygon fill="none" stroke="#000000" points="489,-87.5 489,-131.5 690,-131.5 690,-87.5 489,-87.5"/>
<text text-anchor="start" x="497" y="-118.5" font-family="FreeSans" font-size="10.00" fill="#000000">acts/blob/sPHENIX/Examples</text>
<text text-anchor="start" x="497" y="-106.5" font-family="FreeSans" font-size="10.00" fill="#000000">/Run/Common/src/MaterialValidation</text>
<text text-anchor="middle" x="589.5" y="-94.5" font-family="FreeSans" font-size="10.00" fill="#000000">Base.cpp</text>
</a>
</g>
</g>
<!-- Node6&#45;&gt;Node7 -->
<g id="edge7" class="edge">
<title>Node6&#45;&gt;Node7</title>
<path fill="none" stroke="#191970" d="M738.4955,-170.5422C707.1421,-157.697 671.7706,-143.2056 643.3616,-131.5666"/>
<polygon fill="#191970" stroke="#191970" points="737.5043,-173.9184 748.0847,-174.4708 740.1581,-167.4409 737.5043,-173.9184"/>
</g>
<!-- Node8 -->
<g id="node8" class="node">
<title>Node8</title>
<g id="a_node8"><a xlink:href="../../d3/d32/PropagationExampleBase_8cpp.html" target="_top" xlink:title="acts/blob/sPHENIX/Examples\l/Run/Common/src/PropagationExample\lBase.cpp">
<polygon fill="none" stroke="#000000" points="708,-87.5 708,-131.5 923,-131.5 923,-87.5 708,-87.5"/>
<text text-anchor="start" x="716" y="-118.5" font-family="FreeSans" font-size="10.00" fill="#000000">acts/blob/sPHENIX/Examples</text>
<text text-anchor="start" x="716" y="-106.5" font-family="FreeSans" font-size="10.00" fill="#000000">/Run/Common/src/PropagationExample</text>
<text text-anchor="middle" x="815.5" y="-94.5" font-family="FreeSans" font-size="10.00" fill="#000000">Base.cpp</text>
</a>
</g>
</g>
<!-- Node6&#45;&gt;Node8 -->
<g id="edge8" class="edge">
<title>Node6&#45;&gt;Node8</title>
<path fill="none" stroke="#191970" d="M816.0865,-164.0409C815.9678,-153.0068 815.8425,-141.3498 815.7383,-131.6577"/>
<polygon fill="#191970" stroke="#191970" points="812.5898,-164.3828 816.1973,-174.3446 819.5894,-164.3075 812.5898,-164.3828"/>
</g>
<!-- Node11 -->
<g id="node11" class="node">
<title>Node11</title>
<g id="a_node11"><a xlink:href="../../d3/db2/DD4hepDetector_8cpp.html" target="_top" xlink:title="acts/blob/sPHENIX/Examples\l/Detectors/DD4hepDetector\l/src/DD4hepDetector.cpp">
<polygon fill="none" stroke="#000000" points="941,-87.5 941,-131.5 1102,-131.5 1102,-87.5 941,-87.5"/>
<text text-anchor="start" x="949" y="-118.5" font-family="FreeSans" font-size="10.00" fill="#000000">acts/blob/sPHENIX/Examples</text>
<text text-anchor="start" x="949" y="-106.5" font-family="FreeSans" font-size="10.00" fill="#000000">/Detectors/DD4hepDetector</text>
<text text-anchor="middle" x="1021.5" y="-94.5" font-family="FreeSans" font-size="10.00" fill="#000000">/src/DD4hepDetector.cpp</text>
</a>
</g>
</g>
<!-- Node10&#45;&gt;Node11 -->
<g id="edge11" class="edge">
<title>Node10&#45;&gt;Node11</title>
<path fill="none" stroke="#191970" d="M1154.6695,-170.2096C1126.6748,-157.4473 1095.2147,-143.1052 1069.9042,-131.5666"/>
<polygon fill="#191970" stroke="#191970" points="1153.4657,-173.5073 1164.0166,-174.4708 1156.3694,-167.138 1153.4657,-173.5073"/>
</g>
<!-- Node12 -->
<g id="node12" class="node">
<title>Node12</title>
<g id="a_node12"><a xlink:href="../../d9/ddd/DD4hepGeantinoRecording_8cpp.html" target="_top" xlink:title="acts/blob/sPHENIX/Examples\l/Run/Geant4/DD4hep/DD4hepGeantino\lRecording.cpp">
<polygon fill="none" stroke="#000000" points="1120,-87.5 1120,-131.5 1335,-131.5 1335,-87.5 1120,-87.5"/>
<text text-anchor="start" x="1128" y="-118.5" font-family="FreeSans" font-size="10.00" fill="#000000">acts/blob/sPHENIX/Examples</text>
<text text-anchor="start" x="1128" y="-106.5" font-family="FreeSans" font-size="10.00" fill="#000000">/Run/Geant4/DD4hep/DD4hepGeantino</text>
<text text-anchor="middle" x="1227.5" y="-94.5" font-family="FreeSans" font-size="10.00" fill="#000000">Recording.cpp</text>
</a>
</g>
</g>
<!-- Node10&#45;&gt;Node12 -->
<g id="edge12" class="edge">
<title>Node10&#45;&gt;Node12</title>
<path fill="none" stroke="#191970" d="M1226.3271,-164.0409C1226.5644,-153.0068 1226.8151,-141.3498 1227.0235,-131.6577"/>
<polygon fill="#191970" stroke="#191970" points="1222.8214,-164.2716 1226.1055,-174.3446 1229.8198,-164.4222 1222.8214,-164.2716"/>
</g>
<!-- Node14 -->
<g id="node14" class="node">
<title>Node14</title>
<g id="a_node14"><a xlink:href="../../db/dc7/AlignedDetector_8cpp.html" target="_top" xlink:title="acts/blob/sPHENIX/Examples\l/Detectors/ContextualDetector\l/src/AlignedDetector.cpp">
<polygon fill="none" stroke="#000000" points="1353.5,-87.5 1353.5,-131.5 1525.5,-131.5 1525.5,-87.5 1353.5,-87.5"/>
<text text-anchor="start" x="1361.5" y="-118.5" font-family="FreeSans" font-size="10.00" fill="#000000">acts/blob/sPHENIX/Examples</text>
<text text-anchor="start" x="1361.5" y="-106.5" font-family="FreeSans" font-size="10.00" fill="#000000">/Detectors/ContextualDetector</text>
<text text-anchor="middle" x="1439.5" y="-94.5" font-family="FreeSans" font-size="10.00" fill="#000000">/src/AlignedDetector.cpp</text>
</a>
</g>
</g>
<!-- Node13&#45;&gt;Node14 -->
<g id="edge14" class="edge">
<title>Node13&#45;&gt;Node14</title>
<path fill="none" stroke="#191970" d="M1453.6631,-164.3819C1450.7896,-153.2474 1447.7451,-141.4497 1445.2181,-131.6577"/>
<polygon fill="#191970" stroke="#191970" points="1450.3463,-165.5364 1456.2341,-174.3446 1457.1242,-163.7872 1450.3463,-165.5364"/>
</g>
<!-- Node15 -->
<g id="node15" class="node">
<title>Node15</title>
<g id="a_node15"><a xlink:href="../../d4/de4/PayloadDetector_8cpp.html" target="_top" xlink:title="acts/blob/sPHENIX/Examples\l/Detectors/ContextualDetector\l/src/PayloadDetector.cpp">
<polygon fill="none" stroke="#000000" points="1543.5,-87.5 1543.5,-131.5 1715.5,-131.5 1715.5,-87.5 1543.5,-87.5"/>
<text text-anchor="start" x="1551.5" y="-118.5" font-family="FreeSans" font-size="10.00" fill="#000000">acts/blob/sPHENIX/Examples</text>
<text text-anchor="start" x="1551.5" y="-106.5" font-family="FreeSans" font-size="10.00" fill="#000000">/Detectors/ContextualDetector</text>
<text text-anchor="middle" x="1629.5" y="-94.5" font-family="FreeSans" font-size="10.00" fill="#000000">/src/PayloadDetector.cpp</text>
</a>
</g>
</g>
<!-- Node13&#45;&gt;Node15 -->
<g id="edge15" class="edge">
<title>Node13&#45;&gt;Node15</title>
<path fill="none" stroke="#191970" d="M1522.5477,-169.4191C1545.0078,-156.836 1570.0272,-142.8191 1590.217,-131.5079"/>
<polygon fill="#191970" stroke="#191970" points="1520.7694,-166.4034 1513.756,-174.3446 1524.1908,-172.5103 1520.7694,-166.4034"/>
</g>
<!-- Node16 -->
<g id="node16" class="node">
<title>Node16</title>
<g id="a_node16"><a xlink:href="../../dd/ddf/GenericDetector_8cpp.html" target="_top" xlink:title="acts/blob/sPHENIX/Examples\l/Detectors/GenericDetector\l/src/GenericDetector.cpp">
<polygon fill="none" stroke="#000000" points="1734,-87.5 1734,-131.5 1895,-131.5 1895,-87.5 1734,-87.5"/>
<text text-anchor="start" x="1742" y="-118.5" font-family="FreeSans" font-size="10.00" fill="#000000">acts/blob/sPHENIX/Examples</text>
<text text-anchor="start" x="1742" y="-106.5" font-family="FreeSans" font-size="10.00" fill="#000000">/Detectors/GenericDetector</text>
<text text-anchor="middle" x="1814.5" y="-94.5" font-family="FreeSans" font-size="10.00" fill="#000000">/src/GenericDetector.cpp</text>
</a>
</g>
</g>
<!-- Node13&#45;&gt;Node16 -->
<g id="edge16" class="edge">
<title>Node13&#45;&gt;Node16</title>
<path fill="none" stroke="#191970" d="M1583.0083,-173.3374C1644.7255,-158.2098 1710.1067,-142.0529 1724.5,-138 1731.5993,-136.001 1738.9837,-133.8241 1746.3335,-131.5937"/>
<polygon fill="#191970" stroke="#191970" points="1582.0228,-169.9753 1573.1429,-175.7545 1583.6886,-176.7742 1582.0228,-169.9753"/>
</g>
<!-- Node19 -->
<g id="node19" class="node">
<title>Node19</title>
<g id="a_node19"><a xlink:href="../../dc/dbb/BuildTGeoDetector_8hpp.html" target="_top" xlink:title="acts/blob/sPHENIX/Examples\l/Detectors/TGeoDetector\l/include/ActsExamples/TGeoDetector\l/BuildTGeoDetector.hpp">
<polygon fill="none" stroke="#000000" points="1913.5,-81.5 1913.5,-137.5 2119.5,-137.5 2119.5,-81.5 1913.5,-81.5"/>
<text text-anchor="start" x="1921.5" y="-124.5" font-family="FreeSans" font-size="10.00" fill="#000000">acts/blob/sPHENIX/Examples</text>
<text text-anchor="start" x="1921.5" y="-112.5" font-family="FreeSans" font-size="10.00" fill="#000000">/Detectors/TGeoDetector</text>
<text text-anchor="start" x="1921.5" y="-100.5" font-family="FreeSans" font-size="10.00" fill="#000000">/include/ActsExamples/TGeoDetector</text>
<text text-anchor="middle" x="2016.5" y="-88.5" font-family="FreeSans" font-size="10.00" fill="#000000">/BuildTGeoDetector.hpp</text>
</a>
</g>
</g>
<!-- Node18&#45;&gt;Node19 -->
<g id="edge19" class="edge">
<title>Node18&#45;&gt;Node19</title>
<path fill="none" stroke="#191970" d="M1925.3777,-168.7614C1941.1242,-158.5206 1958.247,-147.3848 1973.3544,-137.5597"/>
<polygon fill="#191970" stroke="#191970" points="1923.2677,-165.9585 1916.7928,-174.3446 1927.0841,-171.8267 1923.2677,-165.9585"/>
</g>
<!-- Node19&#45;&gt;Node19 -->
<g id="edge20" class="edge">
<title>Node19&#45;&gt;Node19</title>
<path fill="none" stroke="#191970" d="M2129.4146,-119.5166C2134.5182,-116.9725 2137.5,-113.6336 2137.5,-109.5 2137.5,-103.2012 2130.5763,-98.7477 2119.7716,-96.1396"/>
<polygon fill="#191970" stroke="#191970" points="2128.073,-116.2773 2119.7716,-122.8604 2130.3664,-122.891 2128.073,-116.2773"/>
</g>
<!-- Node20 -->
<g id="node20" class="node">
<title>Node20</title>
<g id="a_node20"><a xlink:href="../../db/df1/TGeoDetector_8cpp.html" target="_top" xlink:title="acts/blob/sPHENIX/Examples\l/Detectors/TGeoDetector\l/src/TGeoDetector.cpp">
<polygon fill="none" stroke="#000000" points="1936,-.5 1936,-44.5 2097,-44.5 2097,-.5 1936,-.5"/>
<text text-anchor="start" x="1944" y="-31.5" font-family="FreeSans" font-size="10.00" fill="#000000">acts/blob/sPHENIX/Examples</text>
<text text-anchor="start" x="1944" y="-19.5" font-family="FreeSans" font-size="10.00" fill="#000000">/Detectors/TGeoDetector</text>
<text text-anchor="middle" x="2016.5" y="-7.5" font-family="FreeSans" font-size="10.00" fill="#000000">/src/TGeoDetector.cpp</text>
</a>
</g>
</g>
<!-- Node19&#45;&gt;Node20 -->
<g id="edge21" class="edge">
<title>Node19&#45;&gt;Node20</title>
<path fill="none" stroke="#191970" d="M2016.5,-71.4015C2016.5,-62.2633 2016.5,-52.8021 2016.5,-44.6648"/>
<polygon fill="#191970" stroke="#191970" points="2013.0001,-71.4937 2016.5,-81.4938 2020.0001,-71.4938 2013.0001,-71.4937"/>
</g>
<!-- Node22&#45;&gt;Node23 -->
<g id="edge24" class="edge">
<title>Node22&#45;&gt;Node23</title>
<path fill="none" stroke="#191970" d="M2291.7697,-171.3816C2284.7804,-158.3816 2276.8194,-143.574 2270.4375,-131.7038"/>
<polygon fill="#191970" stroke="#191970" points="2288.8326,-173.3099 2296.6507,-180.4603 2294.998,-169.9951 2288.8326,-173.3099"/>
</g>
<!-- Node22&#45;&gt;Node24 -->
<g id="edge25" class="edge">
<title>Node22&#45;&gt;Node24</title>
<path fill="none" stroke="#191970" d="M2352.1163,-175.0924C2374.2067,-161.2113 2400.6687,-144.5832 2421.4217,-131.5425"/>
<polygon fill="#191970" stroke="#191970" points="2350.1788,-172.1762 2343.5739,-180.4603 2353.9033,-178.1032 2350.1788,-172.1762"/>
</g>
<!-- Node28 -->
<g id="node28" class="node">
<title>Node28</title>
<g id="a_node28"><a xlink:href="../../dc/d47/BFieldExample_8cpp.html" target="_top" xlink:title="acts/blob/sPHENIX/Examples\l/Run/MagneticField/BFieldExample.cpp">
<polygon fill="none" stroke="#000000" points="2882,-93.5 2882,-125.5 3095,-125.5 3095,-93.5 2882,-93.5"/>
<text text-anchor="start" x="2890" y="-112.5" font-family="FreeSans" font-size="10.00" fill="#000000">acts/blob/sPHENIX/Examples</text>
<text text-anchor="middle" x="2988.5" y="-100.5" font-family="FreeSans" font-size="10.00" fill="#000000">/Run/MagneticField/BFieldExample.cpp</text>
</a>
</g>
</g>
<!-- Node27&#45;&gt;Node28 -->
<g id="edge30" class="edge">
<title>Node27&#45;&gt;Node28</title>
<path fill="none" stroke="#191970" d="M2988.5,-170.4305C2988.5,-155.2896 2988.5,-137.8829 2988.5,-125.5617"/>
<polygon fill="#191970" stroke="#191970" points="2985.0001,-170.4603 2988.5,-180.4603 2992.0001,-170.4603 2985.0001,-170.4603"/>
</g>
</g>
</svg>
