<?xml version="1.0" encoding="UTF-8" standalone="no"?>
<!DOCTYPE svg PUBLIC "-//W3C//DTD SVG 1.1//EN"
 "http://www.w3.org/Graphics/SVG/1.1/DTD/svg11.dtd">
<!-- Generated by graphviz version 2.40.1 (20161225.0304)
 -->
<!-- Title: Acts::SingleSeedVertexFinder::findVertex Pages: 1 -->
<svg width="361pt" height="92pt"
 viewBox="0.00 0.00 361.00 92.00" xmlns="http://www.w3.org/2000/svg" xmlns:xlink="http://www.w3.org/1999/xlink">
<g id="graph0" class="graph" transform="scale(1 1) rotate(0) translate(4 88)">
<title>Acts::SingleSeedVertexFinder::findVertex</title>
<!-- Node1 -->
<g id="node1" class="node">
<title>Node1</title>
<polygon fill="#bfbfbf" stroke="#000000" points="0,-31.5 0,-63.5 166,-63.5 166,-31.5 0,-31.5"/>
<text text-anchor="start" x="8" y="-50.5" font-family="FreeSans" font-size="10.00" fill="#000000">Acts::SingleSeedVertexFinder</text>
<text text-anchor="middle" x="83" y="-38.5" font-family="FreeSans" font-size="10.00" fill="#000000">::findVertex</text>
</g>
<!-- Node2 -->
<g id="node2" class="node">
<title>Node2</title>
<g id="a_node2"><a xlink:href="../../da/dc3/SingleSeedVertexFinderTests_8cpp.html#a3121341e2f28672a7e9b9b53cf8adedd" target="_top" xlink:title="Unit test for SingleSeedVertexFinder. Fits a set of the spacepoints with planes and compare the resul...">
<polygon fill="none" stroke="#000000" points="204,-63.5 204,-83.5 351,-83.5 351,-63.5 204,-63.5"/>
<text text-anchor="middle" x="277.5" y="-70.5" font-family="FreeSans" font-size="10.00" fill="#000000">BOOST_AUTO_TEST_CASE</text>
</a>
</g>
</g>
<!-- Node1&#45;&gt;Node2 -->
<g id="edge1" class="edge">
<title>Node1&#45;&gt;Node2</title>
<path fill="none" stroke="#191970" d="M176.1401,-59.9506C185.4724,-61.1981 194.8552,-62.4524 203.9441,-63.6673"/>
<polygon fill="#191970" stroke="#191970" points="176.4253,-56.4577 166.0497,-58.6018 175.4977,-63.396 176.4253,-56.4577"/>
</g>
<!-- Node3 -->
<g id="node3" class="node">
<title>Node3</title>
<g id="a_node3"><a xlink:href="../../d1/dc0/exceptionActsExamples_1_1SingleSeedVertexFinderAlgorithm.html#af25d00e448c21f26e3628f809b243e4f" target="_top" xlink:title="Find a vertex using spacepoints.">
<polygon fill="none" stroke="#000000" points="202,-.5 202,-44.5 353,-44.5 353,-.5 202,-.5"/>
<text text-anchor="start" x="210" y="-31.5" font-family="FreeSans" font-size="10.00" fill="#000000">ActsExamples::SingleSeed</text>
<text text-anchor="start" x="210" y="-19.5" font-family="FreeSans" font-size="10.00" fill="#000000">VertexFinderAlgorithm</text>
<text text-anchor="middle" x="277.5" y="-7.5" font-family="FreeSans" font-size="10.00" fill="#000000">::execute</text>
</a>
</g>
</g>
<!-- Node1&#45;&gt;Node3 -->
<g id="edge2" class="edge">
<title>Node1&#45;&gt;Node3</title>
<path fill="none" stroke="#191970" d="M176.1205,-35.5308C184.7301,-34.4241 193.383,-33.312 201.8085,-32.229"/>
<polygon fill="#191970" stroke="#191970" points="175.5219,-32.0788 166.0497,-36.8252 176.4143,-39.0217 175.5219,-32.0788"/>
</g>
</g>
</svg>
