<?xml version="1.0" encoding="UTF-8" standalone="no"?>
<!DOCTYPE svg PUBLIC "-//W3C//DTD SVG 1.1//EN"
 "http://www.w3.org/Graphics/SVG/1.1/DTD/svg11.dtd">
<!-- Generated by graphviz version 2.40.1 (20161225.0304)
 -->
<!-- Title: acts/blob/sPHENIX/Core/include/Acts/Geometry/GenericApproachDescriptor.hpp Pages: 1 -->
<svg width="3029pt" height="626pt"
 viewBox="0.00 0.00 3029.39 626.00" xmlns="http://www.w3.org/2000/svg" xmlns:xlink="http://www.w3.org/1999/xlink">
<g id="graph0" class="graph" transform="scale(1 1) rotate(0) translate(4 622)">
<title>acts/blob/sPHENIX/Core/include/Acts/Geometry/GenericApproachDescriptor.hpp</title>
<!-- Node1 -->
<g id="node1" class="node">
<title>Node1</title>
<polygon fill="#bfbfbf" stroke="#000000" points="410.6664,-573.5 410.6664,-617.5 592.6664,-617.5 592.6664,-573.5 410.6664,-573.5"/>
<text text-anchor="start" x="418.6664" y="-604.5" font-family="FreeSans" font-size="10.00" fill="#000000">acts/blob/sPHENIX/Core</text>
<text text-anchor="start" x="418.6664" y="-592.5" font-family="FreeSans" font-size="10.00" fill="#000000">/include/Acts/Geometry</text>
<text text-anchor="middle" x="501.6664" y="-580.5" font-family="FreeSans" font-size="10.00" fill="#000000">/GenericApproachDescriptor.hpp</text>
</g>
<!-- Node2 -->
<g id="node2" class="node">
<title>Node2</title>
<g id="a_node2"><a xlink:href="../../d1/d33/ApproachDescriptor_8hpp.html" target="_top" xlink:title="Acts/Geometry/ApproachDescriptor.hpp">
<polygon fill="none" stroke="#000000" points="176.6664,-378.5 176.6664,-398.5 394.6664,-398.5 394.6664,-378.5 176.6664,-378.5"/>
<text text-anchor="middle" x="285.6664" y="-385.5" font-family="FreeSans" font-size="10.00" fill="#000000">Acts/Geometry/ApproachDescriptor.hpp</text>
</a>
</g>
</g>
<!-- Node1&#45;&gt;Node2 -->
<g id="edge1" class="edge">
<title>Node1&#45;&gt;Node2</title>
<path fill="none" stroke="#191970" d="M460.3471,-573.3504C443.4732,-563.3547 424.2936,-550.7136 408.6664,-537 362.3489,-496.3543 319.0451,-437.3811 298.369,-407.4529"/>
<polygon fill="#191970" stroke="#191970" points="301.0034,-405.104 292.4759,-398.8165 295.2213,-409.0495 301.0034,-405.104"/>
</g>
<!-- Node3 -->
<g id="node3" class="node">
<title>Node3</title>
<g id="a_node3"><a xlink:href="../../d1/db8/GeometryContext_8hpp.html" target="_top" xlink:title="Acts/Geometry/GeometryContext.hpp">
<polygon fill="none" stroke="#000000" points="20.6664,-321.5 20.6664,-341.5 228.6664,-341.5 228.6664,-321.5 20.6664,-321.5"/>
<text text-anchor="middle" x="124.6664" y="-328.5" font-family="FreeSans" font-size="10.00" fill="#000000">Acts/Geometry/GeometryContext.hpp</text>
</a>
</g>
</g>
<!-- Node1&#45;&gt;Node3 -->
<g id="edge117" class="edge">
<title>Node1&#45;&gt;Node3</title>
<path fill="none" stroke="#191970" d="M410.3973,-576.2194C320.4884,-551.8426 187.9728,-500.2174 126.6664,-399 118.1355,-384.9155 118.3635,-365.9675 120.3071,-351.7323"/>
<polygon fill="#191970" stroke="#191970" points="123.8199,-351.9634 122.0992,-341.5092 116.9251,-350.7547 123.8199,-351.9634"/>
</g>
<!-- Node7 -->
<g id="node7" class="node">
<title>Node7</title>
<g id="a_node7"><a xlink:href="../../db/d8d/Intersection_8hpp.html" target="_top" xlink:title="Acts/Utilities/Intersection.hpp">
<polygon fill="none" stroke="#000000" points="1670.6664,-321.5 1670.6664,-341.5 1836.6664,-341.5 1836.6664,-321.5 1670.6664,-321.5"/>
<text text-anchor="middle" x="1753.6664" y="-328.5" font-family="FreeSans" font-size="10.00" fill="#000000">Acts/Utilities/Intersection.hpp</text>
</a>
</g>
</g>
<!-- Node1&#45;&gt;Node7 -->
<g id="edge119" class="edge">
<title>Node1&#45;&gt;Node7</title>
<path fill="none" stroke="#191970" d="M592.9344,-582.3489C732.6857,-561.6183 1007.7869,-518.466 1238.6664,-468 1415.0794,-429.4393 1621.9308,-370.3084 1710.2009,-344.4064"/>
<polygon fill="#191970" stroke="#191970" points="1711.2635,-347.7422 1719.8696,-341.5628 1709.2884,-341.0266 1711.2635,-347.7422"/>
</g>
<!-- Node10 -->
<g id="node10" class="node">
<title>Node10</title>
<g id="a_node10"><a xlink:href="../../d4/d5f/BoundarySurfaceT_8hpp.html" target="_top" xlink:title="Acts/Geometry/BoundarySurface\lT.hpp">
<polygon fill="none" stroke="#000000" points="489.1664,-504.5 489.1664,-536.5 672.1664,-536.5 672.1664,-504.5 489.1664,-504.5"/>
<text text-anchor="start" x="497.1664" y="-523.5" font-family="FreeSans" font-size="10.00" fill="#000000">Acts/Geometry/BoundarySurface</text>
<text text-anchor="middle" x="580.6664" y="-511.5" font-family="FreeSans" font-size="10.00" fill="#000000">T.hpp</text>
</a>
</g>
</g>
<!-- Node1&#45;&gt;Node10 -->
<g id="edge10" class="edge">
<title>Node1&#45;&gt;Node10</title>
<path fill="none" stroke="#191970" d="M524.9417,-573.4032C534.8068,-564.0376 546.3061,-553.1205 556.288,-543.644"/>
<polygon fill="#191970" stroke="#191970" points="558.7307,-546.1511 563.5732,-536.7277 553.9111,-541.0745 558.7307,-546.1511"/>
</g>
<!-- Node23 -->
<g id="node23" class="node">
<title>Node23</title>
<g id="a_node23"><a xlink:href="../../d9/d70/Core_2include_2Acts_2Utilities_2Helpers_8hpp.html" target="_top" xlink:title="Acts/Utilities/Helpers.hpp">
<polygon fill="none" stroke="#000000" points="1062.1664,-189.5 1062.1664,-209.5 1207.1664,-209.5 1207.1664,-189.5 1062.1664,-189.5"/>
<text text-anchor="middle" x="1134.6664" y="-196.5" font-family="FreeSans" font-size="10.00" fill="#000000">Acts/Utilities/Helpers.hpp</text>
</a>
</g>
</g>
<!-- Node1&#45;&gt;Node23 -->
<g id="edge118" class="edge">
<title>Node1&#45;&gt;Node23</title>
<path fill="none" stroke="#191970" d="M489.4812,-573.2596C472.9508,-539.7365 448.8166,-475.847 479.6664,-435 570.7292,-314.4273 664.3948,-392.8825 806.6664,-342 919.1266,-301.7793 1047.7843,-241.5399 1104.7927,-214.0795"/>
<polygon fill="#191970" stroke="#191970" points="1106.4702,-217.1562 1113.9503,-209.653 1103.4237,-210.8538 1106.4702,-217.1562"/>
</g>
<!-- Node45 -->
<g id="node45" class="node">
<title>Node45</title>
<polygon fill="none" stroke="#bfbfbf" points="2086.1664,-321.5 2086.1664,-341.5 2151.1664,-341.5 2151.1664,-321.5 2086.1664,-321.5"/>
<text text-anchor="middle" x="2118.6664" y="-328.5" font-family="FreeSans" font-size="10.00" fill="#000000">algorithm</text>
</g>
<!-- Node1&#45;&gt;Node45 -->
<g id="edge120" class="edge">
<title>Node1&#45;&gt;Node45</title>
<path fill="none" stroke="#191970" d="M592.8726,-586.1029C690.3329,-575.6816 849.2504,-557.5971 985.6664,-537 1412.7615,-472.5141 1925.9986,-370.495 2075.7332,-340.2346"/>
<polygon fill="#191970" stroke="#191970" points="2076.7726,-343.5953 2085.8798,-338.1814 2075.3842,-336.7344 2076.7726,-343.5953"/>
</g>
<!-- Node2&#45;&gt;Node3 -->
<g id="edge2" class="edge">
<title>Node2&#45;&gt;Node3</title>
<path fill="none" stroke="#191970" d="M257.2534,-378.4408C231.0089,-369.1492 191.8203,-355.275 162.849,-345.0181"/>
<polygon fill="#191970" stroke="#191970" points="163.6604,-341.5925 153.0656,-341.5544 161.3242,-348.1912 163.6604,-341.5925"/>
</g>
<!-- Node5 -->
<g id="node5" class="node">
<title>Node5</title>
<g id="a_node5"><a xlink:href="../../d6/d1d/Definitions_8hpp.html" target="_top" xlink:title="Acts/Utilities/Definitions.hpp">
<polygon fill="none" stroke="#000000" points="1881.6664,-57.5 1881.6664,-77.5 2041.6664,-77.5 2041.6664,-57.5 1881.6664,-57.5"/>
<text text-anchor="middle" x="1961.6664" y="-64.5" font-family="FreeSans" font-size="10.00" fill="#000000">Acts/Utilities/Definitions.hpp</text>
</a>
</g>
</g>
<!-- Node2&#45;&gt;Node5 -->
<g id="edge4" class="edge">
<title>Node2&#45;&gt;Node5</title>
<path fill="none" stroke="#191970" d="M394.8225,-381.9575C707.3323,-362.992 1586.8435,-307.885 1644.6664,-285 1666.4163,-276.3919 1665.5437,-263.9264 1685.6664,-252 1721.6649,-230.6642 1737.7008,-238.9896 1772.6664,-216 1827.0292,-180.2569 1825.4133,-152.7622 1877.6664,-114 1894.1171,-101.7965 1914.1293,-90.5946 1930.4934,-82.2445"/>
<polygon fill="#191970" stroke="#191970" points="1932.2689,-85.27 1939.6523,-77.6716 1929.142,-79.0072 1932.2689,-85.27"/>
</g>
<!-- Node2&#45;&gt;Node7 -->
<g id="edge6" class="edge">
<title>Node2&#45;&gt;Node7</title>
<path fill="none" stroke="#191970" d="M394.7598,-385.6528C618.7653,-379.5764 1146.778,-364.07 1589.6664,-342 1612.5026,-340.862 1637.113,-339.4075 1660.149,-337.9462"/>
<polygon fill="#191970" stroke="#191970" points="1660.5058,-341.4306 1670.2614,-337.298 1660.0579,-334.445 1660.5058,-341.4306"/>
</g>
<!-- Node9 -->
<g id="node9" class="node">
<title>Node9</title>
<polygon fill="none" stroke="#bfbfbf" points="509.1664,-57.5 509.1664,-77.5 558.1664,-77.5 558.1664,-57.5 509.1664,-57.5"/>
<text text-anchor="middle" x="533.6664" y="-64.5" font-family="FreeSans" font-size="10.00" fill="#000000">vector</text>
</g>
<!-- Node2&#45;&gt;Node9 -->
<g id="edge9" class="edge">
<title>Node2&#45;&gt;Node9</title>
<path fill="none" stroke="#191970" d="M278.4267,-378.3654C253.0646,-342.8158 169.6011,-225.4224 166.6664,-216 153.1854,-172.7175 136.6931,-148.0105 166.6664,-114 188.4748,-89.254 411.6132,-74.2799 498.9165,-69.3297"/>
<polygon fill="#191970" stroke="#191970" points="499.317,-72.8129 509.1071,-68.7626 498.9281,-65.8237 499.317,-72.8129"/>
</g>
<!-- Node4 -->
<g id="node4" class="node">
<title>Node4</title>
<polygon fill="none" stroke="#bfbfbf" points="107.1664,-258.5 107.1664,-278.5 142.1664,-278.5 142.1664,-258.5 107.1664,-258.5"/>
<text text-anchor="middle" x="124.6664" y="-265.5" font-family="FreeSans" font-size="10.00" fill="#000000">any</text>
</g>
<!-- Node3&#45;&gt;Node4 -->
<g id="edge3" class="edge">
<title>Node3&#45;&gt;Node4</title>
<path fill="none" stroke="#191970" d="M124.6664,-321.378C124.6664,-312.7041 124.6664,-299.9355 124.6664,-289.1186"/>
<polygon fill="#191970" stroke="#191970" points="128.1665,-288.8062 124.6664,-278.8062 121.1665,-288.8062 128.1665,-288.8062"/>
</g>
<!-- Node6 -->
<g id="node6" class="node">
<title>Node6</title>
<polygon fill="none" stroke="#bfbfbf" points="1921.6664,-.5 1921.6664,-20.5 2001.6664,-20.5 2001.6664,-.5 1921.6664,-.5"/>
<text text-anchor="middle" x="1961.6664" y="-7.5" font-family="FreeSans" font-size="10.00" fill="#000000">Eigen/Dense</text>
</g>
<!-- Node5&#45;&gt;Node6 -->
<g id="edge5" class="edge">
<title>Node5&#45;&gt;Node6</title>
<path fill="none" stroke="#191970" d="M1961.6664,-57.3095C1961.6664,-49.9335 1961.6664,-39.72 1961.6664,-30.715"/>
<polygon fill="#191970" stroke="#191970" points="1965.1665,-30.6022 1961.6664,-20.6022 1958.1665,-30.6023 1965.1665,-30.6022"/>
</g>
<!-- Node7&#45;&gt;Node5 -->
<g id="edge8" class="edge">
<title>Node7&#45;&gt;Node5</title>
<path fill="none" stroke="#191970" d="M1764.0413,-321.2963C1773.46,-311.9665 1787.6695,-297.7237 1799.6664,-285 1827.9496,-255.0031 1836.3129,-248.5108 1861.6664,-216 1896.527,-171.2981 1932.472,-114.9177 1950.2624,-86.188"/>
<polygon fill="#191970" stroke="#191970" points="1953.3108,-87.9124 1955.5718,-77.5617 1947.3495,-84.2432 1953.3108,-87.9124"/>
</g>
<!-- Node8 -->
<g id="node8" class="node">
<title>Node8</title>
<polygon fill="none" stroke="#bfbfbf" points="1889.6664,-258.5 1889.6664,-278.5 1933.6664,-278.5 1933.6664,-258.5 1889.6664,-258.5"/>
<text text-anchor="middle" x="1911.6664" y="-265.5" font-family="FreeSans" font-size="10.00" fill="#000000">limits</text>
</g>
<!-- Node7&#45;&gt;Node8 -->
<g id="edge7" class="edge">
<title>Node7&#45;&gt;Node8</title>
<path fill="none" stroke="#191970" d="M1781.4899,-321.4863C1806.352,-312.3986 1843.6827,-298.4079 1875.6664,-285 1877.4734,-284.2425 1879.3243,-283.4491 1881.1869,-282.6373"/>
<polygon fill="#191970" stroke="#191970" points="1882.7423,-285.7759 1890.4481,-278.5046 1879.8898,-279.3834 1882.7423,-285.7759"/>
</g>
<!-- Node10&#45;&gt;Node3 -->
<g id="edge13" class="edge">
<title>Node10&#45;&gt;Node3</title>
<path fill="none" stroke="#191970" d="M489.0165,-506.0201C375.4242,-486.2738 190.8998,-447.7178 142.6664,-399 130.4268,-386.6375 126.2521,-366.9376 124.9471,-352.0037"/>
<polygon fill="#191970" stroke="#191970" points="128.4272,-351.522 124.4226,-341.7131 121.4363,-351.8784 128.4272,-351.522"/>
</g>
<!-- Node10&#45;&gt;Node5 -->
<g id="edge115" class="edge">
<title>Node10&#45;&gt;Node5</title>
<path fill="none" stroke="#191970" d="M672.4265,-517.835C1072.1786,-505.9252 2651.2449,-455.6701 2865.6664,-399 2930.5215,-381.8592 3000.6664,-398.582 3000.6664,-331.5 3000.6664,-331.5 3000.6664,-331.5 3000.6664,-199.5 3000.6664,-172.4643 3101.7748,-184.2186 2843.6664,-114 2768.8313,-93.6411 2261.4309,-76.4194 2051.8985,-70.0914"/>
<polygon fill="#191970" stroke="#191970" points="2051.9474,-66.5914 2041.8467,-69.7893 2051.737,-73.5882 2051.9474,-66.5914"/>
</g>
<!-- Node11 -->
<g id="node11" class="node">
<title>Node11</title>
<g id="a_node11"><a xlink:href="../../de/d2c/BoundarySurfaceFace_8hpp.html" target="_top" xlink:title="Acts/Geometry/BoundarySurface\lFace.hpp">
<polygon fill="none" stroke="#000000" points="489.1664,-435.5 489.1664,-467.5 672.1664,-467.5 672.1664,-435.5 489.1664,-435.5"/>
<text text-anchor="start" x="497.1664" y="-454.5" font-family="FreeSans" font-size="10.00" fill="#000000">Acts/Geometry/BoundarySurface</text>
<text text-anchor="middle" x="580.6664" y="-442.5" font-family="FreeSans" font-size="10.00" fill="#000000">Face.hpp</text>
</a>
</g>
</g>
<!-- Node10&#45;&gt;Node11 -->
<g id="edge11" class="edge">
<title>Node10&#45;&gt;Node11</title>
<path fill="none" stroke="#191970" d="M580.6664,-504.4966C580.6664,-496.599 580.6664,-486.8656 580.6664,-477.9044"/>
<polygon fill="#191970" stroke="#191970" points="584.1665,-477.8957 580.6664,-467.8958 577.1665,-477.8958 584.1665,-477.8957"/>
</g>
<!-- Node13 -->
<g id="node13" class="node">
<title>Node13</title>
<g id="a_node13"><a xlink:href="../../d6/d0f/Volume_8hpp.html" target="_top" xlink:title="Acts/Geometry/Volume.hpp">
<polygon fill="none" stroke="#000000" points="1029.6664,-441.5 1029.6664,-461.5 1185.6664,-461.5 1185.6664,-441.5 1029.6664,-441.5"/>
<text text-anchor="middle" x="1107.6664" y="-448.5" font-family="FreeSans" font-size="10.00" fill="#000000">Acts/Geometry/Volume.hpp</text>
</a>
</g>
</g>
<!-- Node10&#45;&gt;Node13 -->
<g id="edge14" class="edge">
<title>Node10&#45;&gt;Node13</title>
<path fill="none" stroke="#191970" d="M672.4628,-508.4811C770.5835,-495.6342 924.9668,-475.4208 1021.0504,-462.8406"/>
<polygon fill="#191970" stroke="#191970" points="1021.5663,-466.303 1031.0272,-461.5343 1020.6575,-459.3623 1021.5663,-466.303"/>
</g>
<!-- Node32 -->
<g id="node32" class="node">
<title>Node32</title>
<polygon fill="none" stroke="#bfbfbf" points="331.6664,-120.5 331.6664,-140.5 389.6664,-140.5 389.6664,-120.5 331.6664,-120.5"/>
<text text-anchor="middle" x="360.6664" y="-127.5" font-family="FreeSans" font-size="10.00" fill="#000000">memory</text>
</g>
<!-- Node10&#45;&gt;Node32 -->
<g id="edge116" class="edge">
<title>Node10&#45;&gt;Node32</title>
<path fill="none" stroke="#191970" d="M489.0656,-512.3386C394.926,-503.1285 255.1992,-486.9373 204.6664,-468 108.7416,-432.052 60.4374,-432.0845 11.6664,-342 -58.5987,-212.214 216.5779,-153.604 321.5338,-136.2721"/>
<polygon fill="#191970" stroke="#191970" points="322.1177,-139.7232 331.4335,-134.6768 321.004,-132.8124 322.1177,-139.7232"/>
</g>
<!-- Node48 -->
<g id="node48" class="node">
<title>Node48</title>
<g id="a_node48"><a xlink:href="../../d5/d50/BinnedArray_8hpp.html" target="_top" xlink:title="Acts/Utilities/BinnedArray.hpp">
<polygon fill="none" stroke="#000000" points="1226.1664,-378.5 1226.1664,-398.5 1393.1664,-398.5 1393.1664,-378.5 1226.1664,-378.5"/>
<text text-anchor="middle" x="1309.6664" y="-385.5" font-family="FreeSans" font-size="10.00" fill="#000000">Acts/Utilities/BinnedArray.hpp</text>
</a>
</g>
</g>
<!-- Node10&#45;&gt;Node48 -->
<g id="edge96" class="edge">
<title>Node10&#45;&gt;Node48</title>
<path fill="none" stroke="#191970" d="M672.2815,-518.4202C819.3353,-514.1207 1101.0348,-501.6573 1194.6664,-468 1232.9781,-454.2283 1270.4551,-424.3737 1291.7438,-405.424"/>
<polygon fill="#191970" stroke="#191970" points="1294.2918,-407.8375 1299.33,-398.5172 1289.5792,-402.6614 1294.2918,-407.8375"/>
</g>
<!-- Node12 -->
<g id="node12" class="node">
<title>Node12</title>
<polygon fill="none" stroke="#bfbfbf" points="407.6664,-120.5 407.6664,-140.5 467.6664,-140.5 467.6664,-120.5 407.6664,-120.5"/>
<text text-anchor="middle" x="437.6664" y="-127.5" font-family="FreeSans" font-size="10.00" fill="#000000">iostream</text>
</g>
<!-- Node11&#45;&gt;Node12 -->
<g id="edge12" class="edge">
<title>Node11&#45;&gt;Node12</title>
<path fill="none" stroke="#191970" d="M532.4943,-435.4064C514.8709,-427.1809 496.3959,-415.3668 484.6664,-399 428.9035,-321.1912 431.9196,-198.7041 435.6405,-150.7267"/>
<polygon fill="#191970" stroke="#191970" points="439.134,-150.953 436.519,-140.6859 432.1606,-150.3427 439.134,-150.953"/>
</g>
<!-- Node13&#45;&gt;Node3 -->
<g id="edge15" class="edge">
<title>Node13&#45;&gt;Node3</title>
<path fill="none" stroke="#191970" d="M1029.3157,-448.0738C806.8573,-438.2233 186.1792,-409.8393 167.6664,-399 149.6665,-388.4611 137.9908,-367.0716 131.4117,-351.1809"/>
<polygon fill="#191970" stroke="#191970" points="134.6335,-349.806 127.809,-341.7018 128.0901,-352.2929 134.6335,-349.806"/>
</g>
<!-- Node13&#45;&gt;Node5 -->
<g id="edge94" class="edge">
<title>Node13&#45;&gt;Node5</title>
<path fill="none" stroke="#191970" d="M1185.9083,-450.333C1492.5341,-445.5791 2603.1459,-426.6041 2758.6664,-399 2852.6977,-382.3099 2962.6664,-427.001 2962.6664,-331.5 2962.6664,-331.5 2962.6664,-331.5 2962.6664,-199.5 2962.6664,-157.4586 3185.6787,-205.9823 2758.6664,-114 2626.2496,-85.4762 2231.4374,-73.4019 2052.0967,-69.2862"/>
<polygon fill="#191970" stroke="#191970" points="2051.976,-65.7826 2041.8994,-69.0554 2051.8176,-72.7808 2051.976,-65.7826"/>
</g>
<!-- Node14 -->
<g id="node14" class="node">
<title>Node14</title>
<g id="a_node14"><a xlink:href="../../da/de0/GeometryObject_8hpp.html" target="_top" xlink:title="Acts/Geometry/GeometryObject.hpp">
<polygon fill="none" stroke="#000000" points="1007.1664,-378.5 1007.1664,-398.5 1208.1664,-398.5 1208.1664,-378.5 1007.1664,-378.5"/>
<text text-anchor="middle" x="1107.6664" y="-385.5" font-family="FreeSans" font-size="10.00" fill="#000000">Acts/Geometry/GeometryObject.hpp</text>
</a>
</g>
</g>
<!-- Node13&#45;&gt;Node14 -->
<g id="edge16" class="edge">
<title>Node13&#45;&gt;Node14</title>
<path fill="none" stroke="#191970" d="M1107.6664,-441.378C1107.6664,-432.7041 1107.6664,-419.9355 1107.6664,-409.1186"/>
<polygon fill="#191970" stroke="#191970" points="1111.1665,-408.8062 1107.6664,-398.8062 1104.1665,-408.8062 1111.1665,-408.8062"/>
</g>
<!-- Node13&#45;&gt;Node32 -->
<g id="edge95" class="edge">
<title>Node13&#45;&gt;Node32</title>
<path fill="none" stroke="#191970" d="M1029.6235,-445.254C925.5748,-434.6673 737.4873,-407.548 590.6664,-342 583.0119,-338.5827 425.5154,-223.1083 418.6664,-216 398.9388,-195.5255 381.4046,-167.6261 370.9109,-149.3463"/>
<polygon fill="#191970" stroke="#191970" points="373.9067,-147.5326 365.9634,-140.5215 367.8008,-150.9558 373.9067,-147.5326"/>
</g>
<!-- Node35 -->
<g id="node35" class="node">
<title>Node35</title>
<g id="a_node35"><a xlink:href="../../d5/dc6/GeometryStatics_8hpp.html" target="_top" xlink:title="Acts/Geometry/GeometryStatics.hpp">
<polygon fill="none" stroke="#000000" points="2546.1664,-378.5 2546.1664,-398.5 2749.1664,-398.5 2749.1664,-378.5 2546.1664,-378.5"/>
<text text-anchor="middle" x="2647.6664" y="-385.5" font-family="FreeSans" font-size="10.00" fill="#000000">Acts/Geometry/GeometryStatics.hpp</text>
</a>
</g>
</g>
<!-- Node13&#45;&gt;Node35 -->
<g id="edge62" class="edge">
<title>Node13&#45;&gt;Node35</title>
<path fill="none" stroke="#191970" d="M1185.8863,-448.3001C1439.4616,-437.9266 2239.4789,-405.1986 2535.819,-393.0756"/>
<polygon fill="#191970" stroke="#191970" points="2536.298,-396.559 2546.1465,-392.6531 2536.0118,-389.5649 2536.298,-396.559"/>
</g>
<!-- Node36 -->
<g id="node36" class="node">
<title>Node36</title>
<g id="a_node36"><a xlink:href="../../d9/db6/BoundingBox_8hpp.html" target="_top" xlink:title="Acts/Utilities/BoundingBox.hpp">
<polygon fill="none" stroke="#000000" points="2169.1664,-378.5 2169.1664,-398.5 2342.1664,-398.5 2342.1664,-378.5 2169.1664,-378.5"/>
<text text-anchor="middle" x="2255.6664" y="-385.5" font-family="FreeSans" font-size="10.00" fill="#000000">Acts/Utilities/BoundingBox.hpp</text>
</a>
</g>
</g>
<!-- Node13&#45;&gt;Node36 -->
<g id="edge64" class="edge">
<title>Node13&#45;&gt;Node36</title>
<path fill="none" stroke="#191970" d="M1185.6705,-447.2193C1389.1993,-436.05 1935.9883,-406.0433 2158.9834,-393.8058"/>
<polygon fill="#191970" stroke="#191970" points="2159.2402,-397.297 2169.0334,-393.2542 2158.8566,-390.3076 2159.2402,-397.297"/>
</g>
<!-- Node14&#45;&gt;Node3 -->
<g id="edge17" class="edge">
<title>Node14&#45;&gt;Node3</title>
<path fill="none" stroke="#191970" d="M1007.0877,-382.6679C822.9711,-371.9917 432.895,-349.3729 239.0143,-338.1306"/>
<polygon fill="#191970" stroke="#191970" points="238.9838,-334.623 228.7979,-337.5381 238.5785,-341.6113 238.9838,-334.623"/>
</g>
<!-- Node14&#45;&gt;Node5 -->
<g id="edge60" class="edge">
<title>Node14&#45;&gt;Node5</title>
<path fill="none" stroke="#191970" d="M1208.3189,-378.6605C1211.1309,-378.4317 1213.9178,-378.211 1216.6664,-378 1356.2623,-367.2856 1711.6762,-382.6013 1845.6664,-342 1904.0771,-324.3005 1961.6664,-329.5335 1961.6664,-268.5 1961.6664,-268.5 1961.6664,-268.5 1961.6664,-199.5 1961.6664,-159.9741 1961.6664,-113.7907 1961.6664,-87.8623"/>
<polygon fill="#191970" stroke="#191970" points="1965.1665,-87.7693 1961.6664,-77.7693 1958.1665,-87.7694 1965.1665,-87.7693"/>
</g>
<!-- Node15 -->
<g id="node15" class="node">
<title>Node15</title>
<g id="a_node15"><a xlink:href="../../d5/d67/GeometryIdentifier_8hpp.html" target="_top" xlink:title="Acts/Geometry/GeometryIdentifier.hpp">
<polygon fill="none" stroke="#000000" points="1382.1664,-258.5 1382.1664,-278.5 1595.1664,-278.5 1595.1664,-258.5 1382.1664,-258.5"/>
<text text-anchor="middle" x="1488.6664" y="-265.5" font-family="FreeSans" font-size="10.00" fill="#000000">Acts/Geometry/GeometryIdentifier.hpp</text>
</a>
</g>
</g>
<!-- Node14&#45;&gt;Node15 -->
<g id="edge18" class="edge">
<title>Node14&#45;&gt;Node15</title>
<path fill="none" stroke="#191970" d="M1139.4949,-378.4753C1208.1308,-356.8577 1370.0479,-305.8602 1446.847,-281.6715"/>
<polygon fill="#191970" stroke="#191970" points="1448.1739,-284.9231 1456.6605,-278.5806 1446.0709,-278.2465 1448.1739,-284.9231"/>
</g>
<!-- Node19 -->
<g id="node19" class="node">
<title>Node19</title>
<g id="a_node19"><a xlink:href="../../db/d40/Polyhedron_8hpp.html" target="_top" xlink:title="Acts/Geometry/Polyhedron.hpp">
<polygon fill="none" stroke="#000000" points="1406.1664,-321.5 1406.1664,-341.5 1581.1664,-341.5 1581.1664,-321.5 1406.1664,-321.5"/>
<text text-anchor="middle" x="1493.6664" y="-328.5" font-family="FreeSans" font-size="10.00" fill="#000000">Acts/Geometry/Polyhedron.hpp</text>
</a>
</g>
</g>
<!-- Node14&#45;&gt;Node19 -->
<g id="edge22" class="edge">
<title>Node14&#45;&gt;Node19</title>
<path fill="none" stroke="#191970" d="M1175.7869,-378.4408C1242.9331,-368.5254 1345.4203,-353.3913 1415.7655,-343.0035"/>
<polygon fill="#191970" stroke="#191970" points="1416.5217,-346.4299 1425.9031,-341.5065 1415.499,-339.505 1416.5217,-346.4299"/>
</g>
<!-- Node21 -->
<g id="node21" class="node">
<title>Node21</title>
<g id="a_node21"><a xlink:href="../../de/d09/BinningType_8hpp.html" target="_top" xlink:title="Acts/Utilities/BinningType.hpp">
<polygon fill="none" stroke="#000000" points="561.6664,-120.5 561.6664,-140.5 729.6664,-140.5 729.6664,-120.5 561.6664,-120.5"/>
<text text-anchor="middle" x="645.6664" y="-127.5" font-family="FreeSans" font-size="10.00" fill="#000000">Acts/Utilities/BinningType.hpp</text>
</a>
</g>
</g>
<!-- Node14&#45;&gt;Node21 -->
<g id="edge59" class="edge">
<title>Node14&#45;&gt;Node21</title>
<path fill="none" stroke="#191970" d="M1093.2397,-378.3759C1047.8604,-346.8016 903.3935,-248.3418 774.6664,-183 744.9372,-167.9095 709.8097,-153.8444 683.7236,-144.078"/>
<polygon fill="#191970" stroke="#191970" points="684.7918,-140.7414 674.1987,-140.5522 682.3618,-147.306 684.7918,-140.7414"/>
</g>
<!-- Node14&#45;&gt;Node23 -->
<g id="edge61" class="edge">
<title>Node14&#45;&gt;Node23</title>
<path fill="none" stroke="#191970" d="M1109.118,-378.3385C1113.4032,-348.3421 1126.0561,-259.7717 1131.7873,-219.6534"/>
<polygon fill="#191970" stroke="#191970" points="1135.2581,-220.1062 1133.2075,-209.7117 1128.3284,-219.1162 1135.2581,-220.1062"/>
</g>
<!-- Node16 -->
<g id="node16" class="node">
<title>Node16</title>
<polygon fill="none" stroke="#bfbfbf" points="1368.1664,-189.5 1368.1664,-209.5 1419.1664,-209.5 1419.1664,-189.5 1368.1664,-189.5"/>
<text text-anchor="middle" x="1393.6664" y="-196.5" font-family="FreeSans" font-size="10.00" fill="#000000">cstdint</text>
</g>
<!-- Node15&#45;&gt;Node16 -->
<g id="edge19" class="edge">
<title>Node15&#45;&gt;Node16</title>
<path fill="none" stroke="#191970" d="M1474.6488,-258.3188C1459.2133,-247.1078 1434.1801,-228.9258 1416.0277,-215.7414"/>
<polygon fill="#191970" stroke="#191970" points="1417.8894,-212.7678 1407.7415,-209.723 1413.7757,-218.4315 1417.8894,-212.7678"/>
</g>
<!-- Node17 -->
<g id="node17" class="node">
<title>Node17</title>
<polygon fill="none" stroke="#bfbfbf" points="1226.6664,-57.5 1226.6664,-77.5 1292.6664,-77.5 1292.6664,-57.5 1226.6664,-57.5"/>
<text text-anchor="middle" x="1259.6664" y="-64.5" font-family="FreeSans" font-size="10.00" fill="#000000">functional</text>
</g>
<!-- Node15&#45;&gt;Node17 -->
<g id="edge20" class="edge">
<title>Node15&#45;&gt;Node17</title>
<path fill="none" stroke="#191970" d="M1445.1477,-258.4483C1397.4134,-245.3361 1331.012,-219.6622 1358.6664,-183 1393.7388,-136.5035 1449.594,-193.4965 1484.6664,-147 1493.4986,-135.2909 1493.9285,-125.3721 1484.6664,-114 1462.2104,-86.4286 1361.8949,-74.7068 1303.0652,-70.1311"/>
<polygon fill="#191970" stroke="#191970" points="1303.174,-66.6296 1292.943,-69.3823 1302.6575,-73.6106 1303.174,-66.6296"/>
</g>
<!-- Node18 -->
<g id="node18" class="node">
<title>Node18</title>
<polygon fill="none" stroke="#bfbfbf" points="1263.6664,-189.5 1263.6664,-209.5 1311.6664,-209.5 1311.6664,-189.5 1263.6664,-189.5"/>
<text text-anchor="middle" x="1287.6664" y="-196.5" font-family="FreeSans" font-size="10.00" fill="#000000">iosfwd</text>
</g>
<!-- Node15&#45;&gt;Node18 -->
<g id="edge21" class="edge">
<title>Node15&#45;&gt;Node18</title>
<path fill="none" stroke="#191970" d="M1453.9843,-258.4076C1420.7522,-248.4845 1369.3405,-232.47 1325.6664,-216 1323.5886,-215.2164 1321.4592,-214.3819 1319.321,-213.52"/>
<polygon fill="#191970" stroke="#191970" points="1320.5985,-210.2607 1310.0219,-209.6401 1317.9031,-216.7209 1320.5985,-210.2607"/>
</g>
<!-- Node19&#45;&gt;Node5 -->
<g id="edge54" class="edge">
<title>Node19&#45;&gt;Node5</title>
<path fill="none" stroke="#191970" d="M1550.1936,-321.4645C1619.5546,-307.0713 1738.4225,-275.4864 1823.6664,-216 1871.8265,-182.3921 1866.5989,-155.9804 1907.6664,-114 1918.0428,-103.3929 1930.5493,-92.5181 1940.9123,-83.9547"/>
<polygon fill="#191970" stroke="#191970" points="1943.1349,-86.6585 1948.6821,-77.6319 1938.7166,-81.2291 1943.1349,-86.6585"/>
</g>
<!-- Node19&#45;&gt;Node8 -->
<g id="edge57" class="edge">
<title>Node19&#45;&gt;Node8</title>
<path fill="none" stroke="#191970" d="M1581.4658,-323.9702C1676.6538,-315.2469 1822.1445,-300.127 1875.6664,-285 1878.1556,-284.2965 1880.6908,-283.4433 1883.2047,-282.4997"/>
<polygon fill="#191970" stroke="#191970" points="1884.7841,-285.6327 1892.6522,-278.5374 1882.0767,-279.1775 1884.7841,-285.6327"/>
</g>
<!-- Node19&#45;&gt;Node9 -->
<g id="edge58" class="edge">
<title>Node19&#45;&gt;Node9</title>
<path fill="none" stroke="#191970" d="M1405.9077,-329.0822C1190.3607,-322.844 649.9853,-305.2678 616.6664,-285 586.2865,-266.52 545.4237,-181.1941 535.6664,-147 530.0642,-127.3674 530.2667,-103.8895 531.4372,-87.5594"/>
<polygon fill="#191970" stroke="#191970" points="534.9292,-87.8052 532.3427,-77.531 527.9575,-87.1757 534.9292,-87.8052"/>
</g>
<!-- Node20 -->
<g id="node20" class="node">
<title>Node20</title>
<g id="a_node20"><a xlink:href="../../dc/d2a/Extent_8hpp.html" target="_top" xlink:title="Acts/Geometry/Extent.hpp">
<polygon fill="none" stroke="#ff0000" points="1174.1664,-258.5 1174.1664,-278.5 1325.1664,-278.5 1325.1664,-258.5 1174.1664,-258.5"/>
<text text-anchor="middle" x="1249.6664" y="-265.5" font-family="FreeSans" font-size="10.00" fill="#000000">Acts/Geometry/Extent.hpp</text>
</a>
</g>
</g>
<!-- Node19&#45;&gt;Node20 -->
<g id="edge23" class="edge">
<title>Node19&#45;&gt;Node20</title>
<path fill="none" stroke="#191970" d="M1454.734,-321.4478C1412.2407,-310.4762 1344.1427,-292.8935 1298.1971,-281.0305"/>
<polygon fill="#191970" stroke="#191970" points="1299.0175,-277.6276 1288.46,-278.5164 1297.2675,-284.4053 1299.0175,-277.6276"/>
</g>
<!-- Node19&#45;&gt;Node23 -->
<g id="edge55" class="edge">
<title>Node19&#45;&gt;Node23</title>
<path fill="none" stroke="#191970" d="M1458.6154,-321.4823C1433.6638,-313.5424 1399.8742,-301.1092 1372.6664,-285 1353.1283,-273.4319 1353.8053,-262.4871 1333.6664,-252 1295.8473,-232.3062 1250.0444,-219.5648 1211.9192,-211.5736"/>
<polygon fill="#191970" stroke="#191970" points="1212.3893,-208.0978 1201.8936,-209.5434 1211,-214.9585 1212.3893,-208.0978"/>
</g>
<!-- Node33 -->
<g id="node33" class="node">
<title>Node33</title>
<g id="a_node33"><a xlink:href="../../d7/d50/BoundaryCheck_8hpp.html" target="_top" xlink:title="Acts/Surfaces/BoundaryCheck.hpp">
<polygon fill="none" stroke="#ff0000" points="1475.6664,-189.5 1475.6664,-209.5 1667.6664,-209.5 1667.6664,-189.5 1475.6664,-189.5"/>
<text text-anchor="middle" x="1571.6664" y="-196.5" font-family="FreeSans" font-size="10.00" fill="#000000">Acts/Surfaces/BoundaryCheck.hpp</text>
</a>
</g>
</g>
<!-- Node19&#45;&gt;Node33 -->
<g id="edge49" class="edge">
<title>Node19&#45;&gt;Node33</title>
<path fill="none" stroke="#191970" d="M1549.334,-321.4652C1569.9816,-314.7517 1591.3508,-303.5769 1603.6664,-285 1617.6649,-263.8846 1601.7067,-235.8044 1587.7437,-217.6891"/>
<polygon fill="#191970" stroke="#191970" points="1590.2281,-215.1981 1581.1894,-209.6707 1584.8084,-219.6283 1590.2281,-215.1981"/>
</g>
<!-- Node34 -->
<g id="node34" class="node">
<title>Node34</title>
<polygon fill="none" stroke="#bfbfbf" points="2073.1664,-120.5 2073.1664,-140.5 2116.1664,-140.5 2116.1664,-120.5 2073.1664,-120.5"/>
<text text-anchor="middle" x="2094.6664" y="-127.5" font-family="FreeSans" font-size="10.00" fill="#000000">array</text>
</g>
<!-- Node19&#45;&gt;Node34 -->
<g id="edge56" class="edge">
<title>Node19&#45;&gt;Node34</title>
<path fill="none" stroke="#191970" d="M1581.3781,-325.4913C1643.4692,-319.4824 1728.0881,-307.7098 1799.6664,-285 1865.0282,-264.2624 1876.8795,-247.7361 1937.6664,-216 1983.5438,-192.0479 2036.267,-163.0231 2067.4529,-145.6964"/>
<polygon fill="#191970" stroke="#191970" points="2069.3718,-148.6341 2076.4084,-140.7133 2065.9682,-142.5172 2069.3718,-148.6341"/>
</g>
<!-- Node20&#45;&gt;Node5 -->
<g id="edge27" class="edge">
<title>Node20&#45;&gt;Node5</title>
<path fill="none" stroke="#191970" d="M1321.819,-258.4904C1338.5051,-256.2674 1356.1954,-253.9841 1372.6664,-252 1447.4408,-242.9924 1643.1555,-251.3362 1709.6664,-216 1762.0311,-188.1794 1745.7996,-146.0835 1795.6664,-114 1821.3333,-97.4863 1852.8924,-86.7504 1881.5766,-79.8094"/>
<polygon fill="#191970" stroke="#191970" points="1882.6258,-83.1596 1891.5882,-77.5094 1881.0584,-76.3374 1882.6258,-83.1596"/>
</g>
<!-- Node20&#45;&gt;Node9 -->
<g id="edge48" class="edge">
<title>Node20&#45;&gt;Node9</title>
<path fill="none" stroke="#191970" d="M1211.5147,-258.4029C1171.8165,-247.88 1107.8586,-230.8804 1052.6664,-216 998.8462,-201.4896 985.7601,-196.4547 931.6664,-183 860.9327,-165.4064 835.5147,-182.1593 771.6664,-147 753.4972,-136.9948 756.8268,-124.021 738.6664,-114 684.0249,-83.8487 610.9086,-73.2301 568.3822,-69.5028"/>
<polygon fill="#191970" stroke="#191970" points="568.5058,-66.0016 558.2593,-68.6959 567.9495,-72.9795 568.5058,-66.0016"/>
</g>
<!-- Node20&#45;&gt;Node18 -->
<g id="edge47" class="edge">
<title>Node20&#45;&gt;Node18</title>
<path fill="none" stroke="#191970" d="M1255.2734,-258.3188C1260.9986,-247.9231 1270.0247,-231.5336 1277.0965,-218.6927"/>
<polygon fill="#191970" stroke="#191970" points="1280.278,-220.1709 1282.0363,-209.723 1274.1464,-216.794 1280.278,-220.1709"/>
</g>
<!-- Node20&#45;&gt;Node21 -->
<g id="edge24" class="edge">
<title>Node20&#45;&gt;Node21</title>
<path fill="none" stroke="#191970" d="M1174.0752,-264.7162C1110.1531,-259.4073 1017.1841,-246.6506 941.6664,-216 917.6782,-206.2639 917.4561,-193.2113 893.6664,-183 862.3009,-169.5369 777.8956,-153.1142 716.2413,-142.2613"/>
<polygon fill="#191970" stroke="#191970" points="716.6221,-138.7749 706.169,-140.502 715.4176,-145.6705 716.6221,-138.7749"/>
</g>
<!-- Node20&#45;&gt;Node23 -->
<g id="edge28" class="edge">
<title>Node20&#45;&gt;Node23</title>
<path fill="none" stroke="#191970" d="M1232.6977,-258.3188C1213.6729,-246.9039 1182.6036,-228.2623 1160.5452,-215.0273"/>
<polygon fill="#191970" stroke="#191970" points="1162.0803,-211.8667 1151.7046,-209.723 1158.4788,-217.8692 1162.0803,-211.8667"/>
</g>
<!-- Node21&#45;&gt;Node9 -->
<g id="edge26" class="edge">
<title>Node21&#45;&gt;Node9</title>
<path fill="none" stroke="#191970" d="M627.6716,-120.378C609.547,-110.1829 581.3658,-94.3309 560.5823,-82.6402"/>
<polygon fill="#191970" stroke="#191970" points="562.0481,-79.4491 551.6164,-77.5969 558.6163,-85.5501 562.0481,-79.4491"/>
</g>
<!-- Node22 -->
<g id="node22" class="node">
<title>Node22</title>
<polygon fill="none" stroke="#bfbfbf" points="921.1664,-57.5 921.1664,-77.5 966.1664,-77.5 966.1664,-57.5 921.1664,-57.5"/>
<text text-anchor="middle" x="943.6664" y="-64.5" font-family="FreeSans" font-size="10.00" fill="#000000">string</text>
</g>
<!-- Node21&#45;&gt;Node22 -->
<g id="edge25" class="edge">
<title>Node21&#45;&gt;Node22</title>
<path fill="none" stroke="#191970" d="M693.2149,-120.4478C754.2199,-107.5508 858.4347,-85.5188 911.1223,-74.3801"/>
<polygon fill="#191970" stroke="#191970" points="911.885,-77.7963 920.9448,-72.3036 910.437,-70.9477 911.885,-77.7963"/>
</g>
<!-- Node23&#45;&gt;Node5 -->
<g id="edge30" class="edge">
<title>Node23&#45;&gt;Node5</title>
<path fill="none" stroke="#191970" d="M1181.4916,-189.4565C1191.4515,-187.3229 1201.9064,-185.0852 1211.6664,-183 1286.7678,-166.9545 1311.9378,-181.2646 1380.6664,-147 1400.6849,-137.0198 1398.066,-122.716 1418.6664,-114 1459.2195,-96.842 1727.9248,-80.0493 1871.5245,-72.1635"/>
<polygon fill="#191970" stroke="#191970" points="1871.8482,-75.6511 1881.6426,-71.6112 1871.4667,-68.6615 1871.8482,-75.6511"/>
</g>
<!-- Node23&#45;&gt;Node9 -->
<g id="edge46" class="edge">
<title>Node23&#45;&gt;Node9</title>
<path fill="none" stroke="#191970" d="M1062.1318,-191.1161C983.2013,-181.3409 862.5295,-164.3051 819.6664,-147 795.6604,-137.308 795.5353,-124.0247 771.6664,-114 703.1011,-85.2034 615.8436,-74.0075 568.3334,-69.8333"/>
<polygon fill="#191970" stroke="#191970" points="568.5152,-66.3365 558.2612,-69.0022 567.9394,-73.3128 568.5152,-66.3365"/>
</g>
<!-- Node23&#45;&gt;Node12 -->
<g id="edge43" class="edge">
<title>Node23&#45;&gt;Node12</title>
<path fill="none" stroke="#191970" d="M1061.9532,-194.1747C951.6631,-185.8187 735.5591,-168.3547 552.6664,-147 527.762,-144.0922 499.9272,-140.1176 477.8805,-136.7981"/>
<polygon fill="#191970" stroke="#191970" points="478.2885,-133.3199 467.876,-135.277 477.2362,-140.2404 478.2885,-133.3199"/>
</g>
<!-- Node23&#45;&gt;Node21 -->
<g id="edge29" class="edge">
<title>Node23&#45;&gt;Node21</title>
<path fill="none" stroke="#191970" d="M1063.5616,-189.4668C974.1099,-176.8448 820.8628,-155.221 726.8875,-141.9607"/>
<polygon fill="#191970" stroke="#191970" points="727.2479,-138.4769 716.857,-140.5453 726.2698,-145.4083 727.2479,-138.4769"/>
</g>
<!-- Node23&#45;&gt;Node22 -->
<g id="edge45" class="edge">
<title>Node23&#45;&gt;Node22</title>
<path fill="none" stroke="#191970" d="M1062.1368,-190.492C1009.655,-182.3098 945.1701,-168.2373 928.6664,-147 915.3379,-129.8487 923.5867,-104.4074 932.2073,-86.951"/>
<polygon fill="#191970" stroke="#191970" points="935.5176,-88.1846 937.1657,-77.7188 929.3507,-84.8726 935.5176,-88.1846"/>
</g>
<!-- Node24 -->
<g id="node24" class="node">
<title>Node24</title>
<g id="a_node24"><a xlink:href="../../d8/dfd/ParameterDefinitions_8hpp.html" target="_top" xlink:title="Acts/Utilities/Parameter\lDefinitions.hpp">
<polygon fill="none" stroke="#000000" points="1531.6664,-114.5 1531.6664,-146.5 1667.6664,-146.5 1667.6664,-114.5 1531.6664,-114.5"/>
<text text-anchor="start" x="1539.6664" y="-133.5" font-family="FreeSans" font-size="10.00" fill="#000000">Acts/Utilities/Parameter</text>
<text text-anchor="middle" x="1599.6664" y="-121.5" font-family="FreeSans" font-size="10.00" fill="#000000">Definitions.hpp</text>
</a>
</g>
</g>
<!-- Node23&#45;&gt;Node24 -->
<g id="edge31" class="edge">
<title>Node23&#45;&gt;Node24</title>
<path fill="none" stroke="#191970" d="M1202.2814,-189.4668C1287.0493,-176.8883 1432.0638,-155.3701 1521.5046,-142.0982"/>
<polygon fill="#191970" stroke="#191970" points="1522.2134,-145.5314 1531.5914,-140.6015 1521.1859,-138.6072 1522.2134,-145.5314"/>
</g>
<!-- Node26 -->
<g id="node26" class="node">
<title>Node26</title>
<g id="a_node26"><a xlink:href="../../d0/d81/TypeTraits_8hpp.html" target="_top" xlink:title="Acts/Utilities/TypeTraits.hpp">
<polygon fill="none" stroke="#000000" points="937.6664,-120.5 937.6664,-140.5 1093.6664,-140.5 1093.6664,-120.5 937.6664,-120.5"/>
<text text-anchor="middle" x="1015.6664" y="-127.5" font-family="FreeSans" font-size="10.00" fill="#000000">Acts/Utilities/TypeTraits.hpp</text>
</a>
</g>
</g>
<!-- Node23&#45;&gt;Node26 -->
<g id="edge34" class="edge">
<title>Node23&#45;&gt;Node26</title>
<path fill="none" stroke="#191970" d="M1117.3627,-189.4668C1097.5332,-177.969 1064.8212,-159.0016 1041.8648,-145.6907"/>
<polygon fill="#191970" stroke="#191970" points="1043.3975,-142.5336 1032.9909,-140.5453 1039.8862,-148.5893 1043.3975,-142.5336"/>
</g>
<!-- Node27 -->
<g id="node27" class="node">
<title>Node27</title>
<polygon fill="none" stroke="#bfbfbf" points="1187.1664,-120.5 1187.1664,-140.5 1232.1664,-140.5 1232.1664,-120.5 1187.1664,-120.5"/>
<text text-anchor="middle" x="1209.6664" y="-127.5" font-family="FreeSans" font-size="10.00" fill="#000000">bitset</text>
</g>
<!-- Node23&#45;&gt;Node27 -->
<g id="edge38" class="edge">
<title>Node23&#45;&gt;Node27</title>
<path fill="none" stroke="#191970" d="M1145.7329,-189.3188C1157.5865,-178.4135 1176.6095,-160.9123 1190.8283,-147.831"/>
<polygon fill="#191970" stroke="#191970" points="1193.5648,-150.0693 1198.5545,-140.723 1188.8254,-144.9178 1193.5648,-150.0693"/>
</g>
<!-- Node28 -->
<g id="node28" class="node">
<title>Node28</title>
<polygon fill="none" stroke="#bfbfbf" points="1250.1664,-120.5 1250.1664,-140.5 1303.1664,-140.5 1303.1664,-120.5 1250.1664,-120.5"/>
<text text-anchor="middle" x="1276.6664" y="-127.5" font-family="FreeSans" font-size="10.00" fill="#000000">cassert</text>
</g>
<!-- Node23&#45;&gt;Node28 -->
<g id="edge39" class="edge">
<title>Node23&#45;&gt;Node28</title>
<path fill="none" stroke="#191970" d="M1155.3144,-189.4668C1179.3971,-177.7646 1219.4037,-158.3248 1246.8542,-144.9862"/>
<polygon fill="#191970" stroke="#191970" points="1248.5287,-148.0639 1255.9934,-140.5453 1245.4693,-141.7678 1248.5287,-148.0639"/>
</g>
<!-- Node29 -->
<g id="node29" class="node">
<title>Node29</title>
<polygon fill="none" stroke="#bfbfbf" points="1427.6664,-120.5 1427.6664,-140.5 1475.6664,-140.5 1475.6664,-120.5 1427.6664,-120.5"/>
<text text-anchor="middle" x="1451.6664" y="-127.5" font-family="FreeSans" font-size="10.00" fill="#000000">cmath</text>
</g>
<!-- Node23&#45;&gt;Node29 -->
<g id="edge40" class="edge">
<title>Node23&#45;&gt;Node29</title>
<path fill="none" stroke="#191970" d="M1187.5717,-189.448C1198.8251,-187.315 1210.6382,-185.0797 1221.6664,-183 1306.983,-166.9112 1330.6597,-172.4495 1413.6664,-147 1416.1333,-146.2437 1418.655,-145.3753 1421.1678,-144.4411"/>
<polygon fill="#191970" stroke="#191970" points="1422.7116,-147.5926 1430.6798,-140.6099 1420.0963,-141.0995 1422.7116,-147.5926"/>
</g>
<!-- Node30 -->
<g id="node30" class="node">
<title>Node30</title>
<polygon fill="none" stroke="#bfbfbf" points="1321.6664,-120.5 1321.6664,-140.5 1371.6664,-140.5 1371.6664,-120.5 1321.6664,-120.5"/>
<text text-anchor="middle" x="1346.6664" y="-127.5" font-family="FreeSans" font-size="10.00" fill="#000000">cstdlib</text>
</g>
<!-- Node23&#45;&gt;Node30 -->
<g id="edge41" class="edge">
<title>Node23&#45;&gt;Node30</title>
<path fill="none" stroke="#191970" d="M1174.9616,-189.4243C1211.218,-179.9181 1265.6972,-164.5362 1311.6664,-147 1313.5023,-146.2996 1315.3755,-145.5439 1317.2537,-144.7546"/>
<polygon fill="#191970" stroke="#191970" points="1318.8183,-147.8894 1326.5347,-140.6294 1315.9751,-141.4929 1318.8183,-147.8894"/>
</g>
<!-- Node31 -->
<g id="node31" class="node">
<title>Node31</title>
<polygon fill="none" stroke="#bfbfbf" points="1112.1664,-120.5 1112.1664,-140.5 1169.1664,-140.5 1169.1664,-120.5 1112.1664,-120.5"/>
<text text-anchor="middle" x="1140.6664" y="-127.5" font-family="FreeSans" font-size="10.00" fill="#000000">iomanip</text>
</g>
<!-- Node23&#45;&gt;Node31 -->
<g id="edge42" class="edge">
<title>Node23&#45;&gt;Node31</title>
<path fill="none" stroke="#191970" d="M1135.5517,-189.3188C1136.4291,-179.2289 1137.7975,-163.4925 1138.8981,-150.8347"/>
<polygon fill="#191970" stroke="#191970" points="1142.3979,-150.9886 1139.7774,-140.723 1135.4242,-150.3821 1142.3979,-150.9886"/>
</g>
<!-- Node23&#45;&gt;Node32 -->
<g id="edge44" class="edge">
<title>Node23&#45;&gt;Node32</title>
<path fill="none" stroke="#191970" d="M1061.9789,-197.4319C901.8439,-192.3702 523.0063,-177.4845 398.6664,-147 395.6888,-146.27 392.6493,-145.3256 389.6511,-144.2586"/>
<polygon fill="#191970" stroke="#191970" points="390.9257,-140.9989 380.3406,-140.5441 388.3318,-147.5006 390.9257,-140.9989"/>
</g>
<!-- Node24&#45;&gt;Node5 -->
<g id="edge32" class="edge">
<title>Node24&#45;&gt;Node5</title>
<path fill="none" stroke="#191970" d="M1668.0895,-116.551C1672.681,-115.6708 1677.2387,-114.8129 1681.6664,-114 1751.3919,-101.199 1831.1756,-88.1006 1887.6935,-79.0816"/>
<polygon fill="#191970" stroke="#191970" points="1888.2895,-82.5309 1897.6149,-77.5022 1887.1889,-75.618 1888.2895,-82.5309"/>
</g>
<!-- Node25 -->
<g id="node25" class="node">
<title>Node25</title>
<polygon fill="none" stroke="#bfbfbf" points="1559.6664,-57.5 1559.6664,-77.5 1629.6664,-77.5 1629.6664,-57.5 1559.6664,-57.5"/>
<text text-anchor="middle" x="1594.6664" y="-64.5" font-family="FreeSans" font-size="10.00" fill="#000000">type_traits</text>
</g>
<!-- Node24&#45;&gt;Node25 -->
<g id="edge33" class="edge">
<title>Node24&#45;&gt;Node25</title>
<path fill="none" stroke="#191970" d="M1598.3787,-114.2759C1597.743,-106.2654 1596.9692,-96.5159 1596.293,-87.9952"/>
<polygon fill="#191970" stroke="#191970" points="1599.7602,-87.443 1595.48,-77.7513 1592.7822,-87.9969 1599.7602,-87.443"/>
</g>
<!-- Node26&#45;&gt;Node17 -->
<g id="edge35" class="edge">
<title>Node26&#45;&gt;Node17</title>
<path fill="none" stroke="#191970" d="M1054.5987,-120.4478C1098.7541,-109.047 1170.5565,-90.5079 1216.4225,-78.6654"/>
<polygon fill="#191970" stroke="#191970" points="1217.5534,-81.9883 1226.3608,-76.0994 1215.8034,-75.2106 1217.5534,-81.9883"/>
</g>
<!-- Node26&#45;&gt;Node22 -->
<g id="edge36" class="edge">
<title>Node26&#45;&gt;Node22</title>
<path fill="none" stroke="#191970" d="M1004.0983,-120.378C993.0375,-110.6997 976.1505,-95.9236 963.0367,-84.449"/>
<polygon fill="#191970" stroke="#191970" points="965.2755,-81.7573 955.4449,-77.8062 960.6659,-87.0253 965.2755,-81.7573"/>
</g>
<!-- Node26&#45;&gt;Node25 -->
<g id="edge37" class="edge">
<title>Node26&#45;&gt;Node25</title>
<path fill="none" stroke="#191970" d="M1064.3078,-120.4466C1076.7733,-118.0983 1090.185,-115.7695 1102.6664,-114 1266.5378,-90.7681 1462.8137,-76.1446 1549.6057,-70.3477"/>
<polygon fill="#191970" stroke="#191970" points="1549.8905,-73.8366 1559.6378,-69.6845 1549.4287,-66.8518 1549.8905,-73.8366"/>
</g>
<!-- Node33&#45;&gt;Node5 -->
<g id="edge50" class="edge">
<title>Node33&#45;&gt;Node5</title>
<path fill="none" stroke="#191970" d="M1594.8766,-189.4459C1616.6191,-179.6707 1649.7136,-163.8646 1676.6664,-147 1697.0884,-134.2217 1697.6914,-123.8715 1719.6664,-114 1767.2952,-92.6043 1824.5126,-81.0404 1871.3511,-74.7967"/>
<polygon fill="#191970" stroke="#191970" points="1872.0081,-78.2414 1881.486,-73.5065 1871.124,-71.2975 1872.0081,-78.2414"/>
</g>
<!-- Node33&#45;&gt;Node9 -->
<g id="edge53" class="edge">
<title>Node33&#45;&gt;Node9</title>
<path fill="none" stroke="#191970" d="M1510.9757,-189.4922C1494.9724,-187.1013 1477.6967,-184.7407 1461.6664,-183 1225.6253,-157.3686 1159.9955,-200.4711 928.6664,-147 890.792,-138.2454 885.1625,-124.2543 847.6664,-114 748.5835,-86.9033 627.3195,-74.6135 568.7049,-69.9338"/>
<polygon fill="#191970" stroke="#191970" points="568.7485,-66.4268 558.5088,-69.1467 568.2097,-73.4061 568.7485,-66.4268"/>
</g>
<!-- Node33&#45;&gt;Node24 -->
<g id="edge51" class="edge">
<title>Node33&#45;&gt;Node24</title>
<path fill="none" stroke="#191970" d="M1575.7979,-189.3188C1579.3276,-180.6206 1584.5601,-167.7261 1589.2272,-156.2252"/>
<polygon fill="#191970" stroke="#191970" points="1592.6088,-157.1998 1593.1259,-146.6175 1586.1225,-154.5676 1592.6088,-157.1998"/>
</g>
<!-- Node33&#45;&gt;Node29 -->
<g id="edge52" class="edge">
<title>Node33&#45;&gt;Node29</title>
<path fill="none" stroke="#191970" d="M1554.2173,-189.4668C1534.2212,-177.969 1501.2343,-159.0016 1478.0849,-145.6907"/>
<polygon fill="#191970" stroke="#191970" points="1479.5502,-142.4959 1469.1365,-140.5453 1476.0609,-148.5642 1479.5502,-142.4959"/>
</g>
<!-- Node35&#45;&gt;Node5 -->
<g id="edge63" class="edge">
<title>Node35&#45;&gt;Node5</title>
<path fill="none" stroke="#191970" d="M2739.1649,-378.4706C2795.2825,-370.8146 2860.6496,-358.7204 2883.6664,-342 2913.9293,-320.0156 2924.6664,-305.9054 2924.6664,-268.5 2924.6664,-268.5 2924.6664,-268.5 2924.6664,-199.5 2924.6664,-111.9004 2291.1192,-79.5641 2051.7697,-70.4735"/>
<polygon fill="#191970" stroke="#191970" points="2051.8271,-66.9732 2041.703,-70.096 2051.5648,-73.9683 2051.8271,-66.9732"/>
</g>
<!-- Node36&#45;&gt;Node5 -->
<g id="edge65" class="edge">
<title>Node36&#45;&gt;Node5</title>
<path fill="none" stroke="#191970" d="M2262.353,-378.037C2272.0917,-363.5177 2291.4566,-337.2203 2313.6664,-321 2346.7977,-296.8034 2367.0696,-311.1688 2398.6664,-285 2436.9664,-253.2794 2467.2467,-227.3082 2444.6664,-183 2420.9719,-136.5056 2398.2483,-133.0515 2349.6664,-114 2297.2051,-93.4272 2149.4483,-79.9738 2052.1631,-73.0629"/>
<polygon fill="#191970" stroke="#191970" points="2052.2506,-69.5606 2042.0306,-72.3538 2051.7618,-76.5435 2052.2506,-69.5606"/>
</g>
<!-- Node36&#45;&gt;Node8 -->
<g id="edge89" class="edge">
<title>Node36&#45;&gt;Node8</title>
<path fill="none" stroke="#191970" d="M2244.6198,-378.2967C2227.8114,-363.3505 2194.2112,-335.6906 2160.6664,-321 2121.9972,-304.0653 2002.3011,-283.1576 1944.1014,-273.6458"/>
<polygon fill="#191970" stroke="#191970" points="1944.4145,-270.151 1933.9833,-272.0059 1943.2945,-277.0608 1944.4145,-270.151"/>
</g>
<!-- Node36&#45;&gt;Node9 -->
<g id="edge92" class="edge">
<title>Node36&#45;&gt;Node9</title>
<path fill="none" stroke="#191970" d="M2168.9239,-387.8664C1854.8031,-385.3165 787.3239,-374.3374 637.6664,-342 573.6062,-328.1581 558.3184,-317.9523 501.6664,-285 479.9582,-272.3732 333.7481,-169.5361 322.6664,-147 316.1944,-133.8385 313.479,-125.4325 322.6664,-114 344.3647,-86.9992 444.5741,-74.7552 498.72,-70.029"/>
<polygon fill="#191970" stroke="#191970" points="499.2228,-73.4993 508.898,-69.1818 498.6422,-66.5235 499.2228,-73.4993"/>
</g>
<!-- Node36&#45;&gt;Node12 -->
<g id="edge88" class="edge">
<title>Node36&#45;&gt;Node12</title>
<path fill="none" stroke="#191970" d="M2168.9356,-387.2573C1843.706,-382.4355 711.3664,-364.1301 637.6664,-342 539.1392,-312.415 470.8447,-196.1498 447.0009,-149.7618"/>
<polygon fill="#191970" stroke="#191970" points="450.0881,-148.1102 442.4758,-140.7411 443.8312,-151.2489 450.0881,-148.1102"/>
</g>
<!-- Node36&#45;&gt;Node23 -->
<g id="edge79" class="edge">
<title>Node36&#45;&gt;Node23</title>
<path fill="none" stroke="#191970" d="M2169.088,-385.8702C1981.7348,-379.8437 1543.7487,-363.8532 1396.6664,-342 1291.6417,-326.3957 1243.2804,-356.3689 1164.6664,-285 1146.0808,-268.1273 1139.0089,-239.0696 1136.3183,-219.5727"/>
<polygon fill="#191970" stroke="#191970" points="1139.7944,-219.163 1135.2075,-209.6126 1132.8375,-219.9389 1139.7944,-219.163"/>
</g>
<!-- Node36&#45;&gt;Node34 -->
<g id="edge87" class="edge">
<title>Node36&#45;&gt;Node34</title>
<path fill="none" stroke="#191970" d="M2255.3056,-378.2126C2253.9046,-353.4231 2247.0638,-289.656 2213.6664,-252 2187.5261,-222.5265 2160.5231,-243.8568 2132.6664,-216 2114.4344,-197.7681 2104.2025,-169.2747 2099.0591,-150.2542"/>
<polygon fill="#191970" stroke="#191970" points="2102.4551,-149.4069 2096.6516,-140.543 2095.6608,-151.0914 2102.4551,-149.4069"/>
</g>
<!-- Node37 -->
<g id="node37" class="node">
<title>Node37</title>
<g id="a_node37"><a xlink:href="../../de/da5/Frustum_8hpp.html" target="_top" xlink:title="Acts/Utilities/Frustum.hpp">
<polygon fill="none" stroke="#000000" points="2463.1664,-321.5 2463.1664,-341.5 2610.1664,-341.5 2610.1664,-321.5 2463.1664,-321.5"/>
<text text-anchor="middle" x="2536.6664" y="-328.5" font-family="FreeSans" font-size="10.00" fill="#000000">Acts/Utilities/Frustum.hpp</text>
</a>
</g>
</g>
<!-- Node36&#45;&gt;Node37 -->
<g id="edge66" class="edge">
<title>Node36&#45;&gt;Node37</title>
<path fill="none" stroke="#191970" d="M2305.2567,-378.4408C2353.2625,-368.7029 2426.0829,-353.9315 2477.1833,-343.566"/>
<polygon fill="#191970" stroke="#191970" points="2477.9954,-346.9726 2487.1,-341.5544 2476.6038,-340.1123 2477.9954,-346.9726"/>
</g>
<!-- Node38 -->
<g id="node38" class="node">
<title>Node38</title>
<g id="a_node38"><a xlink:href="../../d7/dd4/IVisualization3D_8hpp.html" target="_top" xlink:title="Acts/Visualization\l/IVisualization3D.hpp">
<polygon fill="none" stroke="#000000" points="2265.6664,-252.5 2265.6664,-284.5 2389.6664,-284.5 2389.6664,-252.5 2265.6664,-252.5"/>
<text text-anchor="start" x="2273.6664" y="-271.5" font-family="FreeSans" font-size="10.00" fill="#000000">Acts/Visualization</text>
<text text-anchor="middle" x="2327.6664" y="-259.5" font-family="FreeSans" font-size="10.00" fill="#000000">/IVisualization3D.hpp</text>
</a>
</g>
</g>
<!-- Node36&#45;&gt;Node38 -->
<g id="edge85" class="edge">
<title>Node36&#45;&gt;Node38</title>
<path fill="none" stroke="#191970" d="M2257.9294,-378.3413C2261.2753,-364.6308 2268.3907,-339.7624 2279.6664,-321 2285.9007,-310.6263 2294.396,-300.5013 2302.5077,-291.9549"/>
<polygon fill="#191970" stroke="#191970" points="2305.2433,-294.1655 2309.7734,-284.588 2300.2594,-289.2501 2305.2433,-294.1655"/>
</g>
<!-- Node41 -->
<g id="node41" class="node">
<title>Node41</title>
<polygon fill="none" stroke="#bfbfbf" points="2783.1664,-258.5 2783.1664,-278.5 2840.1664,-278.5 2840.1664,-258.5 2783.1664,-258.5"/>
<text text-anchor="middle" x="2811.6664" y="-265.5" font-family="FreeSans" font-size="10.00" fill="#000000">ostream</text>
</g>
<!-- Node36&#45;&gt;Node41 -->
<g id="edge90" class="edge">
<title>Node36&#45;&gt;Node41</title>
<path fill="none" stroke="#191970" d="M2342.2418,-385.0008C2506.8157,-377.9271 2850.0779,-360.9755 2867.6664,-342 2884.8993,-323.408 2859.5193,-299.7629 2837.5682,-284.3873"/>
<polygon fill="#191970" stroke="#191970" points="2839.3733,-281.3839 2829.1156,-278.7326 2835.481,-287.202 2839.3733,-281.3839"/>
</g>
<!-- Node43 -->
<g id="node43" class="node">
<title>Node43</title>
<g id="a_node43"><a xlink:href="../../d4/db2/Ray_8hpp.html" target="_top" xlink:title="Acts/Utilities/Ray.hpp">
<polygon fill="none" stroke="#000000" points="2322.1664,-321.5 2322.1664,-341.5 2445.1664,-341.5 2445.1664,-321.5 2322.1664,-321.5"/>
<text text-anchor="middle" x="2383.6664" y="-328.5" font-family="FreeSans" font-size="10.00" fill="#000000">Acts/Utilities/Ray.hpp</text>
</a>
</g>
</g>
<!-- Node36&#45;&gt;Node43 -->
<g id="edge80" class="edge">
<title>Node36&#45;&gt;Node43</title>
<path fill="none" stroke="#191970" d="M2278.2555,-378.4408C2298.6024,-369.3801 2328.7352,-355.9615 2351.5785,-345.7891"/>
<polygon fill="#191970" stroke="#191970" points="2353.1611,-348.9158 2360.8724,-341.6504 2350.3134,-342.5212 2353.1611,-348.9158"/>
</g>
<!-- Node36&#45;&gt;Node45 -->
<g id="edge86" class="edge">
<title>Node36&#45;&gt;Node45</title>
<path fill="none" stroke="#191970" d="M2231.4889,-378.4408C2209.517,-369.2992 2176.8831,-355.7216 2152.3574,-345.5174"/>
<polygon fill="#191970" stroke="#191970" points="2153.6402,-342.2604 2143.063,-341.6504 2150.9512,-348.7233 2153.6402,-342.2604"/>
</g>
<!-- Node46 -->
<g id="node46" class="node">
<title>Node46</title>
<polygon fill="none" stroke="#bfbfbf" points="2628.6664,-321.5 2628.6664,-341.5 2670.6664,-341.5 2670.6664,-321.5 2628.6664,-321.5"/>
<text text-anchor="middle" x="2649.6664" y="-328.5" font-family="FreeSans" font-size="10.00" fill="#000000">tuple</text>
</g>
<!-- Node36&#45;&gt;Node46 -->
<g id="edge91" class="edge">
<title>Node36&#45;&gt;Node46</title>
<path fill="none" stroke="#191970" d="M2342.2582,-382.5744C2414.1918,-376.4746 2519.1686,-364.8498 2618.6103,-341.852"/>
<polygon fill="#191970" stroke="#191970" points="2619.5936,-345.2163 2628.5246,-339.5165 2617.9885,-338.4028 2619.5936,-345.2163"/>
</g>
<!-- Node47 -->
<g id="node47" class="node">
<title>Node47</title>
<g id="a_node47"><a xlink:href="../../de/d6c/BoundingBox_8ipp.html" target="_top" xlink:title="Acts/Utilities/BoundingBox.ipp">
<polygon fill="none" stroke="#000000" points="2688.6664,-321.5 2688.6664,-341.5 2858.6664,-341.5 2858.6664,-321.5 2688.6664,-321.5"/>
<text text-anchor="middle" x="2773.6664" y="-328.5" font-family="FreeSans" font-size="10.00" fill="#000000">Acts/Utilities/BoundingBox.ipp</text>
</a>
</g>
</g>
<!-- Node36&#45;&gt;Node47 -->
<g id="edge93" class="edge">
<title>Node36&#45;&gt;Node47</title>
<path fill="none" stroke="#191970" d="M2342.5608,-379.0219C2426.0097,-369.9077 2555.9345,-355.6867 2678.6591,-342.1099"/>
<polygon fill="#191970" stroke="#191970" points="2679.0585,-345.5872 2688.6128,-341.0084 2678.2885,-338.6296 2679.0585,-345.5872"/>
</g>
<!-- Node37&#45;&gt;Node5 -->
<g id="edge67" class="edge">
<title>Node37&#45;&gt;Node5</title>
<path fill="none" stroke="#191970" d="M2552.7541,-321.4212C2565.6486,-312.8144 2583.6719,-299.5455 2596.6664,-285 2620.5846,-258.2268 2628.973,-250.5677 2638.6664,-216 2653.8591,-161.8206 2615.2625,-136.4512 2563.6664,-114 2517.9911,-94.1251 2208.2677,-78.1291 2051.7809,-71.2087"/>
<polygon fill="#191970" stroke="#191970" points="2051.8434,-67.7081 2041.6995,-70.766 2051.5363,-74.7014 2051.8434,-67.7081"/>
</g>
<!-- Node37&#45;&gt;Node38 -->
<g id="edge68" class="edge">
<title>Node37&#45;&gt;Node38</title>
<path fill="none" stroke="#191970" d="M2503.0869,-321.378C2472.8986,-312.2781 2427.7592,-298.6715 2390.8304,-287.5399"/>
<polygon fill="#191970" stroke="#191970" points="2391.7281,-284.155 2381.1435,-284.6199 2389.7078,-290.8571 2391.7281,-284.155"/>
</g>
<!-- Node37&#45;&gt;Node41 -->
<g id="edge76" class="edge">
<title>Node37&#45;&gt;Node41</title>
<path fill="none" stroke="#191970" d="M2580.545,-321.4478C2633.7451,-309.2601 2722.5542,-288.9148 2773.1942,-277.3136"/>
<polygon fill="#191970" stroke="#191970" points="2774.127,-280.6907 2783.0928,-275.0459 2772.5638,-273.8674 2774.127,-280.6907"/>
</g>
<!-- Node42 -->
<g id="node42" class="node">
<title>Node42</title>
<g id="a_node42"><a xlink:href="../../d7/d3e/Frustum_8ipp.html" target="_top" xlink:title="Acts/Utilities/Frustum.ipp">
<polygon fill="none" stroke="#000000" points="2028.1664,-258.5 2028.1664,-278.5 2171.1664,-278.5 2171.1664,-258.5 2028.1664,-258.5"/>
<text text-anchor="middle" x="2099.6664" y="-265.5" font-family="FreeSans" font-size="10.00" fill="#000000">Acts/Utilities/Frustum.ipp</text>
</a>
</g>
</g>
<!-- Node37&#45;&gt;Node42 -->
<g id="edge77" class="edge">
<title>Node37&#45;&gt;Node42</title>
<path fill="none" stroke="#191970" d="M2466.9392,-321.4478C2388.5209,-310.1426 2261.4146,-291.8184 2179.1924,-279.9648"/>
<polygon fill="#191970" stroke="#191970" points="2179.5423,-276.4792 2169.1452,-278.5164 2178.5434,-283.4076 2179.5423,-276.4792"/>
</g>
<!-- Node38&#45;&gt;Node5 -->
<g id="edge69" class="edge">
<title>Node38&#45;&gt;Node5</title>
<path fill="none" stroke="#191970" d="M2333.8839,-252.0922C2344.5096,-220.9324 2361.8876,-152.844 2327.6664,-114 2309.6877,-93.5926 2154.4624,-79.796 2052.0178,-72.821"/>
<polygon fill="#191970" stroke="#191970" points="2052.1781,-69.324 2041.9663,-72.1469 2051.7096,-76.3083 2052.1781,-69.324"/>
</g>
<!-- Node38&#45;&gt;Node9 -->
<g id="edge75" class="edge">
<title>Node38&#45;&gt;Node9</title>
<path fill="none" stroke="#191970" d="M2265.5199,-260.6691C2239.3579,-257.5949 2208.5668,-254.2671 2180.6664,-252 2022.32,-239.1335 1614.4177,-274.3837 1466.6664,-216 1445.5494,-207.6556 1448.7346,-191.4668 1427.6664,-183 1188.0205,-86.6919 1086.6892,-244.844 847.6664,-147 826.9652,-138.526 829.8947,-123.5478 809.6664,-114 767.4164,-94.0578 632.9114,-77.8382 568.5852,-71.0007"/>
<polygon fill="#191970" stroke="#191970" points="568.8327,-67.5075 558.5225,-69.9469 568.1036,-74.4695 568.8327,-67.5075"/>
</g>
<!-- Node38&#45;&gt;Node22 -->
<g id="edge74" class="edge">
<title>Node38&#45;&gt;Node22</title>
<path fill="none" stroke="#191970" d="M2323.8499,-252.2534C2318.6398,-233.3377 2307.5891,-202.2387 2287.6664,-183 2231.371,-128.6376 2202.0221,-131.1538 2125.6664,-114 2122.0596,-113.1897 1167.5061,-76.1722 976.6485,-68.7775"/>
<polygon fill="#191970" stroke="#191970" points="976.5373,-65.2706 966.4093,-68.3808 976.2663,-72.2654 976.5373,-65.2706"/>
</g>
<!-- Node38&#45;&gt;Node34 -->
<g id="edge72" class="edge">
<title>Node38&#45;&gt;Node34</title>
<path fill="none" stroke="#191970" d="M2318.2049,-252.2658C2306.2192,-233.0669 2283.8193,-201.4011 2256.6664,-183 2216.2988,-155.6436 2160.7007,-141.7449 2126.2545,-135.3185"/>
<polygon fill="#191970" stroke="#191970" points="2126.7401,-131.8501 2116.2837,-133.5573 2125.5225,-138.7434 2126.7401,-131.8501"/>
</g>
<!-- Node39 -->
<g id="node39" class="node">
<title>Node39</title>
<g id="a_node39"><a xlink:href="../../d2/d68/ViewConfig_8hpp.html" target="_top" xlink:title="Acts/Visualization\l/ViewConfig.hpp">
<polygon fill="none" stroke="#000000" points="2141.6664,-183.5 2141.6664,-215.5 2247.6664,-215.5 2247.6664,-183.5 2141.6664,-183.5"/>
<text text-anchor="start" x="2149.6664" y="-202.5" font-family="FreeSans" font-size="10.00" fill="#000000">Acts/Visualization</text>
<text text-anchor="middle" x="2194.6664" y="-190.5" font-family="FreeSans" font-size="10.00" fill="#000000">/ViewConfig.hpp</text>
</a>
</g>
</g>
<!-- Node38&#45;&gt;Node39 -->
<g id="edge70" class="edge">
<title>Node38&#45;&gt;Node39</title>
<path fill="none" stroke="#191970" d="M2296.8192,-252.4966C2278.4028,-242.9422 2254.807,-230.7008 2234.9336,-220.3905"/>
<polygon fill="#191970" stroke="#191970" points="2236.2953,-217.154 2225.807,-215.6557 2233.0717,-223.3676 2236.2953,-217.154"/>
</g>
<!-- Node40 -->
<g id="node40" class="node">
<title>Node40</title>
<polygon fill="none" stroke="#bfbfbf" points="2380.1664,-189.5 2380.1664,-209.5 2435.1664,-209.5 2435.1664,-189.5 2380.1664,-189.5"/>
<text text-anchor="middle" x="2407.6664" y="-196.5" font-family="FreeSans" font-size="10.00" fill="#000000">fstream</text>
</g>
<!-- Node38&#45;&gt;Node40 -->
<g id="edge73" class="edge">
<title>Node38&#45;&gt;Node40</title>
<path fill="none" stroke="#191970" d="M2346.2211,-252.4966C2358.7918,-241.6543 2375.3747,-227.3516 2388.1445,-216.3376"/>
<polygon fill="#191970" stroke="#191970" points="2390.6185,-218.8258 2395.9051,-209.6441 2386.0466,-213.525 2390.6185,-218.8258"/>
</g>
<!-- Node39&#45;&gt;Node34 -->
<g id="edge71" class="edge">
<title>Node39&#45;&gt;Node34</title>
<path fill="none" stroke="#191970" d="M2171.473,-183.4966C2155.3105,-172.3445 2133.8424,-157.5315 2117.7123,-146.4017"/>
<polygon fill="#191970" stroke="#191970" points="2119.5865,-143.4426 2109.368,-140.6441 2115.611,-149.2042 2119.5865,-143.4426"/>
</g>
<!-- Node42&#45;&gt;Node23 -->
<g id="edge78" class="edge">
<title>Node42&#45;&gt;Node23</title>
<path fill="none" stroke="#191970" d="M2027.833,-260.1507C2001.1205,-257.2568 1970.5355,-254.1921 1942.6664,-252 1637.4131,-227.99 1559.4974,-244.8805 1254.6664,-216 1240.2928,-214.6382 1224.9978,-212.8201 1210.3096,-210.8883"/>
<polygon fill="#191970" stroke="#191970" points="1210.6336,-207.4005 1200.2565,-209.5371 1209.701,-214.3381 1210.6336,-207.4005"/>
</g>
<!-- Node43&#45;&gt;Node5 -->
<g id="edge81" class="edge">
<title>Node43&#45;&gt;Node5</title>
<path fill="none" stroke="#191970" d="M2439.3247,-321.4711C2522.2627,-303.7565 2664.1308,-261.196 2620.6664,-183 2592.4453,-132.228 2564.7981,-132.2951 2509.6664,-114 2427.1971,-86.6331 2184.9921,-74.6756 2051.8724,-70.0496"/>
<polygon fill="#191970" stroke="#191970" points="2051.8085,-66.5454 2041.6951,-69.7028 2051.5701,-73.5414 2051.8085,-66.5454"/>
</g>
<!-- Node43&#45;&gt;Node38 -->
<g id="edge82" class="edge">
<title>Node43&#45;&gt;Node38</title>
<path fill="none" stroke="#191970" d="M2374.669,-321.378C2367.7405,-313.5834 2357.8729,-302.4823 2348.9662,-292.4623"/>
<polygon fill="#191970" stroke="#191970" points="2351.3633,-289.8908 2342.1037,-284.742 2346.1314,-294.5414 2351.3633,-289.8908"/>
</g>
<!-- Node44 -->
<g id="node44" class="node">
<title>Node44</title>
<g id="a_node44"><a xlink:href="../../d7/d64/Ray_8ipp.html" target="_top" xlink:title="Acts/Utilities/Ray.ipp">
<polygon fill="none" stroke="#000000" points="2491.6664,-189.5 2491.6664,-209.5 2611.6664,-209.5 2611.6664,-189.5 2491.6664,-189.5"/>
<text text-anchor="middle" x="2551.6664" y="-196.5" font-family="FreeSans" font-size="10.00" fill="#000000">Acts/Utilities/Ray.ipp</text>
</a>
</g>
</g>
<!-- Node43&#45;&gt;Node44 -->
<g id="edge83" class="edge">
<title>Node43&#45;&gt;Node44</title>
<path fill="none" stroke="#191970" d="M2400.4789,-321.4335C2415.1621,-312.4225 2436.8523,-298.5747 2454.6664,-285 2483.7257,-262.8562 2515.0408,-234.3115 2533.9987,-216.4544"/>
<polygon fill="#191970" stroke="#191970" points="2536.4779,-218.9269 2541.3244,-209.5055 2531.6604,-213.8483 2536.4779,-218.9269"/>
</g>
<!-- Node44&#45;&gt;Node5 -->
<g id="edge84" class="edge">
<title>Node44&#45;&gt;Node5</title>
<path fill="none" stroke="#191970" d="M2546.3932,-189.3641C2536.0629,-170.6897 2511.2094,-131.1919 2477.6664,-114 2440.7928,-95.1011 2189.6697,-79.3174 2051.8259,-71.9556"/>
<polygon fill="#191970" stroke="#191970" points="2051.8664,-68.4529 2041.6952,-71.4188 2051.496,-75.4431 2051.8664,-68.4529"/>
</g>
<!-- Node48&#45;&gt;Node5 -->
<g id="edge112" class="edge">
<title>Node48&#45;&gt;Node5</title>
<path fill="none" stroke="#191970" d="M1393.2766,-387.8113C1561.9366,-385.6866 1930.7418,-377.0424 1975.6664,-342 2002.7621,-320.8645 1999.6664,-302.8641 1999.6664,-268.5 1999.6664,-268.5 1999.6664,-268.5 1999.6664,-199.5 1999.6664,-158.2096 1982.2835,-112.3898 1971.0314,-87.0555"/>
<polygon fill="#191970" stroke="#191970" points="1974.1433,-85.4448 1966.7912,-77.8161 1967.7812,-88.3646 1974.1433,-85.4448"/>
</g>
<!-- Node48&#45;&gt;Node9 -->
<g id="edge114" class="edge">
<title>Node48&#45;&gt;Node9</title>
<path fill="none" stroke="#191970" d="M1226.0364,-378.8383C1222.8742,-378.5428 1219.7424,-378.2619 1216.6664,-378 1077.8277,-366.1792 723.4209,-384.3336 590.6664,-342 447.2258,-296.2588 374.6199,-284.6667 313.6664,-147 307.7285,-133.5891 304.4298,-125.3929 313.6664,-114 336.5895,-85.7253 442.8547,-73.9694 498.8784,-69.6696"/>
<polygon fill="#191970" stroke="#191970" points="499.3293,-73.1461 509.0486,-68.9287 498.8207,-66.1646 499.3293,-73.1461"/>
</g>
<!-- Node48&#45;&gt;Node34 -->
<g id="edge113" class="edge">
<title>Node48&#45;&gt;Node34</title>
<path fill="none" stroke="#191970" d="M1393.3525,-385.7287C1553.3845,-379.974 1897.2358,-365.2911 2013.6664,-342 2016.0696,-341.5193 2179.2405,-286.9933 2180.6664,-285 2189.1994,-273.0711 2188.4448,-264.4341 2180.6664,-252 2161.2693,-220.993 2128.1763,-245.5804 2106.6664,-216 2092.8771,-197.0371 2091.4588,-169.3264 2092.4417,-150.6379"/>
<polygon fill="#191970" stroke="#191970" points="2095.9385,-150.8164 2093.2486,-140.5688 2088.9609,-150.2572 2095.9385,-150.8164"/>
</g>
<!-- Node49 -->
<g id="node49" class="node">
<title>Node49</title>
<g id="a_node49"><a xlink:href="../../d2/d0a/BinUtility_8hpp.html" target="_top" xlink:title="Acts/Utilities/BinUtility.hpp">
<polygon fill="none" stroke="#000000" points="647.1664,-321.5 647.1664,-341.5 798.1664,-341.5 798.1664,-321.5 647.1664,-321.5"/>
<text text-anchor="middle" x="722.6664" y="-328.5" font-family="FreeSans" font-size="10.00" fill="#000000">Acts/Utilities/BinUtility.hpp</text>
</a>
</g>
</g>
<!-- Node48&#45;&gt;Node49 -->
<g id="edge97" class="edge">
<title>Node48&#45;&gt;Node49</title>
<path fill="none" stroke="#191970" d="M1226.0228,-378.9822C1222.8644,-378.6464 1219.7372,-378.3178 1216.6664,-378 1073.7045,-363.2024 907.2566,-347.9416 808.6615,-339.1069"/>
<polygon fill="#191970" stroke="#191970" points="808.725,-335.5987 798.4528,-338.1934 808.1011,-342.5708 808.725,-335.5987"/>
</g>
<!-- Node49&#45;&gt;Node5 -->
<g id="edge107" class="edge">
<title>Node49&#45;&gt;Node5</title>
<path fill="none" stroke="#191970" d="M798.4651,-328.5123C1005.1201,-320.2318 1565.5384,-296.8211 1603.6664,-285 1630.5315,-276.6708 1632.6757,-264.9064 1657.6664,-252 1693.7552,-233.362 1708.6298,-239.6298 1741.6664,-216 1791.3213,-180.4838 1783.0292,-148.1012 1833.6664,-114 1856.2456,-98.7942 1884.4062,-87.8602 1908.5604,-80.4313"/>
<polygon fill="#191970" stroke="#191970" points="1909.6914,-83.7468 1918.2909,-77.5583 1907.7091,-77.0333 1909.6914,-83.7468"/>
</g>
<!-- Node49&#45;&gt;Node9 -->
<g id="edge111" class="edge">
<title>Node49&#45;&gt;Node9</title>
<path fill="none" stroke="#191970" d="M646.8734,-324.0327C548.3761,-309.576 381.9754,-267.6127 322.6664,-147 316.1944,-133.8385 313.479,-125.4325 322.6664,-114 344.3647,-86.9992 444.5741,-74.7552 498.72,-70.029"/>
<polygon fill="#191970" stroke="#191970" points="499.2228,-73.4993 508.898,-69.1818 498.6422,-66.5235 499.2228,-73.4993"/>
</g>
<!-- Node49&#45;&gt;Node12 -->
<g id="edge109" class="edge">
<title>Node49&#45;&gt;Node12</title>
<path fill="none" stroke="#191970" d="M672.0927,-321.4875C644.573,-314.378 610.8952,-302.8539 584.6664,-285 535.6486,-251.6337 540.3818,-225.1411 498.6664,-183 486.0474,-170.2523 470.7449,-157.0876 458.6235,-147.1298"/>
<polygon fill="#191970" stroke="#191970" points="460.783,-144.3748 450.8121,-140.7928 456.3729,-149.811 460.783,-144.3748"/>
</g>
<!-- Node49&#45;&gt;Node21 -->
<g id="edge106" class="edge">
<title>Node49&#45;&gt;Node21</title>
<path fill="none" stroke="#191970" d="M756.1958,-321.3836C773.6471,-314.2219 793.4292,-302.6811 803.6664,-285 811.0153,-272.3073 810.1464,-265.1575 803.6664,-252 777.8039,-199.487 717.13,-163.3215 678.9441,-144.8288"/>
<polygon fill="#191970" stroke="#191970" points="680.2942,-141.596 669.7553,-140.5088 677.3159,-147.9309 680.2942,-141.596"/>
</g>
<!-- Node49&#45;&gt;Node32 -->
<g id="edge110" class="edge">
<title>Node49&#45;&gt;Node32</title>
<path fill="none" stroke="#191970" d="M658.4625,-321.4602C623.772,-314.3801 580.9442,-302.8929 545.6664,-285 526.8654,-275.4642 423.0336,-185.2096 379.6859,-147.2218"/>
<polygon fill="#191970" stroke="#191970" points="381.9227,-144.5281 372.0974,-140.5639 377.3061,-149.79 381.9227,-144.5281"/>
</g>
<!-- Node49&#45;&gt;Node34 -->
<g id="edge108" class="edge">
<title>Node49&#45;&gt;Node34</title>
<path fill="none" stroke="#191970" d="M798.2212,-330.4971C988.8666,-327.518 1485.755,-316.8477 1647.6664,-285 1781.7265,-258.6306 1808.4299,-227.3328 1937.6664,-183 1981.2082,-168.0635 2031.7218,-151.2666 2063.4395,-140.7839"/>
<polygon fill="#191970" stroke="#191970" points="2064.6459,-144.0715 2073.0443,-137.6127 2062.4511,-137.4245 2064.6459,-144.0715"/>
</g>
<!-- Node50 -->
<g id="node50" class="node">
<title>Node50</title>
<g id="a_node50"><a xlink:href="../../d3/d5e/BinningData_8hpp.html" target="_top" xlink:title="Acts/Utilities/BinningData.hpp">
<polygon fill="none" stroke="#ff0000" points="626.1664,-258.5 626.1664,-278.5 795.1664,-278.5 795.1664,-258.5 626.1664,-258.5"/>
<text text-anchor="middle" x="710.6664" y="-265.5" font-family="FreeSans" font-size="10.00" fill="#000000">Acts/Utilities/BinningData.hpp</text>
</a>
</g>
</g>
<!-- Node49&#45;&gt;Node50 -->
<g id="edge98" class="edge">
<title>Node49&#45;&gt;Node50</title>
<path fill="none" stroke="#191970" d="M720.7384,-321.378C719.0688,-312.6128 716.6028,-299.6662 714.5288,-288.7777"/>
<polygon fill="#191970" stroke="#191970" points="717.9388,-287.9747 712.6295,-278.8062 711.0625,-289.2845 717.9388,-287.9747"/>
</g>
<!-- Node50&#45;&gt;Node5 -->
<g id="edge100" class="edge">
<title>Node50&#45;&gt;Node5</title>
<path fill="none" stroke="#191970" d="M795.2918,-265.7468C1023.6038,-258.0734 1637.6716,-235.714 1676.6664,-216 1702.8715,-202.7518 1735.7041,-129.4632 1760.6664,-114 1781.9864,-100.793 1840.1282,-88.1206 1888.427,-79.3499"/>
<polygon fill="#191970" stroke="#191970" points="1889.3384,-82.7426 1898.5672,-77.5388 1888.1076,-75.8517 1889.3384,-82.7426"/>
</g>
<!-- Node50&#45;&gt;Node9 -->
<g id="edge105" class="edge">
<title>Node50&#45;&gt;Node9</title>
<path fill="none" stroke="#191970" d="M700.3094,-258.3594C682.9727,-241.6454 646.6281,-207.7049 612.6664,-183 587.5179,-164.7062 571.0502,-172.0828 552.6664,-147 539.9356,-129.6302 535.6216,-104.9166 534.2192,-87.67"/>
<polygon fill="#191970" stroke="#191970" points="537.7074,-87.3579 533.6589,-77.5671 530.7181,-87.7456 537.7074,-87.3579"/>
</g>
<!-- Node50&#45;&gt;Node12 -->
<g id="edge103" class="edge">
<title>Node50&#45;&gt;Node12</title>
<path fill="none" stroke="#191970" d="M690.592,-258.3525C642.8669,-234.2278 522.4621,-173.3638 466.761,-145.2072"/>
<polygon fill="#191970" stroke="#191970" points="468.2737,-142.0501 457.7701,-140.6623 465.1157,-148.2973 468.2737,-142.0501"/>
</g>
<!-- Node50&#45;&gt;Node21 -->
<g id="edge99" class="edge">
<title>Node50&#45;&gt;Node21</title>
<path fill="none" stroke="#191970" d="M705.7808,-258.1276C694.9525,-235.1382 668.7914,-179.5963 654.8203,-149.9344"/>
<polygon fill="#191970" stroke="#191970" points="657.8595,-148.173 650.432,-140.6178 651.5268,-151.1559 657.8595,-148.173"/>
</g>
<!-- Node50&#45;&gt;Node23 -->
<g id="edge101" class="edge">
<title>Node50&#45;&gt;Node23</title>
<path fill="none" stroke="#191970" d="M772.3196,-258.4668C849.4099,-245.9214 981.146,-224.4833 1062.7513,-211.2032"/>
<polygon fill="#191970" stroke="#191970" points="1063.6308,-214.6062 1072.9387,-209.5453 1062.5063,-207.6971 1063.6308,-214.6062"/>
</g>
<!-- Node50&#45;&gt;Node29 -->
<g id="edge102" class="edge">
<title>Node50&#45;&gt;Node29</title>
<path fill="none" stroke="#191970" d="M795.3831,-265.7183C918.9939,-260.6455 1142.0797,-247.3658 1215.6664,-216 1236.5539,-207.0968 1234.3456,-193.1302 1254.6664,-183 1319.5109,-150.674 1344.802,-169.5273 1413.6664,-147 1416.0589,-146.2173 1418.5075,-145.3403 1420.9522,-144.4092"/>
<polygon fill="#191970" stroke="#191970" points="1422.2882,-147.6443 1430.2342,-140.6364 1419.6523,-141.1596 1422.2882,-147.6443"/>
</g>
<!-- Node50&#45;&gt;Node32 -->
<g id="edge104" class="edge">
<title>Node50&#45;&gt;Node32</title>
<path fill="none" stroke="#191970" d="M671.8414,-258.4617C636.6026,-248.9258 583.458,-233.4773 538.6664,-216 483.9293,-194.6421 422.7028,-163.5602 388.2093,-145.347"/>
<polygon fill="#191970" stroke="#191970" points="389.6901,-142.1705 379.2169,-140.57 386.4061,-148.3524 389.6901,-142.1705"/>
</g>
</g>
</svg>
