<?xml version="1.0" encoding="UTF-8" standalone="no"?>
<!DOCTYPE svg PUBLIC "-//W3C//DTD SVG 1.1//EN"
 "http://www.w3.org/Graphics/SVG/1.1/DTD/svg11.dtd">
<!-- Generated by graphviz version 2.40.1 (20161225.0304)
 -->
<!-- Title: TrkrHitSetContainer::findOrAddHitSet Pages: 1 -->
<svg width="480pt" height="143pt"
 viewBox="0.00 0.00 480.00 143.00" xmlns="http://www.w3.org/2000/svg" xmlns:xlink="http://www.w3.org/1999/xlink">
<g id="graph0" class="graph" transform="scale(1 1) rotate(0) translate(4 139)">
<title>TrkrHitSetContainer::findOrAddHitSet</title>
<!-- Node1 -->
<g id="node1" class="node">
<title>Node1</title>
<polygon fill="#bfbfbf" stroke="#000000" points="0,-51.5 0,-83.5 117,-83.5 117,-51.5 0,-51.5"/>
<text text-anchor="start" x="8" y="-70.5" font-family="FreeSans" font-size="10.00" fill="#000000">TrkrHitSetContainer</text>
<text text-anchor="middle" x="58.5" y="-58.5" font-family="FreeSans" font-size="10.00" fill="#000000">::findOrAddHitSet</text>
</g>
<!-- Node2 -->
<g id="node2" class="node">
<title>Node2</title>
<g id="a_node2"><a xlink:href="../../dd/d60/classTpcPrototypeUnpacker.html#ae1ef5126324a38fcce0e1e39e346ee6a" target="_top" xlink:title="PadPlaneData m_padPlaneData &#45;&gt; DST / TrkrHitSetContainer.">
<polygon fill="none" stroke="#000000" points="162.5,-102.5 162.5,-134.5 294.5,-134.5 294.5,-102.5 162.5,-102.5"/>
<text text-anchor="start" x="170.5" y="-121.5" font-family="FreeSans" font-size="10.00" fill="#000000">TpcPrototypeUnpacker</text>
<text text-anchor="middle" x="228.5" y="-109.5" font-family="FreeSans" font-size="10.00" fill="#000000">::exportDSTHits</text>
</a>
</g>
</g>
<!-- Node1&#45;&gt;Node2 -->
<g id="edge1" class="edge">
<title>Node1&#45;&gt;Node2</title>
<path fill="none" stroke="#191970" d="M122.345,-86.6535C139.7115,-91.8634 158.3362,-97.4508 175.0609,-102.4683"/>
<polygon fill="#191970" stroke="#191970" points="122.8731,-83.1579 112.2891,-83.6367 120.8616,-89.8627 122.8731,-83.1579"/>
</g>
<!-- Node4 -->
<g id="node4" class="node">
<title>Node4</title>
<g id="a_node4"><a xlink:href="../../d7/d6c/classPHG4TpcPadPlaneReadout.html#a59501eb6d5dde76ac3e654b4cba759e1" target="_top" xlink:title="PHG4TpcPadPlaneReadout\l::MapToPadPlane">
<polygon fill="none" stroke="#000000" points="153,-51.5 153,-83.5 304,-83.5 304,-51.5 153,-51.5"/>
<text text-anchor="start" x="161" y="-70.5" font-family="FreeSans" font-size="10.00" fill="#000000">PHG4TpcPadPlaneReadout</text>
<text text-anchor="middle" x="228.5" y="-58.5" font-family="FreeSans" font-size="10.00" fill="#000000">::MapToPadPlane</text>
</a>
</g>
</g>
<!-- Node1&#45;&gt;Node4 -->
<g id="edge3" class="edge">
<title>Node1&#45;&gt;Node4</title>
<path fill="none" stroke="#191970" d="M127.1566,-67.5C135.5895,-67.5 144.2454,-67.5 152.7752,-67.5"/>
<polygon fill="#191970" stroke="#191970" points="127.0044,-64.0001 117.0044,-67.5 127.0043,-71.0001 127.0044,-64.0001"/>
</g>
<!-- Node5 -->
<g id="node5" class="node">
<title>Node5</title>
<g id="a_node5"><a xlink:href="../../d7/ddb/classPHG4TpcElectronDrift.html#aeea2d1046042fabf274bc85a6221955f" target="_top" xlink:title="PHG4TpcElectronDrift\l::process_event">
<polygon fill="none" stroke="#000000" points="165.5,-.5 165.5,-32.5 291.5,-32.5 291.5,-.5 165.5,-.5"/>
<text text-anchor="start" x="173.5" y="-19.5" font-family="FreeSans" font-size="10.00" fill="#000000">PHG4TpcElectronDrift</text>
<text text-anchor="middle" x="228.5" y="-7.5" font-family="FreeSans" font-size="10.00" fill="#000000">::process_event</text>
</a>
</g>
</g>
<!-- Node1&#45;&gt;Node5 -->
<g id="edge4" class="edge">
<title>Node1&#45;&gt;Node5</title>
<path fill="none" stroke="#191970" d="M122.345,-48.3465C139.7115,-43.1366 158.3362,-37.5492 175.0609,-32.5317"/>
<polygon fill="#191970" stroke="#191970" points="120.8616,-45.1373 112.2891,-51.3633 122.8731,-51.8421 120.8616,-45.1373"/>
</g>
<!-- Node3 -->
<g id="node3" class="node">
<title>Node3</title>
<g id="a_node3"><a xlink:href="../../dd/d60/classTpcPrototypeUnpacker.html#a3c458d1bda422672ff79946e5816f197" target="_top" xlink:title="TpcPrototypeUnpacker\l::process_event">
<polygon fill="none" stroke="#000000" points="340,-102.5 340,-134.5 472,-134.5 472,-102.5 340,-102.5"/>
<text text-anchor="start" x="348" y="-121.5" font-family="FreeSans" font-size="10.00" fill="#000000">TpcPrototypeUnpacker</text>
<text text-anchor="middle" x="406" y="-109.5" font-family="FreeSans" font-size="10.00" fill="#000000">::process_event</text>
</a>
</g>
</g>
<!-- Node2&#45;&gt;Node3 -->
<g id="edge2" class="edge">
<title>Node2&#45;&gt;Node3</title>
<path fill="none" stroke="#191970" d="M304.7611,-118.5C316.4401,-118.5 328.4134,-118.5 339.8504,-118.5"/>
<polygon fill="#191970" stroke="#191970" points="304.5945,-115.0001 294.5944,-118.5 304.5944,-122.0001 304.5945,-115.0001"/>
</g>
</g>
</svg>
