<?xml version="1.0" encoding="UTF-8" standalone="no"?>
<!DOCTYPE svg PUBLIC "-//W3C//DTD SVG 1.1//EN"
 "http://www.w3.org/Graphics/SVG/1.1/DTD/svg11.dtd">
<!-- Generated by graphviz version 2.40.1 (20161225.0304)
 -->
<!-- Title: MakeActsGeometry::MakeActsGeometry Pages: 1 -->
<svg width="468pt" height="41pt"
 viewBox="0.00 0.00 468.00 41.00" xmlns="http://www.w3.org/2000/svg" xmlns:xlink="http://www.w3.org/1999/xlink">
<g id="graph0" class="graph" transform="scale(1 1) rotate(0) translate(4 37)">
<title>MakeActsGeometry::MakeActsGeometry</title>
<!-- Node1 -->
<g id="node1" class="node">
<title>Node1</title>
<polygon fill="#bfbfbf" stroke="#000000" points="0,-.5 0,-32.5 169,-32.5 169,-.5 0,-.5"/>
<text text-anchor="start" x="8" y="-19.5" font-family="FreeSans" font-size="10.00" fill="#000000">MakeActsGeometry::MakeActs</text>
<text text-anchor="middle" x="84.5" y="-7.5" font-family="FreeSans" font-size="10.00" fill="#000000">Geometry</text>
</g>
<!-- Node2 -->
<g id="node2" class="node">
<title>Node2</title>
<g id="a_node2"><a xlink:href="../../da/db1/classMakeActsGeometry.html#a852b148e27c26ec776fcf1f4446f8353" target="_top" xlink:title="Functions to edit TGeoManager to include TPC boxes.">
<polygon fill="none" stroke="#000000" points="205,-.5 205,-32.5 373,-32.5 373,-.5 205,-.5"/>
<text text-anchor="start" x="213" y="-19.5" font-family="FreeSans" font-size="10.00" fill="#000000">MakeActsGeometry::setPlanar</text>
<text text-anchor="middle" x="289" y="-7.5" font-family="FreeSans" font-size="10.00" fill="#000000">SurfaceDivisions</text>
</a>
</g>
</g>
<!-- Node1&#45;&gt;Node2 -->
<g id="edge1" class="edge">
<title>Node1&#45;&gt;Node2</title>
<path fill="none" stroke="#191970" d="M169.1542,-16.5C177.5129,-16.5 186.0333,-16.5 194.4829,-16.5"/>
<polygon fill="#191970" stroke="#191970" points="194.7389,-20.0001 204.7389,-16.5 194.7388,-13.0001 194.7389,-20.0001"/>
</g>
<!-- Node3 -->
<g id="node3" class="node">
<title>Node3</title>
<g id="a_node3"><a xlink:href="../../da/d55/TPCRateLayered_8m.html#ac40e4ec8f2a74a2878f06670249eebb8" target="_top" xlink:title="double">
<polygon fill="none" stroke="#000000" points="409,-6.5 409,-26.5 460,-26.5 460,-6.5 409,-6.5"/>
<text text-anchor="middle" x="434.5" y="-13.5" font-family="FreeSans" font-size="10.00" fill="#000000">double</text>
</a>
</g>
</g>
<!-- Node2&#45;&gt;Node3 -->
<g id="edge2" class="edge">
<title>Node2&#45;&gt;Node3</title>
<path fill="none" stroke="#191970" d="M373.2166,-16.5C382.117,-16.5 390.7826,-16.5 398.6621,-16.5"/>
<polygon fill="#191970" stroke="#191970" points="398.8682,-20.0001 408.8681,-16.5 398.8681,-13.0001 398.8682,-20.0001"/>
</g>
</g>
</svg>
