<?xml version="1.0" encoding="UTF-8" standalone="no"?>
<!DOCTYPE svg PUBLIC "-//W3C//DTD SVG 1.1//EN"
 "http://www.w3.org/Graphics/SVG/1.1/DTD/svg11.dtd">
<!-- Generated by graphviz version 2.40.1 (20161225.0304)
 -->
<!-- Title: MakeActsGeometry::getMvtxHitSetKeyFromCoords Pages: 1 -->
<svg width="670pt" height="176pt"
 viewBox="0.00 0.00 670.00 176.00" xmlns="http://www.w3.org/2000/svg" xmlns:xlink="http://www.w3.org/1999/xlink">
<g id="graph0" class="graph" transform="scale(1 1) rotate(0) translate(4 172)">
<title>MakeActsGeometry::getMvtxHitSetKeyFromCoords</title>
<!-- Node1 -->
<g id="node1" class="node">
<title>Node1</title>
<polygon fill="#bfbfbf" stroke="#000000" points="0,-57.5 0,-89.5 162,-89.5 162,-57.5 0,-57.5"/>
<text text-anchor="start" x="8" y="-76.5" font-family="FreeSans" font-size="10.00" fill="#000000">MakeActsGeometry::getMvtx</text>
<text text-anchor="middle" x="81" y="-64.5" font-family="FreeSans" font-size="10.00" fill="#000000">HitSetKeyFromCoords</text>
</g>
<!-- Node2 -->
<g id="node2" class="node">
<title>Node2</title>
<g id="a_node2"><a xlink:href="../../d8/df1/namespaceMvtxDefs.html#a024ad0bf5de2d32614825f36645eb49e" target="_top" xlink:title="Generate a hitsetkey for the mvtx.">
<polygon fill="none" stroke="#000000" points="211.5,-114.5 211.5,-134.5 350.5,-134.5 350.5,-114.5 211.5,-114.5"/>
<text text-anchor="middle" x="281" y="-121.5" font-family="FreeSans" font-size="10.00" fill="#000000">MvtxDefs::genHitSetKey</text>
</a>
</g>
</g>
<!-- Node1&#45;&gt;Node2 -->
<g id="edge1" class="edge">
<title>Node1&#45;&gt;Node2</title>
<path fill="none" stroke="#191970" d="M140.4536,-89.5303C158.876,-94.4227 179.2579,-99.7596 198,-104.5 207.8073,-106.9805 218.2846,-109.56 228.3777,-112.0092"/>
<polygon fill="#191970" stroke="#191970" points="227.7614,-115.461 238.3036,-114.4067 229.4049,-108.6566 227.7614,-115.461"/>
</g>
<!-- Node5 -->
<g id="node5" class="node">
<title>Node5</title>
<g id="a_node5"><a xlink:href="../../df/d9b/classCylinderGeom__Mvtx.html#af933b52a1b3b2ad3ac1f403a3443f659" target="_top" xlink:title="CylinderGeom_Mvtx::\lget_sensor_indices_from\l_world_coords">
<polygon fill="none" stroke="#000000" points="211,-51.5 211,-95.5 351,-95.5 351,-51.5 211,-51.5"/>
<text text-anchor="start" x="219" y="-82.5" font-family="FreeSans" font-size="10.00" fill="#000000">CylinderGeom_Mvtx::</text>
<text text-anchor="start" x="219" y="-70.5" font-family="FreeSans" font-size="10.00" fill="#000000">get_sensor_indices_from</text>
<text text-anchor="middle" x="281" y="-58.5" font-family="FreeSans" font-size="10.00" fill="#000000">_world_coords</text>
</a>
</g>
</g>
<!-- Node1&#45;&gt;Node5 -->
<g id="edge5" class="edge">
<title>Node1&#45;&gt;Node5</title>
<path fill="none" stroke="#191970" d="M162.0593,-73.5C174.7899,-73.5 187.9455,-73.5 200.6597,-73.5"/>
<polygon fill="#191970" stroke="#191970" points="200.7451,-77.0001 210.7451,-73.5 200.7451,-70.0001 200.7451,-77.0001"/>
</g>
<!-- Node7 -->
<g id="node7" class="node">
<title>Node7</title>
<g id="a_node7"><a xlink:href="../../d4/de7/classPHG4CylinderGeomContainer.html#a08321019aaff5f57cd416b64d0f536bf" target="_top" xlink:title="PHG4CylinderGeomContainer\l::GetLayerGeom">
<polygon fill="none" stroke="#000000" points="198,-.5 198,-32.5 364,-32.5 364,-.5 198,-.5"/>
<text text-anchor="start" x="206" y="-19.5" font-family="FreeSans" font-size="10.00" fill="#000000">PHG4CylinderGeomContainer</text>
<text text-anchor="middle" x="281" y="-7.5" font-family="FreeSans" font-size="10.00" fill="#000000">::GetLayerGeom</text>
</a>
</g>
</g>
<!-- Node1&#45;&gt;Node7 -->
<g id="edge7" class="edge">
<title>Node1&#45;&gt;Node7</title>
<path fill="none" stroke="#191970" d="M137.2434,-57.4706C161.4168,-50.5812 189.8396,-42.4807 215.0021,-35.3094"/>
<polygon fill="#191970" stroke="#191970" points="216.1749,-38.6146 224.8326,-32.5077 214.2562,-31.8827 216.1749,-38.6146"/>
</g>
<!-- Node3 -->
<g id="node3" class="node">
<title>Node3</title>
<g id="a_node3"><a xlink:href="../../d6/d3f/namespaceTrkrDefs.html#a418e306477093b8d17d587be70b908a3" target="_top" xlink:title="generate the common upper 16 bits for hitsetkey">
<polygon fill="none" stroke="#000000" points="400,-147.5 400,-167.5 534,-167.5 534,-147.5 400,-147.5"/>
<text text-anchor="middle" x="467" y="-154.5" font-family="FreeSans" font-size="10.00" fill="#000000">TrkrDefs::genHitSetKey</text>
</a>
</g>
</g>
<!-- Node2&#45;&gt;Node3 -->
<g id="edge2" class="edge">
<title>Node2&#45;&gt;Node3</title>
<path fill="none" stroke="#191970" d="M337.5637,-134.5355C357.4032,-138.0554 379.8704,-142.0415 400.4523,-145.6932"/>
<polygon fill="#191970" stroke="#191970" points="399.9272,-149.1546 410.3849,-147.4554 401.1501,-142.2622 399.9272,-149.1546"/>
</g>
<!-- Node4 -->
<g id="node4" class="node">
<title>Node4</title>
<g id="a_node4"><a xlink:href="../../dd/d7e/namespaceActs_1_1Test.html#a88f0887efddd644c8defc1e91456c3c9" target="_top" xlink:title="Acts::Test::tmp">
<polygon fill="none" stroke="#000000" points="570,-127.5 570,-147.5 662,-147.5 662,-127.5 570,-127.5"/>
<text text-anchor="middle" x="616" y="-134.5" font-family="FreeSans" font-size="10.00" fill="#000000">Acts::Test::tmp</text>
</a>
</g>
</g>
<!-- Node2&#45;&gt;Node4 -->
<g id="edge4" class="edge">
<title>Node2&#45;&gt;Node4</title>
<path fill="none" stroke="#191970" d="M350.8192,-127.2094C412.866,-129.6172 502.4004,-133.0917 559.8981,-135.3229"/>
<polygon fill="#191970" stroke="#191970" points="559.7673,-138.8204 569.8955,-135.7109 560.0388,-131.8256 559.7673,-138.8204"/>
</g>
<!-- Node3&#45;&gt;Node4 -->
<g id="edge3" class="edge">
<title>Node3&#45;&gt;Node4</title>
<path fill="none" stroke="#191970" d="M534.09,-148.4946C542.6568,-147.3447 551.3555,-146.1771 559.7271,-145.0534"/>
<polygon fill="#191970" stroke="#191970" points="560.3,-148.508 569.7454,-143.7087 559.3687,-141.5702 560.3,-148.508"/>
</g>
<!-- Node6 -->
<g id="node6" class="node">
<title>Node6</title>
<g id="a_node6"><a xlink:href="../../de/de0/matchedfilter_8C.html#ac662fab4d6569f9ab320da1b95bcd663" target="_top" xlink:title="round">
<polygon fill="none" stroke="#000000" points="444.5,-63.5 444.5,-83.5 489.5,-83.5 489.5,-63.5 444.5,-63.5"/>
<text text-anchor="middle" x="467" y="-70.5" font-family="FreeSans" font-size="10.00" fill="#000000">round</text>
</a>
</g>
</g>
<!-- Node5&#45;&gt;Node6 -->
<g id="edge6" class="edge">
<title>Node5&#45;&gt;Node6</title>
<path fill="none" stroke="#191970" d="M351.0536,-73.5C379.5016,-73.5 411.0051,-73.5 433.9852,-73.5"/>
<polygon fill="#191970" stroke="#191970" points="434.2161,-77.0001 444.216,-73.5 434.216,-70.0001 434.2161,-77.0001"/>
</g>
</g>
</svg>
