<?xml version="1.0" encoding="UTF-8" standalone="no"?>
<!DOCTYPE svg PUBLIC "-//W3C//DTD SVG 1.1//EN"
 "http://www.w3.org/Graphics/SVG/1.1/DTD/svg11.dtd">
<!-- Generated by graphviz version 2.40.1 (20161225.0304)
 -->
<!-- Title: pyinit Pages: 1 -->
<svg width="1128pt" height="2137pt"
 viewBox="0.00 0.00 1128.00 2136.78" xmlns="http://www.w3.org/2000/svg" xmlns:xlink="http://www.w3.org/1999/xlink">
<g id="graph0" class="graph" transform="scale(1 1) rotate(0) translate(4 2132.7763)">
<title>pyinit</title>
<!-- Node1 -->
<g id="node1" class="node">
<title>Node1</title>
<polygon fill="#bfbfbf" stroke="#000000" points="0,-1187.7763 0,-1207.7763 45,-1207.7763 45,-1187.7763 0,-1187.7763"/>
<text text-anchor="middle" x="22.5" y="-1194.7763" font-family="FreeSans" font-size="10.00" fill="#000000">pyinit</text>
</g>
<!-- Node2 -->
<g id="node2" class="node">
<title>Node2</title>
<g id="a_node2"><a xlink:href="../../d5/d89/classValueGen1.html#a0a32cfdf50e9bb9c84580912795b1e41" target="_top" xlink:title="ValueGen1::i3">
<polygon fill="none" stroke="#000000" points="784,-1259.7763 784,-1279.7763 872,-1279.7763 872,-1259.7763 784,-1259.7763"/>
<text text-anchor="middle" x="828" y="-1266.7763" font-family="FreeSans" font-size="10.00" fill="#000000">ValueGen1::i3</text>
</a>
</g>
</g>
<!-- Node1&#45;&gt;Node2 -->
<g id="edge1" class="edge">
<title>Node1&#45;&gt;Node2</title>
<path fill="none" stroke="#191970" d="M45.1467,-1199.2657C67.6818,-1200.7797 103.2454,-1203.2552 134,-1205.7763 372.5094,-1225.3282 656.7189,-1252.8697 773.6526,-1264.3854"/>
<polygon fill="#191970" stroke="#191970" points="773.482,-1267.8854 783.7771,-1265.3836 774.1688,-1260.9192 773.482,-1267.8854"/>
</g>
<!-- Node3 -->
<g id="node3" class="node">
<title>Node3</title>
<g id="a_node3"><a xlink:href="../../d5/d89/classValueGen1.html#adac3584a4cd24abc0946b772431a39bb" target="_top" xlink:title="ValueGen1::i4">
<polygon fill="none" stroke="#000000" points="1032,-1737.7763 1032,-1757.7763 1120,-1757.7763 1120,-1737.7763 1032,-1737.7763"/>
<text text-anchor="middle" x="1076" y="-1744.7763" font-family="FreeSans" font-size="10.00" fill="#000000">ValueGen1::i4</text>
</a>
</g>
</g>
<!-- Node1&#45;&gt;Node3 -->
<g id="edge2" class="edge">
<title>Node1&#45;&gt;Node3</title>
<path fill="none" stroke="#191970" d="M22.5939,-1208.0489C23.518,-1300.7255 32.0247,-1990.967 81,-2066.7763 112.7216,-2115.8785 138.5425,-2128.7763 197,-2128.7763 197,-2128.7763 197,-2128.7763 828,-2128.7763 1001.7692,-2128.7763 1060.0798,-1846.9583 1072.9978,-1768.0754"/>
<polygon fill="#191970" stroke="#191970" points="1076.4914,-1768.3886 1074.5827,-1757.9672 1069.5759,-1767.3043 1076.4914,-1768.3886"/>
</g>
<!-- Node4 -->
<g id="node4" class="node">
<title>Node4</title>
<g id="a_node4"><a xlink:href="../../dc/db8/pythia-6_84_828_8f.html#ae919bdecd4999b50dd2ce8fe8cb8c1ca" target="_top" xlink:title="pdfset">
<polygon fill="none" stroke="#000000" points="609.5,-1679.7763 609.5,-1699.7763 658.5,-1699.7763 658.5,-1679.7763 609.5,-1679.7763"/>
<text text-anchor="middle" x="634" y="-1686.7763" font-family="FreeSans" font-size="10.00" fill="#000000">pdfset</text>
</a>
</g>
</g>
<!-- Node1&#45;&gt;Node4 -->
<g id="edge3" class="edge">
<title>Node1&#45;&gt;Node4</title>
<path fill="none" stroke="#191970" d="M23.372,-1207.925C27.0672,-1248.6686 43.0238,-1404.0173 81,-1525.7763 131.03,-1686.1823 112.2571,-1778.7443 260,-1858.7763 322.1358,-1892.4352 352.2174,-1881.8817 419,-1858.7763 507.0605,-1828.3093 586.4665,-1745.2248 618.7287,-1708.1101"/>
<polygon fill="#191970" stroke="#191970" points="621.721,-1709.9961 625.5591,-1700.1209 616.4005,-1705.4473 621.721,-1709.9961"/>
</g>
<!-- Node5 -->
<g id="node5" class="node">
<title>Node5</title>
<g id="a_node5"><a xlink:href="../../d6/dcf/pythia6425mod_8f.html#a4140396b9ec9bafcebf4c7ebecb462e7" target="_top" xlink:title="pystop">
<polygon fill="none" stroke="#ff0000" points="927,-1775.7763 927,-1795.7763 977,-1795.7763 977,-1775.7763 927,-1775.7763"/>
<text text-anchor="middle" x="952" y="-1782.7763" font-family="FreeSans" font-size="10.00" fill="#000000">pystop</text>
</a>
</g>
</g>
<!-- Node1&#45;&gt;Node5 -->
<g id="edge143" class="edge">
<title>Node1&#45;&gt;Node5</title>
<path fill="none" stroke="#191970" d="M22.63,-1207.8543C23.8594,-1297.3519 34.4422,-1954.4357 81,-2026.7763 112.751,-2076.1104 138.3316,-2089.7763 197,-2089.7763 197,-2089.7763 197,-2089.7763 513.5,-2089.7763 676.1031,-2089.7763 759.0505,-2133.7472 872,-2016.7763 939.3001,-1947.0801 846.0328,-1876.2541 908,-1801.7763 910.6156,-1798.6326 913.9026,-1796.1066 917.4961,-1794.0769"/>
<polygon fill="#191970" stroke="#191970" points="919.0927,-1797.1988 926.8521,-1789.9848 916.2876,-1790.7854 919.0927,-1797.1988"/>
</g>
<!-- Node6 -->
<g id="node6" class="node">
<title>Node6</title>
<g id="a_node6"><a xlink:href="../../d6/dcf/pythia6425mod_8f.html#a6655a210e16c775882e736cb73e6fba1" target="_top" xlink:title="pyckbd">
<polygon fill="none" stroke="#000000" points="696,-2003.7763 696,-2023.7763 748,-2023.7763 748,-2003.7763 696,-2003.7763"/>
<text text-anchor="middle" x="722" y="-2010.7763" font-family="FreeSans" font-size="10.00" fill="#000000">pyckbd</text>
</a>
</g>
</g>
<!-- Node1&#45;&gt;Node6 -->
<g id="edge6" class="edge">
<title>Node1&#45;&gt;Node6</title>
<path fill="none" stroke="#191970" d="M22.5659,-1207.8163C23.2276,-1295.5897 29.7749,-1930.7998 81,-1995.7763 114.5027,-2038.2729 142.8854,-2032.7763 197,-2032.7763 197,-2032.7763 197,-2032.7763 339.5,-2032.7763 466.6702,-2032.7763 617.3307,-2022.1702 685.3919,-2016.8065"/>
<polygon fill="#191970" stroke="#191970" points="685.8998,-2020.2772 695.5898,-2015.9931 685.3432,-2013.2993 685.8998,-2020.2772"/>
</g>
<!-- Node7 -->
<g id="node7" class="node">
<title>Node7</title>
<g id="a_node7"><a xlink:href="../../d6/dcf/pythia6425mod_8f.html#ae0f16bcefd12eb1fa5d163c95050c8bb" target="_top" xlink:title="pygaga">
<polygon fill="none" stroke="#000000" points="313,-1243.7763 313,-1263.7763 366,-1263.7763 366,-1243.7763 313,-1243.7763"/>
<text text-anchor="middle" x="339.5" y="-1250.7763" font-family="FreeSans" font-size="10.00" fill="#000000">pygaga</text>
</a>
</g>
</g>
<!-- Node1&#45;&gt;Node7 -->
<g id="edge8" class="edge">
<title>Node1&#45;&gt;Node7</title>
<path fill="none" stroke="#191970" d="M45.0437,-1201.7588C99.1527,-1211.3175 236.7782,-1235.6299 302.9188,-1247.314"/>
<polygon fill="#191970" stroke="#191970" points="302.44,-1250.7836 312.8965,-1249.0767 303.6578,-1243.8903 302.44,-1250.7836"/>
</g>
<!-- Node16 -->
<g id="node16" class="node">
<title>Node16</title>
<g id="a_node16"><a xlink:href="../../d6/dcf/pythia6425mod_8f.html#acc54128638bbd93cf630e1576f91d443" target="_top" xlink:title="pylist">
<polygon fill="none" stroke="#000000" points="700,-989.7763 700,-1009.7763 744,-1009.7763 744,-989.7763 700,-989.7763"/>
<text text-anchor="middle" x="722" y="-996.7763" font-family="FreeSans" font-size="10.00" fill="#000000">pylist</text>
</a>
</g>
</g>
<!-- Node1&#45;&gt;Node16 -->
<g id="edge65" class="edge">
<title>Node1&#45;&gt;Node16</title>
<path fill="none" stroke="#191970" d="M36.0499,-1187.4978C47.3828,-1179.576 64.3306,-1169.2446 81,-1164.7763 291.792,-1108.2733 372.1955,-1247.549 572,-1159.7763 639.2345,-1130.2407 690.3006,-1054.3938 711.3987,-1018.7805"/>
<polygon fill="#191970" stroke="#191970" points="714.5719,-1020.2844 716.5433,-1009.8745 708.5105,-1016.7829 714.5719,-1020.2844"/>
</g>
<!-- Node24 -->
<g id="node24" class="node">
<title>Node24</title>
<g id="a_node24"><a xlink:href="../../d6/dcf/pythia6425mod_8f.html#aefa74679a96bc60a9275508c987b41ee" target="_top" xlink:title="pyxtot">
<polygon fill="none" stroke="#000000" points="489,-1130.7763 489,-1150.7763 538,-1150.7763 538,-1130.7763 489,-1130.7763"/>
<text text-anchor="middle" x="513.5" y="-1137.7763" font-family="FreeSans" font-size="10.00" fill="#000000">pyxtot</text>
</a>
</g>
</g>
<!-- Node1&#45;&gt;Node24 -->
<g id="edge144" class="edge">
<title>Node1&#45;&gt;Node24</title>
<path fill="none" stroke="#191970" d="M27.2034,-1187.5969C35.4253,-1171.1885 54.1328,-1139.4516 81,-1126.7763 216.3004,-1062.9452 402.8049,-1106.8893 478.9866,-1129.5619"/>
<polygon fill="#191970" stroke="#191970" points="478.4013,-1133.0422 488.9872,-1132.6065 480.4401,-1126.3457 478.4013,-1133.0422"/>
</g>
<!-- Node25 -->
<g id="node25" class="node">
<title>Node25</title>
<g id="a_node25"><a xlink:href="../../d6/dcf/pythia6425mod_8f.html#af14ac174afbf502859c3196479097c50" target="_top" xlink:title="pyinbm">
<polygon fill="none" stroke="#000000" points="801,-1641.7763 801,-1661.7763 855,-1661.7763 855,-1641.7763 801,-1641.7763"/>
<text text-anchor="middle" x="828" y="-1648.7763" font-family="FreeSans" font-size="10.00" fill="#000000">pyinbm</text>
</a>
</g>
</g>
<!-- Node1&#45;&gt;Node25 -->
<g id="edge39" class="edge">
<title>Node1&#45;&gt;Node25</title>
<path fill="none" stroke="#191970" d="M22.6937,-1207.9686C24.6246,-1295.6024 43.7428,-1918.7763 197,-1918.7763 197,-1918.7763 197,-1918.7763 339.5,-1918.7763 548.1174,-1918.7763 752.2209,-1728.9633 811.114,-1669.4208"/>
<polygon fill="#191970" stroke="#191970" points="813.9606,-1671.5157 818.4458,-1661.917 808.9537,-1666.6237 813.9606,-1671.5157"/>
</g>
<!-- Node26 -->
<g id="node26" class="node">
<title>Node26</title>
<g id="a_node26"><a xlink:href="../../d6/dcf/pythia6425mod_8f.html#ae42caa9ba7af0a1b008fa608c8941e43" target="_top" xlink:title="pyinki">
<polygon fill="none" stroke="#000000" points="316.5,-977.7763 316.5,-997.7763 362.5,-997.7763 362.5,-977.7763 316.5,-977.7763"/>
<text text-anchor="middle" x="339.5" y="-984.7763" font-family="FreeSans" font-size="10.00" fill="#000000">pyinki</text>
</a>
</g>
</g>
<!-- Node1&#45;&gt;Node26 -->
<g id="edge44" class="edge">
<title>Node1&#45;&gt;Node26</title>
<path fill="none" stroke="#191970" d="M24.2672,-1187.3144C30.5163,-1151.6333 52.7223,-1035.6654 81,-1012.7763 146.0537,-960.1193 252.6775,-970.6811 306.3836,-980.4674"/>
<polygon fill="#191970" stroke="#191970" points="305.9096,-983.9403 316.3912,-982.3953 307.2339,-977.0667 305.9096,-983.9403"/>
</g>
<!-- Node27 -->
<g id="node27" class="node">
<title>Node27</title>
<g id="a_node27"><a xlink:href="../../d6/dcf/pythia6425mod_8f.html#a29c8fd890d3cef2da967153af66836ba" target="_top" xlink:title="pyinpr">
<polygon fill="none" stroke="#000000" points="83,-919.7763 83,-939.7763 132,-939.7763 132,-919.7763 83,-919.7763"/>
<text text-anchor="middle" x="107.5" y="-926.7763" font-family="FreeSans" font-size="10.00" fill="#000000">pyinpr</text>
</a>
</g>
</g>
<!-- Node1&#45;&gt;Node27 -->
<g id="edge49" class="edge">
<title>Node1&#45;&gt;Node27</title>
<path fill="none" stroke="#191970" d="M24.1244,-1187.6771C29.4973,-1155.5953 48.2424,-1053.4856 81,-974.7763 84.715,-965.85 89.9334,-956.5517 94.758,-948.7404"/>
<polygon fill="#191970" stroke="#191970" points="97.8639,-950.3809 100.3201,-940.0747 91.973,-946.5998 97.8639,-950.3809"/>
</g>
<!-- Node28 -->
<g id="node28" class="node">
<title>Node28</title>
<g id="a_node28"><a xlink:href="../../d6/dcf/pythia6425mod_8f.html#a6fa4e6a261de929c41d509ff9aadde33" target="_top" xlink:title="pyinre">
<polygon fill="none" stroke="#000000" points="173,-1553.7763 173,-1573.7763 221,-1573.7763 221,-1553.7763 173,-1553.7763"/>
<text text-anchor="middle" x="197" y="-1560.7763" font-family="FreeSans" font-size="10.00" fill="#000000">pyinre</text>
</a>
</g>
</g>
<!-- Node1&#45;&gt;Node28 -->
<g id="edge51" class="edge">
<title>Node1&#45;&gt;Node28</title>
<path fill="none" stroke="#191970" d="M25.0488,-1207.8262C36.3266,-1250.9219 84.981,-1423.1514 170,-1538.7763 172.0057,-1541.5041 174.3382,-1544.174 176.7762,-1546.693"/>
<polygon fill="#191970" stroke="#191970" points="174.5164,-1549.3732 184.1855,-1553.7045 179.3278,-1544.2888 174.5164,-1549.3732"/>
</g>
<!-- Node33 -->
<g id="node33" class="node">
<title>Node33</title>
<g id="a_node33"><a xlink:href="../../d6/dcf/pythia6425mod_8f.html#a2839a1d21bd6048577c81f57f24a7e41" target="_top" xlink:title="pykfin">
<polygon fill="none" stroke="#000000" points="490,-171.7763 490,-191.7763 537,-191.7763 537,-171.7763 490,-171.7763"/>
<text text-anchor="middle" x="513.5" y="-178.7763" font-family="FreeSans" font-size="10.00" fill="#000000">pykfin</text>
</a>
</g>
</g>
<!-- Node1&#45;&gt;Node33 -->
<g id="edge62" class="edge">
<title>Node1&#45;&gt;Node33</title>
<path fill="none" stroke="#191970" d="M23.0464,-1187.3779C26.9752,-1113.6823 51.5999,-669.4087 81,-537.7763 106.0711,-425.5262 116.6891,-396.691 170,-294.7763 202.2342,-233.1541 198.2825,-198.8278 260,-166.7763 331.195,-129.803 429.2559,-152.9692 480.0203,-169.461"/>
<polygon fill="#191970" stroke="#191970" points="479.2207,-172.8846 489.8147,-172.7527 481.4507,-166.2493 479.2207,-172.8846"/>
</g>
<!-- Node34 -->
<g id="node34" class="node">
<title>Node34</title>
<g id="a_node34"><a xlink:href="../../d6/dcf/pythia6425mod_8f.html#aa9cb6f1467302508501201a0e38959d1" target="_top" xlink:title="pymaxi">
<polygon fill="none" stroke="#000000" points="81,-1321.7763 81,-1341.7763 134,-1341.7763 134,-1321.7763 81,-1321.7763"/>
<text text-anchor="middle" x="107.5" y="-1328.7763" font-family="FreeSans" font-size="10.00" fill="#000000">pymaxi</text>
</a>
</g>
</g>
<!-- Node1&#45;&gt;Node34 -->
<g id="edge66" class="edge">
<title>Node1&#45;&gt;Node34</title>
<path fill="none" stroke="#191970" d="M28.8888,-1207.8481C43.0414,-1230.1592 77.2231,-1284.0457 95.5003,-1312.8592"/>
<polygon fill="#191970" stroke="#191970" points="92.7249,-1315.0181 101.037,-1321.5877 98.636,-1311.2685 92.7249,-1315.0181"/>
</g>
<!-- Node41 -->
<g id="node41" class="node">
<title>Node41</title>
<g id="a_node41"><a xlink:href="../../d6/dcf/pythia6425mod_8f.html#a5c7e2372fde451d6f2253ef044e01364" target="_top" xlink:title="pymign">
<polygon fill="none" stroke="#000000" points="170,-611.7763 170,-631.7763 224,-631.7763 224,-611.7763 170,-611.7763"/>
<text text-anchor="middle" x="197" y="-618.7763" font-family="FreeSans" font-size="10.00" fill="#000000">pymign</text>
</a>
</g>
</g>
<!-- Node1&#45;&gt;Node41 -->
<g id="edge92" class="edge">
<title>Node1&#45;&gt;Node41</title>
<path fill="none" stroke="#191970" d="M23.8703,-1187.6648C29.0839,-1150.2478 49.019,-1016.3053 81,-909.7763 112.2679,-805.6227 166.2937,-686.7697 187.7902,-641.0678"/>
<polygon fill="#191970" stroke="#191970" points="190.9713,-642.5279 192.0854,-631.9918 184.6441,-639.5335 190.9713,-642.5279"/>
</g>
<!-- Node44 -->
<g id="node44" class="node">
<title>Node44</title>
<g id="a_node44"><a xlink:href="../../d6/dcf/pythia6425mod_8f.html#a27a2354cb3c8dc0f2fd65bc366f1cad9" target="_top" xlink:title="pymsin">
<polygon fill="none" stroke="#ff0000" points="170.5,-1690.7763 170.5,-1710.7763 223.5,-1710.7763 223.5,-1690.7763 170.5,-1690.7763"/>
<text text-anchor="middle" x="197" y="-1697.7763" font-family="FreeSans" font-size="10.00" fill="#000000">pymsin</text>
</a>
</g>
</g>
<!-- Node1&#45;&gt;Node44 -->
<g id="edge116" class="edge">
<title>Node1&#45;&gt;Node44</title>
<path fill="none" stroke="#191970" d="M24.3713,-1208.2094C30.6289,-1242.3693 52.0725,-1353.7763 81,-1442.7763 112.841,-1540.7402 123.1417,-1565.0427 170,-1656.7763 174.3477,-1665.2878 179.7584,-1674.3433 184.5921,-1682.0125"/>
<polygon fill="#191970" stroke="#191970" points="181.7339,-1684.0387 190.0917,-1690.5502 187.6187,-1680.248 181.7339,-1684.0387"/>
</g>
<!-- Node47 -->
<g id="node47" class="node">
<title>Node47</title>
<g id="a_node47"><a xlink:href="../../d6/dcf/pythia6425mod_8f.html#a4ae1a9148440832c122abdaedf3555a7" target="_top" xlink:title="pymult">
<polygon fill="none" stroke="#ff0000" points="171,-304.7763 171,-324.7763 223,-324.7763 223,-304.7763 171,-304.7763"/>
<text text-anchor="middle" x="197" y="-311.7763" font-family="FreeSans" font-size="10.00" fill="#000000">pymult</text>
</a>
</g>
</g>
<!-- Node1&#45;&gt;Node47 -->
<g id="edge127" class="edge">
<title>Node1&#45;&gt;Node47</title>
<path fill="none" stroke="#191970" d="M23.4152,-1187.5866C27.8245,-1139.5518 48.027,-931.0274 81,-762.7763 113.7962,-595.4275 171.952,-397.6083 190.8693,-334.8897"/>
<polygon fill="#191970" stroke="#191970" points="194.2884,-335.6747 193.8384,-325.0895 187.5891,-333.645 194.2884,-335.6747"/>
</g>
<!-- Node48 -->
<g id="node48" class="node">
<title>Node48</title>
<g id="a_node48"><a xlink:href="../../d6/dcf/pythia6425mod_8f.html#af371bb9349e270ffd2a614762869f11c" target="_top" xlink:title="pypile">
<polygon fill="none" stroke="#000000" points="610.5,-17.7763 610.5,-37.7763 657.5,-37.7763 657.5,-17.7763 610.5,-17.7763"/>
<text text-anchor="middle" x="634" y="-24.7763" font-family="FreeSans" font-size="10.00" fill="#000000">pypile</text>
</a>
</g>
</g>
<!-- Node1&#45;&gt;Node48 -->
<g id="edge137" class="edge">
<title>Node1&#45;&gt;Node48</title>
<path fill="none" stroke="#191970" d="M22.6653,-1187.6114C24.5081,-1076.9094 41.8832,-98.3861 81,-52.7763 115.274,-12.8132 144.3526,-28.7763 197,-28.7763 197,-28.7763 197,-28.7763 339.5,-28.7763 433.9284,-28.7763 545.387,-28.2559 600.1563,-27.9659"/>
<polygon fill="#191970" stroke="#191970" points="600.3515,-31.465 610.3325,-27.9112 600.3138,-24.4651 600.3515,-31.465"/>
</g>
<!-- Node49 -->
<g id="node49" class="node">
<title>Node49</title>
<g id="a_node49"><a xlink:href="../../d6/dcf/pythia6425mod_8f.html#a0a7b951601d4f220cf0c8e93b43d2f79" target="_top" xlink:title="pysave">
<polygon fill="none" stroke="#000000" points="696,-439.7763 696,-459.7763 748,-459.7763 748,-439.7763 696,-439.7763"/>
<text text-anchor="middle" x="722" y="-446.7763" font-family="FreeSans" font-size="10.00" fill="#000000">pysave</text>
</a>
</g>
</g>
<!-- Node1&#45;&gt;Node49 -->
<g id="edge139" class="edge">
<title>Node1&#45;&gt;Node49</title>
<path fill="none" stroke="#191970" d="M22.6595,-1187.6932C24.0568,-1104.5082 35.2699,-530.5605 81,-364.7763 104.3083,-280.2773 107.8783,-250.6169 170,-188.7763 296.9078,-62.4427 414.24,-77.0559 572,-161.7763 675.6179,-217.4214 709.9705,-373.6435 719.1362,-429.5562"/>
<polygon fill="#191970" stroke="#191970" points="715.7044,-430.2678 720.6863,-439.6182 722.6228,-429.2019 715.7044,-430.2678"/>
</g>
<!-- Node50 -->
<g id="node50" class="node">
<title>Node50</title>
<g id="a_node50"><a xlink:href="../../d6/dcf/pythia6425mod_8f.html#aec7740054c676cf077fa61911c75a152" target="_top" xlink:title="upinit">
<polygon fill="none" stroke="#ff0000" points="84.5,-1965.7763 84.5,-1985.7763 130.5,-1985.7763 130.5,-1965.7763 84.5,-1965.7763"/>
<text text-anchor="middle" x="107.5" y="-1972.7763" font-family="FreeSans" font-size="10.00" fill="#000000">upinit</text>
</a>
</g>
</g>
<!-- Node1&#45;&gt;Node50 -->
<g id="edge145" class="edge">
<title>Node1&#45;&gt;Node50</title>
<path fill="none" stroke="#191970" d="M22.6562,-1207.9047C23.9521,-1285.7002 34.0784,-1789.1999 81,-1932.7763 83.7964,-1941.333 88.6113,-1949.9417 93.3762,-1957.1847"/>
<polygon fill="#191970" stroke="#191970" points="90.619,-1959.3487 99.2294,-1965.5222 96.3481,-1955.3266 90.619,-1959.3487"/>
</g>
<!-- Node4&#45;&gt;Node5 -->
<g id="edge4" class="edge">
<title>Node4&#45;&gt;Node5</title>
<path fill="none" stroke="#191970" d="M658.5997,-1694.5677C681.7819,-1699.2251 717.4264,-1706.7536 748,-1714.7763 803.7533,-1729.4065 817.742,-1733.3203 872,-1752.7763 887.8572,-1758.4624 905.1705,-1765.4982 919.6225,-1771.6105"/>
<polygon fill="#191970" stroke="#191970" points="918.5466,-1774.9568 929.1176,-1775.6666 921.2965,-1768.5195 918.5466,-1774.9568"/>
</g>
<!-- Node5&#45;&gt;Node3 -->
<g id="edge5" class="edge">
<title>Node5&#45;&gt;Node3</title>
<path fill="none" stroke="#191970" d="M977.0933,-1778.0865C993.1697,-1773.1598 1014.4514,-1766.638 1033.1543,-1760.9065"/>
<polygon fill="#191970" stroke="#191970" points="1034.4077,-1764.1831 1042.9433,-1757.9066 1032.3567,-1757.4903 1034.4077,-1764.1831"/>
</g>
<!-- Node6&#45;&gt;Node5 -->
<g id="edge7" class="edge">
<title>Node6&#45;&gt;Node5</title>
<path fill="none" stroke="#191970" d="M748.1647,-2016.675C780.7977,-2018.8144 836.596,-2017.4222 872,-1988.7763 929.8738,-1941.95 946.037,-1847.3867 950.4235,-1805.9744"/>
<polygon fill="#191970" stroke="#191970" points="953.9298,-1806.0691 951.3734,-1795.7873 946.96,-1805.4191 953.9298,-1806.0691"/>
</g>
<!-- Node8 -->
<g id="node8" class="node">
<title>Node8</title>
<g id="a_node8"><a xlink:href="../../de/d56/classFatras_1_1Test_1_1Particle.html#a13975fe3d3caeb017d7837bbc7d8d048" target="_top" xlink:title="Access methods: beta.">
<polygon fill="none" stroke="#000000" points="455,-1591.7763 455,-1623.7763 572,-1623.7763 572,-1591.7763 455,-1591.7763"/>
<text text-anchor="start" x="463" y="-1610.7763" font-family="FreeSans" font-size="10.00" fill="#000000">Fatras::Test::Particle</text>
<text text-anchor="middle" x="513.5" y="-1598.7763" font-family="FreeSans" font-size="10.00" fill="#000000">::beta</text>
</a>
</g>
</g>
<!-- Node7&#45;&gt;Node8 -->
<g id="edge9" class="edge">
<title>Node7&#45;&gt;Node8</title>
<path fill="none" stroke="#191970" d="M344.5198,-1263.9891C367.8292,-1311.4117 465.8525,-1510.8384 500.9411,-1582.2254"/>
<polygon fill="#191970" stroke="#191970" points="497.9079,-1583.9889 505.4602,-1591.4195 504.19,-1580.901 497.9079,-1583.9889"/>
</g>
<!-- Node9 -->
<g id="node9" class="node">
<title>Node9</title>
<g id="a_node9"><a xlink:href="../../db/dc0/classHiStrng.html#a9c8d7f68590dc5bf34483b740c49ba0b" target="_top" xlink:title="HiStrng::pt">
<polygon fill="none" stroke="#ff0000" points="478,-363.7763 478,-383.7763 549,-383.7763 549,-363.7763 478,-363.7763"/>
<text text-anchor="middle" x="513.5" y="-370.7763" font-family="FreeSans" font-size="10.00" fill="#000000">HiStrng::pt</text>
</a>
</g>
</g>
<!-- Node7&#45;&gt;Node9 -->
<g id="edge10" class="edge">
<title>Node7&#45;&gt;Node9</title>
<path fill="none" stroke="#191970" d="M343.7116,-1243.6502C357.3273,-1210.4128 400.3522,-1101.3591 419,-1006.7763 458.7534,-805.1452 413.5894,-747.0737 455,-545.7763 466.7055,-488.8757 491.8482,-424.8205 505.0343,-393.3579"/>
<polygon fill="#191970" stroke="#191970" points="508.3232,-394.5673 509.0111,-383.9948 501.8802,-391.8308 508.3232,-394.5673"/>
</g>
<!-- Node10 -->
<g id="node10" class="node">
<title>Node10</title>
<g id="a_node10"><a xlink:href="../../d6/dcf/pythia6425mod_8f.html#aa8c99978a55999fa0b1fd2a946d8553a" target="_top" xlink:title="pyangl">
<polygon fill="none" stroke="#000000" points="927,-1028.7763 927,-1048.7763 977,-1048.7763 977,-1028.7763 927,-1028.7763"/>
<text text-anchor="middle" x="952" y="-1035.7763" font-family="FreeSans" font-size="10.00" fill="#000000">pyangl</text>
</a>
</g>
</g>
<!-- Node7&#45;&gt;Node10 -->
<g id="edge11" class="edge">
<title>Node7&#45;&gt;Node10</title>
<path fill="none" stroke="#191970" d="M366.1902,-1256.5305C471.227,-1267.2478 851.3806,-1304.8458 872,-1289.7763 881.7349,-1282.6617 929.7286,-1116.9064 946.3342,-1058.7336"/>
<polygon fill="#191970" stroke="#191970" points="949.7624,-1059.4742 949.135,-1048.8979 943.03,-1057.557 949.7624,-1059.4742"/>
</g>
<!-- Node11 -->
<g id="node11" class="node">
<title>Node11</title>
<g id="a_node11"><a xlink:href="../../da/d0a/CylinderKalman_8cpp.html#ab74daa0c9784c63e060bfb98cc06fbf5" target="_top" xlink:title="sign">
<polygon fill="none" stroke="#000000" points="1057.5,-1488.7763 1057.5,-1508.7763 1094.5,-1508.7763 1094.5,-1488.7763 1057.5,-1488.7763"/>
<text text-anchor="middle" x="1076" y="-1495.7763" font-family="FreeSans" font-size="10.00" fill="#000000">sign</text>
</a>
</g>
</g>
<!-- Node7&#45;&gt;Node11 -->
<g id="edge38" class="edge">
<title>Node7&#45;&gt;Node11</title>
<path fill="none" stroke="#191970" d="M357.6055,-1263.7898C400.2536,-1287.0975 510.7679,-1345.8731 608,-1383.7763 768.1152,-1446.1928 972.5705,-1482.4819 1047.1409,-1494.3892"/>
<polygon fill="#191970" stroke="#191970" points="1046.7574,-1497.8718 1057.18,-1495.9693 1047.8458,-1490.957 1046.7574,-1497.8718"/>
</g>
<!-- Node12 -->
<g id="node12" class="node">
<title>Node12</title>
<g id="a_node12"><a xlink:href="../../d6/dcf/pythia6425mod_8f.html#ac28b7ef95cee2881a46f71d3a88d05ac" target="_top" xlink:title="pyr">
<polygon fill="none" stroke="#000000" points="1059.5,-324.7763 1059.5,-344.7763 1092.5,-344.7763 1092.5,-324.7763 1059.5,-324.7763"/>
<text text-anchor="middle" x="1076" y="-331.7763" font-family="FreeSans" font-size="10.00" fill="#000000">pyr</text>
</a>
</g>
</g>
<!-- Node7&#45;&gt;Node12 -->
<g id="edge13" class="edge">
<title>Node7&#45;&gt;Node12</title>
<path fill="none" stroke="#191970" d="M366.2452,-1260.5971C462.0734,-1284.3968 787.0581,-1359.4143 872,-1304.7763 904.4511,-1283.9025 891.0418,-1260.4348 908,-1225.7763 945.0458,-1150.0637 971.3841,-1138.3918 996,-1057.7763 1037.8598,-920.6883 1068.3858,-458.2382 1074.7644,-355.2287"/>
<polygon fill="#191970" stroke="#191970" points="1078.2754,-355.1551 1075.3935,-344.9597 1071.2885,-354.7269 1078.2754,-355.1551"/>
</g>
<!-- Node13 -->
<g id="node13" class="node">
<title>Node13</title>
<g id="a_node13"><a xlink:href="../../d6/dcf/pythia6425mod_8f.html#a98ffa3df00dbe1c8a9944e3453e44580" target="_top" xlink:title="pyrobo">
<polygon fill="none" stroke="#000000" points="488,-938.7763 488,-958.7763 539,-958.7763 539,-938.7763 488,-938.7763"/>
<text text-anchor="middle" x="513.5" y="-945.7763" font-family="FreeSans" font-size="10.00" fill="#000000">pyrobo</text>
</a>
</g>
</g>
<!-- Node7&#45;&gt;Node13 -->
<g id="edge14" class="edge">
<title>Node7&#45;&gt;Node13</title>
<path fill="none" stroke="#191970" d="M345.2893,-1243.6284C370.318,-1199.7562 469.4492,-1025.9918 502.6212,-967.8455"/>
<polygon fill="#191970" stroke="#191970" points="505.7737,-969.3826 507.689,-958.9623 499.6936,-965.9139 505.7737,-969.3826"/>
</g>
<!-- Node7&#45;&gt;Node24 -->
<g id="edge34" class="edge">
<title>Node7&#45;&gt;Node24</title>
<path fill="none" stroke="#191970" d="M354.9413,-1243.7483C385.3045,-1224.0297 452.9782,-1180.0807 489.3204,-1156.4792"/>
<polygon fill="#191970" stroke="#191970" points="491.3628,-1159.3262 497.8431,-1150.9443 487.5502,-1153.4555 491.3628,-1159.3262"/>
</g>
<!-- Node10&#45;&gt;Node11 -->
<g id="edge12" class="edge">
<title>Node10&#45;&gt;Node11</title>
<path fill="none" stroke="#191970" d="M954.7052,-1048.8119C970.3331,-1106.7861 1049.1119,-1399.03 1070.5865,-1478.694"/>
<polygon fill="#191970" stroke="#191970" points="1067.2416,-1479.7332 1073.2238,-1488.4775 1074.0004,-1477.9112 1067.2416,-1479.7332"/>
</g>
<!-- Node14 -->
<g id="node14" class="node">
<title>Node14</title>
<g id="a_node14"><a xlink:href="../../d6/dcf/pythia6425mod_8f.html#a8a7efe2037220dc632000fb06895ebca" target="_top" xlink:title="pyerrm">
<polygon fill="none" stroke="#000000" points="608,-861.7763 608,-881.7763 660,-881.7763 660,-861.7763 608,-861.7763"/>
<text text-anchor="middle" x="634" y="-868.7763" font-family="FreeSans" font-size="10.00" fill="#000000">pyerrm</text>
</a>
</g>
</g>
<!-- Node13&#45;&gt;Node14 -->
<g id="edge15" class="edge">
<title>Node13&#45;&gt;Node14</title>
<path fill="none" stroke="#191970" d="M539.068,-939.747C549.6141,-935.5455 561.7422,-930.0779 572,-923.7763 588.1449,-913.8582 604.4875,-899.9569 616.338,-889.0226"/>
<polygon fill="#191970" stroke="#191970" points="618.8961,-891.421 623.7669,-882.0122 614.0918,-886.3299 618.8961,-891.421"/>
</g>
<!-- Node14&#45;&gt;Node5 -->
<g id="edge33" class="edge">
<title>Node14&#45;&gt;Node5</title>
<path fill="none" stroke="#191970" d="M638.1048,-881.803C647.8927,-905.6457 673.47,-967.5633 696,-1018.7763 733.7996,-1104.6987 717.2077,-1144.8199 784,-1210.7763 814.4399,-1240.8353 846.8431,-1215.175 872,-1249.7763 917.4589,-1312.3015 895.2553,-1519.5302 908,-1595.7763 918.477,-1658.456 937.2422,-1731.3558 946.5109,-1765.7986"/>
<polygon fill="#191970" stroke="#191970" points="943.1656,-1766.8351 949.164,-1775.5683 949.9209,-1765.0006 943.1656,-1766.8351"/>
</g>
<!-- Node15 -->
<g id="node15" class="node">
<title>Node15</title>
<g id="a_node15"><a xlink:href="../../d5/d89/classValueGen1.html#a072deb230ac8bf0f6742e0484e030c52" target="_top" xlink:title="ValueGen1::i2">
<polygon fill="none" stroke="#000000" points="784,-720.7763 784,-740.7763 872,-740.7763 872,-720.7763 784,-720.7763"/>
<text text-anchor="middle" x="828" y="-727.7763" font-family="FreeSans" font-size="10.00" fill="#000000">ValueGen1::i2</text>
</a>
</g>
</g>
<!-- Node14&#45;&gt;Node15 -->
<g id="edge16" class="edge">
<title>Node14&#45;&gt;Node15</title>
<path fill="none" stroke="#191970" d="M644.5587,-861.5333C656.5767,-850.0866 677.0075,-831.2607 696,-816.7763 731.2129,-789.9217 774.6852,-762.6354 801.884,-746.2056"/>
<polygon fill="#191970" stroke="#191970" points="804.0109,-749.0112 810.7856,-740.8654 800.4098,-743.0085 804.0109,-749.0112"/>
</g>
<!-- Node14&#45;&gt;Node16 -->
<g id="edge17" class="edge">
<title>Node14&#45;&gt;Node16</title>
<path fill="none" stroke="#191970" d="M640.9052,-881.8203C655.612,-903.2119 690.2228,-953.5549 709.1256,-981.0499"/>
<polygon fill="#191970" stroke="#191970" points="706.3329,-983.1659 714.8824,-989.4235 712.1012,-979.2002 706.3329,-983.1659"/>
</g>
<!-- Node16&#45;&gt;Node2 -->
<g id="edge20" class="edge">
<title>Node16&#45;&gt;Node2</title>
<path fill="none" stroke="#191970" d="M723.6593,-1009.9159C729.0465,-1041.1833 747.8272,-1138.3658 784,-1210.7763 791.4627,-1225.7151 802.7728,-1240.7773 812.0572,-1251.9438"/>
<polygon fill="#191970" stroke="#191970" points="809.501,-1254.3397 818.665,-1259.6569 814.817,-1249.7855 809.501,-1254.3397"/>
</g>
<!-- Node16&#45;&gt;Node3 -->
<g id="edge21" class="edge">
<title>Node16&#45;&gt;Node3</title>
<path fill="none" stroke="#191970" d="M739.0469,-1009.9554C769.9824,-1029.2752 835.5313,-1074.2433 872,-1128.7763 907.6943,-1182.1515 1040.4756,-1627.5344 1070.1101,-1727.7884"/>
<polygon fill="#191970" stroke="#191970" points="1066.8094,-1728.9694 1072.9975,-1737.5693 1073.5229,-1726.9875 1066.8094,-1728.9694"/>
</g>
<!-- Node16&#45;&gt;Node15 -->
<g id="edge19" class="edge">
<title>Node16&#45;&gt;Node15</title>
<path fill="none" stroke="#191970" d="M722.8906,-989.5808C726.1752,-956.3192 739.8102,-848.7965 784,-773.7763 789.7733,-763.9751 798.3581,-754.8868 806.4159,-747.6146"/>
<polygon fill="#191970" stroke="#191970" points="808.8432,-750.1444 814.1745,-740.9886 804.2972,-744.8214 808.8432,-750.1444"/>
</g>
<!-- Node17 -->
<g id="node17" class="node">
<title>Node17</title>
<g id="a_node17"><a xlink:href="../../d5/d89/classValueGen1.html#a9558bbb6f1b9bfcb2631b70b720742fc" target="_top" xlink:title="ValueGen1::i1">
<polygon fill="none" stroke="#000000" points="908,-950.7763 908,-970.7763 996,-970.7763 996,-950.7763 908,-950.7763"/>
<text text-anchor="middle" x="952" y="-957.7763" font-family="FreeSans" font-size="10.00" fill="#000000">ValueGen1::i1</text>
</a>
</g>
</g>
<!-- Node16&#45;&gt;Node17 -->
<g id="edge18" class="edge">
<title>Node16&#45;&gt;Node17</title>
<path fill="none" stroke="#191970" d="M744.0912,-991.4638C755.7984,-987.3627 770.5116,-982.6842 784,-979.7763 821.413,-971.7109 864.297,-966.9325 897.3733,-964.185"/>
<polygon fill="#191970" stroke="#191970" points="898.0562,-967.642 907.7484,-963.3628 897.5031,-960.6638 898.0562,-967.642"/>
</g>
<!-- Node18 -->
<g id="node18" class="node">
<title>Node18</title>
<g id="a_node18"><a xlink:href="../../d5/d89/classValueGen1.html#a4d833b840495a0aee4e37d3c6bce1650" target="_top" xlink:title="ValueGen1::i5">
<polygon fill="none" stroke="#000000" points="784,-783.7763 784,-803.7763 872,-803.7763 872,-783.7763 784,-783.7763"/>
<text text-anchor="middle" x="828" y="-790.7763" font-family="FreeSans" font-size="10.00" fill="#000000">ValueGen1::i5</text>
</a>
</g>
</g>
<!-- Node16&#45;&gt;Node18 -->
<g id="edge22" class="edge">
<title>Node16&#45;&gt;Node18</title>
<path fill="none" stroke="#191970" d="M727.2566,-989.5608C743.9638,-957.092 796.0398,-855.8877 818.0353,-813.1416"/>
<polygon fill="#191970" stroke="#191970" points="821.2484,-814.5469 822.7117,-804.0536 815.0241,-811.344 821.2484,-814.5469"/>
</g>
<!-- Node19 -->
<g id="node19" class="node">
<title>Node19</title>
<g id="a_node19"><a xlink:href="../../dc/d9f/hcalUtil_8C.html#af562b1ac3ac927ecde202ce0501a97a6" target="_top" xlink:title="ps">
<polygon fill="none" stroke="#ff0000" points="813.5,-911.7763 813.5,-931.7763 842.5,-931.7763 842.5,-911.7763 813.5,-911.7763"/>
<text text-anchor="middle" x="828" y="-918.7763" font-family="FreeSans" font-size="10.00" fill="#000000">ps</text>
</a>
</g>
</g>
<!-- Node16&#45;&gt;Node19 -->
<g id="edge23" class="edge">
<title>Node16&#45;&gt;Node19</title>
<path fill="none" stroke="#191970" d="M732.4667,-989.7378C744.4024,-978.5568 764.7596,-960.2811 784,-946.7763 790.4272,-942.2652 797.7296,-937.8567 804.5127,-934.0292"/>
<polygon fill="#191970" stroke="#191970" points="806.2178,-937.0859 813.3096,-929.2147 802.8571,-930.9454 806.2178,-937.0859"/>
</g>
<!-- Node20 -->
<g id="node20" class="node">
<title>Node20</title>
<g id="a_node20"><a xlink:href="../../d6/dcf/pythia6425mod_8f.html#a56718d08dbb42b3b978fc9b5bd6970e6" target="_top" xlink:title="pylogo">
<polygon fill="none" stroke="#ff0000" points="803,-1181.7763 803,-1201.7763 853,-1201.7763 853,-1181.7763 803,-1181.7763"/>
<text text-anchor="middle" x="828" y="-1188.7763" font-family="FreeSans" font-size="10.00" fill="#000000">pylogo</text>
</a>
</g>
</g>
<!-- Node16&#45;&gt;Node20 -->
<g id="edge24" class="edge">
<title>Node16&#45;&gt;Node20</title>
<path fill="none" stroke="#191970" d="M723.3261,-1010.0199C727.4417,-1038.1548 742.3238,-1117.7752 784,-1166.7763 787.0275,-1170.3359 790.6963,-1173.4956 794.6092,-1176.2678"/>
<polygon fill="#191970" stroke="#191970" points="793.0672,-1179.4298 803.411,-1181.7226 796.7547,-1173.4798 793.0672,-1179.4298"/>
</g>
<!-- Node21 -->
<g id="node21" class="node">
<title>Node21</title>
<g id="a_node21"><a xlink:href="../../d6/dcf/pythia6425mod_8f.html#ab0dbe916b7d36854c02faf180f41d585" target="_top" xlink:title="pyname">
<polygon fill="none" stroke="#000000" points="923.5,-1565.7763 923.5,-1585.7763 980.5,-1585.7763 980.5,-1565.7763 923.5,-1565.7763"/>
<text text-anchor="middle" x="952" y="-1572.7763" font-family="FreeSans" font-size="10.00" fill="#000000">pyname</text>
</a>
</g>
</g>
<!-- Node16&#45;&gt;Node21 -->
<g id="edge26" class="edge">
<title>Node16&#45;&gt;Node21</title>
<path fill="none" stroke="#191970" d="M724.39,-1009.8213C730.473,-1033.4366 748.6233,-1093.1692 784,-1128.7763 814.6807,-1159.6569 845.4524,-1137.278 872,-1171.7763 895.9499,-1202.8989 937.7114,-1478.142 949.0746,-1555.5834"/>
<polygon fill="#191970" stroke="#191970" points="945.6174,-1556.1316 950.5248,-1565.5214 952.544,-1555.1207 945.6174,-1556.1316"/>
</g>
<!-- Node22 -->
<g id="node22" class="node">
<title>Node22</title>
<g id="a_node22"><a xlink:href="../../d6/dcf/pythia6425mod_8f.html#a6cee1eea51c820d9e90932c9eca205b7" target="_top" xlink:title="pyp">
<polygon fill="none" stroke="#ff0000" points="810.5,-989.7763 810.5,-1009.7763 845.5,-1009.7763 845.5,-989.7763 810.5,-989.7763"/>
<text text-anchor="middle" x="828" y="-996.7763" font-family="FreeSans" font-size="10.00" fill="#000000">pyp</text>
</a>
</g>
</g>
<!-- Node16&#45;&gt;Node22 -->
<g id="edge27" class="edge">
<title>Node16&#45;&gt;Node22</title>
<path fill="none" stroke="#191970" d="M744.2211,-999.7763C760.5098,-999.7763 782.7343,-999.7763 800.2,-999.7763"/>
<polygon fill="#191970" stroke="#191970" points="800.3643,-1003.2764 810.3642,-999.7763 800.3642,-996.2764 800.3643,-1003.2764"/>
</g>
<!-- Node20&#45;&gt;Node5 -->
<g id="edge25" class="edge">
<title>Node20&#45;&gt;Node5</title>
<path fill="none" stroke="#191970" d="M853.1687,-1200.8103C860.3885,-1204.6307 867.5128,-1209.843 872,-1216.7763 917.9667,-1287.8006 894.4267,-1512.271 908,-1595.7763 918.1958,-1658.5023 937.0921,-1731.3806 946.4508,-1765.8085"/>
<polygon fill="#191970" stroke="#191970" points="943.1091,-1766.8568 949.1312,-1775.5738 949.8594,-1765.004 943.1091,-1766.8568"/>
</g>
<!-- Node22&#45;&gt;Node10 -->
<g id="edge29" class="edge">
<title>Node22&#45;&gt;Node10</title>
<path fill="none" stroke="#191970" d="M845.5032,-1005.2814C864.0789,-1011.1237 893.9178,-1020.5085 917.2915,-1027.8599"/>
<polygon fill="#191970" stroke="#191970" points="916.2718,-1031.2082 926.8612,-1030.8698 918.372,-1024.5307 916.2718,-1031.2082"/>
</g>
<!-- Node22&#45;&gt;Node11 -->
<g id="edge32" class="edge">
<title>Node22&#45;&gt;Node11</title>
<path fill="none" stroke="#191970" d="M835.2165,-1009.7895C860.1576,-1044.7289 944.0294,-1165.0307 996,-1273.7763 1030.805,-1346.604 1058.9419,-1438.7974 1070.4219,-1478.7764"/>
<polygon fill="#191970" stroke="#191970" points="1067.1145,-1479.9426 1073.2099,-1488.6085 1073.849,-1478.0329 1067.1145,-1479.9426"/>
</g>
<!-- Node22&#45;&gt;Node17 -->
<g id="edge28" class="edge">
<title>Node22&#45;&gt;Node17</title>
<path fill="none" stroke="#191970" d="M845.5032,-994.2713C862.1763,-989.0273 887.9234,-980.9295 909.9248,-974.0097"/>
<polygon fill="#191970" stroke="#191970" points="911.2348,-977.2668 919.724,-970.9277 909.1345,-970.5892 911.2348,-977.2668"/>
</g>
<!-- Node23 -->
<g id="node23" class="node">
<title>Node23</title>
<g id="a_node23"><a xlink:href="../../d6/dcf/pythia6425mod_8f.html#ad69903a1054f4f77d45fd8fe4c687aa9" target="_top" xlink:title="pymass">
<polygon fill="none" stroke="#000000" points="924.5,-362.7763 924.5,-382.7763 979.5,-382.7763 979.5,-362.7763 924.5,-362.7763"/>
<text text-anchor="middle" x="952" y="-369.7763" font-family="FreeSans" font-size="10.00" fill="#000000">pymass</text>
</a>
</g>
</g>
<!-- Node22&#45;&gt;Node23 -->
<g id="edge30" class="edge">
<title>Node22&#45;&gt;Node23</title>
<path fill="none" stroke="#191970" d="M838.2546,-989.4967C848.5957,-978.461 864.1233,-959.9192 872,-940.7763 914.2921,-837.9932 943.654,-482.6153 950.4808,-393.2794"/>
<polygon fill="#191970" stroke="#191970" points="953.9858,-393.3439 951.2478,-383.1089 947.0056,-392.8174 953.9858,-393.3439"/>
</g>
<!-- Node23&#45;&gt;Node12 -->
<g id="edge31" class="edge">
<title>Node23&#45;&gt;Node12</title>
<path fill="none" stroke="#191970" d="M979.5196,-364.3429C1000.3946,-357.9457 1028.9161,-349.2053 1049.529,-342.8884"/>
<polygon fill="#191970" stroke="#191970" points="1050.6888,-346.1937 1059.2244,-339.9172 1048.6378,-339.5009 1050.6888,-346.1937"/>
</g>
<!-- Node24&#45;&gt;Node14 -->
<g id="edge37" class="edge">
<title>Node24&#45;&gt;Node14</title>
<path fill="none" stroke="#191970" d="M520.6555,-1130.6545C532.8347,-1112.997 557.6643,-1075.0718 572,-1039.7763 596.6626,-979.0551 575.1051,-953.4617 608,-896.7763 609.5322,-894.136 611.4237,-891.5946 613.4821,-889.2103"/>
<polygon fill="#191970" stroke="#191970" points="616.2833,-891.3566 620.8437,-881.7934 611.315,-886.4254 616.2833,-891.3566"/>
</g>
<!-- Node24&#45;&gt;Node15 -->
<g id="edge36" class="edge">
<title>Node24&#45;&gt;Node15</title>
<path fill="none" stroke="#191970" d="M520.0501,-1130.6916C548.8734,-1086.5883 668.1405,-906.938 784,-773.7763 791.7821,-764.832 801.0878,-755.56 809.1328,-747.9259"/>
<polygon fill="#191970" stroke="#191970" points="811.7287,-750.2909 816.6545,-740.9107 806.9543,-745.1718 811.7287,-750.2909"/>
</g>
<!-- Node24&#45;&gt;Node17 -->
<g id="edge35" class="edge">
<title>Node24&#45;&gt;Node17</title>
<path fill="none" stroke="#191970" d="M538.4365,-1135.0374C598.2672,-1120.6929 753.768,-1079.9781 872,-1018.7763 894.2382,-1007.2649 917.1258,-990.0241 932.6921,-977.3302"/>
<polygon fill="#191970" stroke="#191970" points="935.0826,-979.8944 940.5363,-970.811 930.6085,-974.5109 935.0826,-979.8944"/>
</g>
<!-- Node25&#45;&gt;Node5 -->
<g id="edge42" class="edge">
<title>Node25&#45;&gt;Node5</title>
<path fill="none" stroke="#191970" d="M837.3202,-1661.8481C858.2355,-1684.4502 909.1372,-1739.4568 935.526,-1767.9738"/>
<polygon fill="#191970" stroke="#191970" points="933.2109,-1770.6252 942.5717,-1775.5877 938.3486,-1765.8709 933.2109,-1770.6252"/>
</g>
<!-- Node25&#45;&gt;Node11 -->
<g id="edge43" class="edge">
<title>Node25&#45;&gt;Node11</title>
<path fill="none" stroke="#191970" d="M855.1544,-1654.7958C890.539,-1657.3223 952.963,-1656.8254 996,-1628.7763 1036.3374,-1602.4867 1059.7144,-1548.0327 1069.8873,-1518.6338"/>
<polygon fill="#191970" stroke="#191970" points="1073.2447,-1519.6278 1073.0447,-1509.0349 1066.5952,-1517.4405 1073.2447,-1519.6278"/>
</g>
<!-- Node25&#45;&gt;Node21 -->
<g id="edge41" class="edge">
<title>Node25&#45;&gt;Node21</title>
<path fill="none" stroke="#191970" d="M844.4662,-1641.6841C865.4963,-1628.7947 902.1035,-1606.3581 926.6891,-1591.2895"/>
<polygon fill="#191970" stroke="#191970" points="928.7686,-1594.1201 935.4657,-1585.9103 925.1106,-1588.1518 928.7686,-1594.1201"/>
</g>
<!-- Node25&#45;&gt;Node23 -->
<g id="edge40" class="edge">
<title>Node25&#45;&gt;Node23</title>
<path fill="none" stroke="#191970" d="M829.3502,-1641.7136C835.0362,-1599.1368 857.4112,-1429.5648 872,-1289.7763 909.417,-931.2508 943.0066,-492.5923 950.4636,-393.3703"/>
<polygon fill="#191970" stroke="#191970" points="953.9681,-393.4405 951.2251,-383.2069 946.9876,-392.9175 953.9681,-393.4405"/>
</g>
<!-- Node26&#45;&gt;Node10 -->
<g id="edge45" class="edge">
<title>Node26&#45;&gt;Node10</title>
<path fill="none" stroke="#191970" d="M348.063,-997.9273C365.6436,-1017.8802 408.1194,-1061.6677 455,-1077.7763 540.5892,-1107.1856 818.0123,-1062.5187 916.7281,-1045.177"/>
<polygon fill="#191970" stroke="#191970" points="917.5528,-1048.5855 926.7892,-1043.3951 916.332,-1041.6928 917.5528,-1048.5855"/>
</g>
<!-- Node26&#45;&gt;Node11 -->
<g id="edge48" class="edge">
<title>Node26&#45;&gt;Node11</title>
<path fill="none" stroke="#191970" d="M362.5975,-992.5947C404.7562,-1000.5492 496.7673,-1014.0164 572,-997.7763 673.1037,-975.9516 682.8963,-923.601 784,-901.7763 877.6463,-881.5614 933.9719,-867.7641 996,-940.7763 1031.6957,-982.7931 1066.5352,-1383.1855 1074.3684,-1478.4898"/>
<polygon fill="#191970" stroke="#191970" points="1070.8878,-1478.8724 1075.188,-1488.5553 1077.8648,-1478.3042 1070.8878,-1478.8724"/>
</g>
<!-- Node26&#45;&gt;Node13 -->
<g id="edge47" class="edge">
<title>Node26&#45;&gt;Node13</title>
<path fill="none" stroke="#191970" d="M362.6059,-982.5974C392.0118,-976.0065 443.1221,-964.5507 477.6177,-956.8189"/>
<polygon fill="#191970" stroke="#191970" points="478.7551,-960.1509 487.7474,-954.5485 477.224,-953.3204 478.7551,-960.1509"/>
</g>
<!-- Node26&#45;&gt;Node14 -->
<g id="edge46" class="edge">
<title>Node26&#45;&gt;Node14</title>
<path fill="none" stroke="#191970" d="M362.6882,-992.6239C407.4387,-1000.6159 507.0198,-1011.6305 572,-967.7763 601.3263,-947.9844 586.9526,-925.215 608,-896.7763 609.9744,-894.1086 612.2457,-891.4739 614.6063,-888.973"/>
<polygon fill="#191970" stroke="#191970" points="617.0573,-891.4715 621.7486,-881.9719 612.1572,-886.4726 617.0573,-891.4715"/>
</g>
<!-- Node27&#45;&gt;Node14 -->
<g id="edge50" class="edge">
<title>Node27&#45;&gt;Node14</title>
<path fill="none" stroke="#191970" d="M132.2524,-927.9273C201.7654,-922.5936 404.6138,-906.0603 572,-882.7763 580.3906,-881.6092 589.3826,-880.1407 597.8429,-878.6603"/>
<polygon fill="#191970" stroke="#191970" points="598.599,-882.0805 607.8229,-876.868 597.3617,-875.1908 598.599,-882.0805"/>
</g>
<!-- Node28&#45;&gt;Node5 -->
<g id="edge53" class="edge">
<title>Node28&#45;&gt;Node5</title>
<path fill="none" stroke="#191970" d="M199.2382,-1574.1911C206.8552,-1608.6337 232.8123,-1717.9127 260,-1739.7763 305.6297,-1776.4706 725.4802,-1793.7837 784,-1795.7763 823.0885,-1797.1073 832.9645,-1798.2066 872,-1795.7763 886.6946,-1794.8615 902.8199,-1793.0101 916.7193,-1791.1463"/>
<polygon fill="#191970" stroke="#191970" points="917.4326,-1794.5808 926.8537,-1789.734 916.4663,-1787.6478 917.4326,-1794.5808"/>
</g>
<!-- Node28&#45;&gt;Node17 -->
<g id="edge52" class="edge">
<title>Node28&#45;&gt;Node17</title>
<path fill="none" stroke="#191970" d="M221.0096,-1560.075C281.6246,-1550.2153 445.0489,-1520.415 572,-1467.7763 643.6068,-1438.0855 829.2797,-1354.4607 872,-1289.7763 938.9599,-1188.3898 861.7464,-1131.1305 908,-1018.7763 914.2113,-1003.6886 925.347,-989.0686 934.8612,-978.2814"/>
<polygon fill="#191970" stroke="#191970" points="937.517,-980.564 941.7122,-970.8351 932.3657,-975.8244 937.517,-980.564"/>
</g>
<!-- Node29 -->
<g id="node29" class="node">
<title>Node29</title>
<g id="a_node29"><a xlink:href="../../d6/dcf/pythia6425mod_8f.html#ad7324915c7a7d7f155890fd467a05d8e" target="_top" xlink:title="pywidt">
<polygon fill="none" stroke="#ff0000" points="314.5,-1475.7763 314.5,-1495.7763 364.5,-1495.7763 364.5,-1475.7763 314.5,-1475.7763"/>
<text text-anchor="middle" x="339.5" y="-1482.7763" font-family="FreeSans" font-size="10.00" fill="#000000">pywidt</text>
</a>
</g>
</g>
<!-- Node28&#45;&gt;Node29 -->
<g id="edge54" class="edge">
<title>Node28&#45;&gt;Node29</title>
<path fill="none" stroke="#191970" d="M215.3377,-1553.7389C239.7855,-1540.3569 283.2742,-1516.5525 311.7485,-1500.9666"/>
<polygon fill="#191970" stroke="#191970" points="313.6889,-1503.8946 320.7802,-1496.0229 310.3278,-1497.7543 313.6889,-1503.8946"/>
</g>
<!-- Node29&#45;&gt;Node8 -->
<g id="edge55" class="edge">
<title>Node29&#45;&gt;Node8</title>
<path fill="none" stroke="#191970" d="M354.0359,-1495.9681C382.0138,-1515.5848 443.9306,-1558.9978 481.8519,-1585.5863"/>
<polygon fill="#191970" stroke="#191970" points="480.2825,-1588.7605 490.4797,-1591.6357 484.3012,-1583.0289 480.2825,-1588.7605"/>
</g>
<!-- Node29&#45;&gt;Node11 -->
<g id="edge61" class="edge">
<title>Node29&#45;&gt;Node11</title>
<path fill="none" stroke="#191970" d="M364.5959,-1489.1092C451.9185,-1500.2162 750.5282,-1534.0931 996,-1512.7763 1013.234,-1511.2797 1032.3236,-1508.0021 1047.5319,-1504.9943"/>
<polygon fill="#191970" stroke="#191970" points="1048.2753,-1508.4148 1057.3701,-1502.9803 1046.8713,-1501.557 1048.2753,-1508.4148"/>
</g>
<!-- Node30 -->
<g id="node30" class="node">
<title>Node30</title>
<g id="a_node30"><a xlink:href="../../d6/dcf/pythia6425mod_8f.html#ad950c8536b8d340b350441139b4b309e" target="_top" xlink:title="pyalem">
<polygon fill="none" stroke="#000000" points="486.5,-1398.7763 486.5,-1418.7763 540.5,-1418.7763 540.5,-1398.7763 486.5,-1398.7763"/>
<text text-anchor="middle" x="513.5" y="-1405.7763" font-family="FreeSans" font-size="10.00" fill="#000000">pyalem</text>
</a>
</g>
</g>
<!-- Node29&#45;&gt;Node30 -->
<g id="edge56" class="edge">
<title>Node29&#45;&gt;Node30</title>
<path fill="none" stroke="#191970" d="M364.6039,-1480.7559C380.8285,-1476.8335 402.0074,-1470.4079 419,-1460.7763 437.6237,-1450.2202 436.5084,-1439.5621 455,-1428.7763 461.7045,-1424.8658 469.289,-1421.5687 476.7215,-1418.8504"/>
<polygon fill="#191970" stroke="#191970" points="477.9646,-1422.1249 486.3178,-1415.6077 475.7236,-1415.4933 477.9646,-1422.1249"/>
</g>
<!-- Node31 -->
<g id="node31" class="node">
<title>Node31</title>
<g id="a_node31"><a xlink:href="../../d6/dcf/pythia6425mod_8f.html#a29c95baea28af87f8639a7f77a68edc5" target="_top" xlink:title="pyalps">
<polygon fill="none" stroke="#000000" points="488.5,-594.7763 488.5,-614.7763 538.5,-614.7763 538.5,-594.7763 488.5,-594.7763"/>
<text text-anchor="middle" x="513.5" y="-601.7763" font-family="FreeSans" font-size="10.00" fill="#000000">pyalps</text>
</a>
</g>
</g>
<!-- Node29&#45;&gt;Node31 -->
<g id="edge57" class="edge">
<title>Node29&#45;&gt;Node31</title>
<path fill="none" stroke="#191970" d="M344.4446,-1475.4841C358.7008,-1445.3088 400.0708,-1354.1242 419,-1273.7763 454.3521,-1123.7186 433.2886,-1081.4057 455,-928.7763 471.4645,-813.0324 498.9622,-675.4196 509.3535,-624.764"/>
<polygon fill="#191970" stroke="#191970" points="512.8143,-625.3108 511.4054,-614.81 505.9584,-623.8974 512.8143,-625.3108"/>
</g>
<!-- Node32 -->
<g id="node32" class="node">
<title>Node32</title>
<g id="a_node32"><a xlink:href="../../d6/dcf/pythia6425mod_8f.html#a7c47045290198780dd664e84fbacf4fc" target="_top" xlink:title="pyofsh">
<polygon fill="none" stroke="#ff0000" points="488.5,-1437.7763 488.5,-1457.7763 538.5,-1457.7763 538.5,-1437.7763 488.5,-1437.7763"/>
<text text-anchor="middle" x="513.5" y="-1444.7763" font-family="FreeSans" font-size="10.00" fill="#000000">pyofsh</text>
</a>
</g>
</g>
<!-- Node29&#45;&gt;Node32 -->
<g id="edge58" class="edge">
<title>Node29&#45;&gt;Node32</title>
<path fill="none" stroke="#191970" d="M364.8011,-1480.2508C394.783,-1473.703 444.9063,-1462.7566 478.5717,-1455.4044"/>
<polygon fill="#191970" stroke="#191970" points="479.4277,-1458.8 488.4507,-1453.2469 477.9341,-1451.9612 479.4277,-1458.8"/>
</g>
<!-- Node32&#45;&gt;Node12 -->
<g id="edge60" class="edge">
<title>Node32&#45;&gt;Node12</title>
<path fill="none" stroke="#191970" d="M538.7949,-1454.7307C600.7542,-1470.2292 762.9944,-1501.3907 872,-1436.7763 965.5693,-1381.312 962.7736,-1329.35 996,-1225.7763 1050.5791,-1055.6418 1071.6735,-471.5774 1075.3846,-355.0845"/>
<polygon fill="#191970" stroke="#191970" points="1078.8845,-355.1392 1075.6981,-345.0349 1071.8879,-354.9209 1078.8845,-355.1392"/>
</g>
<!-- Node32&#45;&gt;Node14 -->
<g id="edge59" class="edge">
<title>Node32&#45;&gt;Node14</title>
<path fill="none" stroke="#191970" d="M538.6345,-1445.7971C550.5447,-1443.5052 563.9047,-1438.7096 572,-1428.7763 606.6281,-1386.2866 628.3329,-987.0287 633.0352,-892.0029"/>
<polygon fill="#191970" stroke="#191970" points="636.5332,-892.1255 633.524,-881.967 629.5415,-891.7848 636.5332,-892.1255"/>
</g>
<!-- Node33&#45;&gt;Node14 -->
<g id="edge63" class="edge">
<title>Node33&#45;&gt;Node14</title>
<path fill="none" stroke="#191970" d="M521.4005,-191.9808C534.4581,-209.4622 560.2625,-246.747 572,-282.7763 607.6591,-392.2352 628.3723,-760.8496 633.0033,-851.5068"/>
<polygon fill="#191970" stroke="#191970" points="629.5115,-851.7599 633.5091,-861.5716 636.5026,-851.4085 629.5115,-851.7599"/>
</g>
<!-- Node33&#45;&gt;Node23 -->
<g id="edge64" class="edge">
<title>Node33&#45;&gt;Node23</title>
<path fill="none" stroke="#191970" d="M537.2914,-189.1063C595.8667,-207.5531 751.0782,-258.8756 872,-320.7763 892.4615,-331.2507 914.2463,-345.6485 929.9078,-356.6387"/>
<polygon fill="#191970" stroke="#191970" points="928.1889,-359.7114 938.3651,-362.6603 932.249,-354.0091 928.1889,-359.7114"/>
</g>
<!-- Node34&#45;&gt;Node2 -->
<g id="edge67" class="edge">
<title>Node34&#45;&gt;Node2</title>
<path fill="none" stroke="#191970" d="M118.9295,-1341.9906C130.7489,-1351.81 150.2172,-1365.9878 170,-1371.7763 193.0342,-1378.5162 200.0839,-1373.7815 224,-1371.7763 331.307,-1362.7793 646.8224,-1304.1851 773.9757,-1280.0945"/>
<polygon fill="#191970" stroke="#191970" points="774.7114,-1283.5174 783.8838,-1278.2148 773.4066,-1276.6401 774.7114,-1283.5174"/>
</g>
<!-- Node34&#45;&gt;Node3 -->
<g id="edge68" class="edge">
<title>Node34&#45;&gt;Node3</title>
<path fill="none" stroke="#191970" d="M114.9061,-1341.9237C120.7755,-1350.3628 128.8238,-1362.875 134,-1374.7763 158.0819,-1430.1468 125.6529,-1464.7987 170,-1505.7763 236.8043,-1567.5049 484.9286,-1556.4743 572,-1582.7763 669.8227,-1612.3261 687.1953,-1639.0454 784,-1671.7763 865.6231,-1699.3742 962.9036,-1722.8828 1022.0248,-1736.1638"/>
<polygon fill="#191970" stroke="#191970" points="1021.3698,-1739.6037 1031.892,-1738.3649 1022.8939,-1732.7716 1021.3698,-1739.6037"/>
</g>
<!-- Node34&#45;&gt;Node5 -->
<g id="edge88" class="edge">
<title>Node34&#45;&gt;Node5</title>
<path fill="none" stroke="#191970" d="M110.0214,-1341.9609C121.6869,-1389.0778 169.8625,-1583.6337 170,-1583.7763 277.1569,-1694.973 778.8205,-1764.3603 916.7993,-1781.5665"/>
<polygon fill="#191970" stroke="#191970" points="916.4758,-1785.0531 926.8293,-1782.8049 917.3336,-1778.1058 916.4758,-1785.0531"/>
</g>
<!-- Node34&#45;&gt;Node7 -->
<g id="edge72" class="edge">
<title>Node34&#45;&gt;Node7</title>
<path fill="none" stroke="#191970" d="M116.0703,-1321.6603C127.1558,-1309.321 147.7056,-1288.8633 170,-1278.7763 212.7344,-1259.4414 267.1337,-1254.4405 302.6135,-1253.4509"/>
<polygon fill="#191970" stroke="#191970" points="303.0489,-1256.9437 312.9832,-1253.2612 302.9208,-1249.9448 303.0489,-1256.9437"/>
</g>
<!-- Node34&#45;&gt;Node14 -->
<g id="edge70" class="edge">
<title>Node34&#45;&gt;Node14</title>
<path fill="none" stroke="#191970" d="M114.747,-1321.3708C125.6102,-1306.2355 147.2787,-1277.7758 170,-1257.7763 329.7193,-1117.1897 430.5824,-1156.7604 572,-997.7763 579.6726,-989.1507 609.9309,-924.3157 625.154,-891.1681"/>
<polygon fill="#191970" stroke="#191970" points="628.373,-892.5449 629.354,-881.9955 622.0085,-889.6306 628.373,-892.5449"/>
</g>
<!-- Node34&#45;&gt;Node30 -->
<g id="edge69" class="edge">
<title>Node34&#45;&gt;Node30</title>
<path fill="none" stroke="#191970" d="M113.7349,-1341.9514C127.8086,-1364.7501 161.4775,-1418.2907 170,-1422.7763 183.3566,-1429.8063 390.1328,-1416.9814 476.2754,-1411.2929"/>
<polygon fill="#191970" stroke="#191970" points="476.6558,-1414.7754 486.4018,-1410.6203 476.1918,-1407.7908 476.6558,-1414.7754"/>
</g>
<!-- Node34&#45;&gt;Node32 -->
<g id="edge77" class="edge">
<title>Node34&#45;&gt;Node32</title>
<path fill="none" stroke="#191970" d="M133.6209,-1321.6652C157.3704,-1313.8529 193.2914,-1305.499 224,-1312.7763 335.7882,-1339.2681 348.7297,-1385.1296 455,-1428.7763 462.5704,-1431.8856 470.8512,-1434.8361 478.7385,-1437.4442"/>
<polygon fill="#191970" stroke="#191970" points="477.8444,-1440.8329 488.4355,-1440.5509 479.9801,-1434.1667 477.8444,-1440.8329"/>
</g>
<!-- Node35 -->
<g id="node35" class="node">
<title>Node35</title>
<g id="a_node35"><a xlink:href="../../d6/dcf/pythia6425mod_8f.html#a5799e48fb2bcb7e50b682d42162bb5c4" target="_top" xlink:title="pyevwt">
<polygon fill="none" stroke="#ff0000" points="170.5,-1321.7763 170.5,-1341.7763 223.5,-1341.7763 223.5,-1321.7763 170.5,-1321.7763"/>
<text text-anchor="middle" x="197" y="-1328.7763" font-family="FreeSans" font-size="10.00" fill="#000000">pyevwt</text>
</a>
</g>
</g>
<!-- Node34&#45;&gt;Node35 -->
<g id="edge71" class="edge">
<title>Node34&#45;&gt;Node35</title>
<path fill="none" stroke="#191970" d="M134.353,-1331.7763C142.4795,-1331.7763 151.5488,-1331.7763 160.2074,-1331.7763"/>
<polygon fill="#191970" stroke="#191970" points="160.4745,-1335.2764 170.4744,-1331.7763 160.4744,-1328.2764 160.4745,-1335.2764"/>
</g>
<!-- Node36 -->
<g id="node36" class="node">
<title>Node36</title>
<g id="a_node36"><a xlink:href="../../d6/dcf/pythia6425mod_8f.html#a59cf7e6fe3565bf6a5712dae11a239ce" target="_top" xlink:title="pyklim">
<polygon fill="none" stroke="#000000" points="314.5,-708.7763 314.5,-728.7763 364.5,-728.7763 364.5,-708.7763 314.5,-708.7763"/>
<text text-anchor="middle" x="339.5" y="-715.7763" font-family="FreeSans" font-size="10.00" fill="#000000">pyklim</text>
</a>
</g>
</g>
<!-- Node34&#45;&gt;Node36 -->
<g id="edge73" class="edge">
<title>Node34&#45;&gt;Node36</title>
<path fill="none" stroke="#191970" d="M123.4435,-1341.7804C148.3638,-1356.017 196.5296,-1377.6833 224,-1351.7763 323.4347,-1258.0009 172.2229,-842.544 260,-737.7763 270.6906,-725.0164 288.2762,-719.9609 304.1933,-718.2282"/>
<polygon fill="#191970" stroke="#191970" points="304.5907,-721.7091 314.323,-717.5219 304.1037,-714.7261 304.5907,-721.7091"/>
</g>
<!-- Node37 -->
<g id="node37" class="node">
<title>Node37</title>
<g id="a_node37"><a xlink:href="../../d6/dcf/pythia6425mod_8f.html#a9c057fbd857323d35ea39a826b1fa151" target="_top" xlink:title="pykmap">
<polygon fill="none" stroke="#000000" points="311,-323.7763 311,-343.7763 368,-343.7763 368,-323.7763 311,-323.7763"/>
<text text-anchor="middle" x="339.5" y="-330.7763" font-family="FreeSans" font-size="10.00" fill="#000000">pykmap</text>
</a>
</g>
</g>
<!-- Node34&#45;&gt;Node37 -->
<g id="edge75" class="edge">
<title>Node34&#45;&gt;Node37</title>
<path fill="none" stroke="#191970" d="M108.2146,-1321.5262C114.0341,-1238.365 153.8383,-675.3889 170,-601.7763 195.2343,-486.8401 172.2558,-431.186 260,-352.7763 271.0692,-342.8847 286.3668,-337.9045 300.5887,-335.4736"/>
<polygon fill="#191970" stroke="#191970" points="301.2327,-338.9186 310.6786,-334.1202 300.302,-331.9808 301.2327,-338.9186"/>
</g>
<!-- Node38 -->
<g id="node38" class="node">
<title>Node38</title>
<g id="a_node38"><a xlink:href="../../d6/dcf/pythia6425mod_8f.html#a3ccdee32be69df9daf5605283165a012" target="_top" xlink:title="pysigh">
<polygon fill="none" stroke="#ff0000" points="315,-630.7763 315,-650.7763 364,-650.7763 364,-630.7763 315,-630.7763"/>
<text text-anchor="middle" x="339.5" y="-637.7763" font-family="FreeSans" font-size="10.00" fill="#000000">pysigh</text>
</a>
</g>
</g>
<!-- Node34&#45;&gt;Node38 -->
<g id="edge78" class="edge">
<title>Node34&#45;&gt;Node38</title>
<path fill="none" stroke="#191970" d="M108.9895,-1321.4647C119.6821,-1248.4348 186.4301,-809.0223 260,-698.7763 272.2425,-680.4307 292.354,-665.8386 309.2851,-655.8795"/>
<polygon fill="#191970" stroke="#191970" points="311.2828,-658.7722 318.2939,-650.829 307.8596,-652.6662 311.2828,-658.7722"/>
</g>
<!-- Node40 -->
<g id="node40" class="node">
<title>Node40</title>
<g id="a_node40"><a xlink:href="../../d6/dcf/pythia6425mod_8f.html#a704cb09d423c8653c6bdd905afbaa35f" target="_top" xlink:title="pytecm">
<polygon fill="none" stroke="#ff0000" points="170,-1475.7763 170,-1495.7763 224,-1495.7763 224,-1475.7763 170,-1475.7763"/>
<text text-anchor="middle" x="197" y="-1482.7763" font-family="FreeSans" font-size="10.00" fill="#000000">pytecm</text>
</a>
</g>
</g>
<!-- Node34&#45;&gt;Node40 -->
<g id="edge89" class="edge">
<title>Node34&#45;&gt;Node40</title>
<path fill="none" stroke="#191970" d="M110.9111,-1341.8527C118.8926,-1364.5428 140.3762,-1420.7804 170,-1460.7763 172.0152,-1463.4971 174.3533,-1466.1629 176.7941,-1468.6798"/>
<polygon fill="#191970" stroke="#191970" points="174.5351,-1471.3607 184.205,-1475.6901 179.3455,-1466.2754 174.5351,-1471.3607"/>
</g>
<!-- Node36&#45;&gt;Node11 -->
<g id="edge74" class="edge">
<title>Node36&#45;&gt;Node11</title>
<path fill="none" stroke="#191970" d="M364.6965,-710.5598C444.5124,-686.0899 696.8169,-620.8054 872,-710.7763 956.1506,-753.9946 961.296,-795.772 996,-883.7763 1040.3634,-996.2755 1068.4677,-1384.862 1074.6891,-1478.4042"/>
<polygon fill="#191970" stroke="#191970" points="1071.206,-1478.7781 1075.353,-1488.5276 1078.191,-1478.32 1071.206,-1478.7781"/>
</g>
<!-- Node37&#45;&gt;Node12 -->
<g id="edge76" class="edge">
<title>Node37&#45;&gt;Node12</title>
<path fill="none" stroke="#191970" d="M343.4958,-323.5038C355.5682,-293.8124 394.5885,-207.1193 455,-161.7763 521.7751,-111.657 550.5083,-104.7763 634,-104.7763 634,-104.7763 634,-104.7763 828,-104.7763 951.5528,-104.7763 1039.5371,-260.1427 1066.9591,-315.4868"/>
<polygon fill="#191970" stroke="#191970" points="1063.8617,-317.1212 1071.3695,-324.5968 1070.1622,-314.0709 1063.8617,-317.1212"/>
</g>
<!-- Node38&#45;&gt;Node23 -->
<g id="edge81" class="edge">
<title>Node38&#45;&gt;Node23</title>
<path fill="none" stroke="#191970" d="M349.3862,-630.7706C388.7177,-591.7333 539.5626,-449.2449 696,-396.7763 770.2823,-371.8623 863.0424,-369.8294 914.0263,-371.0137"/>
<polygon fill="#191970" stroke="#191970" points="914.1533,-374.5187 924.2499,-371.3082 914.3549,-367.5216 914.1533,-374.5187"/>
</g>
<!-- Node38&#45;&gt;Node30 -->
<g id="edge79" class="edge">
<title>Node38&#45;&gt;Node30</title>
<path fill="none" stroke="#191970" d="M362.6771,-650.8646C381.3599,-660.3337 406.5068,-676.4005 419,-698.7763 469.0933,-788.4955 439.2031,-1058.2415 455,-1159.7763 468.4106,-1245.9732 495.6872,-1346.5045 507.6524,-1388.6138"/>
<polygon fill="#191970" stroke="#191970" points="504.3522,-1389.8029 510.4725,-1398.4512 511.0812,-1387.8739 504.3522,-1389.8029"/>
</g>
<!-- Node38&#45;&gt;Node31 -->
<g id="edge80" class="edge">
<title>Node38&#45;&gt;Node31</title>
<path fill="none" stroke="#191970" d="M364.0609,-635.6948C393.8593,-629.5296 444.3129,-619.0909 478.2547,-612.0685"/>
<polygon fill="#191970" stroke="#191970" points="479.1336,-615.4608 488.2171,-610.0073 477.7153,-608.606 479.1336,-615.4608"/>
</g>
<!-- Node39 -->
<g id="node39" class="node">
<title>Node39</title>
<g id="a_node39"><a xlink:href="../../d6/dcf/pythia6425mod_8f.html#a18485907fca6114e02a4ea4be006a91e" target="_top" xlink:title="pypdfu">
<polygon fill="none" stroke="#ff0000" points="488,-555.7763 488,-575.7763 539,-575.7763 539,-555.7763 488,-555.7763"/>
<text text-anchor="middle" x="513.5" y="-562.7763" font-family="FreeSans" font-size="10.00" fill="#000000">pypdfu</text>
</a>
</g>
</g>
<!-- Node38&#45;&gt;Node39 -->
<g id="edge82" class="edge">
<title>Node38&#45;&gt;Node39</title>
<path fill="none" stroke="#191970" d="M364.1942,-635.7537C380.4434,-631.802 401.8058,-625.3443 419,-615.7763 437.4504,-605.5094 436.5979,-595.1296 455,-584.7763 462.1327,-580.7634 470.2378,-577.4503 478.0939,-574.7777"/>
<polygon fill="#191970" stroke="#191970" points="479.3235,-578.0603 487.8197,-571.7305 477.2306,-571.3805 479.3235,-578.0603"/>
</g>
<!-- Node39&#45;&gt;Node4 -->
<g id="edge85" class="edge">
<title>Node39&#45;&gt;Node4</title>
<path fill="none" stroke="#191970" d="M539.167,-567.6276C551.0591,-569.8963 564.245,-574.7096 572,-584.7763 606.4285,-629.4679 629.8743,-1522.4139 633.507,-1669.3838"/>
<polygon fill="#191970" stroke="#191970" points="630.0146,-1669.7399 633.7584,-1679.6513 637.0125,-1669.5686 630.0146,-1669.7399"/>
</g>
<!-- Node39&#45;&gt;Node12 -->
<g id="edge87" class="edge">
<title>Node39&#45;&gt;Node12</title>
<path fill="none" stroke="#191970" d="M522.0485,-555.7596C546.592,-527.5048 620.3758,-446.0339 696,-396.7763 810.073,-322.4753 983.1483,-327.1551 1049.149,-332.1743"/>
<polygon fill="#191970" stroke="#191970" points="1048.8929,-335.6649 1059.1477,-333.0021 1049.4706,-328.6888 1048.8929,-335.6649"/>
</g>
<!-- Node39&#45;&gt;Node14 -->
<g id="edge86" class="edge">
<title>Node39&#45;&gt;Node14</title>
<path fill="none" stroke="#191970" d="M539.1836,-568.2268C550.7837,-570.6522 563.715,-575.4246 572,-584.7763 627.257,-647.1484 589.7961,-687.4608 608,-768.7763 614.489,-797.762 623.1038,-831.0433 628.6014,-851.743"/>
<polygon fill="#191970" stroke="#191970" points="625.269,-852.8298 631.2331,-861.5865 632.0315,-851.0218 625.269,-852.8298"/>
</g>
<!-- Node39&#45;&gt;Node17 -->
<g id="edge83" class="edge">
<title>Node39&#45;&gt;Node17</title>
<path fill="none" stroke="#191970" d="M539.4485,-568.6623C605.077,-577.3521 779.0503,-609.2725 872,-710.7763 933.9815,-778.462 947.9531,-894.3746 951.0934,-940.7439"/>
<polygon fill="#191970" stroke="#191970" points="947.5992,-940.9478 951.6701,-950.7294 954.5876,-940.5442 947.5992,-940.9478"/>
</g>
<!-- Node39&#45;&gt;Node18 -->
<g id="edge84" class="edge">
<title>Node39&#45;&gt;Node18</title>
<path fill="none" stroke="#191970" d="M539.2577,-568.8465C550.5927,-571.4138 563.2831,-576.1264 572,-584.7763 607.9148,-620.4152 574.2181,-655.1096 608,-692.7763 651.8406,-741.6585 724.1115,-768.4941 773.7819,-781.9863"/>
<polygon fill="#191970" stroke="#191970" points="773.1486,-785.4384 783.7092,-784.5877 774.9231,-778.6671 773.1486,-785.4384"/>
</g>
<!-- Node40&#45;&gt;Node29 -->
<g id="edge91" class="edge">
<title>Node40&#45;&gt;Node29</title>
<path fill="none" stroke="#191970" d="M224.1386,-1485.7763C246.8905,-1485.7763 279.536,-1485.7763 304.2965,-1485.7763"/>
<polygon fill="#191970" stroke="#191970" points="304.3736,-1489.2764 314.3736,-1485.7763 304.3736,-1482.2764 304.3736,-1489.2764"/>
</g>
<!-- Node40&#45;&gt;Node30 -->
<g id="edge90" class="edge">
<title>Node40&#45;&gt;Node30</title>
<path fill="none" stroke="#191970" d="M224.1737,-1477.1401C235.2391,-1473.7388 248.1837,-1469.9061 260,-1466.7763 336.3961,-1446.5417 426.8421,-1426.8608 476.4038,-1416.4373"/>
<polygon fill="#191970" stroke="#191970" points="477.2692,-1419.8321 486.3395,-1414.3566 475.8344,-1412.9807 477.2692,-1419.8321"/>
</g>
<!-- Node41&#45;&gt;Node9 -->
<g id="edge95" class="edge">
<title>Node41&#45;&gt;Node9</title>
<path fill="none" stroke="#191970" d="M198.3686,-611.4385C202.4726,-584.6079 217.1623,-512.172 260,-473.7763 314.9683,-424.5079 353.1322,-459.0978 419,-425.7763 436.8463,-416.7481 437.6803,-408.7777 455,-398.7763 461.9269,-394.7763 469.6164,-391.0388 477.0827,-387.7352"/>
<polygon fill="#191970" stroke="#191970" points="478.5136,-390.9301 486.3464,-383.7958 475.7742,-384.4884 478.5136,-390.9301"/>
</g>
<!-- Node41&#45;&gt;Node12 -->
<g id="edge102" class="edge">
<title>Node41&#45;&gt;Node12</title>
<path fill="none" stroke="#191970" d="M199.9846,-611.5728C206.8602,-589.8701 225.8973,-538.9016 260,-511.7763 317.7705,-465.8257 348.8768,-486.8333 419,-463.7763 582.5881,-409.9874 615.3418,-368.5433 784,-333.7763 879.9521,-313.9969 997.4385,-324.6502 1049.2664,-331.0608"/>
<polygon fill="#191970" stroke="#191970" points="1048.933,-334.5467 1059.298,-332.3519 1049.8266,-327.6039 1048.933,-334.5467"/>
</g>
<!-- Node41&#45;&gt;Node13 -->
<g id="edge103" class="edge">
<title>Node41&#45;&gt;Node13</title>
<path fill="none" stroke="#191970" d="M198.0274,-631.9453C202.6622,-675.8295 223.0229,-848.4526 260,-885.7763 318.3478,-944.6711 422.6355,-951.5782 477.496,-950.7139"/>
<polygon fill="#191970" stroke="#191970" points="477.8737,-954.2055 487.7808,-950.4505 477.6945,-947.2078 477.8737,-954.2055"/>
</g>
<!-- Node41&#45;&gt;Node14 -->
<g id="edge97" class="edge">
<title>Node41&#45;&gt;Node14</title>
<path fill="none" stroke="#191970" d="M198.2511,-632.0849C202.127,-659.5738 216.4224,-735.3466 260,-776.7763 355.098,-867.1871 523.6108,-874.862 597.529,-873.4792"/>
<polygon fill="#191970" stroke="#191970" points="597.8214,-876.9729 607.7285,-873.2182 597.6423,-869.9752 597.8214,-876.9729"/>
</g>
<!-- Node41&#45;&gt;Node15 -->
<g id="edge94" class="edge">
<title>Node41&#45;&gt;Node15</title>
<path fill="none" stroke="#191970" d="M209.2013,-611.6906C221.3261,-602.2093 240.8314,-588.3718 260,-580.7763 324.8618,-555.0752 506.9778,-520.4837 572,-545.7763 592.2286,-553.6449 591.0313,-565.2422 608,-578.7763 675.6521,-632.7353 761.4241,-688.7028 803.0607,-715.1459"/>
<polygon fill="#191970" stroke="#191970" points="801.4012,-718.2376 811.7234,-720.6254 805.1432,-712.3217 801.4012,-718.2376"/>
</g>
<!-- Node41&#45;&gt;Node17 -->
<g id="edge93" class="edge">
<title>Node41&#45;&gt;Node17</title>
<path fill="none" stroke="#191970" d="M201.263,-611.7593C209.547,-593.7344 229.706,-556.2722 260,-540.7763 382.685,-478.0211 779.4286,-538.6962 872,-640.7763 912.9227,-685.9025 941.0811,-877.0461 949.4262,-940.3325"/>
<polygon fill="#191970" stroke="#191970" points="945.9999,-941.1285 950.7525,-950.5976 952.9422,-940.2315 945.9999,-941.1285"/>
</g>
<!-- Node41&#45;&gt;Node23 -->
<g id="edge100" class="edge">
<title>Node41&#45;&gt;Node23</title>
<path fill="none" stroke="#191970" d="M199.5897,-611.7617C209.536,-573.6216 245.453,-438.9323 260,-425.7763 313.5967,-377.3045 355.9862,-427.1513 419,-391.7763 439.2864,-380.3879 433.6287,-362.9688 455,-353.7763 614.115,-285.3359 829.0267,-335.818 914.5977,-360.8747"/>
<polygon fill="#191970" stroke="#191970" points="913.7962,-364.288 924.3795,-363.7946 915.7985,-357.5805 913.7962,-364.288"/>
</g>
<!-- Node41&#45;&gt;Node29 -->
<g id="edge114" class="edge">
<title>Node41&#45;&gt;Node29</title>
<path fill="none" stroke="#191970" d="M197.622,-632.0515C202.0852,-704.8738 229.9201,-1143.8749 260,-1273.7763 277.0216,-1347.2849 313.2139,-1429.7493 330.258,-1466.4107"/>
<polygon fill="#191970" stroke="#191970" points="327.1044,-1467.9295 334.5256,-1475.491 333.4396,-1464.952 327.1044,-1467.9295"/>
</g>
<!-- Node41&#45;&gt;Node31 -->
<g id="edge96" class="edge">
<title>Node41&#45;&gt;Node31</title>
<path fill="none" stroke="#191970" d="M209.0807,-631.8406C221.116,-641.1595 240.5571,-654.3665 260,-659.7763 328.0805,-678.719 352.5541,-683.8331 419,-659.7763 438.5833,-652.6862 437.2366,-640.6501 455,-629.7763 462.4477,-625.2173 470.8749,-621.0897 478.9662,-617.562"/>
<polygon fill="#191970" stroke="#191970" points="480.3438,-620.7798 488.2317,-613.7064 477.6544,-614.317 480.3438,-620.7798"/>
</g>
<!-- Node41&#45;&gt;Node36 -->
<g id="edge98" class="edge">
<title>Node41&#45;&gt;Node36</title>
<path fill="none" stroke="#191970" d="M203.2378,-631.9482C213.2909,-647.5086 234.5473,-677.1616 260,-693.7763 273.259,-702.4314 289.7103,-708.2553 304.2014,-712.0869"/>
<polygon fill="#191970" stroke="#191970" points="303.7906,-715.5883 314.3332,-714.5367 305.4359,-708.7844 303.7906,-715.5883"/>
</g>
<!-- Node41&#45;&gt;Node37 -->
<g id="edge99" class="edge">
<title>Node41&#45;&gt;Node37</title>
<path fill="none" stroke="#191970" d="M199.0635,-611.6392C208.8446,-563.7802 250.4615,-362.3582 260,-352.7763 270.6342,-342.0938 286.1302,-337.005 300.6227,-334.7071"/>
<polygon fill="#191970" stroke="#191970" points="301.3959,-338.1401 310.9144,-333.4872 300.5719,-331.1888 301.3959,-338.1401"/>
</g>
<!-- Node41&#45;&gt;Node38 -->
<g id="edge104" class="edge">
<title>Node41&#45;&gt;Node38</title>
<path fill="none" stroke="#191970" d="M224.1386,-625.3948C247.0318,-628.4472 279.9419,-632.8353 304.757,-636.1439"/>
<polygon fill="#191970" stroke="#191970" points="304.4687,-639.6364 314.8436,-637.4888 305.3939,-632.6978 304.4687,-639.6364"/>
</g>
<!-- Node41&#45;&gt;Node39 -->
<g id="edge101" class="edge">
<title>Node41&#45;&gt;Node39</title>
<path fill="none" stroke="#191970" d="M224.2585,-616.9533C281.4994,-606.8254 414.1782,-583.3499 477.9801,-572.0611"/>
<polygon fill="#191970" stroke="#191970" points="478.7332,-575.4823 487.9704,-570.2934 477.5135,-568.5893 478.7332,-575.4823"/>
</g>
<!-- Node42 -->
<g id="node42" class="node">
<title>Node42</title>
<g id="a_node42"><a xlink:href="../../d6/dcf/pythia6425mod_8f.html#a9f8a08b43157ca5aa62d84247ff26109" target="_top" xlink:title="pysspa">
<polygon fill="none" stroke="#ff0000" points="314,-747.7763 314,-767.7763 365,-767.7763 365,-747.7763 314,-747.7763"/>
<text text-anchor="middle" x="339.5" y="-754.7763" font-family="FreeSans" font-size="10.00" fill="#000000">pysspa</text>
</a>
</g>
</g>
<!-- Node41&#45;&gt;Node42 -->
<g id="edge105" class="edge">
<title>Node41&#45;&gt;Node42</title>
<path fill="none" stroke="#191970" d="M199.5265,-631.9668C205.7047,-654.6831 223.7871,-709.6794 260,-737.7763 272.5165,-747.4877 289.1789,-752.535 304.0153,-755.1383"/>
<polygon fill="#191970" stroke="#191970" points="303.5223,-758.6033 313.9216,-756.5773 304.5286,-751.676 303.5223,-758.6033"/>
</g>
<!-- Node43 -->
<g id="node43" class="node">
<title>Node43</title>
<g id="a_node43"><a xlink:href="../../d7/d3f/classActs_1_1InternalSpacePoint.html#ac59d093c2c06d7b503871e29dce59400" target="_top" xlink:title="Acts::InternalSpacePoint::sp">
<polygon fill="none" stroke="#000000" points="260,-362.7763 260,-382.7763 419,-382.7763 419,-362.7763 260,-362.7763"/>
<text text-anchor="middle" x="339.5" y="-369.7763" font-family="FreeSans" font-size="10.00" fill="#000000">Acts::InternalSpacePoint::sp</text>
</a>
</g>
</g>
<!-- Node41&#45;&gt;Node43 -->
<g id="edge115" class="edge">
<title>Node41&#45;&gt;Node43</title>
<path fill="none" stroke="#191970" d="M198.5517,-611.6255C204.7713,-572.1772 229.0609,-429.674 260,-397.7763 263.9664,-393.687 268.5935,-390.2642 273.584,-387.3996"/>
<polygon fill="#191970" stroke="#191970" points="275.4649,-390.3751 282.8956,-382.8229 272.3771,-384.093 275.4649,-390.3751"/>
</g>
<!-- Node42&#45;&gt;Node10 -->
<g id="edge108" class="edge">
<title>Node42&#45;&gt;Node10</title>
<path fill="none" stroke="#191970" d="M365.0147,-756.6428C449.6724,-754.3327 724.2698,-758.6922 872,-901.7763 899.4258,-928.3396 888.4814,-946.9616 908,-979.7763 916.5368,-994.1284 927.8243,-1009.2029 936.8293,-1020.522"/>
<polygon fill="#191970" stroke="#191970" points="934.1733,-1022.8038 943.1872,-1028.3716 939.6129,-1018.3979 934.1733,-1022.8038"/>
</g>
<!-- Node42&#45;&gt;Node12 -->
<g id="edge112" class="edge">
<title>Node42&#45;&gt;Node12</title>
<path fill="none" stroke="#191970" d="M365.142,-752.161C380.828,-748.5201 401.229,-743.4151 419,-737.7763 488.4676,-715.7341 506.5816,-710.9017 572,-678.7763 769.796,-581.6435 825.5038,-561.3796 996,-421.7763 1021.6294,-400.7908 1046.7475,-371.6762 1061.8075,-353.0298"/>
<polygon fill="#191970" stroke="#191970" points="1064.6827,-355.0375 1068.1679,-345.0323 1059.2041,-350.6803 1064.6827,-355.0375"/>
</g>
<!-- Node42&#45;&gt;Node13 -->
<g id="edge113" class="edge">
<title>Node42&#45;&gt;Node13</title>
<path fill="none" stroke="#191970" d="M348.61,-767.7764C376.5507,-798.4469 461.3088,-891.486 497.183,-930.8652"/>
<polygon fill="#191970" stroke="#191970" points="494.7364,-933.3767 504.0582,-938.4121 499.9111,-928.6626 494.7364,-933.3767"/>
</g>
<!-- Node42&#45;&gt;Node14 -->
<g id="edge109" class="edge">
<title>Node42&#45;&gt;Node14</title>
<path fill="none" stroke="#191970" d="M360.5435,-767.9367C383.5095,-778.8632 421.4845,-796.4584 455,-809.7763 504.0288,-829.2588 561.8992,-848.67 598.2782,-860.4491"/>
<polygon fill="#191970" stroke="#191970" points="597.3523,-863.8279 607.9439,-863.5628 599.4987,-857.1651 597.3523,-863.8279"/>
</g>
<!-- Node42&#45;&gt;Node19 -->
<g id="edge106" class="edge">
<title>Node42&#45;&gt;Node19</title>
<path fill="none" stroke="#191970" d="M365.1816,-761.4308C408.6517,-768.0747 499.1144,-783.8884 572,-809.7763 612.8378,-824.2814 628.8155,-821.6823 660,-851.7763 684.8899,-875.7959 666.4888,-902.7339 696,-920.7763 728.7682,-940.81 775.2036,-935.0423 803.3685,-928.6691"/>
<polygon fill="#191970" stroke="#191970" points="804.3278,-932.0375 813.2018,-926.2494 802.6551,-925.2403 804.3278,-932.0375"/>
</g>
<!-- Node42&#45;&gt;Node23 -->
<g id="edge110" class="edge">
<title>Node42&#45;&gt;Node23</title>
<path fill="none" stroke="#191970" d="M365.3343,-754.4915C381.4634,-751.6795 402.2679,-746.627 419,-737.7763 437.923,-727.7667 438.2068,-719.0527 455,-705.7763 504.8129,-666.3952 528.0649,-669.6228 572,-623.7763 642.802,-549.8941 612.1589,-488.4463 696,-429.7763 704.982,-423.491 845.3679,-394.3964 914.3387,-380.3736"/>
<polygon fill="#191970" stroke="#191970" points="915.2643,-383.7572 924.3684,-378.3384 913.8721,-376.8971 915.2643,-383.7572"/>
</g>
<!-- Node42&#45;&gt;Node31 -->
<g id="edge107" class="edge">
<title>Node42&#45;&gt;Node31</title>
<path fill="none" stroke="#191970" d="M365.1663,-756.6893C382.0361,-754.7768 403.7306,-749.9015 419,-737.7763 446.3971,-716.0208 434.9101,-696.4171 455,-667.7763 466.6716,-651.137 482.4784,-634.3741 494.7189,-622.3269"/>
<polygon fill="#191970" stroke="#191970" points="497.4018,-624.602 502.1684,-615.14 492.5415,-619.5643 497.4018,-624.602"/>
</g>
<!-- Node42&#45;&gt;Node39 -->
<g id="edge111" class="edge">
<title>Node42&#45;&gt;Node39</title>
<path fill="none" stroke="#191970" d="M365.0651,-757.9233C382.554,-756.6238 405.0196,-751.9733 419,-737.7763 468.0154,-688.0019 407.6942,-636.1783 455,-584.7763 461.1471,-578.0969 469.6623,-573.7584 478.2951,-570.9427"/>
<polygon fill="#191970" stroke="#191970" points="479.2084,-574.3215 487.9717,-568.3671 477.4079,-567.557 479.2084,-574.3215"/>
</g>
<!-- Node44&#45;&gt;Node5 -->
<g id="edge124" class="edge">
<title>Node44&#45;&gt;Node5</title>
<path fill="none" stroke="#191970" d="M197.3991,-1710.877C199.1586,-1739.9516 208.6668,-1823.9812 260,-1858.7763 324.6456,-1902.595 553.2195,-1978.6407 872,-1856.7763 899.4739,-1846.2735 923.5753,-1821.5879 937.9603,-1804.2903"/>
<polygon fill="#191970" stroke="#191970" points="941.0519,-1806.0283 944.5635,-1796.0324 935.5848,-1801.6567 941.0519,-1806.0283"/>
</g>
<!-- Node44&#45;&gt;Node8 -->
<g id="edge117" class="edge">
<title>Node44&#45;&gt;Node8</title>
<path fill="none" stroke="#191970" d="M212.7551,-1690.7407C225.1721,-1683.2155 243.145,-1673.1549 260,-1666.7763 320.6191,-1643.8359 392.8917,-1628.0802 444.7281,-1618.66"/>
<polygon fill="#191970" stroke="#191970" points="445.5838,-1622.0626 454.8134,-1616.8601 444.354,-1615.1715 445.5838,-1622.0626"/>
</g>
<!-- Node44&#45;&gt;Node11 -->
<g id="edge126" class="edge">
<title>Node44&#45;&gt;Node11</title>
<path fill="none" stroke="#191970" d="M203.8998,-1711.0837C214.3451,-1725.9205 235.5643,-1753.2182 260,-1768.7763 322.6011,-1808.6343 353.3141,-1785.2376 419,-1819.7763 556.6963,-1892.1793 548.7671,-1983.5275 696,-2033.7763 737.5606,-2047.9605 859.4947,-2025.1107 872,-2016.7763 962.5126,-1956.4524 954.3328,-1906.252 996,-1805.7763 1038.9649,-1702.1712 1064.1966,-1569.1373 1072.7209,-1519.0503"/>
<polygon fill="#191970" stroke="#191970" points="1076.2195,-1519.3477 1074.4092,-1508.9087 1069.3145,-1518.1981 1076.2195,-1519.3477"/>
</g>
<!-- Node44&#45;&gt;Node17 -->
<g id="edge118" class="edge">
<title>Node44&#45;&gt;Node17</title>
<path fill="none" stroke="#191970" d="M223.5282,-1698.0901C298.4894,-1690.1803 510.4262,-1665.5238 572,-1633.7763 737.9286,-1548.2236 790.1951,-1507.5843 872,-1339.7763 934.9079,-1210.7323 854.705,-1152.0783 908,-1018.7763 914.0572,-1003.6261 925.1942,-989.0066 934.7476,-978.2353"/>
<polygon fill="#191970" stroke="#191970" points="937.4045,-980.5174 941.634,-970.8034 932.2699,-975.7597 937.4045,-980.5174"/>
</g>
<!-- Node44&#45;&gt;Node29 -->
<g id="edge125" class="edge">
<title>Node44&#45;&gt;Node29</title>
<path fill="none" stroke="#191970" d="M202.3128,-1690.5074C212.6643,-1670.7372 236.5778,-1626.2092 260,-1590.7763 280.9618,-1559.0656 308.226,-1524.2591 324.7665,-1503.7513"/>
<polygon fill="#191970" stroke="#191970" points="327.5642,-1505.8583 331.1491,-1495.8884 322.1293,-1501.4467 327.5642,-1505.8583"/>
</g>
<!-- Node45 -->
<g id="node45" class="node">
<title>Node45</title>
<g id="a_node45"><a xlink:href="../../d9/d9e/evDisplay_8C.html#a02fd73d861ef2e4aabb38c0c9ff82947" target="_top" xlink:title="init">
<polygon fill="none" stroke="#000000" points="323,-1828.7763 323,-1848.7763 356,-1848.7763 356,-1828.7763 323,-1828.7763"/>
<text text-anchor="middle" x="339.5" y="-1835.7763" font-family="FreeSans" font-size="10.00" fill="#000000">init</text>
</a>
</g>
</g>
<!-- Node44&#45;&gt;Node45 -->
<g id="edge119" class="edge">
<title>Node44&#45;&gt;Node45</title>
<path fill="none" stroke="#191970" d="M199.8243,-1710.8901C206.4974,-1732.9258 225.3413,-1785.5517 260,-1813.7763 275.0009,-1825.9925 296.0197,-1832.2676 312.6777,-1835.4751"/>
<polygon fill="#191970" stroke="#191970" points="312.449,-1838.9851 322.8875,-1837.1716 313.5965,-1832.0797 312.449,-1838.9851"/>
</g>
<!-- Node46 -->
<g id="node46" class="node">
<title>Node46</title>
<g id="a_node46"><a xlink:href="../../d6/dcf/pythia6425mod_8f.html#a1420c8865333d41abeeecac9eb84d5ad" target="_top" xlink:title="pyapps">
<polygon fill="none" stroke="#ff0000" points="313,-1709.7763 313,-1729.7763 366,-1729.7763 366,-1709.7763 313,-1709.7763"/>
<text text-anchor="middle" x="339.5" y="-1716.7763" font-family="FreeSans" font-size="10.00" fill="#000000">pyapps</text>
</a>
</g>
</g>
<!-- Node44&#45;&gt;Node46 -->
<g id="edge120" class="edge">
<title>Node44&#45;&gt;Node46</title>
<path fill="none" stroke="#191970" d="M223.8032,-1704.3501C246.0953,-1707.3224 278.0523,-1711.5833 302.734,-1714.8742"/>
<polygon fill="#191970" stroke="#191970" points="302.4421,-1718.3662 312.817,-1716.2186 303.3673,-1711.4276 302.4421,-1718.3662"/>
</g>
<!-- Node46&#45;&gt;Node5 -->
<g id="edge122" class="edge">
<title>Node46&#45;&gt;Node5</title>
<path fill="none" stroke="#191970" d="M366.4596,-1725.7927C389.7968,-1730.845 424.5007,-1737.9864 455,-1742.7763 600.412,-1765.6133 637.191,-1770.1328 784,-1780.7763 829.6943,-1784.0891 882.5323,-1785.2191 916.5634,-1785.5977"/>
<polygon fill="#191970" stroke="#191970" points="916.8859,-1789.1008 926.9188,-1785.696 916.9525,-1782.1011 916.8859,-1789.1008"/>
</g>
<!-- Node46&#45;&gt;Node8 -->
<g id="edge121" class="edge">
<title>Node46&#45;&gt;Node8</title>
<path fill="none" stroke="#191970" d="M355.2482,-1709.6395C383.284,-1691.5935 442.4198,-1653.5291 479.9304,-1629.3843"/>
<polygon fill="#191970" stroke="#191970" points="481.9936,-1632.2188 488.5078,-1623.8632 478.2048,-1626.3327 481.9936,-1632.2188"/>
</g>
<!-- Node46&#45;&gt;Node11 -->
<g id="edge123" class="edge">
<title>Node46&#45;&gt;Node11</title>
<path fill="none" stroke="#191970" d="M366.0177,-1714.3892C434.8832,-1700.4417 625.1056,-1662.1888 784,-1632.7763 878.0488,-1615.3673 913.3294,-1643.8784 996,-1595.7763 1028.0488,-1577.1287 1052.7886,-1540.5213 1065.8088,-1517.9978"/>
<polygon fill="#191970" stroke="#191970" points="1068.9966,-1519.4671 1070.8048,-1509.0277 1062.8812,-1516.061 1068.9966,-1519.4671"/>
</g>
<!-- Node47&#45;&gt;Node9 -->
<g id="edge130" class="edge">
<title>Node47&#45;&gt;Node9</title>
<path fill="none" stroke="#191970" d="M223.2991,-309.9414C265.5471,-303.2097 350.7156,-293.9299 419,-313.7763 447.8671,-322.1664 476.3519,-342.324 494.3765,-356.9648"/>
<polygon fill="#191970" stroke="#191970" points="492.4264,-359.8969 502.3405,-363.6332 496.9203,-354.5298 492.4264,-359.8969"/>
</g>
<!-- Node47&#45;&gt;Node12 -->
<g id="edge134" class="edge">
<title>Node47&#45;&gt;Node12</title>
<path fill="none" stroke="#191970" d="M201.128,-304.5278C209.5949,-284.5516 230.6314,-239.9043 260,-211.7763 388.7516,-88.464 455.7224,-66.7763 634,-66.7763 634,-66.7763 634,-66.7763 828,-66.7763 906.9912,-66.7763 939.2706,-69.8092 996,-124.7763 1050.9249,-177.995 1068.6419,-272.8437 1073.9286,-314.3631"/>
<polygon fill="#191970" stroke="#191970" points="1070.4598,-314.8348 1075.0884,-324.365 1077.4132,-314.0284 1070.4598,-314.8348"/>
</g>
<!-- Node47&#45;&gt;Node14 -->
<g id="edge131" class="edge">
<title>Node47&#45;&gt;Node14</title>
<path fill="none" stroke="#191970" d="M223.1697,-307.0041C293.5751,-287.8934 487.4011,-247.5218 572,-353.7763 587.8408,-373.6721 623.6186,-757.483 632.1489,-851.2453"/>
<polygon fill="#191970" stroke="#191970" points="628.6823,-851.7731 633.0706,-861.4164 635.6537,-851.1412 628.6823,-851.7731"/>
</g>
<!-- Node47&#45;&gt;Node15 -->
<g id="edge129" class="edge">
<title>Node47&#45;&gt;Node15</title>
<path fill="none" stroke="#191970" d="M210.6292,-304.5025C222.8317,-295.9913 241.5897,-284.5469 260,-279.7763 394.267,-244.9843 453.5863,-214.5523 572,-286.7763 573.4766,-287.677 695.1361,-501.2779 696,-502.7763 740.6462,-580.2188 794.0566,-672.3012 816.8287,-711.5353"/>
<polygon fill="#191970" stroke="#191970" points="813.8868,-713.439 821.9342,-720.3304 819.9408,-709.9247 813.8868,-713.439"/>
</g>
<!-- Node47&#45;&gt;Node17 -->
<g id="edge128" class="edge">
<title>Node47&#45;&gt;Node17</title>
<path fill="none" stroke="#191970" d="M201.84,-304.5706C210.6293,-287.3979 231.0223,-253.2796 260,-239.7763 322.8451,-210.4914 512.4346,-204.2928 572,-239.7763 671.4348,-299.0104 617.2627,-383.9448 696,-468.7763 759.2376,-536.9085 819.2038,-505.2679 872,-581.7763 913.2459,-641.5468 941.8377,-870.2224 949.7697,-940.2645"/>
<polygon fill="#191970" stroke="#191970" points="946.3164,-940.8793 950.9009,-950.4308 953.2734,-940.1051 946.3164,-940.8793"/>
</g>
<!-- Node47&#45;&gt;Node36 -->
<g id="edge132" class="edge">
<title>Node47&#45;&gt;Node36</title>
<path fill="none" stroke="#191970" d="M197.837,-324.796C202.195,-375.2186 223.4981,-601.0972 260,-659.7763 271.7199,-678.6168 291.8359,-693.459 308.8998,-703.5443"/>
<polygon fill="#191970" stroke="#191970" points="307.5605,-706.8064 317.9931,-708.6531 310.9892,-700.7036 307.5605,-706.8064"/>
</g>
<!-- Node47&#45;&gt;Node37 -->
<g id="edge133" class="edge">
<title>Node47&#45;&gt;Node37</title>
<path fill="none" stroke="#191970" d="M223.1367,-318.2612C244.7907,-321.1484 275.8887,-325.2948 300.4891,-328.5749"/>
<polygon fill="#191970" stroke="#191970" points="300.213,-332.069 310.5879,-329.9214 301.1382,-325.1304 300.213,-332.069"/>
</g>
<!-- Node47&#45;&gt;Node38 -->
<g id="edge135" class="edge">
<title>Node47&#45;&gt;Node38</title>
<path fill="none" stroke="#191970" d="M201.421,-324.8903C221.4492,-370.7092 303.8625,-559.2478 330.8795,-621.055"/>
<polygon fill="#191970" stroke="#191970" points="327.777,-622.6962 334.9893,-630.4572 334.1911,-619.8925 327.777,-622.6962"/>
</g>
<!-- Node47&#45;&gt;Node43 -->
<g id="edge136" class="edge">
<title>Node47&#45;&gt;Node43</title>
<path fill="none" stroke="#191970" d="M210.8704,-324.7996C223.2276,-333.3153 242.077,-345.3123 260,-352.7763 266.3557,-355.4231 273.1481,-357.7838 279.9853,-359.8719"/>
<polygon fill="#191970" stroke="#191970" points="279.4118,-363.3484 289.989,-362.7379 281.3397,-356.6191 279.4118,-363.3484"/>
</g>
<!-- Node48&#45;&gt;Node12 -->
<g id="edge138" class="edge">
<title>Node48&#45;&gt;Node12</title>
<path fill="none" stroke="#191970" d="M657.5805,-21.1427C720.5514,-4.9769 894.7381,29.3889 996,-52.7763 1037.5862,-86.5199 1064.8663,-255.3888 1073.2548,-314.3902"/>
<polygon fill="#191970" stroke="#191970" points="1069.8376,-315.2292 1074.6792,-324.653 1076.7711,-314.2668 1069.8376,-315.2292"/>
</g>
<!-- Node49&#45;&gt;Node12 -->
<g id="edge142" class="edge">
<title>Node49&#45;&gt;Node12</title>
<path fill="none" stroke="#191970" d="M748.1856,-448.2232C798.468,-444.3982 911.0784,-431.7125 996,-391.7763 1018.5265,-381.1828 1041.3736,-364.1382 1056.8519,-351.4434"/>
<polygon fill="#191970" stroke="#191970" points="1059.2321,-354.0152 1064.644,-344.9069 1054.7333,-348.6523 1059.2321,-354.0152"/>
</g>
<!-- Node49&#45;&gt;Node15 -->
<g id="edge141" class="edge">
<title>Node49&#45;&gt;Node15</title>
<path fill="none" stroke="#191970" d="M725.7726,-459.7773C741.1932,-500.6565 799.6046,-655.5018 820.5056,-710.9092"/>
<polygon fill="#191970" stroke="#191970" points="817.3575,-712.4805 824.1618,-720.6016 823.9071,-710.0098 817.3575,-712.4805"/>
</g>
<!-- Node49&#45;&gt;Node17 -->
<g id="edge140" class="edge">
<title>Node49&#45;&gt;Node17</title>
<path fill="none" stroke="#191970" d="M748.0041,-457.0422C786.5029,-468.3237 855.8647,-490.8334 872,-510.7763 926.825,-578.5392 946.4685,-861.4125 950.9374,-940.2811"/>
<polygon fill="#191970" stroke="#191970" points="947.4491,-940.593 951.489,-950.3873 954.4387,-940.2114 947.4491,-940.593"/>
</g>
<!-- Node50&#45;&gt;Node5 -->
<g id="edge146" class="edge">
<title>Node50&#45;&gt;Node5</title>
<path fill="none" stroke="#191970" d="M130.7454,-1975.3711C214.7715,-1973.5257 510.3174,-1963.7253 748,-1914.7763 803.5356,-1903.3392 824.0885,-1915.0996 872,-1884.7763 903.7173,-1864.7024 928.5656,-1827.681 941.6962,-1805.0403"/>
<polygon fill="#191970" stroke="#191970" points="944.9068,-1806.4704 946.74,-1796.0354 938.7995,-1803.0496 944.9068,-1806.4704"/>
</g>
</g>
</svg>
