<?xml version="1.0" encoding="UTF-8" standalone="no"?>
<!DOCTYPE svg PUBLIC "-//W3C//DTD SVG 1.1//EN"
 "http://www.w3.org/Graphics/SVG/1.1/DTD/svg11.dtd">
<!-- Generated by graphviz version 2.40.1 (20161225.0304)
 -->
<!-- Title: MicromegasDefs::getSegmentationType Pages: 1 -->
<svg width="964pt" height="513pt"
 viewBox="0.00 0.00 964.00 513.00" xmlns="http://www.w3.org/2000/svg" xmlns:xlink="http://www.w3.org/1999/xlink">
<g id="graph0" class="graph" transform="scale(1 1) rotate(0) translate(4 509)">
<title>MicromegasDefs::getSegmentationType</title>
<!-- Node1 -->
<g id="node1" class="node">
<title>Node1</title>
<polygon fill="#bfbfbf" stroke="#000000" points="0,-369.5 0,-389.5 218,-389.5 218,-369.5 0,-369.5"/>
<text text-anchor="middle" x="109" y="-376.5" font-family="FreeSans" font-size="10.00" fill="#000000">MicromegasDefs::getSegmentationType</text>
</g>
<!-- Node2 -->
<g id="node2" class="node">
<title>Node2</title>
<g id="a_node2"><a xlink:href="../../d5/df8/classQAG4SimulationMicromegas.html#a7d91700abab98412e6b427f4098895ca" target="_top" xlink:title="evaluate clusters">
<polygon fill="none" stroke="#000000" points="282.5,-470.5 282.5,-502.5 443.5,-502.5 443.5,-470.5 282.5,-470.5"/>
<text text-anchor="start" x="290.5" y="-489.5" font-family="FreeSans" font-size="10.00" fill="#000000">QAG4SimulationMicromegas</text>
<text text-anchor="middle" x="363" y="-477.5" font-family="FreeSans" font-size="10.00" fill="#000000">::evaluate_clusters</text>
</a>
</g>
</g>
<!-- Node1&#45;&gt;Node2 -->
<g id="edge1" class="edge">
<title>Node1&#45;&gt;Node2</title>
<path fill="none" stroke="#191970" d="M133.1837,-395.1108C161.2592,-412.6472 209.4259,-440.9465 254,-458.5 265.4529,-463.0102 277.8701,-466.9963 290.0833,-470.443"/>
<polygon fill="#191970" stroke="#191970" points="134.7911,-391.9865 124.4668,-389.6074 131.0541,-397.9056 134.7911,-391.9865"/>
</g>
<!-- Node4 -->
<g id="node4" class="node">
<title>Node4</title>
<g id="a_node4"><a xlink:href="../../d9/df3/classTrackResiduals.html#a24bc1231ee21177540a3fdfd314c4445" target="_top" xlink:title="TrackResiduals::fillClusterTree">
<polygon fill="none" stroke="#000000" points="279.5,-428.5 279.5,-448.5 446.5,-448.5 446.5,-428.5 279.5,-428.5"/>
<text text-anchor="middle" x="363" y="-435.5" font-family="FreeSans" font-size="10.00" fill="#000000">TrackResiduals::fillClusterTree</text>
</a>
</g>
</g>
<!-- Node1&#45;&gt;Node4 -->
<g id="edge3" class="edge">
<title>Node1&#45;&gt;Node4</title>
<path fill="none" stroke="#191970" d="M151.6067,-392.4214C180.3536,-400.8505 219.2419,-411.6955 254,-419.5 268.619,-422.7825 284.4485,-425.8286 299.3937,-428.4776"/>
<polygon fill="#191970" stroke="#191970" points="152.4668,-389.026 141.8849,-389.5497 150.4837,-395.7393 152.4668,-389.026"/>
</g>
<!-- Node6 -->
<g id="node6" class="node">
<title>Node6</title>
<g id="a_node6"><a xlink:href="../../d9/df3/classTrackResiduals.html#ab58ccca999b43d7a6b909f06a29aa944" target="_top" xlink:title="TrackResiduals::fillHitTree">
<polygon fill="none" stroke="#000000" points="290,-389.5 290,-409.5 436,-409.5 436,-389.5 290,-389.5"/>
<text text-anchor="middle" x="363" y="-396.5" font-family="FreeSans" font-size="10.00" fill="#000000">TrackResiduals::fillHitTree</text>
</a>
</g>
</g>
<!-- Node1&#45;&gt;Node6 -->
<g id="edge5" class="edge">
<title>Node1&#45;&gt;Node6</title>
<path fill="none" stroke="#191970" d="M228.4456,-388.9052C249.396,-390.5548 270.6215,-392.2261 289.8309,-393.7387"/>
<polygon fill="#191970" stroke="#191970" points="228.4369,-385.3937 218.1929,-388.0979 227.8873,-392.3721 228.4369,-385.3937"/>
</g>
<!-- Node7 -->
<g id="node7" class="node">
<title>Node7</title>
<g id="a_node7"><a xlink:href="../../d0/daa/classMicromegasMapping.html#a94bf897ee0b6fb3e2398a8529ee16cfd" target="_top" xlink:title="get physical strip number from channel_id">
<polygon fill="none" stroke="#000000" points="299.5,-289.5 299.5,-321.5 426.5,-321.5 426.5,-289.5 299.5,-289.5"/>
<text text-anchor="start" x="307.5" y="-308.5" font-family="FreeSans" font-size="10.00" fill="#000000">MicromegasMapping::</text>
<text text-anchor="middle" x="363" y="-296.5" font-family="FreeSans" font-size="10.00" fill="#000000">get_physical_strip</text>
</a>
</g>
</g>
<!-- Node1&#45;&gt;Node7 -->
<g id="edge7" class="edge">
<title>Node1&#45;&gt;Node7</title>
<path fill="none" stroke="#191970" d="M153.1439,-366.6392C196.1652,-354.1054 261.6958,-335.0138 308.0666,-321.5042"/>
<polygon fill="#191970" stroke="#191970" points="152.1418,-363.2856 143.5199,-369.443 154.0998,-370.0061 152.1418,-363.2856"/>
</g>
<!-- Node8 -->
<g id="node8" class="node">
<title>Node8</title>
<g id="a_node8"><a xlink:href="../../dc/db9/classTpotMon.html#abf90bd697ed89989ecd6b6303a3037eb" target="_top" xlink:title="TpotMon::process_event">
<polygon fill="none" stroke="#000000" points="540.5,-382.5 540.5,-402.5 681.5,-402.5 681.5,-382.5 540.5,-382.5"/>
<text text-anchor="middle" x="611" y="-389.5" font-family="FreeSans" font-size="10.00" fill="#000000">TpotMon::process_event</text>
</a>
</g>
</g>
<!-- Node1&#45;&gt;Node8 -->
<g id="edge21" class="edge">
<title>Node1&#45;&gt;Node8</title>
<path fill="none" stroke="#191970" d="M228.5565,-377.3264C299.3716,-376.6633 390.8396,-376.8912 472,-380.5 494.262,-381.4899 518.4751,-383.3181 540.3617,-385.2542"/>
<polygon fill="#191970" stroke="#191970" points="228.226,-373.8295 218.2619,-377.4304 228.2968,-380.8291 228.226,-373.8295"/>
</g>
<!-- Node20 -->
<g id="node20" class="node">
<title>Node20</title>
<g id="a_node20"><a xlink:href="../../d2/ddf/namespaceMicromegasDefs.html#add39c4d5467971f7da1b86820b6c8310" target="_top" xlink:title="Get the segmentation type from cluster key.">
<polygon fill="none" stroke="#000000" points="254,-250.5 254,-270.5 472,-270.5 472,-250.5 254,-250.5"/>
<text text-anchor="middle" x="363" y="-257.5" font-family="FreeSans" font-size="10.00" fill="#000000">MicromegasDefs::getSegmentationType</text>
</a>
</g>
</g>
<!-- Node1&#45;&gt;Node20 -->
<g id="edge20" class="edge">
<title>Node1&#45;&gt;Node20</title>
<path fill="none" stroke="#191970" d="M127.7107,-362.8458C153.9687,-340.4314 204.1442,-301.0089 254,-280.5 263.964,-276.4012 274.7846,-273.1385 285.6102,-270.5424"/>
<polygon fill="#191970" stroke="#191970" points="125.3207,-360.2855 120.0565,-369.48 129.9055,-365.5752 125.3207,-360.2855"/>
</g>
<!-- Node3 -->
<g id="node3" class="node">
<title>Node3</title>
<g id="a_node3"><a xlink:href="../../d5/df8/classQAG4SimulationMicromegas.html#aaf9244726798d2865626790e62f3a218" target="_top" xlink:title="QAG4SimulationMicromegas\l::process_event">
<polygon fill="none" stroke="#000000" points="530.5,-472.5 530.5,-504.5 691.5,-504.5 691.5,-472.5 530.5,-472.5"/>
<text text-anchor="start" x="538.5" y="-491.5" font-family="FreeSans" font-size="10.00" fill="#000000">QAG4SimulationMicromegas</text>
<text text-anchor="middle" x="611" y="-479.5" font-family="FreeSans" font-size="10.00" fill="#000000">::process_event</text>
</a>
</g>
</g>
<!-- Node2&#45;&gt;Node3 -->
<g id="edge2" class="edge">
<title>Node2&#45;&gt;Node3</title>
<path fill="none" stroke="#191970" d="M453.7761,-487.2321C478.8921,-487.4346 505.9714,-487.653 530.4614,-487.8505"/>
<polygon fill="#191970" stroke="#191970" points="453.5464,-483.7302 443.5185,-487.1493 453.4899,-490.73 453.5464,-483.7302"/>
</g>
<!-- Node5 -->
<g id="node5" class="node">
<title>Node5</title>
<g id="a_node5"><a xlink:href="../../d9/df3/classTrackResiduals.html#acf3f931165c42ab03b6f41f2116fcbd7" target="_top" xlink:title="TrackResiduals::process\l_event">
<polygon fill="none" stroke="#000000" points="542.5,-421.5 542.5,-453.5 679.5,-453.5 679.5,-421.5 542.5,-421.5"/>
<text text-anchor="start" x="550.5" y="-440.5" font-family="FreeSans" font-size="10.00" fill="#000000">TrackResiduals::process</text>
<text text-anchor="middle" x="611" y="-428.5" font-family="FreeSans" font-size="10.00" fill="#000000">_event</text>
</a>
</g>
</g>
<!-- Node4&#45;&gt;Node5 -->
<g id="edge4" class="edge">
<title>Node4&#45;&gt;Node5</title>
<path fill="none" stroke="#191970" d="M456.9373,-438.1212C485.2586,-438.007 515.8065,-437.8838 542.1736,-437.7775"/>
<polygon fill="#191970" stroke="#191970" points="456.6015,-434.6224 446.6157,-438.1628 456.6298,-441.6224 456.6015,-434.6224"/>
</g>
<!-- Node6&#45;&gt;Node5 -->
<g id="edge6" class="edge">
<title>Node6&#45;&gt;Node5</title>
<path fill="none" stroke="#191970" d="M438.5317,-411.0734C471.5124,-416.1269 509.9219,-422.0122 542.1112,-426.9445"/>
<polygon fill="#191970" stroke="#191970" points="438.8983,-407.5888 428.4835,-409.5338 437.838,-414.508 438.8983,-407.5888"/>
</g>
<!-- Node7&#45;&gt;Node8 -->
<g id="edge8" class="edge">
<title>Node7&#45;&gt;Node8</title>
<path fill="none" stroke="#191970" d="M424.5334,-325.1717C440.3991,-331.1737 457.1729,-338.3684 472,-346.5 489.5359,-356.1173 489.6812,-365.4736 508,-373.5 518.1596,-377.9515 529.3256,-381.3603 540.4417,-383.9706"/>
<polygon fill="#191970" stroke="#191970" points="425.3911,-321.758 414.7976,-321.591 422.9748,-328.3278 425.3911,-321.758"/>
</g>
<!-- Node9 -->
<g id="node9" class="node">
<title>Node9</title>
<g id="a_node9"><a xlink:href="../../d8/d18/classMicromegasRawDataDecoder.html#a5f3f52ec9828e6457b5c13047ccc5c7e" target="_top" xlink:title="event processing">
<polygon fill="none" stroke="#000000" points="528.5,-331.5 528.5,-363.5 693.5,-363.5 693.5,-331.5 528.5,-331.5"/>
<text text-anchor="start" x="536.5" y="-350.5" font-family="FreeSans" font-size="10.00" fill="#000000">MicromegasRawDataDecoder</text>
<text text-anchor="middle" x="611" y="-338.5" font-family="FreeSans" font-size="10.00" fill="#000000">::process_event</text>
</a>
</g>
</g>
<!-- Node7&#45;&gt;Node9 -->
<g id="edge9" class="edge">
<title>Node7&#45;&gt;Node9</title>
<path fill="none" stroke="#191970" d="M436.562,-317.9581C465.4399,-322.8487 498.7172,-328.4844 528.4142,-333.5137"/>
<polygon fill="#191970" stroke="#191970" points="436.9882,-314.4805 426.5441,-316.2615 435.8193,-321.3822 436.9882,-314.4805"/>
</g>
<!-- Node10 -->
<g id="node10" class="node">
<title>Node10</title>
<g id="a_node10"><a xlink:href="../../d4/d6a/classMicromegasCombinedDataDecoder.html#aa05e5cbee2a1e33f005515927de080f8" target="_top" xlink:title="event processing">
<polygon fill="none" stroke="#000000" points="513,-280.5 513,-312.5 709,-312.5 709,-280.5 513,-280.5"/>
<text text-anchor="start" x="521" y="-299.5" font-family="FreeSans" font-size="10.00" fill="#000000">MicromegasCombinedDataDecoder</text>
<text text-anchor="middle" x="611" y="-287.5" font-family="FreeSans" font-size="10.00" fill="#000000">::process_event</text>
</a>
</g>
</g>
<!-- Node7&#45;&gt;Node10 -->
<g id="edge10" class="edge">
<title>Node7&#45;&gt;Node10</title>
<path fill="none" stroke="#191970" d="M436.604,-302.8289C460.5393,-301.9603 487.4935,-300.9821 512.9247,-300.0592"/>
<polygon fill="#191970" stroke="#191970" points="436.4106,-299.3335 426.5441,-303.194 436.6645,-306.3289 436.4106,-299.3335"/>
</g>
<!-- Node11 -->
<g id="node11" class="node">
<title>Node11</title>
<g id="a_node11"><a xlink:href="../../da/d53/classMicromegasRawDataEvaluation.html#a9f45cee5f08386bbb2cb7da9d639a7fb" target="_top" xlink:title="event processing">
<polygon fill="none" stroke="#000000" points="523,-229.5 523,-261.5 699,-261.5 699,-229.5 523,-229.5"/>
<text text-anchor="start" x="531" y="-248.5" font-family="FreeSans" font-size="10.00" fill="#000000">MicromegasRawDataEvaluation</text>
<text text-anchor="middle" x="611" y="-236.5" font-family="FreeSans" font-size="10.00" fill="#000000">::process_event</text>
</a>
</g>
</g>
<!-- Node7&#45;&gt;Node11 -->
<g id="edge11" class="edge">
<title>Node7&#45;&gt;Node11</title>
<path fill="none" stroke="#191970" d="M436.6059,-288.8416C448.4508,-286.0965 460.5709,-283.2493 472,-280.5 475.9922,-279.5397 512.8232,-270.2643 547.5667,-261.504"/>
<polygon fill="#191970" stroke="#191970" points="435.6983,-285.459 426.7421,-291.1191 437.2732,-292.2795 435.6983,-285.459"/>
</g>
<!-- Node12 -->
<g id="node12" class="node">
<title>Node12</title>
<g id="a_node12"><a xlink:href="../../da/d18/classMicromegasCombinedDataEvaluation.html#a8e3333b031d37632a44dd7f1ea1e569e" target="_top" xlink:title="event processing">
<polygon fill="none" stroke="#000000" points="508,-178.5 508,-210.5 714,-210.5 714,-178.5 508,-178.5"/>
<text text-anchor="start" x="516" y="-197.5" font-family="FreeSans" font-size="10.00" fill="#000000">MicromegasCombinedDataEvaluation</text>
<text text-anchor="middle" x="611" y="-185.5" font-family="FreeSans" font-size="10.00" fill="#000000">::process_event</text>
</a>
</g>
</g>
<!-- Node7&#45;&gt;Node12 -->
<g id="edge12" class="edge">
<title>Node7&#45;&gt;Node12</title>
<path fill="none" stroke="#191970" d="M436.332,-297.226C449.0137,-293.4859 461.483,-288.1346 472,-280.5 497.1665,-262.2309 483.0342,-239.0424 508,-220.5 513.1821,-216.6512 518.8725,-213.3688 524.8353,-210.5699"/>
<polygon fill="#191970" stroke="#191970" points="435.4006,-293.8518 426.6217,-299.7831 437.1833,-300.6211 435.4006,-293.8518"/>
</g>
<!-- Node13 -->
<g id="node13" class="node">
<title>Node13</title>
<g id="a_node13"><a xlink:href="../../d8/dcc/classMicromegasCalibrationData.html#ae232d25678922bec170f3180526aa6be" target="_top" xlink:title="read calibration from file">
<polygon fill="none" stroke="#000000" points="533,-127.5 533,-159.5 689,-159.5 689,-127.5 533,-127.5"/>
<text text-anchor="start" x="541" y="-146.5" font-family="FreeSans" font-size="10.00" fill="#000000">MicromegasCalibrationData</text>
<text text-anchor="middle" x="611" y="-134.5" font-family="FreeSans" font-size="10.00" fill="#000000">::read</text>
</a>
</g>
</g>
<!-- Node7&#45;&gt;Node13 -->
<g id="edge13" class="edge">
<title>Node7&#45;&gt;Node13</title>
<path fill="none" stroke="#191970" d="M436.5114,-299.5057C449.5275,-295.5887 462.0721,-289.589 472,-280.5 510.2532,-245.4789 470.1309,-204.936 508,-169.5 515.1373,-162.8213 523.734,-157.7936 532.88,-154.0196"/>
<polygon fill="#191970" stroke="#191970" points="435.2971,-296.2051 426.5015,-302.1117 437.0608,-302.9792 435.2971,-296.2051"/>
</g>
<!-- Node14 -->
<g id="node14" class="node">
<title>Node14</title>
<g id="a_node14"><a xlink:href="../../d1/dbc/classMicromegasClusterizer.html#a7976fd9d9dee7dd070c299e9a5781163" target="_top" xlink:title="global initialization">
<polygon fill="none" stroke="#000000" points="787,-243.5 787,-275.5 919,-275.5 919,-243.5 787,-243.5"/>
<text text-anchor="start" x="795" y="-262.5" font-family="FreeSans" font-size="10.00" fill="#000000">MicromegasClusterizer</text>
<text text-anchor="middle" x="853" y="-250.5" font-family="FreeSans" font-size="10.00" fill="#000000">::Init</text>
</a>
</g>
</g>
<!-- Node13&#45;&gt;Node14 -->
<g id="edge14" class="edge">
<title>Node13&#45;&gt;Node14</title>
<path fill="none" stroke="#191970" d="M698.4946,-159.9449C703.9921,-162.6628 709.2256,-165.824 714,-169.5 740.1666,-189.6464 723.7415,-214.4735 750,-234.5 760.7541,-242.7018 773.8235,-248.2548 786.9922,-252.0039"/>
<polygon fill="#191970" stroke="#191970" points="699.5904,-156.6032 689.0278,-155.7768 696.7696,-163.0097 699.5904,-156.6032"/>
</g>
<!-- Node15 -->
<g id="node15" class="node">
<title>Node15</title>
<g id="a_node15"><a xlink:href="../../dc/db9/classTpotMon.html#a1b300fd55ba54d413384f400ca3118b0" target="_top" xlink:title="TpotMon::Init">
<polygon fill="none" stroke="#000000" points="810.5,-204.5 810.5,-224.5 895.5,-224.5 895.5,-204.5 810.5,-204.5"/>
<text text-anchor="middle" x="853" y="-211.5" font-family="FreeSans" font-size="10.00" fill="#000000">TpotMon::Init</text>
</a>
</g>
</g>
<!-- Node13&#45;&gt;Node15 -->
<g id="edge15" class="edge">
<title>Node13&#45;&gt;Node15</title>
<path fill="none" stroke="#191970" d="M697.6169,-162.7723C703.2444,-164.8154 708.7532,-167.0531 714,-169.5 731.887,-177.8418 731.8519,-187.7425 750,-195.5 768.9774,-203.612 791.3736,-208.2657 810.4268,-210.9331"/>
<polygon fill="#191970" stroke="#191970" points="698.6537,-159.428 688.0592,-159.5151 696.3956,-166.0538 698.6537,-159.428"/>
</g>
<!-- Node16 -->
<g id="node16" class="node">
<title>Node16</title>
<g id="a_node16"><a xlink:href="../../d8/d18/classMicromegasRawDataDecoder.html#aa4b28122967de81f9c189fa2f520f264" target="_top" xlink:title="global initialization">
<polygon fill="none" stroke="#000000" points="770.5,-153.5 770.5,-185.5 935.5,-185.5 935.5,-153.5 770.5,-153.5"/>
<text text-anchor="start" x="778.5" y="-172.5" font-family="FreeSans" font-size="10.00" fill="#000000">MicromegasRawDataDecoder</text>
<text text-anchor="middle" x="853" y="-160.5" font-family="FreeSans" font-size="10.00" fill="#000000">::Init</text>
</a>
</g>
</g>
<!-- Node13&#45;&gt;Node16 -->
<g id="edge16" class="edge">
<title>Node13&#45;&gt;Node16</title>
<path fill="none" stroke="#191970" d="M699.4141,-152.999C722.6233,-155.4926 747.5607,-158.1718 770.4496,-160.631"/>
<polygon fill="#191970" stroke="#191970" points="699.553,-149.4939 689.2363,-151.9055 698.8051,-156.4538 699.553,-149.4939"/>
</g>
<!-- Node17 -->
<g id="node17" class="node">
<title>Node17</title>
<g id="a_node17"><a xlink:href="../../d4/d6a/classMicromegasCombinedDataDecoder.html#aa4f40fcddc7a9f6b8ee98097e5e2abc8" target="_top" xlink:title="global initialization">
<polygon fill="none" stroke="#000000" points="755,-102.5 755,-134.5 951,-134.5 951,-102.5 755,-102.5"/>
<text text-anchor="start" x="763" y="-121.5" font-family="FreeSans" font-size="10.00" fill="#000000">MicromegasCombinedDataDecoder</text>
<text text-anchor="middle" x="853" y="-109.5" font-family="FreeSans" font-size="10.00" fill="#000000">::Init</text>
</a>
</g>
</g>
<!-- Node13&#45;&gt;Node17 -->
<g id="edge17" class="edge">
<title>Node13&#45;&gt;Node17</title>
<path fill="none" stroke="#191970" d="M699.3925,-134.3685C717.3643,-132.5119 736.3732,-130.5482 754.6654,-128.6585"/>
<polygon fill="#191970" stroke="#191970" points="698.8236,-130.9086 689.2363,-135.4177 699.543,-137.8715 698.8236,-130.9086"/>
</g>
<!-- Node18 -->
<g id="node18" class="node">
<title>Node18</title>
<g id="a_node18"><a xlink:href="../../da/d18/classMicromegasCombinedDataEvaluation.html#ab4de77d610297b4288404c3bd2c3f775" target="_top" xlink:title="global initialization">
<polygon fill="none" stroke="#000000" points="750,-51.5 750,-83.5 956,-83.5 956,-51.5 750,-51.5"/>
<text text-anchor="start" x="758" y="-70.5" font-family="FreeSans" font-size="10.00" fill="#000000">MicromegasCombinedDataEvaluation</text>
<text text-anchor="middle" x="853" y="-58.5" font-family="FreeSans" font-size="10.00" fill="#000000">::Init</text>
</a>
</g>
</g>
<!-- Node13&#45;&gt;Node18 -->
<g id="edge18" class="edge">
<title>Node13&#45;&gt;Node18</title>
<path fill="none" stroke="#191970" d="M661.9879,-123.8035C688.1033,-114.0621 720.5291,-102.4965 750,-93.5 761.3773,-90.0269 773.56,-86.6534 785.42,-83.5498"/>
<polygon fill="#191970" stroke="#191970" points="660.4387,-120.6465 652.3072,-127.4385 662.8994,-127.1998 660.4387,-120.6465"/>
</g>
<!-- Node19 -->
<g id="node19" class="node">
<title>Node19</title>
<g id="a_node19"><a xlink:href="../../da/d53/classMicromegasRawDataEvaluation.html#a0104745f1aedf534f628f7e31f0045ff" target="_top" xlink:title="global initialization">
<polygon fill="none" stroke="#000000" points="765,-.5 765,-32.5 941,-32.5 941,-.5 765,-.5"/>
<text text-anchor="start" x="773" y="-19.5" font-family="FreeSans" font-size="10.00" fill="#000000">MicromegasRawDataEvaluation</text>
<text text-anchor="middle" x="853" y="-7.5" font-family="FreeSans" font-size="10.00" fill="#000000">::Init</text>
</a>
</g>
</g>
<!-- Node13&#45;&gt;Node19 -->
<g id="edge19" class="edge">
<title>Node13&#45;&gt;Node19</title>
<path fill="none" stroke="#191970" d="M636.0147,-120.3215C662.4258,-97.0711 706.2243,-61.8732 750,-41.5 757.3405,-38.0837 765.2004,-35.1033 773.1843,-32.5098"/>
<polygon fill="#191970" stroke="#191970" points="633.5243,-117.853 628.3957,-127.1239 638.1863,-123.0747 633.5243,-117.853"/>
</g>
</g>
</svg>
