<?xml version="1.0" encoding="UTF-8" standalone="no"?>
<!DOCTYPE svg PUBLIC "-//W3C//DTD SVG 1.1//EN"
 "http://www.w3.org/Graphics/SVG/1.1/DTD/svg11.dtd">
<!-- Generated by graphviz version 2.40.1 (20161225.0304)
 -->
<!-- Title: Calib::fill_tree Pages: 1 -->
<svg width="292pt" height="338pt"
 viewBox="0.00 0.00 292.00 338.00" xmlns="http://www.w3.org/2000/svg" xmlns:xlink="http://www.w3.org/1999/xlink">
<g id="graph0" class="graph" transform="scale(1 1) rotate(0) translate(4 334)">
<title>Calib::fill_tree</title>
<!-- Node1 -->
<g id="node1" class="node">
<title>Node1</title>
<polygon fill="#bfbfbf" stroke="#000000" points="0,-172.5 0,-192.5 86,-192.5 86,-172.5 0,-172.5"/>
<text text-anchor="middle" x="43" y="-179.5" font-family="FreeSans" font-size="10.00" fill="#000000">Calib::fill_tree</text>
</g>
<!-- Node2 -->
<g id="node2" class="node">
<title>Node2</title>
<g id="a_node2"><a xlink:href="../../d8/dc4/classRawTowerGeom.html#a6a005b6d31128ba0373f771b1f2bdd5f" target="_top" xlink:title="RawTowerGeom::get_column">
<polygon fill="none" stroke="#000000" points="122,-309.5 122,-329.5 284,-329.5 284,-309.5 122,-309.5"/>
<text text-anchor="middle" x="203" y="-316.5" font-family="FreeSans" font-size="10.00" fill="#000000">RawTowerGeom::get_column</text>
</a>
</g>
</g>
<!-- Node1&#45;&gt;Node2 -->
<g id="edge1" class="edge">
<title>Node1&#45;&gt;Node2</title>
<path fill="none" stroke="#191970" d="M46.7311,-192.5933C55.7933,-215.6353 81.2598,-272.2906 122,-300.5 124.5309,-302.2525 127.2018,-303.8448 129.9719,-305.2916"/>
<polygon fill="#191970" stroke="#191970" points="128.5532,-308.4913 139.106,-309.4344 131.4446,-302.1163 128.5532,-308.4913"/>
</g>
<!-- Node3 -->
<g id="node3" class="node">
<title>Node3</title>
<g id="a_node3"><a xlink:href="../../d9/dd8/classRawTower.html#ab23195d58fefabd9162115afa96707cc" target="_top" xlink:title="energy assigned to the tower. Depending on stage of process and DST node name, it could be energy dep...">
<polygon fill="none" stroke="#000000" points="138,-270.5 138,-290.5 268,-290.5 268,-270.5 138,-270.5"/>
<text text-anchor="middle" x="203" y="-277.5" font-family="FreeSans" font-size="10.00" fill="#000000">RawTower::get_energy</text>
</a>
</g>
</g>
<!-- Node1&#45;&gt;Node3 -->
<g id="edge2" class="edge">
<title>Node1&#45;&gt;Node3</title>
<path fill="none" stroke="#191970" d="M50.0165,-192.5069C62.4681,-209.4733 90.138,-243.7654 122,-261.5 125.6916,-263.5548 129.5971,-265.388 133.6193,-267.0236"/>
<polygon fill="#191970" stroke="#191970" points="132.5767,-270.3686 143.1708,-270.4922 134.9662,-263.789 132.5767,-270.3686"/>
</g>
<!-- Node4 -->
<g id="node4" class="node">
<title>Node4</title>
<g id="a_node4"><a xlink:href="../../d8/dc4/classRawTowerGeom.html#aed31c4e7b05d1f434c0cdc26fe438d46" target="_top" xlink:title="RawTowerGeom::get_eta">
<polygon fill="none" stroke="#000000" points="132.5,-231.5 132.5,-251.5 273.5,-251.5 273.5,-231.5 132.5,-231.5"/>
<text text-anchor="middle" x="203" y="-238.5" font-family="FreeSans" font-size="10.00" fill="#000000">RawTowerGeom::get_eta</text>
</a>
</g>
</g>
<!-- Node1&#45;&gt;Node4 -->
<g id="edge3" class="edge">
<title>Node1&#45;&gt;Node4</title>
<path fill="none" stroke="#191970" d="M60.037,-192.6286C75.6868,-201.5638 99.757,-214.392 122,-222.5 128.3825,-224.8265 135.1537,-226.9395 141.9554,-228.8389"/>
<polygon fill="#191970" stroke="#191970" points="141.3383,-232.2959 151.9008,-231.4688 143.1279,-225.5285 141.3383,-232.2959"/>
</g>
<!-- Node5 -->
<g id="node5" class="node">
<title>Node5</title>
<g id="a_node5"><a xlink:href="../../d8/dc4/classRawTowerGeom.html#a39490c6ecb489ef5a99cf26a8f25ecfc" target="_top" xlink:title="RawTowerGeom::get_phi">
<polygon fill="none" stroke="#000000" points="133,-192.5 133,-212.5 273,-212.5 273,-192.5 133,-192.5"/>
<text text-anchor="middle" x="203" y="-199.5" font-family="FreeSans" font-size="10.00" fill="#000000">RawTowerGeom::get_phi</text>
</a>
</g>
</g>
<!-- Node1&#45;&gt;Node5 -->
<g id="edge4" class="edge">
<title>Node1&#45;&gt;Node5</title>
<path fill="none" stroke="#191970" d="M86.2983,-187.9123C97.6174,-189.3272 110.188,-190.8985 122.7662,-192.4708"/>
<polygon fill="#191970" stroke="#191970" points="122.4747,-195.9615 132.8317,-193.729 123.343,-189.0156 122.4747,-195.9615"/>
</g>
<!-- Node6 -->
<g id="node6" class="node">
<title>Node6</title>
<g id="a_node6"><a xlink:href="../../d8/dc4/classRawTowerGeom.html#a1ad7f3c1cac166fc5f7ae5a6a317b413" target="_top" xlink:title="RawTowerGeom::get_row">
<polygon fill="none" stroke="#000000" points="131,-153.5 131,-173.5 275,-173.5 275,-153.5 131,-153.5"/>
<text text-anchor="middle" x="203" y="-160.5" font-family="FreeSans" font-size="10.00" fill="#000000">RawTowerGeom::get_row</text>
</a>
</g>
</g>
<!-- Node1&#45;&gt;Node6 -->
<g id="edge5" class="edge">
<title>Node1&#45;&gt;Node6</title>
<path fill="none" stroke="#191970" d="M86.2983,-177.3583C97.0715,-176.079 108.9784,-174.6651 120.9466,-173.2438"/>
<polygon fill="#191970" stroke="#191970" points="121.4733,-176.706 130.9908,-172.0511 120.6478,-169.7548 121.4733,-176.706"/>
</g>
<!-- Node7 -->
<g id="node7" class="node">
<title>Node7</title>
<g id="a_node7"><a xlink:href="../../df/d49/classRawTowerGeomContainer.html#a21ac9ae05bf80964794b1542c0b982ce" target="_top" xlink:title="RawTowerGeomContainer\l::get_tower_geometry">
<polygon fill="none" stroke="#000000" points="129.5,-102.5 129.5,-134.5 276.5,-134.5 276.5,-102.5 129.5,-102.5"/>
<text text-anchor="start" x="137.5" y="-121.5" font-family="FreeSans" font-size="10.00" fill="#000000">RawTowerGeomContainer</text>
<text text-anchor="middle" x="203" y="-109.5" font-family="FreeSans" font-size="10.00" fill="#000000">::get_tower_geometry</text>
</a>
</g>
</g>
<!-- Node1&#45;&gt;Node7 -->
<g id="edge6" class="edge">
<title>Node1&#45;&gt;Node7</title>
<path fill="none" stroke="#191970" d="M62.1463,-172.372C77.9427,-164.2408 101.0776,-152.8438 122,-144.5 127.7618,-142.2022 133.8132,-139.9585 139.9042,-137.8131"/>
<polygon fill="#191970" stroke="#191970" points="141.1502,-141.0859 149.4723,-134.5289 138.8776,-134.4651 141.1502,-141.0859"/>
</g>
<!-- Node8 -->
<g id="node8" class="node">
<title>Node8</title>
<g id="a_node8"><a xlink:href="../../d3/dc7/classRawTowerContainer.html#a94a3368d6cd85ea4c3f204cd1065da26" target="_top" xlink:title="RawTowerContainer::\lgetTower">
<polygon fill="none" stroke="#000000" points="142,-51.5 142,-83.5 264,-83.5 264,-51.5 142,-51.5"/>
<text text-anchor="start" x="150" y="-70.5" font-family="FreeSans" font-size="10.00" fill="#000000">RawTowerContainer::</text>
<text text-anchor="middle" x="203" y="-58.5" font-family="FreeSans" font-size="10.00" fill="#000000">getTower</text>
</a>
</g>
</g>
<!-- Node1&#45;&gt;Node8 -->
<g id="edge7" class="edge">
<title>Node1&#45;&gt;Node8</title>
<path fill="none" stroke="#191970" d="M49.2993,-172.3686C61.2374,-153.9861 88.9429,-115.0507 122,-93.5 125.3154,-91.3386 128.8242,-89.3449 132.4496,-87.5073"/>
<polygon fill="#191970" stroke="#191970" points="134.0466,-90.625 141.6579,-83.2548 131.1118,-84.27 134.0466,-90.625"/>
</g>
<!-- Node9 -->
<g id="node9" class="node">
<title>Node9</title>
<g id="a_node9"><a xlink:href="../../d3/dc7/classRawTowerContainer.html#a425be883ff7f6b5c754332c45b6958cd" target="_top" xlink:title="return all towers">
<polygon fill="none" stroke="#000000" points="142,-.5 142,-32.5 264,-32.5 264,-.5 142,-.5"/>
<text text-anchor="start" x="150" y="-19.5" font-family="FreeSans" font-size="10.00" fill="#000000">RawTowerContainer::</text>
<text text-anchor="middle" x="203" y="-7.5" font-family="FreeSans" font-size="10.00" fill="#000000">getTowers</text>
</a>
</g>
</g>
<!-- Node1&#45;&gt;Node9 -->
<g id="edge8" class="edge">
<title>Node1&#45;&gt;Node9</title>
<path fill="none" stroke="#191970" d="M45.8765,-172.3483C53.6711,-146.6763 77.6515,-78.6443 122,-42.5 125.2843,-39.8233 128.8497,-37.42 132.5919,-35.2624"/>
<polygon fill="#191970" stroke="#191970" points="134.2838,-38.3284 141.5956,-30.6611 131.0983,-32.0952 134.2838,-38.3284"/>
</g>
</g>
</svg>
