<?xml version="1.0" encoding="UTF-8" standalone="no"?>
<!DOCTYPE svg PUBLIC "-//W3C//DTD SVG 1.1//EN"
 "http://www.w3.org/Graphics/SVG/1.1/DTD/svg11.dtd">
<!-- Generated by graphviz version 2.40.1 (20161225.0304)
 -->
<!-- Title: PHG4GDMLWrite::VolumeMap Pages: 1 -->
<svg width="1293pt" height="860pt"
 viewBox="0.00 0.00 1293.00 860.00" xmlns="http://www.w3.org/2000/svg" xmlns:xlink="http://www.w3.org/1999/xlink">
<g id="graph0" class="graph" transform="scale(1 1) rotate(0) translate(4 856)">
<title>PHG4GDMLWrite::VolumeMap</title>
<!-- Node1 -->
<g id="node1" class="node">
<title>Node1</title>
<polygon fill="#bfbfbf" stroke="#000000" points="0,-350.5 0,-370.5 166,-370.5 166,-350.5 0,-350.5"/>
<text text-anchor="middle" x="83" y="-357.5" font-family="FreeSans" font-size="10.00" fill="#000000">PHG4GDMLWrite::VolumeMap</text>
</g>
<!-- Node2 -->
<g id="node2" class="node">
<title>Node2</title>
<g id="a_node2"><a xlink:href="../../d2/d72/classPHG4GDMLWriteStructure.html#a957c6f2d283732660e3eb9c41b982048" target="_top" xlink:title="PHG4GDMLWriteStructure\l::TraverseVolumeTree">
<polygon fill="none" stroke="#000000" points="385.5,-364.5 385.5,-396.5 531.5,-396.5 531.5,-364.5 385.5,-364.5"/>
<text text-anchor="start" x="393.5" y="-383.5" font-family="FreeSans" font-size="10.00" fill="#000000">PHG4GDMLWriteStructure</text>
<text text-anchor="middle" x="458.5" y="-371.5" font-family="FreeSans" font-size="10.00" fill="#000000">::TraverseVolumeTree</text>
</a>
</g>
</g>
<!-- Node1&#45;&gt;Node2 -->
<g id="edge1" class="edge">
<title>Node1&#45;&gt;Node2</title>
<path fill="none" stroke="#191970" d="M176.5116,-365.4806C241.0308,-368.9171 325.5953,-373.4212 385.2328,-376.5976"/>
<polygon fill="#191970" stroke="#191970" points="176.5077,-361.9756 166.3356,-364.9386 176.1353,-368.9657 176.5077,-361.9756"/>
</g>
<!-- Node3 -->
<g id="node3" class="node">
<title>Node3</title>
<g id="a_node3"><a xlink:href="../../dd/db5/classPHG4GDMLWrite.html#af4241e53bb71408c9bf11117053f9810" target="_top" xlink:title="PHG4GDMLWrite::Write">
<polygon fill="none" stroke="#000000" points="202,-331.5 202,-351.5 335,-351.5 335,-331.5 202,-331.5"/>
<text text-anchor="middle" x="268.5" y="-338.5" font-family="FreeSans" font-size="10.00" fill="#000000">PHG4GDMLWrite::Write</text>
</a>
</g>
</g>
<!-- Node1&#45;&gt;Node3 -->
<g id="edge2" class="edge">
<title>Node1&#45;&gt;Node3</title>
<path fill="none" stroke="#191970" d="M176.3638,-350.9371C184.9881,-350.0538 193.6053,-349.1712 201.9171,-348.3198"/>
<polygon fill="#191970" stroke="#191970" points="175.8456,-347.4718 166.2543,-351.9726 176.5589,-354.4354 175.8456,-347.4718"/>
</g>
<!-- Node3&#45;&gt;Node2 -->
<g id="edge29" class="edge">
<title>Node3&#45;&gt;Node2</title>
<path fill="none" stroke="#191970" d="M327.3791,-353.5857C345.7173,-357.3499 366.1653,-361.5471 385.3553,-365.4861"/>
<polygon fill="#191970" stroke="#191970" points="327.9293,-350.1257 317.4297,-351.5435 326.5217,-356.9828 327.9293,-350.1257"/>
</g>
<!-- Node4 -->
<g id="node4" class="node">
<title>Node4</title>
<g id="a_node4"><a xlink:href="../../d9/df8/classPHG4GDMLUtility.html#adb03ec38807279cb5abaf38987c5a73f" target="_top" xlink:title="save the current Geant4 geometry to GDML file. Reading PHG4GDMLConfig from topNode">
<polygon fill="none" stroke="#000000" points="371,-325.5 371,-345.5 546,-345.5 546,-325.5 371,-325.5"/>
<text text-anchor="middle" x="458.5" y="-332.5" font-family="FreeSans" font-size="10.00" fill="#000000">PHG4GDMLUtility::Dump_GDML</text>
</a>
</g>
</g>
<!-- Node3&#45;&gt;Node4 -->
<g id="edge3" class="edge">
<title>Node3&#45;&gt;Node4</title>
<path fill="none" stroke="#191970" d="M345.3692,-339.0726C353.7854,-338.8068 362.3988,-338.5348 370.9318,-338.2653"/>
<polygon fill="#191970" stroke="#191970" points="345.1042,-335.5791 335.2197,-339.3931 345.3252,-342.5756 345.1042,-335.5791"/>
</g>
<!-- Node5 -->
<g id="node5" class="node">
<title>Node5</title>
<g id="a_node5"><a xlink:href="../../d0/d78/classPHG4Reco.html#a490f5037508d384c5b60855ef0f7e227" target="_top" xlink:title="PHG4Reco::Dump_GDML">
<polygon fill="none" stroke="#000000" points="582,-325.5 582,-345.5 723,-345.5 723,-325.5 582,-325.5"/>
<text text-anchor="middle" x="652.5" y="-332.5" font-family="FreeSans" font-size="10.00" fill="#000000">PHG4Reco::Dump_GDML</text>
</a>
</g>
</g>
<!-- Node4&#45;&gt;Node5 -->
<g id="edge4" class="edge">
<title>Node4&#45;&gt;Node5</title>
<path fill="none" stroke="#191970" d="M556.2462,-335.5C564.8703,-335.5 573.4865,-335.5 581.8221,-335.5"/>
<polygon fill="#191970" stroke="#191970" points="556.1351,-332.0001 546.1351,-335.5 556.135,-339.0001 556.1351,-332.0001"/>
</g>
<!-- Node6 -->
<g id="node6" class="node">
<title>Node6</title>
<g id="a_node6"><a xlink:href="../../d0/d78/classPHG4Reco.html#afb33612dcc374f0614d800dc9480305a" target="_top" xlink:title="PHG4Reco::InitRun">
<polygon fill="none" stroke="#000000" points="759,-325.5 759,-345.5 869,-345.5 869,-325.5 759,-325.5"/>
<text text-anchor="middle" x="814" y="-332.5" font-family="FreeSans" font-size="10.00" fill="#000000">PHG4Reco::InitRun</text>
</a>
</g>
</g>
<!-- Node5&#45;&gt;Node6 -->
<g id="edge5" class="edge">
<title>Node5&#45;&gt;Node6</title>
<path fill="none" stroke="#191970" d="M733.3931,-335.5C741.9791,-335.5 750.5628,-335.5 758.7562,-335.5"/>
<polygon fill="#191970" stroke="#191970" points="733.3363,-332.0001 723.3363,-335.5 733.3362,-339.0001 733.3363,-332.0001"/>
</g>
<!-- Node7 -->
<g id="node7" class="node">
<title>Node7</title>
<g id="a_node7"><a xlink:href="../../d3/d7e/analysis_2blob_2master_2EICAnalysis_2macros_2leptoquarks__fun4all_2DisplayOn_8C.html#a8ac4d6fb78f920957b354f88d6195f54" target="_top" xlink:title="DisplayOn">
<polygon fill="none" stroke="#000000" points="947,-403.5 947,-423.5 1015,-423.5 1015,-403.5 947,-403.5"/>
<text text-anchor="middle" x="981" y="-410.5" font-family="FreeSans" font-size="10.00" fill="#000000">DisplayOn</text>
</a>
</g>
</g>
<!-- Node6&#45;&gt;Node7 -->
<g id="edge6" class="edge">
<title>Node6&#45;&gt;Node7</title>
<path fill="none" stroke="#191970" d="M834.9107,-351.937C852.6571,-365.1572 879.2676,-383.3129 905,-394.5 918.2212,-400.2479 933.5236,-404.4933 946.917,-407.495"/>
<polygon fill="#191970" stroke="#191970" points="836.5694,-348.8014 826.4901,-345.5366 832.3335,-354.3743 836.5694,-348.8014"/>
</g>
<!-- Node26 -->
<g id="node26" class="node">
<title>Node26</title>
<g id="a_node26"><a xlink:href="../../d1/d41/analysis_2blob_2master_2pi0Efficiency_2macros_2gen_2DisplayOn_8C.html#a36f5cc4ebb7cd23dac7e492d5c38fbc0" target="_top" xlink:title="QTGui">
<polygon fill="none" stroke="#000000" points="957.5,-364.5 957.5,-384.5 1004.5,-384.5 1004.5,-364.5 957.5,-364.5"/>
<text text-anchor="middle" x="981" y="-371.5" font-family="FreeSans" font-size="10.00" fill="#000000">QTGui</text>
</a>
</g>
</g>
<!-- Node6&#45;&gt;Node26 -->
<g id="edge25" class="edge">
<title>Node6&#45;&gt;Node26</title>
<path fill="none" stroke="#191970" d="M867.0176,-347.8814C897.3213,-354.9583 933.8335,-363.4851 957.2254,-368.9479"/>
<polygon fill="#191970" stroke="#191970" points="867.5406,-344.4094 857.0066,-345.5435 865.9487,-351.226 867.5406,-344.4094"/>
</g>
<!-- Node27 -->
<g id="node27" class="node">
<title>Node27</title>
<g id="a_node27"><a xlink:href="../../db/d89/ConstructGeometry_8C.html#a21c369835643f1016f506a3da3b8d446" target="_top" xlink:title="ConstructGeometry">
<polygon fill="none" stroke="#000000" points="923.5,-325.5 923.5,-345.5 1038.5,-345.5 1038.5,-325.5 923.5,-325.5"/>
<text text-anchor="middle" x="981" y="-332.5" font-family="FreeSans" font-size="10.00" fill="#000000">ConstructGeometry</text>
</a>
</g>
</g>
<!-- Node6&#45;&gt;Node27 -->
<g id="edge26" class="edge">
<title>Node6&#45;&gt;Node27</title>
<path fill="none" stroke="#191970" d="M879.5186,-335.5C893.9851,-335.5 909.2075,-335.5 923.3353,-335.5"/>
<polygon fill="#191970" stroke="#191970" points="879.1449,-332.0001 869.1449,-335.5 879.1448,-339.0001 879.1449,-332.0001"/>
</g>
<!-- Node28 -->
<g id="node28" class="node">
<title>Node28</title>
<g id="a_node28"><a xlink:href="../../d4/dfa/Fun4All__Generator__Display_8C.html#af87924a94b22e18901f0d64805565f09" target="_top" xlink:title="Fun4All_Generator_Display">
<polygon fill="none" stroke="#000000" points="905,-286.5 905,-306.5 1057,-306.5 1057,-286.5 905,-286.5"/>
<text text-anchor="middle" x="981" y="-293.5" font-family="FreeSans" font-size="10.00" fill="#000000">Fun4All_Generator_Display</text>
</a>
</g>
</g>
<!-- Node6&#45;&gt;Node28 -->
<g id="edge27" class="edge">
<title>Node6&#45;&gt;Node28</title>
<path fill="none" stroke="#191970" d="M866.9386,-323.1371C889.9013,-317.7746 916.4411,-311.5766 938.1391,-306.5094"/>
<polygon fill="#191970" stroke="#191970" points="865.9487,-319.774 857.0066,-325.4565 867.5406,-326.5906 865.9487,-319.774"/>
</g>
<!-- Node29 -->
<g id="node29" class="node">
<title>Node29</title>
<g id="a_node29"><a xlink:href="../../d9/d1d/matscan_8C.html#a98ccbc6135fead542f3c4d1dd6882d63" target="_top" xlink:title="matscan">
<polygon fill="none" stroke="#000000" points="951.5,-247.5 951.5,-267.5 1010.5,-267.5 1010.5,-247.5 951.5,-247.5"/>
<text text-anchor="middle" x="981" y="-254.5" font-family="FreeSans" font-size="10.00" fill="#000000">matscan</text>
</a>
</g>
</g>
<!-- Node6&#45;&gt;Node29 -->
<g id="edge28" class="edge">
<title>Node6&#45;&gt;Node29</title>
<path fill="none" stroke="#191970" d="M835.2972,-319.2201C853.09,-306.3028 879.5675,-288.6258 905,-277.5 919.7499,-271.0474 937.0494,-266.2941 951.4144,-263.0444"/>
<polygon fill="#191970" stroke="#191970" points="832.7925,-316.7195 826.8359,-325.4813 836.9564,-322.3464 832.7925,-316.7195"/>
</g>
<!-- Node8 -->
<g id="node8" class="node">
<title>Node8</title>
<g id="a_node8"><a xlink:href="../../d4/de9/Fun4All__AnaTutorial__sPHENIX_8C.html#a5028836c74f0bebec560d3ab54daa022" target="_top" xlink:title="Fun4All_AnaTutorial\l_sPHENIX">
<polygon fill="none" stroke="#000000" points="1131.5,-819.5 1131.5,-851.5 1246.5,-851.5 1246.5,-819.5 1131.5,-819.5"/>
<text text-anchor="start" x="1139.5" y="-838.5" font-family="FreeSans" font-size="10.00" fill="#000000">Fun4All_AnaTutorial</text>
<text text-anchor="middle" x="1189" y="-826.5" font-family="FreeSans" font-size="10.00" fill="#000000">_sPHENIX</text>
</a>
</g>
</g>
<!-- Node7&#45;&gt;Node8 -->
<g id="edge7" class="edge">
<title>Node7&#45;&gt;Node8</title>
<path fill="none" stroke="#191970" d="M984.0094,-433.6887C995.2906,-506.7451 1037.2883,-755.9031 1093,-810.5 1103.394,-820.686 1117.3857,-826.8715 1131.4676,-830.5876"/>
<polygon fill="#191970" stroke="#191970" points="987.4287,-432.8927 982.4652,-423.5324 980.5082,-433.945 987.4287,-432.8927"/>
</g>
<!-- Node9 -->
<g id="node9" class="node">
<title>Node9</title>
<g id="a_node9"><a xlink:href="../../d6/d14/Fun4All__AnaTutorial__sPHENIX__Jets_8C.html#a61b352bca84476d24b0ff40991b27900" target="_top" xlink:title="Fun4All_AnaTutorial\l_sPHENIX_Jets">
<polygon fill="none" stroke="#000000" points="1131.5,-768.5 1131.5,-800.5 1246.5,-800.5 1246.5,-768.5 1131.5,-768.5"/>
<text text-anchor="start" x="1139.5" y="-787.5" font-family="FreeSans" font-size="10.00" fill="#000000">Fun4All_AnaTutorial</text>
<text text-anchor="middle" x="1189" y="-775.5" font-family="FreeSans" font-size="10.00" fill="#000000">_sPHENIX_Jets</text>
</a>
</g>
</g>
<!-- Node7&#45;&gt;Node9 -->
<g id="edge8" class="edge">
<title>Node7&#45;&gt;Node9</title>
<path fill="none" stroke="#191970" d="M984.8882,-433.6434C998.1629,-500.419 1043.6144,-712.9126 1093,-759.5 1103.5235,-769.4272 1117.4768,-775.5313 1131.4762,-779.2524"/>
<polygon fill="#191970" stroke="#191970" points="988.2731,-432.7165 982.9128,-423.5777 981.4041,-434.0645 988.2731,-432.7165"/>
</g>
<!-- Node10 -->
<g id="node10" class="node">
<title>Node10</title>
<g id="a_node10"><a xlink:href="../../d9/d7b/Fun4All__G4__Calo_8C.html#aefa5325c03444fd144b2a7d81b29c579" target="_top" xlink:title="Fun4All_G4_Calo">
<polygon fill="none" stroke="#000000" points="1139,-729.5 1139,-749.5 1239,-749.5 1239,-729.5 1139,-729.5"/>
<text text-anchor="middle" x="1189" y="-736.5" font-family="FreeSans" font-size="10.00" fill="#000000">Fun4All_G4_Calo</text>
</a>
</g>
</g>
<!-- Node7&#45;&gt;Node10 -->
<g id="edge9" class="edge">
<title>Node7&#45;&gt;Node10</title>
<path fill="none" stroke="#191970" d="M981.8968,-433.9561C985.4979,-489.4568 1003.4863,-643.8424 1093,-720.5 1105.6465,-731.3302 1122.6789,-736.6529 1138.8859,-739.0977"/>
<polygon fill="#191970" stroke="#191970" points="985.3752,-433.4679 981.3261,-423.6773 978.3859,-433.8559 985.3752,-433.4679"/>
</g>
<!-- Node11 -->
<g id="node11" class="node">
<title>Node11</title>
<g id="a_node11"><a xlink:href="../../df/dd8/Fun4All__G4__EICDetector__AnaTutorial_8C.html#a598434aca3dac5cdb0ca67ccc548d865" target="_top" xlink:title="Fun4All_G4_EICDetector\l_AnaTutorial">
<polygon fill="none" stroke="#000000" points="1119.5,-678.5 1119.5,-710.5 1258.5,-710.5 1258.5,-678.5 1119.5,-678.5"/>
<text text-anchor="start" x="1127.5" y="-697.5" font-family="FreeSans" font-size="10.00" fill="#000000">Fun4All_G4_EICDetector</text>
<text text-anchor="middle" x="1189" y="-685.5" font-family="FreeSans" font-size="10.00" fill="#000000">_AnaTutorial</text>
</a>
</g>
</g>
<!-- Node7&#45;&gt;Node11 -->
<g id="edge10" class="edge">
<title>Node7&#45;&gt;Node11</title>
<path fill="none" stroke="#191970" d="M983.8118,-433.8354C991.6267,-482.3629 1018.1914,-605.6444 1093,-669.5 1100.5976,-675.9852 1109.6803,-680.8151 1119.1851,-684.4068"/>
<polygon fill="#191970" stroke="#191970" points="987.2316,-433.0405 982.2786,-423.6747 980.3099,-434.085 987.2316,-433.0405"/>
</g>
<!-- Node12 -->
<g id="node12" class="node">
<title>Node12</title>
<g id="a_node12"><a xlink:href="../../d0/d37/analysis_2blob_2master_2EMCal-position-dependent-calibration_2example_2macro_2Fun4All__G4__sPHENIX_8C.html#a25b28b7ae5b3cc21d023910dc6abfc44" target="_top" xlink:title="Fun4All_G4_sPHENIX">
<polygon fill="none" stroke="#000000" points="1128.5,-639.5 1128.5,-659.5 1249.5,-659.5 1249.5,-639.5 1128.5,-639.5"/>
<text text-anchor="middle" x="1189" y="-646.5" font-family="FreeSans" font-size="10.00" fill="#000000">Fun4All_G4_sPHENIX</text>
</a>
</g>
</g>
<!-- Node7&#45;&gt;Node12 -->
<g id="edge11" class="edge">
<title>Node7&#45;&gt;Node12</title>
<path fill="none" stroke="#191970" d="M985.2025,-433.6353C995.3878,-477.0993 1025.6756,-579.8636 1093,-630.5 1103.2515,-638.2104 1115.8061,-643.0255 1128.4138,-645.9823"/>
<polygon fill="#191970" stroke="#191970" points="988.581,-432.7049 982.9884,-423.7064 981.7488,-434.2285 988.581,-432.7049"/>
</g>
<!-- Node13 -->
<g id="node13" class="node">
<title>Node13</title>
<g id="a_node13"><a xlink:href="../../d3/dfe/Fun4All__G4__sPHENIX__ForTrackCutStudy_8C.html#aee6928c85428dd1e5ef39817f4519fec" target="_top" xlink:title="Fun4All_G4_sPHENIX\l_ForTrackCutStudy">
<polygon fill="none" stroke="#000000" points="1128.5,-588.5 1128.5,-620.5 1249.5,-620.5 1249.5,-588.5 1128.5,-588.5"/>
<text text-anchor="start" x="1136.5" y="-607.5" font-family="FreeSans" font-size="10.00" fill="#000000">Fun4All_G4_sPHENIX</text>
<text text-anchor="middle" x="1189" y="-595.5" font-family="FreeSans" font-size="10.00" fill="#000000">_ForTrackCutStudy</text>
</a>
</g>
</g>
<!-- Node7&#45;&gt;Node13 -->
<g id="edge12" class="edge">
<title>Node7&#45;&gt;Node13</title>
<path fill="none" stroke="#191970" d="M988.6714,-433.1286C1003.3896,-468.1413 1038.998,-541.2722 1093,-579.5 1103.4724,-586.9134 1115.9798,-592.1292 1128.4508,-595.7986"/>
<polygon fill="#191970" stroke="#191970" points="991.7907,-431.5082 984.7772,-423.5672 985.3078,-434.1487 991.7907,-431.5082"/>
</g>
<!-- Node14 -->
<g id="node14" class="node">
<title>Node14</title>
<g id="a_node14"><a xlink:href="../../db/d44/Fun4All__G4__sPHENIX__ForTrackCutStudy__EmbedScanOff_8C.html#a1b7a4bcaa2313216c813ee5c8e265e0f" target="_top" xlink:title="Fun4All_G4_sPHENIX\l_ForTrackCutStudy_EmbedScanOff">
<polygon fill="none" stroke="#000000" points="1093,-537.5 1093,-569.5 1285,-569.5 1285,-537.5 1093,-537.5"/>
<text text-anchor="start" x="1101" y="-556.5" font-family="FreeSans" font-size="10.00" fill="#000000">Fun4All_G4_sPHENIX</text>
<text text-anchor="middle" x="1189" y="-544.5" font-family="FreeSans" font-size="10.00" fill="#000000">_ForTrackCutStudy_EmbedScanOff</text>
</a>
</g>
</g>
<!-- Node7&#45;&gt;Node14 -->
<g id="edge13" class="edge">
<title>Node7&#45;&gt;Node14</title>
<path fill="none" stroke="#191970" d="M993.8734,-432.0234C1012.6673,-457.6423 1050.0854,-503.5463 1093,-528.5 1098.8065,-531.8763 1105.0719,-534.8042 1111.5215,-537.3418"/>
<polygon fill="#191970" stroke="#191970" points="996.4889,-429.6648 987.8162,-423.5791 990.8009,-433.7449 996.4889,-429.6648"/>
</g>
<!-- Node15 -->
<g id="node15" class="node">
<title>Node15</title>
<g id="a_node15"><a xlink:href="../../de/d93/Fun4All__G4__sPHENIX__ForTrackCutStudy__EmbedScanOn_8C.html#a2a18d55c852c3aa404798f27db292861" target="_top" xlink:title="Fun4All_G4_sPHENIX\l_ForTrackCutStudy_EmbedScanOn">
<polygon fill="none" stroke="#000000" points="1094,-486.5 1094,-518.5 1284,-518.5 1284,-486.5 1094,-486.5"/>
<text text-anchor="start" x="1102" y="-505.5" font-family="FreeSans" font-size="10.00" fill="#000000">Fun4All_G4_sPHENIX</text>
<text text-anchor="middle" x="1189" y="-493.5" font-family="FreeSans" font-size="10.00" fill="#000000">_ForTrackCutStudy_EmbedScanOn</text>
</a>
</g>
</g>
<!-- Node7&#45;&gt;Node15 -->
<g id="edge14" class="edge">
<title>Node7&#45;&gt;Node15</title>
<path fill="none" stroke="#191970" d="M1004.2139,-429.2012C1026.2447,-443.5014 1060.6985,-464.3372 1093,-477.5 1101.1341,-480.8146 1109.8373,-483.8008 1118.56,-486.4578"/>
<polygon fill="#191970" stroke="#191970" points="1005.8523,-426.0894 995.5752,-423.5141 1002.0032,-431.9362 1005.8523,-426.0894"/>
</g>
<!-- Node16 -->
<g id="node16" class="node">
<title>Node16</title>
<g id="a_node16"><a xlink:href="../../dd/d3d/Fun4All__G4__sPHENIX__ForTrackCutStudy__WithPileup__EmbedScanOff_8C.html#a871bc23cf87970dd5a7212eba9dfb2ce" target="_top" xlink:title="Fun4All_G4_sPHENIX\l_ForTrackCutStudy_WithPileup\l_EmbedScanOff">
<polygon fill="none" stroke="#000000" points="1104,-423.5 1104,-467.5 1274,-467.5 1274,-423.5 1104,-423.5"/>
<text text-anchor="start" x="1112" y="-454.5" font-family="FreeSans" font-size="10.00" fill="#000000">Fun4All_G4_sPHENIX</text>
<text text-anchor="start" x="1112" y="-442.5" font-family="FreeSans" font-size="10.00" fill="#000000">_ForTrackCutStudy_WithPileup</text>
<text text-anchor="middle" x="1189" y="-430.5" font-family="FreeSans" font-size="10.00" fill="#000000">_EmbedScanOff</text>
</a>
</g>
</g>
<!-- Node7&#45;&gt;Node16 -->
<g id="edge15" class="edge">
<title>Node7&#45;&gt;Node16</title>
<path fill="none" stroke="#191970" d="M1025.4178,-420.3335C1048.2839,-423.8514 1076.9488,-428.2614 1103.8686,-432.4029"/>
<polygon fill="#191970" stroke="#191970" points="1025.7629,-416.8455 1015.347,-418.7841 1024.6985,-423.7641 1025.7629,-416.8455"/>
</g>
<!-- Node17 -->
<g id="node17" class="node">
<title>Node17</title>
<g id="a_node17"><a xlink:href="../../dd/d54/Fun4All__G4__sPHENIX__ForTrackCutStudy__WithPileup__EmbedScanOn_8C.html#a3fc8b60e29719c1be2f3b60d87450d8b" target="_top" xlink:title="Fun4All_G4_sPHENIX\l_ForTrackCutStudy_WithPileup\l_EmbedScanOn">
<polygon fill="none" stroke="#000000" points="1104,-360.5 1104,-404.5 1274,-404.5 1274,-360.5 1104,-360.5"/>
<text text-anchor="start" x="1112" y="-391.5" font-family="FreeSans" font-size="10.00" fill="#000000">Fun4All_G4_sPHENIX</text>
<text text-anchor="start" x="1112" y="-379.5" font-family="FreeSans" font-size="10.00" fill="#000000">_ForTrackCutStudy_WithPileup</text>
<text text-anchor="middle" x="1189" y="-367.5" font-family="FreeSans" font-size="10.00" fill="#000000">_EmbedScanOn</text>
</a>
</g>
</g>
<!-- Node7&#45;&gt;Node17 -->
<g id="edge16" class="edge">
<title>Node7&#45;&gt;Node17</title>
<path fill="none" stroke="#191970" d="M1025.4178,-406.88C1048.2839,-403.4721 1076.9488,-399.1999 1103.8686,-395.1878"/>
<polygon fill="#191970" stroke="#191970" points="1024.7218,-403.445 1015.347,-408.381 1025.7537,-410.3686 1024.7218,-403.445"/>
</g>
<!-- Node18 -->
<g id="node18" class="node">
<title>Node18</title>
<g id="a_node18"><a xlink:href="../../dc/dd5/pi0ClusterAna_2macros_2Fun4All__Pi0Gen__sPHENIX_8C.html#ae22b96c3e2c90a36c56dd8b4a0f01eed" target="_top" xlink:title="Fun4All_Pi0Gen_sPHENIX">
<polygon fill="none" stroke="#000000" points="1118,-321.5 1118,-341.5 1260,-341.5 1260,-321.5 1118,-321.5"/>
<text text-anchor="middle" x="1189" y="-328.5" font-family="FreeSans" font-size="10.00" fill="#000000">Fun4All_Pi0Gen_sPHENIX</text>
</a>
</g>
</g>
<!-- Node7&#45;&gt;Node18 -->
<g id="edge17" class="edge">
<title>Node7&#45;&gt;Node18</title>
<path fill="none" stroke="#191970" d="M1025.229,-407.3718C1036.1649,-404.5626 1047.4681,-400.4677 1057,-394.5 1078.1257,-381.2736 1071.6167,-364.3058 1093,-351.5 1100.668,-346.9079 1109.2284,-343.3581 1117.9927,-340.6163"/>
<polygon fill="#191970" stroke="#191970" points="1024.3315,-403.9863 1015.3505,-409.6071 1025.8764,-410.8137 1024.3315,-403.9863"/>
</g>
<!-- Node19 -->
<g id="node19" class="node">
<title>Node19</title>
<g id="a_node19"><a xlink:href="../../dd/d77/Fun4All__pi0tbt__SIMPLE__EMBED_8C.html#a39099c6de617885e4423f7727f1243ad" target="_top" xlink:title="Fun4All_pi0tbt_SIMPLE\l_EMBED">
<polygon fill="none" stroke="#000000" points="1124.5,-270.5 1124.5,-302.5 1253.5,-302.5 1253.5,-270.5 1124.5,-270.5"/>
<text text-anchor="start" x="1132.5" y="-289.5" font-family="FreeSans" font-size="10.00" fill="#000000">Fun4All_pi0tbt_SIMPLE</text>
<text text-anchor="middle" x="1189" y="-277.5" font-family="FreeSans" font-size="10.00" fill="#000000">_EMBED</text>
</a>
</g>
</g>
<!-- Node7&#45;&gt;Node19 -->
<g id="edge18" class="edge">
<title>Node7&#45;&gt;Node19</title>
<path fill="none" stroke="#191970" d="M1024.9601,-409.5337C1036.3848,-406.7311 1047.997,-402.0992 1057,-394.5 1087.4155,-368.8271 1062.8364,-338.4683 1093,-312.5 1101.8983,-304.8393 1112.8428,-299.4139 1124.1187,-295.5768"/>
<polygon fill="#191970" stroke="#191970" points="1024.1391,-406.129 1015.0387,-411.5543 1025.5361,-412.9882 1024.1391,-406.129"/>
</g>
<!-- Node20 -->
<g id="node20" class="node">
<title>Node20</title>
<g id="a_node20"><a xlink:href="../../d0/de8/Fun4All__RunNewTruthMatcher_8C.html#a4a1b7d09229a0c4ebff5f57fa34615a5" target="_top" xlink:title="Fun4All_RunNewTruthMatcher">
<polygon fill="none" stroke="#000000" points="1105.5,-231.5 1105.5,-251.5 1272.5,-251.5 1272.5,-231.5 1105.5,-231.5"/>
<text text-anchor="middle" x="1189" y="-238.5" font-family="FreeSans" font-size="10.00" fill="#000000">Fun4All_RunNewTruthMatcher</text>
</a>
</g>
</g>
<!-- Node7&#45;&gt;Node20 -->
<g id="edge19" class="edge">
<title>Node7&#45;&gt;Node20</title>
<path fill="none" stroke="#191970" d="M1025.4313,-410.4624C1036.964,-407.678 1048.5139,-402.8234 1057,-394.5 1100.7192,-351.6193 1048.4407,-303.5071 1093,-261.5 1097.2118,-257.5294 1101.9982,-254.2607 1107.1323,-251.5776"/>
<polygon fill="#191970" stroke="#191970" points="1024.5295,-407.072 1015.3785,-412.4114 1025.8619,-413.944 1024.5295,-407.072"/>
</g>
<!-- Node21 -->
<g id="node21" class="node">
<title>Node21</title>
<g id="a_node21"><a xlink:href="../../d1/d7f/Fun4All__SinglePhotonGen__sPHENIX_8C.html#aed8c3df444bcec04f4a1ae3425fd478e" target="_top" xlink:title="Fun4All_SinglePhotonGen\l_sPHENIX">
<polygon fill="none" stroke="#000000" points="1116,-180.5 1116,-212.5 1262,-212.5 1262,-180.5 1116,-180.5"/>
<text text-anchor="start" x="1124" y="-199.5" font-family="FreeSans" font-size="10.00" fill="#000000">Fun4All_SinglePhotonGen</text>
<text text-anchor="middle" x="1189" y="-187.5" font-family="FreeSans" font-size="10.00" fill="#000000">_sPHENIX</text>
</a>
</g>
</g>
<!-- Node7&#45;&gt;Node21 -->
<g id="edge20" class="edge">
<title>Node7&#45;&gt;Node21</title>
<path fill="none" stroke="#191970" d="M1025.4439,-410.8514C1037.0834,-408.0847 1048.686,-403.1418 1057,-394.5 1111.1481,-338.2173 1039.4035,-279.3082 1093,-222.5 1099.3987,-215.7178 1107.3695,-210.64 1115.9643,-206.8493"/>
<polygon fill="#191970" stroke="#191970" points="1024.4685,-407.4734 1015.2874,-412.7609 1025.7619,-414.3529 1024.4685,-407.4734"/>
</g>
<!-- Node22 -->
<g id="node22" class="node">
<title>Node22</title>
<g id="a_node22"><a xlink:href="../../dd/d48/Fun4All__SinglePi0Gen__sPHENIX_8C.html#a14b8363c1cc76bfe38542658df7e6adb" target="_top" xlink:title="Fun4All_SinglePi0Gen\l_sPHENIX">
<polygon fill="none" stroke="#000000" points="1126.5,-129.5 1126.5,-161.5 1251.5,-161.5 1251.5,-129.5 1126.5,-129.5"/>
<text text-anchor="start" x="1134.5" y="-148.5" font-family="FreeSans" font-size="10.00" fill="#000000">Fun4All_SinglePi0Gen</text>
<text text-anchor="middle" x="1189" y="-136.5" font-family="FreeSans" font-size="10.00" fill="#000000">_sPHENIX</text>
</a>
</g>
</g>
<!-- Node7&#45;&gt;Node22 -->
<g id="edge21" class="edge">
<title>Node7&#45;&gt;Node22</title>
<path fill="none" stroke="#191970" d="M1025.042,-411.2512C1036.9096,-408.5221 1048.7343,-403.4993 1057,-394.5 1124.912,-320.561 1025.8125,-246.0979 1093,-171.5 1101.7824,-161.749 1113.8112,-155.4961 1126.3848,-151.5238"/>
<polygon fill="#191970" stroke="#191970" points="1024.3583,-407.8179 1015.1404,-413.041 1025.6035,-414.7063 1024.3583,-407.8179"/>
</g>
<!-- Node23 -->
<g id="node23" class="node">
<title>Node23</title>
<g id="a_node23"><a xlink:href="../../d2/db9/run__calo__fromMDC2Hits__towslope__Fun4All__G4__Calo_8C.html#a18928aae85200e0f8f721942ee3f7105" target="_top" xlink:title="run_calo_fromMDC2Hits\l_towslope_Fun4All_G4_Calo">
<polygon fill="none" stroke="#000000" points="1110.5,-78.5 1110.5,-110.5 1267.5,-110.5 1267.5,-78.5 1110.5,-78.5"/>
<text text-anchor="start" x="1118.5" y="-97.5" font-family="FreeSans" font-size="10.00" fill="#000000">run_calo_fromMDC2Hits</text>
<text text-anchor="middle" x="1189" y="-85.5" font-family="FreeSans" font-size="10.00" fill="#000000">_towslope_Fun4All_G4_Calo</text>
</a>
</g>
</g>
<!-- Node7&#45;&gt;Node23 -->
<g id="edge22" class="edge">
<title>Node7&#45;&gt;Node23</title>
<path fill="none" stroke="#191970" d="M1025.2104,-411.4036C1037.0825,-408.6786 1048.8675,-403.6199 1057,-394.5 1138.7455,-302.8294 1012.1526,-212.9636 1093,-120.5 1097.8873,-114.9105 1103.8413,-110.4651 1110.3657,-106.9373"/>
<polygon fill="#191970" stroke="#191970" points="1024.5208,-407.9713 1015.2956,-413.1815 1025.7564,-414.8614 1024.5208,-407.9713"/>
</g>
<!-- Node24 -->
<g id="node24" class="node">
<title>Node24</title>
<g id="a_node24"><a xlink:href="../../d0/dd8/rundst__spiNo_8C.html#aa9e63ae0240cdee3570896d7f2a9eec1" target="_top" xlink:title="rundst_spiNo">
<polygon fill="none" stroke="#000000" points="1148,-39.5 1148,-59.5 1230,-59.5 1230,-39.5 1148,-39.5"/>
<text text-anchor="middle" x="1189" y="-46.5" font-family="FreeSans" font-size="10.00" fill="#000000">rundst_spiNo</text>
</a>
</g>
</g>
<!-- Node7&#45;&gt;Node24 -->
<g id="edge23" class="edge">
<title>Node7&#45;&gt;Node24</title>
<path fill="none" stroke="#191970" d="M1025.0182,-411.5779C1036.9986,-408.8734 1048.8907,-403.782 1057,-394.5 1152.6158,-285.0568 995.237,-177.0295 1093,-69.5 1106.6285,-54.51 1128.3304,-49.1345 1147.6551,-47.6739"/>
<polygon fill="#191970" stroke="#191970" points="1024.2623,-408.1569 1015.0151,-413.3278 1025.4686,-415.0521 1024.2623,-408.1569"/>
</g>
<!-- Node25 -->
<g id="node25" class="node">
<title>Node25</title>
<g id="a_node25"><a xlink:href="../../d0/dea/spiNo2_8C.html#a1c45f2f5f270d0a364c1a4c630e77b24" target="_top" xlink:title="spiNo2">
<polygon fill="none" stroke="#000000" points="1164,-.5 1164,-20.5 1214,-20.5 1214,-.5 1164,-.5"/>
<text text-anchor="middle" x="1189" y="-7.5" font-family="FreeSans" font-size="10.00" fill="#000000">spiNo2</text>
</a>
</g>
</g>
<!-- Node7&#45;&gt;Node25 -->
<g id="edge24" class="edge">
<title>Node7&#45;&gt;Node25</title>
<path fill="none" stroke="#191970" d="M1025.0882,-411.6386C1037.0708,-408.9361 1048.9466,-403.8306 1057,-394.5 1110.255,-332.7998 1038.2317,-89.861 1093,-29.5 1110.5816,-10.123 1141.7506,-7.1833 1163.7972,-7.9168"/>
<polygon fill="#191970" stroke="#191970" points="1024.3295,-408.218 1015.0792,-413.3835 1025.5318,-415.114 1024.3295,-408.218"/>
</g>
</g>
</svg>
