<?xml version="1.0" encoding="UTF-8" standalone="no"?>
<!DOCTYPE svg PUBLIC "-//W3C//DTD SVG 1.1//EN"
 "http://www.w3.org/Graphics/SVG/1.1/DTD/svg11.dtd">
<!-- Generated by graphviz version 2.40.1 (20161225.0304)
 -->
<!-- Title: PHG4GDMLWrite::AddAuxInfo Pages: 1 -->
<svg width="1449pt" height="267pt"
 viewBox="0.00 0.00 1449.00 267.00" xmlns="http://www.w3.org/2000/svg" xmlns:xlink="http://www.w3.org/1999/xlink">
<g id="graph0" class="graph" transform="scale(1 1) rotate(0) translate(4 263)">
<title>PHG4GDMLWrite::AddAuxInfo</title>
<!-- Node1 -->
<g id="node1" class="node">
<title>Node1</title>
<polygon fill="#bfbfbf" stroke="#000000" points="0,-103.5 0,-123.5 164,-123.5 164,-103.5 0,-103.5"/>
<text text-anchor="middle" x="82" y="-110.5" font-family="FreeSans" font-size="10.00" fill="#000000">PHG4GDMLWrite::AddAuxInfo</text>
</g>
<!-- Node2 -->
<g id="node2" class="node">
<title>Node2</title>
<g id="a_node2"><a xlink:href="../../d2/d72/classPHG4GDMLWriteStructure.html#a957c6f2d283732660e3eb9c41b982048" target="_top" xlink:title="PHG4GDMLWriteStructure\l::TraverseVolumeTree">
<polygon fill="none" stroke="#000000" points="594.5,-117.5 594.5,-149.5 740.5,-149.5 740.5,-117.5 594.5,-117.5"/>
<text text-anchor="start" x="602.5" y="-136.5" font-family="FreeSans" font-size="10.00" fill="#000000">PHG4GDMLWriteStructure</text>
<text text-anchor="middle" x="667.5" y="-124.5" font-family="FreeSans" font-size="10.00" fill="#000000">::TraverseVolumeTree</text>
</a>
</g>
</g>
<!-- Node1&#45;&gt;Node2 -->
<g id="edge1" class="edge">
<title>Node1&#45;&gt;Node2</title>
<path fill="none" stroke="#191970" d="M174.3275,-116.6538C290.5825,-120.6249 487.9392,-127.3664 594.3315,-131.0007"/>
<polygon fill="#191970" stroke="#191970" points="174.1415,-113.1455 164.0278,-116.302 173.9024,-120.1414 174.1415,-113.1455"/>
</g>
<!-- Node3 -->
<g id="node3" class="node">
<title>Node3</title>
<g id="a_node3"><a xlink:href="../../dd/db5/classPHG4GDMLWrite.html#ad88e00edb1ab511595a627d730fd3634" target="_top" xlink:title="PHG4GDMLWrite::UserinfoWrite">
<polygon fill="none" stroke="#000000" points="200,-84.5 200,-104.5 375,-104.5 375,-84.5 200,-84.5"/>
<text text-anchor="middle" x="287.5" y="-91.5" font-family="FreeSans" font-size="10.00" fill="#000000">PHG4GDMLWrite::UserinfoWrite</text>
</a>
</g>
</g>
<!-- Node1&#45;&gt;Node3 -->
<g id="edge2" class="edge">
<title>Node1&#45;&gt;Node3</title>
<path fill="none" stroke="#191970" d="M174.084,-104.9861C182.636,-104.1955 191.2875,-103.3956 199.7983,-102.6087"/>
<polygon fill="#191970" stroke="#191970" points="173.7403,-101.5029 164.105,-105.9088 174.3848,-108.4732 173.7403,-101.5029"/>
</g>
<!-- Node4 -->
<g id="node4" class="node">
<title>Node4</title>
<g id="a_node4"><a xlink:href="../../dd/db5/classPHG4GDMLWrite.html#af4241e53bb71408c9bf11117053f9810" target="_top" xlink:title="PHG4GDMLWrite::Write">
<polygon fill="none" stroke="#000000" points="411,-84.5 411,-104.5 544,-104.5 544,-84.5 411,-84.5"/>
<text text-anchor="middle" x="477.5" y="-91.5" font-family="FreeSans" font-size="10.00" fill="#000000">PHG4GDMLWrite::Write</text>
</a>
</g>
</g>
<!-- Node3&#45;&gt;Node4 -->
<g id="edge3" class="edge">
<title>Node3&#45;&gt;Node4</title>
<path fill="none" stroke="#191970" d="M385.3804,-94.5C393.9951,-94.5 402.5782,-94.5 410.846,-94.5"/>
<polygon fill="#191970" stroke="#191970" points="385.2699,-91.0001 375.2699,-94.5 385.2699,-98.0001 385.2699,-91.0001"/>
</g>
<!-- Node4&#45;&gt;Node2 -->
<g id="edge16" class="edge">
<title>Node4&#45;&gt;Node2</title>
<path fill="none" stroke="#191970" d="M536.3791,-106.5857C554.7173,-110.3499 575.1653,-114.5471 594.3553,-118.4861"/>
<polygon fill="#191970" stroke="#191970" points="536.9293,-103.1257 526.4297,-104.5435 535.5217,-109.9828 536.9293,-103.1257"/>
</g>
<!-- Node5 -->
<g id="node5" class="node">
<title>Node5</title>
<g id="a_node5"><a xlink:href="../../d9/df8/classPHG4GDMLUtility.html#adb03ec38807279cb5abaf38987c5a73f" target="_top" xlink:title="save the current Geant4 geometry to GDML file. Reading PHG4GDMLConfig from topNode">
<polygon fill="none" stroke="#000000" points="580,-78.5 580,-98.5 755,-98.5 755,-78.5 580,-78.5"/>
<text text-anchor="middle" x="667.5" y="-85.5" font-family="FreeSans" font-size="10.00" fill="#000000">PHG4GDMLUtility::Dump_GDML</text>
</a>
</g>
</g>
<!-- Node4&#45;&gt;Node5 -->
<g id="edge4" class="edge">
<title>Node4&#45;&gt;Node5</title>
<path fill="none" stroke="#191970" d="M554.3692,-92.0726C562.7854,-91.8068 571.3988,-91.5348 579.9318,-91.2653"/>
<polygon fill="#191970" stroke="#191970" points="554.1042,-88.5791 544.2197,-92.3931 554.3252,-95.5756 554.1042,-88.5791"/>
</g>
<!-- Node6 -->
<g id="node6" class="node">
<title>Node6</title>
<g id="a_node6"><a xlink:href="../../d0/d78/classPHG4Reco.html#a490f5037508d384c5b60855ef0f7e227" target="_top" xlink:title="PHG4Reco::Dump_GDML">
<polygon fill="none" stroke="#000000" points="791,-78.5 791,-98.5 932,-98.5 932,-78.5 791,-78.5"/>
<text text-anchor="middle" x="861.5" y="-85.5" font-family="FreeSans" font-size="10.00" fill="#000000">PHG4Reco::Dump_GDML</text>
</a>
</g>
</g>
<!-- Node5&#45;&gt;Node6 -->
<g id="edge5" class="edge">
<title>Node5&#45;&gt;Node6</title>
<path fill="none" stroke="#191970" d="M765.2462,-88.5C773.8703,-88.5 782.4865,-88.5 790.8221,-88.5"/>
<polygon fill="#191970" stroke="#191970" points="765.1351,-85.0001 755.1351,-88.5 765.135,-92.0001 765.1351,-85.0001"/>
</g>
<!-- Node7 -->
<g id="node7" class="node">
<title>Node7</title>
<g id="a_node7"><a xlink:href="../../d0/d78/classPHG4Reco.html#afb33612dcc374f0614d800dc9480305a" target="_top" xlink:title="PHG4Reco::InitRun">
<polygon fill="none" stroke="#000000" points="968,-78.5 968,-98.5 1078,-98.5 1078,-78.5 968,-78.5"/>
<text text-anchor="middle" x="1023" y="-85.5" font-family="FreeSans" font-size="10.00" fill="#000000">PHG4Reco::InitRun</text>
</a>
</g>
</g>
<!-- Node6&#45;&gt;Node7 -->
<g id="edge6" class="edge">
<title>Node6&#45;&gt;Node7</title>
<path fill="none" stroke="#191970" d="M942.3931,-88.5C950.9791,-88.5 959.5628,-88.5 967.7562,-88.5"/>
<polygon fill="#191970" stroke="#191970" points="942.3363,-85.0001 932.3363,-88.5 942.3362,-92.0001 942.3363,-85.0001"/>
</g>
<!-- Node8 -->
<g id="node8" class="node">
<title>Node8</title>
<g id="a_node8"><a xlink:href="../../d3/d7e/analysis_2blob_2master_2EICAnalysis_2macros_2leptoquarks__fun4all_2DisplayOn_8C.html#a8ac4d6fb78f920957b354f88d6195f54" target="_top" xlink:title="DisplayOn">
<polygon fill="none" stroke="#000000" points="1156,-156.5 1156,-176.5 1224,-176.5 1224,-156.5 1156,-156.5"/>
<text text-anchor="middle" x="1190" y="-163.5" font-family="FreeSans" font-size="10.00" fill="#000000">DisplayOn</text>
</a>
</g>
</g>
<!-- Node7&#45;&gt;Node8 -->
<g id="edge7" class="edge">
<title>Node7&#45;&gt;Node8</title>
<path fill="none" stroke="#191970" d="M1043.9107,-104.937C1061.6571,-118.1572 1088.2676,-136.3129 1114,-147.5 1127.2212,-153.2479 1142.5236,-157.4933 1155.917,-160.495"/>
<polygon fill="#191970" stroke="#191970" points="1045.5694,-101.8014 1035.4901,-98.5366 1041.3335,-107.3743 1045.5694,-101.8014"/>
</g>
<!-- Node13 -->
<g id="node13" class="node">
<title>Node13</title>
<g id="a_node13"><a xlink:href="../../d5/dc7/g4exampledetector_2blob_2master_2color_2macros_2DisplayOn_8C.html#a36f5cc4ebb7cd23dac7e492d5c38fbc0" target="_top" xlink:title="QTGui">
<polygon fill="none" stroke="#000000" points="1166.5,-117.5 1166.5,-137.5 1213.5,-137.5 1213.5,-117.5 1166.5,-117.5"/>
<text text-anchor="middle" x="1190" y="-124.5" font-family="FreeSans" font-size="10.00" fill="#000000">QTGui</text>
</a>
</g>
</g>
<!-- Node7&#45;&gt;Node13 -->
<g id="edge12" class="edge">
<title>Node7&#45;&gt;Node13</title>
<path fill="none" stroke="#191970" d="M1076.0176,-100.8814C1106.3213,-107.9583 1142.8335,-116.4851 1166.2254,-121.9479"/>
<polygon fill="#191970" stroke="#191970" points="1076.5406,-97.4094 1066.0066,-98.5435 1074.9487,-104.226 1076.5406,-97.4094"/>
</g>
<!-- Node14 -->
<g id="node14" class="node">
<title>Node14</title>
<g id="a_node14"><a xlink:href="../../db/d89/ConstructGeometry_8C.html#a21c369835643f1016f506a3da3b8d446" target="_top" xlink:title="ConstructGeometry">
<polygon fill="none" stroke="#000000" points="1132.5,-78.5 1132.5,-98.5 1247.5,-98.5 1247.5,-78.5 1132.5,-78.5"/>
<text text-anchor="middle" x="1190" y="-85.5" font-family="FreeSans" font-size="10.00" fill="#000000">ConstructGeometry</text>
</a>
</g>
</g>
<!-- Node7&#45;&gt;Node14 -->
<g id="edge13" class="edge">
<title>Node7&#45;&gt;Node14</title>
<path fill="none" stroke="#191970" d="M1088.5186,-88.5C1102.9851,-88.5 1118.2075,-88.5 1132.3353,-88.5"/>
<polygon fill="#191970" stroke="#191970" points="1088.1449,-85.0001 1078.1449,-88.5 1088.1448,-92.0001 1088.1449,-85.0001"/>
</g>
<!-- Node15 -->
<g id="node15" class="node">
<title>Node15</title>
<g id="a_node15"><a xlink:href="../../d4/dfa/Fun4All__Generator__Display_8C.html#af87924a94b22e18901f0d64805565f09" target="_top" xlink:title="Fun4All_Generator_Display">
<polygon fill="none" stroke="#000000" points="1114,-39.5 1114,-59.5 1266,-59.5 1266,-39.5 1114,-39.5"/>
<text text-anchor="middle" x="1190" y="-46.5" font-family="FreeSans" font-size="10.00" fill="#000000">Fun4All_Generator_Display</text>
</a>
</g>
</g>
<!-- Node7&#45;&gt;Node15 -->
<g id="edge14" class="edge">
<title>Node7&#45;&gt;Node15</title>
<path fill="none" stroke="#191970" d="M1075.9386,-76.1371C1098.9013,-70.7746 1125.4411,-64.5766 1147.1391,-59.5094"/>
<polygon fill="#191970" stroke="#191970" points="1074.9487,-72.774 1066.0066,-78.4565 1076.5406,-79.5906 1074.9487,-72.774"/>
</g>
<!-- Node16 -->
<g id="node16" class="node">
<title>Node16</title>
<g id="a_node16"><a xlink:href="../../d9/d1d/matscan_8C.html#a98ccbc6135fead542f3c4d1dd6882d63" target="_top" xlink:title="matscan">
<polygon fill="none" stroke="#000000" points="1160.5,-.5 1160.5,-20.5 1219.5,-20.5 1219.5,-.5 1160.5,-.5"/>
<text text-anchor="middle" x="1190" y="-7.5" font-family="FreeSans" font-size="10.00" fill="#000000">matscan</text>
</a>
</g>
</g>
<!-- Node7&#45;&gt;Node16 -->
<g id="edge15" class="edge">
<title>Node7&#45;&gt;Node16</title>
<path fill="none" stroke="#191970" d="M1043.9107,-72.063C1061.6571,-58.8428 1088.2676,-40.6871 1114,-29.5 1128.7179,-23.1014 1146.015,-18.5648 1160.3865,-15.533"/>
<polygon fill="#191970" stroke="#191970" points="1041.3335,-69.6257 1035.4901,-78.4634 1045.5694,-75.1986 1041.3335,-69.6257"/>
</g>
<!-- Node9 -->
<g id="node9" class="node">
<title>Node9</title>
<g id="a_node9"><a xlink:href="../../d4/de9/Fun4All__AnaTutorial__sPHENIX_8C.html#a5028836c74f0bebec560d3ab54daa022" target="_top" xlink:title="Fun4All_AnaTutorial\l_sPHENIX">
<polygon fill="none" stroke="#000000" points="1314,-226.5 1314,-258.5 1429,-258.5 1429,-226.5 1314,-226.5"/>
<text text-anchor="start" x="1322" y="-245.5" font-family="FreeSans" font-size="10.00" fill="#000000">Fun4All_AnaTutorial</text>
<text text-anchor="middle" x="1371.5" y="-233.5" font-family="FreeSans" font-size="10.00" fill="#000000">_sPHENIX</text>
</a>
</g>
</g>
<!-- Node8&#45;&gt;Node9 -->
<g id="edge8" class="edge">
<title>Node8&#45;&gt;Node9</title>
<path fill="none" stroke="#191970" d="M1220.1358,-181.0355C1242.5158,-191.6304 1273.8991,-206.0703 1302,-217.5 1309.4831,-220.5437 1317.4922,-223.6033 1325.3152,-226.4868"/>
<polygon fill="#191970" stroke="#191970" points="1221.3652,-177.7445 1210.8316,-176.6068 1218.3566,-184.065 1221.3652,-177.7445"/>
</g>
<!-- Node10 -->
<g id="node10" class="node">
<title>Node10</title>
<g id="a_node10"><a xlink:href="../../d6/d14/Fun4All__AnaTutorial__sPHENIX__Jets_8C.html#a61b352bca84476d24b0ff40991b27900" target="_top" xlink:title="Fun4All_AnaTutorial\l_sPHENIX_Jets">
<polygon fill="none" stroke="#000000" points="1314,-175.5 1314,-207.5 1429,-207.5 1429,-175.5 1314,-175.5"/>
<text text-anchor="start" x="1322" y="-194.5" font-family="FreeSans" font-size="10.00" fill="#000000">Fun4All_AnaTutorial</text>
<text text-anchor="middle" x="1371.5" y="-182.5" font-family="FreeSans" font-size="10.00" fill="#000000">_sPHENIX_Jets</text>
</a>
</g>
</g>
<!-- Node8&#45;&gt;Node10 -->
<g id="edge9" class="edge">
<title>Node8&#45;&gt;Node10</title>
<path fill="none" stroke="#191970" d="M1234.3609,-172.6103C1258.3341,-175.9124 1288.2148,-180.0282 1313.9593,-183.5743"/>
<polygon fill="#191970" stroke="#191970" points="1234.5228,-169.0997 1224.1388,-171.2023 1233.5676,-176.0342 1234.5228,-169.0997"/>
</g>
<!-- Node11 -->
<g id="node11" class="node">
<title>Node11</title>
<g id="a_node11"><a xlink:href="../../df/dd8/Fun4All__G4__EICDetector__AnaTutorial_8C.html#a598434aca3dac5cdb0ca67ccc548d865" target="_top" xlink:title="Fun4All_G4_EICDetector\l_AnaTutorial">
<polygon fill="none" stroke="#000000" points="1302,-124.5 1302,-156.5 1441,-156.5 1441,-124.5 1302,-124.5"/>
<text text-anchor="start" x="1310" y="-143.5" font-family="FreeSans" font-size="10.00" fill="#000000">Fun4All_G4_EICDetector</text>
<text text-anchor="middle" x="1371.5" y="-131.5" font-family="FreeSans" font-size="10.00" fill="#000000">_AnaTutorial</text>
</a>
</g>
</g>
<!-- Node8&#45;&gt;Node11 -->
<g id="edge10" class="edge">
<title>Node8&#45;&gt;Node11</title>
<path fill="none" stroke="#191970" d="M1234.0505,-160.1897C1254.3919,-157.2758 1279.0361,-153.7455 1301.8079,-150.4834"/>
<polygon fill="#191970" stroke="#191970" points="1233.5414,-156.7268 1224.1388,-161.6096 1234.5341,-163.6561 1233.5414,-156.7268"/>
</g>
<!-- Node12 -->
<g id="node12" class="node">
<title>Node12</title>
<g id="a_node12"><a xlink:href="../../d1/d19/macros_2blob_2master_2detectors_2sPHENIX_2Fun4All__G4__sPHENIX_8C.html#a4102cd3e195333de974409428a2e6dae" target="_top" xlink:title="Fun4All_G4_sPHENIX">
<polygon fill="none" stroke="#000000" points="1311,-85.5 1311,-105.5 1432,-105.5 1432,-85.5 1311,-85.5"/>
<text text-anchor="middle" x="1371.5" y="-92.5" font-family="FreeSans" font-size="10.00" fill="#000000">Fun4All_G4_sPHENIX</text>
</a>
</g>
</g>
<!-- Node8&#45;&gt;Node12 -->
<g id="edge11" class="edge">
<title>Node8&#45;&gt;Node12</title>
<path fill="none" stroke="#191970" d="M1233.9655,-159.3084C1244.8178,-156.5209 1256.1473,-152.7024 1266,-147.5 1284.9304,-137.5044 1283.2486,-125.8274 1302,-115.5 1309.2586,-111.5023 1317.394,-108.2365 1325.4716,-105.5911"/>
<polygon fill="#191970" stroke="#191970" points="1233.1329,-155.9086 1224.1894,-161.5887 1234.723,-162.7256 1233.1329,-155.9086"/>
</g>
</g>
</svg>
