<?xml version="1.0" encoding="UTF-8" standalone="no"?>
<!DOCTYPE svg PUBLIC "-//W3C//DTD SVG 1.1//EN"
 "http://www.w3.org/Graphics/SVG/1.1/DTD/svg11.dtd">
<!-- Generated by graphviz version 2.40.1 (20161225.0304)
 -->
<!-- Title: PHG4MicromegasHitReco::process_event Pages: 1 -->
<svg width="1589pt" height="688pt"
 viewBox="0.00 0.00 1589.00 688.19" xmlns="http://www.w3.org/2000/svg" xmlns:xlink="http://www.w3.org/1999/xlink">
<g id="graph0" class="graph" transform="scale(1 1) rotate(0) translate(4 684.1873)">
<title>PHG4MicromegasHitReco::process_event</title>
<!-- Node1 -->
<g id="node1" class="node">
<title>Node1</title>
<polygon fill="#bfbfbf" stroke="#000000" points="0,-291.5 0,-323.5 144,-323.5 144,-291.5 0,-291.5"/>
<text text-anchor="start" x="8" y="-310.5" font-family="FreeSans" font-size="10.00" fill="#000000">PHG4MicromegasHitReco</text>
<text text-anchor="middle" x="72" y="-298.5" font-family="FreeSans" font-size="10.00" fill="#000000">::process_event</text>
</g>
<!-- Node2 -->
<g id="node2" class="node">
<title>Node2</title>
<g id="a_node2"><a xlink:href="../../d3/d3e/classTrkrHitv2.html#a2a412599706d3c989364ddf63fbc925c" target="_top" xlink:title="TrkrHitv2::addEnergy">
<polygon fill="none" stroke="#000000" points="197.5,-618.5 197.5,-638.5 321.5,-638.5 321.5,-618.5 197.5,-618.5"/>
<text text-anchor="middle" x="259.5" y="-625.5" font-family="FreeSans" font-size="10.00" fill="#000000">TrkrHitv2::addEnergy</text>
</a>
</g>
</g>
<!-- Node1&#45;&gt;Node2 -->
<g id="edge1" class="edge">
<title>Node1&#45;&gt;Node2</title>
<path fill="none" stroke="#191970" d="M73.0449,-323.6253C77.1165,-372.9613 96.1657,-523.3704 180,-603.5 184.3553,-607.6628 189.3971,-611.1328 194.7869,-614.0253"/>
<polygon fill="#191970" stroke="#191970" points="193.5829,-617.3253 204.1263,-618.3682 196.5345,-610.978 193.5829,-617.3253"/>
</g>
<!-- Node3 -->
<g id="node3" class="node">
<title>Node3</title>
<g id="a_node3"><a xlink:href="../../da/d55/TPCRateLayered_8m.html#ac40e4ec8f2a74a2878f06670249eebb8" target="_top" xlink:title="double">
<polygon fill="none" stroke="#000000" points="424.5,-638.5 424.5,-658.5 475.5,-658.5 475.5,-638.5 424.5,-638.5"/>
<text text-anchor="middle" x="450" y="-645.5" font-family="FreeSans" font-size="10.00" fill="#000000">double</text>
</a>
</g>
</g>
<!-- Node1&#45;&gt;Node3 -->
<g id="edge37" class="edge">
<title>Node1&#45;&gt;Node3</title>
<path fill="none" stroke="#191970" d="M74.6069,-323.8638C84.921,-386.3245 125.0113,-608.2351 180,-648.5 249.6057,-699.4681 358.6793,-677.1517 414.4959,-660.5799"/>
<polygon fill="#191970" stroke="#191970" points="415.7477,-663.8567 424.2768,-657.5714 413.6897,-657.1661 415.7477,-663.8567"/>
</g>
<!-- Node4 -->
<g id="node4" class="node">
<title>Node4</title>
<g id="a_node4"><a xlink:href="../../d6/d5c/classPHG4MicromegasHitReco.html#ab8399535384a06088e989b9ba9f9b815" target="_top" xlink:title="distribute a Gaussian charge across adjacent strips">
<polygon fill="none" stroke="#000000" points="187.5,-477.5 187.5,-509.5 331.5,-509.5 331.5,-477.5 187.5,-477.5"/>
<text text-anchor="start" x="195.5" y="-496.5" font-family="FreeSans" font-size="10.00" fill="#000000">PHG4MicromegasHitReco</text>
<text text-anchor="middle" x="259.5" y="-484.5" font-family="FreeSans" font-size="10.00" fill="#000000">::distribute_charge</text>
</a>
</g>
</g>
<!-- Node1&#45;&gt;Node4 -->
<g id="edge3" class="edge">
<title>Node1&#45;&gt;Node4</title>
<path fill="none" stroke="#191970" d="M78.4167,-323.6214C92.1117,-355.9747 127.3121,-429.0826 180,-468.5 181.8355,-469.8732 183.7484,-471.1722 185.7219,-472.4009"/>
<polygon fill="#191970" stroke="#191970" points="184.2641,-475.5937 194.7124,-477.3501 187.6399,-469.4614 184.2641,-475.5937"/>
</g>
<!-- Node6 -->
<g id="node6" class="node">
<title>Node6</title>
<g id="a_node6"><a xlink:href="../../d2/ddf/namespaceMicromegasDefs.html#a2909143d348383083b9c12cb810a8c04" target="_top" xlink:title="Generate a hitsetkey for the micromegas.">
<polygon fill="none" stroke="#000000" points="564.5,-525.5 564.5,-545.5 740.5,-545.5 740.5,-525.5 564.5,-525.5"/>
<text text-anchor="middle" x="652.5" y="-532.5" font-family="FreeSans" font-size="10.00" fill="#000000">MicromegasDefs::genHitSetKey</text>
</a>
</g>
</g>
<!-- Node1&#45;&gt;Node6 -->
<g id="edge40" class="edge">
<title>Node1&#45;&gt;Node6</title>
<path fill="none" stroke="#191970" d="M75.4327,-323.6478C84.7516,-363.4135 114.3573,-466.6644 180,-519.5 300.7455,-616.6876 371.3889,-591.201 525,-570.5 555.5907,-566.3775 589.224,-556.9287 614.2628,-548.8867"/>
<polygon fill="#191970" stroke="#191970" points="615.6825,-552.1045 624.0922,-545.6604 613.4994,-545.4536 615.6825,-552.1045"/>
</g>
<!-- Node26 -->
<g id="node26" class="node">
<title>Node26</title>
<g id="a_node26"><a xlink:href="../../d6/d5c/classPHG4MicromegasHitReco.html#a29cd966d37fd9136474a4acaec034a06" target="_top" xlink:title="return full geo node name, that also contains tile information">
<polygon fill="none" stroke="#000000" points="187.5,-426.5 187.5,-458.5 331.5,-458.5 331.5,-426.5 187.5,-426.5"/>
<text text-anchor="start" x="195.5" y="-445.5" font-family="FreeSans" font-size="10.00" fill="#000000">PHG4MicromegasHitReco</text>
<text text-anchor="middle" x="259.5" y="-433.5" font-family="FreeSans" font-size="10.00" fill="#000000">::full_geonodename</text>
</a>
</g>
</g>
<!-- Node1&#45;&gt;Node26 -->
<g id="edge38" class="edge">
<title>Node1&#45;&gt;Node26</title>
<path fill="none" stroke="#191970" d="M83.7415,-323.7765C101.8083,-347.6851 138.6931,-392.1959 180,-417.5 182.7759,-419.2005 185.6781,-420.7952 188.6627,-422.2896"/>
<polygon fill="#191970" stroke="#191970" points="187.2708,-425.5016 197.8206,-426.4772 190.1818,-419.1356 187.2708,-425.5016"/>
</g>
<!-- Node27 -->
<g id="node27" class="node">
<title>Node27</title>
<g id="a_node27"><a xlink:href="../../d2/ddf/namespaceMicromegasDefs.html#abb46b041cd5b77579e63b102c6d42b15" target="_top" xlink:title="Generate a hitkey from strip index inside tile.">
<polygon fill="none" stroke="#000000" points="180,-387.5 180,-407.5 339,-407.5 339,-387.5 180,-387.5"/>
<text text-anchor="middle" x="259.5" y="-394.5" font-family="FreeSans" font-size="10.00" fill="#000000">MicromegasDefs::genHitKey</text>
</a>
</g>
</g>
<!-- Node1&#45;&gt;Node27 -->
<g id="edge39" class="edge">
<title>Node1&#45;&gt;Node27</title>
<path fill="none" stroke="#191970" d="M91.8804,-323.6527C112.6726,-339.7773 146.84,-364.1633 180,-378.5 185.1288,-380.7174 190.5606,-382.7022 196.0809,-384.4735"/>
<polygon fill="#191970" stroke="#191970" points="195.4842,-387.9472 206.0667,-387.4353 197.4748,-381.2361 195.4842,-387.9472"/>
</g>
<!-- Node28 -->
<g id="node28" class="node">
<title>Node28</title>
<g id="a_node28"><a xlink:href="../../d6/d5c/classPHG4MicromegasHitReco.html#a2528d4b276efb1e0eff4980ec6c4356b" target="_top" xlink:title="get total number of electrons collected for a give g4hit">
<polygon fill="none" stroke="#000000" points="187.5,-336.5 187.5,-368.5 331.5,-368.5 331.5,-336.5 187.5,-336.5"/>
<text text-anchor="start" x="195.5" y="-355.5" font-family="FreeSans" font-size="10.00" fill="#000000">PHG4MicromegasHitReco</text>
<text text-anchor="middle" x="259.5" y="-343.5" font-family="FreeSans" font-size="10.00" fill="#000000">::get_primary_electrons</text>
</a>
</g>
</g>
<!-- Node1&#45;&gt;Node28 -->
<g id="edge41" class="edge">
<title>Node1&#45;&gt;Node28</title>
<path fill="none" stroke="#191970" d="M138.8977,-323.5555C153.0826,-326.9598 168.1632,-330.5792 182.6832,-334.064"/>
<polygon fill="#191970" stroke="#191970" points="182.0874,-337.5203 192.6281,-336.4507 183.7211,-330.7136 182.0874,-337.5203"/>
</g>
<!-- Node30 -->
<g id="node30" class="node">
<title>Node30</title>
<g id="a_node30"><a xlink:href="../../d3/d9e/classPHG4Hit.html#ae97cdb9966c7b37b0a552870e5c05135" target="_top" xlink:title="PHG4Hit::get_property_int">
<polygon fill="none" stroke="#000000" points="185,-297.5 185,-317.5 334,-317.5 334,-297.5 185,-297.5"/>
<text text-anchor="middle" x="259.5" y="-304.5" font-family="FreeSans" font-size="10.00" fill="#000000">PHG4Hit::get_property_int</text>
</a>
</g>
</g>
<!-- Node1&#45;&gt;Node30 -->
<g id="edge43" class="edge">
<title>Node1&#45;&gt;Node30</title>
<path fill="none" stroke="#191970" d="M144.2242,-307.5C154.2052,-307.5 164.5304,-307.5 174.7132,-307.5"/>
<polygon fill="#191970" stroke="#191970" points="174.8305,-311.0001 184.8305,-307.5 174.8305,-304.0001 174.8305,-311.0001"/>
</g>
<!-- Node31 -->
<g id="node31" class="node">
<title>Node31</title>
<g id="a_node31"><a xlink:href="../../d6/d5c/classPHG4MicromegasHitReco.html#a223a570117ec0843bb6b4e9497f2f562" target="_top" xlink:title="get single electron amplification">
<polygon fill="none" stroke="#000000" points="187.5,-234.5 187.5,-278.5 331.5,-278.5 331.5,-234.5 187.5,-234.5"/>
<text text-anchor="start" x="195.5" y="-265.5" font-family="FreeSans" font-size="10.00" fill="#000000">PHG4MicromegasHitReco</text>
<text text-anchor="start" x="195.5" y="-253.5" font-family="FreeSans" font-size="10.00" fill="#000000">::get_single_electron</text>
<text text-anchor="middle" x="259.5" y="-241.5" font-family="FreeSans" font-size="10.00" fill="#000000">_amplification</text>
</a>
</g>
</g>
<!-- Node1&#45;&gt;Node31 -->
<g id="edge44" class="edge">
<title>Node1&#45;&gt;Node31</title>
<path fill="none" stroke="#191970" d="M131.0688,-291.4333C145.8252,-287.4195 161.9161,-283.0428 177.561,-278.7874"/>
<polygon fill="#191970" stroke="#191970" points="178.4979,-282.1598 187.2287,-276.1578 176.6606,-275.4052 178.4979,-282.1598"/>
</g>
<!-- Node32 -->
<g id="node32" class="node">
<title>Node32</title>
<g id="a_node32"><a xlink:href="../../d3/d9e/classPHG4Hit.html#adbba00d9c999328c85c781ada99378cc" target="_top" xlink:title="PHG4Hit::get_t">
<polygon fill="none" stroke="#000000" points="214,-195.5 214,-215.5 305,-215.5 305,-195.5 214,-195.5"/>
<text text-anchor="middle" x="259.5" y="-202.5" font-family="FreeSans" font-size="10.00" fill="#000000">PHG4Hit::get_t</text>
</a>
</g>
</g>
<!-- Node1&#45;&gt;Node32 -->
<g id="edge45" class="edge">
<title>Node1&#45;&gt;Node32</title>
<path fill="none" stroke="#191970" d="M88.4432,-291.217C108.4142,-272.3626 143.9265,-241.7 180,-224.5 187.5494,-220.9004 195.8365,-217.9511 204.1214,-215.5436"/>
<polygon fill="#191970" stroke="#191970" points="205.0428,-218.9203 213.8019,-212.9597 203.2375,-212.1571 205.0428,-218.9203"/>
</g>
<!-- Node33 -->
<g id="node33" class="node">
<title>Node33</title>
<g id="a_node33"><a xlink:href="../../d3/d9e/classPHG4Hit.html#a5df423db026ef6538eb4b2519044d2ef" target="_top" xlink:title="PHG4Hit::get_x">
<polygon fill="none" stroke="#000000" points="213,-156.5 213,-176.5 306,-176.5 306,-156.5 213,-156.5"/>
<text text-anchor="middle" x="259.5" y="-163.5" font-family="FreeSans" font-size="10.00" fill="#000000">PHG4Hit::get_x</text>
</a>
</g>
</g>
<!-- Node1&#45;&gt;Node33 -->
<g id="edge46" class="edge">
<title>Node1&#45;&gt;Node33</title>
<path fill="none" stroke="#191970" d="M81.6888,-291.195C98.314,-264.7062 134.8826,-212.5688 180,-185.5 187.0075,-181.2958 194.885,-178.0216 202.8867,-175.4718"/>
<polygon fill="#191970" stroke="#191970" points="203.9891,-178.7973 212.6584,-172.7069 202.0833,-172.0618 203.9891,-178.7973"/>
</g>
<!-- Node34 -->
<g id="node34" class="node">
<title>Node34</title>
<g id="a_node34"><a xlink:href="../../d3/d9e/classPHG4Hit.html#ace826b4fe9a1fb7b3085ae5ed9387fdc" target="_top" xlink:title="PHG4Hit::get_y">
<polygon fill="none" stroke="#000000" points="213,-117.5 213,-137.5 306,-137.5 306,-117.5 213,-117.5"/>
<text text-anchor="middle" x="259.5" y="-124.5" font-family="FreeSans" font-size="10.00" fill="#000000">PHG4Hit::get_y</text>
</a>
</g>
</g>
<!-- Node1&#45;&gt;Node34 -->
<g id="edge47" class="edge">
<title>Node1&#45;&gt;Node34</title>
<path fill="none" stroke="#191970" d="M78.0892,-291.3171C91.298,-258.5206 125.8253,-184.1434 180,-146.5 186.9521,-141.6693 194.9813,-138.0582 203.208,-135.3607"/>
<polygon fill="#191970" stroke="#191970" points="204.247,-138.704 212.9035,-132.5953 202.3269,-131.9725 204.247,-138.704"/>
</g>
<!-- Node35 -->
<g id="node35" class="node">
<title>Node35</title>
<g id="a_node35"><a xlink:href="../../d3/d9e/classPHG4Hit.html#afe0c7e8f489d586c51f1e16488723437" target="_top" xlink:title="PHG4Hit::get_z">
<polygon fill="none" stroke="#000000" points="213.5,-78.5 213.5,-98.5 305.5,-98.5 305.5,-78.5 213.5,-78.5"/>
<text text-anchor="middle" x="259.5" y="-85.5" font-family="FreeSans" font-size="10.00" fill="#000000">PHG4Hit::get_z</text>
</a>
</g>
</g>
<!-- Node1&#45;&gt;Node35 -->
<g id="edge48" class="edge">
<title>Node1&#45;&gt;Node35</title>
<path fill="none" stroke="#191970" d="M75.8767,-291.3252C85.939,-252.9902 116.6344,-156.1855 180,-107.5 186.9495,-102.1605 195.1727,-98.2914 203.6506,-95.4941"/>
<polygon fill="#191970" stroke="#191970" points="204.6073,-98.8609 213.2763,-92.77 202.7011,-92.1255 204.6073,-98.8609"/>
</g>
<!-- Node36 -->
<g id="node36" class="node">
<title>Node36</title>
<g id="a_node36"><a xlink:href="../../da/d55/TPCRateLayered_8m.html#a7507ef556477c204b499f1e189d40796" target="_top" xlink:title="sum">
<polygon fill="none" stroke="#000000" points="240.5,-39.5 240.5,-59.5 278.5,-59.5 278.5,-39.5 240.5,-39.5"/>
<text text-anchor="middle" x="259.5" y="-46.5" font-family="FreeSans" font-size="10.00" fill="#000000">sum</text>
</a>
</g>
</g>
<!-- Node1&#45;&gt;Node36 -->
<g id="edge49" class="edge">
<title>Node1&#45;&gt;Node36</title>
<path fill="none" stroke="#191970" d="M74.3173,-291.495C81.4465,-248.3207 107.1614,-128.6758 180,-68.5 194,-56.9338 213.8687,-52.1833 230.2406,-50.3246"/>
<polygon fill="#191970" stroke="#191970" points="230.7227,-53.7967 240.3974,-49.4782 230.1413,-46.8208 230.7227,-53.7967"/>
</g>
<!-- Node37 -->
<g id="node37" class="node">
<title>Node37</title>
<g id="a_node37"><a xlink:href="../../d5/dec/classFun4AllBase.html#a8a5c77a92bdac6bc043476e132379a40" target="_top" xlink:title="Gets the verbosity of this module.">
<polygon fill="none" stroke="#000000" points="193.5,-.5 193.5,-20.5 325.5,-20.5 325.5,-.5 193.5,-.5"/>
<text text-anchor="middle" x="259.5" y="-7.5" font-family="FreeSans" font-size="10.00" fill="#000000">Fun4AllBase::Verbosity</text>
</a>
</g>
</g>
<!-- Node1&#45;&gt;Node37 -->
<g id="edge50" class="edge">
<title>Node1&#45;&gt;Node37</title>
<path fill="none" stroke="#191970" d="M73.2071,-291.4082C77.6905,-243.6072 97.6786,-101.327 180,-29.5 181.5237,-28.1705 183.1241,-26.9302 184.788,-25.7732"/>
<polygon fill="#191970" stroke="#191970" points="186.6948,-28.713 193.5745,-20.6557 183.1718,-22.6642 186.6948,-28.713"/>
</g>
<!-- Node2&#45;&gt;Node3 -->
<g id="edge2" class="edge">
<title>Node2&#45;&gt;Node3</title>
<path fill="none" stroke="#191970" d="M321.6132,-635.0211C352.1506,-638.2271 387.8791,-641.9781 413.881,-644.708"/>
<polygon fill="#191970" stroke="#191970" points="413.7248,-648.2107 424.0356,-645.7741 414.4557,-641.249 413.7248,-648.2107"/>
</g>
<!-- Node5 -->
<g id="node5" class="node">
<title>Node5</title>
<g id="a_node5"><a xlink:href="../../d3/d5f/classCylinderGeomMicromegas.html#a6fee891a8d09adb27417ef21f2d4332e" target="_top" xlink:title="get strip for a give world location and tile">
<polygon fill="none" stroke="#000000" points="375,-363.5 375,-407.5 525,-407.5 525,-363.5 375,-363.5"/>
<text text-anchor="start" x="383" y="-394.5" font-family="FreeSans" font-size="10.00" fill="#000000">CylinderGeomMicromegas</text>
<text text-anchor="start" x="383" y="-382.5" font-family="FreeSans" font-size="10.00" fill="#000000">::find_strip_from_local</text>
<text text-anchor="middle" x="450" y="-370.5" font-family="FreeSans" font-size="10.00" fill="#000000">_coords</text>
</a>
</g>
</g>
<!-- Node4&#45;&gt;Node5 -->
<g id="edge4" class="edge">
<title>Node4&#45;&gt;Node5</title>
<path fill="none" stroke="#191970" d="M323.7992,-477.4264C329.1701,-474.8672 334.325,-471.9115 339,-468.5 361.412,-452.1452 353.4212,-434.9395 375,-417.5 376.975,-415.9039 379.0414,-414.3743 381.1768,-412.9098"/>
<polygon fill="#191970" stroke="#191970" points="383.0806,-415.8474 389.7072,-407.5807 379.3717,-409.9106 383.0806,-415.8474"/>
</g>
<!-- Node19 -->
<g id="node19" class="node">
<title>Node19</title>
<g id="a_node19"><a xlink:href="../../d3/d5f/classCylinderGeomMicromegas.html#a7f4b63d4944c69d93146b1b1041faa84" target="_top" xlink:title="segmentation type">
<polygon fill="none" stroke="#000000" points="577.5,-345.5 577.5,-377.5 727.5,-377.5 727.5,-345.5 577.5,-345.5"/>
<text text-anchor="start" x="585.5" y="-364.5" font-family="FreeSans" font-size="10.00" fill="#000000">CylinderGeomMicromegas</text>
<text text-anchor="middle" x="652.5" y="-352.5" font-family="FreeSans" font-size="10.00" fill="#000000">::get_segmentation_type</text>
</a>
</g>
</g>
<!-- Node4&#45;&gt;Node19 -->
<g id="edge30" class="edge">
<title>Node4&#45;&gt;Node19</title>
<path fill="none" stroke="#191970" d="M327.6874,-477.32C331.7936,-474.7937 335.6218,-471.8741 339,-468.5 376.5933,-430.952 332.1442,-385.9085 375,-354.5 404.5927,-332.8119 497.1504,-339.399 567.3048,-348.299"/>
<polygon fill="#191970" stroke="#191970" points="567.1141,-351.8037 577.4827,-349.6258 568.0191,-344.8624 567.1141,-351.8037"/>
</g>
<!-- Node23 -->
<g id="node23" class="node">
<title>Node23</title>
<g id="a_node23"><a xlink:href="../../d3/d5f/classCylinderGeomMicromegas.html#aac3858ab1b6338b7938e8b3f7e4650ab" target="_top" xlink:title="get local coordinates for a given tile and strip">
<polygon fill="none" stroke="#000000" points="375,-426.5 375,-458.5 525,-458.5 525,-426.5 375,-426.5"/>
<text text-anchor="start" x="383" y="-445.5" font-family="FreeSans" font-size="10.00" fill="#000000">CylinderGeomMicromegas</text>
<text text-anchor="middle" x="450" y="-433.5" font-family="FreeSans" font-size="10.00" fill="#000000">::get_local_coordinates</text>
</a>
</g>
</g>
<!-- Node4&#45;&gt;Node23 -->
<g id="edge23" class="edge">
<title>Node4&#45;&gt;Node23</title>
<path fill="none" stroke="#191970" d="M319.5139,-477.4333C338.7334,-472.2879 360.1809,-466.546 380.0459,-461.2279"/>
<polygon fill="#191970" stroke="#191970" points="381.2059,-464.5407 389.9606,-458.5736 379.3956,-457.7788 381.2059,-464.5407"/>
</g>
<!-- Node24 -->
<g id="node24" class="node">
<title>Node24</title>
<g id="a_node24"><a xlink:href="../../d3/d5f/classCylinderGeomMicromegas.html#a6b84738c087274e1a140623d983ba8fc" target="_top" xlink:title="CylinderGeomMicromegas\l::get_pitch">
<polygon fill="none" stroke="#000000" points="375,-528.5 375,-560.5 525,-560.5 525,-528.5 375,-528.5"/>
<text text-anchor="start" x="383" y="-547.5" font-family="FreeSans" font-size="10.00" fill="#000000">CylinderGeomMicromegas</text>
<text text-anchor="middle" x="450" y="-535.5" font-family="FreeSans" font-size="10.00" fill="#000000">::get_pitch</text>
</a>
</g>
</g>
<!-- Node4&#45;&gt;Node24 -->
<g id="edge29" class="edge">
<title>Node4&#45;&gt;Node24</title>
<path fill="none" stroke="#191970" d="M319.5139,-509.5667C338.7334,-514.7121 360.1809,-520.454 380.0459,-525.7721"/>
<polygon fill="#191970" stroke="#191970" points="379.3956,-529.2212 389.9606,-528.4264 381.2059,-522.4593 379.3956,-529.2212"/>
</g>
<!-- Node25 -->
<g id="node25" class="node">
<title>Node25</title>
<g id="a_node25"><a xlink:href="../../d3/d5f/classCylinderGeomMicromegas.html#aa364b6324cfb332fb3233bc0cbb8770b" target="_top" xlink:title="get number of strips">
<polygon fill="none" stroke="#000000" points="375,-477.5 375,-509.5 525,-509.5 525,-477.5 375,-477.5"/>
<text text-anchor="start" x="383" y="-496.5" font-family="FreeSans" font-size="10.00" fill="#000000">CylinderGeomMicromegas</text>
<text text-anchor="middle" x="450" y="-484.5" font-family="FreeSans" font-size="10.00" fill="#000000">::get_strip_count</text>
</a>
</g>
</g>
<!-- Node4&#45;&gt;Node25 -->
<g id="edge31" class="edge">
<title>Node4&#45;&gt;Node25</title>
<path fill="none" stroke="#191970" d="M331.5199,-493.5C342.3295,-493.5 353.5643,-493.5 364.6198,-493.5"/>
<polygon fill="#191970" stroke="#191970" points="364.7051,-497.0001 374.7051,-493.5 364.705,-490.0001 364.7051,-497.0001"/>
</g>
<!-- Node5&#45;&gt;Node6 -->
<g id="edge5" class="edge">
<title>Node5&#45;&gt;Node6</title>
<path fill="none" stroke="#191970" d="M513.2041,-407.5808C517.4942,-410.5069 521.4959,-413.7995 525,-417.5 557.1914,-451.4958 525.5979,-485.862 561,-516.5 562.5182,-517.8139 564.1034,-519.0451 565.7456,-520.1986"/>
<polygon fill="#191970" stroke="#191970" points="564.0022,-523.234 574.3853,-525.3415 567.5827,-517.219 564.0022,-523.234"/>
</g>
<!-- Node18 -->
<g id="node18" class="node">
<title>Node18</title>
<g id="a_node18"><a xlink:href="../../d3/d5f/classCylinderGeomMicromegas.html#a64d175a4561692f8a3d308e7f627b453" target="_top" xlink:title="CylinderGeomMicromegas\l::get_layer">
<polygon fill="none" stroke="#000000" points="577.5,-474.5 577.5,-506.5 727.5,-506.5 727.5,-474.5 577.5,-474.5"/>
<text text-anchor="start" x="585.5" y="-493.5" font-family="FreeSans" font-size="10.00" fill="#000000">CylinderGeomMicromegas</text>
<text text-anchor="middle" x="652.5" y="-481.5" font-family="FreeSans" font-size="10.00" fill="#000000">::get_layer</text>
</a>
</g>
</g>
<!-- Node5&#45;&gt;Node18 -->
<g id="edge18" class="edge">
<title>Node5&#45;&gt;Node18</title>
<path fill="none" stroke="#191970" d="M509.7999,-407.5045C515.1607,-410.5025 520.3223,-413.8298 525,-417.5 545.9797,-433.961 538.946,-450.5089 561,-465.5 563.2833,-467.0521 565.66,-468.5081 568.1081,-469.874"/>
<polygon fill="#191970" stroke="#191970" points="566.7345,-473.1002 577.2448,-474.4359 569.8615,-466.8374 566.7345,-473.1002"/>
</g>
<!-- Node5&#45;&gt;Node19 -->
<g id="edge19" class="edge">
<title>Node5&#45;&gt;Node19</title>
<path fill="none" stroke="#191970" d="M525.1158,-376.5974C538.7924,-374.9765 553.1519,-373.2746 567.0999,-371.6215"/>
<polygon fill="#191970" stroke="#191970" points="567.6493,-375.081 577.1679,-370.4283 566.8254,-368.1296 567.6493,-375.081"/>
</g>
<!-- Node20 -->
<g id="node20" class="node">
<title>Node20</title>
<g id="a_node20"><a xlink:href="../../d0/dcd/structActsSurfaceMaps.html#a495aa227eb961abc63783e594fb433b2" target="_top" xlink:title="ActsSurfaceMaps::getMMSurface">
<polygon fill="none" stroke="#000000" points="561,-435.5 561,-455.5 744,-455.5 744,-435.5 561,-435.5"/>
<text text-anchor="middle" x="652.5" y="-442.5" font-family="FreeSans" font-size="10.00" fill="#000000">ActsSurfaceMaps::getMMSurface</text>
</a>
</g>
</g>
<!-- Node5&#45;&gt;Node20 -->
<g id="edge20" class="edge">
<title>Node5&#45;&gt;Node20</title>
<path fill="none" stroke="#191970" d="M504.793,-407.5806C522.541,-414.2348 542.4374,-421.1767 561,-426.5 569.4984,-428.9372 578.5247,-431.1976 587.469,-433.2463"/>
<polygon fill="#191970" stroke="#191970" points="586.98,-436.7227 597.5002,-435.4673 588.4933,-429.8882 586.98,-436.7227"/>
</g>
<!-- Node21 -->
<g id="node21" class="node">
<title>Node21</title>
<g id="a_node21"><a xlink:href="../../da/d28/classActs_1_1RectangleBounds.html#acd9e45f5771fe1b4b86657e4498f0a72" target="_top" xlink:title="Access to the half length in X.">
<polygon fill="none" stroke="#000000" points="585.5,-294.5 585.5,-326.5 719.5,-326.5 719.5,-294.5 585.5,-294.5"/>
<text text-anchor="start" x="593.5" y="-313.5" font-family="FreeSans" font-size="10.00" fill="#000000">Acts::RectangleBounds</text>
<text text-anchor="middle" x="652.5" y="-301.5" font-family="FreeSans" font-size="10.00" fill="#000000">::halfLengthX</text>
</a>
</g>
</g>
<!-- Node5&#45;&gt;Node21 -->
<g id="edge21" class="edge">
<title>Node5&#45;&gt;Node21</title>
<path fill="none" stroke="#191970" d="M496.132,-363.417C515.859,-354.4252 539.3031,-344.3288 561,-336.5 567.7282,-334.0723 574.7989,-331.7219 581.9036,-329.492"/>
<polygon fill="#191970" stroke="#191970" points="583.0456,-332.8028 591.5839,-326.5301 580.9975,-326.1091 583.0456,-332.8028"/>
</g>
<!-- Node22 -->
<g id="node22" class="node">
<title>Node22</title>
<g id="a_node22"><a xlink:href="../../d3/d64/classActsGeometry.html#a5de502147722c0e0e8549b706d5d21a8" target="_top" xlink:title="ActsGeometry::maps">
<polygon fill="none" stroke="#000000" points="591,-396.5 591,-416.5 714,-416.5 714,-396.5 591,-396.5"/>
<text text-anchor="middle" x="652.5" y="-403.5" font-family="FreeSans" font-size="10.00" fill="#000000">ActsGeometry::maps</text>
</a>
</g>
</g>
<!-- Node5&#45;&gt;Node22 -->
<g id="edge22" class="edge">
<title>Node5&#45;&gt;Node22</title>
<path fill="none" stroke="#191970" d="M525.1158,-393.2898C543.2657,-395.172 562.6182,-397.1789 580.6157,-399.0453"/>
<polygon fill="#191970" stroke="#191970" points="580.4387,-402.5457 590.7464,-400.0959 581.1608,-395.583 580.4387,-402.5457"/>
</g>
<!-- Node7 -->
<g id="node7" class="node">
<title>Node7</title>
<g id="a_node7"><a xlink:href="../../d6/d3f/namespaceTrkrDefs.html#a418e306477093b8d17d587be70b908a3" target="_top" xlink:title="generate the common upper 16 bits for hitsetkey">
<polygon fill="none" stroke="#000000" points="780,-525.5 780,-545.5 914,-545.5 914,-525.5 780,-525.5"/>
<text text-anchor="middle" x="847" y="-532.5" font-family="FreeSans" font-size="10.00" fill="#000000">TrkrDefs::genHitSetKey</text>
</a>
</g>
</g>
<!-- Node6&#45;&gt;Node7 -->
<g id="edge6" class="edge">
<title>Node6&#45;&gt;Node7</title>
<path fill="none" stroke="#191970" d="M740.6447,-535.5C750.3143,-535.5 760.105,-535.5 769.6299,-535.5"/>
<polygon fill="#191970" stroke="#191970" points="769.8429,-539.0001 779.8429,-535.5 769.8428,-532.0001 769.8429,-539.0001"/>
</g>
<!-- Node8 -->
<g id="node8" class="node">
<title>Node8</title>
<g id="a_node8"><a xlink:href="../../dd/d7e/namespaceActs_1_1Test.html#a88f0887efddd644c8defc1e91456c3c9" target="_top" xlink:title="Acts::Test::tmp">
<polygon fill="none" stroke="#000000" points="952.5,-564.5 952.5,-584.5 1044.5,-584.5 1044.5,-564.5 952.5,-564.5"/>
<text text-anchor="middle" x="998.5" y="-571.5" font-family="FreeSans" font-size="10.00" fill="#000000">Acts::Test::tmp</text>
</a>
</g>
</g>
<!-- Node6&#45;&gt;Node8 -->
<g id="edge8" class="edge">
<title>Node6&#45;&gt;Node8</title>
<path fill="none" stroke="#191970" d="M710.7773,-545.506C732.4642,-549.0014 757.3133,-552.7376 780,-555.5 834.9385,-562.1895 897.9276,-567.4076 942.1159,-570.6688"/>
<polygon fill="#191970" stroke="#191970" points="942.1393,-574.1797 952.3671,-571.4151 942.6477,-567.1982 942.1393,-574.1797"/>
</g>
<!-- Node9 -->
<g id="node9" class="node">
<title>Node9</title>
<g id="a_node9"><a xlink:href="../../d2/d51/usm_8C.html#a4fc3d7a8ab8dddafe2295d65165d9cf7" target="_top" xlink:title="tile">
<polygon fill="none" stroke="#000000" points="831,-486.5 831,-506.5 863,-506.5 863,-486.5 831,-486.5"/>
<text text-anchor="middle" x="847" y="-493.5" font-family="FreeSans" font-size="10.00" fill="#000000">tile</text>
</a>
</g>
</g>
<!-- Node6&#45;&gt;Node9 -->
<g id="edge9" class="edge">
<title>Node6&#45;&gt;Node9</title>
<path fill="none" stroke="#191970" d="M702.5886,-525.4565C740.281,-517.8987 790.4448,-507.8401 820.6418,-501.7852"/>
<polygon fill="#191970" stroke="#191970" points="821.6869,-505.1454 830.8036,-499.7476 820.3106,-498.282 821.6869,-505.1454"/>
</g>
<!-- Node7&#45;&gt;Node8 -->
<g id="edge7" class="edge">
<title>Node7&#45;&gt;Node8</title>
<path fill="none" stroke="#191970" d="M886.015,-545.5435C905.4537,-550.5475 929.1508,-556.6477 949.7728,-561.9564"/>
<polygon fill="#191970" stroke="#191970" points="949.0604,-565.387 959.6172,-564.4906 950.8055,-558.608 949.0604,-565.387"/>
</g>
<!-- Node10 -->
<g id="node10" class="node">
<title>Node10</title>
<g id="a_node10"><a xlink:href="../../d2/d51/usm_8C.html#aeb3b442c3eacc3e6c3987fcb2a7d938c" target="_top" xlink:title="csNorm">
<polygon fill="none" stroke="#000000" points="971.5,-447.5 971.5,-467.5 1025.5,-467.5 1025.5,-447.5 971.5,-447.5"/>
<text text-anchor="middle" x="998.5" y="-454.5" font-family="FreeSans" font-size="10.00" fill="#000000">csNorm</text>
</a>
</g>
</g>
<!-- Node9&#45;&gt;Node10 -->
<g id="edge10" class="edge">
<title>Node9&#45;&gt;Node10</title>
<path fill="none" stroke="#191970" d="M863.2132,-492.3263C886.5632,-486.3154 930.3025,-475.0558 961.7332,-466.9647"/>
<polygon fill="#191970" stroke="#191970" points="962.6523,-470.3423 971.464,-464.4598 960.9071,-463.5633 962.6523,-470.3423"/>
</g>
<!-- Node11 -->
<g id="node11" class="node">
<title>Node11</title>
<g id="a_node11"><a xlink:href="../../dd/d7a/Mat__map__detector__plot_8C.html#ac0d08f0933de5ca6053592441e00dacb" target="_top" xlink:title="Fill the histograms for the detector.">
<polygon fill="none" stroke="#000000" points="984,-408.5 984,-428.5 1013,-428.5 1013,-408.5 984,-408.5"/>
<text text-anchor="middle" x="998.5" y="-415.5" font-family="FreeSans" font-size="10.00" fill="#000000">Fill</text>
</a>
</g>
</g>
<!-- Node9&#45;&gt;Node11 -->
<g id="edge11" class="edge">
<title>Node9&#45;&gt;Node11</title>
<path fill="none" stroke="#191970" d="M863.0842,-486.6327C883.0795,-474.5566 918.4312,-453.827 950,-438.5 957.8349,-434.6961 966.5837,-430.9434 974.4705,-427.7344"/>
<polygon fill="#191970" stroke="#191970" points="975.8672,-430.9456 983.8657,-423.9976 973.2801,-424.4412 975.8672,-430.9456"/>
</g>
<!-- Node16 -->
<g id="node16" class="node">
<title>Node16</title>
<g id="a_node16"><a xlink:href="../../d2/d51/usm_8C.html#a312a11f8998028abc96138b746c948bf" target="_top" xlink:title="fsNorm">
<polygon fill="none" stroke="#000000" points="972.5,-525.5 972.5,-545.5 1024.5,-545.5 1024.5,-525.5 972.5,-525.5"/>
<text text-anchor="middle" x="998.5" y="-532.5" font-family="FreeSans" font-size="10.00" fill="#000000">fsNorm</text>
</a>
</g>
</g>
<!-- Node9&#45;&gt;Node16 -->
<g id="edge16" class="edge">
<title>Node9&#45;&gt;Node16</title>
<path fill="none" stroke="#191970" d="M863.2132,-500.6737C886.7699,-506.7378 931.0782,-518.1439 962.5647,-526.2493"/>
<polygon fill="#191970" stroke="#191970" points="961.7376,-529.6505 972.2945,-528.754 963.4828,-522.8715 961.7376,-529.6505"/>
</g>
<!-- Node17 -->
<g id="node17" class="node">
<title>Node17</title>
<g id="a_node17"><a xlink:href="../../d4/da3/namespacemyAnalysis.html#a9f597e7106ca1fcda16204c112f7f2e0" target="_top" xlink:title="myAnalysis::init">
<polygon fill="none" stroke="#000000" points="950,-486.5 950,-506.5 1047,-506.5 1047,-486.5 950,-486.5"/>
<text text-anchor="middle" x="998.5" y="-493.5" font-family="FreeSans" font-size="10.00" fill="#000000">myAnalysis::init</text>
</a>
</g>
</g>
<!-- Node9&#45;&gt;Node17 -->
<g id="edge17" class="edge">
<title>Node9&#45;&gt;Node17</title>
<path fill="none" stroke="#191970" d="M863.2132,-496.5C881.4208,-496.5 912.026,-496.5 939.5255,-496.5"/>
<polygon fill="#191970" stroke="#191970" points="939.8807,-500.0001 949.8806,-496.5 939.8806,-493.0001 939.8807,-500.0001"/>
</g>
<!-- Node12 -->
<g id="node12" class="node">
<title>Node12</title>
<g id="a_node12"><a xlink:href="../../dd/d7a/Mat__map__detector__plot_8C.html#ab5e879aeac6e72f1a2567331e3716b3b" target="_top" xlink:title="Initialise the histograms for the detector.">
<polygon fill="none" stroke="#000000" points="1112.5,-431.5 1112.5,-451.5 1195.5,-451.5 1195.5,-431.5 1112.5,-431.5"/>
<text text-anchor="middle" x="1154" y="-438.5" font-family="FreeSans" font-size="10.00" fill="#000000">Initialise_hist</text>
</a>
</g>
</g>
<!-- Node11&#45;&gt;Node12 -->
<g id="edge12" class="edge">
<title>Node11&#45;&gt;Node12</title>
<path fill="none" stroke="#191970" d="M1013.1291,-420.6638C1033.3908,-423.6607 1071.037,-429.2289 1102.3173,-433.8556"/>
<polygon fill="#191970" stroke="#191970" points="1101.8149,-437.3193 1112.2194,-435.3202 1102.8392,-430.3946 1101.8149,-437.3193"/>
</g>
<!-- Node13 -->
<g id="node13" class="node">
<title>Node13</title>
<g id="a_node13"><a xlink:href="../../d7/d33/classActs_1_1GeometryIdentifier.html#abc1ccf966fe5fc7f517c6775b5d38623" target="_top" xlink:title="Return the volume identifier.">
<polygon fill="none" stroke="#000000" points="1083,-380.5 1083,-412.5 1225,-412.5 1225,-380.5 1083,-380.5"/>
<text text-anchor="start" x="1091" y="-399.5" font-family="FreeSans" font-size="10.00" fill="#000000">Acts::GeometryIdentifier</text>
<text text-anchor="middle" x="1154" y="-387.5" font-family="FreeSans" font-size="10.00" fill="#000000">::volume</text>
</a>
</g>
</g>
<!-- Node11&#45;&gt;Node13 -->
<g id="edge13" class="edge">
<title>Node11&#45;&gt;Node13</title>
<path fill="none" stroke="#191970" d="M1013.1291,-416.4303C1027.2228,-414.4363 1049.7279,-411.2523 1072.651,-408.0092"/>
<polygon fill="#191970" stroke="#191970" points="1073.4181,-411.4356 1082.8291,-406.5692 1072.4374,-404.5046 1073.4181,-411.4356"/>
</g>
<!-- Node14 -->
<g id="node14" class="node">
<title>Node14</title>
<g id="a_node14"><a xlink:href="../../d7/d33/classActs_1_1GeometryIdentifier.html#a5fc08ada52c3da4d9b255e0454739e1d" target="_top" xlink:title="Extract the masked bits from the encoded value.">
<polygon fill="none" stroke="#000000" points="1261,-380.5 1261,-412.5 1403,-412.5 1403,-380.5 1261,-380.5"/>
<text text-anchor="start" x="1269" y="-399.5" font-family="FreeSans" font-size="10.00" fill="#000000">Acts::GeometryIdentifier</text>
<text text-anchor="middle" x="1332" y="-387.5" font-family="FreeSans" font-size="10.00" fill="#000000">::getBits</text>
</a>
</g>
</g>
<!-- Node13&#45;&gt;Node14 -->
<g id="edge14" class="edge">
<title>Node13&#45;&gt;Node14</title>
<path fill="none" stroke="#191970" d="M1225.1177,-396.5C1233.609,-396.5 1242.3268,-396.5 1250.9445,-396.5"/>
<polygon fill="#191970" stroke="#191970" points="1250.9953,-400.0001 1260.9953,-396.5 1250.9952,-393.0001 1250.9953,-400.0001"/>
</g>
<!-- Node15 -->
<g id="node15" class="node">
<title>Node15</title>
<g id="a_node15"><a xlink:href="../../d7/d33/classActs_1_1GeometryIdentifier.html#ac13065798464cc86b747086eea9020e2" target="_top" xlink:title="Extract the bit shift necessary to access the masked values.">
<polygon fill="none" stroke="#000000" points="1439,-380.5 1439,-412.5 1581,-412.5 1581,-380.5 1439,-380.5"/>
<text text-anchor="start" x="1447" y="-399.5" font-family="FreeSans" font-size="10.00" fill="#000000">Acts::GeometryIdentifier</text>
<text text-anchor="middle" x="1510" y="-387.5" font-family="FreeSans" font-size="10.00" fill="#000000">::extractShift</text>
</a>
</g>
</g>
<!-- Node14&#45;&gt;Node15 -->
<g id="edge15" class="edge">
<title>Node14&#45;&gt;Node15</title>
<path fill="none" stroke="#191970" d="M1403.1177,-396.5C1411.609,-396.5 1420.3268,-396.5 1428.9445,-396.5"/>
<polygon fill="#191970" stroke="#191970" points="1428.9953,-400.0001 1438.9953,-396.5 1428.9952,-393.0001 1428.9953,-400.0001"/>
</g>
<!-- Node23&#45;&gt;Node6 -->
<g id="edge24" class="edge">
<title>Node23&#45;&gt;Node6</title>
<path fill="none" stroke="#191970" d="M507.883,-458.5573C513.9295,-461.3886 519.7682,-464.6814 525,-468.5 546.5396,-484.2213 538.4922,-502.1993 561,-516.5 563.8073,-518.2836 566.7517,-519.9035 569.7933,-521.3742"/>
<polygon fill="#191970" stroke="#191970" points="568.597,-524.6687 579.1696,-525.3544 571.3322,-518.2251 568.597,-524.6687"/>
</g>
<!-- Node23&#45;&gt;Node18 -->
<g id="edge25" class="edge">
<title>Node23&#45;&gt;Node18</title>
<path fill="none" stroke="#191970" d="M517.7111,-458.55C536.1182,-462.9132 556.1925,-467.6716 575.0918,-472.1514"/>
<polygon fill="#191970" stroke="#191970" points="574.315,-475.5642 584.8527,-474.4651 575.9296,-468.7529 574.315,-475.5642"/>
</g>
<!-- Node23&#45;&gt;Node19 -->
<g id="edge26" class="edge">
<title>Node23&#45;&gt;Node19</title>
<path fill="none" stroke="#191970" d="M505.8885,-426.476C512.4905,-423.8284 519.0048,-420.8396 525,-417.5 543.1948,-407.3645 542.5823,-397.2246 561,-387.5 565.2487,-385.2567 569.7136,-383.1874 574.2905,-381.2816"/>
<polygon fill="#191970" stroke="#191970" points="575.7476,-384.4707 583.8093,-377.5961 573.2201,-377.9429 575.7476,-384.4707"/>
</g>
<!-- Node23&#45;&gt;Node20 -->
<g id="edge27" class="edge">
<title>Node23&#45;&gt;Node20</title>
<path fill="none" stroke="#191970" d="M525.1158,-443.6128C533.4485,-443.7363 542.0348,-443.8635 550.6271,-443.9908"/>
<polygon fill="#191970" stroke="#191970" points="550.6508,-447.4914 560.7015,-444.14 550.7545,-440.4922 550.6508,-447.4914"/>
</g>
<!-- Node23&#45;&gt;Node22 -->
<g id="edge28" class="edge">
<title>Node23&#45;&gt;Node22</title>
<path fill="none" stroke="#191970" d="M525.1158,-429.1461C545.1484,-425.5847 566.6461,-421.7629 586.1698,-418.292"/>
<polygon fill="#191970" stroke="#191970" points="586.9483,-421.7086 596.1813,-416.5122 585.723,-414.8167 586.9483,-421.7086"/>
</g>
<!-- Node25&#45;&gt;Node6 -->
<g id="edge32" class="edge">
<title>Node25&#45;&gt;Node6</title>
<path fill="none" stroke="#191970" d="M525.1158,-509.0796C547.9504,-513.8156 572.6888,-518.9466 594.2372,-523.4159"/>
<polygon fill="#191970" stroke="#191970" points="593.7124,-526.8814 604.2148,-525.4853 595.134,-520.0273 593.7124,-526.8814"/>
</g>
<!-- Node25&#45;&gt;Node18 -->
<g id="edge33" class="edge">
<title>Node25&#45;&gt;Node18</title>
<path fill="none" stroke="#191970" d="M525.1158,-492.3872C538.7924,-492.1846 553.1519,-491.9718 567.0999,-491.7652"/>
<polygon fill="#191970" stroke="#191970" points="567.2209,-495.2639 577.1679,-491.616 567.1171,-488.2646 567.2209,-495.2639"/>
</g>
<!-- Node25&#45;&gt;Node19 -->
<g id="edge34" class="edge">
<title>Node25&#45;&gt;Node19</title>
<path fill="none" stroke="#191970" d="M512.498,-477.4102C517.0004,-474.8627 521.2401,-471.9136 525,-468.5 554.1676,-442.0188 531.2454,-413.3198 561,-387.5 563.3562,-385.4554 565.8629,-383.5709 568.4851,-381.8342"/>
<polygon fill="#191970" stroke="#191970" points="570.3147,-384.8191 577.2093,-376.7746 566.8029,-378.7638 570.3147,-384.8191"/>
</g>
<!-- Node25&#45;&gt;Node20 -->
<g id="edge35" class="edge">
<title>Node25&#45;&gt;Node20</title>
<path fill="none" stroke="#191970" d="M512.1442,-477.4524C528.0467,-473.4481 545.1363,-469.2336 561,-465.5 572.0178,-462.9069 583.809,-460.2453 595.1384,-457.7442"/>
<polygon fill="#191970" stroke="#191970" points="595.9267,-461.1545 604.9446,-455.5932 594.4269,-454.3171 595.9267,-461.1545"/>
</g>
<!-- Node25&#45;&gt;Node22 -->
<g id="edge36" class="edge">
<title>Node25&#45;&gt;Node22</title>
<path fill="none" stroke="#191970" d="M508.8043,-477.3945C514.4841,-474.8196 519.9885,-471.8697 525,-468.5 545.4022,-454.7816 539.8962,-439.1125 561,-426.5 567.2374,-422.7723 574.0853,-419.7366 581.1405,-417.2649"/>
<polygon fill="#191970" stroke="#191970" points="582.35,-420.5539 590.8519,-414.2319 580.2632,-413.8722 582.35,-420.5539"/>
</g>
<!-- Node29 -->
<g id="node29" class="node">
<title>Node29</title>
<g id="a_node29"><a xlink:href="../../d3/d9e/classPHG4Hit.html#ab8db2cb7bc978a58777600b2bd7a22ac" target="_top" xlink:title="PHG4Hit::get_eion">
<polygon fill="none" stroke="#000000" points="396,-285.5 396,-305.5 504,-305.5 504,-285.5 396,-285.5"/>
<text text-anchor="middle" x="450" y="-292.5" font-family="FreeSans" font-size="10.00" fill="#000000">PHG4Hit::get_eion</text>
</a>
</g>
</g>
<!-- Node28&#45;&gt;Node29 -->
<g id="edge42" class="edge">
<title>Node28&#45;&gt;Node29</title>
<path fill="none" stroke="#191970" d="M313.0718,-336.4706C342.6716,-327.614 378.9603,-316.756 406.7415,-308.4435"/>
<polygon fill="#191970" stroke="#191970" points="407.9866,-311.7243 416.5636,-305.5046 405.98,-305.0181 407.9866,-311.7243"/>
</g>
</g>
</svg>
