<?xml version="1.0" encoding="UTF-8" standalone="no"?>
<!DOCTYPE svg PUBLIC "-//W3C//DTD SVG 1.1//EN"
 "http://www.w3.org/Graphics/SVG/1.1/DTD/svg11.dtd">
<!-- Generated by graphviz version 2.40.1 (20161225.0304)
 -->
<!-- Title: coresoftware/blob/master/simulation/g4simulation/g4main/PHG4PhenixStackingAction.cc Pages: 1 -->
<svg width="356pt" height="167pt"
 viewBox="0.00 0.00 355.50 167.00" xmlns="http://www.w3.org/2000/svg" xmlns:xlink="http://www.w3.org/1999/xlink">
<g id="graph0" class="graph" transform="scale(1 1) rotate(0) translate(4 163)">
<title>coresoftware/blob/master/simulation/g4simulation/g4main/PHG4PhenixStackingAction.cc</title>
<!-- Node1 -->
<g id="node1" class="node">
<title>Node1</title>
<polygon fill="#bfbfbf" stroke="#000000" points="79,-114.5 79,-158.5 293,-158.5 293,-114.5 79,-114.5"/>
<text text-anchor="start" x="87" y="-145.5" font-family="FreeSans" font-size="10.00" fill="#000000">coresoftware/blob/master</text>
<text text-anchor="start" x="87" y="-133.5" font-family="FreeSans" font-size="10.00" fill="#000000">/simulation/g4simulation</text>
<text text-anchor="middle" x="186" y="-121.5" font-family="FreeSans" font-size="10.00" fill="#000000">/g4main/PHG4PhenixStackingAction.cc</text>
</g>
<!-- Node2 -->
<g id="node2" class="node">
<title>Node2</title>
<g id="a_node2"><a xlink:href="../../d9/dff/PHG4PhenixStackingAction_8h.html" target="_top" xlink:title="PHG4PhenixStackingAction.h">
<polygon fill="none" stroke="#000000" points="22.5,-57.5 22.5,-77.5 185.5,-77.5 185.5,-57.5 22.5,-57.5"/>
<text text-anchor="middle" x="104" y="-64.5" font-family="FreeSans" font-size="10.00" fill="#000000">PHG4PhenixStackingAction.h</text>
</a>
</g>
</g>
<!-- Node1&#45;&gt;Node2 -->
<g id="edge1" class="edge">
<title>Node1&#45;&gt;Node2</title>
<path fill="none" stroke="#191970" d="M159.6033,-114.2882C148.0771,-104.5893 134.7797,-93.4 124.0793,-84.396"/>
<polygon fill="#191970" stroke="#191970" points="126.043,-81.4741 116.138,-77.7137 121.5361,-86.8302 126.043,-81.4741"/>
</g>
<!-- Node5 -->
<g id="node5" class="node">
<title>Node5</title>
<g id="a_node5"><a xlink:href="../../dd/dd4/PHG4StackingAction_8h.html" target="_top" xlink:title="PHG4StackingAction.h">
<polygon fill="none" stroke="#000000" points="203.5,-57.5 203.5,-77.5 332.5,-77.5 332.5,-57.5 203.5,-57.5"/>
<text text-anchor="middle" x="268" y="-64.5" font-family="FreeSans" font-size="10.00" fill="#000000">PHG4StackingAction.h</text>
</a>
</g>
</g>
<!-- Node1&#45;&gt;Node5 -->
<g id="edge4" class="edge">
<title>Node1&#45;&gt;Node5</title>
<path fill="none" stroke="#191970" d="M212.3967,-114.2882C223.9229,-104.5893 237.2203,-93.4 247.9207,-84.396"/>
<polygon fill="#191970" stroke="#191970" points="250.4639,-86.8302 255.862,-77.7137 245.957,-81.4741 250.4639,-86.8302"/>
</g>
<!-- Node3 -->
<g id="node3" class="node">
<title>Node3</title>
<polygon fill="none" stroke="#bfbfbf" points="49.5,-.5 49.5,-20.5 234.5,-20.5 234.5,-.5 49.5,-.5"/>
<text text-anchor="middle" x="142" y="-7.5" font-family="FreeSans" font-size="10.00" fill="#000000">Geant4/G4UserStackingAction.hh</text>
</g>
<!-- Node2&#45;&gt;Node3 -->
<g id="edge2" class="edge">
<title>Node2&#45;&gt;Node3</title>
<path fill="none" stroke="#191970" d="M110.7936,-57.3095C116.0352,-49.4472 123.4261,-38.3608 129.6995,-28.9507"/>
<polygon fill="#191970" stroke="#191970" points="132.6303,-30.8642 135.2652,-20.6022 126.8059,-26.9813 132.6303,-30.8642"/>
</g>
<!-- Node4 -->
<g id="node4" class="node">
<title>Node4</title>
<polygon fill="none" stroke="#bfbfbf" points="0,-.5 0,-20.5 32,-20.5 32,-.5 0,-.5"/>
<text text-anchor="middle" x="16" y="-7.5" font-family="FreeSans" font-size="10.00" fill="#000000">list</text>
</g>
<!-- Node2&#45;&gt;Node4 -->
<g id="edge3" class="edge">
<title>Node2&#45;&gt;Node4</title>
<path fill="none" stroke="#191970" d="M88.2674,-57.3095C74.8776,-48.6366 55.4312,-36.0407 40.0829,-26.0992"/>
<polygon fill="#191970" stroke="#191970" points="41.8924,-23.1011 31.5964,-20.6022 38.0868,-28.9764 41.8924,-23.1011"/>
</g>
<!-- Node5&#45;&gt;Node3 -->
<g id="edge5" class="edge">
<title>Node5&#45;&gt;Node3</title>
<path fill="none" stroke="#191970" d="M245.7638,-57.4408C225.7349,-48.3801 196.0729,-34.9615 173.5865,-24.7891"/>
<polygon fill="#191970" stroke="#191970" points="174.9915,-21.5833 164.4378,-20.6504 172.1062,-27.961 174.9915,-21.5833"/>
</g>
<!-- Node6 -->
<g id="node6" class="node">
<title>Node6</title>
<polygon fill="none" stroke="#bfbfbf" points="252,-.5 252,-20.5 284,-20.5 284,-.5 252,-.5"/>
<text text-anchor="middle" x="268" y="-7.5" font-family="FreeSans" font-size="10.00" fill="#000000">set</text>
</g>
<!-- Node5&#45;&gt;Node6 -->
<g id="edge6" class="edge">
<title>Node5&#45;&gt;Node6</title>
<path fill="none" stroke="#191970" d="M268,-57.3095C268,-49.9335 268,-39.72 268,-30.715"/>
<polygon fill="#191970" stroke="#191970" points="271.5001,-30.6022 268,-20.6022 264.5001,-30.6023 271.5001,-30.6022"/>
</g>
<!-- Node7 -->
<g id="node7" class="node">
<title>Node7</title>
<polygon fill="none" stroke="#bfbfbf" points="302.5,-.5 302.5,-20.5 347.5,-20.5 347.5,-.5 302.5,-.5"/>
<text text-anchor="middle" x="325" y="-7.5" font-family="FreeSans" font-size="10.00" fill="#000000">string</text>
</g>
<!-- Node5&#45;&gt;Node7 -->
<g id="edge7" class="edge">
<title>Node5&#45;&gt;Node7</title>
<path fill="none" stroke="#191970" d="M278.1905,-57.3095C286.3771,-49.1229 298.059,-37.441 307.7045,-27.7955"/>
<polygon fill="#191970" stroke="#191970" points="310.3016,-30.1482 314.8978,-20.6022 305.3518,-25.1984 310.3016,-30.1482"/>
</g>
</g>
</svg>
