<?xml version="1.0" encoding="UTF-8" standalone="no"?>
<!DOCTYPE svg PUBLIC "-//W3C//DTD SVG 1.1//EN"
 "http://www.w3.org/Graphics/SVG/1.1/DTD/svg11.dtd">
<!-- Generated by graphviz version 2.40.1 (20161225.0304)
 -->
<!-- Title: MyMonDraw::MakeHtml Pages: 1 -->
<svg width="1773pt" height="851pt"
 viewBox="0.00 0.00 1773.00 851.00" xmlns="http://www.w3.org/2000/svg" xmlns:xlink="http://www.w3.org/1999/xlink">
<g id="graph0" class="graph" transform="scale(1 1) rotate(0) translate(4 847)">
<title>MyMonDraw::MakeHtml</title>
<!-- Node1 -->
<g id="node1" class="node">
<title>Node1</title>
<polygon fill="#bfbfbf" stroke="#000000" points="0,-168.5 0,-188.5 135,-188.5 135,-168.5 0,-168.5"/>
<text text-anchor="middle" x="67.5" y="-175.5" font-family="FreeSans" font-size="10.00" fill="#000000">MyMonDraw::MakeHtml</text>
</g>
<!-- Node2 -->
<g id="node2" class="node">
<title>Node2</title>
<g id="a_node2"><a xlink:href="../../d9/d62/classOnlMonClient.html#a096b655b98332ff2b557f40e6a4071c9" target="_top" xlink:title="OnlMonClient::CanvasToPng">
<polygon fill="none" stroke="#000000" points="171,-498.5 171,-518.5 328,-518.5 328,-498.5 171,-498.5"/>
<text text-anchor="middle" x="249.5" y="-505.5" font-family="FreeSans" font-size="10.00" fill="#000000">OnlMonClient::CanvasToPng</text>
</a>
</g>
</g>
<!-- Node1&#45;&gt;Node2 -->
<g id="edge1" class="edge">
<title>Node1&#45;&gt;Node2</title>
<path fill="none" stroke="#191970" d="M67.8035,-188.6098C69.6321,-231.0404 82.3998,-396.5531 171,-483.5 175.2509,-487.6716 180.1958,-491.1475 185.4965,-494.0437"/>
<polygon fill="#191970" stroke="#191970" points="184.1569,-497.2817 194.6935,-498.391 187.1484,-490.9531 184.1569,-497.2817"/>
</g>
<!-- Node3 -->
<g id="node3" class="node">
<title>Node3</title>
<g id="a_node3"><a xlink:href="../../d0/d3e/classMyMonDraw.html#aab8224c58b9e784b1fad4e9b09fe70e6" target="_top" xlink:title="MyMonDraw::Draw">
<polygon fill="none" stroke="#000000" points="194,-284.5 194,-304.5 305,-304.5 305,-284.5 194,-284.5"/>
<text text-anchor="middle" x="249.5" y="-291.5" font-family="FreeSans" font-size="10.00" fill="#000000">MyMonDraw::Draw</text>
</a>
</g>
</g>
<!-- Node1&#45;&gt;Node3 -->
<g id="edge2" class="edge">
<title>Node1&#45;&gt;Node3</title>
<path fill="none" stroke="#191970" d="M83.3329,-188.5913C115.0642,-208.8156 186.65,-254.4418 224.6746,-278.6772"/>
<polygon fill="#191970" stroke="#191970" points="223.2601,-281.9261 233.5741,-284.3494 227.0224,-276.0231 223.2601,-281.9261"/>
</g>
<!-- Node9 -->
<g id="node9" class="node">
<title>Node9</title>
<g id="a_node9"><a xlink:href="../../d9/d62/classOnlMonClient.html#a41b085d450ca2930d86763afa28cc935" target="_top" xlink:title="OnlMonClient::instance">
<polygon fill="none" stroke="#000000" points="774.5,-421.5 774.5,-441.5 908.5,-441.5 908.5,-421.5 774.5,-421.5"/>
<text text-anchor="middle" x="841.5" y="-428.5" font-family="FreeSans" font-size="10.00" fill="#000000">OnlMonClient::instance</text>
</a>
</g>
</g>
<!-- Node1&#45;&gt;Node9 -->
<g id="edge58" class="edge">
<title>Node1&#45;&gt;Node9</title>
<path fill="none" stroke="#191970" d="M73.0235,-188.6139C86.7651,-213.0111 124.741,-275.9256 171,-314.5 244.885,-376.1111 272.4376,-382.9831 364,-412.5 499.4228,-456.1561 667.7014,-449.8467 764.0361,-440.9253"/>
<polygon fill="#191970" stroke="#191970" points="764.6554,-444.382 774.275,-439.942 763.9861,-437.4141 764.6554,-444.382"/>
</g>
<!-- Node16 -->
<g id="node16" class="node">
<title>Node16</title>
<g id="a_node16"><a xlink:href="../../d9/d62/classOnlMonClient.html#a1de0509fec50448ce05cfbe1e7efe18b" target="_top" xlink:title="OnlMonClient::RunNumber">
<polygon fill="none" stroke="#000000" points="565.5,-148.5 565.5,-168.5 716.5,-168.5 716.5,-148.5 565.5,-148.5"/>
<text text-anchor="middle" x="641" y="-155.5" font-family="FreeSans" font-size="10.00" fill="#000000">OnlMonClient::RunNumber</text>
</a>
</g>
</g>
<!-- Node1&#45;&gt;Node16 -->
<g id="edge59" class="edge">
<title>Node1&#45;&gt;Node16</title>
<path fill="none" stroke="#191970" d="M135.2569,-176.1371C239.8423,-172.4898 440.4746,-165.493 555.098,-161.4957"/>
<polygon fill="#191970" stroke="#191970" points="555.3644,-164.9886 565.2363,-161.1422 555.1204,-157.9929 555.3644,-164.9886"/>
</g>
<!-- Node36 -->
<g id="node36" class="node">
<title>Node36</title>
<g id="a_node36"><a xlink:href="../../d9/d62/classOnlMonClient.html#a3291953b3d22f8060d46b54a74687a1a" target="_top" xlink:title="OnlMonClient::htmlRegisterPage">
<polygon fill="none" stroke="#000000" points="551,-70.5 551,-90.5 731,-90.5 731,-70.5 551,-70.5"/>
<text text-anchor="middle" x="641" y="-77.5" font-family="FreeSans" font-size="10.00" fill="#000000">OnlMonClient::htmlRegisterPage</text>
</a>
</g>
</g>
<!-- Node1&#45;&gt;Node36 -->
<g id="edge45" class="edge">
<title>Node1&#45;&gt;Node36</title>
<path fill="none" stroke="#191970" d="M94.8211,-168.3741C115.4857,-161.0634 144.6983,-151.4656 171,-145.5 297.08,-116.9035 445.2199,-98.9398 540.9834,-89.3197"/>
<polygon fill="#191970" stroke="#191970" points="541.3454,-92.801 550.9504,-88.3296 540.6533,-85.8353 541.3454,-92.801"/>
</g>
<!-- Node47 -->
<g id="node47" class="node">
<title>Node47</title>
<g id="a_node47"><a xlink:href="../../d9/d62/classOnlMonClient.html#aae734377048fb1e1dcd15772e2812e5e" target="_top" xlink:title="OnlMonClient::SaveLogFile">
<polygon fill="none" stroke="#000000" points="364,-129.5 364,-149.5 515,-149.5 515,-129.5 364,-129.5"/>
<text text-anchor="middle" x="439.5" y="-136.5" font-family="FreeSans" font-size="10.00" fill="#000000">OnlMonClient::SaveLogFile</text>
</a>
</g>
</g>
<!-- Node1&#45;&gt;Node47 -->
<g id="edge60" class="edge">
<title>Node1&#45;&gt;Node47</title>
<path fill="none" stroke="#191970" d="M135.0935,-168.9448C147.0452,-167.373 159.3801,-165.8263 171,-164.5 232.0678,-157.5299 301.1173,-151.1337 353.9003,-146.5559"/>
<polygon fill="#191970" stroke="#191970" points="354.2343,-150.0402 363.8965,-145.6938 353.6327,-143.0661 354.2343,-150.0402"/>
</g>
<!-- Node48 -->
<g id="node48" class="node">
<title>Node48</title>
<g id="a_node48"><a xlink:href="../../d9/d52/HoughTransformSeeder_8cpp.html#a1f2cfb6e3644c66f2bfe3c54f699a72a" target="_top" xlink:title="to_string">
<polygon fill="none" stroke="#000000" points="219.5,-51.5 219.5,-71.5 279.5,-71.5 279.5,-51.5 219.5,-51.5"/>
<text text-anchor="middle" x="249.5" y="-58.5" font-family="FreeSans" font-size="10.00" fill="#000000">to_string</text>
</a>
</g>
</g>
<!-- Node1&#45;&gt;Node48 -->
<g id="edge64" class="edge">
<title>Node1&#45;&gt;Node48</title>
<path fill="none" stroke="#191970" d="M76.1502,-168.4065C92.7234,-149.6673 130.8843,-109.3347 171,-86.5 182.7699,-79.8004 196.5723,-74.6366 209.2935,-70.7891"/>
<polygon fill="#191970" stroke="#191970" points="210.537,-74.0747 219.2044,-67.9815 208.629,-67.3397 210.537,-74.0747"/>
</g>
<!-- Node4 -->
<g id="node4" class="node">
<title>Node4</title>
<g id="a_node4"><a xlink:href="../../d0/d3e/classMyMonDraw.html#a7f5c24c61c7d7fa5ecf70121c122690f" target="_top" xlink:title="MyMonDraw::DrawFirst">
<polygon fill="none" stroke="#000000" points="373.5,-304.5 373.5,-324.5 505.5,-324.5 505.5,-304.5 373.5,-304.5"/>
<text text-anchor="middle" x="439.5" y="-311.5" font-family="FreeSans" font-size="10.00" fill="#000000">MyMonDraw::DrawFirst</text>
</a>
</g>
</g>
<!-- Node3&#45;&gt;Node4 -->
<g id="edge3" class="edge">
<title>Node3&#45;&gt;Node4</title>
<path fill="none" stroke="#191970" d="M305.2225,-300.3655C323.4053,-302.2795 343.9181,-304.4387 363.3369,-306.4828"/>
<polygon fill="#191970" stroke="#191970" points="363.0623,-309.9732 373.3738,-307.5393 363.7952,-303.0116 363.0623,-309.9732"/>
</g>
<!-- Node17 -->
<g id="node17" class="node">
<title>Node17</title>
<g id="a_node17"><a xlink:href="../../d0/d3e/classMyMonDraw.html#a35ce1ba03fe6efa3ec41dc0c74e1d634" target="_top" xlink:title="MyMonDraw::DrawHistory">
<polygon fill="none" stroke="#000000" points="366,-382.5 366,-402.5 513,-402.5 513,-382.5 366,-382.5"/>
<text text-anchor="middle" x="439.5" y="-389.5" font-family="FreeSans" font-size="10.00" fill="#000000">MyMonDraw::DrawHistory</text>
</a>
</g>
</g>
<!-- Node3&#45;&gt;Node17 -->
<g id="edge18" class="edge">
<title>Node3&#45;&gt;Node17</title>
<path fill="none" stroke="#191970" d="M269.1177,-304.6186C302.7692,-321.9757 371.6406,-357.4988 410.7318,-377.6616"/>
<polygon fill="#191970" stroke="#191970" points="409.4971,-380.9629 419.989,-382.4364 412.706,-374.7417 409.4971,-380.9629"/>
</g>
<!-- Node35 -->
<g id="node35" class="node">
<title>Node35</title>
<g id="a_node35"><a xlink:href="../../d0/d3e/classMyMonDraw.html#ae22dc52f5e34f5110147793407538b3c" target="_top" xlink:title="MyMonDraw::DrawSecond">
<polygon fill="none" stroke="#000000" points="365.5,-265.5 365.5,-285.5 513.5,-285.5 513.5,-265.5 365.5,-265.5"/>
<text text-anchor="middle" x="439.5" y="-272.5" font-family="FreeSans" font-size="10.00" fill="#000000">MyMonDraw::DrawSecond</text>
</a>
</g>
</g>
<!-- Node3&#45;&gt;Node35 -->
<g id="edge38" class="edge">
<title>Node3&#45;&gt;Node35</title>
<path fill="none" stroke="#191970" d="M305.2225,-288.9278C320.8192,-287.3681 338.1303,-285.637 354.9948,-283.9505"/>
<polygon fill="#191970" stroke="#191970" points="355.8162,-287.3859 365.4183,-282.9082 355.1196,-280.4207 355.8162,-287.3859"/>
</g>
<!-- Node5 -->
<g id="node5" class="node">
<title>Node5</title>
<g id="a_node5"><a xlink:href="../../d3/dd1/classOnlMonDraw.html#a61b578f182f943a56c78384473875bef" target="_top" xlink:title="OnlMonDraw::DrawDeadServer">
<polygon fill="none" stroke="#000000" points="554,-226.5 554,-246.5 728,-246.5 728,-226.5 554,-226.5"/>
<text text-anchor="middle" x="641" y="-233.5" font-family="FreeSans" font-size="10.00" fill="#000000">OnlMonDraw::DrawDeadServer</text>
</a>
</g>
</g>
<!-- Node4&#45;&gt;Node5 -->
<g id="edge4" class="edge">
<title>Node4&#45;&gt;Node5</title>
<path fill="none" stroke="#191970" d="M485.4348,-304.4346C495.2945,-301.8603 505.578,-298.8566 515,-295.5 549.9046,-283.0652 588.2209,-264.3476 613.3268,-251.3418"/>
<polygon fill="#191970" stroke="#191970" points="615.0309,-254.4004 622.2674,-246.6619 611.7846,-248.1986 615.0309,-254.4004"/>
</g>
<!-- Node7 -->
<g id="node7" class="node">
<title>Node7</title>
<g id="a_node7"><a xlink:href="../../d9/d62/classOnlMonClient.html#a623f544f0d5fcd9e034057d75b83c70f" target="_top" xlink:title="OnlMonClient::EventTime">
<polygon fill="none" stroke="#000000" points="568.5,-304.5 568.5,-324.5 713.5,-324.5 713.5,-304.5 568.5,-304.5"/>
<text text-anchor="middle" x="641" y="-311.5" font-family="FreeSans" font-size="10.00" fill="#000000">OnlMonClient::EventTime</text>
</a>
</g>
</g>
<!-- Node4&#45;&gt;Node7 -->
<g id="edge6" class="edge">
<title>Node4&#45;&gt;Node7</title>
<path fill="none" stroke="#191970" d="M505.7577,-314.5C522.538,-314.5 540.77,-314.5 558.2543,-314.5"/>
<polygon fill="#191970" stroke="#191970" points="558.4458,-318.0001 568.4457,-314.5 558.4457,-311.0001 558.4458,-318.0001"/>
</g>
<!-- Node8 -->
<g id="node8" class="node">
<title>Node8</title>
<g id="a_node8"><a xlink:href="../../d9/d62/classOnlMonClient.html#a7205fa0929ef0f60c4ebed20be56cd6b" target="_top" xlink:title="OnlMonClient::getHisto">
<polygon fill="none" stroke="#000000" points="775,-187.5 775,-207.5 908,-207.5 908,-187.5 775,-187.5"/>
<text text-anchor="middle" x="841.5" y="-194.5" font-family="FreeSans" font-size="10.00" fill="#000000">OnlMonClient::getHisto</text>
</a>
</g>
</g>
<!-- Node4&#45;&gt;Node8 -->
<g id="edge7" class="edge">
<title>Node4&#45;&gt;Node8</title>
<path fill="none" stroke="#191970" d="M466.0643,-324.6339C519.339,-343.2314 641.7605,-377.1716 731,-334.5 782.4923,-309.878 817.6697,-248.2526 832.9274,-216.7292"/>
<polygon fill="#191970" stroke="#191970" points="836.1135,-218.1784 837.1768,-207.6371 829.7719,-215.2146 836.1135,-218.1784"/>
</g>
<!-- Node4&#45;&gt;Node9 -->
<g id="edge8" class="edge">
<title>Node4&#45;&gt;Node9</title>
<path fill="none" stroke="#191970" d="M453.6847,-324.516C469.2828,-335.7696 494.8112,-354.904 515,-373.5 532.3504,-389.4815 529.7117,-402.3386 551,-412.5 617.7246,-444.3493 703.0507,-446.0033 763.9313,-441.5712"/>
<polygon fill="#191970" stroke="#191970" points="764.5548,-445.0326 774.2435,-440.7456 763.9961,-438.0549 764.5548,-445.0326"/>
</g>
<!-- Node13 -->
<g id="node13" class="node">
<title>Node13</title>
<g id="a_node13"><a xlink:href="../../d0/d3e/classMyMonDraw.html#abc143ccf560bf5e2fca95fd00fa3d8a2" target="_top" xlink:title="MyMonDraw::MakeCanvas">
<polygon fill="none" stroke="#000000" points="567,-382.5 567,-402.5 715,-402.5 715,-382.5 567,-382.5"/>
<text text-anchor="middle" x="641" y="-389.5" font-family="FreeSans" font-size="10.00" fill="#000000">MyMonDraw::MakeCanvas</text>
</a>
</g>
</g>
<!-- Node4&#45;&gt;Node13 -->
<g id="edge12" class="edge">
<title>Node4&#45;&gt;Node13</title>
<path fill="none" stroke="#191970" d="M458.0097,-324.5177C479.7893,-336.0159 517.2667,-354.9052 551,-367.5 563.1075,-372.0205 576.3989,-376.1493 588.9637,-379.6922"/>
<polygon fill="#191970" stroke="#191970" points="588.2784,-383.1334 598.8481,-382.4041 590.1306,-376.3829 588.2784,-383.1334"/>
</g>
<!-- Node4&#45;&gt;Node16 -->
<g id="edge16" class="edge">
<title>Node4&#45;&gt;Node16</title>
<path fill="none" stroke="#191970" d="M500.4104,-304.4643C505.6628,-302.0708 510.6307,-299.1243 515,-295.5 544.3869,-271.124 526.07,-246.4184 551,-217.5 567.2496,-198.6508 590.9554,-183.4435 609.9588,-173.1913"/>
<polygon fill="#191970" stroke="#191970" points="611.6008,-176.2825 618.8567,-168.5622 608.3701,-170.0725 611.6008,-176.2825"/>
</g>
<!-- Node6 -->
<g id="node6" class="node">
<title>Node6</title>
<g id="a_node6"><a xlink:href="../../d3/dd1/classOnlMonDraw.html#abc0395305d87829b6ac214c7a8ee12f4" target="_top" xlink:title="OnlMonDraw::Name">
<polygon fill="none" stroke="#000000" points="783,-109.5 783,-129.5 900,-129.5 900,-109.5 783,-109.5"/>
<text text-anchor="middle" x="841.5" y="-116.5" font-family="FreeSans" font-size="10.00" fill="#000000">OnlMonDraw::Name</text>
</a>
</g>
</g>
<!-- Node5&#45;&gt;Node6 -->
<g id="edge5" class="edge">
<title>Node5&#45;&gt;Node6</title>
<path fill="none" stroke="#191970" d="M658.4423,-226.3217C693.7839,-205.6985 774.003,-158.8873 815.521,-134.6598"/>
<polygon fill="#191970" stroke="#191970" points="817.3678,-137.6345 824.2408,-129.5715 813.8397,-131.5886 817.3678,-137.6345"/>
</g>
<!-- Node10 -->
<g id="node10" class="node">
<title>Node10</title>
<g id="a_node10"><a xlink:href="../../d9/d62/classOnlMonClient.html#ad32f0e30768022d9ceb097a7b5b6864c" target="_top" xlink:title="OnlMonClient::OnlMonClient">
<polygon fill="none" stroke="#000000" points="960.5,-369.5 960.5,-389.5 1119.5,-389.5 1119.5,-369.5 960.5,-369.5"/>
<text text-anchor="middle" x="1040" y="-376.5" font-family="FreeSans" font-size="10.00" fill="#000000">OnlMonClient::OnlMonClient</text>
</a>
</g>
</g>
<!-- Node9&#45;&gt;Node10 -->
<g id="edge9" class="edge">
<title>Node9&#45;&gt;Node10</title>
<path fill="none" stroke="#191970" d="M883.8559,-421.4548C894.4117,-418.744 905.665,-415.6758 916,-412.5 932.2609,-407.5033 935.675,-404.283 952,-399.5 961.262,-396.7864 971.1621,-394.2207 980.8568,-391.8888"/>
<polygon fill="#191970" stroke="#191970" points="981.9124,-395.2363 990.85,-389.547 980.3152,-388.4209 981.9124,-395.2363"/>
</g>
<!-- Node11 -->
<g id="node11" class="node">
<title>Node11</title>
<g id="a_node11"><a xlink:href="../../d9/d62/classOnlMonClient.html#a2fcc925a8b759a2680067cf0879cdfad" target="_top" xlink:title="OnlMonClient::SetStyleTo\lDefault">
<polygon fill="none" stroke="#000000" points="1174.5,-370.5 1174.5,-402.5 1317.5,-402.5 1317.5,-370.5 1174.5,-370.5"/>
<text text-anchor="start" x="1182.5" y="-389.5" font-family="FreeSans" font-size="10.00" fill="#000000">OnlMonClient::SetStyleTo</text>
<text text-anchor="middle" x="1246" y="-377.5" font-family="FreeSans" font-size="10.00" fill="#000000">Default</text>
</a>
</g>
</g>
<!-- Node10&#45;&gt;Node11 -->
<g id="edge10" class="edge">
<title>Node10&#45;&gt;Node11</title>
<path fill="none" stroke="#191970" d="M1119.645,-382.2064C1134.2715,-382.7034 1149.5613,-383.223 1164.2485,-383.722"/>
<polygon fill="#191970" stroke="#191970" points="1164.1916,-387.222 1174.3047,-384.0638 1164.4294,-380.2261 1164.1916,-387.222"/>
</g>
<!-- Node12 -->
<g id="node12" class="node">
<title>Node12</title>
<g id="a_node12"><a xlink:href="../../d9/d62/classOnlMonClient.html#a89a73339353f94678c7519d8c4a75fed" target="_top" xlink:title="OnlMonClient::InitAll">
<polygon fill="none" stroke="#000000" points="1186.5,-331.5 1186.5,-351.5 1305.5,-351.5 1305.5,-331.5 1186.5,-331.5"/>
<text text-anchor="middle" x="1246" y="-338.5" font-family="FreeSans" font-size="10.00" fill="#000000">OnlMonClient::InitAll</text>
</a>
</g>
</g>
<!-- Node10&#45;&gt;Node12 -->
<g id="edge11" class="edge">
<title>Node10&#45;&gt;Node12</title>
<path fill="none" stroke="#191970" d="M1094.3935,-369.4662C1121.1471,-364.5311 1153.5774,-358.5488 1181.5669,-353.3857"/>
<polygon fill="#191970" stroke="#191970" points="1182.46,-356.7801 1191.6591,-351.524 1181.1901,-349.8962 1182.46,-356.7801"/>
</g>
<!-- Node13&#45;&gt;Node9 -->
<g id="edge15" class="edge">
<title>Node13&#45;&gt;Node9</title>
<path fill="none" stroke="#191970" d="M692.6337,-402.5435C719.295,-407.7294 752.0093,-414.0928 779.9735,-419.5323"/>
<polygon fill="#191970" stroke="#191970" points="779.5569,-423.0167 790.0412,-421.4906 780.8935,-416.1455 779.5569,-423.0167"/>
</g>
<!-- Node14 -->
<g id="node14" class="node">
<title>Node14</title>
<g id="a_node14"><a xlink:href="../../d9/d62/classOnlMonClient.html#ad062bcad2b3f481942ecb694177fa254" target="_top" xlink:title="OnlMonClient::GetDisplay\lSizeX">
<polygon fill="none" stroke="#000000" points="768.5,-319.5 768.5,-351.5 914.5,-351.5 914.5,-319.5 768.5,-319.5"/>
<text text-anchor="start" x="776.5" y="-338.5" font-family="FreeSans" font-size="10.00" fill="#000000">OnlMonClient::GetDisplay</text>
<text text-anchor="middle" x="841.5" y="-326.5" font-family="FreeSans" font-size="10.00" fill="#000000">SizeX</text>
</a>
</g>
</g>
<!-- Node13&#45;&gt;Node14 -->
<g id="edge13" class="edge">
<title>Node13&#45;&gt;Node14</title>
<path fill="none" stroke="#191970" d="M677.3716,-382.4941C693.7694,-377.958 713.3708,-372.501 731,-367.5 745.8159,-363.2971 761.7317,-358.7228 776.7407,-354.3823"/>
<polygon fill="#191970" stroke="#191970" points="777.8203,-357.7135 786.4521,-351.5699 775.8731,-350.9897 777.8203,-357.7135"/>
</g>
<!-- Node15 -->
<g id="node15" class="node">
<title>Node15</title>
<g id="a_node15"><a xlink:href="../../d9/d62/classOnlMonClient.html#aab535df3d4cfac6c72a654cf188e7c83" target="_top" xlink:title="OnlMonClient::GetDisplay\lSizeY">
<polygon fill="none" stroke="#000000" points="768.5,-370.5 768.5,-402.5 914.5,-402.5 914.5,-370.5 768.5,-370.5"/>
<text text-anchor="start" x="776.5" y="-389.5" font-family="FreeSans" font-size="10.00" fill="#000000">OnlMonClient::GetDisplay</text>
<text text-anchor="middle" x="841.5" y="-377.5" font-family="FreeSans" font-size="10.00" fill="#000000">SizeY</text>
</a>
</g>
</g>
<!-- Node13&#45;&gt;Node15 -->
<g id="edge14" class="edge">
<title>Node13&#45;&gt;Node15</title>
<path fill="none" stroke="#191970" d="M715.0891,-390.2829C729.0925,-389.8638 743.8281,-389.4229 758.095,-388.9959"/>
<polygon fill="#191970" stroke="#191970" points="758.4928,-392.4857 768.3836,-388.688 758.2834,-385.4888 758.4928,-392.4857"/>
</g>
<!-- Node16&#45;&gt;Node8 -->
<g id="edge17" class="edge">
<title>Node16&#45;&gt;Node8</title>
<path fill="none" stroke="#191970" d="M692.6337,-168.5435C719.295,-173.7294 752.0093,-180.0928 779.9735,-185.5323"/>
<polygon fill="#191970" stroke="#191970" points="779.5569,-189.0167 790.0412,-187.4906 780.8935,-182.1455 779.5569,-189.0167"/>
</g>
<!-- Node17&#45;&gt;Node13 -->
<g id="edge37" class="edge">
<title>Node17&#45;&gt;Node13</title>
<path fill="none" stroke="#191970" d="M513.1015,-392.5C527.2142,-392.5 542.095,-392.5 556.5188,-392.5"/>
<polygon fill="#191970" stroke="#191970" points="556.9233,-396.0001 566.9233,-392.5 556.9233,-389.0001 556.9233,-396.0001"/>
</g>
<!-- Node18 -->
<g id="node18" class="node">
<title>Node18</title>
<g id="a_node18"><a xlink:href="../../da/d99/classOnlMonDB.html#a0cc81af453fca5dcaded16aa24adc744" target="_top" xlink:title="OnlMonDB::GetVar">
<polygon fill="none" stroke="#000000" points="585.5,-563.5 585.5,-583.5 696.5,-583.5 696.5,-563.5 585.5,-563.5"/>
<text text-anchor="middle" x="641" y="-570.5" font-family="FreeSans" font-size="10.00" fill="#000000">OnlMonDB::GetVar</text>
</a>
</g>
</g>
<!-- Node17&#45;&gt;Node18 -->
<g id="edge19" class="edge">
<title>Node17&#45;&gt;Node18</title>
<path fill="none" stroke="#191970" d="M450.9109,-402.7499C484.0912,-432.5546 580.7936,-519.4188 622.022,-556.4528"/>
<polygon fill="#191970" stroke="#191970" points="619.936,-559.2837 629.7143,-563.3625 624.6138,-554.0761 619.936,-559.2837"/>
</g>
<!-- Node19 -->
<g id="node19" class="node">
<title>Node19</title>
<g id="a_node19"><a xlink:href="../../d1/d2f/classOnlMonDBodbc.html#a112cfd64074411b006813c509e13ad04" target="_top" xlink:title="OnlMonDBodbc::GetVar">
<polygon fill="none" stroke="#000000" points="773.5,-595.5 773.5,-615.5 909.5,-615.5 909.5,-595.5 773.5,-595.5"/>
<text text-anchor="middle" x="841.5" y="-602.5" font-family="FreeSans" font-size="10.00" fill="#000000">OnlMonDBodbc::GetVar</text>
</a>
</g>
</g>
<!-- Node18&#45;&gt;Node19 -->
<g id="edge20" class="edge">
<title>Node18&#45;&gt;Node19</title>
<path fill="none" stroke="#191970" d="M696.5842,-582.3713C718.8935,-585.9319 744.9123,-590.0845 768.6976,-593.8807"/>
<polygon fill="#191970" stroke="#191970" points="768.3106,-597.3631 778.7373,-595.483 769.4139,-590.4506 768.3106,-597.3631"/>
</g>
<!-- Node20 -->
<g id="node20" class="node">
<title>Node20</title>
<g id="a_node20"><a xlink:href="../../d1/d2f/classOnlMonDBodbc.html#ac47d7300bf0fede31d886f170308d8fc" target="_top" xlink:title="OnlMonDBodbc::GetConnection">
<polygon fill="none" stroke="#000000" points="952,-498.5 952,-518.5 1128,-518.5 1128,-498.5 952,-498.5"/>
<text text-anchor="middle" x="1040" y="-505.5" font-family="FreeSans" font-size="10.00" fill="#000000">OnlMonDBodbc::GetConnection</text>
</a>
</g>
</g>
<!-- Node19&#45;&gt;Node20 -->
<g id="edge21" class="edge">
<title>Node19&#45;&gt;Node20</title>
<path fill="none" stroke="#191970" d="M852.8443,-595.3195C871.9125,-578.7599 912.2188,-546.0764 952,-528.5 958.1623,-525.7773 964.7372,-523.405 971.4123,-521.3422"/>
<polygon fill="#191970" stroke="#191970" points="972.5744,-524.6503 981.2274,-518.5367 970.6505,-517.9199 972.5744,-524.6503"/>
</g>
<!-- Node22 -->
<g id="node22" class="node">
<title>Node22</title>
<g id="a_node22"><a xlink:href="../../db/dad/classodbc_1_1SQLException.html#a312d6e981c5a59d9ef4f605ae12d1714" target="_top" xlink:title="odbc::SQLException\l::getMessage">
<polygon fill="none" stroke="#000000" points="1187.5,-434.5 1187.5,-466.5 1304.5,-466.5 1304.5,-434.5 1187.5,-434.5"/>
<text text-anchor="start" x="1195.5" y="-453.5" font-family="FreeSans" font-size="10.00" fill="#000000">odbc::SQLException</text>
<text text-anchor="middle" x="1246" y="-441.5" font-family="FreeSans" font-size="10.00" fill="#000000">::getMessage</text>
</a>
</g>
</g>
<!-- Node19&#45;&gt;Node22 -->
<g id="edge28" class="edge">
<title>Node19&#45;&gt;Node22</title>
<path fill="none" stroke="#191970" d="M847.7104,-595.2491C862.4713,-571.9064 902.1762,-514.8577 952,-489.5 990.1836,-470.0666 1102.9702,-459.4181 1177.226,-454.3454"/>
<polygon fill="#191970" stroke="#191970" points="1177.6907,-457.8223 1187.4363,-453.6663 1177.2261,-450.8377 1177.6907,-457.8223"/>
</g>
<!-- Node24 -->
<g id="node24" class="node">
<title>Node24</title>
<g id="a_node24"><a xlink:href="../../df/d98/classodbc_1_1Connection.html#a5f7d42a771ea7d1e25b564ac438d5f35" target="_top" xlink:title="odbc::Connection::create\lStatement">
<polygon fill="none" stroke="#000000" points="968.5,-408.5 968.5,-440.5 1111.5,-440.5 1111.5,-408.5 968.5,-408.5"/>
<text text-anchor="start" x="976.5" y="-427.5" font-family="FreeSans" font-size="10.00" fill="#000000">odbc::Connection::create</text>
<text text-anchor="middle" x="1040" y="-415.5" font-family="FreeSans" font-size="10.00" fill="#000000">Statement</text>
</a>
</g>
</g>
<!-- Node19&#45;&gt;Node24 -->
<g id="edge25" class="edge">
<title>Node19&#45;&gt;Node24</title>
<path fill="none" stroke="#191970" d="M846.1808,-595.496C859.1527,-568.8244 898.1883,-495.339 952,-455.5 957.423,-451.4851 963.4112,-447.956 969.6371,-444.8609"/>
<polygon fill="#191970" stroke="#191970" points="971.251,-447.9716 978.8906,-440.6308 968.3406,-441.6052 971.251,-447.9716"/>
</g>
<!-- Node25 -->
<g id="node25" class="node">
<title>Node25</title>
<g id="a_node25"><a xlink:href="../../d3/d52/classodbc_1_1Timestamp.html#a0c343aa8eeb9e2557513a2f62ffa0444" target="_top" xlink:title="odbc::Timestamp::toString">
<polygon fill="none" stroke="#000000" points="964.5,-822.5 964.5,-842.5 1115.5,-842.5 1115.5,-822.5 964.5,-822.5"/>
<text text-anchor="middle" x="1040" y="-829.5" font-family="FreeSans" font-size="10.00" fill="#000000">odbc::Timestamp::toString</text>
</a>
</g>
</g>
<!-- Node19&#45;&gt;Node25 -->
<g id="edge26" class="edge">
<title>Node19&#45;&gt;Node25</title>
<path fill="none" stroke="#191970" d="M843.6996,-615.7158C851.6007,-649.8025 881.8826,-760.4666 952,-813.5 954.0724,-815.0675 956.2468,-816.5115 958.5012,-817.8415"/>
<polygon fill="#191970" stroke="#191970" points="957.0444,-821.027 967.5465,-822.426 960.209,-814.7832 957.0444,-821.027"/>
</g>
<!-- Node26 -->
<g id="node26" class="node">
<title>Node26</title>
<g id="a_node26"><a xlink:href="../../db/df0/classodbc_1_1Statement.html#a75fe7e274081ba449d4ed4239515dec8" target="_top" xlink:title="odbc::Statement::execute\lQuery">
<polygon fill="none" stroke="#000000" points="966.5,-771.5 966.5,-803.5 1113.5,-803.5 1113.5,-771.5 966.5,-771.5"/>
<text text-anchor="start" x="974.5" y="-790.5" font-family="FreeSans" font-size="10.00" fill="#000000">odbc::Statement::execute</text>
<text text-anchor="middle" x="1040" y="-778.5" font-family="FreeSans" font-size="10.00" fill="#000000">Query</text>
</a>
</g>
</g>
<!-- Node19&#45;&gt;Node26 -->
<g id="edge27" class="edge">
<title>Node19&#45;&gt;Node26</title>
<path fill="none" stroke="#191970" d="M845.7343,-615.7572C857.8504,-643.8098 895.4603,-722.3782 952,-762.5 954.0967,-763.9879 956.2801,-765.3875 958.5308,-766.7042"/>
<polygon fill="#191970" stroke="#191970" points="957.0196,-769.8634 967.5051,-771.3821 960.2553,-763.6561 957.0196,-769.8634"/>
</g>
<!-- Node27 -->
<g id="node27" class="node">
<title>Node27</title>
<g id="a_node27"><a xlink:href="../../d6/dba/classodbc_1_1ResultSet.html#af81f9d661a658b7330d430c582056a6e" target="_top" xlink:title="odbc::ResultSet::next">
<polygon fill="none" stroke="#000000" points="977.5,-732.5 977.5,-752.5 1102.5,-752.5 1102.5,-732.5 977.5,-732.5"/>
<text text-anchor="middle" x="1040" y="-739.5" font-family="FreeSans" font-size="10.00" fill="#000000">odbc::ResultSet::next</text>
</a>
</g>
</g>
<!-- Node19&#45;&gt;Node27 -->
<g id="edge29" class="edge">
<title>Node19&#45;&gt;Node27</title>
<path fill="none" stroke="#191970" d="M847.8129,-615.6491C862.7893,-638.8085 902.9161,-695.6937 952,-723.5 956.8447,-726.2446 962.0452,-728.5932 967.4087,-730.603"/>
<polygon fill="#191970" stroke="#191970" points="966.6035,-734.0239 977.1972,-733.8669 968.8178,-727.3833 966.6035,-734.0239"/>
</g>
<!-- Node28 -->
<g id="node28" class="node">
<title>Node28</title>
<g id="a_node28"><a xlink:href="../../d6/dba/classodbc_1_1ResultSet.html#a0cbb40c2cada9af651ca727c0bef4f48" target="_top" xlink:title="odbc::ResultSet::getInt">
<polygon fill="none" stroke="#000000" points="974,-693.5 974,-713.5 1106,-713.5 1106,-693.5 974,-693.5"/>
<text text-anchor="middle" x="1040" y="-700.5" font-family="FreeSans" font-size="10.00" fill="#000000">odbc::ResultSet::getInt</text>
</a>
</g>
</g>
<!-- Node19&#45;&gt;Node28 -->
<g id="edge30" class="edge">
<title>Node19&#45;&gt;Node28</title>
<path fill="none" stroke="#191970" d="M852.4664,-615.7339C871.3004,-632.7259 911.6736,-666.6526 952,-684.5 957.0917,-686.7535 962.4705,-688.7477 967.9578,-690.5112"/>
<polygon fill="#191970" stroke="#191970" points="967.3323,-693.9755 977.9137,-693.4425 969.3094,-687.2605 967.3323,-693.9755"/>
</g>
<!-- Node29 -->
<g id="node29" class="node">
<title>Node29</title>
<g id="a_node29"><a xlink:href="../../d6/dba/classodbc_1_1ResultSet.html#a811cec7d1949a65cad0b718b1deb95b9" target="_top" xlink:title="odbc::ResultSet::getFloat">
<polygon fill="none" stroke="#000000" points="968,-654.5 968,-674.5 1112,-674.5 1112,-654.5 968,-654.5"/>
<text text-anchor="middle" x="1040" y="-661.5" font-family="FreeSans" font-size="10.00" fill="#000000">odbc::ResultSet::getFloat</text>
</a>
</g>
</g>
<!-- Node19&#45;&gt;Node29 -->
<g id="edge31" class="edge">
<title>Node19&#45;&gt;Node29</title>
<path fill="none" stroke="#191970" d="M866.2001,-615.526C888.3896,-624.271 922,-636.874 952,-645.5 960.2945,-647.885 969.1051,-650.125 977.8232,-652.1718"/>
<polygon fill="#191970" stroke="#191970" points="977.0667,-655.5891 987.5944,-654.3979 978.6217,-648.7639 977.0667,-655.5891"/>
</g>
<!-- Node30 -->
<g id="node30" class="node">
<title>Node30</title>
<g id="a_node30"><a xlink:href="../../d6/dba/classodbc_1_1ResultSet.html#adf30314e31d43deb317581d25062ba31" target="_top" xlink:title="odbc::ResultSet::wasNull">
<polygon fill="none" stroke="#000000" points="969.5,-615.5 969.5,-635.5 1110.5,-635.5 1110.5,-615.5 969.5,-615.5"/>
<text text-anchor="middle" x="1040" y="-622.5" font-family="FreeSans" font-size="10.00" fill="#000000">odbc::ResultSet::wasNull</text>
</a>
</g>
</g>
<!-- Node19&#45;&gt;Node30 -->
<g id="edge32" class="edge">
<title>Node19&#45;&gt;Node30</title>
<path fill="none" stroke="#191970" d="M909.5347,-612.3549C925.5205,-613.9655 942.7091,-615.6974 959.1941,-617.3583"/>
<polygon fill="#191970" stroke="#191970" points="959.0498,-620.8614 969.3503,-618.3816 959.7516,-613.8967 959.0498,-620.8614"/>
</g>
<!-- Node31 -->
<g id="node31" class="node">
<title>Node31</title>
<g id="a_node31"><a xlink:href="../../d6/dba/classodbc_1_1ResultSet.html#ae563a80e5b68cd6a29380783c5ddf4fb" target="_top" xlink:title="odbc::ResultSet::getTimestamp">
<polygon fill="none" stroke="#000000" points="952.5,-576.5 952.5,-596.5 1127.5,-596.5 1127.5,-576.5 952.5,-576.5"/>
<text text-anchor="middle" x="1040" y="-583.5" font-family="FreeSans" font-size="10.00" fill="#000000">odbc::ResultSet::getTimestamp</text>
</a>
</g>
</g>
<!-- Node19&#45;&gt;Node31 -->
<g id="edge33" class="edge">
<title>Node19&#45;&gt;Node31</title>
<path fill="none" stroke="#191970" d="M909.5347,-598.9879C920.1036,-597.9762 931.1983,-596.9143 942.2678,-595.8547"/>
<polygon fill="#191970" stroke="#191970" points="942.7898,-599.3208 952.4108,-594.8839 942.1228,-592.3527 942.7898,-599.3208"/>
</g>
<!-- Node32 -->
<g id="node32" class="node">
<title>Node32</title>
<g id="a_node32"><a xlink:href="../../d3/d52/classodbc_1_1Timestamp.html#ac6517fc6136e4c970b2bb9da9adde560" target="_top" xlink:title="odbc::Timestamp::getTime">
<polygon fill="none" stroke="#000000" points="964,-537.5 964,-557.5 1116,-557.5 1116,-537.5 964,-537.5"/>
<text text-anchor="middle" x="1040" y="-544.5" font-family="FreeSans" font-size="10.00" fill="#000000">odbc::Timestamp::getTime</text>
</a>
</g>
</g>
<!-- Node19&#45;&gt;Node32 -->
<g id="edge34" class="edge">
<title>Node19&#45;&gt;Node32</title>
<path fill="none" stroke="#191970" d="M868.0388,-595.4715C890.2646,-587.2915 922.928,-575.7764 952,-567.5 961.4932,-564.7974 971.6435,-562.2137 981.5525,-559.8542"/>
<polygon fill="#191970" stroke="#191970" points="982.4021,-563.25 991.3477,-557.5732 980.8145,-556.4324 982.4021,-563.25"/>
</g>
<!-- Node21 -->
<g id="node21" class="node">
<title>Node21</title>
<g id="a_node21"><a xlink:href="../../d2/da0/classodbc_1_1DriverManager.html#ae36c7fe84b416d9dd5f4a756eb4f5829" target="_top" xlink:title="odbc::DriverManager\l::getConnection">
<polygon fill="none" stroke="#000000" points="1184.5,-485.5 1184.5,-517.5 1307.5,-517.5 1307.5,-485.5 1184.5,-485.5"/>
<text text-anchor="start" x="1192.5" y="-504.5" font-family="FreeSans" font-size="10.00" fill="#000000">odbc::DriverManager</text>
<text text-anchor="middle" x="1246" y="-492.5" font-family="FreeSans" font-size="10.00" fill="#000000">::getConnection</text>
</a>
</g>
</g>
<!-- Node20&#45;&gt;Node21 -->
<g id="edge22" class="edge">
<title>Node20&#45;&gt;Node21</title>
<path fill="none" stroke="#191970" d="M1128.259,-505.5009C1143.6088,-504.9793 1159.4047,-504.4426 1174.2447,-503.9383"/>
<polygon fill="#191970" stroke="#191970" points="1174.4732,-507.4326 1184.3486,-503.595 1174.2354,-500.4367 1174.4732,-507.4326"/>
</g>
<!-- Node20&#45;&gt;Node22 -->
<g id="edge23" class="edge">
<title>Node20&#45;&gt;Node22</title>
<path fill="none" stroke="#191970" d="M1075.8825,-498.3972C1104.2102,-490.4214 1144.5347,-479.0679 1178.8141,-469.4164"/>
<polygon fill="#191970" stroke="#191970" points="1180.0943,-472.6921 1188.7714,-466.6129 1178.1971,-465.9541 1180.0943,-472.6921"/>
</g>
<!-- Node23 -->
<g id="node23" class="node">
<title>Node23</title>
<g id="a_node23"><a xlink:href="../../da/d23/msg__buffer_8cc.html#a98631211a4a8aee62f572375d5b637be" target="_top" xlink:title="printf">
<polygon fill="none" stroke="#000000" points="1224,-536.5 1224,-556.5 1268,-556.5 1268,-536.5 1224,-536.5"/>
<text text-anchor="middle" x="1246" y="-543.5" font-family="FreeSans" font-size="10.00" fill="#000000">printf</text>
</a>
</g>
</g>
<!-- Node20&#45;&gt;Node23 -->
<g id="edge24" class="edge">
<title>Node20&#45;&gt;Node23</title>
<path fill="none" stroke="#191970" d="M1094.3935,-518.5338C1132.4127,-525.547 1181.8961,-534.675 1213.8071,-540.5615"/>
<polygon fill="#191970" stroke="#191970" points="1213.4445,-544.0536 1223.9135,-542.4258 1214.7144,-537.1697 1213.4445,-544.0536"/>
</g>
<!-- Node33 -->
<g id="node33" class="node">
<title>Node33</title>
<g id="a_node33"><a xlink:href="../../d3/d0d/classodbc_1_1Date.html#a46273f78e00a930c1664db832d67da95" target="_top" xlink:title="odbc::Date::getTime">
<polygon fill="none" stroke="#000000" points="1186,-575.5 1186,-595.5 1306,-595.5 1306,-575.5 1186,-575.5"/>
<text text-anchor="middle" x="1246" y="-582.5" font-family="FreeSans" font-size="10.00" fill="#000000">odbc::Date::getTime</text>
</a>
</g>
</g>
<!-- Node32&#45;&gt;Node33 -->
<g id="edge35" class="edge">
<title>Node32&#45;&gt;Node33</title>
<path fill="none" stroke="#191970" d="M1094.3935,-557.5338C1121.1471,-562.4689 1153.5774,-568.4512 1181.5669,-573.6143"/>
<polygon fill="#191970" stroke="#191970" points="1181.1901,-577.1038 1191.6591,-575.476 1182.46,-570.2199 1181.1901,-577.1038"/>
</g>
<!-- Node34 -->
<g id="node34" class="node">
<title>Node34</title>
<g id="a_node34"><a xlink:href="../../db/d44/classodbc_1_1Time.html#a46d48a6e6f4d9b781357421680e86d37" target="_top" xlink:title="odbc::Time::getTime">
<polygon fill="none" stroke="#000000" points="1185.5,-614.5 1185.5,-634.5 1306.5,-634.5 1306.5,-614.5 1185.5,-614.5"/>
<text text-anchor="middle" x="1246" y="-621.5" font-family="FreeSans" font-size="10.00" fill="#000000">odbc::Time::getTime</text>
</a>
</g>
</g>
<!-- Node32&#45;&gt;Node34 -->
<g id="edge36" class="edge">
<title>Node32&#45;&gt;Node34</title>
<path fill="none" stroke="#191970" d="M1104.6367,-557.528C1112.7863,-560.1227 1120.7854,-563.3888 1128,-567.5 1148.213,-579.0182 1143.8113,-593.9393 1164,-605.5 1167.7093,-607.6241 1171.6414,-609.5108 1175.6971,-611.1867"/>
<polygon fill="#191970" stroke="#191970" points="1174.7441,-614.5652 1185.3377,-614.7269 1177.1572,-607.9942 1174.7441,-614.5652"/>
</g>
<!-- Node35&#45;&gt;Node5 -->
<g id="edge39" class="edge">
<title>Node35&#45;&gt;Node5</title>
<path fill="none" stroke="#191970" d="M491.3913,-265.4565C518.1855,-260.2706 551.0629,-253.9072 579.1667,-248.4677"/>
<polygon fill="#191970" stroke="#191970" points="580.1319,-251.846 589.2846,-246.5094 578.8017,-244.9735 580.1319,-251.846"/>
</g>
<!-- Node35&#45;&gt;Node7 -->
<g id="edge40" class="edge">
<title>Node35&#45;&gt;Node7</title>
<path fill="none" stroke="#191970" d="M491.3913,-285.5435C518.1855,-290.7294 551.0629,-297.0928 579.1667,-302.5323"/>
<polygon fill="#191970" stroke="#191970" points="578.8017,-306.0265 589.2846,-304.4906 580.1319,-299.154 578.8017,-306.0265"/>
</g>
<!-- Node35&#45;&gt;Node8 -->
<g id="edge41" class="edge">
<title>Node35&#45;&gt;Node8</title>
<path fill="none" stroke="#191970" d="M454.1795,-265.3266C474.7521,-251.6809 513.8214,-227.9578 551,-217.5 621.5004,-197.6693 705.238,-193.8781 764.6543,-194.3235"/>
<polygon fill="#191970" stroke="#191970" points="764.6745,-197.8239 774.7147,-194.4411 764.7564,-190.8244 764.6745,-197.8239"/>
</g>
<!-- Node35&#45;&gt;Node9 -->
<g id="edge42" class="edge">
<title>Node35&#45;&gt;Node9</title>
<path fill="none" stroke="#191970" d="M513.7884,-271.3431C588.9505,-268.7261 698.5557,-269.7747 731,-295.5 773.631,-329.3024 727.6023,-374.979 767,-412.5 768.2958,-413.7341 769.6603,-414.8911 771.0825,-415.9756"/>
<polygon fill="#191970" stroke="#191970" points="769.4534,-419.085 779.7861,-421.4273 773.1693,-413.1527 769.4534,-419.085"/>
</g>
<!-- Node35&#45;&gt;Node13 -->
<g id="edge43" class="edge">
<title>Node35&#45;&gt;Node13</title>
<path fill="none" stroke="#191970" d="M493.0397,-285.6026C500.7035,-288.196 508.2632,-291.4419 515,-295.5 535.2063,-307.6718 532.9417,-319.323 551,-334.5 570.5994,-350.9721 595.1604,-366.5083 613.671,-377.3477"/>
<polygon fill="#191970" stroke="#191970" points="612.0694,-380.4642 622.4819,-382.4213 615.5625,-374.398 612.0694,-380.4642"/>
</g>
<!-- Node35&#45;&gt;Node16 -->
<g id="edge44" class="edge">
<title>Node35&#45;&gt;Node16</title>
<path fill="none" stroke="#191970" d="M448.9098,-265.3003C466.9158,-246.3841 508.2691,-205.7683 551,-183.5 560.2634,-178.6726 570.5631,-174.6917 580.7912,-171.437"/>
<polygon fill="#191970" stroke="#191970" points="581.9537,-174.7428 590.5394,-168.5351 579.9565,-168.0338 581.9537,-174.7428"/>
</g>
<!-- Node36&#45;&gt;Node6 -->
<g id="edge57" class="edge">
<title>Node36&#45;&gt;Node6</title>
<path fill="none" stroke="#191970" d="M692.6337,-90.5435C719.295,-95.7294 752.0093,-102.0928 779.9735,-107.5323"/>
<polygon fill="#191970" stroke="#191970" points="779.5569,-111.0167 790.0412,-109.4906 780.8935,-104.1455 779.5569,-111.0167"/>
</g>
<!-- Node37 -->
<g id="node37" class="node">
<title>Node37</title>
<g id="a_node37"><a xlink:href="../../da/d2e/classOnlMonHtml.html#a82f7af07f9c5df812f877033b3176a3c" target="_top" xlink:title="OnlMonHtml::registerPage">
<polygon fill="none" stroke="#000000" points="767,-70.5 767,-90.5 916,-90.5 916,-70.5 767,-70.5"/>
<text text-anchor="middle" x="841.5" y="-77.5" font-family="FreeSans" font-size="10.00" fill="#000000">OnlMonHtml::registerPage</text>
</a>
</g>
</g>
<!-- Node36&#45;&gt;Node37 -->
<g id="edge46" class="edge">
<title>Node36&#45;&gt;Node37</title>
<path fill="none" stroke="#191970" d="M731.2788,-80.5C739.7029,-80.5 748.2219,-80.5 756.5946,-80.5"/>
<polygon fill="#191970" stroke="#191970" points="756.7187,-84.0001 766.7187,-80.5 756.7187,-77.0001 756.7187,-84.0001"/>
</g>
<!-- Node38 -->
<g id="node38" class="node">
<title>Node38</title>
<g id="a_node38"><a xlink:href="../../da/d2e/classOnlMonHtml.html#ac6c4dc141ad7866a7058f40c6ada822f" target="_top" xlink:title="OnlMonHtml::namer">
<polygon fill="none" stroke="#000000" points="980.5,-90.5 980.5,-110.5 1099.5,-110.5 1099.5,-90.5 980.5,-90.5"/>
<text text-anchor="middle" x="1040" y="-97.5" font-family="FreeSans" font-size="10.00" fill="#000000">OnlMonHtml::namer</text>
</a>
</g>
</g>
<!-- Node37&#45;&gt;Node38 -->
<g id="edge47" class="edge">
<title>Node37&#45;&gt;Node38</title>
<path fill="none" stroke="#191970" d="M916.2615,-88.0326C933.9923,-89.8191 952.8353,-91.7177 970.329,-93.4803"/>
<polygon fill="#191970" stroke="#191970" points="970.154,-96.9803 980.4545,-94.5005 970.8558,-90.0155 970.154,-96.9803"/>
</g>
<!-- Node41 -->
<g id="node41" class="node">
<title>Node41</title>
<g id="a_node41"><a xlink:href="../../da/d2e/classOnlMonHtml.html#ae9c28f8ebd8b71d9490c691577d78b52" target="_top" xlink:title="OnlMonHtml::addMenu">
<polygon fill="none" stroke="#000000" points="974,-51.5 974,-71.5 1106,-71.5 1106,-51.5 974,-51.5"/>
<text text-anchor="middle" x="1040" y="-58.5" font-family="FreeSans" font-size="10.00" fill="#000000">OnlMonHtml::addMenu</text>
</a>
</g>
</g>
<!-- Node37&#45;&gt;Node41 -->
<g id="edge50" class="edge">
<title>Node37&#45;&gt;Node41</title>
<path fill="none" stroke="#191970" d="M916.2615,-73.344C931.7677,-71.8598 948.1245,-70.2941 963.6855,-68.8047"/>
<polygon fill="#191970" stroke="#191970" points="964.1585,-72.2755 973.7795,-67.8385 963.4915,-65.3073 964.1585,-72.2755"/>
</g>
<!-- Node39 -->
<g id="node39" class="node">
<title>Node39</title>
<g id="a_node39"><a xlink:href="../../da/d2e/classOnlMonHtml.html#aff734628af9b4925832e3bd78c0a84a6" target="_top" xlink:title="OnlMonHtml::runNumber">
<polygon fill="none" stroke="#000000" points="1174,-129.5 1174,-149.5 1318,-149.5 1318,-129.5 1174,-129.5"/>
<text text-anchor="middle" x="1246" y="-136.5" font-family="FreeSans" font-size="10.00" fill="#000000">OnlMonHtml::runNumber</text>
</a>
</g>
</g>
<!-- Node38&#45;&gt;Node39 -->
<g id="edge48" class="edge">
<title>Node38&#45;&gt;Node39</title>
<path fill="none" stroke="#191970" d="M1093.0501,-110.5435C1120.5629,-115.7522 1154.3494,-122.1487 1183.1635,-127.6038"/>
<polygon fill="#191970" stroke="#191970" points="1182.6531,-131.0692 1193.1297,-129.4906 1183.9553,-124.1914 1182.6531,-131.0692"/>
</g>
<!-- Node40 -->
<g id="node40" class="node">
<title>Node40</title>
<g id="a_node40"><a xlink:href="../../da/d2e/classOnlMonHtml.html#a15a59ca14369c68ba1f95cb651fbf93c" target="_top" xlink:title="OnlMonHtml::verbosity">
<polygon fill="none" stroke="#000000" points="1179.5,-90.5 1179.5,-110.5 1312.5,-110.5 1312.5,-90.5 1179.5,-90.5"/>
<text text-anchor="middle" x="1246" y="-97.5" font-family="FreeSans" font-size="10.00" fill="#000000">OnlMonHtml::verbosity</text>
</a>
</g>
</g>
<!-- Node38&#45;&gt;Node40 -->
<g id="edge49" class="edge">
<title>Node38&#45;&gt;Node40</title>
<path fill="none" stroke="#191970" d="M1099.5837,-100.5C1121.3208,-100.5 1146.2156,-100.5 1169.2369,-100.5"/>
<polygon fill="#191970" stroke="#191970" points="1169.3178,-104.0001 1179.3178,-100.5 1169.3177,-97.0001 1169.3178,-104.0001"/>
</g>
<!-- Node41&#45;&gt;Node40 -->
<g id="edge51" class="edge">
<title>Node41&#45;&gt;Node40</title>
<path fill="none" stroke="#191970" d="M1093.0501,-71.5435C1120.5629,-76.7522 1154.3494,-83.1487 1183.1635,-88.6038"/>
<polygon fill="#191970" stroke="#191970" points="1182.6531,-92.0692 1193.1297,-90.4906 1183.9553,-85.1914 1182.6531,-92.0692"/>
</g>
<!-- Node42 -->
<g id="node42" class="node">
<title>Node42</title>
<g id="a_node42"><a xlink:href="../../d2/da5/namespaceActs_1_1Experimental_1_1detail_1_1BlueprintHelper.html#a308a6456db2655fc6a1a916696da20c8" target="_top" xlink:title="Sort the nodes in the blueprint container node.">
<polygon fill="none" stroke="#000000" points="1164,-.5 1164,-32.5 1328,-32.5 1328,-.5 1164,-.5"/>
<text text-anchor="start" x="1172" y="-19.5" font-family="FreeSans" font-size="10.00" fill="#000000">Acts::Experimental</text>
<text text-anchor="middle" x="1246" y="-7.5" font-family="FreeSans" font-size="10.00" fill="#000000">::detail::BlueprintHelper::sort</text>
</a>
</g>
</g>
<!-- Node41&#45;&gt;Node42 -->
<g id="edge52" class="edge">
<title>Node41&#45;&gt;Node42</title>
<path fill="none" stroke="#191970" d="M1085.974,-51.4571C1108.5806,-46.5188 1136.539,-40.4114 1162.7293,-34.6902"/>
<polygon fill="#191970" stroke="#191970" points="1163.643,-38.0732 1172.6656,-32.5196 1162.149,-31.2345 1163.643,-38.0732"/>
</g>
<!-- Node43 -->
<g id="node43" class="node">
<title>Node43</title>
<g id="a_node43"><a xlink:href="../../da/d2e/classOnlMonHtml.html#a501bbc5316e679aa15de2d8fe8149b80" target="_top" xlink:title="OnlMonHtml::plainHtmlMenu">
<polygon fill="none" stroke="#000000" points="1165,-51.5 1165,-71.5 1327,-71.5 1327,-51.5 1165,-51.5"/>
<text text-anchor="middle" x="1246" y="-58.5" font-family="FreeSans" font-size="10.00" fill="#000000">OnlMonHtml::plainHtmlMenu</text>
</a>
</g>
</g>
<!-- Node41&#45;&gt;Node43 -->
<g id="edge53" class="edge">
<title>Node41&#45;&gt;Node43</title>
<path fill="none" stroke="#191970" d="M1106.0297,-61.5C1121.5254,-61.5 1138.3082,-61.5 1154.6913,-61.5"/>
<polygon fill="#191970" stroke="#191970" points="1154.8254,-65.0001 1164.8254,-61.5 1154.8253,-58.0001 1154.8254,-65.0001"/>
</g>
<!-- Node44 -->
<g id="node44" class="node">
<title>Node44</title>
<g id="a_node44"><a xlink:href="../../d8/d99/fjcore_8cc.html#ace0f2d08f557c8e9e4f5bc645f3de8cc" target="_top" xlink:title="join">
<polygon fill="none" stroke="#000000" points="1364,-51.5 1364,-71.5 1399,-71.5 1399,-51.5 1364,-51.5"/>
<text text-anchor="middle" x="1381.5" y="-58.5" font-family="FreeSans" font-size="10.00" fill="#000000">join</text>
</a>
</g>
</g>
<!-- Node43&#45;&gt;Node44 -->
<g id="edge54" class="edge">
<title>Node43&#45;&gt;Node44</title>
<path fill="none" stroke="#191970" d="M1327.1677,-61.5C1336.6226,-61.5 1345.7143,-61.5 1353.6658,-61.5"/>
<polygon fill="#191970" stroke="#191970" points="1353.7292,-65.0001 1363.7292,-61.5 1353.7292,-58.0001 1353.7292,-65.0001"/>
</g>
<!-- Node45 -->
<g id="node45" class="node">
<title>Node45</title>
<g id="a_node45"><a xlink:href="../../d2/d7e/classJetDefinition_1_1Recombiner.html#ab464439a588af8626f46edb659103674" target="_top" xlink:title="JetDefinition::Recombiner\l::plus_equal">
<polygon fill="none" stroke="#000000" points="1435,-45.5 1435,-77.5 1582,-77.5 1582,-45.5 1435,-45.5"/>
<text text-anchor="start" x="1443" y="-64.5" font-family="FreeSans" font-size="10.00" fill="#000000">JetDefinition::Recombiner</text>
<text text-anchor="middle" x="1508.5" y="-52.5" font-family="FreeSans" font-size="10.00" fill="#000000">::plus_equal</text>
</a>
</g>
</g>
<!-- Node44&#45;&gt;Node45 -->
<g id="edge55" class="edge">
<title>Node44&#45;&gt;Node45</title>
<path fill="none" stroke="#191970" d="M1399.1588,-61.5C1406.3419,-61.5 1415.2006,-61.5 1424.7409,-61.5"/>
<polygon fill="#191970" stroke="#191970" points="1424.8879,-65.0001 1434.8879,-61.5 1424.8878,-58.0001 1424.8879,-65.0001"/>
</g>
<!-- Node46 -->
<g id="node46" class="node">
<title>Node46</title>
<g id="a_node46"><a xlink:href="../../d2/d7e/classJetDefinition_1_1Recombiner.html#aff9751e5eaf618745d24efa59c47c2d9" target="_top" xlink:title="JetDefinition::Recombiner\l::recombine">
<polygon fill="none" stroke="#000000" points="1618,-45.5 1618,-77.5 1765,-77.5 1765,-45.5 1618,-45.5"/>
<text text-anchor="start" x="1626" y="-64.5" font-family="FreeSans" font-size="10.00" fill="#000000">JetDefinition::Recombiner</text>
<text text-anchor="middle" x="1691.5" y="-52.5" font-family="FreeSans" font-size="10.00" fill="#000000">::recombine</text>
</a>
</g>
</g>
<!-- Node45&#45;&gt;Node46 -->
<g id="edge56" class="edge">
<title>Node45&#45;&gt;Node46</title>
<path fill="none" stroke="#191970" d="M1582.1421,-61.5C1590.4739,-61.5 1599.0113,-61.5 1607.4632,-61.5"/>
<polygon fill="#191970" stroke="#191970" points="1607.7108,-65.0001 1617.7107,-61.5 1607.7107,-58.0001 1607.7108,-65.0001"/>
</g>
<!-- Node47&#45;&gt;Node6 -->
<g id="edge62" class="edge">
<title>Node47&#45;&gt;Node6</title>
<path fill="none" stroke="#191970" d="M515.1131,-135.7382C589.1433,-132.0551 700.9563,-126.4922 772.5939,-122.9282"/>
<polygon fill="#191970" stroke="#191970" points="773.0489,-126.41 782.8626,-122.4173 772.701,-119.4186 773.0489,-126.41"/>
</g>
<!-- Node47&#45;&gt;Node16 -->
<g id="edge61" class="edge">
<title>Node47&#45;&gt;Node16</title>
<path fill="none" stroke="#191970" d="M515.1044,-146.629C528.1859,-147.8624 541.8715,-149.1529 555.2001,-150.4097"/>
<polygon fill="#191970" stroke="#191970" points="555.0226,-153.9084 565.307,-151.3627 555.6798,-146.9393 555.0226,-153.9084"/>
</g>
<!-- Node47&#45;&gt;Node36 -->
<g id="edge63" class="edge">
<title>Node47&#45;&gt;Node36</title>
<path fill="none" stroke="#191970" d="M471.6395,-129.4667C493.8808,-122.5807 524.1866,-113.3109 551,-105.5 565.032,-101.4124 580.3386,-97.1044 594.2833,-93.2378"/>
<polygon fill="#191970" stroke="#191970" points="595.4517,-96.5462 604.1587,-90.5098 593.5878,-89.7989 595.4517,-96.5462"/>
</g>
</g>
</svg>
