<?xml version="1.0" encoding="UTF-8" standalone="no"?>
<!DOCTYPE svg PUBLIC "-//W3C//DTD SVG 1.1//EN"
 "http://www.w3.org/Graphics/SVG/1.1/DTD/svg11.dtd">
<!-- Generated by graphviz version 2.40.1 (20161225.0304)
 -->
<!-- Title: mg_handle_propfind Pages: 1 -->
<svg width="1999pt" height="737pt"
 viewBox="0.00 0.00 1999.00 736.94" xmlns="http://www.w3.org/2000/svg" xmlns:xlink="http://www.w3.org/1999/xlink">
<g id="graph0" class="graph" transform="scale(1 1) rotate(0) translate(4 732.9353)">
<title>mg_handle_propfind</title>
<!-- Node1 -->
<g id="node1" class="node">
<title>Node1</title>
<polygon fill="#bfbfbf" stroke="#000000" points="0,-9 0,-29 119,-29 119,-9 0,-9"/>
<text text-anchor="middle" x="59.5" y="-16" font-family="FreeSans" font-size="10.00" fill="#000000">mg_handle_propfind</text>
</g>
<!-- Node2 -->
<g id="node2" class="node">
<title>Node2</title>
<g id="a_node2"><a xlink:href="../../d9/d3f/mongoose_8cc.html#a336e5eadc6094ec843d4c2a62e976b41" target="_top" xlink:title="mg_send_http_file">
<polygon fill="none" stroke="#000000" points="155,-9 155,-29 263,-29 263,-9 155,-9"/>
<text text-anchor="middle" x="209" y="-16" font-family="FreeSans" font-size="10.00" fill="#000000">mg_send_http_file</text>
</a>
</g>
</g>
<!-- Node1&#45;&gt;Node2 -->
<g id="edge1" class="edge">
<title>Node1&#45;&gt;Node2</title>
<path fill="none" stroke="#191970" d="M129.2856,-19C137.7638,-19 146.3276,-19 154.538,-19"/>
<polygon fill="#191970" stroke="#191970" points="129.016,-15.5001 119.0159,-19 129.0159,-22.5001 129.016,-15.5001"/>
</g>
<!-- Node3 -->
<g id="node3" class="node">
<title>Node3</title>
<g id="a_node3"><a xlink:href="../../dc/db4/mongoose_8h.html#a3f4e233ca42d64a9bd6e1bf096130773" target="_top" xlink:title="mg_serve_http">
<polygon fill="none" stroke="#000000" points="299,-29 299,-49 390,-49 390,-29 299,-29"/>
<text text-anchor="middle" x="344.5" y="-36" font-family="FreeSans" font-size="10.00" fill="#000000">mg_serve_http</text>
</a>
</g>
</g>
<!-- Node2&#45;&gt;Node3 -->
<g id="edge2" class="edge">
<title>Node2&#45;&gt;Node3</title>
<path fill="none" stroke="#191970" d="M273.3723,-28.5015C281.982,-29.7722 290.6645,-31.0538 298.862,-32.2638"/>
<polygon fill="#191970" stroke="#191970" points="273.7362,-25.0173 263.3323,-27.0195 272.714,-31.9423 273.7362,-25.0173"/>
</g>
<!-- Node4 -->
<g id="node4" class="node">
<title>Node4</title>
<g id="a_node4"><a xlink:href="../../d6/d30/rcdaq__mg__server_8cc.html#a1649d4c8e3ef4f59226bba26da5a99e2" target="_top" xlink:title="ev_handler">
<polygon fill="none" stroke="#000000" points="426,-29 426,-49 499,-49 499,-29 426,-29"/>
<text text-anchor="middle" x="462.5" y="-36" font-family="FreeSans" font-size="10.00" fill="#000000">ev_handler</text>
</a>
</g>
</g>
<!-- Node3&#45;&gt;Node4 -->
<g id="edge3" class="edge">
<title>Node3&#45;&gt;Node4</title>
<path fill="none" stroke="#191970" d="M400.2148,-39C408.8881,-39 417.6564,-39 425.7668,-39"/>
<polygon fill="#191970" stroke="#191970" points="400.1219,-35.5001 390.1219,-39 400.1218,-42.5001 400.1219,-35.5001"/>
</g>
<!-- Node5 -->
<g id="node5" class="node">
<title>Node5</title>
<g id="a_node5"><a xlink:href="../../d9/d3f/mongoose_8cc.html#a2ca0faa3cfd1b007fc807e997d256aac" target="_top" xlink:title="mg_call">
<polygon fill="none" stroke="#000000" points="535,-359 535,-379 590,-379 590,-359 535,-359"/>
<text text-anchor="middle" x="562.5" y="-366" font-family="FreeSans" font-size="10.00" fill="#000000">mg_call</text>
</a>
</g>
</g>
<!-- Node4&#45;&gt;Node5 -->
<g id="edge4" class="edge">
<title>Node4&#45;&gt;Node5</title>
<path fill="none" stroke="#191970" d="M468.5902,-59.0975C487.6076,-121.8552 545.4522,-312.7423 559.4337,-358.8813"/>
<polygon fill="#191970" stroke="#191970" points="471.8522,-57.7933 465.6025,-49.2381 465.153,-59.8234 471.8522,-57.7933"/>
</g>
<!-- Node11 -->
<g id="node11" class="node">
<title>Node11</title>
<g id="a_node11"><a xlink:href="../../d6/d30/rcdaq__mg__server_8cc.html#a1aa5f050afb13373748c8107a5650929" target="_top" xlink:title="mg_server">
<polygon fill="none" stroke="#000000" points="1510.5,-416 1510.5,-436 1580.5,-436 1580.5,-416 1510.5,-416"/>
<text text-anchor="middle" x="1545.5" y="-423" font-family="FreeSans" font-size="10.00" fill="#000000">mg_server</text>
</a>
</g>
</g>
<!-- Node4&#45;&gt;Node11 -->
<g id="edge67" class="edge">
<title>Node4&#45;&gt;Node11</title>
<path fill="none" stroke="#191970" d="M509.3899,-38.671C555.0012,-38.3795 626.2551,-38 688,-38 688,-38 688,-38 1216.5,-38 1420.5136,-38 1524.2262,-353.919 1542.5369,-415.6219"/>
<polygon fill="#191970" stroke="#191970" points="509.1916,-35.1721 499.2147,-38.7373 509.2373,-42.172 509.1916,-35.1721"/>
</g>
<!-- Node6 -->
<g id="node6" class="node">
<title>Node6</title>
<g id="a_node6"><a xlink:href="../../dc/db4/mongoose_8h.html#ae7660d1a1799e824da318a452859bbe0" target="_top" xlink:title="mg_close_conn">
<polygon fill="none" stroke="#000000" points="818.5,-416 818.5,-436 911.5,-436 911.5,-416 818.5,-416"/>
<text text-anchor="middle" x="865" y="-423" font-family="FreeSans" font-size="10.00" fill="#000000">mg_close_conn</text>
</a>
</g>
</g>
<!-- Node5&#45;&gt;Node6 -->
<g id="edge5" class="edge">
<title>Node5&#45;&gt;Node6</title>
<path fill="none" stroke="#191970" d="M582.9512,-385.5342C594.7957,-394.134 610.4106,-403.8931 626,-409 690.2376,-430.0434 769.2232,-431.2213 818.3507,-429.2746"/>
<polygon fill="#191970" stroke="#191970" points="584.7768,-382.5263 574.6916,-379.28 580.5512,-388.107 584.7768,-382.5263"/>
</g>
<!-- Node16 -->
<g id="node16" class="node">
<title>Node16</title>
<g id="a_node16"><a xlink:href="../../d9/d3f/mongoose_8cc.html#a5f21836d0d15f7ec311da58d2616fc61" target="_top" xlink:title="mg_do_ssi_call">
<polygon fill="none" stroke="#000000" points="642.5,-106 642.5,-126 733.5,-126 733.5,-106 642.5,-106"/>
<text text-anchor="middle" x="688" y="-113" font-family="FreeSans" font-size="10.00" fill="#000000">mg_do_ssi_call</text>
</a>
</g>
</g>
<!-- Node5&#45;&gt;Node16 -->
<g id="edge17" class="edge">
<title>Node5&#45;&gt;Node16</title>
<path fill="none" stroke="#191970" d="M565.5229,-348.6399C573.4553,-297.7891 596.3192,-167.0776 626,-136 630.5307,-131.2561 636.1909,-127.6352 642.2362,-124.8719"/>
<polygon fill="#191970" stroke="#191970" points="562.0319,-348.3158 563.9829,-358.7294 568.9518,-349.3721 562.0319,-348.3158"/>
</g>
<!-- Node21 -->
<g id="node21" class="node">
<title>Node21</title>
<g id="a_node21"><a xlink:href="../../d9/d3f/mongoose_8cc.html#ab2fd5bcea2bc92fd1756a1f42e22ea4a" target="_top" xlink:title="mg_handle_chunked">
<polygon fill="none" stroke="#000000" points="987.5,-583 987.5,-603 1107.5,-603 1107.5,-583 987.5,-583"/>
<text text-anchor="middle" x="1047.5" y="-590" font-family="FreeSans" font-size="10.00" fill="#000000">mg_handle_chunked</text>
</a>
</g>
</g>
<!-- Node5&#45;&gt;Node21 -->
<g id="edge24" class="edge">
<title>Node5&#45;&gt;Node21</title>
<path fill="none" stroke="#191970" d="M565.7012,-389.0254C573.675,-436.1482 595.9648,-551.8224 626,-575 680.7969,-617.2856 884.4252,-606.9449 987.2585,-598.6358"/>
<polygon fill="#191970" stroke="#191970" points="569.1443,-388.3935 564.0628,-379.0968 562.2377,-389.5332 569.1443,-388.3935"/>
</g>
<!-- Node22 -->
<g id="node22" class="node">
<title>Node22</title>
<g id="a_node22"><a xlink:href="../../d9/d3f/mongoose_8cc.html#ae182a242c35980983fd9f64fbefdd6d9" target="_top" xlink:title="mg_http_handler">
<polygon fill="none" stroke="#000000" points="1165,-563 1165,-583 1268,-583 1268,-563 1165,-563"/>
<text text-anchor="middle" x="1216.5" y="-570" font-family="FreeSans" font-size="10.00" fill="#000000">mg_http_handler</text>
</a>
</g>
</g>
<!-- Node5&#45;&gt;Node22 -->
<g id="edge39" class="edge">
<title>Node5&#45;&gt;Node22</title>
<path fill="none" stroke="#191970" d="M565.0255,-389.1896C571.9128,-440.7543 592.7597,-575.1979 626,-603 709.3717,-672.7319 1008.4641,-634.5287 1115,-613 1144.7044,-606.9974 1176.9267,-592.873 1196.9163,-583.1239"/>
<polygon fill="#191970" stroke="#191970" points="568.4938,-388.7186 563.7355,-379.2524 561.5521,-389.6198 568.4938,-388.7186"/>
</g>
<!-- Node29 -->
<g id="node29" class="node">
<title>Node29</title>
<g id="a_node29"><a xlink:href="../../d9/d3f/mongoose_8cc.html#aa65b24bd1bbe27ca8cb2cccb579e5568" target="_top" xlink:title="mg_handle_incoming\l_websocket_frame">
<polygon fill="none" stroke="#000000" points="626,-533 626,-565 750,-565 750,-533 626,-533"/>
<text text-anchor="start" x="634" y="-552" font-family="FreeSans" font-size="10.00" fill="#000000">mg_handle_incoming</text>
<text text-anchor="middle" x="688" y="-540" font-family="FreeSans" font-size="10.00" fill="#000000">_websocket_frame</text>
</a>
</g>
</g>
<!-- Node5&#45;&gt;Node29 -->
<g id="edge33" class="edge">
<title>Node5&#45;&gt;Node29</title>
<path fill="none" stroke="#191970" d="M566.3896,-389.0567C573.3514,-420.1804 590.6457,-480.4287 626,-518 631.5256,-523.872 638.4056,-528.7938 645.5527,-532.8606"/>
<polygon fill="#191970" stroke="#191970" points="569.759,-388.0706 564.2779,-379.0037 562.9085,-389.5096 569.759,-388.0706"/>
</g>
<!-- Node31 -->
<g id="node31" class="node">
<title>Node31</title>
<g id="a_node31"><a xlink:href="../../d9/d3f/mongoose_8cc.html#a35b749b675e77c31f32e95fae1fcbb47" target="_top" xlink:title="mg_websocket_handler">
<polygon fill="none" stroke="#000000" points="980,-544 980,-564 1115,-564 1115,-544 980,-544"/>
<text text-anchor="middle" x="1047.5" y="-551" font-family="FreeSans" font-size="10.00" fill="#000000">mg_websocket_handler</text>
</a>
</g>
</g>
<!-- Node5&#45;&gt;Node31 -->
<g id="edge59" class="edge">
<title>Node5&#45;&gt;Node31</title>
<path fill="none" stroke="#191970" d="M570.2269,-388.318C579.9279,-409.9903 598.6788,-444.5221 626,-463 655.9596,-483.2623 880.8782,-524.7895 989.341,-543.9301"/>
<polygon fill="#191970" stroke="#191970" points="573.4406,-386.9313 566.3007,-379.1036 567.0008,-389.6753 573.4406,-386.9313"/>
</g>
<!-- Node32 -->
<g id="node32" class="node">
<title>Node32</title>
<g id="a_node32"><a xlink:href="../../d9/d3f/mongoose_8cc.html#adc42728f2a04604fd521569af279a6d7" target="_top" xlink:title="mg_http_call_endpoint\l_handler">
<polygon fill="none" stroke="#000000" points="799.5,-455 799.5,-487 930.5,-487 930.5,-455 799.5,-455"/>
<text text-anchor="start" x="807.5" y="-474" font-family="FreeSans" font-size="10.00" fill="#000000">mg_http_call_endpoint</text>
<text text-anchor="middle" x="865" y="-462" font-family="FreeSans" font-size="10.00" fill="#000000">_handler</text>
</a>
</g>
</g>
<!-- Node5&#45;&gt;Node32 -->
<g id="edge37" class="edge">
<title>Node5&#45;&gt;Node32</title>
<path fill="none" stroke="#191970" d="M575.6141,-387.6034C587.1229,-402.4126 605.2354,-422.3607 626,-433 680.1246,-460.7321 749.4528,-469.2521 799.4872,-471.4199"/>
<polygon fill="#191970" stroke="#191970" points="578.1174,-385.105 569.337,-379.1758 572.5035,-389.2864 578.1174,-385.105"/>
</g>
<!-- Node33 -->
<g id="node33" class="node">
<title>Node33</title>
<g id="a_node33"><a xlink:href="../../dc/db4/mongoose_8h.html#a34951229fad1d145805f5bb7a29ace67" target="_top" xlink:title="mg_if_accept_tcp_cb">
<polygon fill="none" stroke="#000000" points="627.5,-301 627.5,-321 748.5,-321 748.5,-301 627.5,-301"/>
<text text-anchor="middle" x="688" y="-308" font-family="FreeSans" font-size="10.00" fill="#000000">mg_if_accept_tcp_cb</text>
</a>
</g>
</g>
<!-- Node5&#45;&gt;Node33 -->
<g id="edge40" class="edge">
<title>Node5&#45;&gt;Node33</title>
<path fill="none" stroke="#191970" d="M585.8196,-353.3027C597.5338,-345.8746 612.1506,-337.2789 626,-331 634.2407,-327.2639 643.3856,-323.9098 652.0649,-321.0637"/>
<polygon fill="#191970" stroke="#191970" points="583.6053,-350.567 577.1175,-358.943 587.4127,-356.4411 583.6053,-350.567"/>
</g>
<!-- Node34 -->
<g id="node34" class="node">
<title>Node34</title>
<g id="a_node34"><a xlink:href="../../dc/db4/mongoose_8h.html#a73a3e947b6d29f71542c280fdbe4fce0" target="_top" xlink:title="mg_if_connect_cb">
<polygon fill="none" stroke="#000000" points="812,-262 812,-282 918,-282 918,-262 812,-262"/>
<text text-anchor="middle" x="865" y="-269" font-family="FreeSans" font-size="10.00" fill="#000000">mg_if_connect_cb</text>
</a>
</g>
</g>
<!-- Node5&#45;&gt;Node34 -->
<g id="edge42" class="edge">
<title>Node5&#45;&gt;Node34</title>
<path fill="none" stroke="#191970" d="M572.3572,-349.8413C582.9241,-331.5081 601.5374,-304.8083 626,-292 684.0981,-261.5806 761.173,-261.021 811.8834,-265.0939"/>
<polygon fill="#191970" stroke="#191970" points="569.1916,-348.3349 567.4522,-358.786 575.3293,-351.7006 569.1916,-348.3349"/>
</g>
<!-- Node35 -->
<g id="node35" class="node">
<title>Node35</title>
<g id="a_node35"><a xlink:href="../../dc/db4/mongoose_8h.html#a434fcd77e575224c47a797ab0a7aeaa0" target="_top" xlink:title="mg_if_poll">
<polygon fill="none" stroke="#000000" points="654.5,-223 654.5,-243 721.5,-243 721.5,-223 654.5,-223"/>
<text text-anchor="middle" x="688" y="-230" font-family="FreeSans" font-size="10.00" fill="#000000">mg_if_poll</text>
</a>
</g>
</g>
<!-- Node5&#45;&gt;Node35 -->
<g id="edge44" class="edge">
<title>Node5&#45;&gt;Node35</title>
<path fill="none" stroke="#191970" d="M569.1519,-349.3006C578.3453,-324.8088 597.1418,-283.1693 626,-258 634.1344,-250.9054 644.541,-245.6662 654.4954,-241.8705"/>
<polygon fill="#191970" stroke="#191970" points="565.777,-348.3435 565.7,-358.9381 572.3671,-350.704 565.777,-348.3435"/>
</g>
<!-- Node36 -->
<g id="node36" class="node">
<title>Node36</title>
<g id="a_node36"><a xlink:href="../../dc/db4/mongoose_8h.html#a3b7cf668d0412cd37c5bba8ba5938ee0" target="_top" xlink:title="mg_if_recv_udp_cb">
<polygon fill="none" stroke="#000000" points="809,-184 809,-204 921,-204 921,-184 809,-184"/>
<text text-anchor="middle" x="865" y="-191" font-family="FreeSans" font-size="10.00" fill="#000000">mg_if_recv_udp_cb</text>
</a>
</g>
</g>
<!-- Node5&#45;&gt;Node36 -->
<g id="edge46" class="edge">
<title>Node5&#45;&gt;Node36</title>
<path fill="none" stroke="#191970" d="M564.2437,-348.7209C568.3653,-314.6028 581.9655,-246.2908 626,-214 680.3957,-174.1113 761.6548,-176.6977 813.9954,-183.9751"/>
<polygon fill="#191970" stroke="#191970" points="560.7406,-348.5688 563.1791,-358.8791 567.7024,-349.2985 560.7406,-348.5688"/>
</g>
<!-- Node38 -->
<g id="node38" class="node">
<title>Node38</title>
<g id="a_node38"><a xlink:href="../../dc/db4/mongoose_8h.html#a5ac0c1c762a5839f16c7e68dfb571cf5" target="_top" xlink:title="mg_if_sent_cb">
<polygon fill="none" stroke="#000000" points="644,-379 644,-399 732,-399 732,-379 644,-379"/>
<text text-anchor="middle" x="688" y="-386" font-family="FreeSans" font-size="10.00" fill="#000000">mg_if_sent_cb</text>
</a>
</g>
</g>
<!-- Node5&#45;&gt;Node38 -->
<g id="edge49" class="edge">
<title>Node5&#45;&gt;Node38</title>
<path fill="none" stroke="#191970" d="M600.1119,-374.9939C613.8433,-377.1822 629.4988,-379.6771 643.7548,-381.949"/>
<polygon fill="#191970" stroke="#191970" points="600.4677,-371.5065 590.0415,-373.3891 599.366,-378.4193 600.4677,-371.5065"/>
</g>
<!-- Node40 -->
<g id="node40" class="node">
<title>Node40</title>
<g id="a_node40"><a xlink:href="../../dc/db4/mongoose_8h.html#ae662a8a7afb4425fabf95e0b12aabc0a" target="_top" xlink:title="mg_if_timer">
<polygon fill="none" stroke="#000000" points="650,-340 650,-360 726,-360 726,-340 650,-340"/>
<text text-anchor="middle" x="688" y="-347" font-family="FreeSans" font-size="10.00" fill="#000000">mg_if_timer</text>
</a>
</g>
</g>
<!-- Node5&#45;&gt;Node40 -->
<g id="edge52" class="edge">
<title>Node5&#45;&gt;Node40</title>
<path fill="none" stroke="#191970" d="M600.3715,-363.2665C615.9407,-360.9094 633.9481,-358.1831 649.5745,-355.8174"/>
<polygon fill="#191970" stroke="#191970" points="599.4049,-359.8728 590.0415,-364.8304 600.4528,-366.794 599.4049,-359.8728"/>
</g>
<!-- Node41 -->
<g id="node41" class="node">
<title>Node41</title>
<g id="a_node41"><a xlink:href="../../d9/d3f/mongoose_8cc.html#a107cb53c2c75c90100d6af62dd7ed036" target="_top" xlink:title="mg_recv_common">
<polygon fill="none" stroke="#000000" points="634,-145 634,-165 742,-165 742,-145 634,-145"/>
<text text-anchor="middle" x="688" y="-152" font-family="FreeSans" font-size="10.00" fill="#000000">mg_recv_common</text>
</a>
</g>
</g>
<!-- Node5&#45;&gt;Node41 -->
<g id="edge54" class="edge">
<title>Node5&#45;&gt;Node41</title>
<path fill="none" stroke="#191970" d="M563.8677,-348.6113C567.4722,-310.6015 580.3858,-228.3955 626,-180 632.1295,-173.4967 640.1808,-168.6439 648.4434,-165.0369"/>
<polygon fill="#191970" stroke="#191970" points="560.3529,-348.649 563.0221,-358.9021 567.3294,-349.2224 560.3529,-348.649"/>
</g>
<!-- Node44 -->
<g id="node44" class="node">
<title>Node44</title>
<g id="a_node44"><a xlink:href="../../d9/d3f/mongoose_8cc.html#a4c939be20504501a7f029a4f3881f919" target="_top" xlink:title="resolve_cb">
<polygon fill="none" stroke="#000000" points="653,-671 653,-691 723,-691 723,-671 653,-671"/>
<text text-anchor="middle" x="688" y="-678" font-family="FreeSans" font-size="10.00" fill="#000000">resolve_cb</text>
</a>
</g>
</g>
<!-- Node5&#45;&gt;Node44 -->
<g id="edge60" class="edge">
<title>Node5&#45;&gt;Node44</title>
<path fill="none" stroke="#191970" d="M565.0071,-389.3264C572.3327,-446.0583 595.1499,-604.6612 626,-646 634.3538,-657.1939 647.4128,-665.3251 659.3955,-670.9163"/>
<polygon fill="#191970" stroke="#191970" points="568.4438,-388.6048 563.716,-379.1233 561.4991,-389.4836 568.4438,-388.6048"/>
</g>
<!-- Node7 -->
<g id="node7" class="node">
<title>Node7</title>
<g id="a_node7"><a xlink:href="../../dc/db4/mongoose_8h.html#a00e8d99b05aa6677b8788b9f5a9f4000" target="_top" xlink:title="mg_mgr_free">
<polygon fill="none" stroke="#000000" points="1504,-455 1504,-475 1587,-475 1587,-455 1504,-455"/>
<text text-anchor="middle" x="1545.5" y="-462" font-family="FreeSans" font-size="10.00" fill="#000000">mg_mgr_free</text>
</a>
</g>
</g>
<!-- Node6&#45;&gt;Node7 -->
<g id="edge6" class="edge">
<title>Node6&#45;&gt;Node7</title>
<path fill="none" stroke="#191970" d="M921.695,-433.7808C940.2464,-436.0915 960.9739,-438.4237 980,-440 1175.63,-456.208 1410.2617,-462.3433 1503.9263,-464.257"/>
<polygon fill="#191970" stroke="#191970" points="921.9984,-430.2913 911.6373,-432.5042 921.1169,-437.2356 921.9984,-430.2913"/>
</g>
<!-- Node8 -->
<g id="node8" class="node">
<title>Node8</title>
<g id="a_node8"><a xlink:href="../../d9/d3f/mongoose_8cc.html#a11482eca2b62180bd0c7009ba453debc" target="_top" xlink:title="mg_accept_conn">
<polygon fill="none" stroke="#000000" points="997,-378 997,-398 1098,-398 1098,-378 997,-378"/>
<text text-anchor="middle" x="1047.5" y="-385" font-family="FreeSans" font-size="10.00" fill="#000000">mg_accept_conn</text>
</a>
</g>
</g>
<!-- Node6&#45;&gt;Node8 -->
<g id="edge7" class="edge">
<title>Node6&#45;&gt;Node8</title>
<path fill="none" stroke="#191970" d="M921.5873,-414.2174C946.5508,-409.0196 975.5796,-402.9752 999.4692,-398.0009"/>
<polygon fill="#191970" stroke="#191970" points="920.6012,-410.8476 911.5247,-416.3127 922.0282,-417.7006 920.6012,-410.8476"/>
</g>
<!-- Node10 -->
<g id="node10" class="node">
<title>Node10</title>
<g id="a_node10"><a xlink:href="../../dc/db4/mongoose_8h.html#a00051e79a693bfb8ffb9c7849ce5a5d9" target="_top" xlink:title="mg_mgr_poll">
<polygon fill="none" stroke="#000000" points="1340,-416 1340,-436 1421,-436 1421,-416 1340,-416"/>
<text text-anchor="middle" x="1380.5" y="-423" font-family="FreeSans" font-size="10.00" fill="#000000">mg_mgr_poll</text>
</a>
</g>
</g>
<!-- Node6&#45;&gt;Node10 -->
<g id="edge16" class="edge">
<title>Node6&#45;&gt;Node10</title>
<path fill="none" stroke="#191970" d="M921.7318,-426C1026.5704,-426 1248.2756,-426 1339.7325,-426"/>
<polygon fill="#191970" stroke="#191970" points="921.6564,-422.5001 911.6564,-426 921.6563,-429.5001 921.6564,-422.5001"/>
</g>
<!-- Node9 -->
<g id="node9" class="node">
<title>Node9</title>
<g id="a_node9"><a xlink:href="../../d9/d3f/mongoose_8cc.html#af86d8e36360fe91924be0df71d3d399b" target="_top" xlink:title="mg_mgr_handle_conn">
<polygon fill="none" stroke="#000000" points="1153,-281 1153,-301 1280,-301 1280,-281 1153,-281"/>
<text text-anchor="middle" x="1216.5" y="-288" font-family="FreeSans" font-size="10.00" fill="#000000">mg_mgr_handle_conn</text>
</a>
</g>
</g>
<!-- Node8&#45;&gt;Node9 -->
<g id="edge8" class="edge">
<title>Node8&#45;&gt;Node9</title>
<path fill="none" stroke="#191970" d="M1102.1327,-374.5864C1106.5672,-372.9086 1110.9105,-371.0506 1115,-369 1151.9509,-350.4713 1188.7886,-317.6914 1206.1716,-301.1503"/>
<polygon fill="#191970" stroke="#191970" points="1100.6466,-371.397 1092.3421,-377.9761 1102.9369,-378.0117 1100.6466,-371.397"/>
</g>
<!-- Node9&#45;&gt;Node10 -->
<g id="edge9" class="edge">
<title>Node9&#45;&gt;Node10</title>
<path fill="none" stroke="#191970" d="M1236.781,-307.6947C1271.1577,-335.9926 1339.8739,-392.5578 1368.0303,-415.7353"/>
<polygon fill="#191970" stroke="#191970" points="1238.7717,-304.8002 1228.8267,-301.1469 1234.3229,-310.2046 1238.7717,-304.8002"/>
</g>
<!-- Node10&#45;&gt;Node7 -->
<g id="edge10" class="edge">
<title>Node10&#45;&gt;Node7</title>
<path fill="none" stroke="#191970" d="M1431.3115,-438.01C1454.5448,-443.5015 1481.7318,-449.9275 1503.7486,-455.1315"/>
<polygon fill="#191970" stroke="#191970" points="1431.8235,-434.5346 1421.2865,-435.6405 1430.2133,-441.3469 1431.8235,-434.5346"/>
</g>
<!-- Node10&#45;&gt;Node11 -->
<g id="edge11" class="edge">
<title>Node10&#45;&gt;Node11</title>
<path fill="none" stroke="#191970" d="M1431.5708,-426C1457.1838,-426 1487.5488,-426 1510.4872,-426"/>
<polygon fill="#191970" stroke="#191970" points="1431.2866,-422.5001 1421.2865,-426 1431.2865,-429.5001 1431.2866,-422.5001"/>
</g>
<!-- Node12 -->
<g id="node12" class="node">
<title>Node12</title>
<g id="a_node12"><a xlink:href="../../d2/dd5/rcdaq_8h.html#a78ebfa7caa9d07137b9a0d0ca64804d4" target="_top" xlink:title="daq_webcontrol">
<polygon fill="none" stroke="#000000" points="1663,-416 1663,-436 1759,-436 1759,-416 1663,-416"/>
<text text-anchor="middle" x="1711" y="-423" font-family="FreeSans" font-size="10.00" fill="#000000">daq_webcontrol</text>
</a>
</g>
</g>
<!-- Node11&#45;&gt;Node12 -->
<g id="edge12" class="edge">
<title>Node11&#45;&gt;Node12</title>
<path fill="none" stroke="#191970" d="M1590.822,-426C1613.1433,-426 1640.0677,-426 1662.7691,-426"/>
<polygon fill="#191970" stroke="#191970" points="1590.5983,-422.5001 1580.5983,-426 1590.5983,-429.5001 1590.5983,-422.5001"/>
</g>
<!-- Node13 -->
<g id="node13" class="node">
<title>Node13</title>
<g id="a_node13"><a xlink:href="../../d2/dd5/rcdaq_8h.html#ad6b66ddd247b28e67c79569922ee8f84" target="_top" xlink:title="rcdaq_init">
<polygon fill="none" stroke="#000000" points="1829,-436 1829,-456 1895,-456 1895,-436 1829,-436"/>
<text text-anchor="middle" x="1862" y="-443" font-family="FreeSans" font-size="10.00" fill="#000000">rcdaq_init</text>
</a>
</g>
</g>
<!-- Node12&#45;&gt;Node13 -->
<g id="edge13" class="edge">
<title>Node12&#45;&gt;Node13</title>
<path fill="none" stroke="#191970" d="M1769.2047,-433.7092C1789.309,-436.3721 1811.1424,-439.2639 1828.5775,-441.5732"/>
<polygon fill="#191970" stroke="#191970" points="1769.5655,-430.2265 1759.1925,-432.3831 1768.6463,-437.1659 1769.5655,-430.2265"/>
</g>
<!-- Node15 -->
<g id="node15" class="node">
<title>Node15</title>
<g id="a_node15"><a xlink:href="../../dd/de0/rcdaq__server_8cc.html#acdf9a931c1ea07db24abb8a2655309ca" target="_top" xlink:title="r_action_1_svc">
<polygon fill="none" stroke="#000000" points="1817,-397 1817,-417 1907,-417 1907,-397 1817,-397"/>
<text text-anchor="middle" x="1862" y="-404" font-family="FreeSans" font-size="10.00" fill="#000000">r_action_1_svc</text>
</a>
</g>
</g>
<!-- Node12&#45;&gt;Node15 -->
<g id="edge15" class="edge">
<title>Node12&#45;&gt;Node15</title>
<path fill="none" stroke="#191970" d="M1769.3624,-418.6564C1785.1157,-416.6742 1801.9198,-414.5598 1816.8309,-412.6835"/>
<polygon fill="#191970" stroke="#191970" points="1768.6773,-415.2149 1759.1925,-419.936 1769.5513,-422.1601 1768.6773,-415.2149"/>
</g>
<!-- Node14 -->
<g id="node14" class="node">
<title>Node14</title>
<g id="a_node14"><a xlink:href="../../d4/d18/rcdaq__frontend_8cc.html#a0ddf1224851353fc92bfbff6f499fa97" target="_top" xlink:title="main">
<polygon fill="none" stroke="#000000" points="1950,-436 1950,-456 1991,-456 1991,-436 1950,-436"/>
<text text-anchor="middle" x="1970.5" y="-443" font-family="FreeSans" font-size="10.00" fill="#000000">main</text>
</a>
</g>
</g>
<!-- Node13&#45;&gt;Node14 -->
<g id="edge14" class="edge">
<title>Node13&#45;&gt;Node14</title>
<path fill="none" stroke="#191970" d="M1905.4855,-446C1920.7906,-446 1937.2866,-446 1949.8326,-446"/>
<polygon fill="#191970" stroke="#191970" points="1905.1432,-442.5001 1895.1431,-446 1905.1431,-449.5001 1905.1432,-442.5001"/>
</g>
<!-- Node17 -->
<g id="node17" class="node">
<title>Node17</title>
<g id="a_node17"><a xlink:href="../../d9/d3f/mongoose_8cc.html#a787e54938e55e2a52d855f94343e9753" target="_top" xlink:title="mg_send_ssi_file">
<polygon fill="none" stroke="#000000" points="814.5,-106 814.5,-126 915.5,-126 915.5,-106 814.5,-106"/>
<text text-anchor="middle" x="865" y="-113" font-family="FreeSans" font-size="10.00" fill="#000000">mg_send_ssi_file</text>
</a>
</g>
</g>
<!-- Node16&#45;&gt;Node17 -->
<g id="edge18" class="edge">
<title>Node16&#45;&gt;Node17</title>
<path fill="none" stroke="#191970" d="M743.7028,-116C766.2954,-116 792.2095,-116 814.2696,-116"/>
<polygon fill="#191970" stroke="#191970" points="743.5819,-112.5001 733.5819,-116 743.5819,-119.5001 743.5819,-112.5001"/>
</g>
<!-- Node18 -->
<g id="node18" class="node">
<title>Node18</title>
<g id="a_node18"><a xlink:href="../../d9/d3f/mongoose_8cc.html#ade2d7e4404d2ba08e3847f430782d86a" target="_top" xlink:title="mg_do_ssi_include">
<polygon fill="none" stroke="#000000" points="992.5,-106 992.5,-126 1102.5,-126 1102.5,-106 992.5,-106"/>
<text text-anchor="middle" x="1047.5" y="-113" font-family="FreeSans" font-size="10.00" fill="#000000">mg_do_ssi_include</text>
</a>
</g>
</g>
<!-- Node17&#45;&gt;Node18 -->
<g id="edge19" class="edge">
<title>Node17&#45;&gt;Node18</title>
<path fill="none" stroke="#191970" d="M925.8492,-109.5946C947.3741,-109.0891 971.4471,-109.1397 992.4617,-109.7465"/>
<polygon fill="#191970" stroke="#191970" points="925.7339,-106.0964 915.8364,-109.8766 925.931,-113.0936 925.7339,-106.0964"/>
</g>
<!-- Node19 -->
<g id="node19" class="node">
<title>Node19</title>
<g id="a_node19"><a xlink:href="../../d9/d3f/mongoose_8cc.html#aaf026d437a1749ec1aea1479c4efe57d" target="_top" xlink:title="mg_handle_ssi_request">
<polygon fill="none" stroke="#000000" points="980,-67 980,-87 1115,-87 1115,-67 980,-67"/>
<text text-anchor="middle" x="1047.5" y="-74" font-family="FreeSans" font-size="10.00" fill="#000000">mg_handle_ssi_request</text>
</a>
</g>
</g>
<!-- Node17&#45;&gt;Node19 -->
<g id="edge21" class="edge">
<title>Node17&#45;&gt;Node19</title>
<path fill="none" stroke="#191970" d="M921.8414,-103.8531C947.1647,-98.4415 976.6301,-92.1448 1000.661,-87.0094"/>
<polygon fill="#191970" stroke="#191970" points="921.046,-100.4439 911.9983,-105.9565 922.5089,-107.2894 921.046,-100.4439"/>
</g>
<!-- Node18&#45;&gt;Node17 -->
<g id="edge20" class="edge">
<title>Node18&#45;&gt;Node17</title>
<path fill="none" stroke="#191970" d="M982.2695,-122.4999C960.4269,-122.9305 936.4136,-122.805 915.8364,-122.1234"/>
<polygon fill="#191970" stroke="#191970" points="982.5492,-125.9943 992.4617,-122.2535 982.38,-118.9963 982.5492,-125.9943"/>
</g>
<!-- Node20 -->
<g id="node20" class="node">
<title>Node20</title>
<g id="a_node20"><a xlink:href="../../d9/d3f/mongoose_8cc.html#ac73f55f08a8f7a02a6a4a14c48158bf6" target="_top" xlink:title="mg_http_send_file2">
<polygon fill="none" stroke="#000000" points="1159.5,-67 1159.5,-87 1273.5,-87 1273.5,-67 1159.5,-67"/>
<text text-anchor="middle" x="1216.5" y="-74" font-family="FreeSans" font-size="10.00" fill="#000000">mg_http_send_file2</text>
</a>
</g>
</g>
<!-- Node19&#45;&gt;Node20 -->
<g id="edge22" class="edge">
<title>Node19&#45;&gt;Node20</title>
<path fill="none" stroke="#191970" d="M1125.2747,-77C1136.738,-77 1148.3674,-77 1159.3119,-77"/>
<polygon fill="#191970" stroke="#191970" points="1125.265,-73.5001 1115.265,-77 1125.265,-80.5001 1125.265,-73.5001"/>
</g>
<!-- Node20&#45;&gt;Node2 -->
<g id="edge23" class="edge">
<title>Node20&#45;&gt;Node2</title>
<path fill="none" stroke="#191970" d="M1180.078,-63.5684C1116.8813,-41.5025 982.412,0 865,0 462.5,0 462.5,0 462.5,0 393.6512,0 314.5777,-7.0554 263.307,-12.5675"/>
<polygon fill="#191970" stroke="#191970" points="1179.0005,-66.8996 1189.5953,-66.9336 1181.3341,-60.3001 1179.0005,-66.8996"/>
</g>
<!-- Node21&#45;&gt;Node22 -->
<g id="edge25" class="edge">
<title>Node21&#45;&gt;Node22</title>
<path fill="none" stroke="#191970" d="M1117.7793,-584.6829C1133.5168,-582.8205 1149.9318,-580.8779 1164.7557,-579.1236"/>
<polygon fill="#191970" stroke="#191970" points="1117.0783,-581.2414 1107.5589,-585.8924 1117.901,-588.1929 1117.0783,-581.2414"/>
</g>
<!-- Node23 -->
<g id="node23" class="node">
<title>Node23</title>
<g id="a_node23"><a xlink:href="../../dc/db4/mongoose_8h.html#a9f8dc6ab99c0ffe17672edd78c6672be" target="_top" xlink:title="mg_set_protocol_http\l_websocket">
<polygon fill="none" stroke="#000000" points="1318,-557 1318,-589 1443,-589 1443,-557 1318,-557"/>
<text text-anchor="start" x="1326" y="-576" font-family="FreeSans" font-size="10.00" fill="#000000">mg_set_protocol_http</text>
<text text-anchor="middle" x="1380.5" y="-564" font-family="FreeSans" font-size="10.00" fill="#000000">_websocket</text>
</a>
</g>
</g>
<!-- Node22&#45;&gt;Node23 -->
<g id="edge26" class="edge">
<title>Node22&#45;&gt;Node23</title>
<path fill="none" stroke="#191970" d="M1278.5091,-573C1291.3446,-573 1304.876,-573 1317.7381,-573"/>
<polygon fill="#191970" stroke="#191970" points="1278.3907,-569.5001 1268.3906,-573 1278.3906,-576.5001 1278.3907,-569.5001"/>
</g>
<!-- Node23&#45;&gt;Node11 -->
<g id="edge32" class="edge">
<title>Node23&#45;&gt;Node11</title>
<path fill="none" stroke="#191970" d="M1393.7136,-547.706C1410.0077,-518.9393 1440.3522,-472.5331 1479,-446 1488.2434,-439.6541 1499.5471,-435.2794 1510.1943,-432.2813"/>
<polygon fill="#191970" stroke="#191970" points="1390.5005,-546.2846 1388.7347,-556.7313 1396.6297,-549.6659 1390.5005,-546.2846"/>
</g>
<!-- Node24 -->
<g id="node24" class="node">
<title>Node24</title>
<g id="a_node24"><a xlink:href="../../d9/d3f/mongoose_8cc.html#a4280102dc81f977a9d0631f9cd97dac5" target="_top" xlink:title="mg_connect_http_base">
<polygon fill="none" stroke="#000000" points="1479,-660 1479,-680 1612,-680 1612,-660 1479,-660"/>
<text text-anchor="middle" x="1545.5" y="-667" font-family="FreeSans" font-size="10.00" fill="#000000">mg_connect_http_base</text>
</a>
</g>
</g>
<!-- Node23&#45;&gt;Node24 -->
<g id="edge27" class="edge">
<title>Node23&#45;&gt;Node24</title>
<path fill="none" stroke="#191970" d="M1416.6161,-594.2319C1451.2541,-614.5948 1502.0519,-644.4578 1528.3332,-659.908"/>
<polygon fill="#191970" stroke="#191970" points="1418.1409,-591.0683 1407.7464,-589.0176 1414.5933,-597.1028 1418.1409,-591.0683"/>
</g>
<!-- Node25 -->
<g id="node25" class="node">
<title>Node25</title>
<g id="a_node25"><a xlink:href="../../dc/db4/mongoose_8h.html#a1b6f42a4c07dac32c1e08836ef5f3147" target="_top" xlink:title="mg_connect_http_opt">
<polygon fill="none" stroke="#000000" points="1648,-640 1648,-660 1774,-660 1774,-640 1648,-640"/>
<text text-anchor="middle" x="1711" y="-647" font-family="FreeSans" font-size="10.00" fill="#000000">mg_connect_http_opt</text>
</a>
</g>
</g>
<!-- Node24&#45;&gt;Node25 -->
<g id="edge28" class="edge">
<title>Node24&#45;&gt;Node25</title>
<path fill="none" stroke="#191970" d="M1622.3375,-660.7145C1630.9076,-659.6788 1639.5627,-658.6329 1647.9327,-657.6214"/>
<polygon fill="#191970" stroke="#191970" points="1621.846,-657.2483 1612.3381,-661.9229 1622.6858,-664.1978 1621.846,-657.2483"/>
</g>
<!-- Node27 -->
<g id="node27" class="node">
<title>Node27</title>
<g id="a_node27"><a xlink:href="../../dc/db4/mongoose_8h.html#a6cfaa54169e60507075f0aea598f63f2" target="_top" xlink:title="mg_connect_ws_opt">
<polygon fill="none" stroke="#000000" points="1652,-679 1652,-699 1770,-699 1770,-679 1652,-679"/>
<text text-anchor="middle" x="1711" y="-686" font-family="FreeSans" font-size="10.00" fill="#000000">mg_connect_ws_opt</text>
</a>
</g>
</g>
<!-- Node24&#45;&gt;Node27 -->
<g id="edge30" class="edge">
<title>Node24&#45;&gt;Node27</title>
<path fill="none" stroke="#191970" d="M1622.5551,-678.8462C1632.4196,-679.9787 1642.3926,-681.1236 1651.9097,-682.2162"/>
<polygon fill="#191970" stroke="#191970" points="1622.6721,-675.3367 1612.3381,-677.6733 1621.8737,-682.2911 1622.6721,-675.3367"/>
</g>
<!-- Node26 -->
<g id="node26" class="node">
<title>Node26</title>
<g id="a_node26"><a xlink:href="../../dc/db4/mongoose_8h.html#a9ba95ce24771109d3d459f352c6e7084" target="_top" xlink:title="mg_connect_http">
<polygon fill="none" stroke="#000000" points="1810,-640 1810,-660 1914,-660 1914,-640 1810,-640"/>
<text text-anchor="middle" x="1862" y="-647" font-family="FreeSans" font-size="10.00" fill="#000000">mg_connect_http</text>
</a>
</g>
</g>
<!-- Node25&#45;&gt;Node26 -->
<g id="edge29" class="edge">
<title>Node25&#45;&gt;Node26</title>
<path fill="none" stroke="#191970" d="M1784.1897,-650C1792.7695,-650 1801.389,-650 1809.6047,-650"/>
<polygon fill="#191970" stroke="#191970" points="1784.1627,-646.5001 1774.1627,-650 1784.1626,-653.5001 1784.1627,-646.5001"/>
</g>
<!-- Node28 -->
<g id="node28" class="node">
<title>Node28</title>
<g id="a_node28"><a xlink:href="../../dc/db4/mongoose_8h.html#a4c424adde8f69b559131a6be77100705" target="_top" xlink:title="mg_connect_ws">
<polygon fill="none" stroke="#000000" points="1814,-679 1814,-699 1910,-699 1910,-679 1814,-679"/>
<text text-anchor="middle" x="1862" y="-686" font-family="FreeSans" font-size="10.00" fill="#000000">mg_connect_ws</text>
</a>
</g>
</g>
<!-- Node27&#45;&gt;Node28 -->
<g id="edge31" class="edge">
<title>Node27&#45;&gt;Node28</title>
<path fill="none" stroke="#191970" d="M1780.4618,-689C1791.6717,-689 1803.0602,-689 1813.6305,-689"/>
<polygon fill="#191970" stroke="#191970" points="1780.2458,-685.5001 1770.2458,-689 1780.2458,-692.5001 1780.2458,-685.5001"/>
</g>
<!-- Node30 -->
<g id="node30" class="node">
<title>Node30</title>
<g id="a_node30"><a xlink:href="../../d9/d3f/mongoose_8cc.html#acd45a802bd42c85a7783e2bc1c7b5cfe" target="_top" xlink:title="mg_deliver_websocket_data">
<polygon fill="none" stroke="#000000" points="786,-545 786,-565 944,-565 944,-545 786,-545"/>
<text text-anchor="middle" x="865" y="-552" font-family="FreeSans" font-size="10.00" fill="#000000">mg_deliver_websocket_data</text>
</a>
</g>
</g>
<!-- Node29&#45;&gt;Node30 -->
<g id="edge34" class="edge">
<title>Node29&#45;&gt;Node30</title>
<path fill="none" stroke="#191970" d="M760.4688,-551.4566C768.8177,-551.7396 777.3634,-552.0293 785.7954,-552.3151"/>
<polygon fill="#191970" stroke="#191970" points="760.5164,-547.9563 750.4036,-551.1154 760.2792,-554.9523 760.5164,-547.9563"/>
</g>
<!-- Node30&#45;&gt;Node31 -->
<g id="edge35" class="edge">
<title>Node30&#45;&gt;Node31</title>
<path fill="none" stroke="#191970" d="M954.281,-554.5108C962.8496,-554.4638 971.4414,-554.4168 979.754,-554.3712"/>
<polygon fill="#191970" stroke="#191970" points="954.2316,-551.0109 944.2509,-554.5657 954.27,-558.0108 954.2316,-551.0109"/>
</g>
<!-- Node31&#45;&gt;Node22 -->
<g id="edge36" class="edge">
<title>Node31&#45;&gt;Node22</title>
<path fill="none" stroke="#191970" d="M1125.4254,-562.7608C1138.7977,-564.2642 1152.3909,-565.7925 1164.8546,-567.1937"/>
<polygon fill="#191970" stroke="#191970" points="1125.5934,-559.2578 1115.265,-561.6185 1124.8113,-566.2139 1125.5934,-559.2578"/>
</g>
<!-- Node32&#45;&gt;Node22 -->
<g id="edge38" class="edge">
<title>Node32&#45;&gt;Node22</title>
<path fill="none" stroke="#191970" d="M940.3061,-488.0425C990.2389,-499.8891 1056.9972,-516.7761 1115,-535 1141.5672,-543.3472 1171.3403,-554.7436 1191.7329,-562.8737"/>
<polygon fill="#191970" stroke="#191970" points="941.0879,-484.6309 930.5514,-485.7414 939.4807,-491.4439 941.0879,-484.6309"/>
</g>
<!-- Node33&#45;&gt;Node8 -->
<g id="edge41" class="edge">
<title>Node33&#45;&gt;Node8</title>
<path fill="none" stroke="#191970" d="M745.0769,-323.2251C815.8566,-338.3851 935.1652,-363.9394 1000.7753,-377.9922"/>
<polygon fill="#191970" stroke="#191970" points="745.5096,-319.7385 734.9983,-321.0664 744.0435,-326.5832 745.5096,-319.7385"/>
</g>
<!-- Node34&#45;&gt;Node9 -->
<g id="edge43" class="edge">
<title>Node34&#45;&gt;Node9</title>
<path fill="none" stroke="#191970" d="M928.2935,-275.4213C991.8594,-278.8573 1089.2646,-284.1224 1152.9287,-287.5637"/>
<polygon fill="#191970" stroke="#191970" points="928.178,-271.91 918.0037,-274.8651 927.8002,-278.8998 928.178,-271.91"/>
</g>
<!-- Node35&#45;&gt;Node9 -->
<g id="edge45" class="edge">
<title>Node35&#45;&gt;Node9</title>
<path fill="none" stroke="#191970" d="M731.5997,-235.8167C782.5897,-239.2474 869.5113,-245.5201 944,-253 1020.1878,-260.6505 1039.2223,-263.0064 1115,-274 1129.4107,-276.0907 1144.9332,-278.5731 1159.3989,-280.9861"/>
<polygon fill="#191970" stroke="#191970" points="731.7994,-232.3223 721.5885,-235.1486 731.3333,-239.3068 731.7994,-232.3223"/>
</g>
<!-- Node37 -->
<g id="node37" class="node">
<title>Node37</title>
<g id="a_node37"><a xlink:href="../../d9/d3f/mongoose_8cc.html#a6d625ffb1fbff69999b6d3764188a47a" target="_top" xlink:title="mg_handle_udp_read">
<polygon fill="none" stroke="#000000" points="985.5,-184 985.5,-204 1109.5,-204 1109.5,-184 985.5,-184"/>
<text text-anchor="middle" x="1047.5" y="-191" font-family="FreeSans" font-size="10.00" fill="#000000">mg_handle_udp_read</text>
</a>
</g>
</g>
<!-- Node36&#45;&gt;Node37 -->
<g id="edge47" class="edge">
<title>Node36&#45;&gt;Node37</title>
<path fill="none" stroke="#191970" d="M931.4438,-194C949.0648,-194 968.0214,-194 985.4014,-194"/>
<polygon fill="#191970" stroke="#191970" points="931.2452,-190.5001 921.2452,-194 931.2451,-197.5001 931.2452,-190.5001"/>
</g>
<!-- Node37&#45;&gt;Node9 -->
<g id="edge48" class="edge">
<title>Node37&#45;&gt;Node9</title>
<path fill="none" stroke="#191970" d="M1089.4202,-207.5778C1098.0624,-210.9133 1106.9711,-214.7602 1115,-219 1149.5796,-237.2601 1186.0006,-265.6916 1204.3731,-280.7834"/>
<polygon fill="#191970" stroke="#191970" points="1090.4303,-204.2198 1079.8371,-204.0355 1088.0033,-210.7856 1090.4303,-204.2198"/>
</g>
<!-- Node39 -->
<g id="node39" class="node">
<title>Node39</title>
<g id="a_node39"><a xlink:href="../../d9/d3f/mongoose_8cc.html#a2e8c5d40a60cac84806d99ec4294b920" target="_top" xlink:title="mg_write_to_socket">
<polygon fill="none" stroke="#000000" points="989.5,-339 989.5,-359 1105.5,-359 1105.5,-339 989.5,-339"/>
<text text-anchor="middle" x="1047.5" y="-346" font-family="FreeSans" font-size="10.00" fill="#000000">mg_write_to_socket</text>
</a>
</g>
</g>
<!-- Node38&#45;&gt;Node39 -->
<g id="edge50" class="edge">
<title>Node38&#45;&gt;Node39</title>
<path fill="none" stroke="#191970" d="M742.4295,-384.0007C794.2932,-379.1121 874.5437,-371.2223 944,-363 958.6754,-361.2627 974.4967,-359.2126 989.2469,-357.225"/>
<polygon fill="#191970" stroke="#191970" points="742.076,-380.5184 732.4468,-384.9377 742.7302,-387.4878 742.076,-380.5184"/>
</g>
<!-- Node39&#45;&gt;Node9 -->
<g id="edge51" class="edge">
<title>Node39&#45;&gt;Node9</title>
<path fill="none" stroke="#191970" d="M1086.4635,-335.6279C1117.139,-325.1002 1159.2309,-310.6545 1187.1168,-301.0842"/>
<polygon fill="#191970" stroke="#191970" points="1085.2599,-332.3405 1076.9376,-338.8972 1087.5322,-338.9615 1085.2599,-332.3405"/>
</g>
<!-- Node40&#45;&gt;Node9 -->
<g id="edge53" class="edge">
<title>Node40&#45;&gt;Node9</title>
<path fill="none" stroke="#191970" d="M735.9624,-344.6456C831.4358,-333.9873 1045.2836,-310.114 1152.5615,-298.1379"/>
<polygon fill="#191970" stroke="#191970" points="735.5583,-341.1689 726.0084,-345.7569 736.335,-348.1257 735.5583,-341.1689"/>
</g>
<!-- Node41&#45;&gt;Node36 -->
<g id="edge58" class="edge">
<title>Node41&#45;&gt;Node36</title>
<path fill="none" stroke="#191970" d="M743.4546,-167.2188C767.9413,-172.6142 796.369,-178.8779 819.5726,-183.9906"/>
<polygon fill="#191970" stroke="#191970" points="744.1008,-163.7773 733.5819,-165.0435 742.5945,-170.6133 744.1008,-163.7773"/>
</g>
<!-- Node42 -->
<g id="node42" class="node">
<title>Node42</title>
<g id="a_node42"><a xlink:href="../../dc/db4/mongoose_8h.html#a54f0ce88dc4828e43c26d32d3e947f70" target="_top" xlink:title="mg_if_recv_tcp_cb">
<polygon fill="none" stroke="#000000" points="810.5,-145 810.5,-165 919.5,-165 919.5,-145 810.5,-145"/>
<text text-anchor="middle" x="865" y="-152" font-family="FreeSans" font-size="10.00" fill="#000000">mg_if_recv_tcp_cb</text>
</a>
</g>
</g>
<!-- Node41&#45;&gt;Node42 -->
<g id="edge55" class="edge">
<title>Node41&#45;&gt;Node42</title>
<path fill="none" stroke="#191970" d="M752.1685,-155C771.2387,-155 791.9431,-155 810.348,-155"/>
<polygon fill="#191970" stroke="#191970" points="752.0676,-151.5001 742.0676,-155 752.0676,-158.5001 752.0676,-151.5001"/>
</g>
<!-- Node43 -->
<g id="node43" class="node">
<title>Node43</title>
<g id="a_node43"><a xlink:href="../../d9/d3f/mongoose_8cc.html#a9c68f7991bf4d4112786bcb5116792f2" target="_top" xlink:title="mg_read_from_socket">
<polygon fill="none" stroke="#000000" points="984,-145 984,-165 1111,-165 1111,-145 984,-145"/>
<text text-anchor="middle" x="1047.5" y="-152" font-family="FreeSans" font-size="10.00" fill="#000000">mg_read_from_socket</text>
</a>
</g>
</g>
<!-- Node42&#45;&gt;Node43 -->
<g id="edge56" class="edge">
<title>Node42&#45;&gt;Node43</title>
<path fill="none" stroke="#191970" d="M929.8857,-155C947.4056,-155 966.344,-155 983.7985,-155"/>
<polygon fill="#191970" stroke="#191970" points="929.7561,-151.5001 919.756,-155 929.756,-158.5001 929.7561,-151.5001"/>
</g>
<!-- Node43&#45;&gt;Node9 -->
<g id="edge57" class="edge">
<title>Node43&#45;&gt;Node9</title>
<path fill="none" stroke="#191970" d="M1103.5508,-168.839C1107.5478,-170.6551 1111.4114,-172.6998 1115,-175 1160.0581,-203.8815 1196.6636,-258.4364 1210.5224,-280.9222"/>
<polygon fill="#191970" stroke="#191970" points="1104.632,-165.5011 1094.0489,-165.0037 1102.0119,-171.9923 1104.632,-165.5011"/>
</g>
<!-- Node45 -->
<g id="node45" class="node">
<title>Node45</title>
<g id="a_node45"><a xlink:href="../../dc/db4/mongoose_8h.html#a7ab8fee21a1e5c838b16a09250733306" target="_top" xlink:title="mg_connect_opt">
<polygon fill="none" stroke="#000000" points="815,-690 815,-710 915,-710 915,-690 815,-690"/>
<text text-anchor="middle" x="865" y="-697" font-family="FreeSans" font-size="10.00" fill="#000000">mg_connect_opt</text>
</a>
</g>
</g>
<!-- Node44&#45;&gt;Node45 -->
<g id="edge61" class="edge">
<title>Node44&#45;&gt;Node45</title>
<path fill="none" stroke="#191970" d="M733.6596,-685.9013C758.5419,-688.5723 789.3786,-691.8825 814.9185,-694.624"/>
<polygon fill="#191970" stroke="#191970" points="733.7097,-682.3867 723.3932,-684.7993 732.9625,-689.3467 733.7097,-682.3867"/>
</g>
<!-- Node45&#45;&gt;Node24 -->
<g id="edge66" class="edge">
<title>Node45&#45;&gt;Node24</title>
<path fill="none" stroke="#191970" d="M925.2214,-708.9691C1031.0611,-722.9805 1256.8686,-745.0318 1443,-710 1473.2238,-704.3116 1505.9729,-689.9572 1526.1166,-680.0869"/>
<polygon fill="#191970" stroke="#191970" points="925.431,-705.4658 915.0531,-707.5986 924.4959,-712.4031 925.431,-705.4658"/>
</g>
<!-- Node46 -->
<g id="node46" class="node">
<title>Node46</title>
<g id="a_node46"><a xlink:href="../../dc/db4/mongoose_8h.html#a371426fed76be8a8a99c1c25ae62887c" target="_top" xlink:title="mg_connect">
<polygon fill="none" stroke="#000000" points="1008.5,-661 1008.5,-681 1086.5,-681 1086.5,-661 1008.5,-661"/>
<text text-anchor="middle" x="1047.5" y="-668" font-family="FreeSans" font-size="10.00" fill="#000000">mg_connect</text>
</a>
</g>
</g>
<!-- Node45&#45;&gt;Node46 -->
<g id="edge62" class="edge">
<title>Node45&#45;&gt;Node46</title>
<path fill="none" stroke="#191970" d="M925.5697,-690.3752C952.8194,-686.0451 984.2003,-681.0586 1008.3019,-677.2287"/>
<polygon fill="#191970" stroke="#191970" points="924.6788,-686.9728 915.352,-691.9989 925.7774,-693.8861 924.6788,-686.9728"/>
</g>
<!-- Node47 -->
<g id="node47" class="node">
<title>Node47</title>
<g id="a_node47"><a xlink:href="../../dc/db4/mongoose_8h.html#a1db131b77c3d3046fc7aa7577b52dfae" target="_top" xlink:title="mg_resolve_async_opt">
<polygon fill="none" stroke="#000000" points="1151,-680 1151,-700 1282,-700 1282,-680 1151,-680"/>
<text text-anchor="middle" x="1216.5" y="-687" font-family="FreeSans" font-size="10.00" fill="#000000">mg_resolve_async_opt</text>
</a>
</g>
</g>
<!-- Node46&#45;&gt;Node47 -->
<g id="edge63" class="edge">
<title>Node46&#45;&gt;Node47</title>
<path fill="none" stroke="#191970" d="M1096.8552,-676.5488C1113.6897,-678.4415 1132.7889,-680.5887 1150.7065,-682.6031"/>
<polygon fill="#191970" stroke="#191970" points="1097.0252,-673.046 1086.6968,-675.4067 1096.2431,-680.0021 1097.0252,-673.046"/>
</g>
<!-- Node47&#45;&gt;Node45 -->
<g id="edge64" class="edge">
<title>Node47&#45;&gt;Node45</title>
<path fill="none" stroke="#191970" d="M1140.7123,-692.1561C1072.5433,-694.0955 974.3145,-696.8901 915.3614,-698.5672"/>
<polygon fill="#191970" stroke="#191970" points="1141.0671,-695.6475 1150.9635,-691.8645 1140.868,-688.6504 1141.0671,-695.6475"/>
</g>
<!-- Node48 -->
<g id="node48" class="node">
<title>Node48</title>
<g id="a_node48"><a xlink:href="../../dc/db4/mongoose_8h.html#a32b1220140b7bcee01f64ac254237f0d" target="_top" xlink:title="mg_resolve_async">
<polygon fill="none" stroke="#000000" points="1326,-680 1326,-700 1435,-700 1435,-680 1326,-680"/>
<text text-anchor="middle" x="1380.5" y="-687" font-family="FreeSans" font-size="10.00" fill="#000000">mg_resolve_async</text>
</a>
</g>
</g>
<!-- Node47&#45;&gt;Node48 -->
<g id="edge65" class="edge">
<title>Node47&#45;&gt;Node48</title>
<path fill="none" stroke="#191970" d="M1292.5017,-690C1303.7262,-690 1315.1014,-690 1325.78,-690"/>
<polygon fill="#191970" stroke="#191970" points="1292.2601,-686.5001 1282.2601,-690 1292.2601,-693.5001 1292.2601,-686.5001"/>
</g>
</g>
</svg>
