<?xml version="1.0" encoding="UTF-8" standalone="no"?>
<!DOCTYPE svg PUBLIC "-//W3C//DTD SVG 1.1//EN"
 "http://www.w3.org/Graphics/SVG/1.1/DTD/svg11.dtd">
<!-- Generated by graphviz version 2.40.1 (20161225.0304)
 -->
<!-- Title: cur Pages: 1 -->
<svg width="1231pt" height="646pt"
 viewBox="0.00 0.00 1231.00 646.00" xmlns="http://www.w3.org/2000/svg" xmlns:xlink="http://www.w3.org/1999/xlink">
<g id="graph0" class="graph" transform="scale(1 1) rotate(0) translate(4 642)">
<title>cur</title>
<!-- Node1 -->
<g id="node1" class="node">
<title>Node1</title>
<polygon fill="#bfbfbf" stroke="#000000" points="0,-403.5 0,-423.5 33,-423.5 33,-403.5 0,-403.5"/>
<text text-anchor="middle" x="16.5" y="-410.5" font-family="FreeSans" font-size="10.00" fill="#000000">cur</text>
</g>
<!-- Node2 -->
<g id="node2" class="node">
<title>Node2</title>
<g id="a_node2"><a xlink:href="../../d0/d8e/classplanarity.html#a6eda46f0aedd2fe3503b0b2829863d50" target="_top" xlink:title="planarity::case_A">
<polygon fill="none" stroke="#000000" points="78,-617.5 78,-637.5 181,-637.5 181,-617.5 78,-617.5"/>
<text text-anchor="middle" x="129.5" y="-624.5" font-family="FreeSans" font-size="10.00" fill="#000000">planarity::case_A</text>
</a>
</g>
</g>
<!-- Node1&#45;&gt;Node2 -->
<g id="edge1" class="edge">
<title>Node1&#45;&gt;Node2</title>
<path fill="none" stroke="#191970" d="M19.4481,-433.7479C26.3282,-478.3646 44.7206,-583.1965 69,-608.5 72.5063,-612.1542 76.7059,-615.1086 81.2364,-617.4967"/>
<polygon fill="#191970" stroke="#191970" points="22.8984,-433.1554 17.9504,-423.787 15.9763,-434.1963 22.8984,-433.1554"/>
</g>
<!-- Node6 -->
<g id="node6" class="node">
<title>Node6</title>
<g id="a_node6"><a xlink:href="../../d0/d8e/classplanarity.html#a0218e3db9d0ff3a27a03a992c22d0562" target="_top" xlink:title="planarity::case_D">
<polygon fill="none" stroke="#000000" points="78,-578.5 78,-598.5 181,-598.5 181,-578.5 78,-578.5"/>
<text text-anchor="middle" x="129.5" y="-585.5" font-family="FreeSans" font-size="10.00" fill="#000000">planarity::case_D</text>
</a>
</g>
</g>
<!-- Node1&#45;&gt;Node6 -->
<g id="edge5" class="edge">
<title>Node1&#45;&gt;Node6</title>
<path fill="none" stroke="#191970" d="M17.6109,-433.7355C20.5171,-466.7612 31.0235,-532.288 69,-569.5 72.6958,-573.1214 77.0739,-576.0535 81.759,-578.4274"/>
<polygon fill="#191970" stroke="#191970" points="21.0834,-433.2289 16.8674,-423.509 14.1019,-433.7366 21.0834,-433.2289"/>
</g>
<!-- Node7 -->
<g id="node7" class="node">
<title>Node7</title>
<g id="a_node7"><a xlink:href="../../da/d17/classHelixHough.html#ad7c3093f1ae8992dffb85324b87c56b1" target="_top" xlink:title="HelixHough::fillBins">
<polygon fill="none" stroke="#000000" points="71.5,-539.5 71.5,-559.5 187.5,-559.5 187.5,-539.5 71.5,-539.5"/>
<text text-anchor="middle" x="129.5" y="-546.5" font-family="FreeSans" font-size="10.00" fill="#000000">HelixHough::fillBins</text>
</a>
</g>
</g>
<!-- Node1&#45;&gt;Node7 -->
<g id="edge7" class="edge">
<title>Node1&#45;&gt;Node7</title>
<path fill="none" stroke="#191970" d="M20.1959,-433.4531C26.0393,-459.4456 39.8801,-504.6151 69,-530.5 73.1142,-534.1571 77.9291,-537.1105 83.0142,-539.4954"/>
<polygon fill="#191970" stroke="#191970" points="23.6112,-432.6847 18.16,-423.5998 16.756,-434.1011 23.6112,-432.6847"/>
</g>
<!-- Node8 -->
<g id="node8" class="node">
<title>Node8</title>
<g id="a_node8"><a xlink:href="../../d9/d3f/mongoose_8cc.html#a47e7d2b08e29263d7f08ab4259f40afb" target="_top" xlink:title="parse_array">
<polygon fill="none" stroke="#000000" points="257,-462.5 257,-482.5 333,-482.5 333,-462.5 257,-462.5"/>
<text text-anchor="middle" x="295" y="-469.5" font-family="FreeSans" font-size="10.00" fill="#000000">parse_array</text>
</a>
</g>
</g>
<!-- Node1&#45;&gt;Node8 -->
<g id="edge8" class="edge">
<title>Node1&#45;&gt;Node8</title>
<path fill="none" stroke="#191970" d="M36.7331,-429.7668C46.0312,-436.3783 57.528,-443.4105 69,-447.5 132.026,-469.9675 210.6677,-473.6428 256.6165,-473.5614"/>
<polygon fill="#191970" stroke="#191970" points="38.6714,-426.8461 28.5649,-423.6667 34.4829,-432.4546 38.6714,-426.8461"/>
</g>
<!-- Node9 -->
<g id="node9" class="node">
<title>Node9</title>
<g id="a_node9"><a xlink:href="../../d9/d3f/mongoose_8cc.html#a2ea7bfb8b2e69b6844bac822a46a7d8b" target="_top" xlink:title="parse_value">
<polygon fill="none" stroke="#000000" points="446,-423.5 446,-443.5 523,-443.5 523,-423.5 446,-423.5"/>
<text text-anchor="middle" x="484.5" y="-430.5" font-family="FreeSans" font-size="10.00" fill="#000000">parse_value</text>
</a>
</g>
</g>
<!-- Node1&#45;&gt;Node9 -->
<g id="edge29" class="edge">
<title>Node1&#45;&gt;Node9</title>
<path fill="none" stroke="#191970" d="M43.2279,-414.6422C122.0037,-418.0087 353.5231,-427.9027 445.8471,-431.8482"/>
<polygon fill="#191970" stroke="#191970" points="43.2967,-411.1421 33.1564,-414.2118 42.9978,-418.1357 43.2967,-411.1421"/>
</g>
<!-- Node11 -->
<g id="node11" class="node">
<title>Node11</title>
<g id="a_node11"><a xlink:href="../../d9/d3f/mongoose_8cc.html#a3e189ea18bf0550e8fbcda97df4661f6" target="_top" xlink:title="parse_object">
<polygon fill="none" stroke="#000000" points="725,-325.5 725,-345.5 806,-345.5 806,-325.5 725,-325.5"/>
<text text-anchor="middle" x="765.5" y="-332.5" font-family="FreeSans" font-size="10.00" fill="#000000">parse_object</text>
</a>
</g>
</g>
<!-- Node1&#45;&gt;Node11 -->
<g id="edge28" class="edge">
<title>Node1&#45;&gt;Node11</title>
<path fill="none" stroke="#191970" d="M19.2365,-393.2272C25.6329,-349.0739 43.0164,-246.4139 69,-224.5 146.1796,-159.4087 194.0367,-201.5 295,-201.5 295,-201.5 295,-201.5 484.5,-201.5 599.6217,-201.5 717.7032,-294.265 754.1233,-325.4282"/>
<polygon fill="#191970" stroke="#191970" points="15.7417,-392.9463 17.8175,-403.3358 22.6738,-393.9195 15.7417,-392.9463"/>
</g>
<!-- Node19 -->
<g id="node19" class="node">
<title>Node19</title>
<g id="a_node19"><a xlink:href="../../d9/d3f/mongoose_8cc.html#a859037cb9048770731cd892cf8da0270" target="_top" xlink:title="parse_identifier">
<polygon fill="none" stroke="#000000" points="247,-230.5 247,-250.5 343,-250.5 343,-230.5 247,-230.5"/>
<text text-anchor="middle" x="295" y="-237.5" font-family="FreeSans" font-size="10.00" fill="#000000">parse_identifier</text>
</a>
</g>
</g>
<!-- Node1&#45;&gt;Node19 -->
<g id="edge22" class="edge">
<title>Node1&#45;&gt;Node19</title>
<path fill="none" stroke="#191970" d="M20.8404,-393.4939C29.1867,-356.9747 48.4727,-281.7643 69,-265.5 119.2786,-225.6631 196.7885,-226.3272 246.7001,-232.1264"/>
<polygon fill="#191970" stroke="#191970" points="17.3747,-392.9549 18.6122,-403.4772 24.2066,-394.4798 17.3747,-392.9549"/>
</g>
<!-- Node20 -->
<g id="node20" class="node">
<title>Node20</title>
<g id="a_node20"><a xlink:href="../../d9/d3f/mongoose_8cc.html#a08cbe8cd1985bd641d93c5de289a6e85" target="_top" xlink:title="parse_key">
<polygon fill="none" stroke="#000000" points="451,-268.5 451,-288.5 518,-288.5 518,-268.5 451,-268.5"/>
<text text-anchor="middle" x="484.5" y="-275.5" font-family="FreeSans" font-size="10.00" fill="#000000">parse_key</text>
</a>
</g>
</g>
<!-- Node1&#45;&gt;Node20 -->
<g id="edge25" class="edge">
<title>Node1&#45;&gt;Node20</title>
<path fill="none" stroke="#191970" d="M36.8595,-397.0116C46.2883,-389.8434 57.8531,-381.6884 69,-375.5 134.8809,-338.925 153.1226,-330.655 226,-311.5 304.9805,-290.7409 401.0956,-282.8499 450.9188,-280.0011"/>
<polygon fill="#191970" stroke="#191970" points="34.6118,-394.3259 28.874,-403.2326 38.9137,-399.848 34.6118,-394.3259"/>
</g>
<!-- Node21 -->
<g id="node21" class="node">
<title>Node21</title>
<g id="a_node21"><a xlink:href="../../d9/d3f/mongoose_8cc.html#a4da93e9ea267c61961b1aab4fd6f0027" target="_top" xlink:title="parse_number">
<polygon fill="none" stroke="#000000" points="84.5,-500.5 84.5,-520.5 174.5,-520.5 174.5,-500.5 84.5,-500.5"/>
<text text-anchor="middle" x="129.5" y="-507.5" font-family="FreeSans" font-size="10.00" fill="#000000">parse_number</text>
</a>
</g>
</g>
<!-- Node1&#45;&gt;Node21 -->
<g id="edge26" class="edge">
<title>Node1&#45;&gt;Node21</title>
<path fill="none" stroke="#191970" d="M26.5346,-432.7038C35.7264,-448.6896 50.6708,-471.0884 69,-485.5 76.9513,-491.7518 86.6863,-496.6783 96.0037,-500.4453"/>
<polygon fill="#191970" stroke="#191970" points="29.4685,-430.776 21.5759,-423.7079 23.3381,-434.1552 29.4685,-430.776"/>
</g>
<!-- Node22 -->
<g id="node22" class="node">
<title>Node22</title>
<g id="a_node22"><a xlink:href="../../d0/da7/namespacetesting_1_1internal.html#a0be71e6d7cb274131c559193f81c83e2" target="_top" xlink:title="testing::internal::\lPrintCharsAsStringTo">
<polygon fill="none" stroke="#000000" points="69,-77.5 69,-109.5 190,-109.5 190,-77.5 69,-77.5"/>
<text text-anchor="start" x="77" y="-96.5" font-family="FreeSans" font-size="10.00" fill="#000000">testing::internal::</text>
<text text-anchor="middle" x="129.5" y="-84.5" font-family="FreeSans" font-size="10.00" fill="#000000">PrintCharsAsStringTo</text>
</a>
</g>
</g>
<!-- Node1&#45;&gt;Node22 -->
<g id="edge30" class="edge">
<title>Node1&#45;&gt;Node22</title>
<path fill="none" stroke="#191970" d="M18.8683,-393.3952C25.4948,-339.2945 45.2994,-191.8556 69,-149.5 77.9458,-133.5128 93.0708,-119.5128 105.9594,-109.5096"/>
<polygon fill="#191970" stroke="#191970" points="15.378,-393.1048 17.6576,-403.4515 22.3279,-393.9416 15.378,-393.1048"/>
</g>
<!-- Node27 -->
<g id="node27" class="node">
<title>Node27</title>
<g id="a_node27"><a xlink:href="../../d9/d3f/mongoose_8cc.html#a9baca084c5961009a7a9db34e28fabc6" target="_top" xlink:title="test_and_skip">
<polygon fill="none" stroke="#000000" points="87,-384.5 87,-404.5 172,-404.5 172,-384.5 87,-384.5"/>
<text text-anchor="middle" x="129.5" y="-391.5" font-family="FreeSans" font-size="10.00" fill="#000000">test_and_skip</text>
</a>
</g>
</g>
<!-- Node1&#45;&gt;Node27 -->
<g id="edge35" class="edge">
<title>Node1&#45;&gt;Node27</title>
<path fill="none" stroke="#191970" d="M43.3159,-408.9911C56.322,-406.8043 72.2589,-404.1246 86.8752,-401.667"/>
<polygon fill="#191970" stroke="#191970" points="42.4547,-405.5867 33.1735,-410.6965 43.6155,-412.4898 42.4547,-405.5867"/>
</g>
<!-- Node29 -->
<g id="node29" class="node">
<title>Node29</title>
<g id="a_node29"><a xlink:href="../../d9/d3f/mongoose_8cc.html#ac676d3b24f79ce4f5312d02f9e1a0669" target="_top" xlink:title="test_no_skip">
<polygon fill="none" stroke="#000000" points="726,-229.5 726,-249.5 805,-249.5 805,-229.5 726,-229.5"/>
<text text-anchor="middle" x="765.5" y="-236.5" font-family="FreeSans" font-size="10.00" fill="#000000">test_no_skip</text>
</a>
</g>
</g>
<!-- Node1&#45;&gt;Node29 -->
<g id="edge42" class="edge">
<title>Node1&#45;&gt;Node29</title>
<path fill="none" stroke="#191970" d="M18.1233,-393.3813C22.6637,-342.5726 37.2929,-211.1594 69,-183.5 144.9876,-117.2128 194.163,-163.5 295,-163.5 295,-163.5 295,-163.5 484.5,-163.5 584.3116,-163.5 697.3649,-208.7343 743.8217,-229.4078"/>
<polygon fill="#191970" stroke="#191970" points="14.6274,-393.1847 17.2632,-403.4464 21.602,-393.7807 14.6274,-393.1847"/>
</g>
<!-- Node3 -->
<g id="node3" class="node">
<title>Node3</title>
<g id="a_node3"><a xlink:href="../../d0/d8e/classplanarity.html#aafb22067f085cff4e9088e0ca17da8fe" target="_top" xlink:title="planarity::examine\l_obstruction">
<polygon fill="none" stroke="#000000" points="239.5,-591.5 239.5,-623.5 350.5,-623.5 350.5,-591.5 239.5,-591.5"/>
<text text-anchor="start" x="247.5" y="-610.5" font-family="FreeSans" font-size="10.00" fill="#000000">planarity::examine</text>
<text text-anchor="middle" x="295" y="-598.5" font-family="FreeSans" font-size="10.00" fill="#000000">_obstruction</text>
</a>
</g>
</g>
<!-- Node2&#45;&gt;Node3 -->
<g id="edge2" class="edge">
<title>Node2&#45;&gt;Node3</title>
<path fill="none" stroke="#191970" d="M191.5287,-620.0041C207.1962,-618.1107 223.923,-616.0894 239.2594,-614.236"/>
<polygon fill="#191970" stroke="#191970" points="190.919,-616.5522 181.4112,-621.2267 191.7589,-623.5017 190.919,-616.5522"/>
</g>
<!-- Node4 -->
<g id="node4" class="node">
<title>Node4</title>
<g id="a_node4"><a xlink:href="../../d0/d8e/classplanarity.html#a0a1949c82648889d188b2e748bc461da" target="_top" xlink:title="planarity::run_on_biconnected">
<polygon fill="none" stroke="#000000" points="400,-597.5 400,-617.5 569,-617.5 569,-597.5 400,-597.5"/>
<text text-anchor="middle" x="484.5" y="-604.5" font-family="FreeSans" font-size="10.00" fill="#000000">planarity::run_on_biconnected</text>
</a>
</g>
</g>
<!-- Node3&#45;&gt;Node4 -->
<g id="edge3" class="edge">
<title>Node3&#45;&gt;Node4</title>
<path fill="none" stroke="#191970" d="M360.8999,-607.5C373.4247,-607.5 386.693,-607.5 399.7078,-607.5"/>
<polygon fill="#191970" stroke="#191970" points="360.5759,-604.0001 350.5758,-607.5 360.5758,-611.0001 360.5759,-604.0001"/>
</g>
<!-- Node5 -->
<g id="node5" class="node">
<title>Node5</title>
<g id="a_node5"><a xlink:href="../../d0/d8e/classplanarity.html#a93232e765c08dd2a4c00d192bb48b5fc" target="_top" xlink:title="Runs planarity test on G.">
<polygon fill="none" stroke="#000000" points="605,-597.5 605,-617.5 689,-617.5 689,-597.5 605,-597.5"/>
<text text-anchor="middle" x="647" y="-604.5" font-family="FreeSans" font-size="10.00" fill="#000000">planarity::run</text>
</a>
</g>
</g>
<!-- Node4&#45;&gt;Node5 -->
<g id="edge4" class="edge">
<title>Node4&#45;&gt;Node5</title>
<path fill="none" stroke="#191970" d="M579.1571,-607.5C588.0194,-607.5 596.6628,-607.5 604.6498,-607.5"/>
<polygon fill="#191970" stroke="#191970" points="579.0817,-604.0001 569.0817,-607.5 579.0817,-611.0001 579.0817,-604.0001"/>
</g>
<!-- Node6&#45;&gt;Node3 -->
<g id="edge6" class="edge">
<title>Node6&#45;&gt;Node3</title>
<path fill="none" stroke="#191970" d="M191.5287,-595.6211C207.1962,-597.4198 223.923,-599.3401 239.2594,-601.1008"/>
<polygon fill="#191970" stroke="#191970" points="191.7451,-592.1231 181.4112,-594.4596 190.9467,-599.0774 191.7451,-592.1231"/>
</g>
<!-- Node8&#45;&gt;Node9 -->
<g id="edge9" class="edge">
<title>Node8&#45;&gt;Node9</title>
<path fill="none" stroke="#191970" d="M330.6314,-459.7561C363.4905,-451.2592 412.1482,-441.1954 445.9145,-435.8809"/>
<polygon fill="#191970" stroke="#191970" points="329.3123,-456.4858 320.5568,-462.4518 331.1217,-463.2479 329.3123,-456.4858"/>
</g>
<!-- Node12 -->
<g id="node12" class="node">
<title>Node12</title>
<g id="a_node12"><a xlink:href="../../d9/d3f/mongoose_8cc.html#a8caa7da8af93d6454c6ecf620258c239" target="_top" xlink:title="doit">
<polygon fill="none" stroke="#000000" points="842,-325.5 842,-345.5 878,-345.5 878,-325.5 842,-325.5"/>
<text text-anchor="middle" x="860" y="-332.5" font-family="FreeSans" font-size="10.00" fill="#000000">doit</text>
</a>
</g>
</g>
<!-- Node8&#45;&gt;Node12 -->
<g id="edge21" class="edge">
<title>Node8&#45;&gt;Node12</title>
<path fill="none" stroke="#191970" d="M343.438,-473.7138C398.7281,-474.0515 491.5301,-471.4132 569,-453.5 677.0889,-428.5068 797.2165,-368.6846 841.9416,-345.1993"/>
<polygon fill="#191970" stroke="#191970" points="343.2629,-470.2121 333.2294,-473.6148 343.1949,-477.2117 343.2629,-470.2121"/>
</g>
<!-- Node9&#45;&gt;Node8 -->
<g id="edge10" class="edge">
<title>Node9&#45;&gt;Node8</title>
<path fill="none" stroke="#191970" d="M449.2666,-446.1409C416.3266,-454.6792 367.2597,-464.8304 333.3482,-470.1564"/>
<polygon fill="#191970" stroke="#191970" points="450.1835,-449.5187 458.937,-443.55 448.3719,-442.7572 450.1835,-449.5187"/>
</g>
<!-- Node10 -->
<g id="node10" class="node">
<title>Node10</title>
<g id="a_node10"><a xlink:href="../../d9/d3f/mongoose_8cc.html#a7ad015f6b8e083fafbd1ee13f5df87fb" target="_top" xlink:title="parse_pair">
<polygon fill="none" stroke="#000000" points="612,-306.5 612,-326.5 682,-326.5 682,-306.5 612,-306.5"/>
<text text-anchor="middle" x="647" y="-313.5" font-family="FreeSans" font-size="10.00" fill="#000000">parse_pair</text>
</a>
</g>
</g>
<!-- Node9&#45;&gt;Node10 -->
<g id="edge11" class="edge">
<title>Node9&#45;&gt;Node10</title>
<path fill="none" stroke="#191970" d="M506.9987,-417.3009C540.9993,-392.8205 604.4999,-347.1001 632.7804,-326.7381"/>
<polygon fill="#191970" stroke="#191970" points="504.7068,-414.6382 498.6365,-423.3217 508.797,-420.319 504.7068,-414.6382"/>
</g>
<!-- Node10&#45;&gt;Node11 -->
<g id="edge12" class="edge">
<title>Node10&#45;&gt;Node11</title>
<path fill="none" stroke="#191970" d="M692.245,-323.7545C702.9456,-325.4702 714.2926,-327.2895 724.7786,-328.9708"/>
<polygon fill="#191970" stroke="#191970" points="692.6611,-320.2766 682.2331,-322.1492 691.5528,-327.1883 692.6611,-320.2766"/>
</g>
<!-- Node11&#45;&gt;Node9 -->
<g id="edge13" class="edge">
<title>Node11&#45;&gt;Node9</title>
<path fill="none" stroke="#191970" d="M735.5147,-349.785C721.5343,-356.1966 704.5786,-363.6226 689,-369.5 631.2208,-391.2986 562.3876,-411.7373 521.1306,-423.414"/>
<polygon fill="#191970" stroke="#191970" points="737.0665,-352.9235 744.6647,-345.5398 734.1204,-346.5736 737.0665,-352.9235"/>
</g>
<!-- Node11&#45;&gt;Node12 -->
<g id="edge14" class="edge">
<title>Node11&#45;&gt;Node12</title>
<path fill="none" stroke="#191970" d="M816.3695,-335.5C825.4395,-335.5 834.3306,-335.5 841.6954,-335.5"/>
<polygon fill="#191970" stroke="#191970" points="816.125,-332.0001 806.1249,-335.5 816.1249,-339.0001 816.125,-332.0001"/>
</g>
<!-- Node13 -->
<g id="node13" class="node">
<title>Node13</title>
<g id="a_node13"><a xlink:href="../../d6/d11/classSvtxEvaluator.html#ace95fef2b7b4ad8b797f6695e053dd6e" target="_top" xlink:title="dump the evaluator information into ntuple for external analysis">
<polygon fill="none" stroke="#000000" points="914,-364.5 914,-396.5 1055,-396.5 1055,-364.5 914,-364.5"/>
<text text-anchor="start" x="922" y="-383.5" font-family="FreeSans" font-size="10.00" fill="#000000">SvtxEvaluator::fillOutput</text>
<text text-anchor="middle" x="984.5" y="-371.5" font-family="FreeSans" font-size="10.00" fill="#000000">Ntuples</text>
</a>
</g>
</g>
<!-- Node12&#45;&gt;Node13 -->
<g id="edge15" class="edge">
<title>Node12&#45;&gt;Node13</title>
<path fill="none" stroke="#191970" d="M888.1174,-345.9982C896.4416,-349.0834 905.5806,-352.4482 914,-355.5 922.058,-358.4208 930.647,-361.4972 938.9577,-364.4549"/>
<polygon fill="#191970" stroke="#191970" points="889.0639,-342.6161 878.471,-342.4135 886.6255,-349.1777 889.0639,-342.6161"/>
</g>
<!-- Node15 -->
<g id="node15" class="node">
<title>Node15</title>
<g id="a_node15"><a xlink:href="../../dc/db4/mongoose_8h.html#a961fcca8c61e45298d25b95ec2fce7e3" target="_top" xlink:title="parse_json">
<polygon fill="none" stroke="#000000" points="949.5,-325.5 949.5,-345.5 1019.5,-345.5 1019.5,-325.5 949.5,-325.5"/>
<text text-anchor="middle" x="984.5" y="-332.5" font-family="FreeSans" font-size="10.00" fill="#000000">parse_json</text>
</a>
</g>
</g>
<!-- Node12&#45;&gt;Node15 -->
<g id="edge17" class="edge">
<title>Node12&#45;&gt;Node15</title>
<path fill="none" stroke="#191970" d="M888.3202,-335.5C906.4384,-335.5 930.0785,-335.5 949.3874,-335.5"/>
<polygon fill="#191970" stroke="#191970" points="888.1034,-332.0001 878.1034,-335.5 888.1033,-339.0001 888.1034,-332.0001"/>
</g>
<!-- Node18 -->
<g id="node18" class="node">
<title>Node18</title>
<g id="a_node18"><a xlink:href="../../dc/db4/mongoose_8h.html#a0a9990b5f16811536ffce69925bfb1dd" target="_top" xlink:title="parse_json2">
<polygon fill="none" stroke="#000000" points="946.5,-286.5 946.5,-306.5 1022.5,-306.5 1022.5,-286.5 946.5,-286.5"/>
<text text-anchor="middle" x="984.5" y="-293.5" font-family="FreeSans" font-size="10.00" fill="#000000">parse_json2</text>
</a>
</g>
</g>
<!-- Node12&#45;&gt;Node18 -->
<g id="edge20" class="edge">
<title>Node12&#45;&gt;Node18</title>
<path fill="none" stroke="#191970" d="M888.0338,-325.266C896.3558,-322.3284 905.5146,-319.1936 914,-316.5 924.7924,-313.0741 936.6017,-309.613 947.4164,-306.5552"/>
<polygon fill="#191970" stroke="#191970" points="886.6386,-322.0477 878.3992,-328.7084 888.9939,-328.6396 886.6386,-322.0477"/>
</g>
<!-- Node14 -->
<g id="node14" class="node">
<title>Node14</title>
<g id="a_node14"><a xlink:href="../../d6/d11/classSvtxEvaluator.html#a1eb230f92b6f2cabb175f1349697200d" target="_top" xlink:title="SvtxEvaluator::process\l_event">
<polygon fill="none" stroke="#000000" points="1091,-364.5 1091,-396.5 1223,-396.5 1223,-364.5 1091,-364.5"/>
<text text-anchor="start" x="1099" y="-383.5" font-family="FreeSans" font-size="10.00" fill="#000000">SvtxEvaluator::process</text>
<text text-anchor="middle" x="1157" y="-371.5" font-family="FreeSans" font-size="10.00" fill="#000000">_event</text>
</a>
</g>
</g>
<!-- Node13&#45;&gt;Node14 -->
<g id="edge16" class="edge">
<title>Node13&#45;&gt;Node14</title>
<path fill="none" stroke="#191970" d="M1065.2055,-380.5C1073.8091,-380.5 1082.4867,-380.5 1090.8937,-380.5"/>
<polygon fill="#191970" stroke="#191970" points="1065.1601,-377.0001 1055.1601,-380.5 1065.16,-384.0001 1065.1601,-377.0001"/>
</g>
<!-- Node16 -->
<g id="node16" class="node">
<title>Node16</title>
<g id="a_node16"><a xlink:href="../../dc/db4/mongoose_8h.html#aec4027ed3915a4ca54ad4e95b9ab034a" target="_top" xlink:title="mg_rpc_dispatch">
<polygon fill="none" stroke="#000000" points="1106.5,-325.5 1106.5,-345.5 1207.5,-345.5 1207.5,-325.5 1106.5,-325.5"/>
<text text-anchor="middle" x="1157" y="-332.5" font-family="FreeSans" font-size="10.00" fill="#000000">mg_rpc_dispatch</text>
</a>
</g>
</g>
<!-- Node15&#45;&gt;Node16 -->
<g id="edge18" class="edge">
<title>Node15&#45;&gt;Node16</title>
<path fill="none" stroke="#191970" d="M1029.8775,-335.5C1053.3734,-335.5 1082.133,-335.5 1106.3508,-335.5"/>
<polygon fill="#191970" stroke="#191970" points="1029.8242,-332.0001 1019.8242,-335.5 1029.8242,-339.0001 1029.8242,-332.0001"/>
</g>
<!-- Node17 -->
<g id="node17" class="node">
<title>Node17</title>
<g id="a_node17"><a xlink:href="../../dc/db4/mongoose_8h.html#ad2ebbb03491d1dab44065d21137105b7" target="_top" xlink:title="mg_rpc_parse_reply">
<polygon fill="none" stroke="#000000" points="1098.5,-286.5 1098.5,-306.5 1215.5,-306.5 1215.5,-286.5 1098.5,-286.5"/>
<text text-anchor="middle" x="1157" y="-293.5" font-family="FreeSans" font-size="10.00" fill="#000000">mg_rpc_parse_reply</text>
</a>
</g>
</g>
<!-- Node15&#45;&gt;Node17 -->
<g id="edge19" class="edge">
<title>Node15&#45;&gt;Node17</title>
<path fill="none" stroke="#191970" d="M1029.6416,-325.2941C1055.2032,-319.5149 1087.0527,-312.3142 1112.5069,-306.5593"/>
<polygon fill="#191970" stroke="#191970" points="1028.8062,-321.8945 1019.8242,-327.5137 1030.3499,-328.7222 1028.8062,-321.8945"/>
</g>
<!-- Node19&#45;&gt;Node20 -->
<g id="edge23" class="edge">
<title>Node19&#45;&gt;Node20</title>
<path fill="none" stroke="#191970" d="M353.4462,-252.2201C385.4432,-258.6364 423.9478,-266.3576 450.9119,-271.7647"/>
<polygon fill="#191970" stroke="#191970" points="353.8022,-248.7219 343.3092,-250.1873 352.4258,-255.5852 353.8022,-248.7219"/>
</g>
<!-- Node20&#45;&gt;Node10 -->
<g id="edge24" class="edge">
<title>Node20&#45;&gt;Node10</title>
<path fill="none" stroke="#191970" d="M528.2361,-288.7275C554.4905,-294.867 587.4406,-302.5723 611.9696,-308.3083"/>
<polygon fill="#191970" stroke="#191970" points="528.7044,-285.2427 518.1701,-286.3736 527.1104,-292.0588 528.7044,-285.2427"/>
</g>
<!-- Node21&#45;&gt;Node9 -->
<g id="edge27" class="edge">
<title>Node21&#45;&gt;Node9</title>
<path fill="none" stroke="#191970" d="M185.0908,-512.0784C233.2473,-512.0733 304.3579,-508.7474 364,-492.5 404.0041,-481.6023 446.6343,-457.3351 468.8984,-443.559"/>
<polygon fill="#191970" stroke="#191970" points="184.8913,-508.5775 174.8747,-512.0297 184.8578,-515.5774 184.8913,-508.5775"/>
</g>
<!-- Node23 -->
<g id="node23" class="node">
<title>Node23</title>
<g id="a_node23"><a xlink:href="../../d0/da7/namespacetesting_1_1internal.html#ad896a4e4d9133ce43dc18b6038d95dc3" target="_top" xlink:title="testing::internal::\lUniversalPrintCharArray">
<polygon fill="none" stroke="#000000" points="226,-51.5 226,-83.5 364,-83.5 364,-51.5 226,-51.5"/>
<text text-anchor="start" x="234" y="-70.5" font-family="FreeSans" font-size="10.00" fill="#000000">testing::internal::</text>
<text text-anchor="middle" x="295" y="-58.5" font-family="FreeSans" font-size="10.00" fill="#000000">UniversalPrintCharArray</text>
</a>
</g>
</g>
<!-- Node22&#45;&gt;Node23 -->
<g id="edge31" class="edge">
<title>Node22&#45;&gt;Node23</title>
<path fill="none" stroke="#191970" d="M200.1202,-82.4056C208.6706,-81.0623 217.3977,-79.6913 225.9255,-78.3516"/>
<polygon fill="#191970" stroke="#191970" points="199.522,-78.9566 190.1863,-83.9662 200.6084,-85.8717 199.522,-78.9566"/>
</g>
<!-- Node25 -->
<g id="node25" class="node">
<title>Node25</title>
<g id="a_node25"><a xlink:href="../../d0/da7/namespacetesting_1_1internal.html#adc6c98306d40b53fd07be4e295102a0a" target="_top" xlink:title="testing::internal::\lPrintTo">
<polygon fill="none" stroke="#000000" points="243.5,-.5 243.5,-32.5 346.5,-32.5 346.5,-.5 243.5,-.5"/>
<text text-anchor="start" x="251.5" y="-19.5" font-family="FreeSans" font-size="10.00" fill="#000000">testing::internal::</text>
<text text-anchor="middle" x="295" y="-7.5" font-family="FreeSans" font-size="10.00" fill="#000000">PrintTo</text>
</a>
</g>
</g>
<!-- Node22&#45;&gt;Node25 -->
<g id="edge33" class="edge">
<title>Node22&#45;&gt;Node25</title>
<path fill="none" stroke="#191970" d="M166.6199,-72.4783C184.3363,-62.8099 205.9911,-51.5141 226,-42.5 233.5866,-39.0822 241.7689,-35.7239 249.7554,-32.6151"/>
<polygon fill="#191970" stroke="#191970" points="164.8159,-69.476 157.7439,-77.3651 168.192,-75.6081 164.8159,-69.476"/>
</g>
<!-- Node26 -->
<g id="node26" class="node">
<title>Node26</title>
<g id="a_node26"><a xlink:href="../../d0/da7/namespacetesting_1_1internal.html#ad609167d8d6792b0fb186539e0e159bd" target="_top" xlink:title="testing::internal::\lPrintStringTo">
<polygon fill="none" stroke="#000000" points="243.5,-102.5 243.5,-134.5 346.5,-134.5 346.5,-102.5 243.5,-102.5"/>
<text text-anchor="start" x="251.5" y="-121.5" font-family="FreeSans" font-size="10.00" fill="#000000">testing::internal::</text>
<text text-anchor="middle" x="295" y="-109.5" font-family="FreeSans" font-size="10.00" fill="#000000">PrintStringTo</text>
</a>
</g>
</g>
<!-- Node22&#45;&gt;Node26 -->
<g id="edge34" class="edge">
<title>Node22&#45;&gt;Node26</title>
<path fill="none" stroke="#191970" d="M200.1202,-104.1677C214.6188,-106.3578 229.6252,-108.6246 243.3067,-110.6913"/>
<polygon fill="#191970" stroke="#191970" points="200.597,-100.7001 190.1863,-102.6671 199.5514,-107.6216 200.597,-100.7001"/>
</g>
<!-- Node24 -->
<g id="node24" class="node">
<title>Node24</title>
<g id="a_node24"><a xlink:href="../../d0/da7/namespacetesting_1_1internal.html#a070107e7a8205ad6ec4d538d52b15b38" target="_top" xlink:title="testing::internal::\lUniversalPrintArray">
<polygon fill="none" stroke="#000000" points="427.5,-51.5 427.5,-83.5 541.5,-83.5 541.5,-51.5 427.5,-51.5"/>
<text text-anchor="start" x="435.5" y="-70.5" font-family="FreeSans" font-size="10.00" fill="#000000">testing::internal::</text>
<text text-anchor="middle" x="484.5" y="-58.5" font-family="FreeSans" font-size="10.00" fill="#000000">UniversalPrintArray</text>
</a>
</g>
</g>
<!-- Node23&#45;&gt;Node24 -->
<g id="edge32" class="edge">
<title>Node23&#45;&gt;Node24</title>
<path fill="none" stroke="#191970" d="M374.5406,-67.5C392.2479,-67.5 410.683,-67.5 427.2843,-67.5"/>
<polygon fill="#191970" stroke="#191970" points="374.2183,-64.0001 364.2182,-67.5 374.2182,-71.0001 374.2183,-64.0001"/>
</g>
<!-- Node27&#45;&gt;Node8 -->
<g id="edge39" class="edge">
<title>Node27&#45;&gt;Node8</title>
<path fill="none" stroke="#191970" d="M159.9663,-408.8587C192.9112,-424.3857 244.5838,-448.7389 273.5222,-462.3775"/>
<polygon fill="#191970" stroke="#191970" points="161.3353,-405.6347 150.7974,-404.5375 158.351,-411.9667 161.3353,-405.6347"/>
</g>
<!-- Node27&#45;&gt;Node10 -->
<g id="edge40" class="edge">
<title>Node27&#45;&gt;Node10</title>
<path fill="none" stroke="#191970" d="M151.7652,-378.5161C170.5588,-365.9781 198.6957,-349.3745 226,-341.5 364.2412,-301.6314 538.3037,-308.2379 611.7478,-313.4626"/>
<polygon fill="#191970" stroke="#191970" points="149.6084,-375.751 143.3344,-384.2885 153.5631,-381.5269 149.6084,-375.751"/>
</g>
<!-- Node27&#45;&gt;Node11 -->
<g id="edge41" class="edge">
<title>Node27&#45;&gt;Node11</title>
<path fill="none" stroke="#191970" d="M182.1516,-382.9422C196.3309,-380.1563 211.7026,-377.4304 226,-375.5 411.2207,-350.492 634.4812,-340.1931 724.7194,-336.8466"/>
<polygon fill="#191970" stroke="#191970" points="181.183,-379.5669 172.07,-384.9709 182.564,-386.4293 181.183,-379.5669"/>
</g>
<!-- Node28 -->
<g id="node28" class="node">
<title>Node28</title>
<g id="a_node28"><a xlink:href="../../d9/d3f/mongoose_8cc.html#a7457d29ccfa37926223f6829368115d3" target="_top" xlink:title="parse_string">
<polygon fill="none" stroke="#000000" points="256,-384.5 256,-404.5 334,-404.5 334,-384.5 256,-384.5"/>
<text text-anchor="middle" x="295" y="-391.5" font-family="FreeSans" font-size="10.00" fill="#000000">parse_string</text>
</a>
</g>
</g>
<!-- Node27&#45;&gt;Node28 -->
<g id="edge36" class="edge">
<title>Node27&#45;&gt;Node28</title>
<path fill="none" stroke="#191970" d="M182.4335,-394.5C206.299,-394.5 233.9841,-394.5 255.9262,-394.5"/>
<polygon fill="#191970" stroke="#191970" points="182.1204,-391.0001 172.1204,-394.5 182.1203,-398.0001 182.1204,-391.0001"/>
</g>
<!-- Node28&#45;&gt;Node9 -->
<g id="edge37" class="edge">
<title>Node28&#45;&gt;Node9</title>
<path fill="none" stroke="#191970" d="M344.2211,-404.6299C375.932,-411.1562 416.5687,-419.5194 445.9342,-425.563"/>
<polygon fill="#191970" stroke="#191970" points="344.7648,-401.1686 334.2645,-402.5808 343.3537,-408.0249 344.7648,-401.1686"/>
</g>
<!-- Node28&#45;&gt;Node20 -->
<g id="edge38" class="edge">
<title>Node28&#45;&gt;Node20</title>
<path fill="none" stroke="#191970" d="M320.2321,-379.0545C359.6235,-354.9416 434.6577,-309.0104 467.9178,-288.6506"/>
<polygon fill="#191970" stroke="#191970" points="318.187,-376.2026 311.4854,-384.4087 321.8416,-382.1729 318.187,-376.2026"/>
</g>
<!-- Node29&#45;&gt;Node12 -->
<g id="edge43" class="edge">
<title>Node29&#45;&gt;Node12</title>
<path fill="none" stroke="#191970" d="M782.7608,-257.0348C802.4401,-277.0265 833.9492,-309.0357 849.9596,-325.3002"/>
<polygon fill="#191970" stroke="#191970" points="785.1227,-254.4449 775.6132,-249.7737 780.1341,-259.3556 785.1227,-254.4449"/>
</g>
</g>
</svg>
