<?xml version="1.0" encoding="UTF-8" standalone="no"?>
<!DOCTYPE svg PUBLIC "-//W3C//DTD SVG 1.1//EN"
 "http://www.w3.org/Graphics/SVG/1.1/DTD/svg11.dtd">
<!-- Generated by graphviz version 2.40.1 (20161225.0304)
 -->
<!-- Title: mg_printf_http_chunk Pages: 1 -->
<svg width="1124pt" height="224pt"
 viewBox="0.00 0.00 1124.00 224.00" xmlns="http://www.w3.org/2000/svg" xmlns:xlink="http://www.w3.org/1999/xlink">
<g id="graph0" class="graph" transform="scale(1 1) rotate(0) translate(4 220)">
<title>mg_printf_http_chunk</title>
<!-- Node1 -->
<g id="node1" class="node">
<title>Node1</title>
<polygon fill="#bfbfbf" stroke="#000000" points="0,-155.5 0,-175.5 127,-175.5 127,-155.5 0,-155.5"/>
<text text-anchor="middle" x="63.5" y="-162.5" font-family="FreeSans" font-size="10.00" fill="#000000">mg_printf_http_chunk</text>
</g>
<!-- Node2 -->
<g id="node2" class="node">
<title>Node2</title>
<g id="a_node2"><a xlink:href="../../d9/d3f/mongoose_8cc.html#a11bf96f2bbb1d24a3a5837d4a9743362" target="_top" xlink:title="mg_avprintf">
<polygon fill="none" stroke="#000000" points="186,-175.5 186,-195.5 264,-195.5 264,-175.5 186,-175.5"/>
<text text-anchor="middle" x="225" y="-182.5" font-family="FreeSans" font-size="10.00" fill="#000000">mg_avprintf</text>
</a>
</g>
</g>
<!-- Node1&#45;&gt;Node2 -->
<g id="edge1" class="edge">
<title>Node1&#45;&gt;Node2</title>
<path fill="none" stroke="#191970" d="M127.3291,-173.4045C143.3757,-175.3917 160.3556,-177.4945 175.5778,-179.3796"/>
<polygon fill="#191970" stroke="#191970" points="175.4479,-182.8902 185.8023,-180.6458 176.3083,-175.9432 175.4479,-182.8902"/>
</g>
<!-- Node3 -->
<g id="node3" class="node">
<title>Node3</title>
<g id="a_node3"><a xlink:href="../../d9/d3f/mongoose_8cc.html#a6842bbd8fac97833cc3b25a2b25dbeca" target="_top" xlink:title="mg_send_http_chunk">
<polygon fill="none" stroke="#000000" points="163,-136.5 163,-156.5 287,-156.5 287,-136.5 163,-136.5"/>
<text text-anchor="middle" x="225" y="-143.5" font-family="FreeSans" font-size="10.00" fill="#000000">mg_send_http_chunk</text>
</a>
</g>
</g>
<!-- Node1&#45;&gt;Node3 -->
<g id="edge2" class="edge">
<title>Node1&#45;&gt;Node3</title>
<path fill="none" stroke="#191970" d="M127.3291,-157.9907C135.7574,-156.9991 144.4432,-155.9773 152.9966,-154.971"/>
<polygon fill="#191970" stroke="#191970" points="153.4307,-158.4441 162.9532,-153.7996 152.6128,-151.4921 153.4307,-158.4441"/>
</g>
<!-- Node4 -->
<g id="node4" class="node">
<title>Node4</title>
<g id="a_node4"><a xlink:href="../../d9/d3f/mongoose_8cc.html#ab0613b2aa565a9b4c3ecca1488dfacad" target="_top" xlink:title="mg_send">
<polygon fill="none" stroke="#000000" points="323,-136.5 323,-156.5 385,-156.5 385,-136.5 323,-136.5"/>
<text text-anchor="middle" x="354" y="-143.5" font-family="FreeSans" font-size="10.00" fill="#000000">mg_send</text>
</a>
</g>
</g>
<!-- Node3&#45;&gt;Node4 -->
<g id="edge3" class="edge">
<title>Node3&#45;&gt;Node4</title>
<path fill="none" stroke="#191970" d="M287.2328,-146.5C295.8341,-146.5 304.4892,-146.5 312.5853,-146.5"/>
<polygon fill="#191970" stroke="#191970" points="312.855,-150.0001 322.8549,-146.5 312.8549,-143.0001 312.855,-150.0001"/>
</g>
<!-- Node5 -->
<g id="node5" class="node">
<title>Node5</title>
<g id="a_node5"><a xlink:href="../../d9/d3f/mongoose_8cc.html#aa93fbafbfbe46d722a902f7ca23b4718" target="_top" xlink:title="mg_time">
<polygon fill="none" stroke="#000000" points="464,-195.5 464,-215.5 524,-215.5 524,-195.5 464,-195.5"/>
<text text-anchor="middle" x="494" y="-202.5" font-family="FreeSans" font-size="10.00" fill="#000000">mg_time</text>
</a>
</g>
</g>
<!-- Node4&#45;&gt;Node5 -->
<g id="edge4" class="edge">
<title>Node4&#45;&gt;Node5</title>
<path fill="none" stroke="#191970" d="M368.2679,-156.6535C381.4185,-165.6056 401.7552,-178.4445 421,-186.5 431.4513,-190.8747 443.176,-194.4626 454.1196,-197.2958"/>
<polygon fill="#191970" stroke="#191970" points="453.3462,-200.7097 463.8915,-199.6864 455.0097,-193.9102 453.3462,-200.7097"/>
</g>
<!-- Node8 -->
<g id="node8" class="node">
<title>Node8</title>
<g id="a_node8"><a xlink:href="../../d9/d3f/mongoose_8cc.html#a7e535724637ae9fd7b4ca7162e0c3bd1" target="_top" xlink:title="mg_if_udp_send">
<polygon fill="none" stroke="#000000" points="445,-156.5 445,-176.5 543,-176.5 543,-156.5 445,-156.5"/>
<text text-anchor="middle" x="494" y="-163.5" font-family="FreeSans" font-size="10.00" fill="#000000">mg_if_udp_send</text>
</a>
</g>
</g>
<!-- Node4&#45;&gt;Node8 -->
<g id="edge7" class="edge">
<title>Node4&#45;&gt;Node8</title>
<path fill="none" stroke="#191970" d="M385.0705,-150.9386C399.7508,-153.0358 417.7804,-155.6115 434.9155,-158.0594"/>
<polygon fill="#191970" stroke="#191970" points="434.4743,-161.5318 444.8688,-159.4813 435.4643,-154.6021 434.4743,-161.5318"/>
</g>
<!-- Node11 -->
<g id="node11" class="node">
<title>Node11</title>
<g id="a_node11"><a xlink:href="../../d9/d3f/mongoose_8cc.html#a2e76536d81dabb1dabd435941de1521a" target="_top" xlink:title="mg_if_tcp_send">
<polygon fill="none" stroke="#000000" points="447,-117.5 447,-137.5 541,-137.5 541,-117.5 447,-117.5"/>
<text text-anchor="middle" x="494" y="-124.5" font-family="FreeSans" font-size="10.00" fill="#000000">mg_if_tcp_send</text>
</a>
</g>
</g>
<!-- Node4&#45;&gt;Node11 -->
<g id="edge10" class="edge">
<title>Node4&#45;&gt;Node11</title>
<path fill="none" stroke="#191970" d="M385.0705,-142.2833C400.2222,-140.227 418.9417,-137.6865 436.5632,-135.295"/>
<polygon fill="#191970" stroke="#191970" points="437.3378,-138.722 446.7762,-133.9089 436.3963,-131.7856 437.3378,-138.722"/>
</g>
<!-- Node12 -->
<g id="node12" class="node">
<title>Node12</title>
<g id="a_node12"><a xlink:href="../../d9/d3f/mongoose_8cc.html#a6f9932cae4b4a2b6286a3e6449e30f5e" target="_top" xlink:title="mg_hexdump_connection">
<polygon fill="none" stroke="#000000" points="421,-78.5 421,-98.5 567,-98.5 567,-78.5 421,-78.5"/>
<text text-anchor="middle" x="494" y="-85.5" font-family="FreeSans" font-size="10.00" fill="#000000">mg_hexdump_connection</text>
</a>
</g>
</g>
<!-- Node4&#45;&gt;Node12 -->
<g id="edge12" class="edge">
<title>Node4&#45;&gt;Node12</title>
<path fill="none" stroke="#191970" d="M369.1487,-136.4561C382.3798,-128.0439 402.3365,-116.2081 421,-108.5 427.2018,-105.9386 433.8339,-103.6033 440.4779,-101.5058"/>
<polygon fill="#191970" stroke="#191970" points="441.5954,-104.8248 450.1719,-98.6043 439.5882,-98.1188 441.5954,-104.8248"/>
</g>
<!-- Node6 -->
<g id="node6" class="node">
<title>Node6</title>
<g id="a_node6"><a xlink:href="../../d9/d3f/mongoose_8cc.html#a3e6050027ad3bf282c3eff9491fe46c0" target="_top" xlink:title="cs_time">
<polygon fill="none" stroke="#000000" points="637.5,-195.5 637.5,-215.5 692.5,-215.5 692.5,-195.5 637.5,-195.5"/>
<text text-anchor="middle" x="665" y="-202.5" font-family="FreeSans" font-size="10.00" fill="#000000">cs_time</text>
</a>
</g>
</g>
<!-- Node5&#45;&gt;Node6 -->
<g id="edge5" class="edge">
<title>Node5&#45;&gt;Node6</title>
<path fill="none" stroke="#191970" d="M524.1777,-205.5C552.9493,-205.5 596.3681,-205.5 627.3818,-205.5"/>
<polygon fill="#191970" stroke="#191970" points="627.3849,-209.0001 637.3849,-205.5 627.3849,-202.0001 627.3849,-209.0001"/>
</g>
<!-- Node7 -->
<g id="node7" class="node">
<title>Node7</title>
<g id="a_node7"><a xlink:href="../../da/d55/TPCRateLayered_8m.html#ac40e4ec8f2a74a2878f06670249eebb8" target="_top" xlink:title="double">
<polygon fill="none" stroke="#000000" points="799.5,-195.5 799.5,-215.5 850.5,-215.5 850.5,-195.5 799.5,-195.5"/>
<text text-anchor="middle" x="825" y="-202.5" font-family="FreeSans" font-size="10.00" fill="#000000">double</text>
</a>
</g>
</g>
<!-- Node6&#45;&gt;Node7 -->
<g id="edge6" class="edge">
<title>Node6&#45;&gt;Node7</title>
<path fill="none" stroke="#191970" d="M692.505,-205.5C719.2425,-205.5 759.9867,-205.5 789.2308,-205.5"/>
<polygon fill="#191970" stroke="#191970" points="789.4374,-209.0001 799.4374,-205.5 789.4373,-202.0001 789.4374,-209.0001"/>
</g>
<!-- Node9 -->
<g id="node9" class="node">
<title>Node9</title>
<g id="a_node9"><a xlink:href="../../d9/d3f/mongoose_8cc.html#a437359bb2fb326a1f221019662a225b7" target="_top" xlink:title="mbuf_append">
<polygon fill="none" stroke="#000000" points="622,-156.5 622,-176.5 708,-176.5 708,-156.5 622,-156.5"/>
<text text-anchor="middle" x="665" y="-163.5" font-family="FreeSans" font-size="10.00" fill="#000000">mbuf_append</text>
</a>
</g>
</g>
<!-- Node8&#45;&gt;Node9 -->
<g id="edge8" class="edge">
<title>Node8&#45;&gt;Node9</title>
<path fill="none" stroke="#191970" d="M543.0017,-166.5C564.4718,-166.5 589.722,-166.5 611.6638,-166.5"/>
<polygon fill="#191970" stroke="#191970" points="611.8115,-170.0001 621.8115,-166.5 611.8115,-163.0001 611.8115,-170.0001"/>
</g>
<!-- Node10 -->
<g id="node10" class="node">
<title>Node10</title>
<g id="a_node10"><a xlink:href="../../d9/d3f/mongoose_8cc.html#ae5034ec231569976f6ce24ea6af888ac" target="_top" xlink:title="mbuf_insert">
<polygon fill="none" stroke="#000000" points="786.5,-156.5 786.5,-176.5 863.5,-176.5 863.5,-156.5 786.5,-156.5"/>
<text text-anchor="middle" x="825" y="-163.5" font-family="FreeSans" font-size="10.00" fill="#000000">mbuf_insert</text>
</a>
</g>
</g>
<!-- Node9&#45;&gt;Node10 -->
<g id="edge9" class="edge">
<title>Node9&#45;&gt;Node10</title>
<path fill="none" stroke="#191970" d="M708.2983,-166.5C729.2156,-166.5 754.4069,-166.5 776.0226,-166.5"/>
<polygon fill="#191970" stroke="#191970" points="776.3123,-170.0001 786.3123,-166.5 776.3123,-163.0001 776.3123,-170.0001"/>
</g>
<!-- Node11&#45;&gt;Node9 -->
<g id="edge11" class="edge">
<title>Node11&#45;&gt;Node9</title>
<path fill="none" stroke="#191970" d="M538.0367,-137.5435C560.6361,-142.6977 588.3349,-149.015 612.0877,-154.4323"/>
<polygon fill="#191970" stroke="#191970" points="611.4716,-157.8816 621.9995,-156.6929 613.0282,-151.0568 611.4716,-157.8816"/>
</g>
<!-- Node13 -->
<g id="node13" class="node">
<title>Node13</title>
<g id="a_node13"><a xlink:href="../../da/de5/ThicknessScan_8m.html#a5f84f51058cdb4f43c29d2c875659f42" target="_top" xlink:title="fclose">
<polygon fill="none" stroke="#000000" points="642,-117.5 642,-137.5 688,-137.5 688,-117.5 642,-117.5"/>
<text text-anchor="middle" x="665" y="-124.5" font-family="FreeSans" font-size="10.00" fill="#000000">fclose</text>
</a>
</g>
</g>
<!-- Node12&#45;&gt;Node13 -->
<g id="edge13" class="edge">
<title>Node12&#45;&gt;Node13</title>
<path fill="none" stroke="#191970" d="M538.0367,-98.5435C567.2152,-105.1982 604.8944,-113.7917 631.606,-119.8838"/>
<polygon fill="#191970" stroke="#191970" points="631.0901,-123.356 641.618,-122.1673 632.6467,-116.5312 631.0901,-123.356"/>
</g>
<!-- Node14 -->
<g id="node14" class="node">
<title>Node14</title>
<g id="a_node14"><a xlink:href="../../d4/d23/Prototype2_2EMCal_2macros_2EnergyCalibFit_8m.html#a0f562e412982273e906f55843990c582" target="_top" xlink:title="fprintf">
<polygon fill="none" stroke="#000000" points="641,-78.5 641,-98.5 689,-98.5 689,-78.5 641,-78.5"/>
<text text-anchor="middle" x="665" y="-85.5" font-family="FreeSans" font-size="10.00" fill="#000000">fprintf</text>
</a>
</g>
</g>
<!-- Node12&#45;&gt;Node14 -->
<g id="edge14" class="edge">
<title>Node12&#45;&gt;Node14</title>
<path fill="none" stroke="#191970" d="M567.0154,-88.5C589.1732,-88.5 612.4743,-88.5 630.7924,-88.5"/>
<polygon fill="#191970" stroke="#191970" points="630.9558,-92.0001 640.9557,-88.5 630.9557,-85.0001 630.9558,-92.0001"/>
</g>
<!-- Node15 -->
<g id="node15" class="node">
<title>Node15</title>
<g id="a_node15"><a xlink:href="../../d9/d3f/mongoose_8cc.html#a45d343f1d3f3c0aa79410b256e56c9ea" target="_top" xlink:title="mg_conn_addr_to_str">
<polygon fill="none" stroke="#000000" points="603,-39.5 603,-59.5 727,-59.5 727,-39.5 603,-39.5"/>
<text text-anchor="middle" x="665" y="-46.5" font-family="FreeSans" font-size="10.00" fill="#000000">mg_conn_addr_to_str</text>
</a>
</g>
</g>
<!-- Node12&#45;&gt;Node15 -->
<g id="edge15" class="edge">
<title>Node12&#45;&gt;Node15</title>
<path fill="none" stroke="#191970" d="M538.0367,-78.4565C560.3763,-73.3615 587.6988,-67.1301 611.2671,-61.7549"/>
<polygon fill="#191970" stroke="#191970" points="612.1411,-65.1455 621.1125,-59.5094 610.5845,-58.3207 612.1411,-65.1455"/>
</g>
<!-- Node21 -->
<g id="node21" class="node">
<title>Node21</title>
<g id="a_node21"><a xlink:href="../../d9/d3f/mongoose_8cc.html#aa151a33f8ec5d956c754c3728bc1b9be" target="_top" xlink:title="mg_hexdump">
<polygon fill="none" stroke="#000000" points="622.5,-.5 622.5,-20.5 707.5,-20.5 707.5,-.5 622.5,-.5"/>
<text text-anchor="middle" x="665" y="-7.5" font-family="FreeSans" font-size="10.00" fill="#000000">mg_hexdump</text>
</a>
</g>
</g>
<!-- Node12&#45;&gt;Node21 -->
<g id="edge21" class="edge">
<title>Node12&#45;&gt;Node21</title>
<path fill="none" stroke="#191970" d="M510.1163,-78.452C530.9581,-65.7718 568.6655,-43.8849 603,-29.5 607.8089,-27.4853 612.9069,-25.5777 618.0321,-23.8044"/>
<polygon fill="#191970" stroke="#191970" points="619.4514,-27.0219 627.8529,-20.5669 617.2598,-20.3738 619.4514,-27.0219"/>
</g>
<!-- Node16 -->
<g id="node16" class="node">
<title>Node16</title>
<g id="a_node16"><a xlink:href="../../d9/d3f/mongoose_8cc.html#a0f7d485b180f94cb5ece03ef5e77932e" target="_top" xlink:title="mg_if_get_conn_addr">
<polygon fill="none" stroke="#000000" points="763,-59.5 763,-79.5 887,-79.5 887,-59.5 763,-59.5"/>
<text text-anchor="middle" x="825" y="-66.5" font-family="FreeSans" font-size="10.00" fill="#000000">mg_if_get_conn_addr</text>
</a>
</g>
</g>
<!-- Node15&#45;&gt;Node16 -->
<g id="edge16" class="edge">
<title>Node15&#45;&gt;Node16</title>
<path fill="none" stroke="#191970" d="M727.3183,-57.2898C735.7062,-58.3383 744.367,-59.4209 752.9065,-60.4883"/>
<polygon fill="#191970" stroke="#191970" points="752.4948,-63.964 762.8518,-61.7315 753.3631,-57.0181 752.4948,-63.964"/>
</g>
<!-- Node18 -->
<g id="node18" class="node">
<title>Node18</title>
<g id="a_node18"><a xlink:href="../../d9/d3f/mongoose_8cc.html#ac892fb1c2a55245531e870d84ef44659" target="_top" xlink:title="mg_sock_addr_to_str">
<polygon fill="none" stroke="#000000" points="764,-20.5 764,-40.5 886,-40.5 886,-20.5 764,-20.5"/>
<text text-anchor="middle" x="825" y="-27.5" font-family="FreeSans" font-size="10.00" fill="#000000">mg_sock_addr_to_str</text>
</a>
</g>
</g>
<!-- Node15&#45;&gt;Node18 -->
<g id="edge18" class="edge">
<title>Node15&#45;&gt;Node18</title>
<path fill="none" stroke="#191970" d="M727.3183,-42.0997C736.0524,-41.0625 745.0824,-39.9902 753.9632,-38.9356"/>
<polygon fill="#191970" stroke="#191970" points="754.3853,-42.4102 763.9027,-37.7553 753.5598,-35.459 754.3853,-42.4102"/>
</g>
<!-- Node17 -->
<g id="node17" class="node">
<title>Node17</title>
<g id="a_node17"><a xlink:href="../../d9/d3f/mongoose_8cc.html#a7f4ca9f41580f2ade175c4670070d358" target="_top" xlink:title="mg_sock_get_addr">
<polygon fill="none" stroke="#000000" points="923,-59.5 923,-79.5 1034,-79.5 1034,-59.5 923,-59.5"/>
<text text-anchor="middle" x="978.5" y="-66.5" font-family="FreeSans" font-size="10.00" fill="#000000">mg_sock_get_addr</text>
</a>
</g>
</g>
<!-- Node16&#45;&gt;Node17 -->
<g id="edge17" class="edge">
<title>Node16&#45;&gt;Node17</title>
<path fill="none" stroke="#191970" d="M887.4343,-69.5C895.6957,-69.5 904.1865,-69.5 912.5053,-69.5"/>
<polygon fill="#191970" stroke="#191970" points="912.5401,-73.0001 922.5401,-69.5 912.5401,-66.0001 912.5401,-73.0001"/>
</g>
<!-- Node19 -->
<g id="node19" class="node">
<title>Node19</title>
<g id="a_node19"><a xlink:href="../../d0/d89/RootMaterialDecorator_8cpp.html#a69dba6de97e0af5b5b9b476d9183c869" target="_top" xlink:title="if">
<polygon fill="none" stroke="#000000" points="964,-20.5 964,-40.5 993,-40.5 993,-20.5 964,-20.5"/>
<text text-anchor="middle" x="978.5" y="-27.5" font-family="FreeSans" font-size="10.00" fill="#000000">if</text>
</a>
</g>
</g>
<!-- Node18&#45;&gt;Node19 -->
<g id="edge19" class="edge">
<title>Node18&#45;&gt;Node19</title>
<path fill="none" stroke="#191970" d="M886.1083,-30.5C909.7596,-30.5 935.4805,-30.5 953.7638,-30.5"/>
<polygon fill="#191970" stroke="#191970" points="953.8492,-34.0001 963.8491,-30.5 953.8491,-27.0001 953.8492,-34.0001"/>
</g>
<!-- Node20 -->
<g id="node20" class="node">
<title>Node20</title>
<g id="a_node20"><a xlink:href="../../d2/dda/JsonMaterialWriter_8cpp.html#a2c9ce7b8a253cfae2ca572d8f16cc4e5" target="_top" xlink:title="m_cfg">
<polygon fill="none" stroke="#000000" points="1070,-20.5 1070,-40.5 1116,-40.5 1116,-20.5 1070,-20.5"/>
<text text-anchor="middle" x="1093" y="-27.5" font-family="FreeSans" font-size="10.00" fill="#000000">m_cfg</text>
</a>
</g>
</g>
<!-- Node19&#45;&gt;Node20 -->
<g id="edge20" class="edge">
<title>Node19&#45;&gt;Node20</title>
<path fill="none" stroke="#191970" d="M993.0015,-30.5C1009.7291,-30.5 1037.7692,-30.5 1059.9075,-30.5"/>
<polygon fill="#191970" stroke="#191970" points="1059.9132,-34.0001 1069.9132,-30.5 1059.9131,-27.0001 1059.9132,-34.0001"/>
</g>
</g>
</svg>
