<?xml version="1.0" encoding="UTF-8" standalone="no"?>
<!DOCTYPE svg PUBLIC "-//W3C//DTD SVG 1.1//EN"
 "http://www.w3.org/Graphics/SVG/1.1/DTD/svg11.dtd">
<!-- Generated by graphviz version 2.40.1 (20161225.0304)
 -->
<!-- Title: mg_handle_ssi_request Pages: 1 -->
<svg width="1683pt" height="732pt"
 viewBox="0.00 0.00 1683.00 731.50" xmlns="http://www.w3.org/2000/svg" xmlns:xlink="http://www.w3.org/1999/xlink">
<g id="graph0" class="graph" transform="scale(1 1) rotate(0) translate(4 727.5)">
<title>mg_handle_ssi_request</title>
<!-- Node1 -->
<g id="node1" class="node">
<title>Node1</title>
<polygon fill="#bfbfbf" stroke="#000000" points="0,-433.5 0,-453.5 135,-453.5 135,-433.5 0,-433.5"/>
<text text-anchor="middle" x="67.5" y="-440.5" font-family="FreeSans" font-size="10.00" fill="#000000">mg_handle_ssi_request</text>
</g>
<!-- Node2 -->
<g id="node2" class="node">
<title>Node2</title>
<g id="a_node2"><a xlink:href="../../da/de5/ThicknessScan_8m.html#a5f84f51058cdb4f43c29d2c875659f42" target="_top" xlink:title="fclose">
<polygon fill="none" stroke="#000000" points="1413,-393.5 1413,-413.5 1459,-413.5 1459,-393.5 1413,-393.5"/>
<text text-anchor="middle" x="1436" y="-400.5" font-family="FreeSans" font-size="10.00" fill="#000000">fclose</text>
</a>
</g>
</g>
<!-- Node1&#45;&gt;Node2 -->
<g id="edge1" class="edge">
<title>Node1&#45;&gt;Node2</title>
<path fill="none" stroke="#191970" d="M70.7666,-433.2007C90.036,-374.6668 194.5948,-86.5 385.5,-86.5 385.5,-86.5 385.5,-86.5 1074,-86.5 1184.1021,-86.5 1232.6636,-39.7798 1321,-105.5 1413.4212,-174.2592 1431.5738,-327.6386 1435.1336,-383.0408"/>
<polygon fill="#191970" stroke="#191970" points="1431.6542,-383.5154 1435.6932,-393.3101 1438.6438,-383.1345 1431.6542,-383.5154"/>
</g>
<!-- Node3 -->
<g id="node3" class="node">
<title>Node3</title>
<g id="a_node3"><a xlink:href="../../d9/d3f/mongoose_8cc.html#af90470fc492bffe254211a0a0e5b240d" target="_top" xlink:title="mg_get_mime_type">
<polygon fill="none" stroke="#000000" points="172,-350.5 172,-370.5 287,-370.5 287,-350.5 172,-350.5"/>
<text text-anchor="middle" x="229.5" y="-357.5" font-family="FreeSans" font-size="10.00" fill="#000000">mg_get_mime_type</text>
</a>
</g>
</g>
<!-- Node1&#45;&gt;Node3 -->
<g id="edge2" class="edge">
<title>Node1&#45;&gt;Node3</title>
<path fill="none" stroke="#191970" d="M87.041,-433.4883C115.3806,-418.9686 168.0696,-391.9736 200.8174,-375.1954"/>
<polygon fill="#191970" stroke="#191970" points="202.5858,-378.2221 209.8897,-370.5472 199.3939,-371.9922 202.5858,-378.2221"/>
</g>
<!-- Node9 -->
<g id="node9" class="node">
<title>Node9</title>
<g id="a_node9"><a xlink:href="../../d9/d3f/mongoose_8cc.html#a6c6812f9fa006b9bd22afa9a19345ede" target="_top" xlink:title="mg_http_send_error">
<polygon fill="none" stroke="#000000" points="171,-637.5 171,-657.5 288,-657.5 288,-637.5 171,-637.5"/>
<text text-anchor="middle" x="229.5" y="-644.5" font-family="FreeSans" font-size="10.00" fill="#000000">mg_http_send_error</text>
</a>
</g>
</g>
<!-- Node1&#45;&gt;Node9 -->
<g id="edge9" class="edge">
<title>Node1&#45;&gt;Node9</title>
<path fill="none" stroke="#191970" d="M70.9116,-453.8208C81.2714,-483.7073 115.1192,-571.3732 171,-621.5 176.0583,-626.0375 182.0374,-629.8906 188.2087,-633.1275"/>
<polygon fill="#191970" stroke="#191970" points="186.7678,-636.3177 197.3034,-637.4369 189.7652,-629.9919 186.7678,-636.3177"/>
</g>
<!-- Node11 -->
<g id="node11" class="node">
<title>Node11</title>
<g id="a_node11"><a xlink:href="../../d9/d3f/mongoose_8cc.html#abbadafd3b6ce148e82e413f4d0dfa934" target="_top" xlink:title="mg_send_response_line">
<polygon fill="none" stroke="#000000" points="483,-598.5 483,-618.5 619,-618.5 619,-598.5 483,-598.5"/>
<text text-anchor="middle" x="551" y="-605.5" font-family="FreeSans" font-size="10.00" fill="#000000">mg_send_response_line</text>
</a>
</g>
</g>
<!-- Node1&#45;&gt;Node11 -->
<g id="edge35" class="edge">
<title>Node1&#45;&gt;Node11</title>
<path fill="none" stroke="#191970" d="M71.3888,-453.6272C82.3086,-480.4827 116.0891,-553.5062 171,-583.5 270.2597,-637.7183 406.5477,-630.6385 486.0525,-619.9735"/>
<polygon fill="#191970" stroke="#191970" points="486.9927,-623.3759 496.4095,-618.5205 486.0202,-616.4438 486.9927,-623.3759"/>
</g>
<!-- Node12 -->
<g id="node12" class="node">
<title>Node12</title>
<g id="a_node12"><a xlink:href="../../d9/d3f/mongoose_8cc.html#a2dca037be3c41853a3dd0d6c338b9cf4" target="_top" xlink:title="mg_printf">
<polygon fill="none" stroke="#000000" points="687,-559.5 687,-579.5 753,-579.5 753,-559.5 687,-559.5"/>
<text text-anchor="middle" x="720" y="-566.5" font-family="FreeSans" font-size="10.00" fill="#000000">mg_printf</text>
</a>
</g>
</g>
<!-- Node1&#45;&gt;Node12 -->
<g id="edge34" class="edge">
<title>Node1&#45;&gt;Node12</title>
<path fill="none" stroke="#191970" d="M119.5196,-453.5452C244.8093,-477.739 561.4656,-538.8865 676.9796,-561.1926"/>
<polygon fill="#191970" stroke="#191970" points="676.3959,-564.6445 686.8781,-563.104 677.7231,-557.7714 676.3959,-564.6445"/>
</g>
<!-- Node29 -->
<g id="node29" class="node">
<title>Node29</title>
<g id="a_node29"><a xlink:href="../../d9/d3f/mongoose_8cc.html#a787e54938e55e2a52d855f94343e9753" target="_top" xlink:title="mg_send_ssi_file">
<polygon fill="none" stroke="#000000" points="335,-433.5 335,-453.5 436,-453.5 436,-433.5 335,-433.5"/>
<text text-anchor="middle" x="385.5" y="-440.5" font-family="FreeSans" font-size="10.00" fill="#000000">mg_send_ssi_file</text>
</a>
</g>
</g>
<!-- Node1&#45;&gt;Node29 -->
<g id="edge36" class="edge">
<title>Node1&#45;&gt;Node29</title>
<path fill="none" stroke="#191970" d="M135.3289,-443.5C191.5364,-443.5 270.7023,-443.5 324.8334,-443.5"/>
<polygon fill="#191970" stroke="#191970" points="324.9747,-447.0001 334.9747,-443.5 324.9747,-440.0001 324.9747,-447.0001"/>
</g>
<!-- Node35 -->
<g id="node35" class="node">
<title>Node35</title>
<g id="a_node35"><a xlink:href="../../d9/d3f/mongoose_8cc.html#a4806971f05e2a75c979485c7d7081622" target="_top" xlink:title="mg_set_close_on_exec">
<polygon fill="none" stroke="#000000" points="655,-191.5 655,-211.5 785,-211.5 785,-191.5 655,-191.5"/>
<text text-anchor="middle" x="720" y="-198.5" font-family="FreeSans" font-size="10.00" fill="#000000">mg_set_close_on_exec</text>
</a>
</g>
</g>
<!-- Node1&#45;&gt;Node35 -->
<g id="edge70" class="edge">
<title>Node1&#45;&gt;Node35</title>
<path fill="none" stroke="#191970" d="M75.3694,-433.4821C91.4761,-413.5225 130.1415,-368.3249 171,-340.5 318.3656,-240.1429 532.4269,-212.2171 644.7522,-204.4644"/>
<polygon fill="#191970" stroke="#191970" points="645.2195,-207.9414 654.9695,-203.7957 644.7622,-200.9563 645.2195,-207.9414"/>
</g>
<!-- Node4 -->
<g id="node4" class="node">
<title>Node4</title>
<g id="a_node4"><a xlink:href="../../d9/d3f/mongoose_8cc.html#a629bf8d53c4ed29e29574933681a2bd4" target="_top" xlink:title="mg_casecmp">
<polygon fill="none" stroke="#000000" points="344,-283.5 344,-303.5 427,-303.5 427,-283.5 344,-283.5"/>
<text text-anchor="middle" x="385.5" y="-290.5" font-family="FreeSans" font-size="10.00" fill="#000000">mg_casecmp</text>
</a>
</g>
</g>
<!-- Node3&#45;&gt;Node4 -->
<g id="edge3" class="edge">
<title>Node3&#45;&gt;Node4</title>
<path fill="none" stroke="#191970" d="M247.1907,-350.3638C265.8664,-339.9395 296.3698,-323.6902 324,-312.5 329.0494,-310.455 334.4059,-308.4998 339.7695,-306.6745"/>
<polygon fill="#191970" stroke="#191970" points="340.9488,-309.9713 349.3666,-303.5376 338.774,-303.3177 340.9488,-309.9713"/>
</g>
<!-- Node7 -->
<g id="node7" class="node">
<title>Node7</title>
<g id="a_node7"><a xlink:href="../../d9/d3f/mongoose_8cc.html#a8b314b9753d45adb4dd62438576e6a1c" target="_top" xlink:title="mg_next_comma_list\l_entry">
<polygon fill="none" stroke="#000000" points="324,-322.5 324,-354.5 447,-354.5 447,-322.5 324,-322.5"/>
<text text-anchor="start" x="332" y="-341.5" font-family="FreeSans" font-size="10.00" fill="#000000">mg_next_comma_list</text>
<text text-anchor="middle" x="385.5" y="-329.5" font-family="FreeSans" font-size="10.00" fill="#000000">_entry</text>
</a>
</g>
</g>
<!-- Node3&#45;&gt;Node7 -->
<g id="edge6" class="edge">
<title>Node3&#45;&gt;Node7</title>
<path fill="none" stroke="#191970" d="M287.1454,-352.3705C295.8479,-351.1432 304.9138,-349.8647 313.8671,-348.6021"/>
<polygon fill="#191970" stroke="#191970" points="314.4892,-352.0491 323.9024,-347.1868 313.5116,-345.1177 314.4892,-352.0491"/>
</g>
<!-- Node8 -->
<g id="node8" class="node">
<title>Node8</title>
<g id="a_node8"><a xlink:href="../../d9/d3f/mongoose_8cc.html#a515b4f130380ca528babbf281ff80781" target="_top" xlink:title="mg_vcasecmp">
<polygon fill="none" stroke="#000000" points="341,-373.5 341,-393.5 430,-393.5 430,-373.5 341,-373.5"/>
<text text-anchor="middle" x="385.5" y="-380.5" font-family="FreeSans" font-size="10.00" fill="#000000">mg_vcasecmp</text>
</a>
</g>
</g>
<!-- Node3&#45;&gt;Node8 -->
<g id="edge7" class="edge">
<title>Node3&#45;&gt;Node8</title>
<path fill="none" stroke="#191970" d="M287.1454,-368.999C301.3932,-371.0996 316.6152,-373.3439 330.7222,-375.4238"/>
<polygon fill="#191970" stroke="#191970" points="330.3637,-378.9087 340.7673,-376.9048 331.3848,-371.9835 330.3637,-378.9087"/>
</g>
<!-- Node5 -->
<g id="node5" class="node">
<title>Node5</title>
<g id="a_node5"><a xlink:href="../../d9/d3f/mongoose_8cc.html#aeb5153bb18d4395fbb9c91181eda5420" target="_top" xlink:title="mg_ncasecmp">
<polygon fill="none" stroke="#000000" points="506.5,-283.5 506.5,-303.5 595.5,-303.5 595.5,-283.5 506.5,-283.5"/>
<text text-anchor="middle" x="551" y="-290.5" font-family="FreeSans" font-size="10.00" fill="#000000">mg_ncasecmp</text>
</a>
</g>
</g>
<!-- Node4&#45;&gt;Node5 -->
<g id="edge4" class="edge">
<title>Node4&#45;&gt;Node5</title>
<path fill="none" stroke="#191970" d="M427.2626,-293.5C448.1887,-293.5 473.7933,-293.5 496.2704,-293.5"/>
<polygon fill="#191970" stroke="#191970" points="496.3496,-297.0001 506.3496,-293.5 496.3496,-290.0001 496.3496,-297.0001"/>
</g>
<!-- Node6 -->
<g id="node6" class="node">
<title>Node6</title>
<g id="a_node6"><a xlink:href="../../d9/d3f/mongoose_8cc.html#a9682bb02df6aff4820e030d3c730872e" target="_top" xlink:title="lowercase">
<polygon fill="none" stroke="#000000" points="1040.5,-289.5 1040.5,-309.5 1107.5,-309.5 1107.5,-289.5 1040.5,-289.5"/>
<text text-anchor="middle" x="1074" y="-296.5" font-family="FreeSans" font-size="10.00" fill="#000000">lowercase</text>
</a>
</g>
</g>
<!-- Node5&#45;&gt;Node6 -->
<g id="edge5" class="edge">
<title>Node5&#45;&gt;Node6</title>
<path fill="none" stroke="#191970" d="M595.5907,-294.0116C694.6206,-295.1477 931.8735,-297.8695 1030.1809,-298.9973"/>
<polygon fill="#191970" stroke="#191970" points="1030.3207,-302.499 1040.3602,-299.1141 1030.401,-295.4995 1030.3207,-302.499"/>
</g>
<!-- Node8&#45;&gt;Node5 -->
<g id="edge8" class="edge">
<title>Node8&#45;&gt;Node5</title>
<path fill="none" stroke="#191970" d="M422.2566,-373.3941C430.568,-370.6052 439.2284,-367.287 447,-363.5 455.4742,-359.3707 500.1106,-328.7704 528.0818,-309.4192"/>
<polygon fill="#191970" stroke="#191970" points="530.2841,-312.1514 536.5109,-303.5795 526.2976,-306.3974 530.2841,-312.1514"/>
</g>
<!-- Node10 -->
<g id="node10" class="node">
<title>Node10</title>
<g id="a_node10"><a xlink:href="../../d9/d3f/mongoose_8cc.html#af7feaa81ea678307cf8697c975d99a22" target="_top" xlink:title="mg_send_head">
<polygon fill="none" stroke="#000000" points="339.5,-637.5 339.5,-657.5 431.5,-657.5 431.5,-637.5 339.5,-637.5"/>
<text text-anchor="middle" x="385.5" y="-644.5" font-family="FreeSans" font-size="10.00" fill="#000000">mg_send_head</text>
</a>
</g>
</g>
<!-- Node9&#45;&gt;Node10 -->
<g id="edge10" class="edge">
<title>Node9&#45;&gt;Node10</title>
<path fill="none" stroke="#191970" d="M288.0325,-647.5C301.5359,-647.5 315.8709,-647.5 329.2735,-647.5"/>
<polygon fill="#191970" stroke="#191970" points="329.3116,-651.0001 339.3116,-647.5 329.3115,-644.0001 329.3116,-651.0001"/>
</g>
<!-- Node15 -->
<g id="node15" class="node">
<title>Node15</title>
<g id="a_node15"><a xlink:href="../../d9/d3f/mongoose_8cc.html#ab0613b2aa565a9b4c3ecca1488dfacad" target="_top" xlink:title="mg_send">
<polygon fill="none" stroke="#000000" points="1043,-637.5 1043,-657.5 1105,-657.5 1105,-637.5 1043,-637.5"/>
<text text-anchor="middle" x="1074" y="-644.5" font-family="FreeSans" font-size="10.00" fill="#000000">mg_send</text>
</a>
</g>
</g>
<!-- Node9&#45;&gt;Node15 -->
<g id="edge33" class="edge">
<title>Node9&#45;&gt;Node15</title>
<path fill="none" stroke="#191970" d="M254.4473,-657.5922C307.8769,-678.2657 437.7253,-723.5 551,-723.5 551,-723.5 551,-723.5 720,-723.5 837.8417,-723.5 972.9318,-682.7432 1036.8125,-660.9226"/>
<polygon fill="#191970" stroke="#191970" points="1038.1337,-664.1691 1046.44,-657.5922 1035.8452,-657.5537 1038.1337,-664.1691"/>
</g>
<!-- Node10&#45;&gt;Node11 -->
<g id="edge11" class="edge">
<title>Node10&#45;&gt;Node11</title>
<path fill="none" stroke="#191970" d="M428.1204,-637.4565C449.6449,-632.3843 475.9491,-626.1857 498.6897,-620.8269"/>
<polygon fill="#191970" stroke="#191970" points="499.5935,-624.2099 508.5241,-618.5094 497.9879,-617.3965 499.5935,-624.2099"/>
</g>
<!-- Node10&#45;&gt;Node12 -->
<g id="edge31" class="edge">
<title>Node10&#45;&gt;Node12</title>
<path fill="none" stroke="#191970" d="M431.8281,-649.3604C479.7743,-649.9515 556.2915,-647.1291 619,-627.5 648.6194,-618.2285 679.0294,-599.2243 698.634,-585.4915"/>
<polygon fill="#191970" stroke="#191970" points="700.7531,-588.2788 706.8395,-579.6066 696.6735,-582.5905 700.7531,-588.2788"/>
</g>
<!-- Node10&#45;&gt;Node15 -->
<g id="edge32" class="edge">
<title>Node10&#45;&gt;Node15</title>
<path fill="none" stroke="#191970" d="M431.6467,-651.5011C530.8443,-659.4643 771.7229,-675.3835 973,-661.5 992.7265,-660.1393 1014.4671,-657.3007 1032.7085,-654.533"/>
<polygon fill="#191970" stroke="#191970" points="1033.3846,-657.9699 1042.7244,-652.968 1032.3039,-651.0538 1033.3846,-657.9699"/>
</g>
<!-- Node11&#45;&gt;Node12 -->
<g id="edge12" class="edge">
<title>Node11&#45;&gt;Node12</title>
<path fill="none" stroke="#191970" d="M594.5217,-598.4565C619.793,-592.6247 651.5164,-585.3039 676.7425,-579.4825"/>
<polygon fill="#191970" stroke="#191970" points="677.8086,-582.8285 686.7655,-577.1695 676.2345,-576.0078 677.8086,-582.8285"/>
</g>
<!-- Node13 -->
<g id="node13" class="node">
<title>Node13</title>
<g id="a_node13"><a xlink:href="../../d9/d3f/mongoose_8cc.html#a732f9c86340f7b54ba7c6347808132a7" target="_top" xlink:title="mg_vprintf">
<polygon fill="none" stroke="#000000" points="861,-598.5 861,-618.5 933,-618.5 933,-598.5 861,-598.5"/>
<text text-anchor="middle" x="897" y="-605.5" font-family="FreeSans" font-size="10.00" fill="#000000">mg_vprintf</text>
</a>
</g>
</g>
<!-- Node12&#45;&gt;Node13 -->
<g id="edge13" class="edge">
<title>Node12&#45;&gt;Node13</title>
<path fill="none" stroke="#191970" d="M753.2923,-576.8356C780.8235,-582.9018 820.2227,-591.583 850.8069,-598.3219"/>
<polygon fill="#191970" stroke="#191970" points="850.2922,-601.7923 860.8111,-600.5262 851.7985,-594.9563 850.2922,-601.7923"/>
</g>
<!-- Node14 -->
<g id="node14" class="node">
<title>Node14</title>
<g id="a_node14"><a xlink:href="../../d9/d3f/mongoose_8cc.html#a11bf96f2bbb1d24a3a5837d4a9743362" target="_top" xlink:title="mg_avprintf">
<polygon fill="none" stroke="#000000" points="1035,-598.5 1035,-618.5 1113,-618.5 1113,-598.5 1035,-598.5"/>
<text text-anchor="middle" x="1074" y="-605.5" font-family="FreeSans" font-size="10.00" fill="#000000">mg_avprintf</text>
</a>
</g>
</g>
<!-- Node13&#45;&gt;Node14 -->
<g id="edge14" class="edge">
<title>Node13&#45;&gt;Node14</title>
<path fill="none" stroke="#191970" d="M933.2457,-608.5C959.5484,-608.5 995.4453,-608.5 1024.4039,-608.5"/>
<polygon fill="#191970" stroke="#191970" points="1024.7283,-612.0001 1034.7283,-608.5 1024.7282,-605.0001 1024.7283,-612.0001"/>
</g>
<!-- Node13&#45;&gt;Node15 -->
<g id="edge15" class="edge">
<title>Node13&#45;&gt;Node15</title>
<path fill="none" stroke="#191970" d="M933.2457,-616.4863C962.2326,-622.8733 1002.8717,-631.8277 1033.0351,-638.4738"/>
<polygon fill="#191970" stroke="#191970" points="1032.312,-641.8984 1042.8309,-640.6322 1033.8182,-635.0624 1032.312,-641.8984"/>
</g>
<!-- Node16 -->
<g id="node16" class="node">
<title>Node16</title>
<g id="a_node16"><a xlink:href="../../d9/d3f/mongoose_8cc.html#aa93fbafbfbe46d722a902f7ca23b4718" target="_top" xlink:title="mg_time">
<polygon fill="none" stroke="#000000" points="1218,-598.5 1218,-618.5 1278,-618.5 1278,-598.5 1218,-598.5"/>
<text text-anchor="middle" x="1248" y="-605.5" font-family="FreeSans" font-size="10.00" fill="#000000">mg_time</text>
</a>
</g>
</g>
<!-- Node15&#45;&gt;Node16 -->
<g id="edge16" class="edge">
<title>Node15&#45;&gt;Node16</title>
<path fill="none" stroke="#191970" d="M1105.1077,-640.5276C1133.7381,-634.1104 1176.3729,-624.5543 1207.6205,-617.5506"/>
<polygon fill="#191970" stroke="#191970" points="1208.7519,-620.8839 1217.7443,-615.2814 1207.2209,-614.0534 1208.7519,-620.8839"/>
</g>
<!-- Node19 -->
<g id="node19" class="node">
<title>Node19</title>
<g id="a_node19"><a xlink:href="../../d9/d3f/mongoose_8cc.html#a7e535724637ae9fd7b4ca7162e0c3bd1" target="_top" xlink:title="mg_if_udp_send">
<polygon fill="none" stroke="#000000" points="1199,-637.5 1199,-657.5 1297,-657.5 1297,-637.5 1199,-637.5"/>
<text text-anchor="middle" x="1248" y="-644.5" font-family="FreeSans" font-size="10.00" fill="#000000">mg_if_udp_send</text>
</a>
</g>
</g>
<!-- Node15&#45;&gt;Node19 -->
<g id="edge19" class="edge">
<title>Node15&#45;&gt;Node19</title>
<path fill="none" stroke="#191970" d="M1105.1077,-647.5C1128.2656,-647.5 1160.5858,-647.5 1188.6313,-647.5"/>
<polygon fill="#191970" stroke="#191970" points="1188.7456,-651.0001 1198.7456,-647.5 1188.7456,-644.0001 1188.7456,-651.0001"/>
</g>
<!-- Node22 -->
<g id="node22" class="node">
<title>Node22</title>
<g id="a_node22"><a xlink:href="../../d9/d3f/mongoose_8cc.html#a2e76536d81dabb1dabd435941de1521a" target="_top" xlink:title="mg_if_tcp_send">
<polygon fill="none" stroke="#000000" points="1201,-676.5 1201,-696.5 1295,-696.5 1295,-676.5 1201,-676.5"/>
<text text-anchor="middle" x="1248" y="-683.5" font-family="FreeSans" font-size="10.00" fill="#000000">mg_if_tcp_send</text>
</a>
</g>
</g>
<!-- Node15&#45;&gt;Node22 -->
<g id="edge22" class="edge">
<title>Node15&#45;&gt;Node22</title>
<path fill="none" stroke="#191970" d="M1105.1077,-654.4724C1129.5039,-659.9405 1164.0685,-667.6878 1193.0916,-674.1929"/>
<polygon fill="#191970" stroke="#191970" points="1192.5771,-677.6644 1203.1006,-676.4363 1194.1082,-670.8339 1192.5771,-677.6644"/>
</g>
<!-- Node23 -->
<g id="node23" class="node">
<title>Node23</title>
<g id="a_node23"><a xlink:href="../../d9/d3f/mongoose_8cc.html#a6f9932cae4b4a2b6286a3e6449e30f5e" target="_top" xlink:title="mg_hexdump_connection">
<polygon fill="none" stroke="#000000" points="1175,-452.5 1175,-472.5 1321,-472.5 1321,-452.5 1175,-452.5"/>
<text text-anchor="middle" x="1248" y="-459.5" font-family="FreeSans" font-size="10.00" fill="#000000">mg_hexdump_connection</text>
</a>
</g>
</g>
<!-- Node15&#45;&gt;Node23 -->
<g id="edge24" class="edge">
<title>Node15&#45;&gt;Node23</title>
<path fill="none" stroke="#191970" d="M1105.1384,-642.5046C1116.6007,-639.5409 1129.1712,-634.8601 1139,-627.5 1166.1075,-607.2012 1216.1672,-520.1995 1237.7054,-481.3563"/>
<polygon fill="#191970" stroke="#191970" points="1240.7759,-483.0361 1242.5354,-472.5884 1234.6447,-479.6585 1240.7759,-483.0361"/>
</g>
<!-- Node17 -->
<g id="node17" class="node">
<title>Node17</title>
<g id="a_node17"><a xlink:href="../../d9/d3f/mongoose_8cc.html#a3e6050027ad3bf282c3eff9491fe46c0" target="_top" xlink:title="cs_time">
<polygon fill="none" stroke="#000000" points="1408.5,-598.5 1408.5,-618.5 1463.5,-618.5 1463.5,-598.5 1408.5,-598.5"/>
<text text-anchor="middle" x="1436" y="-605.5" font-family="FreeSans" font-size="10.00" fill="#000000">cs_time</text>
</a>
</g>
</g>
<!-- Node16&#45;&gt;Node17 -->
<g id="edge17" class="edge">
<title>Node16&#45;&gt;Node17</title>
<path fill="none" stroke="#191970" d="M1278.2055,-608.5C1310.7518,-608.5 1362.6171,-608.5 1397.9314,-608.5"/>
<polygon fill="#191970" stroke="#191970" points="1398.32,-612.0001 1408.3199,-608.5 1398.3199,-605.0001 1398.32,-612.0001"/>
</g>
<!-- Node18 -->
<g id="node18" class="node">
<title>Node18</title>
<g id="a_node18"><a xlink:href="../../da/d55/TPCRateLayered_8m.html#ac40e4ec8f2a74a2878f06670249eebb8" target="_top" xlink:title="double">
<polygon fill="none" stroke="#000000" points="1587.5,-598.5 1587.5,-618.5 1638.5,-618.5 1638.5,-598.5 1587.5,-598.5"/>
<text text-anchor="middle" x="1613" y="-605.5" font-family="FreeSans" font-size="10.00" fill="#000000">double</text>
</a>
</g>
</g>
<!-- Node17&#45;&gt;Node18 -->
<g id="edge18" class="edge">
<title>Node17&#45;&gt;Node18</title>
<path fill="none" stroke="#191970" d="M1463.6563,-608.5C1494.1877,-608.5 1543.4444,-608.5 1576.9731,-608.5"/>
<polygon fill="#191970" stroke="#191970" points="1577.2627,-612.0001 1587.2627,-608.5 1577.2626,-605.0001 1577.2627,-612.0001"/>
</g>
<!-- Node20 -->
<g id="node20" class="node">
<title>Node20</title>
<g id="a_node20"><a xlink:href="../../d9/d3f/mongoose_8cc.html#a437359bb2fb326a1f221019662a225b7" target="_top" xlink:title="mbuf_append">
<polygon fill="none" stroke="#000000" points="1393,-657.5 1393,-677.5 1479,-677.5 1479,-657.5 1393,-657.5"/>
<text text-anchor="middle" x="1436" y="-664.5" font-family="FreeSans" font-size="10.00" fill="#000000">mbuf_append</text>
</a>
</g>
</g>
<!-- Node19&#45;&gt;Node20 -->
<g id="edge20" class="edge">
<title>Node19&#45;&gt;Node20</title>
<path fill="none" stroke="#191970" d="M1297.3948,-652.7548C1323.6339,-655.5462 1355.9095,-658.9797 1382.7118,-661.831"/>
<polygon fill="#191970" stroke="#191970" points="1382.3778,-665.3152 1392.692,-662.8928 1383.1184,-658.3545 1382.3778,-665.3152"/>
</g>
<!-- Node21 -->
<g id="node21" class="node">
<title>Node21</title>
<g id="a_node21"><a xlink:href="../../d9/d3f/mongoose_8cc.html#ae5034ec231569976f6ce24ea6af888ac" target="_top" xlink:title="mbuf_insert">
<polygon fill="none" stroke="#000000" points="1574.5,-657.5 1574.5,-677.5 1651.5,-677.5 1651.5,-657.5 1574.5,-657.5"/>
<text text-anchor="middle" x="1613" y="-664.5" font-family="FreeSans" font-size="10.00" fill="#000000">mbuf_insert</text>
</a>
</g>
</g>
<!-- Node20&#45;&gt;Node21 -->
<g id="edge21" class="edge">
<title>Node20&#45;&gt;Node21</title>
<path fill="none" stroke="#191970" d="M1479.2991,-667.5C1504.9589,-667.5 1537.5486,-667.5 1564.1282,-667.5"/>
<polygon fill="#191970" stroke="#191970" points="1564.3651,-671.0001 1574.3651,-667.5 1564.365,-664.0001 1564.3651,-671.0001"/>
</g>
<!-- Node22&#45;&gt;Node20 -->
<g id="edge23" class="edge">
<title>Node22&#45;&gt;Node20</title>
<path fill="none" stroke="#191970" d="M1295.4403,-681.7055C1321.9652,-679.0248 1355.1072,-675.6753 1382.5468,-672.9022"/>
<polygon fill="#191970" stroke="#191970" points="1383.161,-676.358 1392.7584,-671.8702 1382.4571,-669.3935 1383.161,-676.358"/>
</g>
<!-- Node23&#45;&gt;Node2 -->
<g id="edge30" class="edge">
<title>Node23&#45;&gt;Node2</title>
<path fill="none" stroke="#191970" d="M1272.8317,-452.4532C1294.7458,-443.8125 1327.674,-431.375 1357,-422.5 1371.9931,-417.9626 1388.8438,-413.7866 1403.1192,-410.5121"/>
<polygon fill="#191970" stroke="#191970" points="1404.005,-413.9005 1412.9955,-408.2949 1402.4717,-407.0705 1404.005,-413.9005"/>
</g>
<!-- Node24 -->
<g id="node24" class="node">
<title>Node24</title>
<g id="a_node24"><a xlink:href="../../d9/d3f/mongoose_8cc.html#a45d343f1d3f3c0aa79410b256e56c9ea" target="_top" xlink:title="mg_conn_addr_to_str">
<polygon fill="none" stroke="#000000" points="1374,-510.5 1374,-530.5 1498,-530.5 1498,-510.5 1374,-510.5"/>
<text text-anchor="middle" x="1436" y="-517.5" font-family="FreeSans" font-size="10.00" fill="#000000">mg_conn_addr_to_str</text>
</a>
</g>
</g>
<!-- Node23&#45;&gt;Node24 -->
<g id="edge25" class="edge">
<title>Node23&#45;&gt;Node24</title>
<path fill="none" stroke="#191970" d="M1274.6629,-472.5288C1296.6006,-480.6024 1328.5928,-491.9703 1357,-500.5 1365.5653,-503.0719 1374.7172,-505.593 1383.6439,-507.9317"/>
<polygon fill="#191970" stroke="#191970" points="1383.0268,-511.3868 1393.5834,-510.4876 1384.7702,-504.6074 1383.0268,-511.3868"/>
</g>
<!-- Node27 -->
<g id="node27" class="node">
<title>Node27</title>
<g id="a_node27"><a xlink:href="../../d4/d23/Prototype2_2EMCal_2macros_2EnergyCalibFit_8m.html#a0f562e412982273e906f55843990c582" target="_top" xlink:title="fprintf">
<polygon fill="none" stroke="#000000" points="1412,-471.5 1412,-491.5 1460,-491.5 1460,-471.5 1412,-471.5"/>
<text text-anchor="middle" x="1436" y="-478.5" font-family="FreeSans" font-size="10.00" fill="#000000">fprintf</text>
</a>
</g>
</g>
<!-- Node23&#45;&gt;Node27 -->
<g id="edge28" class="edge">
<title>Node23&#45;&gt;Node27</title>
<path fill="none" stroke="#191970" d="M1321.224,-469.9003C1348.9934,-472.7068 1379.3092,-475.7706 1401.8073,-478.0444"/>
<polygon fill="#191970" stroke="#191970" points="1401.5658,-481.5377 1411.8671,-479.061 1402.2697,-474.5732 1401.5658,-481.5377"/>
</g>
<!-- Node28 -->
<g id="node28" class="node">
<title>Node28</title>
<g id="a_node28"><a xlink:href="../../d9/d3f/mongoose_8cc.html#aa151a33f8ec5d956c754c3728bc1b9be" target="_top" xlink:title="mg_hexdump">
<polygon fill="none" stroke="#000000" points="1393.5,-432.5 1393.5,-452.5 1478.5,-452.5 1478.5,-432.5 1393.5,-432.5"/>
<text text-anchor="middle" x="1436" y="-439.5" font-family="FreeSans" font-size="10.00" fill="#000000">mg_hexdump</text>
</a>
</g>
</g>
<!-- Node23&#45;&gt;Node28 -->
<g id="edge29" class="edge">
<title>Node23&#45;&gt;Node28</title>
<path fill="none" stroke="#191970" d="M1321.224,-454.7102C1341.9363,-452.5068 1364.0651,-450.1526 1383.3102,-448.1053"/>
<polygon fill="#191970" stroke="#191970" points="1383.8085,-451.5721 1393.3821,-447.0338 1383.0679,-444.6114 1383.8085,-451.5721"/>
</g>
<!-- Node25 -->
<g id="node25" class="node">
<title>Node25</title>
<g id="a_node25"><a xlink:href="../../d9/d3f/mongoose_8cc.html#a0f7d485b180f94cb5ece03ef5e77932e" target="_top" xlink:title="mg_if_get_conn_addr">
<polygon fill="none" stroke="#ff0000" points="1551,-530.5 1551,-550.5 1675,-550.5 1675,-530.5 1551,-530.5"/>
<text text-anchor="middle" x="1613" y="-537.5" font-family="FreeSans" font-size="10.00" fill="#000000">mg_if_get_conn_addr</text>
</a>
</g>
</g>
<!-- Node24&#45;&gt;Node25 -->
<g id="edge26" class="edge">
<title>Node24&#45;&gt;Node25</title>
<path fill="none" stroke="#191970" d="M1498.4036,-527.5513C1512.0991,-529.0988 1526.7102,-530.7497 1540.7557,-532.3368"/>
<polygon fill="#191970" stroke="#191970" points="1540.5321,-535.8337 1550.8618,-533.4787 1541.3181,-528.878 1540.5321,-535.8337"/>
</g>
<!-- Node26 -->
<g id="node26" class="node">
<title>Node26</title>
<g id="a_node26"><a xlink:href="../../d9/d3f/mongoose_8cc.html#ac892fb1c2a55245531e870d84ef44659" target="_top" xlink:title="mg_sock_addr_to_str">
<polygon fill="none" stroke="#ff0000" points="1552,-491.5 1552,-511.5 1674,-511.5 1674,-491.5 1552,-491.5"/>
<text text-anchor="middle" x="1613" y="-498.5" font-family="FreeSans" font-size="10.00" fill="#000000">mg_sock_addr_to_str</text>
</a>
</g>
</g>
<!-- Node24&#45;&gt;Node26 -->
<g id="edge27" class="edge">
<title>Node24&#45;&gt;Node26</title>
<path fill="none" stroke="#191970" d="M1498.4036,-513.8013C1512.3393,-512.3054 1527.2232,-510.7077 1541.4944,-509.1757"/>
<polygon fill="#191970" stroke="#191970" points="1542.1862,-512.6217 1551.7555,-508.0743 1541.439,-505.6617 1542.1862,-512.6217"/>
</g>
<!-- Node29&#45;&gt;Node12 -->
<g id="edge37" class="edge">
<title>Node29&#45;&gt;Node12</title>
<path fill="none" stroke="#191970" d="M418.4462,-453.6032C478.2212,-471.9836 600.1298,-509.7173 619,-517.5 645.1279,-528.2761 673.653,-543.2822 693.7041,-554.4058"/>
<polygon fill="#191970" stroke="#191970" points="692.1157,-557.5278 702.5498,-559.3664 695.5397,-551.4223 692.1157,-557.5278"/>
</g>
<!-- Node29&#45;&gt;Node15 -->
<g id="edge69" class="edge">
<title>Node29&#45;&gt;Node15</title>
<path fill="none" stroke="#191970" d="M398.5801,-453.5979C416.8524,-467.4416 451.3427,-492.6293 483,-510.5 621.4336,-588.6463 663.9337,-602.9867 821,-627.5 894.9698,-639.0445 982.203,-644.0749 1032.507,-646.1526"/>
<polygon fill="#191970" stroke="#191970" points="1032.5327,-649.6562 1042.6627,-646.5524 1032.8081,-642.6616 1032.5327,-649.6562"/>
</g>
<!-- Node30 -->
<g id="node30" class="node">
<title>Node30</title>
<g id="a_node30"><a xlink:href="../../d9/d3f/mongoose_8cc.html#ade2d7e4404d2ba08e3847f430782d86a" target="_top" xlink:title="mg_do_ssi_include">
<polygon fill="none" stroke="#000000" points="496,-405.5 496,-425.5 606,-425.5 606,-405.5 496,-405.5"/>
<text text-anchor="middle" x="551" y="-412.5" font-family="FreeSans" font-size="10.00" fill="#000000">mg_do_ssi_include</text>
</a>
</g>
</g>
<!-- Node29&#45;&gt;Node30 -->
<g id="edge38" class="edge">
<title>Node29&#45;&gt;Node30</title>
<path fill="none" stroke="#191970" d="M413.9505,-433.4446C433.6889,-428.7986 460.8072,-423.7531 485.7139,-419.9308"/>
<polygon fill="#191970" stroke="#191970" points="486.4801,-423.3555 495.8577,-418.4248 485.4521,-416.4314 486.4801,-423.3555"/>
</g>
<!-- Node41 -->
<g id="node41" class="node">
<title>Node41</title>
<g id="a_node41"><a xlink:href="../../d9/d3f/mongoose_8cc.html#a5f21836d0d15f7ec311da58d2616fc61" target="_top" xlink:title="mg_do_ssi_call">
<polygon fill="none" stroke="#000000" points="505.5,-350.5 505.5,-370.5 596.5,-370.5 596.5,-350.5 505.5,-350.5"/>
<text text-anchor="middle" x="551" y="-357.5" font-family="FreeSans" font-size="10.00" fill="#000000">mg_do_ssi_call</text>
</a>
</g>
</g>
<!-- Node29&#45;&gt;Node41 -->
<g id="edge55" class="edge">
<title>Node29&#45;&gt;Node41</title>
<path fill="none" stroke="#191970" d="M405.4632,-433.4883C434.4151,-418.9686 488.2424,-391.9736 521.6977,-375.1954"/>
<polygon fill="#191970" stroke="#191970" points="523.5962,-378.1588 530.966,-370.5472 520.4581,-371.9016 523.5962,-378.1588"/>
</g>
<!-- Node46 -->
<g id="node46" class="node">
<title>Node46</title>
<g id="a_node46"><a xlink:href="../../d9/d3f/mongoose_8cc.html#a08c3ca772779bee14f59567aafd2d79a" target="_top" xlink:title="do_ssi_exec">
<polygon fill="none" stroke="#000000" points="513,-444.5 513,-464.5 589,-464.5 589,-444.5 513,-444.5"/>
<text text-anchor="middle" x="551" y="-451.5" font-family="FreeSans" font-size="10.00" fill="#000000">do_ssi_exec</text>
</a>
</g>
</g>
<!-- Node29&#45;&gt;Node46 -->
<g id="edge62" class="edge">
<title>Node29&#45;&gt;Node46</title>
<path fill="none" stroke="#191970" d="M436.0547,-446.8601C457.1981,-448.2654 481.6637,-449.8915 502.5749,-451.2814"/>
<polygon fill="#191970" stroke="#191970" points="502.626,-454.7924 512.8362,-451.9634 503.0903,-447.8079 502.626,-454.7924"/>
</g>
<!-- Node30&#45;&gt;Node2 -->
<g id="edge39" class="edge">
<title>Node30&#45;&gt;Node2</title>
<path fill="none" stroke="#191970" d="M606.1308,-415.2425C674.409,-414.9462 794.2808,-414.5 897,-414.5 897,-414.5 897,-414.5 1074,-414.5 1194.9557,-414.5 1338.5401,-408.2886 1402.4437,-405.2008"/>
<polygon fill="#191970" stroke="#191970" points="1402.8976,-408.6829 1412.7145,-404.6981 1402.5554,-401.6913 1402.8976,-408.6829"/>
</g>
<!-- Node30&#45;&gt;Node12 -->
<g id="edge45" class="edge">
<title>Node30&#45;&gt;Node12</title>
<path fill="none" stroke="#191970" d="M605.4867,-425.5087C610.4081,-427.9006 615.0253,-430.8544 619,-434.5 652.5815,-465.3014 625.8338,-495.4889 655,-530.5 663.2916,-540.4533 674.8173,-548.5185 685.864,-554.676"/>
<polygon fill="#191970" stroke="#191970" points="684.4619,-557.8917 694.949,-559.3991 687.6909,-551.6809 684.4619,-557.8917"/>
</g>
<!-- Node30&#45;&gt;Node29 -->
<g id="edge48" class="edge">
<title>Node30&#45;&gt;Node29</title>
<path fill="none" stroke="#191970" d="M522.3905,-425.5928C501.4532,-430.5134 472.2743,-435.8768 446.2328,-439.758"/>
<polygon fill="#191970" stroke="#191970" points="445.4551,-436.3337 436.0547,-441.2207 446.4509,-443.2625 445.4551,-436.3337"/>
</g>
<!-- Node31 -->
<g id="node31" class="node">
<title>Node31</title>
<g id="a_node31"><a xlink:href="../../d9/d3f/mongoose_8cc.html#a86b3b18850b4a122e8cd173941b43ab6" target="_top" xlink:title="mg_match_prefix">
<polygon fill="none" stroke="#000000" points="668,-365.5 668,-385.5 772,-385.5 772,-365.5 668,-365.5"/>
<text text-anchor="middle" x="720" y="-372.5" font-family="FreeSans" font-size="10.00" fill="#000000">mg_match_prefix</text>
</a>
</g>
</g>
<!-- Node30&#45;&gt;Node31 -->
<g id="edge40" class="edge">
<title>Node30&#45;&gt;Node31</title>
<path fill="none" stroke="#191970" d="M593.6458,-405.4063C616.1481,-400.0803 643.9482,-393.5004 667.7379,-387.8697"/>
<polygon fill="#191970" stroke="#191970" points="668.7358,-391.2303 677.6608,-385.5211 667.1235,-384.4185 668.7358,-391.2303"/>
</g>
<!-- Node34 -->
<g id="node34" class="node">
<title>Node34</title>
<g id="a_node34"><a xlink:href="../../d9/d3f/mongoose_8cc.html#a1753f2ba3e44cafd7d9e91cc28a3fa5b" target="_top" xlink:title="mg_send_file_data">
<polygon fill="none" stroke="#000000" points="665,-443.5 665,-463.5 775,-463.5 775,-443.5 665,-443.5"/>
<text text-anchor="middle" x="720" y="-450.5" font-family="FreeSans" font-size="10.00" fill="#000000">mg_send_file_data</text>
</a>
</g>
</g>
<!-- Node30&#45;&gt;Node34 -->
<g id="edge46" class="edge">
<title>Node30&#45;&gt;Node34</title>
<path fill="none" stroke="#191970" d="M595.8452,-425.5835C617.13,-430.3695 642.756,-436.1315 665.1854,-441.1748"/>
<polygon fill="#191970" stroke="#191970" points="664.7145,-444.6563 675.2387,-443.4353 666.2501,-437.8268 664.7145,-444.6563"/>
</g>
<!-- Node30&#45;&gt;Node35 -->
<g id="edge49" class="edge">
<title>Node30&#45;&gt;Node35</title>
<path fill="none" stroke="#191970" d="M582.7104,-405.4196C595.7546,-399.756 609.9069,-391.3803 619,-379.5 663.0379,-321.9636 605.3716,-273.2902 655,-220.5 656.0569,-219.3757 657.1764,-218.3168 658.3491,-217.3194"/>
<polygon fill="#191970" stroke="#191970" points="660.4674,-220.1114 666.7651,-211.5914 656.5288,-214.3246 660.4674,-220.1114"/>
</g>
<!-- Node32 -->
<g id="node32" class="node">
<title>Node32</title>
<g id="a_node32"><a xlink:href="../../d9/d3f/mongoose_8cc.html#aa392353a491081f279ee8dc588f3b675" target="_top" xlink:title="mg_match_prefix_n">
<polygon fill="none" stroke="#000000" points="839.5,-308.5 839.5,-328.5 954.5,-328.5 954.5,-308.5 839.5,-308.5"/>
<text text-anchor="middle" x="897" y="-315.5" font-family="FreeSans" font-size="10.00" fill="#000000">mg_match_prefix_n</text>
</a>
</g>
</g>
<!-- Node31&#45;&gt;Node32 -->
<g id="edge41" class="edge">
<title>Node31&#45;&gt;Node32</title>
<path fill="none" stroke="#191970" d="M751.2366,-365.4408C780.3412,-356.0681 823.926,-342.0323 855.8547,-331.7502"/>
<polygon fill="#191970" stroke="#191970" points="857.3327,-334.9513 865.7785,-328.5544 855.187,-328.2883 857.3327,-334.9513"/>
</g>
<!-- Node33 -->
<g id="node33" class="node">
<title>Node33</title>
<g id="a_node33"><a xlink:href="../../d9/d3f/mongoose_8cc.html#ad370e6a9b01504eb5f1b7217bfeeb07f" target="_top" xlink:title="mg_mk_str">
<polygon fill="none" stroke="#000000" points="861,-365.5 861,-385.5 933,-385.5 933,-365.5 861,-365.5"/>
<text text-anchor="middle" x="897" y="-372.5" font-family="FreeSans" font-size="10.00" fill="#000000">mg_mk_str</text>
</a>
</g>
</g>
<!-- Node31&#45;&gt;Node33 -->
<g id="edge44" class="edge">
<title>Node31&#45;&gt;Node33</title>
<path fill="none" stroke="#191970" d="M772.1485,-375.5C797.0206,-375.5 826.529,-375.5 850.6121,-375.5"/>
<polygon fill="#191970" stroke="#191970" points="850.9147,-379.0001 860.9147,-375.5 850.9146,-372.0001 850.9147,-379.0001"/>
</g>
<!-- Node32&#45;&gt;Node6 -->
<g id="edge43" class="edge">
<title>Node32&#45;&gt;Node6</title>
<path fill="none" stroke="#191970" d="M954.9564,-312.2787C979.5246,-309.6414 1007.6722,-306.6199 1030.4271,-304.1773"/>
<polygon fill="#191970" stroke="#191970" points="1030.901,-307.6466 1040.4703,-303.0992 1030.1538,-300.6866 1030.901,-307.6466"/>
</g>
<!-- Node32&#45;&gt;Node32 -->
<g id="edge42" class="edge">
<title>Node32&#45;&gt;Node32</title>
<path fill="none" stroke="#191970" d="M869.4463,-328.7271C856.8779,-337.6067 866.0625,-347 897,-347 917.7861,-347 928.7526,-342.7597 929.8995,-337.2839"/>
<polygon fill="#191970" stroke="#191970" points="932.8205,-335.3536 924.5537,-328.7271 926.8839,-339.0625 932.8205,-335.3536"/>
</g>
<!-- Node34&#45;&gt;Node15 -->
<g id="edge47" class="edge">
<title>Node34&#45;&gt;Node15</title>
<path fill="none" stroke="#191970" d="M759.0979,-443.4041C813.8284,-431.8173 913.2641,-420.4131 973,-471.5 1027.0769,-517.7472 960.5212,-575.4144 1009,-627.5 1015.439,-634.4181 1024.2064,-638.9653 1033.2165,-641.9478"/>
<polygon fill="#191970" stroke="#191970" points="1032.4218,-645.3588 1042.99,-644.6083 1034.2604,-638.6045 1032.4218,-645.3588"/>
</g>
<!-- Node36 -->
<g id="node36" class="node">
<title>Node36</title>
<g id="a_node36"><a xlink:href="../../dc/df0/namespacenlohmann_1_1detail.html#a59fca69799f6b9e366710cb9043aa77d" target="_top" xlink:title="nlohmann::detail::void">
<polygon fill="none" stroke="#000000" points="1009,-118.5 1009,-138.5 1139,-138.5 1139,-118.5 1009,-118.5"/>
<text text-anchor="middle" x="1074" y="-125.5" font-family="FreeSans" font-size="10.00" fill="#000000">nlohmann::detail::void</text>
</a>
</g>
</g>
<!-- Node35&#45;&gt;Node36 -->
<g id="edge50" class="edge">
<title>Node35&#45;&gt;Node36</title>
<path fill="none" stroke="#191970" d="M732.8105,-191.4967C751.1553,-177.8176 786.5133,-153.8006 821,-143.5 878.8825,-126.2115 947.4468,-123.1523 998.5879,-124.0326"/>
<polygon fill="#191970" stroke="#191970" points="998.8234,-127.5387 1008.9005,-124.2672 998.9827,-120.5405 998.8234,-127.5387"/>
</g>
<!-- Node37 -->
<g id="node37" class="node">
<title>Node37</title>
<g id="a_node37"><a xlink:href="../../da/d1c/classnlohmann_1_1detail_1_1type__error.html#aecc083aea4b698c33d042670ba50c10f" target="_top" xlink:title="nlohmann::detail::type\l_error::create">
<polygon fill="none" stroke="#000000" points="1182,-25.5 1182,-57.5 1314,-57.5 1314,-25.5 1182,-25.5"/>
<text text-anchor="start" x="1190" y="-44.5" font-family="FreeSans" font-size="10.00" fill="#000000">nlohmann::detail::type</text>
<text text-anchor="middle" x="1248" y="-32.5" font-family="FreeSans" font-size="10.00" fill="#000000">_error::create</text>
</a>
</g>
</g>
<!-- Node36&#45;&gt;Node37 -->
<g id="edge51" class="edge">
<title>Node36&#45;&gt;Node37</title>
<path fill="none" stroke="#191970" d="M1094.3005,-118.3497C1121.7042,-104.6479 1171.1727,-79.9137 1206.5907,-62.2046"/>
<polygon fill="#191970" stroke="#191970" points="1208.3444,-65.241 1215.7234,-57.6383 1205.2139,-58.98 1208.3444,-65.241"/>
</g>
<!-- Node40 -->
<g id="node40" class="node">
<title>Node40</title>
<g id="a_node40"><a xlink:href="../../dc/df0/namespacenlohmann_1_1detail.html#a40f7bb070a60e8ba14fffb9c117fcbd8" target="_top" xlink:title="nlohmann::detail::from\l_json_array_impl">
<polygon fill="none" stroke="#000000" points="1181.5,-115.5 1181.5,-147.5 1314.5,-147.5 1314.5,-115.5 1181.5,-115.5"/>
<text text-anchor="start" x="1189.5" y="-134.5" font-family="FreeSans" font-size="10.00" fill="#000000">nlohmann::detail::from</text>
<text text-anchor="middle" x="1248" y="-122.5" font-family="FreeSans" font-size="10.00" fill="#000000">_json_array_impl</text>
</a>
</g>
</g>
<!-- Node36&#45;&gt;Node40 -->
<g id="edge54" class="edge">
<title>Node36&#45;&gt;Node40</title>
<path fill="none" stroke="#191970" d="M1139.2862,-129.6256C1149.7363,-129.8058 1160.6329,-129.9937 1171.3188,-130.1779"/>
<polygon fill="#191970" stroke="#191970" points="1171.4192,-133.6801 1181.4781,-130.3531 1171.54,-126.6811 1171.4192,-133.6801"/>
</g>
<!-- Node38 -->
<g id="node38" class="node">
<title>Node38</title>
<g id="a_node38"><a xlink:href="../../de/df2/classnlohmann_1_1detail_1_1exception.html#abf41a7e9178356314082284e6cfea278" target="_top" xlink:title="nlohmann::detail::exception\l::name">
<polygon fill="none" stroke="#ff0000" points="1357,-51.5 1357,-83.5 1515,-83.5 1515,-51.5 1357,-51.5"/>
<text text-anchor="start" x="1365" y="-70.5" font-family="FreeSans" font-size="10.00" fill="#000000">nlohmann::detail::exception</text>
<text text-anchor="middle" x="1436" y="-58.5" font-family="FreeSans" font-size="10.00" fill="#000000">::name</text>
</a>
</g>
</g>
<!-- Node37&#45;&gt;Node38 -->
<g id="edge52" class="edge">
<title>Node37&#45;&gt;Node38</title>
<path fill="none" stroke="#191970" d="M1314.0174,-50.6301C1324.629,-52.0976 1335.764,-53.6376 1346.8102,-55.1652"/>
<polygon fill="#191970" stroke="#191970" points="1346.527,-58.6593 1356.9122,-56.5623 1347.486,-51.7253 1346.527,-58.6593"/>
</g>
<!-- Node39 -->
<g id="node39" class="node">
<title>Node39</title>
<g id="a_node39"><a xlink:href="../../da/d1c/classnlohmann_1_1detail_1_1type__error.html#aa01edaa0bf18b853368f0b900e485cd7" target="_top" xlink:title="nlohmann::detail::type\l_error::type_error">
<polygon fill="none" stroke="#000000" points="1370,-.5 1370,-32.5 1502,-32.5 1502,-.5 1370,-.5"/>
<text text-anchor="start" x="1378" y="-19.5" font-family="FreeSans" font-size="10.00" fill="#000000">nlohmann::detail::type</text>
<text text-anchor="middle" x="1436" y="-7.5" font-family="FreeSans" font-size="10.00" fill="#000000">_error::type_error</text>
</a>
</g>
</g>
<!-- Node37&#45;&gt;Node39 -->
<g id="edge53" class="edge">
<title>Node37&#45;&gt;Node39</title>
<path fill="none" stroke="#191970" d="M1314.0174,-32.7211C1328.7172,-30.7663 1344.4215,-28.678 1359.5028,-26.6725"/>
<polygon fill="#191970" stroke="#191970" points="1360.3728,-30.0877 1369.8241,-25.3 1359.45,-23.1488 1360.3728,-30.0877"/>
</g>
<!-- Node42 -->
<g id="node42" class="node">
<title>Node42</title>
<g id="a_node42"><a xlink:href="../../d9/d3f/mongoose_8cc.html#a2ca0faa3cfd1b007fc807e997d256aac" target="_top" xlink:title="mg_call">
<polygon fill="none" stroke="#000000" points="692.5,-230.5 692.5,-250.5 747.5,-250.5 747.5,-230.5 692.5,-230.5"/>
<text text-anchor="middle" x="720" y="-237.5" font-family="FreeSans" font-size="10.00" fill="#000000">mg_call</text>
</a>
</g>
</g>
<!-- Node41&#45;&gt;Node42 -->
<g id="edge56" class="edge">
<title>Node41&#45;&gt;Node42</title>
<path fill="none" stroke="#191970" d="M565.341,-350.4059C579.1124,-340.7059 600.4957,-325.6264 619,-312.5 646.0804,-293.29 677.1777,-271.1022 697.6301,-256.4918"/>
<polygon fill="#191970" stroke="#191970" points="699.8615,-259.1992 705.963,-250.5376 695.7918,-253.5037 699.8615,-259.1992"/>
</g>
<!-- Node42&#45;&gt;Node23 -->
<g id="edge59" class="edge">
<title>Node42&#45;&gt;Node23</title>
<path fill="none" stroke="#191970" d="M747.6621,-235.0967C818.92,-222.7451 1012.0551,-199.3442 1139,-279.5 1199.8774,-317.9393 1231.2028,-403.7581 1242.7148,-442.6561"/>
<polygon fill="#191970" stroke="#191970" points="1239.3543,-443.6351 1245.4444,-452.3047 1246.0899,-441.7295 1239.3543,-443.6351"/>
</g>
<!-- Node43 -->
<g id="node43" class="node">
<title>Node43</title>
<g id="a_node43"><a xlink:href="../../d6/d30/rcdaq__mg__server_8cc.html#a1649d4c8e3ef4f59226bba26da5a99e2" target="_top" xlink:title="ev_handler">
<polygon fill="none" stroke="#ff0000" points="860.5,-192.5 860.5,-212.5 933.5,-212.5 933.5,-192.5 860.5,-192.5"/>
<text text-anchor="middle" x="897" y="-199.5" font-family="FreeSans" font-size="10.00" fill="#000000">ev_handler</text>
</a>
</g>
</g>
<!-- Node42&#45;&gt;Node43 -->
<g id="edge57" class="edge">
<title>Node42&#45;&gt;Node43</title>
<path fill="none" stroke="#191970" d="M747.6563,-234.5625C775.1478,-228.6604 817.8213,-219.4988 850.5243,-212.4778"/>
<polygon fill="#191970" stroke="#191970" points="851.283,-215.8948 860.3255,-210.3736 849.8136,-209.0507 851.283,-215.8948"/>
</g>
<!-- Node45 -->
<g id="node45" class="node">
<title>Node45</title>
<g id="a_node45"><a xlink:href="../../d9/d3f/mongoose_8cc.html#ae05768316e0d0d164b8a7b2704ae1d30" target="_top" xlink:title="mg_if_recved">
<polygon fill="none" stroke="#000000" points="855.5,-153.5 855.5,-173.5 938.5,-173.5 938.5,-153.5 855.5,-153.5"/>
<text text-anchor="middle" x="897" y="-160.5" font-family="FreeSans" font-size="10.00" fill="#000000">mg_if_recved</text>
</a>
</g>
</g>
<!-- Node42&#45;&gt;Node45 -->
<g id="edge60" class="edge">
<title>Node42&#45;&gt;Node45</title>
<path fill="none" stroke="#191970" d="M747.5754,-235.3361C759.6711,-232.2568 773.6641,-227.5355 785,-220.5 804.7668,-208.2319 800.912,-194.2348 821,-182.5 828.4278,-178.1609 836.8246,-174.8061 845.258,-172.2141"/>
<polygon fill="#191970" stroke="#191970" points="846.4017,-175.5297 855.1192,-169.5084 844.5495,-168.7792 846.4017,-175.5297"/>
</g>
<!-- Node44 -->
<g id="node44" class="node">
<title>Node44</title>
<g id="a_node44"><a xlink:href="../../d9/d3f/mongoose_8cc.html#a0cc2c4a4f5ecfc4dff1848963df96f3c" target="_top" xlink:title="mg_vcmp">
<polygon fill="none" stroke="#000000" points="1041.5,-192.5 1041.5,-212.5 1106.5,-212.5 1106.5,-192.5 1041.5,-192.5"/>
<text text-anchor="middle" x="1074" y="-199.5" font-family="FreeSans" font-size="10.00" fill="#000000">mg_vcmp</text>
</a>
</g>
</g>
<!-- Node43&#45;&gt;Node44 -->
<g id="edge58" class="edge">
<title>Node43&#45;&gt;Node44</title>
<path fill="none" stroke="#191970" d="M933.6745,-202.5C962.0257,-202.5 1001.333,-202.5 1031.1354,-202.5"/>
<polygon fill="#191970" stroke="#191970" points="1031.2469,-206.0001 1041.2469,-202.5 1031.2469,-199.0001 1031.2469,-206.0001"/>
</g>
<!-- Node45&#45;&gt;Node36 -->
<g id="edge61" class="edge">
<title>Node45&#45;&gt;Node36</title>
<path fill="none" stroke="#191970" d="M938.9465,-155.2055C961.1394,-150.8171 988.7924,-145.349 1013.2854,-140.5057"/>
<polygon fill="#191970" stroke="#191970" points="1014.0756,-143.9173 1023.2067,-138.5439 1012.7177,-137.0503 1014.0756,-143.9173"/>
</g>
<!-- Node46&#45;&gt;Node12 -->
<g id="edge63" class="edge">
<title>Node46&#45;&gt;Node12</title>
<path fill="none" stroke="#191970" d="M589.0708,-463.9661C599.4368,-467.7052 610.2167,-472.7642 619,-479.5 641.0162,-496.3839 634.6668,-511.623 655,-530.5 665.1215,-539.8966 677.868,-548.1432 689.3863,-554.6034"/>
<polygon fill="#191970" stroke="#191970" points="687.8218,-557.736 698.2869,-559.3893 691.1369,-551.5708 687.8218,-557.736"/>
</g>
<!-- Node46&#45;&gt;Node34 -->
<g id="edge64" class="edge">
<title>Node46&#45;&gt;Node34</title>
<path fill="none" stroke="#191970" d="M589.3487,-454.2731C608.6884,-454.1586 632.6807,-454.0167 654.807,-453.8858"/>
<polygon fill="#191970" stroke="#191970" points="654.8393,-457.3857 664.8184,-453.8265 654.7978,-450.3858 654.8393,-457.3857"/>
</g>
<!-- Node47 -->
<g id="node47" class="node">
<title>Node47</title>
<g id="a_node47"><a xlink:href="../../d1/d7e/pmonitor_8cc.html#a01a6dd34fa639fc5ad5a05b22407a658" target="_top" xlink:title="pclose">
<polygon fill="none" stroke="#000000" points="695.5,-501.5 695.5,-521.5 744.5,-521.5 744.5,-501.5 695.5,-501.5"/>
<text text-anchor="middle" x="720" y="-508.5" font-family="FreeSans" font-size="10.00" fill="#000000">pclose</text>
</a>
</g>
</g>
<!-- Node46&#45;&gt;Node47 -->
<g id="edge65" class="edge">
<title>Node46&#45;&gt;Node47</title>
<path fill="none" stroke="#191970" d="M580.8248,-464.5592C610.1112,-474.4369 654.7533,-489.4937 685.5412,-499.8778"/>
<polygon fill="#191970" stroke="#191970" points="684.8149,-503.3265 695.409,-503.206 687.052,-496.6936 684.8149,-503.3265"/>
</g>
<!-- Node48 -->
<g id="node48" class="node">
<title>Node48</title>
<g id="a_node48"><a xlink:href="../../d4/d7c/classpmonstate.html#a0baa8f42ef4c5b3aac3f83615befbc95" target="_top" xlink:title="pmonstate::clearOpened">
<polygon fill="none" stroke="#000000" points="826,-520.5 826,-540.5 968,-540.5 968,-520.5 826,-520.5"/>
<text text-anchor="middle" x="897" y="-527.5" font-family="FreeSans" font-size="10.00" fill="#000000">pmonstate::clearOpened</text>
</a>
</g>
</g>
<!-- Node47&#45;&gt;Node48 -->
<g id="edge66" class="edge">
<title>Node47&#45;&gt;Node48</title>
<path fill="none" stroke="#191970" d="M744.6111,-514.1419C763.1437,-516.1312 789.68,-518.9798 815.4292,-521.7438"/>
<polygon fill="#191970" stroke="#191970" points="815.3046,-525.2505 825.6211,-522.8379 816.0518,-518.2904 815.3046,-525.2505"/>
</g>
<!-- Node49 -->
<g id="node49" class="node">
<title>Node49</title>
<g id="a_node49"><a xlink:href="../../d4/d7c/classpmonstate.html#a3791b212209c9e53bac1897545832d74" target="_top" xlink:title="pmonstate::isRunning">
<polygon fill="none" stroke="#000000" points="833.5,-481.5 833.5,-501.5 960.5,-501.5 960.5,-481.5 833.5,-481.5"/>
<text text-anchor="middle" x="897" y="-488.5" font-family="FreeSans" font-size="10.00" fill="#000000">pmonstate::isRunning</text>
</a>
</g>
</g>
<!-- Node47&#45;&gt;Node49 -->
<g id="edge67" class="edge">
<title>Node47&#45;&gt;Node49</title>
<path fill="none" stroke="#191970" d="M744.6111,-508.7191C764.9998,-506.4153 795.0754,-503.0169 823.1329,-499.8466"/>
<polygon fill="#191970" stroke="#191970" points="823.8131,-503.2921 833.3568,-498.6913 823.027,-496.3363 823.8131,-503.2921"/>
</g>
<!-- Node50 -->
<g id="node50" class="node">
<title>Node50</title>
<g id="a_node50"><a xlink:href="../../d4/d7c/classpmonstate.html#a7f17a25e64ad9ae8a55d8a959772bb2f" target="_top" xlink:title="pmonstate::streamOpened">
<polygon fill="none" stroke="#000000" points="821,-559.5 821,-579.5 973,-579.5 973,-559.5 821,-559.5"/>
<text text-anchor="middle" x="897" y="-566.5" font-family="FreeSans" font-size="10.00" fill="#000000">pmonstate::streamOpened</text>
</a>
</g>
</g>
<!-- Node47&#45;&gt;Node50 -->
<g id="edge68" class="edge">
<title>Node47&#45;&gt;Node50</title>
<path fill="none" stroke="#191970" d="M744.6551,-521.5867C764.953,-529.6939 794.5824,-541.0788 821,-549.5 829.0351,-552.0614 837.6208,-554.5519 846.0228,-556.8563"/>
<polygon fill="#191970" stroke="#191970" points="845.1921,-560.2572 855.7576,-559.4693 847.0068,-553.4965 845.1921,-560.2572"/>
</g>
</g>
</svg>
