<?xml version="1.0" encoding="UTF-8" standalone="no"?>
<!DOCTYPE svg PUBLIC "-//W3C//DTD SVG 1.1//EN"
 "http://www.w3.org/Graphics/SVG/1.1/DTD/svg11.dtd">
<!-- Generated by graphviz version 2.40.1 (20161225.0304)
 -->
<!-- Title: test_and_skip Pages: 1 -->
<svg width="960pt" height="208pt"
 viewBox="0.00 0.00 960.00 207.62" xmlns="http://www.w3.org/2000/svg" xmlns:xlink="http://www.w3.org/1999/xlink">
<g id="graph0" class="graph" transform="scale(1 1) rotate(0) translate(4 203.6172)">
<title>test_and_skip</title>
<!-- Node1 -->
<g id="node1" class="node">
<title>Node1</title>
<polygon fill="#bfbfbf" stroke="#000000" points="0,-41.1172 0,-61.1172 85,-61.1172 85,-41.1172 0,-41.1172"/>
<text text-anchor="middle" x="42.5" y="-48.1172" font-family="FreeSans" font-size="10.00" fill="#000000">test_and_skip</text>
</g>
<!-- Node2 -->
<g id="node2" class="node">
<title>Node2</title>
<g id="a_node2"><a xlink:href="../../d9/d3f/mongoose_8cc.html#a47e7d2b08e29263d7f08ab4259f40afb" target="_top" xlink:title="parse_array">
<polygon fill="none" stroke="#000000" points="122,-61.1172 122,-81.1172 198,-81.1172 198,-61.1172 122,-61.1172"/>
<text text-anchor="middle" x="160" y="-68.1172" font-family="FreeSans" font-size="10.00" fill="#000000">parse_array</text>
</a>
</g>
</g>
<!-- Node1&#45;&gt;Node2 -->
<g id="edge1" class="edge">
<title>Node1&#45;&gt;Node2</title>
<path fill="none" stroke="#191970" d="M95.2185,-60.0905C104.1558,-61.6118 113.2814,-63.1651 121.756,-64.6075"/>
<polygon fill="#191970" stroke="#191970" points="95.6981,-56.6219 85.2526,-58.3942 94.5235,-63.5226 95.6981,-56.6219"/>
</g>
<!-- Node13 -->
<g id="node13" class="node">
<title>Node13</title>
<g id="a_node13"><a xlink:href="../../d9/d3f/mongoose_8cc.html#a7ad015f6b8e083fafbd1ee13f5df87fb" target="_top" xlink:title="parse_pair">
<polygon fill="none" stroke="#000000" points="348,-22.1172 348,-42.1172 418,-42.1172 418,-22.1172 348,-22.1172"/>
<text text-anchor="middle" x="383" y="-29.1172" font-family="FreeSans" font-size="10.00" fill="#000000">parse_pair</text>
</a>
</g>
</g>
<!-- Node1&#45;&gt;Node13 -->
<g id="edge18" class="edge">
<title>Node1&#45;&gt;Node13</title>
<path fill="none" stroke="#191970" d="M66.2584,-35.6959C81.2852,-26.882 101.4927,-16.696 121,-12.1172 203.6428,7.2809 227.9098,-.4995 312,-12.1172 326.2079,-14.0801 341.5737,-18.1536 354.3648,-22.1152"/>
<polygon fill="#191970" stroke="#191970" points="64.3515,-32.7591 57.6242,-40.9441 67.9874,-38.7408 64.3515,-32.7591"/>
</g>
<!-- Node14 -->
<g id="node14" class="node">
<title>Node14</title>
<g id="a_node14"><a xlink:href="../../d9/d3f/mongoose_8cc.html#a3e189ea18bf0550e8fbcda97df4661f6" target="_top" xlink:title="parse_object">
<polygon fill="none" stroke="#000000" points="454,-80.1172 454,-100.1172 535,-100.1172 535,-80.1172 454,-80.1172"/>
<text text-anchor="middle" x="494.5" y="-87.1172" font-family="FreeSans" font-size="10.00" fill="#000000">parse_object</text>
</a>
</g>
</g>
<!-- Node1&#45;&gt;Node14 -->
<g id="edge17" class="edge">
<title>Node1&#45;&gt;Node14</title>
<path fill="none" stroke="#191970" d="M65.944,-66.6686C80.9874,-75.711 101.3248,-86.2556 121,-91.1172 239.0327,-120.2819 384.5269,-106.1884 453.9382,-96.5581"/>
<polygon fill="#191970" stroke="#191970" points="67.6539,-63.6103 57.3147,-61.2968 63.9545,-69.5529 67.6539,-63.6103"/>
</g>
<!-- Node15 -->
<g id="node15" class="node">
<title>Node15</title>
<g id="a_node15"><a xlink:href="../../d9/d3f/mongoose_8cc.html#a7457d29ccfa37926223f6829368115d3" target="_top" xlink:title="parse_string">
<polygon fill="none" stroke="#000000" points="121,-22.1172 121,-42.1172 199,-42.1172 199,-22.1172 121,-22.1172"/>
<text text-anchor="middle" x="160" y="-29.1172" font-family="FreeSans" font-size="10.00" fill="#000000">parse_string</text>
</a>
</g>
</g>
<!-- Node1&#45;&gt;Node15 -->
<g id="edge19" class="edge">
<title>Node1&#45;&gt;Node15</title>
<path fill="none" stroke="#191970" d="M95.2787,-42.5827C103.9264,-41.1844 112.7486,-39.7578 120.9851,-38.4259"/>
<polygon fill="#191970" stroke="#191970" points="94.5656,-39.1525 85.2526,-44.204 95.6831,-46.0627 94.5656,-39.1525"/>
</g>
<!-- Node3 -->
<g id="node3" class="node">
<title>Node3</title>
<g id="a_node3"><a xlink:href="../../d9/d3f/mongoose_8cc.html#a8caa7da8af93d6454c6ecf620258c239" target="_top" xlink:title="doit">
<polygon fill="none" stroke="#000000" points="571,-99.1172 571,-119.1172 607,-119.1172 607,-99.1172 571,-99.1172"/>
<text text-anchor="middle" x="589" y="-106.1172" font-family="FreeSans" font-size="10.00" fill="#000000">doit</text>
</a>
</g>
</g>
<!-- Node2&#45;&gt;Node3 -->
<g id="edge2" class="edge">
<title>Node2&#45;&gt;Node3</title>
<path fill="none" stroke="#191970" d="M202.4185,-83.8044C212.9823,-86.5822 224.3378,-89.2477 235,-91.1172 366.593,-114.1902 401.4053,-111.354 535,-110.1172 546.814,-110.0078 560.08,-109.7638 570.5068,-109.5443"/>
<polygon fill="#191970" stroke="#191970" points="203.1494,-80.3761 192.5814,-81.129 201.3123,-87.1308 203.1494,-80.3761"/>
</g>
<!-- Node12 -->
<g id="node12" class="node">
<title>Node12</title>
<g id="a_node12"><a xlink:href="../../d9/d3f/mongoose_8cc.html#a2ea7bfb8b2e69b6844bac822a46a7d8b" target="_top" xlink:title="parse_value">
<polygon fill="none" stroke="#000000" points="235,-61.1172 235,-81.1172 312,-81.1172 312,-61.1172 235,-61.1172"/>
<text text-anchor="middle" x="273.5" y="-68.1172" font-family="FreeSans" font-size="10.00" fill="#000000">parse_value</text>
</a>
</g>
</g>
<!-- Node2&#45;&gt;Node12 -->
<g id="edge11" class="edge">
<title>Node2&#45;&gt;Node12</title>
<path fill="none" stroke="#191970" d="M208.3436,-64.4334C217.2169,-64.2926 226.3705,-64.3762 234.9108,-64.6842"/>
<polygon fill="#191970" stroke="#191970" points="208.0144,-60.9408 198.1096,-64.7018 208.1979,-67.9384 208.0144,-60.9408"/>
</g>
<!-- Node4 -->
<g id="node4" class="node">
<title>Node4</title>
<g id="a_node4"><a xlink:href="../../d2/d93/classTrkrNtuplizer.html#a3ba752b46d320848413bf7ea09ee5dd5" target="_top" xlink:title="dump the evaluator information into ntuple for external analysis">
<polygon fill="none" stroke="#000000" points="645.5,-167.1172 645.5,-199.1172 781.5,-199.1172 781.5,-167.1172 645.5,-167.1172"/>
<text text-anchor="start" x="653.5" y="-186.1172" font-family="FreeSans" font-size="10.00" fill="#000000">TrkrNtuplizer::fillOutput</text>
<text text-anchor="middle" x="713.5" y="-174.1172" font-family="FreeSans" font-size="10.00" fill="#000000">Ntuples</text>
</a>
</g>
</g>
<!-- Node3&#45;&gt;Node4 -->
<g id="edge3" class="edge">
<title>Node3&#45;&gt;Node4</title>
<path fill="none" stroke="#191970" d="M604.9423,-126.7432C615.0253,-137.0362 628.8,-149.6278 643,-158.1172 648.5731,-161.449 654.6586,-164.4331 660.8438,-167.0781"/>
<polygon fill="#191970" stroke="#191970" points="607.4255,-124.2752 598.0055,-119.4261 602.3455,-129.0913 607.4255,-124.2752"/>
</g>
<!-- Node6 -->
<g id="node6" class="node">
<title>Node6</title>
<g id="a_node6"><a xlink:href="../../d6/d11/classSvtxEvaluator.html#ace95fef2b7b4ad8b797f6695e053dd6e" target="_top" xlink:title="dump the evaluator information into ntuple for external analysis">
<polygon fill="none" stroke="#000000" points="643,-116.1172 643,-148.1172 784,-148.1172 784,-116.1172 643,-116.1172"/>
<text text-anchor="start" x="651" y="-135.1172" font-family="FreeSans" font-size="10.00" fill="#000000">SvtxEvaluator::fillOutput</text>
<text text-anchor="middle" x="713.5" y="-123.1172" font-family="FreeSans" font-size="10.00" fill="#000000">Ntuples</text>
</a>
</g>
</g>
<!-- Node3&#45;&gt;Node6 -->
<g id="edge5" class="edge">
<title>Node3&#45;&gt;Node6</title>
<path fill="none" stroke="#191970" d="M617.0727,-114.3033C624.916,-115.7522 633.8082,-117.395 642.9435,-119.0826"/>
<polygon fill="#191970" stroke="#191970" points="617.5728,-110.8365 607.1034,-112.4616 616.3011,-117.7201 617.5728,-110.8365"/>
</g>
<!-- Node8 -->
<g id="node8" class="node">
<title>Node8</title>
<g id="a_node8"><a xlink:href="../../dc/db4/mongoose_8h.html#a961fcca8c61e45298d25b95ec2fce7e3" target="_top" xlink:title="parse_json">
<polygon fill="none" stroke="#000000" points="678.5,-77.1172 678.5,-97.1172 748.5,-97.1172 748.5,-77.1172 678.5,-77.1172"/>
<text text-anchor="middle" x="713.5" y="-84.1172" font-family="FreeSans" font-size="10.00" fill="#000000">parse_json</text>
</a>
</g>
</g>
<!-- Node3&#45;&gt;Node8 -->
<g id="edge7" class="edge">
<title>Node3&#45;&gt;Node8</title>
<path fill="none" stroke="#191970" d="M617.0654,-104.1578C635.2164,-100.9504 658.9879,-96.7498 678.3874,-93.3218"/>
<polygon fill="#191970" stroke="#191970" points="616.3417,-100.7314 607.1034,-105.9182 617.5599,-107.6246 616.3417,-100.7314"/>
</g>
<!-- Node11 -->
<g id="node11" class="node">
<title>Node11</title>
<g id="a_node11"><a xlink:href="../../dc/db4/mongoose_8h.html#a0a9990b5f16811536ffce69925bfb1dd" target="_top" xlink:title="parse_json2">
<polygon fill="none" stroke="#000000" points="675.5,-38.1172 675.5,-58.1172 751.5,-58.1172 751.5,-38.1172 675.5,-38.1172"/>
<text text-anchor="middle" x="713.5" y="-45.1172" font-family="FreeSans" font-size="10.00" fill="#000000">parse_json2</text>
</a>
</g>
</g>
<!-- Node3&#45;&gt;Node11 -->
<g id="edge10" class="edge">
<title>Node3&#45;&gt;Node11</title>
<path fill="none" stroke="#191970" d="M606.887,-92.2531C616.855,-83.6516 629.8775,-73.6538 643,-67.1172 652.9849,-62.1434 664.4358,-58.344 675.1649,-55.4993"/>
<polygon fill="#191970" stroke="#191970" points="604.4163,-89.7672 599.2971,-99.0432 609.0836,-94.9841 604.4163,-89.7672"/>
</g>
<!-- Node5 -->
<g id="node5" class="node">
<title>Node5</title>
<g id="a_node5"><a xlink:href="../../d2/d93/classTrkrNtuplizer.html#a399e3058749ac563592644df77083a33" target="_top" xlink:title="TrkrNtuplizer::process\l_event">
<polygon fill="none" stroke="#000000" points="822.5,-167.1172 822.5,-199.1172 949.5,-199.1172 949.5,-167.1172 822.5,-167.1172"/>
<text text-anchor="start" x="830.5" y="-186.1172" font-family="FreeSans" font-size="10.00" fill="#000000">TrkrNtuplizer::process</text>
<text text-anchor="middle" x="886" y="-174.1172" font-family="FreeSans" font-size="10.00" fill="#000000">_event</text>
</a>
</g>
</g>
<!-- Node4&#45;&gt;Node5 -->
<g id="edge4" class="edge">
<title>Node4&#45;&gt;Node5</title>
<path fill="none" stroke="#191970" d="M791.7985,-183.1172C801.9915,-183.1172 812.334,-183.1172 822.2498,-183.1172"/>
<polygon fill="#191970" stroke="#191970" points="791.6766,-179.6173 781.6766,-183.1172 791.6765,-186.6173 791.6766,-179.6173"/>
</g>
<!-- Node7 -->
<g id="node7" class="node">
<title>Node7</title>
<g id="a_node7"><a xlink:href="../../d6/d11/classSvtxEvaluator.html#a1eb230f92b6f2cabb175f1349697200d" target="_top" xlink:title="SvtxEvaluator::process\l_event">
<polygon fill="none" stroke="#000000" points="820,-116.1172 820,-148.1172 952,-148.1172 952,-116.1172 820,-116.1172"/>
<text text-anchor="start" x="828" y="-135.1172" font-family="FreeSans" font-size="10.00" fill="#000000">SvtxEvaluator::process</text>
<text text-anchor="middle" x="886" y="-123.1172" font-family="FreeSans" font-size="10.00" fill="#000000">_event</text>
</a>
</g>
</g>
<!-- Node6&#45;&gt;Node7 -->
<g id="edge6" class="edge">
<title>Node6&#45;&gt;Node7</title>
<path fill="none" stroke="#191970" d="M794.2055,-132.1172C802.8091,-132.1172 811.4867,-132.1172 819.8937,-132.1172"/>
<polygon fill="#191970" stroke="#191970" points="794.1601,-128.6173 784.1601,-132.1172 794.16,-135.6173 794.1601,-128.6173"/>
</g>
<!-- Node9 -->
<g id="node9" class="node">
<title>Node9</title>
<g id="a_node9"><a xlink:href="../../dc/db4/mongoose_8h.html#aec4027ed3915a4ca54ad4e95b9ab034a" target="_top" xlink:title="mg_rpc_dispatch">
<polygon fill="none" stroke="#000000" points="835.5,-77.1172 835.5,-97.1172 936.5,-97.1172 936.5,-77.1172 835.5,-77.1172"/>
<text text-anchor="middle" x="886" y="-84.1172" font-family="FreeSans" font-size="10.00" fill="#000000">mg_rpc_dispatch</text>
</a>
</g>
</g>
<!-- Node8&#45;&gt;Node9 -->
<g id="edge8" class="edge">
<title>Node8&#45;&gt;Node9</title>
<path fill="none" stroke="#191970" d="M758.8775,-87.1172C782.3734,-87.1172 811.133,-87.1172 835.3508,-87.1172"/>
<polygon fill="#191970" stroke="#191970" points="758.8242,-83.6173 748.8242,-87.1172 758.8242,-90.6173 758.8242,-83.6173"/>
</g>
<!-- Node10 -->
<g id="node10" class="node">
<title>Node10</title>
<g id="a_node10"><a xlink:href="../../dc/db4/mongoose_8h.html#ad2ebbb03491d1dab44065d21137105b7" target="_top" xlink:title="mg_rpc_parse_reply">
<polygon fill="none" stroke="#000000" points="827.5,-38.1172 827.5,-58.1172 944.5,-58.1172 944.5,-38.1172 827.5,-38.1172"/>
<text text-anchor="middle" x="886" y="-45.1172" font-family="FreeSans" font-size="10.00" fill="#000000">mg_rpc_parse_reply</text>
</a>
</g>
</g>
<!-- Node8&#45;&gt;Node10 -->
<g id="edge9" class="edge">
<title>Node8&#45;&gt;Node10</title>
<path fill="none" stroke="#191970" d="M758.6416,-76.9112C784.2032,-71.1321 816.0527,-63.9313 841.5069,-58.1765"/>
<polygon fill="#191970" stroke="#191970" points="757.8062,-73.5117 748.8242,-79.1308 759.3499,-80.3394 757.8062,-73.5117"/>
</g>
<!-- Node12&#45;&gt;Node2 -->
<g id="edge12" class="edge">
<title>Node12&#45;&gt;Node2</title>
<path fill="none" stroke="#191970" d="M224.657,-77.8086C215.7736,-77.941 206.6265,-77.849 198.1096,-77.5325"/>
<polygon fill="#191970" stroke="#191970" points="225.0022,-81.3011 234.9108,-77.5501 224.8257,-74.3033 225.0022,-81.3011"/>
</g>
<!-- Node12&#45;&gt;Node13 -->
<g id="edge13" class="edge">
<title>Node12&#45;&gt;Node13</title>
<path fill="none" stroke="#191970" d="M311.2797,-57.6614C325.5943,-52.563 341.6264,-46.853 354.8966,-42.1266"/>
<polygon fill="#191970" stroke="#191970" points="309.945,-54.4213 301.699,-61.0737 312.2937,-61.0156 309.945,-54.4213"/>
</g>
<!-- Node13&#45;&gt;Node14 -->
<g id="edge14" class="edge">
<title>Node13&#45;&gt;Node14</title>
<path fill="none" stroke="#191970" d="M411.3471,-46.8627C431.236,-57.2086 457.3184,-70.7761 474.9266,-79.9355"/>
<polygon fill="#191970" stroke="#191970" points="412.9085,-43.7298 402.4218,-42.22 409.6782,-49.9399 412.9085,-43.7298"/>
</g>
<!-- Node14&#45;&gt;Node3 -->
<g id="edge15" class="edge">
<title>Node14&#45;&gt;Node3</title>
<path fill="none" stroke="#191970" d="M545.0768,-100.2861C554.2481,-102.13 563.2514,-103.9402 570.6954,-105.4369"/>
<polygon fill="#191970" stroke="#191970" points="545.6187,-96.825 535.1249,-98.2851 544.2388,-103.6877 545.6187,-96.825"/>
</g>
<!-- Node14&#45;&gt;Node12 -->
<g id="edge16" class="edge">
<title>Node14&#45;&gt;Node12</title>
<path fill="none" stroke="#191970" d="M443.8363,-85.7615C403.8163,-82.3208 348.8035,-77.5912 312.2482,-74.4485"/>
<polygon fill="#191970" stroke="#191970" points="443.6614,-89.2592 453.9245,-86.6288 444.2611,-82.285 443.6614,-89.2592"/>
</g>
<!-- Node15&#45;&gt;Node12 -->
<g id="edge22" class="edge">
<title>Node15&#45;&gt;Node12</title>
<path fill="none" stroke="#191970" d="M198.7322,-45.426C213.6774,-50.5614 230.4828,-56.3359 244.37,-61.1077"/>
<polygon fill="#191970" stroke="#191970" points="199.8237,-42.1003 189.2291,-42.1606 197.5489,-48.7204 199.8237,-42.1003"/>
</g>
<!-- Node16 -->
<g id="node16" class="node">
<title>Node16</title>
<g id="a_node16"><a xlink:href="../../d9/d3f/mongoose_8cc.html#a08cbe8cd1985bd641d93c5de289a6e85" target="_top" xlink:title="parse_key">
<polygon fill="none" stroke="#000000" points="240,-22.1172 240,-42.1172 307,-42.1172 307,-22.1172 240,-22.1172"/>
<text text-anchor="middle" x="273.5" y="-29.1172" font-family="FreeSans" font-size="10.00" fill="#000000">parse_key</text>
</a>
</g>
</g>
<!-- Node15&#45;&gt;Node16 -->
<g id="edge20" class="edge">
<title>Node15&#45;&gt;Node16</title>
<path fill="none" stroke="#191970" d="M209.1825,-32.1172C219.4687,-32.1172 230.0925,-32.1172 239.6696,-32.1172"/>
<polygon fill="#191970" stroke="#191970" points="209.0603,-28.6173 199.0603,-32.1172 209.0602,-35.6173 209.0603,-28.6173"/>
</g>
<!-- Node16&#45;&gt;Node13 -->
<g id="edge21" class="edge">
<title>Node16&#45;&gt;Node13</title>
<path fill="none" stroke="#191970" d="M317.4634,-32.1172C327.499,-32.1172 338.0381,-32.1172 347.6587,-32.1172"/>
<polygon fill="#191970" stroke="#191970" points="317.2471,-28.6173 307.2471,-32.1172 317.2471,-35.6173 317.2471,-28.6173"/>
</g>
</g>
</svg>
