<?xml version="1.0" encoding="UTF-8" standalone="no"?>
<!DOCTYPE svg PUBLIC "-//W3C//DTD SVG 1.1//EN"
 "http://www.w3.org/Graphics/SVG/1.1/DTD/svg11.dtd">
<!-- Generated by graphviz version 2.40.1 (20161225.0304)
 -->
<!-- Title: TPC_Cluster_Drift_Animator.theLoop Pages: 1 -->
<svg width="846pt" height="185pt"
 viewBox="0.00 0.00 846.00 185.00" xmlns="http://www.w3.org/2000/svg" xmlns:xlink="http://www.w3.org/1999/xlink">
<g id="graph0" class="graph" transform="scale(1 1) rotate(0) translate(4 181)">
<title>TPC_Cluster_Drift_Animator.theLoop</title>
<!-- Node1 -->
<g id="node1" class="node">
<title>Node1</title>
<polygon fill="#bfbfbf" stroke="#000000" points="0,-111.5 0,-131.5 199,-131.5 199,-111.5 0,-111.5"/>
<text text-anchor="middle" x="99.5" y="-118.5" font-family="FreeSans" font-size="10.00" fill="#000000">TPC_Cluster_Drift_Animator.theLoop</text>
</g>
<!-- Node2 -->
<g id="node2" class="node">
<title>Node2</title>
<g id="a_node2"><a xlink:href="../../d0/d85/namespaceTPC__Cluster__Drift__Animator.html#a681d69ff1f1930aaf68f6455f3652975" target="_top" xlink:title="TPC_Cluster_Drift_Animator.animate\l_scatters">
<polygon fill="none" stroke="#000000" points="235,-105.5 235,-137.5 434,-137.5 434,-105.5 235,-105.5"/>
<text text-anchor="start" x="243" y="-124.5" font-family="FreeSans" font-size="10.00" fill="#000000">TPC_Cluster_Drift_Animator.animate</text>
<text text-anchor="middle" x="334.5" y="-112.5" font-family="FreeSans" font-size="10.00" fill="#000000">_scatters</text>
</a>
</g>
</g>
<!-- Node1&#45;&gt;Node2 -->
<g id="edge1" class="edge">
<title>Node1&#45;&gt;Node2</title>
<path fill="none" stroke="#191970" d="M199.1612,-114.8196C207.5211,-114.7539 216.0044,-114.7347 224.4364,-114.762"/>
<polygon fill="#191970" stroke="#191970" points="224.6653,-118.2632 234.6845,-114.8184 224.7039,-111.2634 224.6653,-118.2632"/>
</g>
<!-- Node3 -->
<g id="node3" class="node">
<title>Node3</title>
<g id="a_node3"><a xlink:href="../../d0/d89/RootMaterialDecorator_8cpp.html#a69dba6de97e0af5b5b9b476d9183c869" target="_top" xlink:title="if">
<polygon fill="none" stroke="#000000" points="485.5,-156.5 485.5,-176.5 514.5,-176.5 514.5,-156.5 485.5,-156.5"/>
<text text-anchor="middle" x="500" y="-163.5" font-family="FreeSans" font-size="10.00" fill="#000000">if</text>
</a>
</g>
</g>
<!-- Node1&#45;&gt;Node3 -->
<g id="edge12" class="edge">
<title>Node1&#45;&gt;Node3</title>
<path fill="none" stroke="#191970" d="M144.4504,-131.5059C170.7256,-137.0078 204.6006,-143.5078 235,-147.5 322.8517,-159.037 428.0747,-163.9581 475.1307,-165.696"/>
<polygon fill="#191970" stroke="#191970" points="475.1702,-169.1995 485.2875,-166.0544 475.4171,-162.2039 475.1702,-169.1995"/>
</g>
<!-- Node2&#45;&gt;Node1 -->
<g id="edge6" class="edge">
<title>Node2&#45;&gt;Node1</title>
<path fill="none" stroke="#191970" d="M234.6845,-128.1816C226.323,-128.2467 217.8393,-128.2653 209.4079,-128.2375"/>
<polygon fill="#191970" stroke="#191970" points="209.1805,-124.7362 199.1612,-128.1804 209.1415,-131.7361 209.1805,-124.7362"/>
</g>
<!-- Node2&#45;&gt;Node3 -->
<g id="edge2" class="edge">
<title>Node2&#45;&gt;Node3</title>
<path fill="none" stroke="#191970" d="M393.7818,-137.6189C421.8701,-145.2562 453.8911,-153.9628 475.3661,-159.802"/>
<polygon fill="#191970" stroke="#191970" points="474.7098,-163.2505 485.2778,-162.497 476.5464,-156.4957 474.7098,-163.2505"/>
</g>
<!-- Node5 -->
<g id="node5" class="node">
<title>Node5</title>
<g id="a_node5"><a xlink:href="../../dc/d11/Prototype2_2EMCal_2macros_2SaveCanvas_8m.html#a8efe7494567713c8ec7a6803834a0bb6" target="_top" xlink:title="print">
<polygon fill="none" stroke="#000000" points="480,-117.5 480,-137.5 520,-137.5 520,-117.5 480,-117.5"/>
<text text-anchor="middle" x="500" y="-124.5" font-family="FreeSans" font-size="10.00" fill="#000000">print</text>
</a>
</g>
</g>
<!-- Node2&#45;&gt;Node5 -->
<g id="edge4" class="edge">
<title>Node2&#45;&gt;Node5</title>
<path fill="none" stroke="#191970" d="M434.1145,-125.1114C447.0199,-125.5793 459.3539,-126.0264 469.7876,-126.4047"/>
<polygon fill="#191970" stroke="#191970" points="469.7968,-129.9072 479.9171,-126.7719 470.0505,-122.9118 469.7968,-129.9072"/>
</g>
<!-- Node6 -->
<g id="node6" class="node">
<title>Node6</title>
<g id="a_node6"><a xlink:href="../../de/de0/matchedfilter_8C.html#ac662fab4d6569f9ab320da1b95bcd663" target="_top" xlink:title="round">
<polygon fill="none" stroke="#000000" points="477.5,-78.5 477.5,-98.5 522.5,-98.5 522.5,-78.5 477.5,-78.5"/>
<text text-anchor="middle" x="500" y="-85.5" font-family="FreeSans" font-size="10.00" fill="#000000">round</text>
</a>
</g>
</g>
<!-- Node2&#45;&gt;Node6 -->
<g id="edge5" class="edge">
<title>Node2&#45;&gt;Node6</title>
<path fill="none" stroke="#191970" d="M414.826,-105.4833C433.4285,-101.7741 452.1944,-98.0322 467.3592,-95.0084"/>
<polygon fill="#191970" stroke="#191970" points="468.1137,-98.427 477.2362,-93.039 466.7448,-91.5621 468.1137,-98.427"/>
</g>
<!-- Node7 -->
<g id="node7" class="node">
<title>Node7</title>
<g id="a_node7"><a xlink:href="../../da/d7b/namespaceActs.html#a2baea39f1436221b34dfec4ffac66ee6" target="_top" xlink:title="Acts::zip">
<polygon fill="none" stroke="#000000" points="470,-39.5 470,-59.5 530,-59.5 530,-39.5 470,-39.5"/>
<text text-anchor="middle" x="500" y="-46.5" font-family="FreeSans" font-size="10.00" fill="#000000">Acts::zip</text>
</a>
</g>
</g>
<!-- Node2&#45;&gt;Node7 -->
<g id="edge7" class="edge">
<title>Node2&#45;&gt;Node7</title>
<path fill="none" stroke="#191970" d="M371.6414,-105.3418C400.4563,-92.806 440.0011,-75.6023 467.5545,-63.6152"/>
<polygon fill="#191970" stroke="#191970" points="468.9896,-66.8078 476.7632,-59.6091 466.1971,-60.389 468.9896,-66.8078"/>
</g>
<!-- Node4 -->
<g id="node4" class="node">
<title>Node4</title>
<g id="a_node4"><a xlink:href="../../d2/dda/JsonMaterialWriter_8cpp.html#a2c9ce7b8a253cfae2ca572d8f16cc4e5" target="_top" xlink:title="m_cfg">
<polygon fill="none" stroke="#000000" points="602,-156.5 602,-176.5 648,-176.5 648,-156.5 602,-156.5"/>
<text text-anchor="middle" x="625" y="-163.5" font-family="FreeSans" font-size="10.00" fill="#000000">m_cfg</text>
</a>
</g>
</g>
<!-- Node3&#45;&gt;Node4 -->
<g id="edge3" class="edge">
<title>Node3&#45;&gt;Node4</title>
<path fill="none" stroke="#191970" d="M514.83,-166.5C533.6167,-166.5 566.5512,-166.5 591.5312,-166.5"/>
<polygon fill="#191970" stroke="#191970" points="591.6855,-170.0001 601.6854,-166.5 591.6854,-163.0001 591.6855,-170.0001"/>
</g>
<!-- Node8 -->
<g id="node8" class="node">
<title>Node8</title>
<g id="a_node8"><a xlink:href="../../d2/db7/namespacestd_1_1tr1.html#af7e12a0f5b5791b5b7c49a5a17b85359" target="_top" xlink:title="std::tr1::make_tuple">
<polygon fill="none" stroke="#000000" points="566,-78.5 566,-98.5 684,-98.5 684,-78.5 566,-78.5"/>
<text text-anchor="middle" x="625" y="-85.5" font-family="FreeSans" font-size="10.00" fill="#000000">std::tr1::make_tuple</text>
</a>
</g>
</g>
<!-- Node7&#45;&gt;Node8 -->
<g id="edge8" class="edge">
<title>Node7&#45;&gt;Node8</title>
<path fill="none" stroke="#191970" d="M530.259,-58.9408C546.0838,-63.8781 565.706,-70.0003 582.9811,-75.3901"/>
<polygon fill="#191970" stroke="#191970" points="582.2461,-78.8271 592.8348,-78.4644 584.3311,-72.1448 582.2461,-78.8271"/>
</g>
<!-- Node9 -->
<g id="node9" class="node">
<title>Node9</title>
<g id="a_node9"><a xlink:href="../../da/d7b/namespaceActs.html#a178d8a025b1d222aa884059ca16fb1a5" target="_top" xlink:title="Acts::operator!=">
<polygon fill="none" stroke="#000000" points="575,-39.5 575,-59.5 675,-59.5 675,-39.5 575,-39.5"/>
<text text-anchor="middle" x="625" y="-46.5" font-family="FreeSans" font-size="10.00" fill="#000000">Acts::operator!=</text>
</a>
</g>
</g>
<!-- Node7&#45;&gt;Node9 -->
<g id="edge9" class="edge">
<title>Node7&#45;&gt;Node9</title>
<path fill="none" stroke="#191970" d="M530.259,-49.5C540.5417,-49.5 552.4277,-49.5 564.2313,-49.5"/>
<polygon fill="#191970" stroke="#191970" points="564.5406,-53.0001 574.5405,-49.5 564.5405,-46.0001 564.5406,-53.0001"/>
</g>
<!-- Node10 -->
<g id="node10" class="node">
<title>Node10</title>
<g id="a_node10"><a xlink:href="../../da/d7b/namespaceActs.html#a75e0f8b70f2049a83af6fcefd0f8093e" target="_top" xlink:title="Acts::operator*">
<polygon fill="none" stroke="#000000" points="578,-.5 578,-20.5 672,-20.5 672,-.5 578,-.5"/>
<text text-anchor="middle" x="625" y="-7.5" font-family="FreeSans" font-size="10.00" fill="#000000">Acts::operator*</text>
</a>
</g>
</g>
<!-- Node7&#45;&gt;Node10 -->
<g id="edge10" class="edge">
<title>Node7&#45;&gt;Node10</title>
<path fill="none" stroke="#191970" d="M530.259,-40.0592C546.0838,-35.1219 565.706,-28.9997 582.9811,-23.6099"/>
<polygon fill="#191970" stroke="#191970" points="584.3311,-26.8552 592.8348,-20.5356 582.2461,-20.1729 584.3311,-26.8552"/>
</g>
<!-- Node11 -->
<g id="node11" class="node">
<title>Node11</title>
<g id="a_node11"><a xlink:href="../../d3/d8d/exceptionActs_1_1Direction.html#a2611c6f98e2e36846340526f2c80c5bc" target="_top" xlink:title="Acts::Direction::sign">
<polygon fill="none" stroke="#000000" points="720,-.5 720,-20.5 838,-20.5 838,-.5 720,-.5"/>
<text text-anchor="middle" x="779" y="-7.5" font-family="FreeSans" font-size="10.00" fill="#000000">Acts::Direction::sign</text>
</a>
</g>
</g>
<!-- Node10&#45;&gt;Node11 -->
<g id="edge11" class="edge">
<title>Node10&#45;&gt;Node11</title>
<path fill="none" stroke="#191970" d="M672.0419,-10.5C683.977,-10.5 697.0497,-10.5 709.8317,-10.5"/>
<polygon fill="#191970" stroke="#191970" points="709.9929,-14.0001 719.9928,-10.5 709.9928,-7.0001 709.9929,-14.0001"/>
</g>
</g>
</svg>
