<?xml version="1.0" encoding="UTF-8" standalone="no"?>
<!DOCTYPE svg PUBLIC "-//W3C//DTD SVG 1.1//EN"
 "http://www.w3.org/Graphics/SVG/1.1/DTD/svg11.dtd">
<!-- Generated by graphviz version 2.40.1 (20161225.0304)
 -->
<!-- Title: RawTower_Temperature Pages: 1 -->
<svg width="143pt" height="200pt"
 viewBox="0.00 0.00 143.00 200.00" xmlns="http://www.w3.org/2000/svg" xmlns:xlink="http://www.w3.org/1999/xlink">
<g id="graph0" class="graph" transform="scale(1 1) rotate(0) translate(4 196)">
<title>RawTower_Temperature</title>
<!-- Node1 -->
<g id="node1" class="node">
<title>Node1</title>
<polygon fill="#bfbfbf" stroke="#000000" points="0,-.5 0,-20.5 135,-20.5 135,-.5 0,-.5"/>
<text text-anchor="middle" x="67.5" y="-7.5" font-family="FreeSans" font-size="10.00" fill="#000000">RawTower_Temperature</text>
</g>
<!-- Node2 -->
<g id="node2" class="node">
<title>Node2</title>
<g id="a_node2"><a xlink:href="../../d9/dd8/classRawTower.html" target="_top" xlink:title="RawTower">
<polygon fill="none" stroke="#000000" points="34,-57.5 34,-77.5 101,-77.5 101,-57.5 34,-57.5"/>
<text text-anchor="middle" x="67.5" y="-64.5" font-family="FreeSans" font-size="10.00" fill="#000000">RawTower</text>
</a>
</g>
</g>
<!-- Node2&#45;&gt;Node1 -->
<g id="edge1" class="edge">
<title>Node2&#45;&gt;Node1</title>
<path fill="none" stroke="#191970" d="M48.1273,-47.7697C46.2399,-38.6126 47.3979,-28.1172 51.6015,-20.6022"/>
<polygon fill="#191970" stroke="#191970" points="44.8791,-49.0805 51.5524,-57.3095 51.4674,-46.715 44.8791,-49.0805"/>
</g>
<!-- Node2&#45;&gt;Node1 -->
<g id="edge4" class="edge">
<title>Node2&#45;&gt;Node1</title>
<path fill="none" stroke="#191970" d="M61.0033,-47.1771C60.4304,-38.1625 60.8294,-27.9556 62.2005,-20.6022"/>
<polygon fill="#191970" stroke="#191970" points="57.55,-47.782 62.1841,-57.3095 64.5029,-46.9716 57.55,-47.782"/>
</g>
<!-- Node2&#45;&gt;Node1 -->
<g id="edge5" class="edge">
<title>Node2&#45;&gt;Node1</title>
<path fill="none" stroke="#191970" d="M73.9967,-47.1771C74.5696,-38.1625 74.1706,-27.9556 72.7995,-20.6022"/>
<polygon fill="#191970" stroke="#191970" points="70.4971,-46.9716 72.8159,-57.3095 77.45,-47.782 70.4971,-46.9716"/>
</g>
<!-- Node2&#45;&gt;Node1 -->
<g id="edge6" class="edge">
<title>Node2&#45;&gt;Node1</title>
<path fill="none" stroke="#191970" d="M86.8727,-47.7697C88.7601,-38.6126 87.6021,-28.1172 83.3985,-20.6022"/>
<polygon fill="#191970" stroke="#191970" points="83.5326,-46.715 83.4476,-57.3095 90.1209,-49.0805 83.5326,-46.715"/>
</g>
<!-- Node3 -->
<g id="node3" class="node">
<title>Node3</title>
<g id="a_node3"><a xlink:href="../../d9/d24/classPHObject.html" target="_top" xlink:title="PHObject">
<polygon fill="none" stroke="#000000" points="36,-114.5 36,-134.5 99,-134.5 99,-114.5 36,-114.5"/>
<text text-anchor="middle" x="67.5" y="-121.5" font-family="FreeSans" font-size="10.00" fill="#000000">PHObject</text>
</a>
</g>
</g>
<!-- Node3&#45;&gt;Node2 -->
<g id="edge2" class="edge">
<title>Node3&#45;&gt;Node2</title>
<path fill="none" stroke="#191970" d="M67.5,-104.1771C67.5,-95.1625 67.5,-84.9556 67.5,-77.6022"/>
<polygon fill="#191970" stroke="#191970" points="64.0001,-104.3095 67.5,-114.3095 71.0001,-104.3096 64.0001,-104.3095"/>
</g>
<!-- Node4 -->
<g id="node4" class="node">
<title>Node4</title>
<polygon fill="none" stroke="#bfbfbf" points="39,-171.5 39,-191.5 96,-191.5 96,-171.5 39,-171.5"/>
<text text-anchor="middle" x="67.5" y="-178.5" font-family="FreeSans" font-size="10.00" fill="#000000">TObject</text>
</g>
<!-- Node4&#45;&gt;Node3 -->
<g id="edge3" class="edge">
<title>Node4&#45;&gt;Node3</title>
<path fill="none" stroke="#191970" d="M67.5,-161.1771C67.5,-152.1625 67.5,-141.9556 67.5,-134.6022"/>
<polygon fill="#191970" stroke="#191970" points="64.0001,-161.3095 67.5,-171.3095 71.0001,-161.3096 64.0001,-161.3095"/>
</g>
</g>
</svg>
