<?xml version="1.0" encoding="UTF-8" standalone="no"?>
<!DOCTYPE svg PUBLIC "-//W3C//DTD SVG 1.1//EN"
 "http://www.w3.org/Graphics/SVG/1.1/DTD/svg11.dtd">
<!-- Generated by graphviz version 2.40.1 (20161225.0304)
 -->
<!-- Title: PHG4CellDefs::TPCBinning::get_radbin Pages: 1 -->
<svg width="463pt" height="41pt"
 viewBox="0.00 0.00 463.00 41.00" xmlns="http://www.w3.org/2000/svg" xmlns:xlink="http://www.w3.org/1999/xlink">
<g id="graph0" class="graph" transform="scale(1 1) rotate(0) translate(4 37)">
<title>PHG4CellDefs::TPCBinning::get_radbin</title>
<!-- Node1 -->
<g id="node1" class="node">
<title>Node1</title>
<polygon fill="#bfbfbf" stroke="#000000" points="0,-.5 0,-32.5 150,-32.5 150,-.5 0,-.5"/>
<text text-anchor="start" x="8" y="-19.5" font-family="FreeSans" font-size="10.00" fill="#000000">PHG4CellDefs::TPCBinning</text>
<text text-anchor="middle" x="75" y="-7.5" font-family="FreeSans" font-size="10.00" fill="#000000">::get_radbin</text>
</g>
<!-- Node2 -->
<g id="node2" class="node">
<title>Node2</title>
<g id="a_node2"><a xlink:href="../../d9/d13/PHG4CellDefs_8cc.html#a728902c52be0b58ad2d4d8232b2beb5b" target="_top" xlink:title="generic_lower_16bit_key">
<polygon fill="none" stroke="#000000" points="186,-6.5 186,-26.5 327,-26.5 327,-6.5 186,-6.5"/>
<text text-anchor="middle" x="256.5" y="-13.5" font-family="FreeSans" font-size="10.00" fill="#000000">generic_lower_16bit_key</text>
</a>
</g>
</g>
<!-- Node1&#45;&gt;Node2 -->
<g id="edge1" class="edge">
<title>Node1&#45;&gt;Node2</title>
<path fill="none" stroke="#191970" d="M150.1332,-16.5C158.5224,-16.5 167.0953,-16.5 175.5532,-16.5"/>
<polygon fill="#191970" stroke="#191970" points="175.793,-20.0001 185.7929,-16.5 175.7929,-13.0001 175.793,-20.0001"/>
</g>
<!-- Node3 -->
<g id="node3" class="node">
<title>Node3</title>
<g id="a_node3"><a xlink:href="../../dd/d7e/namespaceActs_1_1Test.html#a88f0887efddd644c8defc1e91456c3c9" target="_top" xlink:title="Acts::Test::tmp">
<polygon fill="none" stroke="#000000" points="363,-6.5 363,-26.5 455,-26.5 455,-6.5 363,-6.5"/>
<text text-anchor="middle" x="409" y="-13.5" font-family="FreeSans" font-size="10.00" fill="#000000">Acts::Test::tmp</text>
</a>
</g>
</g>
<!-- Node2&#45;&gt;Node3 -->
<g id="edge2" class="edge">
<title>Node2&#45;&gt;Node3</title>
<path fill="none" stroke="#191970" d="M327.3926,-16.5C335.8149,-16.5 344.3249,-16.5 352.5087,-16.5"/>
<polygon fill="#191970" stroke="#191970" points="352.6692,-20.0001 362.6692,-16.5 352.6692,-13.0001 352.6692,-20.0001"/>
</g>
</g>
</svg>
