<?xml version="1.0" encoding="UTF-8" standalone="no"?>
<!DOCTYPE svg PUBLIC "-//W3C//DTD SVG 1.1//EN"
 "http://www.w3.org/Graphics/SVG/1.1/DTD/svg11.dtd">
<!-- Generated by graphviz version 2.40.1 (20161225.0304)
 -->
<!-- Title: acts/blob/sPHENIX/Core/include/Acts/Seeding/SpacePointGrid.ipp Pages: 1 -->
<svg width="1281pt" height="458pt"
 viewBox="0.00 0.00 1280.50 458.00" xmlns="http://www.w3.org/2000/svg" xmlns:xlink="http://www.w3.org/1999/xlink">
<g id="graph0" class="graph" transform="scale(1 1) rotate(0) translate(4 454)">
<title>acts/blob/sPHENIX/Core/include/Acts/Seeding/SpacePointGrid.ipp</title>
<!-- Node1 -->
<g id="node1" class="node">
<title>Node1</title>
<polygon fill="#bfbfbf" stroke="#000000" points="363.5,-405.5 363.5,-449.5 498.5,-449.5 498.5,-405.5 363.5,-405.5"/>
<text text-anchor="start" x="371.5" y="-436.5" font-family="FreeSans" font-size="10.00" fill="#000000">acts/blob/sPHENIX/Core</text>
<text text-anchor="start" x="371.5" y="-424.5" font-family="FreeSans" font-size="10.00" fill="#000000">/include/Acts/Seeding</text>
<text text-anchor="middle" x="431" y="-412.5" font-family="FreeSans" font-size="10.00" fill="#000000">/SpacePointGrid.ipp</text>
</g>
<!-- Node2 -->
<g id="node2" class="node">
<title>Node2</title>
<g id="a_node2"><a xlink:href="../../d0/d93/SpacePointGrid_8hpp.html" target="_top" xlink:title="acts/blob/sPHENIX/Core\l/include/Acts/Seeding\l/SpacePointGrid.hpp">
<polygon fill="none" stroke="#000000" points="363.5,-324.5 363.5,-368.5 498.5,-368.5 498.5,-324.5 363.5,-324.5"/>
<text text-anchor="start" x="371.5" y="-355.5" font-family="FreeSans" font-size="10.00" fill="#000000">acts/blob/sPHENIX/Core</text>
<text text-anchor="start" x="371.5" y="-343.5" font-family="FreeSans" font-size="10.00" fill="#000000">/include/Acts/Seeding</text>
<text text-anchor="middle" x="431" y="-331.5" font-family="FreeSans" font-size="10.00" fill="#000000">/SpacePointGrid.hpp</text>
</a>
</g>
</g>
<!-- Node1&#45;&gt;Node2 -->
<g id="edge1" class="edge">
<title>Node1&#45;&gt;Node2</title>
<path fill="none" stroke="#191970" d="M431,-395.2457C431,-386.3118 431,-376.8188 431,-368.6068"/>
<polygon fill="#191970" stroke="#191970" points="427.5001,-395.3664 431,-405.3664 434.5001,-395.3664 427.5001,-395.3664"/>
</g>
<!-- Node3 -->
<g id="node3" class="node">
<title>Node3</title>
<g id="a_node3"><a xlink:href="../../db/dab/BinFinder_8hpp.html" target="_top" xlink:title="acts/blob/sPHENIX/Core\l/include/Acts/Seeding\l/BinFinder.hpp">
<polygon fill="none" stroke="#000000" points="315.5,-243.5 315.5,-287.5 450.5,-287.5 450.5,-243.5 315.5,-243.5"/>
<text text-anchor="start" x="323.5" y="-274.5" font-family="FreeSans" font-size="10.00" fill="#000000">acts/blob/sPHENIX/Core</text>
<text text-anchor="start" x="323.5" y="-262.5" font-family="FreeSans" font-size="10.00" fill="#000000">/include/Acts/Seeding</text>
<text text-anchor="middle" x="383" y="-250.5" font-family="FreeSans" font-size="10.00" fill="#000000">/BinFinder.hpp</text>
</a>
</g>
</g>
<!-- Node2&#45;&gt;Node3 -->
<g id="edge2" class="edge">
<title>Node2&#45;&gt;Node3</title>
<path fill="none" stroke="#191970" d="M412.7464,-315.6971C407.2059,-306.3474 401.2312,-296.2651 396.1004,-287.6068"/>
<polygon fill="#191970" stroke="#191970" points="409.7747,-317.5478 417.8838,-324.3664 415.7967,-313.9791 409.7747,-317.5478"/>
</g>
<!-- Node4 -->
<g id="node4" class="node">
<title>Node4</title>
<g id="a_node4"><a xlink:href="../../d8/d9f/BinnedSPGroup_8hpp.html" target="_top" xlink:title="acts/blob/sPHENIX/Core\l/include/Acts/Seeding\l/BinnedSPGroup.hpp">
<polygon fill="none" stroke="#000000" points="411.5,-162.5 411.5,-206.5 546.5,-206.5 546.5,-162.5 411.5,-162.5"/>
<text text-anchor="start" x="419.5" y="-193.5" font-family="FreeSans" font-size="10.00" fill="#000000">acts/blob/sPHENIX/Core</text>
<text text-anchor="start" x="419.5" y="-181.5" font-family="FreeSans" font-size="10.00" fill="#000000">/include/Acts/Seeding</text>
<text text-anchor="middle" x="479" y="-169.5" font-family="FreeSans" font-size="10.00" fill="#000000">/BinnedSPGroup.hpp</text>
</a>
</g>
</g>
<!-- Node2&#45;&gt;Node4 -->
<g id="edge20" class="edge">
<title>Node2&#45;&gt;Node4</title>
<path fill="none" stroke="#191970" d="M447.7486,-315.2883C451.8895,-306.6335 455.9951,-297.109 459,-288 468.0014,-260.7136 473.4843,-227.9679 476.3788,-206.7218"/>
<polygon fill="#191970" stroke="#191970" points="444.598,-313.7636 443.2917,-324.2776 450.8695,-316.873 444.598,-313.7636"/>
</g>
<!-- Node5 -->
<g id="node5" class="node">
<title>Node5</title>
<g id="a_node5"><a xlink:href="../../d2/d67/SeedfinderTest_8cpp.html" target="_top" xlink:title="acts/blob/sPHENIX/Tests\l/UnitTests/Core/Seeding\l/SeedfinderTest.cpp">
<polygon fill="none" stroke="#000000" points="206.5,-81.5 206.5,-125.5 343.5,-125.5 343.5,-81.5 206.5,-81.5"/>
<text text-anchor="start" x="214.5" y="-112.5" font-family="FreeSans" font-size="10.00" fill="#000000">acts/blob/sPHENIX/Tests</text>
<text text-anchor="start" x="214.5" y="-100.5" font-family="FreeSans" font-size="10.00" fill="#000000">/UnitTests/Core/Seeding</text>
<text text-anchor="middle" x="275" y="-88.5" font-family="FreeSans" font-size="10.00" fill="#000000">/SeedfinderTest.cpp</text>
</a>
</g>
</g>
<!-- Node2&#45;&gt;Node5 -->
<g id="edge21" class="edge">
<title>Node2&#45;&gt;Node5</title>
<path fill="none" stroke="#191970" d="M354.2046,-324.5455C335.9316,-315.9066 318.215,-304.0756 306,-288 269.155,-239.5097 269.6525,-163.0766 272.5567,-125.6448"/>
<polygon fill="#191970" stroke="#191970" points="352.9292,-327.8085 363.4901,-328.6559 355.7627,-321.4076 352.9292,-327.8085"/>
</g>
<!-- Node6 -->
<g id="node6" class="node">
<title>Node6</title>
<g id="a_node6"><a xlink:href="../../da/d42/SeedfinderCudaTest_8cpp.html" target="_top" xlink:title="acts/blob/sPHENIX/Tests\l/UnitTests/Plugins/Cuda\l/Seeding/SeedfinderCudaTest.cpp">
<polygon fill="none" stroke="#000000" points="0,-81.5 0,-125.5 188,-125.5 188,-81.5 0,-81.5"/>
<text text-anchor="start" x="8" y="-112.5" font-family="FreeSans" font-size="10.00" fill="#000000">acts/blob/sPHENIX/Tests</text>
<text text-anchor="start" x="8" y="-100.5" font-family="FreeSans" font-size="10.00" fill="#000000">/UnitTests/Plugins/Cuda</text>
<text text-anchor="middle" x="94" y="-88.5" font-family="FreeSans" font-size="10.00" fill="#000000">/Seeding/SeedfinderCudaTest.cpp</text>
</a>
</g>
</g>
<!-- Node2&#45;&gt;Node6 -->
<g id="edge22" class="edge">
<title>Node2&#45;&gt;Node6</title>
<path fill="none" stroke="#191970" d="M353.8028,-323.5353C329.1696,-314.4245 302.4874,-302.5882 280,-288 208.2638,-241.4627 141.5791,-163.775 111.2143,-125.7869"/>
<polygon fill="#191970" stroke="#191970" points="352.8951,-326.9282 363.4895,-327.0194 355.2643,-320.3414 352.8951,-326.9282"/>
</g>
<!-- Node8 -->
<g id="node8" class="node">
<title>Node8</title>
<g id="a_node8"><a xlink:href="../../dd/de8/SeedfinderSyclTest_8cpp.html" target="_top" xlink:title="acts/blob/sPHENIX/Tests\l/UnitTests/Plugins/Sycl\l/Seeding/SeedfinderSyclTest.cpp">
<polygon fill="none" stroke="#000000" points="516.5,-81.5 516.5,-125.5 699.5,-125.5 699.5,-81.5 516.5,-81.5"/>
<text text-anchor="start" x="524.5" y="-112.5" font-family="FreeSans" font-size="10.00" fill="#000000">acts/blob/sPHENIX/Tests</text>
<text text-anchor="start" x="524.5" y="-100.5" font-family="FreeSans" font-size="10.00" fill="#000000">/UnitTests/Plugins/Sycl</text>
<text text-anchor="middle" x="608" y="-88.5" font-family="FreeSans" font-size="10.00" fill="#000000">/Seeding/SeedfinderSyclTest.cpp</text>
</a>
</g>
</g>
<!-- Node2&#45;&gt;Node8 -->
<g id="edge23" class="edge">
<title>Node2&#45;&gt;Node8</title>
<path fill="none" stroke="#191970" d="M474.3694,-318.6034C509.6169,-293.6187 557.8025,-253.7703 585,-207 599.8051,-181.5404 605.0882,-147.4756 606.9685,-125.5073"/>
<polygon fill="#191970" stroke="#191970" points="472.3647,-315.7343 466.1591,-324.3216 476.3653,-321.4785 472.3647,-315.7343"/>
</g>
<!-- Node10 -->
<g id="node10" class="node">
<title>Node10</title>
<g id="a_node10"><a xlink:href="../../d9/d89/PHActsSiliconSeeding_8h.html" target="_top" xlink:title="coresoftware/blob/master\l/offline/packages/trackreco\l/PHActsSiliconSeeding.h">
<polygon fill="none" stroke="#000000" points="682,-162.5 682,-206.5 836,-206.5 836,-162.5 682,-162.5"/>
<text text-anchor="start" x="690" y="-193.5" font-family="FreeSans" font-size="10.00" fill="#000000">coresoftware/blob/master</text>
<text text-anchor="start" x="690" y="-181.5" font-family="FreeSans" font-size="10.00" fill="#000000">/offline/packages/trackreco</text>
<text text-anchor="middle" x="759" y="-169.5" font-family="FreeSans" font-size="10.00" fill="#000000">/PHActsSiliconSeeding.h</text>
</a>
</g>
</g>
<!-- Node2&#45;&gt;Node10 -->
<g id="edge24" class="edge">
<title>Node2&#45;&gt;Node10</title>
<path fill="none" stroke="#191970" d="M508.4909,-330.497C545.6111,-321.0727 589.9417,-307.1757 627,-288 669.1581,-266.1854 711.1447,-230.1903 736.0869,-206.9166"/>
<polygon fill="#191970" stroke="#191970" points="507.5875,-327.1149 498.7226,-332.917 509.2709,-333.9095 507.5875,-327.1149"/>
</g>
<!-- Node3&#45;&gt;Node4 -->
<g id="edge3" class="edge">
<title>Node3&#45;&gt;Node4</title>
<path fill="none" stroke="#191970" d="M417.1227,-236.709C428.8548,-226.81 441.7971,-215.8899 452.7993,-206.6068"/>
<polygon fill="#191970" stroke="#191970" points="414.6183,-234.2426 409.2324,-243.3664 419.1324,-239.5927 414.6183,-234.2426"/>
</g>
<!-- Node3&#45;&gt;Node5 -->
<g id="edge9" class="edge">
<title>Node3&#45;&gt;Node5</title>
<path fill="none" stroke="#191970" d="M365.7517,-234.4108C353.8289,-213.5172 337.2464,-185.5936 321,-162 312.5002,-149.6562 302.2585,-136.4876 293.5987,-125.7761"/>
<polygon fill="#191970" stroke="#191970" points="362.749,-236.2112 370.7225,-243.1878 368.84,-232.7616 362.749,-236.2112"/>
</g>
<!-- Node3&#45;&gt;Node6 -->
<g id="edge10" class="edge">
<title>Node3&#45;&gt;Node6</title>
<path fill="none" stroke="#191970" d="M334.9966,-238.5915C278.6183,-206.9885 186.1457,-155.1526 133.6544,-125.7284"/>
<polygon fill="#191970" stroke="#191970" points="333.289,-241.6467 343.7234,-243.4834 336.7118,-235.5405 333.289,-241.6467"/>
</g>
<!-- Node7 -->
<g id="node7" class="node">
<title>Node7</title>
<g id="a_node7"><a xlink:href="../../d2/de6/acts_2blob_2sPHENIX_2Tests_2UnitTests_2Plugins_2Cuda_2Seeding2_2main_8cpp.html" target="_top" xlink:title="acts/blob/sPHENIX/Tests\l/UnitTests/Plugins/Cuda\l/Seeding2/main.cpp">
<polygon fill="none" stroke="#000000" points="361.5,-81.5 361.5,-125.5 498.5,-125.5 498.5,-81.5 361.5,-81.5"/>
<text text-anchor="start" x="369.5" y="-112.5" font-family="FreeSans" font-size="10.00" fill="#000000">acts/blob/sPHENIX/Tests</text>
<text text-anchor="start" x="369.5" y="-100.5" font-family="FreeSans" font-size="10.00" fill="#000000">/UnitTests/Plugins/Cuda</text>
<text text-anchor="middle" x="430" y="-88.5" font-family="FreeSans" font-size="10.00" fill="#000000">/Seeding2/main.cpp</text>
</a>
</g>
</g>
<!-- Node3&#45;&gt;Node7 -->
<g id="edge11" class="edge">
<title>Node3&#45;&gt;Node7</title>
<path fill="none" stroke="#191970" d="M386.701,-233.1087C389.61,-212.4259 394.4565,-185.2307 402,-162 406.0339,-149.5773 412.1611,-136.4014 417.6563,-125.7054"/>
<polygon fill="#191970" stroke="#191970" points="383.1978,-232.9019 385.3523,-243.2753 390.1371,-233.8225 383.1978,-232.9019"/>
</g>
<!-- Node3&#45;&gt;Node8 -->
<g id="edge12" class="edge">
<title>Node3&#45;&gt;Node8</title>
<path fill="none" stroke="#191970" d="M460.6602,-252.7881C493.0843,-244.2739 529.3288,-230.1879 556,-207 580.8882,-185.3623 595.2292,-148.9714 602.3225,-125.6101"/>
<polygon fill="#191970" stroke="#191970" points="459.5952,-249.4463 450.735,-255.2555 461.284,-256.2395 459.5952,-249.4463"/>
</g>
<!-- Node3&#45;&gt;Node10 -->
<g id="edge13" class="edge">
<title>Node3&#45;&gt;Node10</title>
<path fill="none" stroke="#191970" d="M460.8082,-248.7381C525.5605,-234.7888 617.2668,-215.033 681.8387,-201.1225"/>
<polygon fill="#191970" stroke="#191970" points="459.6942,-245.3977 450.6555,-250.9253 461.1684,-252.2408 459.6942,-245.3977"/>
</g>
<!-- Node4&#45;&gt;Node5 -->
<g id="edge4" class="edge">
<title>Node4&#45;&gt;Node5</title>
<path fill="none" stroke="#191970" d="M414.1826,-158.7637C387.254,-148.0714 356.3196,-135.7887 330.4634,-125.5222"/>
<polygon fill="#191970" stroke="#191970" points="412.9398,-162.036 423.5256,-162.4734 415.523,-155.53 412.9398,-162.036"/>
</g>
<!-- Node4&#45;&gt;Node6 -->
<g id="edge5" class="edge">
<title>Node4&#45;&gt;Node6</title>
<path fill="none" stroke="#191970" d="M401.4743,-168.6462C344.7979,-157.0004 266.086,-140.7112 197,-126 194.0461,-125.371 191.0451,-124.7296 188.0154,-124.08"/>
<polygon fill="#191970" stroke="#191970" points="400.9382,-172.1091 411.4379,-170.6924 402.3464,-165.2522 400.9382,-172.1091"/>
</g>
<!-- Node4&#45;&gt;Node7 -->
<g id="edge6" class="edge">
<title>Node4&#45;&gt;Node7</title>
<path fill="none" stroke="#191970" d="M460.3661,-153.6971C454.7102,-144.3474 448.611,-134.2651 443.3733,-125.6068"/>
<polygon fill="#191970" stroke="#191970" points="457.4398,-155.6218 465.6105,-162.3664 463.4292,-151.9985 457.4398,-155.6218"/>
</g>
<!-- Node4&#45;&gt;Node8 -->
<g id="edge7" class="edge">
<title>Node4&#45;&gt;Node8</title>
<path fill="none" stroke="#191970" d="M523.0407,-156.8465C539.2758,-146.6524 557.44,-135.247 572.7928,-125.6068"/>
<polygon fill="#191970" stroke="#191970" points="520.8575,-154.0845 514.2498,-162.3664 524.5799,-160.0128 520.8575,-154.0845"/>
</g>
<!-- Node9 -->
<g id="node9" class="node">
<title>Node9</title>
<g id="a_node9"><a xlink:href="../../dd/d34/PHActsSiliconSeeding_8cc.html" target="_top" xlink:title="coresoftware/blob/master\l/offline/packages/trackreco\l/PHActsSiliconSeeding.cc">
<polygon fill="none" stroke="#000000" points="718,-81.5 718,-125.5 872,-125.5 872,-81.5 718,-81.5"/>
<text text-anchor="start" x="726" y="-112.5" font-family="FreeSans" font-size="10.00" fill="#000000">coresoftware/blob/master</text>
<text text-anchor="start" x="726" y="-100.5" font-family="FreeSans" font-size="10.00" fill="#000000">/offline/packages/trackreco</text>
<text text-anchor="middle" x="795" y="-88.5" font-family="FreeSans" font-size="10.00" fill="#000000">/PHActsSiliconSeeding.cc</text>
</a>
</g>
</g>
<!-- Node4&#45;&gt;Node9 -->
<g id="edge8" class="edge">
<title>Node4&#45;&gt;Node9</title>
<path fill="none" stroke="#191970" d="M556.6091,-164.9005C601.2106,-153.6017 658.2787,-139.0853 709,-126 711.8393,-125.2675 714.7309,-124.5198 717.6514,-123.7632"/>
<polygon fill="#191970" stroke="#191970" points="555.5462,-161.5591 546.7114,-167.4069 557.2647,-168.3449 555.5462,-161.5591"/>
</g>
<!-- Node10&#45;&gt;Node9 -->
<g id="edge14" class="edge">
<title>Node10&#45;&gt;Node9</title>
<path fill="none" stroke="#191970" d="M772.9476,-153.1179C777.0301,-143.9322 781.406,-134.0866 785.1747,-125.6068"/>
<polygon fill="#191970" stroke="#191970" points="769.7003,-151.8068 768.8372,-162.3664 776.0969,-154.6498 769.7003,-151.8068"/>
</g>
<!-- Node11 -->
<g id="node11" class="node">
<title>Node11</title>
<g id="a_node11"><a xlink:href="../../d0/db6/macros_2blob_2master_2common_2G4__Tracking_8C.html" target="_top" xlink:title="macros/blob/master\l/common/G4_Tracking.C">
<polygon fill="none" stroke="#000000" points="890,-87.5 890,-119.5 1030,-119.5 1030,-87.5 890,-87.5"/>
<text text-anchor="start" x="898" y="-106.5" font-family="FreeSans" font-size="10.00" fill="#000000">macros/blob/master</text>
<text text-anchor="middle" x="960" y="-94.5" font-family="FreeSans" font-size="10.00" fill="#000000">/common/G4_Tracking.C</text>
</a>
</g>
</g>
<!-- Node10&#45;&gt;Node11 -->
<g id="edge15" class="edge">
<title>Node10&#45;&gt;Node11</title>
<path fill="none" stroke="#191970" d="M823.32,-158.58C855.0812,-145.7807 892.4061,-130.7393 920.0189,-119.6118"/>
<polygon fill="#191970" stroke="#191970" points="821.6256,-155.4892 813.6586,-162.4734 824.2421,-161.9819 821.6256,-155.4892"/>
</g>
<!-- Node12 -->
<g id="node12" class="node">
<title>Node12</title>
<g id="a_node12"><a xlink:href="../../d1/d19/macros_2blob_2master_2detectors_2sPHENIX_2Fun4All__G4__sPHENIX_8C.html" target="_top" xlink:title="macros/blob/master\l/detectors/sPHENIX/Fun4All\l_G4_sPHENIX.C">
<polygon fill="none" stroke="#000000" points="623,-.5 623,-44.5 777,-44.5 777,-.5 623,-.5"/>
<text text-anchor="start" x="631" y="-31.5" font-family="FreeSans" font-size="10.00" fill="#000000">macros/blob/master</text>
<text text-anchor="start" x="631" y="-19.5" font-family="FreeSans" font-size="10.00" fill="#000000">/detectors/sPHENIX/Fun4All</text>
<text text-anchor="middle" x="700" y="-7.5" font-family="FreeSans" font-size="10.00" fill="#000000">_G4_sPHENIX.C</text>
</a>
</g>
</g>
<!-- Node11&#45;&gt;Node12 -->
<g id="edge16" class="edge">
<title>Node11&#45;&gt;Node12</title>
<path fill="none" stroke="#191970" d="M898.6483,-84.3866C860.3555,-72.4569 810.9194,-57.0557 770.9441,-44.6018"/>
<polygon fill="#191970" stroke="#191970" points="898.0439,-87.8641 908.6324,-87.497 900.126,-81.181 898.0439,-87.8641"/>
</g>
<!-- Node13 -->
<g id="node13" class="node">
<title>Node13</title>
<g id="a_node13"><a xlink:href="../../d4/de9/Fun4All__AnaTutorial__sPHENIX_8C.html" target="_top" xlink:title="tutorials/blob/master\l/AnaTutorial/macro/Fun4All\l_AnaTutorial_sPHENIX.C">
<polygon fill="none" stroke="#000000" points="795.5,-.5 795.5,-44.5 948.5,-44.5 948.5,-.5 795.5,-.5"/>
<text text-anchor="start" x="803.5" y="-31.5" font-family="FreeSans" font-size="10.00" fill="#000000">tutorials/blob/master</text>
<text text-anchor="start" x="803.5" y="-19.5" font-family="FreeSans" font-size="10.00" fill="#000000">/AnaTutorial/macro/Fun4All</text>
<text text-anchor="middle" x="872" y="-7.5" font-family="FreeSans" font-size="10.00" fill="#000000">_AnaTutorial_sPHENIX.C</text>
</a>
</g>
</g>
<!-- Node11&#45;&gt;Node13 -->
<g id="edge17" class="edge">
<title>Node11&#45;&gt;Node13</title>
<path fill="none" stroke="#191970" d="M934.9788,-80.4691C922.7504,-69.2134 908.1026,-55.7308 896.0119,-44.6018"/>
<polygon fill="#191970" stroke="#191970" points="932.886,-83.2998 942.614,-87.497 937.6267,-78.1494 932.886,-83.2998"/>
</g>
<!-- Node14 -->
<g id="node14" class="node">
<title>Node14</title>
<g id="a_node14"><a xlink:href="../../d6/d14/Fun4All__AnaTutorial__sPHENIX__Jets_8C.html" target="_top" xlink:title="tutorials/blob/master\l/AnaTutorial/macro/Fun4All\l_AnaTutorial_sPHENIX_Jets.C">
<polygon fill="none" stroke="#000000" points="967,-.5 967,-44.5 1127,-44.5 1127,-.5 967,-.5"/>
<text text-anchor="start" x="975" y="-31.5" font-family="FreeSans" font-size="10.00" fill="#000000">tutorials/blob/master</text>
<text text-anchor="start" x="975" y="-19.5" font-family="FreeSans" font-size="10.00" fill="#000000">/AnaTutorial/macro/Fun4All</text>
<text text-anchor="middle" x="1047" y="-7.5" font-family="FreeSans" font-size="10.00" fill="#000000">_AnaTutorial_sPHENIX_Jets.C</text>
</a>
</g>
</g>
<!-- Node11&#45;&gt;Node14 -->
<g id="edge18" class="edge">
<title>Node11&#45;&gt;Node14</title>
<path fill="none" stroke="#191970" d="M984.7369,-80.4691C996.8263,-69.2134 1011.3077,-55.7308 1023.261,-44.6018"/>
<polygon fill="#191970" stroke="#191970" points="982.1224,-78.1212 977.1884,-87.497 986.8923,-83.2444 982.1224,-78.1212"/>
</g>
<!-- Node15 -->
<g id="node15" class="node">
<title>Node15</title>
<g id="a_node15"><a xlink:href="../../dc/dfd/tutorials_2blob_2master_2materialscan_2Fun4All__G4__sPHENIX_8C.html" target="_top" xlink:title="tutorials/blob/master\l/materialscan/Fun4All\l_G4_sPHENIX.C">
<polygon fill="none" stroke="#000000" points="1145.5,-.5 1145.5,-44.5 1272.5,-44.5 1272.5,-.5 1145.5,-.5"/>
<text text-anchor="start" x="1153.5" y="-31.5" font-family="FreeSans" font-size="10.00" fill="#000000">tutorials/blob/master</text>
<text text-anchor="start" x="1153.5" y="-19.5" font-family="FreeSans" font-size="10.00" fill="#000000">/materialscan/Fun4All</text>
<text text-anchor="middle" x="1209" y="-7.5" font-family="FreeSans" font-size="10.00" fill="#000000">_G4_sPHENIX.C</text>
</a>
</g>
</g>
<!-- Node11&#45;&gt;Node15 -->
<g id="edge19" class="edge">
<title>Node11&#45;&gt;Node15</title>
<path fill="none" stroke="#191970" d="M1019.089,-84.2783C1057.069,-71.9233 1106.3915,-55.8787 1145.2527,-43.2371"/>
<polygon fill="#191970" stroke="#191970" points="1017.6212,-81.0752 1009.1944,-87.497 1019.7866,-87.7318 1017.6212,-81.0752"/>
</g>
</g>
</svg>
