<?xml version="1.0" encoding="UTF-8" standalone="no"?>
<!DOCTYPE svg PUBLIC "-//W3C//DTD SVG 1.1//EN"
 "http://www.w3.org/Graphics/SVG/1.1/DTD/svg11.dtd">
<!-- Generated by graphviz version 2.40.1 (20161225.0304)
 -->
<!-- Title: analysis/blob/master/BBCStudy/Mwibanda/MBDStudy.h Pages: 1 -->
<svg width="379pt" height="122pt"
 viewBox="0.00 0.00 378.50 122.00" xmlns="http://www.w3.org/2000/svg" xmlns:xlink="http://www.w3.org/1999/xlink">
<g id="graph0" class="graph" transform="scale(1 1) rotate(0) translate(4 118)">
<title>analysis/blob/master/BBCStudy/Mwibanda/MBDStudy.h</title>
<!-- Node1 -->
<g id="node1" class="node">
<title>Node1</title>
<polygon fill="#bfbfbf" stroke="#000000" points="82,-81.5 82,-113.5 271,-113.5 271,-81.5 82,-81.5"/>
<text text-anchor="start" x="90" y="-100.5" font-family="FreeSans" font-size="10.00" fill="#000000">analysis/blob/master</text>
<text text-anchor="middle" x="176.5" y="-88.5" font-family="FreeSans" font-size="10.00" fill="#000000">/BBCStudy/Mwibanda/MBDStudy.h</text>
</g>
<!-- Node2 -->
<g id="node2" class="node">
<title>Node2</title>
<g id="a_node2"><a xlink:href="../../da/d6f/MBDStudy__Dict_8C.html" target="_top" xlink:title="analysis/blob/master\l/BBCStudy/Mwibanda/BUILD\l/MBDStudy_Dict.C">
<polygon fill="none" stroke="#000000" points="0,-.5 0,-44.5 159,-44.5 159,-.5 0,-.5"/>
<text text-anchor="start" x="8" y="-31.5" font-family="FreeSans" font-size="10.00" fill="#000000">analysis/blob/master</text>
<text text-anchor="start" x="8" y="-19.5" font-family="FreeSans" font-size="10.00" fill="#000000">/BBCStudy/Mwibanda/BUILD</text>
<text text-anchor="middle" x="79.5" y="-7.5" font-family="FreeSans" font-size="10.00" fill="#000000">/MBDStudy_Dict.C</text>
</a>
</g>
</g>
<!-- Node1&#45;&gt;Node2 -->
<g id="edge1" class="edge">
<title>Node1&#45;&gt;Node2</title>
<path fill="none" stroke="#191970" d="M147.2617,-74.893C134.8987,-65.334 120.542,-54.2335 108.2341,-44.7171"/>
<polygon fill="#191970" stroke="#191970" points="145.4005,-77.8782 155.4524,-81.2261 149.6823,-72.3404 145.4005,-77.8782"/>
</g>
<!-- Node3 -->
<g id="node3" class="node">
<title>Node3</title>
<g id="a_node3"><a xlink:href="../../d1/d9c/MBDStudy_8cc.html" target="_top" xlink:title="analysis/blob/master\l/BBCStudy/Mwibanda/MBDStudy.cc">
<polygon fill="none" stroke="#000000" points="176.5,-6.5 176.5,-38.5 370.5,-38.5 370.5,-6.5 176.5,-6.5"/>
<text text-anchor="start" x="184.5" y="-25.5" font-family="FreeSans" font-size="10.00" fill="#000000">analysis/blob/master</text>
<text text-anchor="middle" x="273.5" y="-13.5" font-family="FreeSans" font-size="10.00" fill="#000000">/BBCStudy/Mwibanda/MBDStudy.cc</text>
</a>
</g>
</g>
<!-- Node1&#45;&gt;Node3 -->
<g id="edge2" class="edge">
<title>Node1&#45;&gt;Node3</title>
<path fill="none" stroke="#191970" d="M205.5774,-75.0175C220.6724,-63.3461 238.7743,-49.3498 252.4935,-38.7421"/>
<polygon fill="#191970" stroke="#191970" points="203.3177,-72.3404 197.5476,-81.2261 207.5995,-77.8782 203.3177,-72.3404"/>
</g>
</g>
</svg>
