<?xml version="1.0" encoding="UTF-8" standalone="no"?>
<!DOCTYPE svg PUBLIC "-//W3C//DTD SVG 1.1//EN"
 "http://www.w3.org/Graphics/SVG/1.1/DTD/svg11.dtd">
<!-- Generated by graphviz version 2.40.1 (20161225.0304)
 -->
<!-- Title: Mvtx_Clustering Pages: 1 -->
<svg width="333pt" height="965pt"
 viewBox="0.00 0.00 333.00 965.00" xmlns="http://www.w3.org/2000/svg" xmlns:xlink="http://www.w3.org/1999/xlink">
<g id="graph0" class="graph" transform="scale(1 1) rotate(0) translate(4 961)">
<title>Mvtx_Clustering</title>
<!-- Node1 -->
<g id="node1" class="node">
<title>Node1</title>
<polygon fill="#bfbfbf" stroke="#000000" points="0,-438.5 0,-458.5 97,-458.5 97,-438.5 0,-438.5"/>
<text text-anchor="middle" x="48.5" y="-445.5" font-family="FreeSans" font-size="10.00" fill="#000000">Mvtx_Clustering</text>
</g>
<!-- Node2 -->
<g id="node2" class="node">
<title>Node2</title>
<g id="a_node2"><a xlink:href="../../d4/de9/Fun4All__AnaTutorial__sPHENIX_8C.html#a5028836c74f0bebec560d3ab54daa022" target="_top" xlink:title="Fun4All_AnaTutorial\l_sPHENIX">
<polygon fill="none" stroke="#000000" points="171.5,-924.5 171.5,-956.5 286.5,-956.5 286.5,-924.5 171.5,-924.5"/>
<text text-anchor="start" x="179.5" y="-943.5" font-family="FreeSans" font-size="10.00" fill="#000000">Fun4All_AnaTutorial</text>
<text text-anchor="middle" x="229" y="-931.5" font-family="FreeSans" font-size="10.00" fill="#000000">_sPHENIX</text>
</a>
</g>
</g>
<!-- Node1&#45;&gt;Node2 -->
<g id="edge1" class="edge">
<title>Node1&#45;&gt;Node2</title>
<path fill="none" stroke="#191970" d="M49.3539,-468.943C53.1593,-550.1612 71.2045,-848.8366 133,-915.5 143.0106,-926.2992 157.0428,-932.6735 171.2936,-936.374"/>
<polygon fill="#191970" stroke="#191970" points="52.8343,-468.4255 48.8922,-458.5914 45.8413,-468.7374 52.8343,-468.4255"/>
</g>
<!-- Node3 -->
<g id="node3" class="node">
<title>Node3</title>
<g id="a_node3"><a xlink:href="../../d6/d14/Fun4All__AnaTutorial__sPHENIX__Jets_8C.html#a61b352bca84476d24b0ff40991b27900" target="_top" xlink:title="Fun4All_AnaTutorial\l_sPHENIX_Jets">
<polygon fill="none" stroke="#000000" points="171.5,-873.5 171.5,-905.5 286.5,-905.5 286.5,-873.5 171.5,-873.5"/>
<text text-anchor="start" x="179.5" y="-892.5" font-family="FreeSans" font-size="10.00" fill="#000000">Fun4All_AnaTutorial</text>
<text text-anchor="middle" x="229" y="-880.5" font-family="FreeSans" font-size="10.00" fill="#000000">_sPHENIX_Jets</text>
</a>
</g>
</g>
<!-- Node1&#45;&gt;Node3 -->
<g id="edge2" class="edge">
<title>Node1&#45;&gt;Node3</title>
<path fill="none" stroke="#191970" d="M49.8246,-468.6226C55.1676,-543.6762 77.5679,-805.9696 133,-864.5 143.1255,-875.1915 157.1959,-881.53 171.4466,-885.2306"/>
<polygon fill="#191970" stroke="#191970" points="53.313,-468.3332 49.1344,-458.5972 46.3295,-468.814 53.313,-468.3332"/>
</g>
<!-- Node4 -->
<g id="node4" class="node">
<title>Node4</title>
<g id="a_node4"><a xlink:href="../../d3/df6/Fun4All__BHG_8C.html#af5fe9d02cb2b4cd537288c95abc9f8c6" target="_top" xlink:title="Fun4All_BHG">
<polygon fill="none" stroke="#000000" points="188.5,-834.5 188.5,-854.5 269.5,-854.5 269.5,-834.5 188.5,-834.5"/>
<text text-anchor="middle" x="229" y="-841.5" font-family="FreeSans" font-size="10.00" fill="#000000">Fun4All_BHG</text>
</a>
</g>
</g>
<!-- Node1&#45;&gt;Node4 -->
<g id="edge3" class="edge">
<title>Node1&#45;&gt;Node4</title>
<path fill="none" stroke="#191970" d="M50.206,-469.085C56.5342,-540.3285 81.0293,-774.8178 133,-825.5 147.4746,-839.6158 169.236,-844.7138 188.3821,-846.1276"/>
<polygon fill="#191970" stroke="#191970" points="53.6624,-468.4267 49.3165,-458.7643 46.6882,-469.0279 53.6624,-468.4267"/>
</g>
<!-- Node5 -->
<g id="node5" class="node">
<title>Node5</title>
<g id="a_node5"><a xlink:href="../../d9/d7b/Fun4All__G4__Calo_8C.html#aefa5325c03444fd144b2a7d81b29c579" target="_top" xlink:title="Fun4All_G4_Calo">
<polygon fill="none" stroke="#000000" points="179,-795.5 179,-815.5 279,-815.5 279,-795.5 179,-795.5"/>
<text text-anchor="middle" x="229" y="-802.5" font-family="FreeSans" font-size="10.00" fill="#000000">Fun4All_G4_Calo</text>
</a>
</g>
</g>
<!-- Node1&#45;&gt;Node5 -->
<g id="edge4" class="edge">
<title>Node1&#45;&gt;Node5</title>
<path fill="none" stroke="#191970" d="M50.7277,-468.6626C58.4173,-534.5385 85.9868,-741.7621 133,-786.5 145.1848,-798.0951 162.3023,-803.5636 178.7152,-805.9099"/>
<polygon fill="#191970" stroke="#191970" points="54.203,-468.2468 49.5928,-458.7076 47.2481,-469.0398 54.203,-468.2468"/>
</g>
<!-- Node6 -->
<g id="node6" class="node">
<title>Node6</title>
<g id="a_node6"><a xlink:href="../../d0/d37/analysis_2blob_2master_2EMCal-position-dependent-calibration_2example_2macro_2Fun4All__G4__sPHENIX_8C.html#a25b28b7ae5b3cc21d023910dc6abfc44" target="_top" xlink:title="Fun4All_G4_sPHENIX">
<polygon fill="none" stroke="#000000" points="168.5,-756.5 168.5,-776.5 289.5,-776.5 289.5,-756.5 168.5,-756.5"/>
<text text-anchor="middle" x="229" y="-763.5" font-family="FreeSans" font-size="10.00" fill="#000000">Fun4All_G4_sPHENIX</text>
</a>
</g>
</g>
<!-- Node1&#45;&gt;Node6 -->
<g id="edge5" class="edge">
<title>Node1&#45;&gt;Node6</title>
<path fill="none" stroke="#191970" d="M51.4308,-468.6827C60.6599,-529.4281 91.0192,-708.7515 133,-747.5 142.7381,-756.4883 155.4541,-761.7632 168.4294,-764.7532"/>
<polygon fill="#191970" stroke="#191970" points="54.891,-468.1558 49.9554,-458.7808 47.9675,-469.1874 54.891,-468.1558"/>
</g>
<!-- Node7 -->
<g id="node7" class="node">
<title>Node7</title>
<g id="a_node7"><a xlink:href="../../d3/dfe/Fun4All__G4__sPHENIX__ForTrackCutStudy_8C.html#aee6928c85428dd1e5ef39817f4519fec" target="_top" xlink:title="Fun4All_G4_sPHENIX\l_ForTrackCutStudy">
<polygon fill="none" stroke="#000000" points="168.5,-705.5 168.5,-737.5 289.5,-737.5 289.5,-705.5 168.5,-705.5"/>
<text text-anchor="start" x="176.5" y="-724.5" font-family="FreeSans" font-size="10.00" fill="#000000">Fun4All_G4_sPHENIX</text>
<text text-anchor="middle" x="229" y="-712.5" font-family="FreeSans" font-size="10.00" fill="#000000">_ForTrackCutStudy</text>
</a>
</g>
</g>
<!-- Node1&#45;&gt;Node7 -->
<g id="edge6" class="edge">
<title>Node1&#45;&gt;Node7</title>
<path fill="none" stroke="#191970" d="M52.7675,-468.5588C64.4633,-521.731 98.465,-664.4186 133,-696.5 142.716,-705.5257 155.2723,-711.3836 168.0812,-715.1628"/>
<polygon fill="#191970" stroke="#191970" points="56.1572,-467.6747 50.6181,-458.6431 49.3161,-469.1577 56.1572,-467.6747"/>
</g>
<!-- Node8 -->
<g id="node8" class="node">
<title>Node8</title>
<g id="a_node8"><a xlink:href="../../db/d44/Fun4All__G4__sPHENIX__ForTrackCutStudy__EmbedScanOff_8C.html#a1b7a4bcaa2313216c813ee5c8e265e0f" target="_top" xlink:title="Fun4All_G4_sPHENIX\l_ForTrackCutStudy_EmbedScanOff">
<polygon fill="none" stroke="#000000" points="133,-654.5 133,-686.5 325,-686.5 325,-654.5 133,-654.5"/>
<text text-anchor="start" x="141" y="-673.5" font-family="FreeSans" font-size="10.00" fill="#000000">Fun4All_G4_sPHENIX</text>
<text text-anchor="middle" x="229" y="-661.5" font-family="FreeSans" font-size="10.00" fill="#000000">_ForTrackCutStudy_EmbedScanOff</text>
</a>
</g>
</g>
<!-- Node1&#45;&gt;Node8 -->
<g id="edge7" class="edge">
<title>Node1&#45;&gt;Node8</title>
<path fill="none" stroke="#191970" d="M51.2648,-468.8541C57.8122,-508.9298 78.0608,-598.2612 133,-645.5 136.9177,-648.8686 141.2355,-651.791 145.8059,-654.3255"/>
<polygon fill="#191970" stroke="#191970" points="54.7204,-468.2968 49.764,-458.9328 47.7991,-469.3438 54.7204,-468.2968"/>
</g>
<!-- Node9 -->
<g id="node9" class="node">
<title>Node9</title>
<g id="a_node9"><a xlink:href="../../de/d93/Fun4All__G4__sPHENIX__ForTrackCutStudy__EmbedScanOn_8C.html#a2a18d55c852c3aa404798f27db292861" target="_top" xlink:title="Fun4All_G4_sPHENIX\l_ForTrackCutStudy_EmbedScanOn">
<polygon fill="none" stroke="#000000" points="134,-603.5 134,-635.5 324,-635.5 324,-603.5 134,-603.5"/>
<text text-anchor="start" x="142" y="-622.5" font-family="FreeSans" font-size="10.00" fill="#000000">Fun4All_G4_sPHENIX</text>
<text text-anchor="middle" x="229" y="-610.5" font-family="FreeSans" font-size="10.00" fill="#000000">_ForTrackCutStudy_EmbedScanOn</text>
</a>
</g>
</g>
<!-- Node1&#45;&gt;Node9 -->
<g id="edge8" class="edge">
<title>Node1&#45;&gt;Node9</title>
<path fill="none" stroke="#191970" d="M54.5687,-468.7652C65.151,-500.5395 90.0523,-561.8206 133,-594.5 137.523,-597.9416 142.475,-600.9113 147.6705,-603.4736"/>
<polygon fill="#191970" stroke="#191970" points="57.7823,-467.3213 51.4166,-458.852 51.1114,-469.4424 57.7823,-467.3213"/>
</g>
<!-- Node10 -->
<g id="node10" class="node">
<title>Node10</title>
<g id="a_node10"><a xlink:href="../../dd/d3d/Fun4All__G4__sPHENIX__ForTrackCutStudy__WithPileup__EmbedScanOff_8C.html#a871bc23cf87970dd5a7212eba9dfb2ce" target="_top" xlink:title="Fun4All_G4_sPHENIX\l_ForTrackCutStudy_WithPileup\l_EmbedScanOff">
<polygon fill="none" stroke="#000000" points="144,-540.5 144,-584.5 314,-584.5 314,-540.5 144,-540.5"/>
<text text-anchor="start" x="152" y="-571.5" font-family="FreeSans" font-size="10.00" fill="#000000">Fun4All_G4_sPHENIX</text>
<text text-anchor="start" x="152" y="-559.5" font-family="FreeSans" font-size="10.00" fill="#000000">_ForTrackCutStudy_WithPileup</text>
<text text-anchor="middle" x="229" y="-547.5" font-family="FreeSans" font-size="10.00" fill="#000000">_EmbedScanOff</text>
</a>
</g>
</g>
<!-- Node1&#45;&gt;Node10 -->
<g id="edge9" class="edge">
<title>Node1&#45;&gt;Node10</title>
<path fill="none" stroke="#191970" d="M62.4917,-466.5191C77.9,-485.2273 104.3216,-514.1375 133,-531.5 138.3936,-534.7654 144.1687,-537.7254 150.1113,-540.4014"/>
<polygon fill="#191970" stroke="#191970" points="65.2133,-464.3184 56.2187,-458.7195 59.7586,-468.7055 65.2133,-464.3184"/>
</g>
<!-- Node11 -->
<g id="node11" class="node">
<title>Node11</title>
<g id="a_node11"><a xlink:href="../../dd/d54/Fun4All__G4__sPHENIX__ForTrackCutStudy__WithPileup__EmbedScanOn_8C.html#a3fc8b60e29719c1be2f3b60d87450d8b" target="_top" xlink:title="Fun4All_G4_sPHENIX\l_ForTrackCutStudy_WithPileup\l_EmbedScanOn">
<polygon fill="none" stroke="#000000" points="144,-477.5 144,-521.5 314,-521.5 314,-477.5 144,-477.5"/>
<text text-anchor="start" x="152" y="-508.5" font-family="FreeSans" font-size="10.00" fill="#000000">Fun4All_G4_sPHENIX</text>
<text text-anchor="start" x="152" y="-496.5" font-family="FreeSans" font-size="10.00" fill="#000000">_ForTrackCutStudy_WithPileup</text>
<text text-anchor="middle" x="229" y="-484.5" font-family="FreeSans" font-size="10.00" fill="#000000">_EmbedScanOn</text>
</a>
</g>
</g>
<!-- Node1&#45;&gt;Node11 -->
<g id="edge10" class="edge">
<title>Node1&#45;&gt;Node11</title>
<path fill="none" stroke="#191970" d="M93.961,-461.3449C111.228,-466.2237 131.4252,-471.9304 150.8594,-477.4215"/>
<polygon fill="#191970" stroke="#191970" points="94.7359,-457.9269 84.161,-458.576 92.8326,-464.6632 94.7359,-457.9269"/>
</g>
<!-- Node12 -->
<g id="node12" class="node">
<title>Node12</title>
<g id="a_node12"><a xlink:href="../../dc/dd5/pi0ClusterAna_2macros_2Fun4All__Pi0Gen__sPHENIX_8C.html#ae22b96c3e2c90a36c56dd8b4a0f01eed" target="_top" xlink:title="Fun4All_Pi0Gen_sPHENIX">
<polygon fill="none" stroke="#000000" points="158,-438.5 158,-458.5 300,-458.5 300,-438.5 158,-438.5"/>
<text text-anchor="middle" x="229" y="-445.5" font-family="FreeSans" font-size="10.00" fill="#000000">Fun4All_Pi0Gen_sPHENIX</text>
</a>
</g>
</g>
<!-- Node1&#45;&gt;Node12 -->
<g id="edge11" class="edge">
<title>Node1&#45;&gt;Node12</title>
<path fill="none" stroke="#191970" d="M107.6285,-448.5C123.6405,-448.5 141.1417,-448.5 157.7446,-448.5"/>
<polygon fill="#191970" stroke="#191970" points="107.3459,-445.0001 97.3459,-448.5 107.3459,-452.0001 107.3459,-445.0001"/>
</g>
<!-- Node13 -->
<g id="node13" class="node">
<title>Node13</title>
<g id="a_node13"><a xlink:href="../../dd/d77/Fun4All__pi0tbt__SIMPLE__EMBED_8C.html#a39099c6de617885e4423f7727f1243ad" target="_top" xlink:title="Fun4All_pi0tbt_SIMPLE\l_EMBED">
<polygon fill="none" stroke="#000000" points="164.5,-387.5 164.5,-419.5 293.5,-419.5 293.5,-387.5 164.5,-387.5"/>
<text text-anchor="start" x="172.5" y="-406.5" font-family="FreeSans" font-size="10.00" fill="#000000">Fun4All_pi0tbt_SIMPLE</text>
<text text-anchor="middle" x="229" y="-394.5" font-family="FreeSans" font-size="10.00" fill="#000000">_EMBED</text>
</a>
</g>
</g>
<!-- Node1&#45;&gt;Node13 -->
<g id="edge12" class="edge">
<title>Node1&#45;&gt;Node13</title>
<path fill="none" stroke="#191970" d="M98.7149,-435.981C119.0978,-430.8994 142.8977,-424.9659 164.5382,-419.5708"/>
<polygon fill="#191970" stroke="#191970" points="97.864,-432.586 89.0077,-438.4011 99.5574,-439.3781 97.864,-432.586"/>
</g>
<!-- Node14 -->
<g id="node14" class="node">
<title>Node14</title>
<g id="a_node14"><a xlink:href="../../df/d26/Fun4All__RunCorrelatorJetTree_8C.html#af21981d98733e01e231fd2d02752ea92" target="_top" xlink:title="Fun4All_RunCorrelatorJetTree">
<polygon fill="none" stroke="#000000" points="148,-348.5 148,-368.5 310,-368.5 310,-348.5 148,-348.5"/>
<text text-anchor="middle" x="229" y="-355.5" font-family="FreeSans" font-size="10.00" fill="#000000">Fun4All_RunCorrelatorJetTree</text>
</a>
</g>
</g>
<!-- Node1&#45;&gt;Node14 -->
<g id="edge13" class="edge">
<title>Node1&#45;&gt;Node14</title>
<path fill="none" stroke="#191970" d="M64.4662,-431.0927C80.288,-414.9399 106.0053,-391.4936 133,-378.5 141.5137,-374.402 150.848,-371.1409 160.2469,-368.5464"/>
<polygon fill="#191970" stroke="#191970" points="61.904,-428.708 57.5318,-438.3586 66.9679,-433.5409 61.904,-428.708"/>
</g>
<!-- Node15 -->
<g id="node15" class="node">
<title>Node15</title>
<g id="a_node15"><a xlink:href="../../d5/d09/Fun4All__RunCorrelatorQAModules_8C.html#aa53c85f634fe515c02a297536775b816" target="_top" xlink:title="Fun4All_RunCorrelatorQAModules">
<polygon fill="none" stroke="#000000" points="136,-309.5 136,-329.5 322,-329.5 322,-309.5 136,-309.5"/>
<text text-anchor="middle" x="229" y="-316.5" font-family="FreeSans" font-size="10.00" fill="#000000">Fun4All_RunCorrelatorQAModules</text>
</a>
</g>
</g>
<!-- Node1&#45;&gt;Node15 -->
<g id="edge14" class="edge">
<title>Node1&#45;&gt;Node15</title>
<path fill="none" stroke="#191970" d="M57.874,-429.2944C71.0538,-404.4363 97.4819,-361.6875 133,-339.5 139.4975,-335.4412 146.677,-332.1913 154.098,-329.5914"/>
<polygon fill="#191970" stroke="#191970" points="54.629,-427.9527 53.1916,-438.4496 60.8612,-431.1401 54.629,-427.9527"/>
</g>
<!-- Node16 -->
<g id="node16" class="node">
<title>Node16</title>
<g id="a_node16"><a xlink:href="../../d0/de8/Fun4All__RunNewTruthMatcher_8C.html#a4a1b7d09229a0c4ebff5f57fa34615a5" target="_top" xlink:title="Fun4All_RunNewTruthMatcher">
<polygon fill="none" stroke="#000000" points="145.5,-270.5 145.5,-290.5 312.5,-290.5 312.5,-270.5 145.5,-270.5"/>
<text text-anchor="middle" x="229" y="-277.5" font-family="FreeSans" font-size="10.00" fill="#000000">Fun4All_RunNewTruthMatcher</text>
</a>
</g>
</g>
<!-- Node1&#45;&gt;Node16 -->
<g id="edge15" class="edge">
<title>Node1&#45;&gt;Node16</title>
<path fill="none" stroke="#191970" d="M54.0186,-428.6018C64.0579,-396.3116 88.4957,-332.8605 133,-300.5 138.5077,-296.4952 144.638,-293.2536 151.0619,-290.6345"/>
<polygon fill="#191970" stroke="#191970" points="50.6398,-427.6858 51.1579,-438.2679 57.352,-429.6724 50.6398,-427.6858"/>
</g>
<!-- Node17 -->
<g id="node17" class="node">
<title>Node17</title>
<g id="a_node17"><a xlink:href="../../d1/d7f/Fun4All__SinglePhotonGen__sPHENIX_8C.html#aed8c3df444bcec04f4a1ae3425fd478e" target="_top" xlink:title="Fun4All_SinglePhotonGen\l_sPHENIX">
<polygon fill="none" stroke="#000000" points="156,-219.5 156,-251.5 302,-251.5 302,-219.5 156,-219.5"/>
<text text-anchor="start" x="164" y="-238.5" font-family="FreeSans" font-size="10.00" fill="#000000">Fun4All_SinglePhotonGen</text>
<text text-anchor="middle" x="229" y="-226.5" font-family="FreeSans" font-size="10.00" fill="#000000">_sPHENIX</text>
</a>
</g>
</g>
<!-- Node1&#45;&gt;Node17 -->
<g id="edge16" class="edge">
<title>Node1&#45;&gt;Node17</title>
<path fill="none" stroke="#191970" d="M51.8283,-428.1704C59.218,-389.6874 80.6653,-306.0696 133,-261.5 139.7044,-255.7903 147.5476,-251.3237 155.8098,-247.8315"/>
<polygon fill="#191970" stroke="#191970" points="48.3559,-427.7052 50.0347,-438.1662 55.2459,-428.9416 48.3559,-427.7052"/>
</g>
<!-- Node18 -->
<g id="node18" class="node">
<title>Node18</title>
<g id="a_node18"><a xlink:href="../../dd/d48/Fun4All__SinglePi0Gen__sPHENIX_8C.html#a14b8363c1cc76bfe38542658df7e6adb" target="_top" xlink:title="Fun4All_SinglePi0Gen\l_sPHENIX">
<polygon fill="none" stroke="#000000" points="166.5,-168.5 166.5,-200.5 291.5,-200.5 291.5,-168.5 166.5,-168.5"/>
<text text-anchor="start" x="174.5" y="-187.5" font-family="FreeSans" font-size="10.00" fill="#000000">Fun4All_SinglePi0Gen</text>
<text text-anchor="middle" x="229" y="-175.5" font-family="FreeSans" font-size="10.00" fill="#000000">_sPHENIX</text>
</a>
</g>
</g>
<!-- Node1&#45;&gt;Node18 -->
<g id="edge17" class="edge">
<title>Node1&#45;&gt;Node18</title>
<path fill="none" stroke="#191970" d="M49.5976,-428.2198C53.1991,-382.4004 68.4974,-270.2374 133,-210.5 142.2481,-201.9351 154.0281,-196.1407 166.1439,-192.2332"/>
<polygon fill="#191970" stroke="#191970" points="46.0941,-428.1536 48.9111,-438.3671 53.0782,-428.6262 46.0941,-428.1536"/>
</g>
<!-- Node19 -->
<g id="node19" class="node">
<title>Node19</title>
<g id="a_node19"><a xlink:href="../../d6/d36/Fun4All__TrkrClusteringSeeding_8C.html#adaac11646a7156e5e4c6906b6d2e38d8" target="_top" xlink:title="Fun4All_TrkrClusteringSeeding">
<polygon fill="none" stroke="#000000" points="144,-129.5 144,-149.5 314,-149.5 314,-129.5 144,-129.5"/>
<text text-anchor="middle" x="229" y="-136.5" font-family="FreeSans" font-size="10.00" fill="#000000">Fun4All_TrkrClusteringSeeding</text>
</a>
</g>
</g>
<!-- Node1&#45;&gt;Node19 -->
<g id="edge18" class="edge">
<title>Node1&#45;&gt;Node19</title>
<path fill="none" stroke="#191970" d="M51.6729,-428.2408C61.3826,-368.8342 92.5106,-196.9084 133,-159.5 137.2515,-155.572 142.0671,-152.3346 147.2219,-149.6736"/>
<polygon fill="#191970" stroke="#191970" points="48.194,-427.8304 50.0657,-438.2586 55.1057,-428.9394 48.194,-427.8304"/>
</g>
<!-- Node20 -->
<g id="node20" class="node">
<title>Node20</title>
<g id="a_node20"><a xlink:href="../../d2/db9/run__calo__fromMDC2Hits__towslope__Fun4All__G4__Calo_8C.html#a18928aae85200e0f8f721942ee3f7105" target="_top" xlink:title="run_calo_fromMDC2Hits\l_towslope_Fun4All_G4_Calo">
<polygon fill="none" stroke="#000000" points="150.5,-78.5 150.5,-110.5 307.5,-110.5 307.5,-78.5 150.5,-78.5"/>
<text text-anchor="start" x="158.5" y="-97.5" font-family="FreeSans" font-size="10.00" fill="#000000">run_calo_fromMDC2Hits</text>
<text text-anchor="middle" x="229" y="-85.5" font-family="FreeSans" font-size="10.00" fill="#000000">_towslope_Fun4All_G4_Calo</text>
</a>
</g>
</g>
<!-- Node1&#45;&gt;Node20 -->
<g id="edge19" class="edge">
<title>Node1&#45;&gt;Node20</title>
<path fill="none" stroke="#191970" d="M51.0457,-428.229C59.5341,-363.78 88.8524,-165.1962 133,-120.5 137.975,-115.4632 143.8188,-111.3729 150.1256,-108.055"/>
<polygon fill="#191970" stroke="#191970" points="47.5516,-427.9591 49.7433,-438.3248 54.4941,-428.8548 47.5516,-427.9591"/>
</g>
<!-- Node21 -->
<g id="node21" class="node">
<title>Node21</title>
<g id="a_node21"><a xlink:href="../../d0/dd8/rundst__spiNo_8C.html#aa9e63ae0240cdee3570896d7f2a9eec1" target="_top" xlink:title="rundst_spiNo">
<polygon fill="none" stroke="#000000" points="188,-39.5 188,-59.5 270,-59.5 270,-39.5 188,-39.5"/>
<text text-anchor="middle" x="229" y="-46.5" font-family="FreeSans" font-size="10.00" fill="#000000">rundst_spiNo</text>
</a>
</g>
</g>
<!-- Node1&#45;&gt;Node21 -->
<g id="edge20" class="edge">
<title>Node1&#45;&gt;Node21</title>
<path fill="none" stroke="#191970" d="M50.2076,-427.8256C56.5409,-356.2699 81.051,-120.7282 133,-69.5 147.3039,-55.3946 168.8179,-50.0433 187.8561,-48.3729"/>
<polygon fill="#191970" stroke="#191970" points="46.6859,-427.9285 49.3173,-438.1914 53.6603,-428.5276 46.6859,-427.9285"/>
</g>
<!-- Node22 -->
<g id="node22" class="node">
<title>Node22</title>
<g id="a_node22"><a xlink:href="../../d0/dea/spiNo2_8C.html#a1c45f2f5f270d0a364c1a4c630e77b24" target="_top" xlink:title="spiNo2">
<polygon fill="none" stroke="#000000" points="204,-.5 204,-20.5 254,-20.5 254,-.5 204,-.5"/>
<text text-anchor="middle" x="229" y="-7.5" font-family="FreeSans" font-size="10.00" fill="#000000">spiNo2</text>
</a>
</g>
</g>
<!-- Node1&#45;&gt;Node22 -->
<g id="edge21" class="edge">
<title>Node1&#45;&gt;Node22</title>
<path fill="none" stroke="#191970" d="M49.719,-428.1933C54.6838,-352.4658 75.9046,-87.935 133,-30.5 151.3637,-12.0271 182.0675,-8.4912 203.8018,-8.6364"/>
<polygon fill="#191970" stroke="#191970" points="46.2175,-428.1087 49.0803,-438.3094 53.2036,-428.5499 46.2175,-428.1087"/>
</g>
</g>
</svg>
