<?xml version="1.0" encoding="UTF-8" standalone="no"?>
<!DOCTYPE svg PUBLIC "-//W3C//DTD SVG 1.1//EN"
 "http://www.w3.org/Graphics/SVG/1.1/DTD/svg11.dtd">
<!-- Generated by graphviz version 2.40.1 (20161225.0304)
 -->
<!-- Title: PHHoughSeeding::fast_vertex_from_bbc Pages: 1 -->
<svg width="307pt" height="107pt"
 viewBox="0.00 0.00 307.00 107.00" xmlns="http://www.w3.org/2000/svg" xmlns:xlink="http://www.w3.org/1999/xlink">
<g id="graph0" class="graph" transform="scale(1 1) rotate(0) translate(4 103)">
<title>PHHoughSeeding::fast_vertex_from_bbc</title>
<!-- Node1 -->
<g id="node1" class="node">
<title>Node1</title>
<polygon fill="#bfbfbf" stroke="#000000" points="0,-33.5 0,-65.5 131,-65.5 131,-33.5 0,-33.5"/>
<text text-anchor="start" x="8" y="-52.5" font-family="FreeSans" font-size="10.00" fill="#000000">PHHoughSeeding::fast</text>
<text text-anchor="middle" x="65.5" y="-40.5" font-family="FreeSans" font-size="10.00" fill="#000000">_vertex_from_bbc</text>
</g>
<!-- Node2 -->
<g id="node2" class="node">
<title>Node2</title>
<g id="a_node2"><a xlink:href="../../dd/d5e/classBbcVertexMap.html#aa53096ea7fcec915e81f7f956384c81e" target="_top" xlink:title="BbcVertexMap::begin">
<polygon fill="none" stroke="#000000" points="171,-78.5 171,-98.5 295,-98.5 295,-78.5 171,-78.5"/>
<text text-anchor="middle" x="233" y="-85.5" font-family="FreeSans" font-size="10.00" fill="#000000">BbcVertexMap::begin</text>
</a>
</g>
</g>
<!-- Node1&#45;&gt;Node2 -->
<g id="edge1" class="edge">
<title>Node1&#45;&gt;Node2</title>
<path fill="none" stroke="#191970" d="M131.2197,-64.8019C147.309,-68.5481 164.3303,-72.5112 179.7531,-76.1022"/>
<polygon fill="#191970" stroke="#191970" points="179.0982,-79.5433 189.6314,-78.4022 180.6857,-72.7256 179.0982,-79.5433"/>
</g>
<!-- Node3 -->
<g id="node3" class="node">
<title>Node3</title>
<g id="a_node3"><a xlink:href="../../d1/dc1/classBbcVertex.html#a39e65e7e19645e478c8169328751d533" target="_top" xlink:title="BbcVertex::get_z">
<polygon fill="none" stroke="#000000" points="182.5,-39.5 182.5,-59.5 283.5,-59.5 283.5,-39.5 182.5,-39.5"/>
<text text-anchor="middle" x="233" y="-46.5" font-family="FreeSans" font-size="10.00" fill="#000000">BbcVertex::get_z</text>
</a>
</g>
</g>
<!-- Node1&#45;&gt;Node3 -->
<g id="edge2" class="edge">
<title>Node1&#45;&gt;Node3</title>
<path fill="none" stroke="#191970" d="M131.2197,-49.5C144.8043,-49.5 159.0533,-49.5 172.4437,-49.5"/>
<polygon fill="#191970" stroke="#191970" points="172.4907,-53.0001 182.4907,-49.5 172.4907,-46.0001 172.4907,-53.0001"/>
</g>
<!-- Node4 -->
<g id="node4" class="node">
<title>Node4</title>
<g id="a_node4"><a xlink:href="../../d5/dec/classFun4AllBase.html#a8a5c77a92bdac6bc043476e132379a40" target="_top" xlink:title="Gets the verbosity of this module.">
<polygon fill="none" stroke="#000000" points="167,-.5 167,-20.5 299,-20.5 299,-.5 167,-.5"/>
<text text-anchor="middle" x="233" y="-7.5" font-family="FreeSans" font-size="10.00" fill="#000000">Fun4AllBase::Verbosity</text>
</a>
</g>
</g>
<!-- Node1&#45;&gt;Node4 -->
<g id="edge3" class="edge">
<title>Node1&#45;&gt;Node4</title>
<path fill="none" stroke="#191970" d="M131.2197,-34.1981C147.309,-30.4519 164.3303,-26.4888 179.7531,-22.8978"/>
<polygon fill="#191970" stroke="#191970" points="180.6857,-26.2744 189.6314,-20.5978 179.0982,-19.4567 180.6857,-26.2744"/>
</g>
</g>
</svg>
