<?xml version="1.0" encoding="UTF-8" standalone="no"?>
<!DOCTYPE svg PUBLIC "-//W3C//DTD SVG 1.1//EN"
 "http://www.w3.org/Graphics/SVG/1.1/DTD/svg11.dtd">
<!-- Generated by graphviz version 2.40.1 (20161225.0304)
 -->
<!-- Title: acts/blob/sPHENIX/Core/include/Acts/EventData/TrackStatePropMask.hpp Pages: 1 -->
<svg width="402pt" height="179pt"
 viewBox="0.00 0.00 402.00 179.00" xmlns="http://www.w3.org/2000/svg" xmlns:xlink="http://www.w3.org/1999/xlink">
<g id="graph0" class="graph" transform="scale(1 1) rotate(0) translate(4 175)">
<title>acts/blob/sPHENIX/Core/include/Acts/EventData/TrackStatePropMask.hpp</title>
<!-- Node1 -->
<g id="node1" class="node">
<title>Node1</title>
<polygon fill="#bfbfbf" stroke="#000000" points="158.5,-126.5 158.5,-170.5 302.5,-170.5 302.5,-126.5 158.5,-126.5"/>
<text text-anchor="start" x="166.5" y="-157.5" font-family="FreeSans" font-size="10.00" fill="#000000">acts/blob/sPHENIX/Core</text>
<text text-anchor="start" x="166.5" y="-145.5" font-family="FreeSans" font-size="10.00" fill="#000000">/include/Acts/EventData</text>
<text text-anchor="middle" x="230.5" y="-133.5" font-family="FreeSans" font-size="10.00" fill="#000000">/TrackStatePropMask.hpp</text>
</g>
<!-- Node2 -->
<g id="node2" class="node">
<title>Node2</title>
<g id="a_node2"><a xlink:href="../../da/d48/EnumBitwiseOperators_8hpp.html" target="_top" xlink:title="Acts/Utilities/EnumBitwise\lOperators.hpp">
<polygon fill="none" stroke="#000000" points="0,-57.5 0,-89.5 149,-89.5 149,-57.5 0,-57.5"/>
<text text-anchor="start" x="8" y="-76.5" font-family="FreeSans" font-size="10.00" fill="#000000">Acts/Utilities/EnumBitwise</text>
<text text-anchor="middle" x="74.5" y="-64.5" font-family="FreeSans" font-size="10.00" fill="#000000">Operators.hpp</text>
</a>
</g>
</g>
<!-- Node1&#45;&gt;Node2 -->
<g id="edge1" class="edge">
<title>Node1&#45;&gt;Node2</title>
<path fill="none" stroke="#191970" d="M184.5386,-126.4032C163.3393,-116.2112 138.3183,-104.1819 117.4962,-94.1713"/>
<polygon fill="#191970" stroke="#191970" points="118.7827,-90.9063 108.2536,-89.7277 115.7496,-97.2151 118.7827,-90.9063"/>
</g>
<!-- Node3 -->
<g id="node3" class="node">
<title>Node3</title>
<polygon fill="none" stroke="#bfbfbf" points="90.5,-.5 90.5,-20.5 160.5,-20.5 160.5,-.5 90.5,-.5"/>
<text text-anchor="middle" x="125.5" y="-7.5" font-family="FreeSans" font-size="10.00" fill="#000000">type_traits</text>
</g>
<!-- Node1&#45;&gt;Node3 -->
<g id="edge6" class="edge">
<title>Node1&#45;&gt;Node3</title>
<path fill="none" stroke="#191970" d="M213.6299,-126.3279C192.991,-99.2024 158.4421,-53.7953 139.3075,-28.647"/>
<polygon fill="#191970" stroke="#191970" points="142.0709,-26.4987 133.2302,-20.6597 136.5001,-30.7374 142.0709,-26.4987"/>
</g>
<!-- Node4 -->
<g id="node4" class="node">
<title>Node4</title>
<polygon fill="none" stroke="#bfbfbf" points="205,-63.5 205,-83.5 256,-83.5 256,-63.5 205,-63.5"/>
<text text-anchor="middle" x="230.5" y="-70.5" font-family="FreeSans" font-size="10.00" fill="#000000">cstdint</text>
</g>
<!-- Node1&#45;&gt;Node4 -->
<g id="edge3" class="edge">
<title>Node1&#45;&gt;Node4</title>
<path fill="none" stroke="#191970" d="M230.5,-126.4032C230.5,-116.1059 230.5,-103.9331 230.5,-93.8616"/>
<polygon fill="#191970" stroke="#191970" points="234.0001,-93.5953 230.5,-83.5954 227.0001,-93.5954 234.0001,-93.5953"/>
</g>
<!-- Node5 -->
<g id="node5" class="node">
<title>Node5</title>
<polygon fill="none" stroke="#bfbfbf" points="274.5,-63.5 274.5,-83.5 318.5,-83.5 318.5,-63.5 274.5,-63.5"/>
<text text-anchor="middle" x="296.5" y="-70.5" font-family="FreeSans" font-size="10.00" fill="#000000">limits</text>
</g>
<!-- Node1&#45;&gt;Node5 -->
<g id="edge4" class="edge">
<title>Node1&#45;&gt;Node5</title>
<path fill="none" stroke="#191970" d="M249.9452,-126.4032C259.7863,-115.2201 271.5741,-101.8249 280.8257,-91.3117"/>
<polygon fill="#191970" stroke="#191970" points="283.6373,-93.4147 287.6161,-83.5954 278.3823,-88.7903 283.6373,-93.4147"/>
</g>
<!-- Node6 -->
<g id="node6" class="node">
<title>Node6</title>
<polygon fill="none" stroke="#bfbfbf" points="337,-63.5 337,-83.5 394,-83.5 394,-63.5 337,-63.5"/>
<text text-anchor="middle" x="365.5" y="-70.5" font-family="FreeSans" font-size="10.00" fill="#000000">ostream</text>
</g>
<!-- Node1&#45;&gt;Node6 -->
<g id="edge5" class="edge">
<title>Node1&#45;&gt;Node6</title>
<path fill="none" stroke="#191970" d="M270.2743,-126.4032C292.1976,-114.2236 318.8438,-99.4201 338.3678,-88.5734"/>
<polygon fill="#191970" stroke="#191970" points="340.2865,-91.5114 347.3284,-83.5954 336.887,-85.3923 340.2865,-91.5114"/>
</g>
<!-- Node2&#45;&gt;Node3 -->
<g id="edge2" class="edge">
<title>Node2&#45;&gt;Node3</title>
<path fill="none" stroke="#191970" d="M87.6338,-57.2759C94.7013,-48.5454 103.4412,-37.7492 110.7429,-28.7294"/>
<polygon fill="#191970" stroke="#191970" points="113.6297,-30.7259 117.2014,-20.7513 108.189,-26.3215 113.6297,-30.7259"/>
</g>
</g>
</svg>
