<?xml version="1.0" encoding="UTF-8" standalone="no"?>
<!DOCTYPE svg PUBLIC "-//W3C//DTD SVG 1.1//EN"
 "http://www.w3.org/Graphics/SVG/1.1/DTD/svg11.dtd">
<!-- Generated by graphviz version 2.40.1 (20161225.0304)
 -->
<!-- Title: JETSCAPE/blob/main/src/framework/Afterburner.h Pages: 1 -->
<svg width="3454pt" height="203pt"
 viewBox="0.00 0.00 3454.00 203.00" xmlns="http://www.w3.org/2000/svg" xmlns:xlink="http://www.w3.org/1999/xlink">
<g id="graph0" class="graph" transform="scale(1 1) rotate(0) translate(4 199)">
<title>JETSCAPE/blob/main/src/framework/Afterburner.h</title>
<!-- Node1 -->
<g id="node1" class="node">
<title>Node1</title>
<polygon fill="#bfbfbf" stroke="#000000" points="393,-162.5 393,-194.5 555,-194.5 555,-162.5 393,-162.5"/>
<text text-anchor="start" x="401" y="-181.5" font-family="FreeSans" font-size="10.00" fill="#000000">JETSCAPE/blob/main</text>
<text text-anchor="middle" x="474" y="-169.5" font-family="FreeSans" font-size="10.00" fill="#000000">/src/framework/Afterburner.h</text>
</g>
<!-- Node2 -->
<g id="node2" class="node">
<title>Node2</title>
<g id="a_node2"><a xlink:href="../../d6/dbc/SmashWrapper_8h.html" target="_top" xlink:title="JETSCAPE/blob/main\l/src/afterburner/SmashWrapper.h">
<polygon fill="none" stroke="#000000" points="184.5,-87.5 184.5,-119.5 369.5,-119.5 369.5,-87.5 184.5,-87.5"/>
<text text-anchor="start" x="192.5" y="-106.5" font-family="FreeSans" font-size="10.00" fill="#000000">JETSCAPE/blob/main</text>
<text text-anchor="middle" x="277" y="-94.5" font-family="FreeSans" font-size="10.00" fill="#000000">/src/afterburner/SmashWrapper.h</text>
</a>
</g>
</g>
<!-- Node1&#45;&gt;Node2 -->
<g id="edge1" class="edge">
<title>Node1&#45;&gt;Node2</title>
<path fill="none" stroke="#191970" d="M422.0726,-158.7307C389.9715,-146.5095 349.2978,-131.0245 319.1915,-119.5628"/>
<polygon fill="#191970" stroke="#191970" points="421.1476,-162.1235 431.7386,-162.4106 423.6382,-155.5816 421.1476,-162.1235"/>
</g>
<!-- Node5 -->
<g id="node5" class="node">
<title>Node5</title>
<g id="a_node5"><a xlink:href="../../d5/dcb/Afterburner_8cc.html" target="_top" xlink:title="JETSCAPE/blob/main\l/src/framework/Afterburner.cc">
<polygon fill="none" stroke="#000000" points="390.5,-6.5 390.5,-38.5 557.5,-38.5 557.5,-6.5 390.5,-6.5"/>
<text text-anchor="start" x="398.5" y="-25.5" font-family="FreeSans" font-size="10.00" fill="#000000">JETSCAPE/blob/main</text>
<text text-anchor="middle" x="474" y="-13.5" font-family="FreeSans" font-size="10.00" fill="#000000">/src/framework/Afterburner.cc</text>
</a>
</g>
</g>
<!-- Node1&#45;&gt;Node5 -->
<g id="edge4" class="edge">
<title>Node1&#45;&gt;Node5</title>
<path fill="none" stroke="#191970" d="M474,-152.308C474,-119.8997 474,-65.7093 474,-38.7533"/>
<polygon fill="#191970" stroke="#191970" points="470.5001,-152.3928 474,-162.3928 477.5001,-152.3929 470.5001,-152.3928"/>
</g>
<!-- Node6 -->
<g id="node6" class="node">
<title>Node6</title>
<g id="a_node6"><a xlink:href="../../da/d13/JetScapeSignalManager_8h.html" target="_top" xlink:title="JETSCAPE/blob/main\l/src/framework/JetScapeSignal\lManager.h">
<polygon fill="none" stroke="#000000" points="1765.5,-81.5 1765.5,-125.5 1936.5,-125.5 1936.5,-81.5 1765.5,-81.5"/>
<text text-anchor="start" x="1773.5" y="-112.5" font-family="FreeSans" font-size="10.00" fill="#000000">JETSCAPE/blob/main</text>
<text text-anchor="start" x="1773.5" y="-100.5" font-family="FreeSans" font-size="10.00" fill="#000000">/src/framework/JetScapeSignal</text>
<text text-anchor="middle" x="1851" y="-88.5" font-family="FreeSans" font-size="10.00" fill="#000000">Manager.h</text>
</a>
</g>
</g>
<!-- Node1&#45;&gt;Node6 -->
<g id="edge5" class="edge">
<title>Node1&#45;&gt;Node6</title>
<path fill="none" stroke="#191970" d="M565.4746,-173.5177C817.6415,-159.7831 1520.2446,-121.515 1765.3372,-108.1657"/>
<polygon fill="#191970" stroke="#191970" points="565.0453,-170.0358 555.2505,-174.0746 565.4261,-177.0255 565.0453,-170.0358"/>
</g>
<!-- Node3 -->
<g id="node3" class="node">
<title>Node3</title>
<g id="a_node3"><a xlink:href="../../da/d51/SMASHTest_8cc.html" target="_top" xlink:title="JETSCAPE/blob/main\l/examples/custom_examples\l/SMASHTest.cc">
<polygon fill="none" stroke="#000000" points="0,-.5 0,-44.5 164,-44.5 164,-.5 0,-.5"/>
<text text-anchor="start" x="8" y="-31.5" font-family="FreeSans" font-size="10.00" fill="#000000">JETSCAPE/blob/main</text>
<text text-anchor="start" x="8" y="-19.5" font-family="FreeSans" font-size="10.00" fill="#000000">/examples/custom_examples</text>
<text text-anchor="middle" x="82" y="-7.5" font-family="FreeSans" font-size="10.00" fill="#000000">/SMASHTest.cc</text>
</a>
</g>
</g>
<!-- Node2&#45;&gt;Node3 -->
<g id="edge2" class="edge">
<title>Node2&#45;&gt;Node3</title>
<path fill="none" stroke="#191970" d="M229.1419,-83.6205C200.6921,-71.8029 164.5517,-56.7907 135.2081,-44.6018"/>
<polygon fill="#191970" stroke="#191970" points="227.8967,-86.8931 238.4743,-87.497 230.5819,-80.4286 227.8967,-86.8931"/>
</g>
<!-- Node4 -->
<g id="node4" class="node">
<title>Node4</title>
<g id="a_node4"><a xlink:href="../../d8/d57/SmashWrapper_8cc.html" target="_top" xlink:title="JETSCAPE/blob/main\l/src/afterburner/SmashWrapper.cc">
<polygon fill="none" stroke="#000000" points="182,-6.5 182,-38.5 372,-38.5 372,-6.5 182,-6.5"/>
<text text-anchor="start" x="190" y="-25.5" font-family="FreeSans" font-size="10.00" fill="#000000">JETSCAPE/blob/main</text>
<text text-anchor="middle" x="277" y="-13.5" font-family="FreeSans" font-size="10.00" fill="#000000">/src/afterburner/SmashWrapper.cc</text>
</a>
</g>
</g>
<!-- Node2&#45;&gt;Node4 -->
<g id="edge3" class="edge">
<title>Node2&#45;&gt;Node4</title>
<path fill="none" stroke="#191970" d="M277,-77.4588C277,-64.7376 277,-49.8258 277,-38.747"/>
<polygon fill="#191970" stroke="#191970" points="273.5001,-77.497 277,-87.497 280.5001,-77.497 273.5001,-77.497"/>
</g>
<!-- Node6&#45;&gt;Node5 -->
<g id="edge8" class="edge">
<title>Node6&#45;&gt;Node5</title>
<path fill="none" stroke="#191970" d="M1755.262,-101.5193C1498.1032,-95.8187 796.3158,-77.6552 567,-45 555.8169,-43.4075 544.0131,-41.0735 532.7073,-38.5043"/>
<polygon fill="#191970" stroke="#191970" points="1755.2537,-105.0199 1765.3284,-101.7412 1755.408,-98.0216 1755.2537,-105.0199"/>
</g>
<!-- Node7 -->
<g id="node7" class="node">
<title>Node7</title>
<g id="a_node7"><a xlink:href="../../dd/d0d/coresoftware_2blob_2master_2generators_2JETSCAPE_2testJetScape_8cc.html" target="_top" xlink:title="coresoftware/blob/master\l/generators/JETSCAPE/testJetScape.cc">
<polygon fill="none" stroke="#000000" points="576,-6.5 576,-38.5 784,-38.5 784,-6.5 576,-6.5"/>
<text text-anchor="start" x="584" y="-25.5" font-family="FreeSans" font-size="10.00" fill="#000000">coresoftware/blob/master</text>
<text text-anchor="middle" x="680" y="-13.5" font-family="FreeSans" font-size="10.00" fill="#000000">/generators/JETSCAPE/testJetScape.cc</text>
</a>
</g>
</g>
<!-- Node6&#45;&gt;Node7 -->
<g id="edge6" class="edge">
<title>Node6&#45;&gt;Node7</title>
<path fill="none" stroke="#191970" d="M1755.1262,-99.9374C1530.9524,-91.3256 977.5734,-68.3596 793,-45 779.9024,-43.3424 766.0474,-41.0439 752.6962,-38.5453"/>
<polygon fill="#191970" stroke="#191970" points="1755.0999,-103.4389 1765.2266,-100.3243 1755.3679,-96.444 1755.0999,-103.4389"/>
</g>
<!-- Node8 -->
<g id="node8" class="node">
<title>Node8</title>
<g id="a_node8"><a xlink:href="../../d7/df2/JETSCAPE_2blob_2main_2examples_2custom__examples_2testJetScape_8cc.html" target="_top" xlink:title="JETSCAPE/blob/main\l/examples/custom_examples\l/testJetScape.cc">
<polygon fill="none" stroke="#000000" points="802,-.5 802,-44.5 966,-44.5 966,-.5 802,-.5"/>
<text text-anchor="start" x="810" y="-31.5" font-family="FreeSans" font-size="10.00" fill="#000000">JETSCAPE/blob/main</text>
<text text-anchor="start" x="810" y="-19.5" font-family="FreeSans" font-size="10.00" fill="#000000">/examples/custom_examples</text>
<text text-anchor="middle" x="884" y="-7.5" font-family="FreeSans" font-size="10.00" fill="#000000">/testJetScape.cc</text>
</a>
</g>
</g>
<!-- Node6&#45;&gt;Node8 -->
<g id="edge7" class="edge">
<title>Node6&#45;&gt;Node8</title>
<path fill="none" stroke="#191970" d="M1754.9662,-99.2219C1559.8318,-90.1782 1122.9583,-68.0487 975,-45 972.1055,-44.5491 969.1682,-44.0504 966.2083,-43.5128"/>
<polygon fill="#191970" stroke="#191970" points="1755.0545,-102.7296 1765.2054,-99.6947 1755.3775,-95.7371 1755.0545,-102.7296"/>
</g>
<!-- Node9 -->
<g id="node9" class="node">
<title>Node9</title>
<g id="a_node9"><a xlink:href="../../db/da9/FluidDynamics_8cc.html" target="_top" xlink:title="JETSCAPE/blob/main\l/src/framework/FluidDynamics.cc">
<polygon fill="none" stroke="#000000" points="984,-6.5 984,-38.5 1168,-38.5 1168,-6.5 984,-6.5"/>
<text text-anchor="start" x="992" y="-25.5" font-family="FreeSans" font-size="10.00" fill="#000000">JETSCAPE/blob/main</text>
<text text-anchor="middle" x="1076" y="-13.5" font-family="FreeSans" font-size="10.00" fill="#000000">/src/framework/FluidDynamics.cc</text>
</a>
</g>
</g>
<!-- Node6&#45;&gt;Node9 -->
<g id="edge9" class="edge">
<title>Node6&#45;&gt;Node9</title>
<path fill="none" stroke="#191970" d="M1755.4354,-99.2019C1624.3743,-92.3989 1381.7768,-76.5537 1177,-45 1165.6368,-43.2491 1153.6427,-40.9673 1142.0433,-38.5297"/>
<polygon fill="#191970" stroke="#191970" points="1755.2827,-102.6985 1765.4489,-99.7153 1755.6412,-95.7077 1755.2827,-102.6985"/>
</g>
<!-- Node10 -->
<g id="node10" class="node">
<title>Node10</title>
<g id="a_node10"><a xlink:href="../../d0/d34/Hadronization_8cc.html" target="_top" xlink:title="JETSCAPE/blob/main\l/src/framework/Hadronization.cc">
<polygon fill="none" stroke="#000000" points="1186.5,-6.5 1186.5,-38.5 1367.5,-38.5 1367.5,-6.5 1186.5,-6.5"/>
<text text-anchor="start" x="1194.5" y="-25.5" font-family="FreeSans" font-size="10.00" fill="#000000">JETSCAPE/blob/main</text>
<text text-anchor="middle" x="1277" y="-13.5" font-family="FreeSans" font-size="10.00" fill="#000000">/src/framework/Hadronization.cc</text>
</a>
</g>
</g>
<!-- Node6&#45;&gt;Node10 -->
<g id="edge10" class="edge">
<title>Node6&#45;&gt;Node10</title>
<path fill="none" stroke="#191970" d="M1755.4477,-94.5C1659.4276,-84.8011 1507.3815,-67.6569 1377,-45 1366.3052,-43.1415 1355.0294,-40.8912 1344.0566,-38.5414"/>
<polygon fill="#191970" stroke="#191970" points="1755.1285,-97.9855 1765.4281,-95.5017 1755.8276,-91.0204 1755.1285,-97.9855"/>
</g>
<!-- Node11 -->
<g id="node11" class="node">
<title>Node11</title>
<g id="a_node11"><a xlink:href="../../d7/d4f/HadronizationManager_8cc.html" target="_top" xlink:title="JETSCAPE/blob/main\l/src/framework/Hadronization\lManager.cc">
<polygon fill="none" stroke="#000000" points="1386,-.5 1386,-44.5 1552,-44.5 1552,-.5 1386,-.5"/>
<text text-anchor="start" x="1394" y="-31.5" font-family="FreeSans" font-size="10.00" fill="#000000">JETSCAPE/blob/main</text>
<text text-anchor="start" x="1394" y="-19.5" font-family="FreeSans" font-size="10.00" fill="#000000">/src/framework/Hadronization</text>
<text text-anchor="middle" x="1469" y="-7.5" font-family="FreeSans" font-size="10.00" fill="#000000">Manager.cc</text>
</a>
</g>
</g>
<!-- Node6&#45;&gt;Node11 -->
<g id="edge11" class="edge">
<title>Node6&#45;&gt;Node11</title>
<path fill="none" stroke="#191970" d="M1755.4505,-85.2434C1698.8041,-74.1665 1625.6693,-59.4243 1561,-45 1558.1113,-44.3557 1555.1739,-43.6907 1552.2091,-43.0112"/>
<polygon fill="#191970" stroke="#191970" points="1754.9849,-88.7185 1765.4701,-87.1981 1756.3253,-81.848 1754.9849,-88.7185"/>
</g>
<!-- Node12 -->
<g id="node12" class="node">
<title>Node12</title>
<g id="a_node12"><a xlink:href="../../d1/d45/HardProcess_8cc.html" target="_top" xlink:title="JETSCAPE/blob/main\l/src/framework/HardProcess.cc">
<polygon fill="none" stroke="#000000" points="1570,-6.5 1570,-38.5 1742,-38.5 1742,-6.5 1570,-6.5"/>
<text text-anchor="start" x="1578" y="-25.5" font-family="FreeSans" font-size="10.00" fill="#000000">JETSCAPE/blob/main</text>
<text text-anchor="middle" x="1656" y="-13.5" font-family="FreeSans" font-size="10.00" fill="#000000">/src/framework/HardProcess.cc</text>
</a>
</g>
</g>
<!-- Node6&#45;&gt;Node12 -->
<g id="edge12" class="edge">
<title>Node6&#45;&gt;Node12</title>
<path fill="none" stroke="#191970" d="M1788.6,-77.58C1757.7869,-64.7807 1721.5762,-49.7393 1694.7876,-38.6118"/>
<polygon fill="#191970" stroke="#191970" points="1787.3953,-80.8695 1797.973,-81.4734 1790.0806,-74.405 1787.3953,-80.8695"/>
</g>
<!-- Node13 -->
<g id="node13" class="node">
<title>Node13</title>
<g id="a_node13"><a xlink:href="../../d2/d3b/JetEnergyLoss_8cc.html" target="_top" xlink:title="JETSCAPE/blob/main\l/src/framework/JetEnergyLoss.cc">
<polygon fill="none" stroke="#000000" points="1760.5,-6.5 1760.5,-38.5 1941.5,-38.5 1941.5,-6.5 1760.5,-6.5"/>
<text text-anchor="start" x="1768.5" y="-25.5" font-family="FreeSans" font-size="10.00" fill="#000000">JETSCAPE/blob/main</text>
<text text-anchor="middle" x="1851" y="-13.5" font-family="FreeSans" font-size="10.00" fill="#000000">/src/framework/JetEnergyLoss.cc</text>
</a>
</g>
</g>
<!-- Node6&#45;&gt;Node13 -->
<g id="edge13" class="edge">
<title>Node6&#45;&gt;Node13</title>
<path fill="none" stroke="#191970" d="M1851,-71.0737C1851,-59.9468 1851,-47.9724 1851,-38.6969"/>
<polygon fill="#191970" stroke="#191970" points="1847.5001,-71.3664 1851,-81.3664 1854.5001,-71.3664 1847.5001,-71.3664"/>
</g>
<!-- Node14 -->
<g id="node14" class="node">
<title>Node14</title>
<g id="a_node14"><a xlink:href="../../d6/d89/JetEnergyLossManager_8cc.html" target="_top" xlink:title="JETSCAPE/blob/main\l/src/framework/JetEnergyLoss\lManager.cc">
<polygon fill="none" stroke="#000000" points="1959.5,-.5 1959.5,-44.5 2126.5,-44.5 2126.5,-.5 1959.5,-.5"/>
<text text-anchor="start" x="1967.5" y="-31.5" font-family="FreeSans" font-size="10.00" fill="#000000">JETSCAPE/blob/main</text>
<text text-anchor="start" x="1967.5" y="-19.5" font-family="FreeSans" font-size="10.00" fill="#000000">/src/framework/JetEnergyLoss</text>
<text text-anchor="middle" x="2043" y="-7.5" font-family="FreeSans" font-size="10.00" fill="#000000">Manager.cc</text>
</a>
</g>
</g>
<!-- Node6&#45;&gt;Node14 -->
<g id="edge14" class="edge">
<title>Node6&#45;&gt;Node14</title>
<path fill="none" stroke="#191970" d="M1912.6695,-77.4832C1937.8574,-66.8571 1966.6764,-54.699 1990.7992,-44.5222"/>
<polygon fill="#191970" stroke="#191970" points="1911.0644,-74.3615 1903.2112,-81.4734 1913.7854,-80.8111 1911.0644,-74.3615"/>
</g>
<!-- Node15 -->
<g id="node15" class="node">
<title>Node15</title>
<g id="a_node15"><a xlink:href="../../d3/d30/JetScape_8cc.html" target="_top" xlink:title="JETSCAPE/blob/main\l/src/framework/JetScape.cc">
<polygon fill="none" stroke="#000000" points="2145,-6.5 2145,-38.5 2299,-38.5 2299,-6.5 2145,-6.5"/>
<text text-anchor="start" x="2153" y="-25.5" font-family="FreeSans" font-size="10.00" fill="#000000">JETSCAPE/blob/main</text>
<text text-anchor="middle" x="2222" y="-13.5" font-family="FreeSans" font-size="10.00" fill="#000000">/src/framework/JetScape.cc</text>
</a>
</g>
</g>
<!-- Node6&#45;&gt;Node15 -->
<g id="edge15" class="edge">
<title>Node6&#45;&gt;Node15</title>
<path fill="none" stroke="#191970" d="M1946.505,-85.2207C2001.9812,-74.2725 2073.1226,-59.6674 2136,-45 2144.5669,-43.0016 2153.5823,-40.7777 2162.4219,-38.5277"/>
<polygon fill="#191970" stroke="#191970" points="1945.8231,-81.7877 1936.6869,-87.1524 1947.1745,-88.656 1945.8231,-81.7877"/>
</g>
<!-- Node16 -->
<g id="node16" class="node">
<title>Node16</title>
<g id="a_node16"><a xlink:href="../../dc/d05/JetScapeSignalManager_8cc.html" target="_top" xlink:title="JETSCAPE/blob/main\l/src/framework/JetScapeSignal\lManager.cc">
<polygon fill="none" stroke="#000000" points="2317.5,-.5 2317.5,-44.5 2488.5,-44.5 2488.5,-.5 2317.5,-.5"/>
<text text-anchor="start" x="2325.5" y="-31.5" font-family="FreeSans" font-size="10.00" fill="#000000">JETSCAPE/blob/main</text>
<text text-anchor="start" x="2325.5" y="-19.5" font-family="FreeSans" font-size="10.00" fill="#000000">/src/framework/JetScapeSignal</text>
<text text-anchor="middle" x="2403" y="-7.5" font-family="FreeSans" font-size="10.00" fill="#000000">Manager.cc</text>
</a>
</g>
</g>
<!-- Node6&#45;&gt;Node16 -->
<g id="edge16" class="edge">
<title>Node6&#45;&gt;Node16</title>
<path fill="none" stroke="#191970" d="M1947.1194,-94.1689C2039.9112,-84.4612 2184.1704,-67.5251 2308,-45 2311.085,-44.4388 2314.2202,-43.8413 2317.3824,-43.2155"/>
<polygon fill="#191970" stroke="#191970" points="1946.4894,-90.7154 1936.9047,-95.2301 1947.2128,-97.678 1946.4894,-90.7154"/>
</g>
<!-- Node17 -->
<g id="node17" class="node">
<title>Node17</title>
<g id="a_node17"><a xlink:href="../../d4/d32/JetScapeWriterHepMC_8cc.html" target="_top" xlink:title="JETSCAPE/blob/main\l/src/framework/JetScapeWriter\lHepMC.cc">
<polygon fill="none" stroke="#000000" points="2506.5,-.5 2506.5,-44.5 2677.5,-44.5 2677.5,-.5 2506.5,-.5"/>
<text text-anchor="start" x="2514.5" y="-31.5" font-family="FreeSans" font-size="10.00" fill="#000000">JETSCAPE/blob/main</text>
<text text-anchor="start" x="2514.5" y="-19.5" font-family="FreeSans" font-size="10.00" fill="#000000">/src/framework/JetScapeWriter</text>
<text text-anchor="middle" x="2592" y="-7.5" font-family="FreeSans" font-size="10.00" fill="#000000">HepMC.cc</text>
</a>
</g>
</g>
<!-- Node6&#45;&gt;Node17 -->
<g id="edge17" class="edge">
<title>Node6&#45;&gt;Node17</title>
<path fill="none" stroke="#191970" d="M1946.6034,-99.1894C2073.3384,-92.4878 2303.6236,-76.8785 2498,-45 2500.7323,-44.5519 2503.5028,-44.0681 2506.2954,-43.555"/>
<polygon fill="#191970" stroke="#191970" points="1946.3417,-95.6982 1936.5376,-99.7144 1946.7063,-102.6887 1946.3417,-95.6982"/>
</g>
<!-- Node18 -->
<g id="node18" class="node">
<title>Node18</title>
<g id="a_node18"><a xlink:href="../../d3/dcf/PreequilibriumDynamics_8cc.html" target="_top" xlink:title="JETSCAPE/blob/main\l/src/framework/Preequilibrium\lDynamics.cc">
<polygon fill="none" stroke="#000000" points="2695.5,-.5 2695.5,-44.5 2864.5,-44.5 2864.5,-.5 2695.5,-.5"/>
<text text-anchor="start" x="2703.5" y="-31.5" font-family="FreeSans" font-size="10.00" fill="#000000">JETSCAPE/blob/main</text>
<text text-anchor="start" x="2703.5" y="-19.5" font-family="FreeSans" font-size="10.00" fill="#000000">/src/framework/Preequilibrium</text>
<text text-anchor="middle" x="2780" y="-7.5" font-family="FreeSans" font-size="10.00" fill="#000000">Dynamics.cc</text>
</a>
</g>
</g>
<!-- Node6&#45;&gt;Node18 -->
<g id="edge18" class="edge">
<title>Node6&#45;&gt;Node18</title>
<path fill="none" stroke="#191970" d="M1946.7086,-102.0042C2102.6581,-98.4041 2420.9174,-86.1997 2687,-45 2689.7907,-44.5679 2692.6209,-44.0939 2695.473,-43.5856"/>
<polygon fill="#191970" stroke="#191970" points="1946.5925,-98.5059 1936.6735,-102.2291 1946.7494,-105.5041 1946.5925,-98.5059"/>
</g>
<!-- Node19 -->
<g id="node19" class="node">
<title>Node19</title>
<g id="a_node19"><a xlink:href="../../d4/d49/HybridHadronization_8cc.html" target="_top" xlink:title="JETSCAPE/blob/main\l/src/hadronization/HybridHadronization.cc">
<polygon fill="none" stroke="#000000" points="2882,-6.5 2882,-38.5 3112,-38.5 3112,-6.5 2882,-6.5"/>
<text text-anchor="start" x="2890" y="-25.5" font-family="FreeSans" font-size="10.00" fill="#000000">JETSCAPE/blob/main</text>
<text text-anchor="middle" x="2997" y="-13.5" font-family="FreeSans" font-size="10.00" fill="#000000">/src/hadronization/HybridHadronization.cc</text>
</a>
</g>
</g>
<!-- Node6&#45;&gt;Node19 -->
<g id="edge19" class="edge">
<title>Node6&#45;&gt;Node19</title>
<path fill="none" stroke="#191970" d="M1946.5727,-101.9781C2127.9749,-98.2167 2534.4345,-85.6086 2874,-45 2888.1185,-43.3116 2903.0643,-41.0142 2917.4899,-38.53"/>
<polygon fill="#191970" stroke="#191970" points="1946.4544,-98.4797 1936.5275,-102.1821 1946.5966,-105.4783 1946.4544,-98.4797"/>
</g>
<!-- Node20 -->
<g id="node20" class="node">
<title>Node20</title>
<g id="a_node20"><a xlink:href="../../d6/dd1/HadronPrinter_8cc.html" target="_top" xlink:title="JETSCAPE/blob/main\l/src/jet/HadronPrinter.cc">
<polygon fill="none" stroke="#000000" points="3130,-6.5 3130,-38.5 3268,-38.5 3268,-6.5 3130,-6.5"/>
<text text-anchor="start" x="3138" y="-25.5" font-family="FreeSans" font-size="10.00" fill="#000000">JETSCAPE/blob/main</text>
<text text-anchor="middle" x="3199" y="-13.5" font-family="FreeSans" font-size="10.00" fill="#000000">/src/jet/HadronPrinter.cc</text>
</a>
</g>
</g>
<!-- Node6&#45;&gt;Node20 -->
<g id="edge20" class="edge">
<title>Node6&#45;&gt;Node20</title>
<path fill="none" stroke="#191970" d="M1947.0643,-101.9925C2202.6724,-97.515 2895.3245,-82.215 3121,-45 3130.4561,-43.4406 3140.392,-41.1222 3149.8857,-38.5579"/>
<polygon fill="#191970" stroke="#191970" points="1946.6271,-98.4994 1936.6894,-102.1724 1946.7486,-105.4984 1946.6271,-98.4994"/>
</g>
<!-- Node21 -->
<g id="node21" class="node">
<title>Node21</title>
<g id="a_node21"><a xlink:href="../../d0/d5d/JetScapeWriterRootHepMC_8cc.html" target="_top" xlink:title="JETSCAPE/blob/main\l/src/root/JetScapeWriterRoot\lHepMC.cc">
<polygon fill="none" stroke="#000000" points="3286,-.5 3286,-44.5 3446,-44.5 3446,-.5 3286,-.5"/>
<text text-anchor="start" x="3294" y="-31.5" font-family="FreeSans" font-size="10.00" fill="#000000">JETSCAPE/blob/main</text>
<text text-anchor="start" x="3294" y="-19.5" font-family="FreeSans" font-size="10.00" fill="#000000">/src/root/JetScapeWriterRoot</text>
<text text-anchor="middle" x="3366" y="-7.5" font-family="FreeSans" font-size="10.00" fill="#000000">HepMC.cc</text>
</a>
</g>
</g>
<!-- Node6&#45;&gt;Node21 -->
<g id="edge21" class="edge">
<title>Node6&#45;&gt;Node21</title>
<path fill="none" stroke="#191970" d="M1946.5493,-102.1534C2222.8082,-97.8518 3019.1989,-82.4639 3277,-45 3279.8389,-44.5874 3282.7186,-44.1217 3285.6194,-43.6122"/>
<polygon fill="#191970" stroke="#191970" points="1946.4924,-98.6538 1936.5476,-102.3079 1946.6005,-105.653 1946.4924,-98.6538"/>
</g>
</g>
</svg>
