<?xml version="1.0" encoding="UTF-8" standalone="no"?>
<!DOCTYPE svg PUBLIC "-//W3C//DTD SVG 1.1//EN"
 "http://www.w3.org/Graphics/SVG/1.1/DTD/svg11.dtd">
<!-- Generated by graphviz version 2.40.1 (20161225.0304)
 -->
<!-- Title: TPCDataStreamEmulator::process_event Pages: 1 -->
<svg width="1673pt" height="941pt"
 viewBox="0.00 0.00 1673.00 941.00" xmlns="http://www.w3.org/2000/svg" xmlns:xlink="http://www.w3.org/1999/xlink">
<g id="graph0" class="graph" transform="scale(1 1) rotate(0) translate(4 937)">
<title>TPCDataStreamEmulator::process_event</title>
<!-- Node1 -->
<g id="node1" class="node">
<title>Node1</title>
<polygon fill="#bfbfbf" stroke="#000000" points="0,-456.5 0,-488.5 143,-488.5 143,-456.5 0,-456.5"/>
<text text-anchor="start" x="8" y="-475.5" font-family="FreeSans" font-size="10.00" fill="#000000">TPCDataStreamEmulator</text>
<text text-anchor="middle" x="71.5" y="-463.5" font-family="FreeSans" font-size="10.00" fill="#000000">::process_event</text>
</g>
<!-- Node2 -->
<g id="node2" class="node">
<title>Node2</title>
<g id="a_node2"><a xlink:href="../../d4/d97/classPHG4CellContainer.html#a1acc5c6b37ed888d3e768bb4de5bf3d2" target="_top" xlink:title="PHG4CellContainer::\lfindCell">
<polygon fill="none" stroke="#000000" points="212.5,-900.5 212.5,-932.5 330.5,-932.5 330.5,-900.5 212.5,-900.5"/>
<text text-anchor="start" x="220.5" y="-919.5" font-family="FreeSans" font-size="10.00" fill="#000000">PHG4CellContainer::</text>
<text text-anchor="middle" x="271.5" y="-907.5" font-family="FreeSans" font-size="10.00" fill="#000000">findCell</text>
</a>
</g>
</g>
<!-- Node1&#45;&gt;Node2 -->
<g id="edge1" class="edge">
<title>Node1&#45;&gt;Node2</title>
<path fill="none" stroke="#191970" d="M73.4657,-488.6218C82.2616,-558.1984 120.1708,-831.9119 179,-891.5 185.6088,-898.194 193.8111,-903.1506 202.5806,-906.8106"/>
<polygon fill="#191970" stroke="#191970" points="201.6759,-910.2047 212.2704,-910.2942 204.0441,-903.6174 201.6759,-910.2047"/>
</g>
<!-- Node3 -->
<g id="node3" class="node">
<title>Node3</title>
<g id="a_node3"><a xlink:href="../../dc/dfe/classPHG4Cell.html#af03de1745657c41817236e5d1124aae5" target="_top" xlink:title="PHG4Cell::get_cellid">
<polygon fill="none" stroke="#000000" points="212.5,-861.5 212.5,-881.5 330.5,-881.5 330.5,-861.5 212.5,-861.5"/>
<text text-anchor="middle" x="271.5" y="-868.5" font-family="FreeSans" font-size="10.00" fill="#000000">PHG4Cell::get_cellid</text>
</a>
</g>
</g>
<!-- Node1&#45;&gt;Node3 -->
<g id="edge2" class="edge">
<title>Node1&#45;&gt;Node3</title>
<path fill="none" stroke="#191970" d="M73.8006,-488.5277C83.5314,-554.0873 123.382,-800.8062 179,-852.5 185.7022,-858.7293 193.8787,-863.1455 202.568,-866.2431"/>
<polygon fill="#191970" stroke="#191970" points="201.5691,-869.5975 212.1527,-869.1102 203.5752,-862.8911 201.5691,-869.5975"/>
</g>
<!-- Node4 -->
<g id="node4" class="node">
<title>Node4</title>
<g id="a_node4"><a xlink:href="../../d6/d84/namespacePHG4CellDefs_1_1SizeBinning.html#a722c36ec35c9e162ddc37f9647973a03" target="_top" xlink:title="PHG4CellDefs::SizeBinning\l::get_phibin">
<polygon fill="none" stroke="#000000" points="195.5,-321.5 195.5,-353.5 347.5,-353.5 347.5,-321.5 195.5,-321.5"/>
<text text-anchor="start" x="203.5" y="-340.5" font-family="FreeSans" font-size="10.00" fill="#000000">PHG4CellDefs::SizeBinning</text>
<text text-anchor="middle" x="271.5" y="-328.5" font-family="FreeSans" font-size="10.00" fill="#000000">::get_phibin</text>
</a>
</g>
</g>
<!-- Node1&#45;&gt;Node4 -->
<g id="edge3" class="edge">
<title>Node1&#45;&gt;Node4</title>
<path fill="none" stroke="#191970" d="M84.0452,-456.4857C102.5477,-433.8688 139.2787,-392.6413 179,-368.5 185.8941,-364.31 193.4251,-360.606 201.1173,-357.3522"/>
<polygon fill="#191970" stroke="#191970" points="202.5477,-360.55 210.548,-353.6041 199.9623,-354.0449 202.5477,-360.55"/>
</g>
<!-- Node7 -->
<g id="node7" class="node">
<title>Node7</title>
<g id="a_node7"><a xlink:href="../../d9/d85/classPHG4CylinderCellGeom.html#a4999cf2fcefaae861e8ddc7c489af731" target="_top" xlink:title="PHG4CylinderCellGeom\l::get_phibins">
<polygon fill="none" stroke="#000000" points="204,-810.5 204,-842.5 339,-842.5 339,-810.5 204,-810.5"/>
<text text-anchor="start" x="212" y="-829.5" font-family="FreeSans" font-size="10.00" fill="#000000">PHG4CylinderCellGeom</text>
<text text-anchor="middle" x="271.5" y="-817.5" font-family="FreeSans" font-size="10.00" fill="#000000">::get_phibins</text>
</a>
</g>
</g>
<!-- Node1&#45;&gt;Node7 -->
<g id="edge6" class="edge">
<title>Node1&#45;&gt;Node7</title>
<path fill="none" stroke="#191970" d="M74.6796,-488.7007C86.7398,-548.5846 131.3921,-756.2986 179,-801.5 183.5918,-805.8597 188.863,-809.4756 194.51,-812.4726"/>
<polygon fill="#191970" stroke="#191970" points="193.1034,-815.6781 203.6497,-816.6905 196.0366,-809.3223 193.1034,-815.6781"/>
</g>
<!-- Node10 -->
<g id="node10" class="node">
<title>Node10</title>
<g id="a_node10"><a xlink:href="../../de/dc9/classPHG4Particle.html#a474033dbd058eea155c71fc4d17aaf4d" target="_top" xlink:title="PHG4Particle::get_pid">
<polygon fill="none" stroke="#000000" points="209,-720.5 209,-740.5 334,-740.5 334,-720.5 209,-720.5"/>
<text text-anchor="middle" x="271.5" y="-727.5" font-family="FreeSans" font-size="10.00" fill="#000000">PHG4Particle::get_pid</text>
</a>
</g>
</g>
<!-- Node1&#45;&gt;Node10 -->
<g id="edge9" class="edge">
<title>Node1&#45;&gt;Node10</title>
<path fill="none" stroke="#191970" d="M73.6793,-488.6294C80.455,-532.1171 105.3169,-652.4797 179,-711.5 184.8939,-716.2211 191.6616,-719.8583 198.7977,-722.649"/>
<polygon fill="#191970" stroke="#191970" points="198.1161,-726.111 208.7098,-725.9519 200.3291,-719.47 198.1161,-726.111"/>
</g>
<!-- Node11 -->
<g id="node11" class="node">
<title>Node11</title>
<g id="a_node11"><a xlink:href="../../de/dc9/classPHG4Particle.html#a44b98bfd72a04825791d1e4c4cb150a1" target="_top" xlink:title="PHG4Particle::get_px">
<polygon fill="none" stroke="#000000" points="210.5,-681.5 210.5,-701.5 332.5,-701.5 332.5,-681.5 210.5,-681.5"/>
<text text-anchor="middle" x="271.5" y="-688.5" font-family="FreeSans" font-size="10.00" fill="#000000">PHG4Particle::get_px</text>
</a>
</g>
</g>
<!-- Node1&#45;&gt;Node11 -->
<g id="edge10" class="edge">
<title>Node1&#45;&gt;Node11</title>
<path fill="none" stroke="#191970" d="M75.1623,-488.5219C84.8289,-526.9499 114.8185,-624.7047 179,-672.5 185.3793,-677.2506 192.6628,-680.8829 200.2787,-683.6503"/>
<polygon fill="#191970" stroke="#191970" points="199.4714,-687.065 210.0603,-686.7121 201.5625,-680.3846 199.4714,-687.065"/>
</g>
<!-- Node12 -->
<g id="node12" class="node">
<title>Node12</title>
<g id="a_node12"><a xlink:href="../../de/dc9/classPHG4Particle.html#a3df4379f9e46224a8cca7f86c11e99e5" target="_top" xlink:title="PHG4Particle::get_py">
<polygon fill="none" stroke="#000000" points="210.5,-642.5 210.5,-662.5 332.5,-662.5 332.5,-642.5 210.5,-642.5"/>
<text text-anchor="middle" x="271.5" y="-649.5" font-family="FreeSans" font-size="10.00" fill="#000000">PHG4Particle::get_py</text>
</a>
</g>
</g>
<!-- Node1&#45;&gt;Node12 -->
<g id="edge11" class="edge">
<title>Node1&#45;&gt;Node12</title>
<path fill="none" stroke="#191970" d="M77.441,-488.8256C90.3673,-521.8853 124.3478,-596.7224 179,-633.5 185.5032,-637.8762 192.8038,-641.2805 200.3771,-643.9233"/>
<polygon fill="#191970" stroke="#191970" points="199.4903,-647.312 210.0763,-646.8794 201.5311,-640.616 199.4903,-647.312"/>
</g>
<!-- Node13 -->
<g id="node13" class="node">
<title>Node13</title>
<g id="a_node13"><a xlink:href="../../de/dc9/classPHG4Particle.html#a533e9bda40b15f62802b187e6a743e74" target="_top" xlink:title="PHG4Particle::get_pz">
<polygon fill="none" stroke="#000000" points="210.5,-603.5 210.5,-623.5 332.5,-623.5 332.5,-603.5 210.5,-603.5"/>
<text text-anchor="middle" x="271.5" y="-610.5" font-family="FreeSans" font-size="10.00" fill="#000000">PHG4Particle::get_pz</text>
</a>
</g>
</g>
<!-- Node1&#45;&gt;Node13 -->
<g id="edge12" class="edge">
<title>Node1&#45;&gt;Node13</title>
<path fill="none" stroke="#191970" d="M80.7663,-488.5392C97.0227,-515.1263 133.3339,-568.0162 179,-594.5 185.681,-598.3746 193.0355,-601.4666 200.5894,-603.9328"/>
<polygon fill="#191970" stroke="#191970" points="199.6492,-607.3043 210.2287,-606.7338 201.6025,-600.5824 199.6492,-607.3043"/>
</g>
<!-- Node14 -->
<g id="node14" class="node">
<title>Node14</title>
<g id="a_node14"><a xlink:href="../../d9/d85/classPHG4CylinderCellGeom.html#a108104cde65d2ca503e306251188e615" target="_top" xlink:title="PHG4CylinderCellGeom\l::get_radius">
<polygon fill="none" stroke="#000000" points="204,-552.5 204,-584.5 339,-584.5 339,-552.5 204,-552.5"/>
<text text-anchor="start" x="212" y="-571.5" font-family="FreeSans" font-size="10.00" fill="#000000">PHG4CylinderCellGeom</text>
<text text-anchor="middle" x="271.5" y="-559.5" font-family="FreeSans" font-size="10.00" fill="#000000">::get_radius</text>
</a>
</g>
</g>
<!-- Node1&#45;&gt;Node14 -->
<g id="edge13" class="edge">
<title>Node1&#45;&gt;Node14</title>
<path fill="none" stroke="#191970" d="M91.7522,-488.756C112.5429,-504.7277 146.3802,-528.7828 179,-543.5 183.9281,-545.7234 189.0957,-547.7852 194.3627,-549.6906"/>
<polygon fill="#191970" stroke="#191970" points="193.3256,-553.0349 203.9202,-552.9525 195.5867,-546.4101 193.3256,-553.0349"/>
</g>
<!-- Node15 -->
<g id="node15" class="node">
<title>Node15</title>
<g id="a_node15"><a xlink:href="../../d6/d84/namespacePHG4CellDefs_1_1SizeBinning.html#a65969fd6a8d43e6964beefd0d9bbd35e" target="_top" xlink:title="PHG4CellDefs::SizeBinning\l::get_zbin">
<polygon fill="none" stroke="#000000" points="404,-276.5 404,-308.5 556,-308.5 556,-276.5 404,-276.5"/>
<text text-anchor="start" x="412" y="-295.5" font-family="FreeSans" font-size="10.00" fill="#000000">PHG4CellDefs::SizeBinning</text>
<text text-anchor="middle" x="480" y="-283.5" font-family="FreeSans" font-size="10.00" fill="#000000">::get_zbin</text>
</a>
</g>
</g>
<!-- Node1&#45;&gt;Node15 -->
<g id="edge14" class="edge">
<title>Node1&#45;&gt;Node15</title>
<path fill="none" stroke="#191970" d="M76.7642,-456.3105C88.7288,-422.4665 121.4799,-344.6295 179,-311.5 243.9266,-274.1047 330.3145,-272.5782 393.8859,-278.5057"/>
<polygon fill="#191970" stroke="#191970" points="393.5847,-281.993 403.886,-279.5167 394.2888,-275.0285 393.5847,-281.993"/>
</g>
<!-- Node17 -->
<g id="node17" class="node">
<title>Node17</title>
<g id="a_node17"><a xlink:href="../../d9/d85/classPHG4CylinderCellGeom.html#a0cdfdbb3b06ded109b6229d2bd74e92d" target="_top" xlink:title="PHG4CylinderCellGeom\l::get_zbins">
<polygon fill="none" stroke="#000000" points="204,-501.5 204,-533.5 339,-533.5 339,-501.5 204,-501.5"/>
<text text-anchor="start" x="212" y="-520.5" font-family="FreeSans" font-size="10.00" fill="#000000">PHG4CylinderCellGeom</text>
<text text-anchor="middle" x="271.5" y="-508.5" font-family="FreeSans" font-size="10.00" fill="#000000">::get_zbins</text>
</a>
</g>
</g>
<!-- Node1&#45;&gt;Node17 -->
<g id="edge17" class="edge">
<title>Node1&#45;&gt;Node17</title>
<path fill="none" stroke="#191970" d="M142.8576,-488.5555C159.4561,-492.2901 177.2044,-496.2835 194.0519,-500.0742"/>
<polygon fill="#191970" stroke="#191970" points="193.3274,-503.4986 203.8518,-502.2791 194.864,-496.6693 193.3274,-503.4986"/>
</g>
<!-- Node19 -->
<g id="node19" class="node">
<title>Node19</title>
<g id="a_node19"><a xlink:href="../../d9/d85/classPHG4CylinderCellGeom.html#a3de4ba34c361c7a4da2a2b2162491f7d" target="_top" xlink:title="PHG4CylinderCellGeom\l::get_zcenter">
<polygon fill="none" stroke="#000000" points="204,-759.5 204,-791.5 339,-791.5 339,-759.5 204,-759.5"/>
<text text-anchor="start" x="212" y="-778.5" font-family="FreeSans" font-size="10.00" fill="#000000">PHG4CylinderCellGeom</text>
<text text-anchor="middle" x="271.5" y="-766.5" font-family="FreeSans" font-size="10.00" fill="#000000">::get_zcenter</text>
</a>
</g>
</g>
<!-- Node1&#45;&gt;Node19 -->
<g id="edge20" class="edge">
<title>Node1&#45;&gt;Node19</title>
<path fill="none" stroke="#191970" d="M72.8081,-488.8178C77.5386,-536.6339 98.0408,-677.6258 179,-750.5 183.7061,-754.7361 189.0575,-758.2652 194.7585,-761.2039"/>
<polygon fill="#191970" stroke="#191970" points="193.4073,-764.4339 203.9622,-765.3525 196.2839,-758.0522 193.4073,-764.4339"/>
</g>
<!-- Node20 -->
<g id="node20" class="node">
<title>Node20</title>
<g id="a_node20"><a xlink:href="../../d3/d96/classFun4AllHistoManager.html#ae5401f032b650d41224dfa0e2f12d364" target="_top" xlink:title="Fun4AllHistoManager\l::getHisto">
<polygon fill="none" stroke="#000000" points="616,-573.5 616,-605.5 740,-605.5 740,-573.5 616,-573.5"/>
<text text-anchor="start" x="624" y="-592.5" font-family="FreeSans" font-size="10.00" fill="#000000">Fun4AllHistoManager</text>
<text text-anchor="middle" x="678" y="-580.5" font-family="FreeSans" font-size="10.00" fill="#000000">::getHisto</text>
</a>
</g>
</g>
<!-- Node1&#45;&gt;Node20 -->
<g id="edge22" class="edge">
<title>Node1&#45;&gt;Node20</title>
<path fill="none" stroke="#191970" d="M143.1283,-469.6198C203.1589,-469.0383 290.5802,-472.4996 364,-492.5 381.2596,-497.2017 383.3237,-504.0269 400,-510.5 468.2839,-537.0053 549.092,-558.971 605.9353,-572.9554"/>
<polygon fill="#191970" stroke="#191970" points="605.3625,-576.4182 615.9071,-575.3873 607.0211,-569.6175 605.3625,-576.4182"/>
</g>
<!-- Node23 -->
<g id="node23" class="node">
<title>Node23</title>
<g id="a_node23"><a xlink:href="../../da/d27/classTPCDataStreamEmulator.html#adf70ab7db51470a007efba77e78ba324" target="_top" xlink:title="TPCDataStreamEmulator\l::getHistoManager">
<polygon fill="none" stroke="#000000" points="200,-411.5 200,-443.5 343,-443.5 343,-411.5 200,-411.5"/>
<text text-anchor="start" x="208" y="-430.5" font-family="FreeSans" font-size="10.00" fill="#000000">TPCDataStreamEmulator</text>
<text text-anchor="middle" x="271.5" y="-418.5" font-family="FreeSans" font-size="10.00" fill="#000000">::getHistoManager</text>
</a>
</g>
</g>
<!-- Node1&#45;&gt;Node23 -->
<g id="edge25" class="edge">
<title>Node1&#45;&gt;Node23</title>
<path fill="none" stroke="#191970" d="M142.8576,-456.4445C158.1336,-453.0074 174.3835,-449.3512 190.0087,-445.8355"/>
<polygon fill="#191970" stroke="#191970" points="191.1822,-449.1591 200.17,-443.5493 189.6456,-442.3298 191.1822,-449.1591"/>
</g>
<!-- Node25 -->
<g id="node25" class="node">
<title>Node25</title>
<g id="a_node25"><a xlink:href="../../d5/dec/classFun4AllBase.html#a8a5c77a92bdac6bc043476e132379a40" target="_top" xlink:title="Gets the verbosity of this module.">
<polygon fill="none" stroke="#000000" points="1405,-420.5 1405,-440.5 1537,-440.5 1537,-420.5 1405,-420.5"/>
<text text-anchor="middle" x="1471" y="-427.5" font-family="FreeSans" font-size="10.00" fill="#000000">Fun4AllBase::Verbosity</text>
</a>
</g>
</g>
<!-- Node1&#45;&gt;Node25 -->
<g id="edge57" class="edge">
<title>Node1&#45;&gt;Node25</title>
<path fill="none" stroke="#191970" d="M88.8623,-456.4012C108.853,-439.0468 143.5207,-412.4417 179,-401.5 348.4687,-349.2366 799.7602,-386.4033 977,-392.5 1151.5318,-398.5035 1195.0423,-404.1348 1369,-419.5 1377.3526,-420.2378 1386.0826,-421.0762 1394.7688,-421.9533"/>
<polygon fill="#191970" stroke="#191970" points="1394.6147,-425.4558 1404.9202,-422.997 1395.3307,-418.4925 1394.6147,-425.4558"/>
</g>
<!-- Node43 -->
<g id="node43" class="node">
<title>Node43</title>
<g id="a_node43"><a xlink:href="../../d4/d30/classPHG4HitContainer.html#aec01041c4b9347f93832704e142b2439" target="_top" xlink:title="return all hits matching a given detid">
<polygon fill="none" stroke="#000000" points="196,-243.5 196,-263.5 347,-263.5 347,-243.5 196,-243.5"/>
<text text-anchor="middle" x="271.5" y="-250.5" font-family="FreeSans" font-size="10.00" fill="#000000">PHG4HitContainer::getHits</text>
</a>
</g>
</g>
<!-- Node1&#45;&gt;Node43 -->
<g id="edge51" class="edge">
<title>Node1&#45;&gt;Node43</title>
<path fill="none" stroke="#191970" d="M75.7363,-456.3706C86.3901,-419.06 117.914,-326.3391 179,-278.5 184.7626,-273.987 191.2769,-270.2869 198.1142,-267.2534"/>
<polygon fill="#191970" stroke="#191970" points="199.5772,-270.4389 207.5978,-263.5164 197.0109,-263.9263 199.5772,-270.4389"/>
</g>
<!-- Node44 -->
<g id="node44" class="node">
<title>Node44</title>
<g id="a_node44"><a xlink:href="../../d2/ddb/classPHG4CylinderCellGeomContainer.html#aa667a12262dc298b8aec717e6096d09f" target="_top" xlink:title="PHG4CylinderCellGeomContainer\l::GetLayerCellGeom">
<polygon fill="none" stroke="#000000" points="179,-192.5 179,-224.5 364,-224.5 364,-192.5 179,-192.5"/>
<text text-anchor="start" x="187" y="-211.5" font-family="FreeSans" font-size="10.00" fill="#000000">PHG4CylinderCellGeomContainer</text>
<text text-anchor="middle" x="271.5" y="-199.5" font-family="FreeSans" font-size="10.00" fill="#000000">::GetLayerCellGeom</text>
</a>
</g>
</g>
<!-- Node1&#45;&gt;Node44 -->
<g id="edge52" class="edge">
<title>Node1&#45;&gt;Node44</title>
<path fill="none" stroke="#191970" d="M73.931,-456.2998C81.2799,-413.156 107.3357,-294.6058 179,-233.5 180.3489,-232.3498 181.7458,-231.2521 183.1843,-230.2044"/>
<polygon fill="#191970" stroke="#191970" points="185.2528,-233.0376 191.8345,-224.735 181.5118,-227.121 185.2528,-233.0376"/>
</g>
<!-- Node45 -->
<g id="node45" class="node">
<title>Node45</title>
<g id="a_node45"><a xlink:href="../../da/d6c/classPHG4TruthInfoContainer.html#a2817b4438bb80cacb28f457975342cf2" target="_top" xlink:title="PHG4TruthInfoContainer\l::GetPrimaryParticleRange">
<polygon fill="none" stroke="#000000" points="197,-141.5 197,-173.5 346,-173.5 346,-141.5 197,-141.5"/>
<text text-anchor="start" x="205" y="-160.5" font-family="FreeSans" font-size="10.00" fill="#000000">PHG4TruthInfoContainer</text>
<text text-anchor="middle" x="271.5" y="-148.5" font-family="FreeSans" font-size="10.00" fill="#000000">::GetPrimaryParticleRange</text>
</a>
</g>
</g>
<!-- Node1&#45;&gt;Node45 -->
<g id="edge53" class="edge">
<title>Node1&#45;&gt;Node45</title>
<path fill="none" stroke="#191970" d="M72.5125,-456.1989C76.4659,-407.061 95.1271,-259.066 179,-182.5 181.8065,-179.938 184.8488,-177.6341 188.0622,-175.5627"/>
<polygon fill="#191970" stroke="#191970" points="189.9058,-178.5419 196.9242,-170.6051 186.4882,-172.4328 189.9058,-178.5419"/>
</g>
<!-- Node46 -->
<g id="node46" class="node">
<title>Node46</title>
<g id="a_node46"><a xlink:href="../../d0/db7/namespacegen__gtest__pred__impl.html#a230080bd07390d99521308904d7f6e3c" target="_top" xlink:title="gen_gtest_pred_impl.Iter">
<polygon fill="none" stroke="#000000" points="200.5,-102.5 200.5,-122.5 342.5,-122.5 342.5,-102.5 200.5,-102.5"/>
<text text-anchor="middle" x="271.5" y="-109.5" font-family="FreeSans" font-size="10.00" fill="#000000">gen_gtest_pred_impl.Iter</text>
</a>
</g>
</g>
<!-- Node1&#45;&gt;Node46 -->
<g id="edge54" class="edge">
<title>Node1&#45;&gt;Node46</title>
<path fill="none" stroke="#191970" d="M74.3479,-456.4636C85.5448,-395.2064 128.4165,-177.1335 179,-131.5 182.6861,-128.1746 186.7944,-125.3701 191.1734,-123.0097"/>
<polygon fill="#191970" stroke="#191970" points="192.8443,-126.0947 200.4936,-118.764 189.9424,-119.7245 192.8443,-126.0947"/>
</g>
<!-- Node48 -->
<g id="node48" class="node">
<title>Node48</title>
<g id="a_node48"><a xlink:href="../../d5/d41/classPHHepMCGenEventMap.html#a699ca20aa340579944b420dea9ecca8f" target="_top" xlink:title="PHHepMCGenEventMap\l::size">
<polygon fill="none" stroke="#000000" points="203,-51.5 203,-83.5 340,-83.5 340,-51.5 203,-51.5"/>
<text text-anchor="start" x="211" y="-70.5" font-family="FreeSans" font-size="10.00" fill="#000000">PHHepMCGenEventMap</text>
<text text-anchor="middle" x="271.5" y="-58.5" font-family="FreeSans" font-size="10.00" fill="#000000">::size</text>
</a>
</g>
</g>
<!-- Node1&#45;&gt;Node48 -->
<g id="edge56" class="edge">
<title>Node1&#45;&gt;Node48</title>
<path fill="none" stroke="#191970" d="M73.9571,-456.1197C84.1513,-390.2588 125.1162,-145.7555 179,-92.5 183.3204,-88.23 188.2903,-84.6694 193.6365,-81.7029"/>
<polygon fill="#191970" stroke="#191970" points="195.431,-84.7243 202.9407,-77.2507 192.4095,-78.41 195.431,-84.7243"/>
</g>
<!-- Node49 -->
<g id="node49" class="node">
<title>Node49</title>
<g id="a_node49"><a xlink:href="../../da/d27/classTPCDataStreamEmulator.html#af9efa6eee87aebd86f376142b2851634" target="_top" xlink:title="TPCDataStreamEmulator\l::writeWavelet">
<polygon fill="none" stroke="#000000" points="200,-.5 200,-32.5 343,-32.5 343,-.5 200,-.5"/>
<text text-anchor="start" x="208" y="-19.5" font-family="FreeSans" font-size="10.00" fill="#000000">TPCDataStreamEmulator</text>
<text text-anchor="middle" x="271.5" y="-7.5" font-family="FreeSans" font-size="10.00" fill="#000000">::writeWavelet</text>
</a>
</g>
</g>
<!-- Node1&#45;&gt;Node49 -->
<g id="edge58" class="edge">
<title>Node1&#45;&gt;Node49</title>
<path fill="none" stroke="#191970" d="M73.3403,-456.3994C81.7415,-385.6359 118.6594,-103.0308 179,-41.5 182.527,-37.9034 186.5138,-34.8079 190.8023,-32.1453"/>
<polygon fill="#191970" stroke="#191970" points="192.7922,-35.0513 199.9782,-27.2659 189.5056,-28.8708 192.7922,-35.0513"/>
</g>
<!-- Node5 -->
<g id="node5" class="node">
<title>Node5</title>
<g id="a_node5"><a xlink:href="../../d9/d13/PHG4CellDefs_8cc.html#a728902c52be0b58ad2d4d8232b2beb5b" target="_top" xlink:title="generic_lower_16bit_key">
<polygon fill="none" stroke="#000000" points="816,-324.5 816,-344.5 957,-344.5 957,-324.5 816,-324.5"/>
<text text-anchor="middle" x="886.5" y="-331.5" font-family="FreeSans" font-size="10.00" fill="#000000">generic_lower_16bit_key</text>
</a>
</g>
</g>
<!-- Node4&#45;&gt;Node5 -->
<g id="edge4" class="edge">
<title>Node4&#45;&gt;Node5</title>
<path fill="none" stroke="#191970" d="M347.5279,-337.1291C464.1619,-336.5602 686.2511,-335.4768 805.6933,-334.8942"/>
<polygon fill="#191970" stroke="#191970" points="805.8875,-338.3934 815.8702,-334.8445 805.8533,-331.3935 805.8875,-338.3934"/>
</g>
<!-- Node6 -->
<g id="node6" class="node">
<title>Node6</title>
<g id="a_node6"><a xlink:href="../../dd/d7e/namespaceActs_1_1Test.html#a88f0887efddd644c8defc1e91456c3c9" target="_top" xlink:title="Acts::Test::tmp">
<polygon fill="none" stroke="#000000" points="1573,-324.5 1573,-344.5 1665,-344.5 1665,-324.5 1573,-324.5"/>
<text text-anchor="middle" x="1619" y="-331.5" font-family="FreeSans" font-size="10.00" fill="#000000">Acts::Test::tmp</text>
</a>
</g>
</g>
<!-- Node5&#45;&gt;Node6 -->
<g id="edge5" class="edge">
<title>Node5&#45;&gt;Node6</title>
<path fill="none" stroke="#191970" d="M957.0676,-334.5C1101.948,-334.5 1430.4061,-334.5 1562.4609,-334.5"/>
<polygon fill="#191970" stroke="#191970" points="1562.7499,-338.0001 1572.7498,-334.5 1562.7498,-331.0001 1562.7499,-338.0001"/>
</g>
<!-- Node8 -->
<g id="node8" class="node">
<title>Node8</title>
<g id="a_node8"><a xlink:href="../../d9/d85/classPHG4CylinderCellGeom.html#ab28e6403197b245275ba3613cd56ba6c" target="_top" xlink:title="PHG4CylinderCellGeom\l::check_binning_method_phi">
<polygon fill="none" stroke="#000000" points="400,-810.5 400,-842.5 560,-842.5 560,-810.5 400,-810.5"/>
<text text-anchor="start" x="408" y="-829.5" font-family="FreeSans" font-size="10.00" fill="#000000">PHG4CylinderCellGeom</text>
<text text-anchor="middle" x="480" y="-817.5" font-family="FreeSans" font-size="10.00" fill="#000000">::check_binning_method_phi</text>
</a>
</g>
</g>
<!-- Node7&#45;&gt;Node8 -->
<g id="edge7" class="edge">
<title>Node7&#45;&gt;Node8</title>
<path fill="none" stroke="#191970" d="M339.194,-826.5C355.2446,-826.5 372.619,-826.5 389.5035,-826.5"/>
<polygon fill="#191970" stroke="#191970" points="389.9371,-830.0001 399.937,-826.5 389.937,-823.0001 389.9371,-830.0001"/>
</g>
<!-- Node9 -->
<g id="node9" class="node">
<title>Node9</title>
<g id="a_node9"><a xlink:href="../../d9/d85/classPHG4CylinderCellGeom.html#afa26b0daaa55e39e4fcdde530f6a7bb4" target="_top" xlink:title="PHG4CylinderCellGeom\l::methodname">
<polygon fill="none" stroke="#000000" points="610.5,-784.5 610.5,-816.5 745.5,-816.5 745.5,-784.5 610.5,-784.5"/>
<text text-anchor="start" x="618.5" y="-803.5" font-family="FreeSans" font-size="10.00" fill="#000000">PHG4CylinderCellGeom</text>
<text text-anchor="middle" x="678" y="-791.5" font-family="FreeSans" font-size="10.00" fill="#000000">::methodname</text>
</a>
</g>
</g>
<!-- Node8&#45;&gt;Node9 -->
<g id="edge8" class="edge">
<title>Node8&#45;&gt;Node9</title>
<path fill="none" stroke="#191970" d="M560.2487,-815.9623C573.4893,-814.2236 587.1943,-812.424 600.3692,-810.6939"/>
<polygon fill="#191970" stroke="#191970" points="600.8651,-814.159 610.3243,-809.3867 599.9537,-807.2185 600.8651,-814.159"/>
</g>
<!-- Node16 -->
<g id="node16" class="node">
<title>Node16</title>
<g id="a_node16"><a xlink:href="../../d9/d13/PHG4CellDefs_8cc.html#aac13c75c0c6204b67afd2b9f4d98d391" target="_top" xlink:title="generic_upper_16bit_key">
<polygon fill="none" stroke="#000000" points="606.5,-283.5 606.5,-303.5 749.5,-303.5 749.5,-283.5 606.5,-283.5"/>
<text text-anchor="middle" x="678" y="-290.5" font-family="FreeSans" font-size="10.00" fill="#000000">generic_upper_16bit_key</text>
</a>
</g>
</g>
<!-- Node15&#45;&gt;Node16 -->
<g id="edge15" class="edge">
<title>Node15&#45;&gt;Node16</title>
<path fill="none" stroke="#191970" d="M556.2687,-292.8852C569.3773,-292.9514 583.048,-293.0204 596.2925,-293.0873"/>
<polygon fill="#191970" stroke="#191970" points="596.3036,-296.5873 606.3212,-293.138 596.339,-289.5874 596.3036,-296.5873"/>
</g>
<!-- Node16&#45;&gt;Node6 -->
<g id="edge16" class="edge">
<title>Node16&#45;&gt;Node6</title>
<path fill="none" stroke="#191970" d="M749.7993,-293.7786C832.3618,-294.0744 971.9684,-294.5 1092,-294.5 1092,-294.5 1092,-294.5 1288,-294.5 1385.1135,-294.5 1497.1039,-311.6803 1562.7605,-323.5221"/>
<polygon fill="#191970" stroke="#191970" points="1562.4244,-327.0186 1572.8907,-325.3733 1563.6829,-320.1326 1562.4244,-327.0186"/>
</g>
<!-- Node18 -->
<g id="node18" class="node">
<title>Node18</title>
<g id="a_node18"><a xlink:href="../../d9/d85/classPHG4CylinderCellGeom.html#a68f0276a8f9bdb6059c1e286a0465100" target="_top" xlink:title="PHG4CylinderCellGeom\l::check_binning_method">
<polygon fill="none" stroke="#000000" points="410.5,-759.5 410.5,-791.5 549.5,-791.5 549.5,-759.5 410.5,-759.5"/>
<text text-anchor="start" x="418.5" y="-778.5" font-family="FreeSans" font-size="10.00" fill="#000000">PHG4CylinderCellGeom</text>
<text text-anchor="middle" x="480" y="-766.5" font-family="FreeSans" font-size="10.00" fill="#000000">::check_binning_method</text>
</a>
</g>
</g>
<!-- Node17&#45;&gt;Node18 -->
<g id="edge18" class="edge">
<title>Node17&#45;&gt;Node18</title>
<path fill="none" stroke="#191970" d="M339.4719,-529.4163C348.3219,-532.9583 356.7988,-537.5496 364,-543.5 430.6442,-598.5689 462.569,-701.5163 474.3685,-749.5618"/>
<polygon fill="#191970" stroke="#191970" points="471.0046,-750.5467 476.7066,-759.4763 477.8177,-748.9399 471.0046,-750.5467"/>
</g>
<!-- Node18&#45;&gt;Node9 -->
<g id="edge19" class="edge">
<title>Node18&#45;&gt;Node9</title>
<path fill="none" stroke="#191970" d="M549.529,-784.2789C565.8621,-786.3412 583.3727,-788.5521 600.048,-790.6576"/>
<polygon fill="#191970" stroke="#191970" points="599.9451,-794.1723 610.3048,-791.9526 600.822,-787.2274 599.9451,-794.1723"/>
</g>
<!-- Node19&#45;&gt;Node18 -->
<g id="edge21" class="edge">
<title>Node19&#45;&gt;Node18</title>
<path fill="none" stroke="#191970" d="M339.194,-775.5C358.6228,-775.5 379.9912,-775.5 400.0826,-775.5"/>
<polygon fill="#191970" stroke="#191970" points="400.141,-779.0001 410.141,-775.5 400.141,-772.0001 400.141,-779.0001"/>
</g>
<!-- Node21 -->
<g id="node21" class="node">
<title>Node21</title>
<g id="a_node21"><a xlink:href="../../d3/d96/classFun4AllHistoManager.html#a78e6d7a95c28595e45b84db4c1542237" target="_top" xlink:title="Fun4AllHistoManager\l::Print">
<polygon fill="none" stroke="#000000" points="824.5,-596.5 824.5,-628.5 948.5,-628.5 948.5,-596.5 824.5,-596.5"/>
<text text-anchor="start" x="832.5" y="-615.5" font-family="FreeSans" font-size="10.00" fill="#000000">Fun4AllHistoManager</text>
<text text-anchor="middle" x="886.5" y="-603.5" font-family="FreeSans" font-size="10.00" fill="#000000">::Print</text>
</a>
</g>
</g>
<!-- Node20&#45;&gt;Node21 -->
<g id="edge23" class="edge">
<title>Node20&#45;&gt;Node21</title>
<path fill="none" stroke="#191970" d="M740.2745,-596.3696C763.4787,-598.9293 790.0136,-601.8564 814.0534,-604.5083"/>
<polygon fill="#191970" stroke="#191970" points="813.8629,-608.0084 824.1864,-605.6261 814.6305,-601.0506 813.8629,-608.0084"/>
</g>
<!-- Node22 -->
<g id="node22" class="node">
<title>Node22</title>
<g id="a_node22"><a xlink:href="../../d5/dec/classFun4AllBase.html#a41f9ac377743d046f590617fd6f4f0ed" target="_top" xlink:title="Returns the name of this module.">
<polygon fill="none" stroke="#000000" points="1230.5,-530.5 1230.5,-550.5 1345.5,-550.5 1345.5,-530.5 1230.5,-530.5"/>
<text text-anchor="middle" x="1288" y="-537.5" font-family="FreeSans" font-size="10.00" fill="#000000">Fun4AllBase::Name</text>
</a>
</g>
</g>
<!-- Node21&#45;&gt;Node22 -->
<g id="edge24" class="edge">
<title>Node21&#45;&gt;Node22</title>
<path fill="none" stroke="#191970" d="M902.2592,-628.5978C924.5608,-650.1018 967.6866,-687.1568 1013,-701.5 1079.9484,-722.6914 1115.5426,-744.5771 1171,-701.5 1222.0781,-661.8246 1161.086,-606.0524 1207,-560.5 1211.0488,-556.4831 1215.7684,-553.2287 1220.8566,-550.5973"/>
<polygon fill="#191970" stroke="#191970" points="1222.552,-553.6777 1230.3482,-546.5034 1219.7797,-547.2501 1222.552,-553.6777"/>
</g>
<!-- Node24 -->
<g id="node24" class="node">
<title>Node24</title>
<g id="a_node24"><a xlink:href="../../da/d29/classFun4AllServer.html#af5885837658eb26f98dbc697b58747a7" target="_top" xlink:title="Fun4AllServer::getHistoManager">
<polygon fill="none" stroke="#000000" points="796,-402.5 796,-422.5 977,-422.5 977,-402.5 796,-402.5"/>
<text text-anchor="middle" x="886.5" y="-409.5" font-family="FreeSans" font-size="10.00" fill="#000000">Fun4AllServer::getHistoManager</text>
</a>
</g>
</g>
<!-- Node23&#45;&gt;Node24 -->
<g id="edge26" class="edge">
<title>Node23&#45;&gt;Node24</title>
<path fill="none" stroke="#191970" d="M343.2519,-425.75C452.506,-423.0852 660.9879,-418.0003 785.4971,-414.9635"/>
<polygon fill="#191970" stroke="#191970" points="785.883,-418.4552 795.7947,-414.7123 785.7123,-411.4573 785.883,-418.4552"/>
</g>
<!-- Node26 -->
<g id="node26" class="node">
<title>Node26</title>
<g id="a_node26"><a xlink:href="../../da/d29/classFun4AllServer.html#a3e55156f91b2c94bb6c4ef33ffce587a" target="_top" xlink:title="Fun4AllServer::instance">
<polygon fill="none" stroke="#000000" points="412,-480.5 412,-500.5 548,-500.5 548,-480.5 412,-480.5"/>
<text text-anchor="middle" x="480" y="-487.5" font-family="FreeSans" font-size="10.00" fill="#000000">Fun4AllServer::instance</text>
</a>
</g>
</g>
<!-- Node23&#45;&gt;Node26 -->
<g id="edge28" class="edge">
<title>Node23&#45;&gt;Node26</title>
<path fill="none" stroke="#191970" d="M324.6528,-443.5606C359.5323,-454.0997 404.5502,-467.7022 437.1374,-477.5487"/>
<polygon fill="#191970" stroke="#191970" points="436.2417,-480.9343 446.8266,-480.4764 438.2665,-474.2335 436.2417,-480.9343"/>
</g>
<!-- Node39 -->
<g id="node39" class="node">
<title>Node39</title>
<g id="a_node39"><a xlink:href="../../da/d29/classFun4AllServer.html#a377f113767f24ce6413e678752ed7f53" target="_top" xlink:title="Fun4AllServer::registerHisto\lManager">
<polygon fill="none" stroke="#000000" points="1013,-440.5 1013,-472.5 1171,-472.5 1171,-440.5 1013,-440.5"/>
<text text-anchor="start" x="1021" y="-459.5" font-family="FreeSans" font-size="10.00" fill="#000000">Fun4AllServer::registerHisto</text>
<text text-anchor="middle" x="1092" y="-447.5" font-family="FreeSans" font-size="10.00" fill="#000000">Manager</text>
</a>
</g>
</g>
<!-- Node23&#45;&gt;Node39 -->
<g id="edge50" class="edge">
<title>Node23&#45;&gt;Node39</title>
<path fill="none" stroke="#191970" d="M343.1728,-433.0427C361.6767,-434.3302 381.5725,-435.5888 400,-436.5 616.2934,-447.1956 870.9208,-452.743 1002.7736,-455.0907"/>
<polygon fill="#191970" stroke="#191970" points="1002.7658,-458.591 1012.8259,-455.2677 1002.8891,-451.5921 1002.7658,-458.591"/>
</g>
<!-- Node24&#45;&gt;Node25 -->
<g id="edge27" class="edge">
<title>Node24&#45;&gt;Node25</title>
<path fill="none" stroke="#191970" d="M977.1868,-415.2928C1091.8108,-418.8227 1287.0908,-424.8364 1394.5276,-428.145"/>
<polygon fill="#191970" stroke="#191970" points="1394.5418,-431.647 1404.6448,-428.4566 1394.7573,-424.6503 1394.5418,-431.647"/>
</g>
<!-- Node27 -->
<g id="node27" class="node">
<title>Node27</title>
<g id="a_node27"><a xlink:href="../../da/d29/classFun4AllServer.html#a90e27f05f0b2e8b6fe462387b14bfb92" target="_top" xlink:title="Fun4AllServer::Fun4AllServer">
<polygon fill="none" stroke="#000000" points="596,-503.5 596,-523.5 760,-523.5 760,-503.5 596,-503.5"/>
<text text-anchor="middle" x="678" y="-510.5" font-family="FreeSans" font-size="10.00" fill="#000000">Fun4AllServer::Fun4AllServer</text>
</a>
</g>
</g>
<!-- Node26&#45;&gt;Node27 -->
<g id="edge29" class="edge">
<title>Node26&#45;&gt;Node27</title>
<path fill="none" stroke="#191970" d="M548.1404,-498.4153C560.233,-499.82 573.0082,-501.304 585.6387,-502.7712"/>
<polygon fill="#191970" stroke="#191970" points="585.3841,-506.265 595.7212,-503.9424 586.1919,-499.3118 585.3841,-506.265"/>
</g>
<!-- Node28 -->
<g id="node28" class="node">
<title>Node28</title>
<g id="a_node28"><a xlink:href="../../da/d29/classFun4AllServer.html#aa1939c3e2c3113cce0a6415103b4f5a5" target="_top" xlink:title="Fun4AllServer::InitAll">
<polygon fill="none" stroke="#000000" points="825.5,-542.5 825.5,-562.5 947.5,-562.5 947.5,-542.5 825.5,-542.5"/>
<text text-anchor="middle" x="886.5" y="-549.5" font-family="FreeSans" font-size="10.00" fill="#000000">Fun4AllServer::InitAll</text>
</a>
</g>
</g>
<!-- Node27&#45;&gt;Node28 -->
<g id="edge30" class="edge">
<title>Node27&#45;&gt;Node28</title>
<path fill="none" stroke="#191970" d="M731.6939,-523.5435C759.5406,-528.7522 793.7371,-535.1487 822.901,-540.6038"/>
<polygon fill="#191970" stroke="#191970" points="822.515,-544.0922 832.988,-542.4906 823.802,-537.2115 822.515,-544.0922"/>
</g>
<!-- Node28&#45;&gt;Node22 -->
<g id="edge38" class="edge">
<title>Node28&#45;&gt;Node22</title>
<path fill="none" stroke="#191970" d="M947.9163,-550.6644C1021.3477,-548.4697 1143.8584,-544.8081 1220.0612,-542.5305"/>
<polygon fill="#191970" stroke="#191970" points="1220.6056,-546.0159 1230.4965,-542.2187 1220.3964,-539.0191 1220.6056,-546.0159"/>
</g>
<!-- Node29 -->
<g id="node29" class="node">
<title>Node29</title>
<g id="a_node29"><a xlink:href="../../da/d29/classFun4AllServer.html#a2ebfcdcf706670c98c189bfa93c3ff89" target="_top" xlink:title="Fun4AllServer::InitNodeTree">
<polygon fill="none" stroke="#000000" points="1013.5,-620.5 1013.5,-640.5 1170.5,-640.5 1170.5,-620.5 1013.5,-620.5"/>
<text text-anchor="middle" x="1092" y="-627.5" font-family="FreeSans" font-size="10.00" fill="#000000">Fun4AllServer::InitNodeTree</text>
</a>
</g>
</g>
<!-- Node28&#45;&gt;Node29 -->
<g id="edge31" class="edge">
<title>Node28&#45;&gt;Node29</title>
<path fill="none" stroke="#191970" d="M917.3944,-562.5534C935.2342,-568.8212 957.8592,-577.5712 977,-587.5 994.0697,-596.3545 995.3796,-603.7994 1013,-611.5 1018.0896,-613.7243 1023.4824,-615.7138 1028.9648,-617.4882"/>
<polygon fill="#191970" stroke="#191970" points="1028.3002,-620.9425 1038.8838,-620.454 1030.3055,-614.2359 1028.3002,-620.9425"/>
</g>
<!-- Node34 -->
<g id="node34" class="node">
<title>Node34</title>
<g id="a_node34"><a xlink:href="../../d5/d4f/classFun4AllMonitoring.html#a4d2dc73220d8300c356f258b8c6283a8" target="_top" xlink:title="Fun4AllMonitoring::\linstance">
<polygon fill="none" stroke="#000000" points="1035,-491.5 1035,-523.5 1149,-523.5 1149,-491.5 1035,-491.5"/>
<text text-anchor="start" x="1043" y="-510.5" font-family="FreeSans" font-size="10.00" fill="#000000">Fun4AllMonitoring::</text>
<text text-anchor="middle" x="1092" y="-498.5" font-family="FreeSans" font-size="10.00" fill="#000000">instance</text>
</a>
</g>
</g>
<!-- Node28&#45;&gt;Node34 -->
<g id="edge36" class="edge">
<title>Node28&#45;&gt;Node34</title>
<path fill="none" stroke="#191970" d="M932.3624,-542.4571C959.5696,-536.4994 994.5473,-528.84 1024.8238,-522.2101"/>
<polygon fill="#191970" stroke="#191970" points="1025.8735,-525.5633 1034.8933,-520.0051 1024.376,-518.7253 1025.8735,-525.5633"/>
</g>
<!-- Node36 -->
<g id="node36" class="node">
<title>Node36</title>
<g id="a_node36"><a xlink:href="../../da/d29/classFun4AllServer.html#a1d7daeb59511a7dc61a2566f4116a6ec" target="_top" xlink:title="Fun4AllServer::registerHisto">
<polygon fill="none" stroke="#000000" points="1013,-581.5 1013,-601.5 1171,-601.5 1171,-581.5 1013,-581.5"/>
<text text-anchor="middle" x="1092" y="-588.5" font-family="FreeSans" font-size="10.00" fill="#000000">Fun4AllServer::registerHisto</text>
</a>
</g>
</g>
<!-- Node28&#45;&gt;Node36 -->
<g id="edge39" class="edge">
<title>Node28&#45;&gt;Node36</title>
<path fill="none" stroke="#191970" d="M939.4214,-562.5435C966.8673,-567.7522 1000.5718,-574.1487 1029.3161,-579.6038"/>
<polygon fill="#191970" stroke="#191970" points="1028.7807,-583.0646 1039.258,-581.4906 1030.086,-576.1873 1028.7807,-583.0646"/>
</g>
<!-- Node28&#45;&gt;Node39 -->
<g id="edge43" class="edge">
<title>Node28&#45;&gt;Node39</title>
<path fill="none" stroke="#191970" d="M902.3797,-542.4349C925.876,-527.8413 971.5948,-500.5789 1013,-482.5 1018.0449,-480.2972 1023.3393,-478.1739 1028.697,-476.1552"/>
<polygon fill="#191970" stroke="#191970" points="1030.1661,-479.3453 1038.369,-472.64 1027.775,-472.7664 1030.1661,-479.3453"/>
</g>
<!-- Node40 -->
<g id="node40" class="node">
<title>Node40</title>
<g id="a_node40"><a xlink:href="../../d5/d4f/classFun4AllMonitoring.html#aeea0018148441caf4a9a1b5cc448ecfb" target="_top" xlink:title="Fun4AllMonitoring::\lSnapshot">
<polygon fill="none" stroke="#000000" points="1035,-659.5 1035,-691.5 1149,-691.5 1149,-659.5 1035,-659.5"/>
<text text-anchor="start" x="1043" y="-678.5" font-family="FreeSans" font-size="10.00" fill="#000000">Fun4AllMonitoring::</text>
<text text-anchor="middle" x="1092" y="-666.5" font-family="FreeSans" font-size="10.00" fill="#000000">Snapshot</text>
</a>
</g>
</g>
<!-- Node28&#45;&gt;Node40 -->
<g id="edge46" class="edge">
<title>Node28&#45;&gt;Node40</title>
<path fill="none" stroke="#191970" d="M929.8182,-562.6272C945.9556,-568.0052 963.5899,-575.9657 977,-587.5 1001.4494,-608.5292 987.9051,-630.2454 1013,-650.5 1016.9565,-653.6934 1021.3263,-656.4815 1025.9199,-658.9154"/>
<polygon fill="#191970" stroke="#191970" points="1024.4407,-662.0874 1034.9798,-663.1728 1027.4178,-655.752 1024.4407,-662.0874"/>
</g>
<!-- Node30 -->
<g id="node30" class="node">
<title>Node30</title>
<g id="a_node30"><a xlink:href="../../d5/dca/classPHCompositeNode.html#a15a0c4804399a9de4267647f05bd1ba4" target="_top" xlink:title="PHCompositeNode::addNode">
<polygon fill="none" stroke="#000000" points="1207,-620.5 1207,-640.5 1369,-640.5 1369,-620.5 1207,-620.5"/>
<text text-anchor="middle" x="1288" y="-627.5" font-family="FreeSans" font-size="10.00" fill="#000000">PHCompositeNode::addNode</text>
</a>
</g>
</g>
<!-- Node29&#45;&gt;Node30 -->
<g id="edge32" class="edge">
<title>Node29&#45;&gt;Node30</title>
<path fill="none" stroke="#191970" d="M1170.5914,-630.5C1179.1647,-630.5 1187.9445,-630.5 1196.6539,-630.5"/>
<polygon fill="#191970" stroke="#191970" points="1196.8291,-634.0001 1206.8291,-630.5 1196.829,-627.0001 1196.8291,-634.0001"/>
</g>
<!-- Node31 -->
<g id="node31" class="node">
<title>Node31</title>
<g id="a_node31"><a xlink:href="../../d6/d86/classPHPointerList.html#ac2176735e9d046a034f1686fd2c477eb" target="_top" xlink:title="PHPointerList::append">
<polygon fill="none" stroke="#000000" points="1407,-611.5 1407,-631.5 1535,-631.5 1535,-611.5 1407,-611.5"/>
<text text-anchor="middle" x="1471" y="-618.5" font-family="FreeSans" font-size="10.00" fill="#000000">PHPointerList::append</text>
</a>
</g>
</g>
<!-- Node30&#45;&gt;Node31 -->
<g id="edge33" class="edge">
<title>Node30&#45;&gt;Node31</title>
<path fill="none" stroke="#191970" d="M1369.0656,-626.5132C1378.2346,-626.0622 1387.5453,-625.6043 1396.6227,-625.1579"/>
<polygon fill="#191970" stroke="#191970" points="1396.9365,-628.6468 1406.7524,-624.6597 1396.5926,-621.6552 1396.9365,-628.6468"/>
</g>
<!-- Node32 -->
<g id="node32" class="node">
<title>Node32</title>
<g id="a_node32"><a xlink:href="../../dc/d82/classPHNode.html#aca3576f926a4401eddc3d88bf0ce0de3" target="_top" xlink:title="PHNode::getName">
<polygon fill="none" stroke="#000000" points="1416.5,-572.5 1416.5,-592.5 1525.5,-592.5 1525.5,-572.5 1416.5,-572.5"/>
<text text-anchor="middle" x="1471" y="-579.5" font-family="FreeSans" font-size="10.00" fill="#000000">PHNode::getName</text>
</a>
</g>
</g>
<!-- Node30&#45;&gt;Node32 -->
<g id="edge34" class="edge">
<title>Node30&#45;&gt;Node32</title>
<path fill="none" stroke="#191970" d="M1332.655,-620.4186C1344.4971,-617.6378 1357.2553,-614.5453 1369,-611.5 1388.2465,-606.5096 1409.4076,-600.5684 1427.4423,-595.3669"/>
<polygon fill="#191970" stroke="#191970" points="1428.4785,-598.7107 1437.108,-592.5641 1426.5288,-591.9877 1428.4785,-598.7107"/>
</g>
<!-- Node33 -->
<g id="node33" class="node">
<title>Node33</title>
<g id="a_node33"><a xlink:href="../../dc/d82/classPHNode.html#adda2bd6cef2d5067bbe3016a990b7198" target="_top" xlink:title="PHNode::setParent">
<polygon fill="none" stroke="#000000" points="1415.5,-650.5 1415.5,-670.5 1526.5,-670.5 1526.5,-650.5 1415.5,-650.5"/>
<text text-anchor="middle" x="1471" y="-657.5" font-family="FreeSans" font-size="10.00" fill="#000000">PHNode::setParent</text>
</a>
</g>
</g>
<!-- Node30&#45;&gt;Node33 -->
<g id="edge35" class="edge">
<title>Node30&#45;&gt;Node33</title>
<path fill="none" stroke="#191970" d="M1349.1908,-640.5313C1367.2508,-643.4919 1387.0868,-646.7437 1405.4116,-649.7478"/>
<polygon fill="#191970" stroke="#191970" points="1404.9812,-653.2239 1415.4157,-651.3878 1406.1136,-646.3161 1404.9812,-653.2239"/>
</g>
<!-- Node35 -->
<g id="node35" class="node">
<title>Node35</title>
<g id="a_node35"><a xlink:href="../../d5/d4f/classFun4AllMonitoring.html#aaf0fd3c11a5727613f4a81e113eb8675" target="_top" xlink:title="Fun4AllMonitoring::\lFun4AllMonitoring">
<polygon fill="none" stroke="#000000" points="1231,-479.5 1231,-511.5 1345,-511.5 1345,-479.5 1231,-479.5"/>
<text text-anchor="start" x="1239" y="-498.5" font-family="FreeSans" font-size="10.00" fill="#000000">Fun4AllMonitoring::</text>
<text text-anchor="middle" x="1288" y="-486.5" font-family="FreeSans" font-size="10.00" fill="#000000">Fun4AllMonitoring</text>
</a>
</g>
</g>
<!-- Node34&#45;&gt;Node35 -->
<g id="edge37" class="edge">
<title>Node34&#45;&gt;Node35</title>
<path fill="none" stroke="#191970" d="M1149.2182,-503.9968C1171.5611,-502.6289 1197.3462,-501.0502 1220.5821,-499.6276"/>
<polygon fill="#191970" stroke="#191970" points="1220.9433,-503.1122 1230.7107,-499.0075 1220.5155,-496.1252 1220.9433,-503.1122"/>
</g>
<!-- Node37 -->
<g id="node37" class="node">
<title>Node37</title>
<g id="a_node37"><a xlink:href="../../d3/d96/classFun4AllHistoManager.html#a7e1354855437fa28bb0d29dc0581d0a6" target="_top" xlink:title="Fun4AllHistoManager\l::registerHisto">
<polygon fill="none" stroke="#000000" points="1226,-569.5 1226,-601.5 1350,-601.5 1350,-569.5 1226,-569.5"/>
<text text-anchor="start" x="1234" y="-588.5" font-family="FreeSans" font-size="10.00" fill="#000000">Fun4AllHistoManager</text>
<text text-anchor="middle" x="1288" y="-576.5" font-family="FreeSans" font-size="10.00" fill="#000000">::registerHisto</text>
</a>
</g>
</g>
<!-- Node36&#45;&gt;Node37 -->
<g id="edge40" class="edge">
<title>Node36&#45;&gt;Node37</title>
<path fill="none" stroke="#191970" d="M1171.1557,-589.0769C1185.7752,-588.6293 1200.976,-588.164 1215.3898,-587.7228"/>
<polygon fill="#191970" stroke="#191970" points="1215.8385,-591.2108 1225.7266,-587.4063 1215.6242,-584.214 1215.8385,-591.2108"/>
</g>
<!-- Node37&#45;&gt;Node25 -->
<g id="edge42" class="edge">
<title>Node37&#45;&gt;Node25</title>
<path fill="none" stroke="#191970" d="M1350.4157,-570.5559C1356.9638,-567.7425 1363.3007,-564.4195 1369,-560.5 1391.3741,-545.1129 1436.4368,-481.3912 1458.3961,-449.2366"/>
<polygon fill="#191970" stroke="#191970" points="1461.4604,-450.954 1464.1796,-440.714 1455.6682,-447.0233 1461.4604,-450.954"/>
</g>
<!-- Node38 -->
<g id="node38" class="node">
<title>Node38</title>
<g id="a_node38"><a xlink:href="../../dc/df6/200pp__pythia8__CTEQ6L__7GeV__ALL_8cfg__eneg__DSTReader_8root__Draw__HFJetTruth__CrossSection2RAA_8C.html#abf6f7b5ad3b256b0f81411de1474963c" target="_top" xlink:title="SetDirectory">
<polygon fill="none" stroke="#000000" points="1431.5,-533.5 1431.5,-553.5 1510.5,-553.5 1510.5,-533.5 1431.5,-533.5"/>
<text text-anchor="middle" x="1471" y="-540.5" font-family="FreeSans" font-size="10.00" fill="#000000">SetDirectory</text>
</a>
</g>
</g>
<!-- Node37&#45;&gt;Node38 -->
<g id="edge41" class="edge">
<title>Node37&#45;&gt;Node38</title>
<path fill="none" stroke="#191970" d="M1350.2108,-571.2221C1373.4834,-565.8809 1399.5819,-559.891 1421.5486,-554.8495"/>
<polygon fill="#191970" stroke="#191970" points="1422.362,-558.2539 1431.3256,-552.6056 1420.7961,-551.4313 1422.362,-558.2539"/>
</g>
<!-- Node39&#45;&gt;Node22 -->
<g id="edge44" class="edge">
<title>Node39&#45;&gt;Node22</title>
<path fill="none" stroke="#191970" d="M1152.1658,-472.6744C1158.7509,-475.4926 1165.1713,-478.7503 1171,-482.5 1190.8385,-495.2624 1186.6221,-509.6179 1207,-521.5 1211.223,-523.9624 1215.7451,-526.1058 1220.4134,-527.9714"/>
<polygon fill="#191970" stroke="#191970" points="1219.5573,-531.3813 1230.152,-531.4243 1221.8965,-524.7837 1219.5573,-531.3813"/>
</g>
<!-- Node39&#45;&gt;Node25 -->
<g id="edge45" class="edge">
<title>Node39&#45;&gt;Node25</title>
<path fill="none" stroke="#191970" d="M1171.4508,-451.0495C1237.1769,-446.5406 1329.9324,-440.1775 1394.758,-435.7303"/>
<polygon fill="#191970" stroke="#191970" points="1395.1769,-439.2099 1404.9138,-435.0336 1394.6977,-432.2263 1395.1769,-439.2099"/>
</g>
<!-- Node41 -->
<g id="node41" class="node">
<title>Node41</title>
<g id="a_node41"><a xlink:href="../../d5/d4f/classFun4AllMonitoring.html#a4a815a60428fa831a2b25d7ff4e48281" target="_top" xlink:title="Fun4AllMonitoring::\lGet_Memory">
<polygon fill="none" stroke="#000000" points="1231,-675.5 1231,-707.5 1345,-707.5 1345,-675.5 1231,-675.5"/>
<text text-anchor="start" x="1239" y="-694.5" font-family="FreeSans" font-size="10.00" fill="#000000">Fun4AllMonitoring::</text>
<text text-anchor="middle" x="1288" y="-682.5" font-family="FreeSans" font-size="10.00" fill="#000000">Get_Memory</text>
</a>
</g>
</g>
<!-- Node40&#45;&gt;Node41 -->
<g id="edge47" class="edge">
<title>Node40&#45;&gt;Node41</title>
<path fill="none" stroke="#191970" d="M1149.2182,-680.1709C1171.5611,-681.9948 1197.3462,-684.0997 1220.5821,-685.9965"/>
<polygon fill="#191970" stroke="#191970" points="1220.459,-689.498 1230.7107,-686.8233 1221.0286,-682.5212 1220.459,-689.498"/>
</g>
<!-- Node42 -->
<g id="node42" class="node">
<title>Node42</title>
<g id="a_node42"><a xlink:href="../../d9/dda/arsenal_8cpp.html#aa7cb820696f8a66d03330e091482020c" target="_top" xlink:title="trim">
<polygon fill="none" stroke="#000000" points="1452.5,-689.5 1452.5,-709.5 1489.5,-709.5 1489.5,-689.5 1452.5,-689.5"/>
<text text-anchor="middle" x="1471" y="-696.5" font-family="FreeSans" font-size="10.00" fill="#000000">trim</text>
</a>
</g>
</g>
<!-- Node41&#45;&gt;Node42 -->
<g id="edge48" class="edge">
<title>Node41&#45;&gt;Node42</title>
<path fill="none" stroke="#191970" d="M1345.1496,-693.9983C1377.2665,-695.4024 1415.9887,-697.0951 1441.9236,-698.2289"/>
<polygon fill="#191970" stroke="#191970" points="1442.0558,-701.7379 1452.1992,-698.6781 1442.3616,-694.7446 1442.0558,-701.7379"/>
</g>
<!-- Node42&#45;&gt;Node6 -->
<g id="edge49" class="edge">
<title>Node42&#45;&gt;Node6</title>
<path fill="none" stroke="#191970" d="M1489.5263,-699.0557C1504.3931,-697.685 1524.7398,-693.3581 1537,-680.5 1582.8085,-632.4575 1609.5213,-420.9536 1616.8938,-354.5318"/>
<polygon fill="#191970" stroke="#191970" points="1620.3809,-354.8395 1617.9792,-344.5205 1613.4217,-354.085 1620.3809,-354.8395"/>
</g>
<!-- Node47 -->
<g id="node47" class="node">
<title>Node47</title>
<g id="a_node47"><a xlink:href="../../d0/db7/namespacegen__gtest__pred__impl.html#a369482efbd71b1ddf21a4a520e8769b4" target="_top" xlink:title="gen_gtest_pred_impl.OneTo">
<polygon fill="none" stroke="#000000" points="402,-102.5 402,-122.5 558,-122.5 558,-102.5 402,-102.5"/>
<text text-anchor="middle" x="480" y="-109.5" font-family="FreeSans" font-size="10.00" fill="#000000">gen_gtest_pred_impl.OneTo</text>
</a>
</g>
</g>
<!-- Node46&#45;&gt;Node47 -->
<g id="edge55" class="edge">
<title>Node46&#45;&gt;Node47</title>
<path fill="none" stroke="#191970" d="M342.6707,-112.5C358.3995,-112.5 375.249,-112.5 391.569,-112.5"/>
<polygon fill="#191970" stroke="#191970" points="391.6474,-116.0001 401.6473,-112.5 391.6473,-109.0001 391.6474,-116.0001"/>
</g>
</g>
</svg>
