<?xml version="1.0" encoding="UTF-8" standalone="no"?>
<!DOCTYPE svg PUBLIC "-//W3C//DTD SVG 1.1//EN"
 "http://www.w3.org/Graphics/SVG/1.1/DTD/svg11.dtd">
<!-- Generated by graphviz version 2.40.1 (20161225.0304)
 -->
<!-- Title: InttClusterizer::process_event Pages: 1 -->
<svg width="812pt" height="1416pt"
 viewBox="0.00 0.00 812.00 1416.00" xmlns="http://www.w3.org/2000/svg" xmlns:xlink="http://www.w3.org/1999/xlink">
<g id="graph0" class="graph" transform="scale(1 1) rotate(0) translate(4 1412)">
<title>InttClusterizer::process_event</title>
<!-- Node1 -->
<g id="node1" class="node">
<title>Node1</title>
<polygon fill="#bfbfbf" stroke="#000000" points="0,-555.5 0,-587.5 133,-587.5 133,-555.5 0,-555.5"/>
<text text-anchor="start" x="8" y="-574.5" font-family="FreeSans" font-size="10.00" fill="#000000">InttClusterizer::process</text>
<text text-anchor="middle" x="66.5" y="-562.5" font-family="FreeSans" font-size="10.00" fill="#000000">_event</text>
</g>
<!-- Node2 -->
<g id="node2" class="node">
<title>Node2</title>
<g id="a_node2"><a xlink:href="../../d5/d86/classInttClusterizer.html#aa896d5f1adf8ac34a5ae766fd4d557bc" target="_top" xlink:title="InttClusterizer::Cluster\lLadderCells">
<polygon fill="none" stroke="#000000" points="183,-912.5 183,-944.5 313,-944.5 313,-912.5 183,-912.5"/>
<text text-anchor="start" x="191" y="-931.5" font-family="FreeSans" font-size="10.00" fill="#000000">InttClusterizer::Cluster</text>
<text text-anchor="middle" x="248" y="-919.5" font-family="FreeSans" font-size="10.00" fill="#000000">LadderCells</text>
</a>
</g>
</g>
<!-- Node1&#45;&gt;Node2 -->
<g id="edge1" class="edge">
<title>Node1&#45;&gt;Node2</title>
<path fill="none" stroke="#191970" d="M74.7703,-587.7672C103.5892,-644.4522 199.7449,-833.585 234.9452,-902.8219"/>
<polygon fill="#191970" stroke="#191970" points="232.0292,-904.8093 239.6811,-912.1372 238.269,-901.6369 232.0292,-904.8093"/>
</g>
<!-- Node26 -->
<g id="node26" class="node">
<title>Node26</title>
<g id="a_node26"><a xlink:href="../../d5/d86/classInttClusterizer.html#ac5a5a9870f03e1eb8cc4751c78caa983" target="_top" xlink:title="InttClusterizer::Cluster\lLadderCellsRaw">
<polygon fill="none" stroke="#000000" points="183,-555.5 183,-587.5 313,-587.5 313,-555.5 183,-555.5"/>
<text text-anchor="start" x="191" y="-574.5" font-family="FreeSans" font-size="10.00" fill="#000000">InttClusterizer::Cluster</text>
<text text-anchor="middle" x="248" y="-562.5" font-family="FreeSans" font-size="10.00" fill="#000000">LadderCellsRaw</text>
</a>
</g>
</g>
<!-- Node1&#45;&gt;Node26 -->
<g id="edge33" class="edge">
<title>Node1&#45;&gt;Node26</title>
<path fill="none" stroke="#191970" d="M133.0533,-571.5C146.0333,-571.5 159.7258,-571.5 172.9587,-571.5"/>
<polygon fill="#191970" stroke="#191970" points="172.969,-575.0001 182.969,-571.5 172.9689,-568.0001 172.969,-575.0001"/>
</g>
<!-- Node35 -->
<g id="node35" class="node">
<title>Node35</title>
<g id="a_node35"><a xlink:href="../../d5/d86/classInttClusterizer.html#a8d3db1fa0ba2c07d1e66e8fd31ca61fa" target="_top" xlink:title="InttClusterizer::PrintClusters">
<polygon fill="none" stroke="#000000" points="169,-80.5 169,-100.5 327,-100.5 327,-80.5 169,-80.5"/>
<text text-anchor="middle" x="248" y="-87.5" font-family="FreeSans" font-size="10.00" fill="#000000">InttClusterizer::PrintClusters</text>
</a>
</g>
</g>
<!-- Node1&#45;&gt;Node35 -->
<g id="edge57" class="edge">
<title>Node1&#45;&gt;Node35</title>
<path fill="none" stroke="#191970" d="M72.5388,-555.4963C99.6798,-483.569 210.3576,-190.2574 240.4288,-110.5648"/>
<polygon fill="#191970" stroke="#191970" points="243.864,-111.3746 244.1199,-100.7829 237.3148,-108.9033 243.864,-111.3746"/>
</g>
<!-- Node3 -->
<g id="node3" class="node">
<title>Node3</title>
<g id="a_node3"><a xlink:href="../../d7/d4f/classTrkrClusterHitAssoc.html#a0314201abed284e81c000137451628cc" target="_top" xlink:title="Add association between cluster and hit.">
<polygon fill="none" stroke="#000000" points="388.5,-1375.5 388.5,-1407.5 503.5,-1407.5 503.5,-1375.5 388.5,-1375.5"/>
<text text-anchor="start" x="396.5" y="-1394.5" font-family="FreeSans" font-size="10.00" fill="#000000">TrkrClusterHitAssoc</text>
<text text-anchor="middle" x="446" y="-1382.5" font-family="FreeSans" font-size="10.00" fill="#000000">::addAssoc</text>
</a>
</g>
</g>
<!-- Node2&#45;&gt;Node3 -->
<g id="edge2" class="edge">
<title>Node2&#45;&gt;Node3</title>
<path fill="none" stroke="#191970" d="M250.1403,-944.8284C259.8569,-1016.5981 301.9978,-1303.2739 363,-1366.5 367.5258,-1371.1908 372.8961,-1375.01 378.6955,-1378.1182"/>
<polygon fill="#191970" stroke="#191970" points="377.5543,-1381.4456 388.1024,-1382.4403 380.4769,-1375.0849 377.5543,-1381.4456"/>
</g>
<!-- Node4 -->
<g id="node4" class="node">
<title>Node4</title>
<g id="a_node4"><a xlink:href="../../d0/d23/classTrkrClusterCrossingAssoc.html#ab130bc6153e71ba29ed4386182b8d4bf" target="_top" xlink:title="Add association between cluster and hit.">
<polygon fill="none" stroke="#000000" points="374,-989.5 374,-1021.5 518,-1021.5 518,-989.5 374,-989.5"/>
<text text-anchor="start" x="382" y="-1008.5" font-family="FreeSans" font-size="10.00" fill="#000000">TrkrClusterCrossingAssoc</text>
<text text-anchor="middle" x="446" y="-996.5" font-family="FreeSans" font-size="10.00" fill="#000000">::addAssoc</text>
</a>
</g>
</g>
<!-- Node2&#45;&gt;Node4 -->
<g id="edge3" class="edge">
<title>Node2&#45;&gt;Node4</title>
<path fill="none" stroke="#191970" d="M280.7282,-944.6949C303.4801,-955.6058 334.6857,-969.8873 363,-980.5 368.1964,-982.4477 373.6178,-984.353 379.0918,-986.1877"/>
<polygon fill="#191970" stroke="#191970" points="378.3718,-989.6343 388.9642,-989.4078 380.5425,-982.9793 378.3718,-989.6343"/>
</g>
<!-- Node5 -->
<g id="node5" class="node">
<title>Node5</title>
<g id="a_node5"><a xlink:href="../../d0/d2c/classTrkrClusterContainer.html#a9b2004350d970df2cef8e85c1382c718" target="_top" xlink:title="add a cluster with specific key">
<polygon fill="none" stroke="#000000" points="379.5,-938.5 379.5,-970.5 512.5,-970.5 512.5,-938.5 379.5,-938.5"/>
<text text-anchor="start" x="387.5" y="-957.5" font-family="FreeSans" font-size="10.00" fill="#000000">TrkrClusterContainer</text>
<text text-anchor="middle" x="446" y="-945.5" font-family="FreeSans" font-size="10.00" fill="#000000">::addClusterSpecifyKey</text>
</a>
</g>
</g>
<!-- Node2&#45;&gt;Node5 -->
<g id="edge4" class="edge">
<title>Node2&#45;&gt;Node5</title>
<path fill="none" stroke="#191970" d="M313.1068,-937.0494C331.1644,-939.4206 350.9328,-942.0164 369.5734,-944.4642"/>
<polygon fill="#191970" stroke="#191970" points="369.1275,-947.9356 379.4981,-945.7674 370.039,-940.9952 369.1275,-947.9356"/>
</g>
<!-- Node6 -->
<g id="node6" class="node">
<title>Node6</title>
<g id="a_node6"><a xlink:href="../../da/d55/TPCRateLayered_8m.html#ac40e4ec8f2a74a2878f06670249eebb8" target="_top" xlink:title="double">
<polygon fill="none" stroke="#000000" points="595,-893.5 595,-913.5 646,-913.5 646,-893.5 595,-893.5"/>
<text text-anchor="middle" x="620.5" y="-900.5" font-family="FreeSans" font-size="10.00" fill="#000000">double</text>
</a>
</g>
</g>
<!-- Node2&#45;&gt;Node6 -->
<g id="edge5" class="edge">
<title>Node2&#45;&gt;Node6</title>
<path fill="none" stroke="#191970" d="M259.5443,-944.5763C278.1066,-968.8765 317.1861,-1013.9828 363,-1031.5 431.9122,-1057.849 463.393,-1065.2472 529,-1031.5 573.5445,-1008.587 601.2229,-952.8209 613.3417,-923.0258"/>
<polygon fill="#191970" stroke="#191970" points="616.619,-924.255 616.9815,-913.6664 610.0949,-921.7178 616.619,-924.255"/>
</g>
<!-- Node7 -->
<g id="node7" class="node">
<title>Node7</title>
<g id="a_node7"><a xlink:href="../../d9/dcb/classCylinderGeomIntt.html#a7ed9ab9de910f1e8c0751b972f906a62" target="_top" xlink:title="CylinderGeomIntt::find\l_strip_center_localcoords">
<polygon fill="none" stroke="#000000" points="373.5,-887.5 373.5,-919.5 518.5,-919.5 518.5,-887.5 373.5,-887.5"/>
<text text-anchor="start" x="381.5" y="-906.5" font-family="FreeSans" font-size="10.00" fill="#000000">CylinderGeomIntt::find</text>
<text text-anchor="middle" x="446" y="-894.5" font-family="FreeSans" font-size="10.00" fill="#000000">_strip_center_localcoords</text>
</a>
</g>
</g>
<!-- Node2&#45;&gt;Node7 -->
<g id="edge6" class="edge">
<title>Node2&#45;&gt;Node7</title>
<path fill="none" stroke="#191970" d="M313.1068,-920.2794C329.0682,-918.2641 346.3662,-916.08 363.0406,-913.9747"/>
<polygon fill="#191970" stroke="#191970" points="363.8418,-917.4014 373.3246,-912.6762 362.9649,-910.4565 363.8418,-917.4014"/>
</g>
<!-- Node8 -->
<g id="node8" class="node">
<title>Node8</title>
<g id="a_node8"><a xlink:href="../../d6/d3f/namespaceTrkrDefs.html#a5cc3b1fa8e62e3fc5fb698fe1991cfae" target="_top" xlink:title="generate cluster key from hitset key and cluster index">
<polygon fill="none" stroke="#000000" points="383.5,-680.5 383.5,-700.5 508.5,-700.5 508.5,-680.5 383.5,-680.5"/>
<text text-anchor="middle" x="446" y="-687.5" font-family="FreeSans" font-size="10.00" fill="#000000">TrkrDefs::genClusKey</text>
</a>
</g>
</g>
<!-- Node2&#45;&gt;Node8 -->
<g id="edge8" class="edge">
<title>Node2&#45;&gt;Node8</title>
<path fill="none" stroke="#191970" d="M251.6288,-912.4024C261.6647,-871.747 293.7507,-764.3463 363,-710.5 366.4226,-707.8387 370.1466,-705.5245 374.0585,-703.5127"/>
<polygon fill="#191970" stroke="#191970" points="375.7452,-706.5937 383.4737,-699.3466 372.9127,-700.1924 375.7452,-706.5937"/>
</g>
<!-- Node10 -->
<g id="node10" class="node">
<title>Node10</title>
<g id="a_node10"><a xlink:href="../../d9/dcb/classCylinderGeomIntt.html#a662fa555e2a48dd1f6d08080e77e25f4" target="_top" xlink:title="CylinderGeomIntt::get\l_strip_y_spacing">
<polygon fill="none" stroke="#000000" points="381.5,-629.5 381.5,-661.5 510.5,-661.5 510.5,-629.5 381.5,-629.5"/>
<text text-anchor="start" x="389.5" y="-648.5" font-family="FreeSans" font-size="10.00" fill="#000000">CylinderGeomIntt::get</text>
<text text-anchor="middle" x="446" y="-636.5" font-family="FreeSans" font-size="10.00" fill="#000000">_strip_y_spacing</text>
</a>
</g>
</g>
<!-- Node2&#45;&gt;Node10 -->
<g id="edge10" class="edge">
<title>Node2&#45;&gt;Node10</title>
<path fill="none" stroke="#191970" d="M250.542,-912.2343C258.4531,-867.1084 286.8372,-739.223 363,-671.5 365.9621,-668.8661 369.1895,-666.499 372.5965,-664.3716"/>
<polygon fill="#191970" stroke="#191970" points="374.2941,-667.4325 381.3868,-659.5621 370.9341,-661.2916 374.2941,-667.4325"/>
</g>
<!-- Node11 -->
<g id="node11" class="node">
<title>Node11</title>
<g id="a_node11"><a xlink:href="../../d9/dcb/classCylinderGeomIntt.html#af67cd76b705907e366732676ff648f12" target="_top" xlink:title="CylinderGeomIntt::get\l_strip_z_spacing">
<polygon fill="none" stroke="#000000" points="381.5,-578.5 381.5,-610.5 510.5,-610.5 510.5,-578.5 381.5,-578.5"/>
<text text-anchor="start" x="389.5" y="-597.5" font-family="FreeSans" font-size="10.00" fill="#000000">CylinderGeomIntt::get</text>
<text text-anchor="middle" x="446" y="-585.5" font-family="FreeSans" font-size="10.00" fill="#000000">_strip_z_spacing</text>
</a>
</g>
</g>
<!-- Node2&#45;&gt;Node11 -->
<g id="edge11" class="edge">
<title>Node2&#45;&gt;Node11</title>
<path fill="none" stroke="#191970" d="M249.1744,-912.428C253.7427,-861.8138 274.7527,-704.1249 363,-620.5 365.9371,-617.7167 369.1688,-615.2313 372.6011,-613.0118"/>
<polygon fill="#191970" stroke="#191970" points="374.4834,-615.969 381.4929,-608.0243 371.0589,-609.8638 374.4834,-615.969"/>
</g>
<!-- Node12 -->
<g id="node12" class="node">
<title>Node12</title>
<g id="a_node12"><a xlink:href="../../d6/d9e/namespaceInttDefs.html#a70039b392cd393f5812981f69a73c94b" target="_top" xlink:title="Get the time bucket id from the cluskey.">
<polygon fill="none" stroke="#000000" points="573,-1124.5 573,-1144.5 668,-1144.5 668,-1124.5 573,-1124.5"/>
<text text-anchor="middle" x="620.5" y="-1131.5" font-family="FreeSans" font-size="10.00" fill="#000000">InttDefs::getCol</text>
</a>
</g>
</g>
<!-- Node2&#45;&gt;Node12 -->
<g id="edge12" class="edge">
<title>Node2&#45;&gt;Node12</title>
<path fill="none" stroke="#191970" d="M250.8002,-944.5386C259.0877,-986.49 287.7895,-1099.3368 363,-1144.5 431.822,-1185.8269 530.6734,-1164.3072 583.6464,-1147.7383"/>
<polygon fill="#191970" stroke="#191970" points="584.8604,-1151.0242 593.2965,-1144.6146 582.7047,-1144.3644 584.8604,-1151.0242"/>
</g>
<!-- Node13 -->
<g id="node13" class="node">
<title>Node13</title>
<g id="a_node13"><a xlink:href="../../d9/dc1/classTrkrHitSet.html#a2a362e326ba49a53a7675dc4c9b39c2a" target="_top" xlink:title="Get all hits.">
<polygon fill="none" stroke="#000000" points="391,-1336.5 391,-1356.5 501,-1356.5 501,-1336.5 391,-1336.5"/>
<text text-anchor="middle" x="446" y="-1343.5" font-family="FreeSans" font-size="10.00" fill="#000000">TrkrHitSet::getHits</text>
</a>
</g>
</g>
<!-- Node2&#45;&gt;Node13 -->
<g id="edge14" class="edge">
<title>Node2&#45;&gt;Node13</title>
<path fill="none" stroke="#191970" d="M250.4704,-944.8347C261.0767,-1012.8399 304.8666,-1272.5109 363,-1327.5 368.3159,-1332.5284 374.6792,-1336.3225 381.4862,-1339.1718"/>
<polygon fill="#191970" stroke="#191970" points="380.3918,-1342.4969 390.9866,-1342.4986 382.7053,-1335.8903 380.3918,-1342.4969"/>
</g>
<!-- Node14 -->
<g id="node14" class="node">
<title>Node14</title>
<g id="a_node14"><a xlink:href="../../d9/dc1/classTrkrHitSet.html#acffcc2223e9568b469109de4790fd734" target="_top" xlink:title="Get the key for this object.">
<polygon fill="none" stroke="#000000" points="376,-1297.5 376,-1317.5 516,-1317.5 516,-1297.5 376,-1297.5"/>
<text text-anchor="middle" x="446" y="-1304.5" font-family="FreeSans" font-size="10.00" fill="#000000">TrkrHitSet::getHitSetKey</text>
</a>
</g>
</g>
<!-- Node2&#45;&gt;Node14 -->
<g id="edge15" class="edge">
<title>Node2&#45;&gt;Node14</title>
<path fill="none" stroke="#191970" d="M250.9487,-944.5242C262.9128,-1007.8443 309.7438,-1239.5473 363,-1288.5 364.3094,-1289.7036 365.679,-1290.836 367.1004,-1291.9013"/>
<polygon fill="#191970" stroke="#191970" points="365.4097,-1294.9718 375.7464,-1297.2965 369.1155,-1289.0332 365.4097,-1294.9718"/>
</g>
<!-- Node15 -->
<g id="node15" class="node">
<title>Node15</title>
<g id="a_node15"><a xlink:href="../../d5/d76/classTrkrHitSetContainer.html#a0e347bd66bf03e9a34651410a79d5cab" target="_top" xlink:title="return all HitSets matching a given detid">
<polygon fill="none" stroke="#000000" points="387.5,-1246.5 387.5,-1278.5 504.5,-1278.5 504.5,-1246.5 387.5,-1246.5"/>
<text text-anchor="start" x="395.5" y="-1265.5" font-family="FreeSans" font-size="10.00" fill="#000000">TrkrHitSetContainer</text>
<text text-anchor="middle" x="446" y="-1253.5" font-family="FreeSans" font-size="10.00" fill="#000000">::getHitSets</text>
</a>
</g>
</g>
<!-- Node2&#45;&gt;Node15 -->
<g id="edge16" class="edge">
<title>Node2&#45;&gt;Node15</title>
<path fill="none" stroke="#191970" d="M249.1179,-944.6643C253.5184,-995.5621 274.0851,-1154.078 363,-1237.5 367.4294,-1241.6558 372.5252,-1245.1226 377.967,-1248.0144"/>
<polygon fill="#191970" stroke="#191970" points="376.8485,-1251.3526 387.3955,-1252.3583 379.7777,-1244.9949 376.8485,-1251.3526"/>
</g>
<!-- Node16 -->
<g id="node16" class="node">
<title>Node16</title>
<g id="a_node16"><a xlink:href="../../d6/d9e/namespaceInttDefs.html#aeb0f2c2a834c11791925bdffc211526d" target="_top" xlink:title="Get the ladder id from hitsetkey.">
<polygon fill="none" stroke="#000000" points="381,-539.5 381,-559.5 511,-559.5 511,-539.5 381,-539.5"/>
<text text-anchor="middle" x="446" y="-546.5" font-family="FreeSans" font-size="10.00" fill="#000000">InttDefs::getLadderZId</text>
</a>
</g>
</g>
<!-- Node2&#45;&gt;Node16 -->
<g id="edge17" class="edge">
<title>Node2&#45;&gt;Node16</title>
<path fill="none" stroke="#191970" d="M251.0539,-912.1055C263.2358,-848.4116 310.2577,-618.4991 363,-569.5 365.7691,-566.9275 368.81,-564.669 372.0412,-562.6875"/>
<polygon fill="#191970" stroke="#191970" points="373.7075,-565.7662 380.9826,-558.064 370.4922,-559.5483 373.7075,-565.7662"/>
</g>
<!-- Node17 -->
<g id="node17" class="node">
<title>Node17</title>
<g id="a_node17"><a xlink:href="../../d6/d3f/namespaceTrkrDefs.html#ad4a7fd368bbf1d5d97ff4fd3e81a6100" target="_top" xlink:title="Get the layer number from either key type.">
<polygon fill="none" stroke="#000000" points="390.5,-809.5 390.5,-829.5 501.5,-829.5 501.5,-809.5 390.5,-809.5"/>
<text text-anchor="middle" x="446" y="-816.5" font-family="FreeSans" font-size="10.00" fill="#000000">TrkrDefs::getLayer</text>
</a>
</g>
</g>
<!-- Node2&#45;&gt;Node17 -->
<g id="edge19" class="edge">
<title>Node2&#45;&gt;Node17</title>
<path fill="none" stroke="#191970" d="M264.0102,-912.4604C284.9502,-892.4004 323.626,-858.4007 363,-839.5 368.6122,-836.806 374.617,-834.4576 380.7344,-832.414"/>
<polygon fill="#191970" stroke="#191970" points="381.8671,-835.7276 390.4001,-829.4475 379.8133,-829.0356 381.8671,-835.7276"/>
</g>
<!-- Node18 -->
<g id="node18" class="node">
<title>Node18</title>
<g id="a_node18"><a xlink:href="../../d4/de7/classPHG4CylinderGeomContainer.html#a08321019aaff5f57cd416b64d0f536bf" target="_top" xlink:title="PHG4CylinderGeomContainer\l::GetLayerGeom">
<polygon fill="none" stroke="#000000" points="363,-758.5 363,-790.5 529,-790.5 529,-758.5 363,-758.5"/>
<text text-anchor="start" x="371" y="-777.5" font-family="FreeSans" font-size="10.00" fill="#000000">PHG4CylinderGeomContainer</text>
<text text-anchor="middle" x="446" y="-765.5" font-family="FreeSans" font-size="10.00" fill="#000000">::GetLayerGeom</text>
</a>
</g>
</g>
<!-- Node2&#45;&gt;Node18 -->
<g id="edge21" class="edge">
<title>Node2&#45;&gt;Node18</title>
<path fill="none" stroke="#191970" d="M258.3175,-912.1986C276.3043,-885.08 316.0046,-830.7027 363,-800.5 366.1718,-798.4616 369.5144,-796.5735 372.9644,-794.8257"/>
<polygon fill="#191970" stroke="#191970" points="374.6877,-797.8854 382.3039,-790.5203 371.7571,-791.5283 374.6877,-797.8854"/>
</g>
<!-- Node19 -->
<g id="node19" class="node">
<title>Node19</title>
<g id="a_node19"><a xlink:href="../../d6/d9e/namespaceInttDefs.html#af05e3c5a7a065fbbf4c515698cecbfda" target="_top" xlink:title="Get the row index from hitkey.">
<polygon fill="none" stroke="#000000" points="570.5,-1085.5 570.5,-1105.5 670.5,-1105.5 670.5,-1085.5 570.5,-1085.5"/>
<text text-anchor="middle" x="620.5" y="-1092.5" font-family="FreeSans" font-size="10.00" fill="#000000">InttDefs::getRow</text>
</a>
</g>
</g>
<!-- Node2&#45;&gt;Node19 -->
<g id="edge22" class="edge">
<title>Node2&#45;&gt;Node19</title>
<path fill="none" stroke="#191970" d="M251.8187,-944.5743C262.0261,-983.4598 293.9889,-1082.2873 363,-1121.5 427.1458,-1157.9482 455.928,-1131.6803 529,-1121.5 547.1504,-1118.9713 566.7581,-1113.7495 583.1492,-1108.6445"/>
<polygon fill="#191970" stroke="#191970" points="584.4513,-1111.9023 592.8976,-1105.5061 582.3061,-1105.2391 584.4513,-1111.9023"/>
</g>
<!-- Node20 -->
<g id="node20" class="node">
<title>Node20</title>
<g id="a_node20"><a xlink:href="../../d6/d9e/namespaceInttDefs.html#a94f7ef29a6e0adaaa9d7037661cc67eb" target="_top" xlink:title="Generate a hitkey from a strip id.">
<polygon fill="none" stroke="#000000" points="372,-719.5 372,-739.5 520,-739.5 520,-719.5 372,-719.5"/>
<text text-anchor="middle" x="446" y="-726.5" font-family="FreeSans" font-size="10.00" fill="#000000">InttDefs::getTimeBucketId</text>
</a>
</g>
</g>
<!-- Node2&#45;&gt;Node20 -->
<g id="edge24" class="edge">
<title>Node2&#45;&gt;Node20</title>
<path fill="none" stroke="#191970" d="M253.5564,-912.4315C266.6511,-877.0564 302.9443,-792.2022 363,-749.5 366.0162,-747.3554 369.2336,-745.4388 372.5842,-743.7263"/>
<polygon fill="#191970" stroke="#191970" points="374.0107,-746.9225 381.7182,-739.653 371.1596,-740.5294 374.0107,-746.9225"/>
</g>
<!-- Node21 -->
<g id="node21" class="node">
<title>Node21</title>
<g id="a_node21"><a xlink:href="../../d9/d24/classPHObject.html#a83a7b0e5681a0f4f92814692f1bf3375" target="_top" xlink:title="PHObject::identify">
<polygon fill="none" stroke="#000000" points="392,-848.5 392,-868.5 500,-868.5 500,-848.5 392,-848.5"/>
<text text-anchor="middle" x="446" y="-855.5" font-family="FreeSans" font-size="10.00" fill="#000000">PHObject::identify</text>
</a>
</g>
</g>
<!-- Node2&#45;&gt;Node21 -->
<g id="edge26" class="edge">
<title>Node2&#45;&gt;Node21</title>
<path fill="none" stroke="#191970" d="M281.1128,-912.2747C303.7726,-901.6287 334.7192,-887.9754 363,-878.5 371.0812,-875.7924 379.7195,-873.2921 388.2569,-871.0426"/>
<polygon fill="#191970" stroke="#191970" points="389.3622,-874.3731 398.1933,-868.5197 387.6395,-867.5884 389.3622,-874.3731"/>
</g>
<!-- Node22 -->
<g id="node22" class="node">
<title>Node22</title>
<g id="a_node22"><a xlink:href="../../d9/dc1/classTrkrHitSet.html#acfd901e60a6d01d3c38a997d269517e7" target="_top" xlink:title="TObject functions.">
<polygon fill="none" stroke="#000000" points="390,-1207.5 390,-1227.5 502,-1227.5 502,-1207.5 390,-1207.5"/>
<text text-anchor="middle" x="446" y="-1214.5" font-family="FreeSans" font-size="10.00" fill="#000000">TrkrHitSet::identify</text>
</a>
</g>
</g>
<!-- Node2&#45;&gt;Node22 -->
<g id="edge27" class="edge">
<title>Node2&#45;&gt;Node22</title>
<path fill="none" stroke="#191970" d="M250.2536,-944.5821C257.5359,-990.4286 284.6938,-1122.9468 363,-1192.5 368.1406,-1197.066 374.0899,-1200.7985 380.3956,-1203.8495"/>
<polygon fill="#191970" stroke="#191970" points="379.2633,-1207.171 389.8364,-1207.8499 381.9944,-1200.7257 379.2633,-1207.171"/>
</g>
<!-- Node23 -->
<g id="node23" class="node">
<title>Node23</title>
<g id="a_node23"><a xlink:href="../../d5/d86/classInttClusterizer.html#a99382d96d93dd08d984581b2c22a4aa8" target="_top" xlink:title="InttClusterizer::ladder\l_are_adjacent">
<polygon fill="none" stroke="#000000" points="382.5,-1079.5 382.5,-1111.5 509.5,-1111.5 509.5,-1079.5 382.5,-1079.5"/>
<text text-anchor="start" x="390.5" y="-1098.5" font-family="FreeSans" font-size="10.00" fill="#000000">InttClusterizer::ladder</text>
<text text-anchor="middle" x="446" y="-1086.5" font-family="FreeSans" font-size="10.00" fill="#000000">_are_adjacent</text>
</a>
</g>
</g>
<!-- Node2&#45;&gt;Node23 -->
<g id="edge28" class="edge">
<title>Node2&#45;&gt;Node23</title>
<path fill="none" stroke="#191970" d="M257.6869,-944.66C275.3008,-972.7689 315.2055,-1030.8703 363,-1064.5 368.6629,-1068.4846 374.9007,-1072.0264 381.336,-1075.158"/>
<polygon fill="#191970" stroke="#191970" points="380.3074,-1078.5336 390.862,-1079.4563 383.1865,-1072.1531 380.3074,-1078.5336"/>
</g>
<!-- Node25 -->
<g id="node25" class="node">
<title>Node25</title>
<g id="a_node25"><a xlink:href="../../d5/dec/classFun4AllBase.html#a8a5c77a92bdac6bc043476e132379a40" target="_top" xlink:title="Gets the verbosity of this module.">
<polygon fill="none" stroke="#000000" points="380,-102.5 380,-122.5 512,-122.5 512,-102.5 380,-102.5"/>
<text text-anchor="middle" x="446" y="-109.5" font-family="FreeSans" font-size="10.00" fill="#000000">Fun4AllBase::Verbosity</text>
</a>
</g>
</g>
<!-- Node2&#45;&gt;Node25 -->
<g id="edge32" class="edge">
<title>Node2&#45;&gt;Node25</title>
<path fill="none" stroke="#191970" d="M252.7721,-912.4915C266.7315,-864.9681 307.7157,-720.3577 327,-597.5 335.0529,-546.1961 329.0927,-170.8349 363,-131.5 365.3888,-128.7288 368.0915,-126.3159 371.0251,-124.2178"/>
<polygon fill="#191970" stroke="#191970" points="372.9442,-127.1508 379.8348,-119.1027 369.4294,-121.0972 372.9442,-127.1508"/>
</g>
<!-- Node7&#45;&gt;Node6 -->
<g id="edge7" class="edge">
<title>Node7&#45;&gt;Node6</title>
<path fill="none" stroke="#191970" d="M518.7401,-903.5C541.6226,-903.5 565.8751,-903.5 584.9619,-903.5"/>
<polygon fill="#191970" stroke="#191970" points="584.9927,-907.0001 594.9927,-903.5 584.9926,-900.0001 584.9927,-907.0001"/>
</g>
<!-- Node9 -->
<g id="node9" class="node">
<title>Node9</title>
<g id="a_node9"><a xlink:href="../../dd/d7e/namespaceActs_1_1Test.html#a88f0887efddd644c8defc1e91456c3c9" target="_top" xlink:title="Acts::Test::tmp">
<polygon fill="none" stroke="#000000" points="712,-719.5 712,-739.5 804,-739.5 804,-719.5 712,-719.5"/>
<text text-anchor="middle" x="758" y="-726.5" font-family="FreeSans" font-size="10.00" fill="#000000">Acts::Test::tmp</text>
</a>
</g>
</g>
<!-- Node8&#45;&gt;Node9 -->
<g id="edge9" class="edge">
<title>Node8&#45;&gt;Node9</title>
<path fill="none" stroke="#191970" d="M508.7625,-698.3453C565.0999,-705.3875 647.0627,-715.6328 701.4188,-722.4274"/>
<polygon fill="#191970" stroke="#191970" points="701.2132,-725.9288 711.5702,-723.6963 702.0815,-718.9829 701.2132,-725.9288"/>
</g>
<!-- Node12&#45;&gt;Node9 -->
<g id="edge13" class="edge">
<title>Node12&#45;&gt;Node9</title>
<path fill="none" stroke="#191970" d="M664.457,-1124.4991C668.7801,-1122.1132 672.7577,-1119.1586 676,-1115.5 725.2832,-1059.8886 749.9227,-821.3683 756.2964,-749.848"/>
<polygon fill="#191970" stroke="#191970" points="759.8152,-749.7813 757.1922,-739.5164 752.8414,-749.1766 759.8152,-749.7813"/>
</g>
<!-- Node16&#45;&gt;Node9 -->
<g id="edge18" class="edge">
<title>Node16&#45;&gt;Node9</title>
<path fill="none" stroke="#191970" d="M500.554,-559.559C510.2429,-562.2078 520.0802,-565.4829 529,-569.5 614.5143,-608.012 701.5026,-679.636 738.9449,-712.3739"/>
<polygon fill="#191970" stroke="#191970" points="736.7548,-715.1092 746.5679,-719.1034 741.3874,-709.8614 736.7548,-715.1092"/>
</g>
<!-- Node17&#45;&gt;Node9 -->
<g id="edge20" class="edge">
<title>Node17&#45;&gt;Node9</title>
<path fill="none" stroke="#191970" d="M492.6853,-809.4644C504.5723,-806.7308 517.2947,-803.6495 529,-800.5 596.076,-782.4521 673.0124,-757.7636 718.4509,-742.7613"/>
<polygon fill="#191970" stroke="#191970" points="719.8102,-745.9981 728.2021,-739.5307 717.6087,-739.3533 719.8102,-745.9981"/>
</g>
<!-- Node19&#45;&gt;Node9 -->
<g id="edge23" class="edge">
<title>Node19&#45;&gt;Node9</title>
<path fill="none" stroke="#191970" d="M664.375,-1085.4257C668.7129,-1083.0529 672.7164,-1080.1215 676,-1076.5 720.7107,-1027.1888 748.1701,-815.842 755.8096,-749.503"/>
<polygon fill="#191970" stroke="#191970" points="759.2944,-749.834 756.936,-739.505 752.3384,-749.0503 759.2944,-749.834"/>
</g>
<!-- Node20&#45;&gt;Node9 -->
<g id="edge25" class="edge">
<title>Node20&#45;&gt;Node9</title>
<path fill="none" stroke="#191970" d="M520.3354,-729.5C575.9811,-729.5 650.9332,-729.5 701.676,-729.5"/>
<polygon fill="#191970" stroke="#191970" points="701.8047,-733.0001 711.8046,-729.5 701.8046,-726.0001 701.8047,-733.0001"/>
</g>
<!-- Node23&#45;&gt;Node12 -->
<g id="edge30" class="edge">
<title>Node23&#45;&gt;Node12</title>
<path fill="none" stroke="#191970" d="M509.9865,-1109.8007C528.2003,-1113.8714 547.8732,-1118.2682 565.5018,-1122.2081"/>
<polygon fill="#191970" stroke="#191970" points="565.0959,-1125.7037 575.6186,-1124.4692 566.6228,-1118.8722 565.0959,-1125.7037"/>
</g>
<!-- Node23&#45;&gt;Node19 -->
<g id="edge31" class="edge">
<title>Node23&#45;&gt;Node19</title>
<path fill="none" stroke="#191970" d="M509.9865,-1095.5C526.3438,-1095.5 543.878,-1095.5 560.0513,-1095.5"/>
<polygon fill="#191970" stroke="#191970" points="560.457,-1099.0001 570.457,-1095.5 560.4569,-1092.0001 560.457,-1099.0001"/>
</g>
<!-- Node24 -->
<g id="node24" class="node">
<title>Node24</title>
<g id="a_node24"><a xlink:href="../../d5/d86/classInttClusterizer.html#aae93fa4e2cd2724a8f1731364ff88dda" target="_top" xlink:title="InttClusterizer::get\l_z_clustering">
<polygon fill="none" stroke="#000000" points="565,-1034.5 565,-1066.5 676,-1066.5 676,-1034.5 565,-1034.5"/>
<text text-anchor="start" x="573" y="-1053.5" font-family="FreeSans" font-size="10.00" fill="#000000">InttClusterizer::get</text>
<text text-anchor="middle" x="620.5" y="-1041.5" font-family="FreeSans" font-size="10.00" fill="#000000">_z_clustering</text>
</a>
</g>
</g>
<!-- Node23&#45;&gt;Node24 -->
<g id="edge29" class="edge">
<title>Node23&#45;&gt;Node24</title>
<path fill="none" stroke="#191970" d="M508.5056,-1079.3811C523.5874,-1075.4918 539.7445,-1071.3252 554.9609,-1067.4012"/>
<polygon fill="#191970" stroke="#191970" points="555.9944,-1070.7493 564.8036,-1064.863 554.2464,-1063.971 555.9944,-1070.7493"/>
</g>
<!-- Node26&#45;&gt;Node4 -->
<g id="edge34" class="edge">
<title>Node26&#45;&gt;Node4</title>
<path fill="none" stroke="#191970" d="M251.585,-587.6925C267.7189,-659.9904 334.0633,-951.024 363,-980.5 363.9488,-981.4665 364.9336,-982.396 365.9504,-983.2898"/>
<polygon fill="#191970" stroke="#191970" points="364.1919,-986.3421 374.3153,-989.4675 368.3505,-980.7112 364.1919,-986.3421"/>
</g>
<!-- Node26&#45;&gt;Node5 -->
<g id="edge35" class="edge">
<title>Node26&#45;&gt;Node5</title>
<path fill="none" stroke="#191970" d="M251.1432,-587.7629C263.6589,-650.958 311.7621,-879.1891 363,-929.5 365.3624,-931.8196 367.9317,-933.9252 370.6549,-935.8364"/>
<polygon fill="#191970" stroke="#191970" points="368.862,-938.8423 379.2334,-941.0064 372.4753,-932.8469 368.862,-938.8423"/>
</g>
<!-- Node26&#45;&gt;Node6 -->
<g id="edge38" class="edge">
<title>Node26&#45;&gt;Node6</title>
<path fill="none" stroke="#191970" d="M256.2927,-555.0638C272.245,-525.5294 310.3437,-464.3424 363,-440.5 430.2091,-410.0682 471.998,-393.6605 529,-440.5 598.9845,-498.0074 616.3343,-801.5465 619.7641,-883.2382"/>
<polygon fill="#191970" stroke="#191970" points="616.2672,-883.3903 620.1597,-893.2442 623.2618,-883.1137 616.2672,-883.3903"/>
</g>
<!-- Node26&#45;&gt;Node7 -->
<g id="edge39" class="edge">
<title>Node26&#45;&gt;Node7</title>
<path fill="none" stroke="#191970" d="M249.1532,-587.5621C253.6585,-638.1375 274.5022,-795.6461 363,-878.5 364.1329,-879.5607 365.3093,-880.5765 366.5237,-881.5493"/>
<polygon fill="#191970" stroke="#191970" points="364.8038,-884.6131 375.0348,-887.3656 368.7533,-878.8337 364.8038,-884.6131"/>
</g>
<!-- Node26&#45;&gt;Node8 -->
<g id="edge40" class="edge">
<title>Node26&#45;&gt;Node8</title>
<path fill="none" stroke="#191970" d="M261.8306,-587.7486C281.8205,-610.1469 321.0199,-650.1549 363,-671.5 367.2249,-673.6482 371.6934,-675.5563 376.2783,-677.2508"/>
<polygon fill="#191970" stroke="#191970" points="375.2182,-680.5867 385.812,-680.4374 377.4373,-673.9478 375.2182,-680.5867"/>
</g>
<!-- Node26&#45;&gt;Node10 -->
<g id="edge41" class="edge">
<title>Node26&#45;&gt;Node10</title>
<path fill="none" stroke="#191970" d="M282.8317,-587.5278C305.4323,-597.6309 335.6592,-610.5918 363,-620.5 368.4384,-622.4709 374.1149,-624.4135 379.8353,-626.2919"/>
<polygon fill="#191970" stroke="#191970" points="378.8782,-629.6606 389.4695,-629.3863 381.0189,-622.9959 378.8782,-629.6606"/>
</g>
<!-- Node26&#45;&gt;Node11 -->
<g id="edge42" class="edge">
<title>Node26&#45;&gt;Node11</title>
<path fill="none" stroke="#191970" d="M313.1068,-579.0629C331.6421,-581.216 351.9799,-583.5785 371.0504,-585.7937"/>
<polygon fill="#191970" stroke="#191970" points="370.8549,-589.2945 381.192,-586.9718 371.6627,-582.3412 370.8549,-589.2945"/>
</g>
<!-- Node26&#45;&gt;Node16 -->
<g id="edge46" class="edge">
<title>Node26&#45;&gt;Node16</title>
<path fill="none" stroke="#191970" d="M313.1068,-564.2659C331.5465,-562.2171 351.7703,-559.97 370.7554,-557.8605"/>
<polygon fill="#191970" stroke="#191970" points="371.3017,-561.3214 380.854,-556.7384 370.5287,-554.3643 371.3017,-561.3214"/>
</g>
<!-- Node26&#45;&gt;Node17 -->
<g id="edge47" class="edge">
<title>Node26&#45;&gt;Node17</title>
<path fill="none" stroke="#191970" d="M251.1288,-587.5143C260.2208,-629.5681 290.7195,-743.7956 363,-800.5 368.3137,-804.6686 374.3744,-807.9545 380.7461,-810.5399"/>
<polygon fill="#191970" stroke="#191970" points="379.6584,-813.8672 390.2533,-813.8479 381.9588,-807.256 379.6584,-813.8672"/>
</g>
<!-- Node26&#45;&gt;Node18 -->
<g id="edge48" class="edge">
<title>Node26&#45;&gt;Node18</title>
<path fill="none" stroke="#191970" d="M253.9655,-587.762C267.6402,-622.7609 304.6358,-705.6014 363,-749.5 364.8567,-750.8965 366.7912,-752.2155 368.7875,-753.4612"/>
<polygon fill="#191970" stroke="#191970" points="367.4373,-756.713 377.8859,-758.4672 370.8117,-750.5801 367.4373,-756.713"/>
</g>
<!-- Node26&#45;&gt;Node20 -->
<g id="edge51" class="edge">
<title>Node26&#45;&gt;Node20</title>
<path fill="none" stroke="#191970" d="M256.6272,-587.7625C273.1233,-617.1864 312.0732,-679.1135 363,-710.5 366.1422,-712.4365 369.461,-714.1761 372.8921,-715.7386"/>
<polygon fill="#191970" stroke="#191970" points="371.6085,-718.9948 382.1924,-719.475 374.2181,-712.4993 371.6085,-718.9948"/>
</g>
<!-- Node26&#45;&gt;Node21 -->
<g id="edge52" class="edge">
<title>Node26&#45;&gt;Node21</title>
<path fill="none" stroke="#191970" d="M249.8964,-587.7524C256.2736,-634.6829 281.3542,-771.3915 363,-839.5 368.6189,-844.1873 375.1681,-847.7723 382.0777,-850.506"/>
<polygon fill="#191970" stroke="#191970" points="381.0758,-853.8616 391.6698,-853.7298 383.3058,-847.2263 381.0758,-853.8616"/>
</g>
<!-- Node26&#45;&gt;Node23 -->
<g id="edge54" class="edge">
<title>Node26&#45;&gt;Node23</title>
<path fill="none" stroke="#191970" d="M251.7209,-587.6403C270.0356,-666.9127 350.238,-1011.998 363,-1031.5 374.1811,-1048.5861 391.5084,-1062.9906 407.4451,-1073.7813"/>
<polygon fill="#191970" stroke="#191970" points="405.8131,-1076.8944 416.1078,-1079.3984 409.6215,-1071.0211 405.8131,-1076.8944"/>
</g>
<!-- Node26&#45;&gt;Node25 -->
<g id="edge56" class="edge">
<title>Node26&#45;&gt;Node25</title>
<path fill="none" stroke="#191970" d="M249.9658,-555.4796C259.0835,-483.7662 299.5214,-193.0649 363,-131.5 365.4406,-129.1329 368.1127,-127.0378 370.9549,-125.1849"/>
<polygon fill="#191970" stroke="#191970" points="372.8047,-128.1635 379.9306,-120.3231 369.4706,-122.0085 372.8047,-128.1635"/>
</g>
<!-- Node27 -->
<g id="node27" class="node">
<title>Node27</title>
<g id="a_node27"><a xlink:href="../../dd/d2b/classClusHitsVerbosev1.html#ac1472961980ebac047d69ae02ee3c87c" target="_top" xlink:title="ClusHitsVerbosev1::\laddPhiHit">
<polygon fill="none" stroke="#000000" points="387.5,-231.5 387.5,-263.5 504.5,-263.5 504.5,-231.5 387.5,-231.5"/>
<text text-anchor="start" x="395.5" y="-250.5" font-family="FreeSans" font-size="10.00" fill="#000000">ClusHitsVerbosev1::</text>
<text text-anchor="middle" x="446" y="-238.5" font-family="FreeSans" font-size="10.00" fill="#000000">addPhiHit</text>
</a>
</g>
</g>
<!-- Node26&#45;&gt;Node27 -->
<g id="edge36" class="edge">
<title>Node26&#45;&gt;Node27</title>
<path fill="none" stroke="#191970" d="M249.4221,-555.2415C254.6482,-505.5022 277.2231,-353.897 363,-273.5 367.4465,-269.3324 372.554,-265.8326 378.0034,-262.8937"/>
<polygon fill="#191970" stroke="#191970" points="379.8794,-265.8793 387.4411,-258.4583 376.902,-259.5441 379.8794,-265.8793"/>
</g>
<!-- Node28 -->
<g id="node28" class="node">
<title>Node28</title>
<g id="a_node28"><a xlink:href="../../dd/d2b/classClusHitsVerbosev1.html#a07f0b360615bcd898336e596811e71bf" target="_top" xlink:title="ClusHitsVerbosev1::\laddZHit">
<polygon fill="none" stroke="#000000" points="387.5,-180.5 387.5,-212.5 504.5,-212.5 504.5,-180.5 387.5,-180.5"/>
<text text-anchor="start" x="395.5" y="-199.5" font-family="FreeSans" font-size="10.00" fill="#000000">ClusHitsVerbosev1::</text>
<text text-anchor="middle" x="446" y="-187.5" font-family="FreeSans" font-size="10.00" fill="#000000">addZHit</text>
</a>
</g>
</g>
<!-- Node26&#45;&gt;Node28 -->
<g id="edge37" class="edge">
<title>Node26&#45;&gt;Node28</title>
<path fill="none" stroke="#191970" d="M251.2822,-555.1731C264.1261,-492.787 312.7499,-270.5143 363,-221.5 367.3479,-217.259 372.3879,-213.7338 377.7935,-210.8042"/>
<polygon fill="#191970" stroke="#191970" points="379.6031,-213.8219 387.1786,-206.4149 376.6375,-207.4811 379.6031,-213.8219"/>
</g>
<!-- Node29 -->
<g id="node29" class="node">
<title>Node29</title>
<g id="a_node29"><a xlink:href="../../de/d55/classRawHitSet.html#a4589e2f2f910a85ccc47230c81e8fa90" target="_top" xlink:title="Remove a hit using its key.">
<polygon fill="none" stroke="#000000" points="390.5,-141.5 390.5,-161.5 501.5,-161.5 501.5,-141.5 390.5,-141.5"/>
<text text-anchor="middle" x="446" y="-148.5" font-family="FreeSans" font-size="10.00" fill="#000000">RawHitSet::getHits</text>
</a>
</g>
</g>
<!-- Node26&#45;&gt;Node29 -->
<g id="edge43" class="edge">
<title>Node26&#45;&gt;Node29</title>
<path fill="none" stroke="#191970" d="M250.4581,-555.0843C261.0149,-486.7421 304.6342,-225.7824 363,-170.5 368.0476,-165.7191 374.0419,-162.0535 380.4647,-159.2549"/>
<polygon fill="#191970" stroke="#191970" points="381.9178,-162.4509 390.1212,-155.746 379.5271,-155.8718 381.9178,-162.4509"/>
</g>
<!-- Node30 -->
<g id="node30" class="node">
<title>Node30</title>
<g id="a_node30"><a xlink:href="../../de/d55/classRawHitSet.html#abbf59616cd233649537264a1d3ec2397" target="_top" xlink:title="Get the key for this object.">
<polygon fill="none" stroke="#000000" points="375.5,-500.5 375.5,-520.5 516.5,-520.5 516.5,-500.5 375.5,-500.5"/>
<text text-anchor="middle" x="446" y="-507.5" font-family="FreeSans" font-size="10.00" fill="#000000">RawHitSet::getHitSetKey</text>
</a>
</g>
</g>
<!-- Node26&#45;&gt;Node30 -->
<g id="edge44" class="edge">
<title>Node26&#45;&gt;Node30</title>
<path fill="none" stroke="#191970" d="M289.7053,-555.4276C311.3839,-547.3807 338.4196,-537.8208 363,-530.5 371.8673,-527.859 381.3452,-525.3169 390.6085,-522.9824"/>
<polygon fill="#191970" stroke="#191970" points="391.665,-526.3268 400.5371,-520.5358 389.9901,-519.5301 391.665,-526.3268"/>
</g>
<!-- Node31 -->
<g id="node31" class="node">
<title>Node31</title>
<g id="a_node31"><a xlink:href="../../dd/dd5/classRawHitSetContainer.html#a04bc8db7de3d65d7ff91cc0910ee3ac7" target="_top" xlink:title="return all HitSets matching a given detid">
<polygon fill="none" stroke="#000000" points="387,-449.5 387,-481.5 505,-481.5 505,-449.5 387,-449.5"/>
<text text-anchor="start" x="395" y="-468.5" font-family="FreeSans" font-size="10.00" fill="#000000">RawHitSetContainer</text>
<text text-anchor="middle" x="446" y="-456.5" font-family="FreeSans" font-size="10.00" fill="#000000">::getHitSets</text>
</a>
</g>
</g>
<!-- Node26&#45;&gt;Node31 -->
<g id="edge45" class="edge">
<title>Node26&#45;&gt;Node31</title>
<path fill="none" stroke="#191970" d="M267.2045,-555.3771C289.1552,-537.6303 326.7467,-509.2673 363,-491.5 367.5445,-489.2728 372.3217,-487.1831 377.1928,-485.2331"/>
<polygon fill="#191970" stroke="#191970" points="378.5269,-488.4705 386.6394,-481.656 376.0479,-481.9242 378.5269,-488.4705"/>
</g>
<!-- Node32 -->
<g id="node32" class="node">
<title>Node32</title>
<g id="a_node32"><a xlink:href="../../d7/db0/namespaceTpcDefs.html#a3ec8638cf9427c7955840853dbd96383" target="_top" xlink:title="Get the time bin from hitkey.">
<polygon fill="none" stroke="#000000" points="568.5,-436.5 568.5,-456.5 672.5,-456.5 672.5,-436.5 568.5,-436.5"/>
<text text-anchor="middle" x="620.5" y="-443.5" font-family="FreeSans" font-size="10.00" fill="#000000">TpcDefs::getTBin</text>
</a>
</g>
</g>
<!-- Node26&#45;&gt;Node32 -->
<g id="edge49" class="edge">
<title>Node26&#45;&gt;Node32</title>
<path fill="none" stroke="#191970" d="M253.4034,-555.3845C266.079,-520.5209 301.4012,-438.6515 363,-406.5 439.1397,-366.7588 543.9612,-407.9574 593.0529,-431.9047"/>
<polygon fill="#191970" stroke="#191970" points="591.5943,-435.0885 602.1032,-436.4351 594.7277,-428.829 591.5943,-435.0885"/>
</g>
<!-- Node33 -->
<g id="node33" class="node">
<title>Node33</title>
<g id="a_node33"><a xlink:href="../../de/d55/classRawHitSet.html#a7bac3ead4bc59c3c606848b82366d726" target="_top" xlink:title="TObject functions.">
<polygon fill="none" stroke="#000000" points="389.5,-333.5 389.5,-353.5 502.5,-353.5 502.5,-333.5 389.5,-333.5"/>
<text text-anchor="middle" x="446" y="-340.5" font-family="FreeSans" font-size="10.00" fill="#000000">RawHitSet::identify</text>
</a>
</g>
</g>
<!-- Node26&#45;&gt;Node33 -->
<g id="edge53" class="edge">
<title>Node26&#45;&gt;Node33</title>
<path fill="none" stroke="#191970" d="M252.5712,-555.315C264.2566,-516.9141 298.9108,-419.69 363,-368.5 368.6589,-363.9801 375.1233,-360.276 381.8905,-357.2409"/>
<polygon fill="#191970" stroke="#191970" points="383.2681,-360.4596 391.2589,-353.5028 380.6738,-353.9581 383.2681,-360.4596"/>
</g>
<!-- Node34 -->
<g id="node34" class="node">
<title>Node34</title>
<g id="a_node34"><a xlink:href="../../dd/d2b/classClusHitsVerbosev1.html#a157be5e74bcfa7d7e53113eab894cf43" target="_top" xlink:title="ClusHitsVerbosev1::\lpush_hits">
<polygon fill="none" stroke="#000000" points="387.5,-282.5 387.5,-314.5 504.5,-314.5 504.5,-282.5 387.5,-282.5"/>
<text text-anchor="start" x="395.5" y="-301.5" font-family="FreeSans" font-size="10.00" fill="#000000">ClusHitsVerbosev1::</text>
<text text-anchor="middle" x="446" y="-289.5" font-family="FreeSans" font-size="10.00" fill="#000000">push_hits</text>
</a>
</g>
</g>
<!-- Node26&#45;&gt;Node34 -->
<g id="edge55" class="edge">
<title>Node26&#45;&gt;Node34</title>
<path fill="none" stroke="#191970" d="M250.8685,-555.2262C259.4699,-511.2791 289.1647,-389.1689 363,-324.5 367.5117,-320.5484 372.6215,-317.1971 378.035,-314.3549"/>
<polygon fill="#191970" stroke="#191970" points="379.7709,-317.4084 387.3804,-310.0365 376.8346,-311.0541 379.7709,-317.4084"/>
</g>
<!-- Node32&#45;&gt;Node9 -->
<g id="edge50" class="edge">
<title>Node32&#45;&gt;Node9</title>
<path fill="none" stroke="#191970" d="M625.3937,-456.5721C645.4802,-497.9138 721.7987,-654.9912 748.6149,-710.1837"/>
<polygon fill="#191970" stroke="#191970" points="745.503,-711.7878 753.0212,-719.2528 751.7991,-708.7287 745.503,-711.7878"/>
</g>
<!-- Node35&#45;&gt;Node25 -->
<g id="edge60" class="edge">
<title>Node35&#45;&gt;Node25</title>
<path fill="none" stroke="#191970" d="M327.1085,-99.2898C341.1503,-100.85 355.749,-102.4721 369.7107,-104.0234"/>
<polygon fill="#191970" stroke="#191970" points="369.4219,-107.5128 379.7473,-105.1386 370.195,-100.5556 369.4219,-107.5128"/>
</g>
<!-- Node36 -->
<g id="node36" class="node">
<title>Node36</title>
<g id="a_node36"><a xlink:href="../../d0/d2c/classTrkrClusterContainer.html#aac989ac1a08d747a932ca102a73c0c84" target="_top" xlink:title="identify object">
<polygon fill="none" stroke="#000000" points="385,-51.5 385,-83.5 507,-83.5 507,-51.5 385,-51.5"/>
<text text-anchor="start" x="393" y="-70.5" font-family="FreeSans" font-size="10.00" fill="#000000">TrkrClusterContainer</text>
<text text-anchor="middle" x="446" y="-58.5" font-family="FreeSans" font-size="10.00" fill="#000000">::identify</text>
</a>
</g>
</g>
<!-- Node35&#45;&gt;Node36 -->
<g id="edge58" class="edge">
<title>Node35&#45;&gt;Node36</title>
<path fill="none" stroke="#191970" d="M327.1085,-81.3106C342.8367,-79.4836 359.2636,-77.5754 374.7115,-75.781"/>
<polygon fill="#191970" stroke="#191970" points="375.175,-79.2508 384.7044,-74.6202 374.3673,-72.2975 375.175,-79.2508"/>
</g>
<!-- Node37 -->
<g id="node37" class="node">
<title>Node37</title>
<g id="a_node37"><a xlink:href="../../d0/d2c/classTrkrClusterContainer.html#a2afed9b08029c94a400bdcfe998eb7d9" target="_top" xlink:title="total number of clusters">
<polygon fill="none" stroke="#000000" points="385,-.5 385,-32.5 507,-32.5 507,-.5 385,-.5"/>
<text text-anchor="start" x="393" y="-19.5" font-family="FreeSans" font-size="10.00" fill="#000000">TrkrClusterContainer</text>
<text text-anchor="middle" x="446" y="-7.5" font-family="FreeSans" font-size="10.00" fill="#000000">::size</text>
</a>
</g>
</g>
<!-- Node35&#45;&gt;Node37 -->
<g id="edge59" class="edge">
<title>Node35&#45;&gt;Node37</title>
<path fill="none" stroke="#191970" d="M269.7591,-80.3772C292.6742,-69.9189 329.9462,-53.4786 363,-41.5 368.4384,-39.5291 374.1149,-37.5865 379.8353,-35.7081"/>
<polygon fill="#191970" stroke="#191970" points="381.0189,-39.0041 389.4695,-32.6137 378.8782,-32.3394 381.0189,-39.0041"/>
</g>
</g>
</svg>
