<?xml version="1.0" encoding="UTF-8" standalone="no"?>
<!DOCTYPE svg PUBLIC "-//W3C//DTD SVG 1.1//EN"
 "http://www.w3.org/Graphics/SVG/1.1/DTD/svg11.dtd">
<!-- Generated by graphviz version 2.40.1 (20161225.0304)
 -->
<!-- Title: particle_gun.runParticleGun Pages: 1 -->
<svg width="1467pt" height="223pt"
 viewBox="0.00 0.00 1467.00 222.50" xmlns="http://www.w3.org/2000/svg" xmlns:xlink="http://www.w3.org/1999/xlink">
<g id="graph0" class="graph" transform="scale(1 1) rotate(0) translate(4 218.5)">
<title>particle_gun.runParticleGun</title>
<!-- Node1 -->
<g id="node1" class="node">
<title>Node1</title>
<polygon fill="#bfbfbf" stroke="#000000" points="0,-111 0,-131 157,-131 157,-111 0,-111"/>
<text text-anchor="middle" x="78.5" y="-118" font-family="FreeSans" font-size="10.00" fill="#000000">particle_gun.runParticleGun</text>
</g>
<!-- Node2 -->
<g id="node2" class="node">
<title>Node2</title>
<g id="a_node2"><a xlink:href="../../dd/d50/namespaceacts_1_1examples_1_1simulation.html#aaf9bc261712471627b9773c314a86861" target="_top" xlink:title="acts.examples.simulation.add\lParticleGun">
<polygon fill="none" stroke="#000000" points="193,-105 193,-137 360,-137 360,-105 193,-105"/>
<text text-anchor="start" x="201" y="-124" font-family="FreeSans" font-size="10.00" fill="#000000">acts.examples.simulation.add</text>
<text text-anchor="middle" x="276.5" y="-112" font-family="FreeSans" font-size="10.00" fill="#000000">ParticleGun</text>
</a>
</g>
</g>
<!-- Node1&#45;&gt;Node2 -->
<g id="edge1" class="edge">
<title>Node1&#45;&gt;Node2</title>
<path fill="none" stroke="#191970" d="M157.0392,-121C165.498,-121 174.1651,-121 182.7788,-121"/>
<polygon fill="#191970" stroke="#191970" points="182.8503,-124.5001 192.8502,-121 182.8502,-117.5001 182.8503,-124.5001"/>
</g>
<!-- Node3 -->
<g id="node3" class="node">
<title>Node3</title>
<g id="a_node3"><a xlink:href="../../dd/d50/namespaceacts_1_1examples_1_1simulation.html#aa2e3f67c427bae9737164e831389d3e4" target="_top" xlink:title="acts.examples.simulation.add\lPythia8">
<polygon fill="none" stroke="#000000" points="396,-105 396,-137 563,-137 563,-105 396,-105"/>
<text text-anchor="start" x="404" y="-124" font-family="FreeSans" font-size="10.00" fill="#000000">acts.examples.simulation.add</text>
<text text-anchor="middle" x="479.5" y="-112" font-family="FreeSans" font-size="10.00" fill="#000000">Pythia8</text>
</a>
</g>
</g>
<!-- Node2&#45;&gt;Node3 -->
<g id="edge2" class="edge">
<title>Node2&#45;&gt;Node3</title>
<path fill="none" stroke="#191970" d="M360.2399,-121C368.7178,-121 377.3663,-121 385.9388,-121"/>
<polygon fill="#191970" stroke="#191970" points="385.9526,-124.5001 395.9526,-121 385.9525,-117.5001 385.9526,-124.5001"/>
</g>
<!-- Node7 -->
<g id="node7" class="node">
<title>Node7</title>
<g id="a_node7"><a xlink:href="../../d0/d5f/namespaceacts_1_1examples.html#a6cbad84850aed18924283d82614e48d8" target="_top" xlink:title="acts.examples.defaultLogging">
<polygon fill="none" stroke="#000000" points="1211.5,-66 1211.5,-86 1379.5,-86 1379.5,-66 1211.5,-66"/>
<text text-anchor="middle" x="1295.5" y="-73" font-family="FreeSans" font-size="10.00" fill="#000000">acts.examples.defaultLogging</text>
</a>
</g>
</g>
<!-- Node2&#45;&gt;Node7 -->
<g id="edge17" class="edge">
<title>Node2&#45;&gt;Node7</title>
<path fill="none" stroke="#191970" d="M307.6573,-104.9321C374.4648,-72.0178 537.239,0 682.5,0 682.5,0 682.5,0 885.5,0 1022.2265,0 1180.3693,-41.3661 1253.9093,-63.0617"/>
<polygon fill="#191970" stroke="#191970" points="1253.1303,-66.4817 1263.7136,-65.9862 1255.1312,-59.7738 1253.1303,-66.4817"/>
</g>
<!-- Node10 -->
<g id="node10" class="node">
<title>Node10</title>
<g id="a_node10"><a xlink:href="../../d0/d5f/namespaceacts_1_1examples.html#a92bb40f73eed1970345c5385da633683" target="_top" xlink:title="acts.examples.defaultKWArgs">
<polygon fill="none" stroke="#000000" points="1005,-194 1005,-214 1172,-214 1172,-194 1005,-194"/>
<text text-anchor="middle" x="1088.5" y="-201" font-family="FreeSans" font-size="10.00" fill="#000000">acts.examples.defaultKWArgs</text>
</a>
</g>
</g>
<!-- Node2&#45;&gt;Node10 -->
<g id="edge16" class="edge">
<title>Node2&#45;&gt;Node10</title>
<path fill="none" stroke="#191970" d="M345.1787,-137.0113C361.7633,-140.5815 379.4709,-144.1489 396,-147 575.2711,-177.9226 620.5584,-185.8374 802,-199 866.1088,-203.6508 938.4871,-204.8806 994.4562,-204.9579"/>
<polygon fill="#191970" stroke="#191970" points="994.7096,-208.4579 1004.7102,-204.9595 994.7108,-201.4579 994.7096,-208.4579"/>
</g>
<!-- Node4 -->
<g id="node4" class="node">
<title>Node4</title>
<g id="a_node4"><a xlink:href="../../dd/d50/namespaceacts_1_1examples_1_1simulation.html#ab347658f9188787ce153aa545e64fda0" target="_top" xlink:title="acts.examples.simulation.add\lParticleSelection">
<polygon fill="none" stroke="#000000" points="599,-105 599,-137 766,-137 766,-105 599,-105"/>
<text text-anchor="start" x="607" y="-124" font-family="FreeSans" font-size="10.00" fill="#000000">acts.examples.simulation.add</text>
<text text-anchor="middle" x="682.5" y="-112" font-family="FreeSans" font-size="10.00" fill="#000000">ParticleSelection</text>
</a>
</g>
</g>
<!-- Node3&#45;&gt;Node4 -->
<g id="edge3" class="edge">
<title>Node3&#45;&gt;Node4</title>
<path fill="none" stroke="#191970" d="M563.2399,-121C571.7178,-121 580.3663,-121 588.9388,-121"/>
<polygon fill="#191970" stroke="#191970" points="588.9526,-124.5001 598.9526,-121 588.9525,-117.5001 588.9526,-124.5001"/>
</g>
<!-- Node3&#45;&gt;Node7 -->
<g id="edge15" class="edge">
<title>Node3&#45;&gt;Node7</title>
<path fill="none" stroke="#191970" d="M545.9059,-104.9992C563.1179,-101.2797 581.6839,-97.6408 599,-95 812.2797,-62.4743 1066.4466,-66.0472 1201.007,-71.2068"/>
<polygon fill="#191970" stroke="#191970" points="1201.1469,-74.715 1211.2774,-71.6127 1201.4234,-67.7204 1201.1469,-74.715"/>
</g>
<!-- Node3&#45;&gt;Node10 -->
<g id="edge14" class="edge">
<title>Node3&#45;&gt;Node10</title>
<path fill="none" stroke="#191970" d="M549.481,-137.0542C565.6978,-140.544 582.917,-144.0654 599,-147 688.7208,-163.3708 711.4575,-166.051 802,-177 866.0854,-184.7496 938.4639,-191.5545 994.439,-196.3941"/>
<polygon fill="#191970" stroke="#191970" points="994.4313,-199.9063 1004.6941,-197.2747 995.0303,-192.9319 994.4313,-199.9063"/>
</g>
<!-- Node5 -->
<g id="node5" class="node">
<title>Node5</title>
<g id="a_node5"><a xlink:href="../../dd/d50/namespaceacts_1_1examples_1_1simulation.html#aab5d744cbd64da407339e7b2f681c077" target="_top" xlink:title="acts.examples.simulation.add\lFatras">
<polygon fill="none" stroke="#000000" points="802,-105 802,-137 969,-137 969,-105 802,-105"/>
<text text-anchor="start" x="810" y="-124" font-family="FreeSans" font-size="10.00" fill="#000000">acts.examples.simulation.add</text>
<text text-anchor="middle" x="885.5" y="-112" font-family="FreeSans" font-size="10.00" fill="#000000">Fatras</text>
</a>
</g>
</g>
<!-- Node4&#45;&gt;Node5 -->
<g id="edge4" class="edge">
<title>Node4&#45;&gt;Node5</title>
<path fill="none" stroke="#191970" d="M766.2399,-114.3427C774.7178,-114.2534 783.3663,-114.2286 791.9388,-114.2684"/>
<polygon fill="#191970" stroke="#191970" points="791.9261,-117.7683 801.9526,-114.3447 791.9796,-110.7685 791.9261,-117.7683"/>
</g>
<!-- Node4&#45;&gt;Node7 -->
<g id="edge13" class="edge">
<title>Node4&#45;&gt;Node7</title>
<path fill="none" stroke="#191970" d="M746.3287,-104.9432C764.2305,-101.0333 783.7808,-97.3145 802,-95 940.1512,-77.45 1101.6529,-74.5213 1201.2639,-74.7252"/>
<polygon fill="#191970" stroke="#191970" points="1201.2934,-78.2252 1211.3044,-74.7568 1201.3155,-71.2253 1201.2934,-78.2252"/>
</g>
<!-- Node4&#45;&gt;Node10 -->
<g id="edge12" class="edge">
<title>Node4&#45;&gt;Node10</title>
<path fill="none" stroke="#191970" d="M755.1292,-137.0191C770.5892,-140.3682 786.8262,-143.8401 802,-147 879.2813,-163.0935 968.502,-180.6891 1026.5728,-192.0104"/>
<polygon fill="#191970" stroke="#191970" points="1026.2019,-195.5039 1036.6866,-193.9802 1027.5401,-188.633 1026.2019,-195.5039"/>
</g>
<!-- Node5&#45;&gt;Node4 -->
<g id="edge5" class="edge">
<title>Node5&#45;&gt;Node4</title>
<path fill="none" stroke="#191970" d="M801.9526,-127.6553C793.4773,-127.7456 784.8295,-127.7713 776.2558,-127.7325"/>
<polygon fill="#191970" stroke="#191970" points="776.2659,-124.2326 766.2399,-127.6573 776.2133,-131.2324 776.2659,-124.2326"/>
</g>
<!-- Node6 -->
<g id="node6" class="node">
<title>Node6</title>
<g id="a_node6"><a xlink:href="../../dd/d50/namespaceacts_1_1examples_1_1simulation.html#a4c9e00d60cf5f2686d2509abc5aa3f7a" target="_top" xlink:title="acts.examples.simulation.add\lSimWriters">
<polygon fill="none" stroke="#000000" points="1005,-143 1005,-175 1172,-175 1172,-143 1005,-143"/>
<text text-anchor="start" x="1013" y="-162" font-family="FreeSans" font-size="10.00" fill="#000000">acts.examples.simulation.add</text>
<text text-anchor="middle" x="1088.5" y="-150" font-family="FreeSans" font-size="10.00" fill="#000000">SimWriters</text>
</a>
</g>
</g>
<!-- Node5&#45;&gt;Node6 -->
<g id="edge6" class="edge">
<title>Node5&#45;&gt;Node6</title>
<path fill="none" stroke="#191970" d="M969.2399,-136.6754C977.7178,-138.2624 986.3663,-139.8814 994.9388,-141.4861"/>
<polygon fill="#191970" stroke="#191970" points="994.4793,-144.9608 1004.9526,-143.3606 995.7673,-138.0803 994.4793,-144.9608"/>
</g>
<!-- Node5&#45;&gt;Node7 -->
<g id="edge11" class="edge">
<title>Node5&#45;&gt;Node7</title>
<path fill="none" stroke="#191970" d="M969.1933,-112.0578C1026.3324,-105.9248 1103.7515,-97.5606 1172,-90 1181.5708,-88.9397 1191.5575,-87.8237 1201.5245,-86.7036"/>
<polygon fill="#191970" stroke="#191970" points="1201.9231,-90.1809 1211.4687,-85.584 1201.1398,-83.2249 1201.9231,-90.1809"/>
</g>
<!-- Node5&#45;&gt;Node10 -->
<g id="edge10" class="edge">
<title>Node5&#45;&gt;Node10</title>
<path fill="none" stroke="#191970" d="M938.1786,-137.0229C948.74,-141.2 959.5009,-146.1928 969,-152 987.5187,-163.3212 985.7762,-174.9224 1005,-185 1008.9585,-187.0751 1013.1387,-188.9249 1017.4341,-190.5736"/>
<polygon fill="#191970" stroke="#191970" points="1016.3851,-193.9142 1026.9799,-193.8713 1018.6708,-187.2978 1016.3851,-193.9142"/>
</g>
<!-- Node6&#45;&gt;Node7 -->
<g id="edge7" class="edge">
<title>Node6&#45;&gt;Node7</title>
<path fill="none" stroke="#191970" d="M1132.8369,-142.9431C1145.5274,-138.2381 1159.3479,-133.0095 1172,-128 1203.1256,-115.676 1238.2807,-100.7768 1263.1008,-90.0914"/>
<polygon fill="#191970" stroke="#191970" points="1264.6112,-93.2516 1272.405,-86.0747 1261.8367,-86.8249 1264.6112,-93.2516"/>
</g>
<!-- Node8 -->
<g id="node8" class="node">
<title>Node8</title>
<g id="a_node8"><a xlink:href="../../dd/d50/namespaceacts_1_1examples_1_1simulation.html#a9cd7ce22ca7eb844b252af901a21bcc7" target="_top" xlink:title="acts.examples.simulation.get\lG4DetectorConstructionFactory">
<polygon fill="none" stroke="#000000" points="1208,-143 1208,-175 1383,-175 1383,-143 1208,-143"/>
<text text-anchor="start" x="1216" y="-162" font-family="FreeSans" font-size="10.00" fill="#000000">acts.examples.simulation.get</text>
<text text-anchor="middle" x="1295.5" y="-150" font-family="FreeSans" font-size="10.00" fill="#000000">G4DetectorConstructionFactory</text>
</a>
</g>
</g>
<!-- Node6&#45;&gt;Node8 -->
<g id="edge8" class="edge">
<title>Node6&#45;&gt;Node8</title>
<path fill="none" stroke="#191970" d="M1172.0982,-159C1180.5663,-159 1189.2192,-159 1197.8183,-159"/>
<polygon fill="#191970" stroke="#191970" points="1197.874,-162.5001 1207.8739,-159 1197.8739,-155.5001 1197.874,-162.5001"/>
</g>
<!-- Node9 -->
<g id="node9" class="node">
<title>Node9</title>
<g id="a_node9"><a xlink:href="../../dc/d11/Prototype2_2EMCal_2macros_2SaveCanvas_8m.html#a8efe7494567713c8ec7a6803834a0bb6" target="_top" xlink:title="print">
<polygon fill="none" stroke="#000000" points="1419,-149 1419,-169 1459,-169 1459,-149 1419,-149"/>
<text text-anchor="middle" x="1439" y="-156" font-family="FreeSans" font-size="10.00" fill="#000000">print</text>
</a>
</g>
</g>
<!-- Node8&#45;&gt;Node9 -->
<g id="edge9" class="edge">
<title>Node8&#45;&gt;Node9</title>
<path fill="none" stroke="#191970" d="M1383.1083,-159C1392.1511,-159 1400.8402,-159 1408.5613,-159"/>
<polygon fill="#191970" stroke="#191970" points="1408.7681,-162.5001 1418.768,-159 1408.768,-155.5001 1408.7681,-162.5001"/>
</g>
</g>
</svg>
