<?xml version="1.0" encoding="UTF-8" standalone="no"?>
<!DOCTYPE svg PUBLIC "-//W3C//DTD SVG 1.1//EN"
 "http://www.w3.org/Graphics/SVG/1.1/DTD/svg11.dtd">
<!-- Generated by graphviz version 2.40.1 (20161225.0304)
 -->
<!-- Title: coresoftware/blob/master/simulation/g4simulation/g4detectors/PHG4BlockSubsystem.h Pages: 1 -->
<svg width="1654pt" height="134pt"
 viewBox="0.00 0.00 1653.50 134.00" xmlns="http://www.w3.org/2000/svg" xmlns:xlink="http://www.w3.org/1999/xlink">
<g id="graph0" class="graph" transform="scale(1 1) rotate(0) translate(4 130)">
<title>coresoftware/blob/master/simulation/g4simulation/g4detectors/PHG4BlockSubsystem.h</title>
<!-- Node1 -->
<g id="node1" class="node">
<title>Node1</title>
<polygon fill="#bfbfbf" stroke="#000000" points="758.5,-81.5 758.5,-125.5 963.5,-125.5 963.5,-81.5 758.5,-81.5"/>
<text text-anchor="start" x="766.5" y="-112.5" font-family="FreeSans" font-size="10.00" fill="#000000">coresoftware/blob/master</text>
<text text-anchor="start" x="766.5" y="-100.5" font-family="FreeSans" font-size="10.00" fill="#000000">/simulation/g4simulation</text>
<text text-anchor="middle" x="861" y="-88.5" font-family="FreeSans" font-size="10.00" fill="#000000">/g4detectors/PHG4BlockSubsystem.h</text>
</g>
<!-- Node2 -->
<g id="node2" class="node">
<title>Node2</title>
<g id="a_node2"><a xlink:href="../../d6/dfe/PHG4BlockSubsystem_8cc.html" target="_top" xlink:title="coresoftware/blob/master\l/simulation/g4simulation\l/g4detectors/PHG4BlockSubsystem.cc">
<polygon fill="none" stroke="#000000" points="0,-.5 0,-44.5 210,-44.5 210,-.5 0,-.5"/>
<text text-anchor="start" x="8" y="-31.5" font-family="FreeSans" font-size="10.00" fill="#000000">coresoftware/blob/master</text>
<text text-anchor="start" x="8" y="-19.5" font-family="FreeSans" font-size="10.00" fill="#000000">/simulation/g4simulation</text>
<text text-anchor="middle" x="105" y="-7.5" font-family="FreeSans" font-size="10.00" fill="#000000">/g4detectors/PHG4BlockSubsystem.cc</text>
</a>
</g>
</g>
<!-- Node1&#45;&gt;Node2 -->
<g id="edge1" class="edge">
<title>Node1&#45;&gt;Node2</title>
<path fill="none" stroke="#191970" d="M748.0719,-96.7764C619.5181,-88.2961 403.4387,-71.531 219,-45 216.1046,-44.5835 213.1716,-44.142 210.2143,-43.6797"/>
<polygon fill="#191970" stroke="#191970" points="748.1139,-100.2865 758.3212,-97.4471 748.5712,-93.3015 748.1139,-100.2865"/>
</g>
<!-- Node3 -->
<g id="node3" class="node">
<title>Node3</title>
<g id="a_node3"><a xlink:href="../../dc/d8e/Fun4All__G4__Prototype2_8C.html" target="_top" xlink:title="prototype/blob/master\l/macros/prototype2/Fun4All\l_G4_Prototype2.C">
<polygon fill="none" stroke="#000000" points="228.5,-.5 228.5,-44.5 385.5,-44.5 385.5,-.5 228.5,-.5"/>
<text text-anchor="start" x="236.5" y="-31.5" font-family="FreeSans" font-size="10.00" fill="#000000">prototype/blob/master</text>
<text text-anchor="start" x="236.5" y="-19.5" font-family="FreeSans" font-size="10.00" fill="#000000">/macros/prototype2/Fun4All</text>
<text text-anchor="middle" x="307" y="-7.5" font-family="FreeSans" font-size="10.00" fill="#000000">_G4_Prototype2.C</text>
</a>
</g>
</g>
<!-- Node1&#45;&gt;Node3 -->
<g id="edge2" class="edge">
<title>Node1&#45;&gt;Node3</title>
<path fill="none" stroke="#191970" d="M748.1715,-93.4664C653.1902,-84.0418 514.0255,-67.9398 394,-45 391.2417,-44.4728 388.4412,-43.9085 385.6181,-43.315"/>
<polygon fill="#191970" stroke="#191970" points="748.0804,-96.9742 758.375,-94.47 748.7656,-90.0079 748.0804,-96.9742"/>
</g>
<!-- Node4 -->
<g id="node4" class="node">
<title>Node4</title>
<g id="a_node4"><a xlink:href="../../d7/d40/Fun4All__G4__Prototype3_8C.html" target="_top" xlink:title="prototype/blob/master\l/macros/prototype3/Fun4All\l_G4_Prototype3.C">
<polygon fill="none" stroke="#000000" points="403.5,-.5 403.5,-44.5 560.5,-44.5 560.5,-.5 403.5,-.5"/>
<text text-anchor="start" x="411.5" y="-31.5" font-family="FreeSans" font-size="10.00" fill="#000000">prototype/blob/master</text>
<text text-anchor="start" x="411.5" y="-19.5" font-family="FreeSans" font-size="10.00" fill="#000000">/macros/prototype3/Fun4All</text>
<text text-anchor="middle" x="482" y="-7.5" font-family="FreeSans" font-size="10.00" fill="#000000">_G4_Prototype3.C</text>
</a>
</g>
</g>
<!-- Node1&#45;&gt;Node4 -->
<g id="edge3" class="edge">
<title>Node1&#45;&gt;Node4</title>
<path fill="none" stroke="#191970" d="M748.3316,-82.4379C693.986,-71.8938 627.9457,-58.5161 569,-45 566.2628,-44.3724 563.4805,-43.7218 560.6728,-43.0545"/>
<polygon fill="#191970" stroke="#191970" points="747.856,-85.9107 758.3386,-84.3731 749.1851,-79.038 747.856,-85.9107"/>
</g>
<!-- Node5 -->
<g id="node5" class="node">
<title>Node5</title>
<g id="a_node5"><a xlink:href="../../d4/d58/Fun4All__G4__Prototype4_8C.html" target="_top" xlink:title="prototype/blob/master\l/macros/prototype4/Fun4All\l_G4_Prototype4.C">
<polygon fill="none" stroke="#000000" points="578.5,-.5 578.5,-44.5 735.5,-44.5 735.5,-.5 578.5,-.5"/>
<text text-anchor="start" x="586.5" y="-31.5" font-family="FreeSans" font-size="10.00" fill="#000000">prototype/blob/master</text>
<text text-anchor="start" x="586.5" y="-19.5" font-family="FreeSans" font-size="10.00" fill="#000000">/macros/prototype4/Fun4All</text>
<text text-anchor="middle" x="657" y="-7.5" font-family="FreeSans" font-size="10.00" fill="#000000">_G4_Prototype4.C</text>
</a>
</g>
</g>
<!-- Node1&#45;&gt;Node5 -->
<g id="edge4" class="edge">
<title>Node1&#45;&gt;Node5</title>
<path fill="none" stroke="#191970" d="M796.1826,-77.7637C769.254,-67.0714 738.3196,-54.7887 712.4634,-44.5222"/>
<polygon fill="#191970" stroke="#191970" points="794.9398,-81.036 805.5256,-81.4734 797.523,-74.53 794.9398,-81.036"/>
</g>
<!-- Node6 -->
<g id="node6" class="node">
<title>Node6</title>
<g id="a_node6"><a xlink:href="../../db/d89/ConstructGeometry_8C.html" target="_top" xlink:title="prototype/blob/master\l/macros/tpc2019/ConstructGeometry.C">
<polygon fill="none" stroke="#000000" points="754,-6.5 754,-38.5 968,-38.5 968,-6.5 754,-6.5"/>
<text text-anchor="start" x="762" y="-25.5" font-family="FreeSans" font-size="10.00" fill="#000000">prototype/blob/master</text>
<text text-anchor="middle" x="861" y="-13.5" font-family="FreeSans" font-size="10.00" fill="#000000">/macros/tpc2019/ConstructGeometry.C</text>
</a>
</g>
</g>
<!-- Node1&#45;&gt;Node6 -->
<g id="edge5" class="edge">
<title>Node1&#45;&gt;Node6</title>
<path fill="none" stroke="#191970" d="M861,-71.0737C861,-59.9468 861,-47.9724 861,-38.6969"/>
<polygon fill="#191970" stroke="#191970" points="857.5001,-71.3664 861,-81.3664 864.5001,-71.3664 857.5001,-71.3664"/>
</g>
<!-- Node7 -->
<g id="node7" class="node">
<title>Node7</title>
<g id="a_node7"><a xlink:href="../../db/da1/Fun4All__G4__TPC_8C.html" target="_top" xlink:title="prototype/blob/master\l/macros/tpc2019/Fun4All\l_G4_TPC.C">
<polygon fill="none" stroke="#000000" points="986.5,-.5 986.5,-44.5 1129.5,-44.5 1129.5,-.5 986.5,-.5"/>
<text text-anchor="start" x="994.5" y="-31.5" font-family="FreeSans" font-size="10.00" fill="#000000">prototype/blob/master</text>
<text text-anchor="start" x="994.5" y="-19.5" font-family="FreeSans" font-size="10.00" fill="#000000">/macros/tpc2019/Fun4All</text>
<text text-anchor="middle" x="1058" y="-7.5" font-family="FreeSans" font-size="10.00" fill="#000000">_G4_TPC.C</text>
</a>
</g>
</g>
<!-- Node1&#45;&gt;Node7 -->
<g id="edge6" class="edge">
<title>Node1&#45;&gt;Node7</title>
<path fill="none" stroke="#191970" d="M923.9342,-77.6235C949.8586,-66.9642 979.5798,-54.7438 1004.4398,-44.5222"/>
<polygon fill="#191970" stroke="#191970" points="922.4886,-74.4335 914.5709,-81.4734 925.1506,-80.9076 922.4886,-74.4335"/>
</g>
<!-- Node8 -->
<g id="node8" class="node">
<title>Node8</title>
<g id="a_node8"><a xlink:href="../../df/d20/Fun4All__TestBeam__TPC_8C.html" target="_top" xlink:title="prototype/blob/master\l/macros/tpc2019/Fun4All\l_TestBeam_TPC.C">
<polygon fill="none" stroke="#000000" points="1147.5,-.5 1147.5,-44.5 1290.5,-44.5 1290.5,-.5 1147.5,-.5"/>
<text text-anchor="start" x="1155.5" y="-31.5" font-family="FreeSans" font-size="10.00" fill="#000000">prototype/blob/master</text>
<text text-anchor="start" x="1155.5" y="-19.5" font-family="FreeSans" font-size="10.00" fill="#000000">/macros/tpc2019/Fun4All</text>
<text text-anchor="middle" x="1219" y="-7.5" font-family="FreeSans" font-size="10.00" fill="#000000">_TestBeam_TPC.C</text>
</a>
</g>
</g>
<!-- Node1&#45;&gt;Node8 -->
<g id="edge7" class="edge">
<title>Node1&#45;&gt;Node8</title>
<path fill="none" stroke="#191970" d="M973.6986,-81.5642C1024.4006,-71.2388 1084.8902,-58.2867 1139,-45 1141.6622,-44.3463 1144.3699,-43.6657 1147.1017,-42.9658"/>
<polygon fill="#191970" stroke="#191970" points="972.7982,-78.1755 963.6936,-83.5936 974.1898,-85.0358 972.7982,-78.1755"/>
</g>
<!-- Node9 -->
<g id="node9" class="node">
<title>Node9</title>
<g id="a_node9"><a xlink:href="../../de/d55/Fun4All__G4__block_8C.html" target="_top" xlink:title="tutorials/blob/master\l/block/Fun4All_G4_block.C">
<polygon fill="none" stroke="#000000" points="1309,-6.5 1309,-38.5 1459,-38.5 1459,-6.5 1309,-6.5"/>
<text text-anchor="start" x="1317" y="-25.5" font-family="FreeSans" font-size="10.00" fill="#000000">tutorials/blob/master</text>
<text text-anchor="middle" x="1384" y="-13.5" font-family="FreeSans" font-size="10.00" fill="#000000">/block/Fun4All_G4_block.C</text>
</a>
</g>
</g>
<!-- Node1&#45;&gt;Node9 -->
<g id="edge8" class="edge">
<title>Node1&#45;&gt;Node9</title>
<path fill="none" stroke="#191970" d="M973.7528,-92.5311C1062.8214,-82.8921 1190.0075,-66.9642 1300,-45 1309.1792,-43.167 1318.8392,-40.9022 1328.2088,-38.5221"/>
<polygon fill="#191970" stroke="#191970" points="973.1973,-89.0705 963.6278,-93.6175 973.9441,-96.0305 973.1973,-89.0705"/>
</g>
<!-- Node10 -->
<g id="node10" class="node">
<title>Node10</title>
<g id="a_node10"><a xlink:href="../../df/de1/Fun4All__G4__IonGun_8C.html" target="_top" xlink:title="tutorials/blob/master\l/IonGun/Fun4All_G4_IonGun.C">
<polygon fill="none" stroke="#000000" points="1476.5,-6.5 1476.5,-38.5 1645.5,-38.5 1645.5,-6.5 1476.5,-6.5"/>
<text text-anchor="start" x="1484.5" y="-25.5" font-family="FreeSans" font-size="10.00" fill="#000000">tutorials/blob/master</text>
<text text-anchor="middle" x="1561" y="-13.5" font-family="FreeSans" font-size="10.00" fill="#000000">/IonGun/Fun4All_G4_IonGun.C</text>
</a>
</g>
</g>
<!-- Node1&#45;&gt;Node10 -->
<g id="edge9" class="edge">
<title>Node1&#45;&gt;Node10</title>
<path fill="none" stroke="#191970" d="M973.7382,-97.4135C1096.0862,-89.6979 1296.8926,-73.7955 1468,-45 1478.484,-43.2357 1489.5385,-40.9472 1500.223,-38.507"/>
<polygon fill="#191970" stroke="#191970" points="973.371,-93.9295 963.6082,-98.0449 973.8066,-100.9159 973.371,-93.9295"/>
</g>
</g>
</svg>
