<?xml version="1.0" encoding="UTF-8" standalone="no"?>
<!DOCTYPE svg PUBLIC "-//W3C//DTD SVG 1.1//EN"
 "http://www.w3.org/Graphics/SVG/1.1/DTD/svg11.dtd">
<!-- Generated by graphviz version 2.40.1 (20161225.0304)
 -->
<!-- Title: acts/blob/sPHENIX/Core/include/Acts/Geometry/CuboidVolumeBounds.hpp Pages: 1 -->
<svg width="2868pt" height="602pt"
 viewBox="0.00 0.00 2867.50 602.00" xmlns="http://www.w3.org/2000/svg" xmlns:xlink="http://www.w3.org/1999/xlink">
<g id="graph0" class="graph" transform="scale(1 1) rotate(0) translate(4 598)">
<title>acts/blob/sPHENIX/Core/include/Acts/Geometry/CuboidVolumeBounds.hpp</title>
<!-- Node1 -->
<g id="node1" class="node">
<title>Node1</title>
<polygon fill="#bfbfbf" stroke="#000000" points="1031,-549.5 1031,-593.5 1185,-593.5 1185,-549.5 1031,-549.5"/>
<text text-anchor="start" x="1039" y="-580.5" font-family="FreeSans" font-size="10.00" fill="#000000">acts/blob/sPHENIX/Core</text>
<text text-anchor="start" x="1039" y="-568.5" font-family="FreeSans" font-size="10.00" fill="#000000">/include/Acts/Geometry</text>
<text text-anchor="middle" x="1108" y="-556.5" font-family="FreeSans" font-size="10.00" fill="#000000">/CuboidVolumeBounds.hpp</text>
</g>
<!-- Node2 -->
<g id="node2" class="node">
<title>Node2</title>
<g id="a_node2"><a xlink:href="../../d6/d0f/Volume_8hpp.html" target="_top" xlink:title="Acts/Geometry/Volume.hpp">
<polygon fill="none" stroke="#000000" points="1098,-435.5 1098,-455.5 1254,-455.5 1254,-435.5 1098,-435.5"/>
<text text-anchor="middle" x="1176" y="-442.5" font-family="FreeSans" font-size="10.00" fill="#000000">Acts/Geometry/Volume.hpp</text>
</a>
</g>
</g>
<!-- Node1&#45;&gt;Node2 -->
<g id="edge1" class="edge">
<title>Node1&#45;&gt;Node2</title>
<path fill="none" stroke="#191970" d="M1120.0005,-549.2638C1132.9535,-525.2626 1153.3721,-487.4282 1165.6461,-464.6852"/>
<polygon fill="#191970" stroke="#191970" points="1168.8402,-466.1361 1170.5095,-455.6736 1162.68,-462.8116 1168.8402,-466.1361"/>
</g>
<!-- Node14 -->
<g id="node14" class="node">
<title>Node14</title>
<polygon fill="none" stroke="#bfbfbf" points="2205.5,-57.5 2205.5,-77.5 2254.5,-77.5 2254.5,-57.5 2205.5,-57.5"/>
<text text-anchor="middle" x="2230" y="-64.5" font-family="FreeSans" font-size="10.00" fill="#000000">vector</text>
</g>
<!-- Node1&#45;&gt;Node14 -->
<g id="edge105" class="edge">
<title>Node1&#45;&gt;Node14</title>
<path fill="none" stroke="#191970" d="M1185.392,-569.8254C1432.8054,-564.2043 2202.7671,-544.5696 2450,-513 2592.4561,-494.8095 2766,-589.1128 2766,-445.5 2766,-445.5 2766,-445.5 2766,-268.5 2766,-180.1737 2718.4454,-156.4704 2641,-114 2608.2995,-96.0673 2358.016,-76.6177 2264.8203,-69.9223"/>
<polygon fill="#191970" stroke="#191970" points="2264.9901,-66.4256 2254.7666,-69.2059 2264.4925,-73.4079 2264.9901,-66.4256"/>
</g>
<!-- Node15 -->
<g id="node15" class="node">
<title>Node15</title>
<g id="a_node15"><a xlink:href="../../d6/d1d/Definitions_8hpp.html" target="_top" xlink:title="Acts/Utilities/Definitions.hpp">
<polygon fill="none" stroke="#000000" points="1034,-57.5 1034,-77.5 1194,-77.5 1194,-57.5 1034,-57.5"/>
<text text-anchor="middle" x="1114" y="-64.5" font-family="FreeSans" font-size="10.00" fill="#000000">Acts/Utilities/Definitions.hpp</text>
</a>
</g>
</g>
<!-- Node1&#45;&gt;Node15 -->
<g id="edge101" class="edge">
<title>Node1&#45;&gt;Node15</title>
<path fill="none" stroke="#191970" d="M1030.7753,-569.1854C811.4404,-562.3027 194.9391,-540.7068 108,-513 54.0687,-495.8125 0,-502.1039 0,-445.5 0,-445.5 0,-445.5 0,-199.5 0,-126.5918 70.3048,-135.4053 140,-114 222.9771,-88.5155 798.1718,-74.0189 1023.631,-69.2615"/>
<polygon fill="#191970" stroke="#191970" points="1023.8511,-72.7578 1033.7756,-69.0491 1023.7045,-65.7593 1023.8511,-72.7578"/>
</g>
<!-- Node23 -->
<g id="node23" class="node">
<title>Node23</title>
<polygon fill="none" stroke="#bfbfbf" points="2495,-120.5 2495,-140.5 2543,-140.5 2543,-120.5 2495,-120.5"/>
<text text-anchor="middle" x="2519" y="-127.5" font-family="FreeSans" font-size="10.00" fill="#000000">cmath</text>
</g>
<!-- Node1&#45;&gt;Node23 -->
<g id="edge103" class="edge">
<title>Node1&#45;&gt;Node23</title>
<path fill="none" stroke="#191970" d="M1185.1057,-569.4461C1502.3224,-560.4976 2690,-521.8929 2690,-445.5 2690,-445.5 2690,-445.5 2690,-268.5 2690,-229.573 2697.4728,-211.5394 2671,-183 2633.4224,-142.4888 2603.3408,-167.4293 2552,-147 2550.4042,-146.365 2548.7808,-145.6821 2547.1528,-144.9681"/>
<polygon fill="#191970" stroke="#191970" points="2548.4842,-141.7269 2537.9433,-140.659 2545.5175,-148.0672 2548.4842,-141.7269"/>
</g>
<!-- Node33 -->
<g id="node33" class="node">
<title>Node33</title>
<polygon fill="none" stroke="#bfbfbf" points="288.5,-120.5 288.5,-140.5 331.5,-140.5 331.5,-120.5 288.5,-120.5"/>
<text text-anchor="middle" x="310" y="-127.5" font-family="FreeSans" font-size="10.00" fill="#000000">array</text>
</g>
<!-- Node1&#45;&gt;Node33 -->
<g id="edge102" class="edge">
<title>Node1&#45;&gt;Node33</title>
<path fill="none" stroke="#191970" d="M1030.6178,-570.5118C784.8337,-566.359 38,-545.5119 38,-445.5 38,-445.5 38,-445.5 38,-331.5 38,-213.1353 206.659,-156.548 278.3576,-137.8398"/>
<polygon fill="#191970" stroke="#191970" points="279.3636,-141.1957 288.2009,-135.3516 277.6481,-134.4091 279.3636,-141.1957"/>
</g>
<!-- Node36 -->
<g id="node36" class="node">
<title>Node36</title>
<g id="a_node36"><a xlink:href="../../d9/db6/BoundingBox_8hpp.html" target="_top" xlink:title="Acts/Utilities/BoundingBox.hpp">
<polygon fill="none" stroke="#000000" points="548.5,-378.5 548.5,-398.5 721.5,-398.5 721.5,-378.5 548.5,-378.5"/>
<text text-anchor="middle" x="635" y="-385.5" font-family="FreeSans" font-size="10.00" fill="#000000">Acts/Utilities/BoundingBox.hpp</text>
</a>
</g>
</g>
<!-- Node1&#45;&gt;Node36 -->
<g id="edge100" class="edge">
<title>Node1&#45;&gt;Node36</title>
<path fill="none" stroke="#191970" d="M1030.5891,-549.8754C995.8504,-539.6071 954.548,-526.6136 918,-513 823.7272,-477.8846 715.8061,-427.4554 664.7501,-402.9567"/>
<polygon fill="#191970" stroke="#191970" points="666.1344,-399.7388 655.606,-398.5542 663.0978,-406.0458 666.1344,-399.7388"/>
</g>
<!-- Node48 -->
<g id="node48" class="node">
<title>Node48</title>
<g id="a_node48"><a xlink:href="../../d4/dd8/VolumeBounds_8hpp.html" target="_top" xlink:title="Acts/Geometry/VolumeBounds.hpp">
<polygon fill="none" stroke="#000000" points="927,-492.5 927,-512.5 1121,-512.5 1121,-492.5 927,-492.5"/>
<text text-anchor="middle" x="1024" y="-499.5" font-family="FreeSans" font-size="10.00" fill="#000000">Acts/Geometry/VolumeBounds.hpp</text>
</a>
</g>
</g>
<!-- Node1&#45;&gt;Node48 -->
<g id="edge92" class="edge">
<title>Node1&#45;&gt;Node48</title>
<path fill="none" stroke="#191970" d="M1080.9595,-549.2882C1069.0353,-539.4933 1055.2605,-528.1783 1044.2442,-519.1292"/>
<polygon fill="#191970" stroke="#191970" points="1046.3829,-516.3566 1036.434,-512.7137 1041.9397,-521.7657 1046.3829,-516.3566"/>
</g>
<!-- Node49 -->
<g id="node49" class="node">
<title>Node49</title>
<polygon fill="none" stroke="#bfbfbf" points="2794.5,-492.5 2794.5,-512.5 2859.5,-512.5 2859.5,-492.5 2794.5,-492.5"/>
<text text-anchor="middle" x="2827" y="-499.5" font-family="FreeSans" font-size="10.00" fill="#000000">exception</text>
</g>
<!-- Node1&#45;&gt;Node49 -->
<g id="edge104" class="edge">
<title>Node1&#45;&gt;Node49</title>
<path fill="none" stroke="#191970" d="M1185.3489,-570.6914C1470.893,-567.4108 2465.4286,-553.2897 2780,-513 2781.4513,-512.8141 2782.9238,-512.6046 2784.4078,-512.3755"/>
<polygon fill="#191970" stroke="#191970" points="2785.0335,-515.8192 2794.2668,-510.6234 2783.8086,-508.9272 2785.0335,-515.8192"/>
</g>
<!-- Node3 -->
<g id="node3" class="node">
<title>Node3</title>
<g id="a_node3"><a xlink:href="../../d1/db8/GeometryContext_8hpp.html" target="_top" xlink:title="Acts/Geometry/GeometryContext.hpp">
<polygon fill="none" stroke="#000000" points="1743,-321.5 1743,-341.5 1951,-341.5 1951,-321.5 1743,-321.5"/>
<text text-anchor="middle" x="1847" y="-328.5" font-family="FreeSans" font-size="10.00" fill="#000000">Acts/Geometry/GeometryContext.hpp</text>
</a>
</g>
</g>
<!-- Node2&#45;&gt;Node3 -->
<g id="edge2" class="edge">
<title>Node2&#45;&gt;Node3</title>
<path fill="none" stroke="#191970" d="M1254.1844,-442.3444C1345.5912,-437.5485 1501.0532,-425.9419 1632,-399 1696.5663,-385.7157 1769.2772,-360.6777 1811.442,-345.1126"/>
<polygon fill="#191970" stroke="#191970" points="1812.8243,-348.3327 1820.974,-341.5627 1810.3812,-341.7728 1812.8243,-348.3327"/>
</g>
<!-- Node5 -->
<g id="node5" class="node">
<title>Node5</title>
<g id="a_node5"><a xlink:href="../../da/de0/GeometryObject_8hpp.html" target="_top" xlink:title="Acts/Geometry/GeometryObject.hpp">
<polygon fill="none" stroke="#000000" points="1421.5,-378.5 1421.5,-398.5 1622.5,-398.5 1622.5,-378.5 1421.5,-378.5"/>
<text text-anchor="middle" x="1522" y="-385.5" font-family="FreeSans" font-size="10.00" fill="#000000">Acts/Geometry/GeometryObject.hpp</text>
</a>
</g>
</g>
<!-- Node2&#45;&gt;Node5 -->
<g id="edge4" class="edge">
<title>Node2&#45;&gt;Node5</title>
<path fill="none" stroke="#191970" d="M1237.0614,-435.4408C1296.8794,-425.5863 1387.9879,-410.5771 1451.0056,-400.1956"/>
<polygon fill="#191970" stroke="#191970" points="1451.9607,-403.5855 1461.2588,-398.5065 1450.8228,-396.6786 1451.9607,-403.5855"/>
</g>
<!-- Node2&#45;&gt;Node15 -->
<g id="edge90" class="edge">
<title>Node2&#45;&gt;Node15</title>
<path fill="none" stroke="#191970" d="M1215.8264,-435.429C1247.2768,-426.5758 1287.4106,-412.9582 1297,-399 1302.285,-391.3072 1299.5678,-386.9732 1297,-378 1263.7155,-261.6875 1211.717,-252.777 1153,-147 1141.9217,-127.0427 1130.5749,-103.4928 1122.9977,-87.2309"/>
<polygon fill="#191970" stroke="#191970" points="1125.9713,-85.3214 1118.6034,-77.708 1119.6153,-88.2544 1125.9713,-85.3214"/>
</g>
<!-- Node27 -->
<g id="node27" class="node">
<title>Node27</title>
<polygon fill="none" stroke="#bfbfbf" points="1009,-120.5 1009,-140.5 1067,-140.5 1067,-120.5 1009,-120.5"/>
<text text-anchor="middle" x="1038" y="-127.5" font-family="FreeSans" font-size="10.00" fill="#000000">memory</text>
</g>
<!-- Node2&#45;&gt;Node27 -->
<g id="edge91" class="edge">
<title>Node2&#45;&gt;Node27</title>
<path fill="none" stroke="#191970" d="M1135.6784,-435.4979C1115.1342,-428.4645 1091.3225,-417.0094 1076,-399 1055.8044,-375.2629 1057,-362.6658 1057,-331.5 1057,-331.5 1057,-331.5 1057,-268.5 1057,-226.389 1048.2099,-177.7196 1042.5873,-150.8957"/>
<polygon fill="#191970" stroke="#191970" points="1045.9427,-149.8532 1040.4064,-140.82 1039.1012,-151.3341 1045.9427,-149.8532"/>
</g>
<!-- Node35 -->
<g id="node35" class="node">
<title>Node35</title>
<g id="a_node35"><a xlink:href="../../d5/dc6/GeometryStatics_8hpp.html" target="_top" xlink:title="Acts/Geometry/GeometryStatics.hpp">
<polygon fill="none" stroke="#000000" points="1085.5,-378.5 1085.5,-398.5 1288.5,-398.5 1288.5,-378.5 1085.5,-378.5"/>
<text text-anchor="middle" x="1187" y="-385.5" font-family="FreeSans" font-size="10.00" fill="#000000">Acts/Geometry/GeometryStatics.hpp</text>
</a>
</g>
</g>
<!-- Node2&#45;&gt;Node35 -->
<g id="edge58" class="edge">
<title>Node2&#45;&gt;Node35</title>
<path fill="none" stroke="#191970" d="M1177.9666,-435.3095C1179.39,-427.9335 1181.3611,-417.72 1183.0989,-408.715"/>
<polygon fill="#191970" stroke="#191970" points="1186.5921,-409.0843 1185.0504,-398.6022 1179.7189,-407.7578 1186.5921,-409.0843"/>
</g>
<!-- Node2&#45;&gt;Node36 -->
<g id="edge60" class="edge">
<title>Node2&#45;&gt;Node36</title>
<path fill="none" stroke="#191970" d="M1097.9117,-437.2726C1001.2036,-427.0834 836.4652,-409.7265 731.8183,-398.7008"/>
<polygon fill="#191970" stroke="#191970" points="731.8805,-395.1881 721.5688,-397.6209 731.147,-402.1496 731.8805,-395.1881"/>
</g>
<!-- Node4 -->
<g id="node4" class="node">
<title>Node4</title>
<polygon fill="none" stroke="#bfbfbf" points="2626.5,-258.5 2626.5,-278.5 2661.5,-278.5 2661.5,-258.5 2626.5,-258.5"/>
<text text-anchor="middle" x="2644" y="-265.5" font-family="FreeSans" font-size="10.00" fill="#000000">any</text>
</g>
<!-- Node3&#45;&gt;Node4 -->
<g id="edge3" class="edge">
<title>Node3&#45;&gt;Node4</title>
<path fill="none" stroke="#191970" d="M1951.0104,-328.1218C2146.8442,-321.3365 2556.2395,-304.9786 2618,-285 2619.2589,-284.5928 2620.5175,-284.11 2621.7639,-283.5702"/>
<polygon fill="#191970" stroke="#191970" points="2623.767,-286.4655 2630.8878,-278.6205 2620.429,-280.3126 2623.767,-286.4655"/>
</g>
<!-- Node5&#45;&gt;Node3 -->
<g id="edge5" class="edge">
<title>Node5&#45;&gt;Node3</title>
<path fill="none" stroke="#191970" d="M1579.3554,-378.4408C1635.427,-368.6067 1720.7688,-353.639 1779.948,-343.2599"/>
<polygon fill="#191970" stroke="#191970" points="1780.7004,-346.6814 1789.9454,-341.5065 1779.4911,-339.7867 1780.7004,-346.6814"/>
</g>
<!-- Node6 -->
<g id="node6" class="node">
<title>Node6</title>
<g id="a_node6"><a xlink:href="../../d5/d67/GeometryIdentifier_8hpp.html" target="_top" xlink:title="Acts/Geometry/GeometryIdentifier.hpp">
<polygon fill="none" stroke="#000000" points="2395.5,-258.5 2395.5,-278.5 2608.5,-278.5 2608.5,-258.5 2395.5,-258.5"/>
<text text-anchor="middle" x="2502" y="-265.5" font-family="FreeSans" font-size="10.00" fill="#000000">Acts/Geometry/GeometryIdentifier.hpp</text>
</a>
</g>
</g>
<!-- Node5&#45;&gt;Node6 -->
<g id="edge6" class="edge">
<title>Node5&#45;&gt;Node6</title>
<path fill="none" stroke="#191970" d="M1572.5506,-378.4177C1607.8525,-370.5555 1655.6859,-358.2424 1696,-342 1713.8982,-334.7889 1715.4564,-326.3368 1734,-321 1872.3833,-281.1739 2237.6568,-298.7391 2381,-285 2395.4039,-283.6194 2410.7279,-281.8022 2425.4575,-279.8793"/>
<polygon fill="#191970" stroke="#191970" points="2426.0915,-283.3258 2435.5414,-278.5352 2425.1666,-276.3872 2426.0915,-283.3258"/>
</g>
<!-- Node10 -->
<g id="node10" class="node">
<title>Node10</title>
<g id="a_node10"><a xlink:href="../../db/d40/Polyhedron_8hpp.html" target="_top" xlink:title="Acts/Geometry/Polyhedron.hpp">
<polygon fill="none" stroke="#000000" points="1511.5,-321.5 1511.5,-341.5 1686.5,-341.5 1686.5,-321.5 1511.5,-321.5"/>
<text text-anchor="middle" x="1599" y="-328.5" font-family="FreeSans" font-size="10.00" fill="#000000">Acts/Geometry/Polyhedron.hpp</text>
</a>
</g>
</g>
<!-- Node5&#45;&gt;Node10 -->
<g id="edge10" class="edge">
<title>Node5&#45;&gt;Node10</title>
<path fill="none" stroke="#191970" d="M1535.7661,-378.3095C1547.2631,-369.7987 1563.8634,-357.5102 1577.1707,-347.6594"/>
<polygon fill="#191970" stroke="#191970" points="1579.3981,-350.3652 1585.3531,-341.6022 1575.2332,-344.7389 1579.3981,-350.3652"/>
</g>
<!-- Node12 -->
<g id="node12" class="node">
<title>Node12</title>
<g id="a_node12"><a xlink:href="../../de/d09/BinningType_8hpp.html" target="_top" xlink:title="Acts/Utilities/BinningType.hpp">
<polygon fill="none" stroke="#000000" points="1275,-120.5 1275,-140.5 1443,-140.5 1443,-120.5 1275,-120.5"/>
<text text-anchor="middle" x="1359" y="-127.5" font-family="FreeSans" font-size="10.00" fill="#000000">Acts/Utilities/BinningType.hpp</text>
</a>
</g>
</g>
<!-- Node5&#45;&gt;Node12 -->
<g id="edge55" class="edge">
<title>Node5&#45;&gt;Node12</title>
<path fill="none" stroke="#191970" d="M1509.9296,-378.3384C1499.937,-369.4818 1485.8344,-355.9076 1476,-342 1430.6674,-277.8916 1440.109,-249.8953 1399,-183 1391.5758,-170.9188 1381.9823,-158.2498 1374.0516,-148.3843"/>
<polygon fill="#191970" stroke="#191970" points="1376.6529,-146.0367 1367.6067,-140.5216 1371.2392,-150.4742 1376.6529,-146.0367"/>
</g>
<!-- Node5&#45;&gt;Node15 -->
<g id="edge56" class="edge">
<title>Node5&#45;&gt;Node15</title>
<path fill="none" stroke="#191970" d="M1506.0297,-378.3643C1456.7853,-346.8079 1303.7533,-246.4599 1190,-147 1167.5993,-127.414 1144.3084,-102.214 1129.5118,-85.4927"/>
<polygon fill="#191970" stroke="#191970" points="1131.8188,-82.8143 1122.5982,-77.596 1126.5521,-87.4254 1131.8188,-82.8143"/>
</g>
<!-- Node17 -->
<g id="node17" class="node">
<title>Node17</title>
<g id="a_node17"><a xlink:href="../../d9/d70/Core_2include_2Acts_2Utilities_2Helpers_8hpp.html" target="_top" xlink:title="Acts/Utilities/Helpers.hpp">
<polygon fill="none" stroke="#000000" points="1489.5,-189.5 1489.5,-209.5 1634.5,-209.5 1634.5,-189.5 1489.5,-189.5"/>
<text text-anchor="middle" x="1562" y="-196.5" font-family="FreeSans" font-size="10.00" fill="#000000">Acts/Utilities/Helpers.hpp</text>
</a>
</g>
</g>
<!-- Node5&#45;&gt;Node17 -->
<g id="edge57" class="edge">
<title>Node5&#45;&gt;Node17</title>
<path fill="none" stroke="#191970" d="M1513.7046,-378.3597C1495.6129,-354.9342 1456.0784,-295.7201 1480,-252 1489.4476,-234.7332 1507.2647,-222.3125 1523.8833,-213.9017"/>
<polygon fill="#191970" stroke="#191970" points="1525.3789,-217.0662 1532.9319,-209.6363 1522.3941,-210.7344 1525.3789,-217.0662"/>
</g>
<!-- Node7 -->
<g id="node7" class="node">
<title>Node7</title>
<polygon fill="none" stroke="#bfbfbf" points="2610.5,-189.5 2610.5,-209.5 2661.5,-209.5 2661.5,-189.5 2610.5,-189.5"/>
<text text-anchor="middle" x="2636" y="-196.5" font-family="FreeSans" font-size="10.00" fill="#000000">cstdint</text>
</g>
<!-- Node6&#45;&gt;Node7 -->
<g id="edge7" class="edge">
<title>Node6&#45;&gt;Node7</title>
<path fill="none" stroke="#191970" d="M2521.4848,-258.4668C2544.1115,-246.8157 2581.634,-227.4944 2607.5274,-214.1613"/>
<polygon fill="#191970" stroke="#191970" points="2609.2035,-217.235 2616.4917,-209.5453 2605.9988,-211.0116 2609.2035,-217.235"/>
</g>
<!-- Node8 -->
<g id="node8" class="node">
<title>Node8</title>
<polygon fill="none" stroke="#bfbfbf" points="2423,-57.5 2423,-77.5 2489,-77.5 2489,-57.5 2423,-57.5"/>
<text text-anchor="middle" x="2456" y="-64.5" font-family="FreeSans" font-size="10.00" fill="#000000">functional</text>
</g>
<!-- Node6&#45;&gt;Node8 -->
<g id="edge8" class="edge">
<title>Node6&#45;&gt;Node8</title>
<path fill="none" stroke="#191970" d="M2557.9011,-258.4939C2601.6625,-249.3892 2657.3354,-234.5537 2671,-216 2679.6976,-204.1905 2672.4655,-197.5933 2671,-183 2667.8732,-151.8651 2678.8239,-136.4249 2657,-114 2635.4543,-91.861 2551.6819,-78.4447 2499.3257,-72.048"/>
<polygon fill="#191970" stroke="#191970" points="2499.6431,-68.5612 2489.3011,-70.8617 2498.8205,-75.5127 2499.6431,-68.5612"/>
</g>
<!-- Node9 -->
<g id="node9" class="node">
<title>Node9</title>
<polygon fill="none" stroke="#bfbfbf" points="2544,-189.5 2544,-209.5 2592,-209.5 2592,-189.5 2544,-189.5"/>
<text text-anchor="middle" x="2568" y="-196.5" font-family="FreeSans" font-size="10.00" fill="#000000">iosfwd</text>
</g>
<!-- Node6&#45;&gt;Node9 -->
<g id="edge9" class="edge">
<title>Node6&#45;&gt;Node9</title>
<path fill="none" stroke="#191970" d="M2511.7385,-258.3188C2522.0722,-247.5154 2538.5976,-230.2389 2551.0706,-217.1989"/>
<polygon fill="#191970" stroke="#191970" points="2553.8385,-219.3687 2558.2215,-209.723 2548.78,-214.5301 2553.8385,-219.3687"/>
</g>
<!-- Node11 -->
<g id="node11" class="node">
<title>Node11</title>
<g id="a_node11"><a xlink:href="../../dc/d2a/Extent_8hpp.html" target="_top" xlink:title="Acts/Geometry/Extent.hpp">
<polygon fill="none" stroke="#000000" points="1778.5,-258.5 1778.5,-278.5 1929.5,-278.5 1929.5,-258.5 1778.5,-258.5"/>
<text text-anchor="middle" x="1854" y="-265.5" font-family="FreeSans" font-size="10.00" fill="#000000">Acts/Geometry/Extent.hpp</text>
</a>
</g>
</g>
<!-- Node10&#45;&gt;Node11 -->
<g id="edge11" class="edge">
<title>Node10&#45;&gt;Node11</title>
<path fill="none" stroke="#191970" d="M1639.6875,-321.4478C1684.1896,-310.4532 1755.563,-292.8197 1803.583,-280.956"/>
<polygon fill="#191970" stroke="#191970" points="1804.5888,-284.3128 1813.4575,-278.5164 1802.9099,-277.5171 1804.5888,-284.3128"/>
</g>
<!-- Node10&#45;&gt;Node14 -->
<g id="edge54" class="edge">
<title>Node10&#45;&gt;Node14</title>
<path fill="none" stroke="#191970" d="M1686.6172,-321.5861C1688.4272,-321.3883 1690.2231,-321.1927 1692,-321 2034.0618,-283.8957 2128.9124,-313.0836 2459,-216 2494.3283,-205.6094 2501.0396,-197.2387 2535,-183 2574.3502,-166.5015 2600.1469,-182.379 2624,-147 2632.199,-134.8391 2633.7442,-124.9618 2624,-114 2600.2854,-87.322 2356.6409,-73.3595 2264.7859,-69.0121"/>
<polygon fill="#191970" stroke="#191970" points="2264.7634,-65.5074 2254.6121,-68.5408 2264.4394,-72.4999 2264.7634,-65.5074"/>
</g>
<!-- Node10&#45;&gt;Node15 -->
<g id="edge50" class="edge">
<title>Node10&#45;&gt;Node15</title>
<path fill="none" stroke="#191970" d="M1613.6836,-321.4543C1659.8509,-288.7279 1795.2784,-183.305 1731,-114 1713.3607,-94.9813 1371.0061,-78.1874 1204.0435,-71.0904"/>
<polygon fill="#191970" stroke="#191970" points="1204.1738,-67.5929 1194.035,-70.6676 1203.8783,-74.5866 1204.1738,-67.5929"/>
</g>
<!-- Node10&#45;&gt;Node17 -->
<g id="edge51" class="edge">
<title>Node10&#45;&gt;Node17</title>
<path fill="none" stroke="#191970" d="M1596.0967,-321.1422C1589.9636,-299.262 1575.5977,-248.0109 1567.6089,-219.5102"/>
<polygon fill="#191970" stroke="#191970" points="1570.959,-218.4939 1564.8898,-209.8097 1564.2188,-220.3833 1570.959,-218.4939"/>
</g>
<!-- Node29 -->
<g id="node29" class="node">
<title>Node29</title>
<g id="a_node29"><a xlink:href="../../d7/d50/BoundaryCheck_8hpp.html" target="_top" xlink:title="Acts/Surfaces/BoundaryCheck.hpp">
<polygon fill="none" stroke="#000000" points="2258,-189.5 2258,-209.5 2450,-209.5 2450,-189.5 2258,-189.5"/>
<text text-anchor="middle" x="2354" y="-196.5" font-family="FreeSans" font-size="10.00" fill="#000000">Acts/Surfaces/BoundaryCheck.hpp</text>
</a>
</g>
</g>
<!-- Node10&#45;&gt;Node29 -->
<g id="edge39" class="edge">
<title>Node10&#45;&gt;Node29</title>
<path fill="none" stroke="#191970" d="M1684.1269,-321.4694C1753.0458,-312.9614 1852.5304,-299.8032 1939,-285 2069.2824,-262.6963 2221.125,-229.5809 2300.0796,-211.8187"/>
<polygon fill="#191970" stroke="#191970" points="2301.28,-215.136 2310.2649,-209.5215 2299.7399,-208.3075 2301.28,-215.136"/>
</g>
<!-- Node10&#45;&gt;Node33 -->
<g id="edge52" class="edge">
<title>Node10&#45;&gt;Node33</title>
<path fill="none" stroke="#191970" d="M1593.1,-321.2187C1581.6446,-301.6445 1556.2671,-260.2359 1542,-252 1434.8363,-190.1384 523.5266,-141.2544 341.5455,-132.0587"/>
<polygon fill="#191970" stroke="#191970" points="341.7135,-128.5628 331.5505,-131.5566 341.3622,-135.554 341.7135,-128.5628"/>
</g>
<!-- Node34 -->
<g id="node34" class="node">
<title>Node34</title>
<polygon fill="none" stroke="#bfbfbf" points="1489,-258.5 1489,-278.5 1533,-278.5 1533,-258.5 1489,-258.5"/>
<text text-anchor="middle" x="1511" y="-265.5" font-family="FreeSans" font-size="10.00" fill="#000000">limits</text>
</g>
<!-- Node10&#45;&gt;Node34 -->
<g id="edge53" class="edge">
<title>Node10&#45;&gt;Node34</title>
<path fill="none" stroke="#191970" d="M1584.8613,-321.378C1571.0054,-311.4584 1549.6692,-296.1837 1533.4848,-284.597"/>
<polygon fill="#191970" stroke="#191970" points="1535.2721,-281.5722 1525.1036,-278.5969 1531.1973,-287.264 1535.2721,-281.5722"/>
</g>
<!-- Node11&#45;&gt;Node9 -->
<g id="edge36" class="edge">
<title>Node11&#45;&gt;Node9</title>
<path fill="none" stroke="#191970" d="M1929.5037,-265.5085C2049.2918,-260.0396 2290.0143,-246.1028 2492,-216 2505.804,-213.9427 2520.8513,-210.8567 2533.8873,-207.9081"/>
<polygon fill="#191970" stroke="#191970" points="2534.8993,-211.2663 2543.8485,-205.5952 2533.316,-204.4477 2534.8993,-211.2663"/>
</g>
<!-- Node11&#45;&gt;Node12 -->
<g id="edge12" class="edge">
<title>Node11&#45;&gt;Node12</title>
<path fill="none" stroke="#191970" d="M1778.2854,-262.332C1685.2442,-253.9776 1533.2833,-237.5932 1481,-216 1458.4066,-206.6688 1456.9237,-197.1626 1437,-183 1419.094,-170.2717 1398.457,-156.4162 1382.9096,-146.1367"/>
<polygon fill="#191970" stroke="#191970" points="1384.6791,-143.1112 1374.4027,-140.533 1380.8284,-148.9569 1384.6791,-143.1112"/>
</g>
<!-- Node11&#45;&gt;Node14 -->
<g id="edge38" class="edge">
<title>Node11&#45;&gt;Node14</title>
<path fill="none" stroke="#191970" d="M1897.4598,-258.4228C1980.8843,-238.292 2159.1064,-191.2291 2203,-147 2218.8155,-131.0636 2225.3738,-105.5236 2228.0891,-87.7061"/>
<polygon fill="#191970" stroke="#191970" points="2231.5643,-88.1219 2229.3315,-77.765 2224.6183,-87.2537 2231.5643,-88.1219"/>
</g>
<!-- Node11&#45;&gt;Node15 -->
<g id="edge15" class="edge">
<title>Node11&#45;&gt;Node15</title>
<path fill="none" stroke="#191970" d="M1851.5806,-258.2594C1844.2035,-229.5782 1819.0585,-148.3176 1764,-114 1740.6422,-99.4412 1377.1164,-80.1432 1204.1457,-71.7264"/>
<polygon fill="#191970" stroke="#191970" points="1204.1977,-68.2249 1194.0399,-71.2365 1203.8586,-75.2167 1204.1977,-68.2249"/>
</g>
<!-- Node11&#45;&gt;Node17 -->
<g id="edge17" class="edge">
<title>Node11&#45;&gt;Node17</title>
<path fill="none" stroke="#191970" d="M1811.5407,-258.4668C1759.3152,-246.1259 1670.6727,-225.1795 1614.3007,-211.8587"/>
<polygon fill="#191970" stroke="#191970" points="1615.0475,-208.4389 1604.5106,-209.5453 1613.4376,-215.2513 1615.0475,-208.4389"/>
</g>
<!-- Node28 -->
<g id="node28" class="node">
<title>Node28</title>
<polygon fill="none" stroke="#bfbfbf" points="2582.5,-57.5 2582.5,-77.5 2627.5,-77.5 2627.5,-57.5 2582.5,-57.5"/>
<text text-anchor="middle" x="2605" y="-64.5" font-family="FreeSans" font-size="10.00" fill="#000000">utility</text>
</g>
<!-- Node11&#45;&gt;Node28 -->
<g id="edge37" class="edge">
<title>Node11&#45;&gt;Node28</title>
<path fill="none" stroke="#191970" d="M1929.5909,-264.9843C2068.8721,-258.0029 2360.7591,-240.8866 2459,-216 2494.697,-206.9572 2501.0396,-197.2387 2535,-183 2574.3502,-166.5015 2600.1469,-182.379 2624,-147 2636.202,-128.902 2626.8824,-103.8524 2617.498,-86.738"/>
<polygon fill="#191970" stroke="#191970" points="2620.2416,-84.5031 2612.1273,-77.6908 2614.2223,-88.0764 2620.2416,-84.5031"/>
</g>
<!-- Node13 -->
<g id="node13" class="node">
<title>Node13</title>
<polygon fill="none" stroke="#bfbfbf" points="1411.5,-57.5 1411.5,-77.5 1456.5,-77.5 1456.5,-57.5 1411.5,-57.5"/>
<text text-anchor="middle" x="1434" y="-64.5" font-family="FreeSans" font-size="10.00" fill="#000000">string</text>
</g>
<!-- Node12&#45;&gt;Node13 -->
<g id="edge13" class="edge">
<title>Node12&#45;&gt;Node13</title>
<path fill="none" stroke="#191970" d="M1371.05,-120.378C1382.5718,-110.6997 1400.1623,-95.9236 1413.8226,-84.449"/>
<polygon fill="#191970" stroke="#191970" points="1416.3248,-86.9181 1421.7307,-77.8062 1411.8224,-81.5582 1416.3248,-86.9181"/>
</g>
<!-- Node12&#45;&gt;Node14 -->
<g id="edge14" class="edge">
<title>Node12&#45;&gt;Node14</title>
<path fill="none" stroke="#191970" d="M1443.1965,-121.7581C1470.2596,-119.088 1500.3815,-116.2624 1528,-114 1660.0376,-103.184 2072.3698,-77.3095 2195.16,-69.6631"/>
<polygon fill="#191970" stroke="#191970" points="2195.3812,-73.1562 2205.1445,-69.0418 2194.9464,-66.1697 2195.3812,-73.1562"/>
</g>
<!-- Node16 -->
<g id="node16" class="node">
<title>Node16</title>
<polygon fill="none" stroke="#bfbfbf" points="1074,-.5 1074,-20.5 1154,-20.5 1154,-.5 1074,-.5"/>
<text text-anchor="middle" x="1114" y="-7.5" font-family="FreeSans" font-size="10.00" fill="#000000">Eigen/Dense</text>
</g>
<!-- Node15&#45;&gt;Node16 -->
<g id="edge16" class="edge">
<title>Node15&#45;&gt;Node16</title>
<path fill="none" stroke="#191970" d="M1114,-57.3095C1114,-49.9335 1114,-39.72 1114,-30.715"/>
<polygon fill="#191970" stroke="#191970" points="1117.5001,-30.6022 1114,-20.6022 1110.5001,-30.6023 1117.5001,-30.6022"/>
</g>
<!-- Node17&#45;&gt;Node12 -->
<g id="edge18" class="edge">
<title>Node17&#45;&gt;Node12</title>
<path fill="none" stroke="#191970" d="M1532.4821,-189.4668C1497.0015,-177.4069 1437.3436,-157.1291 1398.0716,-143.7805"/>
<polygon fill="#191970" stroke="#191970" points="1399.148,-140.4498 1388.5536,-140.5453 1396.8952,-147.0774 1399.148,-140.4498"/>
</g>
<!-- Node17&#45;&gt;Node13 -->
<g id="edge34" class="edge">
<title>Node17&#45;&gt;Node13</title>
<path fill="none" stroke="#191970" d="M1553.5284,-189.4667C1539.6622,-173.1901 1511.0513,-140.2117 1485,-114 1474.8378,-103.7752 1462.963,-92.8906 1453.2298,-84.2247"/>
<polygon fill="#191970" stroke="#191970" points="1455.4566,-81.5218 1445.6424,-77.5303 1450.8254,-86.7708 1455.4566,-81.5218"/>
</g>
<!-- Node17&#45;&gt;Node14 -->
<g id="edge35" class="edge">
<title>Node17&#45;&gt;Node14</title>
<path fill="none" stroke="#191970" d="M1634.5361,-196.6617C1786.31,-190.2358 2127.1638,-173.0763 2173,-147 2196.6489,-133.5461 2213.0217,-105.7962 2221.9635,-86.9125"/>
<polygon fill="#191970" stroke="#191970" points="2225.1847,-88.2829 2226.0637,-77.7246 2218.7923,-85.4302 2225.1847,-88.2829"/>
</g>
<!-- Node17&#45;&gt;Node15 -->
<g id="edge19" class="edge">
<title>Node17&#45;&gt;Node15</title>
<path fill="none" stroke="#191970" d="M1545.4415,-189.48C1529.4021,-179.4856 1504.6849,-163.3099 1485,-147 1469.0282,-133.7666 1470.576,-123.2279 1452,-114 1409.7536,-93.0134 1289.2379,-80.1413 1204.1999,-73.4104"/>
<polygon fill="#191970" stroke="#191970" points="1204.2538,-69.9041 1194.0129,-72.6198 1203.7121,-76.8831 1204.2538,-69.9041"/>
</g>
<!-- Node18 -->
<g id="node18" class="node">
<title>Node18</title>
<g id="a_node18"><a xlink:href="../../d8/dfd/ParameterDefinitions_8hpp.html" target="_top" xlink:title="Acts/Utilities/Parameter\lDefinitions.hpp">
<polygon fill="none" stroke="#000000" points="1854,-114.5 1854,-146.5 1990,-146.5 1990,-114.5 1854,-114.5"/>
<text text-anchor="start" x="1862" y="-133.5" font-family="FreeSans" font-size="10.00" fill="#000000">Acts/Utilities/Parameter</text>
<text text-anchor="middle" x="1922" y="-121.5" font-family="FreeSans" font-size="10.00" fill="#000000">Definitions.hpp</text>
</a>
</g>
</g>
<!-- Node17&#45;&gt;Node18 -->
<g id="edge20" class="edge">
<title>Node17&#45;&gt;Node18</title>
<path fill="none" stroke="#191970" d="M1614.3471,-189.4668C1674.6616,-177.9065 1774.373,-158.7952 1843.874,-145.4741"/>
<polygon fill="#191970" stroke="#191970" points="1844.7384,-148.8723 1853.9008,-143.5524 1843.4207,-141.9974 1844.7384,-148.8723"/>
</g>
<!-- Node20 -->
<g id="node20" class="node">
<title>Node20</title>
<g id="a_node20"><a xlink:href="../../d0/d81/TypeTraits_8hpp.html" target="_top" xlink:title="Acts/Utilities/TypeTraits.hpp">
<polygon fill="none" stroke="#000000" points="2008,-120.5 2008,-140.5 2164,-140.5 2164,-120.5 2008,-120.5"/>
<text text-anchor="middle" x="2086" y="-127.5" font-family="FreeSans" font-size="10.00" fill="#000000">Acts/Utilities/TypeTraits.hpp</text>
</a>
</g>
</g>
<!-- Node17&#45;&gt;Node20 -->
<g id="edge23" class="edge">
<title>Node17&#45;&gt;Node20</title>
<path fill="none" stroke="#191970" d="M1634.5045,-192.3119C1721.368,-183.349 1871.1906,-166.7739 1999,-147 2007.9257,-145.6191 2017.3366,-144.003 2026.54,-142.3324"/>
<polygon fill="#191970" stroke="#191970" points="2027.2156,-145.7669 2036.4124,-140.5067 2025.9426,-138.8836 2027.2156,-145.7669"/>
</g>
<!-- Node21 -->
<g id="node21" class="node">
<title>Node21</title>
<polygon fill="none" stroke="#bfbfbf" points="1605.5,-120.5 1605.5,-140.5 1650.5,-140.5 1650.5,-120.5 1605.5,-120.5"/>
<text text-anchor="middle" x="1628" y="-127.5" font-family="FreeSans" font-size="10.00" fill="#000000">bitset</text>
</g>
<!-- Node17&#45;&gt;Node21 -->
<g id="edge27" class="edge">
<title>Node17&#45;&gt;Node21</title>
<path fill="none" stroke="#191970" d="M1571.7385,-189.3188C1582.0722,-178.5154 1598.5976,-161.2389 1611.0706,-148.1989"/>
<polygon fill="#191970" stroke="#191970" points="1613.8385,-150.3687 1618.2215,-140.723 1608.78,-145.5301 1613.8385,-150.3687"/>
</g>
<!-- Node22 -->
<g id="node22" class="node">
<title>Node22</title>
<polygon fill="none" stroke="#bfbfbf" points="1668.5,-120.5 1668.5,-140.5 1721.5,-140.5 1721.5,-120.5 1668.5,-120.5"/>
<text text-anchor="middle" x="1695" y="-127.5" font-family="FreeSans" font-size="10.00" fill="#000000">cassert</text>
</g>
<!-- Node17&#45;&gt;Node22 -->
<g id="edge28" class="edge">
<title>Node17&#45;&gt;Node22</title>
<path fill="none" stroke="#191970" d="M1581.3393,-189.4668C1603.7972,-177.8157 1641.0397,-158.4944 1666.7398,-145.1613"/>
<polygon fill="#191970" stroke="#191970" points="1668.3726,-148.2573 1675.6373,-140.5453 1665.149,-142.0437 1668.3726,-148.2573"/>
</g>
<!-- Node17&#45;&gt;Node23 -->
<g id="edge29" class="edge">
<title>Node17&#45;&gt;Node23</title>
<path fill="none" stroke="#191970" d="M1634.6977,-197.0632C1838.3202,-189.9997 2404.7276,-168.6378 2486,-147 2488.298,-146.3882 2490.6234,-145.6068 2492.9201,-144.718"/>
<polygon fill="#191970" stroke="#191970" points="2494.3651,-147.9058 2502.0549,-140.6177 2491.4985,-141.5197 2494.3651,-147.9058"/>
</g>
<!-- Node24 -->
<g id="node24" class="node">
<title>Node24</title>
<polygon fill="none" stroke="#bfbfbf" points="1537,-120.5 1537,-140.5 1587,-140.5 1587,-120.5 1537,-120.5"/>
<text text-anchor="middle" x="1562" y="-127.5" font-family="FreeSans" font-size="10.00" fill="#000000">cstdlib</text>
</g>
<!-- Node17&#45;&gt;Node24 -->
<g id="edge30" class="edge">
<title>Node17&#45;&gt;Node24</title>
<path fill="none" stroke="#191970" d="M1562,-189.3188C1562,-179.2289 1562,-163.4925 1562,-150.8347"/>
<polygon fill="#191970" stroke="#191970" points="1565.5001,-150.7229 1562,-140.723 1558.5001,-150.723 1565.5001,-150.7229"/>
</g>
<!-- Node25 -->
<g id="node25" class="node">
<title>Node25</title>
<polygon fill="none" stroke="#bfbfbf" points="1199.5,-120.5 1199.5,-140.5 1256.5,-140.5 1256.5,-120.5 1199.5,-120.5"/>
<text text-anchor="middle" x="1228" y="-127.5" font-family="FreeSans" font-size="10.00" fill="#000000">iomanip</text>
</g>
<!-- Node17&#45;&gt;Node25 -->
<g id="edge31" class="edge">
<title>Node17&#45;&gt;Node25</title>
<path fill="none" stroke="#191970" d="M1489.4236,-191.447C1428.812,-183.5824 1340.5844,-169.4677 1266,-147 1263.5294,-146.2558 1261.005,-145.3961 1258.4904,-144.4679"/>
<polygon fill="#191970" stroke="#191970" points="1259.559,-141.1255 1248.9749,-140.6482 1256.9512,-147.6216 1259.559,-141.1255"/>
</g>
<!-- Node26 -->
<g id="node26" class="node">
<title>Node26</title>
<polygon fill="none" stroke="#bfbfbf" points="893,-120.5 893,-140.5 953,-140.5 953,-120.5 893,-120.5"/>
<text text-anchor="middle" x="923" y="-127.5" font-family="FreeSans" font-size="10.00" fill="#000000">iostream</text>
</g>
<!-- Node17&#45;&gt;Node26 -->
<g id="edge32" class="edge">
<title>Node17&#45;&gt;Node26</title>
<path fill="none" stroke="#191970" d="M1489.3614,-195.4608C1381.9413,-188.8674 1174.5949,-173.7661 1000,-147 987.9802,-145.1573 975.0177,-142.6033 963.2184,-140.0546"/>
<polygon fill="#191970" stroke="#191970" points="963.7223,-136.5814 953.2018,-137.8343 962.2073,-143.4155 963.7223,-136.5814"/>
</g>
<!-- Node17&#45;&gt;Node27 -->
<g id="edge33" class="edge">
<title>Node17&#45;&gt;Node27</title>
<path fill="none" stroke="#191970" d="M1489.4153,-189.9421C1376.9566,-175.1336 1164.4763,-147.1543 1077.0666,-135.6443"/>
<polygon fill="#191970" stroke="#191970" points="1077.4134,-132.1598 1067.042,-134.3242 1076.4995,-139.0999 1077.4134,-132.1598"/>
</g>
<!-- Node18&#45;&gt;Node15 -->
<g id="edge21" class="edge">
<title>Node18&#45;&gt;Node15</title>
<path fill="none" stroke="#191970" d="M1853.6586,-116.0327C1849.0474,-115.2777 1844.4629,-114.5892 1840,-114 1719.6541,-98.1114 1370.7048,-79.866 1204.3132,-71.7615"/>
<polygon fill="#191970" stroke="#191970" points="1204.2637,-68.255 1194.1057,-71.2659 1203.9242,-75.2468 1204.2637,-68.255"/>
</g>
<!-- Node19 -->
<g id="node19" class="node">
<title>Node19</title>
<polygon fill="none" stroke="#bfbfbf" points="1969,-57.5 1969,-77.5 2039,-77.5 2039,-57.5 1969,-57.5"/>
<text text-anchor="middle" x="2004" y="-64.5" font-family="FreeSans" font-size="10.00" fill="#000000">type_traits</text>
</g>
<!-- Node18&#45;&gt;Node19 -->
<g id="edge22" class="edge">
<title>Node18&#45;&gt;Node19</title>
<path fill="none" stroke="#191970" d="M1943.117,-114.2759C1955.1835,-105.0054 1970.2815,-93.4056 1982.4237,-84.0769"/>
<polygon fill="#191970" stroke="#191970" points="1984.8596,-86.6192 1990.6571,-77.7513 1980.5949,-81.0683 1984.8596,-86.6192"/>
</g>
<!-- Node20&#45;&gt;Node8 -->
<g id="edge24" class="edge">
<title>Node20&#45;&gt;Node8</title>
<path fill="none" stroke="#191970" d="M2145.0367,-120.4478C2219.5977,-107.7523 2346.145,-86.205 2412.4801,-74.9101"/>
<polygon fill="#191970" stroke="#191970" points="2413.3217,-78.3173 2422.5923,-73.1883 2412.1467,-71.4166 2413.3217,-78.3173"/>
</g>
<!-- Node20&#45;&gt;Node13 -->
<g id="edge25" class="edge">
<title>Node20&#45;&gt;Node13</title>
<path fill="none" stroke="#191970" d="M2037.8287,-120.4276C2025.2347,-118.0517 2011.6442,-115.7145 1999,-114 1797.7075,-86.7059 1553.7438,-73.1974 1466.7507,-68.9869"/>
<polygon fill="#191970" stroke="#191970" points="1466.8544,-65.488 1456.6992,-68.5082 1466.5214,-72.48 1466.8544,-65.488"/>
</g>
<!-- Node20&#45;&gt;Node19 -->
<g id="edge26" class="edge">
<title>Node20&#45;&gt;Node19</title>
<path fill="none" stroke="#191970" d="M2072.8253,-120.378C2060.0337,-110.5503 2040.4003,-95.4661 2025.3719,-83.9198"/>
<polygon fill="#191970" stroke="#191970" points="2027.2042,-80.9139 2017.142,-77.5969 2022.9395,-86.4648 2027.2042,-80.9139"/>
</g>
<!-- Node29&#45;&gt;Node14 -->
<g id="edge49" class="edge">
<title>Node29&#45;&gt;Node14</title>
<path fill="none" stroke="#191970" d="M2339.162,-189.4611C2325.1305,-179.5768 2303.912,-163.5893 2288,-147 2269.9083,-128.1382 2252.7277,-103.4305 2241.8295,-86.5988"/>
<polygon fill="#191970" stroke="#191970" points="2244.4951,-84.2675 2236.1794,-77.7024 2238.5861,-88.0203 2244.4951,-84.2675"/>
</g>
<!-- Node29&#45;&gt;Node15 -->
<g id="edge44" class="edge">
<title>Node29&#45;&gt;Node15</title>
<path fill="none" stroke="#191970" d="M2257.7639,-195.8157C2131.5872,-189.9173 1917.7412,-175.9421 1845,-147 1822.6163,-138.094 1824.5374,-122.5096 1802,-114 1747.5059,-93.4243 1378.2233,-77.258 1204.2819,-70.6889"/>
<polygon fill="#191970" stroke="#191970" points="1204.2478,-67.1852 1194.1236,-70.3077 1203.9853,-74.1803 1204.2478,-67.1852"/>
</g>
<!-- Node29&#45;&gt;Node18 -->
<g id="edge45" class="edge">
<title>Node29&#45;&gt;Node18</title>
<path fill="none" stroke="#191970" d="M2276.2031,-189.4594C2206.4449,-180.1208 2101.0828,-165.1902 2000.4268,-147.2004"/>
<polygon fill="#191970" stroke="#191970" points="2000.8505,-143.7205 1990.3885,-145.3932 1999.6101,-150.6097 2000.8505,-143.7205"/>
</g>
<!-- Node29&#45;&gt;Node23 -->
<g id="edge47" class="edge">
<title>Node29&#45;&gt;Node23</title>
<path fill="none" stroke="#191970" d="M2381.332,-189.408C2408.2251,-179.2963 2450.3245,-162.9786 2486,-147 2487.3884,-146.3782 2488.8032,-145.7297 2490.2276,-145.0649"/>
<polygon fill="#191970" stroke="#191970" points="2492.1018,-148.0468 2499.5879,-140.5495 2489.0603,-141.742 2492.1018,-148.0468"/>
</g>
<!-- Node30 -->
<g id="node30" class="node">
<title>Node30</title>
<g id="a_node30"><a xlink:href="../../d4/d27/VerticesHelper_8hpp.html" target="_top" xlink:title="Acts/Surfaces/detail\l/VerticesHelper.hpp">
<polygon fill="none" stroke="#000000" points="2296.5,-114.5 2296.5,-146.5 2413.5,-146.5 2413.5,-114.5 2296.5,-114.5"/>
<text text-anchor="start" x="2304.5" y="-133.5" font-family="FreeSans" font-size="10.00" fill="#000000">Acts/Surfaces/detail</text>
<text text-anchor="middle" x="2355" y="-121.5" font-family="FreeSans" font-size="10.00" fill="#000000">/VerticesHelper.hpp</text>
</a>
</g>
</g>
<!-- Node29&#45;&gt;Node30 -->
<g id="edge40" class="edge">
<title>Node29&#45;&gt;Node30</title>
<path fill="none" stroke="#191970" d="M2354.1476,-189.3188C2354.2711,-180.7963 2354.453,-168.2454 2354.617,-156.9239"/>
<polygon fill="#191970" stroke="#191970" points="2358.121,-156.6673 2354.7664,-146.6175 2351.1218,-156.5657 2358.121,-156.6673"/>
</g>
<!-- Node31 -->
<g id="node31" class="node">
<title>Node31</title>
<polygon fill="none" stroke="#bfbfbf" points="2431.5,-120.5 2431.5,-140.5 2476.5,-140.5 2476.5,-120.5 2431.5,-120.5"/>
<text text-anchor="middle" x="2454" y="-127.5" font-family="FreeSans" font-size="10.00" fill="#000000">cfloat</text>
</g>
<!-- Node29&#45;&gt;Node31 -->
<g id="edge46" class="edge">
<title>Node29&#45;&gt;Node31</title>
<path fill="none" stroke="#191970" d="M2368.7553,-189.3188C2385.0771,-178.0568 2411.5937,-159.7603 2430.7219,-146.5619"/>
<polygon fill="#191970" stroke="#191970" points="2432.9411,-149.283 2439.1841,-140.723 2428.9655,-143.5215 2432.9411,-149.283"/>
</g>
<!-- Node32 -->
<g id="node32" class="node">
<title>Node32</title>
<polygon fill="none" stroke="#bfbfbf" points="2561,-120.5 2561,-140.5 2615,-140.5 2615,-120.5 2561,-120.5"/>
<text text-anchor="middle" x="2588" y="-127.5" font-family="FreeSans" font-size="10.00" fill="#000000">iterator</text>
</g>
<!-- Node29&#45;&gt;Node32 -->
<g id="edge48" class="edge">
<title>Node29&#45;&gt;Node32</title>
<path fill="none" stroke="#191970" d="M2400.692,-189.4931C2441.2537,-180.2409 2501.2874,-165.1946 2552,-147 2554.1032,-146.2454 2556.2526,-145.4165 2558.4025,-144.5443"/>
<polygon fill="#191970" stroke="#191970" points="2559.8936,-147.7129 2567.6905,-140.5393 2557.1219,-141.285 2559.8936,-147.7129"/>
</g>
<!-- Node30&#45;&gt;Node14 -->
<g id="edge43" class="edge">
<title>Node30&#45;&gt;Node14</title>
<path fill="none" stroke="#191970" d="M2323.1338,-114.4394C2303.4565,-104.5221 2278.3969,-91.892 2259.2296,-82.2317"/>
<polygon fill="#191970" stroke="#191970" points="2260.5789,-78.9924 2250.0737,-77.6171 2257.4283,-85.2433 2260.5789,-78.9924"/>
</g>
<!-- Node30&#45;&gt;Node15 -->
<g id="edge41" class="edge">
<title>Node30&#45;&gt;Node15</title>
<path fill="none" stroke="#191970" d="M2296.4499,-124.4946C2260.798,-121.0115 2214.3102,-116.778 2173,-114 1985.8133,-101.4121 1425.051,-79.3795 1204.51,-70.9312"/>
<polygon fill="#191970" stroke="#191970" points="1204.3946,-67.4243 1194.2681,-70.5392 1204.1269,-74.4192 1204.3946,-67.4243"/>
</g>
<!-- Node30&#45;&gt;Node28 -->
<g id="edge42" class="edge">
<title>Node30&#45;&gt;Node28</title>
<path fill="none" stroke="#191970" d="M2413.6139,-115.7293C2463.135,-103.25 2532.239,-85.8358 2572.436,-75.7061"/>
<polygon fill="#191970" stroke="#191970" points="2573.4027,-79.072 2582.2442,-73.2345 2571.6921,-72.2842 2573.4027,-79.072"/>
</g>
<!-- Node35&#45;&gt;Node15 -->
<g id="edge59" class="edge">
<title>Node35&#45;&gt;Node15</title>
<path fill="none" stroke="#191970" d="M1183.1718,-378.0955C1171.1663,-344.9334 1134.1563,-238.531 1119,-147 1115.7095,-127.1283 1114.5448,-104.1347 1114.152,-88.0038"/>
<polygon fill="#191970" stroke="#191970" points="1117.6453,-87.5555 1113.9831,-77.6137 1110.6462,-87.6693 1117.6453,-87.5555"/>
</g>
<!-- Node36&#45;&gt;Node14 -->
<g id="edge88" class="edge">
<title>Node36&#45;&gt;Node14</title>
<path fill="none" stroke="#191970" d="M721.7439,-383.9054C785.4454,-378.5031 864.3299,-366.8693 885,-342 949.7722,-264.0692 813.462,-186.7533 884,-114 929.0354,-67.5502 1983.3658,-80.8634 2048,-78 2099.2248,-75.7306 2158.5044,-72.1284 2195.1288,-69.7892"/>
<polygon fill="#191970" stroke="#191970" points="2195.5282,-73.2708 2205.2829,-69.1359 2195.0787,-66.2853 2195.5282,-73.2708"/>
</g>
<!-- Node36&#45;&gt;Node15 -->
<g id="edge61" class="edge">
<title>Node36&#45;&gt;Node15</title>
<path fill="none" stroke="#191970" d="M548.4686,-382.2376C491.1112,-376.0784 423.1853,-364.2299 405,-342 399.0903,-334.776 399.7675,-328.7286 405,-321 429.1526,-285.3258 457.4062,-306.0406 495,-285 608.974,-221.2106 611.682,-159.7982 734,-114 785.348,-94.7744 928.3473,-81.0157 1023.534,-73.6628"/>
<polygon fill="#191970" stroke="#191970" points="1024.0369,-77.1347 1033.7419,-72.8846 1023.5047,-70.155 1024.0369,-77.1347"/>
</g>
<!-- Node36&#45;&gt;Node17 -->
<g id="edge75" class="edge">
<title>Node36&#45;&gt;Node17</title>
<path fill="none" stroke="#191970" d="M702.8997,-378.4722C760.5532,-369.6972 845.4083,-356.1678 919,-342 1140.2978,-299.3959 1401.9823,-237.926 1510.6886,-211.8942"/>
<polygon fill="#191970" stroke="#191970" points="1511.5082,-215.297 1520.4163,-209.5615 1509.8758,-208.49 1511.5082,-215.297"/>
</g>
<!-- Node36&#45;&gt;Node26 -->
<g id="edge84" class="edge">
<title>Node36&#45;&gt;Node26</title>
<path fill="none" stroke="#191970" d="M548.4932,-381.4818C493.7611,-375.0409 430.1925,-363.1668 413,-342 407.1156,-334.7554 407.3003,-328.3909 413,-321 451.4458,-271.1465 489.5035,-302.425 550,-285 648.4707,-256.6372 675.8869,-256.542 770,-216 817.4077,-195.5777 869.17,-164.677 898.6981,-146.1528"/>
<polygon fill="#191970" stroke="#191970" points="900.8912,-148.907 907.4702,-140.6023 897.1483,-142.9917 900.8912,-148.907"/>
</g>
<!-- Node36&#45;&gt;Node33 -->
<g id="edge83" class="edge">
<title>Node36&#45;&gt;Node33</title>
<path fill="none" stroke="#191970" d="M548.3181,-380.4367C466.8336,-371.9595 355.3983,-357.6923 342,-342 335.9396,-334.9019 336.307,-328.396 342,-321 380.1386,-271.4523 439.8614,-334.5477 478,-285 486.9461,-273.3777 483.9378,-265.4109 478,-252 452.2863,-193.9243 382.2057,-158.1849 341.1352,-141.5813"/>
<polygon fill="#191970" stroke="#191970" points="342.1971,-138.2387 331.6089,-137.8628 339.6517,-144.7595 342.1971,-138.2387"/>
</g>
<!-- Node36&#45;&gt;Node34 -->
<g id="edge85" class="edge">
<title>Node36&#45;&gt;Node34</title>
<path fill="none" stroke="#191970" d="M721.6876,-386.9901C839.888,-383.765 1057.8734,-373.6579 1241,-342 1328.7792,-326.8252 1429.3344,-295.6797 1479.3278,-279.2279"/>
<polygon fill="#191970" stroke="#191970" points="1480.5299,-282.5168 1488.9198,-276.0469 1478.3264,-275.8726 1480.5299,-282.5168"/>
</g>
<!-- Node37 -->
<g id="node37" class="node">
<title>Node37</title>
<g id="a_node37"><a xlink:href="../../de/da5/Frustum_8hpp.html" target="_top" xlink:title="Acts/Utilities/Frustum.hpp">
<polygon fill="none" stroke="#000000" points="104.5,-321.5 104.5,-341.5 251.5,-341.5 251.5,-321.5 104.5,-321.5"/>
<text text-anchor="middle" x="178" y="-328.5" font-family="FreeSans" font-size="10.00" fill="#000000">Acts/Utilities/Frustum.hpp</text>
</a>
</g>
</g>
<!-- Node36&#45;&gt;Node37 -->
<g id="edge62" class="edge">
<title>Node36&#45;&gt;Node37</title>
<path fill="none" stroke="#191970" d="M554.6118,-378.4735C472.2878,-368.2055 344.8947,-352.3162 261.4679,-341.9107"/>
<polygon fill="#191970" stroke="#191970" points="261.8742,-338.4343 251.5179,-340.6696 261.0078,-345.3805 261.8742,-338.4343"/>
</g>
<!-- Node38 -->
<g id="node38" class="node">
<title>Node38</title>
<g id="a_node38"><a xlink:href="../../d7/dd4/IVisualization3D_8hpp.html" target="_top" xlink:title="Acts/Visualization\l/IVisualization3D.hpp">
<polygon fill="none" stroke="#000000" points="109,-252.5 109,-284.5 233,-284.5 233,-252.5 109,-252.5"/>
<text text-anchor="start" x="117" y="-271.5" font-family="FreeSans" font-size="10.00" fill="#000000">Acts/Visualization</text>
<text text-anchor="middle" x="171" y="-259.5" font-family="FreeSans" font-size="10.00" fill="#000000">/IVisualization3D.hpp</text>
</a>
</g>
</g>
<!-- Node36&#45;&gt;Node38 -->
<g id="edge81" class="edge">
<title>Node36&#45;&gt;Node38</title>
<path fill="none" stroke="#191970" d="M548.4236,-387.3209C403.5866,-384.4411 124.9802,-374.6727 95,-342 78.0153,-323.4898 100.9138,-303.7637 125.9051,-289.4124"/>
<polygon fill="#191970" stroke="#191970" points="127.6712,-292.4359 134.7702,-284.5711 124.3161,-286.2923 127.6712,-292.4359"/>
</g>
<!-- Node41 -->
<g id="node41" class="node">
<title>Node41</title>
<polygon fill="none" stroke="#bfbfbf" points="412.5,-258.5 412.5,-278.5 469.5,-278.5 469.5,-258.5 412.5,-258.5"/>
<text text-anchor="middle" x="441" y="-265.5" font-family="FreeSans" font-size="10.00" fill="#000000">ostream</text>
</g>
<!-- Node36&#45;&gt;Node41 -->
<g id="edge86" class="edge">
<title>Node36&#45;&gt;Node41</title>
<path fill="none" stroke="#191970" d="M548.1451,-382.1424C455.5029,-374.4588 319.8713,-360.2568 304,-342 255.0607,-285.705 298.2774,-326.7315 403,-285 404.8541,-284.2612 406.7527,-283.4886 408.6644,-282.6984"/>
<polygon fill="#191970" stroke="#191970" points="410.3384,-285.7907 418.1867,-278.6735 407.6131,-279.343 410.3384,-285.7907"/>
</g>
<!-- Node43 -->
<g id="node43" class="node">
<title>Node43</title>
<g id="a_node43"><a xlink:href="../../d4/db2/Ray_8hpp.html" target="_top" xlink:title="Acts/Utilities/Ray.hpp">
<polygon fill="none" stroke="#000000" points="753.5,-321.5 753.5,-341.5 876.5,-341.5 876.5,-321.5 753.5,-321.5"/>
<text text-anchor="middle" x="815" y="-328.5" font-family="FreeSans" font-size="10.00" fill="#000000">Acts/Utilities/Ray.hpp</text>
</a>
</g>
</g>
<!-- Node36&#45;&gt;Node43 -->
<g id="edge76" class="edge">
<title>Node36&#45;&gt;Node43</title>
<path fill="none" stroke="#191970" d="M666.766,-378.4408C696.4921,-369.0275 741.0715,-354.9107 773.5784,-344.6169"/>
<polygon fill="#191970" stroke="#191970" points="774.7725,-347.9101 783.2493,-341.5544 772.6592,-341.2367 774.7725,-347.9101"/>
</g>
<!-- Node45 -->
<g id="node45" class="node">
<title>Node45</title>
<polygon fill="none" stroke="#bfbfbf" points="670.5,-321.5 670.5,-341.5 735.5,-341.5 735.5,-321.5 670.5,-321.5"/>
<text text-anchor="middle" x="703" y="-328.5" font-family="FreeSans" font-size="10.00" fill="#000000">algorithm</text>
</g>
<!-- Node36&#45;&gt;Node45 -->
<g id="edge82" class="edge">
<title>Node36&#45;&gt;Node45</title>
<path fill="none" stroke="#191970" d="M647.157,-378.3095C657.1169,-369.9608 671.4135,-357.9769 683.0475,-348.2249"/>
<polygon fill="#191970" stroke="#191970" points="685.5329,-350.7086 690.9482,-341.6022 681.0361,-345.344 685.5329,-350.7086"/>
</g>
<!-- Node46 -->
<g id="node46" class="node">
<title>Node46</title>
<polygon fill="none" stroke="#bfbfbf" points="422,-321.5 422,-341.5 464,-341.5 464,-321.5 422,-321.5"/>
<text text-anchor="middle" x="443" y="-328.5" font-family="FreeSans" font-size="10.00" fill="#000000">tuple</text>
</g>
<!-- Node36&#45;&gt;Node46 -->
<g id="edge87" class="edge">
<title>Node36&#45;&gt;Node46</title>
<path fill="none" stroke="#191970" d="M597.823,-378.4793C566.9297,-370.0075 521.6259,-357.2515 473.8413,-342.1572"/>
<polygon fill="#191970" stroke="#191970" points="474.8454,-338.8038 464.2549,-339.1077 472.7234,-345.4744 474.8454,-338.8038"/>
</g>
<!-- Node47 -->
<g id="node47" class="node">
<title>Node47</title>
<g id="a_node47"><a xlink:href="../../de/d6c/BoundingBox_8ipp.html" target="_top" xlink:title="Acts/Utilities/BoundingBox.ipp">
<polygon fill="none" stroke="#000000" points="482,-321.5 482,-341.5 652,-341.5 652,-321.5 482,-321.5"/>
<text text-anchor="middle" x="567" y="-328.5" font-family="FreeSans" font-size="10.00" fill="#000000">Acts/Utilities/BoundingBox.ipp</text>
</a>
</g>
</g>
<!-- Node36&#45;&gt;Node47 -->
<g id="edge89" class="edge">
<title>Node36&#45;&gt;Node47</title>
<path fill="none" stroke="#191970" d="M622.843,-378.3095C612.8831,-369.9608 598.5865,-357.9769 586.9525,-348.2249"/>
<polygon fill="#191970" stroke="#191970" points="588.9639,-345.344 579.0518,-341.6022 584.4671,-350.7086 588.9639,-345.344"/>
</g>
<!-- Node37&#45;&gt;Node15 -->
<g id="edge63" class="edge">
<title>Node37&#45;&gt;Node15</title>
<path fill="none" stroke="#191970" d="M146.4756,-321.4097C129.4674,-314.1713 109.9674,-302.5463 100,-285 59.8616,-214.3416 121.0699,-154.2916 192,-114 227.7491,-93.6929 798.6899,-76.0615 1023.7824,-69.8659"/>
<polygon fill="#191970" stroke="#191970" points="1024.0123,-73.361 1033.9127,-69.5883 1023.8205,-66.3636 1024.0123,-73.361"/>
</g>
<!-- Node37&#45;&gt;Node38 -->
<g id="edge64" class="edge">
<title>Node37&#45;&gt;Node38</title>
<path fill="none" stroke="#191970" d="M176.8753,-321.378C176.0779,-314.2008 174.9689,-304.2202 173.929,-294.8614"/>
<polygon fill="#191970" stroke="#191970" points="177.3877,-294.2943 172.8047,-284.742 170.4305,-295.0674 177.3877,-294.2943"/>
</g>
<!-- Node37&#45;&gt;Node41 -->
<g id="edge72" class="edge">
<title>Node37&#45;&gt;Node41</title>
<path fill="none" stroke="#191970" d="M244.3888,-321.4784C289.6849,-313.7455 350.7138,-301.5599 403,-285 405.4598,-284.2209 407.9765,-283.3362 410.4857,-282.3907"/>
<polygon fill="#191970" stroke="#191970" points="412.0382,-285.5381 419.991,-278.5379 409.4086,-279.0507 412.0382,-285.5381"/>
</g>
<!-- Node42 -->
<g id="node42" class="node">
<title>Node42</title>
<g id="a_node42"><a xlink:href="../../d7/d3e/Frustum_8ipp.html" target="_top" xlink:title="Acts/Utilities/Frustum.ipp">
<polygon fill="none" stroke="#000000" points="251.5,-258.5 251.5,-278.5 394.5,-278.5 394.5,-258.5 251.5,-258.5"/>
<text text-anchor="middle" x="323" y="-265.5" font-family="FreeSans" font-size="10.00" fill="#000000">Acts/Utilities/Frustum.ipp</text>
</a>
</g>
</g>
<!-- Node37&#45;&gt;Node42 -->
<g id="edge73" class="edge">
<title>Node37&#45;&gt;Node42</title>
<path fill="none" stroke="#191970" d="M201.2968,-321.378C225.3958,-310.9073 263.2279,-294.4699 290.3137,-282.7016"/>
<polygon fill="#191970" stroke="#191970" points="291.9841,-285.792 299.7611,-278.5969 289.1946,-279.3718 291.9841,-285.792"/>
</g>
<!-- Node38&#45;&gt;Node13 -->
<g id="edge70" class="edge">
<title>Node38&#45;&gt;Node13</title>
<path fill="none" stroke="#191970" d="M233.3324,-253.9882C236.262,-253.3144 239.1626,-252.6489 242,-252 313.0545,-235.7503 335.8198,-246.5447 402,-216 424.1946,-205.7564 423.6273,-192.8484 446,-183 623.5084,-104.8614 1250.0908,-74.9259 1401.0844,-68.7594"/>
<polygon fill="#191970" stroke="#191970" points="1401.27,-72.2548 1411.1214,-68.3561 1400.9889,-65.2605 1401.27,-72.2548"/>
</g>
<!-- Node38&#45;&gt;Node14 -->
<g id="edge71" class="edge">
<title>Node38&#45;&gt;Node14</title>
<path fill="none" stroke="#191970" d="M233.3018,-253.8481C236.2396,-253.2117 239.1503,-252.5925 242,-252 328.7139,-233.9708 351.4125,-234.6265 438,-216 530.4211,-196.1186 757.3388,-126.8263 851,-114 1114.6595,-77.8935 1782.1355,-89.6649 2048,-78 2099.2258,-75.7524 2158.5051,-72.1444 2195.1292,-69.798"/>
<polygon fill="#191970" stroke="#191970" points="2195.5294,-73.2796 2205.2832,-69.1426 2195.0784,-66.2941 2195.5294,-73.2796"/>
</g>
<!-- Node38&#45;&gt;Node15 -->
<g id="edge65" class="edge">
<title>Node38&#45;&gt;Node15</title>
<path fill="none" stroke="#191970" d="M165.4048,-252.2134C160.225,-234.0932 154.9725,-204.5367 167,-183 195.5071,-131.9548 223.213,-131.4951 279,-114 348.489,-92.2078 821.9487,-76.012 1023.4828,-70.0261"/>
<polygon fill="#191970" stroke="#191970" points="1023.8525,-73.5168 1033.7448,-69.7231 1023.6459,-66.5198 1023.8525,-73.5168"/>
</g>
<!-- Node38&#45;&gt;Node33 -->
<g id="edge68" class="edge">
<title>Node38&#45;&gt;Node33</title>
<path fill="none" stroke="#191970" d="M233.0298,-253.8062C254.2181,-245.8831 276.2621,-233.9105 291,-216 306.1132,-197.6334 309.851,-169.7903 310.4722,-150.9086"/>
<polygon fill="#191970" stroke="#191970" points="313.9732,-150.742 310.5353,-140.7205 306.9733,-150.6986 313.9732,-150.742"/>
</g>
<!-- Node39 -->
<g id="node39" class="node">
<title>Node39</title>
<g id="a_node39"><a xlink:href="../../d2/d68/ViewConfig_8hpp.html" target="_top" xlink:title="Acts/Visualization\l/ViewConfig.hpp">
<polygon fill="none" stroke="#000000" points="176,-183.5 176,-215.5 282,-215.5 282,-183.5 176,-183.5"/>
<text text-anchor="start" x="184" y="-202.5" font-family="FreeSans" font-size="10.00" fill="#000000">Acts/Visualization</text>
<text text-anchor="middle" x="229" y="-190.5" font-family="FreeSans" font-size="10.00" fill="#000000">/ViewConfig.hpp</text>
</a>
</g>
</g>
<!-- Node38&#45;&gt;Node39 -->
<g id="edge66" class="edge">
<title>Node38&#45;&gt;Node39</title>
<path fill="none" stroke="#191970" d="M184.4521,-252.4966C191.6679,-243.9123 200.707,-233.1589 208.7539,-223.5859"/>
<polygon fill="#191970" stroke="#191970" points="211.4627,-225.8028 215.218,-215.8958 206.1043,-221.2986 211.4627,-225.8028"/>
</g>
<!-- Node40 -->
<g id="node40" class="node">
<title>Node40</title>
<polygon fill="none" stroke="#bfbfbf" points="338.5,-189.5 338.5,-209.5 393.5,-209.5 393.5,-189.5 338.5,-189.5"/>
<text text-anchor="middle" x="366" y="-196.5" font-family="FreeSans" font-size="10.00" fill="#000000">fstream</text>
</g>
<!-- Node38&#45;&gt;Node40 -->
<g id="edge69" class="edge">
<title>Node38&#45;&gt;Node40</title>
<path fill="none" stroke="#191970" d="M219.4275,-252.4866C249.6185,-242.3542 289.2093,-228.7959 324,-216 326.3804,-215.1245 328.8305,-214.2065 331.2945,-213.2709"/>
<polygon fill="#191970" stroke="#191970" points="332.6773,-216.4889 340.7494,-209.6266 330.1597,-209.9573 332.6773,-216.4889"/>
</g>
<!-- Node39&#45;&gt;Node33 -->
<g id="edge67" class="edge">
<title>Node39&#45;&gt;Node33</title>
<path fill="none" stroke="#191970" d="M247.7866,-183.4966C260.5146,-172.6543 277.3046,-158.3516 290.2341,-147.3376"/>
<polygon fill="#191970" stroke="#191970" points="292.7489,-149.7932 298.0917,-140.6441 288.2096,-144.4645 292.7489,-149.7932"/>
</g>
<!-- Node42&#45;&gt;Node17 -->
<g id="edge74" class="edge">
<title>Node42&#45;&gt;Node17</title>
<path fill="none" stroke="#191970" d="M365.5555,-258.4221C377.5967,-255.9258 390.7576,-253.53 403,-252 611.5289,-225.9387 1250.153,-207.4819 1479.1761,-201.5477"/>
<polygon fill="#191970" stroke="#191970" points="1479.5362,-205.0397 1489.4426,-201.283 1479.3557,-198.042 1479.5362,-205.0397"/>
</g>
<!-- Node43&#45;&gt;Node15 -->
<g id="edge77" class="edge">
<title>Node43&#45;&gt;Node15</title>
<path fill="none" stroke="#191970" d="M813.0215,-321.0524C807.0722,-286.151 793.1325,-172.5056 851,-114 874.8813,-89.8554 957.5397,-78.1172 1023.8932,-72.4928"/>
<polygon fill="#191970" stroke="#191970" points="1024.2891,-75.9723 1033.9729,-71.6741 1023.7223,-68.9952 1024.2891,-75.9723"/>
</g>
<!-- Node43&#45;&gt;Node38 -->
<g id="edge78" class="edge">
<title>Node43&#45;&gt;Node38</title>
<path fill="none" stroke="#191970" d="M753.463,-322.1102C750.2654,-321.7129 747.0966,-321.3395 744,-321 524.9055,-296.9778 464.9218,-317.7907 243.2271,-285.0401"/>
<polygon fill="#191970" stroke="#191970" points="243.6395,-281.563 233.2315,-283.5437 242.603,-288.4858 243.6395,-281.563"/>
</g>
<!-- Node44 -->
<g id="node44" class="node">
<title>Node44</title>
<g id="a_node44"><a xlink:href="../../d7/d64/Ray_8ipp.html" target="_top" xlink:title="Acts/Utilities/Ray.ipp">
<polygon fill="none" stroke="#000000" points="641,-189.5 641,-209.5 761,-209.5 761,-189.5 641,-189.5"/>
<text text-anchor="middle" x="701" y="-196.5" font-family="FreeSans" font-size="10.00" fill="#000000">Acts/Utilities/Ray.ipp</text>
</a>
</g>
</g>
<!-- Node43&#45;&gt;Node44 -->
<g id="edge79" class="edge">
<title>Node43&#45;&gt;Node44</title>
<path fill="none" stroke="#191970" d="M806.0546,-321.1422C786.7419,-298.7801 740.9335,-245.7388 716.6842,-217.6606"/>
<polygon fill="#191970" stroke="#191970" points="719.089,-215.0903 709.9038,-209.8097 713.7912,-219.6656 719.089,-215.0903"/>
</g>
<!-- Node44&#45;&gt;Node15 -->
<g id="edge80" class="edge">
<title>Node44&#45;&gt;Node15</title>
<path fill="none" stroke="#191970" d="M706.5143,-189.2196C717.0689,-170.67 742.0378,-131.8726 775,-114 816.6939,-91.393 938.2644,-78.8968 1023.8457,-72.6938"/>
<polygon fill="#191970" stroke="#191970" points="1024.107,-76.1841 1033.8347,-71.9863 1023.6124,-69.2016 1024.107,-76.1841"/>
</g>
<!-- Node48&#45;&gt;Node2 -->
<g id="edge93" class="edge">
<title>Node48&#45;&gt;Node2</title>
<path fill="none" stroke="#191970" d="M1050.8247,-492.4408C1075.4939,-483.1898 1112.2771,-469.3961 1139.5929,-459.1527"/>
<polygon fill="#191970" stroke="#191970" points="1141.054,-462.3428 1149.1883,-455.5544 1138.596,-455.7885 1141.054,-462.3428"/>
</g>
<!-- Node48&#45;&gt;Node12 -->
<g id="edge94" class="edge">
<title>Node48&#45;&gt;Node12</title>
<path fill="none" stroke="#191970" d="M1121.1127,-493.7404C1185.914,-486.3869 1264.1526,-474.1373 1292,-456 1394.1905,-389.4423 1373.3037,-210.882 1362.9173,-150.655"/>
<polygon fill="#191970" stroke="#191970" points="1366.3115,-149.7572 1361.0757,-140.5465 1359.4248,-151.0119 1366.3115,-149.7572"/>
</g>
<!-- Node48&#45;&gt;Node15 -->
<g id="edge96" class="edge">
<title>Node48&#45;&gt;Node15</title>
<path fill="none" stroke="#191970" d="M1017.2813,-492.3025C1005.1875,-472.9317 981,-429.1134 981,-388.5 981,-388.5 981,-388.5 981,-199.5 981,-160.573 974.8902,-143.7457 1000,-114 1013.3284,-98.2108 1032.846,-87.7156 1051.9782,-80.7675"/>
<polygon fill="#191970" stroke="#191970" points="1053.24,-84.0361 1061.6106,-77.5412 1051.0168,-77.3985 1053.24,-84.0361"/>
</g>
<!-- Node48&#45;&gt;Node25 -->
<g id="edge97" class="edge">
<title>Node48&#45;&gt;Node25</title>
<path fill="none" stroke="#191970" d="M1104.8455,-492.4648C1163.2806,-484.1564 1236.4263,-471.266 1263,-456 1292.2202,-439.2136 1301.1277,-430.5381 1313,-399 1347.8099,-306.5296 1274.7006,-192.7428 1242.3578,-148.911"/>
<polygon fill="#191970" stroke="#191970" points="1245.1167,-146.7563 1236.3023,-140.8777 1239.5269,-150.9699 1245.1167,-146.7563"/>
</g>
<!-- Node48&#45;&gt;Node26 -->
<g id="edge98" class="edge">
<title>Node48&#45;&gt;Node26</title>
<path fill="none" stroke="#191970" d="M1007.1623,-492.3909C994.5393,-484.0429 977.6699,-471.1351 967,-456 948.6542,-429.9767 943,-420.3399 943,-388.5 943,-388.5 943,-388.5 943,-268.5 943,-226.3467 933.7472,-177.6925 927.8287,-150.8827"/>
<polygon fill="#191970" stroke="#191970" points="931.1683,-149.7847 925.533,-140.8128 924.3434,-151.3407 931.1683,-149.7847"/>
</g>
<!-- Node48&#45;&gt;Node27 -->
<g id="edge99" class="edge">
<title>Node48&#45;&gt;Node27</title>
<path fill="none" stroke="#191970" d="M1023.2622,-492.4417C1021.8714,-472.5838 1019,-426.9327 1019,-388.5 1019,-388.5 1019,-388.5 1019,-268.5 1019,-226.389 1027.7901,-177.7196 1033.4127,-150.8957"/>
<polygon fill="#191970" stroke="#191970" points="1036.8988,-151.3341 1035.5936,-140.82 1030.0573,-149.8532 1036.8988,-151.3341"/>
</g>
<!-- Node48&#45;&gt;Node36 -->
<g id="edge95" class="edge">
<title>Node48&#45;&gt;Node36</title>
<path fill="none" stroke="#191970" d="M989.8198,-492.4832C919.2911,-471.8141 757.6872,-424.4546 679.2833,-401.4776"/>
<polygon fill="#191970" stroke="#191970" points="679.8225,-397.9885 669.2417,-398.5348 677.8538,-404.706 679.8225,-397.9885"/>
</g>
</g>
</svg>
