<?xml version="1.0" encoding="UTF-8" standalone="no"?>
<!DOCTYPE svg PUBLIC "-//W3C//DTD SVG 1.1//EN"
 "http://www.w3.org/Graphics/SVG/1.1/DTD/svg11.dtd">
<!-- Generated by graphviz version 2.40.1 (20161225.0304)
 -->
<!-- Title: acts/blob/sPHENIX/Tests/IntegrationTests/PropagationCompareEigenStraightLine.cpp Pages: 1 -->
<svg width="4110pt" height="524pt"
 viewBox="0.00 0.00 4110.00 524.00" xmlns="http://www.w3.org/2000/svg" xmlns:xlink="http://www.w3.org/1999/xlink">
<g id="graph0" class="graph" transform="scale(1 1) rotate(0) translate(4 520)">
<title>acts/blob/sPHENIX/Tests/IntegrationTests/PropagationCompareEigenStraightLine.cpp</title>
<!-- Node1 -->
<g id="node1" class="node">
<title>Node1</title>
<polygon fill="#bfbfbf" stroke="#000000" points="2426,-471.5 2426,-515.5 2600,-515.5 2600,-471.5 2426,-471.5"/>
<text text-anchor="start" x="2434" y="-502.5" font-family="FreeSans" font-size="10.00" fill="#000000">acts/blob/sPHENIX/Tests</text>
<text text-anchor="start" x="2434" y="-490.5" font-family="FreeSans" font-size="10.00" fill="#000000">/IntegrationTests/Propagation</text>
<text text-anchor="middle" x="2513" y="-478.5" font-family="FreeSans" font-size="10.00" fill="#000000">CompareEigenStraightLine.cpp</text>
</g>
<!-- Node2 -->
<g id="node2" class="node">
<title>Node2</title>
<polygon fill="none" stroke="#bfbfbf" points="1960,-345.5 1960,-377.5 2076,-377.5 2076,-345.5 1960,-345.5"/>
<text text-anchor="start" x="1968" y="-364.5" font-family="FreeSans" font-size="10.00" fill="#000000">boost/test/data/test</text>
<text text-anchor="middle" x="2018" y="-352.5" font-family="FreeSans" font-size="10.00" fill="#000000">_case.hpp</text>
</g>
<!-- Node1&#45;&gt;Node2 -->
<g id="edge1" class="edge">
<title>Node1&#45;&gt;Node2</title>
<path fill="none" stroke="#191970" d="M2482.1688,-471.4611C2452.1498,-450.4268 2408.3128,-420.9398 2389,-414 2263.0369,-368.7367 2221.861,-400.9812 2090,-378 2088.7208,-377.7771 2087.4303,-377.546 2086.1311,-377.3077"/>
<polygon fill="#191970" stroke="#191970" points="2086.5353,-373.821 2076.0523,-375.3567 2085.2049,-380.6934 2086.5353,-373.821"/>
</g>
<!-- Node3 -->
<g id="node3" class="node">
<title>Node3</title>
<polygon fill="none" stroke="#bfbfbf" points="2171.5,-414.5 2171.5,-434.5 2308.5,-434.5 2308.5,-414.5 2171.5,-414.5"/>
<text text-anchor="middle" x="2240" y="-421.5" font-family="FreeSans" font-size="10.00" fill="#000000">boost/test/unit_test.hpp</text>
</g>
<!-- Node1&#45;&gt;Node3 -->
<g id="edge2" class="edge">
<title>Node1&#45;&gt;Node3</title>
<path fill="none" stroke="#191970" d="M2425.8705,-471.4783C2380.8916,-460.11 2327.647,-446.6525 2289.6989,-437.0613"/>
<polygon fill="#191970" stroke="#191970" points="2290.4617,-433.6441 2279.9089,-434.5869 2288.7463,-440.4306 2290.4617,-433.6441"/>
</g>
<!-- Node4 -->
<g id="node4" class="node">
<title>Node4</title>
<g id="a_node4"><a xlink:href="../../d1/db8/GeometryContext_8hpp.html" target="_top" xlink:title="Acts/Geometry/GeometryContext.hpp">
<polygon fill="none" stroke="#000000" points="3582,-132.5 3582,-152.5 3790,-152.5 3790,-132.5 3582,-132.5"/>
<text text-anchor="middle" x="3686" y="-139.5" font-family="FreeSans" font-size="10.00" fill="#000000">Acts/Geometry/GeometryContext.hpp</text>
</a>
</g>
</g>
<!-- Node1&#45;&gt;Node4 -->
<g id="edge3" class="edge">
<title>Node1&#45;&gt;Node4</title>
<path fill="none" stroke="#191970" d="M2600.0555,-489.7247C2902.3086,-476.0501 3888,-426.4743 3888,-361.5 3888,-361.5 3888,-361.5 3888,-286.5 3888,-213.0654 3798.3893,-173.5716 3738.5376,-155.3831"/>
<polygon fill="#191970" stroke="#191970" points="3739.4197,-151.9945 3728.839,-152.5414 3737.4514,-158.7121 3739.4197,-151.9945"/>
</g>
<!-- Node6 -->
<g id="node6" class="node">
<title>Node6</title>
<g id="a_node6"><a xlink:href="../../de/d07/ConstantBField_8hpp.html" target="_top" xlink:title="Acts/MagneticField\l/ConstantBField.hpp">
<polygon fill="none" stroke="#000000" points="3954.5,-270.5 3954.5,-302.5 4073.5,-302.5 4073.5,-270.5 3954.5,-270.5"/>
<text text-anchor="start" x="3962.5" y="-289.5" font-family="FreeSans" font-size="10.00" fill="#000000">Acts/MagneticField</text>
<text text-anchor="middle" x="4014" y="-277.5" font-family="FreeSans" font-size="10.00" fill="#000000">/ConstantBField.hpp</text>
</a>
</g>
</g>
<!-- Node1&#45;&gt;Node6 -->
<g id="edge5" class="edge">
<title>Node1&#45;&gt;Node6</title>
<path fill="none" stroke="#191970" d="M2600.1664,-491.8749C2895.6688,-486.0994 3844.3149,-465.2775 3902,-435 3952.7462,-408.3646 3986.9613,-347.2857 4003.176,-312.3235"/>
<polygon fill="#191970" stroke="#191970" points="4006.5522,-313.3484 4007.4502,-302.7917 4000.1649,-310.4842 4006.5522,-313.3484"/>
</g>
<!-- Node8 -->
<g id="node8" class="node">
<title>Node8</title>
<g id="a_node8"><a xlink:href="../../d6/da8/MagneticFieldContext_8hpp.html" target="_top" xlink:title="Acts/MagneticField\l/MagneticFieldContext.hpp">
<polygon fill="none" stroke="#000000" points="3808,-126.5 3808,-158.5 3960,-158.5 3960,-126.5 3808,-126.5"/>
<text text-anchor="start" x="3816" y="-145.5" font-family="FreeSans" font-size="10.00" fill="#000000">Acts/MagneticField</text>
<text text-anchor="middle" x="3884" y="-133.5" font-family="FreeSans" font-size="10.00" fill="#000000">/MagneticFieldContext.hpp</text>
</a>
</g>
</g>
<!-- Node1&#45;&gt;Node8 -->
<g id="edge14" class="edge">
<title>Node1&#45;&gt;Node8</title>
<path fill="none" stroke="#191970" d="M2600.1262,-493.1195C2889.3428,-491.4131 3806.2734,-482.2918 3930,-435 4025.2589,-398.5893 4132.9025,-352.9367 4083,-264 4054.1841,-212.6441 3993.8551,-180.4201 3947.1346,-162.1682"/>
<polygon fill="#191970" stroke="#191970" points="3948.2784,-158.8589 3937.6869,-158.5932 3945.801,-165.4059 3948.2784,-158.8589"/>
</g>
<!-- Node12 -->
<g id="node12" class="node">
<title>Node12</title>
<g id="a_node12"><a xlink:href="../../dd/d18/EigenStepper_8hpp.html" target="_top" xlink:title="Acts/Propagator/EigenStepper.hpp">
<polygon fill="none" stroke="#000000" points="881.5,-351.5 881.5,-371.5 1072.5,-371.5 1072.5,-351.5 881.5,-351.5"/>
<text text-anchor="middle" x="977" y="-358.5" font-family="FreeSans" font-size="10.00" fill="#000000">Acts/Propagator/EigenStepper.hpp</text>
</a>
</g>
</g>
<!-- Node1&#45;&gt;Node12 -->
<g id="edge15" class="edge">
<title>Node1&#45;&gt;Node12</title>
<path fill="none" stroke="#191970" d="M2441.4304,-471.4539C2412.7301,-461.6423 2379.7175,-449.1079 2351,-435 2335.3967,-427.3346 2334.593,-419.1861 2318,-414 2259.4386,-395.6967 1389.1204,-371.9644 1082.7396,-364.1337"/>
<polygon fill="#191970" stroke="#191970" points="1082.6062,-360.6292 1072.5202,-363.873 1082.4277,-367.627 1082.6062,-360.6292"/>
</g>
<!-- Node15 -->
<g id="node15" class="node">
<title>Node15</title>
<polygon fill="none" stroke="#bfbfbf" points="964,-63.5 964,-83.5 1008,-83.5 1008,-63.5 964,-63.5"/>
<text text-anchor="middle" x="986" y="-70.5" font-family="FreeSans" font-size="10.00" fill="#000000">limits</text>
</g>
<!-- Node1&#45;&gt;Node15 -->
<g id="edge153" class="edge">
<title>Node1&#45;&gt;Node15</title>
<path fill="none" stroke="#191970" d="M2425.714,-492.9203C2026.5051,-489.7681 385.1075,-471.1974 177,-378 137.7044,-360.4021 125.3316,-348.8385 109,-309 101.9215,-291.7329 113.8379,-196.224 115,-195 174.1586,-132.691 802.6933,-86.0197 953.575,-75.6601"/>
<polygon fill="#191970" stroke="#191970" points="953.8596,-79.1489 963.5986,-74.9772 953.3838,-72.1651 953.8596,-79.1489"/>
</g>
<!-- Node36 -->
<g id="node36" class="node">
<title>Node36</title>
<g id="a_node36"><a xlink:href="../../d5/d20/Propagator_8hpp.html" target="_top" xlink:title="Acts/Propagator/Propagator.hpp">
<polygon fill="none" stroke="#000000" points="3018,-414.5 3018,-434.5 3196,-434.5 3196,-414.5 3018,-414.5"/>
<text text-anchor="middle" x="3107" y="-421.5" font-family="FreeSans" font-size="10.00" fill="#000000">Acts/Propagator/Propagator.hpp</text>
</a>
</g>
</g>
<!-- Node1&#45;&gt;Node36 -->
<g id="edge76" class="edge">
<title>Node1&#45;&gt;Node36</title>
<path fill="none" stroke="#191970" d="M2600.0088,-483.3929C2709.4902,-470.6754 2896.9139,-448.9039 3010.6331,-435.6941"/>
<polygon fill="#191970" stroke="#191970" points="3011.1947,-439.1525 3020.7241,-434.522 3010.387,-432.1993 3011.1947,-439.1525"/>
</g>
<!-- Node47 -->
<g id="node47" class="node">
<title>Node47</title>
<g id="a_node47"><a xlink:href="../../db/d9e/StraightLineStepper_8hpp.html" target="_top" xlink:title="Acts/Propagator/Straight\lLineStepper.hpp">
<polygon fill="none" stroke="#ff0000" points="1795.5,-345.5 1795.5,-377.5 1936.5,-377.5 1936.5,-345.5 1795.5,-345.5"/>
<text text-anchor="start" x="1803.5" y="-364.5" font-family="FreeSans" font-size="10.00" fill="#000000">Acts/Propagator/Straight</text>
<text text-anchor="middle" x="1866" y="-352.5" font-family="FreeSans" font-size="10.00" fill="#000000">LineStepper.hpp</text>
</a>
</g>
</g>
<!-- Node1&#45;&gt;Node47 -->
<g id="edge127" class="edge">
<title>Node1&#45;&gt;Node47</title>
<path fill="none" stroke="#191970" d="M2464.3624,-471.4311C2441.3467,-460.765 2413.5822,-447.5748 2389,-435 2371.8209,-426.2122 2369.4497,-419.6528 2351,-414 2180.3347,-361.7097 2127.7313,-403.0397 1951,-378 1949.7023,-377.8161 1948.3944,-377.6257 1947.0786,-377.4292"/>
<polygon fill="#191970" stroke="#191970" points="1947.2935,-373.9199 1936.8701,-375.8178 1946.202,-380.8343 1947.2935,-373.9199"/>
</g>
<!-- Node49 -->
<g id="node49" class="node">
<title>Node49</title>
<g id="a_node49"><a xlink:href="../../d3/ddd/PropagationDatasets_8hpp.html" target="_top" xlink:title="PropagationDatasets.hpp">
<polygon fill="none" stroke="#000000" points="2441,-414.5 2441,-434.5 2585,-434.5 2585,-414.5 2441,-414.5"/>
<text text-anchor="middle" x="2513" y="-421.5" font-family="FreeSans" font-size="10.00" fill="#000000">PropagationDatasets.hpp</text>
</a>
</g>
</g>
<!-- Node1&#45;&gt;Node49 -->
<g id="edge154" class="edge">
<title>Node1&#45;&gt;Node49</title>
<path fill="none" stroke="#191970" d="M2513,-471.2882C2513,-462.8377 2513,-453.2557 2513,-444.9736"/>
<polygon fill="#191970" stroke="#191970" points="2516.5001,-444.7136 2513,-434.7137 2509.5001,-444.7137 2516.5001,-444.7136"/>
</g>
<!-- Node50 -->
<g id="node50" class="node">
<title>Node50</title>
<g id="a_node50"><a xlink:href="../../de/d5f/PropagationTests_8hpp.html" target="_top" xlink:title="PropagationTests.hpp">
<polygon fill="none" stroke="#ff0000" points="3658.5,-351.5 3658.5,-371.5 3783.5,-371.5 3783.5,-351.5 3658.5,-351.5"/>
<text text-anchor="middle" x="3721" y="-358.5" font-family="FreeSans" font-size="10.00" fill="#000000">PropagationTests.hpp</text>
</a>
</g>
</g>
<!-- Node1&#45;&gt;Node50 -->
<g id="edge157" class="edge">
<title>Node1&#45;&gt;Node50</title>
<path fill="none" stroke="#191970" d="M2600.2859,-489.2031C2791.6765,-478.7847 3262.1224,-447.7282 3650,-378 3656.7784,-376.7815 3663.8834,-375.3353 3670.87,-373.8135"/>
<polygon fill="#191970" stroke="#191970" points="3671.9784,-377.1518 3680.9694,-371.5472 3670.4457,-370.3217 3671.9784,-377.1518"/>
</g>
<!-- Node5 -->
<g id="node5" class="node">
<title>Node5</title>
<g id="a_node5"><a xlink:href="../../d2/d59/ContextType_8hpp.html" target="_top" xlink:title="Acts/Utilities/detail\l/ContextType.hpp">
<polygon fill="none" stroke="#ff0000" points="3729.5,-57.5 3729.5,-89.5 3840.5,-89.5 3840.5,-57.5 3729.5,-57.5"/>
<text text-anchor="start" x="3737.5" y="-76.5" font-family="FreeSans" font-size="10.00" fill="#000000">Acts/Utilities/detail</text>
<text text-anchor="middle" x="3785" y="-64.5" font-family="FreeSans" font-size="10.00" fill="#000000">/ContextType.hpp</text>
</a>
</g>
</g>
<!-- Node4&#45;&gt;Node5 -->
<g id="edge4" class="edge">
<title>Node4&#45;&gt;Node5</title>
<path fill="none" stroke="#191970" d="M3700.6078,-132.3188C3714.4745,-122.6541 3735.7742,-107.8089 3753.5053,-95.4508"/>
<polygon fill="#191970" stroke="#191970" points="3755.6721,-98.2069 3761.8748,-89.6175 3751.6695,-92.4641 3755.6721,-98.2069"/>
</g>
<!-- Node7 -->
<g id="node7" class="node">
<title>Node7</title>
<g id="a_node7"><a xlink:href="../../da/dd2/Algebra_8hpp.html" target="_top" xlink:title="Acts/Definitions/Algebra.hpp">
<polygon fill="none" stroke="#ff0000" points="2096,-.5 2096,-20.5 2258,-20.5 2258,-.5 2096,-.5"/>
<text text-anchor="middle" x="2177" y="-7.5" font-family="FreeSans" font-size="10.00" fill="#000000">Acts/Definitions/Algebra.hpp</text>
</a>
</g>
</g>
<!-- Node6&#45;&gt;Node7 -->
<g id="edge6" class="edge">
<title>Node6&#45;&gt;Node7</title>
<path fill="none" stroke="#191970" d="M4013.3819,-270.1441C4011.4172,-238.9519 4003.2152,-170.1453 3969,-126 3931.5477,-77.6781 3908.8353,-73.6158 3850,-57 3696.1882,-13.5617 2571.7308,-26.5673 2412,-21 2364.4794,-19.3437 2311.5745,-17.0221 2268.0127,-14.9829"/>
<polygon fill="#191970" stroke="#191970" points="2268.1635,-11.4862 2258.01,-14.512 2267.8343,-18.4785 2268.1635,-11.4862"/>
</g>
<!-- Node6&#45;&gt;Node8 -->
<g id="edge7" class="edge">
<title>Node6&#45;&gt;Node8</title>
<path fill="none" stroke="#191970" d="M4002.0625,-270.4094C3987.9339,-251.69 3963.3669,-220.1407 3940,-195 3930.6219,-184.91 3919.687,-174.4088 3909.9816,-165.4735"/>
<polygon fill="#191970" stroke="#191970" points="3912.2673,-162.8212 3902.5149,-158.6811 3907.5569,-167.9993 3912.2673,-162.8212"/>
</g>
<!-- Node9 -->
<g id="node9" class="node">
<title>Node9</title>
<g id="a_node9"><a xlink:href="../../db/d3f/MagneticFieldProvider_8hpp.html" target="_top" xlink:title="Acts/MagneticField\l/MagneticFieldProvider.hpp">
<polygon fill="none" stroke="#ff0000" points="3202.5,-195.5 3202.5,-227.5 3355.5,-227.5 3355.5,-195.5 3202.5,-195.5"/>
<text text-anchor="start" x="3210.5" y="-214.5" font-family="FreeSans" font-size="10.00" fill="#000000">Acts/MagneticField</text>
<text text-anchor="middle" x="3279" y="-202.5" font-family="FreeSans" font-size="10.00" fill="#000000">/MagneticFieldProvider.hpp</text>
</a>
</g>
</g>
<!-- Node6&#45;&gt;Node9 -->
<g id="edge9" class="edge">
<title>Node6&#45;&gt;Node9</title>
<path fill="none" stroke="#191970" d="M3954.4745,-280.426C3824.9357,-267.2077 3516.9918,-235.7849 3365.7901,-220.3561"/>
<polygon fill="#191970" stroke="#191970" points="3365.9236,-216.8517 3355.62,-219.3184 3365.213,-223.8155 3365.9236,-216.8517"/>
</g>
<!-- Node8&#45;&gt;Node5 -->
<g id="edge8" class="edge">
<title>Node8&#45;&gt;Node5</title>
<path fill="none" stroke="#191970" d="M3861.0386,-126.4966C3847.7643,-117.2448 3830.8751,-105.4736 3816.3872,-95.3759"/>
<polygon fill="#191970" stroke="#191970" points="3818.3851,-92.5022 3808.1798,-89.6557 3814.3826,-98.245 3818.3851,-92.5022"/>
</g>
<!-- Node9&#45;&gt;Node7 -->
<g id="edge10" class="edge">
<title>Node9&#45;&gt;Node7</title>
<path fill="none" stroke="#191970" d="M3250.4908,-195.3897C3234.7818,-185.8372 3215.4035,-172.902 3200,-159 3156.4031,-119.6529 3168.4739,-83.3701 3116,-57 3111.2959,-54.636 2503.6074,-25.8486 2268.4523,-14.7891"/>
<polygon fill="#191970" stroke="#191970" points="2268.3683,-11.2814 2258.2149,-14.3078 2268.0395,-18.2737 2268.3683,-11.2814"/>
</g>
<!-- Node9&#45;&gt;Node8 -->
<g id="edge11" class="edge">
<title>Node9&#45;&gt;Node8</title>
<path fill="none" stroke="#191970" d="M3355.637,-203.6741C3382.6184,-200.9242 3413.1544,-197.8181 3441,-195 3596.838,-179.2284 3639.0687,-182.1312 3797.4949,-159.1505"/>
<polygon fill="#191970" stroke="#191970" points="3798.2126,-162.5829 3807.6008,-157.6726 3797.1996,-155.6565 3798.2126,-162.5829"/>
</g>
<!-- Node10 -->
<g id="node10" class="node">
<title>Node10</title>
<g id="a_node10"><a xlink:href="../../d3/db2/Result_8hpp.html" target="_top" xlink:title="Acts/Utilities/Result.hpp">
<polygon fill="none" stroke="#ff0000" points="3208.5,-132.5 3208.5,-152.5 3345.5,-152.5 3345.5,-132.5 3208.5,-132.5"/>
<text text-anchor="middle" x="3277" y="-139.5" font-family="FreeSans" font-size="10.00" fill="#000000">Acts/Utilities/Result.hpp</text>
</a>
</g>
</g>
<!-- Node9&#45;&gt;Node10 -->
<g id="edge12" class="edge">
<title>Node9&#45;&gt;Node10</title>
<path fill="none" stroke="#191970" d="M3278.5361,-195.4966C3278.2548,-185.7901 3277.8931,-173.3104 3277.5913,-162.8996"/>
<polygon fill="#191970" stroke="#191970" points="3281.0824,-162.5385 3277.294,-152.6441 3274.0853,-162.7414 3281.0824,-162.5385"/>
</g>
<!-- Node11 -->
<g id="node11" class="node">
<title>Node11</title>
<polygon fill="none" stroke="#bfbfbf" points="3196.5,-.5 3196.5,-20.5 3253.5,-20.5 3253.5,-.5 3196.5,-.5"/>
<text text-anchor="middle" x="3225" y="-7.5" font-family="FreeSans" font-size="10.00" fill="#000000">optional</text>
</g>
<!-- Node10&#45;&gt;Node11 -->
<g id="edge13" class="edge">
<title>Node10&#45;&gt;Node11</title>
<path fill="none" stroke="#191970" d="M3272.9196,-132.1422C3264.2622,-110.1656 3243.9322,-58.5587 3232.735,-30.1349"/>
<polygon fill="#191970" stroke="#191970" points="3235.9831,-28.8309 3229.0614,-20.8097 3229.4703,-31.3967 3235.9831,-28.8309"/>
</g>
<!-- Node12&#45;&gt;Node7 -->
<g id="edge17" class="edge">
<title>Node12&#45;&gt;Node7</title>
<path fill="none" stroke="#191970" d="M881.3395,-358.2532C664.5074,-350.5395 151.9553,-330.1696 121,-309 81.6052,-282.0589 76,-259.2261 76,-211.5 76,-211.5 76,-211.5 76,-142.5 76,-40.2485 1682.0081,-15.8931 2085.7562,-11.3858"/>
<polygon fill="#191970" stroke="#191970" points="2085.9649,-14.8838 2095.9257,-11.2736 2085.8876,-7.8842 2085.9649,-14.8838"/>
</g>
<!-- Node12&#45;&gt;Node9 -->
<g id="edge23" class="edge">
<title>Node12&#45;&gt;Node9</title>
<path fill="none" stroke="#191970" d="M1072.7623,-359.302C1441.0276,-350.7844 2749.8604,-319.8868 2838,-309 2972.9282,-292.3339 3127.3801,-253.5185 3213.0158,-230.2015"/>
<polygon fill="#191970" stroke="#191970" points="3214.1376,-233.5233 3222.8586,-227.5071 3212.2894,-226.7717 3214.1376,-233.5233"/>
</g>
<!-- Node12&#45;&gt;Node10 -->
<g id="edge70" class="edge">
<title>Node12&#45;&gt;Node10</title>
<path fill="none" stroke="#191970" d="M1072.97,-360.3669C1348.4435,-356.7142 2128.9964,-343.4191 2239,-309 2274.6552,-297.8438 2274.7252,-276.3061 2310,-264 2452.2236,-214.3832 2498.1317,-250.9696 2647,-228 2720.0498,-216.7288 2736.9817,-206.4731 2810,-195 2945.7563,-173.6691 3105.0351,-157.6803 3198.114,-149.2381"/>
<polygon fill="#191970" stroke="#191970" points="3198.6525,-152.7039 3208.298,-148.3206 3198.0243,-145.7321 3198.6525,-152.7039"/>
</g>
<!-- Node13 -->
<g id="node13" class="node">
<title>Node13</title>
<g id="a_node13"><a xlink:href="../../d0/d75/ReferenceWrapperAnyCompat_8hpp.html" target="_top" xlink:title="Acts/Utilities/detail\l/ReferenceWrapperAnyCompat.hpp">
<polygon fill="none" stroke="#ff0000" points="124,-195.5 124,-227.5 320,-227.5 320,-195.5 124,-195.5"/>
<text text-anchor="start" x="132" y="-214.5" font-family="FreeSans" font-size="10.00" fill="#000000">Acts/Utilities/detail</text>
<text text-anchor="middle" x="222" y="-202.5" font-family="FreeSans" font-size="10.00" fill="#000000">/ReferenceWrapperAnyCompat.hpp</text>
</a>
</g>
</g>
<!-- Node12&#45;&gt;Node13 -->
<g id="edge16" class="edge">
<title>Node12&#45;&gt;Node13</title>
<path fill="none" stroke="#191970" d="M881.171,-359.0162C665.414,-352.957 158.2913,-335.9134 133,-309 119.3039,-294.4255 123.0811,-281.3671 133,-264 140.6632,-250.5825 153.2448,-240.2506 166.5676,-232.4469"/>
<polygon fill="#191970" stroke="#191970" points="168.2552,-235.5134 175.3854,-227.6769 164.9245,-229.3565 168.2552,-235.5134"/>
</g>
<!-- Node14 -->
<g id="node14" class="node">
<title>Node14</title>
<g id="a_node14"><a xlink:href="../../d7/d39/Tolerance_8hpp.html" target="_top" xlink:title="Acts/Definitions/Tolerance.hpp">
<polygon fill="none" stroke="#000000" points="1002.5,-132.5 1002.5,-152.5 1173.5,-152.5 1173.5,-132.5 1002.5,-132.5"/>
<text text-anchor="middle" x="1088" y="-139.5" font-family="FreeSans" font-size="10.00" fill="#000000">Acts/Definitions/Tolerance.hpp</text>
</a>
</g>
</g>
<!-- Node12&#45;&gt;Node14 -->
<g id="edge18" class="edge">
<title>Node12&#45;&gt;Node14</title>
<path fill="none" stroke="#191970" d="M967.6334,-351.1225C943.7045,-323.3221 884.7603,-245.8353 922,-195 934.4176,-178.0489 982.3117,-164.0246 1023.4843,-154.7479"/>
<polygon fill="#191970" stroke="#191970" points="1024.489,-158.1109 1033.5078,-152.5511 1022.9904,-151.2732 1024.489,-158.1109"/>
</g>
<!-- Node12&#45;&gt;Node15 -->
<g id="edge73" class="edge">
<title>Node12&#45;&gt;Node15</title>
<path fill="none" stroke="#191970" d="M921.0989,-351.4939C877.3375,-342.3892 821.6646,-327.5537 808,-309 777.9539,-268.2036 795.3814,-244.0702 808,-195 816.7192,-161.0934 819.5205,-148.9023 846,-126 876.9984,-99.1893 923.0121,-85.4798 953.7295,-78.9093"/>
<polygon fill="#191970" stroke="#191970" points="954.7879,-82.267 963.907,-76.8732 953.4146,-75.403 954.7879,-82.267"/>
</g>
<!-- Node16 -->
<g id="node16" class="node">
<title>Node16</title>
<g id="a_node16"><a xlink:href="../../df/d6f/Units_8hpp.html" target="_top" xlink:title="Acts/Definitions/Units.hpp">
<polygon fill="none" stroke="#000000" points="2884,-201.5 2884,-221.5 3032,-221.5 3032,-201.5 2884,-201.5"/>
<text text-anchor="middle" x="2958" y="-208.5" font-family="FreeSans" font-size="10.00" fill="#000000">Acts/Definitions/Units.hpp</text>
</a>
</g>
</g>
<!-- Node12&#45;&gt;Node16 -->
<g id="edge21" class="edge">
<title>Node12&#45;&gt;Node16</title>
<path fill="none" stroke="#191970" d="M1072.6284,-360.2674C1358.1385,-356.2334 2191.9276,-341.7583 2310,-309 2350.0584,-297.8861 2352.2316,-276.1108 2392,-264 2563.6009,-211.7419 2615.4237,-244.9787 2794,-228 2819.9036,-225.5371 2848.0963,-222.7422 2873.6838,-220.1618"/>
<polygon fill="#191970" stroke="#191970" points="2874.1272,-223.6349 2883.7244,-219.1468 2873.4231,-216.6704 2874.1272,-223.6349"/>
</g>
<!-- Node17 -->
<g id="node17" class="node">
<title>Node17</title>
<g id="a_node17"><a xlink:href="../../d8/d81/TrackParameters_8hpp.html" target="_top" xlink:title="Acts/EventData/TrackParameters.hpp">
<polygon fill="none" stroke="#ff0000" points="2400.5,-276.5 2400.5,-296.5 2605.5,-296.5 2605.5,-276.5 2400.5,-276.5"/>
<text text-anchor="middle" x="2503" y="-283.5" font-family="FreeSans" font-size="10.00" fill="#000000">Acts/EventData/TrackParameters.hpp</text>
</a>
</g>
</g>
<!-- Node12&#45;&gt;Node17 -->
<g id="edge22" class="edge">
<title>Node12&#45;&gt;Node17</title>
<path fill="none" stroke="#191970" d="M1072.884,-359.8374C1347.0263,-354.7801 2130.782,-338.1222 2386,-309 2406.8259,-306.6236 2429.4972,-302.603 2449.2896,-298.6123"/>
<polygon fill="#191970" stroke="#191970" points="2450.2654,-301.9847 2459.3523,-296.5369 2448.8515,-295.129 2450.2654,-301.9847"/>
</g>
<!-- Node18 -->
<g id="node18" class="node">
<title>Node18</title>
<g id="a_node18"><a xlink:href="../../dc/d18/ConstrainedStep_8hpp.html" target="_top" xlink:title="Acts/Propagator/Constrained\lStep.hpp">
<polygon fill="none" stroke="#ff0000" points="1002.5,-195.5 1002.5,-227.5 1163.5,-227.5 1163.5,-195.5 1002.5,-195.5"/>
<text text-anchor="start" x="1010.5" y="-214.5" font-family="FreeSans" font-size="10.00" fill="#000000">Acts/Propagator/Constrained</text>
<text text-anchor="middle" x="1083" y="-202.5" font-family="FreeSans" font-size="10.00" fill="#000000">Step.hpp</text>
</a>
</g>
</g>
<!-- Node12&#45;&gt;Node18 -->
<g id="edge24" class="edge">
<title>Node12&#45;&gt;Node18</title>
<path fill="none" stroke="#191970" d="M969.9117,-351.4607C957.6188,-332.6972 935.3625,-291.7069 954,-264 963.6457,-249.6606 977.9606,-239.2357 993.5856,-231.6574"/>
<polygon fill="#191970" stroke="#191970" points="995.1924,-234.7736 1002.9114,-227.5163 992.3515,-228.3759 995.1924,-234.7736"/>
</g>
<!-- Node20 -->
<g id="node20" class="node">
<title>Node20</title>
<polygon fill="none" stroke="#bfbfbf" points="1209,-63.5 1209,-83.5 1257,-83.5 1257,-63.5 1209,-63.5"/>
<text text-anchor="middle" x="1233" y="-70.5" font-family="FreeSans" font-size="10.00" fill="#000000">cmath</text>
</g>
<!-- Node12&#45;&gt;Node20 -->
<g id="edge71" class="edge">
<title>Node12&#45;&gt;Node20</title>
<path fill="none" stroke="#191970" d="M957.0027,-351.3571C941.7613,-342.4462 921.7809,-327.9482 912,-309 888.7375,-263.9344 885.063,-240.7255 907,-195 928.1967,-150.8176 948.7845,-147.1276 993,-126 1061.3364,-93.3466 1150.3427,-80.733 1198.4656,-76.0691"/>
<polygon fill="#191970" stroke="#191970" points="1199.0143,-79.5337 1208.656,-75.1421 1198.3801,-72.5625 1199.0143,-79.5337"/>
</g>
<!-- Node21 -->
<g id="node21" class="node">
<title>Node21</title>
<g id="a_node21"><a xlink:href="../../d3/df3/DefaultExtension_8hpp.html" target="_top" xlink:title="Acts/Propagator/DefaultExtension.hpp">
<polygon fill="none" stroke="#ff0000" points="358,-276.5 358,-296.5 568,-296.5 568,-276.5 358,-276.5"/>
<text text-anchor="middle" x="463" y="-283.5" font-family="FreeSans" font-size="10.00" fill="#000000">Acts/Propagator/DefaultExtension.hpp</text>
</a>
</g>
</g>
<!-- Node12&#45;&gt;Node21 -->
<g id="edge29" class="edge">
<title>Node12&#45;&gt;Node21</title>
<path fill="none" stroke="#191970" d="M887.791,-351.4583C806.5683,-341.92 683.4375,-326.4701 577,-309 558.4397,-305.9536 538.2778,-302.1418 520.1426,-298.5262"/>
<polygon fill="#191970" stroke="#191970" points="520.7933,-295.087 510.2991,-296.5438 519.4112,-301.9493 520.7933,-295.087"/>
</g>
<!-- Node22 -->
<g id="node22" class="node">
<title>Node22</title>
<g id="a_node22"><a xlink:href="../../d6/d44/DenseEnvironmentExtension_8hpp.html" target="_top" xlink:title="Acts/Propagator/DenseEnvironment\lExtension.hpp">
<polygon fill="none" stroke="#ff0000" points="142,-270.5 142,-302.5 340,-302.5 340,-270.5 142,-270.5"/>
<text text-anchor="start" x="150" y="-289.5" font-family="FreeSans" font-size="10.00" fill="#000000">Acts/Propagator/DenseEnvironment</text>
<text text-anchor="middle" x="241" y="-277.5" font-family="FreeSans" font-size="10.00" fill="#000000">Extension.hpp</text>
</a>
</g>
</g>
<!-- Node12&#45;&gt;Node22 -->
<g id="edge30" class="edge">
<title>Node12&#45;&gt;Node22</title>
<path fill="none" stroke="#191970" d="M881.3668,-357.1396C757.8902,-350.6785 536.5768,-336.2759 349,-309 340.092,-307.7047 330.8145,-306.1266 321.6036,-304.4132"/>
<polygon fill="#191970" stroke="#191970" points="322.1354,-300.9515 311.6555,-302.5079 320.8186,-307.8265 322.1354,-300.9515"/>
</g>
<!-- Node23 -->
<g id="node23" class="node">
<title>Node23</title>
<g id="a_node23"><a xlink:href="../../da/d5a/EigenStepperError_8hpp.html" target="_top" xlink:title="Acts/Propagator/EigenStepper\lError.hpp">
<polygon fill="none" stroke="#ff0000" points="586,-270.5 586,-302.5 756,-302.5 756,-270.5 586,-270.5"/>
<text text-anchor="start" x="594" y="-289.5" font-family="FreeSans" font-size="10.00" fill="#000000">Acts/Propagator/EigenStepper</text>
<text text-anchor="middle" x="671" y="-277.5" font-family="FreeSans" font-size="10.00" fill="#000000">Error.hpp</text>
</a>
</g>
</g>
<!-- Node12&#45;&gt;Node23 -->
<g id="edge32" class="edge">
<title>Node12&#45;&gt;Node23</title>
<path fill="none" stroke="#191970" d="M936.049,-351.463C887.6089,-339.5904 805.9986,-319.5879 746.106,-304.9083"/>
<polygon fill="#191970" stroke="#191970" points="746.8605,-301.4897 736.3148,-302.5085 745.1941,-308.2885 746.8605,-301.4897"/>
</g>
<!-- Node24 -->
<g id="node24" class="node">
<title>Node24</title>
<g id="a_node24"><a xlink:href="../../dc/d81/StepperExtensionList_8hpp.html" target="_top" xlink:title="Acts/Propagator/StepperExtension\lList.hpp">
<polygon fill="none" stroke="#ff0000" points="1258,-195.5 1258,-227.5 1448,-227.5 1448,-195.5 1258,-195.5"/>
<text text-anchor="start" x="1266" y="-214.5" font-family="FreeSans" font-size="10.00" fill="#000000">Acts/Propagator/StepperExtension</text>
<text text-anchor="middle" x="1353" y="-202.5" font-family="FreeSans" font-size="10.00" fill="#000000">List.hpp</text>
</a>
</g>
</g>
<!-- Node12&#45;&gt;Node24 -->
<g id="edge33" class="edge">
<title>Node12&#45;&gt;Node24</title>
<path fill="none" stroke="#191970" d="M1020.0307,-351.4799C1057.3855,-342.2194 1112.6091,-327.1682 1159,-309 1215.7023,-286.7935 1278.0961,-253.787 1316.418,-232.4543"/>
<polygon fill="#191970" stroke="#191970" points="1318.141,-235.5009 1325.1551,-227.5603 1314.7201,-229.3937 1318.141,-235.5009"/>
</g>
<!-- Node26 -->
<g id="node26" class="node">
<title>Node26</title>
<g id="a_node26"><a xlink:href="../../d7/d69/Auctioneer_8hpp.html" target="_top" xlink:title="Acts/Propagator/detail\l/Auctioneer.hpp">
<polygon fill="none" stroke="#ff0000" points="1344.5,-126.5 1344.5,-158.5 1473.5,-158.5 1473.5,-126.5 1344.5,-126.5"/>
<text text-anchor="start" x="1352.5" y="-145.5" font-family="FreeSans" font-size="10.00" fill="#000000">Acts/Propagator/detail</text>
<text text-anchor="middle" x="1409" y="-133.5" font-family="FreeSans" font-size="10.00" fill="#000000">/Auctioneer.hpp</text>
</a>
</g>
</g>
<!-- Node12&#45;&gt;Node26 -->
<g id="edge39" class="edge">
<title>Node12&#45;&gt;Node26</title>
<path fill="none" stroke="#191970" d="M1056.0632,-351.4933C1179.9408,-333.9625 1410.486,-293.232 1457,-228 1471.2687,-207.9893 1454.1766,-183.3555 1436.5582,-165.6776"/>
<polygon fill="#191970" stroke="#191970" points="1438.7264,-162.9098 1429.0652,-158.561 1433.9058,-167.9854 1438.7264,-162.9098"/>
</g>
<!-- Node27 -->
<g id="node27" class="node">
<title>Node27</title>
<g id="a_node27"><a xlink:href="../../de/dba/SteppingHelper_8hpp.html" target="_top" xlink:title="Acts/Propagator/detail\l/SteppingHelper.hpp">
<polygon fill="none" stroke="#000000" points="1548.5,-270.5 1548.5,-302.5 1677.5,-302.5 1677.5,-270.5 1548.5,-270.5"/>
<text text-anchor="start" x="1556.5" y="-289.5" font-family="FreeSans" font-size="10.00" fill="#000000">Acts/Propagator/detail</text>
<text text-anchor="middle" x="1613" y="-277.5" font-family="FreeSans" font-size="10.00" fill="#000000">/SteppingHelper.hpp</text>
</a>
</g>
</g>
<!-- Node12&#45;&gt;Node27 -->
<g id="edge40" class="edge">
<title>Node12&#45;&gt;Node27</title>
<path fill="none" stroke="#191970" d="M1072.8503,-357.8109C1184.4289,-352.2861 1373.8664,-339.0868 1534,-309 1539.8361,-307.9035 1545.8638,-306.5684 1551.8664,-305.1013"/>
<polygon fill="#191970" stroke="#191970" points="1553.0891,-308.4011 1561.9062,-302.5266 1551.3502,-301.6205 1553.0891,-308.4011"/>
</g>
<!-- Node32 -->
<g id="node32" class="node">
<title>Node32</title>
<g id="a_node32"><a xlink:href="../../db/d8d/Intersection_8hpp.html" target="_top" xlink:title="Acts/Utilities/Intersection.hpp">
<polygon fill="none" stroke="#ff0000" points="1606,-132.5 1606,-152.5 1772,-152.5 1772,-132.5 1606,-132.5"/>
<text text-anchor="middle" x="1689" y="-139.5" font-family="FreeSans" font-size="10.00" fill="#000000">Acts/Utilities/Intersection.hpp</text>
</a>
</g>
</g>
<!-- Node12&#45;&gt;Node32 -->
<g id="edge69" class="edge">
<title>Node12&#45;&gt;Node32</title>
<path fill="none" stroke="#191970" d="M1072.8157,-357.2644C1151.6875,-351.6897 1265.6249,-338.796 1361,-309 1482.0442,-271.1848 1612.6593,-191.8528 1665.1651,-158.1658"/>
<polygon fill="#191970" stroke="#191970" points="1667.261,-160.9786 1673.759,-152.6105 1663.4608,-155.1 1667.261,-160.9786"/>
</g>
<!-- Node34 -->
<g id="node34" class="node">
<title>Node34</title>
<polygon fill="none" stroke="#bfbfbf" points="713,-.5 713,-20.5 779,-20.5 779,-.5 713,-.5"/>
<text text-anchor="middle" x="746" y="-7.5" font-family="FreeSans" font-size="10.00" fill="#000000">functional</text>
</g>
<!-- Node12&#45;&gt;Node34 -->
<g id="edge72" class="edge">
<title>Node12&#45;&gt;Node34</title>
<path fill="none" stroke="#191970" d="M881.2876,-360.9078C660.9306,-358.8497 131.2946,-349.6806 62,-309 17.7149,-283.0016 0,-262.8526 0,-211.5 0,-211.5 0,-211.5 0,-142.5 0,-95.5606 20.9343,-79.7357 62,-57 117.8734,-26.0661 560.8458,-14.3167 702.5604,-11.3271"/>
<polygon fill="#191970" stroke="#191970" points="702.6975,-14.8251 712.6229,-11.1189 702.5526,-7.8266 702.6975,-14.8251"/>
</g>
<!-- Node35 -->
<g id="node35" class="node">
<title>Node35</title>
<g id="a_node35"><a xlink:href="../../d4/d52/EigenStepper_8ipp.html" target="_top" xlink:title="Acts/Propagator/EigenStepper.ipp">
<polygon fill="none" stroke="#ff0000" points="963.5,-276.5 963.5,-296.5 1150.5,-296.5 1150.5,-276.5 963.5,-276.5"/>
<text text-anchor="middle" x="1057" y="-283.5" font-family="FreeSans" font-size="10.00" fill="#000000">Acts/Propagator/EigenStepper.ipp</text>
</a>
</g>
</g>
<!-- Node12&#45;&gt;Node35 -->
<g id="edge74" class="edge">
<title>Node12&#45;&gt;Node35</title>
<path fill="none" stroke="#191970" d="M987.7892,-351.3852C1000.7913,-339.1957 1022.8474,-318.5181 1038.5658,-303.7821"/>
<polygon fill="#191970" stroke="#191970" points="1041.2247,-306.0869 1046.1263,-296.6941 1036.4371,-300.9802 1041.2247,-306.0869"/>
</g>
<!-- Node14&#45;&gt;Node7 -->
<g id="edge19" class="edge">
<title>Node14&#45;&gt;Node7</title>
<path fill="none" stroke="#191970" d="M1096.9519,-132.454C1114.5115,-113.5595 1155.646,-73.1798 1200,-57 1281.7476,-27.1794 1858.9345,-15.3017 2085.774,-11.7515"/>
<polygon fill="#191970" stroke="#191970" points="2086.0372,-15.2479 2095.9818,-11.5937 2085.9289,-8.2488 2086.0372,-15.2479"/>
</g>
<!-- Node14&#45;&gt;Node15 -->
<g id="edge20" class="edge">
<title>Node14&#45;&gt;Node15</title>
<path fill="none" stroke="#191970" d="M1072.9495,-132.3188C1056.226,-121.0058 1029.0094,-102.5946 1009.4793,-89.3831"/>
<polygon fill="#191970" stroke="#191970" points="1011.3561,-86.4271 1001.1122,-83.723 1007.434,-92.2251 1011.3561,-86.4271"/>
</g>
<!-- Node18&#45;&gt;Node7 -->
<g id="edge25" class="edge">
<title>Node18&#45;&gt;Node7</title>
<path fill="none" stroke="#191970" d="M1032.8042,-195.3972C1013.7613,-187.1274 993.2542,-175.2841 979,-159 948.3258,-123.9574 922.7013,-90.5512 955,-57 974.5781,-36.6627 1805.5601,-18.0135 2085.8087,-12.2921"/>
<polygon fill="#191970" stroke="#191970" points="2086.0169,-15.7887 2095.9436,-12.0859 2085.8745,-8.7901 2086.0169,-15.7887"/>
</g>
<!-- Node18&#45;&gt;Node15 -->
<g id="edge28" class="edge">
<title>Node18&#45;&gt;Node15</title>
<path fill="none" stroke="#191970" d="M1037.5106,-195.4908C1020.733,-187.2346 1003.3174,-175.3762 993,-159 980.6477,-139.3941 980.7245,-112.0374 982.685,-93.5935"/>
<polygon fill="#191970" stroke="#191970" points="986.1582,-94.0261 984.0159,-83.6501 979.2201,-93.0974 986.1582,-94.0261"/>
</g>
<!-- Node19 -->
<g id="node19" class="node">
<title>Node19</title>
<polygon fill="none" stroke="#bfbfbf" points="1422.5,-63.5 1422.5,-83.5 1487.5,-83.5 1487.5,-63.5 1422.5,-63.5"/>
<text text-anchor="middle" x="1455" y="-70.5" font-family="FreeSans" font-size="10.00" fill="#000000">algorithm</text>
</g>
<!-- Node18&#45;&gt;Node19 -->
<g id="edge26" class="edge">
<title>Node18&#45;&gt;Node19</title>
<path fill="none" stroke="#191970" d="M1126.4012,-195.3996C1200.2019,-168.0219 1348.8564,-112.8759 1418.0303,-87.2146"/>
<polygon fill="#191970" stroke="#191970" points="1419.4829,-90.4088 1427.6412,-83.6492 1417.0482,-83.8459 1419.4829,-90.4088"/>
</g>
<!-- Node18&#45;&gt;Node20 -->
<g id="edge27" class="edge">
<title>Node18&#45;&gt;Node20</title>
<path fill="none" stroke="#191970" d="M1125.2605,-195.2961C1144.1631,-186.5779 1165.7876,-174.4177 1182,-159 1201.8673,-140.1066 1216.6948,-111.8001 1225.1003,-92.9997"/>
<polygon fill="#191970" stroke="#191970" points="1228.3835,-94.2238 1229.1005,-83.6532 1221.9481,-91.4694 1228.3835,-94.2238"/>
</g>
<!-- Node22&#45;&gt;Node13 -->
<g id="edge31" class="edge">
<title>Node22&#45;&gt;Node13</title>
<path fill="none" stroke="#191970" d="M236.8773,-270.2261C234.4622,-260.6928 231.3557,-248.4306 228.6067,-237.5789"/>
<polygon fill="#191970" stroke="#191970" points="231.9633,-236.5764 226.1147,-227.7421 225.1777,-238.2954 231.9633,-236.5764"/>
</g>
<!-- Node24&#45;&gt;Node7 -->
<g id="edge34" class="edge">
<title>Node24&#45;&gt;Node7</title>
<path fill="none" stroke="#191970" d="M1343.8965,-195.4204C1335.1687,-177.7422 1324.7194,-148.8202 1335,-126 1354.0111,-83.8005 1370.2358,-74.7045 1413,-57 1473.6945,-31.8723 1896.4421,-17.8197 2085.7248,-12.7247"/>
<polygon fill="#191970" stroke="#191970" points="2086.0286,-16.218 2095.9318,-12.4526 2085.842,-9.2205 2086.0286,-16.218"/>
</g>
<!-- Node25 -->
<g id="node25" class="node">
<title>Node25</title>
<g id="a_node25"><a xlink:href="../../d7/d3a/TrackParametrization_8hpp.html" target="_top" xlink:title="Acts/Definitions/TrackParametrization.hpp">
<polygon fill="none" stroke="#ff0000" points="1919.5,-63.5 1919.5,-83.5 2148.5,-83.5 2148.5,-63.5 1919.5,-63.5"/>
<text text-anchor="middle" x="2034" y="-70.5" font-family="FreeSans" font-size="10.00" fill="#000000">Acts/Definitions/TrackParametrization.hpp</text>
</a>
</g>
</g>
<!-- Node24&#45;&gt;Node25 -->
<g id="edge35" class="edge">
<title>Node24&#45;&gt;Node25</title>
<path fill="none" stroke="#191970" d="M1390.6943,-195.3981C1437.9935,-175.8736 1522.0171,-143.4225 1597,-126 1700.7405,-101.8956 1821.0552,-88.4761 1909.1456,-81.252"/>
<polygon fill="#191970" stroke="#191970" points="1909.4971,-84.7351 1919.1841,-80.4441 1908.9355,-77.7576 1909.4971,-84.7351"/>
</g>
<!-- Node24&#45;&gt;Node26 -->
<g id="edge37" class="edge">
<title>Node24&#45;&gt;Node26</title>
<path fill="none" stroke="#191970" d="M1365.9883,-195.4966C1372.8856,-186.9981 1381.5083,-176.3738 1389.2186,-166.8735"/>
<polygon fill="#191970" stroke="#191970" points="1392.1092,-168.866 1395.6933,-158.8958 1386.6739,-164.4548 1392.1092,-168.866"/>
</g>
<!-- Node25&#45;&gt;Node7 -->
<g id="edge36" class="edge">
<title>Node25&#45;&gt;Node7</title>
<path fill="none" stroke="#191970" d="M2056.9754,-63.378C2080.7421,-52.9073 2118.0524,-36.4699 2144.7645,-24.7016"/>
<polygon fill="#191970" stroke="#191970" points="2146.3414,-27.8316 2154.0816,-20.5969 2143.5192,-21.4257 2146.3414,-27.8316"/>
</g>
<!-- Node26&#45;&gt;Node19 -->
<g id="edge38" class="edge">
<title>Node26&#45;&gt;Node19</title>
<path fill="none" stroke="#191970" d="M1419.6689,-126.4966C1426.4841,-116.2738 1435.3501,-102.9749 1442.4956,-92.2567"/>
<polygon fill="#191970" stroke="#191970" points="1445.6024,-93.9061 1448.2373,-83.6441 1439.778,-90.0232 1445.6024,-93.9061"/>
</g>
<!-- Node27&#45;&gt;Node7 -->
<g id="edge41" class="edge">
<title>Node27&#45;&gt;Node7</title>
<path fill="none" stroke="#191970" d="M1548.3541,-283.6354C1399.0601,-276.5617 1039.4673,-256.7321 993,-228 924.9811,-185.9419 881.5212,-114.5983 937,-57 956.8949,-36.3451 1802.0492,-17.8714 2085.4539,-12.2473"/>
<polygon fill="#191970" stroke="#191970" points="2085.772,-15.7418 2095.7008,-12.0447 2085.6335,-8.7432 2085.772,-15.7418"/>
</g>
<!-- Node27&#45;&gt;Node14 -->
<g id="edge45" class="edge">
<title>Node27&#45;&gt;Node14</title>
<path fill="none" stroke="#191970" d="M1548.3834,-278.7057C1459.1956,-267.5047 1303.2326,-246.1991 1249,-228 1197.0649,-210.5719 1141.7562,-177.6232 1111.3794,-158.1101"/>
<polygon fill="#191970" stroke="#191970" points="1113.0747,-155.0375 1102.7838,-152.5177 1109.2572,-160.905 1113.0747,-155.0375"/>
</g>
<!-- Node27&#45;&gt;Node18 -->
<g id="edge46" class="edge">
<title>Node27&#45;&gt;Node18</title>
<path fill="none" stroke="#191970" d="M1548.2767,-277.341C1454.5128,-264.0726 1280.4824,-239.4456 1173.8851,-224.3611"/>
<polygon fill="#191970" stroke="#191970" points="1174.1765,-220.8675 1163.7847,-222.9318 1173.1956,-227.7985 1174.1765,-220.8675"/>
</g>
<!-- Node28 -->
<g id="node28" class="node">
<title>Node28</title>
<g id="a_node28"><a xlink:href="../../d3/d33/Direction_8hpp.html" target="_top" xlink:title="Acts/Definitions/Direction.hpp">
<polygon fill="none" stroke="#ff0000" points="2470,-201.5 2470,-221.5 2638,-221.5 2638,-201.5 2470,-201.5"/>
<text text-anchor="middle" x="2554" y="-208.5" font-family="FreeSans" font-size="10.00" fill="#000000">Acts/Definitions/Direction.hpp</text>
</a>
</g>
</g>
<!-- Node27&#45;&gt;Node28 -->
<g id="edge42" class="edge">
<title>Node27&#45;&gt;Node28</title>
<path fill="none" stroke="#191970" d="M1677.6787,-281.3449C1840.6479,-268.3559 2268.7023,-234.2389 2459.6732,-219.0181"/>
<polygon fill="#191970" stroke="#191970" points="2460.0033,-222.503 2469.6936,-218.2194 2459.4471,-215.5251 2460.0033,-222.503"/>
</g>
<!-- Node30 -->
<g id="node30" class="node">
<title>Node30</title>
<g id="a_node30"><a xlink:href="../../d7/d50/BoundaryCheck_8hpp.html" target="_top" xlink:title="Acts/Surfaces/BoundaryCheck.hpp">
<polygon fill="none" stroke="#ff0000" points="1828,-132.5 1828,-152.5 2020,-152.5 2020,-132.5 1828,-132.5"/>
<text text-anchor="middle" x="1924" y="-139.5" font-family="FreeSans" font-size="10.00" fill="#000000">Acts/Surfaces/BoundaryCheck.hpp</text>
</a>
</g>
</g>
<!-- Node27&#45;&gt;Node30 -->
<g id="edge47" class="edge">
<title>Node27&#45;&gt;Node30</title>
<path fill="none" stroke="#191970" d="M1645.6225,-270.4515C1683.5194,-251.9064 1748.0088,-220.6504 1804,-195 1833.2542,-181.5982 1866.8317,-166.9717 1891.0151,-156.569"/>
<polygon fill="#191970" stroke="#191970" points="1892.631,-159.6843 1900.44,-152.524 1889.8702,-153.2517 1892.631,-159.6843"/>
</g>
<!-- Node31 -->
<g id="node31" class="node">
<title>Node31</title>
<g id="a_node31"><a xlink:href="../../d8/ddd/Surface_8hpp.html" target="_top" xlink:title="Acts/Surfaces/Surface.hpp">
<polygon fill="none" stroke="#ff0000" points="2074,-201.5 2074,-221.5 2224,-221.5 2224,-201.5 2074,-201.5"/>
<text text-anchor="middle" x="2149" y="-208.5" font-family="FreeSans" font-size="10.00" fill="#000000">Acts/Surfaces/Surface.hpp</text>
</a>
</g>
</g>
<!-- Node27&#45;&gt;Node31 -->
<g id="edge51" class="edge">
<title>Node27&#45;&gt;Node31</title>
<path fill="none" stroke="#191970" d="M1677.6541,-277.4532C1775.2984,-263.7903 1960.3087,-237.9027 2067.196,-222.9465"/>
<polygon fill="#191970" stroke="#191970" points="2067.872,-226.386 2077.2905,-221.534 2066.902,-219.4536 2067.872,-226.386"/>
</g>
<!-- Node27&#45;&gt;Node32 -->
<g id="edge67" class="edge">
<title>Node27&#45;&gt;Node32</title>
<path fill="none" stroke="#191970" d="M1618.6507,-270.4805C1625.4952,-251.8279 1637.8779,-220.3413 1652,-195 1658.6494,-183.0681 1667.4073,-170.5341 1674.7332,-160.7063"/>
<polygon fill="#191970" stroke="#191970" points="1677.6811,-162.6123 1680.9569,-152.5366 1672.1128,-158.3703 1677.6811,-162.6123"/>
</g>
<!-- Node33 -->
<g id="node33" class="node">
<title>Node33</title>
<g id="a_node33"><a xlink:href="../../d9/d11/Logger_8hpp.html" target="_top" xlink:title="Acts/Utilities/Logger.hpp">
<polygon fill="none" stroke="#ff0000" points="2534,-63.5 2534,-83.5 2674,-83.5 2674,-63.5 2534,-63.5"/>
<text text-anchor="middle" x="2604" y="-70.5" font-family="FreeSans" font-size="10.00" fill="#000000">Acts/Utilities/Logger.hpp</text>
</a>
</g>
</g>
<!-- Node27&#45;&gt;Node33 -->
<g id="edge68" class="edge">
<title>Node27&#45;&gt;Node33</title>
<path fill="none" stroke="#191970" d="M1677.64,-272.6066C1859.8803,-233.4369 2375.695,-122.5706 2547.5229,-85.6389"/>
<polygon fill="#191970" stroke="#191970" points="2548.3354,-89.0443 2557.3766,-83.521 2546.8644,-82.2005 2548.3354,-89.0443"/>
</g>
<!-- Node28&#45;&gt;Node7 -->
<g id="edge43" class="edge">
<title>Node28&#45;&gt;Node7</title>
<path fill="none" stroke="#191970" d="M2543.7864,-201.1119C2512.6799,-169.6853 2418.929,-76.5798 2381,-57 2346.3327,-39.104 2304.8471,-28.0395 2268.3664,-21.2243"/>
<polygon fill="#191970" stroke="#191970" points="2268.679,-17.7248 2258.2195,-19.4126 2267.4486,-24.6159 2268.679,-17.7248"/>
</g>
<!-- Node29 -->
<g id="node29" class="node">
<title>Node29</title>
<polygon fill="none" stroke="#bfbfbf" points="2420.5,-.5 2420.5,-20.5 2465.5,-20.5 2465.5,-.5 2420.5,-.5"/>
<text text-anchor="middle" x="2443" y="-7.5" font-family="FreeSans" font-size="10.00" fill="#000000">string</text>
</g>
<!-- Node28&#45;&gt;Node29 -->
<g id="edge44" class="edge">
<title>Node28&#45;&gt;Node29</title>
<path fill="none" stroke="#191970" d="M2548.3429,-201.256C2530.7559,-169.4093 2476.8347,-71.7683 2453.7117,-29.8968"/>
<polygon fill="#191970" stroke="#191970" points="2456.677,-28.0262 2448.7788,-20.9644 2450.5492,-31.4102 2456.677,-28.0262"/>
</g>
<!-- Node30&#45;&gt;Node7 -->
<g id="edge48" class="edge">
<title>Node30&#45;&gt;Node7</title>
<path fill="none" stroke="#191970" d="M1918.0432,-132.4603C1908.5297,-114.9741 1892.7436,-78.7247 1911,-57 1933.1616,-30.6282 2017.5346,-19.2106 2085.3915,-14.2686"/>
<polygon fill="#191970" stroke="#191970" points="2085.9651,-17.7375 2095.7005,-13.5576 2085.4834,-10.7541 2085.9651,-17.7375"/>
</g>
<!-- Node30&#45;&gt;Node20 -->
<g id="edge50" class="edge">
<title>Node30&#45;&gt;Node20</title>
<path fill="none" stroke="#191970" d="M1839.3408,-132.4571C1820.1649,-130.2587 1799.8883,-127.9943 1781,-126 1680.367,-115.3748 1371.2664,-86.4061 1267.4299,-76.7103"/>
<polygon fill="#191970" stroke="#191970" points="1267.4774,-73.1996 1257.1954,-75.755 1266.8268,-80.1693 1267.4774,-73.1996"/>
</g>
<!-- Node30&#45;&gt;Node25 -->
<g id="edge49" class="edge">
<title>Node30&#45;&gt;Node25</title>
<path fill="none" stroke="#191970" d="M1940.2309,-132.3188C1958.3473,-120.9549 1987.8819,-102.4286 2008.9633,-89.2049"/>
<polygon fill="#191970" stroke="#191970" points="2011.0911,-92.0018 2017.7025,-83.723 2007.3713,-86.0719 2011.0911,-92.0018"/>
</g>
<!-- Node31&#45;&gt;Node4 -->
<g id="edge55" class="edge">
<title>Node31&#45;&gt;Node4</title>
<path fill="none" stroke="#191970" d="M2224.0068,-207.2679C2287.1979,-203.7662 2379.9955,-198.7728 2461,-195 2858.2248,-176.4994 2957.7477,-176.8993 3355,-159 3427.0185,-155.755 3507.8313,-151.7339 3571.5775,-148.4737"/>
<polygon fill="#191970" stroke="#191970" points="3571.8501,-151.9644 3581.6579,-147.9572 3571.4919,-144.9736 3571.8501,-151.9644"/>
</g>
<!-- Node31&#45;&gt;Node7 -->
<g id="edge52" class="edge">
<title>Node31&#45;&gt;Node7</title>
<path fill="none" stroke="#191970" d="M2150.427,-201.256C2154.8259,-169.678 2168.2362,-73.4116 2174.1486,-30.9687"/>
<polygon fill="#191970" stroke="#191970" points="2177.629,-31.3517 2175.5423,-20.9644 2170.696,-30.3858 2177.629,-31.3517"/>
</g>
<!-- Node31&#45;&gt;Node10 -->
<g id="edge65" class="edge">
<title>Node31&#45;&gt;Node10</title>
<path fill="none" stroke="#191970" d="M2224.3232,-206.8925C2428.3155,-194.4142 2990.085,-160.0506 3198.1439,-147.3236"/>
<polygon fill="#191970" stroke="#191970" points="3198.6077,-150.8019 3208.3753,-146.6978 3198.1803,-143.815 3198.6077,-150.8019"/>
</g>
<!-- Node31&#45;&gt;Node14 -->
<g id="edge53" class="edge">
<title>Node31&#45;&gt;Node14</title>
<path fill="none" stroke="#191970" d="M2073.8063,-206.7082C1930.2101,-197.5444 1607.0196,-176.8578 1335,-159 1285.1627,-155.7282 1229.6734,-152.0268 1183.9334,-148.9599"/>
<polygon fill="#191970" stroke="#191970" points="1183.9413,-145.4526 1173.7294,-148.2754 1183.4727,-152.437 1183.9413,-145.4526"/>
</g>
<!-- Node31&#45;&gt;Node25 -->
<g id="edge54" class="edge">
<title>Node31&#45;&gt;Node25</title>
<path fill="none" stroke="#191970" d="M2140.3563,-201.1276C2120.8639,-177.7367 2073.2883,-120.646 2048.9201,-91.4041"/>
<polygon fill="#191970" stroke="#191970" points="2051.5221,-89.0593 2042.4315,-83.6178 2046.1446,-93.5406 2051.5221,-89.0593"/>
</g>
<!-- Node31&#45;&gt;Node29 -->
<g id="edge66" class="edge">
<title>Node31&#45;&gt;Node29</title>
<path fill="none" stroke="#191970" d="M2177.789,-201.3218C2202.4106,-192.0124 2238.3093,-176.9771 2267,-159 2330.7528,-119.0537 2395.8807,-57.5923 2425.9125,-27.8323"/>
<polygon fill="#191970" stroke="#191970" points="2428.4982,-30.1964 2433.0968,-20.6516 2423.5497,-25.2455 2428.4982,-30.1964"/>
</g>
<!-- Node31&#45;&gt;Node30 -->
<g id="edge56" class="edge">
<title>Node31&#45;&gt;Node30</title>
<path fill="none" stroke="#191970" d="M2116.2831,-201.4668C2076.7074,-189.3303 2009.9925,-168.871 1966.4788,-155.5268"/>
<polygon fill="#191970" stroke="#191970" points="1967.3432,-152.1311 1956.7564,-152.5453 1965.2908,-158.8235 1967.3432,-152.1311"/>
</g>
<!-- Node31&#45;&gt;Node32 -->
<g id="edge57" class="edge">
<title>Node31&#45;&gt;Node32</title>
<path fill="none" stroke="#191970" d="M2082.1121,-201.4668C1998.1356,-188.8703 1854.3898,-167.3085 1765.9419,-154.0413"/>
<polygon fill="#191970" stroke="#191970" points="1766.3773,-150.5675 1755.9687,-152.5453 1765.3388,-157.4901 1766.3773,-150.5675"/>
</g>
<!-- Node32&#45;&gt;Node7 -->
<g id="edge58" class="edge">
<title>Node32&#45;&gt;Node7</title>
<path fill="none" stroke="#191970" d="M1696.7786,-132.439C1711.7637,-113.8894 1746.6523,-74.5914 1786,-57 1837.8359,-33.8255 1987.0423,-21.1469 2085.4223,-15.1008"/>
<polygon fill="#191970" stroke="#191970" points="2085.8981,-18.5786 2095.6696,-14.4837 2085.4772,-11.5913 2085.8981,-18.5786"/>
</g>
<!-- Node32&#45;&gt;Node15 -->
<g id="edge64" class="edge">
<title>Node32&#45;&gt;Node15</title>
<path fill="none" stroke="#191970" d="M1610.1641,-132.4686C1591.7457,-130.2348 1572.1948,-127.9523 1554,-126 1350.3014,-104.1427 1104.906,-83.3276 1018.2213,-76.1435"/>
<polygon fill="#191970" stroke="#191970" points="1018.4719,-72.6523 1008.2175,-75.3166 1017.8952,-79.6285 1018.4719,-72.6523"/>
</g>
<!-- Node32&#45;&gt;Node19 -->
<g id="edge63" class="edge">
<title>Node32&#45;&gt;Node19</title>
<path fill="none" stroke="#191970" d="M1654.9744,-132.4668C1613.2576,-120.1657 1542.5456,-99.3147 1497.3507,-85.988"/>
<polygon fill="#191970" stroke="#191970" points="1498.1395,-82.5717 1487.5578,-83.1004 1496.1596,-89.2859 1498.1395,-82.5717"/>
</g>
<!-- Node32&#45;&gt;Node33 -->
<g id="edge59" class="edge">
<title>Node32&#45;&gt;Node33</title>
<path fill="none" stroke="#191970" d="M1761.7959,-132.4857C1780.4203,-130.1367 1800.4314,-127.7977 1819,-126 2075.8132,-101.1367 2381.0397,-84.3811 2523.4057,-77.3055"/>
<polygon fill="#191970" stroke="#191970" points="2523.9696,-80.782 2533.7846,-76.7925 2523.6239,-73.7905 2523.9696,-80.782"/>
</g>
<!-- Node33&#45;&gt;Node11 -->
<g id="edge61" class="edge">
<title>Node33&#45;&gt;Node11</title>
<path fill="none" stroke="#191970" d="M2674.1093,-63.6859C2691.6883,-61.3587 2710.5206,-58.9799 2728,-57 2898.5257,-37.6847 3102.6282,-20.4272 3186.3198,-13.602"/>
<polygon fill="#191970" stroke="#191970" points="3186.7018,-17.0826 3196.3854,-12.7841 3186.1348,-10.1056 3186.7018,-17.0826"/>
</g>
<!-- Node33&#45;&gt;Node29 -->
<g id="edge62" class="edge">
<title>Node33&#45;&gt;Node29</title>
<path fill="none" stroke="#191970" d="M2578.1326,-63.378C2550.1813,-52.4405 2505.5914,-34.9923 2475.3439,-23.1563"/>
<polygon fill="#191970" stroke="#191970" points="2476.2685,-19.7598 2465.6807,-19.3751 2473.7177,-26.2785 2476.2685,-19.7598"/>
</g>
<!-- Node33&#45;&gt;Node34 -->
<g id="edge60" class="edge">
<title>Node33&#45;&gt;Node34</title>
<path fill="none" stroke="#191970" d="M2533.7087,-70.8113C2445.8335,-67.4704 2290.8031,-61.6433 2158,-57 1618.0862,-38.1227 961.9644,-17.3059 789.3012,-11.8619"/>
<polygon fill="#191970" stroke="#191970" points="789.2026,-8.3571 779.0973,-11.5403 788.9821,-15.3536 789.2026,-8.3571"/>
</g>
<!-- Node35&#45;&gt;Node18 -->
<g id="edge75" class="edge">
<title>Node35&#45;&gt;Node18</title>
<path fill="none" stroke="#191970" d="M1060.5065,-276.3852C1063.9527,-266.4442 1069.356,-250.8576 1074.0031,-237.4526"/>
<polygon fill="#191970" stroke="#191970" points="1077.3958,-238.3513 1077.3644,-227.7566 1070.782,-236.0585 1077.3958,-238.3513"/>
</g>
<!-- Node36&#45;&gt;Node4 -->
<g id="edge86" class="edge">
<title>Node36&#45;&gt;Node4</title>
<path fill="none" stroke="#191970" d="M3196.0687,-421.813C3380.6039,-415.8114 3789.3253,-400.0874 3810,-378 3874.4752,-309.1192 3757.2126,-200.2982 3707.1053,-159.0707"/>
<polygon fill="#191970" stroke="#191970" points="3709.106,-156.1872 3699.1315,-152.615 3704.7013,-161.6277 3709.106,-156.1872"/>
</g>
<!-- Node36&#45;&gt;Node7 -->
<g id="edge78" class="edge">
<title>Node36&#45;&gt;Node7</title>
<path fill="none" stroke="#191970" d="M3017.7302,-423.2194C2872.8399,-420.2049 2599.5897,-410.2626 2570,-378 2414.5342,-208.4903 3060,-441.5069 3060,-211.5 3060,-211.5 3060,-211.5 3060,-142.5 3060,-63.0713 2493.9156,-26.2127 2268.2544,-14.6751"/>
<polygon fill="#191970" stroke="#191970" points="2268.2582,-11.1709 2258.0941,-14.161 2267.9044,-18.162 2268.2582,-11.1709"/>
</g>
<!-- Node36&#45;&gt;Node8 -->
<g id="edge87" class="edge">
<title>Node36&#45;&gt;Node8</title>
<path fill="none" stroke="#191970" d="M3196.2554,-423.8145C3378.5152,-421.6932 3780.6685,-413.0507 3832,-378 3892.7558,-336.5141 3886.0662,-299.8224 3902,-228 3906.4348,-208.0101 3901.1883,-185.3295 3895.2371,-168.3535"/>
<polygon fill="#191970" stroke="#191970" points="3898.3509,-166.6953 3891.5208,-158.5958 3891.8092,-169.1867 3898.3509,-166.6953"/>
</g>
<!-- Node36&#45;&gt;Node10 -->
<g id="edge123" class="edge">
<title>Node36&#45;&gt;Node10</title>
<path fill="none" stroke="#191970" d="M3196.3189,-421.6511C3377.5145,-415.4357 3772.9298,-399.4767 3793,-378 3803.0141,-367.2842 3801.5808,-356.8946 3793,-345 3696.5476,-211.2996 3591.0781,-296.2307 3441,-228 3414.7014,-216.0438 3410.4557,-208.6593 3385,-195 3359.5563,-181.3472 3330.0311,-167.1 3308.2886,-156.8981"/>
<polygon fill="#191970" stroke="#191970" points="3309.7277,-153.7073 3299.1858,-152.6497 3306.7673,-160.0505 3309.7277,-153.7073"/>
</g>
<!-- Node36&#45;&gt;Node11 -->
<g id="edge124" class="edge">
<title>Node36&#45;&gt;Node11</title>
<path fill="none" stroke="#191970" d="M3196.1476,-421.7273C3367.6127,-415.9467 3737.4884,-401.1863 3863,-378 3974.8482,-357.3378 4102,-400.2407 4102,-286.5 4102,-286.5 4102,-286.5 4102,-142.5 4102,-47.0538 3997.7359,-79.5837 3905,-57 3781.9737,-27.0398 3389.4104,-14.6746 3263.9483,-11.4245"/>
<polygon fill="#191970" stroke="#191970" points="3263.7579,-7.9186 3253.6722,-11.1633 3263.58,-14.9163 3263.7579,-7.9186"/>
</g>
<!-- Node36&#45;&gt;Node13 -->
<g id="edge77" class="edge">
<title>Node36&#45;&gt;Node13</title>
<path fill="none" stroke="#191970" d="M3017.9077,-422.6675C2603.6909,-414.1451 885.6303,-378.767 872,-378 704.6729,-368.5844 233.9541,-432.8078 121,-309 107.5203,-294.2251 110.6194,-281.0951 121,-264 129.4517,-250.0814 142.9263,-239.6838 157.3148,-231.9825"/>
<polygon fill="#191970" stroke="#191970" points="158.9315,-235.0877 166.355,-227.5284 155.8378,-228.8085 158.9315,-235.0877"/>
</g>
<!-- Node36&#45;&gt;Node16 -->
<g id="edge80" class="edge">
<title>Node36&#45;&gt;Node16</title>
<path fill="none" stroke="#191970" d="M3119.0856,-414.3988C3136.015,-398.9893 3163.114,-368.8831 3148,-345 3128.0134,-313.4172 3103.3662,-329.3249 3072,-309 3034.7907,-284.8889 2996.6531,-249.7255 2975.2787,-228.8739"/>
<polygon fill="#191970" stroke="#191970" points="2977.5206,-226.169 2967.9445,-221.636 2972.6037,-231.1514 2977.5206,-226.169"/>
</g>
<!-- Node36&#45;&gt;Node33 -->
<g id="edge122" class="edge">
<title>Node36&#45;&gt;Node33</title>
<path fill="none" stroke="#191970" d="M3126.7806,-414.4588C3140.0037,-406.5443 3156.3319,-394.1516 3164,-378 3170.2902,-364.7507 3168.9382,-358.8103 3164,-345 3134.9718,-263.8196 3113.2291,-242.0728 3041,-195 2930.1972,-122.788 2776.6863,-93.0313 2684.1989,-81.1046"/>
<polygon fill="#191970" stroke="#191970" points="2684.4172,-77.6048 2674.0603,-79.8372 2683.5489,-84.5507 2684.4172,-77.6048"/>
</g>
<!-- Node37 -->
<g id="node37" class="node">
<title>Node37</title>
<g id="a_node37"><a xlink:href="../../d0/d47/PdgParticle_8hpp.html" target="_top" xlink:title="Acts/Definitions/PdgParticle.hpp">
<polygon fill="none" stroke="#ff0000" points="3463,-351.5 3463,-371.5 3641,-371.5 3641,-351.5 3463,-351.5"/>
<text text-anchor="middle" x="3552" y="-358.5" font-family="FreeSans" font-size="10.00" fill="#000000">Acts/Definitions/PdgParticle.hpp</text>
</a>
</g>
</g>
<!-- Node36&#45;&gt;Node37 -->
<g id="edge79" class="edge">
<title>Node36&#45;&gt;Node37</title>
<path fill="none" stroke="#191970" d="M3184.4961,-414.4959C3253.8621,-405.4145 3358.309,-391.4275 3449,-378 3459.3177,-376.4724 3470.2062,-374.797 3480.8864,-373.1176"/>
<polygon fill="#191970" stroke="#191970" points="3481.7071,-376.5314 3491.037,-371.511 3480.6127,-369.6174 3481.7071,-376.5314"/>
</g>
<!-- Node38 -->
<g id="node38" class="node">
<title>Node38</title>
<g id="a_node38"><a xlink:href="../../dc/de5/TrackParametersConcept_8hpp.html" target="_top" xlink:title="Acts/EventData/TrackParameters\lConcept.hpp">
<polygon fill="none" stroke="#ff0000" points="3450,-195.5 3450,-227.5 3632,-227.5 3632,-195.5 3450,-195.5"/>
<text text-anchor="start" x="3458" y="-214.5" font-family="FreeSans" font-size="10.00" fill="#000000">Acts/EventData/TrackParameters</text>
<text text-anchor="middle" x="3541" y="-202.5" font-family="FreeSans" font-size="10.00" fill="#000000">Concept.hpp</text>
</a>
</g>
</g>
<!-- Node36&#45;&gt;Node38 -->
<g id="edge81" class="edge">
<title>Node36&#45;&gt;Node38</title>
<path fill="none" stroke="#191970" d="M3196.1057,-418.5906C3273.8949,-412.089 3379.8393,-399.582 3416,-378 3445.35,-360.4828 3499.5558,-277.9771 3525.8741,-236.0653"/>
<polygon fill="#191970" stroke="#191970" points="3528.8713,-237.8735 3531.1961,-227.5368 3522.9327,-234.1676 3528.8713,-237.8735"/>
</g>
<!-- Node39 -->
<g id="node39" class="node">
<title>Node39</title>
<g id="a_node39"><a xlink:href="../../dc/dfe/AbortList_8hpp.html" target="_top" xlink:title="Acts/Propagator/AbortList.hpp">
<polygon fill="none" stroke="#ff0000" points="2579,-351.5 2579,-371.5 2747,-371.5 2747,-351.5 2579,-351.5"/>
<text text-anchor="middle" x="2663" y="-358.5" font-family="FreeSans" font-size="10.00" fill="#000000">Acts/Propagator/AbortList.hpp</text>
</a>
</g>
</g>
<!-- Node36&#45;&gt;Node39 -->
<g id="edge88" class="edge">
<title>Node36&#45;&gt;Node39</title>
<path fill="none" stroke="#191970" d="M3023.5225,-414.4873C2952.3134,-405.696 2847.2705,-392.1353 2756,-378 2746.7392,-376.5658 2736.9785,-374.9496 2727.4026,-373.3042"/>
<polygon fill="#191970" stroke="#191970" points="2727.9709,-369.8506 2717.5191,-371.5854 2726.7715,-376.7471 2727.9709,-369.8506"/>
</g>
<!-- Node40 -->
<g id="node40" class="node">
<title>Node40</title>
<g id="a_node40"><a xlink:href="../../d1/da9/ActionList_8hpp.html" target="_top" xlink:title="Acts/Propagator/ActionList.hpp">
<polygon fill="none" stroke="#ff0000" points="2765,-351.5 2765,-371.5 2937,-371.5 2937,-351.5 2765,-351.5"/>
<text text-anchor="middle" x="2851" y="-358.5" font-family="FreeSans" font-size="10.00" fill="#000000">Acts/Propagator/ActionList.hpp</text>
</a>
</g>
</g>
<!-- Node36&#45;&gt;Node40 -->
<g id="edge89" class="edge">
<title>Node36&#45;&gt;Node40</title>
<path fill="none" stroke="#191970" d="M3066.153,-414.4478C3021.4763,-403.4532 2949.823,-385.8197 2901.6147,-373.956"/>
<polygon fill="#191970" stroke="#191970" points="2902.2482,-370.5075 2891.7015,-371.5164 2900.5754,-377.3047 2902.2482,-370.5075"/>
</g>
<!-- Node41 -->
<g id="node41" class="node">
<title>Node41</title>
<g id="a_node41"><a xlink:href="../../dc/d81/StandardAborters_8hpp.html" target="_top" xlink:title="Acts/Propagator/Standard\lAborters.hpp">
<polygon fill="none" stroke="#ff0000" points="2084,-270.5 2084,-302.5 2230,-302.5 2230,-270.5 2084,-270.5"/>
<text text-anchor="start" x="2092" y="-289.5" font-family="FreeSans" font-size="10.00" fill="#000000">Acts/Propagator/Standard</text>
<text text-anchor="middle" x="2157" y="-277.5" font-family="FreeSans" font-size="10.00" fill="#000000">Aborters.hpp</text>
</a>
</g>
</g>
<!-- Node36&#45;&gt;Node41 -->
<g id="edge90" class="edge">
<title>Node36&#45;&gt;Node41</title>
<path fill="none" stroke="#191970" d="M3017.9005,-421.9038C2778.6822,-414.7243 2139.3297,-394.072 2124,-378 2106.4587,-359.6093 2120.9474,-331.2182 2135.8684,-310.9411"/>
<polygon fill="#191970" stroke="#191970" points="2138.8227,-312.8435 2142.1975,-302.8006 2133.2964,-308.547 2138.8227,-312.8435"/>
</g>
<!-- Node42 -->
<g id="node42" class="node">
<title>Node42</title>
<g id="a_node42"><a xlink:href="../../d8/d4a/StepperConcept_8hpp.html" target="_top" xlink:title="Acts/Propagator/StepperConcept.hpp">
<polygon fill="none" stroke="#ff0000" points="2132.5,-351.5 2132.5,-371.5 2337.5,-371.5 2337.5,-351.5 2132.5,-351.5"/>
<text text-anchor="middle" x="2235" y="-358.5" font-family="FreeSans" font-size="10.00" fill="#000000">Acts/Propagator/StepperConcept.hpp</text>
</a>
</g>
</g>
<!-- Node36&#45;&gt;Node42 -->
<g id="edge102" class="edge">
<title>Node36&#45;&gt;Node42</title>
<path fill="none" stroke="#191970" d="M3017.8744,-421.5085C2875.7002,-416.183 2588.9254,-403.1752 2347,-378 2333.9145,-376.6383 2320.0148,-374.8606 2306.6212,-372.9776"/>
<polygon fill="#191970" stroke="#191970" points="2306.896,-369.4812 2296.4996,-371.5222 2305.8997,-376.4099 2306.896,-369.4812"/>
</g>
<!-- Node44 -->
<g id="node44" class="node">
<title>Node44</title>
<g id="a_node44"><a xlink:href="../../df/d99/Propagator_2detail_2ParameterTraits_8hpp.html" target="_top" xlink:title="Acts/Propagator/detail\l/ParameterTraits.hpp">
<polygon fill="none" stroke="#ff0000" points="2355.5,-345.5 2355.5,-377.5 2484.5,-377.5 2484.5,-345.5 2355.5,-345.5"/>
<text text-anchor="start" x="2363.5" y="-364.5" font-family="FreeSans" font-size="10.00" fill="#000000">Acts/Propagator/detail</text>
<text text-anchor="middle" x="2420" y="-352.5" font-family="FreeSans" font-size="10.00" fill="#000000">/ParameterTraits.hpp</text>
</a>
</g>
</g>
<!-- Node36&#45;&gt;Node44 -->
<g id="edge118" class="edge">
<title>Node36&#45;&gt;Node44</title>
<path fill="none" stroke="#191970" d="M3017.9866,-418.8625C2905.6908,-411.3773 2706.7275,-396.8746 2537,-378 2523.3011,-376.4766 2508.7333,-374.6162 2494.6963,-372.7007"/>
<polygon fill="#191970" stroke="#191970" points="2494.9748,-369.206 2484.589,-371.3002 2494.014,-376.1397 2494.9748,-369.206"/>
</g>
<!-- Node45 -->
<g id="node45" class="node">
<title>Node45</title>
<g id="a_node45"><a xlink:href="../../d0/d9a/VoidPropagatorComponents_8hpp.html" target="_top" xlink:title="Acts/Propagator/detail\l/VoidPropagatorComponents.hpp">
<polygon fill="none" stroke="#000000" points="2955,-345.5 2955,-377.5 3139,-377.5 3139,-345.5 2955,-345.5"/>
<text text-anchor="start" x="2963" y="-364.5" font-family="FreeSans" font-size="10.00" fill="#000000">Acts/Propagator/detail</text>
<text text-anchor="middle" x="3047" y="-352.5" font-family="FreeSans" font-size="10.00" fill="#000000">/VoidPropagatorComponents.hpp</text>
</a>
</g>
</g>
<!-- Node36&#45;&gt;Node45 -->
<g id="edge121" class="edge">
<title>Node36&#45;&gt;Node45</title>
<path fill="none" stroke="#191970" d="M3097.36,-414.378C3089.8631,-406.5062 3079.1544,-395.2622 3069.5381,-385.165"/>
<polygon fill="#191970" stroke="#191970" points="3071.8996,-382.5696 3062.4685,-377.742 3066.8306,-387.3972 3071.8996,-382.5696"/>
</g>
<!-- Node46 -->
<g id="node46" class="node">
<title>Node46</title>
<g id="a_node46"><a xlink:href="../../d3/ded/Propagator_8ipp.html" target="_top" xlink:title="Acts/Propagator/Propagator.ipp">
<polygon fill="none" stroke="#ff0000" points="3233,-351.5 3233,-371.5 3407,-371.5 3407,-351.5 3233,-351.5"/>
<text text-anchor="middle" x="3320" y="-358.5" font-family="FreeSans" font-size="10.00" fill="#000000">Acts/Propagator/Propagator.ipp</text>
</a>
</g>
</g>
<!-- Node36&#45;&gt;Node46 -->
<g id="edge125" class="edge">
<title>Node36&#45;&gt;Node46</title>
<path fill="none" stroke="#191970" d="M3141.2221,-414.378C3177.8649,-403.54 3236.1217,-386.3091 3276.1133,-374.4806"/>
<polygon fill="#191970" stroke="#191970" points="3277.2662,-377.7895 3285.8628,-371.5969 3275.2807,-371.077 3277.2662,-377.7895"/>
</g>
<!-- Node38&#45;&gt;Node4 -->
<g id="edge84" class="edge">
<title>Node38&#45;&gt;Node4</title>
<path fill="none" stroke="#191970" d="M3574.6304,-195.4966C3599.0424,-183.8798 3631.8021,-168.2907 3655.4655,-157.0302"/>
<polygon fill="#191970" stroke="#191970" points="3657.1568,-160.1015 3664.6827,-152.6441 3654.149,-153.7807 3657.1568,-160.1015"/>
</g>
<!-- Node38&#45;&gt;Node7 -->
<g id="edge82" class="edge">
<title>Node38&#45;&gt;Node7</title>
<path fill="none" stroke="#191970" d="M3521.4024,-195.3331C3497.2935,-176.2005 3454.4485,-144.5999 3413,-126 3301.9629,-76.1723 3268.3146,-75.3422 3148,-57 3126.4356,-53.7125 2506.0705,-25.3921 2268.4173,-14.628"/>
<polygon fill="#191970" stroke="#191970" points="2268.2234,-11.1157 2258.0753,-14.1597 2267.9067,-18.1086 2268.2234,-11.1157"/>
</g>
<!-- Node38&#45;&gt;Node11 -->
<g id="edge85" class="edge">
<title>Node38&#45;&gt;Node11</title>
<path fill="none" stroke="#191970" d="M3541.0041,-195.023C3540.0532,-163.1232 3533.1117,-92.9164 3492,-57 3458.6022,-27.8227 3329.6186,-16.402 3263.9273,-12.408"/>
<polygon fill="#191970" stroke="#191970" points="3263.7577,-8.8924 3253.572,-11.8082 3263.3529,-15.8807 3263.7577,-8.8924"/>
</g>
<!-- Node38&#45;&gt;Node25 -->
<g id="edge83" class="edge">
<title>Node38&#45;&gt;Node25</title>
<path fill="none" stroke="#191970" d="M3514.7856,-195.4168C3479.8214,-174.932 3415.3084,-140.4582 3355,-126 3326.1667,-119.0876 2482.7514,-89.1132 2158.9285,-77.8232"/>
<polygon fill="#191970" stroke="#191970" points="2158.6809,-74.3126 2148.565,-77.4621 2158.437,-81.3083 2158.6809,-74.3126"/>
</g>
<!-- Node41&#45;&gt;Node7 -->
<g id="edge91" class="edge">
<title>Node41&#45;&gt;Node7</title>
<path fill="none" stroke="#191970" d="M2189.9019,-270.416C2206.0578,-260.5975 2223.9557,-246.375 2233,-228 2266.8115,-159.3059 2215.8076,-68.03 2190.2075,-29.2292"/>
<polygon fill="#191970" stroke="#191970" points="2192.8239,-26.8514 2184.3135,-20.5408 2187.031,-30.7812 2192.8239,-26.8514"/>
</g>
<!-- Node41&#45;&gt;Node11 -->
<g id="edge100" class="edge">
<title>Node41&#45;&gt;Node11</title>
<path fill="none" stroke="#191970" d="M2209.984,-270.4694C2293.7565,-245.1354 2448.6316,-198.352 2461,-195 2737.5002,-120.064 3074.3242,-43.9498 3186.5644,-18.9893"/>
<polygon fill="#191970" stroke="#191970" points="3187.4076,-22.3874 3196.411,-16.8028 3185.8901,-15.5539 3187.4076,-22.3874"/>
</g>
<!-- Node41&#45;&gt;Node15 -->
<g id="edge99" class="edge">
<title>Node41&#45;&gt;Node15</title>
<path fill="none" stroke="#191970" d="M2083.9577,-273.1727C2024.319,-262.0015 1937.9525,-245.1634 1863,-228 1743.9466,-200.7379 1714.8193,-191.1799 1597,-159 1545.705,-144.9898 1534.1922,-136.1703 1482,-126 1392.3858,-108.5375 1113.8605,-84.2213 1018.4499,-76.1911"/>
<polygon fill="#191970" stroke="#191970" points="1018.5133,-72.6842 1008.2559,-75.3365 1017.9285,-79.6597 1018.5133,-72.6842"/>
</g>
<!-- Node41&#45;&gt;Node16 -->
<g id="edge93" class="edge">
<title>Node41&#45;&gt;Node16</title>
<path fill="none" stroke="#191970" d="M2230.4644,-277.8448C2268.5057,-273.4725 2315.7219,-268.2154 2358,-264 2541.5683,-245.6972 2757.0863,-227.6871 2873.3324,-218.259"/>
<polygon fill="#191970" stroke="#191970" points="2873.8979,-221.7247 2883.5828,-217.429 2873.3329,-214.7476 2873.8979,-221.7247"/>
</g>
<!-- Node41&#45;&gt;Node18 -->
<g id="edge94" class="edge">
<title>Node41&#45;&gt;Node18</title>
<path fill="none" stroke="#191970" d="M2083.9654,-282.6575C1929.6597,-274.3492 1559.1543,-253.3978 1249,-228 1224.5184,-225.9953 1198.0379,-223.5078 1173.57,-221.0775"/>
<polygon fill="#191970" stroke="#191970" points="1173.8807,-217.5912 1163.5818,-220.0776 1173.1834,-224.5564 1173.8807,-217.5912"/>
</g>
<!-- Node41&#45;&gt;Node28 -->
<g id="edge92" class="edge">
<title>Node41&#45;&gt;Node28</title>
<path fill="none" stroke="#191970" d="M2216.2751,-270.45C2225.5248,-268.1541 2234.9984,-265.9226 2244,-264 2321.7464,-247.3949 2411.3664,-232.6912 2474.1862,-223.0999"/>
<polygon fill="#191970" stroke="#191970" points="2475.0605,-226.5074 2484.4219,-221.5462 2474.0099,-219.5867 2475.0605,-226.5074"/>
</g>
<!-- Node41&#45;&gt;Node29 -->
<g id="edge101" class="edge">
<title>Node41&#45;&gt;Node29</title>
<path fill="none" stroke="#191970" d="M2186.5083,-270.4365C2205.6205,-259.4866 2230.6481,-244.0986 2251,-228 2319.2755,-173.9933 2334.6878,-157.2222 2390,-90 2406.0353,-70.512 2421.7302,-46.1086 2431.8258,-29.5153"/>
<polygon fill="#191970" stroke="#191970" points="2434.944,-31.1208 2437.0831,-20.7442 2428.94,-27.522 2434.944,-31.1208"/>
</g>
<!-- Node41&#45;&gt;Node30 -->
<g id="edge95" class="edge">
<title>Node41&#45;&gt;Node30</title>
<path fill="none" stroke="#191970" d="M2130.7249,-270.2613C2085.5026,-242.3128 1993.5459,-185.4812 1949.1279,-158.0297"/>
<polygon fill="#191970" stroke="#191970" points="1950.7517,-154.9188 1940.4051,-152.6388 1947.0716,-160.8734 1950.7517,-154.9188"/>
</g>
<!-- Node41&#45;&gt;Node31 -->
<g id="edge96" class="edge">
<title>Node41&#45;&gt;Node31</title>
<path fill="none" stroke="#191970" d="M2155.2641,-270.2261C2154.0538,-258.8793 2152.4311,-243.6666 2151.1406,-231.5677"/>
<polygon fill="#191970" stroke="#191970" points="2154.6111,-231.1045 2150.0701,-221.5322 2147.6506,-231.847 2154.6111,-231.1045"/>
</g>
<!-- Node41&#45;&gt;Node32 -->
<g id="edge97" class="edge">
<title>Node41&#45;&gt;Node32</title>
<path fill="none" stroke="#191970" d="M2104.6767,-270.4005C2011.1811,-241.6326 1817.2062,-181.9481 1731.4028,-155.547"/>
<polygon fill="#191970" stroke="#191970" points="1732.3198,-152.1673 1721.7326,-152.5716 1730.2611,-158.8577 1732.3198,-152.1673"/>
</g>
<!-- Node41&#45;&gt;Node33 -->
<g id="edge98" class="edge">
<title>Node41&#45;&gt;Node33</title>
<path fill="none" stroke="#191970" d="M2200.5592,-270.4358C2230.0593,-259.2476 2269.7508,-243.5899 2304,-228 2406.9022,-181.1601 2525.1483,-117.1385 2577.124,-88.4598"/>
<polygon fill="#191970" stroke="#191970" points="2578.9829,-91.4313 2586.0392,-83.5282 2575.5946,-85.306 2578.9829,-91.4313"/>
</g>
<!-- Node42&#45;&gt;Node7 -->
<g id="edge103" class="edge">
<title>Node42&#45;&gt;Node7</title>
<path fill="none" stroke="#191970" d="M2302.2001,-351.4578C2316.955,-349.2926 2332.5006,-347.0418 2347,-345 2470.2168,-327.6487 2692.3271,-361.4883 2615,-264 2571.3193,-208.9306 2524.5466,-258.0411 2461,-228 2402.5089,-200.3488 2251.1052,-73.6347 2196.7731,-27.4247"/>
<polygon fill="#191970" stroke="#191970" points="2198.7965,-24.5505 2188.9157,-20.727 2194.2555,-29.8778 2198.7965,-24.5505"/>
</g>
<!-- Node42&#45;&gt;Node17 -->
<g id="edge104" class="edge">
<title>Node42&#45;&gt;Node17</title>
<path fill="none" stroke="#191970" d="M2270.8656,-351.463C2318.9702,-338.0009 2404.4254,-314.0862 2457.1511,-299.3309"/>
<polygon fill="#191970" stroke="#191970" points="2458.2321,-302.6629 2466.9189,-296.5973 2456.3456,-295.9219 2458.2321,-302.6629"/>
</g>
<!-- Node42&#45;&gt;Node18 -->
<g id="edge113" class="edge">
<title>Node42&#45;&gt;Node18</title>
<path fill="none" stroke="#191970" d="M2149.7893,-351.4729C2128.6373,-349.1642 2106.0089,-346.8472 2085,-345 1842.7411,-323.6995 1778.5847,-350.7407 1539,-309 1467.4897,-296.5414 1452.7666,-280.1565 1382,-264 1292.7459,-243.6227 1266.9219,-244.5429 1173.4016,-228.2226"/>
<polygon fill="#191970" stroke="#191970" points="1173.9775,-224.7703 1163.5213,-226.4786 1172.7606,-231.6637 1173.9775,-224.7703"/>
</g>
<!-- Node42&#45;&gt;Node30 -->
<g id="edge114" class="edge">
<title>Node42&#45;&gt;Node30</title>
<path fill="none" stroke="#191970" d="M2175.9148,-351.4773C2123.6836,-341.7243 2052.2806,-325.9333 2029,-309 1976.4037,-270.7438 1943.9796,-197.3504 1930.803,-162.2048"/>
<polygon fill="#191970" stroke="#191970" points="1934.0239,-160.8196 1927.3306,-152.6068 1927.4414,-163.201 1934.0239,-160.8196"/>
</g>
<!-- Node42&#45;&gt;Node31 -->
<g id="edge115" class="edge">
<title>Node42&#45;&gt;Node31</title>
<path fill="none" stroke="#191970" d="M2164.7081,-351.4631C2115.9406,-342.8941 2057.1297,-328.795 2042,-309 2029.8549,-293.1099 2031.4216,-280.9734 2042,-264 2053.7629,-245.126 2074.509,-232.8462 2094.6219,-224.9504"/>
<polygon fill="#191970" stroke="#191970" points="2095.8819,-228.2166 2104.092,-221.5201 2093.4978,-221.6351 2095.8819,-228.2166"/>
</g>
<!-- Node42&#45;&gt;Node32 -->
<g id="edge116" class="edge">
<title>Node42&#45;&gt;Node32</title>
<path fill="none" stroke="#191970" d="M2155.1397,-351.459C2104.4285,-343.5038 2038.0339,-330.1348 1982,-309 1874.2574,-268.3617 1758.9987,-191.7967 1711.4642,-158.5666"/>
<polygon fill="#191970" stroke="#191970" points="1713.3289,-155.599 1703.1376,-152.7029 1709.2985,-161.3223 1713.3289,-155.599"/>
</g>
<!-- Node42&#45;&gt;Node33 -->
<g id="edge117" class="edge">
<title>Node42&#45;&gt;Node33</title>
<path fill="none" stroke="#191970" d="M2297.3925,-351.4832C2313.5217,-349.1205 2330.8827,-346.7757 2347,-345 2401.373,-339.0096 2800.7609,-349.0694 2838,-309 2918.3103,-222.5858 2720.6155,-123.8101 2638.1242,-87.6799"/>
<polygon fill="#191970" stroke="#191970" points="2639.2297,-84.3448 2628.6619,-83.5893 2636.4521,-90.7701 2639.2297,-84.3448"/>
</g>
<!-- Node43 -->
<g id="node43" class="node">
<title>Node43</title>
<g id="a_node43"><a xlink:href="../../de/deb/CorrectedTransformationFreeToBound_8hpp.html" target="_top" xlink:title="Acts/EventData/detail\l/CorrectedTransformationFree\lToBound.hpp">
<polygon fill="none" stroke="#ff0000" points="2661.5,-264.5 2661.5,-308.5 2828.5,-308.5 2828.5,-264.5 2661.5,-264.5"/>
<text text-anchor="start" x="2669.5" y="-295.5" font-family="FreeSans" font-size="10.00" fill="#000000">Acts/EventData/detail</text>
<text text-anchor="start" x="2669.5" y="-283.5" font-family="FreeSans" font-size="10.00" fill="#000000">/CorrectedTransformationFree</text>
<text text-anchor="middle" x="2745" y="-271.5" font-family="FreeSans" font-size="10.00" fill="#000000">ToBound.hpp</text>
</a>
</g>
</g>
<!-- Node42&#45;&gt;Node43 -->
<g id="edge105" class="edge">
<title>Node42&#45;&gt;Node43</title>
<path fill="none" stroke="#191970" d="M2300.9917,-351.4728C2316.0988,-349.2622 2332.0965,-346.9887 2347,-345 2480.5475,-327.1799 2515.2912,-332.2564 2648,-309 2649.0855,-308.8098 2650.1771,-308.6151 2651.2739,-308.4162"/>
<polygon fill="#191970" stroke="#191970" points="2652.0829,-311.8253 2661.2561,-306.5241 2650.7792,-304.9477 2652.0829,-311.8253"/>
</g>
<!-- Node43&#45;&gt;Node4 -->
<g id="edge109" class="edge">
<title>Node43&#45;&gt;Node4</title>
<path fill="none" stroke="#191970" d="M2768.1073,-264.1546C2792.4795,-242.1566 2833.0935,-209.7755 2875,-195 2907.2552,-183.6274 3356.0092,-159.359 3571.7516,-148.258"/>
<polygon fill="#191970" stroke="#191970" points="3572.0391,-151.7479 3581.8463,-147.7394 3571.6799,-144.7571 3572.0391,-151.7479"/>
</g>
<!-- Node43&#45;&gt;Node7 -->
<g id="edge106" class="edge">
<title>Node43&#45;&gt;Node7</title>
<path fill="none" stroke="#191970" d="M2746.7299,-264.3469C2749.0295,-217.3872 2746.8693,-107.9771 2683,-57 2667.0561,-44.2744 2409.919,-25.6582 2268.5058,-16.3104"/>
<polygon fill="#191970" stroke="#191970" points="2268.3205,-12.7907 2258.1122,-15.6262 2267.8607,-19.7756 2268.3205,-12.7907"/>
</g>
<!-- Node43&#45;&gt;Node11 -->
<g id="edge112" class="edge">
<title>Node43&#45;&gt;Node11</title>
<path fill="none" stroke="#191970" d="M2828.8098,-265.1248C2830.5537,-264.7407 2832.2854,-264.3653 2834,-264 2925.3313,-244.5424 2959.9816,-274.4329 3041,-228 3126.9919,-178.7167 3191.1028,-73.3184 3214.8981,-29.8538"/>
<polygon fill="#191970" stroke="#191970" points="3218.0694,-31.3461 3219.7161,-20.88 3211.9021,-28.0349 3218.0694,-31.3461"/>
</g>
<!-- Node43&#45;&gt;Node25 -->
<g id="edge108" class="edge">
<title>Node43&#45;&gt;Node25</title>
<path fill="none" stroke="#191970" d="M2661.2886,-272.5331C2604.3208,-262.231 2527.4935,-246.7724 2461,-228 2311.3669,-185.7557 2138.8554,-116.9024 2067.5275,-87.5125"/>
<polygon fill="#191970" stroke="#191970" points="2068.7258,-84.2207 2058.1472,-83.6343 2066.0512,-90.6896 2068.7258,-84.2207"/>
</g>
<!-- Node43&#45;&gt;Node28 -->
<g id="edge107" class="edge">
<title>Node43&#45;&gt;Node28</title>
<path fill="none" stroke="#191970" d="M2688.7268,-264.4032C2656.4404,-251.7253 2616.9142,-236.2045 2589.0486,-225.2626"/>
<polygon fill="#191970" stroke="#191970" points="2590.2969,-221.9926 2579.7095,-221.5954 2587.7383,-228.5083 2590.2969,-221.9926"/>
</g>
<!-- Node43&#45;&gt;Node31 -->
<g id="edge110" class="edge">
<title>Node43&#45;&gt;Node31</title>
<path fill="none" stroke="#191970" d="M2661.1979,-271.2456C2645.8553,-268.6664 2629.9656,-266.1362 2615,-264 2543.7071,-253.8236 2348.4062,-232.6402 2234.5371,-220.5226"/>
<polygon fill="#191970" stroke="#191970" points="2234.7692,-217.0277 2224.4552,-219.4508 2234.0291,-223.9884 2234.7692,-217.0277"/>
</g>
<!-- Node43&#45;&gt;Node33 -->
<g id="edge111" class="edge">
<title>Node43&#45;&gt;Node33</title>
<path fill="none" stroke="#191970" d="M2737.8277,-264.4408C2725.0132,-225.902 2697.8589,-148.2872 2680,-126 2667.5098,-110.4127 2649.1827,-97.5652 2633.6551,-88.4813"/>
<polygon fill="#191970" stroke="#191970" points="2635.3362,-85.4113 2624.9016,-83.5755 2631.9139,-91.5177 2635.3362,-85.4113"/>
</g>
<!-- Node44&#45;&gt;Node31 -->
<g id="edge120" class="edge">
<title>Node44&#45;&gt;Node31</title>
<path fill="none" stroke="#191970" d="M2355.1833,-346.529C2352.4225,-345.9928 2349.686,-345.4803 2347,-345 2286.9804,-334.2679 2115.1856,-354.8547 2075,-309 2061.8183,-293.9587 2065.8199,-281.7687 2075,-264 2083.5023,-247.5432 2099.8078,-235.1276 2114.9536,-226.513"/>
<polygon fill="#191970" stroke="#191970" points="2116.9564,-229.4129 2124.154,-221.6383 2113.679,-223.2274 2116.9564,-229.4129"/>
</g>
<!-- Node44&#45;&gt;Node43 -->
<g id="edge119" class="edge">
<title>Node44&#45;&gt;Node43</title>
<path fill="none" stroke="#191970" d="M2484.8694,-346.5922C2530.499,-336.0988 2592.9894,-321.7135 2648,-309 2649.0948,-308.747 2650.1966,-308.4923 2651.3042,-308.2362"/>
<polygon fill="#191970" stroke="#191970" points="2652.4493,-311.5638 2661.4032,-305.9 2650.8716,-304.7439 2652.4493,-311.5638"/>
</g>
<!-- Node46&#45;&gt;Node38 -->
<g id="edge126" class="edge">
<title>Node46&#45;&gt;Node38</title>
<path fill="none" stroke="#191970" d="M3334.9711,-351.462C3350.687,-340.9154 3376.1068,-323.8313 3398,-309 3436.2134,-283.1128 3480.0542,-253.1878 3509.0106,-233.3913"/>
<polygon fill="#191970" stroke="#191970" points="3511.2176,-236.1222 3517.4965,-227.5884 3507.2663,-230.344 3511.2176,-236.1222"/>
</g>
<!-- Node47&#45;&gt;Node4 -->
<g id="edge135" class="edge">
<title>Node47&#45;&gt;Node4</title>
<path fill="none" stroke="#191970" d="M1936.8269,-346.8373C1941.6103,-346.1295 1946.3674,-345.5049 1951,-345 2264.3571,-310.8484 3057.6843,-358.4121 3369,-309 3493.5759,-289.2273 3543.5482,-308.0829 3641,-228 3661.7759,-210.927 3674.1781,-181.7079 3680.5468,-162.2502"/>
<polygon fill="#191970" stroke="#191970" points="3683.9255,-163.1692 3683.4791,-152.5837 3677.2269,-161.1371 3683.9255,-163.1692"/>
</g>
<!-- Node47&#45;&gt;Node7 -->
<g id="edge129" class="edge">
<title>Node47&#45;&gt;Node7</title>
<path fill="none" stroke="#191970" d="M1850.635,-345.4215C1842.3467,-335.687 1832.8467,-322.562 1828,-309 1800.5959,-232.318 1785.3179,-200.1392 1819,-126 1838.2823,-83.5568 1855.853,-76.9214 1898,-57 1930.5158,-41.6309 2017.166,-28.6258 2085.3546,-20.3111"/>
<polygon fill="#191970" stroke="#191970" points="2086.1892,-23.7361 2095.7002,-19.0681 2085.354,-16.7861 2086.1892,-23.7361"/>
</g>
<!-- Node47&#45;&gt;Node8 -->
<g id="edge136" class="edge">
<title>Node47&#45;&gt;Node8</title>
<path fill="none" stroke="#191970" d="M1936.8257,-346.8264C1941.6094,-346.1212 1946.3669,-345.5002 1951,-345 2291.5589,-308.2327 3157.1674,-381.2447 3492,-309 3629.7148,-279.2862 3779.5852,-201.5683 3847.2272,-163.7646"/>
<polygon fill="#191970" stroke="#191970" points="3849.219,-166.6599 3856.2163,-158.7044 3845.7852,-160.56 3849.219,-166.6599"/>
</g>
<!-- Node47&#45;&gt;Node10 -->
<g id="edge147" class="edge">
<title>Node47&#45;&gt;Node10</title>
<path fill="none" stroke="#191970" d="M1936.8272,-346.8404C1941.6106,-346.1318 1946.3675,-345.5062 1951,-345 2027.5701,-336.6322 3274.8505,-354.5021 3337,-309 3379.0962,-278.1797 3390.7623,-240.3682 3365,-195 3354.9938,-177.3788 3336.4701,-165.0448 3318.9895,-156.7815"/>
<polygon fill="#191970" stroke="#191970" points="3320.0102,-153.4077 3309.4461,-152.6019 3317.202,-159.8197 3320.0102,-153.4077"/>
</g>
<!-- Node47&#45;&gt;Node13 -->
<g id="edge128" class="edge">
<title>Node47&#45;&gt;Node13</title>
<path fill="none" stroke="#191970" d="M1795.4011,-359.0478C1610.6633,-352.3729 1116.1147,-332.7759 954,-309 868.5658,-296.4701 850.1745,-278.1884 765,-264 615.292,-239.0616 440.2426,-224.7732 330.2382,-217.5733"/>
<polygon fill="#191970" stroke="#191970" points="330.3336,-214.0723 320.1286,-216.9196 329.8819,-221.0577 330.3336,-214.0723"/>
</g>
<!-- Node47&#45;&gt;Node14 -->
<g id="edge131" class="edge">
<title>Node47&#45;&gt;Node14</title>
<path fill="none" stroke="#191970" d="M1795.1227,-356.7995C1672.951,-348.2919 1427.755,-329.3276 1344,-309 1291.0655,-296.1526 1282.5932,-278.1799 1230,-264 1178.5659,-250.1325 1027.7247,-268.3977 993,-228 983.4395,-216.8776 985.548,-207.6324 993,-195 1003.7298,-176.8112 1023.2706,-164.4863 1041.852,-156.3769"/>
<polygon fill="#191970" stroke="#191970" points="1043.1828,-159.6141 1051.1408,-152.6197 1040.558,-153.1249 1043.1828,-159.6141"/>
</g>
<!-- Node47&#45;&gt;Node15 -->
<g id="edge151" class="edge">
<title>Node47&#45;&gt;Node15</title>
<path fill="none" stroke="#191970" d="M1795.3735,-358.7184C1640.1765,-352.1701 1279.2701,-334.3973 1230,-309 1206.7324,-297.0062 1214.7162,-277.0081 1192,-264 1110.2047,-217.1611 1045.7912,-298.2966 983,-228 949.7622,-190.7893 966.4003,-126.1047 977.9891,-93.5024"/>
<polygon fill="#191970" stroke="#191970" points="981.4078,-94.3542 981.6462,-83.762 974.8545,-91.8936 981.4078,-94.3542"/>
</g>
<!-- Node47&#45;&gt;Node17 -->
<g id="edge133" class="edge">
<title>Node47&#45;&gt;Node17</title>
<path fill="none" stroke="#191970" d="M1936.8647,-347.1438C1941.639,-346.3619 1946.3837,-345.6371 1951,-345 2143.1726,-318.4767 2193.8044,-335.3557 2386,-309 2406.0686,-306.248 2427.9045,-302.3089 2447.2187,-298.4937"/>
<polygon fill="#191970" stroke="#191970" points="2447.9508,-301.9167 2457.0662,-296.5169 2446.5729,-295.0536 2447.9508,-301.9167"/>
</g>
<!-- Node47&#45;&gt;Node18 -->
<g id="edge141" class="edge">
<title>Node47&#45;&gt;Node18</title>
<path fill="none" stroke="#191970" d="M1795.2078,-359.1169C1681.0542,-354.3698 1462.028,-341.2631 1392,-309 1365.4409,-296.7638 1369.9939,-277.3951 1344,-264 1328.7032,-256.1173 1242.8756,-239.6388 1173.7553,-227.2332"/>
<polygon fill="#191970" stroke="#191970" points="1174.1487,-223.7481 1163.6888,-225.4339 1172.917,-230.6389 1174.1487,-223.7481"/>
</g>
<!-- Node47&#45;&gt;Node19 -->
<g id="edge148" class="edge">
<title>Node47&#45;&gt;Node19</title>
<path fill="none" stroke="#191970" d="M1795.186,-358.6907C1710.7454,-353.9137 1576.3155,-341.3353 1539,-309 1474.6208,-253.2128 1514.2675,-204.8397 1482,-126 1477.3413,-114.6173 1471.1175,-102.3702 1465.8195,-92.5702"/>
<polygon fill="#191970" stroke="#191970" points="1468.8226,-90.7682 1460.9224,-83.7086 1462.6959,-94.1539 1468.8226,-90.7682"/>
</g>
<!-- Node47&#45;&gt;Node20 -->
<g id="edge149" class="edge">
<title>Node47&#45;&gt;Node20</title>
<path fill="none" stroke="#191970" d="M1795.2028,-355.7468C1721.4004,-348.7102 1602.7989,-334.466 1503,-309 1447.4051,-294.8137 1436.638,-281.5139 1382,-264 1323.6844,-245.3073 1288.6762,-274.6468 1249,-228 1216.6484,-189.9647 1222.7265,-126.1208 1228.5667,-93.7029"/>
<polygon fill="#191970" stroke="#191970" points="1232.05,-94.1302 1230.5592,-83.6408 1225.1833,-92.7705 1232.05,-94.1302"/>
</g>
<!-- Node47&#45;&gt;Node25 -->
<g id="edge132" class="edge">
<title>Node47&#45;&gt;Node25</title>
<path fill="none" stroke="#191970" d="M1874.968,-345.3202C1886.2847,-325.4306 1906.8394,-290.9972 1928,-264 1954.179,-230.6002 1964.5422,-225.5471 1994,-195 2009.4903,-178.9369 2020.0055,-179.4224 2029,-159 2038.1879,-138.1386 2038.1646,-111.601 2036.6674,-93.6668"/>
<polygon fill="#191970" stroke="#191970" points="2040.1244,-93.0771 2035.5833,-83.5048 2033.1639,-93.8196 2040.1244,-93.0771"/>
</g>
<!-- Node47&#45;&gt;Node27 -->
<g id="edge142" class="edge">
<title>Node47&#45;&gt;Node27</title>
<path fill="none" stroke="#191970" d="M1811.7252,-345.4106C1772.2061,-333.6955 1718.5441,-317.7878 1676.9441,-305.4558"/>
<polygon fill="#191970" stroke="#191970" points="1677.7675,-302.0494 1667.1851,-302.5628 1675.7779,-308.7607 1677.7675,-302.0494"/>
</g>
<!-- Node47&#45;&gt;Node28 -->
<g id="edge130" class="edge">
<title>Node47&#45;&gt;Node28</title>
<path fill="none" stroke="#191970" d="M1936.8979,-347.3669C1941.6642,-346.5312 1946.398,-345.7334 1951,-345 2078.3884,-324.6977 2116.38,-349.0542 2239,-309 2278.1469,-296.2125 2281.5143,-278.6578 2320,-264 2370.2951,-244.8444 2429.4601,-231.648 2475.7139,-223.2768"/>
<polygon fill="#191970" stroke="#191970" points="2476.4423,-226.7023 2485.6784,-221.5115 2475.2212,-219.8096 2476.4423,-226.7023"/>
</g>
<!-- Node47&#45;&gt;Node29 -->
<g id="edge152" class="edge">
<title>Node47&#45;&gt;Node29</title>
<path fill="none" stroke="#191970" d="M1886.9559,-345.4689C1899.0834,-335.6499 1914.2267,-322.4239 1926,-309 1941.8494,-290.9286 1938.8035,-280.7945 1956,-264 2096.4149,-126.8675 2326.0192,-46.3319 2410.4916,-20.0668"/>
<polygon fill="#191970" stroke="#191970" points="2411.7523,-23.3412 2420.2869,-17.0634 2409.7002,-16.6487 2411.7523,-23.3412"/>
</g>
<!-- Node47&#45;&gt;Node30 -->
<g id="edge143" class="edge">
<title>Node47&#45;&gt;Node30</title>
<path fill="none" stroke="#191970" d="M1857.4393,-345.1962C1842.3246,-313.972 1814.9445,-244.4478 1842,-195 1851.4476,-177.7332 1869.2647,-165.3125 1885.8833,-156.9017"/>
<polygon fill="#191970" stroke="#191970" points="1887.3789,-160.0662 1894.9319,-152.6363 1884.3941,-153.7344 1887.3789,-160.0662"/>
</g>
<!-- Node47&#45;&gt;Node31 -->
<g id="edge144" class="edge">
<title>Node47&#45;&gt;Node31</title>
<path fill="none" stroke="#191970" d="M1894.0758,-345.3572C1911.8816,-335.0615 1935.3678,-321.3744 1956,-309 1988.6855,-289.3964 1995.2361,-281.6816 2029,-264 2056.7974,-249.4429 2089.493,-235.3256 2113.7301,-225.4033"/>
<polygon fill="#191970" stroke="#191970" points="2115.2794,-228.5519 2123.2315,-221.5508 2112.6491,-222.0649 2115.2794,-228.5519"/>
</g>
<!-- Node47&#45;&gt;Node32 -->
<g id="edge145" class="edge">
<title>Node47&#45;&gt;Node32</title>
<path fill="none" stroke="#191970" d="M1795.8086,-345.4294C1772.7815,-337.4619 1748.4055,-325.8144 1730,-309 1700.3571,-281.9196 1699.3564,-267.0449 1690,-228 1684.7786,-206.2106 1685.3666,-180.393 1686.7287,-162.872"/>
<polygon fill="#191970" stroke="#191970" points="1690.2353,-162.9645 1687.6823,-152.6819 1683.2657,-162.3122 1690.2353,-162.9645"/>
</g>
<!-- Node47&#45;&gt;Node33 -->
<g id="edge146" class="edge">
<title>Node47&#45;&gt;Node33</title>
<path fill="none" stroke="#191970" d="M1936.8818,-347.263C1941.652,-346.4523 1946.3911,-345.6886 1951,-345 2102.1621,-322.4161 2145.5256,-349.1411 2293,-309 2339.6355,-296.3063 2345.5963,-277.5165 2392,-264 2446.9451,-247.9955 2609.4681,-271.2027 2647,-228 2681.4017,-188.4004 2641.8782,-123.4073 2618.607,-91.845"/>
<polygon fill="#191970" stroke="#191970" points="2621.12,-89.368 2612.2773,-83.5321 2615.5507,-93.6086 2621.12,-89.368"/>
</g>
<!-- Node47&#45;&gt;Node34 -->
<g id="edge150" class="edge">
<title>Node47&#45;&gt;Node34</title>
<path fill="none" stroke="#191970" d="M1795.2955,-359.3152C1633.0121,-353.8285 1243.7573,-337.8078 1192,-309 1170.3292,-296.9382 1180.0151,-277.171 1159,-264 1083.9529,-216.9651 1041.3913,-269.2207 963,-228 867.9954,-178.0436 788.2655,-72.2306 758.5004,-29.2442"/>
<polygon fill="#191970" stroke="#191970" points="761.2961,-27.1315 752.7691,-20.8434 755.5136,-31.0766 761.2961,-27.1315"/>
</g>
<!-- Node47&#45;&gt;Node43 -->
<g id="edge134" class="edge">
<title>Node47&#45;&gt;Node43</title>
<path fill="none" stroke="#191970" d="M1936.8448,-346.9917C1941.6239,-346.2465 1946.3751,-345.5715 1951,-345 2244.3136,-308.7547 2321.3328,-342.2584 2615,-309 2626.7354,-307.6709 2639.0172,-305.9645 2651.1494,-304.0866"/>
<polygon fill="#191970" stroke="#191970" points="2651.964,-307.5011 2661.2899,-302.4733 2650.8642,-300.588 2651.964,-307.5011"/>
</g>
<!-- Node48 -->
<g id="node48" class="node">
<title>Node48</title>
<g id="a_node48"><a xlink:href="../../df/d7f/NullBField_8hpp.html" target="_top" xlink:title="Acts/MagneticField\l/NullBField.hpp">
<polygon fill="none" stroke="#000000" points="3216.5,-270.5 3216.5,-302.5 3327.5,-302.5 3327.5,-270.5 3216.5,-270.5"/>
<text text-anchor="start" x="3224.5" y="-289.5" font-family="FreeSans" font-size="10.00" fill="#000000">Acts/MagneticField</text>
<text text-anchor="middle" x="3272" y="-277.5" font-family="FreeSans" font-size="10.00" fill="#000000">/NullBField.hpp</text>
</a>
</g>
</g>
<!-- Node47&#45;&gt;Node48 -->
<g id="edge137" class="edge">
<title>Node47&#45;&gt;Node48</title>
<path fill="none" stroke="#191970" d="M1936.8342,-346.9029C1941.6159,-346.1792 1946.3706,-345.5332 1951,-345 2373.839,-296.3009 2482.8907,-330.1314 2908,-309 3012.1212,-303.8243 3132.883,-295.9988 3205.8078,-291.073"/>
<polygon fill="#191970" stroke="#191970" points="3206.472,-294.5361 3216.2124,-290.3679 3205.9986,-287.5521 3206.472,-294.5361"/>
</g>
<!-- Node48&#45;&gt;Node7 -->
<g id="edge138" class="edge">
<title>Node48&#45;&gt;Node7</title>
<path fill="none" stroke="#191970" d="M3246.494,-270.4042C3230.4145,-259.5548 3209.7834,-244.2902 3194,-228 3129.3931,-161.3187 3155.2413,-101.9477 3074,-57 3065.2547,-52.1616 2494.7716,-25.2293 2268.2513,-14.7103"/>
<polygon fill="#191970" stroke="#191970" points="2268.2054,-11.2045 2258.0539,-14.2371 2267.8809,-18.197 2268.2054,-11.2045"/>
</g>
<!-- Node48&#45;&gt;Node8 -->
<g id="edge139" class="edge">
<title>Node48&#45;&gt;Node8</title>
<path fill="none" stroke="#191970" d="M3327.6469,-280.8584C3400.4378,-272.7574 3531.5859,-255.6789 3641,-228 3710.1001,-210.5195 3787.3442,-181.6662 3835.8103,-162.3757"/>
<polygon fill="#191970" stroke="#191970" points="3837.1272,-165.6186 3845.1089,-158.6513 3834.5245,-159.1205 3837.1272,-165.6186"/>
</g>
<!-- Node48&#45;&gt;Node9 -->
<g id="edge140" class="edge">
<title>Node48&#45;&gt;Node9</title>
<path fill="none" stroke="#191970" d="M3273.5189,-270.2261C3274.3995,-260.7911 3275.5296,-248.6831 3276.5346,-237.915"/>
<polygon fill="#191970" stroke="#191970" points="3280.0395,-238.0241 3277.4841,-227.7421 3273.0698,-237.3736 3280.0395,-238.0241"/>
</g>
<!-- Node49&#45;&gt;Node2 -->
<g id="edge155" class="edge">
<title>Node49&#45;&gt;Node2</title>
<path fill="none" stroke="#191970" d="M2440.7482,-415.5985C2436.0966,-415.0502 2431.4832,-414.5131 2427,-414 2277.347,-396.8719 2238.5631,-402.8675 2090,-378 2088.7194,-377.7856 2087.4274,-377.5624 2086.1271,-377.3314"/>
<polygon fill="#191970" stroke="#191970" points="2086.517,-373.8432 2076.0408,-375.4243 2085.2164,-380.7213 2086.517,-373.8432"/>
</g>
<!-- Node49&#45;&gt;Node16 -->
<g id="edge156" class="edge">
<title>Node49&#45;&gt;Node16</title>
<path fill="none" stroke="#191970" d="M2512.7654,-414.3158C2512.9756,-397.0699 2516.1415,-362.3084 2537,-345 2594.279,-297.4699 2803.7114,-342.85 2870,-309 2904.8276,-291.2154 2932.4856,-253.5019 2946.9497,-230.5427"/>
<polygon fill="#191970" stroke="#191970" points="2950.1173,-232.0701 2952.3233,-221.7075 2944.1365,-228.4326 2950.1173,-232.0701"/>
</g>
<!-- Node50&#45;&gt;Node4 -->
<g id="edge161" class="edge">
<title>Node50&#45;&gt;Node4</title>
<path fill="none" stroke="#191970" d="M3721.8662,-351.1426C3723.7794,-324.6372 3727.0793,-252.3965 3712,-195 3708.9374,-183.3429 3703.1391,-171.2286 3697.7941,-161.5782"/>
<polygon fill="#191970" stroke="#191970" points="3700.7735,-159.7393 3692.7181,-152.8573 3694.7236,-163.2606 3700.7735,-159.7393"/>
</g>
<!-- Node50&#45;&gt;Node8 -->
<g id="edge162" class="edge">
<title>Node50&#45;&gt;Node8</title>
<path fill="none" stroke="#191970" d="M3737.3309,-351.325C3751.8704,-341.6971 3773.0869,-326.1903 3788,-309 3826.4088,-264.7262 3857.3074,-202.8177 3872.9183,-168.3209"/>
<polygon fill="#191970" stroke="#191970" points="3876.2204,-169.5091 3877.0869,-158.9498 3869.8246,-166.664 3876.2204,-169.5091"/>
</g>
<!-- Node50&#45;&gt;Node16 -->
<g id="edge159" class="edge">
<title>Node50&#45;&gt;Node16</title>
<path fill="none" stroke="#191970" d="M3682.5103,-351.4692C3672.0257,-349.0347 3660.628,-346.6585 3650,-345 3455.262,-314.6105 3400.0581,-353.2732 3208,-309 3124.7201,-289.8023 3032.4169,-248.0504 2986.7889,-225.9277"/>
<polygon fill="#191970" stroke="#191970" points="2988.3016,-222.7714 2977.7809,-221.5201 2985.225,-229.059 2988.3016,-222.7714"/>
</g>
<!-- Node50&#45;&gt;Node17 -->
<g id="edge160" class="edge">
<title>Node50&#45;&gt;Node17</title>
<path fill="none" stroke="#191970" d="M3684.0307,-351.4918C3673.1476,-348.9315 3661.1645,-346.4848 3650,-345 3210.4701,-286.5457 3094.5047,-349.9522 2653,-309 2625.5699,-306.4557 2595.5095,-302.2335 2569.5491,-298.1297"/>
<polygon fill="#191970" stroke="#191970" points="2569.872,-294.6367 2559.4434,-296.5059 2568.7614,-301.5481 2569.872,-294.6367"/>
</g>
<!-- Node50&#45;&gt;Node28 -->
<g id="edge158" class="edge">
<title>Node50&#45;&gt;Node28</title>
<path fill="none" stroke="#191970" d="M3682.9005,-351.4194C3672.3146,-348.9545 3660.7685,-346.5755 3650,-345 3395.3245,-307.7402 3327.3431,-341.3694 3072,-309 2966.9352,-295.6811 2942.0713,-283.6259 2838,-264 2762.9322,-249.8436 2676.6281,-233.9427 2619.049,-223.3875"/>
<polygon fill="#191970" stroke="#191970" points="2619.464,-219.9054 2608.9969,-221.5456 2618.2023,-226.7907 2619.464,-219.9054"/>
</g>
</g>
</svg>
