<?xml version="1.0" encoding="UTF-8" standalone="no"?>
<!DOCTYPE svg PUBLIC "-//W3C//DTD SVG 1.1//EN"
 "http://www.w3.org/Graphics/SVG/1.1/DTD/svg11.dtd">
<!-- Generated by graphviz version 2.40.1 (20161225.0304)
 -->
<!-- Title: analysis/blob/master/TPC/DAQ/macros/TPC_Channel_QA.C Pages: 1 -->
<svg width="1263pt" height="98pt"
 viewBox="0.00 0.00 1262.50 98.00" xmlns="http://www.w3.org/2000/svg" xmlns:xlink="http://www.w3.org/1999/xlink">
<g id="graph0" class="graph" transform="scale(1 1) rotate(0) translate(4 94)">
<title>analysis/blob/master/TPC/DAQ/macros/TPC_Channel_QA.C</title>
<!-- Node1 -->
<g id="node1" class="node">
<title>Node1</title>
<polygon fill="#bfbfbf" stroke="#000000" points="405.5,-57.5 405.5,-89.5 610.5,-89.5 610.5,-57.5 405.5,-57.5"/>
<text text-anchor="start" x="413.5" y="-76.5" font-family="FreeSans" font-size="10.00" fill="#000000">analysis/blob/master</text>
<text text-anchor="middle" x="508" y="-64.5" font-family="FreeSans" font-size="10.00" fill="#000000">/TPC/DAQ/macros/TPC_Channel_QA.C</text>
</g>
<!-- Node2 -->
<g id="node2" class="node">
<title>Node2</title>
<polygon fill="none" stroke="#bfbfbf" points="0,-.5 0,-20.5 50,-20.5 50,-.5 0,-.5"/>
<text text-anchor="middle" x="25" y="-7.5" font-family="FreeSans" font-size="10.00" fill="#000000">cstdlib</text>
</g>
<!-- Node1&#45;&gt;Node2 -->
<g id="edge1" class="edge">
<title>Node1&#45;&gt;Node2</title>
<path fill="none" stroke="#191970" d="M405.4936,-66.8829C316.3375,-59.8921 183.7064,-46.5213 60.1345,-20.925"/>
<polygon fill="#191970" stroke="#191970" points="60.6223,-17.4511 50.116,-18.8185 59.1818,-24.3013 60.6223,-17.4511"/>
</g>
<!-- Node3 -->
<g id="node3" class="node">
<title>Node3</title>
<polygon fill="none" stroke="#bfbfbf" points="68,-.5 68,-20.5 128,-20.5 128,-.5 68,-.5"/>
<text text-anchor="middle" x="98" y="-7.5" font-family="FreeSans" font-size="10.00" fill="#000000">iostream</text>
</g>
<!-- Node1&#45;&gt;Node3 -->
<g id="edge2" class="edge">
<title>Node1&#45;&gt;Node3</title>
<path fill="none" stroke="#191970" d="M405.4616,-62.4116C333.1323,-53.7883 233.8706,-40.3446 138.0099,-21.0194"/>
<polygon fill="#191970" stroke="#191970" points="138.6444,-17.5769 128.1466,-19.0075 137.2453,-24.4356 138.6444,-17.5769"/>
</g>
<!-- Node4 -->
<g id="node4" class="node">
<title>Node4</title>
<polygon fill="none" stroke="#bfbfbf" points="146.5,-.5 146.5,-20.5 185.5,-20.5 185.5,-.5 146.5,-.5"/>
<text text-anchor="middle" x="166" y="-7.5" font-family="FreeSans" font-size="10.00" fill="#000000">map</text>
</g>
<!-- Node1&#45;&gt;Node4 -->
<g id="edge3" class="edge">
<title>Node1&#45;&gt;Node4</title>
<path fill="none" stroke="#191970" d="M405.4689,-61.4504C346.2498,-53.2903 270.3759,-40.7925 195.7701,-21.1301"/>
<polygon fill="#191970" stroke="#191970" points="196.2958,-17.6474 185.7305,-18.4381 194.4828,-24.4086 196.2958,-17.6474"/>
</g>
<!-- Node5 -->
<g id="node5" class="node">
<title>Node5</title>
<polygon fill="none" stroke="#bfbfbf" points="203.5,-.5 203.5,-20.5 248.5,-20.5 248.5,-.5 203.5,-.5"/>
<text text-anchor="middle" x="226" y="-7.5" font-family="FreeSans" font-size="10.00" fill="#000000">string</text>
</g>
<!-- Node1&#45;&gt;Node5 -->
<g id="edge4" class="edge">
<title>Node1&#45;&gt;Node5</title>
<path fill="none" stroke="#191970" d="M418.5125,-57.4982C372.8637,-48.6912 316.3662,-36.8065 258.3004,-21.1516"/>
<polygon fill="#191970" stroke="#191970" points="259.1585,-17.7579 248.5898,-18.5019 257.3158,-24.511 259.1585,-17.7579"/>
</g>
<!-- Node6 -->
<g id="node6" class="node">
<title>Node6</title>
<polygon fill="none" stroke="#bfbfbf" points="266.5,-.5 266.5,-20.5 315.5,-20.5 315.5,-.5 266.5,-.5"/>
<text text-anchor="middle" x="291" y="-7.5" font-family="FreeSans" font-size="10.00" fill="#000000">vector</text>
</g>
<!-- Node1&#45;&gt;Node6 -->
<g id="edge5" class="edge">
<title>Node1&#45;&gt;Node6</title>
<path fill="none" stroke="#191970" d="M449.8596,-57.3942C415.9265,-47.8824 372.0706,-35.3989 325.5024,-21.4055"/>
<polygon fill="#191970" stroke="#191970" points="326.426,-18.0284 315.8413,-18.4923 324.4051,-24.7303 326.426,-18.0284"/>
</g>
<!-- Node7 -->
<g id="node7" class="node">
<title>Node7</title>
<polygon fill="none" stroke="#bfbfbf" points="333.5,-.5 333.5,-20.5 394.5,-20.5 394.5,-.5 333.5,-.5"/>
<text text-anchor="middle" x="364" y="-7.5" font-family="FreeSans" font-size="10.00" fill="#000000">TChain.h</text>
</g>
<!-- Node1&#45;&gt;Node7 -->
<g id="edge6" class="edge">
<title>Node1&#45;&gt;Node7</title>
<path fill="none" stroke="#191970" d="M471.2901,-57.4394C448.2078,-47.3409 418.6966,-34.4298 396.4695,-24.7054"/>
<polygon fill="#191970" stroke="#191970" points="397.6893,-21.4188 387.1249,-20.6171 394.8835,-27.8319 397.6893,-21.4188"/>
</g>
<!-- Node8 -->
<g id="node8" class="node">
<title>Node8</title>
<polygon fill="none" stroke="#bfbfbf" points="413,-.5 413,-20.5 463,-20.5 463,-.5 413,-.5"/>
<text text-anchor="middle" x="438" y="-7.5" font-family="FreeSans" font-size="10.00" fill="#000000">TFile.h</text>
</g>
<!-- Node1&#45;&gt;Node8 -->
<g id="edge7" class="edge">
<title>Node1&#45;&gt;Node8</title>
<path fill="none" stroke="#191970" d="M489.9733,-57.2759C479.8726,-48.1854 467.2836,-36.8552 457.0254,-27.6229"/>
<polygon fill="#191970" stroke="#191970" points="459.1647,-24.8394 449.3903,-20.7513 454.4819,-30.0425 459.1647,-24.8394"/>
</g>
<!-- Node9 -->
<g id="node9" class="node">
<title>Node9</title>
<polygon fill="none" stroke="#bfbfbf" points="481.5,-.5 481.5,-20.5 534.5,-20.5 534.5,-.5 481.5,-.5"/>
<text text-anchor="middle" x="508" y="-7.5" font-family="FreeSans" font-size="10.00" fill="#000000">TTree.h</text>
</g>
<!-- Node1&#45;&gt;Node9 -->
<g id="edge8" class="edge">
<title>Node1&#45;&gt;Node9</title>
<path fill="none" stroke="#191970" d="M508,-57.2759C508,-49.2654 508,-39.5159 508,-30.9952"/>
<polygon fill="#191970" stroke="#191970" points="511.5001,-30.7512 508,-20.7513 504.5001,-30.7513 511.5001,-30.7512"/>
</g>
<!-- Node10 -->
<g id="node10" class="node">
<title>Node10</title>
<polygon fill="none" stroke="#bfbfbf" points="552.5,-.5 552.5,-20.5 615.5,-20.5 615.5,-.5 552.5,-.5"/>
<text text-anchor="middle" x="584" y="-7.5" font-family="FreeSans" font-size="10.00" fill="#000000">TString.h</text>
</g>
<!-- Node1&#45;&gt;Node10 -->
<g id="edge9" class="edge">
<title>Node1&#45;&gt;Node10</title>
<path fill="none" stroke="#191970" d="M527.5719,-57.2759C538.6468,-48.0954 552.4773,-36.6307 563.6739,-27.3492"/>
<polygon fill="#191970" stroke="#191970" points="566.1682,-29.8278 571.6334,-20.7513 561.7009,-24.4386 566.1682,-29.8278"/>
</g>
<!-- Node11 -->
<g id="node11" class="node">
<title>Node11</title>
<polygon fill="none" stroke="#bfbfbf" points="634,-.5 634,-20.5 714,-20.5 714,-.5 634,-.5"/>
<text text-anchor="middle" x="674" y="-7.5" font-family="FreeSans" font-size="10.00" fill="#000000">TObjString.h</text>
</g>
<!-- Node1&#45;&gt;Node11 -->
<g id="edge10" class="edge">
<title>Node1&#45;&gt;Node11</title>
<path fill="none" stroke="#191970" d="M550.3183,-57.4394C577.4044,-47.1598 612.1698,-33.9657 637.9405,-24.1852"/>
<polygon fill="#191970" stroke="#191970" points="639.2348,-27.4377 647.3422,-20.6171 636.7509,-20.8932 639.2348,-27.4377"/>
</g>
<!-- Node12 -->
<g id="node12" class="node">
<title>Node12</title>
<polygon fill="none" stroke="#bfbfbf" points="732,-.5 732,-20.5 802,-20.5 802,-.5 732,-.5"/>
<text text-anchor="middle" x="767" y="-7.5" font-family="FreeSans" font-size="10.00" fill="#000000">TSystem.h</text>
</g>
<!-- Node1&#45;&gt;Node12 -->
<g id="edge11" class="edge">
<title>Node1&#45;&gt;Node12</title>
<path fill="none" stroke="#191970" d="M574.0268,-57.4394C620.3119,-46.1809 680.9692,-31.4264 721.8209,-21.4895"/>
<polygon fill="#191970" stroke="#191970" points="722.87,-24.8365 731.7594,-19.072 721.2155,-18.0348 722.87,-24.8365"/>
</g>
<!-- Node13 -->
<g id="node13" class="node">
<title>Node13</title>
<polygon fill="none" stroke="#bfbfbf" points="820,-.5 820,-20.5 880,-20.5 880,-.5 820,-.5"/>
<text text-anchor="middle" x="850" y="-7.5" font-family="FreeSans" font-size="10.00" fill="#000000">TROOT.h</text>
</g>
<!-- Node1&#45;&gt;Node13 -->
<g id="edge12" class="edge">
<title>Node1&#45;&gt;Node13</title>
<path fill="none" stroke="#191970" d="M610.8401,-58.0767C667.059,-49.0748 738.078,-36.7803 809.7216,-21.1427"/>
<polygon fill="#191970" stroke="#191970" points="810.8212,-24.4844 819.8335,-18.9139 809.3145,-17.6485 810.8212,-24.4844"/>
</g>
<!-- Node14 -->
<g id="node14" class="node">
<title>Node14</title>
<polygon fill="none" stroke="#bfbfbf" points="898,-.5 898,-20.5 986,-20.5 986,-.5 898,-.5"/>
<text text-anchor="middle" x="942" y="-7.5" font-family="FreeSans" font-size="10.00" fill="#000000">TTreeReader.h</text>
</g>
<!-- Node1&#45;&gt;Node14 -->
<g id="edge13" class="edge">
<title>Node1&#45;&gt;Node14</title>
<path fill="none" stroke="#191970" d="M610.5288,-61.0283C684.8879,-51.5946 788.0935,-37.704 887.8375,-21.1252"/>
<polygon fill="#191970" stroke="#191970" points="888.5039,-24.5625 897.7892,-19.4602 887.3487,-17.6585 888.5039,-24.5625"/>
</g>
<!-- Node15 -->
<g id="node15" class="node">
<title>Node15</title>
<polygon fill="none" stroke="#bfbfbf" points="1004.5,-.5 1004.5,-20.5 1121.5,-20.5 1121.5,-.5 1004.5,-.5"/>
<text text-anchor="middle" x="1063" y="-7.5" font-family="FreeSans" font-size="10.00" fill="#000000">TTreeReaderValue.h</text>
</g>
<!-- Node1&#45;&gt;Node15 -->
<g id="edge14" class="edge">
<title>Node1&#45;&gt;Node15</title>
<path fill="none" stroke="#191970" d="M610.7717,-63.8009C707.1332,-54.3884 855.4711,-39.0845 994.4309,-21.0249"/>
<polygon fill="#191970" stroke="#191970" points="994.9567,-24.4861 1004.419,-19.7199 994.0498,-17.545 994.9567,-24.4861"/>
</g>
<!-- Node16 -->
<g id="node16" class="node">
<title>Node16</title>
<polygon fill="none" stroke="#bfbfbf" points="1139.5,-.5 1139.5,-20.5 1254.5,-20.5 1254.5,-.5 1139.5,-.5"/>
<text text-anchor="middle" x="1197" y="-7.5" font-family="FreeSans" font-size="10.00" fill="#000000">TTreeReaderArray.h</text>
</g>
<!-- Node1&#45;&gt;Node16 -->
<g id="edge15" class="edge">
<title>Node1&#45;&gt;Node16</title>
<path fill="none" stroke="#191970" d="M610.7618,-67.17C732.2866,-59.1562 940.8708,-43.7465 1129.3452,-21.1336"/>
<polygon fill="#191970" stroke="#191970" points="1129.9346,-24.5879 1139.4422,-19.9129 1129.0944,-17.6385 1129.9346,-24.5879"/>
</g>
</g>
</svg>
