<?xml version="1.0" encoding="UTF-8" standalone="no"?>
<!DOCTYPE svg PUBLIC "-//W3C//DTD SVG 1.1//EN"
 "http://www.w3.org/Graphics/SVG/1.1/DTD/svg11.dtd">
<!-- Generated by graphviz version 2.40.1 (20161225.0304)
 -->
<!-- Title: acts/blob/sPHENIX/Core/include/Acts/Material/detail/AverageMaterials.hpp Pages: 1 -->
<svg width="387pt" height="281pt"
 viewBox="0.00 0.00 387.00 281.00" xmlns="http://www.w3.org/2000/svg" xmlns:xlink="http://www.w3.org/1999/xlink">
<g id="graph0" class="graph" transform="scale(1 1) rotate(0) translate(4 277)">
<title>acts/blob/sPHENIX/Core/include/Acts/Material/detail/AverageMaterials.hpp</title>
<!-- Node1 -->
<g id="node1" class="node">
<title>Node1</title>
<polygon fill="#bfbfbf" stroke="#000000" points="211.5,-228.5 211.5,-272.5 374.5,-272.5 374.5,-228.5 211.5,-228.5"/>
<text text-anchor="start" x="219.5" y="-259.5" font-family="FreeSans" font-size="10.00" fill="#000000">acts/blob/sPHENIX/Core</text>
<text text-anchor="start" x="219.5" y="-247.5" font-family="FreeSans" font-size="10.00" fill="#000000">/include/Acts/Material</text>
<text text-anchor="middle" x="293" y="-235.5" font-family="FreeSans" font-size="10.00" fill="#000000">/detail/AverageMaterials.hpp</text>
</g>
<!-- Node2 -->
<g id="node2" class="node">
<title>Node2</title>
<g id="a_node2"><a xlink:href="../../d0/dd1/MaterialSlab_8hpp.html" target="_top" xlink:title="Acts/Material/MaterialSlab.hpp">
<polygon fill="none" stroke="#000000" points="207,-171.5 207,-191.5 379,-191.5 379,-171.5 207,-171.5"/>
<text text-anchor="middle" x="293" y="-178.5" font-family="FreeSans" font-size="10.00" fill="#000000">Acts/Material/MaterialSlab.hpp</text>
</a>
</g>
</g>
<!-- Node1&#45;&gt;Node2 -->
<g id="edge1" class="edge">
<title>Node1&#45;&gt;Node2</title>
<path fill="none" stroke="#191970" d="M293,-228.2882C293,-219.8377 293,-210.2557 293,-201.9736"/>
<polygon fill="#191970" stroke="#191970" points="296.5001,-201.7136 293,-191.7137 289.5001,-201.7137 296.5001,-201.7136"/>
</g>
<!-- Node3 -->
<g id="node3" class="node">
<title>Node3</title>
<g id="a_node3"><a xlink:href="../../d0/d70/Material_8hpp.html" target="_top" xlink:title="Acts/Material/Material.hpp">
<polygon fill="none" stroke="#000000" points="115,-114.5 115,-134.5 265,-134.5 265,-114.5 115,-114.5"/>
<text text-anchor="middle" x="190" y="-121.5" font-family="FreeSans" font-size="10.00" fill="#000000">Acts/Material/Material.hpp</text>
</a>
</g>
</g>
<!-- Node2&#45;&gt;Node3 -->
<g id="edge2" class="edge">
<title>Node2&#45;&gt;Node3</title>
<path fill="none" stroke="#191970" d="M274.5857,-171.3095C258.6206,-162.4745 235.2991,-149.5684 217.1857,-139.5445"/>
<polygon fill="#191970" stroke="#191970" points="218.6992,-136.3819 208.2549,-134.6022 215.3098,-142.5066 218.6992,-136.3819"/>
</g>
<!-- Node6 -->
<g id="node6" class="node">
<title>Node6</title>
<polygon fill="none" stroke="#bfbfbf" points="259,-57.5 259,-77.5 307,-77.5 307,-57.5 259,-57.5"/>
<text text-anchor="middle" x="283" y="-64.5" font-family="FreeSans" font-size="10.00" fill="#000000">iosfwd</text>
</g>
<!-- Node2&#45;&gt;Node6 -->
<g id="edge7" class="edge">
<title>Node2&#45;&gt;Node6</title>
<path fill="none" stroke="#191970" d="M292.1126,-171.3833C290.4711,-152.6703 286.9322,-112.3266 284.7795,-87.7866"/>
<polygon fill="#191970" stroke="#191970" points="288.2604,-87.4138 283.8998,-77.7579 281.2871,-88.0256 288.2604,-87.4138"/>
</g>
<!-- Node8 -->
<g id="node8" class="node">
<title>Node8</title>
<polygon fill="none" stroke="#bfbfbf" points="321.5,-114.5 321.5,-134.5 370.5,-134.5 370.5,-114.5 321.5,-114.5"/>
<text text-anchor="middle" x="346" y="-121.5" font-family="FreeSans" font-size="10.00" fill="#000000">vector</text>
</g>
<!-- Node2&#45;&gt;Node8 -->
<g id="edge8" class="edge">
<title>Node2&#45;&gt;Node8</title>
<path fill="none" stroke="#191970" d="M302.4753,-171.3095C310.0121,-163.204 320.7349,-151.672 329.6513,-142.0826"/>
<polygon fill="#191970" stroke="#191970" points="332.3604,-144.3089 336.6067,-134.6022 327.234,-139.5423 332.3604,-144.3089"/>
</g>
<!-- Node4 -->
<g id="node4" class="node">
<title>Node4</title>
<g id="a_node4"><a xlink:href="../../d6/d1d/Definitions_8hpp.html" target="_top" xlink:title="Acts/Utilities/Definitions.hpp">
<polygon fill="none" stroke="#000000" points="0,-57.5 0,-77.5 160,-77.5 160,-57.5 0,-57.5"/>
<text text-anchor="middle" x="80" y="-64.5" font-family="FreeSans" font-size="10.00" fill="#000000">Acts/Utilities/Definitions.hpp</text>
</a>
</g>
</g>
<!-- Node3&#45;&gt;Node4 -->
<g id="edge3" class="edge">
<title>Node3&#45;&gt;Node4</title>
<path fill="none" stroke="#191970" d="M170.5874,-114.4408C153.4141,-105.5419 128.1286,-92.4394 108.6331,-82.3371"/>
<polygon fill="#191970" stroke="#191970" points="110.0776,-79.1437 99.5885,-77.6504 106.857,-85.3589 110.0776,-79.1437"/>
</g>
<!-- Node3&#45;&gt;Node6 -->
<g id="edge5" class="edge">
<title>Node3&#45;&gt;Node6</title>
<path fill="none" stroke="#191970" d="M206.6265,-114.3095C220.7771,-105.6366 241.3284,-93.0407 257.5487,-83.0992"/>
<polygon fill="#191970" stroke="#191970" points="259.8204,-85.812 266.5174,-77.6022 256.1624,-79.8438 259.8204,-85.812"/>
</g>
<!-- Node7 -->
<g id="node7" class="node">
<title>Node7</title>
<polygon fill="none" stroke="#bfbfbf" points="178,-57.5 178,-77.5 222,-77.5 222,-57.5 178,-57.5"/>
<text text-anchor="middle" x="200" y="-64.5" font-family="FreeSans" font-size="10.00" fill="#000000">limits</text>
</g>
<!-- Node3&#45;&gt;Node7 -->
<g id="edge6" class="edge">
<title>Node3&#45;&gt;Node7</title>
<path fill="none" stroke="#191970" d="M191.7878,-114.3095C193.0818,-106.9335 194.8737,-96.72 196.4535,-87.715"/>
<polygon fill="#191970" stroke="#191970" points="199.947,-88.0566 198.2277,-77.6022 193.0523,-86.847 199.947,-88.0566"/>
</g>
<!-- Node5 -->
<g id="node5" class="node">
<title>Node5</title>
<polygon fill="none" stroke="#bfbfbf" points="40,-.5 40,-20.5 120,-20.5 120,-.5 40,-.5"/>
<text text-anchor="middle" x="80" y="-7.5" font-family="FreeSans" font-size="10.00" fill="#000000">Eigen/Dense</text>
</g>
<!-- Node4&#45;&gt;Node5 -->
<g id="edge4" class="edge">
<title>Node4&#45;&gt;Node5</title>
<path fill="none" stroke="#191970" d="M80,-57.3095C80,-49.9335 80,-39.72 80,-30.715"/>
<polygon fill="#191970" stroke="#191970" points="83.5001,-30.6022 80,-20.6022 76.5001,-30.6023 83.5001,-30.6022"/>
</g>
</g>
</svg>
