<?xml version="1.0" encoding="UTF-8" standalone="no"?>
<!DOCTYPE svg PUBLIC "-//W3C//DTD SVG 1.1//EN"
 "http://www.w3.org/Graphics/SVG/1.1/DTD/svg11.dtd">
<!-- Generated by graphviz version 2.40.1 (20161225.0304)
 -->
<!-- Title: pythia8.runPythia8 Pages: 1 -->
<svg width="1219pt" height="154pt"
 viewBox="0.00 0.00 1219.00 153.57" xmlns="http://www.w3.org/2000/svg" xmlns:xlink="http://www.w3.org/1999/xlink">
<g id="graph0" class="graph" transform="scale(1 1) rotate(0) translate(4 149.5739)">
<title>pythia8.runPythia8</title>
<!-- Node1 -->
<g id="node1" class="node">
<title>Node1</title>
<polygon fill="#bfbfbf" stroke="#000000" points="0,-42.0739 0,-62.0739 112,-62.0739 112,-42.0739 0,-42.0739"/>
<text text-anchor="middle" x="56" y="-49.0739" font-family="FreeSans" font-size="10.00" fill="#000000">pythia8.runPythia8</text>
</g>
<!-- Node2 -->
<g id="node2" class="node">
<title>Node2</title>
<g id="a_node2"><a xlink:href="../../dd/d50/namespaceacts_1_1examples_1_1simulation.html#aa2e3f67c427bae9737164e831389d3e4" target="_top" xlink:title="acts.examples.simulation.add\lPythia8">
<polygon fill="none" stroke="#000000" points="148,-36.0739 148,-68.0739 315,-68.0739 315,-36.0739 148,-36.0739"/>
<text text-anchor="start" x="156" y="-55.0739" font-family="FreeSans" font-size="10.00" fill="#000000">acts.examples.simulation.add</text>
<text text-anchor="middle" x="231.5" y="-43.0739" font-family="FreeSans" font-size="10.00" fill="#000000">Pythia8</text>
</a>
</g>
</g>
<!-- Node1&#45;&gt;Node2 -->
<g id="edge1" class="edge">
<title>Node1&#45;&gt;Node2</title>
<path fill="none" stroke="#191970" d="M112.0118,-52.0739C120.2314,-52.0739 128.8803,-52.0739 137.6107,-52.0739"/>
<polygon fill="#191970" stroke="#191970" points="137.876,-55.574 147.876,-52.0739 137.876,-48.574 137.876,-55.574"/>
</g>
<!-- Node3 -->
<g id="node3" class="node">
<title>Node3</title>
<g id="a_node3"><a xlink:href="../../dd/d50/namespaceacts_1_1examples_1_1simulation.html#ab347658f9188787ce153aa545e64fda0" target="_top" xlink:title="acts.examples.simulation.add\lParticleSelection">
<polygon fill="none" stroke="#000000" points="351,-36.0739 351,-68.0739 518,-68.0739 518,-36.0739 351,-36.0739"/>
<text text-anchor="start" x="359" y="-55.0739" font-family="FreeSans" font-size="10.00" fill="#000000">acts.examples.simulation.add</text>
<text text-anchor="middle" x="434.5" y="-43.0739" font-family="FreeSans" font-size="10.00" fill="#000000">ParticleSelection</text>
</a>
</g>
</g>
<!-- Node2&#45;&gt;Node3 -->
<g id="edge2" class="edge">
<title>Node2&#45;&gt;Node3</title>
<path fill="none" stroke="#191970" d="M315.2399,-52.0739C323.7178,-52.0739 332.3663,-52.0739 340.9388,-52.0739"/>
<polygon fill="#191970" stroke="#191970" points="340.9526,-55.574 350.9526,-52.0739 340.9525,-48.574 340.9526,-55.574"/>
</g>
<!-- Node6 -->
<g id="node6" class="node">
<title>Node6</title>
<g id="a_node6"><a xlink:href="../../d0/d5f/namespaceacts_1_1examples.html#a6cbad84850aed18924283d82614e48d8" target="_top" xlink:title="acts.examples.defaultLogging">
<polygon fill="none" stroke="#000000" points="963.5,-16.0739 963.5,-36.0739 1131.5,-36.0739 1131.5,-16.0739 963.5,-16.0739"/>
<text text-anchor="middle" x="1047.5" y="-23.0739" font-family="FreeSans" font-size="10.00" fill="#000000">acts.examples.defaultLogging</text>
</a>
</g>
</g>
<!-- Node2&#45;&gt;Node6 -->
<g id="edge14" class="edge">
<title>Node2&#45;&gt;Node6</title>
<path fill="none" stroke="#191970" d="M296.6137,-36.0512C314.1744,-32.2394 333.2323,-28.5614 351,-26.0739 603.2824,9.2449 669.663,2.2959 924,-12.0739 935.9502,-12.7491 948.5198,-13.789 960.8794,-15.0038"/>
<polygon fill="#191970" stroke="#191970" points="960.8891,-18.523 971.1939,-16.0612 961.603,-11.5595 960.8891,-18.523"/>
</g>
<!-- Node9 -->
<g id="node9" class="node">
<title>Node9</title>
<g id="a_node9"><a xlink:href="../../d0/d5f/namespaceacts_1_1examples.html#a92bb40f73eed1970345c5385da633683" target="_top" xlink:title="acts.examples.defaultKWArgs">
<polygon fill="none" stroke="#000000" points="757,-125.0739 757,-145.0739 924,-145.0739 924,-125.0739 757,-125.0739"/>
<text text-anchor="middle" x="840.5" y="-132.0739" font-family="FreeSans" font-size="10.00" fill="#000000">acts.examples.defaultKWArgs</text>
</a>
</g>
</g>
<!-- Node2&#45;&gt;Node9 -->
<g id="edge13" class="edge">
<title>Node2&#45;&gt;Node9</title>
<path fill="none" stroke="#191970" d="M301.481,-68.1282C317.6978,-71.6179 334.917,-75.1394 351,-78.0739 440.7208,-94.4447 463.4575,-97.1249 554,-108.0739 618.0854,-115.8236 690.4639,-122.6284 746.439,-127.4681"/>
<polygon fill="#191970" stroke="#191970" points="746.4313,-130.9802 756.6941,-128.3487 747.0303,-124.0059 746.4313,-130.9802"/>
</g>
<!-- Node4 -->
<g id="node4" class="node">
<title>Node4</title>
<g id="a_node4"><a xlink:href="../../dd/d50/namespaceacts_1_1examples_1_1simulation.html#aab5d744cbd64da407339e7b2f681c077" target="_top" xlink:title="acts.examples.simulation.add\lFatras">
<polygon fill="none" stroke="#000000" points="554,-36.0739 554,-68.0739 721,-68.0739 721,-36.0739 554,-36.0739"/>
<text text-anchor="start" x="562" y="-55.0739" font-family="FreeSans" font-size="10.00" fill="#000000">acts.examples.simulation.add</text>
<text text-anchor="middle" x="637.5" y="-43.0739" font-family="FreeSans" font-size="10.00" fill="#000000">Fatras</text>
</a>
</g>
</g>
<!-- Node3&#45;&gt;Node4 -->
<g id="edge3" class="edge">
<title>Node3&#45;&gt;Node4</title>
<path fill="none" stroke="#191970" d="M518.2399,-45.4166C526.7178,-45.3273 535.3663,-45.3026 543.9388,-45.3423"/>
<polygon fill="#191970" stroke="#191970" points="543.9261,-48.8422 553.9526,-45.4187 543.9796,-41.8424 543.9261,-48.8422"/>
</g>
<!-- Node3&#45;&gt;Node6 -->
<g id="edge12" class="edge">
<title>Node3&#45;&gt;Node6</title>
<path fill="none" stroke="#191970" d="M496.1099,-36.032C514.5907,-31.9369 535.0008,-28.1169 554,-26.0739 692.3607,-11.1962 853.8062,-15.1971 953.3479,-20.1101"/>
<polygon fill="#191970" stroke="#191970" points="953.2168,-23.6078 963.3812,-20.6188 953.5713,-16.6168 953.2168,-23.6078"/>
</g>
<!-- Node3&#45;&gt;Node9 -->
<g id="edge11" class="edge">
<title>Node3&#45;&gt;Node9</title>
<path fill="none" stroke="#191970" d="M507.1292,-68.0931C522.5892,-71.4421 538.8262,-74.9141 554,-78.0739 631.2813,-94.1674 720.502,-111.763 778.5728,-123.0844"/>
<polygon fill="#191970" stroke="#191970" points="778.2019,-126.5778 788.6866,-125.0541 779.5401,-119.7069 778.2019,-126.5778"/>
</g>
<!-- Node4&#45;&gt;Node3 -->
<g id="edge4" class="edge">
<title>Node4&#45;&gt;Node3</title>
<path fill="none" stroke="#191970" d="M553.9526,-58.7292C545.4773,-58.8195 536.8295,-58.8453 528.2558,-58.8065"/>
<polygon fill="#191970" stroke="#191970" points="528.2659,-55.3065 518.2399,-58.7312 528.2133,-62.3063 528.2659,-55.3065"/>
</g>
<!-- Node5 -->
<g id="node5" class="node">
<title>Node5</title>
<g id="a_node5"><a xlink:href="../../dd/d50/namespaceacts_1_1examples_1_1simulation.html#a4c9e00d60cf5f2686d2509abc5aa3f7a" target="_top" xlink:title="acts.examples.simulation.add\lSimWriters">
<polygon fill="none" stroke="#000000" points="757,-74.0739 757,-106.0739 924,-106.0739 924,-74.0739 757,-74.0739"/>
<text text-anchor="start" x="765" y="-93.0739" font-family="FreeSans" font-size="10.00" fill="#000000">acts.examples.simulation.add</text>
<text text-anchor="middle" x="840.5" y="-81.0739" font-family="FreeSans" font-size="10.00" fill="#000000">SimWriters</text>
</a>
</g>
</g>
<!-- Node4&#45;&gt;Node5 -->
<g id="edge5" class="edge">
<title>Node4&#45;&gt;Node5</title>
<path fill="none" stroke="#191970" d="M721.2399,-67.7494C729.7178,-69.3364 738.3663,-70.9553 746.9388,-72.56"/>
<polygon fill="#191970" stroke="#191970" points="746.4793,-76.0347 756.9526,-74.4345 747.7673,-69.1542 746.4793,-76.0347"/>
</g>
<!-- Node4&#45;&gt;Node6 -->
<g id="edge10" class="edge">
<title>Node4&#45;&gt;Node6</title>
<path fill="none" stroke="#191970" d="M721.459,-46.7497C788.7831,-42.4804 883.2426,-36.4903 953.1689,-32.0559"/>
<polygon fill="#191970" stroke="#191970" points="953.5434,-35.5393 963.3018,-31.4133 953.1003,-28.5533 953.5434,-35.5393"/>
</g>
<!-- Node4&#45;&gt;Node9 -->
<g id="edge9" class="edge">
<title>Node4&#45;&gt;Node9</title>
<path fill="none" stroke="#191970" d="M690.1786,-68.0968C700.74,-72.2739 711.5009,-77.2667 721,-83.0739 739.5187,-94.3952 737.7762,-105.9963 757,-116.0739 760.9585,-118.1491 765.1387,-119.9989 769.4341,-121.6476"/>
<polygon fill="#191970" stroke="#191970" points="768.3851,-124.9881 778.9799,-124.9452 770.6708,-118.3718 768.3851,-124.9881"/>
</g>
<!-- Node5&#45;&gt;Node6 -->
<g id="edge6" class="edge">
<title>Node5&#45;&gt;Node6</title>
<path fill="none" stroke="#191970" d="M892.4677,-74.0067C927.3067,-63.2351 972.6045,-49.23 1005.2294,-39.1431"/>
<polygon fill="#191970" stroke="#191970" points="1006.4019,-42.4441 1014.9219,-36.1464 1004.3342,-35.7565 1006.4019,-42.4441"/>
</g>
<!-- Node7 -->
<g id="node7" class="node">
<title>Node7</title>
<g id="a_node7"><a xlink:href="../../dd/d50/namespaceacts_1_1examples_1_1simulation.html#a9cd7ce22ca7eb844b252af901a21bcc7" target="_top" xlink:title="acts.examples.simulation.get\lG4DetectorConstructionFactory">
<polygon fill="none" stroke="#000000" points="960,-74.0739 960,-106.0739 1135,-106.0739 1135,-74.0739 960,-74.0739"/>
<text text-anchor="start" x="968" y="-93.0739" font-family="FreeSans" font-size="10.00" fill="#000000">acts.examples.simulation.get</text>
<text text-anchor="middle" x="1047.5" y="-81.0739" font-family="FreeSans" font-size="10.00" fill="#000000">G4DetectorConstructionFactory</text>
</a>
</g>
</g>
<!-- Node5&#45;&gt;Node7 -->
<g id="edge7" class="edge">
<title>Node5&#45;&gt;Node7</title>
<path fill="none" stroke="#191970" d="M924.0982,-90.0739C932.5663,-90.0739 941.2192,-90.0739 949.8183,-90.0739"/>
<polygon fill="#191970" stroke="#191970" points="949.874,-93.574 959.8739,-90.0739 949.8739,-86.574 949.874,-93.574"/>
</g>
<!-- Node8 -->
<g id="node8" class="node">
<title>Node8</title>
<g id="a_node8"><a xlink:href="../../dc/d11/Prototype2_2EMCal_2macros_2SaveCanvas_8m.html#a8efe7494567713c8ec7a6803834a0bb6" target="_top" xlink:title="print">
<polygon fill="none" stroke="#000000" points="1171,-80.0739 1171,-100.0739 1211,-100.0739 1211,-80.0739 1171,-80.0739"/>
<text text-anchor="middle" x="1191" y="-87.0739" font-family="FreeSans" font-size="10.00" fill="#000000">print</text>
</a>
</g>
</g>
<!-- Node7&#45;&gt;Node8 -->
<g id="edge8" class="edge">
<title>Node7&#45;&gt;Node8</title>
<path fill="none" stroke="#191970" d="M1135.1083,-90.0739C1144.1511,-90.0739 1152.8402,-90.0739 1160.5613,-90.0739"/>
<polygon fill="#191970" stroke="#191970" points="1160.7681,-93.574 1170.768,-90.0739 1160.768,-86.574 1160.7681,-93.574"/>
</g>
</g>
</svg>
