<?xml version="1.0" encoding="UTF-8" standalone="no"?>
<!DOCTYPE svg PUBLIC "-//W3C//DTD SVG 1.1//EN"
 "http://www.w3.org/Graphics/SVG/1.1/DTD/svg11.dtd">
<!-- Generated by graphviz version 2.40.1 (20161225.0304)
 -->
<!-- Title: testing::internal::ParseGoogleTestFlagsOnly Pages: 1 -->
<svg width="1065pt" height="129pt"
 viewBox="0.00 0.00 1065.00 129.00" xmlns="http://www.w3.org/2000/svg" xmlns:xlink="http://www.w3.org/1999/xlink">
<g id="graph0" class="graph" transform="scale(1 1) rotate(0) translate(4 125)">
<title>testing::internal::ParseGoogleTestFlagsOnly</title>
<!-- Node1 -->
<g id="node1" class="node">
<title>Node1</title>
<polygon fill="#bfbfbf" stroke="#000000" points="0,-25.5 0,-57.5 149,-57.5 149,-25.5 0,-25.5"/>
<text text-anchor="start" x="8" y="-44.5" font-family="FreeSans" font-size="10.00" fill="#000000">testing::internal::</text>
<text text-anchor="middle" x="74.5" y="-32.5" font-family="FreeSans" font-size="10.00" fill="#000000">ParseGoogleTestFlagsOnly</text>
</g>
<!-- Node2 -->
<g id="node2" class="node">
<title>Node2</title>
<g id="a_node2"><a xlink:href="../../d0/da7/namespacetesting_1_1internal.html#ac3c6fa93391768aa91c6238b31aaeeb5" target="_top" xlink:title="testing::internal::\lInitGoogleTestImpl">
<polygon fill="none" stroke="#000000" points="205,-51.5 205,-83.5 315,-83.5 315,-51.5 205,-51.5"/>
<text text-anchor="start" x="213" y="-70.5" font-family="FreeSans" font-size="10.00" fill="#000000">testing::internal::</text>
<text text-anchor="middle" x="260" y="-58.5" font-family="FreeSans" font-size="10.00" fill="#000000">InitGoogleTestImpl</text>
</a>
</g>
</g>
<!-- Node1&#45;&gt;Node2 -->
<g id="edge1" class="edge">
<title>Node1&#45;&gt;Node2</title>
<path fill="none" stroke="#191970" d="M159.2679,-53.3812C174.761,-55.5528 190.5533,-57.7662 204.8985,-59.7769"/>
<polygon fill="#191970" stroke="#191970" points="159.5372,-49.8848 149.1481,-51.9628 158.5655,-56.8171 159.5372,-49.8848"/>
</g>
<!-- Node10 -->
<g id="node10" class="node">
<title>Node10</title>
<g id="a_node10"><a xlink:href="../../d7/dd1/classtesting_1_1InitGoogleTestTest.html#add290338cf429308d0ab275ae4c46e69" target="_top" xlink:title="testing::InitGoogleTestTest\l::TestParsingFlags">
<polygon fill="none" stroke="#000000" points="185,-.5 185,-32.5 335,-32.5 335,-.5 185,-.5"/>
<text text-anchor="start" x="193" y="-19.5" font-family="FreeSans" font-size="10.00" fill="#000000">testing::InitGoogleTestTest</text>
<text text-anchor="middle" x="260" y="-7.5" font-family="FreeSans" font-size="10.00" fill="#000000">::TestParsingFlags</text>
</a>
</g>
</g>
<!-- Node1&#45;&gt;Node10 -->
<g id="edge9" class="edge">
<title>Node1&#45;&gt;Node10</title>
<path fill="none" stroke="#191970" d="M159.165,-30.0896C167.7495,-28.9327 176.427,-27.7632 184.9005,-26.6212"/>
<polygon fill="#191970" stroke="#191970" points="158.591,-26.6352 149.1481,-31.4396 159.526,-33.5725 158.591,-26.6352"/>
</g>
<!-- Node3 -->
<g id="node3" class="node">
<title>Node3</title>
<g id="a_node3"><a xlink:href="../../d0/d75/namespacetesting.html#afd726ae08c9bd16dc52f78c822d9946b" target="_top" xlink:title="testing::InitGoogleTest">
<polygon fill="none" stroke="#000000" points="371,-57.5 371,-77.5 501,-77.5 501,-57.5 371,-57.5"/>
<text text-anchor="middle" x="436" y="-64.5" font-family="FreeSans" font-size="10.00" fill="#000000">testing::InitGoogleTest</text>
</a>
</g>
</g>
<!-- Node2&#45;&gt;Node3 -->
<g id="edge2" class="edge">
<title>Node2&#45;&gt;Node3</title>
<path fill="none" stroke="#191970" d="M325.3217,-67.5C340.1821,-67.5 355.9683,-67.5 370.8226,-67.5"/>
<polygon fill="#191970" stroke="#191970" points="325.2046,-64.0001 315.2046,-67.5 325.2046,-71.0001 325.2046,-64.0001"/>
</g>
<!-- Node4 -->
<g id="node4" class="node">
<title>Node4</title>
<g id="a_node4"><a xlink:href="../../d0/da7/namespacetesting_1_1internal.html#a3823844199df88af9493026031cf7744" target="_top" xlink:title="testing::internal::\lInitGoogleMockImpl">
<polygon fill="none" stroke="#000000" points="537,-74.5 537,-106.5 653,-106.5 653,-74.5 537,-74.5"/>
<text text-anchor="start" x="545" y="-93.5" font-family="FreeSans" font-size="10.00" fill="#000000">testing::internal::</text>
<text text-anchor="middle" x="595" y="-81.5" font-family="FreeSans" font-size="10.00" fill="#000000">InitGoogleMockImpl</text>
</a>
</g>
</g>
<!-- Node3&#45;&gt;Node4 -->
<g id="edge3" class="edge">
<title>Node3&#45;&gt;Node4</title>
<path fill="none" stroke="#191970" d="M511.1959,-78.3774C519.8178,-79.6246 528.5073,-80.8816 536.8573,-82.0894"/>
<polygon fill="#191970" stroke="#191970" points="511.5282,-74.8891 501.1302,-76.9213 510.526,-81.817 511.5282,-74.8891"/>
</g>
<!-- Node9 -->
<g id="node9" class="node">
<title>Node9</title>
<g id="a_node9"><a xlink:href="../../de/d85/sample10__unittest_8cc.html#a3c04138a5bfe5d72780bb7e82a18e627" target="_top" xlink:title="main">
<polygon fill="none" stroke="#000000" points="574.5,-35.5 574.5,-55.5 615.5,-55.5 615.5,-35.5 574.5,-35.5"/>
<text text-anchor="middle" x="595" y="-42.5" font-family="FreeSans" font-size="10.00" fill="#000000">main</text>
</a>
</g>
</g>
<!-- Node3&#45;&gt;Node9 -->
<g id="edge8" class="edge">
<title>Node3&#45;&gt;Node9</title>
<path fill="none" stroke="#191970" d="M511.0493,-57.1158C534.3212,-53.8958 558.1033,-50.6052 574.3854,-48.3523"/>
<polygon fill="#191970" stroke="#191970" points="510.556,-53.6506 501.1302,-58.4883 511.5155,-60.5846 510.556,-53.6506"/>
</g>
<!-- Node5 -->
<g id="node5" class="node">
<title>Node5</title>
<g id="a_node5"><a xlink:href="../../d0/d75/namespacetesting.html#a32b1c6db9ba5133ccabfa67616b3c041" target="_top" xlink:title="testing::InitGoogleMock">
<polygon fill="none" stroke="#000000" points="689,-80.5 689,-100.5 826,-100.5 826,-80.5 689,-80.5"/>
<text text-anchor="middle" x="757.5" y="-87.5" font-family="FreeSans" font-size="10.00" fill="#000000">testing::InitGoogleMock</text>
</a>
</g>
</g>
<!-- Node4&#45;&gt;Node5 -->
<g id="edge4" class="edge">
<title>Node4&#45;&gt;Node5</title>
<path fill="none" stroke="#191970" d="M663.3819,-90.5C671.8213,-90.5 680.4508,-90.5 688.8936,-90.5"/>
<polygon fill="#191970" stroke="#191970" points="663.2073,-87.0001 653.2072,-90.5 663.2072,-94.0001 663.2073,-87.0001"/>
</g>
<!-- Node6 -->
<g id="node6" class="node">
<title>Node6</title>
<g id="a_node6"><a xlink:href="../../dd/d93/gmock__main_8cc.html#a7f83bdc516d2cb86e20235d94ddf055a" target="_top" xlink:title="main">
<polygon fill="none" stroke="#000000" points="899.5,-100.5 899.5,-120.5 940.5,-120.5 940.5,-100.5 899.5,-100.5"/>
<text text-anchor="middle" x="920" y="-107.5" font-family="FreeSans" font-size="10.00" fill="#000000">main</text>
</a>
</g>
</g>
<!-- Node5&#45;&gt;Node6 -->
<g id="edge5" class="edge">
<title>Node5&#45;&gt;Node6</title>
<path fill="none" stroke="#191970" d="M836.6477,-100.2413C859.7866,-103.0891 883.1529,-105.965 899.2335,-107.9441"/>
<polygon fill="#191970" stroke="#191970" points="836.7673,-96.7296 826.4146,-98.9818 835.9122,-103.6772 836.7673,-96.7296"/>
</g>
<!-- Node7 -->
<g id="node7" class="node">
<title>Node7</title>
<g id="a_node7"><a xlink:href="../../d0/d02/gmock__test_8cc.html#ac9c8ae8722c330d47f75dee43fb8ab78" target="_top" xlink:title="TestInitGoogleMock">
<polygon fill="none" stroke="#000000" points="862,-61.5 862,-81.5 978,-81.5 978,-61.5 862,-61.5"/>
<text text-anchor="middle" x="920" y="-68.5" font-family="FreeSans" font-size="10.00" fill="#000000">TestInitGoogleMock</text>
</a>
</g>
</g>
<!-- Node5&#45;&gt;Node7 -->
<g id="edge6" class="edge">
<title>Node5&#45;&gt;Node7</title>
<path fill="none" stroke="#191970" d="M836.402,-81.2745C844.9426,-80.2759 853.5178,-79.2733 861.7498,-78.3108"/>
<polygon fill="#191970" stroke="#191970" points="835.9405,-77.8046 826.4146,-82.4423 836.7535,-84.7572 835.9405,-77.8046"/>
</g>
<!-- Node8 -->
<g id="node8" class="node">
<title>Node8</title>
<g id="a_node8"><a xlink:href="../../d0/d02/gmock__test_8cc.html#a7c86c6c98b72e903135c1b01370a13f3" target="_top" xlink:title="TEST">
<polygon fill="none" stroke="#000000" points="1014,-61.5 1014,-81.5 1057,-81.5 1057,-61.5 1014,-61.5"/>
<text text-anchor="middle" x="1035.5" y="-68.5" font-family="FreeSans" font-size="10.00" fill="#000000">TEST</text>
</a>
</g>
</g>
<!-- Node7&#45;&gt;Node8 -->
<g id="edge7" class="edge">
<title>Node7&#45;&gt;Node8</title>
<path fill="none" stroke="#191970" d="M988.2428,-71.5C997.5094,-71.5 1006.4031,-71.5 1013.9256,-71.5"/>
<polygon fill="#191970" stroke="#191970" points="988.0884,-68.0001 978.0884,-71.5 988.0883,-75.0001 988.0884,-68.0001"/>
</g>
</g>
</svg>
