<?xml version="1.0" encoding="UTF-8" standalone="no"?>
<!DOCTYPE svg PUBLIC "-//W3C//DTD SVG 1.1//EN"
 "http://www.w3.org/Graphics/SVG/1.1/DTD/svg11.dtd">
<!-- Generated by graphviz version 2.40.1 (20161225.0304)
 -->
<!-- Title: testing::internal::ColoredPrintf Pages: 1 -->
<svg width="608pt" height="335pt"
 viewBox="0.00 0.00 608.00 335.00" xmlns="http://www.w3.org/2000/svg" xmlns:xlink="http://www.w3.org/1999/xlink">
<g id="graph0" class="graph" transform="scale(1 1) rotate(0) translate(4 331)">
<title>testing::internal::ColoredPrintf</title>
<!-- Node1 -->
<g id="node1" class="node">
<title>Node1</title>
<polygon fill="#bfbfbf" stroke="#000000" points="0,-166.5 0,-198.5 103,-198.5 103,-166.5 0,-166.5"/>
<text text-anchor="start" x="8" y="-185.5" font-family="FreeSans" font-size="10.00" fill="#000000">testing::internal::</text>
<text text-anchor="middle" x="51.5" y="-173.5" font-family="FreeSans" font-size="10.00" fill="#000000">ColoredPrintf</text>
</g>
<!-- Node2 -->
<g id="node2" class="node">
<title>Node2</title>
<g id="a_node2"><a xlink:href="../../d0/da7/namespacetesting_1_1internal.html#a4b24c851ab13569b1b15b3d259b60d2e" target="_top" xlink:title="testing::internal::\lAlwaysFalse">
<polygon fill="none" stroke="#000000" points="141.5,-294.5 141.5,-326.5 244.5,-326.5 244.5,-294.5 141.5,-294.5"/>
<text text-anchor="start" x="149.5" y="-313.5" font-family="FreeSans" font-size="10.00" fill="#000000">testing::internal::</text>
<text text-anchor="middle" x="193" y="-301.5" font-family="FreeSans" font-size="10.00" fill="#000000">AlwaysFalse</text>
</a>
</g>
</g>
<!-- Node1&#45;&gt;Node2 -->
<g id="edge1" class="edge">
<title>Node1&#45;&gt;Node2</title>
<path fill="none" stroke="#191970" d="M61.9104,-198.6911C76.7674,-220.7478 105.9406,-260.3638 139,-285.5 140.6036,-286.7193 142.2763,-287.8979 143.9981,-289.0349"/>
<polygon fill="#191970" stroke="#191970" points="142.546,-292.2445 152.9256,-294.3696 146.1367,-286.2355 142.546,-292.2445"/>
</g>
<!-- Node5 -->
<g id="node5" class="node">
<title>Node5</title>
<g id="a_node5"><a xlink:href="../../d0/d81/namespacetesting_1_1internal_1_1posix.html#a3117b067e1f942a2031e666953120ccc" target="_top" xlink:title="testing::internal::\lposix::FileNo">
<polygon fill="none" stroke="#000000" points="141.5,-243.5 141.5,-275.5 244.5,-275.5 244.5,-243.5 141.5,-243.5"/>
<text text-anchor="start" x="149.5" y="-262.5" font-family="FreeSans" font-size="10.00" fill="#000000">testing::internal::</text>
<text text-anchor="middle" x="193" y="-250.5" font-family="FreeSans" font-size="10.00" fill="#000000">posix::FileNo</text>
</a>
</g>
</g>
<!-- Node1&#45;&gt;Node5 -->
<g id="edge4" class="edge">
<title>Node1&#45;&gt;Node5</title>
<path fill="none" stroke="#191970" d="M77.1381,-198.6816C94.3718,-209.3224 117.7377,-223.298 139,-234.5 141.8791,-236.0169 144.8673,-237.5389 147.8941,-239.042"/>
<polygon fill="#191970" stroke="#191970" points="146.4951,-242.2534 157.0199,-243.4698 149.5509,-235.9556 146.4951,-242.2534"/>
</g>
<!-- Node6 -->
<g id="node6" class="node">
<title>Node6</title>
<g id="a_node6"><a xlink:href="../../d0/da7/namespacetesting_1_1internal.html#a0aefb9deb60e90f19c236559837303d8" target="_top" xlink:title="testing::internal::\lGetAnsiColorCode">
<polygon fill="none" stroke="#000000" points="139,-192.5 139,-224.5 247,-224.5 247,-192.5 139,-192.5"/>
<text text-anchor="start" x="147" y="-211.5" font-family="FreeSans" font-size="10.00" fill="#000000">testing::internal::</text>
<text text-anchor="middle" x="193" y="-199.5" font-family="FreeSans" font-size="10.00" fill="#000000">GetAnsiColorCode</text>
</a>
</g>
</g>
<!-- Node1&#45;&gt;Node6 -->
<g id="edge5" class="edge">
<title>Node1&#45;&gt;Node6</title>
<path fill="none" stroke="#191970" d="M103.3859,-192.0338C111.6629,-193.5547 120.3114,-195.1438 128.8315,-196.7093"/>
<polygon fill="#191970" stroke="#191970" points="128.2766,-200.1659 138.7445,-198.5308 129.5417,-193.2811 128.2766,-200.1659"/>
</g>
<!-- Node7 -->
<g id="node7" class="node">
<title>Node7</title>
<g id="a_node7"><a xlink:href="../../d0/d81/namespacetesting_1_1internal_1_1posix.html#a16ebe936b3a8ea462a94191635aedc27" target="_top" xlink:title="testing::internal::\lposix::IsATTY">
<polygon fill="none" stroke="#000000" points="141.5,-141.5 141.5,-173.5 244.5,-173.5 244.5,-141.5 141.5,-141.5"/>
<text text-anchor="start" x="149.5" y="-160.5" font-family="FreeSans" font-size="10.00" fill="#000000">testing::internal::</text>
<text text-anchor="middle" x="193" y="-148.5" font-family="FreeSans" font-size="10.00" fill="#000000">posix::IsATTY</text>
</a>
</g>
</g>
<!-- Node1&#45;&gt;Node7 -->
<g id="edge6" class="edge">
<title>Node1&#45;&gt;Node7</title>
<path fill="none" stroke="#191970" d="M103.3859,-173.3329C112.422,-171.7364 121.901,-170.0617 131.1723,-168.4236"/>
<polygon fill="#191970" stroke="#191970" points="131.8819,-171.8526 141.1204,-166.666 130.6639,-164.9593 131.8819,-171.8526"/>
</g>
<!-- Node8 -->
<g id="node8" class="node">
<title>Node8</title>
<g id="a_node8"><a xlink:href="../../da/d23/msg__buffer_8cc.html#a98631211a4a8aee62f572375d5b637be" target="_top" xlink:title="printf">
<polygon fill="none" stroke="#000000" points="171,-102.5 171,-122.5 215,-122.5 215,-102.5 171,-102.5"/>
<text text-anchor="middle" x="193" y="-109.5" font-family="FreeSans" font-size="10.00" fill="#000000">printf</text>
</a>
</g>
</g>
<!-- Node1&#45;&gt;Node8 -->
<g id="edge7" class="edge">
<title>Node1&#45;&gt;Node8</title>
<path fill="none" stroke="#191970" d="M76.9422,-166.4779C94.0932,-156.051 117.4405,-142.5689 139,-132.5 146.117,-129.1761 153.952,-126.0086 161.3939,-123.2146"/>
<polygon fill="#191970" stroke="#191970" points="162.6543,-126.4805 170.8571,-119.7749 160.263,-119.9017 162.6543,-126.4805"/>
</g>
<!-- Node9 -->
<g id="node9" class="node">
<title>Node9</title>
<g id="a_node9"><a xlink:href="../../d0/da7/namespacetesting_1_1internal.html#ac1db1b4603967a6c4404f31cbbac31a6" target="_top" xlink:title="testing::internal::\lShouldUseColor">
<polygon fill="none" stroke="#000000" points="141.5,-51.5 141.5,-83.5 244.5,-83.5 244.5,-51.5 141.5,-51.5"/>
<text text-anchor="start" x="149.5" y="-70.5" font-family="FreeSans" font-size="10.00" fill="#000000">testing::internal::</text>
<text text-anchor="middle" x="193" y="-58.5" font-family="FreeSans" font-size="10.00" fill="#000000">ShouldUseColor</text>
</a>
</g>
</g>
<!-- Node1&#45;&gt;Node9 -->
<g id="edge8" class="edge">
<title>Node1&#45;&gt;Node9</title>
<path fill="none" stroke="#191970" d="M64.349,-166.3758C80.2904,-147.1536 109.0481,-114.9422 139,-93.5 141.3399,-91.8249 143.8044,-90.2083 146.3394,-88.6571"/>
<polygon fill="#191970" stroke="#191970" points="148.189,-91.6317 155.1507,-83.645 144.7279,-85.5471 148.189,-91.6317"/>
</g>
<!-- Node3 -->
<g id="node3" class="node">
<title>Node3</title>
<g id="a_node3"><a xlink:href="../../d0/da7/namespacetesting_1_1internal.html#a922c9da63cd4bf94fc473b9ecac76414" target="_top" xlink:title="testing::internal::\lAlwaysTrue">
<polygon fill="none" stroke="#000000" points="316,-294.5 316,-326.5 419,-326.5 419,-294.5 316,-294.5"/>
<text text-anchor="start" x="324" y="-313.5" font-family="FreeSans" font-size="10.00" fill="#000000">testing::internal::</text>
<text text-anchor="middle" x="367.5" y="-301.5" font-family="FreeSans" font-size="10.00" fill="#000000">AlwaysTrue</text>
</a>
</g>
</g>
<!-- Node2&#45;&gt;Node3 -->
<g id="edge2" class="edge">
<title>Node2&#45;&gt;Node3</title>
<path fill="none" stroke="#191970" d="M244.8833,-310.5C263.9614,-310.5 285.7551,-310.5 305.6255,-310.5"/>
<polygon fill="#191970" stroke="#191970" points="305.8166,-314.0001 315.8166,-310.5 305.8166,-307.0001 305.8166,-314.0001"/>
</g>
<!-- Node4 -->
<g id="node4" class="node">
<title>Node4</title>
<g id="a_node4"><a xlink:href="../../d0/da7/namespacetesting_1_1internal.html#a527b9bcc13669b9a16400c8514266254" target="_top" xlink:title="testing::internal::\lIsTrue">
<polygon fill="none" stroke="#000000" points="492.5,-294.5 492.5,-326.5 595.5,-326.5 595.5,-294.5 492.5,-294.5"/>
<text text-anchor="start" x="500.5" y="-313.5" font-family="FreeSans" font-size="10.00" fill="#000000">testing::internal::</text>
<text text-anchor="middle" x="544" y="-301.5" font-family="FreeSans" font-size="10.00" fill="#000000">IsTrue</text>
</a>
</g>
</g>
<!-- Node3&#45;&gt;Node4 -->
<g id="edge3" class="edge">
<title>Node3&#45;&gt;Node4</title>
<path fill="none" stroke="#191970" d="M419.0256,-310.5C438.7847,-310.5 461.5333,-310.5 482.1613,-310.5"/>
<polygon fill="#191970" stroke="#191970" points="482.4104,-314.0001 492.4104,-310.5 482.4104,-307.0001 482.4104,-314.0001"/>
</g>
<!-- Node10 -->
<g id="node10" class="node">
<title>Node10</title>
<g id="a_node10"><a xlink:href="../../d2/df8/classtesting_1_1internal_1_1String.html#a116ca435d63306927ba19f90a3596787" target="_top" xlink:title="testing::internal::\lString::CaseInsensitiveCString\lEquals">
<polygon fill="none" stroke="#000000" points="283,-102.5 283,-146.5 452,-146.5 452,-102.5 283,-102.5"/>
<text text-anchor="start" x="291" y="-133.5" font-family="FreeSans" font-size="10.00" fill="#000000">testing::internal::</text>
<text text-anchor="start" x="291" y="-121.5" font-family="FreeSans" font-size="10.00" fill="#000000">String::CaseInsensitiveCString</text>
<text text-anchor="middle" x="367.5" y="-109.5" font-family="FreeSans" font-size="10.00" fill="#000000">Equals</text>
</a>
</g>
</g>
<!-- Node9&#45;&gt;Node10 -->
<g id="edge9" class="edge">
<title>Node9&#45;&gt;Node10</title>
<path fill="none" stroke="#191970" d="M242.0724,-83.5294C257.072,-88.429 273.9468,-93.9411 290.34,-99.2959"/>
<polygon fill="#191970" stroke="#191970" points="289.3261,-102.6466 299.9186,-102.4247 291.4997,-95.9926 289.3261,-102.6466"/>
</g>
<!-- Node12 -->
<g id="node12" class="node">
<title>Node12</title>
<g id="a_node12"><a xlink:href="../../d0/d81/namespacetesting_1_1internal_1_1posix.html#a1d5e3da5a27eed25986859fa83cafe95" target="_top" xlink:title="testing::internal::\lposix::GetEnv">
<polygon fill="none" stroke="#000000" points="316,-51.5 316,-83.5 419,-83.5 419,-51.5 316,-51.5"/>
<text text-anchor="start" x="324" y="-70.5" font-family="FreeSans" font-size="10.00" fill="#000000">testing::internal::</text>
<text text-anchor="middle" x="367.5" y="-58.5" font-family="FreeSans" font-size="10.00" fill="#000000">posix::GetEnv</text>
</a>
</g>
</g>
<!-- Node9&#45;&gt;Node12 -->
<g id="edge11" class="edge">
<title>Node9&#45;&gt;Node12</title>
<path fill="none" stroke="#191970" d="M244.8833,-67.5C263.9614,-67.5 285.7551,-67.5 305.6255,-67.5"/>
<polygon fill="#191970" stroke="#191970" points="305.8166,-71.0001 315.8166,-67.5 305.8166,-64.0001 305.8166,-71.0001"/>
</g>
<!-- Node13 -->
<g id="node13" class="node">
<title>Node13</title>
<g id="a_node13"><a xlink:href="../../d2/df8/classtesting_1_1internal_1_1String.html#a8bea7b33e7effbd299a0b4a5522ea96e" target="_top" xlink:title="testing::internal::\lString::CStringEquals">
<polygon fill="none" stroke="#000000" points="305.5,-.5 305.5,-32.5 429.5,-32.5 429.5,-.5 305.5,-.5"/>
<text text-anchor="start" x="313.5" y="-19.5" font-family="FreeSans" font-size="10.00" fill="#000000">testing::internal::</text>
<text text-anchor="middle" x="367.5" y="-7.5" font-family="FreeSans" font-size="10.00" fill="#000000">String::CStringEquals</text>
</a>
</g>
</g>
<!-- Node9&#45;&gt;Node13 -->
<g id="edge12" class="edge">
<title>Node9&#45;&gt;Node13</title>
<path fill="none" stroke="#191970" d="M244.8833,-52.3364C263.0203,-47.0356 283.6116,-41.0175 302.6716,-35.447"/>
<polygon fill="#191970" stroke="#191970" points="303.8614,-38.7457 312.478,-32.5809 301.8977,-32.0268 303.8614,-38.7457"/>
</g>
<!-- Node11 -->
<g id="node11" class="node">
<title>Node11</title>
<g id="a_node11"><a xlink:href="../../d0/d81/namespacetesting_1_1internal_1_1posix.html#a1ef2385a7f8e4c706054da35967e76bd" target="_top" xlink:title="testing::internal::\lposix::StrCaseCmp">
<polygon fill="none" stroke="#000000" points="488,-108.5 488,-140.5 600,-140.5 600,-108.5 488,-108.5"/>
<text text-anchor="start" x="496" y="-127.5" font-family="FreeSans" font-size="10.00" fill="#000000">testing::internal::</text>
<text text-anchor="middle" x="544" y="-115.5" font-family="FreeSans" font-size="10.00" fill="#000000">posix::StrCaseCmp</text>
</a>
</g>
</g>
<!-- Node10&#45;&gt;Node11 -->
<g id="edge10" class="edge">
<title>Node10&#45;&gt;Node11</title>
<path fill="none" stroke="#191970" d="M452.1313,-124.5C460.5914,-124.5 469.096,-124.5 477.3332,-124.5"/>
<polygon fill="#191970" stroke="#191970" points="477.6007,-128.0001 487.6007,-124.5 477.6007,-121.0001 477.6007,-128.0001"/>
</g>
</g>
</svg>
