<?xml version="1.0" encoding="UTF-8" standalone="no"?>
<!DOCTYPE svg PUBLIC "-//W3C//DTD SVG 1.1//EN"
 "http://www.w3.org/Graphics/SVG/1.1/DTD/svg11.dtd">
<!-- Generated by graphviz version 2.40.1 (20161225.0304)
 -->
<!-- Title: testing::internal::ParseGoogleTestFlag Pages: 1 -->
<svg width="1428pt" height="129pt"
 viewBox="0.00 0.00 1428.00 129.00" xmlns="http://www.w3.org/2000/svg" xmlns:xlink="http://www.w3.org/1999/xlink">
<g id="graph0" class="graph" transform="scale(1 1) rotate(0) translate(4 125)">
<title>testing::internal::ParseGoogleTestFlag</title>
<!-- Node1 -->
<g id="node1" class="node">
<title>Node1</title>
<polygon fill="#bfbfbf" stroke="#000000" points="0,-25.5 0,-57.5 120,-57.5 120,-25.5 0,-25.5"/>
<text text-anchor="start" x="8" y="-44.5" font-family="FreeSans" font-size="10.00" fill="#000000">testing::internal::</text>
<text text-anchor="middle" x="60" y="-32.5" font-family="FreeSans" font-size="10.00" fill="#000000">ParseGoogleTestFlag</text>
</g>
<!-- Node2 -->
<g id="node2" class="node">
<title>Node2</title>
<g id="a_node2"><a xlink:href="../../d0/da7/namespacetesting_1_1internal.html#ae4c46ce8c3d016848fff52cc5133f2ac" target="_top" xlink:title="testing::internal::\lParseGoogleTestFlagsOnlyImpl">
<polygon fill="none" stroke="#000000" points="156,-25.5 156,-57.5 327,-57.5 327,-25.5 156,-25.5"/>
<text text-anchor="start" x="164" y="-44.5" font-family="FreeSans" font-size="10.00" fill="#000000">testing::internal::</text>
<text text-anchor="middle" x="241.5" y="-32.5" font-family="FreeSans" font-size="10.00" fill="#000000">ParseGoogleTestFlagsOnlyImpl</text>
</a>
</g>
</g>
<!-- Node1&#45;&gt;Node2 -->
<g id="edge1" class="edge">
<title>Node1&#45;&gt;Node2</title>
<path fill="none" stroke="#191970" d="M130.2812,-41.5C138.6757,-41.5 147.3167,-41.5 155.8962,-41.5"/>
<polygon fill="#191970" stroke="#191970" points="130.1848,-38.0001 120.1848,-41.5 130.1847,-45.0001 130.1848,-38.0001"/>
</g>
<!-- Node3 -->
<g id="node3" class="node">
<title>Node3</title>
<g id="a_node3"><a xlink:href="../../d0/da7/namespacetesting_1_1internal.html#a472880afbcc592a41e3d623e2dec8412" target="_top" xlink:title="testing::internal::\lParseGoogleTestFlagsOnly">
<polygon fill="none" stroke="#000000" points="363,-25.5 363,-57.5 512,-57.5 512,-25.5 363,-25.5"/>
<text text-anchor="start" x="371" y="-44.5" font-family="FreeSans" font-size="10.00" fill="#000000">testing::internal::</text>
<text text-anchor="middle" x="437.5" y="-32.5" font-family="FreeSans" font-size="10.00" fill="#000000">ParseGoogleTestFlagsOnly</text>
</a>
</g>
</g>
<!-- Node2&#45;&gt;Node3 -->
<g id="edge2" class="edge">
<title>Node2&#45;&gt;Node3</title>
<path fill="none" stroke="#191970" d="M337.2206,-41.5C345.7933,-41.5 354.3893,-41.5 362.746,-41.5"/>
<polygon fill="#191970" stroke="#191970" points="337.1834,-38.0001 327.1833,-41.5 337.1833,-45.0001 337.1834,-38.0001"/>
</g>
<!-- Node4 -->
<g id="node4" class="node">
<title>Node4</title>
<g id="a_node4"><a xlink:href="../../d0/da7/namespacetesting_1_1internal.html#ac3c6fa93391768aa91c6238b31aaeeb5" target="_top" xlink:title="testing::internal::\lInitGoogleTestImpl">
<polygon fill="none" stroke="#000000" points="568,-51.5 568,-83.5 678,-83.5 678,-51.5 568,-51.5"/>
<text text-anchor="start" x="576" y="-70.5" font-family="FreeSans" font-size="10.00" fill="#000000">testing::internal::</text>
<text text-anchor="middle" x="623" y="-58.5" font-family="FreeSans" font-size="10.00" fill="#000000">InitGoogleTestImpl</text>
</a>
</g>
</g>
<!-- Node3&#45;&gt;Node4 -->
<g id="edge3" class="edge">
<title>Node3&#45;&gt;Node4</title>
<path fill="none" stroke="#191970" d="M522.2679,-53.3812C537.761,-55.5528 553.5533,-57.7662 567.8985,-59.7769"/>
<polygon fill="#191970" stroke="#191970" points="522.5372,-49.8848 512.1481,-51.9628 521.5655,-56.8171 522.5372,-49.8848"/>
</g>
<!-- Node12 -->
<g id="node12" class="node">
<title>Node12</title>
<g id="a_node12"><a xlink:href="../../d7/dd1/classtesting_1_1InitGoogleTestTest.html#add290338cf429308d0ab275ae4c46e69" target="_top" xlink:title="testing::InitGoogleTestTest\l::TestParsingFlags">
<polygon fill="none" stroke="#000000" points="548,-.5 548,-32.5 698,-32.5 698,-.5 548,-.5"/>
<text text-anchor="start" x="556" y="-19.5" font-family="FreeSans" font-size="10.00" fill="#000000">testing::InitGoogleTestTest</text>
<text text-anchor="middle" x="623" y="-7.5" font-family="FreeSans" font-size="10.00" fill="#000000">::TestParsingFlags</text>
</a>
</g>
</g>
<!-- Node3&#45;&gt;Node12 -->
<g id="edge11" class="edge">
<title>Node3&#45;&gt;Node12</title>
<path fill="none" stroke="#191970" d="M522.165,-30.0896C530.7495,-28.9327 539.427,-27.7632 547.9005,-26.6212"/>
<polygon fill="#191970" stroke="#191970" points="521.591,-26.6352 512.1481,-31.4396 522.526,-33.5725 521.591,-26.6352"/>
</g>
<!-- Node5 -->
<g id="node5" class="node">
<title>Node5</title>
<g id="a_node5"><a xlink:href="../../d0/d75/namespacetesting.html#afd726ae08c9bd16dc52f78c822d9946b" target="_top" xlink:title="testing::InitGoogleTest">
<polygon fill="none" stroke="#000000" points="734,-57.5 734,-77.5 864,-77.5 864,-57.5 734,-57.5"/>
<text text-anchor="middle" x="799" y="-64.5" font-family="FreeSans" font-size="10.00" fill="#000000">testing::InitGoogleTest</text>
</a>
</g>
</g>
<!-- Node4&#45;&gt;Node5 -->
<g id="edge4" class="edge">
<title>Node4&#45;&gt;Node5</title>
<path fill="none" stroke="#191970" d="M688.3217,-67.5C703.1821,-67.5 718.9683,-67.5 733.8226,-67.5"/>
<polygon fill="#191970" stroke="#191970" points="688.2046,-64.0001 678.2046,-67.5 688.2046,-71.0001 688.2046,-64.0001"/>
</g>
<!-- Node6 -->
<g id="node6" class="node">
<title>Node6</title>
<g id="a_node6"><a xlink:href="../../d0/da7/namespacetesting_1_1internal.html#a3823844199df88af9493026031cf7744" target="_top" xlink:title="testing::internal::\lInitGoogleMockImpl">
<polygon fill="none" stroke="#000000" points="900,-74.5 900,-106.5 1016,-106.5 1016,-74.5 900,-74.5"/>
<text text-anchor="start" x="908" y="-93.5" font-family="FreeSans" font-size="10.00" fill="#000000">testing::internal::</text>
<text text-anchor="middle" x="958" y="-81.5" font-family="FreeSans" font-size="10.00" fill="#000000">InitGoogleMockImpl</text>
</a>
</g>
</g>
<!-- Node5&#45;&gt;Node6 -->
<g id="edge5" class="edge">
<title>Node5&#45;&gt;Node6</title>
<path fill="none" stroke="#191970" d="M874.1959,-78.3774C882.8178,-79.6246 891.5073,-80.8816 899.8573,-82.0894"/>
<polygon fill="#191970" stroke="#191970" points="874.5282,-74.8891 864.1302,-76.9213 873.526,-81.817 874.5282,-74.8891"/>
</g>
<!-- Node11 -->
<g id="node11" class="node">
<title>Node11</title>
<g id="a_node11"><a xlink:href="../../de/d85/sample10__unittest_8cc.html#a3c04138a5bfe5d72780bb7e82a18e627" target="_top" xlink:title="main">
<polygon fill="none" stroke="#000000" points="937.5,-35.5 937.5,-55.5 978.5,-55.5 978.5,-35.5 937.5,-35.5"/>
<text text-anchor="middle" x="958" y="-42.5" font-family="FreeSans" font-size="10.00" fill="#000000">main</text>
</a>
</g>
</g>
<!-- Node5&#45;&gt;Node11 -->
<g id="edge10" class="edge">
<title>Node5&#45;&gt;Node11</title>
<path fill="none" stroke="#191970" d="M874.0493,-57.1158C897.3212,-53.8958 921.1033,-50.6052 937.3854,-48.3523"/>
<polygon fill="#191970" stroke="#191970" points="873.556,-53.6506 864.1302,-58.4883 874.5155,-60.5846 873.556,-53.6506"/>
</g>
<!-- Node7 -->
<g id="node7" class="node">
<title>Node7</title>
<g id="a_node7"><a xlink:href="../../d0/d75/namespacetesting.html#a32b1c6db9ba5133ccabfa67616b3c041" target="_top" xlink:title="testing::InitGoogleMock">
<polygon fill="none" stroke="#000000" points="1052,-80.5 1052,-100.5 1189,-100.5 1189,-80.5 1052,-80.5"/>
<text text-anchor="middle" x="1120.5" y="-87.5" font-family="FreeSans" font-size="10.00" fill="#000000">testing::InitGoogleMock</text>
</a>
</g>
</g>
<!-- Node6&#45;&gt;Node7 -->
<g id="edge6" class="edge">
<title>Node6&#45;&gt;Node7</title>
<path fill="none" stroke="#191970" d="M1026.3819,-90.5C1034.8213,-90.5 1043.4508,-90.5 1051.8936,-90.5"/>
<polygon fill="#191970" stroke="#191970" points="1026.2073,-87.0001 1016.2072,-90.5 1026.2072,-94.0001 1026.2073,-87.0001"/>
</g>
<!-- Node8 -->
<g id="node8" class="node">
<title>Node8</title>
<g id="a_node8"><a xlink:href="../../dd/d93/gmock__main_8cc.html#a7f83bdc516d2cb86e20235d94ddf055a" target="_top" xlink:title="main">
<polygon fill="none" stroke="#000000" points="1262.5,-100.5 1262.5,-120.5 1303.5,-120.5 1303.5,-100.5 1262.5,-100.5"/>
<text text-anchor="middle" x="1283" y="-107.5" font-family="FreeSans" font-size="10.00" fill="#000000">main</text>
</a>
</g>
</g>
<!-- Node7&#45;&gt;Node8 -->
<g id="edge7" class="edge">
<title>Node7&#45;&gt;Node8</title>
<path fill="none" stroke="#191970" d="M1199.6477,-100.2413C1222.7866,-103.0891 1246.1529,-105.965 1262.2335,-107.9441"/>
<polygon fill="#191970" stroke="#191970" points="1199.7673,-96.7296 1189.4146,-98.9818 1198.9122,-103.6772 1199.7673,-96.7296"/>
</g>
<!-- Node9 -->
<g id="node9" class="node">
<title>Node9</title>
<g id="a_node9"><a xlink:href="../../d0/d02/gmock__test_8cc.html#ac9c8ae8722c330d47f75dee43fb8ab78" target="_top" xlink:title="TestInitGoogleMock">
<polygon fill="none" stroke="#000000" points="1225,-61.5 1225,-81.5 1341,-81.5 1341,-61.5 1225,-61.5"/>
<text text-anchor="middle" x="1283" y="-68.5" font-family="FreeSans" font-size="10.00" fill="#000000">TestInitGoogleMock</text>
</a>
</g>
</g>
<!-- Node7&#45;&gt;Node9 -->
<g id="edge8" class="edge">
<title>Node7&#45;&gt;Node9</title>
<path fill="none" stroke="#191970" d="M1199.402,-81.2745C1207.9426,-80.2759 1216.5178,-79.2733 1224.7498,-78.3108"/>
<polygon fill="#191970" stroke="#191970" points="1198.9405,-77.8046 1189.4146,-82.4423 1199.7535,-84.7572 1198.9405,-77.8046"/>
</g>
<!-- Node10 -->
<g id="node10" class="node">
<title>Node10</title>
<g id="a_node10"><a xlink:href="../../d0/d02/gmock__test_8cc.html#a7c86c6c98b72e903135c1b01370a13f3" target="_top" xlink:title="TEST">
<polygon fill="none" stroke="#000000" points="1377,-61.5 1377,-81.5 1420,-81.5 1420,-61.5 1377,-61.5"/>
<text text-anchor="middle" x="1398.5" y="-68.5" font-family="FreeSans" font-size="10.00" fill="#000000">TEST</text>
</a>
</g>
</g>
<!-- Node9&#45;&gt;Node10 -->
<g id="edge9" class="edge">
<title>Node9&#45;&gt;Node10</title>
<path fill="none" stroke="#191970" d="M1351.2428,-71.5C1360.5094,-71.5 1369.4031,-71.5 1376.9256,-71.5"/>
<polygon fill="#191970" stroke="#191970" points="1351.0884,-68.0001 1341.0884,-71.5 1351.0883,-75.0001 1351.0884,-68.0001"/>
</g>
</g>
</svg>
