<?xml version="1.0" encoding="UTF-8" standalone="no"?>
<!DOCTYPE svg PUBLIC "-//W3C//DTD SVG 1.1//EN"
 "http://www.w3.org/Graphics/SVG/1.1/DTD/svg11.dtd">
<!-- Generated by graphviz version 2.40.1 (20161225.0304)
 -->
<!-- Title: coresoftware/blob/master/simulation/g4simulation/g4main/PHG4TruthTrackingAction.h Pages: 1 -->
<svg width="453pt" height="167pt"
 viewBox="0.00 0.00 452.50 167.00" xmlns="http://www.w3.org/2000/svg" xmlns:xlink="http://www.w3.org/1999/xlink">
<g id="graph0" class="graph" transform="scale(1 1) rotate(0) translate(4 163)">
<title>coresoftware/blob/master/simulation/g4simulation/g4main/PHG4TruthTrackingAction.h</title>
<!-- Node1 -->
<g id="node1" class="node">
<title>Node1</title>
<polygon fill="#bfbfbf" stroke="#000000" points="202.5,-114.5 202.5,-158.5 401.5,-158.5 401.5,-114.5 202.5,-114.5"/>
<text text-anchor="start" x="210.5" y="-145.5" font-family="FreeSans" font-size="10.00" fill="#000000">coresoftware/blob/master</text>
<text text-anchor="start" x="210.5" y="-133.5" font-family="FreeSans" font-size="10.00" fill="#000000">/simulation/g4simulation</text>
<text text-anchor="middle" x="302" y="-121.5" font-family="FreeSans" font-size="10.00" fill="#000000">/g4main/PHG4TruthTrackingAction.h</text>
</g>
<!-- Node2 -->
<g id="node2" class="node">
<title>Node2</title>
<g id="a_node2"><a xlink:href="../../d5/dcf/PHG4TrackingAction_8h.html" target="_top" xlink:title="PHG4TrackingAction.h">
<polygon fill="none" stroke="#000000" points="28.5,-57.5 28.5,-77.5 155.5,-77.5 155.5,-57.5 28.5,-57.5"/>
<text text-anchor="middle" x="92" y="-64.5" font-family="FreeSans" font-size="10.00" fill="#000000">PHG4TrackingAction.h</text>
</a>
</g>
</g>
<!-- Node1&#45;&gt;Node2 -->
<g id="edge1" class="edge">
<title>Node1&#45;&gt;Node2</title>
<path fill="none" stroke="#191970" d="M234.9773,-114.4783C201.2615,-103.4002 161.508,-90.3384 132.4885,-80.8034"/>
<polygon fill="#191970" stroke="#191970" points="133.292,-77.3833 122.6991,-77.5869 131.1069,-84.0336 133.292,-77.3833"/>
</g>
<!-- Node4 -->
<g id="node4" class="node">
<title>Node4</title>
<polygon fill="none" stroke="#bfbfbf" points="173.5,-57.5 173.5,-77.5 320.5,-77.5 320.5,-57.5 173.5,-57.5"/>
<text text-anchor="middle" x="247" y="-64.5" font-family="FreeSans" font-size="10.00" fill="#000000">Geant4/G4ThreeVector.hh</text>
</g>
<!-- Node1&#45;&gt;Node4 -->
<g id="edge3" class="edge">
<title>Node1&#45;&gt;Node4</title>
<path fill="none" stroke="#191970" d="M284.2949,-114.2882C276.9466,-105.0694 268.5251,-94.5042 261.5462,-85.7488"/>
<polygon fill="#191970" stroke="#191970" points="264.1114,-83.3518 255.1413,-77.7137 258.6376,-87.715 264.1114,-83.3518"/>
</g>
<!-- Node5 -->
<g id="node5" class="node">
<title>Node5</title>
<polygon fill="none" stroke="#bfbfbf" points="338.5,-57.5 338.5,-77.5 377.5,-77.5 377.5,-57.5 338.5,-57.5"/>
<text text-anchor="middle" x="358" y="-64.5" font-family="FreeSans" font-size="10.00" fill="#000000">map</text>
</g>
<!-- Node1&#45;&gt;Node5 -->
<g id="edge4" class="edge">
<title>Node1&#45;&gt;Node5</title>
<path fill="none" stroke="#191970" d="M320.027,-114.2882C327.5089,-105.0694 336.0835,-94.5042 343.1893,-85.7488"/>
<polygon fill="#191970" stroke="#191970" points="346.1265,-87.6839 349.7106,-77.7137 340.6913,-83.2727 346.1265,-87.6839"/>
</g>
<!-- Node6 -->
<g id="node6" class="node">
<title>Node6</title>
<polygon fill="none" stroke="#bfbfbf" points="395.5,-57.5 395.5,-77.5 444.5,-77.5 444.5,-57.5 395.5,-57.5"/>
<text text-anchor="middle" x="420" y="-64.5" font-family="FreeSans" font-size="10.00" fill="#000000">vector</text>
</g>
<!-- Node1&#45;&gt;Node6 -->
<g id="edge5" class="edge">
<title>Node1&#45;&gt;Node6</title>
<path fill="none" stroke="#191970" d="M339.6604,-114.4783C357.3645,-104.1259 378.0313,-92.041 393.97,-82.7209"/>
<polygon fill="#191970" stroke="#191970" points="395.8843,-85.6561 402.75,-77.5869 392.3508,-79.6133 395.8843,-85.6561"/>
</g>
<!-- Node3 -->
<g id="node3" class="node">
<title>Node3</title>
<polygon fill="none" stroke="#bfbfbf" points="0,-.5 0,-20.5 184,-20.5 184,-.5 0,-.5"/>
<text text-anchor="middle" x="92" y="-7.5" font-family="FreeSans" font-size="10.00" fill="#000000">Geant4/G4UserTrackingAction.hh</text>
</g>
<!-- Node2&#45;&gt;Node3 -->
<g id="edge2" class="edge">
<title>Node2&#45;&gt;Node3</title>
<path fill="none" stroke="#191970" d="M92,-57.3095C92,-49.9335 92,-39.72 92,-30.715"/>
<polygon fill="#191970" stroke="#191970" points="95.5001,-30.6022 92,-20.6022 88.5001,-30.6023 95.5001,-30.6022"/>
</g>
</g>
</svg>
