<?xml version="1.0" encoding="UTF-8" standalone="no"?>
<!DOCTYPE svg PUBLIC "-//W3C//DTD SVG 1.1//EN"
 "http://www.w3.org/Graphics/SVG/1.1/DTD/svg11.dtd">
<!-- Generated by graphviz version 2.40.1 (20161225.0304)
 -->
<!-- Title: PHG4DetectorGroupSubsystem::set_default_double_param Pages: 1 -->
<svg width="400pt" height="245pt"
 viewBox="0.00 0.00 400.00 245.00" xmlns="http://www.w3.org/2000/svg" xmlns:xlink="http://www.w3.org/1999/xlink">
<g id="graph0" class="graph" transform="scale(1 1) rotate(0) translate(4 241)">
<title>PHG4DetectorGroupSubsystem::set_default_double_param</title>
<!-- Node1 -->
<g id="node1" class="node">
<title>Node1</title>
<polygon fill="#bfbfbf" stroke="#000000" points="0,-102.5 0,-134.5 175,-134.5 175,-102.5 0,-102.5"/>
<text text-anchor="start" x="8" y="-121.5" font-family="FreeSans" font-size="10.00" fill="#000000">PHG4DetectorGroupSubsystem</text>
<text text-anchor="middle" x="87.5" y="-109.5" font-family="FreeSans" font-size="10.00" fill="#000000">::set_default_double_param</text>
</g>
<!-- Node2 -->
<g id="node2" class="node">
<title>Node2</title>
<g id="a_node2"><a xlink:href="../../d2/d10/classPHG4EPDSubsystem.html#abf228654b7b314d9f3ab46b2948da67f" target="_top" xlink:title="PHG4EPDSubsystem::SetDefault\lParameters">
<polygon fill="none" stroke="#000000" points="211,-204.5 211,-236.5 392,-236.5 392,-204.5 211,-204.5"/>
<text text-anchor="start" x="219" y="-223.5" font-family="FreeSans" font-size="10.00" fill="#000000">PHG4EPDSubsystem::SetDefault</text>
<text text-anchor="middle" x="301.5" y="-211.5" font-family="FreeSans" font-size="10.00" fill="#000000">Parameters</text>
</a>
</g>
</g>
<!-- Node1&#45;&gt;Node2 -->
<g id="edge1" class="edge">
<title>Node1&#45;&gt;Node2</title>
<path fill="none" stroke="#191970" d="M117.5686,-140.7C141.7704,-157.6967 177.205,-180.6702 211,-195.5 218.4632,-198.775 226.4634,-201.7243 234.5061,-204.3503"/>
<polygon fill="#191970" stroke="#191970" points="119.3614,-137.6801 109.1842,-134.7346 115.3033,-143.3838 119.3614,-137.6801"/>
</g>
<!-- Node3 -->
<g id="node3" class="node">
<title>Node3</title>
<g id="a_node3"><a xlink:href="../../d9/dbf/classPHG4MvtxSubsystem.html#a36809bd6e8bd1c027e04e43cb8b146c0" target="_top" xlink:title="PHG4MvtxSubsystem::\lSetDefaultParameters">
<polygon fill="none" stroke="#000000" points="236,-153.5 236,-185.5 367,-185.5 367,-153.5 236,-153.5"/>
<text text-anchor="start" x="244" y="-172.5" font-family="FreeSans" font-size="10.00" fill="#000000">PHG4MvtxSubsystem::</text>
<text text-anchor="middle" x="301.5" y="-160.5" font-family="FreeSans" font-size="10.00" fill="#000000">SetDefaultParameters</text>
</a>
</g>
</g>
<!-- Node1&#45;&gt;Node3 -->
<g id="edge2" class="edge">
<title>Node1&#45;&gt;Node3</title>
<path fill="none" stroke="#191970" d="M164.765,-136.9136C188.0688,-142.4673 213.4166,-148.5082 235.8859,-153.863"/>
<polygon fill="#191970" stroke="#191970" points="165.4562,-133.4804 154.9172,-134.5667 163.8334,-140.2897 165.4562,-133.4804"/>
</g>
<!-- Node4 -->
<g id="node4" class="node">
<title>Node4</title>
<g id="a_node4"><a xlink:href="../../d3/d9f/classPHG4EICMvtxSubsystem.html#a9a828ff9662afcbc09e0d18a5f95f9cf" target="_top" xlink:title="PHG4EICMvtxSubsystem\l::SetDefaultParameters">
<polygon fill="none" stroke="#000000" points="231,-102.5 231,-134.5 372,-134.5 372,-102.5 231,-102.5"/>
<text text-anchor="start" x="239" y="-121.5" font-family="FreeSans" font-size="10.00" fill="#000000">PHG4EICMvtxSubsystem</text>
<text text-anchor="middle" x="301.5" y="-109.5" font-family="FreeSans" font-size="10.00" fill="#000000">::SetDefaultParameters</text>
</a>
</g>
</g>
<!-- Node1&#45;&gt;Node4 -->
<g id="edge3" class="edge">
<title>Node1&#45;&gt;Node4</title>
<path fill="none" stroke="#191970" d="M185.2417,-118.5C200.6616,-118.5 216.3398,-118.5 230.9825,-118.5"/>
<polygon fill="#191970" stroke="#191970" points="185.1595,-115.0001 175.1595,-118.5 185.1594,-122.0001 185.1595,-115.0001"/>
</g>
<!-- Node5 -->
<g id="node5" class="node">
<title>Node5</title>
<g id="a_node5"><a xlink:href="../../d6/d09/classPHG4InttSubsystem.html#a315e4cc3fc2de45035d1c676adc40ddf" target="_top" xlink:title="PHG4InttSubsystem::\lSetDefaultParameters">
<polygon fill="none" stroke="#000000" points="238,-51.5 238,-83.5 365,-83.5 365,-51.5 238,-51.5"/>
<text text-anchor="start" x="246" y="-70.5" font-family="FreeSans" font-size="10.00" fill="#000000">PHG4InttSubsystem::</text>
<text text-anchor="middle" x="301.5" y="-58.5" font-family="FreeSans" font-size="10.00" fill="#000000">SetDefaultParameters</text>
</a>
</g>
</g>
<!-- Node1&#45;&gt;Node5 -->
<g id="edge4" class="edge">
<title>Node1&#45;&gt;Node5</title>
<path fill="none" stroke="#191970" d="M164.6822,-100.1061C188.6397,-94.3966 214.7646,-88.1706 237.705,-82.7035"/>
<polygon fill="#191970" stroke="#191970" points="163.8334,-96.7103 154.9172,-102.4333 165.4562,-103.5196 163.8334,-96.7103"/>
</g>
<!-- Node6 -->
<g id="node6" class="node">
<title>Node6</title>
<g id="a_node6"><a xlink:href="../../dd/d21/classPHG4PSTOFSubsystem.html#a361be7f0c54c622670f450460c707c82" target="_top" xlink:title="PHG4PSTOFSubsystem\l::SetDefaultParameters">
<polygon fill="none" stroke="#000000" points="234.5,-.5 234.5,-32.5 368.5,-32.5 368.5,-.5 234.5,-.5"/>
<text text-anchor="start" x="242.5" y="-19.5" font-family="FreeSans" font-size="10.00" fill="#000000">PHG4PSTOFSubsystem</text>
<text text-anchor="middle" x="301.5" y="-7.5" font-family="FreeSans" font-size="10.00" fill="#000000">::SetDefaultParameters</text>
</a>
</g>
</g>
<!-- Node1&#45;&gt;Node6 -->
<g id="edge5" class="edge">
<title>Node1&#45;&gt;Node6</title>
<path fill="none" stroke="#191970" d="M118.099,-96.3996C142.3356,-79.7192 177.5649,-57.2593 211,-42.5 219.3748,-38.8031 228.4163,-35.4794 237.4319,-32.5426"/>
<polygon fill="#191970" stroke="#191970" points="115.8944,-93.6699 109.6908,-102.2586 119.8964,-99.4131 115.8944,-93.6699"/>
</g>
</g>
</svg>
