<?xml version="1.0" encoding="UTF-8" standalone="no"?>
<!DOCTYPE svg PUBLIC "-//W3C//DTD SVG 1.1//EN"
 "http://www.w3.org/Graphics/SVG/1.1/DTD/svg11.dtd">
<!-- Generated by graphviz version 2.40.1 (20161225.0304)
 -->
<!-- Title: Prototype2RawTowerBuilder::InitRun Pages: 1 -->
<svg width="1144pt" height="1031pt"
 viewBox="0.00 0.00 1144.00 1031.00" xmlns="http://www.w3.org/2000/svg" xmlns:xlink="http://www.w3.org/1999/xlink">
<g id="graph0" class="graph" transform="scale(1 1) rotate(0) translate(4 1027)">
<title>Prototype2RawTowerBuilder::InitRun</title>
<!-- Node1 -->
<g id="node1" class="node">
<title>Node1</title>
<polygon fill="#bfbfbf" stroke="#000000" points="0,-498.5 0,-530.5 158,-530.5 158,-498.5 0,-498.5"/>
<text text-anchor="start" x="8" y="-517.5" font-family="FreeSans" font-size="10.00" fill="#000000">Prototype2RawTowerBuilder</text>
<text text-anchor="middle" x="79" y="-505.5" font-family="FreeSans" font-size="10.00" fill="#000000">::InitRun</text>
</g>
<!-- Node2 -->
<g id="node2" class="node">
<title>Node2</title>
<g id="a_node2"><a xlink:href="../../df/d49/classRawTowerGeomContainer.html#a28e5701750d21b4a32f11f7cc92fbb18" target="_top" xlink:title="go through all towers">
<polygon fill="none" stroke="#000000" points="205.5,-990.5 205.5,-1022.5 352.5,-1022.5 352.5,-990.5 205.5,-990.5"/>
<text text-anchor="start" x="213.5" y="-1009.5" font-family="FreeSans" font-size="10.00" fill="#000000">RawTowerGeomContainer</text>
<text text-anchor="middle" x="279" y="-997.5" font-family="FreeSans" font-size="10.00" fill="#000000">::add_tower_geometry</text>
</a>
</g>
</g>
<!-- Node1&#45;&gt;Node2 -->
<g id="edge1" class="edge">
<title>Node1&#45;&gt;Node2</title>
<path fill="none" stroke="#191970" d="M80.8526,-530.8952C89.6175,-605.6856 129.2194,-913.7636 194,-981.5 195.0631,-982.6117 196.1729,-983.6746 197.3241,-984.691"/>
<polygon fill="#191970" stroke="#191970" points="195.3532,-987.587 205.4665,-990.7449 199.5298,-981.9695 195.3532,-987.587"/>
</g>
<!-- Node3 -->
<g id="node3" class="node">
<title>Node3</title>
<g id="a_node3"><a xlink:href="../../d5/dca/classPHCompositeNode.html#a15a0c4804399a9de4267647f05bd1ba4" target="_top" xlink:title="PHCompositeNode::addNode">
<polygon fill="none" stroke="#000000" points="407.5,-910.5 407.5,-930.5 569.5,-930.5 569.5,-910.5 407.5,-910.5"/>
<text text-anchor="middle" x="488.5" y="-917.5" font-family="FreeSans" font-size="10.00" fill="#000000">PHCompositeNode::addNode</text>
</a>
</g>
</g>
<!-- Node1&#45;&gt;Node3 -->
<g id="edge2" class="edge">
<title>Node1&#45;&gt;Node3</title>
<path fill="none" stroke="#191970" d="M81.5089,-530.5785C92.1075,-596.3203 135.3798,-843.4686 194,-891.5 224.1737,-916.2234 322.1778,-921.8197 396.9218,-922.2815"/>
<polygon fill="#191970" stroke="#191970" points="397.2937,-925.7826 407.3047,-922.314 397.3157,-918.7826 397.2937,-925.7826"/>
</g>
<!-- Node7 -->
<g id="node7" class="node">
<title>Node7</title>
<g id="a_node7"><a xlink:href="../../da/d58/namespaceRawTowerDefs.html#a833750b09c330a79395b15bcf1d93a9e" target="_top" xlink:title="RawTowerDefs::convert\l_name_to_caloid">
<polygon fill="none" stroke="#000000" points="211.5,-792.5 211.5,-824.5 346.5,-824.5 346.5,-792.5 211.5,-792.5"/>
<text text-anchor="start" x="219.5" y="-811.5" font-family="FreeSans" font-size="10.00" fill="#000000">RawTowerDefs::convert</text>
<text text-anchor="middle" x="279" y="-799.5" font-family="FreeSans" font-size="10.00" fill="#000000">_name_to_caloid</text>
</a>
</g>
</g>
<!-- Node1&#45;&gt;Node7 -->
<g id="edge6" class="edge">
<title>Node1&#45;&gt;Node7</title>
<path fill="none" stroke="#191970" d="M81.0816,-530.5727C87.9609,-577.0272 114.2667,-712.6567 194,-783.5 196.5297,-785.7477 199.2524,-787.7937 202.1162,-789.6561"/>
<polygon fill="#191970" stroke="#191970" points="200.6494,-792.847 211.0791,-794.7104 204.0878,-786.7497 200.6494,-792.847"/>
</g>
<!-- Node8 -->
<g id="node8" class="node">
<title>Node8</title>
<g id="a_node8"><a xlink:href="../../da/d58/namespaceRawTowerDefs.html#a188fb7233354634d301c172177ab1ab6" target="_top" xlink:title="RawTowerDefs::encode\l_towerid">
<polygon fill="none" stroke="#000000" points="212.5,-741.5 212.5,-773.5 345.5,-773.5 345.5,-741.5 212.5,-741.5"/>
<text text-anchor="start" x="220.5" y="-760.5" font-family="FreeSans" font-size="10.00" fill="#000000">RawTowerDefs::encode</text>
<text text-anchor="middle" x="279" y="-748.5" font-family="FreeSans" font-size="10.00" fill="#000000">_towerid</text>
</a>
</g>
</g>
<!-- Node1&#45;&gt;Node8 -->
<g id="edge7" class="edge">
<title>Node1&#45;&gt;Node8</title>
<path fill="none" stroke="#191970" d="M82.8669,-530.6903C93.3658,-571.0941 126.2728,-677.0887 194,-732.5 196.9093,-734.8803 200.0378,-737.0339 203.317,-738.9825"/>
<polygon fill="#191970" stroke="#191970" points="201.8183,-742.1484 212.3024,-743.6765 205.0595,-735.944 201.8183,-742.1484"/>
</g>
<!-- Node9 -->
<g id="node9" class="node">
<title>Node9</title>
<g id="a_node9"><a xlink:href="../../d5/d07/classPHNodeIterator.html#aea98bf8619af59b1212a94fb32106baa" target="_top" xlink:title="PHNodeIterator::findFirst">
<polygon fill="none" stroke="#000000" points="208.5,-843.5 208.5,-863.5 349.5,-863.5 349.5,-843.5 208.5,-843.5"/>
<text text-anchor="middle" x="279" y="-850.5" font-family="FreeSans" font-size="10.00" fill="#000000">PHNodeIterator::findFirst</text>
</a>
</g>
</g>
<!-- Node1&#45;&gt;Node9 -->
<g id="edge8" class="edge">
<title>Node1&#45;&gt;Node9</title>
<path fill="none" stroke="#191970" d="M79.6203,-530.7651C82.5525,-583.4644 99.2602,-750.9271 194,-834.5 195.7506,-836.0442 197.5991,-837.4713 199.5274,-838.7897"/>
<polygon fill="#191970" stroke="#191970" points="198.0212,-841.9607 208.4368,-843.901 201.5045,-835.8889 198.0212,-841.9607"/>
</g>
<!-- Node11 -->
<g id="node11" class="node">
<title>Node11</title>
<g id="a_node11"><a xlink:href="../../d4/d31/classPHParameterInterface.html#ad2a1bcd8dfa116aeb75cafc5b81c059d" target="_top" xlink:title="PHParameterInterface\l::get_double_param">
<polygon fill="none" stroke="#000000" points="215.5,-690.5 215.5,-722.5 342.5,-722.5 342.5,-690.5 215.5,-690.5"/>
<text text-anchor="start" x="223.5" y="-709.5" font-family="FreeSans" font-size="10.00" fill="#000000">PHParameterInterface</text>
<text text-anchor="middle" x="279" y="-697.5" font-family="FreeSans" font-size="10.00" fill="#000000">::get_double_param</text>
</a>
</g>
</g>
<!-- Node1&#45;&gt;Node11 -->
<g id="edge12" class="edge">
<title>Node1&#45;&gt;Node11</title>
<path fill="none" stroke="#191970" d="M85.5601,-530.5397C100.0123,-563.8541 137.8379,-640.8175 194,-681.5 197.8461,-684.286 202.0009,-686.7637 206.334,-688.9669"/>
<polygon fill="#191970" stroke="#191970" points="204.8855,-692.153 215.4367,-693.1144 207.788,-685.7831 204.8855,-692.153"/>
</g>
<!-- Node13 -->
<g id="node13" class="node">
<title>Node13</title>
<g id="a_node13"><a xlink:href="../../d0/d25/group__cylindrical__calorimeter.html#ga3d283957eb2f3bc0b27e3217d37b8dfb" target="_top" xlink:title="RawTowerGeomContainer\l::get_etabins">
<polygon fill="none" stroke="#000000" points="205.5,-639.5 205.5,-671.5 352.5,-671.5 352.5,-639.5 205.5,-639.5"/>
<text text-anchor="start" x="213.5" y="-658.5" font-family="FreeSans" font-size="10.00" fill="#000000">RawTowerGeomContainer</text>
<text text-anchor="middle" x="279" y="-646.5" font-family="FreeSans" font-size="10.00" fill="#000000">::get_etabins</text>
</a>
</g>
</g>
<!-- Node1&#45;&gt;Node13 -->
<g id="edge14" class="edge">
<title>Node1&#45;&gt;Node13</title>
<path fill="none" stroke="#191970" d="M90.5393,-530.5222C109.3846,-555.5371 149.189,-603.7674 194,-630.5 196.8401,-632.1943 199.8028,-633.7804 202.8472,-635.2644"/>
<polygon fill="#191970" stroke="#191970" points="201.6263,-638.5519 212.1858,-639.4167 204.4703,-632.1556 201.6263,-638.5519"/>
</g>
<!-- Node14 -->
<g id="node14" class="node">
<title>Node14</title>
<g id="a_node14"><a xlink:href="../../d4/d31/classPHParameterInterface.html#a0198091b361ca684ba272828613ed9a4" target="_top" xlink:title="PHParameterInterface\l::get_int_param">
<polygon fill="none" stroke="#000000" points="215.5,-588.5 215.5,-620.5 342.5,-620.5 342.5,-588.5 215.5,-588.5"/>
<text text-anchor="start" x="223.5" y="-607.5" font-family="FreeSans" font-size="10.00" fill="#000000">PHParameterInterface</text>
<text text-anchor="middle" x="279" y="-595.5" font-family="FreeSans" font-size="10.00" fill="#000000">::get_int_param</text>
</a>
</g>
</g>
<!-- Node1&#45;&gt;Node14 -->
<g id="edge15" class="edge">
<title>Node1&#45;&gt;Node14</title>
<path fill="none" stroke="#191970" d="M107.8221,-530.5539C130.7954,-543.0389 163.978,-560.3847 194,-573.5 203.0683,-577.4616 212.8211,-581.3507 222.3723,-584.9632"/>
<polygon fill="#191970" stroke="#191970" points="221.2305,-588.2727 231.8234,-588.4759 223.6692,-581.7112 221.2305,-588.2727"/>
</g>
<!-- Node16 -->
<g id="node16" class="node">
<title>Node16</title>
<g id="a_node16"><a xlink:href="../../d0/d25/group__cylindrical__calorimeter.html#gab9c3a0fa996fffad8aa107d62d5b26b6" target="_top" xlink:title="RawTowerGeomContainer\l::get_phibins">
<polygon fill="none" stroke="#000000" points="205.5,-408.5 205.5,-440.5 352.5,-440.5 352.5,-408.5 205.5,-408.5"/>
<text text-anchor="start" x="213.5" y="-427.5" font-family="FreeSans" font-size="10.00" fill="#000000">RawTowerGeomContainer</text>
<text text-anchor="middle" x="279" y="-415.5" font-family="FreeSans" font-size="10.00" fill="#000000">::get_phibins</text>
</a>
</g>
</g>
<!-- Node1&#45;&gt;Node16 -->
<g id="edge17" class="edge">
<title>Node1&#45;&gt;Node16</title>
<path fill="none" stroke="#191970" d="M107.8221,-498.4461C130.7954,-485.9611 163.978,-468.6153 194,-455.5 203.0683,-451.5384 212.8211,-447.6493 222.3723,-444.0368"/>
<polygon fill="#191970" stroke="#191970" points="223.6692,-447.2888 231.8234,-440.5241 221.2305,-440.7273 223.6692,-447.2888"/>
</g>
<!-- Node17 -->
<g id="node17" class="node">
<title>Node17</title>
<g id="a_node17"><a xlink:href="../../da/d29/classFun4AllServer.html#a3e55156f91b2c94bb6c4ef33ffce587a" target="_top" xlink:title="Fun4AllServer::instance">
<polygon fill="none" stroke="#000000" points="420.5,-549.5 420.5,-569.5 556.5,-569.5 556.5,-549.5 420.5,-549.5"/>
<text text-anchor="middle" x="488.5" y="-556.5" font-family="FreeSans" font-size="10.00" fill="#000000">Fun4AllServer::instance</text>
</a>
</g>
</g>
<!-- Node1&#45;&gt;Node17 -->
<g id="edge18" class="edge">
<title>Node1&#45;&gt;Node17</title>
<path fill="none" stroke="#191970" d="M141.6344,-530.5441C158.5338,-534.3557 176.881,-538.0284 194,-540.5 266.8625,-551.0198 350.7102,-555.7161 410.2574,-557.8121"/>
<polygon fill="#191970" stroke="#191970" points="410.2294,-561.3131 420.3412,-558.1504 410.4642,-554.317 410.2294,-561.3131"/>
</g>
<!-- Node18 -->
<g id="node18" class="node">
<title>Node18</title>
<g id="a_node18"><a xlink:href="../../da/d29/classFun4AllServer.html#a9d3cdd0e26d8849bfd4652f20587e2df" target="_top" xlink:title="Fun4AllServer::Print">
<polygon fill="none" stroke="#000000" points="430,-420.5 430,-440.5 547,-440.5 547,-420.5 430,-420.5"/>
<text text-anchor="middle" x="488.5" y="-427.5" font-family="FreeSans" font-size="10.00" fill="#000000">Fun4AllServer::Print</text>
</a>
</g>
</g>
<!-- Node1&#45;&gt;Node18 -->
<g id="edge19" class="edge">
<title>Node1&#45;&gt;Node18</title>
<path fill="none" stroke="#191970" d="M151.9647,-498.4502C165.9109,-495.4357 180.4,-492.3404 194,-489.5 274.4597,-472.6959 367.4915,-454.2165 427.1072,-442.4961"/>
<polygon fill="#191970" stroke="#191970" points="427.9715,-445.8933 437.1094,-440.5314 426.6222,-439.0245 427.9715,-445.8933"/>
</g>
<!-- Node22 -->
<g id="node22" class="node">
<title>Node22</title>
<g id="a_node22"><a xlink:href="../../d4/d31/classPHParameterInterface.html#a843431a58ea1f6414cd05e0121bf163c" target="_top" xlink:title="PHParameterInterface\l::PutOnParNode">
<polygon fill="none" stroke="#000000" points="215.5,-939.5 215.5,-971.5 342.5,-971.5 342.5,-939.5 215.5,-939.5"/>
<text text-anchor="start" x="223.5" y="-958.5" font-family="FreeSans" font-size="10.00" fill="#000000">PHParameterInterface</text>
<text text-anchor="middle" x="279" y="-946.5" font-family="FreeSans" font-size="10.00" fill="#000000">::PutOnParNode</text>
</a>
</g>
</g>
<!-- Node1&#45;&gt;Node22 -->
<g id="edge23" class="edge">
<title>Node1&#45;&gt;Node22</title>
<path fill="none" stroke="#191970" d="M81.5209,-530.6259C92.4992,-598.9943 138.1035,-864.1699 194,-924.5 197.7365,-928.5328 202.04,-932.0424 206.6859,-935.0963"/>
<polygon fill="#191970" stroke="#191970" points="204.9601,-938.1414 215.3693,-940.1161 208.4635,-932.0812 204.9601,-938.1414"/>
</g>
<!-- Node23 -->
<g id="node23" class="node">
<title>Node23</title>
<g id="a_node23"><a xlink:href="../../d6/d1b/classPrototype2RawTowerBuilder.html#a9495dbf32264edc680dd19fb5d242837" target="_top" xlink:title="Prototype2RawTowerBuilder\l::ReadParamsFromNodeTree">
<polygon fill="none" stroke="#000000" points="200,-498.5 200,-530.5 358,-530.5 358,-498.5 200,-498.5"/>
<text text-anchor="start" x="208" y="-517.5" font-family="FreeSans" font-size="10.00" fill="#000000">Prototype2RawTowerBuilder</text>
<text text-anchor="middle" x="279" y="-505.5" font-family="FreeSans" font-size="10.00" fill="#000000">::ReadParamsFromNodeTree</text>
</a>
</g>
</g>
<!-- Node1&#45;&gt;Node23 -->
<g id="edge25" class="edge">
<title>Node1&#45;&gt;Node23</title>
<path fill="none" stroke="#191970" d="M158.0453,-514.5C168.4709,-514.5 179.2146,-514.5 189.7953,-514.5"/>
<polygon fill="#191970" stroke="#191970" points="189.874,-518.0001 199.8739,-514.5 189.8739,-511.0001 189.874,-518.0001"/>
</g>
<!-- Node29 -->
<g id="node29" class="node">
<title>Node29</title>
<g id="a_node29"><a xlink:href="../../d4/d31/classPHParameterInterface.html#ab386d05bc4aa6e4e3fcd2ff4d466aeb1" target="_top" xlink:title="PHParameterInterface\l::SaveToNodeTree">
<polygon fill="none" stroke="#000000" points="215.5,-357.5 215.5,-389.5 342.5,-389.5 342.5,-357.5 215.5,-357.5"/>
<text text-anchor="start" x="223.5" y="-376.5" font-family="FreeSans" font-size="10.00" fill="#000000">PHParameterInterface</text>
<text text-anchor="middle" x="279" y="-364.5" font-family="FreeSans" font-size="10.00" fill="#000000">::SaveToNodeTree</text>
</a>
</g>
</g>
<!-- Node1&#45;&gt;Node29 -->
<g id="edge34" class="edge">
<title>Node1&#45;&gt;Node29</title>
<path fill="none" stroke="#191970" d="M90.9165,-498.2723C109.9767,-473.4442 149.7117,-426.1153 194,-399.5 197.8235,-397.2023 201.8672,-395.0919 206.0328,-393.156"/>
<polygon fill="#191970" stroke="#191970" points="207.4886,-396.3401 215.3082,-389.1913 204.7373,-389.9034 207.4886,-396.3401"/>
</g>
<!-- Node36 -->
<g id="node36" class="node">
<title>Node36</title>
<g id="a_node36"><a xlink:href="../../db/d29/classRawTowerGeomv1.html#a8d08699ec9f2281e55ae0ecaec29fd2c" target="_top" xlink:title="RawTowerGeomv1::set\l_center_x">
<polygon fill="none" stroke="#000000" points="213,-306.5 213,-338.5 345,-338.5 345,-306.5 213,-306.5"/>
<text text-anchor="start" x="221" y="-325.5" font-family="FreeSans" font-size="10.00" fill="#000000">RawTowerGeomv1::set</text>
<text text-anchor="middle" x="279" y="-313.5" font-family="FreeSans" font-size="10.00" fill="#000000">_center_x</text>
</a>
</g>
</g>
<!-- Node1&#45;&gt;Node36 -->
<g id="edge41" class="edge">
<title>Node1&#45;&gt;Node36</title>
<path fill="none" stroke="#191970" d="M85.846,-498.0981C100.5787,-464.8063 138.5111,-389.0336 194,-348.5 197.0452,-346.2755 200.2836,-344.2388 203.6505,-342.3743"/>
<polygon fill="#191970" stroke="#191970" points="205.4132,-345.407 212.8188,-337.8303 202.3046,-339.1351 205.4132,-345.407"/>
</g>
<!-- Node37 -->
<g id="node37" class="node">
<title>Node37</title>
<g id="a_node37"><a xlink:href="../../db/d29/classRawTowerGeomv1.html#a3999248d2db94785b823caf0b03ce566" target="_top" xlink:title="RawTowerGeomv1::set\l_center_y">
<polygon fill="none" stroke="#000000" points="213,-255.5 213,-287.5 345,-287.5 345,-255.5 213,-255.5"/>
<text text-anchor="start" x="221" y="-274.5" font-family="FreeSans" font-size="10.00" fill="#000000">RawTowerGeomv1::set</text>
<text text-anchor="middle" x="279" y="-262.5" font-family="FreeSans" font-size="10.00" fill="#000000">_center_y</text>
</a>
</g>
</g>
<!-- Node1&#45;&gt;Node37 -->
<g id="edge42" class="edge">
<title>Node1&#45;&gt;Node37</title>
<path fill="none" stroke="#191970" d="M82.9263,-498.4271C93.5626,-458.3084 126.7619,-353.0121 194,-297.5 197.0587,-294.9747 200.3601,-292.6944 203.8246,-290.6354"/>
<polygon fill="#191970" stroke="#191970" points="205.5014,-293.7081 212.7269,-285.9594 202.2463,-287.511 205.5014,-293.7081"/>
</g>
<!-- Node38 -->
<g id="node38" class="node">
<title>Node38</title>
<g id="a_node38"><a xlink:href="../../db/d29/classRawTowerGeomv1.html#aa6d136ba5ce04f823fdc5ca82b48305a" target="_top" xlink:title="RawTowerGeomv1::set\l_center_z">
<polygon fill="none" stroke="#000000" points="213,-204.5 213,-236.5 345,-236.5 345,-204.5 213,-204.5"/>
<text text-anchor="start" x="221" y="-223.5" font-family="FreeSans" font-size="10.00" fill="#000000">RawTowerGeomv1::set</text>
<text text-anchor="middle" x="279" y="-211.5" font-family="FreeSans" font-size="10.00" fill="#000000">_center_z</text>
</a>
</g>
</g>
<!-- Node1&#45;&gt;Node38 -->
<g id="edge43" class="edge">
<title>Node1&#45;&gt;Node38</title>
<path fill="none" stroke="#191970" d="M81.1889,-498.196C88.2984,-451.7127 115.0401,-317.3263 194,-246.5 197.0155,-243.7951 200.3063,-241.3716 203.7842,-239.2002"/>
<polygon fill="#191970" stroke="#191970" points="205.6594,-242.1643 212.7646,-234.3051 202.3092,-236.018 205.6594,-242.1643"/>
</g>
<!-- Node39 -->
<g id="node39" class="node">
<title>Node39</title>
<g id="a_node39"><a xlink:href="../../d0/d25/group__cylindrical__calorimeter.html#ga4a02e698572e79eee5d2fb0c1ef7ee53" target="_top" xlink:title="RawTowerGeomContainer\l::set_etabins">
<polygon fill="none" stroke="#000000" points="205.5,-153.5 205.5,-185.5 352.5,-185.5 352.5,-153.5 205.5,-153.5"/>
<text text-anchor="start" x="213.5" y="-172.5" font-family="FreeSans" font-size="10.00" fill="#000000">RawTowerGeomContainer</text>
<text text-anchor="middle" x="279" y="-160.5" font-family="FreeSans" font-size="10.00" fill="#000000">::set_etabins</text>
</a>
</g>
</g>
<!-- Node1&#45;&gt;Node39 -->
<g id="edge44" class="edge">
<title>Node1&#45;&gt;Node39</title>
<path fill="none" stroke="#191970" d="M79.9293,-498.2089C83.7883,-446.1494 102.9671,-282.1647 194,-195.5 195.5089,-194.0635 197.095,-192.7063 198.746,-191.4238"/>
<polygon fill="#191970" stroke="#191970" points="201.0942,-194.0657 207.4847,-185.6152 197.2191,-188.2361 201.0942,-194.0657"/>
</g>
<!-- Node40 -->
<g id="node40" class="node">
<title>Node40</title>
<g id="a_node40"><a xlink:href="../../d0/d25/group__cylindrical__calorimeter.html#ga436ab46735107801f9b73d5e5ef5c189" target="_top" xlink:title="RawTowerGeomContainer\l::set_phibins">
<polygon fill="none" stroke="#000000" points="205.5,-102.5 205.5,-134.5 352.5,-134.5 352.5,-102.5 205.5,-102.5"/>
<text text-anchor="start" x="213.5" y="-121.5" font-family="FreeSans" font-size="10.00" fill="#000000">RawTowerGeomContainer</text>
<text text-anchor="middle" x="279" y="-109.5" font-family="FreeSans" font-size="10.00" fill="#000000">::set_phibins</text>
</a>
</g>
</g>
<!-- Node1&#45;&gt;Node40 -->
<g id="edge45" class="edge">
<title>Node1&#45;&gt;Node40</title>
<path fill="none" stroke="#191970" d="M81.9889,-498.1466C94.1063,-433.5092 141.4415,-196.8225 194,-144.5 195.4354,-143.071 196.9471,-141.7202 198.5234,-140.4434"/>
<polygon fill="#191970" stroke="#191970" points="200.6574,-143.223 206.89,-134.6553 196.6749,-137.4663 200.6574,-143.223"/>
</g>
<!-- Node41 -->
<g id="node41" class="node">
<title>Node41</title>
<g id="a_node41"><a xlink:href="../../d4/d31/classPHParameterInterface.html#ae61699fe7fdd30a6327893f31e6ed7f8" target="_top" xlink:title="PHParameterInterface\l::UpdateParametersWithMacro">
<polygon fill="none" stroke="#000000" points="194,-51.5 194,-83.5 364,-83.5 364,-51.5 194,-51.5"/>
<text text-anchor="start" x="202" y="-70.5" font-family="FreeSans" font-size="10.00" fill="#000000">PHParameterInterface</text>
<text text-anchor="middle" x="279" y="-58.5" font-family="FreeSans" font-size="10.00" fill="#000000">::UpdateParametersWithMacro</text>
</a>
</g>
</g>
<!-- Node1&#45;&gt;Node41 -->
<g id="edge46" class="edge">
<title>Node1&#45;&gt;Node41</title>
<path fill="none" stroke="#191970" d="M81.3075,-498.3391C91.5707,-428.5884 135.1712,-154.1323 194,-93.5 195.4104,-92.0463 196.8996,-90.6734 198.4559,-89.3767"/>
<polygon fill="#191970" stroke="#191970" points="200.6037,-92.1445 206.741,-83.5082 196.5576,-86.4323 200.6037,-92.1445"/>
</g>
<!-- Node45 -->
<g id="node45" class="node">
<title>Node45</title>
<g id="a_node45"><a xlink:href="../../d5/dec/classFun4AllBase.html#a8a5c77a92bdac6bc043476e132379a40" target="_top" xlink:title="Gets the verbosity of this module.">
<polygon fill="none" stroke="#000000" points="213,-12.5 213,-32.5 345,-32.5 345,-12.5 213,-12.5"/>
<text text-anchor="middle" x="279" y="-19.5" font-family="FreeSans" font-size="10.00" fill="#000000">Fun4AllBase::Verbosity</text>
</a>
</g>
</g>
<!-- Node1&#45;&gt;Node45 -->
<g id="edge50" class="edge">
<title>Node1&#45;&gt;Node45</title>
<path fill="none" stroke="#191970" d="M80.6874,-498.3523C88.852,-423.2936 126.6423,-109.3279 194,-42.5 196.9427,-39.5804 200.2265,-37.0564 203.745,-34.8766"/>
<polygon fill="#191970" stroke="#191970" points="205.6367,-37.8389 212.9138,-30.1385 202.423,-31.6201 205.6367,-37.8389"/>
</g>
<!-- Node4 -->
<g id="node4" class="node">
<title>Node4</title>
<g id="a_node4"><a xlink:href="../../d6/d86/classPHPointerList.html#ac2176735e9d046a034f1686fd2c477eb" target="_top" xlink:title="PHPointerList::append">
<polygon fill="none" stroke="#000000" points="660.5,-900.5 660.5,-920.5 788.5,-920.5 788.5,-900.5 660.5,-900.5"/>
<text text-anchor="middle" x="724.5" y="-907.5" font-family="FreeSans" font-size="10.00" fill="#000000">PHPointerList::append</text>
</a>
</g>
</g>
<!-- Node3&#45;&gt;Node4 -->
<g id="edge3" class="edge">
<title>Node3&#45;&gt;Node4</title>
<path fill="none" stroke="#191970" d="M569.7178,-917.0586C595.849,-915.9513 624.654,-914.7308 650.2572,-913.6459"/>
<polygon fill="#191970" stroke="#191970" points="650.4273,-917.1419 660.2701,-913.2216 650.1309,-910.1482 650.4273,-917.1419"/>
</g>
<!-- Node5 -->
<g id="node5" class="node">
<title>Node5</title>
<g id="a_node5"><a xlink:href="../../dc/d82/classPHNode.html#aca3576f926a4401eddc3d88bf0ce0de3" target="_top" xlink:title="PHNode::getName">
<polygon fill="none" stroke="#000000" points="670,-842.5 670,-862.5 779,-862.5 779,-842.5 670,-842.5"/>
<text text-anchor="middle" x="724.5" y="-849.5" font-family="FreeSans" font-size="10.00" fill="#000000">PHNode::getName</text>
</a>
</g>
</g>
<!-- Node3&#45;&gt;Node5 -->
<g id="edge4" class="edge">
<title>Node3&#45;&gt;Node5</title>
<path fill="none" stroke="#191970" d="M539.7405,-910.4935C552.0093,-907.8239 565.0224,-904.7648 577,-901.5 615.2424,-891.0762 658.1623,-876.4815 687.8003,-865.9345"/>
<polygon fill="#191970" stroke="#191970" points="689.083,-869.1928 697.3163,-862.5247 686.7217,-862.6031 689.083,-869.1928"/>
</g>
<!-- Node6 -->
<g id="node6" class="node">
<title>Node6</title>
<g id="a_node6"><a xlink:href="../../dc/d82/classPHNode.html#adda2bd6cef2d5067bbe3016a990b7198" target="_top" xlink:title="PHNode::setParent">
<polygon fill="none" stroke="#000000" points="669,-939.5 669,-959.5 780,-959.5 780,-939.5 669,-939.5"/>
<text text-anchor="middle" x="724.5" y="-946.5" font-family="FreeSans" font-size="10.00" fill="#000000">PHNode::setParent</text>
</a>
</g>
</g>
<!-- Node3&#45;&gt;Node6 -->
<g id="edge5" class="edge">
<title>Node3&#45;&gt;Node6</title>
<path fill="none" stroke="#191970" d="M569.7178,-930.4802C598.8114,-934.0552 631.2197,-938.0376 658.8331,-941.4308"/>
<polygon fill="#191970" stroke="#191970" points="658.4222,-944.9065 668.7745,-942.6524 659.276,-937.9588 658.4222,-944.9065"/>
</g>
<!-- Node9&#45;&gt;Node5 -->
<g id="edge10" class="edge">
<title>Node9&#45;&gt;Node5</title>
<path fill="none" stroke="#191970" d="M349.5908,-853.3415C434.8512,-853.1502 577.0825,-852.8309 659.6735,-852.6455"/>
<polygon fill="#191970" stroke="#191970" points="659.696,-856.1456 669.6881,-852.623 659.6803,-849.1456 659.696,-856.1456"/>
</g>
<!-- Node9&#45;&gt;Node9 -->
<g id="edge9" class="edge">
<title>Node9&#45;&gt;Node9</title>
<path fill="none" stroke="#191970" d="M247.689,-863.7271C233.4067,-872.6067 243.8438,-882 279,-882 303.1699,-882 315.6561,-877.5602 316.4587,-871.8999"/>
<polygon fill="#191970" stroke="#191970" points="319.1194,-869.6147 310.311,-863.7271 313.5253,-873.8226 319.1194,-869.6147"/>
</g>
<!-- Node10 -->
<g id="node10" class="node">
<title>Node10</title>
<g id="a_node10"><a xlink:href="../../dc/d82/classPHNode.html#a4ab1f90aed955a652813bfe377087bda" target="_top" xlink:title="PHNode::getType">
<polygon fill="none" stroke="#000000" points="437,-871.5 437,-891.5 540,-891.5 540,-871.5 437,-871.5"/>
<text text-anchor="middle" x="488.5" y="-878.5" font-family="FreeSans" font-size="10.00" fill="#000000">PHNode::getType</text>
</a>
</g>
</g>
<!-- Node9&#45;&gt;Node10 -->
<g id="edge11" class="edge">
<title>Node9&#45;&gt;Node10</title>
<path fill="none" stroke="#191970" d="M349.6351,-862.9405C374.5808,-866.2745 402.4242,-869.9958 426.5918,-873.2259"/>
<polygon fill="#191970" stroke="#191970" points="426.3295,-876.7219 436.7051,-874.5775 427.2569,-869.7836 426.3295,-876.7219"/>
</g>
<!-- Node12 -->
<g id="node12" class="node">
<title>Node12</title>
<g id="a_node12"><a xlink:href="../../dd/dae/classPHParameters.html#aa61ce249b94375d9af4482c36a1308cf" target="_top" xlink:title="PHParameters::get_double\l_param">
<polygon fill="none" stroke="#000000" points="413.5,-690.5 413.5,-722.5 563.5,-722.5 563.5,-690.5 413.5,-690.5"/>
<text text-anchor="start" x="421.5" y="-709.5" font-family="FreeSans" font-size="10.00" fill="#000000">PHParameters::get_double</text>
<text text-anchor="middle" x="488.5" y="-697.5" font-family="FreeSans" font-size="10.00" fill="#000000">_param</text>
</a>
</g>
</g>
<!-- Node11&#45;&gt;Node12 -->
<g id="edge13" class="edge">
<title>Node11&#45;&gt;Node12</title>
<path fill="none" stroke="#191970" d="M342.7102,-706.5C361.7622,-706.5 382.9657,-706.5 403.1702,-706.5"/>
<polygon fill="#191970" stroke="#191970" points="403.3102,-710.0001 413.3102,-706.5 403.3101,-703.0001 403.3102,-710.0001"/>
</g>
<!-- Node15 -->
<g id="node15" class="node">
<title>Node15</title>
<g id="a_node15"><a xlink:href="../../dd/dae/classPHParameters.html#a0241ca27a369ab4865ac3d79620ac27c" target="_top" xlink:title="PHParameters::get_int\l_param">
<polygon fill="none" stroke="#000000" points="424,-588.5 424,-620.5 553,-620.5 553,-588.5 424,-588.5"/>
<text text-anchor="start" x="432" y="-607.5" font-family="FreeSans" font-size="10.00" fill="#000000">PHParameters::get_int</text>
<text text-anchor="middle" x="488.5" y="-595.5" font-family="FreeSans" font-size="10.00" fill="#000000">_param</text>
</a>
</g>
</g>
<!-- Node14&#45;&gt;Node15 -->
<g id="edge16" class="edge">
<title>Node14&#45;&gt;Node15</title>
<path fill="none" stroke="#191970" d="M342.7102,-604.5C365.0464,-604.5 390.3397,-604.5 413.5137,-604.5"/>
<polygon fill="#191970" stroke="#191970" points="413.646,-608.0001 423.6459,-604.5 413.6459,-601.0001 413.646,-608.0001"/>
</g>
<!-- Node19 -->
<g id="node19" class="node">
<title>Node19</title>
<g id="a_node19"><a xlink:href="../../d5/d07/classPHNodeIterator.html#aec2fbc1e56be7e1a0b064ecde48edee5" target="_top" xlink:title="PHNodeIterator::print">
<polygon fill="none" stroke="#000000" points="662.5,-414.5 662.5,-434.5 786.5,-434.5 786.5,-414.5 662.5,-414.5"/>
<text text-anchor="middle" x="724.5" y="-421.5" font-family="FreeSans" font-size="10.00" fill="#000000">PHNodeIterator::print</text>
</a>
</g>
</g>
<!-- Node18&#45;&gt;Node19 -->
<g id="edge20" class="edge">
<title>Node18&#45;&gt;Node19</title>
<path fill="none" stroke="#191970" d="M547.1403,-429.0091C578.9349,-428.2008 618.5041,-427.1948 652.1953,-426.3383"/>
<polygon fill="#191970" stroke="#191970" points="652.5396,-429.8307 662.4474,-426.0776 652.3616,-422.833 652.5396,-429.8307"/>
</g>
<!-- Node20 -->
<g id="node20" class="node">
<title>Node20</title>
<g id="a_node20"><a xlink:href="../../d5/dca/classPHCompositeNode.html#a41df2315a2cf9c9ebacf1767b3daab7f" target="_top" xlink:title="PHCompositeNode::print">
<polygon fill="none" stroke="#000000" points="872,-415.5 872,-435.5 1013,-435.5 1013,-415.5 872,-415.5"/>
<text text-anchor="middle" x="942.5" y="-422.5" font-family="FreeSans" font-size="10.00" fill="#000000">PHCompositeNode::print</text>
</a>
</g>
</g>
<!-- Node19&#45;&gt;Node20 -->
<g id="edge21" class="edge">
<title>Node19&#45;&gt;Node20</title>
<path fill="none" stroke="#191970" d="M786.6783,-424.7852C810.017,-424.8923 836.8915,-425.0156 861.6787,-425.1293"/>
<polygon fill="#191970" stroke="#191970" points="861.7745,-428.6296 871.7905,-425.1756 861.8067,-421.6297 861.7745,-428.6296"/>
</g>
<!-- Node21 -->
<g id="node21" class="node">
<title>Node21</title>
<g id="a_node21"><a xlink:href="../../dc/d82/classPHNode.html#a3c79c7edb338e7d3bb86460f931793fa" target="_top" xlink:title="PHNode::print">
<polygon fill="none" stroke="#000000" points="1049,-415.5 1049,-435.5 1136,-435.5 1136,-415.5 1049,-415.5"/>
<text text-anchor="middle" x="1092.5" y="-422.5" font-family="FreeSans" font-size="10.00" fill="#000000">PHNode::print</text>
</a>
</g>
</g>
<!-- Node20&#45;&gt;Node21 -->
<g id="edge22" class="edge">
<title>Node20&#45;&gt;Node21</title>
<path fill="none" stroke="#191970" d="M1013.1077,-425.5C1021.6563,-425.5 1030.2812,-425.5 1038.5361,-425.5"/>
<polygon fill="#191970" stroke="#191970" points="1038.761,-429.0001 1048.761,-425.5 1038.761,-422.0001 1038.761,-429.0001"/>
</g>
<!-- Node22&#45;&gt;Node3 -->
<g id="edge24" class="edge">
<title>Node22&#45;&gt;Node3</title>
<path fill="none" stroke="#191970" d="M342.7102,-944.8563C366.6222,-940.8614 393.9233,-936.3004 418.3849,-932.2137"/>
<polygon fill="#191970" stroke="#191970" points="419.0312,-935.6544 428.3177,-930.5543 417.8777,-928.7501 419.0312,-935.6544"/>
</g>
<!-- Node23&#45;&gt;Node15 -->
<g id="edge33" class="edge">
<title>Node23&#45;&gt;Node15</title>
<path fill="none" stroke="#191970" d="M305.1049,-530.6795C329.0818,-545.0112 365.9532,-565.7378 400,-579.5 404.9958,-581.5194 410.2125,-583.4408 415.5051,-585.255"/>
<polygon fill="#191970" stroke="#191970" points="414.4894,-588.6053 425.0823,-588.4028 416.6752,-581.9553 414.4894,-588.6053"/>
</g>
<!-- Node23&#45;&gt;Node17 -->
<g id="edge26" class="edge">
<title>Node23&#45;&gt;Node17</title>
<path fill="none" stroke="#191970" d="M353.5509,-530.5214C368.9109,-533.8217 384.9797,-537.2739 400,-540.5 410.2461,-542.7007 421.1595,-545.0441 431.6973,-547.3066"/>
<polygon fill="#191970" stroke="#191970" points="431.1396,-550.7666 441.6515,-549.4438 432.609,-543.9225 431.1396,-550.7666"/>
</g>
<!-- Node23&#45;&gt;Node18 -->
<g id="edge27" class="edge">
<title>Node23&#45;&gt;Node18</title>
<path fill="none" stroke="#191970" d="M333.0784,-498.4014C343.6851,-494.2523 354.468,-489.2896 364,-483.5 382.5513,-472.2323 380.7688,-460.5634 400,-450.5 406.3328,-447.1861 413.2011,-444.4187 420.2159,-442.108"/>
<polygon fill="#191970" stroke="#191970" points="421.2576,-445.4498 429.8361,-439.2319 419.2525,-438.7431 421.2576,-445.4498"/>
</g>
<!-- Node24 -->
<g id="node24" class="node">
<title>Node24</title>
<g id="a_node24"><a xlink:href="../../dd/dae/classPHParameters.html#a60173f5ff12c567632583ea619a7d2fb" target="_top" xlink:title="PHParameters::FillFrom">
<polygon fill="none" stroke="#000000" points="422,-459.5 422,-479.5 555,-479.5 555,-459.5 422,-459.5"/>
<text text-anchor="middle" x="488.5" y="-466.5" font-family="FreeSans" font-size="10.00" fill="#000000">PHParameters::FillFrom</text>
</a>
</g>
</g>
<!-- Node23&#45;&gt;Node24 -->
<g id="edge28" class="edge">
<title>Node23&#45;&gt;Node24</title>
<path fill="none" stroke="#191970" d="M353.747,-498.4445C379.4525,-492.9231 407.7905,-486.8362 431.8194,-481.6748"/>
<polygon fill="#191970" stroke="#191970" points="432.7914,-485.046 441.8334,-479.5239 431.3213,-478.2021 432.7914,-485.046"/>
</g>
<!-- Node28 -->
<g id="node28" class="node">
<title>Node28</title>
<g id="a_node28"><a xlink:href="../../d4/d31/classPHParameterInterface.html#a91cbe98a805d75c376435af39f5dd561" target="_top" xlink:title="PHParameterInterface\l::set_int_param">
<polygon fill="none" stroke="#000000" points="425,-498.5 425,-530.5 552,-530.5 552,-498.5 425,-498.5"/>
<text text-anchor="start" x="433" y="-517.5" font-family="FreeSans" font-size="10.00" fill="#000000">PHParameterInterface</text>
<text text-anchor="middle" x="488.5" y="-505.5" font-family="FreeSans" font-size="10.00" fill="#000000">::set_int_param</text>
</a>
</g>
</g>
<!-- Node23&#45;&gt;Node28 -->
<g id="edge32" class="edge">
<title>Node23&#45;&gt;Node28</title>
<path fill="none" stroke="#191970" d="M358.203,-514.5C376.7788,-514.5 396.4961,-514.5 414.819,-514.5"/>
<polygon fill="#191970" stroke="#191970" points="414.8388,-518.0001 424.8388,-514.5 414.8387,-511.0001 414.8388,-518.0001"/>
</g>
<!-- Node25 -->
<g id="node25" class="node">
<title>Node25</title>
<g id="a_node25"><a xlink:href="../../d8/d21/classPdbParameterMap.html#ab0e99129bc91837311172241b78f4c82" target="_top" xlink:title="PdbParameterMap::get\l_cparam_iters">
<polygon fill="none" stroke="#000000" points="658,-555.5 658,-587.5 791,-587.5 791,-555.5 658,-555.5"/>
<text text-anchor="start" x="666" y="-574.5" font-family="FreeSans" font-size="10.00" fill="#000000">PdbParameterMap::get</text>
<text text-anchor="middle" x="724.5" y="-562.5" font-family="FreeSans" font-size="10.00" fill="#000000">_cparam_iters</text>
</a>
</g>
</g>
<!-- Node24&#45;&gt;Node25 -->
<g id="edge29" class="edge">
<title>Node24&#45;&gt;Node25</title>
<path fill="none" stroke="#191970" d="M555.2382,-478.52C562.9778,-481.2844 570.4378,-484.8658 577,-489.5 601.4752,-506.7841 588.5102,-529.2365 613,-546.5 623.3634,-553.8054 635.502,-559.0213 647.8836,-562.7357"/>
<polygon fill="#191970" stroke="#191970" points="647.2709,-566.195 657.8362,-565.4039 649.0836,-559.4337 647.2709,-566.195"/>
</g>
<!-- Node26 -->
<g id="node26" class="node">
<title>Node26</title>
<g id="a_node26"><a xlink:href="../../d8/d21/classPdbParameterMap.html#ade341cd2fa2ac009cd6e7741e728f85b" target="_top" xlink:title="PdbParameterMap::get\l_dparam_iters">
<polygon fill="none" stroke="#000000" points="658,-504.5 658,-536.5 791,-536.5 791,-504.5 658,-504.5"/>
<text text-anchor="start" x="666" y="-523.5" font-family="FreeSans" font-size="10.00" fill="#000000">PdbParameterMap::get</text>
<text text-anchor="middle" x="724.5" y="-511.5" font-family="FreeSans" font-size="10.00" fill="#000000">_dparam_iters</text>
</a>
</g>
</g>
<!-- Node24&#45;&gt;Node26 -->
<g id="edge30" class="edge">
<title>Node24&#45;&gt;Node26</title>
<path fill="none" stroke="#191970" d="M534.8444,-479.5151C567.0063,-486.4653 610.598,-495.8856 647.8797,-503.9422"/>
<polygon fill="#191970" stroke="#191970" points="647.1968,-507.3754 657.7105,-506.0667 648.6755,-500.5333 647.1968,-507.3754"/>
</g>
<!-- Node27 -->
<g id="node27" class="node">
<title>Node27</title>
<g id="a_node27"><a xlink:href="../../d8/d21/classPdbParameterMap.html#ac348934f368cf69d37ce7480fdcd332c" target="_top" xlink:title="PdbParameterMap::get\l_iparam_iters">
<polygon fill="none" stroke="#000000" points="658,-453.5 658,-485.5 791,-485.5 791,-453.5 658,-453.5"/>
<text text-anchor="start" x="666" y="-472.5" font-family="FreeSans" font-size="10.00" fill="#000000">PdbParameterMap::get</text>
<text text-anchor="middle" x="724.5" y="-460.5" font-family="FreeSans" font-size="10.00" fill="#000000">_iparam_iters</text>
</a>
</g>
</g>
<!-- Node24&#45;&gt;Node27 -->
<g id="edge31" class="edge">
<title>Node24&#45;&gt;Node27</title>
<path fill="none" stroke="#191970" d="M555.1818,-469.5C583.957,-469.5 617.7886,-469.5 647.6149,-469.5"/>
<polygon fill="#191970" stroke="#191970" points="647.9829,-473.0001 657.9829,-469.5 647.9829,-466.0001 647.9829,-473.0001"/>
</g>
<!-- Node30 -->
<g id="node30" class="node">
<title>Node30</title>
<g id="a_node30"><a xlink:href="../../dd/dae/classPHParameters.html#a9485c99fc0bbee6150171583f1048190" target="_top" xlink:title="PHParameters::SaveToNodeTree">
<polygon fill="none" stroke="#000000" points="400,-362.5 400,-382.5 577,-382.5 577,-362.5 400,-362.5"/>
<text text-anchor="middle" x="488.5" y="-369.5" font-family="FreeSans" font-size="10.00" fill="#000000">PHParameters::SaveToNodeTree</text>
</a>
</g>
</g>
<!-- Node29&#45;&gt;Node30 -->
<g id="edge35" class="edge">
<title>Node29&#45;&gt;Node30</title>
<path fill="none" stroke="#191970" d="M342.7102,-373.1959C357.5229,-373.1252 373.6362,-373.0483 389.5694,-372.9722"/>
<polygon fill="#191970" stroke="#191970" points="390.0152,-376.4702 399.9983,-372.9224 389.9817,-369.4703 390.0152,-376.4702"/>
</g>
<!-- Node31 -->
<g id="node31" class="node">
<title>Node31</title>
<g id="a_node31"><a xlink:href="../../dd/dae/classPHParameters.html#a4dc6a076735983c1a66c1739f2905012" target="_top" xlink:title="PHParameters::CopyToPdbParameterMap">
<polygon fill="none" stroke="#000000" points="613,-322.5 613,-342.5 836,-342.5 836,-322.5 613,-322.5"/>
<text text-anchor="middle" x="724.5" y="-329.5" font-family="FreeSans" font-size="10.00" fill="#000000">PHParameters::CopyToPdbParameterMap</text>
</a>
</g>
</g>
<!-- Node30&#45;&gt;Node31 -->
<g id="edge36" class="edge">
<title>Node30&#45;&gt;Node31</title>
<path fill="none" stroke="#191970" d="M547.7481,-362.4579C580.4315,-356.9184 621.1883,-350.0105 655.3258,-344.2244"/>
<polygon fill="#191970" stroke="#191970" points="655.953,-347.6681 665.2275,-342.5462 654.7832,-340.7666 655.953,-347.6681"/>
</g>
<!-- Node35 -->
<g id="node35" class="node">
<title>Node35</title>
<g id="a_node35"><a xlink:href="../../d8/d21/classPdbParameterMap.html#a92a2189dca701d55646b76a5a86e4100" target="_top" xlink:title="Clear Event.">
<polygon fill="none" stroke="#000000" points="652.5,-362.5 652.5,-382.5 796.5,-382.5 796.5,-362.5 652.5,-362.5"/>
<text text-anchor="middle" x="724.5" y="-369.5" font-family="FreeSans" font-size="10.00" fill="#000000">PdbParameterMap::Reset</text>
</a>
</g>
</g>
<!-- Node30&#45;&gt;Node35 -->
<g id="edge40" class="edge">
<title>Node30&#45;&gt;Node35</title>
<path fill="none" stroke="#191970" d="M577.0491,-372.5C598.4052,-372.5 621.1361,-372.5 642.193,-372.5"/>
<polygon fill="#191970" stroke="#191970" points="642.3823,-376.0001 652.3823,-372.5 642.3822,-369.0001 642.3823,-376.0001"/>
</g>
<!-- Node32 -->
<g id="node32" class="node">
<title>Node32</title>
<g id="a_node32"><a xlink:href="../../d8/d21/classPdbParameterMap.html#a8ad4dc22c7352f3a20558f177f3aabc1" target="_top" xlink:title="PdbParameterMap::set\l_double_param">
<polygon fill="none" stroke="#000000" points="877,-364.5 877,-396.5 1008,-396.5 1008,-364.5 877,-364.5"/>
<text text-anchor="start" x="885" y="-383.5" font-family="FreeSans" font-size="10.00" fill="#000000">PdbParameterMap::set</text>
<text text-anchor="middle" x="942.5" y="-371.5" font-family="FreeSans" font-size="10.00" fill="#000000">_double_param</text>
</a>
</g>
</g>
<!-- Node31&#45;&gt;Node32 -->
<g id="edge37" class="edge">
<title>Node31&#45;&gt;Node32</title>
<path fill="none" stroke="#191970" d="M781.3617,-342.5042C798.9264,-345.7837 818.3037,-349.5943 836,-353.5 847.7142,-356.0854 860.1003,-359.03 872.1212,-362.0013"/>
<polygon fill="#191970" stroke="#191970" points="871.56,-365.4686 882.1101,-364.4962 873.2563,-358.6772 871.56,-365.4686"/>
</g>
<!-- Node33 -->
<g id="node33" class="node">
<title>Node33</title>
<g id="a_node33"><a xlink:href="../../d8/d21/classPdbParameterMap.html#aa47d7a23c66ee4fc4bcedca941892f72" target="_top" xlink:title="PdbParameterMap::set\l_int_param">
<polygon fill="none" stroke="#000000" points="877,-313.5 877,-345.5 1008,-345.5 1008,-313.5 877,-313.5"/>
<text text-anchor="start" x="885" y="-332.5" font-family="FreeSans" font-size="10.00" fill="#000000">PdbParameterMap::set</text>
<text text-anchor="middle" x="942.5" y="-320.5" font-family="FreeSans" font-size="10.00" fill="#000000">_int_param</text>
</a>
</g>
</g>
<!-- Node31&#45;&gt;Node33 -->
<g id="edge38" class="edge">
<title>Node31&#45;&gt;Node33</title>
<path fill="none" stroke="#191970" d="M836.0545,-330.9648C846.3951,-330.8225 856.705,-330.6807 866.6118,-330.5443"/>
<polygon fill="#191970" stroke="#191970" points="866.8232,-334.0419 876.7741,-330.4045 866.7268,-327.0425 866.8232,-334.0419"/>
</g>
<!-- Node34 -->
<g id="node34" class="node">
<title>Node34</title>
<g id="a_node34"><a xlink:href="../../d8/d21/classPdbParameterMap.html#adda244f2d8e7c3020f6dc8a0cffcbf97" target="_top" xlink:title="PdbParameterMap::set\l_string_param">
<polygon fill="none" stroke="#000000" points="877,-262.5 877,-294.5 1008,-294.5 1008,-262.5 877,-262.5"/>
<text text-anchor="start" x="885" y="-281.5" font-family="FreeSans" font-size="10.00" fill="#000000">PdbParameterMap::set</text>
<text text-anchor="middle" x="942.5" y="-269.5" font-family="FreeSans" font-size="10.00" fill="#000000">_string_param</text>
</a>
</g>
</g>
<!-- Node31&#45;&gt;Node34 -->
<g id="edge39" class="edge">
<title>Node31&#45;&gt;Node34</title>
<path fill="none" stroke="#191970" d="M764.9932,-322.4696C793.7952,-315.3351 833.3292,-305.5423 867.7778,-297.0092"/>
<polygon fill="#191970" stroke="#191970" points="868.9503,-300.3246 877.8154,-294.5228 867.2672,-293.5299 868.9503,-300.3246"/>
</g>
<!-- Node42 -->
<g id="node42" class="node">
<title>Node42</title>
<g id="a_node42"><a xlink:href="../../dd/dae/classPHParameters.html#a75005aa44390e1eb574603b0b230152b" target="_top" xlink:title="PHParameters::set_double\l_param">
<polygon fill="none" stroke="#000000" points="414,-102.5 414,-134.5 563,-134.5 563,-102.5 414,-102.5"/>
<text text-anchor="start" x="422" y="-121.5" font-family="FreeSans" font-size="10.00" fill="#000000">PHParameters::set_double</text>
<text text-anchor="middle" x="488.5" y="-109.5" font-family="FreeSans" font-size="10.00" fill="#000000">_param</text>
</a>
</g>
</g>
<!-- Node41&#45;&gt;Node42 -->
<g id="edge47" class="edge">
<title>Node41&#45;&gt;Node42</title>
<path fill="none" stroke="#191970" d="M344.9996,-83.5667C366.4255,-88.7826 390.3693,-94.6114 412.4657,-99.9904"/>
<polygon fill="#191970" stroke="#191970" points="411.9283,-103.4618 422.4724,-102.4264 413.584,-96.6604 411.9283,-103.4618"/>
</g>
<!-- Node43 -->
<g id="node43" class="node">
<title>Node43</title>
<g id="a_node43"><a xlink:href="../../dd/dae/classPHParameters.html#a62881b44dd0564425633070316af66ec" target="_top" xlink:title="PHParameters::set_int\l_param">
<polygon fill="none" stroke="#000000" points="424.5,-51.5 424.5,-83.5 552.5,-83.5 552.5,-51.5 424.5,-51.5"/>
<text text-anchor="start" x="432.5" y="-70.5" font-family="FreeSans" font-size="10.00" fill="#000000">PHParameters::set_int</text>
<text text-anchor="middle" x="488.5" y="-58.5" font-family="FreeSans" font-size="10.00" fill="#000000">_param</text>
</a>
</g>
</g>
<!-- Node41&#45;&gt;Node43 -->
<g id="edge48" class="edge">
<title>Node41&#45;&gt;Node43</title>
<path fill="none" stroke="#191970" d="M364.2117,-67.5C380.6599,-67.5 397.7745,-67.5 413.8548,-67.5"/>
<polygon fill="#191970" stroke="#191970" points="414.2551,-71.0001 424.255,-67.5 414.255,-64.0001 414.2551,-71.0001"/>
</g>
<!-- Node44 -->
<g id="node44" class="node">
<title>Node44</title>
<g id="a_node44"><a xlink:href="../../dd/dae/classPHParameters.html#a2ebd6e499647b20dd41ca164e71ca061" target="_top" xlink:title="PHParameters::set_string\l_param">
<polygon fill="none" stroke="#000000" points="417,-.5 417,-32.5 560,-32.5 560,-.5 417,-.5"/>
<text text-anchor="start" x="425" y="-19.5" font-family="FreeSans" font-size="10.00" fill="#000000">PHParameters::set_string</text>
<text text-anchor="middle" x="488.5" y="-7.5" font-family="FreeSans" font-size="10.00" fill="#000000">_param</text>
</a>
</g>
</g>
<!-- Node41&#45;&gt;Node44 -->
<g id="edge49" class="edge">
<title>Node41&#45;&gt;Node44</title>
<path fill="none" stroke="#191970" d="M344.9996,-51.4333C366.4255,-46.2174 390.3693,-40.3886 412.4657,-35.0096"/>
<polygon fill="#191970" stroke="#191970" points="413.584,-38.3396 422.4724,-32.5736 411.9283,-31.5382 413.584,-38.3396"/>
</g>
</g>
</svg>
