<?xml version="1.0" encoding="UTF-8" standalone="no"?>
<!DOCTYPE svg PUBLIC "-//W3C//DTD SVG 1.1//EN"
 "http://www.w3.org/Graphics/SVG/1.1/DTD/svg11.dtd">
<!-- Generated by graphviz version 2.40.1 (20161225.0304)
 -->
<!-- Title: Acts::AxisAlignedBoundingBox&lt; entity_t, value_t, DIM &gt; Pages: 1 -->
<svg width="258pt" height="113pt"
 viewBox="0.00 0.00 258.00 113.00" xmlns="http://www.w3.org/2000/svg" xmlns:xlink="http://www.w3.org/1999/xlink">
<g id="graph0" class="graph" transform="scale(1 1) rotate(0) translate(4 109)">
<title>Acts::AxisAlignedBoundingBox&lt; entity_t, value_t, DIM &gt;</title>
<!-- Node1 -->
<g id="node1" class="node">
<title>Node1</title>
<polygon fill="#bfbfbf" stroke="#000000" points="0,-2 0,-34 164,-34 164,-2 0,-2"/>
<text text-anchor="start" x="8" y="-21" font-family="FreeSans" font-size="10.00" fill="#000000">Acts::AxisAlignedBounding</text>
<text text-anchor="middle" x="82" y="-9" font-family="FreeSans" font-size="10.00" fill="#000000">Box&lt; entity_t, value_t, DIM &gt;</text>
</g>
<!-- Node1&#45;&gt;Node1 -->
<g id="edge1" class="edge">
<title>Node1&#45;&gt;Node1</title>
<path fill="none" stroke="#9a32cd" stroke-dasharray="5,2" d="M174.268,-23.1837C179.124,-21.9088 182,-20.1809 182,-18 182,-14.5957 174.9921,-12.2951 164.3846,-11.0983"/>
<polygon fill="#9a32cd" stroke="#9a32cd" points="173.6374,-19.7407 164.3846,-24.9017 174.8362,-26.6373 173.6374,-19.7407"/>
<text text-anchor="middle" x="216" y="-27" font-family="FreeSans" font-size="10.00" fill="#000000"> m_skip</text>
<text text-anchor="middle" x="216" y="-15" font-family="FreeSans" font-size="10.00" fill="#000000">m_right_child</text>
<text text-anchor="middle" x="216" y="-3" font-family="FreeSans" font-size="10.00" fill="#000000">m_left_child</text>
</g>
<!-- Node2 -->
<g id="node2" class="node">
<title>Node2</title>
<polygon fill="none" stroke="#bfbfbf" points="54.5,-84.5 54.5,-104.5 109.5,-104.5 109.5,-84.5 54.5,-84.5"/>
<text text-anchor="middle" x="82" y="-91.5" font-family="FreeSans" font-size="10.00" fill="#000000">entity_t</text>
</g>
<!-- Node2&#45;&gt;Node1 -->
<g id="edge2" class="edge">
<title>Node2&#45;&gt;Node1</title>
<path fill="none" stroke="#9a32cd" stroke-dasharray="5,2" d="M82,-74.1435C82,-61.6236 82,-45.8019 82,-34.1477"/>
<polygon fill="#9a32cd" stroke="#9a32cd" points="78.5001,-74.4989 82,-84.499 85.5001,-74.499 78.5001,-74.4989"/>
<text text-anchor="middle" x="106" y="-57" font-family="FreeSans" font-size="10.00" fill="#000000"> m_entity</text>
</g>
</g>
</svg>
