<?xml version="1.0" encoding="UTF-8" standalone="no"?>
<!DOCTYPE svg PUBLIC "-//W3C//DTD SVG 1.1//EN"
 "http://www.w3.org/Graphics/SVG/1.1/DTD/svg11.dtd">
<!-- Generated by graphviz version 2.40.1 (20161225.0304)
 -->
<!-- Title: ast.BuilderFromSource Pages: 1 -->
<svg width="439pt" height="107pt"
 viewBox="0.00 0.00 439.00 107.00" xmlns="http://www.w3.org/2000/svg" xmlns:xlink="http://www.w3.org/1999/xlink">
<g id="graph0" class="graph" transform="scale(1 1) rotate(0) translate(4 103)">
<title>ast.BuilderFromSource</title>
<!-- Node1 -->
<g id="node1" class="node">
<title>Node1</title>
<polygon fill="#bfbfbf" stroke="#000000" points="0,-39.5 0,-59.5 130,-59.5 130,-39.5 0,-39.5"/>
<text text-anchor="middle" x="65" y="-46.5" font-family="FreeSans" font-size="10.00" fill="#000000">ast.BuilderFromSource</text>
</g>
<!-- Node2 -->
<g id="node2" class="node">
<title>Node2</title>
<g id="a_node2"><a xlink:href="../../de/d58/namespacetokenize.html#a4596a67601c005b081b27fbeaa4e7635" target="_top" xlink:title="tokenize.GetTokens">
<polygon fill="none" stroke="#000000" points="166,-39.5 166,-59.5 280,-59.5 280,-39.5 166,-39.5"/>
<text text-anchor="middle" x="223" y="-46.5" font-family="FreeSans" font-size="10.00" fill="#000000">tokenize.GetTokens</text>
</a>
</g>
</g>
<!-- Node1&#45;&gt;Node2 -->
<g id="edge1" class="edge">
<title>Node1&#45;&gt;Node2</title>
<path fill="none" stroke="#191970" d="M130.1768,-49.5C138.5167,-49.5 147.0687,-49.5 155.4453,-49.5"/>
<polygon fill="#191970" stroke="#191970" points="155.5499,-53.0001 165.5499,-49.5 155.5498,-46.0001 155.5499,-53.0001"/>
</g>
<!-- Node3 -->
<g id="node3" class="node">
<title>Node3</title>
<g id="a_node3"><a xlink:href="../../de/d58/namespacetokenize.html#a2ace980aaa78b85f5ac5ea798dababb1" target="_top" xlink:title="tokenize._GetChar">
<polygon fill="none" stroke="#000000" points="319,-78.5 319,-98.5 428,-98.5 428,-78.5 319,-78.5"/>
<text text-anchor="middle" x="373.5" y="-85.5" font-family="FreeSans" font-size="10.00" fill="#000000">tokenize._GetChar</text>
</a>
</g>
</g>
<!-- Node2&#45;&gt;Node3 -->
<g id="edge2" class="edge">
<title>Node2&#45;&gt;Node3</title>
<path fill="none" stroke="#191970" d="M261.7575,-59.5435C281.0678,-64.5475 304.6085,-70.6477 325.0944,-75.9564"/>
<polygon fill="#191970" stroke="#191970" points="324.3156,-79.3701 334.8738,-78.4906 326.0716,-72.5939 324.3156,-79.3701"/>
</g>
<!-- Node4 -->
<g id="node4" class="node">
<title>Node4</title>
<g id="a_node4"><a xlink:href="../../de/d58/namespacetokenize.html#a74f75fd26a95c8b7e1dbd307b72eba4f" target="_top" xlink:title="tokenize._GetString">
<polygon fill="none" stroke="#000000" points="316,-39.5 316,-59.5 431,-59.5 431,-39.5 316,-39.5"/>
<text text-anchor="middle" x="373.5" y="-46.5" font-family="FreeSans" font-size="10.00" fill="#000000">tokenize._GetString</text>
</a>
</g>
</g>
<!-- Node2&#45;&gt;Node4 -->
<g id="edge3" class="edge">
<title>Node2&#45;&gt;Node4</title>
<path fill="none" stroke="#191970" d="M280.3269,-49.5C288.5949,-49.5 297.1693,-49.5 305.6186,-49.5"/>
<polygon fill="#191970" stroke="#191970" points="305.8339,-53.0001 315.8339,-49.5 305.8339,-46.0001 305.8339,-53.0001"/>
</g>
<!-- Node5 -->
<g id="node5" class="node">
<title>Node5</title>
<g id="a_node5"><a xlink:href="../../dc/d11/Prototype2_2EMCal_2macros_2SaveCanvas_8m.html#a8efe7494567713c8ec7a6803834a0bb6" target="_top" xlink:title="print">
<polygon fill="none" stroke="#000000" points="353.5,-.5 353.5,-20.5 393.5,-20.5 393.5,-.5 353.5,-.5"/>
<text text-anchor="middle" x="373.5" y="-7.5" font-family="FreeSans" font-size="10.00" fill="#000000">print</text>
</a>
</g>
</g>
<!-- Node2&#45;&gt;Node5 -->
<g id="edge4" class="edge">
<title>Node2&#45;&gt;Node5</title>
<path fill="none" stroke="#191970" d="M261.7575,-39.4565C287.2488,-32.8508 320.1119,-24.3348 343.5883,-18.2512"/>
<polygon fill="#191970" stroke="#191970" points="344.5373,-21.621 353.3396,-15.7243 342.7813,-14.8448 344.5373,-21.621"/>
</g>
</g>
</svg>
