<?xml version="1.0" encoding="UTF-8" standalone="no"?>
<!DOCTYPE svg PUBLIC "-//W3C//DTD SVG 1.1//EN"
 "http://www.w3.org/Graphics/SVG/1.1/DTD/svg11.dtd">
<!-- Generated by graphviz version 2.40.1 (20161225.0304)
 -->
<!-- Title: ACTSGEOM::ActsGeomInit Pages: 1 -->
<svg width="813pt" height="1561pt"
 viewBox="0.00 0.00 813.00 1561.02" xmlns="http://www.w3.org/2000/svg" xmlns:xlink="http://www.w3.org/1999/xlink">
<g id="graph0" class="graph" transform="scale(1 1) rotate(0) translate(4 1557.0222)">
<title>ACTSGEOM::ActsGeomInit</title>
<!-- Node1 -->
<g id="node1" class="node">
<title>Node1</title>
<polygon fill="#bfbfbf" stroke="#000000" points="0,-1104.5 0,-1124.5 149,-1124.5 149,-1104.5 0,-1104.5"/>
<text text-anchor="middle" x="74.5" y="-1111.5" font-family="FreeSans" font-size="10.00" fill="#000000">ACTSGEOM::ActsGeomInit</text>
</g>
<!-- Node2 -->
<g id="node2" class="node">
<title>Node2</title>
<g id="a_node2"><a xlink:href="../../d7/d40/Trkr__Clustering_8C.html#a768d03ac995e3533866d89a668369324" target="_top" xlink:title="ClusteringInit">
<polygon fill="none" stroke="#000000" points="228,-1202.5 228,-1222.5 312,-1222.5 312,-1202.5 228,-1202.5"/>
<text text-anchor="middle" x="270" y="-1209.5" font-family="FreeSans" font-size="10.00" fill="#000000">ClusteringInit</text>
</a>
</g>
</g>
<!-- Node1&#45;&gt;Node2 -->
<g id="edge1" class="edge">
<title>Node1&#45;&gt;Node2</title>
<path fill="none" stroke="#191970" d="M93.2397,-1131.5437C114.1186,-1149.6146 149.6141,-1177.6851 185,-1193.5 198.3909,-1199.4848 213.8375,-1203.6621 227.8594,-1206.5423"/>
<polygon fill="#191970" stroke="#191970" points="95.296,-1128.6906 85.4806,-1124.702 90.6664,-1133.941 95.296,-1128.6906"/>
</g>
<!-- Node3 -->
<g id="node3" class="node">
<title>Node3</title>
<g id="a_node3"><a xlink:href="../../d6/d36/Fun4All__TrkrClusteringSeeding_8C.html#adaac11646a7156e5e4c6906b6d2e38d8" target="_top" xlink:title="Fun4All_TrkrClusteringSeeding">
<polygon fill="none" stroke="#000000" points="185,-1163.5 185,-1183.5 355,-1183.5 355,-1163.5 185,-1163.5"/>
<text text-anchor="middle" x="270" y="-1170.5" font-family="FreeSans" font-size="10.00" fill="#000000">Fun4All_TrkrClusteringSeeding</text>
</a>
</g>
</g>
<!-- Node1&#45;&gt;Node3 -->
<g id="edge2" class="edge">
<title>Node1&#45;&gt;Node3</title>
<path fill="none" stroke="#191970" d="M116.5791,-1127.5821C137.1845,-1133.9538 162.371,-1141.6911 185,-1148.5 201.4972,-1153.4639 219.8289,-1158.8695 235.2322,-1163.3803"/>
<polygon fill="#191970" stroke="#191970" points="117.4509,-1124.1881 106.8631,-1124.5739 115.3805,-1130.875 117.4509,-1124.1881"/>
</g>
<!-- Node4 -->
<g id="node4" class="node">
<title>Node4</title>
<g id="a_node4"><a xlink:href="../../df/d89/G4__TrkrSimulation_8C.html#aa87d61325e7a18e49d7b182a77aed93b" target="_top" xlink:title="Micromegas_Cells">
<polygon fill="none" stroke="#000000" points="216.5,-835.5 216.5,-855.5 323.5,-855.5 323.5,-835.5 216.5,-835.5"/>
<text text-anchor="middle" x="270" y="-842.5" font-family="FreeSans" font-size="10.00" fill="#000000">Micromegas_Cells</text>
</a>
</g>
</g>
<!-- Node1&#45;&gt;Node4 -->
<g id="edge3" class="edge">
<title>Node1&#45;&gt;Node4</title>
<path fill="none" stroke="#191970" d="M87.9996,-1095.9251C126.0571,-1043.5596 233.3407,-895.9417 262.5675,-855.7268"/>
<polygon fill="#191970" stroke="#191970" points="84.9729,-1094.1364 81.9251,-1104.2834 90.6354,-1098.2517 84.9729,-1094.1364"/>
</g>
<!-- Node25 -->
<g id="node25" class="node">
<title>Node25</title>
<g id="a_node25"><a xlink:href="../../d7/d40/Trkr__Clustering_8C.html#a3708f4c4bca9ac44961dc049a5d8a3cf" target="_top" xlink:title="TPC_Clustering">
<polygon fill="none" stroke="#000000" points="223.5,-1085.5 223.5,-1105.5 316.5,-1105.5 316.5,-1085.5 223.5,-1085.5"/>
<text text-anchor="middle" x="270" y="-1092.5" font-family="FreeSans" font-size="10.00" fill="#000000">TPC_Clustering</text>
</a>
</g>
</g>
<!-- Node1&#45;&gt;Node25 -->
<g id="edge24" class="edge">
<title>Node1&#45;&gt;Node25</title>
<path fill="none" stroke="#191970" d="M159.2636,-1106.2621C181.2366,-1104.1266 204.1007,-1101.9045 223.3083,-1100.0378"/>
<polygon fill="#191970" stroke="#191970" points="158.8615,-1102.7846 149.247,-1107.2356 159.5387,-1109.7518 158.8615,-1102.7846"/>
</g>
<!-- Node26 -->
<g id="node26" class="node">
<title>Node26</title>
<g id="a_node26"><a xlink:href="../../dc/db7/Trkr__LaserClustering_8C.html#a0561632d8c3982a1e766bec8bca67696" target="_top" xlink:title="TPC_LaserClustering">
<polygon fill="none" stroke="#000000" points="424,-1412.5 424,-1432.5 544,-1432.5 544,-1412.5 424,-1412.5"/>
<text text-anchor="middle" x="484" y="-1419.5" font-family="FreeSans" font-size="10.00" fill="#000000">TPC_LaserClustering</text>
</a>
</g>
</g>
<!-- Node1&#45;&gt;Node26 -->
<g id="edge45" class="edge">
<title>Node1&#45;&gt;Node26</title>
<path fill="none" stroke="#191970" d="M159.1345,-1115.7414C231.4886,-1118.6836 328.0601,-1127.706 355,-1154.5 432.4104,-1231.4911 318.3848,-1315.9707 391,-1397.5 399.5623,-1407.1134 411.3875,-1413.2055 423.7381,-1417.0248"/>
<polygon fill="#191970" stroke="#191970" points="159.2196,-1112.2422 149.0956,-1115.3653 158.9575,-1119.2373 159.2196,-1112.2422"/>
</g>
<!-- Node28 -->
<g id="node28" class="node">
<title>Node28</title>
<g id="a_node28"><a xlink:href="../../da/d3c/G4__Tracking_8C.html#a201b49a8ae368285efc7f43018b6da46" target="_top" xlink:title="TrackingInit">
<polygon fill="none" stroke="#000000" points="232,-600.5 232,-620.5 308,-620.5 308,-600.5 232,-600.5"/>
<text text-anchor="middle" x="270" y="-607.5" font-family="FreeSans" font-size="10.00" fill="#000000">TrackingInit</text>
</a>
</g>
</g>
<!-- Node1&#45;&gt;Node28 -->
<g id="edge54" class="edge">
<title>Node1&#45;&gt;Node28</title>
<path fill="none" stroke="#191970" d="M81.984,-1094.6958C99.7104,-1047.8395 145.7192,-926.5213 185,-825.5 215.6921,-746.5668 253.5338,-651.6927 265.8892,-620.7775"/>
<polygon fill="#191970" stroke="#191970" points="78.6363,-1093.6537 78.373,-1104.2452 85.1838,-1096.1296 78.6363,-1093.6537"/>
</g>
<!-- Node5 -->
<g id="node5" class="node">
<title>Node5</title>
<g id="a_node5"><a xlink:href="../../d4/de9/Fun4All__AnaTutorial__sPHENIX_8C.html#a5028836c74f0bebec560d3ab54daa022" target="_top" xlink:title="Fun4All_AnaTutorial\l_sPHENIX">
<polygon fill="none" stroke="#000000" points="651.5,-1053.5 651.5,-1085.5 766.5,-1085.5 766.5,-1053.5 651.5,-1053.5"/>
<text text-anchor="start" x="659.5" y="-1072.5" font-family="FreeSans" font-size="10.00" fill="#000000">Fun4All_AnaTutorial</text>
<text text-anchor="middle" x="709" y="-1060.5" font-family="FreeSans" font-size="10.00" fill="#000000">_sPHENIX</text>
</a>
</g>
</g>
<!-- Node4&#45;&gt;Node5 -->
<g id="edge4" class="edge">
<title>Node4&#45;&gt;Node5</title>
<path fill="none" stroke="#191970" d="M277.8917,-864.9778C293.5761,-900.9918 332.2987,-977.669 391,-1014.5 471.0883,-1064.7498 583.7681,-1072.6508 651.2723,-1072.1995"/>
<polygon fill="#191970" stroke="#191970" points="281.0374,-863.43 273.9234,-855.5788 274.5886,-866.1528 281.0374,-863.43"/>
</g>
<!-- Node6 -->
<g id="node6" class="node">
<title>Node6</title>
<g id="a_node6"><a xlink:href="../../d6/d14/Fun4All__AnaTutorial__sPHENIX__Jets_8C.html#a61b352bca84476d24b0ff40991b27900" target="_top" xlink:title="Fun4All_AnaTutorial\l_sPHENIX_Jets">
<polygon fill="none" stroke="#000000" points="651.5,-291.5 651.5,-323.5 766.5,-323.5 766.5,-291.5 651.5,-291.5"/>
<text text-anchor="start" x="659.5" y="-310.5" font-family="FreeSans" font-size="10.00" fill="#000000">Fun4All_AnaTutorial</text>
<text text-anchor="middle" x="709" y="-298.5" font-family="FreeSans" font-size="10.00" fill="#000000">_sPHENIX_Jets</text>
</a>
</g>
</g>
<!-- Node4&#45;&gt;Node6 -->
<g id="edge5" class="edge">
<title>Node4&#45;&gt;Node6</title>
<path fill="none" stroke="#191970" d="M279.4251,-826.303C297.2019,-789.226 335.6321,-704.7719 355,-629.5 370.5229,-569.1715 347.1441,-395.7397 391,-351.5 458.7837,-283.1231 579.8908,-286.9924 651.4895,-296.74"/>
<polygon fill="#191970" stroke="#191970" points="276.2004,-824.9316 274.9918,-835.4573 282.5005,-827.9827 276.2004,-824.9316"/>
</g>
<!-- Node7 -->
<g id="node7" class="node">
<title>Node7</title>
<g id="a_node7"><a xlink:href="../../d3/df6/Fun4All__BHG_8C.html#af5fe9d02cb2b4cd537288c95abc9f8c6" target="_top" xlink:title="Fun4All_BHG">
<polygon fill="none" stroke="#000000" points="443.5,-577.5 443.5,-597.5 524.5,-597.5 524.5,-577.5 443.5,-577.5"/>
<text text-anchor="middle" x="484" y="-584.5" font-family="FreeSans" font-size="10.00" fill="#000000">Fun4All_BHG</text>
</a>
</g>
</g>
<!-- Node4&#45;&gt;Node7 -->
<g id="edge6" class="edge">
<title>Node4&#45;&gt;Node7</title>
<path fill="none" stroke="#191970" d="M274.0038,-825.2725C284.3488,-778.6554 316.5397,-663.3208 391,-606.5 405.8037,-595.2033 425.6586,-590.1775 443.2211,-588.0876"/>
<polygon fill="#191970" stroke="#191970" points="270.5216,-824.8233 271.879,-835.3308 277.3704,-826.2702 270.5216,-824.8233"/>
</g>
<!-- Node8 -->
<g id="node8" class="node">
<title>Node8</title>
<g id="a_node8"><a xlink:href="../../d9/d7b/Fun4All__G4__Calo_8C.html#aefa5325c03444fd144b2a7d81b29c579" target="_top" xlink:title="Fun4All_G4_Calo">
<polygon fill="none" stroke="#000000" points="434,-1181.5 434,-1201.5 534,-1201.5 534,-1181.5 434,-1181.5"/>
<text text-anchor="middle" x="484" y="-1188.5" font-family="FreeSans" font-size="10.00" fill="#000000">Fun4All_G4_Calo</text>
</a>
</g>
</g>
<!-- Node4&#45;&gt;Node8 -->
<g id="edge7" class="edge">
<title>Node4&#45;&gt;Node8</title>
<path fill="none" stroke="#191970" d="M277.2198,-865.1076C303.1687,-935.5681 390.2181,-1171.8294 391,-1172.5 402.758,-1182.585 418.4201,-1187.8256 433.5339,-1190.4196"/>
<polygon fill="#191970" stroke="#191970" points="280.4666,-863.796 273.7265,-855.6215 273.8979,-866.215 280.4666,-863.796"/>
</g>
<!-- Node9 -->
<g id="node9" class="node">
<title>Node9</title>
<g id="a_node9"><a xlink:href="../../d0/d37/analysis_2blob_2master_2EMCal-position-dependent-calibration_2example_2macro_2Fun4All__G4__sPHENIX_8C.html#a25b28b7ae5b3cc21d023910dc6abfc44" target="_top" xlink:title="Fun4All_G4_sPHENIX">
<polygon fill="none" stroke="#000000" points="423.5,-1220.5 423.5,-1240.5 544.5,-1240.5 544.5,-1220.5 423.5,-1220.5"/>
<text text-anchor="middle" x="484" y="-1227.5" font-family="FreeSans" font-size="10.00" fill="#000000">Fun4All_G4_sPHENIX</text>
</a>
</g>
</g>
<!-- Node4&#45;&gt;Node9 -->
<g id="edge8" class="edge">
<title>Node4&#45;&gt;Node9</title>
<path fill="none" stroke="#191970" d="M277.8675,-864.9971C293.6548,-904.5049 329.8356,-997.0112 355,-1076.5 373.7417,-1135.7009 345.8134,-1168.9069 391,-1211.5 399.8739,-1219.8645 411.3883,-1224.9809 423.2753,-1228.0281"/>
<polygon fill="#191970" stroke="#191970" points="281.036,-863.4949 274.0636,-855.5177 274.5396,-866.1019 281.036,-863.4949"/>
</g>
<!-- Node10 -->
<g id="node10" class="node">
<title>Node10</title>
<g id="a_node10"><a xlink:href="../../d3/dfe/Fun4All__G4__sPHENIX__ForTrackCutStudy_8C.html#aee6928c85428dd1e5ef39817f4519fec" target="_top" xlink:title="Fun4All_G4_sPHENIX\l_ForTrackCutStudy">
<polygon fill="none" stroke="#000000" points="423.5,-1130.5 423.5,-1162.5 544.5,-1162.5 544.5,-1130.5 423.5,-1130.5"/>
<text text-anchor="start" x="431.5" y="-1149.5" font-family="FreeSans" font-size="10.00" fill="#000000">Fun4All_G4_sPHENIX</text>
<text text-anchor="middle" x="484" y="-1137.5" font-family="FreeSans" font-size="10.00" fill="#000000">_ForTrackCutStudy</text>
</a>
</g>
</g>
<!-- Node4&#45;&gt;Node10 -->
<g id="edge9" class="edge">
<title>Node4&#45;&gt;Node10</title>
<path fill="none" stroke="#191970" d="M276.1674,-865.2056C294.3791,-922.2268 349.2567,-1085.6119 391,-1121.5 400.128,-1129.3477 411.478,-1134.7585 423.078,-1138.4826"/>
<polygon fill="#191970" stroke="#191970" points="279.4715,-864.0459 273.1164,-855.5687 272.798,-866.1588 279.4715,-864.0459"/>
</g>
<!-- Node11 -->
<g id="node11" class="node">
<title>Node11</title>
<g id="a_node11"><a xlink:href="../../db/d44/Fun4All__G4__sPHENIX__ForTrackCutStudy__EmbedScanOff_8C.html#a1b7a4bcaa2313216c813ee5c8e265e0f" target="_top" xlink:title="Fun4All_G4_sPHENIX\l_ForTrackCutStudy_EmbedScanOff">
<polygon fill="none" stroke="#000000" points="613,-393.5 613,-425.5 805,-425.5 805,-393.5 613,-393.5"/>
<text text-anchor="start" x="621" y="-412.5" font-family="FreeSans" font-size="10.00" fill="#000000">Fun4All_G4_sPHENIX</text>
<text text-anchor="middle" x="709" y="-400.5" font-family="FreeSans" font-size="10.00" fill="#000000">_ForTrackCutStudy_EmbedScanOff</text>
</a>
</g>
</g>
<!-- Node4&#45;&gt;Node11 -->
<g id="edge10" class="edge">
<title>Node4&#45;&gt;Node11</title>
<path fill="none" stroke="#191970" d="M278.0998,-825.8919C293.6193,-788.1147 328.3685,-702.5188 355,-629.5 372.1921,-582.3623 355.8216,-558.2772 391,-522.5 449.9477,-462.5489 542.7292,-434.3026 612.8915,-421.0544"/>
<polygon fill="#191970" stroke="#191970" points="274.8264,-824.6494 274.2551,-835.2288 281.2991,-827.3147 274.8264,-824.6494"/>
</g>
<!-- Node12 -->
<g id="node12" class="node">
<title>Node12</title>
<g id="a_node12"><a xlink:href="../../de/d93/Fun4All__G4__sPHENIX__ForTrackCutStudy__EmbedScanOn_8C.html#a2a18d55c852c3aa404798f27db292861" target="_top" xlink:title="Fun4All_G4_sPHENIX\l_ForTrackCutStudy_EmbedScanOn">
<polygon fill="none" stroke="#000000" points="614,-342.5 614,-374.5 804,-374.5 804,-342.5 614,-342.5"/>
<text text-anchor="start" x="622" y="-361.5" font-family="FreeSans" font-size="10.00" fill="#000000">Fun4All_G4_sPHENIX</text>
<text text-anchor="middle" x="709" y="-349.5" font-family="FreeSans" font-size="10.00" fill="#000000">_ForTrackCutStudy_EmbedScanOn</text>
</a>
</g>
</g>
<!-- Node4&#45;&gt;Node12 -->
<g id="edge11" class="edge">
<title>Node4&#45;&gt;Node12</title>
<path fill="none" stroke="#191970" d="M279.1051,-826.2167C296.337,-788.9927 333.8786,-704.2988 355,-629.5 379.9004,-541.3183 327.3565,-492.4208 391,-426.5 447.9569,-367.5051 542.6527,-353.5648 613.9268,-352.5445"/>
<polygon fill="#191970" stroke="#191970" points="275.8724,-824.8675 274.8139,-835.4093 282.2154,-827.8285 275.8724,-824.8675"/>
</g>
<!-- Node13 -->
<g id="node13" class="node">
<title>Node13</title>
<g id="a_node13"><a xlink:href="../../dd/d3d/Fun4All__G4__sPHENIX__ForTrackCutStudy__WithPileup__EmbedScanOff_8C.html#a871bc23cf87970dd5a7212eba9dfb2ce" target="_top" xlink:title="Fun4All_G4_sPHENIX\l_ForTrackCutStudy_WithPileup\l_EmbedScanOff">
<polygon fill="none" stroke="#000000" points="624,-990.5 624,-1034.5 794,-1034.5 794,-990.5 624,-990.5"/>
<text text-anchor="start" x="632" y="-1021.5" font-family="FreeSans" font-size="10.00" fill="#000000">Fun4All_G4_sPHENIX</text>
<text text-anchor="start" x="632" y="-1009.5" font-family="FreeSans" font-size="10.00" fill="#000000">_ForTrackCutStudy_WithPileup</text>
<text text-anchor="middle" x="709" y="-997.5" font-family="FreeSans" font-size="10.00" fill="#000000">_EmbedScanOff</text>
</a>
</g>
</g>
<!-- Node4&#45;&gt;Node13 -->
<g id="edge12" class="edge">
<title>Node4&#45;&gt;Node13</title>
<path fill="none" stroke="#191970" d="M280.8339,-864.6554C299.139,-894.9698 339.3018,-953.2476 391,-979.5 463.3786,-1016.2539 556.845,-1021.7839 623.6825,-1019.7702"/>
<polygon fill="#191970" stroke="#191970" points="283.756,-862.7197 275.6718,-855.8716 277.7211,-866.2664 283.756,-862.7197"/>
</g>
<!-- Node14 -->
<g id="node14" class="node">
<title>Node14</title>
<g id="a_node14"><a xlink:href="../../dd/d54/Fun4All__G4__sPHENIX__ForTrackCutStudy__WithPileup__EmbedScanOn_8C.html#a3fc8b60e29719c1be2f3b60d87450d8b" target="_top" xlink:title="Fun4All_G4_sPHENIX\l_ForTrackCutStudy_WithPileup\l_EmbedScanOn">
<polygon fill="none" stroke="#000000" points="624,-927.5 624,-971.5 794,-971.5 794,-927.5 624,-927.5"/>
<text text-anchor="start" x="632" y="-958.5" font-family="FreeSans" font-size="10.00" fill="#000000">Fun4All_G4_sPHENIX</text>
<text text-anchor="start" x="632" y="-946.5" font-family="FreeSans" font-size="10.00" fill="#000000">_ForTrackCutStudy_WithPileup</text>
<text text-anchor="middle" x="709" y="-934.5" font-family="FreeSans" font-size="10.00" fill="#000000">_EmbedScanOn</text>
</a>
</g>
</g>
<!-- Node4&#45;&gt;Node14 -->
<g id="edge13" class="edge">
<title>Node4&#45;&gt;Node14</title>
<path fill="none" stroke="#191970" d="M283.1652,-863.8787C303.0601,-889.8827 343.5425,-936.2764 391,-954.5 465.8698,-983.2498 558.1515,-977.7657 623.9844,-967.6399"/>
<polygon fill="#191970" stroke="#191970" points="285.7885,-861.5413 277.009,-855.6108 280.1739,-865.7219 285.7885,-861.5413"/>
</g>
<!-- Node15 -->
<g id="node15" class="node">
<title>Node15</title>
<g id="a_node15"><a xlink:href="../../dc/dd5/pi0ClusterAna_2macros_2Fun4All__Pi0Gen__sPHENIX_8C.html#ae22b96c3e2c90a36c56dd8b4a0f01eed" target="_top" xlink:title="Fun4All_Pi0Gen_sPHENIX">
<polygon fill="none" stroke="#000000" points="413,-835.5 413,-855.5 555,-855.5 555,-835.5 413,-835.5"/>
<text text-anchor="middle" x="484" y="-842.5" font-family="FreeSans" font-size="10.00" fill="#000000">Fun4All_Pi0Gen_sPHENIX</text>
</a>
</g>
</g>
<!-- Node4&#45;&gt;Node15 -->
<g id="edge14" class="edge">
<title>Node4&#45;&gt;Node15</title>
<path fill="none" stroke="#191970" d="M333.7795,-845.5C358.6645,-845.5 387.2986,-845.5 412.8491,-845.5"/>
<polygon fill="#191970" stroke="#191970" points="333.725,-842.0001 323.725,-845.5 333.725,-849.0001 333.725,-842.0001"/>
</g>
<!-- Node16 -->
<g id="node16" class="node">
<title>Node16</title>
<g id="a_node16"><a xlink:href="../../dd/d77/Fun4All__pi0tbt__SIMPLE__EMBED_8C.html#a39099c6de617885e4423f7727f1243ad" target="_top" xlink:title="Fun4All_pi0tbt_SIMPLE\l_EMBED">
<polygon fill="none" stroke="#000000" points="419.5,-784.5 419.5,-816.5 548.5,-816.5 548.5,-784.5 419.5,-784.5"/>
<text text-anchor="start" x="427.5" y="-803.5" font-family="FreeSans" font-size="10.00" fill="#000000">Fun4All_pi0tbt_SIMPLE</text>
<text text-anchor="middle" x="484" y="-791.5" font-family="FreeSans" font-size="10.00" fill="#000000">_EMBED</text>
</a>
</g>
</g>
<!-- Node4&#45;&gt;Node16 -->
<g id="edge15" class="edge">
<title>Node4&#45;&gt;Node16</title>
<path fill="none" stroke="#191970" d="M327.8856,-833.3278C356.1421,-827.386 390.2344,-820.2171 419.3422,-814.0963"/>
<polygon fill="#191970" stroke="#191970" points="326.8251,-829.9742 317.7594,-835.4571 328.2657,-836.8243 326.8251,-829.9742"/>
</g>
<!-- Node17 -->
<g id="node17" class="node">
<title>Node17</title>
<g id="a_node17"><a xlink:href="../../df/d26/Fun4All__RunCorrelatorJetTree_8C.html#af21981d98733e01e231fd2d02752ea92" target="_top" xlink:title="Fun4All_RunCorrelatorJetTree">
<polygon fill="none" stroke="#000000" points="403,-706.5 403,-726.5 565,-726.5 565,-706.5 403,-706.5"/>
<text text-anchor="middle" x="484" y="-713.5" font-family="FreeSans" font-size="10.00" fill="#000000">Fun4All_RunCorrelatorJetTree</text>
</a>
</g>
</g>
<!-- Node4&#45;&gt;Node17 -->
<g id="edge16" class="edge">
<title>Node4&#45;&gt;Node17</title>
<path fill="none" stroke="#191970" d="M284.2997,-827.4621C305.0362,-802.6237 345.9347,-758.373 391,-735.5 398.2005,-731.8454 406.0518,-728.8937 414.0408,-726.5097"/>
<polygon fill="#191970" stroke="#191970" points="281.453,-825.4145 277.832,-835.3714 286.8718,-829.8457 281.453,-825.4145"/>
</g>
<!-- Node18 -->
<g id="node18" class="node">
<title>Node18</title>
<g id="a_node18"><a xlink:href="../../d5/d09/Fun4All__RunCorrelatorQAModules_8C.html#aa53c85f634fe515c02a297536775b816" target="_top" xlink:title="Fun4All_RunCorrelatorQAModules">
<polygon fill="none" stroke="#000000" points="391,-667.5 391,-687.5 577,-687.5 577,-667.5 391,-667.5"/>
<text text-anchor="middle" x="484" y="-674.5" font-family="FreeSans" font-size="10.00" fill="#000000">Fun4All_RunCorrelatorQAModules</text>
</a>
</g>
</g>
<!-- Node4&#45;&gt;Node18 -->
<g id="edge17" class="edge">
<title>Node4&#45;&gt;Node18</title>
<path fill="none" stroke="#191970" d="M279.852,-826.2123C297.4596,-793.8329 337.548,-728.9146 391,-696.5 396.9181,-692.9111 403.3976,-689.9884 410.095,-687.6099"/>
<polygon fill="#191970" stroke="#191970" points="276.7086,-824.6695 275.1194,-835.1445 282.894,-827.9468 276.7086,-824.6695"/>
</g>
<!-- Node19 -->
<g id="node19" class="node">
<title>Node19</title>
<g id="a_node19"><a xlink:href="../../d0/de8/Fun4All__RunNewTruthMatcher_8C.html#a4a1b7d09229a0c4ebff5f57fa34615a5" target="_top" xlink:title="Fun4All_RunNewTruthMatcher">
<polygon fill="none" stroke="#000000" points="625.5,-538.5 625.5,-558.5 792.5,-558.5 792.5,-538.5 625.5,-538.5"/>
<text text-anchor="middle" x="709" y="-545.5" font-family="FreeSans" font-size="10.00" fill="#000000">Fun4All_RunNewTruthMatcher</text>
</a>
</g>
</g>
<!-- Node4&#45;&gt;Node19 -->
<g id="edge18" class="edge">
<title>Node4&#45;&gt;Node19</title>
<path fill="none" stroke="#191970" d="M277.2361,-825.7306C299.6918,-764.8819 368.0548,-583.536 391,-567.5 474.7525,-508.9668 603.2413,-525.0224 668.2757,-538.4938"/>
<polygon fill="#191970" stroke="#191970" points="273.8741,-824.7324 273.7076,-835.3259 280.444,-827.1484 273.8741,-824.7324"/>
</g>
<!-- Node20 -->
<g id="node20" class="node">
<title>Node20</title>
<g id="a_node20"><a xlink:href="../../d1/d7f/Fun4All__SinglePhotonGen__sPHENIX_8C.html#aed8c3df444bcec04f4a1ae3425fd478e" target="_top" xlink:title="Fun4All_SinglePhotonGen\l_sPHENIX">
<polygon fill="none" stroke="#000000" points="411,-616.5 411,-648.5 557,-648.5 557,-616.5 411,-616.5"/>
<text text-anchor="start" x="419" y="-635.5" font-family="FreeSans" font-size="10.00" fill="#000000">Fun4All_SinglePhotonGen</text>
<text text-anchor="middle" x="484" y="-623.5" font-family="FreeSans" font-size="10.00" fill="#000000">_sPHENIX</text>
</a>
</g>
</g>
<!-- Node4&#45;&gt;Node20 -->
<g id="edge19" class="edge">
<title>Node4&#45;&gt;Node20</title>
<path fill="none" stroke="#191970" d="M276.994,-825.9877C291.7837,-787.5858 329.971,-702.0687 391,-657.5 397.0759,-653.0629 403.8893,-649.4132 410.9932,-646.4113"/>
<polygon fill="#191970" stroke="#191970" points="273.6627,-824.9039 273.4435,-835.4964 280.2205,-827.3526 273.6627,-824.9039"/>
</g>
<!-- Node21 -->
<g id="node21" class="node">
<title>Node21</title>
<g id="a_node21"><a xlink:href="../../dd/d48/Fun4All__SinglePi0Gen__sPHENIX_8C.html#a14b8363c1cc76bfe38542658df7e6adb" target="_top" xlink:title="Fun4All_SinglePi0Gen\l_sPHENIX">
<polygon fill="none" stroke="#000000" points="421.5,-1079.5 421.5,-1111.5 546.5,-1111.5 546.5,-1079.5 421.5,-1079.5"/>
<text text-anchor="start" x="429.5" y="-1098.5" font-family="FreeSans" font-size="10.00" fill="#000000">Fun4All_SinglePi0Gen</text>
<text text-anchor="middle" x="484" y="-1086.5" font-family="FreeSans" font-size="10.00" fill="#000000">_sPHENIX</text>
</a>
</g>
</g>
<!-- Node4&#45;&gt;Node21 -->
<g id="edge20" class="edge">
<title>Node4&#45;&gt;Node21</title>
<path fill="none" stroke="#191970" d="M275.6796,-865.8013C288.736,-908.79 324.9528,-1009.5557 391,-1064.5 399.7661,-1071.7925 410.3139,-1077.3912 421.1103,-1081.6832"/>
<polygon fill="#191970" stroke="#191970" points="278.9652,-864.5674 272.7921,-855.9567 272.2482,-866.5376 278.9652,-864.5674"/>
</g>
<!-- Node22 -->
<g id="node22" class="node">
<title>Node22</title>
<g id="a_node22"><a xlink:href="../../d2/db9/run__calo__fromMDC2Hits__towslope__Fun4All__G4__Calo_8C.html#a18928aae85200e0f8f721942ee3f7105" target="_top" xlink:title="run_calo_fromMDC2Hits\l_towslope_Fun4All_G4_Calo">
<polygon fill="none" stroke="#000000" points="405.5,-913.5 405.5,-945.5 562.5,-945.5 562.5,-913.5 405.5,-913.5"/>
<text text-anchor="start" x="413.5" y="-932.5" font-family="FreeSans" font-size="10.00" fill="#000000">run_calo_fromMDC2Hits</text>
<text text-anchor="middle" x="484" y="-920.5" font-family="FreeSans" font-size="10.00" fill="#000000">_towslope_Fun4All_G4_Calo</text>
</a>
</g>
</g>
<!-- Node4&#45;&gt;Node22 -->
<g id="edge21" class="edge">
<title>Node4&#45;&gt;Node22</title>
<path fill="none" stroke="#191970" d="M297.3491,-860.3057C321.4898,-872.9605 357.8921,-891.0458 391,-903.5 400.5718,-907.1006 410.8624,-910.4615 420.9857,-913.4926"/>
<polygon fill="#191970" stroke="#191970" points="298.8957,-857.1643 288.4201,-855.5792 295.6207,-863.351 298.8957,-857.1643"/>
</g>
<!-- Node23 -->
<g id="node23" class="node">
<title>Node23</title>
<g id="a_node23"><a xlink:href="../../d0/dd8/rundst__spiNo_8C.html#aa9e63ae0240cdee3570896d7f2a9eec1" target="_top" xlink:title="rundst_spiNo">
<polygon fill="none" stroke="#000000" points="443,-745.5 443,-765.5 525,-765.5 525,-745.5 443,-745.5"/>
<text text-anchor="middle" x="484" y="-752.5" font-family="FreeSans" font-size="10.00" fill="#000000">rundst_spiNo</text>
</a>
</g>
</g>
<!-- Node4&#45;&gt;Node23 -->
<g id="edge22" class="edge">
<title>Node4&#45;&gt;Node23</title>
<path fill="none" stroke="#191970" d="M291.9425,-829.6057C315.3603,-813.3867 354.096,-788.6477 391,-774.5 407.4645,-768.1881 426.4126,-763.8333 442.8919,-760.9023"/>
<polygon fill="#191970" stroke="#191970" points="289.9197,-826.7494 283.7532,-835.3648 293.9464,-832.4753 289.9197,-826.7494"/>
</g>
<!-- Node24 -->
<g id="node24" class="node">
<title>Node24</title>
<g id="a_node24"><a xlink:href="../../d0/dea/spiNo2_8C.html#a1c45f2f5f270d0a364c1a4c630e77b24" target="_top" xlink:title="spiNo2">
<polygon fill="none" stroke="#000000" points="459,-874.5 459,-894.5 509,-894.5 509,-874.5 459,-874.5"/>
<text text-anchor="middle" x="484" y="-881.5" font-family="FreeSans" font-size="10.00" fill="#000000">spiNo2</text>
</a>
</g>
</g>
<!-- Node4&#45;&gt;Node24 -->
<g id="edge23" class="edge">
<title>Node4&#45;&gt;Node24</title>
<path fill="none" stroke="#191970" d="M333.5862,-857.0881C375.5171,-864.7297 428.159,-874.3234 458.7484,-879.8981"/>
<polygon fill="#191970" stroke="#191970" points="334.1905,-853.6407 323.725,-855.291 332.9354,-860.5273 334.1905,-853.6407"/>
</g>
<!-- Node25&#45;&gt;Node5 -->
<g id="edge25" class="edge">
<title>Node25&#45;&gt;Node5</title>
<path fill="none" stroke="#191970" d="M303.615,-1110.0648C321.9803,-1119.8606 343.3075,-1134.6348 355,-1154.5 395.67,-1223.5974 331.5445,-1459.7084 391,-1513.5 452.3011,-1568.9613 510.7384,-1562.9285 577,-1513.5 581.5625,-1510.0966 681.3825,-1165.1479 704.3273,-1085.6932"/>
<polygon fill="#191970" stroke="#191970" points="305.1253,-1106.9066 294.6209,-1105.5256 301.9714,-1113.1559 305.1253,-1106.9066"/>
</g>
<!-- Node25&#45;&gt;Node6 -->
<g id="edge26" class="edge">
<title>Node25&#45;&gt;Node6</title>
<path fill="none" stroke="#191970" d="M326.7352,-1097.7849C337.165,-1100.5623 347.2038,-1105.1418 355,-1112.5 401.0968,-1156.0071 340.8405,-1211.7469 391,-1250.5 423.7085,-1275.7705 547.2058,-1279.1487 577,-1250.5 650.581,-1179.748 549.0032,-412.0261 613,-332.5 622.4478,-320.7596 636.6523,-314.1243 651.2582,-310.4758"/>
<polygon fill="#191970" stroke="#191970" points="327.1859,-1094.3024 316.6762,-1095.6422 325.7275,-1101.1488 327.1859,-1094.3024"/>
</g>
<!-- Node25&#45;&gt;Node7 -->
<g id="edge27" class="edge">
<title>Node25&#45;&gt;Node7</title>
<path fill="none" stroke="#191970" d="M278.8314,-1075.9354C296.1807,-1036.6822 334.7788,-945.1666 355,-864.5 369.0758,-808.3486 351.3736,-648.7002 391,-606.5 404.1982,-592.4445 424.7581,-587.2679 443.1937,-585.7903"/>
<polygon fill="#191970" stroke="#191970" points="275.5934,-1074.603 274.7176,-1085.1616 281.9866,-1077.4537 275.5934,-1074.603"/>
</g>
<!-- Node25&#45;&gt;Node8 -->
<g id="edge28" class="edge">
<title>Node25&#45;&gt;Node8</title>
<path fill="none" stroke="#191970" d="M326.3864,-1106.2034C336.4903,-1109.7116 346.4962,-1114.3562 355,-1120.5 377.7848,-1136.9614 367.5401,-1157.0159 391,-1172.5 403.6534,-1180.8515 419.2231,-1185.6543 433.9789,-1188.3803"/>
<polygon fill="#191970" stroke="#191970" points="327.3037,-1102.8232 316.7148,-1103.1762 325.2128,-1109.5036 327.3037,-1102.8232"/>
</g>
<!-- Node25&#45;&gt;Node9 -->
<g id="edge29" class="edge">
<title>Node25&#45;&gt;Node9</title>
<path fill="none" stroke="#191970" d="M326.2881,-1104.2281C336.7482,-1107.9031 346.9125,-1113.1143 355,-1120.5 387.1172,-1149.8299 357.6723,-1183.5533 391,-1211.5 400.0917,-1219.1238 411.4258,-1223.9621 423.0217,-1226.9788"/>
<polygon fill="#191970" stroke="#191970" points="327.2367,-1100.8582 316.6498,-1101.2667 325.1807,-1107.5495 327.2367,-1100.8582"/>
</g>
<!-- Node25&#45;&gt;Node10 -->
<g id="edge30" class="edge">
<title>Node25&#45;&gt;Node10</title>
<path fill="none" stroke="#191970" d="M322.0629,-1107.9075C352.658,-1115.1989 391.4763,-1124.45 423.4367,-1132.0667"/>
<polygon fill="#191970" stroke="#191970" points="322.5632,-1104.4288 312.0242,-1105.5151 320.9403,-1111.2381 322.5632,-1104.4288"/>
</g>
<!-- Node25&#45;&gt;Node11 -->
<g id="edge31" class="edge">
<title>Node25&#45;&gt;Node11</title>
<path fill="none" stroke="#191970" d="M326.5753,-1097.1046C337.2063,-1099.8983 347.3645,-1104.657 355,-1112.5 420.7499,-1180.0374 318.9151,-1260.7701 391,-1321.5 422.6105,-1348.1312 547.1175,-1350.0567 577,-1321.5 640.7667,-1260.5625 581.7558,-610.9825 613,-528.5 629.1731,-485.8043 666.9495,-446.7624 689.999,-425.7381"/>
<polygon fill="#191970" stroke="#191970" points="327.2411,-1093.6682 316.7379,-1095.0591 325.816,-1100.5216 327.2411,-1093.6682"/>
</g>
<!-- Node25&#45;&gt;Node12 -->
<g id="edge32" class="edge">
<title>Node25&#45;&gt;Node12</title>
<path fill="none" stroke="#191970" d="M326.3547,-1097.3233C337.0009,-1100.102 347.2211,-1104.7992 355,-1112.5 410.1948,-1167.1401 330.6897,-1234.5646 391,-1283.5 423.0967,-1309.5431 547.1946,-1312.1371 577,-1283.5 649.1676,-1214.1614 550.2255,-461.4446 613,-383.5 615.7007,-380.1467 618.7894,-377.2099 622.1646,-374.6402"/>
<polygon fill="#191970" stroke="#191970" points="327.0184,-1093.8865 316.5156,-1095.2796 325.5948,-1100.7403 327.0184,-1093.8865"/>
</g>
<!-- Node25&#45;&gt;Node13 -->
<g id="edge33" class="edge">
<title>Node25&#45;&gt;Node13</title>
<path fill="none" stroke="#191970" d="M303.5281,-1110.1163C321.8642,-1119.9294 343.1912,-1134.7037 355,-1154.5 391.7729,-1216.1458 337.4898,-1427.6555 391,-1475.5 421.8128,-1503.0503 546.5808,-1503.4843 577,-1475.5 647.7329,-1410.4289 553.6037,-1120.061 613,-1044.5 616.1485,-1040.4946 619.8157,-1036.986 623.8435,-1033.9131"/>
<polygon fill="#191970" stroke="#191970" points="305.0531,-1106.9654 294.5509,-1105.5671 301.8889,-1113.2094 305.0531,-1106.9654"/>
</g>
<!-- Node25&#45;&gt;Node14 -->
<g id="edge34" class="edge">
<title>Node25&#45;&gt;Node14</title>
<path fill="none" stroke="#191970" d="M303.4347,-1110.1724C321.7393,-1120.0044 343.066,-1134.779 355,-1154.5 388.3924,-1209.681 342.6472,-1399.815 391,-1442.5 421.9867,-1469.8545 546.6589,-1470.5689 577,-1442.5 652.5919,-1372.5692 549.2051,-1061.3372 613,-980.5 616.1465,-976.5129 619.8121,-973.0314 623.8387,-969.992"/>
<polygon fill="#191970" stroke="#191970" points="304.9753,-1107.0293 294.4756,-1105.6123 301.7999,-1113.2677 304.9753,-1107.0293"/>
</g>
<!-- Node25&#45;&gt;Node15 -->
<g id="edge35" class="edge">
<title>Node25&#45;&gt;Node15</title>
<path fill="none" stroke="#191970" d="M274.2963,-1075.6233C285.1815,-1030.3346 318.3023,-919.183 391,-864.5 397.4531,-859.646 404.843,-855.9541 412.5748,-853.1572"/>
<polygon fill="#191970" stroke="#191970" points="270.875,-1074.8842 272.0475,-1085.4139 277.6974,-1076.4512 270.875,-1074.8842"/>
</g>
<!-- Node25&#45;&gt;Node16 -->
<g id="edge36" class="edge">
<title>Node25&#45;&gt;Node16</title>
<path fill="none" stroke="#191970" d="M276.3495,-1075.8438C294.8453,-1019.7138 349.9652,-860.4894 391,-825.5 399.1421,-818.5574 409.0257,-813.5236 419.2711,-809.8781"/>
<polygon fill="#191970" stroke="#191970" points="273.0222,-1074.7583 273.2434,-1085.3509 279.676,-1076.9324 273.0222,-1074.7583"/>
</g>
<!-- Node25&#45;&gt;Node17 -->
<g id="edge37" class="edge">
<title>Node25&#45;&gt;Node17</title>
<path fill="none" stroke="#191970" d="M277.7897,-1075.978C293.4368,-1036.4254 329.3772,-943.8423 355,-864.5 373.2925,-807.8564 347.4505,-776.0778 391,-735.5 394.7376,-732.0174 398.9337,-729.0997 403.4225,-726.6611"/>
<polygon fill="#191970" stroke="#191970" points="274.4588,-1074.8829 274.0213,-1085.4687 280.9647,-1077.4663 274.4588,-1074.8829"/>
</g>
<!-- Node25&#45;&gt;Node18 -->
<g id="edge38" class="edge">
<title>Node25&#45;&gt;Node18</title>
<path fill="none" stroke="#191970" d="M278.3296,-1075.7999C294.7858,-1036.3055 331.8705,-944.3813 355,-864.5 376.2381,-791.1511 336.7465,-750.237 391,-696.5 394.5125,-693.021 398.4789,-690.0964 402.7446,-687.6441"/>
<polygon fill="#191970" stroke="#191970" points="275.0753,-1074.5102 274.4368,-1085.0858 281.5309,-1077.2166 275.0753,-1074.5102"/>
</g>
<!-- Node25&#45;&gt;Node19 -->
<g id="edge39" class="edge">
<title>Node25&#45;&gt;Node19</title>
<path fill="none" stroke="#191970" d="M326.7321,-1096.9539C337.3524,-1099.758 347.4665,-1104.5589 355,-1112.5 431.3521,-1192.983 307.0888,-1286.9322 391,-1359.5 453.5275,-1413.5748 516.2195,-1415.5313 577,-1359.5 613.2284,-1326.1023 604.766,-966.0809 613,-917.5 637.5568,-772.6134 691.7163,-601.5213 705.6692,-558.6306"/>
<polygon fill="#191970" stroke="#191970" points="327.3993,-1093.5178 316.896,-1094.9072 325.9733,-1100.371 327.3993,-1093.5178"/>
</g>
<!-- Node25&#45;&gt;Node20 -->
<g id="edge40" class="edge">
<title>Node25&#45;&gt;Node20</title>
<path fill="none" stroke="#191970" d="M278.5984,-1075.875C295.5331,-1036.5141 333.4285,-944.8161 355,-864.5 379.222,-774.3152 328.0213,-726.447 391,-657.5 396.5251,-651.4513 403.3424,-646.8022 410.7546,-643.2385"/>
<polygon fill="#191970" stroke="#191970" points="275.3535,-1074.5606 274.5872,-1085.1277 281.776,-1077.3449 275.3535,-1074.5606"/>
</g>
<!-- Node25&#45;&gt;Node21 -->
<g id="edge41" class="edge">
<title>Node25&#45;&gt;Node21</title>
<path fill="none" stroke="#191970" d="M327.0761,-1095.5C356.077,-1095.5 391.3847,-1095.5 421.1595,-1095.5"/>
<polygon fill="#191970" stroke="#191970" points="326.6988,-1092.0001 316.6988,-1095.5 326.6987,-1099.0001 326.6988,-1092.0001"/>
</g>
<!-- Node25&#45;&gt;Node22 -->
<g id="edge42" class="edge">
<title>Node25&#45;&gt;Node22</title>
<path fill="none" stroke="#191970" d="M291.0428,-1079.1771C332.1039,-1047.326 422.4517,-977.2431 463.265,-945.5841"/>
<polygon fill="#191970" stroke="#191970" points="288.8208,-1076.4711 283.0645,-1085.3658 293.1112,-1082.0021 288.8208,-1076.4711"/>
</g>
<!-- Node25&#45;&gt;Node23 -->
<g id="edge43" class="edge">
<title>Node25&#45;&gt;Node23</title>
<path fill="none" stroke="#191970" d="M277.392,-1075.5026C303.2034,-1005.7253 387.928,-777.1188 391,-774.5 405.1713,-762.4194 424.9521,-757.3018 442.6291,-755.3539"/>
<polygon fill="#191970" stroke="#191970" points="273.9625,-1074.6856 273.7768,-1085.2788 280.528,-1077.1136 273.9625,-1074.6856"/>
</g>
<!-- Node25&#45;&gt;Node24 -->
<g id="edge44" class="edge">
<title>Node25&#45;&gt;Node24</title>
<path fill="none" stroke="#191970" d="M276.5481,-1075.5023C290.6357,-1035.8274 327.77,-947.2232 391,-903.5 410.9249,-889.7221 438.6319,-885.5024 458.614,-884.4069"/>
<polygon fill="#191970" stroke="#191970" points="273.1869,-1074.5142 273.2522,-1085.1088 279.8081,-1076.786 273.1869,-1074.5142"/>
</g>
<!-- Node26&#45;&gt;Node5 -->
<g id="edge46" class="edge">
<title>Node26&#45;&gt;Node5</title>
<path fill="none" stroke="#191970" d="M553.8243,-1411.5102C562.2711,-1408.0251 570.2741,-1403.4637 577,-1397.5 675.5171,-1310.1483 701.6131,-1138.903 707.4849,-1085.6777"/>
<polygon fill="#191970" stroke="#191970" points="552.3608,-1408.3173 544.1434,-1415.005 554.7377,-1414.9014 552.3608,-1408.3173"/>
</g>
<!-- Node26&#45;&gt;Node6 -->
<g id="edge47" class="edge">
<title>Node26&#45;&gt;Node6</title>
<path fill="none" stroke="#191970" d="M500.5747,-1404.921C522.7562,-1380.1139 561.1397,-1332.3812 577,-1283.5 609.6349,-1182.9196 546.7621,-414.9256 613,-332.5 622.4937,-320.6861 636.8043,-314.0402 651.4983,-310.4052"/>
<polygon fill="#191970" stroke="#191970" points="497.8841,-1402.6772 493.7294,-1412.4235 503.0551,-1407.3953 497.8841,-1402.6772"/>
</g>
<!-- Node26&#45;&gt;Node11 -->
<g id="edge49" class="edge">
<title>Node26&#45;&gt;Node11</title>
<path fill="none" stroke="#191970" d="M519.9814,-1408.0477C540.5026,-1397.7653 564.5483,-1381.7951 577,-1359.5 667.1282,-1198.1225 547.7023,-701.4219 613,-528.5 629.1288,-485.7875 666.9205,-446.7514 689.9847,-425.7327"/>
<polygon fill="#191970" stroke="#191970" points="518.3919,-1404.9278 510.8551,-1412.3741 521.3904,-1411.2531 518.3919,-1404.9278"/>
</g>
<!-- Node26&#45;&gt;Node12 -->
<g id="edge50" class="edge">
<title>Node26&#45;&gt;Node12</title>
<path fill="none" stroke="#191970" d="M506.3398,-1406.1756C528.8325,-1388.2629 562.2494,-1357.2554 577,-1321.5 616.776,-1225.0835 547.6449,-464.7834 613,-383.5 615.698,-380.1445 618.7845,-377.2059 622.158,-374.6349"/>
<polygon fill="#191970" stroke="#191970" points="504.0842,-1403.4954 498.3158,-1412.3822 508.3671,-1409.0323 504.0842,-1403.4954"/>
</g>
<!-- Node26&#45;&gt;Node13 -->
<g id="edge51" class="edge">
<title>Node26&#45;&gt;Node13</title>
<path fill="none" stroke="#191970" d="M553.6163,-1414.0017C562.5377,-1410.1883 570.7285,-1404.872 577,-1397.5 679.1858,-1277.3826 514.4103,-1167.5862 613,-1044.5 616.1851,-1040.5235 619.8804,-1037.0374 623.9296,-1033.9814"/>
<polygon fill="#191970" stroke="#191970" points="552.31,-1410.7523 544.1046,-1417.4547 554.6987,-1417.3321 552.31,-1410.7523"/>
</g>
<!-- Node26&#45;&gt;Node14 -->
<g id="edge52" class="edge">
<title>Node26&#45;&gt;Node14</title>
<path fill="none" stroke="#191970" d="M553.7193,-1414.0887C562.6265,-1410.2633 570.7859,-1404.9204 577,-1397.5 636.7167,-1326.1907 555.0749,-1053.2722 613,-980.5 616.1631,-976.5261 619.8415,-973.0548 623.8779,-970.0231"/>
<polygon fill="#191970" stroke="#191970" points="552.4153,-1410.8386 544.2167,-1417.5493 554.8107,-1417.416 552.4153,-1410.8386"/>
</g>
<!-- Node26&#45;&gt;Node19 -->
<g id="edge53" class="edge">
<title>Node26&#45;&gt;Node19</title>
<path fill="none" stroke="#191970" d="M553.7946,-1414.1513C562.6913,-1410.3172 570.8277,-1404.9553 577,-1397.5 611.1068,-1356.3033 604.2316,-970.2595 613,-917.5 637.0924,-772.5354 691.5929,-601.5006 705.6446,-558.6265"/>
<polygon fill="#191970" stroke="#191970" points="552.4922,-1410.9007 544.2985,-1417.6174 554.8924,-1417.4764 552.4922,-1410.9007"/>
</g>
<!-- Node27 -->
<g id="node27" class="node">
<title>Node27</title>
<g id="a_node27"><a xlink:href="../../dd/db9/analysis_2blob_2master_2EMCal-position-dependent-calibration_2macro_2ana_8357_2Fun4All__G4__sPHENIX_8C.html#ae20c7d3dbdc54255ff5384e9525d9f0c" target="_top" xlink:title="Fun4All_G4_sPHENIX">
<polygon fill="none" stroke="#000000" points="648.5,-1412.5 648.5,-1432.5 769.5,-1432.5 769.5,-1412.5 648.5,-1412.5"/>
<text text-anchor="middle" x="709" y="-1419.5" font-family="FreeSans" font-size="10.00" fill="#000000">Fun4All_G4_sPHENIX</text>
</a>
</g>
</g>
<!-- Node26&#45;&gt;Node27 -->
<g id="edge48" class="edge">
<title>Node26&#45;&gt;Node27</title>
<path fill="none" stroke="#191970" d="M554.0518,-1422.5C584.2779,-1422.5 619.2948,-1422.5 648.385,-1422.5"/>
<polygon fill="#191970" stroke="#191970" points="554.0003,-1419.0001 544.0003,-1422.5 554.0003,-1426.0001 554.0003,-1419.0001"/>
</g>
<!-- Node28&#45;&gt;Node5 -->
<g id="edge55" class="edge">
<title>Node28&#45;&gt;Node5</title>
<path fill="none" stroke="#191970" d="M295.1834,-595.3573C353.2378,-562.6048 497.5601,-493.8413 577,-567.5 654.7868,-639.6259 545.4028,-961.7469 613,-1043.5 622.6277,-1055.1439 636.8892,-1061.8656 651.4921,-1065.6695"/>
<polygon fill="#191970" stroke="#191970" points="293.2365,-592.4395 286.3158,-600.4617 296.7287,-598.5062 293.2365,-592.4395"/>
</g>
<!-- Node28&#45;&gt;Node6 -->
<g id="edge56" class="edge">
<title>Node28&#45;&gt;Node6</title>
<path fill="none" stroke="#191970" d="M271.2238,-590.0991C277.1446,-499.0944 306.0905,-131.6795 391,-63.5 423.2292,-37.621 545.3788,-36.8815 577,-63.5 648.7742,-123.9188 553.1577,-199.2444 613,-271.5 622.821,-283.3582 636.9654,-291.3129 651.3904,-296.6483"/>
<polygon fill="#191970" stroke="#191970" points="267.7224,-590.0141 270.5879,-600.214 274.7086,-590.4534 267.7224,-590.0141"/>
</g>
<!-- Node28&#45;&gt;Node7 -->
<g id="edge57" class="edge">
<title>Node28&#45;&gt;Node7</title>
<path fill="none" stroke="#191970" d="M318.4726,-605.2903C356.0832,-601.2481 407.629,-595.7081 443.1577,-591.8896"/>
<polygon fill="#191970" stroke="#191970" points="317.8276,-601.8394 308.2589,-606.3881 318.5757,-608.7993 317.8276,-601.8394"/>
</g>
<!-- Node28&#45;&gt;Node8 -->
<g id="edge58" class="edge">
<title>Node28&#45;&gt;Node8</title>
<path fill="none" stroke="#191970" d="M279.8608,-630.0853C298.0497,-667.175 336.6911,-750.6617 355,-825.5 373.4229,-900.8042 338.9367,-1115.0584 391,-1172.5 401.8457,-1184.4661 418.0163,-1190.055 433.8457,-1192.3957"/>
<polygon fill="#191970" stroke="#191970" points="282.8847,-628.3048 275.3069,-620.9002 276.6132,-631.4142 282.8847,-628.3048"/>
</g>
<!-- Node28&#45;&gt;Node10 -->
<g id="edge61" class="edge">
<title>Node28&#45;&gt;Node10</title>
<path fill="none" stroke="#191970" d="M279.7369,-630.1162C297.7196,-667.2573 336.0313,-750.8262 355,-825.5 371.3139,-889.7228 347.5768,-1071.4486 391,-1121.5 399.3268,-1131.0978 410.9061,-1137.2003 423.0729,-1141.0369"/>
<polygon fill="#191970" stroke="#191970" points="282.7754,-628.3623 275.237,-620.9176 276.4874,-631.4384 282.7754,-628.3623"/>
</g>
<!-- Node28&#45;&gt;Node11 -->
<g id="edge62" class="edge">
<title>Node28&#45;&gt;Node11</title>
<path fill="none" stroke="#191970" d="M273.1451,-590.2995C284.9644,-517.2762 329.2194,-268.9136 391,-223.5 457.6074,-174.5384 512.4482,-171.8585 577,-223.5 633.9167,-269.0333 562.5843,-330.8593 613,-383.5 616.583,-387.2411 620.6446,-390.4625 625.0234,-393.2345"/>
<polygon fill="#191970" stroke="#191970" points="269.6441,-590.03 271.529,-600.4558 276.5571,-591.1301 269.6441,-590.03"/>
</g>
<!-- Node28&#45;&gt;Node12 -->
<g id="edge63" class="edge">
<title>Node28&#45;&gt;Node12</title>
<path fill="none" stroke="#191970" d="M271.634,-590.0624C279.0172,-503.4744 312.3786,-168.4801 391,-106.5 455.9195,-55.3216 514.116,-52.8401 577,-106.5 654.3707,-172.5216 545.0104,-256.8528 613,-332.5 616.4627,-336.3527 620.4322,-339.6595 624.7422,-342.4954"/>
<polygon fill="#191970" stroke="#191970" points="268.1338,-589.9206 270.7949,-600.1758 275.1099,-590.4995 268.1338,-589.9206"/>
</g>
<!-- Node28&#45;&gt;Node13 -->
<g id="edge64" class="edge">
<title>Node28&#45;&gt;Node13</title>
<path fill="none" stroke="#191970" d="M282.4125,-592.0579C301.8463,-565.0417 342.3145,-515.8221 391,-496.5 467.8366,-466.0055 516.4167,-440.2555 577,-496.5 656.0412,-569.8804 546.7337,-895.4061 613,-980.5 616.1303,-984.5197 619.7833,-988.0393 623.8005,-991.1206"/>
<polygon fill="#191970" stroke="#191970" points="279.5149,-590.0942 276.6469,-600.2935 285.2492,-594.1088 279.5149,-590.0942"/>
</g>
<!-- Node28&#45;&gt;Node14 -->
<g id="edge65" class="edge">
<title>Node28&#45;&gt;Node14</title>
<path fill="none" stroke="#191970" d="M278.6215,-590.6265C294.8246,-556.1397 333.4533,-486.2438 391,-458.5 465.4645,-422.5999 511.3952,-408.2029 577,-458.5 586.7525,-465.9769 679.4711,-832.1803 703.3917,-927.1812"/>
<polygon fill="#191970" stroke="#191970" points="275.2645,-589.5543 274.3168,-600.1067 281.6382,-592.4485 275.2645,-589.5543"/>
</g>
<!-- Node28&#45;&gt;Node15 -->
<g id="edge67" class="edge">
<title>Node28&#45;&gt;Node15</title>
<path fill="none" stroke="#191970" d="M275.1739,-630.4025C287.4315,-673.3722 322.4824,-775.0155 391,-825.5 397.5149,-830.3002 404.943,-833.9956 412.696,-836.8332"/>
<polygon fill="#191970" stroke="#191970" points="278.5027,-629.3065 272.4839,-620.5873 271.7516,-631.1568 278.5027,-629.3065"/>
</g>
<!-- Node28&#45;&gt;Node16 -->
<g id="edge68" class="edge">
<title>Node28&#45;&gt;Node16</title>
<path fill="none" stroke="#191970" d="M278.887,-629.848C295.7211,-664.3097 335.5973,-736.2807 391,-774.5 399.5559,-780.4023 409.4225,-784.9706 419.463,-788.505"/>
<polygon fill="#191970" stroke="#191970" points="282.0417,-628.3319 274.5826,-620.8077 275.7215,-631.3411 282.0417,-628.3319"/>
</g>
<!-- Node28&#45;&gt;Node17 -->
<g id="edge69" class="edge">
<title>Node28&#45;&gt;Node17</title>
<path fill="none" stroke="#191970" d="M288.825,-627.6464C311.4223,-647.2855 351.263,-678.9988 391,-696.5 400.2196,-700.5605 410.3258,-703.8215 420.3726,-706.4335"/>
<polygon fill="#191970" stroke="#191970" points="290.8542,-624.7687 281.0448,-620.7655 286.2168,-630.0122 290.8542,-624.7687"/>
</g>
<!-- Node28&#45;&gt;Node18 -->
<g id="edge70" class="edge">
<title>Node28&#45;&gt;Node18</title>
<path fill="none" stroke="#191970" d="M302.1826,-624.6127C326.2868,-634.7849 360.2631,-648.2889 391,-657.5 403.4977,-661.2453 417.1384,-664.5836 430.0264,-667.4095"/>
<polygon fill="#191970" stroke="#191970" points="303.3875,-621.3216 292.8161,-620.6179 300.6413,-627.7605 303.3875,-621.3216"/>
</g>
<!-- Node28&#45;&gt;Node19 -->
<g id="edge71" class="edge">
<title>Node28&#45;&gt;Node19</title>
<path fill="none" stroke="#191970" d="M275.6636,-590.4365C288.4129,-549.5762 323.6491,-457.4571 391,-420.5 463.4729,-380.7324 500.3849,-389.4532 577,-420.5 637.6492,-445.0769 685.81,-512.3724 702.592,-538.2101"/>
<polygon fill="#191970" stroke="#191970" points="272.2896,-589.503 272.7775,-600.0866 278.9961,-591.5088 272.2896,-589.503"/>
</g>
<!-- Node28&#45;&gt;Node20 -->
<g id="edge72" class="edge">
<title>Node28&#45;&gt;Node20</title>
<path fill="none" stroke="#191970" d="M318.3079,-615.4662C345.527,-618.2645 380.0836,-621.817 410.5873,-624.9529"/>
<polygon fill="#191970" stroke="#191970" points="318.5644,-611.9742 308.2589,-614.4332 317.8485,-618.9375 318.5644,-611.9742"/>
</g>
<!-- Node28&#45;&gt;Node21 -->
<g id="edge73" class="edge">
<title>Node28&#45;&gt;Node21</title>
<path fill="none" stroke="#191970" d="M278.458,-629.8903C294.5876,-667.2764 330.3316,-752.1234 355,-825.5 373.9681,-881.9209 366.3155,-900.3356 391,-954.5 413.1326,-1003.0648 450.8006,-1053.8425 470.7281,-1079.1404"/>
<polygon fill="#191970" stroke="#191970" points="281.6425,-628.4364 274.4542,-620.6531 275.2198,-631.2202 281.6425,-628.4364"/>
</g>
<!-- Node28&#45;&gt;Node22 -->
<g id="edge75" class="edge">
<title>Node28&#45;&gt;Node22</title>
<path fill="none" stroke="#191970" d="M277.6086,-630.2538C302.4103,-694.4609 379.9592,-893.7009 391,-903.5 395.2632,-907.2837 400.0344,-910.521 405.1035,-913.2902"/>
<polygon fill="#191970" stroke="#191970" points="280.7217,-628.5989 273.8568,-620.529 274.1908,-631.1185 280.7217,-628.5989"/>
</g>
<!-- Node28&#45;&gt;Node23 -->
<g id="edge76" class="edge">
<title>Node28&#45;&gt;Node23</title>
<path fill="none" stroke="#191970" d="M282.3149,-628.933C301.8849,-656.6788 342.8369,-708.7652 391,-735.5 406.7391,-744.2366 425.9353,-749.1592 442.7914,-751.9319"/>
<polygon fill="#191970" stroke="#191970" points="285.0771,-626.7733 276.5183,-620.5285 279.3147,-630.7476 285.0771,-626.7733"/>
</g>
<!-- Node28&#45;&gt;Node24 -->
<g id="edge87" class="edge">
<title>Node28&#45;&gt;Node24</title>
<path fill="none" stroke="#191970" d="M276.8001,-630.154C295.8641,-684.1595 351.0382,-832.9034 391,-864.5 410.3026,-879.762 438.6405,-884.0333 458.9571,-884.9376"/>
<polygon fill="#191970" stroke="#191970" points="280.0909,-628.9613 273.484,-620.6789 273.4839,-631.2737 280.0909,-628.9613"/>
</g>
<!-- Node29 -->
<g id="node29" class="node">
<title>Node29</title>
<g id="a_node29"><a xlink:href="../../da/d21/analysis_2blob_2master_2dNdEta__Run2023_2macros_2Fun4All__G4__sPHENIX_8C.html#a65d01d21f3cbf31a409270180b8ac0ae" target="_top" xlink:title="Fun4All_G4_sPHENIX">
<polygon fill="none" stroke="#000000" points="423.5,-.5 423.5,-20.5 544.5,-20.5 544.5,-.5 423.5,-.5"/>
<text text-anchor="middle" x="484" y="-7.5" font-family="FreeSans" font-size="10.00" fill="#000000">Fun4All_G4_sPHENIX</text>
</a>
</g>
</g>
<!-- Node28&#45;&gt;Node29 -->
<g id="edge59" class="edge">
<title>Node28&#45;&gt;Node29</title>
<path fill="none" stroke="#191970" d="M271.4796,-590.1825C278.6059,-497.8404 312.3293,-118.6378 391,-35.5 399.6185,-26.3921 411.1694,-20.4751 423.1947,-16.661"/>
<polygon fill="#191970" stroke="#191970" points="267.9702,-590.1766 270.7097,-600.4111 274.9504,-590.702 267.9702,-590.1766"/>
</g>
<!-- Node31 -->
<g id="node31" class="node">
<title>Node31</title>
<g id="a_node31"><a xlink:href="../../d5/d0c/Fun4All__G4__sPHENIX__jobC_8C.html#aae8407ba67ae20570b11369b6c717c56" target="_top" xlink:title="Fun4All_G4_sPHENIX_jobC">
<polygon fill="none" stroke="#000000" points="410,-155.5 410,-175.5 558,-175.5 558,-155.5 410,-155.5"/>
<text text-anchor="middle" x="484" y="-162.5" font-family="FreeSans" font-size="10.00" fill="#000000">Fun4All_G4_sPHENIX_jobC</text>
</a>
</g>
</g>
<!-- Node28&#45;&gt;Node31 -->
<g id="edge66" class="edge">
<title>Node28&#45;&gt;Node31</title>
<path fill="none" stroke="#191970" d="M273.1759,-590.125C285.4117,-514.1388 331.7848,-248.6651 391,-190.5 397.5601,-184.0562 405.5941,-179.2273 414.1658,-175.6168"/>
<polygon fill="#191970" stroke="#191970" points="269.6758,-589.8503 271.5643,-600.2755 276.5892,-590.948 269.6758,-589.8503"/>
</g>
<!-- Node32 -->
<g id="node32" class="node">
<title>Node32</title>
<g id="a_node32"><a xlink:href="../../d9/d94/tutorials_2blob_2master_2AnaTutorial_2macro_2G4Setup__EICDetector_8C.html#a1bc4152d1a11b8b2ca2695f72e141980" target="_top" xlink:title="G4Init">
<polygon fill="none" stroke="#000000" points="460.5,-116.5 460.5,-136.5 507.5,-136.5 507.5,-116.5 460.5,-116.5"/>
<text text-anchor="middle" x="484" y="-123.5" font-family="FreeSans" font-size="10.00" fill="#000000">G4Init</text>
</a>
</g>
</g>
<!-- Node28&#45;&gt;Node32 -->
<g id="edge74" class="edge">
<title>Node28&#45;&gt;Node32</title>
<path fill="none" stroke="#191970" d="M272.4647,-589.97C282.668,-508.4314 324.2224,-208.8264 391,-145.5 409.4146,-128.0371 439.3288,-124.7086 460.2432,-124.8284"/>
<polygon fill="#191970" stroke="#191970" points="268.9333,-590.0116 271.1875,-600.3639 275.8811,-590.8654 268.9333,-590.0116"/>
</g>
<!-- Node33 -->
<g id="node33" class="node">
<title>Node33</title>
<g id="a_node33"><a xlink:href="../../d9/df1/Trkr__Diagnostics_8C.html#a9aa0462be49611fcab18f73f85c6cce0" target="_top" xlink:title="seedResiduals">
<polygon fill="none" stroke="#000000" points="439.5,-233.5 439.5,-253.5 528.5,-253.5 528.5,-233.5 439.5,-233.5"/>
<text text-anchor="middle" x="484" y="-240.5" font-family="FreeSans" font-size="10.00" fill="#000000">seedResiduals</text>
</a>
</g>
</g>
<!-- Node28&#45;&gt;Node33 -->
<g id="edge77" class="edge">
<title>Node28&#45;&gt;Node33</title>
<path fill="none" stroke="#191970" d="M270.9136,-590.0427C274.6918,-530.9195 293.9265,-358.3321 391,-268.5 404.0072,-256.4631 422.1875,-250.108 439.0268,-246.7933"/>
<polygon fill="#191970" stroke="#191970" points="267.4041,-590.118 270.3455,-600.2963 274.3934,-590.5052 267.4041,-590.118"/>
</g>
<!-- Node30 -->
<g id="node30" class="node">
<title>Node30</title>
<g id="a_node30"><a xlink:href="../../dd/dd1/analysis_2blob_2master_2EMCal-position-dependent-calibration_2macro_2ana_8354_2Fun4All__G4__sPHENIX_8C.html#a0ddf1224851353fc92bfbff6f499fa97" target="_top" xlink:title="main">
<polygon fill="none" stroke="#000000" points="688.5,-.5 688.5,-20.5 729.5,-20.5 729.5,-.5 688.5,-.5"/>
<text text-anchor="middle" x="709" y="-7.5" font-family="FreeSans" font-size="10.00" fill="#000000">main</text>
</a>
</g>
</g>
<!-- Node29&#45;&gt;Node30 -->
<g id="edge60" class="edge">
<title>Node29&#45;&gt;Node30</title>
<path fill="none" stroke="#191970" d="M554.5972,-10.5C600.9305,-10.5 658.3276,-10.5 688.4038,-10.5"/>
<polygon fill="#191970" stroke="#191970" points="554.5919,-7.0001 544.5919,-10.5 554.5918,-14.0001 554.5919,-7.0001"/>
</g>
<!-- Node33&#45;&gt;Node5 -->
<g id="edge78" class="edge">
<title>Node33&#45;&gt;Node5</title>
<path fill="none" stroke="#191970" d="M493.4107,-263.0711C512.9833,-304.8205 557.8459,-406.1868 577,-496.5 589.6369,-556.084 574.4166,-996.3698 613,-1043.5 622.5707,-1055.1908 636.8142,-1061.9273 651.418,-1065.7304"/>
<polygon fill="#191970" stroke="#191970" points="496.4554,-261.3227 489.0106,-253.7844 490.1295,-264.32 496.4554,-261.3227"/>
</g>
<!-- Node33&#45;&gt;Node6 -->
<g id="edge79" class="edge">
<title>Node33&#45;&gt;Node6</title>
<path fill="none" stroke="#191970" d="M531.8517,-256.1212C546.3731,-260.0164 562.3571,-264.3694 577,-268.5 602.9882,-275.831 631.7526,-284.2889 655.7786,-291.4504"/>
<polygon fill="#191970" stroke="#191970" points="532.6312,-252.7067 522.0665,-253.5059 530.8237,-259.4693 532.6312,-252.7067"/>
</g>
<!-- Node33&#45;&gt;Node11 -->
<g id="edge81" class="edge">
<title>Node33&#45;&gt;Node11</title>
<path fill="none" stroke="#191970" d="M538.7944,-248.7451C552.6962,-252.4392 566.6156,-258.5306 577,-268.5 615.6346,-305.5907 574.4003,-346.3731 613,-383.5 616.9823,-387.3304 621.4691,-390.6094 626.2719,-393.4151"/>
<polygon fill="#191970" stroke="#191970" points="539.2526,-245.26 528.7257,-246.4577 537.7018,-252.0861 539.2526,-245.26"/>
</g>
<!-- Node33&#45;&gt;Node12 -->
<g id="edge82" class="edge">
<title>Node33&#45;&gt;Node12</title>
<path fill="none" stroke="#191970" d="M538.6647,-250.5644C552.1873,-254.2724 565.951,-259.9158 577,-268.5 602.7718,-288.5226 587.2471,-312.4532 613,-332.5 617.9052,-336.3183 623.3292,-339.5769 629.0292,-342.3577"/>
<polygon fill="#191970" stroke="#191970" points="539.4467,-247.1526 528.9029,-248.1921 537.7936,-253.9546 539.4467,-247.1526"/>
</g>
<!-- Node33&#45;&gt;Node13 -->
<g id="edge83" class="edge">
<title>Node33&#45;&gt;Node13</title>
<path fill="none" stroke="#191970" d="M495.0866,-262.8946C515.4829,-299.6667 558.5533,-382.6458 577,-458.5 604.4759,-571.4826 541.8059,-888.5685 613,-980.5 616.1195,-984.5281 619.7641,-988.0542 623.7749,-991.1404"/>
<polygon fill="#191970" stroke="#191970" points="497.9231,-260.7974 489.9743,-253.7925 491.8198,-264.2254 497.9231,-260.7974"/>
</g>
<!-- Node33&#45;&gt;Node14 -->
<g id="edge84" class="edge">
<title>Node33&#45;&gt;Node14</title>
<path fill="none" stroke="#191970" d="M495.9979,-262.5324C515.4932,-294.1971 554.1628,-360.1893 577,-420.5 600.8197,-483.4052 596.8028,-502.2153 613,-567.5 646.9206,-704.2211 688.4124,-868.2601 703.3261,-927.1223"/>
<polygon fill="#191970" stroke="#191970" points="498.8538,-260.4969 490.602,-253.8518 492.9087,-264.1924 498.8538,-260.4969"/>
</g>
<!-- Node33&#45;&gt;Node19 -->
<g id="edge85" class="edge">
<title>Node33&#45;&gt;Node19</title>
<path fill="none" stroke="#191970" d="M538.6009,-247.9331C552.7755,-251.5963 566.8836,-257.8748 577,-268.5 629.0564,-323.1744 579.7067,-366.7452 613,-434.5 634.6808,-478.6225 677.06,-520.0467 697.4708,-538.4733"/>
<polygon fill="#191970" stroke="#191970" points="539.3424,-244.5126 528.8253,-245.7936 537.8458,-251.3508 539.3424,-244.5126"/>
</g>
<!-- Node34 -->
<g id="node34" class="node">
<title>Node34</title>
<g id="a_node34"><a xlink:href="../../dd/dd1/analysis_2blob_2master_2EMCal-position-dependent-calibration_2macro_2ana_8354_2Fun4All__G4__sPHENIX_8C.html#ae20c7d3dbdc54255ff5384e9525d9f0c" target="_top" xlink:title="Fun4All_G4_sPHENIX">
<polygon fill="none" stroke="#000000" points="648.5,-203.5 648.5,-223.5 769.5,-223.5 769.5,-203.5 648.5,-203.5"/>
<text text-anchor="middle" x="709" y="-210.5" font-family="FreeSans" font-size="10.00" fill="#000000">Fun4All_G4_sPHENIX</text>
</a>
</g>
</g>
<!-- Node33&#45;&gt;Node34 -->
<g id="edge80" class="edge">
<title>Node33&#45;&gt;Node34</title>
<path fill="none" stroke="#191970" d="M538.6782,-236.2096C571.7698,-231.7974 614.0278,-226.163 648.1726,-221.6103"/>
<polygon fill="#191970" stroke="#191970" points="538.1714,-232.7461 528.7218,-237.5371 539.0967,-239.6847 538.1714,-232.7461"/>
</g>
<!-- Node35 -->
<g id="node35" class="node">
<title>Node35</title>
<g id="a_node35"><a xlink:href="../../d9/df1/Trkr__Diagnostics_8C.html#aa7d08348ad9b60a152bee67ddfc30edc" target="_top" xlink:title="Tracking_Diagnostics">
<polygon fill="none" stroke="#000000" points="647.5,-242.5 647.5,-262.5 770.5,-262.5 770.5,-242.5 647.5,-242.5"/>
<text text-anchor="middle" x="709" y="-249.5" font-family="FreeSans" font-size="10.00" fill="#000000">Tracking_Diagnostics</text>
</a>
</g>
</g>
<!-- Node33&#45;&gt;Node35 -->
<g id="edge86" class="edge">
<title>Node33&#45;&gt;Node35</title>
<path fill="none" stroke="#191970" d="M539.0263,-245.7011C571.7917,-247.0117 613.4499,-248.678 647.3242,-250.033"/>
<polygon fill="#191970" stroke="#191970" points="538.8537,-242.1914 528.7218,-245.2889 538.5739,-249.1858 538.8537,-242.1914"/>
</g>
</g>
</svg>
