<?xml version="1.0" encoding="UTF-8" standalone="no"?>
<!DOCTYPE svg PUBLIC "-//W3C//DTD SVG 1.1//EN"
 "http://www.w3.org/Graphics/SVG/1.1/DTD/svg11.dtd">
<!-- Generated by graphviz version 2.40.1 (20161225.0304)
 -->
<!-- Title: coresoftware/blob/master/offline/framework/phool/PHFlag.cc Pages: 1 -->
<svg width="472pt" height="167pt"
 viewBox="0.00 0.00 472.00 167.00" xmlns="http://www.w3.org/2000/svg" xmlns:xlink="http://www.w3.org/1999/xlink">
<g id="graph0" class="graph" transform="scale(1 1) rotate(0) translate(4 163)">
<title>coresoftware/blob/master/offline/framework/phool/PHFlag.cc</title>
<!-- Node1 -->
<g id="node1" class="node">
<title>Node1</title>
<polygon fill="#bfbfbf" stroke="#000000" points="167.5,-114.5 167.5,-158.5 313.5,-158.5 313.5,-114.5 167.5,-114.5"/>
<text text-anchor="start" x="175.5" y="-145.5" font-family="FreeSans" font-size="10.00" fill="#000000">coresoftware/blob/master</text>
<text text-anchor="start" x="175.5" y="-133.5" font-family="FreeSans" font-size="10.00" fill="#000000">/offline/framework/phool</text>
<text text-anchor="middle" x="240.5" y="-121.5" font-family="FreeSans" font-size="10.00" fill="#000000">/PHFlag.cc</text>
</g>
<!-- Node2 -->
<g id="node2" class="node">
<title>Node2</title>
<g id="a_node2"><a xlink:href="../../d0/d11/PHFlag_8h.html" target="_top" xlink:title="PHFlag.h">
<polygon fill="none" stroke="#000000" points="47.5,-57.5 47.5,-77.5 107.5,-77.5 107.5,-57.5 47.5,-57.5"/>
<text text-anchor="middle" x="77.5" y="-64.5" font-family="FreeSans" font-size="10.00" fill="#000000">PHFlag.h</text>
</a>
</g>
</g>
<!-- Node1&#45;&gt;Node2 -->
<g id="edge1" class="edge">
<title>Node1&#45;&gt;Node2</title>
<path fill="none" stroke="#191970" d="M188.4776,-114.4783C162.9934,-103.6905 133.0652,-91.0215 110.7142,-81.56"/>
<polygon fill="#191970" stroke="#191970" points="111.9017,-78.262 101.3284,-77.5869 109.1729,-84.7083 111.9017,-78.262"/>
</g>
<!-- Node3 -->
<g id="node3" class="node">
<title>Node3</title>
<polygon fill="none" stroke="#bfbfbf" points="0,-.5 0,-20.5 39,-20.5 39,-.5 0,-.5"/>
<text text-anchor="middle" x="19.5" y="-7.5" font-family="FreeSans" font-size="10.00" fill="#000000">map</text>
</g>
<!-- Node1&#45;&gt;Node3 -->
<g id="edge7" class="edge">
<title>Node1&#45;&gt;Node3</title>
<path fill="none" stroke="#191970" d="M167.3952,-123.0869C117.3388,-112.498 56.8253,-96.4634 38.5,-78 26.1987,-65.606 21.7175,-45.9099 20.155,-30.9854"/>
<polygon fill="#191970" stroke="#191970" points="23.6257,-30.439 19.4478,-20.7027 16.6422,-30.9193 23.6257,-30.439"/>
</g>
<!-- Node5 -->
<g id="node5" class="node">
<title>Node5</title>
<polygon fill="none" stroke="#bfbfbf" points="126,-57.5 126,-77.5 249,-77.5 249,-57.5 126,-57.5"/>
<text text-anchor="middle" x="187.5" y="-64.5" font-family="FreeSans" font-size="10.00" fill="#000000">boost/stacktrace.hpp</text>
</g>
<!-- Node1&#45;&gt;Node5 -->
<g id="edge4" class="edge">
<title>Node1&#45;&gt;Node5</title>
<path fill="none" stroke="#191970" d="M223.4387,-114.2882C216.3577,-105.0694 208.2424,-94.5042 201.5172,-85.7488"/>
<polygon fill="#191970" stroke="#191970" points="204.2126,-83.5121 195.3453,-77.7137 198.6612,-87.7763 204.2126,-83.5121"/>
</g>
<!-- Node6 -->
<g id="node6" class="node">
<title>Node6</title>
<polygon fill="none" stroke="#bfbfbf" points="267,-57.5 267,-77.5 322,-77.5 322,-57.5 267,-57.5"/>
<text text-anchor="middle" x="294.5" y="-64.5" font-family="FreeSans" font-size="10.00" fill="#000000">fstream</text>
</g>
<!-- Node1&#45;&gt;Node6 -->
<g id="edge5" class="edge">
<title>Node1&#45;&gt;Node6</title>
<path fill="none" stroke="#191970" d="M257.8832,-114.2882C265.0978,-105.0694 273.3663,-94.5042 280.2183,-85.7488"/>
<polygon fill="#191970" stroke="#191970" points="283.0998,-87.7458 286.5067,-77.7137 277.5873,-83.4316 283.0998,-87.7458"/>
</g>
<!-- Node7 -->
<g id="node7" class="node">
<title>Node7</title>
<polygon fill="none" stroke="#bfbfbf" points="340.5,-57.5 340.5,-77.5 400.5,-77.5 400.5,-57.5 340.5,-57.5"/>
<text text-anchor="middle" x="370.5" y="-64.5" font-family="FreeSans" font-size="10.00" fill="#000000">iostream</text>
</g>
<!-- Node1&#45;&gt;Node7 -->
<g id="edge6" class="edge">
<title>Node1&#45;&gt;Node7</title>
<path fill="none" stroke="#191970" d="M281.9902,-114.4783C301.6771,-104.0291 324.6892,-91.815 342.3139,-82.4603"/>
<polygon fill="#191970" stroke="#191970" points="344.3037,-85.3667 351.4958,-77.5869 341.0219,-79.1836 344.3037,-85.3667"/>
</g>
<!-- Node8 -->
<g id="node8" class="node">
<title>Node8</title>
<polygon fill="none" stroke="#bfbfbf" points="419,-57.5 419,-77.5 464,-77.5 464,-57.5 419,-57.5"/>
<text text-anchor="middle" x="441.5" y="-64.5" font-family="FreeSans" font-size="10.00" fill="#000000">utility</text>
</g>
<!-- Node1&#45;&gt;Node8 -->
<g id="edge8" class="edge">
<title>Node1&#45;&gt;Node8</title>
<path fill="none" stroke="#191970" d="M304.6503,-114.4783C339.4406,-102.5353 380.9475,-88.2867 409.0569,-78.6372"/>
<polygon fill="#191970" stroke="#191970" points="410.4477,-81.8603 418.7695,-75.303 408.1749,-75.2395 410.4477,-81.8603"/>
</g>
<!-- Node2&#45;&gt;Node3 -->
<g id="edge2" class="edge">
<title>Node2&#45;&gt;Node3</title>
<path fill="none" stroke="#191970" d="M67.1308,-57.3095C58.8005,-49.1229 46.9136,-37.441 37.0989,-27.7955"/>
<polygon fill="#191970" stroke="#191970" points="39.3651,-25.1153 29.7795,-20.6022 34.4585,-30.1079 39.3651,-25.1153"/>
</g>
<!-- Node4 -->
<g id="node4" class="node">
<title>Node4</title>
<polygon fill="none" stroke="#bfbfbf" points="57,-.5 57,-20.5 102,-20.5 102,-.5 57,-.5"/>
<text text-anchor="middle" x="79.5" y="-7.5" font-family="FreeSans" font-size="10.00" fill="#000000">string</text>
</g>
<!-- Node2&#45;&gt;Node4 -->
<g id="edge3" class="edge">
<title>Node2&#45;&gt;Node4</title>
<path fill="none" stroke="#191970" d="M77.8576,-57.3095C78.1164,-49.9335 78.4747,-39.72 78.7907,-30.715"/>
<polygon fill="#191970" stroke="#191970" points="82.2926,-30.7188 79.1455,-20.6022 75.2969,-30.4733 82.2926,-30.7188"/>
</g>
</g>
</svg>
