<?xml version="1.0" encoding="UTF-8" standalone="no"?>
<!DOCTYPE svg PUBLIC "-//W3C//DTD SVG 1.1//EN"
 "http://www.w3.org/Graphics/SVG/1.1/DTD/svg11.dtd">
<!-- Generated by graphviz version 2.40.1 (20161225.0304)
 -->
<!-- Title: JETSCAPE/blob/main/jail/JetScapeWriterAsciiGZ.h Pages: 1 -->
<svg width="312pt" height="110pt"
 viewBox="0.00 0.00 311.50 110.00" xmlns="http://www.w3.org/2000/svg" xmlns:xlink="http://www.w3.org/1999/xlink">
<g id="graph0" class="graph" transform="scale(1 1) rotate(0) translate(4 106)">
<title>JETSCAPE/blob/main/jail/JetScapeWriterAsciiGZ.h</title>
<!-- Node1 -->
<g id="node1" class="node">
<title>Node1</title>
<polygon fill="#bfbfbf" stroke="#000000" points="82.5,-69.5 82.5,-101.5 243.5,-101.5 243.5,-69.5 82.5,-69.5"/>
<text text-anchor="start" x="90.5" y="-88.5" font-family="FreeSans" font-size="10.00" fill="#000000">JETSCAPE/blob/main</text>
<text text-anchor="middle" x="163" y="-76.5" font-family="FreeSans" font-size="10.00" fill="#000000">/jail/JetScapeWriterAsciiGZ.h</text>
</g>
<!-- Node2 -->
<g id="node2" class="node">
<title>Node2</title>
<g id="a_node2"><a xlink:href="../../d3/daa/JetScapeWriterAsciiGZ_8cc.html" target="_top" xlink:title="JETSCAPE/blob/main\l/jail/JetScapeWriterAsciiGZ.cc">
<polygon fill="none" stroke="#000000" points="0,-.5 0,-32.5 166,-32.5 166,-.5 0,-.5"/>
<text text-anchor="start" x="8" y="-19.5" font-family="FreeSans" font-size="10.00" fill="#000000">JETSCAPE/blob/main</text>
<text text-anchor="middle" x="83" y="-7.5" font-family="FreeSans" font-size="10.00" fill="#000000">/jail/JetScapeWriterAsciiGZ.cc</text>
</a>
</g>
</g>
<!-- Node1&#45;&gt;Node2 -->
<g id="edge1" class="edge">
<title>Node1&#45;&gt;Node2</title>
<path fill="none" stroke="#191970" d="M136.8413,-62.9382C125.3795,-53.0523 112.188,-41.6747 101.7312,-32.6557"/>
<polygon fill="#191970" stroke="#191970" points="134.5868,-65.6157 144.4453,-69.4966 139.1588,-60.3149 134.5868,-65.6157"/>
</g>
<!-- Node3 -->
<g id="node3" class="node">
<title>Node3</title>
<g id="a_node3"><a xlink:href="../../d4/d8d/writerTest_8cc.html" target="_top" xlink:title="JETSCAPE/blob/main\l/jail/writerTest.cc">
<polygon fill="none" stroke="#000000" points="184.5,-.5 184.5,-32.5 303.5,-32.5 303.5,-.5 184.5,-.5"/>
<text text-anchor="start" x="192.5" y="-19.5" font-family="FreeSans" font-size="10.00" fill="#000000">JETSCAPE/blob/main</text>
<text text-anchor="middle" x="244" y="-7.5" font-family="FreeSans" font-size="10.00" fill="#000000">/jail/writerTest.cc</text>
</a>
</g>
</g>
<!-- Node1&#45;&gt;Node3 -->
<g id="edge2" class="edge">
<title>Node1&#45;&gt;Node3</title>
<path fill="none" stroke="#191970" d="M189.4856,-62.9382C201.0908,-53.0523 214.4471,-41.6747 225.0347,-32.6557"/>
<polygon fill="#191970" stroke="#191970" points="187.1294,-60.3475 181.7866,-69.4966 191.6687,-65.6762 187.1294,-60.3475"/>
</g>
</g>
</svg>
