<?xml version="1.0" encoding="UTF-8" standalone="no"?>
<!DOCTYPE svg PUBLIC "-//W3C//DTD SVG 1.1//EN"
 "http://www.w3.org/Graphics/SVG/1.1/DTD/svg11.dtd">
<!-- Generated by graphviz version 2.40.1 (20161225.0304)
 -->
<!-- Title: Fun4AllStreamingInputManager::AddInttRawHit Pages: 1 -->
<svg width="361pt" height="107pt"
 viewBox="0.00 0.00 361.00 107.00" xmlns="http://www.w3.org/2000/svg" xmlns:xlink="http://www.w3.org/1999/xlink">
<g id="graph0" class="graph" transform="scale(1 1) rotate(0) translate(4 103)">
<title>Fun4AllStreamingInputManager::AddInttRawHit</title>
<!-- Node1 -->
<g id="node1" class="node">
<title>Node1</title>
<polygon fill="#bfbfbf" stroke="#000000" points="0,-33.5 0,-65.5 177,-65.5 177,-33.5 0,-33.5"/>
<text text-anchor="start" x="8" y="-52.5" font-family="FreeSans" font-size="10.00" fill="#000000">Fun4AllStreamingInputManager</text>
<text text-anchor="middle" x="88.5" y="-40.5" font-family="FreeSans" font-size="10.00" fill="#000000">::AddInttRawHit</text>
</g>
<!-- Node2 -->
<g id="node2" class="node">
<title>Node2</title>
<g id="a_node2"><a xlink:href="../../d6/d89/classInttRawHit.html#aa4dceeefed90e8056767b26c0fc42f95" target="_top" xlink:title="InttRawHit::get_fee">
<polygon fill="none" stroke="#000000" points="226.5,-78.5 226.5,-98.5 339.5,-98.5 339.5,-78.5 226.5,-78.5"/>
<text text-anchor="middle" x="283" y="-85.5" font-family="FreeSans" font-size="10.00" fill="#000000">InttRawHit::get_fee</text>
</a>
</g>
</g>
<!-- Node1&#45;&gt;Node2 -->
<g id="edge1" class="edge">
<title>Node1&#45;&gt;Node2</title>
<path fill="none" stroke="#191970" d="M168.4526,-65.5316C186.6707,-69.1846 205.7256,-73.0054 222.9478,-76.4587"/>
<polygon fill="#191970" stroke="#191970" points="222.3631,-79.911 232.8561,-78.4454 223.7394,-73.0477 222.3631,-79.911"/>
</g>
<!-- Node3 -->
<g id="node3" class="node">
<title>Node3</title>
<g id="a_node3"><a xlink:href="../../d6/d89/classInttRawHit.html#a1662c69d5572e741aa0ea723419cca73" target="_top" xlink:title="InttRawHit::get_packetid">
<polygon fill="none" stroke="#000000" points="213,-39.5 213,-59.5 353,-59.5 353,-39.5 213,-39.5"/>
<text text-anchor="middle" x="283" y="-46.5" font-family="FreeSans" font-size="10.00" fill="#000000">InttRawHit::get_packetid</text>
</a>
</g>
</g>
<!-- Node1&#45;&gt;Node3 -->
<g id="edge2" class="edge">
<title>Node1&#45;&gt;Node3</title>
<path fill="none" stroke="#191970" d="M177.2124,-49.5C185.6887,-49.5 194.2521,-49.5 202.6425,-49.5"/>
<polygon fill="#191970" stroke="#191970" points="202.7736,-53.0001 212.7735,-49.5 202.7735,-46.0001 202.7736,-53.0001"/>
</g>
<!-- Node4 -->
<g id="node4" class="node">
<title>Node4</title>
<g id="a_node4"><a xlink:href="../../d5/dec/classFun4AllBase.html#a8a5c77a92bdac6bc043476e132379a40" target="_top" xlink:title="Gets the verbosity of this module.">
<polygon fill="none" stroke="#000000" points="217,-.5 217,-20.5 349,-20.5 349,-.5 217,-.5"/>
<text text-anchor="middle" x="283" y="-7.5" font-family="FreeSans" font-size="10.00" fill="#000000">Fun4AllBase::Verbosity</text>
</a>
</g>
</g>
<!-- Node1&#45;&gt;Node4 -->
<g id="edge3" class="edge">
<title>Node1&#45;&gt;Node4</title>
<path fill="none" stroke="#191970" d="M168.4526,-33.4684C186.6707,-29.8154 205.7256,-25.9946 222.9478,-22.5413"/>
<polygon fill="#191970" stroke="#191970" points="223.7394,-25.9523 232.8561,-20.5546 222.3631,-19.089 223.7394,-25.9523"/>
</g>
</g>
</svg>
