<?xml version="1.0" encoding="UTF-8" standalone="no"?>
<!DOCTYPE svg PUBLIC "-//W3C//DTD SVG 1.1//EN"
 "http://www.w3.org/Graphics/SVG/1.1/DTD/svg11.dtd">
<!-- Generated by graphviz version 2.40.1 (20161225.0304)
 -->
<!-- Title: GenFit/blob/master/core/include/FieldManager.h Pages: 1 -->
<svg width="2873pt" height="122pt"
 viewBox="0.00 0.00 2872.50 122.00" xmlns="http://www.w3.org/2000/svg" xmlns:xlink="http://www.w3.org/1999/xlink">
<g id="graph0" class="graph" transform="scale(1 1) rotate(0) translate(4 118)">
<title>GenFit/blob/master/core/include/FieldManager.h</title>
<!-- Node1 -->
<g id="node1" class="node">
<title>Node1</title>
<polygon fill="#bfbfbf" stroke="#000000" points="1320.5,-81.5 1320.5,-113.5 1482.5,-113.5 1482.5,-81.5 1320.5,-81.5"/>
<text text-anchor="start" x="1328.5" y="-100.5" font-family="FreeSans" font-size="10.00" fill="#000000">GenFit/blob/master</text>
<text text-anchor="middle" x="1401.5" y="-88.5" font-family="FreeSans" font-size="10.00" fill="#000000">/core/include/FieldManager.h</text>
</g>
<!-- Node2 -->
<g id="node2" class="node">
<title>Node2</title>
<g id="a_node2"><a xlink:href="../../d6/da7/FieldManager_8cc.html" target="_top" xlink:title="GenFit/blob/master\l/core/src/FieldManager.cc">
<polygon fill="none" stroke="#000000" points="0,-6.5 0,-38.5 145,-38.5 145,-6.5 0,-6.5"/>
<text text-anchor="start" x="8" y="-25.5" font-family="FreeSans" font-size="10.00" fill="#000000">GenFit/blob/master</text>
<text text-anchor="middle" x="72.5" y="-13.5" font-family="FreeSans" font-size="10.00" fill="#000000">/core/src/FieldManager.cc</text>
</a>
</g>
</g>
<!-- Node1&#45;&gt;Node2 -->
<g id="edge1" class="edge">
<title>Node1&#45;&gt;Node2</title>
<path fill="none" stroke="#191970" d="M1310.2374,-96.3682C1061.6749,-92.8538 376.4,-80.1702 153.5,-45 143.6967,-43.4532 133.3863,-41.1406 123.5299,-38.5782"/>
<polygon fill="#191970" stroke="#191970" points="1310.2716,-99.8689 1320.3195,-96.5091 1310.3694,-92.8696 1310.2716,-99.8689"/>
</g>
<!-- Node3 -->
<g id="node3" class="node">
<title>Node3</title>
<g id="a_node3"><a xlink:href="../../d0/d12/EventDisplay_8cc.html" target="_top" xlink:title="GenFit/blob/master\l/eventDisplay/src/EventDisplay.cc">
<polygon fill="none" stroke="#000000" points="163,-6.5 163,-38.5 350,-38.5 350,-6.5 163,-6.5"/>
<text text-anchor="start" x="171" y="-25.5" font-family="FreeSans" font-size="10.00" fill="#000000">GenFit/blob/master</text>
<text text-anchor="middle" x="256.5" y="-13.5" font-family="FreeSans" font-size="10.00" fill="#000000">/eventDisplay/src/EventDisplay.cc</text>
</a>
</g>
</g>
<!-- Node1&#45;&gt;Node3 -->
<g id="edge2" class="edge">
<title>Node1&#45;&gt;Node3</title>
<path fill="none" stroke="#191970" d="M1310.3233,-94.8361C1091.6429,-88.135 541.9782,-69.3589 359.5,-45 347.3444,-43.3774 334.4963,-41.0629 322.1509,-38.5299"/>
<polygon fill="#191970" stroke="#191970" points="1310.3816,-98.3394 1320.4837,-95.146 1310.5951,-91.3427 1310.3816,-98.3394"/>
</g>
<!-- Node4 -->
<g id="node4" class="node">
<title>Node4</title>
<g id="a_node4"><a xlink:href="../../db/df5/GblFitter_8cc.html" target="_top" xlink:title="GenFit/blob/master\l/GBL/src/GblFitter.cc">
<polygon fill="none" stroke="#000000" points="368.5,-6.5 368.5,-38.5 486.5,-38.5 486.5,-6.5 368.5,-6.5"/>
<text text-anchor="start" x="376.5" y="-25.5" font-family="FreeSans" font-size="10.00" fill="#000000">GenFit/blob/master</text>
<text text-anchor="middle" x="427.5" y="-13.5" font-family="FreeSans" font-size="10.00" fill="#000000">/GBL/src/GblFitter.cc</text>
</a>
</g>
</g>
<!-- Node1&#45;&gt;Node4 -->
<g id="edge3" class="edge">
<title>Node1&#45;&gt;Node4</title>
<path fill="none" stroke="#191970" d="M1310.14,-95.2379C1112.2871,-89.845 649.6101,-74.4327 495.5,-45 487.1943,-43.4137 478.5032,-41.0826 470.2173,-38.5143"/>
<polygon fill="#191970" stroke="#191970" points="1310.1261,-98.7387 1320.2171,-95.5102 1310.3153,-91.7413 1310.1261,-98.7387"/>
</g>
<!-- Node5 -->
<g id="node5" class="node">
<title>Node5</title>
<g id="a_node5"><a xlink:href="../../d5/d90/GFGbl_8cc.html" target="_top" xlink:title="GenFit/blob/master\l/GBL/src/GFGbl.cc">
<polygon fill="none" stroke="#000000" points="505,-6.5 505,-38.5 618,-38.5 618,-6.5 505,-6.5"/>
<text text-anchor="start" x="513" y="-25.5" font-family="FreeSans" font-size="10.00" fill="#000000">GenFit/blob/master</text>
<text text-anchor="middle" x="561.5" y="-13.5" font-family="FreeSans" font-size="10.00" fill="#000000">/GBL/src/GFGbl.cc</text>
</a>
</g>
</g>
<!-- Node1&#45;&gt;Node5 -->
<g id="edge4" class="edge">
<title>Node1&#45;&gt;Node5</title>
<path fill="none" stroke="#191970" d="M1310.1932,-94.2923C1134.5531,-87.6293 755.6748,-70.7341 627.5,-45 619.5478,-43.4034 611.2372,-41.1013 603.3007,-38.5725"/>
<polygon fill="#191970" stroke="#191970" points="1310.3194,-97.7995 1320.4441,-94.6783 1310.5829,-90.8044 1310.3194,-97.7995"/>
</g>
<!-- Node6 -->
<g id="node6" class="node">
<title>Node6</title>
<g id="a_node6"><a xlink:href="../../db/d8a/GFRaveMagneticField_8cc.html" target="_top" xlink:title="GenFit/blob/master\l/GFRave/src/GFRaveMagnetic\lField.cc">
<polygon fill="none" stroke="#000000" points="636.5,-.5 636.5,-44.5 802.5,-44.5 802.5,-.5 636.5,-.5"/>
<text text-anchor="start" x="644.5" y="-31.5" font-family="FreeSans" font-size="10.00" fill="#000000">GenFit/blob/master</text>
<text text-anchor="start" x="644.5" y="-19.5" font-family="FreeSans" font-size="10.00" fill="#000000">/GFRave/src/GFRaveMagnetic</text>
<text text-anchor="middle" x="719.5" y="-7.5" font-family="FreeSans" font-size="10.00" fill="#000000">Field.cc</text>
</a>
</g>
</g>
<!-- Node1&#45;&gt;Node6 -->
<g id="edge5" class="edge">
<title>Node1&#45;&gt;Node6</title>
<path fill="none" stroke="#191970" d="M1310.0804,-93.6523C1193.6495,-87.7718 986.545,-74.0221 811.5,-45 808.5801,-44.5159 805.616,-43.9886 802.6284,-43.4267"/>
<polygon fill="#191970" stroke="#191970" points="1310.2099,-97.163 1320.3713,-94.1635 1310.5572,-90.1716 1310.2099,-97.163"/>
</g>
<!-- Node7 -->
<g id="node7" class="node">
<title>Node7</title>
<g id="a_node7"><a xlink:href="../../dc/ded/TestConstField_8cpp.html" target="_top" xlink:title="GenFit/blob/master\l/gtest/TestConstField.cpp">
<polygon fill="none" stroke="#000000" points="821,-6.5 821,-38.5 964,-38.5 964,-6.5 821,-6.5"/>
<text text-anchor="start" x="829" y="-25.5" font-family="FreeSans" font-size="10.00" fill="#000000">GenFit/blob/master</text>
<text text-anchor="middle" x="892.5" y="-13.5" font-family="FreeSans" font-size="10.00" fill="#000000">/gtest/TestConstField.cpp</text>
</a>
</g>
</g>
<!-- Node1&#45;&gt;Node7 -->
<g id="edge6" class="edge">
<title>Node1&#45;&gt;Node7</title>
<path fill="none" stroke="#191970" d="M1310.3533,-90.2825C1223.2753,-82.4556 1088.6195,-67.9167 973.5,-45 964.4821,-43.2048 954.9972,-40.9306 945.8212,-38.5217"/>
<polygon fill="#191970" stroke="#191970" points="1310.1982,-93.7824 1320.4686,-91.1807 1310.8174,-86.8098 1310.1982,-93.7824"/>
</g>
<!-- Node8 -->
<g id="node8" class="node">
<title>Node8</title>
<g id="a_node8"><a xlink:href="../../d3/d3b/TestRKTrackRep_8cpp.html" target="_top" xlink:title="GenFit/blob/master\l/gtest/TestRKTrackRep.cpp">
<polygon fill="none" stroke="#000000" points="982.5,-6.5 982.5,-38.5 1132.5,-38.5 1132.5,-6.5 982.5,-6.5"/>
<text text-anchor="start" x="990.5" y="-25.5" font-family="FreeSans" font-size="10.00" fill="#000000">GenFit/blob/master</text>
<text text-anchor="middle" x="1057.5" y="-13.5" font-family="FreeSans" font-size="10.00" fill="#000000">/gtest/TestRKTrackRep.cpp</text>
</a>
</g>
</g>
<!-- Node1&#45;&gt;Node8 -->
<g id="edge7" class="edge">
<title>Node1&#45;&gt;Node8</title>
<path fill="none" stroke="#191970" d="M1310.5779,-80.5847C1260.5261,-70.9108 1197.4002,-58.1169 1141.5,-45 1133.122,-43.0341 1124.3105,-40.8282 1115.6738,-38.5866"/>
<polygon fill="#191970" stroke="#191970" points="1309.9266,-84.0235 1320.4079,-82.477 1311.2499,-77.1497 1309.9266,-84.0235"/>
</g>
<!-- Node9 -->
<g id="node9" class="node">
<title>Node9</title>
<g id="a_node9"><a xlink:href="../../d0/d48/GenFit_2blob_2master_2test_2fitterTests_2main_8cc.html" target="_top" xlink:title="GenFit/blob/master\l/test/fitterTests/main.cc">
<polygon fill="none" stroke="#000000" points="1151,-6.5 1151,-38.5 1286,-38.5 1286,-6.5 1151,-6.5"/>
<text text-anchor="start" x="1159" y="-25.5" font-family="FreeSans" font-size="10.00" fill="#000000">GenFit/blob/master</text>
<text text-anchor="middle" x="1218.5" y="-13.5" font-family="FreeSans" font-size="10.00" fill="#000000">/test/fitterTests/main.cc</text>
</a>
</g>
</g>
<!-- Node1&#45;&gt;Node9 -->
<g id="edge8" class="edge">
<title>Node1&#45;&gt;Node9</title>
<path fill="none" stroke="#191970" d="M1352.8768,-77.5725C1323.1175,-65.376 1285.5393,-49.9751 1257.6932,-38.5628"/>
<polygon fill="#191970" stroke="#191970" points="1351.6615,-80.8569 1362.2419,-81.4106 1354.3162,-74.3798 1351.6615,-80.8569"/>
</g>
<!-- Node10 -->
<g id="node10" class="node">
<title>Node10</title>
<g id="a_node10"><a xlink:href="../../dd/d84/GenFit_2blob_2master_2test_2measurementFactoryExample_2main_8cc.html" target="_top" xlink:title="GenFit/blob/master\l/test/measurementFactoryExample\l/main.cc">
<polygon fill="none" stroke="#000000" points="1304.5,-.5 1304.5,-44.5 1498.5,-44.5 1498.5,-.5 1304.5,-.5"/>
<text text-anchor="start" x="1312.5" y="-31.5" font-family="FreeSans" font-size="10.00" fill="#000000">GenFit/blob/master</text>
<text text-anchor="start" x="1312.5" y="-19.5" font-family="FreeSans" font-size="10.00" fill="#000000">/test/measurementFactoryExample</text>
<text text-anchor="middle" x="1401.5" y="-7.5" font-family="FreeSans" font-size="10.00" fill="#000000">/main.cc</text>
</a>
</g>
</g>
<!-- Node1&#45;&gt;Node10 -->
<g id="edge9" class="edge">
<title>Node1&#45;&gt;Node10</title>
<path fill="none" stroke="#191970" d="M1401.5,-70.9565C1401.5,-62.3741 1401.5,-52.9524 1401.5,-44.7171"/>
<polygon fill="#191970" stroke="#191970" points="1398.0001,-71.2261 1401.5,-81.2261 1405.0001,-71.2262 1398.0001,-71.2261"/>
</g>
<!-- Node11 -->
<g id="node11" class="node">
<title>Node11</title>
<g id="a_node11"><a xlink:href="../../d4/d7c/GenFit_2blob_2master_2test_2minimalFittingExample_2main_8cc.html" target="_top" xlink:title="GenFit/blob/master\l/test/minimalFittingExample\l/main.cc">
<polygon fill="none" stroke="#000000" points="1516,-.5 1516,-44.5 1675,-44.5 1675,-.5 1516,-.5"/>
<text text-anchor="start" x="1524" y="-31.5" font-family="FreeSans" font-size="10.00" fill="#000000">GenFit/blob/master</text>
<text text-anchor="start" x="1524" y="-19.5" font-family="FreeSans" font-size="10.00" fill="#000000">/test/minimalFittingExample</text>
<text text-anchor="middle" x="1595.5" y="-7.5" font-family="FreeSans" font-size="10.00" fill="#000000">/main.cc</text>
</a>
</g>
</g>
<!-- Node1&#45;&gt;Node11 -->
<g id="edge10" class="edge">
<title>Node1&#45;&gt;Node11</title>
<path fill="none" stroke="#191970" d="M1452.5588,-77.7608C1478.9649,-67.5522 1511.2774,-55.0603 1538.4962,-44.5376"/>
<polygon fill="#191970" stroke="#191970" points="1451.183,-74.5401 1443.1179,-81.4106 1453.7072,-81.0692 1451.183,-74.5401"/>
</g>
<!-- Node12 -->
<g id="node12" class="node">
<title>Node12</title>
<g id="a_node12"><a xlink:href="../../dd/d17/main2_8cc.html" target="_top" xlink:title="GenFit/blob/master\l/test/minimalFittingExample\l/main2.cc">
<polygon fill="none" stroke="#000000" points="1693,-.5 1693,-44.5 1852,-44.5 1852,-.5 1693,-.5"/>
<text text-anchor="start" x="1701" y="-31.5" font-family="FreeSans" font-size="10.00" fill="#000000">GenFit/blob/master</text>
<text text-anchor="start" x="1701" y="-19.5" font-family="FreeSans" font-size="10.00" fill="#000000">/test/minimalFittingExample</text>
<text text-anchor="middle" x="1772.5" y="-7.5" font-family="FreeSans" font-size="10.00" fill="#000000">/main2.cc</text>
</a>
</g>
</g>
<!-- Node1&#45;&gt;Node12 -->
<g id="edge11" class="edge">
<title>Node1&#45;&gt;Node12</title>
<path fill="none" stroke="#191970" d="M1492.7864,-82.1627C1548.3865,-72.4252 1620.7578,-59.0449 1684.5,-45 1687.272,-44.3892 1690.0892,-43.7531 1692.9316,-43.0982"/>
<polygon fill="#191970" stroke="#191970" points="1491.8558,-78.7721 1482.6057,-83.9378 1493.0583,-85.668 1491.8558,-78.7721"/>
</g>
<!-- Node13 -->
<g id="node13" class="node">
<title>Node13</title>
<g id="a_node13"><a xlink:href="../../d5/dd2/GenFit_2blob_2master_2test_2streamerTest_2main_8cc.html" target="_top" xlink:title="GenFit/blob/master\l/test/streamerTest/main.cc">
<polygon fill="none" stroke="#000000" points="1870,-6.5 1870,-38.5 2021,-38.5 2021,-6.5 1870,-6.5"/>
<text text-anchor="start" x="1878" y="-25.5" font-family="FreeSans" font-size="10.00" fill="#000000">GenFit/blob/master</text>
<text text-anchor="middle" x="1945.5" y="-13.5" font-family="FreeSans" font-size="10.00" fill="#000000">/test/streamerTest/main.cc</text>
</a>
</g>
</g>
<!-- Node1&#45;&gt;Node13 -->
<g id="edge12" class="edge">
<title>Node1&#45;&gt;Node13</title>
<path fill="none" stroke="#191970" d="M1492.8983,-91.0795C1586.1548,-83.5918 1734.7689,-69.0676 1861.5,-45 1870.8444,-43.2254 1880.6768,-40.9616 1890.1911,-38.5568"/>
<polygon fill="#191970" stroke="#191970" points="1492.3401,-87.6127 1482.648,-91.8921 1492.8933,-94.5908 1492.3401,-87.6127"/>
</g>
<!-- Node14 -->
<g id="node14" class="node">
<title>Node14</title>
<g id="a_node14"><a xlink:href="../../d9/d33/GenFit_2blob_2master_2test_2unitTests_2main_8cc.html" target="_top" xlink:title="GenFit/blob/master\l/test/unitTests/main.cc">
<polygon fill="none" stroke="#000000" points="2039,-6.5 2039,-38.5 2170,-38.5 2170,-6.5 2039,-6.5"/>
<text text-anchor="start" x="2047" y="-25.5" font-family="FreeSans" font-size="10.00" fill="#000000">GenFit/blob/master</text>
<text text-anchor="middle" x="2104.5" y="-13.5" font-family="FreeSans" font-size="10.00" fill="#000000">/test/unitTests/main.cc</text>
</a>
</g>
</g>
<!-- Node1&#45;&gt;Node14 -->
<g id="edge13" class="edge">
<title>Node1&#45;&gt;Node14</title>
<path fill="none" stroke="#191970" d="M1492.7138,-92.2727C1641.5265,-83.3426 1930.0265,-64.242 2030.5,-45 2039.2043,-43.333 2048.339,-41.0301 2057.1036,-38.5298"/>
<polygon fill="#191970" stroke="#191970" points="1492.4546,-88.7818 1482.6812,-92.872 1492.8721,-95.7693 1492.4546,-88.7818"/>
</g>
<!-- Node15 -->
<g id="node15" class="node">
<title>Node15</title>
<g id="a_node15"><a xlink:href="../../de/dab/GenFit_2blob_2master_2test_2vertexingTest_2main_8cc.html" target="_top" xlink:title="GenFit/blob/master\l/test/vertexingTest\l/main.cc">
<polygon fill="none" stroke="#000000" points="2188,-.5 2188,-44.5 2301,-44.5 2301,-.5 2188,-.5"/>
<text text-anchor="start" x="2196" y="-31.5" font-family="FreeSans" font-size="10.00" fill="#000000">GenFit/blob/master</text>
<text text-anchor="start" x="2196" y="-19.5" font-family="FreeSans" font-size="10.00" fill="#000000">/test/vertexingTest</text>
<text text-anchor="middle" x="2244.5" y="-7.5" font-family="FreeSans" font-size="10.00" fill="#000000">/main.cc</text>
</a>
</g>
</g>
<!-- Node1&#45;&gt;Node15 -->
<g id="edge14" class="edge">
<title>Node1&#45;&gt;Node15</title>
<path fill="none" stroke="#191970" d="M1492.6915,-94.3867C1668.9945,-87.8661 2050.5768,-71.1758 2179.5,-45 2182.1917,-44.4535 2184.9243,-43.8236 2187.6689,-43.1296"/>
<polygon fill="#191970" stroke="#191970" points="1492.5243,-90.8903 1482.6594,-94.7549 1492.7811,-97.8856 1492.5243,-90.8903"/>
</g>
<!-- Node16 -->
<g id="node16" class="node">
<title>Node16</title>
<g id="a_node16"><a xlink:href="../../d2/da6/MplTrackRep_8cc.html" target="_top" xlink:title="GenFit/blob/master\l/trackReps/src/MplTrackRep.cc">
<polygon fill="none" stroke="#000000" points="2319,-6.5 2319,-38.5 2488,-38.5 2488,-6.5 2319,-6.5"/>
<text text-anchor="start" x="2327" y="-25.5" font-family="FreeSans" font-size="10.00" fill="#000000">GenFit/blob/master</text>
<text text-anchor="middle" x="2403.5" y="-13.5" font-family="FreeSans" font-size="10.00" fill="#000000">/trackReps/src/MplTrackRep.cc</text>
</a>
</g>
</g>
<!-- Node1&#45;&gt;Node16 -->
<g id="edge15" class="edge">
<title>Node1&#45;&gt;Node16</title>
<path fill="none" stroke="#191970" d="M1492.6358,-94.3207C1690.6176,-87.0739 2154.7007,-68.1538 2310.5,-45 2321.5089,-43.3639 2333.1255,-41.0431 2344.2777,-38.5079"/>
<polygon fill="#191970" stroke="#191970" points="1492.4192,-90.8262 1482.5533,-94.6881 1492.6741,-97.8215 1492.4192,-90.8262"/>
</g>
<!-- Node17 -->
<g id="node17" class="node">
<title>Node17</title>
<g id="a_node17"><a xlink:href="../../d5/dc9/RKTrackRep_8cc.html" target="_top" xlink:title="GenFit/blob/master\l/trackReps/src/RKTrackRep.cc">
<polygon fill="none" stroke="#000000" points="2506.5,-6.5 2506.5,-38.5 2670.5,-38.5 2670.5,-6.5 2506.5,-6.5"/>
<text text-anchor="start" x="2514.5" y="-25.5" font-family="FreeSans" font-size="10.00" fill="#000000">GenFit/blob/master</text>
<text text-anchor="middle" x="2588.5" y="-13.5" font-family="FreeSans" font-size="10.00" fill="#000000">/trackReps/src/RKTrackRep.cc</text>
</a>
</g>
</g>
<!-- Node1&#45;&gt;Node17 -->
<g id="edge16" class="edge">
<title>Node1&#45;&gt;Node17</title>
<path fill="none" stroke="#191970" d="M1492.9688,-95.4094C1719.966,-89.8525 2304.6663,-73.1837 2497.5,-45 2508.2892,-43.4231 2519.6641,-41.1304 2530.5792,-38.6047"/>
<polygon fill="#191970" stroke="#191970" points="1492.6705,-91.9156 1482.7586,-95.6578 1492.8408,-98.9135 1492.6705,-91.9156"/>
</g>
<!-- Node18 -->
<g id="node18" class="node">
<title>Node18</title>
<g id="a_node18"><a xlink:href="../../d4/dad/HelixTrackModel_8cc.html" target="_top" xlink:title="GenFit/blob/master\l/utilities/src/HelixTrackModel.cc">
<polygon fill="none" stroke="#000000" points="2688.5,-6.5 2688.5,-38.5 2864.5,-38.5 2864.5,-6.5 2688.5,-6.5"/>
<text text-anchor="start" x="2696.5" y="-25.5" font-family="FreeSans" font-size="10.00" fill="#000000">GenFit/blob/master</text>
<text text-anchor="middle" x="2776.5" y="-13.5" font-family="FreeSans" font-size="10.00" fill="#000000">/utilities/src/HelixTrackModel.cc</text>
</a>
</g>
</g>
<!-- Node1&#45;&gt;Node18 -->
<g id="edge17" class="edge">
<title>Node1&#45;&gt;Node18</title>
<path fill="none" stroke="#191970" d="M1493.0795,-95.9616C1745.8954,-91.3601 2449.9715,-76.0573 2679.5,-45 2691.1493,-43.4237 2703.4539,-41.0974 2715.2437,-38.5305"/>
<polygon fill="#191970" stroke="#191970" points="1492.764,-92.4666 1482.8289,-96.1468 1492.8905,-99.4655 1492.764,-92.4666"/>
</g>
</g>
</svg>
