<?xml version="1.0" encoding="UTF-8" standalone="no"?>
<!DOCTYPE svg PUBLIC "-//W3C//DTD SVG 1.1//EN"
 "http://www.w3.org/Graphics/SVG/1.1/DTD/svg11.dtd">
<!-- Generated by graphviz version 2.40.1 (20161225.0304)
 -->
<!-- Title: Jetscape::PartonShower::SaveAsGV Pages: 1 -->
<svg width="297pt" height="185pt"
 viewBox="0.00 0.00 297.00 185.00" xmlns="http://www.w3.org/2000/svg" xmlns:xlink="http://www.w3.org/1999/xlink">
<g id="graph0" class="graph" transform="scale(1 1) rotate(0) translate(4 181)">
<title>Jetscape::PartonShower::SaveAsGV</title>
<!-- Node1 -->
<g id="node1" class="node">
<title>Node1</title>
<polygon fill="#bfbfbf" stroke="#000000" points="0,-72.5 0,-104.5 137,-104.5 137,-72.5 0,-72.5"/>
<text text-anchor="start" x="8" y="-91.5" font-family="FreeSans" font-size="10.00" fill="#000000">Jetscape::PartonShower</text>
<text text-anchor="middle" x="68.5" y="-79.5" font-family="FreeSans" font-size="10.00" fill="#000000">::SaveAsGV</text>
</g>
<!-- Node2 -->
<g id="node2" class="node">
<title>Node2</title>
<g id="a_node2"><a xlink:href="../../dd/d9b/classgraph.html#afc1c151fac6fe8647f150dc3870b4916" target="_top" xlink:title="graph::edges_begin">
<polygon fill="none" stroke="#000000" points="173,-156.5 173,-176.5 289,-176.5 289,-156.5 173,-156.5"/>
<text text-anchor="middle" x="231" y="-163.5" font-family="FreeSans" font-size="10.00" fill="#000000">graph::edges_begin</text>
</a>
</g>
</g>
<!-- Node1&#45;&gt;Node2 -->
<g id="edge1" class="edge">
<title>Node1&#45;&gt;Node2</title>
<path fill="none" stroke="#191970" d="M93.5392,-104.5001C114.2676,-117.2843 144.7861,-135.06 173,-147.5 177.4326,-149.4544 182.1318,-151.3167 186.8611,-153.0575"/>
<polygon fill="#191970" stroke="#191970" points="185.94,-156.4435 196.5348,-156.4506 188.2569,-149.838 185.94,-156.4435"/>
</g>
<!-- Node3 -->
<g id="node3" class="node">
<title>Node3</title>
<g id="a_node3"><a xlink:href="../../dd/d9b/classgraph.html#abd622db610523b82a093a7db887bfe76" target="_top" xlink:title="graph::edges_end">
<polygon fill="none" stroke="#000000" points="177.5,-117.5 177.5,-137.5 284.5,-137.5 284.5,-117.5 177.5,-117.5"/>
<text text-anchor="middle" x="231" y="-124.5" font-family="FreeSans" font-size="10.00" fill="#000000">graph::edges_end</text>
</a>
</g>
</g>
<!-- Node1&#45;&gt;Node3 -->
<g id="edge2" class="edge">
<title>Node1&#45;&gt;Node3</title>
<path fill="none" stroke="#191970" d="M135.5332,-104.588C150.1662,-108.0999 165.4342,-111.7642 179.3583,-115.106"/>
<polygon fill="#191970" stroke="#191970" points="178.6907,-118.5451 189.2314,-117.4755 180.3243,-111.7384 178.6907,-118.5451"/>
</g>
<!-- Node4 -->
<g id="node4" class="node">
<title>Node4</title>
<g id="a_node4"><a xlink:href="../../dd/d9b/classgraph.html#a67c41218463bb4348e92017f2148e863" target="_top" xlink:title="graph::nodes_begin">
<polygon fill="none" stroke="#000000" points="173,-78.5 173,-98.5 289,-98.5 289,-78.5 173,-78.5"/>
<text text-anchor="middle" x="231" y="-85.5" font-family="FreeSans" font-size="10.00" fill="#000000">graph::nodes_begin</text>
</a>
</g>
</g>
<!-- Node1&#45;&gt;Node4 -->
<g id="edge3" class="edge">
<title>Node1&#45;&gt;Node4</title>
<path fill="none" stroke="#191970" d="M137.4146,-88.5C145.7784,-88.5 154.3206,-88.5 162.6757,-88.5"/>
<polygon fill="#191970" stroke="#191970" points="162.7498,-92.0001 172.7498,-88.5 162.7497,-85.0001 162.7498,-92.0001"/>
</g>
<!-- Node5 -->
<g id="node5" class="node">
<title>Node5</title>
<g id="a_node5"><a xlink:href="../../dd/d9b/classgraph.html#a1e54ca72d4dfd4598bb18d3a877ad5c5" target="_top" xlink:title="graph::nodes_end">
<polygon fill="none" stroke="#000000" points="177.5,-39.5 177.5,-59.5 284.5,-59.5 284.5,-39.5 177.5,-39.5"/>
<text text-anchor="middle" x="231" y="-46.5" font-family="FreeSans" font-size="10.00" fill="#000000">graph::nodes_end</text>
</a>
</g>
</g>
<!-- Node1&#45;&gt;Node5 -->
<g id="edge4" class="edge">
<title>Node1&#45;&gt;Node5</title>
<path fill="none" stroke="#191970" d="M135.5332,-72.412C150.1662,-68.9001 165.4342,-65.2358 179.3583,-61.894"/>
<polygon fill="#191970" stroke="#191970" points="180.3243,-65.2616 189.2314,-59.5245 178.6907,-58.4549 180.3243,-65.2616"/>
</g>
<!-- Node6 -->
<g id="node6" class="node">
<title>Node6</title>
<g id="a_node6"><a xlink:href="../../d9/d52/HoughTransformSeeder_8cpp.html#a1f2cfb6e3644c66f2bfe3c54f699a72a" target="_top" xlink:title="to_string">
<polygon fill="none" stroke="#000000" points="201,-.5 201,-20.5 261,-20.5 261,-.5 201,-.5"/>
<text text-anchor="middle" x="231" y="-7.5" font-family="FreeSans" font-size="10.00" fill="#000000">to_string</text>
</a>
</g>
</g>
<!-- Node1&#45;&gt;Node6 -->
<g id="edge5" class="edge">
<title>Node1&#45;&gt;Node6</title>
<path fill="none" stroke="#191970" d="M94.4755,-72.4094C115.2327,-59.9657 145.331,-42.8355 173,-30.5 178.8096,-27.9099 185.065,-25.4399 191.242,-23.1749"/>
<polygon fill="#191970" stroke="#191970" points="192.545,-26.4266 200.8088,-19.7965 190.214,-19.8261 192.545,-26.4266"/>
</g>
</g>
</svg>
