<?xml version="1.0" encoding="UTF-8" standalone="no"?>
<!DOCTYPE svg PUBLIC "-//W3C//DTD SVG 1.1//EN"
 "http://www.w3.org/Graphics/SVG/1.1/DTD/svg11.dtd">
<!-- Generated by graphviz version 2.40.1 (20161225.0304)
 -->
<!-- Title: JetUnderlyingEvent::process_event Pages: 1 -->
<svg width="454pt" height="716pt"
 viewBox="0.00 0.00 454.00 716.00" xmlns="http://www.w3.org/2000/svg" xmlns:xlink="http://www.w3.org/1999/xlink">
<g id="graph0" class="graph" transform="scale(1 1) rotate(0) translate(4 712)">
<title>JetUnderlyingEvent::process_event</title>
<!-- Node1 -->
<g id="node1" class="node">
<title>Node1</title>
<polygon fill="#bfbfbf" stroke="#000000" points="0,-337.5 0,-369.5 115,-369.5 115,-337.5 0,-337.5"/>
<text text-anchor="start" x="8" y="-356.5" font-family="FreeSans" font-size="10.00" fill="#000000">JetUnderlyingEvent</text>
<text text-anchor="middle" x="57.5" y="-344.5" font-family="FreeSans" font-size="10.00" fill="#000000">::process_event</text>
</g>
<!-- Node2 -->
<g id="node2" class="node">
<title>Node2</title>
<g id="a_node2"><a xlink:href="../../d7/d97/classJetMap.html#a822b861e7cc9ae458a7e5edf7dcdf970" target="_top" xlink:title="JetMap::begin">
<polygon fill="none" stroke="#000000" points="185.5,-687.5 185.5,-707.5 271.5,-707.5 271.5,-687.5 185.5,-687.5"/>
<text text-anchor="middle" x="228.5" y="-694.5" font-family="FreeSans" font-size="10.00" fill="#000000">JetMap::begin</text>
</a>
</g>
</g>
<!-- Node1&#45;&gt;Node2 -->
<g id="edge1" class="edge">
<title>Node1&#45;&gt;Node2</title>
<path fill="none" stroke="#191970" d="M59.954,-369.517C69.3372,-428.7196 104.7525,-634.0534 151,-678.5 157.7484,-684.9856 166.3327,-689.3712 175.3139,-692.3137"/>
<polygon fill="#191970" stroke="#191970" points="174.5804,-695.7409 185.1472,-694.9711 176.4067,-688.9833 174.5804,-695.7409"/>
</g>
<!-- Node3 -->
<g id="node3" class="node">
<title>Node3</title>
<g id="a_node3"><a xlink:href="../../d7/da6/classJet.html#ad44bc445fd9d23058e94c2b387f379d9" target="_top" xlink:title="Jet::begin_comp">
<polygon fill="none" stroke="#000000" points="179,-648.5 179,-668.5 278,-668.5 278,-648.5 179,-648.5"/>
<text text-anchor="middle" x="228.5" y="-655.5" font-family="FreeSans" font-size="10.00" fill="#000000">Jet::begin_comp</text>
</a>
</g>
</g>
<!-- Node1&#45;&gt;Node3 -->
<g id="edge2" class="edge">
<title>Node1&#45;&gt;Node3</title>
<path fill="none" stroke="#191970" d="M60.6808,-369.8359C71.6839,-424.7254 109.7241,-601.2304 151,-639.5 156.1873,-644.3095 162.3886,-647.9563 168.9931,-650.7128"/>
<polygon fill="#191970" stroke="#191970" points="168.2918,-654.1742 178.8866,-654.1463 170.5869,-647.5611 168.2918,-654.1742"/>
</g>
<!-- Node4 -->
<g id="node4" class="node">
<title>Node4</title>
<g id="a_node4"><a xlink:href="../../d1/d77/namespacemvtx__utils.html#a5a9cb9172b6d47ab2637560fe0d2f61f" target="_top" xlink:title="mvtx_utils::comp">
<polygon fill="none" stroke="#000000" points="177,-609.5 177,-629.5 280,-629.5 280,-609.5 177,-609.5"/>
<text text-anchor="middle" x="228.5" y="-616.5" font-family="FreeSans" font-size="10.00" fill="#000000">mvtx_utils::comp</text>
</a>
</g>
</g>
<!-- Node1&#45;&gt;Node4 -->
<g id="edge3" class="edge">
<title>Node1&#45;&gt;Node4</title>
<path fill="none" stroke="#191970" d="M58.5976,-369.6266C62.4981,-413.7337 79.594,-537.2795 151,-600.5 155.7647,-604.7185 161.315,-608.0349 167.2154,-610.637"/>
<polygon fill="#191970" stroke="#191970" points="166.1201,-613.9638 176.7131,-614.1652 168.5578,-607.4019 166.1201,-613.9638"/>
</g>
<!-- Node5 -->
<g id="node5" class="node">
<title>Node5</title>
<g id="a_node5"><a xlink:href="../../d7/d97/classJetMap.html#a84dec46acee0e4d46509494cc387e25b" target="_top" xlink:title="JetMap::end">
<polygon fill="none" stroke="#000000" points="190,-570.5 190,-590.5 267,-590.5 267,-570.5 190,-570.5"/>
<text text-anchor="middle" x="228.5" y="-577.5" font-family="FreeSans" font-size="10.00" fill="#000000">JetMap::end</text>
</a>
</g>
</g>
<!-- Node1&#45;&gt;Node5 -->
<g id="edge4" class="edge">
<title>Node1&#45;&gt;Node5</title>
<path fill="none" stroke="#191970" d="M59.8724,-369.6506C66.5231,-408.9182 89.0865,-509.9429 151,-561.5 159.2287,-568.3523 169.5538,-572.7988 179.9591,-575.6676"/>
<polygon fill="#191970" stroke="#191970" points="179.363,-579.122 189.8941,-577.9617 180.938,-572.3015 179.363,-579.122"/>
</g>
<!-- Node6 -->
<g id="node6" class="node">
<title>Node6</title>
<g id="a_node6"><a xlink:href="../../d7/da6/classJet.html#a26e76830943456ecf931f638b80c182d" target="_top" xlink:title="Jet::end_comp">
<polygon fill="none" stroke="#000000" points="184,-531.5 184,-551.5 273,-551.5 273,-531.5 184,-531.5"/>
<text text-anchor="middle" x="228.5" y="-538.5" font-family="FreeSans" font-size="10.00" fill="#000000">Jet::end_comp</text>
</a>
</g>
</g>
<!-- Node1&#45;&gt;Node6 -->
<g id="edge5" class="edge">
<title>Node1&#45;&gt;Node6</title>
<path fill="none" stroke="#191970" d="M61.6755,-369.6391C71.3091,-403.5255 98.3978,-482.2671 151,-522.5 157.8017,-527.7023 165.837,-531.5 174.1138,-534.2682"/>
<polygon fill="#191970" stroke="#191970" points="173.3041,-537.677 183.8814,-537.0674 175.2326,-530.9479 173.3041,-537.677"/>
</g>
<!-- Node7 -->
<g id="node7" class="node">
<title>Node7</title>
<g id="a_node7"><a xlink:href="../../d9/dd8/classRawTower.html#a684d193cfa6e173242edecbf7b69d64a" target="_top" xlink:title="RawTower::get_bineta">
<polygon fill="none" stroke="#000000" points="165.5,-492.5 165.5,-512.5 291.5,-512.5 291.5,-492.5 165.5,-492.5"/>
<text text-anchor="middle" x="228.5" y="-499.5" font-family="FreeSans" font-size="10.00" fill="#000000">RawTower::get_bineta</text>
</a>
</g>
</g>
<!-- Node1&#45;&gt;Node7 -->
<g id="edge6" class="edge">
<title>Node1&#45;&gt;Node7</title>
<path fill="none" stroke="#191970" d="M64.4124,-369.5111C77.2426,-397.2528 107.4525,-454.0991 151,-483.5 153.6138,-485.2647 156.3757,-486.8658 159.2385,-488.3185"/>
<polygon fill="#191970" stroke="#191970" points="158.1054,-491.6438 168.6678,-492.4711 160.9267,-485.2375 158.1054,-491.6438"/>
</g>
<!-- Node8 -->
<g id="node8" class="node">
<title>Node8</title>
<g id="a_node8"><a xlink:href="../../d5/df3/classCentralityInfo.html#a3863327a61eb4e2164d4b6ca24e7a9f0" target="_top" xlink:title="CentralityInfo::get\l_centile">
<polygon fill="none" stroke="#000000" points="174,-441.5 174,-473.5 283,-473.5 283,-441.5 174,-441.5"/>
<text text-anchor="start" x="182" y="-460.5" font-family="FreeSans" font-size="10.00" fill="#000000">CentralityInfo::get</text>
<text text-anchor="middle" x="228.5" y="-448.5" font-family="FreeSans" font-size="10.00" fill="#000000">_centile</text>
</a>
</g>
</g>
<!-- Node1&#45;&gt;Node8 -->
<g id="edge7" class="edge">
<title>Node1&#45;&gt;Node8</title>
<path fill="none" stroke="#191970" d="M72.6071,-369.5781C89.9997,-387.2436 120.1573,-415.3776 151,-432.5 155.2567,-434.8631 159.7706,-437.0428 164.3954,-439.0458"/>
<polygon fill="#191970" stroke="#191970" points="163.414,-442.4236 173.9976,-442.9108 166.0279,-435.9299 163.414,-442.4236"/>
</g>
<!-- Node9 -->
<g id="node9" class="node">
<title>Node9</title>
<g id="a_node9"><a xlink:href="../../d9/dd8/classRawTower.html#ab23195d58fefabd9162115afa96707cc" target="_top" xlink:title="energy assigned to the tower. Depending on stage of process and DST node name, it could be energy dep...">
<polygon fill="none" stroke="#000000" points="163.5,-402.5 163.5,-422.5 293.5,-422.5 293.5,-402.5 163.5,-402.5"/>
<text text-anchor="middle" x="228.5" y="-409.5" font-family="FreeSans" font-size="10.00" fill="#000000">RawTower::get_energy</text>
</a>
</g>
</g>
<!-- Node1&#45;&gt;Node9 -->
<g id="edge8" class="edge">
<title>Node1&#45;&gt;Node9</title>
<path fill="none" stroke="#191970" d="M91.6125,-369.69C109.1039,-377.5799 130.9043,-386.7884 151,-393.5 157.8656,-395.793 165.157,-397.9414 172.4146,-399.9089"/>
<polygon fill="#191970" stroke="#191970" points="171.6871,-403.3362 182.247,-402.4761 173.4555,-396.5632 171.6871,-403.3362"/>
</g>
<!-- Node10 -->
<g id="node10" class="node">
<title>Node10</title>
<g id="a_node10"><a xlink:href="../../d9/dd8/classRawTower.html#ae6569757f62f3bee755ebf8872f15008" target="_top" xlink:title="RawTower::get_key">
<polygon fill="none" stroke="#000000" points="172.5,-363.5 172.5,-383.5 284.5,-383.5 284.5,-363.5 172.5,-363.5"/>
<text text-anchor="middle" x="228.5" y="-370.5" font-family="FreeSans" font-size="10.00" fill="#000000">RawTower::get_key</text>
</a>
</g>
</g>
<!-- Node1&#45;&gt;Node10 -->
<g id="edge9" class="edge">
<title>Node1&#45;&gt;Node10</title>
<path fill="none" stroke="#191970" d="M115.3928,-360.2711C130.4942,-362.0373 146.8829,-363.9541 162.3756,-365.7662"/>
<polygon fill="#191970" stroke="#191970" points="162.0657,-369.2537 172.4046,-366.9391 162.8789,-362.3011 162.0657,-369.2537"/>
</g>
<!-- Node12 -->
<g id="node12" class="node">
<title>Node12</title>
<g id="a_node12"><a xlink:href="../../d5/d0f/classTowerBackground.html#af477fe6161193df2e813cc67e4ddb2ac" target="_top" xlink:title="TowerBackground::get_Psi2">
<polygon fill="none" stroke="#000000" points="151,-324.5 151,-344.5 306,-344.5 306,-324.5 151,-324.5"/>
<text text-anchor="middle" x="228.5" y="-331.5" font-family="FreeSans" font-size="10.00" fill="#000000">TowerBackground::get_Psi2</text>
</a>
</g>
</g>
<!-- Node1&#45;&gt;Node12 -->
<g id="edge11" class="edge">
<title>Node1&#45;&gt;Node12</title>
<path fill="none" stroke="#191970" d="M115.3928,-347.0675C123.6104,-346.1544 132.2092,-345.199 140.8373,-344.2403"/>
<polygon fill="#191970" stroke="#191970" points="141.4061,-347.6987 150.9584,-343.1157 140.633,-340.7415 141.4061,-347.6987"/>
</g>
<!-- Node13 -->
<g id="node13" class="node">
<title>Node13</title>
<g id="a_node13"><a xlink:href="../../d7/da6/classJet.html#ab0298c30da3364739d73c36a28e76dfb" target="_top" xlink:title="Jet::get_pt">
<polygon fill="none" stroke="#000000" points="194,-285.5 194,-305.5 263,-305.5 263,-285.5 194,-285.5"/>
<text text-anchor="middle" x="228.5" y="-292.5" font-family="FreeSans" font-size="10.00" fill="#000000">Jet::get_pt</text>
</a>
</g>
</g>
<!-- Node1&#45;&gt;Node13 -->
<g id="edge12" class="edge">
<title>Node1&#45;&gt;Node13</title>
<path fill="none" stroke="#191970" d="M93.936,-337.3717C111.0569,-330.1357 131.8681,-321.825 151,-315.5 161.6062,-311.9936 173.1936,-308.7171 184.1001,-305.872"/>
<polygon fill="#191970" stroke="#191970" points="185.048,-309.2424 193.8771,-303.3861 183.323,-302.4583 185.048,-309.2424"/>
</g>
<!-- Node14 -->
<g id="node14" class="node">
<title>Node14</title>
<g id="a_node14"><a xlink:href="../../d5/d0f/classTowerBackground.html#a0552ed75fb881494ff1319bff1ea2ec5" target="_top" xlink:title="TowerBackground::get_UE">
<polygon fill="none" stroke="#000000" points="154,-246.5 154,-266.5 303,-266.5 303,-246.5 154,-246.5"/>
<text text-anchor="middle" x="228.5" y="-253.5" font-family="FreeSans" font-size="10.00" fill="#000000">TowerBackground::get_UE</text>
</a>
</g>
</g>
<!-- Node1&#45;&gt;Node14 -->
<g id="edge13" class="edge">
<title>Node1&#45;&gt;Node14</title>
<path fill="none" stroke="#191970" d="M72.8218,-337.1938C90.1736,-319.6752 120.0767,-292.2368 151,-276.5 155.9537,-273.9791 161.2515,-271.7577 166.6648,-269.8037"/>
<polygon fill="#191970" stroke="#191970" points="168.0818,-273.022 176.4844,-266.5685 165.8914,-266.3735 168.0818,-273.022"/>
</g>
<!-- Node15 -->
<g id="node15" class="node">
<title>Node15</title>
<g id="a_node15"><a xlink:href="../../d5/d0f/classTowerBackground.html#a7ebb58a22579f5c0c1f8f6f399bbbb0c" target="_top" xlink:title="TowerBackground::get_v2">
<polygon fill="none" stroke="#000000" points="155,-207.5 155,-227.5 302,-227.5 302,-207.5 155,-207.5"/>
<text text-anchor="middle" x="228.5" y="-214.5" font-family="FreeSans" font-size="10.00" fill="#000000">TowerBackground::get_v2</text>
</a>
</g>
</g>
<!-- Node1&#45;&gt;Node15 -->
<g id="edge14" class="edge">
<title>Node1&#45;&gt;Node15</title>
<path fill="none" stroke="#191970" d="M66.0341,-337.2523C80.1943,-311.9283 110.9939,-263.2823 151,-237.5 154.5479,-235.2135 158.3449,-233.1881 162.282,-231.3939"/>
<polygon fill="#191970" stroke="#191970" points="163.7025,-234.5951 171.6714,-227.6133 161.0878,-228.1017 163.7025,-234.5951"/>
</g>
<!-- Node16 -->
<g id="node16" class="node">
<title>Node16</title>
<g id="a_node16"><a xlink:href="../../d3/dc7/classRawTowerContainer.html#a94a3368d6cd85ea4c3f204cd1065da26" target="_top" xlink:title="RawTowerContainer::\lgetTower">
<polygon fill="none" stroke="#000000" points="167.5,-156.5 167.5,-188.5 289.5,-188.5 289.5,-156.5 167.5,-156.5"/>
<text text-anchor="start" x="175.5" y="-175.5" font-family="FreeSans" font-size="10.00" fill="#000000">RawTowerContainer::</text>
<text text-anchor="middle" x="228.5" y="-163.5" font-family="FreeSans" font-size="10.00" fill="#000000">getTower</text>
</a>
</g>
</g>
<!-- Node1&#45;&gt;Node16 -->
<g id="edge15" class="edge">
<title>Node1&#45;&gt;Node16</title>
<path fill="none" stroke="#191970" d="M62.9264,-337.3403C74.2653,-305.9868 103.4344,-236.6388 151,-198.5 153.4134,-196.5649 155.9776,-194.7709 158.6496,-193.1079"/>
<polygon fill="#191970" stroke="#191970" points="160.429,-196.1236 167.4965,-188.2304 157.0493,-189.9934 160.429,-196.1236"/>
</g>
<!-- Node17 -->
<g id="node17" class="node">
<title>Node17</title>
<g id="a_node17"><a xlink:href="../../d7/da6/classJet.html#ad22d12f9833f942c09c3b54fc49bc30f" target="_top" xlink:title="Jet::set_e">
<polygon fill="none" stroke="#000000" points="197,-117.5 197,-137.5 260,-137.5 260,-117.5 197,-117.5"/>
<text text-anchor="middle" x="228.5" y="-124.5" font-family="FreeSans" font-size="10.00" fill="#000000">Jet::set_e</text>
</a>
</g>
</g>
<!-- Node1&#45;&gt;Node17 -->
<g id="edge16" class="edge">
<title>Node1&#45;&gt;Node17</title>
<path fill="none" stroke="#191970" d="M60.0132,-337.2611C66.9287,-298.2656 89.9499,-198.7796 151,-147.5 161.0749,-139.0375 174.2994,-134.0989 186.9653,-131.2353"/>
<polygon fill="#191970" stroke="#191970" points="187.7543,-134.6483 196.9325,-129.3558 186.4571,-127.7695 187.7543,-134.6483"/>
</g>
<!-- Node18 -->
<g id="node18" class="node">
<title>Node18</title>
<g id="a_node18"><a xlink:href="../../d7/da6/classJet.html#a5a81331a95540150a0fe27baf6f2e472" target="_top" xlink:title="Jet::set_px">
<polygon fill="none" stroke="#000000" points="193.5,-78.5 193.5,-98.5 263.5,-98.5 263.5,-78.5 193.5,-78.5"/>
<text text-anchor="middle" x="228.5" y="-85.5" font-family="FreeSans" font-size="10.00" fill="#000000">Jet::set_px</text>
</a>
</g>
</g>
<!-- Node1&#45;&gt;Node18 -->
<g id="edge17" class="edge">
<title>Node1&#45;&gt;Node18</title>
<path fill="none" stroke="#191970" d="M58.7121,-337.2298C62.8839,-293.3157 80.5661,-171.4551 151,-108.5 159.8945,-100.5499 171.5394,-95.6828 183.0895,-92.7249"/>
<polygon fill="#191970" stroke="#191970" points="184.0902,-96.0905 193.1438,-90.5876 182.6346,-89.2435 184.0902,-96.0905"/>
</g>
<!-- Node19 -->
<g id="node19" class="node">
<title>Node19</title>
<g id="a_node19"><a xlink:href="../../d7/da6/classJet.html#a005df57452680f06aee13a45aa96b003" target="_top" xlink:title="Jet::set_py">
<polygon fill="none" stroke="#000000" points="193.5,-39.5 193.5,-59.5 263.5,-59.5 263.5,-39.5 193.5,-39.5"/>
<text text-anchor="middle" x="228.5" y="-46.5" font-family="FreeSans" font-size="10.00" fill="#000000">Jet::set_py</text>
</a>
</g>
</g>
<!-- Node1&#45;&gt;Node19 -->
<g id="edge18" class="edge">
<title>Node1&#45;&gt;Node19</title>
<path fill="none" stroke="#191970" d="M60.7148,-337.2957C71.827,-282.846 110.1765,-107.7337 151,-69.5 159.8744,-61.1886 171.7363,-56.2223 183.5066,-53.2854"/>
<polygon fill="#191970" stroke="#191970" points="184.2165,-56.7128 193.3046,-51.2669 182.804,-49.8567 184.2165,-56.7128"/>
</g>
<!-- Node20 -->
<g id="node20" class="node">
<title>Node20</title>
<g id="a_node20"><a xlink:href="../../d7/da6/classJet.html#ad06d2b285f254c101c9f85010cb58fde" target="_top" xlink:title="Jet::set_pz">
<polygon fill="none" stroke="#000000" points="194,-.5 194,-20.5 263,-20.5 263,-.5 194,-.5"/>
<text text-anchor="middle" x="228.5" y="-7.5" font-family="FreeSans" font-size="10.00" fill="#000000">Jet::set_pz</text>
</a>
</g>
</g>
<!-- Node1&#45;&gt;Node20 -->
<g id="edge19" class="edge">
<title>Node1&#45;&gt;Node20</title>
<path fill="none" stroke="#191970" d="M60.0515,-337.1926C69.646,-277.8876 105.3524,-74.833 151,-30.5 159.8779,-21.8777 171.9588,-16.8342 183.9394,-13.9228"/>
<polygon fill="#191970" stroke="#191970" points="184.7785,-17.3247 193.9071,-11.947 183.4174,-10.4583 184.7785,-17.3247"/>
</g>
<!-- Node11 -->
<g id="node11" class="node">
<title>Node11</title>
<g id="a_node11"><a xlink:href="../../d9/dd8/classRawTower.html#acb57721d39800bb8a23ffc10ae66d198" target="_top" xlink:title="RawTower::get_id">
<polygon fill="none" stroke="#000000" points="342,-363.5 342,-383.5 446,-383.5 446,-363.5 342,-363.5"/>
<text text-anchor="middle" x="394" y="-370.5" font-family="FreeSans" font-size="10.00" fill="#000000">RawTower::get_id</text>
</a>
</g>
</g>
<!-- Node10&#45;&gt;Node11 -->
<g id="edge10" class="edge">
<title>Node10&#45;&gt;Node11</title>
<path fill="none" stroke="#191970" d="M284.5308,-373.5C299.7619,-373.5 316.3459,-373.5 331.8917,-373.5"/>
<polygon fill="#191970" stroke="#191970" points="331.9329,-377.0001 341.9329,-373.5 331.9328,-370.0001 331.9329,-377.0001"/>
</g>
</g>
</svg>
