<?xml version="1.0" encoding="UTF-8" standalone="no"?>
<!DOCTYPE svg PUBLIC "-//W3C//DTD SVG 1.1//EN"
 "http://www.w3.org/Graphics/SVG/1.1/DTD/svg11.dtd">
<!-- Generated by graphviz version 2.40.1 (20161225.0304)
 -->
<!-- Title: analysis/blob/master/pi0ClusterAna/src/pi0ClusterAna.h Pages: 1 -->
<svg width="680pt" height="146pt"
 viewBox="0.00 0.00 679.50 146.00" xmlns="http://www.w3.org/2000/svg" xmlns:xlink="http://www.w3.org/1999/xlink">
<g id="graph0" class="graph" transform="scale(1 1) rotate(0) translate(4 142)">
<title>analysis/blob/master/pi0ClusterAna/src/pi0ClusterAna.h</title>
<!-- Node1 -->
<g id="node1" class="node">
<title>Node1</title>
<polygon fill="#bfbfbf" stroke="#000000" points="256.5,-93.5 256.5,-137.5 421.5,-137.5 421.5,-93.5 256.5,-93.5"/>
<text text-anchor="start" x="264.5" y="-124.5" font-family="FreeSans" font-size="10.00" fill="#000000">analysis/blob/master</text>
<text text-anchor="start" x="264.5" y="-112.5" font-family="FreeSans" font-size="10.00" fill="#000000">/pi0ClusterAna/src/pi0Cluster</text>
<text text-anchor="middle" x="339" y="-100.5" font-family="FreeSans" font-size="10.00" fill="#000000">Ana.h</text>
</g>
<!-- Node2 -->
<g id="node2" class="node">
<title>Node2</title>
<g id="a_node2"><a xlink:href="../../dc/dd5/pi0ClusterAna_2macros_2Fun4All__Pi0Gen__sPHENIX_8C.html" target="_top" xlink:title="analysis/blob/master\l/pi0ClusterAna/macros\l/Fun4All_Pi0Gen_sPHENIX.C">
<polygon fill="none" stroke="#000000" points="0,-6.5 0,-50.5 156,-50.5 156,-6.5 0,-6.5"/>
<text text-anchor="start" x="8" y="-37.5" font-family="FreeSans" font-size="10.00" fill="#000000">analysis/blob/master</text>
<text text-anchor="start" x="8" y="-25.5" font-family="FreeSans" font-size="10.00" fill="#000000">/pi0ClusterAna/macros</text>
<text text-anchor="middle" x="78" y="-13.5" font-family="FreeSans" font-size="10.00" fill="#000000">/Fun4All_Pi0Gen_sPHENIX.C</text>
</a>
</g>
</g>
<!-- Node1&#45;&gt;Node2 -->
<g id="edge1" class="edge">
<title>Node1&#45;&gt;Node2</title>
<path fill="none" stroke="#191970" d="M262.9019,-90.134C225.2757,-77.5919 180.3004,-62.6001 144.1282,-50.5427"/>
<polygon fill="#191970" stroke="#191970" points="262.2076,-93.5918 272.8013,-93.4338 264.4213,-86.951 262.2076,-93.5918"/>
</g>
<!-- Node3 -->
<g id="node3" class="node">
<title>Node3</title>
<g id="a_node3"><a xlink:href="../../da/ddb/Fun4All__RunPi0ClusterAna_8C.html" target="_top" xlink:title="analysis/blob/master\l/pi0ClusterAna/macros\l/Fun4All_RunPi0ClusterAna.C">
<polygon fill="none" stroke="#000000" points="174.5,-6.5 174.5,-50.5 337.5,-50.5 337.5,-6.5 174.5,-6.5"/>
<text text-anchor="start" x="182.5" y="-37.5" font-family="FreeSans" font-size="10.00" fill="#000000">analysis/blob/master</text>
<text text-anchor="start" x="182.5" y="-25.5" font-family="FreeSans" font-size="10.00" fill="#000000">/pi0ClusterAna/macros</text>
<text text-anchor="middle" x="256" y="-13.5" font-family="FreeSans" font-size="10.00" fill="#000000">/Fun4All_RunPi0ClusterAna.C</text>
</a>
</g>
</g>
<!-- Node1&#45;&gt;Node3 -->
<g id="edge2" class="edge">
<title>Node1&#45;&gt;Node3</title>
<path fill="none" stroke="#191970" d="M310.6203,-85.7526C299.6018,-74.2031 287.2079,-61.2119 277.0148,-50.5276"/>
<polygon fill="#191970" stroke="#191970" points="308.1902,-88.2759 317.6254,-93.0953 313.255,-83.4439 308.1902,-88.2759"/>
</g>
<!-- Node4 -->
<g id="node4" class="node">
<title>Node4</title>
<g id="a_node4"><a xlink:href="../../dd/d48/Fun4All__SinglePi0Gen__sPHENIX_8C.html" target="_top" xlink:title="analysis/blob/master\l/pi0ClusterAna/macros\l/Fun4All_SinglePi0Gen\l_sPHENIX.C">
<polygon fill="none" stroke="#000000" points="356,-.5 356,-56.5 488,-56.5 488,-.5 356,-.5"/>
<text text-anchor="start" x="364" y="-43.5" font-family="FreeSans" font-size="10.00" fill="#000000">analysis/blob/master</text>
<text text-anchor="start" x="364" y="-31.5" font-family="FreeSans" font-size="10.00" fill="#000000">/pi0ClusterAna/macros</text>
<text text-anchor="start" x="364" y="-19.5" font-family="FreeSans" font-size="10.00" fill="#000000">/Fun4All_SinglePi0Gen</text>
<text text-anchor="middle" x="422" y="-7.5" font-family="FreeSans" font-size="10.00" fill="#000000">_sPHENIX.C</text>
</a>
</g>
</g>
<!-- Node1&#45;&gt;Node4 -->
<g id="edge3" class="edge">
<title>Node1&#45;&gt;Node4</title>
<path fill="none" stroke="#191970" d="M367.3313,-85.8034C376.2961,-76.4065 386.1756,-66.0508 395.0415,-56.7577"/>
<polygon fill="#191970" stroke="#191970" points="364.745,-83.4439 360.3746,-93.0953 369.8098,-88.2759 364.745,-83.4439"/>
</g>
<!-- Node5 -->
<g id="node5" class="node">
<title>Node5</title>
<g id="a_node5"><a xlink:href="../../db/d30/pi0ClusterAna_8cc.html" target="_top" xlink:title="analysis/blob/master\l/pi0ClusterAna/src/pi0Cluster\lAna.cc">
<polygon fill="none" stroke="#000000" points="506.5,-6.5 506.5,-50.5 671.5,-50.5 671.5,-6.5 506.5,-6.5"/>
<text text-anchor="start" x="514.5" y="-37.5" font-family="FreeSans" font-size="10.00" fill="#000000">analysis/blob/master</text>
<text text-anchor="start" x="514.5" y="-25.5" font-family="FreeSans" font-size="10.00" fill="#000000">/pi0ClusterAna/src/pi0Cluster</text>
<text text-anchor="middle" x="589" y="-13.5" font-family="FreeSans" font-size="10.00" fill="#000000">Ana.cc</text>
</a>
</g>
</g>
<!-- Node1&#45;&gt;Node5 -->
<g id="edge4" class="edge">
<title>Node1&#45;&gt;Node5</title>
<path fill="none" stroke="#191970" d="M411.8909,-90.134C447.9313,-77.5919 491.0111,-62.6001 525.6588,-50.5427"/>
<polygon fill="#191970" stroke="#191970" points="410.7028,-86.8415 402.4087,-93.4338 413.0036,-93.4526 410.7028,-86.8415"/>
</g>
</g>
</svg>
