<?xml version="1.0" encoding="UTF-8" standalone="no"?>
<!DOCTYPE svg PUBLIC "-//W3C//DTD SVG 1.1//EN"
 "http://www.w3.org/Graphics/SVG/1.1/DTD/svg11.dtd">
<!-- Generated by graphviz version 2.40.1 (20161225.0304)
 -->
<!-- Title: KFParticle_truthAndDetTools::getTruthTrack Pages: 1 -->
<svg width="656pt" height="92pt"
 viewBox="0.00 0.00 656.00 92.00" xmlns="http://www.w3.org/2000/svg" xmlns:xlink="http://www.w3.org/1999/xlink">
<g id="graph0" class="graph" transform="scale(1 1) rotate(0) translate(4 88)">
<title>KFParticle_truthAndDetTools::getTruthTrack</title>
<!-- Node1 -->
<g id="node1" class="node">
<title>Node1</title>
<polygon fill="#bfbfbf" stroke="#000000" points="0,-25.5 0,-57.5 158,-57.5 158,-25.5 0,-25.5"/>
<text text-anchor="start" x="8" y="-44.5" font-family="FreeSans" font-size="10.00" fill="#000000">KFParticle_truthAndDetTools</text>
<text text-anchor="middle" x="79" y="-32.5" font-family="FreeSans" font-size="10.00" fill="#000000">::getTruthTrack</text>
</g>
<!-- Node2 -->
<g id="node2" class="node">
<title>Node2</title>
<g id="a_node2"><a xlink:href="../../dd/de6/classKFParticle__truthAndDetTools.html#a8fd937b408a964f4403e263697d59eb3" target="_top" xlink:title="KFParticle_truthAndDetTools\l::fillTruthBranch">
<polygon fill="none" stroke="#000000" points="194,-51.5 194,-83.5 352,-83.5 352,-51.5 194,-51.5"/>
<text text-anchor="start" x="202" y="-70.5" font-family="FreeSans" font-size="10.00" fill="#000000">KFParticle_truthAndDetTools</text>
<text text-anchor="middle" x="273" y="-58.5" font-family="FreeSans" font-size="10.00" fill="#000000">::fillTruthBranch</text>
</a>
</g>
</g>
<!-- Node1&#45;&gt;Node2 -->
<g id="edge1" class="edge">
<title>Node1&#45;&gt;Node2</title>
<path fill="none" stroke="#191970" d="M168.1574,-53.4489C176.6963,-54.5933 185.3167,-55.7486 193.7517,-56.8791"/>
<polygon fill="#191970" stroke="#191970" points="168.5634,-49.9721 158.187,-52.1127 167.6335,-56.9101 168.5634,-49.9721"/>
</g>
<!-- Node5 -->
<g id="node5" class="node">
<title>Node5</title>
<g id="a_node5"><a xlink:href="../../dd/de6/classKFParticle__truthAndDetTools.html#ad020ae1958b487d9ec890bf683d78d79" target="_top" xlink:title="KFParticle_truthAndDetTools\l::getHepMCInfo">
<polygon fill="none" stroke="#000000" points="194,-.5 194,-32.5 352,-32.5 352,-.5 194,-.5"/>
<text text-anchor="start" x="202" y="-19.5" font-family="FreeSans" font-size="10.00" fill="#000000">KFParticle_truthAndDetTools</text>
<text text-anchor="middle" x="273" y="-7.5" font-family="FreeSans" font-size="10.00" fill="#000000">::getHepMCInfo</text>
</a>
</g>
</g>
<!-- Node1&#45;&gt;Node5 -->
<g id="edge4" class="edge">
<title>Node1&#45;&gt;Node5</title>
<path fill="none" stroke="#191970" d="M168.1574,-30.0106C176.6963,-28.9103 185.3167,-27.7994 193.7517,-26.7124"/>
<polygon fill="#191970" stroke="#191970" points="167.6577,-26.546 158.187,-31.2955 168.5524,-33.4886 167.6577,-26.546"/>
</g>
<!-- Node3 -->
<g id="node3" class="node">
<title>Node3</title>
<g id="a_node3"><a xlink:href="../../d9/dae/classKFParticle__nTuple.html#a4b3e5fc3f34c40ce4d53656fc7ea58c7" target="_top" xlink:title="Fills required information for your selection, also requests truth and detector information if needed...">
<polygon fill="none" stroke="#000000" points="388,-25.5 388,-57.5 498,-57.5 498,-25.5 388,-25.5"/>
<text text-anchor="start" x="396" y="-44.5" font-family="FreeSans" font-size="10.00" fill="#000000">KFParticle_nTuple::</text>
<text text-anchor="middle" x="443" y="-32.5" font-family="FreeSans" font-size="10.00" fill="#000000">fillBranch</text>
</a>
</g>
</g>
<!-- Node2&#45;&gt;Node3 -->
<g id="edge2" class="edge">
<title>Node2&#45;&gt;Node3</title>
<path fill="none" stroke="#191970" d="M362.0019,-53.8879C370.8324,-52.5374 379.6052,-51.1957 387.938,-49.9213"/>
<polygon fill="#191970" stroke="#191970" points="361.3837,-50.4417 352.0278,-55.4134 362.442,-57.3612 361.3837,-50.4417"/>
</g>
<!-- Node4 -->
<g id="node4" class="node">
<title>Node4</title>
<g id="a_node4"><a xlink:href="../../d5/d72/classKFParticle__sPHENIX.html#aac7b97c325669f73559f04881cffae58" target="_top" xlink:title="KFParticle_sPHENIX\l::process_event">
<polygon fill="none" stroke="#000000" points="534,-25.5 534,-57.5 648,-57.5 648,-25.5 534,-25.5"/>
<text text-anchor="start" x="542" y="-44.5" font-family="FreeSans" font-size="10.00" fill="#000000">KFParticle_sPHENIX</text>
<text text-anchor="middle" x="591" y="-32.5" font-family="FreeSans" font-size="10.00" fill="#000000">::process_event</text>
</a>
</g>
</g>
<!-- Node3&#45;&gt;Node4 -->
<g id="edge3" class="edge">
<title>Node3&#45;&gt;Node4</title>
<path fill="none" stroke="#191970" d="M508.3677,-41.5C516.8651,-41.5 525.5165,-41.5 533.8654,-41.5"/>
<polygon fill="#191970" stroke="#191970" points="508.1098,-38.0001 498.1097,-41.5 508.1097,-45.0001 508.1098,-38.0001"/>
</g>
<!-- Node5&#45;&gt;Node3 -->
<g id="edge5" class="edge">
<title>Node5&#45;&gt;Node3</title>
<path fill="none" stroke="#191970" d="M362.0019,-29.5885C370.8324,-30.8871 379.6052,-32.1772 387.938,-33.4026"/>
<polygon fill="#191970" stroke="#191970" points="362.4307,-26.114 352.0278,-28.1217 361.4121,-33.0395 362.4307,-26.114"/>
</g>
</g>
</svg>
