<?xml version="1.0" encoding="UTF-8" standalone="no"?>
<!DOCTYPE svg PUBLIC "-//W3C//DTD SVG 1.1//EN"
 "http://www.w3.org/Graphics/SVG/1.1/DTD/svg11.dtd">
<!-- Generated by graphviz version 2.40.1 (20161225.0304)
 -->
<!-- Title: Fun4AllServer::Print Pages: 1 -->
<svg width="723pt" height="1808pt"
 viewBox="0.00 0.00 723.00 1808.00" xmlns="http://www.w3.org/2000/svg" xmlns:xlink="http://www.w3.org/1999/xlink">
<g id="graph0" class="graph" transform="scale(1 1) rotate(0) translate(4 1804)">
<title>Fun4AllServer::Print</title>
<!-- Node1 -->
<g id="node1" class="node">
<title>Node1</title>
<polygon fill="#bfbfbf" stroke="#000000" points="0,-799.5 0,-819.5 117,-819.5 117,-799.5 0,-799.5"/>
<text text-anchor="middle" x="58.5" y="-806.5" font-family="FreeSans" font-size="10.00" fill="#000000">Fun4AllServer::Print</text>
</g>
<!-- Node2 -->
<g id="node2" class="node">
<title>Node2</title>
<g id="a_node2"><a xlink:href="../../da/d29/classFun4AllServer.html#afcfc5583204cac58b4e66a2406187a18" target="_top" xlink:title="Fun4AllServer::BeginRun">
<polygon fill="none" stroke="#000000" points="165,-883.5 165,-903.5 306,-903.5 306,-883.5 165,-883.5"/>
<text text-anchor="middle" x="235.5" y="-890.5" font-family="FreeSans" font-size="10.00" fill="#000000">Fun4AllServer::BeginRun</text>
</a>
</g>
</g>
<!-- Node1&#45;&gt;Node2 -->
<g id="edge1" class="edge">
<title>Node1&#45;&gt;Node2</title>
<path fill="none" stroke="#191970" d="M80.2754,-825.4228C98.8539,-838.4256 126.6657,-856.5441 153,-868.5 166.2186,-874.5013 181.2645,-879.544 194.8551,-883.4929"/>
<polygon fill="#191970" stroke="#191970" points="82.1221,-822.4414 71.9437,-819.5 78.0663,-828.1467 82.1221,-822.4414"/>
</g>
<!-- Node46 -->
<g id="node46" class="node">
<title>Node46</title>
<g id="a_node46"><a xlink:href="../../d6/d1b/classPrototype2RawTowerBuilder.html#ac5d83bd0e9b8325c27dba83fc67b1111" target="_top" xlink:title="Prototype2RawTowerBuilder\l::InitRun">
<polygon fill="none" stroke="#000000" points="354,-787.5 354,-819.5 512,-819.5 512,-787.5 354,-787.5"/>
<text text-anchor="start" x="362" y="-806.5" font-family="FreeSans" font-size="10.00" fill="#000000">Prototype2RawTowerBuilder</text>
<text text-anchor="middle" x="433" y="-794.5" font-family="FreeSans" font-size="10.00" fill="#000000">::InitRun</text>
</a>
</g>
</g>
<!-- Node1&#45;&gt;Node46 -->
<g id="edge45" class="edge">
<title>Node1&#45;&gt;Node46</title>
<path fill="none" stroke="#191970" d="M96.6289,-822.5015C113.6593,-827.6524 134.111,-832.9489 153,-835.5 225.6735,-845.3151 245.3408,-845.4206 318,-835.5 340.9973,-832.36 365.8837,-825.8425 386.6044,-819.5039"/>
<polygon fill="#191970" stroke="#191970" points="97.6233,-819.1454 87.0346,-819.5073 95.5379,-825.8275 97.6233,-819.1454"/>
</g>
<!-- Node47 -->
<g id="node47" class="node">
<title>Node47</title>
<g id="a_node47"><a xlink:href="../../dd/d8b/classPHG4Prototype2HcalCellReco.html#ada0674e45683579ea6d19c3c6fdce9e5" target="_top" xlink:title="module initialization">
<polygon fill="none" stroke="#000000" points="153,-793.5 153,-825.5 318,-825.5 318,-793.5 153,-793.5"/>
<text text-anchor="start" x="161" y="-812.5" font-family="FreeSans" font-size="10.00" fill="#000000">PHG4Prototype2HcalCellReco</text>
<text text-anchor="middle" x="235.5" y="-800.5" font-family="FreeSans" font-size="10.00" fill="#000000">::InitRun</text>
</a>
</g>
</g>
<!-- Node1&#45;&gt;Node47 -->
<g id="edge46" class="edge">
<title>Node1&#45;&gt;Node47</title>
<path fill="none" stroke="#191970" d="M127.456,-809.5C135.7848,-809.5 144.3567,-809.5 152.8563,-809.5"/>
<polygon fill="#191970" stroke="#191970" points="127.4385,-806.0001 117.4384,-809.5 127.4384,-813.0001 127.4385,-806.0001"/>
</g>
<!-- Node48 -->
<g id="node48" class="node">
<title>Node48</title>
<g id="a_node48"><a xlink:href="../../d6/d1b/classPrototype2RawTowerBuilder.html#a9495dbf32264edc680dd19fb5d242837" target="_top" xlink:title="Prototype2RawTowerBuilder\l::ReadParamsFromNodeTree">
<polygon fill="none" stroke="#000000" points="156.5,-742.5 156.5,-774.5 314.5,-774.5 314.5,-742.5 156.5,-742.5"/>
<text text-anchor="start" x="164.5" y="-761.5" font-family="FreeSans" font-size="10.00" fill="#000000">Prototype2RawTowerBuilder</text>
<text text-anchor="middle" x="235.5" y="-749.5" font-family="FreeSans" font-size="10.00" fill="#000000">::ReadParamsFromNodeTree</text>
</a>
</g>
</g>
<!-- Node1&#45;&gt;Node48 -->
<g id="edge47" class="edge">
<title>Node1&#45;&gt;Node48</title>
<path fill="none" stroke="#191970" d="M103.3861,-796.5667C126.5795,-789.8839 155.1015,-781.6657 179.7011,-774.5777"/>
<polygon fill="#191970" stroke="#191970" points="102.1095,-793.2921 93.4695,-799.424 104.0477,-800.0184 102.1095,-793.2921"/>
</g>
<!-- Node49 -->
<g id="node49" class="node">
<title>Node49</title>
<g id="a_node49"><a xlink:href="../../d1/dec/classHcalRawTowerBuilder.html#a4d42afd3cf9d5d9f5569e87fa939d567" target="_top" xlink:title="HcalRawTowerBuilder\l::ReadParamsFromNodeTree">
<polygon fill="none" stroke="#000000" points="156.5,-691.5 156.5,-723.5 314.5,-723.5 314.5,-691.5 156.5,-691.5"/>
<text text-anchor="start" x="164.5" y="-710.5" font-family="FreeSans" font-size="10.00" fill="#000000">HcalRawTowerBuilder</text>
<text text-anchor="middle" x="235.5" y="-698.5" font-family="FreeSans" font-size="10.00" fill="#000000">::ReadParamsFromNodeTree</text>
</a>
</g>
</g>
<!-- Node1&#45;&gt;Node49 -->
<g id="edge49" class="edge">
<title>Node1&#45;&gt;Node49</title>
<path fill="none" stroke="#191970" d="M75.6456,-791.9862C93.5082,-774.6471 123.0269,-748.4477 153,-732.5 159.3419,-729.1257 166.206,-726.1378 173.1735,-723.5101"/>
<polygon fill="#191970" stroke="#191970" points="72.9422,-789.7374 68.2989,-799.2606 77.8675,-794.7116 72.9422,-789.7374"/>
</g>
<!-- Node3 -->
<g id="node3" class="node">
<title>Node3</title>
<g id="a_node3"><a xlink:href="../../da/d29/classFun4AllServer.html#a11bbc8b2f53bc06e0b05ee202dd6372a" target="_top" xlink:title="run n events (0 means up to end of file)">
<polygon fill="none" stroke="#ff0000" points="378,-883.5 378,-903.5 488,-903.5 488,-883.5 378,-883.5"/>
<text text-anchor="middle" x="433" y="-890.5" font-family="FreeSans" font-size="10.00" fill="#000000">Fun4AllServer::run</text>
</a>
</g>
</g>
<!-- Node2&#45;&gt;Node3 -->
<g id="edge2" class="edge">
<title>Node2&#45;&gt;Node3</title>
<path fill="none" stroke="#191970" d="M316.3113,-893.5C337.0307,-893.5 358.8404,-893.5 377.9247,-893.5"/>
<polygon fill="#191970" stroke="#191970" points="316.2442,-890.0001 306.2442,-893.5 316.2442,-897.0001 316.2442,-890.0001"/>
</g>
<!-- Node4 -->
<g id="node4" class="node">
<title>Node4</title>
<g id="a_node4"><a xlink:href="../../dc/ddc/Fun4All__Ana_8C.html#a9152007c2477efc543d79f3b97fbf50c" target="_top" xlink:title="Fun4All_Ana">
<polygon fill="none" stroke="#000000" points="592.5,-1779.5 592.5,-1799.5 670.5,-1799.5 670.5,-1779.5 592.5,-1779.5"/>
<text text-anchor="middle" x="631.5" y="-1786.5" font-family="FreeSans" font-size="10.00" fill="#000000">Fun4All_Ana</text>
</a>
</g>
</g>
<!-- Node3&#45;&gt;Node4 -->
<g id="edge3" class="edge">
<title>Node3&#45;&gt;Node4</title>
<path fill="none" stroke="#191970" d="M434.286,-913.8229C442.3999,-1039.2351 488.0894,-1704.7184 548,-1770.5 559.1118,-1782.7007 576.2859,-1787.8932 592.1761,-1789.8611"/>
<polygon fill="#191970" stroke="#191970" points="437.7692,-913.4467 433.6367,-903.6911 430.7835,-913.8945 437.7692,-913.4467"/>
</g>
<!-- Node5 -->
<g id="node5" class="node">
<title>Node5</title>
<g id="a_node5"><a xlink:href="../../dc/d81/condor_2MakeShowerSize_8C.html#a725a09873df2005bf77ed0cf52eca694" target="_top" xlink:title="MakeShowerSize">
<polygon fill="none" stroke="#000000" points="581,-1740.5 581,-1760.5 682,-1760.5 682,-1740.5 581,-1740.5"/>
<text text-anchor="middle" x="631.5" y="-1747.5" font-family="FreeSans" font-size="10.00" fill="#000000">MakeShowerSize</text>
</a>
</g>
</g>
<!-- Node3&#45;&gt;Node5 -->
<g id="edge4" class="edge">
<title>Node3&#45;&gt;Node5</title>
<path fill="none" stroke="#191970" d="M434.4042,-913.6668C443.0556,-1035.385 490.6372,-1668.8939 548,-1731.5 556.537,-1740.8174 568.6104,-1746.0421 580.9305,-1748.8647"/>
<polygon fill="#191970" stroke="#191970" points="437.8837,-913.2509 433.6895,-903.5216 430.901,-913.7429 437.8837,-913.2509"/>
</g>
<!-- Node6 -->
<g id="node6" class="node">
<title>Node6</title>
<g id="a_node6"><a xlink:href="../../d2/dc1/HistoBaseFiles_2MakeEdepNtuple_8C.html#ab3fc7b9dfdc157f52751ae85a32c5116" target="_top" xlink:title="MakeEdepNtuple">
<polygon fill="none" stroke="#000000" points="580.5,-1701.5 580.5,-1721.5 682.5,-1721.5 682.5,-1701.5 580.5,-1701.5"/>
<text text-anchor="middle" x="631.5" y="-1708.5" font-family="FreeSans" font-size="10.00" fill="#000000">MakeEdepNtuple</text>
</a>
</g>
</g>
<!-- Node3&#45;&gt;Node6 -->
<g id="edge5" class="edge">
<title>Node3&#45;&gt;Node6</title>
<path fill="none" stroke="#191970" d="M434.5573,-913.8253C443.8306,-1032.5465 493.2307,-1633.1172 548,-1692.5 556.366,-1701.5707 568.0845,-1706.7569 580.1022,-1709.6239"/>
<polygon fill="#191970" stroke="#191970" points="438.0276,-913.3057 433.7657,-903.6059 431.0486,-913.8464 438.0276,-913.3057"/>
</g>
<!-- Node7 -->
<g id="node7" class="node">
<title>Node7</title>
<g id="a_node7"><a xlink:href="../../d9/d0e/Fun4All__G4__EICIR_8C.html#ac3543d1dd4a0abed3987d40939ee3f87" target="_top" xlink:title="Fun4All_G4_EICIR">
<polygon fill="none" stroke="#000000" points="579.5,-1662.5 579.5,-1682.5 683.5,-1682.5 683.5,-1662.5 579.5,-1662.5"/>
<text text-anchor="middle" x="631.5" y="-1669.5" font-family="FreeSans" font-size="10.00" fill="#000000">Fun4All_G4_EICIR</text>
</a>
</g>
</g>
<!-- Node3&#45;&gt;Node7 -->
<g id="edge6" class="edge">
<title>Node3&#45;&gt;Node7</title>
<path fill="none" stroke="#191970" d="M434.7202,-913.9026C444.629,-1029.3289 495.807,-1597.3193 548,-1653.5 556.1963,-1662.3226 567.5654,-1667.4643 579.2788,-1670.3711"/>
<polygon fill="#191970" stroke="#191970" points="438.1831,-913.3174 433.8469,-903.6506 431.2083,-913.9116 438.1831,-913.3174"/>
</g>
<!-- Node8 -->
<g id="node8" class="node">
<title>Node8</title>
<g id="a_node8"><a xlink:href="../../de/d6b/Fun4All__MCEventGen_8C.html#a4e6d2272e7266684626c0653520558ef" target="_top" xlink:title="Fun4All_MCEventGen">
<polygon fill="none" stroke="#000000" points="570,-1623.5 570,-1643.5 693,-1643.5 693,-1623.5 570,-1623.5"/>
<text text-anchor="middle" x="631.5" y="-1630.5" font-family="FreeSans" font-size="10.00" fill="#000000">Fun4All_MCEventGen</text>
</a>
</g>
</g>
<!-- Node3&#45;&gt;Node8 -->
<g id="edge7" class="edge">
<title>Node3&#45;&gt;Node8</title>
<path fill="none" stroke="#191970" d="M433.2825,-913.767C435.1793,-1019.7164 449.2456,-1509.0486 548,-1614.5 553.9958,-1620.9024 561.6631,-1625.3629 569.9129,-1628.4365"/>
<polygon fill="#191970" stroke="#191970" points="436.778,-913.4505 433.1167,-903.5084 429.7789,-913.5637 436.778,-913.4505"/>
</g>
<!-- Node9 -->
<g id="node9" class="node">
<title>Node9</title>
<g id="a_node9"><a xlink:href="../../d7/d65/Fun4All__Pythia6_8C.html#aef86c866396545237e0781d2226bd6a5" target="_top" xlink:title="Fun4All_Pythia6">
<polygon fill="none" stroke="#000000" points="583.5,-1584.5 583.5,-1604.5 679.5,-1604.5 679.5,-1584.5 583.5,-1584.5"/>
<text text-anchor="middle" x="631.5" y="-1591.5" font-family="FreeSans" font-size="10.00" fill="#000000">Fun4All_Pythia6</text>
</a>
</g>
</g>
<!-- Node3&#45;&gt;Node9 -->
<g id="edge8" class="edge">
<title>Node3&#45;&gt;Node9</title>
<path fill="none" stroke="#191970" d="M433.4895,-913.9572C436.3729,-1016.8146 454.4015,-1476.4396 548,-1575.5 557.1894,-1585.2257 570.2378,-1590.4613 583.2961,-1593.1619"/>
<polygon fill="#191970" stroke="#191970" points="436.9815,-913.6004 433.2202,-903.6957 429.9839,-913.7841 436.9815,-913.6004"/>
</g>
<!-- Node10 -->
<g id="node10" class="node">
<title>Node10</title>
<g id="a_node10"><a xlink:href="../../da/dae/Fun4All__EICAnalysis__DIS_8C.html#ab2e5db333dd6b1cacd67c6dea10fcda8" target="_top" xlink:title="Fun4All_EICAnalysis_DIS">
<polygon fill="none" stroke="#000000" points="562,-1545.5 562,-1565.5 701,-1565.5 701,-1545.5 562,-1545.5"/>
<text text-anchor="middle" x="631.5" y="-1552.5" font-family="FreeSans" font-size="10.00" fill="#000000">Fun4All_EICAnalysis_DIS</text>
</a>
</g>
</g>
<!-- Node3&#45;&gt;Node10 -->
<g id="edge9" class="edge">
<title>Node3&#45;&gt;Node10</title>
<path fill="none" stroke="#191970" d="M433.7203,-914.0361C437.6291,-1013.4553 459.5108,-1443.7734 548,-1536.5 552.003,-1540.6946 556.7242,-1544.0522 561.8519,-1546.7304"/>
<polygon fill="#191970" stroke="#191970" points="437.2097,-913.6864 433.3375,-903.8246 430.2146,-913.9487 437.2097,-913.6864"/>
</g>
<!-- Node11 -->
<g id="node11" class="node">
<title>Node11</title>
<g id="a_node11"><a xlink:href="../../d2/d9b/Fun4All__EICAnalysis__DISReco_8C.html#a3c160743ec7b9b4572cf73a19640a34f" target="_top" xlink:title="Fun4All_EICAnalysis\l_DISReco">
<polygon fill="none" stroke="#000000" points="573,-1494.5 573,-1526.5 690,-1526.5 690,-1494.5 573,-1494.5"/>
<text text-anchor="start" x="581" y="-1513.5" font-family="FreeSans" font-size="10.00" fill="#000000">Fun4All_EICAnalysis</text>
<text text-anchor="middle" x="631.5" y="-1501.5" font-family="FreeSans" font-size="10.00" fill="#000000">_DISReco</text>
</a>
</g>
</g>
<!-- Node3&#45;&gt;Node11 -->
<g id="edge10" class="edge">
<title>Node3&#45;&gt;Node11</title>
<path fill="none" stroke="#191970" d="M434.2015,-914.0619C440.1123,-1008.3318 469.067,-1398.3351 548,-1485.5 554.7039,-1492.903 563.5011,-1498.1506 572.8667,-1501.8619"/>
<polygon fill="#191970" stroke="#191970" points="437.6813,-913.6219 433.5802,-903.853 430.6942,-914.0472 437.6813,-913.6219"/>
</g>
<!-- Node12 -->
<g id="node12" class="node">
<title>Node12</title>
<g id="a_node12"><a xlink:href="../../df/d90/Fun4All__EICAnalysis__TrackEval_8C.html#ab4d10c3db3266243a5c314b02c02a360" target="_top" xlink:title="Fun4All_EICAnalysis\l_TrackEval">
<polygon fill="none" stroke="#000000" points="573,-1443.5 573,-1475.5 690,-1475.5 690,-1443.5 573,-1443.5"/>
<text text-anchor="start" x="581" y="-1462.5" font-family="FreeSans" font-size="10.00" fill="#000000">Fun4All_EICAnalysis</text>
<text text-anchor="middle" x="631.5" y="-1450.5" font-family="FreeSans" font-size="10.00" fill="#000000">_TrackEval</text>
</a>
</g>
</g>
<!-- Node3&#45;&gt;Node12 -->
<g id="edge11" class="edge">
<title>Node3&#45;&gt;Node12</title>
<path fill="none" stroke="#191970" d="M434.6015,-913.9679C441.9658,-1003.0086 475.3689,-1355.6979 548,-1434.5 554.7687,-1441.8438 563.5973,-1447.0626 572.9738,-1450.7641"/>
<polygon fill="#191970" stroke="#191970" points="438.076,-913.5098 433.7821,-903.8241 431.0987,-914.0735 438.076,-913.5098"/>
</g>
<!-- Node13 -->
<g id="node13" class="node">
<title>Node13</title>
<g id="a_node13"><a xlink:href="../../d3/dee/Fun4All__EICAnalysis__Exclusive_8C.html#ad3a88bfdb2a21a757edf221e36d6bffe" target="_top" xlink:title="Fun4All_EICAnalysis\l_Exclusive">
<polygon fill="none" stroke="#000000" points="573,-1392.5 573,-1424.5 690,-1424.5 690,-1392.5 573,-1392.5"/>
<text text-anchor="start" x="581" y="-1411.5" font-family="FreeSans" font-size="10.00" fill="#000000">Fun4All_EICAnalysis</text>
<text text-anchor="middle" x="631.5" y="-1399.5" font-family="FreeSans" font-size="10.00" fill="#000000">_Exclusive</text>
</a>
</g>
</g>
<!-- Node3&#45;&gt;Node13 -->
<g id="edge12" class="edge">
<title>Node3&#45;&gt;Node13</title>
<path fill="none" stroke="#191970" d="M436.5306,-913.8031C452.0079,-1001.8721 514.5767,-1347.9949 548,-1383.5 554.742,-1390.6619 563.4434,-1395.7986 572.6746,-1399.4768"/>
<polygon fill="#191970" stroke="#191970" points="439.9441,-913.0048 434.7732,-903.7575 433.0488,-914.2111 439.9441,-913.0048"/>
</g>
<!-- Node14 -->
<g id="node14" class="node">
<title>Node14</title>
<g id="a_node14"><a xlink:href="../../d2/d47/Fun4All__EICAnalysis__DVCS_8C.html#a84f48142243e969fd353cc8509f0ba22" target="_top" xlink:title="Fun4All_EICAnalysis_DVCS">
<polygon fill="none" stroke="#000000" points="556.5,-1353.5 556.5,-1373.5 706.5,-1373.5 706.5,-1353.5 556.5,-1353.5"/>
<text text-anchor="middle" x="631.5" y="-1360.5" font-family="FreeSans" font-size="10.00" fill="#000000">Fun4All_EICAnalysis_DVCS</text>
</a>
</g>
</g>
<!-- Node3&#45;&gt;Node14 -->
<g id="edge13" class="edge">
<title>Node3&#45;&gt;Node14</title>
<path fill="none" stroke="#191970" d="M435.3834,-913.8808C445.1039,-993.5281 484.2899,-1282.421 548,-1344.5 551.6203,-1348.0276 555.7519,-1350.9534 560.195,-1353.3749"/>
<polygon fill="#191970" stroke="#191970" points="438.8284,-913.2123 434.1636,-903.6997 431.8781,-914.0451 438.8284,-913.2123"/>
</g>
<!-- Node15 -->
<g id="node15" class="node">
<title>Node15</title>
<g id="a_node15"><a xlink:href="../../df/d6c/Fun4All__EICAnalysis__JPsi_8C.html#ad03644e8a25c5261146f6c59826ed6d0" target="_top" xlink:title="Fun4All_EICAnalysis\l_Quarkonia">
<polygon fill="none" stroke="#000000" points="573,-1302.5 573,-1334.5 690,-1334.5 690,-1302.5 573,-1302.5"/>
<text text-anchor="start" x="581" y="-1321.5" font-family="FreeSans" font-size="10.00" fill="#000000">Fun4All_EICAnalysis</text>
<text text-anchor="middle" x="631.5" y="-1309.5" font-family="FreeSans" font-size="10.00" fill="#000000">_Quarkonia</text>
</a>
</g>
</g>
<!-- Node3&#45;&gt;Node15 -->
<g id="edge14" class="edge">
<title>Node3&#45;&gt;Node15</title>
<path fill="none" stroke="#191970" d="M436.2138,-913.7782C448.2269,-987.1673 492.653,-1237.5432 548,-1293.5 554.9169,-1300.4931 563.7044,-1305.5467 572.9667,-1309.195"/>
<polygon fill="#191970" stroke="#191970" points="439.6159,-912.8908 434.5673,-903.5762 432.7053,-914.0061 439.6159,-912.8908"/>
</g>
<!-- Node16 -->
<g id="node16" class="node">
<title>Node16</title>
<g id="a_node16"><a xlink:href="../../d2/d00/Fun4All__EICAnalysis__Leptoquarks_8C.html#a328697c2ae82c0b33f95bea9aefb93f4" target="_top" xlink:title="Fun4All_EICAnalysis\l_Leptoquarks">
<polygon fill="none" stroke="#000000" points="573,-1251.5 573,-1283.5 690,-1283.5 690,-1251.5 573,-1251.5"/>
<text text-anchor="start" x="581" y="-1270.5" font-family="FreeSans" font-size="10.00" fill="#000000">Fun4All_EICAnalysis</text>
<text text-anchor="middle" x="631.5" y="-1258.5" font-family="FreeSans" font-size="10.00" fill="#000000">_Leptoquarks</text>
</a>
</g>
</g>
<!-- Node3&#45;&gt;Node16 -->
<g id="edge15" class="edge">
<title>Node3&#45;&gt;Node16</title>
<path fill="none" stroke="#191970" d="M437.1106,-913.7532C451.1159,-980.9021 498.8337,-1194.6628 548,-1242.5 554.9413,-1249.2536 563.6307,-1254.193 572.7603,-1257.803"/>
<polygon fill="#191970" stroke="#191970" points="440.4712,-912.7195 435.0247,-903.6318 433.6153,-914.1325 440.4712,-912.7195"/>
</g>
<!-- Node17 -->
<g id="node17" class="node">
<title>Node17</title>
<g id="a_node17"><a xlink:href="../../dd/d2a/Fun4All__G4__EICDetector__LQ_8C.html#aaa01242fd6e77ca43a9d49a6d46008e4" target="_top" xlink:title="Fun4All_G4_EICDetector_LQ">
<polygon fill="none" stroke="#000000" points="553.5,-1212.5 553.5,-1232.5 709.5,-1232.5 709.5,-1212.5 553.5,-1212.5"/>
<text text-anchor="middle" x="631.5" y="-1219.5" font-family="FreeSans" font-size="10.00" fill="#000000">Fun4All_G4_EICDetector_LQ</text>
</a>
</g>
</g>
<!-- Node3&#45;&gt;Node17 -->
<g id="edge16" class="edge">
<title>Node3&#45;&gt;Node17</title>
<path fill="none" stroke="#191970" d="M434.1595,-914.0293C438.4624,-969.7512 458.3265,-1124.9057 548,-1203.5 552.025,-1207.0277 556.5692,-1209.939 561.407,-1212.3375"/>
<polygon fill="#191970" stroke="#191970" points="437.6284,-913.4509 433.458,-903.7114 430.6445,-913.9258 437.6284,-913.4509"/>
</g>
<!-- Node18 -->
<g id="node18" class="node">
<title>Node18</title>
<g id="a_node18"><a xlink:href="../../df/d4b/Fun4All__G4__EICDetector__LQ__analysis_8C.html#af903e98824d083a08b353ac15996ee0e" target="_top" xlink:title="Fun4All_G4_EICDetector\l_LQ_analysis">
<polygon fill="none" stroke="#000000" points="562,-1161.5 562,-1193.5 701,-1193.5 701,-1161.5 562,-1161.5"/>
<text text-anchor="start" x="570" y="-1180.5" font-family="FreeSans" font-size="10.00" fill="#000000">Fun4All_G4_EICDetector</text>
<text text-anchor="middle" x="631.5" y="-1168.5" font-family="FreeSans" font-size="10.00" fill="#000000">_LQ_analysis</text>
</a>
</g>
</g>
<!-- Node3&#45;&gt;Node18 -->
<g id="edge17" class="edge">
<title>Node3&#45;&gt;Node18</title>
<path fill="none" stroke="#191970" d="M436.0859,-913.596C444.602,-962.1007 472.9773,-1086.4449 548,-1152.5 552.2022,-1156.1999 556.934,-1159.3526 561.9545,-1162.0389"/>
<polygon fill="#191970" stroke="#191970" points="439.5345,-912.9972 434.4447,-903.7051 432.6289,-914.1431 439.5345,-912.9972"/>
</g>
<!-- Node19 -->
<g id="node19" class="node">
<title>Node19</title>
<g id="a_node19"><a xlink:href="../../d1/daf/Fun4All__G4__EICDetector__LQ__analysis__nf_8C.html#a5022607d21247b87dd208b0828905147" target="_top" xlink:title="Fun4All_G4_EICDetector\l_LQ_analysis_nf">
<polygon fill="none" stroke="#000000" points="562,-1110.5 562,-1142.5 701,-1142.5 701,-1110.5 562,-1110.5"/>
<text text-anchor="start" x="570" y="-1129.5" font-family="FreeSans" font-size="10.00" fill="#000000">Fun4All_G4_EICDetector</text>
<text text-anchor="middle" x="631.5" y="-1117.5" font-family="FreeSans" font-size="10.00" fill="#000000">_LQ_analysis_nf</text>
</a>
</g>
</g>
<!-- Node3&#45;&gt;Node19 -->
<g id="edge18" class="edge">
<title>Node3&#45;&gt;Node19</title>
<path fill="none" stroke="#191970" d="M438.356,-913.1955C450.6002,-954.4627 484.5905,-1050.3987 548,-1101.5 552.2417,-1104.9183 556.9416,-1107.8696 561.8871,-1110.4177"/>
<polygon fill="#191970" stroke="#191970" points="441.7021,-912.1664 435.589,-903.513 434.9716,-914.0899 441.7021,-912.1664"/>
</g>
<!-- Node20 -->
<g id="node20" class="node">
<title>Node20</title>
<g id="a_node20"><a xlink:href="../../d4/df5/Fun4All__G4__EICDetector__LQ__reference_8C.html#a2feefc472f17f90b3cbe74897d049f75" target="_top" xlink:title="Fun4All_G4_EICDetector\l_LQ_reference">
<polygon fill="none" stroke="#000000" points="562,-1059.5 562,-1091.5 701,-1091.5 701,-1059.5 562,-1059.5"/>
<text text-anchor="start" x="570" y="-1078.5" font-family="FreeSans" font-size="10.00" fill="#000000">Fun4All_G4_EICDetector</text>
<text text-anchor="middle" x="631.5" y="-1066.5" font-family="FreeSans" font-size="10.00" fill="#000000">_LQ_reference</text>
</a>
</g>
</g>
<!-- Node3&#45;&gt;Node20 -->
<g id="edge19" class="edge">
<title>Node3&#45;&gt;Node20</title>
<path fill="none" stroke="#191970" d="M441.9178,-912.828C458.2128,-946.0071 495.9721,-1013.7673 548,-1050.5 552.8211,-1053.9038 558.1112,-1056.8507 563.6155,-1059.401"/>
<polygon fill="#191970" stroke="#191970" points="445.0306,-911.2244 437.5578,-903.7138 438.716,-914.2452 445.0306,-911.2244"/>
</g>
<!-- Node21 -->
<g id="node21" class="node">
<title>Node21</title>
<g id="a_node21"><a xlink:href="../../de/dc8/Fun4All__EMCalLikelihood_8C.html#a89ee65ad6fa926ea61eb91b2b0a9c38c" target="_top" xlink:title="Fun4All_EMCalLikelihood">
<polygon fill="none" stroke="#000000" points="561,-1020.5 561,-1040.5 702,-1040.5 702,-1020.5 561,-1020.5"/>
<text text-anchor="middle" x="631.5" y="-1027.5" font-family="FreeSans" font-size="10.00" fill="#000000">Fun4All_EMCalLikelihood</text>
</a>
</g>
</g>
<!-- Node3&#45;&gt;Node21 -->
<g id="edge20" class="edge">
<title>Node3&#45;&gt;Node21</title>
<path fill="none" stroke="#191970" d="M445.5765,-911.9542C464.5643,-938.3175 503.1369,-986.3463 548,-1011.5 554.4839,-1015.1354 561.6204,-1018.0755 568.907,-1020.4533"/>
<polygon fill="#191970" stroke="#191970" points="448.3175,-909.7676 439.6988,-903.6057 442.5937,-913.7974 448.3175,-909.7676"/>
</g>
<!-- Node22 -->
<g id="node22" class="node">
<title>Node22</title>
<g id="a_node22"><a xlink:href="../../db/d18/runanamb_8C.html#a667e563c9f42b4368005cabb713ec248" target="_top" xlink:title="runanamb">
<polygon fill="none" stroke="#000000" points="597.5,-981.5 597.5,-1001.5 665.5,-1001.5 665.5,-981.5 597.5,-981.5"/>
<text text-anchor="middle" x="631.5" y="-988.5" font-family="FreeSans" font-size="10.00" fill="#000000">runanamb</text>
</a>
</g>
</g>
<!-- Node3&#45;&gt;Node22 -->
<g id="edge21" class="edge">
<title>Node3&#45;&gt;Node22</title>
<path fill="none" stroke="#191970" d="M452.3511,-910.2436C474.161,-928.2527 511.3717,-956.4569 548,-972.5 563.5246,-979.2997 581.781,-983.8112 597.2575,-986.724"/>
<polygon fill="#191970" stroke="#191970" points="454.4254,-907.4151 444.5172,-903.663 449.923,-912.775 454.4254,-907.4151"/>
</g>
<!-- Node23 -->
<g id="node23" class="node">
<title>Node23</title>
<g id="a_node23"><a xlink:href="../../de/daf/runpairs_8C.html#a3943c94a7c006ab17caf66aea983c3da" target="_top" xlink:title="runpairs">
<polygon fill="none" stroke="#000000" points="602.5,-942.5 602.5,-962.5 660.5,-962.5 660.5,-942.5 602.5,-942.5"/>
<text text-anchor="middle" x="631.5" y="-949.5" font-family="FreeSans" font-size="10.00" fill="#000000">runpairs</text>
</a>
</g>
</g>
<!-- Node3&#45;&gt;Node23 -->
<g id="edge22" class="edge">
<title>Node3&#45;&gt;Node23</title>
<path fill="none" stroke="#191970" d="M468.719,-907.0734C491.2581,-915.3509 521.0954,-925.7857 548,-933.5 565.864,-938.6221 586.1907,-943.2721 602.3159,-946.6898"/>
<polygon fill="#191970" stroke="#191970" points="469.8185,-903.7484 459.2254,-903.5562 467.3866,-910.3124 469.8185,-903.7484"/>
</g>
<!-- Node24 -->
<g id="node24" class="node">
<title>Node24</title>
<g id="a_node24"><a xlink:href="../../d8/d27/EventMix_2macro_2run_8C.html#a13a43e6d814de94978c515cb084873b1" target="_top" xlink:title="run">
<polygon fill="none" stroke="#000000" points="615,-903.5 615,-923.5 648,-923.5 648,-903.5 615,-903.5"/>
<text text-anchor="middle" x="631.5" y="-910.5" font-family="FreeSans" font-size="10.00" fill="#000000">run</text>
</a>
</g>
</g>
<!-- Node3&#45;&gt;Node24 -->
<g id="edge23" class="edge">
<title>Node3&#45;&gt;Node24</title>
<path fill="none" stroke="#191970" d="M498.0032,-900.0494C539.1366,-904.1939 589.2146,-909.2395 614.7591,-911.8133"/>
<polygon fill="#191970" stroke="#191970" points="498.3302,-896.5648 488.0297,-899.0446 497.6284,-903.5295 498.3302,-896.5648"/>
</g>
<!-- Node25 -->
<g id="node25" class="node">
<title>Node25</title>
<g id="a_node25"><a xlink:href="../../dd/dd2/runall_8C.html#a62dadefad3105fa363c25fd0dbbe8d54" target="_top" xlink:title="runall">
<polygon fill="none" stroke="#000000" points="609,-864.5 609,-884.5 654,-884.5 654,-864.5 609,-864.5"/>
<text text-anchor="middle" x="631.5" y="-871.5" font-family="FreeSans" font-size="10.00" fill="#000000">runall</text>
</a>
</g>
</g>
<!-- Node3&#45;&gt;Node25 -->
<g id="edge24" class="edge">
<title>Node3&#45;&gt;Node25</title>
<path fill="none" stroke="#191970" d="M498.0495,-887.2736C536.1814,-883.6237 581.9869,-879.2393 608.8077,-876.6721"/>
<polygon fill="#191970" stroke="#191970" points="497.6507,-883.7957 488.0297,-888.2327 498.3177,-890.7638 497.6507,-883.7957"/>
</g>
<!-- Node26 -->
<g id="node26" class="node">
<title>Node26</title>
<g id="a_node26"><a xlink:href="../../d6/d7b/runmb_8C.html#acd609a260da809be5fe035e7d0d6e4a9" target="_top" xlink:title="runmb">
<polygon fill="none" stroke="#000000" points="606.5,-825.5 606.5,-845.5 656.5,-845.5 656.5,-825.5 606.5,-825.5"/>
<text text-anchor="middle" x="631.5" y="-832.5" font-family="FreeSans" font-size="10.00" fill="#000000">runmb</text>
</a>
</g>
</g>
<!-- Node3&#45;&gt;Node26 -->
<g id="edge25" class="edge">
<title>Node3&#45;&gt;Node26</title>
<path fill="none" stroke="#191970" d="M470.6038,-880.1877C492.948,-872.5003 521.9258,-862.9164 548,-855.5 567.3561,-849.9945 589.5182,-844.7337 606.1441,-840.9906"/>
<polygon fill="#191970" stroke="#191970" points="469.4541,-876.8819 461.151,-883.4628 471.7458,-883.4961 469.4541,-876.8819"/>
</g>
<!-- Node27 -->
<g id="node27" class="node">
<title>Node27</title>
<g id="a_node27"><a xlink:href="../../dc/d9b/Fun4All__HCALAnalysis_8C.html#a28b645088a74f7f1146274b5333cd479" target="_top" xlink:title="Fun4All_HCALAnalysis">
<polygon fill="none" stroke="#000000" points="567.5,-786.5 567.5,-806.5 695.5,-806.5 695.5,-786.5 567.5,-786.5"/>
<text text-anchor="middle" x="631.5" y="-793.5" font-family="FreeSans" font-size="10.00" fill="#000000">Fun4All_HCALAnalysis</text>
</a>
</g>
</g>
<!-- Node3&#45;&gt;Node27 -->
<g id="edge26" class="edge">
<title>Node3&#45;&gt;Node27</title>
<path fill="none" stroke="#191970" d="M452.8137,-877.0003C474.7661,-859.5238 511.8563,-832.3188 548,-816.5 557.1495,-812.4956 567.2292,-809.2173 577.1256,-806.5594"/>
<polygon fill="#191970" stroke="#191970" points="450.4815,-874.385 444.9094,-883.3962 454.8848,-879.8267 450.4815,-874.385"/>
</g>
<!-- Node28 -->
<g id="node28" class="node">
<title>Node28</title>
<g id="a_node28"><a xlink:href="../../d6/d5d/RunBDiJetModule_8C.html#a554fde97a26ea668bc2f32b294103192" target="_top" xlink:title="RunBDiJetModule">
<polygon fill="none" stroke="#000000" points="580,-747.5 580,-767.5 683,-767.5 683,-747.5 580,-747.5"/>
<text text-anchor="middle" x="631.5" y="-754.5" font-family="FreeSans" font-size="10.00" fill="#000000">RunBDiJetModule</text>
</a>
</g>
</g>
<!-- Node3&#45;&gt;Node28 -->
<g id="edge27" class="edge">
<title>Node3&#45;&gt;Node28</title>
<path fill="none" stroke="#191970" d="M456.6388,-877.2099C473.1987,-865.1445 495.2699,-847.7021 512,-829.5 531.2698,-808.5348 524.4809,-792.5536 548,-776.5 557.455,-770.0462 568.7765,-765.7559 579.9861,-762.9114"/>
<polygon fill="#191970" stroke="#191970" points="454.1756,-874.6683 448.0748,-883.3303 458.2457,-880.3634 454.1756,-874.6683"/>
</g>
<!-- Node29 -->
<g id="node29" class="node">
<title>Node29</title>
<g id="a_node29"><a xlink:href="../../dc/dad/generate__hepmc__bjet_8C.html#a43ba01d330c72134968f8e6fddb1790a" target="_top" xlink:title="generate_hepmc_bjet">
<polygon fill="none" stroke="#000000" points="568,-708.5 568,-728.5 695,-728.5 695,-708.5 568,-708.5"/>
<text text-anchor="middle" x="631.5" y="-715.5" font-family="FreeSans" font-size="10.00" fill="#000000">generate_hepmc_bjet</text>
</a>
</g>
</g>
<!-- Node3&#45;&gt;Node29 -->
<g id="edge28" class="edge">
<title>Node3&#45;&gt;Node29</title>
<path fill="none" stroke="#191970" d="M458.4171,-877.976C475.5327,-866.4221 497.5368,-849.2763 512,-829.5 537.9195,-794.0588 514.724,-766.1463 548,-737.5 553.7462,-732.5532 560.5169,-728.8233 567.6758,-726.0219"/>
<polygon fill="#191970" stroke="#191970" points="456.4334,-875.0913 449.9782,-883.4926 460.2636,-880.9505 456.4334,-875.0913"/>
</g>
<!-- Node30 -->
<g id="node30" class="node">
<title>Node30</title>
<g id="a_node30"><a xlink:href="../../d0/d99/Jin__BJet_8C.html#a36169bfee2ed7efda633944d12aebad9" target="_top" xlink:title="Jin_BJet">
<polygon fill="none" stroke="#000000" points="604,-669.5 604,-689.5 659,-689.5 659,-669.5 604,-669.5"/>
<text text-anchor="middle" x="631.5" y="-676.5" font-family="FreeSans" font-size="10.00" fill="#000000">Jin_BJet</text>
</a>
</g>
</g>
<!-- Node3&#45;&gt;Node30 -->
<g id="edge29" class="edge">
<title>Node3&#45;&gt;Node30</title>
<path fill="none" stroke="#191970" d="M459.7241,-878.0151C477.0401,-866.6711 498.757,-849.7551 512,-829.5 545.0421,-778.9624 504.3661,-740.2361 548,-698.5 562.7188,-684.4214 585.5976,-679.9698 603.6874,-678.8734"/>
<polygon fill="#191970" stroke="#191970" points="457.7312,-875.1339 451.1383,-883.4275 461.4642,-881.0555 457.7312,-875.1339"/>
</g>
<!-- Node31 -->
<g id="node31" class="node">
<title>Node31</title>
<g id="a_node31"><a xlink:href="../../d0/df6/RunBJetModule_8C.html#a1f9a3833ba8496c693bb4448e7bf4bb7" target="_top" xlink:title="RunBJetModule">
<polygon fill="none" stroke="#000000" points="585.5,-630.5 585.5,-650.5 677.5,-650.5 677.5,-630.5 585.5,-630.5"/>
<text text-anchor="middle" x="631.5" y="-637.5" font-family="FreeSans" font-size="10.00" fill="#000000">RunBJetModule</text>
</a>
</g>
</g>
<!-- Node3&#45;&gt;Node31 -->
<g id="edge30" class="edge">
<title>Node3&#45;&gt;Node31</title>
<path fill="none" stroke="#191970" d="M460.4442,-878.0542C477.8752,-866.8188 499.4439,-850.0119 512,-829.5 552.3214,-763.6302 493.802,-714.5201 548,-659.5 557.8072,-649.544 571.6703,-644.3378 585.2884,-641.7355"/>
<polygon fill="#191970" stroke="#191970" points="458.442,-875.1771 451.7756,-883.4118 462.1222,-881.1316 458.442,-875.1771"/>
</g>
<!-- Node32 -->
<g id="node32" class="node">
<title>Node32</title>
<g id="a_node32"><a xlink:href="../../d5/d60/analysis_2blob_2master_2HF-Jet_2TruthGeneration_2macros_2Fun4All__G4__sPHENIX_8C.html#a9a881c27e3822a95643d09c2fd73009e" target="_top" xlink:title="Fun4All_G4_sPHENIX">
<polygon fill="none" stroke="#000000" points="571,-591.5 571,-611.5 692,-611.5 692,-591.5 571,-591.5"/>
<text text-anchor="middle" x="631.5" y="-598.5" font-family="FreeSans" font-size="10.00" fill="#000000">Fun4All_G4_sPHENIX</text>
</a>
</g>
</g>
<!-- Node3&#45;&gt;Node32 -->
<g id="edge31" class="edge">
<title>Node3&#45;&gt;Node32</title>
<path fill="none" stroke="#191970" d="M461.0316,-877.9987C478.5125,-866.8291 499.913,-850.1177 512,-829.5 559.6697,-748.1861 483.1453,-688.8974 548,-620.5 554.24,-613.9191 562.2472,-609.3957 570.8251,-606.3228"/>
<polygon fill="#191970" stroke="#191970" points="459.0239,-875.1238 452.3175,-883.3259 462.6751,-881.0962 459.0239,-875.1238"/>
</g>
<!-- Node33 -->
<g id="node33" class="node">
<title>Node33</title>
<g id="a_node33"><a xlink:href="../../d7/d28/AntiTrigger_2macros_2Fun4All__testingGround_8C.html#aac206d8e095db7da9ea7dda3496d4e8d" target="_top" xlink:title="Fun4All_testingGround">
<polygon fill="none" stroke="#000000" points="566,-552.5 566,-572.5 697,-572.5 697,-552.5 566,-552.5"/>
<text text-anchor="middle" x="631.5" y="-559.5" font-family="FreeSans" font-size="10.00" fill="#000000">Fun4All_testingGround</text>
</a>
</g>
</g>
<!-- Node3&#45;&gt;Node33 -->
<g id="edge32" class="edge">
<title>Node3&#45;&gt;Node33</title>
<path fill="none" stroke="#191970" d="M461.2136,-878.1038C478.7702,-866.9778 500.1864,-850.2756 512,-829.5 567.0542,-732.6807 472.4395,-663.3263 548,-581.5 552.9422,-576.148 559.0516,-572.1487 565.7003,-569.1804"/>
<polygon fill="#191970" stroke="#191970" points="459.1977,-875.2328 452.4558,-883.4057 462.8229,-881.2209 459.1977,-875.2328"/>
</g>
<!-- Node34 -->
<g id="node34" class="node">
<title>Node34</title>
<g id="a_node34"><a xlink:href="../../d8/db2/Fun4All__KFParticle__advanced_8C.html#a491c6a8ad8c4fccf0642c04171d5f856" target="_top" xlink:title="Fun4All_KFParticle\l_advanced">
<polygon fill="none" stroke="#000000" points="577.5,-501.5 577.5,-533.5 685.5,-533.5 685.5,-501.5 577.5,-501.5"/>
<text text-anchor="start" x="585.5" y="-520.5" font-family="FreeSans" font-size="10.00" fill="#000000">Fun4All_KFParticle</text>
<text text-anchor="middle" x="631.5" y="-508.5" font-family="FreeSans" font-size="10.00" fill="#000000">_advanced</text>
</a>
</g>
</g>
<!-- Node3&#45;&gt;Node34 -->
<g id="edge33" class="edge">
<title>Node3&#45;&gt;Node34</title>
<path fill="none" stroke="#191970" d="M461.3479,-878.1793C478.9603,-867.0847 500.3882,-850.389 512,-829.5 574.4599,-717.1381 464.953,-640.6306 548,-542.5 555.5272,-533.6057 566.0804,-527.8001 577.1585,-524.0299"/>
<polygon fill="#191970" stroke="#191970" points="459.3254,-875.3114 452.5578,-883.4631 462.9318,-881.3109 459.3254,-875.3114"/>
</g>
<!-- Node35 -->
<g id="node35" class="node">
<title>Node35</title>
<g id="a_node35"><a xlink:href="../../d0/d10/Fun4All__KFParticle__basic_8C.html#a612dfd96156bfb6ae2a57529bdd75ede" target="_top" xlink:title="Fun4All_KFParticle\l_basic">
<polygon fill="none" stroke="#000000" points="577.5,-450.5 577.5,-482.5 685.5,-482.5 685.5,-450.5 577.5,-450.5"/>
<text text-anchor="start" x="585.5" y="-469.5" font-family="FreeSans" font-size="10.00" fill="#000000">Fun4All_KFParticle</text>
<text text-anchor="middle" x="631.5" y="-457.5" font-family="FreeSans" font-size="10.00" fill="#000000">_basic</text>
</a>
</g>
</g>
<!-- Node3&#45;&gt;Node35 -->
<g id="edge34" class="edge">
<title>Node3&#45;&gt;Node35</title>
<path fill="none" stroke="#191970" d="M461.8119,-878.0415C479.4138,-866.9759 500.6555,-850.3645 512,-829.5 548.0819,-763.139 499.7441,-549.6123 548,-491.5 555.5405,-482.4194 566.2376,-476.5514 577.4679,-472.7814"/>
<polygon fill="#191970" stroke="#191970" points="459.7893,-875.1731 453.0108,-883.3157 463.3876,-881.1775 459.7893,-875.1731"/>
</g>
<!-- Node36 -->
<g id="node36" class="node">
<title>Node36</title>
<g id="a_node36"><a xlink:href="../../d2/d9d/Fun4All__KFParticle__condorJob_8C.html#ab799e8959b01c0e0aa6b3aa5b54708d9" target="_top" xlink:title="Fun4All_KFParticle\l_condorJob">
<polygon fill="none" stroke="#000000" points="577.5,-399.5 577.5,-431.5 685.5,-431.5 685.5,-399.5 577.5,-399.5"/>
<text text-anchor="start" x="585.5" y="-418.5" font-family="FreeSans" font-size="10.00" fill="#000000">Fun4All_KFParticle</text>
<text text-anchor="middle" x="631.5" y="-406.5" font-family="FreeSans" font-size="10.00" fill="#000000">_condorJob</text>
</a>
</g>
</g>
<!-- Node3&#45;&gt;Node36 -->
<g id="edge35" class="edge">
<title>Node3&#45;&gt;Node36</title>
<path fill="none" stroke="#191970" d="M461.9095,-878.0941C479.5509,-867.0498 500.8001,-850.4424 512,-829.5 552.9408,-752.9462 493.0023,-507.6706 548,-440.5 555.4775,-431.3675 566.1501,-425.4792 577.3766,-421.7061"/>
<polygon fill="#191970" stroke="#191970" points="459.8817,-875.2282 453.0854,-883.3559 463.4669,-881.2404 459.8817,-875.2282"/>
</g>
<!-- Node37 -->
<g id="node37" class="node">
<title>Node37</title>
<g id="a_node37"><a xlink:href="../../d8/de3/Fun4All__KFParticle__singleFile_8C.html#aaec2a97559fc6a6e6f3c2b846fdb7a60" target="_top" xlink:title="Fun4All_KFParticle\l_singleFile">
<polygon fill="none" stroke="#000000" points="577.5,-348.5 577.5,-380.5 685.5,-380.5 685.5,-348.5 577.5,-348.5"/>
<text text-anchor="start" x="585.5" y="-367.5" font-family="FreeSans" font-size="10.00" fill="#000000">Fun4All_KFParticle</text>
<text text-anchor="middle" x="631.5" y="-355.5" font-family="FreeSans" font-size="10.00" fill="#000000">_singleFile</text>
</a>
</g>
</g>
<!-- Node3&#45;&gt;Node37 -->
<g id="edge36" class="edge">
<title>Node3&#45;&gt;Node37</title>
<path fill="none" stroke="#191970" d="M461.9849,-878.1342C479.6568,-867.1061 500.9117,-850.5017 512,-829.5 557.8043,-742.7448 486.2544,-465.7363 548,-389.5 555.4288,-380.3278 566.0823,-374.4241 577.3059,-370.6485"/>
<polygon fill="#191970" stroke="#191970" points="459.9529,-875.2702 453.143,-883.3866 463.528,-881.2884 459.9529,-875.2702"/>
</g>
<!-- Node38 -->
<g id="node38" class="node">
<title>Node38</title>
<g id="a_node38"><a xlink:href="../../d3/df5/Fun4All__KFParticle__standardContainers_8C.html#a65aca8a9b0ccba979548bcf0b9f27941" target="_top" xlink:title="Fun4All_KFParticle\l_standardContainers">
<polygon fill="none" stroke="#000000" points="570.5,-297.5 570.5,-329.5 692.5,-329.5 692.5,-297.5 570.5,-297.5"/>
<text text-anchor="start" x="578.5" y="-316.5" font-family="FreeSans" font-size="10.00" fill="#000000">Fun4All_KFParticle</text>
<text text-anchor="middle" x="631.5" y="-304.5" font-family="FreeSans" font-size="10.00" fill="#000000">_standardContainers</text>
</a>
</g>
</g>
<!-- Node3&#45;&gt;Node38 -->
<g id="edge37" class="edge">
<title>Node3&#45;&gt;Node38</title>
<path fill="none" stroke="#191970" d="M462.0448,-878.1657C479.7411,-867.1504 501.0005,-850.5484 512,-829.5 562.6708,-732.5376 479.5024,-423.8072 548,-338.5 553.8741,-331.1844 561.8006,-325.9459 570.4408,-322.2076"/>
<polygon fill="#191970" stroke="#191970" points="460.0095,-875.3033 453.1888,-883.4106 463.5766,-881.3262 460.0095,-875.3033"/>
</g>
<!-- Node39 -->
<g id="node39" class="node">
<title>Node39</title>
<g id="a_node39"><a xlink:href="../../d1/db8/analysis_2blob_2master_2MvtxTelescope_2AnaMvtxPrototype1_2macro_2Fun4All__TestBeam_8C.html#a89e0e05f7fe09176341b2c656b4cec1b" target="_top" xlink:title="Fun4All_TestBeam">
<polygon fill="none" stroke="#000000" points="577.5,-258.5 577.5,-278.5 685.5,-278.5 685.5,-258.5 577.5,-258.5"/>
<text text-anchor="middle" x="631.5" y="-265.5" font-family="FreeSans" font-size="10.00" fill="#000000">Fun4All_TestBeam</text>
</a>
</g>
</g>
<!-- Node3&#45;&gt;Node39 -->
<g id="edge38" class="edge">
<title>Node3&#45;&gt;Node39</title>
<path fill="none" stroke="#191970" d="M462.0937,-878.1911C479.8097,-867.1861 501.0728,-850.586 512,-829.5 567.5396,-722.3262 469.6205,-379.3015 548,-287.5 555.5297,-278.6808 566.2227,-273.472 577.4523,-270.4922"/>
<polygon fill="#191970" stroke="#191970" points="460.0555,-875.33 453.2262,-883.4301 463.6162,-881.3567 460.0555,-875.33"/>
</g>
<!-- Node40 -->
<g id="node40" class="node">
<title>Node40</title>
<g id="a_node40"><a xlink:href="../../d5/d01/Fun4All__G4__LeadBrick_8C.html#a5fcd8843f8a815feb3b053eaabd60d41" target="_top" xlink:title="Fun4All_G4_LeadBrick">
<polygon fill="none" stroke="#000000" points="567.5,-219.5 567.5,-239.5 695.5,-239.5 695.5,-219.5 567.5,-219.5"/>
<text text-anchor="middle" x="631.5" y="-226.5" font-family="FreeSans" font-size="10.00" fill="#000000">Fun4All_G4_LeadBrick</text>
</a>
</g>
</g>
<!-- Node3&#45;&gt;Node40 -->
<g id="edge39" class="edge">
<title>Node3&#45;&gt;Node40</title>
<path fill="none" stroke="#191970" d="M462.1253,-878.2074C479.8542,-867.2091 501.1197,-850.6102 512,-829.5 571.2639,-714.5153 464.2232,-347.0653 548,-248.5 553.1993,-242.3829 559.9205,-238.001 567.2901,-234.8945"/>
<polygon fill="#191970" stroke="#191970" points="460.0852,-875.3472 453.2504,-883.4426 463.6418,-881.3764 460.0852,-875.3472"/>
</g>
<!-- Node41 -->
<g id="node41" class="node">
<title>Node41</title>
<g id="a_node41"><a xlink:href="../../d3/d51/Fun4All__G4__EICDetector__RICH_8C.html#a5739502b0a7a1ba782c01069f77e933f" target="_top" xlink:title="Fun4All_G4_EICDetector_RICH">
<polygon fill="none" stroke="#000000" points="548,-180.5 548,-200.5 715,-200.5 715,-180.5 548,-180.5"/>
<text text-anchor="middle" x="631.5" y="-187.5" font-family="FreeSans" font-size="10.00" fill="#000000">Fun4All_G4_EICDetector_RICH</text>
</a>
</g>
</g>
<!-- Node3&#45;&gt;Node41 -->
<g id="edge40" class="edge">
<title>Node3&#45;&gt;Node41</title>
<path fill="none" stroke="#191970" d="M462.153,-878.2217C479.8931,-867.2291 501.1607,-850.6313 512,-829.5 574.9889,-706.703 458.8248,-314.8305 548,-209.5 550.978,-205.9825 554.4591,-203.0383 558.278,-200.5801"/>
<polygon fill="#191970" stroke="#191970" points="460.1113,-875.3622 453.2715,-883.4535 463.6642,-881.3935 460.1113,-875.3622"/>
</g>
<!-- Node42 -->
<g id="node42" class="node">
<title>Node42</title>
<g id="a_node42"><a xlink:href="../../d9/d31/Fun4All__RICHReco_8C.html#a3b13aa3a348876cbf1acfc1563aabce5" target="_top" xlink:title="Fun4All_RICHReco">
<polygon fill="none" stroke="#000000" points="578,-141.5 578,-161.5 685,-161.5 685,-141.5 578,-141.5"/>
<text text-anchor="middle" x="631.5" y="-148.5" font-family="FreeSans" font-size="10.00" fill="#000000">Fun4All_RICHReco</text>
</a>
</g>
</g>
<!-- Node3&#45;&gt;Node42 -->
<g id="edge41" class="edge">
<title>Node3&#45;&gt;Node42</title>
<path fill="none" stroke="#191970" d="M462.1774,-878.2342C479.9274,-867.2466 501.1969,-850.6498 512,-829.5 545.3573,-764.1947 500.7128,-226.5483 548,-170.5 555.5737,-161.5231 566.4247,-156.2773 577.8091,-153.3146"/>
<polygon fill="#191970" stroke="#191970" points="460.1343,-875.3754 453.2902,-883.463 463.684,-881.4086 460.1343,-875.3754"/>
</g>
<!-- Node43 -->
<g id="node43" class="node">
<title>Node43</title>
<g id="a_node43"><a xlink:href="../../d0/da6/Fun4All__G4__fsPHENIX__pi0_8C.html#a023d91d47b678e5d7f1751834aa517c6" target="_top" xlink:title="Fun4All_G4_fsPHENIX_pi0">
<polygon fill="none" stroke="#000000" points="559,-102.5 559,-122.5 704,-122.5 704,-102.5 559,-102.5"/>
<text text-anchor="middle" x="631.5" y="-109.5" font-family="FreeSans" font-size="10.00" fill="#000000">Fun4All_G4_fsPHENIX_pi0</text>
</a>
</g>
</g>
<!-- Node3&#45;&gt;Node43 -->
<g id="edge42" class="edge">
<title>Node3&#45;&gt;Node43</title>
<path fill="none" stroke="#191970" d="M462.1992,-878.2453C479.958,-867.2622 501.2291,-850.6662 512,-829.5 547.2204,-760.2874 498.0128,-190.9318 548,-131.5 551.158,-127.7454 554.8893,-124.643 558.9937,-122.0871"/>
<polygon fill="#191970" stroke="#191970" points="460.1547,-875.3871 453.3068,-883.4715 463.7016,-881.422 460.1547,-875.3871"/>
</g>
<!-- Node44 -->
<g id="node44" class="node">
<title>Node44</title>
<g id="a_node44"><a xlink:href="../../da/dd0/Fun4All__G4__sPHENIX__photonjet_8C.html#a6f18519e216acc05399e562ea57ea77c" target="_top" xlink:title="Fun4All_G4_sPHENIX\l_photonjet">
<polygon fill="none" stroke="#000000" points="571,-51.5 571,-83.5 692,-83.5 692,-51.5 571,-51.5"/>
<text text-anchor="start" x="579" y="-70.5" font-family="FreeSans" font-size="10.00" fill="#000000">Fun4All_G4_sPHENIX</text>
<text text-anchor="middle" x="631.5" y="-58.5" font-family="FreeSans" font-size="10.00" fill="#000000">_photonjet</text>
</a>
</g>
</g>
<!-- Node3&#45;&gt;Node44 -->
<g id="edge43" class="edge">
<title>Node3&#45;&gt;Node44</title>
<path fill="none" stroke="#191970" d="M462.2186,-878.2551C479.9853,-867.2761 501.2579,-850.6809 512,-829.5 549.0837,-756.3796 497.4515,-157.0495 548,-92.5 553.8778,-84.9942 561.9195,-79.6686 570.7042,-75.9047"/>
<polygon fill="#191970" stroke="#191970" points="460.1729,-875.3975 453.3217,-883.4791 463.7173,-881.4339 460.1729,-875.3975"/>
</g>
<!-- Node45 -->
<g id="node45" class="node">
<title>Node45</title>
<g id="a_node45"><a xlink:href="../../da/d85/Fun4All__G4__sPHENIX__photons_8C.html#a02fbbd59878fe1299f58ed187e7214ba" target="_top" xlink:title="Fun4All_G4_sPHENIX\l_photons">
<polygon fill="none" stroke="#000000" points="571,-.5 571,-32.5 692,-32.5 692,-.5 571,-.5"/>
<text text-anchor="start" x="579" y="-19.5" font-family="FreeSans" font-size="10.00" fill="#000000">Fun4All_G4_sPHENIX</text>
<text text-anchor="middle" x="631.5" y="-7.5" font-family="FreeSans" font-size="10.00" fill="#000000">_photons</text>
</a>
</g>
</g>
<!-- Node3&#45;&gt;Node45 -->
<g id="edge44" class="edge">
<title>Node3&#45;&gt;Node45</title>
<path fill="none" stroke="#191970" d="M462.2412,-878.2666C480.017,-867.2922 501.2913,-850.6978 512,-829.5 551.5207,-751.269 494.0705,-110.5912 548,-41.5 553.8659,-33.9849 561.9016,-28.6546 570.684,-24.8889"/>
<polygon fill="#191970" stroke="#191970" points="460.1941,-875.4096 453.339,-883.4878 463.7355,-881.4477 460.1941,-875.4096"/>
</g>
<!-- Node48&#45;&gt;Node46 -->
<g id="edge48" class="edge">
<title>Node48&#45;&gt;Node46</title>
<path fill="none" stroke="#191970" d="M316.0005,-776.8419C331.4311,-780.3577 347.4777,-784.0139 362.5616,-787.4507"/>
<polygon fill="#191970" stroke="#191970" points="316.4933,-773.3645 305.9656,-774.5555 314.9381,-780.1896 316.4933,-773.3645"/>
</g>
<!-- Node50 -->
<g id="node50" class="node">
<title>Node50</title>
<g id="a_node50"><a xlink:href="../../d1/dec/classHcalRawTowerBuilder.html#a994bccbb0d39fa5e9d29d3b9c2ed42de" target="_top" xlink:title="HcalRawTowerBuilder\l::InitRun">
<polygon fill="none" stroke="#000000" points="370.5,-691.5 370.5,-723.5 495.5,-723.5 495.5,-691.5 370.5,-691.5"/>
<text text-anchor="start" x="378.5" y="-710.5" font-family="FreeSans" font-size="10.00" fill="#000000">HcalRawTowerBuilder</text>
<text text-anchor="middle" x="433" y="-698.5" font-family="FreeSans" font-size="10.00" fill="#000000">::InitRun</text>
</a>
</g>
</g>
<!-- Node49&#45;&gt;Node50 -->
<g id="edge50" class="edge">
<title>Node49&#45;&gt;Node50</title>
<path fill="none" stroke="#191970" d="M324.7193,-707.5C340.0688,-707.5 355.7284,-707.5 370.196,-707.5"/>
<polygon fill="#191970" stroke="#191970" points="324.6929,-704.0001 314.6928,-707.5 324.6928,-711.0001 324.6929,-704.0001"/>
</g>
</g>
</svg>
