<?xml version="1.0" encoding="UTF-8" standalone="no"?>
<!DOCTYPE svg PUBLIC "-//W3C//DTD SVG 1.1//EN"
 "http://www.w3.org/Graphics/SVG/1.1/DTD/svg11.dtd">
<!-- Generated by graphviz version 2.40.1 (20161225.0304)
 -->
<!-- Title: RawTowerv2 Pages: 1 -->
<svg width="228pt" height="284pt"
 viewBox="0.00 0.00 227.50 284.00" xmlns="http://www.w3.org/2000/svg" xmlns:xlink="http://www.w3.org/1999/xlink">
<g id="graph0" class="graph" transform="scale(1 1) rotate(0) translate(4 280)">
<title>RawTowerv2</title>
<!-- Node1 -->
<g id="node1" class="node">
<title>Node1</title>
<polygon fill="#bfbfbf" stroke="#000000" points="59,-.5 59,-20.5 138,-20.5 138,-.5 59,-.5"/>
<text text-anchor="middle" x="98.5" y="-7.5" font-family="FreeSans" font-size="10.00" fill="#000000">RawTowerv2</text>
</g>
<!-- Node2 -->
<g id="node2" class="node">
<title>Node2</title>
<g id="a_node2"><a xlink:href="../../db/d3c/classRawTowerv1.html" target="_top" xlink:title="RawTowerv1">
<polygon fill="none" stroke="#000000" points="0,-75.5 0,-95.5 79,-95.5 79,-75.5 0,-75.5"/>
<text text-anchor="middle" x="39.5" y="-82.5" font-family="FreeSans" font-size="10.00" fill="#000000">RawTowerv1</text>
</a>
</g>
</g>
<!-- Node2&#45;&gt;Node1 -->
<g id="edge1" class="edge">
<title>Node2&#45;&gt;Node1</title>
<path fill="none" stroke="#191970" d="M53.946,-67.1365C65.3689,-52.6159 80.9056,-32.8658 90.2905,-20.9358"/>
<polygon fill="#191970" stroke="#191970" points="50.889,-65.3616 47.457,-75.3852 56.3907,-69.6896 50.889,-65.3616"/>
</g>
<!-- Node3 -->
<g id="node3" class="node">
<title>Node3</title>
<g id="a_node3"><a xlink:href="../../d9/dd8/classRawTower.html" target="_top" xlink:title="RawTower">
<polygon fill="none" stroke="#000000" points="6,-139.5 6,-159.5 73,-159.5 73,-139.5 6,-139.5"/>
<text text-anchor="middle" x="39.5" y="-146.5" font-family="FreeSans" font-size="10.00" fill="#000000">RawTower</text>
</a>
</g>
</g>
<!-- Node3&#45;&gt;Node2 -->
<g id="edge2" class="edge">
<title>Node3&#45;&gt;Node2</title>
<path fill="none" stroke="#191970" d="M39.5,-129.0004C39.5,-117.8201 39.5,-104.4796 39.5,-95.5462"/>
<polygon fill="#191970" stroke="#191970" points="36.0001,-129.2173 39.5,-139.2173 43.0001,-129.2173 36.0001,-129.2173"/>
</g>
<!-- Node4 -->
<g id="node4" class="node">
<title>Node4</title>
<g id="a_node4"><a xlink:href="../../d9/d24/classPHObject.html" target="_top" xlink:title="PHObject">
<polygon fill="none" stroke="#000000" points="8,-197.5 8,-217.5 71,-217.5 71,-197.5 8,-197.5"/>
<text text-anchor="middle" x="39.5" y="-204.5" font-family="FreeSans" font-size="10.00" fill="#000000">PHObject</text>
</a>
</g>
</g>
<!-- Node4&#45;&gt;Node3 -->
<g id="edge3" class="edge">
<title>Node4&#45;&gt;Node3</title>
<path fill="none" stroke="#191970" d="M39.5,-187.3902C39.5,-178.1201 39.5,-167.5083 39.5,-159.8776"/>
<polygon fill="#191970" stroke="#191970" points="36.0001,-187.3971 39.5,-197.3972 43.0001,-187.3972 36.0001,-187.3971"/>
</g>
<!-- Node5 -->
<g id="node5" class="node">
<title>Node5</title>
<polygon fill="none" stroke="#bfbfbf" points="11,-255.5 11,-275.5 68,-275.5 68,-255.5 11,-255.5"/>
<text text-anchor="middle" x="39.5" y="-262.5" font-family="FreeSans" font-size="10.00" fill="#000000">TObject</text>
</g>
<!-- Node5&#45;&gt;Node4 -->
<g id="edge4" class="edge">
<title>Node5&#45;&gt;Node4</title>
<path fill="none" stroke="#191970" d="M39.5,-245.3902C39.5,-236.1201 39.5,-225.5083 39.5,-217.8776"/>
<polygon fill="#191970" stroke="#191970" points="36.0001,-245.3971 39.5,-255.3972 43.0001,-245.3972 36.0001,-245.3971"/>
</g>
<!-- Node6 -->
<g id="node6" class="node">
<title>Node6</title>
<polygon fill="none" stroke="#bfbfbf" points="97.5,-69.5 97.5,-101.5 219.5,-101.5 219.5,-69.5 97.5,-69.5"/>
<text text-anchor="start" x="105.5" y="-88.5" font-family="FreeSans" font-size="10.00" fill="#000000">std::map&lt; prop_id_t,</text>
<text text-anchor="middle" x="158.5" y="-76.5" font-family="FreeSans" font-size="10.00" fill="#000000"> double &gt;</text>
</g>
<!-- Node6&#45;&gt;Node1 -->
<g id="edge5" class="edge">
<title>Node6&#45;&gt;Node1</title>
<path fill="none" stroke="#9a32cd" stroke-dasharray="5,2" d="M138.9631,-61.0789C127.9471,-47.3089 114.7793,-30.8491 106.5257,-20.5322"/>
<polygon fill="#9a32cd" stroke="#9a32cd" points="136.5009,-63.6039 145.4809,-69.2261 141.967,-59.231 136.5009,-63.6039"/>
<text text-anchor="middle" x="157" y="-42" font-family="FreeSans" font-size="10.00" fill="#000000"> prop_map</text>
</g>
</g>
</svg>
