<?xml version="1.0" encoding="UTF-8" standalone="no"?>
<!DOCTYPE svg PUBLIC "-//W3C//DTD SVG 1.1//EN"
 "http://www.w3.org/Graphics/SVG/1.1/DTD/svg11.dtd">
<!-- Generated by graphviz version 2.40.1 (20161225.0304)
 -->
<!-- Title: pyspli Pages: 1 -->
<svg width="876pt" height="676pt"
 viewBox="0.00 0.00 876.00 675.50" xmlns="http://www.w3.org/2000/svg" xmlns:xlink="http://www.w3.org/1999/xlink">
<g id="graph0" class="graph" transform="scale(1 1) rotate(0) translate(4 671.5)">
<title>pyspli</title>
<!-- Node1 -->
<g id="node1" class="node">
<title>Node1</title>
<polygon fill="#bfbfbf" stroke="#000000" points="0,-504.5 0,-524.5 46,-524.5 46,-504.5 0,-504.5"/>
<text text-anchor="middle" x="23" y="-511.5" font-family="FreeSans" font-size="10.00" fill="#000000">pyspli</text>
</g>
<!-- Node2 -->
<g id="node2" class="node">
<title>Node2</title>
<g id="a_node2"><a xlink:href="../../d6/dcf/pythia6425mod_8f.html#a8a7efe2037220dc632000fb06895ebca" target="_top" xlink:title="pyerrm">
<polygon fill="none" stroke="#000000" points="257,-389.5 257,-409.5 309,-409.5 309,-389.5 257,-389.5"/>
<text text-anchor="middle" x="283" y="-396.5" font-family="FreeSans" font-size="10.00" fill="#000000">pyerrm</text>
</a>
</g>
</g>
<!-- Node1&#45;&gt;Node2 -->
<g id="edge1" class="edge">
<title>Node1&#45;&gt;Node2</title>
<path fill="none" stroke="#191970" d="M35.8674,-504.2705C59.8368,-485.7286 113.5675,-446.5436 165,-425.5 191.3835,-414.7052 223.0063,-408.0445 246.8719,-404.1707"/>
<polygon fill="#191970" stroke="#191970" points="247.5618,-407.6059 256.9152,-402.6297 246.5001,-400.6869 247.5618,-407.6059"/>
</g>
<!-- Node24 -->
<g id="node24" class="node">
<title>Node24</title>
<g id="a_node24"><a xlink:href="../../d6/dcf/pythia6425mod_8f.html#ac28b7ef95cee2881a46f71d3a88d05ac" target="_top" xlink:title="pyr">
<polygon fill="none" stroke="#000000" points="761,-600.5 761,-620.5 794,-620.5 794,-600.5 761,-600.5"/>
<text text-anchor="middle" x="777.5" y="-607.5" font-family="FreeSans" font-size="10.00" fill="#000000">pyr</text>
</a>
</g>
</g>
<!-- Node1&#45;&gt;Node24 -->
<g id="edge43" class="edge">
<title>Node1&#45;&gt;Node24</title>
<path fill="none" stroke="#191970" d="M27.8724,-524.5388C45.1725,-558.5771 107.2331,-667.5 193,-667.5 193,-667.5 193,-667.5 469,-667.5 575.2078,-667.5 698.6111,-634.4277 751.3903,-618.6667"/>
<polygon fill="#191970" stroke="#191970" points="752.4238,-622.0108 760.9784,-615.7603 750.3931,-615.3118 752.4238,-622.0108"/>
</g>
<!-- Node25 -->
<g id="node25" class="node">
<title>Node25</title>
<g id="a_node25"><a xlink:href="../../d6/dcf/pythia6425mod_8f.html#ab762550f3025c60b2731636ec9577946" target="_top" xlink:title="pykfdi">
<polygon fill="none" stroke="#000000" points="82,-504.5 82,-524.5 129,-524.5 129,-504.5 82,-504.5"/>
<text text-anchor="middle" x="105.5" y="-511.5" font-family="FreeSans" font-size="10.00" fill="#000000">pykfdi</text>
</a>
</g>
</g>
<!-- Node1&#45;&gt;Node25 -->
<g id="edge32" class="edge">
<title>Node1&#45;&gt;Node25</title>
<path fill="none" stroke="#191970" d="M46.4205,-514.5C54.2778,-514.5 63.2038,-514.5 71.6945,-514.5"/>
<polygon fill="#191970" stroke="#191970" points="71.7345,-518.0001 81.7344,-514.5 71.7344,-511.0001 71.7345,-518.0001"/>
</g>
<!-- Node3 -->
<g id="node3" class="node">
<title>Node3</title>
<g id="a_node3"><a xlink:href="../../d5/d89/classValueGen1.html#a072deb230ac8bf0f6742e0484e030c52" target="_top" xlink:title="ValueGen1::i2">
<polygon fill="none" stroke="#000000" points="425,-37.5 425,-57.5 513,-57.5 513,-37.5 425,-37.5"/>
<text text-anchor="middle" x="469" y="-44.5" font-family="FreeSans" font-size="10.00" fill="#000000">ValueGen1::i2</text>
</a>
</g>
</g>
<!-- Node2&#45;&gt;Node3 -->
<g id="edge2" class="edge">
<title>Node2&#45;&gt;Node3</title>
<path fill="none" stroke="#191970" d="M284.0858,-389.4107C289.4083,-344.9564 316.7301,-164.5401 424.2414,-64.467"/>
<polygon fill="#191970" stroke="#191970" points="426.6772,-66.9838 431.78,-57.6988 422.0007,-61.7751 426.6772,-66.9838"/>
</g>
<!-- Node4 -->
<g id="node4" class="node">
<title>Node4</title>
<g id="a_node4"><a xlink:href="../../d6/dcf/pythia6425mod_8f.html#acc54128638bbd93cf630e1576f91d443" target="_top" xlink:title="pylist">
<polygon fill="none" stroke="#000000" points="345,-232.5 345,-252.5 389,-252.5 389,-232.5 345,-232.5"/>
<text text-anchor="middle" x="367" y="-239.5" font-family="FreeSans" font-size="10.00" fill="#000000">pylist</text>
</a>
</g>
</g>
<!-- Node2&#45;&gt;Node4 -->
<g id="edge3" class="edge">
<title>Node2&#45;&gt;Node4</title>
<path fill="none" stroke="#191970" d="M288.5115,-389.1988C302.3379,-363.3565 338.6699,-295.4503 356.6365,-261.8699"/>
<polygon fill="#191970" stroke="#191970" points="359.9459,-263.1035 361.5774,-252.635 353.7738,-259.8012 359.9459,-263.1035"/>
</g>
<!-- Node13 -->
<g id="node13" class="node">
<title>Node13</title>
<g id="a_node13"><a xlink:href="../../d6/dcf/pythia6425mod_8f.html#a4140396b9ec9bafcebf4c7ebecb462e7" target="_top" xlink:title="pystop">
<polygon fill="none" stroke="#000000" points="575,-311.5 575,-331.5 625,-331.5 625,-311.5 575,-311.5"/>
<text text-anchor="middle" x="600" y="-318.5" font-family="FreeSans" font-size="10.00" fill="#000000">pystop</text>
</a>
</g>
</g>
<!-- Node2&#45;&gt;Node13 -->
<g id="edge31" class="edge">
<title>Node2&#45;&gt;Node13</title>
<path fill="none" stroke="#191970" d="M302.1455,-389.4645C328.8682,-375.947 379.2283,-352.2347 425,-340.5 472.3511,-328.3604 528.85,-323.9733 564.5796,-322.3902"/>
<polygon fill="#191970" stroke="#191970" points="565.1128,-325.8721 574.9682,-321.9834 564.8389,-318.8775 565.1128,-325.8721"/>
</g>
<!-- Node4&#45;&gt;Node3 -->
<g id="edge5" class="edge">
<title>Node4&#45;&gt;Node3</title>
<path fill="none" stroke="#191970" d="M369.4531,-232.3496C377.4887,-199.7285 403.7233,-98.2036 425,-72.5 427.9149,-68.9786 431.4626,-65.8558 435.2653,-63.1152"/>
<polygon fill="#191970" stroke="#191970" points="437.2466,-66.0039 443.8511,-57.7194 433.5219,-60.0771 437.2466,-66.0039"/>
</g>
<!-- Node5 -->
<g id="node5" class="node">
<title>Node5</title>
<g id="a_node5"><a xlink:href="../../d5/d89/classValueGen1.html#a9558bbb6f1b9bfcb2631b70b720742fc" target="_top" xlink:title="ValueGen1::i1">
<polygon fill="none" stroke="#000000" points="556,-.5 556,-20.5 644,-20.5 644,-.5 556,-.5"/>
<text text-anchor="middle" x="600" y="-7.5" font-family="FreeSans" font-size="10.00" fill="#000000">ValueGen1::i1</text>
</a>
</g>
</g>
<!-- Node4&#45;&gt;Node5 -->
<g id="edge4" class="edge">
<title>Node4&#45;&gt;Node5</title>
<path fill="none" stroke="#191970" d="M368.634,-232.4886C373.1604,-207.758 388.0548,-143.0671 425,-105.5 454.9965,-74.9986 477.8898,-90.9417 513,-66.5 531.8304,-53.3914 529.7814,-42.0326 549,-29.5 551.6068,-27.8 554.3871,-26.223 557.2531,-24.7654"/>
<polygon fill="#191970" stroke="#191970" points="558.9413,-27.8425 566.591,-20.5122 556.0397,-21.4722 558.9413,-27.8425"/>
</g>
<!-- Node6 -->
<g id="node6" class="node">
<title>Node6</title>
<g id="a_node6"><a xlink:href="../../d5/d89/classValueGen1.html#a0a32cfdf50e9bb9c84580912795b1e41" target="_top" xlink:title="ValueGen1::i3">
<polygon fill="none" stroke="#000000" points="425,-115.5 425,-135.5 513,-135.5 513,-115.5 425,-115.5"/>
<text text-anchor="middle" x="469" y="-122.5" font-family="FreeSans" font-size="10.00" fill="#000000">ValueGen1::i3</text>
</a>
</g>
</g>
<!-- Node4&#45;&gt;Node6 -->
<g id="edge6" class="edge">
<title>Node4&#45;&gt;Node6</title>
<path fill="none" stroke="#191970" d="M370.6786,-232.3522C378.1361,-213.0515 396.7625,-170.7327 425,-145.5 426.9162,-143.7877 429.0036,-142.1989 431.1938,-140.7285"/>
<polygon fill="#191970" stroke="#191970" points="433.101,-143.6688 440.0065,-135.6336 429.5974,-137.6087 433.101,-143.6688"/>
</g>
<!-- Node7 -->
<g id="node7" class="node">
<title>Node7</title>
<g id="a_node7"><a xlink:href="../../d5/d89/classValueGen1.html#adac3584a4cd24abc0946b772431a39bb" target="_top" xlink:title="ValueGen1::i4">
<polygon fill="none" stroke="#000000" points="733.5,-272.5 733.5,-292.5 821.5,-292.5 821.5,-272.5 733.5,-272.5"/>
<text text-anchor="middle" x="777.5" y="-279.5" font-family="FreeSans" font-size="10.00" fill="#000000">ValueGen1::i4</text>
</a>
</g>
</g>
<!-- Node4&#45;&gt;Node7 -->
<g id="edge7" class="edge">
<title>Node4&#45;&gt;Node7</title>
<path fill="none" stroke="#191970" d="M389.0703,-244.6506C451.6883,-250.7522 631.8265,-268.3053 723.1011,-277.1993"/>
<polygon fill="#191970" stroke="#191970" points="722.9541,-280.7014 733.2464,-278.1878 723.633,-273.7344 722.9541,-280.7014"/>
</g>
<!-- Node8 -->
<g id="node8" class="node">
<title>Node8</title>
<g id="a_node8"><a xlink:href="../../d5/d89/classValueGen1.html#a4d833b840495a0aee4e37d3c6bce1650" target="_top" xlink:title="ValueGen1::i5">
<polygon fill="none" stroke="#000000" points="425,-388.5 425,-408.5 513,-408.5 513,-388.5 425,-388.5"/>
<text text-anchor="middle" x="469" y="-395.5" font-family="FreeSans" font-size="10.00" fill="#000000">ValueGen1::i5</text>
</a>
</g>
</g>
<!-- Node4&#45;&gt;Node8 -->
<g id="edge8" class="edge">
<title>Node4&#45;&gt;Node8</title>
<path fill="none" stroke="#191970" d="M368.6118,-252.5332C373.0878,-277.3138 387.8761,-342.1096 425,-379.5 426.2091,-380.7178 427.5091,-381.8627 428.8773,-382.9386"/>
<polygon fill="#191970" stroke="#191970" points="427.0026,-385.8943 437.3037,-388.372 430.7961,-380.0113 427.0026,-385.8943"/>
</g>
<!-- Node9 -->
<g id="node9" class="node">
<title>Node9</title>
<g id="a_node9"><a xlink:href="../../da/d72/structActs_1_1detail_1_1PhiBoundParameterLimits.html#a04ea1c8ef7fa6ef9596ffec9da84eae1" target="_top" xlink:title="Acts::detail::PhiBoundParameter\lLimits::max">
<polygon fill="none" stroke="#000000" points="687,-440.5 687,-472.5 868,-472.5 868,-440.5 687,-440.5"/>
<text text-anchor="start" x="695" y="-459.5" font-family="FreeSans" font-size="10.00" fill="#000000">Acts::detail::PhiBoundParameter</text>
<text text-anchor="middle" x="777.5" y="-447.5" font-family="FreeSans" font-size="10.00" fill="#000000">Limits::max</text>
</a>
</g>
</g>
<!-- Node4&#45;&gt;Node9 -->
<g id="edge9" class="edge">
<title>Node4&#45;&gt;Node9</title>
<path fill="none" stroke="#191970" d="M368.9171,-252.9239C375.476,-287.3955 398.1061,-396.7554 425,-418.5 462.5424,-448.8543 586.4346,-456.2767 676.7546,-457.4735"/>
<polygon fill="#191970" stroke="#191970" points="676.7267,-460.9733 686.7644,-457.5827 676.8032,-453.9737 676.7267,-460.9733"/>
</g>
<!-- Node10 -->
<g id="node10" class="node">
<title>Node10</title>
<g id="a_node10"><a xlink:href="../../dc/d9f/hcalUtil_8C.html#af562b1ac3ac927ecde202ce0501a97a6" target="_top" xlink:title="ps">
<polygon fill="none" stroke="#000000" points="454.5,-154.5 454.5,-174.5 483.5,-174.5 483.5,-154.5 454.5,-154.5"/>
<text text-anchor="middle" x="469" y="-161.5" font-family="FreeSans" font-size="10.00" fill="#000000">ps</text>
</a>
</g>
</g>
<!-- Node4&#45;&gt;Node10 -->
<g id="edge10" class="edge">
<title>Node4&#45;&gt;Node10</title>
<path fill="none" stroke="#191970" d="M375.1333,-232.3704C385.6064,-219.8377 404.8683,-198.4513 425,-184.5 431.1166,-180.2612 438.2759,-176.559 445.0215,-173.5303"/>
<polygon fill="#191970" stroke="#191970" points="446.5641,-176.679 454.4387,-169.5908 443.8626,-170.2212 446.5641,-176.679"/>
</g>
<!-- Node12 -->
<g id="node12" class="node">
<title>Node12</title>
<g id="a_node12"><a xlink:href="../../d6/dcf/pythia6425mod_8f.html#a56718d08dbb42b3b978fc9b5bd6970e6" target="_top" xlink:title="pylogo">
<polygon fill="none" stroke="#000000" points="444,-349.5 444,-369.5 494,-369.5 494,-349.5 444,-349.5"/>
<text text-anchor="middle" x="469" y="-356.5" font-family="FreeSans" font-size="10.00" fill="#000000">pylogo</text>
</a>
</g>
</g>
<!-- Node4&#45;&gt;Node12 -->
<g id="edge12" class="edge">
<title>Node4&#45;&gt;Node12</title>
<path fill="none" stroke="#191970" d="M376.0518,-252.883C393.486,-272.881 431.9043,-316.949 453.4927,-341.7122"/>
<polygon fill="#191970" stroke="#191970" points="450.9045,-344.0696 460.1141,-349.3074 456.1809,-339.4696 450.9045,-344.0696"/>
</g>
<!-- Node16 -->
<g id="node16" class="node">
<title>Node16</title>
<g id="a_node16"><a xlink:href="../../d6/dcf/pythia6425mod_8f.html#ab0dbe916b7d36854c02faf180f41d585" target="_top" xlink:title="pyname">
<polygon fill="none" stroke="#000000" points="440.5,-271.5 440.5,-291.5 497.5,-291.5 497.5,-271.5 440.5,-271.5"/>
<text text-anchor="middle" x="469" y="-278.5" font-family="FreeSans" font-size="10.00" fill="#000000">pyname</text>
</a>
</g>
</g>
<!-- Node4&#45;&gt;Node16 -->
<g id="edge18" class="edge">
<title>Node4&#45;&gt;Node16</title>
<path fill="none" stroke="#191970" d="M389.1325,-250.9624C401.8909,-255.8406 418.2431,-262.0929 432.8247,-267.6683"/>
<polygon fill="#191970" stroke="#191970" points="431.9802,-271.0925 442.5708,-271.3947 434.4803,-264.5541 431.9802,-271.0925"/>
</g>
<!-- Node17 -->
<g id="node17" class="node">
<title>Node17</title>
<g id="a_node17"><a xlink:href="../../d6/dcf/pythia6425mod_8f.html#a6cee1eea51c820d9e90932c9eca205b7" target="_top" xlink:title="pyp">
<polygon fill="none" stroke="#000000" points="451.5,-193.5 451.5,-213.5 486.5,-213.5 486.5,-193.5 451.5,-193.5"/>
<text text-anchor="middle" x="469" y="-200.5" font-family="FreeSans" font-size="10.00" fill="#000000">pyp</text>
</a>
</g>
</g>
<!-- Node4&#45;&gt;Node17 -->
<g id="edge19" class="edge">
<title>Node4&#45;&gt;Node17</title>
<path fill="none" stroke="#191970" d="M389.1325,-234.0376C404.5623,-228.138 425.2485,-220.2285 441.702,-213.9375"/>
<polygon fill="#191970" stroke="#191970" points="443.2243,-217.1026 451.3149,-210.262 440.7243,-210.5642 443.2243,-217.1026"/>
</g>
<!-- Node11 -->
<g id="node11" class="node">
<title>Node11</title>
<g id="a_node11"><a xlink:href="../../da/d55/TPCRateLayered_8m.html#a7507ef556477c204b499f1e189d40796" target="_top" xlink:title="sum">
<polygon fill="none" stroke="#000000" points="581,-39.5 581,-59.5 619,-59.5 619,-39.5 581,-39.5"/>
<text text-anchor="middle" x="600" y="-46.5" font-family="FreeSans" font-size="10.00" fill="#000000">sum</text>
</a>
</g>
</g>
<!-- Node10&#45;&gt;Node11 -->
<g id="edge11" class="edge">
<title>Node10&#45;&gt;Node11</title>
<path fill="none" stroke="#191970" d="M483.5879,-161.0851C492.9699,-158.2516 504.8803,-153.382 513,-145.5 540.1067,-119.1868 521.231,-94.1134 549,-68.5 555.1531,-62.8245 563.1554,-58.8017 570.99,-55.9675"/>
<polygon fill="#191970" stroke="#191970" points="572.15,-59.2724 580.6724,-52.9781 570.0849,-52.584 572.15,-59.2724"/>
</g>
<!-- Node12&#45;&gt;Node9 -->
<g id="edge13" class="edge">
<title>Node12&#45;&gt;Node9</title>
<path fill="none" stroke="#191970" d="M494.2458,-367.4379C542.457,-382.5967 648.8543,-416.0506 716.648,-437.3666"/>
<polygon fill="#191970" stroke="#191970" points="715.7693,-440.7592 726.3587,-440.4199 717.869,-434.0815 715.7693,-440.7592"/>
</g>
<!-- Node12&#45;&gt;Node13 -->
<g id="edge14" class="edge">
<title>Node12&#45;&gt;Node13</title>
<path fill="none" stroke="#191970" d="M494.2581,-352.1732C514.3744,-346.338 542.7586,-338.1044 565.0551,-331.6367"/>
<polygon fill="#191970" stroke="#191970" points="566.1904,-334.9517 574.8194,-328.8043 564.2402,-328.2288 566.1904,-334.9517"/>
</g>
<!-- Node15 -->
<g id="node15" class="node">
<title>Node15</title>
<g id="a_node15"><a xlink:href="../../d6/dcf/pythia6425mod_8f.html#a523e4acf745637220400daf831c34a23" target="_top" xlink:title="pytime">
<polygon fill="none" stroke="#000000" points="574.5,-350.5 574.5,-370.5 625.5,-370.5 625.5,-350.5 574.5,-350.5"/>
<text text-anchor="middle" x="600" y="-357.5" font-family="FreeSans" font-size="10.00" fill="#000000">pytime</text>
</a>
</g>
</g>
<!-- Node12&#45;&gt;Node15 -->
<g id="edge17" class="edge">
<title>Node12&#45;&gt;Node15</title>
<path fill="none" stroke="#191970" d="M494.2581,-359.6928C514.1554,-359.8447 542.1416,-360.0583 564.3248,-360.2277"/>
<polygon fill="#191970" stroke="#191970" points="564.346,-363.7278 574.3724,-360.3044 564.3995,-356.728 564.346,-363.7278"/>
</g>
<!-- Node13&#45;&gt;Node7 -->
<g id="edge15" class="edge">
<title>Node13&#45;&gt;Node7</title>
<path fill="none" stroke="#191970" d="M625.0549,-315.995C650.5164,-310.4006 690.7606,-301.5582 723.5071,-294.3632"/>
<polygon fill="#191970" stroke="#191970" points="724.3885,-297.7531 733.4044,-292.1886 722.8863,-290.9162 724.3885,-297.7531"/>
</g>
<!-- Node14 -->
<g id="node14" class="node">
<title>Node14</title>
<g id="a_node14"><a xlink:href="../../d4/da6/classActs_1_1ExaTrkXTimer.html#a00d2cecc70cefbf45e374fb27c11632d" target="_top" xlink:title="Acts::ExaTrkXTimer\l::stop">
<polygon fill="none" stroke="#000000" points="720,-311.5 720,-343.5 835,-343.5 835,-311.5 720,-311.5"/>
<text text-anchor="start" x="728" y="-330.5" font-family="FreeSans" font-size="10.00" fill="#000000">Acts::ExaTrkXTimer</text>
<text text-anchor="middle" x="777.5" y="-318.5" font-family="FreeSans" font-size="10.00" fill="#000000">::stop</text>
</a>
</g>
</g>
<!-- Node13&#45;&gt;Node14 -->
<g id="edge16" class="edge">
<title>Node13&#45;&gt;Node14</title>
<path fill="none" stroke="#191970" d="M625.0549,-322.3469C646.9388,-323.0867 679.7429,-324.1955 709.3211,-325.1954"/>
<polygon fill="#191970" stroke="#191970" points="709.5129,-328.7038 719.6255,-325.5437 709.7495,-321.7077 709.5129,-328.7038"/>
</g>
<!-- Node17&#45;&gt;Node5 -->
<g id="edge20" class="edge">
<title>Node17&#45;&gt;Node5</title>
<path fill="none" stroke="#191970" d="M486.7566,-199.8718C495.8574,-197.1252 506.3873,-192.4199 513,-184.5 558.3271,-130.2125 502.3032,-82.6139 549,-29.5 549.8949,-28.4822 550.8496,-27.5187 551.8546,-26.6068"/>
<polygon fill="#191970" stroke="#191970" points="554.2408,-29.2062 560.3868,-20.5761 550.2005,-23.49 554.2408,-29.2062"/>
</g>
<!-- Node17&#45;&gt;Node9 -->
<g id="edge23" class="edge">
<title>Node17&#45;&gt;Node9</title>
<path fill="none" stroke="#191970" d="M486.6816,-209.9454C521.2304,-223.1777 598.8695,-256.1132 651,-302.5 671.7272,-320.9435 669.8192,-331.7147 687,-353.5 709.122,-381.5509 736.4094,-412.1116 755.2029,-432.5989"/>
<polygon fill="#191970" stroke="#191970" points="752.8547,-435.2154 762.2061,-440.1956 758.0014,-430.4708 752.8547,-435.2154"/>
</g>
<!-- Node18 -->
<g id="node18" class="node">
<title>Node18</title>
<g id="a_node18"><a xlink:href="../../d4/d3e/classActs_1_1Logger.html#a2e009357e8b3be1d10f072a71074ba58" target="_top" xlink:title="log a debug message">
<polygon fill="none" stroke="#000000" points="549,-78.5 549,-98.5 651,-98.5 651,-78.5 549,-78.5"/>
<text text-anchor="middle" x="600" y="-85.5" font-family="FreeSans" font-size="10.00" fill="#000000">Acts::Logger::log</text>
</a>
</g>
</g>
<!-- Node17&#45;&gt;Node18 -->
<g id="edge21" class="edge">
<title>Node17&#45;&gt;Node18</title>
<path fill="none" stroke="#191970" d="M486.9006,-198.9013C495.6029,-195.9417 505.7255,-191.3394 513,-184.5 538.7765,-160.2652 523.8143,-138.3482 549,-113.5 552.9485,-109.6045 557.624,-106.2138 562.5165,-103.2943"/>
<polygon fill="#191970" stroke="#191970" points="564.2643,-106.329 571.4472,-98.5407 560.9752,-100.1498 564.2643,-106.329"/>
</g>
<!-- Node20 -->
<g id="node20" class="node">
<title>Node20</title>
<g id="a_node20"><a xlink:href="../../d6/dcf/pythia6425mod_8f.html#aa8c99978a55999fa0b1fd2a946d8553a" target="_top" xlink:title="pyangl">
<polygon fill="none" stroke="#000000" points="575,-156.5 575,-176.5 625,-176.5 625,-156.5 575,-156.5"/>
<text text-anchor="middle" x="600" y="-163.5" font-family="FreeSans" font-size="10.00" fill="#000000">pyangl</text>
</a>
</g>
</g>
<!-- Node17&#45;&gt;Node20 -->
<g id="edge24" class="edge">
<title>Node17&#45;&gt;Node20</title>
<path fill="none" stroke="#191970" d="M486.6672,-198.51C506.5549,-192.8929 539.3785,-183.6221 564.5965,-176.4995"/>
<polygon fill="#191970" stroke="#191970" points="565.8609,-179.7793 574.5331,-173.6929 563.9582,-173.0429 565.8609,-179.7793"/>
</g>
<!-- Node21 -->
<g id="node21" class="node">
<title>Node21</title>
<g id="a_node21"><a xlink:href="../../d2/d0c/hdo_8cpp.html#a8f3cba07aa75b7320ae8bd6c0aeac498" target="_top" xlink:title="sign">
<polygon fill="none" stroke="#000000" points="759,-136.5 759,-156.5 796,-156.5 796,-136.5 759,-136.5"/>
<text text-anchor="middle" x="777.5" y="-143.5" font-family="FreeSans" font-size="10.00" fill="#000000">sign</text>
</a>
</g>
</g>
<!-- Node17&#45;&gt;Node21 -->
<g id="edge30" class="edge">
<title>Node17&#45;&gt;Node21</title>
<path fill="none" stroke="#191970" d="M486.5249,-197.7457C494.9352,-194.5431 504.9152,-190.0711 513,-184.5 531.8927,-171.4813 527.8829,-156.4714 549,-147.5 615.9284,-119.0661 704.1638,-130.8388 748.8786,-139.8177"/>
<polygon fill="#191970" stroke="#191970" points="748.2533,-143.2627 758.7603,-141.9011 749.6975,-136.4133 748.2533,-143.2627"/>
</g>
<!-- Node22 -->
<g id="node22" class="node">
<title>Node22</title>
<g id="a_node22"><a xlink:href="../../d6/dcf/pythia6425mod_8f.html#a27f75936fde97780175fa2c990bc61cd" target="_top" xlink:title="pychge">
<polygon fill="none" stroke="#000000" points="573.5,-195.5 573.5,-215.5 626.5,-215.5 626.5,-195.5 573.5,-195.5"/>
<text text-anchor="middle" x="600" y="-202.5" font-family="FreeSans" font-size="10.00" fill="#000000">pychge</text>
</a>
</g>
</g>
<!-- Node17&#45;&gt;Node22 -->
<g id="edge26" class="edge">
<title>Node17&#45;&gt;Node22</title>
<path fill="none" stroke="#191970" d="M486.6672,-203.7697C506.0999,-204.0664 537.8832,-204.5517 562.8538,-204.9329"/>
<polygon fill="#191970" stroke="#191970" points="563.0302,-208.4359 573.0825,-205.089 563.1371,-201.4367 563.0302,-208.4359"/>
</g>
<!-- Node23 -->
<g id="node23" class="node">
<title>Node23</title>
<g id="a_node23"><a xlink:href="../../d6/dcf/pythia6425mod_8f.html#ad69903a1054f4f77d45fd8fe4c687aa9" target="_top" xlink:title="pymass">
<polygon fill="none" stroke="#000000" points="572.5,-542.5 572.5,-562.5 627.5,-562.5 627.5,-542.5 572.5,-542.5"/>
<text text-anchor="middle" x="600" y="-549.5" font-family="FreeSans" font-size="10.00" fill="#000000">pymass</text>
</a>
</g>
</g>
<!-- Node17&#45;&gt;Node23 -->
<g id="edge27" class="edge">
<title>Node17&#45;&gt;Node23</title>
<path fill="none" stroke="#191970" d="M478.3145,-213.6297C488.1732,-224.8313 503.582,-243.7799 513,-262.5 514.5841,-265.6488 574.6408,-467.2796 594.0305,-532.4343"/>
<polygon fill="#191970" stroke="#191970" points="590.7615,-533.7205 596.9681,-542.307 597.4708,-531.7241 590.7615,-533.7205"/>
</g>
<!-- Node19 -->
<g id="node19" class="node">
<title>Node19</title>
<g id="a_node19"><a xlink:href="../../d4/d3e/classActs_1_1Logger.html#a7014d28adf021f598d69b840aa77c486" target="_top" xlink:title="decide whether a message with a given debug level has to be printed">
<polygon fill="none" stroke="#000000" points="716,-78.5 716,-98.5 839,-98.5 839,-78.5 716,-78.5"/>
<text text-anchor="middle" x="777.5" y="-85.5" font-family="FreeSans" font-size="10.00" fill="#000000">Acts::Logger::doPrint</text>
</a>
</g>
</g>
<!-- Node18&#45;&gt;Node19 -->
<g id="edge22" class="edge">
<title>Node18&#45;&gt;Node19</title>
<path fill="none" stroke="#191970" d="M651.3404,-88.5C668.3591,-88.5 687.6243,-88.5 705.8837,-88.5"/>
<polygon fill="#191970" stroke="#191970" points="705.9037,-92.0001 715.9037,-88.5 705.9036,-85.0001 705.9037,-92.0001"/>
</g>
<!-- Node20&#45;&gt;Node21 -->
<g id="edge25" class="edge">
<title>Node20&#45;&gt;Node21</title>
<path fill="none" stroke="#191970" d="M625.0549,-163.6769C657.5637,-160.0139 714.1712,-153.6356 748.5028,-149.7673"/>
<polygon fill="#191970" stroke="#191970" points="749.2627,-153.2039 758.8079,-148.6062 748.4788,-146.2479 749.2627,-153.2039"/>
</g>
<!-- Node23&#45;&gt;Node9 -->
<g id="edge28" class="edge">
<title>Node23&#45;&gt;Node9</title>
<path fill="none" stroke="#191970" d="M621.2239,-542.4227C630.4346,-537.9654 641.3098,-532.5894 651,-527.5 681.5809,-511.4386 715.7047,-492.2072 740.7969,-477.813"/>
<polygon fill="#191970" stroke="#191970" points="742.6865,-480.7638 749.6094,-472.7436 739.1961,-474.6961 742.6865,-480.7638"/>
</g>
<!-- Node23&#45;&gt;Node24 -->
<g id="edge29" class="edge">
<title>Node23&#45;&gt;Node24</title>
<path fill="none" stroke="#191970" d="M627.7344,-561.5625C661.3434,-572.5446 717.5792,-590.9202 750.7425,-601.7567"/>
<polygon fill="#191970" stroke="#191970" points="750.0487,-605.212 760.6412,-604.9912 752.2229,-598.5583 750.0487,-605.212"/>
</g>
<!-- Node25&#45;&gt;Node2 -->
<g id="edge34" class="edge">
<title>Node25&#45;&gt;Node2</title>
<path fill="none" stroke="#191970" d="M115.3913,-504.3021C126.7081,-492.9782 146.1217,-474.5748 165,-461.5 192.376,-442.5398 226.259,-425.3053 250.6841,-413.847"/>
<polygon fill="#191970" stroke="#191970" points="252.2652,-416.9721 259.8736,-409.5989 249.3279,-410.6181 252.2652,-416.9721"/>
</g>
<!-- Node25&#45;&gt;Node9 -->
<g id="edge33" class="edge">
<title>Node25&#45;&gt;Node9</title>
<path fill="none" stroke="#191970" d="M129.252,-505.8446C162.9629,-494.3549 226.8391,-475.5 283,-475.5 283,-475.5 283,-475.5 469,-475.5 538.3677,-475.5 616.3435,-470.6552 676.5456,-465.8585"/>
<polygon fill="#191970" stroke="#191970" points="677.1255,-469.3231 686.8104,-465.0274 676.5605,-462.3459 677.1255,-469.3231"/>
</g>
<!-- Node25&#45;&gt;Node24 -->
<g id="edge42" class="edge">
<title>Node25&#45;&gt;Node24</title>
<path fill="none" stroke="#191970" d="M113.4919,-524.7055C136.5144,-552.8503 206.2587,-629.5 283,-629.5 283,-629.5 283,-629.5 469,-629.5 573.42,-629.5 697.3455,-618.5218 750.7891,-613.2551"/>
<polygon fill="#191970" stroke="#191970" points="751.1999,-616.7316 760.8018,-612.2534 750.503,-609.7664 751.1999,-616.7316"/>
</g>
<!-- Node26 -->
<g id="node26" class="node">
<title>Node26</title>
<g id="a_node26"><a xlink:href="../../d6/dcf/pythia6425mod_8f.html#a2839a1d21bd6048577c81f57f24a7e41" target="_top" xlink:title="pykfin">
<polygon fill="none" stroke="#000000" points="169.5,-504.5 169.5,-524.5 216.5,-524.5 216.5,-504.5 169.5,-504.5"/>
<text text-anchor="middle" x="193" y="-511.5" font-family="FreeSans" font-size="10.00" fill="#000000">pykfin</text>
</a>
</g>
</g>
<!-- Node25&#45;&gt;Node26 -->
<g id="edge35" class="edge">
<title>Node25&#45;&gt;Node26</title>
<path fill="none" stroke="#191970" d="M129.4098,-514.5C138.6482,-514.5 149.3841,-514.5 159.3747,-514.5"/>
<polygon fill="#191970" stroke="#191970" points="159.4221,-518.0001 169.4221,-514.5 159.4221,-511.0001 159.4221,-518.0001"/>
</g>
<!-- Node27 -->
<g id="node27" class="node">
<title>Node27</title>
<g id="a_node27"><a xlink:href="../../d6/dcf/pythia6425mod_8f.html#a489aaca35db439fe8d6a80cddc152851" target="_top" xlink:title="pynmes">
<polygon fill="none" stroke="#000000" points="165,-543.5 165,-563.5 221,-563.5 221,-543.5 165,-543.5"/>
<text text-anchor="middle" x="193" y="-550.5" font-family="FreeSans" font-size="10.00" fill="#000000">pynmes</text>
</a>
</g>
</g>
<!-- Node25&#45;&gt;Node27 -->
<g id="edge39" class="edge">
<title>Node25&#45;&gt;Node27</title>
<path fill="none" stroke="#191970" d="M128.0334,-524.5435C138.1377,-529.0471 150.2341,-534.4386 161.2351,-539.3419"/>
<polygon fill="#191970" stroke="#191970" points="159.9842,-542.6163 170.5429,-543.4906 162.834,-536.2226 159.9842,-542.6163"/>
</g>
<!-- Node26&#45;&gt;Node2 -->
<g id="edge37" class="edge">
<title>Node26&#45;&gt;Node2</title>
<path fill="none" stroke="#191970" d="M200.9869,-504.2945C216.2362,-484.8093 249.6803,-442.0751 268.8168,-417.623"/>
<polygon fill="#191970" stroke="#191970" points="271.7527,-419.5506 275.1595,-409.5184 266.2401,-415.2364 271.7527,-419.5506"/>
</g>
<!-- Node26&#45;&gt;Node9 -->
<g id="edge36" class="edge">
<title>Node26&#45;&gt;Node9</title>
<path fill="none" stroke="#191970" d="M216.6406,-514.2781C250.1109,-513.9835 313.2283,-513.5 367,-513.5 367,-513.5 367,-513.5 469,-513.5 554.9029,-513.5 652.0549,-491.8645 713.9889,-475.2524"/>
<polygon fill="#191970" stroke="#191970" points="715.2667,-478.5321 723.997,-472.5294 713.4289,-471.7776 715.2667,-478.5321"/>
</g>
<!-- Node26&#45;&gt;Node23 -->
<g id="edge38" class="edge">
<title>Node26&#45;&gt;Node23</title>
<path fill="none" stroke="#191970" d="M216.5838,-520.0401C228.6161,-522.6753 243.5211,-525.6475 257,-527.5 367.1541,-542.6389 498.5542,-548.9818 561.9983,-551.3147"/>
<polygon fill="#191970" stroke="#191970" points="562.192,-554.8237 572.3097,-551.6803 562.44,-547.8281 562.192,-554.8237"/>
</g>
<!-- Node27&#45;&gt;Node2 -->
<g id="edge40" class="edge">
<title>Node27&#45;&gt;Node2</title>
<path fill="none" stroke="#191970" d="M211.0744,-543.3756C214.6663,-540.805 218.1909,-537.8178 221,-534.5 250.7193,-499.3989 269.1191,-447.6924 277.5485,-419.5475"/>
<polygon fill="#191970" stroke="#191970" points="280.9863,-420.2564 280.3815,-409.6788 274.2581,-418.3249 280.9863,-420.2564"/>
</g>
<!-- Node27&#45;&gt;Node24 -->
<g id="edge41" class="edge">
<title>Node27&#45;&gt;Node24</title>
<path fill="none" stroke="#191970" d="M221.221,-563.5835C255.3027,-574.8412 314.59,-591.5 367,-591.5 367,-591.5 367,-591.5 469,-591.5 573.42,-591.5 697.3455,-602.4782 750.7891,-607.7449"/>
<polygon fill="#191970" stroke="#191970" points="750.503,-611.2336 760.8018,-608.7466 751.1999,-604.2684 750.503,-611.2336"/>
</g>
</g>
</svg>
