<?xml version="1.0" encoding="UTF-8" standalone="no"?>
<!DOCTYPE svg PUBLIC "-//W3C//DTD SVG 1.1//EN"
 "http://www.w3.org/Graphics/SVG/1.1/DTD/svg11.dtd">
<!-- Generated by graphviz version 2.40.1 (20161225.0304)
 -->
<!-- Title: pyrvg3 Pages: 1 -->
<svg width="1255pt" height="468pt"
 viewBox="0.00 0.00 1255.00 468.00" xmlns="http://www.w3.org/2000/svg" xmlns:xlink="http://www.w3.org/1999/xlink">
<g id="graph0" class="graph" transform="scale(1 1) rotate(0) translate(4 464)">
<title>pyrvg3</title>
<!-- Node1 -->
<g id="node1" class="node">
<title>Node1</title>
<polygon fill="#bfbfbf" stroke="#000000" points="0,-20.5 0,-40.5 51,-40.5 51,-20.5 0,-20.5"/>
<text text-anchor="middle" x="25.5" y="-27.5" font-family="FreeSans" font-size="10.00" fill="#000000">pyrvg3</text>
</g>
<!-- Node2 -->
<g id="node2" class="node">
<title>Node2</title>
<g id="a_node2"><a xlink:href="../../d6/dcf/pythia6425mod_8f.html#ad2bff8fc5a17d91922af88f41b6e22f3" target="_top" xlink:title="pygau2">
<polygon fill="none" stroke="#000000" points="174,-54.5 174,-74.5 228,-74.5 228,-54.5 174,-54.5"/>
<text text-anchor="middle" x="201" y="-61.5" font-family="FreeSans" font-size="10.00" fill="#000000">pygau2</text>
</a>
</g>
</g>
<!-- Node1&#45;&gt;Node2 -->
<g id="edge1" class="edge">
<title>Node1&#45;&gt;Node2</title>
<path fill="none" stroke="#191970" d="M51.2281,-40.0884C62.1297,-43.8303 75.0525,-47.8496 87,-50.5 112.2084,-56.0922 141.0828,-59.6091 163.4647,-61.7194"/>
<polygon fill="#191970" stroke="#191970" points="163.2988,-65.2183 173.5698,-62.6188 163.9195,-58.2459 163.2988,-65.2183"/>
</g>
<!-- Node28 -->
<g id="node28" class="node">
<title>Node28</title>
<g id="a_node28"><a xlink:href="../../d6/dcf/pythia6425mod_8f.html#a23fb42dd91c099fbcd5cd2001c74e98d" target="_top" xlink:title="pyrvg3">
<polygon fill="none" stroke="#000000" points="87,-20.5 87,-40.5 138,-40.5 138,-20.5 87,-20.5"/>
<text text-anchor="middle" x="112.5" y="-27.5" font-family="FreeSans" font-size="10.00" fill="#000000">pyrvg3</text>
</a>
</g>
</g>
<!-- Node1&#45;&gt;Node28 -->
<g id="edge33" class="edge">
<title>Node1&#45;&gt;Node28</title>
<path fill="none" stroke="#191970" d="M51.1323,-30.5C59.1144,-30.5 68.0679,-30.5 76.6164,-30.5"/>
<polygon fill="#191970" stroke="#191970" points="76.7503,-34.0001 86.7503,-30.5 76.7502,-27.0001 76.7503,-34.0001"/>
</g>
<!-- Node29 -->
<g id="node29" class="node">
<title>Node29</title>
<g id="a_node29"><a xlink:href="../../d6/dcf/pythia6425mod_8f.html#a4de5cb4846e35b7378ff15e9a97710c4" target="_top" xlink:title="pyrvg4">
<polygon fill="none" stroke="#000000" points="175.5,-.5 175.5,-20.5 226.5,-20.5 226.5,-.5 175.5,-.5"/>
<text text-anchor="middle" x="201" y="-7.5" font-family="FreeSans" font-size="10.00" fill="#000000">pyrvg4</text>
</a>
</g>
</g>
<!-- Node1&#45;&gt;Node29 -->
<g id="edge38" class="edge">
<title>Node1&#45;&gt;Node29</title>
<path fill="none" stroke="#191970" d="M50.4934,-20.3974C61.4942,-16.4704 74.6912,-12.4511 87,-10.5 112.9876,-6.3805 142.7283,-6.5397 165.3154,-7.6445"/>
<polygon fill="#191970" stroke="#191970" points="165.281,-11.1482 175.4653,-8.2274 165.6824,-4.1597 165.281,-11.1482"/>
</g>
<!-- Node3 -->
<g id="node3" class="node">
<title>Node3</title>
<g id="a_node3"><a xlink:href="../../d6/dcf/pythia6425mod_8f.html#a8a7efe2037220dc632000fb06895ebca" target="_top" xlink:title="pyerrm">
<polygon fill="none" stroke="#000000" points="269,-88.5 269,-108.5 321,-108.5 321,-88.5 269,-88.5"/>
<text text-anchor="middle" x="295" y="-95.5" font-family="FreeSans" font-size="10.00" fill="#000000">pyerrm</text>
</a>
</g>
</g>
<!-- Node2&#45;&gt;Node3 -->
<g id="edge2" class="edge">
<title>Node2&#45;&gt;Node3</title>
<path fill="none" stroke="#191970" d="M228.1887,-74.3342C237.886,-77.8417 248.9606,-81.8474 259.267,-85.5753"/>
<polygon fill="#191970" stroke="#191970" points="258.2488,-88.9289 268.8431,-89.039 260.6298,-82.3462 258.2488,-88.9289"/>
</g>
<!-- Node27 -->
<g id="node27" class="node">
<title>Node27</title>
<g id="a_node27"><a xlink:href="../../d1/d5e/classsHelix.html#a44ff83bf3956f25a18308cc3c7fc1873" target="_top" xlink:title="sHelix::w">
<polygon fill="none" stroke="#000000" points="264,-49.5 264,-69.5 326,-69.5 326,-49.5 264,-49.5"/>
<text text-anchor="middle" x="295" y="-56.5" font-family="FreeSans" font-size="10.00" fill="#000000">sHelix::w</text>
</a>
</g>
</g>
<!-- Node2&#45;&gt;Node27 -->
<g id="edge32" class="edge">
<title>Node2&#45;&gt;Node27</title>
<path fill="none" stroke="#191970" d="M228.1887,-63.0538C236.217,-62.6268 245.1892,-62.1495 253.8881,-61.6868"/>
<polygon fill="#191970" stroke="#191970" points="254.1013,-65.1805 263.9013,-61.1542 253.7295,-58.1904 254.1013,-65.1805"/>
</g>
<!-- Node4 -->
<g id="node4" class="node">
<title>Node4</title>
<g id="a_node4"><a xlink:href="../../d5/d89/classValueGen1.html#a072deb230ac8bf0f6742e0484e030c52" target="_top" xlink:title="ValueGen1::i2">
<polygon fill="none" stroke="#000000" points="442,-88.5 442,-108.5 530,-108.5 530,-88.5 442,-88.5"/>
<text text-anchor="middle" x="486" y="-95.5" font-family="FreeSans" font-size="10.00" fill="#000000">ValueGen1::i2</text>
</a>
</g>
</g>
<!-- Node3&#45;&gt;Node4 -->
<g id="edge3" class="edge">
<title>Node3&#45;&gt;Node4</title>
<path fill="none" stroke="#191970" d="M321.1573,-98.5C349.4259,-98.5 395.2818,-98.5 431.461,-98.5"/>
<polygon fill="#191970" stroke="#191970" points="431.8659,-102.0001 441.8659,-98.5 431.8659,-95.0001 431.8659,-102.0001"/>
</g>
<!-- Node5 -->
<g id="node5" class="node">
<title>Node5</title>
<g id="a_node5"><a xlink:href="../../d6/dcf/pythia6425mod_8f.html#acc54128638bbd93cf630e1576f91d443" target="_top" xlink:title="pylist">
<polygon fill="none" stroke="#000000" points="362,-224.5 362,-244.5 406,-244.5 406,-224.5 362,-224.5"/>
<text text-anchor="middle" x="384" y="-231.5" font-family="FreeSans" font-size="10.00" fill="#000000">pylist</text>
</a>
</g>
</g>
<!-- Node3&#45;&gt;Node5 -->
<g id="edge4" class="edge">
<title>Node3&#45;&gt;Node5</title>
<path fill="none" stroke="#191970" d="M301.6895,-108.7221C316.5724,-131.4646 352.6099,-186.5331 371.6843,-215.6805"/>
<polygon fill="#191970" stroke="#191970" points="368.8284,-217.7083 377.2329,-224.1593 374.6857,-213.8752 368.8284,-217.7083"/>
</g>
<!-- Node13 -->
<g id="node13" class="node">
<title>Node13</title>
<g id="a_node13"><a xlink:href="../../d6/dcf/pythia6425mod_8f.html#a4140396b9ec9bafcebf4c7ebecb462e7" target="_top" xlink:title="pystop">
<polygon fill="none" stroke="#000000" points="585,-127.5 585,-147.5 635,-147.5 635,-127.5 585,-127.5"/>
<text text-anchor="middle" x="610" y="-134.5" font-family="FreeSans" font-size="10.00" fill="#000000">pystop</text>
</a>
</g>
</g>
<!-- Node3&#45;&gt;Node13 -->
<g id="edge31" class="edge">
<title>Node3&#45;&gt;Node13</title>
<path fill="none" stroke="#191970" d="M321.1454,-89.9563C365.3595,-76.9075 457.192,-55.8839 530,-79.5 554.5077,-87.4494 577.7941,-106.0339 592.857,-120.039"/>
<polygon fill="#191970" stroke="#191970" points="590.7075,-122.8285 600.3349,-127.2518 595.5672,-117.7903 590.7075,-122.8285"/>
</g>
<!-- Node5&#45;&gt;Node4 -->
<g id="edge6" class="edge">
<title>Node5&#45;&gt;Node4</title>
<path fill="none" stroke="#191970" d="M386.5472,-224.4327C392.5851,-202.4399 409.7358,-149.5913 442,-118.5 443.6691,-116.8915 445.4904,-115.3973 447.4115,-114.0114"/>
<polygon fill="#191970" stroke="#191970" points="449.5784,-116.7905 456.3117,-108.6104 445.9469,-110.8062 449.5784,-116.7905"/>
</g>
<!-- Node6 -->
<g id="node6" class="node">
<title>Node6</title>
<g id="a_node6"><a xlink:href="../../d5/d89/classValueGen1.html#a9558bbb6f1b9bfcb2631b70b720742fc" target="_top" xlink:title="ValueGen1::i1">
<polygon fill="none" stroke="#000000" points="566,-400.5 566,-420.5 654,-420.5 654,-400.5 566,-400.5"/>
<text text-anchor="middle" x="610" y="-407.5" font-family="FreeSans" font-size="10.00" fill="#000000">ValueGen1::i1</text>
</a>
</g>
</g>
<!-- Node5&#45;&gt;Node6 -->
<g id="edge5" class="edge">
<title>Node5&#45;&gt;Node6</title>
<path fill="none" stroke="#191970" d="M389.1065,-244.541C397.8956,-260.9497 417.3388,-293.666 442,-313.5 475.3361,-340.311 495.214,-327.599 530,-352.5 549.1812,-366.2305 546.7536,-377.8611 566,-391.5 568.0791,-392.9733 570.2904,-394.3661 572.5726,-395.6764"/>
<polygon fill="#191970" stroke="#191970" points="571.1028,-398.8562 581.5963,-400.3181 574.3048,-392.6315 571.1028,-398.8562"/>
</g>
<!-- Node7 -->
<g id="node7" class="node">
<title>Node7</title>
<g id="a_node7"><a xlink:href="../../d5/d89/classValueGen1.html#a0a32cfdf50e9bb9c84580912795b1e41" target="_top" xlink:title="ValueGen1::i3">
<polygon fill="none" stroke="#000000" points="442,-205.5 442,-225.5 530,-225.5 530,-205.5 442,-205.5"/>
<text text-anchor="middle" x="486" y="-212.5" font-family="FreeSans" font-size="10.00" fill="#000000">ValueGen1::i3</text>
</a>
</g>
</g>
<!-- Node5&#45;&gt;Node7 -->
<g id="edge7" class="edge">
<title>Node5&#45;&gt;Node7</title>
<path fill="none" stroke="#191970" d="M406.1325,-230.3773C413.7915,-228.9506 422.7457,-227.2827 431.8345,-225.5896"/>
<polygon fill="#191970" stroke="#191970" points="432.5048,-229.0251 441.6947,-223.7529 431.2229,-222.1435 432.5048,-229.0251"/>
</g>
<!-- Node8 -->
<g id="node8" class="node">
<title>Node8</title>
<g id="a_node8"><a xlink:href="../../d5/d89/classValueGen1.html#adac3584a4cd24abc0946b772431a39bb" target="_top" xlink:title="ValueGen1::i4">
<polygon fill="none" stroke="#000000" points="690,-195.5 690,-215.5 778,-215.5 778,-195.5 690,-195.5"/>
<text text-anchor="middle" x="734" y="-202.5" font-family="FreeSans" font-size="10.00" fill="#000000">ValueGen1::i4</text>
</a>
</g>
</g>
<!-- Node5&#45;&gt;Node8 -->
<g id="edge8" class="edge">
<title>Node5&#45;&gt;Node8</title>
<path fill="none" stroke="#191970" d="M406.0321,-234.9692C416.8655,-235.1771 430.1167,-235.3976 442,-235.5 481.1097,-235.8371 490.9931,-238.3528 530,-235.5 581.0151,-231.769 638.6366,-222.8565 679.5957,-215.7092"/>
<polygon fill="#191970" stroke="#191970" points="680.3978,-219.1218 689.6359,-213.9344 679.1793,-212.2286 680.3978,-219.1218"/>
</g>
<!-- Node9 -->
<g id="node9" class="node">
<title>Node9</title>
<g id="a_node9"><a xlink:href="../../d5/d89/classValueGen1.html#a4d833b840495a0aee4e37d3c6bce1650" target="_top" xlink:title="ValueGen1::i5">
<polygon fill="none" stroke="#000000" points="442,-361.5 442,-381.5 530,-381.5 530,-361.5 442,-361.5"/>
<text text-anchor="middle" x="486" y="-368.5" font-family="FreeSans" font-size="10.00" fill="#000000">ValueGen1::i5</text>
</a>
</g>
</g>
<!-- Node5&#45;&gt;Node9 -->
<g id="edge9" class="edge">
<title>Node5&#45;&gt;Node9</title>
<path fill="none" stroke="#191970" d="M387.057,-244.6508C393.8697,-265.8457 412.0959,-315.4105 442,-346.5 445.3993,-350.0341 449.4078,-353.2155 453.5983,-356.03"/>
<polygon fill="#191970" stroke="#191970" points="451.9474,-359.1215 462.3185,-361.2873 455.5616,-353.1267 451.9474,-359.1215"/>
</g>
<!-- Node10 -->
<g id="node10" class="node">
<title>Node10</title>
<g id="a_node10"><a xlink:href="../../dc/d9f/hcalUtil_8C.html#af562b1ac3ac927ecde202ce0501a97a6" target="_top" xlink:title="ps">
<polygon fill="none" stroke="#000000" points="471.5,-420.5 471.5,-440.5 500.5,-440.5 500.5,-420.5 471.5,-420.5"/>
<text text-anchor="middle" x="486" y="-427.5" font-family="FreeSans" font-size="10.00" fill="#000000">ps</text>
</a>
</g>
</g>
<!-- Node5&#45;&gt;Node10 -->
<g id="edge10" class="edge">
<title>Node5&#45;&gt;Node10</title>
<path fill="none" stroke="#191970" d="M385.9855,-244.8557C391.4117,-271.2314 408.3792,-342.3272 442,-391.5 447.7541,-399.9158 455.7156,-407.7011 463.2862,-414.0668"/>
<polygon fill="#191970" stroke="#191970" points="461.2194,-416.895 471.2248,-420.3799 465.5764,-411.4162 461.2194,-416.895"/>
</g>
<!-- Node12 -->
<g id="node12" class="node">
<title>Node12</title>
<g id="a_node12"><a xlink:href="../../d6/dcf/pythia6425mod_8f.html#a56718d08dbb42b3b978fc9b5bd6970e6" target="_top" xlink:title="pylogo">
<polygon fill="none" stroke="#000000" points="461,-166.5 461,-186.5 511,-186.5 511,-166.5 461,-166.5"/>
<text text-anchor="middle" x="486" y="-173.5" font-family="FreeSans" font-size="10.00" fill="#000000">pylogo</text>
</a>
</g>
</g>
<!-- Node5&#45;&gt;Node12 -->
<g id="edge12" class="edge">
<title>Node5&#45;&gt;Node12</title>
<path fill="none" stroke="#191970" d="M398.3953,-224.1769C409.9041,-216.1449 426.6039,-204.9773 442,-196.5 445.457,-194.5965 449.1288,-192.7174 452.8199,-190.918"/>
<polygon fill="#191970" stroke="#191970" points="454.361,-194.061 461.9232,-186.6406 451.3841,-187.7256 454.361,-194.061"/>
</g>
<!-- Node20 -->
<g id="node20" class="node">
<title>Node20</title>
<g id="a_node20"><a xlink:href="../../d6/dcf/pythia6425mod_8f.html#ab0dbe916b7d36854c02faf180f41d585" target="_top" xlink:title="pyname">
<polygon fill="none" stroke="#000000" points="457.5,-127.5 457.5,-147.5 514.5,-147.5 514.5,-127.5 457.5,-127.5"/>
<text text-anchor="middle" x="486" y="-134.5" font-family="FreeSans" font-size="10.00" fill="#000000">pyname</text>
</a>
</g>
</g>
<!-- Node5&#45;&gt;Node20 -->
<g id="edge22" class="edge">
<title>Node5&#45;&gt;Node20</title>
<path fill="none" stroke="#191970" d="M389.3356,-224.4868C398.3125,-208.4563 417.8457,-176.8703 442,-157.5 444.2707,-155.6791 446.7338,-153.9844 449.2956,-152.4152"/>
<polygon fill="#191970" stroke="#191970" points="451.1252,-155.4046 458.2491,-147.5624 447.7896,-149.2504 451.1252,-155.4046"/>
</g>
<!-- Node21 -->
<g id="node21" class="node">
<title>Node21</title>
<g id="a_node21"><a xlink:href="../../d6/dcf/pythia6425mod_8f.html#a6cee1eea51c820d9e90932c9eca205b7" target="_top" xlink:title="pyp">
<polygon fill="none" stroke="#000000" points="468.5,-283.5 468.5,-303.5 503.5,-303.5 503.5,-283.5 468.5,-283.5"/>
<text text-anchor="middle" x="486" y="-290.5" font-family="FreeSans" font-size="10.00" fill="#000000">pyp</text>
</a>
</g>
</g>
<!-- Node5&#45;&gt;Node21 -->
<g id="edge23" class="edge">
<title>Node5&#45;&gt;Node21</title>
<path fill="none" stroke="#191970" d="M400.9687,-244.5284C412.5136,-251.3313 428.1505,-260.5066 442,-268.5 447.6928,-271.7856 453.816,-275.286 459.6318,-278.5949"/>
<polygon fill="#191970" stroke="#191970" points="457.9876,-281.6861 468.4121,-283.5787 461.4431,-275.5984 457.9876,-281.6861"/>
</g>
<!-- Node11 -->
<g id="node11" class="node">
<title>Node11</title>
<g id="a_node11"><a xlink:href="../../da/d55/TPCRateLayered_8m.html#a7507ef556477c204b499f1e189d40796" target="_top" xlink:title="sum">
<polygon fill="none" stroke="#000000" points="591,-439.5 591,-459.5 629,-459.5 629,-439.5 591,-439.5"/>
<text text-anchor="middle" x="610" y="-446.5" font-family="FreeSans" font-size="10.00" fill="#000000">sum</text>
</a>
</g>
</g>
<!-- Node10&#45;&gt;Node11 -->
<g id="edge11" class="edge">
<title>Node10&#45;&gt;Node11</title>
<path fill="none" stroke="#191970" d="M500.7114,-432.7542C520.3582,-435.7646 555.6027,-441.1649 580.7563,-445.0191"/>
<polygon fill="#191970" stroke="#191970" points="580.429,-448.5097 590.8438,-446.5648 581.4893,-441.5905 580.429,-448.5097"/>
</g>
<!-- Node12&#45;&gt;Node13 -->
<g id="edge13" class="edge">
<title>Node12&#45;&gt;Node13</title>
<path fill="none" stroke="#191970" d="M511.0933,-168.6078C529.5814,-162.793 554.9535,-154.813 575.3709,-148.3914"/>
<polygon fill="#191970" stroke="#191970" points="576.4549,-151.7196 584.9441,-145.3805 574.3546,-145.0421 576.4549,-151.7196"/>
</g>
<!-- Node19 -->
<g id="node19" class="node">
<title>Node19</title>
<g id="a_node19"><a xlink:href="../../d6/dcf/pythia6425mod_8f.html#a523e4acf745637220400daf831c34a23" target="_top" xlink:title="pytime">
<polygon fill="none" stroke="#000000" points="584.5,-166.5 584.5,-186.5 635.5,-186.5 635.5,-166.5 584.5,-166.5"/>
<text text-anchor="middle" x="610" y="-173.5" font-family="FreeSans" font-size="10.00" fill="#000000">pytime</text>
</a>
</g>
</g>
<!-- Node12&#45;&gt;Node19 -->
<g id="edge21" class="edge">
<title>Node12&#45;&gt;Node19</title>
<path fill="none" stroke="#191970" d="M511.0933,-176.5C529.1722,-176.5 553.8339,-176.5 574.0083,-176.5"/>
<polygon fill="#191970" stroke="#191970" points="574.0905,-180.0001 584.0905,-176.5 574.0904,-173.0001 574.0905,-180.0001"/>
</g>
<!-- Node13&#45;&gt;Node8 -->
<g id="edge14" class="edge">
<title>Node13&#45;&gt;Node8</title>
<path fill="none" stroke="#191970" d="M633.5303,-147.5997C640.2202,-150.6311 647.4624,-154.0671 654,-157.5 673.1801,-167.5714 694.1558,-180.2214 709.8152,-190.0063"/>
<polygon fill="#191970" stroke="#191970" points="708.0409,-193.0251 718.3672,-195.3953 711.7728,-187.1028 708.0409,-193.0251"/>
</g>
<!-- Node14 -->
<g id="node14" class="node">
<title>Node14</title>
<g id="a_node14"><a xlink:href="../../d0/d5e/classPHTimer.html#adce6f9a85834e59bd154b9c624ee4e41" target="_top" xlink:title="stops the counter">
<polygon fill="none" stroke="#000000" points="690.5,-127.5 690.5,-147.5 777.5,-147.5 777.5,-127.5 690.5,-127.5"/>
<text text-anchor="middle" x="734" y="-134.5" font-family="FreeSans" font-size="10.00" fill="#000000">PHTimer::stop</text>
</a>
</g>
</g>
<!-- Node13&#45;&gt;Node14 -->
<g id="edge15" class="edge">
<title>Node13&#45;&gt;Node14</title>
<path fill="none" stroke="#191970" d="M635.0933,-137.5C648.0969,-137.5 664.506,-137.5 680.2014,-137.5"/>
<polygon fill="#191970" stroke="#191970" points="680.3695,-141.0001 690.3694,-137.5 680.3694,-134.0001 680.3695,-141.0001"/>
</g>
<!-- Node15 -->
<g id="node15" class="node">
<title>Node15</title>
<g id="a_node15"><a xlink:href="../../d0/d5e/classPHTimer.html#aa92e3fe4a0a1799f39743eda9ef9d497" target="_top" xlink:title="gets time from cpu clock counts">
<polygon fill="none" stroke="#000000" points="967.5,-141.5 967.5,-173.5 1080.5,-173.5 1080.5,-141.5 967.5,-141.5"/>
<text text-anchor="start" x="975.5" y="-160.5" font-family="FreeSans" font-size="10.00" fill="#000000">PHTimer::get_clock</text>
<text text-anchor="middle" x="1024" y="-148.5" font-family="FreeSans" font-size="10.00" fill="#000000">_counts</text>
</a>
</g>
</g>
<!-- Node14&#45;&gt;Node15 -->
<g id="edge16" class="edge">
<title>Node14&#45;&gt;Node15</title>
<path fill="none" stroke="#191970" d="M777.7299,-140.5159C825.3969,-143.8032 902.2276,-149.1019 957.4015,-152.907"/>
<polygon fill="#191970" stroke="#191970" points="957.2226,-156.4029 967.4398,-153.5993 957.7043,-149.4195 957.2226,-156.4029"/>
</g>
<!-- Node16 -->
<g id="node16" class="node">
<title>Node16</title>
<g id="a_node16"><a xlink:href="../../d0/d5e/classPHTimer.html#a976738876ad978116fdc4549a3765685" target="_top" xlink:title="retrieve elapsed value since last restart (in ms)">
<polygon fill="none" stroke="#000000" points="814,-108.5 814,-128.5 919,-128.5 919,-108.5 814,-108.5"/>
<text text-anchor="middle" x="866.5" y="-115.5" font-family="FreeSans" font-size="10.00" fill="#000000">PHTimer::elapsed</text>
</a>
</g>
</g>
<!-- Node14&#45;&gt;Node16 -->
<g id="edge17" class="edge">
<title>Node14&#45;&gt;Node16</title>
<path fill="none" stroke="#191970" d="M777.7527,-131.226C785.9879,-130.0451 794.7494,-128.7888 803.4376,-127.5429"/>
<polygon fill="#191970" stroke="#191970" points="804.1653,-130.9745 813.5672,-126.0904 803.1716,-124.0453 804.1653,-130.9745"/>
</g>
<!-- Node16&#45;&gt;Node15 -->
<g id="edge20" class="edge">
<title>Node16&#45;&gt;Node15</title>
<path fill="none" stroke="#191970" d="M907.0602,-128.5435C922.3746,-132.3356 940.2315,-136.7573 957.3129,-140.987"/>
<polygon fill="#191970" stroke="#191970" points="956.7073,-144.4427 967.2554,-143.449 958.3898,-137.6479 956.7073,-144.4427"/>
</g>
<!-- Node17 -->
<g id="node17" class="node">
<title>Node17</title>
<g id="a_node17"><a xlink:href="../../d0/d5e/classPHTimer.html#aa75ff2c27aba40e7ef0a934f9a3355c2" target="_top" xlink:title="returns difference between to time">
<polygon fill="none" stroke="#000000" points="955,-102.5 955,-122.5 1093,-122.5 1093,-102.5 955,-102.5"/>
<text text-anchor="middle" x="1024" y="-109.5" font-family="FreeSans" font-size="10.00" fill="#000000">PHTimer::get_difference</text>
</a>
</g>
</g>
<!-- Node16&#45;&gt;Node17 -->
<g id="edge18" class="edge">
<title>Node16&#45;&gt;Node17</title>
<path fill="none" stroke="#191970" d="M919.3834,-116.4854C927.5408,-116.1746 936.1148,-115.848 944.6976,-115.521"/>
<polygon fill="#191970" stroke="#191970" points="944.8931,-119.0162 954.7526,-115.138 944.6266,-112.0213 944.8931,-119.0162"/>
</g>
<!-- Node18 -->
<g id="node18" class="node">
<title>Node18</title>
<g id="a_node18"><a xlink:href="../../d2/db1/classPHTimer_1_1Frequency.html#a023a2d706df9a8bd303810a9ed017f61" target="_top" xlink:title="period accessor">
<polygon fill="none" stroke="#000000" points="1129,-96.5 1129,-128.5 1247,-128.5 1247,-96.5 1129,-96.5"/>
<text text-anchor="start" x="1137" y="-115.5" font-family="FreeSans" font-size="10.00" fill="#000000">PHTimer::Frequency</text>
<text text-anchor="middle" x="1188" y="-103.5" font-family="FreeSans" font-size="10.00" fill="#000000">::period</text>
</a>
</g>
</g>
<!-- Node17&#45;&gt;Node18 -->
<g id="edge19" class="edge">
<title>Node17&#45;&gt;Node18</title>
<path fill="none" stroke="#191970" d="M1093.0754,-112.5C1101.5394,-112.5 1110.1918,-112.5 1118.6596,-112.5"/>
<polygon fill="#191970" stroke="#191970" points="1118.8719,-116.0001 1128.8719,-112.5 1118.8719,-109.0001 1118.8719,-116.0001"/>
</g>
<!-- Node21&#45;&gt;Node6 -->
<g id="edge24" class="edge">
<title>Node21&#45;&gt;Node6</title>
<path fill="none" stroke="#191970" d="M503.5009,-300.4687C512.3082,-304.6588 522.6458,-310.7022 530,-318.5 554.8201,-344.8174 539.7824,-366.5746 566,-391.5 567.2852,-392.7219 568.6614,-393.872 570.1045,-394.9538"/>
<polygon fill="#191970" stroke="#191970" points="568.5903,-398.1331 578.9337,-400.4274 572.2786,-392.1836 568.5903,-398.1331"/>
</g>
<!-- Node22 -->
<g id="node22" class="node">
<title>Node22</title>
<g id="a_node22"><a xlink:href="../../d6/dcf/pythia6425mod_8f.html#aa8c99978a55999fa0b1fd2a946d8553a" target="_top" xlink:title="pyangl">
<polygon fill="none" stroke="#000000" points="585,-244.5 585,-264.5 635,-264.5 635,-244.5 585,-244.5"/>
<text text-anchor="middle" x="610" y="-251.5" font-family="FreeSans" font-size="10.00" fill="#000000">pyangl</text>
</a>
</g>
</g>
<!-- Node21&#45;&gt;Node22 -->
<g id="edge25" class="edge">
<title>Node21&#45;&gt;Node22</title>
<path fill="none" stroke="#191970" d="M503.5032,-287.995C522.0789,-282.1526 551.9178,-272.7678 575.2915,-265.4164"/>
<polygon fill="#191970" stroke="#191970" points="576.372,-268.7456 584.8612,-262.4065 574.2718,-262.0681 576.372,-268.7456"/>
</g>
<!-- Node23 -->
<g id="node23" class="node">
<title>Node23</title>
<g id="a_node23"><a xlink:href="../../da/d0a/CylinderKalman_8cpp.html#ab74daa0c9784c63e060bfb98cc06fbf5" target="_top" xlink:title="sign">
<polygon fill="none" stroke="#000000" points="715.5,-253.5 715.5,-273.5 752.5,-273.5 752.5,-253.5 715.5,-253.5"/>
<text text-anchor="middle" x="734" y="-260.5" font-family="FreeSans" font-size="10.00" fill="#000000">sign</text>
</a>
</g>
</g>
<!-- Node21&#45;&gt;Node23 -->
<g id="edge30" class="edge">
<title>Node21&#45;&gt;Node23</title>
<path fill="none" stroke="#191970" d="M503.6734,-291.6424C534.308,-288.391 599.2451,-281.3597 654,-274.5 670.9027,-272.3824 689.7827,-269.7969 704.955,-267.6647"/>
<polygon fill="#191970" stroke="#191970" points="705.8554,-271.0723 715.2663,-266.2054 704.8745,-264.1413 705.8554,-271.0723"/>
</g>
<!-- Node24 -->
<g id="node24" class="node">
<title>Node24</title>
<g id="a_node24"><a xlink:href="../../d6/dcf/pythia6425mod_8f.html#a27f75936fde97780175fa2c990bc61cd" target="_top" xlink:title="pychge">
<polygon fill="none" stroke="#000000" points="583.5,-322.5 583.5,-342.5 636.5,-342.5 636.5,-322.5 583.5,-322.5"/>
<text text-anchor="middle" x="610" y="-329.5" font-family="FreeSans" font-size="10.00" fill="#000000">pychge</text>
</a>
</g>
</g>
<!-- Node21&#45;&gt;Node24 -->
<g id="edge27" class="edge">
<title>Node21&#45;&gt;Node24</title>
<path fill="none" stroke="#191970" d="M503.5032,-299.005C521.6471,-304.7116 550.5365,-313.7978 573.651,-321.0677"/>
<polygon fill="#191970" stroke="#191970" points="572.8903,-324.4974 583.4797,-324.1589 574.9905,-317.8199 572.8903,-324.4974"/>
</g>
<!-- Node25 -->
<g id="node25" class="node">
<title>Node25</title>
<g id="a_node25"><a xlink:href="../../d6/dcf/pythia6425mod_8f.html#ad69903a1054f4f77d45fd8fe4c687aa9" target="_top" xlink:title="pymass">
<polygon fill="none" stroke="#000000" points="582.5,-361.5 582.5,-381.5 637.5,-381.5 637.5,-361.5 582.5,-361.5"/>
<text text-anchor="middle" x="610" y="-368.5" font-family="FreeSans" font-size="10.00" fill="#000000">pymass</text>
</a>
</g>
</g>
<!-- Node21&#45;&gt;Node25 -->
<g id="edge28" class="edge">
<title>Node21&#45;&gt;Node25</title>
<path fill="none" stroke="#191970" d="M503.7327,-302.3156C512.0034,-306.739 521.8058,-312.4401 530,-318.5 547.6948,-331.5858 547.6182,-340.3981 566,-352.5 568.4107,-354.0871 570.9759,-355.593 573.6095,-357.0104"/>
<polygon fill="#191970" stroke="#191970" points="572.1835,-360.2094 582.7021,-361.4789 575.271,-353.927 572.1835,-360.2094"/>
</g>
<!-- Node22&#45;&gt;Node23 -->
<g id="edge26" class="edge">
<title>Node22&#45;&gt;Node23</title>
<path fill="none" stroke="#191970" d="M635.0933,-256.3213C655.4346,-257.7977 684.1092,-259.8789 705.3495,-261.4205"/>
<polygon fill="#191970" stroke="#191970" points="705.1753,-264.917 715.4024,-262.1502 705.6821,-257.9354 705.1753,-264.917"/>
</g>
<!-- Node26 -->
<g id="node26" class="node">
<title>Node26</title>
<g id="a_node26"><a xlink:href="../../d6/dcf/pythia6425mod_8f.html#ac28b7ef95cee2881a46f71d3a88d05ac" target="_top" xlink:title="pyr">
<polygon fill="none" stroke="#000000" points="717.5,-361.5 717.5,-381.5 750.5,-381.5 750.5,-361.5 717.5,-361.5"/>
<text text-anchor="middle" x="734" y="-368.5" font-family="FreeSans" font-size="10.00" fill="#000000">pyr</text>
</a>
</g>
</g>
<!-- Node25&#45;&gt;Node26 -->
<g id="edge29" class="edge">
<title>Node25&#45;&gt;Node26</title>
<path fill="none" stroke="#191970" d="M637.5196,-371.5C658.204,-371.5 686.3958,-371.5 706.9623,-371.5"/>
<polygon fill="#191970" stroke="#191970" points="707.2245,-375.0001 717.2244,-371.5 707.2244,-368.0001 707.2245,-375.0001"/>
</g>
<!-- Node28&#45;&gt;Node2 -->
<g id="edge34" class="edge">
<title>Node28&#45;&gt;Node2</title>
<path fill="none" stroke="#191970" d="M138.0979,-40.3342C146.5705,-43.5892 156.1599,-47.2733 165.2516,-50.7662"/>
<polygon fill="#191970" stroke="#191970" points="164.2555,-54.1328 174.8455,-54.4519 166.7659,-47.5984 164.2555,-54.1328"/>
</g>
<!-- Node28&#45;&gt;Node29 -->
<g id="edge35" class="edge">
<title>Node28&#45;&gt;Node29</title>
<path fill="none" stroke="#191970" d="M138.0979,-24.7152C146.6287,-22.7873 156.2917,-20.6036 165.439,-18.5364"/>
<polygon fill="#191970" stroke="#191970" points="166.4772,-21.8901 175.4597,-16.2718 164.9341,-15.0623 166.4772,-21.8901"/>
</g>
<!-- Node30 -->
<g id="node30" class="node">
<title>Node30</title>
<g id="a_node30"><a xlink:href="../../d6/dcf/pythia6425mod_8f.html#a78f4bff902221f0851a474a0642ca924" target="_top" xlink:title="pyrvs">
<polygon fill="none" stroke="#000000" points="273,-.5 273,-20.5 317,-20.5 317,-.5 273,-.5"/>
<text text-anchor="middle" x="295" y="-7.5" font-family="FreeSans" font-size="10.00" fill="#000000">pyrvs</text>
</a>
</g>
</g>
<!-- Node29&#45;&gt;Node30 -->
<g id="edge36" class="edge">
<title>Node29&#45;&gt;Node30</title>
<path fill="none" stroke="#191970" d="M226.6859,-10.5C237.7564,-10.5 250.8285,-10.5 262.5583,-10.5"/>
<polygon fill="#191970" stroke="#191970" points="262.8572,-14.0001 272.8572,-10.5 262.8572,-7.0001 262.8572,-14.0001"/>
</g>
<!-- Node31 -->
<g id="node31" class="node">
<title>Node31</title>
<g id="a_node31"><a xlink:href="../../d6/dcf/pythia6425mod_8f.html#a5168f5ce45865125ee90d4a1967db80d" target="_top" xlink:title="pyrvr">
<polygon fill="none" stroke="#000000" points="362.5,-.5 362.5,-20.5 405.5,-20.5 405.5,-.5 362.5,-.5"/>
<text text-anchor="middle" x="384" y="-7.5" font-family="FreeSans" font-size="10.00" fill="#000000">pyrvr</text>
</a>
</g>
</g>
<!-- Node30&#45;&gt;Node31 -->
<g id="edge37" class="edge">
<title>Node30&#45;&gt;Node31</title>
<path fill="none" stroke="#191970" d="M317,-10.5C327.5621,-10.5 340.4192,-10.5 352.0354,-10.5"/>
<polygon fill="#191970" stroke="#191970" points="352.2531,-14.0001 362.2531,-10.5 352.253,-7.0001 352.2531,-14.0001"/>
</g>
</g>
</svg>
