<?xml version="1.0" encoding="UTF-8" standalone="no"?>
<!DOCTYPE svg PUBLIC "-//W3C//DTD SVG 1.1//EN"
 "http://www.w3.org/Graphics/SVG/1.1/DTD/svg11.dtd">
<!-- Generated by graphviz version 2.40.1 (20161225.0304)
 -->
<!-- Title: Fluid::calcTotals Pages: 1 -->
<svg width="688pt" height="419pt"
 viewBox="0.00 0.00 688.00 419.00" xmlns="http://www.w3.org/2000/svg" xmlns:xlink="http://www.w3.org/1999/xlink">
<g id="graph0" class="graph" transform="scale(1 1) rotate(0) translate(4 415)">
<title>Fluid::calcTotals</title>
<!-- Node1 -->
<g id="node1" class="node">
<title>Node1</title>
<polygon fill="#bfbfbf" stroke="#000000" points="0,-156.5 0,-176.5 97,-176.5 97,-156.5 0,-156.5"/>
<text text-anchor="middle" x="48.5" y="-163.5" font-family="FreeSans" font-size="10.00" fill="#000000">Fluid::calcTotals</text>
</g>
<!-- Node2 -->
<g id="node2" class="node">
<title>Node2</title>
<g id="a_node2"><a xlink:href="../../d0/d0b/radgen_8f.html#acff1558f58b13af626c12b909ab85f2c" target="_top" xlink:title="deltas">
<polygon fill="none" stroke="#000000" points="181.5,-312.5 181.5,-332.5 228.5,-332.5 228.5,-312.5 181.5,-312.5"/>
<text text-anchor="middle" x="205" y="-319.5" font-family="FreeSans" font-size="10.00" fill="#000000">deltas</text>
</a>
</g>
</g>
<!-- Node1&#45;&gt;Node2 -->
<g id="edge1" class="edge">
<title>Node1&#45;&gt;Node2</title>
<path fill="none" stroke="#191970" d="M51.9251,-176.8463C60.9036,-202.3276 87.614,-268.5034 133,-302.5 144.0607,-310.7851 158.383,-315.6381 171.3374,-318.4807"/>
<polygon fill="#191970" stroke="#191970" points="170.8712,-321.9542 181.3449,-320.3566 172.1609,-315.0741 170.8712,-321.9542"/>
</g>
<!-- Node10 -->
<g id="node10" class="node">
<title>Node10</title>
<g id="a_node10"><a xlink:href="../../da/d3a/classEoS.html#a93d205d6bcf27fc8b8685e54b9f96962" target="_top" xlink:title="EoS::eos">
<polygon fill="none" stroke="#000000" points="175,-273.5 175,-293.5 235,-293.5 235,-273.5 175,-273.5"/>
<text text-anchor="middle" x="205" y="-280.5" font-family="FreeSans" font-size="10.00" fill="#000000">EoS::eos</text>
</a>
</g>
</g>
<!-- Node1&#45;&gt;Node10 -->
<g id="edge10" class="edge">
<title>Node1&#45;&gt;Node10</title>
<path fill="none" stroke="#191970" d="M54.519,-176.7463C66.7205,-196.6015 96.349,-240.3911 133,-263.5 142.5783,-269.5392 153.9947,-273.7852 164.8824,-276.7588"/>
<polygon fill="#191970" stroke="#191970" points="164.1201,-280.1754 174.6649,-279.1468 165.7802,-273.3751 164.1201,-280.1754"/>
</g>
<!-- Node11 -->
<g id="node11" class="node">
<title>Node11</title>
<g id="a_node11"><a xlink:href="../../de/dfd/classCell.html#afb7bdaf8970e7940df8510c8f3aeae56" target="_top" xlink:title="Cell::getpi">
<polygon fill="none" stroke="#000000" points="171.5,-234.5 171.5,-254.5 238.5,-254.5 238.5,-234.5 171.5,-234.5"/>
<text text-anchor="middle" x="205" y="-241.5" font-family="FreeSans" font-size="10.00" fill="#000000">Cell::getpi</text>
</a>
</g>
</g>
<!-- Node1&#45;&gt;Node11 -->
<g id="edge11" class="edge">
<title>Node1&#45;&gt;Node11</title>
<path fill="none" stroke="#191970" d="M60.3179,-176.5136C75.9865,-189.3248 104.939,-211.4181 133,-224.5 141.9014,-228.6498 151.8345,-232.0942 161.4106,-234.8876"/>
<polygon fill="#191970" stroke="#191970" points="160.6335,-238.3035 171.2026,-237.5651 162.4799,-231.5514 160.6335,-238.3035"/>
</g>
<!-- Node13 -->
<g id="node13" class="node">
<title>Node13</title>
<g id="a_node13"><a xlink:href="../../de/dfd/classCell.html#ab66693d57f15ee074ca93a7d4ce90c39" target="_top" xlink:title="Cell::getQ">
<polygon fill="none" stroke="#000000" points="172,-195.5 172,-215.5 238,-215.5 238,-195.5 172,-195.5"/>
<text text-anchor="middle" x="205" y="-202.5" font-family="FreeSans" font-size="10.00" fill="#000000">Cell::getQ</text>
</a>
</g>
</g>
<!-- Node1&#45;&gt;Node13 -->
<g id="edge13" class="edge">
<title>Node1&#45;&gt;Node13</title>
<path fill="none" stroke="#191970" d="M88.8026,-176.5435C111.2867,-182.1465 139.2861,-189.124 162.1658,-194.8257"/>
<polygon fill="#191970" stroke="#191970" points="161.4027,-198.2425 171.9523,-197.2645 163.0954,-191.4502 161.4027,-198.2425"/>
</g>
<!-- Node14 -->
<g id="node14" class="node">
<title>Node14</title>
<g id="a_node14"><a xlink:href="../../d9/d6c/classTransportCoeff.html#a3b95689043a7a0da45342b678b6843f9" target="_top" xlink:title="TransportCoeff::isViscous">
<polygon fill="none" stroke="#000000" points="133,-156.5 133,-176.5 277,-176.5 277,-156.5 133,-156.5"/>
<text text-anchor="middle" x="205" y="-163.5" font-family="FreeSans" font-size="10.00" fill="#000000">TransportCoeff::isViscous</text>
</a>
</g>
</g>
<!-- Node1&#45;&gt;Node14 -->
<g id="edge14" class="edge">
<title>Node1&#45;&gt;Node14</title>
<path fill="none" stroke="#191970" d="M97.1597,-166.5C105.2857,-166.5 113.911,-166.5 122.6048,-166.5"/>
<polygon fill="#191970" stroke="#191970" points="122.8161,-170.0001 132.8161,-166.5 122.816,-163.0001 122.8161,-170.0001"/>
</g>
<!-- Node15 -->
<g id="node15" class="node">
<title>Node15</title>
<g id="a_node15"><a xlink:href="../../d9/d03/KFParticleBaseSIMD_8h.html#ae14712cc263c528fc5d0ccf8e91e55d3" target="_top" xlink:title="Retruns X component of the momentum, fP[3].">
<polygon fill="none" stroke="#000000" points="190.5,-117.5 190.5,-137.5 219.5,-137.5 219.5,-117.5 190.5,-117.5"/>
<text text-anchor="middle" x="205" y="-124.5" font-family="FreeSans" font-size="10.00" fill="#000000">Px</text>
</a>
</g>
</g>
<!-- Node1&#45;&gt;Node15 -->
<g id="edge15" class="edge">
<title>Node1&#45;&gt;Node15</title>
<path fill="none" stroke="#191970" d="M88.8026,-156.4565C117.6769,-149.261 155.647,-139.7988 180.189,-133.6829"/>
<polygon fill="#191970" stroke="#191970" points="181.2722,-137.0201 190.1291,-131.2058 179.5795,-130.2278 181.2722,-137.0201"/>
</g>
<!-- Node16 -->
<g id="node16" class="node">
<title>Node16</title>
<g id="a_node16"><a xlink:href="../../d9/d03/KFParticleBaseSIMD_8h.html#a4cd33935de91662c0644140e301499e5" target="_top" xlink:title="Returns charge of the particle.">
<polygon fill="none" stroke="#000000" points="190.5,-78.5 190.5,-98.5 219.5,-98.5 219.5,-78.5 190.5,-78.5"/>
<text text-anchor="middle" x="205" y="-85.5" font-family="FreeSans" font-size="10.00" fill="#000000">Q</text>
</a>
</g>
</g>
<!-- Node1&#45;&gt;Node16 -->
<g id="edge16" class="edge">
<title>Node1&#45;&gt;Node16</title>
<path fill="none" stroke="#191970" d="M59.9922,-156.4703C75.5339,-143.3986 104.5884,-120.6601 133,-107.5 148.05,-100.5289 166.0987,-95.7731 180.3605,-92.7629"/>
<polygon fill="#191970" stroke="#191970" points="181.2751,-96.1503 190.416,-90.7935 179.9297,-89.2808 181.2751,-96.1503"/>
</g>
<!-- Node17 -->
<g id="node17" class="node">
<title>Node17</title>
<g id="a_node17"><a xlink:href="../../da/d3a/classEoS.html#aa2fa2f982517754ae9c9eb2fc534fc48" target="_top" xlink:title="EoS::s">
<polygon fill="none" stroke="#000000" points="181.5,-39.5 181.5,-59.5 228.5,-59.5 228.5,-39.5 181.5,-39.5"/>
<text text-anchor="middle" x="205" y="-46.5" font-family="FreeSans" font-size="10.00" fill="#000000">EoS::s</text>
</a>
</g>
</g>
<!-- Node1&#45;&gt;Node17 -->
<g id="edge17" class="edge">
<title>Node1&#45;&gt;Node17</title>
<path fill="none" stroke="#191970" d="M54.2793,-156.4139C66.2685,-136.4262 95.8521,-91.7186 133,-68.5 144.3909,-61.3803 158.3965,-56.9101 171.0176,-54.1114"/>
<polygon fill="#191970" stroke="#191970" points="172.0569,-57.4751 181.206,-52.1323 170.722,-50.6035 172.0569,-57.4751"/>
</g>
<!-- Node18 -->
<g id="node18" class="node">
<title>Node18</title>
<g id="a_node18"><a xlink:href="../../d9/d03/KFParticleBaseSIMD_8h.html#a9fef1880f3bc3812ef130b5b1163ce17" target="_top" xlink:title="Returns dS=l/p, l &#45; decay length, fP[7], defined if production vertex is set.">
<polygon fill="none" stroke="#000000" points="190.5,-.5 190.5,-20.5 219.5,-20.5 219.5,-.5 190.5,-.5"/>
<text text-anchor="middle" x="205" y="-7.5" font-family="FreeSans" font-size="10.00" fill="#000000">S</text>
</a>
</g>
</g>
<!-- Node1&#45;&gt;Node18 -->
<g id="edge18" class="edge">
<title>Node1&#45;&gt;Node18</title>
<path fill="none" stroke="#191970" d="M51.7458,-156.4174C60.4798,-130.9471 86.984,-63.6228 133,-29.5 146.7041,-19.3379 165.4127,-14.6038 180.3244,-12.402"/>
<polygon fill="#191970" stroke="#191970" points="180.8691,-15.862 190.3855,-11.2049 180.0419,-8.911 180.8691,-15.862"/>
</g>
<!-- Node3 -->
<g id="node3" class="node">
<title>Node3</title>
<g id="a_node3"><a xlink:href="../../d0/d0b/radgen_8f.html#a1630e32bec78b00d1fb42b058e221147" target="_top" xlink:title="fspen">
<polygon fill="none" stroke="#000000" points="319.5,-390.5 319.5,-410.5 363.5,-410.5 363.5,-390.5 319.5,-390.5"/>
<text text-anchor="middle" x="341.5" y="-397.5" font-family="FreeSans" font-size="10.00" fill="#000000">fspen</text>
</a>
</g>
</g>
<!-- Node2&#45;&gt;Node3 -->
<g id="edge2" class="edge">
<title>Node2&#45;&gt;Node3</title>
<path fill="none" stroke="#191970" d="M222.5655,-332.5375C245.8822,-345.8612 287.2797,-369.517 314.5604,-385.106"/>
<polygon fill="#191970" stroke="#191970" points="313.1495,-388.3308 323.5684,-390.2534 316.6225,-382.2531 313.1495,-388.3308"/>
</g>
<!-- Node5 -->
<g id="node5" class="node">
<title>Node5</title>
<g id="a_node5"><a xlink:href="../../d4/d3e/classActs_1_1Logger.html#a2e009357e8b3be1d10f072a71074ba58" target="_top" xlink:title="log a debug message">
<polygon fill="none" stroke="#000000" points="412.5,-335.5 412.5,-355.5 514.5,-355.5 514.5,-335.5 412.5,-335.5"/>
<text text-anchor="middle" x="463.5" y="-342.5" font-family="FreeSans" font-size="10.00" fill="#000000">Acts::Logger::log</text>
</a>
</g>
</g>
<!-- Node2&#45;&gt;Node5 -->
<g id="edge4" class="edge">
<title>Node2&#45;&gt;Node5</title>
<path fill="none" stroke="#191970" d="M228.8594,-328.0776C250.6367,-332.8908 283.7853,-339.5239 313,-342.5 342.1632,-345.4709 374.664,-346.4143 401.9786,-346.5365"/>
<polygon fill="#191970" stroke="#191970" points="402.1723,-350.0366 412.1755,-346.5457 402.1787,-343.0366 402.1723,-350.0366"/>
</g>
<!-- Node7 -->
<g id="node7" class="node">
<title>Node7</title>
<g id="a_node7"><a xlink:href="../../da/d55/TPCRateLayered_8m.html#a7507ef556477c204b499f1e189d40796" target="_top" xlink:title="sum">
<polygon fill="none" stroke="#000000" points="322.5,-312.5 322.5,-332.5 360.5,-332.5 360.5,-312.5 322.5,-312.5"/>
<text text-anchor="middle" x="341.5" y="-319.5" font-family="FreeSans" font-size="10.00" fill="#000000">sum</text>
</a>
</g>
</g>
<!-- Node2&#45;&gt;Node7 -->
<g id="edge6" class="edge">
<title>Node2&#45;&gt;Node7</title>
<path fill="none" stroke="#191970" d="M228.7765,-322.5C251.9313,-322.5 287.1826,-322.5 312.0895,-322.5"/>
<polygon fill="#191970" stroke="#191970" points="312.3946,-326.0001 322.3945,-322.5 312.3945,-319.0001 312.3946,-326.0001"/>
</g>
<!-- Node8 -->
<g id="node8" class="node">
<title>Node8</title>
<g id="a_node8"><a xlink:href="../../d0/d0b/radgen_8f.html#ada5e63d31d451843882a77beec0a6814" target="_top" xlink:title="vacpol">
<polygon fill="none" stroke="#000000" points="317,-273.5 317,-293.5 366,-293.5 366,-273.5 317,-273.5"/>
<text text-anchor="middle" x="341.5" y="-280.5" font-family="FreeSans" font-size="10.00" fill="#000000">vacpol</text>
</a>
</g>
</g>
<!-- Node2&#45;&gt;Node8 -->
<g id="edge7" class="edge">
<title>Node2&#45;&gt;Node8</title>
<path fill="none" stroke="#191970" d="M228.6986,-316.0166C242.7536,-312.1467 260.9103,-307.1042 277,-302.5 286.7458,-299.7112 297.3012,-296.6282 306.9957,-293.7715"/>
<polygon fill="#191970" stroke="#191970" points="308.119,-297.0893 316.7168,-290.8982 306.1348,-290.3763 308.119,-297.0893"/>
</g>
<!-- Node4 -->
<g id="node4" class="node">
<title>Node4</title>
<g id="a_node4"><a xlink:href="../../d0/d0b/radgen_8f.html#ab1b76762af9f6a2440e379e6481a2657" target="_top" xlink:title="fspens">
<polygon fill="none" stroke="#000000" points="438.5,-390.5 438.5,-410.5 488.5,-410.5 488.5,-390.5 438.5,-390.5"/>
<text text-anchor="middle" x="463.5" y="-397.5" font-family="FreeSans" font-size="10.00" fill="#000000">fspens</text>
</a>
</g>
</g>
<!-- Node3&#45;&gt;Node4 -->
<g id="edge3" class="edge">
<title>Node3&#45;&gt;Node4</title>
<path fill="none" stroke="#191970" d="M363.5933,-400.5C381.5682,-400.5 407.2788,-400.5 428.1162,-400.5"/>
<polygon fill="#191970" stroke="#191970" points="428.1996,-404.0001 438.1995,-400.5 428.1995,-397.0001 428.1996,-404.0001"/>
</g>
<!-- Node6 -->
<g id="node6" class="node">
<title>Node6</title>
<g id="a_node6"><a xlink:href="../../d4/d3e/classActs_1_1Logger.html#a7014d28adf021f598d69b840aa77c486" target="_top" xlink:title="decide whether a message with a given debug level has to be printed">
<polygon fill="none" stroke="#000000" points="557,-335.5 557,-355.5 680,-355.5 680,-335.5 557,-335.5"/>
<text text-anchor="middle" x="618.5" y="-342.5" font-family="FreeSans" font-size="10.00" fill="#000000">Acts::Logger::doPrint</text>
</a>
</g>
</g>
<!-- Node5&#45;&gt;Node6 -->
<g id="edge5" class="edge">
<title>Node5&#45;&gt;Node6</title>
<path fill="none" stroke="#191970" d="M514.6824,-345.5C524.9064,-345.5 535.8239,-345.5 546.5963,-345.5"/>
<polygon fill="#191970" stroke="#191970" points="546.8529,-349.0001 556.8528,-345.5 546.8528,-342.0001 546.8529,-349.0001"/>
</g>
<!-- Node8&#45;&gt;Node5 -->
<g id="edge8" class="edge">
<title>Node8&#45;&gt;Node5</title>
<path fill="none" stroke="#191970" d="M361.3729,-293.5994C381.2238,-303.6875 411.9512,-319.3031 434.5188,-330.7719"/>
<polygon fill="#191970" stroke="#191970" points="433.135,-333.9946 443.6356,-335.405 436.3064,-327.7542 433.135,-333.9946"/>
</g>
<!-- Node9 -->
<g id="node9" class="node">
<title>Node9</title>
<g id="a_node9"><a xlink:href="../../d4/da6/classActs_1_1ExaTrkXTimer.html#a00d2cecc70cefbf45e374fb27c11632d" target="_top" xlink:title="Acts::ExaTrkXTimer\l::stop">
<polygon fill="none" stroke="#000000" points="406,-267.5 406,-299.5 521,-299.5 521,-267.5 406,-267.5"/>
<text text-anchor="start" x="414" y="-286.5" font-family="FreeSans" font-size="10.00" fill="#000000">Acts::ExaTrkXTimer</text>
<text text-anchor="middle" x="463.5" y="-274.5" font-family="FreeSans" font-size="10.00" fill="#000000">::stop</text>
</a>
</g>
</g>
<!-- Node8&#45;&gt;Node9 -->
<g id="edge9" class="edge">
<title>Node8&#45;&gt;Node9</title>
<path fill="none" stroke="#191970" d="M366.1885,-283.5C374.8946,-283.5 385.1521,-283.5 395.6841,-283.5"/>
<polygon fill="#191970" stroke="#191970" points="395.8243,-287.0001 405.8242,-283.5 395.8242,-280.0001 395.8243,-287.0001"/>
</g>
<!-- Node12 -->
<g id="node12" class="node">
<title>Node12</title>
<g id="a_node12"><a xlink:href="../../d1/d70/cll_8cpp.html#aecbbdeaea3d2bd5cbaa43cdef5a08c80" target="_top" xlink:title="index44">
<polygon fill="none" stroke="#000000" points="313,-234.5 313,-254.5 370,-254.5 370,-234.5 313,-234.5"/>
<text text-anchor="middle" x="341.5" y="-241.5" font-family="FreeSans" font-size="10.00" fill="#000000">index44</text>
</a>
</g>
</g>
<!-- Node11&#45;&gt;Node12 -->
<g id="edge12" class="edge">
<title>Node11&#45;&gt;Node12</title>
<path fill="none" stroke="#191970" d="M238.7416,-244.5C258.1037,-244.5 282.4941,-244.5 302.6532,-244.5"/>
<polygon fill="#191970" stroke="#191970" points="302.7603,-248.0001 312.7603,-244.5 302.7603,-241.0001 302.7603,-248.0001"/>
</g>
</g>
</svg>
