<?xml version="1.0" encoding="UTF-8" standalone="no"?>
<!DOCTYPE svg PUBLIC "-//W3C//DTD SVG 1.1//EN"
 "http://www.w3.org/Graphics/SVG/1.1/DTD/svg11.dtd">
<!-- Generated by graphviz version 2.40.1 (20161225.0304)
 -->
<!-- Title: MbdOut::set_t0zvtx Pages: 1 -->
<svg width="439pt" height="68pt"
 viewBox="0.00 0.00 439.00 68.00" xmlns="http://www.w3.org/2000/svg" xmlns:xlink="http://www.w3.org/1999/xlink">
<g id="graph0" class="graph" transform="scale(1 1) rotate(0) translate(4 64)">
<title>MbdOut::set_t0zvtx</title>
<!-- Node1 -->
<g id="node1" class="node">
<title>Node1</title>
<polygon fill="#bfbfbf" stroke="#000000" points="0,-19.5 0,-39.5 115,-39.5 115,-19.5 0,-19.5"/>
<text text-anchor="middle" x="57.5" y="-26.5" font-family="FreeSans" font-size="10.00" fill="#000000">MbdOut::set_t0zvtx</text>
</g>
<!-- Node2 -->
<g id="node2" class="node">
<title>Node2</title>
<g id="a_node2"><a xlink:href="../../d3/d68/classMbdOut.html#a5ca061416426ed36b25499e55d8f8353" target="_top" xlink:title="MbdOut::set_t0">
<polygon fill="none" stroke="#000000" points="156.5,-39.5 156.5,-59.5 249.5,-59.5 249.5,-39.5 156.5,-39.5"/>
<text text-anchor="middle" x="203" y="-46.5" font-family="FreeSans" font-size="10.00" fill="#000000">MbdOut::set_t0</text>
</a>
</g>
</g>
<!-- Node1&#45;&gt;Node2 -->
<g id="edge1" class="edge">
<title>Node1&#45;&gt;Node2</title>
<path fill="none" stroke="#191970" d="M115.0055,-37.4045C125.2523,-38.813 135.9217,-40.2796 146.1501,-41.6856"/>
<polygon fill="#191970" stroke="#191970" points="145.8161,-45.1725 156.1996,-43.067 146.7694,-38.2377 145.8161,-45.1725"/>
</g>
<!-- Node4 -->
<g id="node4" class="node">
<title>Node4</title>
<g id="a_node4"><a xlink:href="../../d3/d68/classMbdOut.html#a939fb1ccd768df9ce6e2736a71a204a2" target="_top" xlink:title="set vertex">
<polygon fill="none" stroke="#000000" points="151,-.5 151,-20.5 255,-20.5 255,-.5 151,-.5"/>
<text text-anchor="middle" x="203" y="-7.5" font-family="FreeSans" font-size="10.00" fill="#000000">MbdOut::set_zvtx</text>
</a>
</g>
</g>
<!-- Node1&#45;&gt;Node4 -->
<g id="edge3" class="edge">
<title>Node1&#45;&gt;Node4</title>
<path fill="none" stroke="#191970" d="M115.0055,-21.9907C123.3633,-20.8993 132.0022,-19.7712 140.4537,-18.6676"/>
<polygon fill="#191970" stroke="#191970" points="141.1756,-22.1031 150.6382,-17.3376 140.2692,-15.162 141.1756,-22.1031"/>
</g>
<!-- Node3 -->
<g id="node3" class="node">
<title>Node3</title>
<g id="a_node3"><a xlink:href="../../d3/d68/classMbdOut.html#a1a748bff9cd1b5f2405995f1867a8ff4" target="_top" xlink:title="MbdOut::virtual_warning">
<polygon fill="none" stroke="#000000" points="291,-19.5 291,-39.5 431,-39.5 431,-19.5 291,-19.5"/>
<text text-anchor="middle" x="361" y="-26.5" font-family="FreeSans" font-size="10.00" fill="#000000">MbdOut::virtual_warning</text>
</a>
</g>
</g>
<!-- Node2&#45;&gt;Node3 -->
<g id="edge2" class="edge">
<title>Node2&#45;&gt;Node3</title>
<path fill="none" stroke="#191970" d="M249.5506,-43.6075C259.3461,-42.3676 269.9471,-41.0257 280.5824,-39.6794"/>
<polygon fill="#191970" stroke="#191970" points="281.2831,-43.1188 290.7644,-38.3906 280.404,-36.1742 281.2831,-43.1188"/>
</g>
<!-- Node4&#45;&gt;Node3 -->
<g id="edge4" class="edge">
<title>Node4&#45;&gt;Node3</title>
<path fill="none" stroke="#191970" d="M255.173,-16.774C263.3779,-17.7606 272.021,-18.8 280.6851,-19.8419"/>
<polygon fill="#191970" stroke="#191970" points="280.4944,-23.3441 290.8408,-21.0631 281.3302,-16.3942 280.4944,-23.3441"/>
</g>
</g>
</svg>
