<?xml version="1.0" encoding="UTF-8" standalone="no"?>
<!DOCTYPE svg PUBLIC "-//W3C//DTD SVG 1.1//EN"
 "http://www.w3.org/Graphics/SVG/1.1/DTD/svg11.dtd">
<!-- Generated by graphviz version 2.40.1 (20161225.0304)
 -->
<!-- Title: Acts::Frustum::svg Pages: 1 -->
<svg width="438pt" height="119pt"
 viewBox="0.00 0.00 438.00 119.00" xmlns="http://www.w3.org/2000/svg" xmlns:xlink="http://www.w3.org/1999/xlink">
<g id="graph0" class="graph" transform="scale(1 1) rotate(0) translate(4 115)">
<title>Acts::Frustum::svg</title>
<!-- Node1 -->
<g id="node1" class="node">
<title>Node1</title>
<polygon fill="#bfbfbf" stroke="#000000" points="0,-45.5 0,-65.5 110,-65.5 110,-45.5 0,-45.5"/>
<text text-anchor="middle" x="55" y="-52.5" font-family="FreeSans" font-size="10.00" fill="#000000">Acts::Frustum::svg</text>
</g>
<!-- Node2 -->
<g id="node2" class="node">
<title>Node2</title>
<g id="a_node2"><a xlink:href="../../df/d28/namespacekdfinder.html#ab72d428625e99a2d7380eb7691c246c7" target="_top" xlink:title="kdfinder::abs">
<polygon fill="none" stroke="#000000" points="162.5,-90.5 162.5,-110.5 245.5,-110.5 245.5,-90.5 162.5,-90.5"/>
<text text-anchor="middle" x="204" y="-97.5" font-family="FreeSans" font-size="10.00" fill="#000000">kdfinder::abs</text>
</a>
</g>
</g>
<!-- Node1&#45;&gt;Node2 -->
<g id="edge1" class="edge">
<title>Node1&#45;&gt;Node2</title>
<path fill="none" stroke="#191970" d="M88.4385,-65.5989C109.8144,-72.0547 137.749,-80.4913 160.7984,-87.4525"/>
<polygon fill="#191970" stroke="#191970" points="160.0882,-90.8941 170.6731,-90.4348 162.1121,-84.1931 160.0882,-90.8941"/>
</g>
<!-- Node4 -->
<g id="node4" class="node">
<title>Node4</title>
<g id="a_node4"><a xlink:href="../../df/da1/namespaceActs_1_1VectorHelpers.html#a6e1abd01ea4cac3276aba94096c85dae" target="_top" xlink:title="Calculates column&#45;wise cross products of a matrix and a vector and stores the result column&#45;wise in a...">
<polygon fill="none" stroke="#000000" points="146,-39.5 146,-71.5 262,-71.5 262,-39.5 146,-39.5"/>
<text text-anchor="start" x="154" y="-58.5" font-family="FreeSans" font-size="10.00" fill="#000000">Acts::VectorHelpers</text>
<text text-anchor="middle" x="204" y="-46.5" font-family="FreeSans" font-size="10.00" fill="#000000">::cross</text>
</a>
</g>
</g>
<!-- Node1&#45;&gt;Node4 -->
<g id="edge3" class="edge">
<title>Node1&#45;&gt;Node4</title>
<path fill="none" stroke="#191970" d="M110.0588,-55.5C118.4601,-55.5 127.2161,-55.5 135.8572,-55.5"/>
<polygon fill="#191970" stroke="#191970" points="135.9202,-59.0001 145.9202,-55.5 135.9202,-52.0001 135.9202,-59.0001"/>
</g>
<!-- Node5 -->
<g id="node5" class="node">
<title>Node5</title>
<g id="a_node5"><a xlink:href="../../d9/d3f/mongoose_8cc.html#a6dcfd23083a738f06b03dcd935b272eb" target="_top" xlink:title="left">
<polygon fill="none" stroke="#000000" points="187.5,-.5 187.5,-20.5 220.5,-20.5 220.5,-.5 187.5,-.5"/>
<text text-anchor="middle" x="204" y="-7.5" font-family="FreeSans" font-size="10.00" fill="#000000">left</text>
</a>
</g>
</g>
<!-- Node1&#45;&gt;Node5 -->
<g id="edge4" class="edge">
<title>Node1&#45;&gt;Node5</title>
<path fill="none" stroke="#191970" d="M88.4385,-45.4011C115.3157,-37.2838 152.562,-26.035 177.4287,-18.5249"/>
<polygon fill="#191970" stroke="#191970" points="178.7006,-21.797 187.2617,-15.5552 176.6768,-15.0959 178.7006,-21.797"/>
</g>
<!-- Node3 -->
<g id="node3" class="node">
<title>Node3</title>
<g id="a_node3"><a xlink:href="../../d8/dc7/classkdfinder_1_1TVector.html#ac9649c7577f12a7502ed523260f4ee90" target="_top" xlink:title="kdfinder::TVector::mag">
<polygon fill="none" stroke="#000000" points="298,-90.5 298,-110.5 430,-110.5 430,-90.5 298,-90.5"/>
<text text-anchor="middle" x="364" y="-97.5" font-family="FreeSans" font-size="10.00" fill="#000000">kdfinder::TVector::mag</text>
</a>
</g>
</g>
<!-- Node2&#45;&gt;Node3 -->
<g id="edge2" class="edge">
<title>Node2&#45;&gt;Node3</title>
<path fill="none" stroke="#191970" d="M245.6204,-100.5C258.5602,-100.5 273.2556,-100.5 287.7842,-100.5"/>
<polygon fill="#191970" stroke="#191970" points="287.7922,-104.0001 297.7922,-100.5 287.7922,-97.0001 287.7922,-104.0001"/>
</g>
</g>
</svg>
