<?xml version="1.0" encoding="UTF-8" standalone="no"?>
<!DOCTYPE svg PUBLIC "-//W3C//DTD SVG 1.1//EN"
 "http://www.w3.org/Graphics/SVG/1.1/DTD/svg11.dtd">
<!-- Generated by graphviz version 2.40.1 (20161225.0304)
 -->
<!-- Title: dijkstra::reset_algorithm Pages: 1 -->
<svg width="281pt" height="68pt"
 viewBox="0.00 0.00 281.00 68.00" xmlns="http://www.w3.org/2000/svg" xmlns:xlink="http://www.w3.org/1999/xlink">
<g id="graph0" class="graph" transform="scale(1 1) rotate(0) translate(4 64)">
<title>dijkstra::reset_algorithm</title>
<!-- Node1 -->
<g id="node1" class="node">
<title>Node1</title>
<polygon fill="#bfbfbf" stroke="#000000" points="0,-19.5 0,-39.5 140,-39.5 140,-19.5 0,-19.5"/>
<text text-anchor="middle" x="70" y="-26.5" font-family="FreeSans" font-size="10.00" fill="#000000">dijkstra::reset_algorithm</text>
</g>
<!-- Node2 -->
<g id="node2" class="node">
<title>Node2</title>
<g id="a_node2"><a xlink:href="../../da/da9/classdijkstra.html#a64a1fcb9cca32ff932b9b98a08cff106" target="_top" xlink:title="Default constructor.">
<polygon fill="none" stroke="#000000" points="176,-39.5 176,-59.5 273,-59.5 273,-39.5 176,-39.5"/>
<text text-anchor="middle" x="224.5" y="-46.5" font-family="FreeSans" font-size="10.00" fill="#000000">dijkstra::dijkstra</text>
</a>
</g>
</g>
<!-- Node1&#45;&gt;Node2 -->
<g id="edge1" class="edge">
<title>Node1&#45;&gt;Node2</title>
<path fill="none" stroke="#191970" d="M150.0015,-39.8562C158.8486,-41.0014 167.6475,-42.1405 175.9332,-43.213"/>
<polygon fill="#191970" stroke="#191970" points="150.3839,-36.3766 140.0172,-38.5637 149.4851,-43.3186 150.3839,-36.3766"/>
</g>
<!-- Node3 -->
<g id="node3" class="node">
<title>Node3</title>
<g id="a_node3"><a xlink:href="../../da/da9/classdijkstra.html#a444c288b3a49ec1c2973459dad55ffb3" target="_top" xlink:title="Resets Dijkstra&#39;s algorithm.">
<polygon fill="none" stroke="#000000" points="181.5,-.5 181.5,-20.5 267.5,-20.5 267.5,-.5 181.5,-.5"/>
<text text-anchor="middle" x="224.5" y="-7.5" font-family="FreeSans" font-size="10.00" fill="#000000">dijkstra::reset</text>
</a>
</g>
</g>
<!-- Node1&#45;&gt;Node3 -->
<g id="edge2" class="edge">
<title>Node1&#45;&gt;Node3</title>
<path fill="none" stroke="#191970" d="M150.2569,-19.6302C160.9403,-18.3164 171.5469,-17.012 181.2577,-15.8178"/>
<polygon fill="#191970" stroke="#191970" points="149.5152,-16.195 140.0172,-20.8895 150.3697,-23.1426 149.5152,-16.195"/>
</g>
</g>
</svg>
