<?xml version="1.0" encoding="UTF-8" standalone="no"?>
<!DOCTYPE svg PUBLIC "-//W3C//DTD SVG 1.1//EN"
 "http://www.w3.org/Graphics/SVG/1.1/DTD/svg11.dtd">
<!-- Generated by graphviz version 2.40.1 (20161225.0304)
 -->
<!-- Title: MicromegasClusterizer::Init Pages: 1 -->
<svg width="914pt" height="326pt"
 viewBox="0.00 0.00 914.00 326.00" xmlns="http://www.w3.org/2000/svg" xmlns:xlink="http://www.w3.org/1999/xlink">
<g id="graph0" class="graph" transform="scale(1 1) rotate(0) translate(4 322)">
<title>MicromegasClusterizer::Init</title>
<!-- Node1 -->
<g id="node1" class="node">
<title>Node1</title>
<polygon fill="#bfbfbf" stroke="#000000" points="0,-133.5 0,-165.5 132,-165.5 132,-133.5 0,-133.5"/>
<text text-anchor="start" x="8" y="-152.5" font-family="FreeSans" font-size="10.00" fill="#000000">MicromegasClusterizer</text>
<text text-anchor="middle" x="66" y="-140.5" font-family="FreeSans" font-size="10.00" fill="#000000">::Init</text>
</g>
<!-- Node2 -->
<g id="node2" class="node">
<title>Node2</title>
<g id="a_node2"><a xlink:href="../../d8/dcc/classMicromegasCalibrationData.html#ae232d25678922bec170f3180526aa6be" target="_top" xlink:title="read calibration from file">
<polygon fill="none" stroke="#000000" points="168,-133.5 168,-165.5 324,-165.5 324,-133.5 168,-133.5"/>
<text text-anchor="start" x="176" y="-152.5" font-family="FreeSans" font-size="10.00" fill="#000000">MicromegasCalibrationData</text>
<text text-anchor="middle" x="246" y="-140.5" font-family="FreeSans" font-size="10.00" fill="#000000">::read</text>
</a>
</g>
</g>
<!-- Node1&#45;&gt;Node2 -->
<g id="edge1" class="edge">
<title>Node1&#45;&gt;Node2</title>
<path fill="none" stroke="#191970" d="M132.0033,-149.5C140.3688,-149.5 149.0327,-149.5 157.6759,-149.5"/>
<polygon fill="#191970" stroke="#191970" points="157.7938,-153.0001 167.7938,-149.5 157.7938,-146.0001 157.7938,-153.0001"/>
</g>
<!-- Node3 -->
<g id="node3" class="node">
<title>Node3</title>
<g id="a_node3"><a xlink:href="../../d9/d9e/evDisplay_8C.html#a493aff38bcceaba17aef8c5257ff963a" target="_top" xlink:title="channel">
<polygon fill="none" stroke="#000000" points="408.5,-297.5 408.5,-317.5 464.5,-317.5 464.5,-297.5 408.5,-297.5"/>
<text text-anchor="middle" x="436.5" y="-304.5" font-family="FreeSans" font-size="10.00" fill="#000000">channel</text>
</a>
</g>
</g>
<!-- Node2&#45;&gt;Node3 -->
<g id="edge2" class="edge">
<title>Node2&#45;&gt;Node3</title>
<path fill="none" stroke="#191970" d="M254.5705,-165.6729C270.9529,-194.9513 309.6107,-256.6505 360,-288.5 371.4096,-295.7116 385.3833,-300.1867 398.2516,-302.9633"/>
<polygon fill="#191970" stroke="#191970" points="397.79,-306.4378 408.2646,-304.8458 399.0835,-299.5583 397.79,-306.4378"/>
</g>
<!-- Node4 -->
<g id="node4" class="node">
<title>Node4</title>
<g id="a_node4"><a xlink:href="../../d0/daa/classMicromegasMapping.html#aef733ea96ebba4383211ff2ad7e68699" target="_top" xlink:title="get list of fee ids">
<polygon fill="none" stroke="#000000" points="373,-246.5 373,-278.5 500,-278.5 500,-246.5 373,-246.5"/>
<text text-anchor="start" x="381" y="-265.5" font-family="FreeSans" font-size="10.00" fill="#000000">MicromegasMapping::</text>
<text text-anchor="middle" x="436.5" y="-253.5" font-family="FreeSans" font-size="10.00" fill="#000000">get_fee_id_list</text>
</a>
</g>
</g>
<!-- Node2&#45;&gt;Node4 -->
<g id="edge3" class="edge">
<title>Node2&#45;&gt;Node4</title>
<path fill="none" stroke="#191970" d="M265.2248,-165.528C287.1526,-183.2721 324.5672,-211.9454 360,-231.5 367.0466,-235.3889 374.6834,-239.0635 382.3123,-242.4306"/>
<polygon fill="#191970" stroke="#191970" points="381.0021,-245.6768 391.5737,-246.3791 383.7475,-239.2376 381.0021,-245.6768"/>
</g>
<!-- Node5 -->
<g id="node5" class="node">
<title>Node5</title>
<g id="a_node5"><a xlink:href="../../d0/daa/classMicromegasMapping.html#a623907b8f1a3671d95557d5bf47a4d86" target="_top" xlink:title="get hitsetkey from fiber_id (fee_id)">
<polygon fill="none" stroke="#000000" points="594.5,-201.5 594.5,-233.5 721.5,-233.5 721.5,-201.5 594.5,-201.5"/>
<text text-anchor="start" x="602.5" y="-220.5" font-family="FreeSans" font-size="10.00" fill="#000000">MicromegasMapping::</text>
<text text-anchor="middle" x="658" y="-208.5" font-family="FreeSans" font-size="10.00" fill="#000000">get_hitsetkey</text>
</a>
</g>
</g>
<!-- Node2&#45;&gt;Node5 -->
<g id="edge4" class="edge">
<title>Node2&#45;&gt;Node5</title>
<path fill="none" stroke="#191970" d="M275.5139,-165.5237C297.9795,-176.8833 330.0396,-191.3328 360,-198.5 434.8282,-216.4007 523.0524,-219.9317 583.9903,-219.7381"/>
<polygon fill="#191970" stroke="#191970" points="584.3082,-223.2361 594.2845,-219.6691 584.2612,-216.2363 584.3082,-223.2361"/>
</g>
<!-- Node6 -->
<g id="node6" class="node">
<title>Node6</title>
<g id="a_node6"><a xlink:href="../../d0/daa/classMicromegasMapping.html#a94bf897ee0b6fb3e2398a8529ee16cfd" target="_top" xlink:title="get physical strip number from channel_id">
<polygon fill="none" stroke="#000000" points="373,-156.5 373,-188.5 500,-188.5 500,-156.5 373,-156.5"/>
<text text-anchor="start" x="381" y="-175.5" font-family="FreeSans" font-size="10.00" fill="#000000">MicromegasMapping::</text>
<text text-anchor="middle" x="436.5" y="-163.5" font-family="FreeSans" font-size="10.00" fill="#000000">get_physical_strip</text>
</a>
</g>
</g>
<!-- Node2&#45;&gt;Node6 -->
<g id="edge5" class="edge">
<title>Node2&#45;&gt;Node6</title>
<path fill="none" stroke="#191970" d="M324.0333,-158.9213C336.8436,-160.468 350.0837,-162.0665 362.7847,-163.6"/>
<polygon fill="#191970" stroke="#191970" points="362.4891,-167.0896 372.8366,-164.8136 363.3282,-160.1401 362.4891,-167.0896"/>
</g>
<!-- Node9 -->
<g id="node9" class="node">
<title>Node9</title>
<g id="a_node9"><a xlink:href="../../dd/d3c/classCDBTTree.html#a283b16adecff06bde2fda35c3264505a" target="_top" xlink:title="CDBTTree::GetDoubleValue">
<polygon fill="none" stroke="#000000" points="360,-117.5 360,-137.5 513,-137.5 513,-117.5 360,-117.5"/>
<text text-anchor="middle" x="436.5" y="-124.5" font-family="FreeSans" font-size="10.00" fill="#000000">CDBTTree::GetDoubleValue</text>
</a>
</g>
</g>
<!-- Node2&#45;&gt;Node9 -->
<g id="edge9" class="edge">
<title>Node2&#45;&gt;Node9</title>
<path fill="none" stroke="#191970" d="M324.0333,-140.4883C332.5264,-139.5074 341.2084,-138.5048 349.797,-137.5129"/>
<polygon fill="#191970" stroke="#191970" points="350.287,-140.9797 359.8195,-136.3555 349.4839,-134.0259 350.287,-140.9797"/>
</g>
<!-- Node10 -->
<g id="node10" class="node">
<title>Node10</title>
<g id="a_node10"><a xlink:href="../../dd/d3c/classCDBTTree.html#aa299d0220ccd1f3ae00623c462e4f88e" target="_top" xlink:title="CDBTTree::LoadCalibrations">
<polygon fill="none" stroke="#000000" points="580,-97.5 580,-117.5 736,-117.5 736,-97.5 580,-97.5"/>
<text text-anchor="middle" x="658" y="-104.5" font-family="FreeSans" font-size="10.00" fill="#000000">CDBTTree::LoadCalibrations</text>
</a>
</g>
</g>
<!-- Node2&#45;&gt;Node10 -->
<g id="edge12" class="edge">
<title>Node2&#45;&gt;Node10</title>
<path fill="none" stroke="#191970" d="M281.0837,-133.3495C303.2028,-124.0649 332.6574,-113.3147 360,-108.5 429.7203,-96.2231 510.0467,-96.7847 569.7221,-99.9678"/>
<polygon fill="#191970" stroke="#191970" points="569.683,-103.4711 579.8656,-100.5445 570.0805,-96.4824 569.683,-103.4711"/>
</g>
<!-- Node12 -->
<g id="node12" class="node">
<title>Node12</title>
<g id="a_node12"><a xlink:href="../../d9/d9e/evDisplay_8C.html#aa88c4e96fb52fe557d1b37b229d46f38" target="_top" xlink:title="pedestal">
<polygon fill="none" stroke="#000000" points="407,-39.5 407,-59.5 466,-59.5 466,-39.5 407,-39.5"/>
<text text-anchor="middle" x="436.5" y="-46.5" font-family="FreeSans" font-size="10.00" fill="#000000">pedestal</text>
</a>
</g>
</g>
<!-- Node2&#45;&gt;Node12 -->
<g id="edge13" class="edge">
<title>Node2&#45;&gt;Node12</title>
<path fill="none" stroke="#191970" d="M266.8375,-133.3266C288.9561,-116.7648 325.4231,-91.1549 360,-74.5 371.6048,-68.9103 384.772,-64.1044 396.8714,-60.2427"/>
<polygon fill="#191970" stroke="#191970" points="398.1894,-63.4996 406.726,-57.2245 396.1394,-56.8065 398.1894,-63.4996"/>
</g>
<!-- Node13 -->
<g id="node13" class="node">
<title>Node13</title>
<g id="a_node13"><a xlink:href="../../de/de0/matchedfilter_8C.html#a6547063fbcbf53a7fdffddbd2747b29f" target="_top" xlink:title="rms">
<polygon fill="none" stroke="#000000" points="419,-.5 419,-20.5 454,-20.5 454,-.5 419,-.5"/>
<text text-anchor="middle" x="436.5" y="-7.5" font-family="FreeSans" font-size="10.00" fill="#000000">rms</text>
</a>
</g>
</g>
<!-- Node2&#45;&gt;Node13 -->
<g id="edge14" class="edge">
<title>Node2&#45;&gt;Node13</title>
<path fill="none" stroke="#191970" d="M256.8411,-133.1012C274.9822,-107.0045 314.0583,-56.2478 360,-29.5 374.7506,-20.912 393.2872,-16.1822 408.4191,-13.5897"/>
<polygon fill="#191970" stroke="#191970" points="409.3569,-16.9888 418.7329,-12.0551 408.3267,-10.065 409.3569,-16.9888"/>
</g>
<!-- Node6&#45;&gt;Node5 -->
<g id="edge6" class="edge">
<title>Node6&#45;&gt;Node5</title>
<path fill="none" stroke="#191970" d="M500.2698,-185.4555C526.5634,-190.7973 557.1938,-197.0202 584.4303,-202.5536"/>
<polygon fill="#191970" stroke="#191970" points="583.8002,-205.997 594.2969,-204.5581 585.1939,-199.1371 583.8002,-205.997"/>
</g>
<!-- Node7 -->
<g id="node7" class="node">
<title>Node7</title>
<g id="a_node7"><a xlink:href="../../d2/ddf/namespaceMicromegasDefs.html#a2e8082ed7176d97a6bcba5257738faa2" target="_top" xlink:title="Get the segmentation type from hitsetkey.">
<polygon fill="none" stroke="#000000" points="549,-162.5 549,-182.5 767,-182.5 767,-162.5 549,-162.5"/>
<text text-anchor="middle" x="658" y="-169.5" font-family="FreeSans" font-size="10.00" fill="#000000">MicromegasDefs::getSegmentationType</text>
</a>
</g>
</g>
<!-- Node6&#45;&gt;Node7 -->
<g id="edge7" class="edge">
<title>Node6&#45;&gt;Node7</title>
<path fill="none" stroke="#191970" d="M500.2698,-172.5C512.3892,-172.5 525.4299,-172.5 538.635,-172.5"/>
<polygon fill="#191970" stroke="#191970" points="538.7525,-176.0001 548.7525,-172.5 538.7525,-169.0001 538.7525,-176.0001"/>
</g>
<!-- Node8 -->
<g id="node8" class="node">
<title>Node8</title>
<g id="a_node8"><a xlink:href="../../dd/d7e/namespaceActs_1_1Test.html#a88f0887efddd644c8defc1e91456c3c9" target="_top" xlink:title="Acts::Test::tmp">
<polygon fill="none" stroke="#000000" points="808.5,-162.5 808.5,-182.5 900.5,-182.5 900.5,-162.5 808.5,-162.5"/>
<text text-anchor="middle" x="854.5" y="-169.5" font-family="FreeSans" font-size="10.00" fill="#000000">Acts::Test::tmp</text>
</a>
</g>
</g>
<!-- Node7&#45;&gt;Node8 -->
<g id="edge8" class="edge">
<title>Node7&#45;&gt;Node8</title>
<path fill="none" stroke="#191970" d="M767.1679,-172.5C777.9202,-172.5 788.4958,-172.5 798.3711,-172.5"/>
<polygon fill="#191970" stroke="#191970" points="798.3868,-176.0001 808.3868,-172.5 798.3868,-169.0001 798.3868,-176.0001"/>
</g>
<!-- Node9&#45;&gt;Node10 -->
<g id="edge10" class="edge">
<title>Node9&#45;&gt;Node10</title>
<path fill="none" stroke="#191970" d="M513.0379,-120.5891C531.3752,-118.9334 551.1001,-117.1524 569.9135,-115.4536"/>
<polygon fill="#191970" stroke="#191970" points="570.3108,-118.9321 579.9555,-114.5469 569.6812,-111.9605 570.3108,-118.9321"/>
</g>
<!-- Node11 -->
<g id="node11" class="node">
<title>Node11</title>
<g id="a_node11"><a xlink:href="../../d0/da7/namespacetesting_1_1internal.html#a635606b4731f843c86ec8ca51cab83a1" target="_top" xlink:title="testing::internal::\lGetTypeName">
<polygon fill="none" stroke="#000000" points="803,-91.5 803,-123.5 906,-123.5 906,-91.5 803,-91.5"/>
<text text-anchor="start" x="811" y="-110.5" font-family="FreeSans" font-size="10.00" fill="#000000">testing::internal::</text>
<text text-anchor="middle" x="854.5" y="-98.5" font-family="FreeSans" font-size="10.00" fill="#000000">GetTypeName</text>
</a>
</g>
</g>
<!-- Node10&#45;&gt;Node11 -->
<g id="edge11" class="edge">
<title>Node10&#45;&gt;Node11</title>
<path fill="none" stroke="#191970" d="M736.2266,-107.5C755.0127,-107.5 774.8187,-107.5 792.7374,-107.5"/>
<polygon fill="#191970" stroke="#191970" points="792.7626,-111.0001 802.7625,-107.5 792.7625,-104.0001 792.7626,-111.0001"/>
</g>
<!-- Node14 -->
<g id="node14" class="node">
<title>Node14</title>
<g id="a_node14"><a xlink:href="../../da/d55/TPCRateLayered_8m.html#a7507ef556477c204b499f1e189d40796" target="_top" xlink:title="sum">
<polygon fill="none" stroke="#000000" points="639,-.5 639,-20.5 677,-20.5 677,-.5 639,-.5"/>
<text text-anchor="middle" x="658" y="-7.5" font-family="FreeSans" font-size="10.00" fill="#000000">sum</text>
</a>
</g>
</g>
<!-- Node13&#45;&gt;Node14 -->
<g id="edge15" class="edge">
<title>Node13&#45;&gt;Node14</title>
<path fill="none" stroke="#191970" d="M454.2519,-10.5C492.3478,-10.5 582.2542,-10.5 628.8548,-10.5"/>
<polygon fill="#191970" stroke="#191970" points="628.9114,-14.0001 638.9113,-10.5 628.9113,-7.0001 628.9114,-14.0001"/>
</g>
</g>
</svg>
