<?xml version="1.0" encoding="UTF-8" standalone="no"?>
<!DOCTYPE svg PUBLIC "-//W3C//DTD SVG 1.1//EN"
 "http://www.w3.org/Graphics/SVG/1.1/DTD/svg11.dtd">
<!-- Generated by graphviz version 2.40.1 (20161225.0304)
 -->
<!-- Title: AnalyzeSimpleTree::Init Pages: 1 -->
<svg width="1362pt" height="337pt"
 viewBox="0.00 0.00 1362.00 337.00" xmlns="http://www.w3.org/2000/svg" xmlns:xlink="http://www.w3.org/1999/xlink">
<g id="graph0" class="graph" transform="scale(1 1) rotate(0) translate(4 333)">
<title>AnalyzeSimpleTree::Init</title>
<!-- Node1 -->
<g id="node1" class="node">
<title>Node1</title>
<polygon fill="#bfbfbf" stroke="#000000" points="0,-121.5 0,-141.5 136,-141.5 136,-121.5 0,-121.5"/>
<text text-anchor="middle" x="68" y="-128.5" font-family="FreeSans" font-size="10.00" fill="#000000">AnalyzeSimpleTree::Init</text>
</g>
<!-- Node2 -->
<g id="node2" class="node">
<title>Node2</title>
<g id="a_node2"><a xlink:href="../../da/d29/classFun4AllServer.html#a3e55156f91b2c94bb6c4ef33ffce587a" target="_top" xlink:title="Fun4AllServer::instance">
<polygon fill="none" stroke="#000000" points="172,-121.5 172,-141.5 308,-141.5 308,-121.5 172,-121.5"/>
<text text-anchor="middle" x="240" y="-128.5" font-family="FreeSans" font-size="10.00" fill="#000000">Fun4AllServer::instance</text>
</a>
</g>
</g>
<!-- Node1&#45;&gt;Node2 -->
<g id="edge1" class="edge">
<title>Node1&#45;&gt;Node2</title>
<path fill="none" stroke="#191970" d="M136.4732,-131.5C144.7318,-131.5 153.2157,-131.5 161.6024,-131.5"/>
<polygon fill="#191970" stroke="#191970" points="161.7625,-135.0001 171.7624,-131.5 161.7624,-128.0001 161.7625,-135.0001"/>
</g>
<!-- Node12 -->
<g id="node12" class="node">
<title>Node12</title>
<g id="a_node12"><a xlink:href="../../da/d29/classFun4AllServer.html#a377f113767f24ce6413e678752ed7f53" target="_top" xlink:title="Fun4AllServer::registerHisto\lManager">
<polygon fill="none" stroke="#000000" points="702,-.5 702,-32.5 860,-32.5 860,-.5 702,-.5"/>
<text text-anchor="start" x="710" y="-19.5" font-family="FreeSans" font-size="10.00" fill="#000000">Fun4AllServer::registerHisto</text>
<text text-anchor="middle" x="781" y="-7.5" font-family="FreeSans" font-size="10.00" fill="#000000">Manager</text>
</a>
</g>
</g>
<!-- Node1&#45;&gt;Node12 -->
<g id="edge24" class="edge">
<title>Node1&#45;&gt;Node12</title>
<path fill="none" stroke="#191970" d="M118.1874,-121.4782C135.2429,-118.1712 154.4295,-114.5589 172,-111.5 356.1297,-79.444 572.4888,-46.9083 691.3902,-29.4691"/>
<polygon fill="#191970" stroke="#191970" points="692.1479,-32.8955 701.535,-27.9831 691.1333,-25.9694 692.1479,-32.8955"/>
</g>
<!-- Node15 -->
<g id="node15" class="node">
<title>Node15</title>
<g id="a_node15"><a xlink:href="../../d3/d96/classFun4AllHistoManager.html#a7e1354855437fa28bb0d29dc0581d0a6" target="_top" xlink:title="Fun4AllHistoManager\l::registerHisto">
<polygon fill="none" stroke="#000000" points="915,-191.5 915,-223.5 1039,-223.5 1039,-191.5 915,-191.5"/>
<text text-anchor="start" x="923" y="-210.5" font-family="FreeSans" font-size="10.00" fill="#000000">Fun4AllHistoManager</text>
<text text-anchor="middle" x="977" y="-198.5" font-family="FreeSans" font-size="10.00" fill="#000000">::registerHisto</text>
</a>
</g>
</g>
<!-- Node1&#45;&gt;Node15 -->
<g id="edge23" class="edge">
<title>Node1&#45;&gt;Node15</title>
<path fill="none" stroke="#191970" d="M81.1522,-141.5077C126.4101,-174.9153 280.9231,-280.5 426,-280.5 426,-280.5 426,-280.5 605,-280.5 718.6814,-280.5 749.9036,-288.824 860,-260.5 867.7797,-258.4986 903.8693,-241.9588 933.9346,-227.8811"/>
<polygon fill="#191970" stroke="#191970" points="935.4687,-231.0275 943.0339,-223.6101 932.4943,-224.6909 935.4687,-231.0275"/>
</g>
<!-- Node3 -->
<g id="node3" class="node">
<title>Node3</title>
<g id="a_node3"><a xlink:href="../../da/d29/classFun4AllServer.html#a90e27f05f0b2e8b6fe462387b14bfb92" target="_top" xlink:title="Fun4AllServer::Fun4AllServer">
<polygon fill="none" stroke="#000000" points="344,-121.5 344,-141.5 508,-141.5 508,-121.5 344,-121.5"/>
<text text-anchor="middle" x="426" y="-128.5" font-family="FreeSans" font-size="10.00" fill="#000000">Fun4AllServer::Fun4AllServer</text>
</a>
</g>
</g>
<!-- Node2&#45;&gt;Node3 -->
<g id="edge2" class="edge">
<title>Node2&#45;&gt;Node3</title>
<path fill="none" stroke="#191970" d="M308.2034,-131.5C316.5496,-131.5 325.1833,-131.5 333.8078,-131.5"/>
<polygon fill="#191970" stroke="#191970" points="333.9101,-135.0001 343.9101,-131.5 333.9101,-128.0001 333.9101,-135.0001"/>
</g>
<!-- Node4 -->
<g id="node4" class="node">
<title>Node4</title>
<g id="a_node4"><a xlink:href="../../da/d29/classFun4AllServer.html#aa1939c3e2c3113cce0a6415103b4f5a5" target="_top" xlink:title="Fun4AllServer::InitAll">
<polygon fill="none" stroke="#000000" points="544,-121.5 544,-141.5 666,-141.5 666,-121.5 544,-121.5"/>
<text text-anchor="middle" x="605" y="-128.5" font-family="FreeSans" font-size="10.00" fill="#000000">Fun4AllServer::InitAll</text>
</a>
</g>
</g>
<!-- Node3&#45;&gt;Node4 -->
<g id="edge3" class="edge">
<title>Node3&#45;&gt;Node4</title>
<path fill="none" stroke="#191970" d="M508.1655,-131.5C516.725,-131.5 525.3746,-131.5 533.7983,-131.5"/>
<polygon fill="#191970" stroke="#191970" points="533.9401,-135.0001 543.94,-131.5 533.94,-128.0001 533.9401,-135.0001"/>
</g>
<!-- Node5 -->
<g id="node5" class="node">
<title>Node5</title>
<g id="a_node5"><a xlink:href="../../d5/d4f/classFun4AllMonitoring.html#a4d2dc73220d8300c356f258b8c6283a8" target="_top" xlink:title="Fun4AllMonitoring::\linstance">
<polygon fill="none" stroke="#000000" points="724,-141.5 724,-173.5 838,-173.5 838,-141.5 724,-141.5"/>
<text text-anchor="start" x="732" y="-160.5" font-family="FreeSans" font-size="10.00" fill="#000000">Fun4AllMonitoring::</text>
<text text-anchor="middle" x="781" y="-148.5" font-family="FreeSans" font-size="10.00" fill="#000000">instance</text>
</a>
</g>
</g>
<!-- Node4&#45;&gt;Node5 -->
<g id="edge4" class="edge">
<title>Node4&#45;&gt;Node5</title>
<path fill="none" stroke="#191970" d="M666.0623,-140.5206C681.4551,-142.7945 698.0648,-145.2482 713.743,-147.5643"/>
<polygon fill="#191970" stroke="#191970" points="713.485,-151.0641 723.8892,-149.0632 714.5081,-144.1393 713.485,-151.0641"/>
</g>
<!-- Node7 -->
<g id="node7" class="node">
<title>Node7</title>
<g id="a_node7"><a xlink:href="../../d5/d4f/classFun4AllMonitoring.html#aeea0018148441caf4a9a1b5cc448ecfb" target="_top" xlink:title="Fun4AllMonitoring::\lSnapshot">
<polygon fill="none" stroke="#000000" points="724,-90.5 724,-122.5 838,-122.5 838,-90.5 724,-90.5"/>
<text text-anchor="start" x="732" y="-109.5" font-family="FreeSans" font-size="10.00" fill="#000000">Fun4AllMonitoring::</text>
<text text-anchor="middle" x="781" y="-97.5" font-family="FreeSans" font-size="10.00" fill="#000000">Snapshot</text>
</a>
</g>
</g>
<!-- Node4&#45;&gt;Node7 -->
<g id="edge6" class="edge">
<title>Node4&#45;&gt;Node7</title>
<path fill="none" stroke="#191970" d="M666.0623,-122.8264C681.4551,-120.6399 698.0648,-118.2806 713.743,-116.0535"/>
<polygon fill="#191970" stroke="#191970" points="714.4808,-119.484 723.8892,-114.6123 713.4963,-112.5535 714.4808,-119.484"/>
</g>
<!-- Node11 -->
<g id="node11" class="node">
<title>Node11</title>
<g id="a_node11"><a xlink:href="../../d5/dec/classFun4AllBase.html#a41f9ac377743d046f590617fd6f4f0ed" target="_top" xlink:title="Returns the name of this module.">
<polygon fill="none" stroke="#000000" points="919.5,-49.5 919.5,-69.5 1034.5,-69.5 1034.5,-49.5 919.5,-49.5"/>
<text text-anchor="middle" x="977" y="-56.5" font-family="FreeSans" font-size="10.00" fill="#000000">Fun4AllBase::Name</text>
</a>
</g>
</g>
<!-- Node4&#45;&gt;Node11 -->
<g id="edge10" class="edge">
<title>Node4&#45;&gt;Node11</title>
<path fill="none" stroke="#191970" d="M619.6391,-121.3413C637.9575,-109.2287 670.7337,-89.4953 702,-80.5 770.6611,-60.7462 852.7077,-56.8856 909.2098,-57.102"/>
<polygon fill="#191970" stroke="#191970" points="909.425,-60.6038 919.4537,-57.187 909.4831,-53.6041 909.425,-60.6038"/>
</g>
<!-- Node4&#45;&gt;Node12 -->
<g id="edge11" class="edge">
<title>Node4&#45;&gt;Node12</title>
<path fill="none" stroke="#191970" d="M617.8336,-121.4123C630.3294,-111.49 649.7591,-95.7941 666,-81.5 682.5205,-66.9598 683.417,-59.2906 702,-47.5 708.2436,-43.5385 715.0755,-39.9389 722.0249,-36.7114"/>
<polygon fill="#191970" stroke="#191970" points="723.7783,-39.7643 731.5301,-32.542 720.9664,-33.3538 723.7783,-39.7643"/>
</g>
<!-- Node14 -->
<g id="node14" class="node">
<title>Node14</title>
<g id="a_node14"><a xlink:href="../../da/d29/classFun4AllServer.html#a1d7daeb59511a7dc61a2566f4116a6ec" target="_top" xlink:title="Fun4AllServer::registerHisto">
<polygon fill="none" stroke="#000000" points="702,-192.5 702,-212.5 860,-212.5 860,-192.5 702,-192.5"/>
<text text-anchor="middle" x="781" y="-199.5" font-family="FreeSans" font-size="10.00" fill="#000000">Fun4AllServer::registerHisto</text>
</a>
</g>
</g>
<!-- Node4&#45;&gt;Node14 -->
<g id="edge14" class="edge">
<title>Node4&#45;&gt;Node14</title>
<path fill="none" stroke="#191970" d="M621.2621,-141.5832C640.0922,-152.8902 672.331,-171.1287 702,-182.5 708.9811,-185.1757 716.4463,-187.5989 723.8982,-189.7599"/>
<polygon fill="#191970" stroke="#191970" points="723.0744,-193.1633 733.6451,-192.4489 724.9361,-186.4154 723.0744,-193.1633"/>
</g>
<!-- Node17 -->
<g id="node17" class="node">
<title>Node17</title>
<g id="a_node17"><a xlink:href="../../da/d29/classFun4AllServer.html#a2ebfcdcf706670c98c189bfa93c3ff89" target="_top" xlink:title="Fun4AllServer::InitNodeTree">
<polygon fill="none" stroke="#000000" points="702.5,-231.5 702.5,-251.5 859.5,-251.5 859.5,-231.5 702.5,-231.5"/>
<text text-anchor="middle" x="781" y="-238.5" font-family="FreeSans" font-size="10.00" fill="#000000">Fun4AllServer::InitNodeTree</text>
</a>
</g>
</g>
<!-- Node4&#45;&gt;Node17 -->
<g id="edge18" class="edge">
<title>Node4&#45;&gt;Node17</title>
<path fill="none" stroke="#191970" d="M612.8905,-141.6124C628.0622,-160.3413 663.2494,-200.4326 702,-221.5 706.5446,-223.9708 711.4026,-226.1437 716.3916,-228.0536"/>
<polygon fill="#191970" stroke="#191970" points="715.5048,-231.4502 726.0996,-231.4111 717.7929,-224.8347 715.5048,-231.4502"/>
</g>
<!-- Node6 -->
<g id="node6" class="node">
<title>Node6</title>
<g id="a_node6"><a xlink:href="../../d5/d4f/classFun4AllMonitoring.html#aaf0fd3c11a5727613f4a81e113eb8675" target="_top" xlink:title="Fun4AllMonitoring::\lFun4AllMonitoring">
<polygon fill="none" stroke="#000000" points="920,-140.5 920,-172.5 1034,-172.5 1034,-140.5 920,-140.5"/>
<text text-anchor="start" x="928" y="-159.5" font-family="FreeSans" font-size="10.00" fill="#000000">Fun4AllMonitoring::</text>
<text text-anchor="middle" x="977" y="-147.5" font-family="FreeSans" font-size="10.00" fill="#000000">Fun4AllMonitoring</text>
</a>
</g>
</g>
<!-- Node5&#45;&gt;Node6 -->
<g id="edge5" class="edge">
<title>Node5&#45;&gt;Node6</title>
<path fill="none" stroke="#191970" d="M838.2182,-157.2081C860.5611,-157.0941 886.3462,-156.9625 909.5821,-156.844"/>
<polygon fill="#191970" stroke="#191970" points="909.7287,-160.3434 919.7107,-156.7923 909.6929,-153.3435 909.7287,-160.3434"/>
</g>
<!-- Node8 -->
<g id="node8" class="node">
<title>Node8</title>
<g id="a_node8"><a xlink:href="../../d5/d4f/classFun4AllMonitoring.html#a4a815a60428fa831a2b25d7ff4e48281" target="_top" xlink:title="Fun4AllMonitoring::\lGet_Memory">
<polygon fill="none" stroke="#000000" points="920,-89.5 920,-121.5 1034,-121.5 1034,-89.5 920,-89.5"/>
<text text-anchor="start" x="928" y="-108.5" font-family="FreeSans" font-size="10.00" fill="#000000">Fun4AllMonitoring::</text>
<text text-anchor="middle" x="977" y="-96.5" font-family="FreeSans" font-size="10.00" fill="#000000">Get_Memory</text>
</a>
</g>
</g>
<!-- Node7&#45;&gt;Node8 -->
<g id="edge7" class="edge">
<title>Node7&#45;&gt;Node8</title>
<path fill="none" stroke="#191970" d="M838.2182,-106.2081C860.5611,-106.0941 886.3462,-105.9625 909.5821,-105.844"/>
<polygon fill="#191970" stroke="#191970" points="909.7287,-109.3434 919.7107,-105.7923 909.6929,-102.3435 909.7287,-109.3434"/>
</g>
<!-- Node9 -->
<g id="node9" class="node">
<title>Node9</title>
<g id="a_node9"><a xlink:href="../../d9/dda/arsenal_8cpp.html#aa7cb820696f8a66d03330e091482020c" target="_top" xlink:title="trim">
<polygon fill="none" stroke="#000000" points="1141.5,-95.5 1141.5,-115.5 1178.5,-115.5 1178.5,-95.5 1141.5,-95.5"/>
<text text-anchor="middle" x="1160" y="-102.5" font-family="FreeSans" font-size="10.00" fill="#000000">trim</text>
</a>
</g>
</g>
<!-- Node8&#45;&gt;Node9 -->
<g id="edge8" class="edge">
<title>Node8&#45;&gt;Node9</title>
<path fill="none" stroke="#191970" d="M1034.1496,-105.5C1066.2665,-105.5 1104.9887,-105.5 1130.9236,-105.5"/>
<polygon fill="#191970" stroke="#191970" points="1131.1992,-109.0001 1141.1992,-105.5 1131.1991,-102.0001 1131.1992,-109.0001"/>
</g>
<!-- Node10 -->
<g id="node10" class="node">
<title>Node10</title>
<g id="a_node10"><a xlink:href="../../dd/d7e/namespaceActs_1_1Test.html#a88f0887efddd644c8defc1e91456c3c9" target="_top" xlink:title="Acts::Test::tmp">
<polygon fill="none" stroke="#000000" points="1262,-95.5 1262,-115.5 1354,-115.5 1354,-95.5 1262,-95.5"/>
<text text-anchor="middle" x="1308" y="-102.5" font-family="FreeSans" font-size="10.00" fill="#000000">Acts::Test::tmp</text>
</a>
</g>
</g>
<!-- Node9&#45;&gt;Node10 -->
<g id="edge9" class="edge">
<title>Node9&#45;&gt;Node10</title>
<path fill="none" stroke="#191970" d="M1178.7443,-105.5C1197.0785,-105.5 1225.9265,-105.5 1251.7218,-105.5"/>
<polygon fill="#191970" stroke="#191970" points="1251.8013,-109.0001 1261.8012,-105.5 1251.8012,-102.0001 1251.8013,-109.0001"/>
</g>
<!-- Node12&#45;&gt;Node11 -->
<g id="edge12" class="edge">
<title>Node12&#45;&gt;Node11</title>
<path fill="none" stroke="#191970" d="M853.9832,-32.5116C876.2441,-37.3954 900.3508,-42.6841 921.2761,-47.2749"/>
<polygon fill="#191970" stroke="#191970" points="920.7532,-50.7433 931.2709,-49.4676 922.2532,-43.9059 920.7532,-50.7433"/>
</g>
<!-- Node13 -->
<g id="node13" class="node">
<title>Node13</title>
<g id="a_node13"><a xlink:href="../../d5/dec/classFun4AllBase.html#a8a5c77a92bdac6bc043476e132379a40" target="_top" xlink:title="Gets the verbosity of this module.">
<polygon fill="none" stroke="#000000" points="1094,-146.5 1094,-166.5 1226,-166.5 1226,-146.5 1094,-146.5"/>
<text text-anchor="middle" x="1160" y="-153.5" font-family="FreeSans" font-size="10.00" fill="#000000">Fun4AllBase::Verbosity</text>
</a>
</g>
</g>
<!-- Node12&#45;&gt;Node13 -->
<g id="edge13" class="edge">
<title>Node12&#45;&gt;Node13</title>
<path fill="none" stroke="#191970" d="M860.1012,-2.5838C919.98,3.4553 1001.318,1.5252 1058,-39.5 1091.2346,-63.5545 1065.7366,-94.7622 1094,-124.5 1100.9016,-131.7616 1109.7944,-137.5822 1118.8028,-142.1616"/>
<polygon fill="#191970" stroke="#191970" points="1117.6087,-145.4657 1128.1537,-146.4929 1120.5509,-139.114 1117.6087,-145.4657"/>
</g>
<!-- Node14&#45;&gt;Node15 -->
<g id="edge15" class="edge">
<title>Node14&#45;&gt;Node15</title>
<path fill="none" stroke="#191970" d="M860.1557,-204.5193C874.7752,-204.8922 889.976,-205.28 904.3898,-205.6477"/>
<polygon fill="#191970" stroke="#191970" points="904.6406,-209.1551 914.7266,-205.9114 904.8192,-202.1574 904.6406,-209.1551"/>
</g>
<!-- Node15&#45;&gt;Node13 -->
<g id="edge16" class="edge">
<title>Node15&#45;&gt;Node13</title>
<path fill="none" stroke="#191970" d="M1034.6512,-191.4333C1060.2275,-184.3055 1089.9113,-176.0329 1113.9709,-169.3278"/>
<polygon fill="#191970" stroke="#191970" points="1115.2162,-172.6142 1123.9095,-166.558 1113.337,-165.8711 1115.2162,-172.6142"/>
</g>
<!-- Node16 -->
<g id="node16" class="node">
<title>Node16</title>
<g id="a_node16"><a xlink:href="../../dc/df6/200pp__pythia8__CTEQ6L__7GeV__ALL_8cfg__eneg__DSTReader_8root__Draw__HFJetTruth__CrossSection2RAA_8C.html#abf6f7b5ad3b256b0f81411de1474963c" target="_top" xlink:title="SetDirectory">
<polygon fill="none" stroke="#000000" points="1120.5,-191.5 1120.5,-211.5 1199.5,-211.5 1199.5,-191.5 1120.5,-191.5"/>
<text text-anchor="middle" x="1160" y="-198.5" font-family="FreeSans" font-size="10.00" fill="#000000">SetDirectory</text>
</a>
</g>
</g>
<!-- Node15&#45;&gt;Node16 -->
<g id="edge17" class="edge">
<title>Node15&#45;&gt;Node16</title>
<path fill="none" stroke="#191970" d="M1039.2108,-205.4603C1062.3786,-204.7007 1088.3469,-203.8493 1110.2515,-203.1311"/>
<polygon fill="#191970" stroke="#191970" points="1110.4457,-206.6267 1120.3256,-202.8008 1110.2163,-199.6305 1110.4457,-206.6267"/>
</g>
<!-- Node18 -->
<g id="node18" class="node">
<title>Node18</title>
<g id="a_node18"><a xlink:href="../../d5/dca/classPHCompositeNode.html#a15a0c4804399a9de4267647f05bd1ba4" target="_top" xlink:title="PHCompositeNode::addNode">
<polygon fill="none" stroke="#000000" points="896,-256.5 896,-276.5 1058,-276.5 1058,-256.5 896,-256.5"/>
<text text-anchor="middle" x="977" y="-263.5" font-family="FreeSans" font-size="10.00" fill="#000000">PHCompositeNode::addNode</text>
</a>
</g>
</g>
<!-- Node17&#45;&gt;Node18 -->
<g id="edge19" class="edge">
<title>Node17&#45;&gt;Node18</title>
<path fill="none" stroke="#191970" d="M859.5914,-251.5244C869.0766,-252.7343 878.8146,-253.9764 888.4304,-255.2029"/>
<polygon fill="#191970" stroke="#191970" points="888.0285,-258.6799 898.391,-256.4733 888.9143,-251.7361 888.0285,-258.6799"/>
</g>
<!-- Node19 -->
<g id="node19" class="node">
<title>Node19</title>
<g id="a_node19"><a xlink:href="../../dc/d82/classPHNode.html#aca3576f926a4401eddc3d88bf0ce0de3" target="_top" xlink:title="PHNode::getName">
<polygon fill="none" stroke="#000000" points="1105.5,-308.5 1105.5,-328.5 1214.5,-328.5 1214.5,-308.5 1105.5,-308.5"/>
<text text-anchor="middle" x="1160" y="-315.5" font-family="FreeSans" font-size="10.00" fill="#000000">PHNode::getName</text>
</a>
</g>
</g>
<!-- Node18&#45;&gt;Node19 -->
<g id="edge20" class="edge">
<title>Node18&#45;&gt;Node19</title>
<path fill="none" stroke="#191970" d="M1012.2842,-276.5261C1041.4311,-284.8083 1083.0033,-296.6212 1114.624,-305.6063"/>
<polygon fill="#191970" stroke="#191970" points="1113.9365,-309.0494 1124.5123,-308.4161 1115.8498,-302.316 1113.9365,-309.0494"/>
</g>
<!-- Node20 -->
<g id="node20" class="node">
<title>Node20</title>
<g id="a_node20"><a xlink:href="../../dc/d82/classPHNode.html#adda2bd6cef2d5067bbe3016a990b7198" target="_top" xlink:title="PHNode::setParent">
<polygon fill="none" stroke="#000000" points="1104.5,-269.5 1104.5,-289.5 1215.5,-289.5 1215.5,-269.5 1104.5,-269.5"/>
<text text-anchor="middle" x="1160" y="-276.5" font-family="FreeSans" font-size="10.00" fill="#000000">PHNode::setParent</text>
</a>
</g>
</g>
<!-- Node18&#45;&gt;Node20 -->
<g id="edge21" class="edge">
<title>Node18&#45;&gt;Node20</title>
<path fill="none" stroke="#191970" d="M1058.0656,-272.2588C1070.1924,-273.1202 1082.5669,-273.9993 1094.322,-274.8344"/>
<polygon fill="#191970" stroke="#191970" points="1094.2482,-278.3378 1104.4711,-275.5553 1094.7443,-271.3554 1094.2482,-278.3378"/>
</g>
<!-- Node21 -->
<g id="node21" class="node">
<title>Node21</title>
<g id="a_node21"><a xlink:href="../../d6/d86/classPHPointerList.html#ac2176735e9d046a034f1686fd2c477eb" target="_top" xlink:title="PHPointerList::append">
<polygon fill="none" stroke="#000000" points="1096,-230.5 1096,-250.5 1224,-250.5 1224,-230.5 1096,-230.5"/>
<text text-anchor="middle" x="1160" y="-237.5" font-family="FreeSans" font-size="10.00" fill="#000000">PHPointerList::append</text>
</a>
</g>
</g>
<!-- Node18&#45;&gt;Node21 -->
<g id="edge22" class="edge">
<title>Node18&#45;&gt;Node21</title>
<path fill="none" stroke="#191970" d="M1047.4908,-256.4849C1060.0437,-254.7014 1073.1542,-252.8387 1085.8065,-251.0411"/>
<polygon fill="#191970" stroke="#191970" points="1086.4276,-254.4881 1095.8358,-249.6162 1085.4429,-247.5577 1086.4276,-254.4881"/>
</g>
</g>
</svg>
