<?xml version="1.0" encoding="UTF-8" standalone="no"?>
<!DOCTYPE svg PUBLIC "-//W3C//DTD SVG 1.1//EN"
 "http://www.w3.org/Graphics/SVG/1.1/DTD/svg11.dtd">
<!-- Generated by graphviz version 2.40.1 (20161225.0304)
 -->
<!-- Title: KFParticle_Upsilon_Reco Pages: 1 -->
<svg width="718pt" height="923pt"
 viewBox="0.00 0.00 718.00 923.00" xmlns="http://www.w3.org/2000/svg" xmlns:xlink="http://www.w3.org/1999/xlink">
<g id="graph0" class="graph" transform="scale(1 1) rotate(0) translate(4 919)">
<title>KFParticle_Upsilon_Reco</title>
<!-- Node1 -->
<g id="node1" class="node">
<title>Node1</title>
<polygon fill="#bfbfbf" stroke="#000000" points="0,-453.5 0,-473.5 138,-473.5 138,-453.5 0,-453.5"/>
<text text-anchor="middle" x="69" y="-460.5" font-family="FreeSans" font-size="10.00" fill="#000000">KFParticle_Upsilon_Reco</text>
</g>
<!-- Node2 -->
<g id="node2" class="node">
<title>Node2</title>
<g id="a_node2"><a xlink:href="../../d5/d72/classKFParticle__sPHENIX.html#aa488e04f0f65f07add49dc2363eebd6b" target="_top" xlink:title="KFParticle_sPHENIX\l::constrainToPrimaryVertex">
<polygon fill="none" stroke="#000000" points="192,-882.5 192,-914.5 344,-914.5 344,-882.5 192,-882.5"/>
<text text-anchor="start" x="200" y="-901.5" font-family="FreeSans" font-size="10.00" fill="#000000">KFParticle_sPHENIX</text>
<text text-anchor="middle" x="268" y="-889.5" font-family="FreeSans" font-size="10.00" fill="#000000">::constrainToPrimaryVertex</text>
</a>
</g>
</g>
<!-- Node1&#45;&gt;Node2 -->
<g id="edge1" class="edge">
<title>Node1&#45;&gt;Node2</title>
<path fill="none" stroke="#191970" d="M70.2347,-473.8451C77.327,-531.5894 114.6556,-813.6053 174,-873.5 176.7151,-876.2403 179.6941,-878.6906 182.8683,-880.8808"/>
<polygon fill="#191970" stroke="#191970" points="181.2904,-884.0138 191.6795,-886.0917 184.8537,-877.9886 181.2904,-884.0138"/>
</g>
<!-- Node3 -->
<g id="node3" class="node">
<title>Node3</title>
<g id="a_node3"><a xlink:href="../../d5/d72/classKFParticle__sPHENIX.html#a59a04bdd249530b00c85f7e3cda45ef5" target="_top" xlink:title="KFParticle_sPHENIX\l::doTruthMatching">
<polygon fill="none" stroke="#000000" points="211,-831.5 211,-863.5 325,-863.5 325,-831.5 211,-831.5"/>
<text text-anchor="start" x="219" y="-850.5" font-family="FreeSans" font-size="10.00" fill="#000000">KFParticle_sPHENIX</text>
<text text-anchor="middle" x="268" y="-838.5" font-family="FreeSans" font-size="10.00" fill="#000000">::doTruthMatching</text>
</a>
</g>
</g>
<!-- Node1&#45;&gt;Node3 -->
<g id="edge2" class="edge">
<title>Node1&#45;&gt;Node3</title>
<path fill="none" stroke="#191970" d="M70.5919,-473.5892C79.1219,-526.4276 121.0138,-770.8016 174,-822.5 181.6024,-829.9176 191.1435,-835.1994 201.2117,-838.9471"/>
<polygon fill="#191970" stroke="#191970" points="200.3888,-842.359 210.9802,-842.0899 202.5327,-835.6954 200.3888,-842.359"/>
</g>
<!-- Node4 -->
<g id="node4" class="node">
<title>Node4</title>
<g id="a_node4"><a xlink:href="../../d5/d72/classKFParticle__sPHENIX.html#a0ae2de4e6f6ca8da8e42bbb8cac9efe1" target="_top" xlink:title="KFParticle_sPHENIX\l::getDetectorInfo">
<polygon fill="none" stroke="#000000" points="211,-780.5 211,-812.5 325,-812.5 325,-780.5 211,-780.5"/>
<text text-anchor="start" x="219" y="-799.5" font-family="FreeSans" font-size="10.00" fill="#000000">KFParticle_sPHENIX</text>
<text text-anchor="middle" x="268" y="-787.5" font-family="FreeSans" font-size="10.00" fill="#000000">::getDetectorInfo</text>
</a>
</g>
</g>
<!-- Node1&#45;&gt;Node4 -->
<g id="edge3" class="edge">
<title>Node1&#45;&gt;Node4</title>
<path fill="none" stroke="#191970" d="M69.4321,-473.7774C71.7732,-516.1692 86.3643,-679.2599 174,-765.5 181.6895,-773.067 191.2608,-778.787 201.3285,-783.1108"/>
<polygon fill="#191970" stroke="#191970" points="200.0842,-786.3821 210.6742,-786.702 202.5951,-779.8479 200.0842,-786.3821"/>
</g>
<!-- Node5 -->
<g id="node5" class="node">
<title>Node5</title>
<g id="a_node5"><a xlink:href="../../da/d29/classFun4AllServer.html#a3e55156f91b2c94bb6c4ef33ffce587a" target="_top" xlink:title="Fun4AllServer::instance">
<polygon fill="none" stroke="#000000" points="398,-851.5 398,-871.5 534,-871.5 534,-851.5 398,-851.5"/>
<text text-anchor="middle" x="466" y="-858.5" font-family="FreeSans" font-size="10.00" fill="#000000">Fun4AllServer::instance</text>
</a>
</g>
</g>
<!-- Node1&#45;&gt;Node5 -->
<g id="edge4" class="edge">
<title>Node1&#45;&gt;Node5</title>
<path fill="none" stroke="#191970" d="M69.6474,-473.7393C72.7615,-513.8153 89.7571,-661.3128 174,-732.5 239.1795,-787.5782 294.2238,-719.6506 362,-771.5 390.1004,-792.997 370.6457,-820.0613 398,-842.5 399.8095,-843.9844 401.7274,-845.353 403.7274,-846.6149"/>
<polygon fill="#191970" stroke="#191970" points="402.4655,-849.907 412.9411,-851.4921 405.7404,-843.7203 402.4655,-849.907"/>
</g>
<!-- Node6 -->
<g id="node6" class="node">
<title>Node6</title>
<g id="a_node6"><a xlink:href="../../da/d29/classFun4AllServer.html#a0a9947db0ede1e55622001eb7515f8c0" target="_top" xlink:title="Fun4AllServer::registerSubsystem">
<polygon fill="none" stroke="#000000" points="174,-702.5 174,-722.5 362,-722.5 362,-702.5 174,-702.5"/>
<text text-anchor="middle" x="268" y="-709.5" font-family="FreeSans" font-size="10.00" fill="#000000">Fun4AllServer::registerSubsystem</text>
</a>
</g>
</g>
<!-- Node1&#45;&gt;Node6 -->
<g id="edge5" class="edge">
<title>Node1&#45;&gt;Node6</title>
<path fill="none" stroke="#191970" d="M70.374,-473.764C75.825,-510.1955 99.3981,-634.2764 174,-693.5 175.8012,-694.9299 177.6816,-696.2607 179.6275,-697.4992"/>
<polygon fill="#191970" stroke="#191970" points="178.081,-700.6424 188.5362,-702.3569 181.4322,-694.4967 178.081,-700.6424"/>
</g>
<!-- Node15 -->
<g id="node15" class="node">
<title>Node15</title>
<g id="a_node15"><a xlink:href="../../d5/d72/classKFParticle__sPHENIX.html#a20ffe97d52602ec3481fc333025364d0" target="_top" xlink:title="KFParticle_sPHENIX\l::saveDST">
<polygon fill="none" stroke="#000000" points="211,-600.5 211,-632.5 325,-632.5 325,-600.5 211,-600.5"/>
<text text-anchor="start" x="219" y="-619.5" font-family="FreeSans" font-size="10.00" fill="#000000">KFParticle_sPHENIX</text>
<text text-anchor="middle" x="268" y="-607.5" font-family="FreeSans" font-size="10.00" fill="#000000">::saveDST</text>
</a>
</g>
</g>
<!-- Node1&#45;&gt;Node15 -->
<g id="edge19" class="edge">
<title>Node1&#45;&gt;Node15</title>
<path fill="none" stroke="#191970" d="M74.3291,-473.6269C87.6606,-497.9386 124.9363,-559.9224 174,-591.5 182.307,-596.8464 191.726,-601.0548 201.3151,-604.3661"/>
<polygon fill="#191970" stroke="#191970" points="200.3366,-607.7273 210.926,-607.3874 202.4359,-601.0495 200.3366,-607.7273"/>
</g>
<!-- Node17 -->
<g id="node17" class="node">
<title>Node17</title>
<g id="a_node17"><a xlink:href="../../d5/d72/classKFParticle__sPHENIX.html#a5017c5e94543ae7d1017419a42578b3b" target="_top" xlink:title="KFParticle_sPHENIX\l::saveOutput">
<polygon fill="none" stroke="#000000" points="211,-651.5 211,-683.5 325,-683.5 325,-651.5 211,-651.5"/>
<text text-anchor="start" x="219" y="-670.5" font-family="FreeSans" font-size="10.00" fill="#000000">KFParticle_sPHENIX</text>
<text text-anchor="middle" x="268" y="-658.5" font-family="FreeSans" font-size="10.00" fill="#000000">::saveOutput</text>
</a>
</g>
</g>
<!-- Node1&#45;&gt;Node17 -->
<g id="edge21" class="edge">
<title>Node1&#45;&gt;Node17</title>
<path fill="none" stroke="#191970" d="M71.9832,-473.883C81.3956,-504.7222 113.4872,-596.4867 174,-642.5 181.9644,-648.5561 191.2775,-653.148 200.8883,-656.6291"/>
<polygon fill="#191970" stroke="#191970" points="199.9677,-660.0098 210.5594,-659.7531 202.1194,-653.3487 199.9677,-660.0098"/>
</g>
<!-- Node18 -->
<g id="node18" class="node">
<title>Node18</title>
<g id="a_node18"><a xlink:href="../../d5/d72/classKFParticle__sPHENIX.html#ae6577b98533eab89597ca8bb5bb58fb3" target="_top" xlink:title="KFParticle_sPHENIX\l::setContainerName">
<polygon fill="none" stroke="#000000" points="209.5,-549.5 209.5,-581.5 326.5,-581.5 326.5,-549.5 209.5,-549.5"/>
<text text-anchor="start" x="217.5" y="-568.5" font-family="FreeSans" font-size="10.00" fill="#000000">KFParticle_sPHENIX</text>
<text text-anchor="middle" x="268" y="-556.5" font-family="FreeSans" font-size="10.00" fill="#000000">::setContainerName</text>
</a>
</g>
</g>
<!-- Node1&#45;&gt;Node18 -->
<g id="edge23" class="edge">
<title>Node1&#45;&gt;Node18</title>
<path fill="none" stroke="#191970" d="M80.0918,-473.6321C98.3542,-489.8037 136.4807,-521.4599 174,-539.5 182.0687,-543.3796 190.8143,-546.7657 199.6131,-549.6968"/>
<polygon fill="#191970" stroke="#191970" points="198.5625,-553.0353 209.152,-552.7004 200.665,-546.3585 198.5625,-553.0353"/>
</g>
<!-- Node19 -->
<g id="node19" class="node">
<title>Node19</title>
<g id="a_node19"><a xlink:href="../../d5/d72/classKFParticle__sPHENIX.html#a59c4e9f1b8f05f3cee5e9ed4f408e6be" target="_top" xlink:title="Parameters for the user to vary.">
<polygon fill="none" stroke="#000000" points="206.5,-498.5 206.5,-530.5 329.5,-530.5 329.5,-498.5 206.5,-498.5"/>
<text text-anchor="start" x="214.5" y="-517.5" font-family="FreeSans" font-size="10.00" fill="#000000">KFParticle_sPHENIX</text>
<text text-anchor="middle" x="268" y="-505.5" font-family="FreeSans" font-size="10.00" fill="#000000">::setDecayDescriptor</text>
</a>
</g>
</g>
<!-- Node1&#45;&gt;Node19 -->
<g id="edge24" class="edge">
<title>Node1&#45;&gt;Node19</title>
<path fill="none" stroke="#191970" d="M108.316,-473.576C133.4524,-480.018 166.7972,-488.5636 196.5128,-496.1792"/>
<polygon fill="#191970" stroke="#191970" points="195.8782,-499.6296 206.4341,-498.7218 197.6161,-492.8487 195.8782,-499.6296"/>
</g>
<!-- Node20 -->
<g id="node20" class="node">
<title>Node20</title>
<g id="a_node20"><a xlink:href="../../d5/d72/classKFParticle__sPHENIX.html#a6c9f974c69d21eb2388fa4bd629dbbe8" target="_top" xlink:title="KFParticle_sPHENIX\l::setMaximumDaughterDCA">
<polygon fill="none" stroke="#000000" points="189,-447.5 189,-479.5 347,-479.5 347,-447.5 189,-447.5"/>
<text text-anchor="start" x="197" y="-466.5" font-family="FreeSans" font-size="10.00" fill="#000000">KFParticle_sPHENIX</text>
<text text-anchor="middle" x="268" y="-454.5" font-family="FreeSans" font-size="10.00" fill="#000000">::setMaximumDaughterDCA</text>
</a>
</g>
</g>
<!-- Node1&#45;&gt;Node20 -->
<g id="edge25" class="edge">
<title>Node1&#45;&gt;Node20</title>
<path fill="none" stroke="#191970" d="M138.0421,-463.5C151.1025,-463.5 164.9379,-463.5 178.5215,-463.5"/>
<polygon fill="#191970" stroke="#191970" points="178.843,-467.0001 188.8429,-463.5 178.8429,-460.0001 178.843,-467.0001"/>
</g>
<!-- Node21 -->
<g id="node21" class="node">
<title>Node21</title>
<g id="a_node21"><a xlink:href="../../d5/d72/classKFParticle__sPHENIX.html#ade464a87a83de6636eb285610f9aa564" target="_top" xlink:title="KFParticle_sPHENIX\l::setMaximumMass">
<polygon fill="none" stroke="#000000" points="211,-396.5 211,-428.5 325,-428.5 325,-396.5 211,-396.5"/>
<text text-anchor="start" x="219" y="-415.5" font-family="FreeSans" font-size="10.00" fill="#000000">KFParticle_sPHENIX</text>
<text text-anchor="middle" x="268" y="-403.5" font-family="FreeSans" font-size="10.00" fill="#000000">::setMaximumMass</text>
</a>
</g>
</g>
<!-- Node1&#45;&gt;Node21 -->
<g id="edge26" class="edge">
<title>Node1&#45;&gt;Node21</title>
<path fill="none" stroke="#191970" d="M108.316,-453.424C134.686,-446.6659 170.0898,-437.5926 200.8602,-429.7067"/>
<polygon fill="#191970" stroke="#191970" points="201.8524,-433.0656 210.6704,-427.1925 200.1145,-426.2847 201.8524,-433.0656"/>
</g>
<!-- Node22 -->
<g id="node22" class="node">
<title>Node22</title>
<g id="a_node22"><a xlink:href="../../d5/d72/classKFParticle__sPHENIX.html#a383d96be30fd436ad922c57f3773a416" target="_top" xlink:title="KFParticle_sPHENIX\l::setMaximumTrackchi2nDOF">
<polygon fill="none" stroke="#000000" points="186,-345.5 186,-377.5 350,-377.5 350,-345.5 186,-345.5"/>
<text text-anchor="start" x="194" y="-364.5" font-family="FreeSans" font-size="10.00" fill="#000000">KFParticle_sPHENIX</text>
<text text-anchor="middle" x="268" y="-352.5" font-family="FreeSans" font-size="10.00" fill="#000000">::setMaximumTrackchi2nDOF</text>
</a>
</g>
</g>
<!-- Node1&#45;&gt;Node22 -->
<g id="edge27" class="edge">
<title>Node1&#45;&gt;Node22</title>
<path fill="none" stroke="#191970" d="M79.7514,-453.4482C97.8299,-437.0736 136.073,-404.6501 174,-386.5 178.0509,-384.5614 182.2745,-382.7559 186.5913,-381.0765"/>
<polygon fill="#191970" stroke="#191970" points="187.9563,-384.3045 196.1595,-377.5993 185.5654,-377.7255 187.9563,-384.3045"/>
</g>
<!-- Node23 -->
<g id="node23" class="node">
<title>Node23</title>
<g id="a_node23"><a xlink:href="../../d5/d72/classKFParticle__sPHENIX.html#abe363a67a3ca7fde060d97304392cbaf" target="_top" xlink:title="KFParticle_sPHENIX\l::setMaximumVertexchi2nDOF">
<polygon fill="none" stroke="#000000" points="183,-294.5 183,-326.5 353,-326.5 353,-294.5 183,-294.5"/>
<text text-anchor="start" x="191" y="-313.5" font-family="FreeSans" font-size="10.00" fill="#000000">KFParticle_sPHENIX</text>
<text text-anchor="middle" x="268" y="-301.5" font-family="FreeSans" font-size="10.00" fill="#000000">::setMaximumVertexchi2nDOF</text>
</a>
</g>
</g>
<!-- Node1&#45;&gt;Node23 -->
<g id="edge28" class="edge">
<title>Node1&#45;&gt;Node23</title>
<path fill="none" stroke="#191970" d="M74.3291,-453.3731C87.6606,-429.0614 124.9363,-367.0776 174,-335.5 176.4628,-333.9149 179.0234,-332.4299 181.6571,-331.0386"/>
<polygon fill="#191970" stroke="#191970" points="183.3323,-334.1176 190.8582,-326.6603 180.3245,-327.7967 183.3323,-334.1176"/>
</g>
<!-- Node24 -->
<g id="node24" class="node">
<title>Node24</title>
<g id="a_node24"><a xlink:href="../../d5/d72/classKFParticle__sPHENIX.html#af40545df4d0604189e580ef8f67a4826" target="_top" xlink:title="KFParticle_sPHENIX\l::setMinimumMass">
<polygon fill="none" stroke="#000000" points="211,-243.5 211,-275.5 325,-275.5 325,-243.5 211,-243.5"/>
<text text-anchor="start" x="219" y="-262.5" font-family="FreeSans" font-size="10.00" fill="#000000">KFParticle_sPHENIX</text>
<text text-anchor="middle" x="268" y="-250.5" font-family="FreeSans" font-size="10.00" fill="#000000">::setMinimumMass</text>
</a>
</g>
</g>
<!-- Node1&#45;&gt;Node24 -->
<g id="edge29" class="edge">
<title>Node1&#45;&gt;Node24</title>
<path fill="none" stroke="#191970" d="M71.9832,-453.117C81.3956,-422.2778 113.4872,-330.5133 174,-284.5 181.9644,-278.4439 191.2775,-273.852 200.8883,-270.3709"/>
<polygon fill="#191970" stroke="#191970" points="202.1194,-273.6513 210.5594,-267.2469 199.9677,-266.9902 202.1194,-273.6513"/>
</g>
<!-- Node25 -->
<g id="node25" class="node">
<title>Node25</title>
<g id="a_node25"><a xlink:href="../../d5/d72/classKFParticle__sPHENIX.html#a30dec9993f9b3f39432a9c7157a55af3" target="_top" xlink:title="KFParticle_sPHENIX\l::setMinimumTrackIPchi2">
<polygon fill="none" stroke="#000000" points="197.5,-192.5 197.5,-224.5 338.5,-224.5 338.5,-192.5 197.5,-192.5"/>
<text text-anchor="start" x="205.5" y="-211.5" font-family="FreeSans" font-size="10.00" fill="#000000">KFParticle_sPHENIX</text>
<text text-anchor="middle" x="268" y="-199.5" font-family="FreeSans" font-size="10.00" fill="#000000">::setMinimumTrackIPchi2</text>
</a>
</g>
</g>
<!-- Node1&#45;&gt;Node25 -->
<g id="edge30" class="edge">
<title>Node1&#45;&gt;Node25</title>
<path fill="none" stroke="#191970" d="M70.5011,-453.3912C76.3812,-417.4838 101.2234,-294.9528 174,-233.5 178.2739,-229.8911 183.0155,-226.7976 188.0324,-224.1465"/>
<polygon fill="#191970" stroke="#191970" points="189.7212,-227.2214 197.3183,-219.8366 186.7742,-220.8719 189.7212,-227.2214"/>
</g>
<!-- Node26 -->
<g id="node26" class="node">
<title>Node26</title>
<g id="a_node26"><a xlink:href="../../d5/d72/classKFParticle__sPHENIX.html#afc3cb251c41aa7585f1525404a761cf4" target="_top" xlink:title="KFParticle_sPHENIX\l::setMinimumTrackPT">
<polygon fill="none" stroke="#000000" points="206,-141.5 206,-173.5 330,-173.5 330,-141.5 206,-141.5"/>
<text text-anchor="start" x="214" y="-160.5" font-family="FreeSans" font-size="10.00" fill="#000000">KFParticle_sPHENIX</text>
<text text-anchor="middle" x="268" y="-148.5" font-family="FreeSans" font-size="10.00" fill="#000000">::setMinimumTrackPT</text>
</a>
</g>
</g>
<!-- Node1&#45;&gt;Node26 -->
<g id="edge31" class="edge">
<title>Node1&#45;&gt;Node26</title>
<path fill="none" stroke="#191970" d="M69.5899,-453.2381C72.5091,-412.3644 88.9329,-259.6402 174,-182.5 180.3837,-176.7112 187.9575,-172.2368 195.9934,-168.783"/>
<polygon fill="#191970" stroke="#191970" points="197.4628,-171.9699 205.5955,-165.1795 195.0033,-165.4162 197.4628,-171.9699"/>
</g>
<!-- Node27 -->
<g id="node27" class="node">
<title>Node27</title>
<g id="a_node27"><a xlink:href="../../d5/d72/classKFParticle__sPHENIX.html#a91bacaff07373bc2903d113178e12eb9" target="_top" xlink:title="KFParticle_sPHENIX\l::setMotherPT">
<polygon fill="none" stroke="#000000" points="211,-90.5 211,-122.5 325,-122.5 325,-90.5 211,-90.5"/>
<text text-anchor="start" x="219" y="-109.5" font-family="FreeSans" font-size="10.00" fill="#000000">KFParticle_sPHENIX</text>
<text text-anchor="middle" x="268" y="-97.5" font-family="FreeSans" font-size="10.00" fill="#000000">::setMotherPT</text>
</a>
</g>
</g>
<!-- Node1&#45;&gt;Node27 -->
<g id="edge32" class="edge">
<title>Node1&#45;&gt;Node27</title>
<path fill="none" stroke="#191970" d="M70.8888,-453.1735C80.3922,-402.2884 124.4802,-178.7752 174,-131.5 181.5901,-124.254 191.034,-119.0527 200.9845,-115.3304"/>
<polygon fill="#191970" stroke="#191970" points="202.2058,-118.6138 210.6359,-112.1963 200.0438,-111.956 202.2058,-118.6138"/>
</g>
<!-- Node28 -->
<g id="node28" class="node">
<title>Node28</title>
<g id="a_node28"><a xlink:href="../../d5/d72/classKFParticle__sPHENIX.html#a0c743710d73681a624adb7528cd0f4d8" target="_top" xlink:title="KFParticle_sPHENIX\l::setOutputName">
<polygon fill="none" stroke="#000000" points="211,-39.5 211,-71.5 325,-71.5 325,-39.5 211,-39.5"/>
<text text-anchor="start" x="219" y="-58.5" font-family="FreeSans" font-size="10.00" fill="#000000">KFParticle_sPHENIX</text>
<text text-anchor="middle" x="268" y="-46.5" font-family="FreeSans" font-size="10.00" fill="#000000">::setOutputName</text>
</a>
</g>
</g>
<!-- Node1&#45;&gt;Node28 -->
<g id="edge33" class="edge">
<title>Node1&#45;&gt;Node28</title>
<path fill="none" stroke="#191970" d="M70.3877,-453.4733C78.1607,-398.7011 117.9655,-136.1081 174,-80.5 181.5392,-73.0182 191.0481,-67.7037 201.1038,-63.9432"/>
<polygon fill="#191970" stroke="#191970" points="202.4235,-67.1952 210.8659,-60.794 200.2743,-60.5333 202.4235,-67.1952"/>
</g>
<!-- Node29 -->
<g id="node29" class="node">
<title>Node29</title>
<g id="a_node29"><a xlink:href="../../d5/dec/classFun4AllBase.html#a05da2261577843028cf78e99171343b9" target="_top" xlink:title="Sets the verbosity of this module (0 by default=quiet).">
<polygon fill="none" stroke="#000000" points="202,-.5 202,-20.5 334,-20.5 334,-.5 202,-.5"/>
<text text-anchor="middle" x="268" y="-7.5" font-family="FreeSans" font-size="10.00" fill="#000000">Fun4AllBase::Verbosity</text>
</a>
</g>
</g>
<!-- Node1&#45;&gt;Node29 -->
<g id="edge34" class="edge">
<title>Node1&#45;&gt;Node29</title>
<path fill="none" stroke="#191970" d="M70.0021,-453.2839C76.0541,-393.6899 109.6382,-91.4655 174,-29.5 179.2774,-24.4191 185.5176,-20.5234 192.2336,-17.5557"/>
<polygon fill="#191970" stroke="#191970" points="193.4866,-20.8241 201.6412,-14.0599 191.0482,-14.2624 193.4866,-20.8241"/>
</g>
<!-- Node6&#45;&gt;Node5 -->
<g id="edge6" class="edge">
<title>Node6&#45;&gt;Node5</title>
<path fill="none" stroke="#191970" d="M337.8068,-722.6288C346.6928,-726.2295 355.0821,-731.0525 362,-737.5 398.0893,-771.1354 362.122,-808.6393 398,-842.5 399.3177,-843.7436 400.7099,-844.9069 402.1636,-845.9951"/>
<polygon fill="#191970" stroke="#191970" points="400.7145,-849.2114 411.072,-851.4415 404.3659,-843.2391 400.7145,-849.2114"/>
</g>
<!-- Node7 -->
<g id="node7" class="node">
<title>Node7</title>
<g id="a_node7"><a xlink:href="../../d5/dec/classFun4AllBase.html#a41f9ac377743d046f590617fd6f4f0ed" target="_top" xlink:title="Returns the name of this module.">
<polygon fill="none" stroke="#000000" points="408.5,-812.5 408.5,-832.5 523.5,-832.5 523.5,-812.5 408.5,-812.5"/>
<text text-anchor="middle" x="466" y="-819.5" font-family="FreeSans" font-size="10.00" fill="#000000">Fun4AllBase::Name</text>
</a>
</g>
</g>
<!-- Node6&#45;&gt;Node7 -->
<g id="edge7" class="edge">
<title>Node6&#45;&gt;Node7</title>
<path fill="none" stroke="#191970" d="M333.9435,-722.6709C344.0063,-726.2333 353.7656,-731.0338 362,-737.5 388.2791,-758.1362 371.8506,-782.6996 398,-803.5 399.8317,-804.957 401.7684,-806.3023 403.7843,-807.5446"/>
<polygon fill="#191970" stroke="#191970" points="402.5623,-810.8538 413.0499,-812.3574 405.789,-804.6418 402.5623,-810.8538"/>
</g>
<!-- Node8 -->
<g id="node8" class="node">
<title>Node8</title>
<g id="a_node8"><a xlink:href="../../da/d29/classFun4AllServer.html#abcaf6825367e5db292ff795237bdcf62" target="_top" xlink:title="Fun4AllServer::topNode">
<polygon fill="none" stroke="#000000" points="398,-773.5 398,-793.5 534,-793.5 534,-773.5 398,-773.5"/>
<text text-anchor="middle" x="466" y="-780.5" font-family="FreeSans" font-size="10.00" fill="#000000">Fun4AllServer::topNode</text>
</a>
</g>
</g>
<!-- Node6&#45;&gt;Node8 -->
<g id="edge8" class="edge">
<title>Node6&#45;&gt;Node8</title>
<path fill="none" stroke="#191970" d="M320.0172,-722.545C334.0385,-726.2592 348.9341,-731.1607 362,-737.5 379.9939,-746.2303 380.0611,-755.6572 398,-764.5 402.2432,-766.5916 406.7525,-768.4844 411.3512,-770.1908"/>
<polygon fill="#191970" stroke="#191970" points="410.2652,-773.5183 420.8597,-773.4356 412.526,-766.8934 410.2652,-773.5183"/>
</g>
<!-- Node9 -->
<g id="node9" class="node">
<title>Node9</title>
<g id="a_node9"><a xlink:href="../../d7/d96/classFun4AllMemoryTracker.html#a3841cc0bc6c4047da2b4868ba39dbb8c" target="_top" xlink:title="Fun4AllMemoryTracker\l::Start">
<polygon fill="none" stroke="#000000" points="400,-722.5 400,-754.5 532,-754.5 532,-722.5 400,-722.5"/>
<text text-anchor="start" x="408" y="-741.5" font-family="FreeSans" font-size="10.00" fill="#000000">Fun4AllMemoryTracker</text>
<text text-anchor="middle" x="466" y="-729.5" font-family="FreeSans" font-size="10.00" fill="#000000">::Start</text>
</a>
</g>
</g>
<!-- Node6&#45;&gt;Node9 -->
<g id="edge9" class="edge">
<title>Node6&#45;&gt;Node9</title>
<path fill="none" stroke="#191970" d="M344.2687,-722.5151C359.1391,-724.4678 374.7327,-726.5154 389.6071,-728.4686"/>
<polygon fill="#191970" stroke="#191970" points="389.4015,-731.9716 399.7721,-729.8034 390.3129,-725.0312 389.4015,-731.9716"/>
</g>
<!-- Node12 -->
<g id="node12" class="node">
<title>Node12</title>
<g id="a_node12"><a xlink:href="../../d5/dec/classFun4AllBase.html#a8a5c77a92bdac6bc043476e132379a40" target="_top" xlink:title="Gets the verbosity of this module.">
<polygon fill="none" stroke="#000000" points="574,-632.5 574,-652.5 706,-652.5 706,-632.5 574,-632.5"/>
<text text-anchor="middle" x="640" y="-639.5" font-family="FreeSans" font-size="10.00" fill="#000000">Fun4AllBase::Verbosity</text>
</a>
</g>
</g>
<!-- Node6&#45;&gt;Node12 -->
<g id="edge18" class="edge">
<title>Node6&#45;&gt;Node12</title>
<path fill="none" stroke="#191970" d="M338.614,-702.3567C346.7061,-699.9962 354.6724,-697.0865 362,-693.5 380.9648,-684.2176 378.525,-670.6579 398,-662.5 450.3648,-640.565 514.6061,-636.1734 563.7372,-636.9378"/>
<polygon fill="#191970" stroke="#191970" points="563.9039,-640.4425 573.9822,-637.1747 564.0658,-633.4443 563.9039,-640.4425"/>
</g>
<!-- Node13 -->
<g id="node13" class="node">
<title>Node13</title>
<g id="a_node13"><a xlink:href="../../d0/d32/classSubsysReco.html#a6670c0a093dd2c2bdd44f8fc6f9ba8e8" target="_top" xlink:title="SubsysReco::Init">
<polygon fill="none" stroke="#000000" points="416,-593.5 416,-613.5 516,-613.5 516,-593.5 416,-593.5"/>
<text text-anchor="middle" x="466" y="-600.5" font-family="FreeSans" font-size="10.00" fill="#000000">SubsysReco::Init</text>
</a>
</g>
</g>
<!-- Node6&#45;&gt;Node13 -->
<g id="edge13" class="edge">
<title>Node6&#45;&gt;Node13</title>
<path fill="none" stroke="#191970" d="M346.2332,-702.369C351.8304,-699.9635 357.1647,-697.042 362,-693.5 388.6408,-673.985 372.9272,-649.9923 398,-628.5 402.951,-624.2561 408.6855,-620.7057 414.6831,-617.7421"/>
<polygon fill="#191970" stroke="#191970" points="416.4936,-620.7702 424.2498,-613.5527 413.6856,-614.3581 416.4936,-620.7702"/>
</g>
<!-- Node14 -->
<g id="node14" class="node">
<title>Node14</title>
<g id="a_node14"><a xlink:href="../../d7/d96/classFun4AllMemoryTracker.html#a766ac66dd36ffa4e3fbe6e622923565f" target="_top" xlink:title="Fun4AllMemoryTracker\l::Stop">
<polygon fill="none" stroke="#000000" points="400,-671.5 400,-703.5 532,-703.5 532,-671.5 400,-671.5"/>
<text text-anchor="start" x="408" y="-690.5" font-family="FreeSans" font-size="10.00" fill="#000000">Fun4AllMemoryTracker</text>
<text text-anchor="middle" x="466" y="-678.5" font-family="FreeSans" font-size="10.00" fill="#000000">::Stop</text>
</a>
</g>
</g>
<!-- Node6&#45;&gt;Node14 -->
<g id="edge14" class="edge">
<title>Node6&#45;&gt;Node14</title>
<path fill="none" stroke="#191970" d="M347.3933,-702.4756C361.4184,-700.7047 375.9904,-698.8648 389.9217,-697.1058"/>
<polygon fill="#191970" stroke="#191970" points="390.4528,-700.5667 399.9356,-695.8415 389.5759,-693.6218 390.4528,-700.5667"/>
</g>
<!-- Node10 -->
<g id="node10" class="node">
<title>Node10</title>
<g id="a_node10"><a xlink:href="../../d7/d96/classFun4AllMemoryTracker.html#aa8eb9ed150f51165b9abfd456c18a432" target="_top" xlink:title="Fun4AllMemoryTracker\l::CreateFullTrackerName">
<polygon fill="none" stroke="#000000" points="570,-722.5 570,-754.5 710,-754.5 710,-722.5 570,-722.5"/>
<text text-anchor="start" x="578" y="-741.5" font-family="FreeSans" font-size="10.00" fill="#000000">Fun4AllMemoryTracker</text>
<text text-anchor="middle" x="640" y="-729.5" font-family="FreeSans" font-size="10.00" fill="#000000">::CreateFullTrackerName</text>
</a>
</g>
</g>
<!-- Node9&#45;&gt;Node10 -->
<g id="edge10" class="edge">
<title>Node9&#45;&gt;Node10</title>
<path fill="none" stroke="#191970" d="M532.2783,-738.5C541.21,-738.5 550.4511,-738.5 559.5944,-738.5"/>
<polygon fill="#191970" stroke="#191970" points="559.8544,-742.0001 569.8544,-738.5 559.8544,-735.0001 559.8544,-742.0001"/>
</g>
<!-- Node11 -->
<g id="node11" class="node">
<title>Node11</title>
<g id="a_node11"><a xlink:href="../../d7/d96/classFun4AllMemoryTracker.html#a4059a8c86c92e1708e5bbdc585af99ed" target="_top" xlink:title="Fun4AllMemoryTracker\l::GetRSSMemory">
<polygon fill="none" stroke="#000000" points="574,-671.5 574,-703.5 706,-703.5 706,-671.5 574,-671.5"/>
<text text-anchor="start" x="582" y="-690.5" font-family="FreeSans" font-size="10.00" fill="#000000">Fun4AllMemoryTracker</text>
<text text-anchor="middle" x="640" y="-678.5" font-family="FreeSans" font-size="10.00" fill="#000000">::GetRSSMemory</text>
</a>
</g>
</g>
<!-- Node9&#45;&gt;Node11 -->
<g id="edge11" class="edge">
<title>Node9&#45;&gt;Node11</title>
<path fill="none" stroke="#191970" d="M521.0547,-722.3633C538.3601,-717.291 557.6237,-711.6448 575.5217,-706.3988"/>
<polygon fill="#191970" stroke="#191970" points="576.6916,-709.7032 585.3035,-703.5317 574.7227,-702.9858 576.6916,-709.7032"/>
</g>
<!-- Node9&#45;&gt;Node12 -->
<g id="edge12" class="edge">
<title>Node9&#45;&gt;Node12</title>
<path fill="none" stroke="#191970" d="M519.6289,-722.3907C524.7175,-719.8166 529.6084,-716.8679 534,-713.5 556.0162,-696.6161 547.3743,-678.5578 570,-662.5 573.0664,-660.3238 576.3654,-658.3832 579.8016,-656.653"/>
<polygon fill="#191970" stroke="#191970" points="581.4034,-659.7723 589.1522,-652.5468 578.5888,-653.363 581.4034,-659.7723"/>
</g>
<!-- Node14&#45;&gt;Node10 -->
<g id="edge15" class="edge">
<title>Node14&#45;&gt;Node10</title>
<path fill="none" stroke="#191970" d="M521.0547,-703.6367C538.3601,-708.709 557.6237,-714.3552 575.5217,-719.6012"/>
<polygon fill="#191970" stroke="#191970" points="574.7227,-723.0142 585.3035,-722.4683 576.6916,-716.2968 574.7227,-723.0142"/>
</g>
<!-- Node14&#45;&gt;Node11 -->
<g id="edge16" class="edge">
<title>Node14&#45;&gt;Node11</title>
<path fill="none" stroke="#191970" d="M532.2783,-687.5C542.6131,-687.5 553.3621,-687.5 563.8946,-687.5"/>
<polygon fill="#191970" stroke="#191970" points="563.906,-691.0001 573.906,-687.5 563.9059,-684.0001 563.906,-691.0001"/>
</g>
<!-- Node14&#45;&gt;Node12 -->
<g id="edge17" class="edge">
<title>Node14&#45;&gt;Node12</title>
<path fill="none" stroke="#191970" d="M528.3265,-671.3811C549.0034,-666.0336 571.7073,-660.1619 591.213,-655.1173"/>
<polygon fill="#191970" stroke="#191970" points="592.2889,-658.4543 601.094,-652.5619 590.5362,-651.6773 592.2889,-658.4543"/>
</g>
<!-- Node16 -->
<g id="node16" class="node">
<title>Node16</title>
<g id="a_node16"><a xlink:href="../../d4/d23/Prototype2_2EMCal_2macros_2EnergyCalibFit_8m.html#adb63766dbe24a34d21cc0dd41dc5260d" target="_top" xlink:title="save">
<polygon fill="none" stroke="#000000" points="446,-554.5 446,-574.5 486,-574.5 486,-554.5 446,-554.5"/>
<text text-anchor="middle" x="466" y="-561.5" font-family="FreeSans" font-size="10.00" fill="#000000">save</text>
</a>
</g>
</g>
<!-- Node15&#45;&gt;Node16 -->
<g id="edge20" class="edge">
<title>Node15&#45;&gt;Node16</title>
<path fill="none" stroke="#191970" d="M325.0042,-601.5292C361.0233,-592.0696 406.1466,-580.2191 435.5036,-572.5092"/>
<polygon fill="#191970" stroke="#191970" points="436.777,-575.7935 445.5599,-569.8681 434.9988,-569.0231 436.777,-575.7935"/>
</g>
<!-- Node17&#45;&gt;Node16 -->
<g id="edge22" class="edge">
<title>Node17&#45;&gt;Node16</title>
<path fill="none" stroke="#191970" d="M325.3407,-659.6205C338.2676,-655.9187 351.3111,-650.4823 362,-642.5 386.6125,-624.1199 373.503,-602.0339 398,-583.5 408.8444,-575.2954 423.0598,-570.6336 435.6881,-567.9849"/>
<polygon fill="#191970" stroke="#191970" points="436.5732,-571.383 445.8137,-566.1999 435.3579,-564.4893 436.5732,-571.383"/>
</g>
</g>
</svg>
